<svg xmlns="http://www.w3.org/2000/svg" viewBox="0 0 1000 1000" width="1000" height="1000" shape-rendering="geometricPrecision"><defs>

  <!-- Scene gradients -->
  <radialGradient id="bgr1x1034" cx="50%" cy="42%" r="72%">
    <stop offset="0%"   stop-color="#0a0a14"/>
    <stop offset="100%" stop-color="#050508"/>
  </radialGradient>
  <linearGradient id="suitr1x1034" x1="8%" y1="0%" x2="92%" y2="100%">
    <stop offset="0%"   stop-color="#4444ff" stop-opacity=".95"/>
    <stop offset="45%"  stop-color="#141428"/>
    <stop offset="100%" stop-color="#050508"/>
  </linearGradient>
  <linearGradient id="suitHir1x1034" x1="0%" y1="0%" x2="0%" y2="100%">
    <stop offset="0%"   stop-color="rgba(255,255,255,.28)"/>
    <stop offset="60%"  stop-color="rgba(255,255,255,.04)"/>
    <stop offset="100%" stop-color="rgba(255,255,255,0)"/>
  </linearGradient>
  <!-- Bevel: bright top, dark bottom for armour panels -->
  <linearGradient id="bevelr1x1034" x1="0%" y1="0%" x2="0%" y2="100%">
    <stop offset="0%"   stop-color="rgba(255,255,255,.55)"/>
    <stop offset="30%"  stop-color="#4444ff"/>
    <stop offset="70%"  stop-color="#141428"/>
    <stop offset="100%" stop-color="rgba(0,0,0,.5)"/>
  </linearGradient>

  <!-- Weapon: cold steel blade sweep -->
  <linearGradient id="blader1x1034" x1="0%" y1="0%" x2="100%" y2="0%">
    <stop offset="0%"   stop-color="#0e0e20"/>
    <stop offset="16%"  stop-color="#3e3e58"/>
    <stop offset="34%"  stop-color="#c8c8e0"/>
    <stop offset="50%"  stop-color="#f5f5ff"/>
    <stop offset="66%"  stop-color="#b8b8d0"/>
    <stop offset="84%"  stop-color="#2e2e48"/>
    <stop offset="100%" stop-color="#08080e"/>
  </linearGradient>
  <!-- Blade tip brightening -->
  <linearGradient id="bladeTipr1x1034" x1="0%" y1="100%" x2="0%" y2="0%">
    <stop offset="0%"   stop-color="rgba(255,255,255,0)"/>
    <stop offset="55%"  stop-color="rgba(255,255,255,.1)"/>
    <stop offset="100%" stop-color="rgba(255,255,255,.55)"/>
  </linearGradient>
  <!-- Gunmetal anodised — blaster body -->
  <linearGradient id="gunmetalr1x1034" x1="0%" y1="0%" x2="0%" y2="100%">
    <stop offset="0%"   stop-color="#46465e"/>
    <stop offset="18%"  stop-color="#828296"/>
    <stop offset="42%"  stop-color="#26263a"/>
    <stop offset="72%"  stop-color="#16162a"/>
    <stop offset="100%" stop-color="#0c0c18"/>
  </linearGradient>
  <!-- Brushed steel tube — barrel/rod -->
  <linearGradient id="barrelr1x1034" x1="0%" y1="0%" x2="100%" y2="0%">
    <stop offset="0%"   stop-color="#0a0a14"/>
    <stop offset="24%"  stop-color="#585875"/>
    <stop offset="50%"  stop-color="#a8a8c8"/>
    <stop offset="76%"  stop-color="#383852"/>
    <stop offset="100%" stop-color="#0a0a14"/>
  </linearGradient>
  <!-- Chrome rod — lance shaft -->
  <linearGradient id="chromer1x1034" x1="0%" y1="0%" x2="100%" y2="0%">
    <stop offset="0%"   stop-color="#0c0c18"/>
    <stop offset="20%"  stop-color="#686888"/>
    <stop offset="44%"  stop-color="#e0e0f0"/>
    <stop offset="56%"  stop-color="#c0c0d8"/>
    <stop offset="80%"  stop-color="#28283e"/>
    <stop offset="100%" stop-color="#0c0c18"/>
  </linearGradient>
  <!-- Titanium plate — shield face -->
  <linearGradient id="titaniumr1x1034" x1="0%" y1="0%" x2="100%" y2="100%">
    <stop offset="0%"   stop-color="#585878"/>
    <stop offset="28%"  stop-color="#4444ff" stop-opacity=".88"/>
    <stop offset="55%"  stop-color="#141428"/>
    <stop offset="80%"  stop-color="#181828"/>
    <stop offset="100%" stop-color="#0a0a18"/>
  </linearGradient>
  <!-- Artillery black-chrome — cannon body -->
  <linearGradient id="artilleryr1x1034" x1="0%" y1="0%" x2="0%" y2="100%">
    <stop offset="0%"   stop-color="#383850"/>
    <stop offset="14%"  stop-color="#78789a"/>
    <stop offset="36%"  stop-color="#202034"/>
    <stop offset="65%"  stop-color="#14141e"/>
    <stop offset="100%" stop-color="#0a0a12"/>
  </linearGradient>
  <!-- Energy orb — staff -->
  <radialGradient id="orbr1x1034" cx="35%" cy="35%" r="65%">
    <stop offset="0%"   stop-color="rgba(255,255,255,.9)"/>
    <stop offset="30%"  stop-color="#4444ff"/>
    <stop offset="68%"  stop-color="#141428"/>
    <stop offset="100%" stop-color="rgba(0,0,0,.6)"/>
  </radialGradient>
  <!-- Knuckle plate chrome -->
  <linearGradient id="knuckler1x1034" x1="0%" y1="0%" x2="0%" y2="100%">
    <stop offset="0%"   stop-color="#888aaa"/>
    <stop offset="32%"  stop-color="#4444ff" stop-opacity=".8"/>
    <stop offset="62%"  stop-color="#1a1a2c"/>
    <stop offset="100%" stop-color="#0a0a14"/>
  </linearGradient>

  <!-- Carbon fibre weave texture overlay -->
  <pattern id="carbonr1x1034" width="6" height="6" patternUnits="userSpaceOnUse">
    <rect width="6" height="6" fill="rgba(0,0,0,.08)"/>
    <rect x="0" y="0" width="3" height="3" fill="rgba(255,255,255,.022)"/>
    <rect x="3" y="3" width="3" height="3" fill="rgba(255,255,255,.022)"/>
    <line x1="0" y1="0" x2="3" y2="3" stroke="rgba(255,255,255,.038)" stroke-width=".5"/>
    <line x1="3" y1="0" x2="6" y2="3" stroke="rgba(0,0,0,.055)"       stroke-width=".5"/>
    <line x1="0" y1="3" x2="3" y2="6" stroke="rgba(0,0,0,.055)"       stroke-width=".5"/>
    <line x1="3" y1="3" x2="6" y2="6" stroke="rgba(255,255,255,.038)" stroke-width=".5"/>
  </pattern>

  <!-- Specular metal sheen on armour panels -->
  <filter id="metalr1x1034" x="-5%" y="-5%" width="110%" height="110%">
    <feSpecularLighting surfaceScale="4" specularConstant="1.8"
        specularExponent="42" lighting-color="#ffffff" result="spec">
      <feDistantLight elevation="52" azimuth="38"/>
    </feSpecularLighting>
    <feComposite in="spec" in2="SourceGraphic" operator="in" result="sm"/>
    <feComposite in="SourceGraphic" in2="sm" operator="arithmetic" k1="0" k2="1" k3="0.55" k4="0"/>
  </filter>

  <!-- Sharper specular for weapons — heavier glare -->
  <filter id="wmr1x1034" x="-8%" y="-8%" width="116%" height="116%">
    <feSpecularLighting surfaceScale="6" specularConstant="2.4"
        specularExponent="65" lighting-color="#ffffff" result="spec">
      <feDistantLight elevation="44" azimuth="28"/>
    </feSpecularLighting>
    <feComposite in="spec" in2="SourceGraphic" operator="in" result="sm"/>
    <feComposite in="SourceGraphic" in2="sm" operator="arithmetic" k1="0" k2="1" k3="0.78" k4="0"/>
  </filter>

  <!-- Sketch wobble -->
  <filter id="skr1x1034" x="-8%" y="-8%" width="116%" height="116%">
    <feTurbulence type="fractalNoise" baseFrequency="0.038"
        numOctaves="3" seed="46" result="noise"/>
    <feDisplacementMap in="SourceGraphic" in2="noise" scale="2.6"
        xChannelSelector="R" yChannelSelector="G" result="w"/>
    <feComposite in="w" in2="SourceGraphic" operator="atop"/>
  </filter>

  <!-- Glow: sharp accent -->
  <filter id="glowr1x1034" x="-20%" y="-20%" width="140%" height="140%">
    <feGaussianBlur stdDeviation="3.5" result="b"/>
    <feColorMatrix in="b" type="matrix"
        values="0 0 0 0 1  0 0 0 0 1  0 0 0 0 1  0 0 0 1.8 0" result="boost"/>
    <feMerge><feMergeNode in="boost"/><feMergeNode in="SourceGraphic"/></feMerge>
  </filter>

  <!-- Bloom: wide soft -->
  <filter id="bloomr1x1034" x="-40%" y="-40%" width="180%" height="180%">
    <feGaussianBlur stdDeviation="11" result="b"/>
    <feMerge><feMergeNode in="b"/><feMergeNode in="SourceGraphic"/></feMerge>
  </filter>

  </defs><rect width="1000" height="1000" fill="url(#bgr1x1034)"/><ellipse cx="500.0" cy="892.0" rx="350.0" ry="65.0" fill="rgba(0,0,0,.7)" filter="url(#bloomr1x1034)"/><ellipse cx="500.0" cy="889.0" rx="220.0" ry="34.0" fill="rgba(0,0,0,.45)"/><ellipse cx="500.0" cy="520.0" rx="320.0" ry="480.0" fill="#00e5ff" fill-opacity=".042" filter="url(#bloomr1x1034)"/><circle cx="471.4" cy="770.1" r="0.7" fill="#00e5ff" fill-opacity="0.39" filter="url(#glowr1x1034)"/><circle cx="622.2" cy="384.6" r="0.6" fill="#00e5ff" fill-opacity="0.71" filter="url(#glowr1x1034)"/><circle cx="678.2" cy="403.2" r="1.4" fill="#00e5ff" fill-opacity="0.62" filter="url(#glowr1x1034)"/><circle cx="465.0" cy="484.7" r="3.0" fill="#00e5ff" fill-opacity="0.67" filter="url(#glowr1x1034)"/><circle cx="312.0" cy="399.4" r="0.7" fill="#00e5ff" fill-opacity="0.61" filter="url(#glowr1x1034)"/><circle cx="315.4" cy="220.9" r="1.2" fill="#00e5ff" fill-opacity="0.58" filter="url(#glowr1x1034)"/><circle cx="304.2" cy="228.6" r="2.5" fill="#00e5ff" fill-opacity="0.77" filter="url(#glowr1x1034)"/><circle cx="436.4" cy="613.7" r="3.6" fill="#00e5ff" fill-opacity="0.53" filter="url(#glowr1x1034)"/><circle cx="735.5" cy="236.7" r="2.8" fill="#00e5ff" fill-opacity="0.78" filter="url(#glowr1x1034)"/><circle cx="406.8" cy="750.6" r="2.3" fill="#00e5ff" fill-opacity="0.38" filter="url(#glowr1x1034)"/><circle cx="285.2" cy="522.1" r="3.7" fill="#00e5ff" fill-opacity="0.43" filter="url(#glowr1x1034)"/><circle cx="447.2" cy="205.1" r="1.6" fill="#00e5ff" fill-opacity="0.67" filter="url(#glowr1x1034)"/><circle cx="686.9" cy="306.6" r="1.9" fill="#00e5ff" fill-opacity="0.56" filter="url(#glowr1x1034)"/><circle cx="630.5" cy="413.0" r="2.6" fill="#00e5ff" fill-opacity="0.83" filter="url(#glowr1x1034)"/><path d="M705.9,179.5 Q686.7,401.3 615.6,625.2" stroke="#00e5ff" stroke-opacity="0.53" stroke-width="1.8" fill="none" filter="url(#glowr1x1034)"/><path d="M424.6,279.8 Q449.9,535.2 361.6,778.8" stroke="#00e5ff" stroke-opacity="0.48" stroke-width="2.3" fill="none" filter="url(#glowr1x1034)"/><path d="M662.1,215.7 Q625.1,414.1 420.3,645.3" stroke="#00e5ff" stroke-opacity="0.61" stroke-width="2.1" fill="none" filter="url(#glowr1x1034)"/><path d="M609.2,253.0 Q581.5,574.9 367.2,853.3" stroke="#00e5ff" stroke-opacity="0.59" stroke-width="2.7" fill="none" filter="url(#glowr1x1034)"/><path d="M685.9,230.3 Q686.6,475.3 512.0,707.7" stroke="#00e5ff" stroke-opacity="0.48" stroke-width="2.6" fill="none" filter="url(#glowr1x1034)"/><polygon points="397.8,663.2 491.1,663.9 480.5,878.5 386.4,876.8" fill="url(#suitr1x1034)" stroke="#4444ff" stroke-width="2.2" filter="url(#skr1x1034) url(#metalr1x1034)"/><polygon points="398.5,663.5 490.7,662.9 480.5,876.8 388.8,878.0" fill="url(#carbonr1x1034)"/><polygon points="392.0,725.1 493.0,722.9 482.6,787.5 385.3,787.5" fill="url(#bevelr1x1034)" fill-opacity=".5" stroke="#4444ff" stroke-width="1.4" filter="url(#skr1x1034)"/><polygon points="511.3,663.3 602.7,662.7 611.3,877.1 518.1,878.4" fill="url(#suitr1x1034)" stroke="#4444ff" stroke-width="2.2" filter="url(#skr1x1034) url(#metalr1x1034)"/><polygon points="508.9,660.9 601.1,662.7 613.9,876.9 518.5,877.6" fill="url(#carbonr1x1034)"/><polygon points="508.3,724.5 607.5,722.0 616.9,787.5 517.6,789.8" fill="url(#bevelr1x1034)" fill-opacity=".5" stroke="#4444ff" stroke-width="1.4" filter="url(#skr1x1034)"/><rect x="393.7" y="837.4" width="100.3" height="24.7" fill="url(#bevelr1x1034)" stroke="#4444ff" stroke-width="1" filter="url(#skr1x1034)"/><rect x="507.7"  y="837.0" width="100.3" height="24.7" fill="url(#bevelr1x1034)" stroke="#4444ff" stroke-width="1" filter="url(#skr1x1034)"/><polygon points="371.1,878.3 498.0,876.8 505.2,922.3 363.9,920.1" fill="#141428" stroke="#4444ff" stroke-width="2" filter="url(#skr1x1034)"/><polygon points="503.3,876.9 629.5,877.5 637.5,921.6 496.4,920.5" fill="#141428" stroke="#4444ff" stroke-width="2" filter="url(#skr1x1034)"/><polygon points="305.1,632.5 696.9,633.8 637.8,681.0 362.6,683.6" fill="#4444ff" fill-opacity=".52" stroke="#4444ff" stroke-width="2" filter="url(#skr1x1034)"/><rect x="463.0" y="639.6" width="72.0" height="42.0" fill="url(#bevelr1x1034)" stroke="#4444ff" stroke-width="1.4" filter="url(#glowr1x1034)"/><rect x="487.2" y="639.2" width="28.0" height="22.0" rx="1" fill="rgba(255,255,255,.48)"/><polygon points="151.3,466.4 234.9,467.1 256.4,736.2 129.0,735.2" fill="url(#suitr1x1034)" stroke="#4444ff" stroke-width="2.2" filter="url(#skr1x1034) url(#metalr1x1034)"/><polygon points="175.3,431.5 254.6,432.8 243.0,509.4 160.1,510.3" fill="url(#bevelr1x1034)" fill-opacity=".72" stroke="#4444ff" stroke-width="2.2" filter="url(#skr1x1034)"/><polygon points="162.0,620.4 241.7,621.3 240.8,661.0 165.9,662.1" fill="#4444ff" fill-opacity=".42" stroke="#4444ff" stroke-width="1" filter="url(#skr1x1034)"/><polygon points="764.3,466.4 846.7,465.0 872.1,735.2 743.7,735.8" fill="url(#suitr1x1034)" stroke="#4444ff" stroke-width="2.2" filter="url(#skr1x1034) url(#metalr1x1034)"/><polygon points="745.3,433.4 826.3,433.0 839.1,509.3 756.7,511.6" fill="url(#bevelr1x1034)" fill-opacity=".72" stroke="#4444ff" stroke-width="2.2" filter="url(#skr1x1034)"/><polygon points="757.7,621.5 838.0,620.4 836.0,660.7 760.5,659.4" fill="#4444ff" fill-opacity=".42" stroke="#4444ff" stroke-width="1" filter="url(#skr1x1034)"/><rect x="121.6"  y="700.5" width="135.3" height="85.0" rx="4" fill="url(#bevelr1x1034)" stroke="#4444ff" stroke-width="1.8" filter="url(#skr1x1034)"/><rect x="750.3"   y="700.2" width="135.3" height="85.0" rx="4" fill="url(#bevelr1x1034)" stroke="#4444ff" stroke-width="1.8" filter="url(#skr1x1034)"/><line x1="149.5" y1="700.5" x2="149.1" y2="785.4" stroke="#4444ff" stroke-opacity=".38" stroke-width="1"/><line x1="776.5" y1="700.1" x2="777.4" y2="783.5" stroke="#4444ff" stroke-opacity=".38" stroke-width="1"/><line x1="180.8" y1="703.2" x2="182.8" y2="784.2" stroke="#4444ff" stroke-opacity=".38" stroke-width="1"/><line x1="809.4" y1="701.0" x2="809.1" y2="783.0" stroke="#4444ff" stroke-opacity=".38" stroke-width="1"/><line x1="215.2" y1="701.0" x2="215.6" y2="783.6" stroke="#4444ff" stroke-opacity=".38" stroke-width="1"/><line x1="843.8" y1="702.2" x2="844.1" y2="784.2" stroke="#4444ff" stroke-opacity=".38" stroke-width="1"/><polygon points="235.1,419.2 765.2,417.6 722.4,664.2 276.6,664.0" fill="url(#suitr1x1034)" stroke="#4444ff" stroke-width="2.6" filter="url(#skr1x1034) url(#metalr1x1034)"/><polygon points="234.7,418.0 766.2,418.6 721.7,662.4 277.7,664.0" fill="url(#carbonr1x1034)"/><polygon points="367.3,416.6 631.4,418.4 612.6,514.8 388.0,516.1" fill="url(#suitHir1x1034)"/><line x1="362.2" y1="472.2" x2="636.2" y2="471.6" stroke="#4444ff" stroke-opacity=".52" stroke-width="1.3" filter="url(#skr1x1034)"/><line x1="400.5" y1="550.3" x2="601.1" y2="548.2" stroke="#4444ff" stroke-opacity=".52" stroke-width="1.3" filter="url(#skr1x1034)"/><line x1="266.9" y1="489.4" x2="319.5" y2="492.6" stroke="#4444ff" stroke-opacity=".62" stroke-width="1.8"/><line x1="681.8" y1="489.6" x2="731.7" y2="489.3" stroke="#4444ff" stroke-opacity=".62" stroke-width="1.8"/><line x1="265.1" y1="524.2" x2="320.5" y2="521.7" stroke="#4444ff" stroke-opacity=".62" stroke-width="1.8"/><line x1="680.4" y1="524.2" x2="734.5" y2="521.3" stroke="#4444ff" stroke-opacity=".62" stroke-width="1.8"/><line x1="267.4" y1="554.3" x2="320.6" y2="555.9" stroke="#4444ff" stroke-opacity=".62" stroke-width="1.8"/><line x1="681.3" y1="555.1" x2="732.5" y2="556.4" stroke="#4444ff" stroke-opacity=".62" stroke-width="1.8"/><line x1="266.2" y1="585.0" x2="318.2" y2="586.4" stroke="#4444ff" stroke-opacity=".62" stroke-width="1.8"/><line x1="680.8" y1="585.8" x2="732.3" y2="587.6" stroke="#4444ff" stroke-opacity=".62" stroke-width="1.8"/><g filter="url(#glowr1x1034)"><ellipse cx="500.2" cy="512.0" rx="42.9" ry="23.2" fill="#050508" stroke="#4444ff" stroke-width="1.6" filter="url(#skr1x1034)"/><circle cx="501.5" cy="512.3" r="15.1" fill="#4444ff"/><circle cx="498.8" cy="506.4" r="5.8" fill="#050508"/><ellipse cx="495.8" cy="505.4" rx="3.5" ry="2.3" fill="rgba(255,255,255,.7)"/></g><g><rect x="41.78147078597915" y="395.46398727623745" width="175.0" height="118.0" rx="7" fill="url(#artilleryr1x1034)" stroke="#4444ff" stroke-width="2.6" filter="url(#wmr1x1034)"/><rect x="41.20743210552257" y="397.4644364505075" width="175.0" height="118.0" rx="7" fill="url(#carbonr1x1034)"/><rect x="17.036022298727154" y="446.65717546176165" width="78.0" height="32.0" rx="6" fill="url(#barrelr1x1034)" stroke="#4444ff" stroke-width="1.4" filter="url(#wmr1x1034)"/><circle cx="118.79512217951935" cy="471.04284236505623" r="48.0" fill="rgba(0,0,0,.55)" stroke="#4444ff" stroke-width="2" filter="url(#wmr1x1034)"/><circle cx="117.74370333174241" cy="472.0319283810444" r="34.0" fill="#4444ff" fill-opacity=".4" filter="url(#bloomr1x1034)"/><circle cx="117.53007668921721" cy="472.3678564095869" r="18.0" fill="#4444ff" filter="url(#glowr1x1034)"/><rect x="45.59457030868155" y="380.06473962785674" width="100.0" height="18.0" rx="2" fill="url(#bevelr1x1034)" stroke="#4444ff" stroke-width="1" filter="url(#wmr1x1034)"/><rect x="45.12173741826784" y="398.85484476266424" width="120.0" height="12.0" rx="3" fill="rgba(255,255,255,.2)"/><line x1="51.793532078936664" y1="518.7499376430176" x2="51.05066831842062" y2="548.8855040546506" stroke="#4444ff" stroke-opacity=".6" stroke-width="2"/><line x1="76.2479051567055" y1="518.6245954500511" x2="74.68065825033929" y2="551.1519695423543" stroke="#4444ff" stroke-opacity=".6" stroke-width="2"/><line x1="99.67474513774735" y1="520.8281770234927" x2="98.75861480630931" y2="550.1899803342297" stroke="#4444ff" stroke-opacity=".6" stroke-width="2"/><line x1="124.23944568237286" y1="521.0839944056235" x2="124.8481151873618" y2="549.1999868825078" stroke="#4444ff" stroke-opacity=".6" stroke-width="2"/></g><rect x="451.5707296064123" y="556.3897673680447" width="100.0"  height="56.0" fill="#141428" stroke="#4444ff" stroke-width="2.2" filter="url(#skr1x1034)"/><rect x="423.0570956167765" y="574.2335783456452" width="152.0" height="26.0" fill="url(#bevelr1x1034)" fill-opacity=".65" stroke="#4444ff" stroke-width="1.2" filter="url(#skr1x1034)"/><polygon points="306.2,379.4 351.4,294.3 498.7,279.5 651.5,292.7 692.6,381.5 667.4,502.1 500.6,565.4 329.6,503.3" fill="url(#suitr1x1034)" stroke="#4444ff" stroke-width="2.8" filter="url(#skr1x1034) url(#metalr1x1034)"/><polygon points="307.8,381.8 351.0,293.4 498.4,279.5 649.5,295.6 691.5,381.0 669.0,505.1 499.1,566.4 332.7,502.1" fill="url(#carbonr1x1034)"/><polygon points="382.0,302.9 498.6,287.2 619.8,302.0 609.1,381.2 392.2,379.6" fill="url(#suitHir1x1034)"/><polygon points="381.5,380.8 365.3,426.8 434.2,502.2 498.2,529.6 569.0,504.1 634.0,426.4 619.4,379.5" fill="#050508" fill-opacity=".88" stroke="#4444ff" stroke-width="1.8" filter="url(#skr1x1034)"/><polygon points="380.2,411.1 478.1,412.0 485.4,441.5 388.7,439.6" fill="#4444ff" filter="url(#glowr1x1034)"/><polygon points="522.0,409.6 620.8,412.2 610.5,441.0 514.9,438.5" fill="#4444ff" filter="url(#glowr1x1034)"/><ellipse cx="430.9" cy="425.7" rx="38.4"  ry="8.2" fill="#ffffff" opacity=".88"/><ellipse cx="569.1" cy="425.7" rx="38.4"  ry="8.2" fill="#ffffff" opacity=".88"/><line x1="483.846357037276" y1="412.0222225430421" x2="514.8269390292838" y2="412.6527899745852" stroke="#4444ff" stroke-opacity=".52" stroke-width="2"/><line x1="484.3657190797478" y1="437.1207209221087" x2="515.6049026647955" y2="438.711401843559" stroke="#4444ff" stroke-opacity=".52" stroke-width="2"/><line x1="500.08904840555044" y1="454.8514263903722" x2="499.1013170023449" y2="482.5856891538948" stroke="#4444ff" stroke-opacity=".58" stroke-width="2.2" filter="url(#skr1x1034)"/><line x1="454.25762234980243" y1="490.28427447183054" x2="453.8124381999299" y2="521.2575493715703" stroke="#4444ff" stroke-opacity=".52" stroke-width="1.5" filter="url(#skr1x1034)"/><line x1="477.2981685699336" y1="492.0310805589892" x2="478.6517016820982" y2="520.160225443542" stroke="#4444ff" stroke-opacity=".52" stroke-width="1.5" filter="url(#skr1x1034)"/><line x1="499.0882362947799" y1="491.37842152779916" x2="499.0862243169919" y2="520.3670053469017" stroke="#4444ff" stroke-opacity=".52" stroke-width="1.5" filter="url(#skr1x1034)"/><line x1="523.0213927382231" y1="489.68257765248416" x2="521.2765865756758" y2="518.9850031014532" stroke="#4444ff" stroke-opacity=".52" stroke-width="1.5" filter="url(#skr1x1034)"/><line x1="546.790492984578" y1="491.79728787718335" x2="545.0397623126581" y2="518.6963891142047" stroke="#4444ff" stroke-opacity=".52" stroke-width="1.5" filter="url(#skr1x1034)"/><polygon points="431.8,502.1 567.9,504.5 555.0,557.5 446.1,555.4" fill="#141428" fill-opacity=".72" stroke="#4444ff" stroke-width="1.3" filter="url(#skr1x1034)"/><text x="30.0"  y="975.0" font-family="monospace" font-weight="bold" font-size="22.0" fill="rgba(255,255,255,.22)">#0001</text><text x="500.0"   y="975.0" text-anchor="middle" font-family="monospace" font-weight="bold" font-size="22.0" fill="#4444ff" fill-opacity=".48">OBSIDIAN RANGER</text><text x="970.0" y="975.0" text-anchor="end"    font-family="monospace" font-weight="bold" font-size="22.0" fill="#4444ff" fill-opacity=".32">MECH RANGERS</text></svg>