<svg xmlns="http://www.w3.org/2000/svg" viewBox="0 0 1000 1000" width="1000" height="1000" shape-rendering="geometricPrecision"><defs>

  <!-- Scene gradients -->
  <radialGradient id="bgr1x1038" cx="50%" cy="42%" r="72%">
    <stop offset="0%"   stop-color="#0a1420"/>
    <stop offset="100%" stop-color="#050d14"/>
  </radialGradient>
  <linearGradient id="suitr1x1038" x1="8%" y1="0%" x2="92%" y2="100%">
    <stop offset="0%"   stop-color="#ff00ff" stop-opacity=".95"/>
    <stop offset="45%"  stop-color="#050508"/>
    <stop offset="100%" stop-color="#050d14"/>
  </linearGradient>
  <linearGradient id="suitHir1x1038" x1="0%" y1="0%" x2="0%" y2="100%">
    <stop offset="0%"   stop-color="rgba(255,255,255,.28)"/>
    <stop offset="60%"  stop-color="rgba(255,255,255,.04)"/>
    <stop offset="100%" stop-color="rgba(255,255,255,0)"/>
  </linearGradient>
  <!-- Bevel: bright top, dark bottom for armour panels -->
  <linearGradient id="bevelr1x1038" x1="0%" y1="0%" x2="0%" y2="100%">
    <stop offset="0%"   stop-color="rgba(255,255,255,.55)"/>
    <stop offset="30%"  stop-color="#ff00ff"/>
    <stop offset="70%"  stop-color="#050508"/>
    <stop offset="100%" stop-color="rgba(0,0,0,.5)"/>
  </linearGradient>

  <!-- Weapon: cold steel blade sweep -->
  <linearGradient id="blader1x1038" x1="0%" y1="0%" x2="100%" y2="0%">
    <stop offset="0%"   stop-color="#0e0e20"/>
    <stop offset="16%"  stop-color="#3e3e58"/>
    <stop offset="34%"  stop-color="#c8c8e0"/>
    <stop offset="50%"  stop-color="#f5f5ff"/>
    <stop offset="66%"  stop-color="#b8b8d0"/>
    <stop offset="84%"  stop-color="#2e2e48"/>
    <stop offset="100%" stop-color="#08080e"/>
  </linearGradient>
  <!-- Blade tip brightening -->
  <linearGradient id="bladeTipr1x1038" x1="0%" y1="100%" x2="0%" y2="0%">
    <stop offset="0%"   stop-color="rgba(255,255,255,0)"/>
    <stop offset="55%"  stop-color="rgba(255,255,255,.1)"/>
    <stop offset="100%" stop-color="rgba(255,255,255,.55)"/>
  </linearGradient>
  <!-- Gunmetal anodised — blaster body -->
  <linearGradient id="gunmetalr1x1038" x1="0%" y1="0%" x2="0%" y2="100%">
    <stop offset="0%"   stop-color="#46465e"/>
    <stop offset="18%"  stop-color="#828296"/>
    <stop offset="42%"  stop-color="#26263a"/>
    <stop offset="72%"  stop-color="#16162a"/>
    <stop offset="100%" stop-color="#0c0c18"/>
  </linearGradient>
  <!-- Brushed steel tube — barrel/rod -->
  <linearGradient id="barrelr1x1038" x1="0%" y1="0%" x2="100%" y2="0%">
    <stop offset="0%"   stop-color="#0a0a14"/>
    <stop offset="24%"  stop-color="#585875"/>
    <stop offset="50%"  stop-color="#a8a8c8"/>
    <stop offset="76%"  stop-color="#383852"/>
    <stop offset="100%" stop-color="#0a0a14"/>
  </linearGradient>
  <!-- Chrome rod — lance shaft -->
  <linearGradient id="chromer1x1038" x1="0%" y1="0%" x2="100%" y2="0%">
    <stop offset="0%"   stop-color="#0c0c18"/>
    <stop offset="20%"  stop-color="#686888"/>
    <stop offset="44%"  stop-color="#e0e0f0"/>
    <stop offset="56%"  stop-color="#c0c0d8"/>
    <stop offset="80%"  stop-color="#28283e"/>
    <stop offset="100%" stop-color="#0c0c18"/>
  </linearGradient>
  <!-- Titanium plate — shield face -->
  <linearGradient id="titaniumr1x1038" x1="0%" y1="0%" x2="100%" y2="100%">
    <stop offset="0%"   stop-color="#585878"/>
    <stop offset="28%"  stop-color="#ff00ff" stop-opacity=".88"/>
    <stop offset="55%"  stop-color="#050508"/>
    <stop offset="80%"  stop-color="#181828"/>
    <stop offset="100%" stop-color="#0a0a18"/>
  </linearGradient>
  <!-- Artillery black-chrome — cannon body -->
  <linearGradient id="artilleryr1x1038" x1="0%" y1="0%" x2="0%" y2="100%">
    <stop offset="0%"   stop-color="#383850"/>
    <stop offset="14%"  stop-color="#78789a"/>
    <stop offset="36%"  stop-color="#202034"/>
    <stop offset="65%"  stop-color="#14141e"/>
    <stop offset="100%" stop-color="#0a0a12"/>
  </linearGradient>
  <!-- Energy orb — staff -->
  <radialGradient id="orbr1x1038" cx="35%" cy="35%" r="65%">
    <stop offset="0%"   stop-color="rgba(255,255,255,.9)"/>
    <stop offset="30%"  stop-color="#ff00ff"/>
    <stop offset="68%"  stop-color="#050508"/>
    <stop offset="100%" stop-color="rgba(0,0,0,.6)"/>
  </radialGradient>
  <!-- Knuckle plate chrome -->
  <linearGradient id="knuckler1x1038" x1="0%" y1="0%" x2="0%" y2="100%">
    <stop offset="0%"   stop-color="#888aaa"/>
    <stop offset="32%"  stop-color="#ff00ff" stop-opacity=".8"/>
    <stop offset="62%"  stop-color="#1a1a2c"/>
    <stop offset="100%" stop-color="#0a0a14"/>
  </linearGradient>

  <!-- Carbon fibre weave texture overlay -->
  <pattern id="carbonr1x1038" width="6" height="6" patternUnits="userSpaceOnUse">
    <rect width="6" height="6" fill="rgba(0,0,0,.08)"/>
    <rect x="0" y="0" width="3" height="3" fill="rgba(255,255,255,.022)"/>
    <rect x="3" y="3" width="3" height="3" fill="rgba(255,255,255,.022)"/>
    <line x1="0" y1="0" x2="3" y2="3" stroke="rgba(255,255,255,.038)" stroke-width=".5"/>
    <line x1="3" y1="0" x2="6" y2="3" stroke="rgba(0,0,0,.055)"       stroke-width=".5"/>
    <line x1="0" y1="3" x2="3" y2="6" stroke="rgba(0,0,0,.055)"       stroke-width=".5"/>
    <line x1="3" y1="3" x2="6" y2="6" stroke="rgba(255,255,255,.038)" stroke-width=".5"/>
  </pattern>

  <!-- Specular metal sheen on armour panels -->
  <filter id="metalr1x1038" x="-5%" y="-5%" width="110%" height="110%">
    <feSpecularLighting surfaceScale="4" specularConstant="1.8"
        specularExponent="42" lighting-color="#ffffff" result="spec">
      <feDistantLight elevation="52" azimuth="38"/>
    </feSpecularLighting>
    <feComposite in="spec" in2="SourceGraphic" operator="in" result="sm"/>
    <feComposite in="SourceGraphic" in2="sm" operator="arithmetic" k1="0" k2="1" k3="0.55" k4="0"/>
  </filter>

  <!-- Sharper specular for weapons — heavier glare -->
  <filter id="wmr1x1038" x="-8%" y="-8%" width="116%" height="116%">
    <feSpecularLighting surfaceScale="6" specularConstant="2.4"
        specularExponent="65" lighting-color="#ffffff" result="spec">
      <feDistantLight elevation="44" azimuth="28"/>
    </feSpecularLighting>
    <feComposite in="spec" in2="SourceGraphic" operator="in" result="sm"/>
    <feComposite in="SourceGraphic" in2="sm" operator="arithmetic" k1="0" k2="1" k3="0.78" k4="0"/>
  </filter>

  <!-- Sketch wobble -->
  <filter id="skr1x1038" x="-8%" y="-8%" width="116%" height="116%">
    <feTurbulence type="fractalNoise" baseFrequency="0.038"
        numOctaves="3" seed="66" result="noise"/>
    <feDisplacementMap in="SourceGraphic" in2="noise" scale="2.6"
        xChannelSelector="R" yChannelSelector="G" result="w"/>
    <feComposite in="w" in2="SourceGraphic" operator="atop"/>
  </filter>

  <!-- Glow: sharp accent -->
  <filter id="glowr1x1038" x="-20%" y="-20%" width="140%" height="140%">
    <feGaussianBlur stdDeviation="3.5" result="b"/>
    <feColorMatrix in="b" type="matrix"
        values="0 0 0 0 1  0 0 0 0 1  0 0 0 0 1  0 0 0 1.8 0" result="boost"/>
    <feMerge><feMergeNode in="boost"/><feMergeNode in="SourceGraphic"/></feMerge>
  </filter>

  <!-- Bloom: wide soft -->
  <filter id="bloomr1x1038" x="-40%" y="-40%" width="180%" height="180%">
    <feGaussianBlur stdDeviation="11" result="b"/>
    <feMerge><feMergeNode in="b"/><feMergeNode in="SourceGraphic"/></feMerge>
  </filter>

  </defs><rect width="1000" height="1000" fill="url(#bgr1x1038)"/><polygon points="260.3584598470479,250.7125643454492 273.0387667501345,223.9862109143287 297.38410804234445,258.66325278766453" fill="#ff00ff" fill-opacity=".055" stroke="#ff00ff" stroke-opacity=".1" stroke-width="1"/><polygon points="156.807399392128,294.1985131939873 191.0947853261605,262.5637652054429 211.27147407084703,306.8050604686141" fill="#ff00ff" fill-opacity=".055" stroke="#ff00ff" stroke-opacity=".1" stroke-width="1"/><polygon points="501.7148921545595,146.893526641652 525.1467315135524,118.02674225345254 555.3625620417297,151.2793479114771" fill="#ff00ff" fill-opacity=".055" stroke="#ff00ff" stroke-opacity=".1" stroke-width="1"/><polygon points="892.5540213985369,213.55523439589888 932.9462846396491,156.98210364952683 935.9536824123934,201.30564969964325" fill="#ff00ff" fill-opacity=".055" stroke="#ff00ff" stroke-opacity=".1" stroke-width="1"/><polygon points="776.8124278681353,23.0596394976601 803.548067429103,3.2796643702313304 816.5761363720521,24.204073515720665" fill="#ff00ff" fill-opacity=".055" stroke="#ff00ff" stroke-opacity=".1" stroke-width="1"/><polygon points="156.65524918586016,474.8257320886478 181.38872288912535,432.7531852135435 188.75490226130933,472.584534692578" fill="#ff00ff" fill-opacity=".055" stroke="#ff00ff" stroke-opacity=".1" stroke-width="1"/><polygon points="510.5168554186821,47.649938026443124 523.8189143389463,4.699681557714939 547.2680787071586,40.869986354373395" fill="#ff00ff" fill-opacity=".055" stroke="#ff00ff" stroke-opacity=".1" stroke-width="1"/><polygon points="168.40060367248952,304.50456804130226 187.30931173358113,264.10343551356345 205.70437189936638,306.22221235651523" fill="#ff00ff" fill-opacity=".055" stroke="#ff00ff" stroke-opacity=".1" stroke-width="1"/><ellipse cx="500.0" cy="892.0" rx="350.0" ry="65.0" fill="rgba(0,0,0,.7)" filter="url(#bloomr1x1038)"/><ellipse cx="500.0" cy="889.0" rx="220.0" ry="34.0" fill="rgba(0,0,0,.45)"/><polygon points="398.4,662.7 489.5,663.9 481.4,877.8 386.1,878.0" fill="url(#suitr1x1038)" stroke="#ff00ff" stroke-width="2.2" filter="url(#skr1x1038) url(#metalr1x1038)"/><polygon points="397.2,662.3 491.2,661.8 481.8,877.3 387.3,879.2" fill="url(#carbonr1x1038)"/><polygon points="393.3,724.3 493.9,723.4 484.2,788.0 384.7,789.2" fill="url(#bevelr1x1038)" fill-opacity=".5" stroke="#ff00ff" stroke-width="1.4" filter="url(#skr1x1038)"/><polygon points="511.0,661.7 599.6,663.6 612.2,875.7 520.3,875.9" fill="url(#suitr1x1038)" stroke="#ff00ff" stroke-width="2.2" filter="url(#skr1x1038) url(#metalr1x1038)"/><polygon points="509.4,663.7 599.9,663.2 613.7,876.9 520.0,877.2" fill="url(#carbonr1x1038)"/><polygon points="506.7,724.6 606.9,722.9 617.8,786.9 516.9,789.4" fill="url(#bevelr1x1038)" fill-opacity=".5" stroke="#ff00ff" stroke-width="1.4" filter="url(#skr1x1038)"/><rect x="391.5" y="839.1" width="100.3" height="24.7" fill="url(#bevelr1x1038)" stroke="#ff00ff" stroke-width="1" filter="url(#skr1x1038)"/><rect x="508.2"  y="839.5" width="100.3" height="24.7" fill="url(#bevelr1x1038)" stroke="#ff00ff" stroke-width="1" filter="url(#skr1x1038)"/><polygon points="370.4,878.3 496.2,876.1 504.9,920.8 362.2,920.9" fill="#050508" stroke="#ff00ff" stroke-width="2" filter="url(#skr1x1038)"/><polygon points="503.7,878.9 630.2,878.7 636.5,922.7 495.5,923.3" fill="#050508" stroke="#ff00ff" stroke-width="2" filter="url(#skr1x1038)"/><polygon points="304.3,634.9 695.1,632.0 638.7,682.3 363.1,682.5" fill="#ff00ff" fill-opacity=".52" stroke="#ff00ff" stroke-width="2" filter="url(#skr1x1038)"/><rect x="464.6" y="638.4" width="72.0" height="42.0" fill="url(#bevelr1x1038)" stroke="#ff00ff" stroke-width="1.4" filter="url(#glowr1x1038)"/><rect x="484.3" y="639.8" width="28.0" height="22.0" rx="1" fill="rgba(255,255,255,.48)"/><polygon points="152.2,465.2 235.4,467.6 258.8,734.5 129.2,734.3" fill="url(#suitr1x1038)" stroke="#ff00ff" stroke-width="2.2" filter="url(#skr1x1038) url(#metalr1x1038)"/><polygon points="173.8,430.9 251.5,432.2 244.8,509.6 159.7,510.6" fill="url(#bevelr1x1038)" fill-opacity=".72" stroke="#ff00ff" stroke-width="2.2" filter="url(#skr1x1038)"/><polygon points="161.2,623.5 243.1,620.2 238.6,662.1 166.0,661.5" fill="#ff00ff" fill-opacity=".42" stroke="#ff00ff" stroke-width="1" filter="url(#skr1x1038)"/><polygon points="765.5,467.5 847.8,464.8 870.7,734.6 742.6,734.1" fill="url(#suitr1x1038)" stroke="#ff00ff" stroke-width="2.2" filter="url(#skr1x1038) url(#metalr1x1038)"/><polygon points="745.4,432.6 826.6,430.9 839.1,510.7 756.1,510.2" fill="url(#bevelr1x1038)" fill-opacity=".72" stroke="#ff00ff" stroke-width="2.2" filter="url(#skr1x1038)"/><polygon points="758.1,621.1 839.5,623.1 835.5,661.6 762.3,661.0" fill="#ff00ff" fill-opacity=".42" stroke="#ff00ff" stroke-width="1" filter="url(#skr1x1038)"/><rect x="121.8"  y="698.4" width="135.3" height="85.0" rx="4" fill="url(#bevelr1x1038)" stroke="#ff00ff" stroke-width="1.8" filter="url(#skr1x1038)"/><rect x="746.9"   y="699.7" width="135.3" height="85.0" rx="4" fill="url(#bevelr1x1038)" stroke="#ff00ff" stroke-width="1.8" filter="url(#skr1x1038)"/><line x1="149.8" y1="701.0" x2="149.7" y2="783.4" stroke="#ff00ff" stroke-opacity=".38" stroke-width="1"/><line x1="777.2" y1="702.3" x2="779.6" y2="783.7" stroke="#ff00ff" stroke-opacity=".38" stroke-width="1"/><line x1="182.9" y1="703.3" x2="182.5" y2="785.5" stroke="#ff00ff" stroke-opacity=".38" stroke-width="1"/><line x1="810.8" y1="701.7" x2="809.9" y2="782.1" stroke="#ff00ff" stroke-opacity=".38" stroke-width="1"/><line x1="214.8" y1="700.1" x2="214.9" y2="782.7" stroke="#ff00ff" stroke-opacity=".38" stroke-width="1"/><line x1="845.3" y1="700.3" x2="844.4" y2="783.4" stroke="#ff00ff" stroke-opacity=".38" stroke-width="1"/><polygon points="235.7,417.0 763.9,417.6 722.8,663.4 277.5,664.1" fill="url(#suitr1x1038)" stroke="#ff00ff" stroke-width="2.6" filter="url(#skr1x1038) url(#metalr1x1038)"/><polygon points="233.2,416.7 765.3,417.3 722.1,664.3 276.4,661.0" fill="url(#carbonr1x1038)"/><polygon points="367.0,417.8 631.7,416.1 610.9,516.9 387.2,516.0" fill="url(#suitHir1x1038)"/><line x1="360.4" y1="472.5" x2="638.0" y2="473.2" stroke="#ff00ff" stroke-opacity=".52" stroke-width="1.3" filter="url(#skr1x1038)"/><line x1="399.7" y1="549.9" x2="601.1" y2="551.0" stroke="#ff00ff" stroke-opacity=".52" stroke-width="1.3" filter="url(#skr1x1038)"/><line x1="267.4" y1="492.7" x2="318.1" y2="489.9" stroke="#ff00ff" stroke-opacity=".62" stroke-width="1.8"/><line x1="681.2" y1="490.8" x2="733.8" y2="491.5" stroke="#ff00ff" stroke-opacity=".62" stroke-width="1.8"/><line x1="268.6" y1="521.2" x2="320.4" y2="521.8" stroke="#ff00ff" stroke-opacity=".62" stroke-width="1.8"/><line x1="680.1" y1="522.4" x2="734.6" y2="522.0" stroke="#ff00ff" stroke-opacity=".62" stroke-width="1.8"/><line x1="267.8" y1="555.5" x2="320.1" y2="553.6" stroke="#ff00ff" stroke-opacity=".62" stroke-width="1.8"/><line x1="680.2" y1="553.8" x2="731.4" y2="554.3" stroke="#ff00ff" stroke-opacity=".62" stroke-width="1.8"/><line x1="265.4" y1="585.4" x2="320.1" y2="588.1" stroke="#ff00ff" stroke-opacity=".62" stroke-width="1.8"/><line x1="682.0" y1="585.6" x2="732.9" y2="586.8" stroke="#ff00ff" stroke-opacity=".62" stroke-width="1.8"/><g filter="url(#glowr1x1038)"><polygon points="499.7,452.8 543.1,510.1 501.6,567.8 458.4,510.4" fill="#ff00ff" stroke="#050d14" stroke-width="1.4" filter="url(#skr1x1038)"/><polygon points="500.9,453.5 542.6,509.1 501.0,569.4 457.8,511.1" fill="url(#suitHir1x1038)" opacity=".45"/></g><g><rect x="829.2742613399029" y="420.12364966254677" width="148.0" height="82.0" rx="5" fill="url(#gunmetalr1x1038)" stroke="#ff00ff" stroke-width="2" filter="url(#wmr1x1038)"/><rect x="828.4276535166056" y="420.8432478607632" width="148.0" height="82.0" rx="5" fill="url(#carbonr1x1038)"/><rect x="838.8913488220052" y="401.92681051949035" width="90.0" height="22.0" rx="3" fill="url(#barrelr1x1038)" stroke="#ff00ff" stroke-width="1" filter="url(#wmr1x1038)"/><circle cx="878.7661909403838" cy="413.63447829307984" r="15.0" fill="#ff00ff" opacity=".8" filter="url(#glowr1x1038)"/><circle cx="876.2902398089506" cy="415.0718579094857" r="6.0" fill="rgba(255,255,255,.9)"/><rect x="946.7075653363578" y="453.89506906522433" width="78.0" height="36.0" rx="5" fill="url(#barrelr1x1038)" stroke="#ff00ff" stroke-width="1.2" filter="url(#wmr1x1038)"/><circle cx="1020.735804198645" cy="470.5368994151242" r="18.0" fill="#ff00ff" filter="url(#glowr1x1038)" opacity=".88"/><circle cx="1018.1656785319187" cy="470.63685565814376" r="7.0" fill="#ffffff"/><rect x="874.1286161740869" y="501.9086569758132" width="44.0" height="42.0" rx="3" fill="url(#gunmetalr1x1038)" stroke="#ff00ff" stroke-width="1" filter="url(#wmr1x1038)"/><rect x="831.4646052892879" y="422.48329588202756" width="90.0" height="10.0" rx="2" fill="rgba(255,255,255,.22)"/><line x1="858.7220071233437" y1="487.01397203607485" x2="859.3359367042408" y2="519.3070565517061" stroke="#ff00ff" stroke-opacity=".5" stroke-width="1.2"/><line x1="874.8233044121973" y1="487.79063689988106" x2="874.9729565358349" y2="520.2028877384029" stroke="#ff00ff" stroke-opacity=".5" stroke-width="1.2"/><line x1="888.463951863777" y1="485.84858910953625" x2="888.0659212870152" y2="518.5108487844467" stroke="#ff00ff" stroke-opacity=".5" stroke-width="1.2"/></g><rect x="448.3623562188819" y="556.491154522635" width="100.0"  height="56.0" fill="#050508" stroke="#ff00ff" stroke-width="2.2" filter="url(#skr1x1038)"/><rect x="423.5306576143019" y="577.0175196374767" width="152.0" height="26.0" fill="url(#bevelr1x1038)" fill-opacity=".65" stroke="#ff00ff" stroke-width="1.2" filter="url(#skr1x1038)"/><polygon points="308.9,379.5 351.7,295.8 500.6,279.3 651.5,295.8 692.0,380.9 669.5,503.8 500.4,564.8 330.6,505.1" fill="url(#suitr1x1038)" stroke="#ff00ff" stroke-width="2.8" filter="url(#skr1x1038) url(#metalr1x1038)"/><polygon points="306.7,381.0 348.8,294.6 498.9,277.7 648.7,296.3 692.3,379.1 670.7,504.1 500.9,563.5 332.6,504.2" fill="url(#carbonr1x1038)"/><polygon points="379.3,304.3 501.2,287.2 618.1,303.7 608.8,380.0 392.3,378.9" fill="url(#suitHir1x1038)"/><polygon points="380.8,380.5 365.7,426.8 434.2,502.1 500.0,527.1 568.7,503.6 633.6,426.5 619.2,379.8" fill="#050d14" fill-opacity=".88" stroke="#ff00ff" stroke-width="1.8" filter="url(#skr1x1038)"/><polygon points="380.0,412.5 477.6,410.6 486.4,439.1 388.3,441.4" fill="#ff00ff" filter="url(#glowr1x1038)"/><polygon points="524.5,413.0 618.5,411.8 611.7,440.9 516.5,440.4" fill="#ff00ff" filter="url(#glowr1x1038)"/><ellipse cx="430.9" cy="425.7" rx="38.4"  ry="8.2" fill="#ffffff" opacity=".88"/><ellipse cx="569.1" cy="425.7" rx="38.4"  ry="8.2" fill="#ffffff" opacity=".88"/><line x1="484.1836579285189" y1="411.8302309948951" x2="513.8438023297489" y2="413.48206170536577" stroke="#ff00ff" stroke-opacity=".52" stroke-width="2"/><line x1="483.0378939929977" y1="438.6568452788517" x2="516.4203863702156" y2="438.6030736550689" stroke="#ff00ff" stroke-opacity=".52" stroke-width="2"/><line x1="501.3314982680604" y1="453.7252580041997" x2="498.41539246728644" y2="483.561871501524" stroke="#ff00ff" stroke-opacity=".58" stroke-width="2.2" filter="url(#skr1x1038)"/><line x1="454.99825269941243" y1="490.1982421457767" x2="454.2547739561461" y2="521.2820299896412" stroke="#ff00ff" stroke-opacity=".52" stroke-width="1.5" filter="url(#skr1x1038)"/><line x1="476.87278943736106" y1="490.528467834834" x2="477.051556648165" y2="521.6160254656337" stroke="#ff00ff" stroke-opacity=".52" stroke-width="1.5" filter="url(#skr1x1038)"/><line x1="500.31950371358545" y1="492.21742126019666" x2="501.15078753866254" y2="520.2210659269243" stroke="#ff00ff" stroke-opacity=".52" stroke-width="1.5" filter="url(#skr1x1038)"/><line x1="524.6588982984051" y1="492.7623926638625" x2="524.7043137011676" y2="520.4565490223467" stroke="#ff00ff" stroke-opacity=".52" stroke-width="1.5" filter="url(#skr1x1038)"/><line x1="546.686526041124" y1="489.5129019433632" x2="545.1229774777033" y2="520.9993896682747" stroke="#ff00ff" stroke-opacity=".52" stroke-width="1.5" filter="url(#skr1x1038)"/><polygon points="432.3,504.2 568.1,502.9 552.9,556.2 445.0,557.5" fill="#050508" fill-opacity=".72" stroke="#ff00ff" stroke-width="1.3" filter="url(#skr1x1038)"/><text x="30.0"  y="975.0" font-family="monospace" font-weight="bold" font-size="22.0" fill="rgba(255,255,255,.22)">#0001</text><text x="500.0"   y="975.0" text-anchor="middle" font-family="monospace" font-weight="bold" font-size="22.0" fill="#ff00ff" fill-opacity=".48">VOID RANGER</text><text x="970.0" y="975.0" text-anchor="end"    font-family="monospace" font-weight="bold" font-size="22.0" fill="#ff00ff" fill-opacity=".32">MECH RANGERS</text></svg>