<svg xmlns="http://www.w3.org/2000/svg" viewBox="0 0 1000 1000" width="1000" height="1000" shape-rendering="geometricPrecision"><defs>

  <!-- Scene gradients -->
  <radialGradient id="bgr1x1050" cx="50%" cy="42%" r="72%">
    <stop offset="0%"   stop-color="#0e000e"/>
    <stop offset="100%" stop-color="#1e0600"/>
  </radialGradient>
  <linearGradient id="suitr1x1050" x1="8%" y1="0%" x2="92%" y2="100%">
    <stop offset="0%"   stop-color="#00ff60" stop-opacity=".95"/>
    <stop offset="45%"  stop-color="#00441e"/>
    <stop offset="100%" stop-color="#1e0600"/>
  </linearGradient>
  <linearGradient id="suitHir1x1050" x1="0%" y1="0%" x2="0%" y2="100%">
    <stop offset="0%"   stop-color="rgba(255,255,255,.28)"/>
    <stop offset="60%"  stop-color="rgba(255,255,255,.04)"/>
    <stop offset="100%" stop-color="rgba(255,255,255,0)"/>
  </linearGradient>
  <!-- Bevel: bright top, dark bottom for armour panels -->
  <linearGradient id="bevelr1x1050" x1="0%" y1="0%" x2="0%" y2="100%">
    <stop offset="0%"   stop-color="rgba(255,255,255,.55)"/>
    <stop offset="30%"  stop-color="#00ff60"/>
    <stop offset="70%"  stop-color="#00441e"/>
    <stop offset="100%" stop-color="rgba(0,0,0,.5)"/>
  </linearGradient>

  <!-- Weapon: cold steel blade sweep -->
  <linearGradient id="blader1x1050" x1="0%" y1="0%" x2="100%" y2="0%">
    <stop offset="0%"   stop-color="#0e0e20"/>
    <stop offset="16%"  stop-color="#3e3e58"/>
    <stop offset="34%"  stop-color="#c8c8e0"/>
    <stop offset="50%"  stop-color="#f5f5ff"/>
    <stop offset="66%"  stop-color="#b8b8d0"/>
    <stop offset="84%"  stop-color="#2e2e48"/>
    <stop offset="100%" stop-color="#08080e"/>
  </linearGradient>
  <!-- Blade tip brightening -->
  <linearGradient id="bladeTipr1x1050" x1="0%" y1="100%" x2="0%" y2="0%">
    <stop offset="0%"   stop-color="rgba(255,255,255,0)"/>
    <stop offset="55%"  stop-color="rgba(255,255,255,.1)"/>
    <stop offset="100%" stop-color="rgba(255,255,255,.55)"/>
  </linearGradient>
  <!-- Gunmetal anodised — blaster body -->
  <linearGradient id="gunmetalr1x1050" x1="0%" y1="0%" x2="0%" y2="100%">
    <stop offset="0%"   stop-color="#46465e"/>
    <stop offset="18%"  stop-color="#828296"/>
    <stop offset="42%"  stop-color="#26263a"/>
    <stop offset="72%"  stop-color="#16162a"/>
    <stop offset="100%" stop-color="#0c0c18"/>
  </linearGradient>
  <!-- Brushed steel tube — barrel/rod -->
  <linearGradient id="barrelr1x1050" x1="0%" y1="0%" x2="100%" y2="0%">
    <stop offset="0%"   stop-color="#0a0a14"/>
    <stop offset="24%"  stop-color="#585875"/>
    <stop offset="50%"  stop-color="#a8a8c8"/>
    <stop offset="76%"  stop-color="#383852"/>
    <stop offset="100%" stop-color="#0a0a14"/>
  </linearGradient>
  <!-- Chrome rod — lance shaft -->
  <linearGradient id="chromer1x1050" x1="0%" y1="0%" x2="100%" y2="0%">
    <stop offset="0%"   stop-color="#0c0c18"/>
    <stop offset="20%"  stop-color="#686888"/>
    <stop offset="44%"  stop-color="#e0e0f0"/>
    <stop offset="56%"  stop-color="#c0c0d8"/>
    <stop offset="80%"  stop-color="#28283e"/>
    <stop offset="100%" stop-color="#0c0c18"/>
  </linearGradient>
  <!-- Titanium plate — shield face -->
  <linearGradient id="titaniumr1x1050" x1="0%" y1="0%" x2="100%" y2="100%">
    <stop offset="0%"   stop-color="#585878"/>
    <stop offset="28%"  stop-color="#00ff60" stop-opacity=".88"/>
    <stop offset="55%"  stop-color="#00441e"/>
    <stop offset="80%"  stop-color="#181828"/>
    <stop offset="100%" stop-color="#0a0a18"/>
  </linearGradient>
  <!-- Artillery black-chrome — cannon body -->
  <linearGradient id="artilleryr1x1050" x1="0%" y1="0%" x2="0%" y2="100%">
    <stop offset="0%"   stop-color="#383850"/>
    <stop offset="14%"  stop-color="#78789a"/>
    <stop offset="36%"  stop-color="#202034"/>
    <stop offset="65%"  stop-color="#14141e"/>
    <stop offset="100%" stop-color="#0a0a12"/>
  </linearGradient>
  <!-- Energy orb — staff -->
  <radialGradient id="orbr1x1050" cx="35%" cy="35%" r="65%">
    <stop offset="0%"   stop-color="rgba(255,255,255,.9)"/>
    <stop offset="30%"  stop-color="#00ff60"/>
    <stop offset="68%"  stop-color="#00441e"/>
    <stop offset="100%" stop-color="rgba(0,0,0,.6)"/>
  </radialGradient>
  <!-- Knuckle plate chrome -->
  <linearGradient id="knuckler1x1050" x1="0%" y1="0%" x2="0%" y2="100%">
    <stop offset="0%"   stop-color="#888aaa"/>
    <stop offset="32%"  stop-color="#00ff60" stop-opacity=".8"/>
    <stop offset="62%"  stop-color="#1a1a2c"/>
    <stop offset="100%" stop-color="#0a0a14"/>
  </linearGradient>

  <!-- Carbon fibre weave texture overlay -->
  <pattern id="carbonr1x1050" width="6" height="6" patternUnits="userSpaceOnUse">
    <rect width="6" height="6" fill="rgba(0,0,0,.08)"/>
    <rect x="0" y="0" width="3" height="3" fill="rgba(255,255,255,.022)"/>
    <rect x="3" y="3" width="3" height="3" fill="rgba(255,255,255,.022)"/>
    <line x1="0" y1="0" x2="3" y2="3" stroke="rgba(255,255,255,.038)" stroke-width=".5"/>
    <line x1="3" y1="0" x2="6" y2="3" stroke="rgba(0,0,0,.055)"       stroke-width=".5"/>
    <line x1="0" y1="3" x2="3" y2="6" stroke="rgba(0,0,0,.055)"       stroke-width=".5"/>
    <line x1="3" y1="3" x2="6" y2="6" stroke="rgba(255,255,255,.038)" stroke-width=".5"/>
  </pattern>

  <!-- Specular metal sheen on armour panels -->
  <filter id="metalr1x1050" x="-5%" y="-5%" width="110%" height="110%">
    <feSpecularLighting surfaceScale="4" specularConstant="1.8"
        specularExponent="42" lighting-color="#ffffff" result="spec">
      <feDistantLight elevation="52" azimuth="38"/>
    </feSpecularLighting>
    <feComposite in="spec" in2="SourceGraphic" operator="in" result="sm"/>
    <feComposite in="SourceGraphic" in2="sm" operator="arithmetic" k1="0" k2="1" k3="0.55" k4="0"/>
  </filter>

  <!-- Sharper specular for weapons — heavier glare -->
  <filter id="wmr1x1050" x="-8%" y="-8%" width="116%" height="116%">
    <feSpecularLighting surfaceScale="6" specularConstant="2.4"
        specularExponent="65" lighting-color="#ffffff" result="spec">
      <feDistantLight elevation="44" azimuth="28"/>
    </feSpecularLighting>
    <feComposite in="spec" in2="SourceGraphic" operator="in" result="sm"/>
    <feComposite in="SourceGraphic" in2="sm" operator="arithmetic" k1="0" k2="1" k3="0.78" k4="0"/>
  </filter>

  <!-- Sketch wobble -->
  <filter id="skr1x1050" x="-8%" y="-8%" width="116%" height="116%">
    <feTurbulence type="fractalNoise" baseFrequency="0.038"
        numOctaves="3" seed="35" result="noise"/>
    <feDisplacementMap in="SourceGraphic" in2="noise" scale="2.6"
        xChannelSelector="R" yChannelSelector="G" result="w"/>
    <feComposite in="w" in2="SourceGraphic" operator="atop"/>
  </filter>

  <!-- Glow: sharp accent -->
  <filter id="glowr1x1050" x="-20%" y="-20%" width="140%" height="140%">
    <feGaussianBlur stdDeviation="3.5" result="b"/>
    <feColorMatrix in="b" type="matrix"
        values="0 0 0 0 1  0 0 0 0 1  0 0 0 0 1  0 0 0 1.8 0" result="boost"/>
    <feMerge><feMergeNode in="boost"/><feMergeNode in="SourceGraphic"/></feMerge>
  </filter>

  <!-- Bloom: wide soft -->
  <filter id="bloomr1x1050" x="-40%" y="-40%" width="180%" height="180%">
    <feGaussianBlur stdDeviation="11" result="b"/>
    <feMerge><feMergeNode in="b"/><feMergeNode in="SourceGraphic"/></feMerge>
  </filter>

  </defs><rect width="1000" height="1000" fill="url(#bgr1x1050)"/><ellipse cx="500.0" cy="1000" rx="850.0" ry="350.0" fill="#ff4500" fill-opacity=".11" filter="url(#bloomr1x1050)"/><ellipse cx="500.0" cy="892.0" rx="350.0" ry="65.0" fill="rgba(0,0,0,.7)" filter="url(#bloomr1x1050)"/><ellipse cx="500.0" cy="889.0" rx="220.0" ry="34.0" fill="rgba(0,0,0,.45)"/><ellipse cx="500.0" cy="520.0" rx="320.0" ry="480.0" fill="#00e5ff" fill-opacity=".042" filter="url(#bloomr1x1050)"/><circle cx="429.8" cy="421.2" r="2.6" fill="#00e5ff" fill-opacity="0.66" filter="url(#glowr1x1050)"/><circle cx="270.4" cy="396.7" r="0.6" fill="#00e5ff" fill-opacity="0.49" filter="url(#glowr1x1050)"/><circle cx="480.6" cy="563.2" r="3.9" fill="#00e5ff" fill-opacity="0.59" filter="url(#glowr1x1050)"/><circle cx="519.7" cy="796.4" r="2.6" fill="#00e5ff" fill-opacity="0.78" filter="url(#glowr1x1050)"/><circle cx="641.8" cy="765.5" r="1.4" fill="#00e5ff" fill-opacity="0.47" filter="url(#glowr1x1050)"/><circle cx="671.6" cy="638.1" r="3.5" fill="#00e5ff" fill-opacity="0.70" filter="url(#glowr1x1050)"/><circle cx="668.4" cy="598.8" r="1.2" fill="#00e5ff" fill-opacity="0.68" filter="url(#glowr1x1050)"/><circle cx="423.7" cy="317.7" r="2.1" fill="#00e5ff" fill-opacity="0.50" filter="url(#glowr1x1050)"/><circle cx="260.6" cy="187.4" r="2.0" fill="#00e5ff" fill-opacity="0.72" filter="url(#glowr1x1050)"/><circle cx="484.6" cy="535.1" r="1.2" fill="#00e5ff" fill-opacity="0.85" filter="url(#glowr1x1050)"/><circle cx="402.5" cy="607.0" r="3.3" fill="#00e5ff" fill-opacity="0.86" filter="url(#glowr1x1050)"/><circle cx="418.3" cy="532.9" r="2.2" fill="#00e5ff" fill-opacity="0.47" filter="url(#glowr1x1050)"/><circle cx="481.7" cy="650.1" r="2.8" fill="#00e5ff" fill-opacity="0.86" filter="url(#glowr1x1050)"/><circle cx="442.9" cy="410.2" r="2.9" fill="#00e5ff" fill-opacity="0.84" filter="url(#glowr1x1050)"/><path d="M449.6,198.5 Q466.1,532.4 530.5,861.1" stroke="#00e5ff" stroke-opacity="0.73" stroke-width="1.2" fill="none" filter="url(#glowr1x1050)"/><path d="M635.9,374.1 Q628.3,618.2 561.0,856.7" stroke="#00e5ff" stroke-opacity="0.39" stroke-width="1.9" fill="none" filter="url(#glowr1x1050)"/><path d="M654.4,307.7 Q615.8,525.5 390.4,766.0" stroke="#00e5ff" stroke-opacity="0.50" stroke-width="2.8" fill="none" filter="url(#glowr1x1050)"/><path d="M608.1,256.9 Q622.9,554.6 586.8,827.0" stroke="#00e5ff" stroke-opacity="0.67" stroke-width="1.0" fill="none" filter="url(#glowr1x1050)"/><path d="M325.0,216.5 Q299.6,442.7 525.1,627.0" stroke="#00e5ff" stroke-opacity="0.57" stroke-width="2.9" fill="none" filter="url(#glowr1x1050)"/><polygon points="397.8,663.2 490.3,661.5 480.6,876.0 387.0,876.7" fill="url(#suitr1x1050)" stroke="#00ff60" stroke-width="2.2" filter="url(#skr1x1050) url(#metalr1x1050)"/><polygon points="399.1,662.3 490.9,661.8 479.1,879.2 387.9,879.0" fill="url(#carbonr1x1050)"/><polygon points="393.3,723.4 494.5,722.2 485.9,788.1 384.0,789.6" fill="url(#bevelr1x1050)" fill-opacity=".5" stroke="#00ff60" stroke-width="1.4" filter="url(#skr1x1050)"/><polygon points="510.6,663.7 602.5,663.5 611.7,878.4 518.6,876.2" fill="url(#suitr1x1050)" stroke="#00ff60" stroke-width="2.2" filter="url(#skr1x1050) url(#metalr1x1050)"/><polygon points="511.0,664.2 600.7,662.7 611.9,878.9 520.9,878.4" fill="url(#carbonr1x1050)"/><polygon points="506.4,722.7 608.8,724.1 615.4,790.0 517.0,786.8" fill="url(#bevelr1x1050)" fill-opacity=".5" stroke="#00ff60" stroke-width="1.4" filter="url(#skr1x1050)"/><rect x="391.0" y="840.5" width="100.3" height="24.7" fill="url(#bevelr1x1050)" stroke="#00ff60" stroke-width="1" filter="url(#skr1x1050)"/><rect x="507.9"  y="839.4" width="100.3" height="24.7" fill="url(#bevelr1x1050)" stroke="#00ff60" stroke-width="1" filter="url(#skr1x1050)"/><polygon points="369.6,877.2 495.6,876.9 502.6,923.0 362.6,920.8" fill="#00441e" stroke="#00ff60" stroke-width="2" filter="url(#skr1x1050)"/><polygon points="503.1,879.1 630.2,876.5 639.0,922.9 496.1,920.5" fill="#00441e" stroke="#00ff60" stroke-width="2" filter="url(#skr1x1050)"/><polygon points="303.1,633.8 695.1,632.6 637.3,683.5 363.5,681.5" fill="#00ff60" fill-opacity=".52" stroke="#00ff60" stroke-width="2" filter="url(#skr1x1050)"/><rect x="465.5" y="636.5" width="72.0" height="42.0" fill="url(#bevelr1x1050)" stroke="#00ff60" stroke-width="1.4" filter="url(#glowr1x1050)"/><rect x="484.5" y="640.7" width="28.0" height="22.0" rx="1" fill="rgba(255,255,255,.48)"/><polygon points="153.8,466.9 234.9,465.7 256.7,735.7 127.3,733.2" fill="url(#suitr1x1050)" stroke="#00ff60" stroke-width="2.2" filter="url(#skr1x1050) url(#metalr1x1050)"/><polygon points="174.2,431.5 251.4,434.0 243.1,510.8 158.1,509.2" fill="url(#bevelr1x1050)" fill-opacity=".72" stroke="#00ff60" stroke-width="2.2" filter="url(#skr1x1050)"/><polygon points="160.2,621.3 243.7,622.9 240.1,659.2 166.1,660.2" fill="#00ff60" fill-opacity=".42" stroke="#00ff60" stroke-width="1" filter="url(#skr1x1050)"/><polygon points="763.3,466.4 848.1,467.7 871.8,736.3 741.7,733.8" fill="url(#suitr1x1050)" stroke="#00ff60" stroke-width="2.2" filter="url(#skr1x1050) url(#metalr1x1050)"/><polygon points="745.8,431.5 828.1,430.7 841.4,511.0 758.2,511.0" fill="url(#bevelr1x1050)" fill-opacity=".72" stroke="#00ff60" stroke-width="2.2" filter="url(#skr1x1050)"/><polygon points="757.4,622.6 837.2,623.4 834.3,659.6 761.9,661.2" fill="#00ff60" fill-opacity=".42" stroke="#00ff60" stroke-width="1" filter="url(#skr1x1050)"/><rect x="120.1"  y="700.4" width="135.3" height="85.0" rx="4" fill="url(#bevelr1x1050)" stroke="#00ff60" stroke-width="1.8" filter="url(#skr1x1050)"/><rect x="748.0"   y="701.6" width="135.3" height="85.0" rx="4" fill="url(#bevelr1x1050)" stroke="#00ff60" stroke-width="1.8" filter="url(#skr1x1050)"/><line x1="148.2" y1="703.6" x2="150.6" y2="785.4" stroke="#00ff60" stroke-opacity=".38" stroke-width="1"/><line x1="778.6" y1="700.3" x2="779.0" y2="785.2" stroke="#00ff60" stroke-opacity=".38" stroke-width="1"/><line x1="181.9" y1="701.9" x2="183.6" y2="784.7" stroke="#00ff60" stroke-opacity=".38" stroke-width="1"/><line x1="811.1" y1="701.3" x2="810.7" y2="782.7" stroke="#00ff60" stroke-opacity=".38" stroke-width="1"/><line x1="214.4" y1="703.6" x2="214.8" y2="783.8" stroke="#00ff60" stroke-opacity=".38" stroke-width="1"/><line x1="844.3" y1="700.6" x2="843.7" y2="785.0" stroke="#00ff60" stroke-opacity=".38" stroke-width="1"/><polygon points="235.9,418.1 764.4,416.4 721.5,661.3 278.9,661.1" fill="url(#suitr1x1050)" stroke="#00ff60" stroke-width="2.6" filter="url(#skr1x1050) url(#metalr1x1050)"/><polygon points="233.2,416.3 764.4,418.5 721.9,661.8 278.9,663.1" fill="url(#carbonr1x1050)"/><polygon points="367.0,418.5 632.5,418.8 611.8,516.6 389.7,514.8" fill="url(#suitHir1x1050)"/><line x1="362.7" y1="472.2" x2="638.9" y2="471.4" stroke="#00ff60" stroke-opacity=".52" stroke-width="1.3" filter="url(#skr1x1050)"/><line x1="397.9" y1="549.7" x2="602.4" y2="549.6" stroke="#00ff60" stroke-opacity=".52" stroke-width="1.3" filter="url(#skr1x1050)"/><line x1="266.8" y1="491.2" x2="318.3" y2="492.3" stroke="#00ff60" stroke-opacity=".62" stroke-width="1.8"/><line x1="680.9" y1="489.8" x2="732.6" y2="489.9" stroke="#00ff60" stroke-opacity=".62" stroke-width="1.8"/><line x1="268.4" y1="521.6" x2="321.3" y2="523.8" stroke="#00ff60" stroke-opacity=".62" stroke-width="1.8"/><line x1="681.4" y1="521.4" x2="731.9" y2="521.8" stroke="#00ff60" stroke-opacity=".62" stroke-width="1.8"/><line x1="267.8" y1="555.5" x2="320.0" y2="554.4" stroke="#00ff60" stroke-opacity=".62" stroke-width="1.8"/><line x1="680.9" y1="553.6" x2="734.0" y2="553.2" stroke="#00ff60" stroke-opacity=".62" stroke-width="1.8"/><line x1="267.1" y1="587.6" x2="320.4" y2="585.8" stroke="#00ff60" stroke-opacity=".62" stroke-width="1.8"/><line x1="681.3" y1="587.6" x2="732.2" y2="585.8" stroke="#00ff60" stroke-opacity=".62" stroke-width="1.8"/><g filter="url(#glowr1x1050)"><ellipse cx="498.6" cy="511.5" rx="42.9" ry="23.2" fill="#1e0600" stroke="#00ff60" stroke-width="1.6" filter="url(#skr1x1050)"/><circle cx="499.7" cy="511.8" r="15.1" fill="#00ff60"/><circle cx="498.1" cy="506.4" r="5.8" fill="#1e0600"/><ellipse cx="496.3" cy="503.3" rx="3.5" ry="2.3" fill="rgba(255,255,255,.7)"/></g><g><rect x="829.7693372160755" y="421.062677330058" width="148.0" height="82.0" rx="5" fill="url(#gunmetalr1x1050)" stroke="#00ff60" stroke-width="2" filter="url(#wmr1x1050)"/><rect x="831.281729895398" y="419.98701401595025" width="148.0" height="82.0" rx="5" fill="url(#carbonr1x1050)"/><rect x="837.0386852891744" y="402.45689360704273" width="90.0" height="22.0" rx="3" fill="url(#barrelr1x1050)" stroke="#00ff60" stroke-width="1" filter="url(#wmr1x1050)"/><circle cx="877.3782237973624" cy="416.009159474913" r="15.0" fill="#00ff60" opacity=".8" filter="url(#glowr1x1050)"/><circle cx="877.5903965627402" cy="415.4617213165387" r="6.0" fill="rgba(255,255,255,.9)"/><rect x="946.1373448977806" y="454.7378820874728" width="78.0" height="36.0" rx="5" fill="url(#barrelr1x1050)" stroke="#00ff60" stroke-width="1.2" filter="url(#wmr1x1050)"/><circle cx="1018.3548110816256" cy="470.7733199048787" r="18.0" fill="#00ff60" filter="url(#glowr1x1050)" opacity=".88"/><circle cx="1019.0338719125465" cy="471.45804783860217" r="7.0" fill="#ffffff"/><rect x="875.601559238378" y="499.7003714011982" width="44.0" height="42.0" rx="3" fill="url(#gunmetalr1x1050)" stroke="#00ff60" stroke-width="1" filter="url(#wmr1x1050)"/><rect x="832.2686996395328" y="423.07198689533396" width="90.0" height="10.0" rx="2" fill="rgba(255,255,255,.22)"/><line x1="856.8724507846497" y1="485.1006484637968" x2="856.2060440676846" y2="518.7312131502665" stroke="#00ff60" stroke-opacity=".5" stroke-width="1.2"/><line x1="872.2754024774396" y1="487.53638254487885" x2="875.4993055425213" y2="519.1272514936514" stroke="#00ff60" stroke-opacity=".5" stroke-width="1.2"/><line x1="890.4156451887079" y1="486.072523711808" x2="889.2603988312744" y2="518.065684417542" stroke="#00ff60" stroke-opacity=".5" stroke-width="1.2"/></g><rect x="450.5731788757257" y="556.4608941070735" width="100.0"  height="56.0" fill="#00441e" stroke="#00ff60" stroke-width="2.2" filter="url(#skr1x1050)"/><rect x="425.7252055220306" y="576.3000441528857" width="152.0" height="26.0" fill="url(#bevelr1x1050)" fill-opacity=".65" stroke="#00ff60" stroke-width="1.2" filter="url(#skr1x1050)"/><polygon points="307.2,380.8 348.5,295.8 498.3,277.1 650.3,295.3 692.9,381.4 668.1,504.2 498.9,565.6 329.4,505.2" fill="url(#suitr1x1050)" stroke="#00ff60" stroke-width="2.8" filter="url(#skr1x1050) url(#metalr1x1050)"/><polygon points="309.1,380.7 348.7,294.4 500.0,277.4 649.4,292.8 692.1,379.6 667.7,504.9 498.3,566.2 329.5,505.1" fill="url(#carbonr1x1050)"/><polygon points="379.5,301.8 501.7,286.1 620.1,301.3 608.3,379.3 391.5,382.3" fill="url(#suitHir1x1050)"/><polygon points="381.7,379.7 367.1,427.3 434.1,502.2 501.4,526.7 566.0,504.8 632.8,424.0 618.8,379.3" fill="#1e0600" fill-opacity=".88" stroke="#00ff60" stroke-width="1.8" filter="url(#skr1x1050)"/><polygon points="379.5,410.1 478.2,412.3 484.3,441.5 389.3,440.6" fill="#00ff60" filter="url(#glowr1x1050)"/><polygon points="523.9,409.6 619.8,412.7 610.1,440.0 515.7,440.3" fill="#00ff60" filter="url(#glowr1x1050)"/><ellipse cx="430.9" cy="425.7" rx="38.4"  ry="8.2" fill="#ffffff" opacity=".88"/><ellipse cx="569.1" cy="425.7" rx="38.4"  ry="8.2" fill="#ffffff" opacity=".88"/><line x1="485.041980599761" y1="414.76411957405503" x2="516.3714197160117" y2="414.8465952624567" stroke="#00ff60" stroke-opacity=".52" stroke-width="2"/><line x1="483.4301623273268" y1="438.5954039831646" x2="516.285476905331" y2="436.79911198206247" stroke="#00ff60" stroke-opacity=".52" stroke-width="2"/><line x1="498.7780770311132" y1="453.28571447618305" x2="499.96248536743224" y2="481.99267020188273" stroke="#00ff60" stroke-opacity=".58" stroke-width="2.2" filter="url(#skr1x1050)"/><line x1="454.2667153836973" y1="491.2887950064614" x2="452.27308756818996" y2="519.808013495244" stroke="#00ff60" stroke-opacity=".52" stroke-width="1.5" filter="url(#skr1x1050)"/><line x1="478.29113441970196" y1="490.7604331167414" x2="477.6668550701253" y2="518.5847632486373" stroke="#00ff60" stroke-opacity=".52" stroke-width="1.5" filter="url(#skr1x1050)"/><line x1="499.64582895869387" y1="491.77689451985054" x2="501.03874635398387" y2="519.8944996535778" stroke="#00ff60" stroke-opacity=".52" stroke-width="1.5" filter="url(#skr1x1050)"/><line x1="521.8172423486225" y1="489.5810535266995" x2="524.6141153504699" y2="519.919470127672" stroke="#00ff60" stroke-opacity=".52" stroke-width="1.5" filter="url(#skr1x1050)"/><line x1="545.9030491216295" y1="491.6949720714241" x2="544.7887094473652" y2="518.8525350108742" stroke="#00ff60" stroke-opacity=".52" stroke-width="1.5" filter="url(#skr1x1050)"/><polygon points="431.5,504.9 568.5,503.4 554.0,558.1 445.3,556.4" fill="#00441e" fill-opacity=".72" stroke="#00ff60" stroke-width="1.3" filter="url(#skr1x1050)"/><polygon points="478.3,304.4 524.2,304.0 510.3,176.4 488.6,175.0" fill="url(#bevelr1x1050)" stroke="#00ff60" stroke-width="2.2" filter="url(#skr1x1050)"/><polygon points="365.0,323.2 456.2,321.9 470.0,229.2" fill="url(#bevelr1x1050)" fill-opacity=".78" stroke="#00ff60" stroke-width="1.5" filter="url(#skr1x1050)"/><polygon points="543.7,322.5 635.3,322.8 531.3,230.7" fill="url(#bevelr1x1050)" fill-opacity=".78" stroke="#00ff60" stroke-width="1.5" filter="url(#skr1x1050)"/><text x="30.0"  y="975.0" font-family="monospace" font-weight="bold" font-size="22.0" fill="rgba(255,255,255,.22)">#0001</text><text x="500.0"   y="975.0" text-anchor="middle" font-family="monospace" font-weight="bold" font-size="22.0" fill="#00ff60" fill-opacity=".48">VIPER RANGER</text><text x="970.0" y="975.0" text-anchor="end"    font-family="monospace" font-weight="bold" font-size="22.0" fill="#00ff60" fill-opacity=".32">MECH RANGERS</text></svg>