<svg xmlns="http://www.w3.org/2000/svg" viewBox="0 0 1000 1000" width="1000" height="1000" shape-rendering="geometricPrecision"><defs>

  <!-- Scene gradients -->
  <radialGradient id="bgr1x1096" cx="50%" cy="42%" r="72%">
    <stop offset="0%"   stop-color="#1e0a2e"/>
    <stop offset="100%" stop-color="#0a0520"/>
  </radialGradient>
  <linearGradient id="suitr1x1096" x1="8%" y1="0%" x2="92%" y2="100%">
    <stop offset="0%"   stop-color="#4444ff" stop-opacity=".95"/>
    <stop offset="45%"  stop-color="#141428"/>
    <stop offset="100%" stop-color="#0a0520"/>
  </linearGradient>
  <linearGradient id="suitHir1x1096" x1="0%" y1="0%" x2="0%" y2="100%">
    <stop offset="0%"   stop-color="rgba(255,255,255,.28)"/>
    <stop offset="60%"  stop-color="rgba(255,255,255,.04)"/>
    <stop offset="100%" stop-color="rgba(255,255,255,0)"/>
  </linearGradient>
  <!-- Bevel: bright top, dark bottom for armour panels -->
  <linearGradient id="bevelr1x1096" x1="0%" y1="0%" x2="0%" y2="100%">
    <stop offset="0%"   stop-color="rgba(255,255,255,.55)"/>
    <stop offset="30%"  stop-color="#4444ff"/>
    <stop offset="70%"  stop-color="#141428"/>
    <stop offset="100%" stop-color="rgba(0,0,0,.5)"/>
  </linearGradient>

  <!-- Weapon: cold steel blade sweep -->
  <linearGradient id="blader1x1096" x1="0%" y1="0%" x2="100%" y2="0%">
    <stop offset="0%"   stop-color="#0e0e20"/>
    <stop offset="16%"  stop-color="#3e3e58"/>
    <stop offset="34%"  stop-color="#c8c8e0"/>
    <stop offset="50%"  stop-color="#f5f5ff"/>
    <stop offset="66%"  stop-color="#b8b8d0"/>
    <stop offset="84%"  stop-color="#2e2e48"/>
    <stop offset="100%" stop-color="#08080e"/>
  </linearGradient>
  <!-- Blade tip brightening -->
  <linearGradient id="bladeTipr1x1096" x1="0%" y1="100%" x2="0%" y2="0%">
    <stop offset="0%"   stop-color="rgba(255,255,255,0)"/>
    <stop offset="55%"  stop-color="rgba(255,255,255,.1)"/>
    <stop offset="100%" stop-color="rgba(255,255,255,.55)"/>
  </linearGradient>
  <!-- Gunmetal anodised — blaster body -->
  <linearGradient id="gunmetalr1x1096" x1="0%" y1="0%" x2="0%" y2="100%">
    <stop offset="0%"   stop-color="#46465e"/>
    <stop offset="18%"  stop-color="#828296"/>
    <stop offset="42%"  stop-color="#26263a"/>
    <stop offset="72%"  stop-color="#16162a"/>
    <stop offset="100%" stop-color="#0c0c18"/>
  </linearGradient>
  <!-- Brushed steel tube — barrel/rod -->
  <linearGradient id="barrelr1x1096" x1="0%" y1="0%" x2="100%" y2="0%">
    <stop offset="0%"   stop-color="#0a0a14"/>
    <stop offset="24%"  stop-color="#585875"/>
    <stop offset="50%"  stop-color="#a8a8c8"/>
    <stop offset="76%"  stop-color="#383852"/>
    <stop offset="100%" stop-color="#0a0a14"/>
  </linearGradient>
  <!-- Chrome rod — lance shaft -->
  <linearGradient id="chromer1x1096" x1="0%" y1="0%" x2="100%" y2="0%">
    <stop offset="0%"   stop-color="#0c0c18"/>
    <stop offset="20%"  stop-color="#686888"/>
    <stop offset="44%"  stop-color="#e0e0f0"/>
    <stop offset="56%"  stop-color="#c0c0d8"/>
    <stop offset="80%"  stop-color="#28283e"/>
    <stop offset="100%" stop-color="#0c0c18"/>
  </linearGradient>
  <!-- Titanium plate — shield face -->
  <linearGradient id="titaniumr1x1096" x1="0%" y1="0%" x2="100%" y2="100%">
    <stop offset="0%"   stop-color="#585878"/>
    <stop offset="28%"  stop-color="#4444ff" stop-opacity=".88"/>
    <stop offset="55%"  stop-color="#141428"/>
    <stop offset="80%"  stop-color="#181828"/>
    <stop offset="100%" stop-color="#0a0a18"/>
  </linearGradient>
  <!-- Artillery black-chrome — cannon body -->
  <linearGradient id="artilleryr1x1096" x1="0%" y1="0%" x2="0%" y2="100%">
    <stop offset="0%"   stop-color="#383850"/>
    <stop offset="14%"  stop-color="#78789a"/>
    <stop offset="36%"  stop-color="#202034"/>
    <stop offset="65%"  stop-color="#14141e"/>
    <stop offset="100%" stop-color="#0a0a12"/>
  </linearGradient>
  <!-- Energy orb — staff -->
  <radialGradient id="orbr1x1096" cx="35%" cy="35%" r="65%">
    <stop offset="0%"   stop-color="rgba(255,255,255,.9)"/>
    <stop offset="30%"  stop-color="#4444ff"/>
    <stop offset="68%"  stop-color="#141428"/>
    <stop offset="100%" stop-color="rgba(0,0,0,.6)"/>
  </radialGradient>
  <!-- Knuckle plate chrome -->
  <linearGradient id="knuckler1x1096" x1="0%" y1="0%" x2="0%" y2="100%">
    <stop offset="0%"   stop-color="#888aaa"/>
    <stop offset="32%"  stop-color="#4444ff" stop-opacity=".8"/>
    <stop offset="62%"  stop-color="#1a1a2c"/>
    <stop offset="100%" stop-color="#0a0a14"/>
  </linearGradient>

  <!-- Carbon fibre weave texture overlay -->
  <pattern id="carbonr1x1096" width="6" height="6" patternUnits="userSpaceOnUse">
    <rect width="6" height="6" fill="rgba(0,0,0,.08)"/>
    <rect x="0" y="0" width="3" height="3" fill="rgba(255,255,255,.022)"/>
    <rect x="3" y="3" width="3" height="3" fill="rgba(255,255,255,.022)"/>
    <line x1="0" y1="0" x2="3" y2="3" stroke="rgba(255,255,255,.038)" stroke-width=".5"/>
    <line x1="3" y1="0" x2="6" y2="3" stroke="rgba(0,0,0,.055)"       stroke-width=".5"/>
    <line x1="0" y1="3" x2="3" y2="6" stroke="rgba(0,0,0,.055)"       stroke-width=".5"/>
    <line x1="3" y1="3" x2="6" y2="6" stroke="rgba(255,255,255,.038)" stroke-width=".5"/>
  </pattern>

  <!-- Specular metal sheen on armour panels -->
  <filter id="metalr1x1096" x="-5%" y="-5%" width="110%" height="110%">
    <feSpecularLighting surfaceScale="4" specularConstant="1.8"
        specularExponent="42" lighting-color="#ffffff" result="spec">
      <feDistantLight elevation="52" azimuth="38"/>
    </feSpecularLighting>
    <feComposite in="spec" in2="SourceGraphic" operator="in" result="sm"/>
    <feComposite in="SourceGraphic" in2="sm" operator="arithmetic" k1="0" k2="1" k3="0.55" k4="0"/>
  </filter>

  <!-- Sharper specular for weapons — heavier glare -->
  <filter id="wmr1x1096" x="-8%" y="-8%" width="116%" height="116%">
    <feSpecularLighting surfaceScale="6" specularConstant="2.4"
        specularExponent="65" lighting-color="#ffffff" result="spec">
      <feDistantLight elevation="44" azimuth="28"/>
    </feSpecularLighting>
    <feComposite in="spec" in2="SourceGraphic" operator="in" result="sm"/>
    <feComposite in="SourceGraphic" in2="sm" operator="arithmetic" k1="0" k2="1" k3="0.78" k4="0"/>
  </filter>

  <!-- Sketch wobble -->
  <filter id="skr1x1096" x="-8%" y="-8%" width="116%" height="116%">
    <feTurbulence type="fractalNoise" baseFrequency="0.038"
        numOctaves="3" seed="77" result="noise"/>
    <feDisplacementMap in="SourceGraphic" in2="noise" scale="2.6"
        xChannelSelector="R" yChannelSelector="G" result="w"/>
    <feComposite in="w" in2="SourceGraphic" operator="atop"/>
  </filter>

  <!-- Glow: sharp accent -->
  <filter id="glowr1x1096" x="-20%" y="-20%" width="140%" height="140%">
    <feGaussianBlur stdDeviation="3.5" result="b"/>
    <feColorMatrix in="b" type="matrix"
        values="0 0 0 0 1  0 0 0 0 1  0 0 0 0 1  0 0 0 1.8 0" result="boost"/>
    <feMerge><feMergeNode in="boost"/><feMergeNode in="SourceGraphic"/></feMerge>
  </filter>

  <!-- Bloom: wide soft -->
  <filter id="bloomr1x1096" x="-40%" y="-40%" width="180%" height="180%">
    <feGaussianBlur stdDeviation="11" result="b"/>
    <feMerge><feMergeNode in="b"/><feMergeNode in="SourceGraphic"/></feMerge>
  </filter>

  </defs><rect width="1000" height="1000" fill="url(#bgr1x1096)"/><ellipse cx="500.0" cy="892.0" rx="350.0" ry="65.0" fill="rgba(0,0,0,.7)" filter="url(#bloomr1x1096)"/><ellipse cx="500.0" cy="889.0" rx="220.0" ry="34.0" fill="rgba(0,0,0,.45)"/><ellipse cx="500.0" cy="520.0" rx="320.0" ry="480.0" fill="#00e5ff" fill-opacity=".042" filter="url(#bloomr1x1096)"/><circle cx="412.1" cy="308.4" r="0.7" fill="#00e5ff" fill-opacity="0.50" filter="url(#glowr1x1096)"/><circle cx="376.7" cy="181.3" r="1.5" fill="#00e5ff" fill-opacity="0.69" filter="url(#glowr1x1096)"/><circle cx="734.4" cy="510.4" r="2.4" fill="#00e5ff" fill-opacity="0.59" filter="url(#glowr1x1096)"/><circle cx="709.2" cy="484.7" r="2.1" fill="#00e5ff" fill-opacity="0.78" filter="url(#glowr1x1096)"/><circle cx="558.9" cy="226.7" r="3.2" fill="#00e5ff" fill-opacity="0.52" filter="url(#glowr1x1096)"/><circle cx="291.3" cy="584.7" r="4.3" fill="#00e5ff" fill-opacity="0.74" filter="url(#glowr1x1096)"/><circle cx="634.7" cy="662.2" r="3.6" fill="#00e5ff" fill-opacity="0.80" filter="url(#glowr1x1096)"/><circle cx="330.9" cy="293.4" r="1.4" fill="#00e5ff" fill-opacity="0.72" filter="url(#glowr1x1096)"/><circle cx="602.9" cy="775.4" r="1.7" fill="#00e5ff" fill-opacity="0.48" filter="url(#glowr1x1096)"/><circle cx="687.9" cy="443.1" r="1.7" fill="#00e5ff" fill-opacity="0.56" filter="url(#glowr1x1096)"/><circle cx="337.5" cy="778.6" r="2.5" fill="#00e5ff" fill-opacity="0.58" filter="url(#glowr1x1096)"/><circle cx="348.9" cy="262.0" r="2.4" fill="#00e5ff" fill-opacity="0.61" filter="url(#glowr1x1096)"/><circle cx="738.2" cy="301.6" r="1.1" fill="#00e5ff" fill-opacity="0.74" filter="url(#glowr1x1096)"/><circle cx="672.1" cy="703.3" r="2.8" fill="#00e5ff" fill-opacity="0.74" filter="url(#glowr1x1096)"/><path d="M509.7,196.0 Q516.7,529.2 467.2,893.7" stroke="#00e5ff" stroke-opacity="0.62" stroke-width="2.7" fill="none" filter="url(#glowr1x1096)"/><path d="M408.1,147.2 Q438.7,422.3 333.3,644.2" stroke="#00e5ff" stroke-opacity="0.46" stroke-width="1.8" fill="none" filter="url(#glowr1x1096)"/><path d="M394.6,340.8 Q351.1,530.1 555.2,738.6" stroke="#00e5ff" stroke-opacity="0.79" stroke-width="1.0" fill="none" filter="url(#glowr1x1096)"/><path d="M481.1,295.4 Q444.2,583.6 348.9,876.1" stroke="#00e5ff" stroke-opacity="0.45" stroke-width="1.3" fill="none" filter="url(#glowr1x1096)"/><path d="M327.4,397.2 Q331.6,614.8 646.0,844.2" stroke="#00e5ff" stroke-opacity="0.47" stroke-width="2.6" fill="none" filter="url(#glowr1x1096)"/><polygon points="400.4,661.4 489.6,662.5 479.4,876.5 386.0,879.1" fill="url(#suitr1x1096)" stroke="#4444ff" stroke-width="2.2" filter="url(#skr1x1096) url(#metalr1x1096)"/><polygon points="397.2,663.9 489.9,660.8 480.6,877.6 386.5,876.8" fill="url(#carbonr1x1096)"/><polygon points="393.0,722.1 491.8,722.0 484.8,788.5 382.7,789.6" fill="url(#bevelr1x1096)" fill-opacity=".5" stroke="#4444ff" stroke-width="1.4" filter="url(#skr1x1096)"/><polygon points="510.8,661.7 600.3,664.1 612.0,878.1 518.3,878.0" fill="url(#suitr1x1096)" stroke="#4444ff" stroke-width="2.2" filter="url(#skr1x1096) url(#metalr1x1096)"/><polygon points="510.7,661.9 602.1,663.8 611.9,878.9 518.1,877.2" fill="url(#carbonr1x1096)"/><polygon points="507.4,722.2 609.0,722.0 617.1,787.1 517.0,787.5" fill="url(#bevelr1x1096)" fill-opacity=".5" stroke="#4444ff" stroke-width="1.4" filter="url(#skr1x1096)"/><rect x="393.6" y="837.8" width="100.3" height="24.7" fill="url(#bevelr1x1096)" stroke="#4444ff" stroke-width="1" filter="url(#skr1x1096)"/><rect x="506.6"  y="840.6" width="100.3" height="24.7" fill="url(#bevelr1x1096)" stroke="#4444ff" stroke-width="1" filter="url(#skr1x1096)"/><polygon points="368.9,876.3 496.0,876.1 502.0,923.3 364.0,920.8" fill="#141428" stroke="#4444ff" stroke-width="2" filter="url(#skr1x1096)"/><polygon points="503.1,879.3 629.4,878.4 637.9,921.6 497.6,923.2" fill="#141428" stroke="#4444ff" stroke-width="2" filter="url(#skr1x1096)"/><polygon points="302.7,631.3 695.1,632.0 638.5,683.2 362.2,680.7" fill="#4444ff" fill-opacity=".52" stroke="#4444ff" stroke-width="2" filter="url(#skr1x1096)"/><rect x="465.0" y="637.9" width="72.0" height="42.0" fill="url(#bevelr1x1096)" stroke="#4444ff" stroke-width="1.4" filter="url(#glowr1x1096)"/><rect x="486.2" y="641.4" width="28.0" height="22.0" rx="1" fill="rgba(255,255,255,.48)"/><polygon points="152.5,465.6 235.0,467.8 256.9,735.7 128.9,736.5" fill="url(#suitr1x1096)" stroke="#4444ff" stroke-width="2.2" filter="url(#skr1x1096) url(#metalr1x1096)"/><polygon points="172.7,433.6 251.4,433.5 243.1,508.9 158.8,512.2" fill="url(#bevelr1x1096)" fill-opacity=".72" stroke="#4444ff" stroke-width="2.2" filter="url(#skr1x1096)"/><polygon points="161.6,623.4 244.3,620.2 237.3,661.5 166.1,659.5" fill="#4444ff" fill-opacity=".42" stroke="#4444ff" stroke-width="1" filter="url(#skr1x1096)"/><polygon points="765.7,467.2 845.9,466.4 870.0,733.9 740.3,735.2" fill="url(#suitr1x1096)" stroke="#4444ff" stroke-width="2.2" filter="url(#skr1x1096) url(#metalr1x1096)"/><polygon points="746.6,433.6 826.7,431.2 839.8,512.2 757.9,511.8" fill="url(#bevelr1x1096)" fill-opacity=".72" stroke="#4444ff" stroke-width="2.2" filter="url(#skr1x1096)"/><polygon points="757.6,623.3 837.3,620.1 833.5,659.3 762.2,660.2" fill="#4444ff" fill-opacity=".42" stroke="#4444ff" stroke-width="1" filter="url(#skr1x1096)"/><rect x="121.6"  y="699.1" width="135.3" height="85.0" rx="4" fill="url(#bevelr1x1096)" stroke="#4444ff" stroke-width="1.8" filter="url(#skr1x1096)"/><rect x="748.7"   y="698.9" width="135.3" height="85.0" rx="4" fill="url(#bevelr1x1096)" stroke="#4444ff" stroke-width="1.8" filter="url(#skr1x1096)"/><line x1="149.3" y1="701.9" x2="150.0" y2="783.8" stroke="#4444ff" stroke-opacity=".38" stroke-width="1"/><line x1="779.7" y1="700.9" x2="777.5" y2="785.4" stroke="#4444ff" stroke-opacity=".38" stroke-width="1"/><line x1="184.1" y1="700.7" x2="183.1" y2="784.2" stroke="#4444ff" stroke-opacity=".38" stroke-width="1"/><line x1="809.8" y1="702.2" x2="810.3" y2="782.2" stroke="#4444ff" stroke-opacity=".38" stroke-width="1"/><line x1="216.7" y1="701.5" x2="216.7" y2="784.4" stroke="#4444ff" stroke-opacity=".38" stroke-width="1"/><line x1="845.3" y1="700.5" x2="843.2" y2="783.4" stroke="#4444ff" stroke-opacity=".38" stroke-width="1"/><polygon points="236.2,417.0 765.1,416.2 721.8,661.4 277.8,662.5" fill="url(#suitr1x1096)" stroke="#4444ff" stroke-width="2.6" filter="url(#skr1x1096) url(#metalr1x1096)"/><polygon points="236.0,415.9 765.6,418.9 724.1,662.8 275.9,663.1" fill="url(#carbonr1x1096)"/><polygon points="367.1,417.8 632.6,419.0 609.7,515.9 389.9,516.3" fill="url(#suitHir1x1096)"/><line x1="363.1" y1="472.4" x2="638.1" y2="472.7" stroke="#4444ff" stroke-opacity=".52" stroke-width="1.3" filter="url(#skr1x1096)"/><line x1="397.5" y1="551.0" x2="601.7" y2="549.8" stroke="#4444ff" stroke-opacity=".52" stroke-width="1.3" filter="url(#skr1x1096)"/><line x1="267.9" y1="492.1" x2="321.0" y2="491.4" stroke="#4444ff" stroke-opacity=".62" stroke-width="1.8"/><line x1="681.8" y1="492.8" x2="733.2" y2="489.7" stroke="#4444ff" stroke-opacity=".62" stroke-width="1.8"/><line x1="267.5" y1="523.2" x2="318.1" y2="523.1" stroke="#4444ff" stroke-opacity=".62" stroke-width="1.8"/><line x1="679.2" y1="523.6" x2="731.9" y2="521.8" stroke="#4444ff" stroke-opacity=".62" stroke-width="1.8"/><line x1="266.3" y1="553.9" x2="320.0" y2="555.0" stroke="#4444ff" stroke-opacity=".62" stroke-width="1.8"/><line x1="681.8" y1="555.6" x2="735.0" y2="555.5" stroke="#4444ff" stroke-opacity=".62" stroke-width="1.8"/><line x1="265.8" y1="586.9" x2="321.0" y2="588.1" stroke="#4444ff" stroke-opacity=".62" stroke-width="1.8"/><line x1="678.8" y1="586.4" x2="734.4" y2="585.1" stroke="#4444ff" stroke-opacity=".62" stroke-width="1.8"/><g filter="url(#glowr1x1096)"><circle cx="500.7" cy="500.2" r="31.3" fill="#4444ff" stroke="#0a0520" stroke-width="1.4" filter="url(#skr1x1096)"/><circle cx="489.4" cy="498.4" r="7.0" fill="#0a0520"/><circle cx="513.3" cy="497.2" r="7.0" fill="#0a0520"/><rect x="485.8" y="523.2" width="9.3" height="17.4" rx="1" fill="#4444ff" stroke="#0a0520" stroke-width=".6"/><rect x="495.2" y="523.0" width="9.3" height="17.4" rx="1" fill="#4444ff" stroke="#0a0520" stroke-width=".6"/><rect x="507.0" y="522.6" width="9.3" height="17.4" rx="1" fill="#4444ff" stroke="#0a0520" stroke-width=".6"/></g><g><rect x="114.8" y="700.4" width="137.8" height="88.0" rx="5" fill="url(#bevelr1x1096)" stroke="#4444ff" stroke-width="2" filter="url(#wmr1x1096)"/><rect x="115.8" y="702.3" width="137.8" height="88.0" rx="5" fill="url(#carbonr1x1096)"/><rect x="750.2"  y="702.4" width="137.8" height="88.0" rx="5" fill="url(#bevelr1x1096)" stroke="#4444ff" stroke-width="2" filter="url(#wmr1x1096)"/><rect x="747.4"  y="702.8" width="137.8" height="88.0" rx="5" fill="url(#carbonr1x1096)"/><rect x="121.4" y="698.5" width="23.0" height="22.0" rx="2" fill="url(#knuckler1x1096)" stroke="#4444ff" stroke-width=".8" filter="url(#wmr1x1096)"/><rect x="756.4" y="701.1" width="23.0" height="22.0" rx="2" fill="url(#knuckler1x1096)" stroke="#4444ff" stroke-width=".8" filter="url(#wmr1x1096)"/><rect x="150.4" y="699.6" width="23.0" height="22.0" rx="2" fill="url(#knuckler1x1096)" stroke="#4444ff" stroke-width=".8" filter="url(#wmr1x1096)"/><rect x="785.1" y="698.1" width="23.0" height="22.0" rx="2" fill="url(#knuckler1x1096)" stroke="#4444ff" stroke-width=".8" filter="url(#wmr1x1096)"/><rect x="179.1" y="699.9" width="23.0" height="22.0" rx="2" fill="url(#knuckler1x1096)" stroke="#4444ff" stroke-width=".8" filter="url(#wmr1x1096)"/><rect x="812.6" y="701.6" width="23.0" height="22.0" rx="2" fill="url(#knuckler1x1096)" stroke="#4444ff" stroke-width=".8" filter="url(#wmr1x1096)"/><rect x="210.4" y="698.8" width="23.0" height="22.0" rx="2" fill="url(#knuckler1x1096)" stroke="#4444ff" stroke-width=".8" filter="url(#wmr1x1096)"/><rect x="845.2" y="700.4" width="23.0" height="22.0" rx="2" fill="url(#knuckler1x1096)" stroke="#4444ff" stroke-width=".8" filter="url(#wmr1x1096)"/><ellipse cx="185.1882735758461" cy="711.1431653069145" rx="45.1" ry="30.0" fill="#4444ff" fill-opacity=".25" filter="url(#glowr1x1096)"/><ellipse cx="815.7503825249337" cy="711.1116679026559" rx="45.1" ry="30.0" fill="#4444ff" fill-opacity=".25" filter="url(#glowr1x1096)"/></g><rect x="448.8203530247323" y="557.587730976846" width="100.0"  height="56.0" fill="#141428" stroke="#4444ff" stroke-width="2.2" filter="url(#skr1x1096)"/><rect x="423.5335121912882" y="575.7361392352731" width="152.0" height="26.0" fill="url(#bevelr1x1096)" fill-opacity=".65" stroke="#4444ff" stroke-width="1.2" filter="url(#skr1x1096)"/><polygon points="308.3,379.2 351.7,294.5 501.6,276.4 648.0,293.5 692.0,379.6 668.6,504.1 498.9,566.2 329.8,505.2" fill="url(#suitr1x1096)" stroke="#4444ff" stroke-width="2.8" filter="url(#skr1x1096) url(#metalr1x1096)"/><polygon points="308.4,381.6 350.5,293.9 500.6,276.9 648.7,294.7 693.4,381.3 668.1,503.4 499.6,566.0 330.0,504.6" fill="url(#carbonr1x1096)"/><polygon points="381.6,303.4 499.7,284.6 617.6,303.5 608.4,379.0 391.9,382.1" fill="url(#suitHir1x1096)"/><polygon points="379.9,380.4 364.5,425.4 431.6,502.7 499.2,529.2 568.7,503.2 633.3,426.7 619.5,379.8" fill="#0a0520" fill-opacity=".88" stroke="#4444ff" stroke-width="1.8" filter="url(#skr1x1096)"/><polygon points="381.0,410.3 478.3,410.2 483.3,441.4 388.1,438.4" fill="#4444ff" filter="url(#glowr1x1096)"/><polygon points="524.2,410.8 618.0,412.8 609.7,438.5 516.1,441.0" fill="#4444ff" filter="url(#glowr1x1096)"/><ellipse cx="430.9" cy="425.7" rx="38.4"  ry="8.2" fill="#ffffff" opacity=".88"/><ellipse cx="569.1" cy="425.7" rx="38.4"  ry="8.2" fill="#ffffff" opacity=".88"/><line x1="484.82937353529036" y1="411.812469514925" x2="513.9925442667119" y2="413.0660504166037" stroke="#4444ff" stroke-opacity=".52" stroke-width="2"/><line x1="486.3911985799298" y1="439.7569735678844" x2="515.7609935661219" y2="436.23576452219856" stroke="#4444ff" stroke-opacity=".52" stroke-width="2"/><line x1="499.9254765726626" y1="452.94528289465234" x2="498.3026157672517" y2="481.92236913731324" stroke="#4444ff" stroke-opacity=".58" stroke-width="2.2" filter="url(#skr1x1096)"/><line x1="452.3685258170404" y1="492.05843871040264" x2="452.18902258293707" y2="520.384794547502" stroke="#4444ff" stroke-opacity=".52" stroke-width="1.5" filter="url(#skr1x1096)"/><line x1="477.15102745410053" y1="492.1921510207466" x2="475.25293686766173" y2="521.2731965910643" stroke="#4444ff" stroke-opacity=".52" stroke-width="1.5" filter="url(#skr1x1096)"/><line x1="501.48751605991276" y1="491.7628880118019" x2="500.33059107130396" y2="521.0227446822449" stroke="#4444ff" stroke-opacity=".52" stroke-width="1.5" filter="url(#skr1x1096)"/><line x1="522.7974212656356" y1="492.0070597235113" x2="523.1808036795444" y2="520.4592367491684" stroke="#4444ff" stroke-opacity=".52" stroke-width="1.5" filter="url(#skr1x1096)"/><line x1="544.8441809253022" y1="491.7253982114605" x2="547.4197431371734" y2="520.0159968722612" stroke="#4444ff" stroke-opacity=".52" stroke-width="1.5" filter="url(#skr1x1096)"/><polygon points="431.3,503.1 566.5,505.3 552.7,557.3 445.7,557.2" fill="#141428" fill-opacity=".72" stroke="#4444ff" stroke-width="1.3" filter="url(#skr1x1096)"/><path d="M395.02763325877487 346.83158210432157 C343.98345735738053 154.79707045890393 451.290088600032 228.8769393065013 476.7056523288228 320.8277499197982" fill="#4444ff" stroke="#4444ff" stroke-width="2.8" filter="url(#skr1x1096)"/><path d="M603.8909655433336 347.6526077548042 C657.0708301632293 156.504127754923 550.8937416321411 227.50464016674087 525.8119337189385 320.6262360610999" fill="#4444ff" stroke="#4444ff" stroke-width="2.8" filter="url(#skr1x1096)"/><path d="M392.6348888961785 424.6369909691624 L462.0824046270922 392.49406337849797 L499.256813246198 424.6229410076514 L539.2575950080528 391.01324373502285 L607.6811198797822 424.38815911291164" stroke="#4444ff" stroke-width="2.2" fill="none" filter="url(#skr1x1096)"/><text x="30.0"  y="975.0" font-family="monospace" font-weight="bold" font-size="22.0" fill="rgba(255,255,255,.22)">#0001</text><text x="500.0"   y="975.0" text-anchor="middle" font-family="monospace" font-weight="bold" font-size="22.0" fill="#4444ff" fill-opacity=".48">OBSIDIAN RANGER</text><text x="970.0" y="975.0" text-anchor="end"    font-family="monospace" font-weight="bold" font-size="22.0" fill="#4444ff" fill-opacity=".32">MECH RANGERS</text></svg>