<svg xmlns="http://www.w3.org/2000/svg" viewBox="0 0 1000 1000" width="1000" height="1000" shape-rendering="geometricPrecision"><defs>

  <!-- Scene gradients -->
  <radialGradient id="bgr1x110" cx="50%" cy="42%" r="72%">
    <stop offset="0%"   stop-color="#0e000e"/>
    <stop offset="100%" stop-color="#1e0600"/>
  </radialGradient>
  <linearGradient id="suitr1x110" x1="8%" y1="0%" x2="92%" y2="100%">
    <stop offset="0%"   stop-color="#4444ff" stop-opacity=".95"/>
    <stop offset="45%"  stop-color="#141428"/>
    <stop offset="100%" stop-color="#1e0600"/>
  </linearGradient>
  <linearGradient id="suitHir1x110" x1="0%" y1="0%" x2="0%" y2="100%">
    <stop offset="0%"   stop-color="rgba(255,255,255,.28)"/>
    <stop offset="60%"  stop-color="rgba(255,255,255,.04)"/>
    <stop offset="100%" stop-color="rgba(255,255,255,0)"/>
  </linearGradient>
  <!-- Bevel: bright top, dark bottom for armour panels -->
  <linearGradient id="bevelr1x110" x1="0%" y1="0%" x2="0%" y2="100%">
    <stop offset="0%"   stop-color="rgba(255,255,255,.55)"/>
    <stop offset="30%"  stop-color="#4444ff"/>
    <stop offset="70%"  stop-color="#141428"/>
    <stop offset="100%" stop-color="rgba(0,0,0,.5)"/>
  </linearGradient>

  <!-- Weapon: cold steel blade sweep -->
  <linearGradient id="blader1x110" x1="0%" y1="0%" x2="100%" y2="0%">
    <stop offset="0%"   stop-color="#0e0e20"/>
    <stop offset="16%"  stop-color="#3e3e58"/>
    <stop offset="34%"  stop-color="#c8c8e0"/>
    <stop offset="50%"  stop-color="#f5f5ff"/>
    <stop offset="66%"  stop-color="#b8b8d0"/>
    <stop offset="84%"  stop-color="#2e2e48"/>
    <stop offset="100%" stop-color="#08080e"/>
  </linearGradient>
  <!-- Blade tip brightening -->
  <linearGradient id="bladeTipr1x110" x1="0%" y1="100%" x2="0%" y2="0%">
    <stop offset="0%"   stop-color="rgba(255,255,255,0)"/>
    <stop offset="55%"  stop-color="rgba(255,255,255,.1)"/>
    <stop offset="100%" stop-color="rgba(255,255,255,.55)"/>
  </linearGradient>
  <!-- Gunmetal anodised — blaster body -->
  <linearGradient id="gunmetalr1x110" x1="0%" y1="0%" x2="0%" y2="100%">
    <stop offset="0%"   stop-color="#46465e"/>
    <stop offset="18%"  stop-color="#828296"/>
    <stop offset="42%"  stop-color="#26263a"/>
    <stop offset="72%"  stop-color="#16162a"/>
    <stop offset="100%" stop-color="#0c0c18"/>
  </linearGradient>
  <!-- Brushed steel tube — barrel/rod -->
  <linearGradient id="barrelr1x110" x1="0%" y1="0%" x2="100%" y2="0%">
    <stop offset="0%"   stop-color="#0a0a14"/>
    <stop offset="24%"  stop-color="#585875"/>
    <stop offset="50%"  stop-color="#a8a8c8"/>
    <stop offset="76%"  stop-color="#383852"/>
    <stop offset="100%" stop-color="#0a0a14"/>
  </linearGradient>
  <!-- Chrome rod — lance shaft -->
  <linearGradient id="chromer1x110" x1="0%" y1="0%" x2="100%" y2="0%">
    <stop offset="0%"   stop-color="#0c0c18"/>
    <stop offset="20%"  stop-color="#686888"/>
    <stop offset="44%"  stop-color="#e0e0f0"/>
    <stop offset="56%"  stop-color="#c0c0d8"/>
    <stop offset="80%"  stop-color="#28283e"/>
    <stop offset="100%" stop-color="#0c0c18"/>
  </linearGradient>
  <!-- Titanium plate — shield face -->
  <linearGradient id="titaniumr1x110" x1="0%" y1="0%" x2="100%" y2="100%">
    <stop offset="0%"   stop-color="#585878"/>
    <stop offset="28%"  stop-color="#4444ff" stop-opacity=".88"/>
    <stop offset="55%"  stop-color="#141428"/>
    <stop offset="80%"  stop-color="#181828"/>
    <stop offset="100%" stop-color="#0a0a18"/>
  </linearGradient>
  <!-- Artillery black-chrome — cannon body -->
  <linearGradient id="artilleryr1x110" x1="0%" y1="0%" x2="0%" y2="100%">
    <stop offset="0%"   stop-color="#383850"/>
    <stop offset="14%"  stop-color="#78789a"/>
    <stop offset="36%"  stop-color="#202034"/>
    <stop offset="65%"  stop-color="#14141e"/>
    <stop offset="100%" stop-color="#0a0a12"/>
  </linearGradient>
  <!-- Energy orb — staff -->
  <radialGradient id="orbr1x110" cx="35%" cy="35%" r="65%">
    <stop offset="0%"   stop-color="rgba(255,255,255,.9)"/>
    <stop offset="30%"  stop-color="#4444ff"/>
    <stop offset="68%"  stop-color="#141428"/>
    <stop offset="100%" stop-color="rgba(0,0,0,.6)"/>
  </radialGradient>
  <!-- Knuckle plate chrome -->
  <linearGradient id="knuckler1x110" x1="0%" y1="0%" x2="0%" y2="100%">
    <stop offset="0%"   stop-color="#888aaa"/>
    <stop offset="32%"  stop-color="#4444ff" stop-opacity=".8"/>
    <stop offset="62%"  stop-color="#1a1a2c"/>
    <stop offset="100%" stop-color="#0a0a14"/>
  </linearGradient>

  <!-- Carbon fibre weave texture overlay -->
  <pattern id="carbonr1x110" width="6" height="6" patternUnits="userSpaceOnUse">
    <rect width="6" height="6" fill="rgba(0,0,0,.08)"/>
    <rect x="0" y="0" width="3" height="3" fill="rgba(255,255,255,.022)"/>
    <rect x="3" y="3" width="3" height="3" fill="rgba(255,255,255,.022)"/>
    <line x1="0" y1="0" x2="3" y2="3" stroke="rgba(255,255,255,.038)" stroke-width=".5"/>
    <line x1="3" y1="0" x2="6" y2="3" stroke="rgba(0,0,0,.055)"       stroke-width=".5"/>
    <line x1="0" y1="3" x2="3" y2="6" stroke="rgba(0,0,0,.055)"       stroke-width=".5"/>
    <line x1="3" y1="3" x2="6" y2="6" stroke="rgba(255,255,255,.038)" stroke-width=".5"/>
  </pattern>

  <!-- Specular metal sheen on armour panels -->
  <filter id="metalr1x110" x="-5%" y="-5%" width="110%" height="110%">
    <feSpecularLighting surfaceScale="4" specularConstant="1.8"
        specularExponent="42" lighting-color="#ffffff" result="spec">
      <feDistantLight elevation="52" azimuth="38"/>
    </feSpecularLighting>
    <feComposite in="spec" in2="SourceGraphic" operator="in" result="sm"/>
    <feComposite in="SourceGraphic" in2="sm" operator="arithmetic" k1="0" k2="1" k3="0.55" k4="0"/>
  </filter>

  <!-- Sharper specular for weapons — heavier glare -->
  <filter id="wmr1x110" x="-8%" y="-8%" width="116%" height="116%">
    <feSpecularLighting surfaceScale="6" specularConstant="2.4"
        specularExponent="65" lighting-color="#ffffff" result="spec">
      <feDistantLight elevation="44" azimuth="28"/>
    </feSpecularLighting>
    <feComposite in="spec" in2="SourceGraphic" operator="in" result="sm"/>
    <feComposite in="SourceGraphic" in2="sm" operator="arithmetic" k1="0" k2="1" k3="0.78" k4="0"/>
  </filter>

  <!-- Sketch wobble -->
  <filter id="skr1x110" x="-8%" y="-8%" width="116%" height="116%">
    <feTurbulence type="fractalNoise" baseFrequency="0.038"
        numOctaves="3" seed="42" result="noise"/>
    <feDisplacementMap in="SourceGraphic" in2="noise" scale="2.6"
        xChannelSelector="R" yChannelSelector="G" result="w"/>
    <feComposite in="w" in2="SourceGraphic" operator="atop"/>
  </filter>

  <!-- Glow: sharp accent -->
  <filter id="glowr1x110" x="-20%" y="-20%" width="140%" height="140%">
    <feGaussianBlur stdDeviation="3.5" result="b"/>
    <feColorMatrix in="b" type="matrix"
        values="0 0 0 0 1  0 0 0 0 1  0 0 0 0 1  0 0 0 1.8 0" result="boost"/>
    <feMerge><feMergeNode in="boost"/><feMergeNode in="SourceGraphic"/></feMerge>
  </filter>

  <!-- Bloom: wide soft -->
  <filter id="bloomr1x110" x="-40%" y="-40%" width="180%" height="180%">
    <feGaussianBlur stdDeviation="11" result="b"/>
    <feMerge><feMergeNode in="b"/><feMergeNode in="SourceGraphic"/></feMerge>
  </filter>

  </defs><rect width="1000" height="1000" fill="url(#bgr1x110)"/><ellipse cx="500.0" cy="1000" rx="850.0" ry="350.0" fill="#ff4500" fill-opacity=".11" filter="url(#bloomr1x110)"/><ellipse cx="500.0" cy="892.0" rx="350.0" ry="65.0" fill="rgba(0,0,0,.7)" filter="url(#bloomr1x110)"/><ellipse cx="500.0" cy="889.0" rx="220.0" ry="34.0" fill="rgba(0,0,0,.45)"/><ellipse cx="500.0" cy="520.0" rx="320.0" ry="480.0" fill="#00e5ff" fill-opacity=".042" filter="url(#bloomr1x110)"/><circle cx="672.9" cy="612.9" r="3.4" fill="#00e5ff" fill-opacity="0.48" filter="url(#glowr1x110)"/><circle cx="569.8" cy="753.9" r="4.2" fill="#00e5ff" fill-opacity="0.44" filter="url(#glowr1x110)"/><circle cx="497.0" cy="416.7" r="2.7" fill="#00e5ff" fill-opacity="0.56" filter="url(#glowr1x110)"/><circle cx="682.3" cy="326.9" r="4.2" fill="#00e5ff" fill-opacity="0.45" filter="url(#glowr1x110)"/><circle cx="554.4" cy="663.0" r="2.4" fill="#00e5ff" fill-opacity="0.42" filter="url(#glowr1x110)"/><circle cx="253.1" cy="782.1" r="2.5" fill="#00e5ff" fill-opacity="0.82" filter="url(#glowr1x110)"/><circle cx="267.1" cy="494.5" r="2.2" fill="#00e5ff" fill-opacity="0.53" filter="url(#glowr1x110)"/><circle cx="268.5" cy="761.0" r="0.8" fill="#00e5ff" fill-opacity="0.48" filter="url(#glowr1x110)"/><circle cx="672.1" cy="556.7" r="3.0" fill="#00e5ff" fill-opacity="0.78" filter="url(#glowr1x110)"/><circle cx="562.4" cy="184.0" r="1.7" fill="#00e5ff" fill-opacity="0.44" filter="url(#glowr1x110)"/><circle cx="457.9" cy="420.8" r="4.2" fill="#00e5ff" fill-opacity="0.44" filter="url(#glowr1x110)"/><circle cx="689.4" cy="186.2" r="0.8" fill="#00e5ff" fill-opacity="0.75" filter="url(#glowr1x110)"/><circle cx="474.1" cy="523.4" r="2.6" fill="#00e5ff" fill-opacity="0.79" filter="url(#glowr1x110)"/><circle cx="316.2" cy="269.2" r="4.0" fill="#00e5ff" fill-opacity="0.66" filter="url(#glowr1x110)"/><path d="M675.7,396.4 Q697.8,655.0 373.8,885.3" stroke="#00e5ff" stroke-opacity="0.74" stroke-width="2.8" fill="none" filter="url(#glowr1x110)"/><path d="M475.5,335.1 Q443.4,569.2 464.6,786.8" stroke="#00e5ff" stroke-opacity="0.63" stroke-width="2.1" fill="none" filter="url(#glowr1x110)"/><path d="M706.4,245.1 Q712.1,488.2 413.5,783.4" stroke="#00e5ff" stroke-opacity="0.72" stroke-width="0.9" fill="none" filter="url(#glowr1x110)"/><path d="M528.4,368.8 Q514.4,516.2 395.7,618.8" stroke="#00e5ff" stroke-opacity="0.43" stroke-width="1.1" fill="none" filter="url(#glowr1x110)"/><path d="M340.3,276.8 Q332.2,491.7 582.9,685.9" stroke="#00e5ff" stroke-opacity="0.70" stroke-width="2.9" fill="none" filter="url(#glowr1x110)"/><polygon points="400.3,664.1 487.6,662.8 480.5,879.2 385.6,878.9" fill="url(#suitr1x110)" stroke="#4444ff" stroke-width="2.2" filter="url(#skr1x110) url(#metalr1x110)"/><polygon points="397.8,663.1 489.8,661.8 479.3,879.0 387.1,877.9" fill="url(#carbonr1x110)"/><polygon points="393.3,725.0 492.2,723.7 482.6,788.6 384.8,786.6" fill="url(#bevelr1x110)" fill-opacity=".5" stroke="#4444ff" stroke-width="1.4" filter="url(#skr1x110)"/><polygon points="509.2,664.1 601.5,662.7 610.9,878.1 521.0,878.7" fill="url(#suitr1x110)" stroke="#4444ff" stroke-width="2.2" filter="url(#skr1x110) url(#metalr1x110)"/><polygon points="511.3,664.0 602.7,663.0 610.8,876.7 519.0,878.7" fill="url(#carbonr1x110)"/><polygon points="505.9,723.4 608.4,723.5 615.3,786.8 516.0,789.6" fill="url(#bevelr1x110)" fill-opacity=".5" stroke="#4444ff" stroke-width="1.4" filter="url(#skr1x110)"/><rect x="391.2" y="840.3" width="100.3" height="24.7" fill="url(#bevelr1x110)" stroke="#4444ff" stroke-width="1" filter="url(#skr1x110)"/><rect x="508.8"  y="840.4" width="100.3" height="24.7" fill="url(#bevelr1x110)" stroke="#4444ff" stroke-width="1" filter="url(#skr1x110)"/><polygon points="370.2,879.1 496.4,876.3 503.4,922.4 363.3,921.3" fill="#141428" stroke="#4444ff" stroke-width="2" filter="url(#skr1x110)"/><polygon points="503.1,878.5 630.2,878.6 636.6,922.2 497.0,920.6" fill="#141428" stroke="#4444ff" stroke-width="2" filter="url(#skr1x110)"/><polygon points="305.4,632.3 697.5,632.4 636.4,683.6 361.4,681.9" fill="#4444ff" fill-opacity=".52" stroke="#4444ff" stroke-width="2" filter="url(#skr1x110)"/><rect x="464.0" y="638.1" width="72.0" height="42.0" fill="url(#bevelr1x110)" stroke="#4444ff" stroke-width="1.4" filter="url(#glowr1x110)"/><rect x="485.2" y="640.0" width="28.0" height="22.0" rx="1" fill="rgba(255,255,255,.48)"/><polygon points="151.3,466.2 235.3,467.2 259.1,733.4 127.7,735.5" fill="url(#suitr1x110)" stroke="#4444ff" stroke-width="2.2" filter="url(#skr1x110) url(#metalr1x110)"/><polygon points="172.6,431.5 253.2,432.0 241.4,510.6 159.8,511.8" fill="url(#bevelr1x110)" fill-opacity=".72" stroke="#4444ff" stroke-width="2.2" filter="url(#skr1x110)"/><polygon points="159.6,622.7 243.7,622.7 240.6,662.3 164.6,661.7" fill="#4444ff" fill-opacity=".42" stroke="#4444ff" stroke-width="1" filter="url(#skr1x110)"/><polygon points="764.2,467.3 847.2,468.3 871.1,734.6 740.3,736.5" fill="url(#suitr1x110)" stroke="#4444ff" stroke-width="2.2" filter="url(#skr1x110) url(#metalr1x110)"/><polygon points="746.3,431.2 828.0,430.7 838.9,510.3 756.1,512.2" fill="url(#bevelr1x110)" fill-opacity=".72" stroke="#4444ff" stroke-width="2.2" filter="url(#skr1x110)"/><polygon points="755.2,623.3 839.2,623.1 833.9,661.9 762.5,662.3" fill="#4444ff" fill-opacity=".42" stroke="#4444ff" stroke-width="1" filter="url(#skr1x110)"/><rect x="119.9"  y="700.2" width="135.3" height="85.0" rx="4" fill="url(#bevelr1x110)" stroke="#4444ff" stroke-width="1.8" filter="url(#skr1x110)"/><rect x="747.3"   y="698.4" width="135.3" height="85.0" rx="4" fill="url(#bevelr1x110)" stroke="#4444ff" stroke-width="1.8" filter="url(#skr1x110)"/><line x1="149.3" y1="702.9" x2="149.9" y2="784.4" stroke="#4444ff" stroke-opacity=".38" stroke-width="1"/><line x1="778.4" y1="701.9" x2="777.9" y2="785.5" stroke="#4444ff" stroke-opacity=".38" stroke-width="1"/><line x1="183.9" y1="703.5" x2="183.9" y2="783.1" stroke="#4444ff" stroke-opacity=".38" stroke-width="1"/><line x1="809.3" y1="702.0" x2="812.5" y2="783.1" stroke="#4444ff" stroke-opacity=".38" stroke-width="1"/><line x1="214.7" y1="702.1" x2="216.7" y2="784.0" stroke="#4444ff" stroke-opacity=".38" stroke-width="1"/><line x1="845.0" y1="700.3" x2="843.8" y2="783.6" stroke="#4444ff" stroke-opacity=".38" stroke-width="1"/><polygon points="236.7,419.2 765.3,416.4 721.2,661.3 276.6,661.8" fill="url(#suitr1x110)" stroke="#4444ff" stroke-width="2.6" filter="url(#skr1x110) url(#metalr1x110)"/><polygon points="235.3,418.9 765.9,418.5 722.0,664.2 278.4,661.1" fill="url(#carbonr1x110)"/><polygon points="365.9,416.1 632.1,416.3 612.0,516.6 389.5,516.6" fill="url(#suitHir1x110)"/><line x1="363.1" y1="472.5" x2="636.8" y2="470.3" stroke="#4444ff" stroke-opacity=".52" stroke-width="1.3" filter="url(#skr1x110)"/><line x1="399.5" y1="550.7" x2="599.9" y2="550.3" stroke="#4444ff" stroke-opacity=".52" stroke-width="1.3" filter="url(#skr1x110)"/><line x1="265.0" y1="492.4" x2="321.1" y2="490.5" stroke="#4444ff" stroke-opacity=".62" stroke-width="1.8"/><line x1="681.6" y1="489.7" x2="732.9" y2="490.8" stroke="#4444ff" stroke-opacity=".62" stroke-width="1.8"/><line x1="265.2" y1="524.5" x2="320.2" y2="521.5" stroke="#4444ff" stroke-opacity=".62" stroke-width="1.8"/><line x1="681.5" y1="523.8" x2="733.7" y2="521.3" stroke="#4444ff" stroke-opacity=".62" stroke-width="1.8"/><line x1="265.3" y1="553.8" x2="318.0" y2="556.0" stroke="#4444ff" stroke-opacity=".62" stroke-width="1.8"/><line x1="680.6" y1="555.0" x2="731.8" y2="555.5" stroke="#4444ff" stroke-opacity=".62" stroke-width="1.8"/><line x1="268.1" y1="586.2" x2="320.1" y2="587.7" stroke="#4444ff" stroke-opacity=".62" stroke-width="1.8"/><line x1="679.7" y1="585.9" x2="732.4" y2="586.2" stroke="#4444ff" stroke-opacity=".62" stroke-width="1.8"/><g filter="url(#glowr1x110)"><polygon points="463.0,530.8 462.9,498.2 481.9,467.9 500.4,497.5 517.9,469.3 536.2,496.5 536.3,530.7" fill="#4444ff" stroke="#1e0600" stroke-width="1.4" filter="url(#skr1x110)"/><polygon points="461.1,530.9 462.8,499.4 481.0,467.9 501.3,497.0 519.7,466.7 536.4,499.4 536.8,530.6" fill="url(#suitHir1x110)" opacity=".38"/></g><g><rect x="115.8" y="701.5" width="137.8" height="88.0" rx="5" fill="url(#bevelr1x110)" stroke="#4444ff" stroke-width="2" filter="url(#wmr1x110)"/><rect x="113.7" y="701.7" width="137.8" height="88.0" rx="5" fill="url(#carbonr1x110)"/><rect x="747.0"  y="701.8" width="137.8" height="88.0" rx="5" fill="url(#bevelr1x110)" stroke="#4444ff" stroke-width="2" filter="url(#wmr1x110)"/><rect x="747.4"  y="703.2" width="137.8" height="88.0" rx="5" fill="url(#carbonr1x110)"/><rect x="121.8" y="700.1" width="23.0" height="22.0" rx="2" fill="url(#knuckler1x110)" stroke="#4444ff" stroke-width=".8" filter="url(#wmr1x110)"/><rect x="755.3" y="698.8" width="23.0" height="22.0" rx="2" fill="url(#knuckler1x110)" stroke="#4444ff" stroke-width=".8" filter="url(#wmr1x110)"/><rect x="151.0" y="698.7" width="23.0" height="22.0" rx="2" fill="url(#knuckler1x110)" stroke="#4444ff" stroke-width=".8" filter="url(#wmr1x110)"/><rect x="786.3" y="699.7" width="23.0" height="22.0" rx="2" fill="url(#knuckler1x110)" stroke="#4444ff" stroke-width=".8" filter="url(#wmr1x110)"/><rect x="179.1" y="698.7" width="23.0" height="22.0" rx="2" fill="url(#knuckler1x110)" stroke="#4444ff" stroke-width=".8" filter="url(#wmr1x110)"/><rect x="815.4" y="699.0" width="23.0" height="22.0" rx="2" fill="url(#knuckler1x110)" stroke="#4444ff" stroke-width=".8" filter="url(#wmr1x110)"/><rect x="209.6" y="699.7" width="23.0" height="22.0" rx="2" fill="url(#knuckler1x110)" stroke="#4444ff" stroke-width=".8" filter="url(#wmr1x110)"/><rect x="844.3" y="698.5" width="23.0" height="22.0" rx="2" fill="url(#knuckler1x110)" stroke="#4444ff" stroke-width=".8" filter="url(#wmr1x110)"/><ellipse cx="183.56608432767914" cy="709.2328576900809" rx="45.1" ry="30.0" fill="#4444ff" fill-opacity=".25" filter="url(#glowr1x110)"/><ellipse cx="817.1301302203163" cy="709.4179270066134" rx="45.1" ry="30.0" fill="#4444ff" fill-opacity=".25" filter="url(#glowr1x110)"/></g><rect x="449.0656807878055" y="557.2438061751425" width="100.0"  height="56.0" fill="#141428" stroke="#4444ff" stroke-width="2.2" filter="url(#skr1x110)"/><rect x="425.74494132911786" y="575.1904257917777" width="152.0" height="26.0" fill="url(#bevelr1x110)" fill-opacity=".65" stroke="#4444ff" stroke-width="1.2" filter="url(#skr1x110)"/><polygon points="306.8,379.7 350.0,293.9 498.7,277.9 651.1,293.4 690.5,382.0 669.6,502.9 500.5,566.5 330.8,502.4" fill="url(#suitr1x110)" stroke="#4444ff" stroke-width="2.8" filter="url(#skr1x110) url(#metalr1x110)"/><polygon points="306.8,379.8 351.0,293.6 499.5,278.5 649.1,295.7 692.0,381.8 669.1,505.1 498.4,566.8 332.5,505.2" fill="url(#carbonr1x110)"/><polygon points="381.9,304.3 499.2,284.9 619.2,303.1 605.8,380.6 391.2,378.9" fill="url(#suitHir1x110)"/><polygon points="380.4,380.1 367.0,427.2 433.9,503.7 501.2,526.9 567.2,502.7 633.3,425.9 620.4,382.1" fill="#1e0600" fill-opacity=".88" stroke="#4444ff" stroke-width="1.8" filter="url(#skr1x110)"/><polygon points="382.7,411.6 478.2,412.6 485.4,440.6 389.9,441.1" fill="#4444ff" filter="url(#glowr1x110)"/><polygon points="524.2,411.3 619.8,410.4 611.5,441.6 514.7,440.5" fill="#4444ff" filter="url(#glowr1x110)"/><ellipse cx="430.9" cy="425.7" rx="38.4"  ry="8.2" fill="#ffffff" opacity=".88"/><ellipse cx="569.1" cy="425.7" rx="38.4"  ry="8.2" fill="#ffffff" opacity=".88"/><line x1="486.3617997795902" y1="411.98408650970083" x2="514.0199425146357" y2="412.78347349008544" stroke="#4444ff" stroke-opacity=".52" stroke-width="2"/><line x1="483.60949776411053" y1="439.67713425792755" x2="514.547474271562" y2="436.69006879711526" stroke="#4444ff" stroke-opacity=".52" stroke-width="2"/><line x1="501.528664369043" y1="452.66372584039345" x2="501.022205206193" y2="483.06123935226356" stroke="#4444ff" stroke-opacity=".58" stroke-width="2.2" filter="url(#skr1x110)"/><line x1="454.36426754349844" y1="489.65093062957743" x2="453.0255853121914" y2="519.278995840624" stroke="#4444ff" stroke-opacity=".52" stroke-width="1.5" filter="url(#skr1x110)"/><line x1="477.39733312711115" y1="492.89365352066227" x2="478.41572769632563" y2="519.4771407500841" stroke="#4444ff" stroke-opacity=".52" stroke-width="1.5" filter="url(#skr1x110)"/><line x1="500.81113234432416" y1="491.53101676562795" x2="498.3757630621083" y2="521.26699862713" stroke="#4444ff" stroke-opacity=".52" stroke-width="1.5" filter="url(#skr1x110)"/><line x1="523.930293410793" y1="491.51374137653033" x2="521.7497161466256" y2="518.725305810105" stroke="#4444ff" stroke-opacity=".52" stroke-width="1.5" filter="url(#skr1x110)"/><line x1="545.3046919324622" y1="490.05085143446917" x2="546.0154253695347" y2="521.0305583435111" stroke="#4444ff" stroke-opacity=".52" stroke-width="1.5" filter="url(#skr1x110)"/><polygon points="431.0,502.8 568.4,503.0 553.0,557.6 445.6,556.5" fill="#141428" fill-opacity=".72" stroke="#4444ff" stroke-width="1.3" filter="url(#skr1x110)"/><text x="30.0"  y="975.0" font-family="monospace" font-weight="bold" font-size="22.0" fill="rgba(255,255,255,.22)">#0001</text><text x="500.0"   y="975.0" text-anchor="middle" font-family="monospace" font-weight="bold" font-size="22.0" fill="#4444ff" fill-opacity=".48">OBSIDIAN RANGER</text><text x="970.0" y="975.0" text-anchor="end"    font-family="monospace" font-weight="bold" font-size="22.0" fill="#4444ff" fill-opacity=".32">MECH RANGERS</text></svg>