<svg xmlns="http://www.w3.org/2000/svg" viewBox="0 0 1000 1000" width="1000" height="1000" shape-rendering="geometricPrecision"><defs>

  <!-- Scene gradients -->
  <radialGradient id="bgr1x1161" cx="50%" cy="42%" r="72%">
    <stop offset="0%"   stop-color="#0e000e"/>
    <stop offset="100%" stop-color="#1e0600"/>
  </radialGradient>
  <linearGradient id="suitr1x1161" x1="8%" y1="0%" x2="92%" y2="100%">
    <stop offset="0%"   stop-color="#ffd700" stop-opacity=".95"/>
    <stop offset="45%"  stop-color="#503400"/>
    <stop offset="100%" stop-color="#1e0600"/>
  </linearGradient>
  <linearGradient id="suitHir1x1161" x1="0%" y1="0%" x2="0%" y2="100%">
    <stop offset="0%"   stop-color="rgba(255,255,255,.28)"/>
    <stop offset="60%"  stop-color="rgba(255,255,255,.04)"/>
    <stop offset="100%" stop-color="rgba(255,255,255,0)"/>
  </linearGradient>
  <!-- Bevel: bright top, dark bottom for armour panels -->
  <linearGradient id="bevelr1x1161" x1="0%" y1="0%" x2="0%" y2="100%">
    <stop offset="0%"   stop-color="rgba(255,255,255,.55)"/>
    <stop offset="30%"  stop-color="#ffd700"/>
    <stop offset="70%"  stop-color="#503400"/>
    <stop offset="100%" stop-color="rgba(0,0,0,.5)"/>
  </linearGradient>

  <!-- Weapon: cold steel blade sweep -->
  <linearGradient id="blader1x1161" x1="0%" y1="0%" x2="100%" y2="0%">
    <stop offset="0%"   stop-color="#0e0e20"/>
    <stop offset="16%"  stop-color="#3e3e58"/>
    <stop offset="34%"  stop-color="#c8c8e0"/>
    <stop offset="50%"  stop-color="#f5f5ff"/>
    <stop offset="66%"  stop-color="#b8b8d0"/>
    <stop offset="84%"  stop-color="#2e2e48"/>
    <stop offset="100%" stop-color="#08080e"/>
  </linearGradient>
  <!-- Blade tip brightening -->
  <linearGradient id="bladeTipr1x1161" x1="0%" y1="100%" x2="0%" y2="0%">
    <stop offset="0%"   stop-color="rgba(255,255,255,0)"/>
    <stop offset="55%"  stop-color="rgba(255,255,255,.1)"/>
    <stop offset="100%" stop-color="rgba(255,255,255,.55)"/>
  </linearGradient>
  <!-- Gunmetal anodised — blaster body -->
  <linearGradient id="gunmetalr1x1161" x1="0%" y1="0%" x2="0%" y2="100%">
    <stop offset="0%"   stop-color="#46465e"/>
    <stop offset="18%"  stop-color="#828296"/>
    <stop offset="42%"  stop-color="#26263a"/>
    <stop offset="72%"  stop-color="#16162a"/>
    <stop offset="100%" stop-color="#0c0c18"/>
  </linearGradient>
  <!-- Brushed steel tube — barrel/rod -->
  <linearGradient id="barrelr1x1161" x1="0%" y1="0%" x2="100%" y2="0%">
    <stop offset="0%"   stop-color="#0a0a14"/>
    <stop offset="24%"  stop-color="#585875"/>
    <stop offset="50%"  stop-color="#a8a8c8"/>
    <stop offset="76%"  stop-color="#383852"/>
    <stop offset="100%" stop-color="#0a0a14"/>
  </linearGradient>
  <!-- Chrome rod — lance shaft -->
  <linearGradient id="chromer1x1161" x1="0%" y1="0%" x2="100%" y2="0%">
    <stop offset="0%"   stop-color="#0c0c18"/>
    <stop offset="20%"  stop-color="#686888"/>
    <stop offset="44%"  stop-color="#e0e0f0"/>
    <stop offset="56%"  stop-color="#c0c0d8"/>
    <stop offset="80%"  stop-color="#28283e"/>
    <stop offset="100%" stop-color="#0c0c18"/>
  </linearGradient>
  <!-- Titanium plate — shield face -->
  <linearGradient id="titaniumr1x1161" x1="0%" y1="0%" x2="100%" y2="100%">
    <stop offset="0%"   stop-color="#585878"/>
    <stop offset="28%"  stop-color="#ffd700" stop-opacity=".88"/>
    <stop offset="55%"  stop-color="#503400"/>
    <stop offset="80%"  stop-color="#181828"/>
    <stop offset="100%" stop-color="#0a0a18"/>
  </linearGradient>
  <!-- Artillery black-chrome — cannon body -->
  <linearGradient id="artilleryr1x1161" x1="0%" y1="0%" x2="0%" y2="100%">
    <stop offset="0%"   stop-color="#383850"/>
    <stop offset="14%"  stop-color="#78789a"/>
    <stop offset="36%"  stop-color="#202034"/>
    <stop offset="65%"  stop-color="#14141e"/>
    <stop offset="100%" stop-color="#0a0a12"/>
  </linearGradient>
  <!-- Energy orb — staff -->
  <radialGradient id="orbr1x1161" cx="35%" cy="35%" r="65%">
    <stop offset="0%"   stop-color="rgba(255,255,255,.9)"/>
    <stop offset="30%"  stop-color="#ffd700"/>
    <stop offset="68%"  stop-color="#503400"/>
    <stop offset="100%" stop-color="rgba(0,0,0,.6)"/>
  </radialGradient>
  <!-- Knuckle plate chrome -->
  <linearGradient id="knuckler1x1161" x1="0%" y1="0%" x2="0%" y2="100%">
    <stop offset="0%"   stop-color="#888aaa"/>
    <stop offset="32%"  stop-color="#ffd700" stop-opacity=".8"/>
    <stop offset="62%"  stop-color="#1a1a2c"/>
    <stop offset="100%" stop-color="#0a0a14"/>
  </linearGradient>

  <!-- Carbon fibre weave texture overlay -->
  <pattern id="carbonr1x1161" width="6" height="6" patternUnits="userSpaceOnUse">
    <rect width="6" height="6" fill="rgba(0,0,0,.08)"/>
    <rect x="0" y="0" width="3" height="3" fill="rgba(255,255,255,.022)"/>
    <rect x="3" y="3" width="3" height="3" fill="rgba(255,255,255,.022)"/>
    <line x1="0" y1="0" x2="3" y2="3" stroke="rgba(255,255,255,.038)" stroke-width=".5"/>
    <line x1="3" y1="0" x2="6" y2="3" stroke="rgba(0,0,0,.055)"       stroke-width=".5"/>
    <line x1="0" y1="3" x2="3" y2="6" stroke="rgba(0,0,0,.055)"       stroke-width=".5"/>
    <line x1="3" y1="3" x2="6" y2="6" stroke="rgba(255,255,255,.038)" stroke-width=".5"/>
  </pattern>

  <!-- Specular metal sheen on armour panels -->
  <filter id="metalr1x1161" x="-5%" y="-5%" width="110%" height="110%">
    <feSpecularLighting surfaceScale="4" specularConstant="1.8"
        specularExponent="42" lighting-color="#ffffff" result="spec">
      <feDistantLight elevation="52" azimuth="38"/>
    </feSpecularLighting>
    <feComposite in="spec" in2="SourceGraphic" operator="in" result="sm"/>
    <feComposite in="SourceGraphic" in2="sm" operator="arithmetic" k1="0" k2="1" k3="0.55" k4="0"/>
  </filter>

  <!-- Sharper specular for weapons — heavier glare -->
  <filter id="wmr1x1161" x="-8%" y="-8%" width="116%" height="116%">
    <feSpecularLighting surfaceScale="6" specularConstant="2.4"
        specularExponent="65" lighting-color="#ffffff" result="spec">
      <feDistantLight elevation="44" azimuth="28"/>
    </feSpecularLighting>
    <feComposite in="spec" in2="SourceGraphic" operator="in" result="sm"/>
    <feComposite in="SourceGraphic" in2="sm" operator="arithmetic" k1="0" k2="1" k3="0.78" k4="0"/>
  </filter>

  <!-- Sketch wobble -->
  <filter id="skr1x1161" x="-8%" y="-8%" width="116%" height="116%">
    <feTurbulence type="fractalNoise" baseFrequency="0.038"
        numOctaves="3" seed="56" result="noise"/>
    <feDisplacementMap in="SourceGraphic" in2="noise" scale="2.6"
        xChannelSelector="R" yChannelSelector="G" result="w"/>
    <feComposite in="w" in2="SourceGraphic" operator="atop"/>
  </filter>

  <!-- Glow: sharp accent -->
  <filter id="glowr1x1161" x="-20%" y="-20%" width="140%" height="140%">
    <feGaussianBlur stdDeviation="3.5" result="b"/>
    <feColorMatrix in="b" type="matrix"
        values="0 0 0 0 1  0 0 0 0 1  0 0 0 0 1  0 0 0 1.8 0" result="boost"/>
    <feMerge><feMergeNode in="boost"/><feMergeNode in="SourceGraphic"/></feMerge>
  </filter>

  <!-- Bloom: wide soft -->
  <filter id="bloomr1x1161" x="-40%" y="-40%" width="180%" height="180%">
    <feGaussianBlur stdDeviation="11" result="b"/>
    <feMerge><feMergeNode in="b"/><feMergeNode in="SourceGraphic"/></feMerge>
  </filter>

  </defs><rect width="1000" height="1000" fill="url(#bgr1x1161)"/><ellipse cx="500.0" cy="1000" rx="850.0" ry="350.0" fill="#ff4500" fill-opacity=".11" filter="url(#bloomr1x1161)"/><ellipse cx="500.0" cy="892.0" rx="350.0" ry="65.0" fill="rgba(0,0,0,.7)" filter="url(#bloomr1x1161)"/><ellipse cx="500.0" cy="889.0" rx="220.0" ry="34.0" fill="rgba(0,0,0,.45)"/><ellipse cx="500.0" cy="520.0" rx="320.0" ry="480.0" fill="#00e5ff" fill-opacity=".042" filter="url(#bloomr1x1161)"/><circle cx="494.5" cy="288.7" r="0.9" fill="#00e5ff" fill-opacity="0.66" filter="url(#glowr1x1161)"/><circle cx="734.5" cy="507.8" r="1.0" fill="#00e5ff" fill-opacity="0.62" filter="url(#glowr1x1161)"/><circle cx="306.0" cy="521.1" r="1.7" fill="#00e5ff" fill-opacity="0.60" filter="url(#glowr1x1161)"/><circle cx="708.5" cy="448.0" r="3.1" fill="#00e5ff" fill-opacity="0.68" filter="url(#glowr1x1161)"/><circle cx="567.6" cy="274.7" r="3.7" fill="#00e5ff" fill-opacity="0.85" filter="url(#glowr1x1161)"/><circle cx="564.9" cy="442.2" r="2.6" fill="#00e5ff" fill-opacity="0.55" filter="url(#glowr1x1161)"/><circle cx="731.3" cy="646.7" r="3.4" fill="#00e5ff" fill-opacity="0.46" filter="url(#glowr1x1161)"/><circle cx="694.6" cy="776.2" r="2.1" fill="#00e5ff" fill-opacity="0.43" filter="url(#glowr1x1161)"/><circle cx="339.6" cy="430.5" r="4.0" fill="#00e5ff" fill-opacity="0.59" filter="url(#glowr1x1161)"/><circle cx="262.3" cy="764.9" r="2.9" fill="#00e5ff" fill-opacity="0.73" filter="url(#glowr1x1161)"/><circle cx="412.4" cy="740.7" r="1.1" fill="#00e5ff" fill-opacity="0.64" filter="url(#glowr1x1161)"/><circle cx="618.1" cy="661.0" r="3.2" fill="#00e5ff" fill-opacity="0.51" filter="url(#glowr1x1161)"/><circle cx="278.8" cy="765.5" r="2.8" fill="#00e5ff" fill-opacity="0.72" filter="url(#glowr1x1161)"/><circle cx="334.2" cy="381.7" r="0.6" fill="#00e5ff" fill-opacity="0.85" filter="url(#glowr1x1161)"/><path d="M702.8,193.9 Q704.2,391.1 325.8,610.6" stroke="#00e5ff" stroke-opacity="0.58" stroke-width="1.2" fill="none" filter="url(#glowr1x1161)"/><path d="M508.3,288.7 Q466.4,506.6 295.9,711.7" stroke="#00e5ff" stroke-opacity="0.76" stroke-width="2.4" fill="none" filter="url(#glowr1x1161)"/><path d="M376.5,291.2 Q357.4,466.7 620.4,622.6" stroke="#00e5ff" stroke-opacity="0.77" stroke-width="2.4" fill="none" filter="url(#glowr1x1161)"/><path d="M636.0,256.7 Q626.2,454.9 538.6,667.1" stroke="#00e5ff" stroke-opacity="0.70" stroke-width="2.0" fill="none" filter="url(#glowr1x1161)"/><path d="M307.6,347.6 Q308.1,479.1 576.7,612.9" stroke="#00e5ff" stroke-opacity="0.46" stroke-width="0.8" fill="none" filter="url(#glowr1x1161)"/><polygon points="399.5,660.8 490.6,660.8 478.9,878.2 386.8,876.3" fill="url(#suitr1x1161)" stroke="#ffd700" stroke-width="2.2" filter="url(#skr1x1161) url(#metalr1x1161)"/><polygon points="398.4,663.2 489.5,663.6 479.9,876.5 386.1,878.1" fill="url(#carbonr1x1161)"/><polygon points="392.3,725.1 492.8,724.7 482.6,786.9 384.8,788.5" fill="url(#bevelr1x1161)" fill-opacity=".5" stroke="#ffd700" stroke-width="1.4" filter="url(#skr1x1161)"/><polygon points="508.9,664.0 600.9,662.9 611.9,877.7 520.8,878.3" fill="url(#suitr1x1161)" stroke="#ffd700" stroke-width="2.2" filter="url(#skr1x1161) url(#metalr1x1161)"/><polygon points="509.3,662.0 600.7,661.8 610.8,877.9 517.8,877.7" fill="url(#carbonr1x1161)"/><polygon points="505.3,722.9 608.9,722.3 617.4,788.6 515.8,788.6" fill="url(#bevelr1x1161)" fill-opacity=".5" stroke="#ffd700" stroke-width="1.4" filter="url(#skr1x1161)"/><rect x="393.7" y="837.2" width="100.3" height="24.7" fill="url(#bevelr1x1161)" stroke="#ffd700" stroke-width="1" filter="url(#skr1x1161)"/><rect x="508.2"  y="840.1" width="100.3" height="24.7" fill="url(#bevelr1x1161)" stroke="#ffd700" stroke-width="1" filter="url(#skr1x1161)"/><polygon points="369.5,875.9 494.8,876.8 502.4,921.9 362.5,923.3" fill="#503400" stroke="#ffd700" stroke-width="2" filter="url(#skr1x1161)"/><polygon points="503.5,877.5 631.4,878.4 636.4,923.0 495.4,921.4" fill="#503400" stroke="#ffd700" stroke-width="2" filter="url(#skr1x1161)"/><polygon points="302.5,631.8 695.3,632.8 636.4,680.3 361.5,682.7" fill="#ffd700" fill-opacity=".52" stroke="#ffd700" stroke-width="2" filter="url(#skr1x1161)"/><rect x="464.1" y="639.0" width="72.0" height="42.0" fill="url(#bevelr1x1161)" stroke="#ffd700" stroke-width="1.4" filter="url(#glowr1x1161)"/><rect x="484.7" y="639.0" width="28.0" height="22.0" rx="1" fill="rgba(255,255,255,.48)"/><polygon points="152.3,465.3 235.2,467.2 257.4,733.3 128.7,733.3" fill="url(#suitr1x1161)" stroke="#ffd700" stroke-width="2.2" filter="url(#skr1x1161) url(#metalr1x1161)"/><polygon points="172.2,433.0 253.7,430.6 244.8,509.6 158.7,512.3" fill="url(#bevelr1x1161)" fill-opacity=".72" stroke="#ffd700" stroke-width="2.2" filter="url(#skr1x1161)"/><polygon points="159.6,620.5 242.0,622.9 240.3,659.8 163.9,659.4" fill="#ffd700" fill-opacity=".42" stroke="#ffd700" stroke-width="1" filter="url(#skr1x1161)"/><polygon points="766.6,468.0 847.3,467.0 870.8,735.3 743.7,736.5" fill="url(#suitr1x1161)" stroke="#ffd700" stroke-width="2.2" filter="url(#skr1x1161) url(#metalr1x1161)"/><polygon points="747.7,431.6 827.8,430.6 841.2,510.8 755.5,509.2" fill="url(#bevelr1x1161)" fill-opacity=".72" stroke="#ffd700" stroke-width="2.2" filter="url(#skr1x1161)"/><polygon points="758.5,622.4 837.0,621.4 835.6,661.6 760.8,661.4" fill="#ffd700" fill-opacity=".42" stroke="#ffd700" stroke-width="1" filter="url(#skr1x1161)"/><rect x="121.0"  y="701.2" width="135.3" height="85.0" rx="4" fill="url(#bevelr1x1161)" stroke="#ffd700" stroke-width="1.8" filter="url(#skr1x1161)"/><rect x="748.7"   y="701.0" width="135.3" height="85.0" rx="4" fill="url(#bevelr1x1161)" stroke="#ffd700" stroke-width="1.8" filter="url(#skr1x1161)"/><line x1="151.2" y1="700.6" x2="148.6" y2="784.9" stroke="#ffd700" stroke-opacity=".38" stroke-width="1"/><line x1="777.4" y1="703.3" x2="777.6" y2="783.5" stroke="#ffd700" stroke-opacity=".38" stroke-width="1"/><line x1="181.3" y1="703.0" x2="181.6" y2="784.4" stroke="#ffd700" stroke-opacity=".38" stroke-width="1"/><line x1="811.1" y1="702.4" x2="811.8" y2="784.4" stroke="#ffd700" stroke-opacity=".38" stroke-width="1"/><line x1="213.5" y1="700.2" x2="214.0" y2="783.7" stroke="#ffd700" stroke-opacity=".38" stroke-width="1"/><line x1="843.0" y1="702.4" x2="842.6" y2="783.0" stroke="#ffd700" stroke-opacity=".38" stroke-width="1"/><polygon points="236.8,415.9 764.9,416.6 724.3,662.0 275.6,662.0" fill="url(#suitr1x1161)" stroke="#ffd700" stroke-width="2.6" filter="url(#skr1x1161) url(#metalr1x1161)"/><polygon points="236.6,418.8 764.7,416.3 722.8,662.9 278.0,663.1" fill="url(#carbonr1x1161)"/><polygon points="366.4,418.9 633.1,418.8 611.0,514.3 390.4,516.4" fill="url(#suitHir1x1161)"/><line x1="361.2" y1="471.2" x2="636.8" y2="471.9" stroke="#ffd700" stroke-opacity=".52" stroke-width="1.3" filter="url(#skr1x1161)"/><line x1="398.2" y1="549.0" x2="600.3" y2="548.3" stroke="#ffd700" stroke-opacity=".52" stroke-width="1.3" filter="url(#skr1x1161)"/><line x1="265.3" y1="490.0" x2="320.7" y2="490.2" stroke="#ffd700" stroke-opacity=".62" stroke-width="1.8"/><line x1="680.8" y1="490.6" x2="733.8" y2="492.4" stroke="#ffd700" stroke-opacity=".62" stroke-width="1.8"/><line x1="268.2" y1="521.8" x2="318.3" y2="524.1" stroke="#ffd700" stroke-opacity=".62" stroke-width="1.8"/><line x1="679.2" y1="524.3" x2="734.2" y2="523.5" stroke="#ffd700" stroke-opacity=".62" stroke-width="1.8"/><line x1="267.4" y1="553.3" x2="321.0" y2="554.0" stroke="#ffd700" stroke-opacity=".62" stroke-width="1.8"/><line x1="679.4" y1="554.1" x2="733.1" y2="554.0" stroke="#ffd700" stroke-opacity=".62" stroke-width="1.8"/><line x1="265.9" y1="585.4" x2="321.6" y2="587.8" stroke="#ffd700" stroke-opacity=".62" stroke-width="1.8"/><line x1="678.6" y1="588.0" x2="733.4" y2="587.5" stroke="#ffd700" stroke-opacity=".62" stroke-width="1.8"/><g filter="url(#glowr1x1161)"><polygon points="484.0,453.8 514.0,506.0 499.5,505.4 516.8,568.6 488.8,513.7 498.3,515.5" fill="#ffd700" stroke="#1e0600" stroke-width="1.4" filter="url(#skr1x1161)"/><polygon points="481.9,453.5 511.2,505.7 500.7,506.0 516.1,568.7 488.0,516.3 499.4,515.2" fill="url(#suitHir1x1161)" opacity=".4"/></g><g><polygon points="76.2,671.4 128.2,671.4 112.6,-28.6 91.8,-28.6" fill="url(#blader1x1161)" filter="url(#wmr1x1161)"/><polygon points="91.8,-28.6 112.6,-28.6 102.2,-138.6" fill="url(#blader1x1161)" filter="url(#wmr1x1161)"/><polygon points="100.3,671.4 104.0,671.4 102.7,-128.6 101.6,-128.6" fill="url(#bladeTipr1x1161)" opacity=".9"/><line x1="112.64048452794549" y1="672.1048333391547" x2="103.07470369711515" y2="-129.39029077393937" stroke="rgba(255,255,255,.68)" stroke-width="1.5"/><line x1="93.92671568421643" y1="672.6675072384998" x2="102.37766435284163" y2="-129.43230350036177" stroke="#ffd700" stroke-width="1" stroke-opacity=".45"/><line x1="106.8" y1="651.4" x2="104.0" y2="11.4" stroke="rgba(0,0,0,.38)" stroke-width="1.6"/><line x1="97.5" y1="651.4" x2="100.3" y2="11.4" stroke="rgba(0,0,0,.38)" stroke-width="1.6"/><rect x="45.498243928365376" y="667.7305708501488" width="112.0" height="28.0" rx="3" fill="url(#bevelr1x1161)" stroke="#ffd700" stroke-width="1.6" filter="url(#wmr1x1161)"/><rect x="71.48616651095446" y="674.0170313720591" width="64.0" height="10.0" rx="1" fill="rgba(255,255,255,.32)"/><rect x="88.74439971543845" y="678.9034612795338" width="24.0" height="6.0" rx="1" fill="#ffd700" fill-opacity=".35"/><rect x="89.14633833862838" y="687.1006798830814" width="24.0" height="6.0" rx="1" fill="#ffd700" fill-opacity=".35"/><rect x="90.63904704371464" y="694.7082877212204" width="24.0" height="6.0" rx="1" fill="#ffd700" fill-opacity=".35"/><rect x="91.76384804140773" y="702.0876621999778" width="24.0" height="6.0" rx="1" fill="#ffd700" fill-opacity=".35"/><rect x="90.00448089450595" y="709.4089852250181" width="24.0" height="6.0" rx="1" fill="#ffd700" fill-opacity=".35"/><rect x="90.80912051521238" y="719.0362765443512" width="24.0" height="6.0" rx="1" fill="#ffd700" fill-opacity=".35"/><ellipse cx="100.50878419768063" cy="727.9104104732163" rx="22.0" ry="16.0" fill="url(#bevelr1x1161)" stroke="#ffd700" stroke-width="1.2" filter="url(#wmr1x1161)"/></g><rect x="448.99141675438733" y="558.4271459470502" width="100.0"  height="56.0" fill="#503400" stroke="#ffd700" stroke-width="2.2" filter="url(#skr1x1161)"/><rect x="423.02533861994743" y="574.0729694593698" width="152.0" height="26.0" fill="url(#bevelr1x1161)" fill-opacity=".65" stroke="#ffd700" stroke-width="1.2" filter="url(#skr1x1161)"/><polygon points="309.6,378.9 350.8,293.5 500.4,276.3 649.8,293.2 692.7,381.6 667.3,502.4 499.6,566.5 331.2,504.5" fill="url(#suitr1x1161)" stroke="#ffd700" stroke-width="2.8" filter="url(#skr1x1161) url(#metalr1x1161)"/><polygon points="307.6,379.0 350.0,294.3 499.7,279.1 649.8,293.8 691.0,380.9 669.9,503.1 501.7,563.5 332.0,502.0" fill="url(#carbonr1x1161)"/><polygon points="381.1,303.0 500.4,284.5 618.4,302.5 607.4,380.4 393.5,379.8" fill="url(#suitHir1x1161)"/><polygon points="380.1,379.8 363.8,425.7 434.1,503.3 500.7,527.4 566.7,505.0 634.6,426.9 620.8,381.6" fill="#1e0600" fill-opacity=".88" stroke="#ffd700" stroke-width="1.8" filter="url(#skr1x1161)"/><polygon points="381.8,410.6 477.3,410.1 485.6,438.6 388.9,439.5" fill="#ffd700" filter="url(#glowr1x1161)"/><polygon points="524.4,411.6 619.9,410.4 612.4,440.2 515.6,441.1" fill="#ffd700" filter="url(#glowr1x1161)"/><ellipse cx="430.9" cy="425.7" rx="38.4"  ry="8.2" fill="#ffffff" opacity=".88"/><ellipse cx="569.1" cy="425.7" rx="38.4"  ry="8.2" fill="#ffffff" opacity=".88"/><line x1="484.52879128582777" y1="413.59041999746114" x2="515.43725094473" y2="414.7307017936371" stroke="#ffd700" stroke-opacity=".52" stroke-width="2"/><line x1="485.0909280929342" y1="436.79453013623134" x2="516.6719156008586" y2="439.42697160523386" stroke="#ffd700" stroke-opacity=".52" stroke-width="2"/><line x1="500.16611532643435" y1="455.62032441422343" x2="500.61446386016905" y2="481.3877186803147" stroke="#ffd700" stroke-opacity=".58" stroke-width="2.2" filter="url(#skr1x1161)"/><line x1="452.5812530687824" y1="492.40174319343635" x2="453.6256160463952" y2="520.1229185396805" stroke="#ffd700" stroke-opacity=".52" stroke-width="1.5" filter="url(#skr1x1161)"/><line x1="477.1514956504479" y1="492.0557370419614" x2="477.595768296849" y2="520.2022051469423" stroke="#ffd700" stroke-opacity=".52" stroke-width="1.5" filter="url(#skr1x1161)"/><line x1="499.1338379685767" y1="489.6979558061808" x2="498.3448110255413" y2="518.4870090321638" stroke="#ffd700" stroke-opacity=".52" stroke-width="1.5" filter="url(#skr1x1161)"/><line x1="524.386043618489" y1="490.19980091825124" x2="523.3298270363919" y2="518.381561506819" stroke="#ffd700" stroke-opacity=".52" stroke-width="1.5" filter="url(#skr1x1161)"/><line x1="545.4225126992167" y1="491.57264755722133" x2="544.3556447013468" y2="521.0693431579508" stroke="#ffd700" stroke-opacity=".52" stroke-width="1.5" filter="url(#skr1x1161)"/><polygon points="431.5,502.6 566.4,505.3 552.8,557.5 445.6,557.6" fill="#503400" fill-opacity=".72" stroke="#ffd700" stroke-width="1.3" filter="url(#skr1x1161)"/><text x="30.0"  y="975.0" font-family="monospace" font-weight="bold" font-size="22.0" fill="rgba(255,255,255,.22)">#0001</text><text x="500.0"   y="975.0" text-anchor="middle" font-family="monospace" font-weight="bold" font-size="22.0" fill="#ffd700" fill-opacity=".48">IMPERIAL RANGER</text><text x="970.0" y="975.0" text-anchor="end"    font-family="monospace" font-weight="bold" font-size="22.0" fill="#ffd700" fill-opacity=".32">MECH RANGERS</text></svg>