<svg xmlns="http://www.w3.org/2000/svg" viewBox="0 0 1000 1000" width="1000" height="1000" shape-rendering="geometricPrecision"><defs>

  <!-- Scene gradients -->
  <radialGradient id="bgr1x1195" cx="50%" cy="42%" r="72%">
    <stop offset="0%"   stop-color="#1e0a2e"/>
    <stop offset="100%" stop-color="#0a0520"/>
  </radialGradient>
  <linearGradient id="suitr1x1195" x1="8%" y1="0%" x2="92%" y2="100%">
    <stop offset="0%"   stop-color="#2060ff" stop-opacity=".95"/>
    <stop offset="45%"  stop-color="#003ccc"/>
    <stop offset="100%" stop-color="#0a0520"/>
  </linearGradient>
  <linearGradient id="suitHir1x1195" x1="0%" y1="0%" x2="0%" y2="100%">
    <stop offset="0%"   stop-color="rgba(255,255,255,.28)"/>
    <stop offset="60%"  stop-color="rgba(255,255,255,.04)"/>
    <stop offset="100%" stop-color="rgba(255,255,255,0)"/>
  </linearGradient>
  <!-- Bevel: bright top, dark bottom for armour panels -->
  <linearGradient id="bevelr1x1195" x1="0%" y1="0%" x2="0%" y2="100%">
    <stop offset="0%"   stop-color="rgba(255,255,255,.55)"/>
    <stop offset="30%"  stop-color="#2060ff"/>
    <stop offset="70%"  stop-color="#003ccc"/>
    <stop offset="100%" stop-color="rgba(0,0,0,.5)"/>
  </linearGradient>

  <!-- Weapon: cold steel blade sweep -->
  <linearGradient id="blader1x1195" x1="0%" y1="0%" x2="100%" y2="0%">
    <stop offset="0%"   stop-color="#0e0e20"/>
    <stop offset="16%"  stop-color="#3e3e58"/>
    <stop offset="34%"  stop-color="#c8c8e0"/>
    <stop offset="50%"  stop-color="#f5f5ff"/>
    <stop offset="66%"  stop-color="#b8b8d0"/>
    <stop offset="84%"  stop-color="#2e2e48"/>
    <stop offset="100%" stop-color="#08080e"/>
  </linearGradient>
  <!-- Blade tip brightening -->
  <linearGradient id="bladeTipr1x1195" x1="0%" y1="100%" x2="0%" y2="0%">
    <stop offset="0%"   stop-color="rgba(255,255,255,0)"/>
    <stop offset="55%"  stop-color="rgba(255,255,255,.1)"/>
    <stop offset="100%" stop-color="rgba(255,255,255,.55)"/>
  </linearGradient>
  <!-- Gunmetal anodised — blaster body -->
  <linearGradient id="gunmetalr1x1195" x1="0%" y1="0%" x2="0%" y2="100%">
    <stop offset="0%"   stop-color="#46465e"/>
    <stop offset="18%"  stop-color="#828296"/>
    <stop offset="42%"  stop-color="#26263a"/>
    <stop offset="72%"  stop-color="#16162a"/>
    <stop offset="100%" stop-color="#0c0c18"/>
  </linearGradient>
  <!-- Brushed steel tube — barrel/rod -->
  <linearGradient id="barrelr1x1195" x1="0%" y1="0%" x2="100%" y2="0%">
    <stop offset="0%"   stop-color="#0a0a14"/>
    <stop offset="24%"  stop-color="#585875"/>
    <stop offset="50%"  stop-color="#a8a8c8"/>
    <stop offset="76%"  stop-color="#383852"/>
    <stop offset="100%" stop-color="#0a0a14"/>
  </linearGradient>
  <!-- Chrome rod — lance shaft -->
  <linearGradient id="chromer1x1195" x1="0%" y1="0%" x2="100%" y2="0%">
    <stop offset="0%"   stop-color="#0c0c18"/>
    <stop offset="20%"  stop-color="#686888"/>
    <stop offset="44%"  stop-color="#e0e0f0"/>
    <stop offset="56%"  stop-color="#c0c0d8"/>
    <stop offset="80%"  stop-color="#28283e"/>
    <stop offset="100%" stop-color="#0c0c18"/>
  </linearGradient>
  <!-- Titanium plate — shield face -->
  <linearGradient id="titaniumr1x1195" x1="0%" y1="0%" x2="100%" y2="100%">
    <stop offset="0%"   stop-color="#585878"/>
    <stop offset="28%"  stop-color="#2060ff" stop-opacity=".88"/>
    <stop offset="55%"  stop-color="#003ccc"/>
    <stop offset="80%"  stop-color="#181828"/>
    <stop offset="100%" stop-color="#0a0a18"/>
  </linearGradient>
  <!-- Artillery black-chrome — cannon body -->
  <linearGradient id="artilleryr1x1195" x1="0%" y1="0%" x2="0%" y2="100%">
    <stop offset="0%"   stop-color="#383850"/>
    <stop offset="14%"  stop-color="#78789a"/>
    <stop offset="36%"  stop-color="#202034"/>
    <stop offset="65%"  stop-color="#14141e"/>
    <stop offset="100%" stop-color="#0a0a12"/>
  </linearGradient>
  <!-- Energy orb — staff -->
  <radialGradient id="orbr1x1195" cx="35%" cy="35%" r="65%">
    <stop offset="0%"   stop-color="rgba(255,255,255,.9)"/>
    <stop offset="30%"  stop-color="#2060ff"/>
    <stop offset="68%"  stop-color="#003ccc"/>
    <stop offset="100%" stop-color="rgba(0,0,0,.6)"/>
  </radialGradient>
  <!-- Knuckle plate chrome -->
  <linearGradient id="knuckler1x1195" x1="0%" y1="0%" x2="0%" y2="100%">
    <stop offset="0%"   stop-color="#888aaa"/>
    <stop offset="32%"  stop-color="#2060ff" stop-opacity=".8"/>
    <stop offset="62%"  stop-color="#1a1a2c"/>
    <stop offset="100%" stop-color="#0a0a14"/>
  </linearGradient>

  <!-- Carbon fibre weave texture overlay -->
  <pattern id="carbonr1x1195" width="6" height="6" patternUnits="userSpaceOnUse">
    <rect width="6" height="6" fill="rgba(0,0,0,.08)"/>
    <rect x="0" y="0" width="3" height="3" fill="rgba(255,255,255,.022)"/>
    <rect x="3" y="3" width="3" height="3" fill="rgba(255,255,255,.022)"/>
    <line x1="0" y1="0" x2="3" y2="3" stroke="rgba(255,255,255,.038)" stroke-width=".5"/>
    <line x1="3" y1="0" x2="6" y2="3" stroke="rgba(0,0,0,.055)"       stroke-width=".5"/>
    <line x1="0" y1="3" x2="3" y2="6" stroke="rgba(0,0,0,.055)"       stroke-width=".5"/>
    <line x1="3" y1="3" x2="6" y2="6" stroke="rgba(255,255,255,.038)" stroke-width=".5"/>
  </pattern>

  <!-- Specular metal sheen on armour panels -->
  <filter id="metalr1x1195" x="-5%" y="-5%" width="110%" height="110%">
    <feSpecularLighting surfaceScale="4" specularConstant="1.8"
        specularExponent="42" lighting-color="#ffffff" result="spec">
      <feDistantLight elevation="52" azimuth="38"/>
    </feSpecularLighting>
    <feComposite in="spec" in2="SourceGraphic" operator="in" result="sm"/>
    <feComposite in="SourceGraphic" in2="sm" operator="arithmetic" k1="0" k2="1" k3="0.55" k4="0"/>
  </filter>

  <!-- Sharper specular for weapons — heavier glare -->
  <filter id="wmr1x1195" x="-8%" y="-8%" width="116%" height="116%">
    <feSpecularLighting surfaceScale="6" specularConstant="2.4"
        specularExponent="65" lighting-color="#ffffff" result="spec">
      <feDistantLight elevation="44" azimuth="28"/>
    </feSpecularLighting>
    <feComposite in="spec" in2="SourceGraphic" operator="in" result="sm"/>
    <feComposite in="SourceGraphic" in2="sm" operator="arithmetic" k1="0" k2="1" k3="0.78" k4="0"/>
  </filter>

  <!-- Sketch wobble -->
  <filter id="skr1x1195" x="-8%" y="-8%" width="116%" height="116%">
    <feTurbulence type="fractalNoise" baseFrequency="0.038"
        numOctaves="3" seed="37" result="noise"/>
    <feDisplacementMap in="SourceGraphic" in2="noise" scale="2.6"
        xChannelSelector="R" yChannelSelector="G" result="w"/>
    <feComposite in="w" in2="SourceGraphic" operator="atop"/>
  </filter>

  <!-- Glow: sharp accent -->
  <filter id="glowr1x1195" x="-20%" y="-20%" width="140%" height="140%">
    <feGaussianBlur stdDeviation="3.5" result="b"/>
    <feColorMatrix in="b" type="matrix"
        values="0 0 0 0 1  0 0 0 0 1  0 0 0 0 1  0 0 0 1.8 0" result="boost"/>
    <feMerge><feMergeNode in="boost"/><feMergeNode in="SourceGraphic"/></feMerge>
  </filter>

  <!-- Bloom: wide soft -->
  <filter id="bloomr1x1195" x="-40%" y="-40%" width="180%" height="180%">
    <feGaussianBlur stdDeviation="11" result="b"/>
    <feMerge><feMergeNode in="b"/><feMergeNode in="SourceGraphic"/></feMerge>
  </filter>

  </defs><rect width="1000" height="1000" fill="url(#bgr1x1195)"/><ellipse cx="500.0" cy="892.0" rx="350.0" ry="65.0" fill="rgba(0,0,0,.7)" filter="url(#bloomr1x1195)"/><ellipse cx="500.0" cy="889.0" rx="220.0" ry="34.0" fill="rgba(0,0,0,.45)"/><polygon points="400.5,664.0 490.6,662.2 479.0,876.1 389.0,878.0" fill="url(#suitr1x1195)" stroke="#2060ff" stroke-width="2.2" filter="url(#skr1x1195) url(#metalr1x1195)"/><polygon points="397.8,664.1 489.7,660.9 481.1,876.8 389.0,877.5" fill="url(#carbonr1x1195)"/><polygon points="393.1,722.7 494.6,723.9 483.7,787.0 382.9,789.7" fill="url(#bevelr1x1195)" fill-opacity=".5" stroke="#2060ff" stroke-width="1.4" filter="url(#skr1x1195)"/><polygon points="512.2,663.1 602.1,661.1 612.6,875.8 518.3,877.0" fill="url(#suitr1x1195)" stroke="#2060ff" stroke-width="2.2" filter="url(#skr1x1195) url(#metalr1x1195)"/><polygon points="509.1,662.4 603.0,661.7 613.2,878.2 521.0,877.0" fill="url(#carbonr1x1195)"/><polygon points="506.4,722.7 606.9,723.4 614.5,788.1 517.0,788.9" fill="url(#bevelr1x1195)" fill-opacity=".5" stroke="#2060ff" stroke-width="1.4" filter="url(#skr1x1195)"/><rect x="392.8" y="839.2" width="100.3" height="24.7" fill="url(#bevelr1x1195)" stroke="#2060ff" stroke-width="1" filter="url(#skr1x1195)"/><rect x="505.6"  y="837.0" width="100.3" height="24.7" fill="url(#bevelr1x1195)" stroke="#2060ff" stroke-width="1" filter="url(#skr1x1195)"/><polygon points="369.7,878.9 498.0,876.5 505.1,919.7 361.9,920.8" fill="#003ccc" stroke="#2060ff" stroke-width="2" filter="url(#skr1x1195)"/><polygon points="501.9,878.4 629.7,878.1 638.6,921.4 498.0,920.0" fill="#003ccc" stroke="#2060ff" stroke-width="2" filter="url(#skr1x1195)"/><polygon points="302.1,634.9 697.7,631.7 637.6,682.7 360.8,680.7" fill="#2060ff" fill-opacity=".52" stroke="#2060ff" stroke-width="2" filter="url(#skr1x1195)"/><rect x="465.6" y="639.3" width="72.0" height="42.0" fill="url(#bevelr1x1195)" stroke="#2060ff" stroke-width="1.4" filter="url(#glowr1x1195)"/><rect x="484.7" y="640.9" width="28.0" height="22.0" rx="1" fill="rgba(255,255,255,.48)"/><polygon points="152.4,467.2 233.3,465.5 256.5,734.4 129.6,734.0" fill="url(#suitr1x1195)" stroke="#2060ff" stroke-width="2.2" filter="url(#skr1x1195) url(#metalr1x1195)"/><polygon points="171.9,431.6 254.0,433.1 243.6,509.4 160.9,511.0" fill="url(#bevelr1x1195)" fill-opacity=".72" stroke="#2060ff" stroke-width="2.2" filter="url(#skr1x1195)"/><polygon points="162.2,622.3 244.4,623.6 240.2,659.8 165.2,661.9" fill="#2060ff" fill-opacity=".42" stroke="#2060ff" stroke-width="1" filter="url(#skr1x1195)"/><polygon points="764.7,467.8 845.9,466.1 872.3,734.4 742.8,734.2" fill="url(#suitr1x1195)" stroke="#2060ff" stroke-width="2.2" filter="url(#skr1x1195) url(#metalr1x1195)"/><polygon points="747.8,432.6 826.8,432.2 840.7,511.1 756.0,510.0" fill="url(#bevelr1x1195)" fill-opacity=".72" stroke="#2060ff" stroke-width="2.2" filter="url(#skr1x1195)"/><polygon points="757.5,622.0 839.3,620.6 834.6,662.6 759.7,661.5" fill="#2060ff" fill-opacity=".42" stroke="#2060ff" stroke-width="1" filter="url(#skr1x1195)"/><rect x="120.4"  y="698.6" width="135.3" height="85.0" rx="4" fill="url(#bevelr1x1195)" stroke="#2060ff" stroke-width="1.8" filter="url(#skr1x1195)"/><rect x="747.0"   y="700.4" width="135.3" height="85.0" rx="4" fill="url(#bevelr1x1195)" stroke="#2060ff" stroke-width="1.8" filter="url(#skr1x1195)"/><line x1="150.7" y1="701.8" x2="150.3" y2="783.8" stroke="#2060ff" stroke-opacity=".38" stroke-width="1"/><line x1="779.1" y1="702.7" x2="776.4" y2="783.6" stroke="#2060ff" stroke-opacity=".38" stroke-width="1"/><line x1="184.1" y1="701.1" x2="181.0" y2="782.6" stroke="#2060ff" stroke-opacity=".38" stroke-width="1"/><line x1="812.5" y1="703.4" x2="809.7" y2="783.4" stroke="#2060ff" stroke-opacity=".38" stroke-width="1"/><line x1="215.9" y1="703.4" x2="215.6" y2="785.1" stroke="#2060ff" stroke-opacity=".38" stroke-width="1"/><line x1="842.9" y1="701.8" x2="845.1" y2="785.0" stroke="#2060ff" stroke-opacity=".38" stroke-width="1"/><polygon points="233.5,418.8 764.9,418.5 721.5,662.4 277.3,661.5" fill="url(#suitr1x1195)" stroke="#2060ff" stroke-width="2.6" filter="url(#skr1x1195) url(#metalr1x1195)"/><polygon points="234.1,416.0 766.1,418.5 721.6,660.7 276.4,663.7" fill="url(#carbonr1x1195)"/><polygon points="367.8,415.9 632.5,416.3 611.8,517.0 388.1,514.9" fill="url(#suitHir1x1195)"/><line x1="361.2" y1="472.5" x2="638.2" y2="471.0" stroke="#2060ff" stroke-opacity=".52" stroke-width="1.3" filter="url(#skr1x1195)"/><line x1="400.1" y1="549.9" x2="600.8" y2="549.1" stroke="#2060ff" stroke-opacity=".52" stroke-width="1.3" filter="url(#skr1x1195)"/><line x1="268.1" y1="490.5" x2="320.2" y2="490.1" stroke="#2060ff" stroke-opacity=".62" stroke-width="1.8"/><line x1="681.4" y1="492.6" x2="732.6" y2="491.7" stroke="#2060ff" stroke-opacity=".62" stroke-width="1.8"/><line x1="266.7" y1="521.7" x2="318.5" y2="521.6" stroke="#2060ff" stroke-opacity=".62" stroke-width="1.8"/><line x1="680.0" y1="521.5" x2="732.4" y2="522.6" stroke="#2060ff" stroke-opacity=".62" stroke-width="1.8"/><line x1="267.0" y1="556.0" x2="319.0" y2="556.4" stroke="#2060ff" stroke-opacity=".62" stroke-width="1.8"/><line x1="680.9" y1="553.4" x2="732.6" y2="554.5" stroke="#2060ff" stroke-opacity=".62" stroke-width="1.8"/><line x1="265.5" y1="587.4" x2="319.4" y2="585.5" stroke="#2060ff" stroke-opacity=".62" stroke-width="1.8"/><line x1="679.2" y1="588.1" x2="732.7" y2="587.8" stroke="#2060ff" stroke-opacity=".62" stroke-width="1.8"/><g filter="url(#glowr1x1195)"><path d="M500.0,449.7 C462.3,446.8 442.0,481.6 447.8,513.5 L459.4,542.5 C476.8,536.7 491.3,551.2 500.0,551.2 C508.7,551.2 523.2,536.7 540.6,542.5 L552.2,513.5 C558.0,481.6 537.7,446.8 500.0,449.7 Z" fill="#2060ff" fill-opacity=".92" stroke="#0a0520" stroke-width="1.3" filter="url(#skr1x1195)"/><path d="M483.8,519.3 Q500.0,533.8 516.2,519.3" stroke="#0a0520" stroke-width="1" fill="none" opacity=".58"/><ellipse cx="481.4" cy="497.8" rx="8.7" ry="6.4" fill="#0a0520" opacity=".95"/><ellipse cx="518.6" cy="497.8" rx="8.7" ry="6.4" fill="#0a0520" opacity=".95"/><ellipse cx="481.4" cy="497.8" rx="2.3" ry="5.8" fill="#2060ff"/><ellipse cx="518.6" cy="497.8" rx="2.3" ry="5.8" fill="#2060ff"/><path d="M471.0,467.1 L458.2,426.5 L481.4,463.0" fill="#2060ff" stroke="#0a0520" stroke-width=".9"/><path d="M529.0,467.1 L541.8,426.5 L518.6,463.0" fill="#2060ff" stroke="#0a0520" stroke-width=".9"/><path d="M476.8,452.6 C488.4,449.1 511.6,449.1 523.2,452.6" fill="rgba(255,255,255,.18)"/></g><g><polygon points="76.2,671.4 128.2,671.4 112.6,-28.6 91.8,-28.6" fill="url(#blader1x1195)" filter="url(#wmr1x1195)"/><polygon points="91.8,-28.6 112.6,-28.6 102.2,-138.6" fill="url(#blader1x1195)" filter="url(#wmr1x1195)"/><polygon points="100.3,671.4 104.0,671.4 102.7,-128.6 101.6,-128.6" fill="url(#bladeTipr1x1195)" opacity=".9"/><line x1="112.61926551207897" y1="671.0860183093697" x2="102.59981032814828" y2="-129.40333772674205" stroke="rgba(255,255,255,.68)" stroke-width="1.5"/><line x1="93.97540581021455" y1="670.9892997675576" x2="102.67591111322861" y2="-129.37896801382306" stroke="#2060ff" stroke-width="1" stroke-opacity=".45"/><line x1="106.8" y1="651.4" x2="104.0" y2="11.4" stroke="rgba(0,0,0,.38)" stroke-width="1.6"/><line x1="97.5" y1="651.4" x2="100.3" y2="11.4" stroke="rgba(0,0,0,.38)" stroke-width="1.6"/><rect x="46.02010732520368" y="668.7066356474534" width="112.0" height="28.0" rx="3" fill="url(#bevelr1x1195)" stroke="#2060ff" stroke-width="1.6" filter="url(#wmr1x1195)"/><rect x="68.62491380147632" y="675.0356223183684" width="64.0" height="10.0" rx="1" fill="rgba(255,255,255,.32)"/><rect x="91.72618362842124" y="679.0640469781123" width="24.0" height="6.0" rx="1" fill="#2060ff" fill-opacity=".35"/><rect x="90.8149028197303" y="685.9794591968879" width="24.0" height="6.0" rx="1" fill="#2060ff" fill-opacity=".35"/><rect x="91.82700751157475" y="694.1000094139017" width="24.0" height="6.0" rx="1" fill="#2060ff" fill-opacity=".35"/><rect x="89.27965240379793" y="702.7339100249111" width="24.0" height="6.0" rx="1" fill="#2060ff" fill-opacity=".35"/><rect x="89.18204587394368" y="709.0242195095867" width="24.0" height="6.0" rx="1" fill="#2060ff" fill-opacity=".35"/><rect x="89.50855379164216" y="718.7448749389499" width="24.0" height="6.0" rx="1" fill="#2060ff" fill-opacity=".35"/><ellipse cx="102.84093365821984" cy="725.2484561094083" rx="22.0" ry="16.0" fill="url(#bevelr1x1195)" stroke="#2060ff" stroke-width="1.2" filter="url(#wmr1x1195)"/></g><rect x="449.41757781794297" y="556.4763671766035" width="100.0"  height="56.0" fill="#003ccc" stroke="#2060ff" stroke-width="2.2" filter="url(#skr1x1195)"/><rect x="423.4667400504462" y="575.842375765089" width="152.0" height="26.0" fill="url(#bevelr1x1195)" fill-opacity=".65" stroke="#2060ff" stroke-width="1.2" filter="url(#skr1x1195)"/><polygon points="306.6,380.6 350.6,294.4 498.9,279.5 651.5,293.0 691.1,379.1 667.9,503.4 498.4,564.6 331.5,502.3" fill="url(#suitr1x1195)" stroke="#2060ff" stroke-width="2.8" filter="url(#skr1x1195) url(#metalr1x1195)"/><polygon points="309.8,379.1 350.6,295.0 501.4,278.1 648.4,293.9 692.0,380.4 668.9,502.1 498.3,564.1 330.7,505.0" fill="url(#carbonr1x1195)"/><polygon points="381.0,302.7 498.3,286.5 618.8,302.4 606.4,380.5 393.9,380.8" fill="url(#suitHir1x1195)"/><polygon points="380.3,379.8 363.8,426.2 433.0,504.6 498.9,529.4 567.0,504.9 633.3,426.3 618.6,380.9" fill="#0a0520" fill-opacity=".88" stroke="#2060ff" stroke-width="1.8" filter="url(#skr1x1195)"/><polygon points="382.2,412.1 476.1,412.0 483.6,439.2 389.4,438.6" fill="#2060ff" filter="url(#glowr1x1195)"/><polygon points="524.0,410.2 619.8,412.2 611.9,439.5 513.9,441.6" fill="#2060ff" filter="url(#glowr1x1195)"/><ellipse cx="430.9" cy="425.7" rx="38.4"  ry="8.2" fill="#ffffff" opacity=".88"/><ellipse cx="569.1" cy="425.7" rx="38.4"  ry="8.2" fill="#ffffff" opacity=".88"/><line x1="483.8888577279262" y1="414.7348237034864" x2="515.6117781195231" y2="414.0500298603438" stroke="#2060ff" stroke-opacity=".52" stroke-width="2"/><line x1="486.4132841789722" y1="438.292127584666" x2="516.6012795610726" y2="437.7921505892649" stroke="#2060ff" stroke-opacity=".52" stroke-width="2"/><line x1="500.2092212466523" y1="453.6750985238701" x2="501.706542068813" y2="481.7377105097287" stroke="#2060ff" stroke-opacity=".58" stroke-width="2.2" filter="url(#skr1x1195)"/><line x1="455.39302132528275" y1="490.14570853328325" x2="454.9282281990908" y2="520.3559797101655" stroke="#2060ff" stroke-opacity=".52" stroke-width="1.5" filter="url(#skr1x1195)"/><line x1="475.50683575201776" y1="493.05636838022616" x2="475.1777309086546" y2="519.3253640889191" stroke="#2060ff" stroke-opacity=".52" stroke-width="1.5" filter="url(#skr1x1195)"/><line x1="498.3099653728306" y1="491.8862558122724" x2="499.22703307094054" y2="519.074267678801" stroke="#2060ff" stroke-opacity=".52" stroke-width="1.5" filter="url(#skr1x1195)"/><line x1="523.7192092836461" y1="491.9672552580945" x2="521.8411813063174" y2="521.243280116003" stroke="#2060ff" stroke-opacity=".52" stroke-width="1.5" filter="url(#skr1x1195)"/><line x1="544.6075838824921" y1="491.29290466364466" x2="544.7205071761459" y2="519.3780155425891" stroke="#2060ff" stroke-opacity=".52" stroke-width="1.5" filter="url(#skr1x1195)"/><polygon points="434.4,505.0 569.0,502.1 552.3,556.3 446.7,557.1" fill="#003ccc" fill-opacity=".72" stroke="#2060ff" stroke-width="1.3" filter="url(#skr1x1195)"/><polygon points="315.4,303.7 360.7,306.1 337.3,193.7" fill="url(#bevelr1x1195)" fill-opacity=".95" stroke="#2060ff" stroke-width="1.6" filter="url(#skr1x1195) url(#glowr1x1195)"/><polygon points="397.0,304.4 441.5,304.1 420.6,207.5" fill="url(#bevelr1x1195)" fill-opacity=".95" stroke="#2060ff" stroke-width="1.6" filter="url(#skr1x1195) url(#glowr1x1195)"/><polygon points="477.7,306.4 521.3,304.8 499.6,221.8" fill="url(#bevelr1x1195)" fill-opacity=".95" stroke="#2060ff" stroke-width="1.6" filter="url(#skr1x1195) url(#glowr1x1195)"/><polygon points="558.2,304.3 602.1,303.5 580.8,210.4" fill="url(#bevelr1x1195)" fill-opacity=".95" stroke="#2060ff" stroke-width="1.6" filter="url(#skr1x1195) url(#glowr1x1195)"/><polygon points="639.4,305.3 683.7,305.6 659.6,194.6" fill="url(#bevelr1x1195)" fill-opacity=".95" stroke="#2060ff" stroke-width="1.6" filter="url(#skr1x1195) url(#glowr1x1195)"/><text x="30.0"  y="975.0" font-family="monospace" font-weight="bold" font-size="22.0" fill="rgba(255,255,255,.22)">#0001</text><text x="500.0"   y="975.0" text-anchor="middle" font-family="monospace" font-weight="bold" font-size="22.0" fill="#2060ff" fill-opacity=".48">COBALT RANGER</text><text x="970.0" y="975.0" text-anchor="end"    font-family="monospace" font-weight="bold" font-size="22.0" fill="#2060ff" fill-opacity=".32">MECH RANGERS</text></svg>