<svg xmlns="http://www.w3.org/2000/svg" viewBox="0 0 1000 1000" width="1000" height="1000" shape-rendering="geometricPrecision"><defs>

  <!-- Scene gradients -->
  <radialGradient id="bgr1x1226" cx="50%" cy="42%" r="72%">
    <stop offset="0%"   stop-color="#0a0a14"/>
    <stop offset="100%" stop-color="#050508"/>
  </radialGradient>
  <linearGradient id="suitr1x1226" x1="8%" y1="0%" x2="92%" y2="100%">
    <stop offset="0%"   stop-color="#2060ff" stop-opacity=".95"/>
    <stop offset="45%"  stop-color="#003ccc"/>
    <stop offset="100%" stop-color="#050508"/>
  </linearGradient>
  <linearGradient id="suitHir1x1226" x1="0%" y1="0%" x2="0%" y2="100%">
    <stop offset="0%"   stop-color="rgba(255,255,255,.28)"/>
    <stop offset="60%"  stop-color="rgba(255,255,255,.04)"/>
    <stop offset="100%" stop-color="rgba(255,255,255,0)"/>
  </linearGradient>
  <!-- Bevel: bright top, dark bottom for armour panels -->
  <linearGradient id="bevelr1x1226" x1="0%" y1="0%" x2="0%" y2="100%">
    <stop offset="0%"   stop-color="rgba(255,255,255,.55)"/>
    <stop offset="30%"  stop-color="#2060ff"/>
    <stop offset="70%"  stop-color="#003ccc"/>
    <stop offset="100%" stop-color="rgba(0,0,0,.5)"/>
  </linearGradient>

  <!-- Weapon: cold steel blade sweep -->
  <linearGradient id="blader1x1226" x1="0%" y1="0%" x2="100%" y2="0%">
    <stop offset="0%"   stop-color="#0e0e20"/>
    <stop offset="16%"  stop-color="#3e3e58"/>
    <stop offset="34%"  stop-color="#c8c8e0"/>
    <stop offset="50%"  stop-color="#f5f5ff"/>
    <stop offset="66%"  stop-color="#b8b8d0"/>
    <stop offset="84%"  stop-color="#2e2e48"/>
    <stop offset="100%" stop-color="#08080e"/>
  </linearGradient>
  <!-- Blade tip brightening -->
  <linearGradient id="bladeTipr1x1226" x1="0%" y1="100%" x2="0%" y2="0%">
    <stop offset="0%"   stop-color="rgba(255,255,255,0)"/>
    <stop offset="55%"  stop-color="rgba(255,255,255,.1)"/>
    <stop offset="100%" stop-color="rgba(255,255,255,.55)"/>
  </linearGradient>
  <!-- Gunmetal anodised — blaster body -->
  <linearGradient id="gunmetalr1x1226" x1="0%" y1="0%" x2="0%" y2="100%">
    <stop offset="0%"   stop-color="#46465e"/>
    <stop offset="18%"  stop-color="#828296"/>
    <stop offset="42%"  stop-color="#26263a"/>
    <stop offset="72%"  stop-color="#16162a"/>
    <stop offset="100%" stop-color="#0c0c18"/>
  </linearGradient>
  <!-- Brushed steel tube — barrel/rod -->
  <linearGradient id="barrelr1x1226" x1="0%" y1="0%" x2="100%" y2="0%">
    <stop offset="0%"   stop-color="#0a0a14"/>
    <stop offset="24%"  stop-color="#585875"/>
    <stop offset="50%"  stop-color="#a8a8c8"/>
    <stop offset="76%"  stop-color="#383852"/>
    <stop offset="100%" stop-color="#0a0a14"/>
  </linearGradient>
  <!-- Chrome rod — lance shaft -->
  <linearGradient id="chromer1x1226" x1="0%" y1="0%" x2="100%" y2="0%">
    <stop offset="0%"   stop-color="#0c0c18"/>
    <stop offset="20%"  stop-color="#686888"/>
    <stop offset="44%"  stop-color="#e0e0f0"/>
    <stop offset="56%"  stop-color="#c0c0d8"/>
    <stop offset="80%"  stop-color="#28283e"/>
    <stop offset="100%" stop-color="#0c0c18"/>
  </linearGradient>
  <!-- Titanium plate — shield face -->
  <linearGradient id="titaniumr1x1226" x1="0%" y1="0%" x2="100%" y2="100%">
    <stop offset="0%"   stop-color="#585878"/>
    <stop offset="28%"  stop-color="#2060ff" stop-opacity=".88"/>
    <stop offset="55%"  stop-color="#003ccc"/>
    <stop offset="80%"  stop-color="#181828"/>
    <stop offset="100%" stop-color="#0a0a18"/>
  </linearGradient>
  <!-- Artillery black-chrome — cannon body -->
  <linearGradient id="artilleryr1x1226" x1="0%" y1="0%" x2="0%" y2="100%">
    <stop offset="0%"   stop-color="#383850"/>
    <stop offset="14%"  stop-color="#78789a"/>
    <stop offset="36%"  stop-color="#202034"/>
    <stop offset="65%"  stop-color="#14141e"/>
    <stop offset="100%" stop-color="#0a0a12"/>
  </linearGradient>
  <!-- Energy orb — staff -->
  <radialGradient id="orbr1x1226" cx="35%" cy="35%" r="65%">
    <stop offset="0%"   stop-color="rgba(255,255,255,.9)"/>
    <stop offset="30%"  stop-color="#2060ff"/>
    <stop offset="68%"  stop-color="#003ccc"/>
    <stop offset="100%" stop-color="rgba(0,0,0,.6)"/>
  </radialGradient>
  <!-- Knuckle plate chrome -->
  <linearGradient id="knuckler1x1226" x1="0%" y1="0%" x2="0%" y2="100%">
    <stop offset="0%"   stop-color="#888aaa"/>
    <stop offset="32%"  stop-color="#2060ff" stop-opacity=".8"/>
    <stop offset="62%"  stop-color="#1a1a2c"/>
    <stop offset="100%" stop-color="#0a0a14"/>
  </linearGradient>

  <!-- Carbon fibre weave texture overlay -->
  <pattern id="carbonr1x1226" width="6" height="6" patternUnits="userSpaceOnUse">
    <rect width="6" height="6" fill="rgba(0,0,0,.08)"/>
    <rect x="0" y="0" width="3" height="3" fill="rgba(255,255,255,.022)"/>
    <rect x="3" y="3" width="3" height="3" fill="rgba(255,255,255,.022)"/>
    <line x1="0" y1="0" x2="3" y2="3" stroke="rgba(255,255,255,.038)" stroke-width=".5"/>
    <line x1="3" y1="0" x2="6" y2="3" stroke="rgba(0,0,0,.055)"       stroke-width=".5"/>
    <line x1="0" y1="3" x2="3" y2="6" stroke="rgba(0,0,0,.055)"       stroke-width=".5"/>
    <line x1="3" y1="3" x2="6" y2="6" stroke="rgba(255,255,255,.038)" stroke-width=".5"/>
  </pattern>

  <!-- Specular metal sheen on armour panels -->
  <filter id="metalr1x1226" x="-5%" y="-5%" width="110%" height="110%">
    <feSpecularLighting surfaceScale="4" specularConstant="1.8"
        specularExponent="42" lighting-color="#ffffff" result="spec">
      <feDistantLight elevation="52" azimuth="38"/>
    </feSpecularLighting>
    <feComposite in="spec" in2="SourceGraphic" operator="in" result="sm"/>
    <feComposite in="SourceGraphic" in2="sm" operator="arithmetic" k1="0" k2="1" k3="0.55" k4="0"/>
  </filter>

  <!-- Sharper specular for weapons — heavier glare -->
  <filter id="wmr1x1226" x="-8%" y="-8%" width="116%" height="116%">
    <feSpecularLighting surfaceScale="6" specularConstant="2.4"
        specularExponent="65" lighting-color="#ffffff" result="spec">
      <feDistantLight elevation="44" azimuth="28"/>
    </feSpecularLighting>
    <feComposite in="spec" in2="SourceGraphic" operator="in" result="sm"/>
    <feComposite in="SourceGraphic" in2="sm" operator="arithmetic" k1="0" k2="1" k3="0.78" k4="0"/>
  </filter>

  <!-- Sketch wobble -->
  <filter id="skr1x1226" x="-8%" y="-8%" width="116%" height="116%">
    <feTurbulence type="fractalNoise" baseFrequency="0.038"
        numOctaves="3" seed="77" result="noise"/>
    <feDisplacementMap in="SourceGraphic" in2="noise" scale="2.6"
        xChannelSelector="R" yChannelSelector="G" result="w"/>
    <feComposite in="w" in2="SourceGraphic" operator="atop"/>
  </filter>

  <!-- Glow: sharp accent -->
  <filter id="glowr1x1226" x="-20%" y="-20%" width="140%" height="140%">
    <feGaussianBlur stdDeviation="3.5" result="b"/>
    <feColorMatrix in="b" type="matrix"
        values="0 0 0 0 1  0 0 0 0 1  0 0 0 0 1  0 0 0 1.8 0" result="boost"/>
    <feMerge><feMergeNode in="boost"/><feMergeNode in="SourceGraphic"/></feMerge>
  </filter>

  <!-- Bloom: wide soft -->
  <filter id="bloomr1x1226" x="-40%" y="-40%" width="180%" height="180%">
    <feGaussianBlur stdDeviation="11" result="b"/>
    <feMerge><feMergeNode in="b"/><feMergeNode in="SourceGraphic"/></feMerge>
  </filter>

  </defs><rect width="1000" height="1000" fill="url(#bgr1x1226)"/><ellipse cx="500.0" cy="892.0" rx="350.0" ry="65.0" fill="rgba(0,0,0,.7)" filter="url(#bloomr1x1226)"/><ellipse cx="500.0" cy="889.0" rx="220.0" ry="34.0" fill="rgba(0,0,0,.45)"/><ellipse cx="500.0" cy="520.0" rx="320.0" ry="480.0" fill="#00e5ff" fill-opacity=".042" filter="url(#bloomr1x1226)"/><circle cx="490.4" cy="590.8" r="3.3" fill="#00e5ff" fill-opacity="0.47" filter="url(#glowr1x1226)"/><circle cx="289.2" cy="550.2" r="1.4" fill="#00e5ff" fill-opacity="0.48" filter="url(#glowr1x1226)"/><circle cx="598.9" cy="774.2" r="4.1" fill="#00e5ff" fill-opacity="0.71" filter="url(#glowr1x1226)"/><circle cx="282.5" cy="791.5" r="2.8" fill="#00e5ff" fill-opacity="0.78" filter="url(#glowr1x1226)"/><circle cx="636.8" cy="450.4" r="4.0" fill="#00e5ff" fill-opacity="0.57" filter="url(#glowr1x1226)"/><circle cx="406.3" cy="753.0" r="1.3" fill="#00e5ff" fill-opacity="0.75" filter="url(#glowr1x1226)"/><circle cx="289.1" cy="254.1" r="3.9" fill="#00e5ff" fill-opacity="0.51" filter="url(#glowr1x1226)"/><circle cx="305.3" cy="271.6" r="4.2" fill="#00e5ff" fill-opacity="0.47" filter="url(#glowr1x1226)"/><circle cx="529.8" cy="657.4" r="2.7" fill="#00e5ff" fill-opacity="0.85" filter="url(#glowr1x1226)"/><circle cx="474.8" cy="356.1" r="0.8" fill="#00e5ff" fill-opacity="0.72" filter="url(#glowr1x1226)"/><circle cx="513.2" cy="484.8" r="1.0" fill="#00e5ff" fill-opacity="0.49" filter="url(#glowr1x1226)"/><circle cx="255.3" cy="189.1" r="4.0" fill="#00e5ff" fill-opacity="0.59" filter="url(#glowr1x1226)"/><circle cx="344.1" cy="217.2" r="2.9" fill="#00e5ff" fill-opacity="0.62" filter="url(#glowr1x1226)"/><circle cx="717.8" cy="412.9" r="3.2" fill="#00e5ff" fill-opacity="0.43" filter="url(#glowr1x1226)"/><path d="M520.5,278.4 Q555.1,496.1 670.8,707.8" stroke="#00e5ff" stroke-opacity="0.58" stroke-width="2.4" fill="none" filter="url(#glowr1x1226)"/><path d="M303.5,254.9 Q261.0,494.2 471.2,710.8" stroke="#00e5ff" stroke-opacity="0.46" stroke-width="1.7" fill="none" filter="url(#glowr1x1226)"/><path d="M307.3,384.5 Q299.8,602.9 396.1,853.1" stroke="#00e5ff" stroke-opacity="0.48" stroke-width="2.0" fill="none" filter="url(#glowr1x1226)"/><path d="M618.2,249.6 Q601.8,563.7 569.5,856.2" stroke="#00e5ff" stroke-opacity="0.55" stroke-width="2.7" fill="none" filter="url(#glowr1x1226)"/><path d="M420.5,229.5 Q451.4,444.2 343.3,660.3" stroke="#00e5ff" stroke-opacity="0.79" stroke-width="1.7" fill="none" filter="url(#glowr1x1226)"/><polygon points="397.2,661.0 487.9,661.0 479.1,875.7 388.0,876.8" fill="url(#suitr1x1226)" stroke="#2060ff" stroke-width="2.2" filter="url(#skr1x1226) url(#metalr1x1226)"/><polygon points="397.2,663.1 488.4,663.3 480.5,875.7 387.6,878.1" fill="url(#carbonr1x1226)"/><polygon points="391.7,725.5 491.6,722.0 485.0,789.3 384.3,789.8" fill="url(#bevelr1x1226)" fill-opacity=".5" stroke="#2060ff" stroke-width="1.4" filter="url(#skr1x1226)"/><polygon points="508.8,662.4 600.4,663.0 611.1,876.3 518.6,877.8" fill="url(#suitr1x1226)" stroke="#2060ff" stroke-width="2.2" filter="url(#skr1x1226) url(#metalr1x1226)"/><polygon points="511.6,663.9 601.2,661.7 612.4,876.1 518.5,878.0" fill="url(#carbonr1x1226)"/><polygon points="508.2,725.1 608.9,725.2 614.6,789.1 515.6,786.5" fill="url(#bevelr1x1226)" fill-opacity=".5" stroke="#2060ff" stroke-width="1.4" filter="url(#skr1x1226)"/><rect x="392.3" y="839.7" width="100.3" height="24.7" fill="url(#bevelr1x1226)" stroke="#2060ff" stroke-width="1" filter="url(#skr1x1226)"/><rect x="507.3"  y="838.0" width="100.3" height="24.7" fill="url(#bevelr1x1226)" stroke="#2060ff" stroke-width="1" filter="url(#skr1x1226)"/><polygon points="368.8,876.9 495.2,876.8 503.9,921.2 363.0,922.8" fill="#003ccc" stroke="#2060ff" stroke-width="2" filter="url(#skr1x1226)"/><polygon points="505.1,877.8 630.4,877.8 638.9,922.8 498.1,922.7" fill="#003ccc" stroke="#2060ff" stroke-width="2" filter="url(#skr1x1226)"/><polygon points="304.4,633.6 694.4,634.2 638.6,681.5 360.9,680.5" fill="#2060ff" fill-opacity=".52" stroke="#2060ff" stroke-width="2" filter="url(#skr1x1226)"/><rect x="463.4" y="638.1" width="72.0" height="42.0" fill="url(#bevelr1x1226)" stroke="#2060ff" stroke-width="1.4" filter="url(#glowr1x1226)"/><rect x="486.4" y="640.3" width="28.0" height="22.0" rx="1" fill="rgba(255,255,255,.48)"/><polygon points="152.8,466.7 234.9,465.2 256.8,736.6 127.6,735.6" fill="url(#suitr1x1226)" stroke="#2060ff" stroke-width="2.2" filter="url(#skr1x1226) url(#metalr1x1226)"/><polygon points="172.6,432.2 254.6,432.2 242.7,512.1 158.7,511.2" fill="url(#bevelr1x1226)" fill-opacity=".72" stroke="#2060ff" stroke-width="2.2" filter="url(#skr1x1226)"/><polygon points="160.7,623.2 243.8,622.5 238.5,662.2 166.8,660.9" fill="#2060ff" fill-opacity=".42" stroke="#2060ff" stroke-width="1" filter="url(#skr1x1226)"/><polygon points="765.9,468.1 847.7,467.4 873.2,736.0 743.4,735.5" fill="url(#suitr1x1226)" stroke="#2060ff" stroke-width="2.2" filter="url(#skr1x1226) url(#metalr1x1226)"/><polygon points="747.8,433.6 826.4,430.4 840.9,511.6 757.5,511.9" fill="url(#bevelr1x1226)" fill-opacity=".72" stroke="#2060ff" stroke-width="2.2" filter="url(#skr1x1226)"/><polygon points="755.5,623.7 838.7,621.3 834.1,661.0 760.6,660.7" fill="#2060ff" fill-opacity=".42" stroke="#2060ff" stroke-width="1" filter="url(#skr1x1226)"/><rect x="120.1"  y="700.7" width="135.3" height="85.0" rx="4" fill="url(#bevelr1x1226)" stroke="#2060ff" stroke-width="1.8" filter="url(#skr1x1226)"/><rect x="749.8"   y="701.2" width="135.3" height="85.0" rx="4" fill="url(#bevelr1x1226)" stroke="#2060ff" stroke-width="1.8" filter="url(#skr1x1226)"/><line x1="150.8" y1="700.6" x2="149.9" y2="784.8" stroke="#2060ff" stroke-opacity=".38" stroke-width="1"/><line x1="776.4" y1="701.0" x2="777.8" y2="785.3" stroke="#2060ff" stroke-opacity=".38" stroke-width="1"/><line x1="182.4" y1="703.2" x2="183.5" y2="784.4" stroke="#2060ff" stroke-opacity=".38" stroke-width="1"/><line x1="811.5" y1="702.0" x2="811.6" y2="782.3" stroke="#2060ff" stroke-opacity=".38" stroke-width="1"/><line x1="214.2" y1="700.3" x2="215.2" y2="785.5" stroke="#2060ff" stroke-opacity=".38" stroke-width="1"/><line x1="842.0" y1="702.5" x2="842.1" y2="784.6" stroke="#2060ff" stroke-opacity=".38" stroke-width="1"/><polygon points="234.1,417.8 765.1,418.5 722.5,663.0 275.6,663.0" fill="url(#suitr1x1226)" stroke="#2060ff" stroke-width="2.6" filter="url(#skr1x1226) url(#metalr1x1226)"/><polygon points="233.8,417.8 766.1,418.7 723.6,664.2 277.8,662.0" fill="url(#carbonr1x1226)"/><polygon points="366.1,418.0 633.8,419.2 610.3,517.3 388.7,516.7" fill="url(#suitHir1x1226)"/><line x1="361.4" y1="469.9" x2="639.3" y2="472.3" stroke="#2060ff" stroke-opacity=".52" stroke-width="1.3" filter="url(#skr1x1226)"/><line x1="398.1" y1="550.7" x2="602.5" y2="550.0" stroke="#2060ff" stroke-opacity=".52" stroke-width="1.3" filter="url(#skr1x1226)"/><line x1="268.4" y1="489.9" x2="319.2" y2="491.5" stroke="#2060ff" stroke-opacity=".62" stroke-width="1.8"/><line x1="679.0" y1="490.6" x2="732.8" y2="492.7" stroke="#2060ff" stroke-opacity=".62" stroke-width="1.8"/><line x1="265.4" y1="521.2" x2="320.4" y2="523.4" stroke="#2060ff" stroke-opacity=".62" stroke-width="1.8"/><line x1="680.0" y1="524.1" x2="734.5" y2="521.9" stroke="#2060ff" stroke-opacity=".62" stroke-width="1.8"/><line x1="266.8" y1="553.9" x2="320.5" y2="553.9" stroke="#2060ff" stroke-opacity=".62" stroke-width="1.8"/><line x1="681.5" y1="554.3" x2="734.9" y2="554.6" stroke="#2060ff" stroke-opacity=".62" stroke-width="1.8"/><line x1="266.7" y1="587.2" x2="320.9" y2="586.6" stroke="#2060ff" stroke-opacity=".62" stroke-width="1.8"/><line x1="680.7" y1="586.3" x2="732.3" y2="585.1" stroke="#2060ff" stroke-opacity=".62" stroke-width="1.8"/><g filter="url(#glowr1x1226)"><polygon points="498.9,451.2 541.4,511.8 498.4,568.9 458.0,509.0" fill="#2060ff" stroke="#050508" stroke-width="1.4" filter="url(#skr1x1226)"/><polygon points="500.9,452.6 540.6,509.6 499.5,567.0 457.8,511.4" fill="url(#suitHir1x1226)" opacity=".45"/></g><g><rect x="115.5" y="702.5" width="137.8" height="88.0" rx="5" fill="url(#bevelr1x1226)" stroke="#2060ff" stroke-width="2" filter="url(#wmr1x1226)"/><rect x="114.1" y="701.0" width="137.8" height="88.0" rx="5" fill="url(#carbonr1x1226)"/><rect x="748.9"  y="702.2" width="137.8" height="88.0" rx="5" fill="url(#bevelr1x1226)" stroke="#2060ff" stroke-width="2" filter="url(#wmr1x1226)"/><rect x="750.1"  y="703.1" width="137.8" height="88.0" rx="5" fill="url(#carbonr1x1226)"/><rect x="121.1" y="699.4" width="23.0" height="22.0" rx="2" fill="url(#knuckler1x1226)" stroke="#2060ff" stroke-width=".8" filter="url(#wmr1x1226)"/><rect x="753.6" y="698.6" width="23.0" height="22.0" rx="2" fill="url(#knuckler1x1226)" stroke="#2060ff" stroke-width=".8" filter="url(#wmr1x1226)"/><rect x="152.1" y="698.5" width="23.0" height="22.0" rx="2" fill="url(#knuckler1x1226)" stroke="#2060ff" stroke-width=".8" filter="url(#wmr1x1226)"/><rect x="783.1" y="698.2" width="23.0" height="22.0" rx="2" fill="url(#knuckler1x1226)" stroke="#2060ff" stroke-width=".8" filter="url(#wmr1x1226)"/><rect x="181.7" y="699.9" width="23.0" height="22.0" rx="2" fill="url(#knuckler1x1226)" stroke="#2060ff" stroke-width=".8" filter="url(#wmr1x1226)"/><rect x="813.5" y="700.2" width="23.0" height="22.0" rx="2" fill="url(#knuckler1x1226)" stroke="#2060ff" stroke-width=".8" filter="url(#wmr1x1226)"/><rect x="209.2" y="701.4" width="23.0" height="22.0" rx="2" fill="url(#knuckler1x1226)" stroke="#2060ff" stroke-width=".8" filter="url(#wmr1x1226)"/><rect x="845.3" y="698.6" width="23.0" height="22.0" rx="2" fill="url(#knuckler1x1226)" stroke="#2060ff" stroke-width=".8" filter="url(#wmr1x1226)"/><ellipse cx="184.6939723803103" cy="711.2873614410682" rx="45.1" ry="30.0" fill="#2060ff" fill-opacity=".25" filter="url(#glowr1x1226)"/><ellipse cx="816.5765985449032" cy="712.0195553137734" rx="45.1" ry="30.0" fill="#2060ff" fill-opacity=".25" filter="url(#glowr1x1226)"/></g><rect x="448.7728252130561" y="557.2789744422771" width="100.0"  height="56.0" fill="#003ccc" stroke="#2060ff" stroke-width="2.2" filter="url(#skr1x1226)"/><rect x="424.78282439839097" y="575.6705902094021" width="152.0" height="26.0" fill="url(#bevelr1x1226)" fill-opacity=".65" stroke="#2060ff" stroke-width="1.2" filter="url(#skr1x1226)"/><polygon points="307.6,382.1 350.3,295.5 498.4,278.1 648.0,293.1 692.0,380.5 669.4,504.5 499.5,565.0 329.8,503.8" fill="url(#suitr1x1226)" stroke="#2060ff" stroke-width="2.8" filter="url(#skr1x1226) url(#metalr1x1226)"/><polygon points="308.3,381.9 351.1,295.0 500.4,276.8 648.9,295.2 693.3,380.1 669.7,501.9 500.7,565.0 330.8,502.6" fill="url(#carbonr1x1226)"/><polygon points="382.1,303.4 500.8,287.9 620.7,302.9 608.5,379.9 390.9,379.0" fill="url(#suitHir1x1226)"/><polygon points="380.3,380.7 366.3,424.3 433.7,504.5 501.1,528.6 565.7,503.0 632.7,426.7 619.8,380.2" fill="#050508" fill-opacity=".88" stroke="#2060ff" stroke-width="1.8" filter="url(#skr1x1226)"/><polygon points="382.5,411.2 477.5,412.9 484.6,439.0 388.6,439.9" fill="#2060ff" filter="url(#glowr1x1226)"/><polygon points="524.3,412.5 617.8,409.8 612.3,441.7 516.3,441.5" fill="#2060ff" filter="url(#glowr1x1226)"/><ellipse cx="430.9" cy="425.7" rx="38.4"  ry="8.2" fill="#ffffff" opacity=".88"/><ellipse cx="569.1" cy="425.7" rx="38.4"  ry="8.2" fill="#ffffff" opacity=".88"/><line x1="485.1571351744793" y1="412.88386055873707" x2="515.6373441982456" y2="413.1541135872714" stroke="#2060ff" stroke-opacity=".52" stroke-width="2"/><line x1="485.979343615435" y1="439.77643652809786" x2="515.3099083636329" y2="438.0253572201356" stroke="#2060ff" stroke-opacity=".52" stroke-width="2"/><line x1="499.98614443494006" y1="456.06614943183956" x2="498.6484465274028" y2="482.9553881628439" stroke="#2060ff" stroke-opacity=".58" stroke-width="2.2" filter="url(#skr1x1226)"/><line x1="453.94612446937714" y1="491.684659291245" x2="454.4916635424644" y2="518.6858924526721" stroke="#2060ff" stroke-opacity=".52" stroke-width="1.5" filter="url(#skr1x1226)"/><line x1="476.11845294939354" y1="491.9128517268225" x2="478.04602756001054" y2="518.7566214670427" stroke="#2060ff" stroke-opacity=".52" stroke-width="1.5" filter="url(#skr1x1226)"/><line x1="500.82586994459854" y1="492.177760239318" x2="500.38998899478463" y2="520.8444967605174" stroke="#2060ff" stroke-opacity=".52" stroke-width="1.5" filter="url(#skr1x1226)"/><line x1="524.5883809363097" y1="492.76977069331326" x2="521.6474438563548" y2="520.1837361689657" stroke="#2060ff" stroke-opacity=".52" stroke-width="1.5" filter="url(#skr1x1226)"/><line x1="545.9595882855542" y1="491.4048122801818" x2="547.3582502525486" y2="519.7066372212023" stroke="#2060ff" stroke-opacity=".52" stroke-width="1.5" filter="url(#skr1x1226)"/><polygon points="433.2,504.2 566.6,504.7 554.2,557.3 445.1,555.5" fill="#003ccc" fill-opacity=".72" stroke="#2060ff" stroke-width="1.3" filter="url(#skr1x1226)"/><path d="M473.184514014218 309.49528725696723 C302.5908262776583 145.52981664454563 419.6435535582155 241.4466868643649 501.0287347079255 309.77974219331514" fill="#2060ff" fill-opacity=".92" stroke="#2060ff" stroke-width="2.2" filter="url(#skr1x1226)"/><path d="M473.58404263908045 311.89341427991167 C304.9979926735535 148.4293852395378 418.1324474440329 242.17134816627947 499.41148306792604 312.2479070924222" fill="url(#suitHir1x1226)" opacity=".28"/><path d="M526.8984531562961 312.28952388623725 C694.9654795674235 148.24021279783918 581.9504252850637 242.2552220424637 499.7997276201844 311.1412351965904" fill="#2060ff" fill-opacity=".92" stroke="#2060ff" stroke-width="2.2" filter="url(#skr1x1226)"/><path d="M526.6883994391375 309.7239633434452 C697.256401089076 146.06799030127002 580.8412090901844 239.42907540136946 499.51266829911617 310.62296060882505" fill="url(#suitHir1x1226)" opacity=".28"/><text x="30.0"  y="975.0" font-family="monospace" font-weight="bold" font-size="22.0" fill="rgba(255,255,255,.22)">#0001</text><text x="500.0"   y="975.0" text-anchor="middle" font-family="monospace" font-weight="bold" font-size="22.0" fill="#2060ff" fill-opacity=".48">COBALT RANGER</text><text x="970.0" y="975.0" text-anchor="end"    font-family="monospace" font-weight="bold" font-size="22.0" fill="#2060ff" fill-opacity=".32">MECH RANGERS</text></svg>