<svg xmlns="http://www.w3.org/2000/svg" viewBox="0 0 1000 1000" width="1000" height="1000" shape-rendering="geometricPrecision"><defs>

  <!-- Scene gradients -->
  <radialGradient id="bgr1x1270" cx="50%" cy="42%" r="72%">
    <stop offset="0%"   stop-color="#0a0a14"/>
    <stop offset="100%" stop-color="#050508"/>
  </radialGradient>
  <linearGradient id="suitr1x1270" x1="8%" y1="0%" x2="92%" y2="100%">
    <stop offset="0%"   stop-color="#4444ff" stop-opacity=".95"/>
    <stop offset="45%"  stop-color="#141428"/>
    <stop offset="100%" stop-color="#050508"/>
  </linearGradient>
  <linearGradient id="suitHir1x1270" x1="0%" y1="0%" x2="0%" y2="100%">
    <stop offset="0%"   stop-color="rgba(255,255,255,.28)"/>
    <stop offset="60%"  stop-color="rgba(255,255,255,.04)"/>
    <stop offset="100%" stop-color="rgba(255,255,255,0)"/>
  </linearGradient>
  <!-- Bevel: bright top, dark bottom for armour panels -->
  <linearGradient id="bevelr1x1270" x1="0%" y1="0%" x2="0%" y2="100%">
    <stop offset="0%"   stop-color="rgba(255,255,255,.55)"/>
    <stop offset="30%"  stop-color="#4444ff"/>
    <stop offset="70%"  stop-color="#141428"/>
    <stop offset="100%" stop-color="rgba(0,0,0,.5)"/>
  </linearGradient>

  <!-- Weapon: cold steel blade sweep -->
  <linearGradient id="blader1x1270" x1="0%" y1="0%" x2="100%" y2="0%">
    <stop offset="0%"   stop-color="#0e0e20"/>
    <stop offset="16%"  stop-color="#3e3e58"/>
    <stop offset="34%"  stop-color="#c8c8e0"/>
    <stop offset="50%"  stop-color="#f5f5ff"/>
    <stop offset="66%"  stop-color="#b8b8d0"/>
    <stop offset="84%"  stop-color="#2e2e48"/>
    <stop offset="100%" stop-color="#08080e"/>
  </linearGradient>
  <!-- Blade tip brightening -->
  <linearGradient id="bladeTipr1x1270" x1="0%" y1="100%" x2="0%" y2="0%">
    <stop offset="0%"   stop-color="rgba(255,255,255,0)"/>
    <stop offset="55%"  stop-color="rgba(255,255,255,.1)"/>
    <stop offset="100%" stop-color="rgba(255,255,255,.55)"/>
  </linearGradient>
  <!-- Gunmetal anodised — blaster body -->
  <linearGradient id="gunmetalr1x1270" x1="0%" y1="0%" x2="0%" y2="100%">
    <stop offset="0%"   stop-color="#46465e"/>
    <stop offset="18%"  stop-color="#828296"/>
    <stop offset="42%"  stop-color="#26263a"/>
    <stop offset="72%"  stop-color="#16162a"/>
    <stop offset="100%" stop-color="#0c0c18"/>
  </linearGradient>
  <!-- Brushed steel tube — barrel/rod -->
  <linearGradient id="barrelr1x1270" x1="0%" y1="0%" x2="100%" y2="0%">
    <stop offset="0%"   stop-color="#0a0a14"/>
    <stop offset="24%"  stop-color="#585875"/>
    <stop offset="50%"  stop-color="#a8a8c8"/>
    <stop offset="76%"  stop-color="#383852"/>
    <stop offset="100%" stop-color="#0a0a14"/>
  </linearGradient>
  <!-- Chrome rod — lance shaft -->
  <linearGradient id="chromer1x1270" x1="0%" y1="0%" x2="100%" y2="0%">
    <stop offset="0%"   stop-color="#0c0c18"/>
    <stop offset="20%"  stop-color="#686888"/>
    <stop offset="44%"  stop-color="#e0e0f0"/>
    <stop offset="56%"  stop-color="#c0c0d8"/>
    <stop offset="80%"  stop-color="#28283e"/>
    <stop offset="100%" stop-color="#0c0c18"/>
  </linearGradient>
  <!-- Titanium plate — shield face -->
  <linearGradient id="titaniumr1x1270" x1="0%" y1="0%" x2="100%" y2="100%">
    <stop offset="0%"   stop-color="#585878"/>
    <stop offset="28%"  stop-color="#4444ff" stop-opacity=".88"/>
    <stop offset="55%"  stop-color="#141428"/>
    <stop offset="80%"  stop-color="#181828"/>
    <stop offset="100%" stop-color="#0a0a18"/>
  </linearGradient>
  <!-- Artillery black-chrome — cannon body -->
  <linearGradient id="artilleryr1x1270" x1="0%" y1="0%" x2="0%" y2="100%">
    <stop offset="0%"   stop-color="#383850"/>
    <stop offset="14%"  stop-color="#78789a"/>
    <stop offset="36%"  stop-color="#202034"/>
    <stop offset="65%"  stop-color="#14141e"/>
    <stop offset="100%" stop-color="#0a0a12"/>
  </linearGradient>
  <!-- Energy orb — staff -->
  <radialGradient id="orbr1x1270" cx="35%" cy="35%" r="65%">
    <stop offset="0%"   stop-color="rgba(255,255,255,.9)"/>
    <stop offset="30%"  stop-color="#4444ff"/>
    <stop offset="68%"  stop-color="#141428"/>
    <stop offset="100%" stop-color="rgba(0,0,0,.6)"/>
  </radialGradient>
  <!-- Knuckle plate chrome -->
  <linearGradient id="knuckler1x1270" x1="0%" y1="0%" x2="0%" y2="100%">
    <stop offset="0%"   stop-color="#888aaa"/>
    <stop offset="32%"  stop-color="#4444ff" stop-opacity=".8"/>
    <stop offset="62%"  stop-color="#1a1a2c"/>
    <stop offset="100%" stop-color="#0a0a14"/>
  </linearGradient>

  <!-- Carbon fibre weave texture overlay -->
  <pattern id="carbonr1x1270" width="6" height="6" patternUnits="userSpaceOnUse">
    <rect width="6" height="6" fill="rgba(0,0,0,.08)"/>
    <rect x="0" y="0" width="3" height="3" fill="rgba(255,255,255,.022)"/>
    <rect x="3" y="3" width="3" height="3" fill="rgba(255,255,255,.022)"/>
    <line x1="0" y1="0" x2="3" y2="3" stroke="rgba(255,255,255,.038)" stroke-width=".5"/>
    <line x1="3" y1="0" x2="6" y2="3" stroke="rgba(0,0,0,.055)"       stroke-width=".5"/>
    <line x1="0" y1="3" x2="3" y2="6" stroke="rgba(0,0,0,.055)"       stroke-width=".5"/>
    <line x1="3" y1="3" x2="6" y2="6" stroke="rgba(255,255,255,.038)" stroke-width=".5"/>
  </pattern>

  <!-- Specular metal sheen on armour panels -->
  <filter id="metalr1x1270" x="-5%" y="-5%" width="110%" height="110%">
    <feSpecularLighting surfaceScale="4" specularConstant="1.8"
        specularExponent="42" lighting-color="#ffffff" result="spec">
      <feDistantLight elevation="52" azimuth="38"/>
    </feSpecularLighting>
    <feComposite in="spec" in2="SourceGraphic" operator="in" result="sm"/>
    <feComposite in="SourceGraphic" in2="sm" operator="arithmetic" k1="0" k2="1" k3="0.55" k4="0"/>
  </filter>

  <!-- Sharper specular for weapons — heavier glare -->
  <filter id="wmr1x1270" x="-8%" y="-8%" width="116%" height="116%">
    <feSpecularLighting surfaceScale="6" specularConstant="2.4"
        specularExponent="65" lighting-color="#ffffff" result="spec">
      <feDistantLight elevation="44" azimuth="28"/>
    </feSpecularLighting>
    <feComposite in="spec" in2="SourceGraphic" operator="in" result="sm"/>
    <feComposite in="SourceGraphic" in2="sm" operator="arithmetic" k1="0" k2="1" k3="0.78" k4="0"/>
  </filter>

  <!-- Sketch wobble -->
  <filter id="skr1x1270" x="-8%" y="-8%" width="116%" height="116%">
    <feTurbulence type="fractalNoise" baseFrequency="0.038"
        numOctaves="3" seed="36" result="noise"/>
    <feDisplacementMap in="SourceGraphic" in2="noise" scale="2.6"
        xChannelSelector="R" yChannelSelector="G" result="w"/>
    <feComposite in="w" in2="SourceGraphic" operator="atop"/>
  </filter>

  <!-- Glow: sharp accent -->
  <filter id="glowr1x1270" x="-20%" y="-20%" width="140%" height="140%">
    <feGaussianBlur stdDeviation="3.5" result="b"/>
    <feColorMatrix in="b" type="matrix"
        values="0 0 0 0 1  0 0 0 0 1  0 0 0 0 1  0 0 0 1.8 0" result="boost"/>
    <feMerge><feMergeNode in="boost"/><feMergeNode in="SourceGraphic"/></feMerge>
  </filter>

  <!-- Bloom: wide soft -->
  <filter id="bloomr1x1270" x="-40%" y="-40%" width="180%" height="180%">
    <feGaussianBlur stdDeviation="11" result="b"/>
    <feMerge><feMergeNode in="b"/><feMergeNode in="SourceGraphic"/></feMerge>
  </filter>

  </defs><rect width="1000" height="1000" fill="url(#bgr1x1270)"/><ellipse cx="500.0" cy="892.0" rx="350.0" ry="65.0" fill="rgba(0,0,0,.7)" filter="url(#bloomr1x1270)"/><ellipse cx="500.0" cy="889.0" rx="220.0" ry="34.0" fill="rgba(0,0,0,.45)"/><ellipse cx="500.0" cy="520.0" rx="320.0" ry="480.0" fill="#00e5ff" fill-opacity=".042" filter="url(#bloomr1x1270)"/><circle cx="424.9" cy="432.3" r="2.2" fill="#00e5ff" fill-opacity="0.56" filter="url(#glowr1x1270)"/><circle cx="717.4" cy="638.7" r="3.6" fill="#00e5ff" fill-opacity="0.83" filter="url(#glowr1x1270)"/><circle cx="325.3" cy="422.7" r="3.9" fill="#00e5ff" fill-opacity="0.71" filter="url(#glowr1x1270)"/><circle cx="706.6" cy="666.7" r="3.5" fill="#00e5ff" fill-opacity="0.68" filter="url(#glowr1x1270)"/><circle cx="370.5" cy="393.5" r="2.1" fill="#00e5ff" fill-opacity="0.89" filter="url(#glowr1x1270)"/><circle cx="318.9" cy="424.4" r="2.5" fill="#00e5ff" fill-opacity="0.53" filter="url(#glowr1x1270)"/><circle cx="325.7" cy="448.0" r="3.5" fill="#00e5ff" fill-opacity="0.49" filter="url(#glowr1x1270)"/><circle cx="647.6" cy="540.9" r="1.9" fill="#00e5ff" fill-opacity="0.74" filter="url(#glowr1x1270)"/><circle cx="671.8" cy="496.6" r="3.5" fill="#00e5ff" fill-opacity="0.79" filter="url(#glowr1x1270)"/><circle cx="268.7" cy="687.5" r="2.4" fill="#00e5ff" fill-opacity="0.83" filter="url(#glowr1x1270)"/><circle cx="393.0" cy="469.3" r="3.9" fill="#00e5ff" fill-opacity="0.40" filter="url(#glowr1x1270)"/><circle cx="645.5" cy="696.0" r="3.3" fill="#00e5ff" fill-opacity="0.85" filter="url(#glowr1x1270)"/><circle cx="354.3" cy="306.6" r="1.0" fill="#00e5ff" fill-opacity="0.67" filter="url(#glowr1x1270)"/><circle cx="261.3" cy="240.7" r="4.3" fill="#00e5ff" fill-opacity="0.45" filter="url(#glowr1x1270)"/><path d="M601.8,220.2 Q587.3,430.8 678.9,657.0" stroke="#00e5ff" stroke-opacity="0.57" stroke-width="2.4" fill="none" filter="url(#glowr1x1270)"/><path d="M525.1,147.3 Q543.2,510.5 552.0,874.8" stroke="#00e5ff" stroke-opacity="0.49" stroke-width="2.0" fill="none" filter="url(#glowr1x1270)"/><path d="M679.3,251.9 Q655.3,496.5 291.9,780.6" stroke="#00e5ff" stroke-opacity="0.45" stroke-width="1.2" fill="none" filter="url(#glowr1x1270)"/><path d="M346.6,338.6 Q386.0,505.0 553.7,702.6" stroke="#00e5ff" stroke-opacity="0.40" stroke-width="2.3" fill="none" filter="url(#glowr1x1270)"/><path d="M410.1,377.7 Q415.2,526.7 646.1,655.0" stroke="#00e5ff" stroke-opacity="0.75" stroke-width="1.5" fill="none" filter="url(#glowr1x1270)"/><polygon points="400.4,661.0 488.0,662.0 480.8,879.1 388.8,878.1" fill="url(#suitr1x1270)" stroke="#4444ff" stroke-width="2.2" filter="url(#skr1x1270) url(#metalr1x1270)"/><polygon points="399.0,661.2 488.9,661.3 480.8,877.3 388.8,878.4" fill="url(#carbonr1x1270)"/><polygon points="391.0,723.9 492.3,722.0 482.5,786.5 384.7,789.5" fill="url(#bevelr1x1270)" fill-opacity=".5" stroke="#4444ff" stroke-width="1.4" filter="url(#skr1x1270)"/><polygon points="510.8,663.7 602.4,661.7 611.7,876.8 519.9,878.7" fill="url(#suitr1x1270)" stroke="#4444ff" stroke-width="2.2" filter="url(#skr1x1270) url(#metalr1x1270)"/><polygon points="512.2,661.5 600.5,661.9 611.7,876.2 520.0,876.1" fill="url(#carbonr1x1270)"/><polygon points="506.2,722.2 608.5,725.3 615.4,788.8 514.6,789.4" fill="url(#bevelr1x1270)" fill-opacity=".5" stroke="#4444ff" stroke-width="1.4" filter="url(#skr1x1270)"/><rect x="394.3" y="839.1" width="100.3" height="24.7" fill="url(#bevelr1x1270)" stroke="#4444ff" stroke-width="1" filter="url(#skr1x1270)"/><rect x="508.8"  y="839.8" width="100.3" height="24.7" fill="url(#bevelr1x1270)" stroke="#4444ff" stroke-width="1" filter="url(#skr1x1270)"/><polygon points="369.1,876.8 495.3,875.9 503.1,923.0 362.4,921.5" fill="#141428" stroke="#4444ff" stroke-width="2" filter="url(#skr1x1270)"/><polygon points="504.4,875.9 628.5,878.8 638.6,920.4 495.9,922.6" fill="#141428" stroke="#4444ff" stroke-width="2" filter="url(#skr1x1270)"/><polygon points="302.8,632.4 696.0,632.9 637.1,682.9 361.5,682.7" fill="#4444ff" fill-opacity=".52" stroke="#4444ff" stroke-width="2" filter="url(#skr1x1270)"/><rect x="462.8" y="636.9" width="72.0" height="42.0" fill="url(#bevelr1x1270)" stroke="#4444ff" stroke-width="1.4" filter="url(#glowr1x1270)"/><rect x="485.0" y="640.6" width="28.0" height="22.0" rx="1" fill="rgba(255,255,255,.48)"/><polygon points="153.1,466.2 235.1,465.9 257.2,735.9 128.3,733.6" fill="url(#suitr1x1270)" stroke="#4444ff" stroke-width="2.2" filter="url(#skr1x1270) url(#metalr1x1270)"/><polygon points="174.2,433.5 254.2,433.0 241.9,510.9 159.6,512.0" fill="url(#bevelr1x1270)" fill-opacity=".72" stroke="#4444ff" stroke-width="2.2" filter="url(#skr1x1270)"/><polygon points="160.5,621.7 242.7,620.9 237.5,660.1 163.6,659.1" fill="#4444ff" fill-opacity=".42" stroke="#4444ff" stroke-width="1" filter="url(#skr1x1270)"/><polygon points="766.7,466.2 845.8,465.2 872.6,735.5 740.8,734.3" fill="url(#suitr1x1270)" stroke="#4444ff" stroke-width="2.2" filter="url(#skr1x1270) url(#metalr1x1270)"/><polygon points="747.6,432.5 827.3,431.2 839.0,510.1 756.1,510.3" fill="url(#bevelr1x1270)" fill-opacity=".72" stroke="#4444ff" stroke-width="2.2" filter="url(#skr1x1270)"/><polygon points="756.7,621.1 837.7,620.9 834.4,659.5 759.5,661.9" fill="#4444ff" fill-opacity=".42" stroke="#4444ff" stroke-width="1" filter="url(#skr1x1270)"/><rect x="121.0"  y="700.6" width="135.3" height="85.0" rx="4" fill="url(#bevelr1x1270)" stroke="#4444ff" stroke-width="1.8" filter="url(#skr1x1270)"/><rect x="749.5"   y="698.8" width="135.3" height="85.0" rx="4" fill="url(#bevelr1x1270)" stroke="#4444ff" stroke-width="1.8" filter="url(#skr1x1270)"/><line x1="148.8" y1="701.6" x2="148.9" y2="784.7" stroke="#4444ff" stroke-opacity=".38" stroke-width="1"/><line x1="779.0" y1="701.2" x2="779.5" y2="782.6" stroke="#4444ff" stroke-opacity=".38" stroke-width="1"/><line x1="182.8" y1="701.9" x2="182.1" y2="784.3" stroke="#4444ff" stroke-opacity=".38" stroke-width="1"/><line x1="812.3" y1="701.1" x2="811.0" y2="782.8" stroke="#4444ff" stroke-opacity=".38" stroke-width="1"/><line x1="215.0" y1="703.6" x2="213.9" y2="784.9" stroke="#4444ff" stroke-opacity=".38" stroke-width="1"/><line x1="844.3" y1="703.3" x2="845.0" y2="782.1" stroke="#4444ff" stroke-opacity=".38" stroke-width="1"/><polygon points="236.4,416.7 765.9,417.8 721.3,663.3 276.4,664.3" fill="url(#suitr1x1270)" stroke="#4444ff" stroke-width="2.6" filter="url(#skr1x1270) url(#metalr1x1270)"/><polygon points="235.0,417.1 766.6,418.2 724.2,661.9 276.2,663.6" fill="url(#carbonr1x1270)"/><polygon points="368.0,416.2 632.5,418.7 609.7,514.9 390.3,513.8" fill="url(#suitHir1x1270)"/><line x1="361.8" y1="471.1" x2="637.4" y2="471.7" stroke="#4444ff" stroke-opacity=".52" stroke-width="1.3" filter="url(#skr1x1270)"/><line x1="397.9" y1="548.9" x2="601.6" y2="550.7" stroke="#4444ff" stroke-opacity=".52" stroke-width="1.3" filter="url(#skr1x1270)"/><line x1="268.0" y1="491.4" x2="321.1" y2="490.2" stroke="#4444ff" stroke-opacity=".62" stroke-width="1.8"/><line x1="679.5" y1="491.0" x2="734.1" y2="491.8" stroke="#4444ff" stroke-opacity=".62" stroke-width="1.8"/><line x1="265.3" y1="521.6" x2="319.0" y2="524.5" stroke="#4444ff" stroke-opacity=".62" stroke-width="1.8"/><line x1="680.9" y1="522.6" x2="734.0" y2="521.8" stroke="#4444ff" stroke-opacity=".62" stroke-width="1.8"/><line x1="266.6" y1="555.5" x2="321.3" y2="556.5" stroke="#4444ff" stroke-opacity=".62" stroke-width="1.8"/><line x1="682.0" y1="556.2" x2="732.8" y2="555.8" stroke="#4444ff" stroke-opacity=".62" stroke-width="1.8"/><line x1="267.9" y1="588.1" x2="318.8" y2="587.0" stroke="#4444ff" stroke-opacity=".62" stroke-width="1.8"/><line x1="681.8" y1="587.4" x2="731.7" y2="585.9" stroke="#4444ff" stroke-opacity=".62" stroke-width="1.8"/><g filter="url(#glowr1x1270)"><circle cx="500.9" cy="501.0" r="31.3" fill="#4444ff" stroke="#050508" stroke-width="1.4" filter="url(#skr1x1270)"/><circle cx="487.3" cy="498.7" r="7.0" fill="#050508"/><circle cx="511.3" cy="498.1" r="7.0" fill="#050508"/><rect x="485.6" y="522.6" width="9.3" height="17.4" rx="1" fill="#4444ff" stroke="#050508" stroke-width=".6"/><rect x="494.7" y="520.5" width="9.3" height="17.4" rx="1" fill="#4444ff" stroke="#050508" stroke-width=".6"/><rect x="507.1" y="523.3" width="9.3" height="17.4" rx="1" fill="#4444ff" stroke="#050508" stroke-width=".6"/></g><g><polygon points="871.8,671.4 923.8,671.4 908.2,-28.6 887.4,-28.6" fill="url(#blader1x1270)" filter="url(#wmr1x1270)"/><polygon points="887.4,-28.6 908.2,-28.6 897.8,-138.6" fill="url(#blader1x1270)" filter="url(#wmr1x1270)"/><polygon points="896.0,671.4 899.7,671.4 898.4,-128.6 897.3,-128.6" fill="url(#bladeTipr1x1270)" opacity=".9"/><line x1="908.4258801626042" y1="670.9901796100661" x2="899.2999072602205" y2="-130.101092375163" stroke="rgba(255,255,255,.68)" stroke-width="1.5"/><line x1="887.9578989963234" y1="670.2298997484147" x2="895.1793957713992" y2="-128.16452275868508" stroke="#4444ff" stroke-width="1" stroke-opacity=".45"/><line x1="902.5" y1="651.4" x2="899.7" y2="11.4" stroke="rgba(0,0,0,.38)" stroke-width="1.6"/><line x1="893.2" y1="651.4" x2="896.0" y2="11.4" stroke="rgba(0,0,0,.38)" stroke-width="1.6"/><rect x="842.962135321144" y="668.2049261344597" width="112.0" height="28.0" rx="3" fill="url(#bevelr1x1270)" stroke="#4444ff" stroke-width="1.6" filter="url(#wmr1x1270)"/><rect x="866.3032547770628" y="674.2066575689241" width="64.0" height="10.0" rx="1" fill="rgba(255,255,255,.32)"/><rect x="884.1547563773207" y="676.9857427619397" width="24.0" height="6.0" rx="1" fill="#4444ff" fill-opacity=".35"/><rect x="887.0084749133886" y="686.7939674935303" width="24.0" height="6.0" rx="1" fill="#4444ff" fill-opacity=".35"/><rect x="884.3596145961061" y="691.865666975826" width="24.0" height="6.0" rx="1" fill="#4444ff" fill-opacity=".35"/><rect x="885.8849983133935" y="700.2381526934914" width="24.0" height="6.0" rx="1" fill="#4444ff" fill-opacity=".35"/><rect x="885.7806758883968" y="708.1285471021198" width="24.0" height="6.0" rx="1" fill="#4444ff" fill-opacity=".35"/><rect x="885.9833883030899" y="718.1093617612496" width="24.0" height="6.0" rx="1" fill="#4444ff" fill-opacity=".35"/><ellipse cx="899.3131602285058" cy="728.0258600481785" rx="22.0" ry="16.0" fill="url(#bevelr1x1270)" stroke="#4444ff" stroke-width="1.2" filter="url(#wmr1x1270)"/></g><rect x="450.78756807362663" y="556.6114611338824" width="100.0"  height="56.0" fill="#141428" stroke="#4444ff" stroke-width="2.2" filter="url(#skr1x1270)"/><rect x="423.32934191217646" y="575.6302877943963" width="152.0" height="26.0" fill="url(#bevelr1x1270)" fill-opacity=".65" stroke="#4444ff" stroke-width="1.2" filter="url(#skr1x1270)"/><polygon points="309.1,379.6 349.6,294.9 498.5,279.5 648.5,295.4 691.0,379.3 669.5,504.0 501.2,564.8 331.6,502.8" fill="url(#suitr1x1270)" stroke="#4444ff" stroke-width="2.8" filter="url(#skr1x1270) url(#metalr1x1270)"/><polygon points="306.7,379.3 350.2,294.9 498.9,277.4 650.0,294.4 691.2,379.1 670.5,503.3 499.6,564.2 329.6,505.2" fill="url(#carbonr1x1270)"/><polygon points="382.4,303.4 501.4,285.4 620.6,301.4 608.1,382.2 391.2,382.1" fill="url(#suitHir1x1270)"/><polygon points="382.4,381.3 366.3,427.2 431.6,504.7 501.0,526.6 566.2,505.2 634.9,425.1 617.9,379.9" fill="#050508" fill-opacity=".88" stroke="#4444ff" stroke-width="1.8" filter="url(#skr1x1270)"/><polygon points="381.8,411.1 475.5,413.1 483.3,440.6 387.4,440.8" fill="#4444ff" filter="url(#glowr1x1270)"/><polygon points="524.0,412.4 619.7,410.4 610.0,441.8 516.2,440.5" fill="#4444ff" filter="url(#glowr1x1270)"/><ellipse cx="430.9" cy="425.7" rx="38.4"  ry="8.2" fill="#ffffff" opacity=".88"/><ellipse cx="569.1" cy="425.7" rx="38.4"  ry="8.2" fill="#ffffff" opacity=".88"/><line x1="483.2795912109874" y1="413.983307047002" x2="516.2829126883671" y2="413.92561804605646" stroke="#4444ff" stroke-opacity=".52" stroke-width="2"/><line x1="483.9271468232013" y1="438.532505761832" x2="514.5103342245706" y2="438.0161158517003" stroke="#4444ff" stroke-opacity=".52" stroke-width="2"/><line x1="500.1811399205588" y1="452.9049120355397" x2="499.9441545994952" y2="482.6649481184781" stroke="#4444ff" stroke-opacity=".58" stroke-width="2.2" filter="url(#skr1x1270)"/><line x1="452.9899473936111" y1="492.1087385767139" x2="453.3336579505168" y2="521.7851460119709" stroke="#4444ff" stroke-opacity=".52" stroke-width="1.5" filter="url(#skr1x1270)"/><line x1="476.2808587564528" y1="490.78014003224666" x2="478.06065270280465" y2="520.1555001355707" stroke="#4444ff" stroke-opacity=".52" stroke-width="1.5" filter="url(#skr1x1270)"/><line x1="498.6372356330045" y1="491.5127746094949" x2="500.0430186939426" y2="520.0042823545634" stroke="#4444ff" stroke-opacity=".52" stroke-width="1.5" filter="url(#skr1x1270)"/><line x1="524.442275164891" y1="492.85451243594287" x2="522.9685934780724" y2="521.5779325898736" stroke="#4444ff" stroke-opacity=".52" stroke-width="1.5" filter="url(#skr1x1270)"/><line x1="547.2291324874573" y1="490.55840338543055" x2="547.0185579590686" y2="520.405182823725" stroke="#4444ff" stroke-opacity=".52" stroke-width="1.5" filter="url(#skr1x1270)"/><polygon points="432.8,503.1 567.5,502.4 554.1,557.9 447.4,556.4" fill="#141428" fill-opacity=".72" stroke="#4444ff" stroke-width="1.3" filter="url(#skr1x1270)"/><text x="30.0"  y="975.0" font-family="monospace" font-weight="bold" font-size="22.0" fill="rgba(255,255,255,.22)">#0001</text><text x="500.0"   y="975.0" text-anchor="middle" font-family="monospace" font-weight="bold" font-size="22.0" fill="#4444ff" fill-opacity=".48">OBSIDIAN RANGER</text><text x="970.0" y="975.0" text-anchor="end"    font-family="monospace" font-weight="bold" font-size="22.0" fill="#4444ff" fill-opacity=".32">MECH RANGERS</text></svg>