<svg xmlns="http://www.w3.org/2000/svg" viewBox="0 0 1000 1000" width="1000" height="1000" shape-rendering="geometricPrecision"><defs>

  <!-- Scene gradients -->
  <radialGradient id="bgr1x1311" cx="50%" cy="42%" r="72%">
    <stop offset="0%"   stop-color="#0e000e"/>
    <stop offset="100%" stop-color="#1e0600"/>
  </radialGradient>
  <linearGradient id="suitr1x1311" x1="8%" y1="0%" x2="92%" y2="100%">
    <stop offset="0%"   stop-color="#ffcc00" stop-opacity=".95"/>
    <stop offset="45%"  stop-color="#a07000"/>
    <stop offset="100%" stop-color="#1e0600"/>
  </linearGradient>
  <linearGradient id="suitHir1x1311" x1="0%" y1="0%" x2="0%" y2="100%">
    <stop offset="0%"   stop-color="rgba(255,255,255,.28)"/>
    <stop offset="60%"  stop-color="rgba(255,255,255,.04)"/>
    <stop offset="100%" stop-color="rgba(255,255,255,0)"/>
  </linearGradient>
  <!-- Bevel: bright top, dark bottom for armour panels -->
  <linearGradient id="bevelr1x1311" x1="0%" y1="0%" x2="0%" y2="100%">
    <stop offset="0%"   stop-color="rgba(255,255,255,.55)"/>
    <stop offset="30%"  stop-color="#ffcc00"/>
    <stop offset="70%"  stop-color="#a07000"/>
    <stop offset="100%" stop-color="rgba(0,0,0,.5)"/>
  </linearGradient>

  <!-- Weapon: cold steel blade sweep -->
  <linearGradient id="blader1x1311" x1="0%" y1="0%" x2="100%" y2="0%">
    <stop offset="0%"   stop-color="#0e0e20"/>
    <stop offset="16%"  stop-color="#3e3e58"/>
    <stop offset="34%"  stop-color="#c8c8e0"/>
    <stop offset="50%"  stop-color="#f5f5ff"/>
    <stop offset="66%"  stop-color="#b8b8d0"/>
    <stop offset="84%"  stop-color="#2e2e48"/>
    <stop offset="100%" stop-color="#08080e"/>
  </linearGradient>
  <!-- Blade tip brightening -->
  <linearGradient id="bladeTipr1x1311" x1="0%" y1="100%" x2="0%" y2="0%">
    <stop offset="0%"   stop-color="rgba(255,255,255,0)"/>
    <stop offset="55%"  stop-color="rgba(255,255,255,.1)"/>
    <stop offset="100%" stop-color="rgba(255,255,255,.55)"/>
  </linearGradient>
  <!-- Gunmetal anodised — blaster body -->
  <linearGradient id="gunmetalr1x1311" x1="0%" y1="0%" x2="0%" y2="100%">
    <stop offset="0%"   stop-color="#46465e"/>
    <stop offset="18%"  stop-color="#828296"/>
    <stop offset="42%"  stop-color="#26263a"/>
    <stop offset="72%"  stop-color="#16162a"/>
    <stop offset="100%" stop-color="#0c0c18"/>
  </linearGradient>
  <!-- Brushed steel tube — barrel/rod -->
  <linearGradient id="barrelr1x1311" x1="0%" y1="0%" x2="100%" y2="0%">
    <stop offset="0%"   stop-color="#0a0a14"/>
    <stop offset="24%"  stop-color="#585875"/>
    <stop offset="50%"  stop-color="#a8a8c8"/>
    <stop offset="76%"  stop-color="#383852"/>
    <stop offset="100%" stop-color="#0a0a14"/>
  </linearGradient>
  <!-- Chrome rod — lance shaft -->
  <linearGradient id="chromer1x1311" x1="0%" y1="0%" x2="100%" y2="0%">
    <stop offset="0%"   stop-color="#0c0c18"/>
    <stop offset="20%"  stop-color="#686888"/>
    <stop offset="44%"  stop-color="#e0e0f0"/>
    <stop offset="56%"  stop-color="#c0c0d8"/>
    <stop offset="80%"  stop-color="#28283e"/>
    <stop offset="100%" stop-color="#0c0c18"/>
  </linearGradient>
  <!-- Titanium plate — shield face -->
  <linearGradient id="titaniumr1x1311" x1="0%" y1="0%" x2="100%" y2="100%">
    <stop offset="0%"   stop-color="#585878"/>
    <stop offset="28%"  stop-color="#ffcc00" stop-opacity=".88"/>
    <stop offset="55%"  stop-color="#a07000"/>
    <stop offset="80%"  stop-color="#181828"/>
    <stop offset="100%" stop-color="#0a0a18"/>
  </linearGradient>
  <!-- Artillery black-chrome — cannon body -->
  <linearGradient id="artilleryr1x1311" x1="0%" y1="0%" x2="0%" y2="100%">
    <stop offset="0%"   stop-color="#383850"/>
    <stop offset="14%"  stop-color="#78789a"/>
    <stop offset="36%"  stop-color="#202034"/>
    <stop offset="65%"  stop-color="#14141e"/>
    <stop offset="100%" stop-color="#0a0a12"/>
  </linearGradient>
  <!-- Energy orb — staff -->
  <radialGradient id="orbr1x1311" cx="35%" cy="35%" r="65%">
    <stop offset="0%"   stop-color="rgba(255,255,255,.9)"/>
    <stop offset="30%"  stop-color="#ffcc00"/>
    <stop offset="68%"  stop-color="#a07000"/>
    <stop offset="100%" stop-color="rgba(0,0,0,.6)"/>
  </radialGradient>
  <!-- Knuckle plate chrome -->
  <linearGradient id="knuckler1x1311" x1="0%" y1="0%" x2="0%" y2="100%">
    <stop offset="0%"   stop-color="#888aaa"/>
    <stop offset="32%"  stop-color="#ffcc00" stop-opacity=".8"/>
    <stop offset="62%"  stop-color="#1a1a2c"/>
    <stop offset="100%" stop-color="#0a0a14"/>
  </linearGradient>

  <!-- Carbon fibre weave texture overlay -->
  <pattern id="carbonr1x1311" width="6" height="6" patternUnits="userSpaceOnUse">
    <rect width="6" height="6" fill="rgba(0,0,0,.08)"/>
    <rect x="0" y="0" width="3" height="3" fill="rgba(255,255,255,.022)"/>
    <rect x="3" y="3" width="3" height="3" fill="rgba(255,255,255,.022)"/>
    <line x1="0" y1="0" x2="3" y2="3" stroke="rgba(255,255,255,.038)" stroke-width=".5"/>
    <line x1="3" y1="0" x2="6" y2="3" stroke="rgba(0,0,0,.055)"       stroke-width=".5"/>
    <line x1="0" y1="3" x2="3" y2="6" stroke="rgba(0,0,0,.055)"       stroke-width=".5"/>
    <line x1="3" y1="3" x2="6" y2="6" stroke="rgba(255,255,255,.038)" stroke-width=".5"/>
  </pattern>

  <!-- Specular metal sheen on armour panels -->
  <filter id="metalr1x1311" x="-5%" y="-5%" width="110%" height="110%">
    <feSpecularLighting surfaceScale="4" specularConstant="1.8"
        specularExponent="42" lighting-color="#ffffff" result="spec">
      <feDistantLight elevation="52" azimuth="38"/>
    </feSpecularLighting>
    <feComposite in="spec" in2="SourceGraphic" operator="in" result="sm"/>
    <feComposite in="SourceGraphic" in2="sm" operator="arithmetic" k1="0" k2="1" k3="0.55" k4="0"/>
  </filter>

  <!-- Sharper specular for weapons — heavier glare -->
  <filter id="wmr1x1311" x="-8%" y="-8%" width="116%" height="116%">
    <feSpecularLighting surfaceScale="6" specularConstant="2.4"
        specularExponent="65" lighting-color="#ffffff" result="spec">
      <feDistantLight elevation="44" azimuth="28"/>
    </feSpecularLighting>
    <feComposite in="spec" in2="SourceGraphic" operator="in" result="sm"/>
    <feComposite in="SourceGraphic" in2="sm" operator="arithmetic" k1="0" k2="1" k3="0.78" k4="0"/>
  </filter>

  <!-- Sketch wobble -->
  <filter id="skr1x1311" x="-8%" y="-8%" width="116%" height="116%">
    <feTurbulence type="fractalNoise" baseFrequency="0.038"
        numOctaves="3" seed="50" result="noise"/>
    <feDisplacementMap in="SourceGraphic" in2="noise" scale="2.6"
        xChannelSelector="R" yChannelSelector="G" result="w"/>
    <feComposite in="w" in2="SourceGraphic" operator="atop"/>
  </filter>

  <!-- Glow: sharp accent -->
  <filter id="glowr1x1311" x="-20%" y="-20%" width="140%" height="140%">
    <feGaussianBlur stdDeviation="3.5" result="b"/>
    <feColorMatrix in="b" type="matrix"
        values="0 0 0 0 1  0 0 0 0 1  0 0 0 0 1  0 0 0 1.8 0" result="boost"/>
    <feMerge><feMergeNode in="boost"/><feMergeNode in="SourceGraphic"/></feMerge>
  </filter>

  <!-- Bloom: wide soft -->
  <filter id="bloomr1x1311" x="-40%" y="-40%" width="180%" height="180%">
    <feGaussianBlur stdDeviation="11" result="b"/>
    <feMerge><feMergeNode in="b"/><feMergeNode in="SourceGraphic"/></feMerge>
  </filter>

  </defs><rect width="1000" height="1000" fill="url(#bgr1x1311)"/><ellipse cx="500.0" cy="1000" rx="850.0" ry="350.0" fill="#ff4500" fill-opacity=".11" filter="url(#bloomr1x1311)"/><ellipse cx="500.0" cy="892.0" rx="350.0" ry="65.0" fill="rgba(0,0,0,.7)" filter="url(#bloomr1x1311)"/><ellipse cx="500.0" cy="889.0" rx="220.0" ry="34.0" fill="rgba(0,0,0,.45)"/><polygon points="400.0,661.7 488.5,664.0 480.9,876.6 388.3,877.7" fill="url(#suitr1x1311)" stroke="#ffcc00" stroke-width="2.2" filter="url(#skr1x1311) url(#metalr1x1311)"/><polygon points="397.6,661.0 489.2,663.5 481.5,877.8 388.9,878.7" fill="url(#carbonr1x1311)"/><polygon points="394.1,725.5 493.5,723.4 485.8,789.4 384.7,789.3" fill="url(#bevelr1x1311)" fill-opacity=".5" stroke="#ffcc00" stroke-width="1.4" filter="url(#skr1x1311)"/><polygon points="509.0,662.5 601.5,661.7 611.8,879.1 518.4,879.1" fill="url(#suitr1x1311)" stroke="#ffcc00" stroke-width="2.2" filter="url(#skr1x1311) url(#metalr1x1311)"/><polygon points="510.2,660.9 602.6,663.0 611.9,879.1 521.1,876.6" fill="url(#carbonr1x1311)"/><polygon points="505.4,724.1 608.3,724.4 616.2,787.9 514.6,789.8" fill="url(#bevelr1x1311)" fill-opacity=".5" stroke="#ffcc00" stroke-width="1.4" filter="url(#skr1x1311)"/><rect x="391.0" y="839.9" width="100.3" height="24.7" fill="url(#bevelr1x1311)" stroke="#ffcc00" stroke-width="1" filter="url(#skr1x1311)"/><rect x="508.7"  y="838.1" width="100.3" height="24.7" fill="url(#bevelr1x1311)" stroke="#ffcc00" stroke-width="1" filter="url(#skr1x1311)"/><polygon points="370.9,878.5 497.3,876.9 505.1,922.1 362.0,920.1" fill="#a07000" stroke="#ffcc00" stroke-width="2" filter="url(#skr1x1311)"/><polygon points="502.8,879.0 631.4,876.7 636.0,919.8 496.6,919.9" fill="#a07000" stroke="#ffcc00" stroke-width="2" filter="url(#skr1x1311)"/><polygon points="302.5,633.0 696.9,633.5 637.1,683.7 363.2,683.6" fill="#ffcc00" fill-opacity=".52" stroke="#ffcc00" stroke-width="2" filter="url(#skr1x1311)"/><rect x="463.6" y="637.7" width="72.0" height="42.0" fill="url(#bevelr1x1311)" stroke="#ffcc00" stroke-width="1.4" filter="url(#glowr1x1311)"/><rect x="487.7" y="638.9" width="28.0" height="22.0" rx="1" fill="rgba(255,255,255,.48)"/><polygon points="153.7,464.8 233.6,465.4 256.3,736.6 129.7,736.5" fill="url(#suitr1x1311)" stroke="#ffcc00" stroke-width="2.2" filter="url(#skr1x1311) url(#metalr1x1311)"/><polygon points="174.5,432.4 254.3,432.6 241.8,509.0 160.5,509.2" fill="url(#bevelr1x1311)" fill-opacity=".72" stroke="#ffcc00" stroke-width="2.2" filter="url(#skr1x1311)"/><polygon points="162.3,620.3 242.4,622.4 239.9,660.8 167.0,661.8" fill="#ffcc00" fill-opacity=".42" stroke="#ffcc00" stroke-width="1" filter="url(#skr1x1311)"/><polygon points="763.6,467.6 848.4,467.9 872.0,733.8 740.6,735.3" fill="url(#suitr1x1311)" stroke="#ffcc00" stroke-width="2.2" filter="url(#skr1x1311) url(#metalr1x1311)"/><polygon points="747.4,433.9 825.7,432.8 839.8,511.5 758.3,509.8" fill="url(#bevelr1x1311)" fill-opacity=".72" stroke="#ffcc00" stroke-width="2.2" filter="url(#skr1x1311)"/><polygon points="758.0,620.3 839.1,621.1 833.1,662.0 759.8,659.4" fill="#ffcc00" fill-opacity=".42" stroke="#ffcc00" stroke-width="1" filter="url(#skr1x1311)"/><rect x="119.2"  y="700.7" width="135.3" height="85.0" rx="4" fill="url(#bevelr1x1311)" stroke="#ffcc00" stroke-width="1.8" filter="url(#skr1x1311)"/><rect x="748.9"   y="699.3" width="135.3" height="85.0" rx="4" fill="url(#bevelr1x1311)" stroke="#ffcc00" stroke-width="1.8" filter="url(#skr1x1311)"/><line x1="148.7" y1="703.2" x2="149.9" y2="785.0" stroke="#ffcc00" stroke-opacity=".38" stroke-width="1"/><line x1="777.3" y1="700.2" x2="779.0" y2="785.5" stroke="#ffcc00" stroke-opacity=".38" stroke-width="1"/><line x1="181.6" y1="701.7" x2="181.0" y2="783.4" stroke="#ffcc00" stroke-opacity=".38" stroke-width="1"/><line x1="811.3" y1="700.6" x2="810.4" y2="784.7" stroke="#ffcc00" stroke-opacity=".38" stroke-width="1"/><line x1="214.2" y1="700.7" x2="215.5" y2="785.5" stroke="#ffcc00" stroke-opacity=".38" stroke-width="1"/><line x1="842.9" y1="701.5" x2="843.3" y2="784.8" stroke="#ffcc00" stroke-opacity=".38" stroke-width="1"/><polygon points="233.9,417.0 764.8,416.6 723.0,663.5 275.7,662.5" fill="url(#suitr1x1311)" stroke="#ffcc00" stroke-width="2.6" filter="url(#skr1x1311) url(#metalr1x1311)"/><polygon points="235.0,418.9 764.5,418.9 722.6,663.1 277.7,660.7" fill="url(#carbonr1x1311)"/><polygon points="367.7,418.7 632.6,419.2 609.6,514.2 389.1,514.6" fill="url(#suitHir1x1311)"/><line x1="361.3" y1="472.0" x2="637.9" y2="470.4" stroke="#ffcc00" stroke-opacity=".52" stroke-width="1.3" filter="url(#skr1x1311)"/><line x1="400.5" y1="551.4" x2="600.4" y2="548.3" stroke="#ffcc00" stroke-opacity=".52" stroke-width="1.3" filter="url(#skr1x1311)"/><line x1="267.3" y1="492.1" x2="320.1" y2="491.0" stroke="#ffcc00" stroke-opacity=".62" stroke-width="1.8"/><line x1="680.5" y1="491.4" x2="734.1" y2="489.8" stroke="#ffcc00" stroke-opacity=".62" stroke-width="1.8"/><line x1="268.1" y1="523.9" x2="320.5" y2="523.0" stroke="#ffcc00" stroke-opacity=".62" stroke-width="1.8"/><line x1="680.9" y1="521.4" x2="734.1" y2="524.0" stroke="#ffcc00" stroke-opacity=".62" stroke-width="1.8"/><line x1="265.9" y1="554.3" x2="318.0" y2="553.7" stroke="#ffcc00" stroke-opacity=".62" stroke-width="1.8"/><line x1="681.0" y1="553.8" x2="732.5" y2="554.5" stroke="#ffcc00" stroke-opacity=".62" stroke-width="1.8"/><line x1="268.4" y1="586.6" x2="319.2" y2="587.4" stroke="#ffcc00" stroke-opacity=".62" stroke-width="1.8"/><line x1="679.5" y1="586.6" x2="733.5" y2="585.1" stroke="#ffcc00" stroke-opacity=".62" stroke-width="1.8"/><g filter="url(#glowr1x1311)"><ellipse cx="500.2" cy="512.2" rx="42.9" ry="23.2" fill="#1e0600" stroke="#ffcc00" stroke-width="1.6" filter="url(#skr1x1311)"/><circle cx="499.9" cy="510.2" r="15.1" fill="#ffcc00"/><circle cx="495.6" cy="506.1" r="5.8" fill="#1e0600"/><ellipse cx="496.7" cy="503.8" rx="3.5" ry="2.3" fill="rgba(255,255,255,.7)"/></g><g><polygon points="871.8,671.4 923.8,671.4 908.2,-28.6 887.4,-28.6" fill="url(#blader1x1311)" filter="url(#wmr1x1311)"/><polygon points="887.4,-28.6 908.2,-28.6 897.8,-138.6" fill="url(#blader1x1311)" filter="url(#wmr1x1311)"/><polygon points="896.0,671.4 899.7,671.4 898.4,-128.6 897.3,-128.6" fill="url(#bladeTipr1x1311)" opacity=".9"/><line x1="907.0730362163857" y1="671.2926055312156" x2="897.6980540120229" y2="-128.84196405336263" stroke="rgba(255,255,255,.68)" stroke-width="1.5"/><line x1="888.1033419620433" y1="672.276822990831" x2="896.7198906963691" y2="-130.04400994321333" stroke="#ffcc00" stroke-width="1" stroke-opacity=".45"/><line x1="902.5" y1="651.4" x2="899.7" y2="11.4" stroke="rgba(0,0,0,.38)" stroke-width="1.6"/><line x1="893.2" y1="651.4" x2="896.0" y2="11.4" stroke="rgba(0,0,0,.38)" stroke-width="1.6"/><rect x="841.0504210189544" y="669.0135598787107" width="112.0" height="28.0" rx="3" fill="url(#bevelr1x1311)" stroke="#ffcc00" stroke-width="1.6" filter="url(#wmr1x1311)"/><rect x="864.4399531003647" y="672.4692389476113" width="64.0" height="10.0" rx="1" fill="rgba(255,255,255,.32)"/><rect x="886.0068148415163" y="677.3857750017196" width="24.0" height="6.0" rx="1" fill="#ffcc00" fill-opacity=".35"/><rect x="884.6425334187784" y="684.6959359259345" width="24.0" height="6.0" rx="1" fill="#ffcc00" fill-opacity=".35"/><rect x="886.5521299191379" y="692.2292774231173" width="24.0" height="6.0" rx="1" fill="#ffcc00" fill-opacity=".35"/><rect x="887.1130002592319" y="700.7094754035585" width="24.0" height="6.0" rx="1" fill="#ffcc00" fill-opacity=".35"/><rect x="886.6064399544708" y="707.6207023100927" width="24.0" height="6.0" rx="1" fill="#ffcc00" fill-opacity=".35"/><rect x="885.0886868100241" y="716.6632566808722" width="24.0" height="6.0" rx="1" fill="#ffcc00" fill-opacity=".35"/><ellipse cx="898.6567053384707" cy="725.1595436926931" rx="22.0" ry="16.0" fill="url(#bevelr1x1311)" stroke="#ffcc00" stroke-width="1.2" filter="url(#wmr1x1311)"/></g><rect x="448.66639313846827" y="558.6940193947404" width="100.0"  height="56.0" fill="#a07000" stroke="#ffcc00" stroke-width="2.2" filter="url(#skr1x1311)"/><rect x="425.47012853771446" y="576.6494499456138" width="152.0" height="26.0" fill="url(#bevelr1x1311)" fill-opacity=".65" stroke="#ffcc00" stroke-width="1.2" filter="url(#skr1x1311)"/><polygon points="308.5,382.3 350.6,294.6 501.2,279.2 648.2,295.2 693.6,379.3 668.0,502.5 500.2,566.7 331.4,502.2" fill="url(#suitr1x1311)" stroke="#ffcc00" stroke-width="2.8" filter="url(#skr1x1311) url(#metalr1x1311)"/><polygon points="307.2,380.6 350.6,293.2 498.7,278.9 651.4,296.0 693.4,379.3 670.1,501.9 499.9,564.1 332.3,504.0" fill="url(#carbonr1x1311)"/><polygon points="381.8,304.1 500.1,285.3 619.2,303.4 605.9,378.9 392.2,380.3" fill="url(#suitHir1x1311)"/><polygon points="380.9,380.9 364.5,427.0 431.1,503.0 500.6,528.2 568.0,502.8 633.0,426.8 618.2,382.1" fill="#1e0600" fill-opacity=".88" stroke="#ffcc00" stroke-width="1.8" filter="url(#skr1x1311)"/><polygon points="379.7,411.1 477.4,411.7 485.5,439.3 389.3,438.9" fill="#ffcc00" filter="url(#glowr1x1311)"/><polygon points="524.2,410.3 617.3,410.2 609.7,438.7 515.7,440.1" fill="#ffcc00" filter="url(#glowr1x1311)"/><ellipse cx="430.9" cy="425.7" rx="38.4"  ry="8.2" fill="#ffffff" opacity=".88"/><ellipse cx="569.1" cy="425.7" rx="38.4"  ry="8.2" fill="#ffffff" opacity=".88"/><line x1="484.8011773687415" y1="414.11394716268404" x2="514.4814026893489" y2="414.2685158793814" stroke="#ffcc00" stroke-opacity=".52" stroke-width="2"/><line x1="483.6806633214094" y1="438.09804211053995" x2="515.2072961704247" y2="436.6566739328206" stroke="#ffcc00" stroke-opacity=".52" stroke-width="2"/><line x1="501.73931986913084" y1="452.7884223250672" x2="498.6066666661762" y2="482.9464657308534" stroke="#ffcc00" stroke-opacity=".58" stroke-width="2.2" filter="url(#skr1x1311)"/><line x1="454.6167617264949" y1="491.84720249529926" x2="453.39317292811353" y2="520.7986183456145" stroke="#ffcc00" stroke-opacity=".52" stroke-width="1.5" filter="url(#skr1x1311)"/><line x1="476.7577331236936" y1="491.6516014783643" x2="476.86474121021104" y2="518.4642107006163" stroke="#ffcc00" stroke-opacity=".52" stroke-width="1.5" filter="url(#skr1x1311)"/><line x1="499.3022058711387" y1="491.4911398495547" x2="500.63847873024645" y2="519.9915835960768" stroke="#ffcc00" stroke-opacity=".52" stroke-width="1.5" filter="url(#skr1x1311)"/><line x1="522.7086820483767" y1="490.8301990353502" x2="522.5652597256563" y2="519.5208823597059" stroke="#ffcc00" stroke-opacity=".52" stroke-width="1.5" filter="url(#skr1x1311)"/><line x1="547.573668179866" y1="492.54981448343017" x2="545.96482265668" y2="519.7293246358633" stroke="#ffcc00" stroke-opacity=".52" stroke-width="1.5" filter="url(#skr1x1311)"/><polygon points="434.2,504.8 565.8,502.1 554.1,556.6 445.6,557.7" fill="#a07000" fill-opacity=".72" stroke="#ffcc00" stroke-width="1.3" filter="url(#skr1x1311)"/><text x="30.0"  y="975.0" font-family="monospace" font-weight="bold" font-size="22.0" fill="rgba(255,255,255,.22)">#0001</text><text x="500.0"   y="975.0" text-anchor="middle" font-family="monospace" font-weight="bold" font-size="22.0" fill="#ffcc00" fill-opacity=".48">NOVA RANGER</text><text x="970.0" y="975.0" text-anchor="end"    font-family="monospace" font-weight="bold" font-size="22.0" fill="#ffcc00" fill-opacity=".32">MECH RANGERS</text></svg>