<svg xmlns="http://www.w3.org/2000/svg" viewBox="0 0 1000 1000" width="1000" height="1000" shape-rendering="geometricPrecision"><defs>

  <!-- Scene gradients -->
  <radialGradient id="bgr1x1364" cx="50%" cy="42%" r="72%">
    <stop offset="0%"   stop-color="#1e0032"/>
    <stop offset="100%" stop-color="#08001e"/>
  </radialGradient>
  <linearGradient id="suitr1x1364" x1="8%" y1="0%" x2="92%" y2="100%">
    <stop offset="0%"   stop-color="#ccccff" stop-opacity=".95"/>
    <stop offset="45%"  stop-color="#242438"/>
    <stop offset="100%" stop-color="#08001e"/>
  </linearGradient>
  <linearGradient id="suitHir1x1364" x1="0%" y1="0%" x2="0%" y2="100%">
    <stop offset="0%"   stop-color="rgba(255,255,255,.28)"/>
    <stop offset="60%"  stop-color="rgba(255,255,255,.04)"/>
    <stop offset="100%" stop-color="rgba(255,255,255,0)"/>
  </linearGradient>
  <!-- Bevel: bright top, dark bottom for armour panels -->
  <linearGradient id="bevelr1x1364" x1="0%" y1="0%" x2="0%" y2="100%">
    <stop offset="0%"   stop-color="rgba(255,255,255,.55)"/>
    <stop offset="30%"  stop-color="#ccccff"/>
    <stop offset="70%"  stop-color="#242438"/>
    <stop offset="100%" stop-color="rgba(0,0,0,.5)"/>
  </linearGradient>

  <!-- Weapon: cold steel blade sweep -->
  <linearGradient id="blader1x1364" x1="0%" y1="0%" x2="100%" y2="0%">
    <stop offset="0%"   stop-color="#0e0e20"/>
    <stop offset="16%"  stop-color="#3e3e58"/>
    <stop offset="34%"  stop-color="#c8c8e0"/>
    <stop offset="50%"  stop-color="#f5f5ff"/>
    <stop offset="66%"  stop-color="#b8b8d0"/>
    <stop offset="84%"  stop-color="#2e2e48"/>
    <stop offset="100%" stop-color="#08080e"/>
  </linearGradient>
  <!-- Blade tip brightening -->
  <linearGradient id="bladeTipr1x1364" x1="0%" y1="100%" x2="0%" y2="0%">
    <stop offset="0%"   stop-color="rgba(255,255,255,0)"/>
    <stop offset="55%"  stop-color="rgba(255,255,255,.1)"/>
    <stop offset="100%" stop-color="rgba(255,255,255,.55)"/>
  </linearGradient>
  <!-- Gunmetal anodised — blaster body -->
  <linearGradient id="gunmetalr1x1364" x1="0%" y1="0%" x2="0%" y2="100%">
    <stop offset="0%"   stop-color="#46465e"/>
    <stop offset="18%"  stop-color="#828296"/>
    <stop offset="42%"  stop-color="#26263a"/>
    <stop offset="72%"  stop-color="#16162a"/>
    <stop offset="100%" stop-color="#0c0c18"/>
  </linearGradient>
  <!-- Brushed steel tube — barrel/rod -->
  <linearGradient id="barrelr1x1364" x1="0%" y1="0%" x2="100%" y2="0%">
    <stop offset="0%"   stop-color="#0a0a14"/>
    <stop offset="24%"  stop-color="#585875"/>
    <stop offset="50%"  stop-color="#a8a8c8"/>
    <stop offset="76%"  stop-color="#383852"/>
    <stop offset="100%" stop-color="#0a0a14"/>
  </linearGradient>
  <!-- Chrome rod — lance shaft -->
  <linearGradient id="chromer1x1364" x1="0%" y1="0%" x2="100%" y2="0%">
    <stop offset="0%"   stop-color="#0c0c18"/>
    <stop offset="20%"  stop-color="#686888"/>
    <stop offset="44%"  stop-color="#e0e0f0"/>
    <stop offset="56%"  stop-color="#c0c0d8"/>
    <stop offset="80%"  stop-color="#28283e"/>
    <stop offset="100%" stop-color="#0c0c18"/>
  </linearGradient>
  <!-- Titanium plate — shield face -->
  <linearGradient id="titaniumr1x1364" x1="0%" y1="0%" x2="100%" y2="100%">
    <stop offset="0%"   stop-color="#585878"/>
    <stop offset="28%"  stop-color="#ccccff" stop-opacity=".88"/>
    <stop offset="55%"  stop-color="#242438"/>
    <stop offset="80%"  stop-color="#181828"/>
    <stop offset="100%" stop-color="#0a0a18"/>
  </linearGradient>
  <!-- Artillery black-chrome — cannon body -->
  <linearGradient id="artilleryr1x1364" x1="0%" y1="0%" x2="0%" y2="100%">
    <stop offset="0%"   stop-color="#383850"/>
    <stop offset="14%"  stop-color="#78789a"/>
    <stop offset="36%"  stop-color="#202034"/>
    <stop offset="65%"  stop-color="#14141e"/>
    <stop offset="100%" stop-color="#0a0a12"/>
  </linearGradient>
  <!-- Energy orb — staff -->
  <radialGradient id="orbr1x1364" cx="35%" cy="35%" r="65%">
    <stop offset="0%"   stop-color="rgba(255,255,255,.9)"/>
    <stop offset="30%"  stop-color="#ccccff"/>
    <stop offset="68%"  stop-color="#242438"/>
    <stop offset="100%" stop-color="rgba(0,0,0,.6)"/>
  </radialGradient>
  <!-- Knuckle plate chrome -->
  <linearGradient id="knuckler1x1364" x1="0%" y1="0%" x2="0%" y2="100%">
    <stop offset="0%"   stop-color="#888aaa"/>
    <stop offset="32%"  stop-color="#ccccff" stop-opacity=".8"/>
    <stop offset="62%"  stop-color="#1a1a2c"/>
    <stop offset="100%" stop-color="#0a0a14"/>
  </linearGradient>

  <!-- Carbon fibre weave texture overlay -->
  <pattern id="carbonr1x1364" width="6" height="6" patternUnits="userSpaceOnUse">
    <rect width="6" height="6" fill="rgba(0,0,0,.08)"/>
    <rect x="0" y="0" width="3" height="3" fill="rgba(255,255,255,.022)"/>
    <rect x="3" y="3" width="3" height="3" fill="rgba(255,255,255,.022)"/>
    <line x1="0" y1="0" x2="3" y2="3" stroke="rgba(255,255,255,.038)" stroke-width=".5"/>
    <line x1="3" y1="0" x2="6" y2="3" stroke="rgba(0,0,0,.055)"       stroke-width=".5"/>
    <line x1="0" y1="3" x2="3" y2="6" stroke="rgba(0,0,0,.055)"       stroke-width=".5"/>
    <line x1="3" y1="3" x2="6" y2="6" stroke="rgba(255,255,255,.038)" stroke-width=".5"/>
  </pattern>

  <!-- Specular metal sheen on armour panels -->
  <filter id="metalr1x1364" x="-5%" y="-5%" width="110%" height="110%">
    <feSpecularLighting surfaceScale="4" specularConstant="1.8"
        specularExponent="42" lighting-color="#ffffff" result="spec">
      <feDistantLight elevation="52" azimuth="38"/>
    </feSpecularLighting>
    <feComposite in="spec" in2="SourceGraphic" operator="in" result="sm"/>
    <feComposite in="SourceGraphic" in2="sm" operator="arithmetic" k1="0" k2="1" k3="0.55" k4="0"/>
  </filter>

  <!-- Sharper specular for weapons — heavier glare -->
  <filter id="wmr1x1364" x="-8%" y="-8%" width="116%" height="116%">
    <feSpecularLighting surfaceScale="6" specularConstant="2.4"
        specularExponent="65" lighting-color="#ffffff" result="spec">
      <feDistantLight elevation="44" azimuth="28"/>
    </feSpecularLighting>
    <feComposite in="spec" in2="SourceGraphic" operator="in" result="sm"/>
    <feComposite in="SourceGraphic" in2="sm" operator="arithmetic" k1="0" k2="1" k3="0.78" k4="0"/>
  </filter>

  <!-- Sketch wobble -->
  <filter id="skr1x1364" x="-8%" y="-8%" width="116%" height="116%">
    <feTurbulence type="fractalNoise" baseFrequency="0.038"
        numOctaves="3" seed="84" result="noise"/>
    <feDisplacementMap in="SourceGraphic" in2="noise" scale="2.6"
        xChannelSelector="R" yChannelSelector="G" result="w"/>
    <feComposite in="w" in2="SourceGraphic" operator="atop"/>
  </filter>

  <!-- Glow: sharp accent -->
  <filter id="glowr1x1364" x="-20%" y="-20%" width="140%" height="140%">
    <feGaussianBlur stdDeviation="3.5" result="b"/>
    <feColorMatrix in="b" type="matrix"
        values="0 0 0 0 1  0 0 0 0 1  0 0 0 0 1  0 0 0 1.8 0" result="boost"/>
    <feMerge><feMergeNode in="boost"/><feMergeNode in="SourceGraphic"/></feMerge>
  </filter>

  <!-- Bloom: wide soft -->
  <filter id="bloomr1x1364" x="-40%" y="-40%" width="180%" height="180%">
    <feGaussianBlur stdDeviation="11" result="b"/>
    <feMerge><feMergeNode in="b"/><feMergeNode in="SourceGraphic"/></feMerge>
  </filter>

  </defs><rect width="1000" height="1000" fill="url(#bgr1x1364)"/><ellipse cx="500.0" cy="892.0" rx="350.0" ry="65.0" fill="rgba(0,0,0,.7)" filter="url(#bloomr1x1364)"/><ellipse cx="500.0" cy="889.0" rx="220.0" ry="34.0" fill="rgba(0,0,0,.45)"/><ellipse cx="500.0" cy="520.0" rx="320.0" ry="480.0" fill="#00e5ff" fill-opacity=".042" filter="url(#bloomr1x1364)"/><circle cx="739.6" cy="632.4" r="1.6" fill="#00e5ff" fill-opacity="0.49" filter="url(#glowr1x1364)"/><circle cx="743.9" cy="609.4" r="1.5" fill="#00e5ff" fill-opacity="0.53" filter="url(#glowr1x1364)"/><circle cx="480.2" cy="576.2" r="3.8" fill="#00e5ff" fill-opacity="0.66" filter="url(#glowr1x1364)"/><circle cx="538.7" cy="549.3" r="3.1" fill="#00e5ff" fill-opacity="0.55" filter="url(#glowr1x1364)"/><circle cx="329.4" cy="686.2" r="1.0" fill="#00e5ff" fill-opacity="0.41" filter="url(#glowr1x1364)"/><circle cx="382.6" cy="239.7" r="3.2" fill="#00e5ff" fill-opacity="0.41" filter="url(#glowr1x1364)"/><circle cx="590.2" cy="751.0" r="1.6" fill="#00e5ff" fill-opacity="0.75" filter="url(#glowr1x1364)"/><circle cx="455.8" cy="498.5" r="3.9" fill="#00e5ff" fill-opacity="0.81" filter="url(#glowr1x1364)"/><circle cx="286.0" cy="478.3" r="2.0" fill="#00e5ff" fill-opacity="0.75" filter="url(#glowr1x1364)"/><circle cx="490.1" cy="741.3" r="3.2" fill="#00e5ff" fill-opacity="0.44" filter="url(#glowr1x1364)"/><circle cx="571.2" cy="361.5" r="2.9" fill="#00e5ff" fill-opacity="0.44" filter="url(#glowr1x1364)"/><circle cx="467.5" cy="568.9" r="2.3" fill="#00e5ff" fill-opacity="0.84" filter="url(#glowr1x1364)"/><circle cx="340.0" cy="445.5" r="2.5" fill="#00e5ff" fill-opacity="0.76" filter="url(#glowr1x1364)"/><circle cx="520.3" cy="221.0" r="3.2" fill="#00e5ff" fill-opacity="0.74" filter="url(#glowr1x1364)"/><path d="M482.1,168.8 Q458.9,454.2 364.7,789.6" stroke="#00e5ff" stroke-opacity="0.67" stroke-width="2.2" fill="none" filter="url(#glowr1x1364)"/><path d="M403.8,327.7 Q430.0,466.4 424.1,600.8" stroke="#00e5ff" stroke-opacity="0.42" stroke-width="1.5" fill="none" filter="url(#glowr1x1364)"/><path d="M341.7,299.3 Q345.3,512.9 550.1,723.9" stroke="#00e5ff" stroke-opacity="0.56" stroke-width="1.7" fill="none" filter="url(#glowr1x1364)"/><path d="M330.0,394.6 Q295.9,560.6 387.4,771.9" stroke="#00e5ff" stroke-opacity="0.55" stroke-width="2.8" fill="none" filter="url(#glowr1x1364)"/><path d="M425.2,244.4 Q426.7,432.7 571.7,606.3" stroke="#00e5ff" stroke-opacity="0.47" stroke-width="1.1" fill="none" filter="url(#glowr1x1364)"/><polygon points="397.4,662.0 488.5,662.8 480.8,876.7 388.7,877.7" fill="url(#suitr1x1364)" stroke="#ccccff" stroke-width="2.2" filter="url(#skr1x1364) url(#metalr1x1364)"/><polygon points="398.2,663.6 490.1,661.8 481.1,879.3 388.2,876.5" fill="url(#carbonr1x1364)"/><polygon points="394.3,723.9 493.8,724.5 482.8,787.0 384.2,788.7" fill="url(#bevelr1x1364)" fill-opacity=".5" stroke="#ccccff" stroke-width="1.4" filter="url(#skr1x1364)"/><polygon points="509.5,661.0 601.3,660.8 610.9,876.9 520.0,876.2" fill="url(#suitr1x1364)" stroke="#ccccff" stroke-width="2.2" filter="url(#skr1x1364) url(#metalr1x1364)"/><polygon points="510.0,662.6 600.3,663.7 611.3,878.7 518.1,878.6" fill="url(#carbonr1x1364)"/><polygon points="506.5,723.3 607.2,725.0 615.3,787.3 515.0,788.5" fill="url(#bevelr1x1364)" fill-opacity=".5" stroke="#ccccff" stroke-width="1.4" filter="url(#skr1x1364)"/><rect x="394.3" y="837.6" width="100.3" height="24.7" fill="url(#bevelr1x1364)" stroke="#ccccff" stroke-width="1" filter="url(#skr1x1364)"/><rect x="506.6"  y="839.6" width="100.3" height="24.7" fill="url(#bevelr1x1364)" stroke="#ccccff" stroke-width="1" filter="url(#skr1x1364)"/><polygon points="369.1,877.5 495.4,879.1 504.2,921.4 363.7,919.9" fill="#242438" stroke="#ccccff" stroke-width="2" filter="url(#skr1x1364)"/><polygon points="504.9,876.3 630.1,877.0 637.5,920.4 497.0,921.0" fill="#242438" stroke="#ccccff" stroke-width="2" filter="url(#skr1x1364)"/><polygon points="303.4,633.5 697.8,634.4 639.3,681.6 361.6,680.7" fill="#ccccff" fill-opacity=".52" stroke="#ccccff" stroke-width="2" filter="url(#skr1x1364)"/><rect x="464.5" y="636.6" width="72.0" height="42.0" fill="url(#bevelr1x1364)" stroke="#ccccff" stroke-width="1.4" filter="url(#glowr1x1364)"/><rect x="486.7" y="642.2" width="28.0" height="22.0" rx="1" fill="rgba(255,255,255,.48)"/><polygon points="152.9,465.5 234.7,466.1 256.6,736.2 127.5,736.2" fill="url(#suitr1x1364)" stroke="#ccccff" stroke-width="2.2" filter="url(#skr1x1364) url(#metalr1x1364)"/><polygon points="174.7,430.9 251.9,431.1 245.0,509.0 160.8,509.7" fill="url(#bevelr1x1364)" fill-opacity=".72" stroke="#ccccff" stroke-width="2.2" filter="url(#skr1x1364)"/><polygon points="161.9,622.1 242.8,623.2 239.1,659.6 166.6,661.2" fill="#ccccff" fill-opacity=".42" stroke="#ccccff" stroke-width="1" filter="url(#skr1x1364)"/><polygon points="763.5,464.8 845.3,466.7 872.7,735.3 741.8,736.4" fill="url(#suitr1x1364)" stroke="#ccccff" stroke-width="2.2" filter="url(#skr1x1364) url(#metalr1x1364)"/><polygon points="746.8,431.0 827.0,432.9 841.1,512.4 758.1,511.6" fill="url(#bevelr1x1364)" fill-opacity=".72" stroke="#ccccff" stroke-width="2.2" filter="url(#skr1x1364)"/><polygon points="755.7,622.9 839.2,623.5 834.6,659.4 760.1,661.7" fill="#ccccff" fill-opacity=".42" stroke="#ccccff" stroke-width="1" filter="url(#skr1x1364)"/><rect x="118.5"  y="698.7" width="135.3" height="85.0" rx="4" fill="url(#bevelr1x1364)" stroke="#ccccff" stroke-width="1.8" filter="url(#skr1x1364)"/><rect x="747.6"   y="699.7" width="135.3" height="85.0" rx="4" fill="url(#bevelr1x1364)" stroke="#ccccff" stroke-width="1.8" filter="url(#skr1x1364)"/><line x1="148.4" y1="700.4" x2="150.1" y2="782.7" stroke="#ccccff" stroke-opacity=".38" stroke-width="1"/><line x1="778.1" y1="700.6" x2="777.7" y2="783.2" stroke="#ccccff" stroke-opacity=".38" stroke-width="1"/><line x1="182.9" y1="702.8" x2="180.8" y2="785.5" stroke="#ccccff" stroke-opacity=".38" stroke-width="1"/><line x1="810.4" y1="701.9" x2="809.5" y2="784.2" stroke="#ccccff" stroke-opacity=".38" stroke-width="1"/><line x1="214.7" y1="701.1" x2="214.2" y2="784.0" stroke="#ccccff" stroke-opacity=".38" stroke-width="1"/><line x1="842.6" y1="703.5" x2="843.0" y2="784.8" stroke="#ccccff" stroke-opacity=".38" stroke-width="1"/><polygon points="236.1,417.7 764.2,417.8 721.8,664.2 276.7,663.0" fill="url(#suitr1x1364)" stroke="#ccccff" stroke-width="2.6" filter="url(#skr1x1364) url(#metalr1x1364)"/><polygon points="233.7,416.3 764.2,416.6 723.2,661.4 278.3,661.4" fill="url(#carbonr1x1364)"/><polygon points="366.4,417.7 632.8,417.5 612.4,514.0 389.9,514.2" fill="url(#suitHir1x1364)"/><line x1="361.9" y1="470.3" x2="636.8" y2="470.4" stroke="#ccccff" stroke-opacity=".52" stroke-width="1.3" filter="url(#skr1x1364)"/><line x1="399.2" y1="551.4" x2="601.8" y2="548.1" stroke="#ccccff" stroke-opacity=".52" stroke-width="1.3" filter="url(#skr1x1364)"/><line x1="268.4" y1="489.2" x2="321.5" y2="491.3" stroke="#ccccff" stroke-opacity=".62" stroke-width="1.8"/><line x1="679.3" y1="491.9" x2="732.9" y2="489.8" stroke="#ccccff" stroke-opacity=".62" stroke-width="1.8"/><line x1="267.1" y1="522.7" x2="321.6" y2="522.7" stroke="#ccccff" stroke-opacity=".62" stroke-width="1.8"/><line x1="679.6" y1="523.1" x2="731.5" y2="524.3" stroke="#ccccff" stroke-opacity=".62" stroke-width="1.8"/><line x1="267.5" y1="554.3" x2="320.9" y2="553.4" stroke="#ccccff" stroke-opacity=".62" stroke-width="1.8"/><line x1="680.8" y1="555.5" x2="734.9" y2="556.3" stroke="#ccccff" stroke-opacity=".62" stroke-width="1.8"/><line x1="268.0" y1="584.8" x2="319.2" y2="587.2" stroke="#ccccff" stroke-opacity=".62" stroke-width="1.8"/><line x1="679.4" y1="586.1" x2="734.2" y2="587.8" stroke="#ccccff" stroke-opacity=".62" stroke-width="1.8"/><g filter="url(#glowr1x1364)"><ellipse cx="498.3" cy="510.4" rx="42.9" ry="23.2" fill="#08001e" stroke="#ccccff" stroke-width="1.6" filter="url(#skr1x1364)"/><circle cx="501.2" cy="509.5" r="15.1" fill="#ccccff"/><circle cx="497.3" cy="508.1" r="5.8" fill="#08001e"/><ellipse cx="496.0" cy="504.8" rx="3.5" ry="2.3" fill="rgba(255,255,255,.7)"/></g><g><rect x="114.3" y="700.6" width="137.8" height="88.0" rx="5" fill="url(#bevelr1x1364)" stroke="#ccccff" stroke-width="2" filter="url(#wmr1x1364)"/><rect x="113.5" y="700.1" width="137.8" height="88.0" rx="5" fill="url(#carbonr1x1364)"/><rect x="747.8"  y="702.3" width="137.8" height="88.0" rx="5" fill="url(#bevelr1x1364)" stroke="#ccccff" stroke-width="2" filter="url(#wmr1x1364)"/><rect x="748.7"  y="703.0" width="137.8" height="88.0" rx="5" fill="url(#carbonr1x1364)"/><rect x="122.2" y="701.4" width="23.0" height="22.0" rx="2" fill="url(#knuckler1x1364)" stroke="#ccccff" stroke-width=".8" filter="url(#wmr1x1364)"/><rect x="754.6" y="698.9" width="23.0" height="22.0" rx="2" fill="url(#knuckler1x1364)" stroke="#ccccff" stroke-width=".8" filter="url(#wmr1x1364)"/><rect x="152.2" y="700.4" width="23.0" height="22.0" rx="2" fill="url(#knuckler1x1364)" stroke="#ccccff" stroke-width=".8" filter="url(#wmr1x1364)"/><rect x="783.8" y="698.9" width="23.0" height="22.0" rx="2" fill="url(#knuckler1x1364)" stroke="#ccccff" stroke-width=".8" filter="url(#wmr1x1364)"/><rect x="182.2" y="699.6" width="23.0" height="22.0" rx="2" fill="url(#knuckler1x1364)" stroke="#ccccff" stroke-width=".8" filter="url(#wmr1x1364)"/><rect x="813.2" y="698.4" width="23.0" height="22.0" rx="2" fill="url(#knuckler1x1364)" stroke="#ccccff" stroke-width=".8" filter="url(#wmr1x1364)"/><rect x="209.8" y="700.6" width="23.0" height="22.0" rx="2" fill="url(#knuckler1x1364)" stroke="#ccccff" stroke-width=".8" filter="url(#wmr1x1364)"/><rect x="844.1" y="700.3" width="23.0" height="22.0" rx="2" fill="url(#knuckler1x1364)" stroke="#ccccff" stroke-width=".8" filter="url(#wmr1x1364)"/><ellipse cx="185.8885140830092" cy="710.7949827356077" rx="45.1" ry="30.0" fill="#ccccff" fill-opacity=".25" filter="url(#glowr1x1364)"/><ellipse cx="818.9308072216064" cy="712.2955808869376" rx="45.1" ry="30.0" fill="#ccccff" fill-opacity=".25" filter="url(#glowr1x1364)"/></g><rect x="450.73715863153336" y="555.2685892401263" width="100.0"  height="56.0" fill="#242438" stroke="#ccccff" stroke-width="2.2" filter="url(#skr1x1364)"/><rect x="424.41109586916866" y="574.7383559964597" width="152.0" height="26.0" fill="url(#bevelr1x1364)" fill-opacity=".65" stroke="#ccccff" stroke-width="1.2" filter="url(#skr1x1364)"/><polygon points="308.4,382.2 349.0,294.4 499.5,279.0 648.2,292.9 692.4,381.8 669.4,504.0 500.8,565.7 332.2,505.2" fill="url(#suitr1x1364)" stroke="#ccccff" stroke-width="2.8" filter="url(#skr1x1364) url(#metalr1x1364)"/><polygon points="308.3,379.6 350.8,295.4 499.2,279.2 649.8,295.1 692.5,381.3 668.7,503.7 500.4,566.0 330.1,503.0" fill="url(#carbonr1x1364)"/><polygon points="380.4,302.8 498.6,286.0 620.7,300.9 608.7,382.2 392.4,379.6" fill="url(#suitHir1x1364)"/><polygon points="382.0,382.2 366.4,424.3 432.1,504.1 499.1,527.5 567.6,504.0 635.7,424.5 618.3,379.0" fill="#08001e" fill-opacity=".88" stroke="#ccccff" stroke-width="1.8" filter="url(#skr1x1364)"/><polygon points="380.9,412.9 477.2,412.6 486.4,438.5 387.5,439.1" fill="#ccccff" filter="url(#glowr1x1364)"/><polygon points="523.2,411.3 620.8,410.3 612.9,439.6 515.3,440.7" fill="#ccccff" filter="url(#glowr1x1364)"/><ellipse cx="430.9" cy="425.7" rx="38.4"  ry="8.2" fill="#ffffff" opacity=".88"/><ellipse cx="569.1" cy="425.7" rx="38.4"  ry="8.2" fill="#ffffff" opacity=".88"/><line x1="485.2549004307575" y1="412.71272847969084" x2="516.5155629762821" y2="413.8034709432162" stroke="#ccccff" stroke-opacity=".52" stroke-width="2"/><line x1="485.764226926174" y1="438.7975232239813" x2="516.2457374055311" y2="438.1109463228844" stroke="#ccccff" stroke-opacity=".52" stroke-width="2"/><line x1="501.1269409964792" y1="455.8655744225718" x2="501.11573272561657" y2="484.4734936573543" stroke="#ccccff" stroke-opacity=".58" stroke-width="2.2" filter="url(#skr1x1364)"/><line x1="453.5167566849664" y1="492.5832438979297" x2="453.4210457728058" y2="518.4965078616515" stroke="#ccccff" stroke-opacity=".52" stroke-width="1.5" filter="url(#skr1x1364)"/><line x1="475.22821692697704" y1="492.2481488419696" x2="475.7397988709993" y2="521.7071870931425" stroke="#ccccff" stroke-opacity=".52" stroke-width="1.5" filter="url(#skr1x1364)"/><line x1="500.15806949231774" y1="489.8693318857811" x2="501.1266259844415" y2="518.2852982892655" stroke="#ccccff" stroke-opacity=".52" stroke-width="1.5" filter="url(#skr1x1364)"/><line x1="524.4821768905595" y1="492.7964949624612" x2="523.2191788770817" y2="521.0139893569052" stroke="#ccccff" stroke-opacity=".52" stroke-width="1.5" filter="url(#skr1x1364)"/><line x1="547.3632538279705" y1="489.9497551268897" x2="546.9084752203152" y2="519.5974790013395" stroke="#ccccff" stroke-opacity=".52" stroke-width="1.5" filter="url(#skr1x1364)"/><polygon points="432.2,502.3 567.3,504.8 555.3,556.0 445.1,555.3" fill="#242438" fill-opacity=".72" stroke="#ccccff" stroke-width="1.3" filter="url(#skr1x1364)"/><polygon points="314.3,303.2 360.7,303.4 339.9,196.2" fill="url(#bevelr1x1364)" fill-opacity=".95" stroke="#ccccff" stroke-width="1.6" filter="url(#skr1x1364) url(#glowr1x1364)"/><polygon points="395.8,304.9 442.2,304.9 418.9,209.2" fill="url(#bevelr1x1364)" fill-opacity=".95" stroke="#ccccff" stroke-width="1.6" filter="url(#skr1x1364) url(#glowr1x1364)"/><polygon points="475.7,305.2 523.7,303.5 498.8,223.2" fill="url(#bevelr1x1364)" fill-opacity=".95" stroke="#ccccff" stroke-width="1.6" filter="url(#skr1x1364) url(#glowr1x1364)"/><polygon points="558.8,306.3 605.0,305.0 581.1,208.8" fill="url(#bevelr1x1364)" fill-opacity=".95" stroke="#ccccff" stroke-width="1.6" filter="url(#skr1x1364) url(#glowr1x1364)"/><polygon points="639.3,304.0 682.9,305.7 660.6,196.6" fill="url(#bevelr1x1364)" fill-opacity=".95" stroke="#ccccff" stroke-width="1.6" filter="url(#skr1x1364) url(#glowr1x1364)"/><text x="30.0"  y="975.0" font-family="monospace" font-weight="bold" font-size="22.0" fill="rgba(255,255,255,.22)">#0001</text><text x="500.0"   y="975.0" text-anchor="middle" font-family="monospace" font-weight="bold" font-size="22.0" fill="#ccccff" fill-opacity=".48">PHANTOM RANGER</text><text x="970.0" y="975.0" text-anchor="end"    font-family="monospace" font-weight="bold" font-size="22.0" fill="#ccccff" fill-opacity=".32">MECH RANGERS</text></svg>