<svg xmlns="http://www.w3.org/2000/svg" viewBox="0 0 1000 1000" width="1000" height="1000" shape-rendering="geometricPrecision"><defs>

  <!-- Scene gradients -->
  <radialGradient id="bgr1x1368" cx="50%" cy="42%" r="72%">
    <stop offset="0%"   stop-color="#001422"/>
    <stop offset="100%" stop-color="#000a14"/>
  </radialGradient>
  <linearGradient id="suitr1x1368" x1="8%" y1="0%" x2="92%" y2="100%">
    <stop offset="0%"   stop-color="#ff44aa" stop-opacity=".95"/>
    <stop offset="45%"  stop-color="#880050"/>
    <stop offset="100%" stop-color="#000a14"/>
  </linearGradient>
  <linearGradient id="suitHir1x1368" x1="0%" y1="0%" x2="0%" y2="100%">
    <stop offset="0%"   stop-color="rgba(255,255,255,.28)"/>
    <stop offset="60%"  stop-color="rgba(255,255,255,.04)"/>
    <stop offset="100%" stop-color="rgba(255,255,255,0)"/>
  </linearGradient>
  <!-- Bevel: bright top, dark bottom for armour panels -->
  <linearGradient id="bevelr1x1368" x1="0%" y1="0%" x2="0%" y2="100%">
    <stop offset="0%"   stop-color="rgba(255,255,255,.55)"/>
    <stop offset="30%"  stop-color="#ff44aa"/>
    <stop offset="70%"  stop-color="#880050"/>
    <stop offset="100%" stop-color="rgba(0,0,0,.5)"/>
  </linearGradient>

  <!-- Weapon: cold steel blade sweep -->
  <linearGradient id="blader1x1368" x1="0%" y1="0%" x2="100%" y2="0%">
    <stop offset="0%"   stop-color="#0e0e20"/>
    <stop offset="16%"  stop-color="#3e3e58"/>
    <stop offset="34%"  stop-color="#c8c8e0"/>
    <stop offset="50%"  stop-color="#f5f5ff"/>
    <stop offset="66%"  stop-color="#b8b8d0"/>
    <stop offset="84%"  stop-color="#2e2e48"/>
    <stop offset="100%" stop-color="#08080e"/>
  </linearGradient>
  <!-- Blade tip brightening -->
  <linearGradient id="bladeTipr1x1368" x1="0%" y1="100%" x2="0%" y2="0%">
    <stop offset="0%"   stop-color="rgba(255,255,255,0)"/>
    <stop offset="55%"  stop-color="rgba(255,255,255,.1)"/>
    <stop offset="100%" stop-color="rgba(255,255,255,.55)"/>
  </linearGradient>
  <!-- Gunmetal anodised — blaster body -->
  <linearGradient id="gunmetalr1x1368" x1="0%" y1="0%" x2="0%" y2="100%">
    <stop offset="0%"   stop-color="#46465e"/>
    <stop offset="18%"  stop-color="#828296"/>
    <stop offset="42%"  stop-color="#26263a"/>
    <stop offset="72%"  stop-color="#16162a"/>
    <stop offset="100%" stop-color="#0c0c18"/>
  </linearGradient>
  <!-- Brushed steel tube — barrel/rod -->
  <linearGradient id="barrelr1x1368" x1="0%" y1="0%" x2="100%" y2="0%">
    <stop offset="0%"   stop-color="#0a0a14"/>
    <stop offset="24%"  stop-color="#585875"/>
    <stop offset="50%"  stop-color="#a8a8c8"/>
    <stop offset="76%"  stop-color="#383852"/>
    <stop offset="100%" stop-color="#0a0a14"/>
  </linearGradient>
  <!-- Chrome rod — lance shaft -->
  <linearGradient id="chromer1x1368" x1="0%" y1="0%" x2="100%" y2="0%">
    <stop offset="0%"   stop-color="#0c0c18"/>
    <stop offset="20%"  stop-color="#686888"/>
    <stop offset="44%"  stop-color="#e0e0f0"/>
    <stop offset="56%"  stop-color="#c0c0d8"/>
    <stop offset="80%"  stop-color="#28283e"/>
    <stop offset="100%" stop-color="#0c0c18"/>
  </linearGradient>
  <!-- Titanium plate — shield face -->
  <linearGradient id="titaniumr1x1368" x1="0%" y1="0%" x2="100%" y2="100%">
    <stop offset="0%"   stop-color="#585878"/>
    <stop offset="28%"  stop-color="#ff44aa" stop-opacity=".88"/>
    <stop offset="55%"  stop-color="#880050"/>
    <stop offset="80%"  stop-color="#181828"/>
    <stop offset="100%" stop-color="#0a0a18"/>
  </linearGradient>
  <!-- Artillery black-chrome — cannon body -->
  <linearGradient id="artilleryr1x1368" x1="0%" y1="0%" x2="0%" y2="100%">
    <stop offset="0%"   stop-color="#383850"/>
    <stop offset="14%"  stop-color="#78789a"/>
    <stop offset="36%"  stop-color="#202034"/>
    <stop offset="65%"  stop-color="#14141e"/>
    <stop offset="100%" stop-color="#0a0a12"/>
  </linearGradient>
  <!-- Energy orb — staff -->
  <radialGradient id="orbr1x1368" cx="35%" cy="35%" r="65%">
    <stop offset="0%"   stop-color="rgba(255,255,255,.9)"/>
    <stop offset="30%"  stop-color="#ff44aa"/>
    <stop offset="68%"  stop-color="#880050"/>
    <stop offset="100%" stop-color="rgba(0,0,0,.6)"/>
  </radialGradient>
  <!-- Knuckle plate chrome -->
  <linearGradient id="knuckler1x1368" x1="0%" y1="0%" x2="0%" y2="100%">
    <stop offset="0%"   stop-color="#888aaa"/>
    <stop offset="32%"  stop-color="#ff44aa" stop-opacity=".8"/>
    <stop offset="62%"  stop-color="#1a1a2c"/>
    <stop offset="100%" stop-color="#0a0a14"/>
  </linearGradient>

  <!-- Carbon fibre weave texture overlay -->
  <pattern id="carbonr1x1368" width="6" height="6" patternUnits="userSpaceOnUse">
    <rect width="6" height="6" fill="rgba(0,0,0,.08)"/>
    <rect x="0" y="0" width="3" height="3" fill="rgba(255,255,255,.022)"/>
    <rect x="3" y="3" width="3" height="3" fill="rgba(255,255,255,.022)"/>
    <line x1="0" y1="0" x2="3" y2="3" stroke="rgba(255,255,255,.038)" stroke-width=".5"/>
    <line x1="3" y1="0" x2="6" y2="3" stroke="rgba(0,0,0,.055)"       stroke-width=".5"/>
    <line x1="0" y1="3" x2="3" y2="6" stroke="rgba(0,0,0,.055)"       stroke-width=".5"/>
    <line x1="3" y1="3" x2="6" y2="6" stroke="rgba(255,255,255,.038)" stroke-width=".5"/>
  </pattern>

  <!-- Specular metal sheen on armour panels -->
  <filter id="metalr1x1368" x="-5%" y="-5%" width="110%" height="110%">
    <feSpecularLighting surfaceScale="4" specularConstant="1.8"
        specularExponent="42" lighting-color="#ffffff" result="spec">
      <feDistantLight elevation="52" azimuth="38"/>
    </feSpecularLighting>
    <feComposite in="spec" in2="SourceGraphic" operator="in" result="sm"/>
    <feComposite in="SourceGraphic" in2="sm" operator="arithmetic" k1="0" k2="1" k3="0.55" k4="0"/>
  </filter>

  <!-- Sharper specular for weapons — heavier glare -->
  <filter id="wmr1x1368" x="-8%" y="-8%" width="116%" height="116%">
    <feSpecularLighting surfaceScale="6" specularConstant="2.4"
        specularExponent="65" lighting-color="#ffffff" result="spec">
      <feDistantLight elevation="44" azimuth="28"/>
    </feSpecularLighting>
    <feComposite in="spec" in2="SourceGraphic" operator="in" result="sm"/>
    <feComposite in="SourceGraphic" in2="sm" operator="arithmetic" k1="0" k2="1" k3="0.78" k4="0"/>
  </filter>

  <!-- Sketch wobble -->
  <filter id="skr1x1368" x="-8%" y="-8%" width="116%" height="116%">
    <feTurbulence type="fractalNoise" baseFrequency="0.038"
        numOctaves="3" seed="45" result="noise"/>
    <feDisplacementMap in="SourceGraphic" in2="noise" scale="2.6"
        xChannelSelector="R" yChannelSelector="G" result="w"/>
    <feComposite in="w" in2="SourceGraphic" operator="atop"/>
  </filter>

  <!-- Glow: sharp accent -->
  <filter id="glowr1x1368" x="-20%" y="-20%" width="140%" height="140%">
    <feGaussianBlur stdDeviation="3.5" result="b"/>
    <feColorMatrix in="b" type="matrix"
        values="0 0 0 0 1  0 0 0 0 1  0 0 0 0 1  0 0 0 1.8 0" result="boost"/>
    <feMerge><feMergeNode in="boost"/><feMergeNode in="SourceGraphic"/></feMerge>
  </filter>

  <!-- Bloom: wide soft -->
  <filter id="bloomr1x1368" x="-40%" y="-40%" width="180%" height="180%">
    <feGaussianBlur stdDeviation="11" result="b"/>
    <feMerge><feMergeNode in="b"/><feMergeNode in="SourceGraphic"/></feMerge>
  </filter>

  </defs><rect width="1000" height="1000" fill="url(#bgr1x1368)"/><line x1="0" y1="2.2" x2="1000" y2="-2.5" stroke="#ff44aa" stroke-opacity=".055" stroke-width="1.2"/><line x1="-1.9" y1="0" x2="0.5" y2="1000" stroke="#ff44aa" stroke-opacity=".055" stroke-width="1.2"/><line x1="0" y1="102.7" x2="1000" y2="97.9" stroke="#ff44aa" stroke-opacity=".055" stroke-width="1.2"/><line x1="98.1" y1="0" x2="97.5" y2="1000" stroke="#ff44aa" stroke-opacity=".055" stroke-width="1.2"/><line x1="0" y1="197.8" x2="1000" y2="198.9" stroke="#ff44aa" stroke-opacity=".055" stroke-width="1.2"/><line x1="200.4" y1="0" x2="199.9" y2="1000" stroke="#ff44aa" stroke-opacity=".055" stroke-width="1.2"/><line x1="0" y1="297.4" x2="1000" y2="298.4" stroke="#ff44aa" stroke-opacity=".055" stroke-width="1.2"/><line x1="298.3" y1="0" x2="300.4" y2="1000" stroke="#ff44aa" stroke-opacity=".055" stroke-width="1.2"/><line x1="0" y1="402.2" x2="1000" y2="397.1" stroke="#ff44aa" stroke-opacity=".055" stroke-width="1.2"/><line x1="402.9" y1="0" x2="397.8" y2="1000" stroke="#ff44aa" stroke-opacity=".055" stroke-width="1.2"/><line x1="0" y1="499.8" x2="1000" y2="497.3" stroke="#ff44aa" stroke-opacity=".055" stroke-width="1.2"/><line x1="501.2" y1="0" x2="502.1" y2="1000" stroke="#ff44aa" stroke-opacity=".055" stroke-width="1.2"/><line x1="0" y1="598.1" x2="1000" y2="600.0" stroke="#ff44aa" stroke-opacity=".055" stroke-width="1.2"/><line x1="597.6" y1="0" x2="598.8" y2="1000" stroke="#ff44aa" stroke-opacity=".055" stroke-width="1.2"/><line x1="0" y1="699.7" x2="1000" y2="702.2" stroke="#ff44aa" stroke-opacity=".055" stroke-width="1.2"/><line x1="698.0" y1="0" x2="699.2" y2="1000" stroke="#ff44aa" stroke-opacity=".055" stroke-width="1.2"/><line x1="0" y1="801.2" x2="1000" y2="801.2" stroke="#ff44aa" stroke-opacity=".055" stroke-width="1.2"/><line x1="799.0" y1="0" x2="802.3" y2="1000" stroke="#ff44aa" stroke-opacity=".055" stroke-width="1.2"/><line x1="0" y1="897.5" x2="1000" y2="902.1" stroke="#ff44aa" stroke-opacity=".055" stroke-width="1.2"/><line x1="899.3" y1="0" x2="899.7" y2="1000" stroke="#ff44aa" stroke-opacity=".055" stroke-width="1.2"/><path d="M80,30 L30,30 L30,80" stroke="#ff44aa" stroke-opacity=".45" stroke-width="2" fill="none" filter="url(#glowr1x1368)"/><path d="M920,30 L970,30 L970,80" stroke="#ff44aa" stroke-opacity=".45" stroke-width="2" fill="none" filter="url(#glowr1x1368)"/><path d="M30,920 L30,970 L80,970" stroke="#ff44aa" stroke-opacity=".45" stroke-width="2" fill="none" filter="url(#glowr1x1368)"/><path d="M970,920 L970,970 L920,970" stroke="#ff44aa" stroke-opacity=".45" stroke-width="2" fill="none" filter="url(#glowr1x1368)"/><ellipse cx="500.0" cy="892.0" rx="350.0" ry="65.0" fill="rgba(0,0,0,.7)" filter="url(#bloomr1x1368)"/><ellipse cx="500.0" cy="889.0" rx="220.0" ry="34.0" fill="rgba(0,0,0,.45)"/><ellipse cx="500.0" cy="520.0" rx="320.0" ry="480.0" fill="#6600ff" fill-opacity=".042" filter="url(#bloomr1x1368)"/><circle cx="398.0" cy="186.1" r="1.3" fill="#6600ff" fill-opacity="0.74" filter="url(#glowr1x1368)"/><circle cx="683.1" cy="366.7" r="1.2" fill="#6600ff" fill-opacity="0.75" filter="url(#glowr1x1368)"/><circle cx="363.9" cy="653.0" r="2.1" fill="#6600ff" fill-opacity="0.80" filter="url(#glowr1x1368)"/><circle cx="515.0" cy="279.3" r="3.8" fill="#6600ff" fill-opacity="0.58" filter="url(#glowr1x1368)"/><circle cx="651.2" cy="778.4" r="3.3" fill="#6600ff" fill-opacity="0.65" filter="url(#glowr1x1368)"/><circle cx="373.7" cy="676.0" r="3.1" fill="#6600ff" fill-opacity="0.49" filter="url(#glowr1x1368)"/><circle cx="403.9" cy="517.5" r="1.8" fill="#6600ff" fill-opacity="0.54" filter="url(#glowr1x1368)"/><circle cx="746.0" cy="409.9" r="2.5" fill="#6600ff" fill-opacity="0.38" filter="url(#glowr1x1368)"/><circle cx="340.4" cy="437.0" r="1.7" fill="#6600ff" fill-opacity="0.87" filter="url(#glowr1x1368)"/><circle cx="297.6" cy="656.8" r="2.7" fill="#6600ff" fill-opacity="0.72" filter="url(#glowr1x1368)"/><circle cx="542.2" cy="577.5" r="2.9" fill="#6600ff" fill-opacity="0.39" filter="url(#glowr1x1368)"/><circle cx="428.8" cy="516.4" r="3.0" fill="#6600ff" fill-opacity="0.87" filter="url(#glowr1x1368)"/><circle cx="340.7" cy="371.3" r="0.5" fill="#6600ff" fill-opacity="0.55" filter="url(#glowr1x1368)"/><circle cx="391.4" cy="669.0" r="3.5" fill="#6600ff" fill-opacity="0.54" filter="url(#glowr1x1368)"/><polygon points="400.4,663.9 489.8,661.3 481.5,877.6 388.9,876.8" fill="url(#suitr1x1368)" stroke="#ff44aa" stroke-width="2.2" filter="url(#skr1x1368) url(#metalr1x1368)"/><polygon points="397.1,661.5 490.2,663.6 480.9,875.7 385.9,876.6" fill="url(#carbonr1x1368)"/><polygon points="393.0,722.2 491.7,724.6 483.3,789.4 383.0,786.7" fill="url(#bevelr1x1368)" fill-opacity=".5" stroke="#ff44aa" stroke-width="1.4" filter="url(#skr1x1368)"/><polygon points="511.2,663.9 600.6,662.5 611.3,876.5 517.7,878.3" fill="url(#suitr1x1368)" stroke="#ff44aa" stroke-width="2.2" filter="url(#skr1x1368) url(#metalr1x1368)"/><polygon points="511.8,662.9 601.6,664.1 611.3,878.7 518.1,878.7" fill="url(#carbonr1x1368)"/><polygon points="508.3,724.2 605.9,723.7 615.0,787.4 514.6,787.2" fill="url(#bevelr1x1368)" fill-opacity=".5" stroke="#ff44aa" stroke-width="1.4" filter="url(#skr1x1368)"/><rect x="392.1" y="840.2" width="100.3" height="24.7" fill="url(#bevelr1x1368)" stroke="#ff44aa" stroke-width="1" filter="url(#skr1x1368)"/><rect x="507.1"  y="839.9" width="100.3" height="24.7" fill="url(#bevelr1x1368)" stroke="#ff44aa" stroke-width="1" filter="url(#skr1x1368)"/><polygon points="368.2,875.8 496.8,876.6 502.0,922.9 364.2,921.1" fill="#880050" stroke="#ff44aa" stroke-width="2" filter="url(#skr1x1368)"/><polygon points="504.2,875.8 629.0,878.9 636.2,920.8 496.2,921.0" fill="#880050" stroke="#ff44aa" stroke-width="2" filter="url(#skr1x1368)"/><polygon points="303.8,632.9 696.9,634.7 638.2,681.7 361.2,682.2" fill="#ff44aa" fill-opacity=".52" stroke="#ff44aa" stroke-width="2" filter="url(#skr1x1368)"/><rect x="463.6" y="637.9" width="72.0" height="42.0" fill="url(#bevelr1x1368)" stroke="#ff44aa" stroke-width="1.4" filter="url(#glowr1x1368)"/><rect x="486.7" y="638.7" width="28.0" height="22.0" rx="1" fill="rgba(255,255,255,.48)"/><polygon points="152.2,465.5 235.1,466.0 258.7,735.0 130.1,734.5" fill="url(#suitr1x1368)" stroke="#ff44aa" stroke-width="2.2" filter="url(#skr1x1368) url(#metalr1x1368)"/><polygon points="173.9,432.8 253.1,431.9 242.1,510.3 160.9,512.2" fill="url(#bevelr1x1368)" fill-opacity=".72" stroke="#ff44aa" stroke-width="2.2" filter="url(#skr1x1368)"/><polygon points="160.4,623.5 242.7,621.5 237.4,661.6 164.4,659.9" fill="#ff44aa" fill-opacity=".42" stroke="#ff44aa" stroke-width="1" filter="url(#skr1x1368)"/><polygon points="763.7,465.6 848.2,467.8 872.5,733.8 741.8,735.1" fill="url(#suitr1x1368)" stroke="#ff44aa" stroke-width="2.2" filter="url(#skr1x1368) url(#metalr1x1368)"/><polygon points="747.0,431.0 828.1,432.7 839.8,512.3 757.5,510.8" fill="url(#bevelr1x1368)" fill-opacity=".72" stroke="#ff44aa" stroke-width="2.2" filter="url(#skr1x1368)"/><polygon points="756.9,620.4 838.2,622.6 836.1,661.0 761.4,660.7" fill="#ff44aa" fill-opacity=".42" stroke="#ff44aa" stroke-width="1" filter="url(#skr1x1368)"/><rect x="120.4"  y="699.6" width="135.3" height="85.0" rx="4" fill="url(#bevelr1x1368)" stroke="#ff44aa" stroke-width="1.8" filter="url(#skr1x1368)"/><rect x="749.4"   y="699.0" width="135.3" height="85.0" rx="4" fill="url(#bevelr1x1368)" stroke="#ff44aa" stroke-width="1.8" filter="url(#skr1x1368)"/><line x1="151.2" y1="702.3" x2="148.1" y2="785.4" stroke="#ff44aa" stroke-opacity=".38" stroke-width="1"/><line x1="779.8" y1="703.0" x2="777.6" y2="782.7" stroke="#ff44aa" stroke-opacity=".38" stroke-width="1"/><line x1="184.1" y1="700.2" x2="180.8" y2="785.5" stroke="#ff44aa" stroke-opacity=".38" stroke-width="1"/><line x1="811.1" y1="701.9" x2="811.8" y2="784.5" stroke="#ff44aa" stroke-opacity=".38" stroke-width="1"/><line x1="216.1" y1="703.0" x2="217.1" y2="783.5" stroke="#ff44aa" stroke-opacity=".38" stroke-width="1"/><line x1="844.3" y1="701.6" x2="843.4" y2="784.0" stroke="#ff44aa" stroke-opacity=".38" stroke-width="1"/><polygon points="236.6,418.5 764.7,418.5 723.0,662.1 278.4,661.6" fill="url(#suitr1x1368)" stroke="#ff44aa" stroke-width="2.6" filter="url(#skr1x1368) url(#metalr1x1368)"/><polygon points="235.8,416.1 766.5,417.7 724.0,663.9 277.7,663.8" fill="url(#carbonr1x1368)"/><polygon points="366.5,417.3 631.9,419.3 611.5,515.9 389.0,514.0" fill="url(#suitHir1x1368)"/><line x1="360.4" y1="472.4" x2="637.6" y2="471.1" stroke="#ff44aa" stroke-opacity=".52" stroke-width="1.3" filter="url(#skr1x1368)"/><line x1="398.2" y1="548.2" x2="601.0" y2="551.1" stroke="#ff44aa" stroke-opacity=".52" stroke-width="1.3" filter="url(#skr1x1368)"/><line x1="268.1" y1="490.7" x2="320.2" y2="491.7" stroke="#ff44aa" stroke-opacity=".62" stroke-width="1.8"/><line x1="681.1" y1="490.7" x2="733.1" y2="492.1" stroke="#ff44aa" stroke-opacity=".62" stroke-width="1.8"/><line x1="268.2" y1="522.9" x2="320.3" y2="522.5" stroke="#ff44aa" stroke-opacity=".62" stroke-width="1.8"/><line x1="680.5" y1="521.7" x2="732.6" y2="523.2" stroke="#ff44aa" stroke-opacity=".62" stroke-width="1.8"/><line x1="265.9" y1="554.3" x2="319.9" y2="553.7" stroke="#ff44aa" stroke-opacity=".62" stroke-width="1.8"/><line x1="681.8" y1="555.8" x2="733.0" y2="553.1" stroke="#ff44aa" stroke-opacity=".62" stroke-width="1.8"/><line x1="265.9" y1="587.9" x2="318.4" y2="585.7" stroke="#ff44aa" stroke-opacity=".62" stroke-width="1.8"/><line x1="681.3" y1="586.5" x2="733.0" y2="585.8" stroke="#ff44aa" stroke-opacity=".62" stroke-width="1.8"/><g filter="url(#glowr1x1368)"><polygon points="499.7,454.2 515.7,488.5 556.0,491.1 523.7,518.0 533.3,558.3 500.3,536.6 465.4,557.3 474.0,518.0 445.9,493.2 484.0,490.6 " fill="#ff44aa" stroke="#000a14" stroke-width="1.4" filter="url(#skr1x1368)"/><polygon points="499.7,454.2 515.7,488.5 556.0,491.1 523.7,518.0 533.3,558.3 500.3,536.6 465.4,557.3 474.0,518.0 445.9,493.2 484.0,490.6 " fill="url(#suitHir1x1368)" opacity=".45"/></g><g><polygon points="76.2,671.4 128.2,671.4 112.6,-28.6 91.8,-28.6" fill="url(#blader1x1368)" filter="url(#wmr1x1368)"/><polygon points="91.8,-28.6 112.6,-28.6 102.2,-138.6" fill="url(#blader1x1368)" filter="url(#wmr1x1368)"/><polygon points="100.3,671.4 104.0,671.4 102.7,-128.6 101.6,-128.6" fill="url(#bladeTipr1x1368)" opacity=".9"/><line x1="110.2413980838656" y1="673.0281937384977" x2="104.8094414161518" y2="-130.15807409351694" stroke="rgba(255,255,255,.68)" stroke-width="1.5"/><line x1="91.70996901504692" y1="672.1131302062422" x2="101.77486763836812" y2="-129.31372459800917" stroke="#ff44aa" stroke-width="1" stroke-opacity=".45"/><line x1="106.8" y1="651.4" x2="104.0" y2="11.4" stroke="rgba(0,0,0,.38)" stroke-width="1.6"/><line x1="97.5" y1="651.4" x2="100.3" y2="11.4" stroke="rgba(0,0,0,.38)" stroke-width="1.6"/><rect x="44.84857283443209" y="669.3292345352471" width="112.0" height="28.0" rx="3" fill="url(#bevelr1x1368)" stroke="#ff44aa" stroke-width="1.6" filter="url(#wmr1x1368)"/><rect x="71.39799696220082" y="674.421538004186" width="64.0" height="10.0" rx="1" fill="rgba(255,255,255,.32)"/><rect x="89.90208781262857" y="678.0140355633572" width="24.0" height="6.0" rx="1" fill="#ff44aa" fill-opacity=".35"/><rect x="89.03164198579263" y="687.0643645625561" width="24.0" height="6.0" rx="1" fill="#ff44aa" fill-opacity=".35"/><rect x="89.08536830538881" y="693.0889949796721" width="24.0" height="6.0" rx="1" fill="#ff44aa" fill-opacity=".35"/><rect x="89.51157546689731" y="700.4763179149478" width="24.0" height="6.0" rx="1" fill="#ff44aa" fill-opacity=".35"/><rect x="89.90080336643379" y="707.8277509347536" width="24.0" height="6.0" rx="1" fill="#ff44aa" fill-opacity=".35"/><rect x="88.44221884258089" y="716.829419604782" width="24.0" height="6.0" rx="1" fill="#ff44aa" fill-opacity=".35"/><ellipse cx="103.01272035049271" cy="726.2053116180933" rx="22.0" ry="16.0" fill="url(#bevelr1x1368)" stroke="#ff44aa" stroke-width="1.2" filter="url(#wmr1x1368)"/></g><rect x="451.6673592019826" y="556.6158279855736" width="100.0"  height="56.0" fill="#880050" stroke="#ff44aa" stroke-width="2.2" filter="url(#skr1x1368)"/><rect x="423.8159572629258" y="575.2121877655387" width="152.0" height="26.0" fill="url(#bevelr1x1368)" fill-opacity=".65" stroke="#ff44aa" stroke-width="1.2" filter="url(#skr1x1368)"/><polygon points="306.3,380.0 351.5,295.1 501.4,277.6 650.0,295.7 693.2,379.0 670.6,504.2 498.9,564.5 330.0,504.4" fill="url(#suitr1x1368)" stroke="#ff44aa" stroke-width="2.8" filter="url(#skr1x1368) url(#metalr1x1368)"/><polygon points="309.0,381.8 348.4,294.6 500.3,278.2 651.0,293.6 691.3,379.4 667.7,504.8 501.4,563.3 331.2,501.8" fill="url(#carbonr1x1368)"/><polygon points="380.6,302.8 499.8,284.7 617.6,301.0 608.9,381.8 390.8,380.8" fill="url(#suitHir1x1368)"/><polygon points="381.8,381.7 365.1,425.6 434.4,502.1 500.7,527.6 568.5,503.0 633.1,425.3 618.7,378.9" fill="#000a14" fill-opacity=".88" stroke="#ff44aa" stroke-width="1.8" filter="url(#skr1x1368)"/><polygon points="382.5,411.2 478.8,410.8 484.4,441.2 387.8,439.8" fill="#ff44aa" filter="url(#glowr1x1368)"/><polygon points="521.8,412.8 618.5,412.7 612.9,438.3 513.8,438.7" fill="#ff44aa" filter="url(#glowr1x1368)"/><ellipse cx="430.9" cy="425.7" rx="38.4"  ry="8.2" fill="#ffffff" opacity=".88"/><ellipse cx="569.1" cy="425.7" rx="38.4"  ry="8.2" fill="#ffffff" opacity=".88"/><line x1="484.85290875012055" y1="413.8190928879194" x2="516.8016268977336" y2="413.9576520522125" stroke="#ff44aa" stroke-opacity=".52" stroke-width="2"/><line x1="484.1792842128873" y1="438.3160075421445" x2="516.1664370670356" y2="437.79488562857733" stroke="#ff44aa" stroke-opacity=".52" stroke-width="2"/><line x1="498.5780865841545" y1="454.19080090923234" x2="498.8760402453132" y2="484.2268323393539" stroke="#ff44aa" stroke-opacity=".58" stroke-width="2.2" filter="url(#skr1x1368)"/><line x1="454.17533430119977" y1="490.1815511899068" x2="455.2390847423859" y2="518.4701854217798" stroke="#ff44aa" stroke-opacity=".52" stroke-width="1.5" filter="url(#skr1x1368)"/><line x1="478.4627950892225" y1="490.20437533771616" x2="477.4581297153048" y2="521.7095084955915" stroke="#ff44aa" stroke-opacity=".52" stroke-width="1.5" filter="url(#skr1x1368)"/><line x1="499.14908968042585" y1="489.52802399387576" x2="499.5225510608405" y2="518.8311948597432" stroke="#ff44aa" stroke-opacity=".52" stroke-width="1.5" filter="url(#skr1x1368)"/><line x1="524.2228325611538" y1="492.92408107137305" x2="524.085936313644" y2="519.3594990517944" stroke="#ff44aa" stroke-opacity=".52" stroke-width="1.5" filter="url(#skr1x1368)"/><line x1="546.8833448186704" y1="490.78980721142136" x2="547.1844673262165" y2="520.0304557382129" stroke="#ff44aa" stroke-opacity=".52" stroke-width="1.5" filter="url(#skr1x1368)"/><polygon points="431.7,502.5 565.6,503.8 553.7,555.3 445.0,557.5" fill="#880050" fill-opacity=".72" stroke="#ff44aa" stroke-width="1.3" filter="url(#skr1x1368)"/><text x="30.0"  y="975.0" font-family="monospace" font-weight="bold" font-size="22.0" fill="rgba(255,255,255,.22)">#0001</text><text x="500.0"   y="975.0" text-anchor="middle" font-family="monospace" font-weight="bold" font-size="22.0" fill="#ff44aa" fill-opacity=".48">SAKURA RANGER</text><text x="970.0" y="975.0" text-anchor="end"    font-family="monospace" font-weight="bold" font-size="22.0" fill="#ff44aa" fill-opacity=".32">MECH RANGERS</text></svg>