<svg xmlns="http://www.w3.org/2000/svg" viewBox="0 0 1000 1000" width="1000" height="1000" shape-rendering="geometricPrecision"><defs>

  <!-- Scene gradients -->
  <radialGradient id="bgr1x1380" cx="50%" cy="42%" r="72%">
    <stop offset="0%"   stop-color="#0e000e"/>
    <stop offset="100%" stop-color="#1e0600"/>
  </radialGradient>
  <linearGradient id="suitr1x1380" x1="8%" y1="0%" x2="92%" y2="100%">
    <stop offset="0%"   stop-color="#ccccff" stop-opacity=".95"/>
    <stop offset="45%"  stop-color="#242438"/>
    <stop offset="100%" stop-color="#1e0600"/>
  </linearGradient>
  <linearGradient id="suitHir1x1380" x1="0%" y1="0%" x2="0%" y2="100%">
    <stop offset="0%"   stop-color="rgba(255,255,255,.28)"/>
    <stop offset="60%"  stop-color="rgba(255,255,255,.04)"/>
    <stop offset="100%" stop-color="rgba(255,255,255,0)"/>
  </linearGradient>
  <!-- Bevel: bright top, dark bottom for armour panels -->
  <linearGradient id="bevelr1x1380" x1="0%" y1="0%" x2="0%" y2="100%">
    <stop offset="0%"   stop-color="rgba(255,255,255,.55)"/>
    <stop offset="30%"  stop-color="#ccccff"/>
    <stop offset="70%"  stop-color="#242438"/>
    <stop offset="100%" stop-color="rgba(0,0,0,.5)"/>
  </linearGradient>

  <!-- Weapon: cold steel blade sweep -->
  <linearGradient id="blader1x1380" x1="0%" y1="0%" x2="100%" y2="0%">
    <stop offset="0%"   stop-color="#0e0e20"/>
    <stop offset="16%"  stop-color="#3e3e58"/>
    <stop offset="34%"  stop-color="#c8c8e0"/>
    <stop offset="50%"  stop-color="#f5f5ff"/>
    <stop offset="66%"  stop-color="#b8b8d0"/>
    <stop offset="84%"  stop-color="#2e2e48"/>
    <stop offset="100%" stop-color="#08080e"/>
  </linearGradient>
  <!-- Blade tip brightening -->
  <linearGradient id="bladeTipr1x1380" x1="0%" y1="100%" x2="0%" y2="0%">
    <stop offset="0%"   stop-color="rgba(255,255,255,0)"/>
    <stop offset="55%"  stop-color="rgba(255,255,255,.1)"/>
    <stop offset="100%" stop-color="rgba(255,255,255,.55)"/>
  </linearGradient>
  <!-- Gunmetal anodised — blaster body -->
  <linearGradient id="gunmetalr1x1380" x1="0%" y1="0%" x2="0%" y2="100%">
    <stop offset="0%"   stop-color="#46465e"/>
    <stop offset="18%"  stop-color="#828296"/>
    <stop offset="42%"  stop-color="#26263a"/>
    <stop offset="72%"  stop-color="#16162a"/>
    <stop offset="100%" stop-color="#0c0c18"/>
  </linearGradient>
  <!-- Brushed steel tube — barrel/rod -->
  <linearGradient id="barrelr1x1380" x1="0%" y1="0%" x2="100%" y2="0%">
    <stop offset="0%"   stop-color="#0a0a14"/>
    <stop offset="24%"  stop-color="#585875"/>
    <stop offset="50%"  stop-color="#a8a8c8"/>
    <stop offset="76%"  stop-color="#383852"/>
    <stop offset="100%" stop-color="#0a0a14"/>
  </linearGradient>
  <!-- Chrome rod — lance shaft -->
  <linearGradient id="chromer1x1380" x1="0%" y1="0%" x2="100%" y2="0%">
    <stop offset="0%"   stop-color="#0c0c18"/>
    <stop offset="20%"  stop-color="#686888"/>
    <stop offset="44%"  stop-color="#e0e0f0"/>
    <stop offset="56%"  stop-color="#c0c0d8"/>
    <stop offset="80%"  stop-color="#28283e"/>
    <stop offset="100%" stop-color="#0c0c18"/>
  </linearGradient>
  <!-- Titanium plate — shield face -->
  <linearGradient id="titaniumr1x1380" x1="0%" y1="0%" x2="100%" y2="100%">
    <stop offset="0%"   stop-color="#585878"/>
    <stop offset="28%"  stop-color="#ccccff" stop-opacity=".88"/>
    <stop offset="55%"  stop-color="#242438"/>
    <stop offset="80%"  stop-color="#181828"/>
    <stop offset="100%" stop-color="#0a0a18"/>
  </linearGradient>
  <!-- Artillery black-chrome — cannon body -->
  <linearGradient id="artilleryr1x1380" x1="0%" y1="0%" x2="0%" y2="100%">
    <stop offset="0%"   stop-color="#383850"/>
    <stop offset="14%"  stop-color="#78789a"/>
    <stop offset="36%"  stop-color="#202034"/>
    <stop offset="65%"  stop-color="#14141e"/>
    <stop offset="100%" stop-color="#0a0a12"/>
  </linearGradient>
  <!-- Energy orb — staff -->
  <radialGradient id="orbr1x1380" cx="35%" cy="35%" r="65%">
    <stop offset="0%"   stop-color="rgba(255,255,255,.9)"/>
    <stop offset="30%"  stop-color="#ccccff"/>
    <stop offset="68%"  stop-color="#242438"/>
    <stop offset="100%" stop-color="rgba(0,0,0,.6)"/>
  </radialGradient>
  <!-- Knuckle plate chrome -->
  <linearGradient id="knuckler1x1380" x1="0%" y1="0%" x2="0%" y2="100%">
    <stop offset="0%"   stop-color="#888aaa"/>
    <stop offset="32%"  stop-color="#ccccff" stop-opacity=".8"/>
    <stop offset="62%"  stop-color="#1a1a2c"/>
    <stop offset="100%" stop-color="#0a0a14"/>
  </linearGradient>

  <!-- Carbon fibre weave texture overlay -->
  <pattern id="carbonr1x1380" width="6" height="6" patternUnits="userSpaceOnUse">
    <rect width="6" height="6" fill="rgba(0,0,0,.08)"/>
    <rect x="0" y="0" width="3" height="3" fill="rgba(255,255,255,.022)"/>
    <rect x="3" y="3" width="3" height="3" fill="rgba(255,255,255,.022)"/>
    <line x1="0" y1="0" x2="3" y2="3" stroke="rgba(255,255,255,.038)" stroke-width=".5"/>
    <line x1="3" y1="0" x2="6" y2="3" stroke="rgba(0,0,0,.055)"       stroke-width=".5"/>
    <line x1="0" y1="3" x2="3" y2="6" stroke="rgba(0,0,0,.055)"       stroke-width=".5"/>
    <line x1="3" y1="3" x2="6" y2="6" stroke="rgba(255,255,255,.038)" stroke-width=".5"/>
  </pattern>

  <!-- Specular metal sheen on armour panels -->
  <filter id="metalr1x1380" x="-5%" y="-5%" width="110%" height="110%">
    <feSpecularLighting surfaceScale="4" specularConstant="1.8"
        specularExponent="42" lighting-color="#ffffff" result="spec">
      <feDistantLight elevation="52" azimuth="38"/>
    </feSpecularLighting>
    <feComposite in="spec" in2="SourceGraphic" operator="in" result="sm"/>
    <feComposite in="SourceGraphic" in2="sm" operator="arithmetic" k1="0" k2="1" k3="0.55" k4="0"/>
  </filter>

  <!-- Sharper specular for weapons — heavier glare -->
  <filter id="wmr1x1380" x="-8%" y="-8%" width="116%" height="116%">
    <feSpecularLighting surfaceScale="6" specularConstant="2.4"
        specularExponent="65" lighting-color="#ffffff" result="spec">
      <feDistantLight elevation="44" azimuth="28"/>
    </feSpecularLighting>
    <feComposite in="spec" in2="SourceGraphic" operator="in" result="sm"/>
    <feComposite in="SourceGraphic" in2="sm" operator="arithmetic" k1="0" k2="1" k3="0.78" k4="0"/>
  </filter>

  <!-- Sketch wobble -->
  <filter id="skr1x1380" x="-8%" y="-8%" width="116%" height="116%">
    <feTurbulence type="fractalNoise" baseFrequency="0.038"
        numOctaves="3" seed="57" result="noise"/>
    <feDisplacementMap in="SourceGraphic" in2="noise" scale="2.6"
        xChannelSelector="R" yChannelSelector="G" result="w"/>
    <feComposite in="w" in2="SourceGraphic" operator="atop"/>
  </filter>

  <!-- Glow: sharp accent -->
  <filter id="glowr1x1380" x="-20%" y="-20%" width="140%" height="140%">
    <feGaussianBlur stdDeviation="3.5" result="b"/>
    <feColorMatrix in="b" type="matrix"
        values="0 0 0 0 1  0 0 0 0 1  0 0 0 0 1  0 0 0 1.8 0" result="boost"/>
    <feMerge><feMergeNode in="boost"/><feMergeNode in="SourceGraphic"/></feMerge>
  </filter>

  <!-- Bloom: wide soft -->
  <filter id="bloomr1x1380" x="-40%" y="-40%" width="180%" height="180%">
    <feGaussianBlur stdDeviation="11" result="b"/>
    <feMerge><feMergeNode in="b"/><feMergeNode in="SourceGraphic"/></feMerge>
  </filter>

  </defs><rect width="1000" height="1000" fill="url(#bgr1x1380)"/><ellipse cx="500.0" cy="1000" rx="850.0" ry="350.0" fill="#ff4500" fill-opacity=".11" filter="url(#bloomr1x1380)"/><ellipse cx="500.0" cy="892.0" rx="350.0" ry="65.0" fill="rgba(0,0,0,.7)" filter="url(#bloomr1x1380)"/><ellipse cx="500.0" cy="889.0" rx="220.0" ry="34.0" fill="rgba(0,0,0,.45)"/><ellipse cx="500.0" cy="520.0" rx="320.0" ry="480.0" fill="#00ffcc" fill-opacity=".042" filter="url(#bloomr1x1380)"/><circle cx="271.6" cy="448.9" r="1.4" fill="#00ffcc" fill-opacity="0.61" filter="url(#glowr1x1380)"/><circle cx="458.5" cy="686.0" r="1.1" fill="#00ffcc" fill-opacity="0.70" filter="url(#glowr1x1380)"/><circle cx="264.1" cy="346.3" r="1.0" fill="#00ffcc" fill-opacity="0.88" filter="url(#glowr1x1380)"/><circle cx="599.2" cy="603.4" r="1.6" fill="#00ffcc" fill-opacity="0.74" filter="url(#glowr1x1380)"/><circle cx="373.4" cy="620.7" r="1.9" fill="#00ffcc" fill-opacity="0.55" filter="url(#glowr1x1380)"/><circle cx="741.9" cy="301.7" r="1.5" fill="#00ffcc" fill-opacity="0.88" filter="url(#glowr1x1380)"/><circle cx="362.4" cy="393.6" r="1.6" fill="#00ffcc" fill-opacity="0.65" filter="url(#glowr1x1380)"/><circle cx="456.8" cy="321.5" r="3.2" fill="#00ffcc" fill-opacity="0.81" filter="url(#glowr1x1380)"/><circle cx="278.7" cy="307.3" r="3.3" fill="#00ffcc" fill-opacity="0.68" filter="url(#glowr1x1380)"/><circle cx="605.5" cy="654.1" r="3.2" fill="#00ffcc" fill-opacity="0.70" filter="url(#glowr1x1380)"/><circle cx="494.3" cy="237.9" r="2.3" fill="#00ffcc" fill-opacity="0.62" filter="url(#glowr1x1380)"/><circle cx="662.9" cy="428.1" r="3.4" fill="#00ffcc" fill-opacity="0.55" filter="url(#glowr1x1380)"/><circle cx="305.0" cy="660.7" r="3.8" fill="#00ffcc" fill-opacity="0.72" filter="url(#glowr1x1380)"/><circle cx="390.0" cy="699.6" r="1.3" fill="#00ffcc" fill-opacity="0.74" filter="url(#glowr1x1380)"/><path d="M608.1,141.3 Q589.6,390.7 516.9,629.0" stroke="#00ffcc" stroke-opacity="0.72" stroke-width="1.9" fill="none" filter="url(#glowr1x1380)"/><path d="M350.3,334.0 Q379.9,517.3 398.9,744.3" stroke="#00ffcc" stroke-opacity="0.48" stroke-width="2.9" fill="none" filter="url(#glowr1x1380)"/><path d="M454.4,300.8 Q418.0,518.8 595.6,712.4" stroke="#00ffcc" stroke-opacity="0.48" stroke-width="1.8" fill="none" filter="url(#glowr1x1380)"/><path d="M309.2,148.5 Q271.5,369.2 476.4,609.3" stroke="#00ffcc" stroke-opacity="0.61" stroke-width="1.5" fill="none" filter="url(#glowr1x1380)"/><path d="M501.6,398.6 Q538.0,515.6 344.3,623.5" stroke="#00ffcc" stroke-opacity="0.66" stroke-width="1.7" fill="none" filter="url(#glowr1x1380)"/><polygon points="398.9,660.9 489.8,663.5 480.6,877.9 388.9,875.8" fill="url(#suitr1x1380)" stroke="#ccccff" stroke-width="2.2" filter="url(#skr1x1380) url(#metalr1x1380)"/><polygon points="397.3,664.1 489.8,663.4 481.4,877.8 388.4,879.2" fill="url(#carbonr1x1380)"/><polygon points="392.6,724.7 492.3,724.1 485.3,787.3 383.7,789.0" fill="url(#bevelr1x1380)" fill-opacity=".5" stroke="#ccccff" stroke-width="1.4" filter="url(#skr1x1380)"/><polygon points="509.1,662.2 600.2,662.4 611.1,878.5 519.3,879.0" fill="url(#suitr1x1380)" stroke="#ccccff" stroke-width="2.2" filter="url(#skr1x1380) url(#metalr1x1380)"/><polygon points="512.3,661.6 600.3,662.2 613.4,879.2 517.9,876.4" fill="url(#carbonr1x1380)"/><polygon points="507.9,725.5 606.3,722.6 616.7,787.9 514.7,788.4" fill="url(#bevelr1x1380)" fill-opacity=".5" stroke="#ccccff" stroke-width="1.4" filter="url(#skr1x1380)"/><rect x="392.3" y="837.6" width="100.3" height="24.7" fill="url(#bevelr1x1380)" stroke="#ccccff" stroke-width="1" filter="url(#skr1x1380)"/><rect x="506.4"  y="839.0" width="100.3" height="24.7" fill="url(#bevelr1x1380)" stroke="#ccccff" stroke-width="1" filter="url(#skr1x1380)"/><polygon points="368.3,877.5 498.1,875.8 503.4,920.7 361.0,920.4" fill="#242438" stroke="#ccccff" stroke-width="2" filter="url(#skr1x1380)"/><polygon points="503.7,878.5 629.6,876.1 638.9,921.1 495.3,923.2" fill="#242438" stroke="#ccccff" stroke-width="2" filter="url(#skr1x1380)"/><polygon points="302.5,634.0 695.5,632.1 637.5,681.7 363.9,682.8" fill="#ccccff" fill-opacity=".52" stroke="#ccccff" stroke-width="2" filter="url(#skr1x1380)"/><rect x="464.0" y="637.1" width="72.0" height="42.0" fill="url(#bevelr1x1380)" stroke="#ccccff" stroke-width="1.4" filter="url(#glowr1x1380)"/><rect x="485.7" y="641.2" width="28.0" height="22.0" rx="1" fill="rgba(255,255,255,.48)"/><polygon points="153.7,466.4 234.7,467.6 256.6,735.4 128.4,736.4" fill="url(#suitr1x1380)" stroke="#ccccff" stroke-width="2.2" filter="url(#skr1x1380) url(#metalr1x1380)"/><polygon points="171.7,433.7 254.5,432.0 244.4,511.7 158.8,509.1" fill="url(#bevelr1x1380)" fill-opacity=".72" stroke="#ccccff" stroke-width="2.2" filter="url(#skr1x1380)"/><polygon points="160.0,623.5 243.7,621.9 239.3,662.0 164.5,662.3" fill="#ccccff" fill-opacity=".42" stroke="#ccccff" stroke-width="1" filter="url(#skr1x1380)"/><polygon points="765.3,467.8 846.5,467.4 870.4,735.4 743.8,734.9" fill="url(#suitr1x1380)" stroke="#ccccff" stroke-width="2.2" filter="url(#skr1x1380) url(#metalr1x1380)"/><polygon points="746.8,431.3 827.6,433.1 840.1,511.7 758.0,511.7" fill="url(#bevelr1x1380)" fill-opacity=".72" stroke="#ccccff" stroke-width="2.2" filter="url(#skr1x1380)"/><polygon points="756.7,622.9 837.1,621.4 833.5,660.2 761.3,659.4" fill="#ccccff" fill-opacity=".42" stroke="#ccccff" stroke-width="1" filter="url(#skr1x1380)"/><rect x="121.7"  y="701.4" width="135.3" height="85.0" rx="4" fill="url(#bevelr1x1380)" stroke="#ccccff" stroke-width="1.8" filter="url(#skr1x1380)"/><rect x="748.3"   y="701.2" width="135.3" height="85.0" rx="4" fill="url(#bevelr1x1380)" stroke="#ccccff" stroke-width="1.8" filter="url(#skr1x1380)"/><line x1="150.0" y1="701.1" x2="148.9" y2="782.2" stroke="#ccccff" stroke-opacity=".38" stroke-width="1"/><line x1="779.5" y1="702.9" x2="778.3" y2="782.4" stroke="#ccccff" stroke-opacity=".38" stroke-width="1"/><line x1="183.8" y1="702.8" x2="184.0" y2="784.1" stroke="#ccccff" stroke-opacity=".38" stroke-width="1"/><line x1="809.7" y1="702.6" x2="811.2" y2="782.2" stroke="#ccccff" stroke-opacity=".38" stroke-width="1"/><line x1="215.0" y1="703.6" x2="215.1" y2="785.6" stroke="#ccccff" stroke-opacity=".38" stroke-width="1"/><line x1="844.0" y1="700.8" x2="843.4" y2="784.0" stroke="#ccccff" stroke-opacity=".38" stroke-width="1"/><polygon points="236.5,417.5 763.7,418.7 721.1,662.3 279.0,662.4" fill="url(#suitr1x1380)" stroke="#ccccff" stroke-width="2.6" filter="url(#skr1x1380) url(#metalr1x1380)"/><polygon points="234.7,416.9 764.0,418.3 723.0,664.2 278.0,661.7" fill="url(#carbonr1x1380)"/><polygon points="367.8,416.0 633.4,416.6 611.1,517.0 389.3,516.6" fill="url(#suitHir1x1380)"/><line x1="362.4" y1="471.8" x2="638.2" y2="469.8" stroke="#ccccff" stroke-opacity=".52" stroke-width="1.3" filter="url(#skr1x1380)"/><line x1="400.9" y1="549.1" x2="599.7" y2="549.7" stroke="#ccccff" stroke-opacity=".52" stroke-width="1.3" filter="url(#skr1x1380)"/><line x1="265.1" y1="492.5" x2="320.0" y2="492.4" stroke="#ccccff" stroke-opacity=".62" stroke-width="1.8"/><line x1="682.0" y1="490.9" x2="734.2" y2="489.9" stroke="#ccccff" stroke-opacity=".62" stroke-width="1.8"/><line x1="266.3" y1="522.7" x2="321.1" y2="522.4" stroke="#ccccff" stroke-opacity=".62" stroke-width="1.8"/><line x1="679.9" y1="524.1" x2="734.0" y2="521.5" stroke="#ccccff" stroke-opacity=".62" stroke-width="1.8"/><line x1="268.3" y1="553.2" x2="321.3" y2="554.1" stroke="#ccccff" stroke-opacity=".62" stroke-width="1.8"/><line x1="682.0" y1="555.5" x2="732.0" y2="555.1" stroke="#ccccff" stroke-opacity=".62" stroke-width="1.8"/><line x1="268.5" y1="588.0" x2="319.3" y2="588.0" stroke="#ccccff" stroke-opacity=".62" stroke-width="1.8"/><line x1="680.2" y1="584.9" x2="734.4" y2="585.6" stroke="#ccccff" stroke-opacity=".62" stroke-width="1.8"/><g filter="url(#glowr1x1380)"><polygon points="500.7,451.0 515.2,489.3 554.7,494.4 523.0,518.3 535.7,556.6 500.8,536.3 466.8,558.6 477.3,518.3 445.6,491.5 484.5,488.6 " fill="#ccccff" stroke="#1e0600" stroke-width="1.4" filter="url(#skr1x1380)"/><polygon points="500.7,451.0 515.2,489.3 554.7,494.4 523.0,518.3 535.7,556.6 500.8,536.3 466.8,558.6 477.3,518.3 445.6,491.5 484.5,488.6 " fill="url(#suitHir1x1380)" opacity=".45"/></g><g><polygon points="76.2,671.4 128.2,671.4 112.6,-28.6 91.8,-28.6" fill="url(#blader1x1380)" filter="url(#wmr1x1380)"/><polygon points="91.8,-28.6 112.6,-28.6 102.2,-138.6" fill="url(#blader1x1380)" filter="url(#wmr1x1380)"/><polygon points="100.3,671.4 104.0,671.4 102.7,-128.6 101.6,-128.6" fill="url(#bladeTipr1x1380)" opacity=".9"/><line x1="112.81185445858162" y1="673.0768230504356" x2="101.8996809323318" y2="-126.91172916749494" stroke="rgba(255,255,255,.68)" stroke-width="1.5"/><line x1="91.36004567416381" y1="672.7328853062354" x2="101.86249084293839" y2="-129.7022036071867" stroke="#ccccff" stroke-width="1" stroke-opacity=".45"/><line x1="106.8" y1="651.4" x2="104.0" y2="11.4" stroke="rgba(0,0,0,.38)" stroke-width="1.6"/><line x1="97.5" y1="651.4" x2="100.3" y2="11.4" stroke="rgba(0,0,0,.38)" stroke-width="1.6"/><rect x="44.89507224442434" y="670.1333871481008" width="112.0" height="28.0" rx="3" fill="url(#bevelr1x1380)" stroke="#ccccff" stroke-width="1.6" filter="url(#wmr1x1380)"/><rect x="69.98169293640179" y="672.6533062419854" width="64.0" height="10.0" rx="1" fill="rgba(255,255,255,.32)"/><rect x="90.69595130825412" y="676.4337412138469" width="24.0" height="6.0" rx="1" fill="#ccccff" fill-opacity=".35"/><rect x="89.34004845185203" y="684.1523284247145" width="24.0" height="6.0" rx="1" fill="#ccccff" fill-opacity=".35"/><rect x="89.2760720822401" y="693.8822068544105" width="24.0" height="6.0" rx="1" fill="#ccccff" fill-opacity=".35"/><rect x="90.51950534734871" y="702.6642929001711" width="24.0" height="6.0" rx="1" fill="#ccccff" fill-opacity=".35"/><rect x="91.69546801684422" y="708.0449624309316" width="24.0" height="6.0" rx="1" fill="#ccccff" fill-opacity=".35"/><rect x="89.4659273975901" y="716.2708448508754" width="24.0" height="6.0" rx="1" fill="#ccccff" fill-opacity=".35"/><ellipse cx="101.2056157119013" cy="725.9166091028601" rx="22.0" ry="16.0" fill="url(#bevelr1x1380)" stroke="#ccccff" stroke-width="1.2" filter="url(#wmr1x1380)"/></g><rect x="449.56875722911207" y="555.9015786703676" width="100.0"  height="56.0" fill="#242438" stroke="#ccccff" stroke-width="2.2" filter="url(#skr1x1380)"/><rect x="423.05878716865556" y="574.7002684515901" width="152.0" height="26.0" fill="url(#bevelr1x1380)" fill-opacity=".65" stroke="#ccccff" stroke-width="1.2" filter="url(#skr1x1380)"/><polygon points="309.5,382.0 351.0,295.0 499.3,277.8 651.1,295.1 690.5,381.2 669.3,504.7 498.5,563.9 331.5,504.8" fill="url(#suitr1x1380)" stroke="#ccccff" stroke-width="2.8" filter="url(#skr1x1380) url(#metalr1x1380)"/><polygon points="307.8,379.1 349.6,293.1 498.9,277.1 648.1,294.5 692.8,381.2 670.0,504.4 500.4,566.0 330.0,504.3" fill="url(#carbonr1x1380)"/><polygon points="380.1,302.4 498.9,286.9 617.3,301.7 608.1,382.2 393.7,382.0" fill="url(#suitHir1x1380)"/><polygon points="381.9,380.7 364.2,427.3 433.1,502.7 498.8,528.6 567.4,504.7 635.8,425.7 620.6,378.9" fill="#1e0600" fill-opacity=".88" stroke="#ccccff" stroke-width="1.8" filter="url(#skr1x1380)"/><polygon points="382.6,410.7 475.7,412.8 484.2,438.3 389.7,441.1" fill="#ccccff" filter="url(#glowr1x1380)"/><polygon points="523.7,411.2 618.5,409.9 610.6,440.1 513.7,440.5" fill="#ccccff" filter="url(#glowr1x1380)"/><ellipse cx="430.9" cy="425.7" rx="38.4"  ry="8.2" fill="#ffffff" opacity=".88"/><ellipse cx="569.1" cy="425.7" rx="38.4"  ry="8.2" fill="#ffffff" opacity=".88"/><line x1="483.93834176516157" y1="411.89897463647645" x2="514.5078287270293" y2="412.3021727529354" stroke="#ccccff" stroke-opacity=".52" stroke-width="2"/><line x1="484.4383434268273" y1="438.1580164306797" x2="513.9021168193221" y2="438.8497469407506" stroke="#ccccff" stroke-opacity=".52" stroke-width="2"/><line x1="499.0387749708258" y1="453.8432110591791" x2="499.8830098371021" y2="482.24769643628974" stroke="#ccccff" stroke-opacity=".58" stroke-width="2.2" filter="url(#skr1x1380)"/><line x1="453.93198063222695" y1="492.1938269445672" x2="454.8270209586993" y2="519.8549348887988" stroke="#ccccff" stroke-opacity=".52" stroke-width="1.5" filter="url(#skr1x1380)"/><line x1="477.120523258429" y1="490.6787175714038" x2="477.14583383327346" y2="521.0459003033117" stroke="#ccccff" stroke-opacity=".52" stroke-width="1.5" filter="url(#skr1x1380)"/><line x1="500.53064225772397" y1="491.7938887891359" x2="501.7648825774901" y2="520.1233247485012" stroke="#ccccff" stroke-opacity=".52" stroke-width="1.5" filter="url(#skr1x1380)"/><line x1="521.3846805679239" y1="490.0729597970843" x2="522.519056064412" y2="520.2460045682267" stroke="#ccccff" stroke-opacity=".52" stroke-width="1.5" filter="url(#skr1x1380)"/><line x1="547.7000348752551" y1="492.10273630926383" x2="545.3074727260695" y2="519.0842861720361" stroke="#ccccff" stroke-opacity=".52" stroke-width="1.5" filter="url(#skr1x1380)"/><polygon points="431.4,503.7 568.1,505.3 552.3,558.2 444.8,556.1" fill="#242438" fill-opacity=".72" stroke="#ccccff" stroke-width="1.3" filter="url(#skr1x1380)"/><path d="M387.2672124500945 326.8256960003637 Q329.6274616338871 217.53728607147931 380.3980423896015 139.34568090131506" stroke="#ccccff" stroke-width="5" fill="none" stroke-linecap="round" filter="url(#skr1x1380)"/><path d="M388.2748490770906 326.26289447145535 Q331.88071882469575 217.02436254434286 382.10866042789075 141.9463634632528" stroke="rgba(255,255,255,.25)" stroke-width="1.5" fill="none" stroke-linecap="round"/><path d="M611.6434920685739 326.5140615452081 Q668.7829549861514 218.28751021670178 618.1893487600237 139.1735663282685" stroke="#ccccff" stroke-width="5" fill="none" stroke-linecap="round" filter="url(#skr1x1380)"/><path d="M612.567768034935 328.2326701917686 Q667.7121611923352 216.83392396504058 617.5878715213946 141.39465742418543" stroke="rgba(255,255,255,.25)" stroke-width="1.5" fill="none" stroke-linecap="round"/><text x="30.0"  y="975.0" font-family="monospace" font-weight="bold" font-size="22.0" fill="rgba(255,255,255,.22)">#0001</text><text x="500.0"   y="975.0" text-anchor="middle" font-family="monospace" font-weight="bold" font-size="22.0" fill="#ccccff" fill-opacity=".48">PHANTOM RANGER</text><text x="970.0" y="975.0" text-anchor="end"    font-family="monospace" font-weight="bold" font-size="22.0" fill="#ccccff" fill-opacity=".32">MECH RANGERS</text></svg>