<svg xmlns="http://www.w3.org/2000/svg" viewBox="0 0 1000 1000" width="1000" height="1000" shape-rendering="geometricPrecision"><defs>

  <!-- Scene gradients -->
  <radialGradient id="bgr1x1385" cx="50%" cy="42%" r="72%">
    <stop offset="0%"   stop-color="#0e000e"/>
    <stop offset="100%" stop-color="#1e0600"/>
  </radialGradient>
  <linearGradient id="suitr1x1385" x1="8%" y1="0%" x2="92%" y2="100%">
    <stop offset="0%"   stop-color="#00ff60" stop-opacity=".95"/>
    <stop offset="45%"  stop-color="#00441e"/>
    <stop offset="100%" stop-color="#1e0600"/>
  </linearGradient>
  <linearGradient id="suitHir1x1385" x1="0%" y1="0%" x2="0%" y2="100%">
    <stop offset="0%"   stop-color="rgba(255,255,255,.28)"/>
    <stop offset="60%"  stop-color="rgba(255,255,255,.04)"/>
    <stop offset="100%" stop-color="rgba(255,255,255,0)"/>
  </linearGradient>
  <!-- Bevel: bright top, dark bottom for armour panels -->
  <linearGradient id="bevelr1x1385" x1="0%" y1="0%" x2="0%" y2="100%">
    <stop offset="0%"   stop-color="rgba(255,255,255,.55)"/>
    <stop offset="30%"  stop-color="#00ff60"/>
    <stop offset="70%"  stop-color="#00441e"/>
    <stop offset="100%" stop-color="rgba(0,0,0,.5)"/>
  </linearGradient>

  <!-- Weapon: cold steel blade sweep -->
  <linearGradient id="blader1x1385" x1="0%" y1="0%" x2="100%" y2="0%">
    <stop offset="0%"   stop-color="#0e0e20"/>
    <stop offset="16%"  stop-color="#3e3e58"/>
    <stop offset="34%"  stop-color="#c8c8e0"/>
    <stop offset="50%"  stop-color="#f5f5ff"/>
    <stop offset="66%"  stop-color="#b8b8d0"/>
    <stop offset="84%"  stop-color="#2e2e48"/>
    <stop offset="100%" stop-color="#08080e"/>
  </linearGradient>
  <!-- Blade tip brightening -->
  <linearGradient id="bladeTipr1x1385" x1="0%" y1="100%" x2="0%" y2="0%">
    <stop offset="0%"   stop-color="rgba(255,255,255,0)"/>
    <stop offset="55%"  stop-color="rgba(255,255,255,.1)"/>
    <stop offset="100%" stop-color="rgba(255,255,255,.55)"/>
  </linearGradient>
  <!-- Gunmetal anodised — blaster body -->
  <linearGradient id="gunmetalr1x1385" x1="0%" y1="0%" x2="0%" y2="100%">
    <stop offset="0%"   stop-color="#46465e"/>
    <stop offset="18%"  stop-color="#828296"/>
    <stop offset="42%"  stop-color="#26263a"/>
    <stop offset="72%"  stop-color="#16162a"/>
    <stop offset="100%" stop-color="#0c0c18"/>
  </linearGradient>
  <!-- Brushed steel tube — barrel/rod -->
  <linearGradient id="barrelr1x1385" x1="0%" y1="0%" x2="100%" y2="0%">
    <stop offset="0%"   stop-color="#0a0a14"/>
    <stop offset="24%"  stop-color="#585875"/>
    <stop offset="50%"  stop-color="#a8a8c8"/>
    <stop offset="76%"  stop-color="#383852"/>
    <stop offset="100%" stop-color="#0a0a14"/>
  </linearGradient>
  <!-- Chrome rod — lance shaft -->
  <linearGradient id="chromer1x1385" x1="0%" y1="0%" x2="100%" y2="0%">
    <stop offset="0%"   stop-color="#0c0c18"/>
    <stop offset="20%"  stop-color="#686888"/>
    <stop offset="44%"  stop-color="#e0e0f0"/>
    <stop offset="56%"  stop-color="#c0c0d8"/>
    <stop offset="80%"  stop-color="#28283e"/>
    <stop offset="100%" stop-color="#0c0c18"/>
  </linearGradient>
  <!-- Titanium plate — shield face -->
  <linearGradient id="titaniumr1x1385" x1="0%" y1="0%" x2="100%" y2="100%">
    <stop offset="0%"   stop-color="#585878"/>
    <stop offset="28%"  stop-color="#00ff60" stop-opacity=".88"/>
    <stop offset="55%"  stop-color="#00441e"/>
    <stop offset="80%"  stop-color="#181828"/>
    <stop offset="100%" stop-color="#0a0a18"/>
  </linearGradient>
  <!-- Artillery black-chrome — cannon body -->
  <linearGradient id="artilleryr1x1385" x1="0%" y1="0%" x2="0%" y2="100%">
    <stop offset="0%"   stop-color="#383850"/>
    <stop offset="14%"  stop-color="#78789a"/>
    <stop offset="36%"  stop-color="#202034"/>
    <stop offset="65%"  stop-color="#14141e"/>
    <stop offset="100%" stop-color="#0a0a12"/>
  </linearGradient>
  <!-- Energy orb — staff -->
  <radialGradient id="orbr1x1385" cx="35%" cy="35%" r="65%">
    <stop offset="0%"   stop-color="rgba(255,255,255,.9)"/>
    <stop offset="30%"  stop-color="#00ff60"/>
    <stop offset="68%"  stop-color="#00441e"/>
    <stop offset="100%" stop-color="rgba(0,0,0,.6)"/>
  </radialGradient>
  <!-- Knuckle plate chrome -->
  <linearGradient id="knuckler1x1385" x1="0%" y1="0%" x2="0%" y2="100%">
    <stop offset="0%"   stop-color="#888aaa"/>
    <stop offset="32%"  stop-color="#00ff60" stop-opacity=".8"/>
    <stop offset="62%"  stop-color="#1a1a2c"/>
    <stop offset="100%" stop-color="#0a0a14"/>
  </linearGradient>

  <!-- Carbon fibre weave texture overlay -->
  <pattern id="carbonr1x1385" width="6" height="6" patternUnits="userSpaceOnUse">
    <rect width="6" height="6" fill="rgba(0,0,0,.08)"/>
    <rect x="0" y="0" width="3" height="3" fill="rgba(255,255,255,.022)"/>
    <rect x="3" y="3" width="3" height="3" fill="rgba(255,255,255,.022)"/>
    <line x1="0" y1="0" x2="3" y2="3" stroke="rgba(255,255,255,.038)" stroke-width=".5"/>
    <line x1="3" y1="0" x2="6" y2="3" stroke="rgba(0,0,0,.055)"       stroke-width=".5"/>
    <line x1="0" y1="3" x2="3" y2="6" stroke="rgba(0,0,0,.055)"       stroke-width=".5"/>
    <line x1="3" y1="3" x2="6" y2="6" stroke="rgba(255,255,255,.038)" stroke-width=".5"/>
  </pattern>

  <!-- Specular metal sheen on armour panels -->
  <filter id="metalr1x1385" x="-5%" y="-5%" width="110%" height="110%">
    <feSpecularLighting surfaceScale="4" specularConstant="1.8"
        specularExponent="42" lighting-color="#ffffff" result="spec">
      <feDistantLight elevation="52" azimuth="38"/>
    </feSpecularLighting>
    <feComposite in="spec" in2="SourceGraphic" operator="in" result="sm"/>
    <feComposite in="SourceGraphic" in2="sm" operator="arithmetic" k1="0" k2="1" k3="0.55" k4="0"/>
  </filter>

  <!-- Sharper specular for weapons — heavier glare -->
  <filter id="wmr1x1385" x="-8%" y="-8%" width="116%" height="116%">
    <feSpecularLighting surfaceScale="6" specularConstant="2.4"
        specularExponent="65" lighting-color="#ffffff" result="spec">
      <feDistantLight elevation="44" azimuth="28"/>
    </feSpecularLighting>
    <feComposite in="spec" in2="SourceGraphic" operator="in" result="sm"/>
    <feComposite in="SourceGraphic" in2="sm" operator="arithmetic" k1="0" k2="1" k3="0.78" k4="0"/>
  </filter>

  <!-- Sketch wobble -->
  <filter id="skr1x1385" x="-8%" y="-8%" width="116%" height="116%">
    <feTurbulence type="fractalNoise" baseFrequency="0.038"
        numOctaves="3" seed="9" result="noise"/>
    <feDisplacementMap in="SourceGraphic" in2="noise" scale="2.6"
        xChannelSelector="R" yChannelSelector="G" result="w"/>
    <feComposite in="w" in2="SourceGraphic" operator="atop"/>
  </filter>

  <!-- Glow: sharp accent -->
  <filter id="glowr1x1385" x="-20%" y="-20%" width="140%" height="140%">
    <feGaussianBlur stdDeviation="3.5" result="b"/>
    <feColorMatrix in="b" type="matrix"
        values="0 0 0 0 1  0 0 0 0 1  0 0 0 0 1  0 0 0 1.8 0" result="boost"/>
    <feMerge><feMergeNode in="boost"/><feMergeNode in="SourceGraphic"/></feMerge>
  </filter>

  <!-- Bloom: wide soft -->
  <filter id="bloomr1x1385" x="-40%" y="-40%" width="180%" height="180%">
    <feGaussianBlur stdDeviation="11" result="b"/>
    <feMerge><feMergeNode in="b"/><feMergeNode in="SourceGraphic"/></feMerge>
  </filter>

  </defs><rect width="1000" height="1000" fill="url(#bgr1x1385)"/><ellipse cx="500.0" cy="1000" rx="850.0" ry="350.0" fill="#ff4500" fill-opacity=".11" filter="url(#bloomr1x1385)"/><ellipse cx="500.0" cy="892.0" rx="350.0" ry="65.0" fill="rgba(0,0,0,.7)" filter="url(#bloomr1x1385)"/><ellipse cx="500.0" cy="889.0" rx="220.0" ry="34.0" fill="rgba(0,0,0,.45)"/><ellipse cx="500.0" cy="520.0" rx="320.0" ry="480.0" fill="#ff00ff" fill-opacity=".042" filter="url(#bloomr1x1385)"/><circle cx="604.9" cy="203.2" r="3.2" fill="#ff00ff" fill-opacity="0.47" filter="url(#glowr1x1385)"/><circle cx="543.3" cy="769.4" r="2.0" fill="#ff00ff" fill-opacity="0.82" filter="url(#glowr1x1385)"/><circle cx="385.3" cy="207.3" r="3.5" fill="#ff00ff" fill-opacity="0.63" filter="url(#glowr1x1385)"/><circle cx="601.8" cy="343.8" r="3.4" fill="#ff00ff" fill-opacity="0.58" filter="url(#glowr1x1385)"/><circle cx="301.3" cy="610.8" r="2.8" fill="#ff00ff" fill-opacity="0.69" filter="url(#glowr1x1385)"/><circle cx="288.9" cy="631.7" r="1.4" fill="#ff00ff" fill-opacity="0.41" filter="url(#glowr1x1385)"/><circle cx="676.6" cy="606.2" r="2.6" fill="#ff00ff" fill-opacity="0.73" filter="url(#glowr1x1385)"/><circle cx="689.3" cy="786.8" r="2.0" fill="#ff00ff" fill-opacity="0.64" filter="url(#glowr1x1385)"/><circle cx="473.8" cy="221.9" r="2.4" fill="#ff00ff" fill-opacity="0.46" filter="url(#glowr1x1385)"/><circle cx="280.1" cy="673.3" r="1.0" fill="#ff00ff" fill-opacity="0.76" filter="url(#glowr1x1385)"/><circle cx="441.7" cy="281.8" r="4.2" fill="#ff00ff" fill-opacity="0.90" filter="url(#glowr1x1385)"/><circle cx="406.7" cy="690.7" r="4.0" fill="#ff00ff" fill-opacity="0.54" filter="url(#glowr1x1385)"/><circle cx="699.4" cy="232.0" r="1.2" fill="#ff00ff" fill-opacity="0.38" filter="url(#glowr1x1385)"/><circle cx="391.4" cy="709.5" r="1.8" fill="#ff00ff" fill-opacity="0.90" filter="url(#glowr1x1385)"/><path d="M684.8,158.1 Q672.5,479.1 600.9,752.7" stroke="#ff00ff" stroke-opacity="0.41" stroke-width="2.4" fill="none" filter="url(#glowr1x1385)"/><path d="M596.1,211.3 Q591.4,428.7 570.9,667.5" stroke="#ff00ff" stroke-opacity="0.51" stroke-width="2.0" fill="none" filter="url(#glowr1x1385)"/><path d="M321.5,209.7 Q282.2,517.7 616.0,876.1" stroke="#ff00ff" stroke-opacity="0.80" stroke-width="1.3" fill="none" filter="url(#glowr1x1385)"/><path d="M556.3,240.0 Q590.2,477.1 619.0,767.7" stroke="#ff00ff" stroke-opacity="0.51" stroke-width="0.7" fill="none" filter="url(#glowr1x1385)"/><path d="M490.6,239.7 Q515.7,539.0 575.9,808.5" stroke="#ff00ff" stroke-opacity="0.50" stroke-width="2.6" fill="none" filter="url(#glowr1x1385)"/><polygon points="397.3,661.9 489.7,661.7 480.9,878.2 388.3,875.8" fill="url(#suitr1x1385)" stroke="#00ff60" stroke-width="2.2" filter="url(#skr1x1385) url(#metalr1x1385)"/><polygon points="400.1,662.5 489.5,663.7 482.1,876.2 387.1,876.1" fill="url(#carbonr1x1385)"/><polygon points="391.1,725.5 494.1,723.9 482.8,787.7 385.5,786.8" fill="url(#bevelr1x1385)" fill-opacity=".5" stroke="#00ff60" stroke-width="1.4" filter="url(#skr1x1385)"/><polygon points="509.0,662.7 599.5,663.1 613.6,876.9 519.1,877.3" fill="url(#suitr1x1385)" stroke="#00ff60" stroke-width="2.2" filter="url(#skr1x1385) url(#metalr1x1385)"/><polygon points="508.9,660.8 601.7,661.8 611.8,876.4 519.5,879.1" fill="url(#carbonr1x1385)"/><polygon points="508.4,723.1 606.1,722.3 617.4,787.8 516.8,787.0" fill="url(#bevelr1x1385)" fill-opacity=".5" stroke="#00ff60" stroke-width="1.4" filter="url(#skr1x1385)"/><rect x="392.7" y="838.1" width="100.3" height="24.7" fill="url(#bevelr1x1385)" stroke="#00ff60" stroke-width="1" filter="url(#skr1x1385)"/><rect x="506.2"  y="837.8" width="100.3" height="24.7" fill="url(#bevelr1x1385)" stroke="#00ff60" stroke-width="1" filter="url(#skr1x1385)"/><polygon points="371.4,878.6 496.4,876.8 503.3,921.6 362.2,919.9" fill="#00441e" stroke="#00ff60" stroke-width="2" filter="url(#skr1x1385)"/><polygon points="504.2,876.2 629.0,877.6 636.7,922.7 495.0,921.8" fill="#00441e" stroke="#00ff60" stroke-width="2" filter="url(#skr1x1385)"/><polygon points="304.0,634.6 695.6,634.4 637.7,681.4 360.7,683.2" fill="#00ff60" fill-opacity=".52" stroke="#00ff60" stroke-width="2" filter="url(#skr1x1385)"/><rect x="464.8" y="637.5" width="72.0" height="42.0" fill="url(#bevelr1x1385)" stroke="#00ff60" stroke-width="1.4" filter="url(#glowr1x1385)"/><rect x="487.0" y="642.0" width="28.0" height="22.0" rx="1" fill="rgba(255,255,255,.48)"/><polygon points="152.0,467.0 235.1,465.2 256.4,734.2 126.9,733.9" fill="url(#suitr1x1385)" stroke="#00ff60" stroke-width="2.2" filter="url(#skr1x1385) url(#metalr1x1385)"/><polygon points="172.6,432.0 253.1,432.5 244.3,509.5 160.1,510.7" fill="url(#bevelr1x1385)" fill-opacity=".72" stroke="#00ff60" stroke-width="2.2" filter="url(#skr1x1385)"/><polygon points="161.6,622.0 242.2,621.6 237.4,660.5 165.6,659.5" fill="#00ff60" fill-opacity=".42" stroke="#00ff60" stroke-width="1" filter="url(#skr1x1385)"/><polygon points="766.3,464.7 845.6,465.7 872.1,735.3 740.8,735.5" fill="url(#suitr1x1385)" stroke="#00ff60" stroke-width="2.2" filter="url(#skr1x1385) url(#metalr1x1385)"/><polygon points="748.0,432.9 827.0,431.4 840.2,509.1 758.3,511.2" fill="url(#bevelr1x1385)" fill-opacity=".72" stroke="#00ff60" stroke-width="2.2" filter="url(#skr1x1385)"/><polygon points="757.0,621.2 840.5,621.7 834.1,660.9 762.7,662.2" fill="#00ff60" fill-opacity=".42" stroke="#00ff60" stroke-width="1" filter="url(#skr1x1385)"/><rect x="120.9"  y="698.9" width="135.3" height="85.0" rx="4" fill="url(#bevelr1x1385)" stroke="#00ff60" stroke-width="1.8" filter="url(#skr1x1385)"/><rect x="749.9"   y="701.6" width="135.3" height="85.0" rx="4" fill="url(#bevelr1x1385)" stroke="#00ff60" stroke-width="1.8" filter="url(#skr1x1385)"/><line x1="149.7" y1="702.6" x2="148.0" y2="782.8" stroke="#00ff60" stroke-opacity=".38" stroke-width="1"/><line x1="776.4" y1="700.3" x2="779.4" y2="783.2" stroke="#00ff60" stroke-opacity=".38" stroke-width="1"/><line x1="181.0" y1="700.3" x2="180.9" y2="784.3" stroke="#00ff60" stroke-opacity=".38" stroke-width="1"/><line x1="811.3" y1="702.4" x2="810.3" y2="783.1" stroke="#00ff60" stroke-opacity=".38" stroke-width="1"/><line x1="214.9" y1="700.8" x2="216.4" y2="784.1" stroke="#00ff60" stroke-opacity=".38" stroke-width="1"/><line x1="843.1" y1="702.6" x2="842.4" y2="782.9" stroke="#00ff60" stroke-opacity=".38" stroke-width="1"/><polygon points="236.4,419.1 763.7,416.0 723.7,663.3 278.5,661.4" fill="url(#suitr1x1385)" stroke="#00ff60" stroke-width="2.6" filter="url(#skr1x1385) url(#metalr1x1385)"/><polygon points="236.6,417.8 764.2,418.3 723.9,662.7 275.7,662.6" fill="url(#carbonr1x1385)"/><polygon points="368.2,415.7 632.2,417.7 610.4,515.2 389.1,515.7" fill="url(#suitHir1x1385)"/><line x1="362.4" y1="470.5" x2="638.6" y2="472.6" stroke="#00ff60" stroke-opacity=".52" stroke-width="1.3" filter="url(#skr1x1385)"/><line x1="401.1" y1="550.3" x2="600.4" y2="549.2" stroke="#00ff60" stroke-opacity=".52" stroke-width="1.3" filter="url(#skr1x1385)"/><line x1="265.4" y1="492.4" x2="319.0" y2="492.4" stroke="#00ff60" stroke-opacity=".62" stroke-width="1.8"/><line x1="678.9" y1="491.6" x2="733.0" y2="491.7" stroke="#00ff60" stroke-opacity=".62" stroke-width="1.8"/><line x1="265.7" y1="522.4" x2="319.3" y2="523.2" stroke="#00ff60" stroke-opacity=".62" stroke-width="1.8"/><line x1="680.5" y1="522.5" x2="734.8" y2="521.6" stroke="#00ff60" stroke-opacity=".62" stroke-width="1.8"/><line x1="265.8" y1="554.3" x2="321.5" y2="555.3" stroke="#00ff60" stroke-opacity=".62" stroke-width="1.8"/><line x1="681.3" y1="553.6" x2="731.6" y2="553.2" stroke="#00ff60" stroke-opacity=".62" stroke-width="1.8"/><line x1="266.2" y1="585.8" x2="319.1" y2="586.4" stroke="#00ff60" stroke-opacity=".62" stroke-width="1.8"/><line x1="678.6" y1="587.7" x2="731.8" y2="585.5" stroke="#00ff60" stroke-opacity=".62" stroke-width="1.8"/><g filter="url(#glowr1x1385)"><circle cx="498.3" cy="500.3" r="31.3" fill="#00ff60" stroke="#1e0600" stroke-width="1.4" filter="url(#skr1x1385)"/><circle cx="487.1" cy="497.8" r="7.0" fill="#1e0600"/><circle cx="510.2" cy="498.4" r="7.0" fill="#1e0600"/><rect x="484.9" y="520.6" width="9.3" height="17.4" rx="1" fill="#00ff60" stroke="#1e0600" stroke-width=".6"/><rect x="494.6" y="523.6" width="9.3" height="17.4" rx="1" fill="#00ff60" stroke="#1e0600" stroke-width=".6"/><rect x="509.1" y="522.3" width="9.3" height="17.4" rx="1" fill="#00ff60" stroke="#1e0600" stroke-width=".6"/></g><g><polygon points="76.2,671.4 128.2,671.4 112.6,-28.6 91.8,-28.6" fill="url(#blader1x1385)" filter="url(#wmr1x1385)"/><polygon points="91.8,-28.6 112.6,-28.6 102.2,-138.6" fill="url(#blader1x1385)" filter="url(#wmr1x1385)"/><polygon points="100.3,671.4 104.0,671.4 102.7,-128.6 101.6,-128.6" fill="url(#bladeTipr1x1385)" opacity=".9"/><line x1="112.32265681110319" y1="670.6322043456137" x2="102.75764101417732" y2="-128.76816183598714" stroke="rgba(255,255,255,.68)" stroke-width="1.5"/><line x1="92.6850451601669" y1="672.6682928977534" x2="102.17733044315126" y2="-127.32599448319527" stroke="#00ff60" stroke-width="1" stroke-opacity=".45"/><line x1="106.8" y1="651.4" x2="104.0" y2="11.4" stroke="rgba(0,0,0,.38)" stroke-width="1.6"/><line x1="97.5" y1="651.4" x2="100.3" y2="11.4" stroke="rgba(0,0,0,.38)" stroke-width="1.6"/><rect x="47.44851701524105" y="668.6439641071483" width="112.0" height="28.0" rx="3" fill="url(#bevelr1x1385)" stroke="#00ff60" stroke-width="1.6" filter="url(#wmr1x1385)"/><rect x="70.86251956256103" y="675.1149607039988" width="64.0" height="10.0" rx="1" fill="rgba(255,255,255,.32)"/><rect x="88.72806263430041" y="676.7731578608974" width="24.0" height="6.0" rx="1" fill="#00ff60" fill-opacity=".35"/><rect x="88.64993465583768" y="684.0751802220009" width="24.0" height="6.0" rx="1" fill="#00ff60" fill-opacity=".35"/><rect x="91.1350872804783" y="691.6327426617033" width="24.0" height="6.0" rx="1" fill="#00ff60" fill-opacity=".35"/><rect x="91.82452125553039" y="700.3477905526757" width="24.0" height="6.0" rx="1" fill="#00ff60" fill-opacity=".35"/><rect x="89.27901625758034" y="709.7290543407202" width="24.0" height="6.0" rx="1" fill="#00ff60" fill-opacity=".35"/><rect x="90.86529940398407" y="716.7484942340292" width="24.0" height="6.0" rx="1" fill="#00ff60" fill-opacity=".35"/><ellipse cx="103.49558695288371" cy="725.6594015996903" rx="22.0" ry="16.0" fill="url(#bevelr1x1385)" stroke="#00ff60" stroke-width="1.2" filter="url(#wmr1x1385)"/></g><rect x="451.3354207338765" y="557.0702279927209" width="100.0"  height="56.0" fill="#00441e" stroke="#00ff60" stroke-width="2.2" filter="url(#skr1x1385)"/><rect x="425.07505329847334" y="576.8662906029261" width="152.0" height="26.0" fill="url(#bevelr1x1385)" fill-opacity=".65" stroke="#00ff60" stroke-width="1.2" filter="url(#skr1x1385)"/><polygon points="306.6,382.4 349.7,292.9 500.9,278.6 651.3,295.7 693.8,379.2 670.2,503.4 501.1,565.1 330.9,505.3" fill="url(#suitr1x1385)" stroke="#00ff60" stroke-width="2.8" filter="url(#skr1x1385) url(#metalr1x1385)"/><polygon points="309.1,381.4 351.3,295.7 500.9,278.5 650.8,295.6 693.4,380.8 669.8,503.9 499.9,566.9 330.4,502.8" fill="url(#carbonr1x1385)"/><polygon points="381.3,302.9 498.2,284.8 619.3,301.7 607.9,380.2 392.4,380.2" fill="url(#suitHir1x1385)"/><polygon points="381.3,380.0 367.1,427.2 433.0,504.1 498.7,526.7 569.0,503.3 634.2,425.6 617.6,378.9" fill="#1e0600" fill-opacity=".88" stroke="#00ff60" stroke-width="1.8" filter="url(#skr1x1385)"/><polygon points="380.1,410.1 475.4,412.7 486.1,440.1 389.5,441.5" fill="#00ff60" filter="url(#glowr1x1385)"/><polygon points="524.5,412.2 617.9,410.8 609.8,440.0 513.8,439.4" fill="#00ff60" filter="url(#glowr1x1385)"/><ellipse cx="430.9" cy="425.7" rx="38.4"  ry="8.2" fill="#ffffff" opacity=".88"/><ellipse cx="569.1" cy="425.7" rx="38.4"  ry="8.2" fill="#ffffff" opacity=".88"/><line x1="486.2355182845704" y1="413.28096862910314" x2="516.3153803255782" y2="411.88905062656846" stroke="#00ff60" stroke-opacity=".52" stroke-width="2"/><line x1="483.7859953659214" y1="438.98548324517907" x2="514.2664304018393" y2="437.1156155124307" stroke="#00ff60" stroke-opacity=".52" stroke-width="2"/><line x1="501.7493276326917" y1="455.855066833552" x2="500.5350479369052" y2="484.6741803923622" stroke="#00ff60" stroke-opacity=".58" stroke-width="2.2" filter="url(#skr1x1385)"/><line x1="453.5009775887989" y1="492.67215080689635" x2="453.19999029643833" y2="519.0015593710356" stroke="#00ff60" stroke-opacity=".52" stroke-width="1.5" filter="url(#skr1x1385)"/><line x1="475.56095682907846" y1="490.0011232852004" x2="477.60096425119787" y2="518.2571071786806" stroke="#00ff60" stroke-opacity=".52" stroke-width="1.5" filter="url(#skr1x1385)"/><line x1="498.598337504454" y1="492.8050918815657" x2="498.4569162261672" y2="521.5184129276313" stroke="#00ff60" stroke-opacity=".52" stroke-width="1.5" filter="url(#skr1x1385)"/><line x1="524.3320310116372" y1="490.8898238175548" x2="522.2315137764066" y2="519.9496501465328" stroke="#00ff60" stroke-opacity=".52" stroke-width="1.5" filter="url(#skr1x1385)"/><line x1="545.1610353489593" y1="490.3365723315626" x2="546.6559971439839" y2="521.2082196502015" stroke="#00ff60" stroke-opacity=".52" stroke-width="1.5" filter="url(#skr1x1385)"/><polygon points="434.3,505.3 567.6,502.1 555.5,555.8 445.9,556.3" fill="#00441e" fill-opacity=".72" stroke="#00ff60" stroke-width="1.3" filter="url(#skr1x1385)"/><circle cx="500.0" cy="315.0" r="203.5" fill="none" stroke="#00ff60" stroke-width="3" stroke-dasharray="6,4" filter="url(#bloomr1x1385)"/><circle cx="500.0" cy="315.0" r="134.4"   fill="none" stroke="#00ff60" stroke-width="1.2" stroke-opacity=".42"/><circle cx="703.5" cy="315.0" r="1.8" fill="#00ff60" filter="url(#glowr1x1385)"/><circle cx="688.0" cy="392.9" r="2.7" fill="#00ff60" filter="url(#glowr1x1385)"/><circle cx="643.9" cy="458.9" r="2.8" fill="#00ff60" filter="url(#glowr1x1385)"/><circle cx="577.9" cy="503.0" r="2.0" fill="#00ff60" filter="url(#glowr1x1385)"/><circle cx="500.0" cy="518.5" r="1.0" fill="#00ff60" filter="url(#glowr1x1385)"/><circle cx="422.1" cy="503.0" r="0.7" fill="#00ff60" filter="url(#glowr1x1385)"/><circle cx="356.1" cy="458.9" r="1.5" fill="#00ff60" filter="url(#glowr1x1385)"/><circle cx="312.0" cy="392.9" r="2.5" fill="#00ff60" filter="url(#glowr1x1385)"/><circle cx="296.5" cy="315.0" r="2.9" fill="#00ff60" filter="url(#glowr1x1385)"/><circle cx="312.0" cy="237.1" r="2.3" fill="#00ff60" filter="url(#glowr1x1385)"/><circle cx="356.1" cy="171.1" r="1.2" fill="#00ff60" filter="url(#glowr1x1385)"/><circle cx="422.1" cy="127.0" r="0.7" fill="#00ff60" filter="url(#glowr1x1385)"/><circle cx="500.0" cy="111.5" r="1.2" fill="#00ff60" filter="url(#glowr1x1385)"/><circle cx="577.9" cy="127.0" r="2.3" fill="#00ff60" filter="url(#glowr1x1385)"/><circle cx="643.9" cy="171.1" r="2.9" fill="#00ff60" filter="url(#glowr1x1385)"/><circle cx="688.0" cy="237.1" r="2.5" fill="#00ff60" filter="url(#glowr1x1385)"/><text x="30.0"  y="975.0" font-family="monospace" font-weight="bold" font-size="22.0" fill="rgba(255,255,255,.22)">#0001</text><text x="500.0"   y="975.0" text-anchor="middle" font-family="monospace" font-weight="bold" font-size="22.0" fill="#00ff60" fill-opacity=".48">VIPER RANGER</text><text x="970.0" y="975.0" text-anchor="end"    font-family="monospace" font-weight="bold" font-size="22.0" fill="#00ff60" fill-opacity=".32">MECH RANGERS</text></svg>