<svg xmlns="http://www.w3.org/2000/svg" viewBox="0 0 1000 1000" width="1000" height="1000" shape-rendering="geometricPrecision"><defs>

  <!-- Scene gradients -->
  <radialGradient id="bgr1x1441" cx="50%" cy="42%" r="72%">
    <stop offset="0%"   stop-color="#1e0d00"/>
    <stop offset="100%" stop-color="#140900"/>
  </radialGradient>
  <linearGradient id="suitr1x1441" x1="8%" y1="0%" x2="92%" y2="100%">
    <stop offset="0%"   stop-color="#00ff60" stop-opacity=".95"/>
    <stop offset="45%"  stop-color="#00441e"/>
    <stop offset="100%" stop-color="#140900"/>
  </linearGradient>
  <linearGradient id="suitHir1x1441" x1="0%" y1="0%" x2="0%" y2="100%">
    <stop offset="0%"   stop-color="rgba(255,255,255,.28)"/>
    <stop offset="60%"  stop-color="rgba(255,255,255,.04)"/>
    <stop offset="100%" stop-color="rgba(255,255,255,0)"/>
  </linearGradient>
  <!-- Bevel: bright top, dark bottom for armour panels -->
  <linearGradient id="bevelr1x1441" x1="0%" y1="0%" x2="0%" y2="100%">
    <stop offset="0%"   stop-color="rgba(255,255,255,.55)"/>
    <stop offset="30%"  stop-color="#00ff60"/>
    <stop offset="70%"  stop-color="#00441e"/>
    <stop offset="100%" stop-color="rgba(0,0,0,.5)"/>
  </linearGradient>

  <!-- Weapon: cold steel blade sweep -->
  <linearGradient id="blader1x1441" x1="0%" y1="0%" x2="100%" y2="0%">
    <stop offset="0%"   stop-color="#0e0e20"/>
    <stop offset="16%"  stop-color="#3e3e58"/>
    <stop offset="34%"  stop-color="#c8c8e0"/>
    <stop offset="50%"  stop-color="#f5f5ff"/>
    <stop offset="66%"  stop-color="#b8b8d0"/>
    <stop offset="84%"  stop-color="#2e2e48"/>
    <stop offset="100%" stop-color="#08080e"/>
  </linearGradient>
  <!-- Blade tip brightening -->
  <linearGradient id="bladeTipr1x1441" x1="0%" y1="100%" x2="0%" y2="0%">
    <stop offset="0%"   stop-color="rgba(255,255,255,0)"/>
    <stop offset="55%"  stop-color="rgba(255,255,255,.1)"/>
    <stop offset="100%" stop-color="rgba(255,255,255,.55)"/>
  </linearGradient>
  <!-- Gunmetal anodised — blaster body -->
  <linearGradient id="gunmetalr1x1441" x1="0%" y1="0%" x2="0%" y2="100%">
    <stop offset="0%"   stop-color="#46465e"/>
    <stop offset="18%"  stop-color="#828296"/>
    <stop offset="42%"  stop-color="#26263a"/>
    <stop offset="72%"  stop-color="#16162a"/>
    <stop offset="100%" stop-color="#0c0c18"/>
  </linearGradient>
  <!-- Brushed steel tube — barrel/rod -->
  <linearGradient id="barrelr1x1441" x1="0%" y1="0%" x2="100%" y2="0%">
    <stop offset="0%"   stop-color="#0a0a14"/>
    <stop offset="24%"  stop-color="#585875"/>
    <stop offset="50%"  stop-color="#a8a8c8"/>
    <stop offset="76%"  stop-color="#383852"/>
    <stop offset="100%" stop-color="#0a0a14"/>
  </linearGradient>
  <!-- Chrome rod — lance shaft -->
  <linearGradient id="chromer1x1441" x1="0%" y1="0%" x2="100%" y2="0%">
    <stop offset="0%"   stop-color="#0c0c18"/>
    <stop offset="20%"  stop-color="#686888"/>
    <stop offset="44%"  stop-color="#e0e0f0"/>
    <stop offset="56%"  stop-color="#c0c0d8"/>
    <stop offset="80%"  stop-color="#28283e"/>
    <stop offset="100%" stop-color="#0c0c18"/>
  </linearGradient>
  <!-- Titanium plate — shield face -->
  <linearGradient id="titaniumr1x1441" x1="0%" y1="0%" x2="100%" y2="100%">
    <stop offset="0%"   stop-color="#585878"/>
    <stop offset="28%"  stop-color="#00ff60" stop-opacity=".88"/>
    <stop offset="55%"  stop-color="#00441e"/>
    <stop offset="80%"  stop-color="#181828"/>
    <stop offset="100%" stop-color="#0a0a18"/>
  </linearGradient>
  <!-- Artillery black-chrome — cannon body -->
  <linearGradient id="artilleryr1x1441" x1="0%" y1="0%" x2="0%" y2="100%">
    <stop offset="0%"   stop-color="#383850"/>
    <stop offset="14%"  stop-color="#78789a"/>
    <stop offset="36%"  stop-color="#202034"/>
    <stop offset="65%"  stop-color="#14141e"/>
    <stop offset="100%" stop-color="#0a0a12"/>
  </linearGradient>
  <!-- Energy orb — staff -->
  <radialGradient id="orbr1x1441" cx="35%" cy="35%" r="65%">
    <stop offset="0%"   stop-color="rgba(255,255,255,.9)"/>
    <stop offset="30%"  stop-color="#00ff60"/>
    <stop offset="68%"  stop-color="#00441e"/>
    <stop offset="100%" stop-color="rgba(0,0,0,.6)"/>
  </radialGradient>
  <!-- Knuckle plate chrome -->
  <linearGradient id="knuckler1x1441" x1="0%" y1="0%" x2="0%" y2="100%">
    <stop offset="0%"   stop-color="#888aaa"/>
    <stop offset="32%"  stop-color="#00ff60" stop-opacity=".8"/>
    <stop offset="62%"  stop-color="#1a1a2c"/>
    <stop offset="100%" stop-color="#0a0a14"/>
  </linearGradient>

  <!-- Carbon fibre weave texture overlay -->
  <pattern id="carbonr1x1441" width="6" height="6" patternUnits="userSpaceOnUse">
    <rect width="6" height="6" fill="rgba(0,0,0,.08)"/>
    <rect x="0" y="0" width="3" height="3" fill="rgba(255,255,255,.022)"/>
    <rect x="3" y="3" width="3" height="3" fill="rgba(255,255,255,.022)"/>
    <line x1="0" y1="0" x2="3" y2="3" stroke="rgba(255,255,255,.038)" stroke-width=".5"/>
    <line x1="3" y1="0" x2="6" y2="3" stroke="rgba(0,0,0,.055)"       stroke-width=".5"/>
    <line x1="0" y1="3" x2="3" y2="6" stroke="rgba(0,0,0,.055)"       stroke-width=".5"/>
    <line x1="3" y1="3" x2="6" y2="6" stroke="rgba(255,255,255,.038)" stroke-width=".5"/>
  </pattern>

  <!-- Specular metal sheen on armour panels -->
  <filter id="metalr1x1441" x="-5%" y="-5%" width="110%" height="110%">
    <feSpecularLighting surfaceScale="4" specularConstant="1.8"
        specularExponent="42" lighting-color="#ffffff" result="spec">
      <feDistantLight elevation="52" azimuth="38"/>
    </feSpecularLighting>
    <feComposite in="spec" in2="SourceGraphic" operator="in" result="sm"/>
    <feComposite in="SourceGraphic" in2="sm" operator="arithmetic" k1="0" k2="1" k3="0.55" k4="0"/>
  </filter>

  <!-- Sharper specular for weapons — heavier glare -->
  <filter id="wmr1x1441" x="-8%" y="-8%" width="116%" height="116%">
    <feSpecularLighting surfaceScale="6" specularConstant="2.4"
        specularExponent="65" lighting-color="#ffffff" result="spec">
      <feDistantLight elevation="44" azimuth="28"/>
    </feSpecularLighting>
    <feComposite in="spec" in2="SourceGraphic" operator="in" result="sm"/>
    <feComposite in="SourceGraphic" in2="sm" operator="arithmetic" k1="0" k2="1" k3="0.78" k4="0"/>
  </filter>

  <!-- Sketch wobble -->
  <filter id="skr1x1441" x="-8%" y="-8%" width="116%" height="116%">
    <feTurbulence type="fractalNoise" baseFrequency="0.038"
        numOctaves="3" seed="92" result="noise"/>
    <feDisplacementMap in="SourceGraphic" in2="noise" scale="2.6"
        xChannelSelector="R" yChannelSelector="G" result="w"/>
    <feComposite in="w" in2="SourceGraphic" operator="atop"/>
  </filter>

  <!-- Glow: sharp accent -->
  <filter id="glowr1x1441" x="-20%" y="-20%" width="140%" height="140%">
    <feGaussianBlur stdDeviation="3.5" result="b"/>
    <feColorMatrix in="b" type="matrix"
        values="0 0 0 0 1  0 0 0 0 1  0 0 0 0 1  0 0 0 1.8 0" result="boost"/>
    <feMerge><feMergeNode in="boost"/><feMergeNode in="SourceGraphic"/></feMerge>
  </filter>

  <!-- Bloom: wide soft -->
  <filter id="bloomr1x1441" x="-40%" y="-40%" width="180%" height="180%">
    <feGaussianBlur stdDeviation="11" result="b"/>
    <feMerge><feMergeNode in="b"/><feMergeNode in="SourceGraphic"/></feMerge>
  </filter>

  </defs><rect width="1000" height="1000" fill="url(#bgr1x1441)"/><line x1="500" y1="500" x2="1500.0" y2="500.0" stroke="#00ff60" stroke-opacity=".048" stroke-width="5"/><line x1="500" y1="500" x2="1474.9" y2="722.5" stroke="#00ff60" stroke-opacity=".048" stroke-width="5"/><line x1="500" y1="500" x2="1401.0" y2="933.9" stroke="#00ff60" stroke-opacity=".048" stroke-width="5"/><line x1="500" y1="500" x2="1281.8" y2="1123.5" stroke="#00ff60" stroke-opacity=".048" stroke-width="5"/><line x1="500" y1="500" x2="1123.5" y2="1281.8" stroke="#00ff60" stroke-opacity=".048" stroke-width="5"/><line x1="500" y1="500" x2="933.9" y2="1401.0" stroke="#00ff60" stroke-opacity=".048" stroke-width="5"/><line x1="500" y1="500" x2="722.5" y2="1474.9" stroke="#00ff60" stroke-opacity=".048" stroke-width="5"/><line x1="500" y1="500" x2="500.0" y2="1500.0" stroke="#00ff60" stroke-opacity=".048" stroke-width="5"/><line x1="500" y1="500" x2="277.5" y2="1474.9" stroke="#00ff60" stroke-opacity=".048" stroke-width="5"/><line x1="500" y1="500" x2="66.1" y2="1401.0" stroke="#00ff60" stroke-opacity=".048" stroke-width="5"/><line x1="500" y1="500" x2="-123.5" y2="1281.8" stroke="#00ff60" stroke-opacity=".048" stroke-width="5"/><line x1="500" y1="500" x2="-281.8" y2="1123.5" stroke="#00ff60" stroke-opacity=".048" stroke-width="5"/><line x1="500" y1="500" x2="-401.0" y2="933.9" stroke="#00ff60" stroke-opacity=".048" stroke-width="5"/><line x1="500" y1="500" x2="-474.9" y2="722.5" stroke="#00ff60" stroke-opacity=".048" stroke-width="5"/><line x1="500" y1="500" x2="-500.0" y2="500.0" stroke="#00ff60" stroke-opacity=".048" stroke-width="5"/><line x1="500" y1="500" x2="-474.9" y2="277.5" stroke="#00ff60" stroke-opacity=".048" stroke-width="5"/><line x1="500" y1="500" x2="-401.0" y2="66.1" stroke="#00ff60" stroke-opacity=".048" stroke-width="5"/><line x1="500" y1="500" x2="-281.8" y2="-123.5" stroke="#00ff60" stroke-opacity=".048" stroke-width="5"/><line x1="500" y1="500" x2="-123.5" y2="-281.8" stroke="#00ff60" stroke-opacity=".048" stroke-width="5"/><line x1="500" y1="500" x2="66.1" y2="-401.0" stroke="#00ff60" stroke-opacity=".048" stroke-width="5"/><line x1="500" y1="500" x2="277.5" y2="-474.9" stroke="#00ff60" stroke-opacity=".048" stroke-width="5"/><line x1="500" y1="500" x2="500.0" y2="-500.0" stroke="#00ff60" stroke-opacity=".048" stroke-width="5"/><line x1="500" y1="500" x2="722.5" y2="-474.9" stroke="#00ff60" stroke-opacity=".048" stroke-width="5"/><line x1="500" y1="500" x2="933.9" y2="-401.0" stroke="#00ff60" stroke-opacity=".048" stroke-width="5"/><line x1="500" y1="500" x2="1123.5" y2="-281.8" stroke="#00ff60" stroke-opacity=".048" stroke-width="5"/><line x1="500" y1="500" x2="1281.8" y2="-123.5" stroke="#00ff60" stroke-opacity=".048" stroke-width="5"/><line x1="500" y1="500" x2="1401.0" y2="66.1" stroke="#00ff60" stroke-opacity=".048" stroke-width="5"/><line x1="500" y1="500" x2="1474.9" y2="277.5" stroke="#00ff60" stroke-opacity=".048" stroke-width="5"/><ellipse cx="500.0" cy="892.0" rx="350.0" ry="65.0" fill="rgba(0,0,0,.7)" filter="url(#bloomr1x1441)"/><ellipse cx="500.0" cy="889.0" rx="220.0" ry="34.0" fill="rgba(0,0,0,.45)"/><ellipse cx="500.0" cy="520.0" rx="320.0" ry="480.0" fill="#6600ff" fill-opacity=".042" filter="url(#bloomr1x1441)"/><circle cx="523.9" cy="774.8" r="2.8" fill="#6600ff" fill-opacity="0.70" filter="url(#glowr1x1441)"/><circle cx="537.8" cy="726.2" r="1.0" fill="#6600ff" fill-opacity="0.67" filter="url(#glowr1x1441)"/><circle cx="523.6" cy="382.7" r="0.9" fill="#6600ff" fill-opacity="0.73" filter="url(#glowr1x1441)"/><circle cx="437.1" cy="245.3" r="1.3" fill="#6600ff" fill-opacity="0.82" filter="url(#glowr1x1441)"/><circle cx="420.5" cy="335.8" r="1.2" fill="#6600ff" fill-opacity="0.42" filter="url(#glowr1x1441)"/><circle cx="485.3" cy="788.2" r="0.9" fill="#6600ff" fill-opacity="0.88" filter="url(#glowr1x1441)"/><circle cx="463.4" cy="447.7" r="0.9" fill="#6600ff" fill-opacity="0.87" filter="url(#glowr1x1441)"/><circle cx="371.9" cy="608.7" r="3.2" fill="#6600ff" fill-opacity="0.66" filter="url(#glowr1x1441)"/><circle cx="348.1" cy="446.8" r="0.7" fill="#6600ff" fill-opacity="0.58" filter="url(#glowr1x1441)"/><circle cx="353.6" cy="566.9" r="3.6" fill="#6600ff" fill-opacity="0.58" filter="url(#glowr1x1441)"/><circle cx="319.4" cy="559.0" r="1.2" fill="#6600ff" fill-opacity="0.78" filter="url(#glowr1x1441)"/><circle cx="474.8" cy="774.5" r="2.3" fill="#6600ff" fill-opacity="0.59" filter="url(#glowr1x1441)"/><circle cx="458.0" cy="488.0" r="3.1" fill="#6600ff" fill-opacity="0.56" filter="url(#glowr1x1441)"/><circle cx="472.7" cy="446.6" r="4.0" fill="#6600ff" fill-opacity="0.41" filter="url(#glowr1x1441)"/><polygon points="398.6,662.0 489.8,661.1 480.4,878.4 387.1,878.2" fill="url(#suitr1x1441)" stroke="#00ff60" stroke-width="2.2" filter="url(#skr1x1441) url(#metalr1x1441)"/><polygon points="398.1,660.9 490.3,662.4 481.5,878.4 386.6,878.9" fill="url(#carbonr1x1441)"/><polygon points="392.2,723.9 494.2,724.6 484.4,788.7 384.4,788.9" fill="url(#bevelr1x1441)" fill-opacity=".5" stroke="#00ff60" stroke-width="1.4" filter="url(#skr1x1441)"/><polygon points="510.0,662.6 600.2,662.0 611.2,876.2 519.3,876.9" fill="url(#suitr1x1441)" stroke="#00ff60" stroke-width="2.2" filter="url(#skr1x1441) url(#metalr1x1441)"/><polygon points="509.6,661.3 602.2,661.8 613.3,876.1 520.4,877.7" fill="url(#carbonr1x1441)"/><polygon points="507.8,725.1 607.2,725.1 615.2,787.6 516.6,788.7" fill="url(#bevelr1x1441)" fill-opacity=".5" stroke="#00ff60" stroke-width="1.4" filter="url(#skr1x1441)"/><rect x="391.2" y="838.3" width="100.3" height="24.7" fill="url(#bevelr1x1441)" stroke="#00ff60" stroke-width="1" filter="url(#skr1x1441)"/><rect x="507.3"  y="837.1" width="100.3" height="24.7" fill="url(#bevelr1x1441)" stroke="#00ff60" stroke-width="1" filter="url(#skr1x1441)"/><polygon points="369.9,877.9 496.5,877.4 505.2,920.7 364.3,921.9" fill="#00441e" stroke="#00ff60" stroke-width="2" filter="url(#skr1x1441)"/><polygon points="502.4,876.8 630.7,876.8 638.8,919.8 495.7,921.0" fill="#00441e" stroke="#00ff60" stroke-width="2" filter="url(#skr1x1441)"/><polygon points="303.4,632.8 697.0,634.5 639.1,681.5 362.3,681.2" fill="#00ff60" fill-opacity=".52" stroke="#00ff60" stroke-width="2" filter="url(#skr1x1441)"/><rect x="462.3" y="638.0" width="72.0" height="42.0" fill="url(#bevelr1x1441)" stroke="#00ff60" stroke-width="1.4" filter="url(#glowr1x1441)"/><rect x="484.9" y="641.9" width="28.0" height="22.0" rx="1" fill="rgba(255,255,255,.48)"/><polygon points="151.9,466.9 235.6,465.4 258.5,734.5 129.9,735.5" fill="url(#suitr1x1441)" stroke="#00ff60" stroke-width="2.2" filter="url(#skr1x1441) url(#metalr1x1441)"/><polygon points="173.6,431.3 253.1,431.2 241.5,510.9 160.1,511.1" fill="url(#bevelr1x1441)" fill-opacity=".72" stroke="#00ff60" stroke-width="2.2" filter="url(#skr1x1441)"/><polygon points="159.5,622.1 242.0,620.4 240.4,659.4 165.0,659.7" fill="#00ff60" fill-opacity=".42" stroke="#00ff60" stroke-width="1" filter="url(#skr1x1441)"/><polygon points="766.1,465.4 845.4,467.7 872.4,736.4 740.6,734.5" fill="url(#suitr1x1441)" stroke="#00ff60" stroke-width="2.2" filter="url(#skr1x1441) url(#metalr1x1441)"/><polygon points="746.6,431.8 828.3,431.0 840.9,511.8 757.8,509.4" fill="url(#bevelr1x1441)" fill-opacity=".72" stroke="#00ff60" stroke-width="2.2" filter="url(#skr1x1441)"/><polygon points="756.0,621.2 838.7,620.9 834.7,660.6 762.5,659.8" fill="#00ff60" fill-opacity=".42" stroke="#00ff60" stroke-width="1" filter="url(#skr1x1441)"/><rect x="120.2"  y="701.2" width="135.3" height="85.0" rx="4" fill="url(#bevelr1x1441)" stroke="#00ff60" stroke-width="1.8" filter="url(#skr1x1441)"/><rect x="748.6"   y="701.5" width="135.3" height="85.0" rx="4" fill="url(#bevelr1x1441)" stroke="#00ff60" stroke-width="1.8" filter="url(#skr1x1441)"/><line x1="150.6" y1="702.1" x2="150.7" y2="785.5" stroke="#00ff60" stroke-opacity=".38" stroke-width="1"/><line x1="777.6" y1="701.9" x2="779.6" y2="782.6" stroke="#00ff60" stroke-opacity=".38" stroke-width="1"/><line x1="181.8" y1="702.0" x2="183.8" y2="785.3" stroke="#00ff60" stroke-opacity=".38" stroke-width="1"/><line x1="809.3" y1="701.8" x2="809.8" y2="785.5" stroke="#00ff60" stroke-opacity=".38" stroke-width="1"/><line x1="215.9" y1="701.4" x2="213.7" y2="783.7" stroke="#00ff60" stroke-opacity=".38" stroke-width="1"/><line x1="843.1" y1="703.3" x2="845.0" y2="783.2" stroke="#00ff60" stroke-opacity=".38" stroke-width="1"/><polygon points="233.7,419.2 766.1,418.0 723.3,662.4 276.4,661.4" fill="url(#suitr1x1441)" stroke="#00ff60" stroke-width="2.6" filter="url(#skr1x1441) url(#metalr1x1441)"/><polygon points="234.1,418.3 765.5,417.4 722.8,661.6 278.4,663.8" fill="url(#carbonr1x1441)"/><polygon points="366.4,416.9 631.1,416.5 611.1,517.0 387.9,514.7" fill="url(#suitHir1x1441)"/><line x1="360.6" y1="471.3" x2="637.2" y2="472.9" stroke="#00ff60" stroke-opacity=".52" stroke-width="1.3" filter="url(#skr1x1441)"/><line x1="398.8" y1="549.7" x2="601.4" y2="550.4" stroke="#00ff60" stroke-opacity=".52" stroke-width="1.3" filter="url(#skr1x1441)"/><line x1="267.6" y1="490.1" x2="318.6" y2="491.7" stroke="#00ff60" stroke-opacity=".62" stroke-width="1.8"/><line x1="681.0" y1="491.7" x2="734.7" y2="492.2" stroke="#00ff60" stroke-opacity=".62" stroke-width="1.8"/><line x1="265.5" y1="523.4" x2="320.3" y2="523.5" stroke="#00ff60" stroke-opacity=".62" stroke-width="1.8"/><line x1="678.9" y1="524.6" x2="734.8" y2="521.6" stroke="#00ff60" stroke-opacity=".62" stroke-width="1.8"/><line x1="267.6" y1="555.3" x2="320.8" y2="554.1" stroke="#00ff60" stroke-opacity=".62" stroke-width="1.8"/><line x1="678.9" y1="555.1" x2="731.7" y2="556.3" stroke="#00ff60" stroke-opacity=".62" stroke-width="1.8"/><line x1="268.6" y1="586.9" x2="319.5" y2="585.7" stroke="#00ff60" stroke-opacity=".62" stroke-width="1.8"/><line x1="679.4" y1="586.4" x2="732.9" y2="585.9" stroke="#00ff60" stroke-opacity=".62" stroke-width="1.8"/><g filter="url(#glowr1x1441)"><path d="M500.0,449.7 C462.3,446.8 442.0,481.6 447.8,513.5 L459.4,542.5 C476.8,536.7 491.3,551.2 500.0,551.2 C508.7,551.2 523.2,536.7 540.6,542.5 L552.2,513.5 C558.0,481.6 537.7,446.8 500.0,449.7 Z" fill="#00ff60" fill-opacity=".92" stroke="#140900" stroke-width="1.3" filter="url(#skr1x1441)"/><path d="M483.8,519.3 Q500.0,533.8 516.2,519.3" stroke="#140900" stroke-width="1" fill="none" opacity=".58"/><ellipse cx="481.4" cy="497.8" rx="8.7" ry="6.4" fill="#140900" opacity=".95"/><ellipse cx="518.6" cy="497.8" rx="8.7" ry="6.4" fill="#140900" opacity=".95"/><ellipse cx="481.4" cy="497.8" rx="2.3" ry="5.8" fill="#00ff60"/><ellipse cx="518.6" cy="497.8" rx="2.3" ry="5.8" fill="#00ff60"/><path d="M471.0,467.1 L458.2,426.5 L481.4,463.0" fill="#00ff60" stroke="#140900" stroke-width=".9"/><path d="M529.0,467.1 L541.8,426.5 L518.6,463.0" fill="#00ff60" stroke="#140900" stroke-width=".9"/><path d="M476.8,452.6 C488.4,449.1 511.6,449.1 523.2,452.6" fill="rgba(255,255,255,.18)"/></g><rect x="451.0767762841657" y="556.5867144800723" width="100.0"  height="56.0" fill="#00441e" stroke="#00ff60" stroke-width="2.2" filter="url(#skr1x1441)"/><rect x="423.91491224151105" y="574.4273442815058" width="152.0" height="26.0" fill="url(#bevelr1x1441)" fill-opacity=".65" stroke="#00ff60" stroke-width="1.2" filter="url(#skr1x1441)"/><polygon points="308.9,380.2 351.5,296.0 499.3,278.0 648.7,296.0 693.5,381.2 669.8,504.7 499.8,565.2 330.0,503.5" fill="url(#suitr1x1441)" stroke="#00ff60" stroke-width="2.8" filter="url(#skr1x1441) url(#metalr1x1441)"/><polygon points="309.0,380.5 350.7,292.8 498.7,276.4 650.1,295.7 691.0,378.9 670.7,502.4 501.6,565.6 331.1,503.7" fill="url(#carbonr1x1441)"/><polygon points="380.3,303.1 500.4,285.9 618.2,302.7 607.8,379.4 393.8,381.8" fill="url(#suitHir1x1441)"/><polygon points="380.6,379.6 366.1,426.5 434.3,503.6 501.2,527.3 566.7,502.5 636.1,424.8 618.5,379.3" fill="#140900" fill-opacity=".88" stroke="#00ff60" stroke-width="1.8" filter="url(#skr1x1441)"/><polygon points="380.3,410.7 477.2,409.8 483.0,439.5 390.0,440.1" fill="#00ff60" filter="url(#glowr1x1441)"/><polygon points="521.7,410.5 617.5,413.0 609.9,439.4 516.0,441.5" fill="#00ff60" filter="url(#glowr1x1441)"/><ellipse cx="430.9" cy="425.7" rx="38.4"  ry="8.2" fill="#ffffff" opacity=".88"/><ellipse cx="569.1" cy="425.7" rx="38.4"  ry="8.2" fill="#ffffff" opacity=".88"/><line x1="483.2816511684656" y1="415.1524038640782" x2="517.0710950691625" y2="412.9359358428977" stroke="#00ff60" stroke-opacity=".52" stroke-width="2"/><line x1="485.0769192387909" y1="437.01870925119147" x2="516.9222298427858" y2="439.43759148325773" stroke="#00ff60" stroke-opacity=".52" stroke-width="2"/><line x1="499.20257507981734" y1="454.60255463793874" x2="499.0163307520561" y2="483.1650034938939" stroke="#00ff60" stroke-opacity=".58" stroke-width="2.2" filter="url(#skr1x1441)"/><line x1="454.21187754327434" y1="493.0693393854424" x2="452.59402619905774" y2="518.9246988494881" stroke="#00ff60" stroke-opacity=".52" stroke-width="1.5" filter="url(#skr1x1441)"/><line x1="477.4172991750203" y1="491.9532891977578" x2="478.4395138510875" y2="520.2514967557975" stroke="#00ff60" stroke-opacity=".52" stroke-width="1.5" filter="url(#skr1x1441)"/><line x1="500.1339108348824" y1="489.82944417297836" x2="498.95093773938714" y2="521.0587770498357" stroke="#00ff60" stroke-opacity=".52" stroke-width="1.5" filter="url(#skr1x1441)"/><line x1="521.7872470551729" y1="492.6729684992693" x2="521.494956419859" y2="518.6612623349763" stroke="#00ff60" stroke-opacity=".52" stroke-width="1.5" filter="url(#skr1x1441)"/><line x1="546.0874258926325" y1="492.3290788093581" x2="545.8286539491453" y2="518.8256723732687" stroke="#00ff60" stroke-opacity=".52" stroke-width="1.5" filter="url(#skr1x1441)"/><polygon points="432.6,503.5 566.4,502.9 553.2,557.9 446.1,555.4" fill="#00441e" fill-opacity=".72" stroke="#00ff60" stroke-width="1.3" filter="url(#skr1x1441)"/><polygon points="477.3,302.3 521.9,303.6 513.0,175.2 489.0,174.5" fill="url(#bevelr1x1441)" stroke="#00ff60" stroke-width="2.2" filter="url(#skr1x1441)"/><polygon points="365.6,324.2 459.5,323.4 470.5,227.2" fill="url(#bevelr1x1441)" fill-opacity=".78" stroke="#00ff60" stroke-width="1.5" filter="url(#skr1x1441)"/><polygon points="542.6,324.0 632.7,324.0 531.8,230.2" fill="url(#bevelr1x1441)" fill-opacity=".78" stroke="#00ff60" stroke-width="1.5" filter="url(#skr1x1441)"/><text x="30.0"  y="975.0" font-family="monospace" font-weight="bold" font-size="22.0" fill="rgba(255,255,255,.22)">#0001</text><text x="500.0"   y="975.0" text-anchor="middle" font-family="monospace" font-weight="bold" font-size="22.0" fill="#00ff60" fill-opacity=".48">VIPER RANGER</text><text x="970.0" y="975.0" text-anchor="end"    font-family="monospace" font-weight="bold" font-size="22.0" fill="#00ff60" fill-opacity=".32">MECH RANGERS</text></svg>