<svg xmlns="http://www.w3.org/2000/svg" viewBox="0 0 1000 1000" width="1000" height="1000" shape-rendering="geometricPrecision"><defs>

  <!-- Scene gradients -->
  <radialGradient id="bgr1x1519" cx="50%" cy="42%" r="72%">
    <stop offset="0%"   stop-color="#1a2814"/>
    <stop offset="100%" stop-color="#0d1520"/>
  </radialGradient>
  <linearGradient id="suitr1x1519" x1="8%" y1="0%" x2="92%" y2="100%">
    <stop offset="0%"   stop-color="#ff00ff" stop-opacity=".95"/>
    <stop offset="45%"  stop-color="#050508"/>
    <stop offset="100%" stop-color="#0d1520"/>
  </linearGradient>
  <linearGradient id="suitHir1x1519" x1="0%" y1="0%" x2="0%" y2="100%">
    <stop offset="0%"   stop-color="rgba(255,255,255,.28)"/>
    <stop offset="60%"  stop-color="rgba(255,255,255,.04)"/>
    <stop offset="100%" stop-color="rgba(255,255,255,0)"/>
  </linearGradient>
  <!-- Bevel: bright top, dark bottom for armour panels -->
  <linearGradient id="bevelr1x1519" x1="0%" y1="0%" x2="0%" y2="100%">
    <stop offset="0%"   stop-color="rgba(255,255,255,.55)"/>
    <stop offset="30%"  stop-color="#ff00ff"/>
    <stop offset="70%"  stop-color="#050508"/>
    <stop offset="100%" stop-color="rgba(0,0,0,.5)"/>
  </linearGradient>

  <!-- Weapon: cold steel blade sweep -->
  <linearGradient id="blader1x1519" x1="0%" y1="0%" x2="100%" y2="0%">
    <stop offset="0%"   stop-color="#0e0e20"/>
    <stop offset="16%"  stop-color="#3e3e58"/>
    <stop offset="34%"  stop-color="#c8c8e0"/>
    <stop offset="50%"  stop-color="#f5f5ff"/>
    <stop offset="66%"  stop-color="#b8b8d0"/>
    <stop offset="84%"  stop-color="#2e2e48"/>
    <stop offset="100%" stop-color="#08080e"/>
  </linearGradient>
  <!-- Blade tip brightening -->
  <linearGradient id="bladeTipr1x1519" x1="0%" y1="100%" x2="0%" y2="0%">
    <stop offset="0%"   stop-color="rgba(255,255,255,0)"/>
    <stop offset="55%"  stop-color="rgba(255,255,255,.1)"/>
    <stop offset="100%" stop-color="rgba(255,255,255,.55)"/>
  </linearGradient>
  <!-- Gunmetal anodised — blaster body -->
  <linearGradient id="gunmetalr1x1519" x1="0%" y1="0%" x2="0%" y2="100%">
    <stop offset="0%"   stop-color="#46465e"/>
    <stop offset="18%"  stop-color="#828296"/>
    <stop offset="42%"  stop-color="#26263a"/>
    <stop offset="72%"  stop-color="#16162a"/>
    <stop offset="100%" stop-color="#0c0c18"/>
  </linearGradient>
  <!-- Brushed steel tube — barrel/rod -->
  <linearGradient id="barrelr1x1519" x1="0%" y1="0%" x2="100%" y2="0%">
    <stop offset="0%"   stop-color="#0a0a14"/>
    <stop offset="24%"  stop-color="#585875"/>
    <stop offset="50%"  stop-color="#a8a8c8"/>
    <stop offset="76%"  stop-color="#383852"/>
    <stop offset="100%" stop-color="#0a0a14"/>
  </linearGradient>
  <!-- Chrome rod — lance shaft -->
  <linearGradient id="chromer1x1519" x1="0%" y1="0%" x2="100%" y2="0%">
    <stop offset="0%"   stop-color="#0c0c18"/>
    <stop offset="20%"  stop-color="#686888"/>
    <stop offset="44%"  stop-color="#e0e0f0"/>
    <stop offset="56%"  stop-color="#c0c0d8"/>
    <stop offset="80%"  stop-color="#28283e"/>
    <stop offset="100%" stop-color="#0c0c18"/>
  </linearGradient>
  <!-- Titanium plate — shield face -->
  <linearGradient id="titaniumr1x1519" x1="0%" y1="0%" x2="100%" y2="100%">
    <stop offset="0%"   stop-color="#585878"/>
    <stop offset="28%"  stop-color="#ff00ff" stop-opacity=".88"/>
    <stop offset="55%"  stop-color="#050508"/>
    <stop offset="80%"  stop-color="#181828"/>
    <stop offset="100%" stop-color="#0a0a18"/>
  </linearGradient>
  <!-- Artillery black-chrome — cannon body -->
  <linearGradient id="artilleryr1x1519" x1="0%" y1="0%" x2="0%" y2="100%">
    <stop offset="0%"   stop-color="#383850"/>
    <stop offset="14%"  stop-color="#78789a"/>
    <stop offset="36%"  stop-color="#202034"/>
    <stop offset="65%"  stop-color="#14141e"/>
    <stop offset="100%" stop-color="#0a0a12"/>
  </linearGradient>
  <!-- Energy orb — staff -->
  <radialGradient id="orbr1x1519" cx="35%" cy="35%" r="65%">
    <stop offset="0%"   stop-color="rgba(255,255,255,.9)"/>
    <stop offset="30%"  stop-color="#ff00ff"/>
    <stop offset="68%"  stop-color="#050508"/>
    <stop offset="100%" stop-color="rgba(0,0,0,.6)"/>
  </radialGradient>
  <!-- Knuckle plate chrome -->
  <linearGradient id="knuckler1x1519" x1="0%" y1="0%" x2="0%" y2="100%">
    <stop offset="0%"   stop-color="#888aaa"/>
    <stop offset="32%"  stop-color="#ff00ff" stop-opacity=".8"/>
    <stop offset="62%"  stop-color="#1a1a2c"/>
    <stop offset="100%" stop-color="#0a0a14"/>
  </linearGradient>

  <!-- Carbon fibre weave texture overlay -->
  <pattern id="carbonr1x1519" width="6" height="6" patternUnits="userSpaceOnUse">
    <rect width="6" height="6" fill="rgba(0,0,0,.08)"/>
    <rect x="0" y="0" width="3" height="3" fill="rgba(255,255,255,.022)"/>
    <rect x="3" y="3" width="3" height="3" fill="rgba(255,255,255,.022)"/>
    <line x1="0" y1="0" x2="3" y2="3" stroke="rgba(255,255,255,.038)" stroke-width=".5"/>
    <line x1="3" y1="0" x2="6" y2="3" stroke="rgba(0,0,0,.055)"       stroke-width=".5"/>
    <line x1="0" y1="3" x2="3" y2="6" stroke="rgba(0,0,0,.055)"       stroke-width=".5"/>
    <line x1="3" y1="3" x2="6" y2="6" stroke="rgba(255,255,255,.038)" stroke-width=".5"/>
  </pattern>

  <!-- Specular metal sheen on armour panels -->
  <filter id="metalr1x1519" x="-5%" y="-5%" width="110%" height="110%">
    <feSpecularLighting surfaceScale="4" specularConstant="1.8"
        specularExponent="42" lighting-color="#ffffff" result="spec">
      <feDistantLight elevation="52" azimuth="38"/>
    </feSpecularLighting>
    <feComposite in="spec" in2="SourceGraphic" operator="in" result="sm"/>
    <feComposite in="SourceGraphic" in2="sm" operator="arithmetic" k1="0" k2="1" k3="0.55" k4="0"/>
  </filter>

  <!-- Sharper specular for weapons — heavier glare -->
  <filter id="wmr1x1519" x="-8%" y="-8%" width="116%" height="116%">
    <feSpecularLighting surfaceScale="6" specularConstant="2.4"
        specularExponent="65" lighting-color="#ffffff" result="spec">
      <feDistantLight elevation="44" azimuth="28"/>
    </feSpecularLighting>
    <feComposite in="spec" in2="SourceGraphic" operator="in" result="sm"/>
    <feComposite in="SourceGraphic" in2="sm" operator="arithmetic" k1="0" k2="1" k3="0.78" k4="0"/>
  </filter>

  <!-- Sketch wobble -->
  <filter id="skr1x1519" x="-8%" y="-8%" width="116%" height="116%">
    <feTurbulence type="fractalNoise" baseFrequency="0.038"
        numOctaves="3" seed="6" result="noise"/>
    <feDisplacementMap in="SourceGraphic" in2="noise" scale="2.6"
        xChannelSelector="R" yChannelSelector="G" result="w"/>
    <feComposite in="w" in2="SourceGraphic" operator="atop"/>
  </filter>

  <!-- Glow: sharp accent -->
  <filter id="glowr1x1519" x="-20%" y="-20%" width="140%" height="140%">
    <feGaussianBlur stdDeviation="3.5" result="b"/>
    <feColorMatrix in="b" type="matrix"
        values="0 0 0 0 1  0 0 0 0 1  0 0 0 0 1  0 0 0 1.8 0" result="boost"/>
    <feMerge><feMergeNode in="boost"/><feMergeNode in="SourceGraphic"/></feMerge>
  </filter>

  <!-- Bloom: wide soft -->
  <filter id="bloomr1x1519" x="-40%" y="-40%" width="180%" height="180%">
    <feGaussianBlur stdDeviation="11" result="b"/>
    <feMerge><feMergeNode in="b"/><feMergeNode in="SourceGraphic"/></feMerge>
  </filter>

  </defs><rect width="1000" height="1000" fill="url(#bgr1x1519)"/><ellipse cx="500.0" cy="892.0" rx="350.0" ry="65.0" fill="rgba(0,0,0,.7)" filter="url(#bloomr1x1519)"/><ellipse cx="500.0" cy="889.0" rx="220.0" ry="34.0" fill="rgba(0,0,0,.45)"/><ellipse cx="500.0" cy="520.0" rx="320.0" ry="480.0" fill="#ff6600" fill-opacity=".042" filter="url(#bloomr1x1519)"/><circle cx="443.6" cy="428.0" r="1.0" fill="#ff6600" fill-opacity="0.41" filter="url(#glowr1x1519)"/><circle cx="481.9" cy="282.4" r="2.7" fill="#ff6600" fill-opacity="0.64" filter="url(#glowr1x1519)"/><circle cx="395.2" cy="228.6" r="3.5" fill="#ff6600" fill-opacity="0.64" filter="url(#glowr1x1519)"/><circle cx="451.2" cy="480.1" r="2.3" fill="#ff6600" fill-opacity="0.67" filter="url(#glowr1x1519)"/><circle cx="375.6" cy="581.9" r="1.8" fill="#ff6600" fill-opacity="0.63" filter="url(#glowr1x1519)"/><circle cx="479.7" cy="199.8" r="3.3" fill="#ff6600" fill-opacity="0.57" filter="url(#glowr1x1519)"/><circle cx="567.3" cy="723.1" r="2.1" fill="#ff6600" fill-opacity="0.41" filter="url(#glowr1x1519)"/><circle cx="298.8" cy="797.5" r="3.5" fill="#ff6600" fill-opacity="0.74" filter="url(#glowr1x1519)"/><circle cx="569.6" cy="588.1" r="1.1" fill="#ff6600" fill-opacity="0.69" filter="url(#glowr1x1519)"/><circle cx="502.9" cy="413.4" r="2.6" fill="#ff6600" fill-opacity="0.88" filter="url(#glowr1x1519)"/><circle cx="256.1" cy="790.7" r="3.4" fill="#ff6600" fill-opacity="0.90" filter="url(#glowr1x1519)"/><circle cx="363.3" cy="696.5" r="3.5" fill="#ff6600" fill-opacity="0.77" filter="url(#glowr1x1519)"/><circle cx="657.5" cy="744.9" r="2.4" fill="#ff6600" fill-opacity="0.75" filter="url(#glowr1x1519)"/><circle cx="514.4" cy="468.2" r="1.8" fill="#ff6600" fill-opacity="0.62" filter="url(#glowr1x1519)"/><polygon points="398.6,661.1 487.9,663.3 482.4,878.3 388.0,878.6" fill="url(#suitr1x1519)" stroke="#ff00ff" stroke-width="2.2" filter="url(#skr1x1519) url(#metalr1x1519)"/><polygon points="397.6,663.0 487.8,662.2 480.8,878.3 385.6,876.4" fill="url(#carbonr1x1519)"/><polygon points="391.6,723.0 493.8,722.2 485.1,787.3 384.5,788.4" fill="url(#bevelr1x1519)" fill-opacity=".5" stroke="#ff00ff" stroke-width="1.4" filter="url(#skr1x1519)"/><polygon points="511.8,663.4 600.6,662.2 611.6,876.6 518.1,878.5" fill="url(#suitr1x1519)" stroke="#ff00ff" stroke-width="2.2" filter="url(#skr1x1519) url(#metalr1x1519)"/><polygon points="509.9,663.3 600.0,661.6 611.0,878.8 518.8,876.2" fill="url(#carbonr1x1519)"/><polygon points="506.6,725.1 607.8,725.1 617.2,788.8 516.9,789.6" fill="url(#bevelr1x1519)" fill-opacity=".5" stroke="#ff00ff" stroke-width="1.4" filter="url(#skr1x1519)"/><rect x="391.9" y="838.3" width="100.3" height="24.7" fill="url(#bevelr1x1519)" stroke="#ff00ff" stroke-width="1" filter="url(#skr1x1519)"/><rect x="507.4"  y="837.6" width="100.3" height="24.7" fill="url(#bevelr1x1519)" stroke="#ff00ff" stroke-width="1" filter="url(#skr1x1519)"/><polygon points="368.5,879.1 497.9,876.6 503.8,920.8 363.2,921.1" fill="#050508" stroke="#ff00ff" stroke-width="2" filter="url(#skr1x1519)"/><polygon points="502.0,876.1 630.3,876.6 638.8,922.4 495.6,921.3" fill="#050508" stroke="#ff00ff" stroke-width="2" filter="url(#skr1x1519)"/><polygon points="305.2,631.7 697.1,631.4 637.1,682.2 362.6,682.2" fill="#ff00ff" fill-opacity=".52" stroke="#ff00ff" stroke-width="2" filter="url(#skr1x1519)"/><rect x="465.7" y="637.8" width="72.0" height="42.0" fill="url(#bevelr1x1519)" stroke="#ff00ff" stroke-width="1.4" filter="url(#glowr1x1519)"/><rect x="485.9" y="640.9" width="28.0" height="22.0" rx="1" fill="rgba(255,255,255,.48)"/><polygon points="154.2,465.4 234.7,466.3 257.8,733.8 128.0,733.9" fill="url(#suitr1x1519)" stroke="#ff00ff" stroke-width="2.2" filter="url(#skr1x1519) url(#metalr1x1519)"/><polygon points="175.2,432.1 254.6,433.1 242.0,509.4 158.1,509.0" fill="url(#bevelr1x1519)" fill-opacity=".72" stroke="#ff00ff" stroke-width="2.2" filter="url(#skr1x1519)"/><polygon points="160.5,621.5 243.3,621.7 238.9,659.5 165.0,661.0" fill="#ff00ff" fill-opacity=".42" stroke="#ff00ff" stroke-width="1" filter="url(#skr1x1519)"/><polygon points="765.4,467.4 846.1,465.5 871.5,734.7 742.9,736.6" fill="url(#suitr1x1519)" stroke="#ff00ff" stroke-width="2.2" filter="url(#skr1x1519) url(#metalr1x1519)"/><polygon points="747.6,433.7 826.5,430.6 841.1,511.4 755.8,511.1" fill="url(#bevelr1x1519)" fill-opacity=".72" stroke="#ff00ff" stroke-width="2.2" filter="url(#skr1x1519)"/><polygon points="758.6,622.9 837.3,621.4 833.8,659.1 759.2,661.1" fill="#ff00ff" fill-opacity=".42" stroke="#ff00ff" stroke-width="1" filter="url(#skr1x1519)"/><rect x="121.2"  y="699.7" width="135.3" height="85.0" rx="4" fill="url(#bevelr1x1519)" stroke="#ff00ff" stroke-width="1.8" filter="url(#skr1x1519)"/><rect x="748.0"   y="701.6" width="135.3" height="85.0" rx="4" fill="url(#bevelr1x1519)" stroke="#ff00ff" stroke-width="1.8" filter="url(#skr1x1519)"/><line x1="150.0" y1="703.1" x2="151.4" y2="785.4" stroke="#ff00ff" stroke-opacity=".38" stroke-width="1"/><line x1="776.5" y1="701.3" x2="777.1" y2="785.6" stroke="#ff00ff" stroke-opacity=".38" stroke-width="1"/><line x1="182.7" y1="702.3" x2="181.3" y2="785.6" stroke="#ff00ff" stroke-opacity=".38" stroke-width="1"/><line x1="811.9" y1="702.1" x2="809.7" y2="784.0" stroke="#ff00ff" stroke-opacity=".38" stroke-width="1"/><line x1="215.0" y1="703.0" x2="216.9" y2="783.1" stroke="#ff00ff" stroke-opacity=".38" stroke-width="1"/><line x1="842.2" y1="701.7" x2="843.8" y2="785.1" stroke="#ff00ff" stroke-opacity=".38" stroke-width="1"/><polygon points="236.0,418.5 765.4,416.6 724.3,661.2 279.1,661.7" fill="url(#suitr1x1519)" stroke="#ff00ff" stroke-width="2.6" filter="url(#skr1x1519) url(#metalr1x1519)"/><polygon points="234.5,417.1 764.4,417.4 722.3,662.4 276.8,660.7" fill="url(#carbonr1x1519)"/><polygon points="367.0,416.2 632.2,419.2 610.2,515.4 388.2,517.0" fill="url(#suitHir1x1519)"/><line x1="361.3" y1="471.2" x2="636.5" y2="471.2" stroke="#ff00ff" stroke-opacity=".52" stroke-width="1.3" filter="url(#skr1x1519)"/><line x1="398.8" y1="551.3" x2="599.3" y2="550.4" stroke="#ff00ff" stroke-opacity=".52" stroke-width="1.3" filter="url(#skr1x1519)"/><line x1="266.0" y1="492.4" x2="319.1" y2="491.1" stroke="#ff00ff" stroke-opacity=".62" stroke-width="1.8"/><line x1="681.7" y1="492.0" x2="732.4" y2="489.5" stroke="#ff00ff" stroke-opacity=".62" stroke-width="1.8"/><line x1="266.9" y1="521.2" x2="318.1" y2="523.5" stroke="#ff00ff" stroke-opacity=".62" stroke-width="1.8"/><line x1="679.9" y1="522.6" x2="732.8" y2="521.2" stroke="#ff00ff" stroke-opacity=".62" stroke-width="1.8"/><line x1="265.3" y1="553.8" x2="319.0" y2="553.1" stroke="#ff00ff" stroke-opacity=".62" stroke-width="1.8"/><line x1="680.7" y1="555.0" x2="731.5" y2="553.8" stroke="#ff00ff" stroke-opacity=".62" stroke-width="1.8"/><line x1="267.5" y1="586.4" x2="319.2" y2="586.1" stroke="#ff00ff" stroke-opacity=".62" stroke-width="1.8"/><line x1="678.8" y1="587.7" x2="731.8" y2="585.9" stroke="#ff00ff" stroke-opacity=".62" stroke-width="1.8"/><g filter="url(#glowr1x1519)"><polygon points="501.0,453.1 516.0,489.9 555.6,492.3 524.2,519.3 535.3,556.9 500.6,535.8 466.9,557.0 476.3,518.8 446.3,494.4 484.1,490.9 " fill="#ff00ff" stroke="#0d1520" stroke-width="1.4" filter="url(#skr1x1519)"/><polygon points="501.0,453.1 516.0,489.9 555.6,492.3 524.2,519.3 535.3,556.9 500.6,535.8 466.9,557.0 476.3,518.8 446.3,494.4 484.1,490.9 " fill="url(#suitHir1x1519)" opacity=".45"/></g><g><rect x="830.2524846038409" y="421.8509782871231" width="148.0" height="82.0" rx="5" fill="url(#gunmetalr1x1519)" stroke="#ff00ff" stroke-width="2" filter="url(#wmr1x1519)"/><rect x="830.3929814537615" y="423.1366531834006" width="148.0" height="82.0" rx="5" fill="url(#carbonr1x1519)"/><rect x="837.6806557895244" y="403.1490877679549" width="90.0" height="22.0" rx="3" fill="url(#barrelr1x1519)" stroke="#ff00ff" stroke-width="1" filter="url(#wmr1x1519)"/><circle cx="877.8802611710131" cy="416.1748285781592" r="15.0" fill="#ff00ff" opacity=".8" filter="url(#glowr1x1519)"/><circle cx="878.1026059617848" cy="413.35586217539384" r="6.0" fill="rgba(255,255,255,.9)"/><rect x="946.632296350468" y="453.97792590474705" width="78.0" height="36.0" rx="5" fill="url(#barrelr1x1519)" stroke="#ff00ff" stroke-width="1.2" filter="url(#wmr1x1519)"/><circle cx="1018.118457715828" cy="470.07994306162" r="18.0" fill="#ff00ff" filter="url(#glowr1x1519)" opacity=".88"/><circle cx="1018.5776200068742" cy="472.41731604374945" r="7.0" fill="#ffffff"/><rect x="873.9347784648277" y="501.2278750141151" width="44.0" height="42.0" rx="3" fill="url(#gunmetalr1x1519)" stroke="#ff00ff" stroke-width="1" filter="url(#wmr1x1519)"/><rect x="832.4994755897299" y="422.557909198571" width="90.0" height="10.0" rx="2" fill="rgba(255,255,255,.22)"/><line x1="858.9776861277968" y1="487.5898569782264" x2="857.6055975607225" y2="518.6505398459732" stroke="#ff00ff" stroke-opacity=".5" stroke-width="1.2"/><line x1="873.5276096555964" y1="485.0276829556562" x2="872.1539003654011" y2="520.6975655253045" stroke="#ff00ff" stroke-opacity=".5" stroke-width="1.2"/><line x1="888.670434932094" y1="488.17700422350316" x2="891.2132125828043" y2="518.708340757899" stroke="#ff00ff" stroke-opacity=".5" stroke-width="1.2"/></g><rect x="449.70048667956144" y="556.3244651271962" width="100.0"  height="56.0" fill="#050508" stroke="#ff00ff" stroke-width="2.2" filter="url(#skr1x1519)"/><rect x="422.9837054646574" y="574.1946844264866" width="152.0" height="26.0" fill="url(#bevelr1x1519)" fill-opacity=".65" stroke="#ff00ff" stroke-width="1.2" filter="url(#skr1x1519)"/><polygon points="309.5,378.8 349.2,294.0 499.4,277.7 648.6,294.9 692.7,381.1 670.6,504.8 501.2,566.7 332.3,504.5" fill="url(#suitr1x1519)" stroke="#ff00ff" stroke-width="2.8" filter="url(#skr1x1519) url(#metalr1x1519)"/><polygon points="307.6,378.9 351.5,292.8 498.4,277.7 651.3,293.5 692.5,381.0 668.0,504.7 498.3,565.9 329.3,504.9" fill="url(#carbonr1x1519)"/><polygon points="382.6,304.2 498.9,286.9 618.4,301.3 608.6,381.7 391.8,379.0" fill="url(#suitHir1x1519)"/><polygon points="380.5,379.6 364.4,426.7 432.5,502.1 500.3,526.6 565.6,501.9 635.0,426.3 617.5,379.5" fill="#0d1520" fill-opacity=".88" stroke="#ff00ff" stroke-width="1.8" filter="url(#skr1x1519)"/><polygon points="381.4,409.7 476.0,410.8 486.4,440.7 389.8,441.5" fill="#ff00ff" filter="url(#glowr1x1519)"/><polygon points="524.5,413.0 618.3,411.8 610.6,441.8 516.3,438.6" fill="#ff00ff" filter="url(#glowr1x1519)"/><ellipse cx="430.9" cy="425.7" rx="38.4"  ry="8.2" fill="#ffffff" opacity=".88"/><ellipse cx="569.1" cy="425.7" rx="38.4"  ry="8.2" fill="#ffffff" opacity=".88"/><line x1="484.87829037416725" y1="413.2658978641033" x2="515.6480986376665" y2="412.4672497501597" stroke="#ff00ff" stroke-opacity=".52" stroke-width="2"/><line x1="485.5729017451964" y1="438.03968546083195" x2="514.8040805215388" y2="438.0310855083168" stroke="#ff00ff" stroke-opacity=".52" stroke-width="2"/><line x1="501.518176232744" y1="453.0036587162874" x2="500.02617491502315" y2="484.14618093026803" stroke="#ff00ff" stroke-opacity=".58" stroke-width="2.2" filter="url(#skr1x1519)"/><line x1="454.60000153610486" y1="492.78750829407943" x2="452.8675154879503" y2="521.7130610671826" stroke="#ff00ff" stroke-opacity=".52" stroke-width="1.5" filter="url(#skr1x1519)"/><line x1="477.4844476465508" y1="491.1943868071772" x2="477.51434056762605" y2="521.7705295997672" stroke="#ff00ff" stroke-opacity=".52" stroke-width="1.5" filter="url(#skr1x1519)"/><line x1="500.7701428814791" y1="493.00360345486547" x2="501.45356789529325" y2="518.9572506032885" stroke="#ff00ff" stroke-opacity=".52" stroke-width="1.5" filter="url(#skr1x1519)"/><line x1="524.5430305226333" y1="492.59112135721364" x2="521.9703110533394" y2="518.9304174196907" stroke="#ff00ff" stroke-opacity=".52" stroke-width="1.5" filter="url(#skr1x1519)"/><line x1="544.3995344711655" y1="490.02630644841116" x2="545.5772333781422" y2="520.2250872757286" stroke="#ff00ff" stroke-opacity=".52" stroke-width="1.5" filter="url(#skr1x1519)"/><polygon points="434.5,502.4 567.0,503.5 553.3,557.5 447.1,557.2" fill="#050508" fill-opacity=".72" stroke="#ff00ff" stroke-width="1.3" filter="url(#skr1x1519)"/><text x="30.0"  y="975.0" font-family="monospace" font-weight="bold" font-size="22.0" fill="rgba(255,255,255,.22)">#0001</text><text x="500.0"   y="975.0" text-anchor="middle" font-family="monospace" font-weight="bold" font-size="22.0" fill="#ff00ff" fill-opacity=".48">VOID RANGER</text><text x="970.0" y="975.0" text-anchor="end"    font-family="monospace" font-weight="bold" font-size="22.0" fill="#ff00ff" fill-opacity=".32">MECH RANGERS</text></svg>