<svg xmlns="http://www.w3.org/2000/svg" viewBox="0 0 1000 1000" width="1000" height="1000" shape-rendering="geometricPrecision"><defs>

  <!-- Scene gradients -->
  <radialGradient id="bgr1x153" cx="50%" cy="42%" r="72%">
    <stop offset="0%"   stop-color="#001422"/>
    <stop offset="100%" stop-color="#000a14"/>
  </radialGradient>
  <linearGradient id="suitr1x153" x1="8%" y1="0%" x2="92%" y2="100%">
    <stop offset="0%"   stop-color="#4444ff" stop-opacity=".95"/>
    <stop offset="45%"  stop-color="#141428"/>
    <stop offset="100%" stop-color="#000a14"/>
  </linearGradient>
  <linearGradient id="suitHir1x153" x1="0%" y1="0%" x2="0%" y2="100%">
    <stop offset="0%"   stop-color="rgba(255,255,255,.28)"/>
    <stop offset="60%"  stop-color="rgba(255,255,255,.04)"/>
    <stop offset="100%" stop-color="rgba(255,255,255,0)"/>
  </linearGradient>
  <!-- Bevel: bright top, dark bottom for armour panels -->
  <linearGradient id="bevelr1x153" x1="0%" y1="0%" x2="0%" y2="100%">
    <stop offset="0%"   stop-color="rgba(255,255,255,.55)"/>
    <stop offset="30%"  stop-color="#4444ff"/>
    <stop offset="70%"  stop-color="#141428"/>
    <stop offset="100%" stop-color="rgba(0,0,0,.5)"/>
  </linearGradient>

  <!-- Weapon: cold steel blade sweep -->
  <linearGradient id="blader1x153" x1="0%" y1="0%" x2="100%" y2="0%">
    <stop offset="0%"   stop-color="#0e0e20"/>
    <stop offset="16%"  stop-color="#3e3e58"/>
    <stop offset="34%"  stop-color="#c8c8e0"/>
    <stop offset="50%"  stop-color="#f5f5ff"/>
    <stop offset="66%"  stop-color="#b8b8d0"/>
    <stop offset="84%"  stop-color="#2e2e48"/>
    <stop offset="100%" stop-color="#08080e"/>
  </linearGradient>
  <!-- Blade tip brightening -->
  <linearGradient id="bladeTipr1x153" x1="0%" y1="100%" x2="0%" y2="0%">
    <stop offset="0%"   stop-color="rgba(255,255,255,0)"/>
    <stop offset="55%"  stop-color="rgba(255,255,255,.1)"/>
    <stop offset="100%" stop-color="rgba(255,255,255,.55)"/>
  </linearGradient>
  <!-- Gunmetal anodised — blaster body -->
  <linearGradient id="gunmetalr1x153" x1="0%" y1="0%" x2="0%" y2="100%">
    <stop offset="0%"   stop-color="#46465e"/>
    <stop offset="18%"  stop-color="#828296"/>
    <stop offset="42%"  stop-color="#26263a"/>
    <stop offset="72%"  stop-color="#16162a"/>
    <stop offset="100%" stop-color="#0c0c18"/>
  </linearGradient>
  <!-- Brushed steel tube — barrel/rod -->
  <linearGradient id="barrelr1x153" x1="0%" y1="0%" x2="100%" y2="0%">
    <stop offset="0%"   stop-color="#0a0a14"/>
    <stop offset="24%"  stop-color="#585875"/>
    <stop offset="50%"  stop-color="#a8a8c8"/>
    <stop offset="76%"  stop-color="#383852"/>
    <stop offset="100%" stop-color="#0a0a14"/>
  </linearGradient>
  <!-- Chrome rod — lance shaft -->
  <linearGradient id="chromer1x153" x1="0%" y1="0%" x2="100%" y2="0%">
    <stop offset="0%"   stop-color="#0c0c18"/>
    <stop offset="20%"  stop-color="#686888"/>
    <stop offset="44%"  stop-color="#e0e0f0"/>
    <stop offset="56%"  stop-color="#c0c0d8"/>
    <stop offset="80%"  stop-color="#28283e"/>
    <stop offset="100%" stop-color="#0c0c18"/>
  </linearGradient>
  <!-- Titanium plate — shield face -->
  <linearGradient id="titaniumr1x153" x1="0%" y1="0%" x2="100%" y2="100%">
    <stop offset="0%"   stop-color="#585878"/>
    <stop offset="28%"  stop-color="#4444ff" stop-opacity=".88"/>
    <stop offset="55%"  stop-color="#141428"/>
    <stop offset="80%"  stop-color="#181828"/>
    <stop offset="100%" stop-color="#0a0a18"/>
  </linearGradient>
  <!-- Artillery black-chrome — cannon body -->
  <linearGradient id="artilleryr1x153" x1="0%" y1="0%" x2="0%" y2="100%">
    <stop offset="0%"   stop-color="#383850"/>
    <stop offset="14%"  stop-color="#78789a"/>
    <stop offset="36%"  stop-color="#202034"/>
    <stop offset="65%"  stop-color="#14141e"/>
    <stop offset="100%" stop-color="#0a0a12"/>
  </linearGradient>
  <!-- Energy orb — staff -->
  <radialGradient id="orbr1x153" cx="35%" cy="35%" r="65%">
    <stop offset="0%"   stop-color="rgba(255,255,255,.9)"/>
    <stop offset="30%"  stop-color="#4444ff"/>
    <stop offset="68%"  stop-color="#141428"/>
    <stop offset="100%" stop-color="rgba(0,0,0,.6)"/>
  </radialGradient>
  <!-- Knuckle plate chrome -->
  <linearGradient id="knuckler1x153" x1="0%" y1="0%" x2="0%" y2="100%">
    <stop offset="0%"   stop-color="#888aaa"/>
    <stop offset="32%"  stop-color="#4444ff" stop-opacity=".8"/>
    <stop offset="62%"  stop-color="#1a1a2c"/>
    <stop offset="100%" stop-color="#0a0a14"/>
  </linearGradient>

  <!-- Carbon fibre weave texture overlay -->
  <pattern id="carbonr1x153" width="6" height="6" patternUnits="userSpaceOnUse">
    <rect width="6" height="6" fill="rgba(0,0,0,.08)"/>
    <rect x="0" y="0" width="3" height="3" fill="rgba(255,255,255,.022)"/>
    <rect x="3" y="3" width="3" height="3" fill="rgba(255,255,255,.022)"/>
    <line x1="0" y1="0" x2="3" y2="3" stroke="rgba(255,255,255,.038)" stroke-width=".5"/>
    <line x1="3" y1="0" x2="6" y2="3" stroke="rgba(0,0,0,.055)"       stroke-width=".5"/>
    <line x1="0" y1="3" x2="3" y2="6" stroke="rgba(0,0,0,.055)"       stroke-width=".5"/>
    <line x1="3" y1="3" x2="6" y2="6" stroke="rgba(255,255,255,.038)" stroke-width=".5"/>
  </pattern>

  <!-- Specular metal sheen on armour panels -->
  <filter id="metalr1x153" x="-5%" y="-5%" width="110%" height="110%">
    <feSpecularLighting surfaceScale="4" specularConstant="1.8"
        specularExponent="42" lighting-color="#ffffff" result="spec">
      <feDistantLight elevation="52" azimuth="38"/>
    </feSpecularLighting>
    <feComposite in="spec" in2="SourceGraphic" operator="in" result="sm"/>
    <feComposite in="SourceGraphic" in2="sm" operator="arithmetic" k1="0" k2="1" k3="0.55" k4="0"/>
  </filter>

  <!-- Sharper specular for weapons — heavier glare -->
  <filter id="wmr1x153" x="-8%" y="-8%" width="116%" height="116%">
    <feSpecularLighting surfaceScale="6" specularConstant="2.4"
        specularExponent="65" lighting-color="#ffffff" result="spec">
      <feDistantLight elevation="44" azimuth="28"/>
    </feSpecularLighting>
    <feComposite in="spec" in2="SourceGraphic" operator="in" result="sm"/>
    <feComposite in="SourceGraphic" in2="sm" operator="arithmetic" k1="0" k2="1" k3="0.78" k4="0"/>
  </filter>

  <!-- Sketch wobble -->
  <filter id="skr1x153" x="-8%" y="-8%" width="116%" height="116%">
    <feTurbulence type="fractalNoise" baseFrequency="0.038"
        numOctaves="3" seed="83" result="noise"/>
    <feDisplacementMap in="SourceGraphic" in2="noise" scale="2.6"
        xChannelSelector="R" yChannelSelector="G" result="w"/>
    <feComposite in="w" in2="SourceGraphic" operator="atop"/>
  </filter>

  <!-- Glow: sharp accent -->
  <filter id="glowr1x153" x="-20%" y="-20%" width="140%" height="140%">
    <feGaussianBlur stdDeviation="3.5" result="b"/>
    <feColorMatrix in="b" type="matrix"
        values="0 0 0 0 1  0 0 0 0 1  0 0 0 0 1  0 0 0 1.8 0" result="boost"/>
    <feMerge><feMergeNode in="boost"/><feMergeNode in="SourceGraphic"/></feMerge>
  </filter>

  <!-- Bloom: wide soft -->
  <filter id="bloomr1x153" x="-40%" y="-40%" width="180%" height="180%">
    <feGaussianBlur stdDeviation="11" result="b"/>
    <feMerge><feMergeNode in="b"/><feMergeNode in="SourceGraphic"/></feMerge>
  </filter>

  </defs><rect width="1000" height="1000" fill="url(#bgr1x153)"/><line x1="0" y1="2.6" x2="1000" y2="2.3" stroke="#4444ff" stroke-opacity=".055" stroke-width="1.2"/><line x1="-1.4" y1="0" x2="-1.8" y2="1000" stroke="#4444ff" stroke-opacity=".055" stroke-width="1.2"/><line x1="0" y1="101.6" x2="1000" y2="98.8" stroke="#4444ff" stroke-opacity=".055" stroke-width="1.2"/><line x1="100.2" y1="0" x2="99.7" y2="1000" stroke="#4444ff" stroke-opacity=".055" stroke-width="1.2"/><line x1="0" y1="198.3" x2="1000" y2="202.8" stroke="#4444ff" stroke-opacity=".055" stroke-width="1.2"/><line x1="200.7" y1="0" x2="202.4" y2="1000" stroke="#4444ff" stroke-opacity=".055" stroke-width="1.2"/><line x1="0" y1="298.9" x2="1000" y2="302.1" stroke="#4444ff" stroke-opacity=".055" stroke-width="1.2"/><line x1="301.5" y1="0" x2="301.3" y2="1000" stroke="#4444ff" stroke-opacity=".055" stroke-width="1.2"/><line x1="0" y1="402.4" x2="1000" y2="397.8" stroke="#4444ff" stroke-opacity=".055" stroke-width="1.2"/><line x1="399.7" y1="0" x2="402.4" y2="1000" stroke="#4444ff" stroke-opacity=".055" stroke-width="1.2"/><line x1="0" y1="499.7" x2="1000" y2="500.0" stroke="#4444ff" stroke-opacity=".055" stroke-width="1.2"/><line x1="500.1" y1="0" x2="499.7" y2="1000" stroke="#4444ff" stroke-opacity=".055" stroke-width="1.2"/><line x1="0" y1="597.7" x2="1000" y2="599.1" stroke="#4444ff" stroke-opacity=".055" stroke-width="1.2"/><line x1="602.1" y1="0" x2="599.6" y2="1000" stroke="#4444ff" stroke-opacity=".055" stroke-width="1.2"/><line x1="0" y1="698.5" x2="1000" y2="699.8" stroke="#4444ff" stroke-opacity=".055" stroke-width="1.2"/><line x1="701.4" y1="0" x2="702.7" y2="1000" stroke="#4444ff" stroke-opacity=".055" stroke-width="1.2"/><line x1="0" y1="799.8" x2="1000" y2="802.2" stroke="#4444ff" stroke-opacity=".055" stroke-width="1.2"/><line x1="802.4" y1="0" x2="799.9" y2="1000" stroke="#4444ff" stroke-opacity=".055" stroke-width="1.2"/><line x1="0" y1="902.4" x2="1000" y2="901.9" stroke="#4444ff" stroke-opacity=".055" stroke-width="1.2"/><line x1="897.4" y1="0" x2="900.0" y2="1000" stroke="#4444ff" stroke-opacity=".055" stroke-width="1.2"/><path d="M80,30 L30,30 L30,80" stroke="#4444ff" stroke-opacity=".45" stroke-width="2" fill="none" filter="url(#glowr1x153)"/><path d="M920,30 L970,30 L970,80" stroke="#4444ff" stroke-opacity=".45" stroke-width="2" fill="none" filter="url(#glowr1x153)"/><path d="M30,920 L30,970 L80,970" stroke="#4444ff" stroke-opacity=".45" stroke-width="2" fill="none" filter="url(#glowr1x153)"/><path d="M970,920 L970,970 L920,970" stroke="#4444ff" stroke-opacity=".45" stroke-width="2" fill="none" filter="url(#glowr1x153)"/><ellipse cx="500.0" cy="892.0" rx="350.0" ry="65.0" fill="rgba(0,0,0,.7)" filter="url(#bloomr1x153)"/><ellipse cx="500.0" cy="889.0" rx="220.0" ry="34.0" fill="rgba(0,0,0,.45)"/><ellipse cx="500.0" cy="520.0" rx="320.0" ry="480.0" fill="#ff6600" fill-opacity=".042" filter="url(#bloomr1x153)"/><circle cx="250.3" cy="370.6" r="1.9" fill="#ff6600" fill-opacity="0.59" filter="url(#glowr1x153)"/><circle cx="371.0" cy="530.8" r="2.7" fill="#ff6600" fill-opacity="0.48" filter="url(#glowr1x153)"/><circle cx="567.1" cy="749.8" r="4.1" fill="#ff6600" fill-opacity="0.38" filter="url(#glowr1x153)"/><circle cx="676.4" cy="559.9" r="4.2" fill="#ff6600" fill-opacity="0.89" filter="url(#glowr1x153)"/><circle cx="656.0" cy="252.0" r="0.6" fill="#ff6600" fill-opacity="0.40" filter="url(#glowr1x153)"/><circle cx="683.0" cy="357.8" r="1.1" fill="#ff6600" fill-opacity="0.78" filter="url(#glowr1x153)"/><circle cx="587.3" cy="797.5" r="2.2" fill="#ff6600" fill-opacity="0.57" filter="url(#glowr1x153)"/><circle cx="588.1" cy="346.1" r="2.2" fill="#ff6600" fill-opacity="0.65" filter="url(#glowr1x153)"/><circle cx="662.0" cy="435.5" r="3.7" fill="#ff6600" fill-opacity="0.59" filter="url(#glowr1x153)"/><circle cx="689.7" cy="334.1" r="0.9" fill="#ff6600" fill-opacity="0.74" filter="url(#glowr1x153)"/><circle cx="439.1" cy="554.4" r="3.6" fill="#ff6600" fill-opacity="0.61" filter="url(#glowr1x153)"/><circle cx="304.9" cy="659.5" r="3.5" fill="#ff6600" fill-opacity="0.45" filter="url(#glowr1x153)"/><circle cx="732.9" cy="235.8" r="2.1" fill="#ff6600" fill-opacity="0.54" filter="url(#glowr1x153)"/><circle cx="507.8" cy="707.5" r="1.7" fill="#ff6600" fill-opacity="0.58" filter="url(#glowr1x153)"/><polygon points="397.4,661.7 489.7,664.0 481.5,875.8 385.7,876.4" fill="url(#suitr1x153)" stroke="#4444ff" stroke-width="2.2" filter="url(#skr1x153) url(#metalr1x153)"/><polygon points="397.3,663.9 489.1,662.9 481.7,878.2 387.3,878.4" fill="url(#carbonr1x153)"/><polygon points="391.0,723.4 493.9,724.1 484.5,788.7 385.4,787.8" fill="url(#bevelr1x153)" fill-opacity=".5" stroke="#4444ff" stroke-width="1.4" filter="url(#skr1x153)"/><polygon points="509.5,663.2 602.0,663.6 611.6,879.0 517.7,878.6" fill="url(#suitr1x153)" stroke="#4444ff" stroke-width="2.2" filter="url(#skr1x153) url(#metalr1x153)"/><polygon points="511.2,661.0 601.7,661.1 613.2,877.9 518.1,876.4" fill="url(#carbonr1x153)"/><polygon points="506.9,723.4 607.8,723.5 617.9,789.4 515.5,789.3" fill="url(#bevelr1x153)" fill-opacity=".5" stroke="#4444ff" stroke-width="1.4" filter="url(#skr1x153)"/><rect x="391.8" y="838.6" width="100.3" height="24.7" fill="url(#bevelr1x153)" stroke="#4444ff" stroke-width="1" filter="url(#skr1x153)"/><rect x="506.5"  y="837.3" width="100.3" height="24.7" fill="url(#bevelr1x153)" stroke="#4444ff" stroke-width="1" filter="url(#skr1x153)"/><polygon points="369.9,877.4 496.7,878.4 503.6,921.0 363.2,920.4" fill="#141428" stroke="#4444ff" stroke-width="2" filter="url(#skr1x153)"/><polygon points="503.9,878.1 629.6,876.3 637.1,923.3 495.5,920.2" fill="#141428" stroke="#4444ff" stroke-width="2" filter="url(#skr1x153)"/><polygon points="303.7,634.1 696.3,631.8 637.7,681.0 361.4,682.7" fill="#4444ff" fill-opacity=".52" stroke="#4444ff" stroke-width="2" filter="url(#skr1x153)"/><rect x="462.9" y="638.0" width="72.0" height="42.0" fill="url(#bevelr1x153)" stroke="#4444ff" stroke-width="1.4" filter="url(#glowr1x153)"/><rect x="487.8" y="640.2" width="28.0" height="22.0" rx="1" fill="rgba(255,255,255,.48)"/><polygon points="154.7,467.0 234.5,467.4 258.5,734.1 130.0,736.7" fill="url(#suitr1x153)" stroke="#4444ff" stroke-width="2.2" filter="url(#skr1x153) url(#metalr1x153)"/><polygon points="174.8,432.6 254.5,431.1 241.6,509.7 159.3,511.4" fill="url(#bevelr1x153)" fill-opacity=".72" stroke="#4444ff" stroke-width="2.2" filter="url(#skr1x153)"/><polygon points="161.3,620.9 243.7,621.0 239.1,659.8 166.2,662.6" fill="#4444ff" fill-opacity=".42" stroke="#4444ff" stroke-width="1" filter="url(#skr1x153)"/><polygon points="764.7,465.4 848.3,465.5 873.0,733.9 743.8,734.3" fill="url(#suitr1x153)" stroke="#4444ff" stroke-width="2.2" filter="url(#skr1x153) url(#metalr1x153)"/><polygon points="747.5,431.5 827.0,430.5 841.8,509.9 755.8,510.5" fill="url(#bevelr1x153)" fill-opacity=".72" stroke="#4444ff" stroke-width="2.2" filter="url(#skr1x153)"/><polygon points="757.1,620.9 838.4,621.1 834.8,662.5 760.0,662.2" fill="#4444ff" fill-opacity=".42" stroke="#4444ff" stroke-width="1" filter="url(#skr1x153)"/><rect x="118.6"  y="699.8" width="135.3" height="85.0" rx="4" fill="url(#bevelr1x153)" stroke="#4444ff" stroke-width="1.8" filter="url(#skr1x153)"/><rect x="748.1"   y="699.2" width="135.3" height="85.0" rx="4" fill="url(#bevelr1x153)" stroke="#4444ff" stroke-width="1.8" filter="url(#skr1x153)"/><line x1="149.3" y1="703.2" x2="149.9" y2="782.8" stroke="#4444ff" stroke-opacity=".38" stroke-width="1"/><line x1="777.4" y1="702.2" x2="778.8" y2="783.2" stroke="#4444ff" stroke-opacity=".38" stroke-width="1"/><line x1="181.3" y1="702.8" x2="183.8" y2="784.3" stroke="#4444ff" stroke-opacity=".38" stroke-width="1"/><line x1="811.4" y1="701.3" x2="810.7" y2="782.8" stroke="#4444ff" stroke-opacity=".38" stroke-width="1"/><line x1="216.4" y1="703.1" x2="215.2" y2="782.5" stroke="#4444ff" stroke-opacity=".38" stroke-width="1"/><line x1="843.6" y1="700.4" x2="843.0" y2="785.0" stroke="#4444ff" stroke-opacity=".38" stroke-width="1"/><polygon points="234.5,419.0 764.3,418.8 723.0,662.5 275.7,661.9" fill="url(#suitr1x153)" stroke="#4444ff" stroke-width="2.6" filter="url(#skr1x153) url(#metalr1x153)"/><polygon points="235.2,416.5 763.2,417.4 722.9,661.8 276.6,662.3" fill="url(#carbonr1x153)"/><polygon points="367.6,416.4 634.0,417.5 610.0,516.1 387.1,515.3" fill="url(#suitHir1x153)"/><line x1="360.9" y1="473.0" x2="637.0" y2="471.1" stroke="#4444ff" stroke-opacity=".52" stroke-width="1.3" filter="url(#skr1x153)"/><line x1="397.9" y1="550.2" x2="599.4" y2="548.3" stroke="#4444ff" stroke-opacity=".52" stroke-width="1.3" filter="url(#skr1x153)"/><line x1="266.2" y1="489.6" x2="319.0" y2="491.9" stroke="#4444ff" stroke-opacity=".62" stroke-width="1.8"/><line x1="681.5" y1="490.9" x2="732.8" y2="489.7" stroke="#4444ff" stroke-opacity=".62" stroke-width="1.8"/><line x1="268.2" y1="522.4" x2="318.0" y2="524.4" stroke="#4444ff" stroke-opacity=".62" stroke-width="1.8"/><line x1="679.1" y1="523.9" x2="733.2" y2="521.3" stroke="#4444ff" stroke-opacity=".62" stroke-width="1.8"/><line x1="266.5" y1="556.3" x2="320.2" y2="554.1" stroke="#4444ff" stroke-opacity=".62" stroke-width="1.8"/><line x1="680.3" y1="555.1" x2="734.4" y2="555.8" stroke="#4444ff" stroke-opacity=".62" stroke-width="1.8"/><line x1="266.4" y1="586.4" x2="320.8" y2="587.2" stroke="#4444ff" stroke-opacity=".62" stroke-width="1.8"/><line x1="680.1" y1="585.6" x2="732.9" y2="586.2" stroke="#4444ff" stroke-opacity=".62" stroke-width="1.8"/><g filter="url(#glowr1x153)"><path d="M500,510.6 C393.91910462435334,447.86969637852167 444.1304654162377,550.9158629015461 500,532.4069752912224" fill="#4444ff" fill-opacity=".88" stroke="#4444ff" stroke-width="1.2" filter="url(#skr1x153)"/><path d="M500,510.6 C603.6348823571577,452.08887344487016 559.3711890997365,542.8456747070328 500,528.5241585015506" fill="#4444ff" fill-opacity=".88" stroke="#4444ff" stroke-width="1.2" filter="url(#skr1x153)"/><path d="M500,493.20000000000005 C455.28474128376695,464.01985868932684 479.7966540071182,517.2784016342833 500,523.0488445393742" fill="rgba(255,255,255,.14)"/><path d="M500,493.20000000000005 C549.0967315743677,463.5183962432668 520.826348302234,519.0751611460931 500,521.5771514305845" fill="rgba(255,255,255,.14)"/></g><g><line x1="103.12652343384919" y1="830.1323774608783" x2="101.73634901050475" y2="109.63411323362959" stroke="url(#chromer1x153)" stroke-width="22.0" stroke-linecap="round" filter="url(#wmr1x153)"/><line x1="99.55804902859029" y1="809.7475547635928" x2="96.77399421812963" y2="131.42691407902163" stroke="rgba(255,255,255,.35)" stroke-width="4.0" stroke-linecap="round"/><rect x="85.49253476433452" y="622.508004745841" width="32.0" height="18.0" fill="url(#bevelr1x153)" stroke="#4444ff" stroke-width=".8" filter="url(#wmr1x153)"/><rect x="85.11338973356408" y="442.47135083079337" width="32.0" height="18.0" fill="url(#bevelr1x153)" stroke="#4444ff" stroke-width=".8" filter="url(#wmr1x153)"/><rect x="87.08626424012702" y="262.28511872133237" width="32.0" height="18.0" fill="url(#bevelr1x153)" stroke="#4444ff" stroke-width=".8" filter="url(#wmr1x153)"/><circle cx="100.85300789050754" cy="110.07870690440757" r="58.0" fill="rgba(0,0,0,.52)" stroke="#4444ff" stroke-width="2.2" filter="url(#wmr1x153)"/><circle cx="101.91878041973334" cy="110.72129651224239" r="46.0" fill="url(#orbr1x153)" filter="url(#bloomr1x153)"/><circle cx="102.09494852390137" cy="112.98885533539575" r="20.0" fill="#ff6600" filter="url(#glowr1x153)"/><circle cx="102.18819602238011" cy="112.30740655977277" r="66.0" fill="none" stroke="#4444ff" stroke-opacity=".4" stroke-width="1.3" stroke-dasharray="4,4"/><ellipse cx="101.69196010589596" cy="109.98329018531365" rx="66.0" ry="30.0" fill="none" stroke="#4444ff" stroke-opacity=".24" stroke-width="1" stroke-dasharray="3,5" transform="rotate(60,102.2,111.4)"/></g><rect x="448.5257878124714" y="557.1021017410792" width="100.0"  height="56.0" fill="#141428" stroke="#4444ff" stroke-width="2.2" filter="url(#skr1x153)"/><rect x="423.00097673907874" y="576.5345719024539" width="152.0" height="26.0" fill="url(#bevelr1x153)" fill-opacity=".65" stroke="#4444ff" stroke-width="1.2" filter="url(#skr1x153)"/><polygon points="307.0,379.3 348.5,295.2 499.3,277.2 651.4,296.0 691.5,381.4 670.7,502.3 501.2,565.8 329.9,502.7" fill="url(#suitr1x153)" stroke="#4444ff" stroke-width="2.8" filter="url(#skr1x153) url(#metalr1x153)"/><polygon points="308.8,379.7 350.4,293.9 499.5,279.8 649.0,296.1 690.3,379.9 668.2,502.3 499.6,565.0 329.8,502.6" fill="url(#carbonr1x153)"/><polygon points="381.1,301.2 499.1,287.3 618.2,300.9 607.7,380.2 390.8,379.7" fill="url(#suitHir1x153)"/><polygon points="380.2,380.0 364.6,424.3 431.4,502.5 499.7,528.2 568.5,503.2 635.4,425.3 619.4,380.3" fill="#000a14" fill-opacity=".88" stroke="#4444ff" stroke-width="1.8" filter="url(#skr1x153)"/><polygon points="380.5,411.7 477.3,412.8 486.0,438.8 387.2,441.5" fill="#4444ff" filter="url(#glowr1x153)"/><polygon points="522.5,410.0 619.7,411.7 609.9,440.3 514.5,441.6" fill="#4444ff" filter="url(#glowr1x153)"/><ellipse cx="430.9" cy="425.7" rx="38.4"  ry="8.2" fill="#ffffff" opacity=".88"/><ellipse cx="569.1" cy="425.7" rx="38.4"  ry="8.2" fill="#ffffff" opacity=".88"/><line x1="484.7046496317349" y1="414.0589868919924" x2="513.7415790493042" y2="413.60378138897937" stroke="#4444ff" stroke-opacity=".52" stroke-width="2"/><line x1="483.2745140013844" y1="437.45103956898674" x2="514.9485322417132" y2="437.3067958281375" stroke="#4444ff" stroke-opacity=".52" stroke-width="2"/><line x1="499.5893735853024" y1="455.2335870429873" x2="501.7011864006519" y2="482.62494436576964" stroke="#4444ff" stroke-opacity=".58" stroke-width="2.2" filter="url(#skr1x153)"/><line x1="455.3530076559447" y1="492.4908576986752" x2="452.147102777455" y2="518.2089966503903" stroke="#4444ff" stroke-opacity=".52" stroke-width="1.5" filter="url(#skr1x153)"/><line x1="476.7566058180667" y1="489.99656463293354" x2="475.2273225628212" y2="521.4667077623308" stroke="#4444ff" stroke-opacity=".52" stroke-width="1.5" filter="url(#skr1x153)"/><line x1="498.4888925313018" y1="490.8911389289423" x2="498.3037116181105" y2="521.4584121910855" stroke="#4444ff" stroke-opacity=".52" stroke-width="1.5" filter="url(#skr1x153)"/><line x1="524.7006666730716" y1="492.3421534190885" x2="523.8410786169209" y2="520.053547866363" stroke="#4444ff" stroke-opacity=".52" stroke-width="1.5" filter="url(#skr1x153)"/><line x1="544.7213216993213" y1="491.7975337879732" x2="546.6875555944815" y2="520.2575998265296" stroke="#4444ff" stroke-opacity=".52" stroke-width="1.5" filter="url(#skr1x153)"/><polygon points="431.7,504.9 568.0,505.3 553.0,558.5 446.0,556.3" fill="#141428" fill-opacity=".72" stroke="#4444ff" stroke-width="1.3" filter="url(#skr1x153)"/><polygon points="315.7,304.6 361.1,305.0 340.3,195.3" fill="url(#bevelr1x153)" fill-opacity=".95" stroke="#4444ff" stroke-width="1.6" filter="url(#skr1x153) url(#glowr1x153)"/><polygon points="395.2,306.0 443.2,306.0 418.9,210.3" fill="url(#bevelr1x153)" fill-opacity=".95" stroke="#4444ff" stroke-width="1.6" filter="url(#skr1x153) url(#glowr1x153)"/><polygon points="477.0,304.7 522.4,306.0 499.3,223.5" fill="url(#bevelr1x153)" fill-opacity=".95" stroke="#4444ff" stroke-width="1.6" filter="url(#skr1x153) url(#glowr1x153)"/><polygon points="556.3,303.2 604.2,304.6 580.6,209.1" fill="url(#bevelr1x153)" fill-opacity=".95" stroke="#4444ff" stroke-width="1.6" filter="url(#skr1x153) url(#glowr1x153)"/><polygon points="637.3,304.4 685.3,303.2 660.7,195.3" fill="url(#bevelr1x153)" fill-opacity=".95" stroke="#4444ff" stroke-width="1.6" filter="url(#skr1x153) url(#glowr1x153)"/><text x="30.0"  y="975.0" font-family="monospace" font-weight="bold" font-size="22.0" fill="rgba(255,255,255,.22)">#0001</text><text x="500.0"   y="975.0" text-anchor="middle" font-family="monospace" font-weight="bold" font-size="22.0" fill="#4444ff" fill-opacity=".48">OBSIDIAN RANGER</text><text x="970.0" y="975.0" text-anchor="end"    font-family="monospace" font-weight="bold" font-size="22.0" fill="#4444ff" fill-opacity=".32">MECH RANGERS</text></svg>