<svg xmlns="http://www.w3.org/2000/svg" viewBox="0 0 1000 1000" width="1000" height="1000" shape-rendering="geometricPrecision"><defs>

  <!-- Scene gradients -->
  <radialGradient id="bgr1x1653" cx="50%" cy="42%" r="72%">
    <stop offset="0%"   stop-color="#1a2814"/>
    <stop offset="100%" stop-color="#0d1520"/>
  </radialGradient>
  <linearGradient id="suitr1x1653" x1="8%" y1="0%" x2="92%" y2="100%">
    <stop offset="0%"   stop-color="#ff2040" stop-opacity=".95"/>
    <stop offset="45%"  stop-color="#cc0020"/>
    <stop offset="100%" stop-color="#0d1520"/>
  </linearGradient>
  <linearGradient id="suitHir1x1653" x1="0%" y1="0%" x2="0%" y2="100%">
    <stop offset="0%"   stop-color="rgba(255,255,255,.28)"/>
    <stop offset="60%"  stop-color="rgba(255,255,255,.04)"/>
    <stop offset="100%" stop-color="rgba(255,255,255,0)"/>
  </linearGradient>
  <!-- Bevel: bright top, dark bottom for armour panels -->
  <linearGradient id="bevelr1x1653" x1="0%" y1="0%" x2="0%" y2="100%">
    <stop offset="0%"   stop-color="rgba(255,255,255,.55)"/>
    <stop offset="30%"  stop-color="#ff2040"/>
    <stop offset="70%"  stop-color="#cc0020"/>
    <stop offset="100%" stop-color="rgba(0,0,0,.5)"/>
  </linearGradient>

  <!-- Weapon: cold steel blade sweep -->
  <linearGradient id="blader1x1653" x1="0%" y1="0%" x2="100%" y2="0%">
    <stop offset="0%"   stop-color="#0e0e20"/>
    <stop offset="16%"  stop-color="#3e3e58"/>
    <stop offset="34%"  stop-color="#c8c8e0"/>
    <stop offset="50%"  stop-color="#f5f5ff"/>
    <stop offset="66%"  stop-color="#b8b8d0"/>
    <stop offset="84%"  stop-color="#2e2e48"/>
    <stop offset="100%" stop-color="#08080e"/>
  </linearGradient>
  <!-- Blade tip brightening -->
  <linearGradient id="bladeTipr1x1653" x1="0%" y1="100%" x2="0%" y2="0%">
    <stop offset="0%"   stop-color="rgba(255,255,255,0)"/>
    <stop offset="55%"  stop-color="rgba(255,255,255,.1)"/>
    <stop offset="100%" stop-color="rgba(255,255,255,.55)"/>
  </linearGradient>
  <!-- Gunmetal anodised — blaster body -->
  <linearGradient id="gunmetalr1x1653" x1="0%" y1="0%" x2="0%" y2="100%">
    <stop offset="0%"   stop-color="#46465e"/>
    <stop offset="18%"  stop-color="#828296"/>
    <stop offset="42%"  stop-color="#26263a"/>
    <stop offset="72%"  stop-color="#16162a"/>
    <stop offset="100%" stop-color="#0c0c18"/>
  </linearGradient>
  <!-- Brushed steel tube — barrel/rod -->
  <linearGradient id="barrelr1x1653" x1="0%" y1="0%" x2="100%" y2="0%">
    <stop offset="0%"   stop-color="#0a0a14"/>
    <stop offset="24%"  stop-color="#585875"/>
    <stop offset="50%"  stop-color="#a8a8c8"/>
    <stop offset="76%"  stop-color="#383852"/>
    <stop offset="100%" stop-color="#0a0a14"/>
  </linearGradient>
  <!-- Chrome rod — lance shaft -->
  <linearGradient id="chromer1x1653" x1="0%" y1="0%" x2="100%" y2="0%">
    <stop offset="0%"   stop-color="#0c0c18"/>
    <stop offset="20%"  stop-color="#686888"/>
    <stop offset="44%"  stop-color="#e0e0f0"/>
    <stop offset="56%"  stop-color="#c0c0d8"/>
    <stop offset="80%"  stop-color="#28283e"/>
    <stop offset="100%" stop-color="#0c0c18"/>
  </linearGradient>
  <!-- Titanium plate — shield face -->
  <linearGradient id="titaniumr1x1653" x1="0%" y1="0%" x2="100%" y2="100%">
    <stop offset="0%"   stop-color="#585878"/>
    <stop offset="28%"  stop-color="#ff2040" stop-opacity=".88"/>
    <stop offset="55%"  stop-color="#cc0020"/>
    <stop offset="80%"  stop-color="#181828"/>
    <stop offset="100%" stop-color="#0a0a18"/>
  </linearGradient>
  <!-- Artillery black-chrome — cannon body -->
  <linearGradient id="artilleryr1x1653" x1="0%" y1="0%" x2="0%" y2="100%">
    <stop offset="0%"   stop-color="#383850"/>
    <stop offset="14%"  stop-color="#78789a"/>
    <stop offset="36%"  stop-color="#202034"/>
    <stop offset="65%"  stop-color="#14141e"/>
    <stop offset="100%" stop-color="#0a0a12"/>
  </linearGradient>
  <!-- Energy orb — staff -->
  <radialGradient id="orbr1x1653" cx="35%" cy="35%" r="65%">
    <stop offset="0%"   stop-color="rgba(255,255,255,.9)"/>
    <stop offset="30%"  stop-color="#ff2040"/>
    <stop offset="68%"  stop-color="#cc0020"/>
    <stop offset="100%" stop-color="rgba(0,0,0,.6)"/>
  </radialGradient>
  <!-- Knuckle plate chrome -->
  <linearGradient id="knuckler1x1653" x1="0%" y1="0%" x2="0%" y2="100%">
    <stop offset="0%"   stop-color="#888aaa"/>
    <stop offset="32%"  stop-color="#ff2040" stop-opacity=".8"/>
    <stop offset="62%"  stop-color="#1a1a2c"/>
    <stop offset="100%" stop-color="#0a0a14"/>
  </linearGradient>

  <!-- Carbon fibre weave texture overlay -->
  <pattern id="carbonr1x1653" width="6" height="6" patternUnits="userSpaceOnUse">
    <rect width="6" height="6" fill="rgba(0,0,0,.08)"/>
    <rect x="0" y="0" width="3" height="3" fill="rgba(255,255,255,.022)"/>
    <rect x="3" y="3" width="3" height="3" fill="rgba(255,255,255,.022)"/>
    <line x1="0" y1="0" x2="3" y2="3" stroke="rgba(255,255,255,.038)" stroke-width=".5"/>
    <line x1="3" y1="0" x2="6" y2="3" stroke="rgba(0,0,0,.055)"       stroke-width=".5"/>
    <line x1="0" y1="3" x2="3" y2="6" stroke="rgba(0,0,0,.055)"       stroke-width=".5"/>
    <line x1="3" y1="3" x2="6" y2="6" stroke="rgba(255,255,255,.038)" stroke-width=".5"/>
  </pattern>

  <!-- Specular metal sheen on armour panels -->
  <filter id="metalr1x1653" x="-5%" y="-5%" width="110%" height="110%">
    <feSpecularLighting surfaceScale="4" specularConstant="1.8"
        specularExponent="42" lighting-color="#ffffff" result="spec">
      <feDistantLight elevation="52" azimuth="38"/>
    </feSpecularLighting>
    <feComposite in="spec" in2="SourceGraphic" operator="in" result="sm"/>
    <feComposite in="SourceGraphic" in2="sm" operator="arithmetic" k1="0" k2="1" k3="0.55" k4="0"/>
  </filter>

  <!-- Sharper specular for weapons — heavier glare -->
  <filter id="wmr1x1653" x="-8%" y="-8%" width="116%" height="116%">
    <feSpecularLighting surfaceScale="6" specularConstant="2.4"
        specularExponent="65" lighting-color="#ffffff" result="spec">
      <feDistantLight elevation="44" azimuth="28"/>
    </feSpecularLighting>
    <feComposite in="spec" in2="SourceGraphic" operator="in" result="sm"/>
    <feComposite in="SourceGraphic" in2="sm" operator="arithmetic" k1="0" k2="1" k3="0.78" k4="0"/>
  </filter>

  <!-- Sketch wobble -->
  <filter id="skr1x1653" x="-8%" y="-8%" width="116%" height="116%">
    <feTurbulence type="fractalNoise" baseFrequency="0.038"
        numOctaves="3" seed="79" result="noise"/>
    <feDisplacementMap in="SourceGraphic" in2="noise" scale="2.6"
        xChannelSelector="R" yChannelSelector="G" result="w"/>
    <feComposite in="w" in2="SourceGraphic" operator="atop"/>
  </filter>

  <!-- Glow: sharp accent -->
  <filter id="glowr1x1653" x="-20%" y="-20%" width="140%" height="140%">
    <feGaussianBlur stdDeviation="3.5" result="b"/>
    <feColorMatrix in="b" type="matrix"
        values="0 0 0 0 1  0 0 0 0 1  0 0 0 0 1  0 0 0 1.8 0" result="boost"/>
    <feMerge><feMergeNode in="boost"/><feMergeNode in="SourceGraphic"/></feMerge>
  </filter>

  <!-- Bloom: wide soft -->
  <filter id="bloomr1x1653" x="-40%" y="-40%" width="180%" height="180%">
    <feGaussianBlur stdDeviation="11" result="b"/>
    <feMerge><feMergeNode in="b"/><feMergeNode in="SourceGraphic"/></feMerge>
  </filter>

  </defs><rect width="1000" height="1000" fill="url(#bgr1x1653)"/><ellipse cx="500.0" cy="892.0" rx="350.0" ry="65.0" fill="rgba(0,0,0,.7)" filter="url(#bloomr1x1653)"/><ellipse cx="500.0" cy="889.0" rx="220.0" ry="34.0" fill="rgba(0,0,0,.45)"/><polygon points="398.4,661.3 490.1,663.8 479.3,875.7 386.0,876.4" fill="url(#suitr1x1653)" stroke="#ff2040" stroke-width="2.2" filter="url(#skr1x1653) url(#metalr1x1653)"/><polygon points="399.8,661.9 488.6,662.8 481.4,878.5 388.0,877.8" fill="url(#carbonr1x1653)"/><polygon points="391.8,724.5 493.8,722.1 485.6,789.7 385.0,789.2" fill="url(#bevelr1x1653)" fill-opacity=".5" stroke="#ff2040" stroke-width="1.4" filter="url(#skr1x1653)"/><polygon points="511.9,663.9 602.8,663.7 612.8,878.4 518.7,876.8" fill="url(#suitr1x1653)" stroke="#ff2040" stroke-width="2.2" filter="url(#skr1x1653) url(#metalr1x1653)"/><polygon points="510.3,661.1 599.9,663.5 613.3,877.0 521.1,875.9" fill="url(#carbonr1x1653)"/><polygon points="505.7,725.5 609.0,724.7 615.4,787.6 517.1,788.3" fill="url(#bevelr1x1653)" fill-opacity=".5" stroke="#ff2040" stroke-width="1.4" filter="url(#skr1x1653)"/><rect x="392.6" y="838.0" width="100.3" height="24.7" fill="url(#bevelr1x1653)" stroke="#ff2040" stroke-width="1" filter="url(#skr1x1653)"/><rect x="506.5"  y="837.4" width="100.3" height="24.7" fill="url(#bevelr1x1653)" stroke="#ff2040" stroke-width="1" filter="url(#skr1x1653)"/><polygon points="371.1,876.5 498.1,878.2 504.1,920.0 361.0,922.2" fill="#cc0020" stroke="#ff2040" stroke-width="2" filter="url(#skr1x1653)"/><polygon points="504.7,876.3 628.9,878.1 638.8,923.2 495.6,923.3" fill="#cc0020" stroke="#ff2040" stroke-width="2" filter="url(#skr1x1653)"/><polygon points="305.3,631.4 695.0,633.4 636.2,682.0 361.0,683.3" fill="#ff2040" fill-opacity=".52" stroke="#ff2040" stroke-width="2" filter="url(#skr1x1653)"/><rect x="465.7" y="638.9" width="72.0" height="42.0" fill="url(#bevelr1x1653)" stroke="#ff2040" stroke-width="1.4" filter="url(#glowr1x1653)"/><rect x="484.9" y="641.2" width="28.0" height="22.0" rx="1" fill="rgba(255,255,255,.48)"/><polygon points="152.3,467.9 235.7,464.9 258.5,735.9 128.2,735.4" fill="url(#suitr1x1653)" stroke="#ff2040" stroke-width="2.2" filter="url(#skr1x1653) url(#metalr1x1653)"/><polygon points="174.6,431.6 252.0,432.8 244.9,509.1 158.8,508.8" fill="url(#bevelr1x1653)" fill-opacity=".72" stroke="#ff2040" stroke-width="2.2" filter="url(#skr1x1653)"/><polygon points="161.9,620.1 242.3,621.4 239.1,662.6 164.3,662.6" fill="#ff2040" fill-opacity=".42" stroke="#ff2040" stroke-width="1" filter="url(#skr1x1653)"/><polygon points="765.5,465.9 845.7,465.0 870.1,735.0 743.0,734.9" fill="url(#suitr1x1653)" stroke="#ff2040" stroke-width="2.2" filter="url(#skr1x1653) url(#metalr1x1653)"/><polygon points="746.9,433.1 828.0,430.9 838.9,509.5 755.9,509.3" fill="url(#bevelr1x1653)" fill-opacity=".72" stroke="#ff2040" stroke-width="2.2" filter="url(#skr1x1653)"/><polygon points="756.2,621.7 837.0,623.0 835.4,661.4 760.1,662.3" fill="#ff2040" fill-opacity=".42" stroke="#ff2040" stroke-width="1" filter="url(#skr1x1653)"/><rect x="118.5"  y="698.5" width="135.3" height="85.0" rx="4" fill="url(#bevelr1x1653)" stroke="#ff2040" stroke-width="1.8" filter="url(#skr1x1653)"/><rect x="749.8"   y="700.3" width="135.3" height="85.0" rx="4" fill="url(#bevelr1x1653)" stroke="#ff2040" stroke-width="1.8" filter="url(#skr1x1653)"/><line x1="151.2" y1="703.2" x2="148.9" y2="783.2" stroke="#ff2040" stroke-opacity=".38" stroke-width="1"/><line x1="779.9" y1="700.2" x2="776.8" y2="785.3" stroke="#ff2040" stroke-opacity=".38" stroke-width="1"/><line x1="184.2" y1="703.0" x2="183.2" y2="784.3" stroke="#ff2040" stroke-opacity=".38" stroke-width="1"/><line x1="809.6" y1="701.8" x2="810.1" y2="784.7" stroke="#ff2040" stroke-opacity=".38" stroke-width="1"/><line x1="213.5" y1="700.8" x2="214.8" y2="783.2" stroke="#ff2040" stroke-opacity=".38" stroke-width="1"/><line x1="844.9" y1="701.4" x2="844.9" y2="784.9" stroke="#ff2040" stroke-opacity=".38" stroke-width="1"/><polygon points="236.7,418.0 764.2,416.6 721.3,663.7 276.5,662.8" fill="url(#suitr1x1653)" stroke="#ff2040" stroke-width="2.6" filter="url(#skr1x1653) url(#metalr1x1653)"/><polygon points="235.1,418.8 764.0,419.0 721.9,661.2 276.6,662.5" fill="url(#carbonr1x1653)"/><polygon points="367.2,418.2 632.4,417.2 611.3,516.8 387.1,517.1" fill="url(#suitHir1x1653)"/><line x1="361.4" y1="472.6" x2="639.4" y2="473.0" stroke="#ff2040" stroke-opacity=".52" stroke-width="1.3" filter="url(#skr1x1653)"/><line x1="399.9" y1="549.4" x2="601.9" y2="551.3" stroke="#ff2040" stroke-opacity=".52" stroke-width="1.3" filter="url(#skr1x1653)"/><line x1="265.0" y1="490.8" x2="319.1" y2="489.5" stroke="#ff2040" stroke-opacity=".62" stroke-width="1.8"/><line x1="681.2" y1="491.6" x2="734.7" y2="491.1" stroke="#ff2040" stroke-opacity=".62" stroke-width="1.8"/><line x1="266.6" y1="523.5" x2="319.1" y2="522.6" stroke="#ff2040" stroke-opacity=".62" stroke-width="1.8"/><line x1="680.3" y1="523.9" x2="734.6" y2="523.2" stroke="#ff2040" stroke-opacity=".62" stroke-width="1.8"/><line x1="266.5" y1="554.0" x2="320.6" y2="553.9" stroke="#ff2040" stroke-opacity=".62" stroke-width="1.8"/><line x1="680.4" y1="553.8" x2="733.3" y2="555.4" stroke="#ff2040" stroke-opacity=".62" stroke-width="1.8"/><line x1="266.4" y1="586.2" x2="318.0" y2="584.9" stroke="#ff2040" stroke-opacity=".62" stroke-width="1.8"/><line x1="680.5" y1="585.0" x2="733.8" y2="586.9" stroke="#ff2040" stroke-opacity=".62" stroke-width="1.8"/><g filter="url(#glowr1x1653)"><path d="M500.0,449.7 C462.3,446.8 442.0,481.6 447.8,513.5 L459.4,542.5 C476.8,536.7 491.3,551.2 500.0,551.2 C508.7,551.2 523.2,536.7 540.6,542.5 L552.2,513.5 C558.0,481.6 537.7,446.8 500.0,449.7 Z" fill="#ff2040" fill-opacity=".92" stroke="#0d1520" stroke-width="1.3" filter="url(#skr1x1653)"/><path d="M483.8,519.3 Q500.0,533.8 516.2,519.3" stroke="#0d1520" stroke-width="1" fill="none" opacity=".58"/><ellipse cx="481.4" cy="497.8" rx="8.7" ry="6.4" fill="#0d1520" opacity=".95"/><ellipse cx="518.6" cy="497.8" rx="8.7" ry="6.4" fill="#0d1520" opacity=".95"/><ellipse cx="481.4" cy="497.8" rx="2.3" ry="5.8" fill="#ff2040"/><ellipse cx="518.6" cy="497.8" rx="2.3" ry="5.8" fill="#ff2040"/><path d="M471.0,467.1 L458.2,426.5 L481.4,463.0" fill="#ff2040" stroke="#0d1520" stroke-width=".9"/><path d="M529.0,467.1 L541.8,426.5 L518.6,463.0" fill="#ff2040" stroke="#0d1520" stroke-width=".9"/><path d="M476.8,452.6 C488.4,449.1 511.6,449.1 523.2,452.6" fill="rgba(255,255,255,.18)"/></g><g><line x1="100.46548930829388" y1="791.44650125904" x2="84.86828417139125" y2="110.0471344628371" stroke="url(#chromer1x1653)" stroke-width="28.0" stroke-linecap="round" filter="url(#wmr1x1653)"/><line x1="98.20804868232456" y1="772.9399831846356" x2="86.97422630362209" y2="131.2162465760484" stroke="rgba(255,255,255,.42)" stroke-width="5.0" stroke-linecap="round"/><polygon points="74.4,151.7 141.7,149.8 82.7,-7.9" fill="url(#blader1x1653)" stroke="#ff2040" stroke-width="1.8" filter="url(#wmr1x1653)"/><line x1="140.2" y1="151.4" x2="84.2" y2="-8.6" stroke="rgba(255,255,255,.72)" stroke-width="1.6"/><rect x="83.65734468469392" y="423.1474568564445" width="40.0" height="20.0" fill="url(#bevelr1x1653)" stroke="#ff2040" stroke-width="1" filter="url(#wmr1x1653)"/><rect x="84.84202880825845" y="509.84279142599553" width="40.0" height="20.0" fill="url(#bevelr1x1653)" stroke="#ff2040" stroke-width="1" filter="url(#wmr1x1653)"/><rect x="84.24635675674301" y="600.9537337900139" width="40.0" height="20.0" fill="url(#bevelr1x1653)" stroke="#ff2040" stroke-width="1" filter="url(#wmr1x1653)"/><rect x="84.81663988692682" y="690.9417509491556" width="40.0" height="20.0" fill="url(#bevelr1x1653)" stroke="#ff2040" stroke-width="1" filter="url(#wmr1x1653)"/><ellipse cx="103.42987147079778" cy="789.7920591507107" rx="22.0" ry="15.0" fill="url(#bevelr1x1653)" stroke="#ff2040" stroke-width="1" filter="url(#wmr1x1653)"/></g><rect x="451.35187885388734" y="556.7102691777051" width="100.0"  height="56.0" fill="#cc0020" stroke="#ff2040" stroke-width="2.2" filter="url(#skr1x1653)"/><rect x="423.467927472759" y="575.5108000104316" width="152.0" height="26.0" fill="url(#bevelr1x1653)" fill-opacity=".65" stroke="#ff2040" stroke-width="1.2" filter="url(#skr1x1653)"/><polygon points="306.5,381.2 349.6,295.0 499.3,279.5 649.3,296.0 692.4,382.1 667.6,505.1 501.7,564.6 332.2,505.1" fill="url(#suitr1x1653)" stroke="#ff2040" stroke-width="2.8" filter="url(#skr1x1653) url(#metalr1x1653)"/><polygon points="306.4,382.0 351.3,294.9 499.8,277.2 649.1,294.6 692.9,382.0 670.6,504.0 498.4,563.3 331.2,502.8" fill="url(#carbonr1x1653)"/><polygon points="381.6,301.0 501.6,286.1 618.2,304.5 607.4,380.0 393.0,379.7" fill="url(#suitHir1x1653)"/><polygon points="382.1,380.2 366.4,426.7 433.8,503.4 500.4,529.0 566.1,501.8 633.9,424.0 618.6,379.0" fill="#0d1520" fill-opacity=".88" stroke="#ff2040" stroke-width="1.8" filter="url(#skr1x1653)"/><polygon points="381.5,410.7 477.7,410.2 486.0,438.7 388.7,441.2" fill="#ff2040" filter="url(#glowr1x1653)"/><polygon points="523.5,410.7 618.6,412.4 611.5,438.7 514.8,439.0" fill="#ff2040" filter="url(#glowr1x1653)"/><ellipse cx="430.9" cy="425.7" rx="38.4"  ry="8.2" fill="#ffffff" opacity=".88"/><ellipse cx="569.1" cy="425.7" rx="38.4"  ry="8.2" fill="#ffffff" opacity=".88"/><line x1="484.8820371972024" y1="414.9673481287434" x2="514.8165701465123" y2="414.1081636997871" stroke="#ff2040" stroke-opacity=".52" stroke-width="2"/><line x1="484.2780091300234" y1="437.24182094587013" x2="515.8953515260853" y2="437.20135474260894" stroke="#ff2040" stroke-opacity=".52" stroke-width="2"/><line x1="499.7700025827624" y1="453.0874625591561" x2="500.79686020538213" y2="482.98318302985285" stroke="#ff2040" stroke-opacity=".58" stroke-width="2.2" filter="url(#skr1x1653)"/><line x1="452.2526605767943" y1="492.3200334659777" x2="453.6510267891735" y2="521.5675683062524" stroke="#ff2040" stroke-opacity=".52" stroke-width="1.5" filter="url(#skr1x1653)"/><line x1="477.88680249325927" y1="492.0064278093166" x2="478.5548848582804" y2="518.5823359651491" stroke="#ff2040" stroke-opacity=".52" stroke-width="1.5" filter="url(#skr1x1653)"/><line x1="500.4654327710159" y1="490.787337078806" x2="499.165900831949" y2="521.4601464604959" stroke="#ff2040" stroke-opacity=".52" stroke-width="1.5" filter="url(#skr1x1653)"/><line x1="521.7934368752501" y1="491.85524420049035" x2="523.3096218217722" y2="519.0958096326328" stroke="#ff2040" stroke-opacity=".52" stroke-width="1.5" filter="url(#skr1x1653)"/><line x1="545.6692643674277" y1="490.49023484969507" x2="545.8149081316964" y2="520.2850349556654" stroke="#ff2040" stroke-opacity=".52" stroke-width="1.5" filter="url(#skr1x1653)"/><polygon points="431.4,502.2 566.9,504.0 555.0,558.1 445.0,556.3" fill="#cc0020" fill-opacity=".72" stroke="#ff2040" stroke-width="1.3" filter="url(#skr1x1653)"/><path d="M471.6718428914249 312.476165085379 C304.1989402836561 147.99013732783493 420.1280282186717 242.30043102912603 501.36300627961754 310.7228336606174" fill="#ff2040" fill-opacity=".92" stroke="#ff2040" stroke-width="2.2" filter="url(#skr1x1653)"/><path d="M474.5057108830474 311.1781827984378 C303.38362118121233 148.00843077786266 418.128924292922 241.04543050043284 498.28833594126627 311.3700641052797" fill="url(#suitHir1x1653)" opacity=".28"/><path d="M525.5720571815223 310.1675725840032 C694.5990994149447 148.6439358527772 580.9863736057281 241.5070406064391 500.40395713718607 310.72097083795813" fill="#ff2040" fill-opacity=".92" stroke="#ff2040" stroke-width="2.2" filter="url(#skr1x1653)"/><path d="M528.660778373219 309.9241871744394 C695.5121814661287 146.94140546256673 582.1222741014883 242.51299851257352 498.56256045885385 312.6838260273449" fill="url(#suitHir1x1653)" opacity=".28"/><text x="30.0"  y="975.0" font-family="monospace" font-weight="bold" font-size="22.0" fill="rgba(255,255,255,.22)">#0001</text><text x="500.0"   y="975.0" text-anchor="middle" font-family="monospace" font-weight="bold" font-size="22.0" fill="#ff2040" fill-opacity=".48">CRIMSON RANGER</text><text x="970.0" y="975.0" text-anchor="end"    font-family="monospace" font-weight="bold" font-size="22.0" fill="#ff2040" fill-opacity=".32">MECH RANGERS</text></svg>