<svg xmlns="http://www.w3.org/2000/svg" viewBox="0 0 1000 1000" width="1000" height="1000" shape-rendering="geometricPrecision"><defs>

  <!-- Scene gradients -->
  <radialGradient id="bgr1x1697" cx="50%" cy="42%" r="72%">
    <stop offset="0%"   stop-color="#0e000e"/>
    <stop offset="100%" stop-color="#1e0600"/>
  </radialGradient>
  <linearGradient id="suitr1x1697" x1="8%" y1="0%" x2="92%" y2="100%">
    <stop offset="0%"   stop-color="#ff44aa" stop-opacity=".95"/>
    <stop offset="45%"  stop-color="#880050"/>
    <stop offset="100%" stop-color="#1e0600"/>
  </linearGradient>
  <linearGradient id="suitHir1x1697" x1="0%" y1="0%" x2="0%" y2="100%">
    <stop offset="0%"   stop-color="rgba(255,255,255,.28)"/>
    <stop offset="60%"  stop-color="rgba(255,255,255,.04)"/>
    <stop offset="100%" stop-color="rgba(255,255,255,0)"/>
  </linearGradient>
  <!-- Bevel: bright top, dark bottom for armour panels -->
  <linearGradient id="bevelr1x1697" x1="0%" y1="0%" x2="0%" y2="100%">
    <stop offset="0%"   stop-color="rgba(255,255,255,.55)"/>
    <stop offset="30%"  stop-color="#ff44aa"/>
    <stop offset="70%"  stop-color="#880050"/>
    <stop offset="100%" stop-color="rgba(0,0,0,.5)"/>
  </linearGradient>

  <!-- Weapon: cold steel blade sweep -->
  <linearGradient id="blader1x1697" x1="0%" y1="0%" x2="100%" y2="0%">
    <stop offset="0%"   stop-color="#0e0e20"/>
    <stop offset="16%"  stop-color="#3e3e58"/>
    <stop offset="34%"  stop-color="#c8c8e0"/>
    <stop offset="50%"  stop-color="#f5f5ff"/>
    <stop offset="66%"  stop-color="#b8b8d0"/>
    <stop offset="84%"  stop-color="#2e2e48"/>
    <stop offset="100%" stop-color="#08080e"/>
  </linearGradient>
  <!-- Blade tip brightening -->
  <linearGradient id="bladeTipr1x1697" x1="0%" y1="100%" x2="0%" y2="0%">
    <stop offset="0%"   stop-color="rgba(255,255,255,0)"/>
    <stop offset="55%"  stop-color="rgba(255,255,255,.1)"/>
    <stop offset="100%" stop-color="rgba(255,255,255,.55)"/>
  </linearGradient>
  <!-- Gunmetal anodised — blaster body -->
  <linearGradient id="gunmetalr1x1697" x1="0%" y1="0%" x2="0%" y2="100%">
    <stop offset="0%"   stop-color="#46465e"/>
    <stop offset="18%"  stop-color="#828296"/>
    <stop offset="42%"  stop-color="#26263a"/>
    <stop offset="72%"  stop-color="#16162a"/>
    <stop offset="100%" stop-color="#0c0c18"/>
  </linearGradient>
  <!-- Brushed steel tube — barrel/rod -->
  <linearGradient id="barrelr1x1697" x1="0%" y1="0%" x2="100%" y2="0%">
    <stop offset="0%"   stop-color="#0a0a14"/>
    <stop offset="24%"  stop-color="#585875"/>
    <stop offset="50%"  stop-color="#a8a8c8"/>
    <stop offset="76%"  stop-color="#383852"/>
    <stop offset="100%" stop-color="#0a0a14"/>
  </linearGradient>
  <!-- Chrome rod — lance shaft -->
  <linearGradient id="chromer1x1697" x1="0%" y1="0%" x2="100%" y2="0%">
    <stop offset="0%"   stop-color="#0c0c18"/>
    <stop offset="20%"  stop-color="#686888"/>
    <stop offset="44%"  stop-color="#e0e0f0"/>
    <stop offset="56%"  stop-color="#c0c0d8"/>
    <stop offset="80%"  stop-color="#28283e"/>
    <stop offset="100%" stop-color="#0c0c18"/>
  </linearGradient>
  <!-- Titanium plate — shield face -->
  <linearGradient id="titaniumr1x1697" x1="0%" y1="0%" x2="100%" y2="100%">
    <stop offset="0%"   stop-color="#585878"/>
    <stop offset="28%"  stop-color="#ff44aa" stop-opacity=".88"/>
    <stop offset="55%"  stop-color="#880050"/>
    <stop offset="80%"  stop-color="#181828"/>
    <stop offset="100%" stop-color="#0a0a18"/>
  </linearGradient>
  <!-- Artillery black-chrome — cannon body -->
  <linearGradient id="artilleryr1x1697" x1="0%" y1="0%" x2="0%" y2="100%">
    <stop offset="0%"   stop-color="#383850"/>
    <stop offset="14%"  stop-color="#78789a"/>
    <stop offset="36%"  stop-color="#202034"/>
    <stop offset="65%"  stop-color="#14141e"/>
    <stop offset="100%" stop-color="#0a0a12"/>
  </linearGradient>
  <!-- Energy orb — staff -->
  <radialGradient id="orbr1x1697" cx="35%" cy="35%" r="65%">
    <stop offset="0%"   stop-color="rgba(255,255,255,.9)"/>
    <stop offset="30%"  stop-color="#ff44aa"/>
    <stop offset="68%"  stop-color="#880050"/>
    <stop offset="100%" stop-color="rgba(0,0,0,.6)"/>
  </radialGradient>
  <!-- Knuckle plate chrome -->
  <linearGradient id="knuckler1x1697" x1="0%" y1="0%" x2="0%" y2="100%">
    <stop offset="0%"   stop-color="#888aaa"/>
    <stop offset="32%"  stop-color="#ff44aa" stop-opacity=".8"/>
    <stop offset="62%"  stop-color="#1a1a2c"/>
    <stop offset="100%" stop-color="#0a0a14"/>
  </linearGradient>

  <!-- Carbon fibre weave texture overlay -->
  <pattern id="carbonr1x1697" width="6" height="6" patternUnits="userSpaceOnUse">
    <rect width="6" height="6" fill="rgba(0,0,0,.08)"/>
    <rect x="0" y="0" width="3" height="3" fill="rgba(255,255,255,.022)"/>
    <rect x="3" y="3" width="3" height="3" fill="rgba(255,255,255,.022)"/>
    <line x1="0" y1="0" x2="3" y2="3" stroke="rgba(255,255,255,.038)" stroke-width=".5"/>
    <line x1="3" y1="0" x2="6" y2="3" stroke="rgba(0,0,0,.055)"       stroke-width=".5"/>
    <line x1="0" y1="3" x2="3" y2="6" stroke="rgba(0,0,0,.055)"       stroke-width=".5"/>
    <line x1="3" y1="3" x2="6" y2="6" stroke="rgba(255,255,255,.038)" stroke-width=".5"/>
  </pattern>

  <!-- Specular metal sheen on armour panels -->
  <filter id="metalr1x1697" x="-5%" y="-5%" width="110%" height="110%">
    <feSpecularLighting surfaceScale="4" specularConstant="1.8"
        specularExponent="42" lighting-color="#ffffff" result="spec">
      <feDistantLight elevation="52" azimuth="38"/>
    </feSpecularLighting>
    <feComposite in="spec" in2="SourceGraphic" operator="in" result="sm"/>
    <feComposite in="SourceGraphic" in2="sm" operator="arithmetic" k1="0" k2="1" k3="0.55" k4="0"/>
  </filter>

  <!-- Sharper specular for weapons — heavier glare -->
  <filter id="wmr1x1697" x="-8%" y="-8%" width="116%" height="116%">
    <feSpecularLighting surfaceScale="6" specularConstant="2.4"
        specularExponent="65" lighting-color="#ffffff" result="spec">
      <feDistantLight elevation="44" azimuth="28"/>
    </feSpecularLighting>
    <feComposite in="spec" in2="SourceGraphic" operator="in" result="sm"/>
    <feComposite in="SourceGraphic" in2="sm" operator="arithmetic" k1="0" k2="1" k3="0.78" k4="0"/>
  </filter>

  <!-- Sketch wobble -->
  <filter id="skr1x1697" x="-8%" y="-8%" width="116%" height="116%">
    <feTurbulence type="fractalNoise" baseFrequency="0.038"
        numOctaves="3" seed="27" result="noise"/>
    <feDisplacementMap in="SourceGraphic" in2="noise" scale="2.6"
        xChannelSelector="R" yChannelSelector="G" result="w"/>
    <feComposite in="w" in2="SourceGraphic" operator="atop"/>
  </filter>

  <!-- Glow: sharp accent -->
  <filter id="glowr1x1697" x="-20%" y="-20%" width="140%" height="140%">
    <feGaussianBlur stdDeviation="3.5" result="b"/>
    <feColorMatrix in="b" type="matrix"
        values="0 0 0 0 1  0 0 0 0 1  0 0 0 0 1  0 0 0 1.8 0" result="boost"/>
    <feMerge><feMergeNode in="boost"/><feMergeNode in="SourceGraphic"/></feMerge>
  </filter>

  <!-- Bloom: wide soft -->
  <filter id="bloomr1x1697" x="-40%" y="-40%" width="180%" height="180%">
    <feGaussianBlur stdDeviation="11" result="b"/>
    <feMerge><feMergeNode in="b"/><feMergeNode in="SourceGraphic"/></feMerge>
  </filter>

  </defs><rect width="1000" height="1000" fill="url(#bgr1x1697)"/><ellipse cx="500.0" cy="1000" rx="850.0" ry="350.0" fill="#ff4500" fill-opacity=".11" filter="url(#bloomr1x1697)"/><ellipse cx="500.0" cy="892.0" rx="350.0" ry="65.0" fill="rgba(0,0,0,.7)" filter="url(#bloomr1x1697)"/><ellipse cx="500.0" cy="889.0" rx="220.0" ry="34.0" fill="rgba(0,0,0,.45)"/><ellipse cx="500.0" cy="520.0" rx="320.0" ry="480.0" fill="#00e5ff" fill-opacity=".042" filter="url(#bloomr1x1697)"/><circle cx="565.3" cy="735.6" r="4.1" fill="#00e5ff" fill-opacity="0.76" filter="url(#glowr1x1697)"/><circle cx="273.7" cy="614.1" r="3.6" fill="#00e5ff" fill-opacity="0.89" filter="url(#glowr1x1697)"/><circle cx="598.0" cy="601.0" r="2.8" fill="#00e5ff" fill-opacity="0.62" filter="url(#glowr1x1697)"/><circle cx="676.0" cy="459.1" r="3.2" fill="#00e5ff" fill-opacity="0.44" filter="url(#glowr1x1697)"/><circle cx="356.7" cy="761.0" r="2.8" fill="#00e5ff" fill-opacity="0.52" filter="url(#glowr1x1697)"/><circle cx="378.7" cy="639.1" r="4.1" fill="#00e5ff" fill-opacity="0.47" filter="url(#glowr1x1697)"/><circle cx="490.1" cy="230.3" r="3.8" fill="#00e5ff" fill-opacity="0.85" filter="url(#glowr1x1697)"/><circle cx="493.3" cy="694.0" r="1.2" fill="#00e5ff" fill-opacity="0.82" filter="url(#glowr1x1697)"/><circle cx="720.0" cy="374.6" r="3.2" fill="#00e5ff" fill-opacity="0.77" filter="url(#glowr1x1697)"/><circle cx="704.2" cy="320.3" r="0.9" fill="#00e5ff" fill-opacity="0.40" filter="url(#glowr1x1697)"/><circle cx="636.4" cy="514.3" r="3.0" fill="#00e5ff" fill-opacity="0.53" filter="url(#glowr1x1697)"/><circle cx="374.3" cy="450.3" r="1.7" fill="#00e5ff" fill-opacity="0.66" filter="url(#glowr1x1697)"/><circle cx="674.3" cy="623.7" r="0.8" fill="#00e5ff" fill-opacity="0.53" filter="url(#glowr1x1697)"/><circle cx="312.2" cy="423.8" r="0.8" fill="#00e5ff" fill-opacity="0.59" filter="url(#glowr1x1697)"/><path d="M552.0,376.3 Q518.5,497.1 609.1,602.2" stroke="#00e5ff" stroke-opacity="0.40" stroke-width="0.8" fill="none" filter="url(#glowr1x1697)"/><path d="M344.5,189.9 Q371.9,516.8 655.0,882.8" stroke="#00e5ff" stroke-opacity="0.40" stroke-width="2.0" fill="none" filter="url(#glowr1x1697)"/><path d="M610.0,217.4 Q576.3,429.0 446.0,633.3" stroke="#00e5ff" stroke-opacity="0.44" stroke-width="2.8" fill="none" filter="url(#glowr1x1697)"/><path d="M462.1,207.9 Q484.7,542.4 538.1,829.6" stroke="#00e5ff" stroke-opacity="0.78" stroke-width="2.0" fill="none" filter="url(#glowr1x1697)"/><path d="M670.0,262.7 Q639.0,432.6 442.4,601.1" stroke="#00e5ff" stroke-opacity="0.41" stroke-width="2.2" fill="none" filter="url(#glowr1x1697)"/><polygon points="398.8,661.4 490.8,660.8 480.3,878.8 386.6,878.8" fill="url(#suitr1x1697)" stroke="#ff44aa" stroke-width="2.2" filter="url(#skr1x1697) url(#metalr1x1697)"/><polygon points="399.9,661.3 489.5,664.1 480.7,878.4 386.3,879.0" fill="url(#carbonr1x1697)"/><polygon points="393.7,724.0 493.9,722.2 484.0,788.8 384.4,789.4" fill="url(#bevelr1x1697)" fill-opacity=".5" stroke="#ff44aa" stroke-width="1.4" filter="url(#skr1x1697)"/><polygon points="509.0,662.9 601.7,660.8 613.8,876.3 519.7,878.1" fill="url(#suitr1x1697)" stroke="#ff44aa" stroke-width="2.2" filter="url(#skr1x1697) url(#metalr1x1697)"/><polygon points="511.1,663.1 601.7,663.5 613.3,879.0 517.6,877.3" fill="url(#carbonr1x1697)"/><polygon points="508.5,725.1 608.5,724.8 616.0,786.6 516.1,788.9" fill="url(#bevelr1x1697)" fill-opacity=".5" stroke="#ff44aa" stroke-width="1.4" filter="url(#skr1x1697)"/><rect x="391.6" y="837.9" width="100.3" height="24.7" fill="url(#bevelr1x1697)" stroke="#ff44aa" stroke-width="1" filter="url(#skr1x1697)"/><rect x="506.1"  y="837.7" width="100.3" height="24.7" fill="url(#bevelr1x1697)" stroke="#ff44aa" stroke-width="1" filter="url(#skr1x1697)"/><polygon points="369.1,878.2 495.3,876.3 502.6,921.5 361.5,923.0" fill="#880050" stroke="#ff44aa" stroke-width="2" filter="url(#skr1x1697)"/><polygon points="505.3,876.0 630.1,877.5 636.2,922.2 495.6,921.3" fill="#880050" stroke="#ff44aa" stroke-width="2" filter="url(#skr1x1697)"/><polygon points="302.4,633.2 695.2,631.8 639.3,681.4 361.2,682.5" fill="#ff44aa" fill-opacity=".52" stroke="#ff44aa" stroke-width="2" filter="url(#skr1x1697)"/><rect x="463.8" y="638.8" width="72.0" height="42.0" fill="url(#bevelr1x1697)" stroke="#ff44aa" stroke-width="1.4" filter="url(#glowr1x1697)"/><rect x="487.7" y="640.0" width="28.0" height="22.0" rx="1" fill="rgba(255,255,255,.48)"/><polygon points="152.6,467.5 234.5,465.6 256.3,735.8 128.1,733.9" fill="url(#suitr1x1697)" stroke="#ff44aa" stroke-width="2.2" filter="url(#skr1x1697) url(#metalr1x1697)"/><polygon points="174.9,432.0 254.0,433.1 242.1,508.9 160.1,508.8" fill="url(#bevelr1x1697)" fill-opacity=".72" stroke="#ff44aa" stroke-width="2.2" filter="url(#skr1x1697)"/><polygon points="161.6,621.8 243.7,620.3 240.9,661.7 165.5,661.6" fill="#ff44aa" fill-opacity=".42" stroke="#ff44aa" stroke-width="1" filter="url(#skr1x1697)"/><polygon points="766.4,468.0 845.7,467.0 872.7,736.3 743.2,734.1" fill="url(#suitr1x1697)" stroke="#ff44aa" stroke-width="2.2" filter="url(#skr1x1697) url(#metalr1x1697)"/><polygon points="746.2,433.0 827.3,431.6 840.7,509.5 756.9,509.0" fill="url(#bevelr1x1697)" fill-opacity=".72" stroke="#ff44aa" stroke-width="2.2" filter="url(#skr1x1697)"/><polygon points="757.5,621.6 838.2,621.8 835.4,659.3 761.1,662.3" fill="#ff44aa" fill-opacity=".42" stroke="#ff44aa" stroke-width="1" filter="url(#skr1x1697)"/><rect x="118.9"  y="701.5" width="135.3" height="85.0" rx="4" fill="url(#bevelr1x1697)" stroke="#ff44aa" stroke-width="1.8" filter="url(#skr1x1697)"/><rect x="748.8"   y="701.1" width="135.3" height="85.0" rx="4" fill="url(#bevelr1x1697)" stroke="#ff44aa" stroke-width="1.8" filter="url(#skr1x1697)"/><line x1="150.1" y1="703.2" x2="148.6" y2="785.1" stroke="#ff44aa" stroke-opacity=".38" stroke-width="1"/><line x1="777.9" y1="702.9" x2="779.1" y2="785.5" stroke="#ff44aa" stroke-opacity=".38" stroke-width="1"/><line x1="184.1" y1="700.4" x2="183.1" y2="784.8" stroke="#ff44aa" stroke-opacity=".38" stroke-width="1"/><line x1="811.2" y1="702.0" x2="810.0" y2="782.3" stroke="#ff44aa" stroke-opacity=".38" stroke-width="1"/><line x1="216.2" y1="701.7" x2="214.7" y2="782.3" stroke="#ff44aa" stroke-opacity=".38" stroke-width="1"/><line x1="842.5" y1="702.8" x2="844.6" y2="782.1" stroke="#ff44aa" stroke-opacity=".38" stroke-width="1"/><polygon points="236.2,418.8 764.9,416.5 723.3,663.8 277.8,660.9" fill="url(#suitr1x1697)" stroke="#ff44aa" stroke-width="2.6" filter="url(#skr1x1697) url(#metalr1x1697)"/><polygon points="236.5,417.4 763.8,416.3 721.3,661.1 277.3,664.3" fill="url(#carbonr1x1697)"/><polygon points="366.9,418.2 632.7,419.2 612.5,516.4 388.7,514.4" fill="url(#suitHir1x1697)"/><line x1="361.3" y1="469.7" x2="636.8" y2="472.0" stroke="#ff44aa" stroke-opacity=".52" stroke-width="1.3" filter="url(#skr1x1697)"/><line x1="398.0" y1="551.5" x2="600.7" y2="548.5" stroke="#ff44aa" stroke-opacity=".52" stroke-width="1.3" filter="url(#skr1x1697)"/><line x1="266.8" y1="491.4" x2="321.4" y2="489.3" stroke="#ff44aa" stroke-opacity=".62" stroke-width="1.8"/><line x1="679.9" y1="490.3" x2="735.0" y2="490.0" stroke="#ff44aa" stroke-opacity=".62" stroke-width="1.8"/><line x1="267.8" y1="523.8" x2="320.3" y2="523.1" stroke="#ff44aa" stroke-opacity=".62" stroke-width="1.8"/><line x1="681.4" y1="523.1" x2="731.8" y2="524.2" stroke="#ff44aa" stroke-opacity=".62" stroke-width="1.8"/><line x1="268.3" y1="555.6" x2="320.1" y2="556.0" stroke="#ff44aa" stroke-opacity=".62" stroke-width="1.8"/><line x1="681.0" y1="554.9" x2="733.8" y2="553.6" stroke="#ff44aa" stroke-opacity=".62" stroke-width="1.8"/><line x1="265.2" y1="585.3" x2="319.8" y2="588.0" stroke="#ff44aa" stroke-opacity=".62" stroke-width="1.8"/><line x1="681.0" y1="584.8" x2="734.8" y2="586.8" stroke="#ff44aa" stroke-opacity=".62" stroke-width="1.8"/><g filter="url(#glowr1x1697)"><ellipse cx="500.1" cy="510.3" rx="42.9" ry="23.2" fill="#1e0600" stroke="#ff44aa" stroke-width="1.6" filter="url(#skr1x1697)"/><circle cx="499.3" cy="509.9" r="15.1" fill="#ff44aa"/><circle cx="497.0" cy="508.4" r="5.8" fill="#1e0600"/><ellipse cx="495.4" cy="506.5" rx="3.5" ry="2.3" fill="rgba(255,255,255,.7)"/></g><g><polygon points="827.2,293.9 969.6,293.9 967.1,592.7 898.4,725.3 826.1,592.9" fill="url(#titaniumr1x1697)" stroke="#ff44aa" stroke-width="2.6" filter="url(#wmr1x1697)"/><polygon points="826.7,295.0 969.0,293.1 969.6,592.5 897.3,727.0 829.0,591.0" fill="url(#carbonr1x1697)"/><polygon points="858.7,361.2 934.5,362.7 936.6,542.4 896.7,631.5 861.5,540.2" fill="#ff44aa" fill-opacity=".28" stroke="#ff44aa" stroke-width="1.5"/><line x1="846.4987886482478" y1="432.9673168843612" x2="948.2357845588215" y2="432.020402583573" stroke="#ff44aa" stroke-opacity=".65" stroke-width="1.3"/><line x1="898.6704211772047" y1="330.01477862177416" x2="896.6203072149866" y2="590.1939300942234" stroke="#ff44aa" stroke-opacity=".4" stroke-width="1"/><line x1="828.9898333849013" y1="296.69896369306366" x2="966.4708196907864" y2="296.9051625167951" stroke="rgba(255,255,255,.5)" stroke-width="2"/><circle cx="898.174796091076" cy="432.0427645591087" r="18.0" fill="url(#bevelr1x1697)" stroke="#ff44aa" stroke-width="1.2" filter="url(#wmr1x1697)"/></g><rect x="448.4493067279458" y="557.336047380045" width="100.0"  height="56.0" fill="#880050" stroke="#ff44aa" stroke-width="2.2" filter="url(#skr1x1697)"/><rect x="423.0869599748403" y="577.0755819600075" width="152.0" height="26.0" fill="url(#bevelr1x1697)" fill-opacity=".65" stroke="#ff44aa" stroke-width="1.2" filter="url(#skr1x1697)"/><polygon points="306.4,381.1 348.8,293.1 499.5,278.3 651.0,296.2 692.7,380.9 667.7,503.0 500.0,565.3 332.4,501.9" fill="url(#suitr1x1697)" stroke="#ff44aa" stroke-width="2.8" filter="url(#skr1x1697) url(#metalr1x1697)"/><polygon points="307.2,380.1 351.8,294.0 500.4,277.2 648.5,295.9 690.7,380.4 669.6,503.3 499.9,564.6 330.1,502.3" fill="url(#carbonr1x1697)"/><polygon points="382.2,301.7 499.3,287.8 620.6,303.0 607.8,379.0 393.6,381.6" fill="url(#suitHir1x1697)"/><polygon points="382.1,380.1 365.1,425.2 434.6,504.6 501.4,527.6 567.3,502.4 635.9,425.0 619.5,380.5" fill="#1e0600" fill-opacity=".88" stroke="#ff44aa" stroke-width="1.8" filter="url(#skr1x1697)"/><polygon points="379.7,413.0 478.4,410.2 483.7,439.6 390.2,439.7" fill="#ff44aa" filter="url(#glowr1x1697)"/><polygon points="524.7,412.4 619.6,409.6 611.5,438.7 515.4,441.1" fill="#ff44aa" filter="url(#glowr1x1697)"/><ellipse cx="430.9" cy="425.7" rx="38.4"  ry="8.2" fill="#ffffff" opacity=".88"/><ellipse cx="569.1" cy="425.7" rx="38.4"  ry="8.2" fill="#ffffff" opacity=".88"/><line x1="483.34862793419506" y1="414.96894409507513" x2="514.0138176006637" y2="413.3187174201943" stroke="#ff44aa" stroke-opacity=".52" stroke-width="2"/><line x1="483.2146925545856" y1="438.60824425751343" x2="514.1559801191464" y2="438.8360570624471" stroke="#ff44aa" stroke-opacity=".52" stroke-width="2"/><line x1="499.9264334809035" y1="455.1669002022594" x2="500.2231060444377" y2="484.2637946271338" stroke="#ff44aa" stroke-opacity=".58" stroke-width="2.2" filter="url(#skr1x1697)"/><line x1="452.9816029047407" y1="490.2833890268579" x2="454.8455790128373" y2="519.3866998346523" stroke="#ff44aa" stroke-opacity=".52" stroke-width="1.5" filter="url(#skr1x1697)"/><line x1="476.60209439922124" y1="490.3431308824569" x2="475.9598287779279" y2="521.5179631614126" stroke="#ff44aa" stroke-opacity=".52" stroke-width="1.5" filter="url(#skr1x1697)"/><line x1="498.48301579877733" y1="489.5054112183861" x2="499.38259827522563" y2="521.5159458988346" stroke="#ff44aa" stroke-opacity=".52" stroke-width="1.5" filter="url(#skr1x1697)"/><line x1="523.9953599692881" y1="491.17612630473445" x2="522.2179840050264" y2="518.6393195702694" stroke="#ff44aa" stroke-opacity=".52" stroke-width="1.5" filter="url(#skr1x1697)"/><line x1="544.4612892332674" y1="489.67629651827735" x2="545.0218623762206" y2="519.3218412077055" stroke="#ff44aa" stroke-opacity=".52" stroke-width="1.5" filter="url(#skr1x1697)"/><polygon points="432.8,503.4 567.2,504.6 553.4,556.2 445.8,557.2" fill="#880050" fill-opacity=".72" stroke="#ff44aa" stroke-width="1.3" filter="url(#skr1x1697)"/><text x="30.0"  y="975.0" font-family="monospace" font-weight="bold" font-size="22.0" fill="rgba(255,255,255,.22)">#0001</text><text x="500.0"   y="975.0" text-anchor="middle" font-family="monospace" font-weight="bold" font-size="22.0" fill="#ff44aa" fill-opacity=".48">SAKURA RANGER</text><text x="970.0" y="975.0" text-anchor="end"    font-family="monospace" font-weight="bold" font-size="22.0" fill="#ff44aa" fill-opacity=".32">MECH RANGERS</text></svg>