<svg xmlns="http://www.w3.org/2000/svg" viewBox="0 0 1000 1000" width="1000" height="1000" shape-rendering="geometricPrecision"><defs>

  <!-- Scene gradients -->
  <radialGradient id="bgr1x1730" cx="50%" cy="42%" r="72%">
    <stop offset="0%"   stop-color="#001422"/>
    <stop offset="100%" stop-color="#000a14"/>
  </radialGradient>
  <linearGradient id="suitr1x1730" x1="8%" y1="0%" x2="92%" y2="100%">
    <stop offset="0%"   stop-color="#ccccff" stop-opacity=".95"/>
    <stop offset="45%"  stop-color="#242438"/>
    <stop offset="100%" stop-color="#000a14"/>
  </linearGradient>
  <linearGradient id="suitHir1x1730" x1="0%" y1="0%" x2="0%" y2="100%">
    <stop offset="0%"   stop-color="rgba(255,255,255,.28)"/>
    <stop offset="60%"  stop-color="rgba(255,255,255,.04)"/>
    <stop offset="100%" stop-color="rgba(255,255,255,0)"/>
  </linearGradient>
  <!-- Bevel: bright top, dark bottom for armour panels -->
  <linearGradient id="bevelr1x1730" x1="0%" y1="0%" x2="0%" y2="100%">
    <stop offset="0%"   stop-color="rgba(255,255,255,.55)"/>
    <stop offset="30%"  stop-color="#ccccff"/>
    <stop offset="70%"  stop-color="#242438"/>
    <stop offset="100%" stop-color="rgba(0,0,0,.5)"/>
  </linearGradient>

  <!-- Weapon: cold steel blade sweep -->
  <linearGradient id="blader1x1730" x1="0%" y1="0%" x2="100%" y2="0%">
    <stop offset="0%"   stop-color="#0e0e20"/>
    <stop offset="16%"  stop-color="#3e3e58"/>
    <stop offset="34%"  stop-color="#c8c8e0"/>
    <stop offset="50%"  stop-color="#f5f5ff"/>
    <stop offset="66%"  stop-color="#b8b8d0"/>
    <stop offset="84%"  stop-color="#2e2e48"/>
    <stop offset="100%" stop-color="#08080e"/>
  </linearGradient>
  <!-- Blade tip brightening -->
  <linearGradient id="bladeTipr1x1730" x1="0%" y1="100%" x2="0%" y2="0%">
    <stop offset="0%"   stop-color="rgba(255,255,255,0)"/>
    <stop offset="55%"  stop-color="rgba(255,255,255,.1)"/>
    <stop offset="100%" stop-color="rgba(255,255,255,.55)"/>
  </linearGradient>
  <!-- Gunmetal anodised — blaster body -->
  <linearGradient id="gunmetalr1x1730" x1="0%" y1="0%" x2="0%" y2="100%">
    <stop offset="0%"   stop-color="#46465e"/>
    <stop offset="18%"  stop-color="#828296"/>
    <stop offset="42%"  stop-color="#26263a"/>
    <stop offset="72%"  stop-color="#16162a"/>
    <stop offset="100%" stop-color="#0c0c18"/>
  </linearGradient>
  <!-- Brushed steel tube — barrel/rod -->
  <linearGradient id="barrelr1x1730" x1="0%" y1="0%" x2="100%" y2="0%">
    <stop offset="0%"   stop-color="#0a0a14"/>
    <stop offset="24%"  stop-color="#585875"/>
    <stop offset="50%"  stop-color="#a8a8c8"/>
    <stop offset="76%"  stop-color="#383852"/>
    <stop offset="100%" stop-color="#0a0a14"/>
  </linearGradient>
  <!-- Chrome rod — lance shaft -->
  <linearGradient id="chromer1x1730" x1="0%" y1="0%" x2="100%" y2="0%">
    <stop offset="0%"   stop-color="#0c0c18"/>
    <stop offset="20%"  stop-color="#686888"/>
    <stop offset="44%"  stop-color="#e0e0f0"/>
    <stop offset="56%"  stop-color="#c0c0d8"/>
    <stop offset="80%"  stop-color="#28283e"/>
    <stop offset="100%" stop-color="#0c0c18"/>
  </linearGradient>
  <!-- Titanium plate — shield face -->
  <linearGradient id="titaniumr1x1730" x1="0%" y1="0%" x2="100%" y2="100%">
    <stop offset="0%"   stop-color="#585878"/>
    <stop offset="28%"  stop-color="#ccccff" stop-opacity=".88"/>
    <stop offset="55%"  stop-color="#242438"/>
    <stop offset="80%"  stop-color="#181828"/>
    <stop offset="100%" stop-color="#0a0a18"/>
  </linearGradient>
  <!-- Artillery black-chrome — cannon body -->
  <linearGradient id="artilleryr1x1730" x1="0%" y1="0%" x2="0%" y2="100%">
    <stop offset="0%"   stop-color="#383850"/>
    <stop offset="14%"  stop-color="#78789a"/>
    <stop offset="36%"  stop-color="#202034"/>
    <stop offset="65%"  stop-color="#14141e"/>
    <stop offset="100%" stop-color="#0a0a12"/>
  </linearGradient>
  <!-- Energy orb — staff -->
  <radialGradient id="orbr1x1730" cx="35%" cy="35%" r="65%">
    <stop offset="0%"   stop-color="rgba(255,255,255,.9)"/>
    <stop offset="30%"  stop-color="#ccccff"/>
    <stop offset="68%"  stop-color="#242438"/>
    <stop offset="100%" stop-color="rgba(0,0,0,.6)"/>
  </radialGradient>
  <!-- Knuckle plate chrome -->
  <linearGradient id="knuckler1x1730" x1="0%" y1="0%" x2="0%" y2="100%">
    <stop offset="0%"   stop-color="#888aaa"/>
    <stop offset="32%"  stop-color="#ccccff" stop-opacity=".8"/>
    <stop offset="62%"  stop-color="#1a1a2c"/>
    <stop offset="100%" stop-color="#0a0a14"/>
  </linearGradient>

  <!-- Carbon fibre weave texture overlay -->
  <pattern id="carbonr1x1730" width="6" height="6" patternUnits="userSpaceOnUse">
    <rect width="6" height="6" fill="rgba(0,0,0,.08)"/>
    <rect x="0" y="0" width="3" height="3" fill="rgba(255,255,255,.022)"/>
    <rect x="3" y="3" width="3" height="3" fill="rgba(255,255,255,.022)"/>
    <line x1="0" y1="0" x2="3" y2="3" stroke="rgba(255,255,255,.038)" stroke-width=".5"/>
    <line x1="3" y1="0" x2="6" y2="3" stroke="rgba(0,0,0,.055)"       stroke-width=".5"/>
    <line x1="0" y1="3" x2="3" y2="6" stroke="rgba(0,0,0,.055)"       stroke-width=".5"/>
    <line x1="3" y1="3" x2="6" y2="6" stroke="rgba(255,255,255,.038)" stroke-width=".5"/>
  </pattern>

  <!-- Specular metal sheen on armour panels -->
  <filter id="metalr1x1730" x="-5%" y="-5%" width="110%" height="110%">
    <feSpecularLighting surfaceScale="4" specularConstant="1.8"
        specularExponent="42" lighting-color="#ffffff" result="spec">
      <feDistantLight elevation="52" azimuth="38"/>
    </feSpecularLighting>
    <feComposite in="spec" in2="SourceGraphic" operator="in" result="sm"/>
    <feComposite in="SourceGraphic" in2="sm" operator="arithmetic" k1="0" k2="1" k3="0.55" k4="0"/>
  </filter>

  <!-- Sharper specular for weapons — heavier glare -->
  <filter id="wmr1x1730" x="-8%" y="-8%" width="116%" height="116%">
    <feSpecularLighting surfaceScale="6" specularConstant="2.4"
        specularExponent="65" lighting-color="#ffffff" result="spec">
      <feDistantLight elevation="44" azimuth="28"/>
    </feSpecularLighting>
    <feComposite in="spec" in2="SourceGraphic" operator="in" result="sm"/>
    <feComposite in="SourceGraphic" in2="sm" operator="arithmetic" k1="0" k2="1" k3="0.78" k4="0"/>
  </filter>

  <!-- Sketch wobble -->
  <filter id="skr1x1730" x="-8%" y="-8%" width="116%" height="116%">
    <feTurbulence type="fractalNoise" baseFrequency="0.038"
        numOctaves="3" seed="60" result="noise"/>
    <feDisplacementMap in="SourceGraphic" in2="noise" scale="2.6"
        xChannelSelector="R" yChannelSelector="G" result="w"/>
    <feComposite in="w" in2="SourceGraphic" operator="atop"/>
  </filter>

  <!-- Glow: sharp accent -->
  <filter id="glowr1x1730" x="-20%" y="-20%" width="140%" height="140%">
    <feGaussianBlur stdDeviation="3.5" result="b"/>
    <feColorMatrix in="b" type="matrix"
        values="0 0 0 0 1  0 0 0 0 1  0 0 0 0 1  0 0 0 1.8 0" result="boost"/>
    <feMerge><feMergeNode in="boost"/><feMergeNode in="SourceGraphic"/></feMerge>
  </filter>

  <!-- Bloom: wide soft -->
  <filter id="bloomr1x1730" x="-40%" y="-40%" width="180%" height="180%">
    <feGaussianBlur stdDeviation="11" result="b"/>
    <feMerge><feMergeNode in="b"/><feMergeNode in="SourceGraphic"/></feMerge>
  </filter>

  </defs><rect width="1000" height="1000" fill="url(#bgr1x1730)"/><line x1="0" y1="-1.6" x2="1000" y2="-0.4" stroke="#ccccff" stroke-opacity=".055" stroke-width="1.2"/><line x1="2.9" y1="0" x2="-2.5" y2="1000" stroke="#ccccff" stroke-opacity=".055" stroke-width="1.2"/><line x1="0" y1="97.8" x2="1000" y2="99.8" stroke="#ccccff" stroke-opacity=".055" stroke-width="1.2"/><line x1="102.9" y1="0" x2="98.3" y2="1000" stroke="#ccccff" stroke-opacity=".055" stroke-width="1.2"/><line x1="0" y1="200.9" x2="1000" y2="200.3" stroke="#ccccff" stroke-opacity=".055" stroke-width="1.2"/><line x1="201.1" y1="0" x2="202.4" y2="1000" stroke="#ccccff" stroke-opacity=".055" stroke-width="1.2"/><line x1="0" y1="302.5" x2="1000" y2="301.6" stroke="#ccccff" stroke-opacity=".055" stroke-width="1.2"/><line x1="301.6" y1="0" x2="297.9" y2="1000" stroke="#ccccff" stroke-opacity=".055" stroke-width="1.2"/><line x1="0" y1="399.7" x2="1000" y2="397.5" stroke="#ccccff" stroke-opacity=".055" stroke-width="1.2"/><line x1="399.1" y1="0" x2="399.6" y2="1000" stroke="#ccccff" stroke-opacity=".055" stroke-width="1.2"/><line x1="0" y1="497.2" x2="1000" y2="499.1" stroke="#ccccff" stroke-opacity=".055" stroke-width="1.2"/><line x1="497.9" y1="0" x2="500.4" y2="1000" stroke="#ccccff" stroke-opacity=".055" stroke-width="1.2"/><line x1="0" y1="597.2" x2="1000" y2="601.0" stroke="#ccccff" stroke-opacity=".055" stroke-width="1.2"/><line x1="599.1" y1="0" x2="602.2" y2="1000" stroke="#ccccff" stroke-opacity=".055" stroke-width="1.2"/><line x1="0" y1="697.9" x2="1000" y2="700.4" stroke="#ccccff" stroke-opacity=".055" stroke-width="1.2"/><line x1="699.2" y1="0" x2="702.8" y2="1000" stroke="#ccccff" stroke-opacity=".055" stroke-width="1.2"/><line x1="0" y1="799.5" x2="1000" y2="798.5" stroke="#ccccff" stroke-opacity=".055" stroke-width="1.2"/><line x1="802.7" y1="0" x2="801.0" y2="1000" stroke="#ccccff" stroke-opacity=".055" stroke-width="1.2"/><line x1="0" y1="899.3" x2="1000" y2="902.3" stroke="#ccccff" stroke-opacity=".055" stroke-width="1.2"/><line x1="899.0" y1="0" x2="902.4" y2="1000" stroke="#ccccff" stroke-opacity=".055" stroke-width="1.2"/><path d="M80,30 L30,30 L30,80" stroke="#ccccff" stroke-opacity=".45" stroke-width="2" fill="none" filter="url(#glowr1x1730)"/><path d="M920,30 L970,30 L970,80" stroke="#ccccff" stroke-opacity=".45" stroke-width="2" fill="none" filter="url(#glowr1x1730)"/><path d="M30,920 L30,970 L80,970" stroke="#ccccff" stroke-opacity=".45" stroke-width="2" fill="none" filter="url(#glowr1x1730)"/><path d="M970,920 L970,970 L920,970" stroke="#ccccff" stroke-opacity=".45" stroke-width="2" fill="none" filter="url(#glowr1x1730)"/><ellipse cx="500.0" cy="892.0" rx="350.0" ry="65.0" fill="rgba(0,0,0,.7)" filter="url(#bloomr1x1730)"/><ellipse cx="500.0" cy="889.0" rx="220.0" ry="34.0" fill="rgba(0,0,0,.45)"/><ellipse cx="500.0" cy="520.0" rx="320.0" ry="480.0" fill="#6600ff" fill-opacity=".042" filter="url(#bloomr1x1730)"/><circle cx="462.9" cy="361.2" r="2.0" fill="#6600ff" fill-opacity="0.70" filter="url(#glowr1x1730)"/><circle cx="733.1" cy="771.1" r="1.8" fill="#6600ff" fill-opacity="0.62" filter="url(#glowr1x1730)"/><circle cx="559.5" cy="567.9" r="3.5" fill="#6600ff" fill-opacity="0.75" filter="url(#glowr1x1730)"/><circle cx="364.8" cy="221.7" r="3.9" fill="#6600ff" fill-opacity="0.71" filter="url(#glowr1x1730)"/><circle cx="458.0" cy="605.7" r="3.6" fill="#6600ff" fill-opacity="0.46" filter="url(#glowr1x1730)"/><circle cx="351.0" cy="621.3" r="2.6" fill="#6600ff" fill-opacity="0.62" filter="url(#glowr1x1730)"/><circle cx="293.8" cy="379.0" r="4.3" fill="#6600ff" fill-opacity="0.44" filter="url(#glowr1x1730)"/><circle cx="457.8" cy="773.4" r="4.3" fill="#6600ff" fill-opacity="0.85" filter="url(#glowr1x1730)"/><circle cx="367.3" cy="749.6" r="1.2" fill="#6600ff" fill-opacity="0.84" filter="url(#glowr1x1730)"/><circle cx="387.7" cy="660.7" r="2.5" fill="#6600ff" fill-opacity="0.76" filter="url(#glowr1x1730)"/><circle cx="733.8" cy="427.5" r="2.7" fill="#6600ff" fill-opacity="0.85" filter="url(#glowr1x1730)"/><circle cx="621.8" cy="639.6" r="3.0" fill="#6600ff" fill-opacity="0.52" filter="url(#glowr1x1730)"/><circle cx="275.0" cy="391.5" r="1.2" fill="#6600ff" fill-opacity="0.54" filter="url(#glowr1x1730)"/><circle cx="643.8" cy="318.0" r="3.6" fill="#6600ff" fill-opacity="0.78" filter="url(#glowr1x1730)"/><polygon points="400.2,662.1 489.8,662.3 482.0,876.3 388.8,878.2" fill="url(#suitr1x1730)" stroke="#ccccff" stroke-width="2.2" filter="url(#skr1x1730) url(#metalr1x1730)"/><polygon points="397.6,662.0 488.2,663.2 479.9,878.8 389.0,878.4" fill="url(#carbonr1x1730)"/><polygon points="392.6,722.8 494.7,724.2 482.9,787.8 382.9,789.4" fill="url(#bevelr1x1730)" fill-opacity=".5" stroke="#ccccff" stroke-width="1.4" filter="url(#skr1x1730)"/><polygon points="512.0,664.2 602.7,663.2 614.4,877.9 519.8,876.3" fill="url(#suitr1x1730)" stroke="#ccccff" stroke-width="2.2" filter="url(#skr1x1730) url(#metalr1x1730)"/><polygon points="511.9,661.7 599.6,661.8 613.3,878.9 517.7,876.6" fill="url(#carbonr1x1730)"/><polygon points="505.8,725.4 608.0,724.1 615.3,789.9 516.0,787.5" fill="url(#bevelr1x1730)" fill-opacity=".5" stroke="#ccccff" stroke-width="1.4" filter="url(#skr1x1730)"/><rect x="391.6" y="839.3" width="100.3" height="24.7" fill="url(#bevelr1x1730)" stroke="#ccccff" stroke-width="1" filter="url(#skr1x1730)"/><rect x="507.6"  y="838.0" width="100.3" height="24.7" fill="url(#bevelr1x1730)" stroke="#ccccff" stroke-width="1" filter="url(#skr1x1730)"/><polygon points="371.4,876.9 496.8,875.9 504.3,921.2 361.4,922.3" fill="#242438" stroke="#ccccff" stroke-width="2" filter="url(#skr1x1730)"/><polygon points="502.7,878.6 631.2,876.8 636.3,923.0 495.5,922.3" fill="#242438" stroke="#ccccff" stroke-width="2" filter="url(#skr1x1730)"/><polygon points="304.0,633.5 696.5,633.5 639.4,682.4 362.2,682.6" fill="#ccccff" fill-opacity=".52" stroke="#ccccff" stroke-width="2" filter="url(#skr1x1730)"/><rect x="462.2" y="637.0" width="72.0" height="42.0" fill="url(#bevelr1x1730)" stroke="#ccccff" stroke-width="1.4" filter="url(#glowr1x1730)"/><rect x="485.8" y="641.1" width="28.0" height="22.0" rx="1" fill="rgba(255,255,255,.48)"/><polygon points="153.6,465.5 236.0,466.7 257.2,733.3 128.5,736.4" fill="url(#suitr1x1730)" stroke="#ccccff" stroke-width="2.2" filter="url(#skr1x1730) url(#metalr1x1730)"/><polygon points="172.4,433.7 254.4,430.9 244.2,511.9 159.3,510.9" fill="url(#bevelr1x1730)" fill-opacity=".72" stroke="#ccccff" stroke-width="2.2" filter="url(#skr1x1730)"/><polygon points="159.8,621.7 242.2,623.2 239.1,660.2 166.8,661.8" fill="#ccccff" fill-opacity=".42" stroke="#ccccff" stroke-width="1" filter="url(#skr1x1730)"/><polygon points="764.5,465.4 845.9,465.0 872.0,734.5 741.6,735.4" fill="url(#suitr1x1730)" stroke="#ccccff" stroke-width="2.2" filter="url(#skr1x1730) url(#metalr1x1730)"/><polygon points="746.8,431.3 826.0,431.9 839.8,509.5 757.5,509.2" fill="url(#bevelr1x1730)" fill-opacity=".72" stroke="#ccccff" stroke-width="2.2" filter="url(#skr1x1730)"/><polygon points="756.1,621.3 840.6,620.6 833.5,661.6 762.1,660.1" fill="#ccccff" fill-opacity=".42" stroke="#ccccff" stroke-width="1" filter="url(#skr1x1730)"/><rect x="119.5"  y="699.4" width="135.3" height="85.0" rx="4" fill="url(#bevelr1x1730)" stroke="#ccccff" stroke-width="1.8" filter="url(#skr1x1730)"/><rect x="747.4"   y="699.2" width="135.3" height="85.0" rx="4" fill="url(#bevelr1x1730)" stroke="#ccccff" stroke-width="1.8" filter="url(#skr1x1730)"/><line x1="151.5" y1="701.6" x2="149.3" y2="783.4" stroke="#ccccff" stroke-opacity=".38" stroke-width="1"/><line x1="778.5" y1="701.6" x2="778.0" y2="782.2" stroke="#ccccff" stroke-opacity=".38" stroke-width="1"/><line x1="181.4" y1="700.3" x2="183.5" y2="783.3" stroke="#ccccff" stroke-opacity=".38" stroke-width="1"/><line x1="811.6" y1="702.8" x2="809.9" y2="782.3" stroke="#ccccff" stroke-opacity=".38" stroke-width="1"/><line x1="216.5" y1="702.0" x2="214.3" y2="782.9" stroke="#ccccff" stroke-opacity=".38" stroke-width="1"/><line x1="842.9" y1="700.4" x2="844.4" y2="785.0" stroke="#ccccff" stroke-opacity=".38" stroke-width="1"/><polygon points="236.6,416.7 764.0,418.2 721.5,662.6 277.7,663.5" fill="url(#suitr1x1730)" stroke="#ccccff" stroke-width="2.6" filter="url(#skr1x1730) url(#metalr1x1730)"/><polygon points="236.0,418.3 763.7,415.9 722.4,662.2 276.3,660.7" fill="url(#carbonr1x1730)"/><polygon points="367.3,417.7 631.3,416.1 611.2,516.9 388.2,516.3" fill="url(#suitHir1x1730)"/><line x1="361.8" y1="472.5" x2="639.5" y2="472.3" stroke="#ccccff" stroke-opacity=".52" stroke-width="1.3" filter="url(#skr1x1730)"/><line x1="398.3" y1="551.4" x2="601.9" y2="548.0" stroke="#ccccff" stroke-opacity=".52" stroke-width="1.3" filter="url(#skr1x1730)"/><line x1="266.5" y1="490.0" x2="320.0" y2="489.8" stroke="#ccccff" stroke-opacity=".62" stroke-width="1.8"/><line x1="680.4" y1="491.9" x2="734.1" y2="490.5" stroke="#ccccff" stroke-opacity=".62" stroke-width="1.8"/><line x1="268.6" y1="521.6" x2="319.0" y2="523.2" stroke="#ccccff" stroke-opacity=".62" stroke-width="1.8"/><line x1="679.6" y1="523.0" x2="733.2" y2="523.0" stroke="#ccccff" stroke-opacity=".62" stroke-width="1.8"/><line x1="268.6" y1="555.6" x2="320.2" y2="556.3" stroke="#ccccff" stroke-opacity=".62" stroke-width="1.8"/><line x1="680.9" y1="553.0" x2="732.8" y2="555.7" stroke="#ccccff" stroke-opacity=".62" stroke-width="1.8"/><line x1="267.7" y1="587.7" x2="321.5" y2="585.7" stroke="#ccccff" stroke-opacity=".62" stroke-width="1.8"/><line x1="681.6" y1="586.6" x2="733.7" y2="587.6" stroke="#ccccff" stroke-opacity=".62" stroke-width="1.8"/><g filter="url(#glowr1x1730)"><path d="M500,510.6 C397.426900242269,445.8393201509491 445.09086738247424,551.8566692158953 500,533.0431485879421" fill="#ccccff" fill-opacity=".88" stroke="#ccccff" stroke-width="1.2" filter="url(#skr1x1730)"/><path d="M500,510.6 C602.4441989419981,448.50277277156715 554.5178727898747,547.7070331875608 500,533.9609604715556" fill="#ccccff" fill-opacity=".88" stroke="#ccccff" stroke-width="1.2" filter="url(#skr1x1730)"/><path d="M500,493.20000000000005 C455.09660046491774,463.62856617644434 479.5613644953817,517.7642685115337 500,522.6991656970233" fill="rgba(255,255,255,.14)"/><path d="M500,493.20000000000005 C546.2498298185877,462.93772205738355 524.0293415517547,518.6716459827497 500,523.3649537235499" fill="rgba(255,255,255,.14)"/></g><g><polygon points="871.8,671.4 923.8,671.4 908.2,-28.6 887.4,-28.6" fill="url(#blader1x1730)" filter="url(#wmr1x1730)"/><polygon points="887.4,-28.6 908.2,-28.6 897.8,-138.6" fill="url(#blader1x1730)" filter="url(#wmr1x1730)"/><polygon points="896.0,671.4 899.7,671.4 898.4,-128.6 897.3,-128.6" fill="url(#bladeTipr1x1730)" opacity=".9"/><line x1="905.855179069005" y1="672.3321315446868" x2="897.6673429174535" y2="-128.25141058871526" stroke="rgba(255,255,255,.68)" stroke-width="1.5"/><line x1="887.5290549040027" y1="672.8721993765794" x2="897.328520356305" y2="-130.06443357933315" stroke="#ccccff" stroke-width="1" stroke-opacity=".45"/><line x1="902.5" y1="651.4" x2="899.7" y2="11.4" stroke="rgba(0,0,0,.38)" stroke-width="1.6"/><line x1="893.2" y1="651.4" x2="896.0" y2="11.4" stroke="rgba(0,0,0,.38)" stroke-width="1.6"/><rect x="841.0332576959022" y="669.2514453776181" width="112.0" height="28.0" rx="3" fill="url(#bevelr1x1730)" stroke="#ccccff" stroke-width="1.6" filter="url(#wmr1x1730)"/><rect x="866.6427608665638" y="672.9866172869689" width="64.0" height="10.0" rx="1" fill="rgba(255,255,255,.32)"/><rect x="884.0595088712499" y="678.7221065559424" width="24.0" height="6.0" rx="1" fill="#ccccff" fill-opacity=".35"/><rect x="885.0089566844143" y="685.2858736601657" width="24.0" height="6.0" rx="1" fill="#ccccff" fill-opacity=".35"/><rect x="885.2484945774637" y="695.0411650186404" width="24.0" height="6.0" rx="1" fill="#ccccff" fill-opacity=".35"/><rect x="884.2728478963114" y="702.0403415973298" width="24.0" height="6.0" rx="1" fill="#ccccff" fill-opacity=".35"/><rect x="885.8138686901517" y="708.0333583976142" width="24.0" height="6.0" rx="1" fill="#ccccff" fill-opacity=".35"/><rect x="887.0695399035327" y="717.47618278265" width="24.0" height="6.0" rx="1" fill="#ccccff" fill-opacity=".35"/><ellipse cx="896.1175324274786" cy="726.0232557348907" rx="22.0" ry="16.0" fill="url(#bevelr1x1730)" stroke="#ccccff" stroke-width="1.2" filter="url(#wmr1x1730)"/></g><rect x="448.66288383426144" y="556.0110094487667" width="100.0"  height="56.0" fill="#242438" stroke="#ccccff" stroke-width="2.2" filter="url(#skr1x1730)"/><rect x="425.73990094289184" y="573.6785764140077" width="152.0" height="26.0" fill="url(#bevelr1x1730)" fill-opacity=".65" stroke="#ccccff" stroke-width="1.2" filter="url(#skr1x1730)"/><polygon points="306.6,380.4 352.0,294.7 498.5,279.3 648.0,293.5 690.8,380.5 670.4,502.5 500.4,566.8 329.3,504.4" fill="url(#suitr1x1730)" stroke="#ccccff" stroke-width="2.8" filter="url(#skr1x1730) url(#metalr1x1730)"/><polygon points="309.4,379.7 351.6,295.8 501.2,276.9 649.4,292.9 692.9,380.8 668.3,503.6 499.5,566.2 329.5,504.9" fill="url(#carbonr1x1730)"/><polygon points="382.3,301.3 499.6,285.7 620.6,304.2 608.7,380.0 392.6,379.3" fill="url(#suitHir1x1730)"/><polygon points="381.3,379.0 366.6,425.0 434.3,503.0 499.7,527.5 568.0,504.1 634.8,425.4 617.7,381.9" fill="#000a14" fill-opacity=".88" stroke="#ccccff" stroke-width="1.8" filter="url(#skr1x1730)"/><polygon points="381.5,413.0 478.1,409.7 485.5,440.1 389.8,440.0" fill="#ccccff" filter="url(#glowr1x1730)"/><polygon points="522.7,411.4 618.8,412.2 609.6,438.6 517.0,439.1" fill="#ccccff" filter="url(#glowr1x1730)"/><ellipse cx="430.9" cy="425.7" rx="38.4"  ry="8.2" fill="#ffffff" opacity=".88"/><ellipse cx="569.1" cy="425.7" rx="38.4"  ry="8.2" fill="#ffffff" opacity=".88"/><line x1="484.3328990178741" y1="413.7016693873331" x2="515.9345048332959" y2="414.4200385764241" stroke="#ccccff" stroke-opacity=".52" stroke-width="2"/><line x1="483.05652377778665" y1="438.2556464608759" x2="516.9380910371802" y2="439.4979019260965" stroke="#ccccff" stroke-opacity=".52" stroke-width="2"/><line x1="501.2188743676059" y1="453.16172190541397" x2="500.7341386217624" y2="484.78457844490185" stroke="#ccccff" stroke-opacity=".58" stroke-width="2.2" filter="url(#skr1x1730)"/><line x1="452.440136851538" y1="489.7948713310994" x2="454.21605809543286" y2="521.06890877923" stroke="#ccccff" stroke-opacity=".52" stroke-width="1.5" filter="url(#skr1x1730)"/><line x1="477.40970880011093" y1="493.0625747034326" x2="476.12006689574565" y2="520.2735298279673" stroke="#ccccff" stroke-opacity=".52" stroke-width="1.5" filter="url(#skr1x1730)"/><line x1="499.1862141194753" y1="490.4981021073646" x2="498.96685965564103" y2="521.5149777563289" stroke="#ccccff" stroke-opacity=".52" stroke-width="1.5" filter="url(#skr1x1730)"/><line x1="523.57592795711" y1="492.9879292774945" x2="522.1505130506679" y2="518.9087247315795" stroke="#ccccff" stroke-opacity=".52" stroke-width="1.5" filter="url(#skr1x1730)"/><line x1="544.3129806800932" y1="492.4465156623162" x2="546.7231432208047" y2="521.2753018083051" stroke="#ccccff" stroke-opacity=".52" stroke-width="1.5" filter="url(#skr1x1730)"/><polygon points="431.6,504.6 567.9,503.3 552.7,556.8 445.8,555.4" fill="#242438" fill-opacity=".72" stroke="#ccccff" stroke-width="1.3" filter="url(#skr1x1730)"/><path d="M390.18765107203274 326.97440920332446 Q330.5055900600366 218.30295741464943 380.5903956260905 139.30859950417653" stroke="#ccccff" stroke-width="5" fill="none" stroke-linecap="round" filter="url(#skr1x1730)"/><path d="M387.7626730849594 328.8038744294085 Q330.5026801524311 217.44502598131075 379.8860768519715 139.63199842311442" stroke="rgba(255,255,255,.25)" stroke-width="1.5" fill="none" stroke-linecap="round"/><path d="M610.6762727716379 325.6113341451623 Q669.7548019980453 216.63866940150038 620.7581325980461 141.00760350031777" stroke="#ccccff" stroke-width="5" fill="none" stroke-linecap="round" filter="url(#skr1x1730)"/><path d="M613.0160224113986 328.3736200760119 Q670.5704701992124 217.62154672807083 619.1675816732086 141.82157844556497" stroke="rgba(255,255,255,.25)" stroke-width="1.5" fill="none" stroke-linecap="round"/><text x="30.0"  y="975.0" font-family="monospace" font-weight="bold" font-size="22.0" fill="rgba(255,255,255,.22)">#0001</text><text x="500.0"   y="975.0" text-anchor="middle" font-family="monospace" font-weight="bold" font-size="22.0" fill="#ccccff" fill-opacity=".48">PHANTOM RANGER</text><text x="970.0" y="975.0" text-anchor="end"    font-family="monospace" font-weight="bold" font-size="22.0" fill="#ccccff" fill-opacity=".32">MECH RANGERS</text></svg>