<svg xmlns="http://www.w3.org/2000/svg" viewBox="0 0 1000 1000" width="1000" height="1000" shape-rendering="geometricPrecision"><defs>

  <!-- Scene gradients -->
  <radialGradient id="bgr1x1746" cx="50%" cy="42%" r="72%">
    <stop offset="0%"   stop-color="#1a2814"/>
    <stop offset="100%" stop-color="#0d1520"/>
  </radialGradient>
  <linearGradient id="suitr1x1746" x1="8%" y1="0%" x2="92%" y2="100%">
    <stop offset="0%"   stop-color="#c0c0d0" stop-opacity=".95"/>
    <stop offset="45%"  stop-color="#2c2c3c"/>
    <stop offset="100%" stop-color="#0d1520"/>
  </linearGradient>
  <linearGradient id="suitHir1x1746" x1="0%" y1="0%" x2="0%" y2="100%">
    <stop offset="0%"   stop-color="rgba(255,255,255,.28)"/>
    <stop offset="60%"  stop-color="rgba(255,255,255,.04)"/>
    <stop offset="100%" stop-color="rgba(255,255,255,0)"/>
  </linearGradient>
  <!-- Bevel: bright top, dark bottom for armour panels -->
  <linearGradient id="bevelr1x1746" x1="0%" y1="0%" x2="0%" y2="100%">
    <stop offset="0%"   stop-color="rgba(255,255,255,.55)"/>
    <stop offset="30%"  stop-color="#c0c0d0"/>
    <stop offset="70%"  stop-color="#2c2c3c"/>
    <stop offset="100%" stop-color="rgba(0,0,0,.5)"/>
  </linearGradient>

  <!-- Weapon: cold steel blade sweep -->
  <linearGradient id="blader1x1746" x1="0%" y1="0%" x2="100%" y2="0%">
    <stop offset="0%"   stop-color="#0e0e20"/>
    <stop offset="16%"  stop-color="#3e3e58"/>
    <stop offset="34%"  stop-color="#c8c8e0"/>
    <stop offset="50%"  stop-color="#f5f5ff"/>
    <stop offset="66%"  stop-color="#b8b8d0"/>
    <stop offset="84%"  stop-color="#2e2e48"/>
    <stop offset="100%" stop-color="#08080e"/>
  </linearGradient>
  <!-- Blade tip brightening -->
  <linearGradient id="bladeTipr1x1746" x1="0%" y1="100%" x2="0%" y2="0%">
    <stop offset="0%"   stop-color="rgba(255,255,255,0)"/>
    <stop offset="55%"  stop-color="rgba(255,255,255,.1)"/>
    <stop offset="100%" stop-color="rgba(255,255,255,.55)"/>
  </linearGradient>
  <!-- Gunmetal anodised — blaster body -->
  <linearGradient id="gunmetalr1x1746" x1="0%" y1="0%" x2="0%" y2="100%">
    <stop offset="0%"   stop-color="#46465e"/>
    <stop offset="18%"  stop-color="#828296"/>
    <stop offset="42%"  stop-color="#26263a"/>
    <stop offset="72%"  stop-color="#16162a"/>
    <stop offset="100%" stop-color="#0c0c18"/>
  </linearGradient>
  <!-- Brushed steel tube — barrel/rod -->
  <linearGradient id="barrelr1x1746" x1="0%" y1="0%" x2="100%" y2="0%">
    <stop offset="0%"   stop-color="#0a0a14"/>
    <stop offset="24%"  stop-color="#585875"/>
    <stop offset="50%"  stop-color="#a8a8c8"/>
    <stop offset="76%"  stop-color="#383852"/>
    <stop offset="100%" stop-color="#0a0a14"/>
  </linearGradient>
  <!-- Chrome rod — lance shaft -->
  <linearGradient id="chromer1x1746" x1="0%" y1="0%" x2="100%" y2="0%">
    <stop offset="0%"   stop-color="#0c0c18"/>
    <stop offset="20%"  stop-color="#686888"/>
    <stop offset="44%"  stop-color="#e0e0f0"/>
    <stop offset="56%"  stop-color="#c0c0d8"/>
    <stop offset="80%"  stop-color="#28283e"/>
    <stop offset="100%" stop-color="#0c0c18"/>
  </linearGradient>
  <!-- Titanium plate — shield face -->
  <linearGradient id="titaniumr1x1746" x1="0%" y1="0%" x2="100%" y2="100%">
    <stop offset="0%"   stop-color="#585878"/>
    <stop offset="28%"  stop-color="#c0c0d0" stop-opacity=".88"/>
    <stop offset="55%"  stop-color="#2c2c3c"/>
    <stop offset="80%"  stop-color="#181828"/>
    <stop offset="100%" stop-color="#0a0a18"/>
  </linearGradient>
  <!-- Artillery black-chrome — cannon body -->
  <linearGradient id="artilleryr1x1746" x1="0%" y1="0%" x2="0%" y2="100%">
    <stop offset="0%"   stop-color="#383850"/>
    <stop offset="14%"  stop-color="#78789a"/>
    <stop offset="36%"  stop-color="#202034"/>
    <stop offset="65%"  stop-color="#14141e"/>
    <stop offset="100%" stop-color="#0a0a12"/>
  </linearGradient>
  <!-- Energy orb — staff -->
  <radialGradient id="orbr1x1746" cx="35%" cy="35%" r="65%">
    <stop offset="0%"   stop-color="rgba(255,255,255,.9)"/>
    <stop offset="30%"  stop-color="#c0c0d0"/>
    <stop offset="68%"  stop-color="#2c2c3c"/>
    <stop offset="100%" stop-color="rgba(0,0,0,.6)"/>
  </radialGradient>
  <!-- Knuckle plate chrome -->
  <linearGradient id="knuckler1x1746" x1="0%" y1="0%" x2="0%" y2="100%">
    <stop offset="0%"   stop-color="#888aaa"/>
    <stop offset="32%"  stop-color="#c0c0d0" stop-opacity=".8"/>
    <stop offset="62%"  stop-color="#1a1a2c"/>
    <stop offset="100%" stop-color="#0a0a14"/>
  </linearGradient>

  <!-- Carbon fibre weave texture overlay -->
  <pattern id="carbonr1x1746" width="6" height="6" patternUnits="userSpaceOnUse">
    <rect width="6" height="6" fill="rgba(0,0,0,.08)"/>
    <rect x="0" y="0" width="3" height="3" fill="rgba(255,255,255,.022)"/>
    <rect x="3" y="3" width="3" height="3" fill="rgba(255,255,255,.022)"/>
    <line x1="0" y1="0" x2="3" y2="3" stroke="rgba(255,255,255,.038)" stroke-width=".5"/>
    <line x1="3" y1="0" x2="6" y2="3" stroke="rgba(0,0,0,.055)"       stroke-width=".5"/>
    <line x1="0" y1="3" x2="3" y2="6" stroke="rgba(0,0,0,.055)"       stroke-width=".5"/>
    <line x1="3" y1="3" x2="6" y2="6" stroke="rgba(255,255,255,.038)" stroke-width=".5"/>
  </pattern>

  <!-- Specular metal sheen on armour panels -->
  <filter id="metalr1x1746" x="-5%" y="-5%" width="110%" height="110%">
    <feSpecularLighting surfaceScale="4" specularConstant="1.8"
        specularExponent="42" lighting-color="#ffffff" result="spec">
      <feDistantLight elevation="52" azimuth="38"/>
    </feSpecularLighting>
    <feComposite in="spec" in2="SourceGraphic" operator="in" result="sm"/>
    <feComposite in="SourceGraphic" in2="sm" operator="arithmetic" k1="0" k2="1" k3="0.55" k4="0"/>
  </filter>

  <!-- Sharper specular for weapons — heavier glare -->
  <filter id="wmr1x1746" x="-8%" y="-8%" width="116%" height="116%">
    <feSpecularLighting surfaceScale="6" specularConstant="2.4"
        specularExponent="65" lighting-color="#ffffff" result="spec">
      <feDistantLight elevation="44" azimuth="28"/>
    </feSpecularLighting>
    <feComposite in="spec" in2="SourceGraphic" operator="in" result="sm"/>
    <feComposite in="SourceGraphic" in2="sm" operator="arithmetic" k1="0" k2="1" k3="0.78" k4="0"/>
  </filter>

  <!-- Sketch wobble -->
  <filter id="skr1x1746" x="-8%" y="-8%" width="116%" height="116%">
    <feTurbulence type="fractalNoise" baseFrequency="0.038"
        numOctaves="3" seed="14" result="noise"/>
    <feDisplacementMap in="SourceGraphic" in2="noise" scale="2.6"
        xChannelSelector="R" yChannelSelector="G" result="w"/>
    <feComposite in="w" in2="SourceGraphic" operator="atop"/>
  </filter>

  <!-- Glow: sharp accent -->
  <filter id="glowr1x1746" x="-20%" y="-20%" width="140%" height="140%">
    <feGaussianBlur stdDeviation="3.5" result="b"/>
    <feColorMatrix in="b" type="matrix"
        values="0 0 0 0 1  0 0 0 0 1  0 0 0 0 1  0 0 0 1.8 0" result="boost"/>
    <feMerge><feMergeNode in="boost"/><feMergeNode in="SourceGraphic"/></feMerge>
  </filter>

  <!-- Bloom: wide soft -->
  <filter id="bloomr1x1746" x="-40%" y="-40%" width="180%" height="180%">
    <feGaussianBlur stdDeviation="11" result="b"/>
    <feMerge><feMergeNode in="b"/><feMergeNode in="SourceGraphic"/></feMerge>
  </filter>

  </defs><rect width="1000" height="1000" fill="url(#bgr1x1746)"/><ellipse cx="500.0" cy="892.0" rx="350.0" ry="65.0" fill="rgba(0,0,0,.7)" filter="url(#bloomr1x1746)"/><ellipse cx="500.0" cy="889.0" rx="220.0" ry="34.0" fill="rgba(0,0,0,.45)"/><polygon points="398.1,662.1 489.0,660.8 480.1,876.1 386.9,877.3" fill="url(#suitr1x1746)" stroke="#c0c0d0" stroke-width="2.2" filter="url(#skr1x1746) url(#metalr1x1746)"/><polygon points="397.8,662.8 487.8,661.0 481.8,877.5 388.3,878.1" fill="url(#carbonr1x1746)"/><polygon points="394.3,724.2 493.1,723.4 483.0,789.9 384.9,789.1" fill="url(#bevelr1x1746)" fill-opacity=".5" stroke="#c0c0d0" stroke-width="1.4" filter="url(#skr1x1746)"/><polygon points="510.2,664.1 599.5,664.0 613.7,877.6 519.5,878.2" fill="url(#suitr1x1746)" stroke="#c0c0d0" stroke-width="2.2" filter="url(#skr1x1746) url(#metalr1x1746)"/><polygon points="511.6,661.4 602.6,661.1 612.2,877.7 517.8,877.0" fill="url(#carbonr1x1746)"/><polygon points="507.7,723.0 607.5,724.8 615.4,787.8 516.3,788.8" fill="url(#bevelr1x1746)" fill-opacity=".5" stroke="#c0c0d0" stroke-width="1.4" filter="url(#skr1x1746)"/><rect x="391.8" y="837.3" width="100.3" height="24.7" fill="url(#bevelr1x1746)" stroke="#c0c0d0" stroke-width="1" filter="url(#skr1x1746)"/><rect x="508.2"  y="840.3" width="100.3" height="24.7" fill="url(#bevelr1x1746)" stroke="#c0c0d0" stroke-width="1" filter="url(#skr1x1746)"/><polygon points="369.3,875.7 497.7,879.0 503.3,921.4 364.2,921.3" fill="#2c2c3c" stroke="#c0c0d0" stroke-width="2" filter="url(#skr1x1746)"/><polygon points="505.1,879.1 631.8,875.8 638.3,921.4 495.0,922.2" fill="#2c2c3c" stroke="#c0c0d0" stroke-width="2" filter="url(#skr1x1746)"/><polygon points="302.8,632.8 696.7,634.9 638.9,680.3 361.6,683.5" fill="#c0c0d0" fill-opacity=".52" stroke="#c0c0d0" stroke-width="2" filter="url(#skr1x1746)"/><rect x="465.8" y="637.5" width="72.0" height="42.0" fill="url(#bevelr1x1746)" stroke="#c0c0d0" stroke-width="1.4" filter="url(#glowr1x1746)"/><rect x="487.6" y="641.7" width="28.0" height="22.0" rx="1" fill="rgba(255,255,255,.48)"/><polygon points="153.2,466.3 234.4,467.2 258.0,733.8 127.1,733.3" fill="url(#suitr1x1746)" stroke="#c0c0d0" stroke-width="2.2" filter="url(#skr1x1746) url(#metalr1x1746)"/><polygon points="174.2,431.6 252.3,433.2 244.2,510.8 158.1,510.2" fill="url(#bevelr1x1746)" fill-opacity=".72" stroke="#c0c0d0" stroke-width="2.2" filter="url(#skr1x1746)"/><polygon points="161.8,623.3 242.5,620.9 237.9,661.0 166.3,659.3" fill="#c0c0d0" fill-opacity=".42" stroke="#c0c0d0" stroke-width="1" filter="url(#skr1x1746)"/><polygon points="765.5,464.9 846.2,466.4 870.0,735.1 741.4,734.2" fill="url(#suitr1x1746)" stroke="#c0c0d0" stroke-width="2.2" filter="url(#skr1x1746) url(#metalr1x1746)"/><polygon points="748.6,433.6 827.8,431.0 840.7,510.1 755.1,510.6" fill="url(#bevelr1x1746)" fill-opacity=".72" stroke="#c0c0d0" stroke-width="2.2" filter="url(#skr1x1746)"/><polygon points="757.7,622.0 838.1,622.3 835.1,662.3 762.6,661.4" fill="#c0c0d0" fill-opacity=".42" stroke="#c0c0d0" stroke-width="1" filter="url(#skr1x1746)"/><rect x="121.1"  y="700.6" width="135.3" height="85.0" rx="4" fill="url(#bevelr1x1746)" stroke="#c0c0d0" stroke-width="1.8" filter="url(#skr1x1746)"/><rect x="750.4"   y="699.0" width="135.3" height="85.0" rx="4" fill="url(#bevelr1x1746)" stroke="#c0c0d0" stroke-width="1.8" filter="url(#skr1x1746)"/><line x1="150.9" y1="703.3" x2="149.7" y2="785.5" stroke="#c0c0d0" stroke-opacity=".38" stroke-width="1"/><line x1="779.7" y1="700.1" x2="776.8" y2="783.2" stroke="#c0c0d0" stroke-opacity=".38" stroke-width="1"/><line x1="183.2" y1="702.7" x2="183.9" y2="783.3" stroke="#c0c0d0" stroke-opacity=".38" stroke-width="1"/><line x1="810.0" y1="700.5" x2="810.2" y2="783.7" stroke="#c0c0d0" stroke-opacity=".38" stroke-width="1"/><line x1="214.6" y1="702.4" x2="216.6" y2="784.5" stroke="#c0c0d0" stroke-opacity=".38" stroke-width="1"/><line x1="844.6" y1="703.5" x2="844.3" y2="782.4" stroke="#c0c0d0" stroke-opacity=".38" stroke-width="1"/><polygon points="236.1,419.2 766.6,417.0 721.5,662.0 278.5,661.3" fill="url(#suitr1x1746)" stroke="#c0c0d0" stroke-width="2.6" filter="url(#skr1x1746) url(#metalr1x1746)"/><polygon points="234.2,416.3 763.3,416.8 721.5,663.0 278.7,661.1" fill="url(#carbonr1x1746)"/><polygon points="365.7,417.6 632.5,417.2 612.8,515.7 389.8,516.2" fill="url(#suitHir1x1746)"/><line x1="361.8" y1="470.7" x2="638.9" y2="471.4" stroke="#c0c0d0" stroke-opacity=".52" stroke-width="1.3" filter="url(#skr1x1746)"/><line x1="400.4" y1="548.7" x2="600.0" y2="551.5" stroke="#c0c0d0" stroke-opacity=".52" stroke-width="1.3" filter="url(#skr1x1746)"/><line x1="268.0" y1="492.1" x2="320.6" y2="492.4" stroke="#c0c0d0" stroke-opacity=".62" stroke-width="1.8"/><line x1="680.3" y1="491.5" x2="733.3" y2="490.1" stroke="#c0c0d0" stroke-opacity=".62" stroke-width="1.8"/><line x1="267.7" y1="524.5" x2="321.4" y2="523.0" stroke="#c0c0d0" stroke-opacity=".62" stroke-width="1.8"/><line x1="679.6" y1="524.6" x2="731.9" y2="521.8" stroke="#c0c0d0" stroke-opacity=".62" stroke-width="1.8"/><line x1="268.3" y1="554.2" x2="320.1" y2="553.0" stroke="#c0c0d0" stroke-opacity=".62" stroke-width="1.8"/><line x1="678.4" y1="554.9" x2="734.1" y2="556.2" stroke="#c0c0d0" stroke-opacity=".62" stroke-width="1.8"/><line x1="265.2" y1="585.5" x2="321.3" y2="588.1" stroke="#c0c0d0" stroke-opacity=".62" stroke-width="1.8"/><line x1="680.4" y1="585.9" x2="733.0" y2="586.8" stroke="#c0c0d0" stroke-opacity=".62" stroke-width="1.8"/><g filter="url(#glowr1x1746)"><circle cx="500.7" cy="499.1" r="31.3" fill="#c0c0d0" stroke="#0d1520" stroke-width="1.4" filter="url(#skr1x1746)"/><circle cx="487.0" cy="497.0" r="7.0" fill="#0d1520"/><circle cx="511.7" cy="496.6" r="7.0" fill="#0d1520"/><rect x="482.6" y="522.2" width="9.3" height="17.4" rx="1" fill="#c0c0d0" stroke="#0d1520" stroke-width=".6"/><rect x="496.7" y="523.5" width="9.3" height="17.4" rx="1" fill="#c0c0d0" stroke="#0d1520" stroke-width=".6"/><rect x="507.4" y="523.8" width="9.3" height="17.4" rx="1" fill="#c0c0d0" stroke="#0d1520" stroke-width=".6"/></g><g><polygon points="827.9,292.4 968.2,293.9 966.7,590.7 896.5,727.2 826.1,589.9" fill="url(#titaniumr1x1746)" stroke="#c0c0d0" stroke-width="2.6" filter="url(#wmr1x1746)"/><polygon points="828.6,294.9 966.6,293.7 968.4,590.6 896.5,725.3 829.0,590.3" fill="url(#carbonr1x1746)"/><polygon points="861.3,362.3 936.2,360.5 935.7,540.0 897.6,630.2 860.1,541.3" fill="#c0c0d0" fill-opacity=".28" stroke="#c0c0d0" stroke-width="1.5"/><line x1="846.829054956846" y1="430.9785933991894" x2="948.6075292592496" y2="431.1028461911715" stroke="#c0c0d0" stroke-opacity=".65" stroke-width="1.3"/><line x1="896.3465486222506" y1="329.78800665475427" x2="897.1270955879801" y2="592.207402513083" stroke="#c0c0d0" stroke-opacity=".4" stroke-width="1"/><line x1="830.2839271267504" y1="296.547682979051" x2="964.5936210499705" y2="296.22200939264144" stroke="rgba(255,255,255,.5)" stroke-width="2"/><circle cx="899.6367342688702" cy="431.91488375924524" r="18.0" fill="url(#bevelr1x1746)" stroke="#c0c0d0" stroke-width="1.2" filter="url(#wmr1x1746)"/></g><rect x="448.6824771665968" y="556.5448111525736" width="100.0"  height="56.0" fill="#2c2c3c" stroke="#c0c0d0" stroke-width="2.2" filter="url(#skr1x1746)"/><rect x="425.37126302253455" y="576.7003156574443" width="152.0" height="26.0" fill="url(#bevelr1x1746)" fill-opacity=".65" stroke="#c0c0d0" stroke-width="1.2" filter="url(#skr1x1746)"/><polygon points="308.6,379.7 349.7,293.8 499.7,278.4 649.9,295.8 692.1,382.0 668.8,502.9 499.9,566.3 329.3,505.2" fill="url(#suitr1x1746)" stroke="#c0c0d0" stroke-width="2.8" filter="url(#skr1x1746) url(#metalr1x1746)"/><polygon points="308.0,379.3 349.4,293.0 500.4,279.1 648.4,293.9 691.1,380.3 668.2,501.8 501.7,563.8 332.8,502.6" fill="url(#carbonr1x1746)"/><polygon points="380.7,301.5 499.7,286.0 618.5,303.9 607.3,381.0 394.1,378.9" fill="url(#suitHir1x1746)"/><polygon points="382.5,382.3 365.8,425.8 434.0,504.7 498.5,528.9 568.6,504.4 633.7,425.2 618.2,379.8" fill="#0d1520" fill-opacity=".88" stroke="#c0c0d0" stroke-width="1.8" filter="url(#skr1x1746)"/><polygon points="380.5,410.4 477.9,411.9 483.8,441.0 387.5,438.8" fill="#c0c0d0" filter="url(#glowr1x1746)"/><polygon points="523.6,412.2 618.2,411.8 611.8,439.0 516.3,440.6" fill="#c0c0d0" filter="url(#glowr1x1746)"/><ellipse cx="430.9" cy="425.7" rx="38.4"  ry="8.2" fill="#ffffff" opacity=".88"/><ellipse cx="569.1" cy="425.7" rx="38.4"  ry="8.2" fill="#ffffff" opacity=".88"/><line x1="484.1392434808984" y1="412.79713999545197" x2="516.4202817062288" y2="412.592541193217" stroke="#c0c0d0" stroke-opacity=".52" stroke-width="2"/><line x1="485.1710990043916" y1="439.43179794615133" x2="514.0810621028207" y2="438.5281804575585" stroke="#c0c0d0" stroke-opacity=".52" stroke-width="2"/><line x1="498.6268597287126" y1="454.2987855017185" x2="498.2866669492796" y2="481.5424600021914" stroke="#c0c0d0" stroke-opacity=".58" stroke-width="2.2" filter="url(#skr1x1746)"/><line x1="455.4350069270283" y1="491.6281666041351" x2="455.3202422281541" y2="519.1420829106122" stroke="#c0c0d0" stroke-opacity=".52" stroke-width="1.5" filter="url(#skr1x1746)"/><line x1="477.81035984981804" y1="490.98327206932004" x2="477.21092594735325" y2="520.1605256204493" stroke="#c0c0d0" stroke-opacity=".52" stroke-width="1.5" filter="url(#skr1x1746)"/><line x1="500.6841625207104" y1="490.5715936285443" x2="500.5038735829294" y2="520.8228354777209" stroke="#c0c0d0" stroke-opacity=".52" stroke-width="1.5" filter="url(#skr1x1746)"/><line x1="523.2587131082639" y1="493.0504061958752" x2="524.4832320045307" y2="521.4568478815257" stroke="#c0c0d0" stroke-opacity=".52" stroke-width="1.5" filter="url(#skr1x1746)"/><line x1="545.5631382482313" y1="491.7541656600311" x2="546.1656646471657" y2="519.1490397335031" stroke="#c0c0d0" stroke-opacity=".52" stroke-width="1.5" filter="url(#skr1x1746)"/><polygon points="432.1,504.0 568.5,505.0 555.2,556.1 446.6,558.4" fill="#2c2c3c" fill-opacity=".72" stroke="#c0c0d0" stroke-width="1.3" filter="url(#skr1x1746)"/><text x="30.0"  y="975.0" font-family="monospace" font-weight="bold" font-size="22.0" fill="rgba(255,255,255,.22)">#0001</text><text x="500.0"   y="975.0" text-anchor="middle" font-family="monospace" font-weight="bold" font-size="22.0" fill="#c0c0d0" fill-opacity=".48">CHROME RANGER</text><text x="970.0" y="975.0" text-anchor="end"    font-family="monospace" font-weight="bold" font-size="22.0" fill="#c0c0d0" fill-opacity=".32">MECH RANGERS</text></svg>