<svg xmlns="http://www.w3.org/2000/svg" viewBox="0 0 1000 1000" width="1000" height="1000" shape-rendering="geometricPrecision"><defs>

  <!-- Scene gradients -->
  <radialGradient id="bgr1x1751" cx="50%" cy="42%" r="72%">
    <stop offset="0%"   stop-color="#0e000e"/>
    <stop offset="100%" stop-color="#1e0600"/>
  </radialGradient>
  <linearGradient id="suitr1x1751" x1="8%" y1="0%" x2="92%" y2="100%">
    <stop offset="0%"   stop-color="#ff44aa" stop-opacity=".95"/>
    <stop offset="45%"  stop-color="#880050"/>
    <stop offset="100%" stop-color="#1e0600"/>
  </linearGradient>
  <linearGradient id="suitHir1x1751" x1="0%" y1="0%" x2="0%" y2="100%">
    <stop offset="0%"   stop-color="rgba(255,255,255,.28)"/>
    <stop offset="60%"  stop-color="rgba(255,255,255,.04)"/>
    <stop offset="100%" stop-color="rgba(255,255,255,0)"/>
  </linearGradient>
  <!-- Bevel: bright top, dark bottom for armour panels -->
  <linearGradient id="bevelr1x1751" x1="0%" y1="0%" x2="0%" y2="100%">
    <stop offset="0%"   stop-color="rgba(255,255,255,.55)"/>
    <stop offset="30%"  stop-color="#ff44aa"/>
    <stop offset="70%"  stop-color="#880050"/>
    <stop offset="100%" stop-color="rgba(0,0,0,.5)"/>
  </linearGradient>

  <!-- Weapon: cold steel blade sweep -->
  <linearGradient id="blader1x1751" x1="0%" y1="0%" x2="100%" y2="0%">
    <stop offset="0%"   stop-color="#0e0e20"/>
    <stop offset="16%"  stop-color="#3e3e58"/>
    <stop offset="34%"  stop-color="#c8c8e0"/>
    <stop offset="50%"  stop-color="#f5f5ff"/>
    <stop offset="66%"  stop-color="#b8b8d0"/>
    <stop offset="84%"  stop-color="#2e2e48"/>
    <stop offset="100%" stop-color="#08080e"/>
  </linearGradient>
  <!-- Blade tip brightening -->
  <linearGradient id="bladeTipr1x1751" x1="0%" y1="100%" x2="0%" y2="0%">
    <stop offset="0%"   stop-color="rgba(255,255,255,0)"/>
    <stop offset="55%"  stop-color="rgba(255,255,255,.1)"/>
    <stop offset="100%" stop-color="rgba(255,255,255,.55)"/>
  </linearGradient>
  <!-- Gunmetal anodised — blaster body -->
  <linearGradient id="gunmetalr1x1751" x1="0%" y1="0%" x2="0%" y2="100%">
    <stop offset="0%"   stop-color="#46465e"/>
    <stop offset="18%"  stop-color="#828296"/>
    <stop offset="42%"  stop-color="#26263a"/>
    <stop offset="72%"  stop-color="#16162a"/>
    <stop offset="100%" stop-color="#0c0c18"/>
  </linearGradient>
  <!-- Brushed steel tube — barrel/rod -->
  <linearGradient id="barrelr1x1751" x1="0%" y1="0%" x2="100%" y2="0%">
    <stop offset="0%"   stop-color="#0a0a14"/>
    <stop offset="24%"  stop-color="#585875"/>
    <stop offset="50%"  stop-color="#a8a8c8"/>
    <stop offset="76%"  stop-color="#383852"/>
    <stop offset="100%" stop-color="#0a0a14"/>
  </linearGradient>
  <!-- Chrome rod — lance shaft -->
  <linearGradient id="chromer1x1751" x1="0%" y1="0%" x2="100%" y2="0%">
    <stop offset="0%"   stop-color="#0c0c18"/>
    <stop offset="20%"  stop-color="#686888"/>
    <stop offset="44%"  stop-color="#e0e0f0"/>
    <stop offset="56%"  stop-color="#c0c0d8"/>
    <stop offset="80%"  stop-color="#28283e"/>
    <stop offset="100%" stop-color="#0c0c18"/>
  </linearGradient>
  <!-- Titanium plate — shield face -->
  <linearGradient id="titaniumr1x1751" x1="0%" y1="0%" x2="100%" y2="100%">
    <stop offset="0%"   stop-color="#585878"/>
    <stop offset="28%"  stop-color="#ff44aa" stop-opacity=".88"/>
    <stop offset="55%"  stop-color="#880050"/>
    <stop offset="80%"  stop-color="#181828"/>
    <stop offset="100%" stop-color="#0a0a18"/>
  </linearGradient>
  <!-- Artillery black-chrome — cannon body -->
  <linearGradient id="artilleryr1x1751" x1="0%" y1="0%" x2="0%" y2="100%">
    <stop offset="0%"   stop-color="#383850"/>
    <stop offset="14%"  stop-color="#78789a"/>
    <stop offset="36%"  stop-color="#202034"/>
    <stop offset="65%"  stop-color="#14141e"/>
    <stop offset="100%" stop-color="#0a0a12"/>
  </linearGradient>
  <!-- Energy orb — staff -->
  <radialGradient id="orbr1x1751" cx="35%" cy="35%" r="65%">
    <stop offset="0%"   stop-color="rgba(255,255,255,.9)"/>
    <stop offset="30%"  stop-color="#ff44aa"/>
    <stop offset="68%"  stop-color="#880050"/>
    <stop offset="100%" stop-color="rgba(0,0,0,.6)"/>
  </radialGradient>
  <!-- Knuckle plate chrome -->
  <linearGradient id="knuckler1x1751" x1="0%" y1="0%" x2="0%" y2="100%">
    <stop offset="0%"   stop-color="#888aaa"/>
    <stop offset="32%"  stop-color="#ff44aa" stop-opacity=".8"/>
    <stop offset="62%"  stop-color="#1a1a2c"/>
    <stop offset="100%" stop-color="#0a0a14"/>
  </linearGradient>

  <!-- Carbon fibre weave texture overlay -->
  <pattern id="carbonr1x1751" width="6" height="6" patternUnits="userSpaceOnUse">
    <rect width="6" height="6" fill="rgba(0,0,0,.08)"/>
    <rect x="0" y="0" width="3" height="3" fill="rgba(255,255,255,.022)"/>
    <rect x="3" y="3" width="3" height="3" fill="rgba(255,255,255,.022)"/>
    <line x1="0" y1="0" x2="3" y2="3" stroke="rgba(255,255,255,.038)" stroke-width=".5"/>
    <line x1="3" y1="0" x2="6" y2="3" stroke="rgba(0,0,0,.055)"       stroke-width=".5"/>
    <line x1="0" y1="3" x2="3" y2="6" stroke="rgba(0,0,0,.055)"       stroke-width=".5"/>
    <line x1="3" y1="3" x2="6" y2="6" stroke="rgba(255,255,255,.038)" stroke-width=".5"/>
  </pattern>

  <!-- Specular metal sheen on armour panels -->
  <filter id="metalr1x1751" x="-5%" y="-5%" width="110%" height="110%">
    <feSpecularLighting surfaceScale="4" specularConstant="1.8"
        specularExponent="42" lighting-color="#ffffff" result="spec">
      <feDistantLight elevation="52" azimuth="38"/>
    </feSpecularLighting>
    <feComposite in="spec" in2="SourceGraphic" operator="in" result="sm"/>
    <feComposite in="SourceGraphic" in2="sm" operator="arithmetic" k1="0" k2="1" k3="0.55" k4="0"/>
  </filter>

  <!-- Sharper specular for weapons — heavier glare -->
  <filter id="wmr1x1751" x="-8%" y="-8%" width="116%" height="116%">
    <feSpecularLighting surfaceScale="6" specularConstant="2.4"
        specularExponent="65" lighting-color="#ffffff" result="spec">
      <feDistantLight elevation="44" azimuth="28"/>
    </feSpecularLighting>
    <feComposite in="spec" in2="SourceGraphic" operator="in" result="sm"/>
    <feComposite in="SourceGraphic" in2="sm" operator="arithmetic" k1="0" k2="1" k3="0.78" k4="0"/>
  </filter>

  <!-- Sketch wobble -->
  <filter id="skr1x1751" x="-8%" y="-8%" width="116%" height="116%">
    <feTurbulence type="fractalNoise" baseFrequency="0.038"
        numOctaves="3" seed="30" result="noise"/>
    <feDisplacementMap in="SourceGraphic" in2="noise" scale="2.6"
        xChannelSelector="R" yChannelSelector="G" result="w"/>
    <feComposite in="w" in2="SourceGraphic" operator="atop"/>
  </filter>

  <!-- Glow: sharp accent -->
  <filter id="glowr1x1751" x="-20%" y="-20%" width="140%" height="140%">
    <feGaussianBlur stdDeviation="3.5" result="b"/>
    <feColorMatrix in="b" type="matrix"
        values="0 0 0 0 1  0 0 0 0 1  0 0 0 0 1  0 0 0 1.8 0" result="boost"/>
    <feMerge><feMergeNode in="boost"/><feMergeNode in="SourceGraphic"/></feMerge>
  </filter>

  <!-- Bloom: wide soft -->
  <filter id="bloomr1x1751" x="-40%" y="-40%" width="180%" height="180%">
    <feGaussianBlur stdDeviation="11" result="b"/>
    <feMerge><feMergeNode in="b"/><feMergeNode in="SourceGraphic"/></feMerge>
  </filter>

  </defs><rect width="1000" height="1000" fill="url(#bgr1x1751)"/><ellipse cx="500.0" cy="1000" rx="850.0" ry="350.0" fill="#ff4500" fill-opacity=".11" filter="url(#bloomr1x1751)"/><ellipse cx="500.0" cy="892.0" rx="350.0" ry="65.0" fill="rgba(0,0,0,.7)" filter="url(#bloomr1x1751)"/><ellipse cx="500.0" cy="889.0" rx="220.0" ry="34.0" fill="rgba(0,0,0,.45)"/><ellipse cx="500.0" cy="520.0" rx="320.0" ry="480.0" fill="#6600ff" fill-opacity=".042" filter="url(#bloomr1x1751)"/><circle cx="710.0" cy="615.6" r="1.6" fill="#6600ff" fill-opacity="0.84" filter="url(#glowr1x1751)"/><circle cx="623.8" cy="367.1" r="0.8" fill="#6600ff" fill-opacity="0.52" filter="url(#glowr1x1751)"/><circle cx="393.8" cy="497.8" r="1.0" fill="#6600ff" fill-opacity="0.61" filter="url(#glowr1x1751)"/><circle cx="349.3" cy="207.3" r="0.6" fill="#6600ff" fill-opacity="0.55" filter="url(#glowr1x1751)"/><circle cx="563.3" cy="715.8" r="2.4" fill="#6600ff" fill-opacity="0.68" filter="url(#glowr1x1751)"/><circle cx="712.8" cy="181.7" r="0.6" fill="#6600ff" fill-opacity="0.81" filter="url(#glowr1x1751)"/><circle cx="518.5" cy="761.7" r="1.2" fill="#6600ff" fill-opacity="0.47" filter="url(#glowr1x1751)"/><circle cx="571.1" cy="470.4" r="1.9" fill="#6600ff" fill-opacity="0.69" filter="url(#glowr1x1751)"/><circle cx="412.1" cy="224.4" r="1.1" fill="#6600ff" fill-opacity="0.70" filter="url(#glowr1x1751)"/><circle cx="636.8" cy="562.8" r="0.7" fill="#6600ff" fill-opacity="0.89" filter="url(#glowr1x1751)"/><circle cx="290.4" cy="426.0" r="3.7" fill="#6600ff" fill-opacity="0.42" filter="url(#glowr1x1751)"/><circle cx="314.6" cy="543.8" r="0.9" fill="#6600ff" fill-opacity="0.43" filter="url(#glowr1x1751)"/><circle cx="610.0" cy="590.7" r="2.2" fill="#6600ff" fill-opacity="0.70" filter="url(#glowr1x1751)"/><circle cx="396.0" cy="628.8" r="2.4" fill="#6600ff" fill-opacity="0.75" filter="url(#glowr1x1751)"/><polygon points="399.8,663.4 489.1,661.7 482.0,877.2 386.0,876.5" fill="url(#suitr1x1751)" stroke="#ff44aa" stroke-width="2.2" filter="url(#skr1x1751) url(#metalr1x1751)"/><polygon points="397.5,663.5 488.6,662.2 481.3,878.4 387.7,879.0" fill="url(#carbonr1x1751)"/><polygon points="390.9,723.1 493.5,724.8 485.3,787.8 382.3,790.0" fill="url(#bevelr1x1751)" fill-opacity=".5" stroke="#ff44aa" stroke-width="1.4" filter="url(#skr1x1751)"/><polygon points="511.9,660.8 601.1,662.3 612.0,875.9 520.5,876.4" fill="url(#suitr1x1751)" stroke="#ff44aa" stroke-width="2.2" filter="url(#skr1x1751) url(#metalr1x1751)"/><polygon points="510.4,662.3 602.5,660.9 613.0,876.0 518.0,876.6" fill="url(#carbonr1x1751)"/><polygon points="506.2,723.8 605.8,722.3 615.4,786.9 517.2,787.3" fill="url(#bevelr1x1751)" fill-opacity=".5" stroke="#ff44aa" stroke-width="1.4" filter="url(#skr1x1751)"/><rect x="392.1" y="838.4" width="100.3" height="24.7" fill="url(#bevelr1x1751)" stroke="#ff44aa" stroke-width="1" filter="url(#skr1x1751)"/><rect x="507.1"  y="839.1" width="100.3" height="24.7" fill="url(#bevelr1x1751)" stroke="#ff44aa" stroke-width="1" filter="url(#skr1x1751)"/><polygon points="370.2,878.6 495.7,878.1 503.3,922.8 364.1,922.8" fill="#880050" stroke="#ff44aa" stroke-width="2" filter="url(#skr1x1751)"/><polygon points="504.6,878.3 629.3,877.2 638.3,923.3 496.3,920.3" fill="#880050" stroke="#ff44aa" stroke-width="2" filter="url(#skr1x1751)"/><polygon points="304.9,633.2 695.7,632.7 636.9,683.8 362.4,682.4" fill="#ff44aa" fill-opacity=".52" stroke="#ff44aa" stroke-width="2" filter="url(#skr1x1751)"/><rect x="465.3" y="638.8" width="72.0" height="42.0" fill="url(#bevelr1x1751)" stroke="#ff44aa" stroke-width="1.4" filter="url(#glowr1x1751)"/><rect x="484.6" y="640.0" width="28.0" height="22.0" rx="1" fill="rgba(255,255,255,.48)"/><polygon points="152.1,467.7 233.7,467.5 258.7,735.0 128.9,736.5" fill="url(#suitr1x1751)" stroke="#ff44aa" stroke-width="2.2" filter="url(#skr1x1751) url(#metalr1x1751)"/><polygon points="172.8,433.5 254.7,433.2 241.6,511.8 159.7,511.7" fill="url(#bevelr1x1751)" fill-opacity=".72" stroke="#ff44aa" stroke-width="2.2" filter="url(#skr1x1751)"/><polygon points="160.2,621.4 242.7,621.9 239.8,662.1 164.4,662.6" fill="#ff44aa" fill-opacity=".42" stroke="#ff44aa" stroke-width="1" filter="url(#skr1x1751)"/><polygon points="764.4,467.7 845.3,466.0 872.6,736.5 741.2,733.9" fill="url(#suitr1x1751)" stroke="#ff44aa" stroke-width="2.2" filter="url(#skr1x1751) url(#metalr1x1751)"/><polygon points="747.9,433.3 827.3,431.2 839.3,509.9 756.3,510.2" fill="url(#bevelr1x1751)" fill-opacity=".72" stroke="#ff44aa" stroke-width="2.2" filter="url(#skr1x1751)"/><polygon points="756.3,622.6 838.8,621.0 834.2,659.3 759.7,659.4" fill="#ff44aa" fill-opacity=".42" stroke="#ff44aa" stroke-width="1" filter="url(#skr1x1751)"/><rect x="121.2"  y="701.0" width="135.3" height="85.0" rx="4" fill="url(#bevelr1x1751)" stroke="#ff44aa" stroke-width="1.8" filter="url(#skr1x1751)"/><rect x="748.7"   y="701.5" width="135.3" height="85.0" rx="4" fill="url(#bevelr1x1751)" stroke="#ff44aa" stroke-width="1.8" filter="url(#skr1x1751)"/><line x1="151.0" y1="701.7" x2="148.2" y2="782.1" stroke="#ff44aa" stroke-opacity=".38" stroke-width="1"/><line x1="777.8" y1="702.0" x2="778.4" y2="785.5" stroke="#ff44aa" stroke-opacity=".38" stroke-width="1"/><line x1="181.3" y1="702.5" x2="183.1" y2="783.3" stroke="#ff44aa" stroke-opacity=".38" stroke-width="1"/><line x1="810.0" y1="702.3" x2="810.0" y2="783.5" stroke="#ff44aa" stroke-opacity=".38" stroke-width="1"/><line x1="216.7" y1="703.5" x2="214.9" y2="783.7" stroke="#ff44aa" stroke-opacity=".38" stroke-width="1"/><line x1="842.3" y1="702.7" x2="843.5" y2="784.5" stroke="#ff44aa" stroke-opacity=".38" stroke-width="1"/><polygon points="233.6,415.8 764.3,416.0 723.2,662.1 277.9,661.3" fill="url(#suitr1x1751)" stroke="#ff44aa" stroke-width="2.6" filter="url(#skr1x1751) url(#metalr1x1751)"/><polygon points="235.6,416.7 763.4,416.1 724.0,664.0 276.5,660.7" fill="url(#carbonr1x1751)"/><polygon points="368.1,418.6 630.9,418.0 610.6,516.8 388.4,514.7" fill="url(#suitHir1x1751)"/><line x1="361.6" y1="472.1" x2="637.4" y2="470.5" stroke="#ff44aa" stroke-opacity=".52" stroke-width="1.3" filter="url(#skr1x1751)"/><line x1="399.8" y1="550.3" x2="601.2" y2="548.7" stroke="#ff44aa" stroke-opacity=".52" stroke-width="1.3" filter="url(#skr1x1751)"/><line x1="267.7" y1="490.6" x2="320.5" y2="490.9" stroke="#ff44aa" stroke-opacity=".62" stroke-width="1.8"/><line x1="681.4" y1="490.9" x2="734.6" y2="492.2" stroke="#ff44aa" stroke-opacity=".62" stroke-width="1.8"/><line x1="267.2" y1="523.2" x2="319.6" y2="524.2" stroke="#ff44aa" stroke-opacity=".62" stroke-width="1.8"/><line x1="679.5" y1="524.3" x2="733.7" y2="523.6" stroke="#ff44aa" stroke-opacity=".62" stroke-width="1.8"/><line x1="266.1" y1="555.0" x2="318.4" y2="555.5" stroke="#ff44aa" stroke-opacity=".62" stroke-width="1.8"/><line x1="680.9" y1="554.7" x2="732.9" y2="555.7" stroke="#ff44aa" stroke-opacity=".62" stroke-width="1.8"/><line x1="266.1" y1="587.6" x2="321.2" y2="587.2" stroke="#ff44aa" stroke-opacity=".62" stroke-width="1.8"/><line x1="680.3" y1="588.0" x2="734.9" y2="585.4" stroke="#ff44aa" stroke-opacity=".62" stroke-width="1.8"/><g filter="url(#glowr1x1751)"><polygon points="499.9,453.9 514.9,491.1 554.9,494.1 525.6,519.1 533.9,556.0 498.6,536.4 464.4,556.2 475.4,516.8 444.1,491.7 486.5,488.4 " fill="#ff44aa" stroke="#1e0600" stroke-width="1.4" filter="url(#skr1x1751)"/><polygon points="499.9,453.9 514.9,491.1 554.9,494.1 525.6,519.1 533.9,556.0 498.6,536.4 464.4,556.2 475.4,516.8 444.1,491.7 486.5,488.4 " fill="url(#suitHir1x1751)" opacity=".45"/></g><g><rect x="829.8567700173334" y="421.9894927498884" width="148.0" height="82.0" rx="5" fill="url(#gunmetalr1x1751)" stroke="#ff44aa" stroke-width="2" filter="url(#wmr1x1751)"/><rect x="829.6955339065381" y="422.4727985757403" width="148.0" height="82.0" rx="5" fill="url(#carbonr1x1751)"/><rect x="838.7103905884177" y="403.26887945123013" width="90.0" height="22.0" rx="3" fill="url(#barrelr1x1751)" stroke="#ff44aa" stroke-width="1" filter="url(#wmr1x1751)"/><circle cx="876.326616427172" cy="414.10524013563986" r="15.0" fill="#ff44aa" opacity=".8" filter="url(#glowr1x1751)"/><circle cx="877.7032398033515" cy="412.9485134695656" r="6.0" fill="rgba(255,255,255,.9)"/><rect x="947.5273580021784" y="453.79568946612994" width="78.0" height="36.0" rx="5" fill="url(#barrelr1x1751)" stroke="#ff44aa" stroke-width="1.2" filter="url(#wmr1x1751)"/><circle cx="1019.1904478385673" cy="471.6010335982777" r="18.0" fill="#ff44aa" filter="url(#glowr1x1751)" opacity=".88"/><circle cx="1021.1947471839004" cy="471.54208777537565" r="7.0" fill="#ffffff"/><rect x="872.3977383080497" y="501.62147103687744" width="44.0" height="42.0" rx="3" fill="url(#gunmetalr1x1751)" stroke="#ff44aa" stroke-width="1" filter="url(#wmr1x1751)"/><rect x="832.9405439368077" y="424.4429894317873" width="90.0" height="10.0" rx="2" fill="rgba(255,255,255,.22)"/><line x1="858.7695900560916" y1="486.3242157927714" x2="856.6387225471065" y2="520.0879554877989" stroke="#ff44aa" stroke-opacity=".5" stroke-width="1.2"/><line x1="874.5889371643402" y1="487.5579693200998" x2="873.3894495344349" y2="521.038937926013" stroke="#ff44aa" stroke-opacity=".5" stroke-width="1.2"/><line x1="890.883082323391" y1="488.0745702203363" x2="891.6001599383168" y2="520.7561421672814" stroke="#ff44aa" stroke-opacity=".5" stroke-width="1.2"/></g><rect x="449.4064104189165" y="557.0933558143676" width="100.0"  height="56.0" fill="#880050" stroke="#ff44aa" stroke-width="2.2" filter="url(#skr1x1751)"/><rect x="423.9160780527629" y="576.2693402181379" width="152.0" height="26.0" fill="url(#bevelr1x1751)" fill-opacity=".65" stroke="#ff44aa" stroke-width="1.2" filter="url(#skr1x1751)"/><polygon points="308.5,381.4 349.2,294.4 500.0,279.3 649.9,294.8 693.3,382.1 670.4,505.2 501.7,563.8 332.7,504.0" fill="url(#suitr1x1751)" stroke="#ff44aa" stroke-width="2.8" filter="url(#skr1x1751) url(#metalr1x1751)"/><polygon points="309.5,379.0 350.2,293.2 499.5,279.1 648.3,293.8 692.8,380.9 667.3,502.2 499.1,566.4 332.0,504.5" fill="url(#carbonr1x1751)"/><polygon points="382.6,301.7 501.2,286.1 617.4,303.9 608.3,380.9 393.0,379.4" fill="url(#suitHir1x1751)"/><polygon points="380.8,379.0 364.0,427.2 432.6,502.0 499.6,529.5 568.7,502.2 634.3,426.8 618.5,379.7" fill="#1e0600" fill-opacity=".88" stroke="#ff44aa" stroke-width="1.8" filter="url(#skr1x1751)"/><polygon points="382.5,413.0 476.6,409.7 483.7,440.9 390.0,441.7" fill="#ff44aa" filter="url(#glowr1x1751)"/><polygon points="524.6,412.8 618.9,410.9 609.8,440.2 514.7,439.6" fill="#ff44aa" filter="url(#glowr1x1751)"/><ellipse cx="430.9" cy="425.7" rx="38.4"  ry="8.2" fill="#ffffff" opacity=".88"/><ellipse cx="569.1" cy="425.7" rx="38.4"  ry="8.2" fill="#ffffff" opacity=".88"/><line x1="483.1310650216974" y1="412.97884393678976" x2="516.6058267804235" y2="413.1558875022456" stroke="#ff44aa" stroke-opacity=".52" stroke-width="2"/><line x1="484.60082130149004" y1="436.5802665512077" x2="513.5776451525651" y2="439.5620164403692" stroke="#ff44aa" stroke-opacity=".52" stroke-width="2"/><line x1="501.477336679399" y1="453.8085104770958" x2="501.57131051421163" y2="484.30371854472907" stroke="#ff44aa" stroke-opacity=".58" stroke-width="2.2" filter="url(#skr1x1751)"/><line x1="453.3900767142698" y1="489.84804898137224" x2="452.6648396217078" y2="518.7033671290613" stroke="#ff44aa" stroke-opacity=".52" stroke-width="1.5" filter="url(#skr1x1751)"/><line x1="475.96514063471926" y1="492.09160383678966" x2="475.87221716972067" y2="520.967913597636" stroke="#ff44aa" stroke-opacity=".52" stroke-width="1.5" filter="url(#skr1x1751)"/><line x1="500.08326936662195" y1="490.38572721732777" x2="501.19452416943386" y2="521.4407038364559" stroke="#ff44aa" stroke-opacity=".52" stroke-width="1.5" filter="url(#skr1x1751)"/><line x1="523.3328226497955" y1="492.8028455155901" x2="523.5045947164856" y2="519.8741452134215" stroke="#ff44aa" stroke-opacity=".52" stroke-width="1.5" filter="url(#skr1x1751)"/><line x1="546.1138393750601" y1="492.4829154514707" x2="547.368678780105" y2="519.5994220212102" stroke="#ff44aa" stroke-opacity=".52" stroke-width="1.5" filter="url(#skr1x1751)"/><polygon points="433.4,503.0 565.8,502.3 555.2,558.1 447.2,556.2" fill="#880050" fill-opacity=".72" stroke="#ff44aa" stroke-width="1.3" filter="url(#skr1x1751)"/><text x="30.0"  y="975.0" font-family="monospace" font-weight="bold" font-size="22.0" fill="rgba(255,255,255,.22)">#0001</text><text x="500.0"   y="975.0" text-anchor="middle" font-family="monospace" font-weight="bold" font-size="22.0" fill="#ff44aa" fill-opacity=".48">SAKURA RANGER</text><text x="970.0" y="975.0" text-anchor="end"    font-family="monospace" font-weight="bold" font-size="22.0" fill="#ff44aa" fill-opacity=".32">MECH RANGERS</text></svg>