<svg xmlns="http://www.w3.org/2000/svg" viewBox="0 0 1000 1000" width="1000" height="1000" shape-rendering="geometricPrecision"><defs>

  <!-- Scene gradients -->
  <radialGradient id="bgr1x1766" cx="50%" cy="42%" r="72%">
    <stop offset="0%"   stop-color="#1a2814"/>
    <stop offset="100%" stop-color="#0d1520"/>
  </radialGradient>
  <linearGradient id="suitr1x1766" x1="8%" y1="0%" x2="92%" y2="100%">
    <stop offset="0%"   stop-color="#ccccff" stop-opacity=".95"/>
    <stop offset="45%"  stop-color="#242438"/>
    <stop offset="100%" stop-color="#0d1520"/>
  </linearGradient>
  <linearGradient id="suitHir1x1766" x1="0%" y1="0%" x2="0%" y2="100%">
    <stop offset="0%"   stop-color="rgba(255,255,255,.28)"/>
    <stop offset="60%"  stop-color="rgba(255,255,255,.04)"/>
    <stop offset="100%" stop-color="rgba(255,255,255,0)"/>
  </linearGradient>
  <!-- Bevel: bright top, dark bottom for armour panels -->
  <linearGradient id="bevelr1x1766" x1="0%" y1="0%" x2="0%" y2="100%">
    <stop offset="0%"   stop-color="rgba(255,255,255,.55)"/>
    <stop offset="30%"  stop-color="#ccccff"/>
    <stop offset="70%"  stop-color="#242438"/>
    <stop offset="100%" stop-color="rgba(0,0,0,.5)"/>
  </linearGradient>

  <!-- Weapon: cold steel blade sweep -->
  <linearGradient id="blader1x1766" x1="0%" y1="0%" x2="100%" y2="0%">
    <stop offset="0%"   stop-color="#0e0e20"/>
    <stop offset="16%"  stop-color="#3e3e58"/>
    <stop offset="34%"  stop-color="#c8c8e0"/>
    <stop offset="50%"  stop-color="#f5f5ff"/>
    <stop offset="66%"  stop-color="#b8b8d0"/>
    <stop offset="84%"  stop-color="#2e2e48"/>
    <stop offset="100%" stop-color="#08080e"/>
  </linearGradient>
  <!-- Blade tip brightening -->
  <linearGradient id="bladeTipr1x1766" x1="0%" y1="100%" x2="0%" y2="0%">
    <stop offset="0%"   stop-color="rgba(255,255,255,0)"/>
    <stop offset="55%"  stop-color="rgba(255,255,255,.1)"/>
    <stop offset="100%" stop-color="rgba(255,255,255,.55)"/>
  </linearGradient>
  <!-- Gunmetal anodised — blaster body -->
  <linearGradient id="gunmetalr1x1766" x1="0%" y1="0%" x2="0%" y2="100%">
    <stop offset="0%"   stop-color="#46465e"/>
    <stop offset="18%"  stop-color="#828296"/>
    <stop offset="42%"  stop-color="#26263a"/>
    <stop offset="72%"  stop-color="#16162a"/>
    <stop offset="100%" stop-color="#0c0c18"/>
  </linearGradient>
  <!-- Brushed steel tube — barrel/rod -->
  <linearGradient id="barrelr1x1766" x1="0%" y1="0%" x2="100%" y2="0%">
    <stop offset="0%"   stop-color="#0a0a14"/>
    <stop offset="24%"  stop-color="#585875"/>
    <stop offset="50%"  stop-color="#a8a8c8"/>
    <stop offset="76%"  stop-color="#383852"/>
    <stop offset="100%" stop-color="#0a0a14"/>
  </linearGradient>
  <!-- Chrome rod — lance shaft -->
  <linearGradient id="chromer1x1766" x1="0%" y1="0%" x2="100%" y2="0%">
    <stop offset="0%"   stop-color="#0c0c18"/>
    <stop offset="20%"  stop-color="#686888"/>
    <stop offset="44%"  stop-color="#e0e0f0"/>
    <stop offset="56%"  stop-color="#c0c0d8"/>
    <stop offset="80%"  stop-color="#28283e"/>
    <stop offset="100%" stop-color="#0c0c18"/>
  </linearGradient>
  <!-- Titanium plate — shield face -->
  <linearGradient id="titaniumr1x1766" x1="0%" y1="0%" x2="100%" y2="100%">
    <stop offset="0%"   stop-color="#585878"/>
    <stop offset="28%"  stop-color="#ccccff" stop-opacity=".88"/>
    <stop offset="55%"  stop-color="#242438"/>
    <stop offset="80%"  stop-color="#181828"/>
    <stop offset="100%" stop-color="#0a0a18"/>
  </linearGradient>
  <!-- Artillery black-chrome — cannon body -->
  <linearGradient id="artilleryr1x1766" x1="0%" y1="0%" x2="0%" y2="100%">
    <stop offset="0%"   stop-color="#383850"/>
    <stop offset="14%"  stop-color="#78789a"/>
    <stop offset="36%"  stop-color="#202034"/>
    <stop offset="65%"  stop-color="#14141e"/>
    <stop offset="100%" stop-color="#0a0a12"/>
  </linearGradient>
  <!-- Energy orb — staff -->
  <radialGradient id="orbr1x1766" cx="35%" cy="35%" r="65%">
    <stop offset="0%"   stop-color="rgba(255,255,255,.9)"/>
    <stop offset="30%"  stop-color="#ccccff"/>
    <stop offset="68%"  stop-color="#242438"/>
    <stop offset="100%" stop-color="rgba(0,0,0,.6)"/>
  </radialGradient>
  <!-- Knuckle plate chrome -->
  <linearGradient id="knuckler1x1766" x1="0%" y1="0%" x2="0%" y2="100%">
    <stop offset="0%"   stop-color="#888aaa"/>
    <stop offset="32%"  stop-color="#ccccff" stop-opacity=".8"/>
    <stop offset="62%"  stop-color="#1a1a2c"/>
    <stop offset="100%" stop-color="#0a0a14"/>
  </linearGradient>

  <!-- Carbon fibre weave texture overlay -->
  <pattern id="carbonr1x1766" width="6" height="6" patternUnits="userSpaceOnUse">
    <rect width="6" height="6" fill="rgba(0,0,0,.08)"/>
    <rect x="0" y="0" width="3" height="3" fill="rgba(255,255,255,.022)"/>
    <rect x="3" y="3" width="3" height="3" fill="rgba(255,255,255,.022)"/>
    <line x1="0" y1="0" x2="3" y2="3" stroke="rgba(255,255,255,.038)" stroke-width=".5"/>
    <line x1="3" y1="0" x2="6" y2="3" stroke="rgba(0,0,0,.055)"       stroke-width=".5"/>
    <line x1="0" y1="3" x2="3" y2="6" stroke="rgba(0,0,0,.055)"       stroke-width=".5"/>
    <line x1="3" y1="3" x2="6" y2="6" stroke="rgba(255,255,255,.038)" stroke-width=".5"/>
  </pattern>

  <!-- Specular metal sheen on armour panels -->
  <filter id="metalr1x1766" x="-5%" y="-5%" width="110%" height="110%">
    <feSpecularLighting surfaceScale="4" specularConstant="1.8"
        specularExponent="42" lighting-color="#ffffff" result="spec">
      <feDistantLight elevation="52" azimuth="38"/>
    </feSpecularLighting>
    <feComposite in="spec" in2="SourceGraphic" operator="in" result="sm"/>
    <feComposite in="SourceGraphic" in2="sm" operator="arithmetic" k1="0" k2="1" k3="0.55" k4="0"/>
  </filter>

  <!-- Sharper specular for weapons — heavier glare -->
  <filter id="wmr1x1766" x="-8%" y="-8%" width="116%" height="116%">
    <feSpecularLighting surfaceScale="6" specularConstant="2.4"
        specularExponent="65" lighting-color="#ffffff" result="spec">
      <feDistantLight elevation="44" azimuth="28"/>
    </feSpecularLighting>
    <feComposite in="spec" in2="SourceGraphic" operator="in" result="sm"/>
    <feComposite in="SourceGraphic" in2="sm" operator="arithmetic" k1="0" k2="1" k3="0.78" k4="0"/>
  </filter>

  <!-- Sketch wobble -->
  <filter id="skr1x1766" x="-8%" y="-8%" width="116%" height="116%">
    <feTurbulence type="fractalNoise" baseFrequency="0.038"
        numOctaves="3" seed="11" result="noise"/>
    <feDisplacementMap in="SourceGraphic" in2="noise" scale="2.6"
        xChannelSelector="R" yChannelSelector="G" result="w"/>
    <feComposite in="w" in2="SourceGraphic" operator="atop"/>
  </filter>

  <!-- Glow: sharp accent -->
  <filter id="glowr1x1766" x="-20%" y="-20%" width="140%" height="140%">
    <feGaussianBlur stdDeviation="3.5" result="b"/>
    <feColorMatrix in="b" type="matrix"
        values="0 0 0 0 1  0 0 0 0 1  0 0 0 0 1  0 0 0 1.8 0" result="boost"/>
    <feMerge><feMergeNode in="boost"/><feMergeNode in="SourceGraphic"/></feMerge>
  </filter>

  <!-- Bloom: wide soft -->
  <filter id="bloomr1x1766" x="-40%" y="-40%" width="180%" height="180%">
    <feGaussianBlur stdDeviation="11" result="b"/>
    <feMerge><feMergeNode in="b"/><feMergeNode in="SourceGraphic"/></feMerge>
  </filter>

  </defs><rect width="1000" height="1000" fill="url(#bgr1x1766)"/><ellipse cx="500.0" cy="892.0" rx="350.0" ry="65.0" fill="rgba(0,0,0,.7)" filter="url(#bloomr1x1766)"/><ellipse cx="500.0" cy="889.0" rx="220.0" ry="34.0" fill="rgba(0,0,0,.45)"/><ellipse cx="500.0" cy="520.0" rx="320.0" ry="480.0" fill="#00e5ff" fill-opacity=".042" filter="url(#bloomr1x1766)"/><circle cx="273.8" cy="679.9" r="3.5" fill="#00e5ff" fill-opacity="0.68" filter="url(#glowr1x1766)"/><circle cx="406.7" cy="574.7" r="0.7" fill="#00e5ff" fill-opacity="0.62" filter="url(#glowr1x1766)"/><circle cx="279.1" cy="642.1" r="2.5" fill="#00e5ff" fill-opacity="0.48" filter="url(#glowr1x1766)"/><circle cx="432.6" cy="184.3" r="2.3" fill="#00e5ff" fill-opacity="0.79" filter="url(#glowr1x1766)"/><circle cx="487.3" cy="268.1" r="1.7" fill="#00e5ff" fill-opacity="0.46" filter="url(#glowr1x1766)"/><circle cx="567.8" cy="431.4" r="0.7" fill="#00e5ff" fill-opacity="0.66" filter="url(#glowr1x1766)"/><circle cx="291.1" cy="482.0" r="2.5" fill="#00e5ff" fill-opacity="0.52" filter="url(#glowr1x1766)"/><circle cx="617.9" cy="723.6" r="4.1" fill="#00e5ff" fill-opacity="0.59" filter="url(#glowr1x1766)"/><circle cx="328.1" cy="180.3" r="2.8" fill="#00e5ff" fill-opacity="0.70" filter="url(#glowr1x1766)"/><circle cx="604.3" cy="407.6" r="1.5" fill="#00e5ff" fill-opacity="0.64" filter="url(#glowr1x1766)"/><circle cx="513.1" cy="681.9" r="1.3" fill="#00e5ff" fill-opacity="0.40" filter="url(#glowr1x1766)"/><circle cx="742.2" cy="198.8" r="4.2" fill="#00e5ff" fill-opacity="0.74" filter="url(#glowr1x1766)"/><circle cx="531.4" cy="385.0" r="2.6" fill="#00e5ff" fill-opacity="0.72" filter="url(#glowr1x1766)"/><circle cx="316.2" cy="556.2" r="2.5" fill="#00e5ff" fill-opacity="0.52" filter="url(#glowr1x1766)"/><path d="M375.7,229.6 Q397.8,544.7 477.0,871.8" stroke="#00e5ff" stroke-opacity="0.71" stroke-width="2.5" fill="none" filter="url(#glowr1x1766)"/><path d="M698.0,162.3 Q653.8,382.2 338.9,603.9" stroke="#00e5ff" stroke-opacity="0.56" stroke-width="1.1" fill="none" filter="url(#glowr1x1766)"/><path d="M665.8,195.5 Q664.4,478.7 593.2,801.4" stroke="#00e5ff" stroke-opacity="0.48" stroke-width="2.2" fill="none" filter="url(#glowr1x1766)"/><path d="M614.1,308.0 Q630.1,622.7 399.8,891.8" stroke="#00e5ff" stroke-opacity="0.78" stroke-width="1.9" fill="none" filter="url(#glowr1x1766)"/><path d="M333.1,324.5 Q292.8,611.7 541.1,851.0" stroke="#00e5ff" stroke-opacity="0.45" stroke-width="2.8" fill="none" filter="url(#glowr1x1766)"/><polygon points="400.6,663.0 491.0,662.4 480.5,878.9 388.8,876.1" fill="url(#suitr1x1766)" stroke="#ccccff" stroke-width="2.2" filter="url(#skr1x1766) url(#metalr1x1766)"/><polygon points="397.3,663.6 491.0,662.8 480.5,878.5 389.0,877.5" fill="url(#carbonr1x1766)"/><polygon points="393.3,723.2 492.5,722.9 483.4,788.1 382.4,789.8" fill="url(#bevelr1x1766)" fill-opacity=".5" stroke="#ccccff" stroke-width="1.4" filter="url(#skr1x1766)"/><polygon points="511.2,661.0 600.1,662.7 611.2,876.4 521.0,876.1" fill="url(#suitr1x1766)" stroke="#ccccff" stroke-width="2.2" filter="url(#skr1x1766) url(#metalr1x1766)"/><polygon points="512.1,661.3 601.3,662.2 610.9,876.6 519.0,876.5" fill="url(#carbonr1x1766)"/><polygon points="507.6,723.2 608.3,723.9 614.6,789.0 514.6,789.3" fill="url(#bevelr1x1766)" fill-opacity=".5" stroke="#ccccff" stroke-width="1.4" filter="url(#skr1x1766)"/><rect x="392.8" y="837.2" width="100.3" height="24.7" fill="url(#bevelr1x1766)" stroke="#ccccff" stroke-width="1" filter="url(#skr1x1766)"/><rect x="506.5"  y="840.2" width="100.3" height="24.7" fill="url(#bevelr1x1766)" stroke="#ccccff" stroke-width="1" filter="url(#skr1x1766)"/><polygon points="369.4,878.5 495.1,877.5 505.0,920.1 364.0,922.1" fill="#242438" stroke="#ccccff" stroke-width="2" filter="url(#skr1x1766)"/><polygon points="502.9,876.4 629.7,875.9 637.5,923.2 495.1,920.6" fill="#242438" stroke="#ccccff" stroke-width="2" filter="url(#skr1x1766)"/><polygon points="302.5,632.1 697.9,634.1 636.3,681.0 362.2,681.1" fill="#ccccff" fill-opacity=".52" stroke="#ccccff" stroke-width="2" filter="url(#skr1x1766)"/><rect x="463.2" y="637.2" width="72.0" height="42.0" fill="url(#bevelr1x1766)" stroke="#ccccff" stroke-width="1.4" filter="url(#glowr1x1766)"/><rect x="486.0" y="641.5" width="28.0" height="22.0" rx="1" fill="rgba(255,255,255,.48)"/><polygon points="154.6,465.3 236.5,465.7 256.4,736.0 128.9,734.6" fill="url(#suitr1x1766)" stroke="#ccccff" stroke-width="2.2" filter="url(#skr1x1766) url(#metalr1x1766)"/><polygon points="172.3,433.0 253.4,432.1 244.8,512.0 158.0,511.7" fill="url(#bevelr1x1766)" fill-opacity=".72" stroke="#ccccff" stroke-width="2.2" filter="url(#skr1x1766)"/><polygon points="162.6,623.0 241.9,621.0 240.0,662.0 164.2,662.7" fill="#ccccff" fill-opacity=".42" stroke="#ccccff" stroke-width="1" filter="url(#skr1x1766)"/><polygon points="766.8,465.9 847.7,466.9 872.4,736.7 743.7,734.8" fill="url(#suitr1x1766)" stroke="#ccccff" stroke-width="2.2" filter="url(#skr1x1766) url(#metalr1x1766)"/><polygon points="748.5,431.0 825.4,431.3 839.8,512.3 755.4,511.6" fill="url(#bevelr1x1766)" fill-opacity=".72" stroke="#ccccff" stroke-width="2.2" filter="url(#skr1x1766)"/><polygon points="757.4,621.9 840.4,623.1 836.1,660.2 761.5,661.8" fill="#ccccff" fill-opacity=".42" stroke="#ccccff" stroke-width="1" filter="url(#skr1x1766)"/><rect x="121.1"  y="699.9" width="135.3" height="85.0" rx="4" fill="url(#bevelr1x1766)" stroke="#ccccff" stroke-width="1.8" filter="url(#skr1x1766)"/><rect x="750.1"   y="699.5" width="135.3" height="85.0" rx="4" fill="url(#bevelr1x1766)" stroke="#ccccff" stroke-width="1.8" filter="url(#skr1x1766)"/><line x1="149.5" y1="702.1" x2="148.0" y2="782.1" stroke="#ccccff" stroke-opacity=".38" stroke-width="1"/><line x1="779.9" y1="700.3" x2="779.3" y2="782.6" stroke="#ccccff" stroke-opacity=".38" stroke-width="1"/><line x1="182.2" y1="703.3" x2="183.0" y2="784.5" stroke="#ccccff" stroke-opacity=".38" stroke-width="1"/><line x1="810.9" y1="700.6" x2="812.3" y2="784.4" stroke="#ccccff" stroke-opacity=".38" stroke-width="1"/><line x1="216.9" y1="703.0" x2="215.5" y2="782.2" stroke="#ccccff" stroke-opacity=".38" stroke-width="1"/><line x1="845.1" y1="703.5" x2="845.4" y2="782.4" stroke="#ccccff" stroke-opacity=".38" stroke-width="1"/><polygon points="234.4,416.7 766.1,418.8 720.9,661.9 277.5,664.1" fill="url(#suitr1x1766)" stroke="#ccccff" stroke-width="2.6" filter="url(#skr1x1766) url(#metalr1x1766)"/><polygon points="235.3,419.1 763.4,416.3 724.3,661.5 277.8,662.0" fill="url(#carbonr1x1766)"/><polygon points="367.5,417.1 630.9,417.5 609.6,515.3 390.3,515.7" fill="url(#suitHir1x1766)"/><line x1="363.1" y1="470.5" x2="639.2" y2="473.1" stroke="#ccccff" stroke-opacity=".52" stroke-width="1.3" filter="url(#skr1x1766)"/><line x1="400.0" y1="549.9" x2="599.9" y2="549.9" stroke="#ccccff" stroke-opacity=".52" stroke-width="1.3" filter="url(#skr1x1766)"/><line x1="266.9" y1="489.6" x2="318.9" y2="491.7" stroke="#ccccff" stroke-opacity=".62" stroke-width="1.8"/><line x1="681.0" y1="492.6" x2="731.5" y2="489.4" stroke="#ccccff" stroke-opacity=".62" stroke-width="1.8"/><line x1="267.6" y1="523.5" x2="318.7" y2="522.7" stroke="#ccccff" stroke-opacity=".62" stroke-width="1.8"/><line x1="680.9" y1="522.0" x2="734.6" y2="524.6" stroke="#ccccff" stroke-opacity=".62" stroke-width="1.8"/><line x1="267.3" y1="556.0" x2="318.6" y2="554.1" stroke="#ccccff" stroke-opacity=".62" stroke-width="1.8"/><line x1="681.6" y1="555.7" x2="735.0" y2="555.8" stroke="#ccccff" stroke-opacity=".62" stroke-width="1.8"/><line x1="266.5" y1="587.0" x2="319.7" y2="585.1" stroke="#ccccff" stroke-opacity=".62" stroke-width="1.8"/><line x1="679.6" y1="587.7" x2="733.9" y2="585.8" stroke="#ccccff" stroke-opacity=".62" stroke-width="1.8"/><g filter="url(#glowr1x1766)"><polygon points="460.8,528.8 463.0,499.6 482.7,469.3 498.3,499.3 518.3,469.2 539.4,497.7 538.4,528.4" fill="#ccccff" stroke="#0d1520" stroke-width="1.4" filter="url(#skr1x1766)"/><polygon points="460.6,528.5 462.4,496.7 482.0,467.6 500.8,498.1 518.9,466.4 538.2,498.3 538.4,530.2" fill="url(#suitHir1x1766)" opacity=".38"/></g><g><rect x="114.5" y="700.7" width="137.8" height="88.0" rx="5" fill="url(#bevelr1x1766)" stroke="#ccccff" stroke-width="2" filter="url(#wmr1x1766)"/><rect x="114.6" y="701.0" width="137.8" height="88.0" rx="5" fill="url(#carbonr1x1766)"/><rect x="748.9"  y="703.2" width="137.8" height="88.0" rx="5" fill="url(#bevelr1x1766)" stroke="#ccccff" stroke-width="2" filter="url(#wmr1x1766)"/><rect x="748.3"  y="700.6" width="137.8" height="88.0" rx="5" fill="url(#carbonr1x1766)"/><rect x="121.2" y="700.9" width="23.0" height="22.0" rx="2" fill="url(#knuckler1x1766)" stroke="#ccccff" stroke-width=".8" filter="url(#wmr1x1766)"/><rect x="753.9" y="700.6" width="23.0" height="22.0" rx="2" fill="url(#knuckler1x1766)" stroke="#ccccff" stroke-width=".8" filter="url(#wmr1x1766)"/><rect x="152.1" y="699.8" width="23.0" height="22.0" rx="2" fill="url(#knuckler1x1766)" stroke="#ccccff" stroke-width=".8" filter="url(#wmr1x1766)"/><rect x="786.2" y="699.7" width="23.0" height="22.0" rx="2" fill="url(#knuckler1x1766)" stroke="#ccccff" stroke-width=".8" filter="url(#wmr1x1766)"/><rect x="179.8" y="698.1" width="23.0" height="22.0" rx="2" fill="url(#knuckler1x1766)" stroke="#ccccff" stroke-width=".8" filter="url(#wmr1x1766)"/><rect x="813.9" y="699.8" width="23.0" height="22.0" rx="2" fill="url(#knuckler1x1766)" stroke="#ccccff" stroke-width=".8" filter="url(#wmr1x1766)"/><rect x="211.2" y="698.7" width="23.0" height="22.0" rx="2" fill="url(#knuckler1x1766)" stroke="#ccccff" stroke-width=".8" filter="url(#wmr1x1766)"/><rect x="842.6" y="700.6" width="23.0" height="22.0" rx="2" fill="url(#knuckler1x1766)" stroke="#ccccff" stroke-width=".8" filter="url(#wmr1x1766)"/><ellipse cx="184.65260925222188" cy="710.8243460310437" rx="45.1" ry="30.0" fill="#ccccff" fill-opacity=".25" filter="url(#glowr1x1766)"/><ellipse cx="816.1010810937919" cy="711.3088352709822" rx="45.1" ry="30.0" fill="#ccccff" fill-opacity=".25" filter="url(#glowr1x1766)"/></g><rect x="449.1051957984455" y="557.8278544992208" width="100.0"  height="56.0" fill="#242438" stroke="#ccccff" stroke-width="2.2" filter="url(#skr1x1766)"/><rect x="425.1452474149875" y="576.063059029635" width="152.0" height="26.0" fill="url(#bevelr1x1766)" fill-opacity=".65" stroke="#ccccff" stroke-width="1.2" filter="url(#skr1x1766)"/><polygon points="306.7,381.7 349.5,294.6 499.3,276.3 649.7,295.9 692.0,380.2 668.2,503.0 499.7,564.0 330.5,502.8" fill="url(#suitr1x1766)" stroke="#ccccff" stroke-width="2.8" filter="url(#skr1x1766) url(#metalr1x1766)"/><polygon points="307.6,379.9 351.9,295.4 499.8,279.6 651.4,295.6 691.9,379.9 669.1,502.4 500.0,563.6 330.2,504.7" fill="url(#carbonr1x1766)"/><polygon points="380.7,301.2 498.9,284.7 620.8,303.9 606.3,381.6 393.9,379.4" fill="url(#suitHir1x1766)"/><polygon points="379.9,379.8 367.0,425.5 431.4,503.7 498.7,526.6 568.5,502.8 634.2,424.1 619.9,380.3" fill="#0d1520" fill-opacity=".88" stroke="#ccccff" stroke-width="1.8" filter="url(#skr1x1766)"/><polygon points="382.0,409.6 476.7,412.0 484.6,439.0 389.6,441.7" fill="#ccccff" filter="url(#glowr1x1766)"/><polygon points="522.8,411.2 618.2,412.2 612.8,441.4 516.2,440.4" fill="#ccccff" filter="url(#glowr1x1766)"/><ellipse cx="430.9" cy="425.7" rx="38.4"  ry="8.2" fill="#ffffff" opacity=".88"/><ellipse cx="569.1" cy="425.7" rx="38.4"  ry="8.2" fill="#ffffff" opacity=".88"/><line x1="483.65980088092385" y1="414.8550477923825" x2="514.8325458075293" y2="412.9411206602119" stroke="#ccccff" stroke-opacity=".52" stroke-width="2"/><line x1="483.10583370529116" y1="439.0990667419508" x2="515.1222750815936" y2="439.3704198718071" stroke="#ccccff" stroke-opacity=".52" stroke-width="2"/><line x1="499.4156579413451" y1="453.81904293019323" x2="500.0548776678741" y2="481.5029475849122" stroke="#ccccff" stroke-opacity=".58" stroke-width="2.2" filter="url(#skr1x1766)"/><line x1="452.6124390635453" y1="491.30556174144147" x2="455.1199074886553" y2="520.2694280774333" stroke="#ccccff" stroke-opacity=".52" stroke-width="1.5" filter="url(#skr1x1766)"/><line x1="477.97830704957244" y1="490.0733474240638" x2="476.9299496843852" y2="520.3047310442664" stroke="#ccccff" stroke-opacity=".52" stroke-width="1.5" filter="url(#skr1x1766)"/><line x1="500.3385253992863" y1="490.93121277531606" x2="500.6053478824906" y2="519.4982253763825" stroke="#ccccff" stroke-opacity=".52" stroke-width="1.5" filter="url(#skr1x1766)"/><line x1="521.6118832105398" y1="492.59914345126595" x2="523.6157013860159" y2="521.674238324631" stroke="#ccccff" stroke-opacity=".52" stroke-width="1.5" filter="url(#skr1x1766)"/><line x1="546.3635566419177" y1="492.54147030301385" x2="547.0123533139192" y2="521.5961921166629" stroke="#ccccff" stroke-opacity=".52" stroke-width="1.5" filter="url(#skr1x1766)"/><polygon points="433.9,503.7 568.2,505.1 553.8,555.5 447.5,556.7" fill="#242438" fill-opacity=".72" stroke="#ccccff" stroke-width="1.3" filter="url(#skr1x1766)"/><polygon points="317.1,304.0 360.6,304.0 338.1,195.2" fill="url(#bevelr1x1766)" fill-opacity=".95" stroke="#ccccff" stroke-width="1.6" filter="url(#skr1x1766) url(#glowr1x1766)"/><polygon points="396.8,306.0 441.6,305.3 419.6,208.1" fill="url(#bevelr1x1766)" fill-opacity=".95" stroke="#ccccff" stroke-width="1.6" filter="url(#skr1x1766) url(#glowr1x1766)"/><polygon points="478.5,306.0 524.2,306.3 501.7,222.5" fill="url(#bevelr1x1766)" fill-opacity=".95" stroke="#ccccff" stroke-width="1.6" filter="url(#skr1x1766) url(#glowr1x1766)"/><polygon points="558.6,303.8 601.9,304.4 579.7,207.7" fill="url(#bevelr1x1766)" fill-opacity=".95" stroke="#ccccff" stroke-width="1.6" filter="url(#skr1x1766) url(#glowr1x1766)"/><polygon points="640.0,303.7 684.4,303.8 663.0,195.0" fill="url(#bevelr1x1766)" fill-opacity=".95" stroke="#ccccff" stroke-width="1.6" filter="url(#skr1x1766) url(#glowr1x1766)"/><text x="30.0"  y="975.0" font-family="monospace" font-weight="bold" font-size="22.0" fill="rgba(255,255,255,.22)">#0001</text><text x="500.0"   y="975.0" text-anchor="middle" font-family="monospace" font-weight="bold" font-size="22.0" fill="#ccccff" fill-opacity=".48">PHANTOM RANGER</text><text x="970.0" y="975.0" text-anchor="end"    font-family="monospace" font-weight="bold" font-size="22.0" fill="#ccccff" fill-opacity=".32">MECH RANGERS</text></svg>