<svg xmlns="http://www.w3.org/2000/svg" viewBox="0 0 1000 1000" width="1000" height="1000" shape-rendering="geometricPrecision"><defs>

  <!-- Scene gradients -->
  <radialGradient id="bgr1x1768" cx="50%" cy="42%" r="72%">
    <stop offset="0%"   stop-color="#0e000e"/>
    <stop offset="100%" stop-color="#1e0600"/>
  </radialGradient>
  <linearGradient id="suitr1x1768" x1="8%" y1="0%" x2="92%" y2="100%">
    <stop offset="0%"   stop-color="#ffcc00" stop-opacity=".95"/>
    <stop offset="45%"  stop-color="#a07000"/>
    <stop offset="100%" stop-color="#1e0600"/>
  </linearGradient>
  <linearGradient id="suitHir1x1768" x1="0%" y1="0%" x2="0%" y2="100%">
    <stop offset="0%"   stop-color="rgba(255,255,255,.28)"/>
    <stop offset="60%"  stop-color="rgba(255,255,255,.04)"/>
    <stop offset="100%" stop-color="rgba(255,255,255,0)"/>
  </linearGradient>
  <!-- Bevel: bright top, dark bottom for armour panels -->
  <linearGradient id="bevelr1x1768" x1="0%" y1="0%" x2="0%" y2="100%">
    <stop offset="0%"   stop-color="rgba(255,255,255,.55)"/>
    <stop offset="30%"  stop-color="#ffcc00"/>
    <stop offset="70%"  stop-color="#a07000"/>
    <stop offset="100%" stop-color="rgba(0,0,0,.5)"/>
  </linearGradient>

  <!-- Weapon: cold steel blade sweep -->
  <linearGradient id="blader1x1768" x1="0%" y1="0%" x2="100%" y2="0%">
    <stop offset="0%"   stop-color="#0e0e20"/>
    <stop offset="16%"  stop-color="#3e3e58"/>
    <stop offset="34%"  stop-color="#c8c8e0"/>
    <stop offset="50%"  stop-color="#f5f5ff"/>
    <stop offset="66%"  stop-color="#b8b8d0"/>
    <stop offset="84%"  stop-color="#2e2e48"/>
    <stop offset="100%" stop-color="#08080e"/>
  </linearGradient>
  <!-- Blade tip brightening -->
  <linearGradient id="bladeTipr1x1768" x1="0%" y1="100%" x2="0%" y2="0%">
    <stop offset="0%"   stop-color="rgba(255,255,255,0)"/>
    <stop offset="55%"  stop-color="rgba(255,255,255,.1)"/>
    <stop offset="100%" stop-color="rgba(255,255,255,.55)"/>
  </linearGradient>
  <!-- Gunmetal anodised — blaster body -->
  <linearGradient id="gunmetalr1x1768" x1="0%" y1="0%" x2="0%" y2="100%">
    <stop offset="0%"   stop-color="#46465e"/>
    <stop offset="18%"  stop-color="#828296"/>
    <stop offset="42%"  stop-color="#26263a"/>
    <stop offset="72%"  stop-color="#16162a"/>
    <stop offset="100%" stop-color="#0c0c18"/>
  </linearGradient>
  <!-- Brushed steel tube — barrel/rod -->
  <linearGradient id="barrelr1x1768" x1="0%" y1="0%" x2="100%" y2="0%">
    <stop offset="0%"   stop-color="#0a0a14"/>
    <stop offset="24%"  stop-color="#585875"/>
    <stop offset="50%"  stop-color="#a8a8c8"/>
    <stop offset="76%"  stop-color="#383852"/>
    <stop offset="100%" stop-color="#0a0a14"/>
  </linearGradient>
  <!-- Chrome rod — lance shaft -->
  <linearGradient id="chromer1x1768" x1="0%" y1="0%" x2="100%" y2="0%">
    <stop offset="0%"   stop-color="#0c0c18"/>
    <stop offset="20%"  stop-color="#686888"/>
    <stop offset="44%"  stop-color="#e0e0f0"/>
    <stop offset="56%"  stop-color="#c0c0d8"/>
    <stop offset="80%"  stop-color="#28283e"/>
    <stop offset="100%" stop-color="#0c0c18"/>
  </linearGradient>
  <!-- Titanium plate — shield face -->
  <linearGradient id="titaniumr1x1768" x1="0%" y1="0%" x2="100%" y2="100%">
    <stop offset="0%"   stop-color="#585878"/>
    <stop offset="28%"  stop-color="#ffcc00" stop-opacity=".88"/>
    <stop offset="55%"  stop-color="#a07000"/>
    <stop offset="80%"  stop-color="#181828"/>
    <stop offset="100%" stop-color="#0a0a18"/>
  </linearGradient>
  <!-- Artillery black-chrome — cannon body -->
  <linearGradient id="artilleryr1x1768" x1="0%" y1="0%" x2="0%" y2="100%">
    <stop offset="0%"   stop-color="#383850"/>
    <stop offset="14%"  stop-color="#78789a"/>
    <stop offset="36%"  stop-color="#202034"/>
    <stop offset="65%"  stop-color="#14141e"/>
    <stop offset="100%" stop-color="#0a0a12"/>
  </linearGradient>
  <!-- Energy orb — staff -->
  <radialGradient id="orbr1x1768" cx="35%" cy="35%" r="65%">
    <stop offset="0%"   stop-color="rgba(255,255,255,.9)"/>
    <stop offset="30%"  stop-color="#ffcc00"/>
    <stop offset="68%"  stop-color="#a07000"/>
    <stop offset="100%" stop-color="rgba(0,0,0,.6)"/>
  </radialGradient>
  <!-- Knuckle plate chrome -->
  <linearGradient id="knuckler1x1768" x1="0%" y1="0%" x2="0%" y2="100%">
    <stop offset="0%"   stop-color="#888aaa"/>
    <stop offset="32%"  stop-color="#ffcc00" stop-opacity=".8"/>
    <stop offset="62%"  stop-color="#1a1a2c"/>
    <stop offset="100%" stop-color="#0a0a14"/>
  </linearGradient>

  <!-- Carbon fibre weave texture overlay -->
  <pattern id="carbonr1x1768" width="6" height="6" patternUnits="userSpaceOnUse">
    <rect width="6" height="6" fill="rgba(0,0,0,.08)"/>
    <rect x="0" y="0" width="3" height="3" fill="rgba(255,255,255,.022)"/>
    <rect x="3" y="3" width="3" height="3" fill="rgba(255,255,255,.022)"/>
    <line x1="0" y1="0" x2="3" y2="3" stroke="rgba(255,255,255,.038)" stroke-width=".5"/>
    <line x1="3" y1="0" x2="6" y2="3" stroke="rgba(0,0,0,.055)"       stroke-width=".5"/>
    <line x1="0" y1="3" x2="3" y2="6" stroke="rgba(0,0,0,.055)"       stroke-width=".5"/>
    <line x1="3" y1="3" x2="6" y2="6" stroke="rgba(255,255,255,.038)" stroke-width=".5"/>
  </pattern>

  <!-- Specular metal sheen on armour panels -->
  <filter id="metalr1x1768" x="-5%" y="-5%" width="110%" height="110%">
    <feSpecularLighting surfaceScale="4" specularConstant="1.8"
        specularExponent="42" lighting-color="#ffffff" result="spec">
      <feDistantLight elevation="52" azimuth="38"/>
    </feSpecularLighting>
    <feComposite in="spec" in2="SourceGraphic" operator="in" result="sm"/>
    <feComposite in="SourceGraphic" in2="sm" operator="arithmetic" k1="0" k2="1" k3="0.55" k4="0"/>
  </filter>

  <!-- Sharper specular for weapons — heavier glare -->
  <filter id="wmr1x1768" x="-8%" y="-8%" width="116%" height="116%">
    <feSpecularLighting surfaceScale="6" specularConstant="2.4"
        specularExponent="65" lighting-color="#ffffff" result="spec">
      <feDistantLight elevation="44" azimuth="28"/>
    </feSpecularLighting>
    <feComposite in="spec" in2="SourceGraphic" operator="in" result="sm"/>
    <feComposite in="SourceGraphic" in2="sm" operator="arithmetic" k1="0" k2="1" k3="0.78" k4="0"/>
  </filter>

  <!-- Sketch wobble -->
  <filter id="skr1x1768" x="-8%" y="-8%" width="116%" height="116%">
    <feTurbulence type="fractalNoise" baseFrequency="0.038"
        numOctaves="3" seed="98" result="noise"/>
    <feDisplacementMap in="SourceGraphic" in2="noise" scale="2.6"
        xChannelSelector="R" yChannelSelector="G" result="w"/>
    <feComposite in="w" in2="SourceGraphic" operator="atop"/>
  </filter>

  <!-- Glow: sharp accent -->
  <filter id="glowr1x1768" x="-20%" y="-20%" width="140%" height="140%">
    <feGaussianBlur stdDeviation="3.5" result="b"/>
    <feColorMatrix in="b" type="matrix"
        values="0 0 0 0 1  0 0 0 0 1  0 0 0 0 1  0 0 0 1.8 0" result="boost"/>
    <feMerge><feMergeNode in="boost"/><feMergeNode in="SourceGraphic"/></feMerge>
  </filter>

  <!-- Bloom: wide soft -->
  <filter id="bloomr1x1768" x="-40%" y="-40%" width="180%" height="180%">
    <feGaussianBlur stdDeviation="11" result="b"/>
    <feMerge><feMergeNode in="b"/><feMergeNode in="SourceGraphic"/></feMerge>
  </filter>

  </defs><rect width="1000" height="1000" fill="url(#bgr1x1768)"/><ellipse cx="500.0" cy="1000" rx="850.0" ry="350.0" fill="#ff4500" fill-opacity=".11" filter="url(#bloomr1x1768)"/><ellipse cx="500.0" cy="892.0" rx="350.0" ry="65.0" fill="rgba(0,0,0,.7)" filter="url(#bloomr1x1768)"/><ellipse cx="500.0" cy="889.0" rx="220.0" ry="34.0" fill="rgba(0,0,0,.45)"/><ellipse cx="500.0" cy="520.0" rx="320.0" ry="480.0" fill="#ff00ff" fill-opacity=".042" filter="url(#bloomr1x1768)"/><circle cx="263.3" cy="288.8" r="3.7" fill="#ff00ff" fill-opacity="0.72" filter="url(#glowr1x1768)"/><circle cx="275.5" cy="482.4" r="1.3" fill="#ff00ff" fill-opacity="0.65" filter="url(#glowr1x1768)"/><circle cx="413.2" cy="274.3" r="3.8" fill="#ff00ff" fill-opacity="0.70" filter="url(#glowr1x1768)"/><circle cx="723.3" cy="622.4" r="3.6" fill="#ff00ff" fill-opacity="0.67" filter="url(#glowr1x1768)"/><circle cx="548.6" cy="593.2" r="2.7" fill="#ff00ff" fill-opacity="0.38" filter="url(#glowr1x1768)"/><circle cx="298.3" cy="741.4" r="2.2" fill="#ff00ff" fill-opacity="0.76" filter="url(#glowr1x1768)"/><circle cx="530.5" cy="475.5" r="0.6" fill="#ff00ff" fill-opacity="0.58" filter="url(#glowr1x1768)"/><circle cx="617.3" cy="366.8" r="2.3" fill="#ff00ff" fill-opacity="0.48" filter="url(#glowr1x1768)"/><circle cx="268.7" cy="731.3" r="1.4" fill="#ff00ff" fill-opacity="0.84" filter="url(#glowr1x1768)"/><circle cx="708.1" cy="223.6" r="1.1" fill="#ff00ff" fill-opacity="0.50" filter="url(#glowr1x1768)"/><circle cx="736.3" cy="205.4" r="2.0" fill="#ff00ff" fill-opacity="0.84" filter="url(#glowr1x1768)"/><circle cx="726.3" cy="292.7" r="2.7" fill="#ff00ff" fill-opacity="0.69" filter="url(#glowr1x1768)"/><circle cx="478.8" cy="220.2" r="0.9" fill="#ff00ff" fill-opacity="0.81" filter="url(#glowr1x1768)"/><circle cx="444.2" cy="588.3" r="3.2" fill="#ff00ff" fill-opacity="0.42" filter="url(#glowr1x1768)"/><path d="M697.8,229.1 Q721.6,449.6 528.0,647.8" stroke="#ff00ff" stroke-opacity="0.59" stroke-width="1.8" fill="none" filter="url(#glowr1x1768)"/><path d="M290.6,322.4 Q265.4,548.8 542.0,732.6" stroke="#ff00ff" stroke-opacity="0.50" stroke-width="1.0" fill="none" filter="url(#glowr1x1768)"/><path d="M649.1,385.2 Q653.8,632.5 487.5,828.4" stroke="#ff00ff" stroke-opacity="0.57" stroke-width="2.6" fill="none" filter="url(#glowr1x1768)"/><path d="M524.6,323.3 Q539.1,550.7 342.5,748.7" stroke="#ff00ff" stroke-opacity="0.47" stroke-width="1.1" fill="none" filter="url(#glowr1x1768)"/><path d="M623.7,373.4 Q590.9,565.6 507.5,788.5" stroke="#ff00ff" stroke-opacity="0.50" stroke-width="1.9" fill="none" filter="url(#glowr1x1768)"/><polygon points="397.1,662.3 489.7,661.3 481.1,878.0 386.4,878.0" fill="url(#suitr1x1768)" stroke="#ffcc00" stroke-width="2.2" filter="url(#skr1x1768) url(#metalr1x1768)"/><polygon points="400.3,663.2 488.4,660.9 481.7,877.0 388.9,876.3" fill="url(#carbonr1x1768)"/><polygon points="392.0,722.8 491.5,722.7 485.6,788.3 382.7,789.6" fill="url(#bevelr1x1768)" fill-opacity=".5" stroke="#ffcc00" stroke-width="1.4" filter="url(#skr1x1768)"/><polygon points="512.2,661.0 602.8,662.0 612.3,875.9 520.6,876.3" fill="url(#suitr1x1768)" stroke="#ffcc00" stroke-width="2.2" filter="url(#skr1x1768) url(#metalr1x1768)"/><polygon points="510.1,664.0 602.9,661.6 613.7,876.9 517.7,877.5" fill="url(#carbonr1x1768)"/><polygon points="506.5,724.1 606.5,722.8 617.0,788.2 516.0,789.8" fill="url(#bevelr1x1768)" fill-opacity=".5" stroke="#ffcc00" stroke-width="1.4" filter="url(#skr1x1768)"/><rect x="391.2" y="839.8" width="100.3" height="24.7" fill="url(#bevelr1x1768)" stroke="#ffcc00" stroke-width="1" filter="url(#skr1x1768)"/><rect x="507.8"  y="837.2" width="100.3" height="24.7" fill="url(#bevelr1x1768)" stroke="#ffcc00" stroke-width="1" filter="url(#skr1x1768)"/><polygon points="369.3,876.6 495.4,877.6 503.0,922.6 361.3,920.4" fill="#a07000" stroke="#ffcc00" stroke-width="2" filter="url(#skr1x1768)"/><polygon points="504.3,876.3 630.7,879.2 637.3,922.7 496.2,923.1" fill="#a07000" stroke="#ffcc00" stroke-width="2" filter="url(#skr1x1768)"/><polygon points="303.1,632.3 696.5,634.8 638.1,682.1 360.8,683.5" fill="#ffcc00" fill-opacity=".52" stroke="#ffcc00" stroke-width="2" filter="url(#skr1x1768)"/><rect x="464.7" y="639.7" width="72.0" height="42.0" fill="url(#bevelr1x1768)" stroke="#ffcc00" stroke-width="1.4" filter="url(#glowr1x1768)"/><rect x="487.7" y="641.6" width="28.0" height="22.0" rx="1" fill="rgba(255,255,255,.48)"/><polygon points="152.2,467.3 233.5,466.1 256.9,734.0 128.1,734.6" fill="url(#suitr1x1768)" stroke="#ffcc00" stroke-width="2.2" filter="url(#skr1x1768) url(#metalr1x1768)"/><polygon points="172.2,433.1 253.1,433.3 241.6,511.8 159.6,510.1" fill="url(#bevelr1x1768)" fill-opacity=".72" stroke="#ffcc00" stroke-width="2.2" filter="url(#skr1x1768)"/><polygon points="161.7,621.4 242.6,620.6 240.3,659.3 166.3,660.6" fill="#ffcc00" fill-opacity=".42" stroke="#ffcc00" stroke-width="1" filter="url(#skr1x1768)"/><polygon points="764.6,466.3 846.5,466.3 872.9,734.3 743.3,734.3" fill="url(#suitr1x1768)" stroke="#ffcc00" stroke-width="2.2" filter="url(#skr1x1768) url(#metalr1x1768)"/><polygon points="747.4,430.4 827.1,431.6 840.7,512.1 758.0,509.5" fill="url(#bevelr1x1768)" fill-opacity=".72" stroke="#ffcc00" stroke-width="2.2" filter="url(#skr1x1768)"/><polygon points="758.4,623.6 838.3,622.6 836.2,661.1 760.4,662.0" fill="#ffcc00" fill-opacity=".42" stroke="#ffcc00" stroke-width="1" filter="url(#skr1x1768)"/><rect x="120.5"  y="699.1" width="135.3" height="85.0" rx="4" fill="url(#bevelr1x1768)" stroke="#ffcc00" stroke-width="1.8" filter="url(#skr1x1768)"/><rect x="748.8"   y="698.8" width="135.3" height="85.0" rx="4" fill="url(#bevelr1x1768)" stroke="#ffcc00" stroke-width="1.8" filter="url(#skr1x1768)"/><line x1="150.9" y1="702.8" x2="151.0" y2="783.1" stroke="#ffcc00" stroke-opacity=".38" stroke-width="1"/><line x1="776.9" y1="700.8" x2="779.3" y2="784.4" stroke="#ffcc00" stroke-opacity=".38" stroke-width="1"/><line x1="182.9" y1="700.8" x2="183.0" y2="783.2" stroke="#ffcc00" stroke-opacity=".38" stroke-width="1"/><line x1="812.0" y1="701.7" x2="809.5" y2="784.3" stroke="#ffcc00" stroke-opacity=".38" stroke-width="1"/><line x1="216.9" y1="702.3" x2="214.7" y2="782.5" stroke="#ffcc00" stroke-opacity=".38" stroke-width="1"/><line x1="843.5" y1="702.6" x2="844.9" y2="783.5" stroke="#ffcc00" stroke-opacity=".38" stroke-width="1"/><polygon points="235.6,417.2 766.5,416.3 722.2,664.1 278.0,660.9" fill="url(#suitr1x1768)" stroke="#ffcc00" stroke-width="2.6" filter="url(#skr1x1768) url(#metalr1x1768)"/><polygon points="234.4,416.6 765.9,419.0 722.4,664.1 276.7,663.3" fill="url(#carbonr1x1768)"/><polygon points="368.0,416.8 631.8,418.4 611.3,513.8 387.7,515.7" fill="url(#suitHir1x1768)"/><line x1="362.2" y1="473.0" x2="636.6" y2="471.9" stroke="#ffcc00" stroke-opacity=".52" stroke-width="1.3" filter="url(#skr1x1768)"/><line x1="400.1" y1="551.3" x2="601.0" y2="548.5" stroke="#ffcc00" stroke-opacity=".52" stroke-width="1.3" filter="url(#skr1x1768)"/><line x1="267.6" y1="489.8" x2="320.0" y2="489.9" stroke="#ffcc00" stroke-opacity=".62" stroke-width="1.8"/><line x1="681.5" y1="492.7" x2="733.1" y2="489.8" stroke="#ffcc00" stroke-opacity=".62" stroke-width="1.8"/><line x1="268.2" y1="524.5" x2="318.8" y2="523.9" stroke="#ffcc00" stroke-opacity=".62" stroke-width="1.8"/><line x1="681.8" y1="522.1" x2="731.7" y2="522.2" stroke="#ffcc00" stroke-opacity=".62" stroke-width="1.8"/><line x1="265.5" y1="553.1" x2="318.4" y2="556.5" stroke="#ffcc00" stroke-opacity=".62" stroke-width="1.8"/><line x1="680.2" y1="555.9" x2="732.6" y2="554.9" stroke="#ffcc00" stroke-opacity=".62" stroke-width="1.8"/><line x1="267.5" y1="586.9" x2="319.2" y2="587.8" stroke="#ffcc00" stroke-opacity=".62" stroke-width="1.8"/><line x1="681.3" y1="586.3" x2="733.2" y2="586.7" stroke="#ffcc00" stroke-opacity=".62" stroke-width="1.8"/><g filter="url(#glowr1x1768)"><circle cx="500.8" cy="499.0" r="31.3" fill="#ffcc00" stroke="#1e0600" stroke-width="1.4" filter="url(#skr1x1768)"/><circle cx="486.9" cy="497.4" r="7.0" fill="#1e0600"/><circle cx="512.1" cy="497.1" r="7.0" fill="#1e0600"/><rect x="484.4" y="520.6" width="9.3" height="17.4" rx="1" fill="#ffcc00" stroke="#1e0600" stroke-width=".6"/><rect x="495.2" y="523.4" width="9.3" height="17.4" rx="1" fill="#ffcc00" stroke="#1e0600" stroke-width=".6"/><rect x="509.1" y="523.5" width="9.3" height="17.4" rx="1" fill="#ffcc00" stroke="#1e0600" stroke-width=".6"/></g><g><polygon points="76.2,671.4 128.2,671.4 112.6,-28.6 91.8,-28.6" fill="url(#blader1x1768)" filter="url(#wmr1x1768)"/><polygon points="91.8,-28.6 112.6,-28.6 102.2,-138.6" fill="url(#blader1x1768)" filter="url(#wmr1x1768)"/><polygon points="100.3,671.4 104.0,671.4 102.7,-128.6 101.6,-128.6" fill="url(#bladeTipr1x1768)" opacity=".9"/><line x1="112.19020386829969" y1="671.584129996039" x2="102.29257630091158" y2="-128.0484774751589" stroke="rgba(255,255,255,.68)" stroke-width="1.5"/><line x1="94.15135634783653" y1="670.289462650381" x2="102.40930050358172" y2="-128.39025647025557" stroke="#ffcc00" stroke-width="1" stroke-opacity=".45"/><line x1="106.8" y1="651.4" x2="104.0" y2="11.4" stroke="rgba(0,0,0,.38)" stroke-width="1.6"/><line x1="97.5" y1="651.4" x2="100.3" y2="11.4" stroke="rgba(0,0,0,.38)" stroke-width="1.6"/><rect x="44.65707020185884" y="670.1452460918575" width="112.0" height="28.0" rx="3" fill="url(#bevelr1x1768)" stroke="#ffcc00" stroke-width="1.6" filter="url(#wmr1x1768)"/><rect x="71.40288119776172" y="672.3077824681997" width="64.0" height="10.0" rx="1" fill="rgba(255,255,255,.32)"/><rect x="91.12177220903334" y="678.376165826898" width="24.0" height="6.0" rx="1" fill="#ffcc00" fill-opacity=".35"/><rect x="88.36168250361455" y="684.7784505968913" width="24.0" height="6.0" rx="1" fill="#ffcc00" fill-opacity=".35"/><rect x="90.77952699320387" y="693.3627344826236" width="24.0" height="6.0" rx="1" fill="#ffcc00" fill-opacity=".35"/><rect x="90.34662337502462" y="703.0003908449784" width="24.0" height="6.0" rx="1" fill="#ffcc00" fill-opacity=".35"/><rect x="91.63124463422221" y="710.7313030342572" width="24.0" height="6.0" rx="1" fill="#ffcc00" fill-opacity=".35"/><rect x="91.8569774204306" y="716.9804135831073" width="24.0" height="6.0" rx="1" fill="#ffcc00" fill-opacity=".35"/><ellipse cx="102.89671612655741" cy="725.7225817077793" rx="22.0" ry="16.0" fill="url(#bevelr1x1768)" stroke="#ffcc00" stroke-width="1.2" filter="url(#wmr1x1768)"/></g><rect x="448.83753348877656" y="558.6489006417803" width="100.0"  height="56.0" fill="#a07000" stroke="#ffcc00" stroke-width="2.2" filter="url(#skr1x1768)"/><rect x="424.920802876167" y="575.028281947691" width="152.0" height="26.0" fill="url(#bevelr1x1768)" fill-opacity=".65" stroke="#ffcc00" stroke-width="1.2" filter="url(#skr1x1768)"/><polygon points="308.3,379.1 350.7,292.7 498.9,278.9 649.6,293.0 692.4,380.1 670.2,505.3 501.4,566.7 331.8,503.0" fill="url(#suitr1x1768)" stroke="#ffcc00" stroke-width="2.8" filter="url(#skr1x1768) url(#metalr1x1768)"/><polygon points="307.7,379.5 351.0,293.7 499.0,279.2 648.2,295.5 691.7,379.9 669.6,504.8 500.1,566.8 330.3,502.8" fill="url(#carbonr1x1768)"/><polygon points="379.7,304.4 498.5,285.4 618.9,301.7 606.6,381.0 393.5,379.0" fill="url(#suitHir1x1768)"/><polygon points="381.9,379.7 365.5,424.2 431.0,503.2 501.4,528.6 568.6,502.8 634.0,426.8 618.8,381.3" fill="#1e0600" fill-opacity=".88" stroke="#ffcc00" stroke-width="1.8" filter="url(#skr1x1768)"/><polygon points="380.1,412.2 477.0,409.7 483.8,440.9 388.3,441.2" fill="#ffcc00" filter="url(#glowr1x1768)"/><polygon points="523.7,412.2 620.8,412.1 609.9,438.9 516.7,439.9" fill="#ffcc00" filter="url(#glowr1x1768)"/><ellipse cx="430.9" cy="425.7" rx="38.4"  ry="8.2" fill="#ffffff" opacity=".88"/><ellipse cx="569.1" cy="425.7" rx="38.4"  ry="8.2" fill="#ffffff" opacity=".88"/><line x1="484.61421766147015" y1="413.31121208555993" x2="513.7889226552471" y2="412.8119360092096" stroke="#ffcc00" stroke-opacity=".52" stroke-width="2"/><line x1="483.6936110995337" y1="439.0475534602068" x2="516.2947303478978" y2="437.8596223608591" stroke="#ffcc00" stroke-opacity=".52" stroke-width="2"/><line x1="498.7295502751134" y1="453.4063800432719" x2="498.76661547087133" y2="484.24694093745205" stroke="#ffcc00" stroke-opacity=".58" stroke-width="2.2" filter="url(#skr1x1768)"/><line x1="454.7829192742519" y1="490.69560533100736" x2="452.31675922915343" y2="520.4382800080814" stroke="#ffcc00" stroke-opacity=".52" stroke-width="1.5" filter="url(#skr1x1768)"/><line x1="477.8233757183328" y1="491.7629418320022" x2="477.5725713555142" y2="519.0920604727231" stroke="#ffcc00" stroke-opacity=".52" stroke-width="1.5" filter="url(#skr1x1768)"/><line x1="501.3515666187741" y1="490.8631861083209" x2="499.3443539845757" y2="518.7554766172543" stroke="#ffcc00" stroke-opacity=".52" stroke-width="1.5" filter="url(#skr1x1768)"/><line x1="522.1643795901537" y1="490.51812042063096" x2="524.0906478082388" y2="520.063116895128" stroke="#ffcc00" stroke-opacity=".52" stroke-width="1.5" filter="url(#skr1x1768)"/><line x1="546.5815641699545" y1="490.53349603796374" x2="545.224724028185" y2="519.4251206548885" stroke="#ffcc00" stroke-opacity=".52" stroke-width="1.5" filter="url(#skr1x1768)"/><polygon points="434.4,503.5 566.9,503.6 553.6,555.5 446.8,557.0" fill="#a07000" fill-opacity=".72" stroke="#ffcc00" stroke-width="1.3" filter="url(#skr1x1768)"/><path d="M389.9295542874932 327.8110356241465 Q331.8259930821694 216.99863017788155 380.294748648759 141.53199049457908" stroke="#ffcc00" stroke-width="5" fill="none" stroke-linecap="round" filter="url(#skr1x1768)"/><path d="M390.41128237262365 326.36063755005597 Q330.142525931783 215.08370990669354 379.47908831652256 141.0818253803067" stroke="rgba(255,255,255,.25)" stroke-width="1.5" fill="none" stroke-linecap="round"/><path d="M612.1992603995278 325.7983646744862 Q667.1798487381451 215.9491234609857 617.6662710517272 141.77545049553737" stroke="#ffcc00" stroke-width="5" fill="none" stroke-linecap="round" filter="url(#skr1x1768)"/><path d="M611.9663770234584 325.83716744882986 Q667.5862342166156 215.94571574376894 617.7586867628246 140.4446148772724" stroke="rgba(255,255,255,.25)" stroke-width="1.5" fill="none" stroke-linecap="round"/><text x="30.0"  y="975.0" font-family="monospace" font-weight="bold" font-size="22.0" fill="rgba(255,255,255,.22)">#0001</text><text x="500.0"   y="975.0" text-anchor="middle" font-family="monospace" font-weight="bold" font-size="22.0" fill="#ffcc00" fill-opacity=".48">NOVA RANGER</text><text x="970.0" y="975.0" text-anchor="end"    font-family="monospace" font-weight="bold" font-size="22.0" fill="#ffcc00" fill-opacity=".32">MECH RANGERS</text></svg>