<svg xmlns="http://www.w3.org/2000/svg" viewBox="0 0 1000 1000" width="1000" height="1000" shape-rendering="geometricPrecision"><defs>

  <!-- Scene gradients -->
  <radialGradient id="bgr1x1776" cx="50%" cy="42%" r="72%">
    <stop offset="0%"   stop-color="#001422"/>
    <stop offset="100%" stop-color="#000a14"/>
  </radialGradient>
  <linearGradient id="suitr1x1776" x1="8%" y1="0%" x2="92%" y2="100%">
    <stop offset="0%"   stop-color="#00ff60" stop-opacity=".95"/>
    <stop offset="45%"  stop-color="#00441e"/>
    <stop offset="100%" stop-color="#000a14"/>
  </linearGradient>
  <linearGradient id="suitHir1x1776" x1="0%" y1="0%" x2="0%" y2="100%">
    <stop offset="0%"   stop-color="rgba(255,255,255,.28)"/>
    <stop offset="60%"  stop-color="rgba(255,255,255,.04)"/>
    <stop offset="100%" stop-color="rgba(255,255,255,0)"/>
  </linearGradient>
  <!-- Bevel: bright top, dark bottom for armour panels -->
  <linearGradient id="bevelr1x1776" x1="0%" y1="0%" x2="0%" y2="100%">
    <stop offset="0%"   stop-color="rgba(255,255,255,.55)"/>
    <stop offset="30%"  stop-color="#00ff60"/>
    <stop offset="70%"  stop-color="#00441e"/>
    <stop offset="100%" stop-color="rgba(0,0,0,.5)"/>
  </linearGradient>

  <!-- Weapon: cold steel blade sweep -->
  <linearGradient id="blader1x1776" x1="0%" y1="0%" x2="100%" y2="0%">
    <stop offset="0%"   stop-color="#0e0e20"/>
    <stop offset="16%"  stop-color="#3e3e58"/>
    <stop offset="34%"  stop-color="#c8c8e0"/>
    <stop offset="50%"  stop-color="#f5f5ff"/>
    <stop offset="66%"  stop-color="#b8b8d0"/>
    <stop offset="84%"  stop-color="#2e2e48"/>
    <stop offset="100%" stop-color="#08080e"/>
  </linearGradient>
  <!-- Blade tip brightening -->
  <linearGradient id="bladeTipr1x1776" x1="0%" y1="100%" x2="0%" y2="0%">
    <stop offset="0%"   stop-color="rgba(255,255,255,0)"/>
    <stop offset="55%"  stop-color="rgba(255,255,255,.1)"/>
    <stop offset="100%" stop-color="rgba(255,255,255,.55)"/>
  </linearGradient>
  <!-- Gunmetal anodised — blaster body -->
  <linearGradient id="gunmetalr1x1776" x1="0%" y1="0%" x2="0%" y2="100%">
    <stop offset="0%"   stop-color="#46465e"/>
    <stop offset="18%"  stop-color="#828296"/>
    <stop offset="42%"  stop-color="#26263a"/>
    <stop offset="72%"  stop-color="#16162a"/>
    <stop offset="100%" stop-color="#0c0c18"/>
  </linearGradient>
  <!-- Brushed steel tube — barrel/rod -->
  <linearGradient id="barrelr1x1776" x1="0%" y1="0%" x2="100%" y2="0%">
    <stop offset="0%"   stop-color="#0a0a14"/>
    <stop offset="24%"  stop-color="#585875"/>
    <stop offset="50%"  stop-color="#a8a8c8"/>
    <stop offset="76%"  stop-color="#383852"/>
    <stop offset="100%" stop-color="#0a0a14"/>
  </linearGradient>
  <!-- Chrome rod — lance shaft -->
  <linearGradient id="chromer1x1776" x1="0%" y1="0%" x2="100%" y2="0%">
    <stop offset="0%"   stop-color="#0c0c18"/>
    <stop offset="20%"  stop-color="#686888"/>
    <stop offset="44%"  stop-color="#e0e0f0"/>
    <stop offset="56%"  stop-color="#c0c0d8"/>
    <stop offset="80%"  stop-color="#28283e"/>
    <stop offset="100%" stop-color="#0c0c18"/>
  </linearGradient>
  <!-- Titanium plate — shield face -->
  <linearGradient id="titaniumr1x1776" x1="0%" y1="0%" x2="100%" y2="100%">
    <stop offset="0%"   stop-color="#585878"/>
    <stop offset="28%"  stop-color="#00ff60" stop-opacity=".88"/>
    <stop offset="55%"  stop-color="#00441e"/>
    <stop offset="80%"  stop-color="#181828"/>
    <stop offset="100%" stop-color="#0a0a18"/>
  </linearGradient>
  <!-- Artillery black-chrome — cannon body -->
  <linearGradient id="artilleryr1x1776" x1="0%" y1="0%" x2="0%" y2="100%">
    <stop offset="0%"   stop-color="#383850"/>
    <stop offset="14%"  stop-color="#78789a"/>
    <stop offset="36%"  stop-color="#202034"/>
    <stop offset="65%"  stop-color="#14141e"/>
    <stop offset="100%" stop-color="#0a0a12"/>
  </linearGradient>
  <!-- Energy orb — staff -->
  <radialGradient id="orbr1x1776" cx="35%" cy="35%" r="65%">
    <stop offset="0%"   stop-color="rgba(255,255,255,.9)"/>
    <stop offset="30%"  stop-color="#00ff60"/>
    <stop offset="68%"  stop-color="#00441e"/>
    <stop offset="100%" stop-color="rgba(0,0,0,.6)"/>
  </radialGradient>
  <!-- Knuckle plate chrome -->
  <linearGradient id="knuckler1x1776" x1="0%" y1="0%" x2="0%" y2="100%">
    <stop offset="0%"   stop-color="#888aaa"/>
    <stop offset="32%"  stop-color="#00ff60" stop-opacity=".8"/>
    <stop offset="62%"  stop-color="#1a1a2c"/>
    <stop offset="100%" stop-color="#0a0a14"/>
  </linearGradient>

  <!-- Carbon fibre weave texture overlay -->
  <pattern id="carbonr1x1776" width="6" height="6" patternUnits="userSpaceOnUse">
    <rect width="6" height="6" fill="rgba(0,0,0,.08)"/>
    <rect x="0" y="0" width="3" height="3" fill="rgba(255,255,255,.022)"/>
    <rect x="3" y="3" width="3" height="3" fill="rgba(255,255,255,.022)"/>
    <line x1="0" y1="0" x2="3" y2="3" stroke="rgba(255,255,255,.038)" stroke-width=".5"/>
    <line x1="3" y1="0" x2="6" y2="3" stroke="rgba(0,0,0,.055)"       stroke-width=".5"/>
    <line x1="0" y1="3" x2="3" y2="6" stroke="rgba(0,0,0,.055)"       stroke-width=".5"/>
    <line x1="3" y1="3" x2="6" y2="6" stroke="rgba(255,255,255,.038)" stroke-width=".5"/>
  </pattern>

  <!-- Specular metal sheen on armour panels -->
  <filter id="metalr1x1776" x="-5%" y="-5%" width="110%" height="110%">
    <feSpecularLighting surfaceScale="4" specularConstant="1.8"
        specularExponent="42" lighting-color="#ffffff" result="spec">
      <feDistantLight elevation="52" azimuth="38"/>
    </feSpecularLighting>
    <feComposite in="spec" in2="SourceGraphic" operator="in" result="sm"/>
    <feComposite in="SourceGraphic" in2="sm" operator="arithmetic" k1="0" k2="1" k3="0.55" k4="0"/>
  </filter>

  <!-- Sharper specular for weapons — heavier glare -->
  <filter id="wmr1x1776" x="-8%" y="-8%" width="116%" height="116%">
    <feSpecularLighting surfaceScale="6" specularConstant="2.4"
        specularExponent="65" lighting-color="#ffffff" result="spec">
      <feDistantLight elevation="44" azimuth="28"/>
    </feSpecularLighting>
    <feComposite in="spec" in2="SourceGraphic" operator="in" result="sm"/>
    <feComposite in="SourceGraphic" in2="sm" operator="arithmetic" k1="0" k2="1" k3="0.78" k4="0"/>
  </filter>

  <!-- Sketch wobble -->
  <filter id="skr1x1776" x="-8%" y="-8%" width="116%" height="116%">
    <feTurbulence type="fractalNoise" baseFrequency="0.038"
        numOctaves="3" seed="43" result="noise"/>
    <feDisplacementMap in="SourceGraphic" in2="noise" scale="2.6"
        xChannelSelector="R" yChannelSelector="G" result="w"/>
    <feComposite in="w" in2="SourceGraphic" operator="atop"/>
  </filter>

  <!-- Glow: sharp accent -->
  <filter id="glowr1x1776" x="-20%" y="-20%" width="140%" height="140%">
    <feGaussianBlur stdDeviation="3.5" result="b"/>
    <feColorMatrix in="b" type="matrix"
        values="0 0 0 0 1  0 0 0 0 1  0 0 0 0 1  0 0 0 1.8 0" result="boost"/>
    <feMerge><feMergeNode in="boost"/><feMergeNode in="SourceGraphic"/></feMerge>
  </filter>

  <!-- Bloom: wide soft -->
  <filter id="bloomr1x1776" x="-40%" y="-40%" width="180%" height="180%">
    <feGaussianBlur stdDeviation="11" result="b"/>
    <feMerge><feMergeNode in="b"/><feMergeNode in="SourceGraphic"/></feMerge>
  </filter>

  </defs><rect width="1000" height="1000" fill="url(#bgr1x1776)"/><line x1="0" y1="-2.3" x2="1000" y2="0.1" stroke="#00ff60" stroke-opacity=".055" stroke-width="1.2"/><line x1="-0.3" y1="0" x2="2.4" y2="1000" stroke="#00ff60" stroke-opacity=".055" stroke-width="1.2"/><line x1="0" y1="100.6" x2="1000" y2="102.3" stroke="#00ff60" stroke-opacity=".055" stroke-width="1.2"/><line x1="99.0" y1="0" x2="98.5" y2="1000" stroke="#00ff60" stroke-opacity=".055" stroke-width="1.2"/><line x1="0" y1="198.1" x2="1000" y2="200.7" stroke="#00ff60" stroke-opacity=".055" stroke-width="1.2"/><line x1="197.6" y1="0" x2="202.3" y2="1000" stroke="#00ff60" stroke-opacity=".055" stroke-width="1.2"/><line x1="0" y1="298.2" x2="1000" y2="301.1" stroke="#00ff60" stroke-opacity=".055" stroke-width="1.2"/><line x1="301.3" y1="0" x2="299.1" y2="1000" stroke="#00ff60" stroke-opacity=".055" stroke-width="1.2"/><line x1="0" y1="401.1" x2="1000" y2="398.0" stroke="#00ff60" stroke-opacity=".055" stroke-width="1.2"/><line x1="401.0" y1="0" x2="402.2" y2="1000" stroke="#00ff60" stroke-opacity=".055" stroke-width="1.2"/><line x1="0" y1="497.4" x2="1000" y2="498.8" stroke="#00ff60" stroke-opacity=".055" stroke-width="1.2"/><line x1="500.3" y1="0" x2="498.5" y2="1000" stroke="#00ff60" stroke-opacity=".055" stroke-width="1.2"/><line x1="0" y1="597.5" x2="1000" y2="600.5" stroke="#00ff60" stroke-opacity=".055" stroke-width="1.2"/><line x1="601.4" y1="0" x2="598.7" y2="1000" stroke="#00ff60" stroke-opacity=".055" stroke-width="1.2"/><line x1="0" y1="702.3" x2="1000" y2="702.1" stroke="#00ff60" stroke-opacity=".055" stroke-width="1.2"/><line x1="699.0" y1="0" x2="700.3" y2="1000" stroke="#00ff60" stroke-opacity=".055" stroke-width="1.2"/><line x1="0" y1="798.9" x2="1000" y2="802.1" stroke="#00ff60" stroke-opacity=".055" stroke-width="1.2"/><line x1="801.6" y1="0" x2="797.1" y2="1000" stroke="#00ff60" stroke-opacity=".055" stroke-width="1.2"/><line x1="0" y1="897.3" x2="1000" y2="897.3" stroke="#00ff60" stroke-opacity=".055" stroke-width="1.2"/><line x1="900.7" y1="0" x2="897.1" y2="1000" stroke="#00ff60" stroke-opacity=".055" stroke-width="1.2"/><path d="M80,30 L30,30 L30,80" stroke="#00ff60" stroke-opacity=".45" stroke-width="2" fill="none" filter="url(#glowr1x1776)"/><path d="M920,30 L970,30 L970,80" stroke="#00ff60" stroke-opacity=".45" stroke-width="2" fill="none" filter="url(#glowr1x1776)"/><path d="M30,920 L30,970 L80,970" stroke="#00ff60" stroke-opacity=".45" stroke-width="2" fill="none" filter="url(#glowr1x1776)"/><path d="M970,920 L970,970 L920,970" stroke="#00ff60" stroke-opacity=".45" stroke-width="2" fill="none" filter="url(#glowr1x1776)"/><ellipse cx="500.0" cy="892.0" rx="350.0" ry="65.0" fill="rgba(0,0,0,.7)" filter="url(#bloomr1x1776)"/><ellipse cx="500.0" cy="889.0" rx="220.0" ry="34.0" fill="rgba(0,0,0,.45)"/><ellipse cx="500.0" cy="520.0" rx="320.0" ry="480.0" fill="#ffffff" fill-opacity=".042" filter="url(#bloomr1x1776)"/><circle cx="703.4" cy="766.3" r="4.2" fill="#ffffff" fill-opacity="0.79" filter="url(#glowr1x1776)"/><circle cx="569.2" cy="405.7" r="3.2" fill="#ffffff" fill-opacity="0.86" filter="url(#glowr1x1776)"/><circle cx="545.4" cy="337.1" r="3.2" fill="#ffffff" fill-opacity="0.55" filter="url(#glowr1x1776)"/><circle cx="680.4" cy="484.7" r="3.6" fill="#ffffff" fill-opacity="0.57" filter="url(#glowr1x1776)"/><circle cx="631.3" cy="650.7" r="0.6" fill="#ffffff" fill-opacity="0.83" filter="url(#glowr1x1776)"/><circle cx="587.6" cy="626.6" r="1.1" fill="#ffffff" fill-opacity="0.87" filter="url(#glowr1x1776)"/><circle cx="711.9" cy="278.6" r="3.6" fill="#ffffff" fill-opacity="0.59" filter="url(#glowr1x1776)"/><circle cx="629.1" cy="476.6" r="0.8" fill="#ffffff" fill-opacity="0.70" filter="url(#glowr1x1776)"/><circle cx="255.2" cy="365.3" r="1.5" fill="#ffffff" fill-opacity="0.70" filter="url(#glowr1x1776)"/><circle cx="451.4" cy="315.2" r="3.8" fill="#ffffff" fill-opacity="0.85" filter="url(#glowr1x1776)"/><circle cx="490.7" cy="339.6" r="3.2" fill="#ffffff" fill-opacity="0.76" filter="url(#glowr1x1776)"/><circle cx="372.2" cy="578.8" r="2.7" fill="#ffffff" fill-opacity="0.49" filter="url(#glowr1x1776)"/><circle cx="298.7" cy="602.7" r="2.8" fill="#ffffff" fill-opacity="0.82" filter="url(#glowr1x1776)"/><circle cx="537.9" cy="694.5" r="3.2" fill="#ffffff" fill-opacity="0.82" filter="url(#glowr1x1776)"/><polygon points="397.6,661.5 489.8,663.5 479.8,877.4 388.2,877.2" fill="url(#suitr1x1776)" stroke="#00ff60" stroke-width="2.2" filter="url(#skr1x1776) url(#metalr1x1776)"/><polygon points="399.1,661.2 489.8,661.0 481.8,876.3 387.4,878.4" fill="url(#carbonr1x1776)"/><polygon points="391.5,724.9 494.3,724.9 484.2,787.8 385.6,789.0" fill="url(#bevelr1x1776)" fill-opacity=".5" stroke="#00ff60" stroke-width="1.4" filter="url(#skr1x1776)"/><polygon points="511.4,662.1 602.6,664.1 611.3,877.1 520.9,876.0" fill="url(#suitr1x1776)" stroke="#00ff60" stroke-width="2.2" filter="url(#skr1x1776) url(#metalr1x1776)"/><polygon points="511.4,664.3 600.0,661.8 613.7,876.5 520.1,876.4" fill="url(#carbonr1x1776)"/><polygon points="508.1,725.5 605.7,723.2 616.8,786.8 515.4,789.6" fill="url(#bevelr1x1776)" fill-opacity=".5" stroke="#00ff60" stroke-width="1.4" filter="url(#skr1x1776)"/><rect x="392.2" y="838.5" width="100.3" height="24.7" fill="url(#bevelr1x1776)" stroke="#00ff60" stroke-width="1" filter="url(#skr1x1776)"/><rect x="507.6"  y="839.2" width="100.3" height="24.7" fill="url(#bevelr1x1776)" stroke="#00ff60" stroke-width="1" filter="url(#skr1x1776)"/><polygon points="371.4,876.2 497.8,876.8 502.9,921.2 361.8,920.3" fill="#00441e" stroke="#00ff60" stroke-width="2" filter="url(#skr1x1776)"/><polygon points="504.6,877.0 630.9,876.8 638.9,922.6 497.4,922.1" fill="#00441e" stroke="#00ff60" stroke-width="2" filter="url(#skr1x1776)"/><polygon points="304.7,634.1 694.9,634.2 638.5,681.9 361.4,680.6" fill="#00ff60" fill-opacity=".52" stroke="#00ff60" stroke-width="2" filter="url(#skr1x1776)"/><rect x="464.2" y="637.3" width="72.0" height="42.0" fill="url(#bevelr1x1776)" stroke="#00ff60" stroke-width="1.4" filter="url(#glowr1x1776)"/><rect x="484.6" y="641.6" width="28.0" height="22.0" rx="1" fill="rgba(255,255,255,.48)"/><polygon points="154.7,465.3 235.2,468.1 256.5,733.6 129.0,733.5" fill="url(#suitr1x1776)" stroke="#00ff60" stroke-width="2.2" filter="url(#skr1x1776) url(#metalr1x1776)"/><polygon points="174.6,432.3 252.4,431.3 244.1,511.2 160.0,511.0" fill="url(#bevelr1x1776)" fill-opacity=".72" stroke="#00ff60" stroke-width="2.2" filter="url(#skr1x1776)"/><polygon points="159.6,621.3 242.4,623.5 239.5,662.0 166.1,660.5" fill="#00ff60" fill-opacity=".42" stroke="#00ff60" stroke-width="1" filter="url(#skr1x1776)"/><polygon points="764.1,465.7 848.1,467.4 872.6,735.0 743.7,734.8" fill="url(#suitr1x1776)" stroke="#00ff60" stroke-width="2.2" filter="url(#skr1x1776) url(#metalr1x1776)"/><polygon points="747.3,430.7 827.3,432.3 840.6,511.2 755.5,509.1" fill="url(#bevelr1x1776)" fill-opacity=".72" stroke="#00ff60" stroke-width="2.2" filter="url(#skr1x1776)"/><polygon points="756.8,623.6 837.4,622.5 834.5,662.4 760.2,662.0" fill="#00ff60" fill-opacity=".42" stroke="#00ff60" stroke-width="1" filter="url(#skr1x1776)"/><rect x="119.1"  y="698.8" width="135.3" height="85.0" rx="4" fill="url(#bevelr1x1776)" stroke="#00ff60" stroke-width="1.8" filter="url(#skr1x1776)"/><rect x="748.5"   y="701.6" width="135.3" height="85.0" rx="4" fill="url(#bevelr1x1776)" stroke="#00ff60" stroke-width="1.8" filter="url(#skr1x1776)"/><line x1="148.3" y1="702.9" x2="148.1" y2="784.5" stroke="#00ff60" stroke-opacity=".38" stroke-width="1"/><line x1="778.9" y1="703.1" x2="777.7" y2="784.9" stroke="#00ff60" stroke-opacity=".38" stroke-width="1"/><line x1="183.9" y1="702.0" x2="184.1" y2="783.1" stroke="#00ff60" stroke-opacity=".38" stroke-width="1"/><line x1="809.9" y1="701.7" x2="811.1" y2="784.6" stroke="#00ff60" stroke-opacity=".38" stroke-width="1"/><line x1="216.4" y1="700.4" x2="214.7" y2="783.6" stroke="#00ff60" stroke-opacity=".38" stroke-width="1"/><line x1="844.1" y1="701.1" x2="844.7" y2="783.6" stroke="#00ff60" stroke-opacity=".38" stroke-width="1"/><polygon points="234.7,416.4 763.4,417.9 720.8,664.0 276.8,662.0" fill="url(#suitr1x1776)" stroke="#00ff60" stroke-width="2.6" filter="url(#skr1x1776) url(#metalr1x1776)"/><polygon points="234.9,416.7 765.6,417.5 722.0,660.8 276.1,662.5" fill="url(#carbonr1x1776)"/><polygon points="367.8,417.0 632.5,417.7 610.6,513.8 388.9,517.2" fill="url(#suitHir1x1776)"/><line x1="360.8" y1="471.1" x2="636.4" y2="471.7" stroke="#00ff60" stroke-opacity=".52" stroke-width="1.3" filter="url(#skr1x1776)"/><line x1="400.9" y1="550.6" x2="602.5" y2="548.4" stroke="#00ff60" stroke-opacity=".52" stroke-width="1.3" filter="url(#skr1x1776)"/><line x1="265.7" y1="492.1" x2="320.2" y2="491.9" stroke="#00ff60" stroke-opacity=".62" stroke-width="1.8"/><line x1="678.8" y1="492.7" x2="732.2" y2="492.2" stroke="#00ff60" stroke-opacity=".62" stroke-width="1.8"/><line x1="268.0" y1="522.6" x2="318.3" y2="521.4" stroke="#00ff60" stroke-opacity=".62" stroke-width="1.8"/><line x1="680.7" y1="522.5" x2="733.0" y2="523.6" stroke="#00ff60" stroke-opacity=".62" stroke-width="1.8"/><line x1="268.4" y1="555.6" x2="319.0" y2="556.3" stroke="#00ff60" stroke-opacity=".62" stroke-width="1.8"/><line x1="681.6" y1="556.4" x2="734.4" y2="554.9" stroke="#00ff60" stroke-opacity=".62" stroke-width="1.8"/><line x1="266.4" y1="587.6" x2="318.5" y2="585.1" stroke="#00ff60" stroke-opacity=".62" stroke-width="1.8"/><line x1="680.8" y1="587.3" x2="734.5" y2="586.6" stroke="#00ff60" stroke-opacity=".62" stroke-width="1.8"/><g filter="url(#glowr1x1776)"><ellipse cx="499.2" cy="509.2" rx="42.9" ry="23.2" fill="#000a14" stroke="#00ff60" stroke-width="1.6" filter="url(#skr1x1776)"/><circle cx="500.7" cy="509.0" r="15.1" fill="#00ff60"/><circle cx="498.0" cy="505.9" r="5.8" fill="#000a14"/><ellipse cx="495.1" cy="503.5" rx="3.5" ry="2.3" fill="rgba(255,255,255,.7)"/></g><g><polygon points="871.8,671.4 923.8,671.4 908.2,-28.6 887.4,-28.6" fill="url(#blader1x1776)" filter="url(#wmr1x1776)"/><polygon points="887.4,-28.6 908.2,-28.6 897.8,-138.6" fill="url(#blader1x1776)" filter="url(#wmr1x1776)"/><polygon points="896.0,671.4 899.7,671.4 898.4,-128.6 897.3,-128.6" fill="url(#bladeTipr1x1776)" opacity=".9"/><line x1="907.9687807400711" y1="672.7961060782894" x2="897.8469389325194" y2="-130.06093078032137" stroke="rgba(255,255,255,.68)" stroke-width="1.5"/><line x1="889.5739543752932" y1="671.3660571377724" x2="896.2195588204079" y2="-129.53872080603617" stroke="#00ff60" stroke-width="1" stroke-opacity=".45"/><line x1="902.5" y1="651.4" x2="899.7" y2="11.4" stroke="rgba(0,0,0,.38)" stroke-width="1.6"/><line x1="893.2" y1="651.4" x2="896.0" y2="11.4" stroke="rgba(0,0,0,.38)" stroke-width="1.6"/><rect x="840.3562170394324" y="669.1881871694699" width="112.0" height="28.0" rx="3" fill="url(#bevelr1x1776)" stroke="#00ff60" stroke-width="1.6" filter="url(#wmr1x1776)"/><rect x="864.6908478544652" y="673.9411511057057" width="64.0" height="10.0" rx="1" fill="rgba(255,255,255,.32)"/><rect x="885.5240915705077" y="676.4246297447942" width="24.0" height="6.0" rx="1" fill="#00ff60" fill-opacity=".35"/><rect x="886.4009057251365" y="686.9245333983563" width="24.0" height="6.0" rx="1" fill="#00ff60" fill-opacity=".35"/><rect x="885.5313424188272" y="694.1863451162353" width="24.0" height="6.0" rx="1" fill="#00ff60" fill-opacity=".35"/><rect x="887.4558682705834" y="702.2814388973638" width="24.0" height="6.0" rx="1" fill="#00ff60" fill-opacity=".35"/><rect x="886.793470109962" y="709.4830564092845" width="24.0" height="6.0" rx="1" fill="#00ff60" fill-opacity=".35"/><rect x="884.9040879713931" y="716.1034051594324" width="24.0" height="6.0" rx="1" fill="#00ff60" fill-opacity=".35"/><ellipse cx="896.108216261454" cy="728.1781757663003" rx="22.0" ry="16.0" fill="url(#bevelr1x1776)" stroke="#00ff60" stroke-width="1.2" filter="url(#wmr1x1776)"/></g><rect x="450.5710662388243" y="555.1501737010665" width="100.0"  height="56.0" fill="#00441e" stroke="#00ff60" stroke-width="2.2" filter="url(#skr1x1776)"/><rect x="425.1869296136312" y="574.1086020713673" width="152.0" height="26.0" fill="url(#bevelr1x1776)" fill-opacity=".65" stroke="#00ff60" stroke-width="1.2" filter="url(#skr1x1776)"/><polygon points="309.2,379.4 350.1,296.2 501.6,276.5 649.6,294.6 692.4,379.7 668.7,503.1 498.2,564.4 330.7,503.7" fill="url(#suitr1x1776)" stroke="#00ff60" stroke-width="2.8" filter="url(#skr1x1776) url(#metalr1x1776)"/><polygon points="309.0,379.2 348.7,295.9 498.5,279.8 649.3,293.1 692.4,381.4 669.0,503.4 501.1,566.9 329.6,505.0" fill="url(#carbonr1x1776)"/><polygon points="380.2,303.8 500.3,286.0 620.4,302.0 608.4,379.8 394.2,380.0" fill="url(#suitHir1x1776)"/><polygon points="380.6,381.2 365.9,426.1 431.1,504.2 500.7,528.3 565.5,503.0 634.0,424.5 618.3,381.3" fill="#000a14" fill-opacity=".88" stroke="#00ff60" stroke-width="1.8" filter="url(#skr1x1776)"/><polygon points="381.5,410.7 475.9,412.6 483.0,439.1 388.4,441.1" fill="#00ff60" filter="url(#glowr1x1776)"/><polygon points="523.0,412.4 619.9,410.5 610.7,441.7 516.5,438.6" fill="#00ff60" filter="url(#glowr1x1776)"/><ellipse cx="430.9" cy="425.7" rx="38.4"  ry="8.2" fill="#ffffff" opacity=".88"/><ellipse cx="569.1" cy="425.7" rx="38.4"  ry="8.2" fill="#ffffff" opacity=".88"/><line x1="486.2348474464938" y1="414.44782518055285" x2="516.1134907321446" y2="412.02781535200774" stroke="#00ff60" stroke-opacity=".52" stroke-width="2"/><line x1="485.64367107484486" y1="439.3022196030244" x2="516.1320819182694" y2="439.04732123119754" stroke="#00ff60" stroke-opacity=".52" stroke-width="2"/><line x1="498.6974475029856" y1="455.14669769750907" x2="501.534710704349" y2="481.7732683400624" stroke="#00ff60" stroke-opacity=".58" stroke-width="2.2" filter="url(#skr1x1776)"/><line x1="454.8034044796415" y1="492.50359370717774" x2="454.75743881667034" y2="518.2889757084661" stroke="#00ff60" stroke-opacity=".52" stroke-width="1.5" filter="url(#skr1x1776)"/><line x1="477.738456904646" y1="491.9791121105663" x2="477.14492890624325" y2="521.4305813992396" stroke="#00ff60" stroke-opacity=".52" stroke-width="1.5" filter="url(#skr1x1776)"/><line x1="501.10883781230075" y1="490.28455659076565" x2="498.77962004896256" y2="519.5253015739843" stroke="#00ff60" stroke-opacity=".52" stroke-width="1.5" filter="url(#skr1x1776)"/><line x1="524.2504367641732" y1="490.1503920775838" x2="524.8056404004432" y2="520.4349201682955" stroke="#00ff60" stroke-opacity=".52" stroke-width="1.5" filter="url(#skr1x1776)"/><line x1="544.3862184240669" y1="492.4879774102009" x2="547.7142785861344" y2="518.627473417297" stroke="#00ff60" stroke-opacity=".52" stroke-width="1.5" filter="url(#skr1x1776)"/><polygon points="433.8,504.3 566.9,504.0 552.1,557.8 446.6,558.0" fill="#00441e" fill-opacity=".72" stroke="#00ff60" stroke-width="1.3" filter="url(#skr1x1776)"/><path d="M387.113530804459 328.9577058537863 Q329.44628817565734 217.5283548183739 381.79345455024395 139.16506493939087" stroke="#00ff60" stroke-width="5" fill="none" stroke-linecap="round" filter="url(#skr1x1776)"/><path d="M387.05520426589993 328.66615298436955 Q330.1027828034572 215.5360513838008 382.59049892112614 140.87894520852714" stroke="rgba(255,255,255,.25)" stroke-width="1.5" fill="none" stroke-linecap="round"/><path d="M610.4693124520034 327.21276132110506 Q668.092599818986 218.3727634021081 619.1609457774646 141.2433247591369" stroke="#00ff60" stroke-width="5" fill="none" stroke-linecap="round" filter="url(#skr1x1776)"/><path d="M611.4591567418911 327.6931198292412 Q668.6404604403675 215.8377630293369 619.3421456697024 139.48312749201432" stroke="rgba(255,255,255,.25)" stroke-width="1.5" fill="none" stroke-linecap="round"/><text x="30.0"  y="975.0" font-family="monospace" font-weight="bold" font-size="22.0" fill="rgba(255,255,255,.22)">#0001</text><text x="500.0"   y="975.0" text-anchor="middle" font-family="monospace" font-weight="bold" font-size="22.0" fill="#00ff60" fill-opacity=".48">VIPER RANGER</text><text x="970.0" y="975.0" text-anchor="end"    font-family="monospace" font-weight="bold" font-size="22.0" fill="#00ff60" fill-opacity=".32">MECH RANGERS</text></svg>