<svg xmlns="http://www.w3.org/2000/svg" viewBox="0 0 1000 1000" width="1000" height="1000" shape-rendering="geometricPrecision"><defs>

  <!-- Scene gradients -->
  <radialGradient id="bgr1x1779" cx="50%" cy="42%" r="72%">
    <stop offset="0%"   stop-color="#0e000e"/>
    <stop offset="100%" stop-color="#1e0600"/>
  </radialGradient>
  <linearGradient id="suitr1x1779" x1="8%" y1="0%" x2="92%" y2="100%">
    <stop offset="0%"   stop-color="#ff44aa" stop-opacity=".95"/>
    <stop offset="45%"  stop-color="#880050"/>
    <stop offset="100%" stop-color="#1e0600"/>
  </linearGradient>
  <linearGradient id="suitHir1x1779" x1="0%" y1="0%" x2="0%" y2="100%">
    <stop offset="0%"   stop-color="rgba(255,255,255,.28)"/>
    <stop offset="60%"  stop-color="rgba(255,255,255,.04)"/>
    <stop offset="100%" stop-color="rgba(255,255,255,0)"/>
  </linearGradient>
  <!-- Bevel: bright top, dark bottom for armour panels -->
  <linearGradient id="bevelr1x1779" x1="0%" y1="0%" x2="0%" y2="100%">
    <stop offset="0%"   stop-color="rgba(255,255,255,.55)"/>
    <stop offset="30%"  stop-color="#ff44aa"/>
    <stop offset="70%"  stop-color="#880050"/>
    <stop offset="100%" stop-color="rgba(0,0,0,.5)"/>
  </linearGradient>

  <!-- Weapon: cold steel blade sweep -->
  <linearGradient id="blader1x1779" x1="0%" y1="0%" x2="100%" y2="0%">
    <stop offset="0%"   stop-color="#0e0e20"/>
    <stop offset="16%"  stop-color="#3e3e58"/>
    <stop offset="34%"  stop-color="#c8c8e0"/>
    <stop offset="50%"  stop-color="#f5f5ff"/>
    <stop offset="66%"  stop-color="#b8b8d0"/>
    <stop offset="84%"  stop-color="#2e2e48"/>
    <stop offset="100%" stop-color="#08080e"/>
  </linearGradient>
  <!-- Blade tip brightening -->
  <linearGradient id="bladeTipr1x1779" x1="0%" y1="100%" x2="0%" y2="0%">
    <stop offset="0%"   stop-color="rgba(255,255,255,0)"/>
    <stop offset="55%"  stop-color="rgba(255,255,255,.1)"/>
    <stop offset="100%" stop-color="rgba(255,255,255,.55)"/>
  </linearGradient>
  <!-- Gunmetal anodised — blaster body -->
  <linearGradient id="gunmetalr1x1779" x1="0%" y1="0%" x2="0%" y2="100%">
    <stop offset="0%"   stop-color="#46465e"/>
    <stop offset="18%"  stop-color="#828296"/>
    <stop offset="42%"  stop-color="#26263a"/>
    <stop offset="72%"  stop-color="#16162a"/>
    <stop offset="100%" stop-color="#0c0c18"/>
  </linearGradient>
  <!-- Brushed steel tube — barrel/rod -->
  <linearGradient id="barrelr1x1779" x1="0%" y1="0%" x2="100%" y2="0%">
    <stop offset="0%"   stop-color="#0a0a14"/>
    <stop offset="24%"  stop-color="#585875"/>
    <stop offset="50%"  stop-color="#a8a8c8"/>
    <stop offset="76%"  stop-color="#383852"/>
    <stop offset="100%" stop-color="#0a0a14"/>
  </linearGradient>
  <!-- Chrome rod — lance shaft -->
  <linearGradient id="chromer1x1779" x1="0%" y1="0%" x2="100%" y2="0%">
    <stop offset="0%"   stop-color="#0c0c18"/>
    <stop offset="20%"  stop-color="#686888"/>
    <stop offset="44%"  stop-color="#e0e0f0"/>
    <stop offset="56%"  stop-color="#c0c0d8"/>
    <stop offset="80%"  stop-color="#28283e"/>
    <stop offset="100%" stop-color="#0c0c18"/>
  </linearGradient>
  <!-- Titanium plate — shield face -->
  <linearGradient id="titaniumr1x1779" x1="0%" y1="0%" x2="100%" y2="100%">
    <stop offset="0%"   stop-color="#585878"/>
    <stop offset="28%"  stop-color="#ff44aa" stop-opacity=".88"/>
    <stop offset="55%"  stop-color="#880050"/>
    <stop offset="80%"  stop-color="#181828"/>
    <stop offset="100%" stop-color="#0a0a18"/>
  </linearGradient>
  <!-- Artillery black-chrome — cannon body -->
  <linearGradient id="artilleryr1x1779" x1="0%" y1="0%" x2="0%" y2="100%">
    <stop offset="0%"   stop-color="#383850"/>
    <stop offset="14%"  stop-color="#78789a"/>
    <stop offset="36%"  stop-color="#202034"/>
    <stop offset="65%"  stop-color="#14141e"/>
    <stop offset="100%" stop-color="#0a0a12"/>
  </linearGradient>
  <!-- Energy orb — staff -->
  <radialGradient id="orbr1x1779" cx="35%" cy="35%" r="65%">
    <stop offset="0%"   stop-color="rgba(255,255,255,.9)"/>
    <stop offset="30%"  stop-color="#ff44aa"/>
    <stop offset="68%"  stop-color="#880050"/>
    <stop offset="100%" stop-color="rgba(0,0,0,.6)"/>
  </radialGradient>
  <!-- Knuckle plate chrome -->
  <linearGradient id="knuckler1x1779" x1="0%" y1="0%" x2="0%" y2="100%">
    <stop offset="0%"   stop-color="#888aaa"/>
    <stop offset="32%"  stop-color="#ff44aa" stop-opacity=".8"/>
    <stop offset="62%"  stop-color="#1a1a2c"/>
    <stop offset="100%" stop-color="#0a0a14"/>
  </linearGradient>

  <!-- Carbon fibre weave texture overlay -->
  <pattern id="carbonr1x1779" width="6" height="6" patternUnits="userSpaceOnUse">
    <rect width="6" height="6" fill="rgba(0,0,0,.08)"/>
    <rect x="0" y="0" width="3" height="3" fill="rgba(255,255,255,.022)"/>
    <rect x="3" y="3" width="3" height="3" fill="rgba(255,255,255,.022)"/>
    <line x1="0" y1="0" x2="3" y2="3" stroke="rgba(255,255,255,.038)" stroke-width=".5"/>
    <line x1="3" y1="0" x2="6" y2="3" stroke="rgba(0,0,0,.055)"       stroke-width=".5"/>
    <line x1="0" y1="3" x2="3" y2="6" stroke="rgba(0,0,0,.055)"       stroke-width=".5"/>
    <line x1="3" y1="3" x2="6" y2="6" stroke="rgba(255,255,255,.038)" stroke-width=".5"/>
  </pattern>

  <!-- Specular metal sheen on armour panels -->
  <filter id="metalr1x1779" x="-5%" y="-5%" width="110%" height="110%">
    <feSpecularLighting surfaceScale="4" specularConstant="1.8"
        specularExponent="42" lighting-color="#ffffff" result="spec">
      <feDistantLight elevation="52" azimuth="38"/>
    </feSpecularLighting>
    <feComposite in="spec" in2="SourceGraphic" operator="in" result="sm"/>
    <feComposite in="SourceGraphic" in2="sm" operator="arithmetic" k1="0" k2="1" k3="0.55" k4="0"/>
  </filter>

  <!-- Sharper specular for weapons — heavier glare -->
  <filter id="wmr1x1779" x="-8%" y="-8%" width="116%" height="116%">
    <feSpecularLighting surfaceScale="6" specularConstant="2.4"
        specularExponent="65" lighting-color="#ffffff" result="spec">
      <feDistantLight elevation="44" azimuth="28"/>
    </feSpecularLighting>
    <feComposite in="spec" in2="SourceGraphic" operator="in" result="sm"/>
    <feComposite in="SourceGraphic" in2="sm" operator="arithmetic" k1="0" k2="1" k3="0.78" k4="0"/>
  </filter>

  <!-- Sketch wobble -->
  <filter id="skr1x1779" x="-8%" y="-8%" width="116%" height="116%">
    <feTurbulence type="fractalNoise" baseFrequency="0.038"
        numOctaves="3" seed="86" result="noise"/>
    <feDisplacementMap in="SourceGraphic" in2="noise" scale="2.6"
        xChannelSelector="R" yChannelSelector="G" result="w"/>
    <feComposite in="w" in2="SourceGraphic" operator="atop"/>
  </filter>

  <!-- Glow: sharp accent -->
  <filter id="glowr1x1779" x="-20%" y="-20%" width="140%" height="140%">
    <feGaussianBlur stdDeviation="3.5" result="b"/>
    <feColorMatrix in="b" type="matrix"
        values="0 0 0 0 1  0 0 0 0 1  0 0 0 0 1  0 0 0 1.8 0" result="boost"/>
    <feMerge><feMergeNode in="boost"/><feMergeNode in="SourceGraphic"/></feMerge>
  </filter>

  <!-- Bloom: wide soft -->
  <filter id="bloomr1x1779" x="-40%" y="-40%" width="180%" height="180%">
    <feGaussianBlur stdDeviation="11" result="b"/>
    <feMerge><feMergeNode in="b"/><feMergeNode in="SourceGraphic"/></feMerge>
  </filter>

  </defs><rect width="1000" height="1000" fill="url(#bgr1x1779)"/><ellipse cx="500.0" cy="1000" rx="850.0" ry="350.0" fill="#ff4500" fill-opacity=".11" filter="url(#bloomr1x1779)"/><ellipse cx="500.0" cy="892.0" rx="350.0" ry="65.0" fill="rgba(0,0,0,.7)" filter="url(#bloomr1x1779)"/><ellipse cx="500.0" cy="889.0" rx="220.0" ry="34.0" fill="rgba(0,0,0,.45)"/><ellipse cx="500.0" cy="520.0" rx="320.0" ry="480.0" fill="#ffffff" fill-opacity=".042" filter="url(#bloomr1x1779)"/><circle cx="289.1" cy="766.7" r="2.8" fill="#ffffff" fill-opacity="0.66" filter="url(#glowr1x1779)"/><circle cx="736.2" cy="608.7" r="2.4" fill="#ffffff" fill-opacity="0.40" filter="url(#glowr1x1779)"/><circle cx="255.5" cy="497.8" r="2.6" fill="#ffffff" fill-opacity="0.70" filter="url(#glowr1x1779)"/><circle cx="632.1" cy="286.7" r="4.2" fill="#ffffff" fill-opacity="0.62" filter="url(#glowr1x1779)"/><circle cx="324.5" cy="365.7" r="1.9" fill="#ffffff" fill-opacity="0.66" filter="url(#glowr1x1779)"/><circle cx="486.4" cy="607.0" r="3.5" fill="#ffffff" fill-opacity="0.56" filter="url(#glowr1x1779)"/><circle cx="693.9" cy="475.5" r="2.6" fill="#ffffff" fill-opacity="0.42" filter="url(#glowr1x1779)"/><circle cx="451.0" cy="584.4" r="3.4" fill="#ffffff" fill-opacity="0.57" filter="url(#glowr1x1779)"/><circle cx="462.2" cy="271.9" r="2.0" fill="#ffffff" fill-opacity="0.52" filter="url(#glowr1x1779)"/><circle cx="557.6" cy="322.7" r="2.1" fill="#ffffff" fill-opacity="0.82" filter="url(#glowr1x1779)"/><circle cx="313.8" cy="641.4" r="4.1" fill="#ffffff" fill-opacity="0.64" filter="url(#glowr1x1779)"/><circle cx="324.3" cy="497.7" r="2.9" fill="#ffffff" fill-opacity="0.62" filter="url(#glowr1x1779)"/><circle cx="515.0" cy="702.4" r="2.7" fill="#ffffff" fill-opacity="0.86" filter="url(#glowr1x1779)"/><circle cx="405.9" cy="520.0" r="4.2" fill="#ffffff" fill-opacity="0.87" filter="url(#glowr1x1779)"/><polygon points="397.8,664.0 488.9,664.1 479.6,876.3 386.6,877.6" fill="url(#suitr1x1779)" stroke="#ff44aa" stroke-width="2.2" filter="url(#skr1x1779) url(#metalr1x1779)"/><polygon points="397.2,662.6 489.8,663.9 481.7,878.2 387.6,878.3" fill="url(#carbonr1x1779)"/><polygon points="393.4,724.3 494.2,724.3 484.3,787.0 385.5,788.8" fill="url(#bevelr1x1779)" fill-opacity=".5" stroke="#ff44aa" stroke-width="1.4" filter="url(#skr1x1779)"/><polygon points="511.8,661.1 600.7,661.4 613.8,877.8 517.8,878.1" fill="url(#suitr1x1779)" stroke="#ff44aa" stroke-width="2.2" filter="url(#skr1x1779) url(#metalr1x1779)"/><polygon points="511.6,664.3 601.6,661.9 613.1,876.4 519.5,879.0" fill="url(#carbonr1x1779)"/><polygon points="505.4,723.6 608.4,722.3 616.4,789.7 514.3,789.9" fill="url(#bevelr1x1779)" fill-opacity=".5" stroke="#ff44aa" stroke-width="1.4" filter="url(#skr1x1779)"/><rect x="393.8" y="838.4" width="100.3" height="24.7" fill="url(#bevelr1x1779)" stroke="#ff44aa" stroke-width="1" filter="url(#skr1x1779)"/><rect x="508.2"  y="838.4" width="100.3" height="24.7" fill="url(#bevelr1x1779)" stroke="#ff44aa" stroke-width="1" filter="url(#skr1x1779)"/><polygon points="370.6,878.4 494.8,876.2 503.7,919.9 363.8,921.3" fill="#880050" stroke="#ff44aa" stroke-width="2" filter="url(#skr1x1779)"/><polygon points="503.8,875.9 631.9,876.9 636.5,923.1 497.4,921.4" fill="#880050" stroke="#ff44aa" stroke-width="2" filter="url(#skr1x1779)"/><polygon points="305.1,631.7 696.5,633.8 638.9,683.5 363.5,681.2" fill="#ff44aa" fill-opacity=".52" stroke="#ff44aa" stroke-width="2" filter="url(#skr1x1779)"/><rect x="462.4" y="638.5" width="72.0" height="42.0" fill="url(#bevelr1x1779)" stroke="#ff44aa" stroke-width="1.4" filter="url(#glowr1x1779)"/><rect x="487.3" y="639.6" width="28.0" height="22.0" rx="1" fill="rgba(255,255,255,.48)"/><polygon points="151.5,465.0 234.1,466.8 257.5,733.4 128.3,736.1" fill="url(#suitr1x1779)" stroke="#ff44aa" stroke-width="2.2" filter="url(#skr1x1779) url(#metalr1x1779)"/><polygon points="173.2,432.4 251.7,432.1 244.6,510.7 158.4,510.1" fill="url(#bevelr1x1779)" fill-opacity=".72" stroke="#ff44aa" stroke-width="2.2" filter="url(#skr1x1779)"/><polygon points="161.6,623.0 243.0,622.8 238.5,661.9 165.3,662.1" fill="#ff44aa" fill-opacity=".42" stroke="#ff44aa" stroke-width="1" filter="url(#skr1x1779)"/><polygon points="765.1,467.9 848.3,467.8 873.2,736.3 742.0,736.1" fill="url(#suitr1x1779)" stroke="#ff44aa" stroke-width="2.2" filter="url(#skr1x1779) url(#metalr1x1779)"/><polygon points="745.8,433.2 825.8,430.8 839.0,509.0 757.2,511.5" fill="url(#bevelr1x1779)" fill-opacity=".72" stroke="#ff44aa" stroke-width="2.2" filter="url(#skr1x1779)"/><polygon points="756.9,621.2 838.9,622.1 833.9,662.4 762.1,661.8" fill="#ff44aa" fill-opacity=".42" stroke="#ff44aa" stroke-width="1" filter="url(#skr1x1779)"/><rect x="120.1"  y="700.0" width="135.3" height="85.0" rx="4" fill="url(#bevelr1x1779)" stroke="#ff44aa" stroke-width="1.8" filter="url(#skr1x1779)"/><rect x="749.5"   y="698.4" width="135.3" height="85.0" rx="4" fill="url(#bevelr1x1779)" stroke="#ff44aa" stroke-width="1.8" filter="url(#skr1x1779)"/><line x1="151.3" y1="700.6" x2="149.9" y2="783.8" stroke="#ff44aa" stroke-opacity=".38" stroke-width="1"/><line x1="779.8" y1="700.6" x2="779.7" y2="783.7" stroke="#ff44aa" stroke-opacity=".38" stroke-width="1"/><line x1="183.4" y1="700.8" x2="181.4" y2="784.7" stroke="#ff44aa" stroke-opacity=".38" stroke-width="1"/><line x1="812.6" y1="701.5" x2="810.0" y2="784.2" stroke="#ff44aa" stroke-opacity=".38" stroke-width="1"/><line x1="215.3" y1="702.2" x2="214.7" y2="782.6" stroke="#ff44aa" stroke-opacity=".38" stroke-width="1"/><line x1="843.9" y1="702.1" x2="843.7" y2="784.1" stroke="#ff44aa" stroke-opacity=".38" stroke-width="1"/><polygon points="233.7,417.7 766.5,419.0 721.7,664.3 278.0,660.9" fill="url(#suitr1x1779)" stroke="#ff44aa" stroke-width="2.6" filter="url(#skr1x1779) url(#metalr1x1779)"/><polygon points="236.6,416.3 765.1,417.0 724.3,662.0 276.3,662.6" fill="url(#carbonr1x1779)"/><polygon points="368.4,419.0 632.1,419.0 613.0,514.8 388.4,515.0" fill="url(#suitHir1x1779)"/><line x1="361.6" y1="472.2" x2="639.2" y2="472.2" stroke="#ff44aa" stroke-opacity=".52" stroke-width="1.3" filter="url(#skr1x1779)"/><line x1="399.5" y1="550.1" x2="601.2" y2="551.6" stroke="#ff44aa" stroke-opacity=".52" stroke-width="1.3" filter="url(#skr1x1779)"/><line x1="266.5" y1="490.7" x2="321.2" y2="490.0" stroke="#ff44aa" stroke-opacity=".62" stroke-width="1.8"/><line x1="679.4" y1="491.3" x2="731.6" y2="492.0" stroke="#ff44aa" stroke-opacity=".62" stroke-width="1.8"/><line x1="266.9" y1="522.8" x2="318.3" y2="524.1" stroke="#ff44aa" stroke-opacity=".62" stroke-width="1.8"/><line x1="680.5" y1="523.2" x2="734.1" y2="522.3" stroke="#ff44aa" stroke-opacity=".62" stroke-width="1.8"/><line x1="265.7" y1="556.3" x2="320.4" y2="554.8" stroke="#ff44aa" stroke-opacity=".62" stroke-width="1.8"/><line x1="679.3" y1="556.2" x2="734.4" y2="554.9" stroke="#ff44aa" stroke-opacity=".62" stroke-width="1.8"/><line x1="267.1" y1="587.2" x2="319.8" y2="584.8" stroke="#ff44aa" stroke-opacity=".62" stroke-width="1.8"/><line x1="681.4" y1="585.6" x2="733.5" y2="585.1" stroke="#ff44aa" stroke-opacity=".62" stroke-width="1.8"/><g filter="url(#glowr1x1779)"><circle cx="498.9" cy="499.3" r="31.3" fill="#ff44aa" stroke="#1e0600" stroke-width="1.4" filter="url(#skr1x1779)"/><circle cx="487.9" cy="497.3" r="7.0" fill="#1e0600"/><circle cx="512.2" cy="498.5" r="7.0" fill="#1e0600"/><rect x="485.9" y="520.6" width="9.3" height="17.4" rx="1" fill="#ff44aa" stroke="#1e0600" stroke-width=".6"/><rect x="495.9" y="523.7" width="9.3" height="17.4" rx="1" fill="#ff44aa" stroke="#1e0600" stroke-width=".6"/><rect x="508.7" y="522.7" width="9.3" height="17.4" rx="1" fill="#ff44aa" stroke="#1e0600" stroke-width=".6"/></g><g><rect x="836.4181893731095" y="395.4134144105017" width="175.0" height="118.0" rx="7" fill="url(#artilleryr1x1779)" stroke="#ff44aa" stroke-width="2.6" filter="url(#wmr1x1779)"/><rect x="839.5934734879621" y="395.5026824353263" width="175.0" height="118.0" rx="7" fill="url(#carbonr1x1779)"/><rect x="981.1625079705939" y="445.97243254454804" width="78.0" height="32.0" rx="6" fill="url(#barrelr1x1779)" stroke="#ff44aa" stroke-width="1.4" filter="url(#wmr1x1779)"/><circle cx="882.2545513883792" cy="472.560131296236" r="48.0" fill="rgba(0,0,0,.55)" stroke="#ff44aa" stroke-width="2" filter="url(#wmr1x1779)"/><circle cx="880.9706784772314" cy="470.3892994730733" r="34.0" fill="#ff44aa" fill-opacity=".4" filter="url(#bloomr1x1779)"/><circle cx="880.6711887350865" cy="470.4495092785917" r="18.0" fill="#ff44aa" filter="url(#glowr1x1779)"/><rect x="843.8916303659418" y="383.11845796760167" width="100.0" height="18.0" rx="2" fill="url(#bevelr1x1779)" stroke="#ff44aa" stroke-width="1" filter="url(#wmr1x1779)"/><rect x="839.9004390522465" y="398.5696307620033" width="120.0" height="12.0" rx="3" fill="rgba(255,255,255,.2)"/><line x1="846.6813154546172" y1="520.932834952604" x2="849.2263058523275" y2="549.788239987474" stroke="#ff44aa" stroke-opacity=".6" stroke-width="2"/><line x1="871.3223146709241" y1="519.5496490089223" x2="871.1268494542315" y2="548.4663030988537" stroke="#ff44aa" stroke-opacity=".6" stroke-width="2"/><line x1="896.1891241725162" y1="519.4489474060014" x2="896.5183768408001" y2="551.1483986076898" stroke="#ff44aa" stroke-opacity=".6" stroke-width="2"/><line x1="919.4260737783835" y1="520.8769179807044" x2="921.2529653126002" y2="550.5573072134517" stroke="#ff44aa" stroke-opacity=".6" stroke-width="2"/></g><rect x="450.30244517186657" y="556.8445644284599" width="100.0"  height="56.0" fill="#880050" stroke="#ff44aa" stroke-width="2.2" filter="url(#skr1x1779)"/><rect x="423.68609125874934" y="574.198167550657" width="152.0" height="26.0" fill="url(#bevelr1x1779)" fill-opacity=".65" stroke="#ff44aa" stroke-width="1.2" filter="url(#skr1x1779)"/><polygon points="306.2,381.7 350.9,293.4 499.6,277.5 649.7,294.0 691.1,381.0 667.7,503.3 499.6,564.0 330.1,505.2" fill="url(#suitr1x1779)" stroke="#ff44aa" stroke-width="2.8" filter="url(#skr1x1779) url(#metalr1x1779)"/><polygon points="307.9,378.9 351.4,293.1 499.0,279.9 649.3,293.4 692.8,379.7 669.4,502.9 499.0,566.8 329.3,505.1" fill="url(#carbonr1x1779)"/><polygon points="379.6,304.2 499.4,287.2 617.3,301.8 606.6,379.1 391.0,382.3" fill="url(#suitHir1x1779)"/><polygon points="382.1,381.1 366.8,425.7 432.8,503.0 501.5,526.4 566.8,505.2 635.6,425.1 619.9,382.1" fill="#1e0600" fill-opacity=".88" stroke="#ff44aa" stroke-width="1.8" filter="url(#skr1x1779)"/><polygon points="380.4,413.1 478.3,412.3 483.4,439.5 387.4,439.1" fill="#ff44aa" filter="url(#glowr1x1779)"/><polygon points="522.7,413.1 619.4,412.8 610.5,438.6 515.9,439.1" fill="#ff44aa" filter="url(#glowr1x1779)"/><ellipse cx="430.9" cy="425.7" rx="38.4"  ry="8.2" fill="#ffffff" opacity=".88"/><ellipse cx="569.1" cy="425.7" rx="38.4"  ry="8.2" fill="#ffffff" opacity=".88"/><line x1="484.2519200993329" y1="414.94365397375077" x2="515.5471674435213" y2="414.5580480311997" stroke="#ff44aa" stroke-opacity=".52" stroke-width="2"/><line x1="485.78258026909083" y1="439.34319402957334" x2="516.4249528746493" y2="437.55834700847043" stroke="#ff44aa" stroke-opacity=".52" stroke-width="2"/><line x1="499.1505126643926" y1="456.1006941063329" x2="498.69317598203196" y2="483.1614568474703" stroke="#ff44aa" stroke-opacity=".58" stroke-width="2.2" filter="url(#skr1x1779)"/><line x1="455.4965047980473" y1="489.6767823291942" x2="452.970907583721" y2="521.2144835746847" stroke="#ff44aa" stroke-opacity=".52" stroke-width="1.5" filter="url(#skr1x1779)"/><line x1="476.9115683400444" y1="491.18305327044794" x2="476.3014562114514" y2="519.2151314985007" stroke="#ff44aa" stroke-opacity=".52" stroke-width="1.5" filter="url(#skr1x1779)"/><line x1="498.8689587810077" y1="491.45360876079644" x2="498.8491335096769" y2="520.858419866953" stroke="#ff44aa" stroke-opacity=".52" stroke-width="1.5" filter="url(#skr1x1779)"/><line x1="522.2471090582758" y1="491.2751125168055" x2="522.5219259501062" y2="521.2160923552699" stroke="#ff44aa" stroke-opacity=".52" stroke-width="1.5" filter="url(#skr1x1779)"/><line x1="545.9186090779677" y1="491.38311424441633" x2="544.8506072776579" y2="518.4625824723392" stroke="#ff44aa" stroke-opacity=".52" stroke-width="1.5" filter="url(#skr1x1779)"/><polygon points="432.6,504.4 565.7,505.3 552.1,557.2 447.9,557.6" fill="#880050" fill-opacity=".72" stroke="#ff44aa" stroke-width="1.3" filter="url(#skr1x1779)"/><polygon points="317.5,304.9 362.8,304.3 340.5,195.5" fill="url(#bevelr1x1779)" fill-opacity=".95" stroke="#ff44aa" stroke-width="1.6" filter="url(#skr1x1779) url(#glowr1x1779)"/><polygon points="397.0,306.2 441.3,305.1 418.2,210.5" fill="url(#bevelr1x1779)" fill-opacity=".95" stroke="#ff44aa" stroke-width="1.6" filter="url(#skr1x1779) url(#glowr1x1779)"/><polygon points="477.7,304.1 524.0,306.3 500.7,223.6" fill="url(#bevelr1x1779)" fill-opacity=".95" stroke="#ff44aa" stroke-width="1.6" filter="url(#skr1x1779) url(#glowr1x1779)"/><polygon points="558.8,304.0 604.1,305.1 580.1,207.6" fill="url(#bevelr1x1779)" fill-opacity=".95" stroke="#ff44aa" stroke-width="1.6" filter="url(#skr1x1779) url(#glowr1x1779)"/><polygon points="639.9,303.6 686.0,304.6 660.0,196.4" fill="url(#bevelr1x1779)" fill-opacity=".95" stroke="#ff44aa" stroke-width="1.6" filter="url(#skr1x1779) url(#glowr1x1779)"/><text x="30.0"  y="975.0" font-family="monospace" font-weight="bold" font-size="22.0" fill="rgba(255,255,255,.22)">#0001</text><text x="500.0"   y="975.0" text-anchor="middle" font-family="monospace" font-weight="bold" font-size="22.0" fill="#ff44aa" fill-opacity=".48">SAKURA RANGER</text><text x="970.0" y="975.0" text-anchor="end"    font-family="monospace" font-weight="bold" font-size="22.0" fill="#ff44aa" fill-opacity=".32">MECH RANGERS</text></svg>