<svg xmlns="http://www.w3.org/2000/svg" viewBox="0 0 1000 1000" width="1000" height="1000" shape-rendering="geometricPrecision"><defs>

  <!-- Scene gradients -->
  <radialGradient id="bgr1x1829" cx="50%" cy="42%" r="72%">
    <stop offset="0%"   stop-color="#001422"/>
    <stop offset="100%" stop-color="#000a14"/>
  </radialGradient>
  <linearGradient id="suitr1x1829" x1="8%" y1="0%" x2="92%" y2="100%">
    <stop offset="0%"   stop-color="#2060ff" stop-opacity=".95"/>
    <stop offset="45%"  stop-color="#003ccc"/>
    <stop offset="100%" stop-color="#000a14"/>
  </linearGradient>
  <linearGradient id="suitHir1x1829" x1="0%" y1="0%" x2="0%" y2="100%">
    <stop offset="0%"   stop-color="rgba(255,255,255,.28)"/>
    <stop offset="60%"  stop-color="rgba(255,255,255,.04)"/>
    <stop offset="100%" stop-color="rgba(255,255,255,0)"/>
  </linearGradient>
  <!-- Bevel: bright top, dark bottom for armour panels -->
  <linearGradient id="bevelr1x1829" x1="0%" y1="0%" x2="0%" y2="100%">
    <stop offset="0%"   stop-color="rgba(255,255,255,.55)"/>
    <stop offset="30%"  stop-color="#2060ff"/>
    <stop offset="70%"  stop-color="#003ccc"/>
    <stop offset="100%" stop-color="rgba(0,0,0,.5)"/>
  </linearGradient>

  <!-- Weapon: cold steel blade sweep -->
  <linearGradient id="blader1x1829" x1="0%" y1="0%" x2="100%" y2="0%">
    <stop offset="0%"   stop-color="#0e0e20"/>
    <stop offset="16%"  stop-color="#3e3e58"/>
    <stop offset="34%"  stop-color="#c8c8e0"/>
    <stop offset="50%"  stop-color="#f5f5ff"/>
    <stop offset="66%"  stop-color="#b8b8d0"/>
    <stop offset="84%"  stop-color="#2e2e48"/>
    <stop offset="100%" stop-color="#08080e"/>
  </linearGradient>
  <!-- Blade tip brightening -->
  <linearGradient id="bladeTipr1x1829" x1="0%" y1="100%" x2="0%" y2="0%">
    <stop offset="0%"   stop-color="rgba(255,255,255,0)"/>
    <stop offset="55%"  stop-color="rgba(255,255,255,.1)"/>
    <stop offset="100%" stop-color="rgba(255,255,255,.55)"/>
  </linearGradient>
  <!-- Gunmetal anodised — blaster body -->
  <linearGradient id="gunmetalr1x1829" x1="0%" y1="0%" x2="0%" y2="100%">
    <stop offset="0%"   stop-color="#46465e"/>
    <stop offset="18%"  stop-color="#828296"/>
    <stop offset="42%"  stop-color="#26263a"/>
    <stop offset="72%"  stop-color="#16162a"/>
    <stop offset="100%" stop-color="#0c0c18"/>
  </linearGradient>
  <!-- Brushed steel tube — barrel/rod -->
  <linearGradient id="barrelr1x1829" x1="0%" y1="0%" x2="100%" y2="0%">
    <stop offset="0%"   stop-color="#0a0a14"/>
    <stop offset="24%"  stop-color="#585875"/>
    <stop offset="50%"  stop-color="#a8a8c8"/>
    <stop offset="76%"  stop-color="#383852"/>
    <stop offset="100%" stop-color="#0a0a14"/>
  </linearGradient>
  <!-- Chrome rod — lance shaft -->
  <linearGradient id="chromer1x1829" x1="0%" y1="0%" x2="100%" y2="0%">
    <stop offset="0%"   stop-color="#0c0c18"/>
    <stop offset="20%"  stop-color="#686888"/>
    <stop offset="44%"  stop-color="#e0e0f0"/>
    <stop offset="56%"  stop-color="#c0c0d8"/>
    <stop offset="80%"  stop-color="#28283e"/>
    <stop offset="100%" stop-color="#0c0c18"/>
  </linearGradient>
  <!-- Titanium plate — shield face -->
  <linearGradient id="titaniumr1x1829" x1="0%" y1="0%" x2="100%" y2="100%">
    <stop offset="0%"   stop-color="#585878"/>
    <stop offset="28%"  stop-color="#2060ff" stop-opacity=".88"/>
    <stop offset="55%"  stop-color="#003ccc"/>
    <stop offset="80%"  stop-color="#181828"/>
    <stop offset="100%" stop-color="#0a0a18"/>
  </linearGradient>
  <!-- Artillery black-chrome — cannon body -->
  <linearGradient id="artilleryr1x1829" x1="0%" y1="0%" x2="0%" y2="100%">
    <stop offset="0%"   stop-color="#383850"/>
    <stop offset="14%"  stop-color="#78789a"/>
    <stop offset="36%"  stop-color="#202034"/>
    <stop offset="65%"  stop-color="#14141e"/>
    <stop offset="100%" stop-color="#0a0a12"/>
  </linearGradient>
  <!-- Energy orb — staff -->
  <radialGradient id="orbr1x1829" cx="35%" cy="35%" r="65%">
    <stop offset="0%"   stop-color="rgba(255,255,255,.9)"/>
    <stop offset="30%"  stop-color="#2060ff"/>
    <stop offset="68%"  stop-color="#003ccc"/>
    <stop offset="100%" stop-color="rgba(0,0,0,.6)"/>
  </radialGradient>
  <!-- Knuckle plate chrome -->
  <linearGradient id="knuckler1x1829" x1="0%" y1="0%" x2="0%" y2="100%">
    <stop offset="0%"   stop-color="#888aaa"/>
    <stop offset="32%"  stop-color="#2060ff" stop-opacity=".8"/>
    <stop offset="62%"  stop-color="#1a1a2c"/>
    <stop offset="100%" stop-color="#0a0a14"/>
  </linearGradient>

  <!-- Carbon fibre weave texture overlay -->
  <pattern id="carbonr1x1829" width="6" height="6" patternUnits="userSpaceOnUse">
    <rect width="6" height="6" fill="rgba(0,0,0,.08)"/>
    <rect x="0" y="0" width="3" height="3" fill="rgba(255,255,255,.022)"/>
    <rect x="3" y="3" width="3" height="3" fill="rgba(255,255,255,.022)"/>
    <line x1="0" y1="0" x2="3" y2="3" stroke="rgba(255,255,255,.038)" stroke-width=".5"/>
    <line x1="3" y1="0" x2="6" y2="3" stroke="rgba(0,0,0,.055)"       stroke-width=".5"/>
    <line x1="0" y1="3" x2="3" y2="6" stroke="rgba(0,0,0,.055)"       stroke-width=".5"/>
    <line x1="3" y1="3" x2="6" y2="6" stroke="rgba(255,255,255,.038)" stroke-width=".5"/>
  </pattern>

  <!-- Specular metal sheen on armour panels -->
  <filter id="metalr1x1829" x="-5%" y="-5%" width="110%" height="110%">
    <feSpecularLighting surfaceScale="4" specularConstant="1.8"
        specularExponent="42" lighting-color="#ffffff" result="spec">
      <feDistantLight elevation="52" azimuth="38"/>
    </feSpecularLighting>
    <feComposite in="spec" in2="SourceGraphic" operator="in" result="sm"/>
    <feComposite in="SourceGraphic" in2="sm" operator="arithmetic" k1="0" k2="1" k3="0.55" k4="0"/>
  </filter>

  <!-- Sharper specular for weapons — heavier glare -->
  <filter id="wmr1x1829" x="-8%" y="-8%" width="116%" height="116%">
    <feSpecularLighting surfaceScale="6" specularConstant="2.4"
        specularExponent="65" lighting-color="#ffffff" result="spec">
      <feDistantLight elevation="44" azimuth="28"/>
    </feSpecularLighting>
    <feComposite in="spec" in2="SourceGraphic" operator="in" result="sm"/>
    <feComposite in="SourceGraphic" in2="sm" operator="arithmetic" k1="0" k2="1" k3="0.78" k4="0"/>
  </filter>

  <!-- Sketch wobble -->
  <filter id="skr1x1829" x="-8%" y="-8%" width="116%" height="116%">
    <feTurbulence type="fractalNoise" baseFrequency="0.038"
        numOctaves="3" seed="80" result="noise"/>
    <feDisplacementMap in="SourceGraphic" in2="noise" scale="2.6"
        xChannelSelector="R" yChannelSelector="G" result="w"/>
    <feComposite in="w" in2="SourceGraphic" operator="atop"/>
  </filter>

  <!-- Glow: sharp accent -->
  <filter id="glowr1x1829" x="-20%" y="-20%" width="140%" height="140%">
    <feGaussianBlur stdDeviation="3.5" result="b"/>
    <feColorMatrix in="b" type="matrix"
        values="0 0 0 0 1  0 0 0 0 1  0 0 0 0 1  0 0 0 1.8 0" result="boost"/>
    <feMerge><feMergeNode in="boost"/><feMergeNode in="SourceGraphic"/></feMerge>
  </filter>

  <!-- Bloom: wide soft -->
  <filter id="bloomr1x1829" x="-40%" y="-40%" width="180%" height="180%">
    <feGaussianBlur stdDeviation="11" result="b"/>
    <feMerge><feMergeNode in="b"/><feMergeNode in="SourceGraphic"/></feMerge>
  </filter>

  </defs><rect width="1000" height="1000" fill="url(#bgr1x1829)"/><line x1="0" y1="-2.7" x2="1000" y2="2.2" stroke="#2060ff" stroke-opacity=".055" stroke-width="1.2"/><line x1="-1.4" y1="0" x2="-1.2" y2="1000" stroke="#2060ff" stroke-opacity=".055" stroke-width="1.2"/><line x1="0" y1="97.5" x2="1000" y2="97.1" stroke="#2060ff" stroke-opacity=".055" stroke-width="1.2"/><line x1="99.7" y1="0" x2="97.4" y2="1000" stroke="#2060ff" stroke-opacity=".055" stroke-width="1.2"/><line x1="0" y1="202.8" x2="1000" y2="201.6" stroke="#2060ff" stroke-opacity=".055" stroke-width="1.2"/><line x1="201.6" y1="0" x2="197.9" y2="1000" stroke="#2060ff" stroke-opacity=".055" stroke-width="1.2"/><line x1="0" y1="299.9" x2="1000" y2="298.7" stroke="#2060ff" stroke-opacity=".055" stroke-width="1.2"/><line x1="302.5" y1="0" x2="297.4" y2="1000" stroke="#2060ff" stroke-opacity=".055" stroke-width="1.2"/><line x1="0" y1="402.8" x2="1000" y2="402.4" stroke="#2060ff" stroke-opacity=".055" stroke-width="1.2"/><line x1="397.3" y1="0" x2="397.3" y2="1000" stroke="#2060ff" stroke-opacity=".055" stroke-width="1.2"/><line x1="0" y1="501.0" x2="1000" y2="498.3" stroke="#2060ff" stroke-opacity=".055" stroke-width="1.2"/><line x1="499.7" y1="0" x2="503.0" y2="1000" stroke="#2060ff" stroke-opacity=".055" stroke-width="1.2"/><line x1="0" y1="600.8" x2="1000" y2="600.3" stroke="#2060ff" stroke-opacity=".055" stroke-width="1.2"/><line x1="600.6" y1="0" x2="600.0" y2="1000" stroke="#2060ff" stroke-opacity=".055" stroke-width="1.2"/><line x1="0" y1="699.2" x2="1000" y2="701.0" stroke="#2060ff" stroke-opacity=".055" stroke-width="1.2"/><line x1="699.1" y1="0" x2="701.3" y2="1000" stroke="#2060ff" stroke-opacity=".055" stroke-width="1.2"/><line x1="0" y1="800.4" x2="1000" y2="802.7" stroke="#2060ff" stroke-opacity=".055" stroke-width="1.2"/><line x1="800.4" y1="0" x2="799.4" y2="1000" stroke="#2060ff" stroke-opacity=".055" stroke-width="1.2"/><line x1="0" y1="900.1" x2="1000" y2="898.9" stroke="#2060ff" stroke-opacity=".055" stroke-width="1.2"/><line x1="902.9" y1="0" x2="897.4" y2="1000" stroke="#2060ff" stroke-opacity=".055" stroke-width="1.2"/><path d="M80,30 L30,30 L30,80" stroke="#2060ff" stroke-opacity=".45" stroke-width="2" fill="none" filter="url(#glowr1x1829)"/><path d="M920,30 L970,30 L970,80" stroke="#2060ff" stroke-opacity=".45" stroke-width="2" fill="none" filter="url(#glowr1x1829)"/><path d="M30,920 L30,970 L80,970" stroke="#2060ff" stroke-opacity=".45" stroke-width="2" fill="none" filter="url(#glowr1x1829)"/><path d="M970,920 L970,970 L920,970" stroke="#2060ff" stroke-opacity=".45" stroke-width="2" fill="none" filter="url(#glowr1x1829)"/><ellipse cx="500.0" cy="892.0" rx="350.0" ry="65.0" fill="rgba(0,0,0,.7)" filter="url(#bloomr1x1829)"/><ellipse cx="500.0" cy="889.0" rx="220.0" ry="34.0" fill="rgba(0,0,0,.45)"/><polygon points="398.5,663.3 490.0,662.3 479.5,877.1 388.5,878.6" fill="url(#suitr1x1829)" stroke="#2060ff" stroke-width="2.2" filter="url(#skr1x1829) url(#metalr1x1829)"/><polygon points="397.8,661.8 490.5,662.9 482.3,877.7 387.0,876.5" fill="url(#carbonr1x1829)"/><polygon points="393.0,722.2 494.6,722.6 484.8,789.2 382.2,787.5" fill="url(#bevelr1x1829)" fill-opacity=".5" stroke="#2060ff" stroke-width="1.4" filter="url(#skr1x1829)"/><polygon points="510.3,662.1 602.3,662.2 613.0,876.6 518.4,878.6" fill="url(#suitr1x1829)" stroke="#2060ff" stroke-width="2.2" filter="url(#skr1x1829) url(#metalr1x1829)"/><polygon points="509.5,661.2 601.9,661.7 613.5,876.3 519.2,878.9" fill="url(#carbonr1x1829)"/><polygon points="505.9,723.0 607.1,723.1 617.1,787.1 516.6,789.8" fill="url(#bevelr1x1829)" fill-opacity=".5" stroke="#2060ff" stroke-width="1.4" filter="url(#skr1x1829)"/><rect x="392.0" y="837.3" width="100.3" height="24.7" fill="url(#bevelr1x1829)" stroke="#2060ff" stroke-width="1" filter="url(#skr1x1829)"/><rect x="507.8"  y="839.6" width="100.3" height="24.7" fill="url(#bevelr1x1829)" stroke="#2060ff" stroke-width="1" filter="url(#skr1x1829)"/><polygon points="371.3,877.8 497.2,878.0 503.5,920.3 361.8,921.9" fill="#003ccc" stroke="#2060ff" stroke-width="2" filter="url(#skr1x1829)"/><polygon points="502.7,878.0 630.7,876.0 637.2,922.5 494.7,921.4" fill="#003ccc" stroke="#2060ff" stroke-width="2" filter="url(#skr1x1829)"/><polygon points="303.2,634.0 695.8,633.6 637.9,680.8 362.7,681.6" fill="#2060ff" fill-opacity=".52" stroke="#2060ff" stroke-width="2" filter="url(#skr1x1829)"/><rect x="465.4" y="639.4" width="72.0" height="42.0" fill="url(#bevelr1x1829)" stroke="#2060ff" stroke-width="1.4" filter="url(#glowr1x1829)"/><rect x="486.8" y="642.1" width="28.0" height="22.0" rx="1" fill="rgba(255,255,255,.48)"/><polygon points="153.9,467.3 233.5,467.7 259.0,733.9 130.0,735.7" fill="url(#suitr1x1829)" stroke="#2060ff" stroke-width="2.2" filter="url(#skr1x1829) url(#metalr1x1829)"/><polygon points="172.3,433.7 254.4,432.6 242.3,511.2 159.5,510.6" fill="url(#bevelr1x1829)" fill-opacity=".72" stroke="#2060ff" stroke-width="2.2" filter="url(#skr1x1829)"/><polygon points="161.7,620.3 241.7,623.0 240.9,660.7 166.1,662.2" fill="#2060ff" fill-opacity=".42" stroke="#2060ff" stroke-width="1" filter="url(#skr1x1829)"/><polygon points="764.7,466.2 848.3,467.3 872.3,733.3 740.6,734.0" fill="url(#suitr1x1829)" stroke="#2060ff" stroke-width="2.2" filter="url(#skr1x1829) url(#metalr1x1829)"/><polygon points="745.3,432.7 826.6,431.1 842.1,509.3 757.8,509.0" fill="url(#bevelr1x1829)" fill-opacity=".72" stroke="#2060ff" stroke-width="2.2" filter="url(#skr1x1829)"/><polygon points="756.1,623.3 837.8,623.5 834.4,662.1 759.7,661.0" fill="#2060ff" fill-opacity=".42" stroke="#2060ff" stroke-width="1" filter="url(#skr1x1829)"/><rect x="121.1"  y="701.4" width="135.3" height="85.0" rx="4" fill="url(#bevelr1x1829)" stroke="#2060ff" stroke-width="1.8" filter="url(#skr1x1829)"/><rect x="749.6"   y="701.3" width="135.3" height="85.0" rx="4" fill="url(#bevelr1x1829)" stroke="#2060ff" stroke-width="1.8" filter="url(#skr1x1829)"/><line x1="150.1" y1="703.6" x2="150.6" y2="782.2" stroke="#2060ff" stroke-opacity=".38" stroke-width="1"/><line x1="777.8" y1="701.7" x2="779.6" y2="782.1" stroke="#2060ff" stroke-opacity=".38" stroke-width="1"/><line x1="182.1" y1="702.9" x2="183.8" y2="784.7" stroke="#2060ff" stroke-opacity=".38" stroke-width="1"/><line x1="809.6" y1="702.0" x2="811.0" y2="785.2" stroke="#2060ff" stroke-opacity=".38" stroke-width="1"/><line x1="216.1" y1="700.8" x2="214.0" y2="783.4" stroke="#2060ff" stroke-opacity=".38" stroke-width="1"/><line x1="842.1" y1="702.3" x2="845.0" y2="783.4" stroke="#2060ff" stroke-opacity=".38" stroke-width="1"/><polygon points="234.1,417.9 763.7,417.9 722.0,661.5 278.9,661.0" fill="url(#suitr1x1829)" stroke="#2060ff" stroke-width="2.6" filter="url(#skr1x1829) url(#metalr1x1829)"/><polygon points="235.4,417.5 766.5,417.9 720.9,664.0 278.7,661.3" fill="url(#carbonr1x1829)"/><polygon points="367.2,417.2 633.6,418.3 611.4,516.7 390.4,513.9" fill="url(#suitHir1x1829)"/><line x1="362.9" y1="473.1" x2="636.5" y2="471.8" stroke="#2060ff" stroke-opacity=".52" stroke-width="1.3" filter="url(#skr1x1829)"/><line x1="400.2" y1="550.4" x2="598.9" y2="550.1" stroke="#2060ff" stroke-opacity=".52" stroke-width="1.3" filter="url(#skr1x1829)"/><line x1="267.9" y1="492.3" x2="320.2" y2="490.3" stroke="#2060ff" stroke-opacity=".62" stroke-width="1.8"/><line x1="680.6" y1="491.4" x2="733.6" y2="490.1" stroke="#2060ff" stroke-opacity=".62" stroke-width="1.8"/><line x1="268.2" y1="522.7" x2="321.4" y2="524.2" stroke="#2060ff" stroke-opacity=".62" stroke-width="1.8"/><line x1="681.2" y1="522.3" x2="732.0" y2="524.5" stroke="#2060ff" stroke-opacity=".62" stroke-width="1.8"/><line x1="265.8" y1="553.5" x2="319.5" y2="555.6" stroke="#2060ff" stroke-opacity=".62" stroke-width="1.8"/><line x1="680.7" y1="554.7" x2="732.4" y2="553.7" stroke="#2060ff" stroke-opacity=".62" stroke-width="1.8"/><line x1="266.9" y1="587.1" x2="318.1" y2="586.3" stroke="#2060ff" stroke-opacity=".62" stroke-width="1.8"/><line x1="680.0" y1="586.4" x2="734.6" y2="587.8" stroke="#2060ff" stroke-opacity=".62" stroke-width="1.8"/><g filter="url(#glowr1x1829)"><polygon points="501.6,452.0 540.4,511.6 499.9,569.3 456.8,509.2" fill="#2060ff" stroke="#000a14" stroke-width="1.4" filter="url(#skr1x1829)"/><polygon points="498.8,452.0 540.5,510.7 498.7,568.3 459.5,509.4" fill="url(#suitHir1x1829)" opacity=".45"/></g><g><polygon points="76.2,671.4 128.2,671.4 112.6,-28.6 91.8,-28.6" fill="url(#blader1x1829)" filter="url(#wmr1x1829)"/><polygon points="91.8,-28.6 112.6,-28.6 102.2,-138.6" fill="url(#blader1x1829)" filter="url(#wmr1x1829)"/><polygon points="100.3,671.4 104.0,671.4 102.7,-128.6 101.6,-128.6" fill="url(#bladeTipr1x1829)" opacity=".9"/><line x1="109.8749331501126" y1="669.710241203662" x2="103.73192799976093" y2="-128.12680510468783" stroke="rgba(255,255,255,.68)" stroke-width="1.5"/><line x1="92.31272528683763" y1="671.0541699975729" x2="102.64631707657125" y2="-129.48423334173862" stroke="#2060ff" stroke-width="1" stroke-opacity=".45"/><line x1="106.8" y1="651.4" x2="104.0" y2="11.4" stroke="rgba(0,0,0,.38)" stroke-width="1.6"/><line x1="97.5" y1="651.4" x2="100.3" y2="11.4" stroke="rgba(0,0,0,.38)" stroke-width="1.6"/><rect x="46.463494233265486" y="669.3955494541675" width="112.0" height="28.0" rx="3" fill="url(#bevelr1x1829)" stroke="#2060ff" stroke-width="1.6" filter="url(#wmr1x1829)"/><rect x="71.04566177897152" y="674.5666355826892" width="64.0" height="10.0" rx="1" fill="rgba(255,255,255,.32)"/><rect x="91.92777251185846" y="677.9228675044142" width="24.0" height="6.0" rx="1" fill="#2060ff" fill-opacity=".35"/><rect x="91.45553029779342" y="687.061066419445" width="24.0" height="6.0" rx="1" fill="#2060ff" fill-opacity=".35"/><rect x="91.15578601568934" y="691.664922202006" width="24.0" height="6.0" rx="1" fill="#2060ff" fill-opacity=".35"/><rect x="89.50425941072402" y="702.3642465284094" width="24.0" height="6.0" rx="1" fill="#2060ff" fill-opacity=".35"/><rect x="89.01981593932953" y="710.6041073837317" width="24.0" height="6.0" rx="1" fill="#2060ff" fill-opacity=".35"/><rect x="88.56049193454903" y="717.8211030879057" width="24.0" height="6.0" rx="1" fill="#2060ff" fill-opacity=".35"/><ellipse cx="103.38488912744444" cy="727.4933477199636" rx="22.0" ry="16.0" fill="url(#bevelr1x1829)" stroke="#2060ff" stroke-width="1.2" filter="url(#wmr1x1829)"/></g><rect x="450.5315354341641" y="557.5641261955723" width="100.0"  height="56.0" fill="#003ccc" stroke="#2060ff" stroke-width="2.2" filter="url(#skr1x1829)"/><rect x="422.99356235312297" y="575.5224117542617" width="152.0" height="26.0" fill="url(#bevelr1x1829)" fill-opacity=".65" stroke="#2060ff" stroke-width="1.2" filter="url(#skr1x1829)"/><polygon points="309.6,379.5 351.9,295.7 500.5,276.4 651.4,293.8 692.2,380.5 667.9,503.5 501.6,566.1 332.0,502.7" fill="url(#suitr1x1829)" stroke="#2060ff" stroke-width="2.8" filter="url(#skr1x1829) url(#metalr1x1829)"/><polygon points="306.8,381.4 351.2,292.8 500.5,277.6 649.8,295.5 692.2,380.6 668.3,503.1 498.8,566.2 331.6,505.2" fill="url(#carbonr1x1829)"/><polygon points="381.8,301.5 498.5,285.3 619.9,301.8 606.0,381.7 393.0,381.4" fill="url(#suitHir1x1829)"/><polygon points="379.3,379.3 366.5,426.9 432.6,504.0 499.3,529.2 567.9,504.6 636.1,424.3 620.6,382.0" fill="#000a14" fill-opacity=".88" stroke="#2060ff" stroke-width="1.8" filter="url(#skr1x1829)"/><polygon points="381.2,412.1 476.8,412.0 484.8,438.4 386.9,441.6" fill="#2060ff" filter="url(#glowr1x1829)"/><polygon points="521.3,411.1 619.7,410.3 613.0,441.1 516.0,441.1" fill="#2060ff" filter="url(#glowr1x1829)"/><ellipse cx="430.9" cy="425.7" rx="38.4"  ry="8.2" fill="#ffffff" opacity=".88"/><ellipse cx="569.1" cy="425.7" rx="38.4"  ry="8.2" fill="#ffffff" opacity=".88"/><line x1="482.965888771005" y1="413.6503617949784" x2="516.5417189624533" y2="412.9809145728126" stroke="#2060ff" stroke-opacity=".52" stroke-width="2"/><line x1="484.1343639090285" y1="436.38049414856357" x2="513.5856181286648" y2="436.265985608194" stroke="#2060ff" stroke-opacity=".52" stroke-width="2"/><line x1="499.45284321624786" y1="455.57619179636237" x2="499.8730912670493" y2="482.51321148006247" stroke="#2060ff" stroke-opacity=".58" stroke-width="2.2" filter="url(#skr1x1829)"/><line x1="453.8248246537335" y1="492.1010014715604" x2="452.9469189029001" y2="520.756357078161" stroke="#2060ff" stroke-opacity=".52" stroke-width="1.5" filter="url(#skr1x1829)"/><line x1="475.3971145490557" y1="492.17049732692533" x2="476.7648347724601" y2="519.4026890173554" stroke="#2060ff" stroke-opacity=".52" stroke-width="1.5" filter="url(#skr1x1829)"/><line x1="498.31488588023933" y1="492.6030130683444" x2="501.2587613637559" y2="520.8550983592868" stroke="#2060ff" stroke-opacity=".52" stroke-width="1.5" filter="url(#skr1x1829)"/><line x1="523.648018726483" y1="492.35025637000797" x2="521.6923027166724" y2="520.7556052516214" stroke="#2060ff" stroke-opacity=".52" stroke-width="1.5" filter="url(#skr1x1829)"/><line x1="544.616223312933" y1="493.0210549997165" x2="546.2417411003448" y2="519.4117864224129" stroke="#2060ff" stroke-opacity=".52" stroke-width="1.5" filter="url(#skr1x1829)"/><polygon points="432.7,503.3 566.8,502.1 554.5,557.7 447.4,556.4" fill="#003ccc" fill-opacity=".72" stroke="#2060ff" stroke-width="1.3" filter="url(#skr1x1829)"/><text x="30.0"  y="975.0" font-family="monospace" font-weight="bold" font-size="22.0" fill="rgba(255,255,255,.22)">#0001</text><text x="500.0"   y="975.0" text-anchor="middle" font-family="monospace" font-weight="bold" font-size="22.0" fill="#2060ff" fill-opacity=".48">COBALT RANGER</text><text x="970.0" y="975.0" text-anchor="end"    font-family="monospace" font-weight="bold" font-size="22.0" fill="#2060ff" fill-opacity=".32">MECH RANGERS</text></svg>