<svg xmlns="http://www.w3.org/2000/svg" viewBox="0 0 1000 1000" width="1000" height="1000" shape-rendering="geometricPrecision"><defs>

  <!-- Scene gradients -->
  <radialGradient id="bgr1x1831" cx="50%" cy="42%" r="72%">
    <stop offset="0%"   stop-color="#1e0a2e"/>
    <stop offset="100%" stop-color="#0a0520"/>
  </radialGradient>
  <linearGradient id="suitr1x1831" x1="8%" y1="0%" x2="92%" y2="100%">
    <stop offset="0%"   stop-color="#ff00ff" stop-opacity=".95"/>
    <stop offset="45%"  stop-color="#050508"/>
    <stop offset="100%" stop-color="#0a0520"/>
  </linearGradient>
  <linearGradient id="suitHir1x1831" x1="0%" y1="0%" x2="0%" y2="100%">
    <stop offset="0%"   stop-color="rgba(255,255,255,.28)"/>
    <stop offset="60%"  stop-color="rgba(255,255,255,.04)"/>
    <stop offset="100%" stop-color="rgba(255,255,255,0)"/>
  </linearGradient>
  <!-- Bevel: bright top, dark bottom for armour panels -->
  <linearGradient id="bevelr1x1831" x1="0%" y1="0%" x2="0%" y2="100%">
    <stop offset="0%"   stop-color="rgba(255,255,255,.55)"/>
    <stop offset="30%"  stop-color="#ff00ff"/>
    <stop offset="70%"  stop-color="#050508"/>
    <stop offset="100%" stop-color="rgba(0,0,0,.5)"/>
  </linearGradient>

  <!-- Weapon: cold steel blade sweep -->
  <linearGradient id="blader1x1831" x1="0%" y1="0%" x2="100%" y2="0%">
    <stop offset="0%"   stop-color="#0e0e20"/>
    <stop offset="16%"  stop-color="#3e3e58"/>
    <stop offset="34%"  stop-color="#c8c8e0"/>
    <stop offset="50%"  stop-color="#f5f5ff"/>
    <stop offset="66%"  stop-color="#b8b8d0"/>
    <stop offset="84%"  stop-color="#2e2e48"/>
    <stop offset="100%" stop-color="#08080e"/>
  </linearGradient>
  <!-- Blade tip brightening -->
  <linearGradient id="bladeTipr1x1831" x1="0%" y1="100%" x2="0%" y2="0%">
    <stop offset="0%"   stop-color="rgba(255,255,255,0)"/>
    <stop offset="55%"  stop-color="rgba(255,255,255,.1)"/>
    <stop offset="100%" stop-color="rgba(255,255,255,.55)"/>
  </linearGradient>
  <!-- Gunmetal anodised — blaster body -->
  <linearGradient id="gunmetalr1x1831" x1="0%" y1="0%" x2="0%" y2="100%">
    <stop offset="0%"   stop-color="#46465e"/>
    <stop offset="18%"  stop-color="#828296"/>
    <stop offset="42%"  stop-color="#26263a"/>
    <stop offset="72%"  stop-color="#16162a"/>
    <stop offset="100%" stop-color="#0c0c18"/>
  </linearGradient>
  <!-- Brushed steel tube — barrel/rod -->
  <linearGradient id="barrelr1x1831" x1="0%" y1="0%" x2="100%" y2="0%">
    <stop offset="0%"   stop-color="#0a0a14"/>
    <stop offset="24%"  stop-color="#585875"/>
    <stop offset="50%"  stop-color="#a8a8c8"/>
    <stop offset="76%"  stop-color="#383852"/>
    <stop offset="100%" stop-color="#0a0a14"/>
  </linearGradient>
  <!-- Chrome rod — lance shaft -->
  <linearGradient id="chromer1x1831" x1="0%" y1="0%" x2="100%" y2="0%">
    <stop offset="0%"   stop-color="#0c0c18"/>
    <stop offset="20%"  stop-color="#686888"/>
    <stop offset="44%"  stop-color="#e0e0f0"/>
    <stop offset="56%"  stop-color="#c0c0d8"/>
    <stop offset="80%"  stop-color="#28283e"/>
    <stop offset="100%" stop-color="#0c0c18"/>
  </linearGradient>
  <!-- Titanium plate — shield face -->
  <linearGradient id="titaniumr1x1831" x1="0%" y1="0%" x2="100%" y2="100%">
    <stop offset="0%"   stop-color="#585878"/>
    <stop offset="28%"  stop-color="#ff00ff" stop-opacity=".88"/>
    <stop offset="55%"  stop-color="#050508"/>
    <stop offset="80%"  stop-color="#181828"/>
    <stop offset="100%" stop-color="#0a0a18"/>
  </linearGradient>
  <!-- Artillery black-chrome — cannon body -->
  <linearGradient id="artilleryr1x1831" x1="0%" y1="0%" x2="0%" y2="100%">
    <stop offset="0%"   stop-color="#383850"/>
    <stop offset="14%"  stop-color="#78789a"/>
    <stop offset="36%"  stop-color="#202034"/>
    <stop offset="65%"  stop-color="#14141e"/>
    <stop offset="100%" stop-color="#0a0a12"/>
  </linearGradient>
  <!-- Energy orb — staff -->
  <radialGradient id="orbr1x1831" cx="35%" cy="35%" r="65%">
    <stop offset="0%"   stop-color="rgba(255,255,255,.9)"/>
    <stop offset="30%"  stop-color="#ff00ff"/>
    <stop offset="68%"  stop-color="#050508"/>
    <stop offset="100%" stop-color="rgba(0,0,0,.6)"/>
  </radialGradient>
  <!-- Knuckle plate chrome -->
  <linearGradient id="knuckler1x1831" x1="0%" y1="0%" x2="0%" y2="100%">
    <stop offset="0%"   stop-color="#888aaa"/>
    <stop offset="32%"  stop-color="#ff00ff" stop-opacity=".8"/>
    <stop offset="62%"  stop-color="#1a1a2c"/>
    <stop offset="100%" stop-color="#0a0a14"/>
  </linearGradient>

  <!-- Carbon fibre weave texture overlay -->
  <pattern id="carbonr1x1831" width="6" height="6" patternUnits="userSpaceOnUse">
    <rect width="6" height="6" fill="rgba(0,0,0,.08)"/>
    <rect x="0" y="0" width="3" height="3" fill="rgba(255,255,255,.022)"/>
    <rect x="3" y="3" width="3" height="3" fill="rgba(255,255,255,.022)"/>
    <line x1="0" y1="0" x2="3" y2="3" stroke="rgba(255,255,255,.038)" stroke-width=".5"/>
    <line x1="3" y1="0" x2="6" y2="3" stroke="rgba(0,0,0,.055)"       stroke-width=".5"/>
    <line x1="0" y1="3" x2="3" y2="6" stroke="rgba(0,0,0,.055)"       stroke-width=".5"/>
    <line x1="3" y1="3" x2="6" y2="6" stroke="rgba(255,255,255,.038)" stroke-width=".5"/>
  </pattern>

  <!-- Specular metal sheen on armour panels -->
  <filter id="metalr1x1831" x="-5%" y="-5%" width="110%" height="110%">
    <feSpecularLighting surfaceScale="4" specularConstant="1.8"
        specularExponent="42" lighting-color="#ffffff" result="spec">
      <feDistantLight elevation="52" azimuth="38"/>
    </feSpecularLighting>
    <feComposite in="spec" in2="SourceGraphic" operator="in" result="sm"/>
    <feComposite in="SourceGraphic" in2="sm" operator="arithmetic" k1="0" k2="1" k3="0.55" k4="0"/>
  </filter>

  <!-- Sharper specular for weapons — heavier glare -->
  <filter id="wmr1x1831" x="-8%" y="-8%" width="116%" height="116%">
    <feSpecularLighting surfaceScale="6" specularConstant="2.4"
        specularExponent="65" lighting-color="#ffffff" result="spec">
      <feDistantLight elevation="44" azimuth="28"/>
    </feSpecularLighting>
    <feComposite in="spec" in2="SourceGraphic" operator="in" result="sm"/>
    <feComposite in="SourceGraphic" in2="sm" operator="arithmetic" k1="0" k2="1" k3="0.78" k4="0"/>
  </filter>

  <!-- Sketch wobble -->
  <filter id="skr1x1831" x="-8%" y="-8%" width="116%" height="116%">
    <feTurbulence type="fractalNoise" baseFrequency="0.038"
        numOctaves="3" seed="25" result="noise"/>
    <feDisplacementMap in="SourceGraphic" in2="noise" scale="2.6"
        xChannelSelector="R" yChannelSelector="G" result="w"/>
    <feComposite in="w" in2="SourceGraphic" operator="atop"/>
  </filter>

  <!-- Glow: sharp accent -->
  <filter id="glowr1x1831" x="-20%" y="-20%" width="140%" height="140%">
    <feGaussianBlur stdDeviation="3.5" result="b"/>
    <feColorMatrix in="b" type="matrix"
        values="0 0 0 0 1  0 0 0 0 1  0 0 0 0 1  0 0 0 1.8 0" result="boost"/>
    <feMerge><feMergeNode in="boost"/><feMergeNode in="SourceGraphic"/></feMerge>
  </filter>

  <!-- Bloom: wide soft -->
  <filter id="bloomr1x1831" x="-40%" y="-40%" width="180%" height="180%">
    <feGaussianBlur stdDeviation="11" result="b"/>
    <feMerge><feMergeNode in="b"/><feMergeNode in="SourceGraphic"/></feMerge>
  </filter>

  </defs><rect width="1000" height="1000" fill="url(#bgr1x1831)"/><ellipse cx="500.0" cy="892.0" rx="350.0" ry="65.0" fill="rgba(0,0,0,.7)" filter="url(#bloomr1x1831)"/><ellipse cx="500.0" cy="889.0" rx="220.0" ry="34.0" fill="rgba(0,0,0,.45)"/><polygon points="400.3,663.3 490.3,662.4 482.2,878.9 386.5,878.5" fill="url(#suitr1x1831)" stroke="#ff00ff" stroke-width="2.2" filter="url(#skr1x1831) url(#metalr1x1831)"/><polygon points="399.1,663.5 487.9,661.2 481.9,876.7 386.0,878.5" fill="url(#carbonr1x1831)"/><polygon points="391.7,725.5 492.0,724.8 482.9,788.0 382.6,789.5" fill="url(#bevelr1x1831)" fill-opacity=".5" stroke="#ff00ff" stroke-width="1.4" filter="url(#skr1x1831)"/><polygon points="510.1,662.8 601.0,663.1 613.2,876.6 518.3,878.7" fill="url(#suitr1x1831)" stroke="#ff00ff" stroke-width="2.2" filter="url(#skr1x1831) url(#metalr1x1831)"/><polygon points="512.3,662.4 599.5,660.7 612.2,877.6 517.9,877.8" fill="url(#carbonr1x1831)"/><polygon points="506.1,725.1 608.1,723.7 616.7,788.7 516.0,786.6" fill="url(#bevelr1x1831)" fill-opacity=".5" stroke="#ff00ff" stroke-width="1.4" filter="url(#skr1x1831)"/><rect x="393.2" y="839.7" width="100.3" height="24.7" fill="url(#bevelr1x1831)" stroke="#ff00ff" stroke-width="1" filter="url(#skr1x1831)"/><rect x="508.7"  y="837.9" width="100.3" height="24.7" fill="url(#bevelr1x1831)" stroke="#ff00ff" stroke-width="1" filter="url(#skr1x1831)"/><polygon points="368.9,878.9 497.2,879.2 502.8,920.7 361.5,923.0" fill="#050508" stroke="#ff00ff" stroke-width="2" filter="url(#skr1x1831)"/><polygon points="504.9,878.4 630.9,878.6 636.8,921.9 495.4,923.1" fill="#050508" stroke="#ff00ff" stroke-width="2" filter="url(#skr1x1831)"/><polygon points="305.2,633.9 695.2,634.4 636.7,680.5 362.6,683.1" fill="#ff00ff" fill-opacity=".52" stroke="#ff00ff" stroke-width="2" filter="url(#skr1x1831)"/><rect x="464.0" y="638.8" width="72.0" height="42.0" fill="url(#bevelr1x1831)" stroke="#ff00ff" stroke-width="1.4" filter="url(#glowr1x1831)"/><rect x="485.3" y="642.0" width="28.0" height="22.0" rx="1" fill="rgba(255,255,255,.48)"/><polygon points="154.0,467.2 234.2,466.7 259.8,735.5 127.6,736.5" fill="url(#suitr1x1831)" stroke="#ff00ff" stroke-width="2.2" filter="url(#skr1x1831) url(#metalr1x1831)"/><polygon points="172.8,433.6 254.4,430.5 242.6,511.7 160.0,509.1" fill="url(#bevelr1x1831)" fill-opacity=".72" stroke="#ff00ff" stroke-width="2.2" filter="url(#skr1x1831)"/><polygon points="162.1,622.7 243.8,621.1 238.5,659.4 165.8,659.8" fill="#ff00ff" fill-opacity=".42" stroke="#ff00ff" stroke-width="1" filter="url(#skr1x1831)"/><polygon points="763.5,467.6 847.7,466.9 870.1,733.3 740.6,734.3" fill="url(#suitr1x1831)" stroke="#ff00ff" stroke-width="2.2" filter="url(#skr1x1831) url(#metalr1x1831)"/><polygon points="746.4,432.6 826.1,432.5 840.9,511.6 755.2,510.9" fill="url(#bevelr1x1831)" fill-opacity=".72" stroke="#ff00ff" stroke-width="2.2" filter="url(#skr1x1831)"/><polygon points="756.1,622.5 839.5,623.6 833.4,660.1 761.6,659.8" fill="#ff00ff" fill-opacity=".42" stroke="#ff00ff" stroke-width="1" filter="url(#skr1x1831)"/><rect x="121.8"  y="698.5" width="135.3" height="85.0" rx="4" fill="url(#bevelr1x1831)" stroke="#ff00ff" stroke-width="1.8" filter="url(#skr1x1831)"/><rect x="748.5"   y="698.5" width="135.3" height="85.0" rx="4" fill="url(#bevelr1x1831)" stroke="#ff00ff" stroke-width="1.8" filter="url(#skr1x1831)"/><line x1="149.8" y1="703.4" x2="150.7" y2="782.7" stroke="#ff00ff" stroke-opacity=".38" stroke-width="1"/><line x1="777.5" y1="702.6" x2="777.7" y2="785.3" stroke="#ff00ff" stroke-opacity=".38" stroke-width="1"/><line x1="182.8" y1="702.5" x2="184.0" y2="783.8" stroke="#ff00ff" stroke-opacity=".38" stroke-width="1"/><line x1="812.5" y1="702.2" x2="809.6" y2="784.5" stroke="#ff00ff" stroke-opacity=".38" stroke-width="1"/><line x1="215.1" y1="703.2" x2="214.7" y2="785.4" stroke="#ff00ff" stroke-opacity=".38" stroke-width="1"/><line x1="842.0" y1="702.2" x2="844.7" y2="783.6" stroke="#ff00ff" stroke-opacity=".38" stroke-width="1"/><polygon points="235.0,418.9 766.1,415.7 723.3,663.8 277.2,663.1" fill="url(#suitr1x1831)" stroke="#ff00ff" stroke-width="2.6" filter="url(#skr1x1831) url(#metalr1x1831)"/><polygon points="236.1,418.4 766.0,416.0 724.0,664.0 279.2,662.3" fill="url(#carbonr1x1831)"/><polygon points="368.9,417.4 633.4,416.8 610.7,514.9 387.6,514.4" fill="url(#suitHir1x1831)"/><line x1="361.6" y1="471.9" x2="636.6" y2="469.8" stroke="#ff00ff" stroke-opacity=".52" stroke-width="1.3" filter="url(#skr1x1831)"/><line x1="399.0" y1="548.9" x2="600.4" y2="548.4" stroke="#ff00ff" stroke-opacity=".52" stroke-width="1.3" filter="url(#skr1x1831)"/><line x1="268.1" y1="491.8" x2="320.6" y2="491.1" stroke="#ff00ff" stroke-opacity=".62" stroke-width="1.8"/><line x1="680.3" y1="492.1" x2="734.9" y2="491.5" stroke="#ff00ff" stroke-opacity=".62" stroke-width="1.8"/><line x1="267.8" y1="522.3" x2="318.3" y2="523.4" stroke="#ff00ff" stroke-opacity=".62" stroke-width="1.8"/><line x1="681.9" y1="524.2" x2="734.5" y2="522.1" stroke="#ff00ff" stroke-opacity=".62" stroke-width="1.8"/><line x1="265.8" y1="554.1" x2="320.4" y2="554.5" stroke="#ff00ff" stroke-opacity=".62" stroke-width="1.8"/><line x1="681.2" y1="554.3" x2="732.7" y2="555.9" stroke="#ff00ff" stroke-opacity=".62" stroke-width="1.8"/><line x1="265.9" y1="586.4" x2="320.4" y2="584.8" stroke="#ff00ff" stroke-opacity=".62" stroke-width="1.8"/><line x1="680.1" y1="586.6" x2="734.4" y2="586.2" stroke="#ff00ff" stroke-opacity=".62" stroke-width="1.8"/><g filter="url(#glowr1x1831)"><circle cx="501.2" cy="499.2" r="31.3" fill="#ff00ff" stroke="#0a0520" stroke-width="1.4" filter="url(#skr1x1831)"/><circle cx="486.9" cy="497.7" r="7.0" fill="#0a0520"/><circle cx="510.4" cy="498.0" r="7.0" fill="#0a0520"/><rect x="482.9" y="522.6" width="9.3" height="17.4" rx="1" fill="#ff00ff" stroke="#0a0520" stroke-width=".6"/><rect x="496.3" y="523.6" width="9.3" height="17.4" rx="1" fill="#ff00ff" stroke="#0a0520" stroke-width=".6"/><rect x="506.3" y="521.3" width="9.3" height="17.4" rx="1" fill="#ff00ff" stroke="#0a0520" stroke-width=".6"/></g><g><rect x="34.864899481590804" y="422.4285668116994" width="148.0" height="82.0" rx="5" fill="url(#gunmetalr1x1831)" stroke="#ff00ff" stroke-width="2" filter="url(#wmr1x1831)"/><rect x="34.40098789272827" y="422.85112915458154" width="148.0" height="82.0" rx="5" fill="url(#carbonr1x1831)"/><rect x="40.824402440655945" y="401.7011883978732" width="90.0" height="22.0" rx="3" fill="url(#barrelr1x1831)" stroke="#ff00ff" stroke-width="1" filter="url(#wmr1x1831)"/><circle cx="83.78440036656332" cy="415.57709129024295" r="15.0" fill="#ff00ff" opacity=".8" filter="url(#glowr1x1831)"/><circle cx="80.36444504395124" cy="415.2227307533845" r="6.0" fill="rgba(255,255,255,.9)"/><rect x="54.793810580987454" y="456.85802738461643" width="78.0" height="36.0" rx="5" fill="url(#barrelr1x1831)" stroke="#ff00ff" stroke-width="1.2" filter="url(#wmr1x1831)"/><circle cx="-19.606863455250892" cy="471.368757728301" r="18.0" fill="#ff00ff" filter="url(#glowr1x1831)" opacity=".88"/><circle cx="-21.00723710577938" cy="470.32143678963183" r="7.0" fill="#ffffff"/><rect x="78.56805662460621" y="501.2513544549234" width="44.0" height="42.0" rx="3" fill="url(#gunmetalr1x1831)" stroke="#ff00ff" stroke-width="1" filter="url(#wmr1x1831)"/><rect x="37.40371205819768" y="424.26286841118707" width="90.0" height="10.0" rx="2" fill="rgba(255,255,255,.22)"/><line x1="63.03993561057371" y1="487.522205285728" x2="63.66985709326339" y2="518.3195298479869" stroke="#ff00ff" stroke-opacity=".5" stroke-width="1.2"/><line x1="78.41950593920421" y1="488.1515978703275" x2="79.0604555245861" y2="520.803099970147" stroke="#ff00ff" stroke-opacity=".5" stroke-width="1.2"/><line x1="95.29690433008594" y1="484.6812753822654" x2="92.43837542481717" y2="520.9873735683038" stroke="#ff00ff" stroke-opacity=".5" stroke-width="1.2"/></g><rect x="450.9124834584072" y="557.5768945791758" width="100.0"  height="56.0" fill="#050508" stroke="#ff00ff" stroke-width="2.2" filter="url(#skr1x1831)"/><rect x="422.40071815457196" y="575.8234649049118" width="152.0" height="26.0" fill="url(#bevelr1x1831)" fill-opacity=".65" stroke="#ff00ff" stroke-width="1.2" filter="url(#skr1x1831)"/><polygon points="307.4,379.7 351.8,294.0 500.9,277.8 650.8,295.7 690.4,381.3 668.0,502.6 498.9,565.6 329.3,505.1" fill="url(#suitr1x1831)" stroke="#ff00ff" stroke-width="2.8" filter="url(#skr1x1831) url(#metalr1x1831)"/><polygon points="307.4,381.6 350.4,295.7 500.3,277.9 651.4,294.3 691.0,381.8 669.8,502.2 499.5,566.2 332.8,502.5" fill="url(#carbonr1x1831)"/><polygon points="380.8,301.7 499.8,285.0 618.9,302.8 606.0,382.0 391.7,379.2" fill="url(#suitHir1x1831)"/><polygon points="379.7,381.4 364.8,425.2 432.8,504.5 500.1,527.1 569.0,504.7 635.1,424.2 618.7,378.9" fill="#0a0520" fill-opacity=".88" stroke="#ff00ff" stroke-width="1.8" filter="url(#skr1x1831)"/><polygon points="382.6,410.6 476.3,410.2 483.3,439.9 389.7,441.7" fill="#ff00ff" filter="url(#glowr1x1831)"/><polygon points="522.2,410.7 618.7,411.1 612.5,441.1 516.5,441.7" fill="#ff00ff" filter="url(#glowr1x1831)"/><ellipse cx="430.9" cy="425.7" rx="38.4"  ry="8.2" fill="#ffffff" opacity=".88"/><ellipse cx="569.1" cy="425.7" rx="38.4"  ry="8.2" fill="#ffffff" opacity=".88"/><line x1="485.90086976025253" y1="413.32547426009546" x2="515.2301303815469" y2="415.10268901102245" stroke="#ff00ff" stroke-opacity=".52" stroke-width="2"/><line x1="483.90960712000725" y1="437.4282712362707" x2="516.1627970386669" y2="438.69685125947" stroke="#ff00ff" stroke-opacity=".52" stroke-width="2"/><line x1="498.43181375134736" y1="455.17694577071813" x2="501.3165887398645" y2="483.1858446242288" stroke="#ff00ff" stroke-opacity=".58" stroke-width="2.2" filter="url(#skr1x1831)"/><line x1="452.550146060884" y1="490.7617529932409" x2="453.27992591027174" y2="519.5356046370231" stroke="#ff00ff" stroke-opacity=".52" stroke-width="1.5" filter="url(#skr1x1831)"/><line x1="476.9201320274174" y1="491.1940773942507" x2="476.77187148578463" y2="518.6515438811854" stroke="#ff00ff" stroke-opacity=".52" stroke-width="1.5" filter="url(#skr1x1831)"/><line x1="501.08209092877803" y1="491.27145021017634" x2="501.28174122637137" y2="520.4475652088411" stroke="#ff00ff" stroke-opacity=".52" stroke-width="1.5" filter="url(#skr1x1831)"/><line x1="523.5490512353927" y1="491.4043657233938" x2="523.8484855857305" y2="519.2393200332299" stroke="#ff00ff" stroke-opacity=".52" stroke-width="1.5" filter="url(#skr1x1831)"/><line x1="546.2284507136047" y1="492.3746756099164" x2="545.2872041593492" y2="518.5512828914449" stroke="#ff00ff" stroke-opacity=".52" stroke-width="1.5" filter="url(#skr1x1831)"/><polygon points="434.5,502.6 565.8,502.8 554.7,557.6 444.7,558.5" fill="#050508" fill-opacity=".72" stroke="#ff00ff" stroke-width="1.3" filter="url(#skr1x1831)"/><polygon points="317.3,306.5 361.6,303.3 340.1,196.5" fill="url(#bevelr1x1831)" fill-opacity=".95" stroke="#ff00ff" stroke-width="1.6" filter="url(#skr1x1831) url(#glowr1x1831)"/><polygon points="397.7,303.0 440.7,303.1 420.7,209.4" fill="url(#bevelr1x1831)" fill-opacity=".95" stroke="#ff00ff" stroke-width="1.6" filter="url(#skr1x1831) url(#glowr1x1831)"/><polygon points="477.9,304.3 522.8,306.3 499.1,220.9" fill="url(#bevelr1x1831)" fill-opacity=".95" stroke="#ff00ff" stroke-width="1.6" filter="url(#skr1x1831) url(#glowr1x1831)"/><polygon points="556.6,303.2 602.5,305.5 579.6,208.5" fill="url(#bevelr1x1831)" fill-opacity=".95" stroke="#ff00ff" stroke-width="1.6" filter="url(#skr1x1831) url(#glowr1x1831)"/><polygon points="636.5,304.6 684.9,304.9 662.3,195.9" fill="url(#bevelr1x1831)" fill-opacity=".95" stroke="#ff00ff" stroke-width="1.6" filter="url(#skr1x1831) url(#glowr1x1831)"/><text x="30.0"  y="975.0" font-family="monospace" font-weight="bold" font-size="22.0" fill="rgba(255,255,255,.22)">#0001</text><text x="500.0"   y="975.0" text-anchor="middle" font-family="monospace" font-weight="bold" font-size="22.0" fill="#ff00ff" fill-opacity=".48">VOID RANGER</text><text x="970.0" y="975.0" text-anchor="end"    font-family="monospace" font-weight="bold" font-size="22.0" fill="#ff00ff" fill-opacity=".32">MECH RANGERS</text></svg>