<svg xmlns="http://www.w3.org/2000/svg" viewBox="0 0 1000 1000" width="1000" height="1000" shape-rendering="geometricPrecision"><defs>

  <!-- Scene gradients -->
  <radialGradient id="bgr1x1928" cx="50%" cy="42%" r="72%">
    <stop offset="0%"   stop-color="#0a0a14"/>
    <stop offset="100%" stop-color="#050508"/>
  </radialGradient>
  <linearGradient id="suitr1x1928" x1="8%" y1="0%" x2="92%" y2="100%">
    <stop offset="0%"   stop-color="#4444ff" stop-opacity=".95"/>
    <stop offset="45%"  stop-color="#141428"/>
    <stop offset="100%" stop-color="#050508"/>
  </linearGradient>
  <linearGradient id="suitHir1x1928" x1="0%" y1="0%" x2="0%" y2="100%">
    <stop offset="0%"   stop-color="rgba(255,255,255,.28)"/>
    <stop offset="60%"  stop-color="rgba(255,255,255,.04)"/>
    <stop offset="100%" stop-color="rgba(255,255,255,0)"/>
  </linearGradient>
  <!-- Bevel: bright top, dark bottom for armour panels -->
  <linearGradient id="bevelr1x1928" x1="0%" y1="0%" x2="0%" y2="100%">
    <stop offset="0%"   stop-color="rgba(255,255,255,.55)"/>
    <stop offset="30%"  stop-color="#4444ff"/>
    <stop offset="70%"  stop-color="#141428"/>
    <stop offset="100%" stop-color="rgba(0,0,0,.5)"/>
  </linearGradient>

  <!-- Weapon: cold steel blade sweep -->
  <linearGradient id="blader1x1928" x1="0%" y1="0%" x2="100%" y2="0%">
    <stop offset="0%"   stop-color="#0e0e20"/>
    <stop offset="16%"  stop-color="#3e3e58"/>
    <stop offset="34%"  stop-color="#c8c8e0"/>
    <stop offset="50%"  stop-color="#f5f5ff"/>
    <stop offset="66%"  stop-color="#b8b8d0"/>
    <stop offset="84%"  stop-color="#2e2e48"/>
    <stop offset="100%" stop-color="#08080e"/>
  </linearGradient>
  <!-- Blade tip brightening -->
  <linearGradient id="bladeTipr1x1928" x1="0%" y1="100%" x2="0%" y2="0%">
    <stop offset="0%"   stop-color="rgba(255,255,255,0)"/>
    <stop offset="55%"  stop-color="rgba(255,255,255,.1)"/>
    <stop offset="100%" stop-color="rgba(255,255,255,.55)"/>
  </linearGradient>
  <!-- Gunmetal anodised — blaster body -->
  <linearGradient id="gunmetalr1x1928" x1="0%" y1="0%" x2="0%" y2="100%">
    <stop offset="0%"   stop-color="#46465e"/>
    <stop offset="18%"  stop-color="#828296"/>
    <stop offset="42%"  stop-color="#26263a"/>
    <stop offset="72%"  stop-color="#16162a"/>
    <stop offset="100%" stop-color="#0c0c18"/>
  </linearGradient>
  <!-- Brushed steel tube — barrel/rod -->
  <linearGradient id="barrelr1x1928" x1="0%" y1="0%" x2="100%" y2="0%">
    <stop offset="0%"   stop-color="#0a0a14"/>
    <stop offset="24%"  stop-color="#585875"/>
    <stop offset="50%"  stop-color="#a8a8c8"/>
    <stop offset="76%"  stop-color="#383852"/>
    <stop offset="100%" stop-color="#0a0a14"/>
  </linearGradient>
  <!-- Chrome rod — lance shaft -->
  <linearGradient id="chromer1x1928" x1="0%" y1="0%" x2="100%" y2="0%">
    <stop offset="0%"   stop-color="#0c0c18"/>
    <stop offset="20%"  stop-color="#686888"/>
    <stop offset="44%"  stop-color="#e0e0f0"/>
    <stop offset="56%"  stop-color="#c0c0d8"/>
    <stop offset="80%"  stop-color="#28283e"/>
    <stop offset="100%" stop-color="#0c0c18"/>
  </linearGradient>
  <!-- Titanium plate — shield face -->
  <linearGradient id="titaniumr1x1928" x1="0%" y1="0%" x2="100%" y2="100%">
    <stop offset="0%"   stop-color="#585878"/>
    <stop offset="28%"  stop-color="#4444ff" stop-opacity=".88"/>
    <stop offset="55%"  stop-color="#141428"/>
    <stop offset="80%"  stop-color="#181828"/>
    <stop offset="100%" stop-color="#0a0a18"/>
  </linearGradient>
  <!-- Artillery black-chrome — cannon body -->
  <linearGradient id="artilleryr1x1928" x1="0%" y1="0%" x2="0%" y2="100%">
    <stop offset="0%"   stop-color="#383850"/>
    <stop offset="14%"  stop-color="#78789a"/>
    <stop offset="36%"  stop-color="#202034"/>
    <stop offset="65%"  stop-color="#14141e"/>
    <stop offset="100%" stop-color="#0a0a12"/>
  </linearGradient>
  <!-- Energy orb — staff -->
  <radialGradient id="orbr1x1928" cx="35%" cy="35%" r="65%">
    <stop offset="0%"   stop-color="rgba(255,255,255,.9)"/>
    <stop offset="30%"  stop-color="#4444ff"/>
    <stop offset="68%"  stop-color="#141428"/>
    <stop offset="100%" stop-color="rgba(0,0,0,.6)"/>
  </radialGradient>
  <!-- Knuckle plate chrome -->
  <linearGradient id="knuckler1x1928" x1="0%" y1="0%" x2="0%" y2="100%">
    <stop offset="0%"   stop-color="#888aaa"/>
    <stop offset="32%"  stop-color="#4444ff" stop-opacity=".8"/>
    <stop offset="62%"  stop-color="#1a1a2c"/>
    <stop offset="100%" stop-color="#0a0a14"/>
  </linearGradient>

  <!-- Carbon fibre weave texture overlay -->
  <pattern id="carbonr1x1928" width="6" height="6" patternUnits="userSpaceOnUse">
    <rect width="6" height="6" fill="rgba(0,0,0,.08)"/>
    <rect x="0" y="0" width="3" height="3" fill="rgba(255,255,255,.022)"/>
    <rect x="3" y="3" width="3" height="3" fill="rgba(255,255,255,.022)"/>
    <line x1="0" y1="0" x2="3" y2="3" stroke="rgba(255,255,255,.038)" stroke-width=".5"/>
    <line x1="3" y1="0" x2="6" y2="3" stroke="rgba(0,0,0,.055)"       stroke-width=".5"/>
    <line x1="0" y1="3" x2="3" y2="6" stroke="rgba(0,0,0,.055)"       stroke-width=".5"/>
    <line x1="3" y1="3" x2="6" y2="6" stroke="rgba(255,255,255,.038)" stroke-width=".5"/>
  </pattern>

  <!-- Specular metal sheen on armour panels -->
  <filter id="metalr1x1928" x="-5%" y="-5%" width="110%" height="110%">
    <feSpecularLighting surfaceScale="4" specularConstant="1.8"
        specularExponent="42" lighting-color="#ffffff" result="spec">
      <feDistantLight elevation="52" azimuth="38"/>
    </feSpecularLighting>
    <feComposite in="spec" in2="SourceGraphic" operator="in" result="sm"/>
    <feComposite in="SourceGraphic" in2="sm" operator="arithmetic" k1="0" k2="1" k3="0.55" k4="0"/>
  </filter>

  <!-- Sharper specular for weapons — heavier glare -->
  <filter id="wmr1x1928" x="-8%" y="-8%" width="116%" height="116%">
    <feSpecularLighting surfaceScale="6" specularConstant="2.4"
        specularExponent="65" lighting-color="#ffffff" result="spec">
      <feDistantLight elevation="44" azimuth="28"/>
    </feSpecularLighting>
    <feComposite in="spec" in2="SourceGraphic" operator="in" result="sm"/>
    <feComposite in="SourceGraphic" in2="sm" operator="arithmetic" k1="0" k2="1" k3="0.78" k4="0"/>
  </filter>

  <!-- Sketch wobble -->
  <filter id="skr1x1928" x="-8%" y="-8%" width="116%" height="116%">
    <feTurbulence type="fractalNoise" baseFrequency="0.038"
        numOctaves="3" seed="35" result="noise"/>
    <feDisplacementMap in="SourceGraphic" in2="noise" scale="2.6"
        xChannelSelector="R" yChannelSelector="G" result="w"/>
    <feComposite in="w" in2="SourceGraphic" operator="atop"/>
  </filter>

  <!-- Glow: sharp accent -->
  <filter id="glowr1x1928" x="-20%" y="-20%" width="140%" height="140%">
    <feGaussianBlur stdDeviation="3.5" result="b"/>
    <feColorMatrix in="b" type="matrix"
        values="0 0 0 0 1  0 0 0 0 1  0 0 0 0 1  0 0 0 1.8 0" result="boost"/>
    <feMerge><feMergeNode in="boost"/><feMergeNode in="SourceGraphic"/></feMerge>
  </filter>

  <!-- Bloom: wide soft -->
  <filter id="bloomr1x1928" x="-40%" y="-40%" width="180%" height="180%">
    <feGaussianBlur stdDeviation="11" result="b"/>
    <feMerge><feMergeNode in="b"/><feMergeNode in="SourceGraphic"/></feMerge>
  </filter>

  </defs><rect width="1000" height="1000" fill="url(#bgr1x1928)"/><ellipse cx="500.0" cy="892.0" rx="350.0" ry="65.0" fill="rgba(0,0,0,.7)" filter="url(#bloomr1x1928)"/><ellipse cx="500.0" cy="889.0" rx="220.0" ry="34.0" fill="rgba(0,0,0,.45)"/><ellipse cx="500.0" cy="520.0" rx="320.0" ry="480.0" fill="#6600ff" fill-opacity=".042" filter="url(#bloomr1x1928)"/><circle cx="394.1" cy="726.2" r="3.7" fill="#6600ff" fill-opacity="0.55" filter="url(#glowr1x1928)"/><circle cx="542.5" cy="229.8" r="2.6" fill="#6600ff" fill-opacity="0.39" filter="url(#glowr1x1928)"/><circle cx="457.1" cy="358.5" r="1.1" fill="#6600ff" fill-opacity="0.69" filter="url(#glowr1x1928)"/><circle cx="312.1" cy="730.7" r="2.2" fill="#6600ff" fill-opacity="0.46" filter="url(#glowr1x1928)"/><circle cx="363.9" cy="415.1" r="2.9" fill="#6600ff" fill-opacity="0.84" filter="url(#glowr1x1928)"/><circle cx="493.9" cy="608.9" r="1.8" fill="#6600ff" fill-opacity="0.63" filter="url(#glowr1x1928)"/><circle cx="462.9" cy="611.6" r="2.4" fill="#6600ff" fill-opacity="0.40" filter="url(#glowr1x1928)"/><circle cx="550.2" cy="426.6" r="1.7" fill="#6600ff" fill-opacity="0.49" filter="url(#glowr1x1928)"/><circle cx="515.8" cy="647.3" r="3.0" fill="#6600ff" fill-opacity="0.51" filter="url(#glowr1x1928)"/><circle cx="328.4" cy="683.0" r="1.7" fill="#6600ff" fill-opacity="0.74" filter="url(#glowr1x1928)"/><circle cx="664.3" cy="648.9" r="0.8" fill="#6600ff" fill-opacity="0.84" filter="url(#glowr1x1928)"/><circle cx="312.7" cy="382.8" r="1.4" fill="#6600ff" fill-opacity="0.88" filter="url(#glowr1x1928)"/><circle cx="705.5" cy="243.5" r="3.2" fill="#6600ff" fill-opacity="0.83" filter="url(#glowr1x1928)"/><circle cx="435.5" cy="255.6" r="2.2" fill="#6600ff" fill-opacity="0.76" filter="url(#glowr1x1928)"/><polygon points="398.6,662.0 488.8,662.8 481.6,878.4 388.2,878.6" fill="url(#suitr1x1928)" stroke="#4444ff" stroke-width="2.2" filter="url(#skr1x1928) url(#metalr1x1928)"/><polygon points="399.9,662.6 490.8,661.3 481.6,879.2 386.9,877.6" fill="url(#carbonr1x1928)"/><polygon points="393.9,725.4 492.2,724.1 482.8,789.7 384.1,788.1" fill="url(#bevelr1x1928)" fill-opacity=".5" stroke="#4444ff" stroke-width="1.4" filter="url(#skr1x1928)"/><polygon points="512.1,662.1 602.1,661.2 612.0,876.2 518.7,878.7" fill="url(#suitr1x1928)" stroke="#4444ff" stroke-width="2.2" filter="url(#skr1x1928) url(#metalr1x1928)"/><polygon points="512.3,663.6 602.9,662.2 612.6,877.3 518.8,878.2" fill="url(#carbonr1x1928)"/><polygon points="507.1,722.4 607.0,722.8 616.9,788.3 517.1,786.6" fill="url(#bevelr1x1928)" fill-opacity=".5" stroke="#4444ff" stroke-width="1.4" filter="url(#skr1x1928)"/><rect x="391.7" y="839.1" width="100.3" height="24.7" fill="url(#bevelr1x1928)" stroke="#4444ff" stroke-width="1" filter="url(#skr1x1928)"/><rect x="506.0"  y="839.9" width="100.3" height="24.7" fill="url(#bevelr1x1928)" stroke="#4444ff" stroke-width="1" filter="url(#skr1x1928)"/><polygon points="369.0,878.6 495.0,877.0 502.7,923.1 362.5,922.0" fill="#141428" stroke="#4444ff" stroke-width="2" filter="url(#skr1x1928)"/><polygon points="502.7,876.4 629.4,877.1 638.3,921.8 494.7,920.3" fill="#141428" stroke="#4444ff" stroke-width="2" filter="url(#skr1x1928)"/><polygon points="304.3,632.9 696.2,631.9 639.3,683.7 363.0,683.4" fill="#4444ff" fill-opacity=".52" stroke="#4444ff" stroke-width="2" filter="url(#skr1x1928)"/><rect x="465.3" y="639.3" width="72.0" height="42.0" fill="url(#bevelr1x1928)" stroke="#4444ff" stroke-width="1.4" filter="url(#glowr1x1928)"/><rect x="484.4" y="640.1" width="28.0" height="22.0" rx="1" fill="rgba(255,255,255,.48)"/><polygon points="152.7,467.9 235.2,466.1 257.2,735.0 129.9,735.0" fill="url(#suitr1x1928)" stroke="#4444ff" stroke-width="2.2" filter="url(#skr1x1928) url(#metalr1x1928)"/><polygon points="171.8,430.8 251.5,431.5 244.7,511.2 158.7,508.9" fill="url(#bevelr1x1928)" fill-opacity=".72" stroke="#4444ff" stroke-width="2.2" filter="url(#skr1x1928)"/><polygon points="160.1,622.4 242.1,620.5 240.0,661.1 164.9,660.0" fill="#4444ff" fill-opacity=".42" stroke="#4444ff" stroke-width="1" filter="url(#skr1x1928)"/><polygon points="764.5,467.6 848.5,466.2 871.1,733.3 740.6,735.2" fill="url(#suitr1x1928)" stroke="#4444ff" stroke-width="2.2" filter="url(#skr1x1928) url(#metalr1x1928)"/><polygon points="747.7,432.4 827.1,433.3 839.6,509.9 758.4,510.7" fill="url(#bevelr1x1928)" fill-opacity=".72" stroke="#4444ff" stroke-width="2.2" filter="url(#skr1x1928)"/><polygon points="756.5,620.8 839.4,620.9 834.7,659.8 762.4,661.2" fill="#4444ff" fill-opacity=".42" stroke="#4444ff" stroke-width="1" filter="url(#skr1x1928)"/><rect x="120.5"  y="701.2" width="135.3" height="85.0" rx="4" fill="url(#bevelr1x1928)" stroke="#4444ff" stroke-width="1.8" filter="url(#skr1x1928)"/><rect x="750.3"   y="698.9" width="135.3" height="85.0" rx="4" fill="url(#bevelr1x1928)" stroke="#4444ff" stroke-width="1.8" filter="url(#skr1x1928)"/><line x1="149.5" y1="703.2" x2="151.2" y2="784.7" stroke="#4444ff" stroke-opacity=".38" stroke-width="1"/><line x1="779.4" y1="700.3" x2="776.9" y2="784.8" stroke="#4444ff" stroke-opacity=".38" stroke-width="1"/><line x1="182.9" y1="703.3" x2="182.2" y2="783.7" stroke="#4444ff" stroke-opacity=".38" stroke-width="1"/><line x1="810.5" y1="701.6" x2="810.9" y2="785.0" stroke="#4444ff" stroke-opacity=".38" stroke-width="1"/><line x1="216.6" y1="702.5" x2="217.0" y2="782.9" stroke="#4444ff" stroke-opacity=".38" stroke-width="1"/><line x1="844.9" y1="702.9" x2="844.0" y2="785.2" stroke="#4444ff" stroke-opacity=".38" stroke-width="1"/><polygon points="236.3,416.2 765.1,415.8 722.4,662.5 276.9,661.1" fill="url(#suitr1x1928)" stroke="#4444ff" stroke-width="2.6" filter="url(#skr1x1928) url(#metalr1x1928)"/><polygon points="235.9,416.8 763.9,418.9 722.9,660.9 276.9,663.0" fill="url(#carbonr1x1928)"/><polygon points="369.1,419.3 632.5,418.6 611.3,513.9 389.0,513.7" fill="url(#suitHir1x1928)"/><line x1="362.7" y1="470.0" x2="637.2" y2="472.2" stroke="#4444ff" stroke-opacity=".52" stroke-width="1.3" filter="url(#skr1x1928)"/><line x1="399.4" y1="548.4" x2="599.4" y2="550.3" stroke="#4444ff" stroke-opacity=".52" stroke-width="1.3" filter="url(#skr1x1928)"/><line x1="267.0" y1="490.2" x2="318.6" y2="491.6" stroke="#4444ff" stroke-opacity=".62" stroke-width="1.8"/><line x1="679.7" y1="492.4" x2="733.9" y2="491.0" stroke="#4444ff" stroke-opacity=".62" stroke-width="1.8"/><line x1="267.8" y1="523.9" x2="319.6" y2="522.3" stroke="#4444ff" stroke-opacity=".62" stroke-width="1.8"/><line x1="678.7" y1="523.6" x2="733.4" y2="521.6" stroke="#4444ff" stroke-opacity=".62" stroke-width="1.8"/><line x1="266.0" y1="554.5" x2="321.5" y2="554.0" stroke="#4444ff" stroke-opacity=".62" stroke-width="1.8"/><line x1="680.8" y1="556.0" x2="734.1" y2="556.3" stroke="#4444ff" stroke-opacity=".62" stroke-width="1.8"/><line x1="266.8" y1="585.8" x2="319.7" y2="585.9" stroke="#4444ff" stroke-opacity=".62" stroke-width="1.8"/><line x1="678.6" y1="588.3" x2="732.5" y2="587.4" stroke="#4444ff" stroke-opacity=".62" stroke-width="1.8"/><g filter="url(#glowr1x1928)"><polygon points="499.5,452.4 541.6,510.0 501.8,570.4 459.7,512.1" fill="#4444ff" stroke="#050508" stroke-width="1.4" filter="url(#skr1x1928)"/><polygon points="498.2,452.0 542.6,509.6 500.1,569.2 456.6,512.4" fill="url(#suitHir1x1928)" opacity=".45"/></g><g><rect x="830.4657088085637" y="420.72456169938664" width="148.0" height="82.0" rx="5" fill="url(#gunmetalr1x1928)" stroke="#4444ff" stroke-width="2" filter="url(#wmr1x1928)"/><rect x="830.3627080797777" y="419.6424268335104" width="148.0" height="82.0" rx="5" fill="url(#carbonr1x1928)"/><rect x="837.9158309472352" y="403.1750530767254" width="90.0" height="22.0" rx="3" fill="url(#barrelr1x1928)" stroke="#4444ff" stroke-width="1" filter="url(#wmr1x1928)"/><circle cx="878.5659572355077" cy="414.8980397841893" r="15.0" fill="#4444ff" opacity=".8" filter="url(#glowr1x1928)"/><circle cx="878.6479635004513" cy="412.99994064904746" r="6.0" fill="rgba(255,255,255,.9)"/><rect x="945.1390046907217" y="454.5849390333518" width="78.0" height="36.0" rx="5" fill="url(#barrelr1x1928)" stroke="#4444ff" stroke-width="1.2" filter="url(#wmr1x1928)"/><circle cx="1021.1553365472332" cy="471.6522124513052" r="18.0" fill="#4444ff" filter="url(#glowr1x1928)" opacity=".88"/><circle cx="1020.919187778663" cy="471.6988751885481" r="7.0" fill="#ffffff"/><rect x="873.100082012415" y="502.0844697174616" width="44.0" height="42.0" rx="3" fill="url(#gunmetalr1x1928)" stroke="#4444ff" stroke-width="1" filter="url(#wmr1x1928)"/><rect x="833.6550538520888" y="422.9081550952047" width="90.0" height="10.0" rx="2" fill="rgba(255,255,255,.22)"/><line x1="858.8544936507568" y1="486.08468489022925" x2="857.223005597163" y2="521.1985511712729" stroke="#4444ff" stroke-opacity=".5" stroke-width="1.2"/><line x1="874.9551962754317" y1="486.55842462684956" x2="872.9939088338614" y2="517.8366603370756" stroke="#4444ff" stroke-opacity=".5" stroke-width="1.2"/><line x1="890.1569104575179" y1="487.5960059574805" x2="890.1995148222521" y2="519.8653680400922" stroke="#4444ff" stroke-opacity=".5" stroke-width="1.2"/></g><rect x="449.6964874883182" y="557.1909159922972" width="100.0"  height="56.0" fill="#141428" stroke="#4444ff" stroke-width="2.2" filter="url(#skr1x1928)"/><rect x="422.715423115436" y="575.6949251583777" width="152.0" height="26.0" fill="url(#bevelr1x1928)" fill-opacity=".65" stroke="#4444ff" stroke-width="1.2" filter="url(#skr1x1928)"/><polygon points="309.0,378.8 351.8,294.1 499.2,277.3 648.4,295.8 690.9,380.7 669.7,504.5 500.3,566.2 332.0,502.7" fill="url(#suitr1x1928)" stroke="#4444ff" stroke-width="2.8" filter="url(#skr1x1928) url(#metalr1x1928)"/><polygon points="307.3,379.2 349.7,295.6 501.4,279.2 650.0,295.4 693.5,378.9 667.3,504.6 499.0,564.7 329.4,503.0" fill="url(#carbonr1x1928)"/><polygon points="382.3,302.8 500.2,286.0 617.5,302.2 606.3,378.9 391.7,380.0" fill="url(#suitHir1x1928)"/><polygon points="380.9,381.0 365.8,424.0 431.9,504.1 501.0,527.3 567.1,503.2 634.7,425.9 618.8,380.2" fill="#050508" fill-opacity=".88" stroke="#4444ff" stroke-width="1.8" filter="url(#skr1x1928)"/><polygon points="379.6,411.1 478.4,412.3 485.5,441.5 387.8,441.5" fill="#4444ff" filter="url(#glowr1x1928)"/><polygon points="521.6,410.1 619.9,410.1 612.0,439.5 514.6,439.9" fill="#4444ff" filter="url(#glowr1x1928)"/><ellipse cx="430.9" cy="425.7" rx="38.4"  ry="8.2" fill="#ffffff" opacity=".88"/><ellipse cx="569.1" cy="425.7" rx="38.4"  ry="8.2" fill="#ffffff" opacity=".88"/><line x1="483.217953161858" y1="415.1837674319744" x2="516.4999032652378" y2="412.05247670067473" stroke="#4444ff" stroke-opacity=".52" stroke-width="2"/><line x1="485.96606719965115" y1="439.2606399318203" x2="516.1106875479594" y2="437.160015152581" stroke="#4444ff" stroke-opacity=".52" stroke-width="2"/><line x1="499.85954959671943" y1="454.0261581775732" x2="498.84923865394666" y2="483.410611349158" stroke="#4444ff" stroke-opacity=".58" stroke-width="2.2" filter="url(#skr1x1928)"/><line x1="453.97291160950437" y1="491.23664223244407" x2="454.51547329228373" y2="521.4023032166064" stroke="#4444ff" stroke-opacity=".52" stroke-width="1.5" filter="url(#skr1x1928)"/><line x1="475.3116368342563" y1="491.38993301233273" x2="476.39531027641146" y2="518.7083146505058" stroke="#4444ff" stroke-opacity=".52" stroke-width="1.5" filter="url(#skr1x1928)"/><line x1="499.1816576180048" y1="489.687189022731" x2="501.37044805260376" y2="520.7239504771308" stroke="#4444ff" stroke-opacity=".52" stroke-width="1.5" filter="url(#skr1x1928)"/><line x1="524.06183875693" y1="491.67754962686445" x2="523.7193167823925" y2="519.0652553542517" stroke="#4444ff" stroke-opacity=".52" stroke-width="1.5" filter="url(#skr1x1928)"/><line x1="546.4518095227145" y1="491.5394752517342" x2="545.4016951781884" y2="520.2935034682043" stroke="#4444ff" stroke-opacity=".52" stroke-width="1.5" filter="url(#skr1x1928)"/><polygon points="433.4,503.2 567.3,505.1 554.3,557.5 447.9,556.7" fill="#141428" fill-opacity=".72" stroke="#4444ff" stroke-width="1.3" filter="url(#skr1x1928)"/><text x="30.0"  y="975.0" font-family="monospace" font-weight="bold" font-size="22.0" fill="rgba(255,255,255,.22)">#0001</text><text x="500.0"   y="975.0" text-anchor="middle" font-family="monospace" font-weight="bold" font-size="22.0" fill="#4444ff" fill-opacity=".48">OBSIDIAN RANGER</text><text x="970.0" y="975.0" text-anchor="end"    font-family="monospace" font-weight="bold" font-size="22.0" fill="#4444ff" fill-opacity=".32">MECH RANGERS</text></svg>