<svg xmlns="http://www.w3.org/2000/svg" viewBox="0 0 1000 1000" width="1000" height="1000" shape-rendering="geometricPrecision"><defs>

  <!-- Scene gradients -->
  <radialGradient id="bgr1x1978" cx="50%" cy="42%" r="72%">
    <stop offset="0%"   stop-color="#1a2814"/>
    <stop offset="100%" stop-color="#0d1520"/>
  </radialGradient>
  <linearGradient id="suitr1x1978" x1="8%" y1="0%" x2="92%" y2="100%">
    <stop offset="0%"   stop-color="#00ff60" stop-opacity=".95"/>
    <stop offset="45%"  stop-color="#00441e"/>
    <stop offset="100%" stop-color="#0d1520"/>
  </linearGradient>
  <linearGradient id="suitHir1x1978" x1="0%" y1="0%" x2="0%" y2="100%">
    <stop offset="0%"   stop-color="rgba(255,255,255,.28)"/>
    <stop offset="60%"  stop-color="rgba(255,255,255,.04)"/>
    <stop offset="100%" stop-color="rgba(255,255,255,0)"/>
  </linearGradient>
  <!-- Bevel: bright top, dark bottom for armour panels -->
  <linearGradient id="bevelr1x1978" x1="0%" y1="0%" x2="0%" y2="100%">
    <stop offset="0%"   stop-color="rgba(255,255,255,.55)"/>
    <stop offset="30%"  stop-color="#00ff60"/>
    <stop offset="70%"  stop-color="#00441e"/>
    <stop offset="100%" stop-color="rgba(0,0,0,.5)"/>
  </linearGradient>

  <!-- Weapon: cold steel blade sweep -->
  <linearGradient id="blader1x1978" x1="0%" y1="0%" x2="100%" y2="0%">
    <stop offset="0%"   stop-color="#0e0e20"/>
    <stop offset="16%"  stop-color="#3e3e58"/>
    <stop offset="34%"  stop-color="#c8c8e0"/>
    <stop offset="50%"  stop-color="#f5f5ff"/>
    <stop offset="66%"  stop-color="#b8b8d0"/>
    <stop offset="84%"  stop-color="#2e2e48"/>
    <stop offset="100%" stop-color="#08080e"/>
  </linearGradient>
  <!-- Blade tip brightening -->
  <linearGradient id="bladeTipr1x1978" x1="0%" y1="100%" x2="0%" y2="0%">
    <stop offset="0%"   stop-color="rgba(255,255,255,0)"/>
    <stop offset="55%"  stop-color="rgba(255,255,255,.1)"/>
    <stop offset="100%" stop-color="rgba(255,255,255,.55)"/>
  </linearGradient>
  <!-- Gunmetal anodised — blaster body -->
  <linearGradient id="gunmetalr1x1978" x1="0%" y1="0%" x2="0%" y2="100%">
    <stop offset="0%"   stop-color="#46465e"/>
    <stop offset="18%"  stop-color="#828296"/>
    <stop offset="42%"  stop-color="#26263a"/>
    <stop offset="72%"  stop-color="#16162a"/>
    <stop offset="100%" stop-color="#0c0c18"/>
  </linearGradient>
  <!-- Brushed steel tube — barrel/rod -->
  <linearGradient id="barrelr1x1978" x1="0%" y1="0%" x2="100%" y2="0%">
    <stop offset="0%"   stop-color="#0a0a14"/>
    <stop offset="24%"  stop-color="#585875"/>
    <stop offset="50%"  stop-color="#a8a8c8"/>
    <stop offset="76%"  stop-color="#383852"/>
    <stop offset="100%" stop-color="#0a0a14"/>
  </linearGradient>
  <!-- Chrome rod — lance shaft -->
  <linearGradient id="chromer1x1978" x1="0%" y1="0%" x2="100%" y2="0%">
    <stop offset="0%"   stop-color="#0c0c18"/>
    <stop offset="20%"  stop-color="#686888"/>
    <stop offset="44%"  stop-color="#e0e0f0"/>
    <stop offset="56%"  stop-color="#c0c0d8"/>
    <stop offset="80%"  stop-color="#28283e"/>
    <stop offset="100%" stop-color="#0c0c18"/>
  </linearGradient>
  <!-- Titanium plate — shield face -->
  <linearGradient id="titaniumr1x1978" x1="0%" y1="0%" x2="100%" y2="100%">
    <stop offset="0%"   stop-color="#585878"/>
    <stop offset="28%"  stop-color="#00ff60" stop-opacity=".88"/>
    <stop offset="55%"  stop-color="#00441e"/>
    <stop offset="80%"  stop-color="#181828"/>
    <stop offset="100%" stop-color="#0a0a18"/>
  </linearGradient>
  <!-- Artillery black-chrome — cannon body -->
  <linearGradient id="artilleryr1x1978" x1="0%" y1="0%" x2="0%" y2="100%">
    <stop offset="0%"   stop-color="#383850"/>
    <stop offset="14%"  stop-color="#78789a"/>
    <stop offset="36%"  stop-color="#202034"/>
    <stop offset="65%"  stop-color="#14141e"/>
    <stop offset="100%" stop-color="#0a0a12"/>
  </linearGradient>
  <!-- Energy orb — staff -->
  <radialGradient id="orbr1x1978" cx="35%" cy="35%" r="65%">
    <stop offset="0%"   stop-color="rgba(255,255,255,.9)"/>
    <stop offset="30%"  stop-color="#00ff60"/>
    <stop offset="68%"  stop-color="#00441e"/>
    <stop offset="100%" stop-color="rgba(0,0,0,.6)"/>
  </radialGradient>
  <!-- Knuckle plate chrome -->
  <linearGradient id="knuckler1x1978" x1="0%" y1="0%" x2="0%" y2="100%">
    <stop offset="0%"   stop-color="#888aaa"/>
    <stop offset="32%"  stop-color="#00ff60" stop-opacity=".8"/>
    <stop offset="62%"  stop-color="#1a1a2c"/>
    <stop offset="100%" stop-color="#0a0a14"/>
  </linearGradient>

  <!-- Carbon fibre weave texture overlay -->
  <pattern id="carbonr1x1978" width="6" height="6" patternUnits="userSpaceOnUse">
    <rect width="6" height="6" fill="rgba(0,0,0,.08)"/>
    <rect x="0" y="0" width="3" height="3" fill="rgba(255,255,255,.022)"/>
    <rect x="3" y="3" width="3" height="3" fill="rgba(255,255,255,.022)"/>
    <line x1="0" y1="0" x2="3" y2="3" stroke="rgba(255,255,255,.038)" stroke-width=".5"/>
    <line x1="3" y1="0" x2="6" y2="3" stroke="rgba(0,0,0,.055)"       stroke-width=".5"/>
    <line x1="0" y1="3" x2="3" y2="6" stroke="rgba(0,0,0,.055)"       stroke-width=".5"/>
    <line x1="3" y1="3" x2="6" y2="6" stroke="rgba(255,255,255,.038)" stroke-width=".5"/>
  </pattern>

  <!-- Specular metal sheen on armour panels -->
  <filter id="metalr1x1978" x="-5%" y="-5%" width="110%" height="110%">
    <feSpecularLighting surfaceScale="4" specularConstant="1.8"
        specularExponent="42" lighting-color="#ffffff" result="spec">
      <feDistantLight elevation="52" azimuth="38"/>
    </feSpecularLighting>
    <feComposite in="spec" in2="SourceGraphic" operator="in" result="sm"/>
    <feComposite in="SourceGraphic" in2="sm" operator="arithmetic" k1="0" k2="1" k3="0.55" k4="0"/>
  </filter>

  <!-- Sharper specular for weapons — heavier glare -->
  <filter id="wmr1x1978" x="-8%" y="-8%" width="116%" height="116%">
    <feSpecularLighting surfaceScale="6" specularConstant="2.4"
        specularExponent="65" lighting-color="#ffffff" result="spec">
      <feDistantLight elevation="44" azimuth="28"/>
    </feSpecularLighting>
    <feComposite in="spec" in2="SourceGraphic" operator="in" result="sm"/>
    <feComposite in="SourceGraphic" in2="sm" operator="arithmetic" k1="0" k2="1" k3="0.78" k4="0"/>
  </filter>

  <!-- Sketch wobble -->
  <filter id="skr1x1978" x="-8%" y="-8%" width="116%" height="116%">
    <feTurbulence type="fractalNoise" baseFrequency="0.038"
        numOctaves="3" seed="67" result="noise"/>
    <feDisplacementMap in="SourceGraphic" in2="noise" scale="2.6"
        xChannelSelector="R" yChannelSelector="G" result="w"/>
    <feComposite in="w" in2="SourceGraphic" operator="atop"/>
  </filter>

  <!-- Glow: sharp accent -->
  <filter id="glowr1x1978" x="-20%" y="-20%" width="140%" height="140%">
    <feGaussianBlur stdDeviation="3.5" result="b"/>
    <feColorMatrix in="b" type="matrix"
        values="0 0 0 0 1  0 0 0 0 1  0 0 0 0 1  0 0 0 1.8 0" result="boost"/>
    <feMerge><feMergeNode in="boost"/><feMergeNode in="SourceGraphic"/></feMerge>
  </filter>

  <!-- Bloom: wide soft -->
  <filter id="bloomr1x1978" x="-40%" y="-40%" width="180%" height="180%">
    <feGaussianBlur stdDeviation="11" result="b"/>
    <feMerge><feMergeNode in="b"/><feMergeNode in="SourceGraphic"/></feMerge>
  </filter>

  </defs><rect width="1000" height="1000" fill="url(#bgr1x1978)"/><ellipse cx="500.0" cy="892.0" rx="350.0" ry="65.0" fill="rgba(0,0,0,.7)" filter="url(#bloomr1x1978)"/><ellipse cx="500.0" cy="889.0" rx="220.0" ry="34.0" fill="rgba(0,0,0,.45)"/><ellipse cx="500.0" cy="520.0" rx="320.0" ry="480.0" fill="#ff00ff" fill-opacity=".042" filter="url(#bloomr1x1978)"/><circle cx="349.5" cy="338.6" r="3.7" fill="#ff00ff" fill-opacity="0.43" filter="url(#glowr1x1978)"/><circle cx="506.9" cy="393.5" r="0.8" fill="#ff00ff" fill-opacity="0.89" filter="url(#glowr1x1978)"/><circle cx="666.2" cy="768.3" r="0.7" fill="#ff00ff" fill-opacity="0.52" filter="url(#glowr1x1978)"/><circle cx="560.6" cy="287.9" r="1.6" fill="#ff00ff" fill-opacity="0.90" filter="url(#glowr1x1978)"/><circle cx="494.0" cy="636.1" r="3.7" fill="#ff00ff" fill-opacity="0.54" filter="url(#glowr1x1978)"/><circle cx="428.5" cy="314.4" r="4.0" fill="#ff00ff" fill-opacity="0.49" filter="url(#glowr1x1978)"/><circle cx="738.1" cy="712.7" r="4.3" fill="#ff00ff" fill-opacity="0.75" filter="url(#glowr1x1978)"/><circle cx="319.6" cy="375.2" r="2.8" fill="#ff00ff" fill-opacity="0.65" filter="url(#glowr1x1978)"/><circle cx="720.8" cy="204.3" r="3.2" fill="#ff00ff" fill-opacity="0.58" filter="url(#glowr1x1978)"/><circle cx="743.7" cy="508.9" r="3.4" fill="#ff00ff" fill-opacity="0.66" filter="url(#glowr1x1978)"/><circle cx="337.8" cy="776.6" r="2.1" fill="#ff00ff" fill-opacity="0.74" filter="url(#glowr1x1978)"/><circle cx="512.9" cy="710.9" r="2.4" fill="#ff00ff" fill-opacity="0.61" filter="url(#glowr1x1978)"/><circle cx="736.7" cy="453.3" r="1.1" fill="#ff00ff" fill-opacity="0.44" filter="url(#glowr1x1978)"/><circle cx="448.0" cy="747.1" r="2.9" fill="#ff00ff" fill-opacity="0.89" filter="url(#glowr1x1978)"/><path d="M661.5,344.2 Q702.1,616.7 434.4,898.3" stroke="#ff00ff" stroke-opacity="0.55" stroke-width="0.8" fill="none" filter="url(#glowr1x1978)"/><path d="M436.8,152.8 Q427.6,436.0 422.0,671.4" stroke="#ff00ff" stroke-opacity="0.44" stroke-width="1.7" fill="none" filter="url(#glowr1x1978)"/><path d="M313.6,237.7 Q317.8,525.5 385.6,764.4" stroke="#ff00ff" stroke-opacity="0.47" stroke-width="1.1" fill="none" filter="url(#glowr1x1978)"/><path d="M491.9,144.7 Q459.0,471.1 511.4,799.8" stroke="#ff00ff" stroke-opacity="0.69" stroke-width="1.7" fill="none" filter="url(#glowr1x1978)"/><path d="M540.9,293.2 Q559.2,544.5 539.4,833.1" stroke="#ff00ff" stroke-opacity="0.79" stroke-width="1.7" fill="none" filter="url(#glowr1x1978)"/><polygon points="399.0,663.8 488.5,662.8 481.5,876.5 388.2,876.0" fill="url(#suitr1x1978)" stroke="#00ff60" stroke-width="2.2" filter="url(#skr1x1978) url(#metalr1x1978)"/><polygon points="400.4,663.2 490.5,661.6 481.2,878.0 387.8,878.9" fill="url(#carbonr1x1978)"/><polygon points="394.4,722.1 492.4,722.6 482.9,788.4 382.6,788.2" fill="url(#bevelr1x1978)" fill-opacity=".5" stroke="#00ff60" stroke-width="1.4" filter="url(#skr1x1978)"/><polygon points="511.6,664.3 602.8,662.1 614.3,878.6 520.1,877.7" fill="url(#suitr1x1978)" stroke="#00ff60" stroke-width="2.2" filter="url(#skr1x1978) url(#metalr1x1978)"/><polygon points="510.1,662.6 600.1,663.6 612.0,875.8 518.1,877.1" fill="url(#carbonr1x1978)"/><polygon points="506.1,725.4 607.6,725.2 616.0,787.2 515.7,787.5" fill="url(#bevelr1x1978)" fill-opacity=".5" stroke="#00ff60" stroke-width="1.4" filter="url(#skr1x1978)"/><rect x="393.8" y="837.2" width="100.3" height="24.7" fill="url(#bevelr1x1978)" stroke="#00ff60" stroke-width="1" filter="url(#skr1x1978)"/><rect x="507.5"  y="837.2" width="100.3" height="24.7" fill="url(#bevelr1x1978)" stroke="#00ff60" stroke-width="1" filter="url(#skr1x1978)"/><polygon points="369.9,876.6 495.1,876.9 502.7,922.7 363.6,920.6" fill="#00441e" stroke="#00ff60" stroke-width="2" filter="url(#skr1x1978)"/><polygon points="503.3,877.8 630.3,878.7 636.1,920.1 497.6,921.3" fill="#00441e" stroke="#00ff60" stroke-width="2" filter="url(#skr1x1978)"/><polygon points="302.9,633.4 696.8,634.8 638.9,681.0 362.5,682.0" fill="#00ff60" fill-opacity=".52" stroke="#00ff60" stroke-width="2" filter="url(#skr1x1978)"/><rect x="463.2" y="636.4" width="72.0" height="42.0" fill="url(#bevelr1x1978)" stroke="#00ff60" stroke-width="1.4" filter="url(#glowr1x1978)"/><rect x="485.4" y="642.2" width="28.0" height="22.0" rx="1" fill="rgba(255,255,255,.48)"/><polygon points="152.5,468.1 234.1,466.3 258.1,736.5 128.1,734.3" fill="url(#suitr1x1978)" stroke="#00ff60" stroke-width="2.2" filter="url(#skr1x1978) url(#metalr1x1978)"/><polygon points="174.4,433.4 251.7,433.8 241.7,509.4 158.6,511.1" fill="url(#bevelr1x1978)" fill-opacity=".72" stroke="#00ff60" stroke-width="2.2" filter="url(#skr1x1978)"/><polygon points="159.5,621.1 244.0,622.4 238.7,661.2 165.1,661.8" fill="#00ff60" fill-opacity=".42" stroke="#00ff60" stroke-width="1" filter="url(#skr1x1978)"/><polygon points="764.6,465.0 847.1,468.0 870.5,734.7 741.3,736.5" fill="url(#suitr1x1978)" stroke="#00ff60" stroke-width="2.2" filter="url(#skr1x1978) url(#metalr1x1978)"/><polygon points="747.0,431.6 825.2,433.9 842.0,511.2 758.1,510.1" fill="url(#bevelr1x1978)" fill-opacity=".72" stroke="#00ff60" stroke-width="2.2" filter="url(#skr1x1978)"/><polygon points="757.7,620.9 840.6,620.5 833.9,660.0 761.6,661.2" fill="#00ff60" fill-opacity=".42" stroke="#00ff60" stroke-width="1" filter="url(#skr1x1978)"/><rect x="119.3"  y="700.2" width="135.3" height="85.0" rx="4" fill="url(#bevelr1x1978)" stroke="#00ff60" stroke-width="1.8" filter="url(#skr1x1978)"/><rect x="747.8"   y="698.7" width="135.3" height="85.0" rx="4" fill="url(#bevelr1x1978)" stroke="#00ff60" stroke-width="1.8" filter="url(#skr1x1978)"/><line x1="148.3" y1="703.6" x2="150.7" y2="784.8" stroke="#00ff60" stroke-opacity=".38" stroke-width="1"/><line x1="778.3" y1="701.0" x2="777.7" y2="784.2" stroke="#00ff60" stroke-opacity=".38" stroke-width="1"/><line x1="183.3" y1="702.8" x2="183.2" y2="785.0" stroke="#00ff60" stroke-opacity=".38" stroke-width="1"/><line x1="812.5" y1="700.7" x2="811.5" y2="784.0" stroke="#00ff60" stroke-opacity=".38" stroke-width="1"/><line x1="216.2" y1="700.8" x2="215.1" y2="785.1" stroke="#00ff60" stroke-opacity=".38" stroke-width="1"/><line x1="843.1" y1="700.1" x2="843.1" y2="785.2" stroke="#00ff60" stroke-opacity=".38" stroke-width="1"/><polygon points="234.8,418.7 764.7,418.9 724.4,662.5 277.5,662.5" fill="url(#suitr1x1978)" stroke="#00ff60" stroke-width="2.6" filter="url(#skr1x1978) url(#metalr1x1978)"/><polygon points="235.1,418.1 763.4,416.5 723.0,662.9 278.1,661.9" fill="url(#carbonr1x1978)"/><polygon points="367.9,419.2 631.2,418.9 613.1,515.8 389.0,515.8" fill="url(#suitHir1x1978)"/><line x1="361.0" y1="471.8" x2="638.2" y2="470.9" stroke="#00ff60" stroke-opacity=".52" stroke-width="1.3" filter="url(#skr1x1978)"/><line x1="399.0" y1="550.7" x2="600.8" y2="549.5" stroke="#00ff60" stroke-opacity=".52" stroke-width="1.3" filter="url(#skr1x1978)"/><line x1="266.7" y1="490.9" x2="320.5" y2="489.7" stroke="#00ff60" stroke-opacity=".62" stroke-width="1.8"/><line x1="679.9" y1="492.0" x2="731.7" y2="489.5" stroke="#00ff60" stroke-opacity=".62" stroke-width="1.8"/><line x1="265.2" y1="522.1" x2="321.1" y2="521.1" stroke="#00ff60" stroke-opacity=".62" stroke-width="1.8"/><line x1="681.9" y1="523.8" x2="732.9" y2="523.3" stroke="#00ff60" stroke-opacity=".62" stroke-width="1.8"/><line x1="266.4" y1="553.9" x2="321.1" y2="553.7" stroke="#00ff60" stroke-opacity=".62" stroke-width="1.8"/><line x1="679.4" y1="555.8" x2="733.3" y2="553.7" stroke="#00ff60" stroke-opacity=".62" stroke-width="1.8"/><line x1="268.5" y1="588.3" x2="320.9" y2="588.3" stroke="#00ff60" stroke-opacity=".62" stroke-width="1.8"/><line x1="681.8" y1="585.9" x2="731.9" y2="587.4" stroke="#00ff60" stroke-opacity=".62" stroke-width="1.8"/><g filter="url(#glowr1x1978)"><polygon points="500.4,451.1 513.9,490.0 554.9,491.5 524.5,516.9 534.8,556.4 500.8,534.7 464.5,556.4 475.0,518.7 443.5,490.9 484.5,488.5 " fill="#00ff60" stroke="#0d1520" stroke-width="1.4" filter="url(#skr1x1978)"/><polygon points="500.4,451.1 513.9,490.0 554.9,491.5 524.5,516.9 534.8,556.4 500.8,534.7 464.5,556.4 475.0,518.7 443.5,490.9 484.5,488.5 " fill="url(#suitHir1x1978)" opacity=".45"/></g><g><polygon points="76.2,671.4 128.2,671.4 112.6,-28.6 91.8,-28.6" fill="url(#blader1x1978)" filter="url(#wmr1x1978)"/><polygon points="91.8,-28.6 112.6,-28.6 102.2,-138.6" fill="url(#blader1x1978)" filter="url(#wmr1x1978)"/><polygon points="100.3,671.4 104.0,671.4 102.7,-128.6 101.6,-128.6" fill="url(#bladeTipr1x1978)" opacity=".9"/><line x1="113.18260419860479" y1="670.681262886431" x2="103.21126845795659" y2="-127.83395687332379" stroke="rgba(255,255,255,.68)" stroke-width="1.5"/><line x1="94.09025357794013" y1="672.4844776497222" x2="102.53267853416499" y2="-127.38155936487021" stroke="#00ff60" stroke-width="1" stroke-opacity=".45"/><line x1="106.8" y1="651.4" x2="104.0" y2="11.4" stroke="rgba(0,0,0,.38)" stroke-width="1.6"/><line x1="97.5" y1="651.4" x2="100.3" y2="11.4" stroke="rgba(0,0,0,.38)" stroke-width="1.6"/><rect x="46.16960385054347" y="667.9810055810958" width="112.0" height="28.0" rx="3" fill="url(#bevelr1x1978)" stroke="#00ff60" stroke-width="1.6" filter="url(#wmr1x1978)"/><rect x="70.11688345320519" y="672.8736144473776" width="64.0" height="10.0" rx="1" fill="rgba(255,255,255,.32)"/><rect x="91.51796188767996" y="676.1759049690328" width="24.0" height="6.0" rx="1" fill="#00ff60" fill-opacity=".35"/><rect x="90.72559125846249" y="686.2824598207138" width="24.0" height="6.0" rx="1" fill="#00ff60" fill-opacity=".35"/><rect x="90.88537660095838" y="692.2276066399179" width="24.0" height="6.0" rx="1" fill="#00ff60" fill-opacity=".35"/><rect x="89.99692108923566" y="702.9172288530506" width="24.0" height="6.0" rx="1" fill="#00ff60" fill-opacity=".35"/><rect x="88.88655462734398" y="708.3695623936131" width="24.0" height="6.0" rx="1" fill="#00ff60" fill-opacity=".35"/><rect x="88.77880827369165" y="715.8439248093404" width="24.0" height="6.0" rx="1" fill="#00ff60" fill-opacity=".35"/><ellipse cx="101.18684335010123" cy="724.6186047396623" rx="22.0" ry="16.0" fill="url(#bevelr1x1978)" stroke="#00ff60" stroke-width="1.2" filter="url(#wmr1x1978)"/></g><rect x="450.85023312969133" y="558.3105977141298" width="100.0"  height="56.0" fill="#00441e" stroke="#00ff60" stroke-width="2.2" filter="url(#skr1x1978)"/><rect x="422.6265821251087" y="575.8256859709509" width="152.0" height="26.0" fill="url(#bevelr1x1978)" fill-opacity=".65" stroke="#00ff60" stroke-width="1.2" filter="url(#skr1x1978)"/><polygon points="308.2,380.9 350.0,293.7 499.2,276.8 649.4,292.9 691.6,380.2 667.2,503.9 499.5,565.1 332.8,504.3" fill="url(#suitr1x1978)" stroke="#00ff60" stroke-width="2.8" filter="url(#skr1x1978) url(#metalr1x1978)"/><polygon points="309.8,382.0 348.8,295.7 500.3,279.9 649.9,295.7 692.2,378.8 667.7,502.9 499.8,565.0 329.3,502.1" fill="url(#carbonr1x1978)"/><polygon points="379.3,303.2 499.3,287.3 620.1,302.3 606.5,379.5 391.5,380.4" fill="url(#suitHir1x1978)"/><polygon points="382.5,379.0 364.0,424.9 432.6,502.5 499.9,529.3 566.2,503.2 635.5,425.7 619.9,379.2" fill="#0d1520" fill-opacity=".88" stroke="#00ff60" stroke-width="1.8" filter="url(#skr1x1978)"/><polygon points="380.7,412.7 475.2,412.8 483.7,439.6 390.0,441.2" fill="#00ff60" filter="url(#glowr1x1978)"/><polygon points="524.0,410.0 620.6,409.7 610.2,440.0 515.2,439.5" fill="#00ff60" filter="url(#glowr1x1978)"/><ellipse cx="430.9" cy="425.7" rx="38.4"  ry="8.2" fill="#ffffff" opacity=".88"/><ellipse cx="569.1" cy="425.7" rx="38.4"  ry="8.2" fill="#ffffff" opacity=".88"/><line x1="483.4741027003713" y1="413.673754783161" x2="514.3923465389199" y2="414.9773450528271" stroke="#00ff60" stroke-opacity=".52" stroke-width="2"/><line x1="484.21256140364335" y1="439.28294267077" x2="516.6657066541165" y2="439.27419578433035" stroke="#00ff60" stroke-opacity=".52" stroke-width="2"/><line x1="498.4637456106022" y1="453.4800316445529" x2="500.244782921765" y2="482.0372912164778" stroke="#00ff60" stroke-opacity=".58" stroke-width="2.2" filter="url(#skr1x1978)"/><line x1="455.47952621130275" y1="492.2050854062661" x2="452.4489956296794" y2="521.4212129150517" stroke="#00ff60" stroke-opacity=".52" stroke-width="1.5" filter="url(#skr1x1978)"/><line x1="478.2457398962602" y1="492.36461921203875" x2="475.3852268964425" y2="518.4392695112153" stroke="#00ff60" stroke-opacity=".52" stroke-width="1.5" filter="url(#skr1x1978)"/><line x1="499.4806897778064" y1="491.375291285105" x2="501.59072419721633" y2="518.5743898387998" stroke="#00ff60" stroke-opacity=".52" stroke-width="1.5" filter="url(#skr1x1978)"/><line x1="523.110130299218" y1="490.2486170234158" x2="523.8197936505637" y2="521.6946995669975" stroke="#00ff60" stroke-opacity=".52" stroke-width="1.5" filter="url(#skr1x1978)"/><line x1="547.1383251227625" y1="489.5865469757467" x2="544.659839250166" y2="518.8739053159021" stroke="#00ff60" stroke-opacity=".52" stroke-width="1.5" filter="url(#skr1x1978)"/><polygon points="431.4,503.9 566.5,502.4 555.1,558.5 447.3,556.4" fill="#00441e" fill-opacity=".72" stroke="#00ff60" stroke-width="1.3" filter="url(#skr1x1978)"/><text x="30.0"  y="975.0" font-family="monospace" font-weight="bold" font-size="22.0" fill="rgba(255,255,255,.22)">#0001</text><text x="500.0"   y="975.0" text-anchor="middle" font-family="monospace" font-weight="bold" font-size="22.0" fill="#00ff60" fill-opacity=".48">VIPER RANGER</text><text x="970.0" y="975.0" text-anchor="end"    font-family="monospace" font-weight="bold" font-size="22.0" fill="#00ff60" fill-opacity=".32">MECH RANGERS</text></svg>