<svg xmlns="http://www.w3.org/2000/svg" viewBox="0 0 1000 1000" width="1000" height="1000" shape-rendering="geometricPrecision"><defs>

  <!-- Scene gradients -->
  <radialGradient id="bgr1x1987" cx="50%" cy="42%" r="72%">
    <stop offset="0%"   stop-color="#0a1420"/>
    <stop offset="100%" stop-color="#050d14"/>
  </radialGradient>
  <linearGradient id="suitr1x1987" x1="8%" y1="0%" x2="92%" y2="100%">
    <stop offset="0%"   stop-color="#2060ff" stop-opacity=".95"/>
    <stop offset="45%"  stop-color="#003ccc"/>
    <stop offset="100%" stop-color="#050d14"/>
  </linearGradient>
  <linearGradient id="suitHir1x1987" x1="0%" y1="0%" x2="0%" y2="100%">
    <stop offset="0%"   stop-color="rgba(255,255,255,.28)"/>
    <stop offset="60%"  stop-color="rgba(255,255,255,.04)"/>
    <stop offset="100%" stop-color="rgba(255,255,255,0)"/>
  </linearGradient>
  <!-- Bevel: bright top, dark bottom for armour panels -->
  <linearGradient id="bevelr1x1987" x1="0%" y1="0%" x2="0%" y2="100%">
    <stop offset="0%"   stop-color="rgba(255,255,255,.55)"/>
    <stop offset="30%"  stop-color="#2060ff"/>
    <stop offset="70%"  stop-color="#003ccc"/>
    <stop offset="100%" stop-color="rgba(0,0,0,.5)"/>
  </linearGradient>

  <!-- Weapon: cold steel blade sweep -->
  <linearGradient id="blader1x1987" x1="0%" y1="0%" x2="100%" y2="0%">
    <stop offset="0%"   stop-color="#0e0e20"/>
    <stop offset="16%"  stop-color="#3e3e58"/>
    <stop offset="34%"  stop-color="#c8c8e0"/>
    <stop offset="50%"  stop-color="#f5f5ff"/>
    <stop offset="66%"  stop-color="#b8b8d0"/>
    <stop offset="84%"  stop-color="#2e2e48"/>
    <stop offset="100%" stop-color="#08080e"/>
  </linearGradient>
  <!-- Blade tip brightening -->
  <linearGradient id="bladeTipr1x1987" x1="0%" y1="100%" x2="0%" y2="0%">
    <stop offset="0%"   stop-color="rgba(255,255,255,0)"/>
    <stop offset="55%"  stop-color="rgba(255,255,255,.1)"/>
    <stop offset="100%" stop-color="rgba(255,255,255,.55)"/>
  </linearGradient>
  <!-- Gunmetal anodised — blaster body -->
  <linearGradient id="gunmetalr1x1987" x1="0%" y1="0%" x2="0%" y2="100%">
    <stop offset="0%"   stop-color="#46465e"/>
    <stop offset="18%"  stop-color="#828296"/>
    <stop offset="42%"  stop-color="#26263a"/>
    <stop offset="72%"  stop-color="#16162a"/>
    <stop offset="100%" stop-color="#0c0c18"/>
  </linearGradient>
  <!-- Brushed steel tube — barrel/rod -->
  <linearGradient id="barrelr1x1987" x1="0%" y1="0%" x2="100%" y2="0%">
    <stop offset="0%"   stop-color="#0a0a14"/>
    <stop offset="24%"  stop-color="#585875"/>
    <stop offset="50%"  stop-color="#a8a8c8"/>
    <stop offset="76%"  stop-color="#383852"/>
    <stop offset="100%" stop-color="#0a0a14"/>
  </linearGradient>
  <!-- Chrome rod — lance shaft -->
  <linearGradient id="chromer1x1987" x1="0%" y1="0%" x2="100%" y2="0%">
    <stop offset="0%"   stop-color="#0c0c18"/>
    <stop offset="20%"  stop-color="#686888"/>
    <stop offset="44%"  stop-color="#e0e0f0"/>
    <stop offset="56%"  stop-color="#c0c0d8"/>
    <stop offset="80%"  stop-color="#28283e"/>
    <stop offset="100%" stop-color="#0c0c18"/>
  </linearGradient>
  <!-- Titanium plate — shield face -->
  <linearGradient id="titaniumr1x1987" x1="0%" y1="0%" x2="100%" y2="100%">
    <stop offset="0%"   stop-color="#585878"/>
    <stop offset="28%"  stop-color="#2060ff" stop-opacity=".88"/>
    <stop offset="55%"  stop-color="#003ccc"/>
    <stop offset="80%"  stop-color="#181828"/>
    <stop offset="100%" stop-color="#0a0a18"/>
  </linearGradient>
  <!-- Artillery black-chrome — cannon body -->
  <linearGradient id="artilleryr1x1987" x1="0%" y1="0%" x2="0%" y2="100%">
    <stop offset="0%"   stop-color="#383850"/>
    <stop offset="14%"  stop-color="#78789a"/>
    <stop offset="36%"  stop-color="#202034"/>
    <stop offset="65%"  stop-color="#14141e"/>
    <stop offset="100%" stop-color="#0a0a12"/>
  </linearGradient>
  <!-- Energy orb — staff -->
  <radialGradient id="orbr1x1987" cx="35%" cy="35%" r="65%">
    <stop offset="0%"   stop-color="rgba(255,255,255,.9)"/>
    <stop offset="30%"  stop-color="#2060ff"/>
    <stop offset="68%"  stop-color="#003ccc"/>
    <stop offset="100%" stop-color="rgba(0,0,0,.6)"/>
  </radialGradient>
  <!-- Knuckle plate chrome -->
  <linearGradient id="knuckler1x1987" x1="0%" y1="0%" x2="0%" y2="100%">
    <stop offset="0%"   stop-color="#888aaa"/>
    <stop offset="32%"  stop-color="#2060ff" stop-opacity=".8"/>
    <stop offset="62%"  stop-color="#1a1a2c"/>
    <stop offset="100%" stop-color="#0a0a14"/>
  </linearGradient>

  <!-- Carbon fibre weave texture overlay -->
  <pattern id="carbonr1x1987" width="6" height="6" patternUnits="userSpaceOnUse">
    <rect width="6" height="6" fill="rgba(0,0,0,.08)"/>
    <rect x="0" y="0" width="3" height="3" fill="rgba(255,255,255,.022)"/>
    <rect x="3" y="3" width="3" height="3" fill="rgba(255,255,255,.022)"/>
    <line x1="0" y1="0" x2="3" y2="3" stroke="rgba(255,255,255,.038)" stroke-width=".5"/>
    <line x1="3" y1="0" x2="6" y2="3" stroke="rgba(0,0,0,.055)"       stroke-width=".5"/>
    <line x1="0" y1="3" x2="3" y2="6" stroke="rgba(0,0,0,.055)"       stroke-width=".5"/>
    <line x1="3" y1="3" x2="6" y2="6" stroke="rgba(255,255,255,.038)" stroke-width=".5"/>
  </pattern>

  <!-- Specular metal sheen on armour panels -->
  <filter id="metalr1x1987" x="-5%" y="-5%" width="110%" height="110%">
    <feSpecularLighting surfaceScale="4" specularConstant="1.8"
        specularExponent="42" lighting-color="#ffffff" result="spec">
      <feDistantLight elevation="52" azimuth="38"/>
    </feSpecularLighting>
    <feComposite in="spec" in2="SourceGraphic" operator="in" result="sm"/>
    <feComposite in="SourceGraphic" in2="sm" operator="arithmetic" k1="0" k2="1" k3="0.55" k4="0"/>
  </filter>

  <!-- Sharper specular for weapons — heavier glare -->
  <filter id="wmr1x1987" x="-8%" y="-8%" width="116%" height="116%">
    <feSpecularLighting surfaceScale="6" specularConstant="2.4"
        specularExponent="65" lighting-color="#ffffff" result="spec">
      <feDistantLight elevation="44" azimuth="28"/>
    </feSpecularLighting>
    <feComposite in="spec" in2="SourceGraphic" operator="in" result="sm"/>
    <feComposite in="SourceGraphic" in2="sm" operator="arithmetic" k1="0" k2="1" k3="0.78" k4="0"/>
  </filter>

  <!-- Sketch wobble -->
  <filter id="skr1x1987" x="-8%" y="-8%" width="116%" height="116%">
    <feTurbulence type="fractalNoise" baseFrequency="0.038"
        numOctaves="3" seed="18" result="noise"/>
    <feDisplacementMap in="SourceGraphic" in2="noise" scale="2.6"
        xChannelSelector="R" yChannelSelector="G" result="w"/>
    <feComposite in="w" in2="SourceGraphic" operator="atop"/>
  </filter>

  <!-- Glow: sharp accent -->
  <filter id="glowr1x1987" x="-20%" y="-20%" width="140%" height="140%">
    <feGaussianBlur stdDeviation="3.5" result="b"/>
    <feColorMatrix in="b" type="matrix"
        values="0 0 0 0 1  0 0 0 0 1  0 0 0 0 1  0 0 0 1.8 0" result="boost"/>
    <feMerge><feMergeNode in="boost"/><feMergeNode in="SourceGraphic"/></feMerge>
  </filter>

  <!-- Bloom: wide soft -->
  <filter id="bloomr1x1987" x="-40%" y="-40%" width="180%" height="180%">
    <feGaussianBlur stdDeviation="11" result="b"/>
    <feMerge><feMergeNode in="b"/><feMergeNode in="SourceGraphic"/></feMerge>
  </filter>

  </defs><rect width="1000" height="1000" fill="url(#bgr1x1987)"/><polygon points="45.78651770949364,179.2805772041902 60.385659251362085,143.44301230553538 92.52956787403673,188.52007318288088" fill="#2060ff" fill-opacity=".055" stroke="#2060ff" stroke-opacity=".1" stroke-width="1"/><polygon points="46.0378995211795,223.8794320030138 68.4097003871575,194.9410907207057 76.14490490220487,219.27644054871053" fill="#2060ff" fill-opacity=".055" stroke="#2060ff" stroke-opacity=".1" stroke-width="1"/><polygon points="450.42739066295326,39.4987171003595 487.0742174871266,1.5397999975830317 492.1425066916272,34.6230746852234" fill="#2060ff" fill-opacity=".055" stroke="#2060ff" stroke-opacity=".1" stroke-width="1"/><polygon points="334.15978519711643,194.77418650407344 372.1673621078953,156.81583372689784 389.46125386096537,197.0470342831686" fill="#2060ff" fill-opacity=".055" stroke="#2060ff" stroke-opacity=".1" stroke-width="1"/><polygon points="941.6496431035921,296.13854340743273 952.809691385366,261.4672680646181 975.5919532738626,292.9030247684568" fill="#2060ff" fill-opacity=".055" stroke="#2060ff" stroke-opacity=".1" stroke-width="1"/><polygon points="833.2977279741317,389.92921659257263 861.1975871706381,336.14616726338863 874.4709190335125,373.20910410489887" fill="#2060ff" fill-opacity=".055" stroke="#2060ff" stroke-opacity=".1" stroke-width="1"/><polygon points="157.66333664767444,200.48243424855173 183.33194581605494,148.48170076776296 199.81132825650275,188.6218082625419" fill="#2060ff" fill-opacity=".055" stroke="#2060ff" stroke-opacity=".1" stroke-width="1"/><polygon points="253.65751065313816,470.33348192926496 268.5185165219009,436.9723176378757 303.34434254840016,478.00844703800976" fill="#2060ff" fill-opacity=".055" stroke="#2060ff" stroke-opacity=".1" stroke-width="1"/><ellipse cx="500.0" cy="892.0" rx="350.0" ry="65.0" fill="rgba(0,0,0,.7)" filter="url(#bloomr1x1987)"/><ellipse cx="500.0" cy="889.0" rx="220.0" ry="34.0" fill="rgba(0,0,0,.45)"/><ellipse cx="500.0" cy="520.0" rx="320.0" ry="480.0" fill="#6600ff" fill-opacity=".042" filter="url(#bloomr1x1987)"/><circle cx="568.7" cy="635.1" r="2.9" fill="#6600ff" fill-opacity="0.59" filter="url(#glowr1x1987)"/><circle cx="581.2" cy="773.0" r="2.8" fill="#6600ff" fill-opacity="0.68" filter="url(#glowr1x1987)"/><circle cx="272.5" cy="775.7" r="3.9" fill="#6600ff" fill-opacity="0.74" filter="url(#glowr1x1987)"/><circle cx="636.7" cy="314.3" r="4.1" fill="#6600ff" fill-opacity="0.58" filter="url(#glowr1x1987)"/><circle cx="661.9" cy="494.1" r="3.6" fill="#6600ff" fill-opacity="0.57" filter="url(#glowr1x1987)"/><circle cx="552.0" cy="436.4" r="0.7" fill="#6600ff" fill-opacity="0.41" filter="url(#glowr1x1987)"/><circle cx="681.0" cy="276.5" r="1.7" fill="#6600ff" fill-opacity="0.73" filter="url(#glowr1x1987)"/><circle cx="267.8" cy="450.3" r="4.3" fill="#6600ff" fill-opacity="0.64" filter="url(#glowr1x1987)"/><circle cx="442.4" cy="311.1" r="4.2" fill="#6600ff" fill-opacity="0.42" filter="url(#glowr1x1987)"/><circle cx="451.8" cy="549.2" r="4.0" fill="#6600ff" fill-opacity="0.68" filter="url(#glowr1x1987)"/><circle cx="528.1" cy="629.6" r="2.4" fill="#6600ff" fill-opacity="0.80" filter="url(#glowr1x1987)"/><circle cx="350.3" cy="199.9" r="2.0" fill="#6600ff" fill-opacity="0.60" filter="url(#glowr1x1987)"/><circle cx="551.0" cy="183.0" r="2.1" fill="#6600ff" fill-opacity="0.40" filter="url(#glowr1x1987)"/><circle cx="316.8" cy="304.6" r="0.9" fill="#6600ff" fill-opacity="0.48" filter="url(#glowr1x1987)"/><polygon points="397.2,664.1 488.7,663.6 480.0,879.2 386.1,878.1" fill="url(#suitr1x1987)" stroke="#2060ff" stroke-width="2.2" filter="url(#skr1x1987) url(#metalr1x1987)"/><polygon points="399.5,663.1 491.2,664.0 482.3,877.7 387.9,876.5" fill="url(#carbonr1x1987)"/><polygon points="394.2,722.1 494.6,724.1 484.2,786.5 382.9,787.9" fill="url(#bevelr1x1987)" fill-opacity=".5" stroke="#2060ff" stroke-width="1.4" filter="url(#skr1x1987)"/><polygon points="509.6,661.1 601.3,662.9 612.0,879.2 518.2,876.2" fill="url(#suitr1x1987)" stroke="#2060ff" stroke-width="2.2" filter="url(#skr1x1987) url(#metalr1x1987)"/><polygon points="511.3,663.1 601.2,660.8 612.3,877.4 518.8,878.9" fill="url(#carbonr1x1987)"/><polygon points="507.5,723.0 609.1,723.7 616.9,788.2 516.3,788.6" fill="url(#bevelr1x1987)" fill-opacity=".5" stroke="#2060ff" stroke-width="1.4" filter="url(#skr1x1987)"/><rect x="391.0" y="839.4" width="100.3" height="24.7" fill="url(#bevelr1x1987)" stroke="#2060ff" stroke-width="1" filter="url(#skr1x1987)"/><rect x="505.4"  y="838.4" width="100.3" height="24.7" fill="url(#bevelr1x1987)" stroke="#2060ff" stroke-width="1" filter="url(#skr1x1987)"/><polygon points="369.8,875.7 497.4,878.8 502.4,921.8 361.0,922.5" fill="#003ccc" stroke="#2060ff" stroke-width="2" filter="url(#skr1x1987)"/><polygon points="502.0,876.6 630.4,878.9 637.9,919.8 496.2,921.1" fill="#003ccc" stroke="#2060ff" stroke-width="2" filter="url(#skr1x1987)"/><polygon points="302.6,631.6 695.5,634.1 636.4,683.1 361.5,681.6" fill="#2060ff" fill-opacity=".52" stroke="#2060ff" stroke-width="2" filter="url(#skr1x1987)"/><rect x="464.1" y="636.2" width="72.0" height="42.0" fill="url(#bevelr1x1987)" stroke="#2060ff" stroke-width="1.4" filter="url(#glowr1x1987)"/><rect x="487.7" y="638.9" width="28.0" height="22.0" rx="1" fill="rgba(255,255,255,.48)"/><polygon points="152.9,467.4 233.6,466.9 258.6,734.4 129.0,736.6" fill="url(#suitr1x1987)" stroke="#2060ff" stroke-width="2.2" filter="url(#skr1x1987) url(#metalr1x1987)"/><polygon points="174.6,433.6 254.7,431.2 241.9,510.3 159.0,510.0" fill="url(#bevelr1x1987)" fill-opacity=".72" stroke="#2060ff" stroke-width="2.2" filter="url(#skr1x1987)"/><polygon points="160.5,621.3 244.2,622.7 239.5,660.1 165.0,661.8" fill="#2060ff" fill-opacity=".42" stroke="#2060ff" stroke-width="1" filter="url(#skr1x1987)"/><polygon points="766.2,465.0 846.1,465.1 871.8,735.6 743.2,734.0" fill="url(#suitr1x1987)" stroke="#2060ff" stroke-width="2.2" filter="url(#skr1x1987) url(#metalr1x1987)"/><polygon points="747.3,432.5 827.9,434.0 840.8,510.0 755.8,510.0" fill="url(#bevelr1x1987)" fill-opacity=".72" stroke="#2060ff" stroke-width="2.2" filter="url(#skr1x1987)"/><polygon points="755.7,623.7 839.0,621.7 834.8,662.3 759.5,661.3" fill="#2060ff" fill-opacity=".42" stroke="#2060ff" stroke-width="1" filter="url(#skr1x1987)"/><rect x="118.9"  y="699.0" width="135.3" height="85.0" rx="4" fill="url(#bevelr1x1987)" stroke="#2060ff" stroke-width="1.8" filter="url(#skr1x1987)"/><rect x="747.3"   y="701.5" width="135.3" height="85.0" rx="4" fill="url(#bevelr1x1987)" stroke="#2060ff" stroke-width="1.8" filter="url(#skr1x1987)"/><line x1="149.6" y1="703.6" x2="148.0" y2="785.2" stroke="#2060ff" stroke-opacity=".38" stroke-width="1"/><line x1="777.4" y1="701.0" x2="779.3" y2="783.2" stroke="#2060ff" stroke-opacity=".38" stroke-width="1"/><line x1="182.1" y1="701.4" x2="182.6" y2="785.5" stroke="#2060ff" stroke-opacity=".38" stroke-width="1"/><line x1="809.1" y1="701.4" x2="812.3" y2="783.9" stroke="#2060ff" stroke-opacity=".38" stroke-width="1"/><line x1="216.7" y1="702.8" x2="213.7" y2="783.5" stroke="#2060ff" stroke-opacity=".38" stroke-width="1"/><line x1="842.7" y1="700.3" x2="844.7" y2="784.7" stroke="#2060ff" stroke-opacity=".38" stroke-width="1"/><polygon points="236.7,416.1 766.2,416.5 723.6,660.9 278.4,661.6" fill="url(#suitr1x1987)" stroke="#2060ff" stroke-width="2.6" filter="url(#skr1x1987) url(#metalr1x1987)"/><polygon points="236.5,418.3 763.5,417.8 724.0,662.0 276.6,663.5" fill="url(#carbonr1x1987)"/><polygon points="365.8,415.9 630.9,416.8 612.9,516.4 390.5,515.7" fill="url(#suitHir1x1987)"/><line x1="363.1" y1="470.0" x2="637.8" y2="472.7" stroke="#2060ff" stroke-opacity=".52" stroke-width="1.3" filter="url(#skr1x1987)"/><line x1="400.5" y1="551.3" x2="601.4" y2="549.4" stroke="#2060ff" stroke-opacity=".52" stroke-width="1.3" filter="url(#skr1x1987)"/><line x1="267.7" y1="492.2" x2="319.8" y2="491.8" stroke="#2060ff" stroke-opacity=".62" stroke-width="1.8"/><line x1="681.1" y1="490.7" x2="732.4" y2="491.3" stroke="#2060ff" stroke-opacity=".62" stroke-width="1.8"/><line x1="265.3" y1="523.4" x2="318.9" y2="523.2" stroke="#2060ff" stroke-opacity=".62" stroke-width="1.8"/><line x1="681.9" y1="521.2" x2="733.2" y2="521.3" stroke="#2060ff" stroke-opacity=".62" stroke-width="1.8"/><line x1="267.6" y1="556.4" x2="320.5" y2="556.0" stroke="#2060ff" stroke-opacity=".62" stroke-width="1.8"/><line x1="679.9" y1="555.2" x2="732.7" y2="555.9" stroke="#2060ff" stroke-opacity=".62" stroke-width="1.8"/><line x1="266.8" y1="586.5" x2="318.7" y2="585.5" stroke="#2060ff" stroke-opacity=".62" stroke-width="1.8"/><line x1="679.5" y1="585.3" x2="732.7" y2="585.3" stroke="#2060ff" stroke-opacity=".62" stroke-width="1.8"/><g filter="url(#glowr1x1987)"><polygon points="498.4,453.8 542.2,512.2 501.3,567.1 457.5,510.8" fill="#2060ff" stroke="#050d14" stroke-width="1.4" filter="url(#skr1x1987)"/><polygon points="500.3,453.6 541.5,510.9 498.3,569.4 459.5,509.9" fill="url(#suitHir1x1987)" opacity=".45"/></g><g><polygon points="869.4,691.6 898.7,691.3 834.5,271.5" fill="url(#blader1x1987)" stroke="#2060ff" stroke-width="1.8" filter="url(#wmr1x1987)"/><line x1="892.8" y1="691.4" x2="841.8" y2="271.4" stroke="rgba(255,255,255,.58)" stroke-width="1.3"/><polygon points="910.5,690.2 945.4,689.9 985.9,271.8" fill="url(#blader1x1987)" stroke="#2060ff" stroke-width="1.8" filter="url(#wmr1x1987)"/><line x1="941.8" y1="691.4" x2="979.8" y2="271.4" stroke="rgba(255,255,255,.58)" stroke-width="1.3"/><rect x="865.3249404628389" y="682.6726590503938" width="96.0" height="26.0" rx="2" fill="url(#bevelr1x1987)" stroke="#2060ff" stroke-width="1.4" filter="url(#wmr1x1987)"/></g><rect x="450.8871638570912" y="558.1836960387416" width="100.0"  height="56.0" fill="#003ccc" stroke="#2060ff" stroke-width="2.2" filter="url(#skr1x1987)"/><rect x="423.2391335736029" y="575.5134394055233" width="152.0" height="26.0" fill="url(#bevelr1x1987)" fill-opacity=".65" stroke="#2060ff" stroke-width="1.2" filter="url(#skr1x1987)"/><polygon points="307.5,381.9 349.1,295.4 500.8,277.7 649.6,293.9 692.1,379.5 668.9,503.6 499.9,564.2 332.0,504.7" fill="url(#suitr1x1987)" stroke="#2060ff" stroke-width="2.8" filter="url(#skr1x1987) url(#metalr1x1987)"/><polygon points="309.4,382.2 350.8,293.6 498.8,279.4 649.6,295.2 691.6,381.1 669.7,501.8 498.4,563.7 332.1,504.4" fill="url(#carbonr1x1987)"/><polygon points="382.5,301.8 498.6,286.1 620.3,303.7 608.0,379.5 392.6,381.9" fill="url(#suitHir1x1987)"/><polygon points="379.8,380.6 364.0,425.9 434.3,504.7 498.5,527.0 568.6,503.1 636.0,425.8 619.0,379.4" fill="#050d14" fill-opacity=".88" stroke="#2060ff" stroke-width="1.8" filter="url(#skr1x1987)"/><polygon points="379.9,410.7 476.3,410.9 485.6,438.9 387.4,439.6" fill="#2060ff" filter="url(#glowr1x1987)"/><polygon points="524.2,411.4 618.5,411.9 611.7,440.0 514.8,438.9" fill="#2060ff" filter="url(#glowr1x1987)"/><ellipse cx="430.9" cy="425.7" rx="38.4"  ry="8.2" fill="#ffffff" opacity=".88"/><ellipse cx="569.1" cy="425.7" rx="38.4"  ry="8.2" fill="#ffffff" opacity=".88"/><line x1="483.1401760020852" y1="413.5298581880517" x2="514.2024893535673" y2="412.43290655817833" stroke="#2060ff" stroke-opacity=".52" stroke-width="2"/><line x1="484.3136960274167" y1="437.30459261722865" x2="516.851002059076" y2="436.27895581880585" stroke="#2060ff" stroke-opacity=".52" stroke-width="2"/><line x1="499.9726644101553" y1="452.82062698174263" x2="499.60957982670516" y2="481.4136041590013" stroke="#2060ff" stroke-opacity=".58" stroke-width="2.2" filter="url(#skr1x1987)"/><line x1="455.47634871562946" y1="491.06349005941297" x2="454.3025445898809" y2="519.8005972418002" stroke="#2060ff" stroke-opacity=".52" stroke-width="1.5" filter="url(#skr1x1987)"/><line x1="477.3501896349154" y1="492.03558846553784" x2="475.27413600919766" y2="520.2781418159605" stroke="#2060ff" stroke-opacity=".52" stroke-width="1.5" filter="url(#skr1x1987)"/><line x1="500.6358831716701" y1="491.05378836691375" x2="499.7758906442672" y2="520.6481502755545" stroke="#2060ff" stroke-opacity=".52" stroke-width="1.5" filter="url(#skr1x1987)"/><line x1="522.4607790411077" y1="489.8208360003307" x2="522.2635009260475" y2="519.2321590196341" stroke="#2060ff" stroke-opacity=".52" stroke-width="1.5" filter="url(#skr1x1987)"/><line x1="545.6210451803357" y1="492.27915173489595" x2="547.1460013786517" y2="521.1992511076853" stroke="#2060ff" stroke-opacity=".52" stroke-width="1.5" filter="url(#skr1x1987)"/><polygon points="432.0,505.3 568.2,503.5 553.2,555.7 444.5,556.8" fill="#003ccc" fill-opacity=".72" stroke="#2060ff" stroke-width="1.3" filter="url(#skr1x1987)"/><polygon points="317.0,304.7 362.0,304.6 340.2,194.1" fill="url(#bevelr1x1987)" fill-opacity=".95" stroke="#2060ff" stroke-width="1.6" filter="url(#skr1x1987) url(#glowr1x1987)"/><polygon points="394.9,305.4 443.5,304.0 420.3,210.4" fill="url(#bevelr1x1987)" fill-opacity=".95" stroke="#2060ff" stroke-width="1.6" filter="url(#skr1x1987) url(#glowr1x1987)"/><polygon points="476.9,305.5 522.2,304.6 499.1,222.1" fill="url(#bevelr1x1987)" fill-opacity=".95" stroke="#2060ff" stroke-width="1.6" filter="url(#skr1x1987) url(#glowr1x1987)"/><polygon points="558.3,304.8 603.9,304.9 581.0,209.7" fill="url(#bevelr1x1987)" fill-opacity=".95" stroke="#2060ff" stroke-width="1.6" filter="url(#skr1x1987) url(#glowr1x1987)"/><polygon points="638.5,306.3 685.9,303.1 660.9,194.6" fill="url(#bevelr1x1987)" fill-opacity=".95" stroke="#2060ff" stroke-width="1.6" filter="url(#skr1x1987) url(#glowr1x1987)"/><text x="30.0"  y="975.0" font-family="monospace" font-weight="bold" font-size="22.0" fill="rgba(255,255,255,.22)">#0001</text><text x="500.0"   y="975.0" text-anchor="middle" font-family="monospace" font-weight="bold" font-size="22.0" fill="#2060ff" fill-opacity=".48">COBALT RANGER</text><text x="970.0" y="975.0" text-anchor="end"    font-family="monospace" font-weight="bold" font-size="22.0" fill="#2060ff" fill-opacity=".32">MECH RANGERS</text></svg>