<svg xmlns="http://www.w3.org/2000/svg" viewBox="0 0 1000 1000" width="1000" height="1000" shape-rendering="geometricPrecision"><defs>

  <!-- Scene gradients -->
  <radialGradient id="bgr1x2016" cx="50%" cy="42%" r="72%">
    <stop offset="0%"   stop-color="#1a2814"/>
    <stop offset="100%" stop-color="#0d1520"/>
  </radialGradient>
  <linearGradient id="suitr1x2016" x1="8%" y1="0%" x2="92%" y2="100%">
    <stop offset="0%"   stop-color="#ccccff" stop-opacity=".95"/>
    <stop offset="45%"  stop-color="#242438"/>
    <stop offset="100%" stop-color="#0d1520"/>
  </linearGradient>
  <linearGradient id="suitHir1x2016" x1="0%" y1="0%" x2="0%" y2="100%">
    <stop offset="0%"   stop-color="rgba(255,255,255,.28)"/>
    <stop offset="60%"  stop-color="rgba(255,255,255,.04)"/>
    <stop offset="100%" stop-color="rgba(255,255,255,0)"/>
  </linearGradient>
  <!-- Bevel: bright top, dark bottom for armour panels -->
  <linearGradient id="bevelr1x2016" x1="0%" y1="0%" x2="0%" y2="100%">
    <stop offset="0%"   stop-color="rgba(255,255,255,.55)"/>
    <stop offset="30%"  stop-color="#ccccff"/>
    <stop offset="70%"  stop-color="#242438"/>
    <stop offset="100%" stop-color="rgba(0,0,0,.5)"/>
  </linearGradient>

  <!-- Weapon: cold steel blade sweep -->
  <linearGradient id="blader1x2016" x1="0%" y1="0%" x2="100%" y2="0%">
    <stop offset="0%"   stop-color="#0e0e20"/>
    <stop offset="16%"  stop-color="#3e3e58"/>
    <stop offset="34%"  stop-color="#c8c8e0"/>
    <stop offset="50%"  stop-color="#f5f5ff"/>
    <stop offset="66%"  stop-color="#b8b8d0"/>
    <stop offset="84%"  stop-color="#2e2e48"/>
    <stop offset="100%" stop-color="#08080e"/>
  </linearGradient>
  <!-- Blade tip brightening -->
  <linearGradient id="bladeTipr1x2016" x1="0%" y1="100%" x2="0%" y2="0%">
    <stop offset="0%"   stop-color="rgba(255,255,255,0)"/>
    <stop offset="55%"  stop-color="rgba(255,255,255,.1)"/>
    <stop offset="100%" stop-color="rgba(255,255,255,.55)"/>
  </linearGradient>
  <!-- Gunmetal anodised — blaster body -->
  <linearGradient id="gunmetalr1x2016" x1="0%" y1="0%" x2="0%" y2="100%">
    <stop offset="0%"   stop-color="#46465e"/>
    <stop offset="18%"  stop-color="#828296"/>
    <stop offset="42%"  stop-color="#26263a"/>
    <stop offset="72%"  stop-color="#16162a"/>
    <stop offset="100%" stop-color="#0c0c18"/>
  </linearGradient>
  <!-- Brushed steel tube — barrel/rod -->
  <linearGradient id="barrelr1x2016" x1="0%" y1="0%" x2="100%" y2="0%">
    <stop offset="0%"   stop-color="#0a0a14"/>
    <stop offset="24%"  stop-color="#585875"/>
    <stop offset="50%"  stop-color="#a8a8c8"/>
    <stop offset="76%"  stop-color="#383852"/>
    <stop offset="100%" stop-color="#0a0a14"/>
  </linearGradient>
  <!-- Chrome rod — lance shaft -->
  <linearGradient id="chromer1x2016" x1="0%" y1="0%" x2="100%" y2="0%">
    <stop offset="0%"   stop-color="#0c0c18"/>
    <stop offset="20%"  stop-color="#686888"/>
    <stop offset="44%"  stop-color="#e0e0f0"/>
    <stop offset="56%"  stop-color="#c0c0d8"/>
    <stop offset="80%"  stop-color="#28283e"/>
    <stop offset="100%" stop-color="#0c0c18"/>
  </linearGradient>
  <!-- Titanium plate — shield face -->
  <linearGradient id="titaniumr1x2016" x1="0%" y1="0%" x2="100%" y2="100%">
    <stop offset="0%"   stop-color="#585878"/>
    <stop offset="28%"  stop-color="#ccccff" stop-opacity=".88"/>
    <stop offset="55%"  stop-color="#242438"/>
    <stop offset="80%"  stop-color="#181828"/>
    <stop offset="100%" stop-color="#0a0a18"/>
  </linearGradient>
  <!-- Artillery black-chrome — cannon body -->
  <linearGradient id="artilleryr1x2016" x1="0%" y1="0%" x2="0%" y2="100%">
    <stop offset="0%"   stop-color="#383850"/>
    <stop offset="14%"  stop-color="#78789a"/>
    <stop offset="36%"  stop-color="#202034"/>
    <stop offset="65%"  stop-color="#14141e"/>
    <stop offset="100%" stop-color="#0a0a12"/>
  </linearGradient>
  <!-- Energy orb — staff -->
  <radialGradient id="orbr1x2016" cx="35%" cy="35%" r="65%">
    <stop offset="0%"   stop-color="rgba(255,255,255,.9)"/>
    <stop offset="30%"  stop-color="#ccccff"/>
    <stop offset="68%"  stop-color="#242438"/>
    <stop offset="100%" stop-color="rgba(0,0,0,.6)"/>
  </radialGradient>
  <!-- Knuckle plate chrome -->
  <linearGradient id="knuckler1x2016" x1="0%" y1="0%" x2="0%" y2="100%">
    <stop offset="0%"   stop-color="#888aaa"/>
    <stop offset="32%"  stop-color="#ccccff" stop-opacity=".8"/>
    <stop offset="62%"  stop-color="#1a1a2c"/>
    <stop offset="100%" stop-color="#0a0a14"/>
  </linearGradient>

  <!-- Carbon fibre weave texture overlay -->
  <pattern id="carbonr1x2016" width="6" height="6" patternUnits="userSpaceOnUse">
    <rect width="6" height="6" fill="rgba(0,0,0,.08)"/>
    <rect x="0" y="0" width="3" height="3" fill="rgba(255,255,255,.022)"/>
    <rect x="3" y="3" width="3" height="3" fill="rgba(255,255,255,.022)"/>
    <line x1="0" y1="0" x2="3" y2="3" stroke="rgba(255,255,255,.038)" stroke-width=".5"/>
    <line x1="3" y1="0" x2="6" y2="3" stroke="rgba(0,0,0,.055)"       stroke-width=".5"/>
    <line x1="0" y1="3" x2="3" y2="6" stroke="rgba(0,0,0,.055)"       stroke-width=".5"/>
    <line x1="3" y1="3" x2="6" y2="6" stroke="rgba(255,255,255,.038)" stroke-width=".5"/>
  </pattern>

  <!-- Specular metal sheen on armour panels -->
  <filter id="metalr1x2016" x="-5%" y="-5%" width="110%" height="110%">
    <feSpecularLighting surfaceScale="4" specularConstant="1.8"
        specularExponent="42" lighting-color="#ffffff" result="spec">
      <feDistantLight elevation="52" azimuth="38"/>
    </feSpecularLighting>
    <feComposite in="spec" in2="SourceGraphic" operator="in" result="sm"/>
    <feComposite in="SourceGraphic" in2="sm" operator="arithmetic" k1="0" k2="1" k3="0.55" k4="0"/>
  </filter>

  <!-- Sharper specular for weapons — heavier glare -->
  <filter id="wmr1x2016" x="-8%" y="-8%" width="116%" height="116%">
    <feSpecularLighting surfaceScale="6" specularConstant="2.4"
        specularExponent="65" lighting-color="#ffffff" result="spec">
      <feDistantLight elevation="44" azimuth="28"/>
    </feSpecularLighting>
    <feComposite in="spec" in2="SourceGraphic" operator="in" result="sm"/>
    <feComposite in="SourceGraphic" in2="sm" operator="arithmetic" k1="0" k2="1" k3="0.78" k4="0"/>
  </filter>

  <!-- Sketch wobble -->
  <filter id="skr1x2016" x="-8%" y="-8%" width="116%" height="116%">
    <feTurbulence type="fractalNoise" baseFrequency="0.038"
        numOctaves="3" seed="76" result="noise"/>
    <feDisplacementMap in="SourceGraphic" in2="noise" scale="2.6"
        xChannelSelector="R" yChannelSelector="G" result="w"/>
    <feComposite in="w" in2="SourceGraphic" operator="atop"/>
  </filter>

  <!-- Glow: sharp accent -->
  <filter id="glowr1x2016" x="-20%" y="-20%" width="140%" height="140%">
    <feGaussianBlur stdDeviation="3.5" result="b"/>
    <feColorMatrix in="b" type="matrix"
        values="0 0 0 0 1  0 0 0 0 1  0 0 0 0 1  0 0 0 1.8 0" result="boost"/>
    <feMerge><feMergeNode in="boost"/><feMergeNode in="SourceGraphic"/></feMerge>
  </filter>

  <!-- Bloom: wide soft -->
  <filter id="bloomr1x2016" x="-40%" y="-40%" width="180%" height="180%">
    <feGaussianBlur stdDeviation="11" result="b"/>
    <feMerge><feMergeNode in="b"/><feMergeNode in="SourceGraphic"/></feMerge>
  </filter>

  </defs><rect width="1000" height="1000" fill="url(#bgr1x2016)"/><ellipse cx="500.0" cy="892.0" rx="350.0" ry="65.0" fill="rgba(0,0,0,.7)" filter="url(#bloomr1x2016)"/><ellipse cx="500.0" cy="889.0" rx="220.0" ry="34.0" fill="rgba(0,0,0,.45)"/><ellipse cx="500.0" cy="520.0" rx="320.0" ry="480.0" fill="#00e5ff" fill-opacity=".042" filter="url(#bloomr1x2016)"/><circle cx="287.9" cy="724.9" r="3.1" fill="#00e5ff" fill-opacity="0.43" filter="url(#glowr1x2016)"/><circle cx="421.7" cy="259.4" r="2.8" fill="#00e5ff" fill-opacity="0.70" filter="url(#glowr1x2016)"/><circle cx="537.5" cy="670.5" r="4.1" fill="#00e5ff" fill-opacity="0.80" filter="url(#glowr1x2016)"/><circle cx="748.0" cy="792.9" r="3.0" fill="#00e5ff" fill-opacity="0.84" filter="url(#glowr1x2016)"/><circle cx="682.3" cy="798.7" r="1.7" fill="#00e5ff" fill-opacity="0.56" filter="url(#glowr1x2016)"/><circle cx="740.1" cy="629.5" r="2.8" fill="#00e5ff" fill-opacity="0.38" filter="url(#glowr1x2016)"/><circle cx="625.9" cy="212.3" r="3.4" fill="#00e5ff" fill-opacity="0.49" filter="url(#glowr1x2016)"/><circle cx="447.0" cy="317.2" r="4.2" fill="#00e5ff" fill-opacity="0.43" filter="url(#glowr1x2016)"/><circle cx="495.6" cy="506.5" r="1.5" fill="#00e5ff" fill-opacity="0.56" filter="url(#glowr1x2016)"/><circle cx="634.3" cy="666.4" r="3.4" fill="#00e5ff" fill-opacity="0.62" filter="url(#glowr1x2016)"/><circle cx="382.0" cy="228.4" r="3.4" fill="#00e5ff" fill-opacity="0.84" filter="url(#glowr1x2016)"/><circle cx="677.5" cy="757.3" r="1.4" fill="#00e5ff" fill-opacity="0.68" filter="url(#glowr1x2016)"/><circle cx="325.6" cy="738.1" r="0.6" fill="#00e5ff" fill-opacity="0.79" filter="url(#glowr1x2016)"/><circle cx="705.3" cy="600.0" r="2.7" fill="#00e5ff" fill-opacity="0.52" filter="url(#glowr1x2016)"/><path d="M401.5,182.0 Q415.7,369.5 603.1,606.2" stroke="#00e5ff" stroke-opacity="0.41" stroke-width="1.3" fill="none" filter="url(#glowr1x2016)"/><path d="M331.2,185.0 Q301.9,494.9 547.3,766.6" stroke="#00e5ff" stroke-opacity="0.51" stroke-width="1.6" fill="none" filter="url(#glowr1x2016)"/><path d="M324.3,266.0 Q288.1,427.8 362.2,623.2" stroke="#00e5ff" stroke-opacity="0.50" stroke-width="2.6" fill="none" filter="url(#glowr1x2016)"/><path d="M554.0,235.7 Q536.3,439.5 385.4,622.3" stroke="#00e5ff" stroke-opacity="0.66" stroke-width="2.7" fill="none" filter="url(#glowr1x2016)"/><path d="M475.7,372.9 Q439.9,638.1 504.4,895.3" stroke="#00e5ff" stroke-opacity="0.44" stroke-width="2.2" fill="none" filter="url(#glowr1x2016)"/><polygon points="399.7,663.0 490.8,661.5 480.8,876.0 388.9,877.6" fill="url(#suitr1x2016)" stroke="#ccccff" stroke-width="2.2" filter="url(#skr1x2016) url(#metalr1x2016)"/><polygon points="398.2,662.9 491.0,662.8 480.5,875.7 386.5,877.6" fill="url(#carbonr1x2016)"/><polygon points="393.6,723.1 492.0,725.1 483.2,788.6 385.0,789.5" fill="url(#bevelr1x2016)" fill-opacity=".5" stroke="#ccccff" stroke-width="1.4" filter="url(#skr1x2016)"/><polygon points="509.8,660.8 602.7,662.0 614.4,876.2 519.3,876.1" fill="url(#suitr1x2016)" stroke="#ccccff" stroke-width="2.2" filter="url(#skr1x2016) url(#metalr1x2016)"/><polygon points="510.8,663.8 601.7,662.7 611.7,878.3 520.7,877.4" fill="url(#carbonr1x2016)"/><polygon points="505.6,722.1 608.9,724.5 615.7,787.1 514.5,788.5" fill="url(#bevelr1x2016)" fill-opacity=".5" stroke="#ccccff" stroke-width="1.4" filter="url(#skr1x2016)"/><rect x="391.2" y="838.2" width="100.3" height="24.7" fill="url(#bevelr1x2016)" stroke="#ccccff" stroke-width="1" filter="url(#skr1x2016)"/><rect x="506.5"  y="838.4" width="100.3" height="24.7" fill="url(#bevelr1x2016)" stroke="#ccccff" stroke-width="1" filter="url(#skr1x2016)"/><polygon points="369.4,876.0 498.1,876.9 504.5,920.4 361.5,921.9" fill="#242438" stroke="#ccccff" stroke-width="2" filter="url(#skr1x2016)"/><polygon points="502.0,878.0 631.3,876.3 636.1,920.6 495.9,923.1" fill="#242438" stroke="#ccccff" stroke-width="2" filter="url(#skr1x2016)"/><polygon points="303.9,631.4 694.4,634.7 637.5,683.5 361.7,682.6" fill="#ccccff" fill-opacity=".52" stroke="#ccccff" stroke-width="2" filter="url(#skr1x2016)"/><rect x="464.6" y="638.9" width="72.0" height="42.0" fill="url(#bevelr1x2016)" stroke="#ccccff" stroke-width="1.4" filter="url(#glowr1x2016)"/><rect x="485.2" y="640.0" width="28.0" height="22.0" rx="1" fill="rgba(255,255,255,.48)"/><polygon points="152.8,465.2 235.2,466.4 257.9,735.3 129.9,734.9" fill="url(#suitr1x2016)" stroke="#ccccff" stroke-width="2.2" filter="url(#skr1x2016) url(#metalr1x2016)"/><polygon points="174.4,433.5 254.5,431.9 242.8,510.0 159.6,512.4" fill="url(#bevelr1x2016)" fill-opacity=".72" stroke="#ccccff" stroke-width="2.2" filter="url(#skr1x2016)"/><polygon points="160.1,621.1 244.3,622.5 238.3,660.1 164.8,661.5" fill="#ccccff" fill-opacity=".42" stroke="#ccccff" stroke-width="1" filter="url(#skr1x2016)"/><polygon points="764.6,466.3 847.8,467.2 871.5,736.2 742.8,735.5" fill="url(#suitr1x2016)" stroke="#ccccff" stroke-width="2.2" filter="url(#skr1x2016) url(#metalr1x2016)"/><polygon points="745.9,433.3 827.6,431.5 841.0,510.7 758.2,511.4" fill="url(#bevelr1x2016)" fill-opacity=".72" stroke="#ccccff" stroke-width="2.2" filter="url(#skr1x2016)"/><polygon points="755.8,622.9 840.6,621.0 833.6,661.4 759.5,661.4" fill="#ccccff" fill-opacity=".42" stroke="#ccccff" stroke-width="1" filter="url(#skr1x2016)"/><rect x="120.1"  y="698.2" width="135.3" height="85.0" rx="4" fill="url(#bevelr1x2016)" stroke="#ccccff" stroke-width="1.8" filter="url(#skr1x2016)"/><rect x="748.7"   y="701.2" width="135.3" height="85.0" rx="4" fill="url(#bevelr1x2016)" stroke="#ccccff" stroke-width="1.8" filter="url(#skr1x2016)"/><line x1="150.6" y1="700.8" x2="150.8" y2="782.5" stroke="#ccccff" stroke-opacity=".38" stroke-width="1"/><line x1="776.5" y1="701.5" x2="777.8" y2="782.9" stroke="#ccccff" stroke-opacity=".38" stroke-width="1"/><line x1="184.2" y1="703.2" x2="183.3" y2="785.0" stroke="#ccccff" stroke-opacity=".38" stroke-width="1"/><line x1="810.9" y1="702.7" x2="810.7" y2="784.7" stroke="#ccccff" stroke-opacity=".38" stroke-width="1"/><line x1="215.2" y1="701.9" x2="216.7" y2="783.4" stroke="#ccccff" stroke-opacity=".38" stroke-width="1"/><line x1="842.5" y1="702.7" x2="842.3" y2="785.4" stroke="#ccccff" stroke-opacity=".38" stroke-width="1"/><polygon points="233.3,416.1 765.2,416.8 722.5,661.7 276.1,662.9" fill="url(#suitr1x2016)" stroke="#ccccff" stroke-width="2.6" filter="url(#skr1x2016) url(#metalr1x2016)"/><polygon points="236.6,418.3 765.8,418.2 722.8,664.0 277.1,662.1" fill="url(#carbonr1x2016)"/><polygon points="366.6,419.1 633.6,417.3 610.2,515.4 390.1,516.8" fill="url(#suitHir1x2016)"/><line x1="361.5" y1="470.9" x2="637.4" y2="470.0" stroke="#ccccff" stroke-opacity=".52" stroke-width="1.3" filter="url(#skr1x2016)"/><line x1="400.4" y1="549.4" x2="602.4" y2="548.1" stroke="#ccccff" stroke-opacity=".52" stroke-width="1.3" filter="url(#skr1x2016)"/><line x1="265.1" y1="491.8" x2="319.1" y2="491.7" stroke="#ccccff" stroke-opacity=".62" stroke-width="1.8"/><line x1="680.5" y1="489.6" x2="734.0" y2="491.4" stroke="#ccccff" stroke-opacity=".62" stroke-width="1.8"/><line x1="266.3" y1="524.0" x2="319.5" y2="521.9" stroke="#ccccff" stroke-opacity=".62" stroke-width="1.8"/><line x1="678.7" y1="523.0" x2="734.9" y2="522.4" stroke="#ccccff" stroke-opacity=".62" stroke-width="1.8"/><line x1="267.1" y1="554.9" x2="319.4" y2="553.1" stroke="#ccccff" stroke-opacity=".62" stroke-width="1.8"/><line x1="681.5" y1="556.2" x2="732.5" y2="553.2" stroke="#ccccff" stroke-opacity=".62" stroke-width="1.8"/><line x1="268.0" y1="586.9" x2="320.4" y2="587.8" stroke="#ccccff" stroke-opacity=".62" stroke-width="1.8"/><line x1="679.8" y1="585.2" x2="732.7" y2="587.4" stroke="#ccccff" stroke-opacity=".62" stroke-width="1.8"/><g filter="url(#glowr1x2016)"><polygon points="462.3,530.1 462.2,498.7 481.9,468.7 501.7,498.7 517.0,467.1 537.0,498.9 536.5,528.2" fill="#ccccff" stroke="#0d1520" stroke-width="1.4" filter="url(#skr1x2016)"/><polygon points="461.8,528.5 463.7,496.7 483.1,466.6 499.3,497.4 518.2,469.1 538.7,496.5 536.4,530.0" fill="url(#suitHir1x2016)" opacity=".38"/></g><g><line x1="102.6975636343844" y1="789.8327813842334" x2="84.9544116295315" y2="110.56892283745108" stroke="url(#chromer1x2016)" stroke-width="28.0" stroke-linecap="round" filter="url(#wmr1x2016)"/><line x1="98.06794566534457" y1="770.7791151787154" x2="88.16826104199511" y2="132.56394946267827" stroke="rgba(255,255,255,.42)" stroke-width="5.0" stroke-linecap="round"/><polygon points="72.8,151.4 138.9,149.8 83.0,-9.8" fill="url(#blader1x2016)" stroke="#ccccff" stroke-width="1.8" filter="url(#wmr1x2016)"/><line x1="140.2" y1="151.4" x2="84.2" y2="-8.6" stroke="rgba(255,255,255,.72)" stroke-width="1.6"/><rect x="81.80458995340389" y="420.7416787534952" width="40.0" height="20.0" fill="url(#bevelr1x2016)" stroke="#ccccff" stroke-width="1" filter="url(#wmr1x2016)"/><rect x="81.39220144556832" y="512.6910746046342" width="40.0" height="20.0" fill="url(#bevelr1x2016)" stroke="#ccccff" stroke-width="1" filter="url(#wmr1x2016)"/><rect x="82.77114617977288" y="600.6710838529281" width="40.0" height="20.0" fill="url(#bevelr1x2016)" stroke="#ccccff" stroke-width="1" filter="url(#wmr1x2016)"/><rect x="83.0031546276435" y="690.1538531775586" width="40.0" height="20.0" fill="url(#bevelr1x2016)" stroke="#ccccff" stroke-width="1" filter="url(#wmr1x2016)"/><ellipse cx="103.09379920981821" cy="790.6271720487624" rx="22.0" ry="15.0" fill="url(#bevelr1x2016)" stroke="#ccccff" stroke-width="1" filter="url(#wmr1x2016)"/></g><rect x="449.6860233971849" y="555.7836375470273" width="100.0"  height="56.0" fill="#242438" stroke="#ccccff" stroke-width="2.2" filter="url(#skr1x2016)"/><rect x="423.8178655783646" y="577.0626189041883" width="152.0" height="26.0" fill="url(#bevelr1x2016)" fill-opacity=".65" stroke="#ccccff" stroke-width="1.2" filter="url(#skr1x2016)"/><polygon points="309.6,379.6 350.6,294.9 499.2,276.9 650.2,293.9 693.0,380.3 667.3,503.9 501.7,566.0 330.7,504.6" fill="url(#suitr1x2016)" stroke="#ccccff" stroke-width="2.8" filter="url(#skr1x2016) url(#metalr1x2016)"/><polygon points="307.5,381.7 349.1,293.8 501.7,277.6 648.1,292.8 691.6,381.4 670.6,505.3 501.2,565.8 332.6,503.4" fill="url(#carbonr1x2016)"/><polygon points="382.1,303.5 498.4,286.1 618.3,304.2 605.9,381.1 391.4,379.6" fill="url(#suitHir1x2016)"/><polygon points="380.8,380.9 367.2,425.0 433.8,504.8 498.5,529.2 568.8,503.2 632.8,424.5 620.8,380.6" fill="#0d1520" fill-opacity=".88" stroke="#ccccff" stroke-width="1.8" filter="url(#skr1x2016)"/><polygon points="382.1,411.4 476.5,413.0 486.1,441.6 390.3,440.4" fill="#ccccff" filter="url(#glowr1x2016)"/><polygon points="524.0,410.4 620.7,411.5 610.8,439.5 516.5,441.6" fill="#ccccff" filter="url(#glowr1x2016)"/><ellipse cx="430.9" cy="425.7" rx="38.4"  ry="8.2" fill="#ffffff" opacity=".88"/><ellipse cx="569.1" cy="425.7" rx="38.4"  ry="8.2" fill="#ffffff" opacity=".88"/><line x1="485.55657860232515" y1="413.0996142181568" x2="516.6170387309418" y2="412.60428438540544" stroke="#ccccff" stroke-opacity=".52" stroke-width="2"/><line x1="483.3736154554039" y1="437.76319384882225" x2="516.7803491859138" y2="439.7390276416205" stroke="#ccccff" stroke-opacity=".52" stroke-width="2"/><line x1="501.5638817616738" y1="455.74557772045955" x2="499.0882628293708" y2="484.0521814728156" stroke="#ccccff" stroke-opacity=".58" stroke-width="2.2" filter="url(#skr1x2016)"/><line x1="454.6766620830447" y1="491.9200594385154" x2="454.1108318758011" y2="521.6318351708353" stroke="#ccccff" stroke-opacity=".52" stroke-width="1.5" filter="url(#skr1x2016)"/><line x1="477.82971097700295" y1="491.2738234488293" x2="475.90491077968846" y2="518.2202398084104" stroke="#ccccff" stroke-opacity=".52" stroke-width="1.5" filter="url(#skr1x2016)"/><line x1="501.58318632068114" y1="490.8326641044579" x2="500.56493226736785" y2="519.008634510357" stroke="#ccccff" stroke-opacity=".52" stroke-width="1.5" filter="url(#skr1x2016)"/><line x1="524.5305888790265" y1="490.8821255273185" x2="523.0128065236471" y2="519.8656665872783" stroke="#ccccff" stroke-opacity=".52" stroke-width="1.5" filter="url(#skr1x2016)"/><line x1="547.1283395117335" y1="492.5083582801744" x2="544.9696433482878" y2="518.3378047049977" stroke="#ccccff" stroke-opacity=".52" stroke-width="1.5" filter="url(#skr1x2016)"/><polygon points="431.1,502.1 566.5,503.8 554.3,555.3 444.9,558.0" fill="#242438" fill-opacity=".72" stroke="#ccccff" stroke-width="1.3" filter="url(#skr1x2016)"/><text x="30.0"  y="975.0" font-family="monospace" font-weight="bold" font-size="22.0" fill="rgba(255,255,255,.22)">#0001</text><text x="500.0"   y="975.0" text-anchor="middle" font-family="monospace" font-weight="bold" font-size="22.0" fill="#ccccff" fill-opacity=".48">PHANTOM RANGER</text><text x="970.0" y="975.0" text-anchor="end"    font-family="monospace" font-weight="bold" font-size="22.0" fill="#ccccff" fill-opacity=".32">MECH RANGERS</text></svg>