<svg xmlns="http://www.w3.org/2000/svg" viewBox="0 0 1000 1000" width="1000" height="1000" shape-rendering="geometricPrecision"><defs>

  <!-- Scene gradients -->
  <radialGradient id="bgr1x2025" cx="50%" cy="42%" r="72%">
    <stop offset="0%"   stop-color="#0a0a14"/>
    <stop offset="100%" stop-color="#050508"/>
  </radialGradient>
  <linearGradient id="suitr1x2025" x1="8%" y1="0%" x2="92%" y2="100%">
    <stop offset="0%"   stop-color="#ffcc00" stop-opacity=".95"/>
    <stop offset="45%"  stop-color="#a07000"/>
    <stop offset="100%" stop-color="#050508"/>
  </linearGradient>
  <linearGradient id="suitHir1x2025" x1="0%" y1="0%" x2="0%" y2="100%">
    <stop offset="0%"   stop-color="rgba(255,255,255,.28)"/>
    <stop offset="60%"  stop-color="rgba(255,255,255,.04)"/>
    <stop offset="100%" stop-color="rgba(255,255,255,0)"/>
  </linearGradient>
  <!-- Bevel: bright top, dark bottom for armour panels -->
  <linearGradient id="bevelr1x2025" x1="0%" y1="0%" x2="0%" y2="100%">
    <stop offset="0%"   stop-color="rgba(255,255,255,.55)"/>
    <stop offset="30%"  stop-color="#ffcc00"/>
    <stop offset="70%"  stop-color="#a07000"/>
    <stop offset="100%" stop-color="rgba(0,0,0,.5)"/>
  </linearGradient>

  <!-- Weapon: cold steel blade sweep -->
  <linearGradient id="blader1x2025" x1="0%" y1="0%" x2="100%" y2="0%">
    <stop offset="0%"   stop-color="#0e0e20"/>
    <stop offset="16%"  stop-color="#3e3e58"/>
    <stop offset="34%"  stop-color="#c8c8e0"/>
    <stop offset="50%"  stop-color="#f5f5ff"/>
    <stop offset="66%"  stop-color="#b8b8d0"/>
    <stop offset="84%"  stop-color="#2e2e48"/>
    <stop offset="100%" stop-color="#08080e"/>
  </linearGradient>
  <!-- Blade tip brightening -->
  <linearGradient id="bladeTipr1x2025" x1="0%" y1="100%" x2="0%" y2="0%">
    <stop offset="0%"   stop-color="rgba(255,255,255,0)"/>
    <stop offset="55%"  stop-color="rgba(255,255,255,.1)"/>
    <stop offset="100%" stop-color="rgba(255,255,255,.55)"/>
  </linearGradient>
  <!-- Gunmetal anodised — blaster body -->
  <linearGradient id="gunmetalr1x2025" x1="0%" y1="0%" x2="0%" y2="100%">
    <stop offset="0%"   stop-color="#46465e"/>
    <stop offset="18%"  stop-color="#828296"/>
    <stop offset="42%"  stop-color="#26263a"/>
    <stop offset="72%"  stop-color="#16162a"/>
    <stop offset="100%" stop-color="#0c0c18"/>
  </linearGradient>
  <!-- Brushed steel tube — barrel/rod -->
  <linearGradient id="barrelr1x2025" x1="0%" y1="0%" x2="100%" y2="0%">
    <stop offset="0%"   stop-color="#0a0a14"/>
    <stop offset="24%"  stop-color="#585875"/>
    <stop offset="50%"  stop-color="#a8a8c8"/>
    <stop offset="76%"  stop-color="#383852"/>
    <stop offset="100%" stop-color="#0a0a14"/>
  </linearGradient>
  <!-- Chrome rod — lance shaft -->
  <linearGradient id="chromer1x2025" x1="0%" y1="0%" x2="100%" y2="0%">
    <stop offset="0%"   stop-color="#0c0c18"/>
    <stop offset="20%"  stop-color="#686888"/>
    <stop offset="44%"  stop-color="#e0e0f0"/>
    <stop offset="56%"  stop-color="#c0c0d8"/>
    <stop offset="80%"  stop-color="#28283e"/>
    <stop offset="100%" stop-color="#0c0c18"/>
  </linearGradient>
  <!-- Titanium plate — shield face -->
  <linearGradient id="titaniumr1x2025" x1="0%" y1="0%" x2="100%" y2="100%">
    <stop offset="0%"   stop-color="#585878"/>
    <stop offset="28%"  stop-color="#ffcc00" stop-opacity=".88"/>
    <stop offset="55%"  stop-color="#a07000"/>
    <stop offset="80%"  stop-color="#181828"/>
    <stop offset="100%" stop-color="#0a0a18"/>
  </linearGradient>
  <!-- Artillery black-chrome — cannon body -->
  <linearGradient id="artilleryr1x2025" x1="0%" y1="0%" x2="0%" y2="100%">
    <stop offset="0%"   stop-color="#383850"/>
    <stop offset="14%"  stop-color="#78789a"/>
    <stop offset="36%"  stop-color="#202034"/>
    <stop offset="65%"  stop-color="#14141e"/>
    <stop offset="100%" stop-color="#0a0a12"/>
  </linearGradient>
  <!-- Energy orb — staff -->
  <radialGradient id="orbr1x2025" cx="35%" cy="35%" r="65%">
    <stop offset="0%"   stop-color="rgba(255,255,255,.9)"/>
    <stop offset="30%"  stop-color="#ffcc00"/>
    <stop offset="68%"  stop-color="#a07000"/>
    <stop offset="100%" stop-color="rgba(0,0,0,.6)"/>
  </radialGradient>
  <!-- Knuckle plate chrome -->
  <linearGradient id="knuckler1x2025" x1="0%" y1="0%" x2="0%" y2="100%">
    <stop offset="0%"   stop-color="#888aaa"/>
    <stop offset="32%"  stop-color="#ffcc00" stop-opacity=".8"/>
    <stop offset="62%"  stop-color="#1a1a2c"/>
    <stop offset="100%" stop-color="#0a0a14"/>
  </linearGradient>

  <!-- Carbon fibre weave texture overlay -->
  <pattern id="carbonr1x2025" width="6" height="6" patternUnits="userSpaceOnUse">
    <rect width="6" height="6" fill="rgba(0,0,0,.08)"/>
    <rect x="0" y="0" width="3" height="3" fill="rgba(255,255,255,.022)"/>
    <rect x="3" y="3" width="3" height="3" fill="rgba(255,255,255,.022)"/>
    <line x1="0" y1="0" x2="3" y2="3" stroke="rgba(255,255,255,.038)" stroke-width=".5"/>
    <line x1="3" y1="0" x2="6" y2="3" stroke="rgba(0,0,0,.055)"       stroke-width=".5"/>
    <line x1="0" y1="3" x2="3" y2="6" stroke="rgba(0,0,0,.055)"       stroke-width=".5"/>
    <line x1="3" y1="3" x2="6" y2="6" stroke="rgba(255,255,255,.038)" stroke-width=".5"/>
  </pattern>

  <!-- Specular metal sheen on armour panels -->
  <filter id="metalr1x2025" x="-5%" y="-5%" width="110%" height="110%">
    <feSpecularLighting surfaceScale="4" specularConstant="1.8"
        specularExponent="42" lighting-color="#ffffff" result="spec">
      <feDistantLight elevation="52" azimuth="38"/>
    </feSpecularLighting>
    <feComposite in="spec" in2="SourceGraphic" operator="in" result="sm"/>
    <feComposite in="SourceGraphic" in2="sm" operator="arithmetic" k1="0" k2="1" k3="0.55" k4="0"/>
  </filter>

  <!-- Sharper specular for weapons — heavier glare -->
  <filter id="wmr1x2025" x="-8%" y="-8%" width="116%" height="116%">
    <feSpecularLighting surfaceScale="6" specularConstant="2.4"
        specularExponent="65" lighting-color="#ffffff" result="spec">
      <feDistantLight elevation="44" azimuth="28"/>
    </feSpecularLighting>
    <feComposite in="spec" in2="SourceGraphic" operator="in" result="sm"/>
    <feComposite in="SourceGraphic" in2="sm" operator="arithmetic" k1="0" k2="1" k3="0.78" k4="0"/>
  </filter>

  <!-- Sketch wobble -->
  <filter id="skr1x2025" x="-8%" y="-8%" width="116%" height="116%">
    <feTurbulence type="fractalNoise" baseFrequency="0.038"
        numOctaves="3" seed="42" result="noise"/>
    <feDisplacementMap in="SourceGraphic" in2="noise" scale="2.6"
        xChannelSelector="R" yChannelSelector="G" result="w"/>
    <feComposite in="w" in2="SourceGraphic" operator="atop"/>
  </filter>

  <!-- Glow: sharp accent -->
  <filter id="glowr1x2025" x="-20%" y="-20%" width="140%" height="140%">
    <feGaussianBlur stdDeviation="3.5" result="b"/>
    <feColorMatrix in="b" type="matrix"
        values="0 0 0 0 1  0 0 0 0 1  0 0 0 0 1  0 0 0 1.8 0" result="boost"/>
    <feMerge><feMergeNode in="boost"/><feMergeNode in="SourceGraphic"/></feMerge>
  </filter>

  <!-- Bloom: wide soft -->
  <filter id="bloomr1x2025" x="-40%" y="-40%" width="180%" height="180%">
    <feGaussianBlur stdDeviation="11" result="b"/>
    <feMerge><feMergeNode in="b"/><feMergeNode in="SourceGraphic"/></feMerge>
  </filter>

  </defs><rect width="1000" height="1000" fill="url(#bgr1x2025)"/><ellipse cx="500.0" cy="892.0" rx="350.0" ry="65.0" fill="rgba(0,0,0,.7)" filter="url(#bloomr1x2025)"/><ellipse cx="500.0" cy="889.0" rx="220.0" ry="34.0" fill="rgba(0,0,0,.45)"/><ellipse cx="500.0" cy="520.0" rx="320.0" ry="480.0" fill="#00e5ff" fill-opacity=".042" filter="url(#bloomr1x2025)"/><circle cx="622.5" cy="732.1" r="4.2" fill="#00e5ff" fill-opacity="0.84" filter="url(#glowr1x2025)"/><circle cx="586.9" cy="256.5" r="3.1" fill="#00e5ff" fill-opacity="0.43" filter="url(#glowr1x2025)"/><circle cx="666.6" cy="772.5" r="3.3" fill="#00e5ff" fill-opacity="0.45" filter="url(#glowr1x2025)"/><circle cx="626.8" cy="640.5" r="1.0" fill="#00e5ff" fill-opacity="0.78" filter="url(#glowr1x2025)"/><circle cx="638.9" cy="799.2" r="1.7" fill="#00e5ff" fill-opacity="0.80" filter="url(#glowr1x2025)"/><circle cx="684.9" cy="207.3" r="1.3" fill="#00e5ff" fill-opacity="0.78" filter="url(#glowr1x2025)"/><circle cx="294.0" cy="351.9" r="2.3" fill="#00e5ff" fill-opacity="0.84" filter="url(#glowr1x2025)"/><circle cx="359.5" cy="627.1" r="3.3" fill="#00e5ff" fill-opacity="0.73" filter="url(#glowr1x2025)"/><circle cx="572.1" cy="645.0" r="3.8" fill="#00e5ff" fill-opacity="0.49" filter="url(#glowr1x2025)"/><circle cx="699.9" cy="337.4" r="1.3" fill="#00e5ff" fill-opacity="0.65" filter="url(#glowr1x2025)"/><circle cx="251.5" cy="601.8" r="1.8" fill="#00e5ff" fill-opacity="0.46" filter="url(#glowr1x2025)"/><circle cx="456.6" cy="434.0" r="1.1" fill="#00e5ff" fill-opacity="0.41" filter="url(#glowr1x2025)"/><circle cx="265.9" cy="214.4" r="0.8" fill="#00e5ff" fill-opacity="0.78" filter="url(#glowr1x2025)"/><circle cx="558.4" cy="686.0" r="1.3" fill="#00e5ff" fill-opacity="0.52" filter="url(#glowr1x2025)"/><path d="M328.0,184.9 Q286.8,542.1 417.1,866.2" stroke="#00e5ff" stroke-opacity="0.63" stroke-width="2.0" fill="none" filter="url(#glowr1x2025)"/><path d="M360.7,255.1 Q340.5,511.2 704.9,729.8" stroke="#00e5ff" stroke-opacity="0.57" stroke-width="1.3" fill="none" filter="url(#glowr1x2025)"/><path d="M706.6,373.5 Q711.5,568.2 465.1,777.4" stroke="#00e5ff" stroke-opacity="0.38" stroke-width="2.5" fill="none" filter="url(#glowr1x2025)"/><path d="M682.0,398.2 Q704.3,601.3 537.3,852.6" stroke="#00e5ff" stroke-opacity="0.68" stroke-width="1.9" fill="none" filter="url(#glowr1x2025)"/><path d="M420.5,305.2 Q386.5,495.0 544.9,731.5" stroke="#00e5ff" stroke-opacity="0.74" stroke-width="1.0" fill="none" filter="url(#glowr1x2025)"/><polygon points="399.0,662.5 489.0,664.1 480.7,879.2 385.6,876.7" fill="url(#suitr1x2025)" stroke="#ffcc00" stroke-width="2.2" filter="url(#skr1x2025) url(#metalr1x2025)"/><polygon points="397.7,664.2 489.2,662.1 479.4,877.5 386.4,876.6" fill="url(#carbonr1x2025)"/><polygon points="392.2,723.3 492.2,724.3 484.9,788.9 385.4,788.1" fill="url(#bevelr1x2025)" fill-opacity=".5" stroke="#ffcc00" stroke-width="1.4" filter="url(#skr1x2025)"/><polygon points="510.8,664.1 600.0,662.3 611.9,879.3 518.6,877.1" fill="url(#suitr1x2025)" stroke="#ffcc00" stroke-width="2.2" filter="url(#skr1x2025) url(#metalr1x2025)"/><polygon points="511.0,661.0 602.0,663.7 611.4,878.5 518.5,879.0" fill="url(#carbonr1x2025)"/><polygon points="506.8,724.3 605.8,725.0 615.1,786.6 514.8,789.4" fill="url(#bevelr1x2025)" fill-opacity=".5" stroke="#ffcc00" stroke-width="1.4" filter="url(#skr1x2025)"/><rect x="393.1" y="839.9" width="100.3" height="24.7" fill="url(#bevelr1x2025)" stroke="#ffcc00" stroke-width="1" filter="url(#skr1x2025)"/><rect x="507.6"  y="839.1" width="100.3" height="24.7" fill="url(#bevelr1x2025)" stroke="#ffcc00" stroke-width="1" filter="url(#skr1x2025)"/><polygon points="369.2,877.6 496.6,877.8 501.8,921.2 363.3,921.8" fill="#a07000" stroke="#ffcc00" stroke-width="2" filter="url(#skr1x2025)"/><polygon points="502.5,877.3 631.5,875.8 637.3,920.5 497.1,921.4" fill="#a07000" stroke="#ffcc00" stroke-width="2" filter="url(#skr1x2025)"/><polygon points="304.0,633.3 697.2,632.8 637.6,682.8 360.4,683.4" fill="#ffcc00" fill-opacity=".52" stroke="#ffcc00" stroke-width="2" filter="url(#skr1x2025)"/><rect x="463.6" y="638.1" width="72.0" height="42.0" fill="url(#bevelr1x2025)" stroke="#ffcc00" stroke-width="1.4" filter="url(#glowr1x2025)"/><rect x="485.7" y="641.0" width="28.0" height="22.0" rx="1" fill="rgba(255,255,255,.48)"/><polygon points="154.2,467.1 235.7,465.1 257.0,733.9 130.1,735.2" fill="url(#suitr1x2025)" stroke="#ffcc00" stroke-width="2.2" filter="url(#skr1x2025) url(#metalr1x2025)"/><polygon points="172.9,430.8 253.6,432.9 241.7,511.5 159.6,510.1" fill="url(#bevelr1x2025)" fill-opacity=".72" stroke="#ffcc00" stroke-width="2.2" filter="url(#skr1x2025)"/><polygon points="160.5,621.6 242.0,621.6 239.5,660.2 166.4,662.0" fill="#ffcc00" fill-opacity=".42" stroke="#ffcc00" stroke-width="1" filter="url(#skr1x2025)"/><polygon points="766.0,467.9 847.4,465.1 872.0,733.4 742.2,734.5" fill="url(#suitr1x2025)" stroke="#ffcc00" stroke-width="2.2" filter="url(#skr1x2025) url(#metalr1x2025)"/><polygon points="748.3,431.1 827.6,433.9 839.5,509.7 755.6,509.9" fill="url(#bevelr1x2025)" fill-opacity=".72" stroke="#ffcc00" stroke-width="2.2" filter="url(#skr1x2025)"/><polygon points="756.4,623.1 839.2,621.3 836.0,660.6 760.5,662.0" fill="#ffcc00" fill-opacity=".42" stroke="#ffcc00" stroke-width="1" filter="url(#skr1x2025)"/><rect x="119.2"  y="700.2" width="135.3" height="85.0" rx="4" fill="url(#bevelr1x2025)" stroke="#ffcc00" stroke-width="1.8" filter="url(#skr1x2025)"/><rect x="749.3"   y="699.1" width="135.3" height="85.0" rx="4" fill="url(#bevelr1x2025)" stroke="#ffcc00" stroke-width="1.8" filter="url(#skr1x2025)"/><line x1="150.4" y1="701.7" x2="148.1" y2="785.6" stroke="#ffcc00" stroke-opacity=".38" stroke-width="1"/><line x1="779.0" y1="700.2" x2="777.9" y2="784.4" stroke="#ffcc00" stroke-opacity=".38" stroke-width="1"/><line x1="182.2" y1="702.4" x2="181.4" y2="783.5" stroke="#ffcc00" stroke-opacity=".38" stroke-width="1"/><line x1="809.2" y1="702.0" x2="810.1" y2="784.2" stroke="#ffcc00" stroke-opacity=".38" stroke-width="1"/><line x1="214.5" y1="702.0" x2="215.8" y2="783.5" stroke="#ffcc00" stroke-opacity=".38" stroke-width="1"/><line x1="844.2" y1="700.1" x2="843.9" y2="782.4" stroke="#ffcc00" stroke-opacity=".38" stroke-width="1"/><polygon points="233.4,419.2 764.0,417.7 721.7,664.2 278.3,662.9" fill="url(#suitr1x2025)" stroke="#ffcc00" stroke-width="2.6" filter="url(#skr1x2025) url(#metalr1x2025)"/><polygon points="234.2,418.1 765.7,418.3 721.4,661.7 276.6,663.9" fill="url(#carbonr1x2025)"/><polygon points="369.3,417.9 632.7,417.4 611.5,513.8 387.4,516.2" fill="url(#suitHir1x2025)"/><line x1="362.8" y1="472.0" x2="636.6" y2="469.8" stroke="#ffcc00" stroke-opacity=".52" stroke-width="1.3" filter="url(#skr1x2025)"/><line x1="398.6" y1="551.5" x2="602.5" y2="548.0" stroke="#ffcc00" stroke-opacity=".52" stroke-width="1.3" filter="url(#skr1x2025)"/><line x1="268.6" y1="492.4" x2="320.9" y2="490.7" stroke="#ffcc00" stroke-opacity=".62" stroke-width="1.8"/><line x1="680.4" y1="492.4" x2="732.0" y2="491.5" stroke="#ffcc00" stroke-opacity=".62" stroke-width="1.8"/><line x1="267.3" y1="522.9" x2="321.3" y2="524.2" stroke="#ffcc00" stroke-opacity=".62" stroke-width="1.8"/><line x1="678.8" y1="524.4" x2="733.8" y2="523.6" stroke="#ffcc00" stroke-opacity=".62" stroke-width="1.8"/><line x1="267.7" y1="553.2" x2="319.6" y2="555.8" stroke="#ffcc00" stroke-opacity=".62" stroke-width="1.8"/><line x1="681.3" y1="554.2" x2="732.5" y2="553.4" stroke="#ffcc00" stroke-opacity=".62" stroke-width="1.8"/><line x1="267.6" y1="586.9" x2="320.6" y2="585.0" stroke="#ffcc00" stroke-opacity=".62" stroke-width="1.8"/><line x1="679.2" y1="588.3" x2="732.0" y2="587.3" stroke="#ffcc00" stroke-opacity=".62" stroke-width="1.8"/><g filter="url(#glowr1x2025)"><path d="M500.0,449.7 C462.3,446.8 442.0,481.6 447.8,513.5 L459.4,542.5 C476.8,536.7 491.3,551.2 500.0,551.2 C508.7,551.2 523.2,536.7 540.6,542.5 L552.2,513.5 C558.0,481.6 537.7,446.8 500.0,449.7 Z" fill="#ffcc00" fill-opacity=".92" stroke="#050508" stroke-width="1.3" filter="url(#skr1x2025)"/><path d="M483.8,519.3 Q500.0,533.8 516.2,519.3" stroke="#050508" stroke-width="1" fill="none" opacity=".58"/><ellipse cx="481.4" cy="497.8" rx="8.7" ry="6.4" fill="#050508" opacity=".95"/><ellipse cx="518.6" cy="497.8" rx="8.7" ry="6.4" fill="#050508" opacity=".95"/><ellipse cx="481.4" cy="497.8" rx="2.3" ry="5.8" fill="#ffcc00"/><ellipse cx="518.6" cy="497.8" rx="2.3" ry="5.8" fill="#ffcc00"/><path d="M471.0,467.1 L458.2,426.5 L481.4,463.0" fill="#ffcc00" stroke="#050508" stroke-width=".9"/><path d="M529.0,467.1 L541.8,426.5 L518.6,463.0" fill="#ffcc00" stroke="#050508" stroke-width=".9"/><path d="M476.8,452.6 C488.4,449.1 511.6,449.1 523.2,452.6" fill="rgba(255,255,255,.18)"/></g><g><rect x="114.6" y="700.6" width="137.8" height="88.0" rx="5" fill="url(#bevelr1x2025)" stroke="#ffcc00" stroke-width="2" filter="url(#wmr1x2025)"/><rect x="115.1" y="703.5" width="137.8" height="88.0" rx="5" fill="url(#carbonr1x2025)"/><rect x="748.5"  y="701.1" width="137.8" height="88.0" rx="5" fill="url(#bevelr1x2025)" stroke="#ffcc00" stroke-width="2" filter="url(#wmr1x2025)"/><rect x="750.3"  y="703.4" width="137.8" height="88.0" rx="5" fill="url(#carbonr1x2025)"/><rect x="122.7" y="699.0" width="23.0" height="22.0" rx="2" fill="url(#knuckler1x2025)" stroke="#ffcc00" stroke-width=".8" filter="url(#wmr1x2025)"/><rect x="754.0" y="700.3" width="23.0" height="22.0" rx="2" fill="url(#knuckler1x2025)" stroke="#ffcc00" stroke-width=".8" filter="url(#wmr1x2025)"/><rect x="150.7" y="700.7" width="23.0" height="22.0" rx="2" fill="url(#knuckler1x2025)" stroke="#ffcc00" stroke-width=".8" filter="url(#wmr1x2025)"/><rect x="786.0" y="698.5" width="23.0" height="22.0" rx="2" fill="url(#knuckler1x2025)" stroke="#ffcc00" stroke-width=".8" filter="url(#wmr1x2025)"/><rect x="180.0" y="700.7" width="23.0" height="22.0" rx="2" fill="url(#knuckler1x2025)" stroke="#ffcc00" stroke-width=".8" filter="url(#wmr1x2025)"/><rect x="814.3" y="699.3" width="23.0" height="22.0" rx="2" fill="url(#knuckler1x2025)" stroke="#ffcc00" stroke-width=".8" filter="url(#wmr1x2025)"/><rect x="210.4" y="700.5" width="23.0" height="22.0" rx="2" fill="url(#knuckler1x2025)" stroke="#ffcc00" stroke-width=".8" filter="url(#wmr1x2025)"/><rect x="842.1" y="698.4" width="23.0" height="22.0" rx="2" fill="url(#knuckler1x2025)" stroke="#ffcc00" stroke-width=".8" filter="url(#wmr1x2025)"/><ellipse cx="183.99570343675092" cy="711.1321578765101" rx="45.1" ry="30.0" fill="#ffcc00" fill-opacity=".25" filter="url(#glowr1x2025)"/><ellipse cx="817.9557623879239" cy="712.4141934736444" rx="45.1" ry="30.0" fill="#ffcc00" fill-opacity=".25" filter="url(#glowr1x2025)"/></g><rect x="451.23397098826246" y="558.2220254677347" width="100.0"  height="56.0" fill="#a07000" stroke="#ffcc00" stroke-width="2.2" filter="url(#skr1x2025)"/><rect x="424.85919368425385" y="575.9339665041306" width="152.0" height="26.0" fill="url(#bevelr1x2025)" fill-opacity=".65" stroke="#ffcc00" stroke-width="1.2" filter="url(#skr1x2025)"/><polygon points="307.6,379.6 348.9,295.0 500.1,277.6 651.0,295.8 692.4,379.1 670.5,504.7 498.4,566.7 331.4,503.2" fill="url(#suitr1x2025)" stroke="#ffcc00" stroke-width="2.8" filter="url(#skr1x2025) url(#metalr1x2025)"/><polygon points="309.2,381.4 348.6,292.9 501.8,279.0 651.1,293.1 690.3,379.2 667.5,504.4 498.8,565.9 329.6,502.6" fill="url(#carbonr1x2025)"/><polygon points="382.7,301.6 501.5,286.9 620.1,302.4 608.7,379.9 391.7,380.1" fill="url(#suitHir1x2025)"/><polygon points="380.8,381.9 363.9,426.9 434.1,503.8 501.5,528.7 567.0,502.6 634.4,426.4 617.3,379.6" fill="#050508" fill-opacity=".88" stroke="#ffcc00" stroke-width="1.8" filter="url(#skr1x2025)"/><polygon points="382.2,412.7 478.3,411.6 483.9,441.3 388.0,441.4" fill="#ffcc00" filter="url(#glowr1x2025)"/><polygon points="522.4,412.3 619.9,411.3 610.5,440.7 517.1,439.6" fill="#ffcc00" filter="url(#glowr1x2025)"/><ellipse cx="430.9" cy="425.7" rx="38.4"  ry="8.2" fill="#ffffff" opacity=".88"/><ellipse cx="569.1" cy="425.7" rx="38.4"  ry="8.2" fill="#ffffff" opacity=".88"/><line x1="483.113326428514" y1="413.44690126357597" x2="515.1203297466412" y2="413.67007557693864" stroke="#ffcc00" stroke-opacity=".52" stroke-width="2"/><line x1="483.4360999300703" y1="438.89186076214537" x2="515.2616732383519" y2="436.3346654165536" stroke="#ffcc00" stroke-opacity=".52" stroke-width="2"/><line x1="499.1421277873218" y1="454.04771949611603" x2="499.3588103108108" y2="481.4759782817215" stroke="#ffcc00" stroke-opacity=".58" stroke-width="2.2" filter="url(#skr1x2025)"/><line x1="454.6899791384861" y1="490.9170791397802" x2="455.12590226855133" y2="519.7011612467468" stroke="#ffcc00" stroke-opacity=".52" stroke-width="1.5" filter="url(#skr1x2025)"/><line x1="478.7239647901058" y1="490.6307231727056" x2="478.41161001766096" y2="519.0459402223117" stroke="#ffcc00" stroke-opacity=".52" stroke-width="1.5" filter="url(#skr1x2025)"/><line x1="499.09373892955483" y1="489.8915049365721" x2="498.2268560259603" y2="520.7970097326673" stroke="#ffcc00" stroke-opacity=".52" stroke-width="1.5" filter="url(#skr1x2025)"/><line x1="522.8796731941029" y1="491.6209931056946" x2="522.1063593062199" y2="520.4505234029144" stroke="#ffcc00" stroke-opacity=".52" stroke-width="1.5" filter="url(#skr1x2025)"/><line x1="546.2650179555826" y1="492.0349221562035" x2="544.3188554814272" y2="519.7604134365916" stroke="#ffcc00" stroke-opacity=".52" stroke-width="1.5" filter="url(#skr1x2025)"/><polygon points="433.4,504.0 567.5,502.0 552.1,557.7 447.4,557.8" fill="#a07000" fill-opacity=".72" stroke="#ffcc00" stroke-width="1.3" filter="url(#skr1x2025)"/><polygon points="478.7,301.4 524.0,301.4 511.9,174.6 486.8,174.2" fill="url(#bevelr1x2025)" stroke="#ffcc00" stroke-width="2.2" filter="url(#skr1x2025)"/><polygon points="367.0,321.7 456.4,324.8 467.6,227.5" fill="url(#bevelr1x2025)" fill-opacity=".78" stroke="#ffcc00" stroke-width="1.5" filter="url(#skr1x2025)"/><polygon points="543.5,323.0 636.0,324.6 532.5,227.7" fill="url(#bevelr1x2025)" fill-opacity=".78" stroke="#ffcc00" stroke-width="1.5" filter="url(#skr1x2025)"/><text x="30.0"  y="975.0" font-family="monospace" font-weight="bold" font-size="22.0" fill="rgba(255,255,255,.22)">#0001</text><text x="500.0"   y="975.0" text-anchor="middle" font-family="monospace" font-weight="bold" font-size="22.0" fill="#ffcc00" fill-opacity=".48">NOVA RANGER</text><text x="970.0" y="975.0" text-anchor="end"    font-family="monospace" font-weight="bold" font-size="22.0" fill="#ffcc00" fill-opacity=".32">MECH RANGERS</text></svg>