<svg xmlns="http://www.w3.org/2000/svg" viewBox="0 0 1000 1000" width="1000" height="1000" shape-rendering="geometricPrecision"><defs>

  <!-- Scene gradients -->
  <radialGradient id="bgr1x2028" cx="50%" cy="42%" r="72%">
    <stop offset="0%"   stop-color="#0e000e"/>
    <stop offset="100%" stop-color="#1e0600"/>
  </radialGradient>
  <linearGradient id="suitr1x2028" x1="8%" y1="0%" x2="92%" y2="100%">
    <stop offset="0%"   stop-color="#ffcc00" stop-opacity=".95"/>
    <stop offset="45%"  stop-color="#a07000"/>
    <stop offset="100%" stop-color="#1e0600"/>
  </linearGradient>
  <linearGradient id="suitHir1x2028" x1="0%" y1="0%" x2="0%" y2="100%">
    <stop offset="0%"   stop-color="rgba(255,255,255,.28)"/>
    <stop offset="60%"  stop-color="rgba(255,255,255,.04)"/>
    <stop offset="100%" stop-color="rgba(255,255,255,0)"/>
  </linearGradient>
  <!-- Bevel: bright top, dark bottom for armour panels -->
  <linearGradient id="bevelr1x2028" x1="0%" y1="0%" x2="0%" y2="100%">
    <stop offset="0%"   stop-color="rgba(255,255,255,.55)"/>
    <stop offset="30%"  stop-color="#ffcc00"/>
    <stop offset="70%"  stop-color="#a07000"/>
    <stop offset="100%" stop-color="rgba(0,0,0,.5)"/>
  </linearGradient>

  <!-- Weapon: cold steel blade sweep -->
  <linearGradient id="blader1x2028" x1="0%" y1="0%" x2="100%" y2="0%">
    <stop offset="0%"   stop-color="#0e0e20"/>
    <stop offset="16%"  stop-color="#3e3e58"/>
    <stop offset="34%"  stop-color="#c8c8e0"/>
    <stop offset="50%"  stop-color="#f5f5ff"/>
    <stop offset="66%"  stop-color="#b8b8d0"/>
    <stop offset="84%"  stop-color="#2e2e48"/>
    <stop offset="100%" stop-color="#08080e"/>
  </linearGradient>
  <!-- Blade tip brightening -->
  <linearGradient id="bladeTipr1x2028" x1="0%" y1="100%" x2="0%" y2="0%">
    <stop offset="0%"   stop-color="rgba(255,255,255,0)"/>
    <stop offset="55%"  stop-color="rgba(255,255,255,.1)"/>
    <stop offset="100%" stop-color="rgba(255,255,255,.55)"/>
  </linearGradient>
  <!-- Gunmetal anodised — blaster body -->
  <linearGradient id="gunmetalr1x2028" x1="0%" y1="0%" x2="0%" y2="100%">
    <stop offset="0%"   stop-color="#46465e"/>
    <stop offset="18%"  stop-color="#828296"/>
    <stop offset="42%"  stop-color="#26263a"/>
    <stop offset="72%"  stop-color="#16162a"/>
    <stop offset="100%" stop-color="#0c0c18"/>
  </linearGradient>
  <!-- Brushed steel tube — barrel/rod -->
  <linearGradient id="barrelr1x2028" x1="0%" y1="0%" x2="100%" y2="0%">
    <stop offset="0%"   stop-color="#0a0a14"/>
    <stop offset="24%"  stop-color="#585875"/>
    <stop offset="50%"  stop-color="#a8a8c8"/>
    <stop offset="76%"  stop-color="#383852"/>
    <stop offset="100%" stop-color="#0a0a14"/>
  </linearGradient>
  <!-- Chrome rod — lance shaft -->
  <linearGradient id="chromer1x2028" x1="0%" y1="0%" x2="100%" y2="0%">
    <stop offset="0%"   stop-color="#0c0c18"/>
    <stop offset="20%"  stop-color="#686888"/>
    <stop offset="44%"  stop-color="#e0e0f0"/>
    <stop offset="56%"  stop-color="#c0c0d8"/>
    <stop offset="80%"  stop-color="#28283e"/>
    <stop offset="100%" stop-color="#0c0c18"/>
  </linearGradient>
  <!-- Titanium plate — shield face -->
  <linearGradient id="titaniumr1x2028" x1="0%" y1="0%" x2="100%" y2="100%">
    <stop offset="0%"   stop-color="#585878"/>
    <stop offset="28%"  stop-color="#ffcc00" stop-opacity=".88"/>
    <stop offset="55%"  stop-color="#a07000"/>
    <stop offset="80%"  stop-color="#181828"/>
    <stop offset="100%" stop-color="#0a0a18"/>
  </linearGradient>
  <!-- Artillery black-chrome — cannon body -->
  <linearGradient id="artilleryr1x2028" x1="0%" y1="0%" x2="0%" y2="100%">
    <stop offset="0%"   stop-color="#383850"/>
    <stop offset="14%"  stop-color="#78789a"/>
    <stop offset="36%"  stop-color="#202034"/>
    <stop offset="65%"  stop-color="#14141e"/>
    <stop offset="100%" stop-color="#0a0a12"/>
  </linearGradient>
  <!-- Energy orb — staff -->
  <radialGradient id="orbr1x2028" cx="35%" cy="35%" r="65%">
    <stop offset="0%"   stop-color="rgba(255,255,255,.9)"/>
    <stop offset="30%"  stop-color="#ffcc00"/>
    <stop offset="68%"  stop-color="#a07000"/>
    <stop offset="100%" stop-color="rgba(0,0,0,.6)"/>
  </radialGradient>
  <!-- Knuckle plate chrome -->
  <linearGradient id="knuckler1x2028" x1="0%" y1="0%" x2="0%" y2="100%">
    <stop offset="0%"   stop-color="#888aaa"/>
    <stop offset="32%"  stop-color="#ffcc00" stop-opacity=".8"/>
    <stop offset="62%"  stop-color="#1a1a2c"/>
    <stop offset="100%" stop-color="#0a0a14"/>
  </linearGradient>

  <!-- Carbon fibre weave texture overlay -->
  <pattern id="carbonr1x2028" width="6" height="6" patternUnits="userSpaceOnUse">
    <rect width="6" height="6" fill="rgba(0,0,0,.08)"/>
    <rect x="0" y="0" width="3" height="3" fill="rgba(255,255,255,.022)"/>
    <rect x="3" y="3" width="3" height="3" fill="rgba(255,255,255,.022)"/>
    <line x1="0" y1="0" x2="3" y2="3" stroke="rgba(255,255,255,.038)" stroke-width=".5"/>
    <line x1="3" y1="0" x2="6" y2="3" stroke="rgba(0,0,0,.055)"       stroke-width=".5"/>
    <line x1="0" y1="3" x2="3" y2="6" stroke="rgba(0,0,0,.055)"       stroke-width=".5"/>
    <line x1="3" y1="3" x2="6" y2="6" stroke="rgba(255,255,255,.038)" stroke-width=".5"/>
  </pattern>

  <!-- Specular metal sheen on armour panels -->
  <filter id="metalr1x2028" x="-5%" y="-5%" width="110%" height="110%">
    <feSpecularLighting surfaceScale="4" specularConstant="1.8"
        specularExponent="42" lighting-color="#ffffff" result="spec">
      <feDistantLight elevation="52" azimuth="38"/>
    </feSpecularLighting>
    <feComposite in="spec" in2="SourceGraphic" operator="in" result="sm"/>
    <feComposite in="SourceGraphic" in2="sm" operator="arithmetic" k1="0" k2="1" k3="0.55" k4="0"/>
  </filter>

  <!-- Sharper specular for weapons — heavier glare -->
  <filter id="wmr1x2028" x="-8%" y="-8%" width="116%" height="116%">
    <feSpecularLighting surfaceScale="6" specularConstant="2.4"
        specularExponent="65" lighting-color="#ffffff" result="spec">
      <feDistantLight elevation="44" azimuth="28"/>
    </feSpecularLighting>
    <feComposite in="spec" in2="SourceGraphic" operator="in" result="sm"/>
    <feComposite in="SourceGraphic" in2="sm" operator="arithmetic" k1="0" k2="1" k3="0.78" k4="0"/>
  </filter>

  <!-- Sketch wobble -->
  <filter id="skr1x2028" x="-8%" y="-8%" width="116%" height="116%">
    <feTurbulence type="fractalNoise" baseFrequency="0.038"
        numOctaves="3" seed="20" result="noise"/>
    <feDisplacementMap in="SourceGraphic" in2="noise" scale="2.6"
        xChannelSelector="R" yChannelSelector="G" result="w"/>
    <feComposite in="w" in2="SourceGraphic" operator="atop"/>
  </filter>

  <!-- Glow: sharp accent -->
  <filter id="glowr1x2028" x="-20%" y="-20%" width="140%" height="140%">
    <feGaussianBlur stdDeviation="3.5" result="b"/>
    <feColorMatrix in="b" type="matrix"
        values="0 0 0 0 1  0 0 0 0 1  0 0 0 0 1  0 0 0 1.8 0" result="boost"/>
    <feMerge><feMergeNode in="boost"/><feMergeNode in="SourceGraphic"/></feMerge>
  </filter>

  <!-- Bloom: wide soft -->
  <filter id="bloomr1x2028" x="-40%" y="-40%" width="180%" height="180%">
    <feGaussianBlur stdDeviation="11" result="b"/>
    <feMerge><feMergeNode in="b"/><feMergeNode in="SourceGraphic"/></feMerge>
  </filter>

  </defs><rect width="1000" height="1000" fill="url(#bgr1x2028)"/><ellipse cx="500.0" cy="1000" rx="850.0" ry="350.0" fill="#ff4500" fill-opacity=".11" filter="url(#bloomr1x2028)"/><ellipse cx="500.0" cy="892.0" rx="350.0" ry="65.0" fill="rgba(0,0,0,.7)" filter="url(#bloomr1x2028)"/><ellipse cx="500.0" cy="889.0" rx="220.0" ry="34.0" fill="rgba(0,0,0,.45)"/><ellipse cx="500.0" cy="520.0" rx="320.0" ry="480.0" fill="#00e5ff" fill-opacity=".042" filter="url(#bloomr1x2028)"/><circle cx="562.1" cy="663.6" r="2.4" fill="#00e5ff" fill-opacity="0.62" filter="url(#glowr1x2028)"/><circle cx="619.6" cy="642.9" r="1.9" fill="#00e5ff" fill-opacity="0.86" filter="url(#glowr1x2028)"/><circle cx="733.5" cy="457.0" r="4.1" fill="#00e5ff" fill-opacity="0.64" filter="url(#glowr1x2028)"/><circle cx="500.2" cy="639.5" r="1.3" fill="#00e5ff" fill-opacity="0.58" filter="url(#glowr1x2028)"/><circle cx="573.2" cy="246.8" r="4.1" fill="#00e5ff" fill-opacity="0.80" filter="url(#glowr1x2028)"/><circle cx="602.8" cy="408.3" r="2.6" fill="#00e5ff" fill-opacity="0.65" filter="url(#glowr1x2028)"/><circle cx="374.7" cy="665.6" r="0.6" fill="#00e5ff" fill-opacity="0.62" filter="url(#glowr1x2028)"/><circle cx="477.1" cy="766.6" r="1.3" fill="#00e5ff" fill-opacity="0.45" filter="url(#glowr1x2028)"/><circle cx="292.6" cy="568.7" r="2.5" fill="#00e5ff" fill-opacity="0.43" filter="url(#glowr1x2028)"/><circle cx="407.6" cy="423.7" r="3.2" fill="#00e5ff" fill-opacity="0.80" filter="url(#glowr1x2028)"/><circle cx="738.4" cy="254.9" r="0.8" fill="#00e5ff" fill-opacity="0.50" filter="url(#glowr1x2028)"/><circle cx="579.3" cy="521.4" r="1.0" fill="#00e5ff" fill-opacity="0.57" filter="url(#glowr1x2028)"/><circle cx="581.0" cy="500.9" r="3.4" fill="#00e5ff" fill-opacity="0.47" filter="url(#glowr1x2028)"/><circle cx="348.5" cy="662.2" r="0.7" fill="#00e5ff" fill-opacity="0.43" filter="url(#glowr1x2028)"/><path d="M524.4,273.5 Q540.9,574.8 347.1,846.8" stroke="#00e5ff" stroke-opacity="0.39" stroke-width="2.0" fill="none" filter="url(#glowr1x2028)"/><path d="M670.2,156.3 Q709.2,469.0 477.2,820.9" stroke="#00e5ff" stroke-opacity="0.70" stroke-width="2.4" fill="none" filter="url(#glowr1x2028)"/><path d="M522.3,267.6 Q486.5,490.2 355.7,660.9" stroke="#00e5ff" stroke-opacity="0.67" stroke-width="1.2" fill="none" filter="url(#glowr1x2028)"/><path d="M499.9,263.2 Q480.9,452.5 598.3,642.5" stroke="#00e5ff" stroke-opacity="0.44" stroke-width="0.8" fill="none" filter="url(#glowr1x2028)"/><path d="M302.2,305.4 Q304.7,555.8 642.2,770.8" stroke="#00e5ff" stroke-opacity="0.74" stroke-width="1.3" fill="none" filter="url(#glowr1x2028)"/><polygon points="400.2,663.1 488.7,662.7 480.5,878.6 387.9,878.5" fill="url(#suitr1x2028)" stroke="#ffcc00" stroke-width="2.2" filter="url(#skr1x2028) url(#metalr1x2028)"/><polygon points="399.1,661.4 489.1,661.6 482.0,875.7 387.6,876.8" fill="url(#carbonr1x2028)"/><polygon points="393.2,724.9 493.9,722.0 484.2,787.8 385.5,786.7" fill="url(#bevelr1x2028)" fill-opacity=".5" stroke="#ffcc00" stroke-width="1.4" filter="url(#skr1x2028)"/><polygon points="509.7,663.2 599.5,662.0 612.6,879.2 519.0,877.6" fill="url(#suitr1x2028)" stroke="#ffcc00" stroke-width="2.2" filter="url(#skr1x2028) url(#metalr1x2028)"/><polygon points="510.2,662.4 600.2,664.0 612.4,877.8 520.0,878.9" fill="url(#carbonr1x2028)"/><polygon points="507.9,724.5 605.8,723.9 617.4,788.7 517.0,787.2" fill="url(#bevelr1x2028)" fill-opacity=".5" stroke="#ffcc00" stroke-width="1.4" filter="url(#skr1x2028)"/><rect x="391.2" y="838.4" width="100.3" height="24.7" fill="url(#bevelr1x2028)" stroke="#ffcc00" stroke-width="1" filter="url(#skr1x2028)"/><rect x="506.6"  y="837.3" width="100.3" height="24.7" fill="url(#bevelr1x2028)" stroke="#ffcc00" stroke-width="1" filter="url(#skr1x2028)"/><polygon points="368.5,877.4 495.3,878.7 502.4,921.2 362.3,920.9" fill="#a07000" stroke="#ffcc00" stroke-width="2" filter="url(#skr1x2028)"/><polygon points="504.1,878.8 628.5,877.8 636.9,922.3 496.3,922.0" fill="#a07000" stroke="#ffcc00" stroke-width="2" filter="url(#skr1x2028)"/><polygon points="303.9,631.6 694.6,632.1 638.7,680.5 361.2,680.8" fill="#ffcc00" fill-opacity=".52" stroke="#ffcc00" stroke-width="2" filter="url(#skr1x2028)"/><rect x="463.6" y="639.8" width="72.0" height="42.0" fill="url(#bevelr1x2028)" stroke="#ffcc00" stroke-width="1.4" filter="url(#glowr1x2028)"/><rect x="487.7" y="641.8" width="28.0" height="22.0" rx="1" fill="rgba(255,255,255,.48)"/><polygon points="151.9,467.0 233.2,465.0 258.0,736.0 127.7,736.0" fill="url(#suitr1x2028)" stroke="#ffcc00" stroke-width="2.2" filter="url(#skr1x2028) url(#metalr1x2028)"/><polygon points="173.8,432.7 254.2,432.8 242.0,511.4 158.8,508.9" fill="url(#bevelr1x2028)" fill-opacity=".72" stroke="#ffcc00" stroke-width="2.2" filter="url(#skr1x2028)"/><polygon points="162.9,622.4 242.9,620.3 240.5,661.9 164.2,662.0" fill="#ffcc00" fill-opacity=".42" stroke="#ffcc00" stroke-width="1" filter="url(#skr1x2028)"/><polygon points="764.8,466.5 848.5,467.7 872.5,733.9 742.2,734.2" fill="url(#suitr1x2028)" stroke="#ffcc00" stroke-width="2.2" filter="url(#skr1x2028) url(#metalr1x2028)"/><polygon points="745.9,430.7 826.9,431.6 839.1,511.6 758.4,511.5" fill="url(#bevelr1x2028)" fill-opacity=".72" stroke="#ffcc00" stroke-width="2.2" filter="url(#skr1x2028)"/><polygon points="755.4,621.5 838.5,622.9 833.1,659.6 760.1,660.2" fill="#ffcc00" fill-opacity=".42" stroke="#ffcc00" stroke-width="1" filter="url(#skr1x2028)"/><rect x="119.7"  y="699.4" width="135.3" height="85.0" rx="4" fill="url(#bevelr1x2028)" stroke="#ffcc00" stroke-width="1.8" filter="url(#skr1x2028)"/><rect x="747.1"   y="698.6" width="135.3" height="85.0" rx="4" fill="url(#bevelr1x2028)" stroke="#ffcc00" stroke-width="1.8" filter="url(#skr1x2028)"/><line x1="151.4" y1="701.0" x2="149.0" y2="785.2" stroke="#ffcc00" stroke-opacity=".38" stroke-width="1"/><line x1="777.8" y1="702.9" x2="779.7" y2="782.3" stroke="#ffcc00" stroke-opacity=".38" stroke-width="1"/><line x1="182.1" y1="700.6" x2="181.0" y2="782.1" stroke="#ffcc00" stroke-opacity=".38" stroke-width="1"/><line x1="812.6" y1="700.4" x2="810.6" y2="783.3" stroke="#ffcc00" stroke-opacity=".38" stroke-width="1"/><line x1="214.4" y1="702.9" x2="214.7" y2="785.3" stroke="#ffcc00" stroke-opacity=".38" stroke-width="1"/><line x1="844.2" y1="701.9" x2="842.3" y2="783.5" stroke="#ffcc00" stroke-opacity=".38" stroke-width="1"/><polygon points="236.0,417.1 765.1,419.0 720.8,662.1 278.9,663.8" fill="url(#suitr1x2028)" stroke="#ffcc00" stroke-width="2.6" filter="url(#skr1x2028) url(#metalr1x2028)"/><polygon points="235.3,417.0 764.4,419.0 723.5,662.6 277.1,663.2" fill="url(#carbonr1x2028)"/><polygon points="367.7,416.4 631.6,419.0 609.6,516.5 387.5,514.5" fill="url(#suitHir1x2028)"/><line x1="361.3" y1="473.0" x2="636.2" y2="471.1" stroke="#ffcc00" stroke-opacity=".52" stroke-width="1.3" filter="url(#skr1x2028)"/><line x1="398.1" y1="549.4" x2="601.9" y2="550.8" stroke="#ffcc00" stroke-opacity=".52" stroke-width="1.3" filter="url(#skr1x2028)"/><line x1="268.4" y1="492.3" x2="321.1" y2="489.2" stroke="#ffcc00" stroke-opacity=".62" stroke-width="1.8"/><line x1="680.7" y1="491.6" x2="732.4" y2="492.0" stroke="#ffcc00" stroke-opacity=".62" stroke-width="1.8"/><line x1="268.3" y1="522.3" x2="319.0" y2="523.6" stroke="#ffcc00" stroke-opacity=".62" stroke-width="1.8"/><line x1="679.0" y1="522.9" x2="732.6" y2="523.3" stroke="#ffcc00" stroke-opacity=".62" stroke-width="1.8"/><line x1="267.1" y1="554.2" x2="318.9" y2="554.1" stroke="#ffcc00" stroke-opacity=".62" stroke-width="1.8"/><line x1="680.5" y1="554.5" x2="732.6" y2="554.4" stroke="#ffcc00" stroke-opacity=".62" stroke-width="1.8"/><line x1="266.2" y1="585.2" x2="321.3" y2="584.9" stroke="#ffcc00" stroke-opacity=".62" stroke-width="1.8"/><line x1="680.8" y1="587.6" x2="733.1" y2="587.2" stroke="#ffcc00" stroke-opacity=".62" stroke-width="1.8"/><g filter="url(#glowr1x2028)"><polygon points="501.6,452.2 514.5,490.0 555.5,492.8 524.2,517.0 534.0,557.6 501.4,536.1 467.4,557.2 475.9,519.4 444.6,493.4 484.9,488.6 " fill="#ffcc00" stroke="#1e0600" stroke-width="1.4" filter="url(#skr1x2028)"/><polygon points="501.6,452.2 514.5,490.0 555.5,492.8 524.2,517.0 534.0,557.6 501.4,536.1 467.4,557.2 475.9,519.4 444.6,493.4 484.9,488.6 " fill="url(#suitHir1x2028)" opacity=".45"/></g><g><rect x="33.042490567397294" y="420.84266418945043" width="148.0" height="82.0" rx="5" fill="url(#gunmetalr1x2028)" stroke="#ffcc00" stroke-width="2" filter="url(#wmr1x2028)"/><rect x="34.50781799875197" y="421.85149320252236" width="148.0" height="82.0" rx="5" fill="url(#carbonr1x2028)"/><rect x="42.13142411060628" y="401.8328870657831" width="90.0" height="22.0" rx="3" fill="url(#barrelr1x2028)" stroke="#ffcc00" stroke-width="1" filter="url(#wmr1x2028)"/><circle cx="82.64341426672411" cy="415.30355366626753" r="15.0" fill="#ffcc00" opacity=".8" filter="url(#glowr1x2028)"/><circle cx="80.74458797382188" cy="414.42394647710023" r="6.0" fill="rgba(255,255,255,.9)"/><rect x="53.94442152654749" y="453.94145523654294" width="78.0" height="36.0" rx="5" fill="url(#barrelr1x2028)" stroke="#ffcc00" stroke-width="1.2" filter="url(#wmr1x2028)"/><circle cx="-21.3634606413171" cy="472.67236993256955" r="18.0" fill="#ffcc00" filter="url(#glowr1x2028)" opacity=".88"/><circle cx="-18.339196837376836" cy="472.1041148516349" r="7.0" fill="#ffffff"/><rect x="78.67850449163464" y="501.48019131384785" width="44.0" height="42.0" rx="3" fill="url(#gunmetalr1x2028)" stroke="#ffcc00" stroke-width="1" filter="url(#wmr1x2028)"/><rect x="35.63304043881592" y="422.0092732737772" width="90.0" height="10.0" rx="2" fill="rgba(255,255,255,.22)"/><line x1="62.869653474111075" y1="485.5582151606679" x2="62.635645488873095" y2="520.1109015612863" stroke="#ffcc00" stroke-opacity=".5" stroke-width="1.2"/><line x1="76.64912407299501" y1="485.2857299734838" x2="76.6861753849685" y2="519.7097568317316" stroke="#ffcc00" stroke-opacity=".5" stroke-width="1.2"/><line x1="93.33640286041421" y1="485.7229942759499" x2="92.94679279470813" y2="520.0176164900884" stroke="#ffcc00" stroke-opacity=".5" stroke-width="1.2"/></g><rect x="451.0260045636445" y="555.8296408246271" width="100.0"  height="56.0" fill="#a07000" stroke="#ffcc00" stroke-width="2.2" filter="url(#skr1x2028)"/><rect x="425.0674400434829" y="574.2064857429825" width="152.0" height="26.0" fill="url(#bevelr1x2028)" fill-opacity=".65" stroke="#ffcc00" stroke-width="1.2" filter="url(#skr1x2028)"/><polygon points="309.6,380.0 349.6,293.9 499.2,278.9 648.7,295.4 690.6,382.4 670.5,502.8 501.5,565.3 330.8,503.9" fill="url(#suitr1x2028)" stroke="#ffcc00" stroke-width="2.8" filter="url(#skr1x2028) url(#metalr1x2028)"/><polygon points="307.1,380.0 351.6,294.2 498.7,277.0 648.5,293.2 693.3,379.2 669.8,503.6 500.2,564.5 330.0,503.1" fill="url(#carbonr1x2028)"/><polygon points="381.7,302.6 499.8,287.1 617.7,302.5 606.2,380.1 392.2,380.0" fill="url(#suitHir1x2028)"/><polygon points="382.5,379.9 365.2,426.0 431.5,501.8 501.7,529.4 565.6,505.0 632.8,426.8 618.0,379.1" fill="#1e0600" fill-opacity=".88" stroke="#ffcc00" stroke-width="1.8" filter="url(#skr1x2028)"/><polygon points="379.3,412.1 475.7,411.3 486.3,439.1 388.7,441.8" fill="#ffcc00" filter="url(#glowr1x2028)"/><polygon points="522.4,413.0 619.6,410.4 612.4,441.2 516.8,440.3" fill="#ffcc00" filter="url(#glowr1x2028)"/><ellipse cx="430.9" cy="425.7" rx="38.4"  ry="8.2" fill="#ffffff" opacity=".88"/><ellipse cx="569.1" cy="425.7" rx="38.4"  ry="8.2" fill="#ffffff" opacity=".88"/><line x1="483.16079035164785" y1="411.75905595012006" x2="515.5235617930442" y2="415.12808565041047" stroke="#ffcc00" stroke-opacity=".52" stroke-width="2"/><line x1="485.19169212846083" y1="439.2519071739167" x2="514.1254722723179" y2="438.0369835685939" stroke="#ffcc00" stroke-opacity=".52" stroke-width="2"/><line x1="501.59267570544034" y1="456.1249710617587" x2="499.61567941894754" y2="481.8314812904224" stroke="#ffcc00" stroke-opacity=".58" stroke-width="2.2" filter="url(#skr1x2028)"/><line x1="454.8159915643558" y1="492.0436078958213" x2="455.4091135408543" y2="520.6004739943892" stroke="#ffcc00" stroke-opacity=".52" stroke-width="1.5" filter="url(#skr1x2028)"/><line x1="477.79305949857456" y1="493.0204957733862" x2="475.299670971781" y2="519.6575387992896" stroke="#ffcc00" stroke-opacity=".52" stroke-width="1.5" filter="url(#skr1x2028)"/><line x1="500.3719228544272" y1="489.8430648813024" x2="500.0830041858368" y2="521.6645046174526" stroke="#ffcc00" stroke-opacity=".52" stroke-width="1.5" filter="url(#skr1x2028)"/><line x1="521.5606262649968" y1="489.9473519346676" x2="521.9594297001697" y2="518.3367438527755" stroke="#ffcc00" stroke-opacity=".52" stroke-width="1.5" filter="url(#skr1x2028)"/><line x1="545.9629445890151" y1="490.9724978888407" x2="546.8733323905803" y2="519.1434338303283" stroke="#ffcc00" stroke-opacity=".52" stroke-width="1.5" filter="url(#skr1x2028)"/><polygon points="431.8,505.2 565.5,502.3 554.4,557.4 444.7,555.2" fill="#a07000" fill-opacity=".72" stroke="#ffcc00" stroke-width="1.3" filter="url(#skr1x2028)"/><path d="M473.09696830118077 311.8122447728179 C304.68068385519086 148.12508495049548 419.32689485618846 240.19728848543016 500.6520974260755 312.00946068745105" fill="#ffcc00" fill-opacity=".92" stroke="#ffcc00" stroke-width="2.2" filter="url(#skr1x2028)"/><path d="M474.12950958169995 309.7976532885805 C302.38127837566657 145.71606627218424 418.08059657694776 241.41528760800136 499.1468391888775 309.1813955452293" fill="url(#suitHir1x2028)" opacity=".28"/><path d="M527.0815892664901 311.6718262635171 C696.117130522579 146.0323607436381 581.6443923577293 240.19501515571028 498.38096802197396 312.40312773007895" fill="#ffcc00" fill-opacity=".92" stroke="#ffcc00" stroke-width="2.2" filter="url(#skr1x2028)"/><path d="M527.5269204198569 309.92769522722807 C697.5781976781414 146.5125722139142 581.8560441283137 241.50633618962019 500.01941436110064 309.8459014292806" fill="url(#suitHir1x2028)" opacity=".28"/><text x="30.0"  y="975.0" font-family="monospace" font-weight="bold" font-size="22.0" fill="rgba(255,255,255,.22)">#0001</text><text x="500.0"   y="975.0" text-anchor="middle" font-family="monospace" font-weight="bold" font-size="22.0" fill="#ffcc00" fill-opacity=".48">NOVA RANGER</text><text x="970.0" y="975.0" text-anchor="end"    font-family="monospace" font-weight="bold" font-size="22.0" fill="#ffcc00" fill-opacity=".32">MECH RANGERS</text></svg>