<svg xmlns="http://www.w3.org/2000/svg" viewBox="0 0 1000 1000" width="1000" height="1000" shape-rendering="geometricPrecision"><defs>

  <!-- Scene gradients -->
  <radialGradient id="bgr1x2082" cx="50%" cy="42%" r="72%">
    <stop offset="0%"   stop-color="#0e000e"/>
    <stop offset="100%" stop-color="#1e0600"/>
  </radialGradient>
  <linearGradient id="suitr1x2082" x1="8%" y1="0%" x2="92%" y2="100%">
    <stop offset="0%"   stop-color="#2060ff" stop-opacity=".95"/>
    <stop offset="45%"  stop-color="#003ccc"/>
    <stop offset="100%" stop-color="#1e0600"/>
  </linearGradient>
  <linearGradient id="suitHir1x2082" x1="0%" y1="0%" x2="0%" y2="100%">
    <stop offset="0%"   stop-color="rgba(255,255,255,.28)"/>
    <stop offset="60%"  stop-color="rgba(255,255,255,.04)"/>
    <stop offset="100%" stop-color="rgba(255,255,255,0)"/>
  </linearGradient>
  <!-- Bevel: bright top, dark bottom for armour panels -->
  <linearGradient id="bevelr1x2082" x1="0%" y1="0%" x2="0%" y2="100%">
    <stop offset="0%"   stop-color="rgba(255,255,255,.55)"/>
    <stop offset="30%"  stop-color="#2060ff"/>
    <stop offset="70%"  stop-color="#003ccc"/>
    <stop offset="100%" stop-color="rgba(0,0,0,.5)"/>
  </linearGradient>

  <!-- Weapon: cold steel blade sweep -->
  <linearGradient id="blader1x2082" x1="0%" y1="0%" x2="100%" y2="0%">
    <stop offset="0%"   stop-color="#0e0e20"/>
    <stop offset="16%"  stop-color="#3e3e58"/>
    <stop offset="34%"  stop-color="#c8c8e0"/>
    <stop offset="50%"  stop-color="#f5f5ff"/>
    <stop offset="66%"  stop-color="#b8b8d0"/>
    <stop offset="84%"  stop-color="#2e2e48"/>
    <stop offset="100%" stop-color="#08080e"/>
  </linearGradient>
  <!-- Blade tip brightening -->
  <linearGradient id="bladeTipr1x2082" x1="0%" y1="100%" x2="0%" y2="0%">
    <stop offset="0%"   stop-color="rgba(255,255,255,0)"/>
    <stop offset="55%"  stop-color="rgba(255,255,255,.1)"/>
    <stop offset="100%" stop-color="rgba(255,255,255,.55)"/>
  </linearGradient>
  <!-- Gunmetal anodised — blaster body -->
  <linearGradient id="gunmetalr1x2082" x1="0%" y1="0%" x2="0%" y2="100%">
    <stop offset="0%"   stop-color="#46465e"/>
    <stop offset="18%"  stop-color="#828296"/>
    <stop offset="42%"  stop-color="#26263a"/>
    <stop offset="72%"  stop-color="#16162a"/>
    <stop offset="100%" stop-color="#0c0c18"/>
  </linearGradient>
  <!-- Brushed steel tube — barrel/rod -->
  <linearGradient id="barrelr1x2082" x1="0%" y1="0%" x2="100%" y2="0%">
    <stop offset="0%"   stop-color="#0a0a14"/>
    <stop offset="24%"  stop-color="#585875"/>
    <stop offset="50%"  stop-color="#a8a8c8"/>
    <stop offset="76%"  stop-color="#383852"/>
    <stop offset="100%" stop-color="#0a0a14"/>
  </linearGradient>
  <!-- Chrome rod — lance shaft -->
  <linearGradient id="chromer1x2082" x1="0%" y1="0%" x2="100%" y2="0%">
    <stop offset="0%"   stop-color="#0c0c18"/>
    <stop offset="20%"  stop-color="#686888"/>
    <stop offset="44%"  stop-color="#e0e0f0"/>
    <stop offset="56%"  stop-color="#c0c0d8"/>
    <stop offset="80%"  stop-color="#28283e"/>
    <stop offset="100%" stop-color="#0c0c18"/>
  </linearGradient>
  <!-- Titanium plate — shield face -->
  <linearGradient id="titaniumr1x2082" x1="0%" y1="0%" x2="100%" y2="100%">
    <stop offset="0%"   stop-color="#585878"/>
    <stop offset="28%"  stop-color="#2060ff" stop-opacity=".88"/>
    <stop offset="55%"  stop-color="#003ccc"/>
    <stop offset="80%"  stop-color="#181828"/>
    <stop offset="100%" stop-color="#0a0a18"/>
  </linearGradient>
  <!-- Artillery black-chrome — cannon body -->
  <linearGradient id="artilleryr1x2082" x1="0%" y1="0%" x2="0%" y2="100%">
    <stop offset="0%"   stop-color="#383850"/>
    <stop offset="14%"  stop-color="#78789a"/>
    <stop offset="36%"  stop-color="#202034"/>
    <stop offset="65%"  stop-color="#14141e"/>
    <stop offset="100%" stop-color="#0a0a12"/>
  </linearGradient>
  <!-- Energy orb — staff -->
  <radialGradient id="orbr1x2082" cx="35%" cy="35%" r="65%">
    <stop offset="0%"   stop-color="rgba(255,255,255,.9)"/>
    <stop offset="30%"  stop-color="#2060ff"/>
    <stop offset="68%"  stop-color="#003ccc"/>
    <stop offset="100%" stop-color="rgba(0,0,0,.6)"/>
  </radialGradient>
  <!-- Knuckle plate chrome -->
  <linearGradient id="knuckler1x2082" x1="0%" y1="0%" x2="0%" y2="100%">
    <stop offset="0%"   stop-color="#888aaa"/>
    <stop offset="32%"  stop-color="#2060ff" stop-opacity=".8"/>
    <stop offset="62%"  stop-color="#1a1a2c"/>
    <stop offset="100%" stop-color="#0a0a14"/>
  </linearGradient>

  <!-- Carbon fibre weave texture overlay -->
  <pattern id="carbonr1x2082" width="6" height="6" patternUnits="userSpaceOnUse">
    <rect width="6" height="6" fill="rgba(0,0,0,.08)"/>
    <rect x="0" y="0" width="3" height="3" fill="rgba(255,255,255,.022)"/>
    <rect x="3" y="3" width="3" height="3" fill="rgba(255,255,255,.022)"/>
    <line x1="0" y1="0" x2="3" y2="3" stroke="rgba(255,255,255,.038)" stroke-width=".5"/>
    <line x1="3" y1="0" x2="6" y2="3" stroke="rgba(0,0,0,.055)"       stroke-width=".5"/>
    <line x1="0" y1="3" x2="3" y2="6" stroke="rgba(0,0,0,.055)"       stroke-width=".5"/>
    <line x1="3" y1="3" x2="6" y2="6" stroke="rgba(255,255,255,.038)" stroke-width=".5"/>
  </pattern>

  <!-- Specular metal sheen on armour panels -->
  <filter id="metalr1x2082" x="-5%" y="-5%" width="110%" height="110%">
    <feSpecularLighting surfaceScale="4" specularConstant="1.8"
        specularExponent="42" lighting-color="#ffffff" result="spec">
      <feDistantLight elevation="52" azimuth="38"/>
    </feSpecularLighting>
    <feComposite in="spec" in2="SourceGraphic" operator="in" result="sm"/>
    <feComposite in="SourceGraphic" in2="sm" operator="arithmetic" k1="0" k2="1" k3="0.55" k4="0"/>
  </filter>

  <!-- Sharper specular for weapons — heavier glare -->
  <filter id="wmr1x2082" x="-8%" y="-8%" width="116%" height="116%">
    <feSpecularLighting surfaceScale="6" specularConstant="2.4"
        specularExponent="65" lighting-color="#ffffff" result="spec">
      <feDistantLight elevation="44" azimuth="28"/>
    </feSpecularLighting>
    <feComposite in="spec" in2="SourceGraphic" operator="in" result="sm"/>
    <feComposite in="SourceGraphic" in2="sm" operator="arithmetic" k1="0" k2="1" k3="0.78" k4="0"/>
  </filter>

  <!-- Sketch wobble -->
  <filter id="skr1x2082" x="-8%" y="-8%" width="116%" height="116%">
    <feTurbulence type="fractalNoise" baseFrequency="0.038"
        numOctaves="3" seed="74" result="noise"/>
    <feDisplacementMap in="SourceGraphic" in2="noise" scale="2.6"
        xChannelSelector="R" yChannelSelector="G" result="w"/>
    <feComposite in="w" in2="SourceGraphic" operator="atop"/>
  </filter>

  <!-- Glow: sharp accent -->
  <filter id="glowr1x2082" x="-20%" y="-20%" width="140%" height="140%">
    <feGaussianBlur stdDeviation="3.5" result="b"/>
    <feColorMatrix in="b" type="matrix"
        values="0 0 0 0 1  0 0 0 0 1  0 0 0 0 1  0 0 0 1.8 0" result="boost"/>
    <feMerge><feMergeNode in="boost"/><feMergeNode in="SourceGraphic"/></feMerge>
  </filter>

  <!-- Bloom: wide soft -->
  <filter id="bloomr1x2082" x="-40%" y="-40%" width="180%" height="180%">
    <feGaussianBlur stdDeviation="11" result="b"/>
    <feMerge><feMergeNode in="b"/><feMergeNode in="SourceGraphic"/></feMerge>
  </filter>

  </defs><rect width="1000" height="1000" fill="url(#bgr1x2082)"/><ellipse cx="500.0" cy="1000" rx="850.0" ry="350.0" fill="#ff4500" fill-opacity=".11" filter="url(#bloomr1x2082)"/><ellipse cx="500.0" cy="892.0" rx="350.0" ry="65.0" fill="rgba(0,0,0,.7)" filter="url(#bloomr1x2082)"/><ellipse cx="500.0" cy="889.0" rx="220.0" ry="34.0" fill="rgba(0,0,0,.45)"/><ellipse cx="500.0" cy="520.0" rx="320.0" ry="480.0" fill="#6600ff" fill-opacity=".042" filter="url(#bloomr1x2082)"/><circle cx="335.4" cy="418.2" r="4.1" fill="#6600ff" fill-opacity="0.52" filter="url(#glowr1x2082)"/><circle cx="284.8" cy="343.4" r="1.8" fill="#6600ff" fill-opacity="0.78" filter="url(#glowr1x2082)"/><circle cx="594.3" cy="744.5" r="2.9" fill="#6600ff" fill-opacity="0.85" filter="url(#glowr1x2082)"/><circle cx="499.0" cy="571.5" r="3.9" fill="#6600ff" fill-opacity="0.71" filter="url(#glowr1x2082)"/><circle cx="529.1" cy="649.8" r="3.7" fill="#6600ff" fill-opacity="0.88" filter="url(#glowr1x2082)"/><circle cx="434.0" cy="546.8" r="0.9" fill="#6600ff" fill-opacity="0.75" filter="url(#glowr1x2082)"/><circle cx="690.8" cy="541.2" r="0.7" fill="#6600ff" fill-opacity="0.51" filter="url(#glowr1x2082)"/><circle cx="583.4" cy="460.4" r="2.3" fill="#6600ff" fill-opacity="0.60" filter="url(#glowr1x2082)"/><circle cx="430.4" cy="608.4" r="2.1" fill="#6600ff" fill-opacity="0.88" filter="url(#glowr1x2082)"/><circle cx="657.7" cy="368.2" r="0.8" fill="#6600ff" fill-opacity="0.64" filter="url(#glowr1x2082)"/><circle cx="435.6" cy="642.5" r="1.8" fill="#6600ff" fill-opacity="0.41" filter="url(#glowr1x2082)"/><circle cx="525.8" cy="608.4" r="0.5" fill="#6600ff" fill-opacity="0.67" filter="url(#glowr1x2082)"/><circle cx="329.9" cy="230.6" r="3.1" fill="#6600ff" fill-opacity="0.66" filter="url(#glowr1x2082)"/><circle cx="381.1" cy="363.6" r="1.7" fill="#6600ff" fill-opacity="0.80" filter="url(#glowr1x2082)"/><polygon points="399.4,662.7 490.5,663.6 480.4,877.5 388.0,876.9" fill="url(#suitr1x2082)" stroke="#2060ff" stroke-width="2.2" filter="url(#skr1x2082) url(#metalr1x2082)"/><polygon points="397.2,663.2 490.1,662.2 482.0,878.0 389.1,876.5" fill="url(#carbonr1x2082)"/><polygon points="393.0,723.9 494.3,724.6 482.9,789.9 382.8,786.6" fill="url(#bevelr1x2082)" fill-opacity=".5" stroke="#2060ff" stroke-width="1.4" filter="url(#skr1x2082)"/><polygon points="510.6,662.0 600.5,663.7 611.3,876.2 520.5,878.1" fill="url(#suitr1x2082)" stroke="#2060ff" stroke-width="2.2" filter="url(#skr1x2082) url(#metalr1x2082)"/><polygon points="509.0,662.3 601.0,663.8 611.2,878.8 520.8,878.7" fill="url(#carbonr1x2082)"/><polygon points="507.3,725.2 609.1,724.1 616.7,788.2 514.8,788.1" fill="url(#bevelr1x2082)" fill-opacity=".5" stroke="#2060ff" stroke-width="1.4" filter="url(#skr1x2082)"/><rect x="392.6" y="837.1" width="100.3" height="24.7" fill="url(#bevelr1x2082)" stroke="#2060ff" stroke-width="1" filter="url(#skr1x2082)"/><rect x="508.3"  y="837.3" width="100.3" height="24.7" fill="url(#bevelr1x2082)" stroke="#2060ff" stroke-width="1" filter="url(#skr1x2082)"/><polygon points="371.5,876.0 497.2,876.0 503.6,921.1 363.9,920.5" fill="#003ccc" stroke="#2060ff" stroke-width="2" filter="url(#skr1x2082)"/><polygon points="502.7,878.3 631.6,876.8 638.7,919.9 498.2,921.8" fill="#003ccc" stroke="#2060ff" stroke-width="2" filter="url(#skr1x2082)"/><polygon points="305.5,632.0 697.1,634.8 636.3,680.5 363.0,682.5" fill="#2060ff" fill-opacity=".52" stroke="#2060ff" stroke-width="2" filter="url(#skr1x2082)"/><rect x="465.1" y="637.2" width="72.0" height="42.0" fill="url(#bevelr1x2082)" stroke="#2060ff" stroke-width="1.4" filter="url(#glowr1x2082)"/><rect x="486.2" y="642.0" width="28.0" height="22.0" rx="1" fill="rgba(255,255,255,.48)"/><polygon points="153.4,466.8 236.7,464.9 259.6,736.4 128.3,735.2" fill="url(#suitr1x2082)" stroke="#2060ff" stroke-width="2.2" filter="url(#skr1x2082) url(#metalr1x2082)"/><polygon points="172.0,433.5 254.1,433.1 245.0,512.1 161.2,511.6" fill="url(#bevelr1x2082)" fill-opacity=".72" stroke="#2060ff" stroke-width="2.2" filter="url(#skr1x2082)"/><polygon points="161.0,620.4 244.2,620.1 239.2,660.0 164.6,660.0" fill="#2060ff" fill-opacity=".42" stroke="#2060ff" stroke-width="1" filter="url(#skr1x2082)"/><polygon points="764.3,467.8 846.6,468.1 870.7,735.4 742.9,734.7" fill="url(#suitr1x2082)" stroke="#2060ff" stroke-width="2.2" filter="url(#skr1x2082) url(#metalr1x2082)"/><polygon points="746.9,433.2 826.5,431.0 839.7,511.8 756.9,510.8" fill="url(#bevelr1x2082)" fill-opacity=".72" stroke="#2060ff" stroke-width="2.2" filter="url(#skr1x2082)"/><polygon points="758.5,621.2 838.3,623.0 836.2,659.2 760.6,662.3" fill="#2060ff" fill-opacity=".42" stroke="#2060ff" stroke-width="1" filter="url(#skr1x2082)"/><rect x="119.6"  y="701.4" width="135.3" height="85.0" rx="4" fill="url(#bevelr1x2082)" stroke="#2060ff" stroke-width="1.8" filter="url(#skr1x2082)"/><rect x="747.4"   y="699.0" width="135.3" height="85.0" rx="4" fill="url(#bevelr1x2082)" stroke="#2060ff" stroke-width="1.8" filter="url(#skr1x2082)"/><line x1="149.2" y1="700.9" x2="148.5" y2="782.7" stroke="#2060ff" stroke-opacity=".38" stroke-width="1"/><line x1="777.4" y1="700.1" x2="778.2" y2="785.2" stroke="#2060ff" stroke-opacity=".38" stroke-width="1"/><line x1="184.2" y1="703.5" x2="182.1" y2="785.0" stroke="#2060ff" stroke-opacity=".38" stroke-width="1"/><line x1="809.1" y1="701.9" x2="812.1" y2="785.2" stroke="#2060ff" stroke-opacity=".38" stroke-width="1"/><line x1="214.1" y1="701.6" x2="213.8" y2="785.4" stroke="#2060ff" stroke-opacity=".38" stroke-width="1"/><line x1="842.1" y1="701.1" x2="844.1" y2="785.3" stroke="#2060ff" stroke-opacity=".38" stroke-width="1"/><polygon points="235.9,416.0 765.7,418.3 721.7,662.8 275.7,661.1" fill="url(#suitr1x2082)" stroke="#2060ff" stroke-width="2.6" filter="url(#skr1x2082) url(#metalr1x2082)"/><polygon points="234.0,416.8 766.7,417.7 723.7,662.0 276.0,662.4" fill="url(#carbonr1x2082)"/><polygon points="367.0,416.3 631.7,417.7 611.5,514.4 387.2,515.2" fill="url(#suitHir1x2082)"/><line x1="361.2" y1="473.2" x2="636.0" y2="472.9" stroke="#2060ff" stroke-opacity=".52" stroke-width="1.3" filter="url(#skr1x2082)"/><line x1="398.5" y1="548.0" x2="600.5" y2="550.0" stroke="#2060ff" stroke-opacity=".52" stroke-width="1.3" filter="url(#skr1x2082)"/><line x1="265.6" y1="492.0" x2="319.3" y2="491.0" stroke="#2060ff" stroke-opacity=".62" stroke-width="1.8"/><line x1="680.9" y1="492.6" x2="734.2" y2="492.1" stroke="#2060ff" stroke-opacity=".62" stroke-width="1.8"/><line x1="265.8" y1="521.6" x2="318.4" y2="524.2" stroke="#2060ff" stroke-opacity=".62" stroke-width="1.8"/><line x1="678.7" y1="522.7" x2="734.9" y2="521.7" stroke="#2060ff" stroke-opacity=".62" stroke-width="1.8"/><line x1="267.2" y1="555.9" x2="320.9" y2="556.0" stroke="#2060ff" stroke-opacity=".62" stroke-width="1.8"/><line x1="681.3" y1="555.8" x2="732.2" y2="553.9" stroke="#2060ff" stroke-opacity=".62" stroke-width="1.8"/><line x1="268.3" y1="588.3" x2="319.3" y2="584.8" stroke="#2060ff" stroke-opacity=".62" stroke-width="1.8"/><line x1="678.7" y1="586.6" x2="731.4" y2="587.7" stroke="#2060ff" stroke-opacity=".62" stroke-width="1.8"/><g filter="url(#glowr1x2082)"><polygon points="498.8,452.8 516.5,488.9 556.5,491.1 523.6,517.0 535.4,557.7 500.0,535.7 466.4,556.8 474.5,519.0 443.8,491.6 485.1,489.2 " fill="#2060ff" stroke="#1e0600" stroke-width="1.4" filter="url(#skr1x2082)"/><polygon points="498.8,452.8 516.5,488.9 556.5,491.1 523.6,517.0 535.4,557.7 500.0,535.7 466.4,556.8 474.5,519.0 443.8,491.6 485.1,489.2 " fill="url(#suitHir1x2082)" opacity=".45"/></g><g><polygon points="827.9,294.4 967.1,293.3 968.9,592.0 899.6,725.0 826.2,592.7" fill="url(#titaniumr1x2082)" stroke="#2060ff" stroke-width="2.6" filter="url(#wmr1x2082)"/><polygon points="828.0,294.6 966.3,294.4 967.2,593.2 896.8,727.6 828.4,590.2" fill="url(#carbonr1x2082)"/><polygon points="858.4,361.2 934.7,361.8 934.3,542.6 897.7,631.7 858.1,542.0" fill="#2060ff" fill-opacity=".28" stroke="#2060ff" stroke-width="1.5"/><line x1="845.9714382354729" y1="432.07984274681655" x2="948.449322388377" y2="430.10257638199255" stroke="#2060ff" stroke-opacity=".65" stroke-width="1.3"/><line x1="897.9685017019139" y1="332.99927277285605" x2="897.8419340026193" y2="590.3670339363626" stroke="#2060ff" stroke-opacity=".4" stroke-width="1"/><line x1="828.9211148990877" y1="295.4046747551299" x2="966.4525068559311" y2="296.2034329687245" stroke="rgba(255,255,255,.5)" stroke-width="2"/><circle cx="899.3749363904446" cy="430.33838808154684" r="18.0" fill="url(#bevelr1x2082)" stroke="#2060ff" stroke-width="1.2" filter="url(#wmr1x2082)"/></g><rect x="449.5214640336111" y="558.270910972543" width="100.0"  height="56.0" fill="#003ccc" stroke="#2060ff" stroke-width="2.2" filter="url(#skr1x2082)"/><rect x="425.5134833610617" y="576.7410603594966" width="152.0" height="26.0" fill="url(#bevelr1x2082)" fill-opacity=".65" stroke="#2060ff" stroke-width="1.2" filter="url(#skr1x2082)"/><polygon points="307.1,379.7 350.0,293.6 501.7,279.0 648.0,296.2 691.7,382.1 669.5,501.8 499.5,566.2 332.0,505.4" fill="url(#suitr1x2082)" stroke="#2060ff" stroke-width="2.8" filter="url(#skr1x2082) url(#metalr1x2082)"/><polygon points="307.1,381.3 350.5,296.2 499.5,279.1 648.4,293.4 691.6,379.3 668.8,502.6 498.3,564.5 332.6,503.9" fill="url(#carbonr1x2082)"/><polygon points="380.2,304.1 500.9,286.6 620.1,303.9 606.9,379.7 391.3,380.2" fill="url(#suitHir1x2082)"/><polygon points="380.0,381.4 367.0,427.3 433.7,502.6 499.4,528.9 568.3,503.1 635.3,424.2 619.7,382.0" fill="#1e0600" fill-opacity=".88" stroke="#2060ff" stroke-width="1.8" filter="url(#skr1x2082)"/><polygon points="380.0,412.5 477.3,411.8 484.2,441.3 390.1,439.7" fill="#2060ff" filter="url(#glowr1x2082)"/><polygon points="523.7,411.6 619.8,411.0 610.9,441.2 514.8,441.5" fill="#2060ff" filter="url(#glowr1x2082)"/><ellipse cx="430.9" cy="425.7" rx="38.4"  ry="8.2" fill="#ffffff" opacity=".88"/><ellipse cx="569.1" cy="425.7" rx="38.4"  ry="8.2" fill="#ffffff" opacity=".88"/><line x1="485.0667365876585" y1="412.60960058737544" x2="513.6636860960535" y2="412.2436884745024" stroke="#2060ff" stroke-opacity=".52" stroke-width="2"/><line x1="485.93497336726637" y1="438.04649559790266" x2="515.6397743332573" y2="438.907621356938" stroke="#2060ff" stroke-opacity=".52" stroke-width="2"/><line x1="499.978735042084" y1="454.93211320210247" x2="500.1183912550099" y2="481.7235486137681" stroke="#2060ff" stroke-opacity=".58" stroke-width="2.2" filter="url(#skr1x2082)"/><line x1="455.00704273002225" y1="492.391055074986" x2="454.0649401294813" y2="518.7341762600466" stroke="#2060ff" stroke-opacity=".52" stroke-width="1.5" filter="url(#skr1x2082)"/><line x1="477.20547934643923" y1="490.9526102896779" x2="475.7589300444722" y2="519.5390183640644" stroke="#2060ff" stroke-opacity=".52" stroke-width="1.5" filter="url(#skr1x2082)"/><line x1="501.54668810283766" y1="491.78579961638894" x2="499.49452281063424" y2="519.46254465729" stroke="#2060ff" stroke-opacity=".52" stroke-width="1.5" filter="url(#skr1x2082)"/><line x1="521.8999440047517" y1="492.78366980655113" x2="522.9862189365178" y2="520.669831117522" stroke="#2060ff" stroke-opacity=".52" stroke-width="1.5" filter="url(#skr1x2082)"/><line x1="547.8026326524281" y1="489.7224570713937" x2="544.6056136306562" y2="519.8647425377742" stroke="#2060ff" stroke-opacity=".52" stroke-width="1.5" filter="url(#skr1x2082)"/><polygon points="432.2,505.2 567.1,504.7 552.2,555.3 445.6,555.6" fill="#003ccc" fill-opacity=".72" stroke="#2060ff" stroke-width="1.3" filter="url(#skr1x2082)"/><text x="30.0"  y="975.0" font-family="monospace" font-weight="bold" font-size="22.0" fill="rgba(255,255,255,.22)">#0001</text><text x="500.0"   y="975.0" text-anchor="middle" font-family="monospace" font-weight="bold" font-size="22.0" fill="#2060ff" fill-opacity=".48">COBALT RANGER</text><text x="970.0" y="975.0" text-anchor="end"    font-family="monospace" font-weight="bold" font-size="22.0" fill="#2060ff" fill-opacity=".32">MECH RANGERS</text></svg>