<svg xmlns="http://www.w3.org/2000/svg" viewBox="0 0 1000 1000" width="1000" height="1000" shape-rendering="geometricPrecision"><defs>

  <!-- Scene gradients -->
  <radialGradient id="bgr1x2124" cx="50%" cy="42%" r="72%">
    <stop offset="0%"   stop-color="#1e0a2e"/>
    <stop offset="100%" stop-color="#0a0520"/>
  </radialGradient>
  <linearGradient id="suitr1x2124" x1="8%" y1="0%" x2="92%" y2="100%">
    <stop offset="0%"   stop-color="#4444ff" stop-opacity=".95"/>
    <stop offset="45%"  stop-color="#141428"/>
    <stop offset="100%" stop-color="#0a0520"/>
  </linearGradient>
  <linearGradient id="suitHir1x2124" x1="0%" y1="0%" x2="0%" y2="100%">
    <stop offset="0%"   stop-color="rgba(255,255,255,.28)"/>
    <stop offset="60%"  stop-color="rgba(255,255,255,.04)"/>
    <stop offset="100%" stop-color="rgba(255,255,255,0)"/>
  </linearGradient>
  <!-- Bevel: bright top, dark bottom for armour panels -->
  <linearGradient id="bevelr1x2124" x1="0%" y1="0%" x2="0%" y2="100%">
    <stop offset="0%"   stop-color="rgba(255,255,255,.55)"/>
    <stop offset="30%"  stop-color="#4444ff"/>
    <stop offset="70%"  stop-color="#141428"/>
    <stop offset="100%" stop-color="rgba(0,0,0,.5)"/>
  </linearGradient>

  <!-- Weapon: cold steel blade sweep -->
  <linearGradient id="blader1x2124" x1="0%" y1="0%" x2="100%" y2="0%">
    <stop offset="0%"   stop-color="#0e0e20"/>
    <stop offset="16%"  stop-color="#3e3e58"/>
    <stop offset="34%"  stop-color="#c8c8e0"/>
    <stop offset="50%"  stop-color="#f5f5ff"/>
    <stop offset="66%"  stop-color="#b8b8d0"/>
    <stop offset="84%"  stop-color="#2e2e48"/>
    <stop offset="100%" stop-color="#08080e"/>
  </linearGradient>
  <!-- Blade tip brightening -->
  <linearGradient id="bladeTipr1x2124" x1="0%" y1="100%" x2="0%" y2="0%">
    <stop offset="0%"   stop-color="rgba(255,255,255,0)"/>
    <stop offset="55%"  stop-color="rgba(255,255,255,.1)"/>
    <stop offset="100%" stop-color="rgba(255,255,255,.55)"/>
  </linearGradient>
  <!-- Gunmetal anodised — blaster body -->
  <linearGradient id="gunmetalr1x2124" x1="0%" y1="0%" x2="0%" y2="100%">
    <stop offset="0%"   stop-color="#46465e"/>
    <stop offset="18%"  stop-color="#828296"/>
    <stop offset="42%"  stop-color="#26263a"/>
    <stop offset="72%"  stop-color="#16162a"/>
    <stop offset="100%" stop-color="#0c0c18"/>
  </linearGradient>
  <!-- Brushed steel tube — barrel/rod -->
  <linearGradient id="barrelr1x2124" x1="0%" y1="0%" x2="100%" y2="0%">
    <stop offset="0%"   stop-color="#0a0a14"/>
    <stop offset="24%"  stop-color="#585875"/>
    <stop offset="50%"  stop-color="#a8a8c8"/>
    <stop offset="76%"  stop-color="#383852"/>
    <stop offset="100%" stop-color="#0a0a14"/>
  </linearGradient>
  <!-- Chrome rod — lance shaft -->
  <linearGradient id="chromer1x2124" x1="0%" y1="0%" x2="100%" y2="0%">
    <stop offset="0%"   stop-color="#0c0c18"/>
    <stop offset="20%"  stop-color="#686888"/>
    <stop offset="44%"  stop-color="#e0e0f0"/>
    <stop offset="56%"  stop-color="#c0c0d8"/>
    <stop offset="80%"  stop-color="#28283e"/>
    <stop offset="100%" stop-color="#0c0c18"/>
  </linearGradient>
  <!-- Titanium plate — shield face -->
  <linearGradient id="titaniumr1x2124" x1="0%" y1="0%" x2="100%" y2="100%">
    <stop offset="0%"   stop-color="#585878"/>
    <stop offset="28%"  stop-color="#4444ff" stop-opacity=".88"/>
    <stop offset="55%"  stop-color="#141428"/>
    <stop offset="80%"  stop-color="#181828"/>
    <stop offset="100%" stop-color="#0a0a18"/>
  </linearGradient>
  <!-- Artillery black-chrome — cannon body -->
  <linearGradient id="artilleryr1x2124" x1="0%" y1="0%" x2="0%" y2="100%">
    <stop offset="0%"   stop-color="#383850"/>
    <stop offset="14%"  stop-color="#78789a"/>
    <stop offset="36%"  stop-color="#202034"/>
    <stop offset="65%"  stop-color="#14141e"/>
    <stop offset="100%" stop-color="#0a0a12"/>
  </linearGradient>
  <!-- Energy orb — staff -->
  <radialGradient id="orbr1x2124" cx="35%" cy="35%" r="65%">
    <stop offset="0%"   stop-color="rgba(255,255,255,.9)"/>
    <stop offset="30%"  stop-color="#4444ff"/>
    <stop offset="68%"  stop-color="#141428"/>
    <stop offset="100%" stop-color="rgba(0,0,0,.6)"/>
  </radialGradient>
  <!-- Knuckle plate chrome -->
  <linearGradient id="knuckler1x2124" x1="0%" y1="0%" x2="0%" y2="100%">
    <stop offset="0%"   stop-color="#888aaa"/>
    <stop offset="32%"  stop-color="#4444ff" stop-opacity=".8"/>
    <stop offset="62%"  stop-color="#1a1a2c"/>
    <stop offset="100%" stop-color="#0a0a14"/>
  </linearGradient>

  <!-- Carbon fibre weave texture overlay -->
  <pattern id="carbonr1x2124" width="6" height="6" patternUnits="userSpaceOnUse">
    <rect width="6" height="6" fill="rgba(0,0,0,.08)"/>
    <rect x="0" y="0" width="3" height="3" fill="rgba(255,255,255,.022)"/>
    <rect x="3" y="3" width="3" height="3" fill="rgba(255,255,255,.022)"/>
    <line x1="0" y1="0" x2="3" y2="3" stroke="rgba(255,255,255,.038)" stroke-width=".5"/>
    <line x1="3" y1="0" x2="6" y2="3" stroke="rgba(0,0,0,.055)"       stroke-width=".5"/>
    <line x1="0" y1="3" x2="3" y2="6" stroke="rgba(0,0,0,.055)"       stroke-width=".5"/>
    <line x1="3" y1="3" x2="6" y2="6" stroke="rgba(255,255,255,.038)" stroke-width=".5"/>
  </pattern>

  <!-- Specular metal sheen on armour panels -->
  <filter id="metalr1x2124" x="-5%" y="-5%" width="110%" height="110%">
    <feSpecularLighting surfaceScale="4" specularConstant="1.8"
        specularExponent="42" lighting-color="#ffffff" result="spec">
      <feDistantLight elevation="52" azimuth="38"/>
    </feSpecularLighting>
    <feComposite in="spec" in2="SourceGraphic" operator="in" result="sm"/>
    <feComposite in="SourceGraphic" in2="sm" operator="arithmetic" k1="0" k2="1" k3="0.55" k4="0"/>
  </filter>

  <!-- Sharper specular for weapons — heavier glare -->
  <filter id="wmr1x2124" x="-8%" y="-8%" width="116%" height="116%">
    <feSpecularLighting surfaceScale="6" specularConstant="2.4"
        specularExponent="65" lighting-color="#ffffff" result="spec">
      <feDistantLight elevation="44" azimuth="28"/>
    </feSpecularLighting>
    <feComposite in="spec" in2="SourceGraphic" operator="in" result="sm"/>
    <feComposite in="SourceGraphic" in2="sm" operator="arithmetic" k1="0" k2="1" k3="0.78" k4="0"/>
  </filter>

  <!-- Sketch wobble -->
  <filter id="skr1x2124" x="-8%" y="-8%" width="116%" height="116%">
    <feTurbulence type="fractalNoise" baseFrequency="0.038"
        numOctaves="3" seed="77" result="noise"/>
    <feDisplacementMap in="SourceGraphic" in2="noise" scale="2.6"
        xChannelSelector="R" yChannelSelector="G" result="w"/>
    <feComposite in="w" in2="SourceGraphic" operator="atop"/>
  </filter>

  <!-- Glow: sharp accent -->
  <filter id="glowr1x2124" x="-20%" y="-20%" width="140%" height="140%">
    <feGaussianBlur stdDeviation="3.5" result="b"/>
    <feColorMatrix in="b" type="matrix"
        values="0 0 0 0 1  0 0 0 0 1  0 0 0 0 1  0 0 0 1.8 0" result="boost"/>
    <feMerge><feMergeNode in="boost"/><feMergeNode in="SourceGraphic"/></feMerge>
  </filter>

  <!-- Bloom: wide soft -->
  <filter id="bloomr1x2124" x="-40%" y="-40%" width="180%" height="180%">
    <feGaussianBlur stdDeviation="11" result="b"/>
    <feMerge><feMergeNode in="b"/><feMergeNode in="SourceGraphic"/></feMerge>
  </filter>

  </defs><rect width="1000" height="1000" fill="url(#bgr1x2124)"/><ellipse cx="500.0" cy="892.0" rx="350.0" ry="65.0" fill="rgba(0,0,0,.7)" filter="url(#bloomr1x2124)"/><ellipse cx="500.0" cy="889.0" rx="220.0" ry="34.0" fill="rgba(0,0,0,.45)"/><polygon points="397.1,660.9 490.4,661.3 482.0,878.3 386.5,875.8" fill="url(#suitr1x2124)" stroke="#4444ff" stroke-width="2.2" filter="url(#skr1x2124) url(#metalr1x2124)"/><polygon points="397.2,663.4 491.0,664.1 480.2,879.0 386.2,878.3" fill="url(#carbonr1x2124)"/><polygon points="392.9,722.1 494.5,723.6 483.6,789.0 383.8,787.1" fill="url(#bevelr1x2124)" fill-opacity=".5" stroke="#4444ff" stroke-width="1.4" filter="url(#skr1x2124)"/><polygon points="510.7,661.3 599.5,662.9 613.7,877.6 519.8,876.7" fill="url(#suitr1x2124)" stroke="#4444ff" stroke-width="2.2" filter="url(#skr1x2124) url(#metalr1x2124)"/><polygon points="511.9,660.8 602.8,660.9 612.3,878.6 520.5,876.8" fill="url(#carbonr1x2124)"/><polygon points="505.4,724.0 607.2,725.1 617.5,787.9 515.5,789.4" fill="url(#bevelr1x2124)" fill-opacity=".5" stroke="#4444ff" stroke-width="1.4" filter="url(#skr1x2124)"/><rect x="393.8" y="838.4" width="100.3" height="24.7" fill="url(#bevelr1x2124)" stroke="#4444ff" stroke-width="1" filter="url(#skr1x2124)"/><rect x="508.3"  y="839.8" width="100.3" height="24.7" fill="url(#bevelr1x2124)" stroke="#4444ff" stroke-width="1" filter="url(#skr1x2124)"/><polygon points="371.0,877.5 498.3,879.1 503.9,921.2 361.3,921.4" fill="#141428" stroke="#4444ff" stroke-width="2" filter="url(#skr1x2124)"/><polygon points="503.5,877.4 631.7,878.7 636.7,919.9 495.2,919.7" fill="#141428" stroke="#4444ff" stroke-width="2" filter="url(#skr1x2124)"/><polygon points="303.7,633.0 696.1,633.0 638.5,680.6 361.2,683.4" fill="#4444ff" fill-opacity=".52" stroke="#4444ff" stroke-width="2" filter="url(#skr1x2124)"/><rect x="463.5" y="637.3" width="72.0" height="42.0" fill="url(#bevelr1x2124)" stroke="#4444ff" stroke-width="1.4" filter="url(#glowr1x2124)"/><rect x="486.4" y="640.9" width="28.0" height="22.0" rx="1" fill="rgba(255,255,255,.48)"/><polygon points="154.3,467.4 235.9,464.8 256.7,734.1 128.3,733.6" fill="url(#suitr1x2124)" stroke="#4444ff" stroke-width="2.2" filter="url(#skr1x2124) url(#metalr1x2124)"/><polygon points="172.4,431.6 251.4,433.0 242.0,509.8 161.0,511.9" fill="url(#bevelr1x2124)" fill-opacity=".72" stroke="#4444ff" stroke-width="2.2" filter="url(#skr1x2124)"/><polygon points="161.4,623.3 243.7,622.5 238.7,662.1 164.6,662.3" fill="#4444ff" fill-opacity=".42" stroke="#4444ff" stroke-width="1" filter="url(#skr1x2124)"/><polygon points="765.4,464.8 845.9,465.0 870.0,735.2 743.8,733.3" fill="url(#suitr1x2124)" stroke="#4444ff" stroke-width="2.2" filter="url(#skr1x2124) url(#metalr1x2124)"/><polygon points="745.9,431.5 826.8,431.2 842.0,511.7 758.6,508.9" fill="url(#bevelr1x2124)" fill-opacity=".72" stroke="#4444ff" stroke-width="2.2" filter="url(#skr1x2124)"/><polygon points="755.3,620.5 837.3,621.3 834.6,660.1 759.6,662.3" fill="#4444ff" fill-opacity=".42" stroke="#4444ff" stroke-width="1" filter="url(#skr1x2124)"/><rect x="119.5"  y="701.3" width="135.3" height="85.0" rx="4" fill="url(#bevelr1x2124)" stroke="#4444ff" stroke-width="1.8" filter="url(#skr1x2124)"/><rect x="748.3"   y="698.6" width="135.3" height="85.0" rx="4" fill="url(#bevelr1x2124)" stroke="#4444ff" stroke-width="1.8" filter="url(#skr1x2124)"/><line x1="148.6" y1="700.9" x2="150.4" y2="784.7" stroke="#4444ff" stroke-opacity=".38" stroke-width="1"/><line x1="779.5" y1="701.4" x2="778.5" y2="785.3" stroke="#4444ff" stroke-opacity=".38" stroke-width="1"/><line x1="182.4" y1="701.6" x2="183.3" y2="783.4" stroke="#4444ff" stroke-opacity=".38" stroke-width="1"/><line x1="810.9" y1="701.5" x2="809.3" y2="782.8" stroke="#4444ff" stroke-opacity=".38" stroke-width="1"/><line x1="215.0" y1="702.0" x2="215.0" y2="784.8" stroke="#4444ff" stroke-opacity=".38" stroke-width="1"/><line x1="842.7" y1="700.3" x2="843.9" y2="784.8" stroke="#4444ff" stroke-opacity=".38" stroke-width="1"/><polygon points="236.2,417.8 766.6,418.7 722.3,663.4 277.7,663.9" fill="url(#suitr1x2124)" stroke="#4444ff" stroke-width="2.6" filter="url(#skr1x2124) url(#metalr1x2124)"/><polygon points="234.3,416.5 765.7,417.9 721.0,662.9 276.1,660.9" fill="url(#carbonr1x2124)"/><polygon points="366.0,415.8 633.9,418.1 610.0,514.1 388.4,513.9" fill="url(#suitHir1x2124)"/><line x1="360.7" y1="472.5" x2="637.2" y2="470.0" stroke="#4444ff" stroke-opacity=".52" stroke-width="1.3" filter="url(#skr1x2124)"/><line x1="399.9" y1="551.0" x2="601.6" y2="550.8" stroke="#4444ff" stroke-opacity=".52" stroke-width="1.3" filter="url(#skr1x2124)"/><line x1="267.8" y1="490.1" x2="321.4" y2="490.9" stroke="#4444ff" stroke-opacity=".62" stroke-width="1.8"/><line x1="681.6" y1="492.1" x2="731.8" y2="491.3" stroke="#4444ff" stroke-opacity=".62" stroke-width="1.8"/><line x1="266.0" y1="524.2" x2="319.9" y2="521.8" stroke="#4444ff" stroke-opacity=".62" stroke-width="1.8"/><line x1="680.3" y1="523.4" x2="732.2" y2="522.7" stroke="#4444ff" stroke-opacity=".62" stroke-width="1.8"/><line x1="268.5" y1="556.3" x2="319.7" y2="555.4" stroke="#4444ff" stroke-opacity=".62" stroke-width="1.8"/><line x1="681.7" y1="555.2" x2="734.4" y2="555.6" stroke="#4444ff" stroke-opacity=".62" stroke-width="1.8"/><line x1="265.4" y1="588.3" x2="321.0" y2="586.3" stroke="#4444ff" stroke-opacity=".62" stroke-width="1.8"/><line x1="681.8" y1="588.1" x2="734.9" y2="585.1" stroke="#4444ff" stroke-opacity=".62" stroke-width="1.8"/><g filter="url(#glowr1x2124)"><circle cx="500.9" cy="499.6" r="31.3" fill="#4444ff" stroke="#0a0520" stroke-width="1.4" filter="url(#skr1x2124)"/><circle cx="487.0" cy="498.4" r="7.0" fill="#0a0520"/><circle cx="511.8" cy="497.4" r="7.0" fill="#0a0520"/><rect x="483.6" y="522.7" width="9.3" height="17.4" rx="1" fill="#4444ff" stroke="#0a0520" stroke-width=".6"/><rect x="494.7" y="521.2" width="9.3" height="17.4" rx="1" fill="#4444ff" stroke="#0a0520" stroke-width=".6"/><rect x="506.0" y="522.7" width="9.3" height="17.4" rx="1" fill="#4444ff" stroke="#0a0520" stroke-width=".6"/></g><g><rect x="838.991326373499" y="394.6721583358943" width="175.0" height="118.0" rx="7" fill="url(#artilleryr1x2124)" stroke="#4444ff" stroke-width="2.6" filter="url(#wmr1x2124)"/><rect x="839.5656569805556" y="398.11217502709474" width="175.0" height="118.0" rx="7" fill="url(#carbonr1x2124)"/><rect x="981.4902126798966" y="446.1517629245296" width="78.0" height="32.0" rx="6" fill="url(#barrelr1x2124)" stroke="#4444ff" stroke-width="1.4" filter="url(#wmr1x2124)"/><circle cx="881.7267449556477" cy="472.3761430247687" r="48.0" fill="rgba(0,0,0,.55)" stroke="#4444ff" stroke-width="2" filter="url(#wmr1x2124)"/><circle cx="882.6901008012333" cy="470.3046205645427" r="34.0" fill="#4444ff" fill-opacity=".4" filter="url(#bloomr1x2124)"/><circle cx="883.4305858924613" cy="470.6548898081295" r="18.0" fill="#4444ff" filter="url(#glowr1x2124)"/><rect x="844.2728314146958" y="382.24630854157726" width="100.0" height="18.0" rx="2" fill="url(#bevelr1x2124)" stroke="#4444ff" stroke-width="1" filter="url(#wmr1x2124)"/><rect x="840.3622531905398" y="397.4276005159132" width="120.0" height="12.0" rx="3" fill="rgba(255,255,255,.2)"/><line x1="846.5805163207092" y1="518.0572734769434" x2="846.4675871287101" y2="550.7058341889642" stroke="#4444ff" stroke-opacity=".6" stroke-width="2"/><line x1="872.8763103549928" y1="517.6021967962384" x2="870.2106318093464" y2="550.4009561093524" stroke="#4444ff" stroke-opacity=".6" stroke-width="2"/><line x1="897.6388645111211" y1="518.4009548011236" x2="894.0996524483525" y2="551.1953030706383" stroke="#4444ff" stroke-opacity=".6" stroke-width="2"/><line x1="920.737491684463" y1="518.8204063691198" x2="920.9972461219505" y2="550.9308920199052" stroke="#4444ff" stroke-opacity=".6" stroke-width="2"/></g><rect x="451.6021114150062" y="556.1790430919267" width="100.0"  height="56.0" fill="#141428" stroke="#4444ff" stroke-width="2.2" filter="url(#skr1x2124)"/><rect x="422.9150144815445" y="575.8556734289974" width="152.0" height="26.0" fill="url(#bevelr1x2124)" fill-opacity=".65" stroke="#4444ff" stroke-width="1.2" filter="url(#skr1x2124)"/><polygon points="307.8,380.6 350.4,295.6 500.1,278.7 651.2,294.5 693.7,381.5 669.9,502.5 501.3,565.5 330.9,505.4" fill="url(#suitr1x2124)" stroke="#4444ff" stroke-width="2.8" filter="url(#skr1x2124) url(#metalr1x2124)"/><polygon points="309.7,379.5 351.1,294.4 500.3,276.5 650.8,295.7 690.6,381.8 668.8,502.8 500.2,565.9 330.1,504.1" fill="url(#carbonr1x2124)"/><polygon points="382.1,303.0 500.6,286.4 619.3,302.4 607.1,380.2 393.6,381.8" fill="url(#suitHir1x2124)"/><polygon points="379.4,379.5 366.5,425.5 434.2,502.2 501.8,528.2 566.5,504.6 633.4,424.4 619.8,379.2" fill="#0a0520" fill-opacity=".88" stroke="#4444ff" stroke-width="1.8" filter="url(#skr1x2124)"/><polygon points="382.8,411.4 478.5,409.8 484.1,439.9 389.2,441.3" fill="#4444ff" filter="url(#glowr1x2124)"/><polygon points="521.3,412.2 619.2,413.0 609.9,439.7 515.8,438.4" fill="#4444ff" filter="url(#glowr1x2124)"/><ellipse cx="430.9" cy="425.7" rx="38.4"  ry="8.2" fill="#ffffff" opacity=".88"/><ellipse cx="569.1" cy="425.7" rx="38.4"  ry="8.2" fill="#ffffff" opacity=".88"/><line x1="484.9250721143186" y1="415.1876062355004" x2="514.7372234653122" y2="412.398750935588" stroke="#4444ff" stroke-opacity=".52" stroke-width="2"/><line x1="486.4374825833924" y1="439.5622841390781" x2="513.8323277079872" y2="438.09697215892373" stroke="#4444ff" stroke-opacity=".52" stroke-width="2"/><line x1="500.8471243312582" y1="453.05313394665717" x2="498.9268959231675" y2="483.5511255823076" stroke="#4444ff" stroke-opacity=".58" stroke-width="2.2" filter="url(#skr1x2124)"/><line x1="455.2037599876337" y1="491.22623265050345" x2="453.6589807350002" y2="521.3782681151293" stroke="#4444ff" stroke-opacity=".52" stroke-width="1.5" filter="url(#skr1x2124)"/><line x1="477.3374854005314" y1="491.65022571803996" x2="478.2223639602214" y2="521.7548776411452" stroke="#4444ff" stroke-opacity=".52" stroke-width="1.5" filter="url(#skr1x2124)"/><line x1="499.9654957388528" y1="492.40807220255954" x2="498.9821429991163" y2="521.3679884149693" stroke="#4444ff" stroke-opacity=".52" stroke-width="1.5" filter="url(#skr1x2124)"/><line x1="524.0379142722674" y1="490.194305808749" x2="522.0643033685722" y2="518.736451040674" stroke="#4444ff" stroke-opacity=".52" stroke-width="1.5" filter="url(#skr1x2124)"/><line x1="545.9648189300858" y1="491.9360084559768" x2="547.7574513738231" y2="519.8330988517031" stroke="#4444ff" stroke-opacity=".52" stroke-width="1.5" filter="url(#skr1x2124)"/><polygon points="432.4,504.1 568.1,501.9 553.2,558.5 446.3,556.7" fill="#141428" fill-opacity=".72" stroke="#4444ff" stroke-width="1.3" filter="url(#skr1x2124)"/><polygon points="316.9,305.1 362.4,305.0 339.0,194.4" fill="url(#bevelr1x2124)" fill-opacity=".95" stroke="#4444ff" stroke-width="1.6" filter="url(#skr1x2124) url(#glowr1x2124)"/><polygon points="395.1,304.8 443.9,304.2 420.9,210.0" fill="url(#bevelr1x2124)" fill-opacity=".95" stroke="#4444ff" stroke-width="1.6" filter="url(#skr1x2124) url(#glowr1x2124)"/><polygon points="475.3,305.9 522.7,305.6 499.9,222.6" fill="url(#bevelr1x2124)" fill-opacity=".95" stroke="#4444ff" stroke-width="1.6" filter="url(#skr1x2124) url(#glowr1x2124)"/><polygon points="557.1,305.9 604.2,303.5 581.2,210.2" fill="url(#bevelr1x2124)" fill-opacity=".95" stroke="#4444ff" stroke-width="1.6" filter="url(#skr1x2124) url(#glowr1x2124)"/><polygon points="637.9,303.6 682.9,304.1 662.4,196.2" fill="url(#bevelr1x2124)" fill-opacity=".95" stroke="#4444ff" stroke-width="1.6" filter="url(#skr1x2124) url(#glowr1x2124)"/><text x="30.0"  y="975.0" font-family="monospace" font-weight="bold" font-size="22.0" fill="rgba(255,255,255,.22)">#0001</text><text x="500.0"   y="975.0" text-anchor="middle" font-family="monospace" font-weight="bold" font-size="22.0" fill="#4444ff" fill-opacity=".48">OBSIDIAN RANGER</text><text x="970.0" y="975.0" text-anchor="end"    font-family="monospace" font-weight="bold" font-size="22.0" fill="#4444ff" fill-opacity=".32">MECH RANGERS</text></svg>