<svg xmlns="http://www.w3.org/2000/svg" viewBox="0 0 1000 1000" width="1000" height="1000" shape-rendering="geometricPrecision"><defs>

  <!-- Scene gradients -->
  <radialGradient id="bgr1x2140" cx="50%" cy="42%" r="72%">
    <stop offset="0%"   stop-color="#001e1e"/>
    <stop offset="100%" stop-color="#0e001e"/>
  </radialGradient>
  <linearGradient id="suitr1x2140" x1="8%" y1="0%" x2="92%" y2="100%">
    <stop offset="0%"   stop-color="#2060ff" stop-opacity=".95"/>
    <stop offset="45%"  stop-color="#003ccc"/>
    <stop offset="100%" stop-color="#0e001e"/>
  </linearGradient>
  <linearGradient id="suitHir1x2140" x1="0%" y1="0%" x2="0%" y2="100%">
    <stop offset="0%"   stop-color="rgba(255,255,255,.28)"/>
    <stop offset="60%"  stop-color="rgba(255,255,255,.04)"/>
    <stop offset="100%" stop-color="rgba(255,255,255,0)"/>
  </linearGradient>
  <!-- Bevel: bright top, dark bottom for armour panels -->
  <linearGradient id="bevelr1x2140" x1="0%" y1="0%" x2="0%" y2="100%">
    <stop offset="0%"   stop-color="rgba(255,255,255,.55)"/>
    <stop offset="30%"  stop-color="#2060ff"/>
    <stop offset="70%"  stop-color="#003ccc"/>
    <stop offset="100%" stop-color="rgba(0,0,0,.5)"/>
  </linearGradient>

  <!-- Weapon: cold steel blade sweep -->
  <linearGradient id="blader1x2140" x1="0%" y1="0%" x2="100%" y2="0%">
    <stop offset="0%"   stop-color="#0e0e20"/>
    <stop offset="16%"  stop-color="#3e3e58"/>
    <stop offset="34%"  stop-color="#c8c8e0"/>
    <stop offset="50%"  stop-color="#f5f5ff"/>
    <stop offset="66%"  stop-color="#b8b8d0"/>
    <stop offset="84%"  stop-color="#2e2e48"/>
    <stop offset="100%" stop-color="#08080e"/>
  </linearGradient>
  <!-- Blade tip brightening -->
  <linearGradient id="bladeTipr1x2140" x1="0%" y1="100%" x2="0%" y2="0%">
    <stop offset="0%"   stop-color="rgba(255,255,255,0)"/>
    <stop offset="55%"  stop-color="rgba(255,255,255,.1)"/>
    <stop offset="100%" stop-color="rgba(255,255,255,.55)"/>
  </linearGradient>
  <!-- Gunmetal anodised — blaster body -->
  <linearGradient id="gunmetalr1x2140" x1="0%" y1="0%" x2="0%" y2="100%">
    <stop offset="0%"   stop-color="#46465e"/>
    <stop offset="18%"  stop-color="#828296"/>
    <stop offset="42%"  stop-color="#26263a"/>
    <stop offset="72%"  stop-color="#16162a"/>
    <stop offset="100%" stop-color="#0c0c18"/>
  </linearGradient>
  <!-- Brushed steel tube — barrel/rod -->
  <linearGradient id="barrelr1x2140" x1="0%" y1="0%" x2="100%" y2="0%">
    <stop offset="0%"   stop-color="#0a0a14"/>
    <stop offset="24%"  stop-color="#585875"/>
    <stop offset="50%"  stop-color="#a8a8c8"/>
    <stop offset="76%"  stop-color="#383852"/>
    <stop offset="100%" stop-color="#0a0a14"/>
  </linearGradient>
  <!-- Chrome rod — lance shaft -->
  <linearGradient id="chromer1x2140" x1="0%" y1="0%" x2="100%" y2="0%">
    <stop offset="0%"   stop-color="#0c0c18"/>
    <stop offset="20%"  stop-color="#686888"/>
    <stop offset="44%"  stop-color="#e0e0f0"/>
    <stop offset="56%"  stop-color="#c0c0d8"/>
    <stop offset="80%"  stop-color="#28283e"/>
    <stop offset="100%" stop-color="#0c0c18"/>
  </linearGradient>
  <!-- Titanium plate — shield face -->
  <linearGradient id="titaniumr1x2140" x1="0%" y1="0%" x2="100%" y2="100%">
    <stop offset="0%"   stop-color="#585878"/>
    <stop offset="28%"  stop-color="#2060ff" stop-opacity=".88"/>
    <stop offset="55%"  stop-color="#003ccc"/>
    <stop offset="80%"  stop-color="#181828"/>
    <stop offset="100%" stop-color="#0a0a18"/>
  </linearGradient>
  <!-- Artillery black-chrome — cannon body -->
  <linearGradient id="artilleryr1x2140" x1="0%" y1="0%" x2="0%" y2="100%">
    <stop offset="0%"   stop-color="#383850"/>
    <stop offset="14%"  stop-color="#78789a"/>
    <stop offset="36%"  stop-color="#202034"/>
    <stop offset="65%"  stop-color="#14141e"/>
    <stop offset="100%" stop-color="#0a0a12"/>
  </linearGradient>
  <!-- Energy orb — staff -->
  <radialGradient id="orbr1x2140" cx="35%" cy="35%" r="65%">
    <stop offset="0%"   stop-color="rgba(255,255,255,.9)"/>
    <stop offset="30%"  stop-color="#2060ff"/>
    <stop offset="68%"  stop-color="#003ccc"/>
    <stop offset="100%" stop-color="rgba(0,0,0,.6)"/>
  </radialGradient>
  <!-- Knuckle plate chrome -->
  <linearGradient id="knuckler1x2140" x1="0%" y1="0%" x2="0%" y2="100%">
    <stop offset="0%"   stop-color="#888aaa"/>
    <stop offset="32%"  stop-color="#2060ff" stop-opacity=".8"/>
    <stop offset="62%"  stop-color="#1a1a2c"/>
    <stop offset="100%" stop-color="#0a0a14"/>
  </linearGradient>

  <!-- Carbon fibre weave texture overlay -->
  <pattern id="carbonr1x2140" width="6" height="6" patternUnits="userSpaceOnUse">
    <rect width="6" height="6" fill="rgba(0,0,0,.08)"/>
    <rect x="0" y="0" width="3" height="3" fill="rgba(255,255,255,.022)"/>
    <rect x="3" y="3" width="3" height="3" fill="rgba(255,255,255,.022)"/>
    <line x1="0" y1="0" x2="3" y2="3" stroke="rgba(255,255,255,.038)" stroke-width=".5"/>
    <line x1="3" y1="0" x2="6" y2="3" stroke="rgba(0,0,0,.055)"       stroke-width=".5"/>
    <line x1="0" y1="3" x2="3" y2="6" stroke="rgba(0,0,0,.055)"       stroke-width=".5"/>
    <line x1="3" y1="3" x2="6" y2="6" stroke="rgba(255,255,255,.038)" stroke-width=".5"/>
  </pattern>

  <!-- Specular metal sheen on armour panels -->
  <filter id="metalr1x2140" x="-5%" y="-5%" width="110%" height="110%">
    <feSpecularLighting surfaceScale="4" specularConstant="1.8"
        specularExponent="42" lighting-color="#ffffff" result="spec">
      <feDistantLight elevation="52" azimuth="38"/>
    </feSpecularLighting>
    <feComposite in="spec" in2="SourceGraphic" operator="in" result="sm"/>
    <feComposite in="SourceGraphic" in2="sm" operator="arithmetic" k1="0" k2="1" k3="0.55" k4="0"/>
  </filter>

  <!-- Sharper specular for weapons — heavier glare -->
  <filter id="wmr1x2140" x="-8%" y="-8%" width="116%" height="116%">
    <feSpecularLighting surfaceScale="6" specularConstant="2.4"
        specularExponent="65" lighting-color="#ffffff" result="spec">
      <feDistantLight elevation="44" azimuth="28"/>
    </feSpecularLighting>
    <feComposite in="spec" in2="SourceGraphic" operator="in" result="sm"/>
    <feComposite in="SourceGraphic" in2="sm" operator="arithmetic" k1="0" k2="1" k3="0.78" k4="0"/>
  </filter>

  <!-- Sketch wobble -->
  <filter id="skr1x2140" x="-8%" y="-8%" width="116%" height="116%">
    <feTurbulence type="fractalNoise" baseFrequency="0.038"
        numOctaves="3" seed="94" result="noise"/>
    <feDisplacementMap in="SourceGraphic" in2="noise" scale="2.6"
        xChannelSelector="R" yChannelSelector="G" result="w"/>
    <feComposite in="w" in2="SourceGraphic" operator="atop"/>
  </filter>

  <!-- Glow: sharp accent -->
  <filter id="glowr1x2140" x="-20%" y="-20%" width="140%" height="140%">
    <feGaussianBlur stdDeviation="3.5" result="b"/>
    <feColorMatrix in="b" type="matrix"
        values="0 0 0 0 1  0 0 0 0 1  0 0 0 0 1  0 0 0 1.8 0" result="boost"/>
    <feMerge><feMergeNode in="boost"/><feMergeNode in="SourceGraphic"/></feMerge>
  </filter>

  <!-- Bloom: wide soft -->
  <filter id="bloomr1x2140" x="-40%" y="-40%" width="180%" height="180%">
    <feGaussianBlur stdDeviation="11" result="b"/>
    <feMerge><feMergeNode in="b"/><feMergeNode in="SourceGraphic"/></feMerge>
  </filter>

  </defs><rect width="1000" height="1000" fill="url(#bgr1x2140)"/><circle cx="500" cy="500" r="420.0" fill="none" stroke="#2060ff" stroke-opacity=".11" stroke-width="42" stroke-dasharray="8,5"/><circle cx="500" cy="500" r="240.0" fill="none" stroke="#003ccc" stroke-opacity=".09" stroke-width="18"/><line x1="500" y1="500" x2="1500.0" y2="500.0" stroke="#2060ff" stroke-opacity=".035" stroke-width="1.2"/><line x1="500" y1="500" x2="1366.0" y2="1000.0" stroke="#2060ff" stroke-opacity=".035" stroke-width="1.2"/><line x1="500" y1="500" x2="1000.0" y2="1366.0" stroke="#2060ff" stroke-opacity=".035" stroke-width="1.2"/><line x1="500" y1="500" x2="500.0" y2="1500.0" stroke="#2060ff" stroke-opacity=".035" stroke-width="1.2"/><line x1="500" y1="500" x2="0.0" y2="1366.0" stroke="#2060ff" stroke-opacity=".035" stroke-width="1.2"/><line x1="500" y1="500" x2="-366.0" y2="1000.0" stroke="#2060ff" stroke-opacity=".035" stroke-width="1.2"/><line x1="500" y1="500" x2="-500.0" y2="500.0" stroke="#2060ff" stroke-opacity=".035" stroke-width="1.2"/><line x1="500" y1="500" x2="-366.0" y2="-0.0" stroke="#2060ff" stroke-opacity=".035" stroke-width="1.2"/><line x1="500" y1="500" x2="-0.0" y2="-366.0" stroke="#2060ff" stroke-opacity=".035" stroke-width="1.2"/><line x1="500" y1="500" x2="500.0" y2="-500.0" stroke="#2060ff" stroke-opacity=".035" stroke-width="1.2"/><line x1="500" y1="500" x2="1000.0" y2="-366.0" stroke="#2060ff" stroke-opacity=".035" stroke-width="1.2"/><line x1="500" y1="500" x2="1366.0" y2="-0.0" stroke="#2060ff" stroke-opacity=".035" stroke-width="1.2"/><ellipse cx="500.0" cy="892.0" rx="350.0" ry="65.0" fill="rgba(0,0,0,.7)" filter="url(#bloomr1x2140)"/><ellipse cx="500.0" cy="889.0" rx="220.0" ry="34.0" fill="rgba(0,0,0,.45)"/><ellipse cx="500.0" cy="520.0" rx="320.0" ry="480.0" fill="#ff6600" fill-opacity=".042" filter="url(#bloomr1x2140)"/><circle cx="588.5" cy="641.5" r="0.6" fill="#ff6600" fill-opacity="0.82" filter="url(#glowr1x2140)"/><circle cx="462.9" cy="687.5" r="1.8" fill="#ff6600" fill-opacity="0.59" filter="url(#glowr1x2140)"/><circle cx="549.3" cy="204.7" r="1.8" fill="#ff6600" fill-opacity="0.72" filter="url(#glowr1x2140)"/><circle cx="361.5" cy="513.3" r="3.5" fill="#ff6600" fill-opacity="0.89" filter="url(#glowr1x2140)"/><circle cx="676.8" cy="645.5" r="3.3" fill="#ff6600" fill-opacity="0.38" filter="url(#glowr1x2140)"/><circle cx="747.5" cy="340.1" r="2.9" fill="#ff6600" fill-opacity="0.64" filter="url(#glowr1x2140)"/><circle cx="701.3" cy="636.2" r="3.8" fill="#ff6600" fill-opacity="0.70" filter="url(#glowr1x2140)"/><circle cx="653.2" cy="360.4" r="4.1" fill="#ff6600" fill-opacity="0.70" filter="url(#glowr1x2140)"/><circle cx="749.8" cy="277.2" r="3.8" fill="#ff6600" fill-opacity="0.63" filter="url(#glowr1x2140)"/><circle cx="738.6" cy="684.4" r="1.0" fill="#ff6600" fill-opacity="0.67" filter="url(#glowr1x2140)"/><circle cx="276.9" cy="388.7" r="4.0" fill="#ff6600" fill-opacity="0.39" filter="url(#glowr1x2140)"/><circle cx="365.4" cy="266.7" r="2.4" fill="#ff6600" fill-opacity="0.45" filter="url(#glowr1x2140)"/><circle cx="638.5" cy="615.1" r="0.6" fill="#ff6600" fill-opacity="0.51" filter="url(#glowr1x2140)"/><circle cx="660.6" cy="783.0" r="2.7" fill="#ff6600" fill-opacity="0.45" filter="url(#glowr1x2140)"/><polygon points="398.2,664.1 488.1,662.5 480.4,877.4 387.1,876.1" fill="url(#suitr1x2140)" stroke="#2060ff" stroke-width="2.2" filter="url(#skr1x2140) url(#metalr1x2140)"/><polygon points="400.3,663.5 490.0,663.6 482.0,878.4 387.8,877.1" fill="url(#carbonr1x2140)"/><polygon points="391.3,725.4 494.2,724.2 483.2,787.3 383.1,788.6" fill="url(#bevelr1x2140)" fill-opacity=".5" stroke="#2060ff" stroke-width="1.4" filter="url(#skr1x2140)"/><polygon points="511.8,661.0 600.0,662.0 613.2,876.4 518.9,876.7" fill="url(#suitr1x2140)" stroke="#2060ff" stroke-width="2.2" filter="url(#skr1x2140) url(#metalr1x2140)"/><polygon points="510.5,663.8 602.8,661.6 611.1,876.5 519.6,877.7" fill="url(#carbonr1x2140)"/><polygon points="508.3,722.9 607.2,723.4 614.8,787.6 515.2,789.6" fill="url(#bevelr1x2140)" fill-opacity=".5" stroke="#2060ff" stroke-width="1.4" filter="url(#skr1x2140)"/><rect x="392.7" y="838.4" width="100.3" height="24.7" fill="url(#bevelr1x2140)" stroke="#2060ff" stroke-width="1" filter="url(#skr1x2140)"/><rect x="507.3"  y="838.0" width="100.3" height="24.7" fill="url(#bevelr1x2140)" stroke="#2060ff" stroke-width="1" filter="url(#skr1x2140)"/><polygon points="368.7,879.3 497.2,875.8 504.3,922.8 363.7,921.0" fill="#003ccc" stroke="#2060ff" stroke-width="2" filter="url(#skr1x2140)"/><polygon points="502.3,879.1 631.1,876.4 637.3,921.2 495.1,922.6" fill="#003ccc" stroke="#2060ff" stroke-width="2" filter="url(#skr1x2140)"/><polygon points="302.8,634.0 694.7,634.8 636.1,682.5 360.5,681.6" fill="#2060ff" fill-opacity=".52" stroke="#2060ff" stroke-width="2" filter="url(#skr1x2140)"/><rect x="463.0" y="636.4" width="72.0" height="42.0" fill="url(#bevelr1x2140)" stroke="#2060ff" stroke-width="1.4" filter="url(#glowr1x2140)"/><rect x="485.2" y="639.1" width="28.0" height="22.0" rx="1" fill="rgba(255,255,255,.48)"/><polygon points="152.1,465.1 236.4,466.5 256.6,733.7 127.9,736.6" fill="url(#suitr1x2140)" stroke="#2060ff" stroke-width="2.2" filter="url(#skr1x2140) url(#metalr1x2140)"/><polygon points="171.7,430.4 253.3,430.9 244.7,511.6 159.8,511.0" fill="url(#bevelr1x2140)" fill-opacity=".72" stroke="#2060ff" stroke-width="2.2" filter="url(#skr1x2140)"/><polygon points="163.0,622.6 243.7,622.6 240.3,661.1 164.5,662.4" fill="#2060ff" fill-opacity=".42" stroke="#2060ff" stroke-width="1" filter="url(#skr1x2140)"/><polygon points="764.3,465.2 847.9,464.9 871.1,736.3 743.1,734.2" fill="url(#suitr1x2140)" stroke="#2060ff" stroke-width="2.2" filter="url(#skr1x2140) url(#metalr1x2140)"/><polygon points="745.4,433.5 827.7,431.4 839.5,509.7 757.9,511.4" fill="url(#bevelr1x2140)" fill-opacity=".72" stroke="#2060ff" stroke-width="2.2" filter="url(#skr1x2140)"/><polygon points="755.2,620.7 840.3,622.3 834.7,659.9 762.6,659.8" fill="#2060ff" fill-opacity=".42" stroke="#2060ff" stroke-width="1" filter="url(#skr1x2140)"/><rect x="121.1"  y="701.2" width="135.3" height="85.0" rx="4" fill="url(#bevelr1x2140)" stroke="#2060ff" stroke-width="1.8" filter="url(#skr1x2140)"/><rect x="748.9"   y="700.4" width="135.3" height="85.0" rx="4" fill="url(#bevelr1x2140)" stroke="#2060ff" stroke-width="1.8" filter="url(#skr1x2140)"/><line x1="150.6" y1="700.5" x2="150.8" y2="783.5" stroke="#2060ff" stroke-opacity=".38" stroke-width="1"/><line x1="777.7" y1="702.2" x2="776.6" y2="782.2" stroke="#2060ff" stroke-opacity=".38" stroke-width="1"/><line x1="182.7" y1="700.3" x2="181.9" y2="785.5" stroke="#2060ff" stroke-opacity=".38" stroke-width="1"/><line x1="812.6" y1="702.4" x2="810.4" y2="784.0" stroke="#2060ff" stroke-opacity=".38" stroke-width="1"/><line x1="214.2" y1="700.1" x2="214.4" y2="783.2" stroke="#2060ff" stroke-opacity=".38" stroke-width="1"/><line x1="844.5" y1="703.3" x2="842.3" y2="782.4" stroke="#2060ff" stroke-opacity=".38" stroke-width="1"/><polygon points="233.4,417.5 765.0,417.8 722.7,662.8 278.5,661.2" fill="url(#suitr1x2140)" stroke="#2060ff" stroke-width="2.6" filter="url(#skr1x2140) url(#metalr1x2140)"/><polygon points="234.9,418.8 766.2,418.2 724.4,660.9 278.8,662.8" fill="url(#carbonr1x2140)"/><polygon points="368.5,416.4 631.6,417.8 610.4,514.5 387.3,515.5" fill="url(#suitHir1x2140)"/><line x1="361.1" y1="471.4" x2="638.6" y2="472.7" stroke="#2060ff" stroke-opacity=".52" stroke-width="1.3" filter="url(#skr1x2140)"/><line x1="399.8" y1="548.9" x2="602.3" y2="549.2" stroke="#2060ff" stroke-opacity=".52" stroke-width="1.3" filter="url(#skr1x2140)"/><line x1="268.1" y1="490.2" x2="320.4" y2="489.6" stroke="#2060ff" stroke-opacity=".62" stroke-width="1.8"/><line x1="679.4" y1="490.1" x2="734.6" y2="492.3" stroke="#2060ff" stroke-opacity=".62" stroke-width="1.8"/><line x1="265.2" y1="521.5" x2="320.8" y2="524.4" stroke="#2060ff" stroke-opacity=".62" stroke-width="1.8"/><line x1="681.8" y1="522.4" x2="734.8" y2="523.4" stroke="#2060ff" stroke-opacity=".62" stroke-width="1.8"/><line x1="267.6" y1="554.0" x2="321.4" y2="554.7" stroke="#2060ff" stroke-opacity=".62" stroke-width="1.8"/><line x1="680.4" y1="555.8" x2="731.5" y2="555.0" stroke="#2060ff" stroke-opacity=".62" stroke-width="1.8"/><line x1="266.6" y1="585.0" x2="320.6" y2="587.6" stroke="#2060ff" stroke-opacity=".62" stroke-width="1.8"/><line x1="681.1" y1="585.9" x2="732.0" y2="587.5" stroke="#2060ff" stroke-opacity=".62" stroke-width="1.8"/><g filter="url(#glowr1x2140)"><polygon points="483.9,454.4 514.4,506.9 501.4,507.3 516.9,569.0 486.5,516.1 500.8,516.3" fill="#2060ff" stroke="#0e001e" stroke-width="1.4" filter="url(#skr1x2140)"/><polygon points="481.8,453.6 512.4,506.8 501.7,507.7 518.4,569.3 488.9,514.6 498.7,514.8" fill="url(#suitHir1x2140)" opacity=".4"/></g><g><rect x="33.13260033311319" y="423.1252276209183" width="148.0" height="82.0" rx="5" fill="url(#gunmetalr1x2140)" stroke="#2060ff" stroke-width="2" filter="url(#wmr1x2140)"/><rect x="33.41906238825989" y="420.61105315359305" width="148.0" height="82.0" rx="5" fill="url(#carbonr1x2140)"/><rect x="42.759577747657865" y="402.6542216874659" width="90.0" height="22.0" rx="3" fill="url(#barrelr1x2140)" stroke="#2060ff" stroke-width="1" filter="url(#wmr1x2140)"/><circle cx="83.73534850025547" cy="413.8840171486139" r="15.0" fill="#2060ff" opacity=".8" filter="url(#glowr1x2140)"/><circle cx="82.80902822123838" cy="413.58999994518234" r="6.0" fill="rgba(255,255,255,.9)"/><rect x="55.49579629845914" y="453.982838979084" width="78.0" height="36.0" rx="5" fill="url(#barrelr1x2140)" stroke="#2060ff" stroke-width="1.2" filter="url(#wmr1x2140)"/><circle cx="-21.01975519988689" cy="469.8343226737343" r="18.0" fill="#2060ff" filter="url(#glowr1x2140)" opacity=".88"/><circle cx="-18.370854325089635" cy="469.88619124088433" r="7.0" fill="#ffffff"/><rect x="77.91338432816785" y="501.6516491765156" width="44.0" height="42.0" rx="3" fill="url(#gunmetalr1x2140)" stroke="#2060ff" stroke-width="1" filter="url(#wmr1x2140)"/><rect x="37.183697794415025" y="424.38932997044174" width="90.0" height="10.0" rx="2" fill="rgba(255,255,255,.22)"/><line x1="62.21939720179883" y1="484.69041252676396" x2="63.36068873483684" y2="518.485134596657" stroke="#2060ff" stroke-opacity=".5" stroke-width="1.2"/><line x1="77.32099609509108" y1="486.79292055787516" x2="77.75477780731391" y2="519.3568682492711" stroke="#2060ff" stroke-opacity=".5" stroke-width="1.2"/><line x1="92.43347168037664" y1="486.75451280251144" x2="95.46149324573574" y2="517.7583522558213" stroke="#2060ff" stroke-opacity=".5" stroke-width="1.2"/></g><rect x="451.48983620340005" y="556.6256602203473" width="100.0"  height="56.0" fill="#003ccc" stroke="#2060ff" stroke-width="2.2" filter="url(#skr1x2140)"/><rect x="423.85063048144804" y="577.1333630336449" width="152.0" height="26.0" fill="url(#bevelr1x2140)" fill-opacity=".65" stroke="#2060ff" stroke-width="1.2" filter="url(#skr1x2140)"/><polygon points="308.1,381.0 350.1,294.9 501.0,278.4 649.3,292.8 691.9,380.0 670.5,503.3 500.8,566.2 330.6,502.5" fill="url(#suitr1x2140)" stroke="#2060ff" stroke-width="2.8" filter="url(#skr1x2140) url(#metalr1x2140)"/><polygon points="309.6,378.9 348.6,293.3 500.8,278.8 649.7,294.2 691.1,379.0 667.3,505.2 499.1,566.1 330.4,503.5" fill="url(#carbonr1x2140)"/><polygon points="380.0,302.3 500.8,284.8 620.2,302.9 608.3,379.2 391.2,381.7" fill="url(#suitHir1x2140)"/><polygon points="379.4,380.4 364.2,427.5 433.1,504.2 498.8,528.5 567.6,504.2 633.0,424.8 620.5,381.9" fill="#0e001e" fill-opacity=".88" stroke="#2060ff" stroke-width="1.8" filter="url(#skr1x2140)"/><polygon points="382.2,412.7 476.0,412.0 483.3,441.1 389.4,440.8" fill="#2060ff" filter="url(#glowr1x2140)"/><polygon points="522.1,410.9 618.7,409.7 611.5,438.7 516.3,438.3" fill="#2060ff" filter="url(#glowr1x2140)"/><ellipse cx="430.9" cy="425.7" rx="38.4"  ry="8.2" fill="#ffffff" opacity=".88"/><ellipse cx="569.1" cy="425.7" rx="38.4"  ry="8.2" fill="#ffffff" opacity=".88"/><line x1="482.8929166696593" y1="412.8325586392544" x2="514.6331031958945" y2="414.73868996864184" stroke="#2060ff" stroke-opacity=".52" stroke-width="2"/><line x1="483.17258989453313" y1="437.18253986528146" x2="515.1685208417848" y2="438.23381575383246" stroke="#2060ff" stroke-opacity=".52" stroke-width="2"/><line x1="499.92558429855853" y1="455.12248203558846" x2="499.4716891577467" y2="482.41251040184875" stroke="#2060ff" stroke-opacity=".58" stroke-width="2.2" filter="url(#skr1x2140)"/><line x1="454.6199704095535" y1="489.74519665837283" x2="453.53962266517806" y2="519.327945125848" stroke="#2060ff" stroke-opacity=".52" stroke-width="1.5" filter="url(#skr1x2140)"/><line x1="477.1858231749758" y1="492.1897507739253" x2="476.37077674003314" y2="520.7862876012921" stroke="#2060ff" stroke-opacity=".52" stroke-width="1.5" filter="url(#skr1x2140)"/><line x1="500.9022641808726" y1="490.3517396971583" x2="499.2428226302378" y2="518.3383631970734" stroke="#2060ff" stroke-opacity=".52" stroke-width="1.5" filter="url(#skr1x2140)"/><line x1="523.5687664774805" y1="492.03124722223725" x2="524.8169660213031" y2="518.5370455675759" stroke="#2060ff" stroke-opacity=".52" stroke-width="1.5" filter="url(#skr1x2140)"/><line x1="547.746579474602" y1="492.6383549179881" x2="546.9434363052436" y2="519.5343970629386" stroke="#2060ff" stroke-opacity=".52" stroke-width="1.5" filter="url(#skr1x2140)"/><polygon points="431.6,505.2 568.2,501.9 553.0,557.2 447.9,556.3" fill="#003ccc" fill-opacity=".72" stroke="#2060ff" stroke-width="1.3" filter="url(#skr1x2140)"/><path d="M389.591117368415 327.8221124013886 Q329.36834873385726 215.42485358370467 379.85059977456933 141.15823601242155" stroke="#2060ff" stroke-width="5" fill="none" stroke-linecap="round" filter="url(#skr1x2140)"/><path d="M387.25623370926826 327.999520265311 Q332.05967285387214 217.57179843289776 379.8937443613448 141.6333020268008" stroke="rgba(255,255,255,.25)" stroke-width="1.5" fill="none" stroke-linecap="round"/><path d="M611.1818716511503 327.85727487830445 Q670.0174207321741 216.85422747926785 617.5369893843866 140.7141166257672" stroke="#2060ff" stroke-width="5" fill="none" stroke-linecap="round" filter="url(#skr1x2140)"/><path d="M611.4469866593741 327.72732759816574 Q667.8575160290487 217.26226152302698 617.7853007495962 141.482343984209" stroke="rgba(255,255,255,.25)" stroke-width="1.5" fill="none" stroke-linecap="round"/><text x="30.0"  y="975.0" font-family="monospace" font-weight="bold" font-size="22.0" fill="rgba(255,255,255,.22)">#0001</text><text x="500.0"   y="975.0" text-anchor="middle" font-family="monospace" font-weight="bold" font-size="22.0" fill="#2060ff" fill-opacity=".48">COBALT RANGER</text><text x="970.0" y="975.0" text-anchor="end"    font-family="monospace" font-weight="bold" font-size="22.0" fill="#2060ff" fill-opacity=".32">MECH RANGERS</text></svg>