<svg xmlns="http://www.w3.org/2000/svg" viewBox="0 0 1000 1000" width="1000" height="1000" shape-rendering="geometricPrecision"><defs>

  <!-- Scene gradients -->
  <radialGradient id="bgr1x221" cx="50%" cy="42%" r="72%">
    <stop offset="0%"   stop-color="#1a2814"/>
    <stop offset="100%" stop-color="#0d1520"/>
  </radialGradient>
  <linearGradient id="suitr1x221" x1="8%" y1="0%" x2="92%" y2="100%">
    <stop offset="0%"   stop-color="#ff44aa" stop-opacity=".95"/>
    <stop offset="45%"  stop-color="#880050"/>
    <stop offset="100%" stop-color="#0d1520"/>
  </linearGradient>
  <linearGradient id="suitHir1x221" x1="0%" y1="0%" x2="0%" y2="100%">
    <stop offset="0%"   stop-color="rgba(255,255,255,.28)"/>
    <stop offset="60%"  stop-color="rgba(255,255,255,.04)"/>
    <stop offset="100%" stop-color="rgba(255,255,255,0)"/>
  </linearGradient>
  <!-- Bevel: bright top, dark bottom for armour panels -->
  <linearGradient id="bevelr1x221" x1="0%" y1="0%" x2="0%" y2="100%">
    <stop offset="0%"   stop-color="rgba(255,255,255,.55)"/>
    <stop offset="30%"  stop-color="#ff44aa"/>
    <stop offset="70%"  stop-color="#880050"/>
    <stop offset="100%" stop-color="rgba(0,0,0,.5)"/>
  </linearGradient>

  <!-- Weapon: cold steel blade sweep -->
  <linearGradient id="blader1x221" x1="0%" y1="0%" x2="100%" y2="0%">
    <stop offset="0%"   stop-color="#0e0e20"/>
    <stop offset="16%"  stop-color="#3e3e58"/>
    <stop offset="34%"  stop-color="#c8c8e0"/>
    <stop offset="50%"  stop-color="#f5f5ff"/>
    <stop offset="66%"  stop-color="#b8b8d0"/>
    <stop offset="84%"  stop-color="#2e2e48"/>
    <stop offset="100%" stop-color="#08080e"/>
  </linearGradient>
  <!-- Blade tip brightening -->
  <linearGradient id="bladeTipr1x221" x1="0%" y1="100%" x2="0%" y2="0%">
    <stop offset="0%"   stop-color="rgba(255,255,255,0)"/>
    <stop offset="55%"  stop-color="rgba(255,255,255,.1)"/>
    <stop offset="100%" stop-color="rgba(255,255,255,.55)"/>
  </linearGradient>
  <!-- Gunmetal anodised — blaster body -->
  <linearGradient id="gunmetalr1x221" x1="0%" y1="0%" x2="0%" y2="100%">
    <stop offset="0%"   stop-color="#46465e"/>
    <stop offset="18%"  stop-color="#828296"/>
    <stop offset="42%"  stop-color="#26263a"/>
    <stop offset="72%"  stop-color="#16162a"/>
    <stop offset="100%" stop-color="#0c0c18"/>
  </linearGradient>
  <!-- Brushed steel tube — barrel/rod -->
  <linearGradient id="barrelr1x221" x1="0%" y1="0%" x2="100%" y2="0%">
    <stop offset="0%"   stop-color="#0a0a14"/>
    <stop offset="24%"  stop-color="#585875"/>
    <stop offset="50%"  stop-color="#a8a8c8"/>
    <stop offset="76%"  stop-color="#383852"/>
    <stop offset="100%" stop-color="#0a0a14"/>
  </linearGradient>
  <!-- Chrome rod — lance shaft -->
  <linearGradient id="chromer1x221" x1="0%" y1="0%" x2="100%" y2="0%">
    <stop offset="0%"   stop-color="#0c0c18"/>
    <stop offset="20%"  stop-color="#686888"/>
    <stop offset="44%"  stop-color="#e0e0f0"/>
    <stop offset="56%"  stop-color="#c0c0d8"/>
    <stop offset="80%"  stop-color="#28283e"/>
    <stop offset="100%" stop-color="#0c0c18"/>
  </linearGradient>
  <!-- Titanium plate — shield face -->
  <linearGradient id="titaniumr1x221" x1="0%" y1="0%" x2="100%" y2="100%">
    <stop offset="0%"   stop-color="#585878"/>
    <stop offset="28%"  stop-color="#ff44aa" stop-opacity=".88"/>
    <stop offset="55%"  stop-color="#880050"/>
    <stop offset="80%"  stop-color="#181828"/>
    <stop offset="100%" stop-color="#0a0a18"/>
  </linearGradient>
  <!-- Artillery black-chrome — cannon body -->
  <linearGradient id="artilleryr1x221" x1="0%" y1="0%" x2="0%" y2="100%">
    <stop offset="0%"   stop-color="#383850"/>
    <stop offset="14%"  stop-color="#78789a"/>
    <stop offset="36%"  stop-color="#202034"/>
    <stop offset="65%"  stop-color="#14141e"/>
    <stop offset="100%" stop-color="#0a0a12"/>
  </linearGradient>
  <!-- Energy orb — staff -->
  <radialGradient id="orbr1x221" cx="35%" cy="35%" r="65%">
    <stop offset="0%"   stop-color="rgba(255,255,255,.9)"/>
    <stop offset="30%"  stop-color="#ff44aa"/>
    <stop offset="68%"  stop-color="#880050"/>
    <stop offset="100%" stop-color="rgba(0,0,0,.6)"/>
  </radialGradient>
  <!-- Knuckle plate chrome -->
  <linearGradient id="knuckler1x221" x1="0%" y1="0%" x2="0%" y2="100%">
    <stop offset="0%"   stop-color="#888aaa"/>
    <stop offset="32%"  stop-color="#ff44aa" stop-opacity=".8"/>
    <stop offset="62%"  stop-color="#1a1a2c"/>
    <stop offset="100%" stop-color="#0a0a14"/>
  </linearGradient>

  <!-- Carbon fibre weave texture overlay -->
  <pattern id="carbonr1x221" width="6" height="6" patternUnits="userSpaceOnUse">
    <rect width="6" height="6" fill="rgba(0,0,0,.08)"/>
    <rect x="0" y="0" width="3" height="3" fill="rgba(255,255,255,.022)"/>
    <rect x="3" y="3" width="3" height="3" fill="rgba(255,255,255,.022)"/>
    <line x1="0" y1="0" x2="3" y2="3" stroke="rgba(255,255,255,.038)" stroke-width=".5"/>
    <line x1="3" y1="0" x2="6" y2="3" stroke="rgba(0,0,0,.055)"       stroke-width=".5"/>
    <line x1="0" y1="3" x2="3" y2="6" stroke="rgba(0,0,0,.055)"       stroke-width=".5"/>
    <line x1="3" y1="3" x2="6" y2="6" stroke="rgba(255,255,255,.038)" stroke-width=".5"/>
  </pattern>

  <!-- Specular metal sheen on armour panels -->
  <filter id="metalr1x221" x="-5%" y="-5%" width="110%" height="110%">
    <feSpecularLighting surfaceScale="4" specularConstant="1.8"
        specularExponent="42" lighting-color="#ffffff" result="spec">
      <feDistantLight elevation="52" azimuth="38"/>
    </feSpecularLighting>
    <feComposite in="spec" in2="SourceGraphic" operator="in" result="sm"/>
    <feComposite in="SourceGraphic" in2="sm" operator="arithmetic" k1="0" k2="1" k3="0.55" k4="0"/>
  </filter>

  <!-- Sharper specular for weapons — heavier glare -->
  <filter id="wmr1x221" x="-8%" y="-8%" width="116%" height="116%">
    <feSpecularLighting surfaceScale="6" specularConstant="2.4"
        specularExponent="65" lighting-color="#ffffff" result="spec">
      <feDistantLight elevation="44" azimuth="28"/>
    </feSpecularLighting>
    <feComposite in="spec" in2="SourceGraphic" operator="in" result="sm"/>
    <feComposite in="SourceGraphic" in2="sm" operator="arithmetic" k1="0" k2="1" k3="0.78" k4="0"/>
  </filter>

  <!-- Sketch wobble -->
  <filter id="skr1x221" x="-8%" y="-8%" width="116%" height="116%">
    <feTurbulence type="fractalNoise" baseFrequency="0.038"
        numOctaves="3" seed="17" result="noise"/>
    <feDisplacementMap in="SourceGraphic" in2="noise" scale="2.6"
        xChannelSelector="R" yChannelSelector="G" result="w"/>
    <feComposite in="w" in2="SourceGraphic" operator="atop"/>
  </filter>

  <!-- Glow: sharp accent -->
  <filter id="glowr1x221" x="-20%" y="-20%" width="140%" height="140%">
    <feGaussianBlur stdDeviation="3.5" result="b"/>
    <feColorMatrix in="b" type="matrix"
        values="0 0 0 0 1  0 0 0 0 1  0 0 0 0 1  0 0 0 1.8 0" result="boost"/>
    <feMerge><feMergeNode in="boost"/><feMergeNode in="SourceGraphic"/></feMerge>
  </filter>

  <!-- Bloom: wide soft -->
  <filter id="bloomr1x221" x="-40%" y="-40%" width="180%" height="180%">
    <feGaussianBlur stdDeviation="11" result="b"/>
    <feMerge><feMergeNode in="b"/><feMergeNode in="SourceGraphic"/></feMerge>
  </filter>

  </defs><rect width="1000" height="1000" fill="url(#bgr1x221)"/><ellipse cx="500.0" cy="892.0" rx="350.0" ry="65.0" fill="rgba(0,0,0,.7)" filter="url(#bloomr1x221)"/><ellipse cx="500.0" cy="889.0" rx="220.0" ry="34.0" fill="rgba(0,0,0,.45)"/><ellipse cx="500.0" cy="520.0" rx="320.0" ry="480.0" fill="#00e5ff" fill-opacity=".042" filter="url(#bloomr1x221)"/><circle cx="376.6" cy="337.8" r="4.2" fill="#00e5ff" fill-opacity="0.46" filter="url(#glowr1x221)"/><circle cx="502.7" cy="664.7" r="1.3" fill="#00e5ff" fill-opacity="0.62" filter="url(#glowr1x221)"/><circle cx="616.7" cy="744.3" r="3.2" fill="#00e5ff" fill-opacity="0.71" filter="url(#glowr1x221)"/><circle cx="308.2" cy="483.0" r="1.3" fill="#00e5ff" fill-opacity="0.47" filter="url(#glowr1x221)"/><circle cx="487.2" cy="617.6" r="2.9" fill="#00e5ff" fill-opacity="0.56" filter="url(#glowr1x221)"/><circle cx="445.1" cy="511.4" r="3.8" fill="#00e5ff" fill-opacity="0.45" filter="url(#glowr1x221)"/><circle cx="465.3" cy="436.9" r="2.0" fill="#00e5ff" fill-opacity="0.47" filter="url(#glowr1x221)"/><circle cx="366.9" cy="744.0" r="3.8" fill="#00e5ff" fill-opacity="0.89" filter="url(#glowr1x221)"/><circle cx="513.8" cy="515.5" r="2.6" fill="#00e5ff" fill-opacity="0.40" filter="url(#glowr1x221)"/><circle cx="480.4" cy="565.7" r="2.0" fill="#00e5ff" fill-opacity="0.52" filter="url(#glowr1x221)"/><circle cx="476.1" cy="547.7" r="0.9" fill="#00e5ff" fill-opacity="0.57" filter="url(#glowr1x221)"/><circle cx="606.3" cy="239.7" r="2.2" fill="#00e5ff" fill-opacity="0.55" filter="url(#glowr1x221)"/><circle cx="675.2" cy="642.6" r="3.3" fill="#00e5ff" fill-opacity="0.84" filter="url(#glowr1x221)"/><circle cx="370.1" cy="319.6" r="1.0" fill="#00e5ff" fill-opacity="0.50" filter="url(#glowr1x221)"/><path d="M426.5,157.6 Q443.0,492.9 335.3,857.6" stroke="#00e5ff" stroke-opacity="0.46" stroke-width="2.5" fill="none" filter="url(#glowr1x221)"/><path d="M398.7,342.5 Q375.5,525.3 536.0,685.3" stroke="#00e5ff" stroke-opacity="0.70" stroke-width="1.5" fill="none" filter="url(#glowr1x221)"/><path d="M468.0,145.5 Q454.8,543.4 563.0,886.4" stroke="#00e5ff" stroke-opacity="0.41" stroke-width="2.7" fill="none" filter="url(#glowr1x221)"/><path d="M599.8,180.4 Q567.9,462.2 358.3,691.3" stroke="#00e5ff" stroke-opacity="0.66" stroke-width="2.1" fill="none" filter="url(#glowr1x221)"/><path d="M638.2,186.6 Q645.8,451.9 658.6,688.3" stroke="#00e5ff" stroke-opacity="0.77" stroke-width="1.5" fill="none" filter="url(#glowr1x221)"/><polygon points="398.9,661.2 489.8,663.6 480.4,878.4 388.8,877.9" fill="url(#suitr1x221)" stroke="#ff44aa" stroke-width="2.2" filter="url(#skr1x221) url(#metalr1x221)"/><polygon points="398.3,662.8 489.2,663.0 480.4,877.9 385.7,877.8" fill="url(#carbonr1x221)"/><polygon points="392.9,722.7 494.7,724.2 485.5,786.7 385.6,788.7" fill="url(#bevelr1x221)" fill-opacity=".5" stroke="#ff44aa" stroke-width="1.4" filter="url(#skr1x221)"/><polygon points="510.0,664.1 600.8,662.3 612.1,879.0 519.5,878.5" fill="url(#suitr1x221)" stroke="#ff44aa" stroke-width="2.2" filter="url(#skr1x221) url(#metalr1x221)"/><polygon points="509.1,663.4 602.7,661.6 614.2,875.8 518.0,879.0" fill="url(#carbonr1x221)"/><polygon points="508.0,724.8 607.2,724.2 614.8,789.8 515.7,789.9" fill="url(#bevelr1x221)" fill-opacity=".5" stroke="#ff44aa" stroke-width="1.4" filter="url(#skr1x221)"/><rect x="391.3" y="839.4" width="100.3" height="24.7" fill="url(#bevelr1x221)" stroke="#ff44aa" stroke-width="1" filter="url(#skr1x221)"/><rect x="508.1"  y="839.0" width="100.3" height="24.7" fill="url(#bevelr1x221)" stroke="#ff44aa" stroke-width="1" filter="url(#skr1x221)"/><polygon points="368.3,877.0 497.1,879.1 503.6,920.5 362.1,922.5" fill="#880050" stroke="#ff44aa" stroke-width="2" filter="url(#skr1x221)"/><polygon points="502.8,876.0 629.2,877.1 636.4,920.7 496.7,919.8" fill="#880050" stroke="#ff44aa" stroke-width="2" filter="url(#skr1x221)"/><polygon points="304.9,631.7 694.7,632.8 638.5,682.9 363.4,683.7" fill="#ff44aa" fill-opacity=".52" stroke="#ff44aa" stroke-width="2" filter="url(#skr1x221)"/><rect x="463.7" y="637.7" width="72.0" height="42.0" fill="url(#bevelr1x221)" stroke="#ff44aa" stroke-width="1.4" filter="url(#glowr1x221)"/><rect x="484.9" y="641.0" width="28.0" height="22.0" rx="1" fill="rgba(255,255,255,.48)"/><polygon points="154.2,467.9 235.5,465.9 256.3,734.4 128.3,733.6" fill="url(#suitr1x221)" stroke="#ff44aa" stroke-width="2.2" filter="url(#skr1x221) url(#metalr1x221)"/><polygon points="172.2,433.7 251.7,431.4 244.1,510.7 159.8,512.4" fill="url(#bevelr1x221)" fill-opacity=".72" stroke="#ff44aa" stroke-width="2.2" filter="url(#skr1x221)"/><polygon points="162.0,623.4 243.4,623.7 238.1,659.6 164.2,661.9" fill="#ff44aa" fill-opacity=".42" stroke="#ff44aa" stroke-width="1" filter="url(#skr1x221)"/><polygon points="763.2,467.9 847.3,468.0 873.1,735.8 742.4,734.7" fill="url(#suitr1x221)" stroke="#ff44aa" stroke-width="2.2" filter="url(#skr1x221) url(#metalr1x221)"/><polygon points="745.5,431.5 825.8,431.8 838.7,510.9 755.3,509.3" fill="url(#bevelr1x221)" fill-opacity=".72" stroke="#ff44aa" stroke-width="2.2" filter="url(#skr1x221)"/><polygon points="757.4,620.7 837.2,621.5 835.4,661.1 759.9,659.5" fill="#ff44aa" fill-opacity=".42" stroke="#ff44aa" stroke-width="1" filter="url(#skr1x221)"/><rect x="118.5"  y="698.5" width="135.3" height="85.0" rx="4" fill="url(#bevelr1x221)" stroke="#ff44aa" stroke-width="1.8" filter="url(#skr1x221)"/><rect x="749.4"   y="699.3" width="135.3" height="85.0" rx="4" fill="url(#bevelr1x221)" stroke="#ff44aa" stroke-width="1.8" filter="url(#skr1x221)"/><line x1="148.8" y1="700.5" x2="149.6" y2="783.7" stroke="#ff44aa" stroke-opacity=".38" stroke-width="1"/><line x1="777.2" y1="703.2" x2="776.6" y2="782.8" stroke="#ff44aa" stroke-opacity=".38" stroke-width="1"/><line x1="181.7" y1="700.9" x2="181.7" y2="785.2" stroke="#ff44aa" stroke-opacity=".38" stroke-width="1"/><line x1="811.7" y1="701.3" x2="811.2" y2="785.2" stroke="#ff44aa" stroke-opacity=".38" stroke-width="1"/><line x1="214.0" y1="701.4" x2="216.1" y2="782.4" stroke="#ff44aa" stroke-opacity=".38" stroke-width="1"/><line x1="843.1" y1="700.1" x2="845.3" y2="783.8" stroke="#ff44aa" stroke-opacity=".38" stroke-width="1"/><polygon points="233.4,418.7 764.1,416.2 720.9,663.0 276.9,663.0" fill="url(#suitr1x221)" stroke="#ff44aa" stroke-width="2.6" filter="url(#skr1x221) url(#metalr1x221)"/><polygon points="234.8,418.2 765.9,415.8 722.0,664.3 278.1,662.3" fill="url(#carbonr1x221)"/><polygon points="366.2,416.0 633.0,418.4 610.7,517.2 387.1,516.5" fill="url(#suitHir1x221)"/><line x1="363.7" y1="470.3" x2="637.4" y2="472.5" stroke="#ff44aa" stroke-opacity=".52" stroke-width="1.3" filter="url(#skr1x221)"/><line x1="399.0" y1="548.3" x2="599.0" y2="549.6" stroke="#ff44aa" stroke-opacity=".52" stroke-width="1.3" filter="url(#skr1x221)"/><line x1="266.6" y1="492.6" x2="320.7" y2="492.6" stroke="#ff44aa" stroke-opacity=".62" stroke-width="1.8"/><line x1="679.5" y1="490.0" x2="733.3" y2="492.7" stroke="#ff44aa" stroke-opacity=".62" stroke-width="1.8"/><line x1="268.1" y1="523.7" x2="320.9" y2="523.2" stroke="#ff44aa" stroke-opacity=".62" stroke-width="1.8"/><line x1="680.2" y1="521.9" x2="732.1" y2="523.4" stroke="#ff44aa" stroke-opacity=".62" stroke-width="1.8"/><line x1="266.1" y1="554.5" x2="320.6" y2="554.9" stroke="#ff44aa" stroke-opacity=".62" stroke-width="1.8"/><line x1="678.9" y1="556.3" x2="732.4" y2="556.2" stroke="#ff44aa" stroke-opacity=".62" stroke-width="1.8"/><line x1="266.2" y1="586.5" x2="321.5" y2="586.8" stroke="#ff44aa" stroke-opacity=".62" stroke-width="1.8"/><line x1="679.6" y1="586.2" x2="734.9" y2="585.0" stroke="#ff44aa" stroke-opacity=".62" stroke-width="1.8"/><g filter="url(#glowr1x221)"><circle cx="501.5" cy="501.3" r="31.3" fill="#ff44aa" stroke="#0d1520" stroke-width="1.4" filter="url(#skr1x221)"/><circle cx="489.1" cy="497.4" r="7.0" fill="#0d1520"/><circle cx="510.4" cy="496.1" r="7.0" fill="#0d1520"/><rect x="483.4" y="520.5" width="9.3" height="17.4" rx="1" fill="#ff44aa" stroke="#0d1520" stroke-width=".6"/><rect x="497.6" y="520.6" width="9.3" height="17.4" rx="1" fill="#ff44aa" stroke="#0d1520" stroke-width=".6"/><rect x="506.4" y="522.2" width="9.3" height="17.4" rx="1" fill="#ff44aa" stroke="#0d1520" stroke-width=".6"/></g><g><rect x="35.6289156788401" y="420.7725652100518" width="148.0" height="82.0" rx="5" fill="url(#gunmetalr1x221)" stroke="#ff44aa" stroke-width="2" filter="url(#wmr1x221)"/><rect x="34.44376692878079" y="422.93757453411814" width="148.0" height="82.0" rx="5" fill="url(#carbonr1x221)"/><rect x="41.53185992151496" y="403.91098767546936" width="90.0" height="22.0" rx="3" fill="url(#barrelr1x221)" stroke="#ff44aa" stroke-width="1" filter="url(#wmr1x221)"/><circle cx="80.66754523891953" cy="415.2273382252082" r="15.0" fill="#ff44aa" opacity=".8" filter="url(#glowr1x221)"/><circle cx="82.74147156359625" cy="415.72702107867224" r="6.0" fill="rgba(255,255,255,.9)"/><rect x="52.725407953970105" y="455.710036036279" width="78.0" height="36.0" rx="5" fill="url(#barrelr1x221)" stroke="#ff44aa" stroke-width="1.2" filter="url(#wmr1x221)"/><circle cx="-18.20850145729262" cy="473.1643668641336" r="18.0" fill="#ff44aa" filter="url(#glowr1x221)" opacity=".88"/><circle cx="-18.045616775341365" cy="472.36904228292406" r="7.0" fill="#ffffff"/><rect x="79.12399741070342" y="502.5557585428469" width="44.0" height="42.0" rx="3" fill="url(#gunmetalr1x221)" stroke="#ff44aa" stroke-width="1" filter="url(#wmr1x221)"/><rect x="37.795964597668466" y="423.8704576557502" width="90.0" height="10.0" rx="2" fill="rgba(255,255,255,.22)"/><line x1="62.7902339759655" y1="485.21552886646236" x2="62.291661924160984" y2="519.1230351943523" stroke="#ff44aa" stroke-opacity=".5" stroke-width="1.2"/><line x1="76.97995054669676" y1="486.3740026229061" x2="78.16520251067352" y2="519.5261229773051" stroke="#ff44aa" stroke-opacity=".5" stroke-width="1.2"/><line x1="94.48777059189972" y1="485.10733622843395" x2="95.15034950910133" y2="519.8426417334005" stroke="#ff44aa" stroke-opacity=".5" stroke-width="1.2"/></g><rect x="448.6323522415012" y="558.5306554246694" width="100.0"  height="56.0" fill="#880050" stroke="#ff44aa" stroke-width="2.2" filter="url(#skr1x221)"/><rect x="424.4029377183877" y="576.7993116193451" width="152.0" height="26.0" fill="url(#bevelr1x221)" fill-opacity=".65" stroke="#ff44aa" stroke-width="1.2" filter="url(#skr1x221)"/><polygon points="307.5,380.9 350.7,294.4 500.3,277.1 648.9,295.9 691.4,381.5 668.2,502.2 500.9,563.9 331.8,504.3" fill="url(#suitr1x221)" stroke="#ff44aa" stroke-width="2.8" filter="url(#skr1x221) url(#metalr1x221)"/><polygon points="306.8,380.8 351.4,295.9 499.2,277.8 649.2,293.1 690.5,379.0 667.6,505.1 501.7,564.0 331.1,504.6" fill="url(#carbonr1x221)"/><polygon points="380.2,303.1 499.8,285.0 618.8,302.6 606.8,378.9 391.6,382.3" fill="url(#suitHir1x221)"/><polygon points="382.3,379.9 365.6,425.7 432.9,502.4 499.5,530.0 568.9,503.2 633.5,427.4 619.1,379.2" fill="#0d1520" fill-opacity=".88" stroke="#ff44aa" stroke-width="1.8" filter="url(#skr1x221)"/><polygon points="380.7,412.6 475.5,411.2 486.2,441.6 388.8,441.4" fill="#ff44aa" filter="url(#glowr1x221)"/><polygon points="522.9,412.1 620.3,412.7 612.5,439.4 514.9,439.4" fill="#ff44aa" filter="url(#glowr1x221)"/><ellipse cx="430.9" cy="425.7" rx="38.4"  ry="8.2" fill="#ffffff" opacity=".88"/><ellipse cx="569.1" cy="425.7" rx="38.4"  ry="8.2" fill="#ffffff" opacity=".88"/><line x1="483.09808765077963" y1="412.6883685803041" x2="516.5095087846182" y2="413.62153463540596" stroke="#ff44aa" stroke-opacity=".52" stroke-width="2"/><line x1="485.57428688570855" y1="436.98888689568264" x2="516.7284439931997" y2="437.04581563035026" stroke="#ff44aa" stroke-opacity=".52" stroke-width="2"/><line x1="499.5766339759342" y1="455.00960486419496" x2="501.38767780894415" y2="483.4196416797117" stroke="#ff44aa" stroke-opacity=".58" stroke-width="2.2" filter="url(#skr1x221)"/><line x1="454.00322884850203" y1="492.52250890666613" x2="454.057408629898" y2="521.2054980889894" stroke="#ff44aa" stroke-opacity=".52" stroke-width="1.5" filter="url(#skr1x221)"/><line x1="478.73504610950124" y1="492.75588922146704" x2="476.92721440786494" y2="518.3903683674522" stroke="#ff44aa" stroke-opacity=".52" stroke-width="1.5" filter="url(#skr1x221)"/><line x1="500.88173159426077" y1="492.1016557117924" x2="499.6469023644924" y2="518.3808460501954" stroke="#ff44aa" stroke-opacity=".52" stroke-width="1.5" filter="url(#skr1x221)"/><line x1="524.3838978085294" y1="491.6138428703881" x2="521.7165242819674" y2="518.9634065856226" stroke="#ff44aa" stroke-opacity=".52" stroke-width="1.5" filter="url(#skr1x221)"/><line x1="545.204717039708" y1="491.5287709419615" x2="546.4614427124337" y2="521.0276429365389" stroke="#ff44aa" stroke-opacity=".52" stroke-width="1.5" filter="url(#skr1x221)"/><polygon points="431.7,504.2 567.7,504.1 554.8,556.7 447.7,556.7" fill="#880050" fill-opacity=".72" stroke="#ff44aa" stroke-width="1.3" filter="url(#skr1x221)"/><path d="M396.6077328857779 348.86863660626113 C343.3408407807723 155.22359468014912 449.3659369231388 228.74893834954128 475.4271911574155 321.5999117896892" fill="#ff44aa" stroke="#ff44aa" stroke-width="2.8" filter="url(#skr1x221)"/><path d="M602.7667491029204 346.44277712795883 C657.1497772690468 154.05788230123 549.4295251834951 229.54639064166696 524.2310090452805 321.4502237319946" fill="#ff44aa" stroke="#ff44aa" stroke-width="2.8" filter="url(#skr1x221)"/><path d="M393.20335050217807 424.32138293366876 L461.28313535461206 389.6910742075183 L501.0540506555699 426.50353111736473 L539.2740321355872 390.8742787717842 L607.139777304586 424.64874629750847" stroke="#ff44aa" stroke-width="2.2" fill="none" filter="url(#skr1x221)"/><text x="30.0"  y="975.0" font-family="monospace" font-weight="bold" font-size="22.0" fill="rgba(255,255,255,.22)">#0001</text><text x="500.0"   y="975.0" text-anchor="middle" font-family="monospace" font-weight="bold" font-size="22.0" fill="#ff44aa" fill-opacity=".48">SAKURA RANGER</text><text x="970.0" y="975.0" text-anchor="end"    font-family="monospace" font-weight="bold" font-size="22.0" fill="#ff44aa" fill-opacity=".32">MECH RANGERS</text></svg>