<svg xmlns="http://www.w3.org/2000/svg" viewBox="0 0 1000 1000" width="1000" height="1000" shape-rendering="geometricPrecision"><defs>

  <!-- Scene gradients -->
  <radialGradient id="bgr1x2213" cx="50%" cy="42%" r="72%">
    <stop offset="0%"   stop-color="#1a2814"/>
    <stop offset="100%" stop-color="#0d1520"/>
  </radialGradient>
  <linearGradient id="suitr1x2213" x1="8%" y1="0%" x2="92%" y2="100%">
    <stop offset="0%"   stop-color="#ffcc00" stop-opacity=".95"/>
    <stop offset="45%"  stop-color="#a07000"/>
    <stop offset="100%" stop-color="#0d1520"/>
  </linearGradient>
  <linearGradient id="suitHir1x2213" x1="0%" y1="0%" x2="0%" y2="100%">
    <stop offset="0%"   stop-color="rgba(255,255,255,.28)"/>
    <stop offset="60%"  stop-color="rgba(255,255,255,.04)"/>
    <stop offset="100%" stop-color="rgba(255,255,255,0)"/>
  </linearGradient>
  <!-- Bevel: bright top, dark bottom for armour panels -->
  <linearGradient id="bevelr1x2213" x1="0%" y1="0%" x2="0%" y2="100%">
    <stop offset="0%"   stop-color="rgba(255,255,255,.55)"/>
    <stop offset="30%"  stop-color="#ffcc00"/>
    <stop offset="70%"  stop-color="#a07000"/>
    <stop offset="100%" stop-color="rgba(0,0,0,.5)"/>
  </linearGradient>

  <!-- Weapon: cold steel blade sweep -->
  <linearGradient id="blader1x2213" x1="0%" y1="0%" x2="100%" y2="0%">
    <stop offset="0%"   stop-color="#0e0e20"/>
    <stop offset="16%"  stop-color="#3e3e58"/>
    <stop offset="34%"  stop-color="#c8c8e0"/>
    <stop offset="50%"  stop-color="#f5f5ff"/>
    <stop offset="66%"  stop-color="#b8b8d0"/>
    <stop offset="84%"  stop-color="#2e2e48"/>
    <stop offset="100%" stop-color="#08080e"/>
  </linearGradient>
  <!-- Blade tip brightening -->
  <linearGradient id="bladeTipr1x2213" x1="0%" y1="100%" x2="0%" y2="0%">
    <stop offset="0%"   stop-color="rgba(255,255,255,0)"/>
    <stop offset="55%"  stop-color="rgba(255,255,255,.1)"/>
    <stop offset="100%" stop-color="rgba(255,255,255,.55)"/>
  </linearGradient>
  <!-- Gunmetal anodised — blaster body -->
  <linearGradient id="gunmetalr1x2213" x1="0%" y1="0%" x2="0%" y2="100%">
    <stop offset="0%"   stop-color="#46465e"/>
    <stop offset="18%"  stop-color="#828296"/>
    <stop offset="42%"  stop-color="#26263a"/>
    <stop offset="72%"  stop-color="#16162a"/>
    <stop offset="100%" stop-color="#0c0c18"/>
  </linearGradient>
  <!-- Brushed steel tube — barrel/rod -->
  <linearGradient id="barrelr1x2213" x1="0%" y1="0%" x2="100%" y2="0%">
    <stop offset="0%"   stop-color="#0a0a14"/>
    <stop offset="24%"  stop-color="#585875"/>
    <stop offset="50%"  stop-color="#a8a8c8"/>
    <stop offset="76%"  stop-color="#383852"/>
    <stop offset="100%" stop-color="#0a0a14"/>
  </linearGradient>
  <!-- Chrome rod — lance shaft -->
  <linearGradient id="chromer1x2213" x1="0%" y1="0%" x2="100%" y2="0%">
    <stop offset="0%"   stop-color="#0c0c18"/>
    <stop offset="20%"  stop-color="#686888"/>
    <stop offset="44%"  stop-color="#e0e0f0"/>
    <stop offset="56%"  stop-color="#c0c0d8"/>
    <stop offset="80%"  stop-color="#28283e"/>
    <stop offset="100%" stop-color="#0c0c18"/>
  </linearGradient>
  <!-- Titanium plate — shield face -->
  <linearGradient id="titaniumr1x2213" x1="0%" y1="0%" x2="100%" y2="100%">
    <stop offset="0%"   stop-color="#585878"/>
    <stop offset="28%"  stop-color="#ffcc00" stop-opacity=".88"/>
    <stop offset="55%"  stop-color="#a07000"/>
    <stop offset="80%"  stop-color="#181828"/>
    <stop offset="100%" stop-color="#0a0a18"/>
  </linearGradient>
  <!-- Artillery black-chrome — cannon body -->
  <linearGradient id="artilleryr1x2213" x1="0%" y1="0%" x2="0%" y2="100%">
    <stop offset="0%"   stop-color="#383850"/>
    <stop offset="14%"  stop-color="#78789a"/>
    <stop offset="36%"  stop-color="#202034"/>
    <stop offset="65%"  stop-color="#14141e"/>
    <stop offset="100%" stop-color="#0a0a12"/>
  </linearGradient>
  <!-- Energy orb — staff -->
  <radialGradient id="orbr1x2213" cx="35%" cy="35%" r="65%">
    <stop offset="0%"   stop-color="rgba(255,255,255,.9)"/>
    <stop offset="30%"  stop-color="#ffcc00"/>
    <stop offset="68%"  stop-color="#a07000"/>
    <stop offset="100%" stop-color="rgba(0,0,0,.6)"/>
  </radialGradient>
  <!-- Knuckle plate chrome -->
  <linearGradient id="knuckler1x2213" x1="0%" y1="0%" x2="0%" y2="100%">
    <stop offset="0%"   stop-color="#888aaa"/>
    <stop offset="32%"  stop-color="#ffcc00" stop-opacity=".8"/>
    <stop offset="62%"  stop-color="#1a1a2c"/>
    <stop offset="100%" stop-color="#0a0a14"/>
  </linearGradient>

  <!-- Carbon fibre weave texture overlay -->
  <pattern id="carbonr1x2213" width="6" height="6" patternUnits="userSpaceOnUse">
    <rect width="6" height="6" fill="rgba(0,0,0,.08)"/>
    <rect x="0" y="0" width="3" height="3" fill="rgba(255,255,255,.022)"/>
    <rect x="3" y="3" width="3" height="3" fill="rgba(255,255,255,.022)"/>
    <line x1="0" y1="0" x2="3" y2="3" stroke="rgba(255,255,255,.038)" stroke-width=".5"/>
    <line x1="3" y1="0" x2="6" y2="3" stroke="rgba(0,0,0,.055)"       stroke-width=".5"/>
    <line x1="0" y1="3" x2="3" y2="6" stroke="rgba(0,0,0,.055)"       stroke-width=".5"/>
    <line x1="3" y1="3" x2="6" y2="6" stroke="rgba(255,255,255,.038)" stroke-width=".5"/>
  </pattern>

  <!-- Specular metal sheen on armour panels -->
  <filter id="metalr1x2213" x="-5%" y="-5%" width="110%" height="110%">
    <feSpecularLighting surfaceScale="4" specularConstant="1.8"
        specularExponent="42" lighting-color="#ffffff" result="spec">
      <feDistantLight elevation="52" azimuth="38"/>
    </feSpecularLighting>
    <feComposite in="spec" in2="SourceGraphic" operator="in" result="sm"/>
    <feComposite in="SourceGraphic" in2="sm" operator="arithmetic" k1="0" k2="1" k3="0.55" k4="0"/>
  </filter>

  <!-- Sharper specular for weapons — heavier glare -->
  <filter id="wmr1x2213" x="-8%" y="-8%" width="116%" height="116%">
    <feSpecularLighting surfaceScale="6" specularConstant="2.4"
        specularExponent="65" lighting-color="#ffffff" result="spec">
      <feDistantLight elevation="44" azimuth="28"/>
    </feSpecularLighting>
    <feComposite in="spec" in2="SourceGraphic" operator="in" result="sm"/>
    <feComposite in="SourceGraphic" in2="sm" operator="arithmetic" k1="0" k2="1" k3="0.78" k4="0"/>
  </filter>

  <!-- Sketch wobble -->
  <filter id="skr1x2213" x="-8%" y="-8%" width="116%" height="116%">
    <feTurbulence type="fractalNoise" baseFrequency="0.038"
        numOctaves="3" seed="58" result="noise"/>
    <feDisplacementMap in="SourceGraphic" in2="noise" scale="2.6"
        xChannelSelector="R" yChannelSelector="G" result="w"/>
    <feComposite in="w" in2="SourceGraphic" operator="atop"/>
  </filter>

  <!-- Glow: sharp accent -->
  <filter id="glowr1x2213" x="-20%" y="-20%" width="140%" height="140%">
    <feGaussianBlur stdDeviation="3.5" result="b"/>
    <feColorMatrix in="b" type="matrix"
        values="0 0 0 0 1  0 0 0 0 1  0 0 0 0 1  0 0 0 1.8 0" result="boost"/>
    <feMerge><feMergeNode in="boost"/><feMergeNode in="SourceGraphic"/></feMerge>
  </filter>

  <!-- Bloom: wide soft -->
  <filter id="bloomr1x2213" x="-40%" y="-40%" width="180%" height="180%">
    <feGaussianBlur stdDeviation="11" result="b"/>
    <feMerge><feMergeNode in="b"/><feMergeNode in="SourceGraphic"/></feMerge>
  </filter>

  </defs><rect width="1000" height="1000" fill="url(#bgr1x2213)"/><ellipse cx="500.0" cy="892.0" rx="350.0" ry="65.0" fill="rgba(0,0,0,.7)" filter="url(#bloomr1x2213)"/><ellipse cx="500.0" cy="889.0" rx="220.0" ry="34.0" fill="rgba(0,0,0,.45)"/><polygon points="397.5,661.4 489.2,661.1 480.5,878.5 387.2,878.6" fill="url(#suitr1x2213)" stroke="#ffcc00" stroke-width="2.2" filter="url(#skr1x2213) url(#metalr1x2213)"/><polygon points="400.5,663.4 488.1,663.9 480.9,878.5 385.7,879.3" fill="url(#carbonr1x2213)"/><polygon points="391.0,724.7 494.4,724.5 482.5,788.7 383.8,787.0" fill="url(#bevelr1x2213)" fill-opacity=".5" stroke="#ffcc00" stroke-width="1.4" filter="url(#skr1x2213)"/><polygon points="509.2,664.2 600.8,663.5 614.3,877.5 520.4,877.2" fill="url(#suitr1x2213)" stroke="#ffcc00" stroke-width="2.2" filter="url(#skr1x2213) url(#metalr1x2213)"/><polygon points="510.2,660.9 602.4,661.6 614.4,876.8 520.7,877.8" fill="url(#carbonr1x2213)"/><polygon points="505.6,724.3 605.7,725.5 616.0,787.0 515.0,787.5" fill="url(#bevelr1x2213)" fill-opacity=".5" stroke="#ffcc00" stroke-width="1.4" filter="url(#skr1x2213)"/><rect x="392.1" y="838.1" width="100.3" height="24.7" fill="url(#bevelr1x2213)" stroke="#ffcc00" stroke-width="1" filter="url(#skr1x2213)"/><rect x="507.7"  y="840.1" width="100.3" height="24.7" fill="url(#bevelr1x2213)" stroke="#ffcc00" stroke-width="1" filter="url(#skr1x2213)"/><polygon points="370.7,877.6 495.5,878.5 503.6,922.9 362.3,921.5" fill="#a07000" stroke="#ffcc00" stroke-width="2" filter="url(#skr1x2213)"/><polygon points="502.7,877.6 628.8,876.1 636.3,920.6 495.3,922.4" fill="#a07000" stroke="#ffcc00" stroke-width="2" filter="url(#skr1x2213)"/><polygon points="305.1,633.5 695.6,632.1 638.3,682.9 363.3,683.7" fill="#ffcc00" fill-opacity=".52" stroke="#ffcc00" stroke-width="2" filter="url(#skr1x2213)"/><rect x="464.2" y="639.3" width="72.0" height="42.0" fill="url(#bevelr1x2213)" stroke="#ffcc00" stroke-width="1.4" filter="url(#glowr1x2213)"/><rect x="485.8" y="640.3" width="28.0" height="22.0" rx="1" fill="rgba(255,255,255,.48)"/><polygon points="153.5,466.1 234.1,466.8 257.3,734.1 129.3,734.5" fill="url(#suitr1x2213)" stroke="#ffcc00" stroke-width="2.2" filter="url(#skr1x2213) url(#metalr1x2213)"/><polygon points="175.3,433.9 254.7,431.5 243.2,510.3 158.7,511.9" fill="url(#bevelr1x2213)" fill-opacity=".72" stroke="#ffcc00" stroke-width="2.2" filter="url(#skr1x2213)"/><polygon points="162.2,622.5 242.2,621.3 239.3,662.0 165.9,660.3" fill="#ffcc00" fill-opacity=".42" stroke="#ffcc00" stroke-width="1" filter="url(#skr1x2213)"/><polygon points="765.9,466.6 845.3,465.3 873.4,733.9 741.9,736.5" fill="url(#suitr1x2213)" stroke="#ffcc00" stroke-width="2.2" filter="url(#skr1x2213) url(#metalr1x2213)"/><polygon points="748.6,431.0 824.7,433.1 839.9,509.3 758.0,510.7" fill="url(#bevelr1x2213)" fill-opacity=".72" stroke="#ffcc00" stroke-width="2.2" filter="url(#skr1x2213)"/><polygon points="757.0,621.5 840.2,622.6 836.2,661.0 761.9,659.4" fill="#ffcc00" fill-opacity=".42" stroke="#ffcc00" stroke-width="1" filter="url(#skr1x2213)"/><rect x="121.0"  y="701.7" width="135.3" height="85.0" rx="4" fill="url(#bevelr1x2213)" stroke="#ffcc00" stroke-width="1.8" filter="url(#skr1x2213)"/><rect x="749.9"   y="700.3" width="135.3" height="85.0" rx="4" fill="url(#bevelr1x2213)" stroke="#ffcc00" stroke-width="1.8" filter="url(#skr1x2213)"/><line x1="149.2" y1="700.3" x2="150.5" y2="783.2" stroke="#ffcc00" stroke-opacity=".38" stroke-width="1"/><line x1="779.2" y1="700.7" x2="779.0" y2="783.1" stroke="#ffcc00" stroke-opacity=".38" stroke-width="1"/><line x1="181.3" y1="701.1" x2="182.0" y2="784.7" stroke="#ffcc00" stroke-opacity=".38" stroke-width="1"/><line x1="810.9" y1="703.5" x2="810.1" y2="783.7" stroke="#ffcc00" stroke-opacity=".38" stroke-width="1"/><line x1="215.0" y1="701.1" x2="215.9" y2="784.7" stroke="#ffcc00" stroke-opacity=".38" stroke-width="1"/><line x1="844.9" y1="702.8" x2="843.9" y2="784.8" stroke="#ffcc00" stroke-opacity=".38" stroke-width="1"/><polygon points="234.2,417.8 764.9,416.8 723.5,661.2 278.7,664.1" fill="url(#suitr1x2213)" stroke="#ffcc00" stroke-width="2.6" filter="url(#skr1x2213) url(#metalr1x2213)"/><polygon points="236.8,415.9 764.5,417.4 724.1,664.2 276.5,664.3" fill="url(#carbonr1x2213)"/><polygon points="365.9,417.7 633.0,418.4 610.5,517.0 387.5,516.5" fill="url(#suitHir1x2213)"/><line x1="363.2" y1="470.8" x2="638.6" y2="470.9" stroke="#ffcc00" stroke-opacity=".52" stroke-width="1.3" filter="url(#skr1x2213)"/><line x1="398.4" y1="550.2" x2="599.0" y2="548.5" stroke="#ffcc00" stroke-opacity=".52" stroke-width="1.3" filter="url(#skr1x2213)"/><line x1="267.3" y1="491.2" x2="318.1" y2="491.6" stroke="#ffcc00" stroke-opacity=".62" stroke-width="1.8"/><line x1="679.9" y1="491.5" x2="731.9" y2="491.2" stroke="#ffcc00" stroke-opacity=".62" stroke-width="1.8"/><line x1="266.7" y1="524.6" x2="319.0" y2="523.5" stroke="#ffcc00" stroke-opacity=".62" stroke-width="1.8"/><line x1="682.0" y1="523.6" x2="732.5" y2="521.5" stroke="#ffcc00" stroke-opacity=".62" stroke-width="1.8"/><line x1="267.2" y1="555.4" x2="320.3" y2="553.3" stroke="#ffcc00" stroke-opacity=".62" stroke-width="1.8"/><line x1="679.4" y1="553.4" x2="731.7" y2="554.0" stroke="#ffcc00" stroke-opacity=".62" stroke-width="1.8"/><line x1="268.0" y1="587.4" x2="319.8" y2="587.4" stroke="#ffcc00" stroke-opacity=".62" stroke-width="1.8"/><line x1="678.6" y1="586.9" x2="732.3" y2="587.2" stroke="#ffcc00" stroke-opacity=".62" stroke-width="1.8"/><g filter="url(#glowr1x2213)"><polygon points="481.7,452.5 512.9,507.3 499.7,504.4 519.0,568.0 486.7,514.8 499.4,515.5" fill="#ffcc00" stroke="#0d1520" stroke-width="1.4" filter="url(#skr1x2213)"/><polygon points="484.2,453.6 512.1,507.6 500.1,505.3 517.8,567.8 488.4,517.0 498.3,515.2" fill="url(#suitHir1x2213)" opacity=".4"/></g><g><polygon points="868.8,692.8 899.2,692.9 833.3,271.9" fill="url(#blader1x2213)" stroke="#ffcc00" stroke-width="1.8" filter="url(#wmr1x2213)"/><line x1="892.8" y1="691.4" x2="841.8" y2="271.4" stroke="rgba(255,255,255,.58)" stroke-width="1.3"/><polygon points="910.3,690.7 944.1,691.2 986.5,273.0" fill="url(#blader1x2213)" stroke="#ffcc00" stroke-width="1.8" filter="url(#wmr1x2213)"/><line x1="941.8" y1="691.4" x2="979.8" y2="271.4" stroke="rgba(255,255,255,.58)" stroke-width="1.3"/><rect x="862.7078320419974" y="681.3298668500967" width="96.0" height="26.0" rx="2" fill="url(#bevelr1x2213)" stroke="#ffcc00" stroke-width="1.4" filter="url(#wmr1x2213)"/></g><rect x="449.9475212470628" y="558.6593542329035" width="100.0"  height="56.0" fill="#a07000" stroke="#ffcc00" stroke-width="2.2" filter="url(#skr1x2213)"/><rect x="424.4426461858675" y="576.1210024900735" width="152.0" height="26.0" fill="url(#bevelr1x2213)" fill-opacity=".65" stroke="#ffcc00" stroke-width="1.2" filter="url(#skr1x2213)"/><polygon points="308.6,382.2 349.1,292.9 501.3,279.7 651.5,295.3 690.5,379.2 668.1,504.2 499.3,565.9 330.5,503.9" fill="url(#suitr1x2213)" stroke="#ffcc00" stroke-width="2.8" filter="url(#skr1x2213) url(#metalr1x2213)"/><polygon points="309.4,382.3 349.8,294.9 501.3,277.5 648.3,294.5 690.3,381.1 670.4,503.7 500.6,566.4 329.8,503.5" fill="url(#carbonr1x2213)"/><polygon points="381.3,303.1 500.4,285.5 617.6,302.8 606.3,381.0 390.9,381.5" fill="url(#suitHir1x2213)"/><polygon points="381.6,380.3 365.0,427.3 434.5,504.2 498.3,526.5 567.1,503.9 634.8,427.3 620.7,380.2" fill="#0d1520" fill-opacity=".88" stroke="#ffcc00" stroke-width="1.8" filter="url(#skr1x2213)"/><polygon points="379.7,412.5 477.5,412.1 484.6,439.8 390.0,438.4" fill="#ffcc00" filter="url(#glowr1x2213)"/><polygon points="524.6,411.3 618.2,411.5 612.0,438.5 517.1,441.8" fill="#ffcc00" filter="url(#glowr1x2213)"/><ellipse cx="430.9" cy="425.7" rx="38.4"  ry="8.2" fill="#ffffff" opacity=".88"/><ellipse cx="569.1" cy="425.7" rx="38.4"  ry="8.2" fill="#ffffff" opacity=".88"/><line x1="485.90301504299043" y1="412.0312350469641" x2="513.8491914316453" y2="414.57767262132836" stroke="#ffcc00" stroke-opacity=".52" stroke-width="2"/><line x1="486.3372080484964" y1="436.46519850539045" x2="513.9328597701527" y2="439.54121309733017" stroke="#ffcc00" stroke-opacity=".52" stroke-width="2"/><line x1="501.64939220193776" y1="452.70852394951504" x2="499.9367487873882" y2="482.04668211890385" stroke="#ffcc00" stroke-opacity=".58" stroke-width="2.2" filter="url(#skr1x2213)"/><line x1="452.7998225321807" y1="492.7834723263978" x2="453.3437477209419" y2="520.3088996631093" stroke="#ffcc00" stroke-opacity=".52" stroke-width="1.5" filter="url(#skr1x2213)"/><line x1="477.4534616448357" y1="492.65017845239487" x2="476.86242595421146" y2="519.8025655222125" stroke="#ffcc00" stroke-opacity=".52" stroke-width="1.5" filter="url(#skr1x2213)"/><line x1="500.78465727837755" y1="490.2647845696657" x2="499.5055657970719" y2="519.1483079330064" stroke="#ffcc00" stroke-opacity=".52" stroke-width="1.5" filter="url(#skr1x2213)"/><line x1="522.7979757058993" y1="491.76423520660023" x2="522.9066200648061" y2="519.2651073095388" stroke="#ffcc00" stroke-opacity=".52" stroke-width="1.5" filter="url(#skr1x2213)"/><line x1="545.0485447668657" y1="491.4039674153551" x2="545.4542278158665" y2="520.2219319049269" stroke="#ffcc00" stroke-opacity=".52" stroke-width="1.5" filter="url(#skr1x2213)"/><polygon points="434.2,502.1 565.6,503.1 553.2,555.5 445.3,558.4" fill="#a07000" fill-opacity=".72" stroke="#ffcc00" stroke-width="1.3" filter="url(#skr1x2213)"/><path d="M395.44095987172796 348.2022088104859 C343.510468531996 154.7749405187555 451.42448417462407 227.20815207129345 475.23972367109735 320.6457647413015" fill="#ffcc00" stroke="#ffcc00" stroke-width="2.8" filter="url(#skr1x2213)"/><path d="M605.3762060514838 348.9306136698462 C658.7472796682828 155.90029451670128 548.3975480662472 229.2609834574163 526.3048338508606 322.1219927564263" fill="#ffcc00" stroke="#ffcc00" stroke-width="2.8" filter="url(#skr1x2213)"/><path d="M394.0321046018228 424.0840767608955 L460.70011666854845 390.8137021859177 L499.680400612019 425.724170547165 L539.26191887483 390.0669095885009 L606.8753863486274 426.04848334416744" stroke="#ffcc00" stroke-width="2.2" fill="none" filter="url(#skr1x2213)"/><text x="30.0"  y="975.0" font-family="monospace" font-weight="bold" font-size="22.0" fill="rgba(255,255,255,.22)">#0001</text><text x="500.0"   y="975.0" text-anchor="middle" font-family="monospace" font-weight="bold" font-size="22.0" fill="#ffcc00" fill-opacity=".48">NOVA RANGER</text><text x="970.0" y="975.0" text-anchor="end"    font-family="monospace" font-weight="bold" font-size="22.0" fill="#ffcc00" fill-opacity=".32">MECH RANGERS</text></svg>