<svg xmlns="http://www.w3.org/2000/svg" viewBox="0 0 1000 1000" width="1000" height="1000" shape-rendering="geometricPrecision"><defs>

  <!-- Scene gradients -->
  <radialGradient id="bgr1x2248" cx="50%" cy="42%" r="72%">
    <stop offset="0%"   stop-color="#1e0d00"/>
    <stop offset="100%" stop-color="#140900"/>
  </radialGradient>
  <linearGradient id="suitr1x2248" x1="8%" y1="0%" x2="92%" y2="100%">
    <stop offset="0%"   stop-color="#00ff60" stop-opacity=".95"/>
    <stop offset="45%"  stop-color="#00441e"/>
    <stop offset="100%" stop-color="#140900"/>
  </linearGradient>
  <linearGradient id="suitHir1x2248" x1="0%" y1="0%" x2="0%" y2="100%">
    <stop offset="0%"   stop-color="rgba(255,255,255,.28)"/>
    <stop offset="60%"  stop-color="rgba(255,255,255,.04)"/>
    <stop offset="100%" stop-color="rgba(255,255,255,0)"/>
  </linearGradient>
  <!-- Bevel: bright top, dark bottom for armour panels -->
  <linearGradient id="bevelr1x2248" x1="0%" y1="0%" x2="0%" y2="100%">
    <stop offset="0%"   stop-color="rgba(255,255,255,.55)"/>
    <stop offset="30%"  stop-color="#00ff60"/>
    <stop offset="70%"  stop-color="#00441e"/>
    <stop offset="100%" stop-color="rgba(0,0,0,.5)"/>
  </linearGradient>

  <!-- Weapon: cold steel blade sweep -->
  <linearGradient id="blader1x2248" x1="0%" y1="0%" x2="100%" y2="0%">
    <stop offset="0%"   stop-color="#0e0e20"/>
    <stop offset="16%"  stop-color="#3e3e58"/>
    <stop offset="34%"  stop-color="#c8c8e0"/>
    <stop offset="50%"  stop-color="#f5f5ff"/>
    <stop offset="66%"  stop-color="#b8b8d0"/>
    <stop offset="84%"  stop-color="#2e2e48"/>
    <stop offset="100%" stop-color="#08080e"/>
  </linearGradient>
  <!-- Blade tip brightening -->
  <linearGradient id="bladeTipr1x2248" x1="0%" y1="100%" x2="0%" y2="0%">
    <stop offset="0%"   stop-color="rgba(255,255,255,0)"/>
    <stop offset="55%"  stop-color="rgba(255,255,255,.1)"/>
    <stop offset="100%" stop-color="rgba(255,255,255,.55)"/>
  </linearGradient>
  <!-- Gunmetal anodised — blaster body -->
  <linearGradient id="gunmetalr1x2248" x1="0%" y1="0%" x2="0%" y2="100%">
    <stop offset="0%"   stop-color="#46465e"/>
    <stop offset="18%"  stop-color="#828296"/>
    <stop offset="42%"  stop-color="#26263a"/>
    <stop offset="72%"  stop-color="#16162a"/>
    <stop offset="100%" stop-color="#0c0c18"/>
  </linearGradient>
  <!-- Brushed steel tube — barrel/rod -->
  <linearGradient id="barrelr1x2248" x1="0%" y1="0%" x2="100%" y2="0%">
    <stop offset="0%"   stop-color="#0a0a14"/>
    <stop offset="24%"  stop-color="#585875"/>
    <stop offset="50%"  stop-color="#a8a8c8"/>
    <stop offset="76%"  stop-color="#383852"/>
    <stop offset="100%" stop-color="#0a0a14"/>
  </linearGradient>
  <!-- Chrome rod — lance shaft -->
  <linearGradient id="chromer1x2248" x1="0%" y1="0%" x2="100%" y2="0%">
    <stop offset="0%"   stop-color="#0c0c18"/>
    <stop offset="20%"  stop-color="#686888"/>
    <stop offset="44%"  stop-color="#e0e0f0"/>
    <stop offset="56%"  stop-color="#c0c0d8"/>
    <stop offset="80%"  stop-color="#28283e"/>
    <stop offset="100%" stop-color="#0c0c18"/>
  </linearGradient>
  <!-- Titanium plate — shield face -->
  <linearGradient id="titaniumr1x2248" x1="0%" y1="0%" x2="100%" y2="100%">
    <stop offset="0%"   stop-color="#585878"/>
    <stop offset="28%"  stop-color="#00ff60" stop-opacity=".88"/>
    <stop offset="55%"  stop-color="#00441e"/>
    <stop offset="80%"  stop-color="#181828"/>
    <stop offset="100%" stop-color="#0a0a18"/>
  </linearGradient>
  <!-- Artillery black-chrome — cannon body -->
  <linearGradient id="artilleryr1x2248" x1="0%" y1="0%" x2="0%" y2="100%">
    <stop offset="0%"   stop-color="#383850"/>
    <stop offset="14%"  stop-color="#78789a"/>
    <stop offset="36%"  stop-color="#202034"/>
    <stop offset="65%"  stop-color="#14141e"/>
    <stop offset="100%" stop-color="#0a0a12"/>
  </linearGradient>
  <!-- Energy orb — staff -->
  <radialGradient id="orbr1x2248" cx="35%" cy="35%" r="65%">
    <stop offset="0%"   stop-color="rgba(255,255,255,.9)"/>
    <stop offset="30%"  stop-color="#00ff60"/>
    <stop offset="68%"  stop-color="#00441e"/>
    <stop offset="100%" stop-color="rgba(0,0,0,.6)"/>
  </radialGradient>
  <!-- Knuckle plate chrome -->
  <linearGradient id="knuckler1x2248" x1="0%" y1="0%" x2="0%" y2="100%">
    <stop offset="0%"   stop-color="#888aaa"/>
    <stop offset="32%"  stop-color="#00ff60" stop-opacity=".8"/>
    <stop offset="62%"  stop-color="#1a1a2c"/>
    <stop offset="100%" stop-color="#0a0a14"/>
  </linearGradient>

  <!-- Carbon fibre weave texture overlay -->
  <pattern id="carbonr1x2248" width="6" height="6" patternUnits="userSpaceOnUse">
    <rect width="6" height="6" fill="rgba(0,0,0,.08)"/>
    <rect x="0" y="0" width="3" height="3" fill="rgba(255,255,255,.022)"/>
    <rect x="3" y="3" width="3" height="3" fill="rgba(255,255,255,.022)"/>
    <line x1="0" y1="0" x2="3" y2="3" stroke="rgba(255,255,255,.038)" stroke-width=".5"/>
    <line x1="3" y1="0" x2="6" y2="3" stroke="rgba(0,0,0,.055)"       stroke-width=".5"/>
    <line x1="0" y1="3" x2="3" y2="6" stroke="rgba(0,0,0,.055)"       stroke-width=".5"/>
    <line x1="3" y1="3" x2="6" y2="6" stroke="rgba(255,255,255,.038)" stroke-width=".5"/>
  </pattern>

  <!-- Specular metal sheen on armour panels -->
  <filter id="metalr1x2248" x="-5%" y="-5%" width="110%" height="110%">
    <feSpecularLighting surfaceScale="4" specularConstant="1.8"
        specularExponent="42" lighting-color="#ffffff" result="spec">
      <feDistantLight elevation="52" azimuth="38"/>
    </feSpecularLighting>
    <feComposite in="spec" in2="SourceGraphic" operator="in" result="sm"/>
    <feComposite in="SourceGraphic" in2="sm" operator="arithmetic" k1="0" k2="1" k3="0.55" k4="0"/>
  </filter>

  <!-- Sharper specular for weapons — heavier glare -->
  <filter id="wmr1x2248" x="-8%" y="-8%" width="116%" height="116%">
    <feSpecularLighting surfaceScale="6" specularConstant="2.4"
        specularExponent="65" lighting-color="#ffffff" result="spec">
      <feDistantLight elevation="44" azimuth="28"/>
    </feSpecularLighting>
    <feComposite in="spec" in2="SourceGraphic" operator="in" result="sm"/>
    <feComposite in="SourceGraphic" in2="sm" operator="arithmetic" k1="0" k2="1" k3="0.78" k4="0"/>
  </filter>

  <!-- Sketch wobble -->
  <filter id="skr1x2248" x="-8%" y="-8%" width="116%" height="116%">
    <feTurbulence type="fractalNoise" baseFrequency="0.038"
        numOctaves="3" seed="50" result="noise"/>
    <feDisplacementMap in="SourceGraphic" in2="noise" scale="2.6"
        xChannelSelector="R" yChannelSelector="G" result="w"/>
    <feComposite in="w" in2="SourceGraphic" operator="atop"/>
  </filter>

  <!-- Glow: sharp accent -->
  <filter id="glowr1x2248" x="-20%" y="-20%" width="140%" height="140%">
    <feGaussianBlur stdDeviation="3.5" result="b"/>
    <feColorMatrix in="b" type="matrix"
        values="0 0 0 0 1  0 0 0 0 1  0 0 0 0 1  0 0 0 1.8 0" result="boost"/>
    <feMerge><feMergeNode in="boost"/><feMergeNode in="SourceGraphic"/></feMerge>
  </filter>

  <!-- Bloom: wide soft -->
  <filter id="bloomr1x2248" x="-40%" y="-40%" width="180%" height="180%">
    <feGaussianBlur stdDeviation="11" result="b"/>
    <feMerge><feMergeNode in="b"/><feMergeNode in="SourceGraphic"/></feMerge>
  </filter>

  </defs><rect width="1000" height="1000" fill="url(#bgr1x2248)"/><line x1="500" y1="500" x2="1500.0" y2="500.0" stroke="#00ff60" stroke-opacity=".048" stroke-width="5"/><line x1="500" y1="500" x2="1474.9" y2="722.5" stroke="#00ff60" stroke-opacity=".048" stroke-width="5"/><line x1="500" y1="500" x2="1401.0" y2="933.9" stroke="#00ff60" stroke-opacity=".048" stroke-width="5"/><line x1="500" y1="500" x2="1281.8" y2="1123.5" stroke="#00ff60" stroke-opacity=".048" stroke-width="5"/><line x1="500" y1="500" x2="1123.5" y2="1281.8" stroke="#00ff60" stroke-opacity=".048" stroke-width="5"/><line x1="500" y1="500" x2="933.9" y2="1401.0" stroke="#00ff60" stroke-opacity=".048" stroke-width="5"/><line x1="500" y1="500" x2="722.5" y2="1474.9" stroke="#00ff60" stroke-opacity=".048" stroke-width="5"/><line x1="500" y1="500" x2="500.0" y2="1500.0" stroke="#00ff60" stroke-opacity=".048" stroke-width="5"/><line x1="500" y1="500" x2="277.5" y2="1474.9" stroke="#00ff60" stroke-opacity=".048" stroke-width="5"/><line x1="500" y1="500" x2="66.1" y2="1401.0" stroke="#00ff60" stroke-opacity=".048" stroke-width="5"/><line x1="500" y1="500" x2="-123.5" y2="1281.8" stroke="#00ff60" stroke-opacity=".048" stroke-width="5"/><line x1="500" y1="500" x2="-281.8" y2="1123.5" stroke="#00ff60" stroke-opacity=".048" stroke-width="5"/><line x1="500" y1="500" x2="-401.0" y2="933.9" stroke="#00ff60" stroke-opacity=".048" stroke-width="5"/><line x1="500" y1="500" x2="-474.9" y2="722.5" stroke="#00ff60" stroke-opacity=".048" stroke-width="5"/><line x1="500" y1="500" x2="-500.0" y2="500.0" stroke="#00ff60" stroke-opacity=".048" stroke-width="5"/><line x1="500" y1="500" x2="-474.9" y2="277.5" stroke="#00ff60" stroke-opacity=".048" stroke-width="5"/><line x1="500" y1="500" x2="-401.0" y2="66.1" stroke="#00ff60" stroke-opacity=".048" stroke-width="5"/><line x1="500" y1="500" x2="-281.8" y2="-123.5" stroke="#00ff60" stroke-opacity=".048" stroke-width="5"/><line x1="500" y1="500" x2="-123.5" y2="-281.8" stroke="#00ff60" stroke-opacity=".048" stroke-width="5"/><line x1="500" y1="500" x2="66.1" y2="-401.0" stroke="#00ff60" stroke-opacity=".048" stroke-width="5"/><line x1="500" y1="500" x2="277.5" y2="-474.9" stroke="#00ff60" stroke-opacity=".048" stroke-width="5"/><line x1="500" y1="500" x2="500.0" y2="-500.0" stroke="#00ff60" stroke-opacity=".048" stroke-width="5"/><line x1="500" y1="500" x2="722.5" y2="-474.9" stroke="#00ff60" stroke-opacity=".048" stroke-width="5"/><line x1="500" y1="500" x2="933.9" y2="-401.0" stroke="#00ff60" stroke-opacity=".048" stroke-width="5"/><line x1="500" y1="500" x2="1123.5" y2="-281.8" stroke="#00ff60" stroke-opacity=".048" stroke-width="5"/><line x1="500" y1="500" x2="1281.8" y2="-123.5" stroke="#00ff60" stroke-opacity=".048" stroke-width="5"/><line x1="500" y1="500" x2="1401.0" y2="66.1" stroke="#00ff60" stroke-opacity=".048" stroke-width="5"/><line x1="500" y1="500" x2="1474.9" y2="277.5" stroke="#00ff60" stroke-opacity=".048" stroke-width="5"/><ellipse cx="500.0" cy="892.0" rx="350.0" ry="65.0" fill="rgba(0,0,0,.7)" filter="url(#bloomr1x2248)"/><ellipse cx="500.0" cy="889.0" rx="220.0" ry="34.0" fill="rgba(0,0,0,.45)"/><ellipse cx="500.0" cy="520.0" rx="320.0" ry="480.0" fill="#ff6600" fill-opacity=".042" filter="url(#bloomr1x2248)"/><circle cx="571.1" cy="489.6" r="3.5" fill="#ff6600" fill-opacity="0.45" filter="url(#glowr1x2248)"/><circle cx="255.3" cy="242.8" r="2.7" fill="#ff6600" fill-opacity="0.46" filter="url(#glowr1x2248)"/><circle cx="380.0" cy="436.2" r="0.7" fill="#ff6600" fill-opacity="0.67" filter="url(#glowr1x2248)"/><circle cx="472.5" cy="613.3" r="3.7" fill="#ff6600" fill-opacity="0.68" filter="url(#glowr1x2248)"/><circle cx="435.0" cy="496.9" r="1.7" fill="#ff6600" fill-opacity="0.79" filter="url(#glowr1x2248)"/><circle cx="658.3" cy="692.8" r="2.4" fill="#ff6600" fill-opacity="0.78" filter="url(#glowr1x2248)"/><circle cx="364.3" cy="687.2" r="4.0" fill="#ff6600" fill-opacity="0.89" filter="url(#glowr1x2248)"/><circle cx="580.1" cy="391.6" r="1.3" fill="#ff6600" fill-opacity="0.82" filter="url(#glowr1x2248)"/><circle cx="306.1" cy="467.3" r="1.3" fill="#ff6600" fill-opacity="0.62" filter="url(#glowr1x2248)"/><circle cx="525.6" cy="313.9" r="2.2" fill="#ff6600" fill-opacity="0.86" filter="url(#glowr1x2248)"/><circle cx="337.3" cy="481.4" r="3.4" fill="#ff6600" fill-opacity="0.40" filter="url(#glowr1x2248)"/><circle cx="513.1" cy="273.2" r="2.7" fill="#ff6600" fill-opacity="0.71" filter="url(#glowr1x2248)"/><circle cx="553.5" cy="182.3" r="4.0" fill="#ff6600" fill-opacity="0.73" filter="url(#glowr1x2248)"/><circle cx="539.7" cy="735.5" r="3.3" fill="#ff6600" fill-opacity="0.62" filter="url(#glowr1x2248)"/><polygon points="399.9,661.5 490.1,663.1 480.8,876.2 387.7,877.9" fill="url(#suitr1x2248)" stroke="#00ff60" stroke-width="2.2" filter="url(#skr1x2248) url(#metalr1x2248)"/><polygon points="399.7,662.2 488.8,661.7 482.2,877.3 386.9,876.0" fill="url(#carbonr1x2248)"/><polygon points="391.6,722.5 491.8,723.0 485.9,788.1 382.4,789.9" fill="url(#bevelr1x2248)" fill-opacity=".5" stroke="#00ff60" stroke-width="1.4" filter="url(#skr1x2248)"/><polygon points="511.3,663.7 601.0,663.9 611.6,878.9 518.2,878.2" fill="url(#suitr1x2248)" stroke="#00ff60" stroke-width="2.2" filter="url(#skr1x2248) url(#metalr1x2248)"/><polygon points="510.0,663.5 600.2,661.2 610.9,876.5 518.6,879.0" fill="url(#carbonr1x2248)"/><polygon points="508.4,722.8 608.1,723.2 615.1,786.9 514.7,790.0" fill="url(#bevelr1x2248)" fill-opacity=".5" stroke="#00ff60" stroke-width="1.4" filter="url(#skr1x2248)"/><rect x="391.1" y="837.9" width="100.3" height="24.7" fill="url(#bevelr1x2248)" stroke="#00ff60" stroke-width="1" filter="url(#skr1x2248)"/><rect x="506.9"  y="839.1" width="100.3" height="24.7" fill="url(#bevelr1x2248)" stroke="#00ff60" stroke-width="1" filter="url(#skr1x2248)"/><polygon points="369.3,876.9 497.3,876.7 502.3,922.7 363.0,922.1" fill="#00441e" stroke="#00ff60" stroke-width="2" filter="url(#skr1x2248)"/><polygon points="503.0,878.3 631.7,876.7 635.7,922.0 494.8,920.7" fill="#00441e" stroke="#00ff60" stroke-width="2" filter="url(#skr1x2248)"/><polygon points="304.4,631.9 696.7,632.6 638.3,682.7 363.6,682.3" fill="#00ff60" fill-opacity=".52" stroke="#00ff60" stroke-width="2" filter="url(#skr1x2248)"/><rect x="463.4" y="638.9" width="72.0" height="42.0" fill="url(#bevelr1x2248)" stroke="#00ff60" stroke-width="1.4" filter="url(#glowr1x2248)"/><rect x="485.1" y="641.0" width="28.0" height="22.0" rx="1" fill="rgba(255,255,255,.48)"/><polygon points="154.4,467.3 234.3,465.6 256.4,736.2 126.6,733.5" fill="url(#suitr1x2248)" stroke="#00ff60" stroke-width="2.2" filter="url(#skr1x2248) url(#metalr1x2248)"/><polygon points="172.4,432.4 251.6,433.6 244.7,511.3 160.3,509.5" fill="url(#bevelr1x2248)" fill-opacity=".72" stroke="#00ff60" stroke-width="2.2" filter="url(#skr1x2248)"/><polygon points="160.4,622.8 243.8,621.4 238.7,661.9 164.9,662.5" fill="#00ff60" fill-opacity=".42" stroke="#00ff60" stroke-width="1" filter="url(#skr1x2248)"/><polygon points="766.4,467.6 846.9,466.1 872.3,735.9 741.8,733.5" fill="url(#suitr1x2248)" stroke="#00ff60" stroke-width="2.2" filter="url(#skr1x2248) url(#metalr1x2248)"/><polygon points="747.7,433.5 826.6,433.1 840.3,508.8 755.8,510.9" fill="url(#bevelr1x2248)" fill-opacity=".72" stroke="#00ff60" stroke-width="2.2" filter="url(#skr1x2248)"/><polygon points="758.3,623.6 837.2,621.3 834.8,659.9 759.4,660.2" fill="#00ff60" fill-opacity=".42" stroke="#00ff60" stroke-width="1" filter="url(#skr1x2248)"/><rect x="121.0"  y="700.7" width="135.3" height="85.0" rx="4" fill="url(#bevelr1x2248)" stroke="#00ff60" stroke-width="1.8" filter="url(#skr1x2248)"/><rect x="749.6"   y="701.3" width="135.3" height="85.0" rx="4" fill="url(#bevelr1x2248)" stroke="#00ff60" stroke-width="1.8" filter="url(#skr1x2248)"/><line x1="148.0" y1="700.2" x2="151.2" y2="785.2" stroke="#00ff60" stroke-opacity=".38" stroke-width="1"/><line x1="777.0" y1="703.3" x2="776.4" y2="783.9" stroke="#00ff60" stroke-opacity=".38" stroke-width="1"/><line x1="181.2" y1="701.2" x2="182.1" y2="783.0" stroke="#00ff60" stroke-opacity=".38" stroke-width="1"/><line x1="812.6" y1="702.5" x2="810.8" y2="783.7" stroke="#00ff60" stroke-opacity=".38" stroke-width="1"/><line x1="215.6" y1="700.4" x2="213.7" y2="784.3" stroke="#00ff60" stroke-opacity=".38" stroke-width="1"/><line x1="845.1" y1="702.8" x2="845.2" y2="783.3" stroke="#00ff60" stroke-opacity=".38" stroke-width="1"/><polygon points="235.6,418.6 765.6,418.2 723.7,661.7 278.9,661.1" fill="url(#suitr1x2248)" stroke="#00ff60" stroke-width="2.6" filter="url(#skr1x2248) url(#metalr1x2248)"/><polygon points="234.8,416.3 764.0,419.0 722.3,663.8 278.3,662.2" fill="url(#carbonr1x2248)"/><polygon points="366.6,416.0 632.2,417.4 611.7,516.4 390.0,516.9" fill="url(#suitHir1x2248)"/><line x1="361.9" y1="472.0" x2="636.2" y2="473.2" stroke="#00ff60" stroke-opacity=".52" stroke-width="1.3" filter="url(#skr1x2248)"/><line x1="397.8" y1="548.1" x2="601.3" y2="548.3" stroke="#00ff60" stroke-opacity=".52" stroke-width="1.3" filter="url(#skr1x2248)"/><line x1="267.2" y1="489.9" x2="320.0" y2="490.0" stroke="#00ff60" stroke-opacity=".62" stroke-width="1.8"/><line x1="680.9" y1="489.9" x2="733.2" y2="490.2" stroke="#00ff60" stroke-opacity=".62" stroke-width="1.8"/><line x1="266.4" y1="523.5" x2="319.5" y2="524.6" stroke="#00ff60" stroke-opacity=".62" stroke-width="1.8"/><line x1="681.3" y1="523.3" x2="734.0" y2="523.1" stroke="#00ff60" stroke-opacity=".62" stroke-width="1.8"/><line x1="266.9" y1="556.3" x2="321.2" y2="553.0" stroke="#00ff60" stroke-opacity=".62" stroke-width="1.8"/><line x1="681.4" y1="554.1" x2="732.8" y2="554.4" stroke="#00ff60" stroke-opacity=".62" stroke-width="1.8"/><line x1="265.5" y1="587.5" x2="320.9" y2="587.6" stroke="#00ff60" stroke-opacity=".62" stroke-width="1.8"/><line x1="680.2" y1="588.1" x2="733.8" y2="585.8" stroke="#00ff60" stroke-opacity=".62" stroke-width="1.8"/><g filter="url(#glowr1x2248)"><polygon points="500.3,451.6 514.9,490.8 553.6,491.9 525.1,517.6 533.8,555.8 498.9,534.4 467.6,559.2 476.1,519.9 445.9,492.0 484.9,491.1 " fill="#00ff60" stroke="#140900" stroke-width="1.4" filter="url(#skr1x2248)"/><polygon points="500.3,451.6 514.9,490.8 553.6,491.9 525.1,517.6 533.8,555.8 498.9,534.4 467.6,559.2 476.1,519.9 445.9,492.0 484.9,491.1 " fill="url(#suitHir1x2248)" opacity=".45"/></g><g><line x1="896.1197476228327" y1="792.3562484208494" x2="914.3115188139119" y2="111.69790981458497" stroke="url(#chromer1x2248)" stroke-width="28.0" stroke-linecap="round" filter="url(#wmr1x2248)"/><line x1="904.5379438102805" y1="770.756181278266" x2="911.5802413112111" y2="132.43949215058234" stroke="rgba(255,255,255,.42)" stroke-width="5.0" stroke-linecap="round"/><polygon points="868.4,152.4 937.3,149.6 917.1,-7.5" fill="url(#blader1x2248)" stroke="#00ff60" stroke-width="1.8" filter="url(#wmr1x2248)"/><line x1="935.8" y1="151.4" x2="915.8" y2="-8.6" stroke="rgba(255,255,255,.72)" stroke-width="1.6"/><rect x="877.9142878741585" y="420.3589114790782" width="40.0" height="20.0" fill="url(#bevelr1x2248)" stroke="#00ff60" stroke-width="1" filter="url(#wmr1x2248)"/><rect x="878.0194911935926" y="510.6824991626665" width="40.0" height="20.0" fill="url(#bevelr1x2248)" stroke="#00ff60" stroke-width="1" filter="url(#wmr1x2248)"/><rect x="879.574581618756" y="600.4792062559164" width="40.0" height="20.0" fill="url(#bevelr1x2248)" stroke="#00ff60" stroke-width="1" filter="url(#wmr1x2248)"/><rect x="879.1835077467002" y="690.5917138096876" width="40.0" height="20.0" fill="url(#bevelr1x2248)" stroke="#00ff60" stroke-width="1" filter="url(#wmr1x2248)"/><ellipse cx="896.9439936499671" cy="791.6274040320887" rx="22.0" ry="15.0" fill="url(#bevelr1x2248)" stroke="#00ff60" stroke-width="1" filter="url(#wmr1x2248)"/></g><rect x="451.3962252890691" y="557.7937207114883" width="100.0"  height="56.0" fill="#00441e" stroke="#00ff60" stroke-width="2.2" filter="url(#skr1x2248)"/><rect x="423.01054382743314" y="575.3185581434518" width="152.0" height="26.0" fill="url(#bevelr1x2248)" fill-opacity=".65" stroke="#00ff60" stroke-width="1.2" filter="url(#skr1x2248)"/><polygon points="309.1,381.1 350.5,294.5 501.0,277.0 650.7,296.0 692.6,381.3 668.6,504.7 500.7,565.0 331.2,505.0" fill="url(#suitr1x2248)" stroke="#00ff60" stroke-width="2.8" filter="url(#skr1x2248) url(#metalr1x2248)"/><polygon points="309.6,381.8 350.3,294.6 501.3,278.7 650.5,296.3 693.5,379.2 669.2,504.6 499.4,565.2 332.2,504.9" fill="url(#carbonr1x2248)"/><polygon points="380.5,301.0 501.3,285.4 618.5,301.4 608.4,381.1 393.1,379.9" fill="url(#suitHir1x2248)"/><polygon points="379.9,379.5 365.2,424.6 431.2,503.7 499.6,529.4 565.7,504.4 633.3,424.4 617.9,381.0" fill="#140900" fill-opacity=".88" stroke="#00ff60" stroke-width="1.8" filter="url(#skr1x2248)"/><polygon points="381.7,412.6 477.3,412.5 483.2,439.6 389.7,441.1" fill="#00ff60" filter="url(#glowr1x2248)"/><polygon points="523.7,411.6 618.4,412.7 613.0,439.9 516.0,439.9" fill="#00ff60" filter="url(#glowr1x2248)"/><ellipse cx="430.9" cy="425.7" rx="38.4"  ry="8.2" fill="#ffffff" opacity=".88"/><ellipse cx="569.1" cy="425.7" rx="38.4"  ry="8.2" fill="#ffffff" opacity=".88"/><line x1="483.45465635057536" y1="411.97284543877464" x2="516.7436090344936" y2="413.41943106371906" stroke="#00ff60" stroke-opacity=".52" stroke-width="2"/><line x1="484.5195990093611" y1="436.9730270449072" x2="516.7890229016915" y2="438.9251923422329" stroke="#00ff60" stroke-opacity=".52" stroke-width="2"/><line x1="501.2415397512726" y1="455.44451760109513" x2="498.79582016393545" y2="484.8865717116744" stroke="#00ff60" stroke-opacity=".58" stroke-width="2.2" filter="url(#skr1x2248)"/><line x1="453.04248763618995" y1="490.04356656149025" x2="453.3447012018226" y2="519.3359523914754" stroke="#00ff60" stroke-opacity=".52" stroke-width="1.5" filter="url(#skr1x2248)"/><line x1="475.658575749062" y1="492.7772532576695" x2="475.4740024257824" y2="520.6472323783673" stroke="#00ff60" stroke-opacity=".52" stroke-width="1.5" filter="url(#skr1x2248)"/><line x1="500.80009605083615" y1="490.32434107037255" x2="498.4727065800689" y2="518.4800161511637" stroke="#00ff60" stroke-opacity=".52" stroke-width="1.5" filter="url(#skr1x2248)"/><line x1="522.9348433920741" y1="490.950486111734" x2="521.3250374184548" y2="519.9161367780529" stroke="#00ff60" stroke-opacity=".52" stroke-width="1.5" filter="url(#skr1x2248)"/><line x1="545.4785934811645" y1="491.0318038561381" x2="547.1023625906744" y2="520.0511162318289" stroke="#00ff60" stroke-opacity=".52" stroke-width="1.5" filter="url(#skr1x2248)"/><polygon points="433.0,505.1 567.8,502.0 554.4,558.3 444.8,557.5" fill="#00441e" fill-opacity=".72" stroke="#00ff60" stroke-width="1.3" filter="url(#skr1x2248)"/><text x="30.0"  y="975.0" font-family="monospace" font-weight="bold" font-size="22.0" fill="rgba(255,255,255,.22)">#0001</text><text x="500.0"   y="975.0" text-anchor="middle" font-family="monospace" font-weight="bold" font-size="22.0" fill="#00ff60" fill-opacity=".48">VIPER RANGER</text><text x="970.0" y="975.0" text-anchor="end"    font-family="monospace" font-weight="bold" font-size="22.0" fill="#00ff60" fill-opacity=".32">MECH RANGERS</text></svg>