<svg xmlns="http://www.w3.org/2000/svg" viewBox="0 0 1000 1000" width="1000" height="1000" shape-rendering="geometricPrecision"><defs>

  <!-- Scene gradients -->
  <radialGradient id="bgr1x2269" cx="50%" cy="42%" r="72%">
    <stop offset="0%"   stop-color="#1e0a2e"/>
    <stop offset="100%" stop-color="#0a0520"/>
  </radialGradient>
  <linearGradient id="suitr1x2269" x1="8%" y1="0%" x2="92%" y2="100%">
    <stop offset="0%"   stop-color="#ffcc00" stop-opacity=".95"/>
    <stop offset="45%"  stop-color="#a07000"/>
    <stop offset="100%" stop-color="#0a0520"/>
  </linearGradient>
  <linearGradient id="suitHir1x2269" x1="0%" y1="0%" x2="0%" y2="100%">
    <stop offset="0%"   stop-color="rgba(255,255,255,.28)"/>
    <stop offset="60%"  stop-color="rgba(255,255,255,.04)"/>
    <stop offset="100%" stop-color="rgba(255,255,255,0)"/>
  </linearGradient>
  <!-- Bevel: bright top, dark bottom for armour panels -->
  <linearGradient id="bevelr1x2269" x1="0%" y1="0%" x2="0%" y2="100%">
    <stop offset="0%"   stop-color="rgba(255,255,255,.55)"/>
    <stop offset="30%"  stop-color="#ffcc00"/>
    <stop offset="70%"  stop-color="#a07000"/>
    <stop offset="100%" stop-color="rgba(0,0,0,.5)"/>
  </linearGradient>

  <!-- Weapon: cold steel blade sweep -->
  <linearGradient id="blader1x2269" x1="0%" y1="0%" x2="100%" y2="0%">
    <stop offset="0%"   stop-color="#0e0e20"/>
    <stop offset="16%"  stop-color="#3e3e58"/>
    <stop offset="34%"  stop-color="#c8c8e0"/>
    <stop offset="50%"  stop-color="#f5f5ff"/>
    <stop offset="66%"  stop-color="#b8b8d0"/>
    <stop offset="84%"  stop-color="#2e2e48"/>
    <stop offset="100%" stop-color="#08080e"/>
  </linearGradient>
  <!-- Blade tip brightening -->
  <linearGradient id="bladeTipr1x2269" x1="0%" y1="100%" x2="0%" y2="0%">
    <stop offset="0%"   stop-color="rgba(255,255,255,0)"/>
    <stop offset="55%"  stop-color="rgba(255,255,255,.1)"/>
    <stop offset="100%" stop-color="rgba(255,255,255,.55)"/>
  </linearGradient>
  <!-- Gunmetal anodised — blaster body -->
  <linearGradient id="gunmetalr1x2269" x1="0%" y1="0%" x2="0%" y2="100%">
    <stop offset="0%"   stop-color="#46465e"/>
    <stop offset="18%"  stop-color="#828296"/>
    <stop offset="42%"  stop-color="#26263a"/>
    <stop offset="72%"  stop-color="#16162a"/>
    <stop offset="100%" stop-color="#0c0c18"/>
  </linearGradient>
  <!-- Brushed steel tube — barrel/rod -->
  <linearGradient id="barrelr1x2269" x1="0%" y1="0%" x2="100%" y2="0%">
    <stop offset="0%"   stop-color="#0a0a14"/>
    <stop offset="24%"  stop-color="#585875"/>
    <stop offset="50%"  stop-color="#a8a8c8"/>
    <stop offset="76%"  stop-color="#383852"/>
    <stop offset="100%" stop-color="#0a0a14"/>
  </linearGradient>
  <!-- Chrome rod — lance shaft -->
  <linearGradient id="chromer1x2269" x1="0%" y1="0%" x2="100%" y2="0%">
    <stop offset="0%"   stop-color="#0c0c18"/>
    <stop offset="20%"  stop-color="#686888"/>
    <stop offset="44%"  stop-color="#e0e0f0"/>
    <stop offset="56%"  stop-color="#c0c0d8"/>
    <stop offset="80%"  stop-color="#28283e"/>
    <stop offset="100%" stop-color="#0c0c18"/>
  </linearGradient>
  <!-- Titanium plate — shield face -->
  <linearGradient id="titaniumr1x2269" x1="0%" y1="0%" x2="100%" y2="100%">
    <stop offset="0%"   stop-color="#585878"/>
    <stop offset="28%"  stop-color="#ffcc00" stop-opacity=".88"/>
    <stop offset="55%"  stop-color="#a07000"/>
    <stop offset="80%"  stop-color="#181828"/>
    <stop offset="100%" stop-color="#0a0a18"/>
  </linearGradient>
  <!-- Artillery black-chrome — cannon body -->
  <linearGradient id="artilleryr1x2269" x1="0%" y1="0%" x2="0%" y2="100%">
    <stop offset="0%"   stop-color="#383850"/>
    <stop offset="14%"  stop-color="#78789a"/>
    <stop offset="36%"  stop-color="#202034"/>
    <stop offset="65%"  stop-color="#14141e"/>
    <stop offset="100%" stop-color="#0a0a12"/>
  </linearGradient>
  <!-- Energy orb — staff -->
  <radialGradient id="orbr1x2269" cx="35%" cy="35%" r="65%">
    <stop offset="0%"   stop-color="rgba(255,255,255,.9)"/>
    <stop offset="30%"  stop-color="#ffcc00"/>
    <stop offset="68%"  stop-color="#a07000"/>
    <stop offset="100%" stop-color="rgba(0,0,0,.6)"/>
  </radialGradient>
  <!-- Knuckle plate chrome -->
  <linearGradient id="knuckler1x2269" x1="0%" y1="0%" x2="0%" y2="100%">
    <stop offset="0%"   stop-color="#888aaa"/>
    <stop offset="32%"  stop-color="#ffcc00" stop-opacity=".8"/>
    <stop offset="62%"  stop-color="#1a1a2c"/>
    <stop offset="100%" stop-color="#0a0a14"/>
  </linearGradient>

  <!-- Carbon fibre weave texture overlay -->
  <pattern id="carbonr1x2269" width="6" height="6" patternUnits="userSpaceOnUse">
    <rect width="6" height="6" fill="rgba(0,0,0,.08)"/>
    <rect x="0" y="0" width="3" height="3" fill="rgba(255,255,255,.022)"/>
    <rect x="3" y="3" width="3" height="3" fill="rgba(255,255,255,.022)"/>
    <line x1="0" y1="0" x2="3" y2="3" stroke="rgba(255,255,255,.038)" stroke-width=".5"/>
    <line x1="3" y1="0" x2="6" y2="3" stroke="rgba(0,0,0,.055)"       stroke-width=".5"/>
    <line x1="0" y1="3" x2="3" y2="6" stroke="rgba(0,0,0,.055)"       stroke-width=".5"/>
    <line x1="3" y1="3" x2="6" y2="6" stroke="rgba(255,255,255,.038)" stroke-width=".5"/>
  </pattern>

  <!-- Specular metal sheen on armour panels -->
  <filter id="metalr1x2269" x="-5%" y="-5%" width="110%" height="110%">
    <feSpecularLighting surfaceScale="4" specularConstant="1.8"
        specularExponent="42" lighting-color="#ffffff" result="spec">
      <feDistantLight elevation="52" azimuth="38"/>
    </feSpecularLighting>
    <feComposite in="spec" in2="SourceGraphic" operator="in" result="sm"/>
    <feComposite in="SourceGraphic" in2="sm" operator="arithmetic" k1="0" k2="1" k3="0.55" k4="0"/>
  </filter>

  <!-- Sharper specular for weapons — heavier glare -->
  <filter id="wmr1x2269" x="-8%" y="-8%" width="116%" height="116%">
    <feSpecularLighting surfaceScale="6" specularConstant="2.4"
        specularExponent="65" lighting-color="#ffffff" result="spec">
      <feDistantLight elevation="44" azimuth="28"/>
    </feSpecularLighting>
    <feComposite in="spec" in2="SourceGraphic" operator="in" result="sm"/>
    <feComposite in="SourceGraphic" in2="sm" operator="arithmetic" k1="0" k2="1" k3="0.78" k4="0"/>
  </filter>

  <!-- Sketch wobble -->
  <filter id="skr1x2269" x="-8%" y="-8%" width="116%" height="116%">
    <feTurbulence type="fractalNoise" baseFrequency="0.038"
        numOctaves="3" seed="69" result="noise"/>
    <feDisplacementMap in="SourceGraphic" in2="noise" scale="2.6"
        xChannelSelector="R" yChannelSelector="G" result="w"/>
    <feComposite in="w" in2="SourceGraphic" operator="atop"/>
  </filter>

  <!-- Glow: sharp accent -->
  <filter id="glowr1x2269" x="-20%" y="-20%" width="140%" height="140%">
    <feGaussianBlur stdDeviation="3.5" result="b"/>
    <feColorMatrix in="b" type="matrix"
        values="0 0 0 0 1  0 0 0 0 1  0 0 0 0 1  0 0 0 1.8 0" result="boost"/>
    <feMerge><feMergeNode in="boost"/><feMergeNode in="SourceGraphic"/></feMerge>
  </filter>

  <!-- Bloom: wide soft -->
  <filter id="bloomr1x2269" x="-40%" y="-40%" width="180%" height="180%">
    <feGaussianBlur stdDeviation="11" result="b"/>
    <feMerge><feMergeNode in="b"/><feMergeNode in="SourceGraphic"/></feMerge>
  </filter>

  </defs><rect width="1000" height="1000" fill="url(#bgr1x2269)"/><ellipse cx="500.0" cy="892.0" rx="350.0" ry="65.0" fill="rgba(0,0,0,.7)" filter="url(#bloomr1x2269)"/><ellipse cx="500.0" cy="889.0" rx="220.0" ry="34.0" fill="rgba(0,0,0,.45)"/><polygon points="400.1,661.9 488.8,661.6 480.1,876.9 388.4,876.1" fill="url(#suitr1x2269)" stroke="#ffcc00" stroke-width="2.2" filter="url(#skr1x2269) url(#metalr1x2269)"/><polygon points="397.1,662.0 488.1,663.4 482.3,878.9 386.0,876.8" fill="url(#carbonr1x2269)"/><polygon points="393.1,725.5 491.3,722.1 484.9,788.8 384.2,789.3" fill="url(#bevelr1x2269)" fill-opacity=".5" stroke="#ffcc00" stroke-width="1.4" filter="url(#skr1x2269)"/><polygon points="510.0,660.9 600.9,663.6 613.7,879.1 518.9,877.8" fill="url(#suitr1x2269)" stroke="#ffcc00" stroke-width="2.2" filter="url(#skr1x2269) url(#metalr1x2269)"/><polygon points="511.7,662.2 599.6,663.6 611.9,876.9 518.0,875.9" fill="url(#carbonr1x2269)"/><polygon points="507.1,724.9 606.1,723.1 615.0,786.7 515.8,787.3" fill="url(#bevelr1x2269)" fill-opacity=".5" stroke="#ffcc00" stroke-width="1.4" filter="url(#skr1x2269)"/><rect x="391.4" y="838.4" width="100.3" height="24.7" fill="url(#bevelr1x2269)" stroke="#ffcc00" stroke-width="1" filter="url(#skr1x2269)"/><rect x="505.5"  y="838.9" width="100.3" height="24.7" fill="url(#bevelr1x2269)" stroke="#ffcc00" stroke-width="1" filter="url(#skr1x2269)"/><polygon points="369.7,876.9 495.9,878.8 503.5,922.9 361.2,922.3" fill="#a07000" stroke="#ffcc00" stroke-width="2" filter="url(#skr1x2269)"/><polygon points="503.6,875.9 631.2,877.8 636.8,922.4 497.3,920.3" fill="#a07000" stroke="#ffcc00" stroke-width="2" filter="url(#skr1x2269)"/><polygon points="302.7,633.1 695.2,631.5 636.6,682.2 362.8,683.1" fill="#ffcc00" fill-opacity=".52" stroke="#ffcc00" stroke-width="2" filter="url(#skr1x2269)"/><rect x="464.4" y="638.3" width="72.0" height="42.0" fill="url(#bevelr1x2269)" stroke="#ffcc00" stroke-width="1.4" filter="url(#glowr1x2269)"/><rect x="486.2" y="640.4" width="28.0" height="22.0" rx="1" fill="rgba(255,255,255,.48)"/><polygon points="152.4,466.9 234.4,467.6 259.2,735.2 129.4,734.0" fill="url(#suitr1x2269)" stroke="#ffcc00" stroke-width="2.2" filter="url(#skr1x2269) url(#metalr1x2269)"/><polygon points="172.2,430.6 253.2,433.0 241.6,509.0 158.5,510.2" fill="url(#bevelr1x2269)" fill-opacity=".72" stroke="#ffcc00" stroke-width="2.2" filter="url(#skr1x2269)"/><polygon points="159.4,620.3 244.2,623.3 239.6,659.2 166.5,660.1" fill="#ffcc00" fill-opacity=".42" stroke="#ffcc00" stroke-width="1" filter="url(#skr1x2269)"/><polygon points="764.5,467.3 846.7,466.8 870.9,736.4 742.7,734.6" fill="url(#suitr1x2269)" stroke="#ffcc00" stroke-width="2.2" filter="url(#skr1x2269) url(#metalr1x2269)"/><polygon points="746.7,433.8 825.6,430.5 841.7,509.8 756.0,510.4" fill="url(#bevelr1x2269)" fill-opacity=".72" stroke="#ffcc00" stroke-width="2.2" filter="url(#skr1x2269)"/><polygon points="755.1,622.2 839.7,621.6 834.9,660.7 761.1,660.6" fill="#ffcc00" fill-opacity=".42" stroke="#ffcc00" stroke-width="1" filter="url(#skr1x2269)"/><rect x="118.5"  y="701.3" width="135.3" height="85.0" rx="4" fill="url(#bevelr1x2269)" stroke="#ffcc00" stroke-width="1.8" filter="url(#skr1x2269)"/><rect x="749.7"   y="698.8" width="135.3" height="85.0" rx="4" fill="url(#bevelr1x2269)" stroke="#ffcc00" stroke-width="1.8" filter="url(#skr1x2269)"/><line x1="148.9" y1="702.7" x2="151.2" y2="783.8" stroke="#ffcc00" stroke-opacity=".38" stroke-width="1"/><line x1="778.0" y1="700.2" x2="777.8" y2="783.5" stroke="#ffcc00" stroke-opacity=".38" stroke-width="1"/><line x1="184.0" y1="703.1" x2="183.5" y2="783.1" stroke="#ffcc00" stroke-opacity=".38" stroke-width="1"/><line x1="811.9" y1="701.8" x2="811.2" y2="783.3" stroke="#ffcc00" stroke-opacity=".38" stroke-width="1"/><line x1="214.8" y1="703.6" x2="216.5" y2="784.6" stroke="#ffcc00" stroke-opacity=".38" stroke-width="1"/><line x1="842.4" y1="702.0" x2="844.7" y2="783.1" stroke="#ffcc00" stroke-opacity=".38" stroke-width="1"/><polygon points="234.7,416.8 765.9,416.4 723.9,660.7 275.9,664.0" fill="url(#suitr1x2269)" stroke="#ffcc00" stroke-width="2.6" filter="url(#skr1x2269) url(#metalr1x2269)"/><polygon points="236.2,416.8 765.7,417.3 722.5,663.2 277.9,663.8" fill="url(#carbonr1x2269)"/><polygon points="369.0,416.8 632.6,419.0 610.3,515.5 386.9,515.5" fill="url(#suitHir1x2269)"/><line x1="363.9" y1="473.1" x2="637.0" y2="471.2" stroke="#ffcc00" stroke-opacity=".52" stroke-width="1.3" filter="url(#skr1x2269)"/><line x1="397.7" y1="549.0" x2="599.7" y2="549.7" stroke="#ffcc00" stroke-opacity=".52" stroke-width="1.3" filter="url(#skr1x2269)"/><line x1="267.1" y1="489.6" x2="318.6" y2="492.6" stroke="#ffcc00" stroke-opacity=".62" stroke-width="1.8"/><line x1="679.7" y1="490.2" x2="733.4" y2="492.4" stroke="#ffcc00" stroke-opacity=".62" stroke-width="1.8"/><line x1="265.7" y1="523.4" x2="319.8" y2="523.7" stroke="#ffcc00" stroke-opacity=".62" stroke-width="1.8"/><line x1="680.2" y1="521.8" x2="732.6" y2="521.6" stroke="#ffcc00" stroke-opacity=".62" stroke-width="1.8"/><line x1="266.3" y1="555.6" x2="318.4" y2="553.5" stroke="#ffcc00" stroke-opacity=".62" stroke-width="1.8"/><line x1="681.4" y1="553.6" x2="734.5" y2="555.0" stroke="#ffcc00" stroke-opacity=".62" stroke-width="1.8"/><line x1="267.0" y1="587.1" x2="320.1" y2="586.5" stroke="#ffcc00" stroke-opacity=".62" stroke-width="1.8"/><line x1="678.9" y1="587.7" x2="734.6" y2="587.2" stroke="#ffcc00" stroke-opacity=".62" stroke-width="1.8"/><g filter="url(#glowr1x2269)"><polygon points="483.2,451.3 511.3,506.7 501.8,507.5 517.7,570.2 488.3,514.4 499.0,513.7" fill="#ffcc00" stroke="#0a0520" stroke-width="1.4" filter="url(#skr1x2269)"/><polygon points="484.0,452.4 513.4,504.8 500.3,506.2 516.4,569.5 489.0,515.3 500.4,514.7" fill="url(#suitHir1x2269)" opacity=".4"/></g><g><rect x="830.9482717329264" y="419.97564357118677" width="148.0" height="82.0" rx="5" fill="url(#gunmetalr1x2269)" stroke="#ffcc00" stroke-width="2" filter="url(#wmr1x2269)"/><rect x="828.1517034174502" y="420.1700322682038" width="148.0" height="82.0" rx="5" fill="url(#carbonr1x2269)"/><rect x="837.4163232529164" y="403.1938355403952" width="90.0" height="22.0" rx="3" fill="url(#barrelr1x2269)" stroke="#ffcc00" stroke-width="1" filter="url(#wmr1x2269)"/><circle cx="876.1540914208256" cy="414.26864174464714" r="15.0" fill="#ffcc00" opacity=".8" filter="url(#glowr1x2269)"/><circle cx="877.802751572486" cy="413.69221107438204" r="6.0" fill="rgba(255,255,255,.9)"/><rect x="947.5554030111618" y="455.1464521220885" width="78.0" height="36.0" rx="5" fill="url(#barrelr1x2269)" stroke="#ffcc00" stroke-width="1.2" filter="url(#wmr1x2269)"/><circle cx="1021.4104125776887" cy="470.9750453873537" r="18.0" fill="#ffcc00" filter="url(#glowr1x2269)" opacity=".88"/><circle cx="1018.421389639061" cy="470.80232471637424" r="7.0" fill="#ffffff"/><rect x="874.1119681411051" y="499.66679901573804" width="44.0" height="42.0" rx="3" fill="url(#gunmetalr1x2269)" stroke="#ffcc00" stroke-width="1" filter="url(#wmr1x2269)"/><rect x="833.6568428611941" y="423.6700556565076" width="90.0" height="10.0" rx="2" fill="rgba(255,255,255,.22)"/><line x1="858.4192645632289" y1="486.10627836426715" x2="856.9663697406278" y2="518.7672764755786" stroke="#ffcc00" stroke-opacity=".5" stroke-width="1.2"/><line x1="873.7592209856585" y1="487.3941814864054" x2="873.2562895026617" y2="518.9160754832438" stroke="#ffcc00" stroke-opacity=".5" stroke-width="1.2"/><line x1="890.1208270189911" y1="487.61636493392285" x2="888.0912684371323" y2="519.8217430998571" stroke="#ffcc00" stroke-opacity=".5" stroke-width="1.2"/></g><rect x="451.63574984064326" y="558.3648702437989" width="100.0"  height="56.0" fill="#a07000" stroke="#ffcc00" stroke-width="2.2" filter="url(#skr1x2269)"/><rect x="422.43909228928385" y="573.7061890752055" width="152.0" height="26.0" fill="url(#bevelr1x2269)" fill-opacity=".65" stroke="#ffcc00" stroke-width="1.2" filter="url(#skr1x2269)"/><polygon points="307.4,380.3 348.9,295.6 499.2,279.7 651.3,295.5 692.9,380.2 667.6,502.0 499.2,563.7 329.7,503.9" fill="url(#suitr1x2269)" stroke="#ffcc00" stroke-width="2.8" filter="url(#skr1x2269) url(#metalr1x2269)"/><polygon points="309.5,382.2 350.9,293.0 500.8,279.0 648.9,295.5 692.7,381.3 669.0,503.1 500.6,564.1 330.0,503.4" fill="url(#carbonr1x2269)"/><polygon points="380.2,302.0 501.7,284.8 619.1,301.2 608.0,381.6 392.9,382.2" fill="url(#suitHir1x2269)"/><polygon points="379.7,380.8 365.7,424.2 433.6,503.5 499.4,527.8 568.4,505.2 633.9,427.4 617.6,378.9" fill="#0a0520" fill-opacity=".88" stroke="#ffcc00" stroke-width="1.8" filter="url(#skr1x2269)"/><polygon points="380.6,412.8 478.3,410.4 483.2,441.6 387.4,441.0" fill="#ffcc00" filter="url(#glowr1x2269)"/><polygon points="523.6,410.8 620.8,412.8 610.2,438.7 516.8,439.8" fill="#ffcc00" filter="url(#glowr1x2269)"/><ellipse cx="430.9" cy="425.7" rx="38.4"  ry="8.2" fill="#ffffff" opacity=".88"/><ellipse cx="569.1" cy="425.7" rx="38.4"  ry="8.2" fill="#ffffff" opacity=".88"/><line x1="483.64559000950305" y1="413.3496616842225" x2="517.0913864380121" y2="415.03065268965435" stroke="#ffcc00" stroke-opacity=".52" stroke-width="2"/><line x1="485.2030971485749" y1="438.12856903458015" x2="514.0358084037341" y2="439.5548934278078" stroke="#ffcc00" stroke-opacity=".52" stroke-width="2"/><line x1="501.3769565928727" y1="453.95987740568813" x2="499.28248118432236" y2="482.0160168146715" stroke="#ffcc00" stroke-opacity=".58" stroke-width="2.2" filter="url(#skr1x2269)"/><line x1="455.6270578634739" y1="491.26720507796847" x2="453.5436969733611" y2="518.2315180145204" stroke="#ffcc00" stroke-opacity=".52" stroke-width="1.5" filter="url(#skr1x2269)"/><line x1="478.52720661288123" y1="492.2779289174824" x2="477.80957868158816" y2="518.6059108800255" stroke="#ffcc00" stroke-opacity=".52" stroke-width="1.5" filter="url(#skr1x2269)"/><line x1="500.62492597149685" y1="491.6348508927971" x2="500.2237522690557" y2="519.9928147652187" stroke="#ffcc00" stroke-opacity=".52" stroke-width="1.5" filter="url(#skr1x2269)"/><line x1="524.8268786008097" y1="492.17760973386464" x2="524.5153351513296" y2="519.5540710719303" stroke="#ffcc00" stroke-opacity=".52" stroke-width="1.5" filter="url(#skr1x2269)"/><line x1="545.5290293664858" y1="492.93498864816496" x2="546.9851165366546" y2="521.7480629183352" stroke="#ffcc00" stroke-opacity=".52" stroke-width="1.5" filter="url(#skr1x2269)"/><polygon points="433.4,503.3 568.7,504.8 555.5,557.4 447.4,555.9" fill="#a07000" fill-opacity=".72" stroke="#ffcc00" stroke-width="1.3" filter="url(#skr1x2269)"/><path d="M473.68069616414607 309.5376177589409 C303.99570607872676 147.44806479364632 419.40889361010863 242.94863144187255 498.5416517284699 309.80868081292135" fill="#ffcc00" fill-opacity=".92" stroke="#ffcc00" stroke-width="2.2" filter="url(#skr1x2269)"/><path d="M472.5208656868711 309.18218504590914 C303.07466603409495 146.22224593963472 419.26562858302145 239.48324501384047 499.5880197570659 309.8246865515597" fill="url(#suitHir1x2269)" opacity=".28"/><path d="M526.0141414295136 311.42638398101553 C696.8069002221897 148.3379950903356 580.7773551097698 242.4758188460022 501.64191708154976 312.3953636234626" fill="#ffcc00" fill-opacity=".92" stroke="#ffcc00" stroke-width="2.2" filter="url(#skr1x2269)"/><path d="M526.5244141898304 310.45319689726455 C697.3491894897633 146.63065553372724 579.0587184802256 242.51476578321308 501.6119263361208 310.07458985894914" fill="url(#suitHir1x2269)" opacity=".28"/><text x="30.0"  y="975.0" font-family="monospace" font-weight="bold" font-size="22.0" fill="rgba(255,255,255,.22)">#0001</text><text x="500.0"   y="975.0" text-anchor="middle" font-family="monospace" font-weight="bold" font-size="22.0" fill="#ffcc00" fill-opacity=".48">NOVA RANGER</text><text x="970.0" y="975.0" text-anchor="end"    font-family="monospace" font-weight="bold" font-size="22.0" fill="#ffcc00" fill-opacity=".32">MECH RANGERS</text></svg>