<svg xmlns="http://www.w3.org/2000/svg" viewBox="0 0 1000 1000" width="1000" height="1000" shape-rendering="geometricPrecision"><defs>

  <!-- Scene gradients -->
  <radialGradient id="bgr1x2301" cx="50%" cy="42%" r="72%">
    <stop offset="0%"   stop-color="#1a2814"/>
    <stop offset="100%" stop-color="#0d1520"/>
  </radialGradient>
  <linearGradient id="suitr1x2301" x1="8%" y1="0%" x2="92%" y2="100%">
    <stop offset="0%"   stop-color="#ccccff" stop-opacity=".95"/>
    <stop offset="45%"  stop-color="#242438"/>
    <stop offset="100%" stop-color="#0d1520"/>
  </linearGradient>
  <linearGradient id="suitHir1x2301" x1="0%" y1="0%" x2="0%" y2="100%">
    <stop offset="0%"   stop-color="rgba(255,255,255,.28)"/>
    <stop offset="60%"  stop-color="rgba(255,255,255,.04)"/>
    <stop offset="100%" stop-color="rgba(255,255,255,0)"/>
  </linearGradient>
  <!-- Bevel: bright top, dark bottom for armour panels -->
  <linearGradient id="bevelr1x2301" x1="0%" y1="0%" x2="0%" y2="100%">
    <stop offset="0%"   stop-color="rgba(255,255,255,.55)"/>
    <stop offset="30%"  stop-color="#ccccff"/>
    <stop offset="70%"  stop-color="#242438"/>
    <stop offset="100%" stop-color="rgba(0,0,0,.5)"/>
  </linearGradient>

  <!-- Weapon: cold steel blade sweep -->
  <linearGradient id="blader1x2301" x1="0%" y1="0%" x2="100%" y2="0%">
    <stop offset="0%"   stop-color="#0e0e20"/>
    <stop offset="16%"  stop-color="#3e3e58"/>
    <stop offset="34%"  stop-color="#c8c8e0"/>
    <stop offset="50%"  stop-color="#f5f5ff"/>
    <stop offset="66%"  stop-color="#b8b8d0"/>
    <stop offset="84%"  stop-color="#2e2e48"/>
    <stop offset="100%" stop-color="#08080e"/>
  </linearGradient>
  <!-- Blade tip brightening -->
  <linearGradient id="bladeTipr1x2301" x1="0%" y1="100%" x2="0%" y2="0%">
    <stop offset="0%"   stop-color="rgba(255,255,255,0)"/>
    <stop offset="55%"  stop-color="rgba(255,255,255,.1)"/>
    <stop offset="100%" stop-color="rgba(255,255,255,.55)"/>
  </linearGradient>
  <!-- Gunmetal anodised — blaster body -->
  <linearGradient id="gunmetalr1x2301" x1="0%" y1="0%" x2="0%" y2="100%">
    <stop offset="0%"   stop-color="#46465e"/>
    <stop offset="18%"  stop-color="#828296"/>
    <stop offset="42%"  stop-color="#26263a"/>
    <stop offset="72%"  stop-color="#16162a"/>
    <stop offset="100%" stop-color="#0c0c18"/>
  </linearGradient>
  <!-- Brushed steel tube — barrel/rod -->
  <linearGradient id="barrelr1x2301" x1="0%" y1="0%" x2="100%" y2="0%">
    <stop offset="0%"   stop-color="#0a0a14"/>
    <stop offset="24%"  stop-color="#585875"/>
    <stop offset="50%"  stop-color="#a8a8c8"/>
    <stop offset="76%"  stop-color="#383852"/>
    <stop offset="100%" stop-color="#0a0a14"/>
  </linearGradient>
  <!-- Chrome rod — lance shaft -->
  <linearGradient id="chromer1x2301" x1="0%" y1="0%" x2="100%" y2="0%">
    <stop offset="0%"   stop-color="#0c0c18"/>
    <stop offset="20%"  stop-color="#686888"/>
    <stop offset="44%"  stop-color="#e0e0f0"/>
    <stop offset="56%"  stop-color="#c0c0d8"/>
    <stop offset="80%"  stop-color="#28283e"/>
    <stop offset="100%" stop-color="#0c0c18"/>
  </linearGradient>
  <!-- Titanium plate — shield face -->
  <linearGradient id="titaniumr1x2301" x1="0%" y1="0%" x2="100%" y2="100%">
    <stop offset="0%"   stop-color="#585878"/>
    <stop offset="28%"  stop-color="#ccccff" stop-opacity=".88"/>
    <stop offset="55%"  stop-color="#242438"/>
    <stop offset="80%"  stop-color="#181828"/>
    <stop offset="100%" stop-color="#0a0a18"/>
  </linearGradient>
  <!-- Artillery black-chrome — cannon body -->
  <linearGradient id="artilleryr1x2301" x1="0%" y1="0%" x2="0%" y2="100%">
    <stop offset="0%"   stop-color="#383850"/>
    <stop offset="14%"  stop-color="#78789a"/>
    <stop offset="36%"  stop-color="#202034"/>
    <stop offset="65%"  stop-color="#14141e"/>
    <stop offset="100%" stop-color="#0a0a12"/>
  </linearGradient>
  <!-- Energy orb — staff -->
  <radialGradient id="orbr1x2301" cx="35%" cy="35%" r="65%">
    <stop offset="0%"   stop-color="rgba(255,255,255,.9)"/>
    <stop offset="30%"  stop-color="#ccccff"/>
    <stop offset="68%"  stop-color="#242438"/>
    <stop offset="100%" stop-color="rgba(0,0,0,.6)"/>
  </radialGradient>
  <!-- Knuckle plate chrome -->
  <linearGradient id="knuckler1x2301" x1="0%" y1="0%" x2="0%" y2="100%">
    <stop offset="0%"   stop-color="#888aaa"/>
    <stop offset="32%"  stop-color="#ccccff" stop-opacity=".8"/>
    <stop offset="62%"  stop-color="#1a1a2c"/>
    <stop offset="100%" stop-color="#0a0a14"/>
  </linearGradient>

  <!-- Carbon fibre weave texture overlay -->
  <pattern id="carbonr1x2301" width="6" height="6" patternUnits="userSpaceOnUse">
    <rect width="6" height="6" fill="rgba(0,0,0,.08)"/>
    <rect x="0" y="0" width="3" height="3" fill="rgba(255,255,255,.022)"/>
    <rect x="3" y="3" width="3" height="3" fill="rgba(255,255,255,.022)"/>
    <line x1="0" y1="0" x2="3" y2="3" stroke="rgba(255,255,255,.038)" stroke-width=".5"/>
    <line x1="3" y1="0" x2="6" y2="3" stroke="rgba(0,0,0,.055)"       stroke-width=".5"/>
    <line x1="0" y1="3" x2="3" y2="6" stroke="rgba(0,0,0,.055)"       stroke-width=".5"/>
    <line x1="3" y1="3" x2="6" y2="6" stroke="rgba(255,255,255,.038)" stroke-width=".5"/>
  </pattern>

  <!-- Specular metal sheen on armour panels -->
  <filter id="metalr1x2301" x="-5%" y="-5%" width="110%" height="110%">
    <feSpecularLighting surfaceScale="4" specularConstant="1.8"
        specularExponent="42" lighting-color="#ffffff" result="spec">
      <feDistantLight elevation="52" azimuth="38"/>
    </feSpecularLighting>
    <feComposite in="spec" in2="SourceGraphic" operator="in" result="sm"/>
    <feComposite in="SourceGraphic" in2="sm" operator="arithmetic" k1="0" k2="1" k3="0.55" k4="0"/>
  </filter>

  <!-- Sharper specular for weapons — heavier glare -->
  <filter id="wmr1x2301" x="-8%" y="-8%" width="116%" height="116%">
    <feSpecularLighting surfaceScale="6" specularConstant="2.4"
        specularExponent="65" lighting-color="#ffffff" result="spec">
      <feDistantLight elevation="44" azimuth="28"/>
    </feSpecularLighting>
    <feComposite in="spec" in2="SourceGraphic" operator="in" result="sm"/>
    <feComposite in="SourceGraphic" in2="sm" operator="arithmetic" k1="0" k2="1" k3="0.78" k4="0"/>
  </filter>

  <!-- Sketch wobble -->
  <filter id="skr1x2301" x="-8%" y="-8%" width="116%" height="116%">
    <feTurbulence type="fractalNoise" baseFrequency="0.038"
        numOctaves="3" seed="21" result="noise"/>
    <feDisplacementMap in="SourceGraphic" in2="noise" scale="2.6"
        xChannelSelector="R" yChannelSelector="G" result="w"/>
    <feComposite in="w" in2="SourceGraphic" operator="atop"/>
  </filter>

  <!-- Glow: sharp accent -->
  <filter id="glowr1x2301" x="-20%" y="-20%" width="140%" height="140%">
    <feGaussianBlur stdDeviation="3.5" result="b"/>
    <feColorMatrix in="b" type="matrix"
        values="0 0 0 0 1  0 0 0 0 1  0 0 0 0 1  0 0 0 1.8 0" result="boost"/>
    <feMerge><feMergeNode in="boost"/><feMergeNode in="SourceGraphic"/></feMerge>
  </filter>

  <!-- Bloom: wide soft -->
  <filter id="bloomr1x2301" x="-40%" y="-40%" width="180%" height="180%">
    <feGaussianBlur stdDeviation="11" result="b"/>
    <feMerge><feMergeNode in="b"/><feMergeNode in="SourceGraphic"/></feMerge>
  </filter>

  </defs><rect width="1000" height="1000" fill="url(#bgr1x2301)"/><ellipse cx="500.0" cy="892.0" rx="350.0" ry="65.0" fill="rgba(0,0,0,.7)" filter="url(#bloomr1x2301)"/><ellipse cx="500.0" cy="889.0" rx="220.0" ry="34.0" fill="rgba(0,0,0,.45)"/><polygon points="398.0,663.9 489.3,662.7 480.6,876.3 386.2,877.9" fill="url(#suitr1x2301)" stroke="#ccccff" stroke-width="2.2" filter="url(#skr1x2301) url(#metalr1x2301)"/><polygon points="400.3,661.0 491.0,662.9 482.1,878.8 386.2,877.0" fill="url(#carbonr1x2301)"/><polygon points="392.3,722.8 494.2,723.3 484.8,787.6 385.4,788.7" fill="url(#bevelr1x2301)" fill-opacity=".5" stroke="#ccccff" stroke-width="1.4" filter="url(#skr1x2301)"/><polygon points="512.1,662.2 602.9,661.9 612.9,876.0 518.8,877.2" fill="url(#suitr1x2301)" stroke="#ccccff" stroke-width="2.2" filter="url(#skr1x2301) url(#metalr1x2301)"/><polygon points="511.4,662.8 599.5,661.8 612.1,877.2 518.3,876.2" fill="url(#carbonr1x2301)"/><polygon points="506.3,724.1 607.5,724.4 614.4,788.8 516.6,787.2" fill="url(#bevelr1x2301)" fill-opacity=".5" stroke="#ccccff" stroke-width="1.4" filter="url(#skr1x2301)"/><rect x="391.6" y="837.1" width="100.3" height="24.7" fill="url(#bevelr1x2301)" stroke="#ccccff" stroke-width="1" filter="url(#skr1x2301)"/><rect x="508.2"  y="838.3" width="100.3" height="24.7" fill="url(#bevelr1x2301)" stroke="#ccccff" stroke-width="1" filter="url(#skr1x2301)"/><polygon points="369.5,876.3 495.2,876.9 504.3,919.8 363.7,921.5" fill="#242438" stroke="#ccccff" stroke-width="2" filter="url(#skr1x2301)"/><polygon points="505.2,877.2 628.7,878.8 637.6,923.0 495.2,920.9" fill="#242438" stroke="#ccccff" stroke-width="2" filter="url(#skr1x2301)"/><polygon points="303.7,632.7 695.9,634.2 636.3,682.0 362.8,682.4" fill="#ccccff" fill-opacity=".52" stroke="#ccccff" stroke-width="2" filter="url(#skr1x2301)"/><rect x="462.6" y="637.2" width="72.0" height="42.0" fill="url(#bevelr1x2301)" stroke="#ccccff" stroke-width="1.4" filter="url(#glowr1x2301)"/><rect x="485.5" y="640.6" width="28.0" height="22.0" rx="1" fill="rgba(255,255,255,.48)"/><polygon points="152.8,466.6 235.7,465.0 256.2,736.4 129.2,734.8" fill="url(#suitr1x2301)" stroke="#ccccff" stroke-width="2.2" filter="url(#skr1x2301) url(#metalr1x2301)"/><polygon points="174.2,431.9 253.9,433.8 242.0,511.9 159.7,510.8" fill="url(#bevelr1x2301)" fill-opacity=".72" stroke="#ccccff" stroke-width="2.2" filter="url(#skr1x2301)"/><polygon points="161.1,623.5 241.4,622.2 238.3,659.5 165.4,659.4" fill="#ccccff" fill-opacity=".42" stroke="#ccccff" stroke-width="1" filter="url(#skr1x2301)"/><polygon points="763.4,467.2 846.0,465.6 871.6,733.9 743.6,733.5" fill="url(#suitr1x2301)" stroke="#ccccff" stroke-width="2.2" filter="url(#skr1x2301) url(#metalr1x2301)"/><polygon points="745.4,431.6 827.9,431.0 841.3,511.6 758.0,511.9" fill="url(#bevelr1x2301)" fill-opacity=".72" stroke="#ccccff" stroke-width="2.2" filter="url(#skr1x2301)"/><polygon points="757.3,623.5 837.6,620.2 835.9,659.9 762.7,660.0" fill="#ccccff" fill-opacity=".42" stroke="#ccccff" stroke-width="1" filter="url(#skr1x2301)"/><rect x="120.3"  y="700.0" width="135.3" height="85.0" rx="4" fill="url(#bevelr1x2301)" stroke="#ccccff" stroke-width="1.8" filter="url(#skr1x2301)"/><rect x="748.6"   y="698.2" width="135.3" height="85.0" rx="4" fill="url(#bevelr1x2301)" stroke="#ccccff" stroke-width="1.8" filter="url(#skr1x2301)"/><line x1="149.5" y1="701.7" x2="149.1" y2="785.4" stroke="#ccccff" stroke-opacity=".38" stroke-width="1"/><line x1="776.4" y1="701.3" x2="779.1" y2="783.2" stroke="#ccccff" stroke-opacity=".38" stroke-width="1"/><line x1="182.7" y1="703.3" x2="183.2" y2="782.1" stroke="#ccccff" stroke-opacity=".38" stroke-width="1"/><line x1="812.2" y1="702.6" x2="810.5" y2="782.1" stroke="#ccccff" stroke-opacity=".38" stroke-width="1"/><line x1="215.4" y1="703.6" x2="215.4" y2="784.0" stroke="#ccccff" stroke-opacity=".38" stroke-width="1"/><line x1="843.9" y1="701.7" x2="844.4" y2="784.0" stroke="#ccccff" stroke-opacity=".38" stroke-width="1"/><polygon points="236.5,417.8 765.0,417.8 721.3,661.5 277.1,661.2" fill="url(#suitr1x2301)" stroke="#ccccff" stroke-width="2.6" filter="url(#skr1x2301) url(#metalr1x2301)"/><polygon points="234.7,417.2 765.6,417.7 724.1,662.8 278.0,661.1" fill="url(#carbonr1x2301)"/><polygon points="366.0,419.1 633.5,418.6 609.7,516.3 387.4,514.2" fill="url(#suitHir1x2301)"/><line x1="362.2" y1="472.3" x2="638.9" y2="471.8" stroke="#ccccff" stroke-opacity=".52" stroke-width="1.3" filter="url(#skr1x2301)"/><line x1="399.8" y1="550.5" x2="602.1" y2="551.0" stroke="#ccccff" stroke-opacity=".52" stroke-width="1.3" filter="url(#skr1x2301)"/><line x1="265.4" y1="489.6" x2="319.2" y2="490.5" stroke="#ccccff" stroke-opacity=".62" stroke-width="1.8"/><line x1="679.5" y1="490.7" x2="731.6" y2="491.2" stroke="#ccccff" stroke-opacity=".62" stroke-width="1.8"/><line x1="265.4" y1="522.5" x2="318.2" y2="522.6" stroke="#ccccff" stroke-opacity=".62" stroke-width="1.8"/><line x1="680.5" y1="522.4" x2="732.2" y2="523.8" stroke="#ccccff" stroke-opacity=".62" stroke-width="1.8"/><line x1="266.8" y1="554.8" x2="320.4" y2="556.1" stroke="#ccccff" stroke-opacity=".62" stroke-width="1.8"/><line x1="680.4" y1="553.5" x2="732.5" y2="556.0" stroke="#ccccff" stroke-opacity=".62" stroke-width="1.8"/><line x1="266.7" y1="586.1" x2="320.7" y2="586.3" stroke="#ccccff" stroke-opacity=".62" stroke-width="1.8"/><line x1="681.5" y1="584.9" x2="733.1" y2="587.4" stroke="#ccccff" stroke-opacity=".62" stroke-width="1.8"/><g filter="url(#glowr1x2301)"><polygon points="500.7,453.1 516.2,488.7 555.5,492.9 525.0,518.9 535.5,559.3 500.3,535.6 467.6,556.7 475.0,518.8 444.1,492.1 485.5,491.5 " fill="#ccccff" stroke="#0d1520" stroke-width="1.4" filter="url(#skr1x2301)"/><polygon points="500.7,453.1 516.2,488.7 555.5,492.9 525.0,518.9 535.5,559.3 500.3,535.6 467.6,556.7 475.0,518.8 444.1,492.1 485.5,491.5 " fill="url(#suitHir1x2301)" opacity=".45"/></g><g><polygon points="871.8,671.4 923.8,671.4 908.2,-28.6 887.4,-28.6" fill="url(#blader1x2301)" filter="url(#wmr1x2301)"/><polygon points="887.4,-28.6 908.2,-28.6 897.8,-138.6" fill="url(#blader1x2301)" filter="url(#wmr1x2301)"/><polygon points="896.0,671.4 899.7,671.4 898.4,-128.6 897.3,-128.6" fill="url(#bladeTipr1x2301)" opacity=".9"/><line x1="908.6401971805841" y1="672.7736564573831" x2="899.2851577190869" y2="-129.06350671192632" stroke="rgba(255,255,255,.68)" stroke-width="1.5"/><line x1="888.5525770471618" y1="672.7641845421865" x2="896.4247521317565" y2="-128.18226010380315" stroke="#ccccff" stroke-width="1" stroke-opacity=".45"/><line x1="902.5" y1="651.4" x2="899.7" y2="11.4" stroke="rgba(0,0,0,.38)" stroke-width="1.6"/><line x1="893.2" y1="651.4" x2="896.0" y2="11.4" stroke="rgba(0,0,0,.38)" stroke-width="1.6"/><rect x="841.2787955463492" y="671.1847151083872" width="112.0" height="28.0" rx="3" fill="url(#bevelr1x2301)" stroke="#ccccff" stroke-width="1.6" filter="url(#wmr1x2301)"/><rect x="867.3132075066306" y="672.0419147633947" width="64.0" height="10.0" rx="1" fill="rgba(255,255,255,.32)"/><rect x="884.6125744625554" y="676.655391146522" width="24.0" height="6.0" rx="1" fill="#ccccff" fill-opacity=".35"/><rect x="886.0595376394317" y="686.5780278556049" width="24.0" height="6.0" rx="1" fill="#ccccff" fill-opacity=".35"/><rect x="885.3829170378484" y="693.1397874353453" width="24.0" height="6.0" rx="1" fill="#ccccff" fill-opacity=".35"/><rect x="887.5791884283163" y="702.3932206897996" width="24.0" height="6.0" rx="1" fill="#ccccff" fill-opacity=".35"/><rect x="884.6851476381161" y="710.1863900273107" width="24.0" height="6.0" rx="1" fill="#ccccff" fill-opacity=".35"/><rect x="884.481719135642" y="718.6910106213763" width="24.0" height="6.0" rx="1" fill="#ccccff" fill-opacity=".35"/><ellipse cx="899.1962424492091" cy="725.8029455656185" rx="22.0" ry="16.0" fill="url(#bevelr1x2301)" stroke="#ccccff" stroke-width="1.2" filter="url(#wmr1x2301)"/></g><rect x="449.6753311556764" y="555.3457670644857" width="100.0"  height="56.0" fill="#242438" stroke="#ccccff" stroke-width="2.2" filter="url(#skr1x2301)"/><rect x="423.23599538318814" y="576.8460496864282" width="152.0" height="26.0" fill="url(#bevelr1x2301)" fill-opacity=".65" stroke="#ccccff" stroke-width="1.2" filter="url(#skr1x2301)"/><polygon points="309.8,380.5 348.7,295.8 498.5,279.4 648.2,292.9 692.5,381.7 670.2,503.0 501.4,564.6 330.0,503.0" fill="url(#suitr1x2301)" stroke="#ccccff" stroke-width="2.8" filter="url(#skr1x2301) url(#metalr1x2301)"/><polygon points="309.2,380.3 348.5,293.5 501.0,278.3 648.0,293.5 693.7,381.4 669.7,502.6 499.3,565.1 332.3,502.8" fill="url(#carbonr1x2301)"/><polygon points="380.6,301.4 499.2,286.1 619.8,302.3 607.6,382.3 393.2,382.3" fill="url(#suitHir1x2301)"/><polygon points="380.2,379.1 365.8,424.4 432.5,503.1 500.9,526.7 566.4,504.8 634.7,426.8 617.3,381.3" fill="#0d1520" fill-opacity=".88" stroke="#ccccff" stroke-width="1.8" filter="url(#skr1x2301)"/><polygon points="380.9,412.7 475.3,413.1 485.4,440.8 389.0,441.3" fill="#ccccff" filter="url(#glowr1x2301)"/><polygon points="524.6,411.9 619.8,412.6 611.5,440.2 516.5,439.6" fill="#ccccff" filter="url(#glowr1x2301)"/><ellipse cx="430.9" cy="425.7" rx="38.4"  ry="8.2" fill="#ffffff" opacity=".88"/><ellipse cx="569.1" cy="425.7" rx="38.4"  ry="8.2" fill="#ffffff" opacity=".88"/><line x1="483.00766796503217" y1="414.4494834453799" x2="516.1971491339058" y2="413.05188824571667" stroke="#ccccff" stroke-opacity=".52" stroke-width="2"/><line x1="483.23750831210987" y1="438.75475772721694" x2="516.1635922021605" y2="439.121475786902" stroke="#ccccff" stroke-opacity=".52" stroke-width="2"/><line x1="500.41227013859896" y1="454.56671081287783" x2="498.8520389941521" y2="481.7845825565048" stroke="#ccccff" stroke-opacity=".58" stroke-width="2.2" filter="url(#skr1x2301)"/><line x1="455.33471303412693" y1="491.1828085993416" x2="454.5950239915215" y2="518.2393566588871" stroke="#ccccff" stroke-opacity=".52" stroke-width="1.5" filter="url(#skr1x2301)"/><line x1="475.2850229656696" y1="491.50673995437097" x2="476.76432313941416" y2="520.7827149231919" stroke="#ccccff" stroke-opacity=".52" stroke-width="1.5" filter="url(#skr1x2301)"/><line x1="501.145672944095" y1="491.9635874328203" x2="500.7991702545434" y2="521.3695508184843" stroke="#ccccff" stroke-opacity=".52" stroke-width="1.5" filter="url(#skr1x2301)"/><line x1="521.5437545483559" y1="490.0664489459246" x2="522.3845913583971" y2="519.780106347613" stroke="#ccccff" stroke-opacity=".52" stroke-width="1.5" filter="url(#skr1x2301)"/><line x1="544.9595328695327" y1="491.19116284307086" x2="546.4956887715683" y2="519.2194636449218" stroke="#ccccff" stroke-opacity=".52" stroke-width="1.5" filter="url(#skr1x2301)"/><polygon points="433.0,504.3 567.8,505.3 554.7,557.6 446.8,556.8" fill="#242438" fill-opacity=".72" stroke="#ccccff" stroke-width="1.3" filter="url(#skr1x2301)"/><path d="M387.2302426772751 329.0696327755228 Q329.62079572673883 215.90881514092908 382.0012006909028 139.62104156995193" stroke="#ccccff" stroke-width="5" fill="none" stroke-linecap="round" filter="url(#skr1x2301)"/><path d="M390.08509680531915 328.75847527664155 Q329.85474071694534 217.2849064288661 380.7620689338446 141.83596697896718" stroke="rgba(255,255,255,.25)" stroke-width="1.5" fill="none" stroke-linecap="round"/><path d="M612.9953717531077 326.38906499091536 Q668.8674107382446 217.5272080575116 617.9031172784604 140.80647589061408" stroke="#ccccff" stroke-width="5" fill="none" stroke-linecap="round" filter="url(#skr1x2301)"/><path d="M613.0189735428803 327.6445997519419 Q668.337580132056 215.79196066344156 619.1835112647711 140.61088195638732" stroke="rgba(255,255,255,.25)" stroke-width="1.5" fill="none" stroke-linecap="round"/><text x="30.0"  y="975.0" font-family="monospace" font-weight="bold" font-size="22.0" fill="rgba(255,255,255,.22)">#0001</text><text x="500.0"   y="975.0" text-anchor="middle" font-family="monospace" font-weight="bold" font-size="22.0" fill="#ccccff" fill-opacity=".48">PHANTOM RANGER</text><text x="970.0" y="975.0" text-anchor="end"    font-family="monospace" font-weight="bold" font-size="22.0" fill="#ccccff" fill-opacity=".32">MECH RANGERS</text></svg>