<svg xmlns="http://www.w3.org/2000/svg" viewBox="0 0 1000 1000" width="1000" height="1000" shape-rendering="geometricPrecision"><defs>

  <!-- Scene gradients -->
  <radialGradient id="bgr1x2311" cx="50%" cy="42%" r="72%">
    <stop offset="0%"   stop-color="#001e1e"/>
    <stop offset="100%" stop-color="#0e001e"/>
  </radialGradient>
  <linearGradient id="suitr1x2311" x1="8%" y1="0%" x2="92%" y2="100%">
    <stop offset="0%"   stop-color="#ffcc00" stop-opacity=".95"/>
    <stop offset="45%"  stop-color="#a07000"/>
    <stop offset="100%" stop-color="#0e001e"/>
  </linearGradient>
  <linearGradient id="suitHir1x2311" x1="0%" y1="0%" x2="0%" y2="100%">
    <stop offset="0%"   stop-color="rgba(255,255,255,.28)"/>
    <stop offset="60%"  stop-color="rgba(255,255,255,.04)"/>
    <stop offset="100%" stop-color="rgba(255,255,255,0)"/>
  </linearGradient>
  <!-- Bevel: bright top, dark bottom for armour panels -->
  <linearGradient id="bevelr1x2311" x1="0%" y1="0%" x2="0%" y2="100%">
    <stop offset="0%"   stop-color="rgba(255,255,255,.55)"/>
    <stop offset="30%"  stop-color="#ffcc00"/>
    <stop offset="70%"  stop-color="#a07000"/>
    <stop offset="100%" stop-color="rgba(0,0,0,.5)"/>
  </linearGradient>

  <!-- Weapon: cold steel blade sweep -->
  <linearGradient id="blader1x2311" x1="0%" y1="0%" x2="100%" y2="0%">
    <stop offset="0%"   stop-color="#0e0e20"/>
    <stop offset="16%"  stop-color="#3e3e58"/>
    <stop offset="34%"  stop-color="#c8c8e0"/>
    <stop offset="50%"  stop-color="#f5f5ff"/>
    <stop offset="66%"  stop-color="#b8b8d0"/>
    <stop offset="84%"  stop-color="#2e2e48"/>
    <stop offset="100%" stop-color="#08080e"/>
  </linearGradient>
  <!-- Blade tip brightening -->
  <linearGradient id="bladeTipr1x2311" x1="0%" y1="100%" x2="0%" y2="0%">
    <stop offset="0%"   stop-color="rgba(255,255,255,0)"/>
    <stop offset="55%"  stop-color="rgba(255,255,255,.1)"/>
    <stop offset="100%" stop-color="rgba(255,255,255,.55)"/>
  </linearGradient>
  <!-- Gunmetal anodised — blaster body -->
  <linearGradient id="gunmetalr1x2311" x1="0%" y1="0%" x2="0%" y2="100%">
    <stop offset="0%"   stop-color="#46465e"/>
    <stop offset="18%"  stop-color="#828296"/>
    <stop offset="42%"  stop-color="#26263a"/>
    <stop offset="72%"  stop-color="#16162a"/>
    <stop offset="100%" stop-color="#0c0c18"/>
  </linearGradient>
  <!-- Brushed steel tube — barrel/rod -->
  <linearGradient id="barrelr1x2311" x1="0%" y1="0%" x2="100%" y2="0%">
    <stop offset="0%"   stop-color="#0a0a14"/>
    <stop offset="24%"  stop-color="#585875"/>
    <stop offset="50%"  stop-color="#a8a8c8"/>
    <stop offset="76%"  stop-color="#383852"/>
    <stop offset="100%" stop-color="#0a0a14"/>
  </linearGradient>
  <!-- Chrome rod — lance shaft -->
  <linearGradient id="chromer1x2311" x1="0%" y1="0%" x2="100%" y2="0%">
    <stop offset="0%"   stop-color="#0c0c18"/>
    <stop offset="20%"  stop-color="#686888"/>
    <stop offset="44%"  stop-color="#e0e0f0"/>
    <stop offset="56%"  stop-color="#c0c0d8"/>
    <stop offset="80%"  stop-color="#28283e"/>
    <stop offset="100%" stop-color="#0c0c18"/>
  </linearGradient>
  <!-- Titanium plate — shield face -->
  <linearGradient id="titaniumr1x2311" x1="0%" y1="0%" x2="100%" y2="100%">
    <stop offset="0%"   stop-color="#585878"/>
    <stop offset="28%"  stop-color="#ffcc00" stop-opacity=".88"/>
    <stop offset="55%"  stop-color="#a07000"/>
    <stop offset="80%"  stop-color="#181828"/>
    <stop offset="100%" stop-color="#0a0a18"/>
  </linearGradient>
  <!-- Artillery black-chrome — cannon body -->
  <linearGradient id="artilleryr1x2311" x1="0%" y1="0%" x2="0%" y2="100%">
    <stop offset="0%"   stop-color="#383850"/>
    <stop offset="14%"  stop-color="#78789a"/>
    <stop offset="36%"  stop-color="#202034"/>
    <stop offset="65%"  stop-color="#14141e"/>
    <stop offset="100%" stop-color="#0a0a12"/>
  </linearGradient>
  <!-- Energy orb — staff -->
  <radialGradient id="orbr1x2311" cx="35%" cy="35%" r="65%">
    <stop offset="0%"   stop-color="rgba(255,255,255,.9)"/>
    <stop offset="30%"  stop-color="#ffcc00"/>
    <stop offset="68%"  stop-color="#a07000"/>
    <stop offset="100%" stop-color="rgba(0,0,0,.6)"/>
  </radialGradient>
  <!-- Knuckle plate chrome -->
  <linearGradient id="knuckler1x2311" x1="0%" y1="0%" x2="0%" y2="100%">
    <stop offset="0%"   stop-color="#888aaa"/>
    <stop offset="32%"  stop-color="#ffcc00" stop-opacity=".8"/>
    <stop offset="62%"  stop-color="#1a1a2c"/>
    <stop offset="100%" stop-color="#0a0a14"/>
  </linearGradient>

  <!-- Carbon fibre weave texture overlay -->
  <pattern id="carbonr1x2311" width="6" height="6" patternUnits="userSpaceOnUse">
    <rect width="6" height="6" fill="rgba(0,0,0,.08)"/>
    <rect x="0" y="0" width="3" height="3" fill="rgba(255,255,255,.022)"/>
    <rect x="3" y="3" width="3" height="3" fill="rgba(255,255,255,.022)"/>
    <line x1="0" y1="0" x2="3" y2="3" stroke="rgba(255,255,255,.038)" stroke-width=".5"/>
    <line x1="3" y1="0" x2="6" y2="3" stroke="rgba(0,0,0,.055)"       stroke-width=".5"/>
    <line x1="0" y1="3" x2="3" y2="6" stroke="rgba(0,0,0,.055)"       stroke-width=".5"/>
    <line x1="3" y1="3" x2="6" y2="6" stroke="rgba(255,255,255,.038)" stroke-width=".5"/>
  </pattern>

  <!-- Specular metal sheen on armour panels -->
  <filter id="metalr1x2311" x="-5%" y="-5%" width="110%" height="110%">
    <feSpecularLighting surfaceScale="4" specularConstant="1.8"
        specularExponent="42" lighting-color="#ffffff" result="spec">
      <feDistantLight elevation="52" azimuth="38"/>
    </feSpecularLighting>
    <feComposite in="spec" in2="SourceGraphic" operator="in" result="sm"/>
    <feComposite in="SourceGraphic" in2="sm" operator="arithmetic" k1="0" k2="1" k3="0.55" k4="0"/>
  </filter>

  <!-- Sharper specular for weapons — heavier glare -->
  <filter id="wmr1x2311" x="-8%" y="-8%" width="116%" height="116%">
    <feSpecularLighting surfaceScale="6" specularConstant="2.4"
        specularExponent="65" lighting-color="#ffffff" result="spec">
      <feDistantLight elevation="44" azimuth="28"/>
    </feSpecularLighting>
    <feComposite in="spec" in2="SourceGraphic" operator="in" result="sm"/>
    <feComposite in="SourceGraphic" in2="sm" operator="arithmetic" k1="0" k2="1" k3="0.78" k4="0"/>
  </filter>

  <!-- Sketch wobble -->
  <filter id="skr1x2311" x="-8%" y="-8%" width="116%" height="116%">
    <feTurbulence type="fractalNoise" baseFrequency="0.038"
        numOctaves="3" seed="13" result="noise"/>
    <feDisplacementMap in="SourceGraphic" in2="noise" scale="2.6"
        xChannelSelector="R" yChannelSelector="G" result="w"/>
    <feComposite in="w" in2="SourceGraphic" operator="atop"/>
  </filter>

  <!-- Glow: sharp accent -->
  <filter id="glowr1x2311" x="-20%" y="-20%" width="140%" height="140%">
    <feGaussianBlur stdDeviation="3.5" result="b"/>
    <feColorMatrix in="b" type="matrix"
        values="0 0 0 0 1  0 0 0 0 1  0 0 0 0 1  0 0 0 1.8 0" result="boost"/>
    <feMerge><feMergeNode in="boost"/><feMergeNode in="SourceGraphic"/></feMerge>
  </filter>

  <!-- Bloom: wide soft -->
  <filter id="bloomr1x2311" x="-40%" y="-40%" width="180%" height="180%">
    <feGaussianBlur stdDeviation="11" result="b"/>
    <feMerge><feMergeNode in="b"/><feMergeNode in="SourceGraphic"/></feMerge>
  </filter>

  </defs><rect width="1000" height="1000" fill="url(#bgr1x2311)"/><circle cx="500" cy="500" r="420.0" fill="none" stroke="#ffcc00" stroke-opacity=".11" stroke-width="42" stroke-dasharray="8,5"/><circle cx="500" cy="500" r="240.0" fill="none" stroke="#a07000" stroke-opacity=".09" stroke-width="18"/><line x1="500" y1="500" x2="1500.0" y2="500.0" stroke="#ffcc00" stroke-opacity=".035" stroke-width="1.2"/><line x1="500" y1="500" x2="1366.0" y2="1000.0" stroke="#ffcc00" stroke-opacity=".035" stroke-width="1.2"/><line x1="500" y1="500" x2="1000.0" y2="1366.0" stroke="#ffcc00" stroke-opacity=".035" stroke-width="1.2"/><line x1="500" y1="500" x2="500.0" y2="1500.0" stroke="#ffcc00" stroke-opacity=".035" stroke-width="1.2"/><line x1="500" y1="500" x2="0.0" y2="1366.0" stroke="#ffcc00" stroke-opacity=".035" stroke-width="1.2"/><line x1="500" y1="500" x2="-366.0" y2="1000.0" stroke="#ffcc00" stroke-opacity=".035" stroke-width="1.2"/><line x1="500" y1="500" x2="-500.0" y2="500.0" stroke="#ffcc00" stroke-opacity=".035" stroke-width="1.2"/><line x1="500" y1="500" x2="-366.0" y2="-0.0" stroke="#ffcc00" stroke-opacity=".035" stroke-width="1.2"/><line x1="500" y1="500" x2="-0.0" y2="-366.0" stroke="#ffcc00" stroke-opacity=".035" stroke-width="1.2"/><line x1="500" y1="500" x2="500.0" y2="-500.0" stroke="#ffcc00" stroke-opacity=".035" stroke-width="1.2"/><line x1="500" y1="500" x2="1000.0" y2="-366.0" stroke="#ffcc00" stroke-opacity=".035" stroke-width="1.2"/><line x1="500" y1="500" x2="1366.0" y2="-0.0" stroke="#ffcc00" stroke-opacity=".035" stroke-width="1.2"/><ellipse cx="500.0" cy="892.0" rx="350.0" ry="65.0" fill="rgba(0,0,0,.7)" filter="url(#bloomr1x2311)"/><ellipse cx="500.0" cy="889.0" rx="220.0" ry="34.0" fill="rgba(0,0,0,.45)"/><ellipse cx="500.0" cy="520.0" rx="320.0" ry="480.0" fill="#ffffff" fill-opacity=".042" filter="url(#bloomr1x2311)"/><circle cx="506.2" cy="329.6" r="2.3" fill="#ffffff" fill-opacity="0.61" filter="url(#glowr1x2311)"/><circle cx="630.8" cy="336.5" r="3.8" fill="#ffffff" fill-opacity="0.63" filter="url(#glowr1x2311)"/><circle cx="408.2" cy="392.1" r="2.2" fill="#ffffff" fill-opacity="0.76" filter="url(#glowr1x2311)"/><circle cx="375.2" cy="783.8" r="2.2" fill="#ffffff" fill-opacity="0.77" filter="url(#glowr1x2311)"/><circle cx="266.0" cy="449.5" r="0.9" fill="#ffffff" fill-opacity="0.83" filter="url(#glowr1x2311)"/><circle cx="677.3" cy="446.8" r="4.2" fill="#ffffff" fill-opacity="0.77" filter="url(#glowr1x2311)"/><circle cx="409.8" cy="466.7" r="1.0" fill="#ffffff" fill-opacity="0.77" filter="url(#glowr1x2311)"/><circle cx="398.1" cy="520.4" r="3.8" fill="#ffffff" fill-opacity="0.76" filter="url(#glowr1x2311)"/><circle cx="561.3" cy="353.1" r="1.9" fill="#ffffff" fill-opacity="0.86" filter="url(#glowr1x2311)"/><circle cx="391.4" cy="685.1" r="1.4" fill="#ffffff" fill-opacity="0.88" filter="url(#glowr1x2311)"/><circle cx="730.8" cy="796.3" r="0.7" fill="#ffffff" fill-opacity="0.86" filter="url(#glowr1x2311)"/><circle cx="417.7" cy="345.2" r="4.1" fill="#ffffff" fill-opacity="0.55" filter="url(#glowr1x2311)"/><circle cx="307.0" cy="767.8" r="2.1" fill="#ffffff" fill-opacity="0.81" filter="url(#glowr1x2311)"/><circle cx="408.7" cy="188.0" r="1.6" fill="#ffffff" fill-opacity="0.82" filter="url(#glowr1x2311)"/><polygon points="400.2,663.9 488.7,662.2 480.0,878.3 387.9,878.0" fill="url(#suitr1x2311)" stroke="#ffcc00" stroke-width="2.2" filter="url(#skr1x2311) url(#metalr1x2311)"/><polygon points="397.7,661.6 489.6,660.8 479.6,876.5 386.8,876.3" fill="url(#carbonr1x2311)"/><polygon points="391.1,722.3 494.1,725.4 482.6,788.7 382.7,788.5" fill="url(#bevelr1x2311)" fill-opacity=".5" stroke="#ffcc00" stroke-width="1.4" filter="url(#skr1x2311)"/><polygon points="510.7,664.0 600.6,662.0 612.5,875.8 518.8,876.3" fill="url(#suitr1x2311)" stroke="#ffcc00" stroke-width="2.2" filter="url(#skr1x2311) url(#metalr1x2311)"/><polygon points="508.9,660.7 600.1,664.0 613.9,877.8 518.7,877.0" fill="url(#carbonr1x2311)"/><polygon points="507.5,724.3 606.8,723.5 617.3,787.1 515.2,788.6" fill="url(#bevelr1x2311)" fill-opacity=".5" stroke="#ffcc00" stroke-width="1.4" filter="url(#skr1x2311)"/><rect x="393.1" y="839.6" width="100.3" height="24.7" fill="url(#bevelr1x2311)" stroke="#ffcc00" stroke-width="1" filter="url(#skr1x2311)"/><rect x="507.9"  y="838.0" width="100.3" height="24.7" fill="url(#bevelr1x2311)" stroke="#ffcc00" stroke-width="1" filter="url(#skr1x2311)"/><polygon points="369.8,876.7 497.6,878.3 504.4,920.9 363.9,923.1" fill="#a07000" stroke="#ffcc00" stroke-width="2" filter="url(#skr1x2311)"/><polygon points="505.0,875.8 630.7,878.8 636.7,922.8 495.7,922.7" fill="#a07000" stroke="#ffcc00" stroke-width="2" filter="url(#skr1x2311)"/><polygon points="302.8,634.6 695.3,631.9 637.5,683.8 362.7,680.4" fill="#ffcc00" fill-opacity=".52" stroke="#ffcc00" stroke-width="2" filter="url(#skr1x2311)"/><rect x="462.3" y="636.8" width="72.0" height="42.0" fill="url(#bevelr1x2311)" stroke="#ffcc00" stroke-width="1.4" filter="url(#glowr1x2311)"/><rect x="486.2" y="640.1" width="28.0" height="22.0" rx="1" fill="rgba(255,255,255,.48)"/><polygon points="154.2,468.2 235.2,468.0 259.3,735.7 129.9,736.5" fill="url(#suitr1x2311)" stroke="#ffcc00" stroke-width="2.2" filter="url(#skr1x2311) url(#metalr1x2311)"/><polygon points="174.1,433.0 251.4,433.2 244.4,510.0 159.2,512.1" fill="url(#bevelr1x2311)" fill-opacity=".72" stroke="#ffcc00" stroke-width="2.2" filter="url(#skr1x2311)"/><polygon points="162.0,622.6 241.5,621.8 240.5,662.3 166.0,660.9" fill="#ffcc00" fill-opacity=".42" stroke="#ffcc00" stroke-width="1" filter="url(#skr1x2311)"/><polygon points="765.3,468.0 846.4,468.1 872.3,735.8 742.3,734.7" fill="url(#suitr1x2311)" stroke="#ffcc00" stroke-width="2.2" filter="url(#skr1x2311) url(#metalr1x2311)"/><polygon points="745.3,430.6 826.5,431.5 838.9,511.1 756.4,511.0" fill="url(#bevelr1x2311)" fill-opacity=".72" stroke="#ffcc00" stroke-width="2.2" filter="url(#skr1x2311)"/><polygon points="755.6,621.4 837.7,622.5 834.6,660.4 762.6,661.5" fill="#ffcc00" fill-opacity=".42" stroke="#ffcc00" stroke-width="1" filter="url(#skr1x2311)"/><rect x="119.1"  y="699.6" width="135.3" height="85.0" rx="4" fill="url(#bevelr1x2311)" stroke="#ffcc00" stroke-width="1.8" filter="url(#skr1x2311)"/><rect x="749.4"   y="699.2" width="135.3" height="85.0" rx="4" fill="url(#bevelr1x2311)" stroke="#ffcc00" stroke-width="1.8" filter="url(#skr1x2311)"/><line x1="149.1" y1="702.2" x2="151.3" y2="785.5" stroke="#ffcc00" stroke-opacity=".38" stroke-width="1"/><line x1="779.8" y1="703.3" x2="778.4" y2="784.0" stroke="#ffcc00" stroke-opacity=".38" stroke-width="1"/><line x1="182.2" y1="702.4" x2="183.5" y2="784.1" stroke="#ffcc00" stroke-opacity=".38" stroke-width="1"/><line x1="811.9" y1="701.1" x2="811.6" y2="783.8" stroke="#ffcc00" stroke-opacity=".38" stroke-width="1"/><line x1="217.0" y1="703.0" x2="214.4" y2="783.8" stroke="#ffcc00" stroke-opacity=".38" stroke-width="1"/><line x1="842.5" y1="700.6" x2="845.2" y2="785.1" stroke="#ffcc00" stroke-opacity=".38" stroke-width="1"/><polygon points="235.5,418.2 766.6,419.2 722.9,664.2 278.4,663.2" fill="url(#suitr1x2311)" stroke="#ffcc00" stroke-width="2.6" filter="url(#skr1x2311) url(#metalr1x2311)"/><polygon points="234.1,417.6 763.9,416.0 723.5,663.4 278.6,661.8" fill="url(#carbonr1x2311)"/><polygon points="369.1,416.3 633.6,416.6 610.1,516.6 389.2,514.4" fill="url(#suitHir1x2311)"/><line x1="360.8" y1="472.1" x2="636.8" y2="472.0" stroke="#ffcc00" stroke-opacity=".52" stroke-width="1.3" filter="url(#skr1x2311)"/><line x1="398.4" y1="551.4" x2="600.4" y2="551.2" stroke="#ffcc00" stroke-opacity=".52" stroke-width="1.3" filter="url(#skr1x2311)"/><line x1="267.2" y1="491.6" x2="320.6" y2="490.4" stroke="#ffcc00" stroke-opacity=".62" stroke-width="1.8"/><line x1="678.4" y1="491.7" x2="734.6" y2="489.8" stroke="#ffcc00" stroke-opacity=".62" stroke-width="1.8"/><line x1="268.4" y1="523.6" x2="319.7" y2="523.7" stroke="#ffcc00" stroke-opacity=".62" stroke-width="1.8"/><line x1="678.9" y1="522.5" x2="732.9" y2="521.7" stroke="#ffcc00" stroke-opacity=".62" stroke-width="1.8"/><line x1="266.6" y1="553.2" x2="319.0" y2="553.1" stroke="#ffcc00" stroke-opacity=".62" stroke-width="1.8"/><line x1="678.6" y1="555.2" x2="734.2" y2="553.4" stroke="#ffcc00" stroke-opacity=".62" stroke-width="1.8"/><line x1="265.5" y1="585.7" x2="319.9" y2="585.1" stroke="#ffcc00" stroke-opacity=".62" stroke-width="1.8"/><line x1="680.1" y1="585.7" x2="732.0" y2="588.0" stroke="#ffcc00" stroke-opacity=".62" stroke-width="1.8"/><g filter="url(#glowr1x2311)"><polygon points="481.8,453.3 511.3,506.2 499.1,505.5 516.6,567.8 486.5,514.4 499.4,516.6" fill="#ffcc00" stroke="#0e001e" stroke-width="1.4" filter="url(#skr1x2311)"/><polygon points="481.8,452.6 514.0,504.5 498.5,505.0 518.2,570.1 486.2,516.0 499.3,516.9" fill="url(#suitHir1x2311)" opacity=".4"/></g><g><polygon points="70.4,691.6 103.8,690.3 38.4,271.9" fill="url(#blader1x2311)" stroke="#ffcc00" stroke-width="1.8" filter="url(#wmr1x2311)"/><line x1="97.2" y1="691.4" x2="46.2" y2="271.4" stroke="rgba(255,255,255,.58)" stroke-width="1.3"/><polygon points="115.6,692.1 147.4,692.7 190.7,272.5" fill="url(#blader1x2311)" stroke="#ffcc00" stroke-width="1.8" filter="url(#wmr1x2311)"/><line x1="146.2" y1="691.4" x2="184.2" y2="271.4" stroke="rgba(255,255,255,.58)" stroke-width="1.3"/><rect x="67.40695687154304" y="681.3741165975108" width="96.0" height="26.0" rx="2" fill="url(#bevelr1x2311)" stroke="#ffcc00" stroke-width="1.4" filter="url(#wmr1x2311)"/></g><rect x="450.3451941906475" y="556.1847574175335" width="100.0"  height="56.0" fill="#a07000" stroke="#ffcc00" stroke-width="2.2" filter="url(#skr1x2311)"/><rect x="422.5703881665133" y="574.7014641518705" width="152.0" height="26.0" fill="url(#bevelr1x2311)" fill-opacity=".65" stroke="#ffcc00" stroke-width="1.2" filter="url(#skr1x2311)"/><polygon points="307.5,379.6 349.2,294.3 500.3,279.0 650.5,296.0 691.6,379.1 668.6,504.3 501.8,564.7 332.6,503.5" fill="url(#suitr1x2311)" stroke="#ffcc00" stroke-width="2.8" filter="url(#skr1x2311) url(#metalr1x2311)"/><polygon points="309.8,379.0 352.0,295.0 499.8,276.9 650.5,295.0 690.7,379.2 667.8,505.4 498.2,564.5 330.3,502.6" fill="url(#carbonr1x2311)"/><polygon points="381.4,304.4 498.8,286.0 620.2,302.6 609.0,381.5 393.8,381.9" fill="url(#suitHir1x2311)"/><polygon points="379.3,379.9 365.1,424.0 433.8,502.2 500.6,529.5 566.8,502.0 634.2,423.9 620.1,381.5" fill="#0e001e" fill-opacity=".88" stroke="#ffcc00" stroke-width="1.8" filter="url(#skr1x2311)"/><polygon points="382.6,412.3 477.8,412.8 483.3,441.2 387.7,441.1" fill="#ffcc00" filter="url(#glowr1x2311)"/><polygon points="523.4,409.7 618.7,413.0 611.5,441.1 515.1,440.1" fill="#ffcc00" filter="url(#glowr1x2311)"/><ellipse cx="430.9" cy="425.7" rx="38.4"  ry="8.2" fill="#ffffff" opacity=".88"/><ellipse cx="569.1" cy="425.7" rx="38.4"  ry="8.2" fill="#ffffff" opacity=".88"/><line x1="483.34648535545915" y1="411.8080032647587" x2="516.4968073347025" y2="414.7061218785122" stroke="#ffcc00" stroke-opacity=".52" stroke-width="2"/><line x1="484.68801642298695" y1="439.3316759199835" x2="516.8778052932955" y2="437.9294392573647" stroke="#ffcc00" stroke-opacity=".52" stroke-width="2"/><line x1="500.54284374555573" y1="454.7992646024562" x2="498.4698360783048" y2="483.75803482094784" stroke="#ffcc00" stroke-opacity=".58" stroke-width="2.2" filter="url(#skr1x2311)"/><line x1="454.6033637479693" y1="491.9218629634007" x2="454.19593804346397" y2="518.9881042120047" stroke="#ffcc00" stroke-opacity=".52" stroke-width="1.5" filter="url(#skr1x2311)"/><line x1="477.32551031963897" y1="492.16172091690817" x2="476.66969362854957" y2="521.5393830345013" stroke="#ffcc00" stroke-opacity=".52" stroke-width="1.5" filter="url(#skr1x2311)"/><line x1="500.9525558706373" y1="490.1233002359978" x2="500.5936644390225" y2="519.3955262770876" stroke="#ffcc00" stroke-opacity=".52" stroke-width="1.5" filter="url(#skr1x2311)"/><line x1="521.5905258555524" y1="489.9902816253714" x2="524.4902436006441" y2="520.3826430344955" stroke="#ffcc00" stroke-opacity=".52" stroke-width="1.5" filter="url(#skr1x2311)"/><line x1="545.898893180415" y1="492.2761245678179" x2="545.7615262798221" y2="519.9173547892831" stroke="#ffcc00" stroke-opacity=".52" stroke-width="1.5" filter="url(#skr1x2311)"/><polygon points="431.5,502.0 568.3,505.3 554.7,555.3 446.6,558.4" fill="#a07000" fill-opacity=".72" stroke="#ffcc00" stroke-width="1.3" filter="url(#skr1x2311)"/><polygon points="477.9,302.0 522.9,301.6 512.9,175.1 490.3,176.7" fill="url(#bevelr1x2311)" stroke="#ffcc00" stroke-width="2.2" filter="url(#skr1x2311)"/><polygon points="366.1,324.4 456.3,321.5 469.0,227.7" fill="url(#bevelr1x2311)" fill-opacity=".78" stroke="#ffcc00" stroke-width="1.5" filter="url(#skr1x2311)"/><polygon points="541.6,322.1 634.2,322.7 529.8,229.1" fill="url(#bevelr1x2311)" fill-opacity=".78" stroke="#ffcc00" stroke-width="1.5" filter="url(#skr1x2311)"/><text x="30.0"  y="975.0" font-family="monospace" font-weight="bold" font-size="22.0" fill="rgba(255,255,255,.22)">#0001</text><text x="500.0"   y="975.0" text-anchor="middle" font-family="monospace" font-weight="bold" font-size="22.0" fill="#ffcc00" fill-opacity=".48">NOVA RANGER</text><text x="970.0" y="975.0" text-anchor="end"    font-family="monospace" font-weight="bold" font-size="22.0" fill="#ffcc00" fill-opacity=".32">MECH RANGERS</text></svg>