<svg xmlns="http://www.w3.org/2000/svg" viewBox="0 0 1000 1000" width="1000" height="1000" shape-rendering="geometricPrecision"><defs>

  <!-- Scene gradients -->
  <radialGradient id="bgr1x2320" cx="50%" cy="42%" r="72%">
    <stop offset="0%"   stop-color="#1a2814"/>
    <stop offset="100%" stop-color="#0d1520"/>
  </radialGradient>
  <linearGradient id="suitr1x2320" x1="8%" y1="0%" x2="92%" y2="100%">
    <stop offset="0%"   stop-color="#4444ff" stop-opacity=".95"/>
    <stop offset="45%"  stop-color="#141428"/>
    <stop offset="100%" stop-color="#0d1520"/>
  </linearGradient>
  <linearGradient id="suitHir1x2320" x1="0%" y1="0%" x2="0%" y2="100%">
    <stop offset="0%"   stop-color="rgba(255,255,255,.28)"/>
    <stop offset="60%"  stop-color="rgba(255,255,255,.04)"/>
    <stop offset="100%" stop-color="rgba(255,255,255,0)"/>
  </linearGradient>
  <!-- Bevel: bright top, dark bottom for armour panels -->
  <linearGradient id="bevelr1x2320" x1="0%" y1="0%" x2="0%" y2="100%">
    <stop offset="0%"   stop-color="rgba(255,255,255,.55)"/>
    <stop offset="30%"  stop-color="#4444ff"/>
    <stop offset="70%"  stop-color="#141428"/>
    <stop offset="100%" stop-color="rgba(0,0,0,.5)"/>
  </linearGradient>

  <!-- Weapon: cold steel blade sweep -->
  <linearGradient id="blader1x2320" x1="0%" y1="0%" x2="100%" y2="0%">
    <stop offset="0%"   stop-color="#0e0e20"/>
    <stop offset="16%"  stop-color="#3e3e58"/>
    <stop offset="34%"  stop-color="#c8c8e0"/>
    <stop offset="50%"  stop-color="#f5f5ff"/>
    <stop offset="66%"  stop-color="#b8b8d0"/>
    <stop offset="84%"  stop-color="#2e2e48"/>
    <stop offset="100%" stop-color="#08080e"/>
  </linearGradient>
  <!-- Blade tip brightening -->
  <linearGradient id="bladeTipr1x2320" x1="0%" y1="100%" x2="0%" y2="0%">
    <stop offset="0%"   stop-color="rgba(255,255,255,0)"/>
    <stop offset="55%"  stop-color="rgba(255,255,255,.1)"/>
    <stop offset="100%" stop-color="rgba(255,255,255,.55)"/>
  </linearGradient>
  <!-- Gunmetal anodised — blaster body -->
  <linearGradient id="gunmetalr1x2320" x1="0%" y1="0%" x2="0%" y2="100%">
    <stop offset="0%"   stop-color="#46465e"/>
    <stop offset="18%"  stop-color="#828296"/>
    <stop offset="42%"  stop-color="#26263a"/>
    <stop offset="72%"  stop-color="#16162a"/>
    <stop offset="100%" stop-color="#0c0c18"/>
  </linearGradient>
  <!-- Brushed steel tube — barrel/rod -->
  <linearGradient id="barrelr1x2320" x1="0%" y1="0%" x2="100%" y2="0%">
    <stop offset="0%"   stop-color="#0a0a14"/>
    <stop offset="24%"  stop-color="#585875"/>
    <stop offset="50%"  stop-color="#a8a8c8"/>
    <stop offset="76%"  stop-color="#383852"/>
    <stop offset="100%" stop-color="#0a0a14"/>
  </linearGradient>
  <!-- Chrome rod — lance shaft -->
  <linearGradient id="chromer1x2320" x1="0%" y1="0%" x2="100%" y2="0%">
    <stop offset="0%"   stop-color="#0c0c18"/>
    <stop offset="20%"  stop-color="#686888"/>
    <stop offset="44%"  stop-color="#e0e0f0"/>
    <stop offset="56%"  stop-color="#c0c0d8"/>
    <stop offset="80%"  stop-color="#28283e"/>
    <stop offset="100%" stop-color="#0c0c18"/>
  </linearGradient>
  <!-- Titanium plate — shield face -->
  <linearGradient id="titaniumr1x2320" x1="0%" y1="0%" x2="100%" y2="100%">
    <stop offset="0%"   stop-color="#585878"/>
    <stop offset="28%"  stop-color="#4444ff" stop-opacity=".88"/>
    <stop offset="55%"  stop-color="#141428"/>
    <stop offset="80%"  stop-color="#181828"/>
    <stop offset="100%" stop-color="#0a0a18"/>
  </linearGradient>
  <!-- Artillery black-chrome — cannon body -->
  <linearGradient id="artilleryr1x2320" x1="0%" y1="0%" x2="0%" y2="100%">
    <stop offset="0%"   stop-color="#383850"/>
    <stop offset="14%"  stop-color="#78789a"/>
    <stop offset="36%"  stop-color="#202034"/>
    <stop offset="65%"  stop-color="#14141e"/>
    <stop offset="100%" stop-color="#0a0a12"/>
  </linearGradient>
  <!-- Energy orb — staff -->
  <radialGradient id="orbr1x2320" cx="35%" cy="35%" r="65%">
    <stop offset="0%"   stop-color="rgba(255,255,255,.9)"/>
    <stop offset="30%"  stop-color="#4444ff"/>
    <stop offset="68%"  stop-color="#141428"/>
    <stop offset="100%" stop-color="rgba(0,0,0,.6)"/>
  </radialGradient>
  <!-- Knuckle plate chrome -->
  <linearGradient id="knuckler1x2320" x1="0%" y1="0%" x2="0%" y2="100%">
    <stop offset="0%"   stop-color="#888aaa"/>
    <stop offset="32%"  stop-color="#4444ff" stop-opacity=".8"/>
    <stop offset="62%"  stop-color="#1a1a2c"/>
    <stop offset="100%" stop-color="#0a0a14"/>
  </linearGradient>

  <!-- Carbon fibre weave texture overlay -->
  <pattern id="carbonr1x2320" width="6" height="6" patternUnits="userSpaceOnUse">
    <rect width="6" height="6" fill="rgba(0,0,0,.08)"/>
    <rect x="0" y="0" width="3" height="3" fill="rgba(255,255,255,.022)"/>
    <rect x="3" y="3" width="3" height="3" fill="rgba(255,255,255,.022)"/>
    <line x1="0" y1="0" x2="3" y2="3" stroke="rgba(255,255,255,.038)" stroke-width=".5"/>
    <line x1="3" y1="0" x2="6" y2="3" stroke="rgba(0,0,0,.055)"       stroke-width=".5"/>
    <line x1="0" y1="3" x2="3" y2="6" stroke="rgba(0,0,0,.055)"       stroke-width=".5"/>
    <line x1="3" y1="3" x2="6" y2="6" stroke="rgba(255,255,255,.038)" stroke-width=".5"/>
  </pattern>

  <!-- Specular metal sheen on armour panels -->
  <filter id="metalr1x2320" x="-5%" y="-5%" width="110%" height="110%">
    <feSpecularLighting surfaceScale="4" specularConstant="1.8"
        specularExponent="42" lighting-color="#ffffff" result="spec">
      <feDistantLight elevation="52" azimuth="38"/>
    </feSpecularLighting>
    <feComposite in="spec" in2="SourceGraphic" operator="in" result="sm"/>
    <feComposite in="SourceGraphic" in2="sm" operator="arithmetic" k1="0" k2="1" k3="0.55" k4="0"/>
  </filter>

  <!-- Sharper specular for weapons — heavier glare -->
  <filter id="wmr1x2320" x="-8%" y="-8%" width="116%" height="116%">
    <feSpecularLighting surfaceScale="6" specularConstant="2.4"
        specularExponent="65" lighting-color="#ffffff" result="spec">
      <feDistantLight elevation="44" azimuth="28"/>
    </feSpecularLighting>
    <feComposite in="spec" in2="SourceGraphic" operator="in" result="sm"/>
    <feComposite in="SourceGraphic" in2="sm" operator="arithmetic" k1="0" k2="1" k3="0.78" k4="0"/>
  </filter>

  <!-- Sketch wobble -->
  <filter id="skr1x2320" x="-8%" y="-8%" width="116%" height="116%">
    <feTurbulence type="fractalNoise" baseFrequency="0.038"
        numOctaves="3" seed="74" result="noise"/>
    <feDisplacementMap in="SourceGraphic" in2="noise" scale="2.6"
        xChannelSelector="R" yChannelSelector="G" result="w"/>
    <feComposite in="w" in2="SourceGraphic" operator="atop"/>
  </filter>

  <!-- Glow: sharp accent -->
  <filter id="glowr1x2320" x="-20%" y="-20%" width="140%" height="140%">
    <feGaussianBlur stdDeviation="3.5" result="b"/>
    <feColorMatrix in="b" type="matrix"
        values="0 0 0 0 1  0 0 0 0 1  0 0 0 0 1  0 0 0 1.8 0" result="boost"/>
    <feMerge><feMergeNode in="boost"/><feMergeNode in="SourceGraphic"/></feMerge>
  </filter>

  <!-- Bloom: wide soft -->
  <filter id="bloomr1x2320" x="-40%" y="-40%" width="180%" height="180%">
    <feGaussianBlur stdDeviation="11" result="b"/>
    <feMerge><feMergeNode in="b"/><feMergeNode in="SourceGraphic"/></feMerge>
  </filter>

  </defs><rect width="1000" height="1000" fill="url(#bgr1x2320)"/><ellipse cx="500.0" cy="892.0" rx="350.0" ry="65.0" fill="rgba(0,0,0,.7)" filter="url(#bloomr1x2320)"/><ellipse cx="500.0" cy="889.0" rx="220.0" ry="34.0" fill="rgba(0,0,0,.45)"/><polygon points="397.4,661.2 488.2,661.9 479.5,876.0 385.6,877.4" fill="url(#suitr1x2320)" stroke="#4444ff" stroke-width="2.2" filter="url(#skr1x2320) url(#metalr1x2320)"/><polygon points="400.5,664.1 489.1,663.4 479.2,876.2 386.2,876.3" fill="url(#carbonr1x2320)"/><polygon points="392.2,723.5 493.7,724.7 483.3,788.2 384.2,789.9" fill="url(#bevelr1x2320)" fill-opacity=".5" stroke="#4444ff" stroke-width="1.4" filter="url(#skr1x2320)"/><polygon points="510.8,663.3 602.7,662.4 613.6,879.2 518.8,877.4" fill="url(#suitr1x2320)" stroke="#4444ff" stroke-width="2.2" filter="url(#skr1x2320) url(#metalr1x2320)"/><polygon points="511.2,662.1 600.1,662.9 613.6,877.1 519.5,879.0" fill="url(#carbonr1x2320)"/><polygon points="506.1,724.8 605.8,725.0 616.9,789.3 517.4,788.4" fill="url(#bevelr1x2320)" fill-opacity=".5" stroke="#4444ff" stroke-width="1.4" filter="url(#skr1x2320)"/><rect x="391.3" y="838.3" width="100.3" height="24.7" fill="url(#bevelr1x2320)" stroke="#4444ff" stroke-width="1" filter="url(#skr1x2320)"/><rect x="508.1"  y="837.8" width="100.3" height="24.7" fill="url(#bevelr1x2320)" stroke="#4444ff" stroke-width="1" filter="url(#skr1x2320)"/><polygon points="370.0,876.9 495.1,878.4 502.4,921.9 363.3,923.0" fill="#141428" stroke="#4444ff" stroke-width="2" filter="url(#skr1x2320)"/><polygon points="505.0,877.6 630.1,879.3 638.7,922.7 495.3,922.4" fill="#141428" stroke="#4444ff" stroke-width="2" filter="url(#skr1x2320)"/><polygon points="302.6,631.8 697.5,632.7 638.0,681.3 361.2,682.2" fill="#4444ff" fill-opacity=".52" stroke="#4444ff" stroke-width="2" filter="url(#skr1x2320)"/><rect x="462.9" y="637.9" width="72.0" height="42.0" fill="url(#bevelr1x2320)" stroke="#4444ff" stroke-width="1.4" filter="url(#glowr1x2320)"/><rect x="485.5" y="638.7" width="28.0" height="22.0" rx="1" fill="rgba(255,255,255,.48)"/><polygon points="151.7,466.0 235.9,466.9 257.6,734.9 127.5,734.3" fill="url(#suitr1x2320)" stroke="#4444ff" stroke-width="2.2" filter="url(#skr1x2320) url(#metalr1x2320)"/><polygon points="172.9,431.6 253.1,433.6 242.8,509.9 161.0,509.2" fill="url(#bevelr1x2320)" fill-opacity=".72" stroke="#4444ff" stroke-width="2.2" filter="url(#skr1x2320)"/><polygon points="160.6,623.3 244.1,621.1 238.0,662.0 165.0,660.8" fill="#4444ff" fill-opacity=".42" stroke="#4444ff" stroke-width="1" filter="url(#skr1x2320)"/><polygon points="764.4,465.8 847.7,465.5 871.5,735.6 741.5,736.4" fill="url(#suitr1x2320)" stroke="#4444ff" stroke-width="2.2" filter="url(#skr1x2320) url(#metalr1x2320)"/><polygon points="747.2,433.8 826.1,433.7 841.9,509.2 757.9,510.6" fill="url(#bevelr1x2320)" fill-opacity=".72" stroke="#4444ff" stroke-width="2.2" filter="url(#skr1x2320)"/><polygon points="757.3,623.3 837.6,620.9 836.0,659.9 761.2,659.4" fill="#4444ff" fill-opacity=".42" stroke="#4444ff" stroke-width="1" filter="url(#skr1x2320)"/><rect x="121.7"  y="699.2" width="135.3" height="85.0" rx="4" fill="url(#bevelr1x2320)" stroke="#4444ff" stroke-width="1.8" filter="url(#skr1x2320)"/><rect x="748.0"   y="698.8" width="135.3" height="85.0" rx="4" fill="url(#bevelr1x2320)" stroke="#4444ff" stroke-width="1.8" filter="url(#skr1x2320)"/><line x1="148.1" y1="702.2" x2="148.4" y2="785.6" stroke="#4444ff" stroke-opacity=".38" stroke-width="1"/><line x1="779.6" y1="702.7" x2="777.6" y2="783.5" stroke="#4444ff" stroke-opacity=".38" stroke-width="1"/><line x1="183.7" y1="700.1" x2="182.5" y2="784.1" stroke="#4444ff" stroke-opacity=".38" stroke-width="1"/><line x1="811.6" y1="700.3" x2="810.9" y2="782.1" stroke="#4444ff" stroke-opacity=".38" stroke-width="1"/><line x1="213.7" y1="700.8" x2="214.1" y2="782.2" stroke="#4444ff" stroke-opacity=".38" stroke-width="1"/><line x1="842.0" y1="701.7" x2="845.4" y2="782.5" stroke="#4444ff" stroke-opacity=".38" stroke-width="1"/><polygon points="236.7,417.6 765.3,419.0 724.1,662.1 277.9,661.9" fill="url(#suitr1x2320)" stroke="#4444ff" stroke-width="2.6" filter="url(#skr1x2320) url(#metalr1x2320)"/><polygon points="233.9,416.4 765.9,416.4 722.3,661.2 275.9,662.4" fill="url(#carbonr1x2320)"/><polygon points="366.2,415.9 632.2,416.5 611.8,513.9 387.1,516.4" fill="url(#suitHir1x2320)"/><line x1="362.7" y1="472.3" x2="638.3" y2="472.6" stroke="#4444ff" stroke-opacity=".52" stroke-width="1.3" filter="url(#skr1x2320)"/><line x1="401.1" y1="548.0" x2="599.9" y2="549.5" stroke="#4444ff" stroke-opacity=".52" stroke-width="1.3" filter="url(#skr1x2320)"/><line x1="265.7" y1="490.3" x2="320.2" y2="489.8" stroke="#4444ff" stroke-opacity=".62" stroke-width="1.8"/><line x1="681.5" y1="492.2" x2="732.2" y2="490.4" stroke="#4444ff" stroke-opacity=".62" stroke-width="1.8"/><line x1="265.2" y1="523.8" x2="321.1" y2="523.5" stroke="#4444ff" stroke-opacity=".62" stroke-width="1.8"/><line x1="679.0" y1="521.1" x2="734.3" y2="521.6" stroke="#4444ff" stroke-opacity=".62" stroke-width="1.8"/><line x1="268.0" y1="553.2" x2="318.0" y2="554.4" stroke="#4444ff" stroke-opacity=".62" stroke-width="1.8"/><line x1="680.9" y1="556.1" x2="731.5" y2="556.2" stroke="#4444ff" stroke-opacity=".62" stroke-width="1.8"/><line x1="266.7" y1="586.4" x2="319.3" y2="586.1" stroke="#4444ff" stroke-opacity=".62" stroke-width="1.8"/><line x1="681.1" y1="584.8" x2="734.9" y2="585.3" stroke="#4444ff" stroke-opacity=".62" stroke-width="1.8"/><g filter="url(#glowr1x2320)"><path d="M500.0,449.7 C462.3,446.8 442.0,481.6 447.8,513.5 L459.4,542.5 C476.8,536.7 491.3,551.2 500.0,551.2 C508.7,551.2 523.2,536.7 540.6,542.5 L552.2,513.5 C558.0,481.6 537.7,446.8 500.0,449.7 Z" fill="#4444ff" fill-opacity=".92" stroke="#0d1520" stroke-width="1.3" filter="url(#skr1x2320)"/><path d="M483.8,519.3 Q500.0,533.8 516.2,519.3" stroke="#0d1520" stroke-width="1" fill="none" opacity=".58"/><ellipse cx="481.4" cy="497.8" rx="8.7" ry="6.4" fill="#0d1520" opacity=".95"/><ellipse cx="518.6" cy="497.8" rx="8.7" ry="6.4" fill="#0d1520" opacity=".95"/><ellipse cx="481.4" cy="497.8" rx="2.3" ry="5.8" fill="#4444ff"/><ellipse cx="518.6" cy="497.8" rx="2.3" ry="5.8" fill="#4444ff"/><path d="M471.0,467.1 L458.2,426.5 L481.4,463.0" fill="#4444ff" stroke="#0d1520" stroke-width=".9"/><path d="M529.0,467.1 L541.8,426.5 L518.6,463.0" fill="#4444ff" stroke="#0d1520" stroke-width=".9"/><path d="M476.8,452.6 C488.4,449.1 511.6,449.1 523.2,452.6" fill="rgba(255,255,255,.18)"/></g><rect x="449.61511916415765" y="555.2559495137073" width="100.0"  height="56.0" fill="#141428" stroke="#4444ff" stroke-width="2.2" filter="url(#skr1x2320)"/><rect x="423.37083314843477" y="573.6540887618438" width="152.0" height="26.0" fill="url(#bevelr1x2320)" fill-opacity=".65" stroke="#4444ff" stroke-width="1.2" filter="url(#skr1x2320)"/><polygon points="308.7,380.9 348.5,294.1 498.8,277.6 650.1,294.5 693.4,380.3 667.8,503.6 500.4,563.8 329.9,504.2" fill="url(#suitr1x2320)" stroke="#4444ff" stroke-width="2.8" filter="url(#skr1x2320) url(#metalr1x2320)"/><polygon points="309.6,380.8 351.7,295.6 501.0,278.9 650.1,293.3 693.1,381.4 669.2,505.0 501.4,565.1 331.5,505.4" fill="url(#carbonr1x2320)"/><polygon points="382.7,301.0 498.6,286.6 618.7,303.4 605.7,380.9 393.1,380.4" fill="url(#suitHir1x2320)"/><polygon points="381.2,381.8 366.1,424.1 431.1,503.7 499.4,527.9 567.7,504.7 633.5,424.8 620.0,379.7" fill="#0d1520" fill-opacity=".88" stroke="#4444ff" stroke-width="1.8" filter="url(#skr1x2320)"/><polygon points="382.2,410.2 478.6,409.8 483.3,441.5 388.0,440.8" fill="#4444ff" filter="url(#glowr1x2320)"/><polygon points="524.2,410.8 618.0,410.7 611.2,438.4 514.4,439.8" fill="#4444ff" filter="url(#glowr1x2320)"/><ellipse cx="430.9" cy="425.7" rx="38.4"  ry="8.2" fill="#ffffff" opacity=".88"/><ellipse cx="569.1" cy="425.7" rx="38.4"  ry="8.2" fill="#ffffff" opacity=".88"/><line x1="483.3821614192426" y1="414.26789471833035" x2="516.4884787110984" y2="413.20716716274615" stroke="#4444ff" stroke-opacity=".52" stroke-width="2"/><line x1="484.17088411176576" y1="436.3697438481264" x2="515.6138553856314" y2="437.4056726957671" stroke="#4444ff" stroke-opacity=".52" stroke-width="2"/><line x1="498.556847709883" y1="455.8735260248184" x2="498.24216528125106" y2="484.22252486757935" stroke="#4444ff" stroke-opacity=".58" stroke-width="2.2" filter="url(#skr1x2320)"/><line x1="454.5894809434004" y1="490.1938873221166" x2="454.65408046979456" y2="519.4563252482563" stroke="#4444ff" stroke-opacity=".52" stroke-width="1.5" filter="url(#skr1x2320)"/><line x1="476.8066064102016" y1="489.9234201434999" x2="478.226658699885" y2="520.1118266808801" stroke="#4444ff" stroke-opacity=".52" stroke-width="1.5" filter="url(#skr1x2320)"/><line x1="501.6617864961736" y1="492.5102610006928" x2="500.2876652345993" y2="520.5543769040145" stroke="#4444ff" stroke-opacity=".52" stroke-width="1.5" filter="url(#skr1x2320)"/><line x1="523.8220927311665" y1="492.07444738438346" x2="523.2728292138875" y2="519.2496051455848" stroke="#4444ff" stroke-opacity=".52" stroke-width="1.5" filter="url(#skr1x2320)"/><line x1="546.4677090701833" y1="492.05761600732797" x2="544.666067971494" y2="519.7406173116527" stroke="#4444ff" stroke-opacity=".52" stroke-width="1.5" filter="url(#skr1x2320)"/><polygon points="432.1,503.0 568.1,502.4 555.1,556.8 445.1,556.7" fill="#141428" fill-opacity=".72" stroke="#4444ff" stroke-width="1.3" filter="url(#skr1x2320)"/><text x="30.0"  y="975.0" font-family="monospace" font-weight="bold" font-size="22.0" fill="rgba(255,255,255,.22)">#0001</text><text x="500.0"   y="975.0" text-anchor="middle" font-family="monospace" font-weight="bold" font-size="22.0" fill="#4444ff" fill-opacity=".48">OBSIDIAN RANGER</text><text x="970.0" y="975.0" text-anchor="end"    font-family="monospace" font-weight="bold" font-size="22.0" fill="#4444ff" fill-opacity=".32">MECH RANGERS</text></svg>