<svg xmlns="http://www.w3.org/2000/svg" viewBox="0 0 1000 1000" width="1000" height="1000" shape-rendering="geometricPrecision"><defs>

  <!-- Scene gradients -->
  <radialGradient id="bgr1x2321" cx="50%" cy="42%" r="72%">
    <stop offset="0%"   stop-color="#001e1e"/>
    <stop offset="100%" stop-color="#0e001e"/>
  </radialGradient>
  <linearGradient id="suitr1x2321" x1="8%" y1="0%" x2="92%" y2="100%">
    <stop offset="0%"   stop-color="#c0c0d0" stop-opacity=".95"/>
    <stop offset="45%"  stop-color="#2c2c3c"/>
    <stop offset="100%" stop-color="#0e001e"/>
  </linearGradient>
  <linearGradient id="suitHir1x2321" x1="0%" y1="0%" x2="0%" y2="100%">
    <stop offset="0%"   stop-color="rgba(255,255,255,.28)"/>
    <stop offset="60%"  stop-color="rgba(255,255,255,.04)"/>
    <stop offset="100%" stop-color="rgba(255,255,255,0)"/>
  </linearGradient>
  <!-- Bevel: bright top, dark bottom for armour panels -->
  <linearGradient id="bevelr1x2321" x1="0%" y1="0%" x2="0%" y2="100%">
    <stop offset="0%"   stop-color="rgba(255,255,255,.55)"/>
    <stop offset="30%"  stop-color="#c0c0d0"/>
    <stop offset="70%"  stop-color="#2c2c3c"/>
    <stop offset="100%" stop-color="rgba(0,0,0,.5)"/>
  </linearGradient>

  <!-- Weapon: cold steel blade sweep -->
  <linearGradient id="blader1x2321" x1="0%" y1="0%" x2="100%" y2="0%">
    <stop offset="0%"   stop-color="#0e0e20"/>
    <stop offset="16%"  stop-color="#3e3e58"/>
    <stop offset="34%"  stop-color="#c8c8e0"/>
    <stop offset="50%"  stop-color="#f5f5ff"/>
    <stop offset="66%"  stop-color="#b8b8d0"/>
    <stop offset="84%"  stop-color="#2e2e48"/>
    <stop offset="100%" stop-color="#08080e"/>
  </linearGradient>
  <!-- Blade tip brightening -->
  <linearGradient id="bladeTipr1x2321" x1="0%" y1="100%" x2="0%" y2="0%">
    <stop offset="0%"   stop-color="rgba(255,255,255,0)"/>
    <stop offset="55%"  stop-color="rgba(255,255,255,.1)"/>
    <stop offset="100%" stop-color="rgba(255,255,255,.55)"/>
  </linearGradient>
  <!-- Gunmetal anodised — blaster body -->
  <linearGradient id="gunmetalr1x2321" x1="0%" y1="0%" x2="0%" y2="100%">
    <stop offset="0%"   stop-color="#46465e"/>
    <stop offset="18%"  stop-color="#828296"/>
    <stop offset="42%"  stop-color="#26263a"/>
    <stop offset="72%"  stop-color="#16162a"/>
    <stop offset="100%" stop-color="#0c0c18"/>
  </linearGradient>
  <!-- Brushed steel tube — barrel/rod -->
  <linearGradient id="barrelr1x2321" x1="0%" y1="0%" x2="100%" y2="0%">
    <stop offset="0%"   stop-color="#0a0a14"/>
    <stop offset="24%"  stop-color="#585875"/>
    <stop offset="50%"  stop-color="#a8a8c8"/>
    <stop offset="76%"  stop-color="#383852"/>
    <stop offset="100%" stop-color="#0a0a14"/>
  </linearGradient>
  <!-- Chrome rod — lance shaft -->
  <linearGradient id="chromer1x2321" x1="0%" y1="0%" x2="100%" y2="0%">
    <stop offset="0%"   stop-color="#0c0c18"/>
    <stop offset="20%"  stop-color="#686888"/>
    <stop offset="44%"  stop-color="#e0e0f0"/>
    <stop offset="56%"  stop-color="#c0c0d8"/>
    <stop offset="80%"  stop-color="#28283e"/>
    <stop offset="100%" stop-color="#0c0c18"/>
  </linearGradient>
  <!-- Titanium plate — shield face -->
  <linearGradient id="titaniumr1x2321" x1="0%" y1="0%" x2="100%" y2="100%">
    <stop offset="0%"   stop-color="#585878"/>
    <stop offset="28%"  stop-color="#c0c0d0" stop-opacity=".88"/>
    <stop offset="55%"  stop-color="#2c2c3c"/>
    <stop offset="80%"  stop-color="#181828"/>
    <stop offset="100%" stop-color="#0a0a18"/>
  </linearGradient>
  <!-- Artillery black-chrome — cannon body -->
  <linearGradient id="artilleryr1x2321" x1="0%" y1="0%" x2="0%" y2="100%">
    <stop offset="0%"   stop-color="#383850"/>
    <stop offset="14%"  stop-color="#78789a"/>
    <stop offset="36%"  stop-color="#202034"/>
    <stop offset="65%"  stop-color="#14141e"/>
    <stop offset="100%" stop-color="#0a0a12"/>
  </linearGradient>
  <!-- Energy orb — staff -->
  <radialGradient id="orbr1x2321" cx="35%" cy="35%" r="65%">
    <stop offset="0%"   stop-color="rgba(255,255,255,.9)"/>
    <stop offset="30%"  stop-color="#c0c0d0"/>
    <stop offset="68%"  stop-color="#2c2c3c"/>
    <stop offset="100%" stop-color="rgba(0,0,0,.6)"/>
  </radialGradient>
  <!-- Knuckle plate chrome -->
  <linearGradient id="knuckler1x2321" x1="0%" y1="0%" x2="0%" y2="100%">
    <stop offset="0%"   stop-color="#888aaa"/>
    <stop offset="32%"  stop-color="#c0c0d0" stop-opacity=".8"/>
    <stop offset="62%"  stop-color="#1a1a2c"/>
    <stop offset="100%" stop-color="#0a0a14"/>
  </linearGradient>

  <!-- Carbon fibre weave texture overlay -->
  <pattern id="carbonr1x2321" width="6" height="6" patternUnits="userSpaceOnUse">
    <rect width="6" height="6" fill="rgba(0,0,0,.08)"/>
    <rect x="0" y="0" width="3" height="3" fill="rgba(255,255,255,.022)"/>
    <rect x="3" y="3" width="3" height="3" fill="rgba(255,255,255,.022)"/>
    <line x1="0" y1="0" x2="3" y2="3" stroke="rgba(255,255,255,.038)" stroke-width=".5"/>
    <line x1="3" y1="0" x2="6" y2="3" stroke="rgba(0,0,0,.055)"       stroke-width=".5"/>
    <line x1="0" y1="3" x2="3" y2="6" stroke="rgba(0,0,0,.055)"       stroke-width=".5"/>
    <line x1="3" y1="3" x2="6" y2="6" stroke="rgba(255,255,255,.038)" stroke-width=".5"/>
  </pattern>

  <!-- Specular metal sheen on armour panels -->
  <filter id="metalr1x2321" x="-5%" y="-5%" width="110%" height="110%">
    <feSpecularLighting surfaceScale="4" specularConstant="1.8"
        specularExponent="42" lighting-color="#ffffff" result="spec">
      <feDistantLight elevation="52" azimuth="38"/>
    </feSpecularLighting>
    <feComposite in="spec" in2="SourceGraphic" operator="in" result="sm"/>
    <feComposite in="SourceGraphic" in2="sm" operator="arithmetic" k1="0" k2="1" k3="0.55" k4="0"/>
  </filter>

  <!-- Sharper specular for weapons — heavier glare -->
  <filter id="wmr1x2321" x="-8%" y="-8%" width="116%" height="116%">
    <feSpecularLighting surfaceScale="6" specularConstant="2.4"
        specularExponent="65" lighting-color="#ffffff" result="spec">
      <feDistantLight elevation="44" azimuth="28"/>
    </feSpecularLighting>
    <feComposite in="spec" in2="SourceGraphic" operator="in" result="sm"/>
    <feComposite in="SourceGraphic" in2="sm" operator="arithmetic" k1="0" k2="1" k3="0.78" k4="0"/>
  </filter>

  <!-- Sketch wobble -->
  <filter id="skr1x2321" x="-8%" y="-8%" width="116%" height="116%">
    <feTurbulence type="fractalNoise" baseFrequency="0.038"
        numOctaves="3" seed="66" result="noise"/>
    <feDisplacementMap in="SourceGraphic" in2="noise" scale="2.6"
        xChannelSelector="R" yChannelSelector="G" result="w"/>
    <feComposite in="w" in2="SourceGraphic" operator="atop"/>
  </filter>

  <!-- Glow: sharp accent -->
  <filter id="glowr1x2321" x="-20%" y="-20%" width="140%" height="140%">
    <feGaussianBlur stdDeviation="3.5" result="b"/>
    <feColorMatrix in="b" type="matrix"
        values="0 0 0 0 1  0 0 0 0 1  0 0 0 0 1  0 0 0 1.8 0" result="boost"/>
    <feMerge><feMergeNode in="boost"/><feMergeNode in="SourceGraphic"/></feMerge>
  </filter>

  <!-- Bloom: wide soft -->
  <filter id="bloomr1x2321" x="-40%" y="-40%" width="180%" height="180%">
    <feGaussianBlur stdDeviation="11" result="b"/>
    <feMerge><feMergeNode in="b"/><feMergeNode in="SourceGraphic"/></feMerge>
  </filter>

  </defs><rect width="1000" height="1000" fill="url(#bgr1x2321)"/><circle cx="500" cy="500" r="420.0" fill="none" stroke="#c0c0d0" stroke-opacity=".11" stroke-width="42" stroke-dasharray="8,5"/><circle cx="500" cy="500" r="240.0" fill="none" stroke="#2c2c3c" stroke-opacity=".09" stroke-width="18"/><line x1="500" y1="500" x2="1500.0" y2="500.0" stroke="#c0c0d0" stroke-opacity=".035" stroke-width="1.2"/><line x1="500" y1="500" x2="1366.0" y2="1000.0" stroke="#c0c0d0" stroke-opacity=".035" stroke-width="1.2"/><line x1="500" y1="500" x2="1000.0" y2="1366.0" stroke="#c0c0d0" stroke-opacity=".035" stroke-width="1.2"/><line x1="500" y1="500" x2="500.0" y2="1500.0" stroke="#c0c0d0" stroke-opacity=".035" stroke-width="1.2"/><line x1="500" y1="500" x2="0.0" y2="1366.0" stroke="#c0c0d0" stroke-opacity=".035" stroke-width="1.2"/><line x1="500" y1="500" x2="-366.0" y2="1000.0" stroke="#c0c0d0" stroke-opacity=".035" stroke-width="1.2"/><line x1="500" y1="500" x2="-500.0" y2="500.0" stroke="#c0c0d0" stroke-opacity=".035" stroke-width="1.2"/><line x1="500" y1="500" x2="-366.0" y2="-0.0" stroke="#c0c0d0" stroke-opacity=".035" stroke-width="1.2"/><line x1="500" y1="500" x2="-0.0" y2="-366.0" stroke="#c0c0d0" stroke-opacity=".035" stroke-width="1.2"/><line x1="500" y1="500" x2="500.0" y2="-500.0" stroke="#c0c0d0" stroke-opacity=".035" stroke-width="1.2"/><line x1="500" y1="500" x2="1000.0" y2="-366.0" stroke="#c0c0d0" stroke-opacity=".035" stroke-width="1.2"/><line x1="500" y1="500" x2="1366.0" y2="-0.0" stroke="#c0c0d0" stroke-opacity=".035" stroke-width="1.2"/><ellipse cx="500.0" cy="892.0" rx="350.0" ry="65.0" fill="rgba(0,0,0,.7)" filter="url(#bloomr1x2321)"/><ellipse cx="500.0" cy="889.0" rx="220.0" ry="34.0" fill="rgba(0,0,0,.45)"/><ellipse cx="500.0" cy="520.0" rx="320.0" ry="480.0" fill="#ffffff" fill-opacity=".042" filter="url(#bloomr1x2321)"/><circle cx="276.3" cy="342.3" r="3.1" fill="#ffffff" fill-opacity="0.64" filter="url(#glowr1x2321)"/><circle cx="466.4" cy="227.2" r="1.8" fill="#ffffff" fill-opacity="0.63" filter="url(#glowr1x2321)"/><circle cx="530.9" cy="764.1" r="3.3" fill="#ffffff" fill-opacity="0.42" filter="url(#glowr1x2321)"/><circle cx="536.1" cy="520.5" r="1.6" fill="#ffffff" fill-opacity="0.58" filter="url(#glowr1x2321)"/><circle cx="507.7" cy="385.7" r="1.8" fill="#ffffff" fill-opacity="0.76" filter="url(#glowr1x2321)"/><circle cx="583.8" cy="539.1" r="1.9" fill="#ffffff" fill-opacity="0.61" filter="url(#glowr1x2321)"/><circle cx="528.5" cy="286.2" r="2.7" fill="#ffffff" fill-opacity="0.51" filter="url(#glowr1x2321)"/><circle cx="605.6" cy="728.5" r="2.0" fill="#ffffff" fill-opacity="0.66" filter="url(#glowr1x2321)"/><circle cx="545.5" cy="764.1" r="1.4" fill="#ffffff" fill-opacity="0.69" filter="url(#glowr1x2321)"/><circle cx="482.8" cy="744.7" r="2.7" fill="#ffffff" fill-opacity="0.86" filter="url(#glowr1x2321)"/><circle cx="661.0" cy="403.4" r="3.1" fill="#ffffff" fill-opacity="0.67" filter="url(#glowr1x2321)"/><circle cx="569.4" cy="182.1" r="2.0" fill="#ffffff" fill-opacity="0.57" filter="url(#glowr1x2321)"/><circle cx="282.4" cy="719.8" r="2.8" fill="#ffffff" fill-opacity="0.67" filter="url(#glowr1x2321)"/><circle cx="664.5" cy="453.1" r="2.2" fill="#ffffff" fill-opacity="0.47" filter="url(#glowr1x2321)"/><polygon points="398.5,661.8 490.8,664.0 481.3,877.9 387.3,878.5" fill="url(#suitr1x2321)" stroke="#c0c0d0" stroke-width="2.2" filter="url(#skr1x2321) url(#metalr1x2321)"/><polygon points="399.5,663.1 487.9,662.1 482.2,879.1 386.5,879.0" fill="url(#carbonr1x2321)"/><polygon points="394.3,723.6 492.1,724.7 483.4,789.2 383.2,787.2" fill="url(#bevelr1x2321)" fill-opacity=".5" stroke="#c0c0d0" stroke-width="1.4" filter="url(#skr1x2321)"/><polygon points="510.2,663.4 601.0,663.8 613.9,878.7 520.0,877.0" fill="url(#suitr1x2321)" stroke="#c0c0d0" stroke-width="2.2" filter="url(#skr1x2321) url(#metalr1x2321)"/><polygon points="510.7,663.4 600.6,661.2 611.2,879.2 517.8,878.3" fill="url(#carbonr1x2321)"/><polygon points="507.4,723.2 607.7,724.5 615.3,789.9 514.7,788.9" fill="url(#bevelr1x2321)" fill-opacity=".5" stroke="#c0c0d0" stroke-width="1.4" filter="url(#skr1x2321)"/><rect x="393.1" y="840.2" width="100.3" height="24.7" fill="url(#bevelr1x2321)" stroke="#c0c0d0" stroke-width="1" filter="url(#skr1x2321)"/><rect x="506.0"  y="839.9" width="100.3" height="24.7" fill="url(#bevelr1x2321)" stroke="#c0c0d0" stroke-width="1" filter="url(#skr1x2321)"/><polygon points="368.0,877.4 495.4,877.5 504.9,921.3 361.9,921.1" fill="#2c2c3c" stroke="#c0c0d0" stroke-width="2" filter="url(#skr1x2321)"/><polygon points="502.7,877.3 631.3,876.9 636.1,920.8 495.5,921.9" fill="#2c2c3c" stroke="#c0c0d0" stroke-width="2" filter="url(#skr1x2321)"/><polygon points="302.3,634.0 697.8,632.1 636.3,682.1 362.2,681.3" fill="#c0c0d0" fill-opacity=".52" stroke="#c0c0d0" stroke-width="2" filter="url(#skr1x2321)"/><rect x="465.5" y="638.1" width="72.0" height="42.0" fill="url(#bevelr1x2321)" stroke="#c0c0d0" stroke-width="1.4" filter="url(#glowr1x2321)"/><rect x="486.1" y="639.8" width="28.0" height="22.0" rx="1" fill="rgba(255,255,255,.48)"/><polygon points="153.8,465.0 234.7,466.8 258.9,733.8 128.7,735.2" fill="url(#suitr1x2321)" stroke="#c0c0d0" stroke-width="2.2" filter="url(#skr1x2321) url(#metalr1x2321)"/><polygon points="174.2,431.5 252.3,431.1 243.7,510.6 158.3,510.0" fill="url(#bevelr1x2321)" fill-opacity=".72" stroke="#c0c0d0" stroke-width="2.2" filter="url(#skr1x2321)"/><polygon points="160.5,621.0 241.9,621.8 238.6,659.8 164.6,659.5" fill="#c0c0d0" fill-opacity=".42" stroke="#c0c0d0" stroke-width="1" filter="url(#skr1x2321)"/><polygon points="766.2,467.0 846.2,466.2 873.3,734.1 742.2,733.6" fill="url(#suitr1x2321)" stroke="#c0c0d0" stroke-width="2.2" filter="url(#skr1x2321) url(#metalr1x2321)"/><polygon points="748.6,432.8 827.5,431.6 840.6,509.9 756.3,509.2" fill="url(#bevelr1x2321)" fill-opacity=".72" stroke="#c0c0d0" stroke-width="2.2" filter="url(#skr1x2321)"/><polygon points="758.5,621.8 837.1,621.0 834.6,659.8 759.3,661.6" fill="#c0c0d0" fill-opacity=".42" stroke="#c0c0d0" stroke-width="1" filter="url(#skr1x2321)"/><rect x="121.8"  y="698.8" width="135.3" height="85.0" rx="4" fill="url(#bevelr1x2321)" stroke="#c0c0d0" stroke-width="1.8" filter="url(#skr1x2321)"/><rect x="748.5"   y="699.1" width="135.3" height="85.0" rx="4" fill="url(#bevelr1x2321)" stroke="#c0c0d0" stroke-width="1.8" filter="url(#skr1x2321)"/><line x1="148.3" y1="700.7" x2="148.5" y2="784.0" stroke="#c0c0d0" stroke-opacity=".38" stroke-width="1"/><line x1="777.1" y1="703.0" x2="778.6" y2="783.3" stroke="#c0c0d0" stroke-opacity=".38" stroke-width="1"/><line x1="184.1" y1="700.7" x2="183.2" y2="785.1" stroke="#c0c0d0" stroke-opacity=".38" stroke-width="1"/><line x1="812.0" y1="702.3" x2="811.5" y2="785.6" stroke="#c0c0d0" stroke-opacity=".38" stroke-width="1"/><line x1="215.7" y1="700.2" x2="214.0" y2="782.8" stroke="#c0c0d0" stroke-opacity=".38" stroke-width="1"/><line x1="844.6" y1="703.3" x2="845.1" y2="783.7" stroke="#c0c0d0" stroke-opacity=".38" stroke-width="1"/><polygon points="234.5,416.0 765.1,418.9 723.3,663.2 277.3,664.3" fill="url(#suitr1x2321)" stroke="#c0c0d0" stroke-width="2.6" filter="url(#skr1x2321) url(#metalr1x2321)"/><polygon points="234.7,417.0 764.6,418.1 721.9,662.4 277.7,662.4" fill="url(#carbonr1x2321)"/><polygon points="368.7,417.6 631.8,417.0 612.9,515.9 389.8,514.0" fill="url(#suitHir1x2321)"/><line x1="363.2" y1="471.3" x2="637.3" y2="470.7" stroke="#c0c0d0" stroke-opacity=".52" stroke-width="1.3" filter="url(#skr1x2321)"/><line x1="398.1" y1="551.0" x2="600.9" y2="551.4" stroke="#c0c0d0" stroke-opacity=".52" stroke-width="1.3" filter="url(#skr1x2321)"/><line x1="265.2" y1="492.7" x2="320.9" y2="490.4" stroke="#c0c0d0" stroke-opacity=".62" stroke-width="1.8"/><line x1="680.5" y1="490.1" x2="733.5" y2="491.9" stroke="#c0c0d0" stroke-opacity=".62" stroke-width="1.8"/><line x1="267.6" y1="521.1" x2="318.6" y2="523.6" stroke="#c0c0d0" stroke-opacity=".62" stroke-width="1.8"/><line x1="681.9" y1="522.3" x2="732.0" y2="521.3" stroke="#c0c0d0" stroke-opacity=".62" stroke-width="1.8"/><line x1="266.8" y1="553.9" x2="321.5" y2="555.1" stroke="#c0c0d0" stroke-opacity=".62" stroke-width="1.8"/><line x1="678.7" y1="555.5" x2="733.4" y2="553.9" stroke="#c0c0d0" stroke-opacity=".62" stroke-width="1.8"/><line x1="265.5" y1="585.2" x2="321.1" y2="584.8" stroke="#c0c0d0" stroke-opacity=".62" stroke-width="1.8"/><line x1="680.8" y1="585.0" x2="731.7" y2="587.7" stroke="#c0c0d0" stroke-opacity=".62" stroke-width="1.8"/><g filter="url(#glowr1x2321)"><polygon points="500.0,452.4 543.5,509.8 499.1,567.0 458.9,509.4" fill="#c0c0d0" stroke="#0e001e" stroke-width="1.4" filter="url(#skr1x2321)"/><polygon points="498.8,453.5 540.1,511.0 498.4,569.2 458.1,509.7" fill="url(#suitHir1x2321)" opacity=".45"/></g><g><line x1="102.58584682013836" y1="791.0431635277346" x2="87.01596278579902" y2="111.90195605242623" stroke="url(#chromer1x2321)" stroke-width="28.0" stroke-linecap="round" filter="url(#wmr1x2321)"/><line x1="98.00469477208328" y1="772.5774952443317" x2="87.34706425484266" y2="130.69561347914856" stroke="rgba(255,255,255,.42)" stroke-width="5.0" stroke-linecap="round"/><polygon points="75.8,150.9 140.4,151.2 84.7,-9.7" fill="url(#blader1x2321)" stroke="#c0c0d0" stroke-width="1.8" filter="url(#wmr1x2321)"/><line x1="140.2" y1="151.4" x2="84.2" y2="-8.6" stroke="rgba(255,255,255,.72)" stroke-width="1.6"/><rect x="82.17289358586069" y="422.554030027613" width="40.0" height="20.0" fill="url(#bevelr1x2321)" stroke="#c0c0d0" stroke-width="1" filter="url(#wmr1x2321)"/><rect x="83.07358969872814" y="512.6359140215442" width="40.0" height="20.0" fill="url(#bevelr1x2321)" stroke="#c0c0d0" stroke-width="1" filter="url(#wmr1x2321)"/><rect x="84.23765564722937" y="601.0379262640141" width="40.0" height="20.0" fill="url(#bevelr1x2321)" stroke="#c0c0d0" stroke-width="1" filter="url(#wmr1x2321)"/><rect x="81.8494180839881" y="691.8440211490728" width="40.0" height="20.0" fill="url(#bevelr1x2321)" stroke="#c0c0d0" stroke-width="1" filter="url(#wmr1x2321)"/><ellipse cx="102.76135314539071" cy="791.9633792859502" rx="22.0" ry="15.0" fill="url(#bevelr1x2321)" stroke="#c0c0d0" stroke-width="1" filter="url(#wmr1x2321)"/></g><rect x="450.6359882229008" y="555.2720784755423" width="100.0"  height="56.0" fill="#2c2c3c" stroke="#c0c0d0" stroke-width="2.2" filter="url(#skr1x2321)"/><rect x="423.18580634826793" y="577.1331642744132" width="152.0" height="26.0" fill="url(#bevelr1x2321)" fill-opacity=".65" stroke="#c0c0d0" stroke-width="1.2" filter="url(#skr1x2321)"/><polygon points="308.3,379.5 349.5,295.5 500.5,276.6 649.8,293.0 690.4,381.0 668.7,504.9 500.5,563.6 331.1,502.0" fill="url(#suitr1x2321)" stroke="#c0c0d0" stroke-width="2.8" filter="url(#skr1x2321) url(#metalr1x2321)"/><polygon points="307.6,379.9 350.0,292.8 501.1,277.6 648.3,294.6 691.1,380.4 667.4,503.9 500.3,563.9 331.5,501.9" fill="url(#carbonr1x2321)"/><polygon points="382.5,301.5 501.8,286.8 620.0,301.3 607.2,382.1 393.5,379.8" fill="url(#suitHir1x2321)"/><polygon points="382.2,380.2 364.2,426.7 432.5,504.1 501.3,528.9 566.9,505.0 634.8,426.3 619.4,381.9" fill="#0e001e" fill-opacity=".88" stroke="#c0c0d0" stroke-width="1.8" filter="url(#skr1x2321)"/><polygon points="381.1,411.7 476.4,412.5 485.1,439.9 388.9,438.7" fill="#c0c0d0" filter="url(#glowr1x2321)"/><polygon points="524.0,410.1 617.5,409.7 610.1,441.6 513.6,440.8" fill="#c0c0d0" filter="url(#glowr1x2321)"/><ellipse cx="430.9" cy="425.7" rx="38.4"  ry="8.2" fill="#ffffff" opacity=".88"/><ellipse cx="569.1" cy="425.7" rx="38.4"  ry="8.2" fill="#ffffff" opacity=".88"/><line x1="485.52203691011294" y1="413.4230371286161" x2="514.8381468525529" y2="413.9676159650087" stroke="#c0c0d0" stroke-opacity=".52" stroke-width="2"/><line x1="484.85432302109893" y1="437.4664887048304" x2="513.6791244368442" y2="437.83287083208563" stroke="#c0c0d0" stroke-opacity=".52" stroke-width="2"/><line x1="499.1154952723533" y1="454.2337789291516" x2="498.51591010084377" y2="484.3559303164482" stroke="#c0c0d0" stroke-opacity=".58" stroke-width="2.2" filter="url(#skr1x2321)"/><line x1="452.3281610909663" y1="491.8909473126754" x2="452.69863795729356" y2="520.3061151521281" stroke="#c0c0d0" stroke-opacity=".52" stroke-width="1.5" filter="url(#skr1x2321)"/><line x1="475.5024379199743" y1="492.1777645492926" x2="477.9838696518354" y2="521.4617114121095" stroke="#c0c0d0" stroke-opacity=".52" stroke-width="1.5" filter="url(#skr1x2321)"/><line x1="500.88520426116884" y1="491.9616333253681" x2="499.7874857114628" y2="518.811274637375" stroke="#c0c0d0" stroke-opacity=".52" stroke-width="1.5" filter="url(#skr1x2321)"/><line x1="521.4916443317755" y1="491.783970174659" x2="521.2943699181639" y2="521.2388492072932" stroke="#c0c0d0" stroke-opacity=".52" stroke-width="1.5" filter="url(#skr1x2321)"/><line x1="547.7392885951512" y1="490.21489374944935" x2="545.4998390944861" y2="520.765363389533" stroke="#c0c0d0" stroke-opacity=".52" stroke-width="1.5" filter="url(#skr1x2321)"/><polygon points="434.0,502.4 565.5,503.1 555.5,556.7 447.1,557.6" fill="#2c2c3c" fill-opacity=".72" stroke="#c0c0d0" stroke-width="1.3" filter="url(#skr1x2321)"/><path d="M389.86470040638 325.89657935500145 Q332.57969599129626 217.81862594978884 381.5859218924679 140.08870054176077" stroke="#c0c0d0" stroke-width="5" fill="none" stroke-linecap="round" filter="url(#skr1x2321)"/><path d="M389.63026961782947 326.7585180999711 Q332.28521048758176 215.57726416317746 382.0416105627455 140.4156226654537" stroke="rgba(255,255,255,.25)" stroke-width="1.5" fill="none" stroke-linecap="round"/><path d="M609.876702871304 328.92480690144004 Q667.2684437942132 216.9198234161362 618.4107838687114 142.3995378500782" stroke="#c0c0d0" stroke-width="5" fill="none" stroke-linecap="round" filter="url(#skr1x2321)"/><path d="M611.1294411092438 328.9269726871513 Q668.1816287324206 215.28271877076477 619.4641957067512 142.1225922247395" stroke="rgba(255,255,255,.25)" stroke-width="1.5" fill="none" stroke-linecap="round"/><text x="30.0"  y="975.0" font-family="monospace" font-weight="bold" font-size="22.0" fill="rgba(255,255,255,.22)">#0001</text><text x="500.0"   y="975.0" text-anchor="middle" font-family="monospace" font-weight="bold" font-size="22.0" fill="#c0c0d0" fill-opacity=".48">CHROME RANGER</text><text x="970.0" y="975.0" text-anchor="end"    font-family="monospace" font-weight="bold" font-size="22.0" fill="#c0c0d0" fill-opacity=".32">MECH RANGERS</text></svg>