<svg xmlns="http://www.w3.org/2000/svg" viewBox="0 0 1000 1000" width="1000" height="1000" shape-rendering="geometricPrecision"><defs>

  <!-- Scene gradients -->
  <radialGradient id="bgr1x2396" cx="50%" cy="42%" r="72%">
    <stop offset="0%"   stop-color="#1a2814"/>
    <stop offset="100%" stop-color="#0d1520"/>
  </radialGradient>
  <linearGradient id="suitr1x2396" x1="8%" y1="0%" x2="92%" y2="100%">
    <stop offset="0%"   stop-color="#ff2040" stop-opacity=".95"/>
    <stop offset="45%"  stop-color="#cc0020"/>
    <stop offset="100%" stop-color="#0d1520"/>
  </linearGradient>
  <linearGradient id="suitHir1x2396" x1="0%" y1="0%" x2="0%" y2="100%">
    <stop offset="0%"   stop-color="rgba(255,255,255,.28)"/>
    <stop offset="60%"  stop-color="rgba(255,255,255,.04)"/>
    <stop offset="100%" stop-color="rgba(255,255,255,0)"/>
  </linearGradient>
  <!-- Bevel: bright top, dark bottom for armour panels -->
  <linearGradient id="bevelr1x2396" x1="0%" y1="0%" x2="0%" y2="100%">
    <stop offset="0%"   stop-color="rgba(255,255,255,.55)"/>
    <stop offset="30%"  stop-color="#ff2040"/>
    <stop offset="70%"  stop-color="#cc0020"/>
    <stop offset="100%" stop-color="rgba(0,0,0,.5)"/>
  </linearGradient>

  <!-- Weapon: cold steel blade sweep -->
  <linearGradient id="blader1x2396" x1="0%" y1="0%" x2="100%" y2="0%">
    <stop offset="0%"   stop-color="#0e0e20"/>
    <stop offset="16%"  stop-color="#3e3e58"/>
    <stop offset="34%"  stop-color="#c8c8e0"/>
    <stop offset="50%"  stop-color="#f5f5ff"/>
    <stop offset="66%"  stop-color="#b8b8d0"/>
    <stop offset="84%"  stop-color="#2e2e48"/>
    <stop offset="100%" stop-color="#08080e"/>
  </linearGradient>
  <!-- Blade tip brightening -->
  <linearGradient id="bladeTipr1x2396" x1="0%" y1="100%" x2="0%" y2="0%">
    <stop offset="0%"   stop-color="rgba(255,255,255,0)"/>
    <stop offset="55%"  stop-color="rgba(255,255,255,.1)"/>
    <stop offset="100%" stop-color="rgba(255,255,255,.55)"/>
  </linearGradient>
  <!-- Gunmetal anodised — blaster body -->
  <linearGradient id="gunmetalr1x2396" x1="0%" y1="0%" x2="0%" y2="100%">
    <stop offset="0%"   stop-color="#46465e"/>
    <stop offset="18%"  stop-color="#828296"/>
    <stop offset="42%"  stop-color="#26263a"/>
    <stop offset="72%"  stop-color="#16162a"/>
    <stop offset="100%" stop-color="#0c0c18"/>
  </linearGradient>
  <!-- Brushed steel tube — barrel/rod -->
  <linearGradient id="barrelr1x2396" x1="0%" y1="0%" x2="100%" y2="0%">
    <stop offset="0%"   stop-color="#0a0a14"/>
    <stop offset="24%"  stop-color="#585875"/>
    <stop offset="50%"  stop-color="#a8a8c8"/>
    <stop offset="76%"  stop-color="#383852"/>
    <stop offset="100%" stop-color="#0a0a14"/>
  </linearGradient>
  <!-- Chrome rod — lance shaft -->
  <linearGradient id="chromer1x2396" x1="0%" y1="0%" x2="100%" y2="0%">
    <stop offset="0%"   stop-color="#0c0c18"/>
    <stop offset="20%"  stop-color="#686888"/>
    <stop offset="44%"  stop-color="#e0e0f0"/>
    <stop offset="56%"  stop-color="#c0c0d8"/>
    <stop offset="80%"  stop-color="#28283e"/>
    <stop offset="100%" stop-color="#0c0c18"/>
  </linearGradient>
  <!-- Titanium plate — shield face -->
  <linearGradient id="titaniumr1x2396" x1="0%" y1="0%" x2="100%" y2="100%">
    <stop offset="0%"   stop-color="#585878"/>
    <stop offset="28%"  stop-color="#ff2040" stop-opacity=".88"/>
    <stop offset="55%"  stop-color="#cc0020"/>
    <stop offset="80%"  stop-color="#181828"/>
    <stop offset="100%" stop-color="#0a0a18"/>
  </linearGradient>
  <!-- Artillery black-chrome — cannon body -->
  <linearGradient id="artilleryr1x2396" x1="0%" y1="0%" x2="0%" y2="100%">
    <stop offset="0%"   stop-color="#383850"/>
    <stop offset="14%"  stop-color="#78789a"/>
    <stop offset="36%"  stop-color="#202034"/>
    <stop offset="65%"  stop-color="#14141e"/>
    <stop offset="100%" stop-color="#0a0a12"/>
  </linearGradient>
  <!-- Energy orb — staff -->
  <radialGradient id="orbr1x2396" cx="35%" cy="35%" r="65%">
    <stop offset="0%"   stop-color="rgba(255,255,255,.9)"/>
    <stop offset="30%"  stop-color="#ff2040"/>
    <stop offset="68%"  stop-color="#cc0020"/>
    <stop offset="100%" stop-color="rgba(0,0,0,.6)"/>
  </radialGradient>
  <!-- Knuckle plate chrome -->
  <linearGradient id="knuckler1x2396" x1="0%" y1="0%" x2="0%" y2="100%">
    <stop offset="0%"   stop-color="#888aaa"/>
    <stop offset="32%"  stop-color="#ff2040" stop-opacity=".8"/>
    <stop offset="62%"  stop-color="#1a1a2c"/>
    <stop offset="100%" stop-color="#0a0a14"/>
  </linearGradient>

  <!-- Carbon fibre weave texture overlay -->
  <pattern id="carbonr1x2396" width="6" height="6" patternUnits="userSpaceOnUse">
    <rect width="6" height="6" fill="rgba(0,0,0,.08)"/>
    <rect x="0" y="0" width="3" height="3" fill="rgba(255,255,255,.022)"/>
    <rect x="3" y="3" width="3" height="3" fill="rgba(255,255,255,.022)"/>
    <line x1="0" y1="0" x2="3" y2="3" stroke="rgba(255,255,255,.038)" stroke-width=".5"/>
    <line x1="3" y1="0" x2="6" y2="3" stroke="rgba(0,0,0,.055)"       stroke-width=".5"/>
    <line x1="0" y1="3" x2="3" y2="6" stroke="rgba(0,0,0,.055)"       stroke-width=".5"/>
    <line x1="3" y1="3" x2="6" y2="6" stroke="rgba(255,255,255,.038)" stroke-width=".5"/>
  </pattern>

  <!-- Specular metal sheen on armour panels -->
  <filter id="metalr1x2396" x="-5%" y="-5%" width="110%" height="110%">
    <feSpecularLighting surfaceScale="4" specularConstant="1.8"
        specularExponent="42" lighting-color="#ffffff" result="spec">
      <feDistantLight elevation="52" azimuth="38"/>
    </feSpecularLighting>
    <feComposite in="spec" in2="SourceGraphic" operator="in" result="sm"/>
    <feComposite in="SourceGraphic" in2="sm" operator="arithmetic" k1="0" k2="1" k3="0.55" k4="0"/>
  </filter>

  <!-- Sharper specular for weapons — heavier glare -->
  <filter id="wmr1x2396" x="-8%" y="-8%" width="116%" height="116%">
    <feSpecularLighting surfaceScale="6" specularConstant="2.4"
        specularExponent="65" lighting-color="#ffffff" result="spec">
      <feDistantLight elevation="44" azimuth="28"/>
    </feSpecularLighting>
    <feComposite in="spec" in2="SourceGraphic" operator="in" result="sm"/>
    <feComposite in="SourceGraphic" in2="sm" operator="arithmetic" k1="0" k2="1" k3="0.78" k4="0"/>
  </filter>

  <!-- Sketch wobble -->
  <filter id="skr1x2396" x="-8%" y="-8%" width="116%" height="116%">
    <feTurbulence type="fractalNoise" baseFrequency="0.038"
        numOctaves="3" seed="2" result="noise"/>
    <feDisplacementMap in="SourceGraphic" in2="noise" scale="2.6"
        xChannelSelector="R" yChannelSelector="G" result="w"/>
    <feComposite in="w" in2="SourceGraphic" operator="atop"/>
  </filter>

  <!-- Glow: sharp accent -->
  <filter id="glowr1x2396" x="-20%" y="-20%" width="140%" height="140%">
    <feGaussianBlur stdDeviation="3.5" result="b"/>
    <feColorMatrix in="b" type="matrix"
        values="0 0 0 0 1  0 0 0 0 1  0 0 0 0 1  0 0 0 1.8 0" result="boost"/>
    <feMerge><feMergeNode in="boost"/><feMergeNode in="SourceGraphic"/></feMerge>
  </filter>

  <!-- Bloom: wide soft -->
  <filter id="bloomr1x2396" x="-40%" y="-40%" width="180%" height="180%">
    <feGaussianBlur stdDeviation="11" result="b"/>
    <feMerge><feMergeNode in="b"/><feMergeNode in="SourceGraphic"/></feMerge>
  </filter>

  </defs><rect width="1000" height="1000" fill="url(#bgr1x2396)"/><ellipse cx="500.0" cy="892.0" rx="350.0" ry="65.0" fill="rgba(0,0,0,.7)" filter="url(#bloomr1x2396)"/><ellipse cx="500.0" cy="889.0" rx="220.0" ry="34.0" fill="rgba(0,0,0,.45)"/><ellipse cx="500.0" cy="520.0" rx="320.0" ry="480.0" fill="#ff6600" fill-opacity=".042" filter="url(#bloomr1x2396)"/><circle cx="614.1" cy="797.5" r="1.7" fill="#ff6600" fill-opacity="0.48" filter="url(#glowr1x2396)"/><circle cx="547.0" cy="515.6" r="0.9" fill="#ff6600" fill-opacity="0.81" filter="url(#glowr1x2396)"/><circle cx="368.7" cy="538.2" r="2.4" fill="#ff6600" fill-opacity="0.46" filter="url(#glowr1x2396)"/><circle cx="721.0" cy="788.5" r="3.8" fill="#ff6600" fill-opacity="0.64" filter="url(#glowr1x2396)"/><circle cx="725.4" cy="779.0" r="3.9" fill="#ff6600" fill-opacity="0.58" filter="url(#glowr1x2396)"/><circle cx="509.5" cy="688.7" r="2.0" fill="#ff6600" fill-opacity="0.77" filter="url(#glowr1x2396)"/><circle cx="434.4" cy="615.2" r="0.5" fill="#ff6600" fill-opacity="0.53" filter="url(#glowr1x2396)"/><circle cx="574.7" cy="355.3" r="3.5" fill="#ff6600" fill-opacity="0.56" filter="url(#glowr1x2396)"/><circle cx="523.3" cy="652.5" r="2.2" fill="#ff6600" fill-opacity="0.65" filter="url(#glowr1x2396)"/><circle cx="544.9" cy="324.9" r="1.5" fill="#ff6600" fill-opacity="0.43" filter="url(#glowr1x2396)"/><circle cx="630.9" cy="549.5" r="2.6" fill="#ff6600" fill-opacity="0.74" filter="url(#glowr1x2396)"/><circle cx="515.3" cy="212.4" r="1.2" fill="#ff6600" fill-opacity="0.89" filter="url(#glowr1x2396)"/><circle cx="742.6" cy="296.7" r="1.1" fill="#ff6600" fill-opacity="0.75" filter="url(#glowr1x2396)"/><circle cx="421.8" cy="336.3" r="3.3" fill="#ff6600" fill-opacity="0.81" filter="url(#glowr1x2396)"/><polygon points="398.4,663.0 488.9,662.2 482.3,878.5 386.0,876.8" fill="url(#suitr1x2396)" stroke="#ff2040" stroke-width="2.2" filter="url(#skr1x2396) url(#metalr1x2396)"/><polygon points="400.2,661.2 490.3,663.7 479.6,876.9 386.9,876.1" fill="url(#carbonr1x2396)"/><polygon points="392.6,723.3 491.3,722.5 484.3,787.1 384.4,788.5" fill="url(#bevelr1x2396)" fill-opacity=".5" stroke="#ff2040" stroke-width="1.4" filter="url(#skr1x2396)"/><polygon points="510.5,661.4 601.5,664.1 613.1,875.9 521.1,878.4" fill="url(#suitr1x2396)" stroke="#ff2040" stroke-width="2.2" filter="url(#skr1x2396) url(#metalr1x2396)"/><polygon points="511.2,662.6 602.8,664.0 613.7,877.7 518.0,879.3" fill="url(#carbonr1x2396)"/><polygon points="508.7,724.7 608.4,725.1 617.4,789.6 516.5,788.0" fill="url(#bevelr1x2396)" fill-opacity=".5" stroke="#ff2040" stroke-width="1.4" filter="url(#skr1x2396)"/><rect x="392.2" y="839.8" width="100.3" height="24.7" fill="url(#bevelr1x2396)" stroke="#ff2040" stroke-width="1" filter="url(#skr1x2396)"/><rect x="505.4"  y="837.6" width="100.3" height="24.7" fill="url(#bevelr1x2396)" stroke="#ff2040" stroke-width="1" filter="url(#skr1x2396)"/><polygon points="369.3,878.4 497.4,876.7 503.8,920.0 361.9,923.3" fill="#cc0020" stroke="#ff2040" stroke-width="2" filter="url(#skr1x2396)"/><polygon points="503.1,878.6 631.9,878.2 636.1,919.9 496.6,919.8" fill="#cc0020" stroke="#ff2040" stroke-width="2" filter="url(#skr1x2396)"/><polygon points="304.3,632.4 697.7,633.2 638.6,683.4 362.0,682.0" fill="#ff2040" fill-opacity=".52" stroke="#ff2040" stroke-width="2" filter="url(#skr1x2396)"/><rect x="463.2" y="639.0" width="72.0" height="42.0" fill="url(#bevelr1x2396)" stroke="#ff2040" stroke-width="1.4" filter="url(#glowr1x2396)"/><rect x="484.4" y="640.5" width="28.0" height="22.0" rx="1" fill="rgba(255,255,255,.48)"/><polygon points="154.2,465.9 234.2,468.2 256.7,734.2 128.1,735.8" fill="url(#suitr1x2396)" stroke="#ff2040" stroke-width="2.2" filter="url(#skr1x2396) url(#metalr1x2396)"/><polygon points="172.9,430.7 253.3,432.4 244.4,511.8 160.1,512.1" fill="url(#bevelr1x2396)" fill-opacity=".72" stroke="#ff2040" stroke-width="2.2" filter="url(#skr1x2396)"/><polygon points="160.0,620.3 244.6,620.3 238.9,659.8 166.9,661.4" fill="#ff2040" fill-opacity=".42" stroke="#ff2040" stroke-width="1" filter="url(#skr1x2396)"/><polygon points="765.0,468.2 845.7,465.0 870.1,736.7 740.7,736.3" fill="url(#suitr1x2396)" stroke="#ff2040" stroke-width="2.2" filter="url(#skr1x2396) url(#metalr1x2396)"/><polygon points="746.1,430.8 826.2,430.7 840.4,510.3 756.5,512.1" fill="url(#bevelr1x2396)" fill-opacity=".72" stroke="#ff2040" stroke-width="2.2" filter="url(#skr1x2396)"/><polygon points="757.1,620.4 837.5,620.4 834.3,661.3 759.7,659.9" fill="#ff2040" fill-opacity=".42" stroke="#ff2040" stroke-width="1" filter="url(#skr1x2396)"/><rect x="121.7"  y="700.3" width="135.3" height="85.0" rx="4" fill="url(#bevelr1x2396)" stroke="#ff2040" stroke-width="1.8" filter="url(#skr1x2396)"/><rect x="750.3"   y="698.7" width="135.3" height="85.0" rx="4" fill="url(#bevelr1x2396)" stroke="#ff2040" stroke-width="1.8" filter="url(#skr1x2396)"/><line x1="148.2" y1="703.5" x2="149.3" y2="784.4" stroke="#ff2040" stroke-opacity=".38" stroke-width="1"/><line x1="777.8" y1="702.3" x2="778.4" y2="784.8" stroke="#ff2040" stroke-opacity=".38" stroke-width="1"/><line x1="181.3" y1="701.0" x2="181.7" y2="784.9" stroke="#ff2040" stroke-opacity=".38" stroke-width="1"/><line x1="812.0" y1="703.5" x2="810.5" y2="785.3" stroke="#ff2040" stroke-opacity=".38" stroke-width="1"/><line x1="213.8" y1="701.5" x2="214.3" y2="783.1" stroke="#ff2040" stroke-opacity=".38" stroke-width="1"/><line x1="843.4" y1="703.4" x2="842.1" y2="783.0" stroke="#ff2040" stroke-opacity=".38" stroke-width="1"/><polygon points="235.1,419.2 763.9,416.7 721.0,661.6 277.9,662.0" fill="url(#suitr1x2396)" stroke="#ff2040" stroke-width="2.6" filter="url(#skr1x2396) url(#metalr1x2396)"/><polygon points="233.9,417.8 764.3,417.8 722.5,661.2 278.7,661.9" fill="url(#carbonr1x2396)"/><polygon points="367.2,419.0 632.6,417.5 612.2,513.8 387.6,517.0" fill="url(#suitHir1x2396)"/><line x1="362.1" y1="471.7" x2="639.6" y2="470.1" stroke="#ff2040" stroke-opacity=".52" stroke-width="1.3" filter="url(#skr1x2396)"/><line x1="400.0" y1="549.8" x2="600.8" y2="550.2" stroke="#ff2040" stroke-opacity=".52" stroke-width="1.3" filter="url(#skr1x2396)"/><line x1="267.4" y1="491.2" x2="319.5" y2="490.6" stroke="#ff2040" stroke-opacity=".62" stroke-width="1.8"/><line x1="681.3" y1="492.1" x2="734.1" y2="491.6" stroke="#ff2040" stroke-opacity=".62" stroke-width="1.8"/><line x1="268.0" y1="522.3" x2="318.8" y2="521.4" stroke="#ff2040" stroke-opacity=".62" stroke-width="1.8"/><line x1="681.0" y1="521.2" x2="734.5" y2="524.0" stroke="#ff2040" stroke-opacity=".62" stroke-width="1.8"/><line x1="265.1" y1="554.4" x2="321.5" y2="554.8" stroke="#ff2040" stroke-opacity=".62" stroke-width="1.8"/><line x1="680.4" y1="553.6" x2="732.2" y2="554.1" stroke="#ff2040" stroke-opacity=".62" stroke-width="1.8"/><line x1="266.4" y1="586.1" x2="318.3" y2="586.7" stroke="#ff2040" stroke-opacity=".62" stroke-width="1.8"/><line x1="678.8" y1="587.5" x2="735.0" y2="585.6" stroke="#ff2040" stroke-opacity=".62" stroke-width="1.8"/><g filter="url(#glowr1x2396)"><path d="M500,510.6 C390.7043352730572,447.5178214794025 443.81105014681816,550.8493646368757 500,527.6935049942881" fill="#ff2040" fill-opacity=".88" stroke="#ff2040" stroke-width="1.2" filter="url(#skr1x2396)"/><path d="M500,510.6 C605.6491294113919,454.67985836584126 558.8675194904208,549.190041955039 500,534.9454059801251" fill="#ff2040" fill-opacity=".88" stroke="#ff2040" stroke-width="1.2" filter="url(#skr1x2396)"/><path d="M500,493.20000000000005 C455.41116452906283,463.031991231069 474.7174906718545,517.4022961152717 500,522.0923420328647" fill="rgba(255,255,255,.14)"/><path d="M500,493.20000000000005 C545.5013603135943,465.4957933931612 523.1330307310448,515.4704090031795 500,520.4859610803426" fill="rgba(255,255,255,.14)"/></g><g><polygon points="827.0,294.8 968.6,293.2 968.9,592.4 896.1,727.8 827.5,590.4" fill="url(#titaniumr1x2396)" stroke="#ff2040" stroke-width="2.6" filter="url(#wmr1x2396)"/><polygon points="828.9,294.8 968.5,294.8 969.6,591.9 898.5,725.5 828.9,591.5" fill="url(#carbonr1x2396)"/><polygon points="860.7,361.9 934.9,360.9 935.8,539.8 897.3,632.8 858.3,543.1" fill="#ff2040" fill-opacity=".28" stroke="#ff2040" stroke-width="1.5"/><line x1="844.9977025310137" y1="430.6736866191029" x2="949.9234597707726" y2="431.51515850247813" stroke="#ff2040" stroke-opacity=".65" stroke-width="1.3"/><line x1="896.3300389325806" y1="331.47173758111893" x2="899.1544155395218" y2="591.92582164919" stroke="#ff2040" stroke-opacity=".4" stroke-width="1"/><line x1="830.4216267604008" y1="297.3047078853473" x2="966.4758148784377" y2="296.3790822858922" stroke="rgba(255,255,255,.5)" stroke-width="2"/><circle cx="896.4041051296145" cy="433.14928229078646" r="18.0" fill="url(#bevelr1x2396)" stroke="#ff2040" stroke-width="1.2" filter="url(#wmr1x2396)"/></g><rect x="449.09120470052585" y="557.3957886723801" width="100.0"  height="56.0" fill="#cc0020" stroke="#ff2040" stroke-width="2.2" filter="url(#skr1x2396)"/><rect x="424.9015096310526" y="574.4718471816741" width="152.0" height="26.0" fill="url(#bevelr1x2396)" fill-opacity=".65" stroke="#ff2040" stroke-width="1.2" filter="url(#skr1x2396)"/><polygon points="306.6,381.3 351.4,294.0 500.6,276.8 650.8,295.4 693.0,379.4 670.0,503.8 500.8,566.1 330.3,503.1" fill="url(#suitr1x2396)" stroke="#ff2040" stroke-width="2.8" filter="url(#skr1x2396) url(#metalr1x2396)"/><polygon points="309.6,379.1 349.3,294.9 499.3,278.7 651.0,295.7 691.3,380.3 668.9,503.5 500.3,566.2 329.6,501.9" fill="url(#carbonr1x2396)"/><polygon points="379.9,300.9 501.6,286.3 618.8,303.5 607.0,381.2 392.5,381.6" fill="url(#suitHir1x2396)"/><polygon points="381.4,380.2 365.9,424.4 434.3,502.9 501.8,528.2 566.0,505.3 633.1,426.8 618.2,380.0" fill="#0d1520" fill-opacity=".88" stroke="#ff2040" stroke-width="1.8" filter="url(#skr1x2396)"/><polygon points="380.8,412.7 477.5,409.6 485.5,439.5 388.5,440.1" fill="#ff2040" filter="url(#glowr1x2396)"/><polygon points="523.6,411.2 619.2,411.6 609.9,438.3 516.7,441.7" fill="#ff2040" filter="url(#glowr1x2396)"/><ellipse cx="430.9" cy="425.7" rx="38.4"  ry="8.2" fill="#ffffff" opacity=".88"/><ellipse cx="569.1" cy="425.7" rx="38.4"  ry="8.2" fill="#ffffff" opacity=".88"/><line x1="484.7688601682521" y1="414.6628994758241" x2="515.8774054464326" y2="411.82098122024905" stroke="#ff2040" stroke-opacity=".52" stroke-width="2"/><line x1="484.6267435641587" y1="439.7076738922857" x2="514.3509387545661" y2="438.1668077328242" stroke="#ff2040" stroke-opacity=".52" stroke-width="2"/><line x1="501.6489351795055" y1="454.9698530136607" x2="499.7373988335021" y2="482.6493016676046" stroke="#ff2040" stroke-opacity=".58" stroke-width="2.2" filter="url(#skr1x2396)"/><line x1="455.47457570925354" y1="489.5748341277241" x2="454.43100340746344" y2="521.3288738086819" stroke="#ff2040" stroke-opacity=".52" stroke-width="1.5" filter="url(#skr1x2396)"/><line x1="476.5071086071804" y1="492.10946701439093" x2="478.3393064669706" y2="518.5483728731982" stroke="#ff2040" stroke-opacity=".52" stroke-width="1.5" filter="url(#skr1x2396)"/><line x1="498.2084542063065" y1="492.01171848755325" x2="500.6359143741429" y2="521.2925627805292" stroke="#ff2040" stroke-opacity=".52" stroke-width="1.5" filter="url(#skr1x2396)"/><line x1="522.6799619466625" y1="492.316678409744" x2="521.2526980124973" y2="519.5112885121256" stroke="#ff2040" stroke-opacity=".52" stroke-width="1.5" filter="url(#skr1x2396)"/><line x1="544.500587482024" y1="492.1918611519038" x2="545.8579476789758" y2="519.6501402517781" stroke="#ff2040" stroke-opacity=".52" stroke-width="1.5" filter="url(#skr1x2396)"/><polygon points="433.3,502.7 568.3,504.1 552.3,555.8 446.3,557.9" fill="#cc0020" fill-opacity=".72" stroke="#ff2040" stroke-width="1.3" filter="url(#skr1x2396)"/><text x="30.0"  y="975.0" font-family="monospace" font-weight="bold" font-size="22.0" fill="rgba(255,255,255,.22)">#0001</text><text x="500.0"   y="975.0" text-anchor="middle" font-family="monospace" font-weight="bold" font-size="22.0" fill="#ff2040" fill-opacity=".48">CRIMSON RANGER</text><text x="970.0" y="975.0" text-anchor="end"    font-family="monospace" font-weight="bold" font-size="22.0" fill="#ff2040" fill-opacity=".32">MECH RANGERS</text></svg>