<svg xmlns="http://www.w3.org/2000/svg" viewBox="0 0 1000 1000" width="1000" height="1000" shape-rendering="geometricPrecision"><defs>

  <!-- Scene gradients -->
  <radialGradient id="bgr1x2455" cx="50%" cy="42%" r="72%">
    <stop offset="0%"   stop-color="#1e0032"/>
    <stop offset="100%" stop-color="#08001e"/>
  </radialGradient>
  <linearGradient id="suitr1x2455" x1="8%" y1="0%" x2="92%" y2="100%">
    <stop offset="0%"   stop-color="#ffd700" stop-opacity=".95"/>
    <stop offset="45%"  stop-color="#503400"/>
    <stop offset="100%" stop-color="#08001e"/>
  </linearGradient>
  <linearGradient id="suitHir1x2455" x1="0%" y1="0%" x2="0%" y2="100%">
    <stop offset="0%"   stop-color="rgba(255,255,255,.28)"/>
    <stop offset="60%"  stop-color="rgba(255,255,255,.04)"/>
    <stop offset="100%" stop-color="rgba(255,255,255,0)"/>
  </linearGradient>
  <!-- Bevel: bright top, dark bottom for armour panels -->
  <linearGradient id="bevelr1x2455" x1="0%" y1="0%" x2="0%" y2="100%">
    <stop offset="0%"   stop-color="rgba(255,255,255,.55)"/>
    <stop offset="30%"  stop-color="#ffd700"/>
    <stop offset="70%"  stop-color="#503400"/>
    <stop offset="100%" stop-color="rgba(0,0,0,.5)"/>
  </linearGradient>

  <!-- Weapon: cold steel blade sweep -->
  <linearGradient id="blader1x2455" x1="0%" y1="0%" x2="100%" y2="0%">
    <stop offset="0%"   stop-color="#0e0e20"/>
    <stop offset="16%"  stop-color="#3e3e58"/>
    <stop offset="34%"  stop-color="#c8c8e0"/>
    <stop offset="50%"  stop-color="#f5f5ff"/>
    <stop offset="66%"  stop-color="#b8b8d0"/>
    <stop offset="84%"  stop-color="#2e2e48"/>
    <stop offset="100%" stop-color="#08080e"/>
  </linearGradient>
  <!-- Blade tip brightening -->
  <linearGradient id="bladeTipr1x2455" x1="0%" y1="100%" x2="0%" y2="0%">
    <stop offset="0%"   stop-color="rgba(255,255,255,0)"/>
    <stop offset="55%"  stop-color="rgba(255,255,255,.1)"/>
    <stop offset="100%" stop-color="rgba(255,255,255,.55)"/>
  </linearGradient>
  <!-- Gunmetal anodised — blaster body -->
  <linearGradient id="gunmetalr1x2455" x1="0%" y1="0%" x2="0%" y2="100%">
    <stop offset="0%"   stop-color="#46465e"/>
    <stop offset="18%"  stop-color="#828296"/>
    <stop offset="42%"  stop-color="#26263a"/>
    <stop offset="72%"  stop-color="#16162a"/>
    <stop offset="100%" stop-color="#0c0c18"/>
  </linearGradient>
  <!-- Brushed steel tube — barrel/rod -->
  <linearGradient id="barrelr1x2455" x1="0%" y1="0%" x2="100%" y2="0%">
    <stop offset="0%"   stop-color="#0a0a14"/>
    <stop offset="24%"  stop-color="#585875"/>
    <stop offset="50%"  stop-color="#a8a8c8"/>
    <stop offset="76%"  stop-color="#383852"/>
    <stop offset="100%" stop-color="#0a0a14"/>
  </linearGradient>
  <!-- Chrome rod — lance shaft -->
  <linearGradient id="chromer1x2455" x1="0%" y1="0%" x2="100%" y2="0%">
    <stop offset="0%"   stop-color="#0c0c18"/>
    <stop offset="20%"  stop-color="#686888"/>
    <stop offset="44%"  stop-color="#e0e0f0"/>
    <stop offset="56%"  stop-color="#c0c0d8"/>
    <stop offset="80%"  stop-color="#28283e"/>
    <stop offset="100%" stop-color="#0c0c18"/>
  </linearGradient>
  <!-- Titanium plate — shield face -->
  <linearGradient id="titaniumr1x2455" x1="0%" y1="0%" x2="100%" y2="100%">
    <stop offset="0%"   stop-color="#585878"/>
    <stop offset="28%"  stop-color="#ffd700" stop-opacity=".88"/>
    <stop offset="55%"  stop-color="#503400"/>
    <stop offset="80%"  stop-color="#181828"/>
    <stop offset="100%" stop-color="#0a0a18"/>
  </linearGradient>
  <!-- Artillery black-chrome — cannon body -->
  <linearGradient id="artilleryr1x2455" x1="0%" y1="0%" x2="0%" y2="100%">
    <stop offset="0%"   stop-color="#383850"/>
    <stop offset="14%"  stop-color="#78789a"/>
    <stop offset="36%"  stop-color="#202034"/>
    <stop offset="65%"  stop-color="#14141e"/>
    <stop offset="100%" stop-color="#0a0a12"/>
  </linearGradient>
  <!-- Energy orb — staff -->
  <radialGradient id="orbr1x2455" cx="35%" cy="35%" r="65%">
    <stop offset="0%"   stop-color="rgba(255,255,255,.9)"/>
    <stop offset="30%"  stop-color="#ffd700"/>
    <stop offset="68%"  stop-color="#503400"/>
    <stop offset="100%" stop-color="rgba(0,0,0,.6)"/>
  </radialGradient>
  <!-- Knuckle plate chrome -->
  <linearGradient id="knuckler1x2455" x1="0%" y1="0%" x2="0%" y2="100%">
    <stop offset="0%"   stop-color="#888aaa"/>
    <stop offset="32%"  stop-color="#ffd700" stop-opacity=".8"/>
    <stop offset="62%"  stop-color="#1a1a2c"/>
    <stop offset="100%" stop-color="#0a0a14"/>
  </linearGradient>

  <!-- Carbon fibre weave texture overlay -->
  <pattern id="carbonr1x2455" width="6" height="6" patternUnits="userSpaceOnUse">
    <rect width="6" height="6" fill="rgba(0,0,0,.08)"/>
    <rect x="0" y="0" width="3" height="3" fill="rgba(255,255,255,.022)"/>
    <rect x="3" y="3" width="3" height="3" fill="rgba(255,255,255,.022)"/>
    <line x1="0" y1="0" x2="3" y2="3" stroke="rgba(255,255,255,.038)" stroke-width=".5"/>
    <line x1="3" y1="0" x2="6" y2="3" stroke="rgba(0,0,0,.055)"       stroke-width=".5"/>
    <line x1="0" y1="3" x2="3" y2="6" stroke="rgba(0,0,0,.055)"       stroke-width=".5"/>
    <line x1="3" y1="3" x2="6" y2="6" stroke="rgba(255,255,255,.038)" stroke-width=".5"/>
  </pattern>

  <!-- Specular metal sheen on armour panels -->
  <filter id="metalr1x2455" x="-5%" y="-5%" width="110%" height="110%">
    <feSpecularLighting surfaceScale="4" specularConstant="1.8"
        specularExponent="42" lighting-color="#ffffff" result="spec">
      <feDistantLight elevation="52" azimuth="38"/>
    </feSpecularLighting>
    <feComposite in="spec" in2="SourceGraphic" operator="in" result="sm"/>
    <feComposite in="SourceGraphic" in2="sm" operator="arithmetic" k1="0" k2="1" k3="0.55" k4="0"/>
  </filter>

  <!-- Sharper specular for weapons — heavier glare -->
  <filter id="wmr1x2455" x="-8%" y="-8%" width="116%" height="116%">
    <feSpecularLighting surfaceScale="6" specularConstant="2.4"
        specularExponent="65" lighting-color="#ffffff" result="spec">
      <feDistantLight elevation="44" azimuth="28"/>
    </feSpecularLighting>
    <feComposite in="spec" in2="SourceGraphic" operator="in" result="sm"/>
    <feComposite in="SourceGraphic" in2="sm" operator="arithmetic" k1="0" k2="1" k3="0.78" k4="0"/>
  </filter>

  <!-- Sketch wobble -->
  <filter id="skr1x2455" x="-8%" y="-8%" width="116%" height="116%">
    <feTurbulence type="fractalNoise" baseFrequency="0.038"
        numOctaves="3" seed="19" result="noise"/>
    <feDisplacementMap in="SourceGraphic" in2="noise" scale="2.6"
        xChannelSelector="R" yChannelSelector="G" result="w"/>
    <feComposite in="w" in2="SourceGraphic" operator="atop"/>
  </filter>

  <!-- Glow: sharp accent -->
  <filter id="glowr1x2455" x="-20%" y="-20%" width="140%" height="140%">
    <feGaussianBlur stdDeviation="3.5" result="b"/>
    <feColorMatrix in="b" type="matrix"
        values="0 0 0 0 1  0 0 0 0 1  0 0 0 0 1  0 0 0 1.8 0" result="boost"/>
    <feMerge><feMergeNode in="boost"/><feMergeNode in="SourceGraphic"/></feMerge>
  </filter>

  <!-- Bloom: wide soft -->
  <filter id="bloomr1x2455" x="-40%" y="-40%" width="180%" height="180%">
    <feGaussianBlur stdDeviation="11" result="b"/>
    <feMerge><feMergeNode in="b"/><feMergeNode in="SourceGraphic"/></feMerge>
  </filter>

  </defs><rect width="1000" height="1000" fill="url(#bgr1x2455)"/><ellipse cx="500.0" cy="892.0" rx="350.0" ry="65.0" fill="rgba(0,0,0,.7)" filter="url(#bloomr1x2455)"/><ellipse cx="500.0" cy="889.0" rx="220.0" ry="34.0" fill="rgba(0,0,0,.45)"/><polygon points="400.4,662.1 488.0,662.4 479.4,877.7 386.1,877.4" fill="url(#suitr1x2455)" stroke="#ffd700" stroke-width="2.2" filter="url(#skr1x2455) url(#metalr1x2455)"/><polygon points="397.1,662.5 489.2,661.4 480.8,876.9 387.5,876.2" fill="url(#carbonr1x2455)"/><polygon points="393.6,722.1 494.5,725.2 482.5,788.5 384.3,788.2" fill="url(#bevelr1x2455)" fill-opacity=".5" stroke="#ffd700" stroke-width="1.4" filter="url(#skr1x2455)"/><polygon points="511.9,661.0 602.8,663.4 611.6,876.0 518.6,877.6" fill="url(#suitr1x2455)" stroke="#ffd700" stroke-width="2.2" filter="url(#skr1x2455) url(#metalr1x2455)"/><polygon points="509.2,661.4 601.6,663.5 613.3,875.8 521.0,877.5" fill="url(#carbonr1x2455)"/><polygon points="508.1,724.3 606.8,723.1 616.6,789.8 515.4,789.9" fill="url(#bevelr1x2455)" fill-opacity=".5" stroke="#ffd700" stroke-width="1.4" filter="url(#skr1x2455)"/><rect x="393.7" y="838.1" width="100.3" height="24.7" fill="url(#bevelr1x2455)" stroke="#ffd700" stroke-width="1" filter="url(#skr1x2455)"/><rect x="506.3"  y="838.5" width="100.3" height="24.7" fill="url(#bevelr1x2455)" stroke="#ffd700" stroke-width="1" filter="url(#skr1x2455)"/><polygon points="370.8,875.9 498.0,875.9 503.9,922.5 362.2,921.6" fill="#503400" stroke="#ffd700" stroke-width="2" filter="url(#skr1x2455)"/><polygon points="504.3,877.1 631.3,876.3 635.7,922.9 495.2,920.8" fill="#503400" stroke="#ffd700" stroke-width="2" filter="url(#skr1x2455)"/><polygon points="304.9,633.9 697.5,633.5 636.6,680.8 360.8,681.8" fill="#ffd700" fill-opacity=".52" stroke="#ffd700" stroke-width="2" filter="url(#skr1x2455)"/><rect x="465.2" y="637.0" width="72.0" height="42.0" fill="url(#bevelr1x2455)" stroke="#ffd700" stroke-width="1.4" filter="url(#glowr1x2455)"/><rect x="487.8" y="639.5" width="28.0" height="22.0" rx="1" fill="rgba(255,255,255,.48)"/><polygon points="153.3,467.8 235.3,466.7 257.6,735.8 127.9,735.1" fill="url(#suitr1x2455)" stroke="#ffd700" stroke-width="2.2" filter="url(#skr1x2455) url(#metalr1x2455)"/><polygon points="172.4,431.0 252.3,433.6 243.8,509.0 159.7,508.8" fill="url(#bevelr1x2455)" fill-opacity=".72" stroke="#ffd700" stroke-width="2.2" filter="url(#skr1x2455)"/><polygon points="162.8,621.7 243.1,621.8 238.0,660.0 166.0,662.6" fill="#ffd700" fill-opacity=".42" stroke="#ffd700" stroke-width="1" filter="url(#skr1x2455)"/><polygon points="763.4,464.8 847.8,466.2 873.2,734.3 741.5,734.4" fill="url(#suitr1x2455)" stroke="#ffd700" stroke-width="2.2" filter="url(#skr1x2455) url(#metalr1x2455)"/><polygon points="748.5,432.3 824.9,430.8 838.8,509.0 756.4,512.2" fill="url(#bevelr1x2455)" fill-opacity=".72" stroke="#ffd700" stroke-width="2.2" filter="url(#skr1x2455)"/><polygon points="757.2,622.1 839.8,621.4 833.7,661.3 760.0,659.7" fill="#ffd700" fill-opacity=".42" stroke="#ffd700" stroke-width="1" filter="url(#skr1x2455)"/><rect x="119.4"  y="698.3" width="135.3" height="85.0" rx="4" fill="url(#bevelr1x2455)" stroke="#ffd700" stroke-width="1.8" filter="url(#skr1x2455)"/><rect x="746.9"   y="700.8" width="135.3" height="85.0" rx="4" fill="url(#bevelr1x2455)" stroke="#ffd700" stroke-width="1.8" filter="url(#skr1x2455)"/><line x1="148.9" y1="701.8" x2="148.2" y2="783.2" stroke="#ffd700" stroke-opacity=".38" stroke-width="1"/><line x1="778.6" y1="702.0" x2="777.6" y2="784.2" stroke="#ffd700" stroke-opacity=".38" stroke-width="1"/><line x1="181.1" y1="700.7" x2="181.5" y2="782.6" stroke="#ffd700" stroke-opacity=".38" stroke-width="1"/><line x1="810.3" y1="700.9" x2="810.2" y2="784.3" stroke="#ffd700" stroke-opacity=".38" stroke-width="1"/><line x1="216.0" y1="702.3" x2="215.2" y2="783.7" stroke="#ffd700" stroke-opacity=".38" stroke-width="1"/><line x1="844.1" y1="702.9" x2="845.4" y2="782.8" stroke="#ffd700" stroke-opacity=".38" stroke-width="1"/><polygon points="236.6,416.0 765.7,417.7 722.6,661.3 276.8,661.1" fill="url(#suitr1x2455)" stroke="#ffd700" stroke-width="2.6" filter="url(#skr1x2455) url(#metalr1x2455)"/><polygon points="234.4,418.4 765.0,416.9 721.4,661.9 277.2,663.5" fill="url(#carbonr1x2455)"/><polygon points="368.7,418.8 634.3,417.2 610.0,515.4 389.9,514.9" fill="url(#suitHir1x2455)"/><line x1="362.1" y1="470.7" x2="638.0" y2="473.1" stroke="#ffd700" stroke-opacity=".52" stroke-width="1.3" filter="url(#skr1x2455)"/><line x1="397.5" y1="551.0" x2="599.9" y2="550.1" stroke="#ffd700" stroke-opacity=".52" stroke-width="1.3" filter="url(#skr1x2455)"/><line x1="268.5" y1="491.9" x2="320.6" y2="491.3" stroke="#ffd700" stroke-opacity=".62" stroke-width="1.8"/><line x1="679.4" y1="490.9" x2="732.8" y2="489.6" stroke="#ffd700" stroke-opacity=".62" stroke-width="1.8"/><line x1="266.0" y1="521.8" x2="321.3" y2="522.2" stroke="#ffd700" stroke-opacity=".62" stroke-width="1.8"/><line x1="681.6" y1="522.3" x2="734.4" y2="521.1" stroke="#ffd700" stroke-opacity=".62" stroke-width="1.8"/><line x1="268.2" y1="554.4" x2="319.7" y2="555.8" stroke="#ffd700" stroke-opacity=".62" stroke-width="1.8"/><line x1="681.9" y1="554.4" x2="732.8" y2="556.1" stroke="#ffd700" stroke-opacity=".62" stroke-width="1.8"/><line x1="266.9" y1="586.9" x2="320.3" y2="586.6" stroke="#ffd700" stroke-opacity=".62" stroke-width="1.8"/><line x1="680.7" y1="585.9" x2="732.5" y2="585.3" stroke="#ffd700" stroke-opacity=".62" stroke-width="1.8"/><g filter="url(#glowr1x2455)"><polygon points="483.0,451.6 512.3,506.7 499.7,505.3 518.9,567.5 486.5,516.4 500.0,514.0" fill="#ffd700" stroke="#08001e" stroke-width="1.4" filter="url(#skr1x2455)"/><polygon points="482.3,452.1 512.0,506.8 499.4,507.4 516.2,568.8 487.8,515.5 501.3,513.9" fill="url(#suitHir1x2455)" opacity=".4"/></g><g><polygon points="829.4,293.9 967.5,291.7 967.0,592.1 897.9,727.6 828.2,590.0" fill="url(#titaniumr1x2455)" stroke="#ffd700" stroke-width="2.6" filter="url(#wmr1x2455)"/><polygon points="828.6,294.5 966.7,294.6 968.7,590.8 897.7,724.7 828.1,590.0" fill="url(#carbonr1x2455)"/><polygon points="859.6,360.5 936.6,360.0 936.1,540.0 898.8,632.9 861.2,543.1" fill="#ffd700" fill-opacity=".28" stroke="#ffd700" stroke-width="1.5"/><line x1="847.4979313739203" y1="430.0295829227194" x2="948.0843918131292" y2="432.7688577272929" stroke="#ffd700" stroke-opacity=".65" stroke-width="1.3"/><line x1="896.255689298138" y1="330.3652536176145" x2="897.9932477237285" y2="590.6086919002234" stroke="#ffd700" stroke-opacity=".4" stroke-width="1"/><line x1="829.2573453802244" y1="297.3707621254027" x2="967.1374399367347" y2="296.41063774656504" stroke="rgba(255,255,255,.5)" stroke-width="2"/><circle cx="896.7417002717592" cy="431.5974239928648" r="18.0" fill="url(#bevelr1x2455)" stroke="#ffd700" stroke-width="1.2" filter="url(#wmr1x2455)"/></g><rect x="450.12684858189897" y="558.1930288981646" width="100.0"  height="56.0" fill="#503400" stroke="#ffd700" stroke-width="2.2" filter="url(#skr1x2455)"/><rect x="424.05556056750936" y="574.8991409504787" width="152.0" height="26.0" fill="url(#bevelr1x2455)" fill-opacity=".65" stroke="#ffd700" stroke-width="1.2" filter="url(#skr1x2455)"/><polygon points="309.2,381.2 349.2,294.7 501.7,276.4 651.2,293.2 692.6,380.2 670.0,502.3 500.8,566.3 330.6,502.8" fill="url(#suitr1x2455)" stroke="#ffd700" stroke-width="2.8" filter="url(#skr1x2455) url(#metalr1x2455)"/><polygon points="307.7,379.7 348.9,295.0 500.0,277.9 648.8,295.8 692.5,380.7 669.7,504.4 499.2,566.3 329.4,502.4" fill="url(#carbonr1x2455)"/><polygon points="382.3,304.4 500.2,286.1 620.4,303.8 607.5,380.9 390.9,381.3" fill="url(#suitHir1x2455)"/><polygon points="379.4,379.7 364.1,426.7 433.6,504.2 501.6,526.9 566.9,503.4 633.9,425.4 618.3,381.7" fill="#08001e" fill-opacity=".88" stroke="#ffd700" stroke-width="1.8" filter="url(#skr1x2455)"/><polygon points="379.2,410.6 478.1,410.2 485.5,440.6 387.4,441.6" fill="#ffd700" filter="url(#glowr1x2455)"/><polygon points="522.2,411.6 619.3,409.6 612.1,438.5 516.7,438.9" fill="#ffd700" filter="url(#glowr1x2455)"/><ellipse cx="430.9" cy="425.7" rx="38.4"  ry="8.2" fill="#ffffff" opacity=".88"/><ellipse cx="569.1" cy="425.7" rx="38.4"  ry="8.2" fill="#ffffff" opacity=".88"/><line x1="485.73415263999254" y1="413.30969590572636" x2="515.482564780619" y2="413.79914693310855" stroke="#ffd700" stroke-opacity=".52" stroke-width="2"/><line x1="485.2301088097133" y1="436.84568726085126" x2="514.8858214967325" y2="436.39254194581883" stroke="#ffd700" stroke-opacity=".52" stroke-width="2"/><line x1="501.38186712497844" y1="453.83002372626214" x2="501.31347259217875" y2="483.88045769678433" stroke="#ffd700" stroke-opacity=".58" stroke-width="2.2" filter="url(#skr1x2455)"/><line x1="454.15868734361607" y1="489.5593529964797" x2="453.81601465826856" y2="518.4163902029395" stroke="#ffd700" stroke-opacity=".52" stroke-width="1.5" filter="url(#skr1x2455)"/><line x1="477.0533525061235" y1="491.40992744304236" x2="478.5983468803018" y2="520.0834018149413" stroke="#ffd700" stroke-opacity=".52" stroke-width="1.5" filter="url(#skr1x2455)"/><line x1="501.17705231271685" y1="491.3298553064465" x2="501.14326077569274" y2="520.9123255701736" stroke="#ffd700" stroke-opacity=".52" stroke-width="1.5" filter="url(#skr1x2455)"/><line x1="522.4430651225708" y1="492.30278236679726" x2="523.7088405240886" y2="521.3309408463538" stroke="#ffd700" stroke-opacity=".52" stroke-width="1.5" filter="url(#skr1x2455)"/><line x1="546.2574812642486" y1="489.66178138041863" x2="547.2102511206829" y2="519.8688617176376" stroke="#ffd700" stroke-opacity=".52" stroke-width="1.5" filter="url(#skr1x2455)"/><polygon points="434.5,502.6 566.7,503.7 552.5,557.2 446.6,557.4" fill="#503400" fill-opacity=".72" stroke="#ffd700" stroke-width="1.3" filter="url(#skr1x2455)"/><text x="30.0"  y="975.0" font-family="monospace" font-weight="bold" font-size="22.0" fill="rgba(255,255,255,.22)">#0001</text><text x="500.0"   y="975.0" text-anchor="middle" font-family="monospace" font-weight="bold" font-size="22.0" fill="#ffd700" fill-opacity=".48">IMPERIAL RANGER</text><text x="970.0" y="975.0" text-anchor="end"    font-family="monospace" font-weight="bold" font-size="22.0" fill="#ffd700" fill-opacity=".32">MECH RANGERS</text></svg>