<svg xmlns="http://www.w3.org/2000/svg" viewBox="0 0 1000 1000" width="1000" height="1000" shape-rendering="geometricPrecision"><defs>

  <!-- Scene gradients -->
  <radialGradient id="bgr1x2458" cx="50%" cy="42%" r="72%">
    <stop offset="0%"   stop-color="#1a2814"/>
    <stop offset="100%" stop-color="#0d1520"/>
  </radialGradient>
  <linearGradient id="suitr1x2458" x1="8%" y1="0%" x2="92%" y2="100%">
    <stop offset="0%"   stop-color="#ff44aa" stop-opacity=".95"/>
    <stop offset="45%"  stop-color="#880050"/>
    <stop offset="100%" stop-color="#0d1520"/>
  </linearGradient>
  <linearGradient id="suitHir1x2458" x1="0%" y1="0%" x2="0%" y2="100%">
    <stop offset="0%"   stop-color="rgba(255,255,255,.28)"/>
    <stop offset="60%"  stop-color="rgba(255,255,255,.04)"/>
    <stop offset="100%" stop-color="rgba(255,255,255,0)"/>
  </linearGradient>
  <!-- Bevel: bright top, dark bottom for armour panels -->
  <linearGradient id="bevelr1x2458" x1="0%" y1="0%" x2="0%" y2="100%">
    <stop offset="0%"   stop-color="rgba(255,255,255,.55)"/>
    <stop offset="30%"  stop-color="#ff44aa"/>
    <stop offset="70%"  stop-color="#880050"/>
    <stop offset="100%" stop-color="rgba(0,0,0,.5)"/>
  </linearGradient>

  <!-- Weapon: cold steel blade sweep -->
  <linearGradient id="blader1x2458" x1="0%" y1="0%" x2="100%" y2="0%">
    <stop offset="0%"   stop-color="#0e0e20"/>
    <stop offset="16%"  stop-color="#3e3e58"/>
    <stop offset="34%"  stop-color="#c8c8e0"/>
    <stop offset="50%"  stop-color="#f5f5ff"/>
    <stop offset="66%"  stop-color="#b8b8d0"/>
    <stop offset="84%"  stop-color="#2e2e48"/>
    <stop offset="100%" stop-color="#08080e"/>
  </linearGradient>
  <!-- Blade tip brightening -->
  <linearGradient id="bladeTipr1x2458" x1="0%" y1="100%" x2="0%" y2="0%">
    <stop offset="0%"   stop-color="rgba(255,255,255,0)"/>
    <stop offset="55%"  stop-color="rgba(255,255,255,.1)"/>
    <stop offset="100%" stop-color="rgba(255,255,255,.55)"/>
  </linearGradient>
  <!-- Gunmetal anodised — blaster body -->
  <linearGradient id="gunmetalr1x2458" x1="0%" y1="0%" x2="0%" y2="100%">
    <stop offset="0%"   stop-color="#46465e"/>
    <stop offset="18%"  stop-color="#828296"/>
    <stop offset="42%"  stop-color="#26263a"/>
    <stop offset="72%"  stop-color="#16162a"/>
    <stop offset="100%" stop-color="#0c0c18"/>
  </linearGradient>
  <!-- Brushed steel tube — barrel/rod -->
  <linearGradient id="barrelr1x2458" x1="0%" y1="0%" x2="100%" y2="0%">
    <stop offset="0%"   stop-color="#0a0a14"/>
    <stop offset="24%"  stop-color="#585875"/>
    <stop offset="50%"  stop-color="#a8a8c8"/>
    <stop offset="76%"  stop-color="#383852"/>
    <stop offset="100%" stop-color="#0a0a14"/>
  </linearGradient>
  <!-- Chrome rod — lance shaft -->
  <linearGradient id="chromer1x2458" x1="0%" y1="0%" x2="100%" y2="0%">
    <stop offset="0%"   stop-color="#0c0c18"/>
    <stop offset="20%"  stop-color="#686888"/>
    <stop offset="44%"  stop-color="#e0e0f0"/>
    <stop offset="56%"  stop-color="#c0c0d8"/>
    <stop offset="80%"  stop-color="#28283e"/>
    <stop offset="100%" stop-color="#0c0c18"/>
  </linearGradient>
  <!-- Titanium plate — shield face -->
  <linearGradient id="titaniumr1x2458" x1="0%" y1="0%" x2="100%" y2="100%">
    <stop offset="0%"   stop-color="#585878"/>
    <stop offset="28%"  stop-color="#ff44aa" stop-opacity=".88"/>
    <stop offset="55%"  stop-color="#880050"/>
    <stop offset="80%"  stop-color="#181828"/>
    <stop offset="100%" stop-color="#0a0a18"/>
  </linearGradient>
  <!-- Artillery black-chrome — cannon body -->
  <linearGradient id="artilleryr1x2458" x1="0%" y1="0%" x2="0%" y2="100%">
    <stop offset="0%"   stop-color="#383850"/>
    <stop offset="14%"  stop-color="#78789a"/>
    <stop offset="36%"  stop-color="#202034"/>
    <stop offset="65%"  stop-color="#14141e"/>
    <stop offset="100%" stop-color="#0a0a12"/>
  </linearGradient>
  <!-- Energy orb — staff -->
  <radialGradient id="orbr1x2458" cx="35%" cy="35%" r="65%">
    <stop offset="0%"   stop-color="rgba(255,255,255,.9)"/>
    <stop offset="30%"  stop-color="#ff44aa"/>
    <stop offset="68%"  stop-color="#880050"/>
    <stop offset="100%" stop-color="rgba(0,0,0,.6)"/>
  </radialGradient>
  <!-- Knuckle plate chrome -->
  <linearGradient id="knuckler1x2458" x1="0%" y1="0%" x2="0%" y2="100%">
    <stop offset="0%"   stop-color="#888aaa"/>
    <stop offset="32%"  stop-color="#ff44aa" stop-opacity=".8"/>
    <stop offset="62%"  stop-color="#1a1a2c"/>
    <stop offset="100%" stop-color="#0a0a14"/>
  </linearGradient>

  <!-- Carbon fibre weave texture overlay -->
  <pattern id="carbonr1x2458" width="6" height="6" patternUnits="userSpaceOnUse">
    <rect width="6" height="6" fill="rgba(0,0,0,.08)"/>
    <rect x="0" y="0" width="3" height="3" fill="rgba(255,255,255,.022)"/>
    <rect x="3" y="3" width="3" height="3" fill="rgba(255,255,255,.022)"/>
    <line x1="0" y1="0" x2="3" y2="3" stroke="rgba(255,255,255,.038)" stroke-width=".5"/>
    <line x1="3" y1="0" x2="6" y2="3" stroke="rgba(0,0,0,.055)"       stroke-width=".5"/>
    <line x1="0" y1="3" x2="3" y2="6" stroke="rgba(0,0,0,.055)"       stroke-width=".5"/>
    <line x1="3" y1="3" x2="6" y2="6" stroke="rgba(255,255,255,.038)" stroke-width=".5"/>
  </pattern>

  <!-- Specular metal sheen on armour panels -->
  <filter id="metalr1x2458" x="-5%" y="-5%" width="110%" height="110%">
    <feSpecularLighting surfaceScale="4" specularConstant="1.8"
        specularExponent="42" lighting-color="#ffffff" result="spec">
      <feDistantLight elevation="52" azimuth="38"/>
    </feSpecularLighting>
    <feComposite in="spec" in2="SourceGraphic" operator="in" result="sm"/>
    <feComposite in="SourceGraphic" in2="sm" operator="arithmetic" k1="0" k2="1" k3="0.55" k4="0"/>
  </filter>

  <!-- Sharper specular for weapons — heavier glare -->
  <filter id="wmr1x2458" x="-8%" y="-8%" width="116%" height="116%">
    <feSpecularLighting surfaceScale="6" specularConstant="2.4"
        specularExponent="65" lighting-color="#ffffff" result="spec">
      <feDistantLight elevation="44" azimuth="28"/>
    </feSpecularLighting>
    <feComposite in="spec" in2="SourceGraphic" operator="in" result="sm"/>
    <feComposite in="SourceGraphic" in2="sm" operator="arithmetic" k1="0" k2="1" k3="0.78" k4="0"/>
  </filter>

  <!-- Sketch wobble -->
  <filter id="skr1x2458" x="-8%" y="-8%" width="116%" height="116%">
    <feTurbulence type="fractalNoise" baseFrequency="0.038"
        numOctaves="3" seed="88" result="noise"/>
    <feDisplacementMap in="SourceGraphic" in2="noise" scale="2.6"
        xChannelSelector="R" yChannelSelector="G" result="w"/>
    <feComposite in="w" in2="SourceGraphic" operator="atop"/>
  </filter>

  <!-- Glow: sharp accent -->
  <filter id="glowr1x2458" x="-20%" y="-20%" width="140%" height="140%">
    <feGaussianBlur stdDeviation="3.5" result="b"/>
    <feColorMatrix in="b" type="matrix"
        values="0 0 0 0 1  0 0 0 0 1  0 0 0 0 1  0 0 0 1.8 0" result="boost"/>
    <feMerge><feMergeNode in="boost"/><feMergeNode in="SourceGraphic"/></feMerge>
  </filter>

  <!-- Bloom: wide soft -->
  <filter id="bloomr1x2458" x="-40%" y="-40%" width="180%" height="180%">
    <feGaussianBlur stdDeviation="11" result="b"/>
    <feMerge><feMergeNode in="b"/><feMergeNode in="SourceGraphic"/></feMerge>
  </filter>

  </defs><rect width="1000" height="1000" fill="url(#bgr1x2458)"/><ellipse cx="500.0" cy="892.0" rx="350.0" ry="65.0" fill="rgba(0,0,0,.7)" filter="url(#bloomr1x2458)"/><ellipse cx="500.0" cy="889.0" rx="220.0" ry="34.0" fill="rgba(0,0,0,.45)"/><polygon points="397.5,662.4 488.5,661.6 479.5,876.0 388.3,879.1" fill="url(#suitr1x2458)" stroke="#ff44aa" stroke-width="2.2" filter="url(#skr1x2458) url(#metalr1x2458)"/><polygon points="398.7,664.1 490.8,664.2 479.5,876.8 388.7,876.1" fill="url(#carbonr1x2458)"/><polygon points="391.2,723.2 492.9,725.3 485.2,789.9 383.6,786.9" fill="url(#bevelr1x2458)" fill-opacity=".5" stroke="#ff44aa" stroke-width="1.4" filter="url(#skr1x2458)"/><polygon points="510.9,662.3 601.4,661.8 612.6,875.7 520.0,876.7" fill="url(#suitr1x2458)" stroke="#ff44aa" stroke-width="2.2" filter="url(#skr1x2458) url(#metalr1x2458)"/><polygon points="510.0,661.9 599.5,663.9 612.6,877.0 520.1,875.8" fill="url(#carbonr1x2458)"/><polygon points="505.7,725.2 608.8,723.8 615.8,788.0 514.7,789.6" fill="url(#bevelr1x2458)" fill-opacity=".5" stroke="#ff44aa" stroke-width="1.4" filter="url(#skr1x2458)"/><rect x="392.0" y="838.9" width="100.3" height="24.7" fill="url(#bevelr1x2458)" stroke="#ff44aa" stroke-width="1" filter="url(#skr1x2458)"/><rect x="505.7"  y="838.7" width="100.3" height="24.7" fill="url(#bevelr1x2458)" stroke="#ff44aa" stroke-width="1" filter="url(#skr1x2458)"/><polygon points="369.3,875.8 497.1,878.3 501.8,921.9 363.7,922.1" fill="#880050" stroke="#ff44aa" stroke-width="2" filter="url(#skr1x2458)"/><polygon points="502.5,877.9 628.8,877.1 636.7,920.5 497.6,922.0" fill="#880050" stroke="#ff44aa" stroke-width="2" filter="url(#skr1x2458)"/><polygon points="304.2,634.5 697.3,631.7 638.8,681.5 362.0,681.3" fill="#ff44aa" fill-opacity=".52" stroke="#ff44aa" stroke-width="2" filter="url(#skr1x2458)"/><rect x="464.1" y="636.9" width="72.0" height="42.0" fill="url(#bevelr1x2458)" stroke="#ff44aa" stroke-width="1.4" filter="url(#glowr1x2458)"/><rect x="487.2" y="641.5" width="28.0" height="22.0" rx="1" fill="rgba(255,255,255,.48)"/><polygon points="153.2,467.3 234.4,466.7 257.4,736.2 128.5,733.7" fill="url(#suitr1x2458)" stroke="#ff44aa" stroke-width="2.2" filter="url(#skr1x2458) url(#metalr1x2458)"/><polygon points="172.5,433.9 252.5,431.4 241.8,512.1 160.8,512.3" fill="url(#bevelr1x2458)" fill-opacity=".72" stroke="#ff44aa" stroke-width="2.2" filter="url(#skr1x2458)"/><polygon points="160.7,621.4 244.8,623.3 240.0,662.4 165.2,659.4" fill="#ff44aa" fill-opacity=".42" stroke="#ff44aa" stroke-width="1" filter="url(#skr1x2458)"/><polygon points="766.1,467.2 846.6,467.6 871.8,736.6 742.2,735.6" fill="url(#suitr1x2458)" stroke="#ff44aa" stroke-width="2.2" filter="url(#skr1x2458) url(#metalr1x2458)"/><polygon points="746.0,432.8 827.8,430.7 841.4,511.4 758.1,512.1" fill="url(#bevelr1x2458)" fill-opacity=".72" stroke="#ff44aa" stroke-width="2.2" filter="url(#skr1x2458)"/><polygon points="758.1,621.7 838.1,620.5 835.8,659.9 760.3,661.4" fill="#ff44aa" fill-opacity=".42" stroke="#ff44aa" stroke-width="1" filter="url(#skr1x2458)"/><rect x="121.7"  y="699.4" width="135.3" height="85.0" rx="4" fill="url(#bevelr1x2458)" stroke="#ff44aa" stroke-width="1.8" filter="url(#skr1x2458)"/><rect x="749.3"   y="698.8" width="135.3" height="85.0" rx="4" fill="url(#bevelr1x2458)" stroke="#ff44aa" stroke-width="1.8" filter="url(#skr1x2458)"/><line x1="150.1" y1="702.9" x2="148.5" y2="785.2" stroke="#ff44aa" stroke-opacity=".38" stroke-width="1"/><line x1="779.1" y1="703.0" x2="776.3" y2="783.8" stroke="#ff44aa" stroke-opacity=".38" stroke-width="1"/><line x1="183.0" y1="701.1" x2="181.9" y2="782.3" stroke="#ff44aa" stroke-opacity=".38" stroke-width="1"/><line x1="811.5" y1="701.7" x2="812.6" y2="783.7" stroke="#ff44aa" stroke-opacity=".38" stroke-width="1"/><line x1="213.8" y1="700.1" x2="215.8" y2="784.3" stroke="#ff44aa" stroke-opacity=".38" stroke-width="1"/><line x1="845.4" y1="700.7" x2="843.6" y2="783.2" stroke="#ff44aa" stroke-opacity=".38" stroke-width="1"/><polygon points="236.7,418.7 766.3,416.7 723.4,661.3 279.0,662.1" fill="url(#suitr1x2458)" stroke="#ff44aa" stroke-width="2.6" filter="url(#skr1x2458) url(#metalr1x2458)"/><polygon points="233.6,415.8 764.3,418.6 721.7,661.2 276.1,661.8" fill="url(#carbonr1x2458)"/><polygon points="368.2,419.0 633.8,416.1 610.8,513.9 389.0,515.9" fill="url(#suitHir1x2458)"/><line x1="361.1" y1="472.9" x2="639.2" y2="471.2" stroke="#ff44aa" stroke-opacity=".52" stroke-width="1.3" filter="url(#skr1x2458)"/><line x1="399.3" y1="550.4" x2="601.3" y2="550.1" stroke="#ff44aa" stroke-opacity=".52" stroke-width="1.3" filter="url(#skr1x2458)"/><line x1="267.8" y1="490.9" x2="318.7" y2="489.3" stroke="#ff44aa" stroke-opacity=".62" stroke-width="1.8"/><line x1="681.3" y1="490.6" x2="733.8" y2="491.4" stroke="#ff44aa" stroke-opacity=".62" stroke-width="1.8"/><line x1="265.0" y1="522.2" x2="319.0" y2="521.5" stroke="#ff44aa" stroke-opacity=".62" stroke-width="1.8"/><line x1="679.6" y1="523.0" x2="734.5" y2="523.9" stroke="#ff44aa" stroke-opacity=".62" stroke-width="1.8"/><line x1="268.0" y1="555.0" x2="318.4" y2="554.8" stroke="#ff44aa" stroke-opacity=".62" stroke-width="1.8"/><line x1="679.9" y1="556.4" x2="734.9" y2="554.6" stroke="#ff44aa" stroke-opacity=".62" stroke-width="1.8"/><line x1="265.4" y1="587.3" x2="321.0" y2="587.4" stroke="#ff44aa" stroke-opacity=".62" stroke-width="1.8"/><line x1="680.2" y1="586.6" x2="734.2" y2="587.7" stroke="#ff44aa" stroke-opacity=".62" stroke-width="1.8"/><g filter="url(#glowr1x2458)"><polygon points="498.7,451.7 542.3,509.5 498.4,570.3 459.7,510.8" fill="#ff44aa" stroke="#0d1520" stroke-width="1.4" filter="url(#skr1x2458)"/><polygon points="500.2,451.8 542.1,512.3 501.8,570.1 456.9,511.0" fill="url(#suitHir1x2458)" opacity=".45"/></g><g><rect x="114.0" y="702.8" width="137.8" height="88.0" rx="5" fill="url(#bevelr1x2458)" stroke="#ff44aa" stroke-width="2" filter="url(#wmr1x2458)"/><rect x="114.1" y="702.8" width="137.8" height="88.0" rx="5" fill="url(#carbonr1x2458)"/><rect x="748.2"  y="702.6" width="137.8" height="88.0" rx="5" fill="url(#bevelr1x2458)" stroke="#ff44aa" stroke-width="2" filter="url(#wmr1x2458)"/><rect x="748.5"  y="700.2" width="137.8" height="88.0" rx="5" fill="url(#carbonr1x2458)"/><rect x="122.8" y="701.5" width="23.0" height="22.0" rx="2" fill="url(#knuckler1x2458)" stroke="#ff44aa" stroke-width=".8" filter="url(#wmr1x2458)"/><rect x="756.4" y="698.7" width="23.0" height="22.0" rx="2" fill="url(#knuckler1x2458)" stroke="#ff44aa" stroke-width=".8" filter="url(#wmr1x2458)"/><rect x="150.7" y="701.4" width="23.0" height="22.0" rx="2" fill="url(#knuckler1x2458)" stroke="#ff44aa" stroke-width=".8" filter="url(#wmr1x2458)"/><rect x="783.8" y="700.4" width="23.0" height="22.0" rx="2" fill="url(#knuckler1x2458)" stroke="#ff44aa" stroke-width=".8" filter="url(#wmr1x2458)"/><rect x="180.4" y="699.3" width="23.0" height="22.0" rx="2" fill="url(#knuckler1x2458)" stroke="#ff44aa" stroke-width=".8" filter="url(#wmr1x2458)"/><rect x="812.7" y="700.5" width="23.0" height="22.0" rx="2" fill="url(#knuckler1x2458)" stroke="#ff44aa" stroke-width=".8" filter="url(#wmr1x2458)"/><rect x="210.3" y="699.0" width="23.0" height="22.0" rx="2" fill="url(#knuckler1x2458)" stroke="#ff44aa" stroke-width=".8" filter="url(#wmr1x2458)"/><rect x="845.2" y="698.4" width="23.0" height="22.0" rx="2" fill="url(#knuckler1x2458)" stroke="#ff44aa" stroke-width=".8" filter="url(#wmr1x2458)"/><ellipse cx="185.03023669919" cy="712.506025838647" rx="45.1" ry="30.0" fill="#ff44aa" fill-opacity=".25" filter="url(#glowr1x2458)"/><ellipse cx="815.8186577916332" cy="710.6625485179759" rx="45.1" ry="30.0" fill="#ff44aa" fill-opacity=".25" filter="url(#glowr1x2458)"/></g><rect x="451.39233217919246" y="556.4235447052866" width="100.0"  height="56.0" fill="#880050" stroke="#ff44aa" stroke-width="2.2" filter="url(#skr1x2458)"/><rect x="424.9690309648402" y="576.741777510941" width="152.0" height="26.0" fill="url(#bevelr1x2458)" fill-opacity=".65" stroke="#ff44aa" stroke-width="1.2" filter="url(#skr1x2458)"/><polygon points="308.1,379.9 349.4,296.2 500.1,279.7 650.0,294.1 693.3,382.2 667.4,502.5 501.6,563.9 329.9,503.7" fill="url(#suitr1x2458)" stroke="#ff44aa" stroke-width="2.8" filter="url(#skr1x2458) url(#metalr1x2458)"/><polygon points="307.2,381.0 350.6,296.2 501.6,277.4 650.2,294.0 691.8,382.2 670.5,504.3 500.9,566.4 329.8,504.1" fill="url(#carbonr1x2458)"/><polygon points="379.5,301.8 501.4,285.5 617.3,301.9 606.3,381.1 390.7,378.9" fill="url(#suitHir1x2458)"/><polygon points="381.2,378.8 366.1,426.8 433.6,502.2 499.5,527.7 568.0,504.0 634.2,425.1 618.4,380.6" fill="#0d1520" fill-opacity=".88" stroke="#ff44aa" stroke-width="1.8" filter="url(#skr1x2458)"/><polygon points="381.2,412.2 475.4,412.1 483.8,440.8 389.0,440.0" fill="#ff44aa" filter="url(#glowr1x2458)"/><polygon points="521.5,410.5 617.9,410.6 610.9,439.7 514.2,440.6" fill="#ff44aa" filter="url(#glowr1x2458)"/><ellipse cx="430.9" cy="425.7" rx="38.4"  ry="8.2" fill="#ffffff" opacity=".88"/><ellipse cx="569.1" cy="425.7" rx="38.4"  ry="8.2" fill="#ffffff" opacity=".88"/><line x1="482.92631033366547" y1="412.6137957567349" x2="516.7467189410143" y2="415.05837189322335" stroke="#ff44aa" stroke-opacity=".52" stroke-width="2"/><line x1="482.99864202408116" y1="437.6867533637211" x2="515.3239308727346" y2="438.8163067655638" stroke="#ff44aa" stroke-opacity=".52" stroke-width="2"/><line x1="501.17610891610383" y1="453.63641372732815" x2="499.2851301607676" y2="482.7920546584763" stroke="#ff44aa" stroke-opacity=".58" stroke-width="2.2" filter="url(#skr1x2458)"/><line x1="453.74126815160736" y1="491.187181595806" x2="452.552401139848" y2="519.2106648225338" stroke="#ff44aa" stroke-opacity=".52" stroke-width="1.5" filter="url(#skr1x2458)"/><line x1="475.88006463520225" y1="490.7375965461134" x2="476.61908309286457" y2="520.312912685331" stroke="#ff44aa" stroke-opacity=".52" stroke-width="1.5" filter="url(#skr1x2458)"/><line x1="501.0361883874051" y1="492.94151487592603" x2="499.31736518172545" y2="518.3844056810252" stroke="#ff44aa" stroke-opacity=".52" stroke-width="1.5" filter="url(#skr1x2458)"/><line x1="521.4322878601588" y1="492.40283281737936" x2="522.4852365770936" y2="520.2210420846008" stroke="#ff44aa" stroke-opacity=".52" stroke-width="1.5" filter="url(#skr1x2458)"/><line x1="545.3493225309253" y1="490.1751069044694" x2="547.073251546938" y2="519.9816250158474" stroke="#ff44aa" stroke-opacity=".52" stroke-width="1.5" filter="url(#skr1x2458)"/><polygon points="432.8,503.9 565.5,503.1 552.7,556.6 444.8,557.6" fill="#880050" fill-opacity=".72" stroke="#ff44aa" stroke-width="1.3" filter="url(#skr1x2458)"/><text x="30.0"  y="975.0" font-family="monospace" font-weight="bold" font-size="22.0" fill="rgba(255,255,255,.22)">#0001</text><text x="500.0"   y="975.0" text-anchor="middle" font-family="monospace" font-weight="bold" font-size="22.0" fill="#ff44aa" fill-opacity=".48">SAKURA RANGER</text><text x="970.0" y="975.0" text-anchor="end"    font-family="monospace" font-weight="bold" font-size="22.0" fill="#ff44aa" fill-opacity=".32">MECH RANGERS</text></svg>