<svg xmlns="http://www.w3.org/2000/svg" viewBox="0 0 1000 1000" width="1000" height="1000" shape-rendering="geometricPrecision"><defs>

  <!-- Scene gradients -->
  <radialGradient id="bgr1x2476" cx="50%" cy="42%" r="72%">
    <stop offset="0%"   stop-color="#001422"/>
    <stop offset="100%" stop-color="#000a14"/>
  </radialGradient>
  <linearGradient id="suitr1x2476" x1="8%" y1="0%" x2="92%" y2="100%">
    <stop offset="0%"   stop-color="#ccccff" stop-opacity=".95"/>
    <stop offset="45%"  stop-color="#242438"/>
    <stop offset="100%" stop-color="#000a14"/>
  </linearGradient>
  <linearGradient id="suitHir1x2476" x1="0%" y1="0%" x2="0%" y2="100%">
    <stop offset="0%"   stop-color="rgba(255,255,255,.28)"/>
    <stop offset="60%"  stop-color="rgba(255,255,255,.04)"/>
    <stop offset="100%" stop-color="rgba(255,255,255,0)"/>
  </linearGradient>
  <!-- Bevel: bright top, dark bottom for armour panels -->
  <linearGradient id="bevelr1x2476" x1="0%" y1="0%" x2="0%" y2="100%">
    <stop offset="0%"   stop-color="rgba(255,255,255,.55)"/>
    <stop offset="30%"  stop-color="#ccccff"/>
    <stop offset="70%"  stop-color="#242438"/>
    <stop offset="100%" stop-color="rgba(0,0,0,.5)"/>
  </linearGradient>

  <!-- Weapon: cold steel blade sweep -->
  <linearGradient id="blader1x2476" x1="0%" y1="0%" x2="100%" y2="0%">
    <stop offset="0%"   stop-color="#0e0e20"/>
    <stop offset="16%"  stop-color="#3e3e58"/>
    <stop offset="34%"  stop-color="#c8c8e0"/>
    <stop offset="50%"  stop-color="#f5f5ff"/>
    <stop offset="66%"  stop-color="#b8b8d0"/>
    <stop offset="84%"  stop-color="#2e2e48"/>
    <stop offset="100%" stop-color="#08080e"/>
  </linearGradient>
  <!-- Blade tip brightening -->
  <linearGradient id="bladeTipr1x2476" x1="0%" y1="100%" x2="0%" y2="0%">
    <stop offset="0%"   stop-color="rgba(255,255,255,0)"/>
    <stop offset="55%"  stop-color="rgba(255,255,255,.1)"/>
    <stop offset="100%" stop-color="rgba(255,255,255,.55)"/>
  </linearGradient>
  <!-- Gunmetal anodised — blaster body -->
  <linearGradient id="gunmetalr1x2476" x1="0%" y1="0%" x2="0%" y2="100%">
    <stop offset="0%"   stop-color="#46465e"/>
    <stop offset="18%"  stop-color="#828296"/>
    <stop offset="42%"  stop-color="#26263a"/>
    <stop offset="72%"  stop-color="#16162a"/>
    <stop offset="100%" stop-color="#0c0c18"/>
  </linearGradient>
  <!-- Brushed steel tube — barrel/rod -->
  <linearGradient id="barrelr1x2476" x1="0%" y1="0%" x2="100%" y2="0%">
    <stop offset="0%"   stop-color="#0a0a14"/>
    <stop offset="24%"  stop-color="#585875"/>
    <stop offset="50%"  stop-color="#a8a8c8"/>
    <stop offset="76%"  stop-color="#383852"/>
    <stop offset="100%" stop-color="#0a0a14"/>
  </linearGradient>
  <!-- Chrome rod — lance shaft -->
  <linearGradient id="chromer1x2476" x1="0%" y1="0%" x2="100%" y2="0%">
    <stop offset="0%"   stop-color="#0c0c18"/>
    <stop offset="20%"  stop-color="#686888"/>
    <stop offset="44%"  stop-color="#e0e0f0"/>
    <stop offset="56%"  stop-color="#c0c0d8"/>
    <stop offset="80%"  stop-color="#28283e"/>
    <stop offset="100%" stop-color="#0c0c18"/>
  </linearGradient>
  <!-- Titanium plate — shield face -->
  <linearGradient id="titaniumr1x2476" x1="0%" y1="0%" x2="100%" y2="100%">
    <stop offset="0%"   stop-color="#585878"/>
    <stop offset="28%"  stop-color="#ccccff" stop-opacity=".88"/>
    <stop offset="55%"  stop-color="#242438"/>
    <stop offset="80%"  stop-color="#181828"/>
    <stop offset="100%" stop-color="#0a0a18"/>
  </linearGradient>
  <!-- Artillery black-chrome — cannon body -->
  <linearGradient id="artilleryr1x2476" x1="0%" y1="0%" x2="0%" y2="100%">
    <stop offset="0%"   stop-color="#383850"/>
    <stop offset="14%"  stop-color="#78789a"/>
    <stop offset="36%"  stop-color="#202034"/>
    <stop offset="65%"  stop-color="#14141e"/>
    <stop offset="100%" stop-color="#0a0a12"/>
  </linearGradient>
  <!-- Energy orb — staff -->
  <radialGradient id="orbr1x2476" cx="35%" cy="35%" r="65%">
    <stop offset="0%"   stop-color="rgba(255,255,255,.9)"/>
    <stop offset="30%"  stop-color="#ccccff"/>
    <stop offset="68%"  stop-color="#242438"/>
    <stop offset="100%" stop-color="rgba(0,0,0,.6)"/>
  </radialGradient>
  <!-- Knuckle plate chrome -->
  <linearGradient id="knuckler1x2476" x1="0%" y1="0%" x2="0%" y2="100%">
    <stop offset="0%"   stop-color="#888aaa"/>
    <stop offset="32%"  stop-color="#ccccff" stop-opacity=".8"/>
    <stop offset="62%"  stop-color="#1a1a2c"/>
    <stop offset="100%" stop-color="#0a0a14"/>
  </linearGradient>

  <!-- Carbon fibre weave texture overlay -->
  <pattern id="carbonr1x2476" width="6" height="6" patternUnits="userSpaceOnUse">
    <rect width="6" height="6" fill="rgba(0,0,0,.08)"/>
    <rect x="0" y="0" width="3" height="3" fill="rgba(255,255,255,.022)"/>
    <rect x="3" y="3" width="3" height="3" fill="rgba(255,255,255,.022)"/>
    <line x1="0" y1="0" x2="3" y2="3" stroke="rgba(255,255,255,.038)" stroke-width=".5"/>
    <line x1="3" y1="0" x2="6" y2="3" stroke="rgba(0,0,0,.055)"       stroke-width=".5"/>
    <line x1="0" y1="3" x2="3" y2="6" stroke="rgba(0,0,0,.055)"       stroke-width=".5"/>
    <line x1="3" y1="3" x2="6" y2="6" stroke="rgba(255,255,255,.038)" stroke-width=".5"/>
  </pattern>

  <!-- Specular metal sheen on armour panels -->
  <filter id="metalr1x2476" x="-5%" y="-5%" width="110%" height="110%">
    <feSpecularLighting surfaceScale="4" specularConstant="1.8"
        specularExponent="42" lighting-color="#ffffff" result="spec">
      <feDistantLight elevation="52" azimuth="38"/>
    </feSpecularLighting>
    <feComposite in="spec" in2="SourceGraphic" operator="in" result="sm"/>
    <feComposite in="SourceGraphic" in2="sm" operator="arithmetic" k1="0" k2="1" k3="0.55" k4="0"/>
  </filter>

  <!-- Sharper specular for weapons — heavier glare -->
  <filter id="wmr1x2476" x="-8%" y="-8%" width="116%" height="116%">
    <feSpecularLighting surfaceScale="6" specularConstant="2.4"
        specularExponent="65" lighting-color="#ffffff" result="spec">
      <feDistantLight elevation="44" azimuth="28"/>
    </feSpecularLighting>
    <feComposite in="spec" in2="SourceGraphic" operator="in" result="sm"/>
    <feComposite in="SourceGraphic" in2="sm" operator="arithmetic" k1="0" k2="1" k3="0.78" k4="0"/>
  </filter>

  <!-- Sketch wobble -->
  <filter id="skr1x2476" x="-8%" y="-8%" width="116%" height="116%">
    <feTurbulence type="fractalNoise" baseFrequency="0.038"
        numOctaves="3" seed="73" result="noise"/>
    <feDisplacementMap in="SourceGraphic" in2="noise" scale="2.6"
        xChannelSelector="R" yChannelSelector="G" result="w"/>
    <feComposite in="w" in2="SourceGraphic" operator="atop"/>
  </filter>

  <!-- Glow: sharp accent -->
  <filter id="glowr1x2476" x="-20%" y="-20%" width="140%" height="140%">
    <feGaussianBlur stdDeviation="3.5" result="b"/>
    <feColorMatrix in="b" type="matrix"
        values="0 0 0 0 1  0 0 0 0 1  0 0 0 0 1  0 0 0 1.8 0" result="boost"/>
    <feMerge><feMergeNode in="boost"/><feMergeNode in="SourceGraphic"/></feMerge>
  </filter>

  <!-- Bloom: wide soft -->
  <filter id="bloomr1x2476" x="-40%" y="-40%" width="180%" height="180%">
    <feGaussianBlur stdDeviation="11" result="b"/>
    <feMerge><feMergeNode in="b"/><feMergeNode in="SourceGraphic"/></feMerge>
  </filter>

  </defs><rect width="1000" height="1000" fill="url(#bgr1x2476)"/><line x1="0" y1="-3.0" x2="1000" y2="1.0" stroke="#ccccff" stroke-opacity=".055" stroke-width="1.2"/><line x1="-0.2" y1="0" x2="-1.9" y2="1000" stroke="#ccccff" stroke-opacity=".055" stroke-width="1.2"/><line x1="0" y1="101.1" x2="1000" y2="97.4" stroke="#ccccff" stroke-opacity=".055" stroke-width="1.2"/><line x1="101.6" y1="0" x2="102.5" y2="1000" stroke="#ccccff" stroke-opacity=".055" stroke-width="1.2"/><line x1="0" y1="200.1" x2="1000" y2="198.9" stroke="#ccccff" stroke-opacity=".055" stroke-width="1.2"/><line x1="201.7" y1="0" x2="201.9" y2="1000" stroke="#ccccff" stroke-opacity=".055" stroke-width="1.2"/><line x1="0" y1="299.7" x2="1000" y2="301.3" stroke="#ccccff" stroke-opacity=".055" stroke-width="1.2"/><line x1="298.2" y1="0" x2="298.6" y2="1000" stroke="#ccccff" stroke-opacity=".055" stroke-width="1.2"/><line x1="0" y1="401.9" x2="1000" y2="401.1" stroke="#ccccff" stroke-opacity=".055" stroke-width="1.2"/><line x1="399.8" y1="0" x2="400.6" y2="1000" stroke="#ccccff" stroke-opacity=".055" stroke-width="1.2"/><line x1="0" y1="497.8" x2="1000" y2="499.1" stroke="#ccccff" stroke-opacity=".055" stroke-width="1.2"/><line x1="498.6" y1="0" x2="497.5" y2="1000" stroke="#ccccff" stroke-opacity=".055" stroke-width="1.2"/><line x1="0" y1="602.2" x2="1000" y2="599.5" stroke="#ccccff" stroke-opacity=".055" stroke-width="1.2"/><line x1="599.5" y1="0" x2="601.9" y2="1000" stroke="#ccccff" stroke-opacity=".055" stroke-width="1.2"/><line x1="0" y1="700.9" x2="1000" y2="701.4" stroke="#ccccff" stroke-opacity=".055" stroke-width="1.2"/><line x1="702.9" y1="0" x2="698.5" y2="1000" stroke="#ccccff" stroke-opacity=".055" stroke-width="1.2"/><line x1="0" y1="798.7" x2="1000" y2="798.4" stroke="#ccccff" stroke-opacity=".055" stroke-width="1.2"/><line x1="800.3" y1="0" x2="797.5" y2="1000" stroke="#ccccff" stroke-opacity=".055" stroke-width="1.2"/><line x1="0" y1="897.2" x2="1000" y2="901.8" stroke="#ccccff" stroke-opacity=".055" stroke-width="1.2"/><line x1="900.3" y1="0" x2="902.2" y2="1000" stroke="#ccccff" stroke-opacity=".055" stroke-width="1.2"/><path d="M80,30 L30,30 L30,80" stroke="#ccccff" stroke-opacity=".45" stroke-width="2" fill="none" filter="url(#glowr1x2476)"/><path d="M920,30 L970,30 L970,80" stroke="#ccccff" stroke-opacity=".45" stroke-width="2" fill="none" filter="url(#glowr1x2476)"/><path d="M30,920 L30,970 L80,970" stroke="#ccccff" stroke-opacity=".45" stroke-width="2" fill="none" filter="url(#glowr1x2476)"/><path d="M970,920 L970,970 L920,970" stroke="#ccccff" stroke-opacity=".45" stroke-width="2" fill="none" filter="url(#glowr1x2476)"/><ellipse cx="500.0" cy="892.0" rx="350.0" ry="65.0" fill="rgba(0,0,0,.7)" filter="url(#bloomr1x2476)"/><ellipse cx="500.0" cy="889.0" rx="220.0" ry="34.0" fill="rgba(0,0,0,.45)"/><polygon points="397.6,662.0 487.9,662.9 481.9,877.4 387.6,879.1" fill="url(#suitr1x2476)" stroke="#ccccff" stroke-width="2.2" filter="url(#skr1x2476) url(#metalr1x2476)"/><polygon points="399.6,663.6 490.5,662.5 482.2,878.1 386.0,877.0" fill="url(#carbonr1x2476)"/><polygon points="392.8,723.4 491.9,723.8 484.9,788.3 384.8,789.2" fill="url(#bevelr1x2476)" fill-opacity=".5" stroke="#ccccff" stroke-width="1.4" filter="url(#skr1x2476)"/><polygon points="508.8,661.2 602.4,663.1 614.3,877.0 518.9,877.3" fill="url(#suitr1x2476)" stroke="#ccccff" stroke-width="2.2" filter="url(#skr1x2476) url(#metalr1x2476)"/><polygon points="512.2,662.5 599.5,662.9 612.9,878.2 518.5,878.6" fill="url(#carbonr1x2476)"/><polygon points="506.2,725.2 605.7,722.4 617.0,787.4 515.1,789.4" fill="url(#bevelr1x2476)" fill-opacity=".5" stroke="#ccccff" stroke-width="1.4" filter="url(#skr1x2476)"/><rect x="391.6" y="838.8" width="100.3" height="24.7" fill="url(#bevelr1x2476)" stroke="#ccccff" stroke-width="1" filter="url(#skr1x2476)"/><rect x="508.4"  y="839.5" width="100.3" height="24.7" fill="url(#bevelr1x2476)" stroke="#ccccff" stroke-width="1" filter="url(#skr1x2476)"/><polygon points="368.0,876.4 495.9,878.9 505.2,920.5 362.2,920.0" fill="#242438" stroke="#ccccff" stroke-width="2" filter="url(#skr1x2476)"/><polygon points="503.3,877.8 631.5,877.2 636.7,921.5 497.8,920.5" fill="#242438" stroke="#ccccff" stroke-width="2" filter="url(#skr1x2476)"/><polygon points="305.1,633.2 694.9,632.9 636.3,680.7 361.5,681.4" fill="#ccccff" fill-opacity=".52" stroke="#ccccff" stroke-width="2" filter="url(#skr1x2476)"/><rect x="462.5" y="639.0" width="72.0" height="42.0" fill="url(#bevelr1x2476)" stroke="#ccccff" stroke-width="1.4" filter="url(#glowr1x2476)"/><rect x="484.6" y="639.2" width="28.0" height="22.0" rx="1" fill="rgba(255,255,255,.48)"/><polygon points="153.6,466.3 236.0,466.3 256.8,736.7 129.6,733.6" fill="url(#suitr1x2476)" stroke="#ccccff" stroke-width="2.2" filter="url(#skr1x2476) url(#metalr1x2476)"/><polygon points="173.2,433.2 252.9,432.9 242.8,510.2 158.9,512.3" fill="url(#bevelr1x2476)" fill-opacity=".72" stroke="#ccccff" stroke-width="2.2" filter="url(#skr1x2476)"/><polygon points="161.6,621.5 242.5,621.8 239.0,661.2 164.4,662.5" fill="#ccccff" fill-opacity=".42" stroke="#ccccff" stroke-width="1" filter="url(#skr1x2476)"/><polygon points="765.8,465.2 847.1,465.3 872.8,735.4 741.4,735.2" fill="url(#suitr1x2476)" stroke="#ccccff" stroke-width="2.2" filter="url(#skr1x2476) url(#metalr1x2476)"/><polygon points="747.5,430.4 825.4,433.0 842.0,509.9 755.9,509.0" fill="url(#bevelr1x2476)" fill-opacity=".72" stroke="#ccccff" stroke-width="2.2" filter="url(#skr1x2476)"/><polygon points="758.4,621.5 839.1,621.4 836.0,661.7 760.4,660.9" fill="#ccccff" fill-opacity=".42" stroke="#ccccff" stroke-width="1" filter="url(#skr1x2476)"/><rect x="120.0"  y="700.3" width="135.3" height="85.0" rx="4" fill="url(#bevelr1x2476)" stroke="#ccccff" stroke-width="1.8" filter="url(#skr1x2476)"/><rect x="750.4"   y="699.8" width="135.3" height="85.0" rx="4" fill="url(#bevelr1x2476)" stroke="#ccccff" stroke-width="1.8" filter="url(#skr1x2476)"/><line x1="149.9" y1="701.1" x2="148.4" y2="784.8" stroke="#ccccff" stroke-opacity=".38" stroke-width="1"/><line x1="778.1" y1="702.6" x2="779.5" y2="783.9" stroke="#ccccff" stroke-opacity=".38" stroke-width="1"/><line x1="181.1" y1="702.0" x2="183.8" y2="784.7" stroke="#ccccff" stroke-opacity=".38" stroke-width="1"/><line x1="812.2" y1="701.2" x2="812.5" y2="784.3" stroke="#ccccff" stroke-opacity=".38" stroke-width="1"/><line x1="215.8" y1="700.8" x2="213.7" y2="785.3" stroke="#ccccff" stroke-opacity=".38" stroke-width="1"/><line x1="843.8" y1="701.9" x2="842.5" y2="782.1" stroke="#ccccff" stroke-opacity=".38" stroke-width="1"/><polygon points="234.4,418.4 765.9,417.6 724.2,661.5 275.6,662.7" fill="url(#suitr1x2476)" stroke="#ccccff" stroke-width="2.6" filter="url(#skr1x2476) url(#metalr1x2476)"/><polygon points="234.0,418.4 766.3,416.9 722.0,663.5 276.8,661.2" fill="url(#carbonr1x2476)"/><polygon points="366.8,418.4 632.5,419.1 610.4,514.0 389.6,514.7" fill="url(#suitHir1x2476)"/><line x1="362.3" y1="472.9" x2="637.7" y2="469.8" stroke="#ccccff" stroke-opacity=".52" stroke-width="1.3" filter="url(#skr1x2476)"/><line x1="398.9" y1="548.5" x2="600.4" y2="551.4" stroke="#ccccff" stroke-opacity=".52" stroke-width="1.3" filter="url(#skr1x2476)"/><line x1="266.5" y1="490.1" x2="319.9" y2="492.0" stroke="#ccccff" stroke-opacity=".62" stroke-width="1.8"/><line x1="680.3" y1="491.8" x2="732.2" y2="490.4" stroke="#ccccff" stroke-opacity=".62" stroke-width="1.8"/><line x1="266.1" y1="523.8" x2="319.3" y2="522.5" stroke="#ccccff" stroke-opacity=".62" stroke-width="1.8"/><line x1="681.3" y1="522.9" x2="733.3" y2="522.6" stroke="#ccccff" stroke-opacity=".62" stroke-width="1.8"/><line x1="267.4" y1="553.8" x2="318.9" y2="554.9" stroke="#ccccff" stroke-opacity=".62" stroke-width="1.8"/><line x1="682.0" y1="555.4" x2="733.0" y2="554.8" stroke="#ccccff" stroke-opacity=".62" stroke-width="1.8"/><line x1="265.9" y1="586.5" x2="320.9" y2="588.0" stroke="#ccccff" stroke-opacity=".62" stroke-width="1.8"/><line x1="678.5" y1="586.3" x2="734.3" y2="586.7" stroke="#ccccff" stroke-opacity=".62" stroke-width="1.8"/><g filter="url(#glowr1x2476)"><path d="M500.0,449.7 C462.3,446.8 442.0,481.6 447.8,513.5 L459.4,542.5 C476.8,536.7 491.3,551.2 500.0,551.2 C508.7,551.2 523.2,536.7 540.6,542.5 L552.2,513.5 C558.0,481.6 537.7,446.8 500.0,449.7 Z" fill="#ccccff" fill-opacity=".92" stroke="#000a14" stroke-width="1.3" filter="url(#skr1x2476)"/><path d="M483.8,519.3 Q500.0,533.8 516.2,519.3" stroke="#000a14" stroke-width="1" fill="none" opacity=".58"/><ellipse cx="481.4" cy="497.8" rx="8.7" ry="6.4" fill="#000a14" opacity=".95"/><ellipse cx="518.6" cy="497.8" rx="8.7" ry="6.4" fill="#000a14" opacity=".95"/><ellipse cx="481.4" cy="497.8" rx="2.3" ry="5.8" fill="#ccccff"/><ellipse cx="518.6" cy="497.8" rx="2.3" ry="5.8" fill="#ccccff"/><path d="M471.0,467.1 L458.2,426.5 L481.4,463.0" fill="#ccccff" stroke="#000a14" stroke-width=".9"/><path d="M529.0,467.1 L541.8,426.5 L518.6,463.0" fill="#ccccff" stroke="#000a14" stroke-width=".9"/><path d="M476.8,452.6 C488.4,449.1 511.6,449.1 523.2,452.6" fill="rgba(255,255,255,.18)"/></g><g><polygon points="76.2,671.4 128.2,671.4 112.6,-28.6 91.8,-28.6" fill="url(#blader1x2476)" filter="url(#wmr1x2476)"/><polygon points="91.8,-28.6 112.6,-28.6 102.2,-138.6" fill="url(#blader1x2476)" filter="url(#wmr1x2476)"/><polygon points="100.3,671.4 104.0,671.4 102.7,-128.6 101.6,-128.6" fill="url(#bladeTipr1x2476)" opacity=".9"/><line x1="110.58079611303282" y1="669.8740225631743" x2="102.40642853910101" y2="-128.693000456132" stroke="rgba(255,255,255,.68)" stroke-width="1.5"/><line x1="94.20147210061548" y1="671.901332037337" x2="102.84901836512607" y2="-128.25100242020565" stroke="#ccccff" stroke-width="1" stroke-opacity=".45"/><line x1="106.8" y1="651.4" x2="104.0" y2="11.4" stroke="rgba(0,0,0,.38)" stroke-width="1.6"/><line x1="97.5" y1="651.4" x2="100.3" y2="11.4" stroke="rgba(0,0,0,.38)" stroke-width="1.6"/><rect x="46.4027543679252" y="667.7532788960262" width="112.0" height="28.0" rx="3" fill="url(#bevelr1x2476)" stroke="#ccccff" stroke-width="1.6" filter="url(#wmr1x2476)"/><rect x="71.74879101602357" y="674.1511037329211" width="64.0" height="10.0" rx="1" fill="rgba(255,255,255,.32)"/><rect x="90.18163247084242" y="678.1187060477212" width="24.0" height="6.0" rx="1" fill="#ccccff" fill-opacity=".35"/><rect x="89.13667185515162" y="683.7198753220961" width="24.0" height="6.0" rx="1" fill="#ccccff" fill-opacity=".35"/><rect x="91.47978808883575" y="692.2748414034955" width="24.0" height="6.0" rx="1" fill="#ccccff" fill-opacity=".35"/><rect x="88.3640582249872" y="702.1829022880644" width="24.0" height="6.0" rx="1" fill="#ccccff" fill-opacity=".35"/><rect x="91.95942696867507" y="711.066414261423" width="24.0" height="6.0" rx="1" fill="#ccccff" fill-opacity=".35"/><rect x="90.93995122028511" y="718.6890322307124" width="24.0" height="6.0" rx="1" fill="#ccccff" fill-opacity=".35"/><ellipse cx="102.54257899340239" cy="727.8143240601755" rx="22.0" ry="16.0" fill="url(#bevelr1x2476)" stroke="#ccccff" stroke-width="1.2" filter="url(#wmr1x2476)"/></g><rect x="450.9961723317392" y="557.9447429670021" width="100.0"  height="56.0" fill="#242438" stroke="#ccccff" stroke-width="2.2" filter="url(#skr1x2476)"/><rect x="422.2216061675921" y="574.5910748181865" width="152.0" height="26.0" fill="url(#bevelr1x2476)" fill-opacity=".65" stroke="#ccccff" stroke-width="1.2" filter="url(#skr1x2476)"/><polygon points="309.1,380.0 348.7,294.0 501.7,278.4 649.7,295.0 690.5,381.2 668.6,504.6 500.0,566.5 331.9,502.3" fill="url(#suitr1x2476)" stroke="#ccccff" stroke-width="2.8" filter="url(#skr1x2476) url(#metalr1x2476)"/><polygon points="307.1,380.1 349.9,295.5 498.3,278.8 649.3,294.1 693.2,381.8 668.6,505.3 499.0,564.1 331.7,504.9" fill="url(#carbonr1x2476)"/><polygon points="380.0,301.6 498.2,286.7 620.2,303.6 608.5,381.9 394.0,378.9" fill="url(#suitHir1x2476)"/><polygon points="380.2,380.1 364.3,425.9 433.2,504.6 498.9,528.3 567.5,505.1 633.2,423.9 618.5,379.5" fill="#000a14" fill-opacity=".88" stroke="#ccccff" stroke-width="1.8" filter="url(#skr1x2476)"/><polygon points="381.0,410.0 475.5,409.8 483.4,439.0 390.2,440.5" fill="#ccccff" filter="url(#glowr1x2476)"/><polygon points="523.1,409.8 619.9,412.6 611.0,440.4 516.1,441.3" fill="#ccccff" filter="url(#glowr1x2476)"/><ellipse cx="430.9" cy="425.7" rx="38.4"  ry="8.2" fill="#ffffff" opacity=".88"/><ellipse cx="569.1" cy="425.7" rx="38.4"  ry="8.2" fill="#ffffff" opacity=".88"/><line x1="484.18113266980276" y1="412.19150428427383" x2="515.1230760177039" y2="414.9594680040143" stroke="#ccccff" stroke-opacity=".52" stroke-width="2"/><line x1="484.3472484320961" y1="438.53596548624336" x2="514.1765199787357" y2="436.6600653975271" stroke="#ccccff" stroke-opacity=".52" stroke-width="2"/><line x1="498.6682253940031" y1="453.73558461032803" x2="501.3831043341197" y2="482.7644014397636" stroke="#ccccff" stroke-opacity=".58" stroke-width="2.2" filter="url(#skr1x2476)"/><line x1="453.1703932548687" y1="491.01343822283667" x2="454.8845664379932" y2="518.8671172995121" stroke="#ccccff" stroke-opacity=".52" stroke-width="1.5" filter="url(#skr1x2476)"/><line x1="475.85362736744804" y1="489.93963423362" x2="477.6166244324669" y2="520.8079937431961" stroke="#ccccff" stroke-opacity=".52" stroke-width="1.5" filter="url(#skr1x2476)"/><line x1="499.92608046699314" y1="492.19604698466134" x2="499.7747077129781" y2="519.8096996240317" stroke="#ccccff" stroke-opacity=".52" stroke-width="1.5" filter="url(#skr1x2476)"/><line x1="522.9078850557655" y1="490.7130397642031" x2="521.5333959501795" y2="519.4947021489963" stroke="#ccccff" stroke-opacity=".52" stroke-width="1.5" filter="url(#skr1x2476)"/><line x1="546.5554023256713" y1="492.76624012086535" x2="545.1087562596612" y2="520.7718831171281" stroke="#ccccff" stroke-opacity=".52" stroke-width="1.5" filter="url(#skr1x2476)"/><polygon points="433.9,505.1 568.5,502.6 552.1,555.9 447.2,555.4" fill="#242438" fill-opacity=".72" stroke="#ccccff" stroke-width="1.3" filter="url(#skr1x2476)"/><circle cx="500.0" cy="315.0" r="203.5" fill="none" stroke="#ccccff" stroke-width="3" stroke-dasharray="6,4" filter="url(#bloomr1x2476)"/><circle cx="500.0" cy="315.0" r="134.4"   fill="none" stroke="#ccccff" stroke-width="1.2" stroke-opacity=".42"/><circle cx="703.5" cy="315.0" r="1.8" fill="#ccccff" filter="url(#glowr1x2476)"/><circle cx="688.0" cy="392.9" r="2.7" fill="#ccccff" filter="url(#glowr1x2476)"/><circle cx="643.9" cy="458.9" r="2.8" fill="#ccccff" filter="url(#glowr1x2476)"/><circle cx="577.9" cy="503.0" r="2.0" fill="#ccccff" filter="url(#glowr1x2476)"/><circle cx="500.0" cy="518.5" r="1.0" fill="#ccccff" filter="url(#glowr1x2476)"/><circle cx="422.1" cy="503.0" r="0.7" fill="#ccccff" filter="url(#glowr1x2476)"/><circle cx="356.1" cy="458.9" r="1.5" fill="#ccccff" filter="url(#glowr1x2476)"/><circle cx="312.0" cy="392.9" r="2.5" fill="#ccccff" filter="url(#glowr1x2476)"/><circle cx="296.5" cy="315.0" r="2.9" fill="#ccccff" filter="url(#glowr1x2476)"/><circle cx="312.0" cy="237.1" r="2.3" fill="#ccccff" filter="url(#glowr1x2476)"/><circle cx="356.1" cy="171.1" r="1.2" fill="#ccccff" filter="url(#glowr1x2476)"/><circle cx="422.1" cy="127.0" r="0.7" fill="#ccccff" filter="url(#glowr1x2476)"/><circle cx="500.0" cy="111.5" r="1.2" fill="#ccccff" filter="url(#glowr1x2476)"/><circle cx="577.9" cy="127.0" r="2.3" fill="#ccccff" filter="url(#glowr1x2476)"/><circle cx="643.9" cy="171.1" r="2.9" fill="#ccccff" filter="url(#glowr1x2476)"/><circle cx="688.0" cy="237.1" r="2.5" fill="#ccccff" filter="url(#glowr1x2476)"/><text x="30.0"  y="975.0" font-family="monospace" font-weight="bold" font-size="22.0" fill="rgba(255,255,255,.22)">#0001</text><text x="500.0"   y="975.0" text-anchor="middle" font-family="monospace" font-weight="bold" font-size="22.0" fill="#ccccff" fill-opacity=".48">PHANTOM RANGER</text><text x="970.0" y="975.0" text-anchor="end"    font-family="monospace" font-weight="bold" font-size="22.0" fill="#ccccff" fill-opacity=".32">MECH RANGERS</text></svg>