<svg xmlns="http://www.w3.org/2000/svg" viewBox="0 0 1000 1000" width="1000" height="1000" shape-rendering="geometricPrecision"><defs>

  <!-- Scene gradients -->
  <radialGradient id="bgr1x2515" cx="50%" cy="42%" r="72%">
    <stop offset="0%"   stop-color="#0e000e"/>
    <stop offset="100%" stop-color="#1e0600"/>
  </radialGradient>
  <linearGradient id="suitr1x2515" x1="8%" y1="0%" x2="92%" y2="100%">
    <stop offset="0%"   stop-color="#ff2040" stop-opacity=".95"/>
    <stop offset="45%"  stop-color="#cc0020"/>
    <stop offset="100%" stop-color="#1e0600"/>
  </linearGradient>
  <linearGradient id="suitHir1x2515" x1="0%" y1="0%" x2="0%" y2="100%">
    <stop offset="0%"   stop-color="rgba(255,255,255,.28)"/>
    <stop offset="60%"  stop-color="rgba(255,255,255,.04)"/>
    <stop offset="100%" stop-color="rgba(255,255,255,0)"/>
  </linearGradient>
  <!-- Bevel: bright top, dark bottom for armour panels -->
  <linearGradient id="bevelr1x2515" x1="0%" y1="0%" x2="0%" y2="100%">
    <stop offset="0%"   stop-color="rgba(255,255,255,.55)"/>
    <stop offset="30%"  stop-color="#ff2040"/>
    <stop offset="70%"  stop-color="#cc0020"/>
    <stop offset="100%" stop-color="rgba(0,0,0,.5)"/>
  </linearGradient>

  <!-- Weapon: cold steel blade sweep -->
  <linearGradient id="blader1x2515" x1="0%" y1="0%" x2="100%" y2="0%">
    <stop offset="0%"   stop-color="#0e0e20"/>
    <stop offset="16%"  stop-color="#3e3e58"/>
    <stop offset="34%"  stop-color="#c8c8e0"/>
    <stop offset="50%"  stop-color="#f5f5ff"/>
    <stop offset="66%"  stop-color="#b8b8d0"/>
    <stop offset="84%"  stop-color="#2e2e48"/>
    <stop offset="100%" stop-color="#08080e"/>
  </linearGradient>
  <!-- Blade tip brightening -->
  <linearGradient id="bladeTipr1x2515" x1="0%" y1="100%" x2="0%" y2="0%">
    <stop offset="0%"   stop-color="rgba(255,255,255,0)"/>
    <stop offset="55%"  stop-color="rgba(255,255,255,.1)"/>
    <stop offset="100%" stop-color="rgba(255,255,255,.55)"/>
  </linearGradient>
  <!-- Gunmetal anodised — blaster body -->
  <linearGradient id="gunmetalr1x2515" x1="0%" y1="0%" x2="0%" y2="100%">
    <stop offset="0%"   stop-color="#46465e"/>
    <stop offset="18%"  stop-color="#828296"/>
    <stop offset="42%"  stop-color="#26263a"/>
    <stop offset="72%"  stop-color="#16162a"/>
    <stop offset="100%" stop-color="#0c0c18"/>
  </linearGradient>
  <!-- Brushed steel tube — barrel/rod -->
  <linearGradient id="barrelr1x2515" x1="0%" y1="0%" x2="100%" y2="0%">
    <stop offset="0%"   stop-color="#0a0a14"/>
    <stop offset="24%"  stop-color="#585875"/>
    <stop offset="50%"  stop-color="#a8a8c8"/>
    <stop offset="76%"  stop-color="#383852"/>
    <stop offset="100%" stop-color="#0a0a14"/>
  </linearGradient>
  <!-- Chrome rod — lance shaft -->
  <linearGradient id="chromer1x2515" x1="0%" y1="0%" x2="100%" y2="0%">
    <stop offset="0%"   stop-color="#0c0c18"/>
    <stop offset="20%"  stop-color="#686888"/>
    <stop offset="44%"  stop-color="#e0e0f0"/>
    <stop offset="56%"  stop-color="#c0c0d8"/>
    <stop offset="80%"  stop-color="#28283e"/>
    <stop offset="100%" stop-color="#0c0c18"/>
  </linearGradient>
  <!-- Titanium plate — shield face -->
  <linearGradient id="titaniumr1x2515" x1="0%" y1="0%" x2="100%" y2="100%">
    <stop offset="0%"   stop-color="#585878"/>
    <stop offset="28%"  stop-color="#ff2040" stop-opacity=".88"/>
    <stop offset="55%"  stop-color="#cc0020"/>
    <stop offset="80%"  stop-color="#181828"/>
    <stop offset="100%" stop-color="#0a0a18"/>
  </linearGradient>
  <!-- Artillery black-chrome — cannon body -->
  <linearGradient id="artilleryr1x2515" x1="0%" y1="0%" x2="0%" y2="100%">
    <stop offset="0%"   stop-color="#383850"/>
    <stop offset="14%"  stop-color="#78789a"/>
    <stop offset="36%"  stop-color="#202034"/>
    <stop offset="65%"  stop-color="#14141e"/>
    <stop offset="100%" stop-color="#0a0a12"/>
  </linearGradient>
  <!-- Energy orb — staff -->
  <radialGradient id="orbr1x2515" cx="35%" cy="35%" r="65%">
    <stop offset="0%"   stop-color="rgba(255,255,255,.9)"/>
    <stop offset="30%"  stop-color="#ff2040"/>
    <stop offset="68%"  stop-color="#cc0020"/>
    <stop offset="100%" stop-color="rgba(0,0,0,.6)"/>
  </radialGradient>
  <!-- Knuckle plate chrome -->
  <linearGradient id="knuckler1x2515" x1="0%" y1="0%" x2="0%" y2="100%">
    <stop offset="0%"   stop-color="#888aaa"/>
    <stop offset="32%"  stop-color="#ff2040" stop-opacity=".8"/>
    <stop offset="62%"  stop-color="#1a1a2c"/>
    <stop offset="100%" stop-color="#0a0a14"/>
  </linearGradient>

  <!-- Carbon fibre weave texture overlay -->
  <pattern id="carbonr1x2515" width="6" height="6" patternUnits="userSpaceOnUse">
    <rect width="6" height="6" fill="rgba(0,0,0,.08)"/>
    <rect x="0" y="0" width="3" height="3" fill="rgba(255,255,255,.022)"/>
    <rect x="3" y="3" width="3" height="3" fill="rgba(255,255,255,.022)"/>
    <line x1="0" y1="0" x2="3" y2="3" stroke="rgba(255,255,255,.038)" stroke-width=".5"/>
    <line x1="3" y1="0" x2="6" y2="3" stroke="rgba(0,0,0,.055)"       stroke-width=".5"/>
    <line x1="0" y1="3" x2="3" y2="6" stroke="rgba(0,0,0,.055)"       stroke-width=".5"/>
    <line x1="3" y1="3" x2="6" y2="6" stroke="rgba(255,255,255,.038)" stroke-width=".5"/>
  </pattern>

  <!-- Specular metal sheen on armour panels -->
  <filter id="metalr1x2515" x="-5%" y="-5%" width="110%" height="110%">
    <feSpecularLighting surfaceScale="4" specularConstant="1.8"
        specularExponent="42" lighting-color="#ffffff" result="spec">
      <feDistantLight elevation="52" azimuth="38"/>
    </feSpecularLighting>
    <feComposite in="spec" in2="SourceGraphic" operator="in" result="sm"/>
    <feComposite in="SourceGraphic" in2="sm" operator="arithmetic" k1="0" k2="1" k3="0.55" k4="0"/>
  </filter>

  <!-- Sharper specular for weapons — heavier glare -->
  <filter id="wmr1x2515" x="-8%" y="-8%" width="116%" height="116%">
    <feSpecularLighting surfaceScale="6" specularConstant="2.4"
        specularExponent="65" lighting-color="#ffffff" result="spec">
      <feDistantLight elevation="44" azimuth="28"/>
    </feSpecularLighting>
    <feComposite in="spec" in2="SourceGraphic" operator="in" result="sm"/>
    <feComposite in="SourceGraphic" in2="sm" operator="arithmetic" k1="0" k2="1" k3="0.78" k4="0"/>
  </filter>

  <!-- Sketch wobble -->
  <filter id="skr1x2515" x="-8%" y="-8%" width="116%" height="116%">
    <feTurbulence type="fractalNoise" baseFrequency="0.038"
        numOctaves="3" seed="85" result="noise"/>
    <feDisplacementMap in="SourceGraphic" in2="noise" scale="2.6"
        xChannelSelector="R" yChannelSelector="G" result="w"/>
    <feComposite in="w" in2="SourceGraphic" operator="atop"/>
  </filter>

  <!-- Glow: sharp accent -->
  <filter id="glowr1x2515" x="-20%" y="-20%" width="140%" height="140%">
    <feGaussianBlur stdDeviation="3.5" result="b"/>
    <feColorMatrix in="b" type="matrix"
        values="0 0 0 0 1  0 0 0 0 1  0 0 0 0 1  0 0 0 1.8 0" result="boost"/>
    <feMerge><feMergeNode in="boost"/><feMergeNode in="SourceGraphic"/></feMerge>
  </filter>

  <!-- Bloom: wide soft -->
  <filter id="bloomr1x2515" x="-40%" y="-40%" width="180%" height="180%">
    <feGaussianBlur stdDeviation="11" result="b"/>
    <feMerge><feMergeNode in="b"/><feMergeNode in="SourceGraphic"/></feMerge>
  </filter>

  </defs><rect width="1000" height="1000" fill="url(#bgr1x2515)"/><ellipse cx="500.0" cy="1000" rx="850.0" ry="350.0" fill="#ff4500" fill-opacity=".11" filter="url(#bloomr1x2515)"/><ellipse cx="500.0" cy="892.0" rx="350.0" ry="65.0" fill="rgba(0,0,0,.7)" filter="url(#bloomr1x2515)"/><ellipse cx="500.0" cy="889.0" rx="220.0" ry="34.0" fill="rgba(0,0,0,.45)"/><ellipse cx="500.0" cy="520.0" rx="320.0" ry="480.0" fill="#00e5ff" fill-opacity=".042" filter="url(#bloomr1x2515)"/><circle cx="685.7" cy="343.9" r="1.6" fill="#00e5ff" fill-opacity="0.45" filter="url(#glowr1x2515)"/><circle cx="347.2" cy="276.9" r="1.3" fill="#00e5ff" fill-opacity="0.79" filter="url(#glowr1x2515)"/><circle cx="496.3" cy="279.3" r="3.0" fill="#00e5ff" fill-opacity="0.70" filter="url(#glowr1x2515)"/><circle cx="681.3" cy="251.0" r="1.1" fill="#00e5ff" fill-opacity="0.46" filter="url(#glowr1x2515)"/><circle cx="355.8" cy="385.3" r="2.5" fill="#00e5ff" fill-opacity="0.54" filter="url(#glowr1x2515)"/><circle cx="473.5" cy="535.0" r="2.7" fill="#00e5ff" fill-opacity="0.58" filter="url(#glowr1x2515)"/><circle cx="452.6" cy="218.8" r="2.8" fill="#00e5ff" fill-opacity="0.66" filter="url(#glowr1x2515)"/><circle cx="684.6" cy="404.3" r="1.2" fill="#00e5ff" fill-opacity="0.63" filter="url(#glowr1x2515)"/><circle cx="254.6" cy="558.5" r="3.8" fill="#00e5ff" fill-opacity="0.71" filter="url(#glowr1x2515)"/><circle cx="535.8" cy="324.0" r="4.0" fill="#00e5ff" fill-opacity="0.58" filter="url(#glowr1x2515)"/><circle cx="254.2" cy="795.8" r="2.3" fill="#00e5ff" fill-opacity="0.75" filter="url(#glowr1x2515)"/><circle cx="281.8" cy="588.0" r="1.9" fill="#00e5ff" fill-opacity="0.87" filter="url(#glowr1x2515)"/><circle cx="669.1" cy="550.0" r="3.2" fill="#00e5ff" fill-opacity="0.68" filter="url(#glowr1x2515)"/><circle cx="623.1" cy="656.2" r="2.7" fill="#00e5ff" fill-opacity="0.65" filter="url(#glowr1x2515)"/><path d="M364.2,397.1 Q339.3,554.1 509.3,717.6" stroke="#00e5ff" stroke-opacity="0.40" stroke-width="2.9" fill="none" filter="url(#glowr1x2515)"/><path d="M456.4,372.7 Q430.5,539.9 322.8,732.9" stroke="#00e5ff" stroke-opacity="0.57" stroke-width="1.5" fill="none" filter="url(#glowr1x2515)"/><path d="M331.2,394.2 Q374.6,642.9 320.4,890.7" stroke="#00e5ff" stroke-opacity="0.48" stroke-width="1.4" fill="none" filter="url(#glowr1x2515)"/><path d="M568.1,263.4 Q546.1,539.5 413.2,862.3" stroke="#00e5ff" stroke-opacity="0.65" stroke-width="1.7" fill="none" filter="url(#glowr1x2515)"/><path d="M519.3,150.8 Q498.1,451.4 399.1,715.6" stroke="#00e5ff" stroke-opacity="0.72" stroke-width="1.6" fill="none" filter="url(#glowr1x2515)"/><polygon points="398.2,662.6 489.8,662.2 481.0,879.1 388.0,878.5" fill="url(#suitr1x2515)" stroke="#ff2040" stroke-width="2.2" filter="url(#skr1x2515) url(#metalr1x2515)"/><polygon points="400.2,662.0 491.1,662.8 481.8,877.3 386.3,875.9" fill="url(#carbonr1x2515)"/><polygon points="393.4,723.8 494.2,723.8 485.5,787.6 383.1,788.6" fill="url(#bevelr1x2515)" fill-opacity=".5" stroke="#ff2040" stroke-width="1.4" filter="url(#skr1x2515)"/><polygon points="511.4,662.9 601.2,663.5 612.8,876.2 520.8,876.6" fill="url(#suitr1x2515)" stroke="#ff2040" stroke-width="2.2" filter="url(#skr1x2515) url(#metalr1x2515)"/><polygon points="508.8,662.8 601.9,663.5 611.0,876.3 521.1,876.7" fill="url(#carbonr1x2515)"/><polygon points="507.5,725.3 605.8,723.9 616.2,786.7 514.7,786.5" fill="url(#bevelr1x2515)" fill-opacity=".5" stroke="#ff2040" stroke-width="1.4" filter="url(#skr1x2515)"/><rect x="392.3" y="837.5" width="100.3" height="24.7" fill="url(#bevelr1x2515)" stroke="#ff2040" stroke-width="1" filter="url(#skr1x2515)"/><rect x="506.1"  y="839.7" width="100.3" height="24.7" fill="url(#bevelr1x2515)" stroke="#ff2040" stroke-width="1" filter="url(#skr1x2515)"/><polygon points="368.2,878.6 497.9,876.6 504.8,920.5 363.7,923.1" fill="#cc0020" stroke="#ff2040" stroke-width="2" filter="url(#skr1x2515)"/><polygon points="502.6,877.1 629.2,878.6 638.6,922.0 495.2,923.2" fill="#cc0020" stroke="#ff2040" stroke-width="2" filter="url(#skr1x2515)"/><polygon points="303.9,634.8 695.5,633.9 636.4,682.9 363.4,681.3" fill="#ff2040" fill-opacity=".52" stroke="#ff2040" stroke-width="2" filter="url(#skr1x2515)"/><rect x="463.1" y="638.3" width="72.0" height="42.0" fill="url(#bevelr1x2515)" stroke="#ff2040" stroke-width="1.4" filter="url(#glowr1x2515)"/><rect x="486.4" y="641.7" width="28.0" height="22.0" rx="1" fill="rgba(255,255,255,.48)"/><polygon points="152.9,465.1 234.9,466.9 257.3,733.5 129.5,735.1" fill="url(#suitr1x2515)" stroke="#ff2040" stroke-width="2.2" filter="url(#skr1x2515) url(#metalr1x2515)"/><polygon points="174.4,431.2 251.5,432.5 244.0,510.5 161.1,509.0" fill="url(#bevelr1x2515)" fill-opacity=".72" stroke="#ff2040" stroke-width="2.2" filter="url(#skr1x2515)"/><polygon points="160.8,620.6 244.1,621.1 237.8,662.5 165.5,661.0" fill="#ff2040" fill-opacity=".42" stroke="#ff2040" stroke-width="1" filter="url(#skr1x2515)"/><polygon points="766.1,466.2 848.5,465.1 870.9,735.5 742.4,735.9" fill="url(#suitr1x2515)" stroke="#ff2040" stroke-width="2.2" filter="url(#skr1x2515) url(#metalr1x2515)"/><polygon points="747.5,432.3 826.8,430.7 841.8,510.4 757.3,511.5" fill="url(#bevelr1x2515)" fill-opacity=".72" stroke="#ff2040" stroke-width="2.2" filter="url(#skr1x2515)"/><polygon points="756.0,621.9 839.8,620.5 836.1,660.1 762.6,659.9" fill="#ff2040" fill-opacity=".42" stroke="#ff2040" stroke-width="1" filter="url(#skr1x2515)"/><rect x="121.1"  y="701.5" width="135.3" height="85.0" rx="4" fill="url(#bevelr1x2515)" stroke="#ff2040" stroke-width="1.8" filter="url(#skr1x2515)"/><rect x="750.0"   y="699.8" width="135.3" height="85.0" rx="4" fill="url(#bevelr1x2515)" stroke="#ff2040" stroke-width="1.8" filter="url(#skr1x2515)"/><line x1="150.5" y1="703.2" x2="150.8" y2="783.1" stroke="#ff2040" stroke-opacity=".38" stroke-width="1"/><line x1="778.1" y1="700.8" x2="778.0" y2="785.1" stroke="#ff2040" stroke-opacity=".38" stroke-width="1"/><line x1="180.8" y1="700.5" x2="182.2" y2="782.9" stroke="#ff2040" stroke-opacity=".38" stroke-width="1"/><line x1="811.0" y1="703.0" x2="809.2" y2="784.9" stroke="#ff2040" stroke-opacity=".38" stroke-width="1"/><line x1="215.2" y1="701.9" x2="214.7" y2="783.0" stroke="#ff2040" stroke-opacity=".38" stroke-width="1"/><line x1="842.0" y1="702.8" x2="841.9" y2="782.1" stroke="#ff2040" stroke-opacity=".38" stroke-width="1"/><polygon points="234.1,417.2 765.3,416.1 723.3,662.0 276.7,662.6" fill="url(#suitr1x2515)" stroke="#ff2040" stroke-width="2.6" filter="url(#skr1x2515) url(#metalr1x2515)"/><polygon points="235.6,417.4 764.5,419.1 723.2,661.7 278.1,661.3" fill="url(#carbonr1x2515)"/><polygon points="366.3,418.0 631.9,416.8 612.0,514.3 387.4,515.2" fill="url(#suitHir1x2515)"/><line x1="363.6" y1="471.7" x2="637.0" y2="470.3" stroke="#ff2040" stroke-opacity=".52" stroke-width="1.3" filter="url(#skr1x2515)"/><line x1="399.2" y1="549.3" x2="601.8" y2="550.1" stroke="#ff2040" stroke-opacity=".52" stroke-width="1.3" filter="url(#skr1x2515)"/><line x1="267.7" y1="492.3" x2="320.5" y2="491.6" stroke="#ff2040" stroke-opacity=".62" stroke-width="1.8"/><line x1="680.1" y1="491.2" x2="734.6" y2="492.7" stroke="#ff2040" stroke-opacity=".62" stroke-width="1.8"/><line x1="268.3" y1="523.6" x2="319.8" y2="524.4" stroke="#ff2040" stroke-opacity=".62" stroke-width="1.8"/><line x1="678.8" y1="521.5" x2="732.7" y2="521.5" stroke="#ff2040" stroke-opacity=".62" stroke-width="1.8"/><line x1="268.6" y1="556.4" x2="318.9" y2="554.2" stroke="#ff2040" stroke-opacity=".62" stroke-width="1.8"/><line x1="680.9" y1="555.5" x2="733.1" y2="553.8" stroke="#ff2040" stroke-opacity=".62" stroke-width="1.8"/><line x1="265.7" y1="588.3" x2="321.4" y2="585.8" stroke="#ff2040" stroke-opacity=".62" stroke-width="1.8"/><line x1="678.6" y1="587.2" x2="733.3" y2="588.1" stroke="#ff2040" stroke-opacity=".62" stroke-width="1.8"/><g filter="url(#glowr1x2515)"><ellipse cx="499.4" cy="510.6" rx="42.9" ry="23.2" fill="#1e0600" stroke="#ff2040" stroke-width="1.6" filter="url(#skr1x2515)"/><circle cx="498.4" cy="509.5" r="15.1" fill="#ff2040"/><circle cx="496.0" cy="506.9" r="5.8" fill="#1e0600"/><ellipse cx="494.7" cy="505.4" rx="3.5" ry="2.3" fill="rgba(255,255,255,.7)"/></g><g><rect x="115.6" y="702.2" width="137.8" height="88.0" rx="5" fill="url(#bevelr1x2515)" stroke="#ff2040" stroke-width="2" filter="url(#wmr1x2515)"/><rect x="117.0" y="702.0" width="137.8" height="88.0" rx="5" fill="url(#carbonr1x2515)"/><rect x="747.9"  y="703.4" width="137.8" height="88.0" rx="5" fill="url(#bevelr1x2515)" stroke="#ff2040" stroke-width="2" filter="url(#wmr1x2515)"/><rect x="748.3"  y="701.9" width="137.8" height="88.0" rx="5" fill="url(#carbonr1x2515)"/><rect x="122.8" y="699.8" width="23.0" height="22.0" rx="2" fill="url(#knuckler1x2515)" stroke="#ff2040" stroke-width=".8" filter="url(#wmr1x2515)"/><rect x="755.4" y="698.8" width="23.0" height="22.0" rx="2" fill="url(#knuckler1x2515)" stroke="#ff2040" stroke-width=".8" filter="url(#wmr1x2515)"/><rect x="149.7" y="701.4" width="23.0" height="22.0" rx="2" fill="url(#knuckler1x2515)" stroke="#ff2040" stroke-width=".8" filter="url(#wmr1x2515)"/><rect x="784.7" y="698.5" width="23.0" height="22.0" rx="2" fill="url(#knuckler1x2515)" stroke="#ff2040" stroke-width=".8" filter="url(#wmr1x2515)"/><rect x="182.2" y="701.7" width="23.0" height="22.0" rx="2" fill="url(#knuckler1x2515)" stroke="#ff2040" stroke-width=".8" filter="url(#wmr1x2515)"/><rect x="812.9" y="699.1" width="23.0" height="22.0" rx="2" fill="url(#knuckler1x2515)" stroke="#ff2040" stroke-width=".8" filter="url(#wmr1x2515)"/><rect x="211.0" y="698.2" width="23.0" height="22.0" rx="2" fill="url(#knuckler1x2515)" stroke="#ff2040" stroke-width=".8" filter="url(#wmr1x2515)"/><rect x="844.0" y="700.6" width="23.0" height="22.0" rx="2" fill="url(#knuckler1x2515)" stroke="#ff2040" stroke-width=".8" filter="url(#wmr1x2515)"/><ellipse cx="185.3570972854644" cy="710.9366231176815" rx="45.1" ry="30.0" fill="#ff2040" fill-opacity=".25" filter="url(#glowr1x2515)"/><ellipse cx="818.7836588671618" cy="710.0995410054735" rx="45.1" ry="30.0" fill="#ff2040" fill-opacity=".25" filter="url(#glowr1x2515)"/></g><rect x="450.40181991029533" y="558.5007217700593" width="100.0"  height="56.0" fill="#cc0020" stroke="#ff2040" stroke-width="2.2" filter="url(#skr1x2515)"/><rect x="423.1538067582063" y="574.8961271248758" width="152.0" height="26.0" fill="url(#bevelr1x2515)" fill-opacity=".65" stroke="#ff2040" stroke-width="1.2" filter="url(#skr1x2515)"/><polygon points="307.9,381.7 350.9,293.8 499.3,277.3 648.9,294.9 693.8,381.9 667.9,503.2 498.7,566.5 331.5,504.8" fill="url(#suitr1x2515)" stroke="#ff2040" stroke-width="2.8" filter="url(#skr1x2515) url(#metalr1x2515)"/><polygon points="306.7,381.0 348.8,294.9 500.3,277.2 651.0,294.2 691.4,379.0 670.1,501.8 501.4,565.3 330.0,502.0" fill="url(#carbonr1x2515)"/><polygon points="382.4,302.2 499.6,285.4 618.7,302.4 608.9,381.1 393.0,381.0" fill="url(#suitHir1x2515)"/><polygon points="379.7,379.4 365.4,427.1 431.5,504.0 500.4,529.5 565.5,502.5 635.7,424.4 620.4,382.3" fill="#1e0600" fill-opacity=".88" stroke="#ff2040" stroke-width="1.8" filter="url(#skr1x2515)"/><polygon points="379.6,410.7 478.2,410.6 483.4,439.8 388.2,441.1" fill="#ff2040" filter="url(#glowr1x2515)"/><polygon points="522.6,410.4 619.9,411.6 609.6,439.9 515.4,438.6" fill="#ff2040" filter="url(#glowr1x2515)"/><ellipse cx="430.9" cy="425.7" rx="38.4"  ry="8.2" fill="#ffffff" opacity=".88"/><ellipse cx="569.1" cy="425.7" rx="38.4"  ry="8.2" fill="#ffffff" opacity=".88"/><line x1="483.0955867741816" y1="413.61686355751004" x2="515.7468701179512" y2="414.16292323563243" stroke="#ff2040" stroke-opacity=".52" stroke-width="2"/><line x1="483.56074110927057" y1="438.1318610605784" x2="515.3547146434337" y2="437.3917927410454" stroke="#ff2040" stroke-opacity=".52" stroke-width="2"/><line x1="500.17054840102793" y1="455.90756747666745" x2="500.76831591073426" y2="482.0333882310428" stroke="#ff2040" stroke-opacity=".58" stroke-width="2.2" filter="url(#skr1x2515)"/><line x1="455.2543032266945" y1="492.1387010013684" x2="452.4893547951989" y2="520.7676212328486" stroke="#ff2040" stroke-opacity=".52" stroke-width="1.5" filter="url(#skr1x2515)"/><line x1="478.3026303516142" y1="490.6434982568025" x2="476.5631991029158" y2="520.9466603936628" stroke="#ff2040" stroke-opacity=".52" stroke-width="1.5" filter="url(#skr1x2515)"/><line x1="498.8760753319599" y1="489.6923072164878" x2="499.12085576513783" y2="520.688434160687" stroke="#ff2040" stroke-opacity=".52" stroke-width="1.5" filter="url(#skr1x2515)"/><line x1="521.2606663894467" y1="492.3138301895931" x2="521.4853032191843" y2="519.5963249624707" stroke="#ff2040" stroke-opacity=".52" stroke-width="1.5" filter="url(#skr1x2515)"/><line x1="544.8422178609484" y1="492.9812864046543" x2="545.407724912297" y2="518.3323096784763" stroke="#ff2040" stroke-opacity=".52" stroke-width="1.5" filter="url(#skr1x2515)"/><polygon points="432.0,502.3 568.1,503.0 554.4,555.7 447.0,558.3" fill="#cc0020" fill-opacity=".72" stroke="#ff2040" stroke-width="1.3" filter="url(#skr1x2515)"/><path d="M387.0145266702026 325.5084077554755 Q329.37412704691286 217.88627670267596 381.0208052324504 142.1017855825834" stroke="#ff2040" stroke-width="5" fill="none" stroke-linecap="round" filter="url(#skr1x2515)"/><path d="M390.2387967302091 326.20623303065076 Q330.0030623685196 215.18882715823128 379.6768207265437 139.14039585087448" stroke="rgba(255,255,255,.25)" stroke-width="1.5" fill="none" stroke-linecap="round"/><path d="M612.4669937810302 328.38126336587595 Q667.5398354456202 218.0708037804812 619.8072432341612 140.5600295793265" stroke="#ff2040" stroke-width="5" fill="none" stroke-linecap="round" filter="url(#skr1x2515)"/><path d="M610.6470771117508 328.57312977220863 Q670.3570746306702 215.81315370127558 619.6637761059776 141.5052033619955" stroke="rgba(255,255,255,.25)" stroke-width="1.5" fill="none" stroke-linecap="round"/><text x="30.0"  y="975.0" font-family="monospace" font-weight="bold" font-size="22.0" fill="rgba(255,255,255,.22)">#0001</text><text x="500.0"   y="975.0" text-anchor="middle" font-family="monospace" font-weight="bold" font-size="22.0" fill="#ff2040" fill-opacity=".48">CRIMSON RANGER</text><text x="970.0" y="975.0" text-anchor="end"    font-family="monospace" font-weight="bold" font-size="22.0" fill="#ff2040" fill-opacity=".32">MECH RANGERS</text></svg>