<svg xmlns="http://www.w3.org/2000/svg" viewBox="0 0 1000 1000" width="1000" height="1000" shape-rendering="geometricPrecision"><defs>

  <!-- Scene gradients -->
  <radialGradient id="bgr1x2543" cx="50%" cy="42%" r="72%">
    <stop offset="0%"   stop-color="#0a1420"/>
    <stop offset="100%" stop-color="#050d14"/>
  </radialGradient>
  <linearGradient id="suitr1x2543" x1="8%" y1="0%" x2="92%" y2="100%">
    <stop offset="0%"   stop-color="#c0c0d0" stop-opacity=".95"/>
    <stop offset="45%"  stop-color="#2c2c3c"/>
    <stop offset="100%" stop-color="#050d14"/>
  </linearGradient>
  <linearGradient id="suitHir1x2543" x1="0%" y1="0%" x2="0%" y2="100%">
    <stop offset="0%"   stop-color="rgba(255,255,255,.28)"/>
    <stop offset="60%"  stop-color="rgba(255,255,255,.04)"/>
    <stop offset="100%" stop-color="rgba(255,255,255,0)"/>
  </linearGradient>
  <!-- Bevel: bright top, dark bottom for armour panels -->
  <linearGradient id="bevelr1x2543" x1="0%" y1="0%" x2="0%" y2="100%">
    <stop offset="0%"   stop-color="rgba(255,255,255,.55)"/>
    <stop offset="30%"  stop-color="#c0c0d0"/>
    <stop offset="70%"  stop-color="#2c2c3c"/>
    <stop offset="100%" stop-color="rgba(0,0,0,.5)"/>
  </linearGradient>

  <!-- Weapon: cold steel blade sweep -->
  <linearGradient id="blader1x2543" x1="0%" y1="0%" x2="100%" y2="0%">
    <stop offset="0%"   stop-color="#0e0e20"/>
    <stop offset="16%"  stop-color="#3e3e58"/>
    <stop offset="34%"  stop-color="#c8c8e0"/>
    <stop offset="50%"  stop-color="#f5f5ff"/>
    <stop offset="66%"  stop-color="#b8b8d0"/>
    <stop offset="84%"  stop-color="#2e2e48"/>
    <stop offset="100%" stop-color="#08080e"/>
  </linearGradient>
  <!-- Blade tip brightening -->
  <linearGradient id="bladeTipr1x2543" x1="0%" y1="100%" x2="0%" y2="0%">
    <stop offset="0%"   stop-color="rgba(255,255,255,0)"/>
    <stop offset="55%"  stop-color="rgba(255,255,255,.1)"/>
    <stop offset="100%" stop-color="rgba(255,255,255,.55)"/>
  </linearGradient>
  <!-- Gunmetal anodised — blaster body -->
  <linearGradient id="gunmetalr1x2543" x1="0%" y1="0%" x2="0%" y2="100%">
    <stop offset="0%"   stop-color="#46465e"/>
    <stop offset="18%"  stop-color="#828296"/>
    <stop offset="42%"  stop-color="#26263a"/>
    <stop offset="72%"  stop-color="#16162a"/>
    <stop offset="100%" stop-color="#0c0c18"/>
  </linearGradient>
  <!-- Brushed steel tube — barrel/rod -->
  <linearGradient id="barrelr1x2543" x1="0%" y1="0%" x2="100%" y2="0%">
    <stop offset="0%"   stop-color="#0a0a14"/>
    <stop offset="24%"  stop-color="#585875"/>
    <stop offset="50%"  stop-color="#a8a8c8"/>
    <stop offset="76%"  stop-color="#383852"/>
    <stop offset="100%" stop-color="#0a0a14"/>
  </linearGradient>
  <!-- Chrome rod — lance shaft -->
  <linearGradient id="chromer1x2543" x1="0%" y1="0%" x2="100%" y2="0%">
    <stop offset="0%"   stop-color="#0c0c18"/>
    <stop offset="20%"  stop-color="#686888"/>
    <stop offset="44%"  stop-color="#e0e0f0"/>
    <stop offset="56%"  stop-color="#c0c0d8"/>
    <stop offset="80%"  stop-color="#28283e"/>
    <stop offset="100%" stop-color="#0c0c18"/>
  </linearGradient>
  <!-- Titanium plate — shield face -->
  <linearGradient id="titaniumr1x2543" x1="0%" y1="0%" x2="100%" y2="100%">
    <stop offset="0%"   stop-color="#585878"/>
    <stop offset="28%"  stop-color="#c0c0d0" stop-opacity=".88"/>
    <stop offset="55%"  stop-color="#2c2c3c"/>
    <stop offset="80%"  stop-color="#181828"/>
    <stop offset="100%" stop-color="#0a0a18"/>
  </linearGradient>
  <!-- Artillery black-chrome — cannon body -->
  <linearGradient id="artilleryr1x2543" x1="0%" y1="0%" x2="0%" y2="100%">
    <stop offset="0%"   stop-color="#383850"/>
    <stop offset="14%"  stop-color="#78789a"/>
    <stop offset="36%"  stop-color="#202034"/>
    <stop offset="65%"  stop-color="#14141e"/>
    <stop offset="100%" stop-color="#0a0a12"/>
  </linearGradient>
  <!-- Energy orb — staff -->
  <radialGradient id="orbr1x2543" cx="35%" cy="35%" r="65%">
    <stop offset="0%"   stop-color="rgba(255,255,255,.9)"/>
    <stop offset="30%"  stop-color="#c0c0d0"/>
    <stop offset="68%"  stop-color="#2c2c3c"/>
    <stop offset="100%" stop-color="rgba(0,0,0,.6)"/>
  </radialGradient>
  <!-- Knuckle plate chrome -->
  <linearGradient id="knuckler1x2543" x1="0%" y1="0%" x2="0%" y2="100%">
    <stop offset="0%"   stop-color="#888aaa"/>
    <stop offset="32%"  stop-color="#c0c0d0" stop-opacity=".8"/>
    <stop offset="62%"  stop-color="#1a1a2c"/>
    <stop offset="100%" stop-color="#0a0a14"/>
  </linearGradient>

  <!-- Carbon fibre weave texture overlay -->
  <pattern id="carbonr1x2543" width="6" height="6" patternUnits="userSpaceOnUse">
    <rect width="6" height="6" fill="rgba(0,0,0,.08)"/>
    <rect x="0" y="0" width="3" height="3" fill="rgba(255,255,255,.022)"/>
    <rect x="3" y="3" width="3" height="3" fill="rgba(255,255,255,.022)"/>
    <line x1="0" y1="0" x2="3" y2="3" stroke="rgba(255,255,255,.038)" stroke-width=".5"/>
    <line x1="3" y1="0" x2="6" y2="3" stroke="rgba(0,0,0,.055)"       stroke-width=".5"/>
    <line x1="0" y1="3" x2="3" y2="6" stroke="rgba(0,0,0,.055)"       stroke-width=".5"/>
    <line x1="3" y1="3" x2="6" y2="6" stroke="rgba(255,255,255,.038)" stroke-width=".5"/>
  </pattern>

  <!-- Specular metal sheen on armour panels -->
  <filter id="metalr1x2543" x="-5%" y="-5%" width="110%" height="110%">
    <feSpecularLighting surfaceScale="4" specularConstant="1.8"
        specularExponent="42" lighting-color="#ffffff" result="spec">
      <feDistantLight elevation="52" azimuth="38"/>
    </feSpecularLighting>
    <feComposite in="spec" in2="SourceGraphic" operator="in" result="sm"/>
    <feComposite in="SourceGraphic" in2="sm" operator="arithmetic" k1="0" k2="1" k3="0.55" k4="0"/>
  </filter>

  <!-- Sharper specular for weapons — heavier glare -->
  <filter id="wmr1x2543" x="-8%" y="-8%" width="116%" height="116%">
    <feSpecularLighting surfaceScale="6" specularConstant="2.4"
        specularExponent="65" lighting-color="#ffffff" result="spec">
      <feDistantLight elevation="44" azimuth="28"/>
    </feSpecularLighting>
    <feComposite in="spec" in2="SourceGraphic" operator="in" result="sm"/>
    <feComposite in="SourceGraphic" in2="sm" operator="arithmetic" k1="0" k2="1" k3="0.78" k4="0"/>
  </filter>

  <!-- Sketch wobble -->
  <filter id="skr1x2543" x="-8%" y="-8%" width="116%" height="116%">
    <feTurbulence type="fractalNoise" baseFrequency="0.038"
        numOctaves="3" seed="58" result="noise"/>
    <feDisplacementMap in="SourceGraphic" in2="noise" scale="2.6"
        xChannelSelector="R" yChannelSelector="G" result="w"/>
    <feComposite in="w" in2="SourceGraphic" operator="atop"/>
  </filter>

  <!-- Glow: sharp accent -->
  <filter id="glowr1x2543" x="-20%" y="-20%" width="140%" height="140%">
    <feGaussianBlur stdDeviation="3.5" result="b"/>
    <feColorMatrix in="b" type="matrix"
        values="0 0 0 0 1  0 0 0 0 1  0 0 0 0 1  0 0 0 1.8 0" result="boost"/>
    <feMerge><feMergeNode in="boost"/><feMergeNode in="SourceGraphic"/></feMerge>
  </filter>

  <!-- Bloom: wide soft -->
  <filter id="bloomr1x2543" x="-40%" y="-40%" width="180%" height="180%">
    <feGaussianBlur stdDeviation="11" result="b"/>
    <feMerge><feMergeNode in="b"/><feMergeNode in="SourceGraphic"/></feMerge>
  </filter>

  </defs><rect width="1000" height="1000" fill="url(#bgr1x2543)"/><polygon points="164.14844480808824,12.864475240930915 196.74377636797726,-25.018763148225844 222.68087519612163,30.11470329016447" fill="#c0c0d0" fill-opacity=".055" stroke="#c0c0d0" stroke-opacity=".1" stroke-width="1"/><polygon points="885.4291580989957,222.0159191545099 908.7306358879432,178.7012135637924 938.9118851423264,215.48162541817874" fill="#c0c0d0" fill-opacity=".055" stroke="#c0c0d0" stroke-opacity=".1" stroke-width="1"/><polygon points="924.6993068931624,13.245449922978878 959.1913048671558,-14.423979797400534 970.4656223608181,18.91695956233889" fill="#c0c0d0" fill-opacity=".055" stroke="#c0c0d0" stroke-opacity=".1" stroke-width="1"/><polygon points="793.7891519302502,198.5690428270027 801.9723631190136,156.83939685393125 822.1276945648715,197.7520894492045" fill="#c0c0d0" fill-opacity=".055" stroke="#c0c0d0" stroke-opacity=".1" stroke-width="1"/><polygon points="166.72172487247735,427.20517793670297 190.7187770474702,383.3997732847929 208.17992070503533,430.1767109846696" fill="#c0c0d0" fill-opacity=".055" stroke="#c0c0d0" stroke-opacity=".1" stroke-width="1"/><polygon points="384.85400391742587,43.77877492457628 396.4819104950875,5.107394832186401 416.5516958925873,54.864561590366066" fill="#c0c0d0" fill-opacity=".055" stroke="#c0c0d0" stroke-opacity=".1" stroke-width="1"/><polygon points="31.105088661424816,415.5325935129076 47.43523897882551,367.2696645166725 69.76704932097346,415.58534998446703" fill="#c0c0d0" fill-opacity=".055" stroke="#c0c0d0" stroke-opacity=".1" stroke-width="1"/><polygon points="183.42559945303947,96.78422149270773 202.67983207292855,49.610029615461826 226.19890620745718,90.52166171371937" fill="#c0c0d0" fill-opacity=".055" stroke="#c0c0d0" stroke-opacity=".1" stroke-width="1"/><ellipse cx="500.0" cy="892.0" rx="350.0" ry="65.0" fill="rgba(0,0,0,.7)" filter="url(#bloomr1x2543)"/><ellipse cx="500.0" cy="889.0" rx="220.0" ry="34.0" fill="rgba(0,0,0,.45)"/><ellipse cx="500.0" cy="520.0" rx="320.0" ry="480.0" fill="#ff6600" fill-opacity=".042" filter="url(#bloomr1x2543)"/><circle cx="629.8" cy="488.2" r="3.2" fill="#ff6600" fill-opacity="0.67" filter="url(#glowr1x2543)"/><circle cx="312.9" cy="666.0" r="3.8" fill="#ff6600" fill-opacity="0.46" filter="url(#glowr1x2543)"/><circle cx="276.6" cy="725.0" r="3.6" fill="#ff6600" fill-opacity="0.57" filter="url(#glowr1x2543)"/><circle cx="366.2" cy="623.8" r="3.0" fill="#ff6600" fill-opacity="0.43" filter="url(#glowr1x2543)"/><circle cx="562.4" cy="423.0" r="1.0" fill="#ff6600" fill-opacity="0.42" filter="url(#glowr1x2543)"/><circle cx="626.2" cy="787.9" r="0.7" fill="#ff6600" fill-opacity="0.44" filter="url(#glowr1x2543)"/><circle cx="394.4" cy="356.4" r="2.0" fill="#ff6600" fill-opacity="0.80" filter="url(#glowr1x2543)"/><circle cx="711.8" cy="341.0" r="3.0" fill="#ff6600" fill-opacity="0.77" filter="url(#glowr1x2543)"/><circle cx="555.6" cy="764.4" r="3.4" fill="#ff6600" fill-opacity="0.49" filter="url(#glowr1x2543)"/><circle cx="741.0" cy="181.7" r="3.1" fill="#ff6600" fill-opacity="0.85" filter="url(#glowr1x2543)"/><circle cx="259.1" cy="208.1" r="3.4" fill="#ff6600" fill-opacity="0.48" filter="url(#glowr1x2543)"/><circle cx="489.1" cy="222.1" r="3.6" fill="#ff6600" fill-opacity="0.86" filter="url(#glowr1x2543)"/><circle cx="331.3" cy="580.4" r="2.1" fill="#ff6600" fill-opacity="0.83" filter="url(#glowr1x2543)"/><circle cx="438.4" cy="774.3" r="1.9" fill="#ff6600" fill-opacity="0.86" filter="url(#glowr1x2543)"/><polygon points="398.3,663.9 489.4,660.7 481.4,876.5 385.7,878.9" fill="url(#suitr1x2543)" stroke="#c0c0d0" stroke-width="2.2" filter="url(#skr1x2543) url(#metalr1x2543)"/><polygon points="397.4,662.3 489.3,662.2 482.3,878.3 387.5,875.8" fill="url(#carbonr1x2543)"/><polygon points="393.4,725.0 494.5,722.8 485.1,787.0 385.1,789.9" fill="url(#bevelr1x2543)" fill-opacity=".5" stroke="#c0c0d0" stroke-width="1.4" filter="url(#skr1x2543)"/><polygon points="512.2,663.5 602.2,662.7 611.7,878.0 518.3,876.0" fill="url(#suitr1x2543)" stroke="#c0c0d0" stroke-width="2.2" filter="url(#skr1x2543) url(#metalr1x2543)"/><polygon points="511.5,664.1 601.5,663.3 612.2,879.3 518.0,877.7" fill="url(#carbonr1x2543)"/><polygon points="507.1,725.3 608.3,725.0 615.9,788.7 515.4,787.6" fill="url(#bevelr1x2543)" fill-opacity=".5" stroke="#c0c0d0" stroke-width="1.4" filter="url(#skr1x2543)"/><rect x="392.6" y="838.0" width="100.3" height="24.7" fill="url(#bevelr1x2543)" stroke="#c0c0d0" stroke-width="1" filter="url(#skr1x2543)"/><rect x="505.3"  y="839.7" width="100.3" height="24.7" fill="url(#bevelr1x2543)" stroke="#c0c0d0" stroke-width="1" filter="url(#skr1x2543)"/><polygon points="371.2,876.3 495.9,878.3 505.3,920.0 364.3,919.8" fill="#2c2c3c" stroke="#c0c0d0" stroke-width="2" filter="url(#skr1x2543)"/><polygon points="503.9,877.8 631.7,875.9 638.7,920.4 494.8,921.0" fill="#2c2c3c" stroke="#c0c0d0" stroke-width="2" filter="url(#skr1x2543)"/><polygon points="303.2,632.2 694.4,634.8 636.3,680.9 360.5,681.1" fill="#c0c0d0" fill-opacity=".52" stroke="#c0c0d0" stroke-width="2" filter="url(#skr1x2543)"/><rect x="463.3" y="637.5" width="72.0" height="42.0" fill="url(#bevelr1x2543)" stroke="#c0c0d0" stroke-width="1.4" filter="url(#glowr1x2543)"/><rect x="487.2" y="642.2" width="28.0" height="22.0" rx="1" fill="rgba(255,255,255,.48)"/><polygon points="152.9,465.1 233.3,467.2 256.4,735.3 128.6,736.0" fill="url(#suitr1x2543)" stroke="#c0c0d0" stroke-width="2.2" filter="url(#skr1x2543) url(#metalr1x2543)"/><polygon points="172.8,433.2 253.0,430.5 243.5,509.1 158.0,509.7" fill="url(#bevelr1x2543)" fill-opacity=".72" stroke="#c0c0d0" stroke-width="2.2" filter="url(#skr1x2543)"/><polygon points="161.6,622.4 243.2,621.9 237.4,661.3 165.3,662.7" fill="#c0c0d0" fill-opacity=".42" stroke="#c0c0d0" stroke-width="1" filter="url(#skr1x2543)"/><polygon points="766.1,467.9 848.6,467.9 871.6,735.4 741.0,736.4" fill="url(#suitr1x2543)" stroke="#c0c0d0" stroke-width="2.2" filter="url(#skr1x2543) url(#metalr1x2543)"/><polygon points="745.7,432.8 826.6,433.2 840.3,511.0 757.6,510.8" fill="url(#bevelr1x2543)" fill-opacity=".72" stroke="#c0c0d0" stroke-width="2.2" filter="url(#skr1x2543)"/><polygon points="757.2,623.6 837.2,620.9 835.6,662.1 761.6,660.9" fill="#c0c0d0" fill-opacity=".42" stroke="#c0c0d0" stroke-width="1" filter="url(#skr1x2543)"/><rect x="119.9"  y="700.5" width="135.3" height="85.0" rx="4" fill="url(#bevelr1x2543)" stroke="#c0c0d0" stroke-width="1.8" filter="url(#skr1x2543)"/><rect x="749.0"   y="700.1" width="135.3" height="85.0" rx="4" fill="url(#bevelr1x2543)" stroke="#c0c0d0" stroke-width="1.8" filter="url(#skr1x2543)"/><line x1="150.2" y1="702.6" x2="148.8" y2="785.6" stroke="#c0c0d0" stroke-opacity=".38" stroke-width="1"/><line x1="779.8" y1="703.5" x2="777.8" y2="783.4" stroke="#c0c0d0" stroke-opacity=".38" stroke-width="1"/><line x1="183.8" y1="701.7" x2="183.9" y2="782.2" stroke="#c0c0d0" stroke-opacity=".38" stroke-width="1"/><line x1="810.5" y1="701.2" x2="811.1" y2="784.8" stroke="#c0c0d0" stroke-opacity=".38" stroke-width="1"/><line x1="216.9" y1="700.8" x2="215.7" y2="783.0" stroke="#c0c0d0" stroke-opacity=".38" stroke-width="1"/><line x1="842.4" y1="701.2" x2="843.6" y2="783.2" stroke="#c0c0d0" stroke-opacity=".38" stroke-width="1"/><polygon points="236.8,418.4 763.7,418.2 721.8,661.0 277.3,661.0" fill="url(#suitr1x2543)" stroke="#c0c0d0" stroke-width="2.6" filter="url(#skr1x2543) url(#metalr1x2543)"/><polygon points="234.2,417.7 764.0,418.4 722.7,661.9 276.2,661.9" fill="url(#carbonr1x2543)"/><polygon points="369.1,416.1 633.0,418.8 610.8,516.0 388.3,517.1" fill="url(#suitHir1x2543)"/><line x1="361.5" y1="471.9" x2="636.6" y2="473.0" stroke="#c0c0d0" stroke-opacity=".52" stroke-width="1.3" filter="url(#skr1x2543)"/><line x1="398.6" y1="550.5" x2="601.7" y2="550.9" stroke="#c0c0d0" stroke-opacity=".52" stroke-width="1.3" filter="url(#skr1x2543)"/><line x1="265.1" y1="490.0" x2="320.5" y2="490.4" stroke="#c0c0d0" stroke-opacity=".62" stroke-width="1.8"/><line x1="679.4" y1="492.2" x2="731.7" y2="489.7" stroke="#c0c0d0" stroke-opacity=".62" stroke-width="1.8"/><line x1="268.6" y1="523.7" x2="321.2" y2="522.2" stroke="#c0c0d0" stroke-opacity=".62" stroke-width="1.8"/><line x1="679.7" y1="522.6" x2="734.3" y2="524.3" stroke="#c0c0d0" stroke-opacity=".62" stroke-width="1.8"/><line x1="265.5" y1="553.3" x2="319.6" y2="554.6" stroke="#c0c0d0" stroke-opacity=".62" stroke-width="1.8"/><line x1="678.5" y1="555.5" x2="733.9" y2="554.3" stroke="#c0c0d0" stroke-opacity=".62" stroke-width="1.8"/><line x1="268.0" y1="586.5" x2="319.0" y2="586.0" stroke="#c0c0d0" stroke-opacity=".62" stroke-width="1.8"/><line x1="680.8" y1="585.8" x2="732.7" y2="585.8" stroke="#c0c0d0" stroke-opacity=".62" stroke-width="1.8"/><g filter="url(#glowr1x2543)"><polygon points="498.6,451.2 513.5,488.3 553.8,492.8 525.3,518.6 532.8,559.3 499.9,534.7 466.2,556.1 477.1,518.3 446.4,492.7 486.7,488.6 " fill="#c0c0d0" stroke="#050d14" stroke-width="1.4" filter="url(#skr1x2543)"/><polygon points="498.6,451.2 513.5,488.3 553.8,492.8 525.3,518.6 532.8,559.3 499.9,534.7 466.2,556.1 477.1,518.3 446.4,492.7 486.7,488.6 " fill="url(#suitHir1x2543)" opacity=".45"/></g><g><polygon points="871.8,671.4 923.8,671.4 908.2,-28.6 887.4,-28.6" fill="url(#blader1x2543)" filter="url(#wmr1x2543)"/><polygon points="887.4,-28.6 908.2,-28.6 897.8,-138.6" fill="url(#blader1x2543)" filter="url(#wmr1x2543)"/><polygon points="896.0,671.4 899.7,671.4 898.4,-128.6 897.3,-128.6" fill="url(#bladeTipr1x2543)" opacity=".9"/><line x1="906.2320683695376" y1="671.0915913789532" x2="898.0405418470688" y2="-128.42469041226434" stroke="rgba(255,255,255,.68)" stroke-width="1.5"/><line x1="887.6954013454914" y1="671.6463241098448" x2="898.1646497596056" y2="-129.20367108024658" stroke="#c0c0d0" stroke-width="1" stroke-opacity=".45"/><line x1="902.5" y1="651.4" x2="899.7" y2="11.4" stroke="rgba(0,0,0,.38)" stroke-width="1.6"/><line x1="893.2" y1="651.4" x2="896.0" y2="11.4" stroke="rgba(0,0,0,.38)" stroke-width="1.6"/><rect x="842.348517935127" y="668.2370124042965" width="112.0" height="28.0" rx="3" fill="url(#bevelr1x2543)" stroke="#c0c0d0" stroke-width="1.6" filter="url(#wmr1x2543)"/><rect x="867.1018980303407" y="675.0681225142441" width="64.0" height="10.0" rx="1" fill="rgba(255,255,255,.32)"/><rect x="884.8810052058287" y="677.8826267852447" width="24.0" height="6.0" rx="1" fill="#c0c0d0" fill-opacity=".35"/><rect x="884.395923880823" y="684.6421186392196" width="24.0" height="6.0" rx="1" fill="#c0c0d0" fill-opacity=".35"/><rect x="886.4596489666588" y="692.7288441168145" width="24.0" height="6.0" rx="1" fill="#c0c0d0" fill-opacity=".35"/><rect x="884.21137999814" y="703.0804032663815" width="24.0" height="6.0" rx="1" fill="#c0c0d0" fill-opacity=".35"/><rect x="887.5584560456314" y="710.9181956158951" width="24.0" height="6.0" rx="1" fill="#c0c0d0" fill-opacity=".35"/><rect x="885.9776520110295" y="715.8189980401658" width="24.0" height="6.0" rx="1" fill="#c0c0d0" fill-opacity=".35"/><ellipse cx="897.2919149850123" cy="725.0266995388083" rx="22.0" ry="16.0" fill="url(#bevelr1x2543)" stroke="#c0c0d0" stroke-width="1.2" filter="url(#wmr1x2543)"/></g><rect x="449.5675498134457" y="556.3573958352208" width="100.0"  height="56.0" fill="#2c2c3c" stroke="#c0c0d0" stroke-width="2.2" filter="url(#skr1x2543)"/><rect x="425.6773859128356" y="574.9055650170893" width="152.0" height="26.0" fill="url(#bevelr1x2543)" fill-opacity=".65" stroke="#c0c0d0" stroke-width="1.2" filter="url(#skr1x2543)"/><polygon points="309.8,379.1 349.1,296.0 500.9,279.2 648.6,294.4 690.7,382.0 670.1,503.7 501.4,564.2 332.1,503.7" fill="url(#suitr1x2543)" stroke="#c0c0d0" stroke-width="2.8" filter="url(#skr1x2543) url(#metalr1x2543)"/><polygon points="309.0,379.1 348.7,294.5 498.5,278.4 650.0,293.1 690.6,380.6 670.0,505.1 498.3,564.2 332.3,502.6" fill="url(#carbonr1x2543)"/><polygon points="382.0,301.0 501.1,287.0 618.1,303.5 608.8,378.9 393.6,380.0" fill="url(#suitHir1x2543)"/><polygon points="379.2,380.0 364.0,425.0 432.0,502.1 500.2,528.7 566.6,504.6 634.3,424.9 619.9,380.9" fill="#050d14" fill-opacity=".88" stroke="#c0c0d0" stroke-width="1.8" filter="url(#skr1x2543)"/><polygon points="382.1,413.0 478.6,410.4 483.1,441.8 388.9,438.8" fill="#c0c0d0" filter="url(#glowr1x2543)"/><polygon points="524.2,411.6 620.3,410.4 609.8,441.0 514.4,439.0" fill="#c0c0d0" filter="url(#glowr1x2543)"/><ellipse cx="430.9" cy="425.7" rx="38.4"  ry="8.2" fill="#ffffff" opacity=".88"/><ellipse cx="569.1" cy="425.7" rx="38.4"  ry="8.2" fill="#ffffff" opacity=".88"/><line x1="483.3625316474214" y1="411.9858997249044" x2="513.7282180307806" y2="415.14752438943833" stroke="#c0c0d0" stroke-opacity=".52" stroke-width="2"/><line x1="483.59681098420174" y1="439.55966033181176" x2="516.6518713774532" y2="436.7913817022927" stroke="#c0c0d0" stroke-opacity=".52" stroke-width="2"/><line x1="501.0481121417135" y1="454.8553590946831" x2="500.4704675497487" y2="483.017098487448" stroke="#c0c0d0" stroke-opacity=".58" stroke-width="2.2" filter="url(#skr1x2543)"/><line x1="452.6939791982807" y1="492.39811822231854" x2="453.46483401179313" y2="519.1844470676035" stroke="#c0c0d0" stroke-opacity=".52" stroke-width="1.5" filter="url(#skr1x2543)"/><line x1="477.194117794875" y1="492.3632967363111" x2="477.98634360659867" y2="519.4452221618965" stroke="#c0c0d0" stroke-opacity=".52" stroke-width="1.5" filter="url(#skr1x2543)"/><line x1="500.29409839306027" y1="491.7783068696968" x2="500.7571517798118" y2="521.405286885798" stroke="#c0c0d0" stroke-opacity=".52" stroke-width="1.5" filter="url(#skr1x2543)"/><line x1="523.2447995043918" y1="490.8462901520542" x2="524.8052393020689" y2="519.6439290796407" stroke="#c0c0d0" stroke-opacity=".52" stroke-width="1.5" filter="url(#skr1x2543)"/><line x1="546.8992349784077" y1="489.87129959119477" x2="546.2093282665313" y2="520.0276693521998" stroke="#c0c0d0" stroke-opacity=".52" stroke-width="1.5" filter="url(#skr1x2543)"/><polygon points="433.2,504.0 566.1,502.0 555.0,557.5 446.4,555.7" fill="#2c2c3c" fill-opacity=".72" stroke="#c0c0d0" stroke-width="1.3" filter="url(#skr1x2543)"/><text x="30.0"  y="975.0" font-family="monospace" font-weight="bold" font-size="22.0" fill="rgba(255,255,255,.22)">#0001</text><text x="500.0"   y="975.0" text-anchor="middle" font-family="monospace" font-weight="bold" font-size="22.0" fill="#c0c0d0" fill-opacity=".48">CHROME RANGER</text><text x="970.0" y="975.0" text-anchor="end"    font-family="monospace" font-weight="bold" font-size="22.0" fill="#c0c0d0" fill-opacity=".32">MECH RANGERS</text></svg>