<svg xmlns="http://www.w3.org/2000/svg" viewBox="0 0 1000 1000" width="1000" height="1000" shape-rendering="geometricPrecision"><defs>

  <!-- Scene gradients -->
  <radialGradient id="bgr1x2596" cx="50%" cy="42%" r="72%">
    <stop offset="0%"   stop-color="#0a1420"/>
    <stop offset="100%" stop-color="#050d14"/>
  </radialGradient>
  <linearGradient id="suitr1x2596" x1="8%" y1="0%" x2="92%" y2="100%">
    <stop offset="0%"   stop-color="#00ff60" stop-opacity=".95"/>
    <stop offset="45%"  stop-color="#00441e"/>
    <stop offset="100%" stop-color="#050d14"/>
  </linearGradient>
  <linearGradient id="suitHir1x2596" x1="0%" y1="0%" x2="0%" y2="100%">
    <stop offset="0%"   stop-color="rgba(255,255,255,.28)"/>
    <stop offset="60%"  stop-color="rgba(255,255,255,.04)"/>
    <stop offset="100%" stop-color="rgba(255,255,255,0)"/>
  </linearGradient>
  <!-- Bevel: bright top, dark bottom for armour panels -->
  <linearGradient id="bevelr1x2596" x1="0%" y1="0%" x2="0%" y2="100%">
    <stop offset="0%"   stop-color="rgba(255,255,255,.55)"/>
    <stop offset="30%"  stop-color="#00ff60"/>
    <stop offset="70%"  stop-color="#00441e"/>
    <stop offset="100%" stop-color="rgba(0,0,0,.5)"/>
  </linearGradient>

  <!-- Weapon: cold steel blade sweep -->
  <linearGradient id="blader1x2596" x1="0%" y1="0%" x2="100%" y2="0%">
    <stop offset="0%"   stop-color="#0e0e20"/>
    <stop offset="16%"  stop-color="#3e3e58"/>
    <stop offset="34%"  stop-color="#c8c8e0"/>
    <stop offset="50%"  stop-color="#f5f5ff"/>
    <stop offset="66%"  stop-color="#b8b8d0"/>
    <stop offset="84%"  stop-color="#2e2e48"/>
    <stop offset="100%" stop-color="#08080e"/>
  </linearGradient>
  <!-- Blade tip brightening -->
  <linearGradient id="bladeTipr1x2596" x1="0%" y1="100%" x2="0%" y2="0%">
    <stop offset="0%"   stop-color="rgba(255,255,255,0)"/>
    <stop offset="55%"  stop-color="rgba(255,255,255,.1)"/>
    <stop offset="100%" stop-color="rgba(255,255,255,.55)"/>
  </linearGradient>
  <!-- Gunmetal anodised — blaster body -->
  <linearGradient id="gunmetalr1x2596" x1="0%" y1="0%" x2="0%" y2="100%">
    <stop offset="0%"   stop-color="#46465e"/>
    <stop offset="18%"  stop-color="#828296"/>
    <stop offset="42%"  stop-color="#26263a"/>
    <stop offset="72%"  stop-color="#16162a"/>
    <stop offset="100%" stop-color="#0c0c18"/>
  </linearGradient>
  <!-- Brushed steel tube — barrel/rod -->
  <linearGradient id="barrelr1x2596" x1="0%" y1="0%" x2="100%" y2="0%">
    <stop offset="0%"   stop-color="#0a0a14"/>
    <stop offset="24%"  stop-color="#585875"/>
    <stop offset="50%"  stop-color="#a8a8c8"/>
    <stop offset="76%"  stop-color="#383852"/>
    <stop offset="100%" stop-color="#0a0a14"/>
  </linearGradient>
  <!-- Chrome rod — lance shaft -->
  <linearGradient id="chromer1x2596" x1="0%" y1="0%" x2="100%" y2="0%">
    <stop offset="0%"   stop-color="#0c0c18"/>
    <stop offset="20%"  stop-color="#686888"/>
    <stop offset="44%"  stop-color="#e0e0f0"/>
    <stop offset="56%"  stop-color="#c0c0d8"/>
    <stop offset="80%"  stop-color="#28283e"/>
    <stop offset="100%" stop-color="#0c0c18"/>
  </linearGradient>
  <!-- Titanium plate — shield face -->
  <linearGradient id="titaniumr1x2596" x1="0%" y1="0%" x2="100%" y2="100%">
    <stop offset="0%"   stop-color="#585878"/>
    <stop offset="28%"  stop-color="#00ff60" stop-opacity=".88"/>
    <stop offset="55%"  stop-color="#00441e"/>
    <stop offset="80%"  stop-color="#181828"/>
    <stop offset="100%" stop-color="#0a0a18"/>
  </linearGradient>
  <!-- Artillery black-chrome — cannon body -->
  <linearGradient id="artilleryr1x2596" x1="0%" y1="0%" x2="0%" y2="100%">
    <stop offset="0%"   stop-color="#383850"/>
    <stop offset="14%"  stop-color="#78789a"/>
    <stop offset="36%"  stop-color="#202034"/>
    <stop offset="65%"  stop-color="#14141e"/>
    <stop offset="100%" stop-color="#0a0a12"/>
  </linearGradient>
  <!-- Energy orb — staff -->
  <radialGradient id="orbr1x2596" cx="35%" cy="35%" r="65%">
    <stop offset="0%"   stop-color="rgba(255,255,255,.9)"/>
    <stop offset="30%"  stop-color="#00ff60"/>
    <stop offset="68%"  stop-color="#00441e"/>
    <stop offset="100%" stop-color="rgba(0,0,0,.6)"/>
  </radialGradient>
  <!-- Knuckle plate chrome -->
  <linearGradient id="knuckler1x2596" x1="0%" y1="0%" x2="0%" y2="100%">
    <stop offset="0%"   stop-color="#888aaa"/>
    <stop offset="32%"  stop-color="#00ff60" stop-opacity=".8"/>
    <stop offset="62%"  stop-color="#1a1a2c"/>
    <stop offset="100%" stop-color="#0a0a14"/>
  </linearGradient>

  <!-- Carbon fibre weave texture overlay -->
  <pattern id="carbonr1x2596" width="6" height="6" patternUnits="userSpaceOnUse">
    <rect width="6" height="6" fill="rgba(0,0,0,.08)"/>
    <rect x="0" y="0" width="3" height="3" fill="rgba(255,255,255,.022)"/>
    <rect x="3" y="3" width="3" height="3" fill="rgba(255,255,255,.022)"/>
    <line x1="0" y1="0" x2="3" y2="3" stroke="rgba(255,255,255,.038)" stroke-width=".5"/>
    <line x1="3" y1="0" x2="6" y2="3" stroke="rgba(0,0,0,.055)"       stroke-width=".5"/>
    <line x1="0" y1="3" x2="3" y2="6" stroke="rgba(0,0,0,.055)"       stroke-width=".5"/>
    <line x1="3" y1="3" x2="6" y2="6" stroke="rgba(255,255,255,.038)" stroke-width=".5"/>
  </pattern>

  <!-- Specular metal sheen on armour panels -->
  <filter id="metalr1x2596" x="-5%" y="-5%" width="110%" height="110%">
    <feSpecularLighting surfaceScale="4" specularConstant="1.8"
        specularExponent="42" lighting-color="#ffffff" result="spec">
      <feDistantLight elevation="52" azimuth="38"/>
    </feSpecularLighting>
    <feComposite in="spec" in2="SourceGraphic" operator="in" result="sm"/>
    <feComposite in="SourceGraphic" in2="sm" operator="arithmetic" k1="0" k2="1" k3="0.55" k4="0"/>
  </filter>

  <!-- Sharper specular for weapons — heavier glare -->
  <filter id="wmr1x2596" x="-8%" y="-8%" width="116%" height="116%">
    <feSpecularLighting surfaceScale="6" specularConstant="2.4"
        specularExponent="65" lighting-color="#ffffff" result="spec">
      <feDistantLight elevation="44" azimuth="28"/>
    </feSpecularLighting>
    <feComposite in="spec" in2="SourceGraphic" operator="in" result="sm"/>
    <feComposite in="SourceGraphic" in2="sm" operator="arithmetic" k1="0" k2="1" k3="0.78" k4="0"/>
  </filter>

  <!-- Sketch wobble -->
  <filter id="skr1x2596" x="-8%" y="-8%" width="116%" height="116%">
    <feTurbulence type="fractalNoise" baseFrequency="0.038"
        numOctaves="3" seed="65" result="noise"/>
    <feDisplacementMap in="SourceGraphic" in2="noise" scale="2.6"
        xChannelSelector="R" yChannelSelector="G" result="w"/>
    <feComposite in="w" in2="SourceGraphic" operator="atop"/>
  </filter>

  <!-- Glow: sharp accent -->
  <filter id="glowr1x2596" x="-20%" y="-20%" width="140%" height="140%">
    <feGaussianBlur stdDeviation="3.5" result="b"/>
    <feColorMatrix in="b" type="matrix"
        values="0 0 0 0 1  0 0 0 0 1  0 0 0 0 1  0 0 0 1.8 0" result="boost"/>
    <feMerge><feMergeNode in="boost"/><feMergeNode in="SourceGraphic"/></feMerge>
  </filter>

  <!-- Bloom: wide soft -->
  <filter id="bloomr1x2596" x="-40%" y="-40%" width="180%" height="180%">
    <feGaussianBlur stdDeviation="11" result="b"/>
    <feMerge><feMergeNode in="b"/><feMergeNode in="SourceGraphic"/></feMerge>
  </filter>

  </defs><rect width="1000" height="1000" fill="url(#bgr1x2596)"/><polygon points="400.0495402608067,306.1065744282678 426.1964353155345,269.3342946590856 446.7102142497897,300.0238475622609" fill="#00ff60" fill-opacity=".055" stroke="#00ff60" stroke-opacity=".1" stroke-width="1"/><polygon points="645.9984323196113,377.5807139603421 669.6579753588885,335.43609544448555 694.4796091765165,378.30228896345943" fill="#00ff60" fill-opacity=".055" stroke="#00ff60" stroke-opacity=".1" stroke-width="1"/><polygon points="694.378346730955,191.60075137391686 711.4189945282415,159.0690345717594 725.5167870763689,205.75892617926002" fill="#00ff60" fill-opacity=".055" stroke="#00ff60" stroke-opacity=".1" stroke-width="1"/><polygon points="447.5141284056008,387.2778276260942 468.70808949973434,332.8439895650372 493.69300014153123,382.85980011802167" fill="#00ff60" fill-opacity=".055" stroke="#00ff60" stroke-opacity=".1" stroke-width="1"/><polygon points="92.09543643984944,449.7851637052372 112.56431535165757,407.4325552051887 135.7975489348173,455.744101786986" fill="#00ff60" fill-opacity=".055" stroke="#00ff60" stroke-opacity=".1" stroke-width="1"/><polygon points="337.5141673674807,27.841771198436618 367.40807308163494,-14.094470261596143 387.76049469411373,11.235558148473501" fill="#00ff60" fill-opacity=".055" stroke="#00ff60" stroke-opacity=".1" stroke-width="1"/><polygon points="888.9917888166383,284.5161672215909 901.2526798415929,262.26397759560496 931.5712445164099,300.61746653635055" fill="#00ff60" fill-opacity=".055" stroke="#00ff60" stroke-opacity=".1" stroke-width="1"/><polygon points="891.5661904076114,172.82670897431672 906.4287117850035,132.8789293607697 929.912160679698,167.82121546100825" fill="#00ff60" fill-opacity=".055" stroke="#00ff60" stroke-opacity=".1" stroke-width="1"/><ellipse cx="500.0" cy="892.0" rx="350.0" ry="65.0" fill="rgba(0,0,0,.7)" filter="url(#bloomr1x2596)"/><ellipse cx="500.0" cy="889.0" rx="220.0" ry="34.0" fill="rgba(0,0,0,.45)"/><ellipse cx="500.0" cy="520.0" rx="320.0" ry="480.0" fill="#00e5ff" fill-opacity=".042" filter="url(#bloomr1x2596)"/><circle cx="514.0" cy="446.4" r="3.6" fill="#00e5ff" fill-opacity="0.58" filter="url(#glowr1x2596)"/><circle cx="605.4" cy="735.7" r="2.0" fill="#00e5ff" fill-opacity="0.82" filter="url(#glowr1x2596)"/><circle cx="536.1" cy="538.4" r="3.9" fill="#00e5ff" fill-opacity="0.81" filter="url(#glowr1x2596)"/><circle cx="424.4" cy="470.9" r="1.1" fill="#00e5ff" fill-opacity="0.61" filter="url(#glowr1x2596)"/><circle cx="596.7" cy="271.3" r="2.9" fill="#00e5ff" fill-opacity="0.46" filter="url(#glowr1x2596)"/><circle cx="364.1" cy="382.0" r="1.8" fill="#00e5ff" fill-opacity="0.52" filter="url(#glowr1x2596)"/><circle cx="293.2" cy="462.9" r="1.0" fill="#00e5ff" fill-opacity="0.77" filter="url(#glowr1x2596)"/><circle cx="606.1" cy="660.4" r="2.1" fill="#00e5ff" fill-opacity="0.43" filter="url(#glowr1x2596)"/><circle cx="288.8" cy="258.8" r="3.5" fill="#00e5ff" fill-opacity="0.52" filter="url(#glowr1x2596)"/><circle cx="457.4" cy="748.9" r="2.4" fill="#00e5ff" fill-opacity="0.75" filter="url(#glowr1x2596)"/><circle cx="255.3" cy="325.6" r="3.8" fill="#00e5ff" fill-opacity="0.69" filter="url(#glowr1x2596)"/><circle cx="527.0" cy="513.8" r="3.9" fill="#00e5ff" fill-opacity="0.78" filter="url(#glowr1x2596)"/><circle cx="301.5" cy="596.2" r="2.5" fill="#00e5ff" fill-opacity="0.70" filter="url(#glowr1x2596)"/><circle cx="523.8" cy="549.3" r="2.3" fill="#00e5ff" fill-opacity="0.45" filter="url(#glowr1x2596)"/><path d="M420.7,156.3 Q441.1,470.1 292.5,748.9" stroke="#00e5ff" stroke-opacity="0.75" stroke-width="2.3" fill="none" filter="url(#glowr1x2596)"/><path d="M696.4,326.5 Q659.5,587.0 474.0,863.7" stroke="#00e5ff" stroke-opacity="0.62" stroke-width="2.0" fill="none" filter="url(#glowr1x2596)"/><path d="M658.3,368.5 Q663.7,545.8 462.9,706.6" stroke="#00e5ff" stroke-opacity="0.41" stroke-width="1.1" fill="none" filter="url(#glowr1x2596)"/><path d="M697.8,268.1 Q726.2,480.0 344.3,733.4" stroke="#00e5ff" stroke-opacity="0.40" stroke-width="2.4" fill="none" filter="url(#glowr1x2596)"/><path d="M492.9,241.5 Q486.7,551.7 690.0,866.2" stroke="#00e5ff" stroke-opacity="0.62" stroke-width="2.5" fill="none" filter="url(#glowr1x2596)"/><polygon points="398.9,661.1 491.1,662.2 481.9,877.7 388.6,876.2" fill="url(#suitr1x2596)" stroke="#00ff60" stroke-width="2.2" filter="url(#skr1x2596) url(#metalr1x2596)"/><polygon points="398.2,663.6 487.8,660.9 480.1,875.9 387.2,878.9" fill="url(#carbonr1x2596)"/><polygon points="392.6,725.5 492.0,723.3 483.9,788.4 384.2,786.9" fill="url(#bevelr1x2596)" fill-opacity=".5" stroke="#00ff60" stroke-width="1.4" filter="url(#skr1x2596)"/><polygon points="509.7,662.9 602.6,662.3 613.3,876.0 519.8,876.6" fill="url(#suitr1x2596)" stroke="#00ff60" stroke-width="2.2" filter="url(#skr1x2596) url(#metalr1x2596)"/><polygon points="509.5,663.0 599.7,662.7 612.5,875.9 517.9,878.9" fill="url(#carbonr1x2596)"/><polygon points="506.2,722.7 608.5,724.6 616.0,789.0 514.2,787.3" fill="url(#bevelr1x2596)" fill-opacity=".5" stroke="#00ff60" stroke-width="1.4" filter="url(#skr1x2596)"/><rect x="393.0" y="838.1" width="100.3" height="24.7" fill="url(#bevelr1x2596)" stroke="#00ff60" stroke-width="1" filter="url(#skr1x2596)"/><rect x="507.6"  y="837.7" width="100.3" height="24.7" fill="url(#bevelr1x2596)" stroke="#00ff60" stroke-width="1" filter="url(#skr1x2596)"/><polygon points="371.4,878.5 496.1,877.0 502.7,920.6 362.8,920.2" fill="#00441e" stroke="#00ff60" stroke-width="2" filter="url(#skr1x2596)"/><polygon points="503.1,879.0 630.8,877.7 637.5,920.6 495.2,922.1" fill="#00441e" stroke="#00ff60" stroke-width="2" filter="url(#skr1x2596)"/><polygon points="302.1,634.0 696.1,632.0 637.2,683.8 361.3,683.5" fill="#00ff60" fill-opacity=".52" stroke="#00ff60" stroke-width="2" filter="url(#skr1x2596)"/><rect x="465.7" y="639.3" width="72.0" height="42.0" fill="url(#bevelr1x2596)" stroke="#00ff60" stroke-width="1.4" filter="url(#glowr1x2596)"/><rect x="485.0" y="639.6" width="28.0" height="22.0" rx="1" fill="rgba(255,255,255,.48)"/><polygon points="151.9,467.2 236.5,465.8 256.7,736.4 128.8,734.0" fill="url(#suitr1x2596)" stroke="#00ff60" stroke-width="2.2" filter="url(#skr1x2596) url(#metalr1x2596)"/><polygon points="172.8,431.9 254.5,432.3 244.6,512.0 158.2,509.1" fill="url(#bevelr1x2596)" fill-opacity=".72" stroke="#00ff60" stroke-width="2.2" filter="url(#skr1x2596)"/><polygon points="160.7,623.3 243.8,622.7 240.4,660.1 164.4,661.6" fill="#00ff60" fill-opacity=".42" stroke="#00ff60" stroke-width="1" filter="url(#skr1x2596)"/><polygon points="765.1,467.8 847.9,465.4 871.3,734.7 741.6,734.1" fill="url(#suitr1x2596)" stroke="#00ff60" stroke-width="2.2" filter="url(#skr1x2596) url(#metalr1x2596)"/><polygon points="745.8,431.7 825.9,433.3 841.2,511.3 755.6,510.4" fill="url(#bevelr1x2596)" fill-opacity=".72" stroke="#00ff60" stroke-width="2.2" filter="url(#skr1x2596)"/><polygon points="757.1,623.6 838.3,620.6 836.4,661.1 761.3,660.2" fill="#00ff60" fill-opacity=".42" stroke="#00ff60" stroke-width="1" filter="url(#skr1x2596)"/><rect x="119.8"  y="701.3" width="135.3" height="85.0" rx="4" fill="url(#bevelr1x2596)" stroke="#00ff60" stroke-width="1.8" filter="url(#skr1x2596)"/><rect x="750.0"   y="701.5" width="135.3" height="85.0" rx="4" fill="url(#bevelr1x2596)" stroke="#00ff60" stroke-width="1.8" filter="url(#skr1x2596)"/><line x1="150.3" y1="700.6" x2="148.6" y2="784.6" stroke="#00ff60" stroke-opacity=".38" stroke-width="1"/><line x1="778.1" y1="700.8" x2="779.4" y2="782.9" stroke="#00ff60" stroke-opacity=".38" stroke-width="1"/><line x1="180.9" y1="702.5" x2="181.5" y2="783.4" stroke="#00ff60" stroke-opacity=".38" stroke-width="1"/><line x1="810.7" y1="700.2" x2="811.8" y2="782.4" stroke="#00ff60" stroke-opacity=".38" stroke-width="1"/><line x1="214.7" y1="700.1" x2="214.8" y2="783.9" stroke="#00ff60" stroke-opacity=".38" stroke-width="1"/><line x1="842.3" y1="700.3" x2="845.1" y2="782.6" stroke="#00ff60" stroke-opacity=".38" stroke-width="1"/><polygon points="236.3,416.5 765.6,415.7 724.2,663.5 278.8,663.2" fill="url(#suitr1x2596)" stroke="#00ff60" stroke-width="2.6" filter="url(#skr1x2596) url(#metalr1x2596)"/><polygon points="233.5,417.2 764.4,417.9 722.5,661.6 277.8,664.3" fill="url(#carbonr1x2596)"/><polygon points="366.4,417.3 631.5,418.2 612.5,516.5 387.1,514.2" fill="url(#suitHir1x2596)"/><line x1="361.6" y1="472.6" x2="636.0" y2="470.6" stroke="#00ff60" stroke-opacity=".52" stroke-width="1.3" filter="url(#skr1x2596)"/><line x1="400.7" y1="548.9" x2="600.9" y2="551.0" stroke="#00ff60" stroke-opacity=".52" stroke-width="1.3" filter="url(#skr1x2596)"/><line x1="268.6" y1="489.8" x2="320.8" y2="492.2" stroke="#00ff60" stroke-opacity=".62" stroke-width="1.8"/><line x1="679.0" y1="491.5" x2="732.3" y2="490.2" stroke="#00ff60" stroke-opacity=".62" stroke-width="1.8"/><line x1="268.1" y1="523.9" x2="321.3" y2="523.4" stroke="#00ff60" stroke-opacity=".62" stroke-width="1.8"/><line x1="680.7" y1="522.5" x2="734.9" y2="523.3" stroke="#00ff60" stroke-opacity=".62" stroke-width="1.8"/><line x1="266.5" y1="553.6" x2="319.5" y2="555.8" stroke="#00ff60" stroke-opacity=".62" stroke-width="1.8"/><line x1="679.7" y1="554.0" x2="733.7" y2="554.9" stroke="#00ff60" stroke-opacity=".62" stroke-width="1.8"/><line x1="268.4" y1="588.0" x2="319.4" y2="586.6" stroke="#00ff60" stroke-opacity=".62" stroke-width="1.8"/><line x1="679.1" y1="586.0" x2="733.0" y2="587.5" stroke="#00ff60" stroke-opacity=".62" stroke-width="1.8"/><g filter="url(#glowr1x2596)"><polygon points="499.1,452.3 542.8,509.5 498.7,568.9 458.7,510.8" fill="#00ff60" stroke="#050d14" stroke-width="1.4" filter="url(#skr1x2596)"/><polygon points="501.3,450.8 542.5,509.1 500.8,569.8 459.7,511.6" fill="url(#suitHir1x2596)" opacity=".45"/></g><g><polygon points="76.2,671.4 128.2,671.4 112.6,-28.6 91.8,-28.6" fill="url(#blader1x2596)" filter="url(#wmr1x2596)"/><polygon points="91.8,-28.6 112.6,-28.6 102.2,-138.6" fill="url(#blader1x2596)" filter="url(#wmr1x2596)"/><polygon points="100.3,671.4 104.0,671.4 102.7,-128.6 101.6,-128.6" fill="url(#bladeTipr1x2596)" opacity=".9"/><line x1="109.95069189395753" y1="671.7344961597584" x2="101.40843621958045" y2="-128.83441727273168" stroke="rgba(255,255,255,.68)" stroke-width="1.5"/><line x1="92.2179549801163" y1="672.3742401760071" x2="101.52151071278375" y2="-127.7564948144369" stroke="#00ff60" stroke-width="1" stroke-opacity=".45"/><line x1="106.8" y1="651.4" x2="104.0" y2="11.4" stroke="rgba(0,0,0,.38)" stroke-width="1.6"/><line x1="97.5" y1="651.4" x2="100.3" y2="11.4" stroke="rgba(0,0,0,.38)" stroke-width="1.6"/><rect x="46.52205561766398" y="668.8807397448458" width="112.0" height="28.0" rx="3" fill="url(#bevelr1x2596)" stroke="#00ff60" stroke-width="1.6" filter="url(#wmr1x2596)"/><rect x="71.09922731103373" y="673.9912277795374" width="64.0" height="10.0" rx="1" fill="rgba(255,255,255,.32)"/><rect x="89.4964507517777" y="677.6977752389386" width="24.0" height="6.0" rx="1" fill="#00ff60" fill-opacity=".35"/><rect x="91.94378402730447" y="683.7704067418351" width="24.0" height="6.0" rx="1" fill="#00ff60" fill-opacity=".35"/><rect x="91.63914497945454" y="692.0535543275997" width="24.0" height="6.0" rx="1" fill="#00ff60" fill-opacity=".35"/><rect x="91.73008541105312" y="702.9057360668667" width="24.0" height="6.0" rx="1" fill="#00ff60" fill-opacity=".35"/><rect x="90.85033870678392" y="709.7759948735126" width="24.0" height="6.0" rx="1" fill="#00ff60" fill-opacity=".35"/><rect x="89.39642969150093" y="717.5407441269606" width="24.0" height="6.0" rx="1" fill="#00ff60" fill-opacity=".35"/><ellipse cx="100.86020054494959" cy="724.9335645020008" rx="22.0" ry="16.0" fill="url(#bevelr1x2596)" stroke="#00ff60" stroke-width="1.2" filter="url(#wmr1x2596)"/></g><rect x="450.0964016295969" y="557.8441420047544" width="100.0"  height="56.0" fill="#00441e" stroke="#00ff60" stroke-width="2.2" filter="url(#skr1x2596)"/><rect x="424.1035538639873" y="574.5548644592054" width="152.0" height="26.0" fill="url(#bevelr1x2596)" fill-opacity=".65" stroke="#00ff60" stroke-width="1.2" filter="url(#skr1x2596)"/><polygon points="309.0,380.6 350.9,292.9 501.3,278.8 649.5,294.0 691.9,380.7 668.6,505.3 501.6,564.4 332.2,503.0" fill="url(#suitr1x2596)" stroke="#00ff60" stroke-width="2.8" filter="url(#skr1x2596) url(#metalr1x2596)"/><polygon points="306.6,381.6 350.5,295.1 499.4,279.2 649.3,293.9 691.7,379.1 670.3,503.4 500.2,565.3 331.6,503.9" fill="url(#carbonr1x2596)"/><polygon points="380.7,303.4 501.5,285.5 620.0,302.3 606.5,379.4 392.1,379.1" fill="url(#suitHir1x2596)"/><polygon points="380.0,379.0 365.5,427.4 434.4,502.8 499.8,527.8 568.7,503.9 635.9,425.2 617.3,379.7" fill="#050d14" fill-opacity=".88" stroke="#00ff60" stroke-width="1.8" filter="url(#skr1x2596)"/><polygon points="379.7,412.8 477.6,412.9 485.7,438.3 389.3,439.8" fill="#00ff60" filter="url(#glowr1x2596)"/><polygon points="523.2,412.9 620.4,410.7 612.3,439.8 516.6,438.4" fill="#00ff60" filter="url(#glowr1x2596)"/><ellipse cx="430.9" cy="425.7" rx="38.4"  ry="8.2" fill="#ffffff" opacity=".88"/><ellipse cx="569.1" cy="425.7" rx="38.4"  ry="8.2" fill="#ffffff" opacity=".88"/><line x1="482.86350540207695" y1="414.58516701171175" x2="515.5723919437639" y2="414.46681231604884" stroke="#00ff60" stroke-opacity=".52" stroke-width="2"/><line x1="485.56185223177073" y1="437.81425866354255" x2="516.3268708075769" y2="436.50667729200796" stroke="#00ff60" stroke-opacity=".52" stroke-width="2"/><line x1="501.7928187323734" y1="455.00750501053403" x2="500.20019755624236" y2="482.0701623626985" stroke="#00ff60" stroke-opacity=".58" stroke-width="2.2" filter="url(#skr1x2596)"/><line x1="455.2884656805359" y1="491.0662911917083" x2="453.77277906162664" y2="520.1427879023365" stroke="#00ff60" stroke-opacity=".52" stroke-width="1.5" filter="url(#skr1x2596)"/><line x1="476.4307837638445" y1="489.64809535611414" x2="476.4570931380056" y2="518.8853341448121" stroke="#00ff60" stroke-opacity=".52" stroke-width="1.5" filter="url(#skr1x2596)"/><line x1="498.667784826085" y1="491.2494399250485" x2="499.35186224700885" y2="519.1034554387443" stroke="#00ff60" stroke-opacity=".52" stroke-width="1.5" filter="url(#skr1x2596)"/><line x1="521.3116560486703" y1="491.2601693017408" x2="521.5970428129285" y2="519.5209363173693" stroke="#00ff60" stroke-opacity=".52" stroke-width="1.5" filter="url(#skr1x2596)"/><line x1="546.4268127747067" y1="491.7251953761093" x2="544.7263401090354" y2="519.0626302905381" stroke="#00ff60" stroke-opacity=".52" stroke-width="1.5" filter="url(#skr1x2596)"/><polygon points="433.5,502.9 565.6,503.4 555.2,557.1 445.8,556.3" fill="#00441e" fill-opacity=".72" stroke="#00ff60" stroke-width="1.3" filter="url(#skr1x2596)"/><text x="30.0"  y="975.0" font-family="monospace" font-weight="bold" font-size="22.0" fill="rgba(255,255,255,.22)">#0001</text><text x="500.0"   y="975.0" text-anchor="middle" font-family="monospace" font-weight="bold" font-size="22.0" fill="#00ff60" fill-opacity=".48">VIPER RANGER</text><text x="970.0" y="975.0" text-anchor="end"    font-family="monospace" font-weight="bold" font-size="22.0" fill="#00ff60" fill-opacity=".32">MECH RANGERS</text></svg>