<svg xmlns="http://www.w3.org/2000/svg" viewBox="0 0 1000 1000" width="1000" height="1000" shape-rendering="geometricPrecision"><defs>

  <!-- Scene gradients -->
  <radialGradient id="bgr1x2743" cx="50%" cy="42%" r="72%">
    <stop offset="0%"   stop-color="#0a1420"/>
    <stop offset="100%" stop-color="#050d14"/>
  </radialGradient>
  <linearGradient id="suitr1x2743" x1="8%" y1="0%" x2="92%" y2="100%">
    <stop offset="0%"   stop-color="#ff00ff" stop-opacity=".95"/>
    <stop offset="45%"  stop-color="#050508"/>
    <stop offset="100%" stop-color="#050d14"/>
  </linearGradient>
  <linearGradient id="suitHir1x2743" x1="0%" y1="0%" x2="0%" y2="100%">
    <stop offset="0%"   stop-color="rgba(255,255,255,.28)"/>
    <stop offset="60%"  stop-color="rgba(255,255,255,.04)"/>
    <stop offset="100%" stop-color="rgba(255,255,255,0)"/>
  </linearGradient>
  <!-- Bevel: bright top, dark bottom for armour panels -->
  <linearGradient id="bevelr1x2743" x1="0%" y1="0%" x2="0%" y2="100%">
    <stop offset="0%"   stop-color="rgba(255,255,255,.55)"/>
    <stop offset="30%"  stop-color="#ff00ff"/>
    <stop offset="70%"  stop-color="#050508"/>
    <stop offset="100%" stop-color="rgba(0,0,0,.5)"/>
  </linearGradient>

  <!-- Weapon: cold steel blade sweep -->
  <linearGradient id="blader1x2743" x1="0%" y1="0%" x2="100%" y2="0%">
    <stop offset="0%"   stop-color="#0e0e20"/>
    <stop offset="16%"  stop-color="#3e3e58"/>
    <stop offset="34%"  stop-color="#c8c8e0"/>
    <stop offset="50%"  stop-color="#f5f5ff"/>
    <stop offset="66%"  stop-color="#b8b8d0"/>
    <stop offset="84%"  stop-color="#2e2e48"/>
    <stop offset="100%" stop-color="#08080e"/>
  </linearGradient>
  <!-- Blade tip brightening -->
  <linearGradient id="bladeTipr1x2743" x1="0%" y1="100%" x2="0%" y2="0%">
    <stop offset="0%"   stop-color="rgba(255,255,255,0)"/>
    <stop offset="55%"  stop-color="rgba(255,255,255,.1)"/>
    <stop offset="100%" stop-color="rgba(255,255,255,.55)"/>
  </linearGradient>
  <!-- Gunmetal anodised — blaster body -->
  <linearGradient id="gunmetalr1x2743" x1="0%" y1="0%" x2="0%" y2="100%">
    <stop offset="0%"   stop-color="#46465e"/>
    <stop offset="18%"  stop-color="#828296"/>
    <stop offset="42%"  stop-color="#26263a"/>
    <stop offset="72%"  stop-color="#16162a"/>
    <stop offset="100%" stop-color="#0c0c18"/>
  </linearGradient>
  <!-- Brushed steel tube — barrel/rod -->
  <linearGradient id="barrelr1x2743" x1="0%" y1="0%" x2="100%" y2="0%">
    <stop offset="0%"   stop-color="#0a0a14"/>
    <stop offset="24%"  stop-color="#585875"/>
    <stop offset="50%"  stop-color="#a8a8c8"/>
    <stop offset="76%"  stop-color="#383852"/>
    <stop offset="100%" stop-color="#0a0a14"/>
  </linearGradient>
  <!-- Chrome rod — lance shaft -->
  <linearGradient id="chromer1x2743" x1="0%" y1="0%" x2="100%" y2="0%">
    <stop offset="0%"   stop-color="#0c0c18"/>
    <stop offset="20%"  stop-color="#686888"/>
    <stop offset="44%"  stop-color="#e0e0f0"/>
    <stop offset="56%"  stop-color="#c0c0d8"/>
    <stop offset="80%"  stop-color="#28283e"/>
    <stop offset="100%" stop-color="#0c0c18"/>
  </linearGradient>
  <!-- Titanium plate — shield face -->
  <linearGradient id="titaniumr1x2743" x1="0%" y1="0%" x2="100%" y2="100%">
    <stop offset="0%"   stop-color="#585878"/>
    <stop offset="28%"  stop-color="#ff00ff" stop-opacity=".88"/>
    <stop offset="55%"  stop-color="#050508"/>
    <stop offset="80%"  stop-color="#181828"/>
    <stop offset="100%" stop-color="#0a0a18"/>
  </linearGradient>
  <!-- Artillery black-chrome — cannon body -->
  <linearGradient id="artilleryr1x2743" x1="0%" y1="0%" x2="0%" y2="100%">
    <stop offset="0%"   stop-color="#383850"/>
    <stop offset="14%"  stop-color="#78789a"/>
    <stop offset="36%"  stop-color="#202034"/>
    <stop offset="65%"  stop-color="#14141e"/>
    <stop offset="100%" stop-color="#0a0a12"/>
  </linearGradient>
  <!-- Energy orb — staff -->
  <radialGradient id="orbr1x2743" cx="35%" cy="35%" r="65%">
    <stop offset="0%"   stop-color="rgba(255,255,255,.9)"/>
    <stop offset="30%"  stop-color="#ff00ff"/>
    <stop offset="68%"  stop-color="#050508"/>
    <stop offset="100%" stop-color="rgba(0,0,0,.6)"/>
  </radialGradient>
  <!-- Knuckle plate chrome -->
  <linearGradient id="knuckler1x2743" x1="0%" y1="0%" x2="0%" y2="100%">
    <stop offset="0%"   stop-color="#888aaa"/>
    <stop offset="32%"  stop-color="#ff00ff" stop-opacity=".8"/>
    <stop offset="62%"  stop-color="#1a1a2c"/>
    <stop offset="100%" stop-color="#0a0a14"/>
  </linearGradient>

  <!-- Carbon fibre weave texture overlay -->
  <pattern id="carbonr1x2743" width="6" height="6" patternUnits="userSpaceOnUse">
    <rect width="6" height="6" fill="rgba(0,0,0,.08)"/>
    <rect x="0" y="0" width="3" height="3" fill="rgba(255,255,255,.022)"/>
    <rect x="3" y="3" width="3" height="3" fill="rgba(255,255,255,.022)"/>
    <line x1="0" y1="0" x2="3" y2="3" stroke="rgba(255,255,255,.038)" stroke-width=".5"/>
    <line x1="3" y1="0" x2="6" y2="3" stroke="rgba(0,0,0,.055)"       stroke-width=".5"/>
    <line x1="0" y1="3" x2="3" y2="6" stroke="rgba(0,0,0,.055)"       stroke-width=".5"/>
    <line x1="3" y1="3" x2="6" y2="6" stroke="rgba(255,255,255,.038)" stroke-width=".5"/>
  </pattern>

  <!-- Specular metal sheen on armour panels -->
  <filter id="metalr1x2743" x="-5%" y="-5%" width="110%" height="110%">
    <feSpecularLighting surfaceScale="4" specularConstant="1.8"
        specularExponent="42" lighting-color="#ffffff" result="spec">
      <feDistantLight elevation="52" azimuth="38"/>
    </feSpecularLighting>
    <feComposite in="spec" in2="SourceGraphic" operator="in" result="sm"/>
    <feComposite in="SourceGraphic" in2="sm" operator="arithmetic" k1="0" k2="1" k3="0.55" k4="0"/>
  </filter>

  <!-- Sharper specular for weapons — heavier glare -->
  <filter id="wmr1x2743" x="-8%" y="-8%" width="116%" height="116%">
    <feSpecularLighting surfaceScale="6" specularConstant="2.4"
        specularExponent="65" lighting-color="#ffffff" result="spec">
      <feDistantLight elevation="44" azimuth="28"/>
    </feSpecularLighting>
    <feComposite in="spec" in2="SourceGraphic" operator="in" result="sm"/>
    <feComposite in="SourceGraphic" in2="sm" operator="arithmetic" k1="0" k2="1" k3="0.78" k4="0"/>
  </filter>

  <!-- Sketch wobble -->
  <filter id="skr1x2743" x="-8%" y="-8%" width="116%" height="116%">
    <feTurbulence type="fractalNoise" baseFrequency="0.038"
        numOctaves="3" seed="73" result="noise"/>
    <feDisplacementMap in="SourceGraphic" in2="noise" scale="2.6"
        xChannelSelector="R" yChannelSelector="G" result="w"/>
    <feComposite in="w" in2="SourceGraphic" operator="atop"/>
  </filter>

  <!-- Glow: sharp accent -->
  <filter id="glowr1x2743" x="-20%" y="-20%" width="140%" height="140%">
    <feGaussianBlur stdDeviation="3.5" result="b"/>
    <feColorMatrix in="b" type="matrix"
        values="0 0 0 0 1  0 0 0 0 1  0 0 0 0 1  0 0 0 1.8 0" result="boost"/>
    <feMerge><feMergeNode in="boost"/><feMergeNode in="SourceGraphic"/></feMerge>
  </filter>

  <!-- Bloom: wide soft -->
  <filter id="bloomr1x2743" x="-40%" y="-40%" width="180%" height="180%">
    <feGaussianBlur stdDeviation="11" result="b"/>
    <feMerge><feMergeNode in="b"/><feMergeNode in="SourceGraphic"/></feMerge>
  </filter>

  </defs><rect width="1000" height="1000" fill="url(#bgr1x2743)"/><polygon points="475.22452398668975,370.7113220030442 498.6528456285596,337.0925561366603 518.9762717653066,363.0770422099158" fill="#ff00ff" fill-opacity=".055" stroke="#ff00ff" stroke-opacity=".1" stroke-width="1"/><polygon points="394.6240323456004,13.350181146524847 404.09637857507914,-26.283132216893137 431.88437021151185,16.370457443408668" fill="#ff00ff" fill-opacity=".055" stroke="#ff00ff" stroke-opacity=".1" stroke-width="1"/><polygon points="779.1804111842066,214.17384292464703 801.5828571263701,190.6251992220059 812.1579541712999,222.6641515782103" fill="#ff00ff" fill-opacity=".055" stroke="#ff00ff" stroke-opacity=".1" stroke-width="1"/><polygon points="21.35358525440097,275.58567067142576 52.22623875644058,233.51280446909368 56.71110560931265,279.5164853008464" fill="#ff00ff" fill-opacity=".055" stroke="#ff00ff" stroke-opacity=".1" stroke-width="1"/><polygon points="407.8338254708797,359.2767052538693 418.7019909247756,310.73126241378486 440.74520076904446,352.8894524043426" fill="#ff00ff" fill-opacity=".055" stroke="#ff00ff" stroke-opacity=".1" stroke-width="1"/><polygon points="677.5103338388726,14.02564734686166 693.5549300052226,-29.617226344533265 713.7053319886327,19.49516758788377" fill="#ff00ff" fill-opacity=".055" stroke="#ff00ff" stroke-opacity=".1" stroke-width="1"/><polygon points="874.6044430881739,62.701092632487416 898.2688970053568,21.485239288769662 915.7267950270325,52.511482974514365" fill="#ff00ff" fill-opacity=".055" stroke="#ff00ff" stroke-opacity=".1" stroke-width="1"/><polygon points="569.3906979821622,33.75179168768227 582.0129828741774,0.3229621732607484 617.4014426656067,45.56165885645896" fill="#ff00ff" fill-opacity=".055" stroke="#ff00ff" stroke-opacity=".1" stroke-width="1"/><ellipse cx="500.0" cy="892.0" rx="350.0" ry="65.0" fill="rgba(0,0,0,.7)" filter="url(#bloomr1x2743)"/><ellipse cx="500.0" cy="889.0" rx="220.0" ry="34.0" fill="rgba(0,0,0,.45)"/><ellipse cx="500.0" cy="520.0" rx="320.0" ry="480.0" fill="#ff6600" fill-opacity=".042" filter="url(#bloomr1x2743)"/><circle cx="372.4" cy="244.4" r="2.6" fill="#ff6600" fill-opacity="0.64" filter="url(#glowr1x2743)"/><circle cx="595.5" cy="535.0" r="4.2" fill="#ff6600" fill-opacity="0.58" filter="url(#glowr1x2743)"/><circle cx="415.5" cy="241.6" r="2.9" fill="#ff6600" fill-opacity="0.49" filter="url(#glowr1x2743)"/><circle cx="290.1" cy="456.5" r="3.7" fill="#ff6600" fill-opacity="0.74" filter="url(#glowr1x2743)"/><circle cx="646.4" cy="511.5" r="3.5" fill="#ff6600" fill-opacity="0.89" filter="url(#glowr1x2743)"/><circle cx="257.4" cy="688.1" r="1.5" fill="#ff6600" fill-opacity="0.58" filter="url(#glowr1x2743)"/><circle cx="558.0" cy="433.5" r="2.7" fill="#ff6600" fill-opacity="0.90" filter="url(#glowr1x2743)"/><circle cx="445.7" cy="619.3" r="4.0" fill="#ff6600" fill-opacity="0.79" filter="url(#glowr1x2743)"/><circle cx="340.7" cy="267.7" r="3.8" fill="#ff6600" fill-opacity="0.61" filter="url(#glowr1x2743)"/><circle cx="251.7" cy="622.6" r="1.3" fill="#ff6600" fill-opacity="0.56" filter="url(#glowr1x2743)"/><circle cx="663.6" cy="266.3" r="3.8" fill="#ff6600" fill-opacity="0.88" filter="url(#glowr1x2743)"/><circle cx="654.0" cy="720.4" r="2.5" fill="#ff6600" fill-opacity="0.77" filter="url(#glowr1x2743)"/><circle cx="426.0" cy="279.1" r="1.1" fill="#ff6600" fill-opacity="0.47" filter="url(#glowr1x2743)"/><circle cx="728.2" cy="668.7" r="3.4" fill="#ff6600" fill-opacity="0.57" filter="url(#glowr1x2743)"/><polygon points="399.6,663.0 489.9,662.0 481.4,876.2 386.8,877.0" fill="url(#suitr1x2743)" stroke="#ff00ff" stroke-width="2.2" filter="url(#skr1x2743) url(#metalr1x2743)"/><polygon points="398.6,663.2 491.2,661.2 480.8,878.3 387.4,877.0" fill="url(#carbonr1x2743)"/><polygon points="393.7,725.3 492.8,724.8 485.8,788.2 383.9,789.8" fill="url(#bevelr1x2743)" fill-opacity=".5" stroke="#ff00ff" stroke-width="1.4" filter="url(#skr1x2743)"/><polygon points="512.1,662.9 601.0,660.7 612.8,876.7 518.4,878.2" fill="url(#suitr1x2743)" stroke="#ff00ff" stroke-width="2.2" filter="url(#skr1x2743) url(#metalr1x2743)"/><polygon points="509.1,663.2 599.9,664.1 612.7,878.5 518.4,878.1" fill="url(#carbonr1x2743)"/><polygon points="507.0,723.1 606.7,722.0 617.6,787.6 515.4,786.7" fill="url(#bevelr1x2743)" fill-opacity=".5" stroke="#ff00ff" stroke-width="1.4" filter="url(#skr1x2743)"/><rect x="390.9" y="840.2" width="100.3" height="24.7" fill="url(#bevelr1x2743)" stroke="#ff00ff" stroke-width="1" filter="url(#skr1x2743)"/><rect x="506.1"  y="838.1" width="100.3" height="24.7" fill="url(#bevelr1x2743)" stroke="#ff00ff" stroke-width="1" filter="url(#skr1x2743)"/><polygon points="370.1,876.4 494.9,878.8 501.9,921.3 364.2,922.1" fill="#050508" stroke="#ff00ff" stroke-width="2" filter="url(#skr1x2743)"/><polygon points="503.8,877.6 629.7,875.8 638.5,921.3 497.6,921.7" fill="#050508" stroke="#ff00ff" stroke-width="2" filter="url(#skr1x2743)"/><polygon points="302.4,631.9 697.5,633.1 637.7,682.8 360.9,680.6" fill="#ff00ff" fill-opacity=".52" stroke="#ff00ff" stroke-width="2" filter="url(#skr1x2743)"/><rect x="463.6" y="638.8" width="72.0" height="42.0" fill="url(#bevelr1x2743)" stroke="#ff00ff" stroke-width="1.4" filter="url(#glowr1x2743)"/><rect x="487.3" y="639.1" width="28.0" height="22.0" rx="1" fill="rgba(255,255,255,.48)"/><polygon points="153.7,465.2 234.3,467.3 256.6,735.1 127.1,736.3" fill="url(#suitr1x2743)" stroke="#ff00ff" stroke-width="2.2" filter="url(#skr1x2743) url(#metalr1x2743)"/><polygon points="174.0,432.2 253.6,432.1 241.8,510.5 159.9,510.2" fill="url(#bevelr1x2743)" fill-opacity=".72" stroke="#ff00ff" stroke-width="2.2" filter="url(#skr1x2743)"/><polygon points="159.6,623.5 243.8,620.2 240.2,661.8 164.8,661.5" fill="#ff00ff" fill-opacity=".42" stroke="#ff00ff" stroke-width="1" filter="url(#skr1x2743)"/><polygon points="766.5,465.9 848.8,465.2 871.9,735.0 742.9,736.5" fill="url(#suitr1x2743)" stroke="#ff00ff" stroke-width="2.2" filter="url(#skr1x2743) url(#metalr1x2743)"/><polygon points="745.5,433.2 825.4,433.0 839.5,510.5 758.3,510.2" fill="url(#bevelr1x2743)" fill-opacity=".72" stroke="#ff00ff" stroke-width="2.2" filter="url(#skr1x2743)"/><polygon points="757.6,622.4 840.5,622.8 836.1,661.5 759.7,662.5" fill="#ff00ff" fill-opacity=".42" stroke="#ff00ff" stroke-width="1" filter="url(#skr1x2743)"/><rect x="121.6"  y="699.7" width="135.3" height="85.0" rx="4" fill="url(#bevelr1x2743)" stroke="#ff00ff" stroke-width="1.8" filter="url(#skr1x2743)"/><rect x="747.0"   y="701.4" width="135.3" height="85.0" rx="4" fill="url(#bevelr1x2743)" stroke="#ff00ff" stroke-width="1.8" filter="url(#skr1x2743)"/><line x1="148.3" y1="701.2" x2="150.4" y2="783.2" stroke="#ff00ff" stroke-opacity=".38" stroke-width="1"/><line x1="779.6" y1="702.3" x2="776.4" y2="784.6" stroke="#ff00ff" stroke-opacity=".38" stroke-width="1"/><line x1="183.2" y1="703.5" x2="183.3" y2="785.4" stroke="#ff00ff" stroke-opacity=".38" stroke-width="1"/><line x1="811.2" y1="700.4" x2="812.0" y2="782.3" stroke="#ff00ff" stroke-opacity=".38" stroke-width="1"/><line x1="215.6" y1="702.9" x2="217.0" y2="785.4" stroke="#ff00ff" stroke-opacity=".38" stroke-width="1"/><line x1="842.4" y1="701.1" x2="842.1" y2="784.3" stroke="#ff00ff" stroke-opacity=".38" stroke-width="1"/><polygon points="236.4,416.1 763.6,416.6 722.3,660.8 277.0,662.1" fill="url(#suitr1x2743)" stroke="#ff00ff" stroke-width="2.6" filter="url(#skr1x2743) url(#metalr1x2743)"/><polygon points="233.9,416.9 766.7,418.0 722.8,661.8 277.1,662.0" fill="url(#carbonr1x2743)"/><polygon points="367.9,417.7 631.3,419.2 611.1,517.1 387.6,516.4" fill="url(#suitHir1x2743)"/><line x1="362.6" y1="469.6" x2="638.2" y2="469.9" stroke="#ff00ff" stroke-opacity=".52" stroke-width="1.3" filter="url(#skr1x2743)"/><line x1="400.0" y1="549.5" x2="600.1" y2="550.4" stroke="#ff00ff" stroke-opacity=".52" stroke-width="1.3" filter="url(#skr1x2743)"/><line x1="266.1" y1="490.3" x2="319.9" y2="492.7" stroke="#ff00ff" stroke-opacity=".62" stroke-width="1.8"/><line x1="679.8" y1="489.4" x2="731.8" y2="491.3" stroke="#ff00ff" stroke-opacity=".62" stroke-width="1.8"/><line x1="267.8" y1="522.4" x2="321.3" y2="522.6" stroke="#ff00ff" stroke-opacity=".62" stroke-width="1.8"/><line x1="680.8" y1="522.9" x2="733.4" y2="522.0" stroke="#ff00ff" stroke-opacity=".62" stroke-width="1.8"/><line x1="266.6" y1="556.3" x2="318.4" y2="553.7" stroke="#ff00ff" stroke-opacity=".62" stroke-width="1.8"/><line x1="679.5" y1="555.3" x2="734.8" y2="554.6" stroke="#ff00ff" stroke-opacity=".62" stroke-width="1.8"/><line x1="266.3" y1="585.1" x2="318.5" y2="586.0" stroke="#ff00ff" stroke-opacity=".62" stroke-width="1.8"/><line x1="680.6" y1="587.1" x2="734.7" y2="585.4" stroke="#ff00ff" stroke-opacity=".62" stroke-width="1.8"/><g filter="url(#glowr1x2743)"><circle cx="500.1" cy="498.4" r="31.3" fill="#ff00ff" stroke="#050d14" stroke-width="1.4" filter="url(#skr1x2743)"/><circle cx="488.6" cy="498.2" r="7.0" fill="#050d14"/><circle cx="510.2" cy="499.6" r="7.0" fill="#050d14"/><rect x="485.7" y="521.7" width="9.3" height="17.4" rx="1" fill="#ff00ff" stroke="#050d14" stroke-width=".6"/><rect x="496.1" y="522.2" width="9.3" height="17.4" rx="1" fill="#ff00ff" stroke="#050d14" stroke-width=".6"/><rect x="506.4" y="521.7" width="9.3" height="17.4" rx="1" fill="#ff00ff" stroke="#050d14" stroke-width=".6"/></g><g><polygon points="829.4,294.3 968.8,292.3 967.4,592.2 896.9,726.2 829.2,592.8" fill="url(#titaniumr1x2743)" stroke="#ff00ff" stroke-width="2.6" filter="url(#wmr1x2743)"/><polygon points="826.8,294.8 967.3,294.9 967.5,592.9 897.2,726.5 826.8,590.8" fill="url(#carbonr1x2743)"/><polygon points="859.5,360.1 934.2,359.8 936.0,542.9 897.2,630.4 858.1,543.2" fill="#ff00ff" fill-opacity=".28" stroke="#ff00ff" stroke-width="1.5"/><line x1="846.232366845999" y1="431.2504506686702" x2="949.0764703764208" y2="431.5798448695801" stroke="#ff00ff" stroke-opacity=".65" stroke-width="1.3"/><line x1="898.9309848539159" y1="332.97570042703296" x2="897.5234400854074" y2="590.2732284244149" stroke="#ff00ff" stroke-opacity=".4" stroke-width="1"/><line x1="831.142630483918" y1="297.60829036664217" x2="967.256705192905" y2="297.90542013114316" stroke="rgba(255,255,255,.5)" stroke-width="2"/><circle cx="897.7463010086306" cy="431.73482408579434" r="18.0" fill="url(#bevelr1x2743)" stroke="#ff00ff" stroke-width="1.2" filter="url(#wmr1x2743)"/></g><rect x="450.4827089253813" y="556.1825104354881" width="100.0"  height="56.0" fill="#050508" stroke="#ff00ff" stroke-width="2.2" filter="url(#skr1x2743)"/><rect x="424.0386534197256" y="575.4560227854178" width="152.0" height="26.0" fill="url(#bevelr1x2743)" fill-opacity=".65" stroke="#ff00ff" stroke-width="1.2" filter="url(#skr1x2743)"/><polygon points="307.6,382.0 348.5,294.9 500.1,279.5 649.2,294.9 690.9,380.5 670.7,501.8 500.1,566.2 329.5,505.3" fill="url(#suitr1x2743)" stroke="#ff00ff" stroke-width="2.8" filter="url(#skr1x2743) url(#metalr1x2743)"/><polygon points="308.1,380.3 350.7,295.0 501.6,277.9 648.6,295.2 691.6,382.4 669.6,505.0 500.2,564.9 331.8,505.1" fill="url(#carbonr1x2743)"/><polygon points="381.4,301.6 500.3,287.8 620.2,304.1 606.5,378.8 392.0,379.9" fill="url(#suitHir1x2743)"/><polygon points="381.8,382.0 363.9,426.1 431.8,504.8 498.8,529.2 565.7,503.5 633.5,427.1 618.5,382.3" fill="#050d14" fill-opacity=".88" stroke="#ff00ff" stroke-width="1.8" filter="url(#skr1x2743)"/><polygon points="379.4,413.0 476.3,410.5 484.0,439.2 387.9,441.2" fill="#ff00ff" filter="url(#glowr1x2743)"/><polygon points="523.4,411.9 618.0,411.7 610.4,440.5 517.0,438.8" fill="#ff00ff" filter="url(#glowr1x2743)"/><ellipse cx="430.9" cy="425.7" rx="38.4"  ry="8.2" fill="#ffffff" opacity=".88"/><ellipse cx="569.1" cy="425.7" rx="38.4"  ry="8.2" fill="#ffffff" opacity=".88"/><line x1="486.4163395779766" y1="411.67652900051326" x2="514.0935870281793" y2="412.27639537649225" stroke="#ff00ff" stroke-opacity=".52" stroke-width="2"/><line x1="484.70140529876574" y1="439.1454886897467" x2="515.5949603412673" y2="437.6408261384815" stroke="#ff00ff" stroke-opacity=".52" stroke-width="2"/><line x1="501.00061338925735" y1="454.87633300609883" x2="501.6444911673665" y2="483.0169560839422" stroke="#ff00ff" stroke-opacity=".58" stroke-width="2.2" filter="url(#skr1x2743)"/><line x1="455.09098364802077" y1="491.15761268306517" x2="454.3601957725175" y2="521.2034598875791" stroke="#ff00ff" stroke-opacity=".52" stroke-width="1.5" filter="url(#skr1x2743)"/><line x1="477.57134595563633" y1="490.288385411445" x2="476.06869727395474" y2="521.0285518810153" stroke="#ff00ff" stroke-opacity=".52" stroke-width="1.5" filter="url(#skr1x2743)"/><line x1="500.78047109777106" y1="491.03455708753313" x2="499.09751916117966" y2="520.9923391709104" stroke="#ff00ff" stroke-opacity=".52" stroke-width="1.5" filter="url(#skr1x2743)"/><line x1="524.4613421271182" y1="492.7787957658991" x2="522.2505630008503" y2="521.2434354184195" stroke="#ff00ff" stroke-opacity=".52" stroke-width="1.5" filter="url(#skr1x2743)"/><line x1="545.6362546767294" y1="490.0406824542209" x2="547.7822606337444" y2="520.3378040183336" stroke="#ff00ff" stroke-opacity=".52" stroke-width="1.5" filter="url(#skr1x2743)"/><polygon points="431.2,504.0 568.7,501.9 553.3,556.0 444.7,557.6" fill="#050508" fill-opacity=".72" stroke="#ff00ff" stroke-width="1.3" filter="url(#skr1x2743)"/><circle cx="500.0" cy="315.0" r="203.5" fill="none" stroke="#ff00ff" stroke-width="3" stroke-dasharray="6,4" filter="url(#bloomr1x2743)"/><circle cx="500.0" cy="315.0" r="134.4"   fill="none" stroke="#ff00ff" stroke-width="1.2" stroke-opacity=".42"/><circle cx="703.5" cy="315.0" r="1.8" fill="#ff00ff" filter="url(#glowr1x2743)"/><circle cx="688.0" cy="392.9" r="2.7" fill="#ff00ff" filter="url(#glowr1x2743)"/><circle cx="643.9" cy="458.9" r="2.8" fill="#ff00ff" filter="url(#glowr1x2743)"/><circle cx="577.9" cy="503.0" r="2.0" fill="#ff00ff" filter="url(#glowr1x2743)"/><circle cx="500.0" cy="518.5" r="1.0" fill="#ff00ff" filter="url(#glowr1x2743)"/><circle cx="422.1" cy="503.0" r="0.7" fill="#ff00ff" filter="url(#glowr1x2743)"/><circle cx="356.1" cy="458.9" r="1.5" fill="#ff00ff" filter="url(#glowr1x2743)"/><circle cx="312.0" cy="392.9" r="2.5" fill="#ff00ff" filter="url(#glowr1x2743)"/><circle cx="296.5" cy="315.0" r="2.9" fill="#ff00ff" filter="url(#glowr1x2743)"/><circle cx="312.0" cy="237.1" r="2.3" fill="#ff00ff" filter="url(#glowr1x2743)"/><circle cx="356.1" cy="171.1" r="1.2" fill="#ff00ff" filter="url(#glowr1x2743)"/><circle cx="422.1" cy="127.0" r="0.7" fill="#ff00ff" filter="url(#glowr1x2743)"/><circle cx="500.0" cy="111.5" r="1.2" fill="#ff00ff" filter="url(#glowr1x2743)"/><circle cx="577.9" cy="127.0" r="2.3" fill="#ff00ff" filter="url(#glowr1x2743)"/><circle cx="643.9" cy="171.1" r="2.9" fill="#ff00ff" filter="url(#glowr1x2743)"/><circle cx="688.0" cy="237.1" r="2.5" fill="#ff00ff" filter="url(#glowr1x2743)"/><text x="30.0"  y="975.0" font-family="monospace" font-weight="bold" font-size="22.0" fill="rgba(255,255,255,.22)">#0001</text><text x="500.0"   y="975.0" text-anchor="middle" font-family="monospace" font-weight="bold" font-size="22.0" fill="#ff00ff" fill-opacity=".48">VOID RANGER</text><text x="970.0" y="975.0" text-anchor="end"    font-family="monospace" font-weight="bold" font-size="22.0" fill="#ff00ff" fill-opacity=".32">MECH RANGERS</text></svg>