<svg xmlns="http://www.w3.org/2000/svg" viewBox="0 0 1000 1000" width="1000" height="1000" shape-rendering="geometricPrecision"><defs>

  <!-- Scene gradients -->
  <radialGradient id="bgr1x2776" cx="50%" cy="42%" r="72%">
    <stop offset="0%"   stop-color="#0a0a14"/>
    <stop offset="100%" stop-color="#050508"/>
  </radialGradient>
  <linearGradient id="suitr1x2776" x1="8%" y1="0%" x2="92%" y2="100%">
    <stop offset="0%"   stop-color="#ff2040" stop-opacity=".95"/>
    <stop offset="45%"  stop-color="#cc0020"/>
    <stop offset="100%" stop-color="#050508"/>
  </linearGradient>
  <linearGradient id="suitHir1x2776" x1="0%" y1="0%" x2="0%" y2="100%">
    <stop offset="0%"   stop-color="rgba(255,255,255,.28)"/>
    <stop offset="60%"  stop-color="rgba(255,255,255,.04)"/>
    <stop offset="100%" stop-color="rgba(255,255,255,0)"/>
  </linearGradient>
  <!-- Bevel: bright top, dark bottom for armour panels -->
  <linearGradient id="bevelr1x2776" x1="0%" y1="0%" x2="0%" y2="100%">
    <stop offset="0%"   stop-color="rgba(255,255,255,.55)"/>
    <stop offset="30%"  stop-color="#ff2040"/>
    <stop offset="70%"  stop-color="#cc0020"/>
    <stop offset="100%" stop-color="rgba(0,0,0,.5)"/>
  </linearGradient>

  <!-- Weapon: cold steel blade sweep -->
  <linearGradient id="blader1x2776" x1="0%" y1="0%" x2="100%" y2="0%">
    <stop offset="0%"   stop-color="#0e0e20"/>
    <stop offset="16%"  stop-color="#3e3e58"/>
    <stop offset="34%"  stop-color="#c8c8e0"/>
    <stop offset="50%"  stop-color="#f5f5ff"/>
    <stop offset="66%"  stop-color="#b8b8d0"/>
    <stop offset="84%"  stop-color="#2e2e48"/>
    <stop offset="100%" stop-color="#08080e"/>
  </linearGradient>
  <!-- Blade tip brightening -->
  <linearGradient id="bladeTipr1x2776" x1="0%" y1="100%" x2="0%" y2="0%">
    <stop offset="0%"   stop-color="rgba(255,255,255,0)"/>
    <stop offset="55%"  stop-color="rgba(255,255,255,.1)"/>
    <stop offset="100%" stop-color="rgba(255,255,255,.55)"/>
  </linearGradient>
  <!-- Gunmetal anodised — blaster body -->
  <linearGradient id="gunmetalr1x2776" x1="0%" y1="0%" x2="0%" y2="100%">
    <stop offset="0%"   stop-color="#46465e"/>
    <stop offset="18%"  stop-color="#828296"/>
    <stop offset="42%"  stop-color="#26263a"/>
    <stop offset="72%"  stop-color="#16162a"/>
    <stop offset="100%" stop-color="#0c0c18"/>
  </linearGradient>
  <!-- Brushed steel tube — barrel/rod -->
  <linearGradient id="barrelr1x2776" x1="0%" y1="0%" x2="100%" y2="0%">
    <stop offset="0%"   stop-color="#0a0a14"/>
    <stop offset="24%"  stop-color="#585875"/>
    <stop offset="50%"  stop-color="#a8a8c8"/>
    <stop offset="76%"  stop-color="#383852"/>
    <stop offset="100%" stop-color="#0a0a14"/>
  </linearGradient>
  <!-- Chrome rod — lance shaft -->
  <linearGradient id="chromer1x2776" x1="0%" y1="0%" x2="100%" y2="0%">
    <stop offset="0%"   stop-color="#0c0c18"/>
    <stop offset="20%"  stop-color="#686888"/>
    <stop offset="44%"  stop-color="#e0e0f0"/>
    <stop offset="56%"  stop-color="#c0c0d8"/>
    <stop offset="80%"  stop-color="#28283e"/>
    <stop offset="100%" stop-color="#0c0c18"/>
  </linearGradient>
  <!-- Titanium plate — shield face -->
  <linearGradient id="titaniumr1x2776" x1="0%" y1="0%" x2="100%" y2="100%">
    <stop offset="0%"   stop-color="#585878"/>
    <stop offset="28%"  stop-color="#ff2040" stop-opacity=".88"/>
    <stop offset="55%"  stop-color="#cc0020"/>
    <stop offset="80%"  stop-color="#181828"/>
    <stop offset="100%" stop-color="#0a0a18"/>
  </linearGradient>
  <!-- Artillery black-chrome — cannon body -->
  <linearGradient id="artilleryr1x2776" x1="0%" y1="0%" x2="0%" y2="100%">
    <stop offset="0%"   stop-color="#383850"/>
    <stop offset="14%"  stop-color="#78789a"/>
    <stop offset="36%"  stop-color="#202034"/>
    <stop offset="65%"  stop-color="#14141e"/>
    <stop offset="100%" stop-color="#0a0a12"/>
  </linearGradient>
  <!-- Energy orb — staff -->
  <radialGradient id="orbr1x2776" cx="35%" cy="35%" r="65%">
    <stop offset="0%"   stop-color="rgba(255,255,255,.9)"/>
    <stop offset="30%"  stop-color="#ff2040"/>
    <stop offset="68%"  stop-color="#cc0020"/>
    <stop offset="100%" stop-color="rgba(0,0,0,.6)"/>
  </radialGradient>
  <!-- Knuckle plate chrome -->
  <linearGradient id="knuckler1x2776" x1="0%" y1="0%" x2="0%" y2="100%">
    <stop offset="0%"   stop-color="#888aaa"/>
    <stop offset="32%"  stop-color="#ff2040" stop-opacity=".8"/>
    <stop offset="62%"  stop-color="#1a1a2c"/>
    <stop offset="100%" stop-color="#0a0a14"/>
  </linearGradient>

  <!-- Carbon fibre weave texture overlay -->
  <pattern id="carbonr1x2776" width="6" height="6" patternUnits="userSpaceOnUse">
    <rect width="6" height="6" fill="rgba(0,0,0,.08)"/>
    <rect x="0" y="0" width="3" height="3" fill="rgba(255,255,255,.022)"/>
    <rect x="3" y="3" width="3" height="3" fill="rgba(255,255,255,.022)"/>
    <line x1="0" y1="0" x2="3" y2="3" stroke="rgba(255,255,255,.038)" stroke-width=".5"/>
    <line x1="3" y1="0" x2="6" y2="3" stroke="rgba(0,0,0,.055)"       stroke-width=".5"/>
    <line x1="0" y1="3" x2="3" y2="6" stroke="rgba(0,0,0,.055)"       stroke-width=".5"/>
    <line x1="3" y1="3" x2="6" y2="6" stroke="rgba(255,255,255,.038)" stroke-width=".5"/>
  </pattern>

  <!-- Specular metal sheen on armour panels -->
  <filter id="metalr1x2776" x="-5%" y="-5%" width="110%" height="110%">
    <feSpecularLighting surfaceScale="4" specularConstant="1.8"
        specularExponent="42" lighting-color="#ffffff" result="spec">
      <feDistantLight elevation="52" azimuth="38"/>
    </feSpecularLighting>
    <feComposite in="spec" in2="SourceGraphic" operator="in" result="sm"/>
    <feComposite in="SourceGraphic" in2="sm" operator="arithmetic" k1="0" k2="1" k3="0.55" k4="0"/>
  </filter>

  <!-- Sharper specular for weapons — heavier glare -->
  <filter id="wmr1x2776" x="-8%" y="-8%" width="116%" height="116%">
    <feSpecularLighting surfaceScale="6" specularConstant="2.4"
        specularExponent="65" lighting-color="#ffffff" result="spec">
      <feDistantLight elevation="44" azimuth="28"/>
    </feSpecularLighting>
    <feComposite in="spec" in2="SourceGraphic" operator="in" result="sm"/>
    <feComposite in="SourceGraphic" in2="sm" operator="arithmetic" k1="0" k2="1" k3="0.78" k4="0"/>
  </filter>

  <!-- Sketch wobble -->
  <filter id="skr1x2776" x="-8%" y="-8%" width="116%" height="116%">
    <feTurbulence type="fractalNoise" baseFrequency="0.038"
        numOctaves="3" seed="57" result="noise"/>
    <feDisplacementMap in="SourceGraphic" in2="noise" scale="2.6"
        xChannelSelector="R" yChannelSelector="G" result="w"/>
    <feComposite in="w" in2="SourceGraphic" operator="atop"/>
  </filter>

  <!-- Glow: sharp accent -->
  <filter id="glowr1x2776" x="-20%" y="-20%" width="140%" height="140%">
    <feGaussianBlur stdDeviation="3.5" result="b"/>
    <feColorMatrix in="b" type="matrix"
        values="0 0 0 0 1  0 0 0 0 1  0 0 0 0 1  0 0 0 1.8 0" result="boost"/>
    <feMerge><feMergeNode in="boost"/><feMergeNode in="SourceGraphic"/></feMerge>
  </filter>

  <!-- Bloom: wide soft -->
  <filter id="bloomr1x2776" x="-40%" y="-40%" width="180%" height="180%">
    <feGaussianBlur stdDeviation="11" result="b"/>
    <feMerge><feMergeNode in="b"/><feMergeNode in="SourceGraphic"/></feMerge>
  </filter>

  </defs><rect width="1000" height="1000" fill="url(#bgr1x2776)"/><ellipse cx="500.0" cy="892.0" rx="350.0" ry="65.0" fill="rgba(0,0,0,.7)" filter="url(#bloomr1x2776)"/><ellipse cx="500.0" cy="889.0" rx="220.0" ry="34.0" fill="rgba(0,0,0,.45)"/><ellipse cx="500.0" cy="520.0" rx="320.0" ry="480.0" fill="#00e5ff" fill-opacity=".042" filter="url(#bloomr1x2776)"/><circle cx="732.4" cy="372.3" r="3.0" fill="#00e5ff" fill-opacity="0.50" filter="url(#glowr1x2776)"/><circle cx="639.8" cy="485.3" r="0.6" fill="#00e5ff" fill-opacity="0.52" filter="url(#glowr1x2776)"/><circle cx="266.6" cy="610.2" r="1.8" fill="#00e5ff" fill-opacity="0.51" filter="url(#glowr1x2776)"/><circle cx="388.5" cy="388.2" r="0.8" fill="#00e5ff" fill-opacity="0.75" filter="url(#glowr1x2776)"/><circle cx="463.9" cy="718.8" r="3.0" fill="#00e5ff" fill-opacity="0.59" filter="url(#glowr1x2776)"/><circle cx="289.6" cy="288.3" r="3.3" fill="#00e5ff" fill-opacity="0.43" filter="url(#glowr1x2776)"/><circle cx="318.5" cy="751.3" r="1.7" fill="#00e5ff" fill-opacity="0.59" filter="url(#glowr1x2776)"/><circle cx="510.4" cy="225.8" r="0.6" fill="#00e5ff" fill-opacity="0.75" filter="url(#glowr1x2776)"/><circle cx="578.1" cy="722.9" r="3.5" fill="#00e5ff" fill-opacity="0.50" filter="url(#glowr1x2776)"/><circle cx="380.5" cy="445.9" r="2.8" fill="#00e5ff" fill-opacity="0.85" filter="url(#glowr1x2776)"/><circle cx="590.3" cy="693.3" r="4.1" fill="#00e5ff" fill-opacity="0.87" filter="url(#glowr1x2776)"/><circle cx="522.7" cy="440.5" r="3.1" fill="#00e5ff" fill-opacity="0.70" filter="url(#glowr1x2776)"/><circle cx="536.6" cy="313.6" r="1.7" fill="#00e5ff" fill-opacity="0.71" filter="url(#glowr1x2776)"/><circle cx="312.7" cy="271.0" r="2.7" fill="#00e5ff" fill-opacity="0.44" filter="url(#glowr1x2776)"/><path d="M367.7,274.0 Q355.5,467.1 569.7,687.0" stroke="#00e5ff" stroke-opacity="0.65" stroke-width="2.2" fill="none" filter="url(#glowr1x2776)"/><path d="M703.7,353.5 Q722.9,594.1 614.3,863.8" stroke="#00e5ff" stroke-opacity="0.77" stroke-width="2.6" fill="none" filter="url(#glowr1x2776)"/><path d="M674.9,343.9 Q716.7,468.5 523.8,628.1" stroke="#00e5ff" stroke-opacity="0.65" stroke-width="1.9" fill="none" filter="url(#glowr1x2776)"/><path d="M497.5,166.6 Q481.3,462.1 377.4,727.7" stroke="#00e5ff" stroke-opacity="0.52" stroke-width="2.6" fill="none" filter="url(#glowr1x2776)"/><path d="M570.4,283.7 Q568.6,531.6 371.9,825.6" stroke="#00e5ff" stroke-opacity="0.68" stroke-width="1.2" fill="none" filter="url(#glowr1x2776)"/><polygon points="398.3,661.0 489.6,662.0 481.2,879.3 385.6,876.9" fill="url(#suitr1x2776)" stroke="#ff2040" stroke-width="2.2" filter="url(#skr1x2776) url(#metalr1x2776)"/><polygon points="397.4,664.0 489.2,662.5 482.0,875.8 388.1,877.7" fill="url(#carbonr1x2776)"/><polygon points="392.7,722.6 491.7,724.2 484.8,788.7 383.3,788.1" fill="url(#bevelr1x2776)" fill-opacity=".5" stroke="#ff2040" stroke-width="1.4" filter="url(#skr1x2776)"/><polygon points="512.0,661.1 599.8,662.0 610.8,877.4 520.0,876.1" fill="url(#suitr1x2776)" stroke="#ff2040" stroke-width="2.2" filter="url(#skr1x2776) url(#metalr1x2776)"/><polygon points="509.5,660.8 600.8,664.3 612.2,875.9 519.7,876.6" fill="url(#carbonr1x2776)"/><polygon points="507.5,723.0 605.7,724.1 615.6,788.4 516.3,787.6" fill="url(#bevelr1x2776)" fill-opacity=".5" stroke="#ff2040" stroke-width="1.4" filter="url(#skr1x2776)"/><rect x="391.6" y="839.9" width="100.3" height="24.7" fill="url(#bevelr1x2776)" stroke="#ff2040" stroke-width="1" filter="url(#skr1x2776)"/><rect x="508.7"  y="838.7" width="100.3" height="24.7" fill="url(#bevelr1x2776)" stroke="#ff2040" stroke-width="1" filter="url(#skr1x2776)"/><polygon points="369.8,878.0 495.4,876.3 502.2,921.6 361.8,921.6" fill="#cc0020" stroke="#ff2040" stroke-width="2" filter="url(#skr1x2776)"/><polygon points="503.7,877.5 631.3,877.9 638.1,922.8 498.2,920.1" fill="#cc0020" stroke="#ff2040" stroke-width="2" filter="url(#skr1x2776)"/><polygon points="304.8,633.9 695.0,632.8 639.2,682.6 363.1,683.6" fill="#ff2040" fill-opacity=".52" stroke="#ff2040" stroke-width="2" filter="url(#skr1x2776)"/><rect x="462.6" y="637.3" width="72.0" height="42.0" fill="url(#bevelr1x2776)" stroke="#ff2040" stroke-width="1.4" filter="url(#glowr1x2776)"/><rect x="486.3" y="641.0" width="28.0" height="22.0" rx="1" fill="rgba(255,255,255,.48)"/><polygon points="154.8,468.2 234.3,465.2 257.6,734.3 128.8,736.7" fill="url(#suitr1x2776)" stroke="#ff2040" stroke-width="2.2" filter="url(#skr1x2776) url(#metalr1x2776)"/><polygon points="173.7,431.5 251.7,433.0 244.8,510.5 159.4,510.2" fill="url(#bevelr1x2776)" fill-opacity=".72" stroke="#ff2040" stroke-width="2.2" filter="url(#skr1x2776)"/><polygon points="162.0,620.8 242.2,620.7 237.6,659.4 166.1,660.8" fill="#ff2040" fill-opacity=".42" stroke="#ff2040" stroke-width="1" filter="url(#skr1x2776)"/><polygon points="764.4,467.8 847.1,465.8 871.7,736.5 741.8,733.3" fill="url(#suitr1x2776)" stroke="#ff2040" stroke-width="2.2" filter="url(#skr1x2776) url(#metalr1x2776)"/><polygon points="747.6,433.2 826.2,431.6 842.0,508.9 756.2,510.1" fill="url(#bevelr1x2776)" fill-opacity=".72" stroke="#ff2040" stroke-width="2.2" filter="url(#skr1x2776)"/><polygon points="756.5,622.5 839.6,622.7 833.6,659.8 760.7,660.8" fill="#ff2040" fill-opacity=".42" stroke="#ff2040" stroke-width="1" filter="url(#skr1x2776)"/><rect x="119.3"  y="699.2" width="135.3" height="85.0" rx="4" fill="url(#bevelr1x2776)" stroke="#ff2040" stroke-width="1.8" filter="url(#skr1x2776)"/><rect x="748.9"   y="698.7" width="135.3" height="85.0" rx="4" fill="url(#bevelr1x2776)" stroke="#ff2040" stroke-width="1.8" filter="url(#skr1x2776)"/><line x1="149.6" y1="702.2" x2="150.2" y2="782.2" stroke="#ff2040" stroke-opacity=".38" stroke-width="1"/><line x1="778.0" y1="700.5" x2="778.3" y2="783.7" stroke="#ff2040" stroke-opacity=".38" stroke-width="1"/><line x1="184.0" y1="700.9" x2="183.9" y2="782.9" stroke="#ff2040" stroke-opacity=".38" stroke-width="1"/><line x1="811.6" y1="702.4" x2="809.2" y2="785.0" stroke="#ff2040" stroke-opacity=".38" stroke-width="1"/><line x1="213.7" y1="701.8" x2="216.2" y2="785.1" stroke="#ff2040" stroke-opacity=".38" stroke-width="1"/><line x1="844.0" y1="703.5" x2="842.5" y2="784.2" stroke="#ff2040" stroke-opacity=".38" stroke-width="1"/><polygon points="235.1,416.0 765.7,417.9 721.5,662.7 277.1,662.4" fill="url(#suitr1x2776)" stroke="#ff2040" stroke-width="2.6" filter="url(#skr1x2776) url(#metalr1x2776)"/><polygon points="236.4,416.4 763.3,418.7 721.0,663.4 277.6,662.2" fill="url(#carbonr1x2776)"/><polygon points="368.1,415.9 631.1,418.8 611.0,516.4 388.8,513.8" fill="url(#suitHir1x2776)"/><line x1="361.6" y1="470.2" x2="639.6" y2="471.2" stroke="#ff2040" stroke-opacity=".52" stroke-width="1.3" filter="url(#skr1x2776)"/><line x1="397.7" y1="550.4" x2="599.8" y2="550.6" stroke="#ff2040" stroke-opacity=".52" stroke-width="1.3" filter="url(#skr1x2776)"/><line x1="265.3" y1="492.4" x2="318.5" y2="490.2" stroke="#ff2040" stroke-opacity=".62" stroke-width="1.8"/><line x1="678.8" y1="492.6" x2="733.2" y2="490.2" stroke="#ff2040" stroke-opacity=".62" stroke-width="1.8"/><line x1="265.5" y1="524.6" x2="320.4" y2="523.4" stroke="#ff2040" stroke-opacity=".62" stroke-width="1.8"/><line x1="679.4" y1="521.1" x2="734.7" y2="524.3" stroke="#ff2040" stroke-opacity=".62" stroke-width="1.8"/><line x1="266.3" y1="553.3" x2="320.7" y2="556.0" stroke="#ff2040" stroke-opacity=".62" stroke-width="1.8"/><line x1="681.1" y1="555.0" x2="734.8" y2="554.0" stroke="#ff2040" stroke-opacity=".62" stroke-width="1.8"/><line x1="266.1" y1="587.4" x2="318.6" y2="585.4" stroke="#ff2040" stroke-opacity=".62" stroke-width="1.8"/><line x1="681.9" y1="586.5" x2="734.9" y2="587.0" stroke="#ff2040" stroke-opacity=".62" stroke-width="1.8"/><g filter="url(#glowr1x2776)"><polygon points="482.3,454.1 512.2,506.1 499.7,504.4 516.8,568.0 487.2,515.5 499.2,514.3" fill="#ff2040" stroke="#050508" stroke-width="1.4" filter="url(#skr1x2776)"/><polygon points="484.4,452.7 511.0,504.2 501.2,507.0 518.5,569.7 487.0,516.0 501.2,514.6" fill="url(#suitHir1x2776)" opacity=".4"/></g><g><polygon points="828.9,294.7 967.6,292.9 968.6,590.8 897.8,725.4 827.4,592.5" fill="url(#titaniumr1x2776)" stroke="#ff2040" stroke-width="2.6" filter="url(#wmr1x2776)"/><polygon points="826.3,292.0 968.0,295.0 968.2,591.7 898.0,727.9 829.2,590.9" fill="url(#carbonr1x2776)"/><polygon points="859.6,362.7 934.6,361.1 935.7,543.2 898.8,630.8 859.3,542.4" fill="#ff2040" fill-opacity=".28" stroke="#ff2040" stroke-width="1.5"/><line x1="845.5583350245469" y1="432.5670898793265" x2="950.4887185903825" y2="431.0191257943399" stroke="#ff2040" stroke-opacity=".65" stroke-width="1.3"/><line x1="896.5340495163202" y1="332.9350456351414" x2="898.7462283676118" y2="591.1067539408803" stroke="#ff2040" stroke-opacity=".4" stroke-width="1"/><line x1="830.8119722031616" y1="296.3312366668135" x2="965.1719726839661" y2="295.47220847737043" stroke="rgba(255,255,255,.5)" stroke-width="2"/><circle cx="897.6852944185586" cy="432.0826089911163" r="18.0" fill="url(#bevelr1x2776)" stroke="#ff2040" stroke-width="1.2" filter="url(#wmr1x2776)"/></g><rect x="451.35994160268456" y="556.9792729447596" width="100.0"  height="56.0" fill="#cc0020" stroke="#ff2040" stroke-width="2.2" filter="url(#skr1x2776)"/><rect x="422.7745430455543" y="575.8919201193378" width="152.0" height="26.0" fill="url(#bevelr1x2776)" fill-opacity=".65" stroke="#ff2040" stroke-width="1.2" filter="url(#skr1x2776)"/><polygon points="307.0,379.6 350.0,294.7 500.4,278.4 650.1,294.8 691.2,381.5 670.6,504.9 499.6,563.9 331.2,503.7" fill="url(#suitr1x2776)" stroke="#ff2040" stroke-width="2.8" filter="url(#skr1x2776) url(#metalr1x2776)"/><polygon points="309.5,379.0 350.1,293.7 499.9,277.7 649.2,294.9 691.1,379.6 670.7,504.1 499.7,566.3 331.1,502.2" fill="url(#carbonr1x2776)"/><polygon points="381.0,301.2 499.8,287.2 618.7,303.7 607.3,381.7 391.0,380.3" fill="url(#suitHir1x2776)"/><polygon points="379.9,380.2 365.2,424.0 434.4,505.4 498.9,529.7 566.6,505.4 634.8,426.2 617.8,379.6" fill="#050508" fill-opacity=".88" stroke="#ff2040" stroke-width="1.8" filter="url(#skr1x2776)"/><polygon points="380.2,410.8 475.3,413.1 483.0,439.1 389.1,440.2" fill="#ff2040" filter="url(#glowr1x2776)"/><polygon points="523.8,413.1 619.3,413.0 609.7,440.0 514.1,438.9" fill="#ff2040" filter="url(#glowr1x2776)"/><ellipse cx="430.9" cy="425.7" rx="38.4"  ry="8.2" fill="#ffffff" opacity=".88"/><ellipse cx="569.1" cy="425.7" rx="38.4"  ry="8.2" fill="#ffffff" opacity=".88"/><line x1="483.280347820241" y1="414.66906984485684" x2="515.6375274098851" y2="413.60660885721444" stroke="#ff2040" stroke-opacity=".52" stroke-width="2"/><line x1="485.3527947599627" y1="438.9682665143162" x2="513.6120958692767" y2="437.89192012455317" stroke="#ff2040" stroke-opacity=".52" stroke-width="2"/><line x1="500.47334924135356" y1="454.51317980168386" x2="500.08345524035394" y2="484.3130058946088" stroke="#ff2040" stroke-opacity=".58" stroke-width="2.2" filter="url(#skr1x2776)"/><line x1="452.9344103884697" y1="492.06848180703815" x2="455.6104485674575" y2="521.77751756059" stroke="#ff2040" stroke-opacity=".52" stroke-width="1.5" filter="url(#skr1x2776)"/><line x1="475.2338618512638" y1="492.34435986792664" x2="475.3210149157233" y2="520.8925663935021" stroke="#ff2040" stroke-opacity=".52" stroke-width="1.5" filter="url(#skr1x2776)"/><line x1="501.6661890044808" y1="491.620372263994" x2="500.0322065141052" y2="520.7641646826639" stroke="#ff2040" stroke-opacity=".52" stroke-width="1.5" filter="url(#skr1x2776)"/><line x1="522.5432769055105" y1="492.63195214476434" x2="521.8815451179258" y2="520.4862187962048" stroke="#ff2040" stroke-opacity=".52" stroke-width="1.5" filter="url(#skr1x2776)"/><line x1="547.0545248614811" y1="490.47210066253314" x2="547.0554970943556" y2="518.7266874721274" stroke="#ff2040" stroke-opacity=".52" stroke-width="1.5" filter="url(#skr1x2776)"/><polygon points="431.8,502.3 568.1,503.5 554.2,555.8 445.3,558.4" fill="#cc0020" fill-opacity=".72" stroke="#ff2040" stroke-width="1.3" filter="url(#skr1x2776)"/><polygon points="477.8,301.8 521.7,303.5 511.7,176.5 487.2,174.2" fill="url(#bevelr1x2776)" stroke="#ff2040" stroke-width="2.2" filter="url(#skr1x2776)"/><polygon points="364.9,324.8 459.1,323.1 470.4,228.6" fill="url(#bevelr1x2776)" fill-opacity=".78" stroke="#ff2040" stroke-width="1.5" filter="url(#skr1x2776)"/><polygon points="540.5,322.3 635.5,324.9 530.1,227.5" fill="url(#bevelr1x2776)" fill-opacity=".78" stroke="#ff2040" stroke-width="1.5" filter="url(#skr1x2776)"/><text x="30.0"  y="975.0" font-family="monospace" font-weight="bold" font-size="22.0" fill="rgba(255,255,255,.22)">#0001</text><text x="500.0"   y="975.0" text-anchor="middle" font-family="monospace" font-weight="bold" font-size="22.0" fill="#ff2040" fill-opacity=".48">CRIMSON RANGER</text><text x="970.0" y="975.0" text-anchor="end"    font-family="monospace" font-weight="bold" font-size="22.0" fill="#ff2040" fill-opacity=".32">MECH RANGERS</text></svg>