<svg xmlns="http://www.w3.org/2000/svg" viewBox="0 0 1000 1000" width="1000" height="1000" shape-rendering="geometricPrecision"><defs>

  <!-- Scene gradients -->
  <radialGradient id="bgr1x2845" cx="50%" cy="42%" r="72%">
    <stop offset="0%"   stop-color="#0a0a14"/>
    <stop offset="100%" stop-color="#050508"/>
  </radialGradient>
  <linearGradient id="suitr1x2845" x1="8%" y1="0%" x2="92%" y2="100%">
    <stop offset="0%"   stop-color="#2060ff" stop-opacity=".95"/>
    <stop offset="45%"  stop-color="#003ccc"/>
    <stop offset="100%" stop-color="#050508"/>
  </linearGradient>
  <linearGradient id="suitHir1x2845" x1="0%" y1="0%" x2="0%" y2="100%">
    <stop offset="0%"   stop-color="rgba(255,255,255,.28)"/>
    <stop offset="60%"  stop-color="rgba(255,255,255,.04)"/>
    <stop offset="100%" stop-color="rgba(255,255,255,0)"/>
  </linearGradient>
  <!-- Bevel: bright top, dark bottom for armour panels -->
  <linearGradient id="bevelr1x2845" x1="0%" y1="0%" x2="0%" y2="100%">
    <stop offset="0%"   stop-color="rgba(255,255,255,.55)"/>
    <stop offset="30%"  stop-color="#2060ff"/>
    <stop offset="70%"  stop-color="#003ccc"/>
    <stop offset="100%" stop-color="rgba(0,0,0,.5)"/>
  </linearGradient>

  <!-- Weapon: cold steel blade sweep -->
  <linearGradient id="blader1x2845" x1="0%" y1="0%" x2="100%" y2="0%">
    <stop offset="0%"   stop-color="#0e0e20"/>
    <stop offset="16%"  stop-color="#3e3e58"/>
    <stop offset="34%"  stop-color="#c8c8e0"/>
    <stop offset="50%"  stop-color="#f5f5ff"/>
    <stop offset="66%"  stop-color="#b8b8d0"/>
    <stop offset="84%"  stop-color="#2e2e48"/>
    <stop offset="100%" stop-color="#08080e"/>
  </linearGradient>
  <!-- Blade tip brightening -->
  <linearGradient id="bladeTipr1x2845" x1="0%" y1="100%" x2="0%" y2="0%">
    <stop offset="0%"   stop-color="rgba(255,255,255,0)"/>
    <stop offset="55%"  stop-color="rgba(255,255,255,.1)"/>
    <stop offset="100%" stop-color="rgba(255,255,255,.55)"/>
  </linearGradient>
  <!-- Gunmetal anodised — blaster body -->
  <linearGradient id="gunmetalr1x2845" x1="0%" y1="0%" x2="0%" y2="100%">
    <stop offset="0%"   stop-color="#46465e"/>
    <stop offset="18%"  stop-color="#828296"/>
    <stop offset="42%"  stop-color="#26263a"/>
    <stop offset="72%"  stop-color="#16162a"/>
    <stop offset="100%" stop-color="#0c0c18"/>
  </linearGradient>
  <!-- Brushed steel tube — barrel/rod -->
  <linearGradient id="barrelr1x2845" x1="0%" y1="0%" x2="100%" y2="0%">
    <stop offset="0%"   stop-color="#0a0a14"/>
    <stop offset="24%"  stop-color="#585875"/>
    <stop offset="50%"  stop-color="#a8a8c8"/>
    <stop offset="76%"  stop-color="#383852"/>
    <stop offset="100%" stop-color="#0a0a14"/>
  </linearGradient>
  <!-- Chrome rod — lance shaft -->
  <linearGradient id="chromer1x2845" x1="0%" y1="0%" x2="100%" y2="0%">
    <stop offset="0%"   stop-color="#0c0c18"/>
    <stop offset="20%"  stop-color="#686888"/>
    <stop offset="44%"  stop-color="#e0e0f0"/>
    <stop offset="56%"  stop-color="#c0c0d8"/>
    <stop offset="80%"  stop-color="#28283e"/>
    <stop offset="100%" stop-color="#0c0c18"/>
  </linearGradient>
  <!-- Titanium plate — shield face -->
  <linearGradient id="titaniumr1x2845" x1="0%" y1="0%" x2="100%" y2="100%">
    <stop offset="0%"   stop-color="#585878"/>
    <stop offset="28%"  stop-color="#2060ff" stop-opacity=".88"/>
    <stop offset="55%"  stop-color="#003ccc"/>
    <stop offset="80%"  stop-color="#181828"/>
    <stop offset="100%" stop-color="#0a0a18"/>
  </linearGradient>
  <!-- Artillery black-chrome — cannon body -->
  <linearGradient id="artilleryr1x2845" x1="0%" y1="0%" x2="0%" y2="100%">
    <stop offset="0%"   stop-color="#383850"/>
    <stop offset="14%"  stop-color="#78789a"/>
    <stop offset="36%"  stop-color="#202034"/>
    <stop offset="65%"  stop-color="#14141e"/>
    <stop offset="100%" stop-color="#0a0a12"/>
  </linearGradient>
  <!-- Energy orb — staff -->
  <radialGradient id="orbr1x2845" cx="35%" cy="35%" r="65%">
    <stop offset="0%"   stop-color="rgba(255,255,255,.9)"/>
    <stop offset="30%"  stop-color="#2060ff"/>
    <stop offset="68%"  stop-color="#003ccc"/>
    <stop offset="100%" stop-color="rgba(0,0,0,.6)"/>
  </radialGradient>
  <!-- Knuckle plate chrome -->
  <linearGradient id="knuckler1x2845" x1="0%" y1="0%" x2="0%" y2="100%">
    <stop offset="0%"   stop-color="#888aaa"/>
    <stop offset="32%"  stop-color="#2060ff" stop-opacity=".8"/>
    <stop offset="62%"  stop-color="#1a1a2c"/>
    <stop offset="100%" stop-color="#0a0a14"/>
  </linearGradient>

  <!-- Carbon fibre weave texture overlay -->
  <pattern id="carbonr1x2845" width="6" height="6" patternUnits="userSpaceOnUse">
    <rect width="6" height="6" fill="rgba(0,0,0,.08)"/>
    <rect x="0" y="0" width="3" height="3" fill="rgba(255,255,255,.022)"/>
    <rect x="3" y="3" width="3" height="3" fill="rgba(255,255,255,.022)"/>
    <line x1="0" y1="0" x2="3" y2="3" stroke="rgba(255,255,255,.038)" stroke-width=".5"/>
    <line x1="3" y1="0" x2="6" y2="3" stroke="rgba(0,0,0,.055)"       stroke-width=".5"/>
    <line x1="0" y1="3" x2="3" y2="6" stroke="rgba(0,0,0,.055)"       stroke-width=".5"/>
    <line x1="3" y1="3" x2="6" y2="6" stroke="rgba(255,255,255,.038)" stroke-width=".5"/>
  </pattern>

  <!-- Specular metal sheen on armour panels -->
  <filter id="metalr1x2845" x="-5%" y="-5%" width="110%" height="110%">
    <feSpecularLighting surfaceScale="4" specularConstant="1.8"
        specularExponent="42" lighting-color="#ffffff" result="spec">
      <feDistantLight elevation="52" azimuth="38"/>
    </feSpecularLighting>
    <feComposite in="spec" in2="SourceGraphic" operator="in" result="sm"/>
    <feComposite in="SourceGraphic" in2="sm" operator="arithmetic" k1="0" k2="1" k3="0.55" k4="0"/>
  </filter>

  <!-- Sharper specular for weapons — heavier glare -->
  <filter id="wmr1x2845" x="-8%" y="-8%" width="116%" height="116%">
    <feSpecularLighting surfaceScale="6" specularConstant="2.4"
        specularExponent="65" lighting-color="#ffffff" result="spec">
      <feDistantLight elevation="44" azimuth="28"/>
    </feSpecularLighting>
    <feComposite in="spec" in2="SourceGraphic" operator="in" result="sm"/>
    <feComposite in="SourceGraphic" in2="sm" operator="arithmetic" k1="0" k2="1" k3="0.78" k4="0"/>
  </filter>

  <!-- Sketch wobble -->
  <filter id="skr1x2845" x="-8%" y="-8%" width="116%" height="116%">
    <feTurbulence type="fractalNoise" baseFrequency="0.038"
        numOctaves="3" seed="7" result="noise"/>
    <feDisplacementMap in="SourceGraphic" in2="noise" scale="2.6"
        xChannelSelector="R" yChannelSelector="G" result="w"/>
    <feComposite in="w" in2="SourceGraphic" operator="atop"/>
  </filter>

  <!-- Glow: sharp accent -->
  <filter id="glowr1x2845" x="-20%" y="-20%" width="140%" height="140%">
    <feGaussianBlur stdDeviation="3.5" result="b"/>
    <feColorMatrix in="b" type="matrix"
        values="0 0 0 0 1  0 0 0 0 1  0 0 0 0 1  0 0 0 1.8 0" result="boost"/>
    <feMerge><feMergeNode in="boost"/><feMergeNode in="SourceGraphic"/></feMerge>
  </filter>

  <!-- Bloom: wide soft -->
  <filter id="bloomr1x2845" x="-40%" y="-40%" width="180%" height="180%">
    <feGaussianBlur stdDeviation="11" result="b"/>
    <feMerge><feMergeNode in="b"/><feMergeNode in="SourceGraphic"/></feMerge>
  </filter>

  </defs><rect width="1000" height="1000" fill="url(#bgr1x2845)"/><ellipse cx="500.0" cy="892.0" rx="350.0" ry="65.0" fill="rgba(0,0,0,.7)" filter="url(#bloomr1x2845)"/><ellipse cx="500.0" cy="889.0" rx="220.0" ry="34.0" fill="rgba(0,0,0,.45)"/><polygon points="397.5,663.7 490.3,661.6 478.9,878.3 386.6,878.4" fill="url(#suitr1x2845)" stroke="#2060ff" stroke-width="2.2" filter="url(#skr1x2845) url(#metalr1x2845)"/><polygon points="399.3,664.3 489.7,663.1 480.3,878.4 387.2,878.1" fill="url(#carbonr1x2845)"/><polygon points="392.2,724.4 492.6,723.5 485.6,789.1 384.1,788.7" fill="url(#bevelr1x2845)" fill-opacity=".5" stroke="#2060ff" stroke-width="1.4" filter="url(#skr1x2845)"/><polygon points="509.0,661.4 602.6,661.0 612.5,876.4 520.4,878.2" fill="url(#suitr1x2845)" stroke="#2060ff" stroke-width="2.2" filter="url(#skr1x2845) url(#metalr1x2845)"/><polygon points="511.0,663.4 600.6,662.0 614.2,878.3 519.7,876.0" fill="url(#carbonr1x2845)"/><polygon points="507.3,723.5 607.0,725.1 615.4,789.1 516.9,786.7" fill="url(#bevelr1x2845)" fill-opacity=".5" stroke="#2060ff" stroke-width="1.4" filter="url(#skr1x2845)"/><rect x="393.2" y="838.5" width="100.3" height="24.7" fill="url(#bevelr1x2845)" stroke="#2060ff" stroke-width="1" filter="url(#skr1x2845)"/><rect x="508.1"  y="838.1" width="100.3" height="24.7" fill="url(#bevelr1x2845)" stroke="#2060ff" stroke-width="1" filter="url(#skr1x2845)"/><polygon points="371.3,876.7 496.9,877.3 502.8,923.1 363.5,919.7" fill="#003ccc" stroke="#2060ff" stroke-width="2" filter="url(#skr1x2845)"/><polygon points="503.9,879.3 631.0,876.5 636.2,922.4 496.5,920.4" fill="#003ccc" stroke="#2060ff" stroke-width="2" filter="url(#skr1x2845)"/><polygon points="305.7,634.3 695.6,632.9 637.0,681.7 363.9,682.0" fill="#2060ff" fill-opacity=".52" stroke="#2060ff" stroke-width="2" filter="url(#skr1x2845)"/><rect x="463.9" y="636.7" width="72.0" height="42.0" fill="url(#bevelr1x2845)" stroke="#2060ff" stroke-width="1.4" filter="url(#glowr1x2845)"/><rect x="484.5" y="641.5" width="28.0" height="22.0" rx="1" fill="rgba(255,255,255,.48)"/><polygon points="152.7,466.3 235.2,467.1 257.1,735.5 128.4,735.1" fill="url(#suitr1x2845)" stroke="#2060ff" stroke-width="2.2" filter="url(#skr1x2845) url(#metalr1x2845)"/><polygon points="172.3,431.9 254.6,433.9 243.6,511.2 157.9,510.9" fill="url(#bevelr1x2845)" fill-opacity=".72" stroke="#2060ff" stroke-width="2.2" filter="url(#skr1x2845)"/><polygon points="162.7,622.5 244.6,623.6 238.2,660.1 165.0,660.2" fill="#2060ff" fill-opacity=".42" stroke="#2060ff" stroke-width="1" filter="url(#skr1x2845)"/><polygon points="766.4,466.7 845.7,464.9 871.0,736.4 742.9,736.8" fill="url(#suitr1x2845)" stroke="#2060ff" stroke-width="2.2" filter="url(#skr1x2845) url(#metalr1x2845)"/><polygon points="748.6,431.2 825.5,432.7 840.5,509.0 755.8,512.0" fill="url(#bevelr1x2845)" fill-opacity=".72" stroke="#2060ff" stroke-width="2.2" filter="url(#skr1x2845)"/><polygon points="756.8,621.9 837.2,622.3 834.2,659.3 760.5,659.2" fill="#2060ff" fill-opacity=".42" stroke="#2060ff" stroke-width="1" filter="url(#skr1x2845)"/><rect x="121.9"  y="701.5" width="135.3" height="85.0" rx="4" fill="url(#bevelr1x2845)" stroke="#2060ff" stroke-width="1.8" filter="url(#skr1x2845)"/><rect x="749.9"   y="698.8" width="135.3" height="85.0" rx="4" fill="url(#bevelr1x2845)" stroke="#2060ff" stroke-width="1.8" filter="url(#skr1x2845)"/><line x1="150.8" y1="702.1" x2="150.9" y2="785.1" stroke="#2060ff" stroke-opacity=".38" stroke-width="1"/><line x1="778.7" y1="702.1" x2="777.7" y2="782.3" stroke="#2060ff" stroke-opacity=".38" stroke-width="1"/><line x1="182.3" y1="701.7" x2="183.5" y2="783.8" stroke="#2060ff" stroke-opacity=".38" stroke-width="1"/><line x1="812.3" y1="702.7" x2="811.1" y2="783.9" stroke="#2060ff" stroke-opacity=".38" stroke-width="1"/><line x1="215.5" y1="702.4" x2="217.0" y2="784.0" stroke="#2060ff" stroke-opacity=".38" stroke-width="1"/><line x1="845.1" y1="700.9" x2="843.6" y2="783.9" stroke="#2060ff" stroke-opacity=".38" stroke-width="1"/><polygon points="233.5,417.5 765.8,419.0 721.8,663.8 277.0,663.2" fill="url(#suitr1x2845)" stroke="#2060ff" stroke-width="2.6" filter="url(#skr1x2845) url(#metalr1x2845)"/><polygon points="234.2,416.6 766.0,416.4 722.6,661.8 276.9,664.1" fill="url(#carbonr1x2845)"/><polygon points="366.1,415.8 631.9,418.7 612.9,517.1 387.9,514.2" fill="url(#suitHir1x2845)"/><line x1="361.2" y1="471.3" x2="636.1" y2="473.0" stroke="#2060ff" stroke-opacity=".52" stroke-width="1.3" filter="url(#skr1x2845)"/><line x1="399.3" y1="550.9" x2="600.2" y2="548.2" stroke="#2060ff" stroke-opacity=".52" stroke-width="1.3" filter="url(#skr1x2845)"/><line x1="268.5" y1="490.5" x2="320.7" y2="492.6" stroke="#2060ff" stroke-opacity=".62" stroke-width="1.8"/><line x1="681.9" y1="490.0" x2="732.0" y2="492.0" stroke="#2060ff" stroke-opacity=".62" stroke-width="1.8"/><line x1="267.8" y1="523.8" x2="320.1" y2="524.1" stroke="#2060ff" stroke-opacity=".62" stroke-width="1.8"/><line x1="678.7" y1="524.1" x2="732.2" y2="523.0" stroke="#2060ff" stroke-opacity=".62" stroke-width="1.8"/><line x1="266.5" y1="556.2" x2="319.4" y2="554.7" stroke="#2060ff" stroke-opacity=".62" stroke-width="1.8"/><line x1="682.0" y1="556.4" x2="734.4" y2="556.1" stroke="#2060ff" stroke-opacity=".62" stroke-width="1.8"/><line x1="265.7" y1="586.7" x2="318.3" y2="587.6" stroke="#2060ff" stroke-opacity=".62" stroke-width="1.8"/><line x1="681.6" y1="585.5" x2="731.6" y2="587.5" stroke="#2060ff" stroke-opacity=".62" stroke-width="1.8"/><g filter="url(#glowr1x2845)"><path d="M500.0,449.7 C462.3,446.8 442.0,481.6 447.8,513.5 L459.4,542.5 C476.8,536.7 491.3,551.2 500.0,551.2 C508.7,551.2 523.2,536.7 540.6,542.5 L552.2,513.5 C558.0,481.6 537.7,446.8 500.0,449.7 Z" fill="#2060ff" fill-opacity=".92" stroke="#050508" stroke-width="1.3" filter="url(#skr1x2845)"/><path d="M483.8,519.3 Q500.0,533.8 516.2,519.3" stroke="#050508" stroke-width="1" fill="none" opacity=".58"/><ellipse cx="481.4" cy="497.8" rx="8.7" ry="6.4" fill="#050508" opacity=".95"/><ellipse cx="518.6" cy="497.8" rx="8.7" ry="6.4" fill="#050508" opacity=".95"/><ellipse cx="481.4" cy="497.8" rx="2.3" ry="5.8" fill="#2060ff"/><ellipse cx="518.6" cy="497.8" rx="2.3" ry="5.8" fill="#2060ff"/><path d="M471.0,467.1 L458.2,426.5 L481.4,463.0" fill="#2060ff" stroke="#050508" stroke-width=".9"/><path d="M529.0,467.1 L541.8,426.5 L518.6,463.0" fill="#2060ff" stroke="#050508" stroke-width=".9"/><path d="M476.8,452.6 C488.4,449.1 511.6,449.1 523.2,452.6" fill="rgba(255,255,255,.18)"/></g><g><line x1="896.0957386050001" y1="791.0887202108279" x2="914.5746369493753" y2="110.15998369818551" stroke="url(#chromer1x2845)" stroke-width="28.0" stroke-linecap="round" filter="url(#wmr1x2845)"/><line x1="902.3765888107569" y1="771.9664769414812" x2="910.8616546846554" y2="132.72370846169068" stroke="rgba(255,255,255,.42)" stroke-width="5.0" stroke-linecap="round"/><polygon points="870.6,150.0 935.5,153.0 915.8,-7.3" fill="url(#blader1x2845)" stroke="#2060ff" stroke-width="1.8" filter="url(#wmr1x2845)"/><line x1="935.8" y1="151.4" x2="915.8" y2="-8.6" stroke="rgba(255,255,255,.72)" stroke-width="1.6"/><rect x="878.6055674881302" y="420.18760811919344" width="40.0" height="20.0" fill="url(#bevelr1x2845)" stroke="#2060ff" stroke-width="1" filter="url(#wmr1x2845)"/><rect x="878.4342233905196" y="511.7617379938252" width="40.0" height="20.0" fill="url(#bevelr1x2845)" stroke="#2060ff" stroke-width="1" filter="url(#wmr1x2845)"/><rect x="878.8088547136263" y="603.0546613805927" width="40.0" height="20.0" fill="url(#bevelr1x2845)" stroke="#2060ff" stroke-width="1" filter="url(#wmr1x2845)"/><rect x="879.8131097850018" y="691.6221578961238" width="40.0" height="20.0" fill="url(#bevelr1x2845)" stroke="#2060ff" stroke-width="1" filter="url(#wmr1x2845)"/><ellipse cx="899.4891926346905" cy="789.6450071630068" rx="22.0" ry="15.0" fill="url(#bevelr1x2845)" stroke="#2060ff" stroke-width="1" filter="url(#wmr1x2845)"/></g><rect x="449.51626014830543" y="558.5337799190544" width="100.0"  height="56.0" fill="#003ccc" stroke="#2060ff" stroke-width="2.2" filter="url(#skr1x2845)"/><rect x="424.1296597439796" y="574.1496994319372" width="152.0" height="26.0" fill="url(#bevelr1x2845)" fill-opacity=".65" stroke="#2060ff" stroke-width="1.2" filter="url(#skr1x2845)"/><polygon points="306.6,381.7 349.6,292.9 501.1,279.8 648.3,293.6 691.2,379.2 668.0,505.0 500.5,565.8 329.5,502.5" fill="url(#suitr1x2845)" stroke="#2060ff" stroke-width="2.8" filter="url(#skr1x2845) url(#metalr1x2845)"/><polygon points="307.7,382.1 351.5,295.3 499.7,279.5 651.4,295.8 691.0,382.0 667.9,502.5 500.4,566.5 329.4,505.1" fill="url(#carbonr1x2845)"/><polygon points="379.3,301.0 498.4,286.3 619.0,303.6 608.8,381.3 393.1,382.2" fill="url(#suitHir1x2845)"/><polygon points="380.3,380.0 366.0,426.8 432.3,503.4 498.8,527.2 567.9,504.0 634.9,424.5 619.8,382.2" fill="#050508" fill-opacity=".88" stroke="#2060ff" stroke-width="1.8" filter="url(#skr1x2845)"/><polygon points="380.2,410.6 476.2,410.7 485.9,439.2 387.9,439.2" fill="#2060ff" filter="url(#glowr1x2845)"/><polygon points="523.4,412.4 618.8,410.8 609.6,438.6 516.9,440.7" fill="#2060ff" filter="url(#glowr1x2845)"/><ellipse cx="430.9" cy="425.7" rx="38.4"  ry="8.2" fill="#ffffff" opacity=".88"/><ellipse cx="569.1" cy="425.7" rx="38.4"  ry="8.2" fill="#ffffff" opacity=".88"/><line x1="485.8024275194481" y1="414.5121672861278" x2="515.0979319787026" y2="413.99986548330634" stroke="#2060ff" stroke-opacity=".52" stroke-width="2"/><line x1="483.3785009197518" y1="439.7446924016811" x2="516.3363877025805" y2="439.26997032528743" stroke="#2060ff" stroke-opacity=".52" stroke-width="2"/><line x1="498.5694775925949" y1="453.03968004574995" x2="501.65819646166636" y2="482.08364189798016" stroke="#2060ff" stroke-opacity=".58" stroke-width="2.2" filter="url(#skr1x2845)"/><line x1="455.59670042235405" y1="492.7319371754303" x2="453.3550641896017" y2="519.9099801570177" stroke="#2060ff" stroke-opacity=".52" stroke-width="1.5" filter="url(#skr1x2845)"/><line x1="477.320315082781" y1="489.82635610383" x2="478.1285191480443" y2="519.101366474852" stroke="#2060ff" stroke-opacity=".52" stroke-width="1.5" filter="url(#skr1x2845)"/><line x1="501.3494799355976" y1="492.4443931330926" x2="501.6614075151272" y2="520.2576808158308" stroke="#2060ff" stroke-opacity=".52" stroke-width="1.5" filter="url(#skr1x2845)"/><line x1="522.0754292704723" y1="490.8071589076891" x2="521.8181039789318" y2="520.7331553901546" stroke="#2060ff" stroke-opacity=".52" stroke-width="1.5" filter="url(#skr1x2845)"/><line x1="547.3528130904958" y1="492.11889903927215" x2="547.5220408321545" y2="519.8197896836325" stroke="#2060ff" stroke-opacity=".52" stroke-width="1.5" filter="url(#skr1x2845)"/><polygon points="432.8,502.7 567.2,503.9 552.8,557.4 445.6,555.8" fill="#003ccc" fill-opacity=".72" stroke="#2060ff" stroke-width="1.3" filter="url(#skr1x2845)"/><polygon points="316.7,303.2 362.2,303.4 337.6,195.0" fill="url(#bevelr1x2845)" fill-opacity=".95" stroke="#2060ff" stroke-width="1.6" filter="url(#skr1x2845) url(#glowr1x2845)"/><polygon points="394.9,304.4 442.2,305.0 419.0,209.5" fill="url(#bevelr1x2845)" fill-opacity=".95" stroke="#2060ff" stroke-width="1.6" filter="url(#skr1x2845) url(#glowr1x2845)"/><polygon points="475.3,305.0 522.2,305.9 500.4,220.7" fill="url(#bevelr1x2845)" fill-opacity=".95" stroke="#2060ff" stroke-width="1.6" filter="url(#skr1x2845) url(#glowr1x2845)"/><polygon points="557.2,306.5 604.7,306.1 580.5,209.2" fill="url(#bevelr1x2845)" fill-opacity=".95" stroke="#2060ff" stroke-width="1.6" filter="url(#skr1x2845) url(#glowr1x2845)"/><polygon points="637.7,304.9 684.8,306.3 661.2,193.8" fill="url(#bevelr1x2845)" fill-opacity=".95" stroke="#2060ff" stroke-width="1.6" filter="url(#skr1x2845) url(#glowr1x2845)"/><text x="30.0"  y="975.0" font-family="monospace" font-weight="bold" font-size="22.0" fill="rgba(255,255,255,.22)">#0001</text><text x="500.0"   y="975.0" text-anchor="middle" font-family="monospace" font-weight="bold" font-size="22.0" fill="#2060ff" fill-opacity=".48">COBALT RANGER</text><text x="970.0" y="975.0" text-anchor="end"    font-family="monospace" font-weight="bold" font-size="22.0" fill="#2060ff" fill-opacity=".32">MECH RANGERS</text></svg>