<svg xmlns="http://www.w3.org/2000/svg" viewBox="0 0 1000 1000" width="1000" height="1000" shape-rendering="geometricPrecision"><defs>

  <!-- Scene gradients -->
  <radialGradient id="bgr1x2846" cx="50%" cy="42%" r="72%">
    <stop offset="0%"   stop-color="#0a1420"/>
    <stop offset="100%" stop-color="#050d14"/>
  </radialGradient>
  <linearGradient id="suitr1x2846" x1="8%" y1="0%" x2="92%" y2="100%">
    <stop offset="0%"   stop-color="#2060ff" stop-opacity=".95"/>
    <stop offset="45%"  stop-color="#003ccc"/>
    <stop offset="100%" stop-color="#050d14"/>
  </linearGradient>
  <linearGradient id="suitHir1x2846" x1="0%" y1="0%" x2="0%" y2="100%">
    <stop offset="0%"   stop-color="rgba(255,255,255,.28)"/>
    <stop offset="60%"  stop-color="rgba(255,255,255,.04)"/>
    <stop offset="100%" stop-color="rgba(255,255,255,0)"/>
  </linearGradient>
  <!-- Bevel: bright top, dark bottom for armour panels -->
  <linearGradient id="bevelr1x2846" x1="0%" y1="0%" x2="0%" y2="100%">
    <stop offset="0%"   stop-color="rgba(255,255,255,.55)"/>
    <stop offset="30%"  stop-color="#2060ff"/>
    <stop offset="70%"  stop-color="#003ccc"/>
    <stop offset="100%" stop-color="rgba(0,0,0,.5)"/>
  </linearGradient>

  <!-- Weapon: cold steel blade sweep -->
  <linearGradient id="blader1x2846" x1="0%" y1="0%" x2="100%" y2="0%">
    <stop offset="0%"   stop-color="#0e0e20"/>
    <stop offset="16%"  stop-color="#3e3e58"/>
    <stop offset="34%"  stop-color="#c8c8e0"/>
    <stop offset="50%"  stop-color="#f5f5ff"/>
    <stop offset="66%"  stop-color="#b8b8d0"/>
    <stop offset="84%"  stop-color="#2e2e48"/>
    <stop offset="100%" stop-color="#08080e"/>
  </linearGradient>
  <!-- Blade tip brightening -->
  <linearGradient id="bladeTipr1x2846" x1="0%" y1="100%" x2="0%" y2="0%">
    <stop offset="0%"   stop-color="rgba(255,255,255,0)"/>
    <stop offset="55%"  stop-color="rgba(255,255,255,.1)"/>
    <stop offset="100%" stop-color="rgba(255,255,255,.55)"/>
  </linearGradient>
  <!-- Gunmetal anodised — blaster body -->
  <linearGradient id="gunmetalr1x2846" x1="0%" y1="0%" x2="0%" y2="100%">
    <stop offset="0%"   stop-color="#46465e"/>
    <stop offset="18%"  stop-color="#828296"/>
    <stop offset="42%"  stop-color="#26263a"/>
    <stop offset="72%"  stop-color="#16162a"/>
    <stop offset="100%" stop-color="#0c0c18"/>
  </linearGradient>
  <!-- Brushed steel tube — barrel/rod -->
  <linearGradient id="barrelr1x2846" x1="0%" y1="0%" x2="100%" y2="0%">
    <stop offset="0%"   stop-color="#0a0a14"/>
    <stop offset="24%"  stop-color="#585875"/>
    <stop offset="50%"  stop-color="#a8a8c8"/>
    <stop offset="76%"  stop-color="#383852"/>
    <stop offset="100%" stop-color="#0a0a14"/>
  </linearGradient>
  <!-- Chrome rod — lance shaft -->
  <linearGradient id="chromer1x2846" x1="0%" y1="0%" x2="100%" y2="0%">
    <stop offset="0%"   stop-color="#0c0c18"/>
    <stop offset="20%"  stop-color="#686888"/>
    <stop offset="44%"  stop-color="#e0e0f0"/>
    <stop offset="56%"  stop-color="#c0c0d8"/>
    <stop offset="80%"  stop-color="#28283e"/>
    <stop offset="100%" stop-color="#0c0c18"/>
  </linearGradient>
  <!-- Titanium plate — shield face -->
  <linearGradient id="titaniumr1x2846" x1="0%" y1="0%" x2="100%" y2="100%">
    <stop offset="0%"   stop-color="#585878"/>
    <stop offset="28%"  stop-color="#2060ff" stop-opacity=".88"/>
    <stop offset="55%"  stop-color="#003ccc"/>
    <stop offset="80%"  stop-color="#181828"/>
    <stop offset="100%" stop-color="#0a0a18"/>
  </linearGradient>
  <!-- Artillery black-chrome — cannon body -->
  <linearGradient id="artilleryr1x2846" x1="0%" y1="0%" x2="0%" y2="100%">
    <stop offset="0%"   stop-color="#383850"/>
    <stop offset="14%"  stop-color="#78789a"/>
    <stop offset="36%"  stop-color="#202034"/>
    <stop offset="65%"  stop-color="#14141e"/>
    <stop offset="100%" stop-color="#0a0a12"/>
  </linearGradient>
  <!-- Energy orb — staff -->
  <radialGradient id="orbr1x2846" cx="35%" cy="35%" r="65%">
    <stop offset="0%"   stop-color="rgba(255,255,255,.9)"/>
    <stop offset="30%"  stop-color="#2060ff"/>
    <stop offset="68%"  stop-color="#003ccc"/>
    <stop offset="100%" stop-color="rgba(0,0,0,.6)"/>
  </radialGradient>
  <!-- Knuckle plate chrome -->
  <linearGradient id="knuckler1x2846" x1="0%" y1="0%" x2="0%" y2="100%">
    <stop offset="0%"   stop-color="#888aaa"/>
    <stop offset="32%"  stop-color="#2060ff" stop-opacity=".8"/>
    <stop offset="62%"  stop-color="#1a1a2c"/>
    <stop offset="100%" stop-color="#0a0a14"/>
  </linearGradient>

  <!-- Carbon fibre weave texture overlay -->
  <pattern id="carbonr1x2846" width="6" height="6" patternUnits="userSpaceOnUse">
    <rect width="6" height="6" fill="rgba(0,0,0,.08)"/>
    <rect x="0" y="0" width="3" height="3" fill="rgba(255,255,255,.022)"/>
    <rect x="3" y="3" width="3" height="3" fill="rgba(255,255,255,.022)"/>
    <line x1="0" y1="0" x2="3" y2="3" stroke="rgba(255,255,255,.038)" stroke-width=".5"/>
    <line x1="3" y1="0" x2="6" y2="3" stroke="rgba(0,0,0,.055)"       stroke-width=".5"/>
    <line x1="0" y1="3" x2="3" y2="6" stroke="rgba(0,0,0,.055)"       stroke-width=".5"/>
    <line x1="3" y1="3" x2="6" y2="6" stroke="rgba(255,255,255,.038)" stroke-width=".5"/>
  </pattern>

  <!-- Specular metal sheen on armour panels -->
  <filter id="metalr1x2846" x="-5%" y="-5%" width="110%" height="110%">
    <feSpecularLighting surfaceScale="4" specularConstant="1.8"
        specularExponent="42" lighting-color="#ffffff" result="spec">
      <feDistantLight elevation="52" azimuth="38"/>
    </feSpecularLighting>
    <feComposite in="spec" in2="SourceGraphic" operator="in" result="sm"/>
    <feComposite in="SourceGraphic" in2="sm" operator="arithmetic" k1="0" k2="1" k3="0.55" k4="0"/>
  </filter>

  <!-- Sharper specular for weapons — heavier glare -->
  <filter id="wmr1x2846" x="-8%" y="-8%" width="116%" height="116%">
    <feSpecularLighting surfaceScale="6" specularConstant="2.4"
        specularExponent="65" lighting-color="#ffffff" result="spec">
      <feDistantLight elevation="44" azimuth="28"/>
    </feSpecularLighting>
    <feComposite in="spec" in2="SourceGraphic" operator="in" result="sm"/>
    <feComposite in="SourceGraphic" in2="sm" operator="arithmetic" k1="0" k2="1" k3="0.78" k4="0"/>
  </filter>

  <!-- Sketch wobble -->
  <filter id="skr1x2846" x="-8%" y="-8%" width="116%" height="116%">
    <feTurbulence type="fractalNoise" baseFrequency="0.038"
        numOctaves="3" seed="25" result="noise"/>
    <feDisplacementMap in="SourceGraphic" in2="noise" scale="2.6"
        xChannelSelector="R" yChannelSelector="G" result="w"/>
    <feComposite in="w" in2="SourceGraphic" operator="atop"/>
  </filter>

  <!-- Glow: sharp accent -->
  <filter id="glowr1x2846" x="-20%" y="-20%" width="140%" height="140%">
    <feGaussianBlur stdDeviation="3.5" result="b"/>
    <feColorMatrix in="b" type="matrix"
        values="0 0 0 0 1  0 0 0 0 1  0 0 0 0 1  0 0 0 1.8 0" result="boost"/>
    <feMerge><feMergeNode in="boost"/><feMergeNode in="SourceGraphic"/></feMerge>
  </filter>

  <!-- Bloom: wide soft -->
  <filter id="bloomr1x2846" x="-40%" y="-40%" width="180%" height="180%">
    <feGaussianBlur stdDeviation="11" result="b"/>
    <feMerge><feMergeNode in="b"/><feMergeNode in="SourceGraphic"/></feMerge>
  </filter>

  </defs><rect width="1000" height="1000" fill="url(#bgr1x2846)"/><polygon points="79.14481793064624,119.55420788377523 113.0290345409885,99.72200297564268 133.98663460556418,121.91715297289193" fill="#2060ff" fill-opacity=".055" stroke="#2060ff" stroke-opacity=".1" stroke-width="1"/><polygon points="348.9885845826939,468.70877510868013 376.42354516591877,435.52899476420134 384.219655867666,475.3551946487278" fill="#2060ff" fill-opacity=".055" stroke="#2060ff" stroke-opacity=".1" stroke-width="1"/><polygon points="258.4782204637304,1.6668448317795992 269.5160979432985,-38.11621937621385 291.4572134455666,1.5084902103990316" fill="#2060ff" fill-opacity=".055" stroke="#2060ff" stroke-opacity=".1" stroke-width="1"/><polygon points="343.9240196021274,121.73270294908434 364.46777143795043,72.9964589541778 378.0773456702009,112.31850254815072" fill="#2060ff" fill-opacity=".055" stroke="#2060ff" stroke-opacity=".1" stroke-width="1"/><polygon points="200.49314887728542,74.92802900727838 206.76955480873585,36.709245739504695 242.21895033773035,68.22042091283947" fill="#2060ff" fill-opacity=".055" stroke="#2060ff" stroke-opacity=".1" stroke-width="1"/><polygon points="565.7788253715262,155.48131660092622 575.1660944595933,123.78785485681146 593.9357578177005,169.27391122095287" fill="#2060ff" fill-opacity=".055" stroke="#2060ff" stroke-opacity=".1" stroke-width="1"/><polygon points="786.1338958330452,328.97020117379725 821.5274891750887,284.3468597885221 840.1720478832722,312.5526441447437" fill="#2060ff" fill-opacity=".055" stroke="#2060ff" stroke-opacity=".1" stroke-width="1"/><polygon points="525.7647783635184,486.08406270388514 558.0737789282575,457.10283081326634 581.774128110148,492.1921772137284" fill="#2060ff" fill-opacity=".055" stroke="#2060ff" stroke-opacity=".1" stroke-width="1"/><ellipse cx="500.0" cy="892.0" rx="350.0" ry="65.0" fill="rgba(0,0,0,.7)" filter="url(#bloomr1x2846)"/><ellipse cx="500.0" cy="889.0" rx="220.0" ry="34.0" fill="rgba(0,0,0,.45)"/><ellipse cx="500.0" cy="520.0" rx="320.0" ry="480.0" fill="#00e5ff" fill-opacity=".042" filter="url(#bloomr1x2846)"/><circle cx="585.3" cy="253.2" r="4.0" fill="#00e5ff" fill-opacity="0.46" filter="url(#glowr1x2846)"/><circle cx="741.9" cy="479.2" r="2.1" fill="#00e5ff" fill-opacity="0.58" filter="url(#glowr1x2846)"/><circle cx="292.0" cy="210.0" r="1.2" fill="#00e5ff" fill-opacity="0.55" filter="url(#glowr1x2846)"/><circle cx="367.0" cy="519.0" r="3.1" fill="#00e5ff" fill-opacity="0.89" filter="url(#glowr1x2846)"/><circle cx="590.6" cy="313.0" r="0.8" fill="#00e5ff" fill-opacity="0.68" filter="url(#glowr1x2846)"/><circle cx="529.3" cy="267.1" r="1.6" fill="#00e5ff" fill-opacity="0.62" filter="url(#glowr1x2846)"/><circle cx="629.8" cy="263.5" r="4.2" fill="#00e5ff" fill-opacity="0.54" filter="url(#glowr1x2846)"/><circle cx="552.2" cy="704.4" r="3.7" fill="#00e5ff" fill-opacity="0.75" filter="url(#glowr1x2846)"/><circle cx="584.9" cy="254.2" r="3.2" fill="#00e5ff" fill-opacity="0.44" filter="url(#glowr1x2846)"/><circle cx="537.6" cy="637.8" r="0.9" fill="#00e5ff" fill-opacity="0.86" filter="url(#glowr1x2846)"/><circle cx="332.3" cy="579.5" r="3.5" fill="#00e5ff" fill-opacity="0.83" filter="url(#glowr1x2846)"/><circle cx="514.0" cy="580.8" r="3.6" fill="#00e5ff" fill-opacity="0.81" filter="url(#glowr1x2846)"/><circle cx="359.5" cy="257.8" r="3.6" fill="#00e5ff" fill-opacity="0.86" filter="url(#glowr1x2846)"/><circle cx="512.3" cy="657.3" r="0.8" fill="#00e5ff" fill-opacity="0.42" filter="url(#glowr1x2846)"/><path d="M434.0,367.8 Q473.2,647.7 362.9,887.4" stroke="#00e5ff" stroke-opacity="0.47" stroke-width="2.3" fill="none" filter="url(#glowr1x2846)"/><path d="M684.5,368.3 Q656.1,610.0 446.4,851.2" stroke="#00e5ff" stroke-opacity="0.41" stroke-width="1.8" fill="none" filter="url(#glowr1x2846)"/><path d="M512.7,325.0 Q543.7,598.8 470.8,891.9" stroke="#00e5ff" stroke-opacity="0.41" stroke-width="1.0" fill="none" filter="url(#glowr1x2846)"/><path d="M654.2,359.9 Q627.2,591.4 703.8,801.9" stroke="#00e5ff" stroke-opacity="0.70" stroke-width="2.9" fill="none" filter="url(#glowr1x2846)"/><path d="M530.4,202.4 Q489.4,499.8 408.6,753.6" stroke="#00e5ff" stroke-opacity="0.47" stroke-width="2.1" fill="none" filter="url(#glowr1x2846)"/><polygon points="397.1,664.0 489.9,660.9 481.0,878.1 388.2,876.6" fill="url(#suitr1x2846)" stroke="#2060ff" stroke-width="2.2" filter="url(#skr1x2846) url(#metalr1x2846)"/><polygon points="399.2,663.0 488.7,661.6 480.2,876.9 387.9,875.9" fill="url(#carbonr1x2846)"/><polygon points="394.4,722.6 491.9,724.1 483.0,789.5 384.2,789.6" fill="url(#bevelr1x2846)" fill-opacity=".5" stroke="#2060ff" stroke-width="1.4" filter="url(#skr1x2846)"/><polygon points="509.8,663.9 600.6,662.6 614.2,878.7 517.9,876.4" fill="url(#suitr1x2846)" stroke="#2060ff" stroke-width="2.2" filter="url(#skr1x2846) url(#metalr1x2846)"/><polygon points="508.8,662.0 602.1,662.9 612.3,878.1 520.8,879.0" fill="url(#carbonr1x2846)"/><polygon points="507.3,722.3 609.1,724.9 616.2,788.6 515.9,786.9" fill="url(#bevelr1x2846)" fill-opacity=".5" stroke="#2060ff" stroke-width="1.4" filter="url(#skr1x2846)"/><rect x="390.8" y="837.6" width="100.3" height="24.7" fill="url(#bevelr1x2846)" stroke="#2060ff" stroke-width="1" filter="url(#skr1x2846)"/><rect x="508.8"  y="837.0" width="100.3" height="24.7" fill="url(#bevelr1x2846)" stroke="#2060ff" stroke-width="1" filter="url(#skr1x2846)"/><polygon points="369.8,876.2 496.7,878.6 504.2,920.6 362.0,919.7" fill="#003ccc" stroke="#2060ff" stroke-width="2" filter="url(#skr1x2846)"/><polygon points="504.2,878.2 630.5,876.6 638.3,921.3 496.3,919.8" fill="#003ccc" stroke="#2060ff" stroke-width="2" filter="url(#skr1x2846)"/><polygon points="305.0,634.7 696.9,634.0 636.2,683.3 363.9,683.1" fill="#2060ff" fill-opacity=".52" stroke="#2060ff" stroke-width="2" filter="url(#skr1x2846)"/><rect x="465.4" y="638.6" width="72.0" height="42.0" fill="url(#bevelr1x2846)" stroke="#2060ff" stroke-width="1.4" filter="url(#glowr1x2846)"/><rect x="486.0" y="641.1" width="28.0" height="22.0" rx="1" fill="rgba(255,255,255,.48)"/><polygon points="152.3,466.0 236.5,466.1 259.4,735.8 128.2,735.5" fill="url(#suitr1x2846)" stroke="#2060ff" stroke-width="2.2" filter="url(#skr1x2846) url(#metalr1x2846)"/><polygon points="174.0,433.5 253.1,433.7 245.0,509.7 159.9,510.1" fill="url(#bevelr1x2846)" fill-opacity=".72" stroke="#2060ff" stroke-width="2.2" filter="url(#skr1x2846)"/><polygon points="162.5,622.3 244.8,622.7 240.9,660.5 165.8,660.2" fill="#2060ff" fill-opacity=".42" stroke="#2060ff" stroke-width="1" filter="url(#skr1x2846)"/><polygon points="766.2,465.7 848.6,466.0 872.3,736.0 742.5,736.1" fill="url(#suitr1x2846)" stroke="#2060ff" stroke-width="2.2" filter="url(#skr1x2846) url(#metalr1x2846)"/><polygon points="746.4,432.6 826.7,431.6 840.3,509.8 756.9,512.0" fill="url(#bevelr1x2846)" fill-opacity=".72" stroke="#2060ff" stroke-width="2.2" filter="url(#skr1x2846)"/><polygon points="757.1,622.8 839.8,622.5 835.7,662.5 762.1,659.1" fill="#2060ff" fill-opacity=".42" stroke="#2060ff" stroke-width="1" filter="url(#skr1x2846)"/><rect x="119.6"  y="700.3" width="135.3" height="85.0" rx="4" fill="url(#bevelr1x2846)" stroke="#2060ff" stroke-width="1.8" filter="url(#skr1x2846)"/><rect x="749.8"   y="699.2" width="135.3" height="85.0" rx="4" fill="url(#bevelr1x2846)" stroke="#2060ff" stroke-width="1.8" filter="url(#skr1x2846)"/><line x1="149.1" y1="703.0" x2="151.5" y2="785.2" stroke="#2060ff" stroke-opacity=".38" stroke-width="1"/><line x1="779.6" y1="701.0" x2="777.6" y2="784.8" stroke="#2060ff" stroke-opacity=".38" stroke-width="1"/><line x1="182.8" y1="702.3" x2="184.0" y2="783.1" stroke="#2060ff" stroke-opacity=".38" stroke-width="1"/><line x1="812.3" y1="702.2" x2="812.1" y2="785.1" stroke="#2060ff" stroke-opacity=".38" stroke-width="1"/><line x1="214.9" y1="702.1" x2="214.4" y2="783.0" stroke="#2060ff" stroke-opacity=".38" stroke-width="1"/><line x1="844.3" y1="702.7" x2="843.9" y2="783.8" stroke="#2060ff" stroke-opacity=".38" stroke-width="1"/><polygon points="233.3,416.6 766.8,418.6 722.1,663.1 277.3,661.3" fill="url(#suitr1x2846)" stroke="#2060ff" stroke-width="2.6" filter="url(#skr1x2846) url(#metalr1x2846)"/><polygon points="236.7,416.6 766.3,417.2 723.4,662.6 276.0,661.3" fill="url(#carbonr1x2846)"/><polygon points="367.7,416.6 632.7,417.5 612.5,514.2 388.6,513.8" fill="url(#suitHir1x2846)"/><line x1="363.6" y1="470.1" x2="639.1" y2="470.6" stroke="#2060ff" stroke-opacity=".52" stroke-width="1.3" filter="url(#skr1x2846)"/><line x1="399.1" y1="548.0" x2="602.1" y2="549.4" stroke="#2060ff" stroke-opacity=".52" stroke-width="1.3" filter="url(#skr1x2846)"/><line x1="266.4" y1="490.6" x2="320.0" y2="492.7" stroke="#2060ff" stroke-opacity=".62" stroke-width="1.8"/><line x1="680.8" y1="489.8" x2="732.5" y2="491.5" stroke="#2060ff" stroke-opacity=".62" stroke-width="1.8"/><line x1="265.1" y1="524.2" x2="321.5" y2="522.1" stroke="#2060ff" stroke-opacity=".62" stroke-width="1.8"/><line x1="681.9" y1="521.8" x2="732.7" y2="522.5" stroke="#2060ff" stroke-opacity=".62" stroke-width="1.8"/><line x1="267.3" y1="553.9" x2="321.1" y2="553.7" stroke="#2060ff" stroke-opacity=".62" stroke-width="1.8"/><line x1="679.4" y1="553.5" x2="731.6" y2="553.1" stroke="#2060ff" stroke-opacity=".62" stroke-width="1.8"/><line x1="268.0" y1="585.3" x2="321.1" y2="587.5" stroke="#2060ff" stroke-opacity=".62" stroke-width="1.8"/><line x1="679.8" y1="587.8" x2="733.3" y2="586.3" stroke="#2060ff" stroke-opacity=".62" stroke-width="1.8"/><g filter="url(#glowr1x2846)"><polygon points="498.2,453.7 542.4,512.1 500.0,570.1 458.7,512.1" fill="#2060ff" stroke="#050d14" stroke-width="1.4" filter="url(#skr1x2846)"/><polygon points="499.1,452.4 542.3,511.7 499.7,567.6 456.9,511.0" fill="url(#suitHir1x2846)" opacity=".45"/></g><g><rect x="839.2153521918319" y="396.39807114051655" width="175.0" height="118.0" rx="7" fill="url(#artilleryr1x2846)" stroke="#2060ff" stroke-width="2.6" filter="url(#wmr1x2846)"/><rect x="838.113274798505" y="396.06006774939596" width="175.0" height="118.0" rx="7" fill="url(#carbonr1x2846)"/><rect x="981.16882175399" y="447.5634545356966" width="78.0" height="32.0" rx="6" fill="url(#barrelr1x2846)" stroke="#2060ff" stroke-width="1.4" filter="url(#wmr1x2846)"/><circle cx="881.588860561382" cy="472.2368124722503" r="48.0" fill="rgba(0,0,0,.55)" stroke="#2060ff" stroke-width="2" filter="url(#wmr1x2846)"/><circle cx="880.6897784736567" cy="470.0413383717648" r="34.0" fill="#2060ff" fill-opacity=".4" filter="url(#bloomr1x2846)"/><circle cx="883.6205239003152" cy="470.6177492825314" r="18.0" fill="#2060ff" filter="url(#glowr1x2846)"/><rect x="843.0649942793511" y="379.9648910109885" width="100.0" height="18.0" rx="2" fill="url(#bevelr1x2846)" stroke="#2060ff" stroke-width="1" filter="url(#wmr1x2846)"/><rect x="841.6222896295227" y="399.37347859628494" width="120.0" height="12.0" rx="3" fill="rgba(255,255,255,.2)"/><line x1="849.1091227287985" y1="520.6691377676092" x2="848.4188738885895" y2="549.4207865180448" stroke="#2060ff" stroke-opacity=".6" stroke-width="2"/><line x1="870.9959237461537" y1="518.5489096865989" x2="870.3968372635171" y2="548.2343826618045" stroke="#2060ff" stroke-opacity=".6" stroke-width="2"/><line x1="895.0782968467661" y1="520.1973127937875" x2="895.6294005857409" y2="547.759374098666" stroke="#2060ff" stroke-opacity=".6" stroke-width="2"/><line x1="920.0557137313858" y1="519.1854820426553" x2="921.5579371429608" y2="549.8640309555456" stroke="#2060ff" stroke-opacity=".6" stroke-width="2"/></g><rect x="451.37031173687427" y="558.6016755400225" width="100.0"  height="56.0" fill="#003ccc" stroke="#2060ff" stroke-width="2.2" filter="url(#skr1x2846)"/><rect x="424.50132133616137" y="573.6166039671749" width="152.0" height="26.0" fill="url(#bevelr1x2846)" fill-opacity=".65" stroke="#2060ff" stroke-width="1.2" filter="url(#skr1x2846)"/><polygon points="309.6,379.6 349.3,293.0 501.5,278.2 648.3,295.7 693.0,379.2 668.8,503.3 499.6,564.4 331.1,503.6" fill="url(#suitr1x2846)" stroke="#2060ff" stroke-width="2.8" filter="url(#skr1x2846) url(#metalr1x2846)"/><polygon points="307.6,379.5 350.7,294.1 498.6,276.7 650.3,294.7 691.3,379.6 669.3,503.2 500.4,565.2 331.2,505.1" fill="url(#carbonr1x2846)"/><polygon points="381.3,304.2 501.7,287.0 618.8,301.2 608.7,381.3 392.6,381.1" fill="url(#suitHir1x2846)"/><polygon points="382.7,381.8 366.3,426.0 433.3,503.5 501.0,529.7 568.5,502.9 635.4,427.2 617.7,379.1" fill="#050d14" fill-opacity=".88" stroke="#2060ff" stroke-width="1.8" filter="url(#skr1x2846)"/><polygon points="380.6,410.4 475.3,411.1 485.6,438.6 389.5,441.3" fill="#2060ff" filter="url(#glowr1x2846)"/><polygon points="524.3,409.7 620.3,412.8 611.2,438.7 516.8,438.6" fill="#2060ff" filter="url(#glowr1x2846)"/><ellipse cx="430.9" cy="425.7" rx="38.4"  ry="8.2" fill="#ffffff" opacity=".88"/><ellipse cx="569.1" cy="425.7" rx="38.4"  ry="8.2" fill="#ffffff" opacity=".88"/><line x1="483.58358512051404" y1="413.59829986402764" x2="516.0673003008961" y2="413.2139708231203" stroke="#2060ff" stroke-opacity=".52" stroke-width="2"/><line x1="483.7472009818628" y1="437.74750678343696" x2="516.6851720140688" y2="438.1944043083116" stroke="#2060ff" stroke-opacity=".52" stroke-width="2"/><line x1="499.1279779177159" y1="454.8249400356784" x2="500.2410005033016" y2="484.03800551788885" stroke="#2060ff" stroke-opacity=".58" stroke-width="2.2" filter="url(#skr1x2846)"/><line x1="454.21761399291455" y1="491.67043818635864" x2="453.45663506964223" y2="521.3975017883815" stroke="#2060ff" stroke-opacity=".52" stroke-width="1.5" filter="url(#skr1x2846)"/><line x1="476.5275718679093" y1="490.19978806795547" x2="476.5470396234095" y2="519.4856616470031" stroke="#2060ff" stroke-opacity=".52" stroke-width="1.5" filter="url(#skr1x2846)"/><line x1="500.5753687066026" y1="492.8631080977618" x2="501.64888607412576" y2="519.1685783856549" stroke="#2060ff" stroke-opacity=".52" stroke-width="1.5" filter="url(#skr1x2846)"/><line x1="522.771231101416" y1="490.6088272628374" x2="524.6296392017603" y2="519.567014055606" stroke="#2060ff" stroke-opacity=".52" stroke-width="1.5" filter="url(#skr1x2846)"/><line x1="544.675271528326" y1="489.9839325642213" x2="546.932594357077" y2="518.4033055910841" stroke="#2060ff" stroke-opacity=".52" stroke-width="1.5" filter="url(#skr1x2846)"/><polygon points="431.5,504.7 567.0,504.6 552.5,556.4 445.8,556.1" fill="#003ccc" fill-opacity=".72" stroke="#2060ff" stroke-width="1.3" filter="url(#skr1x2846)"/><path d="M388.46168931374325 328.7757026223466 Q331.4807308991998 216.91749503407627 380.83013692278416 140.6823418006301" stroke="#2060ff" stroke-width="5" fill="none" stroke-linecap="round" filter="url(#skr1x2846)"/><path d="M387.9757270314358 326.3722480273806 Q329.43950496796515 217.3581895080395 382.43776264352726 139.2421026535332" stroke="rgba(255,255,255,.25)" stroke-width="1.5" fill="none" stroke-linecap="round"/><path d="M611.2819449767843 326.869135697186 Q669.5618494437449 215.4643750844523 618.299849402029 140.73862251862883" stroke="#2060ff" stroke-width="5" fill="none" stroke-linecap="round" filter="url(#skr1x2846)"/><path d="M609.5798720985092 325.9324347345159 Q667.8070434829593 217.61974140275268 620.6023126593418 139.1746553780511" stroke="rgba(255,255,255,.25)" stroke-width="1.5" fill="none" stroke-linecap="round"/><text x="30.0"  y="975.0" font-family="monospace" font-weight="bold" font-size="22.0" fill="rgba(255,255,255,.22)">#0001</text><text x="500.0"   y="975.0" text-anchor="middle" font-family="monospace" font-weight="bold" font-size="22.0" fill="#2060ff" fill-opacity=".48">COBALT RANGER</text><text x="970.0" y="975.0" text-anchor="end"    font-family="monospace" font-weight="bold" font-size="22.0" fill="#2060ff" fill-opacity=".32">MECH RANGERS</text></svg>