<svg xmlns="http://www.w3.org/2000/svg" viewBox="0 0 1000 1000" width="1000" height="1000" shape-rendering="geometricPrecision"><defs>

  <!-- Scene gradients -->
  <radialGradient id="bgr1x2960" cx="50%" cy="42%" r="72%">
    <stop offset="0%"   stop-color="#0a1420"/>
    <stop offset="100%" stop-color="#050d14"/>
  </radialGradient>
  <linearGradient id="suitr1x2960" x1="8%" y1="0%" x2="92%" y2="100%">
    <stop offset="0%"   stop-color="#00ff60" stop-opacity=".95"/>
    <stop offset="45%"  stop-color="#00441e"/>
    <stop offset="100%" stop-color="#050d14"/>
  </linearGradient>
  <linearGradient id="suitHir1x2960" x1="0%" y1="0%" x2="0%" y2="100%">
    <stop offset="0%"   stop-color="rgba(255,255,255,.28)"/>
    <stop offset="60%"  stop-color="rgba(255,255,255,.04)"/>
    <stop offset="100%" stop-color="rgba(255,255,255,0)"/>
  </linearGradient>
  <!-- Bevel: bright top, dark bottom for armour panels -->
  <linearGradient id="bevelr1x2960" x1="0%" y1="0%" x2="0%" y2="100%">
    <stop offset="0%"   stop-color="rgba(255,255,255,.55)"/>
    <stop offset="30%"  stop-color="#00ff60"/>
    <stop offset="70%"  stop-color="#00441e"/>
    <stop offset="100%" stop-color="rgba(0,0,0,.5)"/>
  </linearGradient>

  <!-- Weapon: cold steel blade sweep -->
  <linearGradient id="blader1x2960" x1="0%" y1="0%" x2="100%" y2="0%">
    <stop offset="0%"   stop-color="#0e0e20"/>
    <stop offset="16%"  stop-color="#3e3e58"/>
    <stop offset="34%"  stop-color="#c8c8e0"/>
    <stop offset="50%"  stop-color="#f5f5ff"/>
    <stop offset="66%"  stop-color="#b8b8d0"/>
    <stop offset="84%"  stop-color="#2e2e48"/>
    <stop offset="100%" stop-color="#08080e"/>
  </linearGradient>
  <!-- Blade tip brightening -->
  <linearGradient id="bladeTipr1x2960" x1="0%" y1="100%" x2="0%" y2="0%">
    <stop offset="0%"   stop-color="rgba(255,255,255,0)"/>
    <stop offset="55%"  stop-color="rgba(255,255,255,.1)"/>
    <stop offset="100%" stop-color="rgba(255,255,255,.55)"/>
  </linearGradient>
  <!-- Gunmetal anodised — blaster body -->
  <linearGradient id="gunmetalr1x2960" x1="0%" y1="0%" x2="0%" y2="100%">
    <stop offset="0%"   stop-color="#46465e"/>
    <stop offset="18%"  stop-color="#828296"/>
    <stop offset="42%"  stop-color="#26263a"/>
    <stop offset="72%"  stop-color="#16162a"/>
    <stop offset="100%" stop-color="#0c0c18"/>
  </linearGradient>
  <!-- Brushed steel tube — barrel/rod -->
  <linearGradient id="barrelr1x2960" x1="0%" y1="0%" x2="100%" y2="0%">
    <stop offset="0%"   stop-color="#0a0a14"/>
    <stop offset="24%"  stop-color="#585875"/>
    <stop offset="50%"  stop-color="#a8a8c8"/>
    <stop offset="76%"  stop-color="#383852"/>
    <stop offset="100%" stop-color="#0a0a14"/>
  </linearGradient>
  <!-- Chrome rod — lance shaft -->
  <linearGradient id="chromer1x2960" x1="0%" y1="0%" x2="100%" y2="0%">
    <stop offset="0%"   stop-color="#0c0c18"/>
    <stop offset="20%"  stop-color="#686888"/>
    <stop offset="44%"  stop-color="#e0e0f0"/>
    <stop offset="56%"  stop-color="#c0c0d8"/>
    <stop offset="80%"  stop-color="#28283e"/>
    <stop offset="100%" stop-color="#0c0c18"/>
  </linearGradient>
  <!-- Titanium plate — shield face -->
  <linearGradient id="titaniumr1x2960" x1="0%" y1="0%" x2="100%" y2="100%">
    <stop offset="0%"   stop-color="#585878"/>
    <stop offset="28%"  stop-color="#00ff60" stop-opacity=".88"/>
    <stop offset="55%"  stop-color="#00441e"/>
    <stop offset="80%"  stop-color="#181828"/>
    <stop offset="100%" stop-color="#0a0a18"/>
  </linearGradient>
  <!-- Artillery black-chrome — cannon body -->
  <linearGradient id="artilleryr1x2960" x1="0%" y1="0%" x2="0%" y2="100%">
    <stop offset="0%"   stop-color="#383850"/>
    <stop offset="14%"  stop-color="#78789a"/>
    <stop offset="36%"  stop-color="#202034"/>
    <stop offset="65%"  stop-color="#14141e"/>
    <stop offset="100%" stop-color="#0a0a12"/>
  </linearGradient>
  <!-- Energy orb — staff -->
  <radialGradient id="orbr1x2960" cx="35%" cy="35%" r="65%">
    <stop offset="0%"   stop-color="rgba(255,255,255,.9)"/>
    <stop offset="30%"  stop-color="#00ff60"/>
    <stop offset="68%"  stop-color="#00441e"/>
    <stop offset="100%" stop-color="rgba(0,0,0,.6)"/>
  </radialGradient>
  <!-- Knuckle plate chrome -->
  <linearGradient id="knuckler1x2960" x1="0%" y1="0%" x2="0%" y2="100%">
    <stop offset="0%"   stop-color="#888aaa"/>
    <stop offset="32%"  stop-color="#00ff60" stop-opacity=".8"/>
    <stop offset="62%"  stop-color="#1a1a2c"/>
    <stop offset="100%" stop-color="#0a0a14"/>
  </linearGradient>

  <!-- Carbon fibre weave texture overlay -->
  <pattern id="carbonr1x2960" width="6" height="6" patternUnits="userSpaceOnUse">
    <rect width="6" height="6" fill="rgba(0,0,0,.08)"/>
    <rect x="0" y="0" width="3" height="3" fill="rgba(255,255,255,.022)"/>
    <rect x="3" y="3" width="3" height="3" fill="rgba(255,255,255,.022)"/>
    <line x1="0" y1="0" x2="3" y2="3" stroke="rgba(255,255,255,.038)" stroke-width=".5"/>
    <line x1="3" y1="0" x2="6" y2="3" stroke="rgba(0,0,0,.055)"       stroke-width=".5"/>
    <line x1="0" y1="3" x2="3" y2="6" stroke="rgba(0,0,0,.055)"       stroke-width=".5"/>
    <line x1="3" y1="3" x2="6" y2="6" stroke="rgba(255,255,255,.038)" stroke-width=".5"/>
  </pattern>

  <!-- Specular metal sheen on armour panels -->
  <filter id="metalr1x2960" x="-5%" y="-5%" width="110%" height="110%">
    <feSpecularLighting surfaceScale="4" specularConstant="1.8"
        specularExponent="42" lighting-color="#ffffff" result="spec">
      <feDistantLight elevation="52" azimuth="38"/>
    </feSpecularLighting>
    <feComposite in="spec" in2="SourceGraphic" operator="in" result="sm"/>
    <feComposite in="SourceGraphic" in2="sm" operator="arithmetic" k1="0" k2="1" k3="0.55" k4="0"/>
  </filter>

  <!-- Sharper specular for weapons — heavier glare -->
  <filter id="wmr1x2960" x="-8%" y="-8%" width="116%" height="116%">
    <feSpecularLighting surfaceScale="6" specularConstant="2.4"
        specularExponent="65" lighting-color="#ffffff" result="spec">
      <feDistantLight elevation="44" azimuth="28"/>
    </feSpecularLighting>
    <feComposite in="spec" in2="SourceGraphic" operator="in" result="sm"/>
    <feComposite in="SourceGraphic" in2="sm" operator="arithmetic" k1="0" k2="1" k3="0.78" k4="0"/>
  </filter>

  <!-- Sketch wobble -->
  <filter id="skr1x2960" x="-8%" y="-8%" width="116%" height="116%">
    <feTurbulence type="fractalNoise" baseFrequency="0.038"
        numOctaves="3" seed="80" result="noise"/>
    <feDisplacementMap in="SourceGraphic" in2="noise" scale="2.6"
        xChannelSelector="R" yChannelSelector="G" result="w"/>
    <feComposite in="w" in2="SourceGraphic" operator="atop"/>
  </filter>

  <!-- Glow: sharp accent -->
  <filter id="glowr1x2960" x="-20%" y="-20%" width="140%" height="140%">
    <feGaussianBlur stdDeviation="3.5" result="b"/>
    <feColorMatrix in="b" type="matrix"
        values="0 0 0 0 1  0 0 0 0 1  0 0 0 0 1  0 0 0 1.8 0" result="boost"/>
    <feMerge><feMergeNode in="boost"/><feMergeNode in="SourceGraphic"/></feMerge>
  </filter>

  <!-- Bloom: wide soft -->
  <filter id="bloomr1x2960" x="-40%" y="-40%" width="180%" height="180%">
    <feGaussianBlur stdDeviation="11" result="b"/>
    <feMerge><feMergeNode in="b"/><feMergeNode in="SourceGraphic"/></feMerge>
  </filter>

  </defs><rect width="1000" height="1000" fill="url(#bgr1x2960)"/><polygon points="311.03304382413626,20.19146424718201 336.5325852697715,-32.54791347961873 359.0168070308864,0.6848178431391716" fill="#00ff60" fill-opacity=".055" stroke="#00ff60" stroke-opacity=".1" stroke-width="1"/><polygon points="198.3329299883917,211.39921008143574 221.71821825951338,170.56413209810853 239.32741327490658,207.71439575590193" fill="#00ff60" fill-opacity=".055" stroke="#00ff60" stroke-opacity=".1" stroke-width="1"/><polygon points="637.9280216619372,385.07301684934646 668.2987035186961,341.5376757904887 685.1052643200383,371.609068880789" fill="#00ff60" fill-opacity=".055" stroke="#00ff60" stroke-opacity=".1" stroke-width="1"/><polygon points="686.3491353392601,309.94508295785636 708.3071614084765,280.528511794284 734.8299782518297,318.66635215468705" fill="#00ff60" fill-opacity=".055" stroke="#00ff60" stroke-opacity=".1" stroke-width="1"/><polygon points="508.82760879583657,299.1401724750176 532.4150396445766,276.74596853367984 558.0472871456295,300.6299895513803" fill="#00ff60" fill-opacity=".055" stroke="#00ff60" stroke-opacity=".1" stroke-width="1"/><polygon points="892.525044856593,488.08584506623447 915.3809473132715,442.2083033649251 924.4284641630948,488.16579456441104" fill="#00ff60" fill-opacity=".055" stroke="#00ff60" stroke-opacity=".1" stroke-width="1"/><polygon points="402.10131442174315,201.99522566515952 418.50742364116013,149.04999872948974 444.9717978974804,197.28983661625534" fill="#00ff60" fill-opacity=".055" stroke="#00ff60" stroke-opacity=".1" stroke-width="1"/><polygon points="135.81846786197275,370.82334459293634 172.27178415562958,333.21536791790277 176.90338400471956,371.73388296272606" fill="#00ff60" fill-opacity=".055" stroke="#00ff60" stroke-opacity=".1" stroke-width="1"/><ellipse cx="500.0" cy="892.0" rx="350.0" ry="65.0" fill="rgba(0,0,0,.7)" filter="url(#bloomr1x2960)"/><ellipse cx="500.0" cy="889.0" rx="220.0" ry="34.0" fill="rgba(0,0,0,.45)"/><polygon points="397.1,660.8 490.1,661.7 480.1,877.5 387.7,876.6" fill="url(#suitr1x2960)" stroke="#00ff60" stroke-width="2.2" filter="url(#skr1x2960) url(#metalr1x2960)"/><polygon points="398.9,664.2 490.3,661.5 479.8,877.3 387.6,876.6" fill="url(#carbonr1x2960)"/><polygon points="393.4,723.7 493.9,724.6 485.4,788.3 383.3,786.8" fill="url(#bevelr1x2960)" fill-opacity=".5" stroke="#00ff60" stroke-width="1.4" filter="url(#skr1x2960)"/><polygon points="511.4,662.5 601.8,660.7 612.9,876.0 518.0,877.2" fill="url(#suitr1x2960)" stroke="#00ff60" stroke-width="2.2" filter="url(#skr1x2960) url(#metalr1x2960)"/><polygon points="510.7,663.5 601.6,660.9 612.8,878.1 519.2,876.3" fill="url(#carbonr1x2960)"/><polygon points="506.4,723.0 609.0,722.4 616.9,790.0 514.3,787.2" fill="url(#bevelr1x2960)" fill-opacity=".5" stroke="#00ff60" stroke-width="1.4" filter="url(#skr1x2960)"/><rect x="394.3" y="839.3" width="100.3" height="24.7" fill="url(#bevelr1x2960)" stroke="#00ff60" stroke-width="1" filter="url(#skr1x2960)"/><rect x="506.4"  y="839.1" width="100.3" height="24.7" fill="url(#bevelr1x2960)" stroke="#00ff60" stroke-width="1" filter="url(#skr1x2960)"/><polygon points="371.4,878.8 497.0,878.3 502.9,920.9 362.1,922.8" fill="#00441e" stroke="#00ff60" stroke-width="2" filter="url(#skr1x2960)"/><polygon points="504.8,878.1 629.8,877.5 638.3,920.4 498.2,921.1" fill="#00441e" stroke="#00ff60" stroke-width="2" filter="url(#skr1x2960)"/><polygon points="304.7,634.4 695.9,632.7 637.6,683.3 363.6,682.7" fill="#00ff60" fill-opacity=".52" stroke="#00ff60" stroke-width="2" filter="url(#skr1x2960)"/><rect x="465.7" y="637.4" width="72.0" height="42.0" fill="url(#bevelr1x2960)" stroke="#00ff60" stroke-width="1.4" filter="url(#glowr1x2960)"/><rect x="485.5" y="639.3" width="28.0" height="22.0" rx="1" fill="rgba(255,255,255,.48)"/><polygon points="151.3,467.1 235.7,466.5 258.4,736.0 129.8,733.7" fill="url(#suitr1x2960)" stroke="#00ff60" stroke-width="2.2" filter="url(#skr1x2960) url(#metalr1x2960)"/><polygon points="174.6,431.5 252.6,431.3 243.0,510.4 159.4,511.8" fill="url(#bevelr1x2960)" fill-opacity=".72" stroke="#00ff60" stroke-width="2.2" filter="url(#skr1x2960)"/><polygon points="160.7,623.5 243.7,621.1 238.6,659.8 164.3,660.5" fill="#00ff60" fill-opacity=".42" stroke="#00ff60" stroke-width="1" filter="url(#skr1x2960)"/><polygon points="763.8,465.4 848.8,465.9 872.5,734.2 742.4,735.7" fill="url(#suitr1x2960)" stroke="#00ff60" stroke-width="2.2" filter="url(#skr1x2960) url(#metalr1x2960)"/><polygon points="747.1,431.9 825.2,432.4 842.0,509.5 755.9,510.9" fill="url(#bevelr1x2960)" fill-opacity=".72" stroke="#00ff60" stroke-width="2.2" filter="url(#skr1x2960)"/><polygon points="756.1,622.2 840.0,620.9 833.4,660.5 760.0,661.0" fill="#00ff60" fill-opacity=".42" stroke="#00ff60" stroke-width="1" filter="url(#skr1x2960)"/><rect x="118.9"  y="699.0" width="135.3" height="85.0" rx="4" fill="url(#bevelr1x2960)" stroke="#00ff60" stroke-width="1.8" filter="url(#skr1x2960)"/><rect x="750.4"   y="700.7" width="135.3" height="85.0" rx="4" fill="url(#bevelr1x2960)" stroke="#00ff60" stroke-width="1.8" filter="url(#skr1x2960)"/><line x1="149.2" y1="703.1" x2="149.0" y2="782.6" stroke="#00ff60" stroke-opacity=".38" stroke-width="1"/><line x1="779.0" y1="702.0" x2="776.6" y2="783.6" stroke="#00ff60" stroke-opacity=".38" stroke-width="1"/><line x1="181.6" y1="702.4" x2="181.9" y2="784.8" stroke="#00ff60" stroke-opacity=".38" stroke-width="1"/><line x1="812.4" y1="700.5" x2="809.5" y2="784.8" stroke="#00ff60" stroke-opacity=".38" stroke-width="1"/><line x1="216.9" y1="702.7" x2="213.8" y2="782.3" stroke="#00ff60" stroke-opacity=".38" stroke-width="1"/><line x1="842.4" y1="702.6" x2="842.3" y2="783.3" stroke="#00ff60" stroke-opacity=".38" stroke-width="1"/><polygon points="235.9,418.7 765.5,419.1 723.9,661.0 276.2,663.3" fill="url(#suitr1x2960)" stroke="#00ff60" stroke-width="2.6" filter="url(#skr1x2960) url(#metalr1x2960)"/><polygon points="235.0,416.5 764.5,416.7 723.1,663.7 277.7,662.9" fill="url(#carbonr1x2960)"/><polygon points="368.9,415.8 633.1,418.3 610.1,515.5 390.2,514.1" fill="url(#suitHir1x2960)"/><line x1="363.4" y1="471.2" x2="636.1" y2="470.6" stroke="#00ff60" stroke-opacity=".52" stroke-width="1.3" filter="url(#skr1x2960)"/><line x1="400.1" y1="549.3" x2="601.7" y2="550.0" stroke="#00ff60" stroke-opacity=".52" stroke-width="1.3" filter="url(#skr1x2960)"/><line x1="266.1" y1="489.9" x2="321.4" y2="491.7" stroke="#00ff60" stroke-opacity=".62" stroke-width="1.8"/><line x1="679.0" y1="489.5" x2="733.0" y2="489.9" stroke="#00ff60" stroke-opacity=".62" stroke-width="1.8"/><line x1="266.8" y1="523.3" x2="318.1" y2="523.6" stroke="#00ff60" stroke-opacity=".62" stroke-width="1.8"/><line x1="681.4" y1="521.4" x2="732.2" y2="524.6" stroke="#00ff60" stroke-opacity=".62" stroke-width="1.8"/><line x1="266.4" y1="554.7" x2="319.7" y2="555.0" stroke="#00ff60" stroke-opacity=".62" stroke-width="1.8"/><line x1="681.0" y1="556.0" x2="732.1" y2="556.0" stroke="#00ff60" stroke-opacity=".62" stroke-width="1.8"/><line x1="266.5" y1="585.0" x2="321.4" y2="587.0" stroke="#00ff60" stroke-opacity=".62" stroke-width="1.8"/><line x1="679.6" y1="587.9" x2="732.8" y2="588.1" stroke="#00ff60" stroke-opacity=".62" stroke-width="1.8"/><g filter="url(#glowr1x2960)"><polygon points="501.0,453.9 540.7,510.9 501.6,569.7 457.7,511.7" fill="#00ff60" stroke="#050d14" stroke-width="1.4" filter="url(#skr1x2960)"/><polygon points="501.3,452.4 540.7,510.1 499.1,567.4 457.5,511.3" fill="url(#suitHir1x2960)" opacity=".45"/></g><g><polygon points="76.2,671.4 128.2,671.4 112.6,-28.6 91.8,-28.6" fill="url(#blader1x2960)" filter="url(#wmr1x2960)"/><polygon points="91.8,-28.6 112.6,-28.6 102.2,-138.6" fill="url(#blader1x2960)" filter="url(#wmr1x2960)"/><polygon points="100.3,671.4 104.0,671.4 102.7,-128.6 101.6,-128.6" fill="url(#bladeTipr1x2960)" opacity=".9"/><line x1="112.38475534941998" y1="670.6993477494456" x2="101.9143409790471" y2="-126.94937837570907" stroke="rgba(255,255,255,.68)" stroke-width="1.5"/><line x1="93.99528635265303" y1="671.8973345987498" x2="101.82914280833673" y2="-128.67862423406916" stroke="#00ff60" stroke-width="1" stroke-opacity=".45"/><line x1="106.8" y1="651.4" x2="104.0" y2="11.4" stroke="rgba(0,0,0,.38)" stroke-width="1.6"/><line x1="97.5" y1="651.4" x2="100.3" y2="11.4" stroke="rgba(0,0,0,.38)" stroke-width="1.6"/><rect x="47.557691257949884" y="670.4786164455115" width="112.0" height="28.0" rx="3" fill="url(#bevelr1x2960)" stroke="#00ff60" stroke-width="1.6" filter="url(#wmr1x2960)"/><rect x="69.63590723317114" y="674.5628380776383" width="64.0" height="10.0" rx="1" fill="rgba(255,255,255,.32)"/><rect x="91.3699719541147" y="676.3399437963031" width="24.0" height="6.0" rx="1" fill="#00ff60" fill-opacity=".35"/><rect x="90.15703949168321" y="685.9877511714585" width="24.0" height="6.0" rx="1" fill="#00ff60" fill-opacity=".35"/><rect x="89.69022419949991" y="693.5680412773974" width="24.0" height="6.0" rx="1" fill="#00ff60" fill-opacity=".35"/><rect x="91.77405035229397" y="703.1045712771826" width="24.0" height="6.0" rx="1" fill="#00ff60" fill-opacity=".35"/><rect x="88.59890133779493" y="710.9608401609585" width="24.0" height="6.0" rx="1" fill="#00ff60" fill-opacity=".35"/><rect x="88.79639026023445" y="715.6263119071722" width="24.0" height="6.0" rx="1" fill="#00ff60" fill-opacity=".35"/><ellipse cx="100.75810253540051" cy="726.4425078446045" rx="22.0" ry="16.0" fill="url(#bevelr1x2960)" stroke="#00ff60" stroke-width="1.2" filter="url(#wmr1x2960)"/></g><rect x="448.34818086829034" y="556.3620812486857" width="100.0"  height="56.0" fill="#00441e" stroke="#00ff60" stroke-width="2.2" filter="url(#skr1x2960)"/><rect x="423.8098181550391" y="575.0016098860651" width="152.0" height="26.0" fill="url(#bevelr1x2960)" fill-opacity=".65" stroke="#00ff60" stroke-width="1.2" filter="url(#skr1x2960)"/><polygon points="308.8,381.8 349.3,294.1 498.7,279.8 649.6,292.7 693.6,380.9 668.6,503.3 498.2,564.9 331.2,504.5" fill="url(#suitr1x2960)" stroke="#00ff60" stroke-width="2.8" filter="url(#skr1x2960) url(#metalr1x2960)"/><polygon points="307.1,379.6 351.5,296.2 499.7,277.2 649.8,295.6 691.2,379.3 669.4,503.3 499.9,566.2 332.6,503.0" fill="url(#carbonr1x2960)"/><polygon points="380.2,301.8 501.3,287.6 618.0,304.4 608.4,380.3 393.4,380.9" fill="url(#suitHir1x2960)"/><polygon points="381.1,380.6 367.0,424.6 431.3,503.7 500.4,526.9 567.9,501.8 634.2,426.6 620.3,380.0" fill="#050d14" fill-opacity=".88" stroke="#00ff60" stroke-width="1.8" filter="url(#skr1x2960)"/><polygon points="380.2,409.9 477.8,410.9 483.4,438.8 389.8,438.4" fill="#00ff60" filter="url(#glowr1x2960)"/><polygon points="522.2,412.1 620.7,410.7 610.0,441.2 516.7,441.4" fill="#00ff60" filter="url(#glowr1x2960)"/><ellipse cx="430.9" cy="425.7" rx="38.4"  ry="8.2" fill="#ffffff" opacity=".88"/><ellipse cx="569.1" cy="425.7" rx="38.4"  ry="8.2" fill="#ffffff" opacity=".88"/><line x1="486.2625871689618" y1="414.8558375244029" x2="513.9531339158676" y2="414.7384020477533" stroke="#00ff60" stroke-opacity=".52" stroke-width="2"/><line x1="485.87085379116235" y1="439.10531573155896" x2="515.5022644860111" y2="436.4324778185226" stroke="#00ff60" stroke-opacity=".52" stroke-width="2"/><line x1="500.01474327063187" y1="455.2780153945088" x2="500.6165852712467" y2="483.50355137176814" stroke="#00ff60" stroke-opacity=".58" stroke-width="2.2" filter="url(#skr1x2960)"/><line x1="455.51761208649725" y1="490.30587495900687" x2="454.9148846149258" y2="520.7093116768635" stroke="#00ff60" stroke-opacity=".52" stroke-width="1.5" filter="url(#skr1x2960)"/><line x1="476.62805927464734" y1="489.75530127231025" x2="478.27797264991324" y2="520.4921299364418" stroke="#00ff60" stroke-opacity=".52" stroke-width="1.5" filter="url(#skr1x2960)"/><line x1="501.5416536979377" y1="491.46882808497173" x2="500.20792666086925" y2="520.675070242025" stroke="#00ff60" stroke-opacity=".52" stroke-width="1.5" filter="url(#skr1x2960)"/><line x1="523.1197982520423" y1="489.9340475794859" x2="521.5663612134382" y2="520.7207612912171" stroke="#00ff60" stroke-opacity=".52" stroke-width="1.5" filter="url(#skr1x2960)"/><line x1="547.0753849332408" y1="491.8914342274889" x2="547.228674535472" y2="521.2137615575455" stroke="#00ff60" stroke-opacity=".52" stroke-width="1.5" filter="url(#skr1x2960)"/><polygon points="433.0,505.2 567.5,503.2 553.7,558.0 446.7,555.6" fill="#00441e" fill-opacity=".72" stroke="#00ff60" stroke-width="1.3" filter="url(#skr1x2960)"/><path d="M387.7767790820077 327.4649222622626 Q332.6581708187796 215.58184514567256 382.2620273397677 139.50424543051048" stroke="#00ff60" stroke-width="5" fill="none" stroke-linecap="round" filter="url(#skr1x2960)"/><path d="M387.15896332139147 325.9729970815592 Q332.2999360547959 216.05179253714158 380.0559106898867 139.87035285932944" stroke="rgba(255,255,255,.25)" stroke-width="1.5" fill="none" stroke-linecap="round"/><path d="M610.2847467369772 325.54642712362113 Q668.8404599951022 215.68112027859314 620.3072182137146 139.7664903158322" stroke="#00ff60" stroke-width="5" fill="none" stroke-linecap="round" filter="url(#skr1x2960)"/><path d="M611.3780908082985 328.5349985375069 Q669.7762845510058 216.56247662510722 620.549786065854 140.28289548940955" stroke="rgba(255,255,255,.25)" stroke-width="1.5" fill="none" stroke-linecap="round"/><text x="30.0"  y="975.0" font-family="monospace" font-weight="bold" font-size="22.0" fill="rgba(255,255,255,.22)">#0001</text><text x="500.0"   y="975.0" text-anchor="middle" font-family="monospace" font-weight="bold" font-size="22.0" fill="#00ff60" fill-opacity=".48">VIPER RANGER</text><text x="970.0" y="975.0" text-anchor="end"    font-family="monospace" font-weight="bold" font-size="22.0" fill="#00ff60" fill-opacity=".32">MECH RANGERS</text></svg>