<svg xmlns="http://www.w3.org/2000/svg" viewBox="0 0 1000 1000" width="1000" height="1000" shape-rendering="geometricPrecision"><defs>

  <!-- Scene gradients -->
  <radialGradient id="bgr1x2967" cx="50%" cy="42%" r="72%">
    <stop offset="0%"   stop-color="#0a0a14"/>
    <stop offset="100%" stop-color="#050508"/>
  </radialGradient>
  <linearGradient id="suitr1x2967" x1="8%" y1="0%" x2="92%" y2="100%">
    <stop offset="0%"   stop-color="#4444ff" stop-opacity=".95"/>
    <stop offset="45%"  stop-color="#141428"/>
    <stop offset="100%" stop-color="#050508"/>
  </linearGradient>
  <linearGradient id="suitHir1x2967" x1="0%" y1="0%" x2="0%" y2="100%">
    <stop offset="0%"   stop-color="rgba(255,255,255,.28)"/>
    <stop offset="60%"  stop-color="rgba(255,255,255,.04)"/>
    <stop offset="100%" stop-color="rgba(255,255,255,0)"/>
  </linearGradient>
  <!-- Bevel: bright top, dark bottom for armour panels -->
  <linearGradient id="bevelr1x2967" x1="0%" y1="0%" x2="0%" y2="100%">
    <stop offset="0%"   stop-color="rgba(255,255,255,.55)"/>
    <stop offset="30%"  stop-color="#4444ff"/>
    <stop offset="70%"  stop-color="#141428"/>
    <stop offset="100%" stop-color="rgba(0,0,0,.5)"/>
  </linearGradient>

  <!-- Weapon: cold steel blade sweep -->
  <linearGradient id="blader1x2967" x1="0%" y1="0%" x2="100%" y2="0%">
    <stop offset="0%"   stop-color="#0e0e20"/>
    <stop offset="16%"  stop-color="#3e3e58"/>
    <stop offset="34%"  stop-color="#c8c8e0"/>
    <stop offset="50%"  stop-color="#f5f5ff"/>
    <stop offset="66%"  stop-color="#b8b8d0"/>
    <stop offset="84%"  stop-color="#2e2e48"/>
    <stop offset="100%" stop-color="#08080e"/>
  </linearGradient>
  <!-- Blade tip brightening -->
  <linearGradient id="bladeTipr1x2967" x1="0%" y1="100%" x2="0%" y2="0%">
    <stop offset="0%"   stop-color="rgba(255,255,255,0)"/>
    <stop offset="55%"  stop-color="rgba(255,255,255,.1)"/>
    <stop offset="100%" stop-color="rgba(255,255,255,.55)"/>
  </linearGradient>
  <!-- Gunmetal anodised — blaster body -->
  <linearGradient id="gunmetalr1x2967" x1="0%" y1="0%" x2="0%" y2="100%">
    <stop offset="0%"   stop-color="#46465e"/>
    <stop offset="18%"  stop-color="#828296"/>
    <stop offset="42%"  stop-color="#26263a"/>
    <stop offset="72%"  stop-color="#16162a"/>
    <stop offset="100%" stop-color="#0c0c18"/>
  </linearGradient>
  <!-- Brushed steel tube — barrel/rod -->
  <linearGradient id="barrelr1x2967" x1="0%" y1="0%" x2="100%" y2="0%">
    <stop offset="0%"   stop-color="#0a0a14"/>
    <stop offset="24%"  stop-color="#585875"/>
    <stop offset="50%"  stop-color="#a8a8c8"/>
    <stop offset="76%"  stop-color="#383852"/>
    <stop offset="100%" stop-color="#0a0a14"/>
  </linearGradient>
  <!-- Chrome rod — lance shaft -->
  <linearGradient id="chromer1x2967" x1="0%" y1="0%" x2="100%" y2="0%">
    <stop offset="0%"   stop-color="#0c0c18"/>
    <stop offset="20%"  stop-color="#686888"/>
    <stop offset="44%"  stop-color="#e0e0f0"/>
    <stop offset="56%"  stop-color="#c0c0d8"/>
    <stop offset="80%"  stop-color="#28283e"/>
    <stop offset="100%" stop-color="#0c0c18"/>
  </linearGradient>
  <!-- Titanium plate — shield face -->
  <linearGradient id="titaniumr1x2967" x1="0%" y1="0%" x2="100%" y2="100%">
    <stop offset="0%"   stop-color="#585878"/>
    <stop offset="28%"  stop-color="#4444ff" stop-opacity=".88"/>
    <stop offset="55%"  stop-color="#141428"/>
    <stop offset="80%"  stop-color="#181828"/>
    <stop offset="100%" stop-color="#0a0a18"/>
  </linearGradient>
  <!-- Artillery black-chrome — cannon body -->
  <linearGradient id="artilleryr1x2967" x1="0%" y1="0%" x2="0%" y2="100%">
    <stop offset="0%"   stop-color="#383850"/>
    <stop offset="14%"  stop-color="#78789a"/>
    <stop offset="36%"  stop-color="#202034"/>
    <stop offset="65%"  stop-color="#14141e"/>
    <stop offset="100%" stop-color="#0a0a12"/>
  </linearGradient>
  <!-- Energy orb — staff -->
  <radialGradient id="orbr1x2967" cx="35%" cy="35%" r="65%">
    <stop offset="0%"   stop-color="rgba(255,255,255,.9)"/>
    <stop offset="30%"  stop-color="#4444ff"/>
    <stop offset="68%"  stop-color="#141428"/>
    <stop offset="100%" stop-color="rgba(0,0,0,.6)"/>
  </radialGradient>
  <!-- Knuckle plate chrome -->
  <linearGradient id="knuckler1x2967" x1="0%" y1="0%" x2="0%" y2="100%">
    <stop offset="0%"   stop-color="#888aaa"/>
    <stop offset="32%"  stop-color="#4444ff" stop-opacity=".8"/>
    <stop offset="62%"  stop-color="#1a1a2c"/>
    <stop offset="100%" stop-color="#0a0a14"/>
  </linearGradient>

  <!-- Carbon fibre weave texture overlay -->
  <pattern id="carbonr1x2967" width="6" height="6" patternUnits="userSpaceOnUse">
    <rect width="6" height="6" fill="rgba(0,0,0,.08)"/>
    <rect x="0" y="0" width="3" height="3" fill="rgba(255,255,255,.022)"/>
    <rect x="3" y="3" width="3" height="3" fill="rgba(255,255,255,.022)"/>
    <line x1="0" y1="0" x2="3" y2="3" stroke="rgba(255,255,255,.038)" stroke-width=".5"/>
    <line x1="3" y1="0" x2="6" y2="3" stroke="rgba(0,0,0,.055)"       stroke-width=".5"/>
    <line x1="0" y1="3" x2="3" y2="6" stroke="rgba(0,0,0,.055)"       stroke-width=".5"/>
    <line x1="3" y1="3" x2="6" y2="6" stroke="rgba(255,255,255,.038)" stroke-width=".5"/>
  </pattern>

  <!-- Specular metal sheen on armour panels -->
  <filter id="metalr1x2967" x="-5%" y="-5%" width="110%" height="110%">
    <feSpecularLighting surfaceScale="4" specularConstant="1.8"
        specularExponent="42" lighting-color="#ffffff" result="spec">
      <feDistantLight elevation="52" azimuth="38"/>
    </feSpecularLighting>
    <feComposite in="spec" in2="SourceGraphic" operator="in" result="sm"/>
    <feComposite in="SourceGraphic" in2="sm" operator="arithmetic" k1="0" k2="1" k3="0.55" k4="0"/>
  </filter>

  <!-- Sharper specular for weapons — heavier glare -->
  <filter id="wmr1x2967" x="-8%" y="-8%" width="116%" height="116%">
    <feSpecularLighting surfaceScale="6" specularConstant="2.4"
        specularExponent="65" lighting-color="#ffffff" result="spec">
      <feDistantLight elevation="44" azimuth="28"/>
    </feSpecularLighting>
    <feComposite in="spec" in2="SourceGraphic" operator="in" result="sm"/>
    <feComposite in="SourceGraphic" in2="sm" operator="arithmetic" k1="0" k2="1" k3="0.78" k4="0"/>
  </filter>

  <!-- Sketch wobble -->
  <filter id="skr1x2967" x="-8%" y="-8%" width="116%" height="116%">
    <feTurbulence type="fractalNoise" baseFrequency="0.038"
        numOctaves="3" seed="31" result="noise"/>
    <feDisplacementMap in="SourceGraphic" in2="noise" scale="2.6"
        xChannelSelector="R" yChannelSelector="G" result="w"/>
    <feComposite in="w" in2="SourceGraphic" operator="atop"/>
  </filter>

  <!-- Glow: sharp accent -->
  <filter id="glowr1x2967" x="-20%" y="-20%" width="140%" height="140%">
    <feGaussianBlur stdDeviation="3.5" result="b"/>
    <feColorMatrix in="b" type="matrix"
        values="0 0 0 0 1  0 0 0 0 1  0 0 0 0 1  0 0 0 1.8 0" result="boost"/>
    <feMerge><feMergeNode in="boost"/><feMergeNode in="SourceGraphic"/></feMerge>
  </filter>

  <!-- Bloom: wide soft -->
  <filter id="bloomr1x2967" x="-40%" y="-40%" width="180%" height="180%">
    <feGaussianBlur stdDeviation="11" result="b"/>
    <feMerge><feMergeNode in="b"/><feMergeNode in="SourceGraphic"/></feMerge>
  </filter>

  </defs><rect width="1000" height="1000" fill="url(#bgr1x2967)"/><ellipse cx="500.0" cy="892.0" rx="350.0" ry="65.0" fill="rgba(0,0,0,.7)" filter="url(#bloomr1x2967)"/><ellipse cx="500.0" cy="889.0" rx="220.0" ry="34.0" fill="rgba(0,0,0,.45)"/><ellipse cx="500.0" cy="520.0" rx="320.0" ry="480.0" fill="#ff6600" fill-opacity=".042" filter="url(#bloomr1x2967)"/><circle cx="320.9" cy="762.5" r="3.2" fill="#ff6600" fill-opacity="0.72" filter="url(#glowr1x2967)"/><circle cx="694.3" cy="356.7" r="2.7" fill="#ff6600" fill-opacity="0.71" filter="url(#glowr1x2967)"/><circle cx="456.4" cy="216.6" r="1.8" fill="#ff6600" fill-opacity="0.84" filter="url(#glowr1x2967)"/><circle cx="275.9" cy="354.8" r="3.5" fill="#ff6600" fill-opacity="0.62" filter="url(#glowr1x2967)"/><circle cx="405.7" cy="490.2" r="0.8" fill="#ff6600" fill-opacity="0.50" filter="url(#glowr1x2967)"/><circle cx="620.8" cy="357.5" r="0.7" fill="#ff6600" fill-opacity="0.87" filter="url(#glowr1x2967)"/><circle cx="682.5" cy="326.6" r="2.3" fill="#ff6600" fill-opacity="0.65" filter="url(#glowr1x2967)"/><circle cx="501.5" cy="545.6" r="1.2" fill="#ff6600" fill-opacity="0.87" filter="url(#glowr1x2967)"/><circle cx="749.5" cy="514.2" r="3.8" fill="#ff6600" fill-opacity="0.86" filter="url(#glowr1x2967)"/><circle cx="347.7" cy="755.7" r="2.2" fill="#ff6600" fill-opacity="0.82" filter="url(#glowr1x2967)"/><circle cx="489.6" cy="189.6" r="2.9" fill="#ff6600" fill-opacity="0.84" filter="url(#glowr1x2967)"/><circle cx="448.5" cy="642.4" r="1.4" fill="#ff6600" fill-opacity="0.56" filter="url(#glowr1x2967)"/><circle cx="487.9" cy="457.5" r="1.8" fill="#ff6600" fill-opacity="0.79" filter="url(#glowr1x2967)"/><circle cx="386.7" cy="670.4" r="1.7" fill="#ff6600" fill-opacity="0.81" filter="url(#glowr1x2967)"/><polygon points="400.6,663.0 488.1,661.5 479.5,878.5 388.0,876.8" fill="url(#suitr1x2967)" stroke="#4444ff" stroke-width="2.2" filter="url(#skr1x2967) url(#metalr1x2967)"/><polygon points="399.7,662.3 489.8,661.0 481.0,875.7 386.4,875.8" fill="url(#carbonr1x2967)"/><polygon points="392.0,723.6 492.5,723.8 483.5,789.5 382.2,788.0" fill="url(#bevelr1x2967)" fill-opacity=".5" stroke="#4444ff" stroke-width="1.4" filter="url(#skr1x2967)"/><polygon points="509.0,662.1 601.6,661.5 612.9,878.3 520.5,878.2" fill="url(#suitr1x2967)" stroke="#4444ff" stroke-width="2.2" filter="url(#skr1x2967) url(#metalr1x2967)"/><polygon points="512.2,662.8 600.5,664.1 613.6,875.9 519.8,877.7" fill="url(#carbonr1x2967)"/><polygon points="505.7,723.3 605.8,723.2 614.4,786.6 516.8,789.2" fill="url(#bevelr1x2967)" fill-opacity=".5" stroke="#4444ff" stroke-width="1.4" filter="url(#skr1x2967)"/><rect x="392.3" y="839.2" width="100.3" height="24.7" fill="url(#bevelr1x2967)" stroke="#4444ff" stroke-width="1" filter="url(#skr1x2967)"/><rect x="507.9"  y="840.0" width="100.3" height="24.7" fill="url(#bevelr1x2967)" stroke="#4444ff" stroke-width="1" filter="url(#skr1x2967)"/><polygon points="369.9,877.2 497.6,877.6 502.4,921.7 362.7,922.2" fill="#141428" stroke="#4444ff" stroke-width="2" filter="url(#skr1x2967)"/><polygon points="503.8,876.2 629.3,877.1 636.9,920.7 496.6,921.1" fill="#141428" stroke="#4444ff" stroke-width="2" filter="url(#skr1x2967)"/><polygon points="303.7,632.8 696.7,632.3 639.5,683.3 362.3,680.8" fill="#4444ff" fill-opacity=".52" stroke="#4444ff" stroke-width="2" filter="url(#skr1x2967)"/><rect x="462.8" y="636.7" width="72.0" height="42.0" fill="url(#bevelr1x2967)" stroke="#4444ff" stroke-width="1.4" filter="url(#glowr1x2967)"/><rect x="484.6" y="639.6" width="28.0" height="22.0" rx="1" fill="rgba(255,255,255,.48)"/><polygon points="152.1,468.0 234.7,465.8 258.9,734.5 129.4,734.3" fill="url(#suitr1x2967)" stroke="#4444ff" stroke-width="2.2" filter="url(#skr1x2967) url(#metalr1x2967)"/><polygon points="173.7,432.4 252.8,433.1 244.0,511.2 158.5,510.7" fill="url(#bevelr1x2967)" fill-opacity=".72" stroke="#4444ff" stroke-width="2.2" filter="url(#skr1x2967)"/><polygon points="160.8,621.2 241.9,622.2 240.6,660.6 165.0,661.3" fill="#4444ff" fill-opacity=".42" stroke="#4444ff" stroke-width="1" filter="url(#skr1x2967)"/><polygon points="766.1,464.9 848.0,468.0 870.9,735.0 742.6,733.7" fill="url(#suitr1x2967)" stroke="#4444ff" stroke-width="2.2" filter="url(#skr1x2967) url(#metalr1x2967)"/><polygon points="746.8,433.6 825.2,433.9 840.6,509.3 756.8,510.5" fill="url(#bevelr1x2967)" fill-opacity=".72" stroke="#4444ff" stroke-width="2.2" filter="url(#skr1x2967)"/><polygon points="757.3,622.2 837.6,623.6 833.1,659.4 761.6,661.6" fill="#4444ff" fill-opacity=".42" stroke="#4444ff" stroke-width="1" filter="url(#skr1x2967)"/><rect x="120.2"  y="699.3" width="135.3" height="85.0" rx="4" fill="url(#bevelr1x2967)" stroke="#4444ff" stroke-width="1.8" filter="url(#skr1x2967)"/><rect x="747.6"   y="699.9" width="135.3" height="85.0" rx="4" fill="url(#bevelr1x2967)" stroke="#4444ff" stroke-width="1.8" filter="url(#skr1x2967)"/><line x1="149.2" y1="702.9" x2="149.4" y2="783.6" stroke="#4444ff" stroke-opacity=".38" stroke-width="1"/><line x1="778.2" y1="701.4" x2="779.4" y2="784.5" stroke="#4444ff" stroke-opacity=".38" stroke-width="1"/><line x1="183.8" y1="701.8" x2="182.8" y2="784.0" stroke="#4444ff" stroke-opacity=".38" stroke-width="1"/><line x1="811.2" y1="703.0" x2="810.4" y2="783.6" stroke="#4444ff" stroke-opacity=".38" stroke-width="1"/><line x1="215.6" y1="701.0" x2="216.3" y2="782.2" stroke="#4444ff" stroke-opacity=".38" stroke-width="1"/><line x1="843.7" y1="702.2" x2="844.3" y2="785.5" stroke="#4444ff" stroke-opacity=".38" stroke-width="1"/><polygon points="234.1,416.2 766.5,418.9 721.0,661.2 277.5,662.8" fill="url(#suitr1x2967)" stroke="#4444ff" stroke-width="2.6" filter="url(#skr1x2967) url(#metalr1x2967)"/><polygon points="235.5,418.1 766.6,416.1 722.1,662.5 277.4,663.7" fill="url(#carbonr1x2967)"/><polygon points="367.2,416.7 633.9,416.9 612.7,513.7 389.7,513.8" fill="url(#suitHir1x2967)"/><line x1="360.6" y1="470.2" x2="637.2" y2="471.6" stroke="#4444ff" stroke-opacity=".52" stroke-width="1.3" filter="url(#skr1x2967)"/><line x1="398.9" y1="549.6" x2="601.1" y2="549.9" stroke="#4444ff" stroke-opacity=".52" stroke-width="1.3" filter="url(#skr1x2967)"/><line x1="266.5" y1="491.0" x2="321.0" y2="490.9" stroke="#4444ff" stroke-opacity=".62" stroke-width="1.8"/><line x1="680.2" y1="491.7" x2="732.8" y2="491.8" stroke="#4444ff" stroke-opacity=".62" stroke-width="1.8"/><line x1="265.1" y1="524.0" x2="319.5" y2="523.7" stroke="#4444ff" stroke-opacity=".62" stroke-width="1.8"/><line x1="681.4" y1="523.2" x2="733.1" y2="524.5" stroke="#4444ff" stroke-opacity=".62" stroke-width="1.8"/><line x1="265.7" y1="555.3" x2="318.2" y2="554.9" stroke="#4444ff" stroke-opacity=".62" stroke-width="1.8"/><line x1="680.9" y1="554.6" x2="734.5" y2="555.2" stroke="#4444ff" stroke-opacity=".62" stroke-width="1.8"/><line x1="266.8" y1="586.2" x2="318.3" y2="587.7" stroke="#4444ff" stroke-opacity=".62" stroke-width="1.8"/><line x1="681.6" y1="586.0" x2="733.9" y2="586.5" stroke="#4444ff" stroke-opacity=".62" stroke-width="1.8"/><g filter="url(#glowr1x2967)"><polygon points="499.2,451.0 542.5,508.8 501.6,569.1 458.3,509.4" fill="#4444ff" stroke="#050508" stroke-width="1.4" filter="url(#skr1x2967)"/><polygon points="498.9,451.2 541.5,511.8 501.7,568.9 458.5,510.3" fill="url(#suitHir1x2967)" opacity=".45"/></g><g><polygon points="76.2,671.4 128.2,671.4 112.6,-28.6 91.8,-28.6" fill="url(#blader1x2967)" filter="url(#wmr1x2967)"/><polygon points="91.8,-28.6 112.6,-28.6 102.2,-138.6" fill="url(#blader1x2967)" filter="url(#wmr1x2967)"/><polygon points="100.3,671.4 104.0,671.4 102.7,-128.6 101.6,-128.6" fill="url(#bladeTipr1x2967)" opacity=".9"/><line x1="110.9692620388977" y1="673.168243430648" x2="103.09917531805111" y2="-127.35299102505671" stroke="rgba(255,255,255,.68)" stroke-width="1.5"/><line x1="91.03234680956227" y1="672.2514414430595" x2="102.01277224130925" y2="-128.8581588818692" stroke="#4444ff" stroke-width="1" stroke-opacity=".45"/><line x1="106.8" y1="651.4" x2="104.0" y2="11.4" stroke="rgba(0,0,0,.38)" stroke-width="1.6"/><line x1="97.5" y1="651.4" x2="100.3" y2="11.4" stroke="rgba(0,0,0,.38)" stroke-width="1.6"/><rect x="44.85259280608964" y="668.22620980246" width="112.0" height="28.0" rx="3" fill="url(#bevelr1x2967)" stroke="#4444ff" stroke-width="1.6" filter="url(#wmr1x2967)"/><rect x="69.95030956877392" y="672.6503511089832" width="64.0" height="10.0" rx="1" fill="rgba(255,255,255,.32)"/><rect x="88.4527699143998" y="677.4480701182969" width="24.0" height="6.0" rx="1" fill="#4444ff" fill-opacity=".35"/><rect x="91.38538816919547" y="684.6135227212682" width="24.0" height="6.0" rx="1" fill="#4444ff" fill-opacity=".35"/><rect x="89.73019634991881" y="692.0345154413953" width="24.0" height="6.0" rx="1" fill="#4444ff" fill-opacity=".35"/><rect x="89.98207346726205" y="702.5109438383952" width="24.0" height="6.0" rx="1" fill="#4444ff" fill-opacity=".35"/><rect x="89.63407107669858" y="708.3856134741567" width="24.0" height="6.0" rx="1" fill="#4444ff" fill-opacity=".35"/><rect x="91.42516498355192" y="717.6764187129214" width="24.0" height="6.0" rx="1" fill="#4444ff" fill-opacity=".35"/><ellipse cx="103.36175075298172" cy="724.7813499341719" rx="22.0" ry="16.0" fill="url(#bevelr1x2967)" stroke="#4444ff" stroke-width="1.2" filter="url(#wmr1x2967)"/></g><rect x="449.1629181308672" y="556.5886681885459" width="100.0"  height="56.0" fill="#141428" stroke="#4444ff" stroke-width="2.2" filter="url(#skr1x2967)"/><rect x="423.4958918495104" y="576.9488100146875" width="152.0" height="26.0" fill="url(#bevelr1x2967)" fill-opacity=".65" stroke="#4444ff" stroke-width="1.2" filter="url(#skr1x2967)"/><polygon points="306.7,382.1 350.6,293.2 501.2,279.0 648.9,292.9 690.5,379.0 669.5,502.8 499.7,566.6 330.7,504.5" fill="url(#suitr1x2967)" stroke="#4444ff" stroke-width="2.8" filter="url(#skr1x2967) url(#metalr1x2967)"/><polygon points="308.0,381.8 349.8,292.8 499.9,276.7 650.0,294.4 690.6,380.9 670.2,504.3 501.7,565.4 332.3,501.9" fill="url(#carbonr1x2967)"/><polygon points="380.6,303.0 500.0,288.1 620.1,302.0 609.0,380.5 391.4,379.4" fill="url(#suitHir1x2967)"/><polygon points="381.4,379.0 364.1,424.6 431.7,504.4 500.7,527.7 565.5,503.0 633.2,424.8 617.6,379.7" fill="#050508" fill-opacity=".88" stroke="#4444ff" stroke-width="1.8" filter="url(#skr1x2967)"/><polygon points="382.7,410.7 475.5,412.3 485.9,439.0 387.8,439.3" fill="#4444ff" filter="url(#glowr1x2967)"/><polygon points="524.7,410.2 620.0,410.1 610.0,438.5 513.7,439.8" fill="#4444ff" filter="url(#glowr1x2967)"/><ellipse cx="430.9" cy="425.7" rx="38.4"  ry="8.2" fill="#ffffff" opacity=".88"/><ellipse cx="569.1" cy="425.7" rx="38.4"  ry="8.2" fill="#ffffff" opacity=".88"/><line x1="484.97920409120616" y1="413.1449266039766" x2="514.8248802058771" y2="414.94101953236384" stroke="#4444ff" stroke-opacity=".52" stroke-width="2"/><line x1="484.3851584071852" y1="439.0349412716925" x2="517.0171228245273" y2="438.6660506352782" stroke="#4444ff" stroke-opacity=".52" stroke-width="2"/><line x1="500.75417370134966" y1="454.1090416120365" x2="501.41133243655787" y2="484.5631956946105" stroke="#4444ff" stroke-opacity=".58" stroke-width="2.2" filter="url(#skr1x2967)"/><line x1="455.1071563382447" y1="490.3938294750638" x2="454.2296584474668" y2="519.3305957543664" stroke="#4444ff" stroke-opacity=".52" stroke-width="1.5" filter="url(#skr1x2967)"/><line x1="477.4021007402241" y1="492.14425594173366" x2="478.0411868977733" y2="520.8608925526962" stroke="#4444ff" stroke-opacity=".52" stroke-width="1.5" filter="url(#skr1x2967)"/><line x1="499.32701719133183" y1="489.95732349427414" x2="501.31850392594936" y2="520.7737016866915" stroke="#4444ff" stroke-opacity=".52" stroke-width="1.5" filter="url(#skr1x2967)"/><line x1="524.6531053941324" y1="492.45398187860843" x2="521.3202930081263" y2="521.0018437646329" stroke="#4444ff" stroke-opacity=".52" stroke-width="1.5" filter="url(#skr1x2967)"/><line x1="547.56827616442" y1="491.3321918340399" x2="546.6615351495519" y2="521.0426790256054" stroke="#4444ff" stroke-opacity=".52" stroke-width="1.5" filter="url(#skr1x2967)"/><polygon points="433.5,502.3 566.8,504.0 553.5,558.7 447.0,555.6" fill="#141428" fill-opacity=".72" stroke="#4444ff" stroke-width="1.3" filter="url(#skr1x2967)"/><path d="M394.70457716302946 349.00117149306465 C342.7661077736318 153.61939392322677 450.11243382377546 229.91046090172605 476.45806389773264 322.4882050177082" fill="#4444ff" stroke="#4444ff" stroke-width="2.8" filter="url(#skr1x2967)"/><path d="M602.0974151454121 349.32380944918845 C657.6433728885465 155.5585799348541 551.5038314657099 230.39758137948812 526.7263679638878 322.1119882391765" fill="#4444ff" stroke="#4444ff" stroke-width="2.8" filter="url(#skr1x2967)"/><path d="M392.9182304567844 426.5220997176133 L460.56607290506366 390.8300327409059 L499.03579325629397 424.4885132381692 L536.9769710266031 391.3537488023751 L606.7485266037099 424.1386516693979" stroke="#4444ff" stroke-width="2.2" fill="none" filter="url(#skr1x2967)"/><text x="30.0"  y="975.0" font-family="monospace" font-weight="bold" font-size="22.0" fill="rgba(255,255,255,.22)">#0001</text><text x="500.0"   y="975.0" text-anchor="middle" font-family="monospace" font-weight="bold" font-size="22.0" fill="#4444ff" fill-opacity=".48">OBSIDIAN RANGER</text><text x="970.0" y="975.0" text-anchor="end"    font-family="monospace" font-weight="bold" font-size="22.0" fill="#4444ff" fill-opacity=".32">MECH RANGERS</text></svg>