<svg xmlns="http://www.w3.org/2000/svg" viewBox="0 0 1000 1000" width="1000" height="1000" shape-rendering="geometricPrecision"><defs>

  <!-- Scene gradients -->
  <radialGradient id="bgr1x2976" cx="50%" cy="42%" r="72%">
    <stop offset="0%"   stop-color="#1a2814"/>
    <stop offset="100%" stop-color="#0d1520"/>
  </radialGradient>
  <linearGradient id="suitr1x2976" x1="8%" y1="0%" x2="92%" y2="100%">
    <stop offset="0%"   stop-color="#ff2040" stop-opacity=".95"/>
    <stop offset="45%"  stop-color="#cc0020"/>
    <stop offset="100%" stop-color="#0d1520"/>
  </linearGradient>
  <linearGradient id="suitHir1x2976" x1="0%" y1="0%" x2="0%" y2="100%">
    <stop offset="0%"   stop-color="rgba(255,255,255,.28)"/>
    <stop offset="60%"  stop-color="rgba(255,255,255,.04)"/>
    <stop offset="100%" stop-color="rgba(255,255,255,0)"/>
  </linearGradient>
  <!-- Bevel: bright top, dark bottom for armour panels -->
  <linearGradient id="bevelr1x2976" x1="0%" y1="0%" x2="0%" y2="100%">
    <stop offset="0%"   stop-color="rgba(255,255,255,.55)"/>
    <stop offset="30%"  stop-color="#ff2040"/>
    <stop offset="70%"  stop-color="#cc0020"/>
    <stop offset="100%" stop-color="rgba(0,0,0,.5)"/>
  </linearGradient>

  <!-- Weapon: cold steel blade sweep -->
  <linearGradient id="blader1x2976" x1="0%" y1="0%" x2="100%" y2="0%">
    <stop offset="0%"   stop-color="#0e0e20"/>
    <stop offset="16%"  stop-color="#3e3e58"/>
    <stop offset="34%"  stop-color="#c8c8e0"/>
    <stop offset="50%"  stop-color="#f5f5ff"/>
    <stop offset="66%"  stop-color="#b8b8d0"/>
    <stop offset="84%"  stop-color="#2e2e48"/>
    <stop offset="100%" stop-color="#08080e"/>
  </linearGradient>
  <!-- Blade tip brightening -->
  <linearGradient id="bladeTipr1x2976" x1="0%" y1="100%" x2="0%" y2="0%">
    <stop offset="0%"   stop-color="rgba(255,255,255,0)"/>
    <stop offset="55%"  stop-color="rgba(255,255,255,.1)"/>
    <stop offset="100%" stop-color="rgba(255,255,255,.55)"/>
  </linearGradient>
  <!-- Gunmetal anodised — blaster body -->
  <linearGradient id="gunmetalr1x2976" x1="0%" y1="0%" x2="0%" y2="100%">
    <stop offset="0%"   stop-color="#46465e"/>
    <stop offset="18%"  stop-color="#828296"/>
    <stop offset="42%"  stop-color="#26263a"/>
    <stop offset="72%"  stop-color="#16162a"/>
    <stop offset="100%" stop-color="#0c0c18"/>
  </linearGradient>
  <!-- Brushed steel tube — barrel/rod -->
  <linearGradient id="barrelr1x2976" x1="0%" y1="0%" x2="100%" y2="0%">
    <stop offset="0%"   stop-color="#0a0a14"/>
    <stop offset="24%"  stop-color="#585875"/>
    <stop offset="50%"  stop-color="#a8a8c8"/>
    <stop offset="76%"  stop-color="#383852"/>
    <stop offset="100%" stop-color="#0a0a14"/>
  </linearGradient>
  <!-- Chrome rod — lance shaft -->
  <linearGradient id="chromer1x2976" x1="0%" y1="0%" x2="100%" y2="0%">
    <stop offset="0%"   stop-color="#0c0c18"/>
    <stop offset="20%"  stop-color="#686888"/>
    <stop offset="44%"  stop-color="#e0e0f0"/>
    <stop offset="56%"  stop-color="#c0c0d8"/>
    <stop offset="80%"  stop-color="#28283e"/>
    <stop offset="100%" stop-color="#0c0c18"/>
  </linearGradient>
  <!-- Titanium plate — shield face -->
  <linearGradient id="titaniumr1x2976" x1="0%" y1="0%" x2="100%" y2="100%">
    <stop offset="0%"   stop-color="#585878"/>
    <stop offset="28%"  stop-color="#ff2040" stop-opacity=".88"/>
    <stop offset="55%"  stop-color="#cc0020"/>
    <stop offset="80%"  stop-color="#181828"/>
    <stop offset="100%" stop-color="#0a0a18"/>
  </linearGradient>
  <!-- Artillery black-chrome — cannon body -->
  <linearGradient id="artilleryr1x2976" x1="0%" y1="0%" x2="0%" y2="100%">
    <stop offset="0%"   stop-color="#383850"/>
    <stop offset="14%"  stop-color="#78789a"/>
    <stop offset="36%"  stop-color="#202034"/>
    <stop offset="65%"  stop-color="#14141e"/>
    <stop offset="100%" stop-color="#0a0a12"/>
  </linearGradient>
  <!-- Energy orb — staff -->
  <radialGradient id="orbr1x2976" cx="35%" cy="35%" r="65%">
    <stop offset="0%"   stop-color="rgba(255,255,255,.9)"/>
    <stop offset="30%"  stop-color="#ff2040"/>
    <stop offset="68%"  stop-color="#cc0020"/>
    <stop offset="100%" stop-color="rgba(0,0,0,.6)"/>
  </radialGradient>
  <!-- Knuckle plate chrome -->
  <linearGradient id="knuckler1x2976" x1="0%" y1="0%" x2="0%" y2="100%">
    <stop offset="0%"   stop-color="#888aaa"/>
    <stop offset="32%"  stop-color="#ff2040" stop-opacity=".8"/>
    <stop offset="62%"  stop-color="#1a1a2c"/>
    <stop offset="100%" stop-color="#0a0a14"/>
  </linearGradient>

  <!-- Carbon fibre weave texture overlay -->
  <pattern id="carbonr1x2976" width="6" height="6" patternUnits="userSpaceOnUse">
    <rect width="6" height="6" fill="rgba(0,0,0,.08)"/>
    <rect x="0" y="0" width="3" height="3" fill="rgba(255,255,255,.022)"/>
    <rect x="3" y="3" width="3" height="3" fill="rgba(255,255,255,.022)"/>
    <line x1="0" y1="0" x2="3" y2="3" stroke="rgba(255,255,255,.038)" stroke-width=".5"/>
    <line x1="3" y1="0" x2="6" y2="3" stroke="rgba(0,0,0,.055)"       stroke-width=".5"/>
    <line x1="0" y1="3" x2="3" y2="6" stroke="rgba(0,0,0,.055)"       stroke-width=".5"/>
    <line x1="3" y1="3" x2="6" y2="6" stroke="rgba(255,255,255,.038)" stroke-width=".5"/>
  </pattern>

  <!-- Specular metal sheen on armour panels -->
  <filter id="metalr1x2976" x="-5%" y="-5%" width="110%" height="110%">
    <feSpecularLighting surfaceScale="4" specularConstant="1.8"
        specularExponent="42" lighting-color="#ffffff" result="spec">
      <feDistantLight elevation="52" azimuth="38"/>
    </feSpecularLighting>
    <feComposite in="spec" in2="SourceGraphic" operator="in" result="sm"/>
    <feComposite in="SourceGraphic" in2="sm" operator="arithmetic" k1="0" k2="1" k3="0.55" k4="0"/>
  </filter>

  <!-- Sharper specular for weapons — heavier glare -->
  <filter id="wmr1x2976" x="-8%" y="-8%" width="116%" height="116%">
    <feSpecularLighting surfaceScale="6" specularConstant="2.4"
        specularExponent="65" lighting-color="#ffffff" result="spec">
      <feDistantLight elevation="44" azimuth="28"/>
    </feSpecularLighting>
    <feComposite in="spec" in2="SourceGraphic" operator="in" result="sm"/>
    <feComposite in="SourceGraphic" in2="sm" operator="arithmetic" k1="0" k2="1" k3="0.78" k4="0"/>
  </filter>

  <!-- Sketch wobble -->
  <filter id="skr1x2976" x="-8%" y="-8%" width="116%" height="116%">
    <feTurbulence type="fractalNoise" baseFrequency="0.038"
        numOctaves="3" seed="45" result="noise"/>
    <feDisplacementMap in="SourceGraphic" in2="noise" scale="2.6"
        xChannelSelector="R" yChannelSelector="G" result="w"/>
    <feComposite in="w" in2="SourceGraphic" operator="atop"/>
  </filter>

  <!-- Glow: sharp accent -->
  <filter id="glowr1x2976" x="-20%" y="-20%" width="140%" height="140%">
    <feGaussianBlur stdDeviation="3.5" result="b"/>
    <feColorMatrix in="b" type="matrix"
        values="0 0 0 0 1  0 0 0 0 1  0 0 0 0 1  0 0 0 1.8 0" result="boost"/>
    <feMerge><feMergeNode in="boost"/><feMergeNode in="SourceGraphic"/></feMerge>
  </filter>

  <!-- Bloom: wide soft -->
  <filter id="bloomr1x2976" x="-40%" y="-40%" width="180%" height="180%">
    <feGaussianBlur stdDeviation="11" result="b"/>
    <feMerge><feMergeNode in="b"/><feMergeNode in="SourceGraphic"/></feMerge>
  </filter>

  </defs><rect width="1000" height="1000" fill="url(#bgr1x2976)"/><ellipse cx="500.0" cy="892.0" rx="350.0" ry="65.0" fill="rgba(0,0,0,.7)" filter="url(#bloomr1x2976)"/><ellipse cx="500.0" cy="889.0" rx="220.0" ry="34.0" fill="rgba(0,0,0,.45)"/><ellipse cx="500.0" cy="520.0" rx="320.0" ry="480.0" fill="#6600ff" fill-opacity=".042" filter="url(#bloomr1x2976)"/><circle cx="713.2" cy="510.4" r="2.7" fill="#6600ff" fill-opacity="0.52" filter="url(#glowr1x2976)"/><circle cx="452.7" cy="741.5" r="3.9" fill="#6600ff" fill-opacity="0.76" filter="url(#glowr1x2976)"/><circle cx="743.4" cy="796.2" r="1.0" fill="#6600ff" fill-opacity="0.73" filter="url(#glowr1x2976)"/><circle cx="446.7" cy="593.5" r="2.7" fill="#6600ff" fill-opacity="0.69" filter="url(#glowr1x2976)"/><circle cx="615.4" cy="558.8" r="1.7" fill="#6600ff" fill-opacity="0.47" filter="url(#glowr1x2976)"/><circle cx="443.5" cy="395.3" r="0.8" fill="#6600ff" fill-opacity="0.49" filter="url(#glowr1x2976)"/><circle cx="544.5" cy="550.9" r="2.6" fill="#6600ff" fill-opacity="0.88" filter="url(#glowr1x2976)"/><circle cx="615.1" cy="336.3" r="3.7" fill="#6600ff" fill-opacity="0.80" filter="url(#glowr1x2976)"/><circle cx="344.0" cy="623.0" r="1.6" fill="#6600ff" fill-opacity="0.71" filter="url(#glowr1x2976)"/><circle cx="514.7" cy="369.1" r="2.5" fill="#6600ff" fill-opacity="0.75" filter="url(#glowr1x2976)"/><circle cx="741.7" cy="295.2" r="4.2" fill="#6600ff" fill-opacity="0.59" filter="url(#glowr1x2976)"/><circle cx="628.7" cy="577.7" r="3.2" fill="#6600ff" fill-opacity="0.43" filter="url(#glowr1x2976)"/><circle cx="385.9" cy="731.8" r="3.5" fill="#6600ff" fill-opacity="0.45" filter="url(#glowr1x2976)"/><circle cx="642.4" cy="269.0" r="2.3" fill="#6600ff" fill-opacity="0.60" filter="url(#glowr1x2976)"/><polygon points="400.0,663.7 490.3,661.5 479.1,875.8 388.4,877.2" fill="url(#suitr1x2976)" stroke="#ff2040" stroke-width="2.2" filter="url(#skr1x2976) url(#metalr1x2976)"/><polygon points="400.3,664.3 491.0,663.6 481.4,878.4 388.1,877.7" fill="url(#carbonr1x2976)"/><polygon points="393.3,725.3 494.3,722.8 483.6,788.0 384.8,788.0" fill="url(#bevelr1x2976)" fill-opacity=".5" stroke="#ff2040" stroke-width="1.4" filter="url(#skr1x2976)"/><polygon points="509.5,661.3 600.9,663.5 612.5,879.0 518.2,877.1" fill="url(#suitr1x2976)" stroke="#ff2040" stroke-width="2.2" filter="url(#skr1x2976) url(#metalr1x2976)"/><polygon points="510.0,661.8 600.1,663.4 613.0,878.4 520.9,875.7" fill="url(#carbonr1x2976)"/><polygon points="507.8,722.2 607.2,723.6 617.3,788.0 515.0,789.3" fill="url(#bevelr1x2976)" fill-opacity=".5" stroke="#ff2040" stroke-width="1.4" filter="url(#skr1x2976)"/><rect x="391.9" y="837.9" width="100.3" height="24.7" fill="url(#bevelr1x2976)" stroke="#ff2040" stroke-width="1" filter="url(#skr1x2976)"/><rect x="505.7"  y="840.0" width="100.3" height="24.7" fill="url(#bevelr1x2976)" stroke="#ff2040" stroke-width="1" filter="url(#skr1x2976)"/><polygon points="368.8,877.9 497.4,875.8 502.6,920.4 361.9,921.5" fill="#cc0020" stroke="#ff2040" stroke-width="2" filter="url(#skr1x2976)"/><polygon points="503.6,876.5 631.1,876.3 637.0,922.4 495.0,923.2" fill="#cc0020" stroke="#ff2040" stroke-width="2" filter="url(#skr1x2976)"/><polygon points="302.8,634.4 696.5,634.9 636.6,683.2 360.4,682.2" fill="#ff2040" fill-opacity=".52" stroke="#ff2040" stroke-width="2" filter="url(#skr1x2976)"/><rect x="463.4" y="639.5" width="72.0" height="42.0" fill="url(#bevelr1x2976)" stroke="#ff2040" stroke-width="1.4" filter="url(#glowr1x2976)"/><rect x="484.2" y="641.1" width="28.0" height="22.0" rx="1" fill="rgba(255,255,255,.48)"/><polygon points="151.7,466.6 235.9,465.2 258.1,734.4 129.5,734.0" fill="url(#suitr1x2976)" stroke="#ff2040" stroke-width="2.2" filter="url(#skr1x2976) url(#metalr1x2976)"/><polygon points="173.4,433.0 252.3,430.5 243.5,510.5 158.9,512.1" fill="url(#bevelr1x2976)" fill-opacity=".72" stroke="#ff2040" stroke-width="2.2" filter="url(#skr1x2976)"/><polygon points="160.0,622.0 242.3,621.3 240.2,662.6 165.4,660.4" fill="#ff2040" fill-opacity=".42" stroke="#ff2040" stroke-width="1" filter="url(#skr1x2976)"/><polygon points="766.7,468.1 847.0,465.3 872.0,733.4 741.1,735.8" fill="url(#suitr1x2976)" stroke="#ff2040" stroke-width="2.2" filter="url(#skr1x2976) url(#metalr1x2976)"/><polygon points="747.8,432.1 826.6,431.5 840.4,511.6 756.8,509.2" fill="url(#bevelr1x2976)" fill-opacity=".72" stroke="#ff2040" stroke-width="2.2" filter="url(#skr1x2976)"/><polygon points="758.6,623.3 840.6,623.5 833.3,662.4 762.4,659.2" fill="#ff2040" fill-opacity=".42" stroke="#ff2040" stroke-width="1" filter="url(#skr1x2976)"/><rect x="119.5"  y="699.1" width="135.3" height="85.0" rx="4" fill="url(#bevelr1x2976)" stroke="#ff2040" stroke-width="1.8" filter="url(#skr1x2976)"/><rect x="747.4"   y="698.6" width="135.3" height="85.0" rx="4" fill="url(#bevelr1x2976)" stroke="#ff2040" stroke-width="1.8" filter="url(#skr1x2976)"/><line x1="150.3" y1="702.3" x2="150.0" y2="782.2" stroke="#ff2040" stroke-opacity=".38" stroke-width="1"/><line x1="779.5" y1="702.4" x2="777.8" y2="783.2" stroke="#ff2040" stroke-opacity=".38" stroke-width="1"/><line x1="183.4" y1="701.8" x2="184.2" y2="785.6" stroke="#ff2040" stroke-opacity=".38" stroke-width="1"/><line x1="812.5" y1="700.7" x2="811.6" y2="783.8" stroke="#ff2040" stroke-opacity=".38" stroke-width="1"/><line x1="217.1" y1="703.3" x2="214.1" y2="784.9" stroke="#ff2040" stroke-opacity=".38" stroke-width="1"/><line x1="844.7" y1="702.7" x2="844.9" y2="784.9" stroke="#ff2040" stroke-opacity=".38" stroke-width="1"/><polygon points="234.9,418.8 763.9,418.1 722.3,663.9 278.1,661.3" fill="url(#suitr1x2976)" stroke="#ff2040" stroke-width="2.6" filter="url(#skr1x2976) url(#metalr1x2976)"/><polygon points="233.5,417.1 763.6,417.3 722.7,662.2 277.8,663.2" fill="url(#carbonr1x2976)"/><polygon points="368.7,417.1 631.7,418.0 609.9,515.0 387.0,516.9" fill="url(#suitHir1x2976)"/><line x1="363.1" y1="471.4" x2="636.8" y2="470.5" stroke="#ff2040" stroke-opacity=".52" stroke-width="1.3" filter="url(#skr1x2976)"/><line x1="399.8" y1="551.2" x2="602.3" y2="551.0" stroke="#ff2040" stroke-opacity=".52" stroke-width="1.3" filter="url(#skr1x2976)"/><line x1="268.4" y1="489.3" x2="318.9" y2="492.8" stroke="#ff2040" stroke-opacity=".62" stroke-width="1.8"/><line x1="681.1" y1="492.1" x2="732.6" y2="491.0" stroke="#ff2040" stroke-opacity=".62" stroke-width="1.8"/><line x1="268.5" y1="524.0" x2="319.6" y2="523.2" stroke="#ff2040" stroke-opacity=".62" stroke-width="1.8"/><line x1="680.2" y1="522.0" x2="733.9" y2="524.5" stroke="#ff2040" stroke-opacity=".62" stroke-width="1.8"/><line x1="265.2" y1="556.3" x2="319.3" y2="555.0" stroke="#ff2040" stroke-opacity=".62" stroke-width="1.8"/><line x1="678.6" y1="553.9" x2="732.9" y2="552.9" stroke="#ff2040" stroke-opacity=".62" stroke-width="1.8"/><line x1="265.4" y1="588.3" x2="321.3" y2="585.7" stroke="#ff2040" stroke-opacity=".62" stroke-width="1.8"/><line x1="678.6" y1="588.0" x2="733.7" y2="587.4" stroke="#ff2040" stroke-opacity=".62" stroke-width="1.8"/><g filter="url(#glowr1x2976)"><polygon points="482.5,452.7 514.2,506.2 501.2,506.3 517.2,568.9 488.6,516.5 499.6,515.8" fill="#ff2040" stroke="#0d1520" stroke-width="1.4" filter="url(#skr1x2976)"/><polygon points="483.1,454.2 511.3,507.4 500.4,504.4 515.7,570.1 485.7,514.5 499.9,515.2" fill="url(#suitHir1x2976)" opacity=".4"/></g><g><rect x="829.0029725738428" y="419.6389016841538" width="148.0" height="82.0" rx="5" fill="url(#gunmetalr1x2976)" stroke="#ff2040" stroke-width="2" filter="url(#wmr1x2976)"/><rect x="829.4522863516212" y="422.64441480273376" width="148.0" height="82.0" rx="5" fill="url(#carbonr1x2976)"/><rect x="839.3961919698492" y="403.3010902275331" width="90.0" height="22.0" rx="3" fill="url(#barrelr1x2976)" stroke="#ff2040" stroke-width="1" filter="url(#wmr1x2976)"/><circle cx="876.3603986158595" cy="414.13972782325" r="15.0" fill="#ff2040" opacity=".8" filter="url(#glowr1x2976)"/><circle cx="879.4192117881589" cy="415.71089762374754" r="6.0" fill="rgba(255,255,255,.9)"/><rect x="947.1043311819993" y="454.10379359107463" width="78.0" height="36.0" rx="5" fill="url(#barrelr1x2976)" stroke="#ff2040" stroke-width="1.2" filter="url(#wmr1x2976)"/><circle cx="1018.2869197119586" cy="472.81035336405034" r="18.0" fill="#ff2040" filter="url(#glowr1x2976)" opacity=".88"/><circle cx="1021.5166326580197" cy="473.1891796612181" r="7.0" fill="#ffffff"/><rect x="873.5963028481789" y="500.66988818114623" width="44.0" height="42.0" rx="3" fill="url(#gunmetalr1x2976)" stroke="#ff2040" stroke-width="1" filter="url(#wmr1x2976)"/><rect x="833.6373906734027" y="421.93827543081716" width="90.0" height="10.0" rx="2" fill="rgba(255,255,255,.22)"/><line x1="858.478268728368" y1="485.106770578213" x2="857.4205851950311" y2="519.7904159773141" stroke="#ff2040" stroke-opacity=".5" stroke-width="1.2"/><line x1="874.5598717072606" y1="487.24046327220276" x2="875.3711189431698" y2="521.0941866020672" stroke="#ff2040" stroke-opacity=".5" stroke-width="1.2"/><line x1="888.5917300071195" y1="486.3796772610396" x2="889.0928494031169" y2="520.8532099637202" stroke="#ff2040" stroke-opacity=".5" stroke-width="1.2"/></g><rect x="449.388940956071" y="556.1766830530948" width="100.0"  height="56.0" fill="#cc0020" stroke="#ff2040" stroke-width="2.2" filter="url(#skr1x2976)"/><rect x="423.9030801123008" y="575.9708177300171" width="152.0" height="26.0" fill="url(#bevelr1x2976)" fill-opacity=".65" stroke="#ff2040" stroke-width="1.2" filter="url(#skr1x2976)"/><polygon points="306.4,380.0 351.2,295.5 499.6,277.7 649.5,295.0 691.6,381.6 668.4,502.4 498.7,564.4 332.2,504.7" fill="url(#suitr1x2976)" stroke="#ff2040" stroke-width="2.8" filter="url(#skr1x2976) url(#metalr1x2976)"/><polygon points="308.8,380.6 348.7,295.8 499.9,278.3 648.3,293.5 691.6,381.9 668.6,502.2 498.2,563.5 329.6,505.3" fill="url(#carbonr1x2976)"/><polygon points="380.0,304.1 500.2,287.5 618.7,303.3 609.3,381.5 391.7,381.0" fill="url(#suitHir1x2976)"/><polygon points="381.2,379.0 363.9,426.5 434.1,504.1 500.0,527.2 568.6,505.3 633.1,423.9 618.0,381.4" fill="#0d1520" fill-opacity=".88" stroke="#ff2040" stroke-width="1.8" filter="url(#skr1x2976)"/><polygon points="379.9,412.5 477.6,411.7 485.2,441.2 388.4,439.6" fill="#ff2040" filter="url(#glowr1x2976)"/><polygon points="521.6,410.3 619.3,409.9 609.7,439.3 513.6,440.3" fill="#ff2040" filter="url(#glowr1x2976)"/><ellipse cx="430.9" cy="425.7" rx="38.4"  ry="8.2" fill="#ffffff" opacity=".88"/><ellipse cx="569.1" cy="425.7" rx="38.4"  ry="8.2" fill="#ffffff" opacity=".88"/><line x1="482.994995061364" y1="414.268581944704" x2="516.0621632051095" y2="414.1493126073852" stroke="#ff2040" stroke-opacity=".52" stroke-width="2"/><line x1="483.75431184066457" y1="439.24954505050556" x2="516.0835320072621" y2="437.28100843029097" stroke="#ff2040" stroke-opacity=".52" stroke-width="2"/><line x1="500.27459211684766" y1="452.75179198076944" x2="498.608065616712" y2="482.20809046020736" stroke="#ff2040" stroke-opacity=".58" stroke-width="2.2" filter="url(#skr1x2976)"/><line x1="452.49859869245444" y1="491.1593162864446" x2="454.5727229339816" y2="521.7003544540145" stroke="#ff2040" stroke-opacity=".52" stroke-width="1.5" filter="url(#skr1x2976)"/><line x1="477.60035013513635" y1="492.7326774223707" x2="475.498125340268" y2="521.7451691676863" stroke="#ff2040" stroke-opacity=".52" stroke-width="1.5" filter="url(#skr1x2976)"/><line x1="498.4626430307515" y1="493.0342054598033" x2="498.79187751282007" y2="520.0828325378709" stroke="#ff2040" stroke-opacity=".52" stroke-width="1.5" filter="url(#skr1x2976)"/><line x1="524.5377415869943" y1="492.1687999345362" x2="521.4760773874447" y2="520.4155675969087" stroke="#ff2040" stroke-opacity=".52" stroke-width="1.5" filter="url(#skr1x2976)"/><line x1="545.1376461594552" y1="492.6403077824041" x2="547.8322883212194" y2="520.8968479316682" stroke="#ff2040" stroke-opacity=".52" stroke-width="1.5" filter="url(#skr1x2976)"/><polygon points="434.3,503.8 566.8,504.5 554.0,558.1 445.9,555.7" fill="#cc0020" fill-opacity=".72" stroke="#ff2040" stroke-width="1.3" filter="url(#skr1x2976)"/><polygon points="478.6,301.8 523.2,302.6 510.7,174.2 487.6,177.0" fill="url(#bevelr1x2976)" stroke="#ff2040" stroke-width="2.2" filter="url(#skr1x2976)"/><polygon points="364.8,322.5 458.8,324.4 469.3,227.7" fill="url(#bevelr1x2976)" fill-opacity=".78" stroke="#ff2040" stroke-width="1.5" filter="url(#skr1x2976)"/><polygon points="541.0,321.7 635.1,321.5 531.3,228.3" fill="url(#bevelr1x2976)" fill-opacity=".78" stroke="#ff2040" stroke-width="1.5" filter="url(#skr1x2976)"/><text x="30.0"  y="975.0" font-family="monospace" font-weight="bold" font-size="22.0" fill="rgba(255,255,255,.22)">#0001</text><text x="500.0"   y="975.0" text-anchor="middle" font-family="monospace" font-weight="bold" font-size="22.0" fill="#ff2040" fill-opacity=".48">CRIMSON RANGER</text><text x="970.0" y="975.0" text-anchor="end"    font-family="monospace" font-weight="bold" font-size="22.0" fill="#ff2040" fill-opacity=".32">MECH RANGERS</text></svg>