<svg xmlns="http://www.w3.org/2000/svg" viewBox="0 0 1000 1000" width="1000" height="1000" shape-rendering="geometricPrecision"><defs>

  <!-- Scene gradients -->
  <radialGradient id="bgr1x3028" cx="50%" cy="42%" r="72%">
    <stop offset="0%"   stop-color="#0a0a14"/>
    <stop offset="100%" stop-color="#050508"/>
  </radialGradient>
  <linearGradient id="suitr1x3028" x1="8%" y1="0%" x2="92%" y2="100%">
    <stop offset="0%"   stop-color="#4444ff" stop-opacity=".95"/>
    <stop offset="45%"  stop-color="#141428"/>
    <stop offset="100%" stop-color="#050508"/>
  </linearGradient>
  <linearGradient id="suitHir1x3028" x1="0%" y1="0%" x2="0%" y2="100%">
    <stop offset="0%"   stop-color="rgba(255,255,255,.28)"/>
    <stop offset="60%"  stop-color="rgba(255,255,255,.04)"/>
    <stop offset="100%" stop-color="rgba(255,255,255,0)"/>
  </linearGradient>
  <!-- Bevel: bright top, dark bottom for armour panels -->
  <linearGradient id="bevelr1x3028" x1="0%" y1="0%" x2="0%" y2="100%">
    <stop offset="0%"   stop-color="rgba(255,255,255,.55)"/>
    <stop offset="30%"  stop-color="#4444ff"/>
    <stop offset="70%"  stop-color="#141428"/>
    <stop offset="100%" stop-color="rgba(0,0,0,.5)"/>
  </linearGradient>

  <!-- Weapon: cold steel blade sweep -->
  <linearGradient id="blader1x3028" x1="0%" y1="0%" x2="100%" y2="0%">
    <stop offset="0%"   stop-color="#0e0e20"/>
    <stop offset="16%"  stop-color="#3e3e58"/>
    <stop offset="34%"  stop-color="#c8c8e0"/>
    <stop offset="50%"  stop-color="#f5f5ff"/>
    <stop offset="66%"  stop-color="#b8b8d0"/>
    <stop offset="84%"  stop-color="#2e2e48"/>
    <stop offset="100%" stop-color="#08080e"/>
  </linearGradient>
  <!-- Blade tip brightening -->
  <linearGradient id="bladeTipr1x3028" x1="0%" y1="100%" x2="0%" y2="0%">
    <stop offset="0%"   stop-color="rgba(255,255,255,0)"/>
    <stop offset="55%"  stop-color="rgba(255,255,255,.1)"/>
    <stop offset="100%" stop-color="rgba(255,255,255,.55)"/>
  </linearGradient>
  <!-- Gunmetal anodised — blaster body -->
  <linearGradient id="gunmetalr1x3028" x1="0%" y1="0%" x2="0%" y2="100%">
    <stop offset="0%"   stop-color="#46465e"/>
    <stop offset="18%"  stop-color="#828296"/>
    <stop offset="42%"  stop-color="#26263a"/>
    <stop offset="72%"  stop-color="#16162a"/>
    <stop offset="100%" stop-color="#0c0c18"/>
  </linearGradient>
  <!-- Brushed steel tube — barrel/rod -->
  <linearGradient id="barrelr1x3028" x1="0%" y1="0%" x2="100%" y2="0%">
    <stop offset="0%"   stop-color="#0a0a14"/>
    <stop offset="24%"  stop-color="#585875"/>
    <stop offset="50%"  stop-color="#a8a8c8"/>
    <stop offset="76%"  stop-color="#383852"/>
    <stop offset="100%" stop-color="#0a0a14"/>
  </linearGradient>
  <!-- Chrome rod — lance shaft -->
  <linearGradient id="chromer1x3028" x1="0%" y1="0%" x2="100%" y2="0%">
    <stop offset="0%"   stop-color="#0c0c18"/>
    <stop offset="20%"  stop-color="#686888"/>
    <stop offset="44%"  stop-color="#e0e0f0"/>
    <stop offset="56%"  stop-color="#c0c0d8"/>
    <stop offset="80%"  stop-color="#28283e"/>
    <stop offset="100%" stop-color="#0c0c18"/>
  </linearGradient>
  <!-- Titanium plate — shield face -->
  <linearGradient id="titaniumr1x3028" x1="0%" y1="0%" x2="100%" y2="100%">
    <stop offset="0%"   stop-color="#585878"/>
    <stop offset="28%"  stop-color="#4444ff" stop-opacity=".88"/>
    <stop offset="55%"  stop-color="#141428"/>
    <stop offset="80%"  stop-color="#181828"/>
    <stop offset="100%" stop-color="#0a0a18"/>
  </linearGradient>
  <!-- Artillery black-chrome — cannon body -->
  <linearGradient id="artilleryr1x3028" x1="0%" y1="0%" x2="0%" y2="100%">
    <stop offset="0%"   stop-color="#383850"/>
    <stop offset="14%"  stop-color="#78789a"/>
    <stop offset="36%"  stop-color="#202034"/>
    <stop offset="65%"  stop-color="#14141e"/>
    <stop offset="100%" stop-color="#0a0a12"/>
  </linearGradient>
  <!-- Energy orb — staff -->
  <radialGradient id="orbr1x3028" cx="35%" cy="35%" r="65%">
    <stop offset="0%"   stop-color="rgba(255,255,255,.9)"/>
    <stop offset="30%"  stop-color="#4444ff"/>
    <stop offset="68%"  stop-color="#141428"/>
    <stop offset="100%" stop-color="rgba(0,0,0,.6)"/>
  </radialGradient>
  <!-- Knuckle plate chrome -->
  <linearGradient id="knuckler1x3028" x1="0%" y1="0%" x2="0%" y2="100%">
    <stop offset="0%"   stop-color="#888aaa"/>
    <stop offset="32%"  stop-color="#4444ff" stop-opacity=".8"/>
    <stop offset="62%"  stop-color="#1a1a2c"/>
    <stop offset="100%" stop-color="#0a0a14"/>
  </linearGradient>

  <!-- Carbon fibre weave texture overlay -->
  <pattern id="carbonr1x3028" width="6" height="6" patternUnits="userSpaceOnUse">
    <rect width="6" height="6" fill="rgba(0,0,0,.08)"/>
    <rect x="0" y="0" width="3" height="3" fill="rgba(255,255,255,.022)"/>
    <rect x="3" y="3" width="3" height="3" fill="rgba(255,255,255,.022)"/>
    <line x1="0" y1="0" x2="3" y2="3" stroke="rgba(255,255,255,.038)" stroke-width=".5"/>
    <line x1="3" y1="0" x2="6" y2="3" stroke="rgba(0,0,0,.055)"       stroke-width=".5"/>
    <line x1="0" y1="3" x2="3" y2="6" stroke="rgba(0,0,0,.055)"       stroke-width=".5"/>
    <line x1="3" y1="3" x2="6" y2="6" stroke="rgba(255,255,255,.038)" stroke-width=".5"/>
  </pattern>

  <!-- Specular metal sheen on armour panels -->
  <filter id="metalr1x3028" x="-5%" y="-5%" width="110%" height="110%">
    <feSpecularLighting surfaceScale="4" specularConstant="1.8"
        specularExponent="42" lighting-color="#ffffff" result="spec">
      <feDistantLight elevation="52" azimuth="38"/>
    </feSpecularLighting>
    <feComposite in="spec" in2="SourceGraphic" operator="in" result="sm"/>
    <feComposite in="SourceGraphic" in2="sm" operator="arithmetic" k1="0" k2="1" k3="0.55" k4="0"/>
  </filter>

  <!-- Sharper specular for weapons — heavier glare -->
  <filter id="wmr1x3028" x="-8%" y="-8%" width="116%" height="116%">
    <feSpecularLighting surfaceScale="6" specularConstant="2.4"
        specularExponent="65" lighting-color="#ffffff" result="spec">
      <feDistantLight elevation="44" azimuth="28"/>
    </feSpecularLighting>
    <feComposite in="spec" in2="SourceGraphic" operator="in" result="sm"/>
    <feComposite in="SourceGraphic" in2="sm" operator="arithmetic" k1="0" k2="1" k3="0.78" k4="0"/>
  </filter>

  <!-- Sketch wobble -->
  <filter id="skr1x3028" x="-8%" y="-8%" width="116%" height="116%">
    <feTurbulence type="fractalNoise" baseFrequency="0.038"
        numOctaves="3" seed="88" result="noise"/>
    <feDisplacementMap in="SourceGraphic" in2="noise" scale="2.6"
        xChannelSelector="R" yChannelSelector="G" result="w"/>
    <feComposite in="w" in2="SourceGraphic" operator="atop"/>
  </filter>

  <!-- Glow: sharp accent -->
  <filter id="glowr1x3028" x="-20%" y="-20%" width="140%" height="140%">
    <feGaussianBlur stdDeviation="3.5" result="b"/>
    <feColorMatrix in="b" type="matrix"
        values="0 0 0 0 1  0 0 0 0 1  0 0 0 0 1  0 0 0 1.8 0" result="boost"/>
    <feMerge><feMergeNode in="boost"/><feMergeNode in="SourceGraphic"/></feMerge>
  </filter>

  <!-- Bloom: wide soft -->
  <filter id="bloomr1x3028" x="-40%" y="-40%" width="180%" height="180%">
    <feGaussianBlur stdDeviation="11" result="b"/>
    <feMerge><feMergeNode in="b"/><feMergeNode in="SourceGraphic"/></feMerge>
  </filter>

  </defs><rect width="1000" height="1000" fill="url(#bgr1x3028)"/><ellipse cx="500.0" cy="892.0" rx="350.0" ry="65.0" fill="rgba(0,0,0,.7)" filter="url(#bloomr1x3028)"/><ellipse cx="500.0" cy="889.0" rx="220.0" ry="34.0" fill="rgba(0,0,0,.45)"/><ellipse cx="500.0" cy="520.0" rx="320.0" ry="480.0" fill="#00e5ff" fill-opacity=".042" filter="url(#bloomr1x3028)"/><circle cx="327.3" cy="249.9" r="1.0" fill="#00e5ff" fill-opacity="0.58" filter="url(#glowr1x3028)"/><circle cx="689.2" cy="191.7" r="3.1" fill="#00e5ff" fill-opacity="0.83" filter="url(#glowr1x3028)"/><circle cx="656.5" cy="278.7" r="1.4" fill="#00e5ff" fill-opacity="0.52" filter="url(#glowr1x3028)"/><circle cx="588.7" cy="236.3" r="1.9" fill="#00e5ff" fill-opacity="0.60" filter="url(#glowr1x3028)"/><circle cx="747.4" cy="257.9" r="1.4" fill="#00e5ff" fill-opacity="0.51" filter="url(#glowr1x3028)"/><circle cx="569.8" cy="270.7" r="0.9" fill="#00e5ff" fill-opacity="0.90" filter="url(#glowr1x3028)"/><circle cx="374.2" cy="393.3" r="3.3" fill="#00e5ff" fill-opacity="0.62" filter="url(#glowr1x3028)"/><circle cx="430.3" cy="471.6" r="2.2" fill="#00e5ff" fill-opacity="0.72" filter="url(#glowr1x3028)"/><circle cx="310.3" cy="518.1" r="2.4" fill="#00e5ff" fill-opacity="0.66" filter="url(#glowr1x3028)"/><circle cx="647.4" cy="471.1" r="4.1" fill="#00e5ff" fill-opacity="0.43" filter="url(#glowr1x3028)"/><circle cx="651.6" cy="286.4" r="1.5" fill="#00e5ff" fill-opacity="0.84" filter="url(#glowr1x3028)"/><circle cx="548.5" cy="750.6" r="2.4" fill="#00e5ff" fill-opacity="0.82" filter="url(#glowr1x3028)"/><circle cx="683.9" cy="697.2" r="1.0" fill="#00e5ff" fill-opacity="0.58" filter="url(#glowr1x3028)"/><circle cx="341.1" cy="406.0" r="2.5" fill="#00e5ff" fill-opacity="0.85" filter="url(#glowr1x3028)"/><path d="M519.6,186.4 Q564.3,431.6 656.8,633.9" stroke="#00e5ff" stroke-opacity="0.67" stroke-width="2.1" fill="none" filter="url(#glowr1x3028)"/><path d="M455.1,260.5 Q429.7,523.9 540.1,747.8" stroke="#00e5ff" stroke-opacity="0.73" stroke-width="2.0" fill="none" filter="url(#glowr1x3028)"/><path d="M669.9,274.6 Q689.9,475.0 540.0,727.9" stroke="#00e5ff" stroke-opacity="0.77" stroke-width="1.6" fill="none" filter="url(#glowr1x3028)"/><path d="M516.6,374.0 Q515.0,613.2 469.3,837.0" stroke="#00e5ff" stroke-opacity="0.45" stroke-width="2.9" fill="none" filter="url(#glowr1x3028)"/><path d="M660.3,328.3 Q640.3,490.1 522.7,605.4" stroke="#00e5ff" stroke-opacity="0.64" stroke-width="2.4" fill="none" filter="url(#glowr1x3028)"/><polygon points="399.3,660.7 490.7,660.8 480.4,877.2 388.4,878.2" fill="url(#suitr1x3028)" stroke="#4444ff" stroke-width="2.2" filter="url(#skr1x3028) url(#metalr1x3028)"/><polygon points="400.0,661.1 489.1,662.7 480.6,876.3 387.4,877.3" fill="url(#carbonr1x3028)"/><polygon points="392.3,722.1 492.0,724.6 482.6,787.7 384.4,786.5" fill="url(#bevelr1x3028)" fill-opacity=".5" stroke="#4444ff" stroke-width="1.4" filter="url(#skr1x3028)"/><polygon points="511.6,663.8 599.9,662.5 612.1,878.6 520.2,877.8" fill="url(#suitr1x3028)" stroke="#4444ff" stroke-width="2.2" filter="url(#skr1x3028) url(#metalr1x3028)"/><polygon points="509.1,662.8 602.3,661.6 612.6,878.6 518.4,878.5" fill="url(#carbonr1x3028)"/><polygon points="508.5,722.4 606.3,723.1 614.8,787.9 516.9,788.7" fill="url(#bevelr1x3028)" fill-opacity=".5" stroke="#4444ff" stroke-width="1.4" filter="url(#skr1x3028)"/><rect x="391.9" y="839.5" width="100.3" height="24.7" fill="url(#bevelr1x3028)" stroke="#4444ff" stroke-width="1" filter="url(#skr1x3028)"/><rect x="506.1"  y="840.5" width="100.3" height="24.7" fill="url(#bevelr1x3028)" stroke="#4444ff" stroke-width="1" filter="url(#skr1x3028)"/><polygon points="371.2,878.1 497.4,875.9 503.8,920.9 363.2,922.4" fill="#141428" stroke="#4444ff" stroke-width="2" filter="url(#skr1x3028)"/><polygon points="504.9,875.8 629.0,876.3 637.3,919.9 497.4,920.2" fill="#141428" stroke="#4444ff" stroke-width="2" filter="url(#skr1x3028)"/><polygon points="303.0,632.9 696.2,631.8 638.1,680.5 362.5,680.4" fill="#4444ff" fill-opacity=".52" stroke="#4444ff" stroke-width="2" filter="url(#skr1x3028)"/><rect x="463.5" y="638.9" width="72.0" height="42.0" fill="url(#bevelr1x3028)" stroke="#4444ff" stroke-width="1.4" filter="url(#glowr1x3028)"/><rect x="485.1" y="641.9" width="28.0" height="22.0" rx="1" fill="rgba(255,255,255,.48)"/><polygon points="154.0,464.9 235.3,467.5 259.2,734.4 127.2,736.3" fill="url(#suitr1x3028)" stroke="#4444ff" stroke-width="2.2" filter="url(#skr1x3028) url(#metalr1x3028)"/><polygon points="173.6,433.8 254.8,433.3 243.0,510.8 159.7,510.5" fill="url(#bevelr1x3028)" fill-opacity=".72" stroke="#4444ff" stroke-width="2.2" filter="url(#skr1x3028)"/><polygon points="162.2,620.4 241.6,622.3 237.9,660.0 166.4,660.5" fill="#4444ff" fill-opacity=".42" stroke="#4444ff" stroke-width="1" filter="url(#skr1x3028)"/><polygon points="765.4,467.9 848.1,466.6 871.2,733.5 743.8,735.6" fill="url(#suitr1x3028)" stroke="#4444ff" stroke-width="2.2" filter="url(#skr1x3028) url(#metalr1x3028)"/><polygon points="746.3,432.4 824.8,431.0 841.7,509.1 756.4,511.0" fill="url(#bevelr1x3028)" fill-opacity=".72" stroke="#4444ff" stroke-width="2.2" filter="url(#skr1x3028)"/><polygon points="758.0,621.0 837.1,621.9 835.6,662.6 761.2,662.4" fill="#4444ff" fill-opacity=".42" stroke="#4444ff" stroke-width="1" filter="url(#skr1x3028)"/><rect x="121.3"  y="701.1" width="135.3" height="85.0" rx="4" fill="url(#bevelr1x3028)" stroke="#4444ff" stroke-width="1.8" filter="url(#skr1x3028)"/><rect x="747.5"   y="699.0" width="135.3" height="85.0" rx="4" fill="url(#bevelr1x3028)" stroke="#4444ff" stroke-width="1.8" filter="url(#skr1x3028)"/><line x1="148.8" y1="700.5" x2="150.7" y2="783.8" stroke="#4444ff" stroke-opacity=".38" stroke-width="1"/><line x1="776.8" y1="702.7" x2="777.9" y2="785.1" stroke="#4444ff" stroke-opacity=".38" stroke-width="1"/><line x1="183.5" y1="703.4" x2="181.6" y2="785.4" stroke="#4444ff" stroke-opacity=".38" stroke-width="1"/><line x1="811.0" y1="701.7" x2="811.4" y2="784.6" stroke="#4444ff" stroke-opacity=".38" stroke-width="1"/><line x1="215.8" y1="703.5" x2="216.2" y2="784.3" stroke="#4444ff" stroke-opacity=".38" stroke-width="1"/><line x1="843.8" y1="701.9" x2="845.3" y2="784.8" stroke="#4444ff" stroke-opacity=".38" stroke-width="1"/><polygon points="236.7,418.0 763.6,415.9 722.1,662.4 278.3,661.3" fill="url(#suitr1x3028)" stroke="#4444ff" stroke-width="2.6" filter="url(#skr1x3028) url(#metalr1x3028)"/><polygon points="234.2,417.6 764.9,417.7 723.0,661.5 276.4,662.0" fill="url(#carbonr1x3028)"/><polygon points="367.9,417.3 633.7,418.6 610.3,516.4 389.9,513.9" fill="url(#suitHir1x3028)"/><line x1="362.7" y1="471.8" x2="637.0" y2="472.0" stroke="#4444ff" stroke-opacity=".52" stroke-width="1.3" filter="url(#skr1x3028)"/><line x1="399.6" y1="549.4" x2="600.4" y2="549.2" stroke="#4444ff" stroke-opacity=".52" stroke-width="1.3" filter="url(#skr1x3028)"/><line x1="267.9" y1="490.4" x2="319.0" y2="491.3" stroke="#4444ff" stroke-opacity=".62" stroke-width="1.8"/><line x1="678.5" y1="489.4" x2="733.9" y2="489.7" stroke="#4444ff" stroke-opacity=".62" stroke-width="1.8"/><line x1="265.3" y1="523.8" x2="320.6" y2="522.7" stroke="#4444ff" stroke-opacity=".62" stroke-width="1.8"/><line x1="678.9" y1="523.5" x2="732.1" y2="521.4" stroke="#4444ff" stroke-opacity=".62" stroke-width="1.8"/><line x1="265.4" y1="556.1" x2="321.0" y2="553.3" stroke="#4444ff" stroke-opacity=".62" stroke-width="1.8"/><line x1="679.3" y1="554.1" x2="731.7" y2="554.1" stroke="#4444ff" stroke-opacity=".62" stroke-width="1.8"/><line x1="265.8" y1="585.5" x2="318.4" y2="587.1" stroke="#4444ff" stroke-opacity=".62" stroke-width="1.8"/><line x1="678.7" y1="584.8" x2="731.6" y2="586.3" stroke="#4444ff" stroke-opacity=".62" stroke-width="1.8"/><g filter="url(#glowr1x3028)"><circle cx="499.3" cy="498.5" r="31.3" fill="#4444ff" stroke="#050508" stroke-width="1.4" filter="url(#skr1x3028)"/><circle cx="487.6" cy="497.9" r="7.0" fill="#050508"/><circle cx="513.3" cy="498.3" r="7.0" fill="#050508"/><rect x="485.1" y="522.3" width="9.3" height="17.4" rx="1" fill="#4444ff" stroke="#050508" stroke-width=".6"/><rect x="497.2" y="522.6" width="9.3" height="17.4" rx="1" fill="#4444ff" stroke="#050508" stroke-width=".6"/><rect x="507.5" y="522.1" width="9.3" height="17.4" rx="1" fill="#4444ff" stroke="#050508" stroke-width=".6"/></g><g><polygon points="867.8,691.8 898.5,691.3 833.4,272.6" fill="url(#blader1x3028)" stroke="#4444ff" stroke-width="1.8" filter="url(#wmr1x3028)"/><line x1="892.8" y1="691.4" x2="841.8" y2="271.4" stroke="rgba(255,255,255,.58)" stroke-width="1.3"/><polygon points="912.0,691.1 945.5,690.0 985.8,272.5" fill="url(#blader1x3028)" stroke="#4444ff" stroke-width="1.8" filter="url(#wmr1x3028)"/><line x1="941.8" y1="691.4" x2="979.8" y2="271.4" stroke="rgba(255,255,255,.58)" stroke-width="1.3"/><rect x="865.2646008006856" y="682.4852113931439" width="96.0" height="26.0" rx="2" fill="url(#bevelr1x3028)" stroke="#4444ff" stroke-width="1.4" filter="url(#wmr1x3028)"/></g><rect x="450.7269873328507" y="555.3680522651412" width="100.0"  height="56.0" fill="#141428" stroke="#4444ff" stroke-width="2.2" filter="url(#skr1x3028)"/><rect x="423.9630249164067" y="575.4137589321472" width="152.0" height="26.0" fill="url(#bevelr1x3028)" fill-opacity=".65" stroke="#4444ff" stroke-width="1.2" filter="url(#skr1x3028)"/><polygon points="309.1,379.8 349.0,293.6 499.6,278.5 648.8,294.8 692.7,381.9 670.4,505.1 499.7,566.5 329.6,503.3" fill="url(#suitr1x3028)" stroke="#4444ff" stroke-width="2.8" filter="url(#skr1x3028) url(#metalr1x3028)"/><polygon points="308.5,379.2 349.9,294.9 499.2,277.2 649.8,293.6 690.8,380.2 668.7,502.9 500.9,565.7 330.3,503.3" fill="url(#carbonr1x3028)"/><polygon points="379.8,303.6 501.5,286.3 620.4,302.8 607.8,382.0 391.9,381.2" fill="url(#suitHir1x3028)"/><polygon points="381.3,379.6 365.1,425.6 433.1,503.7 500.0,529.0 568.3,505.1 634.9,425.6 618.7,379.8" fill="#050508" fill-opacity=".88" stroke="#4444ff" stroke-width="1.8" filter="url(#skr1x3028)"/><polygon points="380.5,411.4 475.4,411.5 483.0,438.3 389.9,439.1" fill="#4444ff" filter="url(#glowr1x3028)"/><polygon points="521.8,410.5 618.8,412.4 610.4,439.3 513.7,441.6" fill="#4444ff" filter="url(#glowr1x3028)"/><ellipse cx="430.9" cy="425.7" rx="38.4"  ry="8.2" fill="#ffffff" opacity=".88"/><ellipse cx="569.1" cy="425.7" rx="38.4"  ry="8.2" fill="#ffffff" opacity=".88"/><line x1="483.00743651386347" y1="412.2594318226911" x2="514.4138180294447" y2="412.9920545613393" stroke="#4444ff" stroke-opacity=".52" stroke-width="2"/><line x1="485.96336967354637" y1="438.6389766387641" x2="516.6860787314736" y2="438.39712510826064" stroke="#4444ff" stroke-opacity=".52" stroke-width="2"/><line x1="499.7908643082716" y1="454.2977688715793" x2="501.57937510032207" y2="483.44964144993577" stroke="#4444ff" stroke-opacity=".58" stroke-width="2.2" filter="url(#skr1x3028)"/><line x1="453.00056457266214" y1="492.7934433193877" x2="455.67601229351015" y2="519.6877692579292" stroke="#4444ff" stroke-opacity=".52" stroke-width="1.5" filter="url(#skr1x3028)"/><line x1="478.27099278600883" y1="492.45960923526434" x2="476.83394012752916" y2="518.808958119899" stroke="#4444ff" stroke-opacity=".52" stroke-width="1.5" filter="url(#skr1x3028)"/><line x1="498.41167393233627" y1="492.70258867740625" x2="499.48247969131916" y2="518.9559485844336" stroke="#4444ff" stroke-opacity=".52" stroke-width="1.5" filter="url(#skr1x3028)"/><line x1="523.9537277904898" y1="490.4325361827388" x2="522.0208062884025" y2="520.3348185621202" stroke="#4444ff" stroke-opacity=".52" stroke-width="1.5" filter="url(#skr1x3028)"/><line x1="545.0357920565829" y1="490.45229135202237" x2="545.9368271319382" y2="520.061990002729" stroke="#4444ff" stroke-opacity=".52" stroke-width="1.5" filter="url(#skr1x3028)"/><polygon points="434.6,503.1 565.4,504.4 554.4,556.6 447.2,557.9" fill="#141428" fill-opacity=".72" stroke="#4444ff" stroke-width="1.3" filter="url(#skr1x3028)"/><path d="M342.4554740204848 373.8766605774872 Q382.1458851270751 236.5373701777309 500.33616588013246 281.4117800598964" stroke="#4444ff" stroke-width="2.8" fill="none" stroke-opacity=".88" filter="url(#skr1x3028)"/><path d="M657.3053636502102 370.8234289815649 Q617.3139081612787 236.42580403238534 498.3405850669369 283.2293566434644" stroke="#4444ff" stroke-width="2.8" fill="none" stroke-opacity=".88" filter="url(#skr1x3028)"/><line x1="420.29204754628245" y1="471.78723313594236" x2="439.0069556164928" y2="502.31754593802617" stroke="#4444ff" stroke-opacity=".52" stroke-width="1.3" filter="url(#skr1x3028)"/><line x1="476.99775859205056" y1="469.9505043596029" x2="495.26102556692433" y2="504.42777726007625" stroke="#4444ff" stroke-opacity=".52" stroke-width="1.3" filter="url(#skr1x3028)"/><line x1="535.0207523783109" y1="469.8136731405743" x2="553.1144182748534" y2="504.69534694803883" stroke="#4444ff" stroke-opacity=".52" stroke-width="1.3" filter="url(#skr1x3028)"/><line x1="591.4806710194238" y1="470.269694221206" x2="609.9924018992484" y2="504.3694628358819" stroke="#4444ff" stroke-opacity=".52" stroke-width="1.3" filter="url(#skr1x3028)"/><text x="30.0"  y="975.0" font-family="monospace" font-weight="bold" font-size="22.0" fill="rgba(255,255,255,.22)">#0001</text><text x="500.0"   y="975.0" text-anchor="middle" font-family="monospace" font-weight="bold" font-size="22.0" fill="#4444ff" fill-opacity=".48">OBSIDIAN RANGER</text><text x="970.0" y="975.0" text-anchor="end"    font-family="monospace" font-weight="bold" font-size="22.0" fill="#4444ff" fill-opacity=".32">MECH RANGERS</text></svg>