<svg xmlns="http://www.w3.org/2000/svg" viewBox="0 0 1000 1000" width="1000" height="1000" shape-rendering="geometricPrecision"><defs>

  <!-- Scene gradients -->
  <radialGradient id="bgr1x3124" cx="50%" cy="42%" r="72%">
    <stop offset="0%"   stop-color="#0e000e"/>
    <stop offset="100%" stop-color="#1e0600"/>
  </radialGradient>
  <linearGradient id="suitr1x3124" x1="8%" y1="0%" x2="92%" y2="100%">
    <stop offset="0%"   stop-color="#4444ff" stop-opacity=".95"/>
    <stop offset="45%"  stop-color="#141428"/>
    <stop offset="100%" stop-color="#1e0600"/>
  </linearGradient>
  <linearGradient id="suitHir1x3124" x1="0%" y1="0%" x2="0%" y2="100%">
    <stop offset="0%"   stop-color="rgba(255,255,255,.28)"/>
    <stop offset="60%"  stop-color="rgba(255,255,255,.04)"/>
    <stop offset="100%" stop-color="rgba(255,255,255,0)"/>
  </linearGradient>
  <!-- Bevel: bright top, dark bottom for armour panels -->
  <linearGradient id="bevelr1x3124" x1="0%" y1="0%" x2="0%" y2="100%">
    <stop offset="0%"   stop-color="rgba(255,255,255,.55)"/>
    <stop offset="30%"  stop-color="#4444ff"/>
    <stop offset="70%"  stop-color="#141428"/>
    <stop offset="100%" stop-color="rgba(0,0,0,.5)"/>
  </linearGradient>

  <!-- Weapon: cold steel blade sweep -->
  <linearGradient id="blader1x3124" x1="0%" y1="0%" x2="100%" y2="0%">
    <stop offset="0%"   stop-color="#0e0e20"/>
    <stop offset="16%"  stop-color="#3e3e58"/>
    <stop offset="34%"  stop-color="#c8c8e0"/>
    <stop offset="50%"  stop-color="#f5f5ff"/>
    <stop offset="66%"  stop-color="#b8b8d0"/>
    <stop offset="84%"  stop-color="#2e2e48"/>
    <stop offset="100%" stop-color="#08080e"/>
  </linearGradient>
  <!-- Blade tip brightening -->
  <linearGradient id="bladeTipr1x3124" x1="0%" y1="100%" x2="0%" y2="0%">
    <stop offset="0%"   stop-color="rgba(255,255,255,0)"/>
    <stop offset="55%"  stop-color="rgba(255,255,255,.1)"/>
    <stop offset="100%" stop-color="rgba(255,255,255,.55)"/>
  </linearGradient>
  <!-- Gunmetal anodised — blaster body -->
  <linearGradient id="gunmetalr1x3124" x1="0%" y1="0%" x2="0%" y2="100%">
    <stop offset="0%"   stop-color="#46465e"/>
    <stop offset="18%"  stop-color="#828296"/>
    <stop offset="42%"  stop-color="#26263a"/>
    <stop offset="72%"  stop-color="#16162a"/>
    <stop offset="100%" stop-color="#0c0c18"/>
  </linearGradient>
  <!-- Brushed steel tube — barrel/rod -->
  <linearGradient id="barrelr1x3124" x1="0%" y1="0%" x2="100%" y2="0%">
    <stop offset="0%"   stop-color="#0a0a14"/>
    <stop offset="24%"  stop-color="#585875"/>
    <stop offset="50%"  stop-color="#a8a8c8"/>
    <stop offset="76%"  stop-color="#383852"/>
    <stop offset="100%" stop-color="#0a0a14"/>
  </linearGradient>
  <!-- Chrome rod — lance shaft -->
  <linearGradient id="chromer1x3124" x1="0%" y1="0%" x2="100%" y2="0%">
    <stop offset="0%"   stop-color="#0c0c18"/>
    <stop offset="20%"  stop-color="#686888"/>
    <stop offset="44%"  stop-color="#e0e0f0"/>
    <stop offset="56%"  stop-color="#c0c0d8"/>
    <stop offset="80%"  stop-color="#28283e"/>
    <stop offset="100%" stop-color="#0c0c18"/>
  </linearGradient>
  <!-- Titanium plate — shield face -->
  <linearGradient id="titaniumr1x3124" x1="0%" y1="0%" x2="100%" y2="100%">
    <stop offset="0%"   stop-color="#585878"/>
    <stop offset="28%"  stop-color="#4444ff" stop-opacity=".88"/>
    <stop offset="55%"  stop-color="#141428"/>
    <stop offset="80%"  stop-color="#181828"/>
    <stop offset="100%" stop-color="#0a0a18"/>
  </linearGradient>
  <!-- Artillery black-chrome — cannon body -->
  <linearGradient id="artilleryr1x3124" x1="0%" y1="0%" x2="0%" y2="100%">
    <stop offset="0%"   stop-color="#383850"/>
    <stop offset="14%"  stop-color="#78789a"/>
    <stop offset="36%"  stop-color="#202034"/>
    <stop offset="65%"  stop-color="#14141e"/>
    <stop offset="100%" stop-color="#0a0a12"/>
  </linearGradient>
  <!-- Energy orb — staff -->
  <radialGradient id="orbr1x3124" cx="35%" cy="35%" r="65%">
    <stop offset="0%"   stop-color="rgba(255,255,255,.9)"/>
    <stop offset="30%"  stop-color="#4444ff"/>
    <stop offset="68%"  stop-color="#141428"/>
    <stop offset="100%" stop-color="rgba(0,0,0,.6)"/>
  </radialGradient>
  <!-- Knuckle plate chrome -->
  <linearGradient id="knuckler1x3124" x1="0%" y1="0%" x2="0%" y2="100%">
    <stop offset="0%"   stop-color="#888aaa"/>
    <stop offset="32%"  stop-color="#4444ff" stop-opacity=".8"/>
    <stop offset="62%"  stop-color="#1a1a2c"/>
    <stop offset="100%" stop-color="#0a0a14"/>
  </linearGradient>

  <!-- Carbon fibre weave texture overlay -->
  <pattern id="carbonr1x3124" width="6" height="6" patternUnits="userSpaceOnUse">
    <rect width="6" height="6" fill="rgba(0,0,0,.08)"/>
    <rect x="0" y="0" width="3" height="3" fill="rgba(255,255,255,.022)"/>
    <rect x="3" y="3" width="3" height="3" fill="rgba(255,255,255,.022)"/>
    <line x1="0" y1="0" x2="3" y2="3" stroke="rgba(255,255,255,.038)" stroke-width=".5"/>
    <line x1="3" y1="0" x2="6" y2="3" stroke="rgba(0,0,0,.055)"       stroke-width=".5"/>
    <line x1="0" y1="3" x2="3" y2="6" stroke="rgba(0,0,0,.055)"       stroke-width=".5"/>
    <line x1="3" y1="3" x2="6" y2="6" stroke="rgba(255,255,255,.038)" stroke-width=".5"/>
  </pattern>

  <!-- Specular metal sheen on armour panels -->
  <filter id="metalr1x3124" x="-5%" y="-5%" width="110%" height="110%">
    <feSpecularLighting surfaceScale="4" specularConstant="1.8"
        specularExponent="42" lighting-color="#ffffff" result="spec">
      <feDistantLight elevation="52" azimuth="38"/>
    </feSpecularLighting>
    <feComposite in="spec" in2="SourceGraphic" operator="in" result="sm"/>
    <feComposite in="SourceGraphic" in2="sm" operator="arithmetic" k1="0" k2="1" k3="0.55" k4="0"/>
  </filter>

  <!-- Sharper specular for weapons — heavier glare -->
  <filter id="wmr1x3124" x="-8%" y="-8%" width="116%" height="116%">
    <feSpecularLighting surfaceScale="6" specularConstant="2.4"
        specularExponent="65" lighting-color="#ffffff" result="spec">
      <feDistantLight elevation="44" azimuth="28"/>
    </feSpecularLighting>
    <feComposite in="spec" in2="SourceGraphic" operator="in" result="sm"/>
    <feComposite in="SourceGraphic" in2="sm" operator="arithmetic" k1="0" k2="1" k3="0.78" k4="0"/>
  </filter>

  <!-- Sketch wobble -->
  <filter id="skr1x3124" x="-8%" y="-8%" width="116%" height="116%">
    <feTurbulence type="fractalNoise" baseFrequency="0.038"
        numOctaves="3" seed="70" result="noise"/>
    <feDisplacementMap in="SourceGraphic" in2="noise" scale="2.6"
        xChannelSelector="R" yChannelSelector="G" result="w"/>
    <feComposite in="w" in2="SourceGraphic" operator="atop"/>
  </filter>

  <!-- Glow: sharp accent -->
  <filter id="glowr1x3124" x="-20%" y="-20%" width="140%" height="140%">
    <feGaussianBlur stdDeviation="3.5" result="b"/>
    <feColorMatrix in="b" type="matrix"
        values="0 0 0 0 1  0 0 0 0 1  0 0 0 0 1  0 0 0 1.8 0" result="boost"/>
    <feMerge><feMergeNode in="boost"/><feMergeNode in="SourceGraphic"/></feMerge>
  </filter>

  <!-- Bloom: wide soft -->
  <filter id="bloomr1x3124" x="-40%" y="-40%" width="180%" height="180%">
    <feGaussianBlur stdDeviation="11" result="b"/>
    <feMerge><feMergeNode in="b"/><feMergeNode in="SourceGraphic"/></feMerge>
  </filter>

  </defs><rect width="1000" height="1000" fill="url(#bgr1x3124)"/><ellipse cx="500.0" cy="1000" rx="850.0" ry="350.0" fill="#ff4500" fill-opacity=".11" filter="url(#bloomr1x3124)"/><ellipse cx="500.0" cy="892.0" rx="350.0" ry="65.0" fill="rgba(0,0,0,.7)" filter="url(#bloomr1x3124)"/><ellipse cx="500.0" cy="889.0" rx="220.0" ry="34.0" fill="rgba(0,0,0,.45)"/><ellipse cx="500.0" cy="520.0" rx="320.0" ry="480.0" fill="#ff00ff" fill-opacity=".042" filter="url(#bloomr1x3124)"/><circle cx="700.3" cy="460.4" r="3.1" fill="#ff00ff" fill-opacity="0.83" filter="url(#glowr1x3124)"/><circle cx="460.2" cy="592.9" r="4.2" fill="#ff00ff" fill-opacity="0.70" filter="url(#glowr1x3124)"/><circle cx="252.2" cy="583.0" r="2.4" fill="#ff00ff" fill-opacity="0.57" filter="url(#glowr1x3124)"/><circle cx="262.3" cy="619.4" r="3.2" fill="#ff00ff" fill-opacity="0.40" filter="url(#glowr1x3124)"/><circle cx="448.4" cy="776.6" r="2.2" fill="#ff00ff" fill-opacity="0.61" filter="url(#glowr1x3124)"/><circle cx="440.1" cy="394.0" r="3.8" fill="#ff00ff" fill-opacity="0.80" filter="url(#glowr1x3124)"/><circle cx="386.3" cy="285.6" r="4.0" fill="#ff00ff" fill-opacity="0.67" filter="url(#glowr1x3124)"/><circle cx="729.8" cy="693.1" r="3.2" fill="#ff00ff" fill-opacity="0.80" filter="url(#glowr1x3124)"/><circle cx="654.6" cy="771.6" r="3.6" fill="#ff00ff" fill-opacity="0.55" filter="url(#glowr1x3124)"/><circle cx="741.3" cy="376.7" r="1.2" fill="#ff00ff" fill-opacity="0.49" filter="url(#glowr1x3124)"/><circle cx="339.9" cy="764.9" r="1.3" fill="#ff00ff" fill-opacity="0.76" filter="url(#glowr1x3124)"/><circle cx="684.2" cy="679.6" r="0.7" fill="#ff00ff" fill-opacity="0.75" filter="url(#glowr1x3124)"/><circle cx="487.2" cy="543.4" r="2.5" fill="#ff00ff" fill-opacity="0.49" filter="url(#glowr1x3124)"/><circle cx="667.2" cy="572.5" r="0.6" fill="#ff00ff" fill-opacity="0.55" filter="url(#glowr1x3124)"/><path d="M335.4,231.1 Q355.3,508.6 424.4,823.8" stroke="#ff00ff" stroke-opacity="0.79" stroke-width="2.8" fill="none" filter="url(#glowr1x3124)"/><path d="M579.0,327.8 Q556.1,464.2 368.2,601.8" stroke="#ff00ff" stroke-opacity="0.78" stroke-width="1.2" fill="none" filter="url(#glowr1x3124)"/><path d="M627.6,173.6 Q607.0,458.9 432.5,692.0" stroke="#ff00ff" stroke-opacity="0.70" stroke-width="2.6" fill="none" filter="url(#glowr1x3124)"/><path d="M476.8,201.2 Q432.4,440.3 412.7,703.4" stroke="#ff00ff" stroke-opacity="0.57" stroke-width="1.8" fill="none" filter="url(#glowr1x3124)"/><path d="M354.0,192.0 Q324.5,422.5 444.4,633.3" stroke="#ff00ff" stroke-opacity="0.69" stroke-width="0.8" fill="none" filter="url(#glowr1x3124)"/><polygon points="398.1,661.8 490.5,662.5 480.4,878.3 386.4,878.1" fill="url(#suitr1x3124)" stroke="#4444ff" stroke-width="2.2" filter="url(#skr1x3124) url(#metalr1x3124)"/><polygon points="399.8,662.6 489.4,664.0 479.9,877.0 387.5,878.8" fill="url(#carbonr1x3124)"/><polygon points="391.2,723.3 494.0,722.5 483.9,789.7 384.8,787.3" fill="url(#bevelr1x3124)" fill-opacity=".5" stroke="#4444ff" stroke-width="1.4" filter="url(#skr1x3124)"/><polygon points="512.2,663.5 599.8,663.1 613.8,878.2 520.3,875.9" fill="url(#suitr1x3124)" stroke="#4444ff" stroke-width="2.2" filter="url(#skr1x3124) url(#metalr1x3124)"/><polygon points="509.8,664.2 600.4,662.3 611.9,876.0 520.6,879.0" fill="url(#carbonr1x3124)"/><polygon points="506.2,723.2 609.0,722.9 617.5,787.0 517.4,787.2" fill="url(#bevelr1x3124)" fill-opacity=".5" stroke="#4444ff" stroke-width="1.4" filter="url(#skr1x3124)"/><rect x="394.3" y="837.4" width="100.3" height="24.7" fill="url(#bevelr1x3124)" stroke="#4444ff" stroke-width="1" filter="url(#skr1x3124)"/><rect x="507.5"  y="838.5" width="100.3" height="24.7" fill="url(#bevelr1x3124)" stroke="#4444ff" stroke-width="1" filter="url(#skr1x3124)"/><polygon points="368.2,876.6 497.5,878.6 502.3,920.3 361.9,922.7" fill="#141428" stroke="#4444ff" stroke-width="2" filter="url(#skr1x3124)"/><polygon points="503.9,875.9 629.9,877.7 636.5,920.0 496.3,921.1" fill="#141428" stroke="#4444ff" stroke-width="2" filter="url(#skr1x3124)"/><polygon points="304.0,632.0 694.9,631.8 638.9,682.3 361.9,682.5" fill="#4444ff" fill-opacity=".52" stroke="#4444ff" stroke-width="2" filter="url(#skr1x3124)"/><rect x="464.0" y="636.8" width="72.0" height="42.0" fill="url(#bevelr1x3124)" stroke="#4444ff" stroke-width="1.4" filter="url(#glowr1x3124)"/><rect x="486.4" y="639.2" width="28.0" height="22.0" rx="1" fill="rgba(255,255,255,.48)"/><polygon points="151.4,467.7 234.9,466.9 257.8,736.0 129.4,733.5" fill="url(#suitr1x3124)" stroke="#4444ff" stroke-width="2.2" filter="url(#skr1x3124) url(#metalr1x3124)"/><polygon points="174.9,431.4 252.9,430.6 242.5,509.0 160.8,511.8" fill="url(#bevelr1x3124)" fill-opacity=".72" stroke="#4444ff" stroke-width="2.2" filter="url(#skr1x3124)"/><polygon points="160.3,622.1 244.9,621.7 240.0,660.6 167.1,659.7" fill="#4444ff" fill-opacity=".42" stroke="#4444ff" stroke-width="1" filter="url(#skr1x3124)"/><polygon points="764.2,465.0 847.0,465.4 871.7,733.8 740.9,736.0" fill="url(#suitr1x3124)" stroke="#4444ff" stroke-width="2.2" filter="url(#skr1x3124) url(#metalr1x3124)"/><polygon points="747.1,431.9 825.1,432.9 838.8,509.1 758.4,510.1" fill="url(#bevelr1x3124)" fill-opacity=".72" stroke="#4444ff" stroke-width="2.2" filter="url(#skr1x3124)"/><polygon points="758.2,621.5 838.6,622.7 835.7,661.2 762.1,661.7" fill="#4444ff" fill-opacity=".42" stroke="#4444ff" stroke-width="1" filter="url(#skr1x3124)"/><rect x="120.8"  y="698.8" width="135.3" height="85.0" rx="4" fill="url(#bevelr1x3124)" stroke="#4444ff" stroke-width="1.8" filter="url(#skr1x3124)"/><rect x="749.2"   y="701.1" width="135.3" height="85.0" rx="4" fill="url(#bevelr1x3124)" stroke="#4444ff" stroke-width="1.8" filter="url(#skr1x3124)"/><line x1="150.7" y1="701.6" x2="150.3" y2="783.2" stroke="#4444ff" stroke-opacity=".38" stroke-width="1"/><line x1="778.5" y1="703.2" x2="778.1" y2="783.1" stroke="#4444ff" stroke-opacity=".38" stroke-width="1"/><line x1="181.0" y1="703.4" x2="181.4" y2="785.1" stroke="#4444ff" stroke-opacity=".38" stroke-width="1"/><line x1="809.2" y1="702.8" x2="809.1" y2="783.9" stroke="#4444ff" stroke-opacity=".38" stroke-width="1"/><line x1="215.4" y1="702.9" x2="216.2" y2="785.3" stroke="#4444ff" stroke-opacity=".38" stroke-width="1"/><line x1="843.4" y1="702.6" x2="842.0" y2="783.3" stroke="#4444ff" stroke-opacity=".38" stroke-width="1"/><polygon points="234.2,416.7 766.5,417.0 722.4,663.1 277.0,661.0" fill="url(#suitr1x3124)" stroke="#4444ff" stroke-width="2.6" filter="url(#skr1x3124) url(#metalr1x3124)"/><polygon points="234.5,419.3 766.3,419.0 722.6,661.6 275.8,663.9" fill="url(#carbonr1x3124)"/><polygon points="368.0,416.0 634.0,417.1 610.2,516.5 389.6,514.0" fill="url(#suitHir1x3124)"/><line x1="363.5" y1="470.0" x2="636.3" y2="471.2" stroke="#4444ff" stroke-opacity=".52" stroke-width="1.3" filter="url(#skr1x3124)"/><line x1="397.9" y1="548.9" x2="601.0" y2="550.0" stroke="#4444ff" stroke-opacity=".52" stroke-width="1.3" filter="url(#skr1x3124)"/><line x1="266.2" y1="490.9" x2="319.9" y2="490.2" stroke="#4444ff" stroke-opacity=".62" stroke-width="1.8"/><line x1="681.1" y1="491.8" x2="734.3" y2="492.0" stroke="#4444ff" stroke-opacity=".62" stroke-width="1.8"/><line x1="268.1" y1="521.6" x2="320.4" y2="521.7" stroke="#4444ff" stroke-opacity=".62" stroke-width="1.8"/><line x1="681.9" y1="521.7" x2="733.1" y2="524.1" stroke="#4444ff" stroke-opacity=".62" stroke-width="1.8"/><line x1="267.1" y1="556.2" x2="318.0" y2="553.5" stroke="#4444ff" stroke-opacity=".62" stroke-width="1.8"/><line x1="681.6" y1="554.1" x2="734.7" y2="553.9" stroke="#4444ff" stroke-opacity=".62" stroke-width="1.8"/><line x1="266.9" y1="586.1" x2="319.9" y2="585.5" stroke="#4444ff" stroke-opacity=".62" stroke-width="1.8"/><line x1="678.7" y1="586.4" x2="734.2" y2="588.0" stroke="#4444ff" stroke-opacity=".62" stroke-width="1.8"/><g filter="url(#glowr1x3124)"><polygon points="500.4,451.1 515.9,491.2 553.9,493.7 523.8,519.3 532.7,558.6 498.5,536.5 466.7,558.8 476.9,516.7 444.6,491.0 484.9,491.1 " fill="#4444ff" stroke="#1e0600" stroke-width="1.4" filter="url(#skr1x3124)"/><polygon points="500.4,451.1 515.9,491.2 553.9,493.7 523.8,519.3 532.7,558.6 498.5,536.5 466.7,558.8 476.9,516.7 444.6,491.0 484.9,491.1 " fill="url(#suitHir1x3124)" opacity=".45"/></g><g><rect x="33.584697555694696" y="422.0030695965513" width="148.0" height="82.0" rx="5" fill="url(#gunmetalr1x3124)" stroke="#4444ff" stroke-width="2" filter="url(#wmr1x3124)"/><rect x="34.48582860132676" y="420.0489018692635" width="148.0" height="82.0" rx="5" fill="url(#carbonr1x3124)"/><rect x="41.871532715335455" y="404.79744981471447" width="90.0" height="22.0" rx="3" fill="url(#barrelr1x3124)" stroke="#4444ff" stroke-width="1" filter="url(#wmr1x3124)"/><circle cx="81.28167946984988" cy="414.4486825160682" r="15.0" fill="#4444ff" opacity=".8" filter="url(#glowr1x3124)"/><circle cx="83.42270311884579" cy="414.4741260052658" r="6.0" fill="rgba(255,255,255,.9)"/><rect x="53.0425435183942" y="454.5936917142011" width="78.0" height="36.0" rx="5" fill="url(#barrelr1x3124)" stroke="#4444ff" stroke-width="1.2" filter="url(#wmr1x3124)"/><circle cx="-18.759344360660794" cy="472.09525888981295" r="18.0" fill="#4444ff" filter="url(#glowr1x3124)" opacity=".88"/><circle cx="-19.111353237237815" cy="471.99611301505934" r="7.0" fill="#ffffff"/><rect x="77.19102424591776" y="499.6619563519023" width="44.0" height="42.0" rx="3" fill="url(#gunmetalr1x3124)" stroke="#4444ff" stroke-width="1" filter="url(#wmr1x3124)"/><rect x="38.77319297663864" y="423.1456929680891" width="90.0" height="10.0" rx="2" fill="rgba(255,255,255,.22)"/><line x1="61.971558875162124" y1="485.3091758908704" x2="60.915692491494084" y2="518.0436853817664" stroke="#4444ff" stroke-opacity=".5" stroke-width="1.2"/><line x1="77.73305337358264" y1="486.65747618256137" x2="79.66455701304596" y2="519.3048444534652" stroke="#4444ff" stroke-opacity=".5" stroke-width="1.2"/><line x1="95.3641474131867" y1="485.24273938573896" x2="95.38885032184419" y2="518.6735078599304" stroke="#4444ff" stroke-opacity=".5" stroke-width="1.2"/></g><rect x="449.57573767639695" y="558.2938189888373" width="100.0"  height="56.0" fill="#141428" stroke="#4444ff" stroke-width="2.2" filter="url(#skr1x3124)"/><rect x="425.74286593049766" y="576.7728074841201" width="152.0" height="26.0" fill="url(#bevelr1x3124)" fill-opacity=".65" stroke="#4444ff" stroke-width="1.2" filter="url(#skr1x3124)"/><polygon points="307.1,381.1 350.8,294.0 501.3,279.6 648.5,293.0 691.1,381.0 670.3,504.0 499.0,565.8 330.9,504.7" fill="url(#suitr1x3124)" stroke="#4444ff" stroke-width="2.8" filter="url(#skr1x3124) url(#metalr1x3124)"/><polygon points="308.9,380.5 351.5,293.9 500.6,279.8 648.2,294.8 690.5,381.6 667.3,501.9 501.7,566.3 332.6,503.4" fill="url(#carbonr1x3124)"/><polygon points="382.7,301.1 499.1,286.2 617.7,303.2 606.6,380.4 392.8,379.9" fill="url(#suitHir1x3124)"/><polygon points="382.0,379.3 367.0,424.3 431.8,502.6 499.1,526.4 567.9,504.2 634.3,427.1 617.8,379.3" fill="#1e0600" fill-opacity=".88" stroke="#4444ff" stroke-width="1.8" filter="url(#skr1x3124)"/><polygon points="379.7,413.0 478.1,413.0 484.5,438.3 387.0,440.2" fill="#4444ff" filter="url(#glowr1x3124)"/><polygon points="522.1,410.4 617.5,410.4 609.9,438.9 516.1,439.2" fill="#4444ff" filter="url(#glowr1x3124)"/><ellipse cx="430.9" cy="425.7" rx="38.4"  ry="8.2" fill="#ffffff" opacity=".88"/><ellipse cx="569.1" cy="425.7" rx="38.4"  ry="8.2" fill="#ffffff" opacity=".88"/><line x1="484.7883186759986" y1="413.04038834245875" x2="516.7673307156563" y2="413.87729681516066" stroke="#4444ff" stroke-opacity=".52" stroke-width="2"/><line x1="483.56956637656316" y1="436.2281282890588" x2="515.3421666368283" y2="438.56983314938844" stroke="#4444ff" stroke-opacity=".52" stroke-width="2"/><line x1="501.5207460940816" y1="455.23693258576094" x2="498.7254433822818" y2="483.9520132028498" stroke="#4444ff" stroke-opacity=".58" stroke-width="2.2" filter="url(#skr1x3124)"/><line x1="453.3391966450773" y1="492.7881181437522" x2="455.45163443189114" y2="518.5268980919384" stroke="#4444ff" stroke-opacity=".52" stroke-width="1.5" filter="url(#skr1x3124)"/><line x1="478.0998606985807" y1="490.39485793123015" x2="475.4910611519031" y2="520.4061919646338" stroke="#4444ff" stroke-opacity=".52" stroke-width="1.5" filter="url(#skr1x3124)"/><line x1="500.680225304421" y1="490.04756400678303" x2="500.43935397798197" y2="519.9019786321558" stroke="#4444ff" stroke-opacity=".52" stroke-width="1.5" filter="url(#skr1x3124)"/><line x1="524.4864964448474" y1="489.5009911105968" x2="522.712072601132" y2="520.8320048757829" stroke="#4444ff" stroke-opacity=".52" stroke-width="1.5" filter="url(#skr1x3124)"/><line x1="544.7943742300571" y1="490.8078122544102" x2="547.088251039777" y2="521.7513144915923" stroke="#4444ff" stroke-opacity=".52" stroke-width="1.5" filter="url(#skr1x3124)"/><polygon points="433.0,505.2 566.5,503.2 555.3,557.9 447.0,556.6" fill="#141428" fill-opacity=".72" stroke="#4444ff" stroke-width="1.3" filter="url(#skr1x3124)"/><text x="30.0"  y="975.0" font-family="monospace" font-weight="bold" font-size="22.0" fill="rgba(255,255,255,.22)">#0001</text><text x="500.0"   y="975.0" text-anchor="middle" font-family="monospace" font-weight="bold" font-size="22.0" fill="#4444ff" fill-opacity=".48">OBSIDIAN RANGER</text><text x="970.0" y="975.0" text-anchor="end"    font-family="monospace" font-weight="bold" font-size="22.0" fill="#4444ff" fill-opacity=".32">MECH RANGERS</text></svg>