<svg xmlns="http://www.w3.org/2000/svg" viewBox="0 0 1000 1000" width="1000" height="1000" shape-rendering="geometricPrecision"><defs>

  <!-- Scene gradients -->
  <radialGradient id="bgr1x3136" cx="50%" cy="42%" r="72%">
    <stop offset="0%"   stop-color="#0e000e"/>
    <stop offset="100%" stop-color="#1e0600"/>
  </radialGradient>
  <linearGradient id="suitr1x3136" x1="8%" y1="0%" x2="92%" y2="100%">
    <stop offset="0%"   stop-color="#ccccff" stop-opacity=".95"/>
    <stop offset="45%"  stop-color="#242438"/>
    <stop offset="100%" stop-color="#1e0600"/>
  </linearGradient>
  <linearGradient id="suitHir1x3136" x1="0%" y1="0%" x2="0%" y2="100%">
    <stop offset="0%"   stop-color="rgba(255,255,255,.28)"/>
    <stop offset="60%"  stop-color="rgba(255,255,255,.04)"/>
    <stop offset="100%" stop-color="rgba(255,255,255,0)"/>
  </linearGradient>
  <!-- Bevel: bright top, dark bottom for armour panels -->
  <linearGradient id="bevelr1x3136" x1="0%" y1="0%" x2="0%" y2="100%">
    <stop offset="0%"   stop-color="rgba(255,255,255,.55)"/>
    <stop offset="30%"  stop-color="#ccccff"/>
    <stop offset="70%"  stop-color="#242438"/>
    <stop offset="100%" stop-color="rgba(0,0,0,.5)"/>
  </linearGradient>

  <!-- Weapon: cold steel blade sweep -->
  <linearGradient id="blader1x3136" x1="0%" y1="0%" x2="100%" y2="0%">
    <stop offset="0%"   stop-color="#0e0e20"/>
    <stop offset="16%"  stop-color="#3e3e58"/>
    <stop offset="34%"  stop-color="#c8c8e0"/>
    <stop offset="50%"  stop-color="#f5f5ff"/>
    <stop offset="66%"  stop-color="#b8b8d0"/>
    <stop offset="84%"  stop-color="#2e2e48"/>
    <stop offset="100%" stop-color="#08080e"/>
  </linearGradient>
  <!-- Blade tip brightening -->
  <linearGradient id="bladeTipr1x3136" x1="0%" y1="100%" x2="0%" y2="0%">
    <stop offset="0%"   stop-color="rgba(255,255,255,0)"/>
    <stop offset="55%"  stop-color="rgba(255,255,255,.1)"/>
    <stop offset="100%" stop-color="rgba(255,255,255,.55)"/>
  </linearGradient>
  <!-- Gunmetal anodised — blaster body -->
  <linearGradient id="gunmetalr1x3136" x1="0%" y1="0%" x2="0%" y2="100%">
    <stop offset="0%"   stop-color="#46465e"/>
    <stop offset="18%"  stop-color="#828296"/>
    <stop offset="42%"  stop-color="#26263a"/>
    <stop offset="72%"  stop-color="#16162a"/>
    <stop offset="100%" stop-color="#0c0c18"/>
  </linearGradient>
  <!-- Brushed steel tube — barrel/rod -->
  <linearGradient id="barrelr1x3136" x1="0%" y1="0%" x2="100%" y2="0%">
    <stop offset="0%"   stop-color="#0a0a14"/>
    <stop offset="24%"  stop-color="#585875"/>
    <stop offset="50%"  stop-color="#a8a8c8"/>
    <stop offset="76%"  stop-color="#383852"/>
    <stop offset="100%" stop-color="#0a0a14"/>
  </linearGradient>
  <!-- Chrome rod — lance shaft -->
  <linearGradient id="chromer1x3136" x1="0%" y1="0%" x2="100%" y2="0%">
    <stop offset="0%"   stop-color="#0c0c18"/>
    <stop offset="20%"  stop-color="#686888"/>
    <stop offset="44%"  stop-color="#e0e0f0"/>
    <stop offset="56%"  stop-color="#c0c0d8"/>
    <stop offset="80%"  stop-color="#28283e"/>
    <stop offset="100%" stop-color="#0c0c18"/>
  </linearGradient>
  <!-- Titanium plate — shield face -->
  <linearGradient id="titaniumr1x3136" x1="0%" y1="0%" x2="100%" y2="100%">
    <stop offset="0%"   stop-color="#585878"/>
    <stop offset="28%"  stop-color="#ccccff" stop-opacity=".88"/>
    <stop offset="55%"  stop-color="#242438"/>
    <stop offset="80%"  stop-color="#181828"/>
    <stop offset="100%" stop-color="#0a0a18"/>
  </linearGradient>
  <!-- Artillery black-chrome — cannon body -->
  <linearGradient id="artilleryr1x3136" x1="0%" y1="0%" x2="0%" y2="100%">
    <stop offset="0%"   stop-color="#383850"/>
    <stop offset="14%"  stop-color="#78789a"/>
    <stop offset="36%"  stop-color="#202034"/>
    <stop offset="65%"  stop-color="#14141e"/>
    <stop offset="100%" stop-color="#0a0a12"/>
  </linearGradient>
  <!-- Energy orb — staff -->
  <radialGradient id="orbr1x3136" cx="35%" cy="35%" r="65%">
    <stop offset="0%"   stop-color="rgba(255,255,255,.9)"/>
    <stop offset="30%"  stop-color="#ccccff"/>
    <stop offset="68%"  stop-color="#242438"/>
    <stop offset="100%" stop-color="rgba(0,0,0,.6)"/>
  </radialGradient>
  <!-- Knuckle plate chrome -->
  <linearGradient id="knuckler1x3136" x1="0%" y1="0%" x2="0%" y2="100%">
    <stop offset="0%"   stop-color="#888aaa"/>
    <stop offset="32%"  stop-color="#ccccff" stop-opacity=".8"/>
    <stop offset="62%"  stop-color="#1a1a2c"/>
    <stop offset="100%" stop-color="#0a0a14"/>
  </linearGradient>

  <!-- Carbon fibre weave texture overlay -->
  <pattern id="carbonr1x3136" width="6" height="6" patternUnits="userSpaceOnUse">
    <rect width="6" height="6" fill="rgba(0,0,0,.08)"/>
    <rect x="0" y="0" width="3" height="3" fill="rgba(255,255,255,.022)"/>
    <rect x="3" y="3" width="3" height="3" fill="rgba(255,255,255,.022)"/>
    <line x1="0" y1="0" x2="3" y2="3" stroke="rgba(255,255,255,.038)" stroke-width=".5"/>
    <line x1="3" y1="0" x2="6" y2="3" stroke="rgba(0,0,0,.055)"       stroke-width=".5"/>
    <line x1="0" y1="3" x2="3" y2="6" stroke="rgba(0,0,0,.055)"       stroke-width=".5"/>
    <line x1="3" y1="3" x2="6" y2="6" stroke="rgba(255,255,255,.038)" stroke-width=".5"/>
  </pattern>

  <!-- Specular metal sheen on armour panels -->
  <filter id="metalr1x3136" x="-5%" y="-5%" width="110%" height="110%">
    <feSpecularLighting surfaceScale="4" specularConstant="1.8"
        specularExponent="42" lighting-color="#ffffff" result="spec">
      <feDistantLight elevation="52" azimuth="38"/>
    </feSpecularLighting>
    <feComposite in="spec" in2="SourceGraphic" operator="in" result="sm"/>
    <feComposite in="SourceGraphic" in2="sm" operator="arithmetic" k1="0" k2="1" k3="0.55" k4="0"/>
  </filter>

  <!-- Sharper specular for weapons — heavier glare -->
  <filter id="wmr1x3136" x="-8%" y="-8%" width="116%" height="116%">
    <feSpecularLighting surfaceScale="6" specularConstant="2.4"
        specularExponent="65" lighting-color="#ffffff" result="spec">
      <feDistantLight elevation="44" azimuth="28"/>
    </feSpecularLighting>
    <feComposite in="spec" in2="SourceGraphic" operator="in" result="sm"/>
    <feComposite in="SourceGraphic" in2="sm" operator="arithmetic" k1="0" k2="1" k3="0.78" k4="0"/>
  </filter>

  <!-- Sketch wobble -->
  <filter id="skr1x3136" x="-8%" y="-8%" width="116%" height="116%">
    <feTurbulence type="fractalNoise" baseFrequency="0.038"
        numOctaves="3" seed="67" result="noise"/>
    <feDisplacementMap in="SourceGraphic" in2="noise" scale="2.6"
        xChannelSelector="R" yChannelSelector="G" result="w"/>
    <feComposite in="w" in2="SourceGraphic" operator="atop"/>
  </filter>

  <!-- Glow: sharp accent -->
  <filter id="glowr1x3136" x="-20%" y="-20%" width="140%" height="140%">
    <feGaussianBlur stdDeviation="3.5" result="b"/>
    <feColorMatrix in="b" type="matrix"
        values="0 0 0 0 1  0 0 0 0 1  0 0 0 0 1  0 0 0 1.8 0" result="boost"/>
    <feMerge><feMergeNode in="boost"/><feMergeNode in="SourceGraphic"/></feMerge>
  </filter>

  <!-- Bloom: wide soft -->
  <filter id="bloomr1x3136" x="-40%" y="-40%" width="180%" height="180%">
    <feGaussianBlur stdDeviation="11" result="b"/>
    <feMerge><feMergeNode in="b"/><feMergeNode in="SourceGraphic"/></feMerge>
  </filter>

  </defs><rect width="1000" height="1000" fill="url(#bgr1x3136)"/><ellipse cx="500.0" cy="1000" rx="850.0" ry="350.0" fill="#ff4500" fill-opacity=".11" filter="url(#bloomr1x3136)"/><ellipse cx="500.0" cy="892.0" rx="350.0" ry="65.0" fill="rgba(0,0,0,.7)" filter="url(#bloomr1x3136)"/><ellipse cx="500.0" cy="889.0" rx="220.0" ry="34.0" fill="rgba(0,0,0,.45)"/><ellipse cx="500.0" cy="520.0" rx="320.0" ry="480.0" fill="#00e5ff" fill-opacity=".042" filter="url(#bloomr1x3136)"/><circle cx="279.4" cy="529.5" r="0.7" fill="#00e5ff" fill-opacity="0.74" filter="url(#glowr1x3136)"/><circle cx="359.6" cy="602.6" r="3.4" fill="#00e5ff" fill-opacity="0.48" filter="url(#glowr1x3136)"/><circle cx="322.3" cy="631.1" r="0.9" fill="#00e5ff" fill-opacity="0.53" filter="url(#glowr1x3136)"/><circle cx="503.3" cy="198.2" r="2.1" fill="#00e5ff" fill-opacity="0.86" filter="url(#glowr1x3136)"/><circle cx="300.5" cy="394.2" r="1.2" fill="#00e5ff" fill-opacity="0.40" filter="url(#glowr1x3136)"/><circle cx="444.1" cy="537.0" r="1.2" fill="#00e5ff" fill-opacity="0.77" filter="url(#glowr1x3136)"/><circle cx="723.5" cy="513.3" r="0.7" fill="#00e5ff" fill-opacity="0.72" filter="url(#glowr1x3136)"/><circle cx="665.0" cy="489.8" r="3.6" fill="#00e5ff" fill-opacity="0.83" filter="url(#glowr1x3136)"/><circle cx="478.2" cy="459.0" r="3.9" fill="#00e5ff" fill-opacity="0.81" filter="url(#glowr1x3136)"/><circle cx="425.6" cy="506.1" r="2.2" fill="#00e5ff" fill-opacity="0.58" filter="url(#glowr1x3136)"/><circle cx="359.2" cy="255.0" r="2.2" fill="#00e5ff" fill-opacity="0.63" filter="url(#glowr1x3136)"/><circle cx="283.6" cy="777.5" r="1.4" fill="#00e5ff" fill-opacity="0.78" filter="url(#glowr1x3136)"/><circle cx="334.5" cy="466.4" r="4.0" fill="#00e5ff" fill-opacity="0.50" filter="url(#glowr1x3136)"/><circle cx="382.5" cy="612.9" r="1.2" fill="#00e5ff" fill-opacity="0.72" filter="url(#glowr1x3136)"/><path d="M337.4,158.9 Q338.1,447.5 599.6,684.1" stroke="#00e5ff" stroke-opacity="0.47" stroke-width="1.8" fill="none" filter="url(#glowr1x3136)"/><path d="M546.6,266.4 Q555.1,471.3 676.2,631.7" stroke="#00e5ff" stroke-opacity="0.58" stroke-width="2.6" fill="none" filter="url(#glowr1x3136)"/><path d="M583.8,370.5 Q612.7,573.3 653.3,724.4" stroke="#00e5ff" stroke-opacity="0.67" stroke-width="2.2" fill="none" filter="url(#glowr1x3136)"/><path d="M412.6,227.2 Q450.5,442.6 538.3,691.9" stroke="#00e5ff" stroke-opacity="0.54" stroke-width="2.6" fill="none" filter="url(#glowr1x3136)"/><path d="M377.3,400.0 Q353.2,620.1 330.9,866.7" stroke="#00e5ff" stroke-opacity="0.44" stroke-width="2.4" fill="none" filter="url(#glowr1x3136)"/><polygon points="400.5,661.0 490.2,661.2 479.2,878.2 386.9,878.5" fill="url(#suitr1x3136)" stroke="#ccccff" stroke-width="2.2" filter="url(#skr1x3136) url(#metalr1x3136)"/><polygon points="398.7,661.0 489.9,662.3 480.5,877.6 387.1,876.5" fill="url(#carbonr1x3136)"/><polygon points="393.5,722.1 494.4,722.6 483.2,786.6 382.7,786.8" fill="url(#bevelr1x3136)" fill-opacity=".5" stroke="#ccccff" stroke-width="1.4" filter="url(#skr1x3136)"/><polygon points="509.3,662.7 601.4,663.7 611.6,876.3 520.3,878.9" fill="url(#suitr1x3136)" stroke="#ccccff" stroke-width="2.2" filter="url(#skr1x3136) url(#metalr1x3136)"/><polygon points="510.0,662.8 601.1,661.2 614.2,877.3 520.3,878.7" fill="url(#carbonr1x3136)"/><polygon points="507.2,722.4 607.4,723.7 614.5,786.5 517.2,787.8" fill="url(#bevelr1x3136)" fill-opacity=".5" stroke="#ccccff" stroke-width="1.4" filter="url(#skr1x3136)"/><rect x="394.3" y="839.8" width="100.3" height="24.7" fill="url(#bevelr1x3136)" stroke="#ccccff" stroke-width="1" filter="url(#skr1x3136)"/><rect x="507.4"  y="840.5" width="100.3" height="24.7" fill="url(#bevelr1x3136)" stroke="#ccccff" stroke-width="1" filter="url(#skr1x3136)"/><polygon points="370.1,877.0 496.9,876.1 502.1,923.3 361.5,922.8" fill="#242438" stroke="#ccccff" stroke-width="2" filter="url(#skr1x3136)"/><polygon points="504.3,877.0 629.1,877.9 637.7,922.5 496.7,921.8" fill="#242438" stroke="#ccccff" stroke-width="2" filter="url(#skr1x3136)"/><polygon points="304.2,633.3 695.3,633.7 638.7,680.7 362.7,681.0" fill="#ccccff" fill-opacity=".52" stroke="#ccccff" stroke-width="2" filter="url(#skr1x3136)"/><rect x="465.6" y="636.4" width="72.0" height="42.0" fill="url(#bevelr1x3136)" stroke="#ccccff" stroke-width="1.4" filter="url(#glowr1x3136)"/><rect x="486.9" y="641.5" width="28.0" height="22.0" rx="1" fill="rgba(255,255,255,.48)"/><polygon points="152.5,466.0 233.7,465.2 259.5,733.7 129.8,735.1" fill="url(#suitr1x3136)" stroke="#ccccff" stroke-width="2.2" filter="url(#skr1x3136) url(#metalr1x3136)"/><polygon points="174.3,432.9 254.6,433.8 244.0,510.7 160.1,510.8" fill="url(#bevelr1x3136)" fill-opacity=".72" stroke="#ccccff" stroke-width="2.2" filter="url(#skr1x3136)"/><polygon points="160.3,621.0 243.7,622.3 238.2,662.3 166.2,661.4" fill="#ccccff" fill-opacity=".42" stroke="#ccccff" stroke-width="1" filter="url(#skr1x3136)"/><polygon points="765.6,465.6 846.7,466.2 871.2,733.6 743.0,733.2" fill="url(#suitr1x3136)" stroke="#ccccff" stroke-width="2.2" filter="url(#skr1x3136) url(#metalr1x3136)"/><polygon points="746.2,431.3 825.6,432.5 839.9,509.0 757.9,511.6" fill="url(#bevelr1x3136)" fill-opacity=".72" stroke="#ccccff" stroke-width="2.2" filter="url(#skr1x3136)"/><polygon points="756.6,622.8 840.2,623.5 834.1,662.1 759.4,659.3" fill="#ccccff" fill-opacity=".42" stroke="#ccccff" stroke-width="1" filter="url(#skr1x3136)"/><rect x="121.3"  y="698.6" width="135.3" height="85.0" rx="4" fill="url(#bevelr1x3136)" stroke="#ccccff" stroke-width="1.8" filter="url(#skr1x3136)"/><rect x="749.3"   y="701.5" width="135.3" height="85.0" rx="4" fill="url(#bevelr1x3136)" stroke="#ccccff" stroke-width="1.8" filter="url(#skr1x3136)"/><line x1="148.2" y1="703.3" x2="150.5" y2="784.3" stroke="#ccccff" stroke-opacity=".38" stroke-width="1"/><line x1="778.9" y1="703.6" x2="776.7" y2="784.7" stroke="#ccccff" stroke-opacity=".38" stroke-width="1"/><line x1="183.2" y1="700.2" x2="181.6" y2="783.8" stroke="#ccccff" stroke-opacity=".38" stroke-width="1"/><line x1="810.8" y1="700.2" x2="812.2" y2="784.0" stroke="#ccccff" stroke-opacity=".38" stroke-width="1"/><line x1="214.3" y1="703.4" x2="215.4" y2="782.5" stroke="#ccccff" stroke-opacity=".38" stroke-width="1"/><line x1="843.3" y1="700.6" x2="843.8" y2="784.1" stroke="#ccccff" stroke-opacity=".38" stroke-width="1"/><polygon points="234.8,418.3 766.0,417.9 721.5,661.5 277.3,662.2" fill="url(#suitr1x3136)" stroke="#ccccff" stroke-width="2.6" filter="url(#skr1x3136) url(#metalr1x3136)"/><polygon points="234.0,418.6 764.8,417.0 722.0,661.8 276.0,662.4" fill="url(#carbonr1x3136)"/><polygon points="368.1,415.7 634.1,417.5 611.5,515.7 389.8,516.8" fill="url(#suitHir1x3136)"/><line x1="362.4" y1="470.7" x2="638.0" y2="470.5" stroke="#ccccff" stroke-opacity=".52" stroke-width="1.3" filter="url(#skr1x3136)"/><line x1="397.6" y1="549.6" x2="602.4" y2="548.3" stroke="#ccccff" stroke-opacity=".52" stroke-width="1.3" filter="url(#skr1x3136)"/><line x1="266.8" y1="490.6" x2="318.9" y2="492.8" stroke="#ccccff" stroke-opacity=".62" stroke-width="1.8"/><line x1="680.6" y1="490.4" x2="733.9" y2="492.5" stroke="#ccccff" stroke-opacity=".62" stroke-width="1.8"/><line x1="268.4" y1="524.4" x2="319.9" y2="523.2" stroke="#ccccff" stroke-opacity=".62" stroke-width="1.8"/><line x1="680.8" y1="521.6" x2="734.7" y2="521.6" stroke="#ccccff" stroke-opacity=".62" stroke-width="1.8"/><line x1="266.9" y1="553.5" x2="318.6" y2="554.8" stroke="#ccccff" stroke-opacity=".62" stroke-width="1.8"/><line x1="679.6" y1="554.3" x2="732.6" y2="554.4" stroke="#ccccff" stroke-opacity=".62" stroke-width="1.8"/><line x1="267.6" y1="586.9" x2="318.8" y2="588.0" stroke="#ccccff" stroke-opacity=".62" stroke-width="1.8"/><line x1="681.1" y1="586.3" x2="734.5" y2="585.9" stroke="#ccccff" stroke-opacity=".62" stroke-width="1.8"/><g filter="url(#glowr1x3136)"><polygon points="483.5,452.4 511.5,506.5 501.0,506.4 517.8,567.1 488.8,516.3 500.9,514.9" fill="#ccccff" stroke="#1e0600" stroke-width="1.4" filter="url(#skr1x3136)"/><polygon points="482.8,452.9 511.0,505.9 498.8,504.4 517.2,568.7 488.5,517.0 498.5,514.2" fill="url(#suitHir1x3136)" opacity=".4"/></g><g><polygon points="829.4,293.5 968.5,293.1 966.7,589.6 899.5,727.7 827.7,592.5" fill="url(#titaniumr1x3136)" stroke="#ccccff" stroke-width="2.6" filter="url(#wmr1x3136)"/><polygon points="828.8,292.2 966.8,294.7 969.4,591.6 898.9,726.0 827.4,593.1" fill="url(#carbonr1x3136)"/><polygon points="861.3,362.9 937.0,360.0 936.4,542.9 898.3,630.1 860.2,541.2" fill="#ccccff" fill-opacity=".28" stroke="#ccccff" stroke-width="1.5"/><line x1="845.6599310670607" y1="432.9324472803622" x2="948.929424149599" y2="432.5821520864032" stroke="#ccccff" stroke-opacity=".65" stroke-width="1.3"/><line x1="899.3519095481001" y1="329.8312735762447" x2="897.9998748469726" y2="591.7150185094215" stroke="#ccccff" stroke-opacity=".4" stroke-width="1"/><line x1="829.8332001307607" y1="297.5325024797581" x2="965.8860995169357" y2="297.52532723285253" stroke="rgba(255,255,255,.5)" stroke-width="2"/><circle cx="898.6563409536705" cy="431.30021114358675" r="18.0" fill="url(#bevelr1x3136)" stroke="#ccccff" stroke-width="1.2" filter="url(#wmr1x3136)"/></g><rect x="448.42752879420294" y="558.487795704417" width="100.0"  height="56.0" fill="#242438" stroke="#ccccff" stroke-width="2.2" filter="url(#skr1x3136)"/><rect x="422.9140085441992" y="574.1954145522789" width="152.0" height="26.0" fill="url(#bevelr1x3136)" fill-opacity=".65" stroke="#ccccff" stroke-width="1.2" filter="url(#skr1x3136)"/><polygon points="308.4,379.7 349.0,295.0 501.0,279.7 648.5,294.8 693.2,380.4 667.3,503.3 499.3,563.5 330.5,505.0" fill="url(#suitr1x3136)" stroke="#ccccff" stroke-width="2.8" filter="url(#skr1x3136) url(#metalr1x3136)"/><polygon points="308.1,379.3 351.4,293.1 501.0,279.7 649.1,292.8 691.4,381.5 670.5,504.7 498.3,563.7 329.4,504.1" fill="url(#carbonr1x3136)"/><polygon points="380.1,304.0 499.4,285.0 620.0,302.0 607.8,381.0 392.9,381.0" fill="url(#suitHir1x3136)"/><polygon points="381.7,380.8 366.9,426.8 434.5,503.1 499.8,528.2 566.7,504.0 634.7,425.3 620.1,379.1" fill="#1e0600" fill-opacity=".88" stroke="#ccccff" stroke-width="1.8" filter="url(#skr1x3136)"/><polygon points="381.7,410.2 477.3,410.6 485.4,438.4 389.3,440.3" fill="#ccccff" filter="url(#glowr1x3136)"/><polygon points="523.6,412.4 618.1,412.4 611.2,439.2 515.4,441.3" fill="#ccccff" filter="url(#glowr1x3136)"/><ellipse cx="430.9" cy="425.7" rx="38.4"  ry="8.2" fill="#ffffff" opacity=".88"/><ellipse cx="569.1" cy="425.7" rx="38.4"  ry="8.2" fill="#ffffff" opacity=".88"/><line x1="485.34726215988394" y1="414.573404052481" x2="514.3019803037308" y2="413.81015454707665" stroke="#ccccff" stroke-opacity=".52" stroke-width="2"/><line x1="486.085300955791" y1="437.8923988234252" x2="516.9075677894429" y2="439.1041636733338" stroke="#ccccff" stroke-opacity=".52" stroke-width="2"/><line x1="498.95020159538836" y1="455.26102698585015" x2="499.446610527765" y2="483.5477584670298" stroke="#ccccff" stroke-opacity=".58" stroke-width="2.2" filter="url(#skr1x3136)"/><line x1="453.10156085563824" y1="491.0819337173365" x2="453.4321712497436" y2="519.9364516916685" stroke="#ccccff" stroke-opacity=".52" stroke-width="1.5" filter="url(#skr1x3136)"/><line x1="478.730107075572" y1="493.09613829040893" x2="478.56908812647686" y2="518.5165505754761" stroke="#ccccff" stroke-opacity=".52" stroke-width="1.5" filter="url(#skr1x3136)"/><line x1="498.4345503161661" y1="492.43431898485863" x2="499.6532384286635" y2="521.6707323103212" stroke="#ccccff" stroke-opacity=".52" stroke-width="1.5" filter="url(#skr1x3136)"/><line x1="524.6794224343821" y1="492.76223829686637" x2="523.2451952618173" y2="519.7532898540609" stroke="#ccccff" stroke-opacity=".52" stroke-width="1.5" filter="url(#skr1x3136)"/><line x1="544.8080496663414" y1="490.9637196985073" x2="546.0311753981002" y2="520.823276419472" stroke="#ccccff" stroke-opacity=".52" stroke-width="1.5" filter="url(#skr1x3136)"/><polygon points="433.4,503.0 567.1,505.3 552.6,558.4 448.0,556.6" fill="#242438" fill-opacity=".72" stroke="#ccccff" stroke-width="1.3" filter="url(#skr1x3136)"/><path d="M472.41736191900446 312.2555299924686 C305.38403926197435 147.70806622067465 420.4450411290303 240.11485593281685 501.37550147017464 309.6856209166348" fill="#ccccff" fill-opacity=".92" stroke="#ccccff" stroke-width="2.2" filter="url(#skr1x3136)"/><path d="M471.7272357563302 309.817042571865 C304.899727497939 145.96247708611187 419.8195536647365 241.72385906092822 499.5484469590709 309.9705389338545" fill="url(#suitHir1x3136)" opacity=".28"/><path d="M527.798567483779 311.37452131556347 C696.9186137658172 146.57869357289744 581.4644017092511 239.5137530534528 501.5418860023841 310.15375242577863" fill="#ccccff" fill-opacity=".92" stroke="#ccccff" stroke-width="2.2" filter="url(#skr1x3136)"/><path d="M525.5372814003564 311.21711343368514 C696.3214810419455 145.65894377976653 579.5614724646881 241.63827954037114 500.5189818401821 312.1724018055945" fill="url(#suitHir1x3136)" opacity=".28"/><text x="30.0"  y="975.0" font-family="monospace" font-weight="bold" font-size="22.0" fill="rgba(255,255,255,.22)">#0001</text><text x="500.0"   y="975.0" text-anchor="middle" font-family="monospace" font-weight="bold" font-size="22.0" fill="#ccccff" fill-opacity=".48">PHANTOM RANGER</text><text x="970.0" y="975.0" text-anchor="end"    font-family="monospace" font-weight="bold" font-size="22.0" fill="#ccccff" fill-opacity=".32">MECH RANGERS</text></svg>