<svg xmlns="http://www.w3.org/2000/svg" viewBox="0 0 1000 1000" width="1000" height="1000" shape-rendering="geometricPrecision"><defs>

  <!-- Scene gradients -->
  <radialGradient id="bgr1x317" cx="50%" cy="42%" r="72%">
    <stop offset="0%"   stop-color="#0e000e"/>
    <stop offset="100%" stop-color="#1e0600"/>
  </radialGradient>
  <linearGradient id="suitr1x317" x1="8%" y1="0%" x2="92%" y2="100%">
    <stop offset="0%"   stop-color="#ff44aa" stop-opacity=".95"/>
    <stop offset="45%"  stop-color="#880050"/>
    <stop offset="100%" stop-color="#1e0600"/>
  </linearGradient>
  <linearGradient id="suitHir1x317" x1="0%" y1="0%" x2="0%" y2="100%">
    <stop offset="0%"   stop-color="rgba(255,255,255,.28)"/>
    <stop offset="60%"  stop-color="rgba(255,255,255,.04)"/>
    <stop offset="100%" stop-color="rgba(255,255,255,0)"/>
  </linearGradient>
  <!-- Bevel: bright top, dark bottom for armour panels -->
  <linearGradient id="bevelr1x317" x1="0%" y1="0%" x2="0%" y2="100%">
    <stop offset="0%"   stop-color="rgba(255,255,255,.55)"/>
    <stop offset="30%"  stop-color="#ff44aa"/>
    <stop offset="70%"  stop-color="#880050"/>
    <stop offset="100%" stop-color="rgba(0,0,0,.5)"/>
  </linearGradient>

  <!-- Weapon: cold steel blade sweep -->
  <linearGradient id="blader1x317" x1="0%" y1="0%" x2="100%" y2="0%">
    <stop offset="0%"   stop-color="#0e0e20"/>
    <stop offset="16%"  stop-color="#3e3e58"/>
    <stop offset="34%"  stop-color="#c8c8e0"/>
    <stop offset="50%"  stop-color="#f5f5ff"/>
    <stop offset="66%"  stop-color="#b8b8d0"/>
    <stop offset="84%"  stop-color="#2e2e48"/>
    <stop offset="100%" stop-color="#08080e"/>
  </linearGradient>
  <!-- Blade tip brightening -->
  <linearGradient id="bladeTipr1x317" x1="0%" y1="100%" x2="0%" y2="0%">
    <stop offset="0%"   stop-color="rgba(255,255,255,0)"/>
    <stop offset="55%"  stop-color="rgba(255,255,255,.1)"/>
    <stop offset="100%" stop-color="rgba(255,255,255,.55)"/>
  </linearGradient>
  <!-- Gunmetal anodised — blaster body -->
  <linearGradient id="gunmetalr1x317" x1="0%" y1="0%" x2="0%" y2="100%">
    <stop offset="0%"   stop-color="#46465e"/>
    <stop offset="18%"  stop-color="#828296"/>
    <stop offset="42%"  stop-color="#26263a"/>
    <stop offset="72%"  stop-color="#16162a"/>
    <stop offset="100%" stop-color="#0c0c18"/>
  </linearGradient>
  <!-- Brushed steel tube — barrel/rod -->
  <linearGradient id="barrelr1x317" x1="0%" y1="0%" x2="100%" y2="0%">
    <stop offset="0%"   stop-color="#0a0a14"/>
    <stop offset="24%"  stop-color="#585875"/>
    <stop offset="50%"  stop-color="#a8a8c8"/>
    <stop offset="76%"  stop-color="#383852"/>
    <stop offset="100%" stop-color="#0a0a14"/>
  </linearGradient>
  <!-- Chrome rod — lance shaft -->
  <linearGradient id="chromer1x317" x1="0%" y1="0%" x2="100%" y2="0%">
    <stop offset="0%"   stop-color="#0c0c18"/>
    <stop offset="20%"  stop-color="#686888"/>
    <stop offset="44%"  stop-color="#e0e0f0"/>
    <stop offset="56%"  stop-color="#c0c0d8"/>
    <stop offset="80%"  stop-color="#28283e"/>
    <stop offset="100%" stop-color="#0c0c18"/>
  </linearGradient>
  <!-- Titanium plate — shield face -->
  <linearGradient id="titaniumr1x317" x1="0%" y1="0%" x2="100%" y2="100%">
    <stop offset="0%"   stop-color="#585878"/>
    <stop offset="28%"  stop-color="#ff44aa" stop-opacity=".88"/>
    <stop offset="55%"  stop-color="#880050"/>
    <stop offset="80%"  stop-color="#181828"/>
    <stop offset="100%" stop-color="#0a0a18"/>
  </linearGradient>
  <!-- Artillery black-chrome — cannon body -->
  <linearGradient id="artilleryr1x317" x1="0%" y1="0%" x2="0%" y2="100%">
    <stop offset="0%"   stop-color="#383850"/>
    <stop offset="14%"  stop-color="#78789a"/>
    <stop offset="36%"  stop-color="#202034"/>
    <stop offset="65%"  stop-color="#14141e"/>
    <stop offset="100%" stop-color="#0a0a12"/>
  </linearGradient>
  <!-- Energy orb — staff -->
  <radialGradient id="orbr1x317" cx="35%" cy="35%" r="65%">
    <stop offset="0%"   stop-color="rgba(255,255,255,.9)"/>
    <stop offset="30%"  stop-color="#ff44aa"/>
    <stop offset="68%"  stop-color="#880050"/>
    <stop offset="100%" stop-color="rgba(0,0,0,.6)"/>
  </radialGradient>
  <!-- Knuckle plate chrome -->
  <linearGradient id="knuckler1x317" x1="0%" y1="0%" x2="0%" y2="100%">
    <stop offset="0%"   stop-color="#888aaa"/>
    <stop offset="32%"  stop-color="#ff44aa" stop-opacity=".8"/>
    <stop offset="62%"  stop-color="#1a1a2c"/>
    <stop offset="100%" stop-color="#0a0a14"/>
  </linearGradient>

  <!-- Carbon fibre weave texture overlay -->
  <pattern id="carbonr1x317" width="6" height="6" patternUnits="userSpaceOnUse">
    <rect width="6" height="6" fill="rgba(0,0,0,.08)"/>
    <rect x="0" y="0" width="3" height="3" fill="rgba(255,255,255,.022)"/>
    <rect x="3" y="3" width="3" height="3" fill="rgba(255,255,255,.022)"/>
    <line x1="0" y1="0" x2="3" y2="3" stroke="rgba(255,255,255,.038)" stroke-width=".5"/>
    <line x1="3" y1="0" x2="6" y2="3" stroke="rgba(0,0,0,.055)"       stroke-width=".5"/>
    <line x1="0" y1="3" x2="3" y2="6" stroke="rgba(0,0,0,.055)"       stroke-width=".5"/>
    <line x1="3" y1="3" x2="6" y2="6" stroke="rgba(255,255,255,.038)" stroke-width=".5"/>
  </pattern>

  <!-- Specular metal sheen on armour panels -->
  <filter id="metalr1x317" x="-5%" y="-5%" width="110%" height="110%">
    <feSpecularLighting surfaceScale="4" specularConstant="1.8"
        specularExponent="42" lighting-color="#ffffff" result="spec">
      <feDistantLight elevation="52" azimuth="38"/>
    </feSpecularLighting>
    <feComposite in="spec" in2="SourceGraphic" operator="in" result="sm"/>
    <feComposite in="SourceGraphic" in2="sm" operator="arithmetic" k1="0" k2="1" k3="0.55" k4="0"/>
  </filter>

  <!-- Sharper specular for weapons — heavier glare -->
  <filter id="wmr1x317" x="-8%" y="-8%" width="116%" height="116%">
    <feSpecularLighting surfaceScale="6" specularConstant="2.4"
        specularExponent="65" lighting-color="#ffffff" result="spec">
      <feDistantLight elevation="44" azimuth="28"/>
    </feSpecularLighting>
    <feComposite in="spec" in2="SourceGraphic" operator="in" result="sm"/>
    <feComposite in="SourceGraphic" in2="sm" operator="arithmetic" k1="0" k2="1" k3="0.78" k4="0"/>
  </filter>

  <!-- Sketch wobble -->
  <filter id="skr1x317" x="-8%" y="-8%" width="116%" height="116%">
    <feTurbulence type="fractalNoise" baseFrequency="0.038"
        numOctaves="3" seed="57" result="noise"/>
    <feDisplacementMap in="SourceGraphic" in2="noise" scale="2.6"
        xChannelSelector="R" yChannelSelector="G" result="w"/>
    <feComposite in="w" in2="SourceGraphic" operator="atop"/>
  </filter>

  <!-- Glow: sharp accent -->
  <filter id="glowr1x317" x="-20%" y="-20%" width="140%" height="140%">
    <feGaussianBlur stdDeviation="3.5" result="b"/>
    <feColorMatrix in="b" type="matrix"
        values="0 0 0 0 1  0 0 0 0 1  0 0 0 0 1  0 0 0 1.8 0" result="boost"/>
    <feMerge><feMergeNode in="boost"/><feMergeNode in="SourceGraphic"/></feMerge>
  </filter>

  <!-- Bloom: wide soft -->
  <filter id="bloomr1x317" x="-40%" y="-40%" width="180%" height="180%">
    <feGaussianBlur stdDeviation="11" result="b"/>
    <feMerge><feMergeNode in="b"/><feMergeNode in="SourceGraphic"/></feMerge>
  </filter>

  </defs><rect width="1000" height="1000" fill="url(#bgr1x317)"/><ellipse cx="500.0" cy="1000" rx="850.0" ry="350.0" fill="#ff4500" fill-opacity=".11" filter="url(#bloomr1x317)"/><ellipse cx="500.0" cy="892.0" rx="350.0" ry="65.0" fill="rgba(0,0,0,.7)" filter="url(#bloomr1x317)"/><ellipse cx="500.0" cy="889.0" rx="220.0" ry="34.0" fill="rgba(0,0,0,.45)"/><ellipse cx="500.0" cy="520.0" rx="320.0" ry="480.0" fill="#ff6600" fill-opacity=".042" filter="url(#bloomr1x317)"/><circle cx="682.5" cy="586.3" r="0.7" fill="#ff6600" fill-opacity="0.79" filter="url(#glowr1x317)"/><circle cx="458.3" cy="286.5" r="1.4" fill="#ff6600" fill-opacity="0.45" filter="url(#glowr1x317)"/><circle cx="550.3" cy="574.6" r="2.2" fill="#ff6600" fill-opacity="0.38" filter="url(#glowr1x317)"/><circle cx="624.1" cy="586.6" r="2.3" fill="#ff6600" fill-opacity="0.60" filter="url(#glowr1x317)"/><circle cx="520.6" cy="634.2" r="1.5" fill="#ff6600" fill-opacity="0.46" filter="url(#glowr1x317)"/><circle cx="707.6" cy="515.6" r="3.1" fill="#ff6600" fill-opacity="0.72" filter="url(#glowr1x317)"/><circle cx="469.8" cy="655.6" r="1.1" fill="#ff6600" fill-opacity="0.46" filter="url(#glowr1x317)"/><circle cx="304.7" cy="373.0" r="2.1" fill="#ff6600" fill-opacity="0.75" filter="url(#glowr1x317)"/><circle cx="749.4" cy="598.9" r="1.7" fill="#ff6600" fill-opacity="0.49" filter="url(#glowr1x317)"/><circle cx="641.8" cy="321.5" r="3.6" fill="#ff6600" fill-opacity="0.56" filter="url(#glowr1x317)"/><circle cx="505.1" cy="452.4" r="3.1" fill="#ff6600" fill-opacity="0.41" filter="url(#glowr1x317)"/><circle cx="307.5" cy="645.5" r="1.6" fill="#ff6600" fill-opacity="0.69" filter="url(#glowr1x317)"/><circle cx="472.3" cy="506.1" r="3.2" fill="#ff6600" fill-opacity="0.66" filter="url(#glowr1x317)"/><circle cx="535.4" cy="334.6" r="3.6" fill="#ff6600" fill-opacity="0.68" filter="url(#glowr1x317)"/><polygon points="398.7,662.5 490.0,663.0 479.6,879.2 386.6,877.3" fill="url(#suitr1x317)" stroke="#ff44aa" stroke-width="2.2" filter="url(#skr1x317) url(#metalr1x317)"/><polygon points="400.4,663.0 489.2,664.0 479.3,876.8 386.4,875.8" fill="url(#carbonr1x317)"/><polygon points="391.0,723.3 494.5,724.3 485.1,788.9 382.9,787.7" fill="url(#bevelr1x317)" fill-opacity=".5" stroke="#ff44aa" stroke-width="1.4" filter="url(#skr1x317)"/><polygon points="511.0,663.1 602.0,662.4 614.4,879.1 520.1,879.2" fill="url(#suitr1x317)" stroke="#ff44aa" stroke-width="2.2" filter="url(#skr1x317) url(#metalr1x317)"/><polygon points="509.9,661.2 599.6,663.8 613.3,879.2 520.2,876.2" fill="url(#carbonr1x317)"/><polygon points="505.8,722.7 606.2,722.7 615.2,788.4 516.5,788.3" fill="url(#bevelr1x317)" fill-opacity=".5" stroke="#ff44aa" stroke-width="1.4" filter="url(#skr1x317)"/><rect x="393.0" y="840.1" width="100.3" height="24.7" fill="url(#bevelr1x317)" stroke="#ff44aa" stroke-width="1" filter="url(#skr1x317)"/><rect x="506.2"  y="838.6" width="100.3" height="24.7" fill="url(#bevelr1x317)" stroke="#ff44aa" stroke-width="1" filter="url(#skr1x317)"/><polygon points="369.6,878.6 496.8,877.2 504.6,923.3 364.4,921.0" fill="#880050" stroke="#ff44aa" stroke-width="2" filter="url(#skr1x317)"/><polygon points="504.3,877.8 631.4,878.8 636.6,922.3 496.4,920.1" fill="#880050" stroke="#ff44aa" stroke-width="2" filter="url(#skr1x317)"/><polygon points="302.6,632.8 697.4,632.8 636.4,681.3 361.8,683.4" fill="#ff44aa" fill-opacity=".52" stroke="#ff44aa" stroke-width="2" filter="url(#skr1x317)"/><rect x="463.0" y="637.5" width="72.0" height="42.0" fill="url(#bevelr1x317)" stroke="#ff44aa" stroke-width="1.4" filter="url(#glowr1x317)"/><rect x="484.7" y="642.2" width="28.0" height="22.0" rx="1" fill="rgba(255,255,255,.48)"/><polygon points="152.7,466.5 235.1,467.2 259.6,736.7 127.8,734.5" fill="url(#suitr1x317)" stroke="#ff44aa" stroke-width="2.2" filter="url(#skr1x317) url(#metalr1x317)"/><polygon points="174.4,431.4 252.3,433.6 244.3,509.0 158.9,510.0" fill="url(#bevelr1x317)" fill-opacity=".72" stroke="#ff44aa" stroke-width="2.2" filter="url(#skr1x317)"/><polygon points="162.7,620.2 243.7,622.6 237.5,659.8 165.4,659.2" fill="#ff44aa" fill-opacity=".42" stroke="#ff44aa" stroke-width="1" filter="url(#skr1x317)"/><polygon points="764.2,467.1 847.0,465.7 871.9,733.9 742.7,734.5" fill="url(#suitr1x317)" stroke="#ff44aa" stroke-width="2.2" filter="url(#skr1x317) url(#metalr1x317)"/><polygon points="747.4,432.2 825.6,433.0 840.2,509.2 755.6,511.0" fill="url(#bevelr1x317)" fill-opacity=".72" stroke="#ff44aa" stroke-width="2.2" filter="url(#skr1x317)"/><polygon points="756.0,620.9 837.8,621.2 835.2,660.4 761.2,659.2" fill="#ff44aa" fill-opacity=".42" stroke="#ff44aa" stroke-width="1" filter="url(#skr1x317)"/><rect x="118.8"  y="699.6" width="135.3" height="85.0" rx="4" fill="url(#bevelr1x317)" stroke="#ff44aa" stroke-width="1.8" filter="url(#skr1x317)"/><rect x="746.9"   y="698.6" width="135.3" height="85.0" rx="4" fill="url(#bevelr1x317)" stroke="#ff44aa" stroke-width="1.8" filter="url(#skr1x317)"/><line x1="149.3" y1="702.9" x2="150.9" y2="785.3" stroke="#ff44aa" stroke-opacity=".38" stroke-width="1"/><line x1="778.9" y1="701.3" x2="778.6" y2="783.0" stroke="#ff44aa" stroke-opacity=".38" stroke-width="1"/><line x1="182.2" y1="701.8" x2="181.4" y2="783.3" stroke="#ff44aa" stroke-opacity=".38" stroke-width="1"/><line x1="809.6" y1="700.5" x2="810.1" y2="785.4" stroke="#ff44aa" stroke-opacity=".38" stroke-width="1"/><line x1="215.4" y1="701.6" x2="215.9" y2="784.4" stroke="#ff44aa" stroke-opacity=".38" stroke-width="1"/><line x1="843.9" y1="701.0" x2="843.2" y2="785.5" stroke="#ff44aa" stroke-opacity=".38" stroke-width="1"/><polygon points="236.2,418.0 763.7,416.8 721.7,661.6 276.5,662.9" fill="url(#suitr1x317)" stroke="#ff44aa" stroke-width="2.6" filter="url(#skr1x317) url(#metalr1x317)"/><polygon points="235.7,417.2 764.8,417.3 721.4,661.0 278.7,664.1" fill="url(#carbonr1x317)"/><polygon points="368.0,418.5 634.1,417.7 613.0,515.3 387.0,515.8" fill="url(#suitHir1x317)"/><line x1="361.4" y1="470.7" x2="636.3" y2="469.8" stroke="#ff44aa" stroke-opacity=".52" stroke-width="1.3" filter="url(#skr1x317)"/><line x1="398.8" y1="551.5" x2="602.4" y2="551.1" stroke="#ff44aa" stroke-opacity=".52" stroke-width="1.3" filter="url(#skr1x317)"/><line x1="267.3" y1="492.2" x2="319.4" y2="489.3" stroke="#ff44aa" stroke-opacity=".62" stroke-width="1.8"/><line x1="679.4" y1="491.0" x2="732.4" y2="492.2" stroke="#ff44aa" stroke-opacity=".62" stroke-width="1.8"/><line x1="265.8" y1="523.9" x2="320.4" y2="524.2" stroke="#ff44aa" stroke-opacity=".62" stroke-width="1.8"/><line x1="682.0" y1="522.2" x2="734.9" y2="521.9" stroke="#ff44aa" stroke-opacity=".62" stroke-width="1.8"/><line x1="266.6" y1="553.4" x2="319.1" y2="556.2" stroke="#ff44aa" stroke-opacity=".62" stroke-width="1.8"/><line x1="681.1" y1="553.7" x2="731.8" y2="555.9" stroke="#ff44aa" stroke-opacity=".62" stroke-width="1.8"/><line x1="267.7" y1="586.9" x2="318.5" y2="585.2" stroke="#ff44aa" stroke-opacity=".62" stroke-width="1.8"/><line x1="679.3" y1="585.9" x2="734.3" y2="584.8" stroke="#ff44aa" stroke-opacity=".62" stroke-width="1.8"/><g filter="url(#glowr1x317)"><circle cx="498.2" cy="500.0" r="31.3" fill="#ff44aa" stroke="#1e0600" stroke-width="1.4" filter="url(#skr1x317)"/><circle cx="487.4" cy="499.0" r="7.0" fill="#1e0600"/><circle cx="511.2" cy="497.9" r="7.0" fill="#1e0600"/><rect x="485.3" y="522.4" width="9.3" height="17.4" rx="1" fill="#ff44aa" stroke="#1e0600" stroke-width=".6"/><rect x="497.5" y="520.5" width="9.3" height="17.4" rx="1" fill="#ff44aa" stroke="#1e0600" stroke-width=".6"/><rect x="506.3" y="521.2" width="9.3" height="17.4" rx="1" fill="#ff44aa" stroke="#1e0600" stroke-width=".6"/></g><g><line x1="896.7664393374324" y1="793.1147474474274" x2="915.1621635411494" y2="112.13742572758345" stroke="url(#chromer1x317)" stroke-width="28.0" stroke-linecap="round" filter="url(#wmr1x317)"/><line x1="902.8970709009656" y1="770.0124771162867" x2="911.8448607134261" y2="131.26678861565887" stroke="rgba(255,255,255,.42)" stroke-width="5.0" stroke-linecap="round"/><polygon points="870.5,150.6 934.4,150.6 916.3,-10.3" fill="url(#blader1x317)" stroke="#ff44aa" stroke-width="1.8" filter="url(#wmr1x317)"/><line x1="935.8" y1="151.4" x2="915.8" y2="-8.6" stroke="rgba(255,255,255,.72)" stroke-width="1.6"/><rect x="880.2845928886533" y="421.3282536178827" width="40.0" height="20.0" fill="url(#bevelr1x317)" stroke="#ff44aa" stroke-width="1" filter="url(#wmr1x317)"/><rect x="877.2148387284577" y="509.67600568225606" width="40.0" height="20.0" fill="url(#bevelr1x317)" stroke="#ff44aa" stroke-width="1" filter="url(#wmr1x317)"/><rect x="879.9304561704025" y="601.4061740042641" width="40.0" height="20.0" fill="url(#bevelr1x317)" stroke="#ff44aa" stroke-width="1" filter="url(#wmr1x317)"/><rect x="877.2815726494975" y="690.6449619584716" width="40.0" height="20.0" fill="url(#bevelr1x317)" stroke="#ff44aa" stroke-width="1" filter="url(#wmr1x317)"/><ellipse cx="896.3091744913347" cy="790.5291508368216" rx="22.0" ry="15.0" fill="url(#bevelr1x317)" stroke="#ff44aa" stroke-width="1" filter="url(#wmr1x317)"/></g><rect x="451.45094565795733" y="555.3945488264784" width="100.0"  height="56.0" fill="#880050" stroke="#ff44aa" stroke-width="2.2" filter="url(#skr1x317)"/><rect x="424.64054049318656" y="574.3062550754287" width="152.0" height="26.0" fill="url(#bevelr1x317)" fill-opacity=".65" stroke="#ff44aa" stroke-width="1.2" filter="url(#skr1x317)"/><polygon points="308.8,380.2 349.8,294.6 500.0,279.3 651.4,293.3 693.2,379.6 670.3,502.0 500.7,565.9 332.6,505.2" fill="url(#suitr1x317)" stroke="#ff44aa" stroke-width="2.8" filter="url(#skr1x317) url(#metalr1x317)"/><polygon points="306.3,380.4 350.2,293.8 498.3,278.7 651.5,294.3 692.9,380.8 670.7,502.7 498.9,563.7 332.8,503.0" fill="url(#carbonr1x317)"/><polygon points="379.8,304.1 501.3,284.6 618.6,301.3 605.9,379.3 393.9,379.1" fill="url(#suitHir1x317)"/><polygon points="380.4,379.3 365.2,427.2 431.8,504.7 501.7,528.4 567.0,504.0 632.9,425.3 618.2,381.4" fill="#1e0600" fill-opacity=".88" stroke="#ff44aa" stroke-width="1.8" filter="url(#skr1x317)"/><polygon points="380.4,412.9 477.5,410.4 485.9,438.4 390.2,441.3" fill="#ff44aa" filter="url(#glowr1x317)"/><polygon points="523.6,411.6 619.5,410.8 612.1,441.0 516.2,438.5" fill="#ff44aa" filter="url(#glowr1x317)"/><ellipse cx="430.9" cy="425.7" rx="38.4"  ry="8.2" fill="#ffffff" opacity=".88"/><ellipse cx="569.1" cy="425.7" rx="38.4"  ry="8.2" fill="#ffffff" opacity=".88"/><line x1="484.8863213102892" y1="414.18187959864736" x2="516.4486714536697" y2="413.73747034315016" stroke="#ff44aa" stroke-opacity=".52" stroke-width="2"/><line x1="483.9864860574342" y1="436.49234770517796" x2="516.5038034611754" y2="436.36509121796115" stroke="#ff44aa" stroke-opacity=".52" stroke-width="2"/><line x1="499.1537642929703" y1="454.64502600366245" x2="498.4640754334629" y2="484.0542274668813" stroke="#ff44aa" stroke-opacity=".58" stroke-width="2.2" filter="url(#skr1x317)"/><line x1="453.5289601777494" y1="491.54896854581307" x2="453.8582553129457" y2="520.2867599312216" stroke="#ff44aa" stroke-opacity=".52" stroke-width="1.5" filter="url(#skr1x317)"/><line x1="477.5467176551372" y1="493.0539361036382" x2="478.7177930212952" y2="518.246177705843" stroke="#ff44aa" stroke-opacity=".52" stroke-width="1.5" filter="url(#skr1x317)"/><line x1="501.58901044670495" y1="490.3311701471917" x2="501.5958365697414" y2="521.6018905652687" stroke="#ff44aa" stroke-opacity=".52" stroke-width="1.5" filter="url(#skr1x317)"/><line x1="524.393588791471" y1="491.54059437997637" x2="522.1727462650836" y2="518.402516335994" stroke="#ff44aa" stroke-opacity=".52" stroke-width="1.5" filter="url(#skr1x317)"/><line x1="547.4126169143432" y1="490.4688467239029" x2="544.9781793284417" y2="519.6332878286019" stroke="#ff44aa" stroke-opacity=".52" stroke-width="1.5" filter="url(#skr1x317)"/><polygon points="433.0,503.0 566.0,503.2 553.4,555.9 444.8,557.4" fill="#880050" fill-opacity=".72" stroke="#ff44aa" stroke-width="1.3" filter="url(#skr1x317)"/><path d="M473.9942921120487 312.6087065511383 C305.04185985414307 147.85231476770713 420.4680305537209 239.95724451402202 500.3301282460801 310.751311190892" fill="#ff44aa" fill-opacity=".92" stroke="#ff44aa" stroke-width="2.2" filter="url(#skr1x317)"/><path d="M473.80907425226644 310.18011570731176 C304.72514298003165 148.1539289359003 420.47541428705676 242.8845092916861 498.2858315551654 310.98294841935854" fill="url(#suitHir1x317)" opacity=".28"/><path d="M528.3325232402608 311.8232287657447 C695.2962003411353 146.1374638792127 580.4148215777799 239.5346673636697 499.6496297083795 312.2958556245081" fill="#ff44aa" fill-opacity=".92" stroke="#ff44aa" stroke-width="2.2" filter="url(#skr1x317)"/><path d="M527.9067865926959 309.9216199232265 C695.3194962962158 146.9882739637978 580.5296787793376 240.05449112495407 499.06766876736657 310.2293302722275" fill="url(#suitHir1x317)" opacity=".28"/><text x="30.0"  y="975.0" font-family="monospace" font-weight="bold" font-size="22.0" fill="rgba(255,255,255,.22)">#0001</text><text x="500.0"   y="975.0" text-anchor="middle" font-family="monospace" font-weight="bold" font-size="22.0" fill="#ff44aa" fill-opacity=".48">SAKURA RANGER</text><text x="970.0" y="975.0" text-anchor="end"    font-family="monospace" font-weight="bold" font-size="22.0" fill="#ff44aa" fill-opacity=".32">MECH RANGERS</text></svg>