<svg xmlns="http://www.w3.org/2000/svg" viewBox="0 0 1000 1000" width="1000" height="1000" shape-rendering="geometricPrecision"><defs>

  <!-- Scene gradients -->
  <radialGradient id="bgr1x3224" cx="50%" cy="42%" r="72%">
    <stop offset="0%"   stop-color="#001422"/>
    <stop offset="100%" stop-color="#000a14"/>
  </radialGradient>
  <linearGradient id="suitr1x3224" x1="8%" y1="0%" x2="92%" y2="100%">
    <stop offset="0%"   stop-color="#00ff60" stop-opacity=".95"/>
    <stop offset="45%"  stop-color="#00441e"/>
    <stop offset="100%" stop-color="#000a14"/>
  </linearGradient>
  <linearGradient id="suitHir1x3224" x1="0%" y1="0%" x2="0%" y2="100%">
    <stop offset="0%"   stop-color="rgba(255,255,255,.28)"/>
    <stop offset="60%"  stop-color="rgba(255,255,255,.04)"/>
    <stop offset="100%" stop-color="rgba(255,255,255,0)"/>
  </linearGradient>
  <!-- Bevel: bright top, dark bottom for armour panels -->
  <linearGradient id="bevelr1x3224" x1="0%" y1="0%" x2="0%" y2="100%">
    <stop offset="0%"   stop-color="rgba(255,255,255,.55)"/>
    <stop offset="30%"  stop-color="#00ff60"/>
    <stop offset="70%"  stop-color="#00441e"/>
    <stop offset="100%" stop-color="rgba(0,0,0,.5)"/>
  </linearGradient>

  <!-- Weapon: cold steel blade sweep -->
  <linearGradient id="blader1x3224" x1="0%" y1="0%" x2="100%" y2="0%">
    <stop offset="0%"   stop-color="#0e0e20"/>
    <stop offset="16%"  stop-color="#3e3e58"/>
    <stop offset="34%"  stop-color="#c8c8e0"/>
    <stop offset="50%"  stop-color="#f5f5ff"/>
    <stop offset="66%"  stop-color="#b8b8d0"/>
    <stop offset="84%"  stop-color="#2e2e48"/>
    <stop offset="100%" stop-color="#08080e"/>
  </linearGradient>
  <!-- Blade tip brightening -->
  <linearGradient id="bladeTipr1x3224" x1="0%" y1="100%" x2="0%" y2="0%">
    <stop offset="0%"   stop-color="rgba(255,255,255,0)"/>
    <stop offset="55%"  stop-color="rgba(255,255,255,.1)"/>
    <stop offset="100%" stop-color="rgba(255,255,255,.55)"/>
  </linearGradient>
  <!-- Gunmetal anodised — blaster body -->
  <linearGradient id="gunmetalr1x3224" x1="0%" y1="0%" x2="0%" y2="100%">
    <stop offset="0%"   stop-color="#46465e"/>
    <stop offset="18%"  stop-color="#828296"/>
    <stop offset="42%"  stop-color="#26263a"/>
    <stop offset="72%"  stop-color="#16162a"/>
    <stop offset="100%" stop-color="#0c0c18"/>
  </linearGradient>
  <!-- Brushed steel tube — barrel/rod -->
  <linearGradient id="barrelr1x3224" x1="0%" y1="0%" x2="100%" y2="0%">
    <stop offset="0%"   stop-color="#0a0a14"/>
    <stop offset="24%"  stop-color="#585875"/>
    <stop offset="50%"  stop-color="#a8a8c8"/>
    <stop offset="76%"  stop-color="#383852"/>
    <stop offset="100%" stop-color="#0a0a14"/>
  </linearGradient>
  <!-- Chrome rod — lance shaft -->
  <linearGradient id="chromer1x3224" x1="0%" y1="0%" x2="100%" y2="0%">
    <stop offset="0%"   stop-color="#0c0c18"/>
    <stop offset="20%"  stop-color="#686888"/>
    <stop offset="44%"  stop-color="#e0e0f0"/>
    <stop offset="56%"  stop-color="#c0c0d8"/>
    <stop offset="80%"  stop-color="#28283e"/>
    <stop offset="100%" stop-color="#0c0c18"/>
  </linearGradient>
  <!-- Titanium plate — shield face -->
  <linearGradient id="titaniumr1x3224" x1="0%" y1="0%" x2="100%" y2="100%">
    <stop offset="0%"   stop-color="#585878"/>
    <stop offset="28%"  stop-color="#00ff60" stop-opacity=".88"/>
    <stop offset="55%"  stop-color="#00441e"/>
    <stop offset="80%"  stop-color="#181828"/>
    <stop offset="100%" stop-color="#0a0a18"/>
  </linearGradient>
  <!-- Artillery black-chrome — cannon body -->
  <linearGradient id="artilleryr1x3224" x1="0%" y1="0%" x2="0%" y2="100%">
    <stop offset="0%"   stop-color="#383850"/>
    <stop offset="14%"  stop-color="#78789a"/>
    <stop offset="36%"  stop-color="#202034"/>
    <stop offset="65%"  stop-color="#14141e"/>
    <stop offset="100%" stop-color="#0a0a12"/>
  </linearGradient>
  <!-- Energy orb — staff -->
  <radialGradient id="orbr1x3224" cx="35%" cy="35%" r="65%">
    <stop offset="0%"   stop-color="rgba(255,255,255,.9)"/>
    <stop offset="30%"  stop-color="#00ff60"/>
    <stop offset="68%"  stop-color="#00441e"/>
    <stop offset="100%" stop-color="rgba(0,0,0,.6)"/>
  </radialGradient>
  <!-- Knuckle plate chrome -->
  <linearGradient id="knuckler1x3224" x1="0%" y1="0%" x2="0%" y2="100%">
    <stop offset="0%"   stop-color="#888aaa"/>
    <stop offset="32%"  stop-color="#00ff60" stop-opacity=".8"/>
    <stop offset="62%"  stop-color="#1a1a2c"/>
    <stop offset="100%" stop-color="#0a0a14"/>
  </linearGradient>

  <!-- Carbon fibre weave texture overlay -->
  <pattern id="carbonr1x3224" width="6" height="6" patternUnits="userSpaceOnUse">
    <rect width="6" height="6" fill="rgba(0,0,0,.08)"/>
    <rect x="0" y="0" width="3" height="3" fill="rgba(255,255,255,.022)"/>
    <rect x="3" y="3" width="3" height="3" fill="rgba(255,255,255,.022)"/>
    <line x1="0" y1="0" x2="3" y2="3" stroke="rgba(255,255,255,.038)" stroke-width=".5"/>
    <line x1="3" y1="0" x2="6" y2="3" stroke="rgba(0,0,0,.055)"       stroke-width=".5"/>
    <line x1="0" y1="3" x2="3" y2="6" stroke="rgba(0,0,0,.055)"       stroke-width=".5"/>
    <line x1="3" y1="3" x2="6" y2="6" stroke="rgba(255,255,255,.038)" stroke-width=".5"/>
  </pattern>

  <!-- Specular metal sheen on armour panels -->
  <filter id="metalr1x3224" x="-5%" y="-5%" width="110%" height="110%">
    <feSpecularLighting surfaceScale="4" specularConstant="1.8"
        specularExponent="42" lighting-color="#ffffff" result="spec">
      <feDistantLight elevation="52" azimuth="38"/>
    </feSpecularLighting>
    <feComposite in="spec" in2="SourceGraphic" operator="in" result="sm"/>
    <feComposite in="SourceGraphic" in2="sm" operator="arithmetic" k1="0" k2="1" k3="0.55" k4="0"/>
  </filter>

  <!-- Sharper specular for weapons — heavier glare -->
  <filter id="wmr1x3224" x="-8%" y="-8%" width="116%" height="116%">
    <feSpecularLighting surfaceScale="6" specularConstant="2.4"
        specularExponent="65" lighting-color="#ffffff" result="spec">
      <feDistantLight elevation="44" azimuth="28"/>
    </feSpecularLighting>
    <feComposite in="spec" in2="SourceGraphic" operator="in" result="sm"/>
    <feComposite in="SourceGraphic" in2="sm" operator="arithmetic" k1="0" k2="1" k3="0.78" k4="0"/>
  </filter>

  <!-- Sketch wobble -->
  <filter id="skr1x3224" x="-8%" y="-8%" width="116%" height="116%">
    <feTurbulence type="fractalNoise" baseFrequency="0.038"
        numOctaves="3" seed="51" result="noise"/>
    <feDisplacementMap in="SourceGraphic" in2="noise" scale="2.6"
        xChannelSelector="R" yChannelSelector="G" result="w"/>
    <feComposite in="w" in2="SourceGraphic" operator="atop"/>
  </filter>

  <!-- Glow: sharp accent -->
  <filter id="glowr1x3224" x="-20%" y="-20%" width="140%" height="140%">
    <feGaussianBlur stdDeviation="3.5" result="b"/>
    <feColorMatrix in="b" type="matrix"
        values="0 0 0 0 1  0 0 0 0 1  0 0 0 0 1  0 0 0 1.8 0" result="boost"/>
    <feMerge><feMergeNode in="boost"/><feMergeNode in="SourceGraphic"/></feMerge>
  </filter>

  <!-- Bloom: wide soft -->
  <filter id="bloomr1x3224" x="-40%" y="-40%" width="180%" height="180%">
    <feGaussianBlur stdDeviation="11" result="b"/>
    <feMerge><feMergeNode in="b"/><feMergeNode in="SourceGraphic"/></feMerge>
  </filter>

  </defs><rect width="1000" height="1000" fill="url(#bgr1x3224)"/><line x1="0" y1="-2.4" x2="1000" y2="-0.7" stroke="#00ff60" stroke-opacity=".055" stroke-width="1.2"/><line x1="1.1" y1="0" x2="-2.6" y2="1000" stroke="#00ff60" stroke-opacity=".055" stroke-width="1.2"/><line x1="0" y1="100.9" x2="1000" y2="98.9" stroke="#00ff60" stroke-opacity=".055" stroke-width="1.2"/><line x1="100.8" y1="0" x2="102.8" y2="1000" stroke="#00ff60" stroke-opacity=".055" stroke-width="1.2"/><line x1="0" y1="200.9" x2="1000" y2="200.3" stroke="#00ff60" stroke-opacity=".055" stroke-width="1.2"/><line x1="200.5" y1="0" x2="198.2" y2="1000" stroke="#00ff60" stroke-opacity=".055" stroke-width="1.2"/><line x1="0" y1="299.5" x2="1000" y2="300.1" stroke="#00ff60" stroke-opacity=".055" stroke-width="1.2"/><line x1="297.7" y1="0" x2="301.7" y2="1000" stroke="#00ff60" stroke-opacity=".055" stroke-width="1.2"/><line x1="0" y1="401.9" x2="1000" y2="397.8" stroke="#00ff60" stroke-opacity=".055" stroke-width="1.2"/><line x1="400.6" y1="0" x2="402.0" y2="1000" stroke="#00ff60" stroke-opacity=".055" stroke-width="1.2"/><line x1="0" y1="500.3" x2="1000" y2="502.3" stroke="#00ff60" stroke-opacity=".055" stroke-width="1.2"/><line x1="501.3" y1="0" x2="500.9" y2="1000" stroke="#00ff60" stroke-opacity=".055" stroke-width="1.2"/><line x1="0" y1="600.0" x2="1000" y2="599.4" stroke="#00ff60" stroke-opacity=".055" stroke-width="1.2"/><line x1="598.2" y1="0" x2="597.8" y2="1000" stroke="#00ff60" stroke-opacity=".055" stroke-width="1.2"/><line x1="0" y1="700.2" x2="1000" y2="697.8" stroke="#00ff60" stroke-opacity=".055" stroke-width="1.2"/><line x1="697.8" y1="0" x2="698.6" y2="1000" stroke="#00ff60" stroke-opacity=".055" stroke-width="1.2"/><line x1="0" y1="798.1" x2="1000" y2="798.1" stroke="#00ff60" stroke-opacity=".055" stroke-width="1.2"/><line x1="800.5" y1="0" x2="800.4" y2="1000" stroke="#00ff60" stroke-opacity=".055" stroke-width="1.2"/><line x1="0" y1="899.2" x2="1000" y2="901.5" stroke="#00ff60" stroke-opacity=".055" stroke-width="1.2"/><line x1="900.9" y1="0" x2="899.3" y2="1000" stroke="#00ff60" stroke-opacity=".055" stroke-width="1.2"/><path d="M80,30 L30,30 L30,80" stroke="#00ff60" stroke-opacity=".45" stroke-width="2" fill="none" filter="url(#glowr1x3224)"/><path d="M920,30 L970,30 L970,80" stroke="#00ff60" stroke-opacity=".45" stroke-width="2" fill="none" filter="url(#glowr1x3224)"/><path d="M30,920 L30,970 L80,970" stroke="#00ff60" stroke-opacity=".45" stroke-width="2" fill="none" filter="url(#glowr1x3224)"/><path d="M970,920 L970,970 L920,970" stroke="#00ff60" stroke-opacity=".45" stroke-width="2" fill="none" filter="url(#glowr1x3224)"/><ellipse cx="500.0" cy="892.0" rx="350.0" ry="65.0" fill="rgba(0,0,0,.7)" filter="url(#bloomr1x3224)"/><ellipse cx="500.0" cy="889.0" rx="220.0" ry="34.0" fill="rgba(0,0,0,.45)"/><polygon points="400.0,662.2 490.5,662.7 481.1,878.8 385.9,879.0" fill="url(#suitr1x3224)" stroke="#00ff60" stroke-width="2.2" filter="url(#skr1x3224) url(#metalr1x3224)"/><polygon points="400.5,661.1 490.1,664.1 481.9,877.4 386.7,877.6" fill="url(#carbonr1x3224)"/><polygon points="393.6,723.6 493.6,722.1 483.0,789.1 385.6,789.6" fill="url(#bevelr1x3224)" fill-opacity=".5" stroke="#00ff60" stroke-width="1.4" filter="url(#skr1x3224)"/><polygon points="509.4,663.3 601.5,662.9 613.1,877.3 520.8,877.1" fill="url(#suitr1x3224)" stroke="#00ff60" stroke-width="2.2" filter="url(#skr1x3224) url(#metalr1x3224)"/><polygon points="509.9,661.2 601.5,662.2 612.1,876.3 517.6,878.8" fill="url(#carbonr1x3224)"/><polygon points="506.7,722.2 609.1,723.8 615.1,789.8 515.0,788.5" fill="url(#bevelr1x3224)" fill-opacity=".5" stroke="#00ff60" stroke-width="1.4" filter="url(#skr1x3224)"/><rect x="394.4" y="838.4" width="100.3" height="24.7" fill="url(#bevelr1x3224)" stroke="#00ff60" stroke-width="1" filter="url(#skr1x3224)"/><rect x="505.9"  y="837.4" width="100.3" height="24.7" fill="url(#bevelr1x3224)" stroke="#00ff60" stroke-width="1" filter="url(#skr1x3224)"/><polygon points="369.0,878.7 498.0,879.0 502.2,921.8 362.6,921.0" fill="#00441e" stroke="#00ff60" stroke-width="2" filter="url(#skr1x3224)"/><polygon points="505.2,878.8 629.3,876.7 637.3,923.0 494.8,922.3" fill="#00441e" stroke="#00ff60" stroke-width="2" filter="url(#skr1x3224)"/><polygon points="303.8,631.8 695.7,632.4 638.0,680.6 362.7,680.4" fill="#00ff60" fill-opacity=".52" stroke="#00ff60" stroke-width="2" filter="url(#skr1x3224)"/><rect x="464.5" y="639.0" width="72.0" height="42.0" fill="url(#bevelr1x3224)" stroke="#00ff60" stroke-width="1.4" filter="url(#glowr1x3224)"/><rect x="484.8" y="639.4" width="28.0" height="22.0" rx="1" fill="rgba(255,255,255,.48)"/><polygon points="151.9,468.3 235.4,467.5 259.3,733.9 128.3,735.4" fill="url(#suitr1x3224)" stroke="#00ff60" stroke-width="2.2" filter="url(#skr1x3224) url(#metalr1x3224)"/><polygon points="172.6,433.2 252.8,432.6 243.6,512.2 158.1,511.4" fill="url(#bevelr1x3224)" fill-opacity=".72" stroke="#00ff60" stroke-width="2.2" filter="url(#skr1x3224)"/><polygon points="160.1,622.1 241.5,621.4 237.9,662.2 164.1,662.7" fill="#00ff60" fill-opacity=".42" stroke="#00ff60" stroke-width="1" filter="url(#skr1x3224)"/><polygon points="765.3,467.6 848.2,465.0 872.9,736.4 741.5,734.3" fill="url(#suitr1x3224)" stroke="#00ff60" stroke-width="2.2" filter="url(#skr1x3224) url(#metalr1x3224)"/><polygon points="747.9,431.6 826.7,432.4 840.9,510.9 758.6,511.2" fill="url(#bevelr1x3224)" fill-opacity=".72" stroke="#00ff60" stroke-width="2.2" filter="url(#skr1x3224)"/><polygon points="757.9,623.4 840.2,622.4 834.4,660.3 760.7,661.4" fill="#00ff60" fill-opacity=".42" stroke="#00ff60" stroke-width="1" filter="url(#skr1x3224)"/><rect x="119.7"  y="701.4" width="135.3" height="85.0" rx="4" fill="url(#bevelr1x3224)" stroke="#00ff60" stroke-width="1.8" filter="url(#skr1x3224)"/><rect x="747.0"   y="701.5" width="135.3" height="85.0" rx="4" fill="url(#bevelr1x3224)" stroke="#00ff60" stroke-width="1.8" filter="url(#skr1x3224)"/><line x1="148.4" y1="700.9" x2="150.5" y2="782.1" stroke="#00ff60" stroke-opacity=".38" stroke-width="1"/><line x1="779.1" y1="702.1" x2="776.5" y2="782.2" stroke="#00ff60" stroke-opacity=".38" stroke-width="1"/><line x1="183.8" y1="700.9" x2="182.2" y2="785.3" stroke="#00ff60" stroke-opacity=".38" stroke-width="1"/><line x1="812.0" y1="700.5" x2="811.2" y2="784.4" stroke="#00ff60" stroke-opacity=".38" stroke-width="1"/><line x1="214.0" y1="702.5" x2="215.0" y2="784.0" stroke="#00ff60" stroke-opacity=".38" stroke-width="1"/><line x1="843.0" y1="701.0" x2="843.8" y2="783.5" stroke="#00ff60" stroke-opacity=".38" stroke-width="1"/><polygon points="236.8,417.0 764.4,416.2 723.4,662.7 278.5,663.6" fill="url(#suitr1x3224)" stroke="#00ff60" stroke-width="2.6" filter="url(#skr1x3224) url(#metalr1x3224)"/><polygon points="233.7,417.2 766.4,415.9 723.4,662.0 277.5,663.2" fill="url(#carbonr1x3224)"/><polygon points="367.3,418.9 633.7,418.8 612.4,514.3 390.2,514.1" fill="url(#suitHir1x3224)"/><line x1="363.7" y1="470.2" x2="637.9" y2="471.0" stroke="#00ff60" stroke-opacity=".52" stroke-width="1.3" filter="url(#skr1x3224)"/><line x1="398.3" y1="551.2" x2="599.4" y2="551.2" stroke="#00ff60" stroke-opacity=".52" stroke-width="1.3" filter="url(#skr1x3224)"/><line x1="266.3" y1="491.7" x2="320.7" y2="490.3" stroke="#00ff60" stroke-opacity=".62" stroke-width="1.8"/><line x1="680.6" y1="490.3" x2="732.1" y2="490.4" stroke="#00ff60" stroke-opacity=".62" stroke-width="1.8"/><line x1="267.3" y1="523.9" x2="319.8" y2="523.9" stroke="#00ff60" stroke-opacity=".62" stroke-width="1.8"/><line x1="681.7" y1="523.2" x2="734.3" y2="522.2" stroke="#00ff60" stroke-opacity=".62" stroke-width="1.8"/><line x1="267.0" y1="553.5" x2="320.6" y2="552.9" stroke="#00ff60" stroke-opacity=".62" stroke-width="1.8"/><line x1="681.5" y1="556.3" x2="733.4" y2="555.0" stroke="#00ff60" stroke-opacity=".62" stroke-width="1.8"/><line x1="265.2" y1="588.1" x2="318.2" y2="586.6" stroke="#00ff60" stroke-opacity=".62" stroke-width="1.8"/><line x1="681.5" y1="587.4" x2="733.4" y2="587.7" stroke="#00ff60" stroke-opacity=".62" stroke-width="1.8"/><g filter="url(#glowr1x3224)"><path d="M500,510.6 C393.1462648574263,453.5771595368162 443.3784910533577,548.2533035627008 500,528.1737894374132" fill="#00ff60" fill-opacity=".88" stroke="#00ff60" stroke-width="1.2" filter="url(#skr1x3224)"/><path d="M500,510.6 C609.8943093122914,454.06038509476934 562.4020473081619,545.8844224516675 500,529.6553181368113" fill="#00ff60" fill-opacity=".88" stroke="#00ff60" stroke-width="1.2" filter="url(#skr1x3224)"/><path d="M500,493.20000000000005 C454.4350052973256,462.1378352230415 479.61691672373564,513.4423199692741 500,520.2500851590187" fill="rgba(255,255,255,.14)"/><path d="M500,493.20000000000005 C546.9424613030627,465.2908047729172 525.0045614822768,519.3616124536842 500,521.9778379321099" fill="rgba(255,255,255,.14)"/></g><g><polygon points="30.9,294.8 172.9,292.6 171.4,590.2 100.9,725.4 32.5,592.3" fill="url(#titaniumr1x3224)" stroke="#00ff60" stroke-width="2.6" filter="url(#wmr1x3224)"/><polygon points="32.6,292.1 171.8,291.7 172.8,591.1 101.8,727.7 31.9,592.5" fill="url(#carbonr1x3224)"/><polygon points="65.4,360.3 141.7,361.5 141.2,541.4 103.7,630.2 63.7,542.5" fill="#00ff60" fill-opacity=".28" stroke="#00ff60" stroke-width="1.5"/><line x1="51.1057038667984" y1="431.94805955160405" x2="152.8170919115096" y2="431.3035916975699" stroke="#00ff60" stroke-opacity=".65" stroke-width="1.3"/><line x1="100.3784861918911" y1="330.1083187744021" x2="102.8552336334623" y2="592.4657219603657" stroke="#00ff60" stroke-opacity=".4" stroke-width="1"/><line x1="33.02953377956521" y1="296.9326303353533" x2="171.6692262553051" y2="295.80315713742743" stroke="rgba(255,255,255,.5)" stroke-width="2"/><circle cx="100.46026226378974" cy="430.10738523490727" r="18.0" fill="url(#bevelr1x3224)" stroke="#00ff60" stroke-width="1.2" filter="url(#wmr1x3224)"/></g><rect x="450.3590170755051" y="557.0784747184254" width="100.0"  height="56.0" fill="#00441e" stroke="#00ff60" stroke-width="2.2" filter="url(#skr1x3224)"/><rect x="422.57255548443646" y="574.3575899860822" width="152.0" height="26.0" fill="url(#bevelr1x3224)" fill-opacity=".65" stroke="#00ff60" stroke-width="1.2" filter="url(#skr1x3224)"/><polygon points="307.3,380.6 352.0,293.1 498.8,279.0 649.5,293.9 693.0,382.3 668.3,504.9 498.2,565.2 330.8,504.5" fill="url(#suitr1x3224)" stroke="#00ff60" stroke-width="2.8" filter="url(#skr1x3224) url(#metalr1x3224)"/><polygon points="309.0,379.2 350.5,295.0 501.0,276.9 648.5,295.8 691.0,379.0 667.4,504.3 500.1,565.4 330.2,503.4" fill="url(#carbonr1x3224)"/><polygon points="381.7,301.1 501.5,285.4 618.0,303.6 607.1,380.3 391.2,380.9" fill="url(#suitHir1x3224)"/><polygon points="379.7,380.9 364.5,426.2 432.5,503.3 499.1,529.5 566.7,503.2 633.3,426.8 617.6,382.1" fill="#000a14" fill-opacity=".88" stroke="#00ff60" stroke-width="1.8" filter="url(#skr1x3224)"/><polygon points="379.9,413.1 475.7,412.4 484.2,439.1 390.1,440.9" fill="#00ff60" filter="url(#glowr1x3224)"/><polygon points="523.8,412.6 618.3,412.5 612.8,439.0 514.0,439.9" fill="#00ff60" filter="url(#glowr1x3224)"/><ellipse cx="430.9" cy="425.7" rx="38.4"  ry="8.2" fill="#ffffff" opacity=".88"/><ellipse cx="569.1" cy="425.7" rx="38.4"  ry="8.2" fill="#ffffff" opacity=".88"/><line x1="484.4649693661928" y1="412.04996604658663" x2="515.517934641745" y2="415.1558955436572" stroke="#00ff60" stroke-opacity=".52" stroke-width="2"/><line x1="485.2785953937657" y1="436.8814668411389" x2="515.1257979393378" y2="437.6352747352794" stroke="#00ff60" stroke-opacity=".52" stroke-width="2"/><line x1="498.8249344053678" y1="455.82562255384397" x2="501.6693531117402" y2="481.32564928084616" stroke="#00ff60" stroke-opacity=".58" stroke-width="2.2" filter="url(#skr1x3224)"/><line x1="455.2559812434763" y1="489.62753512347115" x2="455.0270329857059" y2="520.5945753867738" stroke="#00ff60" stroke-opacity=".52" stroke-width="1.5" filter="url(#skr1x3224)"/><line x1="477.7400065265968" y1="493.0536977558396" x2="477.2897410423867" y2="518.7019458189607" stroke="#00ff60" stroke-opacity=".52" stroke-width="1.5" filter="url(#skr1x3224)"/><line x1="501.6509425044991" y1="490.86369749242436" x2="499.09015251267704" y2="520.621977490373" stroke="#00ff60" stroke-opacity=".52" stroke-width="1.5" filter="url(#skr1x3224)"/><line x1="522.9211340954155" y1="491.1791882776655" x2="522.3394374047964" y2="521.0402929970063" stroke="#00ff60" stroke-opacity=".52" stroke-width="1.5" filter="url(#skr1x3224)"/><line x1="544.6647277604975" y1="489.68697652975095" x2="547.5798607441783" y2="519.0628132364712" stroke="#00ff60" stroke-opacity=".52" stroke-width="1.5" filter="url(#skr1x3224)"/><polygon points="434.0,502.6 566.8,504.2 554.8,555.3 445.2,558.7" fill="#00441e" fill-opacity=".72" stroke="#00ff60" stroke-width="1.3" filter="url(#skr1x3224)"/><path d="M341.63902873223645 371.5373059617355 Q380.8968603630923 235.61555613139643 501.1250573079102 283.5086312996223" stroke="#00ff60" stroke-width="2.8" fill="none" stroke-opacity=".88" filter="url(#skr1x3224)"/><path d="M656.5350708466583 370.85384641950947 Q619.037376163397 236.90955972755327 498.3172790753655 283.59004904264583" stroke="#00ff60" stroke-width="2.8" fill="none" stroke-opacity=".88" filter="url(#skr1x3224)"/><line x1="420.541173151359" y1="469.3431130034849" x2="438.23074444834145" y2="505.16470699524507" stroke="#00ff60" stroke-opacity=".52" stroke-width="1.3" filter="url(#skr1x3224)"/><line x1="478.42686208657926" y1="471.4686087309383" x2="496.8377359420433" y2="504.36520292051136" stroke="#00ff60" stroke-opacity=".52" stroke-width="1.3" filter="url(#skr1x3224)"/><line x1="534.0042683130503" y1="472.3087573959492" x2="554.1636024267785" y2="502.01273828148845" stroke="#00ff60" stroke-opacity=".52" stroke-width="1.3" filter="url(#skr1x3224)"/><line x1="593.3298606599122" y1="469.10264340573923" x2="610.4460579513013" y2="503.0942281406373" stroke="#00ff60" stroke-opacity=".52" stroke-width="1.3" filter="url(#skr1x3224)"/><text x="30.0"  y="975.0" font-family="monospace" font-weight="bold" font-size="22.0" fill="rgba(255,255,255,.22)">#0001</text><text x="500.0"   y="975.0" text-anchor="middle" font-family="monospace" font-weight="bold" font-size="22.0" fill="#00ff60" fill-opacity=".48">VIPER RANGER</text><text x="970.0" y="975.0" text-anchor="end"    font-family="monospace" font-weight="bold" font-size="22.0" fill="#00ff60" fill-opacity=".32">MECH RANGERS</text></svg>