<svg xmlns="http://www.w3.org/2000/svg" viewBox="0 0 1000 1000" width="1000" height="1000" shape-rendering="geometricPrecision"><defs>

  <!-- Scene gradients -->
  <radialGradient id="bgr1x3260" cx="50%" cy="42%" r="72%">
    <stop offset="0%"   stop-color="#0a0a14"/>
    <stop offset="100%" stop-color="#050508"/>
  </radialGradient>
  <linearGradient id="suitr1x3260" x1="8%" y1="0%" x2="92%" y2="100%">
    <stop offset="0%"   stop-color="#ccccff" stop-opacity=".95"/>
    <stop offset="45%"  stop-color="#242438"/>
    <stop offset="100%" stop-color="#050508"/>
  </linearGradient>
  <linearGradient id="suitHir1x3260" x1="0%" y1="0%" x2="0%" y2="100%">
    <stop offset="0%"   stop-color="rgba(255,255,255,.28)"/>
    <stop offset="60%"  stop-color="rgba(255,255,255,.04)"/>
    <stop offset="100%" stop-color="rgba(255,255,255,0)"/>
  </linearGradient>
  <!-- Bevel: bright top, dark bottom for armour panels -->
  <linearGradient id="bevelr1x3260" x1="0%" y1="0%" x2="0%" y2="100%">
    <stop offset="0%"   stop-color="rgba(255,255,255,.55)"/>
    <stop offset="30%"  stop-color="#ccccff"/>
    <stop offset="70%"  stop-color="#242438"/>
    <stop offset="100%" stop-color="rgba(0,0,0,.5)"/>
  </linearGradient>

  <!-- Weapon: cold steel blade sweep -->
  <linearGradient id="blader1x3260" x1="0%" y1="0%" x2="100%" y2="0%">
    <stop offset="0%"   stop-color="#0e0e20"/>
    <stop offset="16%"  stop-color="#3e3e58"/>
    <stop offset="34%"  stop-color="#c8c8e0"/>
    <stop offset="50%"  stop-color="#f5f5ff"/>
    <stop offset="66%"  stop-color="#b8b8d0"/>
    <stop offset="84%"  stop-color="#2e2e48"/>
    <stop offset="100%" stop-color="#08080e"/>
  </linearGradient>
  <!-- Blade tip brightening -->
  <linearGradient id="bladeTipr1x3260" x1="0%" y1="100%" x2="0%" y2="0%">
    <stop offset="0%"   stop-color="rgba(255,255,255,0)"/>
    <stop offset="55%"  stop-color="rgba(255,255,255,.1)"/>
    <stop offset="100%" stop-color="rgba(255,255,255,.55)"/>
  </linearGradient>
  <!-- Gunmetal anodised — blaster body -->
  <linearGradient id="gunmetalr1x3260" x1="0%" y1="0%" x2="0%" y2="100%">
    <stop offset="0%"   stop-color="#46465e"/>
    <stop offset="18%"  stop-color="#828296"/>
    <stop offset="42%"  stop-color="#26263a"/>
    <stop offset="72%"  stop-color="#16162a"/>
    <stop offset="100%" stop-color="#0c0c18"/>
  </linearGradient>
  <!-- Brushed steel tube — barrel/rod -->
  <linearGradient id="barrelr1x3260" x1="0%" y1="0%" x2="100%" y2="0%">
    <stop offset="0%"   stop-color="#0a0a14"/>
    <stop offset="24%"  stop-color="#585875"/>
    <stop offset="50%"  stop-color="#a8a8c8"/>
    <stop offset="76%"  stop-color="#383852"/>
    <stop offset="100%" stop-color="#0a0a14"/>
  </linearGradient>
  <!-- Chrome rod — lance shaft -->
  <linearGradient id="chromer1x3260" x1="0%" y1="0%" x2="100%" y2="0%">
    <stop offset="0%"   stop-color="#0c0c18"/>
    <stop offset="20%"  stop-color="#686888"/>
    <stop offset="44%"  stop-color="#e0e0f0"/>
    <stop offset="56%"  stop-color="#c0c0d8"/>
    <stop offset="80%"  stop-color="#28283e"/>
    <stop offset="100%" stop-color="#0c0c18"/>
  </linearGradient>
  <!-- Titanium plate — shield face -->
  <linearGradient id="titaniumr1x3260" x1="0%" y1="0%" x2="100%" y2="100%">
    <stop offset="0%"   stop-color="#585878"/>
    <stop offset="28%"  stop-color="#ccccff" stop-opacity=".88"/>
    <stop offset="55%"  stop-color="#242438"/>
    <stop offset="80%"  stop-color="#181828"/>
    <stop offset="100%" stop-color="#0a0a18"/>
  </linearGradient>
  <!-- Artillery black-chrome — cannon body -->
  <linearGradient id="artilleryr1x3260" x1="0%" y1="0%" x2="0%" y2="100%">
    <stop offset="0%"   stop-color="#383850"/>
    <stop offset="14%"  stop-color="#78789a"/>
    <stop offset="36%"  stop-color="#202034"/>
    <stop offset="65%"  stop-color="#14141e"/>
    <stop offset="100%" stop-color="#0a0a12"/>
  </linearGradient>
  <!-- Energy orb — staff -->
  <radialGradient id="orbr1x3260" cx="35%" cy="35%" r="65%">
    <stop offset="0%"   stop-color="rgba(255,255,255,.9)"/>
    <stop offset="30%"  stop-color="#ccccff"/>
    <stop offset="68%"  stop-color="#242438"/>
    <stop offset="100%" stop-color="rgba(0,0,0,.6)"/>
  </radialGradient>
  <!-- Knuckle plate chrome -->
  <linearGradient id="knuckler1x3260" x1="0%" y1="0%" x2="0%" y2="100%">
    <stop offset="0%"   stop-color="#888aaa"/>
    <stop offset="32%"  stop-color="#ccccff" stop-opacity=".8"/>
    <stop offset="62%"  stop-color="#1a1a2c"/>
    <stop offset="100%" stop-color="#0a0a14"/>
  </linearGradient>

  <!-- Carbon fibre weave texture overlay -->
  <pattern id="carbonr1x3260" width="6" height="6" patternUnits="userSpaceOnUse">
    <rect width="6" height="6" fill="rgba(0,0,0,.08)"/>
    <rect x="0" y="0" width="3" height="3" fill="rgba(255,255,255,.022)"/>
    <rect x="3" y="3" width="3" height="3" fill="rgba(255,255,255,.022)"/>
    <line x1="0" y1="0" x2="3" y2="3" stroke="rgba(255,255,255,.038)" stroke-width=".5"/>
    <line x1="3" y1="0" x2="6" y2="3" stroke="rgba(0,0,0,.055)"       stroke-width=".5"/>
    <line x1="0" y1="3" x2="3" y2="6" stroke="rgba(0,0,0,.055)"       stroke-width=".5"/>
    <line x1="3" y1="3" x2="6" y2="6" stroke="rgba(255,255,255,.038)" stroke-width=".5"/>
  </pattern>

  <!-- Specular metal sheen on armour panels -->
  <filter id="metalr1x3260" x="-5%" y="-5%" width="110%" height="110%">
    <feSpecularLighting surfaceScale="4" specularConstant="1.8"
        specularExponent="42" lighting-color="#ffffff" result="spec">
      <feDistantLight elevation="52" azimuth="38"/>
    </feSpecularLighting>
    <feComposite in="spec" in2="SourceGraphic" operator="in" result="sm"/>
    <feComposite in="SourceGraphic" in2="sm" operator="arithmetic" k1="0" k2="1" k3="0.55" k4="0"/>
  </filter>

  <!-- Sharper specular for weapons — heavier glare -->
  <filter id="wmr1x3260" x="-8%" y="-8%" width="116%" height="116%">
    <feSpecularLighting surfaceScale="6" specularConstant="2.4"
        specularExponent="65" lighting-color="#ffffff" result="spec">
      <feDistantLight elevation="44" azimuth="28"/>
    </feSpecularLighting>
    <feComposite in="spec" in2="SourceGraphic" operator="in" result="sm"/>
    <feComposite in="SourceGraphic" in2="sm" operator="arithmetic" k1="0" k2="1" k3="0.78" k4="0"/>
  </filter>

  <!-- Sketch wobble -->
  <filter id="skr1x3260" x="-8%" y="-8%" width="116%" height="116%">
    <feTurbulence type="fractalNoise" baseFrequency="0.038"
        numOctaves="3" seed="81" result="noise"/>
    <feDisplacementMap in="SourceGraphic" in2="noise" scale="2.6"
        xChannelSelector="R" yChannelSelector="G" result="w"/>
    <feComposite in="w" in2="SourceGraphic" operator="atop"/>
  </filter>

  <!-- Glow: sharp accent -->
  <filter id="glowr1x3260" x="-20%" y="-20%" width="140%" height="140%">
    <feGaussianBlur stdDeviation="3.5" result="b"/>
    <feColorMatrix in="b" type="matrix"
        values="0 0 0 0 1  0 0 0 0 1  0 0 0 0 1  0 0 0 1.8 0" result="boost"/>
    <feMerge><feMergeNode in="boost"/><feMergeNode in="SourceGraphic"/></feMerge>
  </filter>

  <!-- Bloom: wide soft -->
  <filter id="bloomr1x3260" x="-40%" y="-40%" width="180%" height="180%">
    <feGaussianBlur stdDeviation="11" result="b"/>
    <feMerge><feMergeNode in="b"/><feMergeNode in="SourceGraphic"/></feMerge>
  </filter>

  </defs><rect width="1000" height="1000" fill="url(#bgr1x3260)"/><ellipse cx="500.0" cy="892.0" rx="350.0" ry="65.0" fill="rgba(0,0,0,.7)" filter="url(#bloomr1x3260)"/><ellipse cx="500.0" cy="889.0" rx="220.0" ry="34.0" fill="rgba(0,0,0,.45)"/><ellipse cx="500.0" cy="520.0" rx="320.0" ry="480.0" fill="#6600ff" fill-opacity=".042" filter="url(#bloomr1x3260)"/><circle cx="618.0" cy="564.4" r="2.8" fill="#6600ff" fill-opacity="0.77" filter="url(#glowr1x3260)"/><circle cx="329.6" cy="626.1" r="1.7" fill="#6600ff" fill-opacity="0.80" filter="url(#glowr1x3260)"/><circle cx="447.6" cy="498.2" r="2.8" fill="#6600ff" fill-opacity="0.47" filter="url(#glowr1x3260)"/><circle cx="675.4" cy="517.1" r="3.0" fill="#6600ff" fill-opacity="0.72" filter="url(#glowr1x3260)"/><circle cx="265.3" cy="666.7" r="1.2" fill="#6600ff" fill-opacity="0.80" filter="url(#glowr1x3260)"/><circle cx="315.9" cy="575.1" r="3.2" fill="#6600ff" fill-opacity="0.79" filter="url(#glowr1x3260)"/><circle cx="299.8" cy="432.5" r="3.1" fill="#6600ff" fill-opacity="0.60" filter="url(#glowr1x3260)"/><circle cx="613.8" cy="593.3" r="1.0" fill="#6600ff" fill-opacity="0.60" filter="url(#glowr1x3260)"/><circle cx="697.8" cy="585.6" r="3.4" fill="#6600ff" fill-opacity="0.61" filter="url(#glowr1x3260)"/><circle cx="544.5" cy="289.6" r="3.5" fill="#6600ff" fill-opacity="0.40" filter="url(#glowr1x3260)"/><circle cx="529.3" cy="523.4" r="3.2" fill="#6600ff" fill-opacity="0.46" filter="url(#glowr1x3260)"/><circle cx="250.9" cy="541.8" r="3.9" fill="#6600ff" fill-opacity="0.79" filter="url(#glowr1x3260)"/><circle cx="336.1" cy="447.6" r="1.0" fill="#6600ff" fill-opacity="0.85" filter="url(#glowr1x3260)"/><circle cx="511.2" cy="292.3" r="2.0" fill="#6600ff" fill-opacity="0.69" filter="url(#glowr1x3260)"/><polygon points="397.8,662.0 489.4,664.1 480.6,879.0 388.9,878.7" fill="url(#suitr1x3260)" stroke="#ccccff" stroke-width="2.2" filter="url(#skr1x3260) url(#metalr1x3260)"/><polygon points="397.7,663.7 490.6,664.0 482.2,877.1 388.0,877.8" fill="url(#carbonr1x3260)"/><polygon points="392.0,724.4 491.4,722.3 485.4,788.4 382.6,789.6" fill="url(#bevelr1x3260)" fill-opacity=".5" stroke="#ccccff" stroke-width="1.4" filter="url(#skr1x3260)"/><polygon points="511.9,660.7 601.1,663.8 612.4,877.0 520.0,876.6" fill="url(#suitr1x3260)" stroke="#ccccff" stroke-width="2.2" filter="url(#skr1x3260) url(#metalr1x3260)"/><polygon points="510.7,662.2 600.4,663.8 611.0,879.2 520.2,875.7" fill="url(#carbonr1x3260)"/><polygon points="506.5,723.1 605.7,724.4 614.5,786.6 514.2,787.7" fill="url(#bevelr1x3260)" fill-opacity=".5" stroke="#ccccff" stroke-width="1.4" filter="url(#skr1x3260)"/><rect x="392.3" y="838.4" width="100.3" height="24.7" fill="url(#bevelr1x3260)" stroke="#ccccff" stroke-width="1" filter="url(#skr1x3260)"/><rect x="506.3"  y="837.7" width="100.3" height="24.7" fill="url(#bevelr1x3260)" stroke="#ccccff" stroke-width="1" filter="url(#skr1x3260)"/><polygon points="369.8,877.7 497.2,876.7 504.0,922.3 362.2,923.0" fill="#242438" stroke="#ccccff" stroke-width="2" filter="url(#skr1x3260)"/><polygon points="502.2,879.2 630.0,879.0 636.3,922.9 495.9,922.5" fill="#242438" stroke="#ccccff" stroke-width="2" filter="url(#skr1x3260)"/><polygon points="304.1,632.3 697.6,632.6 637.2,680.8 362.7,683.4" fill="#ccccff" fill-opacity=".52" stroke="#ccccff" stroke-width="2" filter="url(#skr1x3260)"/><rect x="463.4" y="638.6" width="72.0" height="42.0" fill="url(#bevelr1x3260)" stroke="#ccccff" stroke-width="1.4" filter="url(#glowr1x3260)"/><rect x="484.3" y="640.8" width="28.0" height="22.0" rx="1" fill="rgba(255,255,255,.48)"/><polygon points="154.0,465.7 235.3,466.6 256.4,735.7 130.1,736.4" fill="url(#suitr1x3260)" stroke="#ccccff" stroke-width="2.2" filter="url(#skr1x3260) url(#metalr1x3260)"/><polygon points="175.2,433.4 253.7,432.3 243.4,509.3 158.8,508.9" fill="url(#bevelr1x3260)" fill-opacity=".72" stroke="#ccccff" stroke-width="2.2" filter="url(#skr1x3260)"/><polygon points="159.7,622.8 244.1,621.7 238.2,661.1 164.3,659.1" fill="#ccccff" fill-opacity=".42" stroke="#ccccff" stroke-width="1" filter="url(#skr1x3260)"/><polygon points="764.8,465.2 847.7,467.8 871.4,736.1 741.4,735.8" fill="url(#suitr1x3260)" stroke="#ccccff" stroke-width="2.2" filter="url(#skr1x3260) url(#metalr1x3260)"/><polygon points="745.2,432.1 828.1,433.1 839.6,511.7 755.6,510.5" fill="url(#bevelr1x3260)" fill-opacity=".72" stroke="#ccccff" stroke-width="2.2" filter="url(#skr1x3260)"/><polygon points="758.2,622.2 839.2,621.8 835.7,660.0 760.1,659.1" fill="#ccccff" fill-opacity=".42" stroke="#ccccff" stroke-width="1" filter="url(#skr1x3260)"/><rect x="118.6"  y="699.7" width="135.3" height="85.0" rx="4" fill="url(#bevelr1x3260)" stroke="#ccccff" stroke-width="1.8" filter="url(#skr1x3260)"/><rect x="747.2"   y="698.9" width="135.3" height="85.0" rx="4" fill="url(#bevelr1x3260)" stroke="#ccccff" stroke-width="1.8" filter="url(#skr1x3260)"/><line x1="148.6" y1="703.1" x2="148.4" y2="783.9" stroke="#ccccff" stroke-opacity=".38" stroke-width="1"/><line x1="776.4" y1="703.6" x2="777.0" y2="785.2" stroke="#ccccff" stroke-opacity=".38" stroke-width="1"/><line x1="183.9" y1="700.2" x2="183.4" y2="782.2" stroke="#ccccff" stroke-opacity=".38" stroke-width="1"/><line x1="809.8" y1="701.2" x2="810.8" y2="782.2" stroke="#ccccff" stroke-opacity=".38" stroke-width="1"/><line x1="213.9" y1="700.6" x2="215.3" y2="785.5" stroke="#ccccff" stroke-opacity=".38" stroke-width="1"/><line x1="842.7" y1="701.8" x2="844.4" y2="784.3" stroke="#ccccff" stroke-opacity=".38" stroke-width="1"/><polygon points="235.6,416.1 763.9,415.8 723.7,662.5 278.5,663.4" fill="url(#suitr1x3260)" stroke="#ccccff" stroke-width="2.6" filter="url(#skr1x3260) url(#metalr1x3260)"/><polygon points="233.6,415.9 764.5,417.8 720.9,664.2 279.1,664.2" fill="url(#carbonr1x3260)"/><polygon points="366.2,416.4 632.8,418.9 611.7,515.9 388.4,516.9" fill="url(#suitHir1x3260)"/><line x1="360.9" y1="471.1" x2="638.8" y2="471.1" stroke="#ccccff" stroke-opacity=".52" stroke-width="1.3" filter="url(#skr1x3260)"/><line x1="400.7" y1="548.7" x2="599.5" y2="549.8" stroke="#ccccff" stroke-opacity=".52" stroke-width="1.3" filter="url(#skr1x3260)"/><line x1="267.2" y1="492.4" x2="318.2" y2="490.2" stroke="#ccccff" stroke-opacity=".62" stroke-width="1.8"/><line x1="681.1" y1="490.8" x2="732.0" y2="491.5" stroke="#ccccff" stroke-opacity=".62" stroke-width="1.8"/><line x1="268.5" y1="523.8" x2="320.1" y2="523.2" stroke="#ccccff" stroke-opacity=".62" stroke-width="1.8"/><line x1="680.8" y1="523.0" x2="733.5" y2="524.5" stroke="#ccccff" stroke-opacity=".62" stroke-width="1.8"/><line x1="266.7" y1="553.1" x2="318.0" y2="554.2" stroke="#ccccff" stroke-opacity=".62" stroke-width="1.8"/><line x1="681.0" y1="553.0" x2="732.1" y2="555.5" stroke="#ccccff" stroke-opacity=".62" stroke-width="1.8"/><line x1="268.2" y1="586.8" x2="320.6" y2="585.5" stroke="#ccccff" stroke-opacity=".62" stroke-width="1.8"/><line x1="678.9" y1="586.0" x2="731.4" y2="586.0" stroke="#ccccff" stroke-opacity=".62" stroke-width="1.8"/><g filter="url(#glowr1x3260)"><path d="M500.0,449.7 C462.3,446.8 442.0,481.6 447.8,513.5 L459.4,542.5 C476.8,536.7 491.3,551.2 500.0,551.2 C508.7,551.2 523.2,536.7 540.6,542.5 L552.2,513.5 C558.0,481.6 537.7,446.8 500.0,449.7 Z" fill="#ccccff" fill-opacity=".92" stroke="#050508" stroke-width="1.3" filter="url(#skr1x3260)"/><path d="M483.8,519.3 Q500.0,533.8 516.2,519.3" stroke="#050508" stroke-width="1" fill="none" opacity=".58"/><ellipse cx="481.4" cy="497.8" rx="8.7" ry="6.4" fill="#050508" opacity=".95"/><ellipse cx="518.6" cy="497.8" rx="8.7" ry="6.4" fill="#050508" opacity=".95"/><ellipse cx="481.4" cy="497.8" rx="2.3" ry="5.8" fill="#ccccff"/><ellipse cx="518.6" cy="497.8" rx="2.3" ry="5.8" fill="#ccccff"/><path d="M471.0,467.1 L458.2,426.5 L481.4,463.0" fill="#ccccff" stroke="#050508" stroke-width=".9"/><path d="M529.0,467.1 L541.8,426.5 L518.6,463.0" fill="#ccccff" stroke="#050508" stroke-width=".9"/><path d="M476.8,452.6 C488.4,449.1 511.6,449.1 523.2,452.6" fill="rgba(255,255,255,.18)"/></g><g><rect x="830.3505175445788" y="420.88237825687975" width="148.0" height="82.0" rx="5" fill="url(#gunmetalr1x3260)" stroke="#ccccff" stroke-width="2" filter="url(#wmr1x3260)"/><rect x="830.9233153764718" y="422.61744280140846" width="148.0" height="82.0" rx="5" fill="url(#carbonr1x3260)"/><rect x="836.5693130655774" y="403.57383335437623" width="90.0" height="22.0" rx="3" fill="url(#barrelr1x3260)" stroke="#ccccff" stroke-width="1" filter="url(#wmr1x3260)"/><circle cx="878.7127989489213" cy="413.0725349511951" r="15.0" fill="#ccccff" opacity=".8" filter="url(#glowr1x3260)"/><circle cx="878.3552797555551" cy="413.4263937733136" r="6.0" fill="rgba(255,255,255,.9)"/><rect x="946.9016527374835" y="454.67390711512417" width="78.0" height="36.0" rx="5" fill="url(#barrelr1x3260)" stroke="#ccccff" stroke-width="1.2" filter="url(#wmr1x3260)"/><circle cx="1021.5875890105591" cy="470.56720277788116" r="18.0" fill="#ccccff" filter="url(#glowr1x3260)" opacity=".88"/><circle cx="1020.7232408037037" cy="469.992564272508" r="7.0" fill="#ffffff"/><rect x="873.8902024300397" y="501.13994492627677" width="44.0" height="42.0" rx="3" fill="url(#gunmetalr1x3260)" stroke="#ccccff" stroke-width="1" filter="url(#wmr1x3260)"/><rect x="833.6467800905556" y="423.89220759645104" width="90.0" height="10.0" rx="2" fill="rgba(255,255,255,.22)"/><line x1="858.7133975710348" y1="487.5997300479561" x2="859.1781305478513" y2="519.2762589273974" stroke="#ccccff" stroke-opacity=".5" stroke-width="1.2"/><line x1="873.980227170568" y1="486.979489775747" x2="872.2473700035922" y2="517.6226127319038" stroke="#ccccff" stroke-opacity=".5" stroke-width="1.2"/><line x1="891.159627759792" y1="487.6619635701179" x2="888.5885119765625" y2="519.400891303923" stroke="#ccccff" stroke-opacity=".5" stroke-width="1.2"/></g><rect x="449.5809986541979" y="558.4533160382881" width="100.0"  height="56.0" fill="#242438" stroke="#ccccff" stroke-width="2.2" filter="url(#skr1x3260)"/><rect x="424.18788906838745" y="573.5725207924843" width="152.0" height="26.0" fill="url(#bevelr1x3260)" fill-opacity=".65" stroke="#ccccff" stroke-width="1.2" filter="url(#skr1x3260)"/><polygon points="309.5,381.8 350.5,294.2 501.4,278.1 648.6,293.5 692.9,382.0 669.7,504.2 498.3,564.9 332.7,504.8" fill="url(#suitr1x3260)" stroke="#ccccff" stroke-width="2.8" filter="url(#skr1x3260) url(#metalr1x3260)"/><polygon points="308.6,380.4 349.8,294.7 500.3,278.9 649.4,294.5 691.1,381.2 670.2,502.1 500.8,564.0 331.6,502.1" fill="url(#carbonr1x3260)"/><polygon points="381.4,303.7 500.5,287.9 618.0,300.9 607.7,382.2 392.0,379.7" fill="url(#suitHir1x3260)"/><polygon points="381.7,381.8 365.1,424.0 431.6,504.0 500.9,527.3 568.9,502.4 634.3,424.8 619.7,382.0" fill="#050508" fill-opacity=".88" stroke="#ccccff" stroke-width="1.8" filter="url(#skr1x3260)"/><polygon points="381.4,411.1 478.1,412.1 485.7,438.5 390.4,438.4" fill="#ccccff" filter="url(#glowr1x3260)"/><polygon points="521.4,412.5 619.1,411.2 610.1,438.3 515.5,440.4" fill="#ccccff" filter="url(#glowr1x3260)"/><ellipse cx="430.9" cy="425.7" rx="38.4"  ry="8.2" fill="#ffffff" opacity=".88"/><ellipse cx="569.1" cy="425.7" rx="38.4"  ry="8.2" fill="#ffffff" opacity=".88"/><line x1="483.24250866552813" y1="413.9681606655009" x2="515.239014032986" y2="412.40652884887527" stroke="#ccccff" stroke-opacity=".52" stroke-width="2"/><line x1="486.3907635180838" y1="436.92187028070913" x2="513.6058516187966" y2="439.5424950138666" stroke="#ccccff" stroke-opacity=".52" stroke-width="2"/><line x1="499.50631315605716" y1="454.46793828150254" x2="500.3934754021466" y2="483.18010654682297" stroke="#ccccff" stroke-opacity=".58" stroke-width="2.2" filter="url(#skr1x3260)"/><line x1="453.3125770365633" y1="492.2589167418889" x2="453.8770522387512" y2="518.2578480282798" stroke="#ccccff" stroke-opacity=".52" stroke-width="1.5" filter="url(#skr1x3260)"/><line x1="476.8506311043538" y1="490.83728670226407" x2="477.22796030644326" y2="519.8708204594441" stroke="#ccccff" stroke-opacity=".52" stroke-width="1.5" filter="url(#skr1x3260)"/><line x1="501.03350655641407" y1="491.4845625634305" x2="500.8167018683627" y2="521.3707625390962" stroke="#ccccff" stroke-opacity=".52" stroke-width="1.5" filter="url(#skr1x3260)"/><line x1="521.4721819708682" y1="491.9569832919165" x2="522.7168065424636" y2="518.240957201738" stroke="#ccccff" stroke-opacity=".52" stroke-width="1.5" filter="url(#skr1x3260)"/><line x1="544.3503923954629" y1="490.7794514270499" x2="546.9341509242729" y2="521.3309118592181" stroke="#ccccff" stroke-opacity=".52" stroke-width="1.5" filter="url(#skr1x3260)"/><polygon points="433.0,504.3 566.7,504.1 555.0,556.9 446.7,555.9" fill="#242438" fill-opacity=".72" stroke="#ccccff" stroke-width="1.3" filter="url(#skr1x3260)"/><polygon points="317.3,305.2 362.1,305.0 337.9,194.1" fill="url(#bevelr1x3260)" fill-opacity=".95" stroke="#ccccff" stroke-width="1.6" filter="url(#skr1x3260) url(#glowr1x3260)"/><polygon points="395.2,303.4 443.5,303.0 419.7,208.5" fill="url(#bevelr1x3260)" fill-opacity=".95" stroke="#ccccff" stroke-width="1.6" filter="url(#skr1x3260) url(#glowr1x3260)"/><polygon points="476.0,303.9 522.6,304.5 500.7,221.9" fill="url(#bevelr1x3260)" fill-opacity=".95" stroke="#ccccff" stroke-width="1.6" filter="url(#skr1x3260) url(#glowr1x3260)"/><polygon points="556.3,304.3 604.8,304.8 581.8,208.6" fill="url(#bevelr1x3260)" fill-opacity=".95" stroke="#ccccff" stroke-width="1.6" filter="url(#skr1x3260) url(#glowr1x3260)"/><polygon points="637.4,306.2 685.2,305.7 660.2,195.6" fill="url(#bevelr1x3260)" fill-opacity=".95" stroke="#ccccff" stroke-width="1.6" filter="url(#skr1x3260) url(#glowr1x3260)"/><text x="30.0"  y="975.0" font-family="monospace" font-weight="bold" font-size="22.0" fill="rgba(255,255,255,.22)">#0001</text><text x="500.0"   y="975.0" text-anchor="middle" font-family="monospace" font-weight="bold" font-size="22.0" fill="#ccccff" fill-opacity=".48">PHANTOM RANGER</text><text x="970.0" y="975.0" text-anchor="end"    font-family="monospace" font-weight="bold" font-size="22.0" fill="#ccccff" fill-opacity=".32">MECH RANGERS</text></svg>