<svg xmlns="http://www.w3.org/2000/svg" viewBox="0 0 1000 1000" width="1000" height="1000" shape-rendering="geometricPrecision"><defs>

  <!-- Scene gradients -->
  <radialGradient id="bgr1x3309" cx="50%" cy="42%" r="72%">
    <stop offset="0%"   stop-color="#0a0a14"/>
    <stop offset="100%" stop-color="#050508"/>
  </radialGradient>
  <linearGradient id="suitr1x3309" x1="8%" y1="0%" x2="92%" y2="100%">
    <stop offset="0%"   stop-color="#ff2040" stop-opacity=".95"/>
    <stop offset="45%"  stop-color="#cc0020"/>
    <stop offset="100%" stop-color="#050508"/>
  </linearGradient>
  <linearGradient id="suitHir1x3309" x1="0%" y1="0%" x2="0%" y2="100%">
    <stop offset="0%"   stop-color="rgba(255,255,255,.28)"/>
    <stop offset="60%"  stop-color="rgba(255,255,255,.04)"/>
    <stop offset="100%" stop-color="rgba(255,255,255,0)"/>
  </linearGradient>
  <!-- Bevel: bright top, dark bottom for armour panels -->
  <linearGradient id="bevelr1x3309" x1="0%" y1="0%" x2="0%" y2="100%">
    <stop offset="0%"   stop-color="rgba(255,255,255,.55)"/>
    <stop offset="30%"  stop-color="#ff2040"/>
    <stop offset="70%"  stop-color="#cc0020"/>
    <stop offset="100%" stop-color="rgba(0,0,0,.5)"/>
  </linearGradient>

  <!-- Weapon: cold steel blade sweep -->
  <linearGradient id="blader1x3309" x1="0%" y1="0%" x2="100%" y2="0%">
    <stop offset="0%"   stop-color="#0e0e20"/>
    <stop offset="16%"  stop-color="#3e3e58"/>
    <stop offset="34%"  stop-color="#c8c8e0"/>
    <stop offset="50%"  stop-color="#f5f5ff"/>
    <stop offset="66%"  stop-color="#b8b8d0"/>
    <stop offset="84%"  stop-color="#2e2e48"/>
    <stop offset="100%" stop-color="#08080e"/>
  </linearGradient>
  <!-- Blade tip brightening -->
  <linearGradient id="bladeTipr1x3309" x1="0%" y1="100%" x2="0%" y2="0%">
    <stop offset="0%"   stop-color="rgba(255,255,255,0)"/>
    <stop offset="55%"  stop-color="rgba(255,255,255,.1)"/>
    <stop offset="100%" stop-color="rgba(255,255,255,.55)"/>
  </linearGradient>
  <!-- Gunmetal anodised — blaster body -->
  <linearGradient id="gunmetalr1x3309" x1="0%" y1="0%" x2="0%" y2="100%">
    <stop offset="0%"   stop-color="#46465e"/>
    <stop offset="18%"  stop-color="#828296"/>
    <stop offset="42%"  stop-color="#26263a"/>
    <stop offset="72%"  stop-color="#16162a"/>
    <stop offset="100%" stop-color="#0c0c18"/>
  </linearGradient>
  <!-- Brushed steel tube — barrel/rod -->
  <linearGradient id="barrelr1x3309" x1="0%" y1="0%" x2="100%" y2="0%">
    <stop offset="0%"   stop-color="#0a0a14"/>
    <stop offset="24%"  stop-color="#585875"/>
    <stop offset="50%"  stop-color="#a8a8c8"/>
    <stop offset="76%"  stop-color="#383852"/>
    <stop offset="100%" stop-color="#0a0a14"/>
  </linearGradient>
  <!-- Chrome rod — lance shaft -->
  <linearGradient id="chromer1x3309" x1="0%" y1="0%" x2="100%" y2="0%">
    <stop offset="0%"   stop-color="#0c0c18"/>
    <stop offset="20%"  stop-color="#686888"/>
    <stop offset="44%"  stop-color="#e0e0f0"/>
    <stop offset="56%"  stop-color="#c0c0d8"/>
    <stop offset="80%"  stop-color="#28283e"/>
    <stop offset="100%" stop-color="#0c0c18"/>
  </linearGradient>
  <!-- Titanium plate — shield face -->
  <linearGradient id="titaniumr1x3309" x1="0%" y1="0%" x2="100%" y2="100%">
    <stop offset="0%"   stop-color="#585878"/>
    <stop offset="28%"  stop-color="#ff2040" stop-opacity=".88"/>
    <stop offset="55%"  stop-color="#cc0020"/>
    <stop offset="80%"  stop-color="#181828"/>
    <stop offset="100%" stop-color="#0a0a18"/>
  </linearGradient>
  <!-- Artillery black-chrome — cannon body -->
  <linearGradient id="artilleryr1x3309" x1="0%" y1="0%" x2="0%" y2="100%">
    <stop offset="0%"   stop-color="#383850"/>
    <stop offset="14%"  stop-color="#78789a"/>
    <stop offset="36%"  stop-color="#202034"/>
    <stop offset="65%"  stop-color="#14141e"/>
    <stop offset="100%" stop-color="#0a0a12"/>
  </linearGradient>
  <!-- Energy orb — staff -->
  <radialGradient id="orbr1x3309" cx="35%" cy="35%" r="65%">
    <stop offset="0%"   stop-color="rgba(255,255,255,.9)"/>
    <stop offset="30%"  stop-color="#ff2040"/>
    <stop offset="68%"  stop-color="#cc0020"/>
    <stop offset="100%" stop-color="rgba(0,0,0,.6)"/>
  </radialGradient>
  <!-- Knuckle plate chrome -->
  <linearGradient id="knuckler1x3309" x1="0%" y1="0%" x2="0%" y2="100%">
    <stop offset="0%"   stop-color="#888aaa"/>
    <stop offset="32%"  stop-color="#ff2040" stop-opacity=".8"/>
    <stop offset="62%"  stop-color="#1a1a2c"/>
    <stop offset="100%" stop-color="#0a0a14"/>
  </linearGradient>

  <!-- Carbon fibre weave texture overlay -->
  <pattern id="carbonr1x3309" width="6" height="6" patternUnits="userSpaceOnUse">
    <rect width="6" height="6" fill="rgba(0,0,0,.08)"/>
    <rect x="0" y="0" width="3" height="3" fill="rgba(255,255,255,.022)"/>
    <rect x="3" y="3" width="3" height="3" fill="rgba(255,255,255,.022)"/>
    <line x1="0" y1="0" x2="3" y2="3" stroke="rgba(255,255,255,.038)" stroke-width=".5"/>
    <line x1="3" y1="0" x2="6" y2="3" stroke="rgba(0,0,0,.055)"       stroke-width=".5"/>
    <line x1="0" y1="3" x2="3" y2="6" stroke="rgba(0,0,0,.055)"       stroke-width=".5"/>
    <line x1="3" y1="3" x2="6" y2="6" stroke="rgba(255,255,255,.038)" stroke-width=".5"/>
  </pattern>

  <!-- Specular metal sheen on armour panels -->
  <filter id="metalr1x3309" x="-5%" y="-5%" width="110%" height="110%">
    <feSpecularLighting surfaceScale="4" specularConstant="1.8"
        specularExponent="42" lighting-color="#ffffff" result="spec">
      <feDistantLight elevation="52" azimuth="38"/>
    </feSpecularLighting>
    <feComposite in="spec" in2="SourceGraphic" operator="in" result="sm"/>
    <feComposite in="SourceGraphic" in2="sm" operator="arithmetic" k1="0" k2="1" k3="0.55" k4="0"/>
  </filter>

  <!-- Sharper specular for weapons — heavier glare -->
  <filter id="wmr1x3309" x="-8%" y="-8%" width="116%" height="116%">
    <feSpecularLighting surfaceScale="6" specularConstant="2.4"
        specularExponent="65" lighting-color="#ffffff" result="spec">
      <feDistantLight elevation="44" azimuth="28"/>
    </feSpecularLighting>
    <feComposite in="spec" in2="SourceGraphic" operator="in" result="sm"/>
    <feComposite in="SourceGraphic" in2="sm" operator="arithmetic" k1="0" k2="1" k3="0.78" k4="0"/>
  </filter>

  <!-- Sketch wobble -->
  <filter id="skr1x3309" x="-8%" y="-8%" width="116%" height="116%">
    <feTurbulence type="fractalNoise" baseFrequency="0.038"
        numOctaves="3" seed="0" result="noise"/>
    <feDisplacementMap in="SourceGraphic" in2="noise" scale="2.6"
        xChannelSelector="R" yChannelSelector="G" result="w"/>
    <feComposite in="w" in2="SourceGraphic" operator="atop"/>
  </filter>

  <!-- Glow: sharp accent -->
  <filter id="glowr1x3309" x="-20%" y="-20%" width="140%" height="140%">
    <feGaussianBlur stdDeviation="3.5" result="b"/>
    <feColorMatrix in="b" type="matrix"
        values="0 0 0 0 1  0 0 0 0 1  0 0 0 0 1  0 0 0 1.8 0" result="boost"/>
    <feMerge><feMergeNode in="boost"/><feMergeNode in="SourceGraphic"/></feMerge>
  </filter>

  <!-- Bloom: wide soft -->
  <filter id="bloomr1x3309" x="-40%" y="-40%" width="180%" height="180%">
    <feGaussianBlur stdDeviation="11" result="b"/>
    <feMerge><feMergeNode in="b"/><feMergeNode in="SourceGraphic"/></feMerge>
  </filter>

  </defs><rect width="1000" height="1000" fill="url(#bgr1x3309)"/><ellipse cx="500.0" cy="892.0" rx="350.0" ry="65.0" fill="rgba(0,0,0,.7)" filter="url(#bloomr1x3309)"/><ellipse cx="500.0" cy="889.0" rx="220.0" ry="34.0" fill="rgba(0,0,0,.45)"/><polygon points="397.2,662.5 489.4,664.3 481.3,877.8 388.5,878.2" fill="url(#suitr1x3309)" stroke="#ff2040" stroke-width="2.2" filter="url(#skr1x3309) url(#metalr1x3309)"/><polygon points="398.1,662.3 487.8,661.4 481.0,876.1 389.2,877.5" fill="url(#carbonr1x3309)"/><polygon points="391.3,724.3 491.8,723.2 484.1,787.4 383.7,788.7" fill="url(#bevelr1x3309)" fill-opacity=".5" stroke="#ff2040" stroke-width="1.4" filter="url(#skr1x3309)"/><polygon points="511.2,661.6 602.3,663.7 611.8,877.5 520.7,878.3" fill="url(#suitr1x3309)" stroke="#ff2040" stroke-width="2.2" filter="url(#skr1x3309) url(#metalr1x3309)"/><polygon points="509.6,661.3 601.3,662.0 612.4,878.6 517.9,877.4" fill="url(#carbonr1x3309)"/><polygon points="506.5,723.4 607.9,725.0 616.2,787.1 516.3,789.9" fill="url(#bevelr1x3309)" fill-opacity=".5" stroke="#ff2040" stroke-width="1.4" filter="url(#skr1x3309)"/><rect x="391.7" y="840.0" width="100.3" height="24.7" fill="url(#bevelr1x3309)" stroke="#ff2040" stroke-width="1" filter="url(#skr1x3309)"/><rect x="506.9"  y="838.6" width="100.3" height="24.7" fill="url(#bevelr1x3309)" stroke="#ff2040" stroke-width="1" filter="url(#skr1x3309)"/><polygon points="368.2,878.0 495.1,877.3 504.8,921.3 361.6,921.1" fill="#cc0020" stroke="#ff2040" stroke-width="2" filter="url(#skr1x3309)"/><polygon points="502.5,876.8 628.8,876.9 637.8,922.8 495.8,919.7" fill="#cc0020" stroke="#ff2040" stroke-width="2" filter="url(#skr1x3309)"/><polygon points="303.1,633.0 694.4,632.2 637.4,682.9 360.8,681.6" fill="#ff2040" fill-opacity=".52" stroke="#ff2040" stroke-width="2" filter="url(#skr1x3309)"/><rect x="462.9" y="639.8" width="72.0" height="42.0" fill="url(#bevelr1x3309)" stroke="#ff2040" stroke-width="1.4" filter="url(#glowr1x3309)"/><rect x="486.9" y="640.8" width="28.0" height="22.0" rx="1" fill="rgba(255,255,255,.48)"/><polygon points="152.6,465.3 234.7,468.0 257.3,733.9 129.3,734.4" fill="url(#suitr1x3309)" stroke="#ff2040" stroke-width="2.2" filter="url(#skr1x3309) url(#metalr1x3309)"/><polygon points="173.0,432.2 253.1,433.6 242.5,510.4 161.0,510.3" fill="url(#bevelr1x3309)" fill-opacity=".72" stroke="#ff2040" stroke-width="2.2" filter="url(#skr1x3309)"/><polygon points="162.6,622.7 243.0,621.8 237.4,659.5 166.9,659.4" fill="#ff2040" fill-opacity=".42" stroke="#ff2040" stroke-width="1" filter="url(#skr1x3309)"/><polygon points="766.0,468.2 847.6,468.0 873.0,736.1 741.9,735.3" fill="url(#suitr1x3309)" stroke="#ff2040" stroke-width="2.2" filter="url(#skr1x3309) url(#metalr1x3309)"/><polygon points="748.3,433.7 825.6,431.7 841.4,511.9 755.8,510.8" fill="url(#bevelr1x3309)" fill-opacity=".72" stroke="#ff2040" stroke-width="2.2" filter="url(#skr1x3309)"/><polygon points="758.1,622.6 839.9,623.0 833.2,661.8 761.7,662.1" fill="#ff2040" fill-opacity=".42" stroke="#ff2040" stroke-width="1" filter="url(#skr1x3309)"/><rect x="121.6"  y="698.2" width="135.3" height="85.0" rx="4" fill="url(#bevelr1x3309)" stroke="#ff2040" stroke-width="1.8" filter="url(#skr1x3309)"/><rect x="747.1"   y="698.2" width="135.3" height="85.0" rx="4" fill="url(#bevelr1x3309)" stroke="#ff2040" stroke-width="1.8" filter="url(#skr1x3309)"/><line x1="150.5" y1="700.1" x2="150.9" y2="784.1" stroke="#ff2040" stroke-opacity=".38" stroke-width="1"/><line x1="778.2" y1="701.7" x2="779.1" y2="783.8" stroke="#ff2040" stroke-opacity=".38" stroke-width="1"/><line x1="183.2" y1="701.7" x2="181.5" y2="782.7" stroke="#ff2040" stroke-opacity=".38" stroke-width="1"/><line x1="812.4" y1="701.0" x2="810.7" y2="783.8" stroke="#ff2040" stroke-opacity=".38" stroke-width="1"/><line x1="216.7" y1="703.0" x2="213.8" y2="785.6" stroke="#ff2040" stroke-opacity=".38" stroke-width="1"/><line x1="842.0" y1="701.6" x2="843.5" y2="782.6" stroke="#ff2040" stroke-opacity=".38" stroke-width="1"/><polygon points="234.7,417.1 763.7,416.3 723.6,661.7 276.6,662.6" fill="url(#suitr1x3309)" stroke="#ff2040" stroke-width="2.6" filter="url(#skr1x3309) url(#metalr1x3309)"/><polygon points="235.6,417.9 764.0,416.7 722.2,663.6 276.2,663.5" fill="url(#carbonr1x3309)"/><polygon points="367.4,416.2 632.0,417.5 611.2,514.0 389.1,516.2" fill="url(#suitHir1x3309)"/><line x1="363.9" y1="471.0" x2="637.3" y2="471.4" stroke="#ff2040" stroke-opacity=".52" stroke-width="1.3" filter="url(#skr1x3309)"/><line x1="399.6" y1="549.7" x2="601.0" y2="548.7" stroke="#ff2040" stroke-opacity=".52" stroke-width="1.3" filter="url(#skr1x3309)"/><line x1="265.7" y1="489.5" x2="320.9" y2="491.1" stroke="#ff2040" stroke-opacity=".62" stroke-width="1.8"/><line x1="680.4" y1="491.1" x2="734.9" y2="492.3" stroke="#ff2040" stroke-opacity=".62" stroke-width="1.8"/><line x1="267.5" y1="521.3" x2="319.7" y2="522.3" stroke="#ff2040" stroke-opacity=".62" stroke-width="1.8"/><line x1="679.6" y1="521.7" x2="732.5" y2="524.4" stroke="#ff2040" stroke-opacity=".62" stroke-width="1.8"/><line x1="267.4" y1="556.5" x2="318.1" y2="555.3" stroke="#ff2040" stroke-opacity=".62" stroke-width="1.8"/><line x1="679.4" y1="555.5" x2="732.7" y2="554.3" stroke="#ff2040" stroke-opacity=".62" stroke-width="1.8"/><line x1="266.4" y1="586.3" x2="321.4" y2="585.3" stroke="#ff2040" stroke-opacity=".62" stroke-width="1.8"/><line x1="680.0" y1="585.6" x2="732.7" y2="586.3" stroke="#ff2040" stroke-opacity=".62" stroke-width="1.8"/><g filter="url(#glowr1x3309)"><polygon points="500.9,453.3 516.8,489.4 553.4,493.5 524.4,520.2 535.6,559.2 499.0,537.2 466.3,557.7 476.1,517.7 446.3,493.8 484.1,488.5 " fill="#ff2040" stroke="#050508" stroke-width="1.4" filter="url(#skr1x3309)"/><polygon points="500.9,453.3 516.8,489.4 553.4,493.5 524.4,520.2 535.6,559.2 499.0,537.2 466.3,557.7 476.1,517.7 446.3,493.8 484.1,488.5 " fill="url(#suitHir1x3309)" opacity=".45"/></g><g><rect x="829.1579230309092" y="422.95384450387206" width="148.0" height="82.0" rx="5" fill="url(#gunmetalr1x3309)" stroke="#ff2040" stroke-width="2" filter="url(#wmr1x3309)"/><rect x="829.8029814939574" y="421.1851780922152" width="148.0" height="82.0" rx="5" fill="url(#carbonr1x3309)"/><rect x="837.5567157188058" y="403.62792801000177" width="90.0" height="22.0" rx="3" fill="url(#barrelr1x3309)" stroke="#ff2040" stroke-width="1" filter="url(#wmr1x3309)"/><circle cx="876.1700767352805" cy="413.38621310377494" r="15.0" fill="#ff2040" opacity=".8" filter="url(#glowr1x3309)"/><circle cx="878.0953599498235" cy="414.35369309801604" r="6.0" fill="rgba(255,255,255,.9)"/><rect x="944.9765375163965" y="455.87387822242454" width="78.0" height="36.0" rx="5" fill="url(#barrelr1x3309)" stroke="#ff2040" stroke-width="1.2" filter="url(#wmr1x3309)"/><circle cx="1018.0911147272774" cy="470.1642190361395" r="18.0" fill="#ff2040" filter="url(#glowr1x3309)" opacity=".88"/><circle cx="1021.4108573424257" cy="472.70604816135017" r="7.0" fill="#ffffff"/><rect x="872.9019353502989" y="502.32918607769534" width="44.0" height="42.0" rx="3" fill="url(#gunmetalr1x3309)" stroke="#ff2040" stroke-width="1" filter="url(#wmr1x3309)"/><rect x="833.4244441954978" y="423.7724360532127" width="90.0" height="10.0" rx="2" fill="rgba(255,255,255,.22)"/><line x1="857.3548460952566" y1="487.4037908673286" x2="859.0756631092728" y2="520.3000000804662" stroke="#ff2040" stroke-opacity=".5" stroke-width="1.2"/><line x1="874.7619685038552" y1="487.292826226633" x2="873.4325066099502" y2="519.498398333881" stroke="#ff2040" stroke-opacity=".5" stroke-width="1.2"/><line x1="890.1473727183976" y1="486.1465206190012" x2="891.0018616621942" y2="518.7138398370705" stroke="#ff2040" stroke-opacity=".5" stroke-width="1.2"/></g><rect x="449.6121405802667" y="556.8850312184542" width="100.0"  height="56.0" fill="#cc0020" stroke="#ff2040" stroke-width="2.2" filter="url(#skr1x3309)"/><rect x="423.36219660388304" y="574.2304131571203" width="152.0" height="26.0" fill="url(#bevelr1x3309)" fill-opacity=".65" stroke="#ff2040" stroke-width="1.2" filter="url(#skr1x3309)"/><polygon points="307.1,380.3 349.6,292.8 501.5,279.4 649.8,293.2 692.7,379.4 667.8,503.0 501.1,564.9 332.0,504.7" fill="url(#suitr1x3309)" stroke="#ff2040" stroke-width="2.8" filter="url(#skr1x3309) url(#metalr1x3309)"/><polygon points="309.6,382.0 351.9,295.4 500.0,276.4 651.1,294.5 692.3,382.0 669.7,503.2 500.6,566.2 331.7,502.8" fill="url(#carbonr1x3309)"/><polygon points="381.6,303.6 499.9,285.3 619.0,301.6 606.1,379.1 391.6,378.9" fill="url(#suitHir1x3309)"/><polygon points="380.6,379.4 367.0,425.8 432.4,502.1 498.8,527.0 567.8,505.1 635.7,423.9 618.3,380.7" fill="#050508" fill-opacity=".88" stroke="#ff2040" stroke-width="1.8" filter="url(#skr1x3309)"/><polygon points="379.2,412.9 476.2,412.0 483.8,441.0 389.2,438.5" fill="#ff2040" filter="url(#glowr1x3309)"/><polygon points="523.1,410.6 617.7,411.7 612.5,438.9 517.1,439.3" fill="#ff2040" filter="url(#glowr1x3309)"/><ellipse cx="430.9" cy="425.7" rx="38.4"  ry="8.2" fill="#ffffff" opacity=".88"/><ellipse cx="569.1" cy="425.7" rx="38.4"  ry="8.2" fill="#ffffff" opacity=".88"/><line x1="484.28357451591637" y1="414.27519761659204" x2="513.6189103372768" y2="412.38351564137264" stroke="#ff2040" stroke-opacity=".52" stroke-width="2"/><line x1="486.2364572764933" y1="437.69339521983636" x2="516.6131502755359" y2="439.6909147244878" stroke="#ff2040" stroke-opacity=".52" stroke-width="2"/><line x1="500.4194853713736" y1="453.8191743064672" x2="499.496264956519" y2="482.238065979071" stroke="#ff2040" stroke-opacity=".58" stroke-width="2.2" filter="url(#skr1x3309)"/><line x1="453.6165316911228" y1="490.5588295096531" x2="455.07887466119604" y2="518.7538180883973" stroke="#ff2040" stroke-opacity=".52" stroke-width="1.5" filter="url(#skr1x3309)"/><line x1="475.9513188160397" y1="491.5747376132756" x2="475.22601127022875" y2="519.769451719895" stroke="#ff2040" stroke-opacity=".52" stroke-width="1.5" filter="url(#skr1x3309)"/><line x1="499.09574375925587" y1="491.41995338024566" x2="501.1325290026143" y2="521.3301333446987" stroke="#ff2040" stroke-opacity=".52" stroke-width="1.5" filter="url(#skr1x3309)"/><line x1="523.4370692973583" y1="489.9799578087404" x2="522.0794756400958" y2="521.066694505047" stroke="#ff2040" stroke-opacity=".52" stroke-width="1.5" filter="url(#skr1x3309)"/><line x1="546.7666581049748" y1="492.31001089997585" x2="547.3130631183461" y2="518.8692444614135" stroke="#ff2040" stroke-opacity=".52" stroke-width="1.5" filter="url(#skr1x3309)"/><polygon points="434.1,503.1 568.0,504.6 553.0,555.9 446.5,555.3" fill="#cc0020" fill-opacity=".72" stroke="#ff2040" stroke-width="1.3" filter="url(#skr1x3309)"/><path d="M472.5221444174461 309.28593521239236 C305.322466187682 148.50420795781537 417.97399364145474 242.035962834768 499.63659541727975 309.12522557144985" fill="#ff2040" fill-opacity=".92" stroke="#ff2040" stroke-width="2.2" filter="url(#skr1x3309)"/><path d="M473.13243561953306 310.3398638056591 C302.764613178689 145.83733251746742 419.4260780496895 242.65617445344105 501.5511643568054 311.60824557840823" fill="url(#suitHir1x3309)" opacity=".28"/><path d="M526.9018909997493 310.6454113755375 C694.3527362420783 147.65361974388358 578.9863064970449 239.82127527985722 499.40370943779124 311.1154232431203" fill="#ff2040" fill-opacity=".92" stroke="#ff2040" stroke-width="2.2" filter="url(#skr1x3309)"/><path d="M528.5122631348855 312.6770177837461 C697.5622720797174 147.17966302158308 582.3917028218135 240.9334396163933 498.3612993321382 309.47463978882877" fill="url(#suitHir1x3309)" opacity=".28"/><text x="30.0"  y="975.0" font-family="monospace" font-weight="bold" font-size="22.0" fill="rgba(255,255,255,.22)">#0001</text><text x="500.0"   y="975.0" text-anchor="middle" font-family="monospace" font-weight="bold" font-size="22.0" fill="#ff2040" fill-opacity=".48">CRIMSON RANGER</text><text x="970.0" y="975.0" text-anchor="end"    font-family="monospace" font-weight="bold" font-size="22.0" fill="#ff2040" fill-opacity=".32">MECH RANGERS</text></svg>