<svg xmlns="http://www.w3.org/2000/svg" viewBox="0 0 1000 1000" width="1000" height="1000" shape-rendering="geometricPrecision"><defs>

  <!-- Scene gradients -->
  <radialGradient id="bgr1x3310" cx="50%" cy="42%" r="72%">
    <stop offset="0%"   stop-color="#0e000e"/>
    <stop offset="100%" stop-color="#1e0600"/>
  </radialGradient>
  <linearGradient id="suitr1x3310" x1="8%" y1="0%" x2="92%" y2="100%">
    <stop offset="0%"   stop-color="#00ff60" stop-opacity=".95"/>
    <stop offset="45%"  stop-color="#00441e"/>
    <stop offset="100%" stop-color="#1e0600"/>
  </linearGradient>
  <linearGradient id="suitHir1x3310" x1="0%" y1="0%" x2="0%" y2="100%">
    <stop offset="0%"   stop-color="rgba(255,255,255,.28)"/>
    <stop offset="60%"  stop-color="rgba(255,255,255,.04)"/>
    <stop offset="100%" stop-color="rgba(255,255,255,0)"/>
  </linearGradient>
  <!-- Bevel: bright top, dark bottom for armour panels -->
  <linearGradient id="bevelr1x3310" x1="0%" y1="0%" x2="0%" y2="100%">
    <stop offset="0%"   stop-color="rgba(255,255,255,.55)"/>
    <stop offset="30%"  stop-color="#00ff60"/>
    <stop offset="70%"  stop-color="#00441e"/>
    <stop offset="100%" stop-color="rgba(0,0,0,.5)"/>
  </linearGradient>

  <!-- Weapon: cold steel blade sweep -->
  <linearGradient id="blader1x3310" x1="0%" y1="0%" x2="100%" y2="0%">
    <stop offset="0%"   stop-color="#0e0e20"/>
    <stop offset="16%"  stop-color="#3e3e58"/>
    <stop offset="34%"  stop-color="#c8c8e0"/>
    <stop offset="50%"  stop-color="#f5f5ff"/>
    <stop offset="66%"  stop-color="#b8b8d0"/>
    <stop offset="84%"  stop-color="#2e2e48"/>
    <stop offset="100%" stop-color="#08080e"/>
  </linearGradient>
  <!-- Blade tip brightening -->
  <linearGradient id="bladeTipr1x3310" x1="0%" y1="100%" x2="0%" y2="0%">
    <stop offset="0%"   stop-color="rgba(255,255,255,0)"/>
    <stop offset="55%"  stop-color="rgba(255,255,255,.1)"/>
    <stop offset="100%" stop-color="rgba(255,255,255,.55)"/>
  </linearGradient>
  <!-- Gunmetal anodised — blaster body -->
  <linearGradient id="gunmetalr1x3310" x1="0%" y1="0%" x2="0%" y2="100%">
    <stop offset="0%"   stop-color="#46465e"/>
    <stop offset="18%"  stop-color="#828296"/>
    <stop offset="42%"  stop-color="#26263a"/>
    <stop offset="72%"  stop-color="#16162a"/>
    <stop offset="100%" stop-color="#0c0c18"/>
  </linearGradient>
  <!-- Brushed steel tube — barrel/rod -->
  <linearGradient id="barrelr1x3310" x1="0%" y1="0%" x2="100%" y2="0%">
    <stop offset="0%"   stop-color="#0a0a14"/>
    <stop offset="24%"  stop-color="#585875"/>
    <stop offset="50%"  stop-color="#a8a8c8"/>
    <stop offset="76%"  stop-color="#383852"/>
    <stop offset="100%" stop-color="#0a0a14"/>
  </linearGradient>
  <!-- Chrome rod — lance shaft -->
  <linearGradient id="chromer1x3310" x1="0%" y1="0%" x2="100%" y2="0%">
    <stop offset="0%"   stop-color="#0c0c18"/>
    <stop offset="20%"  stop-color="#686888"/>
    <stop offset="44%"  stop-color="#e0e0f0"/>
    <stop offset="56%"  stop-color="#c0c0d8"/>
    <stop offset="80%"  stop-color="#28283e"/>
    <stop offset="100%" stop-color="#0c0c18"/>
  </linearGradient>
  <!-- Titanium plate — shield face -->
  <linearGradient id="titaniumr1x3310" x1="0%" y1="0%" x2="100%" y2="100%">
    <stop offset="0%"   stop-color="#585878"/>
    <stop offset="28%"  stop-color="#00ff60" stop-opacity=".88"/>
    <stop offset="55%"  stop-color="#00441e"/>
    <stop offset="80%"  stop-color="#181828"/>
    <stop offset="100%" stop-color="#0a0a18"/>
  </linearGradient>
  <!-- Artillery black-chrome — cannon body -->
  <linearGradient id="artilleryr1x3310" x1="0%" y1="0%" x2="0%" y2="100%">
    <stop offset="0%"   stop-color="#383850"/>
    <stop offset="14%"  stop-color="#78789a"/>
    <stop offset="36%"  stop-color="#202034"/>
    <stop offset="65%"  stop-color="#14141e"/>
    <stop offset="100%" stop-color="#0a0a12"/>
  </linearGradient>
  <!-- Energy orb — staff -->
  <radialGradient id="orbr1x3310" cx="35%" cy="35%" r="65%">
    <stop offset="0%"   stop-color="rgba(255,255,255,.9)"/>
    <stop offset="30%"  stop-color="#00ff60"/>
    <stop offset="68%"  stop-color="#00441e"/>
    <stop offset="100%" stop-color="rgba(0,0,0,.6)"/>
  </radialGradient>
  <!-- Knuckle plate chrome -->
  <linearGradient id="knuckler1x3310" x1="0%" y1="0%" x2="0%" y2="100%">
    <stop offset="0%"   stop-color="#888aaa"/>
    <stop offset="32%"  stop-color="#00ff60" stop-opacity=".8"/>
    <stop offset="62%"  stop-color="#1a1a2c"/>
    <stop offset="100%" stop-color="#0a0a14"/>
  </linearGradient>

  <!-- Carbon fibre weave texture overlay -->
  <pattern id="carbonr1x3310" width="6" height="6" patternUnits="userSpaceOnUse">
    <rect width="6" height="6" fill="rgba(0,0,0,.08)"/>
    <rect x="0" y="0" width="3" height="3" fill="rgba(255,255,255,.022)"/>
    <rect x="3" y="3" width="3" height="3" fill="rgba(255,255,255,.022)"/>
    <line x1="0" y1="0" x2="3" y2="3" stroke="rgba(255,255,255,.038)" stroke-width=".5"/>
    <line x1="3" y1="0" x2="6" y2="3" stroke="rgba(0,0,0,.055)"       stroke-width=".5"/>
    <line x1="0" y1="3" x2="3" y2="6" stroke="rgba(0,0,0,.055)"       stroke-width=".5"/>
    <line x1="3" y1="3" x2="6" y2="6" stroke="rgba(255,255,255,.038)" stroke-width=".5"/>
  </pattern>

  <!-- Specular metal sheen on armour panels -->
  <filter id="metalr1x3310" x="-5%" y="-5%" width="110%" height="110%">
    <feSpecularLighting surfaceScale="4" specularConstant="1.8"
        specularExponent="42" lighting-color="#ffffff" result="spec">
      <feDistantLight elevation="52" azimuth="38"/>
    </feSpecularLighting>
    <feComposite in="spec" in2="SourceGraphic" operator="in" result="sm"/>
    <feComposite in="SourceGraphic" in2="sm" operator="arithmetic" k1="0" k2="1" k3="0.55" k4="0"/>
  </filter>

  <!-- Sharper specular for weapons — heavier glare -->
  <filter id="wmr1x3310" x="-8%" y="-8%" width="116%" height="116%">
    <feSpecularLighting surfaceScale="6" specularConstant="2.4"
        specularExponent="65" lighting-color="#ffffff" result="spec">
      <feDistantLight elevation="44" azimuth="28"/>
    </feSpecularLighting>
    <feComposite in="spec" in2="SourceGraphic" operator="in" result="sm"/>
    <feComposite in="SourceGraphic" in2="sm" operator="arithmetic" k1="0" k2="1" k3="0.78" k4="0"/>
  </filter>

  <!-- Sketch wobble -->
  <filter id="skr1x3310" x="-8%" y="-8%" width="116%" height="116%">
    <feTurbulence type="fractalNoise" baseFrequency="0.038"
        numOctaves="3" seed="60" result="noise"/>
    <feDisplacementMap in="SourceGraphic" in2="noise" scale="2.6"
        xChannelSelector="R" yChannelSelector="G" result="w"/>
    <feComposite in="w" in2="SourceGraphic" operator="atop"/>
  </filter>

  <!-- Glow: sharp accent -->
  <filter id="glowr1x3310" x="-20%" y="-20%" width="140%" height="140%">
    <feGaussianBlur stdDeviation="3.5" result="b"/>
    <feColorMatrix in="b" type="matrix"
        values="0 0 0 0 1  0 0 0 0 1  0 0 0 0 1  0 0 0 1.8 0" result="boost"/>
    <feMerge><feMergeNode in="boost"/><feMergeNode in="SourceGraphic"/></feMerge>
  </filter>

  <!-- Bloom: wide soft -->
  <filter id="bloomr1x3310" x="-40%" y="-40%" width="180%" height="180%">
    <feGaussianBlur stdDeviation="11" result="b"/>
    <feMerge><feMergeNode in="b"/><feMergeNode in="SourceGraphic"/></feMerge>
  </filter>

  </defs><rect width="1000" height="1000" fill="url(#bgr1x3310)"/><ellipse cx="500.0" cy="1000" rx="850.0" ry="350.0" fill="#ff4500" fill-opacity=".11" filter="url(#bloomr1x3310)"/><ellipse cx="500.0" cy="892.0" rx="350.0" ry="65.0" fill="rgba(0,0,0,.7)" filter="url(#bloomr1x3310)"/><ellipse cx="500.0" cy="889.0" rx="220.0" ry="34.0" fill="rgba(0,0,0,.45)"/><ellipse cx="500.0" cy="520.0" rx="320.0" ry="480.0" fill="#6600ff" fill-opacity=".042" filter="url(#bloomr1x3310)"/><circle cx="486.1" cy="495.6" r="2.4" fill="#6600ff" fill-opacity="0.88" filter="url(#glowr1x3310)"/><circle cx="377.0" cy="537.0" r="3.7" fill="#6600ff" fill-opacity="0.43" filter="url(#glowr1x3310)"/><circle cx="464.9" cy="560.3" r="1.0" fill="#6600ff" fill-opacity="0.62" filter="url(#glowr1x3310)"/><circle cx="718.6" cy="423.6" r="1.2" fill="#6600ff" fill-opacity="0.42" filter="url(#glowr1x3310)"/><circle cx="718.7" cy="517.1" r="3.8" fill="#6600ff" fill-opacity="0.59" filter="url(#glowr1x3310)"/><circle cx="603.3" cy="364.7" r="1.5" fill="#6600ff" fill-opacity="0.81" filter="url(#glowr1x3310)"/><circle cx="399.3" cy="270.0" r="2.2" fill="#6600ff" fill-opacity="0.48" filter="url(#glowr1x3310)"/><circle cx="596.9" cy="655.1" r="0.7" fill="#6600ff" fill-opacity="0.52" filter="url(#glowr1x3310)"/><circle cx="558.5" cy="409.9" r="4.1" fill="#6600ff" fill-opacity="0.77" filter="url(#glowr1x3310)"/><circle cx="503.2" cy="423.6" r="3.6" fill="#6600ff" fill-opacity="0.65" filter="url(#glowr1x3310)"/><circle cx="412.2" cy="209.3" r="3.5" fill="#6600ff" fill-opacity="0.78" filter="url(#glowr1x3310)"/><circle cx="363.3" cy="369.4" r="3.9" fill="#6600ff" fill-opacity="0.86" filter="url(#glowr1x3310)"/><circle cx="587.0" cy="432.0" r="4.3" fill="#6600ff" fill-opacity="0.48" filter="url(#glowr1x3310)"/><circle cx="733.8" cy="427.9" r="1.4" fill="#6600ff" fill-opacity="0.55" filter="url(#glowr1x3310)"/><polygon points="400.6,662.2 490.3,660.8 480.8,877.1 388.1,877.6" fill="url(#suitr1x3310)" stroke="#00ff60" stroke-width="2.2" filter="url(#skr1x3310) url(#metalr1x3310)"/><polygon points="400.2,662.7 489.0,663.4 481.3,876.3 385.6,878.9" fill="url(#carbonr1x3310)"/><polygon points="393.2,722.0 491.4,725.3 483.9,789.6 383.6,788.8" fill="url(#bevelr1x3310)" fill-opacity=".5" stroke="#00ff60" stroke-width="1.4" filter="url(#skr1x3310)"/><polygon points="510.7,663.0 599.8,664.3 612.4,878.1 519.6,876.8" fill="url(#suitr1x3310)" stroke="#00ff60" stroke-width="2.2" filter="url(#skr1x3310) url(#metalr1x3310)"/><polygon points="509.2,661.7 601.5,663.6 611.6,877.0 517.9,879.3" fill="url(#carbonr1x3310)"/><polygon points="505.4,724.9 608.1,722.1 616.5,786.5 515.9,788.0" fill="url(#bevelr1x3310)" fill-opacity=".5" stroke="#00ff60" stroke-width="1.4" filter="url(#skr1x3310)"/><rect x="390.9" y="838.9" width="100.3" height="24.7" fill="url(#bevelr1x3310)" stroke="#00ff60" stroke-width="1" filter="url(#skr1x3310)"/><rect x="506.7"  y="837.8" width="100.3" height="24.7" fill="url(#bevelr1x3310)" stroke="#00ff60" stroke-width="1" filter="url(#skr1x3310)"/><polygon points="369.8,878.9 494.7,878.7 501.8,921.6 363.9,922.4" fill="#00441e" stroke="#00ff60" stroke-width="2" filter="url(#skr1x3310)"/><polygon points="504.3,877.4 629.4,876.9 637.0,920.6 495.6,922.4" fill="#00441e" stroke="#00ff60" stroke-width="2" filter="url(#skr1x3310)"/><polygon points="304.2,632.9 696.3,634.2 639.4,680.3 362.5,680.5" fill="#00ff60" fill-opacity=".52" stroke="#00ff60" stroke-width="2" filter="url(#skr1x3310)"/><rect x="463.8" y="637.8" width="72.0" height="42.0" fill="url(#bevelr1x3310)" stroke="#00ff60" stroke-width="1.4" filter="url(#glowr1x3310)"/><rect x="484.3" y="641.2" width="28.0" height="22.0" rx="1" fill="rgba(255,255,255,.48)"/><polygon points="152.3,468.1 234.6,467.4 258.0,736.0 127.2,735.8" fill="url(#suitr1x3310)" stroke="#00ff60" stroke-width="2.2" filter="url(#skr1x3310) url(#metalr1x3310)"/><polygon points="173.4,433.1 252.6,431.0 244.1,510.8 161.1,511.3" fill="url(#bevelr1x3310)" fill-opacity=".72" stroke="#00ff60" stroke-width="2.2" filter="url(#skr1x3310)"/><polygon points="160.4,620.3 241.9,621.1 239.3,661.6 166.8,661.9" fill="#00ff60" fill-opacity=".42" stroke="#00ff60" stroke-width="1" filter="url(#skr1x3310)"/><polygon points="766.8,467.8 848.4,465.4 872.9,736.0 743.6,736.2" fill="url(#suitr1x3310)" stroke="#00ff60" stroke-width="2.2" filter="url(#skr1x3310) url(#metalr1x3310)"/><polygon points="748.1,431.3 825.7,430.5 838.7,510.5 755.1,511.2" fill="url(#bevelr1x3310)" fill-opacity=".72" stroke="#00ff60" stroke-width="2.2" filter="url(#skr1x3310)"/><polygon points="756.8,620.4 840.0,620.8 836.1,661.2 762.5,659.3" fill="#00ff60" fill-opacity=".42" stroke="#00ff60" stroke-width="1" filter="url(#skr1x3310)"/><rect x="121.1"  y="699.5" width="135.3" height="85.0" rx="4" fill="url(#bevelr1x3310)" stroke="#00ff60" stroke-width="1.8" filter="url(#skr1x3310)"/><rect x="749.4"   y="701.4" width="135.3" height="85.0" rx="4" fill="url(#bevelr1x3310)" stroke="#00ff60" stroke-width="1.8" filter="url(#skr1x3310)"/><line x1="150.9" y1="702.4" x2="148.5" y2="783.7" stroke="#00ff60" stroke-opacity=".38" stroke-width="1"/><line x1="777.1" y1="701.3" x2="778.9" y2="785.1" stroke="#00ff60" stroke-opacity=".38" stroke-width="1"/><line x1="182.3" y1="700.2" x2="183.5" y2="782.6" stroke="#00ff60" stroke-opacity=".38" stroke-width="1"/><line x1="811.5" y1="701.3" x2="810.9" y2="784.0" stroke="#00ff60" stroke-opacity=".38" stroke-width="1"/><line x1="216.2" y1="700.7" x2="214.0" y2="783.3" stroke="#00ff60" stroke-opacity=".38" stroke-width="1"/><line x1="842.9" y1="702.9" x2="843.7" y2="785.0" stroke="#00ff60" stroke-opacity=".38" stroke-width="1"/><polygon points="235.1,416.7 764.4,416.5 723.1,662.7 277.5,663.2" fill="url(#suitr1x3310)" stroke="#00ff60" stroke-width="2.6" filter="url(#skr1x3310) url(#metalr1x3310)"/><polygon points="234.3,416.2 764.1,418.3 723.4,661.9 276.9,661.7" fill="url(#carbonr1x3310)"/><polygon points="367.5,418.1 633.9,415.9 611.9,516.8 389.0,516.0" fill="url(#suitHir1x3310)"/><line x1="360.8" y1="469.9" x2="636.0" y2="472.8" stroke="#00ff60" stroke-opacity=".52" stroke-width="1.3" filter="url(#skr1x3310)"/><line x1="398.6" y1="548.8" x2="602.0" y2="548.9" stroke="#00ff60" stroke-opacity=".52" stroke-width="1.3" filter="url(#skr1x3310)"/><line x1="267.8" y1="491.8" x2="321.2" y2="490.9" stroke="#00ff60" stroke-opacity=".62" stroke-width="1.8"/><line x1="681.0" y1="491.8" x2="733.7" y2="491.6" stroke="#00ff60" stroke-opacity=".62" stroke-width="1.8"/><line x1="266.5" y1="523.6" x2="320.8" y2="524.1" stroke="#00ff60" stroke-opacity=".62" stroke-width="1.8"/><line x1="680.9" y1="524.6" x2="731.9" y2="523.7" stroke="#00ff60" stroke-opacity=".62" stroke-width="1.8"/><line x1="265.8" y1="556.4" x2="319.8" y2="553.8" stroke="#00ff60" stroke-opacity=".62" stroke-width="1.8"/><line x1="680.3" y1="554.5" x2="732.8" y2="555.1" stroke="#00ff60" stroke-opacity=".62" stroke-width="1.8"/><line x1="266.6" y1="587.8" x2="318.2" y2="587.2" stroke="#00ff60" stroke-opacity=".62" stroke-width="1.8"/><line x1="679.3" y1="587.6" x2="735.0" y2="588.1" stroke="#00ff60" stroke-opacity=".62" stroke-width="1.8"/><g filter="url(#glowr1x3310)"><polygon points="501.1,451.6 514.3,490.5 556.2,492.2 525.6,518.7 534.1,558.8 499.5,536.1 467.6,556.2 476.3,519.3 445.5,491.1 484.2,489.7 " fill="#00ff60" stroke="#1e0600" stroke-width="1.4" filter="url(#skr1x3310)"/><polygon points="501.1,451.6 514.3,490.5 556.2,492.2 525.6,518.7 534.1,558.8 499.5,536.1 467.6,556.2 476.3,519.3 445.5,491.1 484.2,489.7 " fill="url(#suitHir1x3310)" opacity=".45"/></g><g><rect x="116.0" y="700.7" width="137.8" height="88.0" rx="5" fill="url(#bevelr1x3310)" stroke="#00ff60" stroke-width="2" filter="url(#wmr1x3310)"/><rect x="116.6" y="702.4" width="137.8" height="88.0" rx="5" fill="url(#carbonr1x3310)"/><rect x="747.7"  y="703.4" width="137.8" height="88.0" rx="5" fill="url(#bevelr1x3310)" stroke="#00ff60" stroke-width="2" filter="url(#wmr1x3310)"/><rect x="747.1"  y="702.7" width="137.8" height="88.0" rx="5" fill="url(#carbonr1x3310)"/><rect x="123.0" y="701.2" width="23.0" height="22.0" rx="2" fill="url(#knuckler1x3310)" stroke="#00ff60" stroke-width=".8" filter="url(#wmr1x3310)"/><rect x="754.7" y="699.2" width="23.0" height="22.0" rx="2" fill="url(#knuckler1x3310)" stroke="#00ff60" stroke-width=".8" filter="url(#wmr1x3310)"/><rect x="151.1" y="698.4" width="23.0" height="22.0" rx="2" fill="url(#knuckler1x3310)" stroke="#00ff60" stroke-width=".8" filter="url(#wmr1x3310)"/><rect x="784.2" y="700.8" width="23.0" height="22.0" rx="2" fill="url(#knuckler1x3310)" stroke="#00ff60" stroke-width=".8" filter="url(#wmr1x3310)"/><rect x="179.3" y="699.7" width="23.0" height="22.0" rx="2" fill="url(#knuckler1x3310)" stroke="#00ff60" stroke-width=".8" filter="url(#wmr1x3310)"/><rect x="814.8" y="701.3" width="23.0" height="22.0" rx="2" fill="url(#knuckler1x3310)" stroke="#00ff60" stroke-width=".8" filter="url(#wmr1x3310)"/><rect x="212.0" y="699.1" width="23.0" height="22.0" rx="2" fill="url(#knuckler1x3310)" stroke="#00ff60" stroke-width=".8" filter="url(#wmr1x3310)"/><rect x="843.8" y="700.0" width="23.0" height="22.0" rx="2" fill="url(#knuckler1x3310)" stroke="#00ff60" stroke-width=".8" filter="url(#wmr1x3310)"/><ellipse cx="185.80364353148266" cy="709.5155209451727" rx="45.1" ry="30.0" fill="#00ff60" fill-opacity=".25" filter="url(#glowr1x3310)"/><ellipse cx="817.1793395591155" cy="710.8058969257213" rx="45.1" ry="30.0" fill="#00ff60" fill-opacity=".25" filter="url(#glowr1x3310)"/></g><rect x="449.14090319797396" y="556.7704408883117" width="100.0"  height="56.0" fill="#00441e" stroke="#00ff60" stroke-width="2.2" filter="url(#skr1x3310)"/><rect x="423.2497675633989" y="575.10027165059" width="152.0" height="26.0" fill="url(#bevelr1x3310)" fill-opacity=".65" stroke="#00ff60" stroke-width="1.2" filter="url(#skr1x3310)"/><polygon points="307.2,380.4 350.5,295.6 501.5,277.9 649.3,293.5 691.6,379.1 669.3,503.9 499.3,565.0 330.3,503.7" fill="url(#suitr1x3310)" stroke="#00ff60" stroke-width="2.8" filter="url(#skr1x3310) url(#metalr1x3310)"/><polygon points="307.1,379.6 351.6,293.5 498.4,278.0 650.6,296.1 692.9,382.3 669.4,502.4 501.2,564.3 332.3,503.9" fill="url(#carbonr1x3310)"/><polygon points="382.0,303.9 500.3,287.0 618.5,303.9 607.2,380.3 391.7,380.4" fill="url(#suitHir1x3310)"/><polygon points="381.5,381.8 365.3,427.2 433.0,502.2 501.7,526.4 566.2,503.2 633.2,424.9 619.4,380.0" fill="#1e0600" fill-opacity=".88" stroke="#00ff60" stroke-width="1.8" filter="url(#skr1x3310)"/><polygon points="381.2,412.2 476.3,410.0 485.3,439.7 390.3,438.8" fill="#00ff60" filter="url(#glowr1x3310)"/><polygon points="522.1,412.7 618.3,410.6 612.4,438.6 515.8,439.2" fill="#00ff60" filter="url(#glowr1x3310)"/><ellipse cx="430.9" cy="425.7" rx="38.4"  ry="8.2" fill="#ffffff" opacity=".88"/><ellipse cx="569.1" cy="425.7" rx="38.4"  ry="8.2" fill="#ffffff" opacity=".88"/><line x1="485.77756055096165" y1="415.09963844167066" x2="515.7057506358624" y2="413.4991879343055" stroke="#00ff60" stroke-opacity=".52" stroke-width="2"/><line x1="484.5072497418709" y1="436.76122106658295" x2="513.8271277286485" y2="436.9562228361145" stroke="#00ff60" stroke-opacity=".52" stroke-width="2"/><line x1="498.7875459078699" y1="453.1471014388837" x2="500.81061965767293" y2="483.3917845217511" stroke="#00ff60" stroke-opacity=".58" stroke-width="2.2" filter="url(#skr1x3310)"/><line x1="455.3009940441512" y1="492.33007314112035" x2="454.6056242206879" y2="518.7089323850348" stroke="#00ff60" stroke-opacity=".52" stroke-width="1.5" filter="url(#skr1x3310)"/><line x1="478.47852928688746" y1="489.5906897079199" x2="476.1169236091338" y2="519.1156495714561" stroke="#00ff60" stroke-opacity=".52" stroke-width="1.5" filter="url(#skr1x3310)"/><line x1="499.762865793705" y1="491.3290338606573" x2="501.7868248082697" y2="520.0747895510867" stroke="#00ff60" stroke-opacity=".52" stroke-width="1.5" filter="url(#skr1x3310)"/><line x1="521.6512930039875" y1="489.95099695781244" x2="524.8146069924906" y2="521.7936836341396" stroke="#00ff60" stroke-opacity=".52" stroke-width="1.5" filter="url(#skr1x3310)"/><line x1="546.5328497439809" y1="490.7551581218838" x2="546.2585640125163" y2="521.539977200795" stroke="#00ff60" stroke-opacity=".52" stroke-width="1.5" filter="url(#skr1x3310)"/><polygon points="433.4,504.1 567.0,504.2 552.1,557.1 445.5,557.9" fill="#00441e" fill-opacity=".72" stroke="#00ff60" stroke-width="1.3" filter="url(#skr1x3310)"/><polygon points="314.4,306.0 362.0,304.5 340.2,193.8" fill="url(#bevelr1x3310)" fill-opacity=".95" stroke="#00ff60" stroke-width="1.6" filter="url(#skr1x3310) url(#glowr1x3310)"/><polygon points="398.1,304.3 442.8,306.3 418.7,209.2" fill="url(#bevelr1x3310)" fill-opacity=".95" stroke="#00ff60" stroke-width="1.6" filter="url(#skr1x3310) url(#glowr1x3310)"/><polygon points="475.8,304.0 521.5,306.1 500.0,220.8" fill="url(#bevelr1x3310)" fill-opacity=".95" stroke="#00ff60" stroke-width="1.6" filter="url(#skr1x3310) url(#glowr1x3310)"/><polygon points="559.2,303.2 603.1,305.6 580.1,207.0" fill="url(#bevelr1x3310)" fill-opacity=".95" stroke="#00ff60" stroke-width="1.6" filter="url(#skr1x3310) url(#glowr1x3310)"/><polygon points="639.6,305.0 684.5,303.6 661.8,194.6" fill="url(#bevelr1x3310)" fill-opacity=".95" stroke="#00ff60" stroke-width="1.6" filter="url(#skr1x3310) url(#glowr1x3310)"/><text x="30.0"  y="975.0" font-family="monospace" font-weight="bold" font-size="22.0" fill="rgba(255,255,255,.22)">#0001</text><text x="500.0"   y="975.0" text-anchor="middle" font-family="monospace" font-weight="bold" font-size="22.0" fill="#00ff60" fill-opacity=".48">VIPER RANGER</text><text x="970.0" y="975.0" text-anchor="end"    font-family="monospace" font-weight="bold" font-size="22.0" fill="#00ff60" fill-opacity=".32">MECH RANGERS</text></svg>