<svg xmlns="http://www.w3.org/2000/svg" viewBox="0 0 1000 1000" width="1000" height="1000" shape-rendering="geometricPrecision"><defs>

  <!-- Scene gradients -->
  <radialGradient id="bgr1x3315" cx="50%" cy="42%" r="72%">
    <stop offset="0%"   stop-color="#1e0d00"/>
    <stop offset="100%" stop-color="#140900"/>
  </radialGradient>
  <linearGradient id="suitr1x3315" x1="8%" y1="0%" x2="92%" y2="100%">
    <stop offset="0%"   stop-color="#2060ff" stop-opacity=".95"/>
    <stop offset="45%"  stop-color="#003ccc"/>
    <stop offset="100%" stop-color="#140900"/>
  </linearGradient>
  <linearGradient id="suitHir1x3315" x1="0%" y1="0%" x2="0%" y2="100%">
    <stop offset="0%"   stop-color="rgba(255,255,255,.28)"/>
    <stop offset="60%"  stop-color="rgba(255,255,255,.04)"/>
    <stop offset="100%" stop-color="rgba(255,255,255,0)"/>
  </linearGradient>
  <!-- Bevel: bright top, dark bottom for armour panels -->
  <linearGradient id="bevelr1x3315" x1="0%" y1="0%" x2="0%" y2="100%">
    <stop offset="0%"   stop-color="rgba(255,255,255,.55)"/>
    <stop offset="30%"  stop-color="#2060ff"/>
    <stop offset="70%"  stop-color="#003ccc"/>
    <stop offset="100%" stop-color="rgba(0,0,0,.5)"/>
  </linearGradient>

  <!-- Weapon: cold steel blade sweep -->
  <linearGradient id="blader1x3315" x1="0%" y1="0%" x2="100%" y2="0%">
    <stop offset="0%"   stop-color="#0e0e20"/>
    <stop offset="16%"  stop-color="#3e3e58"/>
    <stop offset="34%"  stop-color="#c8c8e0"/>
    <stop offset="50%"  stop-color="#f5f5ff"/>
    <stop offset="66%"  stop-color="#b8b8d0"/>
    <stop offset="84%"  stop-color="#2e2e48"/>
    <stop offset="100%" stop-color="#08080e"/>
  </linearGradient>
  <!-- Blade tip brightening -->
  <linearGradient id="bladeTipr1x3315" x1="0%" y1="100%" x2="0%" y2="0%">
    <stop offset="0%"   stop-color="rgba(255,255,255,0)"/>
    <stop offset="55%"  stop-color="rgba(255,255,255,.1)"/>
    <stop offset="100%" stop-color="rgba(255,255,255,.55)"/>
  </linearGradient>
  <!-- Gunmetal anodised — blaster body -->
  <linearGradient id="gunmetalr1x3315" x1="0%" y1="0%" x2="0%" y2="100%">
    <stop offset="0%"   stop-color="#46465e"/>
    <stop offset="18%"  stop-color="#828296"/>
    <stop offset="42%"  stop-color="#26263a"/>
    <stop offset="72%"  stop-color="#16162a"/>
    <stop offset="100%" stop-color="#0c0c18"/>
  </linearGradient>
  <!-- Brushed steel tube — barrel/rod -->
  <linearGradient id="barrelr1x3315" x1="0%" y1="0%" x2="100%" y2="0%">
    <stop offset="0%"   stop-color="#0a0a14"/>
    <stop offset="24%"  stop-color="#585875"/>
    <stop offset="50%"  stop-color="#a8a8c8"/>
    <stop offset="76%"  stop-color="#383852"/>
    <stop offset="100%" stop-color="#0a0a14"/>
  </linearGradient>
  <!-- Chrome rod — lance shaft -->
  <linearGradient id="chromer1x3315" x1="0%" y1="0%" x2="100%" y2="0%">
    <stop offset="0%"   stop-color="#0c0c18"/>
    <stop offset="20%"  stop-color="#686888"/>
    <stop offset="44%"  stop-color="#e0e0f0"/>
    <stop offset="56%"  stop-color="#c0c0d8"/>
    <stop offset="80%"  stop-color="#28283e"/>
    <stop offset="100%" stop-color="#0c0c18"/>
  </linearGradient>
  <!-- Titanium plate — shield face -->
  <linearGradient id="titaniumr1x3315" x1="0%" y1="0%" x2="100%" y2="100%">
    <stop offset="0%"   stop-color="#585878"/>
    <stop offset="28%"  stop-color="#2060ff" stop-opacity=".88"/>
    <stop offset="55%"  stop-color="#003ccc"/>
    <stop offset="80%"  stop-color="#181828"/>
    <stop offset="100%" stop-color="#0a0a18"/>
  </linearGradient>
  <!-- Artillery black-chrome — cannon body -->
  <linearGradient id="artilleryr1x3315" x1="0%" y1="0%" x2="0%" y2="100%">
    <stop offset="0%"   stop-color="#383850"/>
    <stop offset="14%"  stop-color="#78789a"/>
    <stop offset="36%"  stop-color="#202034"/>
    <stop offset="65%"  stop-color="#14141e"/>
    <stop offset="100%" stop-color="#0a0a12"/>
  </linearGradient>
  <!-- Energy orb — staff -->
  <radialGradient id="orbr1x3315" cx="35%" cy="35%" r="65%">
    <stop offset="0%"   stop-color="rgba(255,255,255,.9)"/>
    <stop offset="30%"  stop-color="#2060ff"/>
    <stop offset="68%"  stop-color="#003ccc"/>
    <stop offset="100%" stop-color="rgba(0,0,0,.6)"/>
  </radialGradient>
  <!-- Knuckle plate chrome -->
  <linearGradient id="knuckler1x3315" x1="0%" y1="0%" x2="0%" y2="100%">
    <stop offset="0%"   stop-color="#888aaa"/>
    <stop offset="32%"  stop-color="#2060ff" stop-opacity=".8"/>
    <stop offset="62%"  stop-color="#1a1a2c"/>
    <stop offset="100%" stop-color="#0a0a14"/>
  </linearGradient>

  <!-- Carbon fibre weave texture overlay -->
  <pattern id="carbonr1x3315" width="6" height="6" patternUnits="userSpaceOnUse">
    <rect width="6" height="6" fill="rgba(0,0,0,.08)"/>
    <rect x="0" y="0" width="3" height="3" fill="rgba(255,255,255,.022)"/>
    <rect x="3" y="3" width="3" height="3" fill="rgba(255,255,255,.022)"/>
    <line x1="0" y1="0" x2="3" y2="3" stroke="rgba(255,255,255,.038)" stroke-width=".5"/>
    <line x1="3" y1="0" x2="6" y2="3" stroke="rgba(0,0,0,.055)"       stroke-width=".5"/>
    <line x1="0" y1="3" x2="3" y2="6" stroke="rgba(0,0,0,.055)"       stroke-width=".5"/>
    <line x1="3" y1="3" x2="6" y2="6" stroke="rgba(255,255,255,.038)" stroke-width=".5"/>
  </pattern>

  <!-- Specular metal sheen on armour panels -->
  <filter id="metalr1x3315" x="-5%" y="-5%" width="110%" height="110%">
    <feSpecularLighting surfaceScale="4" specularConstant="1.8"
        specularExponent="42" lighting-color="#ffffff" result="spec">
      <feDistantLight elevation="52" azimuth="38"/>
    </feSpecularLighting>
    <feComposite in="spec" in2="SourceGraphic" operator="in" result="sm"/>
    <feComposite in="SourceGraphic" in2="sm" operator="arithmetic" k1="0" k2="1" k3="0.55" k4="0"/>
  </filter>

  <!-- Sharper specular for weapons — heavier glare -->
  <filter id="wmr1x3315" x="-8%" y="-8%" width="116%" height="116%">
    <feSpecularLighting surfaceScale="6" specularConstant="2.4"
        specularExponent="65" lighting-color="#ffffff" result="spec">
      <feDistantLight elevation="44" azimuth="28"/>
    </feSpecularLighting>
    <feComposite in="spec" in2="SourceGraphic" operator="in" result="sm"/>
    <feComposite in="SourceGraphic" in2="sm" operator="arithmetic" k1="0" k2="1" k3="0.78" k4="0"/>
  </filter>

  <!-- Sketch wobble -->
  <filter id="skr1x3315" x="-8%" y="-8%" width="116%" height="116%">
    <feTurbulence type="fractalNoise" baseFrequency="0.038"
        numOctaves="3" seed="29" result="noise"/>
    <feDisplacementMap in="SourceGraphic" in2="noise" scale="2.6"
        xChannelSelector="R" yChannelSelector="G" result="w"/>
    <feComposite in="w" in2="SourceGraphic" operator="atop"/>
  </filter>

  <!-- Glow: sharp accent -->
  <filter id="glowr1x3315" x="-20%" y="-20%" width="140%" height="140%">
    <feGaussianBlur stdDeviation="3.5" result="b"/>
    <feColorMatrix in="b" type="matrix"
        values="0 0 0 0 1  0 0 0 0 1  0 0 0 0 1  0 0 0 1.8 0" result="boost"/>
    <feMerge><feMergeNode in="boost"/><feMergeNode in="SourceGraphic"/></feMerge>
  </filter>

  <!-- Bloom: wide soft -->
  <filter id="bloomr1x3315" x="-40%" y="-40%" width="180%" height="180%">
    <feGaussianBlur stdDeviation="11" result="b"/>
    <feMerge><feMergeNode in="b"/><feMergeNode in="SourceGraphic"/></feMerge>
  </filter>

  </defs><rect width="1000" height="1000" fill="url(#bgr1x3315)"/><line x1="500" y1="500" x2="1500.0" y2="500.0" stroke="#2060ff" stroke-opacity=".048" stroke-width="5"/><line x1="500" y1="500" x2="1474.9" y2="722.5" stroke="#2060ff" stroke-opacity=".048" stroke-width="5"/><line x1="500" y1="500" x2="1401.0" y2="933.9" stroke="#2060ff" stroke-opacity=".048" stroke-width="5"/><line x1="500" y1="500" x2="1281.8" y2="1123.5" stroke="#2060ff" stroke-opacity=".048" stroke-width="5"/><line x1="500" y1="500" x2="1123.5" y2="1281.8" stroke="#2060ff" stroke-opacity=".048" stroke-width="5"/><line x1="500" y1="500" x2="933.9" y2="1401.0" stroke="#2060ff" stroke-opacity=".048" stroke-width="5"/><line x1="500" y1="500" x2="722.5" y2="1474.9" stroke="#2060ff" stroke-opacity=".048" stroke-width="5"/><line x1="500" y1="500" x2="500.0" y2="1500.0" stroke="#2060ff" stroke-opacity=".048" stroke-width="5"/><line x1="500" y1="500" x2="277.5" y2="1474.9" stroke="#2060ff" stroke-opacity=".048" stroke-width="5"/><line x1="500" y1="500" x2="66.1" y2="1401.0" stroke="#2060ff" stroke-opacity=".048" stroke-width="5"/><line x1="500" y1="500" x2="-123.5" y2="1281.8" stroke="#2060ff" stroke-opacity=".048" stroke-width="5"/><line x1="500" y1="500" x2="-281.8" y2="1123.5" stroke="#2060ff" stroke-opacity=".048" stroke-width="5"/><line x1="500" y1="500" x2="-401.0" y2="933.9" stroke="#2060ff" stroke-opacity=".048" stroke-width="5"/><line x1="500" y1="500" x2="-474.9" y2="722.5" stroke="#2060ff" stroke-opacity=".048" stroke-width="5"/><line x1="500" y1="500" x2="-500.0" y2="500.0" stroke="#2060ff" stroke-opacity=".048" stroke-width="5"/><line x1="500" y1="500" x2="-474.9" y2="277.5" stroke="#2060ff" stroke-opacity=".048" stroke-width="5"/><line x1="500" y1="500" x2="-401.0" y2="66.1" stroke="#2060ff" stroke-opacity=".048" stroke-width="5"/><line x1="500" y1="500" x2="-281.8" y2="-123.5" stroke="#2060ff" stroke-opacity=".048" stroke-width="5"/><line x1="500" y1="500" x2="-123.5" y2="-281.8" stroke="#2060ff" stroke-opacity=".048" stroke-width="5"/><line x1="500" y1="500" x2="66.1" y2="-401.0" stroke="#2060ff" stroke-opacity=".048" stroke-width="5"/><line x1="500" y1="500" x2="277.5" y2="-474.9" stroke="#2060ff" stroke-opacity=".048" stroke-width="5"/><line x1="500" y1="500" x2="500.0" y2="-500.0" stroke="#2060ff" stroke-opacity=".048" stroke-width="5"/><line x1="500" y1="500" x2="722.5" y2="-474.9" stroke="#2060ff" stroke-opacity=".048" stroke-width="5"/><line x1="500" y1="500" x2="933.9" y2="-401.0" stroke="#2060ff" stroke-opacity=".048" stroke-width="5"/><line x1="500" y1="500" x2="1123.5" y2="-281.8" stroke="#2060ff" stroke-opacity=".048" stroke-width="5"/><line x1="500" y1="500" x2="1281.8" y2="-123.5" stroke="#2060ff" stroke-opacity=".048" stroke-width="5"/><line x1="500" y1="500" x2="1401.0" y2="66.1" stroke="#2060ff" stroke-opacity=".048" stroke-width="5"/><line x1="500" y1="500" x2="1474.9" y2="277.5" stroke="#2060ff" stroke-opacity=".048" stroke-width="5"/><ellipse cx="500.0" cy="892.0" rx="350.0" ry="65.0" fill="rgba(0,0,0,.7)" filter="url(#bloomr1x3315)"/><ellipse cx="500.0" cy="889.0" rx="220.0" ry="34.0" fill="rgba(0,0,0,.45)"/><polygon points="398.0,661.8 487.7,660.7 481.8,876.9 387.8,878.8" fill="url(#suitr1x3315)" stroke="#2060ff" stroke-width="2.2" filter="url(#skr1x3315) url(#metalr1x3315)"/><polygon points="397.1,663.5 489.2,660.8 480.9,876.8 386.3,879.0" fill="url(#carbonr1x3315)"/><polygon points="390.9,723.4 494.4,725.1 482.8,789.8 382.3,786.9" fill="url(#bevelr1x3315)" fill-opacity=".5" stroke="#2060ff" stroke-width="1.4" filter="url(#skr1x3315)"/><polygon points="511.4,661.3 602.1,663.2 613.6,878.9 521.0,875.9" fill="url(#suitr1x3315)" stroke="#2060ff" stroke-width="2.2" filter="url(#skr1x3315) url(#metalr1x3315)"/><polygon points="509.1,662.9 602.0,664.0 611.9,878.4 519.9,876.3" fill="url(#carbonr1x3315)"/><polygon points="507.5,724.8 605.9,723.9 615.6,790.0 516.1,788.7" fill="url(#bevelr1x3315)" fill-opacity=".5" stroke="#2060ff" stroke-width="1.4" filter="url(#skr1x3315)"/><rect x="393.0" y="840.0" width="100.3" height="24.7" fill="url(#bevelr1x3315)" stroke="#2060ff" stroke-width="1" filter="url(#skr1x3315)"/><rect x="505.9"  y="839.3" width="100.3" height="24.7" fill="url(#bevelr1x3315)" stroke="#2060ff" stroke-width="1" filter="url(#skr1x3315)"/><polygon points="370.8,876.8 494.9,877.0 505.1,923.0 362.0,921.6" fill="#003ccc" stroke="#2060ff" stroke-width="2" filter="url(#skr1x3315)"/><polygon points="505.2,877.8 630.2,878.8 635.9,920.9 498.2,921.4" fill="#003ccc" stroke="#2060ff" stroke-width="2" filter="url(#skr1x3315)"/><polygon points="302.5,633.4 696.6,634.6 636.2,683.2 362.5,680.4" fill="#2060ff" fill-opacity=".52" stroke="#2060ff" stroke-width="2" filter="url(#skr1x3315)"/><rect x="463.2" y="638.7" width="72.0" height="42.0" fill="url(#bevelr1x3315)" stroke="#2060ff" stroke-width="1.4" filter="url(#glowr1x3315)"/><rect x="485.4" y="642.1" width="28.0" height="22.0" rx="1" fill="rgba(255,255,255,.48)"/><polygon points="152.4,466.2 235.5,466.7 257.7,734.5 129.4,735.6" fill="url(#suitr1x3315)" stroke="#2060ff" stroke-width="2.2" filter="url(#skr1x3315) url(#metalr1x3315)"/><polygon points="173.4,432.7 251.6,432.7 243.8,508.9 160.4,510.0" fill="url(#bevelr1x3315)" fill-opacity=".72" stroke="#2060ff" stroke-width="2.2" filter="url(#skr1x3315)"/><polygon points="161.3,622.2 243.8,621.0 239.4,659.7 163.8,660.0" fill="#2060ff" fill-opacity=".42" stroke="#2060ff" stroke-width="1" filter="url(#skr1x3315)"/><polygon points="764.9,465.8 845.4,465.5 872.9,735.9 741.1,735.6" fill="url(#suitr1x3315)" stroke="#2060ff" stroke-width="2.2" filter="url(#skr1x3315) url(#metalr1x3315)"/><polygon points="747.2,432.4 826.7,432.0 841.5,509.3 758.0,511.7" fill="url(#bevelr1x3315)" fill-opacity=".72" stroke="#2060ff" stroke-width="2.2" filter="url(#skr1x3315)"/><polygon points="757.2,621.5 837.3,620.9 835.7,660.2 761.2,661.6" fill="#2060ff" fill-opacity=".42" stroke="#2060ff" stroke-width="1" filter="url(#skr1x3315)"/><rect x="120.8"  y="700.8" width="135.3" height="85.0" rx="4" fill="url(#bevelr1x3315)" stroke="#2060ff" stroke-width="1.8" filter="url(#skr1x3315)"/><rect x="748.0"   y="698.2" width="135.3" height="85.0" rx="4" fill="url(#bevelr1x3315)" stroke="#2060ff" stroke-width="1.8" filter="url(#skr1x3315)"/><line x1="148.7" y1="702.8" x2="150.0" y2="784.4" stroke="#2060ff" stroke-opacity=".38" stroke-width="1"/><line x1="777.2" y1="700.9" x2="777.3" y2="782.8" stroke="#2060ff" stroke-opacity=".38" stroke-width="1"/><line x1="181.3" y1="702.7" x2="184.1" y2="784.0" stroke="#2060ff" stroke-opacity=".38" stroke-width="1"/><line x1="811.6" y1="701.0" x2="809.2" y2="785.1" stroke="#2060ff" stroke-opacity=".38" stroke-width="1"/><line x1="214.6" y1="700.5" x2="215.3" y2="782.4" stroke="#2060ff" stroke-opacity=".38" stroke-width="1"/><line x1="843.1" y1="702.9" x2="842.2" y2="782.6" stroke="#2060ff" stroke-opacity=".38" stroke-width="1"/><polygon points="234.7,416.7 765.6,416.0 724.2,663.8 279.2,663.4" fill="url(#suitr1x3315)" stroke="#2060ff" stroke-width="2.6" filter="url(#skr1x3315) url(#metalr1x3315)"/><polygon points="235.3,415.9 763.8,416.8 722.8,661.0 276.7,660.7" fill="url(#carbonr1x3315)"/><polygon points="369.1,417.2 633.3,418.7 611.2,517.0 387.3,515.5" fill="url(#suitHir1x3315)"/><line x1="360.4" y1="472.5" x2="639.5" y2="472.2" stroke="#2060ff" stroke-opacity=".52" stroke-width="1.3" filter="url(#skr1x3315)"/><line x1="400.5" y1="550.7" x2="599.1" y2="548.6" stroke="#2060ff" stroke-opacity=".52" stroke-width="1.3" filter="url(#skr1x3315)"/><line x1="268.2" y1="491.2" x2="320.9" y2="490.8" stroke="#2060ff" stroke-opacity=".62" stroke-width="1.8"/><line x1="681.6" y1="492.3" x2="734.1" y2="491.9" stroke="#2060ff" stroke-opacity=".62" stroke-width="1.8"/><line x1="265.8" y1="524.1" x2="320.3" y2="523.7" stroke="#2060ff" stroke-opacity=".62" stroke-width="1.8"/><line x1="680.8" y1="523.2" x2="734.2" y2="524.1" stroke="#2060ff" stroke-opacity=".62" stroke-width="1.8"/><line x1="267.7" y1="554.9" x2="320.4" y2="554.2" stroke="#2060ff" stroke-opacity=".62" stroke-width="1.8"/><line x1="679.9" y1="555.8" x2="734.0" y2="553.0" stroke="#2060ff" stroke-opacity=".62" stroke-width="1.8"/><line x1="266.7" y1="585.6" x2="320.3" y2="588.3" stroke="#2060ff" stroke-opacity=".62" stroke-width="1.8"/><line x1="681.9" y1="587.0" x2="734.0" y2="585.7" stroke="#2060ff" stroke-opacity=".62" stroke-width="1.8"/><g filter="url(#glowr1x3315)"><path d="M500,510.6 C386.93312840424477,449.3926415897906 446.3741599842906,547.8360952208192 500,530.49331499964" fill="#2060ff" fill-opacity=".88" stroke="#2060ff" stroke-width="1.2" filter="url(#skr1x3315)"/><path d="M500,510.6 C607.3904784062877,455.6994517201558 559.7685455214232,543.1020515071601 500,530.2525384794176" fill="#2060ff" fill-opacity=".88" stroke="#2060ff" stroke-width="1.2" filter="url(#skr1x3315)"/><path d="M500,493.20000000000005 C455.5105087076314,467.1268459929154 477.6530622427352,515.0321253799833 500,520.976549207978" fill="rgba(255,255,255,.14)"/><path d="M500,493.20000000000005 C547.6488879221491,464.37374263983224 524.4105410713703,515.395000328403 500,523.27994747255" fill="rgba(255,255,255,.14)"/></g><g><rect x="34.794881595429004" y="419.9159986539744" width="148.0" height="82.0" rx="5" fill="url(#gunmetalr1x3315)" stroke="#2060ff" stroke-width="2" filter="url(#wmr1x3315)"/><rect x="34.52874055676159" y="419.9081006087363" width="148.0" height="82.0" rx="5" fill="url(#carbonr1x3315)"/><rect x="42.19936207611111" y="401.7550049369223" width="90.0" height="22.0" rx="3" fill="url(#barrelr1x3315)" stroke="#2060ff" stroke-width="1" filter="url(#wmr1x3315)"/><circle cx="83.25898555818942" cy="414.0659269302152" r="15.0" fill="#2060ff" opacity=".8" filter="url(#glowr1x3315)"/><circle cx="80.94003753144291" cy="415.9437263816595" r="6.0" fill="rgba(255,255,255,.9)"/><rect x="53.166670878548146" y="455.2599374919198" width="78.0" height="36.0" rx="5" fill="url(#barrelr1x3315)" stroke="#2060ff" stroke-width="1.2" filter="url(#wmr1x3315)"/><circle cx="-21.56274139337245" cy="471.9628162257373" r="18.0" fill="#2060ff" filter="url(#glowr1x3315)" opacity=".88"/><circle cx="-21.324692918416144" cy="470.762285907194" r="7.0" fill="#ffffff"/><rect x="79.24746791714799" y="499.8175778498873" width="44.0" height="42.0" rx="3" fill="url(#gunmetalr1x3315)" stroke="#2060ff" stroke-width="1" filter="url(#wmr1x3315)"/><rect x="37.0082410682365" y="422.4142274928279" width="90.0" height="10.0" rx="2" fill="rgba(255,255,255,.22)"/><line x1="63.626386336460676" y1="487.4400859539397" x2="62.35317799983543" y2="519.0422968624159" stroke="#2060ff" stroke-opacity=".5" stroke-width="1.2"/><line x1="77.82915089767423" y1="484.7200932029634" x2="78.90560023313385" y2="518.5212245906703" stroke="#2060ff" stroke-opacity=".5" stroke-width="1.2"/><line x1="94.9894070197269" y1="485.1943694023415" x2="93.47409787815062" y2="520.197750319913" stroke="#2060ff" stroke-opacity=".5" stroke-width="1.2"/></g><rect x="450.380040041171" y="557.3118076184765" width="100.0"  height="56.0" fill="#003ccc" stroke="#2060ff" stroke-width="2.2" filter="url(#skr1x3315)"/><rect x="425.0320448203944" y="575.9325138264336" width="152.0" height="26.0" fill="url(#bevelr1x3315)" fill-opacity=".65" stroke="#2060ff" stroke-width="1.2" filter="url(#skr1x3315)"/><polygon points="307.4,379.7 348.7,293.3 500.3,277.5 649.1,294.6 693.3,380.7 669.6,502.7 498.4,564.6 330.6,504.3" fill="url(#suitr1x3315)" stroke="#2060ff" stroke-width="2.8" filter="url(#skr1x3315) url(#metalr1x3315)"/><polygon points="309.5,379.0 348.8,295.1 501.8,279.1 650.3,295.3 693.7,379.4 668.5,504.4 501.7,563.5 329.2,503.4" fill="url(#carbonr1x3315)"/><polygon points="381.8,301.3 500.5,286.8 620.0,302.4 606.9,379.1 391.3,379.6" fill="url(#suitHir1x3315)"/><polygon points="380.2,382.0 364.8,426.0 432.0,502.4 499.0,528.1 568.1,503.8 633.4,424.8 620.1,380.1" fill="#140900" fill-opacity=".88" stroke="#2060ff" stroke-width="1.8" filter="url(#skr1x3315)"/><polygon points="382.6,410.7 478.2,411.5 485.9,439.3 388.1,439.5" fill="#2060ff" filter="url(#glowr1x3315)"/><polygon points="521.3,411.1 620.3,410.8 613.0,441.6 513.7,441.5" fill="#2060ff" filter="url(#glowr1x3315)"/><ellipse cx="430.9" cy="425.7" rx="38.4"  ry="8.2" fill="#ffffff" opacity=".88"/><ellipse cx="569.1" cy="425.7" rx="38.4"  ry="8.2" fill="#ffffff" opacity=".88"/><line x1="486.022402494736" y1="413.09644646393133" x2="517.1542925995216" y2="413.0898490126244" stroke="#2060ff" stroke-opacity=".52" stroke-width="2"/><line x1="483.1031917604245" y1="438.5350002111867" x2="515.5512893902511" y2="436.8788685123436" stroke="#2060ff" stroke-opacity=".52" stroke-width="2"/><line x1="499.2031473190524" y1="455.96345102991904" x2="500.7481911925599" y2="481.32762086372827" stroke="#2060ff" stroke-opacity=".58" stroke-width="2.2" filter="url(#skr1x3315)"/><line x1="454.584842150081" y1="492.9705158644355" x2="452.87014234622944" y2="521.1375214560888" stroke="#2060ff" stroke-opacity=".52" stroke-width="1.5" filter="url(#skr1x3315)"/><line x1="476.87575755896046" y1="492.43030634149903" x2="477.5538881461508" y2="518.604936009366" stroke="#2060ff" stroke-opacity=".52" stroke-width="1.5" filter="url(#skr1x3315)"/><line x1="499.9402305067517" y1="490.48606797764074" x2="498.54616689709945" y2="520.5814873433671" stroke="#2060ff" stroke-opacity=".52" stroke-width="1.5" filter="url(#skr1x3315)"/><line x1="521.847914536912" y1="492.7605255396105" x2="523.5596926029399" y2="519.7861608267762" stroke="#2060ff" stroke-opacity=".52" stroke-width="1.5" filter="url(#skr1x3315)"/><line x1="546.8805167461" y1="492.67821654295545" x2="545.1392149650678" y2="520.6899074268528" stroke="#2060ff" stroke-opacity=".52" stroke-width="1.5" filter="url(#skr1x3315)"/><polygon points="434.5,503.0 568.3,503.0 554.8,555.4 446.4,557.8" fill="#003ccc" fill-opacity=".72" stroke="#2060ff" stroke-width="1.3" filter="url(#skr1x3315)"/><polygon points="315.2,305.9 361.6,305.4 339.9,195.7" fill="url(#bevelr1x3315)" fill-opacity=".95" stroke="#2060ff" stroke-width="1.6" filter="url(#skr1x3315) url(#glowr1x3315)"/><polygon points="396.6,303.7 441.2,305.5 417.8,209.5" fill="url(#bevelr1x3315)" fill-opacity=".95" stroke="#2060ff" stroke-width="1.6" filter="url(#skr1x3315) url(#glowr1x3315)"/><polygon points="476.1,303.2 523.8,305.8 500.7,223.0" fill="url(#bevelr1x3315)" fill-opacity=".95" stroke="#2060ff" stroke-width="1.6" filter="url(#skr1x3315) url(#glowr1x3315)"/><polygon points="558.6,306.5 603.0,304.0 579.6,208.0" fill="url(#bevelr1x3315)" fill-opacity=".95" stroke="#2060ff" stroke-width="1.6" filter="url(#skr1x3315) url(#glowr1x3315)"/><polygon points="639.6,304.5 685.4,303.8 662.1,194.2" fill="url(#bevelr1x3315)" fill-opacity=".95" stroke="#2060ff" stroke-width="1.6" filter="url(#skr1x3315) url(#glowr1x3315)"/><text x="30.0"  y="975.0" font-family="monospace" font-weight="bold" font-size="22.0" fill="rgba(255,255,255,.22)">#0001</text><text x="500.0"   y="975.0" text-anchor="middle" font-family="monospace" font-weight="bold" font-size="22.0" fill="#2060ff" fill-opacity=".48">COBALT RANGER</text><text x="970.0" y="975.0" text-anchor="end"    font-family="monospace" font-weight="bold" font-size="22.0" fill="#2060ff" fill-opacity=".32">MECH RANGERS</text></svg>