<svg xmlns="http://www.w3.org/2000/svg" viewBox="0 0 1000 1000" width="1000" height="1000" shape-rendering="geometricPrecision"><defs>

  <!-- Scene gradients -->
  <radialGradient id="bgr1x3349" cx="50%" cy="42%" r="72%">
    <stop offset="0%"   stop-color="#1e0a2e"/>
    <stop offset="100%" stop-color="#0a0520"/>
  </radialGradient>
  <linearGradient id="suitr1x3349" x1="8%" y1="0%" x2="92%" y2="100%">
    <stop offset="0%"   stop-color="#ff44aa" stop-opacity=".95"/>
    <stop offset="45%"  stop-color="#880050"/>
    <stop offset="100%" stop-color="#0a0520"/>
  </linearGradient>
  <linearGradient id="suitHir1x3349" x1="0%" y1="0%" x2="0%" y2="100%">
    <stop offset="0%"   stop-color="rgba(255,255,255,.28)"/>
    <stop offset="60%"  stop-color="rgba(255,255,255,.04)"/>
    <stop offset="100%" stop-color="rgba(255,255,255,0)"/>
  </linearGradient>
  <!-- Bevel: bright top, dark bottom for armour panels -->
  <linearGradient id="bevelr1x3349" x1="0%" y1="0%" x2="0%" y2="100%">
    <stop offset="0%"   stop-color="rgba(255,255,255,.55)"/>
    <stop offset="30%"  stop-color="#ff44aa"/>
    <stop offset="70%"  stop-color="#880050"/>
    <stop offset="100%" stop-color="rgba(0,0,0,.5)"/>
  </linearGradient>

  <!-- Weapon: cold steel blade sweep -->
  <linearGradient id="blader1x3349" x1="0%" y1="0%" x2="100%" y2="0%">
    <stop offset="0%"   stop-color="#0e0e20"/>
    <stop offset="16%"  stop-color="#3e3e58"/>
    <stop offset="34%"  stop-color="#c8c8e0"/>
    <stop offset="50%"  stop-color="#f5f5ff"/>
    <stop offset="66%"  stop-color="#b8b8d0"/>
    <stop offset="84%"  stop-color="#2e2e48"/>
    <stop offset="100%" stop-color="#08080e"/>
  </linearGradient>
  <!-- Blade tip brightening -->
  <linearGradient id="bladeTipr1x3349" x1="0%" y1="100%" x2="0%" y2="0%">
    <stop offset="0%"   stop-color="rgba(255,255,255,0)"/>
    <stop offset="55%"  stop-color="rgba(255,255,255,.1)"/>
    <stop offset="100%" stop-color="rgba(255,255,255,.55)"/>
  </linearGradient>
  <!-- Gunmetal anodised — blaster body -->
  <linearGradient id="gunmetalr1x3349" x1="0%" y1="0%" x2="0%" y2="100%">
    <stop offset="0%"   stop-color="#46465e"/>
    <stop offset="18%"  stop-color="#828296"/>
    <stop offset="42%"  stop-color="#26263a"/>
    <stop offset="72%"  stop-color="#16162a"/>
    <stop offset="100%" stop-color="#0c0c18"/>
  </linearGradient>
  <!-- Brushed steel tube — barrel/rod -->
  <linearGradient id="barrelr1x3349" x1="0%" y1="0%" x2="100%" y2="0%">
    <stop offset="0%"   stop-color="#0a0a14"/>
    <stop offset="24%"  stop-color="#585875"/>
    <stop offset="50%"  stop-color="#a8a8c8"/>
    <stop offset="76%"  stop-color="#383852"/>
    <stop offset="100%" stop-color="#0a0a14"/>
  </linearGradient>
  <!-- Chrome rod — lance shaft -->
  <linearGradient id="chromer1x3349" x1="0%" y1="0%" x2="100%" y2="0%">
    <stop offset="0%"   stop-color="#0c0c18"/>
    <stop offset="20%"  stop-color="#686888"/>
    <stop offset="44%"  stop-color="#e0e0f0"/>
    <stop offset="56%"  stop-color="#c0c0d8"/>
    <stop offset="80%"  stop-color="#28283e"/>
    <stop offset="100%" stop-color="#0c0c18"/>
  </linearGradient>
  <!-- Titanium plate — shield face -->
  <linearGradient id="titaniumr1x3349" x1="0%" y1="0%" x2="100%" y2="100%">
    <stop offset="0%"   stop-color="#585878"/>
    <stop offset="28%"  stop-color="#ff44aa" stop-opacity=".88"/>
    <stop offset="55%"  stop-color="#880050"/>
    <stop offset="80%"  stop-color="#181828"/>
    <stop offset="100%" stop-color="#0a0a18"/>
  </linearGradient>
  <!-- Artillery black-chrome — cannon body -->
  <linearGradient id="artilleryr1x3349" x1="0%" y1="0%" x2="0%" y2="100%">
    <stop offset="0%"   stop-color="#383850"/>
    <stop offset="14%"  stop-color="#78789a"/>
    <stop offset="36%"  stop-color="#202034"/>
    <stop offset="65%"  stop-color="#14141e"/>
    <stop offset="100%" stop-color="#0a0a12"/>
  </linearGradient>
  <!-- Energy orb — staff -->
  <radialGradient id="orbr1x3349" cx="35%" cy="35%" r="65%">
    <stop offset="0%"   stop-color="rgba(255,255,255,.9)"/>
    <stop offset="30%"  stop-color="#ff44aa"/>
    <stop offset="68%"  stop-color="#880050"/>
    <stop offset="100%" stop-color="rgba(0,0,0,.6)"/>
  </radialGradient>
  <!-- Knuckle plate chrome -->
  <linearGradient id="knuckler1x3349" x1="0%" y1="0%" x2="0%" y2="100%">
    <stop offset="0%"   stop-color="#888aaa"/>
    <stop offset="32%"  stop-color="#ff44aa" stop-opacity=".8"/>
    <stop offset="62%"  stop-color="#1a1a2c"/>
    <stop offset="100%" stop-color="#0a0a14"/>
  </linearGradient>

  <!-- Carbon fibre weave texture overlay -->
  <pattern id="carbonr1x3349" width="6" height="6" patternUnits="userSpaceOnUse">
    <rect width="6" height="6" fill="rgba(0,0,0,.08)"/>
    <rect x="0" y="0" width="3" height="3" fill="rgba(255,255,255,.022)"/>
    <rect x="3" y="3" width="3" height="3" fill="rgba(255,255,255,.022)"/>
    <line x1="0" y1="0" x2="3" y2="3" stroke="rgba(255,255,255,.038)" stroke-width=".5"/>
    <line x1="3" y1="0" x2="6" y2="3" stroke="rgba(0,0,0,.055)"       stroke-width=".5"/>
    <line x1="0" y1="3" x2="3" y2="6" stroke="rgba(0,0,0,.055)"       stroke-width=".5"/>
    <line x1="3" y1="3" x2="6" y2="6" stroke="rgba(255,255,255,.038)" stroke-width=".5"/>
  </pattern>

  <!-- Specular metal sheen on armour panels -->
  <filter id="metalr1x3349" x="-5%" y="-5%" width="110%" height="110%">
    <feSpecularLighting surfaceScale="4" specularConstant="1.8"
        specularExponent="42" lighting-color="#ffffff" result="spec">
      <feDistantLight elevation="52" azimuth="38"/>
    </feSpecularLighting>
    <feComposite in="spec" in2="SourceGraphic" operator="in" result="sm"/>
    <feComposite in="SourceGraphic" in2="sm" operator="arithmetic" k1="0" k2="1" k3="0.55" k4="0"/>
  </filter>

  <!-- Sharper specular for weapons — heavier glare -->
  <filter id="wmr1x3349" x="-8%" y="-8%" width="116%" height="116%">
    <feSpecularLighting surfaceScale="6" specularConstant="2.4"
        specularExponent="65" lighting-color="#ffffff" result="spec">
      <feDistantLight elevation="44" azimuth="28"/>
    </feSpecularLighting>
    <feComposite in="spec" in2="SourceGraphic" operator="in" result="sm"/>
    <feComposite in="SourceGraphic" in2="sm" operator="arithmetic" k1="0" k2="1" k3="0.78" k4="0"/>
  </filter>

  <!-- Sketch wobble -->
  <filter id="skr1x3349" x="-8%" y="-8%" width="116%" height="116%">
    <feTurbulence type="fractalNoise" baseFrequency="0.038"
        numOctaves="3" seed="53" result="noise"/>
    <feDisplacementMap in="SourceGraphic" in2="noise" scale="2.6"
        xChannelSelector="R" yChannelSelector="G" result="w"/>
    <feComposite in="w" in2="SourceGraphic" operator="atop"/>
  </filter>

  <!-- Glow: sharp accent -->
  <filter id="glowr1x3349" x="-20%" y="-20%" width="140%" height="140%">
    <feGaussianBlur stdDeviation="3.5" result="b"/>
    <feColorMatrix in="b" type="matrix"
        values="0 0 0 0 1  0 0 0 0 1  0 0 0 0 1  0 0 0 1.8 0" result="boost"/>
    <feMerge><feMergeNode in="boost"/><feMergeNode in="SourceGraphic"/></feMerge>
  </filter>

  <!-- Bloom: wide soft -->
  <filter id="bloomr1x3349" x="-40%" y="-40%" width="180%" height="180%">
    <feGaussianBlur stdDeviation="11" result="b"/>
    <feMerge><feMergeNode in="b"/><feMergeNode in="SourceGraphic"/></feMerge>
  </filter>

  </defs><rect width="1000" height="1000" fill="url(#bgr1x3349)"/><ellipse cx="500.0" cy="892.0" rx="350.0" ry="65.0" fill="rgba(0,0,0,.7)" filter="url(#bloomr1x3349)"/><ellipse cx="500.0" cy="889.0" rx="220.0" ry="34.0" fill="rgba(0,0,0,.45)"/><ellipse cx="500.0" cy="520.0" rx="320.0" ry="480.0" fill="#ffffff" fill-opacity=".042" filter="url(#bloomr1x3349)"/><circle cx="683.6" cy="608.1" r="0.8" fill="#ffffff" fill-opacity="0.49" filter="url(#glowr1x3349)"/><circle cx="407.0" cy="279.0" r="2.2" fill="#ffffff" fill-opacity="0.84" filter="url(#glowr1x3349)"/><circle cx="406.0" cy="719.3" r="3.4" fill="#ffffff" fill-opacity="0.67" filter="url(#glowr1x3349)"/><circle cx="324.7" cy="725.2" r="4.1" fill="#ffffff" fill-opacity="0.39" filter="url(#glowr1x3349)"/><circle cx="623.1" cy="527.9" r="1.2" fill="#ffffff" fill-opacity="0.54" filter="url(#glowr1x3349)"/><circle cx="616.8" cy="715.7" r="3.6" fill="#ffffff" fill-opacity="0.69" filter="url(#glowr1x3349)"/><circle cx="674.9" cy="506.1" r="2.8" fill="#ffffff" fill-opacity="0.82" filter="url(#glowr1x3349)"/><circle cx="728.4" cy="516.3" r="3.4" fill="#ffffff" fill-opacity="0.76" filter="url(#glowr1x3349)"/><circle cx="262.9" cy="552.9" r="1.8" fill="#ffffff" fill-opacity="0.77" filter="url(#glowr1x3349)"/><circle cx="610.2" cy="594.5" r="2.7" fill="#ffffff" fill-opacity="0.84" filter="url(#glowr1x3349)"/><circle cx="320.8" cy="788.2" r="3.4" fill="#ffffff" fill-opacity="0.41" filter="url(#glowr1x3349)"/><circle cx="637.0" cy="299.7" r="3.3" fill="#ffffff" fill-opacity="0.43" filter="url(#glowr1x3349)"/><circle cx="472.0" cy="654.3" r="2.6" fill="#ffffff" fill-opacity="0.52" filter="url(#glowr1x3349)"/><circle cx="642.3" cy="318.4" r="2.5" fill="#ffffff" fill-opacity="0.58" filter="url(#glowr1x3349)"/><polygon points="398.8,662.4 490.6,664.3 482.4,875.7 388.4,878.6" fill="url(#suitr1x3349)" stroke="#ff44aa" stroke-width="2.2" filter="url(#skr1x3349) url(#metalr1x3349)"/><polygon points="400.3,661.1 490.9,663.6 480.0,877.2 385.9,879.1" fill="url(#carbonr1x3349)"/><polygon points="391.5,722.0 492.8,724.2 484.2,788.9 385.1,789.5" fill="url(#bevelr1x3349)" fill-opacity=".5" stroke="#ff44aa" stroke-width="1.4" filter="url(#skr1x3349)"/><polygon points="511.9,661.2 602.0,661.9 612.7,877.6 520.7,877.3" fill="url(#suitr1x3349)" stroke="#ff44aa" stroke-width="2.2" filter="url(#skr1x3349) url(#metalr1x3349)"/><polygon points="508.9,661.2 600.0,662.2 613.2,877.6 518.6,878.7" fill="url(#carbonr1x3349)"/><polygon points="508.2,723.0 609.1,723.9 614.7,786.6 514.9,786.8" fill="url(#bevelr1x3349)" fill-opacity=".5" stroke="#ff44aa" stroke-width="1.4" filter="url(#skr1x3349)"/><rect x="393.1" y="839.0" width="100.3" height="24.7" fill="url(#bevelr1x3349)" stroke="#ff44aa" stroke-width="1" filter="url(#skr1x3349)"/><rect x="508.2"  y="840.2" width="100.3" height="24.7" fill="url(#bevelr1x3349)" stroke="#ff44aa" stroke-width="1" filter="url(#skr1x3349)"/><polygon points="370.4,877.5 497.5,877.3 502.4,922.0 364.4,920.5" fill="#880050" stroke="#ff44aa" stroke-width="2" filter="url(#skr1x3349)"/><polygon points="504.9,878.9 630.0,876.5 636.2,921.3 495.4,922.4" fill="#880050" stroke="#ff44aa" stroke-width="2" filter="url(#skr1x3349)"/><polygon points="305.6,632.9 695.4,634.1 637.7,681.3 363.9,680.5" fill="#ff44aa" fill-opacity=".52" stroke="#ff44aa" stroke-width="2" filter="url(#skr1x3349)"/><rect x="462.9" y="639.0" width="72.0" height="42.0" fill="url(#bevelr1x3349)" stroke="#ff44aa" stroke-width="1.4" filter="url(#glowr1x3349)"/><rect x="484.9" y="641.6" width="28.0" height="22.0" rx="1" fill="rgba(255,255,255,.48)"/><polygon points="153.5,465.6 235.9,468.2 257.0,733.3 128.6,733.8" fill="url(#suitr1x3349)" stroke="#ff44aa" stroke-width="2.2" filter="url(#skr1x3349) url(#metalr1x3349)"/><polygon points="174.1,433.2 253.2,432.1 241.4,511.1 161.1,509.9" fill="url(#bevelr1x3349)" fill-opacity=".72" stroke="#ff44aa" stroke-width="2.2" filter="url(#skr1x3349)"/><polygon points="160.8,622.6 243.4,621.9 239.0,661.6 165.8,659.6" fill="#ff44aa" fill-opacity=".42" stroke="#ff44aa" stroke-width="1" filter="url(#skr1x3349)"/><polygon points="765.5,464.9 847.7,467.2 871.1,734.0 743.6,736.1" fill="url(#suitr1x3349)" stroke="#ff44aa" stroke-width="2.2" filter="url(#skr1x3349) url(#metalr1x3349)"/><polygon points="748.2,431.2 825.4,431.1 840.1,511.9 756.1,510.6" fill="url(#bevelr1x3349)" fill-opacity=".72" stroke="#ff44aa" stroke-width="2.2" filter="url(#skr1x3349)"/><polygon points="755.0,621.3 838.0,622.2 834.6,660.2 762.4,662.7" fill="#ff44aa" fill-opacity=".42" stroke="#ff44aa" stroke-width="1" filter="url(#skr1x3349)"/><rect x="118.9"  y="698.3" width="135.3" height="85.0" rx="4" fill="url(#bevelr1x3349)" stroke="#ff44aa" stroke-width="1.8" filter="url(#skr1x3349)"/><rect x="749.2"   y="699.5" width="135.3" height="85.0" rx="4" fill="url(#bevelr1x3349)" stroke="#ff44aa" stroke-width="1.8" filter="url(#skr1x3349)"/><line x1="148.6" y1="702.2" x2="148.8" y2="784.3" stroke="#ff44aa" stroke-opacity=".38" stroke-width="1"/><line x1="779.8" y1="702.2" x2="779.5" y2="785.2" stroke="#ff44aa" stroke-opacity=".38" stroke-width="1"/><line x1="181.1" y1="703.2" x2="183.0" y2="784.6" stroke="#ff44aa" stroke-opacity=".38" stroke-width="1"/><line x1="809.2" y1="702.7" x2="812.4" y2="782.2" stroke="#ff44aa" stroke-opacity=".38" stroke-width="1"/><line x1="214.9" y1="700.2" x2="216.5" y2="783.3" stroke="#ff44aa" stroke-opacity=".38" stroke-width="1"/><line x1="844.5" y1="702.8" x2="844.9" y2="785.3" stroke="#ff44aa" stroke-opacity=".38" stroke-width="1"/><polygon points="234.2,417.3 766.7,419.1 721.8,661.6 276.7,664.1" fill="url(#suitr1x3349)" stroke="#ff44aa" stroke-width="2.6" filter="url(#skr1x3349) url(#metalr1x3349)"/><polygon points="236.8,415.8 763.5,418.8 724.0,660.9 278.5,663.2" fill="url(#carbonr1x3349)"/><polygon points="367.1,416.8 630.9,419.1 612.4,514.4 389.2,514.6" fill="url(#suitHir1x3349)"/><line x1="362.0" y1="469.9" x2="636.0" y2="470.7" stroke="#ff44aa" stroke-opacity=".52" stroke-width="1.3" filter="url(#skr1x3349)"/><line x1="400.5" y1="550.6" x2="602.4" y2="550.4" stroke="#ff44aa" stroke-opacity=".52" stroke-width="1.3" filter="url(#skr1x3349)"/><line x1="265.1" y1="490.7" x2="319.6" y2="491.0" stroke="#ff44aa" stroke-opacity=".62" stroke-width="1.8"/><line x1="679.8" y1="489.5" x2="733.7" y2="491.0" stroke="#ff44aa" stroke-opacity=".62" stroke-width="1.8"/><line x1="268.0" y1="524.2" x2="318.4" y2="523.6" stroke="#ff44aa" stroke-opacity=".62" stroke-width="1.8"/><line x1="681.6" y1="524.6" x2="732.6" y2="523.9" stroke="#ff44aa" stroke-opacity=".62" stroke-width="1.8"/><line x1="268.3" y1="554.3" x2="320.2" y2="554.6" stroke="#ff44aa" stroke-opacity=".62" stroke-width="1.8"/><line x1="681.7" y1="556.0" x2="733.2" y2="553.1" stroke="#ff44aa" stroke-opacity=".62" stroke-width="1.8"/><line x1="268.0" y1="585.9" x2="321.2" y2="586.7" stroke="#ff44aa" stroke-opacity=".62" stroke-width="1.8"/><line x1="679.7" y1="585.7" x2="732.4" y2="585.8" stroke="#ff44aa" stroke-opacity=".62" stroke-width="1.8"/><g filter="url(#glowr1x3349)"><polygon points="462.5,528.1 461.6,498.6 480.7,468.0 499.2,497.0 517.5,467.4 536.1,496.5 538.5,528.0" fill="#ff44aa" stroke="#0a0520" stroke-width="1.4" filter="url(#skr1x3349)"/><polygon points="461.0,529.0 463.5,496.4 482.9,468.3 499.3,499.5 516.9,466.9 537.9,496.8 538.5,528.6" fill="url(#suitHir1x3349)" opacity=".38"/></g><g><line x1="896.303664048817" y1="792.5272597879172" x2="913.7961613338068" y2="109.97900689113882" stroke="url(#chromer1x3349)" stroke-width="28.0" stroke-linecap="round" filter="url(#wmr1x3349)"/><line x1="902.0460720802286" y1="769.7023477642797" x2="912.6114566802606" y2="132.5447923019528" stroke="rgba(255,255,255,.42)" stroke-width="5.0" stroke-linecap="round"/><polygon points="871.0,152.8 935.2,151.2 917.6,-10.3" fill="url(#blader1x3349)" stroke="#ff44aa" stroke-width="1.8" filter="url(#wmr1x3349)"/><line x1="935.8" y1="151.4" x2="915.8" y2="-8.6" stroke="rgba(255,255,255,.72)" stroke-width="1.6"/><rect x="880.034847700838" y="421.80412425138053" width="40.0" height="20.0" fill="url(#bevelr1x3349)" stroke="#ff44aa" stroke-width="1" filter="url(#wmr1x3349)"/><rect x="880.6157931994275" y="511.577585011255" width="40.0" height="20.0" fill="url(#bevelr1x3349)" stroke="#ff44aa" stroke-width="1" filter="url(#wmr1x3349)"/><rect x="878.3190762119926" y="602.796522103995" width="40.0" height="20.0" fill="url(#bevelr1x3349)" stroke="#ff44aa" stroke-width="1" filter="url(#wmr1x3349)"/><rect x="880.4909715486318" y="692.0392088627442" width="40.0" height="20.0" fill="url(#bevelr1x3349)" stroke="#ff44aa" stroke-width="1" filter="url(#wmr1x3349)"/><ellipse cx="897.0669306055271" cy="791.2069164994173" rx="22.0" ry="15.0" fill="url(#bevelr1x3349)" stroke="#ff44aa" stroke-width="1" filter="url(#wmr1x3349)"/></g><rect x="450.1827075074427" y="557.0565769075416" width="100.0"  height="56.0" fill="#880050" stroke="#ff44aa" stroke-width="2.2" filter="url(#skr1x3349)"/><rect x="422.9713343815878" y="573.5534706728533" width="152.0" height="26.0" fill="url(#bevelr1x3349)" fill-opacity=".65" stroke="#ff44aa" stroke-width="1.2" filter="url(#skr1x3349)"/><polygon points="307.4,380.4 350.5,294.6 501.5,278.4 648.6,294.2 690.5,379.2 667.7,503.7 499.5,566.1 331.3,504.6" fill="url(#suitr1x3349)" stroke="#ff44aa" stroke-width="2.8" filter="url(#skr1x3349) url(#metalr1x3349)"/><polygon points="306.3,382.0 351.0,293.2 498.8,278.2 648.1,293.1 691.0,381.2 667.3,505.4 501.2,564.2 331.5,502.8" fill="url(#carbonr1x3349)"/><polygon points="379.6,301.7 501.0,285.6 618.6,302.1 605.7,379.1 391.2,379.5" fill="url(#suitHir1x3349)"/><polygon points="381.3,380.7 364.1,426.8 432.7,504.0 501.2,526.9 568.0,504.6 635.7,425.0 620.8,379.0" fill="#0a0520" fill-opacity=".88" stroke="#ff44aa" stroke-width="1.8" filter="url(#skr1x3349)"/><polygon points="380.2,410.2 476.4,410.1 485.0,440.8 387.3,439.2" fill="#ff44aa" filter="url(#glowr1x3349)"/><polygon points="522.5,412.0 619.5,411.6 611.2,440.0 513.6,440.6" fill="#ff44aa" filter="url(#glowr1x3349)"/><ellipse cx="430.9" cy="425.7" rx="38.4"  ry="8.2" fill="#ffffff" opacity=".88"/><ellipse cx="569.1" cy="425.7" rx="38.4"  ry="8.2" fill="#ffffff" opacity=".88"/><line x1="484.78184417799116" y1="414.4378741792403" x2="517.1185243264214" y2="411.92822120049965" stroke="#ff44aa" stroke-opacity=".52" stroke-width="2"/><line x1="483.8755790875852" y1="437.67351962691174" x2="513.7571826703288" y2="436.57867459561675" stroke="#ff44aa" stroke-opacity=".52" stroke-width="2"/><line x1="501.0222698993981" y1="454.53774084746834" x2="498.7199383947067" y2="482.6483756802045" stroke="#ff44aa" stroke-opacity=".58" stroke-width="2.2" filter="url(#skr1x3349)"/><line x1="453.3303309250437" y1="489.99722976544865" x2="452.5114536921308" y2="519.7595935548655" stroke="#ff44aa" stroke-opacity=".52" stroke-width="1.5" filter="url(#skr1x3349)"/><line x1="476.5102610828727" y1="493.0223906216211" x2="476.84832154134284" y2="519.8578908566385" stroke="#ff44aa" stroke-opacity=".52" stroke-width="1.5" filter="url(#skr1x3349)"/><line x1="500.8370642453432" y1="490.0983213045634" x2="500.30773342186586" y2="518.60523199616" stroke="#ff44aa" stroke-opacity=".52" stroke-width="1.5" filter="url(#skr1x3349)"/><line x1="523.7379069869964" y1="491.93270901367066" x2="523.1303302785009" y2="519.5589217404835" stroke="#ff44aa" stroke-opacity=".52" stroke-width="1.5" filter="url(#skr1x3349)"/><line x1="546.3179381774925" y1="492.6156982934102" x2="546.592090474926" y2="518.7789702201262" stroke="#ff44aa" stroke-opacity=".52" stroke-width="1.5" filter="url(#skr1x3349)"/><polygon points="431.5,502.8 565.5,503.1 553.0,555.6 447.6,555.7" fill="#880050" fill-opacity=".72" stroke="#ff44aa" stroke-width="1.3" filter="url(#skr1x3349)"/><text x="30.0"  y="975.0" font-family="monospace" font-weight="bold" font-size="22.0" fill="rgba(255,255,255,.22)">#0001</text><text x="500.0"   y="975.0" text-anchor="middle" font-family="monospace" font-weight="bold" font-size="22.0" fill="#ff44aa" fill-opacity=".48">SAKURA RANGER</text><text x="970.0" y="975.0" text-anchor="end"    font-family="monospace" font-weight="bold" font-size="22.0" fill="#ff44aa" fill-opacity=".32">MECH RANGERS</text></svg>