<svg xmlns="http://www.w3.org/2000/svg" viewBox="0 0 1000 1000" width="1000" height="1000" shape-rendering="geometricPrecision"><defs>

  <!-- Scene gradients -->
  <radialGradient id="bgr1x3360" cx="50%" cy="42%" r="72%">
    <stop offset="0%"   stop-color="#1e0d00"/>
    <stop offset="100%" stop-color="#140900"/>
  </radialGradient>
  <linearGradient id="suitr1x3360" x1="8%" y1="0%" x2="92%" y2="100%">
    <stop offset="0%"   stop-color="#ff44aa" stop-opacity=".95"/>
    <stop offset="45%"  stop-color="#880050"/>
    <stop offset="100%" stop-color="#140900"/>
  </linearGradient>
  <linearGradient id="suitHir1x3360" x1="0%" y1="0%" x2="0%" y2="100%">
    <stop offset="0%"   stop-color="rgba(255,255,255,.28)"/>
    <stop offset="60%"  stop-color="rgba(255,255,255,.04)"/>
    <stop offset="100%" stop-color="rgba(255,255,255,0)"/>
  </linearGradient>
  <!-- Bevel: bright top, dark bottom for armour panels -->
  <linearGradient id="bevelr1x3360" x1="0%" y1="0%" x2="0%" y2="100%">
    <stop offset="0%"   stop-color="rgba(255,255,255,.55)"/>
    <stop offset="30%"  stop-color="#ff44aa"/>
    <stop offset="70%"  stop-color="#880050"/>
    <stop offset="100%" stop-color="rgba(0,0,0,.5)"/>
  </linearGradient>

  <!-- Weapon: cold steel blade sweep -->
  <linearGradient id="blader1x3360" x1="0%" y1="0%" x2="100%" y2="0%">
    <stop offset="0%"   stop-color="#0e0e20"/>
    <stop offset="16%"  stop-color="#3e3e58"/>
    <stop offset="34%"  stop-color="#c8c8e0"/>
    <stop offset="50%"  stop-color="#f5f5ff"/>
    <stop offset="66%"  stop-color="#b8b8d0"/>
    <stop offset="84%"  stop-color="#2e2e48"/>
    <stop offset="100%" stop-color="#08080e"/>
  </linearGradient>
  <!-- Blade tip brightening -->
  <linearGradient id="bladeTipr1x3360" x1="0%" y1="100%" x2="0%" y2="0%">
    <stop offset="0%"   stop-color="rgba(255,255,255,0)"/>
    <stop offset="55%"  stop-color="rgba(255,255,255,.1)"/>
    <stop offset="100%" stop-color="rgba(255,255,255,.55)"/>
  </linearGradient>
  <!-- Gunmetal anodised — blaster body -->
  <linearGradient id="gunmetalr1x3360" x1="0%" y1="0%" x2="0%" y2="100%">
    <stop offset="0%"   stop-color="#46465e"/>
    <stop offset="18%"  stop-color="#828296"/>
    <stop offset="42%"  stop-color="#26263a"/>
    <stop offset="72%"  stop-color="#16162a"/>
    <stop offset="100%" stop-color="#0c0c18"/>
  </linearGradient>
  <!-- Brushed steel tube — barrel/rod -->
  <linearGradient id="barrelr1x3360" x1="0%" y1="0%" x2="100%" y2="0%">
    <stop offset="0%"   stop-color="#0a0a14"/>
    <stop offset="24%"  stop-color="#585875"/>
    <stop offset="50%"  stop-color="#a8a8c8"/>
    <stop offset="76%"  stop-color="#383852"/>
    <stop offset="100%" stop-color="#0a0a14"/>
  </linearGradient>
  <!-- Chrome rod — lance shaft -->
  <linearGradient id="chromer1x3360" x1="0%" y1="0%" x2="100%" y2="0%">
    <stop offset="0%"   stop-color="#0c0c18"/>
    <stop offset="20%"  stop-color="#686888"/>
    <stop offset="44%"  stop-color="#e0e0f0"/>
    <stop offset="56%"  stop-color="#c0c0d8"/>
    <stop offset="80%"  stop-color="#28283e"/>
    <stop offset="100%" stop-color="#0c0c18"/>
  </linearGradient>
  <!-- Titanium plate — shield face -->
  <linearGradient id="titaniumr1x3360" x1="0%" y1="0%" x2="100%" y2="100%">
    <stop offset="0%"   stop-color="#585878"/>
    <stop offset="28%"  stop-color="#ff44aa" stop-opacity=".88"/>
    <stop offset="55%"  stop-color="#880050"/>
    <stop offset="80%"  stop-color="#181828"/>
    <stop offset="100%" stop-color="#0a0a18"/>
  </linearGradient>
  <!-- Artillery black-chrome — cannon body -->
  <linearGradient id="artilleryr1x3360" x1="0%" y1="0%" x2="0%" y2="100%">
    <stop offset="0%"   stop-color="#383850"/>
    <stop offset="14%"  stop-color="#78789a"/>
    <stop offset="36%"  stop-color="#202034"/>
    <stop offset="65%"  stop-color="#14141e"/>
    <stop offset="100%" stop-color="#0a0a12"/>
  </linearGradient>
  <!-- Energy orb — staff -->
  <radialGradient id="orbr1x3360" cx="35%" cy="35%" r="65%">
    <stop offset="0%"   stop-color="rgba(255,255,255,.9)"/>
    <stop offset="30%"  stop-color="#ff44aa"/>
    <stop offset="68%"  stop-color="#880050"/>
    <stop offset="100%" stop-color="rgba(0,0,0,.6)"/>
  </radialGradient>
  <!-- Knuckle plate chrome -->
  <linearGradient id="knuckler1x3360" x1="0%" y1="0%" x2="0%" y2="100%">
    <stop offset="0%"   stop-color="#888aaa"/>
    <stop offset="32%"  stop-color="#ff44aa" stop-opacity=".8"/>
    <stop offset="62%"  stop-color="#1a1a2c"/>
    <stop offset="100%" stop-color="#0a0a14"/>
  </linearGradient>

  <!-- Carbon fibre weave texture overlay -->
  <pattern id="carbonr1x3360" width="6" height="6" patternUnits="userSpaceOnUse">
    <rect width="6" height="6" fill="rgba(0,0,0,.08)"/>
    <rect x="0" y="0" width="3" height="3" fill="rgba(255,255,255,.022)"/>
    <rect x="3" y="3" width="3" height="3" fill="rgba(255,255,255,.022)"/>
    <line x1="0" y1="0" x2="3" y2="3" stroke="rgba(255,255,255,.038)" stroke-width=".5"/>
    <line x1="3" y1="0" x2="6" y2="3" stroke="rgba(0,0,0,.055)"       stroke-width=".5"/>
    <line x1="0" y1="3" x2="3" y2="6" stroke="rgba(0,0,0,.055)"       stroke-width=".5"/>
    <line x1="3" y1="3" x2="6" y2="6" stroke="rgba(255,255,255,.038)" stroke-width=".5"/>
  </pattern>

  <!-- Specular metal sheen on armour panels -->
  <filter id="metalr1x3360" x="-5%" y="-5%" width="110%" height="110%">
    <feSpecularLighting surfaceScale="4" specularConstant="1.8"
        specularExponent="42" lighting-color="#ffffff" result="spec">
      <feDistantLight elevation="52" azimuth="38"/>
    </feSpecularLighting>
    <feComposite in="spec" in2="SourceGraphic" operator="in" result="sm"/>
    <feComposite in="SourceGraphic" in2="sm" operator="arithmetic" k1="0" k2="1" k3="0.55" k4="0"/>
  </filter>

  <!-- Sharper specular for weapons — heavier glare -->
  <filter id="wmr1x3360" x="-8%" y="-8%" width="116%" height="116%">
    <feSpecularLighting surfaceScale="6" specularConstant="2.4"
        specularExponent="65" lighting-color="#ffffff" result="spec">
      <feDistantLight elevation="44" azimuth="28"/>
    </feSpecularLighting>
    <feComposite in="spec" in2="SourceGraphic" operator="in" result="sm"/>
    <feComposite in="SourceGraphic" in2="sm" operator="arithmetic" k1="0" k2="1" k3="0.78" k4="0"/>
  </filter>

  <!-- Sketch wobble -->
  <filter id="skr1x3360" x="-8%" y="-8%" width="116%" height="116%">
    <feTurbulence type="fractalNoise" baseFrequency="0.038"
        numOctaves="3" seed="61" result="noise"/>
    <feDisplacementMap in="SourceGraphic" in2="noise" scale="2.6"
        xChannelSelector="R" yChannelSelector="G" result="w"/>
    <feComposite in="w" in2="SourceGraphic" operator="atop"/>
  </filter>

  <!-- Glow: sharp accent -->
  <filter id="glowr1x3360" x="-20%" y="-20%" width="140%" height="140%">
    <feGaussianBlur stdDeviation="3.5" result="b"/>
    <feColorMatrix in="b" type="matrix"
        values="0 0 0 0 1  0 0 0 0 1  0 0 0 0 1  0 0 0 1.8 0" result="boost"/>
    <feMerge><feMergeNode in="boost"/><feMergeNode in="SourceGraphic"/></feMerge>
  </filter>

  <!-- Bloom: wide soft -->
  <filter id="bloomr1x3360" x="-40%" y="-40%" width="180%" height="180%">
    <feGaussianBlur stdDeviation="11" result="b"/>
    <feMerge><feMergeNode in="b"/><feMergeNode in="SourceGraphic"/></feMerge>
  </filter>

  </defs><rect width="1000" height="1000" fill="url(#bgr1x3360)"/><line x1="500" y1="500" x2="1500.0" y2="500.0" stroke="#ff44aa" stroke-opacity=".048" stroke-width="5"/><line x1="500" y1="500" x2="1474.9" y2="722.5" stroke="#ff44aa" stroke-opacity=".048" stroke-width="5"/><line x1="500" y1="500" x2="1401.0" y2="933.9" stroke="#ff44aa" stroke-opacity=".048" stroke-width="5"/><line x1="500" y1="500" x2="1281.8" y2="1123.5" stroke="#ff44aa" stroke-opacity=".048" stroke-width="5"/><line x1="500" y1="500" x2="1123.5" y2="1281.8" stroke="#ff44aa" stroke-opacity=".048" stroke-width="5"/><line x1="500" y1="500" x2="933.9" y2="1401.0" stroke="#ff44aa" stroke-opacity=".048" stroke-width="5"/><line x1="500" y1="500" x2="722.5" y2="1474.9" stroke="#ff44aa" stroke-opacity=".048" stroke-width="5"/><line x1="500" y1="500" x2="500.0" y2="1500.0" stroke="#ff44aa" stroke-opacity=".048" stroke-width="5"/><line x1="500" y1="500" x2="277.5" y2="1474.9" stroke="#ff44aa" stroke-opacity=".048" stroke-width="5"/><line x1="500" y1="500" x2="66.1" y2="1401.0" stroke="#ff44aa" stroke-opacity=".048" stroke-width="5"/><line x1="500" y1="500" x2="-123.5" y2="1281.8" stroke="#ff44aa" stroke-opacity=".048" stroke-width="5"/><line x1="500" y1="500" x2="-281.8" y2="1123.5" stroke="#ff44aa" stroke-opacity=".048" stroke-width="5"/><line x1="500" y1="500" x2="-401.0" y2="933.9" stroke="#ff44aa" stroke-opacity=".048" stroke-width="5"/><line x1="500" y1="500" x2="-474.9" y2="722.5" stroke="#ff44aa" stroke-opacity=".048" stroke-width="5"/><line x1="500" y1="500" x2="-500.0" y2="500.0" stroke="#ff44aa" stroke-opacity=".048" stroke-width="5"/><line x1="500" y1="500" x2="-474.9" y2="277.5" stroke="#ff44aa" stroke-opacity=".048" stroke-width="5"/><line x1="500" y1="500" x2="-401.0" y2="66.1" stroke="#ff44aa" stroke-opacity=".048" stroke-width="5"/><line x1="500" y1="500" x2="-281.8" y2="-123.5" stroke="#ff44aa" stroke-opacity=".048" stroke-width="5"/><line x1="500" y1="500" x2="-123.5" y2="-281.8" stroke="#ff44aa" stroke-opacity=".048" stroke-width="5"/><line x1="500" y1="500" x2="66.1" y2="-401.0" stroke="#ff44aa" stroke-opacity=".048" stroke-width="5"/><line x1="500" y1="500" x2="277.5" y2="-474.9" stroke="#ff44aa" stroke-opacity=".048" stroke-width="5"/><line x1="500" y1="500" x2="500.0" y2="-500.0" stroke="#ff44aa" stroke-opacity=".048" stroke-width="5"/><line x1="500" y1="500" x2="722.5" y2="-474.9" stroke="#ff44aa" stroke-opacity=".048" stroke-width="5"/><line x1="500" y1="500" x2="933.9" y2="-401.0" stroke="#ff44aa" stroke-opacity=".048" stroke-width="5"/><line x1="500" y1="500" x2="1123.5" y2="-281.8" stroke="#ff44aa" stroke-opacity=".048" stroke-width="5"/><line x1="500" y1="500" x2="1281.8" y2="-123.5" stroke="#ff44aa" stroke-opacity=".048" stroke-width="5"/><line x1="500" y1="500" x2="1401.0" y2="66.1" stroke="#ff44aa" stroke-opacity=".048" stroke-width="5"/><line x1="500" y1="500" x2="1474.9" y2="277.5" stroke="#ff44aa" stroke-opacity=".048" stroke-width="5"/><ellipse cx="500.0" cy="892.0" rx="350.0" ry="65.0" fill="rgba(0,0,0,.7)" filter="url(#bloomr1x3360)"/><ellipse cx="500.0" cy="889.0" rx="220.0" ry="34.0" fill="rgba(0,0,0,.45)"/><ellipse cx="500.0" cy="520.0" rx="320.0" ry="480.0" fill="#6600ff" fill-opacity=".042" filter="url(#bloomr1x3360)"/><circle cx="746.1" cy="621.6" r="2.6" fill="#6600ff" fill-opacity="0.62" filter="url(#glowr1x3360)"/><circle cx="655.4" cy="720.8" r="3.3" fill="#6600ff" fill-opacity="0.55" filter="url(#glowr1x3360)"/><circle cx="702.1" cy="586.5" r="3.6" fill="#6600ff" fill-opacity="0.38" filter="url(#glowr1x3360)"/><circle cx="706.3" cy="328.9" r="2.0" fill="#6600ff" fill-opacity="0.60" filter="url(#glowr1x3360)"/><circle cx="542.0" cy="719.8" r="1.5" fill="#6600ff" fill-opacity="0.59" filter="url(#glowr1x3360)"/><circle cx="386.3" cy="298.7" r="2.6" fill="#6600ff" fill-opacity="0.81" filter="url(#glowr1x3360)"/><circle cx="321.2" cy="661.7" r="4.2" fill="#6600ff" fill-opacity="0.62" filter="url(#glowr1x3360)"/><circle cx="475.1" cy="743.5" r="2.3" fill="#6600ff" fill-opacity="0.70" filter="url(#glowr1x3360)"/><circle cx="454.0" cy="638.6" r="4.1" fill="#6600ff" fill-opacity="0.65" filter="url(#glowr1x3360)"/><circle cx="451.5" cy="666.1" r="1.6" fill="#6600ff" fill-opacity="0.40" filter="url(#glowr1x3360)"/><circle cx="736.6" cy="238.7" r="3.9" fill="#6600ff" fill-opacity="0.76" filter="url(#glowr1x3360)"/><circle cx="289.4" cy="660.4" r="2.8" fill="#6600ff" fill-opacity="0.73" filter="url(#glowr1x3360)"/><circle cx="611.4" cy="313.5" r="1.0" fill="#6600ff" fill-opacity="0.60" filter="url(#glowr1x3360)"/><circle cx="601.2" cy="332.2" r="2.3" fill="#6600ff" fill-opacity="0.55" filter="url(#glowr1x3360)"/><polygon points="397.4,661.3 488.8,662.4 480.9,877.4 387.9,877.8" fill="url(#suitr1x3360)" stroke="#ff44aa" stroke-width="2.2" filter="url(#skr1x3360) url(#metalr1x3360)"/><polygon points="399.1,660.8 490.4,664.0 481.1,878.8 387.8,876.9" fill="url(#carbonr1x3360)"/><polygon points="392.2,723.8 491.8,723.9 485.4,786.5 385.0,789.4" fill="url(#bevelr1x3360)" fill-opacity=".5" stroke="#ff44aa" stroke-width="1.4" filter="url(#skr1x3360)"/><polygon points="511.8,662.0 601.1,661.3 611.7,878.5 518.6,876.3" fill="url(#suitr1x3360)" stroke="#ff44aa" stroke-width="2.2" filter="url(#skr1x3360) url(#metalr1x3360)"/><polygon points="512.2,663.5 602.6,663.8 614.0,878.4 518.1,875.9" fill="url(#carbonr1x3360)"/><polygon points="507.9,725.0 606.9,723.1 617.6,789.8 514.5,788.6" fill="url(#bevelr1x3360)" fill-opacity=".5" stroke="#ff44aa" stroke-width="1.4" filter="url(#skr1x3360)"/><rect x="391.0" y="838.2" width="100.3" height="24.7" fill="url(#bevelr1x3360)" stroke="#ff44aa" stroke-width="1" filter="url(#skr1x3360)"/><rect x="506.8"  y="838.7" width="100.3" height="24.7" fill="url(#bevelr1x3360)" stroke="#ff44aa" stroke-width="1" filter="url(#skr1x3360)"/><polygon points="368.4,876.7 495.4,877.6 502.8,922.4 363.6,922.2" fill="#880050" stroke="#ff44aa" stroke-width="2" filter="url(#skr1x3360)"/><polygon points="502.1,879.0 631.6,878.7 638.2,920.4 498.1,923.1" fill="#880050" stroke="#ff44aa" stroke-width="2" filter="url(#skr1x3360)"/><polygon points="303.6,632.1 697.6,633.0 636.2,680.4 363.0,680.8" fill="#ff44aa" fill-opacity=".52" stroke="#ff44aa" stroke-width="2" filter="url(#skr1x3360)"/><rect x="463.4" y="639.1" width="72.0" height="42.0" fill="url(#bevelr1x3360)" stroke="#ff44aa" stroke-width="1.4" filter="url(#glowr1x3360)"/><rect x="484.7" y="640.3" width="28.0" height="22.0" rx="1" fill="rgba(255,255,255,.48)"/><polygon points="152.8,465.9 234.2,468.0 257.1,736.4 129.2,733.9" fill="url(#suitr1x3360)" stroke="#ff44aa" stroke-width="2.2" filter="url(#skr1x3360) url(#metalr1x3360)"/><polygon points="175.0,431.6 254.6,432.1 244.5,511.7 159.9,509.4" fill="url(#bevelr1x3360)" fill-opacity=".72" stroke="#ff44aa" stroke-width="2.2" filter="url(#skr1x3360)"/><polygon points="162.7,621.5 241.9,621.5 238.5,662.1 163.9,659.4" fill="#ff44aa" fill-opacity=".42" stroke="#ff44aa" stroke-width="1" filter="url(#skr1x3360)"/><polygon points="766.0,467.7 846.6,465.5 871.4,735.5 741.2,736.3" fill="url(#suitr1x3360)" stroke="#ff44aa" stroke-width="2.2" filter="url(#skr1x3360) url(#metalr1x3360)"/><polygon points="746.1,431.8 828.0,433.3 839.3,509.4 756.4,511.6" fill="url(#bevelr1x3360)" fill-opacity=".72" stroke="#ff44aa" stroke-width="2.2" filter="url(#skr1x3360)"/><polygon points="756.4,623.6 839.4,621.4 835.7,662.0 759.8,660.9" fill="#ff44aa" fill-opacity=".42" stroke="#ff44aa" stroke-width="1" filter="url(#skr1x3360)"/><rect x="120.9"  y="698.7" width="135.3" height="85.0" rx="4" fill="url(#bevelr1x3360)" stroke="#ff44aa" stroke-width="1.8" filter="url(#skr1x3360)"/><rect x="750.4"   y="699.9" width="135.3" height="85.0" rx="4" fill="url(#bevelr1x3360)" stroke="#ff44aa" stroke-width="1.8" filter="url(#skr1x3360)"/><line x1="149.7" y1="700.1" x2="151.4" y2="784.1" stroke="#ff44aa" stroke-opacity=".38" stroke-width="1"/><line x1="779.2" y1="702.4" x2="776.7" y2="782.7" stroke="#ff44aa" stroke-opacity=".38" stroke-width="1"/><line x1="181.7" y1="700.1" x2="183.3" y2="784.1" stroke="#ff44aa" stroke-opacity=".38" stroke-width="1"/><line x1="811.0" y1="703.6" x2="810.2" y2="782.3" stroke="#ff44aa" stroke-opacity=".38" stroke-width="1"/><line x1="216.2" y1="702.2" x2="215.4" y2="783.4" stroke="#ff44aa" stroke-opacity=".38" stroke-width="1"/><line x1="844.6" y1="701.7" x2="842.0" y2="782.6" stroke="#ff44aa" stroke-opacity=".38" stroke-width="1"/><polygon points="234.8,417.4 766.6,415.8 722.5,663.4 276.5,661.4" fill="url(#suitr1x3360)" stroke="#ff44aa" stroke-width="2.6" filter="url(#skr1x3360) url(#metalr1x3360)"/><polygon points="235.3,416.7 763.6,418.5 724.3,660.9 278.3,662.8" fill="url(#carbonr1x3360)"/><polygon points="368.1,416.6 631.5,416.8 612.7,515.4 388.8,516.5" fill="url(#suitHir1x3360)"/><line x1="361.7" y1="473.1" x2="637.4" y2="472.8" stroke="#ff44aa" stroke-opacity=".52" stroke-width="1.3" filter="url(#skr1x3360)"/><line x1="398.8" y1="549.8" x2="601.3" y2="549.3" stroke="#ff44aa" stroke-opacity=".52" stroke-width="1.3" filter="url(#skr1x3360)"/><line x1="266.9" y1="489.8" x2="318.9" y2="491.2" stroke="#ff44aa" stroke-opacity=".62" stroke-width="1.8"/><line x1="678.6" y1="489.8" x2="734.5" y2="489.9" stroke="#ff44aa" stroke-opacity=".62" stroke-width="1.8"/><line x1="265.5" y1="522.2" x2="318.5" y2="522.2" stroke="#ff44aa" stroke-opacity=".62" stroke-width="1.8"/><line x1="681.7" y1="522.2" x2="732.0" y2="522.7" stroke="#ff44aa" stroke-opacity=".62" stroke-width="1.8"/><line x1="265.7" y1="555.6" x2="321.2" y2="555.9" stroke="#ff44aa" stroke-opacity=".62" stroke-width="1.8"/><line x1="679.4" y1="556.2" x2="732.3" y2="554.4" stroke="#ff44aa" stroke-opacity=".62" stroke-width="1.8"/><line x1="268.6" y1="586.4" x2="319.9" y2="586.1" stroke="#ff44aa" stroke-opacity=".62" stroke-width="1.8"/><line x1="681.2" y1="585.4" x2="732.2" y2="588.2" stroke="#ff44aa" stroke-opacity=".62" stroke-width="1.8"/><g filter="url(#glowr1x3360)"><path d="M500.0,449.7 C462.3,446.8 442.0,481.6 447.8,513.5 L459.4,542.5 C476.8,536.7 491.3,551.2 500.0,551.2 C508.7,551.2 523.2,536.7 540.6,542.5 L552.2,513.5 C558.0,481.6 537.7,446.8 500.0,449.7 Z" fill="#ff44aa" fill-opacity=".92" stroke="#140900" stroke-width="1.3" filter="url(#skr1x3360)"/><path d="M483.8,519.3 Q500.0,533.8 516.2,519.3" stroke="#140900" stroke-width="1" fill="none" opacity=".58"/><ellipse cx="481.4" cy="497.8" rx="8.7" ry="6.4" fill="#140900" opacity=".95"/><ellipse cx="518.6" cy="497.8" rx="8.7" ry="6.4" fill="#140900" opacity=".95"/><ellipse cx="481.4" cy="497.8" rx="2.3" ry="5.8" fill="#ff44aa"/><ellipse cx="518.6" cy="497.8" rx="2.3" ry="5.8" fill="#ff44aa"/><path d="M471.0,467.1 L458.2,426.5 L481.4,463.0" fill="#ff44aa" stroke="#140900" stroke-width=".9"/><path d="M529.0,467.1 L541.8,426.5 L518.6,463.0" fill="#ff44aa" stroke="#140900" stroke-width=".9"/><path d="M476.8,452.6 C488.4,449.1 511.6,449.1 523.2,452.6" fill="rgba(255,255,255,.18)"/></g><rect x="451.6574940363877" y="558.6779791411012" width="100.0"  height="56.0" fill="#880050" stroke="#ff44aa" stroke-width="2.2" filter="url(#skr1x3360)"/><rect x="424.6340558363125" y="574.7166658505797" width="152.0" height="26.0" fill="url(#bevelr1x3360)" fill-opacity=".65" stroke="#ff44aa" stroke-width="1.2" filter="url(#skr1x3360)"/><polygon points="309.3,378.9 349.4,294.6 500.2,278.9 648.2,295.8 690.8,379.3 669.4,505.2 501.8,566.6 330.8,505.1" fill="url(#suitr1x3360)" stroke="#ff44aa" stroke-width="2.8" filter="url(#skr1x3360) url(#metalr1x3360)"/><polygon points="309.5,381.2 349.3,296.2 501.1,278.5 649.6,293.3 690.8,378.9 670.1,502.7 498.5,565.9 331.1,503.9" fill="url(#carbonr1x3360)"/><polygon points="381.0,303.0 501.3,287.0 617.7,303.3 607.0,381.1 391.2,381.7" fill="url(#suitHir1x3360)"/><polygon points="379.5,379.5 367.3,425.8 432.8,504.5 499.4,526.4 565.7,504.7 633.4,425.6 619.7,381.0" fill="#140900" fill-opacity=".88" stroke="#ff44aa" stroke-width="1.8" filter="url(#skr1x3360)"/><polygon points="380.1,409.9 476.6,411.0 486.3,440.7 387.9,438.3" fill="#ff44aa" filter="url(#glowr1x3360)"/><polygon points="524.1,411.8 619.3,410.5 609.7,439.8 517.1,439.5" fill="#ff44aa" filter="url(#glowr1x3360)"/><ellipse cx="430.9" cy="425.7" rx="38.4"  ry="8.2" fill="#ffffff" opacity=".88"/><ellipse cx="569.1" cy="425.7" rx="38.4"  ry="8.2" fill="#ffffff" opacity=".88"/><line x1="485.3030863232538" y1="414.5390594003722" x2="517.0340408436396" y2="413.9351410254836" stroke="#ff44aa" stroke-opacity=".52" stroke-width="2"/><line x1="483.2660637060739" y1="437.50780381215736" x2="515.0223326335102" y2="439.2227027842775" stroke="#ff44aa" stroke-opacity=".52" stroke-width="2"/><line x1="498.71601130627096" y1="453.7132057729177" x2="500.5760758274235" y2="484.41734723420814" stroke="#ff44aa" stroke-opacity=".58" stroke-width="2.2" filter="url(#skr1x3360)"/><line x1="454.23198998112235" y1="492.3444105206057" x2="454.71965629428627" y2="519.0329765261151" stroke="#ff44aa" stroke-opacity=".52" stroke-width="1.5" filter="url(#skr1x3360)"/><line x1="476.40272815762086" y1="489.5816184359602" x2="476.1118966222182" y2="521.3141519932076" stroke="#ff44aa" stroke-opacity=".52" stroke-width="1.5" filter="url(#skr1x3360)"/><line x1="500.881073197443" y1="490.608225985337" x2="501.1076986219734" y2="520.2481517327018" stroke="#ff44aa" stroke-opacity=".52" stroke-width="1.5" filter="url(#skr1x3360)"/><line x1="524.16856422076" y1="490.5962526721879" x2="524.0654896423779" y2="520.816986040026" stroke="#ff44aa" stroke-opacity=".52" stroke-width="1.5" filter="url(#skr1x3360)"/><line x1="547.8022663188353" y1="490.21130441818383" x2="545.7388913266548" y2="519.5612656055949" stroke="#ff44aa" stroke-opacity=".52" stroke-width="1.5" filter="url(#skr1x3360)"/><polygon points="433.0,502.4 567.2,505.3 555.3,557.4 447.3,556.6" fill="#880050" fill-opacity=".72" stroke="#ff44aa" stroke-width="1.3" filter="url(#skr1x3360)"/><polygon points="314.3,304.8 362.7,306.4 338.6,194.9" fill="url(#bevelr1x3360)" fill-opacity=".95" stroke="#ff44aa" stroke-width="1.6" filter="url(#skr1x3360) url(#glowr1x3360)"/><polygon points="397.6,304.3 444.1,303.5 420.8,207.1" fill="url(#bevelr1x3360)" fill-opacity=".95" stroke="#ff44aa" stroke-width="1.6" filter="url(#skr1x3360) url(#glowr1x3360)"/><polygon points="476.0,303.8 522.1,304.5 499.9,220.7" fill="url(#bevelr1x3360)" fill-opacity=".95" stroke="#ff44aa" stroke-width="1.6" filter="url(#skr1x3360) url(#glowr1x3360)"/><polygon points="559.1,305.5 602.6,304.5 580.6,210.1" fill="url(#bevelr1x3360)" fill-opacity=".95" stroke="#ff44aa" stroke-width="1.6" filter="url(#skr1x3360) url(#glowr1x3360)"/><polygon points="638.5,306.1 685.9,306.4 661.8,195.2" fill="url(#bevelr1x3360)" fill-opacity=".95" stroke="#ff44aa" stroke-width="1.6" filter="url(#skr1x3360) url(#glowr1x3360)"/><text x="30.0"  y="975.0" font-family="monospace" font-weight="bold" font-size="22.0" fill="rgba(255,255,255,.22)">#0001</text><text x="500.0"   y="975.0" text-anchor="middle" font-family="monospace" font-weight="bold" font-size="22.0" fill="#ff44aa" fill-opacity=".48">SAKURA RANGER</text><text x="970.0" y="975.0" text-anchor="end"    font-family="monospace" font-weight="bold" font-size="22.0" fill="#ff44aa" fill-opacity=".32">MECH RANGERS</text></svg>