<svg xmlns="http://www.w3.org/2000/svg" viewBox="0 0 1000 1000" width="1000" height="1000" shape-rendering="geometricPrecision"><defs>

  <!-- Scene gradients -->
  <radialGradient id="bgr1x3410" cx="50%" cy="42%" r="72%">
    <stop offset="0%"   stop-color="#0e000e"/>
    <stop offset="100%" stop-color="#1e0600"/>
  </radialGradient>
  <linearGradient id="suitr1x3410" x1="8%" y1="0%" x2="92%" y2="100%">
    <stop offset="0%"   stop-color="#c0c0d0" stop-opacity=".95"/>
    <stop offset="45%"  stop-color="#2c2c3c"/>
    <stop offset="100%" stop-color="#1e0600"/>
  </linearGradient>
  <linearGradient id="suitHir1x3410" x1="0%" y1="0%" x2="0%" y2="100%">
    <stop offset="0%"   stop-color="rgba(255,255,255,.28)"/>
    <stop offset="60%"  stop-color="rgba(255,255,255,.04)"/>
    <stop offset="100%" stop-color="rgba(255,255,255,0)"/>
  </linearGradient>
  <!-- Bevel: bright top, dark bottom for armour panels -->
  <linearGradient id="bevelr1x3410" x1="0%" y1="0%" x2="0%" y2="100%">
    <stop offset="0%"   stop-color="rgba(255,255,255,.55)"/>
    <stop offset="30%"  stop-color="#c0c0d0"/>
    <stop offset="70%"  stop-color="#2c2c3c"/>
    <stop offset="100%" stop-color="rgba(0,0,0,.5)"/>
  </linearGradient>

  <!-- Weapon: cold steel blade sweep -->
  <linearGradient id="blader1x3410" x1="0%" y1="0%" x2="100%" y2="0%">
    <stop offset="0%"   stop-color="#0e0e20"/>
    <stop offset="16%"  stop-color="#3e3e58"/>
    <stop offset="34%"  stop-color="#c8c8e0"/>
    <stop offset="50%"  stop-color="#f5f5ff"/>
    <stop offset="66%"  stop-color="#b8b8d0"/>
    <stop offset="84%"  stop-color="#2e2e48"/>
    <stop offset="100%" stop-color="#08080e"/>
  </linearGradient>
  <!-- Blade tip brightening -->
  <linearGradient id="bladeTipr1x3410" x1="0%" y1="100%" x2="0%" y2="0%">
    <stop offset="0%"   stop-color="rgba(255,255,255,0)"/>
    <stop offset="55%"  stop-color="rgba(255,255,255,.1)"/>
    <stop offset="100%" stop-color="rgba(255,255,255,.55)"/>
  </linearGradient>
  <!-- Gunmetal anodised — blaster body -->
  <linearGradient id="gunmetalr1x3410" x1="0%" y1="0%" x2="0%" y2="100%">
    <stop offset="0%"   stop-color="#46465e"/>
    <stop offset="18%"  stop-color="#828296"/>
    <stop offset="42%"  stop-color="#26263a"/>
    <stop offset="72%"  stop-color="#16162a"/>
    <stop offset="100%" stop-color="#0c0c18"/>
  </linearGradient>
  <!-- Brushed steel tube — barrel/rod -->
  <linearGradient id="barrelr1x3410" x1="0%" y1="0%" x2="100%" y2="0%">
    <stop offset="0%"   stop-color="#0a0a14"/>
    <stop offset="24%"  stop-color="#585875"/>
    <stop offset="50%"  stop-color="#a8a8c8"/>
    <stop offset="76%"  stop-color="#383852"/>
    <stop offset="100%" stop-color="#0a0a14"/>
  </linearGradient>
  <!-- Chrome rod — lance shaft -->
  <linearGradient id="chromer1x3410" x1="0%" y1="0%" x2="100%" y2="0%">
    <stop offset="0%"   stop-color="#0c0c18"/>
    <stop offset="20%"  stop-color="#686888"/>
    <stop offset="44%"  stop-color="#e0e0f0"/>
    <stop offset="56%"  stop-color="#c0c0d8"/>
    <stop offset="80%"  stop-color="#28283e"/>
    <stop offset="100%" stop-color="#0c0c18"/>
  </linearGradient>
  <!-- Titanium plate — shield face -->
  <linearGradient id="titaniumr1x3410" x1="0%" y1="0%" x2="100%" y2="100%">
    <stop offset="0%"   stop-color="#585878"/>
    <stop offset="28%"  stop-color="#c0c0d0" stop-opacity=".88"/>
    <stop offset="55%"  stop-color="#2c2c3c"/>
    <stop offset="80%"  stop-color="#181828"/>
    <stop offset="100%" stop-color="#0a0a18"/>
  </linearGradient>
  <!-- Artillery black-chrome — cannon body -->
  <linearGradient id="artilleryr1x3410" x1="0%" y1="0%" x2="0%" y2="100%">
    <stop offset="0%"   stop-color="#383850"/>
    <stop offset="14%"  stop-color="#78789a"/>
    <stop offset="36%"  stop-color="#202034"/>
    <stop offset="65%"  stop-color="#14141e"/>
    <stop offset="100%" stop-color="#0a0a12"/>
  </linearGradient>
  <!-- Energy orb — staff -->
  <radialGradient id="orbr1x3410" cx="35%" cy="35%" r="65%">
    <stop offset="0%"   stop-color="rgba(255,255,255,.9)"/>
    <stop offset="30%"  stop-color="#c0c0d0"/>
    <stop offset="68%"  stop-color="#2c2c3c"/>
    <stop offset="100%" stop-color="rgba(0,0,0,.6)"/>
  </radialGradient>
  <!-- Knuckle plate chrome -->
  <linearGradient id="knuckler1x3410" x1="0%" y1="0%" x2="0%" y2="100%">
    <stop offset="0%"   stop-color="#888aaa"/>
    <stop offset="32%"  stop-color="#c0c0d0" stop-opacity=".8"/>
    <stop offset="62%"  stop-color="#1a1a2c"/>
    <stop offset="100%" stop-color="#0a0a14"/>
  </linearGradient>

  <!-- Carbon fibre weave texture overlay -->
  <pattern id="carbonr1x3410" width="6" height="6" patternUnits="userSpaceOnUse">
    <rect width="6" height="6" fill="rgba(0,0,0,.08)"/>
    <rect x="0" y="0" width="3" height="3" fill="rgba(255,255,255,.022)"/>
    <rect x="3" y="3" width="3" height="3" fill="rgba(255,255,255,.022)"/>
    <line x1="0" y1="0" x2="3" y2="3" stroke="rgba(255,255,255,.038)" stroke-width=".5"/>
    <line x1="3" y1="0" x2="6" y2="3" stroke="rgba(0,0,0,.055)"       stroke-width=".5"/>
    <line x1="0" y1="3" x2="3" y2="6" stroke="rgba(0,0,0,.055)"       stroke-width=".5"/>
    <line x1="3" y1="3" x2="6" y2="6" stroke="rgba(255,255,255,.038)" stroke-width=".5"/>
  </pattern>

  <!-- Specular metal sheen on armour panels -->
  <filter id="metalr1x3410" x="-5%" y="-5%" width="110%" height="110%">
    <feSpecularLighting surfaceScale="4" specularConstant="1.8"
        specularExponent="42" lighting-color="#ffffff" result="spec">
      <feDistantLight elevation="52" azimuth="38"/>
    </feSpecularLighting>
    <feComposite in="spec" in2="SourceGraphic" operator="in" result="sm"/>
    <feComposite in="SourceGraphic" in2="sm" operator="arithmetic" k1="0" k2="1" k3="0.55" k4="0"/>
  </filter>

  <!-- Sharper specular for weapons — heavier glare -->
  <filter id="wmr1x3410" x="-8%" y="-8%" width="116%" height="116%">
    <feSpecularLighting surfaceScale="6" specularConstant="2.4"
        specularExponent="65" lighting-color="#ffffff" result="spec">
      <feDistantLight elevation="44" azimuth="28"/>
    </feSpecularLighting>
    <feComposite in="spec" in2="SourceGraphic" operator="in" result="sm"/>
    <feComposite in="SourceGraphic" in2="sm" operator="arithmetic" k1="0" k2="1" k3="0.78" k4="0"/>
  </filter>

  <!-- Sketch wobble -->
  <filter id="skr1x3410" x="-8%" y="-8%" width="116%" height="116%">
    <feTurbulence type="fractalNoise" baseFrequency="0.038"
        numOctaves="3" seed="31" result="noise"/>
    <feDisplacementMap in="SourceGraphic" in2="noise" scale="2.6"
        xChannelSelector="R" yChannelSelector="G" result="w"/>
    <feComposite in="w" in2="SourceGraphic" operator="atop"/>
  </filter>

  <!-- Glow: sharp accent -->
  <filter id="glowr1x3410" x="-20%" y="-20%" width="140%" height="140%">
    <feGaussianBlur stdDeviation="3.5" result="b"/>
    <feColorMatrix in="b" type="matrix"
        values="0 0 0 0 1  0 0 0 0 1  0 0 0 0 1  0 0 0 1.8 0" result="boost"/>
    <feMerge><feMergeNode in="boost"/><feMergeNode in="SourceGraphic"/></feMerge>
  </filter>

  <!-- Bloom: wide soft -->
  <filter id="bloomr1x3410" x="-40%" y="-40%" width="180%" height="180%">
    <feGaussianBlur stdDeviation="11" result="b"/>
    <feMerge><feMergeNode in="b"/><feMergeNode in="SourceGraphic"/></feMerge>
  </filter>

  </defs><rect width="1000" height="1000" fill="url(#bgr1x3410)"/><ellipse cx="500.0" cy="1000" rx="850.0" ry="350.0" fill="#ff4500" fill-opacity=".11" filter="url(#bloomr1x3410)"/><ellipse cx="500.0" cy="892.0" rx="350.0" ry="65.0" fill="rgba(0,0,0,.7)" filter="url(#bloomr1x3410)"/><ellipse cx="500.0" cy="889.0" rx="220.0" ry="34.0" fill="rgba(0,0,0,.45)"/><ellipse cx="500.0" cy="520.0" rx="320.0" ry="480.0" fill="#6600ff" fill-opacity=".042" filter="url(#bloomr1x3410)"/><circle cx="361.8" cy="348.1" r="1.4" fill="#6600ff" fill-opacity="0.81" filter="url(#glowr1x3410)"/><circle cx="346.5" cy="461.0" r="3.4" fill="#6600ff" fill-opacity="0.84" filter="url(#glowr1x3410)"/><circle cx="368.4" cy="465.8" r="1.6" fill="#6600ff" fill-opacity="0.87" filter="url(#glowr1x3410)"/><circle cx="385.6" cy="522.7" r="3.4" fill="#6600ff" fill-opacity="0.64" filter="url(#glowr1x3410)"/><circle cx="541.6" cy="442.7" r="3.7" fill="#6600ff" fill-opacity="0.63" filter="url(#glowr1x3410)"/><circle cx="669.9" cy="462.5" r="1.8" fill="#6600ff" fill-opacity="0.42" filter="url(#glowr1x3410)"/><circle cx="619.7" cy="257.5" r="2.5" fill="#6600ff" fill-opacity="0.83" filter="url(#glowr1x3410)"/><circle cx="328.2" cy="776.1" r="1.2" fill="#6600ff" fill-opacity="0.51" filter="url(#glowr1x3410)"/><circle cx="522.1" cy="638.4" r="2.9" fill="#6600ff" fill-opacity="0.71" filter="url(#glowr1x3410)"/><circle cx="353.6" cy="189.3" r="3.3" fill="#6600ff" fill-opacity="0.57" filter="url(#glowr1x3410)"/><circle cx="304.5" cy="471.1" r="1.8" fill="#6600ff" fill-opacity="0.57" filter="url(#glowr1x3410)"/><circle cx="420.3" cy="791.5" r="1.8" fill="#6600ff" fill-opacity="0.52" filter="url(#glowr1x3410)"/><circle cx="328.7" cy="495.6" r="3.5" fill="#6600ff" fill-opacity="0.75" filter="url(#glowr1x3410)"/><circle cx="388.9" cy="336.5" r="2.6" fill="#6600ff" fill-opacity="0.77" filter="url(#glowr1x3410)"/><polygon points="400.3,661.9 489.4,662.5 479.9,875.8 389.1,877.6" fill="url(#suitr1x3410)" stroke="#c0c0d0" stroke-width="2.2" filter="url(#skr1x3410) url(#metalr1x3410)"/><polygon points="397.5,661.8 489.5,661.8 479.7,878.5 387.5,875.8" fill="url(#carbonr1x3410)"/><polygon points="390.9,723.1 491.7,722.9 484.8,789.4 385.5,788.1" fill="url(#bevelr1x3410)" fill-opacity=".5" stroke="#c0c0d0" stroke-width="1.4" filter="url(#skr1x3410)"/><polygon points="510.2,664.2 601.4,661.7 612.6,877.3 518.1,876.1" fill="url(#suitr1x3410)" stroke="#c0c0d0" stroke-width="2.2" filter="url(#skr1x3410) url(#metalr1x3410)"/><polygon points="510.8,663.7 601.7,660.8 613.9,878.2 519.8,877.5" fill="url(#carbonr1x3410)"/><polygon points="508.5,723.5 608.8,723.5 616.2,789.6 516.2,789.7" fill="url(#bevelr1x3410)" fill-opacity=".5" stroke="#c0c0d0" stroke-width="1.4" filter="url(#skr1x3410)"/><rect x="391.7" y="840.0" width="100.3" height="24.7" fill="url(#bevelr1x3410)" stroke="#c0c0d0" stroke-width="1" filter="url(#skr1x3410)"/><rect x="505.5"  y="837.3" width="100.3" height="24.7" fill="url(#bevelr1x3410)" stroke="#c0c0d0" stroke-width="1" filter="url(#skr1x3410)"/><polygon points="369.4,876.0 497.1,878.8 501.8,922.6 361.9,922.7" fill="#2c2c3c" stroke="#c0c0d0" stroke-width="2" filter="url(#skr1x3410)"/><polygon points="504.8,876.4 630.7,877.6 637.2,923.1 498.1,921.4" fill="#2c2c3c" stroke="#c0c0d0" stroke-width="2" filter="url(#skr1x3410)"/><polygon points="302.4,633.6 695.1,633.2 639.3,681.4 362.8,680.6" fill="#c0c0d0" fill-opacity=".52" stroke="#c0c0d0" stroke-width="2" filter="url(#skr1x3410)"/><rect x="464.9" y="638.1" width="72.0" height="42.0" fill="url(#bevelr1x3410)" stroke="#c0c0d0" stroke-width="1.4" filter="url(#glowr1x3410)"/><rect x="486.2" y="639.4" width="28.0" height="22.0" rx="1" fill="rgba(255,255,255,.48)"/><polygon points="153.8,468.2 234.1,467.7 258.7,735.5 127.1,735.8" fill="url(#suitr1x3410)" stroke="#c0c0d0" stroke-width="2.2" filter="url(#skr1x3410) url(#metalr1x3410)"/><polygon points="171.9,433.8 254.0,431.6 242.7,510.6 158.9,510.1" fill="url(#bevelr1x3410)" fill-opacity=".72" stroke="#c0c0d0" stroke-width="2.2" filter="url(#skr1x3410)"/><polygon points="161.4,620.8 244.9,622.3 239.2,659.8 166.1,661.5" fill="#c0c0d0" fill-opacity=".42" stroke="#c0c0d0" stroke-width="1" filter="url(#skr1x3410)"/><polygon points="765.5,467.4 847.5,466.7 870.8,736.0 742.3,735.1" fill="url(#suitr1x3410)" stroke="#c0c0d0" stroke-width="2.2" filter="url(#skr1x3410) url(#metalr1x3410)"/><polygon points="747.5,432.6 824.9,432.3 840.4,512.2 757.8,510.5" fill="url(#bevelr1x3410)" fill-opacity=".72" stroke="#c0c0d0" stroke-width="2.2" filter="url(#skr1x3410)"/><polygon points="756.2,622.4 838.3,621.6 834.0,661.0 759.6,659.8" fill="#c0c0d0" fill-opacity=".42" stroke="#c0c0d0" stroke-width="1" filter="url(#skr1x3410)"/><rect x="120.3"  y="699.1" width="135.3" height="85.0" rx="4" fill="url(#bevelr1x3410)" stroke="#c0c0d0" stroke-width="1.8" filter="url(#skr1x3410)"/><rect x="748.0"   y="698.7" width="135.3" height="85.0" rx="4" fill="url(#bevelr1x3410)" stroke="#c0c0d0" stroke-width="1.8" filter="url(#skr1x3410)"/><line x1="148.7" y1="701.1" x2="148.3" y2="782.3" stroke="#c0c0d0" stroke-opacity=".38" stroke-width="1"/><line x1="777.7" y1="701.0" x2="779.5" y2="785.5" stroke="#c0c0d0" stroke-opacity=".38" stroke-width="1"/><line x1="180.8" y1="702.4" x2="182.9" y2="784.7" stroke="#c0c0d0" stroke-opacity=".38" stroke-width="1"/><line x1="811.9" y1="701.7" x2="810.5" y2="785.2" stroke="#c0c0d0" stroke-opacity=".38" stroke-width="1"/><line x1="216.9" y1="703.0" x2="216.7" y2="783.1" stroke="#c0c0d0" stroke-opacity=".38" stroke-width="1"/><line x1="844.2" y1="702.8" x2="842.6" y2="784.3" stroke="#c0c0d0" stroke-opacity=".38" stroke-width="1"/><polygon points="233.7,415.9 764.1,418.8 722.3,662.4 277.7,661.7" fill="url(#suitr1x3410)" stroke="#c0c0d0" stroke-width="2.6" filter="url(#skr1x3410) url(#metalr1x3410)"/><polygon points="234.4,416.4 764.2,417.3 721.3,663.8 275.7,661.9" fill="url(#carbonr1x3410)"/><polygon points="366.8,418.2 631.7,418.0 609.5,515.9 388.6,514.9" fill="url(#suitHir1x3410)"/><line x1="362.6" y1="472.8" x2="636.3" y2="470.3" stroke="#c0c0d0" stroke-opacity=".52" stroke-width="1.3" filter="url(#skr1x3410)"/><line x1="398.8" y1="549.8" x2="601.3" y2="550.2" stroke="#c0c0d0" stroke-opacity=".52" stroke-width="1.3" filter="url(#skr1x3410)"/><line x1="266.0" y1="490.9" x2="320.3" y2="492.0" stroke="#c0c0d0" stroke-opacity=".62" stroke-width="1.8"/><line x1="681.9" y1="490.8" x2="733.9" y2="489.3" stroke="#c0c0d0" stroke-opacity=".62" stroke-width="1.8"/><line x1="265.6" y1="523.1" x2="320.4" y2="524.4" stroke="#c0c0d0" stroke-opacity=".62" stroke-width="1.8"/><line x1="679.8" y1="524.3" x2="734.6" y2="522.9" stroke="#c0c0d0" stroke-opacity=".62" stroke-width="1.8"/><line x1="266.4" y1="554.0" x2="321.3" y2="554.2" stroke="#c0c0d0" stroke-opacity=".62" stroke-width="1.8"/><line x1="679.4" y1="555.0" x2="732.2" y2="554.2" stroke="#c0c0d0" stroke-opacity=".62" stroke-width="1.8"/><line x1="266.9" y1="586.9" x2="318.7" y2="586.2" stroke="#c0c0d0" stroke-opacity=".62" stroke-width="1.8"/><line x1="679.1" y1="586.5" x2="733.0" y2="587.2" stroke="#c0c0d0" stroke-opacity=".62" stroke-width="1.8"/><g filter="url(#glowr1x3410)"><polygon points="499.3,452.8 515.9,488.4 555.0,491.5 523.2,516.8 534.4,559.0 501.7,534.9 467.1,557.5 476.5,519.8 445.8,494.1 486.7,489.2 " fill="#c0c0d0" stroke="#1e0600" stroke-width="1.4" filter="url(#skr1x3410)"/><polygon points="499.3,452.8 515.9,488.4 555.0,491.5 523.2,516.8 534.4,559.0 501.7,534.9 467.1,557.5 476.5,519.8 445.8,494.1 486.7,489.2 " fill="url(#suitHir1x3410)" opacity=".45"/></g><g><line x1="898.747819368504" y1="791.3121764964424" x2="913.9211897720211" y2="113.00962809287009" stroke="url(#chromer1x3410)" stroke-width="28.0" stroke-linecap="round" filter="url(#wmr1x3410)"/><line x1="904.5641008458659" y1="772.544716414716" x2="912.1284674003348" y2="132.84182512974365" stroke="rgba(255,255,255,.42)" stroke-width="5.0" stroke-linecap="round"/><polygon points="869.0,150.1 937.3,150.2 916.1,-9.3" fill="url(#blader1x3410)" stroke="#c0c0d0" stroke-width="1.8" filter="url(#wmr1x3410)"/><line x1="935.8" y1="151.4" x2="915.8" y2="-8.6" stroke="rgba(255,255,255,.72)" stroke-width="1.6"/><rect x="879.025213185195" y="421.60881304629146" width="40.0" height="20.0" fill="url(#bevelr1x3410)" stroke="#c0c0d0" stroke-width="1" filter="url(#wmr1x3410)"/><rect x="877.7543380661496" y="511.1458389976062" width="40.0" height="20.0" fill="url(#bevelr1x3410)" stroke="#c0c0d0" stroke-width="1" filter="url(#wmr1x3410)"/><rect x="880.5794657687285" y="602.3783878669143" width="40.0" height="20.0" fill="url(#bevelr1x3410)" stroke="#c0c0d0" stroke-width="1" filter="url(#wmr1x3410)"/><rect x="877.2654789134488" y="692.6442512508481" width="40.0" height="20.0" fill="url(#bevelr1x3410)" stroke="#c0c0d0" stroke-width="1" filter="url(#wmr1x3410)"/><ellipse cx="896.3732186177373" cy="791.8129031147807" rx="22.0" ry="15.0" fill="url(#bevelr1x3410)" stroke="#c0c0d0" stroke-width="1" filter="url(#wmr1x3410)"/></g><rect x="448.3726403404959" y="555.4359447563066" width="100.0"  height="56.0" fill="#2c2c3c" stroke="#c0c0d0" stroke-width="2.2" filter="url(#skr1x3410)"/><rect x="423.51807776568455" y="576.4678681931458" width="152.0" height="26.0" fill="url(#bevelr1x3410)" fill-opacity=".65" stroke="#c0c0d0" stroke-width="1.2" filter="url(#skr1x3410)"/><polygon points="307.2,381.7 351.5,294.9 499.8,278.7 649.4,293.0 691.0,380.2 668.0,504.0 498.3,564.1 332.3,503.4" fill="url(#suitr1x3410)" stroke="#c0c0d0" stroke-width="2.8" filter="url(#skr1x3410) url(#metalr1x3410)"/><polygon points="307.5,379.8 351.6,293.7 500.1,276.7 650.8,294.2 690.3,378.9 669.4,503.9 500.6,566.6 331.8,503.3" fill="url(#carbonr1x3410)"/><polygon points="381.3,303.5 501.1,286.5 619.5,303.0 605.7,379.8 393.5,381.3" fill="url(#suitHir1x3410)"/><polygon points="382.3,381.5 364.9,426.0 432.2,501.8 501.2,527.6 567.7,503.0 633.4,425.6 618.1,380.9" fill="#1e0600" fill-opacity=".88" stroke="#c0c0d0" stroke-width="1.8" filter="url(#skr1x3410)"/><polygon points="382.7,412.6 478.5,410.1 484.1,438.4 388.3,441.4" fill="#c0c0d0" filter="url(#glowr1x3410)"/><polygon points="524.0,411.6 620.8,410.4 611.8,441.4 513.7,441.6" fill="#c0c0d0" filter="url(#glowr1x3410)"/><ellipse cx="430.9" cy="425.7" rx="38.4"  ry="8.2" fill="#ffffff" opacity=".88"/><ellipse cx="569.1" cy="425.7" rx="38.4"  ry="8.2" fill="#ffffff" opacity=".88"/><line x1="483.9424019045755" y1="413.0296938470565" x2="515.9372206679918" y2="411.9688795857131" stroke="#c0c0d0" stroke-opacity=".52" stroke-width="2"/><line x1="485.64306287724526" y1="437.61878726603464" x2="515.5925906590559" y2="437.88795709870755" stroke="#c0c0d0" stroke-opacity=".52" stroke-width="2"/><line x1="499.03949461756275" y1="453.4581681651063" x2="500.7442798210308" y2="482.23305377112706" stroke="#c0c0d0" stroke-opacity=".58" stroke-width="2.2" filter="url(#skr1x3410)"/><line x1="455.16685260299596" y1="491.4760862397961" x2="454.27071326904" y2="520.8806152597069" stroke="#c0c0d0" stroke-opacity=".52" stroke-width="1.5" filter="url(#skr1x3410)"/><line x1="478.7131675225124" y1="492.26335169654334" x2="476.46213732961564" y2="519.6251817235723" stroke="#c0c0d0" stroke-opacity=".52" stroke-width="1.5" filter="url(#skr1x3410)"/><line x1="499.2426176575012" y1="491.7459296941757" x2="499.2394791418686" y2="520.4408163317479" stroke="#c0c0d0" stroke-opacity=".52" stroke-width="1.5" filter="url(#skr1x3410)"/><line x1="521.8359679846651" y1="490.8323276590555" x2="522.6442940502054" y2="518.2943906852976" stroke="#c0c0d0" stroke-opacity=".52" stroke-width="1.5" filter="url(#skr1x3410)"/><line x1="545.3360467680917" y1="492.2741733253002" x2="546.1867637330853" y2="521.0581738252192" stroke="#c0c0d0" stroke-opacity=".52" stroke-width="1.5" filter="url(#skr1x3410)"/><polygon points="433.2,503.8 565.7,502.5 554.8,555.5 446.4,555.2" fill="#2c2c3c" fill-opacity=".72" stroke="#c0c0d0" stroke-width="1.3" filter="url(#skr1x3410)"/><polygon points="316.6,304.5 361.5,304.9 340.4,195.2" fill="url(#bevelr1x3410)" fill-opacity=".95" stroke="#c0c0d0" stroke-width="1.6" filter="url(#skr1x3410) url(#glowr1x3410)"/><polygon points="397.2,306.4 443.3,305.4 420.9,208.5" fill="url(#bevelr1x3410)" fill-opacity=".95" stroke="#c0c0d0" stroke-width="1.6" filter="url(#skr1x3410) url(#glowr1x3410)"/><polygon points="478.0,304.3 524.7,305.3 500.7,222.7" fill="url(#bevelr1x3410)" fill-opacity=".95" stroke="#c0c0d0" stroke-width="1.6" filter="url(#skr1x3410) url(#glowr1x3410)"/><polygon points="556.1,304.5 603.3,303.8 581.4,207.9" fill="url(#bevelr1x3410)" fill-opacity=".95" stroke="#c0c0d0" stroke-width="1.6" filter="url(#skr1x3410) url(#glowr1x3410)"/><polygon points="639.2,304.8 685.1,303.5 660.1,195.1" fill="url(#bevelr1x3410)" fill-opacity=".95" stroke="#c0c0d0" stroke-width="1.6" filter="url(#skr1x3410) url(#glowr1x3410)"/><text x="30.0"  y="975.0" font-family="monospace" font-weight="bold" font-size="22.0" fill="rgba(255,255,255,.22)">#0001</text><text x="500.0"   y="975.0" text-anchor="middle" font-family="monospace" font-weight="bold" font-size="22.0" fill="#c0c0d0" fill-opacity=".48">CHROME RANGER</text><text x="970.0" y="975.0" text-anchor="end"    font-family="monospace" font-weight="bold" font-size="22.0" fill="#c0c0d0" fill-opacity=".32">MECH RANGERS</text></svg>