<svg xmlns="http://www.w3.org/2000/svg" viewBox="0 0 1000 1000" width="1000" height="1000" shape-rendering="geometricPrecision"><defs>

  <!-- Scene gradients -->
  <radialGradient id="bgr1x3475" cx="50%" cy="42%" r="72%">
    <stop offset="0%"   stop-color="#1e0a2e"/>
    <stop offset="100%" stop-color="#0a0520"/>
  </radialGradient>
  <linearGradient id="suitr1x3475" x1="8%" y1="0%" x2="92%" y2="100%">
    <stop offset="0%"   stop-color="#ff2040" stop-opacity=".95"/>
    <stop offset="45%"  stop-color="#cc0020"/>
    <stop offset="100%" stop-color="#0a0520"/>
  </linearGradient>
  <linearGradient id="suitHir1x3475" x1="0%" y1="0%" x2="0%" y2="100%">
    <stop offset="0%"   stop-color="rgba(255,255,255,.28)"/>
    <stop offset="60%"  stop-color="rgba(255,255,255,.04)"/>
    <stop offset="100%" stop-color="rgba(255,255,255,0)"/>
  </linearGradient>
  <!-- Bevel: bright top, dark bottom for armour panels -->
  <linearGradient id="bevelr1x3475" x1="0%" y1="0%" x2="0%" y2="100%">
    <stop offset="0%"   stop-color="rgba(255,255,255,.55)"/>
    <stop offset="30%"  stop-color="#ff2040"/>
    <stop offset="70%"  stop-color="#cc0020"/>
    <stop offset="100%" stop-color="rgba(0,0,0,.5)"/>
  </linearGradient>

  <!-- Weapon: cold steel blade sweep -->
  <linearGradient id="blader1x3475" x1="0%" y1="0%" x2="100%" y2="0%">
    <stop offset="0%"   stop-color="#0e0e20"/>
    <stop offset="16%"  stop-color="#3e3e58"/>
    <stop offset="34%"  stop-color="#c8c8e0"/>
    <stop offset="50%"  stop-color="#f5f5ff"/>
    <stop offset="66%"  stop-color="#b8b8d0"/>
    <stop offset="84%"  stop-color="#2e2e48"/>
    <stop offset="100%" stop-color="#08080e"/>
  </linearGradient>
  <!-- Blade tip brightening -->
  <linearGradient id="bladeTipr1x3475" x1="0%" y1="100%" x2="0%" y2="0%">
    <stop offset="0%"   stop-color="rgba(255,255,255,0)"/>
    <stop offset="55%"  stop-color="rgba(255,255,255,.1)"/>
    <stop offset="100%" stop-color="rgba(255,255,255,.55)"/>
  </linearGradient>
  <!-- Gunmetal anodised — blaster body -->
  <linearGradient id="gunmetalr1x3475" x1="0%" y1="0%" x2="0%" y2="100%">
    <stop offset="0%"   stop-color="#46465e"/>
    <stop offset="18%"  stop-color="#828296"/>
    <stop offset="42%"  stop-color="#26263a"/>
    <stop offset="72%"  stop-color="#16162a"/>
    <stop offset="100%" stop-color="#0c0c18"/>
  </linearGradient>
  <!-- Brushed steel tube — barrel/rod -->
  <linearGradient id="barrelr1x3475" x1="0%" y1="0%" x2="100%" y2="0%">
    <stop offset="0%"   stop-color="#0a0a14"/>
    <stop offset="24%"  stop-color="#585875"/>
    <stop offset="50%"  stop-color="#a8a8c8"/>
    <stop offset="76%"  stop-color="#383852"/>
    <stop offset="100%" stop-color="#0a0a14"/>
  </linearGradient>
  <!-- Chrome rod — lance shaft -->
  <linearGradient id="chromer1x3475" x1="0%" y1="0%" x2="100%" y2="0%">
    <stop offset="0%"   stop-color="#0c0c18"/>
    <stop offset="20%"  stop-color="#686888"/>
    <stop offset="44%"  stop-color="#e0e0f0"/>
    <stop offset="56%"  stop-color="#c0c0d8"/>
    <stop offset="80%"  stop-color="#28283e"/>
    <stop offset="100%" stop-color="#0c0c18"/>
  </linearGradient>
  <!-- Titanium plate — shield face -->
  <linearGradient id="titaniumr1x3475" x1="0%" y1="0%" x2="100%" y2="100%">
    <stop offset="0%"   stop-color="#585878"/>
    <stop offset="28%"  stop-color="#ff2040" stop-opacity=".88"/>
    <stop offset="55%"  stop-color="#cc0020"/>
    <stop offset="80%"  stop-color="#181828"/>
    <stop offset="100%" stop-color="#0a0a18"/>
  </linearGradient>
  <!-- Artillery black-chrome — cannon body -->
  <linearGradient id="artilleryr1x3475" x1="0%" y1="0%" x2="0%" y2="100%">
    <stop offset="0%"   stop-color="#383850"/>
    <stop offset="14%"  stop-color="#78789a"/>
    <stop offset="36%"  stop-color="#202034"/>
    <stop offset="65%"  stop-color="#14141e"/>
    <stop offset="100%" stop-color="#0a0a12"/>
  </linearGradient>
  <!-- Energy orb — staff -->
  <radialGradient id="orbr1x3475" cx="35%" cy="35%" r="65%">
    <stop offset="0%"   stop-color="rgba(255,255,255,.9)"/>
    <stop offset="30%"  stop-color="#ff2040"/>
    <stop offset="68%"  stop-color="#cc0020"/>
    <stop offset="100%" stop-color="rgba(0,0,0,.6)"/>
  </radialGradient>
  <!-- Knuckle plate chrome -->
  <linearGradient id="knuckler1x3475" x1="0%" y1="0%" x2="0%" y2="100%">
    <stop offset="0%"   stop-color="#888aaa"/>
    <stop offset="32%"  stop-color="#ff2040" stop-opacity=".8"/>
    <stop offset="62%"  stop-color="#1a1a2c"/>
    <stop offset="100%" stop-color="#0a0a14"/>
  </linearGradient>

  <!-- Carbon fibre weave texture overlay -->
  <pattern id="carbonr1x3475" width="6" height="6" patternUnits="userSpaceOnUse">
    <rect width="6" height="6" fill="rgba(0,0,0,.08)"/>
    <rect x="0" y="0" width="3" height="3" fill="rgba(255,255,255,.022)"/>
    <rect x="3" y="3" width="3" height="3" fill="rgba(255,255,255,.022)"/>
    <line x1="0" y1="0" x2="3" y2="3" stroke="rgba(255,255,255,.038)" stroke-width=".5"/>
    <line x1="3" y1="0" x2="6" y2="3" stroke="rgba(0,0,0,.055)"       stroke-width=".5"/>
    <line x1="0" y1="3" x2="3" y2="6" stroke="rgba(0,0,0,.055)"       stroke-width=".5"/>
    <line x1="3" y1="3" x2="6" y2="6" stroke="rgba(255,255,255,.038)" stroke-width=".5"/>
  </pattern>

  <!-- Specular metal sheen on armour panels -->
  <filter id="metalr1x3475" x="-5%" y="-5%" width="110%" height="110%">
    <feSpecularLighting surfaceScale="4" specularConstant="1.8"
        specularExponent="42" lighting-color="#ffffff" result="spec">
      <feDistantLight elevation="52" azimuth="38"/>
    </feSpecularLighting>
    <feComposite in="spec" in2="SourceGraphic" operator="in" result="sm"/>
    <feComposite in="SourceGraphic" in2="sm" operator="arithmetic" k1="0" k2="1" k3="0.55" k4="0"/>
  </filter>

  <!-- Sharper specular for weapons — heavier glare -->
  <filter id="wmr1x3475" x="-8%" y="-8%" width="116%" height="116%">
    <feSpecularLighting surfaceScale="6" specularConstant="2.4"
        specularExponent="65" lighting-color="#ffffff" result="spec">
      <feDistantLight elevation="44" azimuth="28"/>
    </feSpecularLighting>
    <feComposite in="spec" in2="SourceGraphic" operator="in" result="sm"/>
    <feComposite in="SourceGraphic" in2="sm" operator="arithmetic" k1="0" k2="1" k3="0.78" k4="0"/>
  </filter>

  <!-- Sketch wobble -->
  <filter id="skr1x3475" x="-8%" y="-8%" width="116%" height="116%">
    <feTurbulence type="fractalNoise" baseFrequency="0.038"
        numOctaves="3" seed="32" result="noise"/>
    <feDisplacementMap in="SourceGraphic" in2="noise" scale="2.6"
        xChannelSelector="R" yChannelSelector="G" result="w"/>
    <feComposite in="w" in2="SourceGraphic" operator="atop"/>
  </filter>

  <!-- Glow: sharp accent -->
  <filter id="glowr1x3475" x="-20%" y="-20%" width="140%" height="140%">
    <feGaussianBlur stdDeviation="3.5" result="b"/>
    <feColorMatrix in="b" type="matrix"
        values="0 0 0 0 1  0 0 0 0 1  0 0 0 0 1  0 0 0 1.8 0" result="boost"/>
    <feMerge><feMergeNode in="boost"/><feMergeNode in="SourceGraphic"/></feMerge>
  </filter>

  <!-- Bloom: wide soft -->
  <filter id="bloomr1x3475" x="-40%" y="-40%" width="180%" height="180%">
    <feGaussianBlur stdDeviation="11" result="b"/>
    <feMerge><feMergeNode in="b"/><feMergeNode in="SourceGraphic"/></feMerge>
  </filter>

  </defs><rect width="1000" height="1000" fill="url(#bgr1x3475)"/><ellipse cx="500.0" cy="892.0" rx="350.0" ry="65.0" fill="rgba(0,0,0,.7)" filter="url(#bloomr1x3475)"/><ellipse cx="500.0" cy="889.0" rx="220.0" ry="34.0" fill="rgba(0,0,0,.45)"/><ellipse cx="500.0" cy="520.0" rx="320.0" ry="480.0" fill="#ff6600" fill-opacity=".042" filter="url(#bloomr1x3475)"/><circle cx="486.7" cy="783.5" r="3.1" fill="#ff6600" fill-opacity="0.73" filter="url(#glowr1x3475)"/><circle cx="493.0" cy="260.2" r="4.0" fill="#ff6600" fill-opacity="0.86" filter="url(#glowr1x3475)"/><circle cx="727.7" cy="564.0" r="3.3" fill="#ff6600" fill-opacity="0.56" filter="url(#glowr1x3475)"/><circle cx="465.1" cy="357.1" r="4.2" fill="#ff6600" fill-opacity="0.70" filter="url(#glowr1x3475)"/><circle cx="694.0" cy="789.8" r="3.6" fill="#ff6600" fill-opacity="0.60" filter="url(#glowr1x3475)"/><circle cx="580.5" cy="321.9" r="0.9" fill="#ff6600" fill-opacity="0.41" filter="url(#glowr1x3475)"/><circle cx="286.0" cy="367.0" r="0.7" fill="#ff6600" fill-opacity="0.59" filter="url(#glowr1x3475)"/><circle cx="580.1" cy="587.3" r="3.1" fill="#ff6600" fill-opacity="0.56" filter="url(#glowr1x3475)"/><circle cx="294.8" cy="712.5" r="2.1" fill="#ff6600" fill-opacity="0.64" filter="url(#glowr1x3475)"/><circle cx="671.5" cy="309.7" r="3.6" fill="#ff6600" fill-opacity="0.80" filter="url(#glowr1x3475)"/><circle cx="447.0" cy="587.5" r="1.3" fill="#ff6600" fill-opacity="0.81" filter="url(#glowr1x3475)"/><circle cx="719.9" cy="626.5" r="4.0" fill="#ff6600" fill-opacity="0.90" filter="url(#glowr1x3475)"/><circle cx="602.4" cy="598.8" r="0.7" fill="#ff6600" fill-opacity="0.58" filter="url(#glowr1x3475)"/><circle cx="650.2" cy="240.4" r="1.8" fill="#ff6600" fill-opacity="0.39" filter="url(#glowr1x3475)"/><polygon points="400.6,662.4 490.0,663.1 481.5,876.1 386.0,875.8" fill="url(#suitr1x3475)" stroke="#ff2040" stroke-width="2.2" filter="url(#skr1x3475) url(#metalr1x3475)"/><polygon points="398.2,661.3 488.0,661.0 481.2,877.2 386.1,877.9" fill="url(#carbonr1x3475)"/><polygon points="392.3,722.7 493.1,723.8 485.1,789.3 382.9,786.5" fill="url(#bevelr1x3475)" fill-opacity=".5" stroke="#ff2040" stroke-width="1.4" filter="url(#skr1x3475)"/><polygon points="509.9,662.4 600.0,663.8 613.6,876.3 518.0,876.5" fill="url(#suitr1x3475)" stroke="#ff2040" stroke-width="2.2" filter="url(#skr1x3475) url(#metalr1x3475)"/><polygon points="510.7,663.3 600.9,661.9 612.3,878.4 520.5,878.1" fill="url(#carbonr1x3475)"/><polygon points="507.7,722.0 607.5,723.6 617.6,788.1 516.5,787.9" fill="url(#bevelr1x3475)" fill-opacity=".5" stroke="#ff2040" stroke-width="1.4" filter="url(#skr1x3475)"/><rect x="393.0" y="837.3" width="100.3" height="24.7" fill="url(#bevelr1x3475)" stroke="#ff2040" stroke-width="1" filter="url(#skr1x3475)"/><rect x="508.0"  y="837.3" width="100.3" height="24.7" fill="url(#bevelr1x3475)" stroke="#ff2040" stroke-width="1" filter="url(#skr1x3475)"/><polygon points="370.7,877.1 498.3,876.4 503.3,922.5 362.1,923.1" fill="#cc0020" stroke="#ff2040" stroke-width="2" filter="url(#skr1x3475)"/><polygon points="502.7,876.0 630.7,877.5 636.7,919.7 496.3,920.5" fill="#cc0020" stroke="#ff2040" stroke-width="2" filter="url(#skr1x3475)"/><polygon points="303.2,633.5 696.4,632.4 636.8,681.4 361.1,681.3" fill="#ff2040" fill-opacity=".52" stroke="#ff2040" stroke-width="2" filter="url(#skr1x3475)"/><rect x="465.5" y="638.5" width="72.0" height="42.0" fill="url(#bevelr1x3475)" stroke="#ff2040" stroke-width="1.4" filter="url(#glowr1x3475)"/><rect x="484.9" y="639.8" width="28.0" height="22.0" rx="1" fill="rgba(255,255,255,.48)"/><polygon points="153.0,465.2 235.9,468.2 256.9,734.6 127.4,734.5" fill="url(#suitr1x3475)" stroke="#ff2040" stroke-width="2.2" filter="url(#skr1x3475) url(#metalr1x3475)"/><polygon points="174.8,431.9 254.2,431.9 241.7,511.6 161.1,510.6" fill="url(#bevelr1x3475)" fill-opacity=".72" stroke="#ff2040" stroke-width="2.2" filter="url(#skr1x3475)"/><polygon points="161.4,620.7 243.4,621.9 239.2,662.3 164.0,659.6" fill="#ff2040" fill-opacity=".42" stroke="#ff2040" stroke-width="1" filter="url(#skr1x3475)"/><polygon points="766.4,465.1 847.1,465.8 871.0,736.7 740.3,734.7" fill="url(#suitr1x3475)" stroke="#ff2040" stroke-width="2.2" filter="url(#skr1x3475) url(#metalr1x3475)"/><polygon points="747.1,430.4 826.7,432.2 840.2,512.2 757.2,512.0" fill="url(#bevelr1x3475)" fill-opacity=".72" stroke="#ff2040" stroke-width="2.2" filter="url(#skr1x3475)"/><polygon points="758.2,623.0 838.4,621.6 834.7,660.2 762.5,662.6" fill="#ff2040" fill-opacity=".42" stroke="#ff2040" stroke-width="1" filter="url(#skr1x3475)"/><rect x="119.6"  y="700.5" width="135.3" height="85.0" rx="4" fill="url(#bevelr1x3475)" stroke="#ff2040" stroke-width="1.8" filter="url(#skr1x3475)"/><rect x="747.4"   y="700.0" width="135.3" height="85.0" rx="4" fill="url(#bevelr1x3475)" stroke="#ff2040" stroke-width="1.8" filter="url(#skr1x3475)"/><line x1="151.0" y1="703.0" x2="150.9" y2="784.6" stroke="#ff2040" stroke-opacity=".38" stroke-width="1"/><line x1="779.0" y1="700.6" x2="776.6" y2="782.6" stroke="#ff2040" stroke-opacity=".38" stroke-width="1"/><line x1="182.2" y1="703.2" x2="182.3" y2="783.3" stroke="#ff2040" stroke-opacity=".38" stroke-width="1"/><line x1="812.4" y1="702.6" x2="812.1" y2="783.0" stroke="#ff2040" stroke-opacity=".38" stroke-width="1"/><line x1="216.0" y1="700.3" x2="216.9" y2="785.2" stroke="#ff2040" stroke-opacity=".38" stroke-width="1"/><line x1="843.0" y1="702.1" x2="844.3" y2="785.2" stroke="#ff2040" stroke-opacity=".38" stroke-width="1"/><polygon points="233.9,417.9 763.8,416.5 722.5,662.5 277.3,661.2" fill="url(#suitr1x3475)" stroke="#ff2040" stroke-width="2.6" filter="url(#skr1x3475) url(#metalr1x3475)"/><polygon points="234.2,416.4 764.3,417.8 724.1,663.2 277.9,664.0" fill="url(#carbonr1x3475)"/><polygon points="366.1,416.0 632.7,417.0 612.1,514.9 390.0,513.7" fill="url(#suitHir1x3475)"/><line x1="360.8" y1="473.1" x2="638.8" y2="471.8" stroke="#ff2040" stroke-opacity=".52" stroke-width="1.3" filter="url(#skr1x3475)"/><line x1="398.7" y1="548.3" x2="599.5" y2="550.8" stroke="#ff2040" stroke-opacity=".52" stroke-width="1.3" filter="url(#skr1x3475)"/><line x1="266.0" y1="489.9" x2="319.3" y2="491.1" stroke="#ff2040" stroke-opacity=".62" stroke-width="1.8"/><line x1="679.0" y1="490.4" x2="734.5" y2="491.6" stroke="#ff2040" stroke-opacity=".62" stroke-width="1.8"/><line x1="268.1" y1="522.1" x2="318.4" y2="524.6" stroke="#ff2040" stroke-opacity=".62" stroke-width="1.8"/><line x1="678.7" y1="523.0" x2="732.1" y2="523.6" stroke="#ff2040" stroke-opacity=".62" stroke-width="1.8"/><line x1="266.6" y1="556.1" x2="319.0" y2="555.0" stroke="#ff2040" stroke-opacity=".62" stroke-width="1.8"/><line x1="679.7" y1="553.5" x2="733.0" y2="555.9" stroke="#ff2040" stroke-opacity=".62" stroke-width="1.8"/><line x1="267.4" y1="585.6" x2="319.8" y2="586.0" stroke="#ff2040" stroke-opacity=".62" stroke-width="1.8"/><line x1="679.1" y1="585.4" x2="733.8" y2="587.1" stroke="#ff2040" stroke-opacity=".62" stroke-width="1.8"/><g filter="url(#glowr1x3475)"><path d="M500.0,449.7 C462.3,446.8 442.0,481.6 447.8,513.5 L459.4,542.5 C476.8,536.7 491.3,551.2 500.0,551.2 C508.7,551.2 523.2,536.7 540.6,542.5 L552.2,513.5 C558.0,481.6 537.7,446.8 500.0,449.7 Z" fill="#ff2040" fill-opacity=".92" stroke="#0a0520" stroke-width="1.3" filter="url(#skr1x3475)"/><path d="M483.8,519.3 Q500.0,533.8 516.2,519.3" stroke="#0a0520" stroke-width="1" fill="none" opacity=".58"/><ellipse cx="481.4" cy="497.8" rx="8.7" ry="6.4" fill="#0a0520" opacity=".95"/><ellipse cx="518.6" cy="497.8" rx="8.7" ry="6.4" fill="#0a0520" opacity=".95"/><ellipse cx="481.4" cy="497.8" rx="2.3" ry="5.8" fill="#ff2040"/><ellipse cx="518.6" cy="497.8" rx="2.3" ry="5.8" fill="#ff2040"/><path d="M471.0,467.1 L458.2,426.5 L481.4,463.0" fill="#ff2040" stroke="#0a0520" stroke-width=".9"/><path d="M529.0,467.1 L541.8,426.5 L518.6,463.0" fill="#ff2040" stroke="#0a0520" stroke-width=".9"/><path d="M476.8,452.6 C488.4,449.1 511.6,449.1 523.2,452.6" fill="rgba(255,255,255,.18)"/></g><g><polygon points="871.8,671.4 923.8,671.4 908.2,-28.6 887.4,-28.6" fill="url(#blader1x3475)" filter="url(#wmr1x3475)"/><polygon points="887.4,-28.6 908.2,-28.6 897.8,-138.6" fill="url(#blader1x3475)" filter="url(#wmr1x3475)"/><polygon points="896.0,671.4 899.7,671.4 898.4,-128.6 897.3,-128.6" fill="url(#bladeTipr1x3475)" opacity=".9"/><line x1="905.9132392583415" y1="672.2601563391275" x2="900.2480229567923" y2="-127.93660159669818" stroke="rgba(255,255,255,.68)" stroke-width="1.5"/><line x1="889.8538765887916" y1="670.0656090466306" x2="895.3907028680668" y2="-128.8332341344096" stroke="#ff2040" stroke-width="1" stroke-opacity=".45"/><line x1="902.5" y1="651.4" x2="899.7" y2="11.4" stroke="rgba(0,0,0,.38)" stroke-width="1.6"/><line x1="893.2" y1="651.4" x2="896.0" y2="11.4" stroke="rgba(0,0,0,.38)" stroke-width="1.6"/><rect x="842.4299336740374" y="668.7546367282048" width="112.0" height="28.0" rx="3" fill="url(#bevelr1x3475)" stroke="#ff2040" stroke-width="1.6" filter="url(#wmr1x3475)"/><rect x="865.690825154502" y="672.4139625752345" width="64.0" height="10.0" rx="1" fill="rgba(255,255,255,.32)"/><rect x="886.7461278702691" y="675.7676218310371" width="24.0" height="6.0" rx="1" fill="#ff2040" fill-opacity=".35"/><rect x="886.7558541167156" y="685.4092655317858" width="24.0" height="6.0" rx="1" fill="#ff2040" fill-opacity=".35"/><rect x="884.7450969315693" y="693.8161794515327" width="24.0" height="6.0" rx="1" fill="#ff2040" fill-opacity=".35"/><rect x="885.499353757929" y="702.0463878898881" width="24.0" height="6.0" rx="1" fill="#ff2040" fill-opacity=".35"/><rect x="885.6250673513488" y="709.7934137423523" width="24.0" height="6.0" rx="1" fill="#ff2040" fill-opacity=".35"/><rect x="885.3255070344172" y="718.464488241449" width="24.0" height="6.0" rx="1" fill="#ff2040" fill-opacity=".35"/><ellipse cx="897.329362242166" cy="725.7250218197703" rx="22.0" ry="16.0" fill="url(#bevelr1x3475)" stroke="#ff2040" stroke-width="1.2" filter="url(#wmr1x3475)"/></g><rect x="451.04761302201075" y="557.7071851309389" width="100.0"  height="56.0" fill="#cc0020" stroke="#ff2040" stroke-width="2.2" filter="url(#skr1x3475)"/><rect x="422.92694668564945" y="576.5426552246325" width="152.0" height="26.0" fill="url(#bevelr1x3475)" fill-opacity=".65" stroke="#ff2040" stroke-width="1.2" filter="url(#skr1x3475)"/><polygon points="307.0,379.1 350.3,294.0 498.9,278.1 649.8,293.6 690.7,381.5 669.1,503.6 501.4,566.1 330.0,502.0" fill="url(#suitr1x3475)" stroke="#ff2040" stroke-width="2.8" filter="url(#skr1x3475) url(#metalr1x3475)"/><polygon points="308.8,378.8 350.9,294.4 499.8,278.7 650.3,293.5 692.1,381.7 669.9,505.4 499.4,564.6 332.5,504.4" fill="url(#carbonr1x3475)"/><polygon points="379.6,303.1 499.5,284.6 618.3,303.7 608.5,379.1 393.6,379.4" fill="url(#suitHir1x3475)"/><polygon points="381.9,380.1 364.3,425.6 431.1,504.6 500.3,526.7 567.3,504.2 635.2,425.6 617.9,379.1" fill="#0a0520" fill-opacity=".88" stroke="#ff2040" stroke-width="1.8" filter="url(#skr1x3475)"/><polygon points="380.8,411.5 477.7,411.1 485.5,441.3 388.0,441.0" fill="#ff2040" filter="url(#glowr1x3475)"/><polygon points="523.2,412.7 618.3,411.8 610.4,439.4 515.9,440.7" fill="#ff2040" filter="url(#glowr1x3475)"/><ellipse cx="430.9" cy="425.7" rx="38.4"  ry="8.2" fill="#ffffff" opacity=".88"/><ellipse cx="569.1" cy="425.7" rx="38.4"  ry="8.2" fill="#ffffff" opacity=".88"/><line x1="484.824690498095" y1="414.06137800840656" x2="514.8711545332708" y2="412.44734996622424" stroke="#ff2040" stroke-opacity=".52" stroke-width="2"/><line x1="485.1100827441178" y1="437.53112345449625" x2="516.984835166894" y2="436.3004386357963" stroke="#ff2040" stroke-opacity=".52" stroke-width="2"/><line x1="501.26484181256967" y1="453.1669924955815" x2="499.0055325280875" y2="481.50074576456103" stroke="#ff2040" stroke-opacity=".58" stroke-width="2.2" filter="url(#skr1x3475)"/><line x1="455.10307631611823" y1="491.4537026230245" x2="453.4416810905375" y2="520.1722425395623" stroke="#ff2040" stroke-opacity=".52" stroke-width="1.5" filter="url(#skr1x3475)"/><line x1="477.53565898699685" y1="491.10301509732375" x2="475.3708899863437" y2="520.885961375013" stroke="#ff2040" stroke-opacity=".52" stroke-width="1.5" filter="url(#skr1x3475)"/><line x1="501.57422756403685" y1="492.8615421059541" x2="499.6759790021926" y2="519.4460887324997" stroke="#ff2040" stroke-opacity=".52" stroke-width="1.5" filter="url(#skr1x3475)"/><line x1="523.6278445525653" y1="492.0392077461816" x2="522.281689727176" y2="521.4022158595733" stroke="#ff2040" stroke-opacity=".52" stroke-width="1.5" filter="url(#skr1x3475)"/><line x1="546.0057950045169" y1="491.4026992199942" x2="546.1980860690772" y2="521.5916630399413" stroke="#ff2040" stroke-opacity=".52" stroke-width="1.5" filter="url(#skr1x3475)"/><polygon points="432.4,502.4 568.1,503.7 552.4,557.2 446.0,556.0" fill="#cc0020" fill-opacity=".72" stroke="#ff2040" stroke-width="1.3" filter="url(#skr1x3475)"/><text x="30.0"  y="975.0" font-family="monospace" font-weight="bold" font-size="22.0" fill="rgba(255,255,255,.22)">#0001</text><text x="500.0"   y="975.0" text-anchor="middle" font-family="monospace" font-weight="bold" font-size="22.0" fill="#ff2040" fill-opacity=".48">CRIMSON RANGER</text><text x="970.0" y="975.0" text-anchor="end"    font-family="monospace" font-weight="bold" font-size="22.0" fill="#ff2040" fill-opacity=".32">MECH RANGERS</text></svg>