<svg xmlns="http://www.w3.org/2000/svg" viewBox="0 0 1000 1000" width="1000" height="1000" shape-rendering="geometricPrecision"><defs>

  <!-- Scene gradients -->
  <radialGradient id="bgr1x35" cx="50%" cy="42%" r="72%">
    <stop offset="0%"   stop-color="#1a2814"/>
    <stop offset="100%" stop-color="#0d1520"/>
  </radialGradient>
  <linearGradient id="suitr1x35" x1="8%" y1="0%" x2="92%" y2="100%">
    <stop offset="0%"   stop-color="#00ff60" stop-opacity=".95"/>
    <stop offset="45%"  stop-color="#00441e"/>
    <stop offset="100%" stop-color="#0d1520"/>
  </linearGradient>
  <linearGradient id="suitHir1x35" x1="0%" y1="0%" x2="0%" y2="100%">
    <stop offset="0%"   stop-color="rgba(255,255,255,.28)"/>
    <stop offset="60%"  stop-color="rgba(255,255,255,.04)"/>
    <stop offset="100%" stop-color="rgba(255,255,255,0)"/>
  </linearGradient>
  <!-- Bevel: bright top, dark bottom for armour panels -->
  <linearGradient id="bevelr1x35" x1="0%" y1="0%" x2="0%" y2="100%">
    <stop offset="0%"   stop-color="rgba(255,255,255,.55)"/>
    <stop offset="30%"  stop-color="#00ff60"/>
    <stop offset="70%"  stop-color="#00441e"/>
    <stop offset="100%" stop-color="rgba(0,0,0,.5)"/>
  </linearGradient>

  <!-- Weapon: cold steel blade sweep -->
  <linearGradient id="blader1x35" x1="0%" y1="0%" x2="100%" y2="0%">
    <stop offset="0%"   stop-color="#0e0e20"/>
    <stop offset="16%"  stop-color="#3e3e58"/>
    <stop offset="34%"  stop-color="#c8c8e0"/>
    <stop offset="50%"  stop-color="#f5f5ff"/>
    <stop offset="66%"  stop-color="#b8b8d0"/>
    <stop offset="84%"  stop-color="#2e2e48"/>
    <stop offset="100%" stop-color="#08080e"/>
  </linearGradient>
  <!-- Blade tip brightening -->
  <linearGradient id="bladeTipr1x35" x1="0%" y1="100%" x2="0%" y2="0%">
    <stop offset="0%"   stop-color="rgba(255,255,255,0)"/>
    <stop offset="55%"  stop-color="rgba(255,255,255,.1)"/>
    <stop offset="100%" stop-color="rgba(255,255,255,.55)"/>
  </linearGradient>
  <!-- Gunmetal anodised — blaster body -->
  <linearGradient id="gunmetalr1x35" x1="0%" y1="0%" x2="0%" y2="100%">
    <stop offset="0%"   stop-color="#46465e"/>
    <stop offset="18%"  stop-color="#828296"/>
    <stop offset="42%"  stop-color="#26263a"/>
    <stop offset="72%"  stop-color="#16162a"/>
    <stop offset="100%" stop-color="#0c0c18"/>
  </linearGradient>
  <!-- Brushed steel tube — barrel/rod -->
  <linearGradient id="barrelr1x35" x1="0%" y1="0%" x2="100%" y2="0%">
    <stop offset="0%"   stop-color="#0a0a14"/>
    <stop offset="24%"  stop-color="#585875"/>
    <stop offset="50%"  stop-color="#a8a8c8"/>
    <stop offset="76%"  stop-color="#383852"/>
    <stop offset="100%" stop-color="#0a0a14"/>
  </linearGradient>
  <!-- Chrome rod — lance shaft -->
  <linearGradient id="chromer1x35" x1="0%" y1="0%" x2="100%" y2="0%">
    <stop offset="0%"   stop-color="#0c0c18"/>
    <stop offset="20%"  stop-color="#686888"/>
    <stop offset="44%"  stop-color="#e0e0f0"/>
    <stop offset="56%"  stop-color="#c0c0d8"/>
    <stop offset="80%"  stop-color="#28283e"/>
    <stop offset="100%" stop-color="#0c0c18"/>
  </linearGradient>
  <!-- Titanium plate — shield face -->
  <linearGradient id="titaniumr1x35" x1="0%" y1="0%" x2="100%" y2="100%">
    <stop offset="0%"   stop-color="#585878"/>
    <stop offset="28%"  stop-color="#00ff60" stop-opacity=".88"/>
    <stop offset="55%"  stop-color="#00441e"/>
    <stop offset="80%"  stop-color="#181828"/>
    <stop offset="100%" stop-color="#0a0a18"/>
  </linearGradient>
  <!-- Artillery black-chrome — cannon body -->
  <linearGradient id="artilleryr1x35" x1="0%" y1="0%" x2="0%" y2="100%">
    <stop offset="0%"   stop-color="#383850"/>
    <stop offset="14%"  stop-color="#78789a"/>
    <stop offset="36%"  stop-color="#202034"/>
    <stop offset="65%"  stop-color="#14141e"/>
    <stop offset="100%" stop-color="#0a0a12"/>
  </linearGradient>
  <!-- Energy orb — staff -->
  <radialGradient id="orbr1x35" cx="35%" cy="35%" r="65%">
    <stop offset="0%"   stop-color="rgba(255,255,255,.9)"/>
    <stop offset="30%"  stop-color="#00ff60"/>
    <stop offset="68%"  stop-color="#00441e"/>
    <stop offset="100%" stop-color="rgba(0,0,0,.6)"/>
  </radialGradient>
  <!-- Knuckle plate chrome -->
  <linearGradient id="knuckler1x35" x1="0%" y1="0%" x2="0%" y2="100%">
    <stop offset="0%"   stop-color="#888aaa"/>
    <stop offset="32%"  stop-color="#00ff60" stop-opacity=".8"/>
    <stop offset="62%"  stop-color="#1a1a2c"/>
    <stop offset="100%" stop-color="#0a0a14"/>
  </linearGradient>

  <!-- Carbon fibre weave texture overlay -->
  <pattern id="carbonr1x35" width="6" height="6" patternUnits="userSpaceOnUse">
    <rect width="6" height="6" fill="rgba(0,0,0,.08)"/>
    <rect x="0" y="0" width="3" height="3" fill="rgba(255,255,255,.022)"/>
    <rect x="3" y="3" width="3" height="3" fill="rgba(255,255,255,.022)"/>
    <line x1="0" y1="0" x2="3" y2="3" stroke="rgba(255,255,255,.038)" stroke-width=".5"/>
    <line x1="3" y1="0" x2="6" y2="3" stroke="rgba(0,0,0,.055)"       stroke-width=".5"/>
    <line x1="0" y1="3" x2="3" y2="6" stroke="rgba(0,0,0,.055)"       stroke-width=".5"/>
    <line x1="3" y1="3" x2="6" y2="6" stroke="rgba(255,255,255,.038)" stroke-width=".5"/>
  </pattern>

  <!-- Specular metal sheen on armour panels -->
  <filter id="metalr1x35" x="-5%" y="-5%" width="110%" height="110%">
    <feSpecularLighting surfaceScale="4" specularConstant="1.8"
        specularExponent="42" lighting-color="#ffffff" result="spec">
      <feDistantLight elevation="52" azimuth="38"/>
    </feSpecularLighting>
    <feComposite in="spec" in2="SourceGraphic" operator="in" result="sm"/>
    <feComposite in="SourceGraphic" in2="sm" operator="arithmetic" k1="0" k2="1" k3="0.55" k4="0"/>
  </filter>

  <!-- Sharper specular for weapons — heavier glare -->
  <filter id="wmr1x35" x="-8%" y="-8%" width="116%" height="116%">
    <feSpecularLighting surfaceScale="6" specularConstant="2.4"
        specularExponent="65" lighting-color="#ffffff" result="spec">
      <feDistantLight elevation="44" azimuth="28"/>
    </feSpecularLighting>
    <feComposite in="spec" in2="SourceGraphic" operator="in" result="sm"/>
    <feComposite in="SourceGraphic" in2="sm" operator="arithmetic" k1="0" k2="1" k3="0.78" k4="0"/>
  </filter>

  <!-- Sketch wobble -->
  <filter id="skr1x35" x="-8%" y="-8%" width="116%" height="116%">
    <feTurbulence type="fractalNoise" baseFrequency="0.038"
        numOctaves="3" seed="15" result="noise"/>
    <feDisplacementMap in="SourceGraphic" in2="noise" scale="2.6"
        xChannelSelector="R" yChannelSelector="G" result="w"/>
    <feComposite in="w" in2="SourceGraphic" operator="atop"/>
  </filter>

  <!-- Glow: sharp accent -->
  <filter id="glowr1x35" x="-20%" y="-20%" width="140%" height="140%">
    <feGaussianBlur stdDeviation="3.5" result="b"/>
    <feColorMatrix in="b" type="matrix"
        values="0 0 0 0 1  0 0 0 0 1  0 0 0 0 1  0 0 0 1.8 0" result="boost"/>
    <feMerge><feMergeNode in="boost"/><feMergeNode in="SourceGraphic"/></feMerge>
  </filter>

  <!-- Bloom: wide soft -->
  <filter id="bloomr1x35" x="-40%" y="-40%" width="180%" height="180%">
    <feGaussianBlur stdDeviation="11" result="b"/>
    <feMerge><feMergeNode in="b"/><feMergeNode in="SourceGraphic"/></feMerge>
  </filter>

  </defs><rect width="1000" height="1000" fill="url(#bgr1x35)"/><ellipse cx="500.0" cy="892.0" rx="350.0" ry="65.0" fill="rgba(0,0,0,.7)" filter="url(#bloomr1x35)"/><ellipse cx="500.0" cy="889.0" rx="220.0" ry="34.0" fill="rgba(0,0,0,.45)"/><ellipse cx="500.0" cy="520.0" rx="320.0" ry="480.0" fill="#00e5ff" fill-opacity=".042" filter="url(#bloomr1x35)"/><circle cx="314.8" cy="690.3" r="1.0" fill="#00e5ff" fill-opacity="0.74" filter="url(#glowr1x35)"/><circle cx="450.8" cy="546.4" r="0.8" fill="#00e5ff" fill-opacity="0.70" filter="url(#glowr1x35)"/><circle cx="507.7" cy="798.7" r="2.5" fill="#00e5ff" fill-opacity="0.41" filter="url(#glowr1x35)"/><circle cx="622.2" cy="587.8" r="1.3" fill="#00e5ff" fill-opacity="0.60" filter="url(#glowr1x35)"/><circle cx="277.1" cy="334.5" r="3.3" fill="#00e5ff" fill-opacity="0.86" filter="url(#glowr1x35)"/><circle cx="583.2" cy="279.4" r="1.2" fill="#00e5ff" fill-opacity="0.51" filter="url(#glowr1x35)"/><circle cx="508.9" cy="314.4" r="1.8" fill="#00e5ff" fill-opacity="0.45" filter="url(#glowr1x35)"/><circle cx="602.9" cy="402.8" r="0.6" fill="#00e5ff" fill-opacity="0.59" filter="url(#glowr1x35)"/><circle cx="674.6" cy="363.2" r="0.8" fill="#00e5ff" fill-opacity="0.50" filter="url(#glowr1x35)"/><circle cx="719.8" cy="442.4" r="1.2" fill="#00e5ff" fill-opacity="0.69" filter="url(#glowr1x35)"/><circle cx="495.6" cy="452.0" r="1.5" fill="#00e5ff" fill-opacity="0.84" filter="url(#glowr1x35)"/><circle cx="748.0" cy="351.8" r="3.0" fill="#00e5ff" fill-opacity="0.40" filter="url(#glowr1x35)"/><circle cx="706.9" cy="647.0" r="1.9" fill="#00e5ff" fill-opacity="0.44" filter="url(#glowr1x35)"/><circle cx="270.2" cy="625.1" r="1.6" fill="#00e5ff" fill-opacity="0.78" filter="url(#glowr1x35)"/><path d="M614.7,340.9 Q640.9,590.3 676.1,810.1" stroke="#00e5ff" stroke-opacity="0.65" stroke-width="1.5" fill="none" filter="url(#glowr1x35)"/><path d="M497.2,235.2 Q471.0,511.6 516.6,739.3" stroke="#00e5ff" stroke-opacity="0.67" stroke-width="1.1" fill="none" filter="url(#glowr1x35)"/><path d="M342.2,391.8 Q324.4,530.1 330.7,667.8" stroke="#00e5ff" stroke-opacity="0.39" stroke-width="0.9" fill="none" filter="url(#glowr1x35)"/><path d="M340.4,357.7 Q302.1,499.7 350.4,648.5" stroke="#00e5ff" stroke-opacity="0.79" stroke-width="2.6" fill="none" filter="url(#glowr1x35)"/><path d="M452.0,328.6 Q461.5,537.3 675.1,749.3" stroke="#00e5ff" stroke-opacity="0.60" stroke-width="1.4" fill="none" filter="url(#glowr1x35)"/><polygon points="400.2,663.2 490.8,661.5 479.9,877.6 389.0,877.4" fill="url(#suitr1x35)" stroke="#00ff60" stroke-width="2.2" filter="url(#skr1x35) url(#metalr1x35)"/><polygon points="398.0,662.5 487.7,662.1 480.4,877.0 388.2,878.3" fill="url(#carbonr1x35)"/><polygon points="394.4,724.4 491.7,725.2 485.3,788.9 384.0,789.3" fill="url(#bevelr1x35)" fill-opacity=".5" stroke="#00ff60" stroke-width="1.4" filter="url(#skr1x35)"/><polygon points="511.5,661.9 600.6,661.9 614.4,877.5 517.6,875.7" fill="url(#suitr1x35)" stroke="#00ff60" stroke-width="2.2" filter="url(#skr1x35) url(#metalr1x35)"/><polygon points="509.8,663.9 600.5,660.8 613.3,877.0 518.4,877.8" fill="url(#carbonr1x35)"/><polygon points="507.6,722.9 608.9,725.2 616.7,786.6 515.5,788.2" fill="url(#bevelr1x35)" fill-opacity=".5" stroke="#00ff60" stroke-width="1.4" filter="url(#skr1x35)"/><rect x="391.6" y="837.5" width="100.3" height="24.7" fill="url(#bevelr1x35)" stroke="#00ff60" stroke-width="1" filter="url(#skr1x35)"/><rect x="508.1"  y="837.4" width="100.3" height="24.7" fill="url(#bevelr1x35)" stroke="#00ff60" stroke-width="1" filter="url(#skr1x35)"/><polygon points="369.0,878.9 496.5,875.9 504.4,920.3 361.9,921.2" fill="#00441e" stroke="#00ff60" stroke-width="2" filter="url(#skr1x35)"/><polygon points="505.0,878.7 628.6,878.9 637.6,920.1 497.9,922.7" fill="#00441e" stroke="#00ff60" stroke-width="2" filter="url(#skr1x35)"/><polygon points="305.6,632.2 694.5,632.8 637.5,680.9 361.7,682.3" fill="#00ff60" fill-opacity=".52" stroke="#00ff60" stroke-width="2" filter="url(#skr1x35)"/><rect x="465.7" y="638.9" width="72.0" height="42.0" fill="url(#bevelr1x35)" stroke="#00ff60" stroke-width="1.4" filter="url(#glowr1x35)"/><rect x="484.6" y="641.1" width="28.0" height="22.0" rx="1" fill="rgba(255,255,255,.48)"/><polygon points="153.9,468.2 234.2,466.1 259.4,734.0 128.8,735.3" fill="url(#suitr1x35)" stroke="#00ff60" stroke-width="2.2" filter="url(#skr1x35) url(#metalr1x35)"/><polygon points="173.2,433.7 254.2,432.8 244.9,509.7 160.4,510.5" fill="url(#bevelr1x35)" fill-opacity=".72" stroke="#00ff60" stroke-width="2.2" filter="url(#skr1x35)"/><polygon points="161.5,621.1 242.7,622.1 239.6,661.5 165.5,659.9" fill="#00ff60" fill-opacity=".42" stroke="#00ff60" stroke-width="1" filter="url(#skr1x35)"/><polygon points="765.4,466.8 845.5,468.2 870.6,735.3 742.9,734.5" fill="url(#suitr1x35)" stroke="#00ff60" stroke-width="2.2" filter="url(#skr1x35) url(#metalr1x35)"/><polygon points="747.7,433.4 828.3,431.5 840.9,508.9 755.5,509.5" fill="url(#bevelr1x35)" fill-opacity=".72" stroke="#00ff60" stroke-width="2.2" filter="url(#skr1x35)"/><polygon points="755.0,620.5 837.7,622.4 834.7,662.3 762.3,660.6" fill="#00ff60" fill-opacity=".42" stroke="#00ff60" stroke-width="1" filter="url(#skr1x35)"/><rect x="118.7"  y="699.3" width="135.3" height="85.0" rx="4" fill="url(#bevelr1x35)" stroke="#00ff60" stroke-width="1.8" filter="url(#skr1x35)"/><rect x="748.8"   y="698.9" width="135.3" height="85.0" rx="4" fill="url(#bevelr1x35)" stroke="#00ff60" stroke-width="1.8" filter="url(#skr1x35)"/><line x1="150.2" y1="703.2" x2="148.6" y2="785.4" stroke="#00ff60" stroke-opacity=".38" stroke-width="1"/><line x1="779.3" y1="700.6" x2="777.0" y2="784.7" stroke="#00ff60" stroke-opacity=".38" stroke-width="1"/><line x1="182.5" y1="702.3" x2="183.9" y2="783.3" stroke="#00ff60" stroke-opacity=".38" stroke-width="1"/><line x1="811.4" y1="702.0" x2="809.7" y2="782.1" stroke="#00ff60" stroke-opacity=".38" stroke-width="1"/><line x1="216.0" y1="701.7" x2="215.4" y2="784.6" stroke="#00ff60" stroke-opacity=".38" stroke-width="1"/><line x1="842.2" y1="701.7" x2="842.2" y2="784.0" stroke="#00ff60" stroke-opacity=".38" stroke-width="1"/><polygon points="236.6,418.9 765.6,417.5 721.8,662.8 277.0,663.0" fill="url(#suitr1x35)" stroke="#00ff60" stroke-width="2.6" filter="url(#skr1x35) url(#metalr1x35)"/><polygon points="233.5,418.8 765.2,416.5 722.7,661.9 277.6,663.4" fill="url(#carbonr1x35)"/><polygon points="366.2,416.5 632.3,416.4 612.3,515.8 390.1,514.2" fill="url(#suitHir1x35)"/><line x1="363.1" y1="473.1" x2="637.2" y2="472.8" stroke="#00ff60" stroke-opacity=".52" stroke-width="1.3" filter="url(#skr1x35)"/><line x1="399.2" y1="550.8" x2="602.5" y2="550.0" stroke="#00ff60" stroke-opacity=".52" stroke-width="1.3" filter="url(#skr1x35)"/><line x1="267.7" y1="491.6" x2="320.0" y2="490.9" stroke="#00ff60" stroke-opacity=".62" stroke-width="1.8"/><line x1="680.8" y1="491.7" x2="734.1" y2="491.4" stroke="#00ff60" stroke-opacity=".62" stroke-width="1.8"/><line x1="265.8" y1="524.3" x2="320.9" y2="523.2" stroke="#00ff60" stroke-opacity=".62" stroke-width="1.8"/><line x1="678.8" y1="522.1" x2="734.7" y2="523.2" stroke="#00ff60" stroke-opacity=".62" stroke-width="1.8"/><line x1="266.1" y1="555.4" x2="318.1" y2="556.2" stroke="#00ff60" stroke-opacity=".62" stroke-width="1.8"/><line x1="679.0" y1="554.1" x2="733.4" y2="553.1" stroke="#00ff60" stroke-opacity=".62" stroke-width="1.8"/><line x1="266.4" y1="587.4" x2="318.5" y2="587.6" stroke="#00ff60" stroke-opacity=".62" stroke-width="1.8"/><line x1="681.2" y1="587.8" x2="733.5" y2="586.8" stroke="#00ff60" stroke-opacity=".62" stroke-width="1.8"/><g filter="url(#glowr1x35)"><polygon points="500.2,452.7 516.5,490.9 555.4,492.6 525.5,518.2 535.7,558.3 500.1,537.0 466.1,557.2 477.1,517.4 446.4,492.2 486.1,491.1 " fill="#00ff60" stroke="#0d1520" stroke-width="1.4" filter="url(#skr1x35)"/><polygon points="500.2,452.7 516.5,490.9 555.4,492.6 525.5,518.2 535.7,558.3 500.1,537.0 466.1,557.2 477.1,517.4 446.4,492.2 486.1,491.1 " fill="url(#suitHir1x35)" opacity=".45"/></g><g><polygon points="828.5,291.7 967.8,293.1 966.1,589.9 898.0,724.7 829.1,593.0" fill="url(#titaniumr1x35)" stroke="#00ff60" stroke-width="2.6" filter="url(#wmr1x35)"/><polygon points="828.4,293.7 969.1,293.8 966.1,590.4 899.0,726.6 826.7,592.6" fill="url(#carbonr1x35)"/><polygon points="859.7,360.0 934.3,362.5 934.2,542.9 899.6,631.8 861.6,539.9" fill="#00ff60" fill-opacity=".28" stroke="#00ff60" stroke-width="1.5"/><line x1="846.6136160236412" y1="432.5173797679133" x2="950.1447215391883" y2="431.1310526590794" stroke="#00ff60" stroke-opacity=".65" stroke-width="1.3"/><line x1="899.0180808988027" y1="330.8585592349991" x2="899.2170562025718" y2="590.9671238501556" stroke="#00ff60" stroke-opacity=".4" stroke-width="1"/><line x1="829.3223196791113" y1="296.0754650758579" x2="967.2366644940898" y2="297.1920365022495" stroke="rgba(255,255,255,.5)" stroke-width="2"/><circle cx="898.6027384775318" cy="430.4578867971897" r="18.0" fill="url(#bevelr1x35)" stroke="#00ff60" stroke-width="1.2" filter="url(#wmr1x35)"/></g><rect x="451.3414027456194" y="557.506696993392" width="100.0"  height="56.0" fill="#00441e" stroke="#00ff60" stroke-width="2.2" filter="url(#skr1x35)"/><rect x="422.4041772260331" y="577.0459132246673" width="152.0" height="26.0" fill="url(#bevelr1x35)" fill-opacity=".65" stroke="#00ff60" stroke-width="1.2" filter="url(#skr1x35)"/><polygon points="307.8,382.0 349.1,294.7 499.2,277.9 651.2,293.4 693.0,380.0 669.0,504.5 501.4,563.4 329.7,503.0" fill="url(#suitr1x35)" stroke="#00ff60" stroke-width="2.8" filter="url(#skr1x35) url(#metalr1x35)"/><polygon points="306.8,382.4 349.1,293.1 499.7,279.0 651.2,296.0 691.5,381.4 670.1,503.1 499.1,566.0 330.1,504.3" fill="url(#carbonr1x35)"/><polygon points="379.2,301.4 499.3,285.6 620.6,301.1 606.4,382.2 391.9,381.3" fill="url(#suitHir1x35)"/><polygon points="380.0,382.1 365.1,426.0 432.0,504.6 500.5,527.8 566.6,502.0 632.7,426.5 620.4,378.9" fill="#0d1520" fill-opacity=".88" stroke="#00ff60" stroke-width="1.8" filter="url(#skr1x35)"/><polygon points="379.5,411.5 477.5,412.5 485.6,438.8 389.0,440.5" fill="#00ff60" filter="url(#glowr1x35)"/><polygon points="524.6,412.9 620.8,409.7 610.5,440.5 516.4,441.5" fill="#00ff60" filter="url(#glowr1x35)"/><ellipse cx="430.9" cy="425.7" rx="38.4"  ry="8.2" fill="#ffffff" opacity=".88"/><ellipse cx="569.1" cy="425.7" rx="38.4"  ry="8.2" fill="#ffffff" opacity=".88"/><line x1="484.9757420802116" y1="413.1446076675318" x2="516.7938817778044" y2="414.04811761882155" stroke="#00ff60" stroke-opacity=".52" stroke-width="2"/><line x1="485.5853937833197" y1="438.3204434079118" x2="515.7277268133499" y2="436.5679344959557" stroke="#00ff60" stroke-opacity=".52" stroke-width="2"/><line x1="498.9057589401491" y1="453.5777317935601" x2="499.4202493852936" y2="484.5844545052387" stroke="#00ff60" stroke-opacity=".58" stroke-width="2.2" filter="url(#skr1x35)"/><line x1="453.92978600606324" y1="490.54536288082596" x2="454.9341273842193" y2="521.7867877644487" stroke="#00ff60" stroke-opacity=".52" stroke-width="1.5" filter="url(#skr1x35)"/><line x1="475.548780384697" y1="492.2038097074255" x2="475.29536841683085" y2="518.4008352715522" stroke="#00ff60" stroke-opacity=".52" stroke-width="1.5" filter="url(#skr1x35)"/><line x1="500.51489077908917" y1="491.9384370269253" x2="499.520257200487" y2="520.0305209326558" stroke="#00ff60" stroke-opacity=".52" stroke-width="1.5" filter="url(#skr1x35)"/><line x1="523.9900786553137" y1="492.58464607549826" x2="524.5312991497665" y2="518.9335793090984" stroke="#00ff60" stroke-opacity=".52" stroke-width="1.5" filter="url(#skr1x35)"/><line x1="545.6433477432654" y1="492.4641821987926" x2="546.24222826913" y2="521.0171940032393" stroke="#00ff60" stroke-opacity=".52" stroke-width="1.5" filter="url(#skr1x35)"/><polygon points="433.3,503.6 568.5,502.2 553.1,558.4 447.3,556.9" fill="#00441e" fill-opacity=".72" stroke="#00ff60" stroke-width="1.3" filter="url(#skr1x35)"/><text x="30.0"  y="975.0" font-family="monospace" font-weight="bold" font-size="22.0" fill="rgba(255,255,255,.22)">#0001</text><text x="500.0"   y="975.0" text-anchor="middle" font-family="monospace" font-weight="bold" font-size="22.0" fill="#00ff60" fill-opacity=".48">VIPER RANGER</text><text x="970.0" y="975.0" text-anchor="end"    font-family="monospace" font-weight="bold" font-size="22.0" fill="#00ff60" fill-opacity=".32">MECH RANGERS</text></svg>