<svg xmlns="http://www.w3.org/2000/svg" viewBox="0 0 1000 1000" width="1000" height="1000" shape-rendering="geometricPrecision"><defs>

  <!-- Scene gradients -->
  <radialGradient id="bgr1x3511" cx="50%" cy="42%" r="72%">
    <stop offset="0%"   stop-color="#001e1e"/>
    <stop offset="100%" stop-color="#0e001e"/>
  </radialGradient>
  <linearGradient id="suitr1x3511" x1="8%" y1="0%" x2="92%" y2="100%">
    <stop offset="0%"   stop-color="#2060ff" stop-opacity=".95"/>
    <stop offset="45%"  stop-color="#003ccc"/>
    <stop offset="100%" stop-color="#0e001e"/>
  </linearGradient>
  <linearGradient id="suitHir1x3511" x1="0%" y1="0%" x2="0%" y2="100%">
    <stop offset="0%"   stop-color="rgba(255,255,255,.28)"/>
    <stop offset="60%"  stop-color="rgba(255,255,255,.04)"/>
    <stop offset="100%" stop-color="rgba(255,255,255,0)"/>
  </linearGradient>
  <!-- Bevel: bright top, dark bottom for armour panels -->
  <linearGradient id="bevelr1x3511" x1="0%" y1="0%" x2="0%" y2="100%">
    <stop offset="0%"   stop-color="rgba(255,255,255,.55)"/>
    <stop offset="30%"  stop-color="#2060ff"/>
    <stop offset="70%"  stop-color="#003ccc"/>
    <stop offset="100%" stop-color="rgba(0,0,0,.5)"/>
  </linearGradient>

  <!-- Weapon: cold steel blade sweep -->
  <linearGradient id="blader1x3511" x1="0%" y1="0%" x2="100%" y2="0%">
    <stop offset="0%"   stop-color="#0e0e20"/>
    <stop offset="16%"  stop-color="#3e3e58"/>
    <stop offset="34%"  stop-color="#c8c8e0"/>
    <stop offset="50%"  stop-color="#f5f5ff"/>
    <stop offset="66%"  stop-color="#b8b8d0"/>
    <stop offset="84%"  stop-color="#2e2e48"/>
    <stop offset="100%" stop-color="#08080e"/>
  </linearGradient>
  <!-- Blade tip brightening -->
  <linearGradient id="bladeTipr1x3511" x1="0%" y1="100%" x2="0%" y2="0%">
    <stop offset="0%"   stop-color="rgba(255,255,255,0)"/>
    <stop offset="55%"  stop-color="rgba(255,255,255,.1)"/>
    <stop offset="100%" stop-color="rgba(255,255,255,.55)"/>
  </linearGradient>
  <!-- Gunmetal anodised — blaster body -->
  <linearGradient id="gunmetalr1x3511" x1="0%" y1="0%" x2="0%" y2="100%">
    <stop offset="0%"   stop-color="#46465e"/>
    <stop offset="18%"  stop-color="#828296"/>
    <stop offset="42%"  stop-color="#26263a"/>
    <stop offset="72%"  stop-color="#16162a"/>
    <stop offset="100%" stop-color="#0c0c18"/>
  </linearGradient>
  <!-- Brushed steel tube — barrel/rod -->
  <linearGradient id="barrelr1x3511" x1="0%" y1="0%" x2="100%" y2="0%">
    <stop offset="0%"   stop-color="#0a0a14"/>
    <stop offset="24%"  stop-color="#585875"/>
    <stop offset="50%"  stop-color="#a8a8c8"/>
    <stop offset="76%"  stop-color="#383852"/>
    <stop offset="100%" stop-color="#0a0a14"/>
  </linearGradient>
  <!-- Chrome rod — lance shaft -->
  <linearGradient id="chromer1x3511" x1="0%" y1="0%" x2="100%" y2="0%">
    <stop offset="0%"   stop-color="#0c0c18"/>
    <stop offset="20%"  stop-color="#686888"/>
    <stop offset="44%"  stop-color="#e0e0f0"/>
    <stop offset="56%"  stop-color="#c0c0d8"/>
    <stop offset="80%"  stop-color="#28283e"/>
    <stop offset="100%" stop-color="#0c0c18"/>
  </linearGradient>
  <!-- Titanium plate — shield face -->
  <linearGradient id="titaniumr1x3511" x1="0%" y1="0%" x2="100%" y2="100%">
    <stop offset="0%"   stop-color="#585878"/>
    <stop offset="28%"  stop-color="#2060ff" stop-opacity=".88"/>
    <stop offset="55%"  stop-color="#003ccc"/>
    <stop offset="80%"  stop-color="#181828"/>
    <stop offset="100%" stop-color="#0a0a18"/>
  </linearGradient>
  <!-- Artillery black-chrome — cannon body -->
  <linearGradient id="artilleryr1x3511" x1="0%" y1="0%" x2="0%" y2="100%">
    <stop offset="0%"   stop-color="#383850"/>
    <stop offset="14%"  stop-color="#78789a"/>
    <stop offset="36%"  stop-color="#202034"/>
    <stop offset="65%"  stop-color="#14141e"/>
    <stop offset="100%" stop-color="#0a0a12"/>
  </linearGradient>
  <!-- Energy orb — staff -->
  <radialGradient id="orbr1x3511" cx="35%" cy="35%" r="65%">
    <stop offset="0%"   stop-color="rgba(255,255,255,.9)"/>
    <stop offset="30%"  stop-color="#2060ff"/>
    <stop offset="68%"  stop-color="#003ccc"/>
    <stop offset="100%" stop-color="rgba(0,0,0,.6)"/>
  </radialGradient>
  <!-- Knuckle plate chrome -->
  <linearGradient id="knuckler1x3511" x1="0%" y1="0%" x2="0%" y2="100%">
    <stop offset="0%"   stop-color="#888aaa"/>
    <stop offset="32%"  stop-color="#2060ff" stop-opacity=".8"/>
    <stop offset="62%"  stop-color="#1a1a2c"/>
    <stop offset="100%" stop-color="#0a0a14"/>
  </linearGradient>

  <!-- Carbon fibre weave texture overlay -->
  <pattern id="carbonr1x3511" width="6" height="6" patternUnits="userSpaceOnUse">
    <rect width="6" height="6" fill="rgba(0,0,0,.08)"/>
    <rect x="0" y="0" width="3" height="3" fill="rgba(255,255,255,.022)"/>
    <rect x="3" y="3" width="3" height="3" fill="rgba(255,255,255,.022)"/>
    <line x1="0" y1="0" x2="3" y2="3" stroke="rgba(255,255,255,.038)" stroke-width=".5"/>
    <line x1="3" y1="0" x2="6" y2="3" stroke="rgba(0,0,0,.055)"       stroke-width=".5"/>
    <line x1="0" y1="3" x2="3" y2="6" stroke="rgba(0,0,0,.055)"       stroke-width=".5"/>
    <line x1="3" y1="3" x2="6" y2="6" stroke="rgba(255,255,255,.038)" stroke-width=".5"/>
  </pattern>

  <!-- Specular metal sheen on armour panels -->
  <filter id="metalr1x3511" x="-5%" y="-5%" width="110%" height="110%">
    <feSpecularLighting surfaceScale="4" specularConstant="1.8"
        specularExponent="42" lighting-color="#ffffff" result="spec">
      <feDistantLight elevation="52" azimuth="38"/>
    </feSpecularLighting>
    <feComposite in="spec" in2="SourceGraphic" operator="in" result="sm"/>
    <feComposite in="SourceGraphic" in2="sm" operator="arithmetic" k1="0" k2="1" k3="0.55" k4="0"/>
  </filter>

  <!-- Sharper specular for weapons — heavier glare -->
  <filter id="wmr1x3511" x="-8%" y="-8%" width="116%" height="116%">
    <feSpecularLighting surfaceScale="6" specularConstant="2.4"
        specularExponent="65" lighting-color="#ffffff" result="spec">
      <feDistantLight elevation="44" azimuth="28"/>
    </feSpecularLighting>
    <feComposite in="spec" in2="SourceGraphic" operator="in" result="sm"/>
    <feComposite in="SourceGraphic" in2="sm" operator="arithmetic" k1="0" k2="1" k3="0.78" k4="0"/>
  </filter>

  <!-- Sketch wobble -->
  <filter id="skr1x3511" x="-8%" y="-8%" width="116%" height="116%">
    <feTurbulence type="fractalNoise" baseFrequency="0.038"
        numOctaves="3" seed="7" result="noise"/>
    <feDisplacementMap in="SourceGraphic" in2="noise" scale="2.6"
        xChannelSelector="R" yChannelSelector="G" result="w"/>
    <feComposite in="w" in2="SourceGraphic" operator="atop"/>
  </filter>

  <!-- Glow: sharp accent -->
  <filter id="glowr1x3511" x="-20%" y="-20%" width="140%" height="140%">
    <feGaussianBlur stdDeviation="3.5" result="b"/>
    <feColorMatrix in="b" type="matrix"
        values="0 0 0 0 1  0 0 0 0 1  0 0 0 0 1  0 0 0 1.8 0" result="boost"/>
    <feMerge><feMergeNode in="boost"/><feMergeNode in="SourceGraphic"/></feMerge>
  </filter>

  <!-- Bloom: wide soft -->
  <filter id="bloomr1x3511" x="-40%" y="-40%" width="180%" height="180%">
    <feGaussianBlur stdDeviation="11" result="b"/>
    <feMerge><feMergeNode in="b"/><feMergeNode in="SourceGraphic"/></feMerge>
  </filter>

  </defs><rect width="1000" height="1000" fill="url(#bgr1x3511)"/><circle cx="500" cy="500" r="420.0" fill="none" stroke="#2060ff" stroke-opacity=".11" stroke-width="42" stroke-dasharray="8,5"/><circle cx="500" cy="500" r="240.0" fill="none" stroke="#003ccc" stroke-opacity=".09" stroke-width="18"/><line x1="500" y1="500" x2="1500.0" y2="500.0" stroke="#2060ff" stroke-opacity=".035" stroke-width="1.2"/><line x1="500" y1="500" x2="1366.0" y2="1000.0" stroke="#2060ff" stroke-opacity=".035" stroke-width="1.2"/><line x1="500" y1="500" x2="1000.0" y2="1366.0" stroke="#2060ff" stroke-opacity=".035" stroke-width="1.2"/><line x1="500" y1="500" x2="500.0" y2="1500.0" stroke="#2060ff" stroke-opacity=".035" stroke-width="1.2"/><line x1="500" y1="500" x2="0.0" y2="1366.0" stroke="#2060ff" stroke-opacity=".035" stroke-width="1.2"/><line x1="500" y1="500" x2="-366.0" y2="1000.0" stroke="#2060ff" stroke-opacity=".035" stroke-width="1.2"/><line x1="500" y1="500" x2="-500.0" y2="500.0" stroke="#2060ff" stroke-opacity=".035" stroke-width="1.2"/><line x1="500" y1="500" x2="-366.0" y2="-0.0" stroke="#2060ff" stroke-opacity=".035" stroke-width="1.2"/><line x1="500" y1="500" x2="-0.0" y2="-366.0" stroke="#2060ff" stroke-opacity=".035" stroke-width="1.2"/><line x1="500" y1="500" x2="500.0" y2="-500.0" stroke="#2060ff" stroke-opacity=".035" stroke-width="1.2"/><line x1="500" y1="500" x2="1000.0" y2="-366.0" stroke="#2060ff" stroke-opacity=".035" stroke-width="1.2"/><line x1="500" y1="500" x2="1366.0" y2="-0.0" stroke="#2060ff" stroke-opacity=".035" stroke-width="1.2"/><ellipse cx="500.0" cy="892.0" rx="350.0" ry="65.0" fill="rgba(0,0,0,.7)" filter="url(#bloomr1x3511)"/><ellipse cx="500.0" cy="889.0" rx="220.0" ry="34.0" fill="rgba(0,0,0,.45)"/><ellipse cx="500.0" cy="520.0" rx="320.0" ry="480.0" fill="#ff6600" fill-opacity=".042" filter="url(#bloomr1x3511)"/><circle cx="340.9" cy="551.8" r="1.9" fill="#ff6600" fill-opacity="0.78" filter="url(#glowr1x3511)"/><circle cx="409.0" cy="474.5" r="0.7" fill="#ff6600" fill-opacity="0.47" filter="url(#glowr1x3511)"/><circle cx="343.3" cy="327.2" r="2.3" fill="#ff6600" fill-opacity="0.62" filter="url(#glowr1x3511)"/><circle cx="686.9" cy="743.0" r="1.3" fill="#ff6600" fill-opacity="0.66" filter="url(#glowr1x3511)"/><circle cx="636.1" cy="348.4" r="1.9" fill="#ff6600" fill-opacity="0.50" filter="url(#glowr1x3511)"/><circle cx="449.0" cy="784.4" r="2.7" fill="#ff6600" fill-opacity="0.48" filter="url(#glowr1x3511)"/><circle cx="603.5" cy="610.8" r="1.6" fill="#ff6600" fill-opacity="0.78" filter="url(#glowr1x3511)"/><circle cx="525.7" cy="696.6" r="2.9" fill="#ff6600" fill-opacity="0.55" filter="url(#glowr1x3511)"/><circle cx="353.5" cy="736.2" r="3.6" fill="#ff6600" fill-opacity="0.87" filter="url(#glowr1x3511)"/><circle cx="295.8" cy="518.2" r="2.5" fill="#ff6600" fill-opacity="0.62" filter="url(#glowr1x3511)"/><circle cx="459.3" cy="768.4" r="1.2" fill="#ff6600" fill-opacity="0.69" filter="url(#glowr1x3511)"/><circle cx="371.0" cy="407.7" r="3.3" fill="#ff6600" fill-opacity="0.45" filter="url(#glowr1x3511)"/><circle cx="678.5" cy="185.5" r="3.9" fill="#ff6600" fill-opacity="0.55" filter="url(#glowr1x3511)"/><circle cx="539.1" cy="736.6" r="0.9" fill="#ff6600" fill-opacity="0.82" filter="url(#glowr1x3511)"/><polygon points="397.6,663.5 490.3,662.6 482.1,875.8 385.7,876.3" fill="url(#suitr1x3511)" stroke="#2060ff" stroke-width="2.2" filter="url(#skr1x3511) url(#metalr1x3511)"/><polygon points="397.3,661.9 490.6,664.0 481.5,876.9 387.7,879.0" fill="url(#carbonr1x3511)"/><polygon points="392.4,725.5 494.1,723.3 482.5,787.5 383.8,788.4" fill="url(#bevelr1x3511)" fill-opacity=".5" stroke="#2060ff" stroke-width="1.4" filter="url(#skr1x3511)"/><polygon points="510.0,664.0 601.4,661.8 612.2,877.6 520.1,877.1" fill="url(#suitr1x3511)" stroke="#2060ff" stroke-width="2.2" filter="url(#skr1x3511) url(#metalr1x3511)"/><polygon points="509.8,663.8 600.2,663.9 613.7,878.6 519.4,876.6" fill="url(#carbonr1x3511)"/><polygon points="506.5,723.9 608.3,724.0 617.5,789.5 514.7,789.3" fill="url(#bevelr1x3511)" fill-opacity=".5" stroke="#2060ff" stroke-width="1.4" filter="url(#skr1x3511)"/><rect x="394.1" y="837.2" width="100.3" height="24.7" fill="url(#bevelr1x3511)" stroke="#2060ff" stroke-width="1" filter="url(#skr1x3511)"/><rect x="506.7"  y="840.2" width="100.3" height="24.7" fill="url(#bevelr1x3511)" stroke="#2060ff" stroke-width="1" filter="url(#skr1x3511)"/><polygon points="369.4,876.8 497.7,876.2 504.4,921.6 362.0,922.0" fill="#003ccc" stroke="#2060ff" stroke-width="2" filter="url(#skr1x3511)"/><polygon points="502.6,877.4 631.8,878.0 637.3,920.2 497.3,923.0" fill="#003ccc" stroke="#2060ff" stroke-width="2" filter="url(#skr1x3511)"/><polygon points="303.2,631.6 694.8,632.8 636.9,680.5 363.6,683.4" fill="#2060ff" fill-opacity=".52" stroke="#2060ff" stroke-width="2" filter="url(#skr1x3511)"/><rect x="464.3" y="637.9" width="72.0" height="42.0" fill="url(#bevelr1x3511)" stroke="#2060ff" stroke-width="1.4" filter="url(#glowr1x3511)"/><rect x="487.4" y="640.8" width="28.0" height="22.0" rx="1" fill="rgba(255,255,255,.48)"/><polygon points="151.3,465.2 233.5,466.1 256.4,736.0 127.2,734.8" fill="url(#suitr1x3511)" stroke="#2060ff" stroke-width="2.2" filter="url(#skr1x3511) url(#metalr1x3511)"/><polygon points="172.9,432.4 252.4,432.6 243.9,512.4 160.0,509.5" fill="url(#bevelr1x3511)" fill-opacity=".72" stroke="#2060ff" stroke-width="2.2" filter="url(#skr1x3511)"/><polygon points="161.8,622.2 241.5,622.8 237.9,659.5 164.3,661.0" fill="#2060ff" fill-opacity=".42" stroke="#2060ff" stroke-width="1" filter="url(#skr1x3511)"/><polygon points="763.7,464.7 848.5,465.2 870.8,733.8 741.4,735.5" fill="url(#suitr1x3511)" stroke="#2060ff" stroke-width="2.2" filter="url(#skr1x3511) url(#metalr1x3511)"/><polygon points="745.7,431.7 827.5,433.5 839.2,509.2 758.4,511.9" fill="url(#bevelr1x3511)" fill-opacity=".72" stroke="#2060ff" stroke-width="2.2" filter="url(#skr1x3511)"/><polygon points="758.4,622.1 840.5,620.3 832.9,662.3 762.6,662.4" fill="#2060ff" fill-opacity=".42" stroke="#2060ff" stroke-width="1" filter="url(#skr1x3511)"/><rect x="119.2"  y="701.4" width="135.3" height="85.0" rx="4" fill="url(#bevelr1x3511)" stroke="#2060ff" stroke-width="1.8" filter="url(#skr1x3511)"/><rect x="748.5"   y="698.7" width="135.3" height="85.0" rx="4" fill="url(#bevelr1x3511)" stroke="#2060ff" stroke-width="1.8" filter="url(#skr1x3511)"/><line x1="151.1" y1="702.2" x2="151.0" y2="785.0" stroke="#2060ff" stroke-opacity=".38" stroke-width="1"/><line x1="778.7" y1="701.6" x2="776.5" y2="782.4" stroke="#2060ff" stroke-opacity=".38" stroke-width="1"/><line x1="183.6" y1="703.0" x2="182.9" y2="784.2" stroke="#2060ff" stroke-opacity=".38" stroke-width="1"/><line x1="810.8" y1="701.0" x2="810.1" y2="782.7" stroke="#2060ff" stroke-opacity=".38" stroke-width="1"/><line x1="214.9" y1="701.5" x2="215.2" y2="785.2" stroke="#2060ff" stroke-opacity=".38" stroke-width="1"/><line x1="842.8" y1="700.5" x2="845.3" y2="785.4" stroke="#2060ff" stroke-opacity=".38" stroke-width="1"/><polygon points="235.1,417.8 763.9,416.3 722.2,662.2 276.3,663.2" fill="url(#suitr1x3511)" stroke="#2060ff" stroke-width="2.6" filter="url(#skr1x3511) url(#metalr1x3511)"/><polygon points="236.7,416.1 766.6,419.0 721.8,661.5 278.5,660.7" fill="url(#carbonr1x3511)"/><polygon points="368.6,416.4 633.6,418.0 612.7,517.2 390.1,515.9" fill="url(#suitHir1x3511)"/><line x1="363.2" y1="471.1" x2="636.4" y2="470.2" stroke="#2060ff" stroke-opacity=".52" stroke-width="1.3" filter="url(#skr1x3511)"/><line x1="398.9" y1="550.6" x2="600.3" y2="550.0" stroke="#2060ff" stroke-opacity=".52" stroke-width="1.3" filter="url(#skr1x3511)"/><line x1="266.3" y1="489.8" x2="318.3" y2="489.9" stroke="#2060ff" stroke-opacity=".62" stroke-width="1.8"/><line x1="680.6" y1="491.7" x2="734.7" y2="491.6" stroke="#2060ff" stroke-opacity=".62" stroke-width="1.8"/><line x1="266.3" y1="521.1" x2="319.2" y2="523.6" stroke="#2060ff" stroke-opacity=".62" stroke-width="1.8"/><line x1="681.7" y1="524.0" x2="733.9" y2="521.7" stroke="#2060ff" stroke-opacity=".62" stroke-width="1.8"/><line x1="267.5" y1="553.5" x2="318.0" y2="554.2" stroke="#2060ff" stroke-opacity=".62" stroke-width="1.8"/><line x1="681.5" y1="554.3" x2="732.5" y2="554.6" stroke="#2060ff" stroke-opacity=".62" stroke-width="1.8"/><line x1="267.7" y1="585.9" x2="318.3" y2="586.5" stroke="#2060ff" stroke-opacity=".62" stroke-width="1.8"/><line x1="679.9" y1="587.1" x2="734.4" y2="587.0" stroke="#2060ff" stroke-opacity=".62" stroke-width="1.8"/><g filter="url(#glowr1x3511)"><polygon points="481.0,451.4 513.9,506.5 498.8,506.0 516.3,567.2 486.3,516.3 501.5,516.4" fill="#2060ff" stroke="#0e001e" stroke-width="1.4" filter="url(#skr1x3511)"/><polygon points="482.6,453.2 514.5,505.0 500.9,507.5 517.1,568.5 488.0,514.4 500.9,514.8" fill="url(#suitHir1x3511)" opacity=".4"/></g><g><rect x="113.7" y="700.8" width="137.8" height="88.0" rx="5" fill="url(#bevelr1x3511)" stroke="#2060ff" stroke-width="2" filter="url(#wmr1x3511)"/><rect x="115.4" y="701.9" width="137.8" height="88.0" rx="5" fill="url(#carbonr1x3511)"/><rect x="748.3"  y="700.1" width="137.8" height="88.0" rx="5" fill="url(#bevelr1x3511)" stroke="#2060ff" stroke-width="2" filter="url(#wmr1x3511)"/><rect x="747.5"  y="703.6" width="137.8" height="88.0" rx="5" fill="url(#carbonr1x3511)"/><rect x="120.3" y="699.3" width="23.0" height="22.0" rx="2" fill="url(#knuckler1x3511)" stroke="#2060ff" stroke-width=".8" filter="url(#wmr1x3511)"/><rect x="754.4" y="698.5" width="23.0" height="22.0" rx="2" fill="url(#knuckler1x3511)" stroke="#2060ff" stroke-width=".8" filter="url(#wmr1x3511)"/><rect x="152.5" y="699.0" width="23.0" height="22.0" rx="2" fill="url(#knuckler1x3511)" stroke="#2060ff" stroke-width=".8" filter="url(#wmr1x3511)"/><rect x="784.3" y="699.4" width="23.0" height="22.0" rx="2" fill="url(#knuckler1x3511)" stroke="#2060ff" stroke-width=".8" filter="url(#wmr1x3511)"/><rect x="180.7" y="698.5" width="23.0" height="22.0" rx="2" fill="url(#knuckler1x3511)" stroke="#2060ff" stroke-width=".8" filter="url(#wmr1x3511)"/><rect x="812.7" y="699.7" width="23.0" height="22.0" rx="2" fill="url(#knuckler1x3511)" stroke="#2060ff" stroke-width=".8" filter="url(#wmr1x3511)"/><rect x="209.7" y="699.9" width="23.0" height="22.0" rx="2" fill="url(#knuckler1x3511)" stroke="#2060ff" stroke-width=".8" filter="url(#wmr1x3511)"/><rect x="842.3" y="701.1" width="23.0" height="22.0" rx="2" fill="url(#knuckler1x3511)" stroke="#2060ff" stroke-width=".8" filter="url(#wmr1x3511)"/><ellipse cx="185.4167819991149" cy="709.0294587061553" rx="45.1" ry="30.0" fill="#2060ff" fill-opacity=".25" filter="url(#glowr1x3511)"/><ellipse cx="816.807032549493" cy="712.478836285863" rx="45.1" ry="30.0" fill="#2060ff" fill-opacity=".25" filter="url(#glowr1x3511)"/></g><rect x="449.22272243835033" y="556.8565574348904" width="100.0"  height="56.0" fill="#003ccc" stroke="#2060ff" stroke-width="2.2" filter="url(#skr1x3511)"/><rect x="423.5352488445118" y="574.2919600748457" width="152.0" height="26.0" fill="url(#bevelr1x3511)" fill-opacity=".65" stroke="#2060ff" stroke-width="1.2" filter="url(#skr1x3511)"/><polygon points="306.5,380.7 351.5,295.9 499.2,278.1 650.9,294.5 693.1,380.4 670.7,503.5 501.2,566.7 331.0,504.1" fill="url(#suitr1x3511)" stroke="#2060ff" stroke-width="2.8" filter="url(#skr1x3511) url(#metalr1x3511)"/><polygon points="309.2,380.9 351.3,293.4 499.3,276.5 648.0,293.1 692.5,379.1 669.9,504.3 498.2,565.4 330.0,502.0" fill="url(#carbonr1x3511)"/><polygon points="382.2,303.9 499.1,286.9 618.5,302.8 606.1,379.7 393.4,379.9" fill="url(#suitHir1x3511)"/><polygon points="380.6,381.2 367.0,426.7 432.3,504.8 498.9,529.0 566.7,504.6 633.9,425.7 618.8,380.1" fill="#0e001e" fill-opacity=".88" stroke="#2060ff" stroke-width="1.8" filter="url(#skr1x3511)"/><polygon points="381.0,410.0 477.5,412.8 483.5,440.3 387.2,440.0" fill="#2060ff" filter="url(#glowr1x3511)"/><polygon points="522.5,411.6 618.2,411.3 609.7,441.1 515.0,441.8" fill="#2060ff" filter="url(#glowr1x3511)"/><ellipse cx="430.9" cy="425.7" rx="38.4"  ry="8.2" fill="#ffffff" opacity=".88"/><ellipse cx="569.1" cy="425.7" rx="38.4"  ry="8.2" fill="#ffffff" opacity=".88"/><line x1="485.91636463111263" y1="415.14041768554597" x2="516.0392862094008" y2="413.0317486295476" stroke="#2060ff" stroke-opacity=".52" stroke-width="2"/><line x1="483.1950497882999" y1="437.07773786718025" x2="514.6798027464562" y2="436.59058789936824" stroke="#2060ff" stroke-opacity=".52" stroke-width="2"/><line x1="498.436670948565" y1="453.9332209478132" x2="499.9109372052364" y2="483.9573864126578" stroke="#2060ff" stroke-opacity=".58" stroke-width="2.2" filter="url(#skr1x3511)"/><line x1="455.22928740818054" y1="490.44548560287797" x2="454.10183853290977" y2="521.0448680970818" stroke="#2060ff" stroke-opacity=".52" stroke-width="1.5" filter="url(#skr1x3511)"/><line x1="478.2707016196474" y1="491.4364270947873" x2="477.35607456661756" y2="518.5143435013481" stroke="#2060ff" stroke-opacity=".52" stroke-width="1.5" filter="url(#skr1x3511)"/><line x1="499.44942749347535" y1="492.8630423702299" x2="500.06170160071923" y2="520.3230316482484" stroke="#2060ff" stroke-opacity=".52" stroke-width="1.5" filter="url(#skr1x3511)"/><line x1="521.8042362584359" y1="492.0687720606103" x2="522.1969564335047" y2="518.8601848428137" stroke="#2060ff" stroke-opacity=".52" stroke-width="1.5" filter="url(#skr1x3511)"/><line x1="546.1961331602373" y1="490.56135447584086" x2="545.95251367094" y2="521.6354591839015" stroke="#2060ff" stroke-opacity=".52" stroke-width="1.5" filter="url(#skr1x3511)"/><polygon points="432.5,502.5 567.8,504.9 552.9,555.6 446.9,557.7" fill="#003ccc" fill-opacity=".72" stroke="#2060ff" stroke-width="1.3" filter="url(#skr1x3511)"/><path d="M389.7982212390378 325.86292232489217 Q332.10849477523936 217.3525605571456 381.6652277998999 139.41545961992816" stroke="#2060ff" stroke-width="5" fill="none" stroke-linecap="round" filter="url(#skr1x3511)"/><path d="M388.91959675425664 326.60335914976895 Q330.71189085129646 218.19336722334847 380.60781284620987 141.4232722173445" stroke="rgba(255,255,255,.25)" stroke-width="1.5" fill="none" stroke-linecap="round"/><path d="M611.0967476727814 328.1596857916564 Q667.8712975827418 217.99452394042163 620.6855393662676 140.14135137349368" stroke="#2060ff" stroke-width="5" fill="none" stroke-linecap="round" filter="url(#skr1x3511)"/><path d="M612.0554760825262 325.52948085246607 Q670.5099200280756 216.578084510006 619.837215058282 141.98842567978426" stroke="rgba(255,255,255,.25)" stroke-width="1.5" fill="none" stroke-linecap="round"/><text x="30.0"  y="975.0" font-family="monospace" font-weight="bold" font-size="22.0" fill="rgba(255,255,255,.22)">#0001</text><text x="500.0"   y="975.0" text-anchor="middle" font-family="monospace" font-weight="bold" font-size="22.0" fill="#2060ff" fill-opacity=".48">COBALT RANGER</text><text x="970.0" y="975.0" text-anchor="end"    font-family="monospace" font-weight="bold" font-size="22.0" fill="#2060ff" fill-opacity=".32">MECH RANGERS</text></svg>