<svg xmlns="http://www.w3.org/2000/svg" viewBox="0 0 1000 1000" width="1000" height="1000" shape-rendering="geometricPrecision"><defs>

  <!-- Scene gradients -->
  <radialGradient id="bgr1x3576" cx="50%" cy="42%" r="72%">
    <stop offset="0%"   stop-color="#1e0a2e"/>
    <stop offset="100%" stop-color="#0a0520"/>
  </radialGradient>
  <linearGradient id="suitr1x3576" x1="8%" y1="0%" x2="92%" y2="100%">
    <stop offset="0%"   stop-color="#00ff60" stop-opacity=".95"/>
    <stop offset="45%"  stop-color="#00441e"/>
    <stop offset="100%" stop-color="#0a0520"/>
  </linearGradient>
  <linearGradient id="suitHir1x3576" x1="0%" y1="0%" x2="0%" y2="100%">
    <stop offset="0%"   stop-color="rgba(255,255,255,.28)"/>
    <stop offset="60%"  stop-color="rgba(255,255,255,.04)"/>
    <stop offset="100%" stop-color="rgba(255,255,255,0)"/>
  </linearGradient>
  <!-- Bevel: bright top, dark bottom for armour panels -->
  <linearGradient id="bevelr1x3576" x1="0%" y1="0%" x2="0%" y2="100%">
    <stop offset="0%"   stop-color="rgba(255,255,255,.55)"/>
    <stop offset="30%"  stop-color="#00ff60"/>
    <stop offset="70%"  stop-color="#00441e"/>
    <stop offset="100%" stop-color="rgba(0,0,0,.5)"/>
  </linearGradient>

  <!-- Weapon: cold steel blade sweep -->
  <linearGradient id="blader1x3576" x1="0%" y1="0%" x2="100%" y2="0%">
    <stop offset="0%"   stop-color="#0e0e20"/>
    <stop offset="16%"  stop-color="#3e3e58"/>
    <stop offset="34%"  stop-color="#c8c8e0"/>
    <stop offset="50%"  stop-color="#f5f5ff"/>
    <stop offset="66%"  stop-color="#b8b8d0"/>
    <stop offset="84%"  stop-color="#2e2e48"/>
    <stop offset="100%" stop-color="#08080e"/>
  </linearGradient>
  <!-- Blade tip brightening -->
  <linearGradient id="bladeTipr1x3576" x1="0%" y1="100%" x2="0%" y2="0%">
    <stop offset="0%"   stop-color="rgba(255,255,255,0)"/>
    <stop offset="55%"  stop-color="rgba(255,255,255,.1)"/>
    <stop offset="100%" stop-color="rgba(255,255,255,.55)"/>
  </linearGradient>
  <!-- Gunmetal anodised — blaster body -->
  <linearGradient id="gunmetalr1x3576" x1="0%" y1="0%" x2="0%" y2="100%">
    <stop offset="0%"   stop-color="#46465e"/>
    <stop offset="18%"  stop-color="#828296"/>
    <stop offset="42%"  stop-color="#26263a"/>
    <stop offset="72%"  stop-color="#16162a"/>
    <stop offset="100%" stop-color="#0c0c18"/>
  </linearGradient>
  <!-- Brushed steel tube — barrel/rod -->
  <linearGradient id="barrelr1x3576" x1="0%" y1="0%" x2="100%" y2="0%">
    <stop offset="0%"   stop-color="#0a0a14"/>
    <stop offset="24%"  stop-color="#585875"/>
    <stop offset="50%"  stop-color="#a8a8c8"/>
    <stop offset="76%"  stop-color="#383852"/>
    <stop offset="100%" stop-color="#0a0a14"/>
  </linearGradient>
  <!-- Chrome rod — lance shaft -->
  <linearGradient id="chromer1x3576" x1="0%" y1="0%" x2="100%" y2="0%">
    <stop offset="0%"   stop-color="#0c0c18"/>
    <stop offset="20%"  stop-color="#686888"/>
    <stop offset="44%"  stop-color="#e0e0f0"/>
    <stop offset="56%"  stop-color="#c0c0d8"/>
    <stop offset="80%"  stop-color="#28283e"/>
    <stop offset="100%" stop-color="#0c0c18"/>
  </linearGradient>
  <!-- Titanium plate — shield face -->
  <linearGradient id="titaniumr1x3576" x1="0%" y1="0%" x2="100%" y2="100%">
    <stop offset="0%"   stop-color="#585878"/>
    <stop offset="28%"  stop-color="#00ff60" stop-opacity=".88"/>
    <stop offset="55%"  stop-color="#00441e"/>
    <stop offset="80%"  stop-color="#181828"/>
    <stop offset="100%" stop-color="#0a0a18"/>
  </linearGradient>
  <!-- Artillery black-chrome — cannon body -->
  <linearGradient id="artilleryr1x3576" x1="0%" y1="0%" x2="0%" y2="100%">
    <stop offset="0%"   stop-color="#383850"/>
    <stop offset="14%"  stop-color="#78789a"/>
    <stop offset="36%"  stop-color="#202034"/>
    <stop offset="65%"  stop-color="#14141e"/>
    <stop offset="100%" stop-color="#0a0a12"/>
  </linearGradient>
  <!-- Energy orb — staff -->
  <radialGradient id="orbr1x3576" cx="35%" cy="35%" r="65%">
    <stop offset="0%"   stop-color="rgba(255,255,255,.9)"/>
    <stop offset="30%"  stop-color="#00ff60"/>
    <stop offset="68%"  stop-color="#00441e"/>
    <stop offset="100%" stop-color="rgba(0,0,0,.6)"/>
  </radialGradient>
  <!-- Knuckle plate chrome -->
  <linearGradient id="knuckler1x3576" x1="0%" y1="0%" x2="0%" y2="100%">
    <stop offset="0%"   stop-color="#888aaa"/>
    <stop offset="32%"  stop-color="#00ff60" stop-opacity=".8"/>
    <stop offset="62%"  stop-color="#1a1a2c"/>
    <stop offset="100%" stop-color="#0a0a14"/>
  </linearGradient>

  <!-- Carbon fibre weave texture overlay -->
  <pattern id="carbonr1x3576" width="6" height="6" patternUnits="userSpaceOnUse">
    <rect width="6" height="6" fill="rgba(0,0,0,.08)"/>
    <rect x="0" y="0" width="3" height="3" fill="rgba(255,255,255,.022)"/>
    <rect x="3" y="3" width="3" height="3" fill="rgba(255,255,255,.022)"/>
    <line x1="0" y1="0" x2="3" y2="3" stroke="rgba(255,255,255,.038)" stroke-width=".5"/>
    <line x1="3" y1="0" x2="6" y2="3" stroke="rgba(0,0,0,.055)"       stroke-width=".5"/>
    <line x1="0" y1="3" x2="3" y2="6" stroke="rgba(0,0,0,.055)"       stroke-width=".5"/>
    <line x1="3" y1="3" x2="6" y2="6" stroke="rgba(255,255,255,.038)" stroke-width=".5"/>
  </pattern>

  <!-- Specular metal sheen on armour panels -->
  <filter id="metalr1x3576" x="-5%" y="-5%" width="110%" height="110%">
    <feSpecularLighting surfaceScale="4" specularConstant="1.8"
        specularExponent="42" lighting-color="#ffffff" result="spec">
      <feDistantLight elevation="52" azimuth="38"/>
    </feSpecularLighting>
    <feComposite in="spec" in2="SourceGraphic" operator="in" result="sm"/>
    <feComposite in="SourceGraphic" in2="sm" operator="arithmetic" k1="0" k2="1" k3="0.55" k4="0"/>
  </filter>

  <!-- Sharper specular for weapons — heavier glare -->
  <filter id="wmr1x3576" x="-8%" y="-8%" width="116%" height="116%">
    <feSpecularLighting surfaceScale="6" specularConstant="2.4"
        specularExponent="65" lighting-color="#ffffff" result="spec">
      <feDistantLight elevation="44" azimuth="28"/>
    </feSpecularLighting>
    <feComposite in="spec" in2="SourceGraphic" operator="in" result="sm"/>
    <feComposite in="SourceGraphic" in2="sm" operator="arithmetic" k1="0" k2="1" k3="0.78" k4="0"/>
  </filter>

  <!-- Sketch wobble -->
  <filter id="skr1x3576" x="-8%" y="-8%" width="116%" height="116%">
    <feTurbulence type="fractalNoise" baseFrequency="0.038"
        numOctaves="3" seed="2" result="noise"/>
    <feDisplacementMap in="SourceGraphic" in2="noise" scale="2.6"
        xChannelSelector="R" yChannelSelector="G" result="w"/>
    <feComposite in="w" in2="SourceGraphic" operator="atop"/>
  </filter>

  <!-- Glow: sharp accent -->
  <filter id="glowr1x3576" x="-20%" y="-20%" width="140%" height="140%">
    <feGaussianBlur stdDeviation="3.5" result="b"/>
    <feColorMatrix in="b" type="matrix"
        values="0 0 0 0 1  0 0 0 0 1  0 0 0 0 1  0 0 0 1.8 0" result="boost"/>
    <feMerge><feMergeNode in="boost"/><feMergeNode in="SourceGraphic"/></feMerge>
  </filter>

  <!-- Bloom: wide soft -->
  <filter id="bloomr1x3576" x="-40%" y="-40%" width="180%" height="180%">
    <feGaussianBlur stdDeviation="11" result="b"/>
    <feMerge><feMergeNode in="b"/><feMergeNode in="SourceGraphic"/></feMerge>
  </filter>

  </defs><rect width="1000" height="1000" fill="url(#bgr1x3576)"/><ellipse cx="500.0" cy="892.0" rx="350.0" ry="65.0" fill="rgba(0,0,0,.7)" filter="url(#bloomr1x3576)"/><ellipse cx="500.0" cy="889.0" rx="220.0" ry="34.0" fill="rgba(0,0,0,.45)"/><polygon points="397.8,664.1 490.2,661.9 479.9,877.7 387.5,878.7" fill="url(#suitr1x3576)" stroke="#00ff60" stroke-width="2.2" filter="url(#skr1x3576) url(#metalr1x3576)"/><polygon points="397.2,662.7 488.0,662.6 482.1,875.8 386.4,876.7" fill="url(#carbonr1x3576)"/><polygon points="394.4,722.5 493.6,722.5 484.6,786.8 382.4,788.5" fill="url(#bevelr1x3576)" fill-opacity=".5" stroke="#00ff60" stroke-width="1.4" filter="url(#skr1x3576)"/><polygon points="511.5,661.7 601.8,663.7 613.2,877.2 520.9,877.8" fill="url(#suitr1x3576)" stroke="#00ff60" stroke-width="2.2" filter="url(#skr1x3576) url(#metalr1x3576)"/><polygon points="511.3,663.2 601.6,663.7 614.0,878.5 520.1,877.4" fill="url(#carbonr1x3576)"/><polygon points="507.2,722.5 606.6,723.4 616.9,787.1 514.6,786.5" fill="url(#bevelr1x3576)" fill-opacity=".5" stroke="#00ff60" stroke-width="1.4" filter="url(#skr1x3576)"/><rect x="393.5" y="840.6" width="100.3" height="24.7" fill="url(#bevelr1x3576)" stroke="#00ff60" stroke-width="1" filter="url(#skr1x3576)"/><rect x="506.4"  y="837.8" width="100.3" height="24.7" fill="url(#bevelr1x3576)" stroke="#00ff60" stroke-width="1" filter="url(#skr1x3576)"/><polygon points="369.2,878.0 497.2,877.1 503.7,922.1 361.3,920.2" fill="#00441e" stroke="#00ff60" stroke-width="2" filter="url(#skr1x3576)"/><polygon points="502.8,877.9 629.6,877.5 638.7,920.3 497.8,923.0" fill="#00441e" stroke="#00ff60" stroke-width="2" filter="url(#skr1x3576)"/><polygon points="302.2,632.1 695.1,634.1 637.1,682.5 361.6,681.0" fill="#00ff60" fill-opacity=".52" stroke="#00ff60" stroke-width="2" filter="url(#skr1x3576)"/><rect x="464.2" y="639.0" width="72.0" height="42.0" fill="url(#bevelr1x3576)" stroke="#00ff60" stroke-width="1.4" filter="url(#glowr1x3576)"/><rect x="485.8" y="640.2" width="28.0" height="22.0" rx="1" fill="rgba(255,255,255,.48)"/><polygon points="151.7,466.4 235.1,466.0 258.8,735.9 130.0,736.7" fill="url(#suitr1x3576)" stroke="#00ff60" stroke-width="2.2" filter="url(#skr1x3576) url(#metalr1x3576)"/><polygon points="171.8,432.6 251.4,431.3 243.1,509.2 160.9,511.9" fill="url(#bevelr1x3576)" fill-opacity=".72" stroke="#00ff60" stroke-width="2.2" filter="url(#skr1x3576)"/><polygon points="161.6,621.7 242.9,621.9 240.9,661.6 164.8,661.3" fill="#00ff60" fill-opacity=".42" stroke="#00ff60" stroke-width="1" filter="url(#skr1x3576)"/><polygon points="765.3,466.5 847.0,466.1 873.3,734.3 742.6,735.2" fill="url(#suitr1x3576)" stroke="#00ff60" stroke-width="2.2" filter="url(#skr1x3576) url(#metalr1x3576)"/><polygon points="747.1,432.4 826.9,433.9 838.9,509.7 755.5,510.5" fill="url(#bevelr1x3576)" fill-opacity=".72" stroke="#00ff60" stroke-width="2.2" filter="url(#skr1x3576)"/><polygon points="755.8,621.2 839.8,623.0 834.0,660.7 761.5,659.9" fill="#00ff60" fill-opacity=".42" stroke="#00ff60" stroke-width="1" filter="url(#skr1x3576)"/><rect x="120.5"  y="701.5" width="135.3" height="85.0" rx="4" fill="url(#bevelr1x3576)" stroke="#00ff60" stroke-width="1.8" filter="url(#skr1x3576)"/><rect x="749.2"   y="701.6" width="135.3" height="85.0" rx="4" fill="url(#bevelr1x3576)" stroke="#00ff60" stroke-width="1.8" filter="url(#skr1x3576)"/><line x1="150.6" y1="703.2" x2="148.7" y2="784.6" stroke="#00ff60" stroke-opacity=".38" stroke-width="1"/><line x1="776.8" y1="702.4" x2="776.6" y2="783.7" stroke="#00ff60" stroke-opacity=".38" stroke-width="1"/><line x1="183.3" y1="702.6" x2="182.9" y2="784.4" stroke="#00ff60" stroke-opacity=".38" stroke-width="1"/><line x1="811.3" y1="701.5" x2="811.0" y2="785.1" stroke="#00ff60" stroke-opacity=".38" stroke-width="1"/><line x1="215.2" y1="700.6" x2="213.7" y2="785.0" stroke="#00ff60" stroke-opacity=".38" stroke-width="1"/><line x1="844.2" y1="703.4" x2="845.4" y2="782.4" stroke="#00ff60" stroke-opacity=".38" stroke-width="1"/><polygon points="235.3,416.7 764.5,416.6 721.3,662.4 278.1,660.9" fill="url(#suitr1x3576)" stroke="#00ff60" stroke-width="2.6" filter="url(#skr1x3576) url(#metalr1x3576)"/><polygon points="236.6,415.9 764.0,418.9 721.6,663.5 276.4,664.0" fill="url(#carbonr1x3576)"/><polygon points="368.5,418.8 633.4,418.3 610.0,514.8 388.4,515.9" fill="url(#suitHir1x3576)"/><line x1="363.3" y1="473.1" x2="639.4" y2="470.7" stroke="#00ff60" stroke-opacity=".52" stroke-width="1.3" filter="url(#skr1x3576)"/><line x1="399.9" y1="550.7" x2="600.2" y2="549.3" stroke="#00ff60" stroke-opacity=".52" stroke-width="1.3" filter="url(#skr1x3576)"/><line x1="266.4" y1="492.7" x2="320.9" y2="490.4" stroke="#00ff60" stroke-opacity=".62" stroke-width="1.8"/><line x1="681.3" y1="490.3" x2="733.9" y2="490.1" stroke="#00ff60" stroke-opacity=".62" stroke-width="1.8"/><line x1="268.6" y1="523.6" x2="321.5" y2="522.3" stroke="#00ff60" stroke-opacity=".62" stroke-width="1.8"/><line x1="678.9" y1="523.9" x2="734.0" y2="521.7" stroke="#00ff60" stroke-opacity=".62" stroke-width="1.8"/><line x1="267.0" y1="554.9" x2="318.9" y2="555.9" stroke="#00ff60" stroke-opacity=".62" stroke-width="1.8"/><line x1="681.5" y1="555.0" x2="732.4" y2="553.1" stroke="#00ff60" stroke-opacity=".62" stroke-width="1.8"/><line x1="266.9" y1="585.9" x2="321.6" y2="587.8" stroke="#00ff60" stroke-opacity=".62" stroke-width="1.8"/><line x1="679.1" y1="585.0" x2="732.5" y2="585.4" stroke="#00ff60" stroke-opacity=".62" stroke-width="1.8"/><g filter="url(#glowr1x3576)"><polygon points="482.5,451.9 511.7,506.8 499.6,505.3 518.7,569.2 488.1,515.1 498.4,517.0" fill="#00ff60" stroke="#0a0520" stroke-width="1.4" filter="url(#skr1x3576)"/><polygon points="481.1,453.6 514.0,505.9 499.6,504.2 517.5,567.4 486.2,514.1 501.5,515.3" fill="url(#suitHir1x3576)" opacity=".4"/></g><g><line x1="103.922210647203" y1="789.911201610323" x2="87.85306510593739" y2="110.9531498789787" stroke="url(#chromer1x3576)" stroke-width="28.0" stroke-linecap="round" filter="url(#wmr1x3576)"/><line x1="95.63988666333255" y1="770.3224050008691" x2="87.8602114656381" y2="133.19050347637383" stroke="rgba(255,255,255,.42)" stroke-width="5.0" stroke-linecap="round"/><polygon points="72.5,151.6 141.3,150.1 83.4,-9.4" fill="url(#blader1x3576)" stroke="#00ff60" stroke-width="1.8" filter="url(#wmr1x3576)"/><line x1="140.2" y1="151.4" x2="84.2" y2="-8.6" stroke="rgba(255,255,255,.72)" stroke-width="1.6"/><rect x="84.86537354601543" y="423.18552032010626" width="40.0" height="20.0" fill="url(#bevelr1x3576)" stroke="#00ff60" stroke-width="1" filter="url(#wmr1x3576)"/><rect x="83.86630576210094" y="510.78627643873915" width="40.0" height="20.0" fill="url(#bevelr1x3576)" stroke="#00ff60" stroke-width="1" filter="url(#wmr1x3576)"/><rect x="83.78804251648482" y="602.1569426018744" width="40.0" height="20.0" fill="url(#bevelr1x3576)" stroke="#00ff60" stroke-width="1" filter="url(#wmr1x3576)"/><rect x="83.5037593353912" y="690.9834980941378" width="40.0" height="20.0" fill="url(#bevelr1x3576)" stroke="#00ff60" stroke-width="1" filter="url(#wmr1x3576)"/><ellipse cx="101.56847366461527" cy="790.5995352418162" rx="22.0" ry="15.0" fill="url(#bevelr1x3576)" stroke="#00ff60" stroke-width="1" filter="url(#wmr1x3576)"/></g><rect x="448.9514773537405" y="556.7458569758571" width="100.0"  height="56.0" fill="#00441e" stroke="#00ff60" stroke-width="2.2" filter="url(#skr1x3576)"/><rect x="423.2807390736416" y="575.73311578976" width="152.0" height="26.0" fill="url(#bevelr1x3576)" fill-opacity=".65" stroke="#00ff60" stroke-width="1.2" filter="url(#skr1x3576)"/><polygon points="308.3,379.2 350.8,293.7 501.2,277.7 649.8,295.4 691.2,380.8 669.6,505.4 498.5,564.1 331.0,503.9" fill="url(#suitr1x3576)" stroke="#00ff60" stroke-width="2.8" filter="url(#skr1x3576) url(#metalr1x3576)"/><polygon points="308.8,380.8 350.7,296.2 501.6,278.4 650.2,294.4 692.0,381.5 669.1,503.5 500.4,563.6 332.1,503.3" fill="url(#carbonr1x3576)"/><polygon points="382.0,303.4 499.8,287.5 620.5,301.4 608.0,379.9 391.7,381.6" fill="url(#suitHir1x3576)"/><polygon points="381.5,382.3 363.9,426.8 434.1,502.4 500.7,526.8 567.7,504.4 636.0,427.1 619.4,379.5" fill="#0a0520" fill-opacity=".88" stroke="#00ff60" stroke-width="1.8" filter="url(#skr1x3576)"/><polygon points="381.5,413.0 477.2,411.2 485.9,439.1 387.4,440.3" fill="#00ff60" filter="url(#glowr1x3576)"/><polygon points="522.8,411.4 620.2,412.8 611.7,438.4 516.6,438.3" fill="#00ff60" filter="url(#glowr1x3576)"/><ellipse cx="430.9" cy="425.7" rx="38.4"  ry="8.2" fill="#ffffff" opacity=".88"/><ellipse cx="569.1" cy="425.7" rx="38.4"  ry="8.2" fill="#ffffff" opacity=".88"/><line x1="485.3052595579624" y1="412.19529148293657" x2="514.2797363755666" y2="411.60424802983175" stroke="#00ff60" stroke-opacity=".52" stroke-width="2"/><line x1="486.30369535727425" y1="437.8047843628563" x2="514.0626319791563" y2="436.58091466259214" stroke="#00ff60" stroke-opacity=".52" stroke-width="2"/><line x1="501.47621860895305" y1="453.34615290565415" x2="499.31415647016837" y2="483.5317544533871" stroke="#00ff60" stroke-opacity=".58" stroke-width="2.2" filter="url(#skr1x3576)"/><line x1="453.32452078422534" y1="491.57755555128676" x2="454.05385674729945" y2="518.2919555529952" stroke="#00ff60" stroke-opacity=".52" stroke-width="1.5" filter="url(#skr1x3576)"/><line x1="475.49110264567656" y1="492.187142733857" x2="475.6171670854464" y2="520.3903900998645" stroke="#00ff60" stroke-opacity=".52" stroke-width="1.5" filter="url(#skr1x3576)"/><line x1="501.571536973957" y1="492.6217994580976" x2="501.09862735671925" y2="519.7116297719069" stroke="#00ff60" stroke-opacity=".52" stroke-width="1.5" filter="url(#skr1x3576)"/><line x1="522.333870308157" y1="492.77971987072374" x2="521.3657358029484" y2="520.9811880503781" stroke="#00ff60" stroke-opacity=".52" stroke-width="1.5" filter="url(#skr1x3576)"/><line x1="544.912742631808" y1="491.4962810759432" x2="545.4774121650681" y2="521.1581351040862" stroke="#00ff60" stroke-opacity=".52" stroke-width="1.5" filter="url(#skr1x3576)"/><polygon points="431.6,503.3 566.4,504.9 554.3,556.4 447.5,558.3" fill="#00441e" fill-opacity=".72" stroke="#00ff60" stroke-width="1.3" filter="url(#skr1x3576)"/><text x="30.0"  y="975.0" font-family="monospace" font-weight="bold" font-size="22.0" fill="rgba(255,255,255,.22)">#0001</text><text x="500.0"   y="975.0" text-anchor="middle" font-family="monospace" font-weight="bold" font-size="22.0" fill="#00ff60" fill-opacity=".48">VIPER RANGER</text><text x="970.0" y="975.0" text-anchor="end"    font-family="monospace" font-weight="bold" font-size="22.0" fill="#00ff60" fill-opacity=".32">MECH RANGERS</text></svg>