<svg xmlns="http://www.w3.org/2000/svg" viewBox="0 0 1000 1000" width="1000" height="1000" shape-rendering="geometricPrecision"><defs>

  <!-- Scene gradients -->
  <radialGradient id="bgr1x3598" cx="50%" cy="42%" r="72%">
    <stop offset="0%"   stop-color="#001e1e"/>
    <stop offset="100%" stop-color="#0e001e"/>
  </radialGradient>
  <linearGradient id="suitr1x3598" x1="8%" y1="0%" x2="92%" y2="100%">
    <stop offset="0%"   stop-color="#ff44aa" stop-opacity=".95"/>
    <stop offset="45%"  stop-color="#880050"/>
    <stop offset="100%" stop-color="#0e001e"/>
  </linearGradient>
  <linearGradient id="suitHir1x3598" x1="0%" y1="0%" x2="0%" y2="100%">
    <stop offset="0%"   stop-color="rgba(255,255,255,.28)"/>
    <stop offset="60%"  stop-color="rgba(255,255,255,.04)"/>
    <stop offset="100%" stop-color="rgba(255,255,255,0)"/>
  </linearGradient>
  <!-- Bevel: bright top, dark bottom for armour panels -->
  <linearGradient id="bevelr1x3598" x1="0%" y1="0%" x2="0%" y2="100%">
    <stop offset="0%"   stop-color="rgba(255,255,255,.55)"/>
    <stop offset="30%"  stop-color="#ff44aa"/>
    <stop offset="70%"  stop-color="#880050"/>
    <stop offset="100%" stop-color="rgba(0,0,0,.5)"/>
  </linearGradient>

  <!-- Weapon: cold steel blade sweep -->
  <linearGradient id="blader1x3598" x1="0%" y1="0%" x2="100%" y2="0%">
    <stop offset="0%"   stop-color="#0e0e20"/>
    <stop offset="16%"  stop-color="#3e3e58"/>
    <stop offset="34%"  stop-color="#c8c8e0"/>
    <stop offset="50%"  stop-color="#f5f5ff"/>
    <stop offset="66%"  stop-color="#b8b8d0"/>
    <stop offset="84%"  stop-color="#2e2e48"/>
    <stop offset="100%" stop-color="#08080e"/>
  </linearGradient>
  <!-- Blade tip brightening -->
  <linearGradient id="bladeTipr1x3598" x1="0%" y1="100%" x2="0%" y2="0%">
    <stop offset="0%"   stop-color="rgba(255,255,255,0)"/>
    <stop offset="55%"  stop-color="rgba(255,255,255,.1)"/>
    <stop offset="100%" stop-color="rgba(255,255,255,.55)"/>
  </linearGradient>
  <!-- Gunmetal anodised — blaster body -->
  <linearGradient id="gunmetalr1x3598" x1="0%" y1="0%" x2="0%" y2="100%">
    <stop offset="0%"   stop-color="#46465e"/>
    <stop offset="18%"  stop-color="#828296"/>
    <stop offset="42%"  stop-color="#26263a"/>
    <stop offset="72%"  stop-color="#16162a"/>
    <stop offset="100%" stop-color="#0c0c18"/>
  </linearGradient>
  <!-- Brushed steel tube — barrel/rod -->
  <linearGradient id="barrelr1x3598" x1="0%" y1="0%" x2="100%" y2="0%">
    <stop offset="0%"   stop-color="#0a0a14"/>
    <stop offset="24%"  stop-color="#585875"/>
    <stop offset="50%"  stop-color="#a8a8c8"/>
    <stop offset="76%"  stop-color="#383852"/>
    <stop offset="100%" stop-color="#0a0a14"/>
  </linearGradient>
  <!-- Chrome rod — lance shaft -->
  <linearGradient id="chromer1x3598" x1="0%" y1="0%" x2="100%" y2="0%">
    <stop offset="0%"   stop-color="#0c0c18"/>
    <stop offset="20%"  stop-color="#686888"/>
    <stop offset="44%"  stop-color="#e0e0f0"/>
    <stop offset="56%"  stop-color="#c0c0d8"/>
    <stop offset="80%"  stop-color="#28283e"/>
    <stop offset="100%" stop-color="#0c0c18"/>
  </linearGradient>
  <!-- Titanium plate — shield face -->
  <linearGradient id="titaniumr1x3598" x1="0%" y1="0%" x2="100%" y2="100%">
    <stop offset="0%"   stop-color="#585878"/>
    <stop offset="28%"  stop-color="#ff44aa" stop-opacity=".88"/>
    <stop offset="55%"  stop-color="#880050"/>
    <stop offset="80%"  stop-color="#181828"/>
    <stop offset="100%" stop-color="#0a0a18"/>
  </linearGradient>
  <!-- Artillery black-chrome — cannon body -->
  <linearGradient id="artilleryr1x3598" x1="0%" y1="0%" x2="0%" y2="100%">
    <stop offset="0%"   stop-color="#383850"/>
    <stop offset="14%"  stop-color="#78789a"/>
    <stop offset="36%"  stop-color="#202034"/>
    <stop offset="65%"  stop-color="#14141e"/>
    <stop offset="100%" stop-color="#0a0a12"/>
  </linearGradient>
  <!-- Energy orb — staff -->
  <radialGradient id="orbr1x3598" cx="35%" cy="35%" r="65%">
    <stop offset="0%"   stop-color="rgba(255,255,255,.9)"/>
    <stop offset="30%"  stop-color="#ff44aa"/>
    <stop offset="68%"  stop-color="#880050"/>
    <stop offset="100%" stop-color="rgba(0,0,0,.6)"/>
  </radialGradient>
  <!-- Knuckle plate chrome -->
  <linearGradient id="knuckler1x3598" x1="0%" y1="0%" x2="0%" y2="100%">
    <stop offset="0%"   stop-color="#888aaa"/>
    <stop offset="32%"  stop-color="#ff44aa" stop-opacity=".8"/>
    <stop offset="62%"  stop-color="#1a1a2c"/>
    <stop offset="100%" stop-color="#0a0a14"/>
  </linearGradient>

  <!-- Carbon fibre weave texture overlay -->
  <pattern id="carbonr1x3598" width="6" height="6" patternUnits="userSpaceOnUse">
    <rect width="6" height="6" fill="rgba(0,0,0,.08)"/>
    <rect x="0" y="0" width="3" height="3" fill="rgba(255,255,255,.022)"/>
    <rect x="3" y="3" width="3" height="3" fill="rgba(255,255,255,.022)"/>
    <line x1="0" y1="0" x2="3" y2="3" stroke="rgba(255,255,255,.038)" stroke-width=".5"/>
    <line x1="3" y1="0" x2="6" y2="3" stroke="rgba(0,0,0,.055)"       stroke-width=".5"/>
    <line x1="0" y1="3" x2="3" y2="6" stroke="rgba(0,0,0,.055)"       stroke-width=".5"/>
    <line x1="3" y1="3" x2="6" y2="6" stroke="rgba(255,255,255,.038)" stroke-width=".5"/>
  </pattern>

  <!-- Specular metal sheen on armour panels -->
  <filter id="metalr1x3598" x="-5%" y="-5%" width="110%" height="110%">
    <feSpecularLighting surfaceScale="4" specularConstant="1.8"
        specularExponent="42" lighting-color="#ffffff" result="spec">
      <feDistantLight elevation="52" azimuth="38"/>
    </feSpecularLighting>
    <feComposite in="spec" in2="SourceGraphic" operator="in" result="sm"/>
    <feComposite in="SourceGraphic" in2="sm" operator="arithmetic" k1="0" k2="1" k3="0.55" k4="0"/>
  </filter>

  <!-- Sharper specular for weapons — heavier glare -->
  <filter id="wmr1x3598" x="-8%" y="-8%" width="116%" height="116%">
    <feSpecularLighting surfaceScale="6" specularConstant="2.4"
        specularExponent="65" lighting-color="#ffffff" result="spec">
      <feDistantLight elevation="44" azimuth="28"/>
    </feSpecularLighting>
    <feComposite in="spec" in2="SourceGraphic" operator="in" result="sm"/>
    <feComposite in="SourceGraphic" in2="sm" operator="arithmetic" k1="0" k2="1" k3="0.78" k4="0"/>
  </filter>

  <!-- Sketch wobble -->
  <filter id="skr1x3598" x="-8%" y="-8%" width="116%" height="116%">
    <feTurbulence type="fractalNoise" baseFrequency="0.038"
        numOctaves="3" seed="51" result="noise"/>
    <feDisplacementMap in="SourceGraphic" in2="noise" scale="2.6"
        xChannelSelector="R" yChannelSelector="G" result="w"/>
    <feComposite in="w" in2="SourceGraphic" operator="atop"/>
  </filter>

  <!-- Glow: sharp accent -->
  <filter id="glowr1x3598" x="-20%" y="-20%" width="140%" height="140%">
    <feGaussianBlur stdDeviation="3.5" result="b"/>
    <feColorMatrix in="b" type="matrix"
        values="0 0 0 0 1  0 0 0 0 1  0 0 0 0 1  0 0 0 1.8 0" result="boost"/>
    <feMerge><feMergeNode in="boost"/><feMergeNode in="SourceGraphic"/></feMerge>
  </filter>

  <!-- Bloom: wide soft -->
  <filter id="bloomr1x3598" x="-40%" y="-40%" width="180%" height="180%">
    <feGaussianBlur stdDeviation="11" result="b"/>
    <feMerge><feMergeNode in="b"/><feMergeNode in="SourceGraphic"/></feMerge>
  </filter>

  </defs><rect width="1000" height="1000" fill="url(#bgr1x3598)"/><circle cx="500" cy="500" r="420.0" fill="none" stroke="#ff44aa" stroke-opacity=".11" stroke-width="42" stroke-dasharray="8,5"/><circle cx="500" cy="500" r="240.0" fill="none" stroke="#880050" stroke-opacity=".09" stroke-width="18"/><line x1="500" y1="500" x2="1500.0" y2="500.0" stroke="#ff44aa" stroke-opacity=".035" stroke-width="1.2"/><line x1="500" y1="500" x2="1366.0" y2="1000.0" stroke="#ff44aa" stroke-opacity=".035" stroke-width="1.2"/><line x1="500" y1="500" x2="1000.0" y2="1366.0" stroke="#ff44aa" stroke-opacity=".035" stroke-width="1.2"/><line x1="500" y1="500" x2="500.0" y2="1500.0" stroke="#ff44aa" stroke-opacity=".035" stroke-width="1.2"/><line x1="500" y1="500" x2="0.0" y2="1366.0" stroke="#ff44aa" stroke-opacity=".035" stroke-width="1.2"/><line x1="500" y1="500" x2="-366.0" y2="1000.0" stroke="#ff44aa" stroke-opacity=".035" stroke-width="1.2"/><line x1="500" y1="500" x2="-500.0" y2="500.0" stroke="#ff44aa" stroke-opacity=".035" stroke-width="1.2"/><line x1="500" y1="500" x2="-366.0" y2="-0.0" stroke="#ff44aa" stroke-opacity=".035" stroke-width="1.2"/><line x1="500" y1="500" x2="-0.0" y2="-366.0" stroke="#ff44aa" stroke-opacity=".035" stroke-width="1.2"/><line x1="500" y1="500" x2="500.0" y2="-500.0" stroke="#ff44aa" stroke-opacity=".035" stroke-width="1.2"/><line x1="500" y1="500" x2="1000.0" y2="-366.0" stroke="#ff44aa" stroke-opacity=".035" stroke-width="1.2"/><line x1="500" y1="500" x2="1366.0" y2="-0.0" stroke="#ff44aa" stroke-opacity=".035" stroke-width="1.2"/><ellipse cx="500.0" cy="892.0" rx="350.0" ry="65.0" fill="rgba(0,0,0,.7)" filter="url(#bloomr1x3598)"/><ellipse cx="500.0" cy="889.0" rx="220.0" ry="34.0" fill="rgba(0,0,0,.45)"/><ellipse cx="500.0" cy="520.0" rx="320.0" ry="480.0" fill="#ff00ff" fill-opacity=".042" filter="url(#bloomr1x3598)"/><circle cx="583.6" cy="439.4" r="3.6" fill="#ff00ff" fill-opacity="0.44" filter="url(#glowr1x3598)"/><circle cx="562.4" cy="700.2" r="2.2" fill="#ff00ff" fill-opacity="0.46" filter="url(#glowr1x3598)"/><circle cx="632.3" cy="756.3" r="1.0" fill="#ff00ff" fill-opacity="0.76" filter="url(#glowr1x3598)"/><circle cx="458.2" cy="207.4" r="3.9" fill="#ff00ff" fill-opacity="0.80" filter="url(#glowr1x3598)"/><circle cx="506.3" cy="779.1" r="0.6" fill="#ff00ff" fill-opacity="0.89" filter="url(#glowr1x3598)"/><circle cx="667.2" cy="211.0" r="1.3" fill="#ff00ff" fill-opacity="0.83" filter="url(#glowr1x3598)"/><circle cx="542.4" cy="782.5" r="1.9" fill="#ff00ff" fill-opacity="0.71" filter="url(#glowr1x3598)"/><circle cx="481.9" cy="487.3" r="4.2" fill="#ff00ff" fill-opacity="0.79" filter="url(#glowr1x3598)"/><circle cx="653.2" cy="311.9" r="2.7" fill="#ff00ff" fill-opacity="0.77" filter="url(#glowr1x3598)"/><circle cx="310.4" cy="761.8" r="2.9" fill="#ff00ff" fill-opacity="0.48" filter="url(#glowr1x3598)"/><circle cx="456.2" cy="437.1" r="2.8" fill="#ff00ff" fill-opacity="0.48" filter="url(#glowr1x3598)"/><circle cx="413.9" cy="688.5" r="0.8" fill="#ff00ff" fill-opacity="0.53" filter="url(#glowr1x3598)"/><circle cx="451.5" cy="733.6" r="3.5" fill="#ff00ff" fill-opacity="0.49" filter="url(#glowr1x3598)"/><circle cx="581.8" cy="650.9" r="1.1" fill="#ff00ff" fill-opacity="0.85" filter="url(#glowr1x3598)"/><path d="M310.5,345.8 Q311.8,572.3 473.7,825.7" stroke="#ff00ff" stroke-opacity="0.57" stroke-width="2.7" fill="none" filter="url(#glowr1x3598)"/><path d="M550.3,200.0 Q568.9,398.6 291.4,651.3" stroke="#ff00ff" stroke-opacity="0.61" stroke-width="1.1" fill="none" filter="url(#glowr1x3598)"/><path d="M401.1,231.8 Q422.3,511.4 464.1,780.8" stroke="#ff00ff" stroke-opacity="0.51" stroke-width="1.1" fill="none" filter="url(#glowr1x3598)"/><path d="M652.8,282.6 Q635.1,497.9 469.1,725.1" stroke="#ff00ff" stroke-opacity="0.61" stroke-width="1.2" fill="none" filter="url(#glowr1x3598)"/><path d="M294.9,157.6 Q330.5,495.0 388.6,879.3" stroke="#ff00ff" stroke-opacity="0.50" stroke-width="2.1" fill="none" filter="url(#glowr1x3598)"/><polygon points="400.4,661.8 490.9,662.9 480.3,878.9 387.0,878.8" fill="url(#suitr1x3598)" stroke="#ff44aa" stroke-width="2.2" filter="url(#skr1x3598) url(#metalr1x3598)"/><polygon points="399.0,661.9 487.7,661.0 480.9,878.3 388.9,879.1" fill="url(#carbonr1x3598)"/><polygon points="392.8,723.0 494.2,724.8 485.3,789.8 382.7,787.6" fill="url(#bevelr1x3598)" fill-opacity=".5" stroke="#ff44aa" stroke-width="1.4" filter="url(#skr1x3598)"/><polygon points="508.8,663.2 602.8,661.9 614.0,878.3 519.2,876.4" fill="url(#suitr1x3598)" stroke="#ff44aa" stroke-width="2.2" filter="url(#skr1x3598) url(#metalr1x3598)"/><polygon points="510.5,663.5 601.9,662.1 613.4,875.7 517.9,876.4" fill="url(#carbonr1x3598)"/><polygon points="505.3,724.5 606.1,722.5 615.1,787.4 516.8,786.9" fill="url(#bevelr1x3598)" fill-opacity=".5" stroke="#ff44aa" stroke-width="1.4" filter="url(#skr1x3598)"/><rect x="393.5" y="837.8" width="100.3" height="24.7" fill="url(#bevelr1x3598)" stroke="#ff44aa" stroke-width="1" filter="url(#skr1x3598)"/><rect x="505.3"  y="839.5" width="100.3" height="24.7" fill="url(#bevelr1x3598)" stroke="#ff44aa" stroke-width="1" filter="url(#skr1x3598)"/><polygon points="371.3,876.4 495.9,876.3 505.0,920.9 362.3,922.3" fill="#880050" stroke="#ff44aa" stroke-width="2" filter="url(#skr1x3598)"/><polygon points="504.8,876.8 629.2,877.3 638.3,920.5 496.9,922.6" fill="#880050" stroke="#ff44aa" stroke-width="2" filter="url(#skr1x3598)"/><polygon points="305.2,634.5 695.6,632.3 638.4,681.1 360.5,681.0" fill="#ff44aa" fill-opacity=".52" stroke="#ff44aa" stroke-width="2" filter="url(#skr1x3598)"/><rect x="463.5" y="637.6" width="72.0" height="42.0" fill="url(#bevelr1x3598)" stroke="#ff44aa" stroke-width="1.4" filter="url(#glowr1x3598)"/><rect x="485.4" y="642.0" width="28.0" height="22.0" rx="1" fill="rgba(255,255,255,.48)"/><polygon points="152.8,467.8 234.6,465.8 259.2,736.4 128.4,733.9" fill="url(#suitr1x3598)" stroke="#ff44aa" stroke-width="2.2" filter="url(#skr1x3598) url(#metalr1x3598)"/><polygon points="174.3,432.4 254.1,432.1 242.2,510.2 160.1,511.8" fill="url(#bevelr1x3598)" fill-opacity=".72" stroke="#ff44aa" stroke-width="2.2" filter="url(#skr1x3598)"/><polygon points="160.7,620.3 242.6,621.9 237.8,661.9 164.5,661.9" fill="#ff44aa" fill-opacity=".42" stroke="#ff44aa" stroke-width="1" filter="url(#skr1x3598)"/><polygon points="763.8,464.8 846.0,466.5 873.4,734.4 743.8,735.8" fill="url(#suitr1x3598)" stroke="#ff44aa" stroke-width="2.2" filter="url(#skr1x3598) url(#metalr1x3598)"/><polygon points="748.7,431.1 825.4,432.1 841.9,511.7 756.3,510.0" fill="url(#bevelr1x3598)" fill-opacity=".72" stroke="#ff44aa" stroke-width="2.2" filter="url(#skr1x3598)"/><polygon points="756.4,622.8 839.4,622.8 834.6,662.0 759.8,661.9" fill="#ff44aa" fill-opacity=".42" stroke="#ff44aa" stroke-width="1" filter="url(#skr1x3598)"/><rect x="119.6"  y="701.4" width="135.3" height="85.0" rx="4" fill="url(#bevelr1x3598)" stroke="#ff44aa" stroke-width="1.8" filter="url(#skr1x3598)"/><rect x="747.8"   y="701.6" width="135.3" height="85.0" rx="4" fill="url(#bevelr1x3598)" stroke="#ff44aa" stroke-width="1.8" filter="url(#skr1x3598)"/><line x1="151.4" y1="701.8" x2="149.0" y2="783.0" stroke="#ff44aa" stroke-opacity=".38" stroke-width="1"/><line x1="779.1" y1="702.8" x2="777.6" y2="784.6" stroke="#ff44aa" stroke-opacity=".38" stroke-width="1"/><line x1="182.6" y1="702.9" x2="183.3" y2="782.7" stroke="#ff44aa" stroke-opacity=".38" stroke-width="1"/><line x1="810.3" y1="700.1" x2="810.9" y2="783.9" stroke="#ff44aa" stroke-opacity=".38" stroke-width="1"/><line x1="216.9" y1="701.3" x2="216.0" y2="784.6" stroke="#ff44aa" stroke-opacity=".38" stroke-width="1"/><line x1="844.2" y1="700.7" x2="842.9" y2="783.4" stroke="#ff44aa" stroke-opacity=".38" stroke-width="1"/><polygon points="234.1,418.9 763.6,417.5 721.1,662.2 275.7,663.4" fill="url(#suitr1x3598)" stroke="#ff44aa" stroke-width="2.6" filter="url(#skr1x3598) url(#metalr1x3598)"/><polygon points="236.4,417.9 765.3,416.4 721.5,662.1 276.8,663.6" fill="url(#carbonr1x3598)"/><polygon points="368.4,418.4 633.9,416.5 612.8,514.0 390.4,515.5" fill="url(#suitHir1x3598)"/><line x1="361.5" y1="472.6" x2="636.4" y2="473.0" stroke="#ff44aa" stroke-opacity=".52" stroke-width="1.3" filter="url(#skr1x3598)"/><line x1="399.2" y1="549.2" x2="600.3" y2="550.6" stroke="#ff44aa" stroke-opacity=".52" stroke-width="1.3" filter="url(#skr1x3598)"/><line x1="268.5" y1="489.8" x2="320.4" y2="489.8" stroke="#ff44aa" stroke-opacity=".62" stroke-width="1.8"/><line x1="679.6" y1="491.3" x2="734.8" y2="489.5" stroke="#ff44aa" stroke-opacity=".62" stroke-width="1.8"/><line x1="267.1" y1="522.4" x2="320.2" y2="521.9" stroke="#ff44aa" stroke-opacity=".62" stroke-width="1.8"/><line x1="681.0" y1="522.8" x2="734.1" y2="523.3" stroke="#ff44aa" stroke-opacity=".62" stroke-width="1.8"/><line x1="268.3" y1="555.9" x2="321.3" y2="555.2" stroke="#ff44aa" stroke-opacity=".62" stroke-width="1.8"/><line x1="680.4" y1="553.0" x2="733.6" y2="553.6" stroke="#ff44aa" stroke-opacity=".62" stroke-width="1.8"/><line x1="267.8" y1="587.0" x2="321.4" y2="587.5" stroke="#ff44aa" stroke-opacity=".62" stroke-width="1.8"/><line x1="679.4" y1="586.6" x2="734.5" y2="586.9" stroke="#ff44aa" stroke-opacity=".62" stroke-width="1.8"/><g filter="url(#glowr1x3598)"><path d="M500.0,449.7 C462.3,446.8 442.0,481.6 447.8,513.5 L459.4,542.5 C476.8,536.7 491.3,551.2 500.0,551.2 C508.7,551.2 523.2,536.7 540.6,542.5 L552.2,513.5 C558.0,481.6 537.7,446.8 500.0,449.7 Z" fill="#ff44aa" fill-opacity=".92" stroke="#0e001e" stroke-width="1.3" filter="url(#skr1x3598)"/><path d="M483.8,519.3 Q500.0,533.8 516.2,519.3" stroke="#0e001e" stroke-width="1" fill="none" opacity=".58"/><ellipse cx="481.4" cy="497.8" rx="8.7" ry="6.4" fill="#0e001e" opacity=".95"/><ellipse cx="518.6" cy="497.8" rx="8.7" ry="6.4" fill="#0e001e" opacity=".95"/><ellipse cx="481.4" cy="497.8" rx="2.3" ry="5.8" fill="#ff44aa"/><ellipse cx="518.6" cy="497.8" rx="2.3" ry="5.8" fill="#ff44aa"/><path d="M471.0,467.1 L458.2,426.5 L481.4,463.0" fill="#ff44aa" stroke="#0e001e" stroke-width=".9"/><path d="M529.0,467.1 L541.8,426.5 L518.6,463.0" fill="#ff44aa" stroke="#0e001e" stroke-width=".9"/><path d="M476.8,452.6 C488.4,449.1 511.6,449.1 523.2,452.6" fill="rgba(255,255,255,.18)"/></g><g><rect x="114.8" y="702.9" width="137.8" height="88.0" rx="5" fill="url(#bevelr1x3598)" stroke="#ff44aa" stroke-width="2" filter="url(#wmr1x3598)"/><rect x="115.2" y="702.9" width="137.8" height="88.0" rx="5" fill="url(#carbonr1x3598)"/><rect x="750.1"  y="703.5" width="137.8" height="88.0" rx="5" fill="url(#bevelr1x3598)" stroke="#ff44aa" stroke-width="2" filter="url(#wmr1x3598)"/><rect x="750.2"  y="701.7" width="137.8" height="88.0" rx="5" fill="url(#carbonr1x3598)"/><rect x="120.5" y="699.5" width="23.0" height="22.0" rx="2" fill="url(#knuckler1x3598)" stroke="#ff44aa" stroke-width=".8" filter="url(#wmr1x3598)"/><rect x="756.9" y="701.0" width="23.0" height="22.0" rx="2" fill="url(#knuckler1x3598)" stroke="#ff44aa" stroke-width=".8" filter="url(#wmr1x3598)"/><rect x="151.0" y="698.9" width="23.0" height="22.0" rx="2" fill="url(#knuckler1x3598)" stroke="#ff44aa" stroke-width=".8" filter="url(#wmr1x3598)"/><rect x="786.1" y="701.3" width="23.0" height="22.0" rx="2" fill="url(#knuckler1x3598)" stroke="#ff44aa" stroke-width=".8" filter="url(#wmr1x3598)"/><rect x="179.2" y="699.6" width="23.0" height="22.0" rx="2" fill="url(#knuckler1x3598)" stroke="#ff44aa" stroke-width=".8" filter="url(#wmr1x3598)"/><rect x="814.3" y="700.2" width="23.0" height="22.0" rx="2" fill="url(#knuckler1x3598)" stroke="#ff44aa" stroke-width=".8" filter="url(#wmr1x3598)"/><rect x="211.8" y="698.6" width="23.0" height="22.0" rx="2" fill="url(#knuckler1x3598)" stroke="#ff44aa" stroke-width=".8" filter="url(#wmr1x3598)"/><rect x="845.3" y="698.4" width="23.0" height="22.0" rx="2" fill="url(#knuckler1x3598)" stroke="#ff44aa" stroke-width=".8" filter="url(#wmr1x3598)"/><ellipse cx="184.10716900344937" cy="711.8687098636105" rx="45.1" ry="30.0" fill="#ff44aa" fill-opacity=".25" filter="url(#glowr1x3598)"/><ellipse cx="816.6642399440706" cy="710.3910613883099" rx="45.1" ry="30.0" fill="#ff44aa" fill-opacity=".25" filter="url(#glowr1x3598)"/></g><rect x="448.29913428593426" y="558.0038994237781" width="100.0"  height="56.0" fill="#880050" stroke="#ff44aa" stroke-width="2.2" filter="url(#skr1x3598)"/><rect x="423.9617041807622" y="575.0789671300911" width="152.0" height="26.0" fill="url(#bevelr1x3598)" fill-opacity=".65" stroke="#ff44aa" stroke-width="1.2" filter="url(#skr1x3598)"/><polygon points="307.0,379.8 348.9,292.7 498.7,277.4 648.8,293.1 692.4,379.7 668.6,504.2 498.6,564.5 331.1,502.5" fill="url(#suitr1x3598)" stroke="#ff44aa" stroke-width="2.8" filter="url(#skr1x3598) url(#metalr1x3598)"/><polygon points="308.0,380.6 352.0,292.9 499.8,278.2 650.2,294.1 691.2,380.0 668.2,503.9 500.7,565.1 331.3,502.7" fill="url(#carbonr1x3598)"/><polygon points="382.7,303.1 501.0,286.9 618.9,302.8 609.1,380.7 392.4,382.1" fill="url(#suitHir1x3598)"/><polygon points="381.5,380.1 364.1,426.0 434.0,503.0 500.4,529.5 568.2,503.6 634.0,425.8 617.3,381.6" fill="#0e001e" fill-opacity=".88" stroke="#ff44aa" stroke-width="1.8" filter="url(#skr1x3598)"/><polygon points="381.5,412.4 476.5,411.1 485.7,441.8 388.5,440.7" fill="#ff44aa" filter="url(#glowr1x3598)"/><polygon points="523.1,410.1 620.3,410.2 610.9,441.8 515.3,439.3" fill="#ff44aa" filter="url(#glowr1x3598)"/><ellipse cx="430.9" cy="425.7" rx="38.4"  ry="8.2" fill="#ffffff" opacity=".88"/><ellipse cx="569.1" cy="425.7" rx="38.4"  ry="8.2" fill="#ffffff" opacity=".88"/><line x1="485.8693563549407" y1="414.1113778796978" x2="516.5291826452501" y2="413.2575093350373" stroke="#ff44aa" stroke-opacity=".52" stroke-width="2"/><line x1="483.43481858434154" y1="438.77562719760465" x2="516.6346214534157" y2="439.51888753864915" stroke="#ff44aa" stroke-opacity=".52" stroke-width="2"/><line x1="499.09482279010115" y1="456.00703711165113" x2="500.0468528505415" y2="484.1755228384398" stroke="#ff44aa" stroke-opacity=".58" stroke-width="2.2" filter="url(#skr1x3598)"/><line x1="452.1866524791159" y1="490.4662337167188" x2="454.2586734555476" y2="519.1549065770581" stroke="#ff44aa" stroke-opacity=".52" stroke-width="1.5" filter="url(#skr1x3598)"/><line x1="478.34847193140536" y1="490.60386447375635" x2="477.2276400724798" y2="518.217446202226" stroke="#ff44aa" stroke-opacity=".52" stroke-width="1.5" filter="url(#skr1x3598)"/><line x1="501.594557353016" y1="490.4336312666535" x2="499.957929567527" y2="518.639232629817" stroke="#ff44aa" stroke-opacity=".52" stroke-width="1.5" filter="url(#skr1x3598)"/><line x1="522.9048222848772" y1="491.18054253924635" x2="524.6551041444391" y2="520.4600578781217" stroke="#ff44aa" stroke-opacity=".52" stroke-width="1.5" filter="url(#skr1x3598)"/><line x1="544.9692620747909" y1="492.83859887477007" x2="545.001953038592" y2="520.080585466139" stroke="#ff44aa" stroke-opacity=".52" stroke-width="1.5" filter="url(#skr1x3598)"/><polygon points="432.3,502.2 565.6,504.6 554.6,555.5 445.4,557.7" fill="#880050" fill-opacity=".72" stroke="#ff44aa" stroke-width="1.3" filter="url(#skr1x3598)"/><text x="30.0"  y="975.0" font-family="monospace" font-weight="bold" font-size="22.0" fill="rgba(255,255,255,.22)">#0001</text><text x="500.0"   y="975.0" text-anchor="middle" font-family="monospace" font-weight="bold" font-size="22.0" fill="#ff44aa" fill-opacity=".48">SAKURA RANGER</text><text x="970.0" y="975.0" text-anchor="end"    font-family="monospace" font-weight="bold" font-size="22.0" fill="#ff44aa" fill-opacity=".32">MECH RANGERS</text></svg>