<svg xmlns="http://www.w3.org/2000/svg" viewBox="0 0 1000 1000" width="1000" height="1000" shape-rendering="geometricPrecision"><defs>

  <!-- Scene gradients -->
  <radialGradient id="bgr1x3630" cx="50%" cy="42%" r="72%">
    <stop offset="0%"   stop-color="#1e0a2e"/>
    <stop offset="100%" stop-color="#0a0520"/>
  </radialGradient>
  <linearGradient id="suitr1x3630" x1="8%" y1="0%" x2="92%" y2="100%">
    <stop offset="0%"   stop-color="#ff44aa" stop-opacity=".95"/>
    <stop offset="45%"  stop-color="#880050"/>
    <stop offset="100%" stop-color="#0a0520"/>
  </linearGradient>
  <linearGradient id="suitHir1x3630" x1="0%" y1="0%" x2="0%" y2="100%">
    <stop offset="0%"   stop-color="rgba(255,255,255,.28)"/>
    <stop offset="60%"  stop-color="rgba(255,255,255,.04)"/>
    <stop offset="100%" stop-color="rgba(255,255,255,0)"/>
  </linearGradient>
  <!-- Bevel: bright top, dark bottom for armour panels -->
  <linearGradient id="bevelr1x3630" x1="0%" y1="0%" x2="0%" y2="100%">
    <stop offset="0%"   stop-color="rgba(255,255,255,.55)"/>
    <stop offset="30%"  stop-color="#ff44aa"/>
    <stop offset="70%"  stop-color="#880050"/>
    <stop offset="100%" stop-color="rgba(0,0,0,.5)"/>
  </linearGradient>

  <!-- Weapon: cold steel blade sweep -->
  <linearGradient id="blader1x3630" x1="0%" y1="0%" x2="100%" y2="0%">
    <stop offset="0%"   stop-color="#0e0e20"/>
    <stop offset="16%"  stop-color="#3e3e58"/>
    <stop offset="34%"  stop-color="#c8c8e0"/>
    <stop offset="50%"  stop-color="#f5f5ff"/>
    <stop offset="66%"  stop-color="#b8b8d0"/>
    <stop offset="84%"  stop-color="#2e2e48"/>
    <stop offset="100%" stop-color="#08080e"/>
  </linearGradient>
  <!-- Blade tip brightening -->
  <linearGradient id="bladeTipr1x3630" x1="0%" y1="100%" x2="0%" y2="0%">
    <stop offset="0%"   stop-color="rgba(255,255,255,0)"/>
    <stop offset="55%"  stop-color="rgba(255,255,255,.1)"/>
    <stop offset="100%" stop-color="rgba(255,255,255,.55)"/>
  </linearGradient>
  <!-- Gunmetal anodised — blaster body -->
  <linearGradient id="gunmetalr1x3630" x1="0%" y1="0%" x2="0%" y2="100%">
    <stop offset="0%"   stop-color="#46465e"/>
    <stop offset="18%"  stop-color="#828296"/>
    <stop offset="42%"  stop-color="#26263a"/>
    <stop offset="72%"  stop-color="#16162a"/>
    <stop offset="100%" stop-color="#0c0c18"/>
  </linearGradient>
  <!-- Brushed steel tube — barrel/rod -->
  <linearGradient id="barrelr1x3630" x1="0%" y1="0%" x2="100%" y2="0%">
    <stop offset="0%"   stop-color="#0a0a14"/>
    <stop offset="24%"  stop-color="#585875"/>
    <stop offset="50%"  stop-color="#a8a8c8"/>
    <stop offset="76%"  stop-color="#383852"/>
    <stop offset="100%" stop-color="#0a0a14"/>
  </linearGradient>
  <!-- Chrome rod — lance shaft -->
  <linearGradient id="chromer1x3630" x1="0%" y1="0%" x2="100%" y2="0%">
    <stop offset="0%"   stop-color="#0c0c18"/>
    <stop offset="20%"  stop-color="#686888"/>
    <stop offset="44%"  stop-color="#e0e0f0"/>
    <stop offset="56%"  stop-color="#c0c0d8"/>
    <stop offset="80%"  stop-color="#28283e"/>
    <stop offset="100%" stop-color="#0c0c18"/>
  </linearGradient>
  <!-- Titanium plate — shield face -->
  <linearGradient id="titaniumr1x3630" x1="0%" y1="0%" x2="100%" y2="100%">
    <stop offset="0%"   stop-color="#585878"/>
    <stop offset="28%"  stop-color="#ff44aa" stop-opacity=".88"/>
    <stop offset="55%"  stop-color="#880050"/>
    <stop offset="80%"  stop-color="#181828"/>
    <stop offset="100%" stop-color="#0a0a18"/>
  </linearGradient>
  <!-- Artillery black-chrome — cannon body -->
  <linearGradient id="artilleryr1x3630" x1="0%" y1="0%" x2="0%" y2="100%">
    <stop offset="0%"   stop-color="#383850"/>
    <stop offset="14%"  stop-color="#78789a"/>
    <stop offset="36%"  stop-color="#202034"/>
    <stop offset="65%"  stop-color="#14141e"/>
    <stop offset="100%" stop-color="#0a0a12"/>
  </linearGradient>
  <!-- Energy orb — staff -->
  <radialGradient id="orbr1x3630" cx="35%" cy="35%" r="65%">
    <stop offset="0%"   stop-color="rgba(255,255,255,.9)"/>
    <stop offset="30%"  stop-color="#ff44aa"/>
    <stop offset="68%"  stop-color="#880050"/>
    <stop offset="100%" stop-color="rgba(0,0,0,.6)"/>
  </radialGradient>
  <!-- Knuckle plate chrome -->
  <linearGradient id="knuckler1x3630" x1="0%" y1="0%" x2="0%" y2="100%">
    <stop offset="0%"   stop-color="#888aaa"/>
    <stop offset="32%"  stop-color="#ff44aa" stop-opacity=".8"/>
    <stop offset="62%"  stop-color="#1a1a2c"/>
    <stop offset="100%" stop-color="#0a0a14"/>
  </linearGradient>

  <!-- Carbon fibre weave texture overlay -->
  <pattern id="carbonr1x3630" width="6" height="6" patternUnits="userSpaceOnUse">
    <rect width="6" height="6" fill="rgba(0,0,0,.08)"/>
    <rect x="0" y="0" width="3" height="3" fill="rgba(255,255,255,.022)"/>
    <rect x="3" y="3" width="3" height="3" fill="rgba(255,255,255,.022)"/>
    <line x1="0" y1="0" x2="3" y2="3" stroke="rgba(255,255,255,.038)" stroke-width=".5"/>
    <line x1="3" y1="0" x2="6" y2="3" stroke="rgba(0,0,0,.055)"       stroke-width=".5"/>
    <line x1="0" y1="3" x2="3" y2="6" stroke="rgba(0,0,0,.055)"       stroke-width=".5"/>
    <line x1="3" y1="3" x2="6" y2="6" stroke="rgba(255,255,255,.038)" stroke-width=".5"/>
  </pattern>

  <!-- Specular metal sheen on armour panels -->
  <filter id="metalr1x3630" x="-5%" y="-5%" width="110%" height="110%">
    <feSpecularLighting surfaceScale="4" specularConstant="1.8"
        specularExponent="42" lighting-color="#ffffff" result="spec">
      <feDistantLight elevation="52" azimuth="38"/>
    </feSpecularLighting>
    <feComposite in="spec" in2="SourceGraphic" operator="in" result="sm"/>
    <feComposite in="SourceGraphic" in2="sm" operator="arithmetic" k1="0" k2="1" k3="0.55" k4="0"/>
  </filter>

  <!-- Sharper specular for weapons — heavier glare -->
  <filter id="wmr1x3630" x="-8%" y="-8%" width="116%" height="116%">
    <feSpecularLighting surfaceScale="6" specularConstant="2.4"
        specularExponent="65" lighting-color="#ffffff" result="spec">
      <feDistantLight elevation="44" azimuth="28"/>
    </feSpecularLighting>
    <feComposite in="spec" in2="SourceGraphic" operator="in" result="sm"/>
    <feComposite in="SourceGraphic" in2="sm" operator="arithmetic" k1="0" k2="1" k3="0.78" k4="0"/>
  </filter>

  <!-- Sketch wobble -->
  <filter id="skr1x3630" x="-8%" y="-8%" width="116%" height="116%">
    <feTurbulence type="fractalNoise" baseFrequency="0.038"
        numOctaves="3" seed="75" result="noise"/>
    <feDisplacementMap in="SourceGraphic" in2="noise" scale="2.6"
        xChannelSelector="R" yChannelSelector="G" result="w"/>
    <feComposite in="w" in2="SourceGraphic" operator="atop"/>
  </filter>

  <!-- Glow: sharp accent -->
  <filter id="glowr1x3630" x="-20%" y="-20%" width="140%" height="140%">
    <feGaussianBlur stdDeviation="3.5" result="b"/>
    <feColorMatrix in="b" type="matrix"
        values="0 0 0 0 1  0 0 0 0 1  0 0 0 0 1  0 0 0 1.8 0" result="boost"/>
    <feMerge><feMergeNode in="boost"/><feMergeNode in="SourceGraphic"/></feMerge>
  </filter>

  <!-- Bloom: wide soft -->
  <filter id="bloomr1x3630" x="-40%" y="-40%" width="180%" height="180%">
    <feGaussianBlur stdDeviation="11" result="b"/>
    <feMerge><feMergeNode in="b"/><feMergeNode in="SourceGraphic"/></feMerge>
  </filter>

  </defs><rect width="1000" height="1000" fill="url(#bgr1x3630)"/><ellipse cx="500.0" cy="892.0" rx="350.0" ry="65.0" fill="rgba(0,0,0,.7)" filter="url(#bloomr1x3630)"/><ellipse cx="500.0" cy="889.0" rx="220.0" ry="34.0" fill="rgba(0,0,0,.45)"/><ellipse cx="500.0" cy="520.0" rx="320.0" ry="480.0" fill="#ff6600" fill-opacity=".042" filter="url(#bloomr1x3630)"/><circle cx="715.9" cy="302.7" r="1.7" fill="#ff6600" fill-opacity="0.60" filter="url(#glowr1x3630)"/><circle cx="745.8" cy="701.6" r="3.4" fill="#ff6600" fill-opacity="0.71" filter="url(#glowr1x3630)"/><circle cx="462.1" cy="400.0" r="1.1" fill="#ff6600" fill-opacity="0.67" filter="url(#glowr1x3630)"/><circle cx="597.2" cy="741.1" r="1.6" fill="#ff6600" fill-opacity="0.45" filter="url(#glowr1x3630)"/><circle cx="723.8" cy="309.2" r="1.5" fill="#ff6600" fill-opacity="0.59" filter="url(#glowr1x3630)"/><circle cx="705.2" cy="392.7" r="2.8" fill="#ff6600" fill-opacity="0.53" filter="url(#glowr1x3630)"/><circle cx="731.9" cy="786.6" r="2.1" fill="#ff6600" fill-opacity="0.50" filter="url(#glowr1x3630)"/><circle cx="519.6" cy="409.8" r="2.7" fill="#ff6600" fill-opacity="0.53" filter="url(#glowr1x3630)"/><circle cx="725.9" cy="312.3" r="2.1" fill="#ff6600" fill-opacity="0.65" filter="url(#glowr1x3630)"/><circle cx="318.5" cy="243.8" r="2.1" fill="#ff6600" fill-opacity="0.59" filter="url(#glowr1x3630)"/><circle cx="578.7" cy="641.8" r="1.9" fill="#ff6600" fill-opacity="0.88" filter="url(#glowr1x3630)"/><circle cx="368.4" cy="318.7" r="2.4" fill="#ff6600" fill-opacity="0.89" filter="url(#glowr1x3630)"/><circle cx="267.9" cy="214.3" r="4.0" fill="#ff6600" fill-opacity="0.75" filter="url(#glowr1x3630)"/><circle cx="333.8" cy="507.3" r="2.1" fill="#ff6600" fill-opacity="0.60" filter="url(#glowr1x3630)"/><polygon points="399.6,661.8 490.2,664.1 479.7,876.3 387.3,878.6" fill="url(#suitr1x3630)" stroke="#ff44aa" stroke-width="2.2" filter="url(#skr1x3630) url(#metalr1x3630)"/><polygon points="399.0,661.0 488.0,662.9 482.1,875.8 388.7,878.1" fill="url(#carbonr1x3630)"/><polygon points="393.2,723.7 492.8,724.7 484.8,787.7 383.3,787.5" fill="url(#bevelr1x3630)" fill-opacity=".5" stroke="#ff44aa" stroke-width="1.4" filter="url(#skr1x3630)"/><polygon points="512.1,663.9 602.9,664.0 614.0,876.8 520.8,877.0" fill="url(#suitr1x3630)" stroke="#ff44aa" stroke-width="2.2" filter="url(#skr1x3630) url(#metalr1x3630)"/><polygon points="509.9,662.3 600.9,661.9 611.4,878.1 519.7,878.5" fill="url(#carbonr1x3630)"/><polygon points="505.6,722.0 606.0,725.1 615.7,789.5 517.0,788.0" fill="url(#bevelr1x3630)" fill-opacity=".5" stroke="#ff44aa" stroke-width="1.4" filter="url(#skr1x3630)"/><rect x="393.5" y="840.5" width="100.3" height="24.7" fill="url(#bevelr1x3630)" stroke="#ff44aa" stroke-width="1" filter="url(#skr1x3630)"/><rect x="507.5"  y="840.0" width="100.3" height="24.7" fill="url(#bevelr1x3630)" stroke="#ff44aa" stroke-width="1" filter="url(#skr1x3630)"/><polygon points="369.3,878.8 496.9,878.2 502.8,922.6 361.1,922.1" fill="#880050" stroke="#ff44aa" stroke-width="2" filter="url(#skr1x3630)"/><polygon points="502.6,875.8 629.0,875.8 637.9,921.6 495.8,921.0" fill="#880050" stroke="#ff44aa" stroke-width="2" filter="url(#skr1x3630)"/><polygon points="303.6,631.8 697.5,631.7 637.6,681.9 361.5,680.9" fill="#ff44aa" fill-opacity=".52" stroke="#ff44aa" stroke-width="2" filter="url(#skr1x3630)"/><rect x="465.7" y="636.5" width="72.0" height="42.0" fill="url(#bevelr1x3630)" stroke="#ff44aa" stroke-width="1.4" filter="url(#glowr1x3630)"/><rect x="486.5" y="641.5" width="28.0" height="22.0" rx="1" fill="rgba(255,255,255,.48)"/><polygon points="151.4,467.6 236.4,467.8 257.7,735.3 128.8,733.2" fill="url(#suitr1x3630)" stroke="#ff44aa" stroke-width="2.2" filter="url(#skr1x3630) url(#metalr1x3630)"/><polygon points="174.4,431.1 251.5,430.5 243.8,511.2 159.6,510.9" fill="url(#bevelr1x3630)" fill-opacity=".72" stroke="#ff44aa" stroke-width="2.2" filter="url(#skr1x3630)"/><polygon points="162.4,623.2 242.2,623.2 240.7,659.9 164.4,660.9" fill="#ff44aa" fill-opacity=".42" stroke="#ff44aa" stroke-width="1" filter="url(#skr1x3630)"/><polygon points="765.7,467.1 846.1,465.2 873.3,734.2 741.6,733.4" fill="url(#suitr1x3630)" stroke="#ff44aa" stroke-width="2.2" filter="url(#skr1x3630) url(#metalr1x3630)"/><polygon points="746.2,432.7 825.1,431.3 838.8,511.7 755.4,512.3" fill="url(#bevelr1x3630)" fill-opacity=".72" stroke="#ff44aa" stroke-width="2.2" filter="url(#skr1x3630)"/><polygon points="755.2,620.8 837.9,621.5 835.9,660.9 761.4,659.5" fill="#ff44aa" fill-opacity=".42" stroke="#ff44aa" stroke-width="1" filter="url(#skr1x3630)"/><rect x="119.1"  y="698.5" width="135.3" height="85.0" rx="4" fill="url(#bevelr1x3630)" stroke="#ff44aa" stroke-width="1.8" filter="url(#skr1x3630)"/><rect x="749.5"   y="698.2" width="135.3" height="85.0" rx="4" fill="url(#bevelr1x3630)" stroke="#ff44aa" stroke-width="1.8" filter="url(#skr1x3630)"/><line x1="150.2" y1="700.1" x2="148.6" y2="785.5" stroke="#ff44aa" stroke-opacity=".38" stroke-width="1"/><line x1="777.0" y1="703.4" x2="776.7" y2="782.6" stroke="#ff44aa" stroke-opacity=".38" stroke-width="1"/><line x1="180.9" y1="703.3" x2="181.7" y2="782.5" stroke="#ff44aa" stroke-opacity=".38" stroke-width="1"/><line x1="811.7" y1="700.5" x2="811.6" y2="784.2" stroke="#ff44aa" stroke-opacity=".38" stroke-width="1"/><line x1="213.6" y1="701.5" x2="215.1" y2="784.8" stroke="#ff44aa" stroke-opacity=".38" stroke-width="1"/><line x1="844.8" y1="701.4" x2="842.9" y2="785.5" stroke="#ff44aa" stroke-opacity=".38" stroke-width="1"/><polygon points="234.3,417.5 766.6,417.8 723.2,664.0 275.8,662.0" fill="url(#suitr1x3630)" stroke="#ff44aa" stroke-width="2.6" filter="url(#skr1x3630) url(#metalr1x3630)"/><polygon points="234.4,417.2 764.7,415.8 721.3,663.5 278.4,663.7" fill="url(#carbonr1x3630)"/><polygon points="367.1,417.0 631.8,418.0 610.1,514.9 387.7,515.0" fill="url(#suitHir1x3630)"/><line x1="360.9" y1="471.6" x2="637.2" y2="472.0" stroke="#ff44aa" stroke-opacity=".52" stroke-width="1.3" filter="url(#skr1x3630)"/><line x1="398.1" y1="551.5" x2="599.2" y2="548.5" stroke="#ff44aa" stroke-opacity=".52" stroke-width="1.3" filter="url(#skr1x3630)"/><line x1="265.2" y1="490.4" x2="321.4" y2="490.6" stroke="#ff44aa" stroke-opacity=".62" stroke-width="1.8"/><line x1="678.8" y1="491.6" x2="732.2" y2="491.4" stroke="#ff44aa" stroke-opacity=".62" stroke-width="1.8"/><line x1="266.6" y1="524.5" x2="318.1" y2="522.3" stroke="#ff44aa" stroke-opacity=".62" stroke-width="1.8"/><line x1="680.6" y1="523.2" x2="734.0" y2="522.3" stroke="#ff44aa" stroke-opacity=".62" stroke-width="1.8"/><line x1="266.1" y1="555.8" x2="318.3" y2="554.1" stroke="#ff44aa" stroke-opacity=".62" stroke-width="1.8"/><line x1="679.8" y1="553.7" x2="733.4" y2="554.0" stroke="#ff44aa" stroke-opacity=".62" stroke-width="1.8"/><line x1="265.7" y1="588.3" x2="318.3" y2="585.3" stroke="#ff44aa" stroke-opacity=".62" stroke-width="1.8"/><line x1="679.2" y1="585.4" x2="734.5" y2="586.4" stroke="#ff44aa" stroke-opacity=".62" stroke-width="1.8"/><g filter="url(#glowr1x3630)"><path d="M500.0,449.7 C462.3,446.8 442.0,481.6 447.8,513.5 L459.4,542.5 C476.8,536.7 491.3,551.2 500.0,551.2 C508.7,551.2 523.2,536.7 540.6,542.5 L552.2,513.5 C558.0,481.6 537.7,446.8 500.0,449.7 Z" fill="#ff44aa" fill-opacity=".92" stroke="#0a0520" stroke-width="1.3" filter="url(#skr1x3630)"/><path d="M483.8,519.3 Q500.0,533.8 516.2,519.3" stroke="#0a0520" stroke-width="1" fill="none" opacity=".58"/><ellipse cx="481.4" cy="497.8" rx="8.7" ry="6.4" fill="#0a0520" opacity=".95"/><ellipse cx="518.6" cy="497.8" rx="8.7" ry="6.4" fill="#0a0520" opacity=".95"/><ellipse cx="481.4" cy="497.8" rx="2.3" ry="5.8" fill="#ff44aa"/><ellipse cx="518.6" cy="497.8" rx="2.3" ry="5.8" fill="#ff44aa"/><path d="M471.0,467.1 L458.2,426.5 L481.4,463.0" fill="#ff44aa" stroke="#0a0520" stroke-width=".9"/><path d="M529.0,467.1 L541.8,426.5 L518.6,463.0" fill="#ff44aa" stroke="#0a0520" stroke-width=".9"/><path d="M476.8,452.6 C488.4,449.1 511.6,449.1 523.2,452.6" fill="rgba(255,255,255,.18)"/></g><g><line x1="899.155816179011" y1="791.7195724736899" x2="915.5739540446177" y2="111.5356464076787" stroke="url(#chromer1x3630)" stroke-width="28.0" stroke-linecap="round" filter="url(#wmr1x3630)"/><line x1="902.5955635928177" y1="772.6266700346023" x2="910.1753676306084" y2="130.04282307587562" stroke="rgba(255,255,255,.42)" stroke-width="5.0" stroke-linecap="round"/><polygon points="868.9,151.3 936.7,151.2 915.7,-7.3" fill="url(#blader1x3630)" stroke="#ff44aa" stroke-width="1.8" filter="url(#wmr1x3630)"/><line x1="935.8" y1="151.4" x2="915.8" y2="-8.6" stroke="rgba(255,255,255,.72)" stroke-width="1.6"/><rect x="879.3560288546234" y="420.97085620099676" width="40.0" height="20.0" fill="url(#bevelr1x3630)" stroke="#ff44aa" stroke-width="1" filter="url(#wmr1x3630)"/><rect x="878.9571878333204" y="511.2267360090278" width="40.0" height="20.0" fill="url(#bevelr1x3630)" stroke="#ff44aa" stroke-width="1" filter="url(#wmr1x3630)"/><rect x="880.4343434518762" y="600.7962071013636" width="40.0" height="20.0" fill="url(#bevelr1x3630)" stroke="#ff44aa" stroke-width="1" filter="url(#wmr1x3630)"/><rect x="880.1150802955591" y="691.5165715966374" width="40.0" height="20.0" fill="url(#bevelr1x3630)" stroke="#ff44aa" stroke-width="1" filter="url(#wmr1x3630)"/><ellipse cx="898.7256149786152" cy="791.9398848767393" rx="22.0" ry="15.0" fill="url(#bevelr1x3630)" stroke="#ff44aa" stroke-width="1" filter="url(#wmr1x3630)"/></g><rect x="451.19352634912354" y="556.2242451174185" width="100.0"  height="56.0" fill="#880050" stroke="#ff44aa" stroke-width="2.2" filter="url(#skr1x3630)"/><rect x="425.7787828885019" y="575.5399889840745" width="152.0" height="26.0" fill="url(#bevelr1x3630)" fill-opacity=".65" stroke="#ff44aa" stroke-width="1.2" filter="url(#skr1x3630)"/><polygon points="309.7,380.2 349.3,293.9 500.7,277.5 648.6,296.0 692.1,379.8 668.1,503.7 499.0,564.7 331.5,503.9" fill="url(#suitr1x3630)" stroke="#ff44aa" stroke-width="2.8" filter="url(#skr1x3630) url(#metalr1x3630)"/><polygon points="307.8,381.6 348.9,295.9 498.9,279.8 650.5,294.3 692.4,382.0 670.2,505.3 500.6,565.5 332.8,502.3" fill="url(#carbonr1x3630)"/><polygon points="379.8,302.3 499.1,285.2 619.4,302.6 605.8,379.0 392.9,380.8" fill="url(#suitHir1x3630)"/><polygon points="381.4,378.9 365.6,426.0 432.9,503.3 499.8,528.9 568.1,503.0 634.2,425.1 619.8,379.3" fill="#0a0520" fill-opacity=".88" stroke="#ff44aa" stroke-width="1.8" filter="url(#skr1x3630)"/><polygon points="381.8,412.1 478.6,411.2 485.0,440.8 388.3,441.0" fill="#ff44aa" filter="url(#glowr1x3630)"/><polygon points="523.9,411.3 620.8,409.8 613.0,440.2 514.7,441.8" fill="#ff44aa" filter="url(#glowr1x3630)"/><ellipse cx="430.9" cy="425.7" rx="38.4"  ry="8.2" fill="#ffffff" opacity=".88"/><ellipse cx="569.1" cy="425.7" rx="38.4"  ry="8.2" fill="#ffffff" opacity=".88"/><line x1="483.2842455661483" y1="415.0193940527737" x2="514.4374156726897" y2="412.00737262777983" stroke="#ff44aa" stroke-opacity=".52" stroke-width="2"/><line x1="484.7239624687098" y1="438.90715910755097" x2="516.5661208635569" y2="439.79365054741504" stroke="#ff44aa" stroke-opacity=".52" stroke-width="2"/><line x1="498.74202921316027" y1="455.3264943895861" x2="501.6391025046818" y2="482.9657612332143" stroke="#ff44aa" stroke-opacity=".58" stroke-width="2.2" filter="url(#skr1x3630)"/><line x1="452.9176208287291" y1="492.44782275557515" x2="455.41478370053693" y2="518.2901586414315" stroke="#ff44aa" stroke-opacity=".52" stroke-width="1.5" filter="url(#skr1x3630)"/><line x1="477.9242556076869" y1="491.5586282919161" x2="478.41958061832935" y2="518.8615888442844" stroke="#ff44aa" stroke-opacity=".52" stroke-width="1.5" filter="url(#skr1x3630)"/><line x1="501.25037300568073" y1="492.82657756013793" x2="499.3099405807443" y2="519.1001430581324" stroke="#ff44aa" stroke-opacity=".52" stroke-width="1.5" filter="url(#skr1x3630)"/><line x1="522.9526896382309" y1="490.6597782186232" x2="522.2299837940931" y2="518.6850927059538" stroke="#ff44aa" stroke-opacity=".52" stroke-width="1.5" filter="url(#skr1x3630)"/><line x1="547.544915382024" y1="491.1260688950307" x2="546.2407030184008" y2="519.5491911614314" stroke="#ff44aa" stroke-opacity=".52" stroke-width="1.5" filter="url(#skr1x3630)"/><polygon points="433.1,503.6 566.6,502.0 555.5,558.6 444.8,555.3" fill="#880050" fill-opacity=".72" stroke="#ff44aa" stroke-width="1.3" filter="url(#skr1x3630)"/><path d="M387.14102821281176 327.4872103312053 Q329.6231376514397 217.02556787626818 382.2160512404889 139.31166183836757" stroke="#ff44aa" stroke-width="5" fill="none" stroke-linecap="round" filter="url(#skr1x3630)"/><path d="M389.5026358443871 328.5348170994781 Q330.7050208842009 215.72319520041347 381.75662943147125 141.23955867700278" stroke="rgba(255,255,255,.25)" stroke-width="1.5" fill="none" stroke-linecap="round"/><path d="M611.1275591029226 328.1237022528425 Q669.4565434812009 215.0571518490091 618.2984444374777 139.81112410444766" stroke="#ff44aa" stroke-width="5" fill="none" stroke-linecap="round" filter="url(#skr1x3630)"/><path d="M610.3386948165856 329.0058033113368 Q669.7603120021895 216.4211867155507 617.9875993354805 139.42132636373861" stroke="rgba(255,255,255,.25)" stroke-width="1.5" fill="none" stroke-linecap="round"/><text x="30.0"  y="975.0" font-family="monospace" font-weight="bold" font-size="22.0" fill="rgba(255,255,255,.22)">#0001</text><text x="500.0"   y="975.0" text-anchor="middle" font-family="monospace" font-weight="bold" font-size="22.0" fill="#ff44aa" fill-opacity=".48">SAKURA RANGER</text><text x="970.0" y="975.0" text-anchor="end"    font-family="monospace" font-weight="bold" font-size="22.0" fill="#ff44aa" fill-opacity=".32">MECH RANGERS</text></svg>