<svg xmlns="http://www.w3.org/2000/svg" viewBox="0 0 1000 1000" width="1000" height="1000" shape-rendering="geometricPrecision"><defs>

  <!-- Scene gradients -->
  <radialGradient id="bgr1x3649" cx="50%" cy="42%" r="72%">
    <stop offset="0%"   stop-color="#0a0a14"/>
    <stop offset="100%" stop-color="#050508"/>
  </radialGradient>
  <linearGradient id="suitr1x3649" x1="8%" y1="0%" x2="92%" y2="100%">
    <stop offset="0%"   stop-color="#c0c0d0" stop-opacity=".95"/>
    <stop offset="45%"  stop-color="#2c2c3c"/>
    <stop offset="100%" stop-color="#050508"/>
  </linearGradient>
  <linearGradient id="suitHir1x3649" x1="0%" y1="0%" x2="0%" y2="100%">
    <stop offset="0%"   stop-color="rgba(255,255,255,.28)"/>
    <stop offset="60%"  stop-color="rgba(255,255,255,.04)"/>
    <stop offset="100%" stop-color="rgba(255,255,255,0)"/>
  </linearGradient>
  <!-- Bevel: bright top, dark bottom for armour panels -->
  <linearGradient id="bevelr1x3649" x1="0%" y1="0%" x2="0%" y2="100%">
    <stop offset="0%"   stop-color="rgba(255,255,255,.55)"/>
    <stop offset="30%"  stop-color="#c0c0d0"/>
    <stop offset="70%"  stop-color="#2c2c3c"/>
    <stop offset="100%" stop-color="rgba(0,0,0,.5)"/>
  </linearGradient>

  <!-- Weapon: cold steel blade sweep -->
  <linearGradient id="blader1x3649" x1="0%" y1="0%" x2="100%" y2="0%">
    <stop offset="0%"   stop-color="#0e0e20"/>
    <stop offset="16%"  stop-color="#3e3e58"/>
    <stop offset="34%"  stop-color="#c8c8e0"/>
    <stop offset="50%"  stop-color="#f5f5ff"/>
    <stop offset="66%"  stop-color="#b8b8d0"/>
    <stop offset="84%"  stop-color="#2e2e48"/>
    <stop offset="100%" stop-color="#08080e"/>
  </linearGradient>
  <!-- Blade tip brightening -->
  <linearGradient id="bladeTipr1x3649" x1="0%" y1="100%" x2="0%" y2="0%">
    <stop offset="0%"   stop-color="rgba(255,255,255,0)"/>
    <stop offset="55%"  stop-color="rgba(255,255,255,.1)"/>
    <stop offset="100%" stop-color="rgba(255,255,255,.55)"/>
  </linearGradient>
  <!-- Gunmetal anodised — blaster body -->
  <linearGradient id="gunmetalr1x3649" x1="0%" y1="0%" x2="0%" y2="100%">
    <stop offset="0%"   stop-color="#46465e"/>
    <stop offset="18%"  stop-color="#828296"/>
    <stop offset="42%"  stop-color="#26263a"/>
    <stop offset="72%"  stop-color="#16162a"/>
    <stop offset="100%" stop-color="#0c0c18"/>
  </linearGradient>
  <!-- Brushed steel tube — barrel/rod -->
  <linearGradient id="barrelr1x3649" x1="0%" y1="0%" x2="100%" y2="0%">
    <stop offset="0%"   stop-color="#0a0a14"/>
    <stop offset="24%"  stop-color="#585875"/>
    <stop offset="50%"  stop-color="#a8a8c8"/>
    <stop offset="76%"  stop-color="#383852"/>
    <stop offset="100%" stop-color="#0a0a14"/>
  </linearGradient>
  <!-- Chrome rod — lance shaft -->
  <linearGradient id="chromer1x3649" x1="0%" y1="0%" x2="100%" y2="0%">
    <stop offset="0%"   stop-color="#0c0c18"/>
    <stop offset="20%"  stop-color="#686888"/>
    <stop offset="44%"  stop-color="#e0e0f0"/>
    <stop offset="56%"  stop-color="#c0c0d8"/>
    <stop offset="80%"  stop-color="#28283e"/>
    <stop offset="100%" stop-color="#0c0c18"/>
  </linearGradient>
  <!-- Titanium plate — shield face -->
  <linearGradient id="titaniumr1x3649" x1="0%" y1="0%" x2="100%" y2="100%">
    <stop offset="0%"   stop-color="#585878"/>
    <stop offset="28%"  stop-color="#c0c0d0" stop-opacity=".88"/>
    <stop offset="55%"  stop-color="#2c2c3c"/>
    <stop offset="80%"  stop-color="#181828"/>
    <stop offset="100%" stop-color="#0a0a18"/>
  </linearGradient>
  <!-- Artillery black-chrome — cannon body -->
  <linearGradient id="artilleryr1x3649" x1="0%" y1="0%" x2="0%" y2="100%">
    <stop offset="0%"   stop-color="#383850"/>
    <stop offset="14%"  stop-color="#78789a"/>
    <stop offset="36%"  stop-color="#202034"/>
    <stop offset="65%"  stop-color="#14141e"/>
    <stop offset="100%" stop-color="#0a0a12"/>
  </linearGradient>
  <!-- Energy orb — staff -->
  <radialGradient id="orbr1x3649" cx="35%" cy="35%" r="65%">
    <stop offset="0%"   stop-color="rgba(255,255,255,.9)"/>
    <stop offset="30%"  stop-color="#c0c0d0"/>
    <stop offset="68%"  stop-color="#2c2c3c"/>
    <stop offset="100%" stop-color="rgba(0,0,0,.6)"/>
  </radialGradient>
  <!-- Knuckle plate chrome -->
  <linearGradient id="knuckler1x3649" x1="0%" y1="0%" x2="0%" y2="100%">
    <stop offset="0%"   stop-color="#888aaa"/>
    <stop offset="32%"  stop-color="#c0c0d0" stop-opacity=".8"/>
    <stop offset="62%"  stop-color="#1a1a2c"/>
    <stop offset="100%" stop-color="#0a0a14"/>
  </linearGradient>

  <!-- Carbon fibre weave texture overlay -->
  <pattern id="carbonr1x3649" width="6" height="6" patternUnits="userSpaceOnUse">
    <rect width="6" height="6" fill="rgba(0,0,0,.08)"/>
    <rect x="0" y="0" width="3" height="3" fill="rgba(255,255,255,.022)"/>
    <rect x="3" y="3" width="3" height="3" fill="rgba(255,255,255,.022)"/>
    <line x1="0" y1="0" x2="3" y2="3" stroke="rgba(255,255,255,.038)" stroke-width=".5"/>
    <line x1="3" y1="0" x2="6" y2="3" stroke="rgba(0,0,0,.055)"       stroke-width=".5"/>
    <line x1="0" y1="3" x2="3" y2="6" stroke="rgba(0,0,0,.055)"       stroke-width=".5"/>
    <line x1="3" y1="3" x2="6" y2="6" stroke="rgba(255,255,255,.038)" stroke-width=".5"/>
  </pattern>

  <!-- Specular metal sheen on armour panels -->
  <filter id="metalr1x3649" x="-5%" y="-5%" width="110%" height="110%">
    <feSpecularLighting surfaceScale="4" specularConstant="1.8"
        specularExponent="42" lighting-color="#ffffff" result="spec">
      <feDistantLight elevation="52" azimuth="38"/>
    </feSpecularLighting>
    <feComposite in="spec" in2="SourceGraphic" operator="in" result="sm"/>
    <feComposite in="SourceGraphic" in2="sm" operator="arithmetic" k1="0" k2="1" k3="0.55" k4="0"/>
  </filter>

  <!-- Sharper specular for weapons — heavier glare -->
  <filter id="wmr1x3649" x="-8%" y="-8%" width="116%" height="116%">
    <feSpecularLighting surfaceScale="6" specularConstant="2.4"
        specularExponent="65" lighting-color="#ffffff" result="spec">
      <feDistantLight elevation="44" azimuth="28"/>
    </feSpecularLighting>
    <feComposite in="spec" in2="SourceGraphic" operator="in" result="sm"/>
    <feComposite in="SourceGraphic" in2="sm" operator="arithmetic" k1="0" k2="1" k3="0.78" k4="0"/>
  </filter>

  <!-- Sketch wobble -->
  <filter id="skr1x3649" x="-8%" y="-8%" width="116%" height="116%">
    <feTurbulence type="fractalNoise" baseFrequency="0.038"
        numOctaves="3" seed="87" result="noise"/>
    <feDisplacementMap in="SourceGraphic" in2="noise" scale="2.6"
        xChannelSelector="R" yChannelSelector="G" result="w"/>
    <feComposite in="w" in2="SourceGraphic" operator="atop"/>
  </filter>

  <!-- Glow: sharp accent -->
  <filter id="glowr1x3649" x="-20%" y="-20%" width="140%" height="140%">
    <feGaussianBlur stdDeviation="3.5" result="b"/>
    <feColorMatrix in="b" type="matrix"
        values="0 0 0 0 1  0 0 0 0 1  0 0 0 0 1  0 0 0 1.8 0" result="boost"/>
    <feMerge><feMergeNode in="boost"/><feMergeNode in="SourceGraphic"/></feMerge>
  </filter>

  <!-- Bloom: wide soft -->
  <filter id="bloomr1x3649" x="-40%" y="-40%" width="180%" height="180%">
    <feGaussianBlur stdDeviation="11" result="b"/>
    <feMerge><feMergeNode in="b"/><feMergeNode in="SourceGraphic"/></feMerge>
  </filter>

  </defs><rect width="1000" height="1000" fill="url(#bgr1x3649)"/><ellipse cx="500.0" cy="892.0" rx="350.0" ry="65.0" fill="rgba(0,0,0,.7)" filter="url(#bloomr1x3649)"/><ellipse cx="500.0" cy="889.0" rx="220.0" ry="34.0" fill="rgba(0,0,0,.45)"/><polygon points="399.0,661.9 488.6,661.7 479.3,877.6 385.9,878.4" fill="url(#suitr1x3649)" stroke="#c0c0d0" stroke-width="2.2" filter="url(#skr1x3649) url(#metalr1x3649)"/><polygon points="399.4,661.7 488.9,661.4 480.8,875.8 387.5,876.2" fill="url(#carbonr1x3649)"/><polygon points="393.6,722.2 491.2,725.1 483.4,788.1 385.6,788.4" fill="url(#bevelr1x3649)" fill-opacity=".5" stroke="#c0c0d0" stroke-width="1.4" filter="url(#skr1x3649)"/><polygon points="510.4,661.4 600.4,662.8 611.9,877.0 519.4,878.0" fill="url(#suitr1x3649)" stroke="#c0c0d0" stroke-width="2.2" filter="url(#skr1x3649) url(#metalr1x3649)"/><polygon points="509.7,661.5 602.8,662.4 614.3,876.9 519.5,877.2" fill="url(#carbonr1x3649)"/><polygon points="508.4,723.0 605.9,724.0 617.0,789.0 517.3,786.5" fill="url(#bevelr1x3649)" fill-opacity=".5" stroke="#c0c0d0" stroke-width="1.4" filter="url(#skr1x3649)"/><rect x="391.7" y="840.4" width="100.3" height="24.7" fill="url(#bevelr1x3649)" stroke="#c0c0d0" stroke-width="1" filter="url(#skr1x3649)"/><rect x="508.7"  y="838.9" width="100.3" height="24.7" fill="url(#bevelr1x3649)" stroke="#c0c0d0" stroke-width="1" filter="url(#skr1x3649)"/><polygon points="371.5,876.6 496.5,877.2 503.4,920.3 363.6,921.8" fill="#2c2c3c" stroke="#c0c0d0" stroke-width="2" filter="url(#skr1x3649)"/><polygon points="504.4,876.5 630.1,879.2 636.8,920.9 495.8,920.5" fill="#2c2c3c" stroke="#c0c0d0" stroke-width="2" filter="url(#skr1x3649)"/><polygon points="303.1,632.6 697.9,633.4 636.5,682.3 363.7,683.2" fill="#c0c0d0" fill-opacity=".52" stroke="#c0c0d0" stroke-width="2" filter="url(#skr1x3649)"/><rect x="465.2" y="638.6" width="72.0" height="42.0" fill="url(#bevelr1x3649)" stroke="#c0c0d0" stroke-width="1.4" filter="url(#glowr1x3649)"/><rect x="484.3" y="641.7" width="28.0" height="22.0" rx="1" fill="rgba(255,255,255,.48)"/><polygon points="153.1,467.5 233.9,467.6 257.0,734.2 129.0,734.4" fill="url(#suitr1x3649)" stroke="#c0c0d0" stroke-width="2.2" filter="url(#skr1x3649) url(#metalr1x3649)"/><polygon points="174.9,431.0 254.8,430.6 244.0,512.0 159.9,511.4" fill="url(#bevelr1x3649)" fill-opacity=".72" stroke="#c0c0d0" stroke-width="2.2" filter="url(#skr1x3649)"/><polygon points="160.3,621.6 242.1,623.2 237.9,660.1 164.2,660.9" fill="#c0c0d0" fill-opacity=".42" stroke="#c0c0d0" stroke-width="1" filter="url(#skr1x3649)"/><polygon points="765.0,467.2 848.3,468.1 873.2,734.0 742.4,736.7" fill="url(#suitr1x3649)" stroke="#c0c0d0" stroke-width="2.2" filter="url(#skr1x3649) url(#metalr1x3649)"/><polygon points="747.8,432.4 828.2,431.2 840.7,511.0 758.1,511.4" fill="url(#bevelr1x3649)" fill-opacity=".72" stroke="#c0c0d0" stroke-width="2.2" filter="url(#skr1x3649)"/><polygon points="756.5,623.2 837.2,622.0 833.1,659.3 762.0,659.3" fill="#c0c0d0" fill-opacity=".42" stroke="#c0c0d0" stroke-width="1" filter="url(#skr1x3649)"/><rect x="121.6"  y="699.7" width="135.3" height="85.0" rx="4" fill="url(#bevelr1x3649)" stroke="#c0c0d0" stroke-width="1.8" filter="url(#skr1x3649)"/><rect x="749.8"   y="700.3" width="135.3" height="85.0" rx="4" fill="url(#bevelr1x3649)" stroke="#c0c0d0" stroke-width="1.8" filter="url(#skr1x3649)"/><line x1="149.8" y1="701.8" x2="150.3" y2="785.6" stroke="#c0c0d0" stroke-opacity=".38" stroke-width="1"/><line x1="777.6" y1="703.1" x2="776.8" y2="782.2" stroke="#c0c0d0" stroke-opacity=".38" stroke-width="1"/><line x1="181.6" y1="701.1" x2="182.4" y2="782.4" stroke="#c0c0d0" stroke-opacity=".38" stroke-width="1"/><line x1="810.6" y1="701.7" x2="810.4" y2="784.8" stroke="#c0c0d0" stroke-opacity=".38" stroke-width="1"/><line x1="215.2" y1="700.9" x2="216.1" y2="782.2" stroke="#c0c0d0" stroke-opacity=".38" stroke-width="1"/><line x1="844.2" y1="702.4" x2="845.0" y2="783.0" stroke="#c0c0d0" stroke-opacity=".38" stroke-width="1"/><polygon points="234.4,419.2 764.9,417.8 723.5,663.6 276.0,663.2" fill="url(#suitr1x3649)" stroke="#c0c0d0" stroke-width="2.6" filter="url(#skr1x3649) url(#metalr1x3649)"/><polygon points="236.3,416.9 764.7,415.9 723.2,661.2 277.3,663.0" fill="url(#carbonr1x3649)"/><polygon points="369.2,416.0 630.8,417.3 612.1,516.7 387.6,515.8" fill="url(#suitHir1x3649)"/><line x1="362.4" y1="470.8" x2="638.1" y2="471.5" stroke="#c0c0d0" stroke-opacity=".52" stroke-width="1.3" filter="url(#skr1x3649)"/><line x1="400.2" y1="549.2" x2="601.9" y2="548.8" stroke="#c0c0d0" stroke-opacity=".52" stroke-width="1.3" filter="url(#skr1x3649)"/><line x1="268.3" y1="489.5" x2="320.2" y2="492.2" stroke="#c0c0d0" stroke-opacity=".62" stroke-width="1.8"/><line x1="678.7" y1="489.8" x2="733.0" y2="492.7" stroke="#c0c0d0" stroke-opacity=".62" stroke-width="1.8"/><line x1="266.1" y1="523.2" x2="319.7" y2="523.8" stroke="#c0c0d0" stroke-opacity=".62" stroke-width="1.8"/><line x1="679.7" y1="521.6" x2="732.4" y2="523.6" stroke="#c0c0d0" stroke-opacity=".62" stroke-width="1.8"/><line x1="265.4" y1="553.4" x2="319.2" y2="556.2" stroke="#c0c0d0" stroke-opacity=".62" stroke-width="1.8"/><line x1="681.7" y1="553.9" x2="733.6" y2="553.2" stroke="#c0c0d0" stroke-opacity=".62" stroke-width="1.8"/><line x1="266.2" y1="587.7" x2="320.9" y2="587.1" stroke="#c0c0d0" stroke-opacity=".62" stroke-width="1.8"/><line x1="679.1" y1="584.9" x2="734.7" y2="585.5" stroke="#c0c0d0" stroke-opacity=".62" stroke-width="1.8"/><g filter="url(#glowr1x3649)"><polygon points="501.4,452.7 515.0,491.6 554.2,494.0 524.3,517.8 534.0,559.3 500.8,537.5 464.7,557.7 474.4,518.8 446.5,493.6 485.8,489.4 " fill="#c0c0d0" stroke="#050508" stroke-width="1.4" filter="url(#skr1x3649)"/><polygon points="501.4,452.7 515.0,491.6 554.2,494.0 524.3,517.8 534.0,559.3 500.8,537.5 464.7,557.7 474.4,518.8 446.5,493.6 485.8,489.4 " fill="url(#suitHir1x3649)" opacity=".45"/></g><g><polygon points="827.9,295.2 967.8,292.9 967.9,591.5 899.5,727.5 829.4,590.4" fill="url(#titaniumr1x3649)" stroke="#c0c0d0" stroke-width="2.6" filter="url(#wmr1x3649)"/><polygon points="826.9,292.6 968.9,292.6 966.2,592.0 899.6,726.5 828.3,591.9" fill="url(#carbonr1x3649)"/><polygon points="861.3,363.1 937.5,361.0 936.0,543.1 896.6,631.0 860.4,539.7" fill="#c0c0d0" fill-opacity=".28" stroke="#c0c0d0" stroke-width="1.5"/><line x1="844.1825633251667" y1="429.63363884808496" x2="948.9887753146328" y2="431.0328544531949" stroke="#c0c0d0" stroke-opacity=".65" stroke-width="1.3"/><line x1="896.344804693535" y1="329.7542933619581" x2="896.0853922578134" y2="591.2255454041064" stroke="#c0c0d0" stroke-opacity=".4" stroke-width="1"/><line x1="830.2749892435596" y1="296.05702546807004" x2="965.0187201976404" y2="297.942504220549" stroke="rgba(255,255,255,.5)" stroke-width="2"/><circle cx="899.3683318715171" cy="429.8207121879793" r="18.0" fill="url(#bevelr1x3649)" stroke="#c0c0d0" stroke-width="1.2" filter="url(#wmr1x3649)"/></g><rect x="448.2388905454427" y="557.934142479673" width="100.0"  height="56.0" fill="#2c2c3c" stroke="#c0c0d0" stroke-width="2.2" filter="url(#skr1x3649)"/><rect x="422.9039105284959" y="575.4772806597874" width="152.0" height="26.0" fill="url(#bevelr1x3649)" fill-opacity=".65" stroke="#c0c0d0" stroke-width="1.2" filter="url(#skr1x3649)"/><polygon points="307.1,379.1 351.9,294.4 499.5,276.9 651.1,295.1 692.5,380.0 668.3,504.2 500.1,566.4 332.4,503.8" fill="url(#suitr1x3649)" stroke="#c0c0d0" stroke-width="2.8" filter="url(#skr1x3649) url(#metalr1x3649)"/><polygon points="308.2,381.8 350.4,294.2 501.7,277.6 648.2,292.7 692.7,380.0 669.3,504.0 500.4,563.9 329.9,504.5" fill="url(#carbonr1x3649)"/><polygon points="379.3,303.9 500.6,284.6 618.4,304.4 607.1,380.8 391.9,379.6" fill="url(#suitHir1x3649)"/><polygon points="382.4,379.4 364.6,426.5 432.7,503.4 501.7,528.7 566.3,504.0 634.3,426.7 619.9,382.1" fill="#050508" fill-opacity=".88" stroke="#c0c0d0" stroke-width="1.8" filter="url(#skr1x3649)"/><polygon points="381.3,412.1 478.0,409.6 484.9,441.1 387.7,440.2" fill="#c0c0d0" filter="url(#glowr1x3649)"/><polygon points="523.9,411.7 620.3,410.6 611.2,440.7 515.3,441.8" fill="#c0c0d0" filter="url(#glowr1x3649)"/><ellipse cx="430.9" cy="425.7" rx="38.4"  ry="8.2" fill="#ffffff" opacity=".88"/><ellipse cx="569.1" cy="425.7" rx="38.4"  ry="8.2" fill="#ffffff" opacity=".88"/><line x1="484.80643028650434" y1="412.90325323166326" x2="515.0234675188922" y2="412.19619867056605" stroke="#c0c0d0" stroke-opacity=".52" stroke-width="2"/><line x1="483.1341098653711" y1="438.5555791907944" x2="513.9723156565242" y2="437.5609822914004" stroke="#c0c0d0" stroke-opacity=".52" stroke-width="2"/><line x1="498.89402426481246" y1="453.02757001789286" x2="500.30683804349974" y2="482.51329025654127" stroke="#c0c0d0" stroke-opacity=".58" stroke-width="2.2" filter="url(#skr1x3649)"/><line x1="453.69208109777423" y1="492.18197521092367" x2="455.41154678806663" y2="520.6690628875979" stroke="#c0c0d0" stroke-opacity=".52" stroke-width="1.5" filter="url(#skr1x3649)"/><line x1="477.13896319814023" y1="491.6066405474208" x2="475.28660646811124" y2="518.2442372223362" stroke="#c0c0d0" stroke-opacity=".52" stroke-width="1.5" filter="url(#skr1x3649)"/><line x1="500.17044487614186" y1="492.17707029636944" x2="501.47177599407735" y2="520.267804679647" stroke="#c0c0d0" stroke-opacity=".52" stroke-width="1.5" filter="url(#skr1x3649)"/><line x1="522.6596822118945" y1="491.0769934353418" x2="524.2456264301761" y2="518.4681915556081" stroke="#c0c0d0" stroke-opacity=".52" stroke-width="1.5" filter="url(#skr1x3649)"/><line x1="544.8045186655783" y1="490.70951871527353" x2="546.7957105399296" y2="519.0809027262964" stroke="#c0c0d0" stroke-opacity=".52" stroke-width="1.5" filter="url(#skr1x3649)"/><polygon points="431.0,502.6 566.2,504.6 554.2,556.8 445.9,558.3" fill="#2c2c3c" fill-opacity=".72" stroke="#c0c0d0" stroke-width="1.3" filter="url(#skr1x3649)"/><path d="M396.0746995451674 348.55219514304775 C342.9888947634399 155.1166867464781 449.34769858160985 230.21927001094446 474.066506032981 322.8026473467238" fill="#c0c0d0" stroke="#c0c0d0" stroke-width="2.8" filter="url(#skr1x3649)"/><path d="M605.2355838527159 348.7669303668663 C658.0193763233349 153.48307773191485 549.572977501694 228.20385752012953 523.4074895363674 321.7822298093699" fill="#c0c0d0" stroke="#c0c0d0" stroke-width="2.8" filter="url(#skr1x3649)"/><path d="M390.8915445459262 426.5422775200568 L462.1559746330604 391.38803233532235 L499.73554868511854 426.7800024937838 L539.0740666013211 391.6723332541995 L608.5889044524915 424.49853584021326" stroke="#c0c0d0" stroke-width="2.2" fill="none" filter="url(#skr1x3649)"/><text x="30.0"  y="975.0" font-family="monospace" font-weight="bold" font-size="22.0" fill="rgba(255,255,255,.22)">#0001</text><text x="500.0"   y="975.0" text-anchor="middle" font-family="monospace" font-weight="bold" font-size="22.0" fill="#c0c0d0" fill-opacity=".48">CHROME RANGER</text><text x="970.0" y="975.0" text-anchor="end"    font-family="monospace" font-weight="bold" font-size="22.0" fill="#c0c0d0" fill-opacity=".32">MECH RANGERS</text></svg>