<svg xmlns="http://www.w3.org/2000/svg" viewBox="0 0 1000 1000" width="1000" height="1000" shape-rendering="geometricPrecision"><defs>

  <!-- Scene gradients -->
  <radialGradient id="bgr1x3676" cx="50%" cy="42%" r="72%">
    <stop offset="0%"   stop-color="#0a1420"/>
    <stop offset="100%" stop-color="#050d14"/>
  </radialGradient>
  <linearGradient id="suitr1x3676" x1="8%" y1="0%" x2="92%" y2="100%">
    <stop offset="0%"   stop-color="#ccccff" stop-opacity=".95"/>
    <stop offset="45%"  stop-color="#242438"/>
    <stop offset="100%" stop-color="#050d14"/>
  </linearGradient>
  <linearGradient id="suitHir1x3676" x1="0%" y1="0%" x2="0%" y2="100%">
    <stop offset="0%"   stop-color="rgba(255,255,255,.28)"/>
    <stop offset="60%"  stop-color="rgba(255,255,255,.04)"/>
    <stop offset="100%" stop-color="rgba(255,255,255,0)"/>
  </linearGradient>
  <!-- Bevel: bright top, dark bottom for armour panels -->
  <linearGradient id="bevelr1x3676" x1="0%" y1="0%" x2="0%" y2="100%">
    <stop offset="0%"   stop-color="rgba(255,255,255,.55)"/>
    <stop offset="30%"  stop-color="#ccccff"/>
    <stop offset="70%"  stop-color="#242438"/>
    <stop offset="100%" stop-color="rgba(0,0,0,.5)"/>
  </linearGradient>

  <!-- Weapon: cold steel blade sweep -->
  <linearGradient id="blader1x3676" x1="0%" y1="0%" x2="100%" y2="0%">
    <stop offset="0%"   stop-color="#0e0e20"/>
    <stop offset="16%"  stop-color="#3e3e58"/>
    <stop offset="34%"  stop-color="#c8c8e0"/>
    <stop offset="50%"  stop-color="#f5f5ff"/>
    <stop offset="66%"  stop-color="#b8b8d0"/>
    <stop offset="84%"  stop-color="#2e2e48"/>
    <stop offset="100%" stop-color="#08080e"/>
  </linearGradient>
  <!-- Blade tip brightening -->
  <linearGradient id="bladeTipr1x3676" x1="0%" y1="100%" x2="0%" y2="0%">
    <stop offset="0%"   stop-color="rgba(255,255,255,0)"/>
    <stop offset="55%"  stop-color="rgba(255,255,255,.1)"/>
    <stop offset="100%" stop-color="rgba(255,255,255,.55)"/>
  </linearGradient>
  <!-- Gunmetal anodised — blaster body -->
  <linearGradient id="gunmetalr1x3676" x1="0%" y1="0%" x2="0%" y2="100%">
    <stop offset="0%"   stop-color="#46465e"/>
    <stop offset="18%"  stop-color="#828296"/>
    <stop offset="42%"  stop-color="#26263a"/>
    <stop offset="72%"  stop-color="#16162a"/>
    <stop offset="100%" stop-color="#0c0c18"/>
  </linearGradient>
  <!-- Brushed steel tube — barrel/rod -->
  <linearGradient id="barrelr1x3676" x1="0%" y1="0%" x2="100%" y2="0%">
    <stop offset="0%"   stop-color="#0a0a14"/>
    <stop offset="24%"  stop-color="#585875"/>
    <stop offset="50%"  stop-color="#a8a8c8"/>
    <stop offset="76%"  stop-color="#383852"/>
    <stop offset="100%" stop-color="#0a0a14"/>
  </linearGradient>
  <!-- Chrome rod — lance shaft -->
  <linearGradient id="chromer1x3676" x1="0%" y1="0%" x2="100%" y2="0%">
    <stop offset="0%"   stop-color="#0c0c18"/>
    <stop offset="20%"  stop-color="#686888"/>
    <stop offset="44%"  stop-color="#e0e0f0"/>
    <stop offset="56%"  stop-color="#c0c0d8"/>
    <stop offset="80%"  stop-color="#28283e"/>
    <stop offset="100%" stop-color="#0c0c18"/>
  </linearGradient>
  <!-- Titanium plate — shield face -->
  <linearGradient id="titaniumr1x3676" x1="0%" y1="0%" x2="100%" y2="100%">
    <stop offset="0%"   stop-color="#585878"/>
    <stop offset="28%"  stop-color="#ccccff" stop-opacity=".88"/>
    <stop offset="55%"  stop-color="#242438"/>
    <stop offset="80%"  stop-color="#181828"/>
    <stop offset="100%" stop-color="#0a0a18"/>
  </linearGradient>
  <!-- Artillery black-chrome — cannon body -->
  <linearGradient id="artilleryr1x3676" x1="0%" y1="0%" x2="0%" y2="100%">
    <stop offset="0%"   stop-color="#383850"/>
    <stop offset="14%"  stop-color="#78789a"/>
    <stop offset="36%"  stop-color="#202034"/>
    <stop offset="65%"  stop-color="#14141e"/>
    <stop offset="100%" stop-color="#0a0a12"/>
  </linearGradient>
  <!-- Energy orb — staff -->
  <radialGradient id="orbr1x3676" cx="35%" cy="35%" r="65%">
    <stop offset="0%"   stop-color="rgba(255,255,255,.9)"/>
    <stop offset="30%"  stop-color="#ccccff"/>
    <stop offset="68%"  stop-color="#242438"/>
    <stop offset="100%" stop-color="rgba(0,0,0,.6)"/>
  </radialGradient>
  <!-- Knuckle plate chrome -->
  <linearGradient id="knuckler1x3676" x1="0%" y1="0%" x2="0%" y2="100%">
    <stop offset="0%"   stop-color="#888aaa"/>
    <stop offset="32%"  stop-color="#ccccff" stop-opacity=".8"/>
    <stop offset="62%"  stop-color="#1a1a2c"/>
    <stop offset="100%" stop-color="#0a0a14"/>
  </linearGradient>

  <!-- Carbon fibre weave texture overlay -->
  <pattern id="carbonr1x3676" width="6" height="6" patternUnits="userSpaceOnUse">
    <rect width="6" height="6" fill="rgba(0,0,0,.08)"/>
    <rect x="0" y="0" width="3" height="3" fill="rgba(255,255,255,.022)"/>
    <rect x="3" y="3" width="3" height="3" fill="rgba(255,255,255,.022)"/>
    <line x1="0" y1="0" x2="3" y2="3" stroke="rgba(255,255,255,.038)" stroke-width=".5"/>
    <line x1="3" y1="0" x2="6" y2="3" stroke="rgba(0,0,0,.055)"       stroke-width=".5"/>
    <line x1="0" y1="3" x2="3" y2="6" stroke="rgba(0,0,0,.055)"       stroke-width=".5"/>
    <line x1="3" y1="3" x2="6" y2="6" stroke="rgba(255,255,255,.038)" stroke-width=".5"/>
  </pattern>

  <!-- Specular metal sheen on armour panels -->
  <filter id="metalr1x3676" x="-5%" y="-5%" width="110%" height="110%">
    <feSpecularLighting surfaceScale="4" specularConstant="1.8"
        specularExponent="42" lighting-color="#ffffff" result="spec">
      <feDistantLight elevation="52" azimuth="38"/>
    </feSpecularLighting>
    <feComposite in="spec" in2="SourceGraphic" operator="in" result="sm"/>
    <feComposite in="SourceGraphic" in2="sm" operator="arithmetic" k1="0" k2="1" k3="0.55" k4="0"/>
  </filter>

  <!-- Sharper specular for weapons — heavier glare -->
  <filter id="wmr1x3676" x="-8%" y="-8%" width="116%" height="116%">
    <feSpecularLighting surfaceScale="6" specularConstant="2.4"
        specularExponent="65" lighting-color="#ffffff" result="spec">
      <feDistantLight elevation="44" azimuth="28"/>
    </feSpecularLighting>
    <feComposite in="spec" in2="SourceGraphic" operator="in" result="sm"/>
    <feComposite in="SourceGraphic" in2="sm" operator="arithmetic" k1="0" k2="1" k3="0.78" k4="0"/>
  </filter>

  <!-- Sketch wobble -->
  <filter id="skr1x3676" x="-8%" y="-8%" width="116%" height="116%">
    <feTurbulence type="fractalNoise" baseFrequency="0.038"
        numOctaves="3" seed="68" result="noise"/>
    <feDisplacementMap in="SourceGraphic" in2="noise" scale="2.6"
        xChannelSelector="R" yChannelSelector="G" result="w"/>
    <feComposite in="w" in2="SourceGraphic" operator="atop"/>
  </filter>

  <!-- Glow: sharp accent -->
  <filter id="glowr1x3676" x="-20%" y="-20%" width="140%" height="140%">
    <feGaussianBlur stdDeviation="3.5" result="b"/>
    <feColorMatrix in="b" type="matrix"
        values="0 0 0 0 1  0 0 0 0 1  0 0 0 0 1  0 0 0 1.8 0" result="boost"/>
    <feMerge><feMergeNode in="boost"/><feMergeNode in="SourceGraphic"/></feMerge>
  </filter>

  <!-- Bloom: wide soft -->
  <filter id="bloomr1x3676" x="-40%" y="-40%" width="180%" height="180%">
    <feGaussianBlur stdDeviation="11" result="b"/>
    <feMerge><feMergeNode in="b"/><feMergeNode in="SourceGraphic"/></feMerge>
  </filter>

  </defs><rect width="1000" height="1000" fill="url(#bgr1x3676)"/><polygon points="942.2679946664721,63.76352082006633 970.9918863866478,11.775591692887247 999.408724767156,55.179954883642495" fill="#ccccff" fill-opacity=".055" stroke="#ccccff" stroke-opacity=".1" stroke-width="1"/><polygon points="714.4835827918723,340.09784382767975 725.9152671163902,318.1327331094071 741.8002340923995,346.1436375277117" fill="#ccccff" fill-opacity=".055" stroke="#ccccff" stroke-opacity=".1" stroke-width="1"/><polygon points="142.78675925452262,453.98729196283966 182.640141479671,413.2219930207357 187.84657019469887,448.04144324269146" fill="#ccccff" fill-opacity=".055" stroke="#ccccff" stroke-opacity=".1" stroke-width="1"/><polygon points="624.5444153249264,112.41718223318458 655.5101079428568,81.71034466754645 657.9423410380259,124.96247634291649" fill="#ccccff" fill-opacity=".055" stroke="#ccccff" stroke-opacity=".1" stroke-width="1"/><polygon points="368.48284386564046,360.8145582349971 381.8185588605702,324.00416050851345 403.41429686918855,342.07764542195946" fill="#ccccff" fill-opacity=".055" stroke="#ccccff" stroke-opacity=".1" stroke-width="1"/><polygon points="360.31454663258046,452.4522649962455 391.6936674742028,409.6320895832032 401.77727888152003,446.59708799328655" fill="#ccccff" fill-opacity=".055" stroke="#ccccff" stroke-opacity=".1" stroke-width="1"/><polygon points="382.8048381116241,322.87186006084085 391.2501854710281,295.1949183251709 413.03193243034184,334.27449386101216" fill="#ccccff" fill-opacity=".055" stroke="#ccccff" stroke-opacity=".1" stroke-width="1"/><polygon points="579.8606565315276,186.68898223433644 606.9709134409204,141.09651420079172 627.8048653416336,180.54445296525955" fill="#ccccff" fill-opacity=".055" stroke="#ccccff" stroke-opacity=".1" stroke-width="1"/><ellipse cx="500.0" cy="892.0" rx="350.0" ry="65.0" fill="rgba(0,0,0,.7)" filter="url(#bloomr1x3676)"/><ellipse cx="500.0" cy="889.0" rx="220.0" ry="34.0" fill="rgba(0,0,0,.45)"/><ellipse cx="500.0" cy="520.0" rx="320.0" ry="480.0" fill="#6600ff" fill-opacity=".042" filter="url(#bloomr1x3676)"/><circle cx="571.0" cy="736.5" r="2.4" fill="#6600ff" fill-opacity="0.51" filter="url(#glowr1x3676)"/><circle cx="413.0" cy="487.8" r="3.7" fill="#6600ff" fill-opacity="0.75" filter="url(#glowr1x3676)"/><circle cx="737.9" cy="183.9" r="3.5" fill="#6600ff" fill-opacity="0.39" filter="url(#glowr1x3676)"/><circle cx="747.3" cy="198.9" r="3.5" fill="#6600ff" fill-opacity="0.57" filter="url(#glowr1x3676)"/><circle cx="380.6" cy="439.3" r="1.0" fill="#6600ff" fill-opacity="0.56" filter="url(#glowr1x3676)"/><circle cx="660.7" cy="759.0" r="3.0" fill="#6600ff" fill-opacity="0.82" filter="url(#glowr1x3676)"/><circle cx="438.7" cy="773.1" r="2.0" fill="#6600ff" fill-opacity="0.64" filter="url(#glowr1x3676)"/><circle cx="405.0" cy="562.2" r="3.8" fill="#6600ff" fill-opacity="0.45" filter="url(#glowr1x3676)"/><circle cx="469.7" cy="485.9" r="1.9" fill="#6600ff" fill-opacity="0.40" filter="url(#glowr1x3676)"/><circle cx="521.0" cy="434.0" r="3.3" fill="#6600ff" fill-opacity="0.63" filter="url(#glowr1x3676)"/><circle cx="546.3" cy="272.6" r="4.3" fill="#6600ff" fill-opacity="0.84" filter="url(#glowr1x3676)"/><circle cx="643.1" cy="527.1" r="1.0" fill="#6600ff" fill-opacity="0.67" filter="url(#glowr1x3676)"/><circle cx="445.7" cy="459.9" r="0.8" fill="#6600ff" fill-opacity="0.78" filter="url(#glowr1x3676)"/><circle cx="586.3" cy="385.9" r="1.4" fill="#6600ff" fill-opacity="0.88" filter="url(#glowr1x3676)"/><polygon points="399.0,661.4 488.3,661.8 481.7,876.8 386.0,876.8" fill="url(#suitr1x3676)" stroke="#ccccff" stroke-width="2.2" filter="url(#skr1x3676) url(#metalr1x3676)"/><polygon points="400.3,664.0 488.8,661.5 479.9,876.3 387.9,877.8" fill="url(#carbonr1x3676)"/><polygon points="392.1,725.2 493.6,723.9 484.8,789.0 385.4,789.6" fill="url(#bevelr1x3676)" fill-opacity=".5" stroke="#ccccff" stroke-width="1.4" filter="url(#skr1x3676)"/><polygon points="511.1,662.1 601.1,663.6 613.7,878.1 519.7,878.9" fill="url(#suitr1x3676)" stroke="#ccccff" stroke-width="2.2" filter="url(#skr1x3676) url(#metalr1x3676)"/><polygon points="508.8,661.4 600.1,661.3 612.8,877.1 520.0,876.5" fill="url(#carbonr1x3676)"/><polygon points="506.5,724.2 606.1,725.4 615.8,789.7 517.6,787.7" fill="url(#bevelr1x3676)" fill-opacity=".5" stroke="#ccccff" stroke-width="1.4" filter="url(#skr1x3676)"/><rect x="394.0" y="839.5" width="100.3" height="24.7" fill="url(#bevelr1x3676)" stroke="#ccccff" stroke-width="1" filter="url(#skr1x3676)"/><rect x="507.2"  y="839.4" width="100.3" height="24.7" fill="url(#bevelr1x3676)" stroke="#ccccff" stroke-width="1" filter="url(#skr1x3676)"/><polygon points="371.3,878.4 496.5,876.2 504.8,920.6 362.6,920.9" fill="#242438" stroke="#ccccff" stroke-width="2" filter="url(#skr1x3676)"/><polygon points="504.1,878.2 630.2,877.6 636.7,920.7 497.3,921.5" fill="#242438" stroke="#ccccff" stroke-width="2" filter="url(#skr1x3676)"/><polygon points="303.4,632.8 695.1,632.4 637.3,680.9 361.3,680.8" fill="#ccccff" fill-opacity=".52" stroke="#ccccff" stroke-width="2" filter="url(#skr1x3676)"/><rect x="465.7" y="637.5" width="72.0" height="42.0" fill="url(#bevelr1x3676)" stroke="#ccccff" stroke-width="1.4" filter="url(#glowr1x3676)"/><rect x="484.4" y="639.4" width="28.0" height="22.0" rx="1" fill="rgba(255,255,255,.48)"/><polygon points="151.9,465.5 235.9,466.2 257.8,735.5 129.1,734.2" fill="url(#suitr1x3676)" stroke="#ccccff" stroke-width="2.2" filter="url(#skr1x3676) url(#metalr1x3676)"/><polygon points="172.0,433.9 254.6,433.4 242.4,510.8 159.1,509.2" fill="url(#bevelr1x3676)" fill-opacity=".72" stroke="#ccccff" stroke-width="2.2" filter="url(#skr1x3676)"/><polygon points="160.6,622.2 244.0,622.8 238.0,662.0 165.9,660.3" fill="#ccccff" fill-opacity=".42" stroke="#ccccff" stroke-width="1" filter="url(#skr1x3676)"/><polygon points="765.7,465.6 848.4,468.0 870.1,733.5 740.4,736.4" fill="url(#suitr1x3676)" stroke="#ccccff" stroke-width="2.2" filter="url(#skr1x3676) url(#metalr1x3676)"/><polygon points="747.4,433.3 826.7,432.2 841.9,510.3 755.3,510.3" fill="url(#bevelr1x3676)" fill-opacity=".72" stroke="#ccccff" stroke-width="2.2" filter="url(#skr1x3676)"/><polygon points="756.4,622.4 840.4,622.4 835.1,660.3 761.9,660.0" fill="#ccccff" fill-opacity=".42" stroke="#ccccff" stroke-width="1" filter="url(#skr1x3676)"/><rect x="118.8"  y="698.9" width="135.3" height="85.0" rx="4" fill="url(#bevelr1x3676)" stroke="#ccccff" stroke-width="1.8" filter="url(#skr1x3676)"/><rect x="747.6"   y="698.5" width="135.3" height="85.0" rx="4" fill="url(#bevelr1x3676)" stroke="#ccccff" stroke-width="1.8" filter="url(#skr1x3676)"/><line x1="150.0" y1="702.7" x2="150.3" y2="785.1" stroke="#ccccff" stroke-opacity=".38" stroke-width="1"/><line x1="778.3" y1="701.1" x2="778.3" y2="783.1" stroke="#ccccff" stroke-opacity=".38" stroke-width="1"/><line x1="181.8" y1="701.6" x2="181.4" y2="782.1" stroke="#ccccff" stroke-opacity=".38" stroke-width="1"/><line x1="810.2" y1="700.6" x2="809.9" y2="785.2" stroke="#ccccff" stroke-opacity=".38" stroke-width="1"/><line x1="216.2" y1="700.6" x2="215.0" y2="782.7" stroke="#ccccff" stroke-opacity=".38" stroke-width="1"/><line x1="844.5" y1="701.9" x2="843.0" y2="785.0" stroke="#ccccff" stroke-opacity=".38" stroke-width="1"/><polygon points="234.9,418.9 764.9,416.3 722.9,664.3 278.5,663.7" fill="url(#suitr1x3676)" stroke="#ccccff" stroke-width="2.6" filter="url(#skr1x3676) url(#metalr1x3676)"/><polygon points="234.3,419.0 765.9,417.6 720.9,661.3 278.0,664.0" fill="url(#carbonr1x3676)"/><polygon points="368.2,419.0 633.6,417.0 611.3,517.1 388.9,515.4" fill="url(#suitHir1x3676)"/><line x1="362.3" y1="471.7" x2="636.2" y2="470.8" stroke="#ccccff" stroke-opacity=".52" stroke-width="1.3" filter="url(#skr1x3676)"/><line x1="401.0" y1="548.6" x2="601.5" y2="549.5" stroke="#ccccff" stroke-opacity=".52" stroke-width="1.3" filter="url(#skr1x3676)"/><line x1="266.3" y1="492.8" x2="318.6" y2="489.7" stroke="#ccccff" stroke-opacity=".62" stroke-width="1.8"/><line x1="680.3" y1="491.2" x2="735.0" y2="491.0" stroke="#ccccff" stroke-opacity=".62" stroke-width="1.8"/><line x1="268.6" y1="522.0" x2="320.8" y2="522.8" stroke="#ccccff" stroke-opacity=".62" stroke-width="1.8"/><line x1="680.1" y1="523.0" x2="733.3" y2="522.1" stroke="#ccccff" stroke-opacity=".62" stroke-width="1.8"/><line x1="265.7" y1="553.9" x2="318.6" y2="556.0" stroke="#ccccff" stroke-opacity=".62" stroke-width="1.8"/><line x1="678.5" y1="554.2" x2="733.8" y2="554.7" stroke="#ccccff" stroke-opacity=".62" stroke-width="1.8"/><line x1="266.9" y1="584.9" x2="318.8" y2="585.8" stroke="#ccccff" stroke-opacity=".62" stroke-width="1.8"/><line x1="681.1" y1="588.3" x2="733.6" y2="588.2" stroke="#ccccff" stroke-opacity=".62" stroke-width="1.8"/><g filter="url(#glowr1x3676)"><polygon points="498.2,453.7 541.6,512.4 498.8,569.9 456.6,511.6" fill="#ccccff" stroke="#050d14" stroke-width="1.4" filter="url(#skr1x3676)"/><polygon points="500.5,450.9 543.4,509.1 501.0,566.9 459.1,509.3" fill="url(#suitHir1x3676)" opacity=".45"/></g><g><rect x="42.68100268183273" y="397.63039079997685" width="175.0" height="118.0" rx="7" fill="url(#artilleryr1x3676)" stroke="#ccccff" stroke-width="2.6" filter="url(#wmr1x3676)"/><rect x="42.959097347073225" y="397.29271855270486" width="175.0" height="118.0" rx="7" fill="url(#carbonr1x3676)"/><rect x="18.873225815165757" y="445.6414554111659" width="78.0" height="32.0" rx="6" fill="url(#barrelr1x3676)" stroke="#ccccff" stroke-width="1.4" filter="url(#wmr1x3676)"/><circle cx="118.97240973044184" cy="472.98349892459805" r="48.0" fill="rgba(0,0,0,.55)" stroke="#ccccff" stroke-width="2" filter="url(#wmr1x3676)"/><circle cx="117.85427654258903" cy="471.52055107532067" r="34.0" fill="#ccccff" fill-opacity=".4" filter="url(#bloomr1x3676)"/><circle cx="118.30379104683172" cy="471.20613956823945" r="18.0" fill="#ccccff" filter="url(#glowr1x3676)"/><rect x="46.869234887827155" y="381.3081198179163" width="100.0" height="18.0" rx="2" fill="url(#bevelr1x3676)" stroke="#ccccff" stroke-width="1" filter="url(#wmr1x3676)"/><rect x="45.07694426452738" y="399.285825378634" width="120.0" height="12.0" rx="3" fill="rgba(255,255,255,.2)"/><line x1="50.50085142118853" y1="520.1546928303316" x2="51.57705696647984" y2="549.8341741101816" stroke="#ccccff" stroke-opacity=".6" stroke-width="2"/><line x1="74.83710676388812" y1="519.064544286672" x2="74.67151694674041" y2="551.0587163584306" stroke="#ccccff" stroke-opacity=".6" stroke-width="2"/><line x1="101.07644908934829" y1="518.5462579935789" x2="98.5668250793032" y2="551.069011756219" stroke="#ccccff" stroke-opacity=".6" stroke-width="2"/><line x1="124.00148221584034" y1="520.2591054731048" x2="125.17340540731323" y2="548.2104411744513" stroke="#ccccff" stroke-opacity=".6" stroke-width="2"/></g><rect x="450.59032475687565" y="558.3152249035426" width="100.0"  height="56.0" fill="#242438" stroke="#ccccff" stroke-width="2.2" filter="url(#skr1x3676)"/><rect x="424.29348833383995" y="577.1121960392222" width="152.0" height="26.0" fill="url(#bevelr1x3676)" fill-opacity=".65" stroke="#ccccff" stroke-width="1.2" filter="url(#skr1x3676)"/><polygon points="308.4,382.2 348.9,292.8 498.6,279.8 650.2,294.7 693.1,380.7 668.9,504.4 499.8,565.2 331.9,503.2" fill="url(#suitr1x3676)" stroke="#ccccff" stroke-width="2.8" filter="url(#skr1x3676) url(#metalr1x3676)"/><polygon points="308.0,382.3 348.5,294.2 499.0,278.9 649.7,293.7 692.2,380.0 668.6,505.0 498.4,566.0 330.0,503.0" fill="url(#carbonr1x3676)"/><polygon points="379.4,300.9 501.6,287.8 618.8,302.2 607.1,379.4 390.9,380.3" fill="url(#suitHir1x3676)"/><polygon points="379.5,382.2 364.1,424.4 433.0,502.3 501.5,526.4 567.6,504.2 634.2,425.7 618.2,381.6" fill="#050d14" fill-opacity=".88" stroke="#ccccff" stroke-width="1.8" filter="url(#skr1x3676)"/><polygon points="382.1,411.3 475.3,410.1 482.9,441.7 389.4,438.6" fill="#ccccff" filter="url(#glowr1x3676)"/><polygon points="522.8,412.5 619.6,411.6 610.3,439.1 514.7,440.9" fill="#ccccff" filter="url(#glowr1x3676)"/><ellipse cx="430.9" cy="425.7" rx="38.4"  ry="8.2" fill="#ffffff" opacity=".88"/><ellipse cx="569.1" cy="425.7" rx="38.4"  ry="8.2" fill="#ffffff" opacity=".88"/><line x1="485.2670288585685" y1="412.297138825804" x2="515.2841922228597" y2="413.6213515587151" stroke="#ccccff" stroke-opacity=".52" stroke-width="2"/><line x1="485.06967427875844" y1="436.61134812422097" x2="516.403927475717" y2="437.84462933046746" stroke="#ccccff" stroke-opacity=".52" stroke-width="2"/><line x1="501.2416530058719" y1="455.46636447850614" x2="499.6870104903355" y2="482.49093087604274" stroke="#ccccff" stroke-opacity=".58" stroke-width="2.2" filter="url(#skr1x3676)"/><line x1="452.8746650652774" y1="492.21154976049434" x2="454.2223476626724" y2="519.7637600949965" stroke="#ccccff" stroke-opacity=".52" stroke-width="1.5" filter="url(#skr1x3676)"/><line x1="476.70538908721875" y1="491.3498209101148" x2="476.80589709080755" y2="518.4426125167869" stroke="#ccccff" stroke-opacity=".52" stroke-width="1.5" filter="url(#skr1x3676)"/><line x1="500.62227217210454" y1="490.8162994745187" x2="500.8773257616907" y2="521.7557544033043" stroke="#ccccff" stroke-opacity=".52" stroke-width="1.5" filter="url(#skr1x3676)"/><line x1="521.5327274062298" y1="490.66019298788154" x2="523.8722865379043" y2="519.8501890677959" stroke="#ccccff" stroke-opacity=".52" stroke-width="1.5" filter="url(#skr1x3676)"/><line x1="547.4207936654054" y1="491.8309551348909" x2="547.248965698965" y2="520.9106359528378" stroke="#ccccff" stroke-opacity=".52" stroke-width="1.5" filter="url(#skr1x3676)"/><polygon points="433.1,503.5 566.4,502.0 552.7,558.0 447.1,557.7" fill="#242438" fill-opacity=".72" stroke="#ccccff" stroke-width="1.3" filter="url(#skr1x3676)"/><text x="30.0"  y="975.0" font-family="monospace" font-weight="bold" font-size="22.0" fill="rgba(255,255,255,.22)">#0001</text><text x="500.0"   y="975.0" text-anchor="middle" font-family="monospace" font-weight="bold" font-size="22.0" fill="#ccccff" fill-opacity=".48">PHANTOM RANGER</text><text x="970.0" y="975.0" text-anchor="end"    font-family="monospace" font-weight="bold" font-size="22.0" fill="#ccccff" fill-opacity=".32">MECH RANGERS</text></svg>