<svg xmlns="http://www.w3.org/2000/svg" viewBox="0 0 1000 1000" width="1000" height="1000" shape-rendering="geometricPrecision"><defs>

  <!-- Scene gradients -->
  <radialGradient id="bgr1x3701" cx="50%" cy="42%" r="72%">
    <stop offset="0%"   stop-color="#001422"/>
    <stop offset="100%" stop-color="#000a14"/>
  </radialGradient>
  <linearGradient id="suitr1x3701" x1="8%" y1="0%" x2="92%" y2="100%">
    <stop offset="0%"   stop-color="#2060ff" stop-opacity=".95"/>
    <stop offset="45%"  stop-color="#003ccc"/>
    <stop offset="100%" stop-color="#000a14"/>
  </linearGradient>
  <linearGradient id="suitHir1x3701" x1="0%" y1="0%" x2="0%" y2="100%">
    <stop offset="0%"   stop-color="rgba(255,255,255,.28)"/>
    <stop offset="60%"  stop-color="rgba(255,255,255,.04)"/>
    <stop offset="100%" stop-color="rgba(255,255,255,0)"/>
  </linearGradient>
  <!-- Bevel: bright top, dark bottom for armour panels -->
  <linearGradient id="bevelr1x3701" x1="0%" y1="0%" x2="0%" y2="100%">
    <stop offset="0%"   stop-color="rgba(255,255,255,.55)"/>
    <stop offset="30%"  stop-color="#2060ff"/>
    <stop offset="70%"  stop-color="#003ccc"/>
    <stop offset="100%" stop-color="rgba(0,0,0,.5)"/>
  </linearGradient>

  <!-- Weapon: cold steel blade sweep -->
  <linearGradient id="blader1x3701" x1="0%" y1="0%" x2="100%" y2="0%">
    <stop offset="0%"   stop-color="#0e0e20"/>
    <stop offset="16%"  stop-color="#3e3e58"/>
    <stop offset="34%"  stop-color="#c8c8e0"/>
    <stop offset="50%"  stop-color="#f5f5ff"/>
    <stop offset="66%"  stop-color="#b8b8d0"/>
    <stop offset="84%"  stop-color="#2e2e48"/>
    <stop offset="100%" stop-color="#08080e"/>
  </linearGradient>
  <!-- Blade tip brightening -->
  <linearGradient id="bladeTipr1x3701" x1="0%" y1="100%" x2="0%" y2="0%">
    <stop offset="0%"   stop-color="rgba(255,255,255,0)"/>
    <stop offset="55%"  stop-color="rgba(255,255,255,.1)"/>
    <stop offset="100%" stop-color="rgba(255,255,255,.55)"/>
  </linearGradient>
  <!-- Gunmetal anodised — blaster body -->
  <linearGradient id="gunmetalr1x3701" x1="0%" y1="0%" x2="0%" y2="100%">
    <stop offset="0%"   stop-color="#46465e"/>
    <stop offset="18%"  stop-color="#828296"/>
    <stop offset="42%"  stop-color="#26263a"/>
    <stop offset="72%"  stop-color="#16162a"/>
    <stop offset="100%" stop-color="#0c0c18"/>
  </linearGradient>
  <!-- Brushed steel tube — barrel/rod -->
  <linearGradient id="barrelr1x3701" x1="0%" y1="0%" x2="100%" y2="0%">
    <stop offset="0%"   stop-color="#0a0a14"/>
    <stop offset="24%"  stop-color="#585875"/>
    <stop offset="50%"  stop-color="#a8a8c8"/>
    <stop offset="76%"  stop-color="#383852"/>
    <stop offset="100%" stop-color="#0a0a14"/>
  </linearGradient>
  <!-- Chrome rod — lance shaft -->
  <linearGradient id="chromer1x3701" x1="0%" y1="0%" x2="100%" y2="0%">
    <stop offset="0%"   stop-color="#0c0c18"/>
    <stop offset="20%"  stop-color="#686888"/>
    <stop offset="44%"  stop-color="#e0e0f0"/>
    <stop offset="56%"  stop-color="#c0c0d8"/>
    <stop offset="80%"  stop-color="#28283e"/>
    <stop offset="100%" stop-color="#0c0c18"/>
  </linearGradient>
  <!-- Titanium plate — shield face -->
  <linearGradient id="titaniumr1x3701" x1="0%" y1="0%" x2="100%" y2="100%">
    <stop offset="0%"   stop-color="#585878"/>
    <stop offset="28%"  stop-color="#2060ff" stop-opacity=".88"/>
    <stop offset="55%"  stop-color="#003ccc"/>
    <stop offset="80%"  stop-color="#181828"/>
    <stop offset="100%" stop-color="#0a0a18"/>
  </linearGradient>
  <!-- Artillery black-chrome — cannon body -->
  <linearGradient id="artilleryr1x3701" x1="0%" y1="0%" x2="0%" y2="100%">
    <stop offset="0%"   stop-color="#383850"/>
    <stop offset="14%"  stop-color="#78789a"/>
    <stop offset="36%"  stop-color="#202034"/>
    <stop offset="65%"  stop-color="#14141e"/>
    <stop offset="100%" stop-color="#0a0a12"/>
  </linearGradient>
  <!-- Energy orb — staff -->
  <radialGradient id="orbr1x3701" cx="35%" cy="35%" r="65%">
    <stop offset="0%"   stop-color="rgba(255,255,255,.9)"/>
    <stop offset="30%"  stop-color="#2060ff"/>
    <stop offset="68%"  stop-color="#003ccc"/>
    <stop offset="100%" stop-color="rgba(0,0,0,.6)"/>
  </radialGradient>
  <!-- Knuckle plate chrome -->
  <linearGradient id="knuckler1x3701" x1="0%" y1="0%" x2="0%" y2="100%">
    <stop offset="0%"   stop-color="#888aaa"/>
    <stop offset="32%"  stop-color="#2060ff" stop-opacity=".8"/>
    <stop offset="62%"  stop-color="#1a1a2c"/>
    <stop offset="100%" stop-color="#0a0a14"/>
  </linearGradient>

  <!-- Carbon fibre weave texture overlay -->
  <pattern id="carbonr1x3701" width="6" height="6" patternUnits="userSpaceOnUse">
    <rect width="6" height="6" fill="rgba(0,0,0,.08)"/>
    <rect x="0" y="0" width="3" height="3" fill="rgba(255,255,255,.022)"/>
    <rect x="3" y="3" width="3" height="3" fill="rgba(255,255,255,.022)"/>
    <line x1="0" y1="0" x2="3" y2="3" stroke="rgba(255,255,255,.038)" stroke-width=".5"/>
    <line x1="3" y1="0" x2="6" y2="3" stroke="rgba(0,0,0,.055)"       stroke-width=".5"/>
    <line x1="0" y1="3" x2="3" y2="6" stroke="rgba(0,0,0,.055)"       stroke-width=".5"/>
    <line x1="3" y1="3" x2="6" y2="6" stroke="rgba(255,255,255,.038)" stroke-width=".5"/>
  </pattern>

  <!-- Specular metal sheen on armour panels -->
  <filter id="metalr1x3701" x="-5%" y="-5%" width="110%" height="110%">
    <feSpecularLighting surfaceScale="4" specularConstant="1.8"
        specularExponent="42" lighting-color="#ffffff" result="spec">
      <feDistantLight elevation="52" azimuth="38"/>
    </feSpecularLighting>
    <feComposite in="spec" in2="SourceGraphic" operator="in" result="sm"/>
    <feComposite in="SourceGraphic" in2="sm" operator="arithmetic" k1="0" k2="1" k3="0.55" k4="0"/>
  </filter>

  <!-- Sharper specular for weapons — heavier glare -->
  <filter id="wmr1x3701" x="-8%" y="-8%" width="116%" height="116%">
    <feSpecularLighting surfaceScale="6" specularConstant="2.4"
        specularExponent="65" lighting-color="#ffffff" result="spec">
      <feDistantLight elevation="44" azimuth="28"/>
    </feSpecularLighting>
    <feComposite in="spec" in2="SourceGraphic" operator="in" result="sm"/>
    <feComposite in="SourceGraphic" in2="sm" operator="arithmetic" k1="0" k2="1" k3="0.78" k4="0"/>
  </filter>

  <!-- Sketch wobble -->
  <filter id="skr1x3701" x="-8%" y="-8%" width="116%" height="116%">
    <feTurbulence type="fractalNoise" baseFrequency="0.038"
        numOctaves="3" seed="43" result="noise"/>
    <feDisplacementMap in="SourceGraphic" in2="noise" scale="2.6"
        xChannelSelector="R" yChannelSelector="G" result="w"/>
    <feComposite in="w" in2="SourceGraphic" operator="atop"/>
  </filter>

  <!-- Glow: sharp accent -->
  <filter id="glowr1x3701" x="-20%" y="-20%" width="140%" height="140%">
    <feGaussianBlur stdDeviation="3.5" result="b"/>
    <feColorMatrix in="b" type="matrix"
        values="0 0 0 0 1  0 0 0 0 1  0 0 0 0 1  0 0 0 1.8 0" result="boost"/>
    <feMerge><feMergeNode in="boost"/><feMergeNode in="SourceGraphic"/></feMerge>
  </filter>

  <!-- Bloom: wide soft -->
  <filter id="bloomr1x3701" x="-40%" y="-40%" width="180%" height="180%">
    <feGaussianBlur stdDeviation="11" result="b"/>
    <feMerge><feMergeNode in="b"/><feMergeNode in="SourceGraphic"/></feMerge>
  </filter>

  </defs><rect width="1000" height="1000" fill="url(#bgr1x3701)"/><line x1="0" y1="-1.4" x2="1000" y2="2.1" stroke="#2060ff" stroke-opacity=".055" stroke-width="1.2"/><line x1="2.5" y1="0" x2="1.9" y2="1000" stroke="#2060ff" stroke-opacity=".055" stroke-width="1.2"/><line x1="0" y1="102.9" x2="1000" y2="98.3" stroke="#2060ff" stroke-opacity=".055" stroke-width="1.2"/><line x1="97.1" y1="0" x2="97.2" y2="1000" stroke="#2060ff" stroke-opacity=".055" stroke-width="1.2"/><line x1="0" y1="200.0" x2="1000" y2="198.8" stroke="#2060ff" stroke-opacity=".055" stroke-width="1.2"/><line x1="197.5" y1="0" x2="201.3" y2="1000" stroke="#2060ff" stroke-opacity=".055" stroke-width="1.2"/><line x1="0" y1="298.1" x2="1000" y2="298.9" stroke="#2060ff" stroke-opacity=".055" stroke-width="1.2"/><line x1="300.0" y1="0" x2="299.8" y2="1000" stroke="#2060ff" stroke-opacity=".055" stroke-width="1.2"/><line x1="0" y1="397.6" x2="1000" y2="401.4" stroke="#2060ff" stroke-opacity=".055" stroke-width="1.2"/><line x1="397.8" y1="0" x2="402.7" y2="1000" stroke="#2060ff" stroke-opacity=".055" stroke-width="1.2"/><line x1="0" y1="503.0" x2="1000" y2="500.8" stroke="#2060ff" stroke-opacity=".055" stroke-width="1.2"/><line x1="497.9" y1="0" x2="499.6" y2="1000" stroke="#2060ff" stroke-opacity=".055" stroke-width="1.2"/><line x1="0" y1="601.7" x2="1000" y2="601.7" stroke="#2060ff" stroke-opacity=".055" stroke-width="1.2"/><line x1="599.4" y1="0" x2="597.4" y2="1000" stroke="#2060ff" stroke-opacity=".055" stroke-width="1.2"/><line x1="0" y1="699.2" x2="1000" y2="697.4" stroke="#2060ff" stroke-opacity=".055" stroke-width="1.2"/><line x1="700.6" y1="0" x2="697.1" y2="1000" stroke="#2060ff" stroke-opacity=".055" stroke-width="1.2"/><line x1="0" y1="803.0" x2="1000" y2="802.8" stroke="#2060ff" stroke-opacity=".055" stroke-width="1.2"/><line x1="800.5" y1="0" x2="799.1" y2="1000" stroke="#2060ff" stroke-opacity=".055" stroke-width="1.2"/><line x1="0" y1="898.8" x2="1000" y2="900.0" stroke="#2060ff" stroke-opacity=".055" stroke-width="1.2"/><line x1="902.8" y1="0" x2="900.6" y2="1000" stroke="#2060ff" stroke-opacity=".055" stroke-width="1.2"/><path d="M80,30 L30,30 L30,80" stroke="#2060ff" stroke-opacity=".45" stroke-width="2" fill="none" filter="url(#glowr1x3701)"/><path d="M920,30 L970,30 L970,80" stroke="#2060ff" stroke-opacity=".45" stroke-width="2" fill="none" filter="url(#glowr1x3701)"/><path d="M30,920 L30,970 L80,970" stroke="#2060ff" stroke-opacity=".45" stroke-width="2" fill="none" filter="url(#glowr1x3701)"/><path d="M970,920 L970,970 L920,970" stroke="#2060ff" stroke-opacity=".45" stroke-width="2" fill="none" filter="url(#glowr1x3701)"/><ellipse cx="500.0" cy="892.0" rx="350.0" ry="65.0" fill="rgba(0,0,0,.7)" filter="url(#bloomr1x3701)"/><ellipse cx="500.0" cy="889.0" rx="220.0" ry="34.0" fill="rgba(0,0,0,.45)"/><ellipse cx="500.0" cy="520.0" rx="320.0" ry="480.0" fill="#00e5ff" fill-opacity=".042" filter="url(#bloomr1x3701)"/><circle cx="697.9" cy="416.3" r="1.2" fill="#00e5ff" fill-opacity="0.77" filter="url(#glowr1x3701)"/><circle cx="394.1" cy="520.9" r="1.3" fill="#00e5ff" fill-opacity="0.52" filter="url(#glowr1x3701)"/><circle cx="395.7" cy="350.6" r="3.2" fill="#00e5ff" fill-opacity="0.55" filter="url(#glowr1x3701)"/><circle cx="639.4" cy="580.5" r="4.2" fill="#00e5ff" fill-opacity="0.41" filter="url(#glowr1x3701)"/><circle cx="567.3" cy="431.4" r="1.0" fill="#00e5ff" fill-opacity="0.76" filter="url(#glowr1x3701)"/><circle cx="657.2" cy="408.3" r="3.4" fill="#00e5ff" fill-opacity="0.58" filter="url(#glowr1x3701)"/><circle cx="532.0" cy="710.6" r="3.3" fill="#00e5ff" fill-opacity="0.87" filter="url(#glowr1x3701)"/><circle cx="383.0" cy="271.1" r="2.9" fill="#00e5ff" fill-opacity="0.75" filter="url(#glowr1x3701)"/><circle cx="657.7" cy="532.6" r="3.6" fill="#00e5ff" fill-opacity="0.89" filter="url(#glowr1x3701)"/><circle cx="514.9" cy="345.5" r="2.8" fill="#00e5ff" fill-opacity="0.88" filter="url(#glowr1x3701)"/><circle cx="352.4" cy="530.3" r="0.7" fill="#00e5ff" fill-opacity="0.42" filter="url(#glowr1x3701)"/><circle cx="482.5" cy="347.8" r="2.6" fill="#00e5ff" fill-opacity="0.86" filter="url(#glowr1x3701)"/><circle cx="420.9" cy="657.8" r="3.4" fill="#00e5ff" fill-opacity="0.39" filter="url(#glowr1x3701)"/><circle cx="543.7" cy="770.4" r="3.7" fill="#00e5ff" fill-opacity="0.42" filter="url(#glowr1x3701)"/><path d="M371.4,177.7 Q332.5,472.7 609.6,754.4" stroke="#00e5ff" stroke-opacity="0.76" stroke-width="2.2" fill="none" filter="url(#glowr1x3701)"/><path d="M474.3,214.0 Q459.5,414.5 430.8,614.5" stroke="#00e5ff" stroke-opacity="0.58" stroke-width="1.2" fill="none" filter="url(#glowr1x3701)"/><path d="M504.1,319.1 Q532.5,484.7 318.5,649.2" stroke="#00e5ff" stroke-opacity="0.77" stroke-width="2.2" fill="none" filter="url(#glowr1x3701)"/><path d="M640.8,266.6 Q632.9,592.5 337.6,899.5" stroke="#00e5ff" stroke-opacity="0.50" stroke-width="0.8" fill="none" filter="url(#glowr1x3701)"/><path d="M423.6,148.3 Q400.1,359.2 609.8,619.8" stroke="#00e5ff" stroke-opacity="0.47" stroke-width="1.4" fill="none" filter="url(#glowr1x3701)"/><polygon points="397.4,662.6 489.2,662.0 481.7,879.2 386.6,878.3" fill="url(#suitr1x3701)" stroke="#2060ff" stroke-width="2.2" filter="url(#skr1x3701) url(#metalr1x3701)"/><polygon points="397.7,661.9 491.0,662.5 480.1,876.3 387.6,877.4" fill="url(#carbonr1x3701)"/><polygon points="393.4,723.0 491.2,723.5 482.4,789.2 383.5,789.7" fill="url(#bevelr1x3701)" fill-opacity=".5" stroke="#2060ff" stroke-width="1.4" filter="url(#skr1x3701)"/><polygon points="509.1,662.8 601.4,661.5 611.6,875.8 520.2,876.0" fill="url(#suitr1x3701)" stroke="#2060ff" stroke-width="2.2" filter="url(#skr1x3701) url(#metalr1x3701)"/><polygon points="511.0,662.4 601.5,661.4 612.9,877.9 519.0,875.9" fill="url(#carbonr1x3701)"/><polygon points="507.7,724.4 605.9,725.0 614.4,787.4 514.6,789.5" fill="url(#bevelr1x3701)" fill-opacity=".5" stroke="#2060ff" stroke-width="1.4" filter="url(#skr1x3701)"/><rect x="394.3" y="838.3" width="100.3" height="24.7" fill="url(#bevelr1x3701)" stroke="#2060ff" stroke-width="1" filter="url(#skr1x3701)"/><rect x="507.8"  y="840.4" width="100.3" height="24.7" fill="url(#bevelr1x3701)" stroke="#2060ff" stroke-width="1" filter="url(#skr1x3701)"/><polygon points="370.8,875.8 494.9,879.2 503.8,922.6 361.1,922.1" fill="#003ccc" stroke="#2060ff" stroke-width="2" filter="url(#skr1x3701)"/><polygon points="503.6,878.7 629.7,877.5 638.1,922.3 495.3,921.2" fill="#003ccc" stroke="#2060ff" stroke-width="2" filter="url(#skr1x3701)"/><polygon points="304.9,631.7 694.8,632.1 637.4,680.8 363.5,682.2" fill="#2060ff" fill-opacity=".52" stroke="#2060ff" stroke-width="2" filter="url(#skr1x3701)"/><rect x="465.2" y="639.0" width="72.0" height="42.0" fill="url(#bevelr1x3701)" stroke="#2060ff" stroke-width="1.4" filter="url(#glowr1x3701)"/><rect x="485.4" y="641.5" width="28.0" height="22.0" rx="1" fill="rgba(255,255,255,.48)"/><polygon points="153.6,468.0 233.3,467.3 259.3,734.6 129.0,734.0" fill="url(#suitr1x3701)" stroke="#2060ff" stroke-width="2.2" filter="url(#skr1x3701) url(#metalr1x3701)"/><polygon points="174.5,432.5 252.8,432.1 243.3,510.4 160.2,510.6" fill="url(#bevelr1x3701)" fill-opacity=".72" stroke="#2060ff" stroke-width="2.2" filter="url(#skr1x3701)"/><polygon points="160.3,623.3 244.9,623.5 238.6,662.3 166.1,660.4" fill="#2060ff" fill-opacity=".42" stroke="#2060ff" stroke-width="1" filter="url(#skr1x3701)"/><polygon points="763.3,466.3 846.7,467.0 871.1,734.3 743.2,734.2" fill="url(#suitr1x3701)" stroke="#2060ff" stroke-width="2.2" filter="url(#skr1x3701) url(#metalr1x3701)"/><polygon points="746.4,431.4 826.3,433.5 838.7,509.4 755.4,511.9" fill="url(#bevelr1x3701)" fill-opacity=".72" stroke="#2060ff" stroke-width="2.2" filter="url(#skr1x3701)"/><polygon points="756.3,621.0 838.7,621.3 836.3,659.2 762.0,662.4" fill="#2060ff" fill-opacity=".42" stroke="#2060ff" stroke-width="1" filter="url(#skr1x3701)"/><rect x="119.7"  y="700.5" width="135.3" height="85.0" rx="4" fill="url(#bevelr1x3701)" stroke="#2060ff" stroke-width="1.8" filter="url(#skr1x3701)"/><rect x="749.9"   y="699.0" width="135.3" height="85.0" rx="4" fill="url(#bevelr1x3701)" stroke="#2060ff" stroke-width="1.8" filter="url(#skr1x3701)"/><line x1="148.9" y1="703.3" x2="150.9" y2="785.3" stroke="#2060ff" stroke-opacity=".38" stroke-width="1"/><line x1="776.4" y1="703.1" x2="777.5" y2="783.9" stroke="#2060ff" stroke-opacity=".38" stroke-width="1"/><line x1="183.5" y1="703.6" x2="184.0" y2="784.7" stroke="#2060ff" stroke-opacity=".38" stroke-width="1"/><line x1="811.3" y1="700.7" x2="809.3" y2="782.4" stroke="#2060ff" stroke-opacity=".38" stroke-width="1"/><line x1="214.6" y1="701.4" x2="214.7" y2="784.6" stroke="#2060ff" stroke-opacity=".38" stroke-width="1"/><line x1="844.5" y1="702.4" x2="843.7" y2="782.2" stroke="#2060ff" stroke-opacity=".38" stroke-width="1"/><polygon points="233.7,416.7 766.3,416.4 724.1,661.4 276.7,664.0" fill="url(#suitr1x3701)" stroke="#2060ff" stroke-width="2.6" filter="url(#skr1x3701) url(#metalr1x3701)"/><polygon points="233.4,416.7 765.4,417.3 723.1,663.9 278.2,662.0" fill="url(#carbonr1x3701)"/><polygon points="366.5,418.8 631.4,418.4 610.0,514.3 388.5,515.3" fill="url(#suitHir1x3701)"/><line x1="361.1" y1="472.9" x2="638.6" y2="471.7" stroke="#2060ff" stroke-opacity=".52" stroke-width="1.3" filter="url(#skr1x3701)"/><line x1="399.3" y1="550.3" x2="602.5" y2="549.9" stroke="#2060ff" stroke-opacity=".52" stroke-width="1.3" filter="url(#skr1x3701)"/><line x1="265.7" y1="490.4" x2="319.8" y2="489.5" stroke="#2060ff" stroke-opacity=".62" stroke-width="1.8"/><line x1="681.9" y1="492.4" x2="732.3" y2="490.3" stroke="#2060ff" stroke-opacity=".62" stroke-width="1.8"/><line x1="265.5" y1="521.9" x2="318.6" y2="522.9" stroke="#2060ff" stroke-opacity=".62" stroke-width="1.8"/><line x1="681.8" y1="522.1" x2="732.9" y2="522.4" stroke="#2060ff" stroke-opacity=".62" stroke-width="1.8"/><line x1="266.7" y1="552.9" x2="319.4" y2="555.7" stroke="#2060ff" stroke-opacity=".62" stroke-width="1.8"/><line x1="681.5" y1="553.7" x2="733.5" y2="554.1" stroke="#2060ff" stroke-opacity=".62" stroke-width="1.8"/><line x1="265.0" y1="586.1" x2="320.2" y2="586.4" stroke="#2060ff" stroke-opacity=".62" stroke-width="1.8"/><line x1="682.0" y1="587.6" x2="731.8" y2="584.9" stroke="#2060ff" stroke-opacity=".62" stroke-width="1.8"/><g filter="url(#glowr1x3701)"><polygon points="498.9,452.7 542.9,509.5 499.7,569.8 457.4,511.3" fill="#2060ff" stroke="#000a14" stroke-width="1.4" filter="url(#skr1x3701)"/><polygon points="501.0,454.1 543.4,511.3 501.2,567.2 456.7,508.9" fill="url(#suitHir1x3701)" opacity=".45"/></g><g><rect x="42.690329628661246" y="397.14253327213225" width="175.0" height="118.0" rx="7" fill="url(#artilleryr1x3701)" stroke="#2060ff" stroke-width="2.6" filter="url(#wmr1x3701)"/><rect x="40.79481551101428" y="398.16352053582665" width="175.0" height="118.0" rx="7" fill="url(#carbonr1x3701)"/><rect x="15.48957041384649" y="448.97877083718777" width="78.0" height="32.0" rx="6" fill="url(#barrelr1x3701)" stroke="#2060ff" stroke-width="1.4" filter="url(#wmr1x3701)"/><circle cx="119.87532063968476" cy="470.9264292165637" r="48.0" fill="rgba(0,0,0,.55)" stroke="#2060ff" stroke-width="2" filter="url(#wmr1x3701)"/><circle cx="117.84765072021631" cy="469.6108082185499" r="34.0" fill="#2060ff" fill-opacity=".4" filter="url(#bloomr1x3701)"/><circle cx="118.26771328788247" cy="469.9377526892349" r="18.0" fill="#2060ff" filter="url(#glowr1x3701)"/><rect x="48.70484867574644" y="380.6089319663122" width="100.0" height="18.0" rx="2" fill="url(#bevelr1x3701)" stroke="#2060ff" stroke-width="1" filter="url(#wmr1x3701)"/><rect x="44.13426720941436" y="400.0988573011011" width="120.0" height="12.0" rx="3" fill="rgba(255,255,255,.2)"/><line x1="51.182616437636284" y1="519.4634758559987" x2="51.458176220897556" y2="550.2212162591517" stroke="#2060ff" stroke-opacity=".6" stroke-width="2"/><line x1="75.86962309315797" y1="518.914336970076" x2="75.08587193287906" y2="550.7887485970742" stroke="#2060ff" stroke-opacity=".6" stroke-width="2"/><line x1="98.36590259404849" y1="520.1289186784066" x2="99.33780503546816" y2="549.1580546885729" stroke="#2060ff" stroke-opacity=".6" stroke-width="2"/><line x1="125.33590982159596" y1="518.8729642405175" x2="125.34133145868775" y2="549.7073024788871" stroke="#2060ff" stroke-opacity=".6" stroke-width="2"/></g><rect x="449.8217793630436" y="555.8504334413446" width="100.0"  height="56.0" fill="#003ccc" stroke="#2060ff" stroke-width="2.2" filter="url(#skr1x3701)"/><rect x="425.30181747619065" y="574.9248034738936" width="152.0" height="26.0" fill="url(#bevelr1x3701)" fill-opacity=".65" stroke="#2060ff" stroke-width="1.2" filter="url(#skr1x3701)"/><polygon points="306.4,379.2 349.4,294.7 501.0,278.2 651.2,293.0 690.8,382.0 670.2,502.8 498.4,566.2 332.2,503.1" fill="url(#suitr1x3701)" stroke="#2060ff" stroke-width="2.8" filter="url(#skr1x3701) url(#metalr1x3701)"/><polygon points="308.7,380.5 350.5,293.4 499.0,278.4 649.4,296.1 691.5,379.1 670.5,502.8 499.3,565.2 330.6,502.6" fill="url(#carbonr1x3701)"/><polygon points="380.8,302.1 500.0,286.9 617.7,301.5 609.2,382.1 393.3,380.4" fill="url(#suitHir1x3701)"/><polygon points="381.1,379.3 364.0,424.7 432.6,504.8 500.2,528.1 568.6,504.6 634.8,427.4 617.5,379.7" fill="#000a14" fill-opacity=".88" stroke="#2060ff" stroke-width="1.8" filter="url(#skr1x3701)"/><polygon points="381.3,412.7 476.7,411.6 483.9,438.7 390.3,438.5" fill="#2060ff" filter="url(#glowr1x3701)"/><polygon points="523.0,412.6 617.6,411.4 612.0,438.5 516.2,441.5" fill="#2060ff" filter="url(#glowr1x3701)"/><ellipse cx="430.9" cy="425.7" rx="38.4"  ry="8.2" fill="#ffffff" opacity=".88"/><ellipse cx="569.1" cy="425.7" rx="38.4"  ry="8.2" fill="#ffffff" opacity=".88"/><line x1="482.9514084130153" y1="415.1602854003198" x2="516.8531381653063" y2="411.9284186622128" stroke="#2060ff" stroke-opacity=".52" stroke-width="2"/><line x1="483.26450446756553" y1="437.4484358766116" x2="516.9522382991761" y2="438.63594689257445" stroke="#2060ff" stroke-opacity=".52" stroke-width="2"/><line x1="498.51846245573836" y1="455.60473153796045" x2="501.1481339295395" y2="484.20827870750804" stroke="#2060ff" stroke-opacity=".58" stroke-width="2.2" filter="url(#skr1x3701)"/><line x1="453.92875415690247" y1="489.69033492784945" x2="453.5621829322353" y2="521.7624779108912" stroke="#2060ff" stroke-opacity=".52" stroke-width="1.5" filter="url(#skr1x3701)"/><line x1="476.78529574409123" y1="489.9239592264406" x2="477.41639426726846" y2="520.8980273685418" stroke="#2060ff" stroke-opacity=".52" stroke-width="1.5" filter="url(#skr1x3701)"/><line x1="500.42159430347385" y1="492.89866880141193" x2="500.36670947242527" y2="519.4329452964478" stroke="#2060ff" stroke-opacity=".52" stroke-width="1.5" filter="url(#skr1x3701)"/><line x1="522.4574189758487" y1="491.18390215691176" x2="522.40949195005" y2="520.9906303741038" stroke="#2060ff" stroke-opacity=".52" stroke-width="1.5" filter="url(#skr1x3701)"/><line x1="546.8240351935104" y1="492.247073991131" x2="545.6879084265978" y2="521.3864392226562" stroke="#2060ff" stroke-opacity=".52" stroke-width="1.5" filter="url(#skr1x3701)"/><polygon points="431.8,504.0 567.7,505.1 553.1,558.3 447.2,556.1" fill="#003ccc" fill-opacity=".72" stroke="#2060ff" stroke-width="1.3" filter="url(#skr1x3701)"/><polygon points="477.0,303.6 521.6,301.9 510.2,174.3 490.1,176.0" fill="url(#bevelr1x3701)" stroke="#2060ff" stroke-width="2.2" filter="url(#skr1x3701)"/><polygon points="364.2,324.8 456.6,321.7 470.9,227.3" fill="url(#bevelr1x3701)" fill-opacity=".78" stroke="#2060ff" stroke-width="1.5" filter="url(#skr1x3701)"/><polygon points="541.2,323.4 634.1,324.9 531.6,228.3" fill="url(#bevelr1x3701)" fill-opacity=".78" stroke="#2060ff" stroke-width="1.5" filter="url(#skr1x3701)"/><text x="30.0"  y="975.0" font-family="monospace" font-weight="bold" font-size="22.0" fill="rgba(255,255,255,.22)">#0001</text><text x="500.0"   y="975.0" text-anchor="middle" font-family="monospace" font-weight="bold" font-size="22.0" fill="#2060ff" fill-opacity=".48">COBALT RANGER</text><text x="970.0" y="975.0" text-anchor="end"    font-family="monospace" font-weight="bold" font-size="22.0" fill="#2060ff" fill-opacity=".32">MECH RANGERS</text></svg>