<svg xmlns="http://www.w3.org/2000/svg" viewBox="0 0 1000 1000" width="1000" height="1000" shape-rendering="geometricPrecision"><defs>

  <!-- Scene gradients -->
  <radialGradient id="bgr1x3705" cx="50%" cy="42%" r="72%">
    <stop offset="0%"   stop-color="#001422"/>
    <stop offset="100%" stop-color="#000a14"/>
  </radialGradient>
  <linearGradient id="suitr1x3705" x1="8%" y1="0%" x2="92%" y2="100%">
    <stop offset="0%"   stop-color="#ffcc00" stop-opacity=".95"/>
    <stop offset="45%"  stop-color="#a07000"/>
    <stop offset="100%" stop-color="#000a14"/>
  </linearGradient>
  <linearGradient id="suitHir1x3705" x1="0%" y1="0%" x2="0%" y2="100%">
    <stop offset="0%"   stop-color="rgba(255,255,255,.28)"/>
    <stop offset="60%"  stop-color="rgba(255,255,255,.04)"/>
    <stop offset="100%" stop-color="rgba(255,255,255,0)"/>
  </linearGradient>
  <!-- Bevel: bright top, dark bottom for armour panels -->
  <linearGradient id="bevelr1x3705" x1="0%" y1="0%" x2="0%" y2="100%">
    <stop offset="0%"   stop-color="rgba(255,255,255,.55)"/>
    <stop offset="30%"  stop-color="#ffcc00"/>
    <stop offset="70%"  stop-color="#a07000"/>
    <stop offset="100%" stop-color="rgba(0,0,0,.5)"/>
  </linearGradient>

  <!-- Weapon: cold steel blade sweep -->
  <linearGradient id="blader1x3705" x1="0%" y1="0%" x2="100%" y2="0%">
    <stop offset="0%"   stop-color="#0e0e20"/>
    <stop offset="16%"  stop-color="#3e3e58"/>
    <stop offset="34%"  stop-color="#c8c8e0"/>
    <stop offset="50%"  stop-color="#f5f5ff"/>
    <stop offset="66%"  stop-color="#b8b8d0"/>
    <stop offset="84%"  stop-color="#2e2e48"/>
    <stop offset="100%" stop-color="#08080e"/>
  </linearGradient>
  <!-- Blade tip brightening -->
  <linearGradient id="bladeTipr1x3705" x1="0%" y1="100%" x2="0%" y2="0%">
    <stop offset="0%"   stop-color="rgba(255,255,255,0)"/>
    <stop offset="55%"  stop-color="rgba(255,255,255,.1)"/>
    <stop offset="100%" stop-color="rgba(255,255,255,.55)"/>
  </linearGradient>
  <!-- Gunmetal anodised — blaster body -->
  <linearGradient id="gunmetalr1x3705" x1="0%" y1="0%" x2="0%" y2="100%">
    <stop offset="0%"   stop-color="#46465e"/>
    <stop offset="18%"  stop-color="#828296"/>
    <stop offset="42%"  stop-color="#26263a"/>
    <stop offset="72%"  stop-color="#16162a"/>
    <stop offset="100%" stop-color="#0c0c18"/>
  </linearGradient>
  <!-- Brushed steel tube — barrel/rod -->
  <linearGradient id="barrelr1x3705" x1="0%" y1="0%" x2="100%" y2="0%">
    <stop offset="0%"   stop-color="#0a0a14"/>
    <stop offset="24%"  stop-color="#585875"/>
    <stop offset="50%"  stop-color="#a8a8c8"/>
    <stop offset="76%"  stop-color="#383852"/>
    <stop offset="100%" stop-color="#0a0a14"/>
  </linearGradient>
  <!-- Chrome rod — lance shaft -->
  <linearGradient id="chromer1x3705" x1="0%" y1="0%" x2="100%" y2="0%">
    <stop offset="0%"   stop-color="#0c0c18"/>
    <stop offset="20%"  stop-color="#686888"/>
    <stop offset="44%"  stop-color="#e0e0f0"/>
    <stop offset="56%"  stop-color="#c0c0d8"/>
    <stop offset="80%"  stop-color="#28283e"/>
    <stop offset="100%" stop-color="#0c0c18"/>
  </linearGradient>
  <!-- Titanium plate — shield face -->
  <linearGradient id="titaniumr1x3705" x1="0%" y1="0%" x2="100%" y2="100%">
    <stop offset="0%"   stop-color="#585878"/>
    <stop offset="28%"  stop-color="#ffcc00" stop-opacity=".88"/>
    <stop offset="55%"  stop-color="#a07000"/>
    <stop offset="80%"  stop-color="#181828"/>
    <stop offset="100%" stop-color="#0a0a18"/>
  </linearGradient>
  <!-- Artillery black-chrome — cannon body -->
  <linearGradient id="artilleryr1x3705" x1="0%" y1="0%" x2="0%" y2="100%">
    <stop offset="0%"   stop-color="#383850"/>
    <stop offset="14%"  stop-color="#78789a"/>
    <stop offset="36%"  stop-color="#202034"/>
    <stop offset="65%"  stop-color="#14141e"/>
    <stop offset="100%" stop-color="#0a0a12"/>
  </linearGradient>
  <!-- Energy orb — staff -->
  <radialGradient id="orbr1x3705" cx="35%" cy="35%" r="65%">
    <stop offset="0%"   stop-color="rgba(255,255,255,.9)"/>
    <stop offset="30%"  stop-color="#ffcc00"/>
    <stop offset="68%"  stop-color="#a07000"/>
    <stop offset="100%" stop-color="rgba(0,0,0,.6)"/>
  </radialGradient>
  <!-- Knuckle plate chrome -->
  <linearGradient id="knuckler1x3705" x1="0%" y1="0%" x2="0%" y2="100%">
    <stop offset="0%"   stop-color="#888aaa"/>
    <stop offset="32%"  stop-color="#ffcc00" stop-opacity=".8"/>
    <stop offset="62%"  stop-color="#1a1a2c"/>
    <stop offset="100%" stop-color="#0a0a14"/>
  </linearGradient>

  <!-- Carbon fibre weave texture overlay -->
  <pattern id="carbonr1x3705" width="6" height="6" patternUnits="userSpaceOnUse">
    <rect width="6" height="6" fill="rgba(0,0,0,.08)"/>
    <rect x="0" y="0" width="3" height="3" fill="rgba(255,255,255,.022)"/>
    <rect x="3" y="3" width="3" height="3" fill="rgba(255,255,255,.022)"/>
    <line x1="0" y1="0" x2="3" y2="3" stroke="rgba(255,255,255,.038)" stroke-width=".5"/>
    <line x1="3" y1="0" x2="6" y2="3" stroke="rgba(0,0,0,.055)"       stroke-width=".5"/>
    <line x1="0" y1="3" x2="3" y2="6" stroke="rgba(0,0,0,.055)"       stroke-width=".5"/>
    <line x1="3" y1="3" x2="6" y2="6" stroke="rgba(255,255,255,.038)" stroke-width=".5"/>
  </pattern>

  <!-- Specular metal sheen on armour panels -->
  <filter id="metalr1x3705" x="-5%" y="-5%" width="110%" height="110%">
    <feSpecularLighting surfaceScale="4" specularConstant="1.8"
        specularExponent="42" lighting-color="#ffffff" result="spec">
      <feDistantLight elevation="52" azimuth="38"/>
    </feSpecularLighting>
    <feComposite in="spec" in2="SourceGraphic" operator="in" result="sm"/>
    <feComposite in="SourceGraphic" in2="sm" operator="arithmetic" k1="0" k2="1" k3="0.55" k4="0"/>
  </filter>

  <!-- Sharper specular for weapons — heavier glare -->
  <filter id="wmr1x3705" x="-8%" y="-8%" width="116%" height="116%">
    <feSpecularLighting surfaceScale="6" specularConstant="2.4"
        specularExponent="65" lighting-color="#ffffff" result="spec">
      <feDistantLight elevation="44" azimuth="28"/>
    </feSpecularLighting>
    <feComposite in="spec" in2="SourceGraphic" operator="in" result="sm"/>
    <feComposite in="SourceGraphic" in2="sm" operator="arithmetic" k1="0" k2="1" k3="0.78" k4="0"/>
  </filter>

  <!-- Sketch wobble -->
  <filter id="skr1x3705" x="-8%" y="-8%" width="116%" height="116%">
    <feTurbulence type="fractalNoise" baseFrequency="0.038"
        numOctaves="3" seed="8" result="noise"/>
    <feDisplacementMap in="SourceGraphic" in2="noise" scale="2.6"
        xChannelSelector="R" yChannelSelector="G" result="w"/>
    <feComposite in="w" in2="SourceGraphic" operator="atop"/>
  </filter>

  <!-- Glow: sharp accent -->
  <filter id="glowr1x3705" x="-20%" y="-20%" width="140%" height="140%">
    <feGaussianBlur stdDeviation="3.5" result="b"/>
    <feColorMatrix in="b" type="matrix"
        values="0 0 0 0 1  0 0 0 0 1  0 0 0 0 1  0 0 0 1.8 0" result="boost"/>
    <feMerge><feMergeNode in="boost"/><feMergeNode in="SourceGraphic"/></feMerge>
  </filter>

  <!-- Bloom: wide soft -->
  <filter id="bloomr1x3705" x="-40%" y="-40%" width="180%" height="180%">
    <feGaussianBlur stdDeviation="11" result="b"/>
    <feMerge><feMergeNode in="b"/><feMergeNode in="SourceGraphic"/></feMerge>
  </filter>

  </defs><rect width="1000" height="1000" fill="url(#bgr1x3705)"/><line x1="0" y1="-2.1" x2="1000" y2="2.4" stroke="#ffcc00" stroke-opacity=".055" stroke-width="1.2"/><line x1="3.0" y1="0" x2="2.8" y2="1000" stroke="#ffcc00" stroke-opacity=".055" stroke-width="1.2"/><line x1="0" y1="100.8" x2="1000" y2="97.3" stroke="#ffcc00" stroke-opacity=".055" stroke-width="1.2"/><line x1="102.4" y1="0" x2="97.4" y2="1000" stroke="#ffcc00" stroke-opacity=".055" stroke-width="1.2"/><line x1="0" y1="197.0" x2="1000" y2="199.5" stroke="#ffcc00" stroke-opacity=".055" stroke-width="1.2"/><line x1="198.5" y1="0" x2="200.2" y2="1000" stroke="#ffcc00" stroke-opacity=".055" stroke-width="1.2"/><line x1="0" y1="299.4" x2="1000" y2="302.2" stroke="#ffcc00" stroke-opacity=".055" stroke-width="1.2"/><line x1="299.8" y1="0" x2="299.9" y2="1000" stroke="#ffcc00" stroke-opacity=".055" stroke-width="1.2"/><line x1="0" y1="400.5" x2="1000" y2="397.8" stroke="#ffcc00" stroke-opacity=".055" stroke-width="1.2"/><line x1="402.3" y1="0" x2="399.2" y2="1000" stroke="#ffcc00" stroke-opacity=".055" stroke-width="1.2"/><line x1="0" y1="497.1" x2="1000" y2="498.5" stroke="#ffcc00" stroke-opacity=".055" stroke-width="1.2"/><line x1="500.3" y1="0" x2="502.7" y2="1000" stroke="#ffcc00" stroke-opacity=".055" stroke-width="1.2"/><line x1="0" y1="602.9" x2="1000" y2="599.8" stroke="#ffcc00" stroke-opacity=".055" stroke-width="1.2"/><line x1="600.1" y1="0" x2="597.4" y2="1000" stroke="#ffcc00" stroke-opacity=".055" stroke-width="1.2"/><line x1="0" y1="702.9" x2="1000" y2="698.5" stroke="#ffcc00" stroke-opacity=".055" stroke-width="1.2"/><line x1="701.3" y1="0" x2="699.3" y2="1000" stroke="#ffcc00" stroke-opacity=".055" stroke-width="1.2"/><line x1="0" y1="801.4" x2="1000" y2="802.2" stroke="#ffcc00" stroke-opacity=".055" stroke-width="1.2"/><line x1="800.8" y1="0" x2="799.7" y2="1000" stroke="#ffcc00" stroke-opacity=".055" stroke-width="1.2"/><line x1="0" y1="902.6" x2="1000" y2="898.4" stroke="#ffcc00" stroke-opacity=".055" stroke-width="1.2"/><line x1="900.1" y1="0" x2="902.1" y2="1000" stroke="#ffcc00" stroke-opacity=".055" stroke-width="1.2"/><path d="M80,30 L30,30 L30,80" stroke="#ffcc00" stroke-opacity=".45" stroke-width="2" fill="none" filter="url(#glowr1x3705)"/><path d="M920,30 L970,30 L970,80" stroke="#ffcc00" stroke-opacity=".45" stroke-width="2" fill="none" filter="url(#glowr1x3705)"/><path d="M30,920 L30,970 L80,970" stroke="#ffcc00" stroke-opacity=".45" stroke-width="2" fill="none" filter="url(#glowr1x3705)"/><path d="M970,920 L970,970 L920,970" stroke="#ffcc00" stroke-opacity=".45" stroke-width="2" fill="none" filter="url(#glowr1x3705)"/><ellipse cx="500.0" cy="892.0" rx="350.0" ry="65.0" fill="rgba(0,0,0,.7)" filter="url(#bloomr1x3705)"/><ellipse cx="500.0" cy="889.0" rx="220.0" ry="34.0" fill="rgba(0,0,0,.45)"/><ellipse cx="500.0" cy="520.0" rx="320.0" ry="480.0" fill="#ffffff" fill-opacity=".042" filter="url(#bloomr1x3705)"/><circle cx="495.5" cy="522.6" r="1.6" fill="#ffffff" fill-opacity="0.46" filter="url(#glowr1x3705)"/><circle cx="634.9" cy="324.7" r="1.4" fill="#ffffff" fill-opacity="0.43" filter="url(#glowr1x3705)"/><circle cx="623.6" cy="441.5" r="3.7" fill="#ffffff" fill-opacity="0.58" filter="url(#glowr1x3705)"/><circle cx="481.0" cy="585.9" r="2.2" fill="#ffffff" fill-opacity="0.71" filter="url(#glowr1x3705)"/><circle cx="579.8" cy="524.5" r="2.8" fill="#ffffff" fill-opacity="0.52" filter="url(#glowr1x3705)"/><circle cx="476.2" cy="492.4" r="4.0" fill="#ffffff" fill-opacity="0.85" filter="url(#glowr1x3705)"/><circle cx="375.4" cy="585.1" r="3.6" fill="#ffffff" fill-opacity="0.72" filter="url(#glowr1x3705)"/><circle cx="306.4" cy="593.7" r="3.6" fill="#ffffff" fill-opacity="0.46" filter="url(#glowr1x3705)"/><circle cx="549.9" cy="193.9" r="3.4" fill="#ffffff" fill-opacity="0.51" filter="url(#glowr1x3705)"/><circle cx="444.5" cy="340.4" r="2.4" fill="#ffffff" fill-opacity="0.70" filter="url(#glowr1x3705)"/><circle cx="339.5" cy="629.2" r="3.0" fill="#ffffff" fill-opacity="0.85" filter="url(#glowr1x3705)"/><circle cx="575.2" cy="505.0" r="2.3" fill="#ffffff" fill-opacity="0.53" filter="url(#glowr1x3705)"/><circle cx="641.9" cy="541.1" r="4.1" fill="#ffffff" fill-opacity="0.46" filter="url(#glowr1x3705)"/><circle cx="259.2" cy="440.6" r="3.6" fill="#ffffff" fill-opacity="0.63" filter="url(#glowr1x3705)"/><polygon points="397.7,663.4 489.8,661.5 481.5,878.8 386.6,878.6" fill="url(#suitr1x3705)" stroke="#ffcc00" stroke-width="2.2" filter="url(#skr1x3705) url(#metalr1x3705)"/><polygon points="400.3,661.8 490.8,663.8 480.0,878.3 385.6,878.8" fill="url(#carbonr1x3705)"/><polygon points="392.9,722.7 492.4,722.6 483.0,789.0 383.9,789.4" fill="url(#bevelr1x3705)" fill-opacity=".5" stroke="#ffcc00" stroke-width="1.4" filter="url(#skr1x3705)"/><polygon points="509.0,663.2 599.8,662.2 614.2,876.8 518.2,876.5" fill="url(#suitr1x3705)" stroke="#ffcc00" stroke-width="2.2" filter="url(#skr1x3705) url(#metalr1x3705)"/><polygon points="512.0,661.4 600.0,661.1 611.3,875.7 518.6,877.0" fill="url(#carbonr1x3705)"/><polygon points="506.9,724.8 605.7,725.1 617.2,788.2 514.3,787.3" fill="url(#bevelr1x3705)" fill-opacity=".5" stroke="#ffcc00" stroke-width="1.4" filter="url(#skr1x3705)"/><rect x="393.5" y="838.8" width="100.3" height="24.7" fill="url(#bevelr1x3705)" stroke="#ffcc00" stroke-width="1" filter="url(#skr1x3705)"/><rect x="506.6"  y="839.0" width="100.3" height="24.7" fill="url(#bevelr1x3705)" stroke="#ffcc00" stroke-width="1" filter="url(#skr1x3705)"/><polygon points="368.8,877.3 496.8,876.9 502.9,922.6 362.3,921.1" fill="#a07000" stroke="#ffcc00" stroke-width="2" filter="url(#skr1x3705)"/><polygon points="502.4,877.1 629.0,876.4 639.1,920.3 497.0,919.8" fill="#a07000" stroke="#ffcc00" stroke-width="2" filter="url(#skr1x3705)"/><polygon points="302.7,632.1 696.1,632.9 637.7,681.9 362.2,683.1" fill="#ffcc00" fill-opacity=".52" stroke="#ffcc00" stroke-width="2" filter="url(#skr1x3705)"/><rect x="462.3" y="639.0" width="72.0" height="42.0" fill="url(#bevelr1x3705)" stroke="#ffcc00" stroke-width="1.4" filter="url(#glowr1x3705)"/><rect x="487.0" y="640.1" width="28.0" height="22.0" rx="1" fill="rgba(255,255,255,.48)"/><polygon points="153.4,467.1 236.6,466.0 256.7,736.8 127.9,735.3" fill="url(#suitr1x3705)" stroke="#ffcc00" stroke-width="2.2" filter="url(#skr1x3705) url(#metalr1x3705)"/><polygon points="174.3,432.0 253.9,431.7 241.9,511.9 160.9,509.8" fill="url(#bevelr1x3705)" fill-opacity=".72" stroke="#ffcc00" stroke-width="2.2" filter="url(#skr1x3705)"/><polygon points="159.4,622.6 243.5,620.5 238.6,661.5 164.1,660.5" fill="#ffcc00" fill-opacity=".42" stroke="#ffcc00" stroke-width="1" filter="url(#skr1x3705)"/><polygon points="766.6,468.1 846.7,464.9 870.0,734.4 742.7,734.2" fill="url(#suitr1x3705)" stroke="#ffcc00" stroke-width="2.2" filter="url(#skr1x3705) url(#metalr1x3705)"/><polygon points="745.4,431.0 828.3,433.9 840.2,509.7 755.2,508.9" fill="url(#bevelr1x3705)" fill-opacity=".72" stroke="#ffcc00" stroke-width="2.2" filter="url(#skr1x3705)"/><polygon points="756.8,622.5 839.8,622.3 833.9,659.2 761.8,660.6" fill="#ffcc00" fill-opacity=".42" stroke="#ffcc00" stroke-width="1" filter="url(#skr1x3705)"/><rect x="119.9"  y="701.2" width="135.3" height="85.0" rx="4" fill="url(#bevelr1x3705)" stroke="#ffcc00" stroke-width="1.8" filter="url(#skr1x3705)"/><rect x="748.0"   y="700.3" width="135.3" height="85.0" rx="4" fill="url(#bevelr1x3705)" stroke="#ffcc00" stroke-width="1.8" filter="url(#skr1x3705)"/><line x1="151.0" y1="701.3" x2="150.4" y2="783.2" stroke="#ffcc00" stroke-opacity=".38" stroke-width="1"/><line x1="779.7" y1="701.6" x2="779.0" y2="784.0" stroke="#ffcc00" stroke-opacity=".38" stroke-width="1"/><line x1="181.7" y1="701.8" x2="184.0" y2="784.7" stroke="#ffcc00" stroke-opacity=".38" stroke-width="1"/><line x1="810.6" y1="702.3" x2="809.9" y2="782.8" stroke="#ffcc00" stroke-opacity=".38" stroke-width="1"/><line x1="215.1" y1="701.6" x2="216.0" y2="783.8" stroke="#ffcc00" stroke-opacity=".38" stroke-width="1"/><line x1="844.7" y1="701.0" x2="842.1" y2="782.1" stroke="#ffcc00" stroke-opacity=".38" stroke-width="1"/><polygon points="235.0,416.4 766.7,418.8 721.6,661.1 275.8,660.9" fill="url(#suitr1x3705)" stroke="#ffcc00" stroke-width="2.6" filter="url(#skr1x3705) url(#metalr1x3705)"/><polygon points="236.1,418.8 766.3,418.7 722.5,661.5 276.7,661.3" fill="url(#carbonr1x3705)"/><polygon points="368.8,418.2 634.1,418.1 612.8,515.6 388.1,514.1" fill="url(#suitHir1x3705)"/><line x1="362.1" y1="470.3" x2="639.4" y2="472.2" stroke="#ffcc00" stroke-opacity=".52" stroke-width="1.3" filter="url(#skr1x3705)"/><line x1="400.1" y1="549.2" x2="601.1" y2="550.6" stroke="#ffcc00" stroke-opacity=".52" stroke-width="1.3" filter="url(#skr1x3705)"/><line x1="267.2" y1="492.7" x2="318.2" y2="491.4" stroke="#ffcc00" stroke-opacity=".62" stroke-width="1.8"/><line x1="681.2" y1="492.3" x2="732.8" y2="489.2" stroke="#ffcc00" stroke-opacity=".62" stroke-width="1.8"/><line x1="267.4" y1="523.0" x2="320.9" y2="523.4" stroke="#ffcc00" stroke-opacity=".62" stroke-width="1.8"/><line x1="679.6" y1="524.6" x2="733.0" y2="523.3" stroke="#ffcc00" stroke-opacity=".62" stroke-width="1.8"/><line x1="266.1" y1="555.8" x2="320.6" y2="555.8" stroke="#ffcc00" stroke-opacity=".62" stroke-width="1.8"/><line x1="679.7" y1="554.4" x2="733.3" y2="556.0" stroke="#ffcc00" stroke-opacity=".62" stroke-width="1.8"/><line x1="267.0" y1="585.7" x2="319.8" y2="585.3" stroke="#ffcc00" stroke-opacity=".62" stroke-width="1.8"/><line x1="679.5" y1="588.2" x2="734.5" y2="588.1" stroke="#ffcc00" stroke-opacity=".62" stroke-width="1.8"/><g filter="url(#glowr1x3705)"><polygon points="483.3,452.2 511.5,507.2 499.7,505.4 518.2,570.1 487.3,515.3 501.1,516.7" fill="#ffcc00" stroke="#000a14" stroke-width="1.4" filter="url(#skr1x3705)"/><polygon points="482.8,451.1 511.6,506.3 500.2,505.2 516.9,569.7 486.9,514.3 498.2,513.9" fill="url(#suitHir1x3705)" opacity=".4"/></g><g><rect x="34.02533505702388" y="422.46324439803135" width="148.0" height="82.0" rx="5" fill="url(#gunmetalr1x3705)" stroke="#ffcc00" stroke-width="2" filter="url(#wmr1x3705)"/><rect x="35.39765345253047" y="422.0420945449732" width="148.0" height="82.0" rx="5" fill="url(#carbonr1x3705)"/><rect x="43.54173819370565" y="403.5194119713269" width="90.0" height="22.0" rx="3" fill="url(#barrelr1x3705)" stroke="#ffcc00" stroke-width="1" filter="url(#wmr1x3705)"/><circle cx="81.89608122766015" cy="415.2985963555984" r="15.0" fill="#ffcc00" opacity=".8" filter="url(#glowr1x3705)"/><circle cx="81.36296256095167" cy="413.9546611394733" r="6.0" fill="rgba(255,255,255,.9)"/><rect x="54.50367161625993" y="457.1158307690173" width="78.0" height="36.0" rx="5" fill="url(#barrelr1x3705)" stroke="#ffcc00" stroke-width="1.2" filter="url(#wmr1x3705)"/><circle cx="-20.87370461072776" cy="472.0155927055515" r="18.0" fill="#ffcc00" filter="url(#glowr1x3705)" opacity=".88"/><circle cx="-21.352841002177477" cy="472.0270090630278" r="7.0" fill="#ffffff"/><rect x="78.56800911681724" y="500.0331742949784" width="44.0" height="42.0" rx="3" fill="url(#gunmetalr1x3705)" stroke="#ffcc00" stroke-width="1" filter="url(#wmr1x3705)"/><rect x="37.99055224921551" y="424.5973081179894" width="90.0" height="10.0" rx="2" fill="rgba(255,255,255,.22)"/><line x1="62.75277623137456" y1="487.0497418682091" x2="60.99186932802197" y2="518.4106177172623" stroke="#ffcc00" stroke-opacity=".5" stroke-width="1.2"/><line x1="79.83771015837786" y1="486.5099205581471" x2="78.03432598844168" y2="518.0803035253658" stroke="#ffcc00" stroke-opacity=".5" stroke-width="1.2"/><line x1="93.05507179064674" y1="485.1221659466624" x2="93.2653377258591" y2="520.4035657377914" stroke="#ffcc00" stroke-opacity=".5" stroke-width="1.2"/></g><rect x="451.50218905666844" y="558.4986930301412" width="100.0"  height="56.0" fill="#a07000" stroke="#ffcc00" stroke-width="2.2" filter="url(#skr1x3705)"/><rect x="423.6684372113086" y="576.0658007250167" width="152.0" height="26.0" fill="url(#bevelr1x3705)" fill-opacity=".65" stroke="#ffcc00" stroke-width="1.2" filter="url(#skr1x3705)"/><polygon points="306.9,379.6 350.9,295.8 501.6,278.2 650.6,294.0 693.2,380.0 670.2,503.4 500.2,566.3 332.7,502.6" fill="url(#suitr1x3705)" stroke="#ffcc00" stroke-width="2.8" filter="url(#skr1x3705) url(#metalr1x3705)"/><polygon points="307.7,378.9 350.7,294.0 500.1,278.3 648.0,294.1 690.3,380.9 668.0,501.8 500.6,565.5 332.1,502.4" fill="url(#carbonr1x3705)"/><polygon points="379.4,303.3 499.2,287.5 617.6,302.6 608.9,380.0 394.0,381.5" fill="url(#suitHir1x3705)"/><polygon points="381.9,382.4 363.8,425.8 432.0,503.6 499.5,528.3 565.9,504.4 634.8,427.5 617.8,379.9" fill="#000a14" fill-opacity=".88" stroke="#ffcc00" stroke-width="1.8" filter="url(#skr1x3705)"/><polygon points="379.4,410.3 477.5,412.2 485.2,440.0 387.8,441.3" fill="#ffcc00" filter="url(#glowr1x3705)"/><polygon points="522.5,411.2 617.5,410.7 611.2,438.7 514.7,440.6" fill="#ffcc00" filter="url(#glowr1x3705)"/><ellipse cx="430.9" cy="425.7" rx="38.4"  ry="8.2" fill="#ffffff" opacity=".88"/><ellipse cx="569.1" cy="425.7" rx="38.4"  ry="8.2" fill="#ffffff" opacity=".88"/><line x1="485.29453652050347" y1="415.0571458621882" x2="513.7784842261486" y2="412.8903662952594" stroke="#ffcc00" stroke-opacity=".52" stroke-width="2"/><line x1="486.2779871776327" y1="438.8087605859153" x2="516.4689733937755" y2="437.6750299368985" stroke="#ffcc00" stroke-opacity=".52" stroke-width="2"/><line x1="500.24816888459026" y1="452.69256647555153" x2="498.3686460518278" y2="484.35200993856415" stroke="#ffcc00" stroke-opacity=".58" stroke-width="2.2" filter="url(#skr1x3705)"/><line x1="453.5888909262419" y1="492.0244080368429" x2="453.5435818236135" y2="520.4826675824821" stroke="#ffcc00" stroke-opacity=".52" stroke-width="1.5" filter="url(#skr1x3705)"/><line x1="476.8736032698676" y1="492.82958647562185" x2="478.00512702999634" y2="519.7343911644072" stroke="#ffcc00" stroke-opacity=".52" stroke-width="1.5" filter="url(#skr1x3705)"/><line x1="500.6376894290559" y1="490.39720957474776" x2="500.6563612901606" y2="518.7672892065718" stroke="#ffcc00" stroke-opacity=".52" stroke-width="1.5" filter="url(#skr1x3705)"/><line x1="522.9567081933468" y1="491.96565778972575" x2="522.1501990033872" y2="521.0392087106593" stroke="#ffcc00" stroke-opacity=".52" stroke-width="1.5" filter="url(#skr1x3705)"/><line x1="547.6220176192187" y1="492.6618026676587" x2="545.4076146223769" y2="520.9405173697509" stroke="#ffcc00" stroke-opacity=".52" stroke-width="1.5" filter="url(#skr1x3705)"/><polygon points="433.9,502.7 566.7,502.9 552.6,557.4 446.9,556.7" fill="#a07000" fill-opacity=".72" stroke="#ffcc00" stroke-width="1.3" filter="url(#skr1x3705)"/><text x="30.0"  y="975.0" font-family="monospace" font-weight="bold" font-size="22.0" fill="rgba(255,255,255,.22)">#0001</text><text x="500.0"   y="975.0" text-anchor="middle" font-family="monospace" font-weight="bold" font-size="22.0" fill="#ffcc00" fill-opacity=".48">NOVA RANGER</text><text x="970.0" y="975.0" text-anchor="end"    font-family="monospace" font-weight="bold" font-size="22.0" fill="#ffcc00" fill-opacity=".32">MECH RANGERS</text></svg>