<svg xmlns="http://www.w3.org/2000/svg" viewBox="0 0 1000 1000" width="1000" height="1000" shape-rendering="geometricPrecision"><defs>

  <!-- Scene gradients -->
  <radialGradient id="bgr1x379" cx="50%" cy="42%" r="72%">
    <stop offset="0%"   stop-color="#1e0a2e"/>
    <stop offset="100%" stop-color="#0a0520"/>
  </radialGradient>
  <linearGradient id="suitr1x379" x1="8%" y1="0%" x2="92%" y2="100%">
    <stop offset="0%"   stop-color="#ff2040" stop-opacity=".95"/>
    <stop offset="45%"  stop-color="#cc0020"/>
    <stop offset="100%" stop-color="#0a0520"/>
  </linearGradient>
  <linearGradient id="suitHir1x379" x1="0%" y1="0%" x2="0%" y2="100%">
    <stop offset="0%"   stop-color="rgba(255,255,255,.28)"/>
    <stop offset="60%"  stop-color="rgba(255,255,255,.04)"/>
    <stop offset="100%" stop-color="rgba(255,255,255,0)"/>
  </linearGradient>
  <!-- Bevel: bright top, dark bottom for armour panels -->
  <linearGradient id="bevelr1x379" x1="0%" y1="0%" x2="0%" y2="100%">
    <stop offset="0%"   stop-color="rgba(255,255,255,.55)"/>
    <stop offset="30%"  stop-color="#ff2040"/>
    <stop offset="70%"  stop-color="#cc0020"/>
    <stop offset="100%" stop-color="rgba(0,0,0,.5)"/>
  </linearGradient>

  <!-- Weapon: cold steel blade sweep -->
  <linearGradient id="blader1x379" x1="0%" y1="0%" x2="100%" y2="0%">
    <stop offset="0%"   stop-color="#0e0e20"/>
    <stop offset="16%"  stop-color="#3e3e58"/>
    <stop offset="34%"  stop-color="#c8c8e0"/>
    <stop offset="50%"  stop-color="#f5f5ff"/>
    <stop offset="66%"  stop-color="#b8b8d0"/>
    <stop offset="84%"  stop-color="#2e2e48"/>
    <stop offset="100%" stop-color="#08080e"/>
  </linearGradient>
  <!-- Blade tip brightening -->
  <linearGradient id="bladeTipr1x379" x1="0%" y1="100%" x2="0%" y2="0%">
    <stop offset="0%"   stop-color="rgba(255,255,255,0)"/>
    <stop offset="55%"  stop-color="rgba(255,255,255,.1)"/>
    <stop offset="100%" stop-color="rgba(255,255,255,.55)"/>
  </linearGradient>
  <!-- Gunmetal anodised — blaster body -->
  <linearGradient id="gunmetalr1x379" x1="0%" y1="0%" x2="0%" y2="100%">
    <stop offset="0%"   stop-color="#46465e"/>
    <stop offset="18%"  stop-color="#828296"/>
    <stop offset="42%"  stop-color="#26263a"/>
    <stop offset="72%"  stop-color="#16162a"/>
    <stop offset="100%" stop-color="#0c0c18"/>
  </linearGradient>
  <!-- Brushed steel tube — barrel/rod -->
  <linearGradient id="barrelr1x379" x1="0%" y1="0%" x2="100%" y2="0%">
    <stop offset="0%"   stop-color="#0a0a14"/>
    <stop offset="24%"  stop-color="#585875"/>
    <stop offset="50%"  stop-color="#a8a8c8"/>
    <stop offset="76%"  stop-color="#383852"/>
    <stop offset="100%" stop-color="#0a0a14"/>
  </linearGradient>
  <!-- Chrome rod — lance shaft -->
  <linearGradient id="chromer1x379" x1="0%" y1="0%" x2="100%" y2="0%">
    <stop offset="0%"   stop-color="#0c0c18"/>
    <stop offset="20%"  stop-color="#686888"/>
    <stop offset="44%"  stop-color="#e0e0f0"/>
    <stop offset="56%"  stop-color="#c0c0d8"/>
    <stop offset="80%"  stop-color="#28283e"/>
    <stop offset="100%" stop-color="#0c0c18"/>
  </linearGradient>
  <!-- Titanium plate — shield face -->
  <linearGradient id="titaniumr1x379" x1="0%" y1="0%" x2="100%" y2="100%">
    <stop offset="0%"   stop-color="#585878"/>
    <stop offset="28%"  stop-color="#ff2040" stop-opacity=".88"/>
    <stop offset="55%"  stop-color="#cc0020"/>
    <stop offset="80%"  stop-color="#181828"/>
    <stop offset="100%" stop-color="#0a0a18"/>
  </linearGradient>
  <!-- Artillery black-chrome — cannon body -->
  <linearGradient id="artilleryr1x379" x1="0%" y1="0%" x2="0%" y2="100%">
    <stop offset="0%"   stop-color="#383850"/>
    <stop offset="14%"  stop-color="#78789a"/>
    <stop offset="36%"  stop-color="#202034"/>
    <stop offset="65%"  stop-color="#14141e"/>
    <stop offset="100%" stop-color="#0a0a12"/>
  </linearGradient>
  <!-- Energy orb — staff -->
  <radialGradient id="orbr1x379" cx="35%" cy="35%" r="65%">
    <stop offset="0%"   stop-color="rgba(255,255,255,.9)"/>
    <stop offset="30%"  stop-color="#ff2040"/>
    <stop offset="68%"  stop-color="#cc0020"/>
    <stop offset="100%" stop-color="rgba(0,0,0,.6)"/>
  </radialGradient>
  <!-- Knuckle plate chrome -->
  <linearGradient id="knuckler1x379" x1="0%" y1="0%" x2="0%" y2="100%">
    <stop offset="0%"   stop-color="#888aaa"/>
    <stop offset="32%"  stop-color="#ff2040" stop-opacity=".8"/>
    <stop offset="62%"  stop-color="#1a1a2c"/>
    <stop offset="100%" stop-color="#0a0a14"/>
  </linearGradient>

  <!-- Carbon fibre weave texture overlay -->
  <pattern id="carbonr1x379" width="6" height="6" patternUnits="userSpaceOnUse">
    <rect width="6" height="6" fill="rgba(0,0,0,.08)"/>
    <rect x="0" y="0" width="3" height="3" fill="rgba(255,255,255,.022)"/>
    <rect x="3" y="3" width="3" height="3" fill="rgba(255,255,255,.022)"/>
    <line x1="0" y1="0" x2="3" y2="3" stroke="rgba(255,255,255,.038)" stroke-width=".5"/>
    <line x1="3" y1="0" x2="6" y2="3" stroke="rgba(0,0,0,.055)"       stroke-width=".5"/>
    <line x1="0" y1="3" x2="3" y2="6" stroke="rgba(0,0,0,.055)"       stroke-width=".5"/>
    <line x1="3" y1="3" x2="6" y2="6" stroke="rgba(255,255,255,.038)" stroke-width=".5"/>
  </pattern>

  <!-- Specular metal sheen on armour panels -->
  <filter id="metalr1x379" x="-5%" y="-5%" width="110%" height="110%">
    <feSpecularLighting surfaceScale="4" specularConstant="1.8"
        specularExponent="42" lighting-color="#ffffff" result="spec">
      <feDistantLight elevation="52" azimuth="38"/>
    </feSpecularLighting>
    <feComposite in="spec" in2="SourceGraphic" operator="in" result="sm"/>
    <feComposite in="SourceGraphic" in2="sm" operator="arithmetic" k1="0" k2="1" k3="0.55" k4="0"/>
  </filter>

  <!-- Sharper specular for weapons — heavier glare -->
  <filter id="wmr1x379" x="-8%" y="-8%" width="116%" height="116%">
    <feSpecularLighting surfaceScale="6" specularConstant="2.4"
        specularExponent="65" lighting-color="#ffffff" result="spec">
      <feDistantLight elevation="44" azimuth="28"/>
    </feSpecularLighting>
    <feComposite in="spec" in2="SourceGraphic" operator="in" result="sm"/>
    <feComposite in="SourceGraphic" in2="sm" operator="arithmetic" k1="0" k2="1" k3="0.78" k4="0"/>
  </filter>

  <!-- Sketch wobble -->
  <filter id="skr1x379" x="-8%" y="-8%" width="116%" height="116%">
    <feTurbulence type="fractalNoise" baseFrequency="0.038"
        numOctaves="3" seed="98" result="noise"/>
    <feDisplacementMap in="SourceGraphic" in2="noise" scale="2.6"
        xChannelSelector="R" yChannelSelector="G" result="w"/>
    <feComposite in="w" in2="SourceGraphic" operator="atop"/>
  </filter>

  <!-- Glow: sharp accent -->
  <filter id="glowr1x379" x="-20%" y="-20%" width="140%" height="140%">
    <feGaussianBlur stdDeviation="3.5" result="b"/>
    <feColorMatrix in="b" type="matrix"
        values="0 0 0 0 1  0 0 0 0 1  0 0 0 0 1  0 0 0 1.8 0" result="boost"/>
    <feMerge><feMergeNode in="boost"/><feMergeNode in="SourceGraphic"/></feMerge>
  </filter>

  <!-- Bloom: wide soft -->
  <filter id="bloomr1x379" x="-40%" y="-40%" width="180%" height="180%">
    <feGaussianBlur stdDeviation="11" result="b"/>
    <feMerge><feMergeNode in="b"/><feMergeNode in="SourceGraphic"/></feMerge>
  </filter>

  </defs><rect width="1000" height="1000" fill="url(#bgr1x379)"/><ellipse cx="500.0" cy="892.0" rx="350.0" ry="65.0" fill="rgba(0,0,0,.7)" filter="url(#bloomr1x379)"/><ellipse cx="500.0" cy="889.0" rx="220.0" ry="34.0" fill="rgba(0,0,0,.45)"/><ellipse cx="500.0" cy="520.0" rx="320.0" ry="480.0" fill="#ff00ff" fill-opacity=".042" filter="url(#bloomr1x379)"/><circle cx="478.9" cy="578.0" r="2.1" fill="#ff00ff" fill-opacity="0.42" filter="url(#glowr1x379)"/><circle cx="409.6" cy="266.7" r="2.1" fill="#ff00ff" fill-opacity="0.75" filter="url(#glowr1x379)"/><circle cx="571.5" cy="308.1" r="1.3" fill="#ff00ff" fill-opacity="0.79" filter="url(#glowr1x379)"/><circle cx="279.9" cy="303.2" r="1.3" fill="#ff00ff" fill-opacity="0.70" filter="url(#glowr1x379)"/><circle cx="558.1" cy="433.9" r="3.5" fill="#ff00ff" fill-opacity="0.63" filter="url(#glowr1x379)"/><circle cx="725.0" cy="627.7" r="3.0" fill="#ff00ff" fill-opacity="0.41" filter="url(#glowr1x379)"/><circle cx="304.0" cy="655.7" r="1.8" fill="#ff00ff" fill-opacity="0.64" filter="url(#glowr1x379)"/><circle cx="351.6" cy="370.8" r="2.1" fill="#ff00ff" fill-opacity="0.52" filter="url(#glowr1x379)"/><circle cx="343.7" cy="263.2" r="0.6" fill="#ff00ff" fill-opacity="0.53" filter="url(#glowr1x379)"/><circle cx="489.8" cy="686.8" r="2.2" fill="#ff00ff" fill-opacity="0.66" filter="url(#glowr1x379)"/><circle cx="306.2" cy="327.4" r="2.7" fill="#ff00ff" fill-opacity="0.73" filter="url(#glowr1x379)"/><circle cx="318.4" cy="366.7" r="0.6" fill="#ff00ff" fill-opacity="0.75" filter="url(#glowr1x379)"/><circle cx="530.6" cy="722.9" r="4.1" fill="#ff00ff" fill-opacity="0.66" filter="url(#glowr1x379)"/><circle cx="573.3" cy="441.0" r="1.6" fill="#ff00ff" fill-opacity="0.88" filter="url(#glowr1x379)"/><path d="M638.0,319.1 Q672.3,458.7 534.3,650.9" stroke="#ff00ff" stroke-opacity="0.49" stroke-width="1.0" fill="none" filter="url(#glowr1x379)"/><path d="M591.5,336.1 Q548.7,611.6 495.0,842.9" stroke="#ff00ff" stroke-opacity="0.78" stroke-width="1.6" fill="none" filter="url(#glowr1x379)"/><path d="M428.0,304.6 Q420.0,524.5 652.2,744.2" stroke="#ff00ff" stroke-opacity="0.55" stroke-width="2.4" fill="none" filter="url(#glowr1x379)"/><path d="M381.0,362.1 Q404.3,561.1 324.1,787.9" stroke="#ff00ff" stroke-opacity="0.75" stroke-width="2.3" fill="none" filter="url(#glowr1x379)"/><path d="M401.8,148.1 Q369.4,515.8 436.1,836.3" stroke="#ff00ff" stroke-opacity="0.80" stroke-width="2.1" fill="none" filter="url(#glowr1x379)"/><polygon points="398.3,661.6 490.2,662.7 481.5,877.1 388.9,879.1" fill="url(#suitr1x379)" stroke="#ff2040" stroke-width="2.2" filter="url(#skr1x379) url(#metalr1x379)"/><polygon points="399.3,661.7 489.3,662.4 480.5,876.1 388.1,877.7" fill="url(#carbonr1x379)"/><polygon points="391.0,725.1 494.0,724.1 485.1,787.5 383.2,787.9" fill="url(#bevelr1x379)" fill-opacity=".5" stroke="#ff2040" stroke-width="1.4" filter="url(#skr1x379)"/><polygon points="512.2,663.5 601.2,664.3 612.8,877.3 520.2,878.9" fill="url(#suitr1x379)" stroke="#ff2040" stroke-width="2.2" filter="url(#skr1x379) url(#metalr1x379)"/><polygon points="509.3,663.9 602.5,664.0 612.3,879.2 519.7,875.7" fill="url(#carbonr1x379)"/><polygon points="505.6,722.0 607.6,724.0 617.4,786.8 516.8,786.6" fill="url(#bevelr1x379)" fill-opacity=".5" stroke="#ff2040" stroke-width="1.4" filter="url(#skr1x379)"/><rect x="391.1" y="840.4" width="100.3" height="24.7" fill="url(#bevelr1x379)" stroke="#ff2040" stroke-width="1" filter="url(#skr1x379)"/><rect x="505.5"  y="837.2" width="100.3" height="24.7" fill="url(#bevelr1x379)" stroke="#ff2040" stroke-width="1" filter="url(#skr1x379)"/><polygon points="371.3,875.8 496.3,876.1 502.6,920.2 364.0,922.5" fill="#cc0020" stroke="#ff2040" stroke-width="2" filter="url(#skr1x379)"/><polygon points="502.8,876.9 631.0,877.1 638.9,920.6 496.0,920.9" fill="#cc0020" stroke="#ff2040" stroke-width="2" filter="url(#skr1x379)"/><polygon points="305.1,634.2 696.4,633.9 638.5,683.7 361.6,680.7" fill="#ff2040" fill-opacity=".52" stroke="#ff2040" stroke-width="2" filter="url(#skr1x379)"/><rect x="464.1" y="638.0" width="72.0" height="42.0" fill="url(#bevelr1x379)" stroke="#ff2040" stroke-width="1.4" filter="url(#glowr1x379)"/><rect x="485.2" y="641.4" width="28.0" height="22.0" rx="1" fill="rgba(255,255,255,.48)"/><polygon points="151.6,466.8 235.5,465.2 257.4,735.4 127.2,736.2" fill="url(#suitr1x379)" stroke="#ff2040" stroke-width="2.2" filter="url(#skr1x379) url(#metalr1x379)"/><polygon points="172.4,430.6 253.4,430.5 244.7,508.9 160.1,510.0" fill="url(#bevelr1x379)" fill-opacity=".72" stroke="#ff2040" stroke-width="2.2" filter="url(#skr1x379)"/><polygon points="162.0,622.6 242.0,622.7 239.6,659.5 165.3,662.6" fill="#ff2040" fill-opacity=".42" stroke="#ff2040" stroke-width="1" filter="url(#skr1x379)"/><polygon points="765.7,467.7 846.7,467.2 870.4,733.3 743.8,734.8" fill="url(#suitr1x379)" stroke="#ff2040" stroke-width="2.2" filter="url(#skr1x379) url(#metalr1x379)"/><polygon points="748.5,433.2 827.0,433.8 842.0,512.1 755.2,510.4" fill="url(#bevelr1x379)" fill-opacity=".72" stroke="#ff2040" stroke-width="2.2" filter="url(#skr1x379)"/><polygon points="756.1,620.4 839.3,623.7 834.2,662.1 761.4,660.6" fill="#ff2040" fill-opacity=".42" stroke="#ff2040" stroke-width="1" filter="url(#skr1x379)"/><rect x="119.0"  y="700.4" width="135.3" height="85.0" rx="4" fill="url(#bevelr1x379)" stroke="#ff2040" stroke-width="1.8" filter="url(#skr1x379)"/><rect x="748.2"   y="700.0" width="135.3" height="85.0" rx="4" fill="url(#bevelr1x379)" stroke="#ff2040" stroke-width="1.8" filter="url(#skr1x379)"/><line x1="148.1" y1="702.3" x2="148.1" y2="785.4" stroke="#ff2040" stroke-opacity=".38" stroke-width="1"/><line x1="778.6" y1="700.8" x2="778.3" y2="785.1" stroke="#ff2040" stroke-opacity=".38" stroke-width="1"/><line x1="182.3" y1="701.3" x2="183.1" y2="784.7" stroke="#ff2040" stroke-opacity=".38" stroke-width="1"/><line x1="810.3" y1="700.7" x2="811.2" y2="784.6" stroke="#ff2040" stroke-opacity=".38" stroke-width="1"/><line x1="216.9" y1="701.7" x2="215.4" y2="782.7" stroke="#ff2040" stroke-opacity=".38" stroke-width="1"/><line x1="845.1" y1="700.4" x2="844.9" y2="784.3" stroke="#ff2040" stroke-opacity=".38" stroke-width="1"/><polygon points="235.2,419.0 765.5,417.5 723.7,660.9 279.1,662.6" fill="url(#suitr1x379)" stroke="#ff2040" stroke-width="2.6" filter="url(#skr1x379) url(#metalr1x379)"/><polygon points="234.8,417.9 766.5,417.8 723.0,663.2 278.7,663.1" fill="url(#carbonr1x379)"/><polygon points="366.7,416.9 631.9,419.0 611.1,517.0 389.5,514.1" fill="url(#suitHir1x379)"/><line x1="363.4" y1="471.8" x2="638.9" y2="469.7" stroke="#ff2040" stroke-opacity=".52" stroke-width="1.3" filter="url(#skr1x379)"/><line x1="399.1" y1="549.1" x2="601.2" y2="549.6" stroke="#ff2040" stroke-opacity=".52" stroke-width="1.3" filter="url(#skr1x379)"/><line x1="265.5" y1="489.3" x2="320.1" y2="490.2" stroke="#ff2040" stroke-opacity=".62" stroke-width="1.8"/><line x1="679.1" y1="490.5" x2="734.2" y2="490.1" stroke="#ff2040" stroke-opacity=".62" stroke-width="1.8"/><line x1="267.4" y1="523.2" x2="321.1" y2="521.1" stroke="#ff2040" stroke-opacity=".62" stroke-width="1.8"/><line x1="680.5" y1="523.4" x2="734.7" y2="522.4" stroke="#ff2040" stroke-opacity=".62" stroke-width="1.8"/><line x1="267.2" y1="553.4" x2="321.5" y2="556.3" stroke="#ff2040" stroke-opacity=".62" stroke-width="1.8"/><line x1="681.2" y1="553.4" x2="732.3" y2="553.0" stroke="#ff2040" stroke-opacity=".62" stroke-width="1.8"/><line x1="265.3" y1="588.2" x2="319.4" y2="587.7" stroke="#ff2040" stroke-opacity=".62" stroke-width="1.8"/><line x1="679.2" y1="586.9" x2="734.1" y2="586.6" stroke="#ff2040" stroke-opacity=".62" stroke-width="1.8"/><g filter="url(#glowr1x379)"><polygon points="482.0,453.9 511.6,507.0 501.4,505.7 516.7,568.9 486.7,514.7 500.2,514.5" fill="#ff2040" stroke="#0a0520" stroke-width="1.4" filter="url(#skr1x379)"/><polygon points="483.4,451.9 513.3,507.5 499.5,504.4 515.9,569.9 487.2,516.0 498.3,515.9" fill="url(#suitHir1x379)" opacity=".4"/></g><g><polygon points="33.3,292.3 173.5,295.0 171.8,591.8 103.7,726.1 31.5,590.8" fill="url(#titaniumr1x379)" stroke="#ff2040" stroke-width="2.6" filter="url(#wmr1x379)"/><polygon points="30.6,293.4 173.9,293.6 171.5,590.7 102.8,725.1 32.4,591.8" fill="url(#carbonr1x379)"/><polygon points="64.7,360.3 139.4,362.0 140.3,541.7 103.3,633.1 64.8,540.7" fill="#ff2040" fill-opacity=".28" stroke="#ff2040" stroke-width="1.5"/><line x1="49.68215988328677" y1="431.4813249520026" x2="155.35595896601674" y2="430.0490290747024" stroke="#ff2040" stroke-opacity=".65" stroke-width="1.3"/><line x1="101.77897449009117" y1="331.8100319684483" x2="102.73884148750452" y2="590.7382968659513" stroke="#ff2040" stroke-opacity=".4" stroke-width="1"/><line x1="33.04568675555286" y1="295.81604154584926" x2="171.11198397506024" y2="296.9156761315651" stroke="rgba(255,255,255,.5)" stroke-width="2"/><circle cx="100.82498063271862" cy="432.50922953216354" r="18.0" fill="url(#bevelr1x379)" stroke="#ff2040" stroke-width="1.2" filter="url(#wmr1x379)"/></g><rect x="450.65886863088235" y="556.5365067585371" width="100.0"  height="56.0" fill="#cc0020" stroke="#ff2040" stroke-width="2.2" filter="url(#skr1x379)"/><rect x="423.1273475206457" y="574.0899090384133" width="152.0" height="26.0" fill="url(#bevelr1x379)" fill-opacity=".65" stroke="#ff2040" stroke-width="1.2" filter="url(#skr1x379)"/><polygon points="308.1,381.7 351.1,294.5 501.5,278.5 648.3,294.7 693.1,380.7 669.3,504.5 501.1,566.0 331.6,504.3" fill="url(#suitr1x379)" stroke="#ff2040" stroke-width="2.8" filter="url(#skr1x379) url(#metalr1x379)"/><polygon points="308.0,380.5 352.0,295.5 499.1,276.3 650.5,295.2 690.3,380.3 667.7,504.3 501.4,566.3 329.4,504.5" fill="url(#carbonr1x379)"/><polygon points="379.7,302.2 499.2,286.8 620.7,302.6 608.7,381.4 391.5,380.3" fill="url(#suitHir1x379)"/><polygon points="379.5,380.1 364.7,424.0 431.8,503.8 498.7,526.8 565.4,504.7 634.0,425.0 618.2,379.7" fill="#0a0520" fill-opacity=".88" stroke="#ff2040" stroke-width="1.8" filter="url(#skr1x379)"/><polygon points="382.4,410.8 477.4,412.4 485.5,439.0 387.5,440.4" fill="#ff2040" filter="url(#glowr1x379)"/><polygon points="524.6,409.6 618.8,412.6 609.8,440.2 514.9,439.5" fill="#ff2040" filter="url(#glowr1x379)"/><ellipse cx="430.9" cy="425.7" rx="38.4"  ry="8.2" fill="#ffffff" opacity=".88"/><ellipse cx="569.1" cy="425.7" rx="38.4"  ry="8.2" fill="#ffffff" opacity=".88"/><line x1="484.01053286423905" y1="412.3092668973841" x2="516.1929475532286" y2="414.5883251854218" stroke="#ff2040" stroke-opacity=".52" stroke-width="2"/><line x1="484.38721916513515" y1="437.6766815498471" x2="515.9136910858006" y2="436.9480226878077" stroke="#ff2040" stroke-opacity=".52" stroke-width="2"/><line x1="501.353895608522" y1="454.8312817919999" x2="501.2272861313075" y2="484.0252176069655" stroke="#ff2040" stroke-opacity=".58" stroke-width="2.2" filter="url(#skr1x379)"/><line x1="455.0552466796525" y1="492.0457480496726" x2="453.4627000060678" y2="520.8601039815694" stroke="#ff2040" stroke-opacity=".52" stroke-width="1.5" filter="url(#skr1x379)"/><line x1="478.57250046128405" y1="490.4160791800357" x2="475.7625894199498" y2="519.7865669609979" stroke="#ff2040" stroke-opacity=".52" stroke-width="1.5" filter="url(#skr1x379)"/><line x1="499.99235420562326" y1="490.568747745268" x2="498.6404464190826" y2="521.4053449539467" stroke="#ff2040" stroke-opacity=".52" stroke-width="1.5" filter="url(#skr1x379)"/><line x1="522.9048528981023" y1="490.1523588358424" x2="524.0885766215249" y2="520.060968278069" stroke="#ff2040" stroke-opacity=".52" stroke-width="1.5" filter="url(#skr1x379)"/><line x1="544.7496819986217" y1="492.9766680028289" x2="545.9315511186794" y2="520.4683336320334" stroke="#ff2040" stroke-opacity=".52" stroke-width="1.5" filter="url(#skr1x379)"/><polygon points="431.7,503.4 567.7,505.0 555.3,558.3 444.5,555.5" fill="#cc0020" fill-opacity=".72" stroke="#ff2040" stroke-width="1.3" filter="url(#skr1x379)"/><text x="30.0"  y="975.0" font-family="monospace" font-weight="bold" font-size="22.0" fill="rgba(255,255,255,.22)">#0001</text><text x="500.0"   y="975.0" text-anchor="middle" font-family="monospace" font-weight="bold" font-size="22.0" fill="#ff2040" fill-opacity=".48">CRIMSON RANGER</text><text x="970.0" y="975.0" text-anchor="end"    font-family="monospace" font-weight="bold" font-size="22.0" fill="#ff2040" fill-opacity=".32">MECH RANGERS</text></svg>