<svg xmlns="http://www.w3.org/2000/svg" viewBox="0 0 1000 1000" width="1000" height="1000" shape-rendering="geometricPrecision"><defs>

  <!-- Scene gradients -->
  <radialGradient id="bgr1x3796" cx="50%" cy="42%" r="72%">
    <stop offset="0%"   stop-color="#1a2814"/>
    <stop offset="100%" stop-color="#0d1520"/>
  </radialGradient>
  <linearGradient id="suitr1x3796" x1="8%" y1="0%" x2="92%" y2="100%">
    <stop offset="0%"   stop-color="#00ff60" stop-opacity=".95"/>
    <stop offset="45%"  stop-color="#00441e"/>
    <stop offset="100%" stop-color="#0d1520"/>
  </linearGradient>
  <linearGradient id="suitHir1x3796" x1="0%" y1="0%" x2="0%" y2="100%">
    <stop offset="0%"   stop-color="rgba(255,255,255,.28)"/>
    <stop offset="60%"  stop-color="rgba(255,255,255,.04)"/>
    <stop offset="100%" stop-color="rgba(255,255,255,0)"/>
  </linearGradient>
  <!-- Bevel: bright top, dark bottom for armour panels -->
  <linearGradient id="bevelr1x3796" x1="0%" y1="0%" x2="0%" y2="100%">
    <stop offset="0%"   stop-color="rgba(255,255,255,.55)"/>
    <stop offset="30%"  stop-color="#00ff60"/>
    <stop offset="70%"  stop-color="#00441e"/>
    <stop offset="100%" stop-color="rgba(0,0,0,.5)"/>
  </linearGradient>

  <!-- Weapon: cold steel blade sweep -->
  <linearGradient id="blader1x3796" x1="0%" y1="0%" x2="100%" y2="0%">
    <stop offset="0%"   stop-color="#0e0e20"/>
    <stop offset="16%"  stop-color="#3e3e58"/>
    <stop offset="34%"  stop-color="#c8c8e0"/>
    <stop offset="50%"  stop-color="#f5f5ff"/>
    <stop offset="66%"  stop-color="#b8b8d0"/>
    <stop offset="84%"  stop-color="#2e2e48"/>
    <stop offset="100%" stop-color="#08080e"/>
  </linearGradient>
  <!-- Blade tip brightening -->
  <linearGradient id="bladeTipr1x3796" x1="0%" y1="100%" x2="0%" y2="0%">
    <stop offset="0%"   stop-color="rgba(255,255,255,0)"/>
    <stop offset="55%"  stop-color="rgba(255,255,255,.1)"/>
    <stop offset="100%" stop-color="rgba(255,255,255,.55)"/>
  </linearGradient>
  <!-- Gunmetal anodised — blaster body -->
  <linearGradient id="gunmetalr1x3796" x1="0%" y1="0%" x2="0%" y2="100%">
    <stop offset="0%"   stop-color="#46465e"/>
    <stop offset="18%"  stop-color="#828296"/>
    <stop offset="42%"  stop-color="#26263a"/>
    <stop offset="72%"  stop-color="#16162a"/>
    <stop offset="100%" stop-color="#0c0c18"/>
  </linearGradient>
  <!-- Brushed steel tube — barrel/rod -->
  <linearGradient id="barrelr1x3796" x1="0%" y1="0%" x2="100%" y2="0%">
    <stop offset="0%"   stop-color="#0a0a14"/>
    <stop offset="24%"  stop-color="#585875"/>
    <stop offset="50%"  stop-color="#a8a8c8"/>
    <stop offset="76%"  stop-color="#383852"/>
    <stop offset="100%" stop-color="#0a0a14"/>
  </linearGradient>
  <!-- Chrome rod — lance shaft -->
  <linearGradient id="chromer1x3796" x1="0%" y1="0%" x2="100%" y2="0%">
    <stop offset="0%"   stop-color="#0c0c18"/>
    <stop offset="20%"  stop-color="#686888"/>
    <stop offset="44%"  stop-color="#e0e0f0"/>
    <stop offset="56%"  stop-color="#c0c0d8"/>
    <stop offset="80%"  stop-color="#28283e"/>
    <stop offset="100%" stop-color="#0c0c18"/>
  </linearGradient>
  <!-- Titanium plate — shield face -->
  <linearGradient id="titaniumr1x3796" x1="0%" y1="0%" x2="100%" y2="100%">
    <stop offset="0%"   stop-color="#585878"/>
    <stop offset="28%"  stop-color="#00ff60" stop-opacity=".88"/>
    <stop offset="55%"  stop-color="#00441e"/>
    <stop offset="80%"  stop-color="#181828"/>
    <stop offset="100%" stop-color="#0a0a18"/>
  </linearGradient>
  <!-- Artillery black-chrome — cannon body -->
  <linearGradient id="artilleryr1x3796" x1="0%" y1="0%" x2="0%" y2="100%">
    <stop offset="0%"   stop-color="#383850"/>
    <stop offset="14%"  stop-color="#78789a"/>
    <stop offset="36%"  stop-color="#202034"/>
    <stop offset="65%"  stop-color="#14141e"/>
    <stop offset="100%" stop-color="#0a0a12"/>
  </linearGradient>
  <!-- Energy orb — staff -->
  <radialGradient id="orbr1x3796" cx="35%" cy="35%" r="65%">
    <stop offset="0%"   stop-color="rgba(255,255,255,.9)"/>
    <stop offset="30%"  stop-color="#00ff60"/>
    <stop offset="68%"  stop-color="#00441e"/>
    <stop offset="100%" stop-color="rgba(0,0,0,.6)"/>
  </radialGradient>
  <!-- Knuckle plate chrome -->
  <linearGradient id="knuckler1x3796" x1="0%" y1="0%" x2="0%" y2="100%">
    <stop offset="0%"   stop-color="#888aaa"/>
    <stop offset="32%"  stop-color="#00ff60" stop-opacity=".8"/>
    <stop offset="62%"  stop-color="#1a1a2c"/>
    <stop offset="100%" stop-color="#0a0a14"/>
  </linearGradient>

  <!-- Carbon fibre weave texture overlay -->
  <pattern id="carbonr1x3796" width="6" height="6" patternUnits="userSpaceOnUse">
    <rect width="6" height="6" fill="rgba(0,0,0,.08)"/>
    <rect x="0" y="0" width="3" height="3" fill="rgba(255,255,255,.022)"/>
    <rect x="3" y="3" width="3" height="3" fill="rgba(255,255,255,.022)"/>
    <line x1="0" y1="0" x2="3" y2="3" stroke="rgba(255,255,255,.038)" stroke-width=".5"/>
    <line x1="3" y1="0" x2="6" y2="3" stroke="rgba(0,0,0,.055)"       stroke-width=".5"/>
    <line x1="0" y1="3" x2="3" y2="6" stroke="rgba(0,0,0,.055)"       stroke-width=".5"/>
    <line x1="3" y1="3" x2="6" y2="6" stroke="rgba(255,255,255,.038)" stroke-width=".5"/>
  </pattern>

  <!-- Specular metal sheen on armour panels -->
  <filter id="metalr1x3796" x="-5%" y="-5%" width="110%" height="110%">
    <feSpecularLighting surfaceScale="4" specularConstant="1.8"
        specularExponent="42" lighting-color="#ffffff" result="spec">
      <feDistantLight elevation="52" azimuth="38"/>
    </feSpecularLighting>
    <feComposite in="spec" in2="SourceGraphic" operator="in" result="sm"/>
    <feComposite in="SourceGraphic" in2="sm" operator="arithmetic" k1="0" k2="1" k3="0.55" k4="0"/>
  </filter>

  <!-- Sharper specular for weapons — heavier glare -->
  <filter id="wmr1x3796" x="-8%" y="-8%" width="116%" height="116%">
    <feSpecularLighting surfaceScale="6" specularConstant="2.4"
        specularExponent="65" lighting-color="#ffffff" result="spec">
      <feDistantLight elevation="44" azimuth="28"/>
    </feSpecularLighting>
    <feComposite in="spec" in2="SourceGraphic" operator="in" result="sm"/>
    <feComposite in="SourceGraphic" in2="sm" operator="arithmetic" k1="0" k2="1" k3="0.78" k4="0"/>
  </filter>

  <!-- Sketch wobble -->
  <filter id="skr1x3796" x="-8%" y="-8%" width="116%" height="116%">
    <feTurbulence type="fractalNoise" baseFrequency="0.038"
        numOctaves="3" seed="15" result="noise"/>
    <feDisplacementMap in="SourceGraphic" in2="noise" scale="2.6"
        xChannelSelector="R" yChannelSelector="G" result="w"/>
    <feComposite in="w" in2="SourceGraphic" operator="atop"/>
  </filter>

  <!-- Glow: sharp accent -->
  <filter id="glowr1x3796" x="-20%" y="-20%" width="140%" height="140%">
    <feGaussianBlur stdDeviation="3.5" result="b"/>
    <feColorMatrix in="b" type="matrix"
        values="0 0 0 0 1  0 0 0 0 1  0 0 0 0 1  0 0 0 1.8 0" result="boost"/>
    <feMerge><feMergeNode in="boost"/><feMergeNode in="SourceGraphic"/></feMerge>
  </filter>

  <!-- Bloom: wide soft -->
  <filter id="bloomr1x3796" x="-40%" y="-40%" width="180%" height="180%">
    <feGaussianBlur stdDeviation="11" result="b"/>
    <feMerge><feMergeNode in="b"/><feMergeNode in="SourceGraphic"/></feMerge>
  </filter>

  </defs><rect width="1000" height="1000" fill="url(#bgr1x3796)"/><ellipse cx="500.0" cy="892.0" rx="350.0" ry="65.0" fill="rgba(0,0,0,.7)" filter="url(#bloomr1x3796)"/><ellipse cx="500.0" cy="889.0" rx="220.0" ry="34.0" fill="rgba(0,0,0,.45)"/><ellipse cx="500.0" cy="520.0" rx="320.0" ry="480.0" fill="#ff6600" fill-opacity=".042" filter="url(#bloomr1x3796)"/><circle cx="716.8" cy="777.2" r="0.9" fill="#ff6600" fill-opacity="0.76" filter="url(#glowr1x3796)"/><circle cx="351.3" cy="748.3" r="1.0" fill="#ff6600" fill-opacity="0.42" filter="url(#glowr1x3796)"/><circle cx="251.0" cy="723.2" r="2.0" fill="#ff6600" fill-opacity="0.81" filter="url(#glowr1x3796)"/><circle cx="685.6" cy="617.9" r="3.9" fill="#ff6600" fill-opacity="0.78" filter="url(#glowr1x3796)"/><circle cx="720.5" cy="445.8" r="2.3" fill="#ff6600" fill-opacity="0.46" filter="url(#glowr1x3796)"/><circle cx="675.1" cy="194.9" r="3.6" fill="#ff6600" fill-opacity="0.69" filter="url(#glowr1x3796)"/><circle cx="606.4" cy="373.3" r="1.4" fill="#ff6600" fill-opacity="0.39" filter="url(#glowr1x3796)"/><circle cx="726.1" cy="625.5" r="2.6" fill="#ff6600" fill-opacity="0.56" filter="url(#glowr1x3796)"/><circle cx="666.9" cy="453.2" r="3.9" fill="#ff6600" fill-opacity="0.80" filter="url(#glowr1x3796)"/><circle cx="431.6" cy="423.4" r="4.0" fill="#ff6600" fill-opacity="0.47" filter="url(#glowr1x3796)"/><circle cx="574.9" cy="604.4" r="3.7" fill="#ff6600" fill-opacity="0.81" filter="url(#glowr1x3796)"/><circle cx="497.0" cy="724.5" r="4.2" fill="#ff6600" fill-opacity="0.47" filter="url(#glowr1x3796)"/><circle cx="254.6" cy="504.7" r="2.3" fill="#ff6600" fill-opacity="0.39" filter="url(#glowr1x3796)"/><circle cx="673.6" cy="191.2" r="3.3" fill="#ff6600" fill-opacity="0.87" filter="url(#glowr1x3796)"/><polygon points="398.4,663.7 489.1,661.1 479.1,879.0 387.9,877.2" fill="url(#suitr1x3796)" stroke="#00ff60" stroke-width="2.2" filter="url(#skr1x3796) url(#metalr1x3796)"/><polygon points="399.5,663.8 487.8,662.7 479.8,878.4 386.1,878.8" fill="url(#carbonr1x3796)"/><polygon points="391.5,724.6 494.7,724.1 484.0,787.5 384.4,786.8" fill="url(#bevelr1x3796)" fill-opacity=".5" stroke="#00ff60" stroke-width="1.4" filter="url(#skr1x3796)"/><polygon points="510.7,661.5 599.9,663.0 614.2,876.4 517.9,877.3" fill="url(#suitr1x3796)" stroke="#00ff60" stroke-width="2.2" filter="url(#skr1x3796) url(#metalr1x3796)"/><polygon points="511.8,662.4 599.5,663.1 613.2,878.4 521.1,878.2" fill="url(#carbonr1x3796)"/><polygon points="506.9,722.7 606.2,724.7 617.0,789.9 515.9,788.7" fill="url(#bevelr1x3796)" fill-opacity=".5" stroke="#00ff60" stroke-width="1.4" filter="url(#skr1x3796)"/><rect x="393.2" y="839.5" width="100.3" height="24.7" fill="url(#bevelr1x3796)" stroke="#00ff60" stroke-width="1" filter="url(#skr1x3796)"/><rect x="508.3"  y="837.0" width="100.3" height="24.7" fill="url(#bevelr1x3796)" stroke="#00ff60" stroke-width="1" filter="url(#skr1x3796)"/><polygon points="369.1,876.7 497.3,877.0 504.4,921.5 361.0,919.7" fill="#00441e" stroke="#00ff60" stroke-width="2" filter="url(#skr1x3796)"/><polygon points="502.7,879.2 630.2,879.0 637.1,921.6 497.0,921.7" fill="#00441e" stroke="#00ff60" stroke-width="2" filter="url(#skr1x3796)"/><polygon points="304.7,633.9 696.3,631.5 639.4,681.6 362.2,682.5" fill="#00ff60" fill-opacity=".52" stroke="#00ff60" stroke-width="2" filter="url(#skr1x3796)"/><rect x="462.5" y="637.1" width="72.0" height="42.0" fill="url(#bevelr1x3796)" stroke="#00ff60" stroke-width="1.4" filter="url(#glowr1x3796)"/><rect x="485.6" y="640.1" width="28.0" height="22.0" rx="1" fill="rgba(255,255,255,.48)"/><polygon points="152.5,466.2 235.5,466.6 257.3,733.5 127.6,733.6" fill="url(#suitr1x3796)" stroke="#00ff60" stroke-width="2.2" filter="url(#skr1x3796) url(#metalr1x3796)"/><polygon points="172.8,432.0 253.2,432.1 244.1,509.5 158.0,509.0" fill="url(#bevelr1x3796)" fill-opacity=".72" stroke="#00ff60" stroke-width="2.2" filter="url(#skr1x3796)"/><polygon points="162.9,620.8 242.3,623.1 238.9,659.8 165.4,659.7" fill="#00ff60" fill-opacity=".42" stroke="#00ff60" stroke-width="1" filter="url(#skr1x3796)"/><polygon points="765.5,464.7 848.3,466.1 871.6,735.9 742.9,735.7" fill="url(#suitr1x3796)" stroke="#00ff60" stroke-width="2.2" filter="url(#skr1x3796) url(#metalr1x3796)"/><polygon points="748.2,430.8 825.8,433.3 838.9,510.6 757.8,511.7" fill="url(#bevelr1x3796)" fill-opacity=".72" stroke="#00ff60" stroke-width="2.2" filter="url(#skr1x3796)"/><polygon points="757.6,623.6 840.1,622.2 834.9,661.8 762.6,659.3" fill="#00ff60" fill-opacity=".42" stroke="#00ff60" stroke-width="1" filter="url(#skr1x3796)"/><rect x="121.8"  y="698.5" width="135.3" height="85.0" rx="4" fill="url(#bevelr1x3796)" stroke="#00ff60" stroke-width="1.8" filter="url(#skr1x3796)"/><rect x="748.6"   y="699.3" width="135.3" height="85.0" rx="4" fill="url(#bevelr1x3796)" stroke="#00ff60" stroke-width="1.8" filter="url(#skr1x3796)"/><line x1="148.2" y1="701.4" x2="149.6" y2="783.9" stroke="#00ff60" stroke-opacity=".38" stroke-width="1"/><line x1="776.4" y1="701.5" x2="778.2" y2="783.4" stroke="#00ff60" stroke-opacity=".38" stroke-width="1"/><line x1="180.8" y1="701.4" x2="181.5" y2="782.7" stroke="#00ff60" stroke-opacity=".38" stroke-width="1"/><line x1="812.0" y1="701.5" x2="810.7" y2="782.5" stroke="#00ff60" stroke-opacity=".38" stroke-width="1"/><line x1="214.4" y1="700.7" x2="214.5" y2="783.5" stroke="#00ff60" stroke-opacity=".38" stroke-width="1"/><line x1="843.1" y1="702.9" x2="843.6" y2="784.5" stroke="#00ff60" stroke-opacity=".38" stroke-width="1"/><polygon points="236.1,416.9 764.2,418.9 721.5,662.7 276.7,661.3" fill="url(#suitr1x3796)" stroke="#00ff60" stroke-width="2.6" filter="url(#skr1x3796) url(#metalr1x3796)"/><polygon points="236.2,419.1 763.8,418.1 722.4,662.7 276.4,662.8" fill="url(#carbonr1x3796)"/><polygon points="366.3,417.3 631.2,416.4 610.5,515.5 387.2,517.1" fill="url(#suitHir1x3796)"/><line x1="363.9" y1="471.7" x2="638.9" y2="471.2" stroke="#00ff60" stroke-opacity=".52" stroke-width="1.3" filter="url(#skr1x3796)"/><line x1="398.6" y1="549.3" x2="599.0" y2="548.5" stroke="#00ff60" stroke-opacity=".52" stroke-width="1.3" filter="url(#skr1x3796)"/><line x1="266.4" y1="492.1" x2="318.8" y2="490.7" stroke="#00ff60" stroke-opacity=".62" stroke-width="1.8"/><line x1="681.8" y1="490.9" x2="732.6" y2="491.6" stroke="#00ff60" stroke-opacity=".62" stroke-width="1.8"/><line x1="267.3" y1="522.9" x2="320.0" y2="521.9" stroke="#00ff60" stroke-opacity=".62" stroke-width="1.8"/><line x1="680.7" y1="521.1" x2="734.1" y2="522.3" stroke="#00ff60" stroke-opacity=".62" stroke-width="1.8"/><line x1="268.0" y1="554.2" x2="318.3" y2="553.3" stroke="#00ff60" stroke-opacity=".62" stroke-width="1.8"/><line x1="678.6" y1="555.3" x2="731.6" y2="555.6" stroke="#00ff60" stroke-opacity=".62" stroke-width="1.8"/><line x1="268.1" y1="586.2" x2="318.3" y2="588.3" stroke="#00ff60" stroke-opacity=".62" stroke-width="1.8"/><line x1="681.1" y1="585.4" x2="734.2" y2="586.0" stroke="#00ff60" stroke-opacity=".62" stroke-width="1.8"/><g filter="url(#glowr1x3796)"><polygon points="501.1,452.8 514.5,489.5 555.2,491.9 525.8,517.4 534.5,558.2 500.4,534.7 467.2,558.5 476.1,518.7 443.1,491.2 486.0,491.4 " fill="#00ff60" stroke="#0d1520" stroke-width="1.4" filter="url(#skr1x3796)"/><polygon points="501.1,452.8 514.5,489.5 555.2,491.9 525.8,517.4 534.5,558.2 500.4,534.7 467.2,558.5 476.1,518.7 443.1,491.2 486.0,491.4 " fill="url(#suitHir1x3796)" opacity=".45"/></g><g><rect x="41.969299062099275" y="396.9063568290323" width="175.0" height="118.0" rx="7" fill="url(#artilleryr1x3796)" stroke="#00ff60" stroke-width="2.6" filter="url(#wmr1x3796)"/><rect x="43.474082620386" y="396.9084907894954" width="175.0" height="118.0" rx="7" fill="url(#carbonr1x3796)"/><rect x="15.630227957423745" y="449.09903307966886" width="78.0" height="32.0" rx="6" fill="url(#barrelr1x3796)" stroke="#00ff60" stroke-width="1.4" filter="url(#wmr1x3796)"/><circle cx="116.53388345636424" cy="472.8494513079524" r="48.0" fill="rgba(0,0,0,.55)" stroke="#00ff60" stroke-width="2" filter="url(#wmr1x3796)"/><circle cx="118.51242385286835" cy="473.0586511438712" r="34.0" fill="#00ff60" fill-opacity=".4" filter="url(#bloomr1x3796)"/><circle cx="117.64888458516445" cy="471.24392014937473" r="18.0" fill="#00ff60" filter="url(#glowr1x3796)"/><rect x="47.615613900348514" y="381.85371970506384" width="100.0" height="18.0" rx="2" fill="url(#bevelr1x3796)" stroke="#00ff60" stroke-width="1" filter="url(#wmr1x3796)"/><rect x="42.39523626448583" y="399.0700354549102" width="120.0" height="12.0" rx="3" fill="rgba(255,255,255,.2)"/><line x1="52.480513571146844" y1="517.6161132600158" x2="53.45183412240815" y2="549.3845598151908" stroke="#00ff60" stroke-opacity=".6" stroke-width="2"/><line x1="77.30382522897791" y1="520.7821417622268" x2="77.81091784326357" y2="550.128691028431" stroke="#00ff60" stroke-opacity=".6" stroke-width="2"/><line x1="99.45514598855746" y1="521.1133517557755" x2="99.80947159802538" y2="549.6786470008083" stroke="#00ff60" stroke-opacity=".6" stroke-width="2"/><line x1="124.3702987042628" y1="519.8550642604008" x2="125.6412387352809" y2="550.8163042747416" stroke="#00ff60" stroke-opacity=".6" stroke-width="2"/></g><rect x="450.70446984535084" y="555.3778990534134" width="100.0"  height="56.0" fill="#00441e" stroke="#00ff60" stroke-width="2.2" filter="url(#skr1x3796)"/><rect x="425.0355345989577" y="576.2974859910086" width="152.0" height="26.0" fill="url(#bevelr1x3796)" fill-opacity=".65" stroke="#00ff60" stroke-width="1.2" filter="url(#skr1x3796)"/><polygon points="307.8,381.6 350.5,294.7 499.1,278.6 651.4,296.0 691.9,379.0 668.3,502.7 500.2,565.3 332.4,504.1" fill="url(#suitr1x3796)" stroke="#00ff60" stroke-width="2.8" filter="url(#skr1x3796) url(#metalr1x3796)"/><polygon points="309.6,380.5 348.9,294.6 498.5,277.6 651.1,294.6 691.4,379.8 667.2,504.5 501.0,563.3 329.4,505.0" fill="url(#carbonr1x3796)"/><polygon points="379.6,302.9 500.7,285.7 619.8,303.6 608.3,379.7 394.2,382.2" fill="url(#suitHir1x3796)"/><polygon points="379.6,380.3 365.6,427.2 431.4,504.6 499.5,527.7 567.3,505.1 635.9,426.2 617.9,379.3" fill="#0d1520" fill-opacity=".88" stroke="#00ff60" stroke-width="1.8" filter="url(#skr1x3796)"/><polygon points="381.0,412.6 477.1,409.6 482.8,439.6 386.9,441.0" fill="#00ff60" filter="url(#glowr1x3796)"/><polygon points="522.5,411.6 617.9,411.4 611.3,441.0 517.2,441.1" fill="#00ff60" filter="url(#glowr1x3796)"/><ellipse cx="430.9" cy="425.7" rx="38.4"  ry="8.2" fill="#ffffff" opacity=".88"/><ellipse cx="569.1" cy="425.7" rx="38.4"  ry="8.2" fill="#ffffff" opacity=".88"/><line x1="484.28153400445353" y1="414.0909730559215" x2="516.5250770256296" y2="414.8984077923931" stroke="#00ff60" stroke-opacity=".52" stroke-width="2"/><line x1="485.41649217396974" y1="439.0965744232759" x2="514.4399359433353" y2="437.1275090256706" stroke="#00ff60" stroke-opacity=".52" stroke-width="2"/><line x1="500.9446464595385" y1="453.2833241770044" x2="501.6682802340016" y2="481.5927847334184" stroke="#00ff60" stroke-opacity=".58" stroke-width="2.2" filter="url(#skr1x3796)"/><line x1="453.44978788288313" y1="492.19774221535766" x2="452.32273122955115" y2="521.359924621787" stroke="#00ff60" stroke-opacity=".52" stroke-width="1.5" filter="url(#skr1x3796)"/><line x1="478.1408463912457" y1="490.00967389345163" x2="475.99528220495205" y2="520.1144697790966" stroke="#00ff60" stroke-opacity=".52" stroke-width="1.5" filter="url(#skr1x3796)"/><line x1="500.34423883054404" y1="491.16483754999933" x2="498.4455623373389" y2="520.7883998241275" stroke="#00ff60" stroke-opacity=".52" stroke-width="1.5" filter="url(#skr1x3796)"/><line x1="521.9681375671737" y1="493.0685605540871" x2="523.36013149634" y2="519.8737650304101" stroke="#00ff60" stroke-opacity=".52" stroke-width="1.5" filter="url(#skr1x3796)"/><line x1="547.667779092323" y1="491.10560542056334" x2="544.464375092946" y2="521.4631044584327" stroke="#00ff60" stroke-opacity=".52" stroke-width="1.5" filter="url(#skr1x3796)"/><polygon points="432.9,504.8 568.2,505.1 554.3,555.1 447.8,556.2" fill="#00441e" fill-opacity=".72" stroke="#00ff60" stroke-width="1.3" filter="url(#skr1x3796)"/><circle cx="500.0" cy="315.0" r="203.5" fill="none" stroke="#00ff60" stroke-width="3" stroke-dasharray="6,4" filter="url(#bloomr1x3796)"/><circle cx="500.0" cy="315.0" r="134.4"   fill="none" stroke="#00ff60" stroke-width="1.2" stroke-opacity=".42"/><circle cx="703.5" cy="315.0" r="1.8" fill="#00ff60" filter="url(#glowr1x3796)"/><circle cx="688.0" cy="392.9" r="2.7" fill="#00ff60" filter="url(#glowr1x3796)"/><circle cx="643.9" cy="458.9" r="2.8" fill="#00ff60" filter="url(#glowr1x3796)"/><circle cx="577.9" cy="503.0" r="2.0" fill="#00ff60" filter="url(#glowr1x3796)"/><circle cx="500.0" cy="518.5" r="1.0" fill="#00ff60" filter="url(#glowr1x3796)"/><circle cx="422.1" cy="503.0" r="0.7" fill="#00ff60" filter="url(#glowr1x3796)"/><circle cx="356.1" cy="458.9" r="1.5" fill="#00ff60" filter="url(#glowr1x3796)"/><circle cx="312.0" cy="392.9" r="2.5" fill="#00ff60" filter="url(#glowr1x3796)"/><circle cx="296.5" cy="315.0" r="2.9" fill="#00ff60" filter="url(#glowr1x3796)"/><circle cx="312.0" cy="237.1" r="2.3" fill="#00ff60" filter="url(#glowr1x3796)"/><circle cx="356.1" cy="171.1" r="1.2" fill="#00ff60" filter="url(#glowr1x3796)"/><circle cx="422.1" cy="127.0" r="0.7" fill="#00ff60" filter="url(#glowr1x3796)"/><circle cx="500.0" cy="111.5" r="1.2" fill="#00ff60" filter="url(#glowr1x3796)"/><circle cx="577.9" cy="127.0" r="2.3" fill="#00ff60" filter="url(#glowr1x3796)"/><circle cx="643.9" cy="171.1" r="2.9" fill="#00ff60" filter="url(#glowr1x3796)"/><circle cx="688.0" cy="237.1" r="2.5" fill="#00ff60" filter="url(#glowr1x3796)"/><text x="30.0"  y="975.0" font-family="monospace" font-weight="bold" font-size="22.0" fill="rgba(255,255,255,.22)">#0001</text><text x="500.0"   y="975.0" text-anchor="middle" font-family="monospace" font-weight="bold" font-size="22.0" fill="#00ff60" fill-opacity=".48">VIPER RANGER</text><text x="970.0" y="975.0" text-anchor="end"    font-family="monospace" font-weight="bold" font-size="22.0" fill="#00ff60" fill-opacity=".32">MECH RANGERS</text></svg>