<svg xmlns="http://www.w3.org/2000/svg" viewBox="0 0 1000 1000" width="1000" height="1000" shape-rendering="geometricPrecision"><defs>

  <!-- Scene gradients -->
  <radialGradient id="bgr1x3904" cx="50%" cy="42%" r="72%">
    <stop offset="0%"   stop-color="#0a0a14"/>
    <stop offset="100%" stop-color="#050508"/>
  </radialGradient>
  <linearGradient id="suitr1x3904" x1="8%" y1="0%" x2="92%" y2="100%">
    <stop offset="0%"   stop-color="#00ff60" stop-opacity=".95"/>
    <stop offset="45%"  stop-color="#00441e"/>
    <stop offset="100%" stop-color="#050508"/>
  </linearGradient>
  <linearGradient id="suitHir1x3904" x1="0%" y1="0%" x2="0%" y2="100%">
    <stop offset="0%"   stop-color="rgba(255,255,255,.28)"/>
    <stop offset="60%"  stop-color="rgba(255,255,255,.04)"/>
    <stop offset="100%" stop-color="rgba(255,255,255,0)"/>
  </linearGradient>
  <!-- Bevel: bright top, dark bottom for armour panels -->
  <linearGradient id="bevelr1x3904" x1="0%" y1="0%" x2="0%" y2="100%">
    <stop offset="0%"   stop-color="rgba(255,255,255,.55)"/>
    <stop offset="30%"  stop-color="#00ff60"/>
    <stop offset="70%"  stop-color="#00441e"/>
    <stop offset="100%" stop-color="rgba(0,0,0,.5)"/>
  </linearGradient>

  <!-- Weapon: cold steel blade sweep -->
  <linearGradient id="blader1x3904" x1="0%" y1="0%" x2="100%" y2="0%">
    <stop offset="0%"   stop-color="#0e0e20"/>
    <stop offset="16%"  stop-color="#3e3e58"/>
    <stop offset="34%"  stop-color="#c8c8e0"/>
    <stop offset="50%"  stop-color="#f5f5ff"/>
    <stop offset="66%"  stop-color="#b8b8d0"/>
    <stop offset="84%"  stop-color="#2e2e48"/>
    <stop offset="100%" stop-color="#08080e"/>
  </linearGradient>
  <!-- Blade tip brightening -->
  <linearGradient id="bladeTipr1x3904" x1="0%" y1="100%" x2="0%" y2="0%">
    <stop offset="0%"   stop-color="rgba(255,255,255,0)"/>
    <stop offset="55%"  stop-color="rgba(255,255,255,.1)"/>
    <stop offset="100%" stop-color="rgba(255,255,255,.55)"/>
  </linearGradient>
  <!-- Gunmetal anodised — blaster body -->
  <linearGradient id="gunmetalr1x3904" x1="0%" y1="0%" x2="0%" y2="100%">
    <stop offset="0%"   stop-color="#46465e"/>
    <stop offset="18%"  stop-color="#828296"/>
    <stop offset="42%"  stop-color="#26263a"/>
    <stop offset="72%"  stop-color="#16162a"/>
    <stop offset="100%" stop-color="#0c0c18"/>
  </linearGradient>
  <!-- Brushed steel tube — barrel/rod -->
  <linearGradient id="barrelr1x3904" x1="0%" y1="0%" x2="100%" y2="0%">
    <stop offset="0%"   stop-color="#0a0a14"/>
    <stop offset="24%"  stop-color="#585875"/>
    <stop offset="50%"  stop-color="#a8a8c8"/>
    <stop offset="76%"  stop-color="#383852"/>
    <stop offset="100%" stop-color="#0a0a14"/>
  </linearGradient>
  <!-- Chrome rod — lance shaft -->
  <linearGradient id="chromer1x3904" x1="0%" y1="0%" x2="100%" y2="0%">
    <stop offset="0%"   stop-color="#0c0c18"/>
    <stop offset="20%"  stop-color="#686888"/>
    <stop offset="44%"  stop-color="#e0e0f0"/>
    <stop offset="56%"  stop-color="#c0c0d8"/>
    <stop offset="80%"  stop-color="#28283e"/>
    <stop offset="100%" stop-color="#0c0c18"/>
  </linearGradient>
  <!-- Titanium plate — shield face -->
  <linearGradient id="titaniumr1x3904" x1="0%" y1="0%" x2="100%" y2="100%">
    <stop offset="0%"   stop-color="#585878"/>
    <stop offset="28%"  stop-color="#00ff60" stop-opacity=".88"/>
    <stop offset="55%"  stop-color="#00441e"/>
    <stop offset="80%"  stop-color="#181828"/>
    <stop offset="100%" stop-color="#0a0a18"/>
  </linearGradient>
  <!-- Artillery black-chrome — cannon body -->
  <linearGradient id="artilleryr1x3904" x1="0%" y1="0%" x2="0%" y2="100%">
    <stop offset="0%"   stop-color="#383850"/>
    <stop offset="14%"  stop-color="#78789a"/>
    <stop offset="36%"  stop-color="#202034"/>
    <stop offset="65%"  stop-color="#14141e"/>
    <stop offset="100%" stop-color="#0a0a12"/>
  </linearGradient>
  <!-- Energy orb — staff -->
  <radialGradient id="orbr1x3904" cx="35%" cy="35%" r="65%">
    <stop offset="0%"   stop-color="rgba(255,255,255,.9)"/>
    <stop offset="30%"  stop-color="#00ff60"/>
    <stop offset="68%"  stop-color="#00441e"/>
    <stop offset="100%" stop-color="rgba(0,0,0,.6)"/>
  </radialGradient>
  <!-- Knuckle plate chrome -->
  <linearGradient id="knuckler1x3904" x1="0%" y1="0%" x2="0%" y2="100%">
    <stop offset="0%"   stop-color="#888aaa"/>
    <stop offset="32%"  stop-color="#00ff60" stop-opacity=".8"/>
    <stop offset="62%"  stop-color="#1a1a2c"/>
    <stop offset="100%" stop-color="#0a0a14"/>
  </linearGradient>

  <!-- Carbon fibre weave texture overlay -->
  <pattern id="carbonr1x3904" width="6" height="6" patternUnits="userSpaceOnUse">
    <rect width="6" height="6" fill="rgba(0,0,0,.08)"/>
    <rect x="0" y="0" width="3" height="3" fill="rgba(255,255,255,.022)"/>
    <rect x="3" y="3" width="3" height="3" fill="rgba(255,255,255,.022)"/>
    <line x1="0" y1="0" x2="3" y2="3" stroke="rgba(255,255,255,.038)" stroke-width=".5"/>
    <line x1="3" y1="0" x2="6" y2="3" stroke="rgba(0,0,0,.055)"       stroke-width=".5"/>
    <line x1="0" y1="3" x2="3" y2="6" stroke="rgba(0,0,0,.055)"       stroke-width=".5"/>
    <line x1="3" y1="3" x2="6" y2="6" stroke="rgba(255,255,255,.038)" stroke-width=".5"/>
  </pattern>

  <!-- Specular metal sheen on armour panels -->
  <filter id="metalr1x3904" x="-5%" y="-5%" width="110%" height="110%">
    <feSpecularLighting surfaceScale="4" specularConstant="1.8"
        specularExponent="42" lighting-color="#ffffff" result="spec">
      <feDistantLight elevation="52" azimuth="38"/>
    </feSpecularLighting>
    <feComposite in="spec" in2="SourceGraphic" operator="in" result="sm"/>
    <feComposite in="SourceGraphic" in2="sm" operator="arithmetic" k1="0" k2="1" k3="0.55" k4="0"/>
  </filter>

  <!-- Sharper specular for weapons — heavier glare -->
  <filter id="wmr1x3904" x="-8%" y="-8%" width="116%" height="116%">
    <feSpecularLighting surfaceScale="6" specularConstant="2.4"
        specularExponent="65" lighting-color="#ffffff" result="spec">
      <feDistantLight elevation="44" azimuth="28"/>
    </feSpecularLighting>
    <feComposite in="spec" in2="SourceGraphic" operator="in" result="sm"/>
    <feComposite in="SourceGraphic" in2="sm" operator="arithmetic" k1="0" k2="1" k3="0.78" k4="0"/>
  </filter>

  <!-- Sketch wobble -->
  <filter id="skr1x3904" x="-8%" y="-8%" width="116%" height="116%">
    <feTurbulence type="fractalNoise" baseFrequency="0.038"
        numOctaves="3" seed="35" result="noise"/>
    <feDisplacementMap in="SourceGraphic" in2="noise" scale="2.6"
        xChannelSelector="R" yChannelSelector="G" result="w"/>
    <feComposite in="w" in2="SourceGraphic" operator="atop"/>
  </filter>

  <!-- Glow: sharp accent -->
  <filter id="glowr1x3904" x="-20%" y="-20%" width="140%" height="140%">
    <feGaussianBlur stdDeviation="3.5" result="b"/>
    <feColorMatrix in="b" type="matrix"
        values="0 0 0 0 1  0 0 0 0 1  0 0 0 0 1  0 0 0 1.8 0" result="boost"/>
    <feMerge><feMergeNode in="boost"/><feMergeNode in="SourceGraphic"/></feMerge>
  </filter>

  <!-- Bloom: wide soft -->
  <filter id="bloomr1x3904" x="-40%" y="-40%" width="180%" height="180%">
    <feGaussianBlur stdDeviation="11" result="b"/>
    <feMerge><feMergeNode in="b"/><feMergeNode in="SourceGraphic"/></feMerge>
  </filter>

  </defs><rect width="1000" height="1000" fill="url(#bgr1x3904)"/><ellipse cx="500.0" cy="892.0" rx="350.0" ry="65.0" fill="rgba(0,0,0,.7)" filter="url(#bloomr1x3904)"/><ellipse cx="500.0" cy="889.0" rx="220.0" ry="34.0" fill="rgba(0,0,0,.45)"/><ellipse cx="500.0" cy="520.0" rx="320.0" ry="480.0" fill="#ff6600" fill-opacity=".042" filter="url(#bloomr1x3904)"/><circle cx="435.3" cy="731.6" r="3.9" fill="#ff6600" fill-opacity="0.73" filter="url(#glowr1x3904)"/><circle cx="265.0" cy="721.8" r="3.8" fill="#ff6600" fill-opacity="0.82" filter="url(#glowr1x3904)"/><circle cx="585.1" cy="325.1" r="4.0" fill="#ff6600" fill-opacity="0.81" filter="url(#glowr1x3904)"/><circle cx="349.1" cy="483.6" r="1.9" fill="#ff6600" fill-opacity="0.85" filter="url(#glowr1x3904)"/><circle cx="624.1" cy="349.3" r="3.1" fill="#ff6600" fill-opacity="0.53" filter="url(#glowr1x3904)"/><circle cx="266.8" cy="309.7" r="3.4" fill="#ff6600" fill-opacity="0.85" filter="url(#glowr1x3904)"/><circle cx="565.9" cy="489.2" r="0.9" fill="#ff6600" fill-opacity="0.45" filter="url(#glowr1x3904)"/><circle cx="493.4" cy="234.1" r="3.8" fill="#ff6600" fill-opacity="0.66" filter="url(#glowr1x3904)"/><circle cx="707.3" cy="746.3" r="3.7" fill="#ff6600" fill-opacity="0.79" filter="url(#glowr1x3904)"/><circle cx="613.4" cy="579.5" r="1.7" fill="#ff6600" fill-opacity="0.67" filter="url(#glowr1x3904)"/><circle cx="255.1" cy="550.9" r="2.9" fill="#ff6600" fill-opacity="0.77" filter="url(#glowr1x3904)"/><circle cx="587.5" cy="559.6" r="0.6" fill="#ff6600" fill-opacity="0.76" filter="url(#glowr1x3904)"/><circle cx="569.1" cy="471.3" r="1.2" fill="#ff6600" fill-opacity="0.74" filter="url(#glowr1x3904)"/><circle cx="554.6" cy="484.8" r="3.5" fill="#ff6600" fill-opacity="0.41" filter="url(#glowr1x3904)"/><polygon points="399.6,660.8 489.1,664.2 482.4,878.1 385.7,878.7" fill="url(#suitr1x3904)" stroke="#00ff60" stroke-width="2.2" filter="url(#skr1x3904) url(#metalr1x3904)"/><polygon points="398.6,661.1 488.2,663.4 481.2,875.8 386.3,879.1" fill="url(#carbonr1x3904)"/><polygon points="391.0,722.3 494.6,723.5 484.7,789.9 382.9,788.8" fill="url(#bevelr1x3904)" fill-opacity=".5" stroke="#00ff60" stroke-width="1.4" filter="url(#skr1x3904)"/><polygon points="511.1,662.2 602.8,660.8 613.0,878.8 520.1,876.9" fill="url(#suitr1x3904)" stroke="#00ff60" stroke-width="2.2" filter="url(#skr1x3904) url(#metalr1x3904)"/><polygon points="510.8,663.4 601.2,662.8 614.0,876.2 519.9,877.1" fill="url(#carbonr1x3904)"/><polygon points="506.6,722.6 606.4,723.6 617.7,789.2 514.1,788.0" fill="url(#bevelr1x3904)" fill-opacity=".5" stroke="#00ff60" stroke-width="1.4" filter="url(#skr1x3904)"/><rect x="392.4" y="839.4" width="100.3" height="24.7" fill="url(#bevelr1x3904)" stroke="#00ff60" stroke-width="1" filter="url(#skr1x3904)"/><rect x="508.3"  y="837.8" width="100.3" height="24.7" fill="url(#bevelr1x3904)" stroke="#00ff60" stroke-width="1" filter="url(#skr1x3904)"/><polygon points="368.0,876.3 495.1,878.8 502.3,923.0 361.0,921.7" fill="#00441e" stroke="#00ff60" stroke-width="2" filter="url(#skr1x3904)"/><polygon points="504.3,878.3 630.8,876.0 636.7,920.7 498.0,920.4" fill="#00441e" stroke="#00ff60" stroke-width="2" filter="url(#skr1x3904)"/><polygon points="303.0,633.9 695.7,633.6 639.0,680.5 363.3,682.8" fill="#00ff60" fill-opacity=".52" stroke="#00ff60" stroke-width="2" filter="url(#skr1x3904)"/><rect x="464.4" y="638.4" width="72.0" height="42.0" fill="url(#bevelr1x3904)" stroke="#00ff60" stroke-width="1.4" filter="url(#glowr1x3904)"/><rect x="487.2" y="641.9" width="28.0" height="22.0" rx="1" fill="rgba(255,255,255,.48)"/><polygon points="153.3,467.4 236.1,466.3 256.4,735.1 127.9,736.4" fill="url(#suitr1x3904)" stroke="#00ff60" stroke-width="2.2" filter="url(#skr1x3904) url(#metalr1x3904)"/><polygon points="172.8,432.4 252.7,430.9 242.3,512.4 159.7,509.6" fill="url(#bevelr1x3904)" fill-opacity=".72" stroke="#00ff60" stroke-width="2.2" filter="url(#skr1x3904)"/><polygon points="162.4,620.4 244.3,621.1 238.6,660.9 166.7,659.7" fill="#00ff60" fill-opacity=".42" stroke="#00ff60" stroke-width="1" filter="url(#skr1x3904)"/><polygon points="764.4,467.8 845.4,467.4 870.1,734.4 740.4,735.7" fill="url(#suitr1x3904)" stroke="#00ff60" stroke-width="2.2" filter="url(#skr1x3904) url(#metalr1x3904)"/><polygon points="746.1,431.0 827.1,433.0 841.5,511.8 757.6,511.5" fill="url(#bevelr1x3904)" fill-opacity=".72" stroke="#00ff60" stroke-width="2.2" filter="url(#skr1x3904)"/><polygon points="757.4,621.3 840.4,620.6 832.9,661.2 761.6,662.6" fill="#00ff60" fill-opacity=".42" stroke="#00ff60" stroke-width="1" filter="url(#skr1x3904)"/><rect x="120.3"  y="699.3" width="135.3" height="85.0" rx="4" fill="url(#bevelr1x3904)" stroke="#00ff60" stroke-width="1.8" filter="url(#skr1x3904)"/><rect x="748.5"   y="698.8" width="135.3" height="85.0" rx="4" fill="url(#bevelr1x3904)" stroke="#00ff60" stroke-width="1.8" filter="url(#skr1x3904)"/><line x1="148.2" y1="700.1" x2="151.0" y2="783.8" stroke="#00ff60" stroke-opacity=".38" stroke-width="1"/><line x1="779.2" y1="702.4" x2="779.2" y2="784.0" stroke="#00ff60" stroke-opacity=".38" stroke-width="1"/><line x1="184.2" y1="701.7" x2="183.0" y2="784.0" stroke="#00ff60" stroke-opacity=".38" stroke-width="1"/><line x1="812.0" y1="700.2" x2="812.2" y2="783.5" stroke="#00ff60" stroke-opacity=".38" stroke-width="1"/><line x1="215.8" y1="703.6" x2="216.0" y2="784.5" stroke="#00ff60" stroke-opacity=".38" stroke-width="1"/><line x1="844.3" y1="702.5" x2="844.0" y2="784.5" stroke="#00ff60" stroke-opacity=".38" stroke-width="1"/><polygon points="234.8,417.0 763.3,418.5 722.5,664.3 276.5,663.8" fill="url(#suitr1x3904)" stroke="#00ff60" stroke-width="2.6" filter="url(#skr1x3904) url(#metalr1x3904)"/><polygon points="233.7,417.0 764.5,418.7 721.6,662.2 276.8,663.9" fill="url(#carbonr1x3904)"/><polygon points="368.6,417.3 632.4,416.5 611.7,515.8 388.7,513.8" fill="url(#suitHir1x3904)"/><line x1="361.3" y1="472.9" x2="636.9" y2="472.9" stroke="#00ff60" stroke-opacity=".52" stroke-width="1.3" filter="url(#skr1x3904)"/><line x1="398.6" y1="549.3" x2="600.7" y2="551.2" stroke="#00ff60" stroke-opacity=".52" stroke-width="1.3" filter="url(#skr1x3904)"/><line x1="266.3" y1="490.7" x2="319.4" y2="492.6" stroke="#00ff60" stroke-opacity=".62" stroke-width="1.8"/><line x1="678.6" y1="489.7" x2="733.5" y2="490.8" stroke="#00ff60" stroke-opacity=".62" stroke-width="1.8"/><line x1="265.3" y1="524.6" x2="321.2" y2="523.0" stroke="#00ff60" stroke-opacity=".62" stroke-width="1.8"/><line x1="680.6" y1="524.3" x2="733.3" y2="523.1" stroke="#00ff60" stroke-opacity=".62" stroke-width="1.8"/><line x1="267.9" y1="555.0" x2="320.6" y2="555.7" stroke="#00ff60" stroke-opacity=".62" stroke-width="1.8"/><line x1="679.1" y1="555.2" x2="732.1" y2="553.5" stroke="#00ff60" stroke-opacity=".62" stroke-width="1.8"/><line x1="267.7" y1="584.9" x2="320.2" y2="588.3" stroke="#00ff60" stroke-opacity=".62" stroke-width="1.8"/><line x1="679.2" y1="585.2" x2="733.7" y2="586.5" stroke="#00ff60" stroke-opacity=".62" stroke-width="1.8"/><g filter="url(#glowr1x3904)"><polygon points="483.0,453.5 514.3,507.3 499.3,505.2 515.7,569.1 487.9,516.4 501.5,516.7" fill="#00ff60" stroke="#050508" stroke-width="1.4" filter="url(#skr1x3904)"/><polygon points="481.3,451.7 512.5,507.1 500.0,504.7 519.2,570.3 485.6,513.6 500.3,516.1" fill="url(#suitHir1x3904)" opacity=".4"/></g><g><polygon points="30.4,293.6 171.1,294.6 173.1,591.1 100.7,725.1 31.5,592.5" fill="url(#titaniumr1x3904)" stroke="#00ff60" stroke-width="2.6" filter="url(#wmr1x3904)"/><polygon points="33.2,292.8 171.6,294.4 171.6,592.4 101.2,725.1 32.2,591.4" fill="url(#carbonr1x3904)"/><polygon points="65.8,359.9 139.5,363.2 138.6,541.5 103.7,630.6 63.5,540.7" fill="#00ff60" fill-opacity=".28" stroke="#00ff60" stroke-width="1.5"/><line x1="51.32747181583193" y1="431.8789825156331" x2="153.72687234360723" y2="432.1983697911724" stroke="#00ff60" stroke-opacity=".65" stroke-width="1.3"/><line x1="102.60986005071547" y1="329.6141333170235" x2="100.81415316596625" y2="590.3730472645722" stroke="#00ff60" stroke-opacity=".4" stroke-width="1"/><line x1="33.712698240242865" y1="295.48726098658517" x2="170.18029980858785" y2="297.1017409667372" stroke="rgba(255,255,255,.5)" stroke-width="2"/><circle cx="101.75612935148176" cy="433.1227911332622" r="18.0" fill="url(#bevelr1x3904)" stroke="#00ff60" stroke-width="1.2" filter="url(#wmr1x3904)"/></g><rect x="448.9621895642951" y="556.5134917011484" width="100.0"  height="56.0" fill="#00441e" stroke="#00ff60" stroke-width="2.2" filter="url(#skr1x3904)"/><rect x="425.3144254687242" y="576.989142477978" width="152.0" height="26.0" fill="url(#bevelr1x3904)" fill-opacity=".65" stroke="#00ff60" stroke-width="1.2" filter="url(#skr1x3904)"/><polygon points="306.7,382.2 349.8,295.9 499.1,279.6 648.6,294.2 692.6,379.4 670.2,503.8 500.1,566.6 329.7,502.7" fill="url(#suitr1x3904)" stroke="#00ff60" stroke-width="2.8" filter="url(#skr1x3904) url(#metalr1x3904)"/><polygon points="307.2,379.1 349.3,292.8 501.8,279.8 650.5,293.0 691.2,381.7 669.6,504.1 499.1,564.4 332.0,503.2" fill="url(#carbonr1x3904)"/><polygon points="379.3,304.0 498.6,287.0 618.1,302.6 606.7,379.8 393.8,380.1" fill="url(#suitHir1x3904)"/><polygon points="381.5,381.2 364.4,426.1 431.7,504.3 500.1,528.4 567.1,502.5 632.7,424.7 617.7,379.4" fill="#050508" fill-opacity=".88" stroke="#00ff60" stroke-width="1.8" filter="url(#skr1x3904)"/><polygon points="382.5,412.8 476.1,410.0 483.6,440.6 388.4,441.5" fill="#00ff60" filter="url(#glowr1x3904)"/><polygon points="521.6,413.1 619.2,411.7 610.6,439.1 515.0,440.0" fill="#00ff60" filter="url(#glowr1x3904)"/><ellipse cx="430.9" cy="425.7" rx="38.4"  ry="8.2" fill="#ffffff" opacity=".88"/><ellipse cx="569.1" cy="425.7" rx="38.4"  ry="8.2" fill="#ffffff" opacity=".88"/><line x1="482.93224156616253" y1="414.78687263661993" x2="515.998228082005" y2="411.7438379167579" stroke="#00ff60" stroke-opacity=".52" stroke-width="2"/><line x1="486.3242758355662" y1="438.4443163521588" x2="514.8629611349106" y2="438.0241183723323" stroke="#00ff60" stroke-opacity=".52" stroke-width="2"/><line x1="499.68560634888706" y1="453.56747955083847" x2="501.44770600628107" y2="484.3166453756392" stroke="#00ff60" stroke-opacity=".58" stroke-width="2.2" filter="url(#skr1x3904)"/><line x1="455.3389883571118" y1="489.73265197938304" x2="453.40323585297915" y2="519.1333935944364" stroke="#00ff60" stroke-opacity=".52" stroke-width="1.5" filter="url(#skr1x3904)"/><line x1="476.30187350114807" y1="491.77895494000984" x2="476.73005394455043" y2="521.6237507305108" stroke="#00ff60" stroke-opacity=".52" stroke-width="1.5" filter="url(#skr1x3904)"/><line x1="500.3620024965145" y1="490.7429513014853" x2="500.9032001896761" y2="520.1208417412824" stroke="#00ff60" stroke-opacity=".52" stroke-width="1.5" filter="url(#skr1x3904)"/><line x1="521.4134242948703" y1="491.231868294347" x2="521.7641247211583" y2="520.8137224521488" stroke="#00ff60" stroke-opacity=".52" stroke-width="1.5" filter="url(#skr1x3904)"/><line x1="545.575967198629" y1="491.76659984206776" x2="546.1016181528755" y2="520.651516830083" stroke="#00ff60" stroke-opacity=".52" stroke-width="1.5" filter="url(#skr1x3904)"/><polygon points="434.4,503.9 567.4,502.2 553.4,556.8 445.9,557.7" fill="#00441e" fill-opacity=".72" stroke="#00ff60" stroke-width="1.3" filter="url(#skr1x3904)"/><path d="M390.1235941037163 328.6384426798672 Q332.42118494870135 216.65409934446214 381.0585880582594 141.74135356806218" stroke="#00ff60" stroke-width="5" fill="none" stroke-linecap="round" filter="url(#skr1x3904)"/><path d="M389.5560205963999 325.56234993590044 Q330.25226316764946 215.020151975099 382.63026343671606 139.73523177988827" stroke="rgba(255,255,255,.25)" stroke-width="1.5" fill="none" stroke-linecap="round"/><path d="M612.4706887334958 327.69621591316536 Q667.303878268078 217.71272028051317 620.6830340514518 141.3136682830751" stroke="#00ff60" stroke-width="5" fill="none" stroke-linecap="round" filter="url(#skr1x3904)"/><path d="M609.7893326753192 328.1515001951717 Q670.1677709392645 214.82864613980055 619.4681452796422 140.79192466950045" stroke="rgba(255,255,255,.25)" stroke-width="1.5" fill="none" stroke-linecap="round"/><text x="30.0"  y="975.0" font-family="monospace" font-weight="bold" font-size="22.0" fill="rgba(255,255,255,.22)">#0001</text><text x="500.0"   y="975.0" text-anchor="middle" font-family="monospace" font-weight="bold" font-size="22.0" fill="#00ff60" fill-opacity=".48">VIPER RANGER</text><text x="970.0" y="975.0" text-anchor="end"    font-family="monospace" font-weight="bold" font-size="22.0" fill="#00ff60" fill-opacity=".32">MECH RANGERS</text></svg>