<svg xmlns="http://www.w3.org/2000/svg" viewBox="0 0 1000 1000" width="1000" height="1000" shape-rendering="geometricPrecision"><defs>

  <!-- Scene gradients -->
  <radialGradient id="bgr1x3927" cx="50%" cy="42%" r="72%">
    <stop offset="0%"   stop-color="#1e0a2e"/>
    <stop offset="100%" stop-color="#0a0520"/>
  </radialGradient>
  <linearGradient id="suitr1x3927" x1="8%" y1="0%" x2="92%" y2="100%">
    <stop offset="0%"   stop-color="#ffcc00" stop-opacity=".95"/>
    <stop offset="45%"  stop-color="#a07000"/>
    <stop offset="100%" stop-color="#0a0520"/>
  </linearGradient>
  <linearGradient id="suitHir1x3927" x1="0%" y1="0%" x2="0%" y2="100%">
    <stop offset="0%"   stop-color="rgba(255,255,255,.28)"/>
    <stop offset="60%"  stop-color="rgba(255,255,255,.04)"/>
    <stop offset="100%" stop-color="rgba(255,255,255,0)"/>
  </linearGradient>
  <!-- Bevel: bright top, dark bottom for armour panels -->
  <linearGradient id="bevelr1x3927" x1="0%" y1="0%" x2="0%" y2="100%">
    <stop offset="0%"   stop-color="rgba(255,255,255,.55)"/>
    <stop offset="30%"  stop-color="#ffcc00"/>
    <stop offset="70%"  stop-color="#a07000"/>
    <stop offset="100%" stop-color="rgba(0,0,0,.5)"/>
  </linearGradient>

  <!-- Weapon: cold steel blade sweep -->
  <linearGradient id="blader1x3927" x1="0%" y1="0%" x2="100%" y2="0%">
    <stop offset="0%"   stop-color="#0e0e20"/>
    <stop offset="16%"  stop-color="#3e3e58"/>
    <stop offset="34%"  stop-color="#c8c8e0"/>
    <stop offset="50%"  stop-color="#f5f5ff"/>
    <stop offset="66%"  stop-color="#b8b8d0"/>
    <stop offset="84%"  stop-color="#2e2e48"/>
    <stop offset="100%" stop-color="#08080e"/>
  </linearGradient>
  <!-- Blade tip brightening -->
  <linearGradient id="bladeTipr1x3927" x1="0%" y1="100%" x2="0%" y2="0%">
    <stop offset="0%"   stop-color="rgba(255,255,255,0)"/>
    <stop offset="55%"  stop-color="rgba(255,255,255,.1)"/>
    <stop offset="100%" stop-color="rgba(255,255,255,.55)"/>
  </linearGradient>
  <!-- Gunmetal anodised — blaster body -->
  <linearGradient id="gunmetalr1x3927" x1="0%" y1="0%" x2="0%" y2="100%">
    <stop offset="0%"   stop-color="#46465e"/>
    <stop offset="18%"  stop-color="#828296"/>
    <stop offset="42%"  stop-color="#26263a"/>
    <stop offset="72%"  stop-color="#16162a"/>
    <stop offset="100%" stop-color="#0c0c18"/>
  </linearGradient>
  <!-- Brushed steel tube — barrel/rod -->
  <linearGradient id="barrelr1x3927" x1="0%" y1="0%" x2="100%" y2="0%">
    <stop offset="0%"   stop-color="#0a0a14"/>
    <stop offset="24%"  stop-color="#585875"/>
    <stop offset="50%"  stop-color="#a8a8c8"/>
    <stop offset="76%"  stop-color="#383852"/>
    <stop offset="100%" stop-color="#0a0a14"/>
  </linearGradient>
  <!-- Chrome rod — lance shaft -->
  <linearGradient id="chromer1x3927" x1="0%" y1="0%" x2="100%" y2="0%">
    <stop offset="0%"   stop-color="#0c0c18"/>
    <stop offset="20%"  stop-color="#686888"/>
    <stop offset="44%"  stop-color="#e0e0f0"/>
    <stop offset="56%"  stop-color="#c0c0d8"/>
    <stop offset="80%"  stop-color="#28283e"/>
    <stop offset="100%" stop-color="#0c0c18"/>
  </linearGradient>
  <!-- Titanium plate — shield face -->
  <linearGradient id="titaniumr1x3927" x1="0%" y1="0%" x2="100%" y2="100%">
    <stop offset="0%"   stop-color="#585878"/>
    <stop offset="28%"  stop-color="#ffcc00" stop-opacity=".88"/>
    <stop offset="55%"  stop-color="#a07000"/>
    <stop offset="80%"  stop-color="#181828"/>
    <stop offset="100%" stop-color="#0a0a18"/>
  </linearGradient>
  <!-- Artillery black-chrome — cannon body -->
  <linearGradient id="artilleryr1x3927" x1="0%" y1="0%" x2="0%" y2="100%">
    <stop offset="0%"   stop-color="#383850"/>
    <stop offset="14%"  stop-color="#78789a"/>
    <stop offset="36%"  stop-color="#202034"/>
    <stop offset="65%"  stop-color="#14141e"/>
    <stop offset="100%" stop-color="#0a0a12"/>
  </linearGradient>
  <!-- Energy orb — staff -->
  <radialGradient id="orbr1x3927" cx="35%" cy="35%" r="65%">
    <stop offset="0%"   stop-color="rgba(255,255,255,.9)"/>
    <stop offset="30%"  stop-color="#ffcc00"/>
    <stop offset="68%"  stop-color="#a07000"/>
    <stop offset="100%" stop-color="rgba(0,0,0,.6)"/>
  </radialGradient>
  <!-- Knuckle plate chrome -->
  <linearGradient id="knuckler1x3927" x1="0%" y1="0%" x2="0%" y2="100%">
    <stop offset="0%"   stop-color="#888aaa"/>
    <stop offset="32%"  stop-color="#ffcc00" stop-opacity=".8"/>
    <stop offset="62%"  stop-color="#1a1a2c"/>
    <stop offset="100%" stop-color="#0a0a14"/>
  </linearGradient>

  <!-- Carbon fibre weave texture overlay -->
  <pattern id="carbonr1x3927" width="6" height="6" patternUnits="userSpaceOnUse">
    <rect width="6" height="6" fill="rgba(0,0,0,.08)"/>
    <rect x="0" y="0" width="3" height="3" fill="rgba(255,255,255,.022)"/>
    <rect x="3" y="3" width="3" height="3" fill="rgba(255,255,255,.022)"/>
    <line x1="0" y1="0" x2="3" y2="3" stroke="rgba(255,255,255,.038)" stroke-width=".5"/>
    <line x1="3" y1="0" x2="6" y2="3" stroke="rgba(0,0,0,.055)"       stroke-width=".5"/>
    <line x1="0" y1="3" x2="3" y2="6" stroke="rgba(0,0,0,.055)"       stroke-width=".5"/>
    <line x1="3" y1="3" x2="6" y2="6" stroke="rgba(255,255,255,.038)" stroke-width=".5"/>
  </pattern>

  <!-- Specular metal sheen on armour panels -->
  <filter id="metalr1x3927" x="-5%" y="-5%" width="110%" height="110%">
    <feSpecularLighting surfaceScale="4" specularConstant="1.8"
        specularExponent="42" lighting-color="#ffffff" result="spec">
      <feDistantLight elevation="52" azimuth="38"/>
    </feSpecularLighting>
    <feComposite in="spec" in2="SourceGraphic" operator="in" result="sm"/>
    <feComposite in="SourceGraphic" in2="sm" operator="arithmetic" k1="0" k2="1" k3="0.55" k4="0"/>
  </filter>

  <!-- Sharper specular for weapons — heavier glare -->
  <filter id="wmr1x3927" x="-8%" y="-8%" width="116%" height="116%">
    <feSpecularLighting surfaceScale="6" specularConstant="2.4"
        specularExponent="65" lighting-color="#ffffff" result="spec">
      <feDistantLight elevation="44" azimuth="28"/>
    </feSpecularLighting>
    <feComposite in="spec" in2="SourceGraphic" operator="in" result="sm"/>
    <feComposite in="SourceGraphic" in2="sm" operator="arithmetic" k1="0" k2="1" k3="0.78" k4="0"/>
  </filter>

  <!-- Sketch wobble -->
  <filter id="skr1x3927" x="-8%" y="-8%" width="116%" height="116%">
    <feTurbulence type="fractalNoise" baseFrequency="0.038"
        numOctaves="3" seed="45" result="noise"/>
    <feDisplacementMap in="SourceGraphic" in2="noise" scale="2.6"
        xChannelSelector="R" yChannelSelector="G" result="w"/>
    <feComposite in="w" in2="SourceGraphic" operator="atop"/>
  </filter>

  <!-- Glow: sharp accent -->
  <filter id="glowr1x3927" x="-20%" y="-20%" width="140%" height="140%">
    <feGaussianBlur stdDeviation="3.5" result="b"/>
    <feColorMatrix in="b" type="matrix"
        values="0 0 0 0 1  0 0 0 0 1  0 0 0 0 1  0 0 0 1.8 0" result="boost"/>
    <feMerge><feMergeNode in="boost"/><feMergeNode in="SourceGraphic"/></feMerge>
  </filter>

  <!-- Bloom: wide soft -->
  <filter id="bloomr1x3927" x="-40%" y="-40%" width="180%" height="180%">
    <feGaussianBlur stdDeviation="11" result="b"/>
    <feMerge><feMergeNode in="b"/><feMergeNode in="SourceGraphic"/></feMerge>
  </filter>

  </defs><rect width="1000" height="1000" fill="url(#bgr1x3927)"/><ellipse cx="500.0" cy="892.0" rx="350.0" ry="65.0" fill="rgba(0,0,0,.7)" filter="url(#bloomr1x3927)"/><ellipse cx="500.0" cy="889.0" rx="220.0" ry="34.0" fill="rgba(0,0,0,.45)"/><ellipse cx="500.0" cy="520.0" rx="320.0" ry="480.0" fill="#00e5ff" fill-opacity=".042" filter="url(#bloomr1x3927)"/><circle cx="296.5" cy="231.6" r="3.1" fill="#00e5ff" fill-opacity="0.68" filter="url(#glowr1x3927)"/><circle cx="275.7" cy="409.8" r="2.6" fill="#00e5ff" fill-opacity="0.42" filter="url(#glowr1x3927)"/><circle cx="267.1" cy="481.1" r="1.5" fill="#00e5ff" fill-opacity="0.46" filter="url(#glowr1x3927)"/><circle cx="580.8" cy="553.4" r="3.6" fill="#00e5ff" fill-opacity="0.50" filter="url(#glowr1x3927)"/><circle cx="347.1" cy="325.0" r="2.6" fill="#00e5ff" fill-opacity="0.75" filter="url(#glowr1x3927)"/><circle cx="488.7" cy="748.5" r="4.2" fill="#00e5ff" fill-opacity="0.88" filter="url(#glowr1x3927)"/><circle cx="573.1" cy="700.4" r="1.9" fill="#00e5ff" fill-opacity="0.81" filter="url(#glowr1x3927)"/><circle cx="476.0" cy="298.6" r="3.1" fill="#00e5ff" fill-opacity="0.63" filter="url(#glowr1x3927)"/><circle cx="358.6" cy="745.8" r="1.7" fill="#00e5ff" fill-opacity="0.58" filter="url(#glowr1x3927)"/><circle cx="572.8" cy="523.9" r="3.1" fill="#00e5ff" fill-opacity="0.89" filter="url(#glowr1x3927)"/><circle cx="399.6" cy="703.1" r="3.3" fill="#00e5ff" fill-opacity="0.72" filter="url(#glowr1x3927)"/><circle cx="325.8" cy="650.5" r="1.9" fill="#00e5ff" fill-opacity="0.40" filter="url(#glowr1x3927)"/><circle cx="442.4" cy="279.6" r="2.4" fill="#00e5ff" fill-opacity="0.59" filter="url(#glowr1x3927)"/><circle cx="301.8" cy="372.6" r="2.1" fill="#00e5ff" fill-opacity="0.74" filter="url(#glowr1x3927)"/><path d="M384.8,280.9 Q355.7,581.6 495.5,851.9" stroke="#00e5ff" stroke-opacity="0.58" stroke-width="2.1" fill="none" filter="url(#glowr1x3927)"/><path d="M363.0,372.9 Q322.5,528.8 609.9,724.5" stroke="#00e5ff" stroke-opacity="0.69" stroke-width="1.7" fill="none" filter="url(#glowr1x3927)"/><path d="M589.9,372.3 Q612.0,521.2 645.8,702.1" stroke="#00e5ff" stroke-opacity="0.54" stroke-width="0.9" fill="none" filter="url(#glowr1x3927)"/><path d="M460.4,178.5 Q471.3,482.4 334.5,809.9" stroke="#00e5ff" stroke-opacity="0.79" stroke-width="2.6" fill="none" filter="url(#glowr1x3927)"/><path d="M511.7,265.3 Q514.1,541.4 460.9,807.3" stroke="#00e5ff" stroke-opacity="0.49" stroke-width="2.2" fill="none" filter="url(#glowr1x3927)"/><polygon points="399.0,662.7 490.5,661.9 480.1,877.6 387.8,877.5" fill="url(#suitr1x3927)" stroke="#ffcc00" stroke-width="2.2" filter="url(#skr1x3927) url(#metalr1x3927)"/><polygon points="398.8,661.4 489.0,663.9 480.5,877.6 389.0,877.9" fill="url(#carbonr1x3927)"/><polygon points="394.1,724.7 491.5,723.1 483.1,787.7 384.3,788.5" fill="url(#bevelr1x3927)" fill-opacity=".5" stroke="#ffcc00" stroke-width="1.4" filter="url(#skr1x3927)"/><polygon points="512.2,660.8 599.6,663.0 612.2,876.3 520.7,877.6" fill="url(#suitr1x3927)" stroke="#ffcc00" stroke-width="2.2" filter="url(#skr1x3927) url(#metalr1x3927)"/><polygon points="509.0,663.5 601.4,663.6 613.8,877.8 519.2,875.8" fill="url(#carbonr1x3927)"/><polygon points="507.1,724.0 608.0,722.1 616.4,789.5 514.1,787.5" fill="url(#bevelr1x3927)" fill-opacity=".5" stroke="#ffcc00" stroke-width="1.4" filter="url(#skr1x3927)"/><rect x="393.8" y="837.2" width="100.3" height="24.7" fill="url(#bevelr1x3927)" stroke="#ffcc00" stroke-width="1" filter="url(#skr1x3927)"/><rect x="508.4"  y="837.7" width="100.3" height="24.7" fill="url(#bevelr1x3927)" stroke="#ffcc00" stroke-width="1" filter="url(#skr1x3927)"/><polygon points="370.0,877.6 497.8,879.0 502.5,920.5 362.2,920.3" fill="#a07000" stroke="#ffcc00" stroke-width="2" filter="url(#skr1x3927)"/><polygon points="502.7,879.0 630.4,876.3 638.6,920.1 497.7,923.1" fill="#a07000" stroke="#ffcc00" stroke-width="2" filter="url(#skr1x3927)"/><polygon points="305.3,633.3 697.9,633.5 639.4,681.4 362.1,680.7" fill="#ffcc00" fill-opacity=".52" stroke="#ffcc00" stroke-width="2" filter="url(#skr1x3927)"/><rect x="464.2" y="638.2" width="72.0" height="42.0" fill="url(#bevelr1x3927)" stroke="#ffcc00" stroke-width="1.4" filter="url(#glowr1x3927)"/><rect x="484.8" y="639.4" width="28.0" height="22.0" rx="1" fill="rgba(255,255,255,.48)"/><polygon points="151.5,465.1 235.2,468.1 257.7,736.6 127.5,733.8" fill="url(#suitr1x3927)" stroke="#ffcc00" stroke-width="2.2" filter="url(#skr1x3927) url(#metalr1x3927)"/><polygon points="173.1,433.3 253.9,430.5 242.2,511.8 158.8,509.4" fill="url(#bevelr1x3927)" fill-opacity=".72" stroke="#ffcc00" stroke-width="2.2" filter="url(#skr1x3927)"/><polygon points="160.9,620.8 242.1,623.3 238.2,660.0 165.1,661.1" fill="#ffcc00" fill-opacity=".42" stroke="#ffcc00" stroke-width="1" filter="url(#skr1x3927)"/><polygon points="764.3,468.3 846.3,465.3 871.3,733.9 741.0,736.2" fill="url(#suitr1x3927)" stroke="#ffcc00" stroke-width="2.2" filter="url(#skr1x3927) url(#metalr1x3927)"/><polygon points="747.2,430.6 825.2,433.3 839.6,509.4 758.4,509.6" fill="url(#bevelr1x3927)" fill-opacity=".72" stroke="#ffcc00" stroke-width="2.2" filter="url(#skr1x3927)"/><polygon points="755.4,623.3 837.6,623.1 835.5,661.9 761.8,661.8" fill="#ffcc00" fill-opacity=".42" stroke="#ffcc00" stroke-width="1" filter="url(#skr1x3927)"/><rect x="119.7"  y="699.3" width="135.3" height="85.0" rx="4" fill="url(#bevelr1x3927)" stroke="#ffcc00" stroke-width="1.8" filter="url(#skr1x3927)"/><rect x="749.2"   y="699.9" width="135.3" height="85.0" rx="4" fill="url(#bevelr1x3927)" stroke="#ffcc00" stroke-width="1.8" filter="url(#skr1x3927)"/><line x1="149.7" y1="700.1" x2="148.5" y2="782.4" stroke="#ffcc00" stroke-opacity=".38" stroke-width="1"/><line x1="779.7" y1="702.1" x2="777.0" y2="784.8" stroke="#ffcc00" stroke-opacity=".38" stroke-width="1"/><line x1="181.8" y1="701.4" x2="183.5" y2="784.9" stroke="#ffcc00" stroke-opacity=".38" stroke-width="1"/><line x1="812.5" y1="700.2" x2="811.4" y2="785.2" stroke="#ffcc00" stroke-opacity=".38" stroke-width="1"/><line x1="216.2" y1="703.3" x2="214.1" y2="782.9" stroke="#ffcc00" stroke-opacity=".38" stroke-width="1"/><line x1="842.3" y1="700.5" x2="844.1" y2="785.5" stroke="#ffcc00" stroke-opacity=".38" stroke-width="1"/><polygon points="234.8,416.3 766.1,416.5 723.8,662.1 276.5,663.6" fill="url(#suitr1x3927)" stroke="#ffcc00" stroke-width="2.6" filter="url(#skr1x3927) url(#metalr1x3927)"/><polygon points="235.6,415.9 765.1,416.2 721.9,660.7 277.1,662.6" fill="url(#carbonr1x3927)"/><polygon points="367.7,417.7 633.6,417.4 611.0,514.0 390.3,516.3" fill="url(#suitHir1x3927)"/><line x1="362.3" y1="470.8" x2="638.1" y2="470.9" stroke="#ffcc00" stroke-opacity=".52" stroke-width="1.3" filter="url(#skr1x3927)"/><line x1="401.0" y1="549.3" x2="600.0" y2="551.1" stroke="#ffcc00" stroke-opacity=".52" stroke-width="1.3" filter="url(#skr1x3927)"/><line x1="268.6" y1="490.3" x2="321.1" y2="491.8" stroke="#ffcc00" stroke-opacity=".62" stroke-width="1.8"/><line x1="681.2" y1="491.3" x2="734.4" y2="492.1" stroke="#ffcc00" stroke-opacity=".62" stroke-width="1.8"/><line x1="265.4" y1="523.7" x2="319.7" y2="524.4" stroke="#ffcc00" stroke-opacity=".62" stroke-width="1.8"/><line x1="679.2" y1="523.4" x2="733.8" y2="522.4" stroke="#ffcc00" stroke-opacity=".62" stroke-width="1.8"/><line x1="266.1" y1="554.1" x2="319.7" y2="553.3" stroke="#ffcc00" stroke-opacity=".62" stroke-width="1.8"/><line x1="680.0" y1="553.4" x2="733.1" y2="555.3" stroke="#ffcc00" stroke-opacity=".62" stroke-width="1.8"/><line x1="265.3" y1="588.0" x2="318.8" y2="587.3" stroke="#ffcc00" stroke-opacity=".62" stroke-width="1.8"/><line x1="680.9" y1="587.1" x2="733.2" y2="587.8" stroke="#ffcc00" stroke-opacity=".62" stroke-width="1.8"/><g filter="url(#glowr1x3927)"><circle cx="499.1" cy="498.9" r="31.3" fill="#ffcc00" stroke="#0a0520" stroke-width="1.4" filter="url(#skr1x3927)"/><circle cx="490.0" cy="496.6" r="7.0" fill="#0a0520"/><circle cx="510.3" cy="499.1" r="7.0" fill="#0a0520"/><rect x="484.2" y="524.0" width="9.3" height="17.4" rx="1" fill="#ffcc00" stroke="#0a0520" stroke-width=".6"/><rect x="495.6" y="522.4" width="9.3" height="17.4" rx="1" fill="#ffcc00" stroke="#0a0520" stroke-width=".6"/><rect x="508.2" y="523.0" width="9.3" height="17.4" rx="1" fill="#ffcc00" stroke="#0a0520" stroke-width=".6"/></g><g><rect x="33.63719344459471" y="420.28788731023667" width="148.0" height="82.0" rx="5" fill="url(#gunmetalr1x3927)" stroke="#ffcc00" stroke-width="2" filter="url(#wmr1x3927)"/><rect x="32.61625379513946" y="421.8426042520441" width="148.0" height="82.0" rx="5" fill="url(#carbonr1x3927)"/><rect x="41.016996201723785" y="404.99374532094225" width="90.0" height="22.0" rx="3" fill="url(#barrelr1x3927)" stroke="#ffcc00" stroke-width="1" filter="url(#wmr1x3927)"/><circle cx="82.18963185580444" cy="412.90130230104546" r="15.0" fill="#ffcc00" opacity=".8" filter="url(#glowr1x3927)"/><circle cx="81.04176982682195" cy="415.0479803727008" r="6.0" fill="rgba(255,255,255,.9)"/><rect x="54.425215798933024" y="454.1473832644522" width="78.0" height="36.0" rx="5" fill="url(#barrelr1x3927)" stroke="#ffcc00" stroke-width="1.2" filter="url(#wmr1x3927)"/><circle cx="-20.38776470810178" cy="469.63734324360263" r="18.0" fill="#ffcc00" filter="url(#glowr1x3927)" opacity=".88"/><circle cx="-18.309082118570835" cy="472.5095185250975" r="7.0" fill="#ffffff"/><rect x="78.09171090064567" y="502.5797623815015" width="44.0" height="42.0" rx="3" fill="url(#gunmetalr1x3927)" stroke="#ffcc00" stroke-width="1" filter="url(#wmr1x3927)"/><rect x="37.593466021250904" y="422.2291437166743" width="90.0" height="10.0" rx="2" fill="rgba(255,255,255,.22)"/><line x1="63.133386048339275" y1="485.7625119277276" x2="63.32336356848475" y2="518.5750451220199" stroke="#ffcc00" stroke-opacity=".5" stroke-width="1.2"/><line x1="78.9070048230141" y1="488.0334707207046" x2="79.19624429469926" y2="521.0599428915418" stroke="#ffcc00" stroke-opacity=".5" stroke-width="1.2"/><line x1="92.9200124900229" y1="485.8109594085254" x2="93.49890536362302" y2="519.0332642335444" stroke="#ffcc00" stroke-opacity=".5" stroke-width="1.2"/></g><rect x="450.8672863220796" y="556.367354692053" width="100.0"  height="56.0" fill="#a07000" stroke="#ffcc00" stroke-width="2.2" filter="url(#skr1x3927)"/><rect x="422.27943122191357" y="575.1269676995464" width="152.0" height="26.0" fill="url(#bevelr1x3927)" fill-opacity=".65" stroke="#ffcc00" stroke-width="1.2" filter="url(#skr1x3927)"/><polygon points="307.2,382.2 349.2,292.9 499.0,278.8 650.7,293.0 693.3,382.1 668.4,502.5 500.5,565.2 331.7,502.7" fill="url(#suitr1x3927)" stroke="#ffcc00" stroke-width="2.8" filter="url(#skr1x3927) url(#metalr1x3927)"/><polygon points="306.8,381.3 350.1,296.0 498.5,277.2 650.2,295.7 690.4,381.3 670.7,504.4 500.9,566.1 332.1,504.5" fill="url(#carbonr1x3927)"/><polygon points="381.1,302.0 501.2,287.9 619.4,301.8 608.3,381.2 393.4,380.6" fill="url(#suitHir1x3927)"/><polygon points="382.0,381.3 366.1,424.4 432.8,502.6 499.2,528.9 567.0,503.5 635.6,426.0 618.4,381.1" fill="#0a0520" fill-opacity=".88" stroke="#ffcc00" stroke-width="1.8" filter="url(#skr1x3927)"/><polygon points="381.9,409.6 477.3,410.1 484.9,439.8 389.6,439.7" fill="#ffcc00" filter="url(#glowr1x3927)"/><polygon points="522.9,412.4 618.1,410.9 612.4,441.3 515.7,438.3" fill="#ffcc00" filter="url(#glowr1x3927)"/><ellipse cx="430.9" cy="425.7" rx="38.4"  ry="8.2" fill="#ffffff" opacity=".88"/><ellipse cx="569.1" cy="425.7" rx="38.4"  ry="8.2" fill="#ffffff" opacity=".88"/><line x1="486.43198931790886" y1="413.312571126502" x2="516.5352391302027" y2="414.2846753706224" stroke="#ffcc00" stroke-opacity=".52" stroke-width="2"/><line x1="484.12288946161044" y1="437.51929405024276" x2="516.3737349032797" y2="439.49058676091954" stroke="#ffcc00" stroke-opacity=".52" stroke-width="2"/><line x1="498.31972713842987" y1="453.1806877969764" x2="498.2857111072168" y2="483.1788832717575" stroke="#ffcc00" stroke-opacity=".58" stroke-width="2.2" filter="url(#skr1x3927)"/><line x1="454.53955478675664" y1="490.8974209675565" x2="455.5925469110534" y2="521.6329945632257" stroke="#ffcc00" stroke-opacity=".52" stroke-width="1.5" filter="url(#skr1x3927)"/><line x1="477.05379087630655" y1="491.6697039534337" x2="477.3834697308391" y2="521.38787733512" stroke="#ffcc00" stroke-opacity=".52" stroke-width="1.5" filter="url(#skr1x3927)"/><line x1="500.46515341391785" y1="491.42606651764356" x2="500.6049889509566" y2="520.3272305341437" stroke="#ffcc00" stroke-opacity=".52" stroke-width="1.5" filter="url(#skr1x3927)"/><line x1="524.575758233536" y1="491.29932628776874" x2="521.3395616900734" y2="520.7744640082121" stroke="#ffcc00" stroke-opacity=".52" stroke-width="1.5" filter="url(#skr1x3927)"/><line x1="546.9691536756419" y1="490.29063079254695" x2="547.356220443938" y2="518.5366216536611" stroke="#ffcc00" stroke-opacity=".52" stroke-width="1.5" filter="url(#skr1x3927)"/><polygon points="434.2,502.9 565.7,503.9 555.6,555.2 447.3,557.1" fill="#a07000" fill-opacity=".72" stroke="#ffcc00" stroke-width="1.3" filter="url(#skr1x3927)"/><text x="30.0"  y="975.0" font-family="monospace" font-weight="bold" font-size="22.0" fill="rgba(255,255,255,.22)">#0001</text><text x="500.0"   y="975.0" text-anchor="middle" font-family="monospace" font-weight="bold" font-size="22.0" fill="#ffcc00" fill-opacity=".48">NOVA RANGER</text><text x="970.0" y="975.0" text-anchor="end"    font-family="monospace" font-weight="bold" font-size="22.0" fill="#ffcc00" fill-opacity=".32">MECH RANGERS</text></svg>