<svg xmlns="http://www.w3.org/2000/svg" viewBox="0 0 1000 1000" width="1000" height="1000" shape-rendering="geometricPrecision"><defs>

  <!-- Scene gradients -->
  <radialGradient id="bgr1x3989" cx="50%" cy="42%" r="72%">
    <stop offset="0%"   stop-color="#001422"/>
    <stop offset="100%" stop-color="#000a14"/>
  </radialGradient>
  <linearGradient id="suitr1x3989" x1="8%" y1="0%" x2="92%" y2="100%">
    <stop offset="0%"   stop-color="#ff44aa" stop-opacity=".95"/>
    <stop offset="45%"  stop-color="#880050"/>
    <stop offset="100%" stop-color="#000a14"/>
  </linearGradient>
  <linearGradient id="suitHir1x3989" x1="0%" y1="0%" x2="0%" y2="100%">
    <stop offset="0%"   stop-color="rgba(255,255,255,.28)"/>
    <stop offset="60%"  stop-color="rgba(255,255,255,.04)"/>
    <stop offset="100%" stop-color="rgba(255,255,255,0)"/>
  </linearGradient>
  <!-- Bevel: bright top, dark bottom for armour panels -->
  <linearGradient id="bevelr1x3989" x1="0%" y1="0%" x2="0%" y2="100%">
    <stop offset="0%"   stop-color="rgba(255,255,255,.55)"/>
    <stop offset="30%"  stop-color="#ff44aa"/>
    <stop offset="70%"  stop-color="#880050"/>
    <stop offset="100%" stop-color="rgba(0,0,0,.5)"/>
  </linearGradient>

  <!-- Weapon: cold steel blade sweep -->
  <linearGradient id="blader1x3989" x1="0%" y1="0%" x2="100%" y2="0%">
    <stop offset="0%"   stop-color="#0e0e20"/>
    <stop offset="16%"  stop-color="#3e3e58"/>
    <stop offset="34%"  stop-color="#c8c8e0"/>
    <stop offset="50%"  stop-color="#f5f5ff"/>
    <stop offset="66%"  stop-color="#b8b8d0"/>
    <stop offset="84%"  stop-color="#2e2e48"/>
    <stop offset="100%" stop-color="#08080e"/>
  </linearGradient>
  <!-- Blade tip brightening -->
  <linearGradient id="bladeTipr1x3989" x1="0%" y1="100%" x2="0%" y2="0%">
    <stop offset="0%"   stop-color="rgba(255,255,255,0)"/>
    <stop offset="55%"  stop-color="rgba(255,255,255,.1)"/>
    <stop offset="100%" stop-color="rgba(255,255,255,.55)"/>
  </linearGradient>
  <!-- Gunmetal anodised — blaster body -->
  <linearGradient id="gunmetalr1x3989" x1="0%" y1="0%" x2="0%" y2="100%">
    <stop offset="0%"   stop-color="#46465e"/>
    <stop offset="18%"  stop-color="#828296"/>
    <stop offset="42%"  stop-color="#26263a"/>
    <stop offset="72%"  stop-color="#16162a"/>
    <stop offset="100%" stop-color="#0c0c18"/>
  </linearGradient>
  <!-- Brushed steel tube — barrel/rod -->
  <linearGradient id="barrelr1x3989" x1="0%" y1="0%" x2="100%" y2="0%">
    <stop offset="0%"   stop-color="#0a0a14"/>
    <stop offset="24%"  stop-color="#585875"/>
    <stop offset="50%"  stop-color="#a8a8c8"/>
    <stop offset="76%"  stop-color="#383852"/>
    <stop offset="100%" stop-color="#0a0a14"/>
  </linearGradient>
  <!-- Chrome rod — lance shaft -->
  <linearGradient id="chromer1x3989" x1="0%" y1="0%" x2="100%" y2="0%">
    <stop offset="0%"   stop-color="#0c0c18"/>
    <stop offset="20%"  stop-color="#686888"/>
    <stop offset="44%"  stop-color="#e0e0f0"/>
    <stop offset="56%"  stop-color="#c0c0d8"/>
    <stop offset="80%"  stop-color="#28283e"/>
    <stop offset="100%" stop-color="#0c0c18"/>
  </linearGradient>
  <!-- Titanium plate — shield face -->
  <linearGradient id="titaniumr1x3989" x1="0%" y1="0%" x2="100%" y2="100%">
    <stop offset="0%"   stop-color="#585878"/>
    <stop offset="28%"  stop-color="#ff44aa" stop-opacity=".88"/>
    <stop offset="55%"  stop-color="#880050"/>
    <stop offset="80%"  stop-color="#181828"/>
    <stop offset="100%" stop-color="#0a0a18"/>
  </linearGradient>
  <!-- Artillery black-chrome — cannon body -->
  <linearGradient id="artilleryr1x3989" x1="0%" y1="0%" x2="0%" y2="100%">
    <stop offset="0%"   stop-color="#383850"/>
    <stop offset="14%"  stop-color="#78789a"/>
    <stop offset="36%"  stop-color="#202034"/>
    <stop offset="65%"  stop-color="#14141e"/>
    <stop offset="100%" stop-color="#0a0a12"/>
  </linearGradient>
  <!-- Energy orb — staff -->
  <radialGradient id="orbr1x3989" cx="35%" cy="35%" r="65%">
    <stop offset="0%"   stop-color="rgba(255,255,255,.9)"/>
    <stop offset="30%"  stop-color="#ff44aa"/>
    <stop offset="68%"  stop-color="#880050"/>
    <stop offset="100%" stop-color="rgba(0,0,0,.6)"/>
  </radialGradient>
  <!-- Knuckle plate chrome -->
  <linearGradient id="knuckler1x3989" x1="0%" y1="0%" x2="0%" y2="100%">
    <stop offset="0%"   stop-color="#888aaa"/>
    <stop offset="32%"  stop-color="#ff44aa" stop-opacity=".8"/>
    <stop offset="62%"  stop-color="#1a1a2c"/>
    <stop offset="100%" stop-color="#0a0a14"/>
  </linearGradient>

  <!-- Carbon fibre weave texture overlay -->
  <pattern id="carbonr1x3989" width="6" height="6" patternUnits="userSpaceOnUse">
    <rect width="6" height="6" fill="rgba(0,0,0,.08)"/>
    <rect x="0" y="0" width="3" height="3" fill="rgba(255,255,255,.022)"/>
    <rect x="3" y="3" width="3" height="3" fill="rgba(255,255,255,.022)"/>
    <line x1="0" y1="0" x2="3" y2="3" stroke="rgba(255,255,255,.038)" stroke-width=".5"/>
    <line x1="3" y1="0" x2="6" y2="3" stroke="rgba(0,0,0,.055)"       stroke-width=".5"/>
    <line x1="0" y1="3" x2="3" y2="6" stroke="rgba(0,0,0,.055)"       stroke-width=".5"/>
    <line x1="3" y1="3" x2="6" y2="6" stroke="rgba(255,255,255,.038)" stroke-width=".5"/>
  </pattern>

  <!-- Specular metal sheen on armour panels -->
  <filter id="metalr1x3989" x="-5%" y="-5%" width="110%" height="110%">
    <feSpecularLighting surfaceScale="4" specularConstant="1.8"
        specularExponent="42" lighting-color="#ffffff" result="spec">
      <feDistantLight elevation="52" azimuth="38"/>
    </feSpecularLighting>
    <feComposite in="spec" in2="SourceGraphic" operator="in" result="sm"/>
    <feComposite in="SourceGraphic" in2="sm" operator="arithmetic" k1="0" k2="1" k3="0.55" k4="0"/>
  </filter>

  <!-- Sharper specular for weapons — heavier glare -->
  <filter id="wmr1x3989" x="-8%" y="-8%" width="116%" height="116%">
    <feSpecularLighting surfaceScale="6" specularConstant="2.4"
        specularExponent="65" lighting-color="#ffffff" result="spec">
      <feDistantLight elevation="44" azimuth="28"/>
    </feSpecularLighting>
    <feComposite in="spec" in2="SourceGraphic" operator="in" result="sm"/>
    <feComposite in="SourceGraphic" in2="sm" operator="arithmetic" k1="0" k2="1" k3="0.78" k4="0"/>
  </filter>

  <!-- Sketch wobble -->
  <filter id="skr1x3989" x="-8%" y="-8%" width="116%" height="116%">
    <feTurbulence type="fractalNoise" baseFrequency="0.038"
        numOctaves="3" seed="25" result="noise"/>
    <feDisplacementMap in="SourceGraphic" in2="noise" scale="2.6"
        xChannelSelector="R" yChannelSelector="G" result="w"/>
    <feComposite in="w" in2="SourceGraphic" operator="atop"/>
  </filter>

  <!-- Glow: sharp accent -->
  <filter id="glowr1x3989" x="-20%" y="-20%" width="140%" height="140%">
    <feGaussianBlur stdDeviation="3.5" result="b"/>
    <feColorMatrix in="b" type="matrix"
        values="0 0 0 0 1  0 0 0 0 1  0 0 0 0 1  0 0 0 1.8 0" result="boost"/>
    <feMerge><feMergeNode in="boost"/><feMergeNode in="SourceGraphic"/></feMerge>
  </filter>

  <!-- Bloom: wide soft -->
  <filter id="bloomr1x3989" x="-40%" y="-40%" width="180%" height="180%">
    <feGaussianBlur stdDeviation="11" result="b"/>
    <feMerge><feMergeNode in="b"/><feMergeNode in="SourceGraphic"/></feMerge>
  </filter>

  </defs><rect width="1000" height="1000" fill="url(#bgr1x3989)"/><line x1="0" y1="0.8" x2="1000" y2="2.4" stroke="#ff44aa" stroke-opacity=".055" stroke-width="1.2"/><line x1="-1.5" y1="0" x2="-0.8" y2="1000" stroke="#ff44aa" stroke-opacity=".055" stroke-width="1.2"/><line x1="0" y1="100.7" x2="1000" y2="98.1" stroke="#ff44aa" stroke-opacity=".055" stroke-width="1.2"/><line x1="99.7" y1="0" x2="98.7" y2="1000" stroke="#ff44aa" stroke-opacity=".055" stroke-width="1.2"/><line x1="0" y1="197.8" x2="1000" y2="201.7" stroke="#ff44aa" stroke-opacity=".055" stroke-width="1.2"/><line x1="201.4" y1="0" x2="201.3" y2="1000" stroke="#ff44aa" stroke-opacity=".055" stroke-width="1.2"/><line x1="0" y1="300.2" x2="1000" y2="298.5" stroke="#ff44aa" stroke-opacity=".055" stroke-width="1.2"/><line x1="302.1" y1="0" x2="300.9" y2="1000" stroke="#ff44aa" stroke-opacity=".055" stroke-width="1.2"/><line x1="0" y1="399.4" x2="1000" y2="401.0" stroke="#ff44aa" stroke-opacity=".055" stroke-width="1.2"/><line x1="402.9" y1="0" x2="400.2" y2="1000" stroke="#ff44aa" stroke-opacity=".055" stroke-width="1.2"/><line x1="0" y1="501.6" x2="1000" y2="498.9" stroke="#ff44aa" stroke-opacity=".055" stroke-width="1.2"/><line x1="501.6" y1="0" x2="501.9" y2="1000" stroke="#ff44aa" stroke-opacity=".055" stroke-width="1.2"/><line x1="0" y1="600.8" x2="1000" y2="599.5" stroke="#ff44aa" stroke-opacity=".055" stroke-width="1.2"/><line x1="597.6" y1="0" x2="599.6" y2="1000" stroke="#ff44aa" stroke-opacity=".055" stroke-width="1.2"/><line x1="0" y1="698.9" x2="1000" y2="697.9" stroke="#ff44aa" stroke-opacity=".055" stroke-width="1.2"/><line x1="701.5" y1="0" x2="702.3" y2="1000" stroke="#ff44aa" stroke-opacity=".055" stroke-width="1.2"/><line x1="0" y1="800.0" x2="1000" y2="801.6" stroke="#ff44aa" stroke-opacity=".055" stroke-width="1.2"/><line x1="801.0" y1="0" x2="799.1" y2="1000" stroke="#ff44aa" stroke-opacity=".055" stroke-width="1.2"/><line x1="0" y1="901.4" x2="1000" y2="899.5" stroke="#ff44aa" stroke-opacity=".055" stroke-width="1.2"/><line x1="898.6" y1="0" x2="899.6" y2="1000" stroke="#ff44aa" stroke-opacity=".055" stroke-width="1.2"/><path d="M80,30 L30,30 L30,80" stroke="#ff44aa" stroke-opacity=".45" stroke-width="2" fill="none" filter="url(#glowr1x3989)"/><path d="M920,30 L970,30 L970,80" stroke="#ff44aa" stroke-opacity=".45" stroke-width="2" fill="none" filter="url(#glowr1x3989)"/><path d="M30,920 L30,970 L80,970" stroke="#ff44aa" stroke-opacity=".45" stroke-width="2" fill="none" filter="url(#glowr1x3989)"/><path d="M970,920 L970,970 L920,970" stroke="#ff44aa" stroke-opacity=".45" stroke-width="2" fill="none" filter="url(#glowr1x3989)"/><ellipse cx="500.0" cy="892.0" rx="350.0" ry="65.0" fill="rgba(0,0,0,.7)" filter="url(#bloomr1x3989)"/><ellipse cx="500.0" cy="889.0" rx="220.0" ry="34.0" fill="rgba(0,0,0,.45)"/><polygon points="399.3,661.4 488.0,663.6 482.2,877.5 389.1,876.3" fill="url(#suitr1x3989)" stroke="#ff44aa" stroke-width="2.2" filter="url(#skr1x3989) url(#metalr1x3989)"/><polygon points="400.1,663.9 488.9,663.5 479.2,876.5 386.7,876.5" fill="url(#carbonr1x3989)"/><polygon points="393.4,724.2 493.6,722.8 482.8,788.3 383.7,788.6" fill="url(#bevelr1x3989)" fill-opacity=".5" stroke="#ff44aa" stroke-width="1.4" filter="url(#skr1x3989)"/><polygon points="510.2,662.4 600.1,663.5 612.7,877.4 520.6,878.1" fill="url(#suitr1x3989)" stroke="#ff44aa" stroke-width="2.2" filter="url(#skr1x3989) url(#metalr1x3989)"/><polygon points="509.0,660.9 600.9,660.9 613.1,877.0 517.8,877.3" fill="url(#carbonr1x3989)"/><polygon points="507.2,722.5 605.9,724.7 617.6,789.5 514.6,786.5" fill="url(#bevelr1x3989)" fill-opacity=".5" stroke="#ff44aa" stroke-width="1.4" filter="url(#skr1x3989)"/><rect x="393.2" y="837.0" width="100.3" height="24.7" fill="url(#bevelr1x3989)" stroke="#ff44aa" stroke-width="1" filter="url(#skr1x3989)"/><rect x="505.6"  y="840.3" width="100.3" height="24.7" fill="url(#bevelr1x3989)" stroke="#ff44aa" stroke-width="1" filter="url(#skr1x3989)"/><polygon points="370.6,878.1 498.3,879.1 504.0,921.4 363.0,920.1" fill="#880050" stroke="#ff44aa" stroke-width="2" filter="url(#skr1x3989)"/><polygon points="505.3,879.0 629.3,878.5 638.5,921.8 497.9,921.4" fill="#880050" stroke="#ff44aa" stroke-width="2" filter="url(#skr1x3989)"/><polygon points="305.2,634.9 694.8,631.9 637.9,681.4 361.2,681.6" fill="#ff44aa" fill-opacity=".52" stroke="#ff44aa" stroke-width="2" filter="url(#skr1x3989)"/><rect x="462.2" y="638.4" width="72.0" height="42.0" fill="url(#bevelr1x3989)" stroke="#ff44aa" stroke-width="1.4" filter="url(#glowr1x3989)"/><rect x="484.7" y="639.7" width="28.0" height="22.0" rx="1" fill="rgba(255,255,255,.48)"/><polygon points="152.5,466.3 234.9,466.2 256.6,734.2 126.7,733.6" fill="url(#suitr1x3989)" stroke="#ff44aa" stroke-width="2.2" filter="url(#skr1x3989) url(#metalr1x3989)"/><polygon points="172.7,432.8 253.2,432.6 243.4,508.9 159.6,512.1" fill="url(#bevelr1x3989)" fill-opacity=".72" stroke="#ff44aa" stroke-width="2.2" filter="url(#skr1x3989)"/><polygon points="160.0,621.0 242.1,622.4 238.6,661.7 166.3,662.2" fill="#ff44aa" fill-opacity=".42" stroke="#ff44aa" stroke-width="1" filter="url(#skr1x3989)"/><polygon points="763.4,465.0 846.1,467.4 869.8,733.8 742.4,733.4" fill="url(#suitr1x3989)" stroke="#ff44aa" stroke-width="2.2" filter="url(#skr1x3989) url(#metalr1x3989)"/><polygon points="745.4,433.2 827.6,431.4 841.5,510.6 756.9,512.1" fill="url(#bevelr1x3989)" fill-opacity=".72" stroke="#ff44aa" stroke-width="2.2" filter="url(#skr1x3989)"/><polygon points="756.1,622.1 837.7,620.4 833.2,660.7 761.3,659.2" fill="#ff44aa" fill-opacity=".42" stroke="#ff44aa" stroke-width="1" filter="url(#skr1x3989)"/><rect x="119.1"  y="699.3" width="135.3" height="85.0" rx="4" fill="url(#bevelr1x3989)" stroke="#ff44aa" stroke-width="1.8" filter="url(#skr1x3989)"/><rect x="746.9"   y="698.7" width="135.3" height="85.0" rx="4" fill="url(#bevelr1x3989)" stroke="#ff44aa" stroke-width="1.8" filter="url(#skr1x3989)"/><line x1="150.1" y1="700.5" x2="150.0" y2="782.2" stroke="#ff44aa" stroke-opacity=".38" stroke-width="1"/><line x1="777.0" y1="703.5" x2="777.8" y2="783.3" stroke="#ff44aa" stroke-opacity=".38" stroke-width="1"/><line x1="183.0" y1="703.0" x2="183.1" y2="784.9" stroke="#ff44aa" stroke-opacity=".38" stroke-width="1"/><line x1="812.3" y1="700.9" x2="809.6" y2="783.2" stroke="#ff44aa" stroke-opacity=".38" stroke-width="1"/><line x1="215.0" y1="702.8" x2="213.9" y2="784.4" stroke="#ff44aa" stroke-opacity=".38" stroke-width="1"/><line x1="844.4" y1="703.2" x2="842.7" y2="784.8" stroke="#ff44aa" stroke-opacity=".38" stroke-width="1"/><polygon points="233.8,419.1 766.7,416.6 723.4,661.8 279.0,663.4" fill="url(#suitr1x3989)" stroke="#ff44aa" stroke-width="2.6" filter="url(#skr1x3989) url(#metalr1x3989)"/><polygon points="236.7,415.8 766.7,417.9 723.9,661.4 277.7,663.2" fill="url(#carbonr1x3989)"/><polygon points="368.7,416.6 633.7,417.1 610.8,516.7 389.5,515.0" fill="url(#suitHir1x3989)"/><line x1="362.7" y1="471.8" x2="638.8" y2="472.2" stroke="#ff44aa" stroke-opacity=".52" stroke-width="1.3" filter="url(#skr1x3989)"/><line x1="400.9" y1="550.8" x2="600.0" y2="549.6" stroke="#ff44aa" stroke-opacity=".52" stroke-width="1.3" filter="url(#skr1x3989)"/><line x1="268.2" y1="492.5" x2="321.2" y2="491.8" stroke="#ff44aa" stroke-opacity=".62" stroke-width="1.8"/><line x1="679.6" y1="489.8" x2="733.7" y2="490.2" stroke="#ff44aa" stroke-opacity=".62" stroke-width="1.8"/><line x1="267.7" y1="522.5" x2="321.0" y2="522.0" stroke="#ff44aa" stroke-opacity=".62" stroke-width="1.8"/><line x1="680.3" y1="522.4" x2="734.1" y2="522.3" stroke="#ff44aa" stroke-opacity=".62" stroke-width="1.8"/><line x1="267.2" y1="554.8" x2="321.5" y2="556.4" stroke="#ff44aa" stroke-opacity=".62" stroke-width="1.8"/><line x1="680.3" y1="556.0" x2="731.9" y2="554.3" stroke="#ff44aa" stroke-opacity=".62" stroke-width="1.8"/><line x1="267.3" y1="588.0" x2="318.0" y2="587.3" stroke="#ff44aa" stroke-opacity=".62" stroke-width="1.8"/><line x1="680.9" y1="586.0" x2="732.5" y2="585.0" stroke="#ff44aa" stroke-opacity=".62" stroke-width="1.8"/><g filter="url(#glowr1x3989)"><ellipse cx="498.9" cy="511.4" rx="42.9" ry="23.2" fill="#000a14" stroke="#ff44aa" stroke-width="1.6" filter="url(#skr1x3989)"/><circle cx="499.1" cy="509.3" r="15.1" fill="#ff44aa"/><circle cx="495.4" cy="507.5" r="5.8" fill="#000a14"/><ellipse cx="494.8" cy="506.4" rx="3.5" ry="2.3" fill="rgba(255,255,255,.7)"/></g><g><rect x="829.1123452991807" y="420.15178344426675" width="148.0" height="82.0" rx="5" fill="url(#gunmetalr1x3989)" stroke="#ff44aa" stroke-width="2" filter="url(#wmr1x3989)"/><rect x="831.5476502477751" y="420.57297296803443" width="148.0" height="82.0" rx="5" fill="url(#carbonr1x3989)"/><rect x="837.2259091814608" y="401.6223284269683" width="90.0" height="22.0" rx="3" fill="url(#barrelr1x3989)" stroke="#ff44aa" stroke-width="1" filter="url(#wmr1x3989)"/><circle cx="876.3224757494032" cy="413.0141476136632" r="15.0" fill="#ff44aa" opacity=".8" filter="url(#glowr1x3989)"/><circle cx="878.155678459406" cy="412.6159183447249" r="6.0" fill="rgba(255,255,255,.9)"/><rect x="944.9323603713513" y="457.1923394953832" width="78.0" height="36.0" rx="5" fill="url(#barrelr1x3989)" stroke="#ff44aa" stroke-width="1.2" filter="url(#wmr1x3989)"/><circle cx="1020.4775338542275" cy="471.25793529748915" r="18.0" fill="#ff44aa" filter="url(#glowr1x3989)" opacity=".88"/><circle cx="1019.3064883712307" cy="470.3228517655283" r="7.0" fill="#ffffff"/><rect x="874.8768255176582" y="502.9859128205105" width="44.0" height="42.0" rx="3" fill="url(#gunmetalr1x3989)" stroke="#ff44aa" stroke-width="1" filter="url(#wmr1x3989)"/><rect x="833.1847529035621" y="422.20424181576817" width="90.0" height="10.0" rx="2" fill="rgba(255,255,255,.22)"/><line x1="856.0900972019509" y1="486.31937335608524" x2="857.0417841324211" y2="519.5817765311338" stroke="#ff44aa" stroke-opacity=".5" stroke-width="1.2"/><line x1="872.5733913526498" y1="484.67968155415724" x2="875.1190620482527" y2="518.9989117770456" stroke="#ff44aa" stroke-opacity=".5" stroke-width="1.2"/><line x1="891.2535747473687" y1="486.42652826923876" x2="889.3145972372591" y2="518.31542834891" stroke="#ff44aa" stroke-opacity=".5" stroke-width="1.2"/></g><rect x="449.79035879820583" y="557.8565446473658" width="100.0"  height="56.0" fill="#880050" stroke="#ff44aa" stroke-width="2.2" filter="url(#skr1x3989)"/><rect x="424.38920225426557" y="575.7907314264215" width="152.0" height="26.0" fill="url(#bevelr1x3989)" fill-opacity=".65" stroke="#ff44aa" stroke-width="1.2" filter="url(#skr1x3989)"/><polygon points="308.1,380.6 350.8,295.4 501.2,279.2 650.0,294.9 690.9,379.3 668.5,502.7 499.4,566.1 329.7,504.0" fill="url(#suitr1x3989)" stroke="#ff44aa" stroke-width="2.8" filter="url(#skr1x3989) url(#metalr1x3989)"/><polygon points="308.6,380.2 350.3,295.5 498.8,276.7 648.5,296.0 690.3,382.3 668.2,502.3 498.5,566.4 332.7,504.8" fill="url(#carbonr1x3989)"/><polygon points="382.5,302.9 501.0,287.1 618.8,303.6 608.3,381.8 394.2,381.5" fill="url(#suitHir1x3989)"/><polygon points="379.3,380.9 365.3,427.2 434.1,504.7 501.6,526.8 566.5,502.2 636.0,425.3 619.1,380.3" fill="#000a14" fill-opacity=".88" stroke="#ff44aa" stroke-width="1.8" filter="url(#skr1x3989)"/><polygon points="382.0,410.7 475.4,410.9 484.0,439.6 389.8,440.8" fill="#ff44aa" filter="url(#glowr1x3989)"/><polygon points="524.0,410.7 617.5,411.4 612.9,439.6 514.8,441.6" fill="#ff44aa" filter="url(#glowr1x3989)"/><ellipse cx="430.9" cy="425.7" rx="38.4"  ry="8.2" fill="#ffffff" opacity=".88"/><ellipse cx="569.1" cy="425.7" rx="38.4"  ry="8.2" fill="#ffffff" opacity=".88"/><line x1="483.8359358824417" y1="411.6610574690625" x2="515.128984639179" y2="412.2134645026177" stroke="#ff44aa" stroke-opacity=".52" stroke-width="2"/><line x1="485.5354066894017" y1="437.105964012444" x2="515.6828922898882" y2="438.9963200921193" stroke="#ff44aa" stroke-opacity=".52" stroke-width="2"/><line x1="501.40425883866845" y1="455.7871958562173" x2="500.3257109194063" y2="484.30595314251264" stroke="#ff44aa" stroke-opacity=".58" stroke-width="2.2" filter="url(#skr1x3989)"/><line x1="454.04114123422653" y1="489.70549455778666" x2="455.3888170338981" y2="519.2101817147807" stroke="#ff44aa" stroke-opacity=".52" stroke-width="1.5" filter="url(#skr1x3989)"/><line x1="475.90377916827794" y1="491.10353231355543" x2="476.83756222113965" y2="520.5429217685014" stroke="#ff44aa" stroke-opacity=".52" stroke-width="1.5" filter="url(#skr1x3989)"/><line x1="499.4990994948894" y1="491.1569901968352" x2="498.27798676351085" y2="518.4361532470211" stroke="#ff44aa" stroke-opacity=".52" stroke-width="1.5" filter="url(#skr1x3989)"/><line x1="522.351477104295" y1="492.6301856251433" x2="524.1157345225662" y2="519.0955501884222" stroke="#ff44aa" stroke-opacity=".52" stroke-width="1.5" filter="url(#skr1x3989)"/><line x1="547.6020880501904" y1="492.6909298993647" x2="547.6556879715249" y2="519.91429270152" stroke="#ff44aa" stroke-opacity=".52" stroke-width="1.5" filter="url(#skr1x3989)"/><polygon points="432.1,504.4 565.7,501.8 553.4,555.9 447.3,557.0" fill="#880050" fill-opacity=".72" stroke="#ff44aa" stroke-width="1.3" filter="url(#skr1x3989)"/><text x="30.0"  y="975.0" font-family="monospace" font-weight="bold" font-size="22.0" fill="rgba(255,255,255,.22)">#0001</text><text x="500.0"   y="975.0" text-anchor="middle" font-family="monospace" font-weight="bold" font-size="22.0" fill="#ff44aa" fill-opacity=".48">SAKURA RANGER</text><text x="970.0" y="975.0" text-anchor="end"    font-family="monospace" font-weight="bold" font-size="22.0" fill="#ff44aa" fill-opacity=".32">MECH RANGERS</text></svg>