<svg xmlns="http://www.w3.org/2000/svg" viewBox="0 0 1000 1000" width="1000" height="1000" shape-rendering="geometricPrecision"><defs>

  <!-- Scene gradients -->
  <radialGradient id="bgr1x4" cx="50%" cy="42%" r="72%">
    <stop offset="0%"   stop-color="#1e0a2e"/>
    <stop offset="100%" stop-color="#0a0520"/>
  </radialGradient>
  <linearGradient id="suitr1x4" x1="8%" y1="0%" x2="92%" y2="100%">
    <stop offset="0%"   stop-color="#ff2040" stop-opacity=".95"/>
    <stop offset="45%"  stop-color="#cc0020"/>
    <stop offset="100%" stop-color="#0a0520"/>
  </linearGradient>
  <linearGradient id="suitHir1x4" x1="0%" y1="0%" x2="0%" y2="100%">
    <stop offset="0%"   stop-color="rgba(255,255,255,.28)"/>
    <stop offset="60%"  stop-color="rgba(255,255,255,.04)"/>
    <stop offset="100%" stop-color="rgba(255,255,255,0)"/>
  </linearGradient>
  <!-- Bevel: bright top, dark bottom for armour panels -->
  <linearGradient id="bevelr1x4" x1="0%" y1="0%" x2="0%" y2="100%">
    <stop offset="0%"   stop-color="rgba(255,255,255,.55)"/>
    <stop offset="30%"  stop-color="#ff2040"/>
    <stop offset="70%"  stop-color="#cc0020"/>
    <stop offset="100%" stop-color="rgba(0,0,0,.5)"/>
  </linearGradient>

  <!-- Weapon: cold steel blade sweep -->
  <linearGradient id="blader1x4" x1="0%" y1="0%" x2="100%" y2="0%">
    <stop offset="0%"   stop-color="#0e0e20"/>
    <stop offset="16%"  stop-color="#3e3e58"/>
    <stop offset="34%"  stop-color="#c8c8e0"/>
    <stop offset="50%"  stop-color="#f5f5ff"/>
    <stop offset="66%"  stop-color="#b8b8d0"/>
    <stop offset="84%"  stop-color="#2e2e48"/>
    <stop offset="100%" stop-color="#08080e"/>
  </linearGradient>
  <!-- Blade tip brightening -->
  <linearGradient id="bladeTipr1x4" x1="0%" y1="100%" x2="0%" y2="0%">
    <stop offset="0%"   stop-color="rgba(255,255,255,0)"/>
    <stop offset="55%"  stop-color="rgba(255,255,255,.1)"/>
    <stop offset="100%" stop-color="rgba(255,255,255,.55)"/>
  </linearGradient>
  <!-- Gunmetal anodised — blaster body -->
  <linearGradient id="gunmetalr1x4" x1="0%" y1="0%" x2="0%" y2="100%">
    <stop offset="0%"   stop-color="#46465e"/>
    <stop offset="18%"  stop-color="#828296"/>
    <stop offset="42%"  stop-color="#26263a"/>
    <stop offset="72%"  stop-color="#16162a"/>
    <stop offset="100%" stop-color="#0c0c18"/>
  </linearGradient>
  <!-- Brushed steel tube — barrel/rod -->
  <linearGradient id="barrelr1x4" x1="0%" y1="0%" x2="100%" y2="0%">
    <stop offset="0%"   stop-color="#0a0a14"/>
    <stop offset="24%"  stop-color="#585875"/>
    <stop offset="50%"  stop-color="#a8a8c8"/>
    <stop offset="76%"  stop-color="#383852"/>
    <stop offset="100%" stop-color="#0a0a14"/>
  </linearGradient>
  <!-- Chrome rod — lance shaft -->
  <linearGradient id="chromer1x4" x1="0%" y1="0%" x2="100%" y2="0%">
    <stop offset="0%"   stop-color="#0c0c18"/>
    <stop offset="20%"  stop-color="#686888"/>
    <stop offset="44%"  stop-color="#e0e0f0"/>
    <stop offset="56%"  stop-color="#c0c0d8"/>
    <stop offset="80%"  stop-color="#28283e"/>
    <stop offset="100%" stop-color="#0c0c18"/>
  </linearGradient>
  <!-- Titanium plate — shield face -->
  <linearGradient id="titaniumr1x4" x1="0%" y1="0%" x2="100%" y2="100%">
    <stop offset="0%"   stop-color="#585878"/>
    <stop offset="28%"  stop-color="#ff2040" stop-opacity=".88"/>
    <stop offset="55%"  stop-color="#cc0020"/>
    <stop offset="80%"  stop-color="#181828"/>
    <stop offset="100%" stop-color="#0a0a18"/>
  </linearGradient>
  <!-- Artillery black-chrome — cannon body -->
  <linearGradient id="artilleryr1x4" x1="0%" y1="0%" x2="0%" y2="100%">
    <stop offset="0%"   stop-color="#383850"/>
    <stop offset="14%"  stop-color="#78789a"/>
    <stop offset="36%"  stop-color="#202034"/>
    <stop offset="65%"  stop-color="#14141e"/>
    <stop offset="100%" stop-color="#0a0a12"/>
  </linearGradient>
  <!-- Energy orb — staff -->
  <radialGradient id="orbr1x4" cx="35%" cy="35%" r="65%">
    <stop offset="0%"   stop-color="rgba(255,255,255,.9)"/>
    <stop offset="30%"  stop-color="#ff2040"/>
    <stop offset="68%"  stop-color="#cc0020"/>
    <stop offset="100%" stop-color="rgba(0,0,0,.6)"/>
  </radialGradient>
  <!-- Knuckle plate chrome -->
  <linearGradient id="knuckler1x4" x1="0%" y1="0%" x2="0%" y2="100%">
    <stop offset="0%"   stop-color="#888aaa"/>
    <stop offset="32%"  stop-color="#ff2040" stop-opacity=".8"/>
    <stop offset="62%"  stop-color="#1a1a2c"/>
    <stop offset="100%" stop-color="#0a0a14"/>
  </linearGradient>

  <!-- Carbon fibre weave texture overlay -->
  <pattern id="carbonr1x4" width="6" height="6" patternUnits="userSpaceOnUse">
    <rect width="6" height="6" fill="rgba(0,0,0,.08)"/>
    <rect x="0" y="0" width="3" height="3" fill="rgba(255,255,255,.022)"/>
    <rect x="3" y="3" width="3" height="3" fill="rgba(255,255,255,.022)"/>
    <line x1="0" y1="0" x2="3" y2="3" stroke="rgba(255,255,255,.038)" stroke-width=".5"/>
    <line x1="3" y1="0" x2="6" y2="3" stroke="rgba(0,0,0,.055)"       stroke-width=".5"/>
    <line x1="0" y1="3" x2="3" y2="6" stroke="rgba(0,0,0,.055)"       stroke-width=".5"/>
    <line x1="3" y1="3" x2="6" y2="6" stroke="rgba(255,255,255,.038)" stroke-width=".5"/>
  </pattern>

  <!-- Specular metal sheen on armour panels -->
  <filter id="metalr1x4" x="-5%" y="-5%" width="110%" height="110%">
    <feSpecularLighting surfaceScale="4" specularConstant="1.8"
        specularExponent="42" lighting-color="#ffffff" result="spec">
      <feDistantLight elevation="52" azimuth="38"/>
    </feSpecularLighting>
    <feComposite in="spec" in2="SourceGraphic" operator="in" result="sm"/>
    <feComposite in="SourceGraphic" in2="sm" operator="arithmetic" k1="0" k2="1" k3="0.55" k4="0"/>
  </filter>

  <!-- Sharper specular for weapons — heavier glare -->
  <filter id="wmr1x4" x="-8%" y="-8%" width="116%" height="116%">
    <feSpecularLighting surfaceScale="6" specularConstant="2.4"
        specularExponent="65" lighting-color="#ffffff" result="spec">
      <feDistantLight elevation="44" azimuth="28"/>
    </feSpecularLighting>
    <feComposite in="spec" in2="SourceGraphic" operator="in" result="sm"/>
    <feComposite in="SourceGraphic" in2="sm" operator="arithmetic" k1="0" k2="1" k3="0.78" k4="0"/>
  </filter>

  <!-- Sketch wobble -->
  <filter id="skr1x4" x="-8%" y="-8%" width="116%" height="116%">
    <feTurbulence type="fractalNoise" baseFrequency="0.038"
        numOctaves="3" seed="23" result="noise"/>
    <feDisplacementMap in="SourceGraphic" in2="noise" scale="2.6"
        xChannelSelector="R" yChannelSelector="G" result="w"/>
    <feComposite in="w" in2="SourceGraphic" operator="atop"/>
  </filter>

  <!-- Glow: sharp accent -->
  <filter id="glowr1x4" x="-20%" y="-20%" width="140%" height="140%">
    <feGaussianBlur stdDeviation="3.5" result="b"/>
    <feColorMatrix in="b" type="matrix"
        values="0 0 0 0 1  0 0 0 0 1  0 0 0 0 1  0 0 0 1.8 0" result="boost"/>
    <feMerge><feMergeNode in="boost"/><feMergeNode in="SourceGraphic"/></feMerge>
  </filter>

  <!-- Bloom: wide soft -->
  <filter id="bloomr1x4" x="-40%" y="-40%" width="180%" height="180%">
    <feGaussianBlur stdDeviation="11" result="b"/>
    <feMerge><feMergeNode in="b"/><feMergeNode in="SourceGraphic"/></feMerge>
  </filter>

  </defs><rect width="1000" height="1000" fill="url(#bgr1x4)"/><ellipse cx="500.0" cy="892.0" rx="350.0" ry="65.0" fill="rgba(0,0,0,.7)" filter="url(#bloomr1x4)"/><ellipse cx="500.0" cy="889.0" rx="220.0" ry="34.0" fill="rgba(0,0,0,.45)"/><ellipse cx="500.0" cy="520.0" rx="320.0" ry="480.0" fill="#6600ff" fill-opacity=".042" filter="url(#bloomr1x4)"/><circle cx="567.0" cy="712.3" r="1.6" fill="#6600ff" fill-opacity="0.69" filter="url(#glowr1x4)"/><circle cx="668.5" cy="779.5" r="1.2" fill="#6600ff" fill-opacity="0.57" filter="url(#glowr1x4)"/><circle cx="391.6" cy="744.5" r="3.2" fill="#6600ff" fill-opacity="0.73" filter="url(#glowr1x4)"/><circle cx="443.2" cy="415.7" r="4.1" fill="#6600ff" fill-opacity="0.86" filter="url(#glowr1x4)"/><circle cx="563.8" cy="278.0" r="0.9" fill="#6600ff" fill-opacity="0.58" filter="url(#glowr1x4)"/><circle cx="699.2" cy="276.7" r="1.1" fill="#6600ff" fill-opacity="0.52" filter="url(#glowr1x4)"/><circle cx="605.5" cy="704.6" r="4.2" fill="#6600ff" fill-opacity="0.70" filter="url(#glowr1x4)"/><circle cx="599.7" cy="227.7" r="2.6" fill="#6600ff" fill-opacity="0.66" filter="url(#glowr1x4)"/><circle cx="517.6" cy="728.2" r="2.7" fill="#6600ff" fill-opacity="0.72" filter="url(#glowr1x4)"/><circle cx="296.1" cy="233.5" r="3.2" fill="#6600ff" fill-opacity="0.86" filter="url(#glowr1x4)"/><circle cx="512.1" cy="634.8" r="1.5" fill="#6600ff" fill-opacity="0.68" filter="url(#glowr1x4)"/><circle cx="639.9" cy="619.0" r="2.7" fill="#6600ff" fill-opacity="0.75" filter="url(#glowr1x4)"/><circle cx="347.2" cy="773.7" r="0.9" fill="#6600ff" fill-opacity="0.39" filter="url(#glowr1x4)"/><circle cx="405.0" cy="373.3" r="2.2" fill="#6600ff" fill-opacity="0.51" filter="url(#glowr1x4)"/><polygon points="398.1,663.0 488.6,661.2 480.5,877.2 385.9,877.5" fill="url(#suitr1x4)" stroke="#ff2040" stroke-width="2.2" filter="url(#skr1x4) url(#metalr1x4)"/><polygon points="399.1,662.7 490.4,661.9 481.0,877.2 387.6,876.6" fill="url(#carbonr1x4)"/><polygon points="391.7,723.6 491.5,723.8 484.9,789.9 382.5,787.1" fill="url(#bevelr1x4)" fill-opacity=".5" stroke="#ff2040" stroke-width="1.4" filter="url(#skr1x4)"/><polygon points="511.2,662.5 600.9,660.8 612.1,878.6 518.3,877.3" fill="url(#suitr1x4)" stroke="#ff2040" stroke-width="2.2" filter="url(#skr1x4) url(#metalr1x4)"/><polygon points="511.6,661.9 600.3,661.5 613.7,878.4 519.0,876.0" fill="url(#carbonr1x4)"/><polygon points="507.5,724.8 608.8,722.4 614.4,787.6 514.5,787.8" fill="url(#bevelr1x4)" fill-opacity=".5" stroke="#ff2040" stroke-width="1.4" filter="url(#skr1x4)"/><rect x="392.3" y="840.1" width="100.3" height="24.7" fill="url(#bevelr1x4)" stroke="#ff2040" stroke-width="1" filter="url(#skr1x4)"/><rect x="508.4"  y="837.5" width="100.3" height="24.7" fill="url(#bevelr1x4)" stroke="#ff2040" stroke-width="1" filter="url(#skr1x4)"/><polygon points="368.9,878.4 495.6,877.2 504.4,922.4 362.7,920.6" fill="#cc0020" stroke="#ff2040" stroke-width="2" filter="url(#skr1x4)"/><polygon points="502.4,876.5 629.9,876.1 638.6,920.8 498.2,921.7" fill="#cc0020" stroke="#ff2040" stroke-width="2" filter="url(#skr1x4)"/><polygon points="303.5,632.3 696.1,633.8 636.8,682.3 363.4,682.5" fill="#ff2040" fill-opacity=".52" stroke="#ff2040" stroke-width="2" filter="url(#skr1x4)"/><rect x="464.1" y="639.8" width="72.0" height="42.0" fill="url(#bevelr1x4)" stroke="#ff2040" stroke-width="1.4" filter="url(#glowr1x4)"/><rect x="484.6" y="642.0" width="28.0" height="22.0" rx="1" fill="rgba(255,255,255,.48)"/><polygon points="151.5,467.0 235.6,465.1 256.4,735.8 127.7,734.5" fill="url(#suitr1x4)" stroke="#ff2040" stroke-width="2.2" filter="url(#skr1x4) url(#metalr1x4)"/><polygon points="174.8,430.6 253.2,433.0 244.3,511.1 160.8,511.8" fill="url(#bevelr1x4)" fill-opacity=".72" stroke="#ff2040" stroke-width="2.2" filter="url(#skr1x4)"/><polygon points="160.8,621.8 244.5,620.3 239.8,661.3 165.4,660.6" fill="#ff2040" fill-opacity=".42" stroke="#ff2040" stroke-width="1" filter="url(#skr1x4)"/><polygon points="766.2,465.3 845.7,465.2 870.4,736.3 743.3,734.5" fill="url(#suitr1x4)" stroke="#ff2040" stroke-width="2.2" filter="url(#skr1x4) url(#metalr1x4)"/><polygon points="745.6,433.7 825.6,431.6 841.0,512.2 757.1,511.3" fill="url(#bevelr1x4)" fill-opacity=".72" stroke="#ff2040" stroke-width="2.2" filter="url(#skr1x4)"/><polygon points="758.6,623.1 840.5,620.2 835.5,661.5 759.3,661.8" fill="#ff2040" fill-opacity=".42" stroke="#ff2040" stroke-width="1" filter="url(#skr1x4)"/><rect x="118.9"  y="698.9" width="135.3" height="85.0" rx="4" fill="url(#bevelr1x4)" stroke="#ff2040" stroke-width="1.8" filter="url(#skr1x4)"/><rect x="749.1"   y="698.6" width="135.3" height="85.0" rx="4" fill="url(#bevelr1x4)" stroke="#ff2040" stroke-width="1.8" filter="url(#skr1x4)"/><line x1="149.0" y1="701.5" x2="150.0" y2="782.1" stroke="#ff2040" stroke-opacity=".38" stroke-width="1"/><line x1="778.2" y1="702.3" x2="779.3" y2="783.3" stroke="#ff2040" stroke-opacity=".38" stroke-width="1"/><line x1="184.1" y1="702.5" x2="181.4" y2="783.8" stroke="#ff2040" stroke-opacity=".38" stroke-width="1"/><line x1="811.0" y1="700.1" x2="809.2" y2="785.3" stroke="#ff2040" stroke-opacity=".38" stroke-width="1"/><line x1="216.3" y1="702.1" x2="214.1" y2="782.1" stroke="#ff2040" stroke-opacity=".38" stroke-width="1"/><line x1="843.4" y1="702.5" x2="842.2" y2="785.5" stroke="#ff2040" stroke-opacity=".38" stroke-width="1"/><polygon points="234.9,418.6 765.3,418.4 724.0,662.2 278.1,662.0" fill="url(#suitr1x4)" stroke="#ff2040" stroke-width="2.6" filter="url(#skr1x4) url(#metalr1x4)"/><polygon points="236.6,418.9 765.0,416.5 724.3,663.1 278.6,663.1" fill="url(#carbonr1x4)"/><polygon points="369.0,417.8 632.5,418.0 612.8,515.1 388.0,517.2" fill="url(#suitHir1x4)"/><line x1="360.4" y1="472.5" x2="636.1" y2="469.8" stroke="#ff2040" stroke-opacity=".52" stroke-width="1.3" filter="url(#skr1x4)"/><line x1="400.0" y1="550.4" x2="599.2" y2="550.2" stroke="#ff2040" stroke-opacity=".52" stroke-width="1.3" filter="url(#skr1x4)"/><line x1="267.6" y1="490.0" x2="319.9" y2="492.0" stroke="#ff2040" stroke-opacity=".62" stroke-width="1.8"/><line x1="679.0" y1="492.7" x2="732.6" y2="490.1" stroke="#ff2040" stroke-opacity=".62" stroke-width="1.8"/><line x1="268.4" y1="523.7" x2="319.5" y2="524.6" stroke="#ff2040" stroke-opacity=".62" stroke-width="1.8"/><line x1="680.0" y1="522.9" x2="733.8" y2="521.4" stroke="#ff2040" stroke-opacity=".62" stroke-width="1.8"/><line x1="265.4" y1="554.4" x2="319.5" y2="554.2" stroke="#ff2040" stroke-opacity=".62" stroke-width="1.8"/><line x1="680.1" y1="553.2" x2="733.0" y2="555.5" stroke="#ff2040" stroke-opacity=".62" stroke-width="1.8"/><line x1="265.0" y1="585.6" x2="321.2" y2="587.6" stroke="#ff2040" stroke-opacity=".62" stroke-width="1.8"/><line x1="678.7" y1="585.0" x2="733.4" y2="585.8" stroke="#ff2040" stroke-opacity=".62" stroke-width="1.8"/><g filter="url(#glowr1x4)"><polygon points="499.7,454.1 514.1,490.4 554.3,491.8 522.5,517.3 535.3,557.6 501.7,534.7 466.0,558.5 476.0,519.5 445.8,492.5 484.2,491.7 " fill="#ff2040" stroke="#0a0520" stroke-width="1.4" filter="url(#skr1x4)"/><polygon points="499.7,454.1 514.1,490.4 554.3,491.8 522.5,517.3 535.3,557.6 501.7,534.7 466.0,558.5 476.0,519.5 445.8,492.5 484.2,491.7 " fill="url(#suitHir1x4)" opacity=".45"/></g><g><rect x="114.6" y="700.6" width="137.8" height="88.0" rx="5" fill="url(#bevelr1x4)" stroke="#ff2040" stroke-width="2" filter="url(#wmr1x4)"/><rect x="116.5" y="703.2" width="137.8" height="88.0" rx="5" fill="url(#carbonr1x4)"/><rect x="749.1"  y="701.4" width="137.8" height="88.0" rx="5" fill="url(#bevelr1x4)" stroke="#ff2040" stroke-width="2" filter="url(#wmr1x4)"/><rect x="748.7"  y="700.7" width="137.8" height="88.0" rx="5" fill="url(#carbonr1x4)"/><rect x="120.5" y="698.6" width="23.0" height="22.0" rx="2" fill="url(#knuckler1x4)" stroke="#ff2040" stroke-width=".8" filter="url(#wmr1x4)"/><rect x="755.7" y="701.0" width="23.0" height="22.0" rx="2" fill="url(#knuckler1x4)" stroke="#ff2040" stroke-width=".8" filter="url(#wmr1x4)"/><rect x="150.3" y="698.9" width="23.0" height="22.0" rx="2" fill="url(#knuckler1x4)" stroke="#ff2040" stroke-width=".8" filter="url(#wmr1x4)"/><rect x="786.4" y="698.4" width="23.0" height="22.0" rx="2" fill="url(#knuckler1x4)" stroke="#ff2040" stroke-width=".8" filter="url(#wmr1x4)"/><rect x="180.7" y="701.5" width="23.0" height="22.0" rx="2" fill="url(#knuckler1x4)" stroke="#ff2040" stroke-width=".8" filter="url(#wmr1x4)"/><rect x="813.1" y="701.5" width="23.0" height="22.0" rx="2" fill="url(#knuckler1x4)" stroke="#ff2040" stroke-width=".8" filter="url(#wmr1x4)"/><rect x="209.5" y="701.7" width="23.0" height="22.0" rx="2" fill="url(#knuckler1x4)" stroke="#ff2040" stroke-width=".8" filter="url(#wmr1x4)"/><rect x="844.4" y="700.2" width="23.0" height="22.0" rx="2" fill="url(#knuckler1x4)" stroke="#ff2040" stroke-width=".8" filter="url(#wmr1x4)"/><ellipse cx="185.00589542858302" cy="712.180475576017" rx="45.1" ry="30.0" fill="#ff2040" fill-opacity=".25" filter="url(#glowr1x4)"/><ellipse cx="819.0545921944268" cy="710.1371712672337" rx="45.1" ry="30.0" fill="#ff2040" fill-opacity=".25" filter="url(#glowr1x4)"/></g><rect x="449.60531022856014" y="556.2791296693496" width="100.0"  height="56.0" fill="#cc0020" stroke="#ff2040" stroke-width="2.2" filter="url(#skr1x4)"/><rect x="424.4227043247782" y="576.6900047263131" width="152.0" height="26.0" fill="url(#bevelr1x4)" fill-opacity=".65" stroke="#ff2040" stroke-width="1.2" filter="url(#skr1x4)"/><polygon points="307.5,379.0 350.4,295.5 498.4,279.2 651.5,295.4 693.6,380.4 670.2,504.0 499.6,565.2 331.7,502.8" fill="url(#suitr1x4)" stroke="#ff2040" stroke-width="2.8" filter="url(#skr1x4) url(#metalr1x4)"/><polygon points="306.4,379.7 351.1,293.3 500.1,277.3 651.4,294.3 691.6,380.3 670.3,504.6 499.5,565.6 330.3,502.8" fill="url(#carbonr1x4)"/><polygon points="380.3,301.6 499.6,286.1 619.1,301.4 608.0,381.3 391.4,380.7" fill="url(#suitHir1x4)"/><polygon points="381.8,380.9 365.6,426.6 432.8,502.5 499.0,530.0 567.8,502.2 634.7,427.4 620.4,381.6" fill="#0a0520" fill-opacity=".88" stroke="#ff2040" stroke-width="1.8" filter="url(#skr1x4)"/><polygon points="381.3,409.6 476.0,412.4 483.2,439.6 388.7,440.5" fill="#ff2040" filter="url(#glowr1x4)"/><polygon points="522.3,410.4 620.5,411.7 612.1,438.3 513.9,438.9" fill="#ff2040" filter="url(#glowr1x4)"/><ellipse cx="430.9" cy="425.7" rx="38.4"  ry="8.2" fill="#ffffff" opacity=".88"/><ellipse cx="569.1" cy="425.7" rx="38.4"  ry="8.2" fill="#ffffff" opacity=".88"/><line x1="485.31637354917825" y1="413.73450199691575" x2="516.966969365757" y2="415.0499215618707" stroke="#ff2040" stroke-opacity=".52" stroke-width="2"/><line x1="485.497228982076" y1="436.37204355066643" x2="514.036347448118" y2="437.98076599733906" stroke="#ff2040" stroke-opacity=".52" stroke-width="2"/><line x1="501.76898514525965" y1="455.2031317900866" x2="499.2837794799358" y2="483.85561523614456" stroke="#ff2040" stroke-opacity=".58" stroke-width="2.2" filter="url(#skr1x4)"/><line x1="453.18713222982365" y1="490.6910317732021" x2="454.9572736083344" y2="519.4902199891396" stroke="#ff2040" stroke-opacity=".52" stroke-width="1.5" filter="url(#skr1x4)"/><line x1="475.7229167658277" y1="491.3445906268432" x2="476.68186160469423" y2="519.7053236252628" stroke="#ff2040" stroke-opacity=".52" stroke-width="1.5" filter="url(#skr1x4)"/><line x1="498.8023494737223" y1="489.928288141638" x2="500.8249116960913" y2="521.6168619351462" stroke="#ff2040" stroke-opacity=".52" stroke-width="1.5" filter="url(#skr1x4)"/><line x1="523.5592604194395" y1="492.22319623474027" x2="521.7541252581962" y2="518.8148093379102" stroke="#ff2040" stroke-opacity=".52" stroke-width="1.5" filter="url(#skr1x4)"/><line x1="545.5234280850925" y1="491.35343973729755" x2="545.1286351198518" y2="518.4770096211694" stroke="#ff2040" stroke-opacity=".52" stroke-width="1.5" filter="url(#skr1x4)"/><polygon points="431.1,504.9 565.6,502.3 553.1,558.2 446.7,557.6" fill="#cc0020" fill-opacity=".72" stroke="#ff2040" stroke-width="1.3" filter="url(#skr1x4)"/><text x="30.0"  y="975.0" font-family="monospace" font-weight="bold" font-size="22.0" fill="rgba(255,255,255,.22)">#0001</text><text x="500.0"   y="975.0" text-anchor="middle" font-family="monospace" font-weight="bold" font-size="22.0" fill="#ff2040" fill-opacity=".48">CRIMSON RANGER</text><text x="970.0" y="975.0" text-anchor="end"    font-family="monospace" font-weight="bold" font-size="22.0" fill="#ff2040" fill-opacity=".32">MECH RANGERS</text></svg>