<svg xmlns="http://www.w3.org/2000/svg" viewBox="0 0 1000 1000" width="1000" height="1000" shape-rendering="geometricPrecision"><defs>

  <!-- Scene gradients -->
  <radialGradient id="bgr1x400" cx="50%" cy="42%" r="72%">
    <stop offset="0%"   stop-color="#0a0a14"/>
    <stop offset="100%" stop-color="#050508"/>
  </radialGradient>
  <linearGradient id="suitr1x400" x1="8%" y1="0%" x2="92%" y2="100%">
    <stop offset="0%"   stop-color="#00ff60" stop-opacity=".95"/>
    <stop offset="45%"  stop-color="#00441e"/>
    <stop offset="100%" stop-color="#050508"/>
  </linearGradient>
  <linearGradient id="suitHir1x400" x1="0%" y1="0%" x2="0%" y2="100%">
    <stop offset="0%"   stop-color="rgba(255,255,255,.28)"/>
    <stop offset="60%"  stop-color="rgba(255,255,255,.04)"/>
    <stop offset="100%" stop-color="rgba(255,255,255,0)"/>
  </linearGradient>
  <!-- Bevel: bright top, dark bottom for armour panels -->
  <linearGradient id="bevelr1x400" x1="0%" y1="0%" x2="0%" y2="100%">
    <stop offset="0%"   stop-color="rgba(255,255,255,.55)"/>
    <stop offset="30%"  stop-color="#00ff60"/>
    <stop offset="70%"  stop-color="#00441e"/>
    <stop offset="100%" stop-color="rgba(0,0,0,.5)"/>
  </linearGradient>

  <!-- Weapon: cold steel blade sweep -->
  <linearGradient id="blader1x400" x1="0%" y1="0%" x2="100%" y2="0%">
    <stop offset="0%"   stop-color="#0e0e20"/>
    <stop offset="16%"  stop-color="#3e3e58"/>
    <stop offset="34%"  stop-color="#c8c8e0"/>
    <stop offset="50%"  stop-color="#f5f5ff"/>
    <stop offset="66%"  stop-color="#b8b8d0"/>
    <stop offset="84%"  stop-color="#2e2e48"/>
    <stop offset="100%" stop-color="#08080e"/>
  </linearGradient>
  <!-- Blade tip brightening -->
  <linearGradient id="bladeTipr1x400" x1="0%" y1="100%" x2="0%" y2="0%">
    <stop offset="0%"   stop-color="rgba(255,255,255,0)"/>
    <stop offset="55%"  stop-color="rgba(255,255,255,.1)"/>
    <stop offset="100%" stop-color="rgba(255,255,255,.55)"/>
  </linearGradient>
  <!-- Gunmetal anodised — blaster body -->
  <linearGradient id="gunmetalr1x400" x1="0%" y1="0%" x2="0%" y2="100%">
    <stop offset="0%"   stop-color="#46465e"/>
    <stop offset="18%"  stop-color="#828296"/>
    <stop offset="42%"  stop-color="#26263a"/>
    <stop offset="72%"  stop-color="#16162a"/>
    <stop offset="100%" stop-color="#0c0c18"/>
  </linearGradient>
  <!-- Brushed steel tube — barrel/rod -->
  <linearGradient id="barrelr1x400" x1="0%" y1="0%" x2="100%" y2="0%">
    <stop offset="0%"   stop-color="#0a0a14"/>
    <stop offset="24%"  stop-color="#585875"/>
    <stop offset="50%"  stop-color="#a8a8c8"/>
    <stop offset="76%"  stop-color="#383852"/>
    <stop offset="100%" stop-color="#0a0a14"/>
  </linearGradient>
  <!-- Chrome rod — lance shaft -->
  <linearGradient id="chromer1x400" x1="0%" y1="0%" x2="100%" y2="0%">
    <stop offset="0%"   stop-color="#0c0c18"/>
    <stop offset="20%"  stop-color="#686888"/>
    <stop offset="44%"  stop-color="#e0e0f0"/>
    <stop offset="56%"  stop-color="#c0c0d8"/>
    <stop offset="80%"  stop-color="#28283e"/>
    <stop offset="100%" stop-color="#0c0c18"/>
  </linearGradient>
  <!-- Titanium plate — shield face -->
  <linearGradient id="titaniumr1x400" x1="0%" y1="0%" x2="100%" y2="100%">
    <stop offset="0%"   stop-color="#585878"/>
    <stop offset="28%"  stop-color="#00ff60" stop-opacity=".88"/>
    <stop offset="55%"  stop-color="#00441e"/>
    <stop offset="80%"  stop-color="#181828"/>
    <stop offset="100%" stop-color="#0a0a18"/>
  </linearGradient>
  <!-- Artillery black-chrome — cannon body -->
  <linearGradient id="artilleryr1x400" x1="0%" y1="0%" x2="0%" y2="100%">
    <stop offset="0%"   stop-color="#383850"/>
    <stop offset="14%"  stop-color="#78789a"/>
    <stop offset="36%"  stop-color="#202034"/>
    <stop offset="65%"  stop-color="#14141e"/>
    <stop offset="100%" stop-color="#0a0a12"/>
  </linearGradient>
  <!-- Energy orb — staff -->
  <radialGradient id="orbr1x400" cx="35%" cy="35%" r="65%">
    <stop offset="0%"   stop-color="rgba(255,255,255,.9)"/>
    <stop offset="30%"  stop-color="#00ff60"/>
    <stop offset="68%"  stop-color="#00441e"/>
    <stop offset="100%" stop-color="rgba(0,0,0,.6)"/>
  </radialGradient>
  <!-- Knuckle plate chrome -->
  <linearGradient id="knuckler1x400" x1="0%" y1="0%" x2="0%" y2="100%">
    <stop offset="0%"   stop-color="#888aaa"/>
    <stop offset="32%"  stop-color="#00ff60" stop-opacity=".8"/>
    <stop offset="62%"  stop-color="#1a1a2c"/>
    <stop offset="100%" stop-color="#0a0a14"/>
  </linearGradient>

  <!-- Carbon fibre weave texture overlay -->
  <pattern id="carbonr1x400" width="6" height="6" patternUnits="userSpaceOnUse">
    <rect width="6" height="6" fill="rgba(0,0,0,.08)"/>
    <rect x="0" y="0" width="3" height="3" fill="rgba(255,255,255,.022)"/>
    <rect x="3" y="3" width="3" height="3" fill="rgba(255,255,255,.022)"/>
    <line x1="0" y1="0" x2="3" y2="3" stroke="rgba(255,255,255,.038)" stroke-width=".5"/>
    <line x1="3" y1="0" x2="6" y2="3" stroke="rgba(0,0,0,.055)"       stroke-width=".5"/>
    <line x1="0" y1="3" x2="3" y2="6" stroke="rgba(0,0,0,.055)"       stroke-width=".5"/>
    <line x1="3" y1="3" x2="6" y2="6" stroke="rgba(255,255,255,.038)" stroke-width=".5"/>
  </pattern>

  <!-- Specular metal sheen on armour panels -->
  <filter id="metalr1x400" x="-5%" y="-5%" width="110%" height="110%">
    <feSpecularLighting surfaceScale="4" specularConstant="1.8"
        specularExponent="42" lighting-color="#ffffff" result="spec">
      <feDistantLight elevation="52" azimuth="38"/>
    </feSpecularLighting>
    <feComposite in="spec" in2="SourceGraphic" operator="in" result="sm"/>
    <feComposite in="SourceGraphic" in2="sm" operator="arithmetic" k1="0" k2="1" k3="0.55" k4="0"/>
  </filter>

  <!-- Sharper specular for weapons — heavier glare -->
  <filter id="wmr1x400" x="-8%" y="-8%" width="116%" height="116%">
    <feSpecularLighting surfaceScale="6" specularConstant="2.4"
        specularExponent="65" lighting-color="#ffffff" result="spec">
      <feDistantLight elevation="44" azimuth="28"/>
    </feSpecularLighting>
    <feComposite in="spec" in2="SourceGraphic" operator="in" result="sm"/>
    <feComposite in="SourceGraphic" in2="sm" operator="arithmetic" k1="0" k2="1" k3="0.78" k4="0"/>
  </filter>

  <!-- Sketch wobble -->
  <filter id="skr1x400" x="-8%" y="-8%" width="116%" height="116%">
    <feTurbulence type="fractalNoise" baseFrequency="0.038"
        numOctaves="3" seed="89" result="noise"/>
    <feDisplacementMap in="SourceGraphic" in2="noise" scale="2.6"
        xChannelSelector="R" yChannelSelector="G" result="w"/>
    <feComposite in="w" in2="SourceGraphic" operator="atop"/>
  </filter>

  <!-- Glow: sharp accent -->
  <filter id="glowr1x400" x="-20%" y="-20%" width="140%" height="140%">
    <feGaussianBlur stdDeviation="3.5" result="b"/>
    <feColorMatrix in="b" type="matrix"
        values="0 0 0 0 1  0 0 0 0 1  0 0 0 0 1  0 0 0 1.8 0" result="boost"/>
    <feMerge><feMergeNode in="boost"/><feMergeNode in="SourceGraphic"/></feMerge>
  </filter>

  <!-- Bloom: wide soft -->
  <filter id="bloomr1x400" x="-40%" y="-40%" width="180%" height="180%">
    <feGaussianBlur stdDeviation="11" result="b"/>
    <feMerge><feMergeNode in="b"/><feMergeNode in="SourceGraphic"/></feMerge>
  </filter>

  </defs><rect width="1000" height="1000" fill="url(#bgr1x400)"/><ellipse cx="500.0" cy="892.0" rx="350.0" ry="65.0" fill="rgba(0,0,0,.7)" filter="url(#bloomr1x400)"/><ellipse cx="500.0" cy="889.0" rx="220.0" ry="34.0" fill="rgba(0,0,0,.45)"/><ellipse cx="500.0" cy="520.0" rx="320.0" ry="480.0" fill="#00e5ff" fill-opacity=".042" filter="url(#bloomr1x400)"/><circle cx="291.4" cy="634.6" r="1.3" fill="#00e5ff" fill-opacity="0.64" filter="url(#glowr1x400)"/><circle cx="417.9" cy="429.2" r="1.4" fill="#00e5ff" fill-opacity="0.79" filter="url(#glowr1x400)"/><circle cx="418.4" cy="204.1" r="4.0" fill="#00e5ff" fill-opacity="0.48" filter="url(#glowr1x400)"/><circle cx="735.3" cy="188.3" r="2.9" fill="#00e5ff" fill-opacity="0.84" filter="url(#glowr1x400)"/><circle cx="300.2" cy="283.4" r="2.6" fill="#00e5ff" fill-opacity="0.69" filter="url(#glowr1x400)"/><circle cx="447.2" cy="646.0" r="1.2" fill="#00e5ff" fill-opacity="0.42" filter="url(#glowr1x400)"/><circle cx="397.2" cy="299.0" r="2.3" fill="#00e5ff" fill-opacity="0.69" filter="url(#glowr1x400)"/><circle cx="354.0" cy="291.4" r="3.9" fill="#00e5ff" fill-opacity="0.57" filter="url(#glowr1x400)"/><circle cx="679.4" cy="510.0" r="1.3" fill="#00e5ff" fill-opacity="0.47" filter="url(#glowr1x400)"/><circle cx="454.7" cy="586.6" r="1.2" fill="#00e5ff" fill-opacity="0.73" filter="url(#glowr1x400)"/><circle cx="362.2" cy="235.1" r="2.7" fill="#00e5ff" fill-opacity="0.87" filter="url(#glowr1x400)"/><circle cx="406.2" cy="553.4" r="2.7" fill="#00e5ff" fill-opacity="0.83" filter="url(#glowr1x400)"/><circle cx="270.2" cy="474.4" r="2.1" fill="#00e5ff" fill-opacity="0.52" filter="url(#glowr1x400)"/><circle cx="520.2" cy="573.7" r="3.4" fill="#00e5ff" fill-opacity="0.83" filter="url(#glowr1x400)"/><path d="M696.5,154.0 Q698.5,447.8 635.0,745.3" stroke="#00e5ff" stroke-opacity="0.49" stroke-width="2.0" fill="none" filter="url(#glowr1x400)"/><path d="M585.0,168.1 Q617.8,392.8 670.0,611.6" stroke="#00e5ff" stroke-opacity="0.43" stroke-width="1.0" fill="none" filter="url(#glowr1x400)"/><path d="M366.3,170.5 Q373.6,462.4 502.4,791.1" stroke="#00e5ff" stroke-opacity="0.59" stroke-width="1.0" fill="none" filter="url(#glowr1x400)"/><path d="M615.7,382.3 Q640.5,638.8 445.4,859.0" stroke="#00e5ff" stroke-opacity="0.72" stroke-width="0.7" fill="none" filter="url(#glowr1x400)"/><path d="M382.6,350.2 Q347.4,492.6 609.9,664.0" stroke="#00e5ff" stroke-opacity="0.43" stroke-width="0.8" fill="none" filter="url(#glowr1x400)"/><polygon points="400.3,664.1 489.9,662.9 480.2,876.1 386.1,876.6" fill="url(#suitr1x400)" stroke="#00ff60" stroke-width="2.2" filter="url(#skr1x400) url(#metalr1x400)"/><polygon points="398.8,661.4 487.9,663.1 479.2,876.4 388.5,877.2" fill="url(#carbonr1x400)"/><polygon points="393.7,724.7 493.1,724.8 484.0,788.5 382.5,787.1" fill="url(#bevelr1x400)" fill-opacity=".5" stroke="#00ff60" stroke-width="1.4" filter="url(#skr1x400)"/><polygon points="511.2,663.4 602.8,662.6 612.1,877.9 518.9,877.9" fill="url(#suitr1x400)" stroke="#00ff60" stroke-width="2.2" filter="url(#skr1x400) url(#metalr1x400)"/><polygon points="509.6,661.8 601.7,660.8 614.0,877.7 520.8,876.1" fill="url(#carbonr1x400)"/><polygon points="507.5,722.9 609.1,724.4 614.8,788.2 517.1,789.5" fill="url(#bevelr1x400)" fill-opacity=".5" stroke="#00ff60" stroke-width="1.4" filter="url(#skr1x400)"/><rect x="393.5" y="839.0" width="100.3" height="24.7" fill="url(#bevelr1x400)" stroke="#00ff60" stroke-width="1" filter="url(#skr1x400)"/><rect x="508.6"  y="839.9" width="100.3" height="24.7" fill="url(#bevelr1x400)" stroke="#00ff60" stroke-width="1" filter="url(#skr1x400)"/><polygon points="370.5,876.1 496.0,877.0 502.5,921.5 364.3,920.6" fill="#00441e" stroke="#00ff60" stroke-width="2" filter="url(#skr1x400)"/><polygon points="503.5,878.1 630.4,877.2 637.4,921.6 497.9,920.1" fill="#00441e" stroke="#00ff60" stroke-width="2" filter="url(#skr1x400)"/><polygon points="304.2,633.3 695.6,631.6 637.0,683.6 362.4,683.7" fill="#00ff60" fill-opacity=".52" stroke="#00ff60" stroke-width="2" filter="url(#skr1x400)"/><rect x="464.9" y="638.0" width="72.0" height="42.0" fill="url(#bevelr1x400)" stroke="#00ff60" stroke-width="1.4" filter="url(#glowr1x400)"/><rect x="484.9" y="640.1" width="28.0" height="22.0" rx="1" fill="rgba(255,255,255,.48)"/><polygon points="153.2,466.0 235.9,465.3 257.2,735.3 129.9,733.5" fill="url(#suitr1x400)" stroke="#00ff60" stroke-width="2.2" filter="url(#skr1x400) url(#metalr1x400)"/><polygon points="175.3,431.6 254.3,431.4 241.9,511.5 160.8,509.8" fill="url(#bevelr1x400)" fill-opacity=".72" stroke="#00ff60" stroke-width="2.2" filter="url(#skr1x400)"/><polygon points="161.0,621.0 243.4,621.6 238.5,661.1 166.8,659.8" fill="#00ff60" fill-opacity=".42" stroke="#00ff60" stroke-width="1" filter="url(#skr1x400)"/><polygon points="765.2,465.6 846.1,465.8 872.1,733.7 742.5,733.6" fill="url(#suitr1x400)" stroke="#00ff60" stroke-width="2.2" filter="url(#skr1x400) url(#metalr1x400)"/><polygon points="745.3,433.4 825.8,431.8 840.8,510.7 757.5,510.1" fill="url(#bevelr1x400)" fill-opacity=".72" stroke="#00ff60" stroke-width="2.2" filter="url(#skr1x400)"/><polygon points="757.5,623.6 837.8,623.2 833.1,659.1 760.8,661.8" fill="#00ff60" fill-opacity=".42" stroke="#00ff60" stroke-width="1" filter="url(#skr1x400)"/><rect x="120.5"  y="701.0" width="135.3" height="85.0" rx="4" fill="url(#bevelr1x400)" stroke="#00ff60" stroke-width="1.8" filter="url(#skr1x400)"/><rect x="747.8"   y="701.2" width="135.3" height="85.0" rx="4" fill="url(#bevelr1x400)" stroke="#00ff60" stroke-width="1.8" filter="url(#skr1x400)"/><line x1="149.8" y1="701.8" x2="150.1" y2="784.9" stroke="#00ff60" stroke-opacity=".38" stroke-width="1"/><line x1="779.2" y1="703.1" x2="777.0" y2="783.3" stroke="#00ff60" stroke-opacity=".38" stroke-width="1"/><line x1="181.8" y1="700.8" x2="181.2" y2="783.8" stroke="#00ff60" stroke-opacity=".38" stroke-width="1"/><line x1="809.9" y1="703.0" x2="812.3" y2="783.6" stroke="#00ff60" stroke-opacity=".38" stroke-width="1"/><line x1="214.2" y1="701.3" x2="216.2" y2="784.5" stroke="#00ff60" stroke-opacity=".38" stroke-width="1"/><line x1="843.8" y1="702.5" x2="843.7" y2="783.6" stroke="#00ff60" stroke-opacity=".38" stroke-width="1"/><polygon points="236.6,416.0 763.6,417.3 723.9,660.9 276.6,661.9" fill="url(#suitr1x400)" stroke="#00ff60" stroke-width="2.6" filter="url(#skr1x400) url(#metalr1x400)"/><polygon points="235.0,417.0 766.6,417.1 720.8,661.1 277.3,661.6" fill="url(#carbonr1x400)"/><polygon points="366.4,418.6 634.1,418.2 610.5,516.1 389.9,517.1" fill="url(#suitHir1x400)"/><line x1="361.7" y1="470.8" x2="637.5" y2="471.0" stroke="#00ff60" stroke-opacity=".52" stroke-width="1.3" filter="url(#skr1x400)"/><line x1="400.2" y1="549.4" x2="599.3" y2="549.8" stroke="#00ff60" stroke-opacity=".52" stroke-width="1.3" filter="url(#skr1x400)"/><line x1="266.5" y1="492.1" x2="318.2" y2="490.3" stroke="#00ff60" stroke-opacity=".62" stroke-width="1.8"/><line x1="681.3" y1="491.2" x2="734.6" y2="490.9" stroke="#00ff60" stroke-opacity=".62" stroke-width="1.8"/><line x1="268.2" y1="522.1" x2="320.6" y2="521.5" stroke="#00ff60" stroke-opacity=".62" stroke-width="1.8"/><line x1="682.0" y1="523.5" x2="732.2" y2="521.3" stroke="#00ff60" stroke-opacity=".62" stroke-width="1.8"/><line x1="265.2" y1="555.8" x2="318.9" y2="553.7" stroke="#00ff60" stroke-opacity=".62" stroke-width="1.8"/><line x1="680.5" y1="554.7" x2="732.0" y2="554.0" stroke="#00ff60" stroke-opacity=".62" stroke-width="1.8"/><line x1="268.5" y1="586.8" x2="319.2" y2="587.2" stroke="#00ff60" stroke-opacity=".62" stroke-width="1.8"/><line x1="681.5" y1="585.4" x2="733.5" y2="588.3" stroke="#00ff60" stroke-opacity=".62" stroke-width="1.8"/><g filter="url(#glowr1x400)"><polygon points="500.0,451.7 513.7,490.7 556.5,491.4 525.2,517.1 532.5,556.0 500.4,535.6 465.4,556.7 476.1,517.7 446.2,494.5 486.2,491.5 " fill="#00ff60" stroke="#050508" stroke-width="1.4" filter="url(#skr1x400)"/><polygon points="500.0,451.7 513.7,490.7 556.5,491.4 525.2,517.1 532.5,556.0 500.4,535.6 465.4,556.7 476.1,517.7 446.2,494.5 486.2,491.5 " fill="url(#suitHir1x400)" opacity=".45"/></g><rect x="448.863159521576" y="555.2294181389734" width="100.0"  height="56.0" fill="#00441e" stroke="#00ff60" stroke-width="2.2" filter="url(#skr1x400)"/><rect x="424.45290706194936" y="575.6351426899433" width="152.0" height="26.0" fill="url(#bevelr1x400)" fill-opacity=".65" stroke="#00ff60" stroke-width="1.2" filter="url(#skr1x400)"/><polygon points="308.7,380.4 349.3,293.4 499.3,278.1 648.4,295.4 690.6,380.8 668.9,503.4 501.3,566.2 332.3,502.1" fill="url(#suitr1x400)" stroke="#00ff60" stroke-width="2.8" filter="url(#skr1x400) url(#metalr1x400)"/><polygon points="309.7,379.1 351.0,296.0 501.6,276.5 648.2,294.7 693.6,379.6 669.4,503.7 498.6,564.1 329.4,503.1" fill="url(#carbonr1x400)"/><polygon points="381.6,303.9 501.2,285.9 619.3,304.3 608.1,379.2 392.3,379.9" fill="url(#suitHir1x400)"/><polygon points="381.2,379.9 365.3,424.9 432.2,504.2 501.4,526.5 566.6,504.7 635.7,424.6 620.3,381.6" fill="#050508" fill-opacity=".88" stroke="#00ff60" stroke-width="1.8" filter="url(#skr1x400)"/><polygon points="379.7,410.7 478.7,412.6 485.1,438.4 389.8,441.6" fill="#00ff60" filter="url(#glowr1x400)"/><polygon points="524.8,410.5 618.9,410.1 609.6,441.6 514.7,441.4" fill="#00ff60" filter="url(#glowr1x400)"/><ellipse cx="430.9" cy="425.7" rx="38.4"  ry="8.2" fill="#ffffff" opacity=".88"/><ellipse cx="569.1" cy="425.7" rx="38.4"  ry="8.2" fill="#ffffff" opacity=".88"/><line x1="485.3231441638991" y1="412.0564964007586" x2="516.8701178475656" y2="414.09352822043" stroke="#00ff60" stroke-opacity=".52" stroke-width="2"/><line x1="485.0490754583478" y1="436.52647510673853" x2="514.1408506489731" y2="438.0341928516515" stroke="#00ff60" stroke-opacity=".52" stroke-width="2"/><line x1="501.25991152683275" y1="455.7767526930198" x2="498.87221257798376" y2="483.00020472556355" stroke="#00ff60" stroke-opacity=".58" stroke-width="2.2" filter="url(#skr1x400)"/><line x1="454.5424073311314" y1="490.04870081329716" x2="453.72981082255023" y2="521.1712098864839" stroke="#00ff60" stroke-opacity=".52" stroke-width="1.5" filter="url(#skr1x400)"/><line x1="476.90218135029073" y1="491.974894528836" x2="477.90688302874565" y2="521.5418667843566" stroke="#00ff60" stroke-opacity=".52" stroke-width="1.5" filter="url(#skr1x400)"/><line x1="500.27607893235984" y1="491.8685243931599" x2="500.8786664001644" y2="520.1922409793362" stroke="#00ff60" stroke-opacity=".52" stroke-width="1.5" filter="url(#skr1x400)"/><line x1="523.9854556484706" y1="490.19170342478895" x2="522.5219974946789" y2="519.250149520021" stroke="#00ff60" stroke-opacity=".52" stroke-width="1.5" filter="url(#skr1x400)"/><line x1="545.1591232625022" y1="490.8215983955189" x2="545.7390858404525" y2="521.0063752695918" stroke="#00ff60" stroke-opacity=".52" stroke-width="1.5" filter="url(#skr1x400)"/><polygon points="431.6,503.1 566.2,505.2 555.4,557.3 446.6,556.1" fill="#00441e" fill-opacity=".72" stroke="#00ff60" stroke-width="1.3" filter="url(#skr1x400)"/><path d="M387.60198803652077 326.5038358873688 Q332.7679062667861 215.1391491495073 382.04368111830206 141.97077216962353" stroke="#00ff60" stroke-width="5" fill="none" stroke-linecap="round" filter="url(#skr1x400)"/><path d="M386.99219044722616 326.09473184002564 Q330.005626922436 216.62819780437275 381.48619203543296 140.01031086100267" stroke="rgba(255,255,255,.25)" stroke-width="1.5" fill="none" stroke-linecap="round"/><path d="M611.6903685661406 325.63255223650486 Q669.5967321251892 216.68331086710094 617.9044905569032 140.4591141280718" stroke="#00ff60" stroke-width="5" fill="none" stroke-linecap="round" filter="url(#skr1x400)"/><path d="M610.5392744878679 325.540929231327 Q667.5663549063169 218.21458116732538 619.2511283768899 142.1900937009603" stroke="rgba(255,255,255,.25)" stroke-width="1.5" fill="none" stroke-linecap="round"/><text x="30.0"  y="975.0" font-family="monospace" font-weight="bold" font-size="22.0" fill="rgba(255,255,255,.22)">#0001</text><text x="500.0"   y="975.0" text-anchor="middle" font-family="monospace" font-weight="bold" font-size="22.0" fill="#00ff60" fill-opacity=".48">VIPER RANGER</text><text x="970.0" y="975.0" text-anchor="end"    font-family="monospace" font-weight="bold" font-size="22.0" fill="#00ff60" fill-opacity=".32">MECH RANGERS</text></svg>