<svg xmlns="http://www.w3.org/2000/svg" viewBox="0 0 1000 1000" width="1000" height="1000" shape-rendering="geometricPrecision"><defs>

  <!-- Scene gradients -->
  <radialGradient id="bgr1x4062" cx="50%" cy="42%" r="72%">
    <stop offset="0%"   stop-color="#1e0a2e"/>
    <stop offset="100%" stop-color="#0a0520"/>
  </radialGradient>
  <linearGradient id="suitr1x4062" x1="8%" y1="0%" x2="92%" y2="100%">
    <stop offset="0%"   stop-color="#ccccff" stop-opacity=".95"/>
    <stop offset="45%"  stop-color="#242438"/>
    <stop offset="100%" stop-color="#0a0520"/>
  </linearGradient>
  <linearGradient id="suitHir1x4062" x1="0%" y1="0%" x2="0%" y2="100%">
    <stop offset="0%"   stop-color="rgba(255,255,255,.28)"/>
    <stop offset="60%"  stop-color="rgba(255,255,255,.04)"/>
    <stop offset="100%" stop-color="rgba(255,255,255,0)"/>
  </linearGradient>
  <!-- Bevel: bright top, dark bottom for armour panels -->
  <linearGradient id="bevelr1x4062" x1="0%" y1="0%" x2="0%" y2="100%">
    <stop offset="0%"   stop-color="rgba(255,255,255,.55)"/>
    <stop offset="30%"  stop-color="#ccccff"/>
    <stop offset="70%"  stop-color="#242438"/>
    <stop offset="100%" stop-color="rgba(0,0,0,.5)"/>
  </linearGradient>

  <!-- Weapon: cold steel blade sweep -->
  <linearGradient id="blader1x4062" x1="0%" y1="0%" x2="100%" y2="0%">
    <stop offset="0%"   stop-color="#0e0e20"/>
    <stop offset="16%"  stop-color="#3e3e58"/>
    <stop offset="34%"  stop-color="#c8c8e0"/>
    <stop offset="50%"  stop-color="#f5f5ff"/>
    <stop offset="66%"  stop-color="#b8b8d0"/>
    <stop offset="84%"  stop-color="#2e2e48"/>
    <stop offset="100%" stop-color="#08080e"/>
  </linearGradient>
  <!-- Blade tip brightening -->
  <linearGradient id="bladeTipr1x4062" x1="0%" y1="100%" x2="0%" y2="0%">
    <stop offset="0%"   stop-color="rgba(255,255,255,0)"/>
    <stop offset="55%"  stop-color="rgba(255,255,255,.1)"/>
    <stop offset="100%" stop-color="rgba(255,255,255,.55)"/>
  </linearGradient>
  <!-- Gunmetal anodised — blaster body -->
  <linearGradient id="gunmetalr1x4062" x1="0%" y1="0%" x2="0%" y2="100%">
    <stop offset="0%"   stop-color="#46465e"/>
    <stop offset="18%"  stop-color="#828296"/>
    <stop offset="42%"  stop-color="#26263a"/>
    <stop offset="72%"  stop-color="#16162a"/>
    <stop offset="100%" stop-color="#0c0c18"/>
  </linearGradient>
  <!-- Brushed steel tube — barrel/rod -->
  <linearGradient id="barrelr1x4062" x1="0%" y1="0%" x2="100%" y2="0%">
    <stop offset="0%"   stop-color="#0a0a14"/>
    <stop offset="24%"  stop-color="#585875"/>
    <stop offset="50%"  stop-color="#a8a8c8"/>
    <stop offset="76%"  stop-color="#383852"/>
    <stop offset="100%" stop-color="#0a0a14"/>
  </linearGradient>
  <!-- Chrome rod — lance shaft -->
  <linearGradient id="chromer1x4062" x1="0%" y1="0%" x2="100%" y2="0%">
    <stop offset="0%"   stop-color="#0c0c18"/>
    <stop offset="20%"  stop-color="#686888"/>
    <stop offset="44%"  stop-color="#e0e0f0"/>
    <stop offset="56%"  stop-color="#c0c0d8"/>
    <stop offset="80%"  stop-color="#28283e"/>
    <stop offset="100%" stop-color="#0c0c18"/>
  </linearGradient>
  <!-- Titanium plate — shield face -->
  <linearGradient id="titaniumr1x4062" x1="0%" y1="0%" x2="100%" y2="100%">
    <stop offset="0%"   stop-color="#585878"/>
    <stop offset="28%"  stop-color="#ccccff" stop-opacity=".88"/>
    <stop offset="55%"  stop-color="#242438"/>
    <stop offset="80%"  stop-color="#181828"/>
    <stop offset="100%" stop-color="#0a0a18"/>
  </linearGradient>
  <!-- Artillery black-chrome — cannon body -->
  <linearGradient id="artilleryr1x4062" x1="0%" y1="0%" x2="0%" y2="100%">
    <stop offset="0%"   stop-color="#383850"/>
    <stop offset="14%"  stop-color="#78789a"/>
    <stop offset="36%"  stop-color="#202034"/>
    <stop offset="65%"  stop-color="#14141e"/>
    <stop offset="100%" stop-color="#0a0a12"/>
  </linearGradient>
  <!-- Energy orb — staff -->
  <radialGradient id="orbr1x4062" cx="35%" cy="35%" r="65%">
    <stop offset="0%"   stop-color="rgba(255,255,255,.9)"/>
    <stop offset="30%"  stop-color="#ccccff"/>
    <stop offset="68%"  stop-color="#242438"/>
    <stop offset="100%" stop-color="rgba(0,0,0,.6)"/>
  </radialGradient>
  <!-- Knuckle plate chrome -->
  <linearGradient id="knuckler1x4062" x1="0%" y1="0%" x2="0%" y2="100%">
    <stop offset="0%"   stop-color="#888aaa"/>
    <stop offset="32%"  stop-color="#ccccff" stop-opacity=".8"/>
    <stop offset="62%"  stop-color="#1a1a2c"/>
    <stop offset="100%" stop-color="#0a0a14"/>
  </linearGradient>

  <!-- Carbon fibre weave texture overlay -->
  <pattern id="carbonr1x4062" width="6" height="6" patternUnits="userSpaceOnUse">
    <rect width="6" height="6" fill="rgba(0,0,0,.08)"/>
    <rect x="0" y="0" width="3" height="3" fill="rgba(255,255,255,.022)"/>
    <rect x="3" y="3" width="3" height="3" fill="rgba(255,255,255,.022)"/>
    <line x1="0" y1="0" x2="3" y2="3" stroke="rgba(255,255,255,.038)" stroke-width=".5"/>
    <line x1="3" y1="0" x2="6" y2="3" stroke="rgba(0,0,0,.055)"       stroke-width=".5"/>
    <line x1="0" y1="3" x2="3" y2="6" stroke="rgba(0,0,0,.055)"       stroke-width=".5"/>
    <line x1="3" y1="3" x2="6" y2="6" stroke="rgba(255,255,255,.038)" stroke-width=".5"/>
  </pattern>

  <!-- Specular metal sheen on armour panels -->
  <filter id="metalr1x4062" x="-5%" y="-5%" width="110%" height="110%">
    <feSpecularLighting surfaceScale="4" specularConstant="1.8"
        specularExponent="42" lighting-color="#ffffff" result="spec">
      <feDistantLight elevation="52" azimuth="38"/>
    </feSpecularLighting>
    <feComposite in="spec" in2="SourceGraphic" operator="in" result="sm"/>
    <feComposite in="SourceGraphic" in2="sm" operator="arithmetic" k1="0" k2="1" k3="0.55" k4="0"/>
  </filter>

  <!-- Sharper specular for weapons — heavier glare -->
  <filter id="wmr1x4062" x="-8%" y="-8%" width="116%" height="116%">
    <feSpecularLighting surfaceScale="6" specularConstant="2.4"
        specularExponent="65" lighting-color="#ffffff" result="spec">
      <feDistantLight elevation="44" azimuth="28"/>
    </feSpecularLighting>
    <feComposite in="spec" in2="SourceGraphic" operator="in" result="sm"/>
    <feComposite in="SourceGraphic" in2="sm" operator="arithmetic" k1="0" k2="1" k3="0.78" k4="0"/>
  </filter>

  <!-- Sketch wobble -->
  <filter id="skr1x4062" x="-8%" y="-8%" width="116%" height="116%">
    <feTurbulence type="fractalNoise" baseFrequency="0.038"
        numOctaves="3" seed="41" result="noise"/>
    <feDisplacementMap in="SourceGraphic" in2="noise" scale="2.6"
        xChannelSelector="R" yChannelSelector="G" result="w"/>
    <feComposite in="w" in2="SourceGraphic" operator="atop"/>
  </filter>

  <!-- Glow: sharp accent -->
  <filter id="glowr1x4062" x="-20%" y="-20%" width="140%" height="140%">
    <feGaussianBlur stdDeviation="3.5" result="b"/>
    <feColorMatrix in="b" type="matrix"
        values="0 0 0 0 1  0 0 0 0 1  0 0 0 0 1  0 0 0 1.8 0" result="boost"/>
    <feMerge><feMergeNode in="boost"/><feMergeNode in="SourceGraphic"/></feMerge>
  </filter>

  <!-- Bloom: wide soft -->
  <filter id="bloomr1x4062" x="-40%" y="-40%" width="180%" height="180%">
    <feGaussianBlur stdDeviation="11" result="b"/>
    <feMerge><feMergeNode in="b"/><feMergeNode in="SourceGraphic"/></feMerge>
  </filter>

  </defs><rect width="1000" height="1000" fill="url(#bgr1x4062)"/><ellipse cx="500.0" cy="892.0" rx="350.0" ry="65.0" fill="rgba(0,0,0,.7)" filter="url(#bloomr1x4062)"/><ellipse cx="500.0" cy="889.0" rx="220.0" ry="34.0" fill="rgba(0,0,0,.45)"/><ellipse cx="500.0" cy="520.0" rx="320.0" ry="480.0" fill="#ff00ff" fill-opacity=".042" filter="url(#bloomr1x4062)"/><circle cx="254.1" cy="427.6" r="1.4" fill="#ff00ff" fill-opacity="0.41" filter="url(#glowr1x4062)"/><circle cx="524.1" cy="210.7" r="1.6" fill="#ff00ff" fill-opacity="0.41" filter="url(#glowr1x4062)"/><circle cx="299.3" cy="291.1" r="2.1" fill="#ff00ff" fill-opacity="0.60" filter="url(#glowr1x4062)"/><circle cx="326.7" cy="773.5" r="3.0" fill="#ff00ff" fill-opacity="0.74" filter="url(#glowr1x4062)"/><circle cx="403.8" cy="314.1" r="1.4" fill="#ff00ff" fill-opacity="0.63" filter="url(#glowr1x4062)"/><circle cx="312.4" cy="644.2" r="0.8" fill="#ff00ff" fill-opacity="0.60" filter="url(#glowr1x4062)"/><circle cx="593.9" cy="342.3" r="2.6" fill="#ff00ff" fill-opacity="0.83" filter="url(#glowr1x4062)"/><circle cx="731.9" cy="326.6" r="2.6" fill="#ff00ff" fill-opacity="0.66" filter="url(#glowr1x4062)"/><circle cx="421.8" cy="644.4" r="2.6" fill="#ff00ff" fill-opacity="0.39" filter="url(#glowr1x4062)"/><circle cx="381.8" cy="476.1" r="0.7" fill="#ff00ff" fill-opacity="0.39" filter="url(#glowr1x4062)"/><circle cx="542.5" cy="404.7" r="2.7" fill="#ff00ff" fill-opacity="0.54" filter="url(#glowr1x4062)"/><circle cx="701.2" cy="218.0" r="3.8" fill="#ff00ff" fill-opacity="0.89" filter="url(#glowr1x4062)"/><circle cx="633.2" cy="617.8" r="0.8" fill="#ff00ff" fill-opacity="0.56" filter="url(#glowr1x4062)"/><circle cx="625.3" cy="675.9" r="1.7" fill="#ff00ff" fill-opacity="0.44" filter="url(#glowr1x4062)"/><path d="M436.8,264.6 Q437.4,574.8 563.7,858.4" stroke="#ff00ff" stroke-opacity="0.69" stroke-width="1.6" fill="none" filter="url(#glowr1x4062)"/><path d="M498.8,282.3 Q476.3,461.2 502.4,657.7" stroke="#ff00ff" stroke-opacity="0.79" stroke-width="1.6" fill="none" filter="url(#glowr1x4062)"/><path d="M558.7,357.0 Q549.6,544.9 501.7,690.5" stroke="#ff00ff" stroke-opacity="0.53" stroke-width="0.7" fill="none" filter="url(#glowr1x4062)"/><path d="M348.9,342.7 Q305.8,474.9 535.0,633.7" stroke="#ff00ff" stroke-opacity="0.40" stroke-width="2.4" fill="none" filter="url(#glowr1x4062)"/><path d="M562.5,243.8 Q578.2,521.2 507.4,746.5" stroke="#ff00ff" stroke-opacity="0.64" stroke-width="2.2" fill="none" filter="url(#glowr1x4062)"/><polygon points="400.4,663.5 490.4,663.8 481.5,878.6 387.2,878.6" fill="url(#suitr1x4062)" stroke="#ccccff" stroke-width="2.2" filter="url(#skr1x4062) url(#metalr1x4062)"/><polygon points="398.6,661.0 490.6,662.0 482.0,876.2 389.0,876.7" fill="url(#carbonr1x4062)"/><polygon points="391.2,724.3 492.0,725.2 485.8,789.4 383.6,788.3" fill="url(#bevelr1x4062)" fill-opacity=".5" stroke="#ccccff" stroke-width="1.4" filter="url(#skr1x4062)"/><polygon points="510.5,661.9 600.2,664.0 613.3,876.6 520.3,878.1" fill="url(#suitr1x4062)" stroke="#ccccff" stroke-width="2.2" filter="url(#skr1x4062) url(#metalr1x4062)"/><polygon points="511.4,663.2 601.5,662.1 613.5,876.4 519.7,877.6" fill="url(#carbonr1x4062)"/><polygon points="507.8,725.3 606.4,725.1 615.7,789.4 515.1,789.4" fill="url(#bevelr1x4062)" fill-opacity=".5" stroke="#ccccff" stroke-width="1.4" filter="url(#skr1x4062)"/><rect x="391.1" y="837.6" width="100.3" height="24.7" fill="url(#bevelr1x4062)" stroke="#ccccff" stroke-width="1" filter="url(#skr1x4062)"/><rect x="506.7"  y="840.0" width="100.3" height="24.7" fill="url(#bevelr1x4062)" stroke="#ccccff" stroke-width="1" filter="url(#skr1x4062)"/><polygon points="371.0,877.4 494.7,879.0 505.0,919.8 361.9,920.5" fill="#242438" stroke="#ccccff" stroke-width="2" filter="url(#skr1x4062)"/><polygon points="504.2,878.6 628.8,878.8 638.7,921.8 496.3,923.2" fill="#242438" stroke="#ccccff" stroke-width="2" filter="url(#skr1x4062)"/><polygon points="304.5,634.4 697.6,634.0 637.0,681.3 363.0,683.3" fill="#ccccff" fill-opacity=".52" stroke="#ccccff" stroke-width="2" filter="url(#skr1x4062)"/><rect x="464.1" y="637.7" width="72.0" height="42.0" fill="url(#bevelr1x4062)" stroke="#ccccff" stroke-width="1.4" filter="url(#glowr1x4062)"/><rect x="485.7" y="642.2" width="28.0" height="22.0" rx="1" fill="rgba(255,255,255,.48)"/><polygon points="152.4,468.2 236.8,466.3 258.1,736.3 128.7,734.2" fill="url(#suitr1x4062)" stroke="#ccccff" stroke-width="2.2" filter="url(#skr1x4062) url(#metalr1x4062)"/><polygon points="171.8,432.0 251.7,430.7 242.3,510.3 158.5,510.0" fill="url(#bevelr1x4062)" fill-opacity=".72" stroke="#ccccff" stroke-width="2.2" filter="url(#skr1x4062)"/><polygon points="160.2,620.8 243.5,621.6 240.8,662.7 164.7,660.9" fill="#ccccff" fill-opacity=".42" stroke="#ccccff" stroke-width="1" filter="url(#skr1x4062)"/><polygon points="765.8,465.6 848.3,466.7 872.0,736.3 743.6,736.6" fill="url(#suitr1x4062)" stroke="#ccccff" stroke-width="2.2" filter="url(#skr1x4062) url(#metalr1x4062)"/><polygon points="747.2,431.0 826.4,431.1 840.8,510.6 756.1,509.3" fill="url(#bevelr1x4062)" fill-opacity=".72" stroke="#ccccff" stroke-width="2.2" filter="url(#skr1x4062)"/><polygon points="758.2,621.7 839.0,621.5 834.6,660.4 759.5,661.4" fill="#ccccff" fill-opacity=".42" stroke="#ccccff" stroke-width="1" filter="url(#skr1x4062)"/><rect x="119.5"  y="698.2" width="135.3" height="85.0" rx="4" fill="url(#bevelr1x4062)" stroke="#ccccff" stroke-width="1.8" filter="url(#skr1x4062)"/><rect x="747.3"   y="698.1" width="135.3" height="85.0" rx="4" fill="url(#bevelr1x4062)" stroke="#ccccff" stroke-width="1.8" filter="url(#skr1x4062)"/><line x1="150.4" y1="702.1" x2="150.7" y2="783.5" stroke="#ccccff" stroke-opacity=".38" stroke-width="1"/><line x1="779.1" y1="700.2" x2="779.5" y2="785.0" stroke="#ccccff" stroke-opacity=".38" stroke-width="1"/><line x1="181.7" y1="702.5" x2="181.0" y2="784.0" stroke="#ccccff" stroke-opacity=".38" stroke-width="1"/><line x1="812.6" y1="702.0" x2="810.1" y2="783.0" stroke="#ccccff" stroke-opacity=".38" stroke-width="1"/><line x1="216.0" y1="702.4" x2="214.6" y2="785.6" stroke="#ccccff" stroke-opacity=".38" stroke-width="1"/><line x1="842.7" y1="702.2" x2="843.9" y2="785.6" stroke="#ccccff" stroke-opacity=".38" stroke-width="1"/><polygon points="235.9,419.0 766.7,415.9 722.4,662.9 278.0,660.9" fill="url(#suitr1x4062)" stroke="#ccccff" stroke-width="2.6" filter="url(#skr1x4062) url(#metalr1x4062)"/><polygon points="236.7,418.3 763.3,416.5 721.3,661.7 278.7,661.6" fill="url(#carbonr1x4062)"/><polygon points="368.5,416.8 630.7,416.3 612.3,515.4 389.9,515.2" fill="url(#suitHir1x4062)"/><line x1="363.8" y1="472.9" x2="637.0" y2="472.2" stroke="#ccccff" stroke-opacity=".52" stroke-width="1.3" filter="url(#skr1x4062)"/><line x1="400.9" y1="548.1" x2="600.0" y2="550.4" stroke="#ccccff" stroke-opacity=".52" stroke-width="1.3" filter="url(#skr1x4062)"/><line x1="265.4" y1="490.0" x2="320.7" y2="490.1" stroke="#ccccff" stroke-opacity=".62" stroke-width="1.8"/><line x1="679.0" y1="491.4" x2="733.2" y2="492.4" stroke="#ccccff" stroke-opacity=".62" stroke-width="1.8"/><line x1="268.1" y1="524.1" x2="318.5" y2="522.7" stroke="#ccccff" stroke-opacity=".62" stroke-width="1.8"/><line x1="681.1" y1="523.4" x2="735.0" y2="522.6" stroke="#ccccff" stroke-opacity=".62" stroke-width="1.8"/><line x1="265.8" y1="553.7" x2="319.4" y2="555.1" stroke="#ccccff" stroke-opacity=".62" stroke-width="1.8"/><line x1="680.5" y1="554.1" x2="733.8" y2="556.2" stroke="#ccccff" stroke-opacity=".62" stroke-width="1.8"/><line x1="266.3" y1="588.1" x2="321.1" y2="585.2" stroke="#ccccff" stroke-opacity=".62" stroke-width="1.8"/><line x1="679.6" y1="585.6" x2="734.5" y2="586.3" stroke="#ccccff" stroke-opacity=".62" stroke-width="1.8"/><g filter="url(#glowr1x4062)"><ellipse cx="498.8" cy="509.6" rx="42.9" ry="23.2" fill="#0a0520" stroke="#ccccff" stroke-width="1.6" filter="url(#skr1x4062)"/><circle cx="499.5" cy="512.3" r="15.1" fill="#ccccff"/><circle cx="498.1" cy="506.6" r="5.8" fill="#0a0520"/><ellipse cx="495.4" cy="503.8" rx="3.5" ry="2.3" fill="rgba(255,255,255,.7)"/></g><g><polygon points="30.4,292.9 172.3,294.9 170.8,590.7 100.4,725.7 33.1,589.9" fill="url(#titaniumr1x4062)" stroke="#ccccff" stroke-width="2.6" filter="url(#wmr1x4062)"/><polygon points="31.2,294.0 170.9,293.8 171.9,590.4 101.2,727.9 30.5,590.9" fill="url(#carbonr1x4062)"/><polygon points="64.0,360.6 140.0,360.2 139.3,540.6 100.6,632.8 63.3,540.2" fill="#ccccff" fill-opacity=".28" stroke="#ccccff" stroke-width="1.5"/><line x1="49.61781727731225" y1="430.4068594990298" x2="154.83408072818068" y2="432.1588886174373" stroke="#ccccff" stroke-opacity=".65" stroke-width="1.3"/><line x1="102.0837448815256" y1="329.9281320857815" x2="102.3054916168004" y2="592.1048423857428" stroke="#ccccff" stroke-opacity=".4" stroke-width="1"/><line x1="32.69605017131191" y1="295.3456713066436" x2="169.7727935506403" y2="296.2570817657746" stroke="rgba(255,255,255,.5)" stroke-width="2"/><circle cx="100.41660596098748" cy="431.8508081319742" r="18.0" fill="url(#bevelr1x4062)" stroke="#ccccff" stroke-width="1.2" filter="url(#wmr1x4062)"/></g><rect x="450.6709497688338" y="556.9536863957532" width="100.0"  height="56.0" fill="#242438" stroke="#ccccff" stroke-width="2.2" filter="url(#skr1x4062)"/><rect x="424.0226944638416" y="575.7046842803247" width="152.0" height="26.0" fill="url(#bevelr1x4062)" fill-opacity=".65" stroke="#ccccff" stroke-width="1.2" filter="url(#skr1x4062)"/><polygon points="309.7,380.1 351.1,293.9 500.8,277.6 650.4,294.1 691.1,381.9 668.8,504.3 498.4,564.6 332.2,504.9" fill="url(#suitr1x4062)" stroke="#ccccff" stroke-width="2.8" filter="url(#skr1x4062) url(#metalr1x4062)"/><polygon points="309.2,379.0 348.6,295.3 501.7,278.7 650.8,293.3 690.7,379.7 668.5,503.1 498.5,563.4 331.3,503.9" fill="url(#carbonr1x4062)"/><polygon points="382.7,304.3 498.7,285.9 620.3,302.6 607.3,379.9 393.3,380.2" fill="url(#suitHir1x4062)"/><polygon points="380.1,379.5 364.4,425.2 431.1,505.0 501.6,527.0 566.0,502.0 635.4,423.9 617.4,382.1" fill="#0a0520" fill-opacity=".88" stroke="#ccccff" stroke-width="1.8" filter="url(#skr1x4062)"/><polygon points="380.9,412.9 477.6,412.8 484.3,441.1 387.3,441.2" fill="#ccccff" filter="url(#glowr1x4062)"/><polygon points="524.1,411.3 618.2,412.4 610.9,440.1 515.3,438.9" fill="#ccccff" filter="url(#glowr1x4062)"/><ellipse cx="430.9" cy="425.7" rx="38.4"  ry="8.2" fill="#ffffff" opacity=".88"/><ellipse cx="569.1" cy="425.7" rx="38.4"  ry="8.2" fill="#ffffff" opacity=".88"/><line x1="486.19315339248624" y1="412.56917368853465" x2="515.8397278814018" y2="415.02992714205755" stroke="#ccccff" stroke-opacity=".52" stroke-width="2"/><line x1="485.96710832003504" y1="439.47995814057066" x2="514.3446679141745" y2="438.0904592089355" stroke="#ccccff" stroke-opacity=".52" stroke-width="2"/><line x1="500.36717690601944" y1="453.7280979245901" x2="501.09847797695545" y2="481.55110191870483" stroke="#ccccff" stroke-opacity=".58" stroke-width="2.2" filter="url(#skr1x4062)"/><line x1="455.28106270654126" y1="490.7702565647661" x2="455.1633041997254" y2="519.1885900679976" stroke="#ccccff" stroke-opacity=".52" stroke-width="1.5" filter="url(#skr1x4062)"/><line x1="478.6227645008266" y1="490.73618695558974" x2="478.01308184670285" y2="521.2715120439418" stroke="#ccccff" stroke-opacity=".52" stroke-width="1.5" filter="url(#skr1x4062)"/><line x1="499.4945100718178" y1="490.395862923935" x2="501.400023106765" y2="521.1886788045056" stroke="#ccccff" stroke-opacity=".52" stroke-width="1.5" filter="url(#skr1x4062)"/><line x1="522.3790701350756" y1="493.031860018894" x2="522.5471102616377" y2="519.9038012803533" stroke="#ccccff" stroke-opacity=".52" stroke-width="1.5" filter="url(#skr1x4062)"/><line x1="545.2080114302412" y1="491.20855369037014" x2="546.6849538198859" y2="518.9334695179016" stroke="#ccccff" stroke-opacity=".52" stroke-width="1.5" filter="url(#skr1x4062)"/><polygon points="431.5,503.4 565.6,503.9 552.5,555.9 446.5,556.6" fill="#242438" fill-opacity=".72" stroke="#ccccff" stroke-width="1.3" filter="url(#skr1x4062)"/><path d="M474.4727767878957 310.969184269011 C304.82131590940054 145.51820098971945 419.3440409334749 242.76330755939705 501.7435337653384 310.10423176549375" fill="#ccccff" fill-opacity=".92" stroke="#ccccff" stroke-width="2.2" filter="url(#skr1x4062)"/><path d="M472.80838146207856 309.4279574689455 C304.4742195162363 147.33849099650976 418.5409614841826 241.7899015545845 500.4390435122885 310.0708025362342" fill="url(#suitHir1x4062)" opacity=".28"/><path d="M526.3117716355436 311.0698996132239 C694.5657262480446 148.4625251078978 579.0011956454813 240.33337742323056 500.03069246327505 312.31545289633794" fill="#ccccff" fill-opacity=".92" stroke="#ccccff" stroke-width="2.2" filter="url(#skr1x4062)"/><path d="M527.3744213249721 310.828889961075 C697.2946479873359 145.37313906615597 580.9329495518095 241.17564453128725 499.43876903019844 312.049812248908" fill="url(#suitHir1x4062)" opacity=".28"/><text x="30.0"  y="975.0" font-family="monospace" font-weight="bold" font-size="22.0" fill="rgba(255,255,255,.22)">#0001</text><text x="500.0"   y="975.0" text-anchor="middle" font-family="monospace" font-weight="bold" font-size="22.0" fill="#ccccff" fill-opacity=".48">PHANTOM RANGER</text><text x="970.0" y="975.0" text-anchor="end"    font-family="monospace" font-weight="bold" font-size="22.0" fill="#ccccff" fill-opacity=".32">MECH RANGERS</text></svg>