<svg xmlns="http://www.w3.org/2000/svg" viewBox="0 0 1000 1000" width="1000" height="1000" shape-rendering="geometricPrecision"><defs>

  <!-- Scene gradients -->
  <radialGradient id="bgr1x4079" cx="50%" cy="42%" r="72%">
    <stop offset="0%"   stop-color="#0a0a14"/>
    <stop offset="100%" stop-color="#050508"/>
  </radialGradient>
  <linearGradient id="suitr1x4079" x1="8%" y1="0%" x2="92%" y2="100%">
    <stop offset="0%"   stop-color="#00ff60" stop-opacity=".95"/>
    <stop offset="45%"  stop-color="#00441e"/>
    <stop offset="100%" stop-color="#050508"/>
  </linearGradient>
  <linearGradient id="suitHir1x4079" x1="0%" y1="0%" x2="0%" y2="100%">
    <stop offset="0%"   stop-color="rgba(255,255,255,.28)"/>
    <stop offset="60%"  stop-color="rgba(255,255,255,.04)"/>
    <stop offset="100%" stop-color="rgba(255,255,255,0)"/>
  </linearGradient>
  <!-- Bevel: bright top, dark bottom for armour panels -->
  <linearGradient id="bevelr1x4079" x1="0%" y1="0%" x2="0%" y2="100%">
    <stop offset="0%"   stop-color="rgba(255,255,255,.55)"/>
    <stop offset="30%"  stop-color="#00ff60"/>
    <stop offset="70%"  stop-color="#00441e"/>
    <stop offset="100%" stop-color="rgba(0,0,0,.5)"/>
  </linearGradient>

  <!-- Weapon: cold steel blade sweep -->
  <linearGradient id="blader1x4079" x1="0%" y1="0%" x2="100%" y2="0%">
    <stop offset="0%"   stop-color="#0e0e20"/>
    <stop offset="16%"  stop-color="#3e3e58"/>
    <stop offset="34%"  stop-color="#c8c8e0"/>
    <stop offset="50%"  stop-color="#f5f5ff"/>
    <stop offset="66%"  stop-color="#b8b8d0"/>
    <stop offset="84%"  stop-color="#2e2e48"/>
    <stop offset="100%" stop-color="#08080e"/>
  </linearGradient>
  <!-- Blade tip brightening -->
  <linearGradient id="bladeTipr1x4079" x1="0%" y1="100%" x2="0%" y2="0%">
    <stop offset="0%"   stop-color="rgba(255,255,255,0)"/>
    <stop offset="55%"  stop-color="rgba(255,255,255,.1)"/>
    <stop offset="100%" stop-color="rgba(255,255,255,.55)"/>
  </linearGradient>
  <!-- Gunmetal anodised — blaster body -->
  <linearGradient id="gunmetalr1x4079" x1="0%" y1="0%" x2="0%" y2="100%">
    <stop offset="0%"   stop-color="#46465e"/>
    <stop offset="18%"  stop-color="#828296"/>
    <stop offset="42%"  stop-color="#26263a"/>
    <stop offset="72%"  stop-color="#16162a"/>
    <stop offset="100%" stop-color="#0c0c18"/>
  </linearGradient>
  <!-- Brushed steel tube — barrel/rod -->
  <linearGradient id="barrelr1x4079" x1="0%" y1="0%" x2="100%" y2="0%">
    <stop offset="0%"   stop-color="#0a0a14"/>
    <stop offset="24%"  stop-color="#585875"/>
    <stop offset="50%"  stop-color="#a8a8c8"/>
    <stop offset="76%"  stop-color="#383852"/>
    <stop offset="100%" stop-color="#0a0a14"/>
  </linearGradient>
  <!-- Chrome rod — lance shaft -->
  <linearGradient id="chromer1x4079" x1="0%" y1="0%" x2="100%" y2="0%">
    <stop offset="0%"   stop-color="#0c0c18"/>
    <stop offset="20%"  stop-color="#686888"/>
    <stop offset="44%"  stop-color="#e0e0f0"/>
    <stop offset="56%"  stop-color="#c0c0d8"/>
    <stop offset="80%"  stop-color="#28283e"/>
    <stop offset="100%" stop-color="#0c0c18"/>
  </linearGradient>
  <!-- Titanium plate — shield face -->
  <linearGradient id="titaniumr1x4079" x1="0%" y1="0%" x2="100%" y2="100%">
    <stop offset="0%"   stop-color="#585878"/>
    <stop offset="28%"  stop-color="#00ff60" stop-opacity=".88"/>
    <stop offset="55%"  stop-color="#00441e"/>
    <stop offset="80%"  stop-color="#181828"/>
    <stop offset="100%" stop-color="#0a0a18"/>
  </linearGradient>
  <!-- Artillery black-chrome — cannon body -->
  <linearGradient id="artilleryr1x4079" x1="0%" y1="0%" x2="0%" y2="100%">
    <stop offset="0%"   stop-color="#383850"/>
    <stop offset="14%"  stop-color="#78789a"/>
    <stop offset="36%"  stop-color="#202034"/>
    <stop offset="65%"  stop-color="#14141e"/>
    <stop offset="100%" stop-color="#0a0a12"/>
  </linearGradient>
  <!-- Energy orb — staff -->
  <radialGradient id="orbr1x4079" cx="35%" cy="35%" r="65%">
    <stop offset="0%"   stop-color="rgba(255,255,255,.9)"/>
    <stop offset="30%"  stop-color="#00ff60"/>
    <stop offset="68%"  stop-color="#00441e"/>
    <stop offset="100%" stop-color="rgba(0,0,0,.6)"/>
  </radialGradient>
  <!-- Knuckle plate chrome -->
  <linearGradient id="knuckler1x4079" x1="0%" y1="0%" x2="0%" y2="100%">
    <stop offset="0%"   stop-color="#888aaa"/>
    <stop offset="32%"  stop-color="#00ff60" stop-opacity=".8"/>
    <stop offset="62%"  stop-color="#1a1a2c"/>
    <stop offset="100%" stop-color="#0a0a14"/>
  </linearGradient>

  <!-- Carbon fibre weave texture overlay -->
  <pattern id="carbonr1x4079" width="6" height="6" patternUnits="userSpaceOnUse">
    <rect width="6" height="6" fill="rgba(0,0,0,.08)"/>
    <rect x="0" y="0" width="3" height="3" fill="rgba(255,255,255,.022)"/>
    <rect x="3" y="3" width="3" height="3" fill="rgba(255,255,255,.022)"/>
    <line x1="0" y1="0" x2="3" y2="3" stroke="rgba(255,255,255,.038)" stroke-width=".5"/>
    <line x1="3" y1="0" x2="6" y2="3" stroke="rgba(0,0,0,.055)"       stroke-width=".5"/>
    <line x1="0" y1="3" x2="3" y2="6" stroke="rgba(0,0,0,.055)"       stroke-width=".5"/>
    <line x1="3" y1="3" x2="6" y2="6" stroke="rgba(255,255,255,.038)" stroke-width=".5"/>
  </pattern>

  <!-- Specular metal sheen on armour panels -->
  <filter id="metalr1x4079" x="-5%" y="-5%" width="110%" height="110%">
    <feSpecularLighting surfaceScale="4" specularConstant="1.8"
        specularExponent="42" lighting-color="#ffffff" result="spec">
      <feDistantLight elevation="52" azimuth="38"/>
    </feSpecularLighting>
    <feComposite in="spec" in2="SourceGraphic" operator="in" result="sm"/>
    <feComposite in="SourceGraphic" in2="sm" operator="arithmetic" k1="0" k2="1" k3="0.55" k4="0"/>
  </filter>

  <!-- Sharper specular for weapons — heavier glare -->
  <filter id="wmr1x4079" x="-8%" y="-8%" width="116%" height="116%">
    <feSpecularLighting surfaceScale="6" specularConstant="2.4"
        specularExponent="65" lighting-color="#ffffff" result="spec">
      <feDistantLight elevation="44" azimuth="28"/>
    </feSpecularLighting>
    <feComposite in="spec" in2="SourceGraphic" operator="in" result="sm"/>
    <feComposite in="SourceGraphic" in2="sm" operator="arithmetic" k1="0" k2="1" k3="0.78" k4="0"/>
  </filter>

  <!-- Sketch wobble -->
  <filter id="skr1x4079" x="-8%" y="-8%" width="116%" height="116%">
    <feTurbulence type="fractalNoise" baseFrequency="0.038"
        numOctaves="3" seed="7" result="noise"/>
    <feDisplacementMap in="SourceGraphic" in2="noise" scale="2.6"
        xChannelSelector="R" yChannelSelector="G" result="w"/>
    <feComposite in="w" in2="SourceGraphic" operator="atop"/>
  </filter>

  <!-- Glow: sharp accent -->
  <filter id="glowr1x4079" x="-20%" y="-20%" width="140%" height="140%">
    <feGaussianBlur stdDeviation="3.5" result="b"/>
    <feColorMatrix in="b" type="matrix"
        values="0 0 0 0 1  0 0 0 0 1  0 0 0 0 1  0 0 0 1.8 0" result="boost"/>
    <feMerge><feMergeNode in="boost"/><feMergeNode in="SourceGraphic"/></feMerge>
  </filter>

  <!-- Bloom: wide soft -->
  <filter id="bloomr1x4079" x="-40%" y="-40%" width="180%" height="180%">
    <feGaussianBlur stdDeviation="11" result="b"/>
    <feMerge><feMergeNode in="b"/><feMergeNode in="SourceGraphic"/></feMerge>
  </filter>

  </defs><rect width="1000" height="1000" fill="url(#bgr1x4079)"/><ellipse cx="500.0" cy="892.0" rx="350.0" ry="65.0" fill="rgba(0,0,0,.7)" filter="url(#bloomr1x4079)"/><ellipse cx="500.0" cy="889.0" rx="220.0" ry="34.0" fill="rgba(0,0,0,.45)"/><polygon points="397.9,661.6 490.6,664.2 480.3,877.0 387.1,876.8" fill="url(#suitr1x4079)" stroke="#00ff60" stroke-width="2.2" filter="url(#skr1x4079) url(#metalr1x4079)"/><polygon points="398.1,661.9 487.9,662.0 482.2,876.7 386.7,877.2" fill="url(#carbonr1x4079)"/><polygon points="391.4,723.2 493.2,723.7 482.4,786.8 384.4,787.6" fill="url(#bevelr1x4079)" fill-opacity=".5" stroke="#00ff60" stroke-width="1.4" filter="url(#skr1x4079)"/><polygon points="511.8,663.2 600.2,662.8 614.2,878.0 519.0,877.5" fill="url(#suitr1x4079)" stroke="#00ff60" stroke-width="2.2" filter="url(#skr1x4079) url(#metalr1x4079)"/><polygon points="511.7,661.4 602.3,662.4 611.3,877.2 518.4,878.4" fill="url(#carbonr1x4079)"/><polygon points="506.2,725.2 608.3,723.7 617.7,786.8 517.6,788.8" fill="url(#bevelr1x4079)" fill-opacity=".5" stroke="#00ff60" stroke-width="1.4" filter="url(#skr1x4079)"/><rect x="391.1" y="837.8" width="100.3" height="24.7" fill="url(#bevelr1x4079)" stroke="#00ff60" stroke-width="1" filter="url(#skr1x4079)"/><rect x="508.1"  y="838.7" width="100.3" height="24.7" fill="url(#bevelr1x4079)" stroke="#00ff60" stroke-width="1" filter="url(#skr1x4079)"/><polygon points="369.7,878.7 494.8,879.1 505.2,921.2 363.5,921.3" fill="#00441e" stroke="#00ff60" stroke-width="2" filter="url(#skr1x4079)"/><polygon points="503.8,877.8 629.9,878.5 636.6,919.8 496.3,921.8" fill="#00441e" stroke="#00ff60" stroke-width="2" filter="url(#skr1x4079)"/><polygon points="305.1,631.9 695.7,634.8 637.4,682.4 362.1,681.1" fill="#00ff60" fill-opacity=".52" stroke="#00ff60" stroke-width="2" filter="url(#skr1x4079)"/><rect x="464.7" y="638.0" width="72.0" height="42.0" fill="url(#bevelr1x4079)" stroke="#00ff60" stroke-width="1.4" filter="url(#glowr1x4079)"/><rect x="487.7" y="641.2" width="28.0" height="22.0" rx="1" fill="rgba(255,255,255,.48)"/><polygon points="153.9,467.7 233.6,466.3 259.0,733.7 129.6,736.7" fill="url(#suitr1x4079)" stroke="#00ff60" stroke-width="2.2" filter="url(#skr1x4079) url(#metalr1x4079)"/><polygon points="174.8,433.7 253.2,433.8 244.2,509.6 161.2,511.9" fill="url(#bevelr1x4079)" fill-opacity=".72" stroke="#00ff60" stroke-width="2.2" filter="url(#skr1x4079)"/><polygon points="162.2,623.6 243.7,622.1 237.6,661.5 166.5,659.9" fill="#00ff60" fill-opacity=".42" stroke="#00ff60" stroke-width="1" filter="url(#skr1x4079)"/><polygon points="764.1,467.4 845.5,468.2 871.7,734.7 743.8,733.6" fill="url(#suitr1x4079)" stroke="#00ff60" stroke-width="2.2" filter="url(#skr1x4079) url(#metalr1x4079)"/><polygon points="746.6,432.0 826.5,431.2 839.1,512.0 758.6,510.6" fill="url(#bevelr1x4079)" fill-opacity=".72" stroke="#00ff60" stroke-width="2.2" filter="url(#skr1x4079)"/><polygon points="755.6,620.9 839.1,622.7 833.6,662.3 760.0,660.2" fill="#00ff60" fill-opacity=".42" stroke="#00ff60" stroke-width="1" filter="url(#skr1x4079)"/><rect x="121.5"  y="700.5" width="135.3" height="85.0" rx="4" fill="url(#bevelr1x4079)" stroke="#00ff60" stroke-width="1.8" filter="url(#skr1x4079)"/><rect x="748.8"   y="699.4" width="135.3" height="85.0" rx="4" fill="url(#bevelr1x4079)" stroke="#00ff60" stroke-width="1.8" filter="url(#skr1x4079)"/><line x1="151.0" y1="701.9" x2="150.3" y2="783.5" stroke="#00ff60" stroke-opacity=".38" stroke-width="1"/><line x1="778.0" y1="702.7" x2="779.4" y2="783.2" stroke="#00ff60" stroke-opacity=".38" stroke-width="1"/><line x1="183.8" y1="701.7" x2="184.1" y2="783.5" stroke="#00ff60" stroke-opacity=".38" stroke-width="1"/><line x1="812.2" y1="702.1" x2="809.9" y2="785.3" stroke="#00ff60" stroke-opacity=".38" stroke-width="1"/><line x1="216.2" y1="700.9" x2="217.1" y2="783.9" stroke="#00ff60" stroke-opacity=".38" stroke-width="1"/><line x1="843.6" y1="703.1" x2="845.0" y2="782.9" stroke="#00ff60" stroke-opacity=".38" stroke-width="1"/><polygon points="236.1,419.1 766.3,419.2 724.0,662.3 276.8,661.2" fill="url(#suitr1x4079)" stroke="#00ff60" stroke-width="2.6" filter="url(#skr1x4079) url(#metalr1x4079)"/><polygon points="236.7,416.7 763.8,418.7 724.3,663.2 277.6,664.2" fill="url(#carbonr1x4079)"/><polygon points="366.2,418.4 633.9,418.0 610.0,515.4 389.2,516.8" fill="url(#suitHir1x4079)"/><line x1="363.9" y1="470.5" x2="637.5" y2="473.0" stroke="#00ff60" stroke-opacity=".52" stroke-width="1.3" filter="url(#skr1x4079)"/><line x1="399.2" y1="550.1" x2="602.4" y2="550.4" stroke="#00ff60" stroke-opacity=".52" stroke-width="1.3" filter="url(#skr1x4079)"/><line x1="266.5" y1="491.7" x2="320.3" y2="491.0" stroke="#00ff60" stroke-opacity=".62" stroke-width="1.8"/><line x1="681.8" y1="491.2" x2="733.0" y2="491.0" stroke="#00ff60" stroke-opacity=".62" stroke-width="1.8"/><line x1="266.7" y1="521.2" x2="318.8" y2="522.3" stroke="#00ff60" stroke-opacity=".62" stroke-width="1.8"/><line x1="679.6" y1="521.3" x2="734.5" y2="522.9" stroke="#00ff60" stroke-opacity=".62" stroke-width="1.8"/><line x1="265.9" y1="554.0" x2="318.5" y2="556.0" stroke="#00ff60" stroke-opacity=".62" stroke-width="1.8"/><line x1="679.2" y1="555.1" x2="733.4" y2="554.4" stroke="#00ff60" stroke-opacity=".62" stroke-width="1.8"/><line x1="265.7" y1="585.2" x2="318.6" y2="585.2" stroke="#00ff60" stroke-opacity=".62" stroke-width="1.8"/><line x1="680.3" y1="585.0" x2="732.4" y2="586.3" stroke="#00ff60" stroke-opacity=".62" stroke-width="1.8"/><g filter="url(#glowr1x4079)"><polygon points="484.1,451.2 514.0,504.8 499.5,507.0 515.9,570.1 485.8,514.7 498.4,516.9" fill="#00ff60" stroke="#050508" stroke-width="1.4" filter="url(#skr1x4079)"/><polygon points="483.0,451.4 512.8,505.1 500.1,507.6 518.3,570.1 485.7,515.9 498.8,514.5" fill="url(#suitHir1x4079)" opacity=".4"/></g><g><rect x="33.519824343398184" y="423.07646737275644" width="148.0" height="82.0" rx="5" fill="url(#gunmetalr1x4079)" stroke="#00ff60" stroke-width="2" filter="url(#wmr1x4079)"/><rect x="33.54434790028256" y="420.64881162075324" width="148.0" height="82.0" rx="5" fill="url(#carbonr1x4079)"/><rect x="42.50563873996955" y="403.9926138521172" width="90.0" height="22.0" rx="3" fill="url(#barrelr1x4079)" stroke="#00ff60" stroke-width="1" filter="url(#wmr1x4079)"/><circle cx="82.98723593413827" cy="415.9876605688594" r="15.0" fill="#00ff60" opacity=".8" filter="url(#glowr1x4079)"/><circle cx="83.19217558227476" cy="414.7801665978506" r="6.0" fill="rgba(255,255,255,.9)"/><rect x="52.557364136017824" y="454.6940426325425" width="78.0" height="36.0" rx="5" fill="url(#barrelr1x4079)" stroke="#00ff60" stroke-width="1.2" filter="url(#wmr1x4079)"/><circle cx="-19.015617759395422" cy="472.0018947093747" r="18.0" fill="#00ff60" filter="url(#glowr1x4079)" opacity=".88"/><circle cx="-18.19643712254244" cy="473.03902134606614" r="7.0" fill="#ffffff"/><rect x="77.01219930391755" y="500.667413011007" width="44.0" height="42.0" rx="3" fill="url(#gunmetalr1x4079)" stroke="#00ff60" stroke-width="1" filter="url(#wmr1x4079)"/><rect x="36.80203789597374" y="422.14393161684274" width="90.0" height="10.0" rx="2" fill="rgba(255,255,255,.22)"/><line x1="62.72901266416532" y1="485.6631564400159" x2="63.24460667235773" y2="520.6632929701358" stroke="#00ff60" stroke-opacity=".5" stroke-width="1.2"/><line x1="78.12906222188842" y1="486.2189526609145" x2="78.54808003477748" y2="520.5491495907306" stroke="#00ff60" stroke-opacity=".5" stroke-width="1.2"/><line x1="94.47518454318863" y1="486.09970821784805" x2="95.93376292813566" y2="517.7147706952877" stroke="#00ff60" stroke-opacity=".5" stroke-width="1.2"/></g><rect x="449.9869844214991" y="557.808531378489" width="100.0"  height="56.0" fill="#00441e" stroke="#00ff60" stroke-width="2.2" filter="url(#skr1x4079)"/><rect x="424.09099754085764" y="574.9788383699023" width="152.0" height="26.0" fill="url(#bevelr1x4079)" fill-opacity=".65" stroke="#00ff60" stroke-width="1.2" filter="url(#skr1x4079)"/><polygon points="307.6,380.5 351.4,294.5 501.4,278.9 650.4,296.0 690.5,380.6 670.7,503.0 500.1,563.3 332.2,504.4" fill="url(#suitr1x4079)" stroke="#00ff60" stroke-width="2.8" filter="url(#skr1x4079) url(#metalr1x4079)"/><polygon points="308.1,380.0 350.4,295.1 498.7,276.7 651.4,295.6 693.1,381.4 670.3,502.5 499.6,564.6 330.7,503.9" fill="url(#carbonr1x4079)"/><polygon points="381.9,303.3 499.3,288.0 620.7,302.0 609.2,379.9 391.4,379.6" fill="url(#suitHir1x4079)"/><polygon points="379.3,379.0 366.7,424.6 434.0,503.3 500.0,526.5 565.7,502.3 635.9,425.6 617.9,382.0" fill="#050508" fill-opacity=".88" stroke="#00ff60" stroke-width="1.8" filter="url(#skr1x4079)"/><polygon points="381.5,413.1 478.4,412.8 483.6,441.3 387.4,440.0" fill="#00ff60" filter="url(#glowr1x4079)"/><polygon points="523.6,410.6 618.9,412.7 610.7,441.3 516.5,441.0" fill="#00ff60" filter="url(#glowr1x4079)"/><ellipse cx="430.9" cy="425.7" rx="38.4"  ry="8.2" fill="#ffffff" opacity=".88"/><ellipse cx="569.1" cy="425.7" rx="38.4"  ry="8.2" fill="#ffffff" opacity=".88"/><line x1="485.66693025516344" y1="415.0962251479737" x2="515.0373467360065" y2="413.78158661546183" stroke="#00ff60" stroke-opacity=".52" stroke-width="2"/><line x1="486.0914625456184" y1="438.521353783831" x2="515.5170853395388" y2="436.20619037747383" stroke="#00ff60" stroke-opacity=".52" stroke-width="2"/><line x1="501.3122052978724" y1="453.8092995938845" x2="500.84967146171255" y2="482.99615521188827" stroke="#00ff60" stroke-opacity=".58" stroke-width="2.2" filter="url(#skr1x4079)"/><line x1="454.28486155865716" y1="491.4773466165177" x2="453.6455506864749" y2="520.6653777805157" stroke="#00ff60" stroke-opacity=".52" stroke-width="1.5" filter="url(#skr1x4079)"/><line x1="475.3180018637702" y1="492.1758594617247" x2="476.1374922865443" y2="519.8276473850943" stroke="#00ff60" stroke-opacity=".52" stroke-width="1.5" filter="url(#skr1x4079)"/><line x1="499.5957117206417" y1="491.95383046334604" x2="501.0309166070074" y2="518.2935321168974" stroke="#00ff60" stroke-opacity=".52" stroke-width="1.5" filter="url(#skr1x4079)"/><line x1="524.0675786322541" y1="490.77609000392255" x2="524.2348263864964" y2="518.9445120207034" stroke="#00ff60" stroke-opacity=".52" stroke-width="1.5" filter="url(#skr1x4079)"/><line x1="544.9909655931592" y1="490.78509406391527" x2="547.1353339635023" y2="520.9011027256959" stroke="#00ff60" stroke-opacity=".52" stroke-width="1.5" filter="url(#skr1x4079)"/><polygon points="431.2,502.8 566.1,503.6 555.1,558.5 446.4,555.3" fill="#00441e" fill-opacity=".72" stroke="#00ff60" stroke-width="1.3" filter="url(#skr1x4079)"/><path d="M343.5585038436018 373.5988063161261 Q382.43573971142996 238.00693281879649 501.29441340081394 282.4433571591973" stroke="#00ff60" stroke-width="2.8" fill="none" stroke-opacity=".88" filter="url(#skr1x4079)"/><path d="M658.4400097287819 373.45566795552145 Q620.7137763141282 237.00749038392678 500.20987678943203 280.5054833462462" stroke="#00ff60" stroke-width="2.8" fill="none" stroke-opacity=".88" filter="url(#skr1x4079)"/><line x1="420.9218686070666" y1="472.128835166432" x2="437.0671728108451" y2="505.26214643688877" stroke="#00ff60" stroke-opacity=".52" stroke-width="1.3" filter="url(#skr1x4079)"/><line x1="477.65383850926537" y1="470.84131771912797" x2="495.9876321752928" y2="502.90852441294123" stroke="#00ff60" stroke-opacity=".52" stroke-width="1.3" filter="url(#skr1x4079)"/><line x1="534.0941305980458" y1="469.1506897529587" x2="553.3090082389675" y2="504.7838716925122" stroke="#00ff60" stroke-opacity=".52" stroke-width="1.3" filter="url(#skr1x4079)"/><line x1="591.2741462528146" y1="470.0226229149848" x2="611.224865920227" y2="502.06019350755963" stroke="#00ff60" stroke-opacity=".52" stroke-width="1.3" filter="url(#skr1x4079)"/><text x="30.0"  y="975.0" font-family="monospace" font-weight="bold" font-size="22.0" fill="rgba(255,255,255,.22)">#0001</text><text x="500.0"   y="975.0" text-anchor="middle" font-family="monospace" font-weight="bold" font-size="22.0" fill="#00ff60" fill-opacity=".48">VIPER RANGER</text><text x="970.0" y="975.0" text-anchor="end"    font-family="monospace" font-weight="bold" font-size="22.0" fill="#00ff60" fill-opacity=".32">MECH RANGERS</text></svg>