<svg xmlns="http://www.w3.org/2000/svg" viewBox="0 0 1000 1000" width="1000" height="1000" shape-rendering="geometricPrecision"><defs>

  <!-- Scene gradients -->
  <radialGradient id="bgr1x4167" cx="50%" cy="42%" r="72%">
    <stop offset="0%"   stop-color="#0a1420"/>
    <stop offset="100%" stop-color="#050d14"/>
  </radialGradient>
  <linearGradient id="suitr1x4167" x1="8%" y1="0%" x2="92%" y2="100%">
    <stop offset="0%"   stop-color="#ff44aa" stop-opacity=".95"/>
    <stop offset="45%"  stop-color="#880050"/>
    <stop offset="100%" stop-color="#050d14"/>
  </linearGradient>
  <linearGradient id="suitHir1x4167" x1="0%" y1="0%" x2="0%" y2="100%">
    <stop offset="0%"   stop-color="rgba(255,255,255,.28)"/>
    <stop offset="60%"  stop-color="rgba(255,255,255,.04)"/>
    <stop offset="100%" stop-color="rgba(255,255,255,0)"/>
  </linearGradient>
  <!-- Bevel: bright top, dark bottom for armour panels -->
  <linearGradient id="bevelr1x4167" x1="0%" y1="0%" x2="0%" y2="100%">
    <stop offset="0%"   stop-color="rgba(255,255,255,.55)"/>
    <stop offset="30%"  stop-color="#ff44aa"/>
    <stop offset="70%"  stop-color="#880050"/>
    <stop offset="100%" stop-color="rgba(0,0,0,.5)"/>
  </linearGradient>

  <!-- Weapon: cold steel blade sweep -->
  <linearGradient id="blader1x4167" x1="0%" y1="0%" x2="100%" y2="0%">
    <stop offset="0%"   stop-color="#0e0e20"/>
    <stop offset="16%"  stop-color="#3e3e58"/>
    <stop offset="34%"  stop-color="#c8c8e0"/>
    <stop offset="50%"  stop-color="#f5f5ff"/>
    <stop offset="66%"  stop-color="#b8b8d0"/>
    <stop offset="84%"  stop-color="#2e2e48"/>
    <stop offset="100%" stop-color="#08080e"/>
  </linearGradient>
  <!-- Blade tip brightening -->
  <linearGradient id="bladeTipr1x4167" x1="0%" y1="100%" x2="0%" y2="0%">
    <stop offset="0%"   stop-color="rgba(255,255,255,0)"/>
    <stop offset="55%"  stop-color="rgba(255,255,255,.1)"/>
    <stop offset="100%" stop-color="rgba(255,255,255,.55)"/>
  </linearGradient>
  <!-- Gunmetal anodised — blaster body -->
  <linearGradient id="gunmetalr1x4167" x1="0%" y1="0%" x2="0%" y2="100%">
    <stop offset="0%"   stop-color="#46465e"/>
    <stop offset="18%"  stop-color="#828296"/>
    <stop offset="42%"  stop-color="#26263a"/>
    <stop offset="72%"  stop-color="#16162a"/>
    <stop offset="100%" stop-color="#0c0c18"/>
  </linearGradient>
  <!-- Brushed steel tube — barrel/rod -->
  <linearGradient id="barrelr1x4167" x1="0%" y1="0%" x2="100%" y2="0%">
    <stop offset="0%"   stop-color="#0a0a14"/>
    <stop offset="24%"  stop-color="#585875"/>
    <stop offset="50%"  stop-color="#a8a8c8"/>
    <stop offset="76%"  stop-color="#383852"/>
    <stop offset="100%" stop-color="#0a0a14"/>
  </linearGradient>
  <!-- Chrome rod — lance shaft -->
  <linearGradient id="chromer1x4167" x1="0%" y1="0%" x2="100%" y2="0%">
    <stop offset="0%"   stop-color="#0c0c18"/>
    <stop offset="20%"  stop-color="#686888"/>
    <stop offset="44%"  stop-color="#e0e0f0"/>
    <stop offset="56%"  stop-color="#c0c0d8"/>
    <stop offset="80%"  stop-color="#28283e"/>
    <stop offset="100%" stop-color="#0c0c18"/>
  </linearGradient>
  <!-- Titanium plate — shield face -->
  <linearGradient id="titaniumr1x4167" x1="0%" y1="0%" x2="100%" y2="100%">
    <stop offset="0%"   stop-color="#585878"/>
    <stop offset="28%"  stop-color="#ff44aa" stop-opacity=".88"/>
    <stop offset="55%"  stop-color="#880050"/>
    <stop offset="80%"  stop-color="#181828"/>
    <stop offset="100%" stop-color="#0a0a18"/>
  </linearGradient>
  <!-- Artillery black-chrome — cannon body -->
  <linearGradient id="artilleryr1x4167" x1="0%" y1="0%" x2="0%" y2="100%">
    <stop offset="0%"   stop-color="#383850"/>
    <stop offset="14%"  stop-color="#78789a"/>
    <stop offset="36%"  stop-color="#202034"/>
    <stop offset="65%"  stop-color="#14141e"/>
    <stop offset="100%" stop-color="#0a0a12"/>
  </linearGradient>
  <!-- Energy orb — staff -->
  <radialGradient id="orbr1x4167" cx="35%" cy="35%" r="65%">
    <stop offset="0%"   stop-color="rgba(255,255,255,.9)"/>
    <stop offset="30%"  stop-color="#ff44aa"/>
    <stop offset="68%"  stop-color="#880050"/>
    <stop offset="100%" stop-color="rgba(0,0,0,.6)"/>
  </radialGradient>
  <!-- Knuckle plate chrome -->
  <linearGradient id="knuckler1x4167" x1="0%" y1="0%" x2="0%" y2="100%">
    <stop offset="0%"   stop-color="#888aaa"/>
    <stop offset="32%"  stop-color="#ff44aa" stop-opacity=".8"/>
    <stop offset="62%"  stop-color="#1a1a2c"/>
    <stop offset="100%" stop-color="#0a0a14"/>
  </linearGradient>

  <!-- Carbon fibre weave texture overlay -->
  <pattern id="carbonr1x4167" width="6" height="6" patternUnits="userSpaceOnUse">
    <rect width="6" height="6" fill="rgba(0,0,0,.08)"/>
    <rect x="0" y="0" width="3" height="3" fill="rgba(255,255,255,.022)"/>
    <rect x="3" y="3" width="3" height="3" fill="rgba(255,255,255,.022)"/>
    <line x1="0" y1="0" x2="3" y2="3" stroke="rgba(255,255,255,.038)" stroke-width=".5"/>
    <line x1="3" y1="0" x2="6" y2="3" stroke="rgba(0,0,0,.055)"       stroke-width=".5"/>
    <line x1="0" y1="3" x2="3" y2="6" stroke="rgba(0,0,0,.055)"       stroke-width=".5"/>
    <line x1="3" y1="3" x2="6" y2="6" stroke="rgba(255,255,255,.038)" stroke-width=".5"/>
  </pattern>

  <!-- Specular metal sheen on armour panels -->
  <filter id="metalr1x4167" x="-5%" y="-5%" width="110%" height="110%">
    <feSpecularLighting surfaceScale="4" specularConstant="1.8"
        specularExponent="42" lighting-color="#ffffff" result="spec">
      <feDistantLight elevation="52" azimuth="38"/>
    </feSpecularLighting>
    <feComposite in="spec" in2="SourceGraphic" operator="in" result="sm"/>
    <feComposite in="SourceGraphic" in2="sm" operator="arithmetic" k1="0" k2="1" k3="0.55" k4="0"/>
  </filter>

  <!-- Sharper specular for weapons — heavier glare -->
  <filter id="wmr1x4167" x="-8%" y="-8%" width="116%" height="116%">
    <feSpecularLighting surfaceScale="6" specularConstant="2.4"
        specularExponent="65" lighting-color="#ffffff" result="spec">
      <feDistantLight elevation="44" azimuth="28"/>
    </feSpecularLighting>
    <feComposite in="spec" in2="SourceGraphic" operator="in" result="sm"/>
    <feComposite in="SourceGraphic" in2="sm" operator="arithmetic" k1="0" k2="1" k3="0.78" k4="0"/>
  </filter>

  <!-- Sketch wobble -->
  <filter id="skr1x4167" x="-8%" y="-8%" width="116%" height="116%">
    <feTurbulence type="fractalNoise" baseFrequency="0.038"
        numOctaves="3" seed="59" result="noise"/>
    <feDisplacementMap in="SourceGraphic" in2="noise" scale="2.6"
        xChannelSelector="R" yChannelSelector="G" result="w"/>
    <feComposite in="w" in2="SourceGraphic" operator="atop"/>
  </filter>

  <!-- Glow: sharp accent -->
  <filter id="glowr1x4167" x="-20%" y="-20%" width="140%" height="140%">
    <feGaussianBlur stdDeviation="3.5" result="b"/>
    <feColorMatrix in="b" type="matrix"
        values="0 0 0 0 1  0 0 0 0 1  0 0 0 0 1  0 0 0 1.8 0" result="boost"/>
    <feMerge><feMergeNode in="boost"/><feMergeNode in="SourceGraphic"/></feMerge>
  </filter>

  <!-- Bloom: wide soft -->
  <filter id="bloomr1x4167" x="-40%" y="-40%" width="180%" height="180%">
    <feGaussianBlur stdDeviation="11" result="b"/>
    <feMerge><feMergeNode in="b"/><feMergeNode in="SourceGraphic"/></feMerge>
  </filter>

  </defs><rect width="1000" height="1000" fill="url(#bgr1x4167)"/><polygon points="449.49151943437755,502.03508289530873 468.7305115843192,466.3065975420177 472.1860342081636,497.52907290123403" fill="#ff44aa" fill-opacity=".055" stroke="#ff44aa" stroke-opacity=".1" stroke-width="1"/><polygon points="925.2678266214207,378.5802118387073 959.8271984029561,334.9368695663288 963.9213273422793,385.6658615078777" fill="#ff44aa" fill-opacity=".055" stroke="#ff44aa" stroke-opacity=".1" stroke-width="1"/><polygon points="49.00654372293502,349.9338217219338 73.07983268331736,312.26733356993645 86.8933260794729,348.0833908263594" fill="#ff44aa" fill-opacity=".055" stroke="#ff44aa" stroke-opacity=".1" stroke-width="1"/><polygon points="36.81918588001281,490.1284357486293 56.51157942414284,460.1122343381867 79.64183291699737,494.7108246339485" fill="#ff44aa" fill-opacity=".055" stroke="#ff44aa" stroke-opacity=".1" stroke-width="1"/><polygon points="273.852508161217,472.19815423712134 288.8371926015243,417.1298238430172 316.5863813953474,469.03402930125594" fill="#ff44aa" fill-opacity=".055" stroke="#ff44aa" stroke-opacity=".1" stroke-width="1"/><polygon points="661.8019198114052,310.9990136930719 674.4036055337638,275.17774712108076 699.5039263954386,311.970143141225" fill="#ff44aa" fill-opacity=".055" stroke="#ff44aa" stroke-opacity=".1" stroke-width="1"/><polygon points="55.362014030106366,191.59069819841534 80.94848727621138,164.88204330950975 108.13493185024709,200.65437391865999" fill="#ff44aa" fill-opacity=".055" stroke="#ff44aa" stroke-opacity=".1" stroke-width="1"/><polygon points="495.5508049717173,201.2715343479067 518.7249274393544,167.66518773324788 533.487485319376,208.92046630382538" fill="#ff44aa" fill-opacity=".055" stroke="#ff44aa" stroke-opacity=".1" stroke-width="1"/><ellipse cx="500.0" cy="892.0" rx="350.0" ry="65.0" fill="rgba(0,0,0,.7)" filter="url(#bloomr1x4167)"/><ellipse cx="500.0" cy="889.0" rx="220.0" ry="34.0" fill="rgba(0,0,0,.45)"/><polygon points="399.4,661.6 488.4,662.2 479.2,876.0 387.7,875.9" fill="url(#suitr1x4167)" stroke="#ff44aa" stroke-width="2.2" filter="url(#skr1x4167) url(#metalr1x4167)"/><polygon points="400.6,663.3 488.7,664.3 479.9,877.9 387.3,876.1" fill="url(#carbonr1x4167)"/><polygon points="393.6,724.2 493.7,724.4 485.5,787.2 382.6,787.9" fill="url(#bevelr1x4167)" fill-opacity=".5" stroke="#ff44aa" stroke-width="1.4" filter="url(#skr1x4167)"/><polygon points="509.0,662.3 602.2,663.0 611.6,876.5 519.2,877.6" fill="url(#suitr1x4167)" stroke="#ff44aa" stroke-width="2.2" filter="url(#skr1x4167) url(#metalr1x4167)"/><polygon points="509.2,663.9 601.8,661.1 612.3,878.7 519.6,878.7" fill="url(#carbonr1x4167)"/><polygon points="506.3,723.9 607.3,722.8 614.6,788.0 515.2,787.7" fill="url(#bevelr1x4167)" fill-opacity=".5" stroke="#ff44aa" stroke-width="1.4" filter="url(#skr1x4167)"/><rect x="392.7" y="837.8" width="100.3" height="24.7" fill="url(#bevelr1x4167)" stroke="#ff44aa" stroke-width="1" filter="url(#skr1x4167)"/><rect x="508.6"  y="838.4" width="100.3" height="24.7" fill="url(#bevelr1x4167)" stroke="#ff44aa" stroke-width="1" filter="url(#skr1x4167)"/><polygon points="370.3,878.4 494.8,878.2 504.1,923.3 364.1,921.5" fill="#880050" stroke="#ff44aa" stroke-width="2" filter="url(#skr1x4167)"/><polygon points="504.5,876.9 629.4,878.2 638.7,920.3 497.3,921.2" fill="#880050" stroke="#ff44aa" stroke-width="2" filter="url(#skr1x4167)"/><polygon points="304.1,633.6 696.9,633.4 636.7,681.3 361.9,683.4" fill="#ff44aa" fill-opacity=".52" stroke="#ff44aa" stroke-width="2" filter="url(#skr1x4167)"/><rect x="464.5" y="639.0" width="72.0" height="42.0" fill="url(#bevelr1x4167)" stroke="#ff44aa" stroke-width="1.4" filter="url(#glowr1x4167)"/><rect x="486.1" y="640.2" width="28.0" height="22.0" rx="1" fill="rgba(255,255,255,.48)"/><polygon points="153.8,464.9 235.0,465.5 259.2,736.0 129.0,736.6" fill="url(#suitr1x4167)" stroke="#ff44aa" stroke-width="2.2" filter="url(#skr1x4167) url(#metalr1x4167)"/><polygon points="173.9,434.0 254.1,431.5 241.8,510.4 158.7,510.0" fill="url(#bevelr1x4167)" fill-opacity=".72" stroke="#ff44aa" stroke-width="2.2" filter="url(#skr1x4167)"/><polygon points="162.6,622.9 243.9,621.0 238.2,662.5 166.7,662.5" fill="#ff44aa" fill-opacity=".42" stroke="#ff44aa" stroke-width="1" filter="url(#skr1x4167)"/><polygon points="763.5,464.9 845.4,466.3 873.4,736.0 740.6,734.8" fill="url(#suitr1x4167)" stroke="#ff44aa" stroke-width="2.2" filter="url(#skr1x4167) url(#metalr1x4167)"/><polygon points="747.7,431.9 827.7,430.8 839.9,509.3 755.9,510.0" fill="url(#bevelr1x4167)" fill-opacity=".72" stroke="#ff44aa" stroke-width="2.2" filter="url(#skr1x4167)"/><polygon points="757.3,620.1 839.1,621.6 833.9,661.8 762.5,662.6" fill="#ff44aa" fill-opacity=".42" stroke="#ff44aa" stroke-width="1" filter="url(#skr1x4167)"/><rect x="120.8"  y="699.9" width="135.3" height="85.0" rx="4" fill="url(#bevelr1x4167)" stroke="#ff44aa" stroke-width="1.8" filter="url(#skr1x4167)"/><rect x="747.1"   y="699.9" width="135.3" height="85.0" rx="4" fill="url(#bevelr1x4167)" stroke="#ff44aa" stroke-width="1.8" filter="url(#skr1x4167)"/><line x1="151.1" y1="702.2" x2="150.0" y2="784.6" stroke="#ff44aa" stroke-opacity=".38" stroke-width="1"/><line x1="776.8" y1="700.1" x2="777.0" y2="785.0" stroke="#ff44aa" stroke-opacity=".38" stroke-width="1"/><line x1="184.2" y1="701.6" x2="181.5" y2="782.5" stroke="#ff44aa" stroke-opacity=".38" stroke-width="1"/><line x1="811.7" y1="701.5" x2="811.7" y2="785.2" stroke="#ff44aa" stroke-opacity=".38" stroke-width="1"/><line x1="215.9" y1="702.8" x2="216.9" y2="782.9" stroke="#ff44aa" stroke-opacity=".38" stroke-width="1"/><line x1="845.5" y1="701.5" x2="844.3" y2="783.8" stroke="#ff44aa" stroke-opacity=".38" stroke-width="1"/><polygon points="235.1,417.1 764.2,417.7 722.5,663.2 276.3,663.3" fill="url(#suitr1x4167)" stroke="#ff44aa" stroke-width="2.6" filter="url(#skr1x4167) url(#metalr1x4167)"/><polygon points="235.9,417.7 763.7,418.6 722.9,662.6 276.7,660.9" fill="url(#carbonr1x4167)"/><polygon points="368.2,416.1 631.3,415.8 611.5,514.0 389.5,516.2" fill="url(#suitHir1x4167)"/><line x1="363.1" y1="470.4" x2="638.9" y2="469.7" stroke="#ff44aa" stroke-opacity=".52" stroke-width="1.3" filter="url(#skr1x4167)"/><line x1="400.2" y1="549.4" x2="600.5" y2="550.2" stroke="#ff44aa" stroke-opacity=".52" stroke-width="1.3" filter="url(#skr1x4167)"/><line x1="266.4" y1="491.2" x2="319.0" y2="492.5" stroke="#ff44aa" stroke-opacity=".62" stroke-width="1.8"/><line x1="681.5" y1="489.8" x2="733.0" y2="490.1" stroke="#ff44aa" stroke-opacity=".62" stroke-width="1.8"/><line x1="266.9" y1="523.6" x2="318.1" y2="521.9" stroke="#ff44aa" stroke-opacity=".62" stroke-width="1.8"/><line x1="679.2" y1="523.1" x2="732.4" y2="522.6" stroke="#ff44aa" stroke-opacity=".62" stroke-width="1.8"/><line x1="265.1" y1="554.1" x2="318.9" y2="554.6" stroke="#ff44aa" stroke-opacity=".62" stroke-width="1.8"/><line x1="678.7" y1="554.0" x2="734.7" y2="554.0" stroke="#ff44aa" stroke-opacity=".62" stroke-width="1.8"/><line x1="267.5" y1="587.8" x2="321.0" y2="586.9" stroke="#ff44aa" stroke-opacity=".62" stroke-width="1.8"/><line x1="678.8" y1="586.2" x2="732.1" y2="585.3" stroke="#ff44aa" stroke-opacity=".62" stroke-width="1.8"/><g filter="url(#glowr1x4167)"><polygon points="499.7,451.6 516.1,488.3 556.3,493.9 523.7,517.4 534.6,557.3 498.8,535.2 467.4,557.2 477.2,517.8 444.5,492.3 484.0,489.7 " fill="#ff44aa" stroke="#050d14" stroke-width="1.4" filter="url(#skr1x4167)"/><polygon points="499.7,451.6 516.1,488.3 556.3,493.9 523.7,517.4 534.6,557.3 498.8,535.2 467.4,557.2 477.2,517.8 444.5,492.3 484.0,489.7 " fill="url(#suitHir1x4167)" opacity=".45"/></g><g><polygon points="76.2,671.4 128.2,671.4 112.6,-28.6 91.8,-28.6" fill="url(#blader1x4167)" filter="url(#wmr1x4167)"/><polygon points="91.8,-28.6 112.6,-28.6 102.2,-138.6" fill="url(#blader1x4167)" filter="url(#wmr1x4167)"/><polygon points="100.3,671.4 104.0,671.4 102.7,-128.6 101.6,-128.6" fill="url(#bladeTipr1x4167)" opacity=".9"/><line x1="113.02425881007683" y1="671.331358320918" x2="103.19787988895548" y2="-129.63674233816567" stroke="rgba(255,255,255,.68)" stroke-width="1.5"/><line x1="93.04357862835747" y1="670.1554449152201" x2="101.02346836792302" y2="-127.52082498865204" stroke="#ff44aa" stroke-width="1" stroke-opacity=".45"/><line x1="106.8" y1="651.4" x2="104.0" y2="11.4" stroke="rgba(0,0,0,.38)" stroke-width="1.6"/><line x1="97.5" y1="651.4" x2="100.3" y2="11.4" stroke="rgba(0,0,0,.38)" stroke-width="1.6"/><rect x="47.09239835910496" y="668.0453130258247" width="112.0" height="28.0" rx="3" fill="url(#bevelr1x4167)" stroke="#ff44aa" stroke-width="1.6" filter="url(#wmr1x4167)"/><rect x="68.51646148119119" y="672.6570095679723" width="64.0" height="10.0" rx="1" fill="rgba(255,255,255,.32)"/><rect x="89.94451308710498" y="677.2875112166628" width="24.0" height="6.0" rx="1" fill="#ff44aa" fill-opacity=".35"/><rect x="90.82893933583048" y="686.3810177309439" width="24.0" height="6.0" rx="1" fill="#ff44aa" fill-opacity=".35"/><rect x="90.69961002826687" y="694.0760001680814" width="24.0" height="6.0" rx="1" fill="#ff44aa" fill-opacity=".35"/><rect x="88.8176849906705" y="702.6336671300232" width="24.0" height="6.0" rx="1" fill="#ff44aa" fill-opacity=".35"/><rect x="90.1869595106132" y="710.3566911412403" width="24.0" height="6.0" rx="1" fill="#ff44aa" fill-opacity=".35"/><rect x="89.63312687626106" y="716.9031415863893" width="24.0" height="6.0" rx="1" fill="#ff44aa" fill-opacity=".35"/><ellipse cx="101.38429946409535" cy="727.2763858058489" rx="22.0" ry="16.0" fill="url(#bevelr1x4167)" stroke="#ff44aa" stroke-width="1.2" filter="url(#wmr1x4167)"/></g><rect x="449.10228692349045" y="558.565973716136" width="100.0"  height="56.0" fill="#880050" stroke="#ff44aa" stroke-width="2.2" filter="url(#skr1x4167)"/><rect x="424.8652336359024" y="575.494249672722" width="152.0" height="26.0" fill="url(#bevelr1x4167)" fill-opacity=".65" stroke="#ff44aa" stroke-width="1.2" filter="url(#skr1x4167)"/><polygon points="306.4,381.7 348.9,295.0 498.3,278.4 648.0,293.7 690.8,380.6 669.8,505.2 499.3,564.1 330.2,503.9" fill="url(#suitr1x4167)" stroke="#ff44aa" stroke-width="2.8" filter="url(#skr1x4167) url(#metalr1x4167)"/><polygon points="307.8,380.9 351.3,295.2 499.5,276.9 651.2,293.2 691.6,380.9 669.8,503.8 499.0,566.7 330.3,505.0" fill="url(#carbonr1x4167)"/><polygon points="382.0,301.6 501.7,287.6 620.6,302.5 607.8,381.5 393.2,381.1" fill="url(#suitHir1x4167)"/><polygon points="382.3,381.4 366.5,427.1 433.1,502.9 498.6,528.1 567.5,502.5 634.3,426.0 617.3,380.4" fill="#050d14" fill-opacity=".88" stroke="#ff44aa" stroke-width="1.8" filter="url(#skr1x4167)"/><polygon points="382.7,413.0 477.8,411.4 485.1,439.7 388.5,440.3" fill="#ff44aa" filter="url(#glowr1x4167)"/><polygon points="523.4,411.5 620.3,411.2 612.6,438.6 514.1,441.8" fill="#ff44aa" filter="url(#glowr1x4167)"/><ellipse cx="430.9" cy="425.7" rx="38.4"  ry="8.2" fill="#ffffff" opacity=".88"/><ellipse cx="569.1" cy="425.7" rx="38.4"  ry="8.2" fill="#ffffff" opacity=".88"/><line x1="483.2496714108251" y1="414.74130629422143" x2="517.009702406954" y2="411.7151504675858" stroke="#ff44aa" stroke-opacity=".52" stroke-width="2"/><line x1="482.93086407665163" y1="438.13626067461445" x2="515.770228406731" y2="438.63013858823103" stroke="#ff44aa" stroke-opacity=".52" stroke-width="2"/><line x1="500.3071874221787" y1="454.84865548238156" x2="500.164492967166" y2="483.7583863965236" stroke="#ff44aa" stroke-opacity=".58" stroke-width="2.2" filter="url(#skr1x4167)"/><line x1="453.9027271036804" y1="490.1517275159247" x2="454.69252567298713" y2="518.6151035571471" stroke="#ff44aa" stroke-opacity=".52" stroke-width="1.5" filter="url(#skr1x4167)"/><line x1="478.1046541849524" y1="490.9650602523237" x2="478.08659455398094" y2="519.7747781184502" stroke="#ff44aa" stroke-opacity=".52" stroke-width="1.5" filter="url(#skr1x4167)"/><line x1="499.0146893843077" y1="489.55775447366756" x2="499.64090392841024" y2="518.6468046374619" stroke="#ff44aa" stroke-opacity=".52" stroke-width="1.5" filter="url(#skr1x4167)"/><line x1="521.4621303330734" y1="491.40462020719417" x2="522.3485056492127" y2="518.3263029728084" stroke="#ff44aa" stroke-opacity=".52" stroke-width="1.5" filter="url(#skr1x4167)"/><line x1="545.7049895625748" y1="493.01037523299453" x2="545.9837101489492" y2="521.3191727498546" stroke="#ff44aa" stroke-opacity=".52" stroke-width="1.5" filter="url(#skr1x4167)"/><polygon points="432.9,503.7 567.1,504.9 553.9,557.5 445.1,558.4" fill="#880050" fill-opacity=".72" stroke="#ff44aa" stroke-width="1.3" filter="url(#skr1x4167)"/><polygon points="314.1,305.7 361.7,306.4 339.8,195.8" fill="url(#bevelr1x4167)" fill-opacity=".95" stroke="#ff44aa" stroke-width="1.6" filter="url(#skr1x4167) url(#glowr1x4167)"/><polygon points="395.2,304.5 442.9,306.3 421.1,207.7" fill="url(#bevelr1x4167)" fill-opacity=".95" stroke="#ff44aa" stroke-width="1.6" filter="url(#skr1x4167) url(#glowr1x4167)"/><polygon points="477.1,303.2 522.8,305.8 498.4,220.9" fill="url(#bevelr1x4167)" fill-opacity=".95" stroke="#ff44aa" stroke-width="1.6" filter="url(#skr1x4167) url(#glowr1x4167)"/><polygon points="558.0,304.2 603.0,304.3 581.4,207.5" fill="url(#bevelr1x4167)" fill-opacity=".95" stroke="#ff44aa" stroke-width="1.6" filter="url(#skr1x4167) url(#glowr1x4167)"/><polygon points="637.0,303.7 684.4,305.8 662.5,195.6" fill="url(#bevelr1x4167)" fill-opacity=".95" stroke="#ff44aa" stroke-width="1.6" filter="url(#skr1x4167) url(#glowr1x4167)"/><text x="30.0"  y="975.0" font-family="monospace" font-weight="bold" font-size="22.0" fill="rgba(255,255,255,.22)">#0001</text><text x="500.0"   y="975.0" text-anchor="middle" font-family="monospace" font-weight="bold" font-size="22.0" fill="#ff44aa" fill-opacity=".48">SAKURA RANGER</text><text x="970.0" y="975.0" text-anchor="end"    font-family="monospace" font-weight="bold" font-size="22.0" fill="#ff44aa" fill-opacity=".32">MECH RANGERS</text></svg>