<svg xmlns="http://www.w3.org/2000/svg" viewBox="0 0 1000 1000" width="1000" height="1000" shape-rendering="geometricPrecision"><defs>

  <!-- Scene gradients -->
  <radialGradient id="bgr1x4195" cx="50%" cy="42%" r="72%">
    <stop offset="0%"   stop-color="#1e0a2e"/>
    <stop offset="100%" stop-color="#0a0520"/>
  </radialGradient>
  <linearGradient id="suitr1x4195" x1="8%" y1="0%" x2="92%" y2="100%">
    <stop offset="0%"   stop-color="#ff00ff" stop-opacity=".95"/>
    <stop offset="45%"  stop-color="#050508"/>
    <stop offset="100%" stop-color="#0a0520"/>
  </linearGradient>
  <linearGradient id="suitHir1x4195" x1="0%" y1="0%" x2="0%" y2="100%">
    <stop offset="0%"   stop-color="rgba(255,255,255,.28)"/>
    <stop offset="60%"  stop-color="rgba(255,255,255,.04)"/>
    <stop offset="100%" stop-color="rgba(255,255,255,0)"/>
  </linearGradient>
  <!-- Bevel: bright top, dark bottom for armour panels -->
  <linearGradient id="bevelr1x4195" x1="0%" y1="0%" x2="0%" y2="100%">
    <stop offset="0%"   stop-color="rgba(255,255,255,.55)"/>
    <stop offset="30%"  stop-color="#ff00ff"/>
    <stop offset="70%"  stop-color="#050508"/>
    <stop offset="100%" stop-color="rgba(0,0,0,.5)"/>
  </linearGradient>

  <!-- Weapon: cold steel blade sweep -->
  <linearGradient id="blader1x4195" x1="0%" y1="0%" x2="100%" y2="0%">
    <stop offset="0%"   stop-color="#0e0e20"/>
    <stop offset="16%"  stop-color="#3e3e58"/>
    <stop offset="34%"  stop-color="#c8c8e0"/>
    <stop offset="50%"  stop-color="#f5f5ff"/>
    <stop offset="66%"  stop-color="#b8b8d0"/>
    <stop offset="84%"  stop-color="#2e2e48"/>
    <stop offset="100%" stop-color="#08080e"/>
  </linearGradient>
  <!-- Blade tip brightening -->
  <linearGradient id="bladeTipr1x4195" x1="0%" y1="100%" x2="0%" y2="0%">
    <stop offset="0%"   stop-color="rgba(255,255,255,0)"/>
    <stop offset="55%"  stop-color="rgba(255,255,255,.1)"/>
    <stop offset="100%" stop-color="rgba(255,255,255,.55)"/>
  </linearGradient>
  <!-- Gunmetal anodised — blaster body -->
  <linearGradient id="gunmetalr1x4195" x1="0%" y1="0%" x2="0%" y2="100%">
    <stop offset="0%"   stop-color="#46465e"/>
    <stop offset="18%"  stop-color="#828296"/>
    <stop offset="42%"  stop-color="#26263a"/>
    <stop offset="72%"  stop-color="#16162a"/>
    <stop offset="100%" stop-color="#0c0c18"/>
  </linearGradient>
  <!-- Brushed steel tube — barrel/rod -->
  <linearGradient id="barrelr1x4195" x1="0%" y1="0%" x2="100%" y2="0%">
    <stop offset="0%"   stop-color="#0a0a14"/>
    <stop offset="24%"  stop-color="#585875"/>
    <stop offset="50%"  stop-color="#a8a8c8"/>
    <stop offset="76%"  stop-color="#383852"/>
    <stop offset="100%" stop-color="#0a0a14"/>
  </linearGradient>
  <!-- Chrome rod — lance shaft -->
  <linearGradient id="chromer1x4195" x1="0%" y1="0%" x2="100%" y2="0%">
    <stop offset="0%"   stop-color="#0c0c18"/>
    <stop offset="20%"  stop-color="#686888"/>
    <stop offset="44%"  stop-color="#e0e0f0"/>
    <stop offset="56%"  stop-color="#c0c0d8"/>
    <stop offset="80%"  stop-color="#28283e"/>
    <stop offset="100%" stop-color="#0c0c18"/>
  </linearGradient>
  <!-- Titanium plate — shield face -->
  <linearGradient id="titaniumr1x4195" x1="0%" y1="0%" x2="100%" y2="100%">
    <stop offset="0%"   stop-color="#585878"/>
    <stop offset="28%"  stop-color="#ff00ff" stop-opacity=".88"/>
    <stop offset="55%"  stop-color="#050508"/>
    <stop offset="80%"  stop-color="#181828"/>
    <stop offset="100%" stop-color="#0a0a18"/>
  </linearGradient>
  <!-- Artillery black-chrome — cannon body -->
  <linearGradient id="artilleryr1x4195" x1="0%" y1="0%" x2="0%" y2="100%">
    <stop offset="0%"   stop-color="#383850"/>
    <stop offset="14%"  stop-color="#78789a"/>
    <stop offset="36%"  stop-color="#202034"/>
    <stop offset="65%"  stop-color="#14141e"/>
    <stop offset="100%" stop-color="#0a0a12"/>
  </linearGradient>
  <!-- Energy orb — staff -->
  <radialGradient id="orbr1x4195" cx="35%" cy="35%" r="65%">
    <stop offset="0%"   stop-color="rgba(255,255,255,.9)"/>
    <stop offset="30%"  stop-color="#ff00ff"/>
    <stop offset="68%"  stop-color="#050508"/>
    <stop offset="100%" stop-color="rgba(0,0,0,.6)"/>
  </radialGradient>
  <!-- Knuckle plate chrome -->
  <linearGradient id="knuckler1x4195" x1="0%" y1="0%" x2="0%" y2="100%">
    <stop offset="0%"   stop-color="#888aaa"/>
    <stop offset="32%"  stop-color="#ff00ff" stop-opacity=".8"/>
    <stop offset="62%"  stop-color="#1a1a2c"/>
    <stop offset="100%" stop-color="#0a0a14"/>
  </linearGradient>

  <!-- Carbon fibre weave texture overlay -->
  <pattern id="carbonr1x4195" width="6" height="6" patternUnits="userSpaceOnUse">
    <rect width="6" height="6" fill="rgba(0,0,0,.08)"/>
    <rect x="0" y="0" width="3" height="3" fill="rgba(255,255,255,.022)"/>
    <rect x="3" y="3" width="3" height="3" fill="rgba(255,255,255,.022)"/>
    <line x1="0" y1="0" x2="3" y2="3" stroke="rgba(255,255,255,.038)" stroke-width=".5"/>
    <line x1="3" y1="0" x2="6" y2="3" stroke="rgba(0,0,0,.055)"       stroke-width=".5"/>
    <line x1="0" y1="3" x2="3" y2="6" stroke="rgba(0,0,0,.055)"       stroke-width=".5"/>
    <line x1="3" y1="3" x2="6" y2="6" stroke="rgba(255,255,255,.038)" stroke-width=".5"/>
  </pattern>

  <!-- Specular metal sheen on armour panels -->
  <filter id="metalr1x4195" x="-5%" y="-5%" width="110%" height="110%">
    <feSpecularLighting surfaceScale="4" specularConstant="1.8"
        specularExponent="42" lighting-color="#ffffff" result="spec">
      <feDistantLight elevation="52" azimuth="38"/>
    </feSpecularLighting>
    <feComposite in="spec" in2="SourceGraphic" operator="in" result="sm"/>
    <feComposite in="SourceGraphic" in2="sm" operator="arithmetic" k1="0" k2="1" k3="0.55" k4="0"/>
  </filter>

  <!-- Sharper specular for weapons — heavier glare -->
  <filter id="wmr1x4195" x="-8%" y="-8%" width="116%" height="116%">
    <feSpecularLighting surfaceScale="6" specularConstant="2.4"
        specularExponent="65" lighting-color="#ffffff" result="spec">
      <feDistantLight elevation="44" azimuth="28"/>
    </feSpecularLighting>
    <feComposite in="spec" in2="SourceGraphic" operator="in" result="sm"/>
    <feComposite in="SourceGraphic" in2="sm" operator="arithmetic" k1="0" k2="1" k3="0.78" k4="0"/>
  </filter>

  <!-- Sketch wobble -->
  <filter id="skr1x4195" x="-8%" y="-8%" width="116%" height="116%">
    <feTurbulence type="fractalNoise" baseFrequency="0.038"
        numOctaves="3" seed="86" result="noise"/>
    <feDisplacementMap in="SourceGraphic" in2="noise" scale="2.6"
        xChannelSelector="R" yChannelSelector="G" result="w"/>
    <feComposite in="w" in2="SourceGraphic" operator="atop"/>
  </filter>

  <!-- Glow: sharp accent -->
  <filter id="glowr1x4195" x="-20%" y="-20%" width="140%" height="140%">
    <feGaussianBlur stdDeviation="3.5" result="b"/>
    <feColorMatrix in="b" type="matrix"
        values="0 0 0 0 1  0 0 0 0 1  0 0 0 0 1  0 0 0 1.8 0" result="boost"/>
    <feMerge><feMergeNode in="boost"/><feMergeNode in="SourceGraphic"/></feMerge>
  </filter>

  <!-- Bloom: wide soft -->
  <filter id="bloomr1x4195" x="-40%" y="-40%" width="180%" height="180%">
    <feGaussianBlur stdDeviation="11" result="b"/>
    <feMerge><feMergeNode in="b"/><feMergeNode in="SourceGraphic"/></feMerge>
  </filter>

  </defs><rect width="1000" height="1000" fill="url(#bgr1x4195)"/><ellipse cx="500.0" cy="892.0" rx="350.0" ry="65.0" fill="rgba(0,0,0,.7)" filter="url(#bloomr1x4195)"/><ellipse cx="500.0" cy="889.0" rx="220.0" ry="34.0" fill="rgba(0,0,0,.45)"/><ellipse cx="500.0" cy="520.0" rx="320.0" ry="480.0" fill="#6600ff" fill-opacity=".042" filter="url(#bloomr1x4195)"/><circle cx="429.8" cy="352.8" r="2.7" fill="#6600ff" fill-opacity="0.82" filter="url(#glowr1x4195)"/><circle cx="728.5" cy="285.5" r="2.8" fill="#6600ff" fill-opacity="0.57" filter="url(#glowr1x4195)"/><circle cx="555.4" cy="734.9" r="3.5" fill="#6600ff" fill-opacity="0.54" filter="url(#glowr1x4195)"/><circle cx="399.5" cy="738.1" r="1.9" fill="#6600ff" fill-opacity="0.68" filter="url(#glowr1x4195)"/><circle cx="398.2" cy="638.3" r="1.6" fill="#6600ff" fill-opacity="0.68" filter="url(#glowr1x4195)"/><circle cx="377.4" cy="747.4" r="3.1" fill="#6600ff" fill-opacity="0.58" filter="url(#glowr1x4195)"/><circle cx="617.1" cy="764.4" r="1.1" fill="#6600ff" fill-opacity="0.49" filter="url(#glowr1x4195)"/><circle cx="375.2" cy="799.3" r="4.0" fill="#6600ff" fill-opacity="0.40" filter="url(#glowr1x4195)"/><circle cx="260.7" cy="291.3" r="4.2" fill="#6600ff" fill-opacity="0.77" filter="url(#glowr1x4195)"/><circle cx="470.1" cy="608.6" r="1.1" fill="#6600ff" fill-opacity="0.51" filter="url(#glowr1x4195)"/><circle cx="265.1" cy="522.5" r="3.8" fill="#6600ff" fill-opacity="0.70" filter="url(#glowr1x4195)"/><circle cx="494.6" cy="663.4" r="4.1" fill="#6600ff" fill-opacity="0.54" filter="url(#glowr1x4195)"/><circle cx="691.5" cy="391.0" r="1.9" fill="#6600ff" fill-opacity="0.81" filter="url(#glowr1x4195)"/><circle cx="336.3" cy="221.6" r="1.9" fill="#6600ff" fill-opacity="0.59" filter="url(#glowr1x4195)"/><polygon points="398.4,661.2 488.9,661.6 481.0,876.0 386.6,876.6" fill="url(#suitr1x4195)" stroke="#ff00ff" stroke-width="2.2" filter="url(#skr1x4195) url(#metalr1x4195)"/><polygon points="397.0,661.7 491.2,661.2 479.8,876.0 388.4,878.8" fill="url(#carbonr1x4195)"/><polygon points="391.4,724.6 494.4,722.5 483.8,786.9 382.4,787.4" fill="url(#bevelr1x4195)" fill-opacity=".5" stroke="#ff00ff" stroke-width="1.4" filter="url(#skr1x4195)"/><polygon points="509.6,661.5 602.4,662.6 614.3,879.1 520.9,876.2" fill="url(#suitr1x4195)" stroke="#ff00ff" stroke-width="2.2" filter="url(#skr1x4195) url(#metalr1x4195)"/><polygon points="510.0,663.8 602.1,661.9 614.3,877.0 519.9,879.3" fill="url(#carbonr1x4195)"/><polygon points="506.2,722.1 606.3,723.4 615.5,790.0 514.6,790.0" fill="url(#bevelr1x4195)" fill-opacity=".5" stroke="#ff00ff" stroke-width="1.4" filter="url(#skr1x4195)"/><rect x="392.6" y="839.7" width="100.3" height="24.7" fill="url(#bevelr1x4195)" stroke="#ff00ff" stroke-width="1" filter="url(#skr1x4195)"/><rect x="506.9"  y="838.3" width="100.3" height="24.7" fill="url(#bevelr1x4195)" stroke="#ff00ff" stroke-width="1" filter="url(#skr1x4195)"/><polygon points="369.5,878.0 494.7,878.4 503.2,922.6 361.0,921.7" fill="#050508" stroke="#ff00ff" stroke-width="2" filter="url(#skr1x4195)"/><polygon points="504.3,879.0 629.3,877.4 636.7,922.0 497.9,920.1" fill="#050508" stroke="#ff00ff" stroke-width="2" filter="url(#skr1x4195)"/><polygon points="302.6,634.9 695.5,633.0 636.8,682.0 361.7,682.7" fill="#ff00ff" fill-opacity=".52" stroke="#ff00ff" stroke-width="2" filter="url(#skr1x4195)"/><rect x="464.5" y="637.6" width="72.0" height="42.0" fill="url(#bevelr1x4195)" stroke="#ff00ff" stroke-width="1.4" filter="url(#glowr1x4195)"/><rect x="487.0" y="640.5" width="28.0" height="22.0" rx="1" fill="rgba(255,255,255,.48)"/><polygon points="154.8,466.0 233.2,464.8 256.9,735.1 127.5,733.4" fill="url(#suitr1x4195)" stroke="#ff00ff" stroke-width="2.2" filter="url(#skr1x4195) url(#metalr1x4195)"/><polygon points="172.5,432.1 251.4,432.9 243.4,510.1 158.6,511.6" fill="url(#bevelr1x4195)" fill-opacity=".72" stroke="#ff00ff" stroke-width="2.2" filter="url(#skr1x4195)"/><polygon points="160.4,622.1 243.9,621.3 238.5,660.1 166.7,662.4" fill="#ff00ff" fill-opacity=".42" stroke="#ff00ff" stroke-width="1" filter="url(#skr1x4195)"/><polygon points="763.3,465.0 847.9,466.1 871.9,736.0 742.2,734.5" fill="url(#suitr1x4195)" stroke="#ff00ff" stroke-width="2.2" filter="url(#skr1x4195) url(#metalr1x4195)"/><polygon points="747.4,432.4 826.5,430.7 841.5,511.6 755.4,509.6" fill="url(#bevelr1x4195)" fill-opacity=".72" stroke="#ff00ff" stroke-width="2.2" filter="url(#skr1x4195)"/><polygon points="756.8,623.2 837.2,620.8 832.9,662.7 760.5,661.5" fill="#ff00ff" fill-opacity=".42" stroke="#ff00ff" stroke-width="1" filter="url(#skr1x4195)"/><rect x="119.0"  y="700.5" width="135.3" height="85.0" rx="4" fill="url(#bevelr1x4195)" stroke="#ff00ff" stroke-width="1.8" filter="url(#skr1x4195)"/><rect x="747.0"   y="699.0" width="135.3" height="85.0" rx="4" fill="url(#bevelr1x4195)" stroke="#ff00ff" stroke-width="1.8" filter="url(#skr1x4195)"/><line x1="149.1" y1="700.2" x2="149.2" y2="783.6" stroke="#ff00ff" stroke-opacity=".38" stroke-width="1"/><line x1="777.1" y1="701.1" x2="778.2" y2="782.4" stroke="#ff00ff" stroke-opacity=".38" stroke-width="1"/><line x1="182.2" y1="703.2" x2="184.2" y2="783.1" stroke="#ff00ff" stroke-opacity=".38" stroke-width="1"/><line x1="811.0" y1="701.1" x2="811.0" y2="782.2" stroke="#ff00ff" stroke-opacity=".38" stroke-width="1"/><line x1="215.2" y1="703.2" x2="215.8" y2="782.5" stroke="#ff00ff" stroke-opacity=".38" stroke-width="1"/><line x1="844.1" y1="701.7" x2="845.3" y2="785.0" stroke="#ff00ff" stroke-opacity=".38" stroke-width="1"/><polygon points="234.6,418.6 765.4,417.0 722.4,662.1 278.5,661.3" fill="url(#suitr1x4195)" stroke="#ff00ff" stroke-width="2.6" filter="url(#skr1x4195) url(#metalr1x4195)"/><polygon points="234.9,416.4 765.3,418.4 720.8,662.8 276.5,660.8" fill="url(#carbonr1x4195)"/><polygon points="366.0,418.4 632.8,419.2 611.0,516.1 387.7,515.5" fill="url(#suitHir1x4195)"/><line x1="363.9" y1="469.7" x2="638.8" y2="472.1" stroke="#ff00ff" stroke-opacity=".52" stroke-width="1.3" filter="url(#skr1x4195)"/><line x1="399.7" y1="549.4" x2="601.7" y2="549.3" stroke="#ff00ff" stroke-opacity=".52" stroke-width="1.3" filter="url(#skr1x4195)"/><line x1="267.6" y1="491.3" x2="318.2" y2="491.3" stroke="#ff00ff" stroke-opacity=".62" stroke-width="1.8"/><line x1="678.5" y1="489.9" x2="732.5" y2="490.3" stroke="#ff00ff" stroke-opacity=".62" stroke-width="1.8"/><line x1="266.2" y1="522.6" x2="320.3" y2="522.1" stroke="#ff00ff" stroke-opacity=".62" stroke-width="1.8"/><line x1="678.4" y1="523.9" x2="734.5" y2="522.1" stroke="#ff00ff" stroke-opacity=".62" stroke-width="1.8"/><line x1="265.9" y1="556.2" x2="321.4" y2="554.2" stroke="#ff00ff" stroke-opacity=".62" stroke-width="1.8"/><line x1="679.7" y1="555.4" x2="732.3" y2="554.9" stroke="#ff00ff" stroke-opacity=".62" stroke-width="1.8"/><line x1="268.5" y1="585.5" x2="320.3" y2="586.5" stroke="#ff00ff" stroke-opacity=".62" stroke-width="1.8"/><line x1="678.8" y1="585.7" x2="734.8" y2="588.3" stroke="#ff00ff" stroke-opacity=".62" stroke-width="1.8"/><g filter="url(#glowr1x4195)"><polygon points="498.8,453.0 513.5,491.3 554.9,491.4 525.6,517.7 534.2,556.4 501.7,534.5 464.8,557.0 475.5,516.9 443.9,494.3 484.7,490.7 " fill="#ff00ff" stroke="#0a0520" stroke-width="1.4" filter="url(#skr1x4195)"/><polygon points="498.8,453.0 513.5,491.3 554.9,491.4 525.6,517.7 534.2,556.4 501.7,534.5 464.8,557.0 475.5,516.9 443.9,494.3 484.7,490.7 " fill="url(#suitHir1x4195)" opacity=".45"/></g><g><rect x="836.9006107531116" y="394.68850393472235" width="175.0" height="118.0" rx="7" fill="url(#artilleryr1x4195)" stroke="#ff00ff" stroke-width="2.6" filter="url(#wmr1x4195)"/><rect x="836.0753236441501" y="394.64324112283066" width="175.0" height="118.0" rx="7" fill="url(#carbonr1x4195)"/><rect x="983.6874355085753" y="445.7129955221899" width="78.0" height="32.0" rx="6" fill="url(#barrelr1x4195)" stroke="#ff00ff" stroke-width="1.4" filter="url(#wmr1x4195)"/><circle cx="880.893779045213" cy="470.3140281637199" r="48.0" fill="rgba(0,0,0,.55)" stroke="#ff00ff" stroke-width="2" filter="url(#wmr1x4195)"/><circle cx="881.2239132793248" cy="470.30859668962654" r="34.0" fill="#ff00ff" fill-opacity=".4" filter="url(#bloomr1x4195)"/><circle cx="881.430063836705" cy="470.71244490062816" r="18.0" fill="#ff00ff" filter="url(#glowr1x4195)"/><rect x="841.0622232525237" y="381.8155086511746" width="100.0" height="18.0" rx="2" fill="url(#bevelr1x4195)" stroke="#ff00ff" stroke-width="1" filter="url(#wmr1x4195)"/><rect x="840.823711748384" y="399.1059172458015" width="120.0" height="12.0" rx="3" fill="rgba(255,255,255,.2)"/><line x1="849.6090640131011" y1="519.6427772798576" x2="847.1328175168112" y2="550.1333031949587" stroke="#ff00ff" stroke-opacity=".6" stroke-width="2"/><line x1="870.4732109389827" y1="519.3098315064796" x2="872.6730654631369" y2="549.5486221218481" stroke="#ff00ff" stroke-opacity=".6" stroke-width="2"/><line x1="896.7280325382576" y1="517.8504388716071" x2="896.485747345686" y2="549.8025215954519" stroke="#ff00ff" stroke-opacity=".6" stroke-width="2"/><line x1="918.9520845041238" y1="520.5724780089222" x2="919.9616242640279" y2="548.3836078112945" stroke="#ff00ff" stroke-opacity=".6" stroke-width="2"/></g><rect x="449.7806304889731" y="556.1792296781205" width="100.0"  height="56.0" fill="#050508" stroke="#ff00ff" stroke-width="2.2" filter="url(#skr1x4195)"/><rect x="422.55015836777164" y="573.7076738597825" width="152.0" height="26.0" fill="url(#bevelr1x4195)" fill-opacity=".65" stroke="#ff00ff" stroke-width="1.2" filter="url(#skr1x4195)"/><polygon points="309.2,381.5 350.3,295.6 499.3,278.5 648.4,295.0 690.8,380.9 670.2,504.2 499.0,566.1 330.9,503.8" fill="url(#suitr1x4195)" stroke="#ff00ff" stroke-width="2.8" filter="url(#skr1x4195) url(#metalr1x4195)"/><polygon points="307.6,380.6 351.3,293.4 498.4,277.4 648.6,296.2 690.3,381.6 667.4,503.3 499.2,566.2 330.8,502.7" fill="url(#carbonr1x4195)"/><polygon points="379.3,302.5 499.5,287.7 619.7,301.6 606.9,380.2 394.0,379.0" fill="url(#suitHir1x4195)"/><polygon points="382.4,380.5 364.6,426.0 433.7,504.2 499.5,529.4 566.9,504.4 634.5,426.3 618.8,380.0" fill="#0a0520" fill-opacity=".88" stroke="#ff00ff" stroke-width="1.8" filter="url(#skr1x4195)"/><polygon points="381.0,412.2 477.7,412.1 483.5,440.0 389.6,439.6" fill="#ff00ff" filter="url(#glowr1x4195)"/><polygon points="521.5,413.1 618.9,410.0 611.3,438.4 515.8,439.5" fill="#ff00ff" filter="url(#glowr1x4195)"/><ellipse cx="430.9" cy="425.7" rx="38.4"  ry="8.2" fill="#ffffff" opacity=".88"/><ellipse cx="569.1" cy="425.7" rx="38.4"  ry="8.2" fill="#ffffff" opacity=".88"/><line x1="483.5423715574294" y1="413.01297483947127" x2="513.87891413806" y2="414.8837997872382" stroke="#ff00ff" stroke-opacity=".52" stroke-width="2"/><line x1="485.1064567923173" y1="438.6506806790829" x2="516.5002622772381" y2="436.4844614633359" stroke="#ff00ff" stroke-opacity=".52" stroke-width="2"/><line x1="498.3075023908168" y1="453.5913257443346" x2="499.94325883639976" y2="484.35139148905876" stroke="#ff00ff" stroke-opacity=".58" stroke-width="2.2" filter="url(#skr1x4195)"/><line x1="455.1455200793967" y1="490.07252782396966" x2="455.21324218323457" y2="519.8961898827926" stroke="#ff00ff" stroke-opacity=".52" stroke-width="1.5" filter="url(#skr1x4195)"/><line x1="476.65488171348346" y1="491.22542166449125" x2="475.96261730635536" y2="520.7038225788623" stroke="#ff00ff" stroke-opacity=".52" stroke-width="1.5" filter="url(#skr1x4195)"/><line x1="500.6480962608941" y1="490.488568661455" x2="499.47604282805696" y2="518.7026941267774" stroke="#ff00ff" stroke-opacity=".52" stroke-width="1.5" filter="url(#skr1x4195)"/><line x1="523.6781612732075" y1="490.7227763002738" x2="521.8590491786226" y2="521.0685370057821" stroke="#ff00ff" stroke-opacity=".52" stroke-width="1.5" filter="url(#skr1x4195)"/><line x1="545.3219069685042" y1="492.137887473125" x2="546.0165023803897" y2="520.613314933423" stroke="#ff00ff" stroke-opacity=".52" stroke-width="1.5" filter="url(#skr1x4195)"/><polygon points="431.9,502.8 568.3,502.7 553.4,556.6 446.0,557.0" fill="#050508" fill-opacity=".72" stroke="#ff00ff" stroke-width="1.3" filter="url(#skr1x4195)"/><text x="30.0"  y="975.0" font-family="monospace" font-weight="bold" font-size="22.0" fill="rgba(255,255,255,.22)">#0001</text><text x="500.0"   y="975.0" text-anchor="middle" font-family="monospace" font-weight="bold" font-size="22.0" fill="#ff00ff" fill-opacity=".48">VOID RANGER</text><text x="970.0" y="975.0" text-anchor="end"    font-family="monospace" font-weight="bold" font-size="22.0" fill="#ff00ff" fill-opacity=".32">MECH RANGERS</text></svg>