<svg xmlns="http://www.w3.org/2000/svg" viewBox="0 0 1000 1000" width="1000" height="1000" shape-rendering="geometricPrecision"><defs>

  <!-- Scene gradients -->
  <radialGradient id="bgr1x4202" cx="50%" cy="42%" r="72%">
    <stop offset="0%"   stop-color="#0a1420"/>
    <stop offset="100%" stop-color="#050d14"/>
  </radialGradient>
  <linearGradient id="suitr1x4202" x1="8%" y1="0%" x2="92%" y2="100%">
    <stop offset="0%"   stop-color="#ff2040" stop-opacity=".95"/>
    <stop offset="45%"  stop-color="#cc0020"/>
    <stop offset="100%" stop-color="#050d14"/>
  </linearGradient>
  <linearGradient id="suitHir1x4202" x1="0%" y1="0%" x2="0%" y2="100%">
    <stop offset="0%"   stop-color="rgba(255,255,255,.28)"/>
    <stop offset="60%"  stop-color="rgba(255,255,255,.04)"/>
    <stop offset="100%" stop-color="rgba(255,255,255,0)"/>
  </linearGradient>
  <!-- Bevel: bright top, dark bottom for armour panels -->
  <linearGradient id="bevelr1x4202" x1="0%" y1="0%" x2="0%" y2="100%">
    <stop offset="0%"   stop-color="rgba(255,255,255,.55)"/>
    <stop offset="30%"  stop-color="#ff2040"/>
    <stop offset="70%"  stop-color="#cc0020"/>
    <stop offset="100%" stop-color="rgba(0,0,0,.5)"/>
  </linearGradient>

  <!-- Weapon: cold steel blade sweep -->
  <linearGradient id="blader1x4202" x1="0%" y1="0%" x2="100%" y2="0%">
    <stop offset="0%"   stop-color="#0e0e20"/>
    <stop offset="16%"  stop-color="#3e3e58"/>
    <stop offset="34%"  stop-color="#c8c8e0"/>
    <stop offset="50%"  stop-color="#f5f5ff"/>
    <stop offset="66%"  stop-color="#b8b8d0"/>
    <stop offset="84%"  stop-color="#2e2e48"/>
    <stop offset="100%" stop-color="#08080e"/>
  </linearGradient>
  <!-- Blade tip brightening -->
  <linearGradient id="bladeTipr1x4202" x1="0%" y1="100%" x2="0%" y2="0%">
    <stop offset="0%"   stop-color="rgba(255,255,255,0)"/>
    <stop offset="55%"  stop-color="rgba(255,255,255,.1)"/>
    <stop offset="100%" stop-color="rgba(255,255,255,.55)"/>
  </linearGradient>
  <!-- Gunmetal anodised — blaster body -->
  <linearGradient id="gunmetalr1x4202" x1="0%" y1="0%" x2="0%" y2="100%">
    <stop offset="0%"   stop-color="#46465e"/>
    <stop offset="18%"  stop-color="#828296"/>
    <stop offset="42%"  stop-color="#26263a"/>
    <stop offset="72%"  stop-color="#16162a"/>
    <stop offset="100%" stop-color="#0c0c18"/>
  </linearGradient>
  <!-- Brushed steel tube — barrel/rod -->
  <linearGradient id="barrelr1x4202" x1="0%" y1="0%" x2="100%" y2="0%">
    <stop offset="0%"   stop-color="#0a0a14"/>
    <stop offset="24%"  stop-color="#585875"/>
    <stop offset="50%"  stop-color="#a8a8c8"/>
    <stop offset="76%"  stop-color="#383852"/>
    <stop offset="100%" stop-color="#0a0a14"/>
  </linearGradient>
  <!-- Chrome rod — lance shaft -->
  <linearGradient id="chromer1x4202" x1="0%" y1="0%" x2="100%" y2="0%">
    <stop offset="0%"   stop-color="#0c0c18"/>
    <stop offset="20%"  stop-color="#686888"/>
    <stop offset="44%"  stop-color="#e0e0f0"/>
    <stop offset="56%"  stop-color="#c0c0d8"/>
    <stop offset="80%"  stop-color="#28283e"/>
    <stop offset="100%" stop-color="#0c0c18"/>
  </linearGradient>
  <!-- Titanium plate — shield face -->
  <linearGradient id="titaniumr1x4202" x1="0%" y1="0%" x2="100%" y2="100%">
    <stop offset="0%"   stop-color="#585878"/>
    <stop offset="28%"  stop-color="#ff2040" stop-opacity=".88"/>
    <stop offset="55%"  stop-color="#cc0020"/>
    <stop offset="80%"  stop-color="#181828"/>
    <stop offset="100%" stop-color="#0a0a18"/>
  </linearGradient>
  <!-- Artillery black-chrome — cannon body -->
  <linearGradient id="artilleryr1x4202" x1="0%" y1="0%" x2="0%" y2="100%">
    <stop offset="0%"   stop-color="#383850"/>
    <stop offset="14%"  stop-color="#78789a"/>
    <stop offset="36%"  stop-color="#202034"/>
    <stop offset="65%"  stop-color="#14141e"/>
    <stop offset="100%" stop-color="#0a0a12"/>
  </linearGradient>
  <!-- Energy orb — staff -->
  <radialGradient id="orbr1x4202" cx="35%" cy="35%" r="65%">
    <stop offset="0%"   stop-color="rgba(255,255,255,.9)"/>
    <stop offset="30%"  stop-color="#ff2040"/>
    <stop offset="68%"  stop-color="#cc0020"/>
    <stop offset="100%" stop-color="rgba(0,0,0,.6)"/>
  </radialGradient>
  <!-- Knuckle plate chrome -->
  <linearGradient id="knuckler1x4202" x1="0%" y1="0%" x2="0%" y2="100%">
    <stop offset="0%"   stop-color="#888aaa"/>
    <stop offset="32%"  stop-color="#ff2040" stop-opacity=".8"/>
    <stop offset="62%"  stop-color="#1a1a2c"/>
    <stop offset="100%" stop-color="#0a0a14"/>
  </linearGradient>

  <!-- Carbon fibre weave texture overlay -->
  <pattern id="carbonr1x4202" width="6" height="6" patternUnits="userSpaceOnUse">
    <rect width="6" height="6" fill="rgba(0,0,0,.08)"/>
    <rect x="0" y="0" width="3" height="3" fill="rgba(255,255,255,.022)"/>
    <rect x="3" y="3" width="3" height="3" fill="rgba(255,255,255,.022)"/>
    <line x1="0" y1="0" x2="3" y2="3" stroke="rgba(255,255,255,.038)" stroke-width=".5"/>
    <line x1="3" y1="0" x2="6" y2="3" stroke="rgba(0,0,0,.055)"       stroke-width=".5"/>
    <line x1="0" y1="3" x2="3" y2="6" stroke="rgba(0,0,0,.055)"       stroke-width=".5"/>
    <line x1="3" y1="3" x2="6" y2="6" stroke="rgba(255,255,255,.038)" stroke-width=".5"/>
  </pattern>

  <!-- Specular metal sheen on armour panels -->
  <filter id="metalr1x4202" x="-5%" y="-5%" width="110%" height="110%">
    <feSpecularLighting surfaceScale="4" specularConstant="1.8"
        specularExponent="42" lighting-color="#ffffff" result="spec">
      <feDistantLight elevation="52" azimuth="38"/>
    </feSpecularLighting>
    <feComposite in="spec" in2="SourceGraphic" operator="in" result="sm"/>
    <feComposite in="SourceGraphic" in2="sm" operator="arithmetic" k1="0" k2="1" k3="0.55" k4="0"/>
  </filter>

  <!-- Sharper specular for weapons — heavier glare -->
  <filter id="wmr1x4202" x="-8%" y="-8%" width="116%" height="116%">
    <feSpecularLighting surfaceScale="6" specularConstant="2.4"
        specularExponent="65" lighting-color="#ffffff" result="spec">
      <feDistantLight elevation="44" azimuth="28"/>
    </feSpecularLighting>
    <feComposite in="spec" in2="SourceGraphic" operator="in" result="sm"/>
    <feComposite in="SourceGraphic" in2="sm" operator="arithmetic" k1="0" k2="1" k3="0.78" k4="0"/>
  </filter>

  <!-- Sketch wobble -->
  <filter id="skr1x4202" x="-8%" y="-8%" width="116%" height="116%">
    <feTurbulence type="fractalNoise" baseFrequency="0.038"
        numOctaves="3" seed="77" result="noise"/>
    <feDisplacementMap in="SourceGraphic" in2="noise" scale="2.6"
        xChannelSelector="R" yChannelSelector="G" result="w"/>
    <feComposite in="w" in2="SourceGraphic" operator="atop"/>
  </filter>

  <!-- Glow: sharp accent -->
  <filter id="glowr1x4202" x="-20%" y="-20%" width="140%" height="140%">
    <feGaussianBlur stdDeviation="3.5" result="b"/>
    <feColorMatrix in="b" type="matrix"
        values="0 0 0 0 1  0 0 0 0 1  0 0 0 0 1  0 0 0 1.8 0" result="boost"/>
    <feMerge><feMergeNode in="boost"/><feMergeNode in="SourceGraphic"/></feMerge>
  </filter>

  <!-- Bloom: wide soft -->
  <filter id="bloomr1x4202" x="-40%" y="-40%" width="180%" height="180%">
    <feGaussianBlur stdDeviation="11" result="b"/>
    <feMerge><feMergeNode in="b"/><feMergeNode in="SourceGraphic"/></feMerge>
  </filter>

  </defs><rect width="1000" height="1000" fill="url(#bgr1x4202)"/><polygon points="215.14537076465786,105.36723462864757 229.24874531384557,65.61747699324042 247.4445027327165,110.45921752229333" fill="#ff2040" fill-opacity=".055" stroke="#ff2040" stroke-opacity=".1" stroke-width="1"/><polygon points="37.83005823381245,347.64481959398836 43.060593663714826,313.7324912780896 71.05172119382769,356.0723855160177" fill="#ff2040" fill-opacity=".055" stroke="#ff2040" stroke-opacity=".1" stroke-width="1"/><polygon points="732.1300617465749,339.2592584481463 763.8424995103851,304.1629371168092 768.6686448641121,328.02341158967465" fill="#ff2040" fill-opacity=".055" stroke="#ff2040" stroke-opacity=".1" stroke-width="1"/><polygon points="617.1694967569783,31.634598365053535 636.3194524850696,-7.845950487069786 662.0031041866168,27.377752289175987" fill="#ff2040" fill-opacity=".055" stroke="#ff2040" stroke-opacity=".1" stroke-width="1"/><polygon points="933.4696352342144,286.3138118805364 959.0238152099773,248.1995131522417 963.6657788539305,296.0759129235521" fill="#ff2040" fill-opacity=".055" stroke="#ff2040" stroke-opacity=".1" stroke-width="1"/><polygon points="598.0053465021774,167.31081867124885 625.1131749553606,130.5152198607102 652.8499447628856,176.14120671059936" fill="#ff2040" fill-opacity=".055" stroke="#ff2040" stroke-opacity=".1" stroke-width="1"/><polygon points="167.44227330666035,56.14664476830512 183.70603443868458,18.259068907238543 213.25126843806356,49.638108243234456" fill="#ff2040" fill-opacity=".055" stroke="#ff2040" stroke-opacity=".1" stroke-width="1"/><polygon points="736.2319778930396,411.3291628565639 765.6267941724509,385.0167677346617 782.8511913008988,425.84247418213636" fill="#ff2040" fill-opacity=".055" stroke="#ff2040" stroke-opacity=".1" stroke-width="1"/><ellipse cx="500.0" cy="892.0" rx="350.0" ry="65.0" fill="rgba(0,0,0,.7)" filter="url(#bloomr1x4202)"/><ellipse cx="500.0" cy="889.0" rx="220.0" ry="34.0" fill="rgba(0,0,0,.45)"/><ellipse cx="500.0" cy="520.0" rx="320.0" ry="480.0" fill="#00e5ff" fill-opacity=".042" filter="url(#bloomr1x4202)"/><circle cx="480.6" cy="756.2" r="3.6" fill="#00e5ff" fill-opacity="0.85" filter="url(#glowr1x4202)"/><circle cx="416.2" cy="211.3" r="2.6" fill="#00e5ff" fill-opacity="0.64" filter="url(#glowr1x4202)"/><circle cx="494.5" cy="366.3" r="2.1" fill="#00e5ff" fill-opacity="0.68" filter="url(#glowr1x4202)"/><circle cx="644.1" cy="505.3" r="4.1" fill="#00e5ff" fill-opacity="0.88" filter="url(#glowr1x4202)"/><circle cx="747.5" cy="291.6" r="2.4" fill="#00e5ff" fill-opacity="0.55" filter="url(#glowr1x4202)"/><circle cx="558.9" cy="383.0" r="2.6" fill="#00e5ff" fill-opacity="0.41" filter="url(#glowr1x4202)"/><circle cx="601.3" cy="241.7" r="3.6" fill="#00e5ff" fill-opacity="0.55" filter="url(#glowr1x4202)"/><circle cx="460.4" cy="188.6" r="2.6" fill="#00e5ff" fill-opacity="0.85" filter="url(#glowr1x4202)"/><circle cx="442.2" cy="732.6" r="2.3" fill="#00e5ff" fill-opacity="0.45" filter="url(#glowr1x4202)"/><circle cx="602.9" cy="645.6" r="0.5" fill="#00e5ff" fill-opacity="0.60" filter="url(#glowr1x4202)"/><circle cx="461.9" cy="540.8" r="1.7" fill="#00e5ff" fill-opacity="0.70" filter="url(#glowr1x4202)"/><circle cx="627.2" cy="464.1" r="3.6" fill="#00e5ff" fill-opacity="0.44" filter="url(#glowr1x4202)"/><circle cx="717.2" cy="570.5" r="1.3" fill="#00e5ff" fill-opacity="0.65" filter="url(#glowr1x4202)"/><circle cx="363.7" cy="595.7" r="1.9" fill="#00e5ff" fill-opacity="0.68" filter="url(#glowr1x4202)"/><path d="M503.5,215.0 Q541.2,473.1 593.6,677.4" stroke="#00e5ff" stroke-opacity="0.56" stroke-width="2.9" fill="none" filter="url(#glowr1x4202)"/><path d="M400.3,252.4 Q415.2,414.1 610.0,619.6" stroke="#00e5ff" stroke-opacity="0.78" stroke-width="2.5" fill="none" filter="url(#glowr1x4202)"/><path d="M303.2,157.1 Q332.5,387.9 384.6,646.3" stroke="#00e5ff" stroke-opacity="0.75" stroke-width="2.8" fill="none" filter="url(#glowr1x4202)"/><path d="M547.9,155.8 Q579.1,403.9 694.4,614.5" stroke="#00e5ff" stroke-opacity="0.52" stroke-width="0.7" fill="none" filter="url(#glowr1x4202)"/><path d="M563.9,300.9 Q593.1,448.4 300.7,602.6" stroke="#00e5ff" stroke-opacity="0.71" stroke-width="2.4" fill="none" filter="url(#glowr1x4202)"/><polygon points="398.0,662.9 491.0,661.1 479.3,878.4 388.9,878.9" fill="url(#suitr1x4202)" stroke="#ff2040" stroke-width="2.2" filter="url(#skr1x4202) url(#metalr1x4202)"/><polygon points="398.0,662.3 490.6,661.0 480.3,876.0 387.9,875.9" fill="url(#carbonr1x4202)"/><polygon points="392.8,724.2 492.2,722.5 482.9,788.0 382.4,786.6" fill="url(#bevelr1x4202)" fill-opacity=".5" stroke="#ff2040" stroke-width="1.4" filter="url(#skr1x4202)"/><polygon points="510.1,663.3 602.0,664.1 612.1,876.4 517.8,878.4" fill="url(#suitr1x4202)" stroke="#ff2040" stroke-width="2.2" filter="url(#skr1x4202) url(#metalr1x4202)"/><polygon points="511.5,663.9 601.6,663.6 614.2,879.3 518.4,876.9" fill="url(#carbonr1x4202)"/><polygon points="506.4,725.3 609.1,724.0 614.5,788.9 517.5,786.9" fill="url(#bevelr1x4202)" fill-opacity=".5" stroke="#ff2040" stroke-width="1.4" filter="url(#skr1x4202)"/><rect x="392.5" y="839.3" width="100.3" height="24.7" fill="url(#bevelr1x4202)" stroke="#ff2040" stroke-width="1" filter="url(#skr1x4202)"/><rect x="505.3"  y="839.0" width="100.3" height="24.7" fill="url(#bevelr1x4202)" stroke="#ff2040" stroke-width="1" filter="url(#skr1x4202)"/><polygon points="370.7,878.2 496.8,879.3 504.8,922.5 363.6,920.6" fill="#cc0020" stroke="#ff2040" stroke-width="2" filter="url(#skr1x4202)"/><polygon points="505.0,878.7 631.5,876.5 638.3,919.8 498.1,921.7" fill="#cc0020" stroke="#ff2040" stroke-width="2" filter="url(#skr1x4202)"/><polygon points="304.8,634.3 694.3,634.6 638.6,681.8 363.8,682.2" fill="#ff2040" fill-opacity=".52" stroke="#ff2040" stroke-width="2" filter="url(#skr1x4202)"/><rect x="463.1" y="636.4" width="72.0" height="42.0" fill="url(#bevelr1x4202)" stroke="#ff2040" stroke-width="1.4" filter="url(#glowr1x4202)"/><rect x="486.7" y="641.4" width="28.0" height="22.0" rx="1" fill="rgba(255,255,255,.48)"/><polygon points="153.2,466.8 235.1,467.6 256.3,734.3 129.8,736.6" fill="url(#suitr1x4202)" stroke="#ff2040" stroke-width="2.2" filter="url(#skr1x4202) url(#metalr1x4202)"/><polygon points="173.8,433.6 251.4,433.7 241.9,510.6 160.2,511.8" fill="url(#bevelr1x4202)" fill-opacity=".72" stroke="#ff2040" stroke-width="2.2" filter="url(#skr1x4202)"/><polygon points="161.9,622.6 244.2,622.7 239.0,659.7 166.3,662.5" fill="#ff2040" fill-opacity=".42" stroke="#ff2040" stroke-width="1" filter="url(#skr1x4202)"/><polygon points="763.8,467.2 846.5,466.2 870.2,736.3 743.7,736.0" fill="url(#suitr1x4202)" stroke="#ff2040" stroke-width="2.2" filter="url(#skr1x4202) url(#metalr1x4202)"/><polygon points="745.4,433.3 826.6,430.7 838.7,510.4 757.2,509.8" fill="url(#bevelr1x4202)" fill-opacity=".72" stroke="#ff2040" stroke-width="2.2" filter="url(#skr1x4202)"/><polygon points="756.0,620.4 839.9,621.5 835.4,660.7 759.8,661.6" fill="#ff2040" fill-opacity=".42" stroke="#ff2040" stroke-width="1" filter="url(#skr1x4202)"/><rect x="118.4"  y="699.1" width="135.3" height="85.0" rx="4" fill="url(#bevelr1x4202)" stroke="#ff2040" stroke-width="1.8" filter="url(#skr1x4202)"/><rect x="748.8"   y="701.4" width="135.3" height="85.0" rx="4" fill="url(#bevelr1x4202)" stroke="#ff2040" stroke-width="1.8" filter="url(#skr1x4202)"/><line x1="149.9" y1="700.9" x2="150.8" y2="782.4" stroke="#ff2040" stroke-opacity=".38" stroke-width="1"/><line x1="778.7" y1="701.9" x2="778.6" y2="784.3" stroke="#ff2040" stroke-opacity=".38" stroke-width="1"/><line x1="183.0" y1="702.4" x2="182.6" y2="783.1" stroke="#ff2040" stroke-opacity=".38" stroke-width="1"/><line x1="810.1" y1="703.3" x2="812.4" y2="783.0" stroke="#ff2040" stroke-opacity=".38" stroke-width="1"/><line x1="214.7" y1="700.4" x2="217.1" y2="782.7" stroke="#ff2040" stroke-opacity=".38" stroke-width="1"/><line x1="842.1" y1="701.6" x2="843.2" y2="784.9" stroke="#ff2040" stroke-opacity=".38" stroke-width="1"/><polygon points="234.2,416.7 765.7,417.9 723.7,662.6 276.9,663.9" fill="url(#suitr1x4202)" stroke="#ff2040" stroke-width="2.6" filter="url(#skr1x4202) url(#metalr1x4202)"/><polygon points="233.4,418.7 766.7,418.1 721.7,661.2 277.6,663.4" fill="url(#carbonr1x4202)"/><polygon points="367.9,418.7 632.0,418.1 610.0,516.7 389.1,515.1" fill="url(#suitHir1x4202)"/><line x1="363.7" y1="471.9" x2="638.4" y2="471.1" stroke="#ff2040" stroke-opacity=".52" stroke-width="1.3" filter="url(#skr1x4202)"/><line x1="399.2" y1="548.3" x2="599.8" y2="551.3" stroke="#ff2040" stroke-opacity=".52" stroke-width="1.3" filter="url(#skr1x4202)"/><line x1="268.4" y1="491.6" x2="318.1" y2="490.1" stroke="#ff2040" stroke-opacity=".62" stroke-width="1.8"/><line x1="679.8" y1="491.3" x2="732.7" y2="491.5" stroke="#ff2040" stroke-opacity=".62" stroke-width="1.8"/><line x1="265.1" y1="521.2" x2="319.9" y2="522.8" stroke="#ff2040" stroke-opacity=".62" stroke-width="1.8"/><line x1="679.2" y1="524.5" x2="732.2" y2="523.3" stroke="#ff2040" stroke-opacity=".62" stroke-width="1.8"/><line x1="267.5" y1="554.0" x2="319.2" y2="553.4" stroke="#ff2040" stroke-opacity=".62" stroke-width="1.8"/><line x1="681.2" y1="554.3" x2="733.3" y2="556.4" stroke="#ff2040" stroke-opacity=".62" stroke-width="1.8"/><line x1="267.8" y1="585.1" x2="318.2" y2="586.4" stroke="#ff2040" stroke-opacity=".62" stroke-width="1.8"/><line x1="679.8" y1="588.1" x2="734.7" y2="585.4" stroke="#ff2040" stroke-opacity=".62" stroke-width="1.8"/><g filter="url(#glowr1x4202)"><polygon points="498.6,451.6 542.5,512.1 498.9,567.9 459.0,511.8" fill="#ff2040" stroke="#050d14" stroke-width="1.4" filter="url(#skr1x4202)"/><polygon points="500.7,451.8 540.4,509.7 500.9,569.8 456.5,511.9" fill="url(#suitHir1x4202)" opacity=".45"/></g><g><line x1="897.6228996763565" y1="831.9089056249708" x2="897.0708469844051" y2="110.09933769339693" stroke="url(#chromer1x4202)" stroke-width="22.0" stroke-linecap="round" filter="url(#wmr1x4202)"/><line x1="902.7373151263781" y1="812.6875772538594" x2="903.1588098536805" y2="132.0631503626704" stroke="rgba(255,255,255,.35)" stroke-width="4.0" stroke-linecap="round"/><rect x="881.4174070925079" y="622.2345820100978" width="32.0" height="18.0" fill="url(#bevelr1x4202)" stroke="#ff2040" stroke-width=".8" filter="url(#wmr1x4202)"/><rect x="882.2261878863536" y="441.0762463170104" width="32.0" height="18.0" fill="url(#bevelr1x4202)" stroke="#ff2040" stroke-width=".8" filter="url(#wmr1x4202)"/><rect x="882.8751571031846" y="261.9015662620775" width="32.0" height="18.0" fill="url(#bevelr1x4202)" stroke="#ff2040" stroke-width=".8" filter="url(#wmr1x4202)"/><circle cx="897.6391635960528" cy="110.28950425144282" r="58.0" fill="rgba(0,0,0,.52)" stroke="#ff2040" stroke-width="2.2" filter="url(#wmr1x4202)"/><circle cx="896.8769663120248" cy="112.71852253377435" r="46.0" fill="url(#orbr1x4202)" filter="url(#bloomr1x4202)"/><circle cx="899.1209015541338" cy="110.01420081276444" r="20.0" fill="#00e5ff" filter="url(#glowr1x4202)"/><circle cx="896.3250934605114" cy="113.16177166514096" r="66.0" fill="none" stroke="#ff2040" stroke-opacity=".4" stroke-width="1.3" stroke-dasharray="4,4"/><ellipse cx="896.4071629987658" cy="112.65075932256875" rx="66.0" ry="30.0" fill="none" stroke="#ff2040" stroke-opacity=".24" stroke-width="1" stroke-dasharray="3,5" transform="rotate(60,897.8,111.4)"/></g><rect x="449.68273069057614" y="556.5789808056317" width="100.0"  height="56.0" fill="#cc0020" stroke="#ff2040" stroke-width="2.2" filter="url(#skr1x4202)"/><rect x="425.1822559155524" y="574.0000349751674" width="152.0" height="26.0" fill="url(#bevelr1x4202)" fill-opacity=".65" stroke="#ff2040" stroke-width="1.2" filter="url(#skr1x4202)"/><polygon points="308.9,381.6 351.5,293.2 501.2,278.4 648.5,295.0 691.6,379.3 669.0,503.4 499.7,565.1 330.4,501.8" fill="url(#suitr1x4202)" stroke="#ff2040" stroke-width="2.8" filter="url(#skr1x4202) url(#metalr1x4202)"/><polygon points="308.7,382.0 349.5,293.8 499.8,277.0 649.8,294.3 691.9,381.6 668.5,503.0 500.9,565.1 329.6,504.9" fill="url(#carbonr1x4202)"/><polygon points="380.2,302.2 499.4,286.7 618.3,304.2 605.9,379.4 391.4,381.2" fill="url(#suitHir1x4202)"/><polygon points="381.5,381.6 365.6,425.2 433.4,504.0 498.5,526.7 565.5,504.7 634.3,424.3 618.8,381.1" fill="#050d14" fill-opacity=".88" stroke="#ff2040" stroke-width="1.8" filter="url(#skr1x4202)"/><polygon points="382.0,412.4 477.0,410.6 483.0,440.9 390.1,441.4" fill="#ff2040" filter="url(#glowr1x4202)"/><polygon points="524.2,412.4 619.0,412.8 612.1,439.8 515.7,440.6" fill="#ff2040" filter="url(#glowr1x4202)"/><ellipse cx="430.9" cy="425.7" rx="38.4"  ry="8.2" fill="#ffffff" opacity=".88"/><ellipse cx="569.1" cy="425.7" rx="38.4"  ry="8.2" fill="#ffffff" opacity=".88"/><line x1="484.97333508595824" y1="412.90186684979125" x2="516.1974652607366" y2="412.0935111626051" stroke="#ff2040" stroke-opacity=".52" stroke-width="2"/><line x1="483.31570772618056" y1="438.432416713424" x2="514.1569585688785" y2="437.096731810458" stroke="#ff2040" stroke-opacity=".52" stroke-width="2"/><line x1="499.38112910110505" y1="454.95718815745784" x2="500.13746843729166" y2="482.27477583996955" stroke="#ff2040" stroke-opacity=".58" stroke-width="2.2" filter="url(#skr1x4202)"/><line x1="454.90229957204315" y1="492.753435795661" x2="454.44443085173145" y2="520.6844820396975" stroke="#ff2040" stroke-opacity=".52" stroke-width="1.5" filter="url(#skr1x4202)"/><line x1="476.0673225479573" y1="492.42039171513164" x2="478.1698852877505" y2="518.5106733433902" stroke="#ff2040" stroke-opacity=".52" stroke-width="1.5" filter="url(#skr1x4202)"/><line x1="500.59530118331315" y1="492.2915609288029" x2="498.4202579542063" y2="519.9831629995257" stroke="#ff2040" stroke-opacity=".52" stroke-width="1.5" filter="url(#skr1x4202)"/><line x1="524.8301532586663" y1="491.2221259160898" x2="523.4677787926606" y2="521.2742907915265" stroke="#ff2040" stroke-opacity=".52" stroke-width="1.5" filter="url(#skr1x4202)"/><line x1="545.0536251624302" y1="489.73125898335127" x2="547.4824250467308" y2="520.5421410864219" stroke="#ff2040" stroke-opacity=".52" stroke-width="1.5" filter="url(#skr1x4202)"/><polygon points="432.3,503.3 568.1,502.1 552.1,557.9 445.1,555.5" fill="#cc0020" fill-opacity=".72" stroke="#ff2040" stroke-width="1.3" filter="url(#skr1x4202)"/><text x="30.0"  y="975.0" font-family="monospace" font-weight="bold" font-size="22.0" fill="rgba(255,255,255,.22)">#0001</text><text x="500.0"   y="975.0" text-anchor="middle" font-family="monospace" font-weight="bold" font-size="22.0" fill="#ff2040" fill-opacity=".48">CRIMSON RANGER</text><text x="970.0" y="975.0" text-anchor="end"    font-family="monospace" font-weight="bold" font-size="22.0" fill="#ff2040" fill-opacity=".32">MECH RANGERS</text></svg>