<svg xmlns="http://www.w3.org/2000/svg" viewBox="0 0 1000 1000" width="1000" height="1000" shape-rendering="geometricPrecision"><defs>

  <!-- Scene gradients -->
  <radialGradient id="bgr1x4240" cx="50%" cy="42%" r="72%">
    <stop offset="0%"   stop-color="#0a0a14"/>
    <stop offset="100%" stop-color="#050508"/>
  </radialGradient>
  <linearGradient id="suitr1x4240" x1="8%" y1="0%" x2="92%" y2="100%">
    <stop offset="0%"   stop-color="#2060ff" stop-opacity=".95"/>
    <stop offset="45%"  stop-color="#003ccc"/>
    <stop offset="100%" stop-color="#050508"/>
  </linearGradient>
  <linearGradient id="suitHir1x4240" x1="0%" y1="0%" x2="0%" y2="100%">
    <stop offset="0%"   stop-color="rgba(255,255,255,.28)"/>
    <stop offset="60%"  stop-color="rgba(255,255,255,.04)"/>
    <stop offset="100%" stop-color="rgba(255,255,255,0)"/>
  </linearGradient>
  <!-- Bevel: bright top, dark bottom for armour panels -->
  <linearGradient id="bevelr1x4240" x1="0%" y1="0%" x2="0%" y2="100%">
    <stop offset="0%"   stop-color="rgba(255,255,255,.55)"/>
    <stop offset="30%"  stop-color="#2060ff"/>
    <stop offset="70%"  stop-color="#003ccc"/>
    <stop offset="100%" stop-color="rgba(0,0,0,.5)"/>
  </linearGradient>

  <!-- Weapon: cold steel blade sweep -->
  <linearGradient id="blader1x4240" x1="0%" y1="0%" x2="100%" y2="0%">
    <stop offset="0%"   stop-color="#0e0e20"/>
    <stop offset="16%"  stop-color="#3e3e58"/>
    <stop offset="34%"  stop-color="#c8c8e0"/>
    <stop offset="50%"  stop-color="#f5f5ff"/>
    <stop offset="66%"  stop-color="#b8b8d0"/>
    <stop offset="84%"  stop-color="#2e2e48"/>
    <stop offset="100%" stop-color="#08080e"/>
  </linearGradient>
  <!-- Blade tip brightening -->
  <linearGradient id="bladeTipr1x4240" x1="0%" y1="100%" x2="0%" y2="0%">
    <stop offset="0%"   stop-color="rgba(255,255,255,0)"/>
    <stop offset="55%"  stop-color="rgba(255,255,255,.1)"/>
    <stop offset="100%" stop-color="rgba(255,255,255,.55)"/>
  </linearGradient>
  <!-- Gunmetal anodised — blaster body -->
  <linearGradient id="gunmetalr1x4240" x1="0%" y1="0%" x2="0%" y2="100%">
    <stop offset="0%"   stop-color="#46465e"/>
    <stop offset="18%"  stop-color="#828296"/>
    <stop offset="42%"  stop-color="#26263a"/>
    <stop offset="72%"  stop-color="#16162a"/>
    <stop offset="100%" stop-color="#0c0c18"/>
  </linearGradient>
  <!-- Brushed steel tube — barrel/rod -->
  <linearGradient id="barrelr1x4240" x1="0%" y1="0%" x2="100%" y2="0%">
    <stop offset="0%"   stop-color="#0a0a14"/>
    <stop offset="24%"  stop-color="#585875"/>
    <stop offset="50%"  stop-color="#a8a8c8"/>
    <stop offset="76%"  stop-color="#383852"/>
    <stop offset="100%" stop-color="#0a0a14"/>
  </linearGradient>
  <!-- Chrome rod — lance shaft -->
  <linearGradient id="chromer1x4240" x1="0%" y1="0%" x2="100%" y2="0%">
    <stop offset="0%"   stop-color="#0c0c18"/>
    <stop offset="20%"  stop-color="#686888"/>
    <stop offset="44%"  stop-color="#e0e0f0"/>
    <stop offset="56%"  stop-color="#c0c0d8"/>
    <stop offset="80%"  stop-color="#28283e"/>
    <stop offset="100%" stop-color="#0c0c18"/>
  </linearGradient>
  <!-- Titanium plate — shield face -->
  <linearGradient id="titaniumr1x4240" x1="0%" y1="0%" x2="100%" y2="100%">
    <stop offset="0%"   stop-color="#585878"/>
    <stop offset="28%"  stop-color="#2060ff" stop-opacity=".88"/>
    <stop offset="55%"  stop-color="#003ccc"/>
    <stop offset="80%"  stop-color="#181828"/>
    <stop offset="100%" stop-color="#0a0a18"/>
  </linearGradient>
  <!-- Artillery black-chrome — cannon body -->
  <linearGradient id="artilleryr1x4240" x1="0%" y1="0%" x2="0%" y2="100%">
    <stop offset="0%"   stop-color="#383850"/>
    <stop offset="14%"  stop-color="#78789a"/>
    <stop offset="36%"  stop-color="#202034"/>
    <stop offset="65%"  stop-color="#14141e"/>
    <stop offset="100%" stop-color="#0a0a12"/>
  </linearGradient>
  <!-- Energy orb — staff -->
  <radialGradient id="orbr1x4240" cx="35%" cy="35%" r="65%">
    <stop offset="0%"   stop-color="rgba(255,255,255,.9)"/>
    <stop offset="30%"  stop-color="#2060ff"/>
    <stop offset="68%"  stop-color="#003ccc"/>
    <stop offset="100%" stop-color="rgba(0,0,0,.6)"/>
  </radialGradient>
  <!-- Knuckle plate chrome -->
  <linearGradient id="knuckler1x4240" x1="0%" y1="0%" x2="0%" y2="100%">
    <stop offset="0%"   stop-color="#888aaa"/>
    <stop offset="32%"  stop-color="#2060ff" stop-opacity=".8"/>
    <stop offset="62%"  stop-color="#1a1a2c"/>
    <stop offset="100%" stop-color="#0a0a14"/>
  </linearGradient>

  <!-- Carbon fibre weave texture overlay -->
  <pattern id="carbonr1x4240" width="6" height="6" patternUnits="userSpaceOnUse">
    <rect width="6" height="6" fill="rgba(0,0,0,.08)"/>
    <rect x="0" y="0" width="3" height="3" fill="rgba(255,255,255,.022)"/>
    <rect x="3" y="3" width="3" height="3" fill="rgba(255,255,255,.022)"/>
    <line x1="0" y1="0" x2="3" y2="3" stroke="rgba(255,255,255,.038)" stroke-width=".5"/>
    <line x1="3" y1="0" x2="6" y2="3" stroke="rgba(0,0,0,.055)"       stroke-width=".5"/>
    <line x1="0" y1="3" x2="3" y2="6" stroke="rgba(0,0,0,.055)"       stroke-width=".5"/>
    <line x1="3" y1="3" x2="6" y2="6" stroke="rgba(255,255,255,.038)" stroke-width=".5"/>
  </pattern>

  <!-- Specular metal sheen on armour panels -->
  <filter id="metalr1x4240" x="-5%" y="-5%" width="110%" height="110%">
    <feSpecularLighting surfaceScale="4" specularConstant="1.8"
        specularExponent="42" lighting-color="#ffffff" result="spec">
      <feDistantLight elevation="52" azimuth="38"/>
    </feSpecularLighting>
    <feComposite in="spec" in2="SourceGraphic" operator="in" result="sm"/>
    <feComposite in="SourceGraphic" in2="sm" operator="arithmetic" k1="0" k2="1" k3="0.55" k4="0"/>
  </filter>

  <!-- Sharper specular for weapons — heavier glare -->
  <filter id="wmr1x4240" x="-8%" y="-8%" width="116%" height="116%">
    <feSpecularLighting surfaceScale="6" specularConstant="2.4"
        specularExponent="65" lighting-color="#ffffff" result="spec">
      <feDistantLight elevation="44" azimuth="28"/>
    </feSpecularLighting>
    <feComposite in="spec" in2="SourceGraphic" operator="in" result="sm"/>
    <feComposite in="SourceGraphic" in2="sm" operator="arithmetic" k1="0" k2="1" k3="0.78" k4="0"/>
  </filter>

  <!-- Sketch wobble -->
  <filter id="skr1x4240" x="-8%" y="-8%" width="116%" height="116%">
    <feTurbulence type="fractalNoise" baseFrequency="0.038"
        numOctaves="3" seed="9" result="noise"/>
    <feDisplacementMap in="SourceGraphic" in2="noise" scale="2.6"
        xChannelSelector="R" yChannelSelector="G" result="w"/>
    <feComposite in="w" in2="SourceGraphic" operator="atop"/>
  </filter>

  <!-- Glow: sharp accent -->
  <filter id="glowr1x4240" x="-20%" y="-20%" width="140%" height="140%">
    <feGaussianBlur stdDeviation="3.5" result="b"/>
    <feColorMatrix in="b" type="matrix"
        values="0 0 0 0 1  0 0 0 0 1  0 0 0 0 1  0 0 0 1.8 0" result="boost"/>
    <feMerge><feMergeNode in="boost"/><feMergeNode in="SourceGraphic"/></feMerge>
  </filter>

  <!-- Bloom: wide soft -->
  <filter id="bloomr1x4240" x="-40%" y="-40%" width="180%" height="180%">
    <feGaussianBlur stdDeviation="11" result="b"/>
    <feMerge><feMergeNode in="b"/><feMergeNode in="SourceGraphic"/></feMerge>
  </filter>

  </defs><rect width="1000" height="1000" fill="url(#bgr1x4240)"/><ellipse cx="500.0" cy="892.0" rx="350.0" ry="65.0" fill="rgba(0,0,0,.7)" filter="url(#bloomr1x4240)"/><ellipse cx="500.0" cy="889.0" rx="220.0" ry="34.0" fill="rgba(0,0,0,.45)"/><polygon points="397.9,663.6 489.5,660.9 479.2,879.2 387.8,878.1" fill="url(#suitr1x4240)" stroke="#2060ff" stroke-width="2.2" filter="url(#skr1x4240) url(#metalr1x4240)"/><polygon points="398.7,662.4 488.1,663.7 479.0,878.9 389.0,877.9" fill="url(#carbonr1x4240)"/><polygon points="391.6,722.8 492.6,725.1 484.5,789.1 382.4,787.0" fill="url(#bevelr1x4240)" fill-opacity=".5" stroke="#2060ff" stroke-width="1.4" filter="url(#skr1x4240)"/><polygon points="511.9,662.7 599.7,661.0 613.9,877.6 518.9,877.4" fill="url(#suitr1x4240)" stroke="#2060ff" stroke-width="2.2" filter="url(#skr1x4240) url(#metalr1x4240)"/><polygon points="511.1,660.8 602.9,662.3 611.8,877.9 520.9,876.9" fill="url(#carbonr1x4240)"/><polygon points="505.9,723.3 608.3,723.7 616.4,789.7 515.6,789.0" fill="url(#bevelr1x4240)" fill-opacity=".5" stroke="#2060ff" stroke-width="1.4" filter="url(#skr1x4240)"/><rect x="393.3" y="840.6" width="100.3" height="24.7" fill="url(#bevelr1x4240)" stroke="#2060ff" stroke-width="1" filter="url(#skr1x4240)"/><rect x="508.7"  y="837.5" width="100.3" height="24.7" fill="url(#bevelr1x4240)" stroke="#2060ff" stroke-width="1" filter="url(#skr1x4240)"/><polygon points="370.5,876.4 497.5,877.1 502.5,919.8 363.7,921.6" fill="#003ccc" stroke="#2060ff" stroke-width="2" filter="url(#skr1x4240)"/><polygon points="503.9,876.0 631.7,877.2 638.7,923.0 496.5,920.0" fill="#003ccc" stroke="#2060ff" stroke-width="2" filter="url(#skr1x4240)"/><polygon points="304.0,632.1 697.5,632.5 639.6,682.9 360.8,680.4" fill="#2060ff" fill-opacity=".52" stroke="#2060ff" stroke-width="2" filter="url(#skr1x4240)"/><rect x="462.7" y="638.7" width="72.0" height="42.0" fill="url(#bevelr1x4240)" stroke="#2060ff" stroke-width="1.4" filter="url(#glowr1x4240)"/><rect x="487.5" y="639.7" width="28.0" height="22.0" rx="1" fill="rgba(255,255,255,.48)"/><polygon points="154.5,465.9 235.7,464.9 256.5,736.2 129.7,736.4" fill="url(#suitr1x4240)" stroke="#2060ff" stroke-width="2.2" filter="url(#skr1x4240) url(#metalr1x4240)"/><polygon points="174.4,432.9 253.7,432.6 242.9,511.9 158.0,510.1" fill="url(#bevelr1x4240)" fill-opacity=".72" stroke="#2060ff" stroke-width="2.2" filter="url(#skr1x4240)"/><polygon points="161.0,621.0 242.8,621.9 237.3,660.7 166.4,662.1" fill="#2060ff" fill-opacity=".42" stroke="#2060ff" stroke-width="1" filter="url(#skr1x4240)"/><polygon points="766.0,466.2 845.4,465.3 870.4,733.2 742.6,736.1" fill="url(#suitr1x4240)" stroke="#2060ff" stroke-width="2.2" filter="url(#skr1x4240) url(#metalr1x4240)"/><polygon points="746.0,433.2 827.0,432.4 841.7,511.9 755.7,510.0" fill="url(#bevelr1x4240)" fill-opacity=".72" stroke="#2060ff" stroke-width="2.2" filter="url(#skr1x4240)"/><polygon points="756.9,621.1 840.5,621.0 833.6,660.5 760.7,661.1" fill="#2060ff" fill-opacity=".42" stroke="#2060ff" stroke-width="1" filter="url(#skr1x4240)"/><rect x="120.5"  y="699.6" width="135.3" height="85.0" rx="4" fill="url(#bevelr1x4240)" stroke="#2060ff" stroke-width="1.8" filter="url(#skr1x4240)"/><rect x="748.3"   y="699.0" width="135.3" height="85.0" rx="4" fill="url(#bevelr1x4240)" stroke="#2060ff" stroke-width="1.8" filter="url(#skr1x4240)"/><line x1="149.7" y1="702.3" x2="151.2" y2="784.5" stroke="#2060ff" stroke-opacity=".38" stroke-width="1"/><line x1="779.0" y1="700.5" x2="778.5" y2="783.7" stroke="#2060ff" stroke-opacity=".38" stroke-width="1"/><line x1="181.8" y1="701.4" x2="181.7" y2="782.5" stroke="#2060ff" stroke-opacity=".38" stroke-width="1"/><line x1="811.1" y1="701.6" x2="809.4" y2="782.3" stroke="#2060ff" stroke-opacity=".38" stroke-width="1"/><line x1="213.8" y1="702.6" x2="215.0" y2="782.9" stroke="#2060ff" stroke-opacity=".38" stroke-width="1"/><line x1="843.9" y1="701.6" x2="845.2" y2="784.8" stroke="#2060ff" stroke-opacity=".38" stroke-width="1"/><polygon points="234.9,416.7 766.5,417.0 723.7,662.2 276.3,663.4" fill="url(#suitr1x4240)" stroke="#2060ff" stroke-width="2.6" filter="url(#skr1x4240) url(#metalr1x4240)"/><polygon points="236.3,419.1 764.0,419.2 720.9,663.7 277.0,662.3" fill="url(#carbonr1x4240)"/><polygon points="365.9,418.4 632.0,415.9 612.1,516.0 388.9,516.2" fill="url(#suitHir1x4240)"/><line x1="360.5" y1="471.9" x2="636.7" y2="472.0" stroke="#2060ff" stroke-opacity=".52" stroke-width="1.3" filter="url(#skr1x4240)"/><line x1="399.9" y1="550.9" x2="599.3" y2="548.6" stroke="#2060ff" stroke-opacity=".52" stroke-width="1.3" filter="url(#skr1x4240)"/><line x1="265.9" y1="492.7" x2="320.5" y2="490.7" stroke="#2060ff" stroke-opacity=".62" stroke-width="1.8"/><line x1="678.6" y1="491.3" x2="731.6" y2="492.0" stroke="#2060ff" stroke-opacity=".62" stroke-width="1.8"/><line x1="267.8" y1="524.6" x2="320.0" y2="521.3" stroke="#2060ff" stroke-opacity=".62" stroke-width="1.8"/><line x1="678.7" y1="524.1" x2="733.8" y2="524.3" stroke="#2060ff" stroke-opacity=".62" stroke-width="1.8"/><line x1="267.8" y1="553.0" x2="318.7" y2="556.5" stroke="#2060ff" stroke-opacity=".62" stroke-width="1.8"/><line x1="681.8" y1="553.8" x2="734.2" y2="555.1" stroke="#2060ff" stroke-opacity=".62" stroke-width="1.8"/><line x1="268.6" y1="587.3" x2="319.0" y2="584.8" stroke="#2060ff" stroke-opacity=".62" stroke-width="1.8"/><line x1="680.1" y1="586.6" x2="732.1" y2="586.6" stroke="#2060ff" stroke-opacity=".62" stroke-width="1.8"/><g filter="url(#glowr1x4240)"><polygon points="500.3,452.9 516.6,489.4 553.8,493.8 523.7,518.1 535.1,555.8 498.7,534.9 466.4,558.3 476.3,517.5 445.8,494.0 483.8,489.4 " fill="#2060ff" stroke="#050508" stroke-width="1.4" filter="url(#skr1x4240)"/><polygon points="500.3,452.9 516.6,489.4 553.8,493.8 523.7,518.1 535.1,555.8 498.7,534.9 466.4,558.3 476.3,517.5 445.8,494.0 483.8,489.4 " fill="url(#suitHir1x4240)" opacity=".45"/></g><g><polygon points="33.3,294.1 171.3,293.3 172.4,593.0 102.9,727.8 31.4,590.4" fill="url(#titaniumr1x4240)" stroke="#2060ff" stroke-width="2.6" filter="url(#wmr1x4240)"/><polygon points="33.2,293.7 171.3,292.9 170.6,591.7 103.4,726.1 33.3,592.2" fill="url(#carbonr1x4240)"/><polygon points="65.0,360.7 141.1,360.1 141.5,541.1 102.1,631.2 64.0,542.6" fill="#2060ff" fill-opacity=".28" stroke="#2060ff" stroke-width="1.5"/><line x1="50.02758217988533" y1="431.9880628885701" x2="155.3730843349732" y2="431.2582085710019" stroke="#2060ff" stroke-opacity=".65" stroke-width="1.3"/><line x1="102.16005613276732" y1="332.17274007201195" x2="101.1211840468831" y2="590.7946112842299" stroke="#2060ff" stroke-opacity=".4" stroke-width="1"/><line x1="33.67400293195617" y1="295.0969219216145" x2="169.4791617781296" y2="297.58775266539305" stroke="rgba(255,255,255,.5)" stroke-width="2"/><circle cx="100.65268804900344" cy="431.13652941640464" r="18.0" fill="url(#bevelr1x4240)" stroke="#2060ff" stroke-width="1.2" filter="url(#wmr1x4240)"/></g><rect x="448.5400072937831" y="555.920837320853" width="100.0"  height="56.0" fill="#003ccc" stroke="#2060ff" stroke-width="2.2" filter="url(#skr1x4240)"/><rect x="422.66860598772763" y="575.4205980429426" width="152.0" height="26.0" fill="url(#bevelr1x4240)" fill-opacity=".65" stroke="#2060ff" stroke-width="1.2" filter="url(#skr1x4240)"/><polygon points="307.2,381.3 349.5,294.9 499.6,277.8 649.6,294.3 690.8,381.0 669.5,501.9 501.1,566.1 329.8,504.6" fill="url(#suitr1x4240)" stroke="#2060ff" stroke-width="2.8" filter="url(#skr1x4240) url(#metalr1x4240)"/><polygon points="306.6,379.8 348.5,293.9 500.7,279.2 648.6,294.4 692.4,381.0 667.3,502.3 499.0,565.6 331.9,505.2" fill="url(#carbonr1x4240)"/><polygon points="380.6,303.9 501.7,286.7 620.8,304.2 608.6,380.7 393.6,379.2" fill="url(#suitHir1x4240)"/><polygon points="382.5,380.4 364.0,424.0 432.0,504.9 501.3,527.6 566.8,502.6 633.3,426.1 618.9,380.3" fill="#050508" fill-opacity=".88" stroke="#2060ff" stroke-width="1.8" filter="url(#skr1x4240)"/><polygon points="379.7,409.6 475.7,412.6 484.5,441.8 389.5,440.4" fill="#2060ff" filter="url(#glowr1x4240)"/><polygon points="522.2,410.0 619.0,410.1 613.1,441.7 514.8,441.5" fill="#2060ff" filter="url(#glowr1x4240)"/><ellipse cx="430.9" cy="425.7" rx="38.4"  ry="8.2" fill="#ffffff" opacity=".88"/><ellipse cx="569.1" cy="425.7" rx="38.4"  ry="8.2" fill="#ffffff" opacity=".88"/><line x1="483.5356227867864" y1="412.5931663272902" x2="516.1728114080057" y2="411.6910187873058" stroke="#2060ff" stroke-opacity=".52" stroke-width="2"/><line x1="483.2620029304735" y1="438.9566792213358" x2="517.1556066950225" y2="436.64793248958887" stroke="#2060ff" stroke-opacity=".52" stroke-width="2"/><line x1="501.31935604531316" y1="455.07866126056757" x2="499.86075075529516" y2="483.9105009405874" stroke="#2060ff" stroke-opacity=".58" stroke-width="2.2" filter="url(#skr1x4240)"/><line x1="452.9415717691928" y1="492.98826979147265" x2="452.8559927733429" y2="518.8744087673724" stroke="#2060ff" stroke-opacity=".52" stroke-width="1.5" filter="url(#skr1x4240)"/><line x1="477.0215739904344" y1="492.13544270331033" x2="478.226925782524" y2="521.2020292844624" stroke="#2060ff" stroke-opacity=".52" stroke-width="1.5" filter="url(#skr1x4240)"/><line x1="498.8052978416905" y1="490.744145981688" x2="500.82834539050236" y2="519.3460499419831" stroke="#2060ff" stroke-opacity=".52" stroke-width="1.5" filter="url(#skr1x4240)"/><line x1="522.4737103513069" y1="492.35922491839153" x2="523.3444894769788" y2="521.7997550053522" stroke="#2060ff" stroke-opacity=".52" stroke-width="1.5" filter="url(#skr1x4240)"/><line x1="545.5343162435294" y1="492.18395010298116" x2="545.5157336061076" y2="518.9757179786451" stroke="#2060ff" stroke-opacity=".52" stroke-width="1.5" filter="url(#skr1x4240)"/><polygon points="434.3,503.4 567.6,502.3 555.5,558.1 447.3,558.2" fill="#003ccc" fill-opacity=".72" stroke="#2060ff" stroke-width="1.3" filter="url(#skr1x4240)"/><path d="M389.0803706785291 328.02701647253707 Q329.7102466622926 215.87996186586096 379.9823688261584 139.8462670280598" stroke="#2060ff" stroke-width="5" fill="none" stroke-linecap="round" filter="url(#skr1x4240)"/><path d="M388.26073724791405 328.642597059533 Q332.7288042610138 218.2326262439601 380.5318845616095 139.07863263143227" stroke="rgba(255,255,255,.25)" stroke-width="1.5" fill="none" stroke-linecap="round"/><path d="M610.100097500477 326.81938828462734 Q668.4627226136066 218.39318280201405 620.4665418692491 142.498811891675" stroke="#2060ff" stroke-width="5" fill="none" stroke-linecap="round" filter="url(#skr1x4240)"/><path d="M611.0732207702846 326.14315268313516 Q670.525619760193 215.94978989940137 617.7704307269863 140.26633889544755" stroke="rgba(255,255,255,.25)" stroke-width="1.5" fill="none" stroke-linecap="round"/><text x="30.0"  y="975.0" font-family="monospace" font-weight="bold" font-size="22.0" fill="rgba(255,255,255,.22)">#0001</text><text x="500.0"   y="975.0" text-anchor="middle" font-family="monospace" font-weight="bold" font-size="22.0" fill="#2060ff" fill-opacity=".48">COBALT RANGER</text><text x="970.0" y="975.0" text-anchor="end"    font-family="monospace" font-weight="bold" font-size="22.0" fill="#2060ff" fill-opacity=".32">MECH RANGERS</text></svg>