<svg xmlns="http://www.w3.org/2000/svg" viewBox="0 0 1000 1000" width="1000" height="1000" shape-rendering="geometricPrecision"><defs>

  <!-- Scene gradients -->
  <radialGradient id="bgr1x4278" cx="50%" cy="42%" r="72%">
    <stop offset="0%"   stop-color="#1e0a2e"/>
    <stop offset="100%" stop-color="#0a0520"/>
  </radialGradient>
  <linearGradient id="suitr1x4278" x1="8%" y1="0%" x2="92%" y2="100%">
    <stop offset="0%"   stop-color="#ccccff" stop-opacity=".95"/>
    <stop offset="45%"  stop-color="#242438"/>
    <stop offset="100%" stop-color="#0a0520"/>
  </linearGradient>
  <linearGradient id="suitHir1x4278" x1="0%" y1="0%" x2="0%" y2="100%">
    <stop offset="0%"   stop-color="rgba(255,255,255,.28)"/>
    <stop offset="60%"  stop-color="rgba(255,255,255,.04)"/>
    <stop offset="100%" stop-color="rgba(255,255,255,0)"/>
  </linearGradient>
  <!-- Bevel: bright top, dark bottom for armour panels -->
  <linearGradient id="bevelr1x4278" x1="0%" y1="0%" x2="0%" y2="100%">
    <stop offset="0%"   stop-color="rgba(255,255,255,.55)"/>
    <stop offset="30%"  stop-color="#ccccff"/>
    <stop offset="70%"  stop-color="#242438"/>
    <stop offset="100%" stop-color="rgba(0,0,0,.5)"/>
  </linearGradient>

  <!-- Weapon: cold steel blade sweep -->
  <linearGradient id="blader1x4278" x1="0%" y1="0%" x2="100%" y2="0%">
    <stop offset="0%"   stop-color="#0e0e20"/>
    <stop offset="16%"  stop-color="#3e3e58"/>
    <stop offset="34%"  stop-color="#c8c8e0"/>
    <stop offset="50%"  stop-color="#f5f5ff"/>
    <stop offset="66%"  stop-color="#b8b8d0"/>
    <stop offset="84%"  stop-color="#2e2e48"/>
    <stop offset="100%" stop-color="#08080e"/>
  </linearGradient>
  <!-- Blade tip brightening -->
  <linearGradient id="bladeTipr1x4278" x1="0%" y1="100%" x2="0%" y2="0%">
    <stop offset="0%"   stop-color="rgba(255,255,255,0)"/>
    <stop offset="55%"  stop-color="rgba(255,255,255,.1)"/>
    <stop offset="100%" stop-color="rgba(255,255,255,.55)"/>
  </linearGradient>
  <!-- Gunmetal anodised — blaster body -->
  <linearGradient id="gunmetalr1x4278" x1="0%" y1="0%" x2="0%" y2="100%">
    <stop offset="0%"   stop-color="#46465e"/>
    <stop offset="18%"  stop-color="#828296"/>
    <stop offset="42%"  stop-color="#26263a"/>
    <stop offset="72%"  stop-color="#16162a"/>
    <stop offset="100%" stop-color="#0c0c18"/>
  </linearGradient>
  <!-- Brushed steel tube — barrel/rod -->
  <linearGradient id="barrelr1x4278" x1="0%" y1="0%" x2="100%" y2="0%">
    <stop offset="0%"   stop-color="#0a0a14"/>
    <stop offset="24%"  stop-color="#585875"/>
    <stop offset="50%"  stop-color="#a8a8c8"/>
    <stop offset="76%"  stop-color="#383852"/>
    <stop offset="100%" stop-color="#0a0a14"/>
  </linearGradient>
  <!-- Chrome rod — lance shaft -->
  <linearGradient id="chromer1x4278" x1="0%" y1="0%" x2="100%" y2="0%">
    <stop offset="0%"   stop-color="#0c0c18"/>
    <stop offset="20%"  stop-color="#686888"/>
    <stop offset="44%"  stop-color="#e0e0f0"/>
    <stop offset="56%"  stop-color="#c0c0d8"/>
    <stop offset="80%"  stop-color="#28283e"/>
    <stop offset="100%" stop-color="#0c0c18"/>
  </linearGradient>
  <!-- Titanium plate — shield face -->
  <linearGradient id="titaniumr1x4278" x1="0%" y1="0%" x2="100%" y2="100%">
    <stop offset="0%"   stop-color="#585878"/>
    <stop offset="28%"  stop-color="#ccccff" stop-opacity=".88"/>
    <stop offset="55%"  stop-color="#242438"/>
    <stop offset="80%"  stop-color="#181828"/>
    <stop offset="100%" stop-color="#0a0a18"/>
  </linearGradient>
  <!-- Artillery black-chrome — cannon body -->
  <linearGradient id="artilleryr1x4278" x1="0%" y1="0%" x2="0%" y2="100%">
    <stop offset="0%"   stop-color="#383850"/>
    <stop offset="14%"  stop-color="#78789a"/>
    <stop offset="36%"  stop-color="#202034"/>
    <stop offset="65%"  stop-color="#14141e"/>
    <stop offset="100%" stop-color="#0a0a12"/>
  </linearGradient>
  <!-- Energy orb — staff -->
  <radialGradient id="orbr1x4278" cx="35%" cy="35%" r="65%">
    <stop offset="0%"   stop-color="rgba(255,255,255,.9)"/>
    <stop offset="30%"  stop-color="#ccccff"/>
    <stop offset="68%"  stop-color="#242438"/>
    <stop offset="100%" stop-color="rgba(0,0,0,.6)"/>
  </radialGradient>
  <!-- Knuckle plate chrome -->
  <linearGradient id="knuckler1x4278" x1="0%" y1="0%" x2="0%" y2="100%">
    <stop offset="0%"   stop-color="#888aaa"/>
    <stop offset="32%"  stop-color="#ccccff" stop-opacity=".8"/>
    <stop offset="62%"  stop-color="#1a1a2c"/>
    <stop offset="100%" stop-color="#0a0a14"/>
  </linearGradient>

  <!-- Carbon fibre weave texture overlay -->
  <pattern id="carbonr1x4278" width="6" height="6" patternUnits="userSpaceOnUse">
    <rect width="6" height="6" fill="rgba(0,0,0,.08)"/>
    <rect x="0" y="0" width="3" height="3" fill="rgba(255,255,255,.022)"/>
    <rect x="3" y="3" width="3" height="3" fill="rgba(255,255,255,.022)"/>
    <line x1="0" y1="0" x2="3" y2="3" stroke="rgba(255,255,255,.038)" stroke-width=".5"/>
    <line x1="3" y1="0" x2="6" y2="3" stroke="rgba(0,0,0,.055)"       stroke-width=".5"/>
    <line x1="0" y1="3" x2="3" y2="6" stroke="rgba(0,0,0,.055)"       stroke-width=".5"/>
    <line x1="3" y1="3" x2="6" y2="6" stroke="rgba(255,255,255,.038)" stroke-width=".5"/>
  </pattern>

  <!-- Specular metal sheen on armour panels -->
  <filter id="metalr1x4278" x="-5%" y="-5%" width="110%" height="110%">
    <feSpecularLighting surfaceScale="4" specularConstant="1.8"
        specularExponent="42" lighting-color="#ffffff" result="spec">
      <feDistantLight elevation="52" azimuth="38"/>
    </feSpecularLighting>
    <feComposite in="spec" in2="SourceGraphic" operator="in" result="sm"/>
    <feComposite in="SourceGraphic" in2="sm" operator="arithmetic" k1="0" k2="1" k3="0.55" k4="0"/>
  </filter>

  <!-- Sharper specular for weapons — heavier glare -->
  <filter id="wmr1x4278" x="-8%" y="-8%" width="116%" height="116%">
    <feSpecularLighting surfaceScale="6" specularConstant="2.4"
        specularExponent="65" lighting-color="#ffffff" result="spec">
      <feDistantLight elevation="44" azimuth="28"/>
    </feSpecularLighting>
    <feComposite in="spec" in2="SourceGraphic" operator="in" result="sm"/>
    <feComposite in="SourceGraphic" in2="sm" operator="arithmetic" k1="0" k2="1" k3="0.78" k4="0"/>
  </filter>

  <!-- Sketch wobble -->
  <filter id="skr1x4278" x="-8%" y="-8%" width="116%" height="116%">
    <feTurbulence type="fractalNoise" baseFrequency="0.038"
        numOctaves="3" seed="61" result="noise"/>
    <feDisplacementMap in="SourceGraphic" in2="noise" scale="2.6"
        xChannelSelector="R" yChannelSelector="G" result="w"/>
    <feComposite in="w" in2="SourceGraphic" operator="atop"/>
  </filter>

  <!-- Glow: sharp accent -->
  <filter id="glowr1x4278" x="-20%" y="-20%" width="140%" height="140%">
    <feGaussianBlur stdDeviation="3.5" result="b"/>
    <feColorMatrix in="b" type="matrix"
        values="0 0 0 0 1  0 0 0 0 1  0 0 0 0 1  0 0 0 1.8 0" result="boost"/>
    <feMerge><feMergeNode in="boost"/><feMergeNode in="SourceGraphic"/></feMerge>
  </filter>

  <!-- Bloom: wide soft -->
  <filter id="bloomr1x4278" x="-40%" y="-40%" width="180%" height="180%">
    <feGaussianBlur stdDeviation="11" result="b"/>
    <feMerge><feMergeNode in="b"/><feMergeNode in="SourceGraphic"/></feMerge>
  </filter>

  </defs><rect width="1000" height="1000" fill="url(#bgr1x4278)"/><ellipse cx="500.0" cy="892.0" rx="350.0" ry="65.0" fill="rgba(0,0,0,.7)" filter="url(#bloomr1x4278)"/><ellipse cx="500.0" cy="889.0" rx="220.0" ry="34.0" fill="rgba(0,0,0,.45)"/><ellipse cx="500.0" cy="520.0" rx="320.0" ry="480.0" fill="#ffffff" fill-opacity=".042" filter="url(#bloomr1x4278)"/><circle cx="342.3" cy="659.4" r="2.6" fill="#ffffff" fill-opacity="0.65" filter="url(#glowr1x4278)"/><circle cx="444.5" cy="240.9" r="2.5" fill="#ffffff" fill-opacity="0.72" filter="url(#glowr1x4278)"/><circle cx="525.3" cy="620.8" r="1.3" fill="#ffffff" fill-opacity="0.51" filter="url(#glowr1x4278)"/><circle cx="739.5" cy="264.7" r="2.1" fill="#ffffff" fill-opacity="0.67" filter="url(#glowr1x4278)"/><circle cx="462.7" cy="773.8" r="1.8" fill="#ffffff" fill-opacity="0.79" filter="url(#glowr1x4278)"/><circle cx="326.9" cy="380.7" r="4.3" fill="#ffffff" fill-opacity="0.43" filter="url(#glowr1x4278)"/><circle cx="733.7" cy="340.0" r="0.5" fill="#ffffff" fill-opacity="0.41" filter="url(#glowr1x4278)"/><circle cx="521.4" cy="255.0" r="1.4" fill="#ffffff" fill-opacity="0.76" filter="url(#glowr1x4278)"/><circle cx="572.3" cy="306.4" r="3.7" fill="#ffffff" fill-opacity="0.88" filter="url(#glowr1x4278)"/><circle cx="575.2" cy="680.7" r="2.2" fill="#ffffff" fill-opacity="0.56" filter="url(#glowr1x4278)"/><circle cx="320.1" cy="220.3" r="3.0" fill="#ffffff" fill-opacity="0.60" filter="url(#glowr1x4278)"/><circle cx="687.1" cy="793.9" r="1.5" fill="#ffffff" fill-opacity="0.52" filter="url(#glowr1x4278)"/><circle cx="637.7" cy="770.7" r="2.0" fill="#ffffff" fill-opacity="0.57" filter="url(#glowr1x4278)"/><circle cx="437.4" cy="754.1" r="1.2" fill="#ffffff" fill-opacity="0.57" filter="url(#glowr1x4278)"/><polygon points="399.8,662.6 490.4,661.8 482.2,876.7 385.6,877.5" fill="url(#suitr1x4278)" stroke="#ccccff" stroke-width="2.2" filter="url(#skr1x4278) url(#metalr1x4278)"/><polygon points="400.1,663.6 487.9,662.7 480.1,875.8 386.7,876.2" fill="url(#carbonr1x4278)"/><polygon points="393.5,723.0 494.0,723.9 484.3,789.0 385.1,787.8" fill="url(#bevelr1x4278)" fill-opacity=".5" stroke="#ccccff" stroke-width="1.4" filter="url(#skr1x4278)"/><polygon points="508.9,662.7 599.7,661.8 613.1,877.5 518.9,878.5" fill="url(#suitr1x4278)" stroke="#ccccff" stroke-width="2.2" filter="url(#skr1x4278) url(#metalr1x4278)"/><polygon points="509.7,661.5 602.4,663.6 612.2,877.6 518.9,876.8" fill="url(#carbonr1x4278)"/><polygon points="506.8,722.6 606.7,723.4 616.7,787.0 516.5,787.3" fill="url(#bevelr1x4278)" fill-opacity=".5" stroke="#ccccff" stroke-width="1.4" filter="url(#skr1x4278)"/><rect x="391.8" y="839.3" width="100.3" height="24.7" fill="url(#bevelr1x4278)" stroke="#ccccff" stroke-width="1" filter="url(#skr1x4278)"/><rect x="505.3"  y="837.6" width="100.3" height="24.7" fill="url(#bevelr1x4278)" stroke="#ccccff" stroke-width="1" filter="url(#skr1x4278)"/><polygon points="368.9,875.7 497.4,879.0 504.1,921.5 363.5,921.8" fill="#242438" stroke="#ccccff" stroke-width="2" filter="url(#skr1x4278)"/><polygon points="504.6,875.8 629.5,879.1 638.5,921.0 495.3,922.7" fill="#242438" stroke="#ccccff" stroke-width="2" filter="url(#skr1x4278)"/><polygon points="302.3,634.1 695.9,632.1 637.9,683.0 361.2,682.7" fill="#ccccff" fill-opacity=".52" stroke="#ccccff" stroke-width="2" filter="url(#skr1x4278)"/><rect x="465.0" y="639.7" width="72.0" height="42.0" fill="url(#bevelr1x4278)" stroke="#ccccff" stroke-width="1.4" filter="url(#glowr1x4278)"/><rect x="486.5" y="640.1" width="28.0" height="22.0" rx="1" fill="rgba(255,255,255,.48)"/><polygon points="153.1,466.6 233.4,467.2 257.3,735.2 129.0,733.2" fill="url(#suitr1x4278)" stroke="#ccccff" stroke-width="2.2" filter="url(#skr1x4278) url(#metalr1x4278)"/><polygon points="174.1,431.6 254.5,433.2 243.1,509.5 160.7,510.3" fill="url(#bevelr1x4278)" fill-opacity=".72" stroke="#ccccff" stroke-width="2.2" filter="url(#skr1x4278)"/><polygon points="162.8,621.4 244.9,622.2 239.3,660.1 164.8,661.2" fill="#ccccff" fill-opacity=".42" stroke="#ccccff" stroke-width="1" filter="url(#skr1x4278)"/><polygon points="763.2,468.3 848.5,467.2 871.1,735.4 743.5,735.8" fill="url(#suitr1x4278)" stroke="#ccccff" stroke-width="2.2" filter="url(#skr1x4278) url(#metalr1x4278)"/><polygon points="746.6,431.8 827.6,433.2 842.0,510.4 758.5,511.0" fill="url(#bevelr1x4278)" fill-opacity=".72" stroke="#ccccff" stroke-width="2.2" filter="url(#skr1x4278)"/><polygon points="756.9,621.8 839.7,620.7 833.5,659.8 760.2,660.8" fill="#ccccff" fill-opacity=".42" stroke="#ccccff" stroke-width="1" filter="url(#skr1x4278)"/><rect x="121.6"  y="699.2" width="135.3" height="85.0" rx="4" fill="url(#bevelr1x4278)" stroke="#ccccff" stroke-width="1.8" filter="url(#skr1x4278)"/><rect x="747.2"   y="698.9" width="135.3" height="85.0" rx="4" fill="url(#bevelr1x4278)" stroke="#ccccff" stroke-width="1.8" filter="url(#skr1x4278)"/><line x1="148.2" y1="700.8" x2="150.8" y2="784.4" stroke="#ccccff" stroke-opacity=".38" stroke-width="1"/><line x1="776.5" y1="703.4" x2="779.0" y2="785.4" stroke="#ccccff" stroke-opacity=".38" stroke-width="1"/><line x1="181.7" y1="700.6" x2="180.8" y2="782.4" stroke="#ccccff" stroke-opacity=".38" stroke-width="1"/><line x1="811.4" y1="703.1" x2="809.6" y2="783.7" stroke="#ccccff" stroke-opacity=".38" stroke-width="1"/><line x1="215.7" y1="702.7" x2="215.7" y2="783.4" stroke="#ccccff" stroke-opacity=".38" stroke-width="1"/><line x1="843.1" y1="700.9" x2="844.0" y2="784.4" stroke="#ccccff" stroke-opacity=".38" stroke-width="1"/><polygon points="235.5,416.7 765.9,418.1 722.7,664.1 279.2,662.7" fill="url(#suitr1x4278)" stroke="#ccccff" stroke-width="2.6" filter="url(#skr1x4278) url(#metalr1x4278)"/><polygon points="236.5,419.1 766.7,418.1 722.2,661.0 278.9,662.4" fill="url(#carbonr1x4278)"/><polygon points="368.3,418.9 633.6,417.5 610.3,516.2 387.2,517.0" fill="url(#suitHir1x4278)"/><line x1="360.9" y1="470.2" x2="639.0" y2="471.8" stroke="#ccccff" stroke-opacity=".52" stroke-width="1.3" filter="url(#skr1x4278)"/><line x1="399.2" y1="548.3" x2="599.4" y2="551.2" stroke="#ccccff" stroke-opacity=".52" stroke-width="1.3" filter="url(#skr1x4278)"/><line x1="266.3" y1="491.1" x2="320.2" y2="491.7" stroke="#ccccff" stroke-opacity=".62" stroke-width="1.8"/><line x1="679.8" y1="491.7" x2="733.7" y2="491.3" stroke="#ccccff" stroke-opacity=".62" stroke-width="1.8"/><line x1="267.5" y1="523.6" x2="320.0" y2="522.6" stroke="#ccccff" stroke-opacity=".62" stroke-width="1.8"/><line x1="680.9" y1="522.1" x2="734.8" y2="522.7" stroke="#ccccff" stroke-opacity=".62" stroke-width="1.8"/><line x1="267.6" y1="553.1" x2="319.5" y2="553.1" stroke="#ccccff" stroke-opacity=".62" stroke-width="1.8"/><line x1="680.6" y1="553.0" x2="733.4" y2="554.2" stroke="#ccccff" stroke-opacity=".62" stroke-width="1.8"/><line x1="268.4" y1="585.9" x2="318.5" y2="585.9" stroke="#ccccff" stroke-opacity=".62" stroke-width="1.8"/><line x1="681.1" y1="587.1" x2="731.5" y2="587.1" stroke="#ccccff" stroke-opacity=".62" stroke-width="1.8"/><g filter="url(#glowr1x4278)"><circle cx="499.8" cy="500.0" r="31.3" fill="#ccccff" stroke="#0a0520" stroke-width="1.4" filter="url(#skr1x4278)"/><circle cx="488.8" cy="497.7" r="7.0" fill="#0a0520"/><circle cx="512.5" cy="496.6" r="7.0" fill="#0a0520"/><rect x="484.0" y="522.9" width="9.3" height="17.4" rx="1" fill="#ccccff" stroke="#0a0520" stroke-width=".6"/><rect x="496.0" y="521.3" width="9.3" height="17.4" rx="1" fill="#ccccff" stroke="#0a0520" stroke-width=".6"/><rect x="506.9" y="521.7" width="9.3" height="17.4" rx="1" fill="#ccccff" stroke="#0a0520" stroke-width=".6"/></g><g><polygon points="871.8,671.4 923.8,671.4 908.2,-28.6 887.4,-28.6" fill="url(#blader1x4278)" filter="url(#wmr1x4278)"/><polygon points="887.4,-28.6 908.2,-28.6 897.8,-138.6" fill="url(#blader1x4278)" filter="url(#wmr1x4278)"/><polygon points="896.0,671.4 899.7,671.4 898.4,-128.6 897.3,-128.6" fill="url(#bladeTipr1x4278)" opacity=".9"/><line x1="908.5010095076636" y1="670.8369070138782" x2="900.2043376710452" y2="-127.43753627827394" stroke="rgba(255,255,255,.68)" stroke-width="1.5"/><line x1="889.4043867424317" y1="670.5190742469392" x2="898.5445841703564" y2="-129.8649769556709" stroke="#ccccff" stroke-width="1" stroke-opacity=".45"/><line x1="902.5" y1="651.4" x2="899.7" y2="11.4" stroke="rgba(0,0,0,.38)" stroke-width="1.6"/><line x1="893.2" y1="651.4" x2="896.0" y2="11.4" stroke="rgba(0,0,0,.38)" stroke-width="1.6"/><rect x="842.4952778772079" y="669.4347646340727" width="112.0" height="28.0" rx="3" fill="url(#bevelr1x4278)" stroke="#ccccff" stroke-width="1.6" filter="url(#wmr1x4278)"/><rect x="866.4795876015537" y="672.3008399406448" width="64.0" height="10.0" rx="1" fill="rgba(255,255,255,.32)"/><rect x="885.3430789073557" y="678.2524545368739" width="24.0" height="6.0" rx="1" fill="#ccccff" fill-opacity=".35"/><rect x="884.8521660995298" y="683.6214722616597" width="24.0" height="6.0" rx="1" fill="#ccccff" fill-opacity=".35"/><rect x="885.4303982000425" y="692.972286334727" width="24.0" height="6.0" rx="1" fill="#ccccff" fill-opacity=".35"/><rect x="884.7571170232818" y="701.0326284871436" width="24.0" height="6.0" rx="1" fill="#ccccff" fill-opacity=".35"/><rect x="884.2343222771399" y="709.7762140225619" width="24.0" height="6.0" rx="1" fill="#ccccff" fill-opacity=".35"/><rect x="886.9071115005389" y="716.5286632346921" width="24.0" height="6.0" rx="1" fill="#ccccff" fill-opacity=".35"/><ellipse cx="896.2061482254044" cy="727.9604051343165" rx="22.0" ry="16.0" fill="url(#bevelr1x4278)" stroke="#ccccff" stroke-width="1.2" filter="url(#wmr1x4278)"/></g><rect x="450.9297763916664" y="555.1554501686245" width="100.0"  height="56.0" fill="#242438" stroke="#ccccff" stroke-width="2.2" filter="url(#skr1x4278)"/><rect x="424.2512111801654" y="575.9787407365628" width="152.0" height="26.0" fill="url(#bevelr1x4278)" fill-opacity=".65" stroke="#ccccff" stroke-width="1.2" filter="url(#skr1x4278)"/><polygon points="306.3,380.6 349.4,294.5 498.5,279.8 650.0,293.5 690.4,379.5 668.1,505.0 499.5,563.5 329.6,502.6" fill="url(#suitr1x4278)" stroke="#ccccff" stroke-width="2.8" filter="url(#skr1x4278) url(#metalr1x4278)"/><polygon points="308.2,378.9 351.2,296.1 498.9,279.4 651.2,294.0 693.8,379.6 668.3,502.1 498.9,564.5 332.7,503.9" fill="url(#carbonr1x4278)"/><polygon points="382.6,303.6 501.5,285.9 618.1,304.2 606.3,379.6 390.7,381.0" fill="url(#suitHir1x4278)"/><polygon points="379.4,382.3 367.2,424.9 431.9,504.3 501.2,529.9 568.1,504.0 633.4,424.9 620.7,381.0" fill="#0a0520" fill-opacity=".88" stroke="#ccccff" stroke-width="1.8" filter="url(#skr1x4278)"/><polygon points="381.3,411.6 475.6,412.3 485.3,438.6 390.0,440.2" fill="#ccccff" filter="url(#glowr1x4278)"/><polygon points="522.0,411.4 619.5,410.0 611.4,439.4 517.0,441.5" fill="#ccccff" filter="url(#glowr1x4278)"/><ellipse cx="430.9" cy="425.7" rx="38.4"  ry="8.2" fill="#ffffff" opacity=".88"/><ellipse cx="569.1" cy="425.7" rx="38.4"  ry="8.2" fill="#ffffff" opacity=".88"/><line x1="484.95380709474904" y1="415.0540647014044" x2="517.1063208126835" y2="413.6673244276084" stroke="#ccccff" stroke-opacity=".52" stroke-width="2"/><line x1="483.79711345840246" y1="439.1665319991298" x2="514.6113746340759" y2="438.5501881795004" stroke="#ccccff" stroke-opacity=".52" stroke-width="2"/><line x1="500.95897694909945" y1="455.81426464254037" x2="501.1490291779861" y2="483.23043312625964" stroke="#ccccff" stroke-opacity=".58" stroke-width="2.2" filter="url(#skr1x4278)"/><line x1="454.6928471256793" y1="492.2409628771245" x2="453.8376340290345" y2="521.4613792917692" stroke="#ccccff" stroke-opacity=".52" stroke-width="1.5" filter="url(#skr1x4278)"/><line x1="475.3534615361504" y1="493.07309733126306" x2="478.6085237931832" y2="521.0422949299216" stroke="#ccccff" stroke-opacity=".52" stroke-width="1.5" filter="url(#skr1x4278)"/><line x1="501.30587746724484" y1="492.3109290762804" x2="501.0762340680696" y2="520.4975447908976" stroke="#ccccff" stroke-opacity=".52" stroke-width="1.5" filter="url(#skr1x4278)"/><line x1="524.4556187859364" y1="489.81800277708095" x2="521.7794785061478" y2="521.1324437460862" stroke="#ccccff" stroke-opacity=".52" stroke-width="1.5" filter="url(#skr1x4278)"/><line x1="545.0851993818022" y1="491.3529798046685" x2="546.6789462240599" y2="521.7133491246962" stroke="#ccccff" stroke-opacity=".52" stroke-width="1.5" filter="url(#skr1x4278)"/><polygon points="432.2,504.6 568.4,502.1 555.5,555.9 447.0,557.2" fill="#242438" fill-opacity=".72" stroke="#ccccff" stroke-width="1.3" filter="url(#skr1x4278)"/><text x="30.0"  y="975.0" font-family="monospace" font-weight="bold" font-size="22.0" fill="rgba(255,255,255,.22)">#0001</text><text x="500.0"   y="975.0" text-anchor="middle" font-family="monospace" font-weight="bold" font-size="22.0" fill="#ccccff" fill-opacity=".48">PHANTOM RANGER</text><text x="970.0" y="975.0" text-anchor="end"    font-family="monospace" font-weight="bold" font-size="22.0" fill="#ccccff" fill-opacity=".32">MECH RANGERS</text></svg>