<svg xmlns="http://www.w3.org/2000/svg" viewBox="0 0 1000 1000" width="1000" height="1000" shape-rendering="geometricPrecision"><defs>

  <!-- Scene gradients -->
  <radialGradient id="bgr1x4346" cx="50%" cy="42%" r="72%">
    <stop offset="0%"   stop-color="#0a0a14"/>
    <stop offset="100%" stop-color="#050508"/>
  </radialGradient>
  <linearGradient id="suitr1x4346" x1="8%" y1="0%" x2="92%" y2="100%">
    <stop offset="0%"   stop-color="#00ff60" stop-opacity=".95"/>
    <stop offset="45%"  stop-color="#00441e"/>
    <stop offset="100%" stop-color="#050508"/>
  </linearGradient>
  <linearGradient id="suitHir1x4346" x1="0%" y1="0%" x2="0%" y2="100%">
    <stop offset="0%"   stop-color="rgba(255,255,255,.28)"/>
    <stop offset="60%"  stop-color="rgba(255,255,255,.04)"/>
    <stop offset="100%" stop-color="rgba(255,255,255,0)"/>
  </linearGradient>
  <!-- Bevel: bright top, dark bottom for armour panels -->
  <linearGradient id="bevelr1x4346" x1="0%" y1="0%" x2="0%" y2="100%">
    <stop offset="0%"   stop-color="rgba(255,255,255,.55)"/>
    <stop offset="30%"  stop-color="#00ff60"/>
    <stop offset="70%"  stop-color="#00441e"/>
    <stop offset="100%" stop-color="rgba(0,0,0,.5)"/>
  </linearGradient>

  <!-- Weapon: cold steel blade sweep -->
  <linearGradient id="blader1x4346" x1="0%" y1="0%" x2="100%" y2="0%">
    <stop offset="0%"   stop-color="#0e0e20"/>
    <stop offset="16%"  stop-color="#3e3e58"/>
    <stop offset="34%"  stop-color="#c8c8e0"/>
    <stop offset="50%"  stop-color="#f5f5ff"/>
    <stop offset="66%"  stop-color="#b8b8d0"/>
    <stop offset="84%"  stop-color="#2e2e48"/>
    <stop offset="100%" stop-color="#08080e"/>
  </linearGradient>
  <!-- Blade tip brightening -->
  <linearGradient id="bladeTipr1x4346" x1="0%" y1="100%" x2="0%" y2="0%">
    <stop offset="0%"   stop-color="rgba(255,255,255,0)"/>
    <stop offset="55%"  stop-color="rgba(255,255,255,.1)"/>
    <stop offset="100%" stop-color="rgba(255,255,255,.55)"/>
  </linearGradient>
  <!-- Gunmetal anodised — blaster body -->
  <linearGradient id="gunmetalr1x4346" x1="0%" y1="0%" x2="0%" y2="100%">
    <stop offset="0%"   stop-color="#46465e"/>
    <stop offset="18%"  stop-color="#828296"/>
    <stop offset="42%"  stop-color="#26263a"/>
    <stop offset="72%"  stop-color="#16162a"/>
    <stop offset="100%" stop-color="#0c0c18"/>
  </linearGradient>
  <!-- Brushed steel tube — barrel/rod -->
  <linearGradient id="barrelr1x4346" x1="0%" y1="0%" x2="100%" y2="0%">
    <stop offset="0%"   stop-color="#0a0a14"/>
    <stop offset="24%"  stop-color="#585875"/>
    <stop offset="50%"  stop-color="#a8a8c8"/>
    <stop offset="76%"  stop-color="#383852"/>
    <stop offset="100%" stop-color="#0a0a14"/>
  </linearGradient>
  <!-- Chrome rod — lance shaft -->
  <linearGradient id="chromer1x4346" x1="0%" y1="0%" x2="100%" y2="0%">
    <stop offset="0%"   stop-color="#0c0c18"/>
    <stop offset="20%"  stop-color="#686888"/>
    <stop offset="44%"  stop-color="#e0e0f0"/>
    <stop offset="56%"  stop-color="#c0c0d8"/>
    <stop offset="80%"  stop-color="#28283e"/>
    <stop offset="100%" stop-color="#0c0c18"/>
  </linearGradient>
  <!-- Titanium plate — shield face -->
  <linearGradient id="titaniumr1x4346" x1="0%" y1="0%" x2="100%" y2="100%">
    <stop offset="0%"   stop-color="#585878"/>
    <stop offset="28%"  stop-color="#00ff60" stop-opacity=".88"/>
    <stop offset="55%"  stop-color="#00441e"/>
    <stop offset="80%"  stop-color="#181828"/>
    <stop offset="100%" stop-color="#0a0a18"/>
  </linearGradient>
  <!-- Artillery black-chrome — cannon body -->
  <linearGradient id="artilleryr1x4346" x1="0%" y1="0%" x2="0%" y2="100%">
    <stop offset="0%"   stop-color="#383850"/>
    <stop offset="14%"  stop-color="#78789a"/>
    <stop offset="36%"  stop-color="#202034"/>
    <stop offset="65%"  stop-color="#14141e"/>
    <stop offset="100%" stop-color="#0a0a12"/>
  </linearGradient>
  <!-- Energy orb — staff -->
  <radialGradient id="orbr1x4346" cx="35%" cy="35%" r="65%">
    <stop offset="0%"   stop-color="rgba(255,255,255,.9)"/>
    <stop offset="30%"  stop-color="#00ff60"/>
    <stop offset="68%"  stop-color="#00441e"/>
    <stop offset="100%" stop-color="rgba(0,0,0,.6)"/>
  </radialGradient>
  <!-- Knuckle plate chrome -->
  <linearGradient id="knuckler1x4346" x1="0%" y1="0%" x2="0%" y2="100%">
    <stop offset="0%"   stop-color="#888aaa"/>
    <stop offset="32%"  stop-color="#00ff60" stop-opacity=".8"/>
    <stop offset="62%"  stop-color="#1a1a2c"/>
    <stop offset="100%" stop-color="#0a0a14"/>
  </linearGradient>

  <!-- Carbon fibre weave texture overlay -->
  <pattern id="carbonr1x4346" width="6" height="6" patternUnits="userSpaceOnUse">
    <rect width="6" height="6" fill="rgba(0,0,0,.08)"/>
    <rect x="0" y="0" width="3" height="3" fill="rgba(255,255,255,.022)"/>
    <rect x="3" y="3" width="3" height="3" fill="rgba(255,255,255,.022)"/>
    <line x1="0" y1="0" x2="3" y2="3" stroke="rgba(255,255,255,.038)" stroke-width=".5"/>
    <line x1="3" y1="0" x2="6" y2="3" stroke="rgba(0,0,0,.055)"       stroke-width=".5"/>
    <line x1="0" y1="3" x2="3" y2="6" stroke="rgba(0,0,0,.055)"       stroke-width=".5"/>
    <line x1="3" y1="3" x2="6" y2="6" stroke="rgba(255,255,255,.038)" stroke-width=".5"/>
  </pattern>

  <!-- Specular metal sheen on armour panels -->
  <filter id="metalr1x4346" x="-5%" y="-5%" width="110%" height="110%">
    <feSpecularLighting surfaceScale="4" specularConstant="1.8"
        specularExponent="42" lighting-color="#ffffff" result="spec">
      <feDistantLight elevation="52" azimuth="38"/>
    </feSpecularLighting>
    <feComposite in="spec" in2="SourceGraphic" operator="in" result="sm"/>
    <feComposite in="SourceGraphic" in2="sm" operator="arithmetic" k1="0" k2="1" k3="0.55" k4="0"/>
  </filter>

  <!-- Sharper specular for weapons — heavier glare -->
  <filter id="wmr1x4346" x="-8%" y="-8%" width="116%" height="116%">
    <feSpecularLighting surfaceScale="6" specularConstant="2.4"
        specularExponent="65" lighting-color="#ffffff" result="spec">
      <feDistantLight elevation="44" azimuth="28"/>
    </feSpecularLighting>
    <feComposite in="spec" in2="SourceGraphic" operator="in" result="sm"/>
    <feComposite in="SourceGraphic" in2="sm" operator="arithmetic" k1="0" k2="1" k3="0.78" k4="0"/>
  </filter>

  <!-- Sketch wobble -->
  <filter id="skr1x4346" x="-8%" y="-8%" width="116%" height="116%">
    <feTurbulence type="fractalNoise" baseFrequency="0.038"
        numOctaves="3" seed="11" result="noise"/>
    <feDisplacementMap in="SourceGraphic" in2="noise" scale="2.6"
        xChannelSelector="R" yChannelSelector="G" result="w"/>
    <feComposite in="w" in2="SourceGraphic" operator="atop"/>
  </filter>

  <!-- Glow: sharp accent -->
  <filter id="glowr1x4346" x="-20%" y="-20%" width="140%" height="140%">
    <feGaussianBlur stdDeviation="3.5" result="b"/>
    <feColorMatrix in="b" type="matrix"
        values="0 0 0 0 1  0 0 0 0 1  0 0 0 0 1  0 0 0 1.8 0" result="boost"/>
    <feMerge><feMergeNode in="boost"/><feMergeNode in="SourceGraphic"/></feMerge>
  </filter>

  <!-- Bloom: wide soft -->
  <filter id="bloomr1x4346" x="-40%" y="-40%" width="180%" height="180%">
    <feGaussianBlur stdDeviation="11" result="b"/>
    <feMerge><feMergeNode in="b"/><feMergeNode in="SourceGraphic"/></feMerge>
  </filter>

  </defs><rect width="1000" height="1000" fill="url(#bgr1x4346)"/><ellipse cx="500.0" cy="892.0" rx="350.0" ry="65.0" fill="rgba(0,0,0,.7)" filter="url(#bloomr1x4346)"/><ellipse cx="500.0" cy="889.0" rx="220.0" ry="34.0" fill="rgba(0,0,0,.45)"/><ellipse cx="500.0" cy="520.0" rx="320.0" ry="480.0" fill="#ff6600" fill-opacity=".042" filter="url(#bloomr1x4346)"/><circle cx="358.9" cy="403.3" r="3.1" fill="#ff6600" fill-opacity="0.77" filter="url(#glowr1x4346)"/><circle cx="495.1" cy="273.1" r="1.1" fill="#ff6600" fill-opacity="0.75" filter="url(#glowr1x4346)"/><circle cx="417.7" cy="709.8" r="1.0" fill="#ff6600" fill-opacity="0.77" filter="url(#glowr1x4346)"/><circle cx="659.1" cy="791.9" r="2.1" fill="#ff6600" fill-opacity="0.62" filter="url(#glowr1x4346)"/><circle cx="452.4" cy="728.8" r="3.6" fill="#ff6600" fill-opacity="0.48" filter="url(#glowr1x4346)"/><circle cx="290.7" cy="370.1" r="3.0" fill="#ff6600" fill-opacity="0.49" filter="url(#glowr1x4346)"/><circle cx="426.7" cy="672.5" r="2.8" fill="#ff6600" fill-opacity="0.83" filter="url(#glowr1x4346)"/><circle cx="256.3" cy="443.4" r="2.0" fill="#ff6600" fill-opacity="0.72" filter="url(#glowr1x4346)"/><circle cx="297.1" cy="396.6" r="1.5" fill="#ff6600" fill-opacity="0.69" filter="url(#glowr1x4346)"/><circle cx="515.6" cy="699.5" r="3.0" fill="#ff6600" fill-opacity="0.55" filter="url(#glowr1x4346)"/><circle cx="252.1" cy="270.4" r="3.8" fill="#ff6600" fill-opacity="0.46" filter="url(#glowr1x4346)"/><circle cx="266.4" cy="573.4" r="2.1" fill="#ff6600" fill-opacity="0.80" filter="url(#glowr1x4346)"/><circle cx="491.1" cy="208.3" r="4.0" fill="#ff6600" fill-opacity="0.67" filter="url(#glowr1x4346)"/><circle cx="728.2" cy="408.0" r="1.4" fill="#ff6600" fill-opacity="0.82" filter="url(#glowr1x4346)"/><polygon points="397.7,662.8 488.1,661.9 480.5,877.3 389.0,878.3" fill="url(#suitr1x4346)" stroke="#00ff60" stroke-width="2.2" filter="url(#skr1x4346) url(#metalr1x4346)"/><polygon points="397.2,660.9 488.1,664.3 480.3,878.8 387.6,878.6" fill="url(#carbonr1x4346)"/><polygon points="393.4,723.0 491.3,722.2 485.4,788.1 384.5,789.6" fill="url(#bevelr1x4346)" fill-opacity=".5" stroke="#00ff60" stroke-width="1.4" filter="url(#skr1x4346)"/><polygon points="511.4,663.5 599.8,662.5 613.2,876.9 518.9,878.4" fill="url(#suitr1x4346)" stroke="#00ff60" stroke-width="2.2" filter="url(#skr1x4346) url(#metalr1x4346)"/><polygon points="509.4,661.7 600.1,663.4 613.2,878.7 520.4,878.6" fill="url(#carbonr1x4346)"/><polygon points="505.8,724.5 606.0,723.6 617.6,786.7 514.3,789.3" fill="url(#bevelr1x4346)" fill-opacity=".5" stroke="#00ff60" stroke-width="1.4" filter="url(#skr1x4346)"/><rect x="394.4" y="838.5" width="100.3" height="24.7" fill="url(#bevelr1x4346)" stroke="#00ff60" stroke-width="1" filter="url(#skr1x4346)"/><rect x="505.4"  y="840.2" width="100.3" height="24.7" fill="url(#bevelr1x4346)" stroke="#00ff60" stroke-width="1" filter="url(#skr1x4346)"/><polygon points="369.5,878.0 497.7,876.2 504.0,920.2 364.1,922.1" fill="#00441e" stroke="#00ff60" stroke-width="2" filter="url(#skr1x4346)"/><polygon points="502.2,877.3 629.9,876.3 636.5,921.6 497.8,920.5" fill="#00441e" stroke="#00ff60" stroke-width="2" filter="url(#skr1x4346)"/><polygon points="302.8,632.5 697.8,634.8 638.6,683.6 362.0,683.4" fill="#00ff60" fill-opacity=".52" stroke="#00ff60" stroke-width="2" filter="url(#skr1x4346)"/><rect x="463.8" y="636.8" width="72.0" height="42.0" fill="url(#bevelr1x4346)" stroke="#00ff60" stroke-width="1.4" filter="url(#glowr1x4346)"/><rect x="485.3" y="640.5" width="28.0" height="22.0" rx="1" fill="rgba(255,255,255,.48)"/><polygon points="153.5,467.7 236.6,465.8 258.4,736.8 127.2,736.6" fill="url(#suitr1x4346)" stroke="#00ff60" stroke-width="2.2" filter="url(#skr1x4346) url(#metalr1x4346)"/><polygon points="173.8,432.5 254.4,433.6 242.2,512.2 159.0,510.5" fill="url(#bevelr1x4346)" fill-opacity=".72" stroke="#00ff60" stroke-width="2.2" filter="url(#skr1x4346)"/><polygon points="160.3,623.5 244.5,623.2 237.9,659.5 163.9,661.8" fill="#00ff60" fill-opacity=".42" stroke="#00ff60" stroke-width="1" filter="url(#skr1x4346)"/><polygon points="766.4,465.1 845.6,465.8 870.1,733.4 741.1,735.1" fill="url(#suitr1x4346)" stroke="#00ff60" stroke-width="2.2" filter="url(#skr1x4346) url(#metalr1x4346)"/><polygon points="746.7,433.3 825.2,430.7 839.6,512.1 758.1,509.7" fill="url(#bevelr1x4346)" fill-opacity=".72" stroke="#00ff60" stroke-width="2.2" filter="url(#skr1x4346)"/><polygon points="758.2,621.6 840.0,623.7 834.2,661.2 761.3,659.4" fill="#00ff60" fill-opacity=".42" stroke="#00ff60" stroke-width="1" filter="url(#skr1x4346)"/><rect x="119.4"  y="698.3" width="135.3" height="85.0" rx="4" fill="url(#bevelr1x4346)" stroke="#00ff60" stroke-width="1.8" filter="url(#skr1x4346)"/><rect x="749.8"   y="698.2" width="135.3" height="85.0" rx="4" fill="url(#bevelr1x4346)" stroke="#00ff60" stroke-width="1.8" filter="url(#skr1x4346)"/><line x1="148.4" y1="701.2" x2="150.5" y2="783.1" stroke="#00ff60" stroke-opacity=".38" stroke-width="1"/><line x1="779.2" y1="703.5" x2="779.5" y2="783.1" stroke="#00ff60" stroke-opacity=".38" stroke-width="1"/><line x1="184.1" y1="702.6" x2="183.4" y2="783.1" stroke="#00ff60" stroke-opacity=".38" stroke-width="1"/><line x1="811.2" y1="700.4" x2="809.4" y2="783.5" stroke="#00ff60" stroke-opacity=".38" stroke-width="1"/><line x1="216.1" y1="700.1" x2="215.7" y2="784.0" stroke="#00ff60" stroke-opacity=".38" stroke-width="1"/><line x1="843.0" y1="701.4" x2="842.8" y2="784.4" stroke="#00ff60" stroke-opacity=".38" stroke-width="1"/><polygon points="234.5,418.9 764.5,417.1 722.9,662.3 278.8,661.1" fill="url(#suitr1x4346)" stroke="#00ff60" stroke-width="2.6" filter="url(#skr1x4346) url(#metalr1x4346)"/><polygon points="236.7,418.9 765.8,418.6 722.5,664.2 278.3,663.2" fill="url(#carbonr1x4346)"/><polygon points="368.4,416.5 632.6,417.9 610.7,516.9 390.1,514.1" fill="url(#suitHir1x4346)"/><line x1="361.2" y1="470.1" x2="637.5" y2="473.1" stroke="#00ff60" stroke-opacity=".52" stroke-width="1.3" filter="url(#skr1x4346)"/><line x1="397.7" y1="549.2" x2="599.4" y2="551.3" stroke="#00ff60" stroke-opacity=".52" stroke-width="1.3" filter="url(#skr1x4346)"/><line x1="268.5" y1="490.0" x2="319.4" y2="491.0" stroke="#00ff60" stroke-opacity=".62" stroke-width="1.8"/><line x1="679.9" y1="492.1" x2="733.2" y2="491.6" stroke="#00ff60" stroke-opacity=".62" stroke-width="1.8"/><line x1="267.8" y1="522.9" x2="320.8" y2="523.1" stroke="#00ff60" stroke-opacity=".62" stroke-width="1.8"/><line x1="680.3" y1="522.5" x2="734.2" y2="521.8" stroke="#00ff60" stroke-opacity=".62" stroke-width="1.8"/><line x1="265.0" y1="553.7" x2="318.6" y2="553.3" stroke="#00ff60" stroke-opacity=".62" stroke-width="1.8"/><line x1="681.2" y1="553.4" x2="732.1" y2="553.5" stroke="#00ff60" stroke-opacity=".62" stroke-width="1.8"/><line x1="266.0" y1="588.1" x2="319.6" y2="585.4" stroke="#00ff60" stroke-opacity=".62" stroke-width="1.8"/><line x1="680.2" y1="585.0" x2="733.5" y2="587.4" stroke="#00ff60" stroke-opacity=".62" stroke-width="1.8"/><g filter="url(#glowr1x4346)"><path d="M500.0,449.7 C462.3,446.8 442.0,481.6 447.8,513.5 L459.4,542.5 C476.8,536.7 491.3,551.2 500.0,551.2 C508.7,551.2 523.2,536.7 540.6,542.5 L552.2,513.5 C558.0,481.6 537.7,446.8 500.0,449.7 Z" fill="#00ff60" fill-opacity=".92" stroke="#050508" stroke-width="1.3" filter="url(#skr1x4346)"/><path d="M483.8,519.3 Q500.0,533.8 516.2,519.3" stroke="#050508" stroke-width="1" fill="none" opacity=".58"/><ellipse cx="481.4" cy="497.8" rx="8.7" ry="6.4" fill="#050508" opacity=".95"/><ellipse cx="518.6" cy="497.8" rx="8.7" ry="6.4" fill="#050508" opacity=".95"/><ellipse cx="481.4" cy="497.8" rx="2.3" ry="5.8" fill="#00ff60"/><ellipse cx="518.6" cy="497.8" rx="2.3" ry="5.8" fill="#00ff60"/><path d="M471.0,467.1 L458.2,426.5 L481.4,463.0" fill="#00ff60" stroke="#050508" stroke-width=".9"/><path d="M529.0,467.1 L541.8,426.5 L518.6,463.0" fill="#00ff60" stroke="#050508" stroke-width=".9"/><path d="M476.8,452.6 C488.4,449.1 511.6,449.1 523.2,452.6" fill="rgba(255,255,255,.18)"/></g><g><line x1="101.49158076209945" y1="791.7000066348352" x2="85.26639874404293" y2="110.27923264736307" stroke="url(#chromer1x4346)" stroke-width="28.0" stroke-linecap="round" filter="url(#wmr1x4346)"/><line x1="97.80842868130651" y1="772.3876156264915" x2="88.70877410465849" y2="129.61527573773634" stroke="rgba(255,255,255,.42)" stroke-width="5.0" stroke-linecap="round"/><polygon points="75.0,150.3 141.5,150.3 82.9,-10.4" fill="url(#blader1x4346)" stroke="#00ff60" stroke-width="1.8" filter="url(#wmr1x4346)"/><line x1="140.2" y1="151.4" x2="84.2" y2="-8.6" stroke="rgba(255,255,255,.72)" stroke-width="1.6"/><rect x="82.5115412829816" y="421.9281167861074" width="40.0" height="20.0" fill="url(#bevelr1x4346)" stroke="#00ff60" stroke-width="1" filter="url(#wmr1x4346)"/><rect x="83.55954854864623" y="510.00007557841013" width="40.0" height="20.0" fill="url(#bevelr1x4346)" stroke="#00ff60" stroke-width="1" filter="url(#wmr1x4346)"/><rect x="82.87429200181734" y="601.9283423473127" width="40.0" height="20.0" fill="url(#bevelr1x4346)" stroke="#00ff60" stroke-width="1" filter="url(#wmr1x4346)"/><rect x="84.58535394653674" y="690.2414940796792" width="40.0" height="20.0" fill="url(#bevelr1x4346)" stroke="#00ff60" stroke-width="1" filter="url(#wmr1x4346)"/><ellipse cx="101.9823136624321" cy="793.036186835356" rx="22.0" ry="15.0" fill="url(#bevelr1x4346)" stroke="#00ff60" stroke-width="1" filter="url(#wmr1x4346)"/></g><rect x="449.0122968974523" y="557.9578909326344" width="100.0"  height="56.0" fill="#00441e" stroke="#00ff60" stroke-width="2.2" filter="url(#skr1x4346)"/><rect x="424.4784070812166" y="576.426775131654" width="152.0" height="26.0" fill="url(#bevelr1x4346)" fill-opacity=".65" stroke="#00ff60" stroke-width="1.2" filter="url(#skr1x4346)"/><polygon points="307.1,381.2 349.9,295.2 500.7,277.1 649.3,296.3 692.5,379.7 667.6,502.0 499.8,563.9 331.5,504.1" fill="url(#suitr1x4346)" stroke="#00ff60" stroke-width="2.8" filter="url(#skr1x4346) url(#metalr1x4346)"/><polygon points="308.8,381.6 349.0,294.2 498.9,279.8 648.0,295.9 691.1,382.1 667.5,505.0 501.2,566.8 329.5,504.4" fill="url(#carbonr1x4346)"/><polygon points="380.0,304.2 499.7,284.7 619.0,303.0 607.1,379.1 394.1,381.8" fill="url(#suitHir1x4346)"/><polygon points="381.7,380.7 367.4,424.3 432.6,502.0 500.2,529.0 565.7,502.9 635.9,426.4 620.7,380.7" fill="#050508" fill-opacity=".88" stroke="#00ff60" stroke-width="1.8" filter="url(#skr1x4346)"/><polygon points="381.3,411.4 476.8,410.0 485.6,439.6 388.7,439.0" fill="#00ff60" filter="url(#glowr1x4346)"/><polygon points="523.3,412.6 620.0,412.2 610.6,439.0 513.6,438.7" fill="#00ff60" filter="url(#glowr1x4346)"/><ellipse cx="430.9" cy="425.7" rx="38.4"  ry="8.2" fill="#ffffff" opacity=".88"/><ellipse cx="569.1" cy="425.7" rx="38.4"  ry="8.2" fill="#ffffff" opacity=".88"/><line x1="485.3917133168876" y1="413.80393740283324" x2="517.0466607720033" y2="415.16237764321266" stroke="#00ff60" stroke-opacity=".52" stroke-width="2"/><line x1="484.07957807160915" y1="438.7329044116661" x2="515.534098096788" y2="437.16951762652025" stroke="#00ff60" stroke-opacity=".52" stroke-width="2"/><line x1="501.6353111578152" y1="456.112362038251" x2="498.9806226635352" y2="483.70979308402167" stroke="#00ff60" stroke-opacity=".58" stroke-width="2.2" filter="url(#skr1x4346)"/><line x1="454.2580721235648" y1="491.2598375770263" x2="452.85320498252287" y2="520.3522848440334" stroke="#00ff60" stroke-opacity=".52" stroke-width="1.5" filter="url(#skr1x4346)"/><line x1="477.0317370991595" y1="491.8585447877645" x2="476.3290403540619" y2="521.5183763573878" stroke="#00ff60" stroke-opacity=".52" stroke-width="1.5" filter="url(#skr1x4346)"/><line x1="499.89135742224755" y1="490.68177494266996" x2="501.3125945392065" y2="520.4730713678524" stroke="#00ff60" stroke-opacity=".52" stroke-width="1.5" filter="url(#skr1x4346)"/><line x1="521.5259607444144" y1="489.95668894061816" x2="521.3131657383963" y2="518.556155386474" stroke="#00ff60" stroke-opacity=".52" stroke-width="1.5" filter="url(#skr1x4346)"/><line x1="544.9720511312784" y1="491.2276182184927" x2="545.1071416486242" y2="521.0396664103494" stroke="#00ff60" stroke-opacity=".52" stroke-width="1.5" filter="url(#skr1x4346)"/><polygon points="431.3,505.2 566.8,502.5 555.3,557.5 445.1,557.8" fill="#00441e" fill-opacity=".72" stroke="#00ff60" stroke-width="1.3" filter="url(#skr1x4346)"/><text x="30.0"  y="975.0" font-family="monospace" font-weight="bold" font-size="22.0" fill="rgba(255,255,255,.22)">#0001</text><text x="500.0"   y="975.0" text-anchor="middle" font-family="monospace" font-weight="bold" font-size="22.0" fill="#00ff60" fill-opacity=".48">VIPER RANGER</text><text x="970.0" y="975.0" text-anchor="end"    font-family="monospace" font-weight="bold" font-size="22.0" fill="#00ff60" fill-opacity=".32">MECH RANGERS</text></svg>