<svg xmlns="http://www.w3.org/2000/svg" viewBox="0 0 1000 1000" width="1000" height="1000" shape-rendering="geometricPrecision"><defs>

  <!-- Scene gradients -->
  <radialGradient id="bgr1x4379" cx="50%" cy="42%" r="72%">
    <stop offset="0%"   stop-color="#1e0a2e"/>
    <stop offset="100%" stop-color="#0a0520"/>
  </radialGradient>
  <linearGradient id="suitr1x4379" x1="8%" y1="0%" x2="92%" y2="100%">
    <stop offset="0%"   stop-color="#00ff60" stop-opacity=".95"/>
    <stop offset="45%"  stop-color="#00441e"/>
    <stop offset="100%" stop-color="#0a0520"/>
  </linearGradient>
  <linearGradient id="suitHir1x4379" x1="0%" y1="0%" x2="0%" y2="100%">
    <stop offset="0%"   stop-color="rgba(255,255,255,.28)"/>
    <stop offset="60%"  stop-color="rgba(255,255,255,.04)"/>
    <stop offset="100%" stop-color="rgba(255,255,255,0)"/>
  </linearGradient>
  <!-- Bevel: bright top, dark bottom for armour panels -->
  <linearGradient id="bevelr1x4379" x1="0%" y1="0%" x2="0%" y2="100%">
    <stop offset="0%"   stop-color="rgba(255,255,255,.55)"/>
    <stop offset="30%"  stop-color="#00ff60"/>
    <stop offset="70%"  stop-color="#00441e"/>
    <stop offset="100%" stop-color="rgba(0,0,0,.5)"/>
  </linearGradient>

  <!-- Weapon: cold steel blade sweep -->
  <linearGradient id="blader1x4379" x1="0%" y1="0%" x2="100%" y2="0%">
    <stop offset="0%"   stop-color="#0e0e20"/>
    <stop offset="16%"  stop-color="#3e3e58"/>
    <stop offset="34%"  stop-color="#c8c8e0"/>
    <stop offset="50%"  stop-color="#f5f5ff"/>
    <stop offset="66%"  stop-color="#b8b8d0"/>
    <stop offset="84%"  stop-color="#2e2e48"/>
    <stop offset="100%" stop-color="#08080e"/>
  </linearGradient>
  <!-- Blade tip brightening -->
  <linearGradient id="bladeTipr1x4379" x1="0%" y1="100%" x2="0%" y2="0%">
    <stop offset="0%"   stop-color="rgba(255,255,255,0)"/>
    <stop offset="55%"  stop-color="rgba(255,255,255,.1)"/>
    <stop offset="100%" stop-color="rgba(255,255,255,.55)"/>
  </linearGradient>
  <!-- Gunmetal anodised — blaster body -->
  <linearGradient id="gunmetalr1x4379" x1="0%" y1="0%" x2="0%" y2="100%">
    <stop offset="0%"   stop-color="#46465e"/>
    <stop offset="18%"  stop-color="#828296"/>
    <stop offset="42%"  stop-color="#26263a"/>
    <stop offset="72%"  stop-color="#16162a"/>
    <stop offset="100%" stop-color="#0c0c18"/>
  </linearGradient>
  <!-- Brushed steel tube — barrel/rod -->
  <linearGradient id="barrelr1x4379" x1="0%" y1="0%" x2="100%" y2="0%">
    <stop offset="0%"   stop-color="#0a0a14"/>
    <stop offset="24%"  stop-color="#585875"/>
    <stop offset="50%"  stop-color="#a8a8c8"/>
    <stop offset="76%"  stop-color="#383852"/>
    <stop offset="100%" stop-color="#0a0a14"/>
  </linearGradient>
  <!-- Chrome rod — lance shaft -->
  <linearGradient id="chromer1x4379" x1="0%" y1="0%" x2="100%" y2="0%">
    <stop offset="0%"   stop-color="#0c0c18"/>
    <stop offset="20%"  stop-color="#686888"/>
    <stop offset="44%"  stop-color="#e0e0f0"/>
    <stop offset="56%"  stop-color="#c0c0d8"/>
    <stop offset="80%"  stop-color="#28283e"/>
    <stop offset="100%" stop-color="#0c0c18"/>
  </linearGradient>
  <!-- Titanium plate — shield face -->
  <linearGradient id="titaniumr1x4379" x1="0%" y1="0%" x2="100%" y2="100%">
    <stop offset="0%"   stop-color="#585878"/>
    <stop offset="28%"  stop-color="#00ff60" stop-opacity=".88"/>
    <stop offset="55%"  stop-color="#00441e"/>
    <stop offset="80%"  stop-color="#181828"/>
    <stop offset="100%" stop-color="#0a0a18"/>
  </linearGradient>
  <!-- Artillery black-chrome — cannon body -->
  <linearGradient id="artilleryr1x4379" x1="0%" y1="0%" x2="0%" y2="100%">
    <stop offset="0%"   stop-color="#383850"/>
    <stop offset="14%"  stop-color="#78789a"/>
    <stop offset="36%"  stop-color="#202034"/>
    <stop offset="65%"  stop-color="#14141e"/>
    <stop offset="100%" stop-color="#0a0a12"/>
  </linearGradient>
  <!-- Energy orb — staff -->
  <radialGradient id="orbr1x4379" cx="35%" cy="35%" r="65%">
    <stop offset="0%"   stop-color="rgba(255,255,255,.9)"/>
    <stop offset="30%"  stop-color="#00ff60"/>
    <stop offset="68%"  stop-color="#00441e"/>
    <stop offset="100%" stop-color="rgba(0,0,0,.6)"/>
  </radialGradient>
  <!-- Knuckle plate chrome -->
  <linearGradient id="knuckler1x4379" x1="0%" y1="0%" x2="0%" y2="100%">
    <stop offset="0%"   stop-color="#888aaa"/>
    <stop offset="32%"  stop-color="#00ff60" stop-opacity=".8"/>
    <stop offset="62%"  stop-color="#1a1a2c"/>
    <stop offset="100%" stop-color="#0a0a14"/>
  </linearGradient>

  <!-- Carbon fibre weave texture overlay -->
  <pattern id="carbonr1x4379" width="6" height="6" patternUnits="userSpaceOnUse">
    <rect width="6" height="6" fill="rgba(0,0,0,.08)"/>
    <rect x="0" y="0" width="3" height="3" fill="rgba(255,255,255,.022)"/>
    <rect x="3" y="3" width="3" height="3" fill="rgba(255,255,255,.022)"/>
    <line x1="0" y1="0" x2="3" y2="3" stroke="rgba(255,255,255,.038)" stroke-width=".5"/>
    <line x1="3" y1="0" x2="6" y2="3" stroke="rgba(0,0,0,.055)"       stroke-width=".5"/>
    <line x1="0" y1="3" x2="3" y2="6" stroke="rgba(0,0,0,.055)"       stroke-width=".5"/>
    <line x1="3" y1="3" x2="6" y2="6" stroke="rgba(255,255,255,.038)" stroke-width=".5"/>
  </pattern>

  <!-- Specular metal sheen on armour panels -->
  <filter id="metalr1x4379" x="-5%" y="-5%" width="110%" height="110%">
    <feSpecularLighting surfaceScale="4" specularConstant="1.8"
        specularExponent="42" lighting-color="#ffffff" result="spec">
      <feDistantLight elevation="52" azimuth="38"/>
    </feSpecularLighting>
    <feComposite in="spec" in2="SourceGraphic" operator="in" result="sm"/>
    <feComposite in="SourceGraphic" in2="sm" operator="arithmetic" k1="0" k2="1" k3="0.55" k4="0"/>
  </filter>

  <!-- Sharper specular for weapons — heavier glare -->
  <filter id="wmr1x4379" x="-8%" y="-8%" width="116%" height="116%">
    <feSpecularLighting surfaceScale="6" specularConstant="2.4"
        specularExponent="65" lighting-color="#ffffff" result="spec">
      <feDistantLight elevation="44" azimuth="28"/>
    </feSpecularLighting>
    <feComposite in="spec" in2="SourceGraphic" operator="in" result="sm"/>
    <feComposite in="SourceGraphic" in2="sm" operator="arithmetic" k1="0" k2="1" k3="0.78" k4="0"/>
  </filter>

  <!-- Sketch wobble -->
  <filter id="skr1x4379" x="-8%" y="-8%" width="116%" height="116%">
    <feTurbulence type="fractalNoise" baseFrequency="0.038"
        numOctaves="3" seed="49" result="noise"/>
    <feDisplacementMap in="SourceGraphic" in2="noise" scale="2.6"
        xChannelSelector="R" yChannelSelector="G" result="w"/>
    <feComposite in="w" in2="SourceGraphic" operator="atop"/>
  </filter>

  <!-- Glow: sharp accent -->
  <filter id="glowr1x4379" x="-20%" y="-20%" width="140%" height="140%">
    <feGaussianBlur stdDeviation="3.5" result="b"/>
    <feColorMatrix in="b" type="matrix"
        values="0 0 0 0 1  0 0 0 0 1  0 0 0 0 1  0 0 0 1.8 0" result="boost"/>
    <feMerge><feMergeNode in="boost"/><feMergeNode in="SourceGraphic"/></feMerge>
  </filter>

  <!-- Bloom: wide soft -->
  <filter id="bloomr1x4379" x="-40%" y="-40%" width="180%" height="180%">
    <feGaussianBlur stdDeviation="11" result="b"/>
    <feMerge><feMergeNode in="b"/><feMergeNode in="SourceGraphic"/></feMerge>
  </filter>

  </defs><rect width="1000" height="1000" fill="url(#bgr1x4379)"/><ellipse cx="500.0" cy="892.0" rx="350.0" ry="65.0" fill="rgba(0,0,0,.7)" filter="url(#bloomr1x4379)"/><ellipse cx="500.0" cy="889.0" rx="220.0" ry="34.0" fill="rgba(0,0,0,.45)"/><ellipse cx="500.0" cy="520.0" rx="320.0" ry="480.0" fill="#00e5ff" fill-opacity=".042" filter="url(#bloomr1x4379)"/><circle cx="432.5" cy="483.8" r="1.7" fill="#00e5ff" fill-opacity="0.56" filter="url(#glowr1x4379)"/><circle cx="540.5" cy="301.1" r="1.4" fill="#00e5ff" fill-opacity="0.74" filter="url(#glowr1x4379)"/><circle cx="708.0" cy="224.5" r="1.2" fill="#00e5ff" fill-opacity="0.79" filter="url(#glowr1x4379)"/><circle cx="740.3" cy="210.4" r="2.6" fill="#00e5ff" fill-opacity="0.63" filter="url(#glowr1x4379)"/><circle cx="563.7" cy="584.5" r="1.8" fill="#00e5ff" fill-opacity="0.88" filter="url(#glowr1x4379)"/><circle cx="289.7" cy="672.6" r="2.3" fill="#00e5ff" fill-opacity="0.52" filter="url(#glowr1x4379)"/><circle cx="483.0" cy="271.6" r="2.9" fill="#00e5ff" fill-opacity="0.45" filter="url(#glowr1x4379)"/><circle cx="583.9" cy="416.8" r="4.2" fill="#00e5ff" fill-opacity="0.53" filter="url(#glowr1x4379)"/><circle cx="509.0" cy="328.0" r="3.3" fill="#00e5ff" fill-opacity="0.51" filter="url(#glowr1x4379)"/><circle cx="310.9" cy="529.2" r="3.5" fill="#00e5ff" fill-opacity="0.51" filter="url(#glowr1x4379)"/><circle cx="593.9" cy="724.8" r="2.7" fill="#00e5ff" fill-opacity="0.74" filter="url(#glowr1x4379)"/><circle cx="686.5" cy="446.9" r="1.8" fill="#00e5ff" fill-opacity="0.48" filter="url(#glowr1x4379)"/><circle cx="566.3" cy="552.8" r="3.0" fill="#00e5ff" fill-opacity="0.42" filter="url(#glowr1x4379)"/><circle cx="581.4" cy="615.9" r="0.7" fill="#00e5ff" fill-opacity="0.61" filter="url(#glowr1x4379)"/><path d="M338.5,312.6 Q333.0,484.9 403.0,683.4" stroke="#00e5ff" stroke-opacity="0.40" stroke-width="1.5" fill="none" filter="url(#glowr1x4379)"/><path d="M616.5,237.9 Q643.6,590.2 559.2,889.9" stroke="#00e5ff" stroke-opacity="0.49" stroke-width="1.9" fill="none" filter="url(#glowr1x4379)"/><path d="M314.5,278.9 Q319.3,538.1 655.1,748.1" stroke="#00e5ff" stroke-opacity="0.68" stroke-width="0.7" fill="none" filter="url(#glowr1x4379)"/><path d="M379.1,278.3 Q371.5,486.5 592.4,749.4" stroke="#00e5ff" stroke-opacity="0.48" stroke-width="0.9" fill="none" filter="url(#glowr1x4379)"/><path d="M305.2,269.3 Q335.5,465.1 586.0,666.8" stroke="#00e5ff" stroke-opacity="0.60" stroke-width="0.8" fill="none" filter="url(#glowr1x4379)"/><polygon points="399.0,661.0 488.1,662.5 481.1,878.5 388.6,875.9" fill="url(#suitr1x4379)" stroke="#00ff60" stroke-width="2.2" filter="url(#skr1x4379) url(#metalr1x4379)"/><polygon points="398.2,664.0 489.8,662.7 481.1,877.4 386.3,878.2" fill="url(#carbonr1x4379)"/><polygon points="392.6,722.4 492.7,723.9 483.6,789.8 385.0,786.8" fill="url(#bevelr1x4379)" fill-opacity=".5" stroke="#00ff60" stroke-width="1.4" filter="url(#skr1x4379)"/><polygon points="510.9,660.8 602.3,663.1 612.2,877.4 520.5,879.1" fill="url(#suitr1x4379)" stroke="#00ff60" stroke-width="2.2" filter="url(#skr1x4379) url(#metalr1x4379)"/><polygon points="511.4,660.9 600.2,662.5 612.6,878.8 520.0,876.9" fill="url(#carbonr1x4379)"/><polygon points="506.2,725.4 607.5,722.5 616.9,787.8 514.1,786.6" fill="url(#bevelr1x4379)" fill-opacity=".5" stroke="#00ff60" stroke-width="1.4" filter="url(#skr1x4379)"/><rect x="393.7" y="838.4" width="100.3" height="24.7" fill="url(#bevelr1x4379)" stroke="#00ff60" stroke-width="1" filter="url(#skr1x4379)"/><rect x="506.9"  y="838.4" width="100.3" height="24.7" fill="url(#bevelr1x4379)" stroke="#00ff60" stroke-width="1" filter="url(#skr1x4379)"/><polygon points="371.3,877.9 496.5,878.3 503.1,921.4 361.7,919.8" fill="#00441e" stroke="#00ff60" stroke-width="2" filter="url(#skr1x4379)"/><polygon points="503.2,876.0 628.6,878.4 637.2,922.5 497.9,922.1" fill="#00441e" stroke="#00ff60" stroke-width="2" filter="url(#skr1x4379)"/><polygon points="305.4,632.1 696.2,633.5 639.1,680.9 362.1,680.4" fill="#00ff60" fill-opacity=".52" stroke="#00ff60" stroke-width="2" filter="url(#skr1x4379)"/><rect x="463.4" y="638.3" width="72.0" height="42.0" fill="url(#bevelr1x4379)" stroke="#00ff60" stroke-width="1.4" filter="url(#glowr1x4379)"/><rect x="487.1" y="638.9" width="28.0" height="22.0" rx="1" fill="rgba(255,255,255,.48)"/><polygon points="152.7,465.7 233.3,467.9 256.4,735.0 127.3,736.4" fill="url(#suitr1x4379)" stroke="#00ff60" stroke-width="2.2" filter="url(#skr1x4379) url(#metalr1x4379)"/><polygon points="172.9,431.2 253.3,431.9 242.0,511.4 160.0,509.2" fill="url(#bevelr1x4379)" fill-opacity=".72" stroke="#00ff60" stroke-width="2.2" filter="url(#skr1x4379)"/><polygon points="160.9,622.7 242.5,621.9 237.5,661.5 165.7,659.5" fill="#00ff60" fill-opacity=".42" stroke="#00ff60" stroke-width="1" filter="url(#skr1x4379)"/><polygon points="766.7,465.8 847.1,467.7 871.8,734.1 740.9,736.4" fill="url(#suitr1x4379)" stroke="#00ff60" stroke-width="2.2" filter="url(#skr1x4379) url(#metalr1x4379)"/><polygon points="748.2,431.5 827.1,431.0 839.0,510.8 757.8,509.6" fill="url(#bevelr1x4379)" fill-opacity=".72" stroke="#00ff60" stroke-width="2.2" filter="url(#skr1x4379)"/><polygon points="757.0,622.7 840.4,620.3 835.7,660.6 759.9,660.3" fill="#00ff60" fill-opacity=".42" stroke="#00ff60" stroke-width="1" filter="url(#skr1x4379)"/><rect x="121.8"  y="701.7" width="135.3" height="85.0" rx="4" fill="url(#bevelr1x4379)" stroke="#00ff60" stroke-width="1.8" filter="url(#skr1x4379)"/><rect x="749.9"   y="700.6" width="135.3" height="85.0" rx="4" fill="url(#bevelr1x4379)" stroke="#00ff60" stroke-width="1.8" filter="url(#skr1x4379)"/><line x1="149.7" y1="702.8" x2="148.6" y2="782.3" stroke="#00ff60" stroke-opacity=".38" stroke-width="1"/><line x1="778.4" y1="702.4" x2="779.4" y2="782.9" stroke="#00ff60" stroke-opacity=".38" stroke-width="1"/><line x1="183.4" y1="703.0" x2="183.2" y2="784.6" stroke="#00ff60" stroke-opacity=".38" stroke-width="1"/><line x1="810.8" y1="700.9" x2="809.9" y2="783.7" stroke="#00ff60" stroke-opacity=".38" stroke-width="1"/><line x1="214.5" y1="702.3" x2="214.3" y2="784.4" stroke="#00ff60" stroke-opacity=".38" stroke-width="1"/><line x1="842.5" y1="700.2" x2="844.5" y2="785.4" stroke="#00ff60" stroke-opacity=".38" stroke-width="1"/><polygon points="234.5,418.4 766.8,418.7 724.1,661.0 279.0,663.4" fill="url(#suitr1x4379)" stroke="#00ff60" stroke-width="2.6" filter="url(#skr1x4379) url(#metalr1x4379)"/><polygon points="236.2,416.8 766.6,417.9 722.6,664.1 276.2,663.3" fill="url(#carbonr1x4379)"/><polygon points="368.8,416.9 632.7,418.7 611.3,516.2 388.5,516.7" fill="url(#suitHir1x4379)"/><line x1="361.2" y1="471.2" x2="637.9" y2="472.3" stroke="#00ff60" stroke-opacity=".52" stroke-width="1.3" filter="url(#skr1x4379)"/><line x1="398.6" y1="548.7" x2="602.0" y2="550.1" stroke="#00ff60" stroke-opacity=".52" stroke-width="1.3" filter="url(#skr1x4379)"/><line x1="266.4" y1="490.4" x2="320.7" y2="490.8" stroke="#00ff60" stroke-opacity=".62" stroke-width="1.8"/><line x1="681.6" y1="491.1" x2="734.5" y2="492.1" stroke="#00ff60" stroke-opacity=".62" stroke-width="1.8"/><line x1="267.2" y1="522.9" x2="320.5" y2="523.4" stroke="#00ff60" stroke-opacity=".62" stroke-width="1.8"/><line x1="680.3" y1="523.4" x2="733.8" y2="524.3" stroke="#00ff60" stroke-opacity=".62" stroke-width="1.8"/><line x1="267.9" y1="554.8" x2="321.0" y2="555.9" stroke="#00ff60" stroke-opacity=".62" stroke-width="1.8"/><line x1="678.6" y1="555.1" x2="733.2" y2="554.2" stroke="#00ff60" stroke-opacity=".62" stroke-width="1.8"/><line x1="265.6" y1="586.7" x2="318.2" y2="587.7" stroke="#00ff60" stroke-opacity=".62" stroke-width="1.8"/><line x1="679.1" y1="584.9" x2="731.4" y2="587.1" stroke="#00ff60" stroke-opacity=".62" stroke-width="1.8"/><g filter="url(#glowr1x4379)"><path d="M500,510.6 C397.0897288357839,453.04436538442974 447.8438063049689,550.4653396880627 500,533.489479764849" fill="#00ff60" fill-opacity=".88" stroke="#00ff60" stroke-width="1.2" filter="url(#skr1x4379)"/><path d="M500,510.6 C611.74865584746,451.87130257096146 563.5607864744961,542.8402189374343 500,532.5320770605654" fill="#00ff60" fill-opacity=".88" stroke="#00ff60" stroke-width="1.2" filter="url(#skr1x4379)"/><path d="M500,493.20000000000005 C454.75480803418907,464.1625333733857 476.1477807119489,516.299971995037 500,523.5250757809729" fill="rgba(255,255,255,.14)"/><path d="M500,493.20000000000005 C547.3084595595486,461.6473287975416 524.102633403428,517.6275440930389 500,520.2295059084893" fill="rgba(255,255,255,.14)"/></g><g><line x1="899.2330675570853" y1="791.6926080822944" x2="914.8456179470382" y2="112.24415527675299" stroke="url(#chromer1x4379)" stroke-width="28.0" stroke-linecap="round" filter="url(#wmr1x4379)"/><line x1="902.1940654780343" y1="770.6144579497166" x2="912.4318487436138" y2="130.444043745473" stroke="rgba(255,255,255,.42)" stroke-width="5.0" stroke-linecap="round"/><polygon points="869.7,152.4 936.0,150.4 914.4,-9.1" fill="url(#blader1x4379)" stroke="#00ff60" stroke-width="1.8" filter="url(#wmr1x4379)"/><line x1="935.8" y1="151.4" x2="915.8" y2="-8.6" stroke="rgba(255,255,255,.72)" stroke-width="1.6"/><rect x="878.7455148523301" y="420.99085105834524" width="40.0" height="20.0" fill="url(#bevelr1x4379)" stroke="#00ff60" stroke-width="1" filter="url(#wmr1x4379)"/><rect x="878.4681707446091" y="509.795510846097" width="40.0" height="20.0" fill="url(#bevelr1x4379)" stroke="#00ff60" stroke-width="1" filter="url(#wmr1x4379)"/><rect x="880.6121855319105" y="599.9223478249274" width="40.0" height="20.0" fill="url(#bevelr1x4379)" stroke="#00ff60" stroke-width="1" filter="url(#wmr1x4379)"/><rect x="880.3115109499172" y="690.7975996204651" width="40.0" height="20.0" fill="url(#bevelr1x4379)" stroke="#00ff60" stroke-width="1" filter="url(#wmr1x4379)"/><ellipse cx="897.1548920089938" cy="792.0391641444527" rx="22.0" ry="15.0" fill="url(#bevelr1x4379)" stroke="#00ff60" stroke-width="1" filter="url(#wmr1x4379)"/></g><rect x="451.6330153713003" y="558.5969465733506" width="100.0"  height="56.0" fill="#00441e" stroke="#00ff60" stroke-width="2.2" filter="url(#skr1x4379)"/><rect x="423.80578361814844" y="575.8109089924955" width="152.0" height="26.0" fill="url(#bevelr1x4379)" fill-opacity=".65" stroke="#00ff60" stroke-width="1.2" filter="url(#skr1x4379)"/><polygon points="306.9,380.3 349.7,296.2 499.9,279.6 650.4,295.3 692.8,379.9 670.3,503.2 500.5,565.4 332.0,504.3" fill="url(#suitr1x4379)" stroke="#00ff60" stroke-width="2.8" filter="url(#skr1x4379) url(#metalr1x4379)"/><polygon points="307.9,379.5 349.7,294.7 500.9,277.1 650.2,293.7 692.5,378.9 667.6,503.9 501.5,565.2 330.9,501.9" fill="url(#carbonr1x4379)"/><polygon points="381.5,303.9 498.8,285.5 619.5,301.2 608.2,380.6 391.4,382.3" fill="url(#suitHir1x4379)"/><polygon points="382.4,381.8 365.3,425.2 432.2,505.2 499.6,527.5 567.1,502.9 634.7,425.3 617.8,379.5" fill="#0a0520" fill-opacity=".88" stroke="#00ff60" stroke-width="1.8" filter="url(#skr1x4379)"/><polygon points="382.6,411.5 478.7,412.4 484.6,439.0 389.2,441.3" fill="#00ff60" filter="url(#glowr1x4379)"/><polygon points="524.4,411.0 617.7,413.0 609.8,440.6 516.5,441.1" fill="#00ff60" filter="url(#glowr1x4379)"/><ellipse cx="430.9" cy="425.7" rx="38.4"  ry="8.2" fill="#ffffff" opacity=".88"/><ellipse cx="569.1" cy="425.7" rx="38.4"  ry="8.2" fill="#ffffff" opacity=".88"/><line x1="485.4611635738611" y1="412.0786036469042" x2="516.0266615536436" y2="413.69461184162645" stroke="#00ff60" stroke-opacity=".52" stroke-width="2"/><line x1="484.9710393363237" y1="438.536150883045" x2="514.3539370635897" y2="436.77098139971497" stroke="#00ff60" stroke-opacity=".52" stroke-width="2"/><line x1="501.57273919116705" y1="454.63272568061944" x2="500.06599672678857" y2="483.14661290515215" stroke="#00ff60" stroke-opacity=".58" stroke-width="2.2" filter="url(#skr1x4379)"/><line x1="454.9212836892158" y1="489.8882215229794" x2="453.6687842408009" y2="521.6397741398774" stroke="#00ff60" stroke-opacity=".52" stroke-width="1.5" filter="url(#skr1x4379)"/><line x1="477.7360598747991" y1="490.65163178909563" x2="477.68871896196157" y2="519.1906989799812" stroke="#00ff60" stroke-opacity=".52" stroke-width="1.5" filter="url(#skr1x4379)"/><line x1="500.2869031351991" y1="490.90074501913034" x2="499.24450799124315" y2="518.4902098504826" stroke="#00ff60" stroke-opacity=".52" stroke-width="1.5" filter="url(#skr1x4379)"/><line x1="523.2089079561271" y1="492.4370944844558" x2="524.8308057177439" y2="519.9096413386985" stroke="#00ff60" stroke-opacity=".52" stroke-width="1.5" filter="url(#skr1x4379)"/><line x1="545.655220749341" y1="492.0919828832149" x2="547.6284999526292" y2="521.0740458532237" stroke="#00ff60" stroke-opacity=".52" stroke-width="1.5" filter="url(#skr1x4379)"/><polygon points="434.3,502.6 567.9,502.3 554.3,556.8 445.6,557.9" fill="#00441e" fill-opacity=".72" stroke="#00ff60" stroke-width="1.3" filter="url(#skr1x4379)"/><text x="30.0"  y="975.0" font-family="monospace" font-weight="bold" font-size="22.0" fill="rgba(255,255,255,.22)">#0001</text><text x="500.0"   y="975.0" text-anchor="middle" font-family="monospace" font-weight="bold" font-size="22.0" fill="#00ff60" fill-opacity=".48">VIPER RANGER</text><text x="970.0" y="975.0" text-anchor="end"    font-family="monospace" font-weight="bold" font-size="22.0" fill="#00ff60" fill-opacity=".32">MECH RANGERS</text></svg>