<svg xmlns="http://www.w3.org/2000/svg" viewBox="0 0 1000 1000" width="1000" height="1000" shape-rendering="geometricPrecision"><defs>

  <!-- Scene gradients -->
  <radialGradient id="bgr1x4432" cx="50%" cy="42%" r="72%">
    <stop offset="0%"   stop-color="#0e000e"/>
    <stop offset="100%" stop-color="#1e0600"/>
  </radialGradient>
  <linearGradient id="suitr1x4432" x1="8%" y1="0%" x2="92%" y2="100%">
    <stop offset="0%"   stop-color="#00ff60" stop-opacity=".95"/>
    <stop offset="45%"  stop-color="#00441e"/>
    <stop offset="100%" stop-color="#1e0600"/>
  </linearGradient>
  <linearGradient id="suitHir1x4432" x1="0%" y1="0%" x2="0%" y2="100%">
    <stop offset="0%"   stop-color="rgba(255,255,255,.28)"/>
    <stop offset="60%"  stop-color="rgba(255,255,255,.04)"/>
    <stop offset="100%" stop-color="rgba(255,255,255,0)"/>
  </linearGradient>
  <!-- Bevel: bright top, dark bottom for armour panels -->
  <linearGradient id="bevelr1x4432" x1="0%" y1="0%" x2="0%" y2="100%">
    <stop offset="0%"   stop-color="rgba(255,255,255,.55)"/>
    <stop offset="30%"  stop-color="#00ff60"/>
    <stop offset="70%"  stop-color="#00441e"/>
    <stop offset="100%" stop-color="rgba(0,0,0,.5)"/>
  </linearGradient>

  <!-- Weapon: cold steel blade sweep -->
  <linearGradient id="blader1x4432" x1="0%" y1="0%" x2="100%" y2="0%">
    <stop offset="0%"   stop-color="#0e0e20"/>
    <stop offset="16%"  stop-color="#3e3e58"/>
    <stop offset="34%"  stop-color="#c8c8e0"/>
    <stop offset="50%"  stop-color="#f5f5ff"/>
    <stop offset="66%"  stop-color="#b8b8d0"/>
    <stop offset="84%"  stop-color="#2e2e48"/>
    <stop offset="100%" stop-color="#08080e"/>
  </linearGradient>
  <!-- Blade tip brightening -->
  <linearGradient id="bladeTipr1x4432" x1="0%" y1="100%" x2="0%" y2="0%">
    <stop offset="0%"   stop-color="rgba(255,255,255,0)"/>
    <stop offset="55%"  stop-color="rgba(255,255,255,.1)"/>
    <stop offset="100%" stop-color="rgba(255,255,255,.55)"/>
  </linearGradient>
  <!-- Gunmetal anodised — blaster body -->
  <linearGradient id="gunmetalr1x4432" x1="0%" y1="0%" x2="0%" y2="100%">
    <stop offset="0%"   stop-color="#46465e"/>
    <stop offset="18%"  stop-color="#828296"/>
    <stop offset="42%"  stop-color="#26263a"/>
    <stop offset="72%"  stop-color="#16162a"/>
    <stop offset="100%" stop-color="#0c0c18"/>
  </linearGradient>
  <!-- Brushed steel tube — barrel/rod -->
  <linearGradient id="barrelr1x4432" x1="0%" y1="0%" x2="100%" y2="0%">
    <stop offset="0%"   stop-color="#0a0a14"/>
    <stop offset="24%"  stop-color="#585875"/>
    <stop offset="50%"  stop-color="#a8a8c8"/>
    <stop offset="76%"  stop-color="#383852"/>
    <stop offset="100%" stop-color="#0a0a14"/>
  </linearGradient>
  <!-- Chrome rod — lance shaft -->
  <linearGradient id="chromer1x4432" x1="0%" y1="0%" x2="100%" y2="0%">
    <stop offset="0%"   stop-color="#0c0c18"/>
    <stop offset="20%"  stop-color="#686888"/>
    <stop offset="44%"  stop-color="#e0e0f0"/>
    <stop offset="56%"  stop-color="#c0c0d8"/>
    <stop offset="80%"  stop-color="#28283e"/>
    <stop offset="100%" stop-color="#0c0c18"/>
  </linearGradient>
  <!-- Titanium plate — shield face -->
  <linearGradient id="titaniumr1x4432" x1="0%" y1="0%" x2="100%" y2="100%">
    <stop offset="0%"   stop-color="#585878"/>
    <stop offset="28%"  stop-color="#00ff60" stop-opacity=".88"/>
    <stop offset="55%"  stop-color="#00441e"/>
    <stop offset="80%"  stop-color="#181828"/>
    <stop offset="100%" stop-color="#0a0a18"/>
  </linearGradient>
  <!-- Artillery black-chrome — cannon body -->
  <linearGradient id="artilleryr1x4432" x1="0%" y1="0%" x2="0%" y2="100%">
    <stop offset="0%"   stop-color="#383850"/>
    <stop offset="14%"  stop-color="#78789a"/>
    <stop offset="36%"  stop-color="#202034"/>
    <stop offset="65%"  stop-color="#14141e"/>
    <stop offset="100%" stop-color="#0a0a12"/>
  </linearGradient>
  <!-- Energy orb — staff -->
  <radialGradient id="orbr1x4432" cx="35%" cy="35%" r="65%">
    <stop offset="0%"   stop-color="rgba(255,255,255,.9)"/>
    <stop offset="30%"  stop-color="#00ff60"/>
    <stop offset="68%"  stop-color="#00441e"/>
    <stop offset="100%" stop-color="rgba(0,0,0,.6)"/>
  </radialGradient>
  <!-- Knuckle plate chrome -->
  <linearGradient id="knuckler1x4432" x1="0%" y1="0%" x2="0%" y2="100%">
    <stop offset="0%"   stop-color="#888aaa"/>
    <stop offset="32%"  stop-color="#00ff60" stop-opacity=".8"/>
    <stop offset="62%"  stop-color="#1a1a2c"/>
    <stop offset="100%" stop-color="#0a0a14"/>
  </linearGradient>

  <!-- Carbon fibre weave texture overlay -->
  <pattern id="carbonr1x4432" width="6" height="6" patternUnits="userSpaceOnUse">
    <rect width="6" height="6" fill="rgba(0,0,0,.08)"/>
    <rect x="0" y="0" width="3" height="3" fill="rgba(255,255,255,.022)"/>
    <rect x="3" y="3" width="3" height="3" fill="rgba(255,255,255,.022)"/>
    <line x1="0" y1="0" x2="3" y2="3" stroke="rgba(255,255,255,.038)" stroke-width=".5"/>
    <line x1="3" y1="0" x2="6" y2="3" stroke="rgba(0,0,0,.055)"       stroke-width=".5"/>
    <line x1="0" y1="3" x2="3" y2="6" stroke="rgba(0,0,0,.055)"       stroke-width=".5"/>
    <line x1="3" y1="3" x2="6" y2="6" stroke="rgba(255,255,255,.038)" stroke-width=".5"/>
  </pattern>

  <!-- Specular metal sheen on armour panels -->
  <filter id="metalr1x4432" x="-5%" y="-5%" width="110%" height="110%">
    <feSpecularLighting surfaceScale="4" specularConstant="1.8"
        specularExponent="42" lighting-color="#ffffff" result="spec">
      <feDistantLight elevation="52" azimuth="38"/>
    </feSpecularLighting>
    <feComposite in="spec" in2="SourceGraphic" operator="in" result="sm"/>
    <feComposite in="SourceGraphic" in2="sm" operator="arithmetic" k1="0" k2="1" k3="0.55" k4="0"/>
  </filter>

  <!-- Sharper specular for weapons — heavier glare -->
  <filter id="wmr1x4432" x="-8%" y="-8%" width="116%" height="116%">
    <feSpecularLighting surfaceScale="6" specularConstant="2.4"
        specularExponent="65" lighting-color="#ffffff" result="spec">
      <feDistantLight elevation="44" azimuth="28"/>
    </feSpecularLighting>
    <feComposite in="spec" in2="SourceGraphic" operator="in" result="sm"/>
    <feComposite in="SourceGraphic" in2="sm" operator="arithmetic" k1="0" k2="1" k3="0.78" k4="0"/>
  </filter>

  <!-- Sketch wobble -->
  <filter id="skr1x4432" x="-8%" y="-8%" width="116%" height="116%">
    <feTurbulence type="fractalNoise" baseFrequency="0.038"
        numOctaves="3" seed="50" result="noise"/>
    <feDisplacementMap in="SourceGraphic" in2="noise" scale="2.6"
        xChannelSelector="R" yChannelSelector="G" result="w"/>
    <feComposite in="w" in2="SourceGraphic" operator="atop"/>
  </filter>

  <!-- Glow: sharp accent -->
  <filter id="glowr1x4432" x="-20%" y="-20%" width="140%" height="140%">
    <feGaussianBlur stdDeviation="3.5" result="b"/>
    <feColorMatrix in="b" type="matrix"
        values="0 0 0 0 1  0 0 0 0 1  0 0 0 0 1  0 0 0 1.8 0" result="boost"/>
    <feMerge><feMergeNode in="boost"/><feMergeNode in="SourceGraphic"/></feMerge>
  </filter>

  <!-- Bloom: wide soft -->
  <filter id="bloomr1x4432" x="-40%" y="-40%" width="180%" height="180%">
    <feGaussianBlur stdDeviation="11" result="b"/>
    <feMerge><feMergeNode in="b"/><feMergeNode in="SourceGraphic"/></feMerge>
  </filter>

  </defs><rect width="1000" height="1000" fill="url(#bgr1x4432)"/><ellipse cx="500.0" cy="1000" rx="850.0" ry="350.0" fill="#ff4500" fill-opacity=".11" filter="url(#bloomr1x4432)"/><ellipse cx="500.0" cy="892.0" rx="350.0" ry="65.0" fill="rgba(0,0,0,.7)" filter="url(#bloomr1x4432)"/><ellipse cx="500.0" cy="889.0" rx="220.0" ry="34.0" fill="rgba(0,0,0,.45)"/><ellipse cx="500.0" cy="520.0" rx="320.0" ry="480.0" fill="#00e5ff" fill-opacity=".042" filter="url(#bloomr1x4432)"/><circle cx="491.1" cy="677.7" r="1.3" fill="#00e5ff" fill-opacity="0.38" filter="url(#glowr1x4432)"/><circle cx="746.4" cy="435.3" r="3.5" fill="#00e5ff" fill-opacity="0.68" filter="url(#glowr1x4432)"/><circle cx="704.7" cy="780.3" r="2.6" fill="#00e5ff" fill-opacity="0.86" filter="url(#glowr1x4432)"/><circle cx="584.3" cy="507.7" r="2.5" fill="#00e5ff" fill-opacity="0.69" filter="url(#glowr1x4432)"/><circle cx="289.9" cy="544.2" r="2.4" fill="#00e5ff" fill-opacity="0.44" filter="url(#glowr1x4432)"/><circle cx="596.8" cy="555.1" r="3.7" fill="#00e5ff" fill-opacity="0.64" filter="url(#glowr1x4432)"/><circle cx="724.7" cy="343.5" r="1.0" fill="#00e5ff" fill-opacity="0.51" filter="url(#glowr1x4432)"/><circle cx="474.2" cy="359.6" r="0.5" fill="#00e5ff" fill-opacity="0.41" filter="url(#glowr1x4432)"/><circle cx="472.6" cy="265.0" r="2.4" fill="#00e5ff" fill-opacity="0.67" filter="url(#glowr1x4432)"/><circle cx="297.8" cy="620.6" r="1.2" fill="#00e5ff" fill-opacity="0.41" filter="url(#glowr1x4432)"/><circle cx="598.2" cy="220.3" r="2.9" fill="#00e5ff" fill-opacity="0.46" filter="url(#glowr1x4432)"/><circle cx="749.1" cy="315.7" r="2.3" fill="#00e5ff" fill-opacity="0.57" filter="url(#glowr1x4432)"/><circle cx="450.9" cy="713.1" r="4.3" fill="#00e5ff" fill-opacity="0.44" filter="url(#glowr1x4432)"/><circle cx="740.4" cy="235.0" r="1.1" fill="#00e5ff" fill-opacity="0.48" filter="url(#glowr1x4432)"/><path d="M518.8,357.7 Q501.6,476.3 318.5,620.5" stroke="#00e5ff" stroke-opacity="0.42" stroke-width="2.5" fill="none" filter="url(#glowr1x4432)"/><path d="M300.2,316.0 Q337.5,527.0 562.4,738.2" stroke="#00e5ff" stroke-opacity="0.80" stroke-width="1.8" fill="none" filter="url(#glowr1x4432)"/><path d="M417.4,296.9 Q419.9,472.5 304.2,675.6" stroke="#00e5ff" stroke-opacity="0.50" stroke-width="1.6" fill="none" filter="url(#glowr1x4432)"/><path d="M616.4,293.0 Q639.8,533.4 670.7,733.1" stroke="#00e5ff" stroke-opacity="0.50" stroke-width="1.4" fill="none" filter="url(#glowr1x4432)"/><path d="M512.7,142.5 Q496.0,438.6 522.0,723.1" stroke="#00e5ff" stroke-opacity="0.50" stroke-width="2.0" fill="none" filter="url(#glowr1x4432)"/><polygon points="399.5,661.8 489.5,660.9 479.8,877.8 388.7,878.1" fill="url(#suitr1x4432)" stroke="#00ff60" stroke-width="2.2" filter="url(#skr1x4432) url(#metalr1x4432)"/><polygon points="397.9,662.8 489.0,664.1 479.0,878.6 387.9,878.0" fill="url(#carbonr1x4432)"/><polygon points="394.2,722.4 494.5,723.6 484.5,786.5 384.4,788.2" fill="url(#bevelr1x4432)" fill-opacity=".5" stroke="#00ff60" stroke-width="1.4" filter="url(#skr1x4432)"/><polygon points="512.2,663.9 599.4,661.1 614.3,878.3 520.3,876.9" fill="url(#suitr1x4432)" stroke="#00ff60" stroke-width="2.2" filter="url(#skr1x4432) url(#metalr1x4432)"/><polygon points="509.0,662.9 600.9,661.6 614.1,876.2 521.0,876.5" fill="url(#carbonr1x4432)"/><polygon points="508.8,723.3 607.0,722.2 614.9,788.2 514.8,788.9" fill="url(#bevelr1x4432)" fill-opacity=".5" stroke="#00ff60" stroke-width="1.4" filter="url(#skr1x4432)"/><rect x="392.3" y="838.9" width="100.3" height="24.7" fill="url(#bevelr1x4432)" stroke="#00ff60" stroke-width="1" filter="url(#skr1x4432)"/><rect x="507.1"  y="838.8" width="100.3" height="24.7" fill="url(#bevelr1x4432)" stroke="#00ff60" stroke-width="1" filter="url(#skr1x4432)"/><polygon points="370.0,876.0 495.7,876.1 505.0,920.5 364.0,919.9" fill="#00441e" stroke="#00ff60" stroke-width="2" filter="url(#skr1x4432)"/><polygon points="503.7,876.9 630.6,877.1 637.7,920.3 495.6,923.1" fill="#00441e" stroke="#00ff60" stroke-width="2" filter="url(#skr1x4432)"/><polygon points="303.9,631.7 695.5,633.0 638.0,680.5 361.3,682.9" fill="#00ff60" fill-opacity=".52" stroke="#00ff60" stroke-width="2" filter="url(#skr1x4432)"/><rect x="465.4" y="639.1" width="72.0" height="42.0" fill="url(#bevelr1x4432)" stroke="#00ff60" stroke-width="1.4" filter="url(#glowr1x4432)"/><rect x="485.8" y="641.4" width="28.0" height="22.0" rx="1" fill="rgba(255,255,255,.48)"/><polygon points="152.6,468.2 236.3,468.3 256.2,734.8 129.1,734.4" fill="url(#suitr1x4432)" stroke="#00ff60" stroke-width="2.2" filter="url(#skr1x4432) url(#metalr1x4432)"/><polygon points="175.2,432.5 252.4,432.2 244.8,510.6 158.0,509.9" fill="url(#bevelr1x4432)" fill-opacity=".72" stroke="#00ff60" stroke-width="2.2" filter="url(#skr1x4432)"/><polygon points="161.6,622.6 244.8,621.3 237.6,660.2 164.6,661.2" fill="#00ff60" fill-opacity=".42" stroke="#00ff60" stroke-width="1" filter="url(#skr1x4432)"/><polygon points="764.4,466.1 847.8,464.8 872.7,736.1 742.4,734.2" fill="url(#suitr1x4432)" stroke="#00ff60" stroke-width="2.2" filter="url(#skr1x4432) url(#metalr1x4432)"/><polygon points="746.1,433.1 826.5,431.3 840.9,509.5 755.8,510.4" fill="url(#bevelr1x4432)" fill-opacity=".72" stroke="#00ff60" stroke-width="2.2" filter="url(#skr1x4432)"/><polygon points="756.9,621.3 837.3,620.7 834.9,659.8 761.3,660.2" fill="#00ff60" fill-opacity=".42" stroke="#00ff60" stroke-width="1" filter="url(#skr1x4432)"/><rect x="121.8"  y="700.0" width="135.3" height="85.0" rx="4" fill="url(#bevelr1x4432)" stroke="#00ff60" stroke-width="1.8" filter="url(#skr1x4432)"/><rect x="749.8"   y="700.1" width="135.3" height="85.0" rx="4" fill="url(#bevelr1x4432)" stroke="#00ff60" stroke-width="1.8" filter="url(#skr1x4432)"/><line x1="148.0" y1="701.7" x2="150.4" y2="782.1" stroke="#00ff60" stroke-opacity=".38" stroke-width="1"/><line x1="777.1" y1="703.1" x2="776.9" y2="784.2" stroke="#00ff60" stroke-opacity=".38" stroke-width="1"/><line x1="182.9" y1="701.3" x2="181.8" y2="782.6" stroke="#00ff60" stroke-opacity=".38" stroke-width="1"/><line x1="811.7" y1="703.6" x2="811.4" y2="783.9" stroke="#00ff60" stroke-opacity=".38" stroke-width="1"/><line x1="216.2" y1="700.8" x2="216.2" y2="782.9" stroke="#00ff60" stroke-opacity=".38" stroke-width="1"/><line x1="844.4" y1="701.5" x2="845.0" y2="784.3" stroke="#00ff60" stroke-opacity=".38" stroke-width="1"/><polygon points="233.4,419.2 764.1,417.0 723.1,660.9 276.5,661.3" fill="url(#suitr1x4432)" stroke="#00ff60" stroke-width="2.6" filter="url(#skr1x4432) url(#metalr1x4432)"/><polygon points="235.6,415.9 763.4,417.0 721.5,663.1 277.9,662.5" fill="url(#carbonr1x4432)"/><polygon points="369.1,417.5 633.9,417.2 612.0,513.9 390.4,516.8" fill="url(#suitHir1x4432)"/><line x1="363.1" y1="471.8" x2="639.1" y2="470.4" stroke="#00ff60" stroke-opacity=".52" stroke-width="1.3" filter="url(#skr1x4432)"/><line x1="398.3" y1="551.6" x2="600.8" y2="548.9" stroke="#00ff60" stroke-opacity=".52" stroke-width="1.3" filter="url(#skr1x4432)"/><line x1="266.2" y1="489.6" x2="318.1" y2="492.1" stroke="#00ff60" stroke-opacity=".62" stroke-width="1.8"/><line x1="680.8" y1="490.5" x2="735.0" y2="491.9" stroke="#00ff60" stroke-opacity=".62" stroke-width="1.8"/><line x1="265.5" y1="524.6" x2="320.4" y2="521.8" stroke="#00ff60" stroke-opacity=".62" stroke-width="1.8"/><line x1="680.3" y1="521.4" x2="734.4" y2="523.5" stroke="#00ff60" stroke-opacity=".62" stroke-width="1.8"/><line x1="267.4" y1="556.4" x2="319.9" y2="553.2" stroke="#00ff60" stroke-opacity=".62" stroke-width="1.8"/><line x1="680.2" y1="553.6" x2="734.7" y2="556.0" stroke="#00ff60" stroke-opacity=".62" stroke-width="1.8"/><line x1="266.9" y1="585.2" x2="318.2" y2="585.6" stroke="#00ff60" stroke-opacity=".62" stroke-width="1.8"/><line x1="679.8" y1="587.9" x2="732.4" y2="585.3" stroke="#00ff60" stroke-opacity=".62" stroke-width="1.8"/><g filter="url(#glowr1x4432)"><path d="M500.0,449.7 C462.3,446.8 442.0,481.6 447.8,513.5 L459.4,542.5 C476.8,536.7 491.3,551.2 500.0,551.2 C508.7,551.2 523.2,536.7 540.6,542.5 L552.2,513.5 C558.0,481.6 537.7,446.8 500.0,449.7 Z" fill="#00ff60" fill-opacity=".92" stroke="#1e0600" stroke-width="1.3" filter="url(#skr1x4432)"/><path d="M483.8,519.3 Q500.0,533.8 516.2,519.3" stroke="#1e0600" stroke-width="1" fill="none" opacity=".58"/><ellipse cx="481.4" cy="497.8" rx="8.7" ry="6.4" fill="#1e0600" opacity=".95"/><ellipse cx="518.6" cy="497.8" rx="8.7" ry="6.4" fill="#1e0600" opacity=".95"/><ellipse cx="481.4" cy="497.8" rx="2.3" ry="5.8" fill="#00ff60"/><ellipse cx="518.6" cy="497.8" rx="2.3" ry="5.8" fill="#00ff60"/><path d="M471.0,467.1 L458.2,426.5 L481.4,463.0" fill="#00ff60" stroke="#1e0600" stroke-width=".9"/><path d="M529.0,467.1 L541.8,426.5 L518.6,463.0" fill="#00ff60" stroke="#1e0600" stroke-width=".9"/><path d="M476.8,452.6 C488.4,449.1 511.6,449.1 523.2,452.6" fill="rgba(255,255,255,.18)"/></g><g><polygon points="828.9,293.9 966.1,292.4 968.4,593.1 897.1,727.4 827.3,591.6" fill="url(#titaniumr1x4432)" stroke="#00ff60" stroke-width="2.6" filter="url(#wmr1x4432)"/><polygon points="827.8,293.4 969.1,292.4 967.5,592.8 896.6,726.8 827.9,590.3" fill="url(#carbonr1x4432)"/><polygon points="859.3,361.6 934.8,361.7 937.4,541.6 896.2,632.3 858.9,541.3" fill="#00ff60" fill-opacity=".28" stroke="#00ff60" stroke-width="1.5"/><line x1="846.1679704315588" y1="430.47749263867735" x2="948.6348723668233" y2="431.4148092119023" stroke="#00ff60" stroke-opacity=".65" stroke-width="1.3"/><line x1="897.1365206986294" y1="332.9757239877246" x2="899.3649831863679" y2="592.05047813626" stroke="#00ff60" stroke-opacity=".4" stroke-width="1"/><line x1="828.206760558635" y1="295.21286122100423" x2="967.4389564473742" y2="295.27635983554643" stroke="rgba(255,255,255,.5)" stroke-width="2"/><circle cx="896.6872662161105" cy="431.2003581698052" r="18.0" fill="url(#bevelr1x4432)" stroke="#00ff60" stroke-width="1.2" filter="url(#wmr1x4432)"/></g><rect x="449.92629734789955" y="556.1320341971702" width="100.0"  height="56.0" fill="#00441e" stroke="#00ff60" stroke-width="2.2" filter="url(#skr1x4432)"/><rect x="423.9117784130387" y="575.6856256974861" width="152.0" height="26.0" fill="url(#bevelr1x4432)" fill-opacity=".65" stroke="#00ff60" stroke-width="1.2" filter="url(#skr1x4432)"/><polygon points="307.4,380.2 352.0,295.7 498.4,277.8 648.1,296.0 692.3,382.1 667.9,505.3 499.0,563.7 329.4,504.2" fill="url(#suitr1x4432)" stroke="#00ff60" stroke-width="2.8" filter="url(#skr1x4432) url(#metalr1x4432)"/><polygon points="309.6,379.2 348.6,296.2 499.9,279.8 649.6,294.6 690.4,379.6 669.2,504.9 500.6,565.4 329.9,502.7" fill="url(#carbonr1x4432)"/><polygon points="380.4,302.1 500.4,288.0 617.7,303.0 607.3,380.4 393.4,379.2" fill="url(#suitHir1x4432)"/><polygon points="379.4,382.4 365.6,424.2 432.7,502.6 498.4,529.3 567.1,502.4 634.9,425.2 618.4,379.6" fill="#1e0600" fill-opacity=".88" stroke="#00ff60" stroke-width="1.8" filter="url(#skr1x4432)"/><polygon points="380.7,411.9 476.8,411.0 483.7,438.7 388.4,439.1" fill="#00ff60" filter="url(#glowr1x4432)"/><polygon points="522.1,411.3 619.3,411.5 610.9,440.3 514.3,439.7" fill="#00ff60" filter="url(#glowr1x4432)"/><ellipse cx="430.9" cy="425.7" rx="38.4"  ry="8.2" fill="#ffffff" opacity=".88"/><ellipse cx="569.1" cy="425.7" rx="38.4"  ry="8.2" fill="#ffffff" opacity=".88"/><line x1="486.1011645742319" y1="412.22942237807433" x2="516.6834876614064" y2="414.6507261822" stroke="#00ff60" stroke-opacity=".52" stroke-width="2"/><line x1="485.64968019785357" y1="436.2008965945803" x2="514.4869919016398" y2="437.7034871863201" stroke="#00ff60" stroke-opacity=".52" stroke-width="2"/><line x1="501.5170109805651" y1="455.34646629057823" x2="500.05741495294495" y2="482.93651255443694" stroke="#00ff60" stroke-opacity=".58" stroke-width="2.2" filter="url(#skr1x4432)"/><line x1="452.8394117645733" y1="491.9584348598495" x2="455.6346824700758" y2="519.144046859257" stroke="#00ff60" stroke-opacity=".52" stroke-width="1.5" filter="url(#skr1x4432)"/><line x1="476.8581847648509" y1="490.3257282284088" x2="475.61106146493927" y2="518.2422240685671" stroke="#00ff60" stroke-opacity=".52" stroke-width="1.5" filter="url(#skr1x4432)"/><line x1="501.3487382972613" y1="490.0045661611482" x2="498.51140841366725" y2="519.6006248855032" stroke="#00ff60" stroke-opacity=".52" stroke-width="1.5" filter="url(#skr1x4432)"/><line x1="522.2495184128732" y1="491.0020551029592" x2="522.6287065945193" y2="520.588100922294" stroke="#00ff60" stroke-opacity=".52" stroke-width="1.5" filter="url(#skr1x4432)"/><line x1="547.4548639333993" y1="492.26048208577555" x2="547.0850480136648" y2="519.9788408753462" stroke="#00ff60" stroke-opacity=".52" stroke-width="1.5" filter="url(#skr1x4432)"/><polygon points="432.2,504.7 565.7,503.9 554.3,555.2 448.0,555.1" fill="#00441e" fill-opacity=".72" stroke="#00ff60" stroke-width="1.3" filter="url(#skr1x4432)"/><circle cx="500.0" cy="315.0" r="203.5" fill="none" stroke="#00ff60" stroke-width="3" stroke-dasharray="6,4" filter="url(#bloomr1x4432)"/><circle cx="500.0" cy="315.0" r="134.4"   fill="none" stroke="#00ff60" stroke-width="1.2" stroke-opacity=".42"/><circle cx="703.5" cy="315.0" r="1.8" fill="#00ff60" filter="url(#glowr1x4432)"/><circle cx="688.0" cy="392.9" r="2.7" fill="#00ff60" filter="url(#glowr1x4432)"/><circle cx="643.9" cy="458.9" r="2.8" fill="#00ff60" filter="url(#glowr1x4432)"/><circle cx="577.9" cy="503.0" r="2.0" fill="#00ff60" filter="url(#glowr1x4432)"/><circle cx="500.0" cy="518.5" r="1.0" fill="#00ff60" filter="url(#glowr1x4432)"/><circle cx="422.1" cy="503.0" r="0.7" fill="#00ff60" filter="url(#glowr1x4432)"/><circle cx="356.1" cy="458.9" r="1.5" fill="#00ff60" filter="url(#glowr1x4432)"/><circle cx="312.0" cy="392.9" r="2.5" fill="#00ff60" filter="url(#glowr1x4432)"/><circle cx="296.5" cy="315.0" r="2.9" fill="#00ff60" filter="url(#glowr1x4432)"/><circle cx="312.0" cy="237.1" r="2.3" fill="#00ff60" filter="url(#glowr1x4432)"/><circle cx="356.1" cy="171.1" r="1.2" fill="#00ff60" filter="url(#glowr1x4432)"/><circle cx="422.1" cy="127.0" r="0.7" fill="#00ff60" filter="url(#glowr1x4432)"/><circle cx="500.0" cy="111.5" r="1.2" fill="#00ff60" filter="url(#glowr1x4432)"/><circle cx="577.9" cy="127.0" r="2.3" fill="#00ff60" filter="url(#glowr1x4432)"/><circle cx="643.9" cy="171.1" r="2.9" fill="#00ff60" filter="url(#glowr1x4432)"/><circle cx="688.0" cy="237.1" r="2.5" fill="#00ff60" filter="url(#glowr1x4432)"/><text x="30.0"  y="975.0" font-family="monospace" font-weight="bold" font-size="22.0" fill="rgba(255,255,255,.22)">#0001</text><text x="500.0"   y="975.0" text-anchor="middle" font-family="monospace" font-weight="bold" font-size="22.0" fill="#00ff60" fill-opacity=".48">VIPER RANGER</text><text x="970.0" y="975.0" text-anchor="end"    font-family="monospace" font-weight="bold" font-size="22.0" fill="#00ff60" fill-opacity=".32">MECH RANGERS</text></svg>