<svg xmlns="http://www.w3.org/2000/svg" viewBox="0 0 1000 1000" width="1000" height="1000" shape-rendering="geometricPrecision"><defs>

  <!-- Scene gradients -->
  <radialGradient id="bgr1x4528" cx="50%" cy="42%" r="72%">
    <stop offset="0%"   stop-color="#1e0a2e"/>
    <stop offset="100%" stop-color="#0a0520"/>
  </radialGradient>
  <linearGradient id="suitr1x4528" x1="8%" y1="0%" x2="92%" y2="100%">
    <stop offset="0%"   stop-color="#ff00ff" stop-opacity=".95"/>
    <stop offset="45%"  stop-color="#050508"/>
    <stop offset="100%" stop-color="#0a0520"/>
  </linearGradient>
  <linearGradient id="suitHir1x4528" x1="0%" y1="0%" x2="0%" y2="100%">
    <stop offset="0%"   stop-color="rgba(255,255,255,.28)"/>
    <stop offset="60%"  stop-color="rgba(255,255,255,.04)"/>
    <stop offset="100%" stop-color="rgba(255,255,255,0)"/>
  </linearGradient>
  <!-- Bevel: bright top, dark bottom for armour panels -->
  <linearGradient id="bevelr1x4528" x1="0%" y1="0%" x2="0%" y2="100%">
    <stop offset="0%"   stop-color="rgba(255,255,255,.55)"/>
    <stop offset="30%"  stop-color="#ff00ff"/>
    <stop offset="70%"  stop-color="#050508"/>
    <stop offset="100%" stop-color="rgba(0,0,0,.5)"/>
  </linearGradient>

  <!-- Weapon: cold steel blade sweep -->
  <linearGradient id="blader1x4528" x1="0%" y1="0%" x2="100%" y2="0%">
    <stop offset="0%"   stop-color="#0e0e20"/>
    <stop offset="16%"  stop-color="#3e3e58"/>
    <stop offset="34%"  stop-color="#c8c8e0"/>
    <stop offset="50%"  stop-color="#f5f5ff"/>
    <stop offset="66%"  stop-color="#b8b8d0"/>
    <stop offset="84%"  stop-color="#2e2e48"/>
    <stop offset="100%" stop-color="#08080e"/>
  </linearGradient>
  <!-- Blade tip brightening -->
  <linearGradient id="bladeTipr1x4528" x1="0%" y1="100%" x2="0%" y2="0%">
    <stop offset="0%"   stop-color="rgba(255,255,255,0)"/>
    <stop offset="55%"  stop-color="rgba(255,255,255,.1)"/>
    <stop offset="100%" stop-color="rgba(255,255,255,.55)"/>
  </linearGradient>
  <!-- Gunmetal anodised — blaster body -->
  <linearGradient id="gunmetalr1x4528" x1="0%" y1="0%" x2="0%" y2="100%">
    <stop offset="0%"   stop-color="#46465e"/>
    <stop offset="18%"  stop-color="#828296"/>
    <stop offset="42%"  stop-color="#26263a"/>
    <stop offset="72%"  stop-color="#16162a"/>
    <stop offset="100%" stop-color="#0c0c18"/>
  </linearGradient>
  <!-- Brushed steel tube — barrel/rod -->
  <linearGradient id="barrelr1x4528" x1="0%" y1="0%" x2="100%" y2="0%">
    <stop offset="0%"   stop-color="#0a0a14"/>
    <stop offset="24%"  stop-color="#585875"/>
    <stop offset="50%"  stop-color="#a8a8c8"/>
    <stop offset="76%"  stop-color="#383852"/>
    <stop offset="100%" stop-color="#0a0a14"/>
  </linearGradient>
  <!-- Chrome rod — lance shaft -->
  <linearGradient id="chromer1x4528" x1="0%" y1="0%" x2="100%" y2="0%">
    <stop offset="0%"   stop-color="#0c0c18"/>
    <stop offset="20%"  stop-color="#686888"/>
    <stop offset="44%"  stop-color="#e0e0f0"/>
    <stop offset="56%"  stop-color="#c0c0d8"/>
    <stop offset="80%"  stop-color="#28283e"/>
    <stop offset="100%" stop-color="#0c0c18"/>
  </linearGradient>
  <!-- Titanium plate — shield face -->
  <linearGradient id="titaniumr1x4528" x1="0%" y1="0%" x2="100%" y2="100%">
    <stop offset="0%"   stop-color="#585878"/>
    <stop offset="28%"  stop-color="#ff00ff" stop-opacity=".88"/>
    <stop offset="55%"  stop-color="#050508"/>
    <stop offset="80%"  stop-color="#181828"/>
    <stop offset="100%" stop-color="#0a0a18"/>
  </linearGradient>
  <!-- Artillery black-chrome — cannon body -->
  <linearGradient id="artilleryr1x4528" x1="0%" y1="0%" x2="0%" y2="100%">
    <stop offset="0%"   stop-color="#383850"/>
    <stop offset="14%"  stop-color="#78789a"/>
    <stop offset="36%"  stop-color="#202034"/>
    <stop offset="65%"  stop-color="#14141e"/>
    <stop offset="100%" stop-color="#0a0a12"/>
  </linearGradient>
  <!-- Energy orb — staff -->
  <radialGradient id="orbr1x4528" cx="35%" cy="35%" r="65%">
    <stop offset="0%"   stop-color="rgba(255,255,255,.9)"/>
    <stop offset="30%"  stop-color="#ff00ff"/>
    <stop offset="68%"  stop-color="#050508"/>
    <stop offset="100%" stop-color="rgba(0,0,0,.6)"/>
  </radialGradient>
  <!-- Knuckle plate chrome -->
  <linearGradient id="knuckler1x4528" x1="0%" y1="0%" x2="0%" y2="100%">
    <stop offset="0%"   stop-color="#888aaa"/>
    <stop offset="32%"  stop-color="#ff00ff" stop-opacity=".8"/>
    <stop offset="62%"  stop-color="#1a1a2c"/>
    <stop offset="100%" stop-color="#0a0a14"/>
  </linearGradient>

  <!-- Carbon fibre weave texture overlay -->
  <pattern id="carbonr1x4528" width="6" height="6" patternUnits="userSpaceOnUse">
    <rect width="6" height="6" fill="rgba(0,0,0,.08)"/>
    <rect x="0" y="0" width="3" height="3" fill="rgba(255,255,255,.022)"/>
    <rect x="3" y="3" width="3" height="3" fill="rgba(255,255,255,.022)"/>
    <line x1="0" y1="0" x2="3" y2="3" stroke="rgba(255,255,255,.038)" stroke-width=".5"/>
    <line x1="3" y1="0" x2="6" y2="3" stroke="rgba(0,0,0,.055)"       stroke-width=".5"/>
    <line x1="0" y1="3" x2="3" y2="6" stroke="rgba(0,0,0,.055)"       stroke-width=".5"/>
    <line x1="3" y1="3" x2="6" y2="6" stroke="rgba(255,255,255,.038)" stroke-width=".5"/>
  </pattern>

  <!-- Specular metal sheen on armour panels -->
  <filter id="metalr1x4528" x="-5%" y="-5%" width="110%" height="110%">
    <feSpecularLighting surfaceScale="4" specularConstant="1.8"
        specularExponent="42" lighting-color="#ffffff" result="spec">
      <feDistantLight elevation="52" azimuth="38"/>
    </feSpecularLighting>
    <feComposite in="spec" in2="SourceGraphic" operator="in" result="sm"/>
    <feComposite in="SourceGraphic" in2="sm" operator="arithmetic" k1="0" k2="1" k3="0.55" k4="0"/>
  </filter>

  <!-- Sharper specular for weapons — heavier glare -->
  <filter id="wmr1x4528" x="-8%" y="-8%" width="116%" height="116%">
    <feSpecularLighting surfaceScale="6" specularConstant="2.4"
        specularExponent="65" lighting-color="#ffffff" result="spec">
      <feDistantLight elevation="44" azimuth="28"/>
    </feSpecularLighting>
    <feComposite in="spec" in2="SourceGraphic" operator="in" result="sm"/>
    <feComposite in="SourceGraphic" in2="sm" operator="arithmetic" k1="0" k2="1" k3="0.78" k4="0"/>
  </filter>

  <!-- Sketch wobble -->
  <filter id="skr1x4528" x="-8%" y="-8%" width="116%" height="116%">
    <feTurbulence type="fractalNoise" baseFrequency="0.038"
        numOctaves="3" seed="4" result="noise"/>
    <feDisplacementMap in="SourceGraphic" in2="noise" scale="2.6"
        xChannelSelector="R" yChannelSelector="G" result="w"/>
    <feComposite in="w" in2="SourceGraphic" operator="atop"/>
  </filter>

  <!-- Glow: sharp accent -->
  <filter id="glowr1x4528" x="-20%" y="-20%" width="140%" height="140%">
    <feGaussianBlur stdDeviation="3.5" result="b"/>
    <feColorMatrix in="b" type="matrix"
        values="0 0 0 0 1  0 0 0 0 1  0 0 0 0 1  0 0 0 1.8 0" result="boost"/>
    <feMerge><feMergeNode in="boost"/><feMergeNode in="SourceGraphic"/></feMerge>
  </filter>

  <!-- Bloom: wide soft -->
  <filter id="bloomr1x4528" x="-40%" y="-40%" width="180%" height="180%">
    <feGaussianBlur stdDeviation="11" result="b"/>
    <feMerge><feMergeNode in="b"/><feMergeNode in="SourceGraphic"/></feMerge>
  </filter>

  </defs><rect width="1000" height="1000" fill="url(#bgr1x4528)"/><ellipse cx="500.0" cy="892.0" rx="350.0" ry="65.0" fill="rgba(0,0,0,.7)" filter="url(#bloomr1x4528)"/><ellipse cx="500.0" cy="889.0" rx="220.0" ry="34.0" fill="rgba(0,0,0,.45)"/><polygon points="398.6,663.9 489.1,664.1 479.4,878.8 388.7,877.3" fill="url(#suitr1x4528)" stroke="#ff00ff" stroke-width="2.2" filter="url(#skr1x4528) url(#metalr1x4528)"/><polygon points="399.1,661.3 488.9,662.5 479.3,876.5 388.7,878.7" fill="url(#carbonr1x4528)"/><polygon points="393.1,723.7 492.2,725.1 485.7,789.4 384.3,788.4" fill="url(#bevelr1x4528)" fill-opacity=".5" stroke="#ff00ff" stroke-width="1.4" filter="url(#skr1x4528)"/><polygon points="509.4,661.8 600.0,660.9 613.7,878.5 519.2,879.1" fill="url(#suitr1x4528)" stroke="#ff00ff" stroke-width="2.2" filter="url(#skr1x4528) url(#metalr1x4528)"/><polygon points="512.0,663.8 600.0,662.7 614.0,877.9 519.5,876.0" fill="url(#carbonr1x4528)"/><polygon points="506.7,723.4 608.9,722.7 615.7,786.9 517.2,786.6" fill="url(#bevelr1x4528)" fill-opacity=".5" stroke="#ff00ff" stroke-width="1.4" filter="url(#skr1x4528)"/><rect x="394.0" y="837.9" width="100.3" height="24.7" fill="url(#bevelr1x4528)" stroke="#ff00ff" stroke-width="1" filter="url(#skr1x4528)"/><rect x="506.5"  y="838.0" width="100.3" height="24.7" fill="url(#bevelr1x4528)" stroke="#ff00ff" stroke-width="1" filter="url(#skr1x4528)"/><polygon points="370.6,878.8 496.3,879.1 504.8,920.9 362.6,922.3" fill="#050508" stroke="#ff00ff" stroke-width="2" filter="url(#skr1x4528)"/><polygon points="503.4,877.7 631.9,879.3 636.4,920.1 498.0,922.4" fill="#050508" stroke="#ff00ff" stroke-width="2" filter="url(#skr1x4528)"/><polygon points="305.1,634.0 696.1,632.2 637.3,682.3 361.3,682.1" fill="#ff00ff" fill-opacity=".52" stroke="#ff00ff" stroke-width="2" filter="url(#skr1x4528)"/><rect x="464.0" y="636.4" width="72.0" height="42.0" fill="url(#bevelr1x4528)" stroke="#ff00ff" stroke-width="1.4" filter="url(#glowr1x4528)"/><rect x="487.8" y="639.1" width="28.0" height="22.0" rx="1" fill="rgba(255,255,255,.48)"/><polygon points="152.9,467.9 236.4,467.2 257.7,735.4 127.8,734.6" fill="url(#suitr1x4528)" stroke="#ff00ff" stroke-width="2.2" filter="url(#skr1x4528) url(#metalr1x4528)"/><polygon points="173.4,433.0 252.5,431.4 244.1,510.5 157.8,512.0" fill="url(#bevelr1x4528)" fill-opacity=".72" stroke="#ff00ff" stroke-width="2.2" filter="url(#skr1x4528)"/><polygon points="160.5,622.8 244.5,622.0 237.6,661.5 163.6,661.9" fill="#ff00ff" fill-opacity=".42" stroke="#ff00ff" stroke-width="1" filter="url(#skr1x4528)"/><polygon points="766.5,466.6 847.4,464.8 872.5,734.8 741.0,733.4" fill="url(#suitr1x4528)" stroke="#ff00ff" stroke-width="2.2" filter="url(#skr1x4528) url(#metalr1x4528)"/><polygon points="746.5,433.0 824.9,433.3 839.5,509.3 757.0,509.5" fill="url(#bevelr1x4528)" fill-opacity=".72" stroke="#ff00ff" stroke-width="2.2" filter="url(#skr1x4528)"/><polygon points="755.2,621.6 838.5,623.1 835.7,661.9 762.7,660.5" fill="#ff00ff" fill-opacity=".42" stroke="#ff00ff" stroke-width="1" filter="url(#skr1x4528)"/><rect x="121.8"  y="698.4" width="135.3" height="85.0" rx="4" fill="url(#bevelr1x4528)" stroke="#ff00ff" stroke-width="1.8" filter="url(#skr1x4528)"/><rect x="747.6"   y="699.7" width="135.3" height="85.0" rx="4" fill="url(#bevelr1x4528)" stroke="#ff00ff" stroke-width="1.8" filter="url(#skr1x4528)"/><line x1="149.2" y1="700.6" x2="150.6" y2="782.7" stroke="#ff00ff" stroke-opacity=".38" stroke-width="1"/><line x1="776.3" y1="702.3" x2="777.7" y2="783.1" stroke="#ff00ff" stroke-opacity=".38" stroke-width="1"/><line x1="181.6" y1="702.4" x2="183.4" y2="783.4" stroke="#ff00ff" stroke-opacity=".38" stroke-width="1"/><line x1="810.5" y1="700.2" x2="809.7" y2="784.2" stroke="#ff00ff" stroke-opacity=".38" stroke-width="1"/><line x1="214.6" y1="703.2" x2="216.6" y2="784.0" stroke="#ff00ff" stroke-opacity=".38" stroke-width="1"/><line x1="845.3" y1="700.5" x2="842.4" y2="784.1" stroke="#ff00ff" stroke-opacity=".38" stroke-width="1"/><polygon points="234.8,417.7 764.2,419.3 722.4,660.7 276.1,664.3" fill="url(#suitr1x4528)" stroke="#ff00ff" stroke-width="2.6" filter="url(#skr1x4528) url(#metalr1x4528)"/><polygon points="235.7,417.7 766.6,417.2 724.2,663.6 277.3,663.1" fill="url(#carbonr1x4528)"/><polygon points="367.4,416.3 634.3,417.7 609.7,514.7 389.6,514.6" fill="url(#suitHir1x4528)"/><line x1="360.5" y1="471.8" x2="638.0" y2="470.7" stroke="#ff00ff" stroke-opacity=".52" stroke-width="1.3" filter="url(#skr1x4528)"/><line x1="397.8" y1="550.1" x2="601.7" y2="548.5" stroke="#ff00ff" stroke-opacity=".52" stroke-width="1.3" filter="url(#skr1x4528)"/><line x1="265.7" y1="489.9" x2="319.0" y2="491.5" stroke="#ff00ff" stroke-opacity=".62" stroke-width="1.8"/><line x1="681.3" y1="492.7" x2="731.8" y2="490.4" stroke="#ff00ff" stroke-opacity=".62" stroke-width="1.8"/><line x1="266.6" y1="522.8" x2="321.3" y2="524.4" stroke="#ff00ff" stroke-opacity=".62" stroke-width="1.8"/><line x1="679.5" y1="521.9" x2="731.7" y2="524.4" stroke="#ff00ff" stroke-opacity=".62" stroke-width="1.8"/><line x1="267.8" y1="556.3" x2="318.2" y2="556.5" stroke="#ff00ff" stroke-opacity=".62" stroke-width="1.8"/><line x1="679.3" y1="554.6" x2="732.2" y2="553.5" stroke="#ff00ff" stroke-opacity=".62" stroke-width="1.8"/><line x1="266.8" y1="587.3" x2="321.5" y2="585.9" stroke="#ff00ff" stroke-opacity=".62" stroke-width="1.8"/><line x1="678.6" y1="587.1" x2="731.9" y2="586.7" stroke="#ff00ff" stroke-opacity=".62" stroke-width="1.8"/><g filter="url(#glowr1x4528)"><polygon points="500.3,451.4 541.1,511.8 498.9,568.6 459.6,510.4" fill="#ff00ff" stroke="#0a0520" stroke-width="1.4" filter="url(#skr1x4528)"/><polygon points="498.7,451.1 543.1,509.8 500.3,568.0 457.7,508.9" fill="url(#suitHir1x4528)" opacity=".45"/></g><g><rect x="33.38326012067493" y="422.01463303798806" width="148.0" height="82.0" rx="5" fill="url(#gunmetalr1x4528)" stroke="#ff00ff" stroke-width="2" filter="url(#wmr1x4528)"/><rect x="33.413052172251014" y="422.225731950812" width="148.0" height="82.0" rx="5" fill="url(#carbonr1x4528)"/><rect x="43.57756386021149" y="401.9673601285554" width="90.0" height="22.0" rx="3" fill="url(#barrelr1x4528)" stroke="#ff00ff" stroke-width="1" filter="url(#wmr1x4528)"/><circle cx="83.76318130124358" cy="414.56036252118645" r="15.0" fill="#ff00ff" opacity=".8" filter="url(#glowr1x4528)"/><circle cx="81.04072129851204" cy="414.9233029023744" r="6.0" fill="rgba(255,255,255,.9)"/><rect x="52.540388445220856" y="455.64025496821847" width="78.0" height="36.0" rx="5" fill="url(#barrelr1x4528)" stroke="#ff00ff" stroke-width="1.2" filter="url(#wmr1x4528)"/><circle cx="-18.712324536740812" cy="469.86673085475337" r="18.0" fill="#ff00ff" filter="url(#glowr1x4528)" opacity=".88"/><circle cx="-21.54881671868268" cy="471.2390962584875" r="7.0" fill="#ffffff"/><rect x="77.81259931189936" y="503.13760811770334" width="44.0" height="42.0" rx="3" fill="url(#gunmetalr1x4528)" stroke="#ff00ff" stroke-width="1" filter="url(#wmr1x4528)"/><rect x="36.4363405752368" y="422.08602384570986" width="90.0" height="10.0" rx="2" fill="rgba(255,255,255,.22)"/><line x1="62.711386985275865" y1="485.3008029261604" x2="61.55916366012764" y2="518.7268344272859" stroke="#ff00ff" stroke-opacity=".5" stroke-width="1.2"/><line x1="79.68751565771174" y1="487.39171095900235" x2="78.49062116485086" y2="518.1366195890121" stroke="#ff00ff" stroke-opacity=".5" stroke-width="1.2"/><line x1="94.30842029651623" y1="487.36995463464405" x2="94.22641088249159" y2="520.8634358855895" stroke="#ff00ff" stroke-opacity=".5" stroke-width="1.2"/></g><rect x="451.5353493290953" y="555.8423520746641" width="100.0"  height="56.0" fill="#050508" stroke="#ff00ff" stroke-width="2.2" filter="url(#skr1x4528)"/><rect x="424.04654592201115" y="574.8817661050707" width="152.0" height="26.0" fill="url(#bevelr1x4528)" fill-opacity=".65" stroke="#ff00ff" stroke-width="1.2" filter="url(#skr1x4528)"/><polygon points="307.0,379.5 350.4,294.4 500.5,278.5 648.3,293.4 693.1,378.9 668.6,502.6 501.1,564.7 331.0,502.9" fill="url(#suitr1x4528)" stroke="#ff00ff" stroke-width="2.8" filter="url(#skr1x4528) url(#metalr1x4528)"/><polygon points="307.6,381.0 348.6,293.3 501.0,277.6 651.2,294.0 691.9,380.8 668.4,503.4 501.4,565.0 331.5,502.8" fill="url(#carbonr1x4528)"/><polygon points="379.5,302.2 499.1,286.5 620.8,302.2 608.5,379.4 391.6,382.0" fill="url(#suitHir1x4528)"/><polygon points="380.3,381.4 364.7,426.5 432.5,503.6 501.4,526.6 566.4,502.9 635.2,425.4 620.6,379.8" fill="#0a0520" fill-opacity=".88" stroke="#ff00ff" stroke-width="1.8" filter="url(#skr1x4528)"/><polygon points="381.2,412.0 478.1,412.6 485.0,438.8 388.0,439.9" fill="#ff00ff" filter="url(#glowr1x4528)"/><polygon points="522.1,411.2 617.3,409.6 609.8,439.5 516.6,441.1" fill="#ff00ff" filter="url(#glowr1x4528)"/><ellipse cx="430.9" cy="425.7" rx="38.4"  ry="8.2" fill="#ffffff" opacity=".88"/><ellipse cx="569.1" cy="425.7" rx="38.4"  ry="8.2" fill="#ffffff" opacity=".88"/><line x1="484.3327862552926" y1="413.92681146478276" x2="517.1485045223869" y2="412.06897495659064" stroke="#ff00ff" stroke-opacity=".52" stroke-width="2"/><line x1="484.8803095142916" y1="438.61506058210506" x2="513.9908416096494" y2="437.1012202248909" stroke="#ff00ff" stroke-opacity=".52" stroke-width="2"/><line x1="499.5310169942677" y1="456.04289887985215" x2="501.14567873682824" y2="482.0848956320435" stroke="#ff00ff" stroke-opacity=".58" stroke-width="2.2" filter="url(#skr1x4528)"/><line x1="453.9767195475102" y1="490.0286394715309" x2="453.01603660954163" y2="519.4293277483433" stroke="#ff00ff" stroke-opacity=".52" stroke-width="1.5" filter="url(#skr1x4528)"/><line x1="475.9395316272415" y1="492.28984878258774" x2="478.42350336577744" y2="520.7141039646231" stroke="#ff00ff" stroke-opacity=".52" stroke-width="1.5" filter="url(#skr1x4528)"/><line x1="499.6511419897899" y1="490.5292347471229" x2="501.5450899513438" y2="520.4818711709231" stroke="#ff00ff" stroke-opacity=".52" stroke-width="1.5" filter="url(#skr1x4528)"/><line x1="523.5637005390226" y1="489.53537621796124" x2="524.2585928806662" y2="520.9326777312905" stroke="#ff00ff" stroke-opacity=".52" stroke-width="1.5" filter="url(#skr1x4528)"/><line x1="545.421720107291" y1="493.07838897593314" x2="546.8585127708689" y2="519.1239527593367" stroke="#ff00ff" stroke-opacity=".52" stroke-width="1.5" filter="url(#skr1x4528)"/><polygon points="434.1,503.9 566.3,504.2 554.7,555.7 446.7,556.3" fill="#050508" fill-opacity=".72" stroke="#ff00ff" stroke-width="1.3" filter="url(#skr1x4528)"/><text x="30.0"  y="975.0" font-family="monospace" font-weight="bold" font-size="22.0" fill="rgba(255,255,255,.22)">#0001</text><text x="500.0"   y="975.0" text-anchor="middle" font-family="monospace" font-weight="bold" font-size="22.0" fill="#ff00ff" fill-opacity=".48">VOID RANGER</text><text x="970.0" y="975.0" text-anchor="end"    font-family="monospace" font-weight="bold" font-size="22.0" fill="#ff00ff" fill-opacity=".32">MECH RANGERS</text></svg>