<svg xmlns="http://www.w3.org/2000/svg" viewBox="0 0 1000 1000" width="1000" height="1000" shape-rendering="geometricPrecision"><defs>

  <!-- Scene gradients -->
  <radialGradient id="bgr1x4571" cx="50%" cy="42%" r="72%">
    <stop offset="0%"   stop-color="#1a2814"/>
    <stop offset="100%" stop-color="#0d1520"/>
  </radialGradient>
  <linearGradient id="suitr1x4571" x1="8%" y1="0%" x2="92%" y2="100%">
    <stop offset="0%"   stop-color="#ffd700" stop-opacity=".95"/>
    <stop offset="45%"  stop-color="#503400"/>
    <stop offset="100%" stop-color="#0d1520"/>
  </linearGradient>
  <linearGradient id="suitHir1x4571" x1="0%" y1="0%" x2="0%" y2="100%">
    <stop offset="0%"   stop-color="rgba(255,255,255,.28)"/>
    <stop offset="60%"  stop-color="rgba(255,255,255,.04)"/>
    <stop offset="100%" stop-color="rgba(255,255,255,0)"/>
  </linearGradient>
  <!-- Bevel: bright top, dark bottom for armour panels -->
  <linearGradient id="bevelr1x4571" x1="0%" y1="0%" x2="0%" y2="100%">
    <stop offset="0%"   stop-color="rgba(255,255,255,.55)"/>
    <stop offset="30%"  stop-color="#ffd700"/>
    <stop offset="70%"  stop-color="#503400"/>
    <stop offset="100%" stop-color="rgba(0,0,0,.5)"/>
  </linearGradient>

  <!-- Weapon: cold steel blade sweep -->
  <linearGradient id="blader1x4571" x1="0%" y1="0%" x2="100%" y2="0%">
    <stop offset="0%"   stop-color="#0e0e20"/>
    <stop offset="16%"  stop-color="#3e3e58"/>
    <stop offset="34%"  stop-color="#c8c8e0"/>
    <stop offset="50%"  stop-color="#f5f5ff"/>
    <stop offset="66%"  stop-color="#b8b8d0"/>
    <stop offset="84%"  stop-color="#2e2e48"/>
    <stop offset="100%" stop-color="#08080e"/>
  </linearGradient>
  <!-- Blade tip brightening -->
  <linearGradient id="bladeTipr1x4571" x1="0%" y1="100%" x2="0%" y2="0%">
    <stop offset="0%"   stop-color="rgba(255,255,255,0)"/>
    <stop offset="55%"  stop-color="rgba(255,255,255,.1)"/>
    <stop offset="100%" stop-color="rgba(255,255,255,.55)"/>
  </linearGradient>
  <!-- Gunmetal anodised — blaster body -->
  <linearGradient id="gunmetalr1x4571" x1="0%" y1="0%" x2="0%" y2="100%">
    <stop offset="0%"   stop-color="#46465e"/>
    <stop offset="18%"  stop-color="#828296"/>
    <stop offset="42%"  stop-color="#26263a"/>
    <stop offset="72%"  stop-color="#16162a"/>
    <stop offset="100%" stop-color="#0c0c18"/>
  </linearGradient>
  <!-- Brushed steel tube — barrel/rod -->
  <linearGradient id="barrelr1x4571" x1="0%" y1="0%" x2="100%" y2="0%">
    <stop offset="0%"   stop-color="#0a0a14"/>
    <stop offset="24%"  stop-color="#585875"/>
    <stop offset="50%"  stop-color="#a8a8c8"/>
    <stop offset="76%"  stop-color="#383852"/>
    <stop offset="100%" stop-color="#0a0a14"/>
  </linearGradient>
  <!-- Chrome rod — lance shaft -->
  <linearGradient id="chromer1x4571" x1="0%" y1="0%" x2="100%" y2="0%">
    <stop offset="0%"   stop-color="#0c0c18"/>
    <stop offset="20%"  stop-color="#686888"/>
    <stop offset="44%"  stop-color="#e0e0f0"/>
    <stop offset="56%"  stop-color="#c0c0d8"/>
    <stop offset="80%"  stop-color="#28283e"/>
    <stop offset="100%" stop-color="#0c0c18"/>
  </linearGradient>
  <!-- Titanium plate — shield face -->
  <linearGradient id="titaniumr1x4571" x1="0%" y1="0%" x2="100%" y2="100%">
    <stop offset="0%"   stop-color="#585878"/>
    <stop offset="28%"  stop-color="#ffd700" stop-opacity=".88"/>
    <stop offset="55%"  stop-color="#503400"/>
    <stop offset="80%"  stop-color="#181828"/>
    <stop offset="100%" stop-color="#0a0a18"/>
  </linearGradient>
  <!-- Artillery black-chrome — cannon body -->
  <linearGradient id="artilleryr1x4571" x1="0%" y1="0%" x2="0%" y2="100%">
    <stop offset="0%"   stop-color="#383850"/>
    <stop offset="14%"  stop-color="#78789a"/>
    <stop offset="36%"  stop-color="#202034"/>
    <stop offset="65%"  stop-color="#14141e"/>
    <stop offset="100%" stop-color="#0a0a12"/>
  </linearGradient>
  <!-- Energy orb — staff -->
  <radialGradient id="orbr1x4571" cx="35%" cy="35%" r="65%">
    <stop offset="0%"   stop-color="rgba(255,255,255,.9)"/>
    <stop offset="30%"  stop-color="#ffd700"/>
    <stop offset="68%"  stop-color="#503400"/>
    <stop offset="100%" stop-color="rgba(0,0,0,.6)"/>
  </radialGradient>
  <!-- Knuckle plate chrome -->
  <linearGradient id="knuckler1x4571" x1="0%" y1="0%" x2="0%" y2="100%">
    <stop offset="0%"   stop-color="#888aaa"/>
    <stop offset="32%"  stop-color="#ffd700" stop-opacity=".8"/>
    <stop offset="62%"  stop-color="#1a1a2c"/>
    <stop offset="100%" stop-color="#0a0a14"/>
  </linearGradient>

  <!-- Carbon fibre weave texture overlay -->
  <pattern id="carbonr1x4571" width="6" height="6" patternUnits="userSpaceOnUse">
    <rect width="6" height="6" fill="rgba(0,0,0,.08)"/>
    <rect x="0" y="0" width="3" height="3" fill="rgba(255,255,255,.022)"/>
    <rect x="3" y="3" width="3" height="3" fill="rgba(255,255,255,.022)"/>
    <line x1="0" y1="0" x2="3" y2="3" stroke="rgba(255,255,255,.038)" stroke-width=".5"/>
    <line x1="3" y1="0" x2="6" y2="3" stroke="rgba(0,0,0,.055)"       stroke-width=".5"/>
    <line x1="0" y1="3" x2="3" y2="6" stroke="rgba(0,0,0,.055)"       stroke-width=".5"/>
    <line x1="3" y1="3" x2="6" y2="6" stroke="rgba(255,255,255,.038)" stroke-width=".5"/>
  </pattern>

  <!-- Specular metal sheen on armour panels -->
  <filter id="metalr1x4571" x="-5%" y="-5%" width="110%" height="110%">
    <feSpecularLighting surfaceScale="4" specularConstant="1.8"
        specularExponent="42" lighting-color="#ffffff" result="spec">
      <feDistantLight elevation="52" azimuth="38"/>
    </feSpecularLighting>
    <feComposite in="spec" in2="SourceGraphic" operator="in" result="sm"/>
    <feComposite in="SourceGraphic" in2="sm" operator="arithmetic" k1="0" k2="1" k3="0.55" k4="0"/>
  </filter>

  <!-- Sharper specular for weapons — heavier glare -->
  <filter id="wmr1x4571" x="-8%" y="-8%" width="116%" height="116%">
    <feSpecularLighting surfaceScale="6" specularConstant="2.4"
        specularExponent="65" lighting-color="#ffffff" result="spec">
      <feDistantLight elevation="44" azimuth="28"/>
    </feSpecularLighting>
    <feComposite in="spec" in2="SourceGraphic" operator="in" result="sm"/>
    <feComposite in="SourceGraphic" in2="sm" operator="arithmetic" k1="0" k2="1" k3="0.78" k4="0"/>
  </filter>

  <!-- Sketch wobble -->
  <filter id="skr1x4571" x="-8%" y="-8%" width="116%" height="116%">
    <feTurbulence type="fractalNoise" baseFrequency="0.038"
        numOctaves="3" seed="52" result="noise"/>
    <feDisplacementMap in="SourceGraphic" in2="noise" scale="2.6"
        xChannelSelector="R" yChannelSelector="G" result="w"/>
    <feComposite in="w" in2="SourceGraphic" operator="atop"/>
  </filter>

  <!-- Glow: sharp accent -->
  <filter id="glowr1x4571" x="-20%" y="-20%" width="140%" height="140%">
    <feGaussianBlur stdDeviation="3.5" result="b"/>
    <feColorMatrix in="b" type="matrix"
        values="0 0 0 0 1  0 0 0 0 1  0 0 0 0 1  0 0 0 1.8 0" result="boost"/>
    <feMerge><feMergeNode in="boost"/><feMergeNode in="SourceGraphic"/></feMerge>
  </filter>

  <!-- Bloom: wide soft -->
  <filter id="bloomr1x4571" x="-40%" y="-40%" width="180%" height="180%">
    <feGaussianBlur stdDeviation="11" result="b"/>
    <feMerge><feMergeNode in="b"/><feMergeNode in="SourceGraphic"/></feMerge>
  </filter>

  </defs><rect width="1000" height="1000" fill="url(#bgr1x4571)"/><ellipse cx="500.0" cy="892.0" rx="350.0" ry="65.0" fill="rgba(0,0,0,.7)" filter="url(#bloomr1x4571)"/><ellipse cx="500.0" cy="889.0" rx="220.0" ry="34.0" fill="rgba(0,0,0,.45)"/><ellipse cx="500.0" cy="520.0" rx="320.0" ry="480.0" fill="#00e5ff" fill-opacity=".042" filter="url(#bloomr1x4571)"/><circle cx="503.4" cy="188.6" r="1.5" fill="#00e5ff" fill-opacity="0.42" filter="url(#glowr1x4571)"/><circle cx="697.0" cy="263.2" r="1.1" fill="#00e5ff" fill-opacity="0.55" filter="url(#glowr1x4571)"/><circle cx="730.8" cy="233.2" r="3.3" fill="#00e5ff" fill-opacity="0.45" filter="url(#glowr1x4571)"/><circle cx="489.8" cy="711.8" r="3.8" fill="#00e5ff" fill-opacity="0.85" filter="url(#glowr1x4571)"/><circle cx="299.5" cy="550.9" r="2.1" fill="#00e5ff" fill-opacity="0.55" filter="url(#glowr1x4571)"/><circle cx="515.6" cy="530.9" r="2.3" fill="#00e5ff" fill-opacity="0.45" filter="url(#glowr1x4571)"/><circle cx="331.6" cy="714.4" r="3.0" fill="#00e5ff" fill-opacity="0.67" filter="url(#glowr1x4571)"/><circle cx="562.7" cy="785.4" r="1.5" fill="#00e5ff" fill-opacity="0.45" filter="url(#glowr1x4571)"/><circle cx="462.6" cy="181.0" r="4.0" fill="#00e5ff" fill-opacity="0.86" filter="url(#glowr1x4571)"/><circle cx="386.0" cy="605.1" r="0.9" fill="#00e5ff" fill-opacity="0.43" filter="url(#glowr1x4571)"/><circle cx="576.6" cy="760.0" r="4.0" fill="#00e5ff" fill-opacity="0.59" filter="url(#glowr1x4571)"/><circle cx="671.1" cy="574.9" r="3.3" fill="#00e5ff" fill-opacity="0.63" filter="url(#glowr1x4571)"/><circle cx="651.0" cy="346.1" r="1.9" fill="#00e5ff" fill-opacity="0.57" filter="url(#glowr1x4571)"/><circle cx="315.3" cy="216.3" r="0.7" fill="#00e5ff" fill-opacity="0.58" filter="url(#glowr1x4571)"/><path d="M625.8,331.0 Q649.0,526.2 367.5,746.1" stroke="#00e5ff" stroke-opacity="0.72" stroke-width="0.9" fill="none" filter="url(#glowr1x4571)"/><path d="M385.9,343.7 Q410.6,598.3 581.2,850.7" stroke="#00e5ff" stroke-opacity="0.53" stroke-width="1.7" fill="none" filter="url(#glowr1x4571)"/><path d="M444.1,179.7 Q439.9,493.0 569.7,842.6" stroke="#00e5ff" stroke-opacity="0.59" stroke-width="1.3" fill="none" filter="url(#glowr1x4571)"/><path d="M487.2,263.0 Q510.9,516.8 444.1,762.7" stroke="#00e5ff" stroke-opacity="0.39" stroke-width="1.9" fill="none" filter="url(#glowr1x4571)"/><path d="M355.5,329.8 Q351.4,589.0 577.3,797.9" stroke="#00e5ff" stroke-opacity="0.42" stroke-width="1.2" fill="none" filter="url(#glowr1x4571)"/><polygon points="398.2,663.8 488.4,660.8 482.2,878.2 385.8,878.7" fill="url(#suitr1x4571)" stroke="#ffd700" stroke-width="2.2" filter="url(#skr1x4571) url(#metalr1x4571)"/><polygon points="397.5,662.2 488.7,663.2 479.7,877.0 388.7,877.1" fill="url(#carbonr1x4571)"/><polygon points="392.8,722.6 493.8,722.6 484.0,789.6 384.4,788.8" fill="url(#bevelr1x4571)" fill-opacity=".5" stroke="#ffd700" stroke-width="1.4" filter="url(#skr1x4571)"/><polygon points="510.0,660.9 600.1,663.9 613.3,876.6 518.9,878.2" fill="url(#suitr1x4571)" stroke="#ffd700" stroke-width="2.2" filter="url(#skr1x4571) url(#metalr1x4571)"/><polygon points="511.9,661.4 600.8,662.1 612.2,876.2 520.5,875.7" fill="url(#carbonr1x4571)"/><polygon points="508.2,725.5 608.4,723.2 617.4,787.8 515.9,789.1" fill="url(#bevelr1x4571)" fill-opacity=".5" stroke="#ffd700" stroke-width="1.4" filter="url(#skr1x4571)"/><rect x="391.0" y="840.2" width="100.3" height="24.7" fill="url(#bevelr1x4571)" stroke="#ffd700" stroke-width="1" filter="url(#skr1x4571)"/><rect x="505.7"  y="837.2" width="100.3" height="24.7" fill="url(#bevelr1x4571)" stroke="#ffd700" stroke-width="1" filter="url(#skr1x4571)"/><polygon points="368.3,879.0 495.3,875.9 502.3,922.7 362.2,922.0" fill="#503400" stroke="#ffd700" stroke-width="2" filter="url(#skr1x4571)"/><polygon points="503.0,878.5 630.9,878.3 635.8,921.4 497.9,921.8" fill="#503400" stroke="#ffd700" stroke-width="2" filter="url(#skr1x4571)"/><polygon points="304.8,633.5 695.3,633.0 636.2,682.6 362.1,681.1" fill="#ffd700" fill-opacity=".52" stroke="#ffd700" stroke-width="2" filter="url(#skr1x4571)"/><rect x="462.3" y="639.3" width="72.0" height="42.0" fill="url(#bevelr1x4571)" stroke="#ffd700" stroke-width="1.4" filter="url(#glowr1x4571)"/><rect x="487.6" y="642.0" width="28.0" height="22.0" rx="1" fill="rgba(255,255,255,.48)"/><polygon points="154.5,468.2 236.4,466.9 256.2,733.3 127.7,733.7" fill="url(#suitr1x4571)" stroke="#ffd700" stroke-width="2.2" filter="url(#skr1x4571) url(#metalr1x4571)"/><polygon points="174.4,434.0 254.7,432.8 242.2,512.4 160.7,511.2" fill="url(#bevelr1x4571)" fill-opacity=".72" stroke="#ffd700" stroke-width="2.2" filter="url(#skr1x4571)"/><polygon points="160.2,621.5 242.0,621.1 238.3,659.9 166.6,659.4" fill="#ffd700" fill-opacity=".42" stroke="#ffd700" stroke-width="1" filter="url(#skr1x4571)"/><polygon points="765.9,465.6 846.7,465.6 871.4,736.7 742.6,735.8" fill="url(#suitr1x4571)" stroke="#ffd700" stroke-width="2.2" filter="url(#skr1x4571) url(#metalr1x4571)"/><polygon points="746.6,431.1 827.1,431.7 841.3,509.9 756.3,511.0" fill="url(#bevelr1x4571)" fill-opacity=".72" stroke="#ffd700" stroke-width="2.2" filter="url(#skr1x4571)"/><polygon points="757.6,622.1 838.3,622.1 833.0,660.9 762.3,659.6" fill="#ffd700" fill-opacity=".42" stroke="#ffd700" stroke-width="1" filter="url(#skr1x4571)"/><rect x="121.7"  y="698.6" width="135.3" height="85.0" rx="4" fill="url(#bevelr1x4571)" stroke="#ffd700" stroke-width="1.8" filter="url(#skr1x4571)"/><rect x="748.7"   y="698.9" width="135.3" height="85.0" rx="4" fill="url(#bevelr1x4571)" stroke="#ffd700" stroke-width="1.8" filter="url(#skr1x4571)"/><line x1="148.2" y1="701.4" x2="150.0" y2="782.4" stroke="#ffd700" stroke-opacity=".38" stroke-width="1"/><line x1="779.6" y1="701.5" x2="779.8" y2="783.6" stroke="#ffd700" stroke-opacity=".38" stroke-width="1"/><line x1="183.4" y1="700.1" x2="183.2" y2="785.6" stroke="#ffd700" stroke-opacity=".38" stroke-width="1"/><line x1="810.1" y1="700.5" x2="810.0" y2="784.8" stroke="#ffd700" stroke-opacity=".38" stroke-width="1"/><line x1="216.2" y1="703.6" x2="216.5" y2="785.2" stroke="#ffd700" stroke-opacity=".38" stroke-width="1"/><line x1="844.7" y1="700.4" x2="845.4" y2="782.6" stroke="#ffd700" stroke-opacity=".38" stroke-width="1"/><polygon points="233.4,417.5 764.5,418.8 722.3,660.8 277.6,664.0" fill="url(#suitr1x4571)" stroke="#ffd700" stroke-width="2.6" filter="url(#skr1x4571) url(#metalr1x4571)"/><polygon points="233.7,415.8 766.5,415.9 722.0,662.7 279.1,662.0" fill="url(#carbonr1x4571)"/><polygon points="366.5,419.1 634.0,418.9 610.6,514.9 387.1,514.8" fill="url(#suitHir1x4571)"/><line x1="360.9" y1="470.6" x2="636.0" y2="470.6" stroke="#ffd700" stroke-opacity=".52" stroke-width="1.3" filter="url(#skr1x4571)"/><line x1="401.1" y1="550.5" x2="599.8" y2="551.6" stroke="#ffd700" stroke-opacity=".52" stroke-width="1.3" filter="url(#skr1x4571)"/><line x1="266.1" y1="492.1" x2="318.0" y2="491.7" stroke="#ffd700" stroke-opacity=".62" stroke-width="1.8"/><line x1="681.0" y1="492.0" x2="732.4" y2="490.4" stroke="#ffd700" stroke-opacity=".62" stroke-width="1.8"/><line x1="266.6" y1="521.4" x2="321.2" y2="522.4" stroke="#ffd700" stroke-opacity=".62" stroke-width="1.8"/><line x1="679.0" y1="523.3" x2="733.7" y2="524.4" stroke="#ffd700" stroke-opacity=".62" stroke-width="1.8"/><line x1="267.3" y1="554.5" x2="320.9" y2="554.1" stroke="#ffd700" stroke-opacity=".62" stroke-width="1.8"/><line x1="679.3" y1="555.9" x2="733.4" y2="553.4" stroke="#ffd700" stroke-opacity=".62" stroke-width="1.8"/><line x1="266.3" y1="585.8" x2="319.4" y2="585.3" stroke="#ffd700" stroke-opacity=".62" stroke-width="1.8"/><line x1="678.6" y1="587.3" x2="734.5" y2="586.0" stroke="#ffd700" stroke-opacity=".62" stroke-width="1.8"/><g filter="url(#glowr1x4571)"><path d="M500,510.6 C389.1075952414423,449.2061813173816 440.7214511251077,545.9284820681811 500,531.7180276545882" fill="#ffd700" fill-opacity=".88" stroke="#ffd700" stroke-width="1.2" filter="url(#skr1x4571)"/><path d="M500,510.6 C606.9759642064571,452.98053177427505 560.5966324936599,549.033642221652 500,527.7870112317801" fill="#ffd700" fill-opacity=".88" stroke="#ffd700" stroke-width="1.2" filter="url(#skr1x4571)"/><path d="M500,493.20000000000005 C453.37620685379954,464.9186181698926 476.91493055382745,516.9468735801987 500,522.491203411296" fill="rgba(255,255,255,.14)"/><path d="M500,493.20000000000005 C548.8900351441465,463.3675574681722 524.0630035151728,515.0378416619263 500,522.9201407197863" fill="rgba(255,255,255,.14)"/></g><g><polygon points="76.2,671.4 128.2,671.4 112.6,-28.6 91.8,-28.6" fill="url(#blader1x4571)" filter="url(#wmr1x4571)"/><polygon points="91.8,-28.6 112.6,-28.6 102.2,-138.6" fill="url(#blader1x4571)" filter="url(#wmr1x4571)"/><polygon points="100.3,671.4 104.0,671.4 102.7,-128.6 101.6,-128.6" fill="url(#bladeTipr1x4571)" opacity=".9"/><line x1="111.7663071465492" y1="670.8330284968949" x2="101.68779250625518" y2="-130.16150839058685" stroke="rgba(255,255,255,.68)" stroke-width="1.5"/><line x1="93.93871868774292" y1="669.8052550784312" x2="102.86084890596565" y2="-129.14989359835164" stroke="#ffd700" stroke-width="1" stroke-opacity=".45"/><line x1="106.8" y1="651.4" x2="104.0" y2="11.4" stroke="rgba(0,0,0,.38)" stroke-width="1.6"/><line x1="97.5" y1="651.4" x2="100.3" y2="11.4" stroke="rgba(0,0,0,.38)" stroke-width="1.6"/><rect x="44.63887871600684" y="669.9621512038633" width="112.0" height="28.0" rx="3" fill="url(#bevelr1x4571)" stroke="#ffd700" stroke-width="1.6" filter="url(#wmr1x4571)"/><rect x="71.81917314114045" y="673.5835466600023" width="64.0" height="10.0" rx="1" fill="rgba(255,255,255,.32)"/><rect x="91.77309034442526" y="678.0518405400217" width="24.0" height="6.0" rx="1" fill="#ffd700" fill-opacity=".35"/><rect x="91.02946334876117" y="686.8603283762932" width="24.0" height="6.0" rx="1" fill="#ffd700" fill-opacity=".35"/><rect x="91.23094073779878" y="692.3133582426235" width="24.0" height="6.0" rx="1" fill="#ffd700" fill-opacity=".35"/><rect x="88.44125835862008" y="700.849517116975" width="24.0" height="6.0" rx="1" fill="#ffd700" fill-opacity=".35"/><rect x="88.65118316126984" y="708.8354066758417" width="24.0" height="6.0" rx="1" fill="#ffd700" fill-opacity=".35"/><rect x="88.38741269664835" y="717.3884425373748" width="24.0" height="6.0" rx="1" fill="#ffd700" fill-opacity=".35"/><ellipse cx="101.26877195084464" cy="726.011587443389" rx="22.0" ry="16.0" fill="url(#bevelr1x4571)" stroke="#ffd700" stroke-width="1.2" filter="url(#wmr1x4571)"/></g><rect x="449.6080664170906" y="556.9894669047557" width="100.0"  height="56.0" fill="#503400" stroke="#ffd700" stroke-width="2.2" filter="url(#skr1x4571)"/><rect x="422.5942100642249" y="573.7923947239295" width="152.0" height="26.0" fill="url(#bevelr1x4571)" fill-opacity=".65" stroke="#ffd700" stroke-width="1.2" filter="url(#skr1x4571)"/><polygon points="306.3,379.6 351.9,294.3 498.8,277.6 648.1,292.7 692.7,379.3 669.7,503.1 500.0,566.4 331.9,502.1" fill="url(#suitr1x4571)" stroke="#ffd700" stroke-width="2.8" filter="url(#skr1x4571) url(#metalr1x4571)"/><polygon points="308.6,379.0 349.0,295.3 501.4,277.9 650.5,296.0 690.7,381.1 670.5,504.8 499.8,564.8 331.4,503.4" fill="url(#carbonr1x4571)"/><polygon points="379.7,303.4 500.4,284.9 618.1,303.1 606.3,381.5 391.3,382.2" fill="url(#suitHir1x4571)"/><polygon points="381.9,381.3 365.8,426.5 433.1,503.4 500.6,527.7 566.8,504.8 634.9,424.4 620.7,381.9" fill="#0d1520" fill-opacity=".88" stroke="#ffd700" stroke-width="1.8" filter="url(#skr1x4571)"/><polygon points="382.2,412.2 476.8,411.4 484.0,439.9 388.2,440.8" fill="#ffd700" filter="url(#glowr1x4571)"/><polygon points="523.2,409.6 618.4,413.0 610.2,440.1 515.4,441.8" fill="#ffd700" filter="url(#glowr1x4571)"/><ellipse cx="430.9" cy="425.7" rx="38.4"  ry="8.2" fill="#ffffff" opacity=".88"/><ellipse cx="569.1" cy="425.7" rx="38.4"  ry="8.2" fill="#ffffff" opacity=".88"/><line x1="484.9041019697301" y1="412.96733276154845" x2="513.8590107188933" y2="413.80411209510635" stroke="#ffd700" stroke-opacity=".52" stroke-width="2"/><line x1="483.12167988937347" y1="436.6944635647349" x2="516.5842623027414" y2="439.2642836054787" stroke="#ffd700" stroke-opacity=".52" stroke-width="2"/><line x1="499.1718168965541" y1="452.62583803879096" x2="500.1031070993282" y2="484.1466936563142" stroke="#ffd700" stroke-opacity=".58" stroke-width="2.2" filter="url(#skr1x4571)"/><line x1="454.58679843934254" y1="492.47895805155855" x2="453.85258790588006" y2="520.7775806613266" stroke="#ffd700" stroke-opacity=".52" stroke-width="1.5" filter="url(#skr1x4571)"/><line x1="476.98228792728855" y1="492.89773080525913" x2="476.2768525001034" y2="519.5531519551762" stroke="#ffd700" stroke-opacity=".52" stroke-width="1.5" filter="url(#skr1x4571)"/><line x1="501.1179694498889" y1="490.2158181442879" x2="500.9712656774558" y2="518.720047372859" stroke="#ffd700" stroke-opacity=".52" stroke-width="1.5" filter="url(#skr1x4571)"/><line x1="522.8112626770138" y1="490.36298688352105" x2="523.3961876551248" y2="521.7814718759619" stroke="#ffd700" stroke-opacity=".52" stroke-width="1.5" filter="url(#skr1x4571)"/><line x1="544.945515482612" y1="492.93365040607745" x2="547.1749255252257" y2="521.5359120674432" stroke="#ffd700" stroke-opacity=".52" stroke-width="1.5" filter="url(#skr1x4571)"/><polygon points="434.4,505.2 567.0,503.8 552.7,557.8 446.0,555.4" fill="#503400" fill-opacity=".72" stroke="#ffd700" stroke-width="1.3" filter="url(#skr1x4571)"/><text x="30.0"  y="975.0" font-family="monospace" font-weight="bold" font-size="22.0" fill="rgba(255,255,255,.22)">#0001</text><text x="500.0"   y="975.0" text-anchor="middle" font-family="monospace" font-weight="bold" font-size="22.0" fill="#ffd700" fill-opacity=".48">IMPERIAL RANGER</text><text x="970.0" y="975.0" text-anchor="end"    font-family="monospace" font-weight="bold" font-size="22.0" fill="#ffd700" fill-opacity=".32">MECH RANGERS</text></svg>