<svg xmlns="http://www.w3.org/2000/svg" viewBox="0 0 1000 1000" width="1000" height="1000" shape-rendering="geometricPrecision"><defs>

  <!-- Scene gradients -->
  <radialGradient id="bgr1x4631" cx="50%" cy="42%" r="72%">
    <stop offset="0%"   stop-color="#0e000e"/>
    <stop offset="100%" stop-color="#1e0600"/>
  </radialGradient>
  <linearGradient id="suitr1x4631" x1="8%" y1="0%" x2="92%" y2="100%">
    <stop offset="0%"   stop-color="#ffd700" stop-opacity=".95"/>
    <stop offset="45%"  stop-color="#503400"/>
    <stop offset="100%" stop-color="#1e0600"/>
  </linearGradient>
  <linearGradient id="suitHir1x4631" x1="0%" y1="0%" x2="0%" y2="100%">
    <stop offset="0%"   stop-color="rgba(255,255,255,.28)"/>
    <stop offset="60%"  stop-color="rgba(255,255,255,.04)"/>
    <stop offset="100%" stop-color="rgba(255,255,255,0)"/>
  </linearGradient>
  <!-- Bevel: bright top, dark bottom for armour panels -->
  <linearGradient id="bevelr1x4631" x1="0%" y1="0%" x2="0%" y2="100%">
    <stop offset="0%"   stop-color="rgba(255,255,255,.55)"/>
    <stop offset="30%"  stop-color="#ffd700"/>
    <stop offset="70%"  stop-color="#503400"/>
    <stop offset="100%" stop-color="rgba(0,0,0,.5)"/>
  </linearGradient>

  <!-- Weapon: cold steel blade sweep -->
  <linearGradient id="blader1x4631" x1="0%" y1="0%" x2="100%" y2="0%">
    <stop offset="0%"   stop-color="#0e0e20"/>
    <stop offset="16%"  stop-color="#3e3e58"/>
    <stop offset="34%"  stop-color="#c8c8e0"/>
    <stop offset="50%"  stop-color="#f5f5ff"/>
    <stop offset="66%"  stop-color="#b8b8d0"/>
    <stop offset="84%"  stop-color="#2e2e48"/>
    <stop offset="100%" stop-color="#08080e"/>
  </linearGradient>
  <!-- Blade tip brightening -->
  <linearGradient id="bladeTipr1x4631" x1="0%" y1="100%" x2="0%" y2="0%">
    <stop offset="0%"   stop-color="rgba(255,255,255,0)"/>
    <stop offset="55%"  stop-color="rgba(255,255,255,.1)"/>
    <stop offset="100%" stop-color="rgba(255,255,255,.55)"/>
  </linearGradient>
  <!-- Gunmetal anodised — blaster body -->
  <linearGradient id="gunmetalr1x4631" x1="0%" y1="0%" x2="0%" y2="100%">
    <stop offset="0%"   stop-color="#46465e"/>
    <stop offset="18%"  stop-color="#828296"/>
    <stop offset="42%"  stop-color="#26263a"/>
    <stop offset="72%"  stop-color="#16162a"/>
    <stop offset="100%" stop-color="#0c0c18"/>
  </linearGradient>
  <!-- Brushed steel tube — barrel/rod -->
  <linearGradient id="barrelr1x4631" x1="0%" y1="0%" x2="100%" y2="0%">
    <stop offset="0%"   stop-color="#0a0a14"/>
    <stop offset="24%"  stop-color="#585875"/>
    <stop offset="50%"  stop-color="#a8a8c8"/>
    <stop offset="76%"  stop-color="#383852"/>
    <stop offset="100%" stop-color="#0a0a14"/>
  </linearGradient>
  <!-- Chrome rod — lance shaft -->
  <linearGradient id="chromer1x4631" x1="0%" y1="0%" x2="100%" y2="0%">
    <stop offset="0%"   stop-color="#0c0c18"/>
    <stop offset="20%"  stop-color="#686888"/>
    <stop offset="44%"  stop-color="#e0e0f0"/>
    <stop offset="56%"  stop-color="#c0c0d8"/>
    <stop offset="80%"  stop-color="#28283e"/>
    <stop offset="100%" stop-color="#0c0c18"/>
  </linearGradient>
  <!-- Titanium plate — shield face -->
  <linearGradient id="titaniumr1x4631" x1="0%" y1="0%" x2="100%" y2="100%">
    <stop offset="0%"   stop-color="#585878"/>
    <stop offset="28%"  stop-color="#ffd700" stop-opacity=".88"/>
    <stop offset="55%"  stop-color="#503400"/>
    <stop offset="80%"  stop-color="#181828"/>
    <stop offset="100%" stop-color="#0a0a18"/>
  </linearGradient>
  <!-- Artillery black-chrome — cannon body -->
  <linearGradient id="artilleryr1x4631" x1="0%" y1="0%" x2="0%" y2="100%">
    <stop offset="0%"   stop-color="#383850"/>
    <stop offset="14%"  stop-color="#78789a"/>
    <stop offset="36%"  stop-color="#202034"/>
    <stop offset="65%"  stop-color="#14141e"/>
    <stop offset="100%" stop-color="#0a0a12"/>
  </linearGradient>
  <!-- Energy orb — staff -->
  <radialGradient id="orbr1x4631" cx="35%" cy="35%" r="65%">
    <stop offset="0%"   stop-color="rgba(255,255,255,.9)"/>
    <stop offset="30%"  stop-color="#ffd700"/>
    <stop offset="68%"  stop-color="#503400"/>
    <stop offset="100%" stop-color="rgba(0,0,0,.6)"/>
  </radialGradient>
  <!-- Knuckle plate chrome -->
  <linearGradient id="knuckler1x4631" x1="0%" y1="0%" x2="0%" y2="100%">
    <stop offset="0%"   stop-color="#888aaa"/>
    <stop offset="32%"  stop-color="#ffd700" stop-opacity=".8"/>
    <stop offset="62%"  stop-color="#1a1a2c"/>
    <stop offset="100%" stop-color="#0a0a14"/>
  </linearGradient>

  <!-- Carbon fibre weave texture overlay -->
  <pattern id="carbonr1x4631" width="6" height="6" patternUnits="userSpaceOnUse">
    <rect width="6" height="6" fill="rgba(0,0,0,.08)"/>
    <rect x="0" y="0" width="3" height="3" fill="rgba(255,255,255,.022)"/>
    <rect x="3" y="3" width="3" height="3" fill="rgba(255,255,255,.022)"/>
    <line x1="0" y1="0" x2="3" y2="3" stroke="rgba(255,255,255,.038)" stroke-width=".5"/>
    <line x1="3" y1="0" x2="6" y2="3" stroke="rgba(0,0,0,.055)"       stroke-width=".5"/>
    <line x1="0" y1="3" x2="3" y2="6" stroke="rgba(0,0,0,.055)"       stroke-width=".5"/>
    <line x1="3" y1="3" x2="6" y2="6" stroke="rgba(255,255,255,.038)" stroke-width=".5"/>
  </pattern>

  <!-- Specular metal sheen on armour panels -->
  <filter id="metalr1x4631" x="-5%" y="-5%" width="110%" height="110%">
    <feSpecularLighting surfaceScale="4" specularConstant="1.8"
        specularExponent="42" lighting-color="#ffffff" result="spec">
      <feDistantLight elevation="52" azimuth="38"/>
    </feSpecularLighting>
    <feComposite in="spec" in2="SourceGraphic" operator="in" result="sm"/>
    <feComposite in="SourceGraphic" in2="sm" operator="arithmetic" k1="0" k2="1" k3="0.55" k4="0"/>
  </filter>

  <!-- Sharper specular for weapons — heavier glare -->
  <filter id="wmr1x4631" x="-8%" y="-8%" width="116%" height="116%">
    <feSpecularLighting surfaceScale="6" specularConstant="2.4"
        specularExponent="65" lighting-color="#ffffff" result="spec">
      <feDistantLight elevation="44" azimuth="28"/>
    </feSpecularLighting>
    <feComposite in="spec" in2="SourceGraphic" operator="in" result="sm"/>
    <feComposite in="SourceGraphic" in2="sm" operator="arithmetic" k1="0" k2="1" k3="0.78" k4="0"/>
  </filter>

  <!-- Sketch wobble -->
  <filter id="skr1x4631" x="-8%" y="-8%" width="116%" height="116%">
    <feTurbulence type="fractalNoise" baseFrequency="0.038"
        numOctaves="3" seed="85" result="noise"/>
    <feDisplacementMap in="SourceGraphic" in2="noise" scale="2.6"
        xChannelSelector="R" yChannelSelector="G" result="w"/>
    <feComposite in="w" in2="SourceGraphic" operator="atop"/>
  </filter>

  <!-- Glow: sharp accent -->
  <filter id="glowr1x4631" x="-20%" y="-20%" width="140%" height="140%">
    <feGaussianBlur stdDeviation="3.5" result="b"/>
    <feColorMatrix in="b" type="matrix"
        values="0 0 0 0 1  0 0 0 0 1  0 0 0 0 1  0 0 0 1.8 0" result="boost"/>
    <feMerge><feMergeNode in="boost"/><feMergeNode in="SourceGraphic"/></feMerge>
  </filter>

  <!-- Bloom: wide soft -->
  <filter id="bloomr1x4631" x="-40%" y="-40%" width="180%" height="180%">
    <feGaussianBlur stdDeviation="11" result="b"/>
    <feMerge><feMergeNode in="b"/><feMergeNode in="SourceGraphic"/></feMerge>
  </filter>

  </defs><rect width="1000" height="1000" fill="url(#bgr1x4631)"/><ellipse cx="500.0" cy="1000" rx="850.0" ry="350.0" fill="#ff4500" fill-opacity=".11" filter="url(#bloomr1x4631)"/><ellipse cx="500.0" cy="892.0" rx="350.0" ry="65.0" fill="rgba(0,0,0,.7)" filter="url(#bloomr1x4631)"/><ellipse cx="500.0" cy="889.0" rx="220.0" ry="34.0" fill="rgba(0,0,0,.45)"/><ellipse cx="500.0" cy="520.0" rx="320.0" ry="480.0" fill="#6600ff" fill-opacity=".042" filter="url(#bloomr1x4631)"/><circle cx="293.7" cy="182.8" r="2.3" fill="#6600ff" fill-opacity="0.45" filter="url(#glowr1x4631)"/><circle cx="468.4" cy="609.5" r="3.9" fill="#6600ff" fill-opacity="0.58" filter="url(#glowr1x4631)"/><circle cx="674.5" cy="498.8" r="0.9" fill="#6600ff" fill-opacity="0.62" filter="url(#glowr1x4631)"/><circle cx="411.6" cy="450.5" r="1.0" fill="#6600ff" fill-opacity="0.86" filter="url(#glowr1x4631)"/><circle cx="603.7" cy="420.3" r="1.0" fill="#6600ff" fill-opacity="0.78" filter="url(#glowr1x4631)"/><circle cx="585.7" cy="213.4" r="0.8" fill="#6600ff" fill-opacity="0.63" filter="url(#glowr1x4631)"/><circle cx="654.4" cy="355.2" r="3.8" fill="#6600ff" fill-opacity="0.78" filter="url(#glowr1x4631)"/><circle cx="698.8" cy="330.4" r="1.1" fill="#6600ff" fill-opacity="0.54" filter="url(#glowr1x4631)"/><circle cx="603.6" cy="600.8" r="3.0" fill="#6600ff" fill-opacity="0.50" filter="url(#glowr1x4631)"/><circle cx="482.2" cy="643.8" r="1.6" fill="#6600ff" fill-opacity="0.47" filter="url(#glowr1x4631)"/><circle cx="348.2" cy="260.2" r="1.4" fill="#6600ff" fill-opacity="0.88" filter="url(#glowr1x4631)"/><circle cx="353.1" cy="747.2" r="2.3" fill="#6600ff" fill-opacity="0.44" filter="url(#glowr1x4631)"/><circle cx="705.7" cy="721.7" r="2.2" fill="#6600ff" fill-opacity="0.81" filter="url(#glowr1x4631)"/><circle cx="677.9" cy="773.4" r="0.8" fill="#6600ff" fill-opacity="0.71" filter="url(#glowr1x4631)"/><polygon points="398.8,663.3 488.6,661.7 479.8,875.7 387.2,877.4" fill="url(#suitr1x4631)" stroke="#ffd700" stroke-width="2.2" filter="url(#skr1x4631) url(#metalr1x4631)"/><polygon points="398.9,663.1 489.7,663.2 479.2,876.6 387.8,876.4" fill="url(#carbonr1x4631)"/><polygon points="391.0,723.8 491.7,724.3 484.5,787.2 383.8,787.6" fill="url(#bevelr1x4631)" fill-opacity=".5" stroke="#ffd700" stroke-width="1.4" filter="url(#skr1x4631)"/><polygon points="509.0,661.2 601.0,663.0 614.3,877.1 518.6,878.4" fill="url(#suitr1x4631)" stroke="#ffd700" stroke-width="2.2" filter="url(#skr1x4631) url(#metalr1x4631)"/><polygon points="508.9,663.9 600.1,664.2 613.9,878.0 520.3,877.3" fill="url(#carbonr1x4631)"/><polygon points="506.4,725.5 607.3,723.2 617.4,787.1 514.5,789.1" fill="url(#bevelr1x4631)" fill-opacity=".5" stroke="#ffd700" stroke-width="1.4" filter="url(#skr1x4631)"/><rect x="394.4" y="838.1" width="100.3" height="24.7" fill="url(#bevelr1x4631)" stroke="#ffd700" stroke-width="1" filter="url(#skr1x4631)"/><rect x="508.8"  y="838.4" width="100.3" height="24.7" fill="url(#bevelr1x4631)" stroke="#ffd700" stroke-width="1" filter="url(#skr1x4631)"/><polygon points="370.7,878.8 496.4,876.3 503.8,919.8 362.6,919.7" fill="#503400" stroke="#ffd700" stroke-width="2" filter="url(#skr1x4631)"/><polygon points="501.9,876.3 629.7,876.9 636.3,919.8 497.3,920.9" fill="#503400" stroke="#ffd700" stroke-width="2" filter="url(#skr1x4631)"/><polygon points="304.5,631.9 695.8,633.4 636.7,683.9 361.9,683.1" fill="#ffd700" fill-opacity=".52" stroke="#ffd700" stroke-width="2" filter="url(#skr1x4631)"/><rect x="462.9" y="636.4" width="72.0" height="42.0" fill="url(#bevelr1x4631)" stroke="#ffd700" stroke-width="1.4" filter="url(#glowr1x4631)"/><rect x="484.5" y="641.8" width="28.0" height="22.0" rx="1" fill="rgba(255,255,255,.48)"/><polygon points="153.5,465.8 234.3,466.0 256.8,735.4 128.6,735.8" fill="url(#suitr1x4631)" stroke="#ffd700" stroke-width="2.2" filter="url(#skr1x4631) url(#metalr1x4631)"/><polygon points="173.9,430.5 254.4,431.2 241.9,511.3 160.8,508.8" fill="url(#bevelr1x4631)" fill-opacity=".72" stroke="#ffd700" stroke-width="2.2" filter="url(#skr1x4631)"/><polygon points="161.8,621.3 244.0,623.4 240.8,660.1 164.1,660.4" fill="#ffd700" fill-opacity=".42" stroke="#ffd700" stroke-width="1" filter="url(#skr1x4631)"/><polygon points="766.5,467.8 846.0,465.4 871.5,735.0 743.3,734.3" fill="url(#suitr1x4631)" stroke="#ffd700" stroke-width="2.2" filter="url(#skr1x4631) url(#metalr1x4631)"/><polygon points="747.2,431.2 826.6,433.6 839.0,511.0 756.7,509.8" fill="url(#bevelr1x4631)" fill-opacity=".72" stroke="#ffd700" stroke-width="2.2" filter="url(#skr1x4631)"/><polygon points="757.3,622.7 839.7,621.8 834.8,660.4 760.6,660.7" fill="#ffd700" fill-opacity=".42" stroke="#ffd700" stroke-width="1" filter="url(#skr1x4631)"/><rect x="120.2"  y="698.4" width="135.3" height="85.0" rx="4" fill="url(#bevelr1x4631)" stroke="#ffd700" stroke-width="1.8" filter="url(#skr1x4631)"/><rect x="749.7"   y="698.5" width="135.3" height="85.0" rx="4" fill="url(#bevelr1x4631)" stroke="#ffd700" stroke-width="1.8" filter="url(#skr1x4631)"/><line x1="151.0" y1="703.2" x2="150.9" y2="784.7" stroke="#ffd700" stroke-opacity=".38" stroke-width="1"/><line x1="779.3" y1="700.7" x2="776.4" y2="784.0" stroke="#ffd700" stroke-opacity=".38" stroke-width="1"/><line x1="182.6" y1="700.2" x2="182.1" y2="785.4" stroke="#ffd700" stroke-opacity=".38" stroke-width="1"/><line x1="811.3" y1="700.2" x2="809.7" y2="784.5" stroke="#ffd700" stroke-opacity=".38" stroke-width="1"/><line x1="213.8" y1="701.3" x2="215.4" y2="782.8" stroke="#ffd700" stroke-opacity=".38" stroke-width="1"/><line x1="845.4" y1="702.1" x2="842.6" y2="785.6" stroke="#ffd700" stroke-opacity=".38" stroke-width="1"/><polygon points="235.1,416.0 763.8,417.9 723.0,661.6 278.8,663.1" fill="url(#suitr1x4631)" stroke="#ffd700" stroke-width="2.6" filter="url(#skr1x4631) url(#metalr1x4631)"/><polygon points="236.3,417.7 765.0,416.3 723.2,664.1 277.0,660.9" fill="url(#carbonr1x4631)"/><polygon points="366.4,417.2 631.5,417.1 609.7,516.0 387.2,514.3" fill="url(#suitHir1x4631)"/><line x1="363.0" y1="469.8" x2="636.9" y2="472.4" stroke="#ffd700" stroke-opacity=".52" stroke-width="1.3" filter="url(#skr1x4631)"/><line x1="399.2" y1="550.3" x2="600.1" y2="551.2" stroke="#ffd700" stroke-opacity=".52" stroke-width="1.3" filter="url(#skr1x4631)"/><line x1="265.5" y1="491.5" x2="318.2" y2="489.3" stroke="#ffd700" stroke-opacity=".62" stroke-width="1.8"/><line x1="679.1" y1="492.7" x2="732.3" y2="492.0" stroke="#ffd700" stroke-opacity=".62" stroke-width="1.8"/><line x1="266.5" y1="521.9" x2="321.6" y2="522.2" stroke="#ffd700" stroke-opacity=".62" stroke-width="1.8"/><line x1="680.0" y1="523.5" x2="731.8" y2="523.0" stroke="#ffd700" stroke-opacity=".62" stroke-width="1.8"/><line x1="265.6" y1="552.9" x2="318.9" y2="555.9" stroke="#ffd700" stroke-opacity=".62" stroke-width="1.8"/><line x1="679.8" y1="554.6" x2="732.5" y2="554.2" stroke="#ffd700" stroke-opacity=".62" stroke-width="1.8"/><line x1="267.7" y1="587.9" x2="320.5" y2="587.5" stroke="#ffd700" stroke-opacity=".62" stroke-width="1.8"/><line x1="678.9" y1="584.8" x2="732.5" y2="586.6" stroke="#ffd700" stroke-opacity=".62" stroke-width="1.8"/><g filter="url(#glowr1x4631)"><polygon points="483.4,454.1 513.7,505.1 498.6,504.9 518.0,567.7 486.0,514.8 501.3,516.9" fill="#ffd700" stroke="#1e0600" stroke-width="1.4" filter="url(#skr1x4631)"/><polygon points="481.1,451.2 512.0,506.8 500.3,504.9 516.3,570.4 487.3,516.5 501.2,517.0" fill="url(#suitHir1x4631)" opacity=".4"/></g><g><polygon points="871.8,671.4 923.8,671.4 908.2,-28.6 887.4,-28.6" fill="url(#blader1x4631)" filter="url(#wmr1x4631)"/><polygon points="887.4,-28.6 908.2,-28.6 897.8,-138.6" fill="url(#blader1x4631)" filter="url(#wmr1x4631)"/><polygon points="896.0,671.4 899.7,671.4 898.4,-128.6 897.3,-128.6" fill="url(#bladeTipr1x4631)" opacity=".9"/><line x1="908.2802711329423" y1="671.6259681047871" x2="900.2173533585109" y2="-129.98643922181802" stroke="rgba(255,255,255,.68)" stroke-width="1.5"/><line x1="887.4577089052834" y1="671.1530589301138" x2="898.5834953746759" y2="-128.62098077954727" stroke="#ffd700" stroke-width="1" stroke-opacity=".45"/><line x1="902.5" y1="651.4" x2="899.7" y2="11.4" stroke="rgba(0,0,0,.38)" stroke-width="1.6"/><line x1="893.2" y1="651.4" x2="896.0" y2="11.4" stroke="rgba(0,0,0,.38)" stroke-width="1.6"/><rect x="843.0618604658731" y="668.643564012926" width="112.0" height="28.0" rx="3" fill="url(#bevelr1x4631)" stroke="#ffd700" stroke-width="1.6" filter="url(#wmr1x4631)"/><rect x="866.7356411932595" y="674.3647462742402" width="64.0" height="10.0" rx="1" fill="rgba(255,255,255,.32)"/><rect x="886.4684895493649" y="676.1265502100811" width="24.0" height="6.0" rx="1" fill="#ffd700" fill-opacity=".35"/><rect x="886.0318045143597" y="685.5214916220866" width="24.0" height="6.0" rx="1" fill="#ffd700" fill-opacity=".35"/><rect x="885.2611087935604" y="692.764412630722" width="24.0" height="6.0" rx="1" fill="#ffd700" fill-opacity=".35"/><rect x="885.2260469765962" y="701.3283760028891" width="24.0" height="6.0" rx="1" fill="#ffd700" fill-opacity=".35"/><rect x="885.3337048181892" y="709.2374421142041" width="24.0" height="6.0" rx="1" fill="#ffd700" fill-opacity=".35"/><rect x="884.1548393866607" y="715.6968718451448" width="24.0" height="6.0" rx="1" fill="#ffd700" fill-opacity=".35"/><ellipse cx="897.100759709403" cy="727.7196893106214" rx="22.0" ry="16.0" fill="url(#bevelr1x4631)" stroke="#ffd700" stroke-width="1.2" filter="url(#wmr1x4631)"/></g><rect x="450.78303342461584" y="556.3018259654752" width="100.0"  height="56.0" fill="#503400" stroke="#ffd700" stroke-width="2.2" filter="url(#skr1x4631)"/><rect x="423.58082298627124" y="575.1493050306104" width="152.0" height="26.0" fill="url(#bevelr1x4631)" fill-opacity=".65" stroke="#ffd700" stroke-width="1.2" filter="url(#skr1x4631)"/><polygon points="309.3,381.6 351.7,295.7 500.1,278.1 648.4,292.9 690.5,382.0 670.1,503.5 498.6,565.7 331.6,504.1" fill="url(#suitr1x4631)" stroke="#ffd700" stroke-width="2.8" filter="url(#skr1x4631) url(#metalr1x4631)"/><polygon points="306.4,379.5 349.6,296.2 500.1,278.1 651.1,292.7 690.4,382.2 668.6,504.1 498.5,565.8 331.5,503.3" fill="url(#carbonr1x4631)"/><polygon points="381.7,301.8 500.1,287.1 619.1,303.9 607.8,381.9 392.7,382.3" fill="url(#suitHir1x4631)"/><polygon points="382.1,382.3 366.2,426.2 431.2,503.8 501.1,526.8 567.7,501.9 632.9,425.4 619.3,382.1" fill="#1e0600" fill-opacity=".88" stroke="#ffd700" stroke-width="1.8" filter="url(#skr1x4631)"/><polygon points="381.9,412.9 476.3,410.2 485.3,439.3 387.0,440.3" fill="#ffd700" filter="url(#glowr1x4631)"/><polygon points="521.6,410.7 617.5,410.3 613.0,439.1 515.4,439.5" fill="#ffd700" filter="url(#glowr1x4631)"/><ellipse cx="430.9" cy="425.7" rx="38.4"  ry="8.2" fill="#ffffff" opacity=".88"/><ellipse cx="569.1" cy="425.7" rx="38.4"  ry="8.2" fill="#ffffff" opacity=".88"/><line x1="483.5193029438704" y1="413.9564101994969" x2="517.1069124903903" y2="411.6048397226259" stroke="#ffd700" stroke-opacity=".52" stroke-width="2"/><line x1="484.2315686816908" y1="437.48697686064986" x2="515.2302286778018" y2="437.26816161721945" stroke="#ffd700" stroke-opacity=".52" stroke-width="2"/><line x1="500.83867787988856" y1="452.8570400922559" x2="500.5136801732704" y2="484.23115425817673" stroke="#ffd700" stroke-opacity=".58" stroke-width="2.2" filter="url(#skr1x4631)"/><line x1="455.67596780572086" y1="489.5858743045479" x2="453.9347430007346" y2="520.4728224186226" stroke="#ffd700" stroke-opacity=".52" stroke-width="1.5" filter="url(#skr1x4631)"/><line x1="477.3788784386031" y1="492.29226116975764" x2="477.4893290297501" y2="518.2833185315133" stroke="#ffd700" stroke-opacity=".52" stroke-width="1.5" filter="url(#skr1x4631)"/><line x1="498.9155562860891" y1="489.7379489138722" x2="500.2751374602318" y2="518.4346683576703" stroke="#ffd700" stroke-opacity=".52" stroke-width="1.5" filter="url(#skr1x4631)"/><line x1="521.2652263274974" y1="492.0185410524718" x2="522.4286070168577" y2="520.9176149106585" stroke="#ffd700" stroke-opacity=".52" stroke-width="1.5" filter="url(#skr1x4631)"/><line x1="545.4264538843371" y1="491.4406047484837" x2="547.0399613935687" y2="519.9908823912032" stroke="#ffd700" stroke-opacity=".52" stroke-width="1.5" filter="url(#skr1x4631)"/><polygon points="433.8,503.8 567.0,503.5 553.0,556.1 445.0,557.1" fill="#503400" fill-opacity=".72" stroke="#ffd700" stroke-width="1.3" filter="url(#skr1x4631)"/><path d="M387.5913286260888 326.3547085488215 Q331.7406649055518 215.50089597199113 380.1961996619031 140.13043039655312" stroke="#ffd700" stroke-width="5" fill="none" stroke-linecap="round" filter="url(#skr1x4631)"/><path d="M388.1638149093464 328.01490045497195 Q330.44659500686447 217.7498784081079 382.3487571885251 141.60935100000353" stroke="rgba(255,255,255,.25)" stroke-width="1.5" fill="none" stroke-linecap="round"/><path d="M611.713001181595 326.38165116235615 Q667.939254355561 216.44232872938736 618.622941028662 140.47439770959318" stroke="#ffd700" stroke-width="5" fill="none" stroke-linecap="round" filter="url(#skr1x4631)"/><path d="M611.2800149279088 326.91792498780416 Q668.2132250515185 215.63996364120393 618.6988558058254 140.83943246603013" stroke="rgba(255,255,255,.25)" stroke-width="1.5" fill="none" stroke-linecap="round"/><text x="30.0"  y="975.0" font-family="monospace" font-weight="bold" font-size="22.0" fill="rgba(255,255,255,.22)">#0001</text><text x="500.0"   y="975.0" text-anchor="middle" font-family="monospace" font-weight="bold" font-size="22.0" fill="#ffd700" fill-opacity=".48">IMPERIAL RANGER</text><text x="970.0" y="975.0" text-anchor="end"    font-family="monospace" font-weight="bold" font-size="22.0" fill="#ffd700" fill-opacity=".32">MECH RANGERS</text></svg>