<svg xmlns="http://www.w3.org/2000/svg" viewBox="0 0 1000 1000" width="1000" height="1000" shape-rendering="geometricPrecision"><defs>

  <!-- Scene gradients -->
  <radialGradient id="bgr1x4632" cx="50%" cy="42%" r="72%">
    <stop offset="0%"   stop-color="#1e0a2e"/>
    <stop offset="100%" stop-color="#0a0520"/>
  </radialGradient>
  <linearGradient id="suitr1x4632" x1="8%" y1="0%" x2="92%" y2="100%">
    <stop offset="0%"   stop-color="#00ff60" stop-opacity=".95"/>
    <stop offset="45%"  stop-color="#00441e"/>
    <stop offset="100%" stop-color="#0a0520"/>
  </linearGradient>
  <linearGradient id="suitHir1x4632" x1="0%" y1="0%" x2="0%" y2="100%">
    <stop offset="0%"   stop-color="rgba(255,255,255,.28)"/>
    <stop offset="60%"  stop-color="rgba(255,255,255,.04)"/>
    <stop offset="100%" stop-color="rgba(255,255,255,0)"/>
  </linearGradient>
  <!-- Bevel: bright top, dark bottom for armour panels -->
  <linearGradient id="bevelr1x4632" x1="0%" y1="0%" x2="0%" y2="100%">
    <stop offset="0%"   stop-color="rgba(255,255,255,.55)"/>
    <stop offset="30%"  stop-color="#00ff60"/>
    <stop offset="70%"  stop-color="#00441e"/>
    <stop offset="100%" stop-color="rgba(0,0,0,.5)"/>
  </linearGradient>

  <!-- Weapon: cold steel blade sweep -->
  <linearGradient id="blader1x4632" x1="0%" y1="0%" x2="100%" y2="0%">
    <stop offset="0%"   stop-color="#0e0e20"/>
    <stop offset="16%"  stop-color="#3e3e58"/>
    <stop offset="34%"  stop-color="#c8c8e0"/>
    <stop offset="50%"  stop-color="#f5f5ff"/>
    <stop offset="66%"  stop-color="#b8b8d0"/>
    <stop offset="84%"  stop-color="#2e2e48"/>
    <stop offset="100%" stop-color="#08080e"/>
  </linearGradient>
  <!-- Blade tip brightening -->
  <linearGradient id="bladeTipr1x4632" x1="0%" y1="100%" x2="0%" y2="0%">
    <stop offset="0%"   stop-color="rgba(255,255,255,0)"/>
    <stop offset="55%"  stop-color="rgba(255,255,255,.1)"/>
    <stop offset="100%" stop-color="rgba(255,255,255,.55)"/>
  </linearGradient>
  <!-- Gunmetal anodised — blaster body -->
  <linearGradient id="gunmetalr1x4632" x1="0%" y1="0%" x2="0%" y2="100%">
    <stop offset="0%"   stop-color="#46465e"/>
    <stop offset="18%"  stop-color="#828296"/>
    <stop offset="42%"  stop-color="#26263a"/>
    <stop offset="72%"  stop-color="#16162a"/>
    <stop offset="100%" stop-color="#0c0c18"/>
  </linearGradient>
  <!-- Brushed steel tube — barrel/rod -->
  <linearGradient id="barrelr1x4632" x1="0%" y1="0%" x2="100%" y2="0%">
    <stop offset="0%"   stop-color="#0a0a14"/>
    <stop offset="24%"  stop-color="#585875"/>
    <stop offset="50%"  stop-color="#a8a8c8"/>
    <stop offset="76%"  stop-color="#383852"/>
    <stop offset="100%" stop-color="#0a0a14"/>
  </linearGradient>
  <!-- Chrome rod — lance shaft -->
  <linearGradient id="chromer1x4632" x1="0%" y1="0%" x2="100%" y2="0%">
    <stop offset="0%"   stop-color="#0c0c18"/>
    <stop offset="20%"  stop-color="#686888"/>
    <stop offset="44%"  stop-color="#e0e0f0"/>
    <stop offset="56%"  stop-color="#c0c0d8"/>
    <stop offset="80%"  stop-color="#28283e"/>
    <stop offset="100%" stop-color="#0c0c18"/>
  </linearGradient>
  <!-- Titanium plate — shield face -->
  <linearGradient id="titaniumr1x4632" x1="0%" y1="0%" x2="100%" y2="100%">
    <stop offset="0%"   stop-color="#585878"/>
    <stop offset="28%"  stop-color="#00ff60" stop-opacity=".88"/>
    <stop offset="55%"  stop-color="#00441e"/>
    <stop offset="80%"  stop-color="#181828"/>
    <stop offset="100%" stop-color="#0a0a18"/>
  </linearGradient>
  <!-- Artillery black-chrome — cannon body -->
  <linearGradient id="artilleryr1x4632" x1="0%" y1="0%" x2="0%" y2="100%">
    <stop offset="0%"   stop-color="#383850"/>
    <stop offset="14%"  stop-color="#78789a"/>
    <stop offset="36%"  stop-color="#202034"/>
    <stop offset="65%"  stop-color="#14141e"/>
    <stop offset="100%" stop-color="#0a0a12"/>
  </linearGradient>
  <!-- Energy orb — staff -->
  <radialGradient id="orbr1x4632" cx="35%" cy="35%" r="65%">
    <stop offset="0%"   stop-color="rgba(255,255,255,.9)"/>
    <stop offset="30%"  stop-color="#00ff60"/>
    <stop offset="68%"  stop-color="#00441e"/>
    <stop offset="100%" stop-color="rgba(0,0,0,.6)"/>
  </radialGradient>
  <!-- Knuckle plate chrome -->
  <linearGradient id="knuckler1x4632" x1="0%" y1="0%" x2="0%" y2="100%">
    <stop offset="0%"   stop-color="#888aaa"/>
    <stop offset="32%"  stop-color="#00ff60" stop-opacity=".8"/>
    <stop offset="62%"  stop-color="#1a1a2c"/>
    <stop offset="100%" stop-color="#0a0a14"/>
  </linearGradient>

  <!-- Carbon fibre weave texture overlay -->
  <pattern id="carbonr1x4632" width="6" height="6" patternUnits="userSpaceOnUse">
    <rect width="6" height="6" fill="rgba(0,0,0,.08)"/>
    <rect x="0" y="0" width="3" height="3" fill="rgba(255,255,255,.022)"/>
    <rect x="3" y="3" width="3" height="3" fill="rgba(255,255,255,.022)"/>
    <line x1="0" y1="0" x2="3" y2="3" stroke="rgba(255,255,255,.038)" stroke-width=".5"/>
    <line x1="3" y1="0" x2="6" y2="3" stroke="rgba(0,0,0,.055)"       stroke-width=".5"/>
    <line x1="0" y1="3" x2="3" y2="6" stroke="rgba(0,0,0,.055)"       stroke-width=".5"/>
    <line x1="3" y1="3" x2="6" y2="6" stroke="rgba(255,255,255,.038)" stroke-width=".5"/>
  </pattern>

  <!-- Specular metal sheen on armour panels -->
  <filter id="metalr1x4632" x="-5%" y="-5%" width="110%" height="110%">
    <feSpecularLighting surfaceScale="4" specularConstant="1.8"
        specularExponent="42" lighting-color="#ffffff" result="spec">
      <feDistantLight elevation="52" azimuth="38"/>
    </feSpecularLighting>
    <feComposite in="spec" in2="SourceGraphic" operator="in" result="sm"/>
    <feComposite in="SourceGraphic" in2="sm" operator="arithmetic" k1="0" k2="1" k3="0.55" k4="0"/>
  </filter>

  <!-- Sharper specular for weapons — heavier glare -->
  <filter id="wmr1x4632" x="-8%" y="-8%" width="116%" height="116%">
    <feSpecularLighting surfaceScale="6" specularConstant="2.4"
        specularExponent="65" lighting-color="#ffffff" result="spec">
      <feDistantLight elevation="44" azimuth="28"/>
    </feSpecularLighting>
    <feComposite in="spec" in2="SourceGraphic" operator="in" result="sm"/>
    <feComposite in="SourceGraphic" in2="sm" operator="arithmetic" k1="0" k2="1" k3="0.78" k4="0"/>
  </filter>

  <!-- Sketch wobble -->
  <filter id="skr1x4632" x="-8%" y="-8%" width="116%" height="116%">
    <feTurbulence type="fractalNoise" baseFrequency="0.038"
        numOctaves="3" seed="12" result="noise"/>
    <feDisplacementMap in="SourceGraphic" in2="noise" scale="2.6"
        xChannelSelector="R" yChannelSelector="G" result="w"/>
    <feComposite in="w" in2="SourceGraphic" operator="atop"/>
  </filter>

  <!-- Glow: sharp accent -->
  <filter id="glowr1x4632" x="-20%" y="-20%" width="140%" height="140%">
    <feGaussianBlur stdDeviation="3.5" result="b"/>
    <feColorMatrix in="b" type="matrix"
        values="0 0 0 0 1  0 0 0 0 1  0 0 0 0 1  0 0 0 1.8 0" result="boost"/>
    <feMerge><feMergeNode in="boost"/><feMergeNode in="SourceGraphic"/></feMerge>
  </filter>

  <!-- Bloom: wide soft -->
  <filter id="bloomr1x4632" x="-40%" y="-40%" width="180%" height="180%">
    <feGaussianBlur stdDeviation="11" result="b"/>
    <feMerge><feMergeNode in="b"/><feMergeNode in="SourceGraphic"/></feMerge>
  </filter>

  </defs><rect width="1000" height="1000" fill="url(#bgr1x4632)"/><ellipse cx="500.0" cy="892.0" rx="350.0" ry="65.0" fill="rgba(0,0,0,.7)" filter="url(#bloomr1x4632)"/><ellipse cx="500.0" cy="889.0" rx="220.0" ry="34.0" fill="rgba(0,0,0,.45)"/><ellipse cx="500.0" cy="520.0" rx="320.0" ry="480.0" fill="#ffffff" fill-opacity=".042" filter="url(#bloomr1x4632)"/><circle cx="553.1" cy="799.9" r="0.9" fill="#ffffff" fill-opacity="0.80" filter="url(#glowr1x4632)"/><circle cx="532.4" cy="508.2" r="4.0" fill="#ffffff" fill-opacity="0.90" filter="url(#glowr1x4632)"/><circle cx="392.8" cy="237.9" r="3.9" fill="#ffffff" fill-opacity="0.85" filter="url(#glowr1x4632)"/><circle cx="667.9" cy="449.7" r="1.7" fill="#ffffff" fill-opacity="0.67" filter="url(#glowr1x4632)"/><circle cx="606.8" cy="587.6" r="4.0" fill="#ffffff" fill-opacity="0.51" filter="url(#glowr1x4632)"/><circle cx="299.0" cy="264.9" r="1.9" fill="#ffffff" fill-opacity="0.71" filter="url(#glowr1x4632)"/><circle cx="648.1" cy="446.4" r="2.3" fill="#ffffff" fill-opacity="0.47" filter="url(#glowr1x4632)"/><circle cx="510.9" cy="495.3" r="0.5" fill="#ffffff" fill-opacity="0.46" filter="url(#glowr1x4632)"/><circle cx="579.3" cy="181.5" r="4.1" fill="#ffffff" fill-opacity="0.50" filter="url(#glowr1x4632)"/><circle cx="268.8" cy="464.0" r="3.5" fill="#ffffff" fill-opacity="0.53" filter="url(#glowr1x4632)"/><circle cx="556.0" cy="245.1" r="2.5" fill="#ffffff" fill-opacity="0.45" filter="url(#glowr1x4632)"/><circle cx="280.6" cy="507.2" r="1.8" fill="#ffffff" fill-opacity="0.53" filter="url(#glowr1x4632)"/><circle cx="650.4" cy="558.2" r="1.7" fill="#ffffff" fill-opacity="0.38" filter="url(#glowr1x4632)"/><circle cx="379.7" cy="398.3" r="4.3" fill="#ffffff" fill-opacity="0.89" filter="url(#glowr1x4632)"/><polygon points="398.1,662.7 489.7,663.3 481.5,875.8 386.5,877.6" fill="url(#suitr1x4632)" stroke="#00ff60" stroke-width="2.2" filter="url(#skr1x4632) url(#metalr1x4632)"/><polygon points="398.2,664.2 491.2,661.9 481.9,877.7 388.8,878.6" fill="url(#carbonr1x4632)"/><polygon points="394.1,723.4 493.3,723.9 485.4,789.6 384.7,788.7" fill="url(#bevelr1x4632)" fill-opacity=".5" stroke="#00ff60" stroke-width="1.4" filter="url(#skr1x4632)"/><polygon points="510.3,663.9 601.1,662.8 613.3,877.7 519.6,879.2" fill="url(#suitr1x4632)" stroke="#00ff60" stroke-width="2.2" filter="url(#skr1x4632) url(#metalr1x4632)"/><polygon points="510.4,662.9 600.0,661.9 611.4,877.5 520.9,878.9" fill="url(#carbonr1x4632)"/><polygon points="506.2,724.0 606.7,724.1 616.1,789.9 515.5,789.7" fill="url(#bevelr1x4632)" fill-opacity=".5" stroke="#00ff60" stroke-width="1.4" filter="url(#skr1x4632)"/><rect x="393.4" y="838.0" width="100.3" height="24.7" fill="url(#bevelr1x4632)" stroke="#00ff60" stroke-width="1" filter="url(#skr1x4632)"/><rect x="508.2"  y="839.1" width="100.3" height="24.7" fill="url(#bevelr1x4632)" stroke="#00ff60" stroke-width="1" filter="url(#skr1x4632)"/><polygon points="369.5,878.8 495.8,878.6 503.4,921.4 364.4,923.3" fill="#00441e" stroke="#00ff60" stroke-width="2" filter="url(#skr1x4632)"/><polygon points="502.0,876.8 631.5,876.4 635.6,923.0 495.9,920.3" fill="#00441e" stroke="#00ff60" stroke-width="2" filter="url(#skr1x4632)"/><polygon points="302.1,633.5 697.8,634.5 638.5,681.4 362.6,683.8" fill="#00ff60" fill-opacity=".52" stroke="#00ff60" stroke-width="2" filter="url(#skr1x4632)"/><rect x="463.0" y="637.3" width="72.0" height="42.0" fill="url(#bevelr1x4632)" stroke="#00ff60" stroke-width="1.4" filter="url(#glowr1x4632)"/><rect x="485.4" y="642.0" width="28.0" height="22.0" rx="1" fill="rgba(255,255,255,.48)"/><polygon points="154.1,465.5 236.7,467.6 256.6,735.4 126.9,733.8" fill="url(#suitr1x4632)" stroke="#00ff60" stroke-width="2.2" filter="url(#skr1x4632) url(#metalr1x4632)"/><polygon points="173.4,433.8 253.6,433.3 241.8,509.4 158.0,512.3" fill="url(#bevelr1x4632)" fill-opacity=".72" stroke="#00ff60" stroke-width="2.2" filter="url(#skr1x4632)"/><polygon points="161.4,622.5 241.8,621.6 240.2,660.3 164.4,659.7" fill="#00ff60" fill-opacity=".42" stroke="#00ff60" stroke-width="1" filter="url(#skr1x4632)"/><polygon points="764.7,467.0 847.9,467.1 872.6,736.3 740.6,735.7" fill="url(#suitr1x4632)" stroke="#00ff60" stroke-width="2.2" filter="url(#skr1x4632) url(#metalr1x4632)"/><polygon points="747.5,433.4 825.1,432.2 841.7,509.2 755.5,510.6" fill="url(#bevelr1x4632)" fill-opacity=".72" stroke="#00ff60" stroke-width="2.2" filter="url(#skr1x4632)"/><polygon points="758.5,621.8 839.6,620.2 833.2,660.2 762.1,662.1" fill="#00ff60" fill-opacity=".42" stroke="#00ff60" stroke-width="1" filter="url(#skr1x4632)"/><rect x="120.8"  y="701.0" width="135.3" height="85.0" rx="4" fill="url(#bevelr1x4632)" stroke="#00ff60" stroke-width="1.8" filter="url(#skr1x4632)"/><rect x="747.0"   y="699.6" width="135.3" height="85.0" rx="4" fill="url(#bevelr1x4632)" stroke="#00ff60" stroke-width="1.8" filter="url(#skr1x4632)"/><line x1="150.2" y1="700.6" x2="149.1" y2="783.4" stroke="#00ff60" stroke-opacity=".38" stroke-width="1"/><line x1="779.1" y1="702.2" x2="777.7" y2="782.5" stroke="#00ff60" stroke-opacity=".38" stroke-width="1"/><line x1="183.6" y1="701.4" x2="183.2" y2="785.3" stroke="#00ff60" stroke-opacity=".38" stroke-width="1"/><line x1="812.0" y1="701.9" x2="809.7" y2="785.0" stroke="#00ff60" stroke-opacity=".38" stroke-width="1"/><line x1="214.0" y1="701.4" x2="216.9" y2="782.1" stroke="#00ff60" stroke-opacity=".38" stroke-width="1"/><line x1="844.0" y1="701.9" x2="842.1" y2="784.4" stroke="#00ff60" stroke-opacity=".38" stroke-width="1"/><polygon points="234.0,417.5 766.8,418.9 724.3,661.5 276.7,664.0" fill="url(#suitr1x4632)" stroke="#00ff60" stroke-width="2.6" filter="url(#skr1x4632) url(#metalr1x4632)"/><polygon points="234.7,416.6 764.4,416.9 721.7,663.3 275.9,662.3" fill="url(#carbonr1x4632)"/><polygon points="367.8,418.5 630.8,417.6 610.0,517.0 389.0,515.0" fill="url(#suitHir1x4632)"/><line x1="361.8" y1="472.7" x2="638.9" y2="470.8" stroke="#00ff60" stroke-opacity=".52" stroke-width="1.3" filter="url(#skr1x4632)"/><line x1="400.3" y1="550.2" x2="600.1" y2="550.2" stroke="#00ff60" stroke-opacity=".52" stroke-width="1.3" filter="url(#skr1x4632)"/><line x1="267.4" y1="490.8" x2="320.5" y2="491.3" stroke="#00ff60" stroke-opacity=".62" stroke-width="1.8"/><line x1="679.0" y1="489.6" x2="734.8" y2="492.2" stroke="#00ff60" stroke-opacity=".62" stroke-width="1.8"/><line x1="265.7" y1="521.3" x2="321.5" y2="523.2" stroke="#00ff60" stroke-opacity=".62" stroke-width="1.8"/><line x1="680.2" y1="521.3" x2="732.4" y2="523.3" stroke="#00ff60" stroke-opacity=".62" stroke-width="1.8"/><line x1="265.0" y1="555.1" x2="320.0" y2="553.9" stroke="#00ff60" stroke-opacity=".62" stroke-width="1.8"/><line x1="680.0" y1="554.6" x2="731.9" y2="555.9" stroke="#00ff60" stroke-opacity=".62" stroke-width="1.8"/><line x1="265.6" y1="586.1" x2="319.5" y2="587.5" stroke="#00ff60" stroke-opacity=".62" stroke-width="1.8"/><line x1="681.4" y1="587.0" x2="733.3" y2="584.8" stroke="#00ff60" stroke-opacity=".62" stroke-width="1.8"/><g filter="url(#glowr1x4632)"><ellipse cx="498.9" cy="510.4" rx="42.9" ry="23.2" fill="#0a0520" stroke="#00ff60" stroke-width="1.6" filter="url(#skr1x4632)"/><circle cx="498.6" cy="509.0" r="15.1" fill="#00ff60"/><circle cx="495.3" cy="508.2" r="5.8" fill="#0a0520"/><ellipse cx="494.2" cy="506.3" rx="3.5" ry="2.3" fill="rgba(255,255,255,.7)"/></g><g><line x1="101.7377790780179" y1="791.9516776093282" x2="87.73330653034148" y2="111.76280217701567" stroke="url(#chromer1x4632)" stroke-width="28.0" stroke-linecap="round" filter="url(#wmr1x4632)"/><line x1="96.27480624638494" y1="773.1094566392712" x2="89.67515453318131" y2="130.98808984234927" stroke="rgba(255,255,255,.42)" stroke-width="5.0" stroke-linecap="round"/><polygon points="72.5,153.1 140.5,151.2 85.0,-7.9" fill="url(#blader1x4632)" stroke="#00ff60" stroke-width="1.8" filter="url(#wmr1x4632)"/><line x1="140.2" y1="151.4" x2="84.2" y2="-8.6" stroke="rgba(255,255,255,.72)" stroke-width="1.6"/><rect x="84.1168321516737" y="421.20882436139505" width="40.0" height="20.0" fill="url(#bevelr1x4632)" stroke="#00ff60" stroke-width="1" filter="url(#wmr1x4632)"/><rect x="84.13442468767983" y="510.6009974606335" width="40.0" height="20.0" fill="url(#bevelr1x4632)" stroke="#00ff60" stroke-width="1" filter="url(#wmr1x4632)"/><rect x="81.70554042695088" y="600.4624136175029" width="40.0" height="20.0" fill="url(#bevelr1x4632)" stroke="#00ff60" stroke-width="1" filter="url(#wmr1x4632)"/><rect x="84.57303588654842" y="690.3877618531696" width="40.0" height="20.0" fill="url(#bevelr1x4632)" stroke="#00ff60" stroke-width="1" filter="url(#wmr1x4632)"/><ellipse cx="102.85433391578492" cy="792.2740437420085" rx="22.0" ry="15.0" fill="url(#bevelr1x4632)" stroke="#00ff60" stroke-width="1" filter="url(#wmr1x4632)"/></g><rect x="449.91427352875473" y="555.9927104197442" width="100.0"  height="56.0" fill="#00441e" stroke="#00ff60" stroke-width="2.2" filter="url(#skr1x4632)"/><rect x="424.13999583758414" y="573.6840854793787" width="152.0" height="26.0" fill="url(#bevelr1x4632)" fill-opacity=".65" stroke="#00ff60" stroke-width="1.2" filter="url(#skr1x4632)"/><polygon points="309.5,380.0 349.8,293.1 499.7,278.3 651.3,294.0 690.5,379.2 669.6,501.9 500.5,564.5 331.3,502.3" fill="url(#suitr1x4632)" stroke="#00ff60" stroke-width="2.8" filter="url(#skr1x4632) url(#metalr1x4632)"/><polygon points="307.5,379.0 349.3,295.2 501.5,279.8 651.0,293.1 693.4,381.0 667.4,502.2 500.7,566.3 330.7,504.5" fill="url(#carbonr1x4632)"/><polygon points="380.4,303.1 501.4,287.8 618.4,302.8 608.0,381.7 394.3,379.1" fill="url(#suitHir1x4632)"/><polygon points="381.6,379.7 366.5,425.8 431.2,504.0 499.7,527.2 568.0,502.2 632.8,427.3 620.6,381.3" fill="#0a0520" fill-opacity=".88" stroke="#00ff60" stroke-width="1.8" filter="url(#skr1x4632)"/><polygon points="382.0,410.5 477.4,412.6 484.2,439.9 388.1,440.1" fill="#00ff60" filter="url(#glowr1x4632)"/><polygon points="524.5,411.3 618.0,409.6 613.1,440.8 517.1,441.7" fill="#00ff60" filter="url(#glowr1x4632)"/><ellipse cx="430.9" cy="425.7" rx="38.4"  ry="8.2" fill="#ffffff" opacity=".88"/><ellipse cx="569.1" cy="425.7" rx="38.4"  ry="8.2" fill="#ffffff" opacity=".88"/><line x1="483.9747798076458" y1="412.09222142910585" x2="514.1321494598315" y2="413.1551922501996" stroke="#00ff60" stroke-opacity=".52" stroke-width="2"/><line x1="486.2934401649609" y1="439.57453117081894" x2="514.060902308058" y2="436.4703156019561" stroke="#00ff60" stroke-opacity=".52" stroke-width="2"/><line x1="500.4839484772645" y1="454.88144015586" x2="498.3194236347452" y2="484.6624452518299" stroke="#00ff60" stroke-opacity=".58" stroke-width="2.2" filter="url(#skr1x4632)"/><line x1="454.49209643842653" y1="491.7745868109166" x2="453.019303519167" y2="521.3984031044878" stroke="#00ff60" stroke-opacity=".52" stroke-width="1.5" filter="url(#skr1x4632)"/><line x1="475.8741262445599" y1="491.1507953040301" x2="477.3826422609761" y2="519.0938129342161" stroke="#00ff60" stroke-opacity=".52" stroke-width="1.5" filter="url(#skr1x4632)"/><line x1="499.5095611477271" y1="490.644422774855" x2="498.608206471242" y2="521.4666527912952" stroke="#00ff60" stroke-opacity=".52" stroke-width="1.5" filter="url(#skr1x4632)"/><line x1="524.723541403152" y1="490.43966015502804" x2="524.1895343628339" y2="520.8373682351782" stroke="#00ff60" stroke-opacity=".52" stroke-width="1.5" filter="url(#skr1x4632)"/><line x1="547.8220036623255" y1="490.69014559732744" x2="545.17136208836" y2="520.1490725611336" stroke="#00ff60" stroke-opacity=".52" stroke-width="1.5" filter="url(#skr1x4632)"/><polygon points="433.7,501.9 565.5,503.2 553.9,558.5 444.6,556.7" fill="#00441e" fill-opacity=".72" stroke="#00ff60" stroke-width="1.3" filter="url(#skr1x4632)"/><polygon points="316.2,305.8 361.1,303.0 338.0,195.4" fill="url(#bevelr1x4632)" fill-opacity=".95" stroke="#00ff60" stroke-width="1.6" filter="url(#skr1x4632) url(#glowr1x4632)"/><polygon points="396.7,303.1 441.4,305.5 418.9,209.8" fill="url(#bevelr1x4632)" fill-opacity=".95" stroke="#00ff60" stroke-width="1.6" filter="url(#skr1x4632) url(#glowr1x4632)"/><polygon points="478.6,304.6 524.7,303.9 501.0,223.6" fill="url(#bevelr1x4632)" fill-opacity=".95" stroke="#00ff60" stroke-width="1.6" filter="url(#skr1x4632) url(#glowr1x4632)"/><polygon points="558.1,304.6 602.8,303.4 581.0,208.8" fill="url(#bevelr1x4632)" fill-opacity=".95" stroke="#00ff60" stroke-width="1.6" filter="url(#skr1x4632) url(#glowr1x4632)"/><polygon points="637.6,306.3 682.6,303.4 660.8,195.2" fill="url(#bevelr1x4632)" fill-opacity=".95" stroke="#00ff60" stroke-width="1.6" filter="url(#skr1x4632) url(#glowr1x4632)"/><text x="30.0"  y="975.0" font-family="monospace" font-weight="bold" font-size="22.0" fill="rgba(255,255,255,.22)">#0001</text><text x="500.0"   y="975.0" text-anchor="middle" font-family="monospace" font-weight="bold" font-size="22.0" fill="#00ff60" fill-opacity=".48">VIPER RANGER</text><text x="970.0" y="975.0" text-anchor="end"    font-family="monospace" font-weight="bold" font-size="22.0" fill="#00ff60" fill-opacity=".32">MECH RANGERS</text></svg>