<svg xmlns="http://www.w3.org/2000/svg" viewBox="0 0 1000 1000" width="1000" height="1000" shape-rendering="geometricPrecision"><defs>

  <!-- Scene gradients -->
  <radialGradient id="bgr1x4651" cx="50%" cy="42%" r="72%">
    <stop offset="0%"   stop-color="#1e0a2e"/>
    <stop offset="100%" stop-color="#0a0520"/>
  </radialGradient>
  <linearGradient id="suitr1x4651" x1="8%" y1="0%" x2="92%" y2="100%">
    <stop offset="0%"   stop-color="#00ff60" stop-opacity=".95"/>
    <stop offset="45%"  stop-color="#00441e"/>
    <stop offset="100%" stop-color="#0a0520"/>
  </linearGradient>
  <linearGradient id="suitHir1x4651" x1="0%" y1="0%" x2="0%" y2="100%">
    <stop offset="0%"   stop-color="rgba(255,255,255,.28)"/>
    <stop offset="60%"  stop-color="rgba(255,255,255,.04)"/>
    <stop offset="100%" stop-color="rgba(255,255,255,0)"/>
  </linearGradient>
  <!-- Bevel: bright top, dark bottom for armour panels -->
  <linearGradient id="bevelr1x4651" x1="0%" y1="0%" x2="0%" y2="100%">
    <stop offset="0%"   stop-color="rgba(255,255,255,.55)"/>
    <stop offset="30%"  stop-color="#00ff60"/>
    <stop offset="70%"  stop-color="#00441e"/>
    <stop offset="100%" stop-color="rgba(0,0,0,.5)"/>
  </linearGradient>

  <!-- Weapon: cold steel blade sweep -->
  <linearGradient id="blader1x4651" x1="0%" y1="0%" x2="100%" y2="0%">
    <stop offset="0%"   stop-color="#0e0e20"/>
    <stop offset="16%"  stop-color="#3e3e58"/>
    <stop offset="34%"  stop-color="#c8c8e0"/>
    <stop offset="50%"  stop-color="#f5f5ff"/>
    <stop offset="66%"  stop-color="#b8b8d0"/>
    <stop offset="84%"  stop-color="#2e2e48"/>
    <stop offset="100%" stop-color="#08080e"/>
  </linearGradient>
  <!-- Blade tip brightening -->
  <linearGradient id="bladeTipr1x4651" x1="0%" y1="100%" x2="0%" y2="0%">
    <stop offset="0%"   stop-color="rgba(255,255,255,0)"/>
    <stop offset="55%"  stop-color="rgba(255,255,255,.1)"/>
    <stop offset="100%" stop-color="rgba(255,255,255,.55)"/>
  </linearGradient>
  <!-- Gunmetal anodised — blaster body -->
  <linearGradient id="gunmetalr1x4651" x1="0%" y1="0%" x2="0%" y2="100%">
    <stop offset="0%"   stop-color="#46465e"/>
    <stop offset="18%"  stop-color="#828296"/>
    <stop offset="42%"  stop-color="#26263a"/>
    <stop offset="72%"  stop-color="#16162a"/>
    <stop offset="100%" stop-color="#0c0c18"/>
  </linearGradient>
  <!-- Brushed steel tube — barrel/rod -->
  <linearGradient id="barrelr1x4651" x1="0%" y1="0%" x2="100%" y2="0%">
    <stop offset="0%"   stop-color="#0a0a14"/>
    <stop offset="24%"  stop-color="#585875"/>
    <stop offset="50%"  stop-color="#a8a8c8"/>
    <stop offset="76%"  stop-color="#383852"/>
    <stop offset="100%" stop-color="#0a0a14"/>
  </linearGradient>
  <!-- Chrome rod — lance shaft -->
  <linearGradient id="chromer1x4651" x1="0%" y1="0%" x2="100%" y2="0%">
    <stop offset="0%"   stop-color="#0c0c18"/>
    <stop offset="20%"  stop-color="#686888"/>
    <stop offset="44%"  stop-color="#e0e0f0"/>
    <stop offset="56%"  stop-color="#c0c0d8"/>
    <stop offset="80%"  stop-color="#28283e"/>
    <stop offset="100%" stop-color="#0c0c18"/>
  </linearGradient>
  <!-- Titanium plate — shield face -->
  <linearGradient id="titaniumr1x4651" x1="0%" y1="0%" x2="100%" y2="100%">
    <stop offset="0%"   stop-color="#585878"/>
    <stop offset="28%"  stop-color="#00ff60" stop-opacity=".88"/>
    <stop offset="55%"  stop-color="#00441e"/>
    <stop offset="80%"  stop-color="#181828"/>
    <stop offset="100%" stop-color="#0a0a18"/>
  </linearGradient>
  <!-- Artillery black-chrome — cannon body -->
  <linearGradient id="artilleryr1x4651" x1="0%" y1="0%" x2="0%" y2="100%">
    <stop offset="0%"   stop-color="#383850"/>
    <stop offset="14%"  stop-color="#78789a"/>
    <stop offset="36%"  stop-color="#202034"/>
    <stop offset="65%"  stop-color="#14141e"/>
    <stop offset="100%" stop-color="#0a0a12"/>
  </linearGradient>
  <!-- Energy orb — staff -->
  <radialGradient id="orbr1x4651" cx="35%" cy="35%" r="65%">
    <stop offset="0%"   stop-color="rgba(255,255,255,.9)"/>
    <stop offset="30%"  stop-color="#00ff60"/>
    <stop offset="68%"  stop-color="#00441e"/>
    <stop offset="100%" stop-color="rgba(0,0,0,.6)"/>
  </radialGradient>
  <!-- Knuckle plate chrome -->
  <linearGradient id="knuckler1x4651" x1="0%" y1="0%" x2="0%" y2="100%">
    <stop offset="0%"   stop-color="#888aaa"/>
    <stop offset="32%"  stop-color="#00ff60" stop-opacity=".8"/>
    <stop offset="62%"  stop-color="#1a1a2c"/>
    <stop offset="100%" stop-color="#0a0a14"/>
  </linearGradient>

  <!-- Carbon fibre weave texture overlay -->
  <pattern id="carbonr1x4651" width="6" height="6" patternUnits="userSpaceOnUse">
    <rect width="6" height="6" fill="rgba(0,0,0,.08)"/>
    <rect x="0" y="0" width="3" height="3" fill="rgba(255,255,255,.022)"/>
    <rect x="3" y="3" width="3" height="3" fill="rgba(255,255,255,.022)"/>
    <line x1="0" y1="0" x2="3" y2="3" stroke="rgba(255,255,255,.038)" stroke-width=".5"/>
    <line x1="3" y1="0" x2="6" y2="3" stroke="rgba(0,0,0,.055)"       stroke-width=".5"/>
    <line x1="0" y1="3" x2="3" y2="6" stroke="rgba(0,0,0,.055)"       stroke-width=".5"/>
    <line x1="3" y1="3" x2="6" y2="6" stroke="rgba(255,255,255,.038)" stroke-width=".5"/>
  </pattern>

  <!-- Specular metal sheen on armour panels -->
  <filter id="metalr1x4651" x="-5%" y="-5%" width="110%" height="110%">
    <feSpecularLighting surfaceScale="4" specularConstant="1.8"
        specularExponent="42" lighting-color="#ffffff" result="spec">
      <feDistantLight elevation="52" azimuth="38"/>
    </feSpecularLighting>
    <feComposite in="spec" in2="SourceGraphic" operator="in" result="sm"/>
    <feComposite in="SourceGraphic" in2="sm" operator="arithmetic" k1="0" k2="1" k3="0.55" k4="0"/>
  </filter>

  <!-- Sharper specular for weapons — heavier glare -->
  <filter id="wmr1x4651" x="-8%" y="-8%" width="116%" height="116%">
    <feSpecularLighting surfaceScale="6" specularConstant="2.4"
        specularExponent="65" lighting-color="#ffffff" result="spec">
      <feDistantLight elevation="44" azimuth="28"/>
    </feSpecularLighting>
    <feComposite in="spec" in2="SourceGraphic" operator="in" result="sm"/>
    <feComposite in="SourceGraphic" in2="sm" operator="arithmetic" k1="0" k2="1" k3="0.78" k4="0"/>
  </filter>

  <!-- Sketch wobble -->
  <filter id="skr1x4651" x="-8%" y="-8%" width="116%" height="116%">
    <feTurbulence type="fractalNoise" baseFrequency="0.038"
        numOctaves="3" seed="38" result="noise"/>
    <feDisplacementMap in="SourceGraphic" in2="noise" scale="2.6"
        xChannelSelector="R" yChannelSelector="G" result="w"/>
    <feComposite in="w" in2="SourceGraphic" operator="atop"/>
  </filter>

  <!-- Glow: sharp accent -->
  <filter id="glowr1x4651" x="-20%" y="-20%" width="140%" height="140%">
    <feGaussianBlur stdDeviation="3.5" result="b"/>
    <feColorMatrix in="b" type="matrix"
        values="0 0 0 0 1  0 0 0 0 1  0 0 0 0 1  0 0 0 1.8 0" result="boost"/>
    <feMerge><feMergeNode in="boost"/><feMergeNode in="SourceGraphic"/></feMerge>
  </filter>

  <!-- Bloom: wide soft -->
  <filter id="bloomr1x4651" x="-40%" y="-40%" width="180%" height="180%">
    <feGaussianBlur stdDeviation="11" result="b"/>
    <feMerge><feMergeNode in="b"/><feMergeNode in="SourceGraphic"/></feMerge>
  </filter>

  </defs><rect width="1000" height="1000" fill="url(#bgr1x4651)"/><ellipse cx="500.0" cy="892.0" rx="350.0" ry="65.0" fill="rgba(0,0,0,.7)" filter="url(#bloomr1x4651)"/><ellipse cx="500.0" cy="889.0" rx="220.0" ry="34.0" fill="rgba(0,0,0,.45)"/><ellipse cx="500.0" cy="520.0" rx="320.0" ry="480.0" fill="#00e5ff" fill-opacity=".042" filter="url(#bloomr1x4651)"/><circle cx="546.6" cy="756.0" r="3.2" fill="#00e5ff" fill-opacity="0.42" filter="url(#glowr1x4651)"/><circle cx="684.0" cy="223.5" r="3.1" fill="#00e5ff" fill-opacity="0.54" filter="url(#glowr1x4651)"/><circle cx="329.0" cy="536.8" r="3.7" fill="#00e5ff" fill-opacity="0.53" filter="url(#glowr1x4651)"/><circle cx="268.4" cy="259.8" r="3.1" fill="#00e5ff" fill-opacity="0.40" filter="url(#glowr1x4651)"/><circle cx="310.7" cy="276.8" r="1.1" fill="#00e5ff" fill-opacity="0.75" filter="url(#glowr1x4651)"/><circle cx="256.0" cy="264.2" r="2.5" fill="#00e5ff" fill-opacity="0.49" filter="url(#glowr1x4651)"/><circle cx="448.0" cy="296.5" r="1.3" fill="#00e5ff" fill-opacity="0.55" filter="url(#glowr1x4651)"/><circle cx="310.5" cy="654.5" r="1.1" fill="#00e5ff" fill-opacity="0.38" filter="url(#glowr1x4651)"/><circle cx="529.8" cy="581.4" r="1.9" fill="#00e5ff" fill-opacity="0.62" filter="url(#glowr1x4651)"/><circle cx="734.4" cy="227.5" r="2.3" fill="#00e5ff" fill-opacity="0.39" filter="url(#glowr1x4651)"/><circle cx="645.0" cy="259.6" r="3.1" fill="#00e5ff" fill-opacity="0.38" filter="url(#glowr1x4651)"/><circle cx="548.1" cy="790.2" r="2.6" fill="#00e5ff" fill-opacity="0.90" filter="url(#glowr1x4651)"/><circle cx="297.2" cy="656.3" r="2.3" fill="#00e5ff" fill-opacity="0.77" filter="url(#glowr1x4651)"/><circle cx="277.3" cy="264.4" r="1.8" fill="#00e5ff" fill-opacity="0.65" filter="url(#glowr1x4651)"/><path d="M615.0,278.3 Q599.4,481.5 460.7,684.4" stroke="#00e5ff" stroke-opacity="0.67" stroke-width="1.2" fill="none" filter="url(#glowr1x4651)"/><path d="M570.0,221.4 Q526.6,515.0 450.0,780.0" stroke="#00e5ff" stroke-opacity="0.65" stroke-width="0.8" fill="none" filter="url(#glowr1x4651)"/><path d="M592.3,205.3 Q592.2,539.4 658.2,844.8" stroke="#00e5ff" stroke-opacity="0.57" stroke-width="1.6" fill="none" filter="url(#glowr1x4651)"/><path d="M483.7,232.6 Q456.6,441.7 554.3,702.7" stroke="#00e5ff" stroke-opacity="0.43" stroke-width="2.4" fill="none" filter="url(#glowr1x4651)"/><path d="M406.8,284.6 Q410.4,479.9 674.0,626.8" stroke="#00e5ff" stroke-opacity="0.61" stroke-width="2.0" fill="none" filter="url(#glowr1x4651)"/><polygon points="399.1,664.2 490.6,662.3 479.2,877.9 386.7,878.2" fill="url(#suitr1x4651)" stroke="#00ff60" stroke-width="2.2" filter="url(#skr1x4651) url(#metalr1x4651)"/><polygon points="398.5,661.3 489.2,662.9 481.9,879.1 387.1,876.6" fill="url(#carbonr1x4651)"/><polygon points="393.6,724.1 493.5,723.9 484.2,787.1 383.1,786.7" fill="url(#bevelr1x4651)" fill-opacity=".5" stroke="#00ff60" stroke-width="1.4" filter="url(#skr1x4651)"/><polygon points="510.7,662.1 602.5,661.0 613.5,877.3 520.9,878.6" fill="url(#suitr1x4651)" stroke="#00ff60" stroke-width="2.2" filter="url(#skr1x4651) url(#metalr1x4651)"/><polygon points="509.9,663.9 599.7,664.0 611.3,876.8 519.6,877.5" fill="url(#carbonr1x4651)"/><polygon points="506.3,722.0 608.9,724.7 616.8,786.9 517.6,789.4" fill="url(#bevelr1x4651)" fill-opacity=".5" stroke="#00ff60" stroke-width="1.4" filter="url(#skr1x4651)"/><rect x="391.6" y="838.1" width="100.3" height="24.7" fill="url(#bevelr1x4651)" stroke="#00ff60" stroke-width="1" filter="url(#skr1x4651)"/><rect x="507.2"  y="839.3" width="100.3" height="24.7" fill="url(#bevelr1x4651)" stroke="#00ff60" stroke-width="1" filter="url(#skr1x4651)"/><polygon points="370.6,877.2 496.6,875.7 504.5,922.9 363.3,920.4" fill="#00441e" stroke="#00ff60" stroke-width="2" filter="url(#skr1x4651)"/><polygon points="504.2,877.2 629.7,876.0 635.6,921.1 497.7,922.1" fill="#00441e" stroke="#00ff60" stroke-width="2" filter="url(#skr1x4651)"/><polygon points="302.9,632.6 697.3,634.4 637.1,683.0 364.0,681.2" fill="#00ff60" fill-opacity=".52" stroke="#00ff60" stroke-width="2" filter="url(#skr1x4651)"/><rect x="463.2" y="636.6" width="72.0" height="42.0" fill="url(#bevelr1x4651)" stroke="#00ff60" stroke-width="1.4" filter="url(#glowr1x4651)"/><rect x="485.7" y="640.7" width="28.0" height="22.0" rx="1" fill="rgba(255,255,255,.48)"/><polygon points="153.3,467.2 233.6,466.2 258.7,735.9 127.3,735.7" fill="url(#suitr1x4651)" stroke="#00ff60" stroke-width="2.2" filter="url(#skr1x4651) url(#metalr1x4651)"/><polygon points="173.1,431.9 252.4,431.0 241.9,509.4 159.7,511.5" fill="url(#bevelr1x4651)" fill-opacity=".72" stroke="#00ff60" stroke-width="2.2" filter="url(#skr1x4651)"/><polygon points="159.8,622.3 241.5,623.6 238.4,661.6 163.7,661.7" fill="#00ff60" fill-opacity=".42" stroke="#00ff60" stroke-width="1" filter="url(#skr1x4651)"/><polygon points="765.9,467.5 846.3,467.7 870.9,736.3 742.5,733.5" fill="url(#suitr1x4651)" stroke="#00ff60" stroke-width="2.2" filter="url(#skr1x4651) url(#metalr1x4651)"/><polygon points="747.6,431.4 828.3,433.0 838.8,509.1 755.6,510.3" fill="url(#bevelr1x4651)" fill-opacity=".72" stroke="#00ff60" stroke-width="2.2" filter="url(#skr1x4651)"/><polygon points="758.2,622.8 837.5,621.1 834.9,660.2 761.1,661.2" fill="#00ff60" fill-opacity=".42" stroke="#00ff60" stroke-width="1" filter="url(#skr1x4651)"/><rect x="121.0"  y="699.4" width="135.3" height="85.0" rx="4" fill="url(#bevelr1x4651)" stroke="#00ff60" stroke-width="1.8" filter="url(#skr1x4651)"/><rect x="747.9"   y="700.4" width="135.3" height="85.0" rx="4" fill="url(#bevelr1x4651)" stroke="#00ff60" stroke-width="1.8" filter="url(#skr1x4651)"/><line x1="151.2" y1="700.1" x2="149.1" y2="784.3" stroke="#00ff60" stroke-opacity=".38" stroke-width="1"/><line x1="779.8" y1="702.3" x2="778.0" y2="784.4" stroke="#00ff60" stroke-opacity=".38" stroke-width="1"/><line x1="184.2" y1="700.9" x2="183.0" y2="784.9" stroke="#00ff60" stroke-opacity=".38" stroke-width="1"/><line x1="812.7" y1="700.8" x2="810.0" y2="783.2" stroke="#00ff60" stroke-opacity=".38" stroke-width="1"/><line x1="213.7" y1="700.9" x2="214.1" y2="782.8" stroke="#00ff60" stroke-opacity=".38" stroke-width="1"/><line x1="842.3" y1="701.1" x2="845.2" y2="784.8" stroke="#00ff60" stroke-opacity=".38" stroke-width="1"/><polygon points="233.6,419.1 763.6,418.3 723.7,661.7 277.5,662.5" fill="url(#suitr1x4651)" stroke="#00ff60" stroke-width="2.6" filter="url(#skr1x4651) url(#metalr1x4651)"/><polygon points="235.8,416.2 764.5,417.8 724.3,661.5 275.7,661.7" fill="url(#carbonr1x4651)"/><polygon points="368.8,419.1 631.3,418.6 612.0,517.1 388.3,516.5" fill="url(#suitHir1x4651)"/><line x1="363.7" y1="470.0" x2="639.3" y2="471.9" stroke="#00ff60" stroke-opacity=".52" stroke-width="1.3" filter="url(#skr1x4651)"/><line x1="398.7" y1="549.0" x2="600.8" y2="548.3" stroke="#00ff60" stroke-opacity=".52" stroke-width="1.3" filter="url(#skr1x4651)"/><line x1="268.3" y1="492.0" x2="318.0" y2="489.2" stroke="#00ff60" stroke-opacity=".62" stroke-width="1.8"/><line x1="680.4" y1="492.3" x2="733.2" y2="489.3" stroke="#00ff60" stroke-opacity=".62" stroke-width="1.8"/><line x1="265.0" y1="521.1" x2="320.1" y2="524.0" stroke="#00ff60" stroke-opacity=".62" stroke-width="1.8"/><line x1="680.2" y1="521.3" x2="734.2" y2="521.9" stroke="#00ff60" stroke-opacity=".62" stroke-width="1.8"/><line x1="266.5" y1="556.5" x2="318.2" y2="554.7" stroke="#00ff60" stroke-opacity=".62" stroke-width="1.8"/><line x1="679.2" y1="553.3" x2="733.6" y2="555.5" stroke="#00ff60" stroke-opacity=".62" stroke-width="1.8"/><line x1="267.0" y1="585.0" x2="319.0" y2="585.6" stroke="#00ff60" stroke-opacity=".62" stroke-width="1.8"/><line x1="678.5" y1="584.9" x2="732.1" y2="585.5" stroke="#00ff60" stroke-opacity=".62" stroke-width="1.8"/><g filter="url(#glowr1x4651)"><polygon points="499.3,450.8 515.9,488.5 555.5,492.7 524.3,518.2 532.3,555.8 500.6,536.4 464.6,557.5 475.7,519.3 443.7,493.9 485.4,490.6 " fill="#00ff60" stroke="#0a0520" stroke-width="1.4" filter="url(#skr1x4651)"/><polygon points="499.3,450.8 515.9,488.5 555.5,492.7 524.3,518.2 532.3,555.8 500.6,536.4 464.6,557.5 475.7,519.3 443.7,493.9 485.4,490.6 " fill="url(#suitHir1x4651)" opacity=".45"/></g><g><rect x="828.0875008898415" y="421.6384351598099" width="148.0" height="82.0" rx="5" fill="url(#gunmetalr1x4651)" stroke="#00ff60" stroke-width="2" filter="url(#wmr1x4651)"/><rect x="829.1282229698822" y="420.78862607982006" width="148.0" height="82.0" rx="5" fill="url(#carbonr1x4651)"/><rect x="836.2746919116564" y="404.1467904407531" width="90.0" height="22.0" rx="3" fill="url(#barrelr1x4651)" stroke="#00ff60" stroke-width="1" filter="url(#wmr1x4651)"/><circle cx="879.026632229574" cy="414.55774280596523" r="15.0" fill="#00ff60" opacity=".8" filter="url(#glowr1x4651)"/><circle cx="877.4613948425837" cy="413.97387605654075" r="6.0" fill="rgba(255,255,255,.9)"/><rect x="946.217848284971" y="453.64322804119433" width="78.0" height="36.0" rx="5" fill="url(#barrelr1x4651)" stroke="#00ff60" stroke-width="1.2" filter="url(#wmr1x4651)"/><circle cx="1021.5623208087496" cy="469.9830722969025" r="18.0" fill="#00ff60" filter="url(#glowr1x4651)" opacity=".88"/><circle cx="1020.605667453967" cy="469.971138548851" r="7.0" fill="#ffffff"/><rect x="874.3045808117464" y="499.879263500683" width="44.0" height="42.0" rx="3" fill="url(#gunmetalr1x4651)" stroke="#00ff60" stroke-width="1" filter="url(#wmr1x4651)"/><rect x="832.0889996477962" y="424.38110664030535" width="90.0" height="10.0" rx="2" fill="rgba(255,255,255,.22)"/><line x1="859.3591406771541" y1="488.1676153235137" x2="859.0295483573899" y2="520.7611248633824" stroke="#00ff60" stroke-opacity=".5" stroke-width="1.2"/><line x1="874.7303890575282" y1="485.7708387567661" x2="874.1257717408799" y2="517.9285258810036" stroke="#00ff60" stroke-opacity=".5" stroke-width="1.2"/><line x1="891.3965988961608" y1="484.74886935111135" x2="890.9527562874929" y2="519.2900760941208" stroke="#00ff60" stroke-opacity=".5" stroke-width="1.2"/></g><rect x="448.94140210077165" y="558.605471986439" width="100.0"  height="56.0" fill="#00441e" stroke="#00ff60" stroke-width="2.2" filter="url(#skr1x4651)"/><rect x="424.3770211931318" y="577.0035143414513" width="152.0" height="26.0" fill="url(#bevelr1x4651)" fill-opacity=".65" stroke="#00ff60" stroke-width="1.2" filter="url(#skr1x4651)"/><polygon points="309.2,381.8 349.7,292.9 500.3,278.4 649.4,293.5 693.2,380.7 670.5,504.3 501.5,566.1 332.6,503.8" fill="url(#suitr1x4651)" stroke="#00ff60" stroke-width="2.8" filter="url(#skr1x4651) url(#metalr1x4651)"/><polygon points="308.9,381.3 348.7,293.3 498.3,278.4 650.7,293.8 690.6,380.2 667.6,504.3 499.1,564.8 329.2,503.1" fill="url(#carbonr1x4651)"/><polygon points="379.4,302.3 501.6,287.6 617.8,303.0 605.8,382.0 391.2,380.3" fill="url(#suitHir1x4651)"/><polygon points="380.6,379.8 366.3,427.0 434.3,502.3 499.7,529.9 568.2,504.9 633.8,426.0 619.4,379.0" fill="#0a0520" fill-opacity=".88" stroke="#00ff60" stroke-width="1.8" filter="url(#skr1x4651)"/><polygon points="382.4,411.1 476.8,412.5 484.9,438.3 389.7,439.2" fill="#00ff60" filter="url(#glowr1x4651)"/><polygon points="523.3,412.9 618.0,411.3 610.9,438.4 514.1,441.4" fill="#00ff60" filter="url(#glowr1x4651)"/><ellipse cx="430.9" cy="425.7" rx="38.4"  ry="8.2" fill="#ffffff" opacity=".88"/><ellipse cx="569.1" cy="425.7" rx="38.4"  ry="8.2" fill="#ffffff" opacity=".88"/><line x1="485.58702035365627" y1="414.24463316677134" x2="515.1772529844567" y2="414.99959140084684" stroke="#00ff60" stroke-opacity=".52" stroke-width="2"/><line x1="484.68558856785296" y1="439.5929812308401" x2="515.0374245804176" y2="437.89571207240226" stroke="#00ff60" stroke-opacity=".52" stroke-width="2"/><line x1="499.0152411105111" y1="453.2371267803944" x2="499.9698881855235" y2="484.66280421605336" stroke="#00ff60" stroke-opacity=".58" stroke-width="2.2" filter="url(#skr1x4651)"/><line x1="455.1918061632477" y1="491.71610062224784" x2="453.78885506575926" y2="519.557597300876" stroke="#00ff60" stroke-opacity=".52" stroke-width="1.5" filter="url(#skr1x4651)"/><line x1="475.37856388440355" y1="492.90982587728644" x2="476.7863093198649" y2="521.7678805436939" stroke="#00ff60" stroke-opacity=".52" stroke-width="1.5" filter="url(#skr1x4651)"/><line x1="500.0510053426027" y1="493.0992716880515" x2="500.4685718750581" y2="520.297948236391" stroke="#00ff60" stroke-opacity=".52" stroke-width="1.5" filter="url(#skr1x4651)"/><line x1="521.7187584145553" y1="489.67181851919736" x2="521.2416527839005" y2="520.3822165138088" stroke="#00ff60" stroke-opacity=".52" stroke-width="1.5" filter="url(#skr1x4651)"/><line x1="544.6117390911281" y1="491.3222421512007" x2="546.7580628454872" y2="519.2320543497801" stroke="#00ff60" stroke-opacity=".52" stroke-width="1.5" filter="url(#skr1x4651)"/><polygon points="434.6,504.8 567.3,502.0 552.4,555.8 445.8,557.7" fill="#00441e" fill-opacity=".72" stroke="#00ff60" stroke-width="1.3" filter="url(#skr1x4651)"/><path d="M473.60624280281365 311.22079955246295 C303.61721319438885 148.12224658913908 417.6483807970211 240.8013658843003 500.63225884595886 309.5511335945688" fill="#00ff60" fill-opacity=".92" stroke="#00ff60" stroke-width="2.2" filter="url(#skr1x4651)"/><path d="M472.1833884194307 309.6526001567952 C304.7694456717372 146.5706841573119 417.8740943643637 242.19157450664787 498.9370071479119 311.2621048026718" fill="url(#suitHir1x4651)" opacity=".28"/><path d="M528.5933660209365 311.32978591397404 C694.9790744142234 147.79601469673213 580.3539508684165 241.24584356462583 500.04407579610125 309.7052554116584" fill="#00ff60" fill-opacity=".92" stroke="#00ff60" stroke-width="2.2" filter="url(#skr1x4651)"/><path d="M526.3486768224462 312.1240944978781 C696.2846511765011 145.92878293171523 581.4231532598473 239.85863666776567 499.8196579419076 310.64610187923535" fill="url(#suitHir1x4651)" opacity=".28"/><text x="30.0"  y="975.0" font-family="monospace" font-weight="bold" font-size="22.0" fill="rgba(255,255,255,.22)">#0001</text><text x="500.0"   y="975.0" text-anchor="middle" font-family="monospace" font-weight="bold" font-size="22.0" fill="#00ff60" fill-opacity=".48">VIPER RANGER</text><text x="970.0" y="975.0" text-anchor="end"    font-family="monospace" font-weight="bold" font-size="22.0" fill="#00ff60" fill-opacity=".32">MECH RANGERS</text></svg>