<svg xmlns="http://www.w3.org/2000/svg" viewBox="0 0 1000 1000" width="1000" height="1000" shape-rendering="geometricPrecision"><defs>

  <!-- Scene gradients -->
  <radialGradient id="bgr1x4731" cx="50%" cy="42%" r="72%">
    <stop offset="0%"   stop-color="#1a2814"/>
    <stop offset="100%" stop-color="#0d1520"/>
  </radialGradient>
  <linearGradient id="suitr1x4731" x1="8%" y1="0%" x2="92%" y2="100%">
    <stop offset="0%"   stop-color="#ccccff" stop-opacity=".95"/>
    <stop offset="45%"  stop-color="#242438"/>
    <stop offset="100%" stop-color="#0d1520"/>
  </linearGradient>
  <linearGradient id="suitHir1x4731" x1="0%" y1="0%" x2="0%" y2="100%">
    <stop offset="0%"   stop-color="rgba(255,255,255,.28)"/>
    <stop offset="60%"  stop-color="rgba(255,255,255,.04)"/>
    <stop offset="100%" stop-color="rgba(255,255,255,0)"/>
  </linearGradient>
  <!-- Bevel: bright top, dark bottom for armour panels -->
  <linearGradient id="bevelr1x4731" x1="0%" y1="0%" x2="0%" y2="100%">
    <stop offset="0%"   stop-color="rgba(255,255,255,.55)"/>
    <stop offset="30%"  stop-color="#ccccff"/>
    <stop offset="70%"  stop-color="#242438"/>
    <stop offset="100%" stop-color="rgba(0,0,0,.5)"/>
  </linearGradient>

  <!-- Weapon: cold steel blade sweep -->
  <linearGradient id="blader1x4731" x1="0%" y1="0%" x2="100%" y2="0%">
    <stop offset="0%"   stop-color="#0e0e20"/>
    <stop offset="16%"  stop-color="#3e3e58"/>
    <stop offset="34%"  stop-color="#c8c8e0"/>
    <stop offset="50%"  stop-color="#f5f5ff"/>
    <stop offset="66%"  stop-color="#b8b8d0"/>
    <stop offset="84%"  stop-color="#2e2e48"/>
    <stop offset="100%" stop-color="#08080e"/>
  </linearGradient>
  <!-- Blade tip brightening -->
  <linearGradient id="bladeTipr1x4731" x1="0%" y1="100%" x2="0%" y2="0%">
    <stop offset="0%"   stop-color="rgba(255,255,255,0)"/>
    <stop offset="55%"  stop-color="rgba(255,255,255,.1)"/>
    <stop offset="100%" stop-color="rgba(255,255,255,.55)"/>
  </linearGradient>
  <!-- Gunmetal anodised — blaster body -->
  <linearGradient id="gunmetalr1x4731" x1="0%" y1="0%" x2="0%" y2="100%">
    <stop offset="0%"   stop-color="#46465e"/>
    <stop offset="18%"  stop-color="#828296"/>
    <stop offset="42%"  stop-color="#26263a"/>
    <stop offset="72%"  stop-color="#16162a"/>
    <stop offset="100%" stop-color="#0c0c18"/>
  </linearGradient>
  <!-- Brushed steel tube — barrel/rod -->
  <linearGradient id="barrelr1x4731" x1="0%" y1="0%" x2="100%" y2="0%">
    <stop offset="0%"   stop-color="#0a0a14"/>
    <stop offset="24%"  stop-color="#585875"/>
    <stop offset="50%"  stop-color="#a8a8c8"/>
    <stop offset="76%"  stop-color="#383852"/>
    <stop offset="100%" stop-color="#0a0a14"/>
  </linearGradient>
  <!-- Chrome rod — lance shaft -->
  <linearGradient id="chromer1x4731" x1="0%" y1="0%" x2="100%" y2="0%">
    <stop offset="0%"   stop-color="#0c0c18"/>
    <stop offset="20%"  stop-color="#686888"/>
    <stop offset="44%"  stop-color="#e0e0f0"/>
    <stop offset="56%"  stop-color="#c0c0d8"/>
    <stop offset="80%"  stop-color="#28283e"/>
    <stop offset="100%" stop-color="#0c0c18"/>
  </linearGradient>
  <!-- Titanium plate — shield face -->
  <linearGradient id="titaniumr1x4731" x1="0%" y1="0%" x2="100%" y2="100%">
    <stop offset="0%"   stop-color="#585878"/>
    <stop offset="28%"  stop-color="#ccccff" stop-opacity=".88"/>
    <stop offset="55%"  stop-color="#242438"/>
    <stop offset="80%"  stop-color="#181828"/>
    <stop offset="100%" stop-color="#0a0a18"/>
  </linearGradient>
  <!-- Artillery black-chrome — cannon body -->
  <linearGradient id="artilleryr1x4731" x1="0%" y1="0%" x2="0%" y2="100%">
    <stop offset="0%"   stop-color="#383850"/>
    <stop offset="14%"  stop-color="#78789a"/>
    <stop offset="36%"  stop-color="#202034"/>
    <stop offset="65%"  stop-color="#14141e"/>
    <stop offset="100%" stop-color="#0a0a12"/>
  </linearGradient>
  <!-- Energy orb — staff -->
  <radialGradient id="orbr1x4731" cx="35%" cy="35%" r="65%">
    <stop offset="0%"   stop-color="rgba(255,255,255,.9)"/>
    <stop offset="30%"  stop-color="#ccccff"/>
    <stop offset="68%"  stop-color="#242438"/>
    <stop offset="100%" stop-color="rgba(0,0,0,.6)"/>
  </radialGradient>
  <!-- Knuckle plate chrome -->
  <linearGradient id="knuckler1x4731" x1="0%" y1="0%" x2="0%" y2="100%">
    <stop offset="0%"   stop-color="#888aaa"/>
    <stop offset="32%"  stop-color="#ccccff" stop-opacity=".8"/>
    <stop offset="62%"  stop-color="#1a1a2c"/>
    <stop offset="100%" stop-color="#0a0a14"/>
  </linearGradient>

  <!-- Carbon fibre weave texture overlay -->
  <pattern id="carbonr1x4731" width="6" height="6" patternUnits="userSpaceOnUse">
    <rect width="6" height="6" fill="rgba(0,0,0,.08)"/>
    <rect x="0" y="0" width="3" height="3" fill="rgba(255,255,255,.022)"/>
    <rect x="3" y="3" width="3" height="3" fill="rgba(255,255,255,.022)"/>
    <line x1="0" y1="0" x2="3" y2="3" stroke="rgba(255,255,255,.038)" stroke-width=".5"/>
    <line x1="3" y1="0" x2="6" y2="3" stroke="rgba(0,0,0,.055)"       stroke-width=".5"/>
    <line x1="0" y1="3" x2="3" y2="6" stroke="rgba(0,0,0,.055)"       stroke-width=".5"/>
    <line x1="3" y1="3" x2="6" y2="6" stroke="rgba(255,255,255,.038)" stroke-width=".5"/>
  </pattern>

  <!-- Specular metal sheen on armour panels -->
  <filter id="metalr1x4731" x="-5%" y="-5%" width="110%" height="110%">
    <feSpecularLighting surfaceScale="4" specularConstant="1.8"
        specularExponent="42" lighting-color="#ffffff" result="spec">
      <feDistantLight elevation="52" azimuth="38"/>
    </feSpecularLighting>
    <feComposite in="spec" in2="SourceGraphic" operator="in" result="sm"/>
    <feComposite in="SourceGraphic" in2="sm" operator="arithmetic" k1="0" k2="1" k3="0.55" k4="0"/>
  </filter>

  <!-- Sharper specular for weapons — heavier glare -->
  <filter id="wmr1x4731" x="-8%" y="-8%" width="116%" height="116%">
    <feSpecularLighting surfaceScale="6" specularConstant="2.4"
        specularExponent="65" lighting-color="#ffffff" result="spec">
      <feDistantLight elevation="44" azimuth="28"/>
    </feSpecularLighting>
    <feComposite in="spec" in2="SourceGraphic" operator="in" result="sm"/>
    <feComposite in="SourceGraphic" in2="sm" operator="arithmetic" k1="0" k2="1" k3="0.78" k4="0"/>
  </filter>

  <!-- Sketch wobble -->
  <filter id="skr1x4731" x="-8%" y="-8%" width="116%" height="116%">
    <feTurbulence type="fractalNoise" baseFrequency="0.038"
        numOctaves="3" seed="71" result="noise"/>
    <feDisplacementMap in="SourceGraphic" in2="noise" scale="2.6"
        xChannelSelector="R" yChannelSelector="G" result="w"/>
    <feComposite in="w" in2="SourceGraphic" operator="atop"/>
  </filter>

  <!-- Glow: sharp accent -->
  <filter id="glowr1x4731" x="-20%" y="-20%" width="140%" height="140%">
    <feGaussianBlur stdDeviation="3.5" result="b"/>
    <feColorMatrix in="b" type="matrix"
        values="0 0 0 0 1  0 0 0 0 1  0 0 0 0 1  0 0 0 1.8 0" result="boost"/>
    <feMerge><feMergeNode in="boost"/><feMergeNode in="SourceGraphic"/></feMerge>
  </filter>

  <!-- Bloom: wide soft -->
  <filter id="bloomr1x4731" x="-40%" y="-40%" width="180%" height="180%">
    <feGaussianBlur stdDeviation="11" result="b"/>
    <feMerge><feMergeNode in="b"/><feMergeNode in="SourceGraphic"/></feMerge>
  </filter>

  </defs><rect width="1000" height="1000" fill="url(#bgr1x4731)"/><ellipse cx="500.0" cy="892.0" rx="350.0" ry="65.0" fill="rgba(0,0,0,.7)" filter="url(#bloomr1x4731)"/><ellipse cx="500.0" cy="889.0" rx="220.0" ry="34.0" fill="rgba(0,0,0,.45)"/><ellipse cx="500.0" cy="520.0" rx="320.0" ry="480.0" fill="#6600ff" fill-opacity=".042" filter="url(#bloomr1x4731)"/><circle cx="528.4" cy="285.7" r="3.5" fill="#6600ff" fill-opacity="0.44" filter="url(#glowr1x4731)"/><circle cx="295.6" cy="500.8" r="0.7" fill="#6600ff" fill-opacity="0.82" filter="url(#glowr1x4731)"/><circle cx="627.5" cy="214.8" r="4.1" fill="#6600ff" fill-opacity="0.78" filter="url(#glowr1x4731)"/><circle cx="276.5" cy="195.8" r="4.2" fill="#6600ff" fill-opacity="0.62" filter="url(#glowr1x4731)"/><circle cx="252.4" cy="209.4" r="2.9" fill="#6600ff" fill-opacity="0.83" filter="url(#glowr1x4731)"/><circle cx="350.7" cy="358.1" r="1.6" fill="#6600ff" fill-opacity="0.84" filter="url(#glowr1x4731)"/><circle cx="631.8" cy="364.1" r="3.5" fill="#6600ff" fill-opacity="0.59" filter="url(#glowr1x4731)"/><circle cx="636.7" cy="192.4" r="1.7" fill="#6600ff" fill-opacity="0.49" filter="url(#glowr1x4731)"/><circle cx="734.0" cy="569.2" r="4.2" fill="#6600ff" fill-opacity="0.90" filter="url(#glowr1x4731)"/><circle cx="538.9" cy="605.6" r="3.5" fill="#6600ff" fill-opacity="0.89" filter="url(#glowr1x4731)"/><circle cx="517.0" cy="384.8" r="1.1" fill="#6600ff" fill-opacity="0.76" filter="url(#glowr1x4731)"/><circle cx="342.0" cy="546.8" r="2.1" fill="#6600ff" fill-opacity="0.77" filter="url(#glowr1x4731)"/><circle cx="747.8" cy="358.5" r="1.0" fill="#6600ff" fill-opacity="0.60" filter="url(#glowr1x4731)"/><circle cx="625.8" cy="505.8" r="2.4" fill="#6600ff" fill-opacity="0.75" filter="url(#glowr1x4731)"/><polygon points="398.3,664.0 489.3,662.5 482.3,876.4 386.4,878.6" fill="url(#suitr1x4731)" stroke="#ccccff" stroke-width="2.2" filter="url(#skr1x4731) url(#metalr1x4731)"/><polygon points="398.4,661.9 489.6,663.8 481.9,877.9 385.6,876.4" fill="url(#carbonr1x4731)"/><polygon points="391.1,723.8 493.2,723.0 484.0,789.0 383.8,786.6" fill="url(#bevelr1x4731)" fill-opacity=".5" stroke="#ccccff" stroke-width="1.4" filter="url(#skr1x4731)"/><polygon points="512.0,660.8 601.0,661.4 613.4,878.1 520.2,876.9" fill="url(#suitr1x4731)" stroke="#ccccff" stroke-width="2.2" filter="url(#skr1x4731) url(#metalr1x4731)"/><polygon points="508.8,664.2 602.2,663.2 613.5,879.1 517.8,876.2" fill="url(#carbonr1x4731)"/><polygon points="507.8,722.1 606.0,723.8 614.7,789.6 516.0,787.4" fill="url(#bevelr1x4731)" fill-opacity=".5" stroke="#ccccff" stroke-width="1.4" filter="url(#skr1x4731)"/><rect x="393.5" y="837.8" width="100.3" height="24.7" fill="url(#bevelr1x4731)" stroke="#ccccff" stroke-width="1" filter="url(#skr1x4731)"/><rect x="505.5"  y="838.2" width="100.3" height="24.7" fill="url(#bevelr1x4731)" stroke="#ccccff" stroke-width="1" filter="url(#skr1x4731)"/><polygon points="368.5,876.2 495.3,878.9 503.5,920.7 361.8,920.0" fill="#242438" stroke="#ccccff" stroke-width="2" filter="url(#skr1x4731)"/><polygon points="504.6,878.1 631.9,878.6 635.8,923.1 494.8,921.3" fill="#242438" stroke="#ccccff" stroke-width="2" filter="url(#skr1x4731)"/><polygon points="303.1,633.2 695.7,633.5 637.4,680.9 360.4,682.9" fill="#ccccff" fill-opacity=".52" stroke="#ccccff" stroke-width="2" filter="url(#skr1x4731)"/><rect x="462.6" y="636.8" width="72.0" height="42.0" fill="url(#bevelr1x4731)" stroke="#ccccff" stroke-width="1.4" filter="url(#glowr1x4731)"/><rect x="486.8" y="638.8" width="28.0" height="22.0" rx="1" fill="rgba(255,255,255,.48)"/><polygon points="152.5,465.1 233.4,466.9 258.6,733.6 127.8,733.9" fill="url(#suitr1x4731)" stroke="#ccccff" stroke-width="2.2" filter="url(#skr1x4731) url(#metalr1x4731)"/><polygon points="173.9,432.8 252.4,432.8 242.5,512.1 160.0,508.8" fill="url(#bevelr1x4731)" fill-opacity=".72" stroke="#ccccff" stroke-width="2.2" filter="url(#skr1x4731)"/><polygon points="162.2,620.3 243.2,621.0 239.7,660.4 166.9,660.3" fill="#ccccff" fill-opacity=".42" stroke="#ccccff" stroke-width="1" filter="url(#skr1x4731)"/><polygon points="763.5,466.4 848.2,465.0 871.9,734.3 741.8,736.4" fill="url(#suitr1x4731)" stroke="#ccccff" stroke-width="2.2" filter="url(#skr1x4731) url(#metalr1x4731)"/><polygon points="748.4,433.8 826.2,433.7 839.7,509.6 756.1,512.1" fill="url(#bevelr1x4731)" fill-opacity=".72" stroke="#ccccff" stroke-width="2.2" filter="url(#skr1x4731)"/><polygon points="756.2,620.8 837.6,622.1 834.2,662.3 761.2,661.3" fill="#ccccff" fill-opacity=".42" stroke="#ccccff" stroke-width="1" filter="url(#skr1x4731)"/><rect x="119.4"  y="699.5" width="135.3" height="85.0" rx="4" fill="url(#bevelr1x4731)" stroke="#ccccff" stroke-width="1.8" filter="url(#skr1x4731)"/><rect x="749.1"   y="701.7" width="135.3" height="85.0" rx="4" fill="url(#bevelr1x4731)" stroke="#ccccff" stroke-width="1.8" filter="url(#skr1x4731)"/><line x1="151.2" y1="701.6" x2="149.4" y2="785.2" stroke="#ccccff" stroke-opacity=".38" stroke-width="1"/><line x1="779.4" y1="703.2" x2="778.5" y2="783.0" stroke="#ccccff" stroke-opacity=".38" stroke-width="1"/><line x1="182.4" y1="701.1" x2="182.5" y2="783.5" stroke="#ccccff" stroke-opacity=".38" stroke-width="1"/><line x1="809.7" y1="702.9" x2="810.3" y2="782.7" stroke="#ccccff" stroke-opacity=".38" stroke-width="1"/><line x1="216.9" y1="701.8" x2="216.8" y2="783.4" stroke="#ccccff" stroke-opacity=".38" stroke-width="1"/><line x1="843.3" y1="702.9" x2="843.6" y2="784.2" stroke="#ccccff" stroke-opacity=".38" stroke-width="1"/><polygon points="233.6,418.6 763.3,418.2 723.8,663.2 276.2,663.1" fill="url(#suitr1x4731)" stroke="#ccccff" stroke-width="2.6" filter="url(#skr1x4731) url(#metalr1x4731)"/><polygon points="236.2,417.8 764.3,418.3 721.9,663.5 278.8,661.2" fill="url(#carbonr1x4731)"/><polygon points="366.9,417.6 632.5,416.1 610.7,517.1 387.9,516.5" fill="url(#suitHir1x4731)"/><line x1="362.9" y1="472.3" x2="639.6" y2="470.3" stroke="#ccccff" stroke-opacity=".52" stroke-width="1.3" filter="url(#skr1x4731)"/><line x1="399.1" y1="550.2" x2="599.6" y2="549.2" stroke="#ccccff" stroke-opacity=".52" stroke-width="1.3" filter="url(#skr1x4731)"/><line x1="265.6" y1="492.2" x2="318.1" y2="492.0" stroke="#ccccff" stroke-opacity=".62" stroke-width="1.8"/><line x1="681.6" y1="491.8" x2="731.9" y2="492.5" stroke="#ccccff" stroke-opacity=".62" stroke-width="1.8"/><line x1="267.9" y1="521.4" x2="318.3" y2="521.2" stroke="#ccccff" stroke-opacity=".62" stroke-width="1.8"/><line x1="680.4" y1="523.0" x2="733.5" y2="523.2" stroke="#ccccff" stroke-opacity=".62" stroke-width="1.8"/><line x1="268.3" y1="555.3" x2="319.9" y2="554.4" stroke="#ccccff" stroke-opacity=".62" stroke-width="1.8"/><line x1="680.6" y1="555.1" x2="734.6" y2="554.8" stroke="#ccccff" stroke-opacity=".62" stroke-width="1.8"/><line x1="267.9" y1="585.1" x2="318.4" y2="587.4" stroke="#ccccff" stroke-opacity=".62" stroke-width="1.8"/><line x1="679.5" y1="585.4" x2="734.3" y2="586.4" stroke="#ccccff" stroke-opacity=".62" stroke-width="1.8"/><g filter="url(#glowr1x4731)"><polygon points="461.9,529.0 464.0,497.0 480.5,468.9 499.8,496.2 519.7,466.7 537.1,496.7 537.6,529.4" fill="#ccccff" stroke="#0d1520" stroke-width="1.4" filter="url(#skr1x4731)"/><polygon points="461.2,528.9 461.3,496.4 480.6,469.1 500.6,498.1 518.0,469.1 537.7,498.5 538.6,527.6" fill="url(#suitHir1x4731)" opacity=".38"/></g><g><polygon points="31.1,291.7 170.7,292.5 170.6,591.4 103.7,727.7 31.3,591.6" fill="url(#titaniumr1x4731)" stroke="#ccccff" stroke-width="2.6" filter="url(#wmr1x4731)"/><polygon points="32.5,293.4 170.7,291.8 171.9,590.7 100.5,725.4 31.6,592.6" fill="url(#carbonr1x4731)"/><polygon points="65.8,362.5 141.9,363.1 140.1,542.2 102.7,630.1 65.6,540.0" fill="#ccccff" fill-opacity=".28" stroke="#ccccff" stroke-width="1.5"/><line x1="51.47738946558904" y1="433.1585518877953" x2="152.88291463669387" y2="429.8288066279143" stroke="#ccccff" stroke-opacity=".65" stroke-width="1.3"/><line x1="102.18620438747105" y1="330.4775741493329" x2="103.88562180254605" y2="592.7839069901966" stroke="#ccccff" stroke-opacity=".4" stroke-width="1"/><line x1="34.3726209507696" y1="295.2423701318912" x2="171.29213014388455" y2="297.44947362011294" stroke="rgba(255,255,255,.5)" stroke-width="2"/><circle cx="103.65145957520228" cy="431.51740129943937" r="18.0" fill="url(#bevelr1x4731)" stroke="#ccccff" stroke-width="1.2" filter="url(#wmr1x4731)"/></g><rect x="449.13636091137306" y="555.4010255322792" width="100.0"  height="56.0" fill="#242438" stroke="#ccccff" stroke-width="2.2" filter="url(#skr1x4731)"/><rect x="424.827512757387" y="574.6619918394834" width="152.0" height="26.0" fill="url(#bevelr1x4731)" fill-opacity=".65" stroke="#ccccff" stroke-width="1.2" filter="url(#skr1x4731)"/><polygon points="306.4,379.2 351.5,294.6 498.6,276.7 649.6,295.4 690.6,380.6 667.8,501.9 499.2,564.5 332.0,504.1" fill="url(#suitr1x4731)" stroke="#ccccff" stroke-width="2.8" filter="url(#skr1x4731) url(#metalr1x4731)"/><polygon points="307.1,379.2 351.5,296.3 501.5,278.4 650.8,292.9 691.4,381.9 668.5,502.7 500.0,565.9 332.3,504.1" fill="url(#carbonr1x4731)"/><polygon points="380.2,302.4 499.4,285.8 619.0,304.1 606.5,382.3 391.7,382.1" fill="url(#suitHir1x4731)"/><polygon points="379.8,381.8 366.7,425.9 431.0,502.2 499.4,527.3 565.6,503.5 636.1,426.1 619.2,380.2" fill="#0d1520" fill-opacity=".88" stroke="#ccccff" stroke-width="1.8" filter="url(#skr1x4731)"/><polygon points="379.8,410.1 476.4,412.0 482.9,440.7 388.5,438.7" fill="#ccccff" filter="url(#glowr1x4731)"/><polygon points="524.1,411.9 617.9,411.6 612.2,439.3 515.9,440.8" fill="#ccccff" filter="url(#glowr1x4731)"/><ellipse cx="430.9" cy="425.7" rx="38.4"  ry="8.2" fill="#ffffff" opacity=".88"/><ellipse cx="569.1" cy="425.7" rx="38.4"  ry="8.2" fill="#ffffff" opacity=".88"/><line x1="484.794454294499" y1="413.9780354082584" x2="515.6030212066509" y2="415.1150656278245" stroke="#ccccff" stroke-opacity=".52" stroke-width="2"/><line x1="483.6540615227632" y1="437.3539742410183" x2="514.1557802015357" y2="438.80263261590153" stroke="#ccccff" stroke-opacity=".52" stroke-width="2"/><line x1="498.5439725743607" y1="456.16917795669286" x2="498.252074514702" y2="484.80162317156794" stroke="#ccccff" stroke-opacity=".58" stroke-width="2.2" filter="url(#skr1x4731)"/><line x1="454.1656565331668" y1="491.6165188407525" x2="452.87320908091965" y2="519.9799723610282" stroke="#ccccff" stroke-opacity=".52" stroke-width="1.5" filter="url(#skr1x4731)"/><line x1="476.5127102096006" y1="489.7975550689734" x2="478.40593218853695" y2="521.3717238076031" stroke="#ccccff" stroke-opacity=".52" stroke-width="1.5" filter="url(#skr1x4731)"/><line x1="499.53299139598386" y1="492.04365799110377" x2="500.2434166975319" y2="519.1000766164623" stroke="#ccccff" stroke-opacity=".52" stroke-width="1.5" filter="url(#skr1x4731)"/><line x1="524.7375440672598" y1="490.73068945473057" x2="521.9947572326846" y2="519.1519710803404" stroke="#ccccff" stroke-opacity=".52" stroke-width="1.5" filter="url(#skr1x4731)"/><line x1="544.6948466191255" y1="491.65637117270376" x2="545.7816795911826" y2="521.5280978797934" stroke="#ccccff" stroke-opacity=".52" stroke-width="1.5" filter="url(#skr1x4731)"/><polygon points="433.0,505.1 566.8,504.3 553.2,555.2 445.3,558.3" fill="#242438" fill-opacity=".72" stroke="#ccccff" stroke-width="1.3" filter="url(#skr1x4731)"/><polygon points="314.0,306.5 360.8,304.8 337.5,196.0" fill="url(#bevelr1x4731)" fill-opacity=".95" stroke="#ccccff" stroke-width="1.6" filter="url(#skr1x4731) url(#glowr1x4731)"/><polygon points="396.8,304.4 443.6,305.2 420.7,208.7" fill="url(#bevelr1x4731)" fill-opacity=".95" stroke="#ccccff" stroke-width="1.6" filter="url(#skr1x4731) url(#glowr1x4731)"/><polygon points="477.0,304.7 523.7,303.9 501.5,221.9" fill="url(#bevelr1x4731)" fill-opacity=".95" stroke="#ccccff" stroke-width="1.6" filter="url(#skr1x4731) url(#glowr1x4731)"/><polygon points="559.2,305.0 603.1,303.7 580.4,210.5" fill="url(#bevelr1x4731)" fill-opacity=".95" stroke="#ccccff" stroke-width="1.6" filter="url(#skr1x4731) url(#glowr1x4731)"/><polygon points="639.3,304.4 682.6,306.2 659.6,195.4" fill="url(#bevelr1x4731)" fill-opacity=".95" stroke="#ccccff" stroke-width="1.6" filter="url(#skr1x4731) url(#glowr1x4731)"/><text x="30.0"  y="975.0" font-family="monospace" font-weight="bold" font-size="22.0" fill="rgba(255,255,255,.22)">#0001</text><text x="500.0"   y="975.0" text-anchor="middle" font-family="monospace" font-weight="bold" font-size="22.0" fill="#ccccff" fill-opacity=".48">PHANTOM RANGER</text><text x="970.0" y="975.0" text-anchor="end"    font-family="monospace" font-weight="bold" font-size="22.0" fill="#ccccff" fill-opacity=".32">MECH RANGERS</text></svg>