<svg xmlns="http://www.w3.org/2000/svg" viewBox="0 0 1000 1000" width="1000" height="1000" shape-rendering="geometricPrecision"><defs>

  <!-- Scene gradients -->
  <radialGradient id="bgr1x477" cx="50%" cy="42%" r="72%">
    <stop offset="0%"   stop-color="#1e0a2e"/>
    <stop offset="100%" stop-color="#0a0520"/>
  </radialGradient>
  <linearGradient id="suitr1x477" x1="8%" y1="0%" x2="92%" y2="100%">
    <stop offset="0%"   stop-color="#ffcc00" stop-opacity=".95"/>
    <stop offset="45%"  stop-color="#a07000"/>
    <stop offset="100%" stop-color="#0a0520"/>
  </linearGradient>
  <linearGradient id="suitHir1x477" x1="0%" y1="0%" x2="0%" y2="100%">
    <stop offset="0%"   stop-color="rgba(255,255,255,.28)"/>
    <stop offset="60%"  stop-color="rgba(255,255,255,.04)"/>
    <stop offset="100%" stop-color="rgba(255,255,255,0)"/>
  </linearGradient>
  <!-- Bevel: bright top, dark bottom for armour panels -->
  <linearGradient id="bevelr1x477" x1="0%" y1="0%" x2="0%" y2="100%">
    <stop offset="0%"   stop-color="rgba(255,255,255,.55)"/>
    <stop offset="30%"  stop-color="#ffcc00"/>
    <stop offset="70%"  stop-color="#a07000"/>
    <stop offset="100%" stop-color="rgba(0,0,0,.5)"/>
  </linearGradient>

  <!-- Weapon: cold steel blade sweep -->
  <linearGradient id="blader1x477" x1="0%" y1="0%" x2="100%" y2="0%">
    <stop offset="0%"   stop-color="#0e0e20"/>
    <stop offset="16%"  stop-color="#3e3e58"/>
    <stop offset="34%"  stop-color="#c8c8e0"/>
    <stop offset="50%"  stop-color="#f5f5ff"/>
    <stop offset="66%"  stop-color="#b8b8d0"/>
    <stop offset="84%"  stop-color="#2e2e48"/>
    <stop offset="100%" stop-color="#08080e"/>
  </linearGradient>
  <!-- Blade tip brightening -->
  <linearGradient id="bladeTipr1x477" x1="0%" y1="100%" x2="0%" y2="0%">
    <stop offset="0%"   stop-color="rgba(255,255,255,0)"/>
    <stop offset="55%"  stop-color="rgba(255,255,255,.1)"/>
    <stop offset="100%" stop-color="rgba(255,255,255,.55)"/>
  </linearGradient>
  <!-- Gunmetal anodised — blaster body -->
  <linearGradient id="gunmetalr1x477" x1="0%" y1="0%" x2="0%" y2="100%">
    <stop offset="0%"   stop-color="#46465e"/>
    <stop offset="18%"  stop-color="#828296"/>
    <stop offset="42%"  stop-color="#26263a"/>
    <stop offset="72%"  stop-color="#16162a"/>
    <stop offset="100%" stop-color="#0c0c18"/>
  </linearGradient>
  <!-- Brushed steel tube — barrel/rod -->
  <linearGradient id="barrelr1x477" x1="0%" y1="0%" x2="100%" y2="0%">
    <stop offset="0%"   stop-color="#0a0a14"/>
    <stop offset="24%"  stop-color="#585875"/>
    <stop offset="50%"  stop-color="#a8a8c8"/>
    <stop offset="76%"  stop-color="#383852"/>
    <stop offset="100%" stop-color="#0a0a14"/>
  </linearGradient>
  <!-- Chrome rod — lance shaft -->
  <linearGradient id="chromer1x477" x1="0%" y1="0%" x2="100%" y2="0%">
    <stop offset="0%"   stop-color="#0c0c18"/>
    <stop offset="20%"  stop-color="#686888"/>
    <stop offset="44%"  stop-color="#e0e0f0"/>
    <stop offset="56%"  stop-color="#c0c0d8"/>
    <stop offset="80%"  stop-color="#28283e"/>
    <stop offset="100%" stop-color="#0c0c18"/>
  </linearGradient>
  <!-- Titanium plate — shield face -->
  <linearGradient id="titaniumr1x477" x1="0%" y1="0%" x2="100%" y2="100%">
    <stop offset="0%"   stop-color="#585878"/>
    <stop offset="28%"  stop-color="#ffcc00" stop-opacity=".88"/>
    <stop offset="55%"  stop-color="#a07000"/>
    <stop offset="80%"  stop-color="#181828"/>
    <stop offset="100%" stop-color="#0a0a18"/>
  </linearGradient>
  <!-- Artillery black-chrome — cannon body -->
  <linearGradient id="artilleryr1x477" x1="0%" y1="0%" x2="0%" y2="100%">
    <stop offset="0%"   stop-color="#383850"/>
    <stop offset="14%"  stop-color="#78789a"/>
    <stop offset="36%"  stop-color="#202034"/>
    <stop offset="65%"  stop-color="#14141e"/>
    <stop offset="100%" stop-color="#0a0a12"/>
  </linearGradient>
  <!-- Energy orb — staff -->
  <radialGradient id="orbr1x477" cx="35%" cy="35%" r="65%">
    <stop offset="0%"   stop-color="rgba(255,255,255,.9)"/>
    <stop offset="30%"  stop-color="#ffcc00"/>
    <stop offset="68%"  stop-color="#a07000"/>
    <stop offset="100%" stop-color="rgba(0,0,0,.6)"/>
  </radialGradient>
  <!-- Knuckle plate chrome -->
  <linearGradient id="knuckler1x477" x1="0%" y1="0%" x2="0%" y2="100%">
    <stop offset="0%"   stop-color="#888aaa"/>
    <stop offset="32%"  stop-color="#ffcc00" stop-opacity=".8"/>
    <stop offset="62%"  stop-color="#1a1a2c"/>
    <stop offset="100%" stop-color="#0a0a14"/>
  </linearGradient>

  <!-- Carbon fibre weave texture overlay -->
  <pattern id="carbonr1x477" width="6" height="6" patternUnits="userSpaceOnUse">
    <rect width="6" height="6" fill="rgba(0,0,0,.08)"/>
    <rect x="0" y="0" width="3" height="3" fill="rgba(255,255,255,.022)"/>
    <rect x="3" y="3" width="3" height="3" fill="rgba(255,255,255,.022)"/>
    <line x1="0" y1="0" x2="3" y2="3" stroke="rgba(255,255,255,.038)" stroke-width=".5"/>
    <line x1="3" y1="0" x2="6" y2="3" stroke="rgba(0,0,0,.055)"       stroke-width=".5"/>
    <line x1="0" y1="3" x2="3" y2="6" stroke="rgba(0,0,0,.055)"       stroke-width=".5"/>
    <line x1="3" y1="3" x2="6" y2="6" stroke="rgba(255,255,255,.038)" stroke-width=".5"/>
  </pattern>

  <!-- Specular metal sheen on armour panels -->
  <filter id="metalr1x477" x="-5%" y="-5%" width="110%" height="110%">
    <feSpecularLighting surfaceScale="4" specularConstant="1.8"
        specularExponent="42" lighting-color="#ffffff" result="spec">
      <feDistantLight elevation="52" azimuth="38"/>
    </feSpecularLighting>
    <feComposite in="spec" in2="SourceGraphic" operator="in" result="sm"/>
    <feComposite in="SourceGraphic" in2="sm" operator="arithmetic" k1="0" k2="1" k3="0.55" k4="0"/>
  </filter>

  <!-- Sharper specular for weapons — heavier glare -->
  <filter id="wmr1x477" x="-8%" y="-8%" width="116%" height="116%">
    <feSpecularLighting surfaceScale="6" specularConstant="2.4"
        specularExponent="65" lighting-color="#ffffff" result="spec">
      <feDistantLight elevation="44" azimuth="28"/>
    </feSpecularLighting>
    <feComposite in="spec" in2="SourceGraphic" operator="in" result="sm"/>
    <feComposite in="SourceGraphic" in2="sm" operator="arithmetic" k1="0" k2="1" k3="0.78" k4="0"/>
  </filter>

  <!-- Sketch wobble -->
  <filter id="skr1x477" x="-8%" y="-8%" width="116%" height="116%">
    <feTurbulence type="fractalNoise" baseFrequency="0.038"
        numOctaves="3" seed="36" result="noise"/>
    <feDisplacementMap in="SourceGraphic" in2="noise" scale="2.6"
        xChannelSelector="R" yChannelSelector="G" result="w"/>
    <feComposite in="w" in2="SourceGraphic" operator="atop"/>
  </filter>

  <!-- Glow: sharp accent -->
  <filter id="glowr1x477" x="-20%" y="-20%" width="140%" height="140%">
    <feGaussianBlur stdDeviation="3.5" result="b"/>
    <feColorMatrix in="b" type="matrix"
        values="0 0 0 0 1  0 0 0 0 1  0 0 0 0 1  0 0 0 1.8 0" result="boost"/>
    <feMerge><feMergeNode in="boost"/><feMergeNode in="SourceGraphic"/></feMerge>
  </filter>

  <!-- Bloom: wide soft -->
  <filter id="bloomr1x477" x="-40%" y="-40%" width="180%" height="180%">
    <feGaussianBlur stdDeviation="11" result="b"/>
    <feMerge><feMergeNode in="b"/><feMergeNode in="SourceGraphic"/></feMerge>
  </filter>

  </defs><rect width="1000" height="1000" fill="url(#bgr1x477)"/><ellipse cx="500.0" cy="892.0" rx="350.0" ry="65.0" fill="rgba(0,0,0,.7)" filter="url(#bloomr1x477)"/><ellipse cx="500.0" cy="889.0" rx="220.0" ry="34.0" fill="rgba(0,0,0,.45)"/><ellipse cx="500.0" cy="520.0" rx="320.0" ry="480.0" fill="#00e5ff" fill-opacity=".042" filter="url(#bloomr1x477)"/><circle cx="711.9" cy="357.4" r="2.5" fill="#00e5ff" fill-opacity="0.68" filter="url(#glowr1x477)"/><circle cx="454.2" cy="601.5" r="1.2" fill="#00e5ff" fill-opacity="0.62" filter="url(#glowr1x477)"/><circle cx="268.8" cy="761.9" r="2.5" fill="#00e5ff" fill-opacity="0.64" filter="url(#glowr1x477)"/><circle cx="689.5" cy="359.5" r="4.2" fill="#00e5ff" fill-opacity="0.68" filter="url(#glowr1x477)"/><circle cx="734.9" cy="206.8" r="2.0" fill="#00e5ff" fill-opacity="0.82" filter="url(#glowr1x477)"/><circle cx="517.5" cy="673.1" r="1.9" fill="#00e5ff" fill-opacity="0.41" filter="url(#glowr1x477)"/><circle cx="747.1" cy="386.3" r="3.8" fill="#00e5ff" fill-opacity="0.74" filter="url(#glowr1x477)"/><circle cx="731.0" cy="668.8" r="4.3" fill="#00e5ff" fill-opacity="0.86" filter="url(#glowr1x477)"/><circle cx="346.7" cy="751.4" r="3.2" fill="#00e5ff" fill-opacity="0.38" filter="url(#glowr1x477)"/><circle cx="261.4" cy="361.4" r="4.2" fill="#00e5ff" fill-opacity="0.75" filter="url(#glowr1x477)"/><circle cx="545.6" cy="733.6" r="1.6" fill="#00e5ff" fill-opacity="0.86" filter="url(#glowr1x477)"/><circle cx="302.4" cy="281.1" r="3.6" fill="#00e5ff" fill-opacity="0.70" filter="url(#glowr1x477)"/><circle cx="546.4" cy="787.5" r="3.3" fill="#00e5ff" fill-opacity="0.54" filter="url(#glowr1x477)"/><circle cx="402.6" cy="397.6" r="0.8" fill="#00e5ff" fill-opacity="0.70" filter="url(#glowr1x477)"/><path d="M619.3,194.7 Q575.9,531.3 513.3,818.0" stroke="#00e5ff" stroke-opacity="0.54" stroke-width="1.0" fill="none" filter="url(#glowr1x477)"/><path d="M307.0,215.6 Q265.1,434.2 340.4,694.8" stroke="#00e5ff" stroke-opacity="0.48" stroke-width="2.3" fill="none" filter="url(#glowr1x477)"/><path d="M506.1,275.7 Q468.7,484.1 300.8,682.4" stroke="#00e5ff" stroke-opacity="0.53" stroke-width="1.0" fill="none" filter="url(#glowr1x477)"/><path d="M290.4,169.0 Q289.2,476.6 308.7,782.1" stroke="#00e5ff" stroke-opacity="0.74" stroke-width="2.4" fill="none" filter="url(#glowr1x477)"/><path d="M422.8,284.4 Q393.4,515.0 541.7,707.6" stroke="#00e5ff" stroke-opacity="0.42" stroke-width="1.0" fill="none" filter="url(#glowr1x477)"/><polygon points="399.8,664.2 490.8,661.5 478.9,878.3 388.9,879.1" fill="url(#suitr1x477)" stroke="#ffcc00" stroke-width="2.2" filter="url(#skr1x477) url(#metalr1x477)"/><polygon points="398.6,663.3 488.8,663.4 479.3,878.0 388.8,878.3" fill="url(#carbonr1x477)"/><polygon points="394.2,723.5 493.3,725.1 483.1,788.5 383.7,787.7" fill="url(#bevelr1x477)" fill-opacity=".5" stroke="#ffcc00" stroke-width="1.4" filter="url(#skr1x477)"/><polygon points="509.1,661.5 599.6,663.3 613.5,877.3 520.1,876.1" fill="url(#suitr1x477)" stroke="#ffcc00" stroke-width="2.2" filter="url(#skr1x477) url(#metalr1x477)"/><polygon points="511.8,664.0 601.6,660.8 611.4,877.9 518.7,878.4" fill="url(#carbonr1x477)"/><polygon points="508.6,723.7 606.1,722.3 616.7,788.0 515.5,786.9" fill="url(#bevelr1x477)" fill-opacity=".5" stroke="#ffcc00" stroke-width="1.4" filter="url(#skr1x477)"/><rect x="392.9" y="837.6" width="100.3" height="24.7" fill="url(#bevelr1x477)" stroke="#ffcc00" stroke-width="1" filter="url(#skr1x477)"/><rect x="506.4"  y="838.1" width="100.3" height="24.7" fill="url(#bevelr1x477)" stroke="#ffcc00" stroke-width="1" filter="url(#skr1x477)"/><polygon points="369.4,876.7 496.0,878.2 504.2,922.1 361.1,920.2" fill="#a07000" stroke="#ffcc00" stroke-width="2" filter="url(#skr1x477)"/><polygon points="504.9,878.3 630.2,876.5 637.2,922.7 495.0,920.7" fill="#a07000" stroke="#ffcc00" stroke-width="2" filter="url(#skr1x477)"/><polygon points="305.6,634.3 694.6,632.0 638.3,681.8 362.3,681.7" fill="#ffcc00" fill-opacity=".52" stroke="#ffcc00" stroke-width="2" filter="url(#skr1x477)"/><rect x="465.8" y="637.2" width="72.0" height="42.0" fill="url(#bevelr1x477)" stroke="#ffcc00" stroke-width="1.4" filter="url(#glowr1x477)"/><rect x="486.5" y="640.1" width="28.0" height="22.0" rx="1" fill="rgba(255,255,255,.48)"/><polygon points="154.7,467.4 235.4,466.4 258.7,734.3 128.8,733.9" fill="url(#suitr1x477)" stroke="#ffcc00" stroke-width="2.2" filter="url(#skr1x477) url(#metalr1x477)"/><polygon points="172.5,433.0 251.5,431.4 244.4,509.1 160.5,509.2" fill="url(#bevelr1x477)" fill-opacity=".72" stroke="#ffcc00" stroke-width="2.2" filter="url(#skr1x477)"/><polygon points="161.1,620.6 243.1,620.9 238.1,660.8 166.7,659.9" fill="#ffcc00" fill-opacity=".42" stroke="#ffcc00" stroke-width="1" filter="url(#skr1x477)"/><polygon points="764.9,466.0 848.5,466.5 873.4,733.3 741.9,734.6" fill="url(#suitr1x477)" stroke="#ffcc00" stroke-width="2.2" filter="url(#skr1x477) url(#metalr1x477)"/><polygon points="745.8,430.9 826.2,432.5 838.9,510.0 756.0,509.7" fill="url(#bevelr1x477)" fill-opacity=".72" stroke="#ffcc00" stroke-width="2.2" filter="url(#skr1x477)"/><polygon points="757.5,622.0 837.9,622.4 836.4,661.3 759.9,661.3" fill="#ffcc00" fill-opacity=".42" stroke="#ffcc00" stroke-width="1" filter="url(#skr1x477)"/><rect x="121.6"  y="701.5" width="135.3" height="85.0" rx="4" fill="url(#bevelr1x477)" stroke="#ffcc00" stroke-width="1.8" filter="url(#skr1x477)"/><rect x="748.0"   y="701.4" width="135.3" height="85.0" rx="4" fill="url(#bevelr1x477)" stroke="#ffcc00" stroke-width="1.8" filter="url(#skr1x477)"/><line x1="150.3" y1="703.1" x2="149.5" y2="783.5" stroke="#ffcc00" stroke-opacity=".38" stroke-width="1"/><line x1="779.4" y1="702.6" x2="779.7" y2="782.1" stroke="#ffcc00" stroke-opacity=".38" stroke-width="1"/><line x1="182.8" y1="703.2" x2="181.1" y2="784.4" stroke="#ffcc00" stroke-opacity=".38" stroke-width="1"/><line x1="809.2" y1="703.3" x2="809.6" y2="782.8" stroke="#ffcc00" stroke-opacity=".38" stroke-width="1"/><line x1="214.8" y1="701.4" x2="215.2" y2="784.4" stroke="#ffcc00" stroke-opacity=".38" stroke-width="1"/><line x1="843.3" y1="700.4" x2="845.2" y2="782.9" stroke="#ffcc00" stroke-opacity=".38" stroke-width="1"/><polygon points="234.8,418.5 763.5,416.4 721.6,662.6 276.5,664.2" fill="url(#suitr1x477)" stroke="#ffcc00" stroke-width="2.6" filter="url(#skr1x477) url(#metalr1x477)"/><polygon points="235.5,417.1 763.8,418.0 721.1,663.9 275.9,661.5" fill="url(#carbonr1x477)"/><polygon points="367.3,416.9 632.3,418.6 612.6,514.3 388.5,516.1" fill="url(#suitHir1x477)"/><line x1="363.5" y1="469.9" x2="637.7" y2="470.2" stroke="#ffcc00" stroke-opacity=".52" stroke-width="1.3" filter="url(#skr1x477)"/><line x1="398.1" y1="550.8" x2="600.6" y2="549.2" stroke="#ffcc00" stroke-opacity=".52" stroke-width="1.3" filter="url(#skr1x477)"/><line x1="267.3" y1="489.7" x2="320.2" y2="491.7" stroke="#ffcc00" stroke-opacity=".62" stroke-width="1.8"/><line x1="679.7" y1="489.4" x2="732.8" y2="492.2" stroke="#ffcc00" stroke-opacity=".62" stroke-width="1.8"/><line x1="265.6" y1="522.5" x2="318.7" y2="522.6" stroke="#ffcc00" stroke-opacity=".62" stroke-width="1.8"/><line x1="679.7" y1="523.7" x2="732.1" y2="523.9" stroke="#ffcc00" stroke-opacity=".62" stroke-width="1.8"/><line x1="267.2" y1="555.3" x2="318.6" y2="555.5" stroke="#ffcc00" stroke-opacity=".62" stroke-width="1.8"/><line x1="678.8" y1="553.8" x2="733.2" y2="554.2" stroke="#ffcc00" stroke-opacity=".62" stroke-width="1.8"/><line x1="266.4" y1="586.7" x2="320.8" y2="586.7" stroke="#ffcc00" stroke-opacity=".62" stroke-width="1.8"/><line x1="680.4" y1="587.4" x2="733.8" y2="586.8" stroke="#ffcc00" stroke-opacity=".62" stroke-width="1.8"/><g filter="url(#glowr1x477)"><polygon points="500.3,453.5 516.6,488.6 556.2,491.9 525.1,517.6 534.0,556.2 499.1,537.5 464.6,559.0 475.9,519.9 445.7,491.2 486.6,491.0 " fill="#ffcc00" stroke="#0a0520" stroke-width="1.4" filter="url(#skr1x477)"/><polygon points="500.3,453.5 516.6,488.6 556.2,491.9 525.1,517.6 534.0,556.2 499.1,537.5 464.6,559.0 475.9,519.9 445.7,491.2 486.6,491.0 " fill="url(#suitHir1x477)" opacity=".45"/></g><g><line x1="897.9285623515584" y1="790.0693509511649" x2="912.2960612603091" y2="110.34871645290403" stroke="url(#chromer1x477)" stroke-width="28.0" stroke-linecap="round" filter="url(#wmr1x477)"/><line x1="904.4465438148566" y1="771.4169341593049" x2="910.785140935015" y2="132.16859435085206" stroke="rgba(255,255,255,.42)" stroke-width="5.0" stroke-linecap="round"/><polygon points="870.9,149.7 935.0,150.3 915.1,-8.4" fill="url(#blader1x477)" stroke="#ffcc00" stroke-width="1.8" filter="url(#wmr1x477)"/><line x1="935.8" y1="151.4" x2="915.8" y2="-8.6" stroke="rgba(255,255,255,.72)" stroke-width="1.6"/><rect x="880.4628153109551" y="421.84801139263436" width="40.0" height="20.0" fill="url(#bevelr1x477)" stroke="#ffcc00" stroke-width="1" filter="url(#wmr1x477)"/><rect x="877.6659304344654" y="510.37672070236874" width="40.0" height="20.0" fill="url(#bevelr1x477)" stroke="#ffcc00" stroke-width="1" filter="url(#wmr1x477)"/><rect x="879.6772207832523" y="600.9541626232676" width="40.0" height="20.0" fill="url(#bevelr1x477)" stroke="#ffcc00" stroke-width="1" filter="url(#wmr1x477)"/><rect x="877.2259862615355" y="691.5397451524623" width="40.0" height="20.0" fill="url(#bevelr1x477)" stroke="#ffcc00" stroke-width="1" filter="url(#wmr1x477)"/><ellipse cx="898.3612177346461" cy="792.7851694598794" rx="22.0" ry="15.0" fill="url(#bevelr1x477)" stroke="#ffcc00" stroke-width="1" filter="url(#wmr1x477)"/></g><rect x="449.14856947520747" y="555.3330893957055" width="100.0"  height="56.0" fill="#a07000" stroke="#ffcc00" stroke-width="2.2" filter="url(#skr1x477)"/><rect x="423.6600131739862" y="574.012489072606" width="152.0" height="26.0" fill="url(#bevelr1x477)" fill-opacity=".65" stroke="#ffcc00" stroke-width="1.2" filter="url(#skr1x477)"/><polygon points="307.0,380.5 352.0,294.6 501.6,277.3 650.8,296.1 693.1,382.0 669.9,505.2 498.6,566.6 331.3,502.3" fill="url(#suitr1x477)" stroke="#ffcc00" stroke-width="2.8" filter="url(#skr1x477) url(#metalr1x477)"/><polygon points="307.6,380.4 351.7,295.5 500.7,278.6 650.9,293.5 692.3,381.9 670.5,503.8 499.4,563.8 329.3,502.1" fill="url(#carbonr1x477)"/><polygon points="382.0,301.0 499.0,285.8 617.6,301.8 607.7,381.6 391.6,380.0" fill="url(#suitHir1x477)"/><polygon points="380.7,380.7 366.5,427.3 432.3,503.2 500.3,527.4 565.5,503.0 633.3,425.6 620.3,379.6" fill="#0a0520" fill-opacity=".88" stroke="#ffcc00" stroke-width="1.8" filter="url(#skr1x477)"/><polygon points="379.5,411.3 475.6,410.5 483.8,440.8 389.9,439.8" fill="#ffcc00" filter="url(#glowr1x477)"/><polygon points="522.5,413.1 617.4,412.8 611.1,440.5 515.5,438.6" fill="#ffcc00" filter="url(#glowr1x477)"/><ellipse cx="430.9" cy="425.7" rx="38.4"  ry="8.2" fill="#ffffff" opacity=".88"/><ellipse cx="569.1" cy="425.7" rx="38.4"  ry="8.2" fill="#ffffff" opacity=".88"/><line x1="483.93617123445495" y1="412.79956893520426" x2="515.8501551743038" y2="413.7810866558924" stroke="#ffcc00" stroke-opacity=".52" stroke-width="2"/><line x1="483.5859552226588" y1="436.8631375811063" x2="517.1593788221851" y2="437.36979585522784" stroke="#ffcc00" stroke-opacity=".52" stroke-width="2"/><line x1="498.97312048552556" y1="453.56356528168544" x2="501.34869917472827" y2="482.84743468984965" stroke="#ffcc00" stroke-opacity=".58" stroke-width="2.2" filter="url(#skr1x477)"/><line x1="452.6845700953901" y1="490.0078615508042" x2="453.3016533405334" y2="519.561374561116" stroke="#ffcc00" stroke-opacity=".52" stroke-width="1.5" filter="url(#skr1x477)"/><line x1="478.28469536876304" y1="490.1448345589451" x2="477.5041363054327" y2="520.1855751853436" stroke="#ffcc00" stroke-opacity=".52" stroke-width="1.5" filter="url(#skr1x477)"/><line x1="499.2991300982423" y1="491.70313374260434" x2="498.6250647449866" y2="521.328718953859" stroke="#ffcc00" stroke-opacity=".52" stroke-width="1.5" filter="url(#skr1x477)"/><line x1="524.3831328064762" y1="491.33467823173845" x2="521.5217200512625" y2="520.8814406055957" stroke="#ffcc00" stroke-opacity=".52" stroke-width="1.5" filter="url(#skr1x477)"/><line x1="544.7987430959196" y1="491.0396019731648" x2="547.2873400507682" y2="521.3746872604825" stroke="#ffcc00" stroke-opacity=".52" stroke-width="1.5" filter="url(#skr1x477)"/><polygon points="432.3,504.9 566.0,504.3 554.0,555.5 445.2,556.3" fill="#a07000" fill-opacity=".72" stroke="#ffcc00" stroke-width="1.3" filter="url(#skr1x477)"/><polygon points="315.4,305.3 361.8,303.6 337.3,194.3" fill="url(#bevelr1x477)" fill-opacity=".95" stroke="#ffcc00" stroke-width="1.6" filter="url(#skr1x477) url(#glowr1x477)"/><polygon points="395.2,304.9 441.9,305.4 418.2,208.0" fill="url(#bevelr1x477)" fill-opacity=".95" stroke="#ffcc00" stroke-width="1.6" filter="url(#skr1x477) url(#glowr1x477)"/><polygon points="478.0,306.4 522.3,304.5 500.2,222.2" fill="url(#bevelr1x477)" fill-opacity=".95" stroke="#ffcc00" stroke-width="1.6" filter="url(#skr1x477) url(#glowr1x477)"/><polygon points="557.8,304.4 603.3,303.8 580.2,208.8" fill="url(#bevelr1x477)" fill-opacity=".95" stroke="#ffcc00" stroke-width="1.6" filter="url(#skr1x477) url(#glowr1x477)"/><polygon points="638.4,303.0 683.5,305.2 661.8,197.0" fill="url(#bevelr1x477)" fill-opacity=".95" stroke="#ffcc00" stroke-width="1.6" filter="url(#skr1x477) url(#glowr1x477)"/><text x="30.0"  y="975.0" font-family="monospace" font-weight="bold" font-size="22.0" fill="rgba(255,255,255,.22)">#0001</text><text x="500.0"   y="975.0" text-anchor="middle" font-family="monospace" font-weight="bold" font-size="22.0" fill="#ffcc00" fill-opacity=".48">NOVA RANGER</text><text x="970.0" y="975.0" text-anchor="end"    font-family="monospace" font-weight="bold" font-size="22.0" fill="#ffcc00" fill-opacity=".32">MECH RANGERS</text></svg>