<svg xmlns="http://www.w3.org/2000/svg" viewBox="0 0 1000 1000" width="1000" height="1000" shape-rendering="geometricPrecision"><defs>

  <!-- Scene gradients -->
  <radialGradient id="bgr1x4792" cx="50%" cy="42%" r="72%">
    <stop offset="0%"   stop-color="#1a2814"/>
    <stop offset="100%" stop-color="#0d1520"/>
  </radialGradient>
  <linearGradient id="suitr1x4792" x1="8%" y1="0%" x2="92%" y2="100%">
    <stop offset="0%"   stop-color="#ff44aa" stop-opacity=".95"/>
    <stop offset="45%"  stop-color="#880050"/>
    <stop offset="100%" stop-color="#0d1520"/>
  </linearGradient>
  <linearGradient id="suitHir1x4792" x1="0%" y1="0%" x2="0%" y2="100%">
    <stop offset="0%"   stop-color="rgba(255,255,255,.28)"/>
    <stop offset="60%"  stop-color="rgba(255,255,255,.04)"/>
    <stop offset="100%" stop-color="rgba(255,255,255,0)"/>
  </linearGradient>
  <!-- Bevel: bright top, dark bottom for armour panels -->
  <linearGradient id="bevelr1x4792" x1="0%" y1="0%" x2="0%" y2="100%">
    <stop offset="0%"   stop-color="rgba(255,255,255,.55)"/>
    <stop offset="30%"  stop-color="#ff44aa"/>
    <stop offset="70%"  stop-color="#880050"/>
    <stop offset="100%" stop-color="rgba(0,0,0,.5)"/>
  </linearGradient>

  <!-- Weapon: cold steel blade sweep -->
  <linearGradient id="blader1x4792" x1="0%" y1="0%" x2="100%" y2="0%">
    <stop offset="0%"   stop-color="#0e0e20"/>
    <stop offset="16%"  stop-color="#3e3e58"/>
    <stop offset="34%"  stop-color="#c8c8e0"/>
    <stop offset="50%"  stop-color="#f5f5ff"/>
    <stop offset="66%"  stop-color="#b8b8d0"/>
    <stop offset="84%"  stop-color="#2e2e48"/>
    <stop offset="100%" stop-color="#08080e"/>
  </linearGradient>
  <!-- Blade tip brightening -->
  <linearGradient id="bladeTipr1x4792" x1="0%" y1="100%" x2="0%" y2="0%">
    <stop offset="0%"   stop-color="rgba(255,255,255,0)"/>
    <stop offset="55%"  stop-color="rgba(255,255,255,.1)"/>
    <stop offset="100%" stop-color="rgba(255,255,255,.55)"/>
  </linearGradient>
  <!-- Gunmetal anodised — blaster body -->
  <linearGradient id="gunmetalr1x4792" x1="0%" y1="0%" x2="0%" y2="100%">
    <stop offset="0%"   stop-color="#46465e"/>
    <stop offset="18%"  stop-color="#828296"/>
    <stop offset="42%"  stop-color="#26263a"/>
    <stop offset="72%"  stop-color="#16162a"/>
    <stop offset="100%" stop-color="#0c0c18"/>
  </linearGradient>
  <!-- Brushed steel tube — barrel/rod -->
  <linearGradient id="barrelr1x4792" x1="0%" y1="0%" x2="100%" y2="0%">
    <stop offset="0%"   stop-color="#0a0a14"/>
    <stop offset="24%"  stop-color="#585875"/>
    <stop offset="50%"  stop-color="#a8a8c8"/>
    <stop offset="76%"  stop-color="#383852"/>
    <stop offset="100%" stop-color="#0a0a14"/>
  </linearGradient>
  <!-- Chrome rod — lance shaft -->
  <linearGradient id="chromer1x4792" x1="0%" y1="0%" x2="100%" y2="0%">
    <stop offset="0%"   stop-color="#0c0c18"/>
    <stop offset="20%"  stop-color="#686888"/>
    <stop offset="44%"  stop-color="#e0e0f0"/>
    <stop offset="56%"  stop-color="#c0c0d8"/>
    <stop offset="80%"  stop-color="#28283e"/>
    <stop offset="100%" stop-color="#0c0c18"/>
  </linearGradient>
  <!-- Titanium plate — shield face -->
  <linearGradient id="titaniumr1x4792" x1="0%" y1="0%" x2="100%" y2="100%">
    <stop offset="0%"   stop-color="#585878"/>
    <stop offset="28%"  stop-color="#ff44aa" stop-opacity=".88"/>
    <stop offset="55%"  stop-color="#880050"/>
    <stop offset="80%"  stop-color="#181828"/>
    <stop offset="100%" stop-color="#0a0a18"/>
  </linearGradient>
  <!-- Artillery black-chrome — cannon body -->
  <linearGradient id="artilleryr1x4792" x1="0%" y1="0%" x2="0%" y2="100%">
    <stop offset="0%"   stop-color="#383850"/>
    <stop offset="14%"  stop-color="#78789a"/>
    <stop offset="36%"  stop-color="#202034"/>
    <stop offset="65%"  stop-color="#14141e"/>
    <stop offset="100%" stop-color="#0a0a12"/>
  </linearGradient>
  <!-- Energy orb — staff -->
  <radialGradient id="orbr1x4792" cx="35%" cy="35%" r="65%">
    <stop offset="0%"   stop-color="rgba(255,255,255,.9)"/>
    <stop offset="30%"  stop-color="#ff44aa"/>
    <stop offset="68%"  stop-color="#880050"/>
    <stop offset="100%" stop-color="rgba(0,0,0,.6)"/>
  </radialGradient>
  <!-- Knuckle plate chrome -->
  <linearGradient id="knuckler1x4792" x1="0%" y1="0%" x2="0%" y2="100%">
    <stop offset="0%"   stop-color="#888aaa"/>
    <stop offset="32%"  stop-color="#ff44aa" stop-opacity=".8"/>
    <stop offset="62%"  stop-color="#1a1a2c"/>
    <stop offset="100%" stop-color="#0a0a14"/>
  </linearGradient>

  <!-- Carbon fibre weave texture overlay -->
  <pattern id="carbonr1x4792" width="6" height="6" patternUnits="userSpaceOnUse">
    <rect width="6" height="6" fill="rgba(0,0,0,.08)"/>
    <rect x="0" y="0" width="3" height="3" fill="rgba(255,255,255,.022)"/>
    <rect x="3" y="3" width="3" height="3" fill="rgba(255,255,255,.022)"/>
    <line x1="0" y1="0" x2="3" y2="3" stroke="rgba(255,255,255,.038)" stroke-width=".5"/>
    <line x1="3" y1="0" x2="6" y2="3" stroke="rgba(0,0,0,.055)"       stroke-width=".5"/>
    <line x1="0" y1="3" x2="3" y2="6" stroke="rgba(0,0,0,.055)"       stroke-width=".5"/>
    <line x1="3" y1="3" x2="6" y2="6" stroke="rgba(255,255,255,.038)" stroke-width=".5"/>
  </pattern>

  <!-- Specular metal sheen on armour panels -->
  <filter id="metalr1x4792" x="-5%" y="-5%" width="110%" height="110%">
    <feSpecularLighting surfaceScale="4" specularConstant="1.8"
        specularExponent="42" lighting-color="#ffffff" result="spec">
      <feDistantLight elevation="52" azimuth="38"/>
    </feSpecularLighting>
    <feComposite in="spec" in2="SourceGraphic" operator="in" result="sm"/>
    <feComposite in="SourceGraphic" in2="sm" operator="arithmetic" k1="0" k2="1" k3="0.55" k4="0"/>
  </filter>

  <!-- Sharper specular for weapons — heavier glare -->
  <filter id="wmr1x4792" x="-8%" y="-8%" width="116%" height="116%">
    <feSpecularLighting surfaceScale="6" specularConstant="2.4"
        specularExponent="65" lighting-color="#ffffff" result="spec">
      <feDistantLight elevation="44" azimuth="28"/>
    </feSpecularLighting>
    <feComposite in="spec" in2="SourceGraphic" operator="in" result="sm"/>
    <feComposite in="SourceGraphic" in2="sm" operator="arithmetic" k1="0" k2="1" k3="0.78" k4="0"/>
  </filter>

  <!-- Sketch wobble -->
  <filter id="skr1x4792" x="-8%" y="-8%" width="116%" height="116%">
    <feTurbulence type="fractalNoise" baseFrequency="0.038"
        numOctaves="3" seed="16" result="noise"/>
    <feDisplacementMap in="SourceGraphic" in2="noise" scale="2.6"
        xChannelSelector="R" yChannelSelector="G" result="w"/>
    <feComposite in="w" in2="SourceGraphic" operator="atop"/>
  </filter>

  <!-- Glow: sharp accent -->
  <filter id="glowr1x4792" x="-20%" y="-20%" width="140%" height="140%">
    <feGaussianBlur stdDeviation="3.5" result="b"/>
    <feColorMatrix in="b" type="matrix"
        values="0 0 0 0 1  0 0 0 0 1  0 0 0 0 1  0 0 0 1.8 0" result="boost"/>
    <feMerge><feMergeNode in="boost"/><feMergeNode in="SourceGraphic"/></feMerge>
  </filter>

  <!-- Bloom: wide soft -->
  <filter id="bloomr1x4792" x="-40%" y="-40%" width="180%" height="180%">
    <feGaussianBlur stdDeviation="11" result="b"/>
    <feMerge><feMergeNode in="b"/><feMergeNode in="SourceGraphic"/></feMerge>
  </filter>

  </defs><rect width="1000" height="1000" fill="url(#bgr1x4792)"/><ellipse cx="500.0" cy="892.0" rx="350.0" ry="65.0" fill="rgba(0,0,0,.7)" filter="url(#bloomr1x4792)"/><ellipse cx="500.0" cy="889.0" rx="220.0" ry="34.0" fill="rgba(0,0,0,.45)"/><ellipse cx="500.0" cy="520.0" rx="320.0" ry="480.0" fill="#ff6600" fill-opacity=".042" filter="url(#bloomr1x4792)"/><circle cx="519.0" cy="262.0" r="2.4" fill="#ff6600" fill-opacity="0.84" filter="url(#glowr1x4792)"/><circle cx="299.5" cy="395.7" r="0.8" fill="#ff6600" fill-opacity="0.68" filter="url(#glowr1x4792)"/><circle cx="662.4" cy="646.4" r="4.0" fill="#ff6600" fill-opacity="0.83" filter="url(#glowr1x4792)"/><circle cx="696.3" cy="390.1" r="0.9" fill="#ff6600" fill-opacity="0.83" filter="url(#glowr1x4792)"/><circle cx="357.0" cy="355.3" r="3.2" fill="#ff6600" fill-opacity="0.86" filter="url(#glowr1x4792)"/><circle cx="513.3" cy="711.8" r="2.3" fill="#ff6600" fill-opacity="0.43" filter="url(#glowr1x4792)"/><circle cx="713.8" cy="386.4" r="1.9" fill="#ff6600" fill-opacity="0.75" filter="url(#glowr1x4792)"/><circle cx="390.4" cy="288.6" r="4.2" fill="#ff6600" fill-opacity="0.88" filter="url(#glowr1x4792)"/><circle cx="339.7" cy="238.1" r="2.7" fill="#ff6600" fill-opacity="0.39" filter="url(#glowr1x4792)"/><circle cx="444.7" cy="584.0" r="2.3" fill="#ff6600" fill-opacity="0.49" filter="url(#glowr1x4792)"/><circle cx="313.8" cy="640.6" r="0.6" fill="#ff6600" fill-opacity="0.85" filter="url(#glowr1x4792)"/><circle cx="620.0" cy="419.7" r="3.2" fill="#ff6600" fill-opacity="0.57" filter="url(#glowr1x4792)"/><circle cx="277.0" cy="658.9" r="3.0" fill="#ff6600" fill-opacity="0.62" filter="url(#glowr1x4792)"/><circle cx="629.1" cy="700.4" r="4.2" fill="#ff6600" fill-opacity="0.47" filter="url(#glowr1x4792)"/><polygon points="397.3,664.0 489.2,661.8 479.5,876.6 388.6,878.1" fill="url(#suitr1x4792)" stroke="#ff44aa" stroke-width="2.2" filter="url(#skr1x4792) url(#metalr1x4792)"/><polygon points="397.9,661.8 490.8,661.5 480.4,877.4 387.1,878.8" fill="url(#carbonr1x4792)"/><polygon points="392.5,725.4 494.5,724.4 484.2,789.5 383.7,788.5" fill="url(#bevelr1x4792)" fill-opacity=".5" stroke="#ff44aa" stroke-width="1.4" filter="url(#skr1x4792)"/><polygon points="510.8,661.2 599.8,663.6 613.3,876.3 521.1,876.0" fill="url(#suitr1x4792)" stroke="#ff44aa" stroke-width="2.2" filter="url(#skr1x4792) url(#metalr1x4792)"/><polygon points="510.9,663.9 600.8,662.4 612.4,876.5 519.3,877.3" fill="url(#carbonr1x4792)"/><polygon points="508.6,723.1 608.5,722.7 614.4,788.4 514.5,788.5" fill="url(#bevelr1x4792)" fill-opacity=".5" stroke="#ff44aa" stroke-width="1.4" filter="url(#skr1x4792)"/><rect x="391.9" y="838.7" width="100.3" height="24.7" fill="url(#bevelr1x4792)" stroke="#ff44aa" stroke-width="1" filter="url(#skr1x4792)"/><rect x="505.6"  y="838.8" width="100.3" height="24.7" fill="url(#bevelr1x4792)" stroke="#ff44aa" stroke-width="1" filter="url(#skr1x4792)"/><polygon points="370.3,878.2 496.0,877.6 503.5,920.5 362.4,922.9" fill="#880050" stroke="#ff44aa" stroke-width="2" filter="url(#skr1x4792)"/><polygon points="503.5,876.6 629.0,876.7 637.7,919.7 497.2,921.0" fill="#880050" stroke="#ff44aa" stroke-width="2" filter="url(#skr1x4792)"/><polygon points="302.5,634.7 696.3,633.6 637.2,682.1 360.6,680.5" fill="#ff44aa" fill-opacity=".52" stroke="#ff44aa" stroke-width="2" filter="url(#skr1x4792)"/><rect x="463.7" y="637.9" width="72.0" height="42.0" fill="url(#bevelr1x4792)" stroke="#ff44aa" stroke-width="1.4" filter="url(#glowr1x4792)"/><rect x="487.4" y="639.3" width="28.0" height="22.0" rx="1" fill="rgba(255,255,255,.48)"/><polygon points="152.1,467.8 235.7,466.7 258.9,735.9 129.9,734.3" fill="url(#suitr1x4792)" stroke="#ff44aa" stroke-width="2.2" filter="url(#skr1x4792) url(#metalr1x4792)"/><polygon points="173.2,433.0 252.8,434.0 244.9,511.8 159.1,509.1" fill="url(#bevelr1x4792)" fill-opacity=".72" stroke="#ff44aa" stroke-width="2.2" filter="url(#skr1x4792)"/><polygon points="159.4,620.4 244.9,621.8 239.8,661.6 167.0,661.1" fill="#ff44aa" fill-opacity=".42" stroke="#ff44aa" stroke-width="1" filter="url(#skr1x4792)"/><polygon points="764.8,466.3 845.8,464.9 872.1,735.4 743.7,735.3" fill="url(#suitr1x4792)" stroke="#ff44aa" stroke-width="2.2" filter="url(#skr1x4792) url(#metalr1x4792)"/><polygon points="748.6,432.1 827.6,433.5 841.5,510.7 757.2,512.3" fill="url(#bevelr1x4792)" fill-opacity=".72" stroke="#ff44aa" stroke-width="2.2" filter="url(#skr1x4792)"/><polygon points="757.6,621.9 840.4,623.5 833.7,662.5 762.1,661.4" fill="#ff44aa" fill-opacity=".42" stroke="#ff44aa" stroke-width="1" filter="url(#skr1x4792)"/><rect x="119.9"  y="700.8" width="135.3" height="85.0" rx="4" fill="url(#bevelr1x4792)" stroke="#ff44aa" stroke-width="1.8" filter="url(#skr1x4792)"/><rect x="750.0"   y="699.4" width="135.3" height="85.0" rx="4" fill="url(#bevelr1x4792)" stroke="#ff44aa" stroke-width="1.8" filter="url(#skr1x4792)"/><line x1="150.9" y1="701.9" x2="150.9" y2="784.2" stroke="#ff44aa" stroke-opacity=".38" stroke-width="1"/><line x1="779.3" y1="702.4" x2="777.6" y2="782.1" stroke="#ff44aa" stroke-opacity=".38" stroke-width="1"/><line x1="180.7" y1="702.3" x2="181.6" y2="783.0" stroke="#ff44aa" stroke-opacity=".38" stroke-width="1"/><line x1="809.2" y1="700.7" x2="811.2" y2="785.1" stroke="#ff44aa" stroke-opacity=".38" stroke-width="1"/><line x1="216.3" y1="702.6" x2="216.2" y2="784.2" stroke="#ff44aa" stroke-opacity=".38" stroke-width="1"/><line x1="843.0" y1="702.9" x2="844.6" y2="785.4" stroke="#ff44aa" stroke-opacity=".38" stroke-width="1"/><polygon points="235.2,417.4 764.6,418.6 721.9,661.1 276.0,661.7" fill="url(#suitr1x4792)" stroke="#ff44aa" stroke-width="2.6" filter="url(#skr1x4792) url(#metalr1x4792)"/><polygon points="233.3,416.1 766.2,416.2 722.6,662.1 277.2,661.2" fill="url(#carbonr1x4792)"/><polygon points="368.8,416.5 631.2,417.0 613.1,514.0 389.4,514.6" fill="url(#suitHir1x4792)"/><line x1="364.0" y1="472.6" x2="638.7" y2="472.8" stroke="#ff44aa" stroke-opacity=".52" stroke-width="1.3" filter="url(#skr1x4792)"/><line x1="398.5" y1="548.0" x2="600.3" y2="551.3" stroke="#ff44aa" stroke-opacity=".52" stroke-width="1.3" filter="url(#skr1x4792)"/><line x1="265.1" y1="489.7" x2="320.6" y2="491.5" stroke="#ff44aa" stroke-opacity=".62" stroke-width="1.8"/><line x1="678.6" y1="490.6" x2="734.5" y2="490.7" stroke="#ff44aa" stroke-opacity=".62" stroke-width="1.8"/><line x1="267.0" y1="521.8" x2="319.8" y2="522.7" stroke="#ff44aa" stroke-opacity=".62" stroke-width="1.8"/><line x1="680.1" y1="523.1" x2="732.1" y2="521.3" stroke="#ff44aa" stroke-opacity=".62" stroke-width="1.8"/><line x1="268.3" y1="555.1" x2="320.2" y2="553.7" stroke="#ff44aa" stroke-opacity=".62" stroke-width="1.8"/><line x1="681.5" y1="555.2" x2="732.3" y2="555.5" stroke="#ff44aa" stroke-opacity=".62" stroke-width="1.8"/><line x1="267.8" y1="584.9" x2="319.3" y2="587.8" stroke="#ff44aa" stroke-opacity=".62" stroke-width="1.8"/><line x1="682.0" y1="585.5" x2="733.0" y2="585.7" stroke="#ff44aa" stroke-opacity=".62" stroke-width="1.8"/><g filter="url(#glowr1x4792)"><circle cx="499.3" cy="499.8" r="31.3" fill="#ff44aa" stroke="#0d1520" stroke-width="1.4" filter="url(#skr1x4792)"/><circle cx="487.9" cy="498.2" r="7.0" fill="#0d1520"/><circle cx="512.8" cy="496.5" r="7.0" fill="#0d1520"/><rect x="483.3" y="520.4" width="9.3" height="17.4" rx="1" fill="#ff44aa" stroke="#0d1520" stroke-width=".6"/><rect x="496.4" y="520.6" width="9.3" height="17.4" rx="1" fill="#ff44aa" stroke="#0d1520" stroke-width=".6"/><rect x="509.0" y="520.9" width="9.3" height="17.4" rx="1" fill="#ff44aa" stroke="#0d1520" stroke-width=".6"/></g><g><polygon points="868.7,693.2 901.3,691.6 833.0,272.4" fill="url(#blader1x4792)" stroke="#ff44aa" stroke-width="1.8" filter="url(#wmr1x4792)"/><line x1="892.8" y1="691.4" x2="841.8" y2="271.4" stroke="rgba(255,255,255,.58)" stroke-width="1.3"/><polygon points="913.2,691.2 945.0,692.1 987.0,271.6" fill="url(#blader1x4792)" stroke="#ff44aa" stroke-width="1.8" filter="url(#wmr1x4792)"/><line x1="941.8" y1="691.4" x2="979.8" y2="271.4" stroke="rgba(255,255,255,.58)" stroke-width="1.3"/><rect x="865.0870373904332" y="679.6447247012518" width="96.0" height="26.0" rx="2" fill="url(#bevelr1x4792)" stroke="#ff44aa" stroke-width="1.4" filter="url(#wmr1x4792)"/></g><rect x="449.5527137006633" y="558.0503351463936" width="100.0"  height="56.0" fill="#880050" stroke="#ff44aa" stroke-width="2.2" filter="url(#skr1x4792)"/><rect x="424.33718914873896" y="575.336377459392" width="152.0" height="26.0" fill="url(#bevelr1x4792)" fill-opacity=".65" stroke="#ff44aa" stroke-width="1.2" filter="url(#skr1x4792)"/><polygon points="308.3,382.3 351.8,293.4 498.7,277.0 650.0,293.9 690.3,379.2 668.7,502.0 501.4,564.8 330.9,502.8" fill="url(#suitr1x4792)" stroke="#ff44aa" stroke-width="2.8" filter="url(#skr1x4792) url(#metalr1x4792)"/><polygon points="306.8,382.3 350.1,296.0 500.3,277.5 650.2,293.4 691.0,381.9 669.3,502.5 499.2,564.9 329.6,502.5" fill="url(#carbonr1x4792)"/><polygon points="379.2,302.0 501.5,286.6 620.1,301.5 608.9,379.0 391.9,380.1" fill="url(#suitHir1x4792)"/><polygon points="381.0,380.7 367.2,426.4 432.4,503.8 499.5,527.3 567.7,502.0 633.2,426.9 619.9,382.2" fill="#0d1520" fill-opacity=".88" stroke="#ff44aa" stroke-width="1.8" filter="url(#skr1x4792)"/><polygon points="382.5,411.0 475.2,411.3 485.4,440.2 387.8,441.8" fill="#ff44aa" filter="url(#glowr1x4792)"/><polygon points="522.9,410.5 618.8,410.0 609.7,441.1 513.8,441.3" fill="#ff44aa" filter="url(#glowr1x4792)"/><ellipse cx="430.9" cy="425.7" rx="38.4"  ry="8.2" fill="#ffffff" opacity=".88"/><ellipse cx="569.1" cy="425.7" rx="38.4"  ry="8.2" fill="#ffffff" opacity=".88"/><line x1="484.2093378175609" y1="413.16726989960296" x2="517.0125768264197" y2="412.41727420147504" stroke="#ff44aa" stroke-opacity=".52" stroke-width="2"/><line x1="485.2901794848591" y1="437.2781464973465" x2="515.4089621447399" y2="439.2109670494683" stroke="#ff44aa" stroke-opacity=".52" stroke-width="2"/><line x1="499.6500046107918" y1="452.7329576356336" x2="498.3042205731384" y2="484.4349028294906" stroke="#ff44aa" stroke-opacity=".58" stroke-width="2.2" filter="url(#skr1x4792)"/><line x1="452.32155446315187" y1="492.62965396018694" x2="455.03084337625654" y2="521.7642044588923" stroke="#ff44aa" stroke-opacity=".52" stroke-width="1.5" filter="url(#skr1x4792)"/><line x1="477.5602174117602" y1="490.6673476345837" x2="477.9614177133329" y2="521.5022181728855" stroke="#ff44aa" stroke-opacity=".52" stroke-width="1.5" filter="url(#skr1x4792)"/><line x1="501.36926726121453" y1="492.6884763704612" x2="501.69633389730006" y2="520.7513180841692" stroke="#ff44aa" stroke-opacity=".52" stroke-width="1.5" filter="url(#skr1x4792)"/><line x1="524.4244705927185" y1="492.41063892571253" x2="521.262185782902" y2="521.0577575329692" stroke="#ff44aa" stroke-opacity=".52" stroke-width="1.5" filter="url(#skr1x4792)"/><line x1="547.3766274545528" y1="490.6410581280477" x2="546.7278180604987" y2="521.385177892074" stroke="#ff44aa" stroke-opacity=".52" stroke-width="1.5" filter="url(#skr1x4792)"/><polygon points="431.6,505.1 567.6,503.2 553.5,557.9 446.0,555.9" fill="#880050" fill-opacity=".72" stroke="#ff44aa" stroke-width="1.3" filter="url(#skr1x4792)"/><polygon points="315.0,303.0 363.5,303.3 340.5,195.5" fill="url(#bevelr1x4792)" fill-opacity=".95" stroke="#ff44aa" stroke-width="1.6" filter="url(#skr1x4792) url(#glowr1x4792)"/><polygon points="395.3,305.8 440.7,303.0 420.5,208.3" fill="url(#bevelr1x4792)" fill-opacity=".95" stroke="#ff44aa" stroke-width="1.6" filter="url(#skr1x4792) url(#glowr1x4792)"/><polygon points="478.1,306.1 523.2,304.5 498.3,223.6" fill="url(#bevelr1x4792)" fill-opacity=".95" stroke="#ff44aa" stroke-width="1.6" filter="url(#skr1x4792) url(#glowr1x4792)"/><polygon points="557.2,305.6 605.2,305.9 580.6,210.3" fill="url(#bevelr1x4792)" fill-opacity=".95" stroke="#ff44aa" stroke-width="1.6" filter="url(#skr1x4792) url(#glowr1x4792)"/><polygon points="639.5,303.0 683.6,304.8 660.9,196.3" fill="url(#bevelr1x4792)" fill-opacity=".95" stroke="#ff44aa" stroke-width="1.6" filter="url(#skr1x4792) url(#glowr1x4792)"/><text x="30.0"  y="975.0" font-family="monospace" font-weight="bold" font-size="22.0" fill="rgba(255,255,255,.22)">#0001</text><text x="500.0"   y="975.0" text-anchor="middle" font-family="monospace" font-weight="bold" font-size="22.0" fill="#ff44aa" fill-opacity=".48">SAKURA RANGER</text><text x="970.0" y="975.0" text-anchor="end"    font-family="monospace" font-weight="bold" font-size="22.0" fill="#ff44aa" fill-opacity=".32">MECH RANGERS</text></svg>