<svg xmlns="http://www.w3.org/2000/svg" viewBox="0 0 1000 1000" width="1000" height="1000" shape-rendering="geometricPrecision"><defs>

  <!-- Scene gradients -->
  <radialGradient id="bgr1x4813" cx="50%" cy="42%" r="72%">
    <stop offset="0%"   stop-color="#1a2814"/>
    <stop offset="100%" stop-color="#0d1520"/>
  </radialGradient>
  <linearGradient id="suitr1x4813" x1="8%" y1="0%" x2="92%" y2="100%">
    <stop offset="0%"   stop-color="#ff2040" stop-opacity=".95"/>
    <stop offset="45%"  stop-color="#cc0020"/>
    <stop offset="100%" stop-color="#0d1520"/>
  </linearGradient>
  <linearGradient id="suitHir1x4813" x1="0%" y1="0%" x2="0%" y2="100%">
    <stop offset="0%"   stop-color="rgba(255,255,255,.28)"/>
    <stop offset="60%"  stop-color="rgba(255,255,255,.04)"/>
    <stop offset="100%" stop-color="rgba(255,255,255,0)"/>
  </linearGradient>
  <!-- Bevel: bright top, dark bottom for armour panels -->
  <linearGradient id="bevelr1x4813" x1="0%" y1="0%" x2="0%" y2="100%">
    <stop offset="0%"   stop-color="rgba(255,255,255,.55)"/>
    <stop offset="30%"  stop-color="#ff2040"/>
    <stop offset="70%"  stop-color="#cc0020"/>
    <stop offset="100%" stop-color="rgba(0,0,0,.5)"/>
  </linearGradient>

  <!-- Weapon: cold steel blade sweep -->
  <linearGradient id="blader1x4813" x1="0%" y1="0%" x2="100%" y2="0%">
    <stop offset="0%"   stop-color="#0e0e20"/>
    <stop offset="16%"  stop-color="#3e3e58"/>
    <stop offset="34%"  stop-color="#c8c8e0"/>
    <stop offset="50%"  stop-color="#f5f5ff"/>
    <stop offset="66%"  stop-color="#b8b8d0"/>
    <stop offset="84%"  stop-color="#2e2e48"/>
    <stop offset="100%" stop-color="#08080e"/>
  </linearGradient>
  <!-- Blade tip brightening -->
  <linearGradient id="bladeTipr1x4813" x1="0%" y1="100%" x2="0%" y2="0%">
    <stop offset="0%"   stop-color="rgba(255,255,255,0)"/>
    <stop offset="55%"  stop-color="rgba(255,255,255,.1)"/>
    <stop offset="100%" stop-color="rgba(255,255,255,.55)"/>
  </linearGradient>
  <!-- Gunmetal anodised — blaster body -->
  <linearGradient id="gunmetalr1x4813" x1="0%" y1="0%" x2="0%" y2="100%">
    <stop offset="0%"   stop-color="#46465e"/>
    <stop offset="18%"  stop-color="#828296"/>
    <stop offset="42%"  stop-color="#26263a"/>
    <stop offset="72%"  stop-color="#16162a"/>
    <stop offset="100%" stop-color="#0c0c18"/>
  </linearGradient>
  <!-- Brushed steel tube — barrel/rod -->
  <linearGradient id="barrelr1x4813" x1="0%" y1="0%" x2="100%" y2="0%">
    <stop offset="0%"   stop-color="#0a0a14"/>
    <stop offset="24%"  stop-color="#585875"/>
    <stop offset="50%"  stop-color="#a8a8c8"/>
    <stop offset="76%"  stop-color="#383852"/>
    <stop offset="100%" stop-color="#0a0a14"/>
  </linearGradient>
  <!-- Chrome rod — lance shaft -->
  <linearGradient id="chromer1x4813" x1="0%" y1="0%" x2="100%" y2="0%">
    <stop offset="0%"   stop-color="#0c0c18"/>
    <stop offset="20%"  stop-color="#686888"/>
    <stop offset="44%"  stop-color="#e0e0f0"/>
    <stop offset="56%"  stop-color="#c0c0d8"/>
    <stop offset="80%"  stop-color="#28283e"/>
    <stop offset="100%" stop-color="#0c0c18"/>
  </linearGradient>
  <!-- Titanium plate — shield face -->
  <linearGradient id="titaniumr1x4813" x1="0%" y1="0%" x2="100%" y2="100%">
    <stop offset="0%"   stop-color="#585878"/>
    <stop offset="28%"  stop-color="#ff2040" stop-opacity=".88"/>
    <stop offset="55%"  stop-color="#cc0020"/>
    <stop offset="80%"  stop-color="#181828"/>
    <stop offset="100%" stop-color="#0a0a18"/>
  </linearGradient>
  <!-- Artillery black-chrome — cannon body -->
  <linearGradient id="artilleryr1x4813" x1="0%" y1="0%" x2="0%" y2="100%">
    <stop offset="0%"   stop-color="#383850"/>
    <stop offset="14%"  stop-color="#78789a"/>
    <stop offset="36%"  stop-color="#202034"/>
    <stop offset="65%"  stop-color="#14141e"/>
    <stop offset="100%" stop-color="#0a0a12"/>
  </linearGradient>
  <!-- Energy orb — staff -->
  <radialGradient id="orbr1x4813" cx="35%" cy="35%" r="65%">
    <stop offset="0%"   stop-color="rgba(255,255,255,.9)"/>
    <stop offset="30%"  stop-color="#ff2040"/>
    <stop offset="68%"  stop-color="#cc0020"/>
    <stop offset="100%" stop-color="rgba(0,0,0,.6)"/>
  </radialGradient>
  <!-- Knuckle plate chrome -->
  <linearGradient id="knuckler1x4813" x1="0%" y1="0%" x2="0%" y2="100%">
    <stop offset="0%"   stop-color="#888aaa"/>
    <stop offset="32%"  stop-color="#ff2040" stop-opacity=".8"/>
    <stop offset="62%"  stop-color="#1a1a2c"/>
    <stop offset="100%" stop-color="#0a0a14"/>
  </linearGradient>

  <!-- Carbon fibre weave texture overlay -->
  <pattern id="carbonr1x4813" width="6" height="6" patternUnits="userSpaceOnUse">
    <rect width="6" height="6" fill="rgba(0,0,0,.08)"/>
    <rect x="0" y="0" width="3" height="3" fill="rgba(255,255,255,.022)"/>
    <rect x="3" y="3" width="3" height="3" fill="rgba(255,255,255,.022)"/>
    <line x1="0" y1="0" x2="3" y2="3" stroke="rgba(255,255,255,.038)" stroke-width=".5"/>
    <line x1="3" y1="0" x2="6" y2="3" stroke="rgba(0,0,0,.055)"       stroke-width=".5"/>
    <line x1="0" y1="3" x2="3" y2="6" stroke="rgba(0,0,0,.055)"       stroke-width=".5"/>
    <line x1="3" y1="3" x2="6" y2="6" stroke="rgba(255,255,255,.038)" stroke-width=".5"/>
  </pattern>

  <!-- Specular metal sheen on armour panels -->
  <filter id="metalr1x4813" x="-5%" y="-5%" width="110%" height="110%">
    <feSpecularLighting surfaceScale="4" specularConstant="1.8"
        specularExponent="42" lighting-color="#ffffff" result="spec">
      <feDistantLight elevation="52" azimuth="38"/>
    </feSpecularLighting>
    <feComposite in="spec" in2="SourceGraphic" operator="in" result="sm"/>
    <feComposite in="SourceGraphic" in2="sm" operator="arithmetic" k1="0" k2="1" k3="0.55" k4="0"/>
  </filter>

  <!-- Sharper specular for weapons — heavier glare -->
  <filter id="wmr1x4813" x="-8%" y="-8%" width="116%" height="116%">
    <feSpecularLighting surfaceScale="6" specularConstant="2.4"
        specularExponent="65" lighting-color="#ffffff" result="spec">
      <feDistantLight elevation="44" azimuth="28"/>
    </feSpecularLighting>
    <feComposite in="spec" in2="SourceGraphic" operator="in" result="sm"/>
    <feComposite in="SourceGraphic" in2="sm" operator="arithmetic" k1="0" k2="1" k3="0.78" k4="0"/>
  </filter>

  <!-- Sketch wobble -->
  <filter id="skr1x4813" x="-8%" y="-8%" width="116%" height="116%">
    <feTurbulence type="fractalNoise" baseFrequency="0.038"
        numOctaves="3" seed="40" result="noise"/>
    <feDisplacementMap in="SourceGraphic" in2="noise" scale="2.6"
        xChannelSelector="R" yChannelSelector="G" result="w"/>
    <feComposite in="w" in2="SourceGraphic" operator="atop"/>
  </filter>

  <!-- Glow: sharp accent -->
  <filter id="glowr1x4813" x="-20%" y="-20%" width="140%" height="140%">
    <feGaussianBlur stdDeviation="3.5" result="b"/>
    <feColorMatrix in="b" type="matrix"
        values="0 0 0 0 1  0 0 0 0 1  0 0 0 0 1  0 0 0 1.8 0" result="boost"/>
    <feMerge><feMergeNode in="boost"/><feMergeNode in="SourceGraphic"/></feMerge>
  </filter>

  <!-- Bloom: wide soft -->
  <filter id="bloomr1x4813" x="-40%" y="-40%" width="180%" height="180%">
    <feGaussianBlur stdDeviation="11" result="b"/>
    <feMerge><feMergeNode in="b"/><feMergeNode in="SourceGraphic"/></feMerge>
  </filter>

  </defs><rect width="1000" height="1000" fill="url(#bgr1x4813)"/><ellipse cx="500.0" cy="892.0" rx="350.0" ry="65.0" fill="rgba(0,0,0,.7)" filter="url(#bloomr1x4813)"/><ellipse cx="500.0" cy="889.0" rx="220.0" ry="34.0" fill="rgba(0,0,0,.45)"/><ellipse cx="500.0" cy="520.0" rx="320.0" ry="480.0" fill="#00e5ff" fill-opacity=".042" filter="url(#bloomr1x4813)"/><circle cx="690.0" cy="653.2" r="4.1" fill="#00e5ff" fill-opacity="0.58" filter="url(#glowr1x4813)"/><circle cx="332.6" cy="521.3" r="3.6" fill="#00e5ff" fill-opacity="0.72" filter="url(#glowr1x4813)"/><circle cx="719.0" cy="766.3" r="1.5" fill="#00e5ff" fill-opacity="0.47" filter="url(#glowr1x4813)"/><circle cx="647.2" cy="241.0" r="3.8" fill="#00e5ff" fill-opacity="0.48" filter="url(#glowr1x4813)"/><circle cx="649.4" cy="609.2" r="3.8" fill="#00e5ff" fill-opacity="0.55" filter="url(#glowr1x4813)"/><circle cx="687.2" cy="313.9" r="3.9" fill="#00e5ff" fill-opacity="0.66" filter="url(#glowr1x4813)"/><circle cx="475.5" cy="230.3" r="3.5" fill="#00e5ff" fill-opacity="0.40" filter="url(#glowr1x4813)"/><circle cx="592.0" cy="366.5" r="1.3" fill="#00e5ff" fill-opacity="0.56" filter="url(#glowr1x4813)"/><circle cx="529.0" cy="500.3" r="1.8" fill="#00e5ff" fill-opacity="0.54" filter="url(#glowr1x4813)"/><circle cx="563.9" cy="750.4" r="3.7" fill="#00e5ff" fill-opacity="0.89" filter="url(#glowr1x4813)"/><circle cx="634.8" cy="376.0" r="1.7" fill="#00e5ff" fill-opacity="0.71" filter="url(#glowr1x4813)"/><circle cx="700.9" cy="721.3" r="4.3" fill="#00e5ff" fill-opacity="0.85" filter="url(#glowr1x4813)"/><circle cx="655.4" cy="479.4" r="3.7" fill="#00e5ff" fill-opacity="0.64" filter="url(#glowr1x4813)"/><circle cx="387.5" cy="393.7" r="2.4" fill="#00e5ff" fill-opacity="0.88" filter="url(#glowr1x4813)"/><path d="M600.2,169.2 Q586.6,442.2 411.1,735.2" stroke="#00e5ff" stroke-opacity="0.64" stroke-width="1.7" fill="none" filter="url(#glowr1x4813)"/><path d="M555.4,201.4 Q564.1,421.0 385.9,625.9" stroke="#00e5ff" stroke-opacity="0.78" stroke-width="1.4" fill="none" filter="url(#glowr1x4813)"/><path d="M706.2,380.6 Q683.4,596.2 421.2,833.3" stroke="#00e5ff" stroke-opacity="0.43" stroke-width="2.2" fill="none" filter="url(#glowr1x4813)"/><path d="M524.6,385.6 Q495.7,620.9 539.4,839.5" stroke="#00e5ff" stroke-opacity="0.51" stroke-width="2.8" fill="none" filter="url(#glowr1x4813)"/><path d="M703.5,278.5 Q717.9,450.2 400.7,628.7" stroke="#00e5ff" stroke-opacity="0.43" stroke-width="1.3" fill="none" filter="url(#glowr1x4813)"/><polygon points="397.5,662.4 489.2,663.4 479.1,879.0 388.6,879.0" fill="url(#suitr1x4813)" stroke="#ff2040" stroke-width="2.2" filter="url(#skr1x4813) url(#metalr1x4813)"/><polygon points="400.2,663.9 488.5,661.6 480.3,876.0 388.6,878.3" fill="url(#carbonr1x4813)"/><polygon points="390.9,722.0 494.2,722.3 482.9,787.9 385.6,788.7" fill="url(#bevelr1x4813)" fill-opacity=".5" stroke="#ff2040" stroke-width="1.4" filter="url(#skr1x4813)"/><polygon points="509.1,661.4 601.8,662.7 612.5,877.2 521.0,877.7" fill="url(#suitr1x4813)" stroke="#ff2040" stroke-width="2.2" filter="url(#skr1x4813) url(#metalr1x4813)"/><polygon points="510.6,662.6 602.9,661.1 613.5,877.0 519.0,877.8" fill="url(#carbonr1x4813)"/><polygon points="506.7,724.9 608.2,724.3 617.9,786.6 516.7,789.2" fill="url(#bevelr1x4813)" fill-opacity=".5" stroke="#ff2040" stroke-width="1.4" filter="url(#skr1x4813)"/><rect x="392.3" y="837.1" width="100.3" height="24.7" fill="url(#bevelr1x4813)" stroke="#ff2040" stroke-width="1" filter="url(#skr1x4813)"/><rect x="505.8"  y="837.9" width="100.3" height="24.7" fill="url(#bevelr1x4813)" stroke="#ff2040" stroke-width="1" filter="url(#skr1x4813)"/><polygon points="368.7,877.1 497.2,878.2 502.3,923.1 361.1,920.7" fill="#cc0020" stroke="#ff2040" stroke-width="2" filter="url(#skr1x4813)"/><polygon points="502.1,876.3 630.7,877.9 637.0,923.1 496.8,922.9" fill="#cc0020" stroke="#ff2040" stroke-width="2" filter="url(#skr1x4813)"/><polygon points="305.4,634.5 696.0,634.9 637.9,683.0 363.5,680.8" fill="#ff2040" fill-opacity=".52" stroke="#ff2040" stroke-width="2" filter="url(#skr1x4813)"/><rect x="464.4" y="636.5" width="72.0" height="42.0" fill="url(#bevelr1x4813)" stroke="#ff2040" stroke-width="1.4" filter="url(#glowr1x4813)"/><rect x="485.6" y="640.8" width="28.0" height="22.0" rx="1" fill="rgba(255,255,255,.48)"/><polygon points="152.7,466.0 234.7,466.8 257.0,735.6 127.0,736.8" fill="url(#suitr1x4813)" stroke="#ff2040" stroke-width="2.2" filter="url(#skr1x4813) url(#metalr1x4813)"/><polygon points="172.1,433.8 252.1,430.5 241.5,510.0 158.2,508.9" fill="url(#bevelr1x4813)" fill-opacity=".72" stroke="#ff2040" stroke-width="2.2" filter="url(#skr1x4813)"/><polygon points="161.2,621.5 244.3,620.3 237.3,659.9 164.1,661.9" fill="#ff2040" fill-opacity=".42" stroke="#ff2040" stroke-width="1" filter="url(#skr1x4813)"/><polygon points="765.0,467.7 848.2,464.9 872.5,733.3 742.8,735.6" fill="url(#suitr1x4813)" stroke="#ff2040" stroke-width="2.2" filter="url(#skr1x4813) url(#metalr1x4813)"/><polygon points="745.9,433.6 826.2,432.8 841.0,511.1 755.3,509.5" fill="url(#bevelr1x4813)" fill-opacity=".72" stroke="#ff2040" stroke-width="2.2" filter="url(#skr1x4813)"/><polygon points="756.3,622.6 839.2,620.6 834.8,661.8 762.2,662.2" fill="#ff2040" fill-opacity=".42" stroke="#ff2040" stroke-width="1" filter="url(#skr1x4813)"/><rect x="121.9"  y="698.5" width="135.3" height="85.0" rx="4" fill="url(#bevelr1x4813)" stroke="#ff2040" stroke-width="1.8" filter="url(#skr1x4813)"/><rect x="747.1"   y="698.4" width="135.3" height="85.0" rx="4" fill="url(#bevelr1x4813)" stroke="#ff2040" stroke-width="1.8" filter="url(#skr1x4813)"/><line x1="150.6" y1="702.2" x2="148.4" y2="784.2" stroke="#ff2040" stroke-opacity=".38" stroke-width="1"/><line x1="776.4" y1="703.0" x2="778.8" y2="785.6" stroke="#ff2040" stroke-opacity=".38" stroke-width="1"/><line x1="182.4" y1="700.7" x2="182.7" y2="784.4" stroke="#ff2040" stroke-opacity=".38" stroke-width="1"/><line x1="812.1" y1="702.8" x2="810.7" y2="784.8" stroke="#ff2040" stroke-opacity=".38" stroke-width="1"/><line x1="215.8" y1="700.6" x2="217.1" y2="782.7" stroke="#ff2040" stroke-opacity=".38" stroke-width="1"/><line x1="845.1" y1="701.0" x2="842.1" y2="782.1" stroke="#ff2040" stroke-opacity=".38" stroke-width="1"/><polygon points="233.6,416.0 766.1,418.0 722.1,661.4 279.2,660.9" fill="url(#suitr1x4813)" stroke="#ff2040" stroke-width="2.6" filter="url(#skr1x4813) url(#metalr1x4813)"/><polygon points="233.8,416.9 764.0,419.1 720.8,660.8 277.1,662.0" fill="url(#carbonr1x4813)"/><polygon points="367.4,416.6 631.7,416.0 609.5,515.9 387.1,517.0" fill="url(#suitHir1x4813)"/><line x1="363.3" y1="470.8" x2="636.2" y2="471.9" stroke="#ff2040" stroke-opacity=".52" stroke-width="1.3" filter="url(#skr1x4813)"/><line x1="397.5" y1="551.1" x2="600.1" y2="548.6" stroke="#ff2040" stroke-opacity=".52" stroke-width="1.3" filter="url(#skr1x4813)"/><line x1="268.3" y1="491.2" x2="320.9" y2="489.6" stroke="#ff2040" stroke-opacity=".62" stroke-width="1.8"/><line x1="681.5" y1="489.8" x2="732.2" y2="490.3" stroke="#ff2040" stroke-opacity=".62" stroke-width="1.8"/><line x1="265.8" y1="521.8" x2="320.4" y2="522.8" stroke="#ff2040" stroke-opacity=".62" stroke-width="1.8"/><line x1="680.1" y1="524.1" x2="734.8" y2="524.1" stroke="#ff2040" stroke-opacity=".62" stroke-width="1.8"/><line x1="265.4" y1="553.4" x2="320.0" y2="554.5" stroke="#ff2040" stroke-opacity=".62" stroke-width="1.8"/><line x1="680.1" y1="553.4" x2="734.5" y2="556.3" stroke="#ff2040" stroke-opacity=".62" stroke-width="1.8"/><line x1="265.5" y1="585.0" x2="321.0" y2="586.8" stroke="#ff2040" stroke-opacity=".62" stroke-width="1.8"/><line x1="681.5" y1="588.3" x2="733.5" y2="588.3" stroke="#ff2040" stroke-opacity=".62" stroke-width="1.8"/><g filter="url(#glowr1x4813)"><ellipse cx="499.1" cy="512.1" rx="42.9" ry="23.2" fill="#0d1520" stroke="#ff2040" stroke-width="1.6" filter="url(#skr1x4813)"/><circle cx="499.3" cy="508.8" r="15.1" fill="#ff2040"/><circle cx="498.5" cy="508.0" r="5.8" fill="#0d1520"/><ellipse cx="494.6" cy="504.3" rx="3.5" ry="2.3" fill="rgba(255,255,255,.7)"/></g><g><polygon points="871.8,671.4 923.8,671.4 908.2,-28.6 887.4,-28.6" fill="url(#blader1x4813)" filter="url(#wmr1x4813)"/><polygon points="887.4,-28.6 908.2,-28.6 897.8,-138.6" fill="url(#blader1x4813)" filter="url(#wmr1x4813)"/><polygon points="896.0,671.4 899.7,671.4 898.4,-128.6 897.3,-128.6" fill="url(#bladeTipr1x4813)" opacity=".9"/><line x1="908.1664481048473" y1="673.1601289965212" x2="899.6076261000894" y2="-130.0479416014627" stroke="rgba(255,255,255,.68)" stroke-width="1.5"/><line x1="886.7496337351575" y1="671.3577742047607" x2="895.8508573836648" y2="-130.2342234407552" stroke="#ff2040" stroke-width="1" stroke-opacity=".45"/><line x1="902.5" y1="651.4" x2="899.7" y2="11.4" stroke="rgba(0,0,0,.38)" stroke-width="1.6"/><line x1="893.2" y1="651.4" x2="896.0" y2="11.4" stroke="rgba(0,0,0,.38)" stroke-width="1.6"/><rect x="840.7451848652773" y="668.1601913983933" width="112.0" height="28.0" rx="3" fill="url(#bevelr1x4813)" stroke="#ff2040" stroke-width="1.6" filter="url(#wmr1x4813)"/><rect x="865.935196153503" y="672.4078122565522" width="64.0" height="10.0" rx="1" fill="rgba(255,255,255,.32)"/><rect x="884.8291562615522" y="677.0340119303204" width="24.0" height="6.0" rx="1" fill="#ff2040" fill-opacity=".35"/><rect x="885.7456550094859" y="683.6280872009694" width="24.0" height="6.0" rx="1" fill="#ff2040" fill-opacity=".35"/><rect x="887.3102317574993" y="692.997935250122" width="24.0" height="6.0" rx="1" fill="#ff2040" fill-opacity=".35"/><rect x="886.1195482238755" y="702.6933955226093" width="24.0" height="6.0" rx="1" fill="#ff2040" fill-opacity=".35"/><rect x="886.3652490989864" y="708.686506564822" width="24.0" height="6.0" rx="1" fill="#ff2040" fill-opacity=".35"/><rect x="885.791252285298" y="718.1210223020054" width="24.0" height="6.0" rx="1" fill="#ff2040" fill-opacity=".35"/><ellipse cx="897.3895433103294" cy="727.8942880501039" rx="22.0" ry="16.0" fill="url(#bevelr1x4813)" stroke="#ff2040" stroke-width="1.2" filter="url(#wmr1x4813)"/></g><rect x="449.26560760103166" y="557.898589267768" width="100.0"  height="56.0" fill="#cc0020" stroke="#ff2040" stroke-width="2.2" filter="url(#skr1x4813)"/><rect x="423.8047633192502" y="576.3587206870318" width="152.0" height="26.0" fill="url(#bevelr1x4813)" fill-opacity=".65" stroke="#ff2040" stroke-width="1.2" filter="url(#skr1x4813)"/><polygon points="308.4,379.3 350.4,295.4 501.4,279.5 648.8,293.0 691.7,379.2 670.5,502.4 498.8,565.4 330.1,502.9" fill="url(#suitr1x4813)" stroke="#ff2040" stroke-width="2.8" filter="url(#skr1x4813) url(#metalr1x4813)"/><polygon points="309.2,380.5 351.3,293.6 500.2,278.3 648.5,293.5 690.6,381.5 669.9,504.9 500.1,565.2 332.6,503.2" fill="url(#carbonr1x4813)"/><polygon points="382.5,304.1 498.2,285.7 620.0,301.3 609.0,381.8 393.4,379.9" fill="url(#suitHir1x4813)"/><polygon points="380.6,380.5 365.3,426.4 433.6,503.3 499.0,529.3 567.9,504.6 633.3,424.4 619.3,380.1" fill="#0d1520" fill-opacity=".88" stroke="#ff2040" stroke-width="1.8" filter="url(#skr1x4813)"/><polygon points="381.0,412.5 476.4,411.8 485.0,441.8 387.6,440.4" fill="#ff2040" filter="url(#glowr1x4813)"/><polygon points="523.0,411.5 617.5,412.8 612.1,439.5 517.0,438.6" fill="#ff2040" filter="url(#glowr1x4813)"/><ellipse cx="430.9" cy="425.7" rx="38.4"  ry="8.2" fill="#ffffff" opacity=".88"/><ellipse cx="569.1" cy="425.7" rx="38.4"  ry="8.2" fill="#ffffff" opacity=".88"/><line x1="485.30983435628934" y1="414.24718390982594" x2="516.8113946647755" y2="414.9562645143829" stroke="#ff2040" stroke-opacity=".52" stroke-width="2"/><line x1="485.9762757248804" y1="437.4689902050421" x2="516.2346220505797" y2="436.8826766062528" stroke="#ff2040" stroke-opacity=".52" stroke-width="2"/><line x1="500.5674767114222" y1="454.68899331530554" x2="499.1281510895118" y2="484.610043106135" stroke="#ff2040" stroke-opacity=".58" stroke-width="2.2" filter="url(#skr1x4813)"/><line x1="453.2896548246779" y1="489.523103996925" x2="454.925727631785" y2="519.8901378444396" stroke="#ff2040" stroke-opacity=".52" stroke-width="1.5" filter="url(#skr1x4813)"/><line x1="476.65661082215604" y1="490.9464724306948" x2="478.1191229708865" y2="521.7379339088686" stroke="#ff2040" stroke-opacity=".52" stroke-width="1.5" filter="url(#skr1x4813)"/><line x1="498.96661352273077" y1="491.43499448671935" x2="499.7037106612697" y2="518.8709666181355" stroke="#ff2040" stroke-opacity=".52" stroke-width="1.5" filter="url(#skr1x4813)"/><line x1="522.2431792683526" y1="490.1629567658528" x2="522.508200271856" y2="519.1745472637937" stroke="#ff2040" stroke-opacity=".52" stroke-width="1.5" filter="url(#skr1x4813)"/><line x1="544.557498231642" y1="492.6410159040242" x2="545.9519910207205" y2="520.7401656283997" stroke="#ff2040" stroke-opacity=".52" stroke-width="1.5" filter="url(#skr1x4813)"/><polygon points="432.3,504.8 566.2,502.9 552.5,555.9 446.0,556.9" fill="#cc0020" fill-opacity=".72" stroke="#ff2040" stroke-width="1.3" filter="url(#skr1x4813)"/><text x="30.0"  y="975.0" font-family="monospace" font-weight="bold" font-size="22.0" fill="rgba(255,255,255,.22)">#0001</text><text x="500.0"   y="975.0" text-anchor="middle" font-family="monospace" font-weight="bold" font-size="22.0" fill="#ff2040" fill-opacity=".48">CRIMSON RANGER</text><text x="970.0" y="975.0" text-anchor="end"    font-family="monospace" font-weight="bold" font-size="22.0" fill="#ff2040" fill-opacity=".32">MECH RANGERS</text></svg>