<svg xmlns="http://www.w3.org/2000/svg" viewBox="0 0 1000 1000" width="1000" height="1000" shape-rendering="geometricPrecision"><defs>

  <!-- Scene gradients -->
  <radialGradient id="bgr1x4820" cx="50%" cy="42%" r="72%">
    <stop offset="0%"   stop-color="#0a0a14"/>
    <stop offset="100%" stop-color="#050508"/>
  </radialGradient>
  <linearGradient id="suitr1x4820" x1="8%" y1="0%" x2="92%" y2="100%">
    <stop offset="0%"   stop-color="#ff44aa" stop-opacity=".95"/>
    <stop offset="45%"  stop-color="#880050"/>
    <stop offset="100%" stop-color="#050508"/>
  </linearGradient>
  <linearGradient id="suitHir1x4820" x1="0%" y1="0%" x2="0%" y2="100%">
    <stop offset="0%"   stop-color="rgba(255,255,255,.28)"/>
    <stop offset="60%"  stop-color="rgba(255,255,255,.04)"/>
    <stop offset="100%" stop-color="rgba(255,255,255,0)"/>
  </linearGradient>
  <!-- Bevel: bright top, dark bottom for armour panels -->
  <linearGradient id="bevelr1x4820" x1="0%" y1="0%" x2="0%" y2="100%">
    <stop offset="0%"   stop-color="rgba(255,255,255,.55)"/>
    <stop offset="30%"  stop-color="#ff44aa"/>
    <stop offset="70%"  stop-color="#880050"/>
    <stop offset="100%" stop-color="rgba(0,0,0,.5)"/>
  </linearGradient>

  <!-- Weapon: cold steel blade sweep -->
  <linearGradient id="blader1x4820" x1="0%" y1="0%" x2="100%" y2="0%">
    <stop offset="0%"   stop-color="#0e0e20"/>
    <stop offset="16%"  stop-color="#3e3e58"/>
    <stop offset="34%"  stop-color="#c8c8e0"/>
    <stop offset="50%"  stop-color="#f5f5ff"/>
    <stop offset="66%"  stop-color="#b8b8d0"/>
    <stop offset="84%"  stop-color="#2e2e48"/>
    <stop offset="100%" stop-color="#08080e"/>
  </linearGradient>
  <!-- Blade tip brightening -->
  <linearGradient id="bladeTipr1x4820" x1="0%" y1="100%" x2="0%" y2="0%">
    <stop offset="0%"   stop-color="rgba(255,255,255,0)"/>
    <stop offset="55%"  stop-color="rgba(255,255,255,.1)"/>
    <stop offset="100%" stop-color="rgba(255,255,255,.55)"/>
  </linearGradient>
  <!-- Gunmetal anodised — blaster body -->
  <linearGradient id="gunmetalr1x4820" x1="0%" y1="0%" x2="0%" y2="100%">
    <stop offset="0%"   stop-color="#46465e"/>
    <stop offset="18%"  stop-color="#828296"/>
    <stop offset="42%"  stop-color="#26263a"/>
    <stop offset="72%"  stop-color="#16162a"/>
    <stop offset="100%" stop-color="#0c0c18"/>
  </linearGradient>
  <!-- Brushed steel tube — barrel/rod -->
  <linearGradient id="barrelr1x4820" x1="0%" y1="0%" x2="100%" y2="0%">
    <stop offset="0%"   stop-color="#0a0a14"/>
    <stop offset="24%"  stop-color="#585875"/>
    <stop offset="50%"  stop-color="#a8a8c8"/>
    <stop offset="76%"  stop-color="#383852"/>
    <stop offset="100%" stop-color="#0a0a14"/>
  </linearGradient>
  <!-- Chrome rod — lance shaft -->
  <linearGradient id="chromer1x4820" x1="0%" y1="0%" x2="100%" y2="0%">
    <stop offset="0%"   stop-color="#0c0c18"/>
    <stop offset="20%"  stop-color="#686888"/>
    <stop offset="44%"  stop-color="#e0e0f0"/>
    <stop offset="56%"  stop-color="#c0c0d8"/>
    <stop offset="80%"  stop-color="#28283e"/>
    <stop offset="100%" stop-color="#0c0c18"/>
  </linearGradient>
  <!-- Titanium plate — shield face -->
  <linearGradient id="titaniumr1x4820" x1="0%" y1="0%" x2="100%" y2="100%">
    <stop offset="0%"   stop-color="#585878"/>
    <stop offset="28%"  stop-color="#ff44aa" stop-opacity=".88"/>
    <stop offset="55%"  stop-color="#880050"/>
    <stop offset="80%"  stop-color="#181828"/>
    <stop offset="100%" stop-color="#0a0a18"/>
  </linearGradient>
  <!-- Artillery black-chrome — cannon body -->
  <linearGradient id="artilleryr1x4820" x1="0%" y1="0%" x2="0%" y2="100%">
    <stop offset="0%"   stop-color="#383850"/>
    <stop offset="14%"  stop-color="#78789a"/>
    <stop offset="36%"  stop-color="#202034"/>
    <stop offset="65%"  stop-color="#14141e"/>
    <stop offset="100%" stop-color="#0a0a12"/>
  </linearGradient>
  <!-- Energy orb — staff -->
  <radialGradient id="orbr1x4820" cx="35%" cy="35%" r="65%">
    <stop offset="0%"   stop-color="rgba(255,255,255,.9)"/>
    <stop offset="30%"  stop-color="#ff44aa"/>
    <stop offset="68%"  stop-color="#880050"/>
    <stop offset="100%" stop-color="rgba(0,0,0,.6)"/>
  </radialGradient>
  <!-- Knuckle plate chrome -->
  <linearGradient id="knuckler1x4820" x1="0%" y1="0%" x2="0%" y2="100%">
    <stop offset="0%"   stop-color="#888aaa"/>
    <stop offset="32%"  stop-color="#ff44aa" stop-opacity=".8"/>
    <stop offset="62%"  stop-color="#1a1a2c"/>
    <stop offset="100%" stop-color="#0a0a14"/>
  </linearGradient>

  <!-- Carbon fibre weave texture overlay -->
  <pattern id="carbonr1x4820" width="6" height="6" patternUnits="userSpaceOnUse">
    <rect width="6" height="6" fill="rgba(0,0,0,.08)"/>
    <rect x="0" y="0" width="3" height="3" fill="rgba(255,255,255,.022)"/>
    <rect x="3" y="3" width="3" height="3" fill="rgba(255,255,255,.022)"/>
    <line x1="0" y1="0" x2="3" y2="3" stroke="rgba(255,255,255,.038)" stroke-width=".5"/>
    <line x1="3" y1="0" x2="6" y2="3" stroke="rgba(0,0,0,.055)"       stroke-width=".5"/>
    <line x1="0" y1="3" x2="3" y2="6" stroke="rgba(0,0,0,.055)"       stroke-width=".5"/>
    <line x1="3" y1="3" x2="6" y2="6" stroke="rgba(255,255,255,.038)" stroke-width=".5"/>
  </pattern>

  <!-- Specular metal sheen on armour panels -->
  <filter id="metalr1x4820" x="-5%" y="-5%" width="110%" height="110%">
    <feSpecularLighting surfaceScale="4" specularConstant="1.8"
        specularExponent="42" lighting-color="#ffffff" result="spec">
      <feDistantLight elevation="52" azimuth="38"/>
    </feSpecularLighting>
    <feComposite in="spec" in2="SourceGraphic" operator="in" result="sm"/>
    <feComposite in="SourceGraphic" in2="sm" operator="arithmetic" k1="0" k2="1" k3="0.55" k4="0"/>
  </filter>

  <!-- Sharper specular for weapons — heavier glare -->
  <filter id="wmr1x4820" x="-8%" y="-8%" width="116%" height="116%">
    <feSpecularLighting surfaceScale="6" specularConstant="2.4"
        specularExponent="65" lighting-color="#ffffff" result="spec">
      <feDistantLight elevation="44" azimuth="28"/>
    </feSpecularLighting>
    <feComposite in="spec" in2="SourceGraphic" operator="in" result="sm"/>
    <feComposite in="SourceGraphic" in2="sm" operator="arithmetic" k1="0" k2="1" k3="0.78" k4="0"/>
  </filter>

  <!-- Sketch wobble -->
  <filter id="skr1x4820" x="-8%" y="-8%" width="116%" height="116%">
    <feTurbulence type="fractalNoise" baseFrequency="0.038"
        numOctaves="3" seed="29" result="noise"/>
    <feDisplacementMap in="SourceGraphic" in2="noise" scale="2.6"
        xChannelSelector="R" yChannelSelector="G" result="w"/>
    <feComposite in="w" in2="SourceGraphic" operator="atop"/>
  </filter>

  <!-- Glow: sharp accent -->
  <filter id="glowr1x4820" x="-20%" y="-20%" width="140%" height="140%">
    <feGaussianBlur stdDeviation="3.5" result="b"/>
    <feColorMatrix in="b" type="matrix"
        values="0 0 0 0 1  0 0 0 0 1  0 0 0 0 1  0 0 0 1.8 0" result="boost"/>
    <feMerge><feMergeNode in="boost"/><feMergeNode in="SourceGraphic"/></feMerge>
  </filter>

  <!-- Bloom: wide soft -->
  <filter id="bloomr1x4820" x="-40%" y="-40%" width="180%" height="180%">
    <feGaussianBlur stdDeviation="11" result="b"/>
    <feMerge><feMergeNode in="b"/><feMergeNode in="SourceGraphic"/></feMerge>
  </filter>

  </defs><rect width="1000" height="1000" fill="url(#bgr1x4820)"/><ellipse cx="500.0" cy="892.0" rx="350.0" ry="65.0" fill="rgba(0,0,0,.7)" filter="url(#bloomr1x4820)"/><ellipse cx="500.0" cy="889.0" rx="220.0" ry="34.0" fill="rgba(0,0,0,.45)"/><ellipse cx="500.0" cy="520.0" rx="320.0" ry="480.0" fill="#00e5ff" fill-opacity=".042" filter="url(#bloomr1x4820)"/><circle cx="530.9" cy="355.1" r="2.7" fill="#00e5ff" fill-opacity="0.45" filter="url(#glowr1x4820)"/><circle cx="403.7" cy="395.5" r="1.1" fill="#00e5ff" fill-opacity="0.70" filter="url(#glowr1x4820)"/><circle cx="597.7" cy="683.4" r="3.0" fill="#00e5ff" fill-opacity="0.44" filter="url(#glowr1x4820)"/><circle cx="707.2" cy="736.5" r="3.0" fill="#00e5ff" fill-opacity="0.49" filter="url(#glowr1x4820)"/><circle cx="739.9" cy="762.4" r="3.5" fill="#00e5ff" fill-opacity="0.74" filter="url(#glowr1x4820)"/><circle cx="369.0" cy="338.5" r="2.3" fill="#00e5ff" fill-opacity="0.66" filter="url(#glowr1x4820)"/><circle cx="315.5" cy="315.2" r="1.4" fill="#00e5ff" fill-opacity="0.67" filter="url(#glowr1x4820)"/><circle cx="336.7" cy="322.5" r="3.9" fill="#00e5ff" fill-opacity="0.44" filter="url(#glowr1x4820)"/><circle cx="392.6" cy="432.6" r="4.0" fill="#00e5ff" fill-opacity="0.46" filter="url(#glowr1x4820)"/><circle cx="601.7" cy="539.5" r="2.4" fill="#00e5ff" fill-opacity="0.60" filter="url(#glowr1x4820)"/><circle cx="715.4" cy="422.6" r="1.6" fill="#00e5ff" fill-opacity="0.54" filter="url(#glowr1x4820)"/><circle cx="313.1" cy="676.2" r="3.8" fill="#00e5ff" fill-opacity="0.71" filter="url(#glowr1x4820)"/><circle cx="595.9" cy="267.4" r="3.4" fill="#00e5ff" fill-opacity="0.52" filter="url(#glowr1x4820)"/><circle cx="663.7" cy="559.6" r="2.0" fill="#00e5ff" fill-opacity="0.85" filter="url(#glowr1x4820)"/><path d="M357.6,342.7 Q376.4,507.9 374.3,632.9" stroke="#00e5ff" stroke-opacity="0.62" stroke-width="1.3" fill="none" filter="url(#glowr1x4820)"/><path d="M705.2,331.4 Q684.3,493.1 593.7,642.0" stroke="#00e5ff" stroke-opacity="0.66" stroke-width="2.7" fill="none" filter="url(#glowr1x4820)"/><path d="M385.6,221.1 Q416.3,534.1 672.3,885.2" stroke="#00e5ff" stroke-opacity="0.77" stroke-width="1.7" fill="none" filter="url(#glowr1x4820)"/><path d="M483.2,355.2 Q498.3,500.8 342.2,656.3" stroke="#00e5ff" stroke-opacity="0.53" stroke-width="1.2" fill="none" filter="url(#glowr1x4820)"/><path d="M464.1,218.1 Q495.6,493.1 464.3,736.4" stroke="#00e5ff" stroke-opacity="0.41" stroke-width="2.7" fill="none" filter="url(#glowr1x4820)"/><polygon points="400.6,664.1 489.9,663.9 479.2,876.0 385.9,875.7" fill="url(#suitr1x4820)" stroke="#ff44aa" stroke-width="2.2" filter="url(#skr1x4820) url(#metalr1x4820)"/><polygon points="399.0,664.0 489.3,661.9 480.2,876.7 386.6,877.8" fill="url(#carbonr1x4820)"/><polygon points="394.4,724.9 492.6,725.3 483.6,788.2 385.3,787.7" fill="url(#bevelr1x4820)" fill-opacity=".5" stroke="#ff44aa" stroke-width="1.4" filter="url(#skr1x4820)"/><polygon points="510.0,663.0 600.3,662.4 612.8,876.4 521.0,876.2" fill="url(#suitr1x4820)" stroke="#ff44aa" stroke-width="2.2" filter="url(#skr1x4820) url(#metalr1x4820)"/><polygon points="511.3,661.3 600.5,661.3 612.2,878.6 519.2,876.6" fill="url(#carbonr1x4820)"/><polygon points="507.2,722.1 608.1,722.7 617.1,789.4 517.4,787.6" fill="url(#bevelr1x4820)" fill-opacity=".5" stroke="#ff44aa" stroke-width="1.4" filter="url(#skr1x4820)"/><rect x="392.2" y="838.8" width="100.3" height="24.7" fill="url(#bevelr1x4820)" stroke="#ff44aa" stroke-width="1" filter="url(#skr1x4820)"/><rect x="505.6"  y="839.7" width="100.3" height="24.7" fill="url(#bevelr1x4820)" stroke="#ff44aa" stroke-width="1" filter="url(#skr1x4820)"/><polygon points="369.5,879.0 496.3,876.6 503.9,920.0 363.0,920.7" fill="#880050" stroke="#ff44aa" stroke-width="2" filter="url(#skr1x4820)"/><polygon points="503.1,876.9 629.1,876.5 637.6,922.4 496.7,921.0" fill="#880050" stroke="#ff44aa" stroke-width="2" filter="url(#skr1x4820)"/><polygon points="302.1,631.5 696.0,633.3 637.4,683.3 361.2,683.8" fill="#ff44aa" fill-opacity=".52" stroke="#ff44aa" stroke-width="2" filter="url(#skr1x4820)"/><rect x="464.6" y="638.8" width="72.0" height="42.0" fill="url(#bevelr1x4820)" stroke="#ff44aa" stroke-width="1.4" filter="url(#glowr1x4820)"/><rect x="487.3" y="640.2" width="28.0" height="22.0" rx="1" fill="rgba(255,255,255,.48)"/><polygon points="152.3,467.2 233.3,466.0 259.5,733.6 127.7,733.4" fill="url(#suitr1x4820)" stroke="#ff44aa" stroke-width="2.2" filter="url(#skr1x4820) url(#metalr1x4820)"/><polygon points="171.8,431.9 251.8,430.4 243.1,511.4 159.7,509.7" fill="url(#bevelr1x4820)" fill-opacity=".72" stroke="#ff44aa" stroke-width="2.2" filter="url(#skr1x4820)"/><polygon points="162.8,622.5 243.2,621.4 240.4,662.0 164.2,662.1" fill="#ff44aa" fill-opacity=".42" stroke="#ff44aa" stroke-width="1" filter="url(#skr1x4820)"/><polygon points="763.8,468.2 847.1,465.9 870.2,734.5 742.1,733.8" fill="url(#suitr1x4820)" stroke="#ff44aa" stroke-width="2.2" filter="url(#skr1x4820) url(#metalr1x4820)"/><polygon points="745.2,433.1 825.6,433.7 841.1,509.4 756.0,508.9" fill="url(#bevelr1x4820)" fill-opacity=".72" stroke="#ff44aa" stroke-width="2.2" filter="url(#skr1x4820)"/><polygon points="755.1,621.3 839.5,623.1 836.2,661.2 762.7,659.5" fill="#ff44aa" fill-opacity=".42" stroke="#ff44aa" stroke-width="1" filter="url(#skr1x4820)"/><rect x="120.1"  y="700.6" width="135.3" height="85.0" rx="4" fill="url(#bevelr1x4820)" stroke="#ff44aa" stroke-width="1.8" filter="url(#skr1x4820)"/><rect x="748.1"   y="701.1" width="135.3" height="85.0" rx="4" fill="url(#bevelr1x4820)" stroke="#ff44aa" stroke-width="1.8" filter="url(#skr1x4820)"/><line x1="150.4" y1="700.4" x2="149.8" y2="784.6" stroke="#ff44aa" stroke-opacity=".38" stroke-width="1"/><line x1="778.7" y1="703.4" x2="779.1" y2="783.4" stroke="#ff44aa" stroke-opacity=".38" stroke-width="1"/><line x1="181.6" y1="700.4" x2="181.2" y2="783.4" stroke="#ff44aa" stroke-opacity=".38" stroke-width="1"/><line x1="811.9" y1="703.3" x2="809.9" y2="784.0" stroke="#ff44aa" stroke-opacity=".38" stroke-width="1"/><line x1="216.0" y1="700.7" x2="215.7" y2="785.4" stroke="#ff44aa" stroke-opacity=".38" stroke-width="1"/><line x1="842.5" y1="702.7" x2="843.8" y2="784.7" stroke="#ff44aa" stroke-opacity=".38" stroke-width="1"/><polygon points="234.9,418.5 766.4,416.9 723.1,662.3 278.0,663.1" fill="url(#suitr1x4820)" stroke="#ff44aa" stroke-width="2.6" filter="url(#skr1x4820) url(#metalr1x4820)"/><polygon points="235.7,418.1 763.2,416.2 723.1,661.3 275.8,660.8" fill="url(#carbonr1x4820)"/><polygon points="368.4,416.2 632.3,416.1 612.5,515.2 388.0,515.7" fill="url(#suitHir1x4820)"/><line x1="361.4" y1="471.1" x2="638.0" y2="470.6" stroke="#ff44aa" stroke-opacity=".52" stroke-width="1.3" filter="url(#skr1x4820)"/><line x1="397.7" y1="551.1" x2="599.3" y2="548.6" stroke="#ff44aa" stroke-opacity=".52" stroke-width="1.3" filter="url(#skr1x4820)"/><line x1="268.3" y1="492.1" x2="321.6" y2="491.7" stroke="#ff44aa" stroke-opacity=".62" stroke-width="1.8"/><line x1="679.8" y1="491.4" x2="731.8" y2="492.7" stroke="#ff44aa" stroke-opacity=".62" stroke-width="1.8"/><line x1="268.0" y1="522.6" x2="318.7" y2="522.3" stroke="#ff44aa" stroke-opacity=".62" stroke-width="1.8"/><line x1="678.5" y1="522.1" x2="734.3" y2="522.1" stroke="#ff44aa" stroke-opacity=".62" stroke-width="1.8"/><line x1="268.3" y1="553.5" x2="319.5" y2="553.1" stroke="#ff44aa" stroke-opacity=".62" stroke-width="1.8"/><line x1="680.1" y1="555.4" x2="734.1" y2="554.7" stroke="#ff44aa" stroke-opacity=".62" stroke-width="1.8"/><line x1="265.9" y1="587.4" x2="319.8" y2="585.7" stroke="#ff44aa" stroke-opacity=".62" stroke-width="1.8"/><line x1="679.7" y1="586.9" x2="734.4" y2="585.5" stroke="#ff44aa" stroke-opacity=".62" stroke-width="1.8"/><g filter="url(#glowr1x4820)"><polygon points="498.4,452.6 542.6,509.3 499.8,567.4 457.2,512.3" fill="#ff44aa" stroke="#050508" stroke-width="1.4" filter="url(#skr1x4820)"/><polygon points="498.8,450.9 540.5,509.3 498.8,568.0 458.1,511.8" fill="url(#suitHir1x4820)" opacity=".45"/></g><g><rect x="836.4665880343505" y="395.8967868993059" width="175.0" height="118.0" rx="7" fill="url(#artilleryr1x4820)" stroke="#ff44aa" stroke-width="2.6" filter="url(#wmr1x4820)"/><rect x="836.267506187372" y="397.64927039314057" width="175.0" height="118.0" rx="7" fill="url(#carbonr1x4820)"/><rect x="981.3049797544815" y="447.58887143582103" width="78.0" height="32.0" rx="6" fill="url(#barrelr1x4820)" stroke="#ff44aa" stroke-width="1.4" filter="url(#wmr1x4820)"/><circle cx="883.1331850831956" cy="472.50545667577535" r="48.0" fill="rgba(0,0,0,.55)" stroke="#ff44aa" stroke-width="2" filter="url(#wmr1x4820)"/><circle cx="881.7859455121309" cy="472.657955593802" r="34.0" fill="#ff44aa" fill-opacity=".4" filter="url(#bloomr1x4820)"/><circle cx="883.5860778883658" cy="472.18097955072295" r="18.0" fill="#ff44aa" filter="url(#glowr1x4820)"/><rect x="842.3506041808613" y="382.8849814897403" width="100.0" height="18.0" rx="2" fill="url(#bevelr1x4820)" stroke="#ff44aa" stroke-width="1" filter="url(#wmr1x4820)"/><rect x="841.632973536905" y="397.78779148785395" width="120.0" height="12.0" rx="3" fill="rgba(255,255,255,.2)"/><line x1="847.5875590504706" y1="520.9520921781659" x2="846.4614795636013" y2="549.6222222071141" stroke="#ff44aa" stroke-opacity=".6" stroke-width="2"/><line x1="871.4112619261816" y1="517.8119640610181" x2="871.773144430723" y2="549.3009301281534" stroke="#ff44aa" stroke-opacity=".6" stroke-width="2"/><line x1="894.4105989378505" y1="518.280545404274" x2="895.6047300228477" y2="547.8167198774405" stroke="#ff44aa" stroke-opacity=".6" stroke-width="2"/><line x1="920.816354091987" y1="518.3997283442877" x2="919.8447642427496" y2="550.1624440095387" stroke="#ff44aa" stroke-opacity=".6" stroke-width="2"/></g><rect x="451.5947251369245" y="556.5630064832046" width="100.0"  height="56.0" fill="#880050" stroke="#ff44aa" stroke-width="2.2" filter="url(#skr1x4820)"/><rect x="424.67053076922895" y="573.5711691007949" width="152.0" height="26.0" fill="url(#bevelr1x4820)" fill-opacity=".65" stroke="#ff44aa" stroke-width="1.2" filter="url(#skr1x4820)"/><polygon points="307.6,379.6 351.5,294.2 500.2,279.6 650.4,295.7 692.7,379.3 670.1,503.7 500.7,566.5 331.1,502.4" fill="url(#suitr1x4820)" stroke="#ff44aa" stroke-width="2.8" filter="url(#skr1x4820) url(#metalr1x4820)"/><polygon points="307.5,379.1 350.5,293.1 501.6,277.5 651.0,295.0 691.4,382.0 667.8,504.1 498.8,566.0 329.3,503.5" fill="url(#carbonr1x4820)"/><polygon points="382.5,302.9 498.9,287.1 618.1,302.0 605.9,380.9 391.8,379.5" fill="url(#suitHir1x4820)"/><polygon points="379.2,381.8 365.0,426.4 432.7,504.8 499.1,529.5 568.5,504.5 633.4,425.1 620.8,379.4" fill="#050508" fill-opacity=".88" stroke="#ff44aa" stroke-width="1.8" filter="url(#skr1x4820)"/><polygon points="379.6,412.6 477.7,410.4 485.1,441.5 387.7,441.8" fill="#ff44aa" filter="url(#glowr1x4820)"/><polygon points="522.4,409.8 618.2,409.8 610.6,438.5 517.1,438.5" fill="#ff44aa" filter="url(#glowr1x4820)"/><ellipse cx="430.9" cy="425.7" rx="38.4"  ry="8.2" fill="#ffffff" opacity=".88"/><ellipse cx="569.1" cy="425.7" rx="38.4"  ry="8.2" fill="#ffffff" opacity=".88"/><line x1="483.8574159317277" y1="413.78410535724834" x2="514.6583025973663" y2="412.596445513051" stroke="#ff44aa" stroke-opacity=".52" stroke-width="2"/><line x1="483.18575466923414" y1="439.19342390215024" x2="515.4353634667024" y2="438.40227033868433" stroke="#ff44aa" stroke-opacity=".52" stroke-width="2"/><line x1="498.23062090193855" y1="453.7890679033473" x2="499.20241745896635" y2="482.87391393249857" stroke="#ff44aa" stroke-opacity=".58" stroke-width="2.2" filter="url(#skr1x4820)"/><line x1="455.7063745802082" y1="490.21209679888557" x2="453.05928327532484" y2="521.7272616070695" stroke="#ff44aa" stroke-opacity=".52" stroke-width="1.5" filter="url(#skr1x4820)"/><line x1="476.96584464408454" y1="490.7650229924358" x2="478.53313654534514" y2="520.3495391161181" stroke="#ff44aa" stroke-opacity=".52" stroke-width="1.5" filter="url(#skr1x4820)"/><line x1="499.3189246230759" y1="489.66400298792865" x2="498.5583164523356" y2="520.5428736505098" stroke="#ff44aa" stroke-opacity=".52" stroke-width="1.5" filter="url(#skr1x4820)"/><line x1="524.7456395792402" y1="491.1505413298495" x2="524.7385103229992" y2="519.3735243881122" stroke="#ff44aa" stroke-opacity=".52" stroke-width="1.5" filter="url(#skr1x4820)"/><line x1="544.824155852031" y1="491.43336904374877" x2="545.9703113255277" y2="520.6332546286285" stroke="#ff44aa" stroke-opacity=".52" stroke-width="1.5" filter="url(#skr1x4820)"/><polygon points="431.8,504.4 566.0,504.1 553.9,557.5 444.5,556.6" fill="#880050" fill-opacity=".72" stroke="#ff44aa" stroke-width="1.3" filter="url(#skr1x4820)"/><path d="M472.1710618350469 310.46668396033346 C303.4895345132239 145.92950780624523 417.9041339662299 239.82058983463793 501.257131259609 312.15088392375037" fill="#ff44aa" fill-opacity=".92" stroke="#ff44aa" stroke-width="2.2" filter="url(#skr1x4820)"/><path d="M471.8313802838139 311.1251012198627 C305.7935216457955 145.78689071284606 421.1595053956285 239.9218753008172 500.960353741236 311.9235161492601" fill="url(#suitHir1x4820)" opacity=".28"/><path d="M528.3906681966223 311.27537867035716 C696.7532805354894 148.38451686911282 582.3622413960844 240.99884697217493 499.9985029552132 312.3841780440882" fill="#ff44aa" fill-opacity=".92" stroke="#ff44aa" stroke-width="2.2" filter="url(#skr1x4820)"/><path d="M525.0898059608601 310.15255302404984 C696.3895646664873 147.8975707969628 582.3918381292 242.95735552283003 498.8554622891359 309.9127055219374" fill="url(#suitHir1x4820)" opacity=".28"/><text x="30.0"  y="975.0" font-family="monospace" font-weight="bold" font-size="22.0" fill="rgba(255,255,255,.22)">#0001</text><text x="500.0"   y="975.0" text-anchor="middle" font-family="monospace" font-weight="bold" font-size="22.0" fill="#ff44aa" fill-opacity=".48">SAKURA RANGER</text><text x="970.0" y="975.0" text-anchor="end"    font-family="monospace" font-weight="bold" font-size="22.0" fill="#ff44aa" fill-opacity=".32">MECH RANGERS</text></svg>