<svg xmlns="http://www.w3.org/2000/svg" viewBox="0 0 1000 1000" width="1000" height="1000" shape-rendering="geometricPrecision"><defs>

  <!-- Scene gradients -->
  <radialGradient id="bgr1x4825" cx="50%" cy="42%" r="72%">
    <stop offset="0%"   stop-color="#1a2814"/>
    <stop offset="100%" stop-color="#0d1520"/>
  </radialGradient>
  <linearGradient id="suitr1x4825" x1="8%" y1="0%" x2="92%" y2="100%">
    <stop offset="0%"   stop-color="#2060ff" stop-opacity=".95"/>
    <stop offset="45%"  stop-color="#003ccc"/>
    <stop offset="100%" stop-color="#0d1520"/>
  </linearGradient>
  <linearGradient id="suitHir1x4825" x1="0%" y1="0%" x2="0%" y2="100%">
    <stop offset="0%"   stop-color="rgba(255,255,255,.28)"/>
    <stop offset="60%"  stop-color="rgba(255,255,255,.04)"/>
    <stop offset="100%" stop-color="rgba(255,255,255,0)"/>
  </linearGradient>
  <!-- Bevel: bright top, dark bottom for armour panels -->
  <linearGradient id="bevelr1x4825" x1="0%" y1="0%" x2="0%" y2="100%">
    <stop offset="0%"   stop-color="rgba(255,255,255,.55)"/>
    <stop offset="30%"  stop-color="#2060ff"/>
    <stop offset="70%"  stop-color="#003ccc"/>
    <stop offset="100%" stop-color="rgba(0,0,0,.5)"/>
  </linearGradient>

  <!-- Weapon: cold steel blade sweep -->
  <linearGradient id="blader1x4825" x1="0%" y1="0%" x2="100%" y2="0%">
    <stop offset="0%"   stop-color="#0e0e20"/>
    <stop offset="16%"  stop-color="#3e3e58"/>
    <stop offset="34%"  stop-color="#c8c8e0"/>
    <stop offset="50%"  stop-color="#f5f5ff"/>
    <stop offset="66%"  stop-color="#b8b8d0"/>
    <stop offset="84%"  stop-color="#2e2e48"/>
    <stop offset="100%" stop-color="#08080e"/>
  </linearGradient>
  <!-- Blade tip brightening -->
  <linearGradient id="bladeTipr1x4825" x1="0%" y1="100%" x2="0%" y2="0%">
    <stop offset="0%"   stop-color="rgba(255,255,255,0)"/>
    <stop offset="55%"  stop-color="rgba(255,255,255,.1)"/>
    <stop offset="100%" stop-color="rgba(255,255,255,.55)"/>
  </linearGradient>
  <!-- Gunmetal anodised — blaster body -->
  <linearGradient id="gunmetalr1x4825" x1="0%" y1="0%" x2="0%" y2="100%">
    <stop offset="0%"   stop-color="#46465e"/>
    <stop offset="18%"  stop-color="#828296"/>
    <stop offset="42%"  stop-color="#26263a"/>
    <stop offset="72%"  stop-color="#16162a"/>
    <stop offset="100%" stop-color="#0c0c18"/>
  </linearGradient>
  <!-- Brushed steel tube — barrel/rod -->
  <linearGradient id="barrelr1x4825" x1="0%" y1="0%" x2="100%" y2="0%">
    <stop offset="0%"   stop-color="#0a0a14"/>
    <stop offset="24%"  stop-color="#585875"/>
    <stop offset="50%"  stop-color="#a8a8c8"/>
    <stop offset="76%"  stop-color="#383852"/>
    <stop offset="100%" stop-color="#0a0a14"/>
  </linearGradient>
  <!-- Chrome rod — lance shaft -->
  <linearGradient id="chromer1x4825" x1="0%" y1="0%" x2="100%" y2="0%">
    <stop offset="0%"   stop-color="#0c0c18"/>
    <stop offset="20%"  stop-color="#686888"/>
    <stop offset="44%"  stop-color="#e0e0f0"/>
    <stop offset="56%"  stop-color="#c0c0d8"/>
    <stop offset="80%"  stop-color="#28283e"/>
    <stop offset="100%" stop-color="#0c0c18"/>
  </linearGradient>
  <!-- Titanium plate — shield face -->
  <linearGradient id="titaniumr1x4825" x1="0%" y1="0%" x2="100%" y2="100%">
    <stop offset="0%"   stop-color="#585878"/>
    <stop offset="28%"  stop-color="#2060ff" stop-opacity=".88"/>
    <stop offset="55%"  stop-color="#003ccc"/>
    <stop offset="80%"  stop-color="#181828"/>
    <stop offset="100%" stop-color="#0a0a18"/>
  </linearGradient>
  <!-- Artillery black-chrome — cannon body -->
  <linearGradient id="artilleryr1x4825" x1="0%" y1="0%" x2="0%" y2="100%">
    <stop offset="0%"   stop-color="#383850"/>
    <stop offset="14%"  stop-color="#78789a"/>
    <stop offset="36%"  stop-color="#202034"/>
    <stop offset="65%"  stop-color="#14141e"/>
    <stop offset="100%" stop-color="#0a0a12"/>
  </linearGradient>
  <!-- Energy orb — staff -->
  <radialGradient id="orbr1x4825" cx="35%" cy="35%" r="65%">
    <stop offset="0%"   stop-color="rgba(255,255,255,.9)"/>
    <stop offset="30%"  stop-color="#2060ff"/>
    <stop offset="68%"  stop-color="#003ccc"/>
    <stop offset="100%" stop-color="rgba(0,0,0,.6)"/>
  </radialGradient>
  <!-- Knuckle plate chrome -->
  <linearGradient id="knuckler1x4825" x1="0%" y1="0%" x2="0%" y2="100%">
    <stop offset="0%"   stop-color="#888aaa"/>
    <stop offset="32%"  stop-color="#2060ff" stop-opacity=".8"/>
    <stop offset="62%"  stop-color="#1a1a2c"/>
    <stop offset="100%" stop-color="#0a0a14"/>
  </linearGradient>

  <!-- Carbon fibre weave texture overlay -->
  <pattern id="carbonr1x4825" width="6" height="6" patternUnits="userSpaceOnUse">
    <rect width="6" height="6" fill="rgba(0,0,0,.08)"/>
    <rect x="0" y="0" width="3" height="3" fill="rgba(255,255,255,.022)"/>
    <rect x="3" y="3" width="3" height="3" fill="rgba(255,255,255,.022)"/>
    <line x1="0" y1="0" x2="3" y2="3" stroke="rgba(255,255,255,.038)" stroke-width=".5"/>
    <line x1="3" y1="0" x2="6" y2="3" stroke="rgba(0,0,0,.055)"       stroke-width=".5"/>
    <line x1="0" y1="3" x2="3" y2="6" stroke="rgba(0,0,0,.055)"       stroke-width=".5"/>
    <line x1="3" y1="3" x2="6" y2="6" stroke="rgba(255,255,255,.038)" stroke-width=".5"/>
  </pattern>

  <!-- Specular metal sheen on armour panels -->
  <filter id="metalr1x4825" x="-5%" y="-5%" width="110%" height="110%">
    <feSpecularLighting surfaceScale="4" specularConstant="1.8"
        specularExponent="42" lighting-color="#ffffff" result="spec">
      <feDistantLight elevation="52" azimuth="38"/>
    </feSpecularLighting>
    <feComposite in="spec" in2="SourceGraphic" operator="in" result="sm"/>
    <feComposite in="SourceGraphic" in2="sm" operator="arithmetic" k1="0" k2="1" k3="0.55" k4="0"/>
  </filter>

  <!-- Sharper specular for weapons — heavier glare -->
  <filter id="wmr1x4825" x="-8%" y="-8%" width="116%" height="116%">
    <feSpecularLighting surfaceScale="6" specularConstant="2.4"
        specularExponent="65" lighting-color="#ffffff" result="spec">
      <feDistantLight elevation="44" azimuth="28"/>
    </feSpecularLighting>
    <feComposite in="spec" in2="SourceGraphic" operator="in" result="sm"/>
    <feComposite in="SourceGraphic" in2="sm" operator="arithmetic" k1="0" k2="1" k3="0.78" k4="0"/>
  </filter>

  <!-- Sketch wobble -->
  <filter id="skr1x4825" x="-8%" y="-8%" width="116%" height="116%">
    <feTurbulence type="fractalNoise" baseFrequency="0.038"
        numOctaves="3" seed="18" result="noise"/>
    <feDisplacementMap in="SourceGraphic" in2="noise" scale="2.6"
        xChannelSelector="R" yChannelSelector="G" result="w"/>
    <feComposite in="w" in2="SourceGraphic" operator="atop"/>
  </filter>

  <!-- Glow: sharp accent -->
  <filter id="glowr1x4825" x="-20%" y="-20%" width="140%" height="140%">
    <feGaussianBlur stdDeviation="3.5" result="b"/>
    <feColorMatrix in="b" type="matrix"
        values="0 0 0 0 1  0 0 0 0 1  0 0 0 0 1  0 0 0 1.8 0" result="boost"/>
    <feMerge><feMergeNode in="boost"/><feMergeNode in="SourceGraphic"/></feMerge>
  </filter>

  <!-- Bloom: wide soft -->
  <filter id="bloomr1x4825" x="-40%" y="-40%" width="180%" height="180%">
    <feGaussianBlur stdDeviation="11" result="b"/>
    <feMerge><feMergeNode in="b"/><feMergeNode in="SourceGraphic"/></feMerge>
  </filter>

  </defs><rect width="1000" height="1000" fill="url(#bgr1x4825)"/><ellipse cx="500.0" cy="892.0" rx="350.0" ry="65.0" fill="rgba(0,0,0,.7)" filter="url(#bloomr1x4825)"/><ellipse cx="500.0" cy="889.0" rx="220.0" ry="34.0" fill="rgba(0,0,0,.45)"/><ellipse cx="500.0" cy="520.0" rx="320.0" ry="480.0" fill="#ff6600" fill-opacity=".042" filter="url(#bloomr1x4825)"/><circle cx="735.1" cy="443.3" r="0.9" fill="#ff6600" fill-opacity="0.47" filter="url(#glowr1x4825)"/><circle cx="693.3" cy="294.8" r="0.7" fill="#ff6600" fill-opacity="0.66" filter="url(#glowr1x4825)"/><circle cx="451.3" cy="646.7" r="3.4" fill="#ff6600" fill-opacity="0.80" filter="url(#glowr1x4825)"/><circle cx="611.6" cy="743.0" r="4.2" fill="#ff6600" fill-opacity="0.57" filter="url(#glowr1x4825)"/><circle cx="619.3" cy="765.9" r="2.0" fill="#ff6600" fill-opacity="0.84" filter="url(#glowr1x4825)"/><circle cx="360.5" cy="528.5" r="2.7" fill="#ff6600" fill-opacity="0.42" filter="url(#glowr1x4825)"/><circle cx="530.4" cy="240.6" r="3.3" fill="#ff6600" fill-opacity="0.74" filter="url(#glowr1x4825)"/><circle cx="418.0" cy="668.5" r="2.3" fill="#ff6600" fill-opacity="0.39" filter="url(#glowr1x4825)"/><circle cx="707.1" cy="562.8" r="1.1" fill="#ff6600" fill-opacity="0.44" filter="url(#glowr1x4825)"/><circle cx="688.4" cy="333.6" r="3.0" fill="#ff6600" fill-opacity="0.46" filter="url(#glowr1x4825)"/><circle cx="269.6" cy="376.7" r="3.9" fill="#ff6600" fill-opacity="0.83" filter="url(#glowr1x4825)"/><circle cx="299.0" cy="312.1" r="1.3" fill="#ff6600" fill-opacity="0.79" filter="url(#glowr1x4825)"/><circle cx="592.0" cy="253.7" r="0.6" fill="#ff6600" fill-opacity="0.63" filter="url(#glowr1x4825)"/><circle cx="384.9" cy="221.6" r="4.2" fill="#ff6600" fill-opacity="0.38" filter="url(#glowr1x4825)"/><polygon points="400.2,661.1 491.2,662.7 480.1,877.4 386.2,878.6" fill="url(#suitr1x4825)" stroke="#2060ff" stroke-width="2.2" filter="url(#skr1x4825) url(#metalr1x4825)"/><polygon points="397.8,663.9 489.5,663.4 480.1,875.7 387.0,876.3" fill="url(#carbonr1x4825)"/><polygon points="393.8,725.1 492.7,724.5 484.6,786.5 382.4,789.3" fill="url(#bevelr1x4825)" fill-opacity=".5" stroke="#2060ff" stroke-width="1.4" filter="url(#skr1x4825)"/><polygon points="509.7,662.6 601.4,663.4 613.2,878.9 519.5,876.4" fill="url(#suitr1x4825)" stroke="#2060ff" stroke-width="2.2" filter="url(#skr1x4825) url(#metalr1x4825)"/><polygon points="511.4,660.8 602.7,662.8 610.9,876.5 517.7,877.0" fill="url(#carbonr1x4825)"/><polygon points="506.4,723.3 607.0,722.7 616.9,788.5 516.3,788.4" fill="url(#bevelr1x4825)" fill-opacity=".5" stroke="#2060ff" stroke-width="1.4" filter="url(#skr1x4825)"/><rect x="393.6" y="838.7" width="100.3" height="24.7" fill="url(#bevelr1x4825)" stroke="#2060ff" stroke-width="1" filter="url(#skr1x4825)"/><rect x="507.4"  y="838.0" width="100.3" height="24.7" fill="url(#bevelr1x4825)" stroke="#2060ff" stroke-width="1" filter="url(#skr1x4825)"/><polygon points="371.1,877.3 497.9,876.3 502.6,921.7 361.7,921.8" fill="#003ccc" stroke="#2060ff" stroke-width="2" filter="url(#skr1x4825)"/><polygon points="502.2,877.6 630.1,878.5 636.2,922.2 494.7,921.0" fill="#003ccc" stroke="#2060ff" stroke-width="2" filter="url(#skr1x4825)"/><polygon points="302.4,632.6 696.1,632.4 638.6,683.6 361.4,683.3" fill="#2060ff" fill-opacity=".52" stroke="#2060ff" stroke-width="2" filter="url(#skr1x4825)"/><rect x="464.1" y="638.3" width="72.0" height="42.0" fill="url(#bevelr1x4825)" stroke="#2060ff" stroke-width="1.4" filter="url(#glowr1x4825)"/><rect x="484.3" y="639.5" width="28.0" height="22.0" rx="1" fill="rgba(255,255,255,.48)"/><polygon points="153.6,465.5 235.7,466.1 259.2,736.7 130.0,733.8" fill="url(#suitr1x4825)" stroke="#2060ff" stroke-width="2.2" filter="url(#skr1x4825) url(#metalr1x4825)"/><polygon points="172.2,431.1 254.3,433.7 243.6,511.7 161.2,509.8" fill="url(#bevelr1x4825)" fill-opacity=".72" stroke="#2060ff" stroke-width="2.2" filter="url(#skr1x4825)"/><polygon points="163.0,621.8 243.5,620.3 238.2,659.2 166.9,660.4" fill="#2060ff" fill-opacity=".42" stroke="#2060ff" stroke-width="1" filter="url(#skr1x4825)"/><polygon points="765.0,467.5 847.9,465.0 871.1,733.8 743.0,736.6" fill="url(#suitr1x4825)" stroke="#2060ff" stroke-width="2.2" filter="url(#skr1x4825) url(#metalr1x4825)"/><polygon points="746.5,433.5 827.5,432.4 839.5,510.1 757.1,510.7" fill="url(#bevelr1x4825)" fill-opacity=".72" stroke="#2060ff" stroke-width="2.2" filter="url(#skr1x4825)"/><polygon points="757.9,623.7 840.5,621.3 832.9,659.5 761.7,661.9" fill="#2060ff" fill-opacity=".42" stroke="#2060ff" stroke-width="1" filter="url(#skr1x4825)"/><rect x="118.9"  y="699.8" width="135.3" height="85.0" rx="4" fill="url(#bevelr1x4825)" stroke="#2060ff" stroke-width="1.8" filter="url(#skr1x4825)"/><rect x="749.4"   y="698.3" width="135.3" height="85.0" rx="4" fill="url(#bevelr1x4825)" stroke="#2060ff" stroke-width="1.8" filter="url(#skr1x4825)"/><line x1="148.0" y1="703.4" x2="149.9" y2="784.2" stroke="#2060ff" stroke-opacity=".38" stroke-width="1"/><line x1="778.4" y1="702.7" x2="778.2" y2="782.7" stroke="#2060ff" stroke-opacity=".38" stroke-width="1"/><line x1="182.6" y1="700.5" x2="184.2" y2="784.4" stroke="#2060ff" stroke-opacity=".38" stroke-width="1"/><line x1="812.1" y1="700.9" x2="811.8" y2="785.0" stroke="#2060ff" stroke-opacity=".38" stroke-width="1"/><line x1="214.5" y1="702.8" x2="214.3" y2="783.6" stroke="#2060ff" stroke-opacity=".38" stroke-width="1"/><line x1="842.8" y1="703.1" x2="845.0" y2="784.6" stroke="#2060ff" stroke-opacity=".38" stroke-width="1"/><polygon points="236.6,418.5 763.6,418.3 722.9,663.0 277.3,663.6" fill="url(#suitr1x4825)" stroke="#2060ff" stroke-width="2.6" filter="url(#skr1x4825) url(#metalr1x4825)"/><polygon points="233.7,417.1 765.1,416.1 723.1,662.0 278.2,661.4" fill="url(#carbonr1x4825)"/><polygon points="369.1,417.2 632.1,419.0 612.9,516.7 389.5,514.8" fill="url(#suitHir1x4825)"/><line x1="362.1" y1="471.3" x2="637.0" y2="472.0" stroke="#2060ff" stroke-opacity=".52" stroke-width="1.3" filter="url(#skr1x4825)"/><line x1="400.0" y1="550.7" x2="600.7" y2="550.8" stroke="#2060ff" stroke-opacity=".52" stroke-width="1.3" filter="url(#skr1x4825)"/><line x1="267.0" y1="490.4" x2="318.0" y2="489.6" stroke="#2060ff" stroke-opacity=".62" stroke-width="1.8"/><line x1="679.1" y1="490.6" x2="731.9" y2="492.3" stroke="#2060ff" stroke-opacity=".62" stroke-width="1.8"/><line x1="267.1" y1="521.1" x2="319.7" y2="524.1" stroke="#2060ff" stroke-opacity=".62" stroke-width="1.8"/><line x1="679.9" y1="523.6" x2="733.1" y2="523.0" stroke="#2060ff" stroke-opacity=".62" stroke-width="1.8"/><line x1="267.1" y1="553.8" x2="318.6" y2="554.7" stroke="#2060ff" stroke-opacity=".62" stroke-width="1.8"/><line x1="679.7" y1="554.4" x2="734.1" y2="553.7" stroke="#2060ff" stroke-opacity=".62" stroke-width="1.8"/><line x1="265.2" y1="585.8" x2="319.8" y2="586.5" stroke="#2060ff" stroke-opacity=".62" stroke-width="1.8"/><line x1="678.9" y1="585.5" x2="731.5" y2="588.1" stroke="#2060ff" stroke-opacity=".62" stroke-width="1.8"/><g filter="url(#glowr1x4825)"><ellipse cx="498.8" cy="512.2" rx="42.9" ry="23.2" fill="#0d1520" stroke="#2060ff" stroke-width="1.6" filter="url(#skr1x4825)"/><circle cx="501.4" cy="511.9" r="15.1" fill="#2060ff"/><circle cx="496.8" cy="505.6" r="5.8" fill="#0d1520"/><ellipse cx="496.5" cy="505.5" rx="3.5" ry="2.3" fill="rgba(255,255,255,.7)"/></g><g><polygon points="867.6,692.3 898.7,689.8 833.9,272.3" fill="url(#blader1x4825)" stroke="#2060ff" stroke-width="1.8" filter="url(#wmr1x4825)"/><line x1="892.8" y1="691.4" x2="841.8" y2="271.4" stroke="rgba(255,255,255,.58)" stroke-width="1.3"/><polygon points="911.6,691.1 944.3,691.9 985.9,273.1" fill="url(#blader1x4825)" stroke="#2060ff" stroke-width="1.8" filter="url(#wmr1x4825)"/><line x1="941.8" y1="691.4" x2="979.8" y2="271.4" stroke="rgba(255,255,255,.58)" stroke-width="1.3"/><rect x="862.1361818250828" y="682.2839689429849" width="96.0" height="26.0" rx="2" fill="url(#bevelr1x4825)" stroke="#2060ff" stroke-width="1.4" filter="url(#wmr1x4825)"/></g><rect x="449.1993820256554" y="556.0591498392633" width="100.0"  height="56.0" fill="#003ccc" stroke="#2060ff" stroke-width="2.2" filter="url(#skr1x4825)"/><rect x="423.8174528794363" y="576.616469905898" width="152.0" height="26.0" fill="url(#bevelr1x4825)" fill-opacity=".65" stroke="#2060ff" stroke-width="1.2" filter="url(#skr1x4825)"/><polygon points="309.6,380.1 350.1,294.8 499.6,278.8 648.1,293.6 691.1,380.9 669.1,503.6 500.5,565.3 330.2,505.0" fill="url(#suitr1x4825)" stroke="#2060ff" stroke-width="2.8" filter="url(#skr1x4825) url(#metalr1x4825)"/><polygon points="308.3,381.8 350.6,296.3 498.3,278.8 651.4,295.6 691.2,382.3 669.7,502.8 500.6,565.4 331.2,504.2" fill="url(#carbonr1x4825)"/><polygon points="380.7,301.3 500.5,285.8 617.7,302.4 609.2,382.4 393.8,378.8" fill="url(#suitHir1x4825)"/><polygon points="379.9,380.0 366.3,425.7 434.5,505.3 499.3,529.5 566.3,505.0 636.2,427.0 618.3,379.6" fill="#0d1520" fill-opacity=".88" stroke="#2060ff" stroke-width="1.8" filter="url(#skr1x4825)"/><polygon points="380.3,411.3 476.7,410.9 486.1,439.4 389.9,439.8" fill="#2060ff" filter="url(#glowr1x4825)"/><polygon points="524.7,413.1 619.0,410.0 612.2,440.9 515.5,440.9" fill="#2060ff" filter="url(#glowr1x4825)"/><ellipse cx="430.9" cy="425.7" rx="38.4"  ry="8.2" fill="#ffffff" opacity=".88"/><ellipse cx="569.1" cy="425.7" rx="38.4"  ry="8.2" fill="#ffffff" opacity=".88"/><line x1="485.7046271119825" y1="414.8184375202283" x2="516.0774884765409" y2="413.7148143983446" stroke="#2060ff" stroke-opacity=".52" stroke-width="2"/><line x1="483.5019741268456" y1="439.4984963857569" x2="515.3499060453288" y2="437.699205476325" stroke="#2060ff" stroke-opacity=".52" stroke-width="2"/><line x1="499.78610112247986" y1="454.1851387106813" x2="498.91469209343194" y2="482.883183272183" stroke="#2060ff" stroke-opacity=".58" stroke-width="2.2" filter="url(#skr1x4825)"/><line x1="452.54632059296597" y1="491.2744868278503" x2="453.84052447637544" y2="521.1742251940071" stroke="#2060ff" stroke-opacity=".52" stroke-width="1.5" filter="url(#skr1x4825)"/><line x1="478.2027844144404" y1="489.93073818031695" x2="477.01693453662097" y2="519.3807887203991" stroke="#2060ff" stroke-opacity=".52" stroke-width="1.5" filter="url(#skr1x4825)"/><line x1="500.77915231427176" y1="491.19712897948915" x2="500.635961922165" y2="519.8560594325885" stroke="#2060ff" stroke-opacity=".52" stroke-width="1.5" filter="url(#skr1x4825)"/><line x1="521.8081018890813" y1="491.09270607559006" x2="522.1776892058178" y2="520.5255591413937" stroke="#2060ff" stroke-opacity=".52" stroke-width="1.5" filter="url(#skr1x4825)"/><line x1="547.6930937256851" y1="492.84245885098346" x2="547.0670770322159" y2="521.4564884152263" stroke="#2060ff" stroke-opacity=".52" stroke-width="1.5" filter="url(#skr1x4825)"/><polygon points="432.7,502.7 568.7,502.3 555.3,558.6 446.3,556.8" fill="#003ccc" fill-opacity=".72" stroke="#2060ff" stroke-width="1.3" filter="url(#skr1x4825)"/><polygon points="315.9,305.6 362.5,305.4 337.5,195.5" fill="url(#bevelr1x4825)" fill-opacity=".95" stroke="#2060ff" stroke-width="1.6" filter="url(#skr1x4825) url(#glowr1x4825)"/><polygon points="395.2,304.5 442.6,306.1 418.4,207.3" fill="url(#bevelr1x4825)" fill-opacity=".95" stroke="#2060ff" stroke-width="1.6" filter="url(#skr1x4825) url(#glowr1x4825)"/><polygon points="478.0,304.1 523.3,303.0 501.4,221.2" fill="url(#bevelr1x4825)" fill-opacity=".95" stroke="#2060ff" stroke-width="1.6" filter="url(#skr1x4825) url(#glowr1x4825)"/><polygon points="559.3,304.1 602.0,306.5 579.1,207.4" fill="url(#bevelr1x4825)" fill-opacity=".95" stroke="#2060ff" stroke-width="1.6" filter="url(#skr1x4825) url(#glowr1x4825)"/><polygon points="637.5,303.7 682.6,305.8 661.0,194.3" fill="url(#bevelr1x4825)" fill-opacity=".95" stroke="#2060ff" stroke-width="1.6" filter="url(#skr1x4825) url(#glowr1x4825)"/><text x="30.0"  y="975.0" font-family="monospace" font-weight="bold" font-size="22.0" fill="rgba(255,255,255,.22)">#0001</text><text x="500.0"   y="975.0" text-anchor="middle" font-family="monospace" font-weight="bold" font-size="22.0" fill="#2060ff" fill-opacity=".48">COBALT RANGER</text><text x="970.0" y="975.0" text-anchor="end"    font-family="monospace" font-weight="bold" font-size="22.0" fill="#2060ff" fill-opacity=".32">MECH RANGERS</text></svg>