<svg xmlns="http://www.w3.org/2000/svg" viewBox="0 0 1000 1000" width="1000" height="1000" shape-rendering="geometricPrecision"><defs>

  <!-- Scene gradients -->
  <radialGradient id="bgr1x4922" cx="50%" cy="42%" r="72%">
    <stop offset="0%"   stop-color="#0e000e"/>
    <stop offset="100%" stop-color="#1e0600"/>
  </radialGradient>
  <linearGradient id="suitr1x4922" x1="8%" y1="0%" x2="92%" y2="100%">
    <stop offset="0%"   stop-color="#ff2040" stop-opacity=".95"/>
    <stop offset="45%"  stop-color="#cc0020"/>
    <stop offset="100%" stop-color="#1e0600"/>
  </linearGradient>
  <linearGradient id="suitHir1x4922" x1="0%" y1="0%" x2="0%" y2="100%">
    <stop offset="0%"   stop-color="rgba(255,255,255,.28)"/>
    <stop offset="60%"  stop-color="rgba(255,255,255,.04)"/>
    <stop offset="100%" stop-color="rgba(255,255,255,0)"/>
  </linearGradient>
  <!-- Bevel: bright top, dark bottom for armour panels -->
  <linearGradient id="bevelr1x4922" x1="0%" y1="0%" x2="0%" y2="100%">
    <stop offset="0%"   stop-color="rgba(255,255,255,.55)"/>
    <stop offset="30%"  stop-color="#ff2040"/>
    <stop offset="70%"  stop-color="#cc0020"/>
    <stop offset="100%" stop-color="rgba(0,0,0,.5)"/>
  </linearGradient>

  <!-- Weapon: cold steel blade sweep -->
  <linearGradient id="blader1x4922" x1="0%" y1="0%" x2="100%" y2="0%">
    <stop offset="0%"   stop-color="#0e0e20"/>
    <stop offset="16%"  stop-color="#3e3e58"/>
    <stop offset="34%"  stop-color="#c8c8e0"/>
    <stop offset="50%"  stop-color="#f5f5ff"/>
    <stop offset="66%"  stop-color="#b8b8d0"/>
    <stop offset="84%"  stop-color="#2e2e48"/>
    <stop offset="100%" stop-color="#08080e"/>
  </linearGradient>
  <!-- Blade tip brightening -->
  <linearGradient id="bladeTipr1x4922" x1="0%" y1="100%" x2="0%" y2="0%">
    <stop offset="0%"   stop-color="rgba(255,255,255,0)"/>
    <stop offset="55%"  stop-color="rgba(255,255,255,.1)"/>
    <stop offset="100%" stop-color="rgba(255,255,255,.55)"/>
  </linearGradient>
  <!-- Gunmetal anodised — blaster body -->
  <linearGradient id="gunmetalr1x4922" x1="0%" y1="0%" x2="0%" y2="100%">
    <stop offset="0%"   stop-color="#46465e"/>
    <stop offset="18%"  stop-color="#828296"/>
    <stop offset="42%"  stop-color="#26263a"/>
    <stop offset="72%"  stop-color="#16162a"/>
    <stop offset="100%" stop-color="#0c0c18"/>
  </linearGradient>
  <!-- Brushed steel tube — barrel/rod -->
  <linearGradient id="barrelr1x4922" x1="0%" y1="0%" x2="100%" y2="0%">
    <stop offset="0%"   stop-color="#0a0a14"/>
    <stop offset="24%"  stop-color="#585875"/>
    <stop offset="50%"  stop-color="#a8a8c8"/>
    <stop offset="76%"  stop-color="#383852"/>
    <stop offset="100%" stop-color="#0a0a14"/>
  </linearGradient>
  <!-- Chrome rod — lance shaft -->
  <linearGradient id="chromer1x4922" x1="0%" y1="0%" x2="100%" y2="0%">
    <stop offset="0%"   stop-color="#0c0c18"/>
    <stop offset="20%"  stop-color="#686888"/>
    <stop offset="44%"  stop-color="#e0e0f0"/>
    <stop offset="56%"  stop-color="#c0c0d8"/>
    <stop offset="80%"  stop-color="#28283e"/>
    <stop offset="100%" stop-color="#0c0c18"/>
  </linearGradient>
  <!-- Titanium plate — shield face -->
  <linearGradient id="titaniumr1x4922" x1="0%" y1="0%" x2="100%" y2="100%">
    <stop offset="0%"   stop-color="#585878"/>
    <stop offset="28%"  stop-color="#ff2040" stop-opacity=".88"/>
    <stop offset="55%"  stop-color="#cc0020"/>
    <stop offset="80%"  stop-color="#181828"/>
    <stop offset="100%" stop-color="#0a0a18"/>
  </linearGradient>
  <!-- Artillery black-chrome — cannon body -->
  <linearGradient id="artilleryr1x4922" x1="0%" y1="0%" x2="0%" y2="100%">
    <stop offset="0%"   stop-color="#383850"/>
    <stop offset="14%"  stop-color="#78789a"/>
    <stop offset="36%"  stop-color="#202034"/>
    <stop offset="65%"  stop-color="#14141e"/>
    <stop offset="100%" stop-color="#0a0a12"/>
  </linearGradient>
  <!-- Energy orb — staff -->
  <radialGradient id="orbr1x4922" cx="35%" cy="35%" r="65%">
    <stop offset="0%"   stop-color="rgba(255,255,255,.9)"/>
    <stop offset="30%"  stop-color="#ff2040"/>
    <stop offset="68%"  stop-color="#cc0020"/>
    <stop offset="100%" stop-color="rgba(0,0,0,.6)"/>
  </radialGradient>
  <!-- Knuckle plate chrome -->
  <linearGradient id="knuckler1x4922" x1="0%" y1="0%" x2="0%" y2="100%">
    <stop offset="0%"   stop-color="#888aaa"/>
    <stop offset="32%"  stop-color="#ff2040" stop-opacity=".8"/>
    <stop offset="62%"  stop-color="#1a1a2c"/>
    <stop offset="100%" stop-color="#0a0a14"/>
  </linearGradient>

  <!-- Carbon fibre weave texture overlay -->
  <pattern id="carbonr1x4922" width="6" height="6" patternUnits="userSpaceOnUse">
    <rect width="6" height="6" fill="rgba(0,0,0,.08)"/>
    <rect x="0" y="0" width="3" height="3" fill="rgba(255,255,255,.022)"/>
    <rect x="3" y="3" width="3" height="3" fill="rgba(255,255,255,.022)"/>
    <line x1="0" y1="0" x2="3" y2="3" stroke="rgba(255,255,255,.038)" stroke-width=".5"/>
    <line x1="3" y1="0" x2="6" y2="3" stroke="rgba(0,0,0,.055)"       stroke-width=".5"/>
    <line x1="0" y1="3" x2="3" y2="6" stroke="rgba(0,0,0,.055)"       stroke-width=".5"/>
    <line x1="3" y1="3" x2="6" y2="6" stroke="rgba(255,255,255,.038)" stroke-width=".5"/>
  </pattern>

  <!-- Specular metal sheen on armour panels -->
  <filter id="metalr1x4922" x="-5%" y="-5%" width="110%" height="110%">
    <feSpecularLighting surfaceScale="4" specularConstant="1.8"
        specularExponent="42" lighting-color="#ffffff" result="spec">
      <feDistantLight elevation="52" azimuth="38"/>
    </feSpecularLighting>
    <feComposite in="spec" in2="SourceGraphic" operator="in" result="sm"/>
    <feComposite in="SourceGraphic" in2="sm" operator="arithmetic" k1="0" k2="1" k3="0.55" k4="0"/>
  </filter>

  <!-- Sharper specular for weapons — heavier glare -->
  <filter id="wmr1x4922" x="-8%" y="-8%" width="116%" height="116%">
    <feSpecularLighting surfaceScale="6" specularConstant="2.4"
        specularExponent="65" lighting-color="#ffffff" result="spec">
      <feDistantLight elevation="44" azimuth="28"/>
    </feSpecularLighting>
    <feComposite in="spec" in2="SourceGraphic" operator="in" result="sm"/>
    <feComposite in="SourceGraphic" in2="sm" operator="arithmetic" k1="0" k2="1" k3="0.78" k4="0"/>
  </filter>

  <!-- Sketch wobble -->
  <filter id="skr1x4922" x="-8%" y="-8%" width="116%" height="116%">
    <feTurbulence type="fractalNoise" baseFrequency="0.038"
        numOctaves="3" seed="47" result="noise"/>
    <feDisplacementMap in="SourceGraphic" in2="noise" scale="2.6"
        xChannelSelector="R" yChannelSelector="G" result="w"/>
    <feComposite in="w" in2="SourceGraphic" operator="atop"/>
  </filter>

  <!-- Glow: sharp accent -->
  <filter id="glowr1x4922" x="-20%" y="-20%" width="140%" height="140%">
    <feGaussianBlur stdDeviation="3.5" result="b"/>
    <feColorMatrix in="b" type="matrix"
        values="0 0 0 0 1  0 0 0 0 1  0 0 0 0 1  0 0 0 1.8 0" result="boost"/>
    <feMerge><feMergeNode in="boost"/><feMergeNode in="SourceGraphic"/></feMerge>
  </filter>

  <!-- Bloom: wide soft -->
  <filter id="bloomr1x4922" x="-40%" y="-40%" width="180%" height="180%">
    <feGaussianBlur stdDeviation="11" result="b"/>
    <feMerge><feMergeNode in="b"/><feMergeNode in="SourceGraphic"/></feMerge>
  </filter>

  </defs><rect width="1000" height="1000" fill="url(#bgr1x4922)"/><ellipse cx="500.0" cy="1000" rx="850.0" ry="350.0" fill="#ff4500" fill-opacity=".11" filter="url(#bloomr1x4922)"/><ellipse cx="500.0" cy="892.0" rx="350.0" ry="65.0" fill="rgba(0,0,0,.7)" filter="url(#bloomr1x4922)"/><ellipse cx="500.0" cy="889.0" rx="220.0" ry="34.0" fill="rgba(0,0,0,.45)"/><ellipse cx="500.0" cy="520.0" rx="320.0" ry="480.0" fill="#6600ff" fill-opacity=".042" filter="url(#bloomr1x4922)"/><circle cx="702.3" cy="648.9" r="2.3" fill="#6600ff" fill-opacity="0.41" filter="url(#glowr1x4922)"/><circle cx="641.5" cy="265.8" r="1.3" fill="#6600ff" fill-opacity="0.74" filter="url(#glowr1x4922)"/><circle cx="420.1" cy="425.9" r="2.9" fill="#6600ff" fill-opacity="0.82" filter="url(#glowr1x4922)"/><circle cx="318.1" cy="181.7" r="3.0" fill="#6600ff" fill-opacity="0.89" filter="url(#glowr1x4922)"/><circle cx="615.7" cy="360.2" r="3.9" fill="#6600ff" fill-opacity="0.57" filter="url(#glowr1x4922)"/><circle cx="435.1" cy="398.3" r="2.5" fill="#6600ff" fill-opacity="0.67" filter="url(#glowr1x4922)"/><circle cx="537.8" cy="407.6" r="0.6" fill="#6600ff" fill-opacity="0.53" filter="url(#glowr1x4922)"/><circle cx="619.7" cy="695.7" r="3.2" fill="#6600ff" fill-opacity="0.49" filter="url(#glowr1x4922)"/><circle cx="434.0" cy="511.1" r="2.3" fill="#6600ff" fill-opacity="0.47" filter="url(#glowr1x4922)"/><circle cx="703.5" cy="795.5" r="3.3" fill="#6600ff" fill-opacity="0.58" filter="url(#glowr1x4922)"/><circle cx="644.8" cy="627.9" r="4.3" fill="#6600ff" fill-opacity="0.55" filter="url(#glowr1x4922)"/><circle cx="364.7" cy="348.4" r="3.3" fill="#6600ff" fill-opacity="0.74" filter="url(#glowr1x4922)"/><circle cx="383.0" cy="421.7" r="1.7" fill="#6600ff" fill-opacity="0.46" filter="url(#glowr1x4922)"/><circle cx="584.9" cy="368.6" r="1.2" fill="#6600ff" fill-opacity="0.88" filter="url(#glowr1x4922)"/><polygon points="399.1,661.2 488.8,660.7 479.7,876.2 387.2,878.8" fill="url(#suitr1x4922)" stroke="#ff2040" stroke-width="2.2" filter="url(#skr1x4922) url(#metalr1x4922)"/><polygon points="397.1,663.4 488.6,663.5 481.6,876.1 386.2,875.9" fill="url(#carbonr1x4922)"/><polygon points="394.3,722.5 494.0,724.1 483.1,787.3 383.2,786.9" fill="url(#bevelr1x4922)" fill-opacity=".5" stroke="#ff2040" stroke-width="1.4" filter="url(#skr1x4922)"/><polygon points="512.2,661.0 601.9,661.0 613.2,877.0 520.2,878.3" fill="url(#suitr1x4922)" stroke="#ff2040" stroke-width="2.2" filter="url(#skr1x4922) url(#metalr1x4922)"/><polygon points="511.2,661.2 601.6,662.4 612.0,877.6 520.6,878.6" fill="url(#carbonr1x4922)"/><polygon points="506.0,723.9 608.4,722.1 616.0,786.9 517.0,789.5" fill="url(#bevelr1x4922)" fill-opacity=".5" stroke="#ff2040" stroke-width="1.4" filter="url(#skr1x4922)"/><rect x="392.4" y="837.9" width="100.3" height="24.7" fill="url(#bevelr1x4922)" stroke="#ff2040" stroke-width="1" filter="url(#skr1x4922)"/><rect x="508.3"  y="837.4" width="100.3" height="24.7" fill="url(#bevelr1x4922)" stroke="#ff2040" stroke-width="1" filter="url(#skr1x4922)"/><polygon points="369.1,877.8 494.8,878.6 502.7,922.7 364.1,923.2" fill="#cc0020" stroke="#ff2040" stroke-width="2" filter="url(#skr1x4922)"/><polygon points="503.3,878.5 631.5,878.2 636.6,920.3 498.1,920.4" fill="#cc0020" stroke="#ff2040" stroke-width="2" filter="url(#skr1x4922)"/><polygon points="305.6,633.6 697.2,631.5 638.4,681.5 363.6,683.4" fill="#ff2040" fill-opacity=".52" stroke="#ff2040" stroke-width="2" filter="url(#skr1x4922)"/><rect x="465.4" y="637.8" width="72.0" height="42.0" fill="url(#bevelr1x4922)" stroke="#ff2040" stroke-width="1.4" filter="url(#glowr1x4922)"/><rect x="486.6" y="640.3" width="28.0" height="22.0" rx="1" fill="rgba(255,255,255,.48)"/><polygon points="153.0,466.9 234.7,466.3 258.1,733.9 128.1,735.5" fill="url(#suitr1x4922)" stroke="#ff2040" stroke-width="2.2" filter="url(#skr1x4922) url(#metalr1x4922)"/><polygon points="172.2,430.9 251.3,432.8 243.5,510.1 160.9,509.6" fill="url(#bevelr1x4922)" fill-opacity=".72" stroke="#ff2040" stroke-width="2.2" filter="url(#skr1x4922)"/><polygon points="159.7,621.9 243.7,621.4 239.9,660.0 164.9,661.7" fill="#ff2040" fill-opacity=".42" stroke="#ff2040" stroke-width="1" filter="url(#skr1x4922)"/><polygon points="766.5,468.2 845.4,466.8 870.7,736.6 743.4,734.8" fill="url(#suitr1x4922)" stroke="#ff2040" stroke-width="2.2" filter="url(#skr1x4922) url(#metalr1x4922)"/><polygon points="748.5,430.5 825.6,433.4 841.8,509.4 756.9,512.2" fill="url(#bevelr1x4922)" fill-opacity=".72" stroke="#ff2040" stroke-width="2.2" filter="url(#skr1x4922)"/><polygon points="757.1,622.6 837.8,623.4 835.6,661.0 759.4,662.0" fill="#ff2040" fill-opacity=".42" stroke="#ff2040" stroke-width="1" filter="url(#skr1x4922)"/><rect x="121.0"  y="700.2" width="135.3" height="85.0" rx="4" fill="url(#bevelr1x4922)" stroke="#ff2040" stroke-width="1.8" filter="url(#skr1x4922)"/><rect x="749.2"   y="700.1" width="135.3" height="85.0" rx="4" fill="url(#bevelr1x4922)" stroke="#ff2040" stroke-width="1.8" filter="url(#skr1x4922)"/><line x1="149.8" y1="701.2" x2="148.5" y2="782.9" stroke="#ff2040" stroke-opacity=".38" stroke-width="1"/><line x1="777.6" y1="700.8" x2="779.1" y2="783.2" stroke="#ff2040" stroke-opacity=".38" stroke-width="1"/><line x1="183.5" y1="701.4" x2="183.0" y2="782.1" stroke="#ff2040" stroke-opacity=".38" stroke-width="1"/><line x1="811.0" y1="702.1" x2="810.1" y2="784.2" stroke="#ff2040" stroke-opacity=".38" stroke-width="1"/><line x1="215.4" y1="702.9" x2="213.9" y2="784.9" stroke="#ff2040" stroke-opacity=".38" stroke-width="1"/><line x1="844.3" y1="701.1" x2="842.2" y2="783.0" stroke="#ff2040" stroke-opacity=".38" stroke-width="1"/><polygon points="235.6,417.9 764.0,417.2 723.2,663.2 276.7,662.1" fill="url(#suitr1x4922)" stroke="#ff2040" stroke-width="2.6" filter="url(#skr1x4922) url(#metalr1x4922)"/><polygon points="234.5,419.2 765.5,416.9 722.6,662.1 279.2,661.9" fill="url(#carbonr1x4922)"/><polygon points="369.2,416.5 632.7,416.9 610.5,517.0 388.1,514.2" fill="url(#suitHir1x4922)"/><line x1="362.4" y1="472.6" x2="639.5" y2="473.0" stroke="#ff2040" stroke-opacity=".52" stroke-width="1.3" filter="url(#skr1x4922)"/><line x1="401.0" y1="550.7" x2="600.9" y2="551.4" stroke="#ff2040" stroke-opacity=".52" stroke-width="1.3" filter="url(#skr1x4922)"/><line x1="267.9" y1="490.8" x2="318.6" y2="492.3" stroke="#ff2040" stroke-opacity=".62" stroke-width="1.8"/><line x1="680.3" y1="491.9" x2="734.6" y2="491.1" stroke="#ff2040" stroke-opacity=".62" stroke-width="1.8"/><line x1="266.1" y1="524.5" x2="319.8" y2="522.8" stroke="#ff2040" stroke-opacity=".62" stroke-width="1.8"/><line x1="679.3" y1="524.1" x2="732.4" y2="524.3" stroke="#ff2040" stroke-opacity=".62" stroke-width="1.8"/><line x1="268.5" y1="553.9" x2="321.5" y2="556.3" stroke="#ff2040" stroke-opacity=".62" stroke-width="1.8"/><line x1="681.4" y1="554.3" x2="734.6" y2="553.6" stroke="#ff2040" stroke-opacity=".62" stroke-width="1.8"/><line x1="267.4" y1="586.7" x2="319.0" y2="585.5" stroke="#ff2040" stroke-opacity=".62" stroke-width="1.8"/><line x1="681.2" y1="587.9" x2="734.7" y2="587.4" stroke="#ff2040" stroke-opacity=".62" stroke-width="1.8"/><g filter="url(#glowr1x4922)"><circle cx="500.7" cy="499.1" r="31.3" fill="#ff2040" stroke="#1e0600" stroke-width="1.4" filter="url(#skr1x4922)"/><circle cx="489.1" cy="499.3" r="7.0" fill="#1e0600"/><circle cx="510.4" cy="497.3" r="7.0" fill="#1e0600"/><rect x="483.4" y="523.5" width="9.3" height="17.4" rx="1" fill="#ff2040" stroke="#1e0600" stroke-width=".6"/><rect x="496.3" y="523.6" width="9.3" height="17.4" rx="1" fill="#ff2040" stroke="#1e0600" stroke-width=".6"/><rect x="508.0" y="522.6" width="9.3" height="17.4" rx="1" fill="#ff2040" stroke="#1e0600" stroke-width=".6"/></g><g><rect x="830.3562596855313" y="419.93000949462873" width="148.0" height="82.0" rx="5" fill="url(#gunmetalr1x4922)" stroke="#ff2040" stroke-width="2" filter="url(#wmr1x4922)"/><rect x="829.884437302556" y="420.2182341156527" width="148.0" height="82.0" rx="5" fill="url(#carbonr1x4922)"/><rect x="839.3220742593147" y="401.9037533723749" width="90.0" height="22.0" rx="3" fill="url(#barrelr1x4922)" stroke="#ff2040" stroke-width="1" filter="url(#wmr1x4922)"/><circle cx="876.8099613638223" cy="412.96500485315914" r="15.0" fill="#ff2040" opacity=".8" filter="url(#glowr1x4922)"/><circle cx="877.4809796278925" cy="413.5167478840798" r="6.0" fill="rgba(255,255,255,.9)"/><rect x="947.4185575680435" y="456.94461476868014" width="78.0" height="36.0" rx="5" fill="url(#barrelr1x4922)" stroke="#ff2040" stroke-width="1.2" filter="url(#wmr1x4922)"/><circle cx="1021.2798184459657" cy="470.16590701648965" r="18.0" fill="#ff2040" filter="url(#glowr1x4922)" opacity=".88"/><circle cx="1021.5293065172248" cy="471.1125101659447" r="7.0" fill="#ffffff"/><rect x="873.7045582943224" y="499.95781348701564" width="44.0" height="42.0" rx="3" fill="url(#gunmetalr1x4922)" stroke="#ff2040" stroke-width="1" filter="url(#wmr1x4922)"/><rect x="831.5025478205272" y="421.6787954604253" width="90.0" height="10.0" rx="2" fill="rgba(255,255,255,.22)"/><line x1="857.1459741090983" y1="487.26115816682574" x2="856.40013638312" y2="521.1505025517196" stroke="#ff2040" stroke-opacity=".5" stroke-width="1.2"/><line x1="874.208647449743" y1="485.2033838676289" x2="873.5868007799238" y2="519.8305359082296" stroke="#ff2040" stroke-opacity=".5" stroke-width="1.2"/><line x1="889.2138949805499" y1="484.879297954496" x2="888.9075529797561" y2="520.8354597481899" stroke="#ff2040" stroke-opacity=".5" stroke-width="1.2"/></g><rect x="450.6560969626531" y="555.1514191152528" width="100.0"  height="56.0" fill="#cc0020" stroke="#ff2040" stroke-width="2.2" filter="url(#skr1x4922)"/><rect x="423.30652395272625" y="576.9561501562596" width="152.0" height="26.0" fill="url(#bevelr1x4922)" fill-opacity=".65" stroke="#ff2040" stroke-width="1.2" filter="url(#skr1x4922)"/><polygon points="306.6,379.5 350.7,293.9 499.2,277.1 649.1,295.5 690.8,380.8 669.1,504.3 501.2,564.8 331.3,504.3" fill="url(#suitr1x4922)" stroke="#ff2040" stroke-width="2.8" filter="url(#skr1x4922) url(#metalr1x4922)"/><polygon points="308.5,381.3 348.8,295.3 500.3,276.6 649.5,293.2 692.6,379.9 667.7,503.5 500.9,564.7 331.9,504.0" fill="url(#carbonr1x4922)"/><polygon points="380.2,303.3 501.2,286.0 618.2,300.9 607.0,381.1 392.6,382.4" fill="url(#suitHir1x4922)"/><polygon points="379.5,378.9 365.0,426.4 432.6,503.4 499.2,526.6 566.5,503.4 634.1,424.5 618.8,379.4" fill="#1e0600" fill-opacity=".88" stroke="#ff2040" stroke-width="1.8" filter="url(#skr1x4922)"/><polygon points="380.6,410.1 478.0,412.6 486.1,441.4 389.8,439.7" fill="#ff2040" filter="url(#glowr1x4922)"/><polygon points="524.8,409.8 618.1,412.9 613.0,441.4 514.3,438.9" fill="#ff2040" filter="url(#glowr1x4922)"/><ellipse cx="430.9" cy="425.7" rx="38.4"  ry="8.2" fill="#ffffff" opacity=".88"/><ellipse cx="569.1" cy="425.7" rx="38.4"  ry="8.2" fill="#ffffff" opacity=".88"/><line x1="483.7390057772025" y1="414.8183362827636" x2="516.811709477324" y2="412.2791593685746" stroke="#ff2040" stroke-opacity=".52" stroke-width="2"/><line x1="485.29362755842504" y1="438.11695281062276" x2="515.7809381940775" y2="436.97155871819706" stroke="#ff2040" stroke-opacity=".52" stroke-width="2"/><line x1="499.6078279863112" y1="454.7300936983898" x2="501.537433379516" y2="483.9926724153571" stroke="#ff2040" stroke-opacity=".58" stroke-width="2.2" filter="url(#skr1x4922)"/><line x1="453.5910456863977" y1="490.6103434644639" x2="454.08537717161704" y2="520.9747458000668" stroke="#ff2040" stroke-opacity=".52" stroke-width="1.5" filter="url(#skr1x4922)"/><line x1="477.570253766831" y1="490.39858523448925" x2="478.7342626613937" y2="520.1207798568532" stroke="#ff2040" stroke-opacity=".52" stroke-width="1.5" filter="url(#skr1x4922)"/><line x1="500.54327144054696" y1="491.7179387752898" x2="499.9892170872539" y2="518.674766577594" stroke="#ff2040" stroke-opacity=".52" stroke-width="1.5" filter="url(#skr1x4922)"/><line x1="521.9214320361241" y1="492.2267983484081" x2="522.6370291261561" y2="520.0332716293633" stroke="#ff2040" stroke-opacity=".52" stroke-width="1.5" filter="url(#skr1x4922)"/><line x1="546.9225307666883" y1="492.32224167333914" x2="546.6636924703793" y2="520.2314146528952" stroke="#ff2040" stroke-opacity=".52" stroke-width="1.5" filter="url(#skr1x4922)"/><polygon points="431.4,504.1 565.9,503.2 553.6,556.0 446.1,555.3" fill="#cc0020" fill-opacity=".72" stroke="#ff2040" stroke-width="1.3" filter="url(#skr1x4922)"/><path d="M388.79882185613735 327.40816368358213 Q330.77681913102043 215.18484200919048 381.37300425333905 142.26416254499927" stroke="#ff2040" stroke-width="5" fill="none" stroke-linecap="round" filter="url(#skr1x4922)"/><path d="M390.0197010266222 328.94289219696077 Q332.20635230202225 217.4343361579813 381.9239627976343 140.65123711703345" stroke="rgba(255,255,255,.25)" stroke-width="1.5" fill="none" stroke-linecap="round"/><path d="M611.0737351802551 326.8136276347563 Q669.7775919552334 217.4609104698524 619.052021274399 141.1670477856882" stroke="#ff2040" stroke-width="5" fill="none" stroke-linecap="round" filter="url(#skr1x4922)"/><path d="M610.7610469564237 326.9478555385955 Q669.1264140323177 217.38944122949616 619.2328326327354 140.11070019863547" stroke="rgba(255,255,255,.25)" stroke-width="1.5" fill="none" stroke-linecap="round"/><text x="30.0"  y="975.0" font-family="monospace" font-weight="bold" font-size="22.0" fill="rgba(255,255,255,.22)">#0001</text><text x="500.0"   y="975.0" text-anchor="middle" font-family="monospace" font-weight="bold" font-size="22.0" fill="#ff2040" fill-opacity=".48">CRIMSON RANGER</text><text x="970.0" y="975.0" text-anchor="end"    font-family="monospace" font-weight="bold" font-size="22.0" fill="#ff2040" fill-opacity=".32">MECH RANGERS</text></svg>