<svg xmlns="http://www.w3.org/2000/svg" viewBox="0 0 1000 1000" width="1000" height="1000" shape-rendering="geometricPrecision"><defs>

  <!-- Scene gradients -->
  <radialGradient id="bgr1x493" cx="50%" cy="42%" r="72%">
    <stop offset="0%"   stop-color="#1a2814"/>
    <stop offset="100%" stop-color="#0d1520"/>
  </radialGradient>
  <linearGradient id="suitr1x493" x1="8%" y1="0%" x2="92%" y2="100%">
    <stop offset="0%"   stop-color="#00ff60" stop-opacity=".95"/>
    <stop offset="45%"  stop-color="#00441e"/>
    <stop offset="100%" stop-color="#0d1520"/>
  </linearGradient>
  <linearGradient id="suitHir1x493" x1="0%" y1="0%" x2="0%" y2="100%">
    <stop offset="0%"   stop-color="rgba(255,255,255,.28)"/>
    <stop offset="60%"  stop-color="rgba(255,255,255,.04)"/>
    <stop offset="100%" stop-color="rgba(255,255,255,0)"/>
  </linearGradient>
  <!-- Bevel: bright top, dark bottom for armour panels -->
  <linearGradient id="bevelr1x493" x1="0%" y1="0%" x2="0%" y2="100%">
    <stop offset="0%"   stop-color="rgba(255,255,255,.55)"/>
    <stop offset="30%"  stop-color="#00ff60"/>
    <stop offset="70%"  stop-color="#00441e"/>
    <stop offset="100%" stop-color="rgba(0,0,0,.5)"/>
  </linearGradient>

  <!-- Weapon: cold steel blade sweep -->
  <linearGradient id="blader1x493" x1="0%" y1="0%" x2="100%" y2="0%">
    <stop offset="0%"   stop-color="#0e0e20"/>
    <stop offset="16%"  stop-color="#3e3e58"/>
    <stop offset="34%"  stop-color="#c8c8e0"/>
    <stop offset="50%"  stop-color="#f5f5ff"/>
    <stop offset="66%"  stop-color="#b8b8d0"/>
    <stop offset="84%"  stop-color="#2e2e48"/>
    <stop offset="100%" stop-color="#08080e"/>
  </linearGradient>
  <!-- Blade tip brightening -->
  <linearGradient id="bladeTipr1x493" x1="0%" y1="100%" x2="0%" y2="0%">
    <stop offset="0%"   stop-color="rgba(255,255,255,0)"/>
    <stop offset="55%"  stop-color="rgba(255,255,255,.1)"/>
    <stop offset="100%" stop-color="rgba(255,255,255,.55)"/>
  </linearGradient>
  <!-- Gunmetal anodised — blaster body -->
  <linearGradient id="gunmetalr1x493" x1="0%" y1="0%" x2="0%" y2="100%">
    <stop offset="0%"   stop-color="#46465e"/>
    <stop offset="18%"  stop-color="#828296"/>
    <stop offset="42%"  stop-color="#26263a"/>
    <stop offset="72%"  stop-color="#16162a"/>
    <stop offset="100%" stop-color="#0c0c18"/>
  </linearGradient>
  <!-- Brushed steel tube — barrel/rod -->
  <linearGradient id="barrelr1x493" x1="0%" y1="0%" x2="100%" y2="0%">
    <stop offset="0%"   stop-color="#0a0a14"/>
    <stop offset="24%"  stop-color="#585875"/>
    <stop offset="50%"  stop-color="#a8a8c8"/>
    <stop offset="76%"  stop-color="#383852"/>
    <stop offset="100%" stop-color="#0a0a14"/>
  </linearGradient>
  <!-- Chrome rod — lance shaft -->
  <linearGradient id="chromer1x493" x1="0%" y1="0%" x2="100%" y2="0%">
    <stop offset="0%"   stop-color="#0c0c18"/>
    <stop offset="20%"  stop-color="#686888"/>
    <stop offset="44%"  stop-color="#e0e0f0"/>
    <stop offset="56%"  stop-color="#c0c0d8"/>
    <stop offset="80%"  stop-color="#28283e"/>
    <stop offset="100%" stop-color="#0c0c18"/>
  </linearGradient>
  <!-- Titanium plate — shield face -->
  <linearGradient id="titaniumr1x493" x1="0%" y1="0%" x2="100%" y2="100%">
    <stop offset="0%"   stop-color="#585878"/>
    <stop offset="28%"  stop-color="#00ff60" stop-opacity=".88"/>
    <stop offset="55%"  stop-color="#00441e"/>
    <stop offset="80%"  stop-color="#181828"/>
    <stop offset="100%" stop-color="#0a0a18"/>
  </linearGradient>
  <!-- Artillery black-chrome — cannon body -->
  <linearGradient id="artilleryr1x493" x1="0%" y1="0%" x2="0%" y2="100%">
    <stop offset="0%"   stop-color="#383850"/>
    <stop offset="14%"  stop-color="#78789a"/>
    <stop offset="36%"  stop-color="#202034"/>
    <stop offset="65%"  stop-color="#14141e"/>
    <stop offset="100%" stop-color="#0a0a12"/>
  </linearGradient>
  <!-- Energy orb — staff -->
  <radialGradient id="orbr1x493" cx="35%" cy="35%" r="65%">
    <stop offset="0%"   stop-color="rgba(255,255,255,.9)"/>
    <stop offset="30%"  stop-color="#00ff60"/>
    <stop offset="68%"  stop-color="#00441e"/>
    <stop offset="100%" stop-color="rgba(0,0,0,.6)"/>
  </radialGradient>
  <!-- Knuckle plate chrome -->
  <linearGradient id="knuckler1x493" x1="0%" y1="0%" x2="0%" y2="100%">
    <stop offset="0%"   stop-color="#888aaa"/>
    <stop offset="32%"  stop-color="#00ff60" stop-opacity=".8"/>
    <stop offset="62%"  stop-color="#1a1a2c"/>
    <stop offset="100%" stop-color="#0a0a14"/>
  </linearGradient>

  <!-- Carbon fibre weave texture overlay -->
  <pattern id="carbonr1x493" width="6" height="6" patternUnits="userSpaceOnUse">
    <rect width="6" height="6" fill="rgba(0,0,0,.08)"/>
    <rect x="0" y="0" width="3" height="3" fill="rgba(255,255,255,.022)"/>
    <rect x="3" y="3" width="3" height="3" fill="rgba(255,255,255,.022)"/>
    <line x1="0" y1="0" x2="3" y2="3" stroke="rgba(255,255,255,.038)" stroke-width=".5"/>
    <line x1="3" y1="0" x2="6" y2="3" stroke="rgba(0,0,0,.055)"       stroke-width=".5"/>
    <line x1="0" y1="3" x2="3" y2="6" stroke="rgba(0,0,0,.055)"       stroke-width=".5"/>
    <line x1="3" y1="3" x2="6" y2="6" stroke="rgba(255,255,255,.038)" stroke-width=".5"/>
  </pattern>

  <!-- Specular metal sheen on armour panels -->
  <filter id="metalr1x493" x="-5%" y="-5%" width="110%" height="110%">
    <feSpecularLighting surfaceScale="4" specularConstant="1.8"
        specularExponent="42" lighting-color="#ffffff" result="spec">
      <feDistantLight elevation="52" azimuth="38"/>
    </feSpecularLighting>
    <feComposite in="spec" in2="SourceGraphic" operator="in" result="sm"/>
    <feComposite in="SourceGraphic" in2="sm" operator="arithmetic" k1="0" k2="1" k3="0.55" k4="0"/>
  </filter>

  <!-- Sharper specular for weapons — heavier glare -->
  <filter id="wmr1x493" x="-8%" y="-8%" width="116%" height="116%">
    <feSpecularLighting surfaceScale="6" specularConstant="2.4"
        specularExponent="65" lighting-color="#ffffff" result="spec">
      <feDistantLight elevation="44" azimuth="28"/>
    </feSpecularLighting>
    <feComposite in="spec" in2="SourceGraphic" operator="in" result="sm"/>
    <feComposite in="SourceGraphic" in2="sm" operator="arithmetic" k1="0" k2="1" k3="0.78" k4="0"/>
  </filter>

  <!-- Sketch wobble -->
  <filter id="skr1x493" x="-8%" y="-8%" width="116%" height="116%">
    <feTurbulence type="fractalNoise" baseFrequency="0.038"
        numOctaves="3" seed="71" result="noise"/>
    <feDisplacementMap in="SourceGraphic" in2="noise" scale="2.6"
        xChannelSelector="R" yChannelSelector="G" result="w"/>
    <feComposite in="w" in2="SourceGraphic" operator="atop"/>
  </filter>

  <!-- Glow: sharp accent -->
  <filter id="glowr1x493" x="-20%" y="-20%" width="140%" height="140%">
    <feGaussianBlur stdDeviation="3.5" result="b"/>
    <feColorMatrix in="b" type="matrix"
        values="0 0 0 0 1  0 0 0 0 1  0 0 0 0 1  0 0 0 1.8 0" result="boost"/>
    <feMerge><feMergeNode in="boost"/><feMergeNode in="SourceGraphic"/></feMerge>
  </filter>

  <!-- Bloom: wide soft -->
  <filter id="bloomr1x493" x="-40%" y="-40%" width="180%" height="180%">
    <feGaussianBlur stdDeviation="11" result="b"/>
    <feMerge><feMergeNode in="b"/><feMergeNode in="SourceGraphic"/></feMerge>
  </filter>

  </defs><rect width="1000" height="1000" fill="url(#bgr1x493)"/><ellipse cx="500.0" cy="892.0" rx="350.0" ry="65.0" fill="rgba(0,0,0,.7)" filter="url(#bloomr1x493)"/><ellipse cx="500.0" cy="889.0" rx="220.0" ry="34.0" fill="rgba(0,0,0,.45)"/><ellipse cx="500.0" cy="520.0" rx="320.0" ry="480.0" fill="#ff6600" fill-opacity=".042" filter="url(#bloomr1x493)"/><circle cx="522.1" cy="786.6" r="2.0" fill="#ff6600" fill-opacity="0.67" filter="url(#glowr1x493)"/><circle cx="552.9" cy="630.5" r="4.2" fill="#ff6600" fill-opacity="0.65" filter="url(#glowr1x493)"/><circle cx="252.8" cy="262.8" r="4.1" fill="#ff6600" fill-opacity="0.46" filter="url(#glowr1x493)"/><circle cx="438.0" cy="284.0" r="3.0" fill="#ff6600" fill-opacity="0.41" filter="url(#glowr1x493)"/><circle cx="490.0" cy="732.3" r="0.8" fill="#ff6600" fill-opacity="0.85" filter="url(#glowr1x493)"/><circle cx="546.2" cy="496.3" r="1.2" fill="#ff6600" fill-opacity="0.46" filter="url(#glowr1x493)"/><circle cx="567.8" cy="528.3" r="1.7" fill="#ff6600" fill-opacity="0.53" filter="url(#glowr1x493)"/><circle cx="354.1" cy="648.9" r="2.9" fill="#ff6600" fill-opacity="0.82" filter="url(#glowr1x493)"/><circle cx="511.5" cy="278.9" r="4.1" fill="#ff6600" fill-opacity="0.45" filter="url(#glowr1x493)"/><circle cx="595.8" cy="491.8" r="2.9" fill="#ff6600" fill-opacity="0.40" filter="url(#glowr1x493)"/><circle cx="477.1" cy="764.0" r="1.8" fill="#ff6600" fill-opacity="0.61" filter="url(#glowr1x493)"/><circle cx="322.8" cy="687.7" r="2.4" fill="#ff6600" fill-opacity="0.47" filter="url(#glowr1x493)"/><circle cx="450.2" cy="714.4" r="0.7" fill="#ff6600" fill-opacity="0.44" filter="url(#glowr1x493)"/><circle cx="300.5" cy="778.9" r="1.5" fill="#ff6600" fill-opacity="0.41" filter="url(#glowr1x493)"/><polygon points="398.6,663.7 491.0,662.1 481.5,876.8 387.8,879.1" fill="url(#suitr1x493)" stroke="#00ff60" stroke-width="2.2" filter="url(#skr1x493) url(#metalr1x493)"/><polygon points="397.7,661.7 489.9,664.1 479.1,876.6 387.4,877.2" fill="url(#carbonr1x493)"/><polygon points="394.0,724.3 493.3,723.0 484.5,787.4 385.3,788.5" fill="url(#bevelr1x493)" fill-opacity=".5" stroke="#00ff60" stroke-width="1.4" filter="url(#skr1x493)"/><polygon points="512.1,661.9 602.5,662.3 613.8,878.4 520.6,876.0" fill="url(#suitr1x493)" stroke="#00ff60" stroke-width="2.2" filter="url(#skr1x493) url(#metalr1x493)"/><polygon points="510.7,663.5 600.4,662.5 612.7,877.9 519.0,876.2" fill="url(#carbonr1x493)"/><polygon points="506.8,724.3 608.7,724.5 614.5,789.9 517.3,787.2" fill="url(#bevelr1x493)" fill-opacity=".5" stroke="#00ff60" stroke-width="1.4" filter="url(#skr1x493)"/><rect x="392.8" y="840.2" width="100.3" height="24.7" fill="url(#bevelr1x493)" stroke="#00ff60" stroke-width="1" filter="url(#skr1x493)"/><rect x="506.5"  y="837.1" width="100.3" height="24.7" fill="url(#bevelr1x493)" stroke="#00ff60" stroke-width="1" filter="url(#skr1x493)"/><polygon points="371.5,876.2 495.0,876.3 503.4,922.2 362.7,921.3" fill="#00441e" stroke="#00ff60" stroke-width="2" filter="url(#skr1x493)"/><polygon points="501.8,878.3 630.4,877.1 637.3,921.0 495.9,919.7" fill="#00441e" stroke="#00ff60" stroke-width="2" filter="url(#skr1x493)"/><polygon points="305.0,632.8 695.2,633.3 638.8,680.7 362.5,681.5" fill="#00ff60" fill-opacity=".52" stroke="#00ff60" stroke-width="2" filter="url(#skr1x493)"/><rect x="464.9" y="636.8" width="72.0" height="42.0" fill="url(#bevelr1x493)" stroke="#00ff60" stroke-width="1.4" filter="url(#glowr1x493)"/><rect x="487.4" y="639.3" width="28.0" height="22.0" rx="1" fill="rgba(255,255,255,.48)"/><polygon points="153.2,468.2 235.7,465.1 258.4,734.6 127.8,734.9" fill="url(#suitr1x493)" stroke="#00ff60" stroke-width="2.2" filter="url(#skr1x493) url(#metalr1x493)"/><polygon points="175.1,432.6 254.5,433.1 243.7,511.9 157.8,509.4" fill="url(#bevelr1x493)" fill-opacity=".72" stroke="#00ff60" stroke-width="2.2" filter="url(#skr1x493)"/><polygon points="161.3,621.1 241.9,620.4 240.8,659.6 164.5,661.5" fill="#00ff60" fill-opacity=".42" stroke="#00ff60" stroke-width="1" filter="url(#skr1x493)"/><polygon points="766.0,466.1 848.1,466.9 872.9,736.6 743.5,734.5" fill="url(#suitr1x493)" stroke="#00ff60" stroke-width="2.2" filter="url(#skr1x493) url(#metalr1x493)"/><polygon points="745.6,430.7 826.4,432.4 842.1,509.1 755.0,509.4" fill="url(#bevelr1x493)" fill-opacity=".72" stroke="#00ff60" stroke-width="2.2" filter="url(#skr1x493)"/><polygon points="757.2,623.2 838.8,620.7 833.9,659.1 759.6,660.2" fill="#00ff60" fill-opacity=".42" stroke="#00ff60" stroke-width="1" filter="url(#skr1x493)"/><rect x="119.0"  y="701.4" width="135.3" height="85.0" rx="4" fill="url(#bevelr1x493)" stroke="#00ff60" stroke-width="1.8" filter="url(#skr1x493)"/><rect x="749.8"   y="701.1" width="135.3" height="85.0" rx="4" fill="url(#bevelr1x493)" stroke="#00ff60" stroke-width="1.8" filter="url(#skr1x493)"/><line x1="148.2" y1="703.0" x2="149.4" y2="782.1" stroke="#00ff60" stroke-opacity=".38" stroke-width="1"/><line x1="777.6" y1="702.0" x2="778.7" y2="783.5" stroke="#00ff60" stroke-opacity=".38" stroke-width="1"/><line x1="184.1" y1="700.9" x2="183.0" y2="785.2" stroke="#00ff60" stroke-opacity=".38" stroke-width="1"/><line x1="811.3" y1="703.0" x2="810.4" y2="782.8" stroke="#00ff60" stroke-opacity=".38" stroke-width="1"/><line x1="213.7" y1="703.4" x2="216.8" y2="783.7" stroke="#00ff60" stroke-opacity=".38" stroke-width="1"/><line x1="843.3" y1="703.4" x2="843.1" y2="782.6" stroke="#00ff60" stroke-opacity=".38" stroke-width="1"/><polygon points="235.2,417.3 766.5,416.9 721.8,663.0 277.8,660.9" fill="url(#suitr1x493)" stroke="#00ff60" stroke-width="2.6" filter="url(#skr1x493) url(#metalr1x493)"/><polygon points="234.5,418.6 765.6,418.9 723.0,662.4 276.1,661.7" fill="url(#carbonr1x493)"/><polygon points="369.2,416.8 633.3,417.5 610.7,515.5 389.6,514.8" fill="url(#suitHir1x493)"/><line x1="362.0" y1="472.4" x2="636.0" y2="471.8" stroke="#00ff60" stroke-opacity=".52" stroke-width="1.3" filter="url(#skr1x493)"/><line x1="399.9" y1="548.4" x2="600.8" y2="550.2" stroke="#00ff60" stroke-opacity=".52" stroke-width="1.3" filter="url(#skr1x493)"/><line x1="266.2" y1="489.7" x2="320.2" y2="492.4" stroke="#00ff60" stroke-opacity=".62" stroke-width="1.8"/><line x1="680.1" y1="489.6" x2="731.4" y2="492.2" stroke="#00ff60" stroke-opacity=".62" stroke-width="1.8"/><line x1="267.8" y1="522.7" x2="320.9" y2="524.1" stroke="#00ff60" stroke-opacity=".62" stroke-width="1.8"/><line x1="678.7" y1="522.5" x2="734.9" y2="523.2" stroke="#00ff60" stroke-opacity=".62" stroke-width="1.8"/><line x1="266.9" y1="554.3" x2="320.1" y2="556.0" stroke="#00ff60" stroke-opacity=".62" stroke-width="1.8"/><line x1="679.5" y1="556.3" x2="734.8" y2="554.2" stroke="#00ff60" stroke-opacity=".62" stroke-width="1.8"/><line x1="267.7" y1="585.2" x2="320.3" y2="586.8" stroke="#00ff60" stroke-opacity=".62" stroke-width="1.8"/><line x1="679.6" y1="585.8" x2="733.9" y2="586.2" stroke="#00ff60" stroke-opacity=".62" stroke-width="1.8"/><g filter="url(#glowr1x493)"><polygon points="500.9,453.6 516.3,491.6 554.9,492.1 525.3,517.2 535.6,558.3 498.8,537.0 466.3,556.9 475.2,518.2 444.4,492.5 484.3,488.7 " fill="#00ff60" stroke="#0d1520" stroke-width="1.4" filter="url(#skr1x493)"/><polygon points="500.9,453.6 516.3,491.6 554.9,492.1 525.3,517.2 535.6,558.3 498.8,537.0 466.3,556.9 475.2,518.2 444.4,492.5 484.3,488.7 " fill="url(#suitHir1x493)" opacity=".45"/></g><g><rect x="34.256963523048874" y="420.782072361093" width="148.0" height="82.0" rx="5" fill="url(#gunmetalr1x493)" stroke="#00ff60" stroke-width="2" filter="url(#wmr1x493)"/><rect x="35.66764750121158" y="422.23955033794044" width="148.0" height="82.0" rx="5" fill="url(#carbonr1x493)"/><rect x="42.34129143519324" y="403.9174335945397" width="90.0" height="22.0" rx="3" fill="url(#barrelr1x493)" stroke="#00ff60" stroke-width="1" filter="url(#wmr1x493)"/><circle cx="80.61320498682555" cy="415.0699865289032" r="15.0" fill="#00ff60" opacity=".8" filter="url(#glowr1x493)"/><circle cx="80.84347303140905" cy="413.2147387363016" r="6.0" fill="rgba(255,255,255,.9)"/><rect x="53.85831767017019" y="455.6745581164956" width="78.0" height="36.0" rx="5" fill="url(#barrelr1x493)" stroke="#00ff60" stroke-width="1.2" filter="url(#wmr1x493)"/><circle cx="-19.60506600137803" cy="470.55623957626517" r="18.0" fill="#00ff60" filter="url(#glowr1x493)" opacity=".88"/><circle cx="-18.14723369298506" cy="471.22293467428534" r="7.0" fill="#ffffff"/><rect x="77.97178323607889" y="502.9167935732752" width="44.0" height="42.0" rx="3" fill="url(#gunmetalr1x493)" stroke="#00ff60" stroke-width="1" filter="url(#wmr1x493)"/><rect x="37.462942026779025" y="424.87483682958407" width="90.0" height="10.0" rx="2" fill="rgba(255,255,255,.22)"/><line x1="62.8547247563861" y1="485.26249692626294" x2="63.24519761161876" y2="519.9709840534255" stroke="#00ff60" stroke-opacity=".5" stroke-width="1.2"/><line x1="77.25629137245934" y1="487.15291178571056" x2="76.62472113756459" y2="518.6708585616201" stroke="#00ff60" stroke-opacity=".5" stroke-width="1.2"/><line x1="94.36821632351723" y1="485.5044139563106" x2="92.9657586460374" y2="520.6528841987252" stroke="#00ff60" stroke-opacity=".5" stroke-width="1.2"/></g><rect x="450.97963012279945" y="555.9774936419911" width="100.0"  height="56.0" fill="#00441e" stroke="#00ff60" stroke-width="2.2" filter="url(#skr1x493)"/><rect x="422.54648051355036" y="575.626248357445" width="152.0" height="26.0" fill="url(#bevelr1x493)" fill-opacity=".65" stroke="#00ff60" stroke-width="1.2" filter="url(#skr1x493)"/><polygon points="308.7,381.9 351.3,295.7 498.4,278.1 650.0,296.3 691.2,379.9 667.2,503.9 498.4,564.4 329.8,502.4" fill="url(#suitr1x493)" stroke="#00ff60" stroke-width="2.8" filter="url(#skr1x493) url(#metalr1x493)"/><polygon points="308.2,380.1 350.0,295.6 500.8,276.5 649.1,294.1 692.5,381.5 668.1,503.3 499.2,563.6 330.2,505.3" fill="url(#carbonr1x493)"/><polygon points="380.7,301.8 499.4,284.7 617.8,303.0 606.7,380.8 391.2,378.9" fill="url(#suitHir1x493)"/><polygon points="380.2,382.2 365.0,424.9 432.1,502.0 499.3,529.3 567.4,505.1 634.5,427.0 618.7,380.4" fill="#0d1520" fill-opacity=".88" stroke="#00ff60" stroke-width="1.8" filter="url(#skr1x493)"/><polygon points="379.3,412.6 476.4,411.3 484.4,439.1 389.4,441.1" fill="#00ff60" filter="url(#glowr1x493)"/><polygon points="523.9,413.0 617.5,410.1 612.5,441.4 514.0,439.0" fill="#00ff60" filter="url(#glowr1x493)"/><ellipse cx="430.9" cy="425.7" rx="38.4"  ry="8.2" fill="#ffffff" opacity=".88"/><ellipse cx="569.1" cy="425.7" rx="38.4"  ry="8.2" fill="#ffffff" opacity=".88"/><line x1="486.33544369559735" y1="413.51533273626114" x2="516.1823122592084" y2="412.2939703398384" stroke="#00ff60" stroke-opacity=".52" stroke-width="2"/><line x1="483.9888315058872" y1="436.2869186016731" x2="514.2636722745747" y2="438.2817143431865" stroke="#00ff60" stroke-opacity=".52" stroke-width="2"/><line x1="501.18847485519944" y1="453.2353582927026" x2="498.6909174354747" y2="484.55708592673767" stroke="#00ff60" stroke-opacity=".58" stroke-width="2.2" filter="url(#skr1x493)"/><line x1="453.8141600993276" y1="491.88805022099984" x2="452.8689961746149" y2="520.9060927920043" stroke="#00ff60" stroke-opacity=".52" stroke-width="1.5" filter="url(#skr1x493)"/><line x1="477.7631816758215" y1="492.4556617192924" x2="478.39030323237176" y2="519.772051240597" stroke="#00ff60" stroke-opacity=".52" stroke-width="1.5" filter="url(#skr1x493)"/><line x1="500.3884227439761" y1="489.8954076420515" x2="501.55810848111287" y2="519.2122541034594" stroke="#00ff60" stroke-opacity=".52" stroke-width="1.5" filter="url(#skr1x493)"/><line x1="524.1703522869013" y1="490.5756867691874" x2="521.5427410287409" y2="520.6731327533722" stroke="#00ff60" stroke-opacity=".52" stroke-width="1.5" filter="url(#skr1x493)"/><line x1="546.4786140645109" y1="490.26596398139367" x2="547.1673667735607" y2="520.3915345171466" stroke="#00ff60" stroke-opacity=".52" stroke-width="1.5" filter="url(#skr1x493)"/><polygon points="433.6,501.9 567.8,503.6 553.3,558.4 444.8,556.5" fill="#00441e" fill-opacity=".72" stroke="#00ff60" stroke-width="1.3" filter="url(#skr1x493)"/><text x="30.0"  y="975.0" font-family="monospace" font-weight="bold" font-size="22.0" fill="rgba(255,255,255,.22)">#0001</text><text x="500.0"   y="975.0" text-anchor="middle" font-family="monospace" font-weight="bold" font-size="22.0" fill="#00ff60" fill-opacity=".48">VIPER RANGER</text><text x="970.0" y="975.0" text-anchor="end"    font-family="monospace" font-weight="bold" font-size="22.0" fill="#00ff60" fill-opacity=".32">MECH RANGERS</text></svg>