<svg xmlns="http://www.w3.org/2000/svg" viewBox="0 0 1000 1000" width="1000" height="1000" shape-rendering="geometricPrecision"><defs>

  <!-- Scene gradients -->
  <radialGradient id="bgr1x4931" cx="50%" cy="42%" r="72%">
    <stop offset="0%"   stop-color="#1e0d00"/>
    <stop offset="100%" stop-color="#140900"/>
  </radialGradient>
  <linearGradient id="suitr1x4931" x1="8%" y1="0%" x2="92%" y2="100%">
    <stop offset="0%"   stop-color="#ff2040" stop-opacity=".95"/>
    <stop offset="45%"  stop-color="#cc0020"/>
    <stop offset="100%" stop-color="#140900"/>
  </linearGradient>
  <linearGradient id="suitHir1x4931" x1="0%" y1="0%" x2="0%" y2="100%">
    <stop offset="0%"   stop-color="rgba(255,255,255,.28)"/>
    <stop offset="60%"  stop-color="rgba(255,255,255,.04)"/>
    <stop offset="100%" stop-color="rgba(255,255,255,0)"/>
  </linearGradient>
  <!-- Bevel: bright top, dark bottom for armour panels -->
  <linearGradient id="bevelr1x4931" x1="0%" y1="0%" x2="0%" y2="100%">
    <stop offset="0%"   stop-color="rgba(255,255,255,.55)"/>
    <stop offset="30%"  stop-color="#ff2040"/>
    <stop offset="70%"  stop-color="#cc0020"/>
    <stop offset="100%" stop-color="rgba(0,0,0,.5)"/>
  </linearGradient>

  <!-- Weapon: cold steel blade sweep -->
  <linearGradient id="blader1x4931" x1="0%" y1="0%" x2="100%" y2="0%">
    <stop offset="0%"   stop-color="#0e0e20"/>
    <stop offset="16%"  stop-color="#3e3e58"/>
    <stop offset="34%"  stop-color="#c8c8e0"/>
    <stop offset="50%"  stop-color="#f5f5ff"/>
    <stop offset="66%"  stop-color="#b8b8d0"/>
    <stop offset="84%"  stop-color="#2e2e48"/>
    <stop offset="100%" stop-color="#08080e"/>
  </linearGradient>
  <!-- Blade tip brightening -->
  <linearGradient id="bladeTipr1x4931" x1="0%" y1="100%" x2="0%" y2="0%">
    <stop offset="0%"   stop-color="rgba(255,255,255,0)"/>
    <stop offset="55%"  stop-color="rgba(255,255,255,.1)"/>
    <stop offset="100%" stop-color="rgba(255,255,255,.55)"/>
  </linearGradient>
  <!-- Gunmetal anodised — blaster body -->
  <linearGradient id="gunmetalr1x4931" x1="0%" y1="0%" x2="0%" y2="100%">
    <stop offset="0%"   stop-color="#46465e"/>
    <stop offset="18%"  stop-color="#828296"/>
    <stop offset="42%"  stop-color="#26263a"/>
    <stop offset="72%"  stop-color="#16162a"/>
    <stop offset="100%" stop-color="#0c0c18"/>
  </linearGradient>
  <!-- Brushed steel tube — barrel/rod -->
  <linearGradient id="barrelr1x4931" x1="0%" y1="0%" x2="100%" y2="0%">
    <stop offset="0%"   stop-color="#0a0a14"/>
    <stop offset="24%"  stop-color="#585875"/>
    <stop offset="50%"  stop-color="#a8a8c8"/>
    <stop offset="76%"  stop-color="#383852"/>
    <stop offset="100%" stop-color="#0a0a14"/>
  </linearGradient>
  <!-- Chrome rod — lance shaft -->
  <linearGradient id="chromer1x4931" x1="0%" y1="0%" x2="100%" y2="0%">
    <stop offset="0%"   stop-color="#0c0c18"/>
    <stop offset="20%"  stop-color="#686888"/>
    <stop offset="44%"  stop-color="#e0e0f0"/>
    <stop offset="56%"  stop-color="#c0c0d8"/>
    <stop offset="80%"  stop-color="#28283e"/>
    <stop offset="100%" stop-color="#0c0c18"/>
  </linearGradient>
  <!-- Titanium plate — shield face -->
  <linearGradient id="titaniumr1x4931" x1="0%" y1="0%" x2="100%" y2="100%">
    <stop offset="0%"   stop-color="#585878"/>
    <stop offset="28%"  stop-color="#ff2040" stop-opacity=".88"/>
    <stop offset="55%"  stop-color="#cc0020"/>
    <stop offset="80%"  stop-color="#181828"/>
    <stop offset="100%" stop-color="#0a0a18"/>
  </linearGradient>
  <!-- Artillery black-chrome — cannon body -->
  <linearGradient id="artilleryr1x4931" x1="0%" y1="0%" x2="0%" y2="100%">
    <stop offset="0%"   stop-color="#383850"/>
    <stop offset="14%"  stop-color="#78789a"/>
    <stop offset="36%"  stop-color="#202034"/>
    <stop offset="65%"  stop-color="#14141e"/>
    <stop offset="100%" stop-color="#0a0a12"/>
  </linearGradient>
  <!-- Energy orb — staff -->
  <radialGradient id="orbr1x4931" cx="35%" cy="35%" r="65%">
    <stop offset="0%"   stop-color="rgba(255,255,255,.9)"/>
    <stop offset="30%"  stop-color="#ff2040"/>
    <stop offset="68%"  stop-color="#cc0020"/>
    <stop offset="100%" stop-color="rgba(0,0,0,.6)"/>
  </radialGradient>
  <!-- Knuckle plate chrome -->
  <linearGradient id="knuckler1x4931" x1="0%" y1="0%" x2="0%" y2="100%">
    <stop offset="0%"   stop-color="#888aaa"/>
    <stop offset="32%"  stop-color="#ff2040" stop-opacity=".8"/>
    <stop offset="62%"  stop-color="#1a1a2c"/>
    <stop offset="100%" stop-color="#0a0a14"/>
  </linearGradient>

  <!-- Carbon fibre weave texture overlay -->
  <pattern id="carbonr1x4931" width="6" height="6" patternUnits="userSpaceOnUse">
    <rect width="6" height="6" fill="rgba(0,0,0,.08)"/>
    <rect x="0" y="0" width="3" height="3" fill="rgba(255,255,255,.022)"/>
    <rect x="3" y="3" width="3" height="3" fill="rgba(255,255,255,.022)"/>
    <line x1="0" y1="0" x2="3" y2="3" stroke="rgba(255,255,255,.038)" stroke-width=".5"/>
    <line x1="3" y1="0" x2="6" y2="3" stroke="rgba(0,0,0,.055)"       stroke-width=".5"/>
    <line x1="0" y1="3" x2="3" y2="6" stroke="rgba(0,0,0,.055)"       stroke-width=".5"/>
    <line x1="3" y1="3" x2="6" y2="6" stroke="rgba(255,255,255,.038)" stroke-width=".5"/>
  </pattern>

  <!-- Specular metal sheen on armour panels -->
  <filter id="metalr1x4931" x="-5%" y="-5%" width="110%" height="110%">
    <feSpecularLighting surfaceScale="4" specularConstant="1.8"
        specularExponent="42" lighting-color="#ffffff" result="spec">
      <feDistantLight elevation="52" azimuth="38"/>
    </feSpecularLighting>
    <feComposite in="spec" in2="SourceGraphic" operator="in" result="sm"/>
    <feComposite in="SourceGraphic" in2="sm" operator="arithmetic" k1="0" k2="1" k3="0.55" k4="0"/>
  </filter>

  <!-- Sharper specular for weapons — heavier glare -->
  <filter id="wmr1x4931" x="-8%" y="-8%" width="116%" height="116%">
    <feSpecularLighting surfaceScale="6" specularConstant="2.4"
        specularExponent="65" lighting-color="#ffffff" result="spec">
      <feDistantLight elevation="44" azimuth="28"/>
    </feSpecularLighting>
    <feComposite in="spec" in2="SourceGraphic" operator="in" result="sm"/>
    <feComposite in="SourceGraphic" in2="sm" operator="arithmetic" k1="0" k2="1" k3="0.78" k4="0"/>
  </filter>

  <!-- Sketch wobble -->
  <filter id="skr1x4931" x="-8%" y="-8%" width="116%" height="116%">
    <feTurbulence type="fractalNoise" baseFrequency="0.038"
        numOctaves="3" seed="14" result="noise"/>
    <feDisplacementMap in="SourceGraphic" in2="noise" scale="2.6"
        xChannelSelector="R" yChannelSelector="G" result="w"/>
    <feComposite in="w" in2="SourceGraphic" operator="atop"/>
  </filter>

  <!-- Glow: sharp accent -->
  <filter id="glowr1x4931" x="-20%" y="-20%" width="140%" height="140%">
    <feGaussianBlur stdDeviation="3.5" result="b"/>
    <feColorMatrix in="b" type="matrix"
        values="0 0 0 0 1  0 0 0 0 1  0 0 0 0 1  0 0 0 1.8 0" result="boost"/>
    <feMerge><feMergeNode in="boost"/><feMergeNode in="SourceGraphic"/></feMerge>
  </filter>

  <!-- Bloom: wide soft -->
  <filter id="bloomr1x4931" x="-40%" y="-40%" width="180%" height="180%">
    <feGaussianBlur stdDeviation="11" result="b"/>
    <feMerge><feMergeNode in="b"/><feMergeNode in="SourceGraphic"/></feMerge>
  </filter>

  </defs><rect width="1000" height="1000" fill="url(#bgr1x4931)"/><line x1="500" y1="500" x2="1500.0" y2="500.0" stroke="#ff2040" stroke-opacity=".048" stroke-width="5"/><line x1="500" y1="500" x2="1474.9" y2="722.5" stroke="#ff2040" stroke-opacity=".048" stroke-width="5"/><line x1="500" y1="500" x2="1401.0" y2="933.9" stroke="#ff2040" stroke-opacity=".048" stroke-width="5"/><line x1="500" y1="500" x2="1281.8" y2="1123.5" stroke="#ff2040" stroke-opacity=".048" stroke-width="5"/><line x1="500" y1="500" x2="1123.5" y2="1281.8" stroke="#ff2040" stroke-opacity=".048" stroke-width="5"/><line x1="500" y1="500" x2="933.9" y2="1401.0" stroke="#ff2040" stroke-opacity=".048" stroke-width="5"/><line x1="500" y1="500" x2="722.5" y2="1474.9" stroke="#ff2040" stroke-opacity=".048" stroke-width="5"/><line x1="500" y1="500" x2="500.0" y2="1500.0" stroke="#ff2040" stroke-opacity=".048" stroke-width="5"/><line x1="500" y1="500" x2="277.5" y2="1474.9" stroke="#ff2040" stroke-opacity=".048" stroke-width="5"/><line x1="500" y1="500" x2="66.1" y2="1401.0" stroke="#ff2040" stroke-opacity=".048" stroke-width="5"/><line x1="500" y1="500" x2="-123.5" y2="1281.8" stroke="#ff2040" stroke-opacity=".048" stroke-width="5"/><line x1="500" y1="500" x2="-281.8" y2="1123.5" stroke="#ff2040" stroke-opacity=".048" stroke-width="5"/><line x1="500" y1="500" x2="-401.0" y2="933.9" stroke="#ff2040" stroke-opacity=".048" stroke-width="5"/><line x1="500" y1="500" x2="-474.9" y2="722.5" stroke="#ff2040" stroke-opacity=".048" stroke-width="5"/><line x1="500" y1="500" x2="-500.0" y2="500.0" stroke="#ff2040" stroke-opacity=".048" stroke-width="5"/><line x1="500" y1="500" x2="-474.9" y2="277.5" stroke="#ff2040" stroke-opacity=".048" stroke-width="5"/><line x1="500" y1="500" x2="-401.0" y2="66.1" stroke="#ff2040" stroke-opacity=".048" stroke-width="5"/><line x1="500" y1="500" x2="-281.8" y2="-123.5" stroke="#ff2040" stroke-opacity=".048" stroke-width="5"/><line x1="500" y1="500" x2="-123.5" y2="-281.8" stroke="#ff2040" stroke-opacity=".048" stroke-width="5"/><line x1="500" y1="500" x2="66.1" y2="-401.0" stroke="#ff2040" stroke-opacity=".048" stroke-width="5"/><line x1="500" y1="500" x2="277.5" y2="-474.9" stroke="#ff2040" stroke-opacity=".048" stroke-width="5"/><line x1="500" y1="500" x2="500.0" y2="-500.0" stroke="#ff2040" stroke-opacity=".048" stroke-width="5"/><line x1="500" y1="500" x2="722.5" y2="-474.9" stroke="#ff2040" stroke-opacity=".048" stroke-width="5"/><line x1="500" y1="500" x2="933.9" y2="-401.0" stroke="#ff2040" stroke-opacity=".048" stroke-width="5"/><line x1="500" y1="500" x2="1123.5" y2="-281.8" stroke="#ff2040" stroke-opacity=".048" stroke-width="5"/><line x1="500" y1="500" x2="1281.8" y2="-123.5" stroke="#ff2040" stroke-opacity=".048" stroke-width="5"/><line x1="500" y1="500" x2="1401.0" y2="66.1" stroke="#ff2040" stroke-opacity=".048" stroke-width="5"/><line x1="500" y1="500" x2="1474.9" y2="277.5" stroke="#ff2040" stroke-opacity=".048" stroke-width="5"/><ellipse cx="500.0" cy="892.0" rx="350.0" ry="65.0" fill="rgba(0,0,0,.7)" filter="url(#bloomr1x4931)"/><ellipse cx="500.0" cy="889.0" rx="220.0" ry="34.0" fill="rgba(0,0,0,.45)"/><ellipse cx="500.0" cy="520.0" rx="320.0" ry="480.0" fill="#6600ff" fill-opacity=".042" filter="url(#bloomr1x4931)"/><circle cx="329.7" cy="201.7" r="3.8" fill="#6600ff" fill-opacity="0.68" filter="url(#glowr1x4931)"/><circle cx="677.0" cy="712.7" r="3.3" fill="#6600ff" fill-opacity="0.52" filter="url(#glowr1x4931)"/><circle cx="548.9" cy="617.5" r="1.1" fill="#6600ff" fill-opacity="0.56" filter="url(#glowr1x4931)"/><circle cx="275.4" cy="424.8" r="1.3" fill="#6600ff" fill-opacity="0.42" filter="url(#glowr1x4931)"/><circle cx="560.3" cy="693.9" r="3.7" fill="#6600ff" fill-opacity="0.63" filter="url(#glowr1x4931)"/><circle cx="457.6" cy="707.9" r="1.6" fill="#6600ff" fill-opacity="0.70" filter="url(#glowr1x4931)"/><circle cx="437.2" cy="548.9" r="1.8" fill="#6600ff" fill-opacity="0.62" filter="url(#glowr1x4931)"/><circle cx="585.1" cy="442.4" r="3.3" fill="#6600ff" fill-opacity="0.52" filter="url(#glowr1x4931)"/><circle cx="469.5" cy="446.0" r="1.8" fill="#6600ff" fill-opacity="0.76" filter="url(#glowr1x4931)"/><circle cx="736.3" cy="304.1" r="1.0" fill="#6600ff" fill-opacity="0.41" filter="url(#glowr1x4931)"/><circle cx="507.9" cy="260.2" r="4.2" fill="#6600ff" fill-opacity="0.51" filter="url(#glowr1x4931)"/><circle cx="513.3" cy="580.3" r="0.7" fill="#6600ff" fill-opacity="0.59" filter="url(#glowr1x4931)"/><circle cx="414.4" cy="463.7" r="4.0" fill="#6600ff" fill-opacity="0.63" filter="url(#glowr1x4931)"/><circle cx="511.3" cy="585.3" r="3.9" fill="#6600ff" fill-opacity="0.56" filter="url(#glowr1x4931)"/><polygon points="398.4,663.2 490.3,663.0 480.7,879.1 388.1,877.1" fill="url(#suitr1x4931)" stroke="#ff2040" stroke-width="2.2" filter="url(#skr1x4931) url(#metalr1x4931)"/><polygon points="399.5,663.1 487.9,662.5 481.3,877.3 386.6,876.3" fill="url(#carbonr1x4931)"/><polygon points="393.7,723.6 494.5,724.8 484.2,787.9 382.2,789.5" fill="url(#bevelr1x4931)" fill-opacity=".5" stroke="#ff2040" stroke-width="1.4" filter="url(#skr1x4931)"/><polygon points="509.7,661.9 600.2,661.7 613.2,878.1 518.2,878.5" fill="url(#suitr1x4931)" stroke="#ff2040" stroke-width="2.2" filter="url(#skr1x4931) url(#metalr1x4931)"/><polygon points="510.9,661.3 599.9,662.8 613.5,875.8 519.5,878.8" fill="url(#carbonr1x4931)"/><polygon points="505.8,725.1 607.5,724.8 615.1,790.0 515.1,788.1" fill="url(#bevelr1x4931)" fill-opacity=".5" stroke="#ff2040" stroke-width="1.4" filter="url(#skr1x4931)"/><rect x="394.0" y="837.7" width="100.3" height="24.7" fill="url(#bevelr1x4931)" stroke="#ff2040" stroke-width="1" filter="url(#skr1x4931)"/><rect x="508.1"  y="839.9" width="100.3" height="24.7" fill="url(#bevelr1x4931)" stroke="#ff2040" stroke-width="1" filter="url(#skr1x4931)"/><polygon points="369.1,876.7 497.7,875.9 504.5,920.0 362.7,920.8" fill="#cc0020" stroke="#ff2040" stroke-width="2" filter="url(#skr1x4931)"/><polygon points="502.1,875.9 630.0,877.2 636.2,922.6 497.8,920.7" fill="#cc0020" stroke="#ff2040" stroke-width="2" filter="url(#skr1x4931)"/><polygon points="302.5,633.9 697.7,632.7 636.0,683.8 362.7,683.1" fill="#ff2040" fill-opacity=".52" stroke="#ff2040" stroke-width="2" filter="url(#skr1x4931)"/><rect x="462.9" y="636.3" width="72.0" height="42.0" fill="url(#bevelr1x4931)" stroke="#ff2040" stroke-width="1.4" filter="url(#glowr1x4931)"/><rect x="486.2" y="640.0" width="28.0" height="22.0" rx="1" fill="rgba(255,255,255,.48)"/><polygon points="152.1,468.0 234.6,466.4 257.1,734.2 129.0,734.0" fill="url(#suitr1x4931)" stroke="#ff2040" stroke-width="2.2" filter="url(#skr1x4931) url(#metalr1x4931)"/><polygon points="172.9,432.1 253.3,433.0 242.0,510.8 160.7,510.8" fill="url(#bevelr1x4931)" fill-opacity=".72" stroke="#ff2040" stroke-width="2.2" filter="url(#skr1x4931)"/><polygon points="159.6,621.0 242.9,621.5 240.4,659.2 163.6,661.1" fill="#ff2040" fill-opacity=".42" stroke="#ff2040" stroke-width="1" filter="url(#skr1x4931)"/><polygon points="764.6,466.0 847.0,465.5 870.6,735.9 743.2,734.3" fill="url(#suitr1x4931)" stroke="#ff2040" stroke-width="2.2" filter="url(#skr1x4931) url(#metalr1x4931)"/><polygon points="748.4,431.3 825.6,431.0 838.9,512.0 756.6,512.0" fill="url(#bevelr1x4931)" fill-opacity=".72" stroke="#ff2040" stroke-width="2.2" filter="url(#skr1x4931)"/><polygon points="758.0,620.9 839.6,623.2 832.9,661.2 762.0,659.2" fill="#ff2040" fill-opacity=".42" stroke="#ff2040" stroke-width="1" filter="url(#skr1x4931)"/><rect x="119.7"  y="700.1" width="135.3" height="85.0" rx="4" fill="url(#bevelr1x4931)" stroke="#ff2040" stroke-width="1.8" filter="url(#skr1x4931)"/><rect x="749.2"   y="700.3" width="135.3" height="85.0" rx="4" fill="url(#bevelr1x4931)" stroke="#ff2040" stroke-width="1.8" filter="url(#skr1x4931)"/><line x1="150.4" y1="703.6" x2="148.9" y2="785.3" stroke="#ff2040" stroke-opacity=".38" stroke-width="1"/><line x1="778.6" y1="700.3" x2="777.3" y2="783.8" stroke="#ff2040" stroke-opacity=".38" stroke-width="1"/><line x1="181.4" y1="703.2" x2="182.3" y2="783.9" stroke="#ff2040" stroke-opacity=".38" stroke-width="1"/><line x1="810.3" y1="702.5" x2="810.6" y2="783.6" stroke="#ff2040" stroke-opacity=".38" stroke-width="1"/><line x1="213.9" y1="703.4" x2="216.8" y2="783.7" stroke="#ff2040" stroke-opacity=".38" stroke-width="1"/><line x1="845.2" y1="700.7" x2="845.1" y2="785.0" stroke="#ff2040" stroke-opacity=".38" stroke-width="1"/><polygon points="233.8,417.8 766.2,417.2 724.1,663.4 275.7,663.7" fill="url(#suitr1x4931)" stroke="#ff2040" stroke-width="2.6" filter="url(#skr1x4931) url(#metalr1x4931)"/><polygon points="234.5,415.8 765.1,416.6 722.5,662.6 278.0,661.3" fill="url(#carbonr1x4931)"/><polygon points="366.5,416.6 634.2,417.4 612.5,514.6 388.5,517.2" fill="url(#suitHir1x4931)"/><line x1="361.0" y1="470.4" x2="638.4" y2="472.1" stroke="#ff2040" stroke-opacity=".52" stroke-width="1.3" filter="url(#skr1x4931)"/><line x1="398.7" y1="548.2" x2="602.0" y2="551.4" stroke="#ff2040" stroke-opacity=".52" stroke-width="1.3" filter="url(#skr1x4931)"/><line x1="265.0" y1="491.1" x2="318.3" y2="492.4" stroke="#ff2040" stroke-opacity=".62" stroke-width="1.8"/><line x1="682.0" y1="490.9" x2="732.8" y2="491.5" stroke="#ff2040" stroke-opacity=".62" stroke-width="1.8"/><line x1="265.6" y1="523.8" x2="318.2" y2="522.0" stroke="#ff2040" stroke-opacity=".62" stroke-width="1.8"/><line x1="681.0" y1="523.4" x2="734.8" y2="522.2" stroke="#ff2040" stroke-opacity=".62" stroke-width="1.8"/><line x1="265.1" y1="555.0" x2="318.2" y2="554.8" stroke="#ff2040" stroke-opacity=".62" stroke-width="1.8"/><line x1="681.9" y1="556.3" x2="733.7" y2="554.6" stroke="#ff2040" stroke-opacity=".62" stroke-width="1.8"/><line x1="268.4" y1="586.1" x2="319.3" y2="588.2" stroke="#ff2040" stroke-opacity=".62" stroke-width="1.8"/><line x1="679.7" y1="586.0" x2="731.9" y2="588.2" stroke="#ff2040" stroke-opacity=".62" stroke-width="1.8"/><g filter="url(#glowr1x4931)"><polygon points="500.1,453.6 515.4,491.5 555.9,491.1 524.6,519.6 534.0,557.2 500.6,536.1 466.2,557.3 475.6,518.0 443.6,491.6 483.7,491.3 " fill="#ff2040" stroke="#140900" stroke-width="1.4" filter="url(#skr1x4931)"/><polygon points="500.1,453.6 515.4,491.5 555.9,491.1 524.6,519.6 534.0,557.2 500.6,536.1 466.2,557.3 475.6,518.0 443.6,491.6 483.7,491.3 " fill="url(#suitHir1x4931)" opacity=".45"/></g><g><rect x="828.5902279667184" y="422.0827465917915" width="148.0" height="82.0" rx="5" fill="url(#gunmetalr1x4931)" stroke="#ff2040" stroke-width="2" filter="url(#wmr1x4931)"/><rect x="828.3693275245465" y="421.33315252177414" width="148.0" height="82.0" rx="5" fill="url(#carbonr1x4931)"/><rect x="838.499963926021" y="403.86048779515545" width="90.0" height="22.0" rx="3" fill="url(#barrelr1x4931)" stroke="#ff2040" stroke-width="1" filter="url(#wmr1x4931)"/><circle cx="879.0826614267752" cy="415.22457015281543" r="15.0" fill="#ff2040" opacity=".8" filter="url(#glowr1x4931)"/><circle cx="879.3258009465039" cy="413.953836517781" r="6.0" fill="rgba(255,255,255,.9)"/><rect x="946.0642583264597" y="456.3068008046597" width="78.0" height="36.0" rx="5" fill="url(#barrelr1x4931)" stroke="#ff2040" stroke-width="1.2" filter="url(#wmr1x4931)"/><circle cx="1020.0504862325826" cy="471.55225412370635" r="18.0" fill="#ff2040" filter="url(#glowr1x4931)" opacity=".88"/><circle cx="1019.5063081383333" cy="471.48889114847407" r="7.0" fill="#ffffff"/><rect x="874.9907025914267" y="499.77547754934056" width="44.0" height="42.0" rx="3" fill="url(#gunmetalr1x4931)" stroke="#ff2040" stroke-width="1" filter="url(#wmr1x4931)"/><rect x="831.6970706263185" y="423.9436675374396" width="90.0" height="10.0" rx="2" fill="rgba(255,255,255,.22)"/><line x1="859.6358385359496" y1="486.26298687942324" x2="857.8997416167148" y2="520.0994676227681" stroke="#ff2040" stroke-opacity=".5" stroke-width="1.2"/><line x1="873.9376488056593" y1="488.1701566603966" x2="873.964677062966" y2="519.6551307349465" stroke="#ff2040" stroke-opacity=".5" stroke-width="1.2"/><line x1="889.0984318931215" y1="484.79742630375546" x2="890.4505970652774" y2="520.844988325052" stroke="#ff2040" stroke-opacity=".5" stroke-width="1.2"/></g><rect x="451.1097099233419" y="557.7358175688423" width="100.0"  height="56.0" fill="#cc0020" stroke="#ff2040" stroke-width="2.2" filter="url(#skr1x4931)"/><rect x="423.1752624941058" y="576.6873261349276" width="152.0" height="26.0" fill="url(#bevelr1x4931)" fill-opacity=".65" stroke="#ff2040" stroke-width="1.2" filter="url(#skr1x4931)"/><polygon points="306.4,381.4 351.4,295.0 498.7,277.3 648.4,294.2 691.1,380.3 670.6,505.3 500.9,566.6 329.8,503.9" fill="url(#suitr1x4931)" stroke="#ff2040" stroke-width="2.8" filter="url(#skr1x4931) url(#metalr1x4931)"/><polygon points="309.6,380.8 349.1,294.5 501.5,276.9 649.7,292.8 691.1,381.1 668.7,504.4 501.6,564.1 332.4,504.7" fill="url(#carbonr1x4931)"/><polygon points="381.7,304.1 498.5,285.9 618.3,304.4 606.4,379.6 390.7,380.2" fill="url(#suitHir1x4931)"/><polygon points="380.2,380.4 367.3,424.6 434.1,503.9 498.8,526.6 568.8,502.1 635.3,426.8 619.4,380.8" fill="#140900" fill-opacity=".88" stroke="#ff2040" stroke-width="1.8" filter="url(#skr1x4931)"/><polygon points="380.7,412.3 477.0,410.4 484.0,441.4 387.1,440.8" fill="#ff2040" filter="url(#glowr1x4931)"/><polygon points="523.1,412.6 620.7,412.4 611.3,440.5 514.9,439.5" fill="#ff2040" filter="url(#glowr1x4931)"/><ellipse cx="430.9" cy="425.7" rx="38.4"  ry="8.2" fill="#ffffff" opacity=".88"/><ellipse cx="569.1" cy="425.7" rx="38.4"  ry="8.2" fill="#ffffff" opacity=".88"/><line x1="484.19141654247414" y1="413.3483311090618" x2="513.7374470803328" y2="411.9432725018821" stroke="#ff2040" stroke-opacity=".52" stroke-width="2"/><line x1="484.2013151191734" y1="436.98599265636875" x2="515.0161528499239" y2="439.01315666427837" stroke="#ff2040" stroke-opacity=".52" stroke-width="2"/><line x1="499.6469645967707" y1="454.8589966185391" x2="501.1399565984495" y2="484.4635850743391" stroke="#ff2040" stroke-opacity=".58" stroke-width="2.2" filter="url(#skr1x4931)"/><line x1="452.7367234854773" y1="490.8049865136854" x2="453.5146255290881" y2="518.2391324069351" stroke="#ff2040" stroke-opacity=".52" stroke-width="1.5" filter="url(#skr1x4931)"/><line x1="478.3022705399804" y1="491.0777365799062" x2="475.2961810733564" y2="520.791062890552" stroke="#ff2040" stroke-opacity=".52" stroke-width="1.5" filter="url(#skr1x4931)"/><line x1="501.27696707118304" y1="491.9145924645476" x2="498.5216359993443" y2="521.7181256092153" stroke="#ff2040" stroke-opacity=".52" stroke-width="1.5" filter="url(#skr1x4931)"/><line x1="521.5994925071112" y1="490.6534833188168" x2="524.2477106339857" y2="520.2567413897253" stroke="#ff2040" stroke-opacity=".52" stroke-width="1.5" filter="url(#skr1x4931)"/><line x1="546.8486648577452" y1="490.2831179494038" x2="544.9317725661398" y2="519.5670603186824" stroke="#ff2040" stroke-opacity=".52" stroke-width="1.5" filter="url(#skr1x4931)"/><polygon points="434.1,505.4 565.8,504.8 554.9,557.1 446.9,555.6" fill="#cc0020" fill-opacity=".72" stroke="#ff2040" stroke-width="1.3" filter="url(#skr1x4931)"/><text x="30.0"  y="975.0" font-family="monospace" font-weight="bold" font-size="22.0" fill="rgba(255,255,255,.22)">#0001</text><text x="500.0"   y="975.0" text-anchor="middle" font-family="monospace" font-weight="bold" font-size="22.0" fill="#ff2040" fill-opacity=".48">CRIMSON RANGER</text><text x="970.0" y="975.0" text-anchor="end"    font-family="monospace" font-weight="bold" font-size="22.0" fill="#ff2040" fill-opacity=".32">MECH RANGERS</text></svg>