<svg xmlns="http://www.w3.org/2000/svg" viewBox="0 0 1000 1000" width="1000" height="1000" shape-rendering="geometricPrecision"><defs>

  <!-- Scene gradients -->
  <radialGradient id="bgr1x5133" cx="50%" cy="42%" r="72%">
    <stop offset="0%"   stop-color="#1e0d00"/>
    <stop offset="100%" stop-color="#140900"/>
  </radialGradient>
  <linearGradient id="suitr1x5133" x1="8%" y1="0%" x2="92%" y2="100%">
    <stop offset="0%"   stop-color="#ccccff" stop-opacity=".95"/>
    <stop offset="45%"  stop-color="#242438"/>
    <stop offset="100%" stop-color="#140900"/>
  </linearGradient>
  <linearGradient id="suitHir1x5133" x1="0%" y1="0%" x2="0%" y2="100%">
    <stop offset="0%"   stop-color="rgba(255,255,255,.28)"/>
    <stop offset="60%"  stop-color="rgba(255,255,255,.04)"/>
    <stop offset="100%" stop-color="rgba(255,255,255,0)"/>
  </linearGradient>
  <!-- Bevel: bright top, dark bottom for armour panels -->
  <linearGradient id="bevelr1x5133" x1="0%" y1="0%" x2="0%" y2="100%">
    <stop offset="0%"   stop-color="rgba(255,255,255,.55)"/>
    <stop offset="30%"  stop-color="#ccccff"/>
    <stop offset="70%"  stop-color="#242438"/>
    <stop offset="100%" stop-color="rgba(0,0,0,.5)"/>
  </linearGradient>

  <!-- Weapon: cold steel blade sweep -->
  <linearGradient id="blader1x5133" x1="0%" y1="0%" x2="100%" y2="0%">
    <stop offset="0%"   stop-color="#0e0e20"/>
    <stop offset="16%"  stop-color="#3e3e58"/>
    <stop offset="34%"  stop-color="#c8c8e0"/>
    <stop offset="50%"  stop-color="#f5f5ff"/>
    <stop offset="66%"  stop-color="#b8b8d0"/>
    <stop offset="84%"  stop-color="#2e2e48"/>
    <stop offset="100%" stop-color="#08080e"/>
  </linearGradient>
  <!-- Blade tip brightening -->
  <linearGradient id="bladeTipr1x5133" x1="0%" y1="100%" x2="0%" y2="0%">
    <stop offset="0%"   stop-color="rgba(255,255,255,0)"/>
    <stop offset="55%"  stop-color="rgba(255,255,255,.1)"/>
    <stop offset="100%" stop-color="rgba(255,255,255,.55)"/>
  </linearGradient>
  <!-- Gunmetal anodised — blaster body -->
  <linearGradient id="gunmetalr1x5133" x1="0%" y1="0%" x2="0%" y2="100%">
    <stop offset="0%"   stop-color="#46465e"/>
    <stop offset="18%"  stop-color="#828296"/>
    <stop offset="42%"  stop-color="#26263a"/>
    <stop offset="72%"  stop-color="#16162a"/>
    <stop offset="100%" stop-color="#0c0c18"/>
  </linearGradient>
  <!-- Brushed steel tube — barrel/rod -->
  <linearGradient id="barrelr1x5133" x1="0%" y1="0%" x2="100%" y2="0%">
    <stop offset="0%"   stop-color="#0a0a14"/>
    <stop offset="24%"  stop-color="#585875"/>
    <stop offset="50%"  stop-color="#a8a8c8"/>
    <stop offset="76%"  stop-color="#383852"/>
    <stop offset="100%" stop-color="#0a0a14"/>
  </linearGradient>
  <!-- Chrome rod — lance shaft -->
  <linearGradient id="chromer1x5133" x1="0%" y1="0%" x2="100%" y2="0%">
    <stop offset="0%"   stop-color="#0c0c18"/>
    <stop offset="20%"  stop-color="#686888"/>
    <stop offset="44%"  stop-color="#e0e0f0"/>
    <stop offset="56%"  stop-color="#c0c0d8"/>
    <stop offset="80%"  stop-color="#28283e"/>
    <stop offset="100%" stop-color="#0c0c18"/>
  </linearGradient>
  <!-- Titanium plate — shield face -->
  <linearGradient id="titaniumr1x5133" x1="0%" y1="0%" x2="100%" y2="100%">
    <stop offset="0%"   stop-color="#585878"/>
    <stop offset="28%"  stop-color="#ccccff" stop-opacity=".88"/>
    <stop offset="55%"  stop-color="#242438"/>
    <stop offset="80%"  stop-color="#181828"/>
    <stop offset="100%" stop-color="#0a0a18"/>
  </linearGradient>
  <!-- Artillery black-chrome — cannon body -->
  <linearGradient id="artilleryr1x5133" x1="0%" y1="0%" x2="0%" y2="100%">
    <stop offset="0%"   stop-color="#383850"/>
    <stop offset="14%"  stop-color="#78789a"/>
    <stop offset="36%"  stop-color="#202034"/>
    <stop offset="65%"  stop-color="#14141e"/>
    <stop offset="100%" stop-color="#0a0a12"/>
  </linearGradient>
  <!-- Energy orb — staff -->
  <radialGradient id="orbr1x5133" cx="35%" cy="35%" r="65%">
    <stop offset="0%"   stop-color="rgba(255,255,255,.9)"/>
    <stop offset="30%"  stop-color="#ccccff"/>
    <stop offset="68%"  stop-color="#242438"/>
    <stop offset="100%" stop-color="rgba(0,0,0,.6)"/>
  </radialGradient>
  <!-- Knuckle plate chrome -->
  <linearGradient id="knuckler1x5133" x1="0%" y1="0%" x2="0%" y2="100%">
    <stop offset="0%"   stop-color="#888aaa"/>
    <stop offset="32%"  stop-color="#ccccff" stop-opacity=".8"/>
    <stop offset="62%"  stop-color="#1a1a2c"/>
    <stop offset="100%" stop-color="#0a0a14"/>
  </linearGradient>

  <!-- Carbon fibre weave texture overlay -->
  <pattern id="carbonr1x5133" width="6" height="6" patternUnits="userSpaceOnUse">
    <rect width="6" height="6" fill="rgba(0,0,0,.08)"/>
    <rect x="0" y="0" width="3" height="3" fill="rgba(255,255,255,.022)"/>
    <rect x="3" y="3" width="3" height="3" fill="rgba(255,255,255,.022)"/>
    <line x1="0" y1="0" x2="3" y2="3" stroke="rgba(255,255,255,.038)" stroke-width=".5"/>
    <line x1="3" y1="0" x2="6" y2="3" stroke="rgba(0,0,0,.055)"       stroke-width=".5"/>
    <line x1="0" y1="3" x2="3" y2="6" stroke="rgba(0,0,0,.055)"       stroke-width=".5"/>
    <line x1="3" y1="3" x2="6" y2="6" stroke="rgba(255,255,255,.038)" stroke-width=".5"/>
  </pattern>

  <!-- Specular metal sheen on armour panels -->
  <filter id="metalr1x5133" x="-5%" y="-5%" width="110%" height="110%">
    <feSpecularLighting surfaceScale="4" specularConstant="1.8"
        specularExponent="42" lighting-color="#ffffff" result="spec">
      <feDistantLight elevation="52" azimuth="38"/>
    </feSpecularLighting>
    <feComposite in="spec" in2="SourceGraphic" operator="in" result="sm"/>
    <feComposite in="SourceGraphic" in2="sm" operator="arithmetic" k1="0" k2="1" k3="0.55" k4="0"/>
  </filter>

  <!-- Sharper specular for weapons — heavier glare -->
  <filter id="wmr1x5133" x="-8%" y="-8%" width="116%" height="116%">
    <feSpecularLighting surfaceScale="6" specularConstant="2.4"
        specularExponent="65" lighting-color="#ffffff" result="spec">
      <feDistantLight elevation="44" azimuth="28"/>
    </feSpecularLighting>
    <feComposite in="spec" in2="SourceGraphic" operator="in" result="sm"/>
    <feComposite in="SourceGraphic" in2="sm" operator="arithmetic" k1="0" k2="1" k3="0.78" k4="0"/>
  </filter>

  <!-- Sketch wobble -->
  <filter id="skr1x5133" x="-8%" y="-8%" width="116%" height="116%">
    <feTurbulence type="fractalNoise" baseFrequency="0.038"
        numOctaves="3" seed="63" result="noise"/>
    <feDisplacementMap in="SourceGraphic" in2="noise" scale="2.6"
        xChannelSelector="R" yChannelSelector="G" result="w"/>
    <feComposite in="w" in2="SourceGraphic" operator="atop"/>
  </filter>

  <!-- Glow: sharp accent -->
  <filter id="glowr1x5133" x="-20%" y="-20%" width="140%" height="140%">
    <feGaussianBlur stdDeviation="3.5" result="b"/>
    <feColorMatrix in="b" type="matrix"
        values="0 0 0 0 1  0 0 0 0 1  0 0 0 0 1  0 0 0 1.8 0" result="boost"/>
    <feMerge><feMergeNode in="boost"/><feMergeNode in="SourceGraphic"/></feMerge>
  </filter>

  <!-- Bloom: wide soft -->
  <filter id="bloomr1x5133" x="-40%" y="-40%" width="180%" height="180%">
    <feGaussianBlur stdDeviation="11" result="b"/>
    <feMerge><feMergeNode in="b"/><feMergeNode in="SourceGraphic"/></feMerge>
  </filter>

  </defs><rect width="1000" height="1000" fill="url(#bgr1x5133)"/><line x1="500" y1="500" x2="1500.0" y2="500.0" stroke="#ccccff" stroke-opacity=".048" stroke-width="5"/><line x1="500" y1="500" x2="1474.9" y2="722.5" stroke="#ccccff" stroke-opacity=".048" stroke-width="5"/><line x1="500" y1="500" x2="1401.0" y2="933.9" stroke="#ccccff" stroke-opacity=".048" stroke-width="5"/><line x1="500" y1="500" x2="1281.8" y2="1123.5" stroke="#ccccff" stroke-opacity=".048" stroke-width="5"/><line x1="500" y1="500" x2="1123.5" y2="1281.8" stroke="#ccccff" stroke-opacity=".048" stroke-width="5"/><line x1="500" y1="500" x2="933.9" y2="1401.0" stroke="#ccccff" stroke-opacity=".048" stroke-width="5"/><line x1="500" y1="500" x2="722.5" y2="1474.9" stroke="#ccccff" stroke-opacity=".048" stroke-width="5"/><line x1="500" y1="500" x2="500.0" y2="1500.0" stroke="#ccccff" stroke-opacity=".048" stroke-width="5"/><line x1="500" y1="500" x2="277.5" y2="1474.9" stroke="#ccccff" stroke-opacity=".048" stroke-width="5"/><line x1="500" y1="500" x2="66.1" y2="1401.0" stroke="#ccccff" stroke-opacity=".048" stroke-width="5"/><line x1="500" y1="500" x2="-123.5" y2="1281.8" stroke="#ccccff" stroke-opacity=".048" stroke-width="5"/><line x1="500" y1="500" x2="-281.8" y2="1123.5" stroke="#ccccff" stroke-opacity=".048" stroke-width="5"/><line x1="500" y1="500" x2="-401.0" y2="933.9" stroke="#ccccff" stroke-opacity=".048" stroke-width="5"/><line x1="500" y1="500" x2="-474.9" y2="722.5" stroke="#ccccff" stroke-opacity=".048" stroke-width="5"/><line x1="500" y1="500" x2="-500.0" y2="500.0" stroke="#ccccff" stroke-opacity=".048" stroke-width="5"/><line x1="500" y1="500" x2="-474.9" y2="277.5" stroke="#ccccff" stroke-opacity=".048" stroke-width="5"/><line x1="500" y1="500" x2="-401.0" y2="66.1" stroke="#ccccff" stroke-opacity=".048" stroke-width="5"/><line x1="500" y1="500" x2="-281.8" y2="-123.5" stroke="#ccccff" stroke-opacity=".048" stroke-width="5"/><line x1="500" y1="500" x2="-123.5" y2="-281.8" stroke="#ccccff" stroke-opacity=".048" stroke-width="5"/><line x1="500" y1="500" x2="66.1" y2="-401.0" stroke="#ccccff" stroke-opacity=".048" stroke-width="5"/><line x1="500" y1="500" x2="277.5" y2="-474.9" stroke="#ccccff" stroke-opacity=".048" stroke-width="5"/><line x1="500" y1="500" x2="500.0" y2="-500.0" stroke="#ccccff" stroke-opacity=".048" stroke-width="5"/><line x1="500" y1="500" x2="722.5" y2="-474.9" stroke="#ccccff" stroke-opacity=".048" stroke-width="5"/><line x1="500" y1="500" x2="933.9" y2="-401.0" stroke="#ccccff" stroke-opacity=".048" stroke-width="5"/><line x1="500" y1="500" x2="1123.5" y2="-281.8" stroke="#ccccff" stroke-opacity=".048" stroke-width="5"/><line x1="500" y1="500" x2="1281.8" y2="-123.5" stroke="#ccccff" stroke-opacity=".048" stroke-width="5"/><line x1="500" y1="500" x2="1401.0" y2="66.1" stroke="#ccccff" stroke-opacity=".048" stroke-width="5"/><line x1="500" y1="500" x2="1474.9" y2="277.5" stroke="#ccccff" stroke-opacity=".048" stroke-width="5"/><ellipse cx="500.0" cy="892.0" rx="350.0" ry="65.0" fill="rgba(0,0,0,.7)" filter="url(#bloomr1x5133)"/><ellipse cx="500.0" cy="889.0" rx="220.0" ry="34.0" fill="rgba(0,0,0,.45)"/><ellipse cx="500.0" cy="520.0" rx="320.0" ry="480.0" fill="#ff00ff" fill-opacity=".042" filter="url(#bloomr1x5133)"/><circle cx="382.1" cy="538.2" r="1.3" fill="#ff00ff" fill-opacity="0.74" filter="url(#glowr1x5133)"/><circle cx="746.8" cy="368.3" r="2.1" fill="#ff00ff" fill-opacity="0.44" filter="url(#glowr1x5133)"/><circle cx="484.5" cy="614.0" r="2.0" fill="#ff00ff" fill-opacity="0.49" filter="url(#glowr1x5133)"/><circle cx="504.6" cy="400.8" r="2.9" fill="#ff00ff" fill-opacity="0.54" filter="url(#glowr1x5133)"/><circle cx="283.0" cy="644.1" r="1.8" fill="#ff00ff" fill-opacity="0.54" filter="url(#glowr1x5133)"/><circle cx="734.9" cy="595.5" r="3.9" fill="#ff00ff" fill-opacity="0.53" filter="url(#glowr1x5133)"/><circle cx="731.3" cy="716.1" r="2.9" fill="#ff00ff" fill-opacity="0.72" filter="url(#glowr1x5133)"/><circle cx="466.0" cy="337.2" r="1.1" fill="#ff00ff" fill-opacity="0.85" filter="url(#glowr1x5133)"/><circle cx="513.3" cy="210.2" r="2.5" fill="#ff00ff" fill-opacity="0.63" filter="url(#glowr1x5133)"/><circle cx="643.3" cy="568.4" r="3.3" fill="#ff00ff" fill-opacity="0.66" filter="url(#glowr1x5133)"/><circle cx="446.7" cy="258.2" r="1.7" fill="#ff00ff" fill-opacity="0.60" filter="url(#glowr1x5133)"/><circle cx="413.6" cy="246.3" r="1.0" fill="#ff00ff" fill-opacity="0.89" filter="url(#glowr1x5133)"/><circle cx="289.8" cy="349.8" r="3.5" fill="#ff00ff" fill-opacity="0.45" filter="url(#glowr1x5133)"/><circle cx="308.7" cy="396.1" r="1.9" fill="#ff00ff" fill-opacity="0.45" filter="url(#glowr1x5133)"/><path d="M680.4,369.8 Q712.5,576.4 333.1,830.8" stroke="#ff00ff" stroke-opacity="0.60" stroke-width="1.7" fill="none" filter="url(#glowr1x5133)"/><path d="M370.2,360.0 Q354.9,549.0 356.2,734.3" stroke="#ff00ff" stroke-opacity="0.77" stroke-width="0.9" fill="none" filter="url(#glowr1x5133)"/><path d="M373.2,332.1 Q329.8,531.6 315.4,716.7" stroke="#ff00ff" stroke-opacity="0.51" stroke-width="2.5" fill="none" filter="url(#glowr1x5133)"/><path d="M575.4,217.9 Q605.7,478.1 427.0,787.1" stroke="#ff00ff" stroke-opacity="0.65" stroke-width="2.8" fill="none" filter="url(#glowr1x5133)"/><path d="M326.9,393.7 Q344.7,572.0 421.7,747.7" stroke="#ff00ff" stroke-opacity="0.65" stroke-width="2.0" fill="none" filter="url(#glowr1x5133)"/><polygon points="398.9,662.1 487.8,662.3 481.2,876.2 386.2,876.2" fill="url(#suitr1x5133)" stroke="#ccccff" stroke-width="2.2" filter="url(#skr1x5133) url(#metalr1x5133)"/><polygon points="399.5,663.8 489.9,663.1 479.2,877.0 388.2,877.2" fill="url(#carbonr1x5133)"/><polygon points="391.6,725.4 493.9,725.4 485.1,788.5 385.6,788.9" fill="url(#bevelr1x5133)" fill-opacity=".5" stroke="#ccccff" stroke-width="1.4" filter="url(#skr1x5133)"/><polygon points="511.6,661.9 601.0,663.7 613.4,875.7 517.8,878.0" fill="url(#suitr1x5133)" stroke="#ccccff" stroke-width="2.2" filter="url(#skr1x5133) url(#metalr1x5133)"/><polygon points="512.2,661.4 600.2,662.1 612.2,878.8 519.5,877.6" fill="url(#carbonr1x5133)"/><polygon points="508.6,723.6 607.2,724.9 614.8,787.2 515.9,789.1" fill="url(#bevelr1x5133)" fill-opacity=".5" stroke="#ccccff" stroke-width="1.4" filter="url(#skr1x5133)"/><rect x="391.9" y="839.7" width="100.3" height="24.7" fill="url(#bevelr1x5133)" stroke="#ccccff" stroke-width="1" filter="url(#skr1x5133)"/><rect x="506.1"  y="838.8" width="100.3" height="24.7" fill="url(#bevelr1x5133)" stroke="#ccccff" stroke-width="1" filter="url(#skr1x5133)"/><polygon points="369.2,878.9 497.1,876.8 504.2,920.1 363.4,920.3" fill="#242438" stroke="#ccccff" stroke-width="2" filter="url(#skr1x5133)"/><polygon points="503.5,876.8 631.0,877.6 638.2,922.0 495.7,922.6" fill="#242438" stroke="#ccccff" stroke-width="2" filter="url(#skr1x5133)"/><polygon points="305.2,634.7 696.5,633.3 636.6,683.6 361.3,683.1" fill="#ccccff" fill-opacity=".52" stroke="#ccccff" stroke-width="2" filter="url(#skr1x5133)"/><rect x="462.6" y="639.6" width="72.0" height="42.0" fill="url(#bevelr1x5133)" stroke="#ccccff" stroke-width="1.4" filter="url(#glowr1x5133)"/><rect x="486.7" y="640.9" width="28.0" height="22.0" rx="1" fill="rgba(255,255,255,.48)"/><polygon points="152.2,465.3 234.9,465.3 258.7,733.7 129.4,735.4" fill="url(#suitr1x5133)" stroke="#ccccff" stroke-width="2.2" filter="url(#skr1x5133) url(#metalr1x5133)"/><polygon points="172.9,432.9 252.6,433.4 241.8,510.7 159.2,511.3" fill="url(#bevelr1x5133)" fill-opacity=".72" stroke="#ccccff" stroke-width="2.2" filter="url(#skr1x5133)"/><polygon points="160.8,623.3 244.5,622.3 237.9,662.2 164.1,659.1" fill="#ccccff" fill-opacity=".42" stroke="#ccccff" stroke-width="1" filter="url(#skr1x5133)"/><polygon points="764.3,464.9 845.4,466.0 872.4,734.7 743.5,735.2" fill="url(#suitr1x5133)" stroke="#ccccff" stroke-width="2.2" filter="url(#skr1x5133) url(#metalr1x5133)"/><polygon points="747.0,430.5 827.1,433.8 840.4,509.1 756.4,511.6" fill="url(#bevelr1x5133)" fill-opacity=".72" stroke="#ccccff" stroke-width="2.2" filter="url(#skr1x5133)"/><polygon points="757.8,622.0 837.2,620.5 834.9,660.0 762.5,659.3" fill="#ccccff" fill-opacity=".42" stroke="#ccccff" stroke-width="1" filter="url(#skr1x5133)"/><rect x="120.1"  y="699.1" width="135.3" height="85.0" rx="4" fill="url(#bevelr1x5133)" stroke="#ccccff" stroke-width="1.8" filter="url(#skr1x5133)"/><rect x="747.8"   y="698.5" width="135.3" height="85.0" rx="4" fill="url(#bevelr1x5133)" stroke="#ccccff" stroke-width="1.8" filter="url(#skr1x5133)"/><line x1="150.0" y1="703.2" x2="148.7" y2="785.2" stroke="#ccccff" stroke-opacity=".38" stroke-width="1"/><line x1="777.6" y1="702.5" x2="778.1" y2="782.5" stroke="#ccccff" stroke-opacity=".38" stroke-width="1"/><line x1="181.8" y1="703.3" x2="181.2" y2="784.5" stroke="#ccccff" stroke-opacity=".38" stroke-width="1"/><line x1="809.1" y1="702.4" x2="810.4" y2="784.5" stroke="#ccccff" stroke-opacity=".38" stroke-width="1"/><line x1="216.8" y1="701.0" x2="214.3" y2="782.5" stroke="#ccccff" stroke-opacity=".38" stroke-width="1"/><line x1="843.9" y1="702.6" x2="845.5" y2="782.1" stroke="#ccccff" stroke-opacity=".38" stroke-width="1"/><polygon points="234.7,417.5 765.2,417.7 722.5,662.1 278.1,662.3" fill="url(#suitr1x5133)" stroke="#ccccff" stroke-width="2.6" filter="url(#skr1x5133) url(#metalr1x5133)"/><polygon points="236.0,418.7 764.7,419.1 721.0,661.2 278.4,662.6" fill="url(#carbonr1x5133)"/><polygon points="367.7,417.8 631.3,415.9 611.3,516.2 387.7,517.1" fill="url(#suitHir1x5133)"/><line x1="360.7" y1="472.9" x2="637.6" y2="470.4" stroke="#ccccff" stroke-opacity=".52" stroke-width="1.3" filter="url(#skr1x5133)"/><line x1="400.0" y1="548.7" x2="601.5" y2="549.1" stroke="#ccccff" stroke-opacity=".52" stroke-width="1.3" filter="url(#skr1x5133)"/><line x1="265.3" y1="490.7" x2="319.4" y2="490.1" stroke="#ccccff" stroke-opacity=".62" stroke-width="1.8"/><line x1="679.2" y1="489.2" x2="733.8" y2="491.3" stroke="#ccccff" stroke-opacity=".62" stroke-width="1.8"/><line x1="268.1" y1="523.5" x2="320.3" y2="523.5" stroke="#ccccff" stroke-opacity=".62" stroke-width="1.8"/><line x1="682.0" y1="521.8" x2="734.2" y2="524.6" stroke="#ccccff" stroke-opacity=".62" stroke-width="1.8"/><line x1="265.6" y1="554.9" x2="321.1" y2="555.2" stroke="#ccccff" stroke-opacity=".62" stroke-width="1.8"/><line x1="681.4" y1="553.4" x2="733.5" y2="554.4" stroke="#ccccff" stroke-opacity=".62" stroke-width="1.8"/><line x1="268.5" y1="586.0" x2="321.1" y2="586.5" stroke="#ccccff" stroke-opacity=".62" stroke-width="1.8"/><line x1="679.1" y1="585.2" x2="732.3" y2="586.8" stroke="#ccccff" stroke-opacity=".62" stroke-width="1.8"/><g filter="url(#glowr1x5133)"><polygon points="484.3,452.5 513.7,506.5 498.9,507.6 517.8,568.0 488.4,515.7 501.5,514.1" fill="#ccccff" stroke="#140900" stroke-width="1.4" filter="url(#skr1x5133)"/><polygon points="482.4,453.2 512.6,505.1 500.9,506.5 516.1,567.8 488.7,516.7 500.9,515.4" fill="url(#suitHir1x5133)" opacity=".4"/></g><g><line x1="897.5119024904072" y1="792.1272764825262" x2="914.1810439583473" y2="111.63874257532878" stroke="url(#chromer1x5133)" stroke-width="28.0" stroke-linecap="round" filter="url(#wmr1x5133)"/><line x1="902.8145296141133" y1="773.1970062859356" x2="910.8250595451892" y2="133.04974759547036" stroke="rgba(255,255,255,.42)" stroke-width="5.0" stroke-linecap="round"/><polygon points="870.7,152.7 934.0,150.5 915.4,-7.0" fill="url(#blader1x5133)" stroke="#ccccff" stroke-width="1.8" filter="url(#wmr1x5133)"/><line x1="935.8" y1="151.4" x2="915.8" y2="-8.6" stroke="rgba(255,255,255,.72)" stroke-width="1.6"/><rect x="877.5304041805305" y="422.0264600332826" width="40.0" height="20.0" fill="url(#bevelr1x5133)" stroke="#ccccff" stroke-width="1" filter="url(#wmr1x5133)"/><rect x="880.1213829368912" y="509.91380377300084" width="40.0" height="20.0" fill="url(#bevelr1x5133)" stroke="#ccccff" stroke-width="1" filter="url(#wmr1x5133)"/><rect x="879.5414611494728" y="601.1323797347956" width="40.0" height="20.0" fill="url(#bevelr1x5133)" stroke="#ccccff" stroke-width="1" filter="url(#wmr1x5133)"/><rect x="879.0186574405618" y="692.7734584919177" width="40.0" height="20.0" fill="url(#bevelr1x5133)" stroke="#ccccff" stroke-width="1" filter="url(#wmr1x5133)"/><ellipse cx="897.9067217303999" cy="790.5053885160014" rx="22.0" ry="15.0" fill="url(#bevelr1x5133)" stroke="#ccccff" stroke-width="1" filter="url(#wmr1x5133)"/></g><rect x="449.7478033888154" y="555.700526584126" width="100.0"  height="56.0" fill="#242438" stroke="#ccccff" stroke-width="2.2" filter="url(#skr1x5133)"/><rect x="425.6703022214584" y="574.473111870885" width="152.0" height="26.0" fill="url(#bevelr1x5133)" fill-opacity=".65" stroke="#ccccff" stroke-width="1.2" filter="url(#skr1x5133)"/><polygon points="306.5,379.5 349.1,296.2 499.4,278.8 650.0,295.1 690.2,380.4 668.0,502.1 501.8,563.7 329.5,503.2" fill="url(#suitr1x5133)" stroke="#ccccff" stroke-width="2.8" filter="url(#skr1x5133) url(#metalr1x5133)"/><polygon points="307.4,381.2 350.6,295.7 499.0,276.8 650.0,293.5 691.4,380.0 668.0,505.2 498.3,566.4 330.0,504.3" fill="url(#carbonr1x5133)"/><polygon points="379.4,302.2 499.3,285.9 618.6,303.7 608.4,380.9 393.9,379.9" fill="url(#suitHir1x5133)"/><polygon points="379.3,379.0 364.8,426.9 432.1,501.9 501.6,526.5 565.8,503.3 636.1,425.5 619.7,381.4" fill="#140900" fill-opacity=".88" stroke="#ccccff" stroke-width="1.8" filter="url(#skr1x5133)"/><polygon points="380.8,411.9 477.5,410.8 485.3,440.3 388.0,440.3" fill="#ccccff" filter="url(#glowr1x5133)"/><polygon points="521.4,413.0 617.2,412.7 612.3,441.0 514.4,440.6" fill="#ccccff" filter="url(#glowr1x5133)"/><ellipse cx="430.9" cy="425.7" rx="38.4"  ry="8.2" fill="#ffffff" opacity=".88"/><ellipse cx="569.1" cy="425.7" rx="38.4"  ry="8.2" fill="#ffffff" opacity=".88"/><line x1="482.8635302762128" y1="414.57276039188724" x2="516.7030266094395" y2="412.3945324025117" stroke="#ccccff" stroke-opacity=".52" stroke-width="2"/><line x1="483.7024713981524" y1="437.29523898661137" x2="515.0480138787441" y2="438.0016338332556" stroke="#ccccff" stroke-opacity=".52" stroke-width="2"/><line x1="501.0786373952404" y1="455.7422826224938" x2="499.22500624628736" y2="483.278179293219" stroke="#ccccff" stroke-opacity=".58" stroke-width="2.2" filter="url(#skr1x5133)"/><line x1="455.55020812189207" y1="489.70714052300895" x2="452.21504429018125" y2="519.7777838320471" stroke="#ccccff" stroke-opacity=".52" stroke-width="1.5" filter="url(#skr1x5133)"/><line x1="477.26511532435194" y1="492.1519633590243" x2="477.10902969943356" y2="521.7349495062605" stroke="#ccccff" stroke-opacity=".52" stroke-width="1.5" filter="url(#skr1x5133)"/><line x1="499.14361496996133" y1="492.8516138372011" x2="501.77682079812513" y2="519.330377248209" stroke="#ccccff" stroke-opacity=".52" stroke-width="1.5" filter="url(#skr1x5133)"/><line x1="524.6017093651556" y1="493.0431844176724" x2="524.4327101912908" y2="520.870680331532" stroke="#ccccff" stroke-opacity=".52" stroke-width="1.5" filter="url(#skr1x5133)"/><line x1="545.3123189253919" y1="490.71843139240514" x2="545.83936885532" y2="518.5783447308465" stroke="#ccccff" stroke-opacity=".52" stroke-width="1.5" filter="url(#skr1x5133)"/><polygon points="433.0,502.8 568.4,503.9 555.2,557.9 447.8,555.6" fill="#242438" fill-opacity=".72" stroke="#ccccff" stroke-width="1.3" filter="url(#skr1x5133)"/><polygon points="317.0,303.6 362.6,304.2 337.0,196.5" fill="url(#bevelr1x5133)" fill-opacity=".95" stroke="#ccccff" stroke-width="1.6" filter="url(#skr1x5133) url(#glowr1x5133)"/><polygon points="397.1,305.1 441.7,303.1 420.9,209.7" fill="url(#bevelr1x5133)" fill-opacity=".95" stroke="#ccccff" stroke-width="1.6" filter="url(#skr1x5133) url(#glowr1x5133)"/><polygon points="476.3,304.2 523.9,303.4 498.9,222.5" fill="url(#bevelr1x5133)" fill-opacity=".95" stroke="#ccccff" stroke-width="1.6" filter="url(#skr1x5133) url(#glowr1x5133)"/><polygon points="556.3,304.2 603.9,303.0 581.4,210.6" fill="url(#bevelr1x5133)" fill-opacity=".95" stroke="#ccccff" stroke-width="1.6" filter="url(#skr1x5133) url(#glowr1x5133)"/><polygon points="638.4,304.0 685.7,304.0 661.9,194.4" fill="url(#bevelr1x5133)" fill-opacity=".95" stroke="#ccccff" stroke-width="1.6" filter="url(#skr1x5133) url(#glowr1x5133)"/><text x="30.0"  y="975.0" font-family="monospace" font-weight="bold" font-size="22.0" fill="rgba(255,255,255,.22)">#0001</text><text x="500.0"   y="975.0" text-anchor="middle" font-family="monospace" font-weight="bold" font-size="22.0" fill="#ccccff" fill-opacity=".48">PHANTOM RANGER</text><text x="970.0" y="975.0" text-anchor="end"    font-family="monospace" font-weight="bold" font-size="22.0" fill="#ccccff" fill-opacity=".32">MECH RANGERS</text></svg>