<svg xmlns="http://www.w3.org/2000/svg" viewBox="0 0 1000 1000" width="1000" height="1000" shape-rendering="geometricPrecision"><defs>

  <!-- Scene gradients -->
  <radialGradient id="bgr1x5294" cx="50%" cy="42%" r="72%">
    <stop offset="0%"   stop-color="#0a0a14"/>
    <stop offset="100%" stop-color="#050508"/>
  </radialGradient>
  <linearGradient id="suitr1x5294" x1="8%" y1="0%" x2="92%" y2="100%">
    <stop offset="0%"   stop-color="#4444ff" stop-opacity=".95"/>
    <stop offset="45%"  stop-color="#141428"/>
    <stop offset="100%" stop-color="#050508"/>
  </linearGradient>
  <linearGradient id="suitHir1x5294" x1="0%" y1="0%" x2="0%" y2="100%">
    <stop offset="0%"   stop-color="rgba(255,255,255,.28)"/>
    <stop offset="60%"  stop-color="rgba(255,255,255,.04)"/>
    <stop offset="100%" stop-color="rgba(255,255,255,0)"/>
  </linearGradient>
  <!-- Bevel: bright top, dark bottom for armour panels -->
  <linearGradient id="bevelr1x5294" x1="0%" y1="0%" x2="0%" y2="100%">
    <stop offset="0%"   stop-color="rgba(255,255,255,.55)"/>
    <stop offset="30%"  stop-color="#4444ff"/>
    <stop offset="70%"  stop-color="#141428"/>
    <stop offset="100%" stop-color="rgba(0,0,0,.5)"/>
  </linearGradient>

  <!-- Weapon: cold steel blade sweep -->
  <linearGradient id="blader1x5294" x1="0%" y1="0%" x2="100%" y2="0%">
    <stop offset="0%"   stop-color="#0e0e20"/>
    <stop offset="16%"  stop-color="#3e3e58"/>
    <stop offset="34%"  stop-color="#c8c8e0"/>
    <stop offset="50%"  stop-color="#f5f5ff"/>
    <stop offset="66%"  stop-color="#b8b8d0"/>
    <stop offset="84%"  stop-color="#2e2e48"/>
    <stop offset="100%" stop-color="#08080e"/>
  </linearGradient>
  <!-- Blade tip brightening -->
  <linearGradient id="bladeTipr1x5294" x1="0%" y1="100%" x2="0%" y2="0%">
    <stop offset="0%"   stop-color="rgba(255,255,255,0)"/>
    <stop offset="55%"  stop-color="rgba(255,255,255,.1)"/>
    <stop offset="100%" stop-color="rgba(255,255,255,.55)"/>
  </linearGradient>
  <!-- Gunmetal anodised — blaster body -->
  <linearGradient id="gunmetalr1x5294" x1="0%" y1="0%" x2="0%" y2="100%">
    <stop offset="0%"   stop-color="#46465e"/>
    <stop offset="18%"  stop-color="#828296"/>
    <stop offset="42%"  stop-color="#26263a"/>
    <stop offset="72%"  stop-color="#16162a"/>
    <stop offset="100%" stop-color="#0c0c18"/>
  </linearGradient>
  <!-- Brushed steel tube — barrel/rod -->
  <linearGradient id="barrelr1x5294" x1="0%" y1="0%" x2="100%" y2="0%">
    <stop offset="0%"   stop-color="#0a0a14"/>
    <stop offset="24%"  stop-color="#585875"/>
    <stop offset="50%"  stop-color="#a8a8c8"/>
    <stop offset="76%"  stop-color="#383852"/>
    <stop offset="100%" stop-color="#0a0a14"/>
  </linearGradient>
  <!-- Chrome rod — lance shaft -->
  <linearGradient id="chromer1x5294" x1="0%" y1="0%" x2="100%" y2="0%">
    <stop offset="0%"   stop-color="#0c0c18"/>
    <stop offset="20%"  stop-color="#686888"/>
    <stop offset="44%"  stop-color="#e0e0f0"/>
    <stop offset="56%"  stop-color="#c0c0d8"/>
    <stop offset="80%"  stop-color="#28283e"/>
    <stop offset="100%" stop-color="#0c0c18"/>
  </linearGradient>
  <!-- Titanium plate — shield face -->
  <linearGradient id="titaniumr1x5294" x1="0%" y1="0%" x2="100%" y2="100%">
    <stop offset="0%"   stop-color="#585878"/>
    <stop offset="28%"  stop-color="#4444ff" stop-opacity=".88"/>
    <stop offset="55%"  stop-color="#141428"/>
    <stop offset="80%"  stop-color="#181828"/>
    <stop offset="100%" stop-color="#0a0a18"/>
  </linearGradient>
  <!-- Artillery black-chrome — cannon body -->
  <linearGradient id="artilleryr1x5294" x1="0%" y1="0%" x2="0%" y2="100%">
    <stop offset="0%"   stop-color="#383850"/>
    <stop offset="14%"  stop-color="#78789a"/>
    <stop offset="36%"  stop-color="#202034"/>
    <stop offset="65%"  stop-color="#14141e"/>
    <stop offset="100%" stop-color="#0a0a12"/>
  </linearGradient>
  <!-- Energy orb — staff -->
  <radialGradient id="orbr1x5294" cx="35%" cy="35%" r="65%">
    <stop offset="0%"   stop-color="rgba(255,255,255,.9)"/>
    <stop offset="30%"  stop-color="#4444ff"/>
    <stop offset="68%"  stop-color="#141428"/>
    <stop offset="100%" stop-color="rgba(0,0,0,.6)"/>
  </radialGradient>
  <!-- Knuckle plate chrome -->
  <linearGradient id="knuckler1x5294" x1="0%" y1="0%" x2="0%" y2="100%">
    <stop offset="0%"   stop-color="#888aaa"/>
    <stop offset="32%"  stop-color="#4444ff" stop-opacity=".8"/>
    <stop offset="62%"  stop-color="#1a1a2c"/>
    <stop offset="100%" stop-color="#0a0a14"/>
  </linearGradient>

  <!-- Carbon fibre weave texture overlay -->
  <pattern id="carbonr1x5294" width="6" height="6" patternUnits="userSpaceOnUse">
    <rect width="6" height="6" fill="rgba(0,0,0,.08)"/>
    <rect x="0" y="0" width="3" height="3" fill="rgba(255,255,255,.022)"/>
    <rect x="3" y="3" width="3" height="3" fill="rgba(255,255,255,.022)"/>
    <line x1="0" y1="0" x2="3" y2="3" stroke="rgba(255,255,255,.038)" stroke-width=".5"/>
    <line x1="3" y1="0" x2="6" y2="3" stroke="rgba(0,0,0,.055)"       stroke-width=".5"/>
    <line x1="0" y1="3" x2="3" y2="6" stroke="rgba(0,0,0,.055)"       stroke-width=".5"/>
    <line x1="3" y1="3" x2="6" y2="6" stroke="rgba(255,255,255,.038)" stroke-width=".5"/>
  </pattern>

  <!-- Specular metal sheen on armour panels -->
  <filter id="metalr1x5294" x="-5%" y="-5%" width="110%" height="110%">
    <feSpecularLighting surfaceScale="4" specularConstant="1.8"
        specularExponent="42" lighting-color="#ffffff" result="spec">
      <feDistantLight elevation="52" azimuth="38"/>
    </feSpecularLighting>
    <feComposite in="spec" in2="SourceGraphic" operator="in" result="sm"/>
    <feComposite in="SourceGraphic" in2="sm" operator="arithmetic" k1="0" k2="1" k3="0.55" k4="0"/>
  </filter>

  <!-- Sharper specular for weapons — heavier glare -->
  <filter id="wmr1x5294" x="-8%" y="-8%" width="116%" height="116%">
    <feSpecularLighting surfaceScale="6" specularConstant="2.4"
        specularExponent="65" lighting-color="#ffffff" result="spec">
      <feDistantLight elevation="44" azimuth="28"/>
    </feSpecularLighting>
    <feComposite in="spec" in2="SourceGraphic" operator="in" result="sm"/>
    <feComposite in="SourceGraphic" in2="sm" operator="arithmetic" k1="0" k2="1" k3="0.78" k4="0"/>
  </filter>

  <!-- Sketch wobble -->
  <filter id="skr1x5294" x="-8%" y="-8%" width="116%" height="116%">
    <feTurbulence type="fractalNoise" baseFrequency="0.038"
        numOctaves="3" seed="73" result="noise"/>
    <feDisplacementMap in="SourceGraphic" in2="noise" scale="2.6"
        xChannelSelector="R" yChannelSelector="G" result="w"/>
    <feComposite in="w" in2="SourceGraphic" operator="atop"/>
  </filter>

  <!-- Glow: sharp accent -->
  <filter id="glowr1x5294" x="-20%" y="-20%" width="140%" height="140%">
    <feGaussianBlur stdDeviation="3.5" result="b"/>
    <feColorMatrix in="b" type="matrix"
        values="0 0 0 0 1  0 0 0 0 1  0 0 0 0 1  0 0 0 1.8 0" result="boost"/>
    <feMerge><feMergeNode in="boost"/><feMergeNode in="SourceGraphic"/></feMerge>
  </filter>

  <!-- Bloom: wide soft -->
  <filter id="bloomr1x5294" x="-40%" y="-40%" width="180%" height="180%">
    <feGaussianBlur stdDeviation="11" result="b"/>
    <feMerge><feMergeNode in="b"/><feMergeNode in="SourceGraphic"/></feMerge>
  </filter>

  </defs><rect width="1000" height="1000" fill="url(#bgr1x5294)"/><ellipse cx="500.0" cy="892.0" rx="350.0" ry="65.0" fill="rgba(0,0,0,.7)" filter="url(#bloomr1x5294)"/><ellipse cx="500.0" cy="889.0" rx="220.0" ry="34.0" fill="rgba(0,0,0,.45)"/><polygon points="400.1,663.0 490.4,663.5 480.7,877.8 386.1,878.3" fill="url(#suitr1x5294)" stroke="#4444ff" stroke-width="2.2" filter="url(#skr1x5294) url(#metalr1x5294)"/><polygon points="398.2,663.6 490.8,662.9 478.8,879.2 387.8,879.0" fill="url(#carbonr1x5294)"/><polygon points="393.6,724.4 491.7,725.1 484.6,789.3 383.7,789.1" fill="url(#bevelr1x5294)" fill-opacity=".5" stroke="#4444ff" stroke-width="1.4" filter="url(#skr1x5294)"/><polygon points="509.3,662.6 602.4,663.1 611.1,876.3 518.6,876.9" fill="url(#suitr1x5294)" stroke="#4444ff" stroke-width="2.2" filter="url(#skr1x5294) url(#metalr1x5294)"/><polygon points="512.2,661.0 599.7,663.8 611.1,875.8 520.6,877.5" fill="url(#carbonr1x5294)"/><polygon points="505.5,722.9 606.8,723.2 617.8,789.5 517.3,787.9" fill="url(#bevelr1x5294)" fill-opacity=".5" stroke="#4444ff" stroke-width="1.4" filter="url(#skr1x5294)"/><rect x="394.4" y="840.1" width="100.3" height="24.7" fill="url(#bevelr1x5294)" stroke="#4444ff" stroke-width="1" filter="url(#skr1x5294)"/><rect x="507.4"  y="837.3" width="100.3" height="24.7" fill="url(#bevelr1x5294)" stroke="#4444ff" stroke-width="1" filter="url(#skr1x5294)"/><polygon points="370.9,877.9 496.0,878.3 502.0,920.4 361.4,920.4" fill="#141428" stroke="#4444ff" stroke-width="2" filter="url(#skr1x5294)"/><polygon points="503.3,878.2 628.5,875.9 637.7,920.2 497.9,923.3" fill="#141428" stroke="#4444ff" stroke-width="2" filter="url(#skr1x5294)"/><polygon points="305.3,634.4 696.7,633.4 637.9,680.9 362.6,682.6" fill="#4444ff" fill-opacity=".52" stroke="#4444ff" stroke-width="2" filter="url(#skr1x5294)"/><rect x="465.6" y="639.3" width="72.0" height="42.0" fill="url(#bevelr1x5294)" stroke="#4444ff" stroke-width="1.4" filter="url(#glowr1x5294)"/><rect x="487.8" y="639.7" width="28.0" height="22.0" rx="1" fill="rgba(255,255,255,.48)"/><polygon points="153.0,465.6 234.7,466.3 258.1,735.1 128.3,734.4" fill="url(#suitr1x5294)" stroke="#4444ff" stroke-width="2.2" filter="url(#skr1x5294) url(#metalr1x5294)"/><polygon points="173.4,432.1 254.4,431.6 244.8,511.5 158.2,509.9" fill="url(#bevelr1x5294)" fill-opacity=".72" stroke="#4444ff" stroke-width="2.2" filter="url(#skr1x5294)"/><polygon points="159.6,622.0 244.8,622.7 240.2,659.5 166.3,659.8" fill="#4444ff" fill-opacity=".42" stroke="#4444ff" stroke-width="1" filter="url(#skr1x5294)"/><polygon points="764.7,466.0 847.9,467.2 870.5,734.6 740.3,735.0" fill="url(#suitr1x5294)" stroke="#4444ff" stroke-width="2.2" filter="url(#skr1x5294) url(#metalr1x5294)"/><polygon points="745.9,433.0 826.4,433.9 841.9,508.8 756.8,509.6" fill="url(#bevelr1x5294)" fill-opacity=".72" stroke="#4444ff" stroke-width="2.2" filter="url(#skr1x5294)"/><polygon points="757.8,621.7 840.1,623.6 833.4,661.5 759.1,660.5" fill="#4444ff" fill-opacity=".42" stroke="#4444ff" stroke-width="1" filter="url(#skr1x5294)"/><rect x="121.6"  y="698.2" width="135.3" height="85.0" rx="4" fill="url(#bevelr1x5294)" stroke="#4444ff" stroke-width="1.8" filter="url(#skr1x5294)"/><rect x="748.8"   y="700.0" width="135.3" height="85.0" rx="4" fill="url(#bevelr1x5294)" stroke="#4444ff" stroke-width="1.8" filter="url(#skr1x5294)"/><line x1="150.2" y1="702.7" x2="150.0" y2="784.5" stroke="#4444ff" stroke-opacity=".38" stroke-width="1"/><line x1="778.3" y1="700.5" x2="779.5" y2="783.5" stroke="#4444ff" stroke-opacity=".38" stroke-width="1"/><line x1="183.5" y1="701.4" x2="181.0" y2="784.6" stroke="#4444ff" stroke-opacity=".38" stroke-width="1"/><line x1="809.8" y1="700.4" x2="811.8" y2="784.3" stroke="#4444ff" stroke-opacity=".38" stroke-width="1"/><line x1="216.0" y1="703.2" x2="215.6" y2="784.9" stroke="#4444ff" stroke-opacity=".38" stroke-width="1"/><line x1="843.2" y1="700.2" x2="842.9" y2="783.2" stroke="#4444ff" stroke-opacity=".38" stroke-width="1"/><polygon points="234.7,418.9 766.4,418.5 723.2,663.9 277.1,663.3" fill="url(#suitr1x5294)" stroke="#4444ff" stroke-width="2.6" filter="url(#skr1x5294) url(#metalr1x5294)"/><polygon points="235.7,418.5 765.4,416.9 724.1,662.4 276.0,662.7" fill="url(#carbonr1x5294)"/><polygon points="368.1,418.6 631.7,416.9 610.6,516.7 388.6,515.6" fill="url(#suitHir1x5294)"/><line x1="363.1" y1="470.0" x2="638.2" y2="472.0" stroke="#4444ff" stroke-opacity=".52" stroke-width="1.3" filter="url(#skr1x5294)"/><line x1="400.9" y1="551.6" x2="599.6" y2="549.6" stroke="#4444ff" stroke-opacity=".52" stroke-width="1.3" filter="url(#skr1x5294)"/><line x1="266.6" y1="489.8" x2="320.4" y2="489.7" stroke="#4444ff" stroke-opacity=".62" stroke-width="1.8"/><line x1="681.7" y1="490.2" x2="732.2" y2="490.3" stroke="#4444ff" stroke-opacity=".62" stroke-width="1.8"/><line x1="265.3" y1="522.2" x2="318.9" y2="523.8" stroke="#4444ff" stroke-opacity=".62" stroke-width="1.8"/><line x1="681.7" y1="523.1" x2="734.1" y2="524.2" stroke="#4444ff" stroke-opacity=".62" stroke-width="1.8"/><line x1="266.2" y1="554.1" x2="320.0" y2="553.2" stroke="#4444ff" stroke-opacity=".62" stroke-width="1.8"/><line x1="678.7" y1="553.2" x2="731.5" y2="556.4" stroke="#4444ff" stroke-opacity=".62" stroke-width="1.8"/><line x1="266.3" y1="587.9" x2="318.5" y2="587.2" stroke="#4444ff" stroke-opacity=".62" stroke-width="1.8"/><line x1="681.9" y1="586.8" x2="731.7" y2="584.9" stroke="#4444ff" stroke-opacity=".62" stroke-width="1.8"/><g filter="url(#glowr1x5294)"><polygon points="482.8,453.2 513.2,505.6 499.7,505.6 516.1,568.8 486.4,517.0 498.7,514.9" fill="#4444ff" stroke="#050508" stroke-width="1.4" filter="url(#skr1x5294)"/><polygon points="482.6,451.0 511.1,507.7 500.3,505.8 518.1,567.0 488.2,516.2 500.4,514.0" fill="url(#suitHir1x5294)" opacity=".4"/></g><g><line x1="898.302720877491" y1="829.6031931933015" x2="898.826237918213" y2="111.74398868689312" stroke="url(#chromer1x5294)" stroke-width="22.0" stroke-linecap="round" filter="url(#wmr1x5294)"/><line x1="900.6127868256159" y1="810.5985072718001" x2="902.2222172748857" y2="129.72949328692627" stroke="rgba(255,255,255,.35)" stroke-width="4.0" stroke-linecap="round"/><rect x="883.3728816540539" y="621.1224710654467" width="32.0" height="18.0" fill="url(#bevelr1x5294)" stroke="#4444ff" stroke-width=".8" filter="url(#wmr1x5294)"/><rect x="881.476579986196" y="440.17267111092804" width="32.0" height="18.0" fill="url(#bevelr1x5294)" stroke="#4444ff" stroke-width=".8" filter="url(#wmr1x5294)"/><rect x="882.6524900617637" y="262.81138441860674" width="32.0" height="18.0" fill="url(#bevelr1x5294)" stroke="#4444ff" stroke-width=".8" filter="url(#wmr1x5294)"/><circle cx="896.4963128571958" cy="112.35059468718244" r="58.0" fill="rgba(0,0,0,.52)" stroke="#4444ff" stroke-width="2.2" filter="url(#wmr1x5294)"/><circle cx="898.2957109292597" cy="111.529606433399" r="46.0" fill="url(#orbr1x5294)" filter="url(#bloomr1x5294)"/><circle cx="899.2732976949402" cy="110.86024234713985" r="20.0" fill="#4444ff" filter="url(#glowr1x5294)"/><circle cx="898.3768230471388" cy="112.12084695091468" r="66.0" fill="none" stroke="#4444ff" stroke-opacity=".4" stroke-width="1.3" stroke-dasharray="4,4"/><ellipse cx="899.4398458938673" cy="111.30916940905152" rx="66.0" ry="30.0" fill="none" stroke="#4444ff" stroke-opacity=".24" stroke-width="1" stroke-dasharray="3,5" transform="rotate(60,897.8,111.4)"/></g><rect x="451.5265957941301" y="558.5858825827017" width="100.0"  height="56.0" fill="#141428" stroke="#4444ff" stroke-width="2.2" filter="url(#skr1x5294)"/><rect x="423.597005765792" y="574.0780071399175" width="152.0" height="26.0" fill="url(#bevelr1x5294)" fill-opacity=".65" stroke="#4444ff" stroke-width="1.2" filter="url(#skr1x5294)"/><polygon points="307.4,380.3 349.7,295.1 500.3,279.9 650.4,294.9 690.8,379.5 669.6,502.0 500.6,563.5 329.4,502.3" fill="url(#suitr1x5294)" stroke="#4444ff" stroke-width="2.8" filter="url(#skr1x5294) url(#metalr1x5294)"/><polygon points="307.1,379.7 349.0,295.8 500.5,277.7 651.0,296.2 692.0,381.6 668.3,504.0 499.7,563.8 329.8,504.8" fill="url(#carbonr1x5294)"/><polygon points="382.0,301.9 500.6,287.2 618.0,304.5 607.9,379.2 392.1,382.2" fill="url(#suitHir1x5294)"/><polygon points="379.5,381.2 367.4,425.3 431.9,503.7 499.1,527.6 566.4,502.5 635.2,424.9 619.9,380.7" fill="#050508" fill-opacity=".88" stroke="#4444ff" stroke-width="1.8" filter="url(#skr1x5294)"/><polygon points="382.0,410.6 475.8,411.3 484.6,438.7 389.6,439.7" fill="#4444ff" filter="url(#glowr1x5294)"/><polygon points="522.5,410.9 619.9,409.6 612.6,441.4 515.8,440.4" fill="#4444ff" filter="url(#glowr1x5294)"/><ellipse cx="430.9" cy="425.7" rx="38.4"  ry="8.2" fill="#ffffff" opacity=".88"/><ellipse cx="569.1" cy="425.7" rx="38.4"  ry="8.2" fill="#ffffff" opacity=".88"/><line x1="484.7490640014037" y1="413.81927243163807" x2="514.5828682641871" y2="412.36898620817806" stroke="#4444ff" stroke-opacity=".52" stroke-width="2"/><line x1="485.99649053845553" y1="438.1666726022959" x2="513.781978175547" y2="436.5991735531949" stroke="#4444ff" stroke-opacity=".52" stroke-width="2"/><line x1="498.7783061495982" y1="452.74995808070526" x2="501.7755866534077" y2="481.33138001319026" stroke="#4444ff" stroke-opacity=".58" stroke-width="2.2" filter="url(#skr1x5294)"/><line x1="452.6914667286724" y1="492.0355961056426" x2="454.4708423820138" y2="518.718728062138" stroke="#4444ff" stroke-opacity=".52" stroke-width="1.5" filter="url(#skr1x5294)"/><line x1="476.10990404266863" y1="490.7936474449001" x2="476.62610999852416" y2="520.1375782628544" stroke="#4444ff" stroke-opacity=".52" stroke-width="1.5" filter="url(#skr1x5294)"/><line x1="500.07461395440623" y1="492.61704265093425" x2="499.86141765136273" y2="520.5996519132517" stroke="#4444ff" stroke-opacity=".52" stroke-width="1.5" filter="url(#skr1x5294)"/><line x1="521.767242498286" y1="492.863937281724" x2="523.7909083884767" y2="521.2501080201939" stroke="#4444ff" stroke-opacity=".52" stroke-width="1.5" filter="url(#skr1x5294)"/><line x1="545.6642637801543" y1="492.490091379825" x2="546.3263068749756" y2="519.4538374809548" stroke="#4444ff" stroke-opacity=".52" stroke-width="1.5" filter="url(#skr1x5294)"/><polygon points="434.5,503.0 567.3,504.1 552.1,556.7 446.0,557.3" fill="#141428" fill-opacity=".72" stroke="#4444ff" stroke-width="1.3" filter="url(#skr1x5294)"/><path d="M388.1099572972953 328.19723904132843 Q329.3223219215497 216.8625132445246 379.99542642733087 141.5947897767648" stroke="#4444ff" stroke-width="5" fill="none" stroke-linecap="round" filter="url(#skr1x5294)"/><path d="M389.8370947507769 328.0945623988286 Q332.8133331494033 215.7247064726427 380.33283117119225 139.36769310003146" stroke="rgba(255,255,255,.25)" stroke-width="1.5" fill="none" stroke-linecap="round"/><path d="M611.9743397711218 328.9299084948376 Q667.7942010150664 217.45977074056864 620.69707449615 142.4275421959348" stroke="#4444ff" stroke-width="5" fill="none" stroke-linecap="round" filter="url(#skr1x5294)"/><path d="M611.9807773108035 326.1129025102593 Q670.2300930707157 217.9541991817765 619.5126288620382 139.45905938176438" stroke="rgba(255,255,255,.25)" stroke-width="1.5" fill="none" stroke-linecap="round"/><text x="30.0"  y="975.0" font-family="monospace" font-weight="bold" font-size="22.0" fill="rgba(255,255,255,.22)">#0001</text><text x="500.0"   y="975.0" text-anchor="middle" font-family="monospace" font-weight="bold" font-size="22.0" fill="#4444ff" fill-opacity=".48">OBSIDIAN RANGER</text><text x="970.0" y="975.0" text-anchor="end"    font-family="monospace" font-weight="bold" font-size="22.0" fill="#4444ff" fill-opacity=".32">MECH RANGERS</text></svg>