<svg xmlns="http://www.w3.org/2000/svg" viewBox="0 0 1000 1000" width="1000" height="1000" shape-rendering="geometricPrecision"><defs>

  <!-- Scene gradients -->
  <radialGradient id="bgr1x5310" cx="50%" cy="42%" r="72%">
    <stop offset="0%"   stop-color="#1e0d00"/>
    <stop offset="100%" stop-color="#140900"/>
  </radialGradient>
  <linearGradient id="suitr1x5310" x1="8%" y1="0%" x2="92%" y2="100%">
    <stop offset="0%"   stop-color="#ffcc00" stop-opacity=".95"/>
    <stop offset="45%"  stop-color="#a07000"/>
    <stop offset="100%" stop-color="#140900"/>
  </linearGradient>
  <linearGradient id="suitHir1x5310" x1="0%" y1="0%" x2="0%" y2="100%">
    <stop offset="0%"   stop-color="rgba(255,255,255,.28)"/>
    <stop offset="60%"  stop-color="rgba(255,255,255,.04)"/>
    <stop offset="100%" stop-color="rgba(255,255,255,0)"/>
  </linearGradient>
  <!-- Bevel: bright top, dark bottom for armour panels -->
  <linearGradient id="bevelr1x5310" x1="0%" y1="0%" x2="0%" y2="100%">
    <stop offset="0%"   stop-color="rgba(255,255,255,.55)"/>
    <stop offset="30%"  stop-color="#ffcc00"/>
    <stop offset="70%"  stop-color="#a07000"/>
    <stop offset="100%" stop-color="rgba(0,0,0,.5)"/>
  </linearGradient>

  <!-- Weapon: cold steel blade sweep -->
  <linearGradient id="blader1x5310" x1="0%" y1="0%" x2="100%" y2="0%">
    <stop offset="0%"   stop-color="#0e0e20"/>
    <stop offset="16%"  stop-color="#3e3e58"/>
    <stop offset="34%"  stop-color="#c8c8e0"/>
    <stop offset="50%"  stop-color="#f5f5ff"/>
    <stop offset="66%"  stop-color="#b8b8d0"/>
    <stop offset="84%"  stop-color="#2e2e48"/>
    <stop offset="100%" stop-color="#08080e"/>
  </linearGradient>
  <!-- Blade tip brightening -->
  <linearGradient id="bladeTipr1x5310" x1="0%" y1="100%" x2="0%" y2="0%">
    <stop offset="0%"   stop-color="rgba(255,255,255,0)"/>
    <stop offset="55%"  stop-color="rgba(255,255,255,.1)"/>
    <stop offset="100%" stop-color="rgba(255,255,255,.55)"/>
  </linearGradient>
  <!-- Gunmetal anodised — blaster body -->
  <linearGradient id="gunmetalr1x5310" x1="0%" y1="0%" x2="0%" y2="100%">
    <stop offset="0%"   stop-color="#46465e"/>
    <stop offset="18%"  stop-color="#828296"/>
    <stop offset="42%"  stop-color="#26263a"/>
    <stop offset="72%"  stop-color="#16162a"/>
    <stop offset="100%" stop-color="#0c0c18"/>
  </linearGradient>
  <!-- Brushed steel tube — barrel/rod -->
  <linearGradient id="barrelr1x5310" x1="0%" y1="0%" x2="100%" y2="0%">
    <stop offset="0%"   stop-color="#0a0a14"/>
    <stop offset="24%"  stop-color="#585875"/>
    <stop offset="50%"  stop-color="#a8a8c8"/>
    <stop offset="76%"  stop-color="#383852"/>
    <stop offset="100%" stop-color="#0a0a14"/>
  </linearGradient>
  <!-- Chrome rod — lance shaft -->
  <linearGradient id="chromer1x5310" x1="0%" y1="0%" x2="100%" y2="0%">
    <stop offset="0%"   stop-color="#0c0c18"/>
    <stop offset="20%"  stop-color="#686888"/>
    <stop offset="44%"  stop-color="#e0e0f0"/>
    <stop offset="56%"  stop-color="#c0c0d8"/>
    <stop offset="80%"  stop-color="#28283e"/>
    <stop offset="100%" stop-color="#0c0c18"/>
  </linearGradient>
  <!-- Titanium plate — shield face -->
  <linearGradient id="titaniumr1x5310" x1="0%" y1="0%" x2="100%" y2="100%">
    <stop offset="0%"   stop-color="#585878"/>
    <stop offset="28%"  stop-color="#ffcc00" stop-opacity=".88"/>
    <stop offset="55%"  stop-color="#a07000"/>
    <stop offset="80%"  stop-color="#181828"/>
    <stop offset="100%" stop-color="#0a0a18"/>
  </linearGradient>
  <!-- Artillery black-chrome — cannon body -->
  <linearGradient id="artilleryr1x5310" x1="0%" y1="0%" x2="0%" y2="100%">
    <stop offset="0%"   stop-color="#383850"/>
    <stop offset="14%"  stop-color="#78789a"/>
    <stop offset="36%"  stop-color="#202034"/>
    <stop offset="65%"  stop-color="#14141e"/>
    <stop offset="100%" stop-color="#0a0a12"/>
  </linearGradient>
  <!-- Energy orb — staff -->
  <radialGradient id="orbr1x5310" cx="35%" cy="35%" r="65%">
    <stop offset="0%"   stop-color="rgba(255,255,255,.9)"/>
    <stop offset="30%"  stop-color="#ffcc00"/>
    <stop offset="68%"  stop-color="#a07000"/>
    <stop offset="100%" stop-color="rgba(0,0,0,.6)"/>
  </radialGradient>
  <!-- Knuckle plate chrome -->
  <linearGradient id="knuckler1x5310" x1="0%" y1="0%" x2="0%" y2="100%">
    <stop offset="0%"   stop-color="#888aaa"/>
    <stop offset="32%"  stop-color="#ffcc00" stop-opacity=".8"/>
    <stop offset="62%"  stop-color="#1a1a2c"/>
    <stop offset="100%" stop-color="#0a0a14"/>
  </linearGradient>

  <!-- Carbon fibre weave texture overlay -->
  <pattern id="carbonr1x5310" width="6" height="6" patternUnits="userSpaceOnUse">
    <rect width="6" height="6" fill="rgba(0,0,0,.08)"/>
    <rect x="0" y="0" width="3" height="3" fill="rgba(255,255,255,.022)"/>
    <rect x="3" y="3" width="3" height="3" fill="rgba(255,255,255,.022)"/>
    <line x1="0" y1="0" x2="3" y2="3" stroke="rgba(255,255,255,.038)" stroke-width=".5"/>
    <line x1="3" y1="0" x2="6" y2="3" stroke="rgba(0,0,0,.055)"       stroke-width=".5"/>
    <line x1="0" y1="3" x2="3" y2="6" stroke="rgba(0,0,0,.055)"       stroke-width=".5"/>
    <line x1="3" y1="3" x2="6" y2="6" stroke="rgba(255,255,255,.038)" stroke-width=".5"/>
  </pattern>

  <!-- Specular metal sheen on armour panels -->
  <filter id="metalr1x5310" x="-5%" y="-5%" width="110%" height="110%">
    <feSpecularLighting surfaceScale="4" specularConstant="1.8"
        specularExponent="42" lighting-color="#ffffff" result="spec">
      <feDistantLight elevation="52" azimuth="38"/>
    </feSpecularLighting>
    <feComposite in="spec" in2="SourceGraphic" operator="in" result="sm"/>
    <feComposite in="SourceGraphic" in2="sm" operator="arithmetic" k1="0" k2="1" k3="0.55" k4="0"/>
  </filter>

  <!-- Sharper specular for weapons — heavier glare -->
  <filter id="wmr1x5310" x="-8%" y="-8%" width="116%" height="116%">
    <feSpecularLighting surfaceScale="6" specularConstant="2.4"
        specularExponent="65" lighting-color="#ffffff" result="spec">
      <feDistantLight elevation="44" azimuth="28"/>
    </feSpecularLighting>
    <feComposite in="spec" in2="SourceGraphic" operator="in" result="sm"/>
    <feComposite in="SourceGraphic" in2="sm" operator="arithmetic" k1="0" k2="1" k3="0.78" k4="0"/>
  </filter>

  <!-- Sketch wobble -->
  <filter id="skr1x5310" x="-8%" y="-8%" width="116%" height="116%">
    <feTurbulence type="fractalNoise" baseFrequency="0.038"
        numOctaves="3" seed="59" result="noise"/>
    <feDisplacementMap in="SourceGraphic" in2="noise" scale="2.6"
        xChannelSelector="R" yChannelSelector="G" result="w"/>
    <feComposite in="w" in2="SourceGraphic" operator="atop"/>
  </filter>

  <!-- Glow: sharp accent -->
  <filter id="glowr1x5310" x="-20%" y="-20%" width="140%" height="140%">
    <feGaussianBlur stdDeviation="3.5" result="b"/>
    <feColorMatrix in="b" type="matrix"
        values="0 0 0 0 1  0 0 0 0 1  0 0 0 0 1  0 0 0 1.8 0" result="boost"/>
    <feMerge><feMergeNode in="boost"/><feMergeNode in="SourceGraphic"/></feMerge>
  </filter>

  <!-- Bloom: wide soft -->
  <filter id="bloomr1x5310" x="-40%" y="-40%" width="180%" height="180%">
    <feGaussianBlur stdDeviation="11" result="b"/>
    <feMerge><feMergeNode in="b"/><feMergeNode in="SourceGraphic"/></feMerge>
  </filter>

  </defs><rect width="1000" height="1000" fill="url(#bgr1x5310)"/><line x1="500" y1="500" x2="1500.0" y2="500.0" stroke="#ffcc00" stroke-opacity=".048" stroke-width="5"/><line x1="500" y1="500" x2="1474.9" y2="722.5" stroke="#ffcc00" stroke-opacity=".048" stroke-width="5"/><line x1="500" y1="500" x2="1401.0" y2="933.9" stroke="#ffcc00" stroke-opacity=".048" stroke-width="5"/><line x1="500" y1="500" x2="1281.8" y2="1123.5" stroke="#ffcc00" stroke-opacity=".048" stroke-width="5"/><line x1="500" y1="500" x2="1123.5" y2="1281.8" stroke="#ffcc00" stroke-opacity=".048" stroke-width="5"/><line x1="500" y1="500" x2="933.9" y2="1401.0" stroke="#ffcc00" stroke-opacity=".048" stroke-width="5"/><line x1="500" y1="500" x2="722.5" y2="1474.9" stroke="#ffcc00" stroke-opacity=".048" stroke-width="5"/><line x1="500" y1="500" x2="500.0" y2="1500.0" stroke="#ffcc00" stroke-opacity=".048" stroke-width="5"/><line x1="500" y1="500" x2="277.5" y2="1474.9" stroke="#ffcc00" stroke-opacity=".048" stroke-width="5"/><line x1="500" y1="500" x2="66.1" y2="1401.0" stroke="#ffcc00" stroke-opacity=".048" stroke-width="5"/><line x1="500" y1="500" x2="-123.5" y2="1281.8" stroke="#ffcc00" stroke-opacity=".048" stroke-width="5"/><line x1="500" y1="500" x2="-281.8" y2="1123.5" stroke="#ffcc00" stroke-opacity=".048" stroke-width="5"/><line x1="500" y1="500" x2="-401.0" y2="933.9" stroke="#ffcc00" stroke-opacity=".048" stroke-width="5"/><line x1="500" y1="500" x2="-474.9" y2="722.5" stroke="#ffcc00" stroke-opacity=".048" stroke-width="5"/><line x1="500" y1="500" x2="-500.0" y2="500.0" stroke="#ffcc00" stroke-opacity=".048" stroke-width="5"/><line x1="500" y1="500" x2="-474.9" y2="277.5" stroke="#ffcc00" stroke-opacity=".048" stroke-width="5"/><line x1="500" y1="500" x2="-401.0" y2="66.1" stroke="#ffcc00" stroke-opacity=".048" stroke-width="5"/><line x1="500" y1="500" x2="-281.8" y2="-123.5" stroke="#ffcc00" stroke-opacity=".048" stroke-width="5"/><line x1="500" y1="500" x2="-123.5" y2="-281.8" stroke="#ffcc00" stroke-opacity=".048" stroke-width="5"/><line x1="500" y1="500" x2="66.1" y2="-401.0" stroke="#ffcc00" stroke-opacity=".048" stroke-width="5"/><line x1="500" y1="500" x2="277.5" y2="-474.9" stroke="#ffcc00" stroke-opacity=".048" stroke-width="5"/><line x1="500" y1="500" x2="500.0" y2="-500.0" stroke="#ffcc00" stroke-opacity=".048" stroke-width="5"/><line x1="500" y1="500" x2="722.5" y2="-474.9" stroke="#ffcc00" stroke-opacity=".048" stroke-width="5"/><line x1="500" y1="500" x2="933.9" y2="-401.0" stroke="#ffcc00" stroke-opacity=".048" stroke-width="5"/><line x1="500" y1="500" x2="1123.5" y2="-281.8" stroke="#ffcc00" stroke-opacity=".048" stroke-width="5"/><line x1="500" y1="500" x2="1281.8" y2="-123.5" stroke="#ffcc00" stroke-opacity=".048" stroke-width="5"/><line x1="500" y1="500" x2="1401.0" y2="66.1" stroke="#ffcc00" stroke-opacity=".048" stroke-width="5"/><line x1="500" y1="500" x2="1474.9" y2="277.5" stroke="#ffcc00" stroke-opacity=".048" stroke-width="5"/><ellipse cx="500.0" cy="892.0" rx="350.0" ry="65.0" fill="rgba(0,0,0,.7)" filter="url(#bloomr1x5310)"/><ellipse cx="500.0" cy="889.0" rx="220.0" ry="34.0" fill="rgba(0,0,0,.45)"/><ellipse cx="500.0" cy="520.0" rx="320.0" ry="480.0" fill="#ff6600" fill-opacity=".042" filter="url(#bloomr1x5310)"/><circle cx="364.4" cy="365.0" r="1.4" fill="#ff6600" fill-opacity="0.81" filter="url(#glowr1x5310)"/><circle cx="588.9" cy="799.0" r="0.6" fill="#ff6600" fill-opacity="0.55" filter="url(#glowr1x5310)"/><circle cx="572.6" cy="673.8" r="2.3" fill="#ff6600" fill-opacity="0.84" filter="url(#glowr1x5310)"/><circle cx="627.6" cy="303.9" r="2.3" fill="#ff6600" fill-opacity="0.75" filter="url(#glowr1x5310)"/><circle cx="494.0" cy="708.5" r="2.3" fill="#ff6600" fill-opacity="0.77" filter="url(#glowr1x5310)"/><circle cx="333.2" cy="680.5" r="3.7" fill="#ff6600" fill-opacity="0.45" filter="url(#glowr1x5310)"/><circle cx="388.1" cy="726.6" r="2.6" fill="#ff6600" fill-opacity="0.58" filter="url(#glowr1x5310)"/><circle cx="535.5" cy="423.2" r="1.8" fill="#ff6600" fill-opacity="0.68" filter="url(#glowr1x5310)"/><circle cx="345.0" cy="339.0" r="3.3" fill="#ff6600" fill-opacity="0.62" filter="url(#glowr1x5310)"/><circle cx="535.3" cy="546.7" r="2.4" fill="#ff6600" fill-opacity="0.44" filter="url(#glowr1x5310)"/><circle cx="363.0" cy="257.4" r="1.8" fill="#ff6600" fill-opacity="0.58" filter="url(#glowr1x5310)"/><circle cx="274.8" cy="238.6" r="1.9" fill="#ff6600" fill-opacity="0.73" filter="url(#glowr1x5310)"/><circle cx="350.6" cy="537.2" r="3.1" fill="#ff6600" fill-opacity="0.77" filter="url(#glowr1x5310)"/><circle cx="264.4" cy="411.2" r="1.7" fill="#ff6600" fill-opacity="0.53" filter="url(#glowr1x5310)"/><polygon points="400.6,661.3 489.5,661.3 481.9,878.1 387.8,877.5" fill="url(#suitr1x5310)" stroke="#ffcc00" stroke-width="2.2" filter="url(#skr1x5310) url(#metalr1x5310)"/><polygon points="397.1,662.4 491.1,664.2 480.6,875.8 387.9,877.1" fill="url(#carbonr1x5310)"/><polygon points="392.0,724.8 492.8,725.0 483.6,786.5 385.4,788.9" fill="url(#bevelr1x5310)" fill-opacity=".5" stroke="#ffcc00" stroke-width="1.4" filter="url(#skr1x5310)"/><polygon points="510.5,662.0 600.6,663.0 612.1,877.1 518.8,875.8" fill="url(#suitr1x5310)" stroke="#ffcc00" stroke-width="2.2" filter="url(#skr1x5310) url(#metalr1x5310)"/><polygon points="512.0,663.2 600.5,663.0 612.2,877.0 518.7,878.5" fill="url(#carbonr1x5310)"/><polygon points="507.2,722.4 607.2,722.7 614.8,787.2 515.8,788.8" fill="url(#bevelr1x5310)" fill-opacity=".5" stroke="#ffcc00" stroke-width="1.4" filter="url(#skr1x5310)"/><rect x="393.8" y="839.3" width="100.3" height="24.7" fill="url(#bevelr1x5310)" stroke="#ffcc00" stroke-width="1" filter="url(#skr1x5310)"/><rect x="505.5"  y="840.6" width="100.3" height="24.7" fill="url(#bevelr1x5310)" stroke="#ffcc00" stroke-width="1" filter="url(#skr1x5310)"/><polygon points="371.0,878.0 494.8,876.5 503.5,920.3 361.0,921.9" fill="#a07000" stroke="#ffcc00" stroke-width="2" filter="url(#skr1x5310)"/><polygon points="503.0,876.9 630.0,877.6 637.9,920.3 494.9,921.4" fill="#a07000" stroke="#ffcc00" stroke-width="2" filter="url(#skr1x5310)"/><polygon points="304.2,633.4 696.0,634.8 638.1,681.1 361.0,682.6" fill="#ffcc00" fill-opacity=".52" stroke="#ffcc00" stroke-width="2" filter="url(#skr1x5310)"/><rect x="464.2" y="638.4" width="72.0" height="42.0" fill="url(#bevelr1x5310)" stroke="#ffcc00" stroke-width="1.4" filter="url(#glowr1x5310)"/><rect x="487.4" y="640.4" width="28.0" height="22.0" rx="1" fill="rgba(255,255,255,.48)"/><polygon points="152.5,466.0 234.5,465.9 257.1,735.4 129.2,734.1" fill="url(#suitr1x5310)" stroke="#ffcc00" stroke-width="2.2" filter="url(#skr1x5310) url(#metalr1x5310)"/><polygon points="175.1,432.3 254.3,432.2 243.7,509.9 159.6,511.1" fill="url(#bevelr1x5310)" fill-opacity=".72" stroke="#ffcc00" stroke-width="2.2" filter="url(#skr1x5310)"/><polygon points="162.4,620.3 244.2,620.6 239.6,660.3 166.9,661.2" fill="#ffcc00" fill-opacity=".42" stroke="#ffcc00" stroke-width="1" filter="url(#skr1x5310)"/><polygon points="764.1,465.6 848.4,466.9 870.8,734.8 741.5,734.6" fill="url(#suitr1x5310)" stroke="#ffcc00" stroke-width="2.2" filter="url(#skr1x5310) url(#metalr1x5310)"/><polygon points="747.7,431.1 826.1,433.6 840.3,510.2 755.3,511.7" fill="url(#bevelr1x5310)" fill-opacity=".72" stroke="#ffcc00" stroke-width="2.2" filter="url(#skr1x5310)"/><polygon points="758.1,623.4 838.4,622.7 835.0,662.3 761.5,660.3" fill="#ffcc00" fill-opacity=".42" stroke="#ffcc00" stroke-width="1" filter="url(#skr1x5310)"/><rect x="119.8"  y="698.5" width="135.3" height="85.0" rx="4" fill="url(#bevelr1x5310)" stroke="#ffcc00" stroke-width="1.8" filter="url(#skr1x5310)"/><rect x="746.9"   y="698.3" width="135.3" height="85.0" rx="4" fill="url(#bevelr1x5310)" stroke="#ffcc00" stroke-width="1.8" filter="url(#skr1x5310)"/><line x1="148.5" y1="703.3" x2="149.2" y2="785.4" stroke="#ffcc00" stroke-opacity=".38" stroke-width="1"/><line x1="777.9" y1="702.4" x2="777.2" y2="782.7" stroke="#ffcc00" stroke-opacity=".38" stroke-width="1"/><line x1="183.2" y1="700.7" x2="184.2" y2="782.2" stroke="#ffcc00" stroke-opacity=".38" stroke-width="1"/><line x1="811.9" y1="702.9" x2="810.2" y2="784.3" stroke="#ffcc00" stroke-opacity=".38" stroke-width="1"/><line x1="214.4" y1="701.2" x2="216.9" y2="784.2" stroke="#ffcc00" stroke-opacity=".38" stroke-width="1"/><line x1="842.1" y1="701.9" x2="842.0" y2="784.5" stroke="#ffcc00" stroke-opacity=".38" stroke-width="1"/><polygon points="235.2,419.0 766.6,417.9 724.0,663.0 279.2,663.5" fill="url(#suitr1x5310)" stroke="#ffcc00" stroke-width="2.6" filter="url(#skr1x5310) url(#metalr1x5310)"/><polygon points="236.3,419.0 764.3,417.4 723.8,663.6 278.3,663.5" fill="url(#carbonr1x5310)"/><polygon points="365.8,418.7 630.8,419.0 610.9,514.7 387.0,516.8" fill="url(#suitHir1x5310)"/><line x1="363.9" y1="470.1" x2="638.0" y2="473.0" stroke="#ffcc00" stroke-opacity=".52" stroke-width="1.3" filter="url(#skr1x5310)"/><line x1="398.4" y1="549.5" x2="600.8" y2="550.9" stroke="#ffcc00" stroke-opacity=".52" stroke-width="1.3" filter="url(#skr1x5310)"/><line x1="265.8" y1="489.7" x2="320.5" y2="489.7" stroke="#ffcc00" stroke-opacity=".62" stroke-width="1.8"/><line x1="681.8" y1="491.6" x2="733.1" y2="490.7" stroke="#ffcc00" stroke-opacity=".62" stroke-width="1.8"/><line x1="267.7" y1="523.0" x2="319.8" y2="522.4" stroke="#ffcc00" stroke-opacity=".62" stroke-width="1.8"/><line x1="680.8" y1="522.1" x2="732.3" y2="522.4" stroke="#ffcc00" stroke-opacity=".62" stroke-width="1.8"/><line x1="265.9" y1="555.3" x2="319.2" y2="554.2" stroke="#ffcc00" stroke-opacity=".62" stroke-width="1.8"/><line x1="680.6" y1="556.4" x2="734.5" y2="554.5" stroke="#ffcc00" stroke-opacity=".62" stroke-width="1.8"/><line x1="265.9" y1="585.8" x2="319.9" y2="585.5" stroke="#ffcc00" stroke-opacity=".62" stroke-width="1.8"/><line x1="680.2" y1="587.5" x2="734.5" y2="586.2" stroke="#ffcc00" stroke-opacity=".62" stroke-width="1.8"/><g filter="url(#glowr1x5310)"><polygon points="498.5,450.9 516.7,489.1 555.3,492.1 524.2,519.2 532.4,559.2 500.2,537.0 464.4,558.9 474.0,518.2 443.3,491.0 485.9,491.5 " fill="#ffcc00" stroke="#140900" stroke-width="1.4" filter="url(#skr1x5310)"/><polygon points="498.5,450.9 516.7,489.1 555.3,492.1 524.2,519.2 532.4,559.2 500.2,537.0 464.4,558.9 474.0,518.2 443.3,491.0 485.9,491.5 " fill="url(#suitHir1x5310)" opacity=".45"/></g><g><rect x="831.1266282480769" y="419.92516586771234" width="148.0" height="82.0" rx="5" fill="url(#gunmetalr1x5310)" stroke="#ffcc00" stroke-width="2" filter="url(#wmr1x5310)"/><rect x="830.7569838849455" y="423.09903700239954" width="148.0" height="82.0" rx="5" fill="url(#carbonr1x5310)"/><rect x="838.6703504012526" y="402.0187277319841" width="90.0" height="22.0" rx="3" fill="url(#barrelr1x5310)" stroke="#ffcc00" stroke-width="1" filter="url(#wmr1x5310)"/><circle cx="878.3063733320311" cy="414.44623712850733" r="15.0" fill="#ffcc00" opacity=".8" filter="url(#glowr1x5310)"/><circle cx="876.9383698983677" cy="415.37728628199545" r="6.0" fill="rgba(255,255,255,.9)"/><rect x="945.4548201297038" y="455.3107723524794" width="78.0" height="36.0" rx="5" fill="url(#barrelr1x5310)" stroke="#ffcc00" stroke-width="1.2" filter="url(#wmr1x5310)"/><circle cx="1018.4397529757209" cy="470.14368764059617" r="18.0" fill="#ffcc00" filter="url(#glowr1x5310)" opacity=".88"/><circle cx="1021.2275923336484" cy="470.94795553982254" r="7.0" fill="#ffffff"/><rect x="875.1482319295966" y="499.6435382118448" width="44.0" height="42.0" rx="3" fill="url(#gunmetalr1x5310)" stroke="#ffcc00" stroke-width="1" filter="url(#wmr1x5310)"/><rect x="831.6277468606457" y="421.7191746343858" width="90.0" height="10.0" rx="2" fill="rgba(255,255,255,.22)"/><line x1="856.9294523077644" y1="487.6305618335493" x2="859.0596891003289" y2="519.2508468083106" stroke="#ffcc00" stroke-opacity=".5" stroke-width="1.2"/><line x1="874.5287020563707" y1="485.5149187491275" x2="874.9026316733658" y2="520.531160853058" stroke="#ffcc00" stroke-opacity=".5" stroke-width="1.2"/><line x1="888.9981967825071" y1="486.1320751213468" x2="891.3950716036" y2="518.5165568102151" stroke="#ffcc00" stroke-opacity=".5" stroke-width="1.2"/></g><rect x="449.674576088693" y="556.2799753338098" width="100.0"  height="56.0" fill="#a07000" stroke="#ffcc00" stroke-width="2.2" filter="url(#skr1x5310)"/><rect x="422.55162841361016" y="576.5308927532286" width="152.0" height="26.0" fill="url(#bevelr1x5310)" fill-opacity=".65" stroke="#ffcc00" stroke-width="1.2" filter="url(#skr1x5310)"/><polygon points="308.0,381.5 350.6,295.5 499.4,278.0 648.6,296.1 693.5,379.8 667.7,503.8 498.3,563.5 332.7,502.1" fill="url(#suitr1x5310)" stroke="#ffcc00" stroke-width="2.8" filter="url(#skr1x5310) url(#metalr1x5310)"/><polygon points="309.0,381.1 351.8,294.0 498.7,279.7 650.5,295.9 691.9,382.0 668.3,504.0 498.9,564.0 331.7,504.8" fill="url(#carbonr1x5310)"/><polygon points="379.5,301.9 500.0,285.3 617.4,303.6 607.9,379.6 392.5,380.3" fill="url(#suitHir1x5310)"/><polygon points="380.9,382.4 364.8,425.4 431.8,504.2 500.3,529.5 567.1,501.8 635.2,425.6 617.9,380.3" fill="#140900" fill-opacity=".88" stroke="#ffcc00" stroke-width="1.8" filter="url(#skr1x5310)"/><polygon points="381.7,412.5 475.8,411.4 483.5,441.3 387.9,439.0" fill="#ffcc00" filter="url(#glowr1x5310)"/><polygon points="521.6,410.3 617.4,410.5 613.0,440.8 514.4,440.9" fill="#ffcc00" filter="url(#glowr1x5310)"/><ellipse cx="430.9" cy="425.7" rx="38.4"  ry="8.2" fill="#ffffff" opacity=".88"/><ellipse cx="569.1" cy="425.7" rx="38.4"  ry="8.2" fill="#ffffff" opacity=".88"/><line x1="484.5520593995787" y1="414.9871219410561" x2="516.4793766918034" y2="413.58909021606667" stroke="#ffcc00" stroke-opacity=".52" stroke-width="2"/><line x1="483.8971056136861" y1="438.8279706976376" x2="513.7488400388881" y2="439.7849107344635" stroke="#ffcc00" stroke-opacity=".52" stroke-width="2"/><line x1="500.6912829038687" y1="453.36023555658755" x2="500.6085705574602" y2="484.29425886962565" stroke="#ffcc00" stroke-opacity=".58" stroke-width="2.2" filter="url(#skr1x5310)"/><line x1="454.2248388942145" y1="490.362733255513" x2="455.57144478753213" y2="518.7472772761248" stroke="#ffcc00" stroke-opacity=".52" stroke-width="1.5" filter="url(#skr1x5310)"/><line x1="475.6725972171314" y1="492.80770103391256" x2="475.697261871621" y2="519.1865772629156" stroke="#ffcc00" stroke-opacity=".52" stroke-width="1.5" filter="url(#skr1x5310)"/><line x1="501.30692338291556" y1="493.02545100031415" x2="499.789513866324" y2="520.1255263836123" stroke="#ffcc00" stroke-opacity=".52" stroke-width="1.5" filter="url(#skr1x5310)"/><line x1="523.8875244799628" y1="491.2360322629101" x2="522.7007707119546" y2="520.3492943041958" stroke="#ffcc00" stroke-opacity=".52" stroke-width="1.5" filter="url(#skr1x5310)"/><line x1="546.1001590378769" y1="491.7006663206964" x2="544.4961223944277" y2="520.5279123833403" stroke="#ffcc00" stroke-opacity=".52" stroke-width="1.5" filter="url(#skr1x5310)"/><polygon points="431.8,504.8 567.9,504.9 553.0,558.1 447.5,558.3" fill="#a07000" fill-opacity=".72" stroke="#ffcc00" stroke-width="1.3" filter="url(#skr1x5310)"/><path d="M472.9833372890763 309.9589343925938 C304.65976493660355 145.67944828197358 420.20851564923305 242.67115966770797 501.2987808811478 310.7305631524883" fill="#ffcc00" fill-opacity=".92" stroke="#ffcc00" stroke-width="2.2" filter="url(#skr1x5310)"/><path d="M473.5454287710413 311.00464707706124 C303.75101602593435 148.13801878280935 418.2596848615818 240.7112406237982 500.3260341557674 311.1147439904511" fill="url(#suitHir1x5310)" opacity=".28"/><path d="M528.2405079980567 309.84909122288224 C694.6603207284212 146.3946122061461 582.0326832065917 242.0197582161985 499.72353890314696 311.64052201854065" fill="#ffcc00" fill-opacity=".92" stroke="#ffcc00" stroke-width="2.2" filter="url(#skr1x5310)"/><path d="M525.3343995874003 310.5410370514728 C696.2353027333133 146.98536015609278 581.6160959218256 240.80070513300598 499.28519002432006 311.36440467359495" fill="url(#suitHir1x5310)" opacity=".28"/><text x="30.0"  y="975.0" font-family="monospace" font-weight="bold" font-size="22.0" fill="rgba(255,255,255,.22)">#0001</text><text x="500.0"   y="975.0" text-anchor="middle" font-family="monospace" font-weight="bold" font-size="22.0" fill="#ffcc00" fill-opacity=".48">NOVA RANGER</text><text x="970.0" y="975.0" text-anchor="end"    font-family="monospace" font-weight="bold" font-size="22.0" fill="#ffcc00" fill-opacity=".32">MECH RANGERS</text></svg>