<svg xmlns="http://www.w3.org/2000/svg" viewBox="0 0 1000 1000" width="1000" height="1000" shape-rendering="geometricPrecision"><defs>

  <!-- Scene gradients -->
  <radialGradient id="bgr1x5312" cx="50%" cy="42%" r="72%">
    <stop offset="0%"   stop-color="#0a1420"/>
    <stop offset="100%" stop-color="#050d14"/>
  </radialGradient>
  <linearGradient id="suitr1x5312" x1="8%" y1="0%" x2="92%" y2="100%">
    <stop offset="0%"   stop-color="#ffcc00" stop-opacity=".95"/>
    <stop offset="45%"  stop-color="#a07000"/>
    <stop offset="100%" stop-color="#050d14"/>
  </linearGradient>
  <linearGradient id="suitHir1x5312" x1="0%" y1="0%" x2="0%" y2="100%">
    <stop offset="0%"   stop-color="rgba(255,255,255,.28)"/>
    <stop offset="60%"  stop-color="rgba(255,255,255,.04)"/>
    <stop offset="100%" stop-color="rgba(255,255,255,0)"/>
  </linearGradient>
  <!-- Bevel: bright top, dark bottom for armour panels -->
  <linearGradient id="bevelr1x5312" x1="0%" y1="0%" x2="0%" y2="100%">
    <stop offset="0%"   stop-color="rgba(255,255,255,.55)"/>
    <stop offset="30%"  stop-color="#ffcc00"/>
    <stop offset="70%"  stop-color="#a07000"/>
    <stop offset="100%" stop-color="rgba(0,0,0,.5)"/>
  </linearGradient>

  <!-- Weapon: cold steel blade sweep -->
  <linearGradient id="blader1x5312" x1="0%" y1="0%" x2="100%" y2="0%">
    <stop offset="0%"   stop-color="#0e0e20"/>
    <stop offset="16%"  stop-color="#3e3e58"/>
    <stop offset="34%"  stop-color="#c8c8e0"/>
    <stop offset="50%"  stop-color="#f5f5ff"/>
    <stop offset="66%"  stop-color="#b8b8d0"/>
    <stop offset="84%"  stop-color="#2e2e48"/>
    <stop offset="100%" stop-color="#08080e"/>
  </linearGradient>
  <!-- Blade tip brightening -->
  <linearGradient id="bladeTipr1x5312" x1="0%" y1="100%" x2="0%" y2="0%">
    <stop offset="0%"   stop-color="rgba(255,255,255,0)"/>
    <stop offset="55%"  stop-color="rgba(255,255,255,.1)"/>
    <stop offset="100%" stop-color="rgba(255,255,255,.55)"/>
  </linearGradient>
  <!-- Gunmetal anodised — blaster body -->
  <linearGradient id="gunmetalr1x5312" x1="0%" y1="0%" x2="0%" y2="100%">
    <stop offset="0%"   stop-color="#46465e"/>
    <stop offset="18%"  stop-color="#828296"/>
    <stop offset="42%"  stop-color="#26263a"/>
    <stop offset="72%"  stop-color="#16162a"/>
    <stop offset="100%" stop-color="#0c0c18"/>
  </linearGradient>
  <!-- Brushed steel tube — barrel/rod -->
  <linearGradient id="barrelr1x5312" x1="0%" y1="0%" x2="100%" y2="0%">
    <stop offset="0%"   stop-color="#0a0a14"/>
    <stop offset="24%"  stop-color="#585875"/>
    <stop offset="50%"  stop-color="#a8a8c8"/>
    <stop offset="76%"  stop-color="#383852"/>
    <stop offset="100%" stop-color="#0a0a14"/>
  </linearGradient>
  <!-- Chrome rod — lance shaft -->
  <linearGradient id="chromer1x5312" x1="0%" y1="0%" x2="100%" y2="0%">
    <stop offset="0%"   stop-color="#0c0c18"/>
    <stop offset="20%"  stop-color="#686888"/>
    <stop offset="44%"  stop-color="#e0e0f0"/>
    <stop offset="56%"  stop-color="#c0c0d8"/>
    <stop offset="80%"  stop-color="#28283e"/>
    <stop offset="100%" stop-color="#0c0c18"/>
  </linearGradient>
  <!-- Titanium plate — shield face -->
  <linearGradient id="titaniumr1x5312" x1="0%" y1="0%" x2="100%" y2="100%">
    <stop offset="0%"   stop-color="#585878"/>
    <stop offset="28%"  stop-color="#ffcc00" stop-opacity=".88"/>
    <stop offset="55%"  stop-color="#a07000"/>
    <stop offset="80%"  stop-color="#181828"/>
    <stop offset="100%" stop-color="#0a0a18"/>
  </linearGradient>
  <!-- Artillery black-chrome — cannon body -->
  <linearGradient id="artilleryr1x5312" x1="0%" y1="0%" x2="0%" y2="100%">
    <stop offset="0%"   stop-color="#383850"/>
    <stop offset="14%"  stop-color="#78789a"/>
    <stop offset="36%"  stop-color="#202034"/>
    <stop offset="65%"  stop-color="#14141e"/>
    <stop offset="100%" stop-color="#0a0a12"/>
  </linearGradient>
  <!-- Energy orb — staff -->
  <radialGradient id="orbr1x5312" cx="35%" cy="35%" r="65%">
    <stop offset="0%"   stop-color="rgba(255,255,255,.9)"/>
    <stop offset="30%"  stop-color="#ffcc00"/>
    <stop offset="68%"  stop-color="#a07000"/>
    <stop offset="100%" stop-color="rgba(0,0,0,.6)"/>
  </radialGradient>
  <!-- Knuckle plate chrome -->
  <linearGradient id="knuckler1x5312" x1="0%" y1="0%" x2="0%" y2="100%">
    <stop offset="0%"   stop-color="#888aaa"/>
    <stop offset="32%"  stop-color="#ffcc00" stop-opacity=".8"/>
    <stop offset="62%"  stop-color="#1a1a2c"/>
    <stop offset="100%" stop-color="#0a0a14"/>
  </linearGradient>

  <!-- Carbon fibre weave texture overlay -->
  <pattern id="carbonr1x5312" width="6" height="6" patternUnits="userSpaceOnUse">
    <rect width="6" height="6" fill="rgba(0,0,0,.08)"/>
    <rect x="0" y="0" width="3" height="3" fill="rgba(255,255,255,.022)"/>
    <rect x="3" y="3" width="3" height="3" fill="rgba(255,255,255,.022)"/>
    <line x1="0" y1="0" x2="3" y2="3" stroke="rgba(255,255,255,.038)" stroke-width=".5"/>
    <line x1="3" y1="0" x2="6" y2="3" stroke="rgba(0,0,0,.055)"       stroke-width=".5"/>
    <line x1="0" y1="3" x2="3" y2="6" stroke="rgba(0,0,0,.055)"       stroke-width=".5"/>
    <line x1="3" y1="3" x2="6" y2="6" stroke="rgba(255,255,255,.038)" stroke-width=".5"/>
  </pattern>

  <!-- Specular metal sheen on armour panels -->
  <filter id="metalr1x5312" x="-5%" y="-5%" width="110%" height="110%">
    <feSpecularLighting surfaceScale="4" specularConstant="1.8"
        specularExponent="42" lighting-color="#ffffff" result="spec">
      <feDistantLight elevation="52" azimuth="38"/>
    </feSpecularLighting>
    <feComposite in="spec" in2="SourceGraphic" operator="in" result="sm"/>
    <feComposite in="SourceGraphic" in2="sm" operator="arithmetic" k1="0" k2="1" k3="0.55" k4="0"/>
  </filter>

  <!-- Sharper specular for weapons — heavier glare -->
  <filter id="wmr1x5312" x="-8%" y="-8%" width="116%" height="116%">
    <feSpecularLighting surfaceScale="6" specularConstant="2.4"
        specularExponent="65" lighting-color="#ffffff" result="spec">
      <feDistantLight elevation="44" azimuth="28"/>
    </feSpecularLighting>
    <feComposite in="spec" in2="SourceGraphic" operator="in" result="sm"/>
    <feComposite in="SourceGraphic" in2="sm" operator="arithmetic" k1="0" k2="1" k3="0.78" k4="0"/>
  </filter>

  <!-- Sketch wobble -->
  <filter id="skr1x5312" x="-8%" y="-8%" width="116%" height="116%">
    <feTurbulence type="fractalNoise" baseFrequency="0.038"
        numOctaves="3" seed="34" result="noise"/>
    <feDisplacementMap in="SourceGraphic" in2="noise" scale="2.6"
        xChannelSelector="R" yChannelSelector="G" result="w"/>
    <feComposite in="w" in2="SourceGraphic" operator="atop"/>
  </filter>

  <!-- Glow: sharp accent -->
  <filter id="glowr1x5312" x="-20%" y="-20%" width="140%" height="140%">
    <feGaussianBlur stdDeviation="3.5" result="b"/>
    <feColorMatrix in="b" type="matrix"
        values="0 0 0 0 1  0 0 0 0 1  0 0 0 0 1  0 0 0 1.8 0" result="boost"/>
    <feMerge><feMergeNode in="boost"/><feMergeNode in="SourceGraphic"/></feMerge>
  </filter>

  <!-- Bloom: wide soft -->
  <filter id="bloomr1x5312" x="-40%" y="-40%" width="180%" height="180%">
    <feGaussianBlur stdDeviation="11" result="b"/>
    <feMerge><feMergeNode in="b"/><feMergeNode in="SourceGraphic"/></feMerge>
  </filter>

  </defs><rect width="1000" height="1000" fill="url(#bgr1x5312)"/><polygon points="504.91278942208737,52.223329562693834 532.7537888037041,4.134338882751763 546.9347906420007,38.80847207270563" fill="#ffcc00" fill-opacity=".055" stroke="#ffcc00" stroke-opacity=".1" stroke-width="1"/><polygon points="253.3046291815117,274.61038762237877 274.29728494770825,240.01850794348866 295.6417869431898,269.9523985525593" fill="#ffcc00" fill-opacity=".055" stroke="#ffcc00" stroke-opacity=".1" stroke-width="1"/><polygon points="939.8746139789,147.9997240146622 962.7952752243727,117.30082128942013 980.7349273636937,152.14022711385041" fill="#ffcc00" fill-opacity=".055" stroke="#ffcc00" stroke-opacity=".1" stroke-width="1"/><polygon points="826.7511038994417,412.5633344473317 844.1809947583824,385.3862692443654 878.3763947831467,420.71896376553923" fill="#ffcc00" fill-opacity=".055" stroke="#ffcc00" stroke-opacity=".1" stroke-width="1"/><polygon points="33.26722837984562,340.127111482434 45.51702613290399,295.2425264734775 76.66761153191328,346.1818719562143" fill="#ffcc00" fill-opacity=".055" stroke="#ffcc00" stroke-opacity=".1" stroke-width="1"/><polygon points="549.2278593871742,52.05628554802388 568.9138726592064,-2.9652136070653796 591.6293527632952,36.521422448568046" fill="#ffcc00" fill-opacity=".055" stroke="#ffcc00" stroke-opacity=".1" stroke-width="1"/><polygon points="36.76943188998848,28.751596780493855 58.84396233409643,-9.36143434792757 61.136322108097374,31.667765164747834" fill="#ffcc00" fill-opacity=".055" stroke="#ffcc00" stroke-opacity=".1" stroke-width="1"/><polygon points="884.6421833569184,236.0810231976211 888.2131597474217,195.5154502419755 917.1808796124533,241.94135111756623" fill="#ffcc00" fill-opacity=".055" stroke="#ffcc00" stroke-opacity=".1" stroke-width="1"/><ellipse cx="500.0" cy="892.0" rx="350.0" ry="65.0" fill="rgba(0,0,0,.7)" filter="url(#bloomr1x5312)"/><ellipse cx="500.0" cy="889.0" rx="220.0" ry="34.0" fill="rgba(0,0,0,.45)"/><polygon points="400.2,663.5 489.7,661.7 479.1,877.5 386.7,877.7" fill="url(#suitr1x5312)" stroke="#ffcc00" stroke-width="2.2" filter="url(#skr1x5312) url(#metalr1x5312)"/><polygon points="398.4,662.8 489.3,661.6 480.4,878.0 385.7,876.9" fill="url(#carbonr1x5312)"/><polygon points="394.4,723.2 494.4,722.5 482.9,789.0 385.6,787.2" fill="url(#bevelr1x5312)" fill-opacity=".5" stroke="#ffcc00" stroke-width="1.4" filter="url(#skr1x5312)"/><polygon points="511.0,662.8 601.2,661.5 613.1,876.7 520.3,877.2" fill="url(#suitr1x5312)" stroke="#ffcc00" stroke-width="2.2" filter="url(#skr1x5312) url(#metalr1x5312)"/><polygon points="511.1,662.8 600.5,661.9 614.0,877.9 518.4,878.5" fill="url(#carbonr1x5312)"/><polygon points="507.8,723.7 608.7,722.0 617.9,790.0 514.4,786.6" fill="url(#bevelr1x5312)" fill-opacity=".5" stroke="#ffcc00" stroke-width="1.4" filter="url(#skr1x5312)"/><rect x="393.7" y="839.2" width="100.3" height="24.7" fill="url(#bevelr1x5312)" stroke="#ffcc00" stroke-width="1" filter="url(#skr1x5312)"/><rect x="507.6"  y="837.5" width="100.3" height="24.7" fill="url(#bevelr1x5312)" stroke="#ffcc00" stroke-width="1" filter="url(#skr1x5312)"/><polygon points="371.5,878.4 497.0,876.0 504.3,922.8 364.5,920.8" fill="#a07000" stroke="#ffcc00" stroke-width="2" filter="url(#skr1x5312)"/><polygon points="504.5,876.2 631.9,878.2 638.3,921.5 497.1,922.4" fill="#a07000" stroke="#ffcc00" stroke-width="2" filter="url(#skr1x5312)"/><polygon points="305.4,632.9 694.4,631.7 638.9,681.8 363.5,682.0" fill="#ffcc00" fill-opacity=".52" stroke="#ffcc00" stroke-width="2" filter="url(#skr1x5312)"/><rect x="465.3" y="636.4" width="72.0" height="42.0" fill="url(#bevelr1x5312)" stroke="#ffcc00" stroke-width="1.4" filter="url(#glowr1x5312)"/><rect x="487.3" y="641.4" width="28.0" height="22.0" rx="1" fill="rgba(255,255,255,.48)"/><polygon points="154.4,465.0 233.6,466.6 259.3,735.2 127.9,734.7" fill="url(#suitr1x5312)" stroke="#ffcc00" stroke-width="2.2" filter="url(#skr1x5312) url(#metalr1x5312)"/><polygon points="174.1,432.6 253.5,433.8 243.2,509.9 159.0,509.7" fill="url(#bevelr1x5312)" fill-opacity=".72" stroke="#ffcc00" stroke-width="2.2" filter="url(#skr1x5312)"/><polygon points="160.9,622.9 242.3,623.4 237.6,661.9 163.7,661.0" fill="#ffcc00" fill-opacity=".42" stroke="#ffcc00" stroke-width="1" filter="url(#skr1x5312)"/><polygon points="764.3,467.4 847.8,466.7 873.2,734.9 741.6,734.2" fill="url(#suitr1x5312)" stroke="#ffcc00" stroke-width="2.2" filter="url(#skr1x5312) url(#metalr1x5312)"/><polygon points="747.4,431.0 825.5,431.2 840.6,508.8 758.1,509.3" fill="url(#bevelr1x5312)" fill-opacity=".72" stroke="#ffcc00" stroke-width="2.2" filter="url(#skr1x5312)"/><polygon points="756.0,621.7 839.6,622.3 835.4,660.9 759.3,662.5" fill="#ffcc00" fill-opacity=".42" stroke="#ffcc00" stroke-width="1" filter="url(#skr1x5312)"/><rect x="118.6"  y="698.4" width="135.3" height="85.0" rx="4" fill="url(#bevelr1x5312)" stroke="#ffcc00" stroke-width="1.8" filter="url(#skr1x5312)"/><rect x="748.3"   y="700.8" width="135.3" height="85.0" rx="4" fill="url(#bevelr1x5312)" stroke="#ffcc00" stroke-width="1.8" filter="url(#skr1x5312)"/><line x1="148.2" y1="701.3" x2="150.2" y2="784.0" stroke="#ffcc00" stroke-opacity=".38" stroke-width="1"/><line x1="777.6" y1="702.1" x2="777.0" y2="785.1" stroke="#ffcc00" stroke-opacity=".38" stroke-width="1"/><line x1="181.2" y1="703.5" x2="182.0" y2="783.0" stroke="#ffcc00" stroke-opacity=".38" stroke-width="1"/><line x1="809.7" y1="702.1" x2="810.1" y2="783.0" stroke="#ffcc00" stroke-opacity=".38" stroke-width="1"/><line x1="216.3" y1="702.3" x2="216.3" y2="785.0" stroke="#ffcc00" stroke-opacity=".38" stroke-width="1"/><line x1="844.9" y1="702.3" x2="843.4" y2="784.8" stroke="#ffcc00" stroke-opacity=".38" stroke-width="1"/><polygon points="236.6,416.4 766.3,416.1 722.6,662.0 278.7,663.4" fill="url(#suitr1x5312)" stroke="#ffcc00" stroke-width="2.6" filter="url(#skr1x5312) url(#metalr1x5312)"/><polygon points="233.4,418.2 764.8,415.8 723.0,663.0 275.8,662.7" fill="url(#carbonr1x5312)"/><polygon points="368.0,417.0 631.6,417.2 612.9,515.7 388.8,516.7" fill="url(#suitHir1x5312)"/><line x1="361.5" y1="472.1" x2="636.8" y2="470.4" stroke="#ffcc00" stroke-opacity=".52" stroke-width="1.3" filter="url(#skr1x5312)"/><line x1="400.6" y1="548.3" x2="599.1" y2="549.2" stroke="#ffcc00" stroke-opacity=".52" stroke-width="1.3" filter="url(#skr1x5312)"/><line x1="267.3" y1="492.5" x2="318.1" y2="491.3" stroke="#ffcc00" stroke-opacity=".62" stroke-width="1.8"/><line x1="678.8" y1="490.1" x2="734.9" y2="492.8" stroke="#ffcc00" stroke-opacity=".62" stroke-width="1.8"/><line x1="265.1" y1="523.2" x2="318.1" y2="524.6" stroke="#ffcc00" stroke-opacity=".62" stroke-width="1.8"/><line x1="678.6" y1="522.8" x2="732.8" y2="522.2" stroke="#ffcc00" stroke-opacity=".62" stroke-width="1.8"/><line x1="267.5" y1="554.0" x2="318.6" y2="553.3" stroke="#ffcc00" stroke-opacity=".62" stroke-width="1.8"/><line x1="681.0" y1="554.2" x2="734.3" y2="553.9" stroke="#ffcc00" stroke-opacity=".62" stroke-width="1.8"/><line x1="266.4" y1="587.8" x2="320.4" y2="588.3" stroke="#ffcc00" stroke-opacity=".62" stroke-width="1.8"/><line x1="680.9" y1="588.0" x2="731.9" y2="586.8" stroke="#ffcc00" stroke-opacity=".62" stroke-width="1.8"/><g filter="url(#glowr1x5312)"><polygon points="481.3,453.7 513.8,506.8 499.5,506.6 516.5,569.6 488.9,516.4 500.9,515.1" fill="#ffcc00" stroke="#050d14" stroke-width="1.4" filter="url(#skr1x5312)"/><polygon points="483.3,452.8 511.9,506.4 500.6,505.1 517.4,570.4 488.9,514.7 500.3,515.9" fill="url(#suitHir1x5312)" opacity=".4"/></g><g><rect x="33.26134307593104" y="421.4239961004816" width="148.0" height="82.0" rx="5" fill="url(#gunmetalr1x5312)" stroke="#ffcc00" stroke-width="2" filter="url(#wmr1x5312)"/><rect x="34.07816323725503" y="420.2381895344704" width="148.0" height="82.0" rx="5" fill="url(#carbonr1x5312)"/><rect x="41.1222933104634" y="404.6074937379919" width="90.0" height="22.0" rx="3" fill="url(#barrelr1x5312)" stroke="#ffcc00" stroke-width="1" filter="url(#wmr1x5312)"/><circle cx="83.35239407805723" cy="414.1028986241668" r="15.0" fill="#ffcc00" opacity=".8" filter="url(#glowr1x5312)"/><circle cx="81.71190729200836" cy="415.5515191840939" r="6.0" fill="rgba(255,255,255,.9)"/><rect x="54.67122068231922" y="455.6888011040166" width="78.0" height="36.0" rx="5" fill="url(#barrelr1x5312)" stroke="#ffcc00" stroke-width="1.2" filter="url(#wmr1x5312)"/><circle cx="-18.240522753130676" cy="469.9090019315481" r="18.0" fill="#ffcc00" filter="url(#glowr1x5312)" opacity=".88"/><circle cx="-20.375214952193232" cy="471.9552265817299" r="7.0" fill="#ffffff"/><rect x="77.81275167310608" y="501.31118358206004" width="44.0" height="42.0" rx="3" fill="url(#gunmetalr1x5312)" stroke="#ffcc00" stroke-width="1" filter="url(#wmr1x5312)"/><rect x="36.2192587990686" y="423.45846484750507" width="90.0" height="10.0" rx="2" fill="rgba(255,255,255,.22)"/><line x1="61.44079582331699" y1="486.7506472355686" x2="61.118468104898895" y2="519.6522751672193" stroke="#ffcc00" stroke-opacity=".5" stroke-width="1.2"/><line x1="78.65133473271501" y1="484.88852365799244" x2="78.83376592652868" y2="518.5133520540782" stroke="#ffcc00" stroke-opacity=".5" stroke-width="1.2"/><line x1="94.06011708186936" y1="486.15900181848554" x2="92.83012942628932" y2="517.67256099917" stroke="#ffcc00" stroke-opacity=".5" stroke-width="1.2"/></g><rect x="448.29822919629515" y="557.0570408039727" width="100.0"  height="56.0" fill="#a07000" stroke="#ffcc00" stroke-width="2.2" filter="url(#skr1x5312)"/><rect x="425.46694371541963" y="575.0435962002724" width="152.0" height="26.0" fill="url(#bevelr1x5312)" fill-opacity=".65" stroke="#ffcc00" stroke-width="1.2" filter="url(#skr1x5312)"/><polygon points="308.7,379.8 350.8,295.4 500.5,277.7 649.8,296.2 693.0,380.2 670.8,505.1 499.5,564.0 329.4,503.6" fill="url(#suitr1x5312)" stroke="#ffcc00" stroke-width="2.8" filter="url(#skr1x5312) url(#metalr1x5312)"/><polygon points="306.7,381.5 350.1,294.9 500.9,277.7 648.2,296.1 692.5,379.0 667.5,503.5 499.1,564.2 332.5,503.5" fill="url(#carbonr1x5312)"/><polygon points="382.0,303.7 501.7,286.4 619.1,303.8 608.7,381.6 394.2,379.3" fill="url(#suitHir1x5312)"/><polygon points="380.7,378.8 366.9,424.6 433.6,504.9 501.0,526.8 568.3,503.1 632.7,427.4 619.3,379.6" fill="#050d14" fill-opacity=".88" stroke="#ffcc00" stroke-width="1.8" filter="url(#skr1x5312)"/><polygon points="381.3,411.0 476.7,411.2 485.6,439.7 390.4,440.8" fill="#ffcc00" filter="url(#glowr1x5312)"/><polygon points="522.2,411.4 619.3,410.3 612.0,439.0 515.5,438.9" fill="#ffcc00" filter="url(#glowr1x5312)"/><ellipse cx="430.9" cy="425.7" rx="38.4"  ry="8.2" fill="#ffffff" opacity=".88"/><ellipse cx="569.1" cy="425.7" rx="38.4"  ry="8.2" fill="#ffffff" opacity=".88"/><line x1="483.25528042787687" y1="413.8411282206885" x2="514.4780687043816" y2="414.47623454667627" stroke="#ffcc00" stroke-opacity=".52" stroke-width="2"/><line x1="484.07066010549664" y1="436.7584661898203" x2="514.5594640878402" y2="436.927641266305" stroke="#ffcc00" stroke-opacity=".52" stroke-width="2"/><line x1="500.757697502058" y1="456.17432637726887" x2="498.8647725040093" y2="482.1488043664024" stroke="#ffcc00" stroke-opacity=".58" stroke-width="2.2" filter="url(#skr1x5312)"/><line x1="452.9568146792054" y1="491.3011323221959" x2="453.5421904176288" y2="519.0225819938817" stroke="#ffcc00" stroke-opacity=".52" stroke-width="1.5" filter="url(#skr1x5312)"/><line x1="475.93086272770535" y1="490.5427234681323" x2="475.25651547595857" y2="519.8848594968207" stroke="#ffcc00" stroke-opacity=".52" stroke-width="1.5" filter="url(#skr1x5312)"/><line x1="501.04825379168614" y1="490.47359248036514" x2="499.15185851389543" y2="518.3788536215201" stroke="#ffcc00" stroke-opacity=".52" stroke-width="1.5" filter="url(#skr1x5312)"/><line x1="524.3712975642271" y1="490.7867769313044" x2="522.0112301417254" y2="519.4082774291746" stroke="#ffcc00" stroke-opacity=".52" stroke-width="1.5" filter="url(#skr1x5312)"/><line x1="546.0129986417667" y1="491.4193738345056" x2="546.6710223927349" y2="521.3840141117573" stroke="#ffcc00" stroke-opacity=".52" stroke-width="1.5" filter="url(#skr1x5312)"/><polygon points="431.4,503.7 565.9,504.8 553.5,556.6 447.7,555.8" fill="#a07000" fill-opacity=".72" stroke="#ffcc00" stroke-width="1.3" filter="url(#skr1x5312)"/><text x="30.0"  y="975.0" font-family="monospace" font-weight="bold" font-size="22.0" fill="rgba(255,255,255,.22)">#0001</text><text x="500.0"   y="975.0" text-anchor="middle" font-family="monospace" font-weight="bold" font-size="22.0" fill="#ffcc00" fill-opacity=".48">NOVA RANGER</text><text x="970.0" y="975.0" text-anchor="end"    font-family="monospace" font-weight="bold" font-size="22.0" fill="#ffcc00" fill-opacity=".32">MECH RANGERS</text></svg>