<svg xmlns="http://www.w3.org/2000/svg" viewBox="0 0 1000 1000" width="1000" height="1000" shape-rendering="geometricPrecision"><defs>

  <!-- Scene gradients -->
  <radialGradient id="bgr1x5344" cx="50%" cy="42%" r="72%">
    <stop offset="0%"   stop-color="#0e000e"/>
    <stop offset="100%" stop-color="#1e0600"/>
  </radialGradient>
  <linearGradient id="suitr1x5344" x1="8%" y1="0%" x2="92%" y2="100%">
    <stop offset="0%"   stop-color="#c0c0d0" stop-opacity=".95"/>
    <stop offset="45%"  stop-color="#2c2c3c"/>
    <stop offset="100%" stop-color="#1e0600"/>
  </linearGradient>
  <linearGradient id="suitHir1x5344" x1="0%" y1="0%" x2="0%" y2="100%">
    <stop offset="0%"   stop-color="rgba(255,255,255,.28)"/>
    <stop offset="60%"  stop-color="rgba(255,255,255,.04)"/>
    <stop offset="100%" stop-color="rgba(255,255,255,0)"/>
  </linearGradient>
  <!-- Bevel: bright top, dark bottom for armour panels -->
  <linearGradient id="bevelr1x5344" x1="0%" y1="0%" x2="0%" y2="100%">
    <stop offset="0%"   stop-color="rgba(255,255,255,.55)"/>
    <stop offset="30%"  stop-color="#c0c0d0"/>
    <stop offset="70%"  stop-color="#2c2c3c"/>
    <stop offset="100%" stop-color="rgba(0,0,0,.5)"/>
  </linearGradient>

  <!-- Weapon: cold steel blade sweep -->
  <linearGradient id="blader1x5344" x1="0%" y1="0%" x2="100%" y2="0%">
    <stop offset="0%"   stop-color="#0e0e20"/>
    <stop offset="16%"  stop-color="#3e3e58"/>
    <stop offset="34%"  stop-color="#c8c8e0"/>
    <stop offset="50%"  stop-color="#f5f5ff"/>
    <stop offset="66%"  stop-color="#b8b8d0"/>
    <stop offset="84%"  stop-color="#2e2e48"/>
    <stop offset="100%" stop-color="#08080e"/>
  </linearGradient>
  <!-- Blade tip brightening -->
  <linearGradient id="bladeTipr1x5344" x1="0%" y1="100%" x2="0%" y2="0%">
    <stop offset="0%"   stop-color="rgba(255,255,255,0)"/>
    <stop offset="55%"  stop-color="rgba(255,255,255,.1)"/>
    <stop offset="100%" stop-color="rgba(255,255,255,.55)"/>
  </linearGradient>
  <!-- Gunmetal anodised — blaster body -->
  <linearGradient id="gunmetalr1x5344" x1="0%" y1="0%" x2="0%" y2="100%">
    <stop offset="0%"   stop-color="#46465e"/>
    <stop offset="18%"  stop-color="#828296"/>
    <stop offset="42%"  stop-color="#26263a"/>
    <stop offset="72%"  stop-color="#16162a"/>
    <stop offset="100%" stop-color="#0c0c18"/>
  </linearGradient>
  <!-- Brushed steel tube — barrel/rod -->
  <linearGradient id="barrelr1x5344" x1="0%" y1="0%" x2="100%" y2="0%">
    <stop offset="0%"   stop-color="#0a0a14"/>
    <stop offset="24%"  stop-color="#585875"/>
    <stop offset="50%"  stop-color="#a8a8c8"/>
    <stop offset="76%"  stop-color="#383852"/>
    <stop offset="100%" stop-color="#0a0a14"/>
  </linearGradient>
  <!-- Chrome rod — lance shaft -->
  <linearGradient id="chromer1x5344" x1="0%" y1="0%" x2="100%" y2="0%">
    <stop offset="0%"   stop-color="#0c0c18"/>
    <stop offset="20%"  stop-color="#686888"/>
    <stop offset="44%"  stop-color="#e0e0f0"/>
    <stop offset="56%"  stop-color="#c0c0d8"/>
    <stop offset="80%"  stop-color="#28283e"/>
    <stop offset="100%" stop-color="#0c0c18"/>
  </linearGradient>
  <!-- Titanium plate — shield face -->
  <linearGradient id="titaniumr1x5344" x1="0%" y1="0%" x2="100%" y2="100%">
    <stop offset="0%"   stop-color="#585878"/>
    <stop offset="28%"  stop-color="#c0c0d0" stop-opacity=".88"/>
    <stop offset="55%"  stop-color="#2c2c3c"/>
    <stop offset="80%"  stop-color="#181828"/>
    <stop offset="100%" stop-color="#0a0a18"/>
  </linearGradient>
  <!-- Artillery black-chrome — cannon body -->
  <linearGradient id="artilleryr1x5344" x1="0%" y1="0%" x2="0%" y2="100%">
    <stop offset="0%"   stop-color="#383850"/>
    <stop offset="14%"  stop-color="#78789a"/>
    <stop offset="36%"  stop-color="#202034"/>
    <stop offset="65%"  stop-color="#14141e"/>
    <stop offset="100%" stop-color="#0a0a12"/>
  </linearGradient>
  <!-- Energy orb — staff -->
  <radialGradient id="orbr1x5344" cx="35%" cy="35%" r="65%">
    <stop offset="0%"   stop-color="rgba(255,255,255,.9)"/>
    <stop offset="30%"  stop-color="#c0c0d0"/>
    <stop offset="68%"  stop-color="#2c2c3c"/>
    <stop offset="100%" stop-color="rgba(0,0,0,.6)"/>
  </radialGradient>
  <!-- Knuckle plate chrome -->
  <linearGradient id="knuckler1x5344" x1="0%" y1="0%" x2="0%" y2="100%">
    <stop offset="0%"   stop-color="#888aaa"/>
    <stop offset="32%"  stop-color="#c0c0d0" stop-opacity=".8"/>
    <stop offset="62%"  stop-color="#1a1a2c"/>
    <stop offset="100%" stop-color="#0a0a14"/>
  </linearGradient>

  <!-- Carbon fibre weave texture overlay -->
  <pattern id="carbonr1x5344" width="6" height="6" patternUnits="userSpaceOnUse">
    <rect width="6" height="6" fill="rgba(0,0,0,.08)"/>
    <rect x="0" y="0" width="3" height="3" fill="rgba(255,255,255,.022)"/>
    <rect x="3" y="3" width="3" height="3" fill="rgba(255,255,255,.022)"/>
    <line x1="0" y1="0" x2="3" y2="3" stroke="rgba(255,255,255,.038)" stroke-width=".5"/>
    <line x1="3" y1="0" x2="6" y2="3" stroke="rgba(0,0,0,.055)"       stroke-width=".5"/>
    <line x1="0" y1="3" x2="3" y2="6" stroke="rgba(0,0,0,.055)"       stroke-width=".5"/>
    <line x1="3" y1="3" x2="6" y2="6" stroke="rgba(255,255,255,.038)" stroke-width=".5"/>
  </pattern>

  <!-- Specular metal sheen on armour panels -->
  <filter id="metalr1x5344" x="-5%" y="-5%" width="110%" height="110%">
    <feSpecularLighting surfaceScale="4" specularConstant="1.8"
        specularExponent="42" lighting-color="#ffffff" result="spec">
      <feDistantLight elevation="52" azimuth="38"/>
    </feSpecularLighting>
    <feComposite in="spec" in2="SourceGraphic" operator="in" result="sm"/>
    <feComposite in="SourceGraphic" in2="sm" operator="arithmetic" k1="0" k2="1" k3="0.55" k4="0"/>
  </filter>

  <!-- Sharper specular for weapons — heavier glare -->
  <filter id="wmr1x5344" x="-8%" y="-8%" width="116%" height="116%">
    <feSpecularLighting surfaceScale="6" specularConstant="2.4"
        specularExponent="65" lighting-color="#ffffff" result="spec">
      <feDistantLight elevation="44" azimuth="28"/>
    </feSpecularLighting>
    <feComposite in="spec" in2="SourceGraphic" operator="in" result="sm"/>
    <feComposite in="SourceGraphic" in2="sm" operator="arithmetic" k1="0" k2="1" k3="0.78" k4="0"/>
  </filter>

  <!-- Sketch wobble -->
  <filter id="skr1x5344" x="-8%" y="-8%" width="116%" height="116%">
    <feTurbulence type="fractalNoise" baseFrequency="0.038"
        numOctaves="3" seed="29" result="noise"/>
    <feDisplacementMap in="SourceGraphic" in2="noise" scale="2.6"
        xChannelSelector="R" yChannelSelector="G" result="w"/>
    <feComposite in="w" in2="SourceGraphic" operator="atop"/>
  </filter>

  <!-- Glow: sharp accent -->
  <filter id="glowr1x5344" x="-20%" y="-20%" width="140%" height="140%">
    <feGaussianBlur stdDeviation="3.5" result="b"/>
    <feColorMatrix in="b" type="matrix"
        values="0 0 0 0 1  0 0 0 0 1  0 0 0 0 1  0 0 0 1.8 0" result="boost"/>
    <feMerge><feMergeNode in="boost"/><feMergeNode in="SourceGraphic"/></feMerge>
  </filter>

  <!-- Bloom: wide soft -->
  <filter id="bloomr1x5344" x="-40%" y="-40%" width="180%" height="180%">
    <feGaussianBlur stdDeviation="11" result="b"/>
    <feMerge><feMergeNode in="b"/><feMergeNode in="SourceGraphic"/></feMerge>
  </filter>

  </defs><rect width="1000" height="1000" fill="url(#bgr1x5344)"/><ellipse cx="500.0" cy="1000" rx="850.0" ry="350.0" fill="#ff4500" fill-opacity=".11" filter="url(#bloomr1x5344)"/><ellipse cx="500.0" cy="892.0" rx="350.0" ry="65.0" fill="rgba(0,0,0,.7)" filter="url(#bloomr1x5344)"/><ellipse cx="500.0" cy="889.0" rx="220.0" ry="34.0" fill="rgba(0,0,0,.45)"/><polygon points="399.9,663.8 488.4,663.4 479.4,879.2 387.5,878.8" fill="url(#suitr1x5344)" stroke="#c0c0d0" stroke-width="2.2" filter="url(#skr1x5344) url(#metalr1x5344)"/><polygon points="399.2,662.2 488.4,663.1 482.2,878.1 388.4,876.9" fill="url(#carbonr1x5344)"/><polygon points="394.4,722.6 491.6,724.6 482.4,786.7 385.5,789.1" fill="url(#bevelr1x5344)" fill-opacity=".5" stroke="#c0c0d0" stroke-width="1.4" filter="url(#skr1x5344)"/><polygon points="511.1,661.0 602.7,661.6 611.2,878.6 519.1,875.9" fill="url(#suitr1x5344)" stroke="#c0c0d0" stroke-width="2.2" filter="url(#skr1x5344) url(#metalr1x5344)"/><polygon points="512.3,663.1 600.2,661.6 611.9,877.7 518.6,876.2" fill="url(#carbonr1x5344)"/><polygon points="507.3,724.7 607.4,725.2 614.9,786.8 514.3,787.5" fill="url(#bevelr1x5344)" fill-opacity=".5" stroke="#c0c0d0" stroke-width="1.4" filter="url(#skr1x5344)"/><rect x="393.6" y="840.0" width="100.3" height="24.7" fill="url(#bevelr1x5344)" stroke="#c0c0d0" stroke-width="1" filter="url(#skr1x5344)"/><rect x="505.5"  y="839.0" width="100.3" height="24.7" fill="url(#bevelr1x5344)" stroke="#c0c0d0" stroke-width="1" filter="url(#skr1x5344)"/><polygon points="369.3,876.6 494.7,876.5 504.5,920.7 362.6,921.3" fill="#2c2c3c" stroke="#c0c0d0" stroke-width="2" filter="url(#skr1x5344)"/><polygon points="503.2,878.0 630.8,876.0 637.8,921.1 495.2,921.2" fill="#2c2c3c" stroke="#c0c0d0" stroke-width="2" filter="url(#skr1x5344)"/><polygon points="304.3,633.0 697.2,633.6 636.1,683.0 361.0,683.0" fill="#c0c0d0" fill-opacity=".52" stroke="#c0c0d0" stroke-width="2" filter="url(#skr1x5344)"/><rect x="465.3" y="637.1" width="72.0" height="42.0" fill="url(#bevelr1x5344)" stroke="#c0c0d0" stroke-width="1.4" filter="url(#glowr1x5344)"/><rect x="487.6" y="639.3" width="28.0" height="22.0" rx="1" fill="rgba(255,255,255,.48)"/><polygon points="153.6,465.8 233.7,466.9 256.6,736.1 127.9,736.6" fill="url(#suitr1x5344)" stroke="#c0c0d0" stroke-width="2.2" filter="url(#skr1x5344) url(#metalr1x5344)"/><polygon points="173.6,432.8 253.2,433.7 244.5,509.4 159.1,509.0" fill="url(#bevelr1x5344)" fill-opacity=".72" stroke="#c0c0d0" stroke-width="2.2" filter="url(#skr1x5344)"/><polygon points="161.9,620.6 241.8,621.0 240.4,662.6 165.5,661.0" fill="#c0c0d0" fill-opacity=".42" stroke="#c0c0d0" stroke-width="1" filter="url(#skr1x5344)"/><polygon points="764.1,466.7 846.2,465.0 872.4,734.0 741.0,734.9" fill="url(#suitr1x5344)" stroke="#c0c0d0" stroke-width="2.2" filter="url(#skr1x5344) url(#metalr1x5344)"/><polygon points="745.7,432.3 826.0,432.9 841.5,512.1 755.1,509.8" fill="url(#bevelr1x5344)" fill-opacity=".72" stroke="#c0c0d0" stroke-width="2.2" filter="url(#skr1x5344)"/><polygon points="755.4,622.9 840.5,620.6 834.5,661.8 760.1,661.8" fill="#c0c0d0" fill-opacity=".42" stroke="#c0c0d0" stroke-width="1" filter="url(#skr1x5344)"/><rect x="118.8"  y="698.9" width="135.3" height="85.0" rx="4" fill="url(#bevelr1x5344)" stroke="#c0c0d0" stroke-width="1.8" filter="url(#skr1x5344)"/><rect x="750.3"   y="701.4" width="135.3" height="85.0" rx="4" fill="url(#bevelr1x5344)" stroke="#c0c0d0" stroke-width="1.8" filter="url(#skr1x5344)"/><line x1="150.7" y1="701.6" x2="149.7" y2="782.8" stroke="#c0c0d0" stroke-opacity=".38" stroke-width="1"/><line x1="779.7" y1="701.9" x2="778.7" y2="785.6" stroke="#c0c0d0" stroke-opacity=".38" stroke-width="1"/><line x1="180.9" y1="701.7" x2="183.8" y2="784.8" stroke="#c0c0d0" stroke-opacity=".38" stroke-width="1"/><line x1="810.6" y1="700.2" x2="810.2" y2="783.4" stroke="#c0c0d0" stroke-opacity=".38" stroke-width="1"/><line x1="215.1" y1="701.5" x2="213.7" y2="783.2" stroke="#c0c0d0" stroke-opacity=".38" stroke-width="1"/><line x1="842.6" y1="701.2" x2="844.0" y2="784.4" stroke="#c0c0d0" stroke-opacity=".38" stroke-width="1"/><polygon points="235.9,415.9 764.3,416.3 724.3,662.2 277.8,663.0" fill="url(#suitr1x5344)" stroke="#c0c0d0" stroke-width="2.6" filter="url(#skr1x5344) url(#metalr1x5344)"/><polygon points="234.5,417.0 763.8,418.7 721.2,660.8 277.8,662.3" fill="url(#carbonr1x5344)"/><polygon points="365.8,417.0 631.4,419.2 609.6,515.6 387.5,515.2" fill="url(#suitHir1x5344)"/><line x1="363.7" y1="470.3" x2="636.9" y2="471.1" stroke="#c0c0d0" stroke-opacity=".52" stroke-width="1.3" filter="url(#skr1x5344)"/><line x1="398.4" y1="548.1" x2="602.4" y2="550.4" stroke="#c0c0d0" stroke-opacity=".52" stroke-width="1.3" filter="url(#skr1x5344)"/><line x1="265.5" y1="489.6" x2="320.9" y2="489.4" stroke="#c0c0d0" stroke-opacity=".62" stroke-width="1.8"/><line x1="681.7" y1="492.4" x2="733.2" y2="490.2" stroke="#c0c0d0" stroke-opacity=".62" stroke-width="1.8"/><line x1="265.3" y1="523.5" x2="320.2" y2="522.2" stroke="#c0c0d0" stroke-opacity=".62" stroke-width="1.8"/><line x1="681.9" y1="523.1" x2="734.0" y2="523.0" stroke="#c0c0d0" stroke-opacity=".62" stroke-width="1.8"/><line x1="265.2" y1="554.4" x2="318.3" y2="554.9" stroke="#c0c0d0" stroke-opacity=".62" stroke-width="1.8"/><line x1="680.7" y1="554.5" x2="733.6" y2="554.6" stroke="#c0c0d0" stroke-opacity=".62" stroke-width="1.8"/><line x1="268.0" y1="585.4" x2="320.2" y2="585.1" stroke="#c0c0d0" stroke-opacity=".62" stroke-width="1.8"/><line x1="680.8" y1="586.0" x2="734.8" y2="586.2" stroke="#c0c0d0" stroke-opacity=".62" stroke-width="1.8"/><g filter="url(#glowr1x5344)"><polygon points="499.1,453.0 516.7,489.6 555.0,491.0 525.4,520.2 533.7,556.1 501.3,537.6 467.2,556.1 477.5,519.1 443.6,493.6 484.8,490.4 " fill="#c0c0d0" stroke="#1e0600" stroke-width="1.4" filter="url(#skr1x5344)"/><polygon points="499.1,453.0 516.7,489.6 555.0,491.0 525.4,520.2 533.7,556.1 501.3,537.6 467.2,556.1 477.5,519.1 443.6,493.6 484.8,490.4 " fill="url(#suitHir1x5344)" opacity=".45"/></g><g><polygon points="30.9,294.5 170.7,295.0 172.3,591.0 101.0,725.6 30.9,590.5" fill="url(#titaniumr1x5344)" stroke="#c0c0d0" stroke-width="2.6" filter="url(#wmr1x5344)"/><polygon points="30.8,292.9 171.0,294.3 173.3,591.7 102.0,727.2 32.3,591.0" fill="url(#carbonr1x5344)"/><polygon points="62.6,361.1 139.0,360.1 138.7,542.1 101.5,630.9 64.2,543.1" fill="#c0c0d0" fill-opacity=".28" stroke="#c0c0d0" stroke-width="1.5"/><line x1="51.86353803578761" y1="431.3037527793087" x2="155.45298025043678" y2="431.0702724566683" stroke="#c0c0d0" stroke-opacity=".65" stroke-width="1.3"/><line x1="101.0342243889719" y1="331.0686784768477" x2="102.36260327141729" y2="590.7976661652326" stroke="#c0c0d0" stroke-opacity=".4" stroke-width="1"/><line x1="35.18552579520267" y1="298.0198607806116" x2="168.95023749623445" y2="297.3113470642827" stroke="rgba(255,255,255,.5)" stroke-width="2"/><circle cx="101.48002569753673" cy="432.70784656489263" r="18.0" fill="url(#bevelr1x5344)" stroke="#c0c0d0" stroke-width="1.2" filter="url(#wmr1x5344)"/></g><rect x="448.5065417398699" y="557.1523570927791" width="100.0"  height="56.0" fill="#2c2c3c" stroke="#c0c0d0" stroke-width="2.2" filter="url(#skr1x5344)"/><rect x="425.7185469230637" y="576.6741947738454" width="152.0" height="26.0" fill="url(#bevelr1x5344)" fill-opacity=".65" stroke="#c0c0d0" stroke-width="1.2" filter="url(#skr1x5344)"/><polygon points="308.8,380.3 349.7,295.1 500.0,277.1 650.3,296.0 693.7,382.3 668.3,502.8 501.1,566.6 330.5,504.0" fill="url(#suitr1x5344)" stroke="#c0c0d0" stroke-width="2.8" filter="url(#skr1x5344) url(#metalr1x5344)"/><polygon points="308.6,382.2 351.1,294.3 498.7,277.6 648.5,295.8 693.6,380.6 668.2,502.7 499.2,564.8 329.5,504.3" fill="url(#carbonr1x5344)"/><polygon points="379.4,301.7 499.6,288.1 620.0,304.5 609.3,382.2 391.5,382.1" fill="url(#suitHir1x5344)"/><polygon points="379.7,379.2 365.6,425.9 433.7,503.5 501.2,528.5 567.4,503.1 632.6,426.5 617.7,380.8" fill="#1e0600" fill-opacity=".88" stroke="#c0c0d0" stroke-width="1.8" filter="url(#skr1x5344)"/><polygon points="380.6,410.2 477.3,411.1 484.7,441.1 387.3,440.4" fill="#c0c0d0" filter="url(#glowr1x5344)"/><polygon points="524.3,410.8 617.8,411.6 611.5,441.6 514.0,440.9" fill="#c0c0d0" filter="url(#glowr1x5344)"/><ellipse cx="430.9" cy="425.7" rx="38.4"  ry="8.2" fill="#ffffff" opacity=".88"/><ellipse cx="569.1" cy="425.7" rx="38.4"  ry="8.2" fill="#ffffff" opacity=".88"/><line x1="485.1498964137025" y1="414.836765005812" x2="514.8525913477316" y2="414.67390859602017" stroke="#c0c0d0" stroke-opacity=".52" stroke-width="2"/><line x1="484.19923354895786" y1="436.7988811796531" x2="515.4103653574736" y2="436.4907066701911" stroke="#c0c0d0" stroke-opacity=".52" stroke-width="2"/><line x1="500.3495239716955" y1="453.7378306318074" x2="498.93033857280386" y2="481.33923645401376" stroke="#c0c0d0" stroke-opacity=".58" stroke-width="2.2" filter="url(#skr1x5344)"/><line x1="452.34357284184546" y1="489.9554541194811" x2="453.65852495728063" y2="521.0378660722636" stroke="#c0c0d0" stroke-opacity=".52" stroke-width="1.5" filter="url(#skr1x5344)"/><line x1="476.3043771814927" y1="490.92925008060405" x2="476.3961669337377" y2="520.6980604412034" stroke="#c0c0d0" stroke-opacity=".52" stroke-width="1.5" filter="url(#skr1x5344)"/><line x1="501.037069882825" y1="489.63333235867316" x2="500.7726058442146" y2="518.252342007216" stroke="#c0c0d0" stroke-opacity=".52" stroke-width="1.5" filter="url(#skr1x5344)"/><line x1="521.2744884109683" y1="490.9685543140396" x2="523.0374276567809" y2="518.4318811091595" stroke="#c0c0d0" stroke-opacity=".52" stroke-width="1.5" filter="url(#skr1x5344)"/><line x1="546.620801587049" y1="489.71701335553075" x2="545.6286003470608" y2="519.6485306296497" stroke="#c0c0d0" stroke-opacity=".52" stroke-width="1.5" filter="url(#skr1x5344)"/><polygon points="432.7,502.3 566.5,504.2 552.7,557.6 445.8,555.2" fill="#2c2c3c" fill-opacity=".72" stroke="#c0c0d0" stroke-width="1.3" filter="url(#skr1x5344)"/><text x="30.0"  y="975.0" font-family="monospace" font-weight="bold" font-size="22.0" fill="rgba(255,255,255,.22)">#0001</text><text x="500.0"   y="975.0" text-anchor="middle" font-family="monospace" font-weight="bold" font-size="22.0" fill="#c0c0d0" fill-opacity=".48">CHROME RANGER</text><text x="970.0" y="975.0" text-anchor="end"    font-family="monospace" font-weight="bold" font-size="22.0" fill="#c0c0d0" fill-opacity=".32">MECH RANGERS</text></svg>