<svg xmlns="http://www.w3.org/2000/svg" viewBox="0 0 1000 1000" width="1000" height="1000" shape-rendering="geometricPrecision"><defs>

  <!-- Scene gradients -->
  <radialGradient id="bgr1x5377" cx="50%" cy="42%" r="72%">
    <stop offset="0%"   stop-color="#001422"/>
    <stop offset="100%" stop-color="#000a14"/>
  </radialGradient>
  <linearGradient id="suitr1x5377" x1="8%" y1="0%" x2="92%" y2="100%">
    <stop offset="0%"   stop-color="#2060ff" stop-opacity=".95"/>
    <stop offset="45%"  stop-color="#003ccc"/>
    <stop offset="100%" stop-color="#000a14"/>
  </linearGradient>
  <linearGradient id="suitHir1x5377" x1="0%" y1="0%" x2="0%" y2="100%">
    <stop offset="0%"   stop-color="rgba(255,255,255,.28)"/>
    <stop offset="60%"  stop-color="rgba(255,255,255,.04)"/>
    <stop offset="100%" stop-color="rgba(255,255,255,0)"/>
  </linearGradient>
  <!-- Bevel: bright top, dark bottom for armour panels -->
  <linearGradient id="bevelr1x5377" x1="0%" y1="0%" x2="0%" y2="100%">
    <stop offset="0%"   stop-color="rgba(255,255,255,.55)"/>
    <stop offset="30%"  stop-color="#2060ff"/>
    <stop offset="70%"  stop-color="#003ccc"/>
    <stop offset="100%" stop-color="rgba(0,0,0,.5)"/>
  </linearGradient>

  <!-- Weapon: cold steel blade sweep -->
  <linearGradient id="blader1x5377" x1="0%" y1="0%" x2="100%" y2="0%">
    <stop offset="0%"   stop-color="#0e0e20"/>
    <stop offset="16%"  stop-color="#3e3e58"/>
    <stop offset="34%"  stop-color="#c8c8e0"/>
    <stop offset="50%"  stop-color="#f5f5ff"/>
    <stop offset="66%"  stop-color="#b8b8d0"/>
    <stop offset="84%"  stop-color="#2e2e48"/>
    <stop offset="100%" stop-color="#08080e"/>
  </linearGradient>
  <!-- Blade tip brightening -->
  <linearGradient id="bladeTipr1x5377" x1="0%" y1="100%" x2="0%" y2="0%">
    <stop offset="0%"   stop-color="rgba(255,255,255,0)"/>
    <stop offset="55%"  stop-color="rgba(255,255,255,.1)"/>
    <stop offset="100%" stop-color="rgba(255,255,255,.55)"/>
  </linearGradient>
  <!-- Gunmetal anodised — blaster body -->
  <linearGradient id="gunmetalr1x5377" x1="0%" y1="0%" x2="0%" y2="100%">
    <stop offset="0%"   stop-color="#46465e"/>
    <stop offset="18%"  stop-color="#828296"/>
    <stop offset="42%"  stop-color="#26263a"/>
    <stop offset="72%"  stop-color="#16162a"/>
    <stop offset="100%" stop-color="#0c0c18"/>
  </linearGradient>
  <!-- Brushed steel tube — barrel/rod -->
  <linearGradient id="barrelr1x5377" x1="0%" y1="0%" x2="100%" y2="0%">
    <stop offset="0%"   stop-color="#0a0a14"/>
    <stop offset="24%"  stop-color="#585875"/>
    <stop offset="50%"  stop-color="#a8a8c8"/>
    <stop offset="76%"  stop-color="#383852"/>
    <stop offset="100%" stop-color="#0a0a14"/>
  </linearGradient>
  <!-- Chrome rod — lance shaft -->
  <linearGradient id="chromer1x5377" x1="0%" y1="0%" x2="100%" y2="0%">
    <stop offset="0%"   stop-color="#0c0c18"/>
    <stop offset="20%"  stop-color="#686888"/>
    <stop offset="44%"  stop-color="#e0e0f0"/>
    <stop offset="56%"  stop-color="#c0c0d8"/>
    <stop offset="80%"  stop-color="#28283e"/>
    <stop offset="100%" stop-color="#0c0c18"/>
  </linearGradient>
  <!-- Titanium plate — shield face -->
  <linearGradient id="titaniumr1x5377" x1="0%" y1="0%" x2="100%" y2="100%">
    <stop offset="0%"   stop-color="#585878"/>
    <stop offset="28%"  stop-color="#2060ff" stop-opacity=".88"/>
    <stop offset="55%"  stop-color="#003ccc"/>
    <stop offset="80%"  stop-color="#181828"/>
    <stop offset="100%" stop-color="#0a0a18"/>
  </linearGradient>
  <!-- Artillery black-chrome — cannon body -->
  <linearGradient id="artilleryr1x5377" x1="0%" y1="0%" x2="0%" y2="100%">
    <stop offset="0%"   stop-color="#383850"/>
    <stop offset="14%"  stop-color="#78789a"/>
    <stop offset="36%"  stop-color="#202034"/>
    <stop offset="65%"  stop-color="#14141e"/>
    <stop offset="100%" stop-color="#0a0a12"/>
  </linearGradient>
  <!-- Energy orb — staff -->
  <radialGradient id="orbr1x5377" cx="35%" cy="35%" r="65%">
    <stop offset="0%"   stop-color="rgba(255,255,255,.9)"/>
    <stop offset="30%"  stop-color="#2060ff"/>
    <stop offset="68%"  stop-color="#003ccc"/>
    <stop offset="100%" stop-color="rgba(0,0,0,.6)"/>
  </radialGradient>
  <!-- Knuckle plate chrome -->
  <linearGradient id="knuckler1x5377" x1="0%" y1="0%" x2="0%" y2="100%">
    <stop offset="0%"   stop-color="#888aaa"/>
    <stop offset="32%"  stop-color="#2060ff" stop-opacity=".8"/>
    <stop offset="62%"  stop-color="#1a1a2c"/>
    <stop offset="100%" stop-color="#0a0a14"/>
  </linearGradient>

  <!-- Carbon fibre weave texture overlay -->
  <pattern id="carbonr1x5377" width="6" height="6" patternUnits="userSpaceOnUse">
    <rect width="6" height="6" fill="rgba(0,0,0,.08)"/>
    <rect x="0" y="0" width="3" height="3" fill="rgba(255,255,255,.022)"/>
    <rect x="3" y="3" width="3" height="3" fill="rgba(255,255,255,.022)"/>
    <line x1="0" y1="0" x2="3" y2="3" stroke="rgba(255,255,255,.038)" stroke-width=".5"/>
    <line x1="3" y1="0" x2="6" y2="3" stroke="rgba(0,0,0,.055)"       stroke-width=".5"/>
    <line x1="0" y1="3" x2="3" y2="6" stroke="rgba(0,0,0,.055)"       stroke-width=".5"/>
    <line x1="3" y1="3" x2="6" y2="6" stroke="rgba(255,255,255,.038)" stroke-width=".5"/>
  </pattern>

  <!-- Specular metal sheen on armour panels -->
  <filter id="metalr1x5377" x="-5%" y="-5%" width="110%" height="110%">
    <feSpecularLighting surfaceScale="4" specularConstant="1.8"
        specularExponent="42" lighting-color="#ffffff" result="spec">
      <feDistantLight elevation="52" azimuth="38"/>
    </feSpecularLighting>
    <feComposite in="spec" in2="SourceGraphic" operator="in" result="sm"/>
    <feComposite in="SourceGraphic" in2="sm" operator="arithmetic" k1="0" k2="1" k3="0.55" k4="0"/>
  </filter>

  <!-- Sharper specular for weapons — heavier glare -->
  <filter id="wmr1x5377" x="-8%" y="-8%" width="116%" height="116%">
    <feSpecularLighting surfaceScale="6" specularConstant="2.4"
        specularExponent="65" lighting-color="#ffffff" result="spec">
      <feDistantLight elevation="44" azimuth="28"/>
    </feSpecularLighting>
    <feComposite in="spec" in2="SourceGraphic" operator="in" result="sm"/>
    <feComposite in="SourceGraphic" in2="sm" operator="arithmetic" k1="0" k2="1" k3="0.78" k4="0"/>
  </filter>

  <!-- Sketch wobble -->
  <filter id="skr1x5377" x="-8%" y="-8%" width="116%" height="116%">
    <feTurbulence type="fractalNoise" baseFrequency="0.038"
        numOctaves="3" seed="89" result="noise"/>
    <feDisplacementMap in="SourceGraphic" in2="noise" scale="2.6"
        xChannelSelector="R" yChannelSelector="G" result="w"/>
    <feComposite in="w" in2="SourceGraphic" operator="atop"/>
  </filter>

  <!-- Glow: sharp accent -->
  <filter id="glowr1x5377" x="-20%" y="-20%" width="140%" height="140%">
    <feGaussianBlur stdDeviation="3.5" result="b"/>
    <feColorMatrix in="b" type="matrix"
        values="0 0 0 0 1  0 0 0 0 1  0 0 0 0 1  0 0 0 1.8 0" result="boost"/>
    <feMerge><feMergeNode in="boost"/><feMergeNode in="SourceGraphic"/></feMerge>
  </filter>

  <!-- Bloom: wide soft -->
  <filter id="bloomr1x5377" x="-40%" y="-40%" width="180%" height="180%">
    <feGaussianBlur stdDeviation="11" result="b"/>
    <feMerge><feMergeNode in="b"/><feMergeNode in="SourceGraphic"/></feMerge>
  </filter>

  </defs><rect width="1000" height="1000" fill="url(#bgr1x5377)"/><line x1="0" y1="2.1" x2="1000" y2="1.7" stroke="#2060ff" stroke-opacity=".055" stroke-width="1.2"/><line x1="2.1" y1="0" x2="2.7" y2="1000" stroke="#2060ff" stroke-opacity=".055" stroke-width="1.2"/><line x1="0" y1="99.3" x2="1000" y2="101.3" stroke="#2060ff" stroke-opacity=".055" stroke-width="1.2"/><line x1="101.9" y1="0" x2="101.4" y2="1000" stroke="#2060ff" stroke-opacity=".055" stroke-width="1.2"/><line x1="0" y1="197.0" x2="1000" y2="198.4" stroke="#2060ff" stroke-opacity=".055" stroke-width="1.2"/><line x1="200.5" y1="0" x2="202.1" y2="1000" stroke="#2060ff" stroke-opacity=".055" stroke-width="1.2"/><line x1="0" y1="301.4" x2="1000" y2="301.7" stroke="#2060ff" stroke-opacity=".055" stroke-width="1.2"/><line x1="298.8" y1="0" x2="298.4" y2="1000" stroke="#2060ff" stroke-opacity=".055" stroke-width="1.2"/><line x1="0" y1="402.8" x2="1000" y2="402.9" stroke="#2060ff" stroke-opacity=".055" stroke-width="1.2"/><line x1="400.5" y1="0" x2="398.2" y2="1000" stroke="#2060ff" stroke-opacity=".055" stroke-width="1.2"/><line x1="0" y1="501.0" x2="1000" y2="498.7" stroke="#2060ff" stroke-opacity=".055" stroke-width="1.2"/><line x1="500.2" y1="0" x2="501.4" y2="1000" stroke="#2060ff" stroke-opacity=".055" stroke-width="1.2"/><line x1="0" y1="599.9" x2="1000" y2="600.8" stroke="#2060ff" stroke-opacity=".055" stroke-width="1.2"/><line x1="599.9" y1="0" x2="598.4" y2="1000" stroke="#2060ff" stroke-opacity=".055" stroke-width="1.2"/><line x1="0" y1="699.2" x2="1000" y2="700.9" stroke="#2060ff" stroke-opacity=".055" stroke-width="1.2"/><line x1="702.1" y1="0" x2="701.6" y2="1000" stroke="#2060ff" stroke-opacity=".055" stroke-width="1.2"/><line x1="0" y1="797.5" x2="1000" y2="801.1" stroke="#2060ff" stroke-opacity=".055" stroke-width="1.2"/><line x1="798.4" y1="0" x2="798.5" y2="1000" stroke="#2060ff" stroke-opacity=".055" stroke-width="1.2"/><line x1="0" y1="897.6" x2="1000" y2="899.4" stroke="#2060ff" stroke-opacity=".055" stroke-width="1.2"/><line x1="897.7" y1="0" x2="899.7" y2="1000" stroke="#2060ff" stroke-opacity=".055" stroke-width="1.2"/><path d="M80,30 L30,30 L30,80" stroke="#2060ff" stroke-opacity=".45" stroke-width="2" fill="none" filter="url(#glowr1x5377)"/><path d="M920,30 L970,30 L970,80" stroke="#2060ff" stroke-opacity=".45" stroke-width="2" fill="none" filter="url(#glowr1x5377)"/><path d="M30,920 L30,970 L80,970" stroke="#2060ff" stroke-opacity=".45" stroke-width="2" fill="none" filter="url(#glowr1x5377)"/><path d="M970,920 L970,970 L920,970" stroke="#2060ff" stroke-opacity=".45" stroke-width="2" fill="none" filter="url(#glowr1x5377)"/><ellipse cx="500.0" cy="892.0" rx="350.0" ry="65.0" fill="rgba(0,0,0,.7)" filter="url(#bloomr1x5377)"/><ellipse cx="500.0" cy="889.0" rx="220.0" ry="34.0" fill="rgba(0,0,0,.45)"/><ellipse cx="500.0" cy="520.0" rx="320.0" ry="480.0" fill="#00e5ff" fill-opacity=".042" filter="url(#bloomr1x5377)"/><circle cx="377.9" cy="571.3" r="1.7" fill="#00e5ff" fill-opacity="0.49" filter="url(#glowr1x5377)"/><circle cx="279.8" cy="320.9" r="1.2" fill="#00e5ff" fill-opacity="0.87" filter="url(#glowr1x5377)"/><circle cx="395.7" cy="436.8" r="1.0" fill="#00e5ff" fill-opacity="0.54" filter="url(#glowr1x5377)"/><circle cx="303.4" cy="320.0" r="2.8" fill="#00e5ff" fill-opacity="0.82" filter="url(#glowr1x5377)"/><circle cx="287.0" cy="180.6" r="2.8" fill="#00e5ff" fill-opacity="0.41" filter="url(#glowr1x5377)"/><circle cx="268.4" cy="685.7" r="3.0" fill="#00e5ff" fill-opacity="0.70" filter="url(#glowr1x5377)"/><circle cx="406.9" cy="453.7" r="3.8" fill="#00e5ff" fill-opacity="0.54" filter="url(#glowr1x5377)"/><circle cx="363.4" cy="184.0" r="1.9" fill="#00e5ff" fill-opacity="0.63" filter="url(#glowr1x5377)"/><circle cx="373.3" cy="799.2" r="0.5" fill="#00e5ff" fill-opacity="0.86" filter="url(#glowr1x5377)"/><circle cx="321.8" cy="246.2" r="0.7" fill="#00e5ff" fill-opacity="0.71" filter="url(#glowr1x5377)"/><circle cx="441.3" cy="729.0" r="0.6" fill="#00e5ff" fill-opacity="0.80" filter="url(#glowr1x5377)"/><circle cx="345.1" cy="322.6" r="1.0" fill="#00e5ff" fill-opacity="0.43" filter="url(#glowr1x5377)"/><circle cx="648.8" cy="698.6" r="2.6" fill="#00e5ff" fill-opacity="0.44" filter="url(#glowr1x5377)"/><circle cx="599.0" cy="789.7" r="0.7" fill="#00e5ff" fill-opacity="0.70" filter="url(#glowr1x5377)"/><path d="M290.6,221.0 Q303.1,433.4 640.9,691.4" stroke="#00e5ff" stroke-opacity="0.74" stroke-width="2.0" fill="none" filter="url(#glowr1x5377)"/><path d="M577.3,246.0 Q603.1,563.2 637.0,885.3" stroke="#00e5ff" stroke-opacity="0.51" stroke-width="1.5" fill="none" filter="url(#glowr1x5377)"/><path d="M496.1,207.2 Q462.9,421.9 414.2,617.2" stroke="#00e5ff" stroke-opacity="0.52" stroke-width="2.5" fill="none" filter="url(#glowr1x5377)"/><path d="M395.9,399.1 Q405.7,536.5 391.5,671.6" stroke="#00e5ff" stroke-opacity="0.53" stroke-width="2.6" fill="none" filter="url(#glowr1x5377)"/><path d="M705.7,199.2 Q665.0,505.1 407.5,805.0" stroke="#00e5ff" stroke-opacity="0.46" stroke-width="1.0" fill="none" filter="url(#glowr1x5377)"/><polygon points="399.8,663.6 490.5,663.3 481.6,876.6 387.8,879.2" fill="url(#suitr1x5377)" stroke="#2060ff" stroke-width="2.2" filter="url(#skr1x5377) url(#metalr1x5377)"/><polygon points="399.9,661.3 489.7,662.4 481.2,878.8 386.5,877.4" fill="url(#carbonr1x5377)"/><polygon points="391.6,724.6 491.2,724.6 482.8,788.8 385.0,788.8" fill="url(#bevelr1x5377)" fill-opacity=".5" stroke="#2060ff" stroke-width="1.4" filter="url(#skr1x5377)"/><polygon points="511.4,660.7 601.7,662.5 613.7,876.8 518.4,877.4" fill="url(#suitr1x5377)" stroke="#2060ff" stroke-width="2.2" filter="url(#skr1x5377) url(#metalr1x5377)"/><polygon points="509.0,661.7 600.3,663.3 613.7,877.7 521.1,878.5" fill="url(#carbonr1x5377)"/><polygon points="505.5,723.8 607.6,724.2 616.6,787.0 514.2,788.5" fill="url(#bevelr1x5377)" fill-opacity=".5" stroke="#2060ff" stroke-width="1.4" filter="url(#skr1x5377)"/><rect x="392.7" y="837.7" width="100.3" height="24.7" fill="url(#bevelr1x5377)" stroke="#2060ff" stroke-width="1" filter="url(#skr1x5377)"/><rect x="506.8"  y="837.3" width="100.3" height="24.7" fill="url(#bevelr1x5377)" stroke="#2060ff" stroke-width="1" filter="url(#skr1x5377)"/><polygon points="368.5,877.5 495.2,877.9 505.0,920.1 362.2,922.5" fill="#003ccc" stroke="#2060ff" stroke-width="2" filter="url(#skr1x5377)"/><polygon points="505.0,877.8 631.2,878.9 636.4,922.9 497.6,920.4" fill="#003ccc" stroke="#2060ff" stroke-width="2" filter="url(#skr1x5377)"/><polygon points="302.6,633.8 694.9,631.5 638.2,683.6 363.5,680.6" fill="#2060ff" fill-opacity=".52" stroke="#2060ff" stroke-width="2" filter="url(#skr1x5377)"/><rect x="462.6" y="639.6" width="72.0" height="42.0" fill="url(#bevelr1x5377)" stroke="#2060ff" stroke-width="1.4" filter="url(#glowr1x5377)"/><rect x="484.6" y="639.0" width="28.0" height="22.0" rx="1" fill="rgba(255,255,255,.48)"/><polygon points="152.4,467.9 234.6,465.0 256.7,735.3 128.6,734.4" fill="url(#suitr1x5377)" stroke="#2060ff" stroke-width="2.2" filter="url(#skr1x5377) url(#metalr1x5377)"/><polygon points="172.1,433.5 254.0,433.9 243.7,510.0 161.3,509.5" fill="url(#bevelr1x5377)" fill-opacity=".72" stroke="#2060ff" stroke-width="2.2" filter="url(#skr1x5377)"/><polygon points="159.5,620.9 244.6,623.6 240.8,661.8 164.7,659.6" fill="#2060ff" fill-opacity=".42" stroke="#2060ff" stroke-width="1" filter="url(#skr1x5377)"/><polygon points="765.1,466.3 845.2,467.4 871.2,735.2 742.5,734.4" fill="url(#suitr1x5377)" stroke="#2060ff" stroke-width="2.2" filter="url(#skr1x5377) url(#metalr1x5377)"/><polygon points="746.9,431.8 827.5,431.2 839.8,509.9 758.4,509.8" fill="url(#bevelr1x5377)" fill-opacity=".72" stroke="#2060ff" stroke-width="2.2" filter="url(#skr1x5377)"/><polygon points="756.4,622.1 838.3,621.4 836.0,662.4 761.1,660.2" fill="#2060ff" fill-opacity=".42" stroke="#2060ff" stroke-width="1" filter="url(#skr1x5377)"/><rect x="121.7"  y="699.3" width="135.3" height="85.0" rx="4" fill="url(#bevelr1x5377)" stroke="#2060ff" stroke-width="1.8" filter="url(#skr1x5377)"/><rect x="749.8"   y="698.9" width="135.3" height="85.0" rx="4" fill="url(#bevelr1x5377)" stroke="#2060ff" stroke-width="1.8" filter="url(#skr1x5377)"/><line x1="150.2" y1="701.2" x2="148.0" y2="783.4" stroke="#2060ff" stroke-opacity=".38" stroke-width="1"/><line x1="778.2" y1="703.1" x2="779.0" y2="784.9" stroke="#2060ff" stroke-opacity=".38" stroke-width="1"/><line x1="182.7" y1="702.9" x2="182.9" y2="784.4" stroke="#2060ff" stroke-opacity=".38" stroke-width="1"/><line x1="810.2" y1="700.8" x2="811.6" y2="784.3" stroke="#2060ff" stroke-opacity=".38" stroke-width="1"/><line x1="214.9" y1="700.5" x2="214.9" y2="784.2" stroke="#2060ff" stroke-opacity=".38" stroke-width="1"/><line x1="842.3" y1="700.5" x2="842.0" y2="783.3" stroke="#2060ff" stroke-opacity=".38" stroke-width="1"/><polygon points="236.5,418.6 764.3,415.8 721.0,661.3 275.7,660.8" fill="url(#suitr1x5377)" stroke="#2060ff" stroke-width="2.6" filter="url(#skr1x5377) url(#metalr1x5377)"/><polygon points="236.0,419.2 764.1,417.7 721.5,664.2 276.2,662.9" fill="url(#carbonr1x5377)"/><polygon points="367.1,416.2 633.1,416.5 612.7,514.9 388.5,515.5" fill="url(#suitHir1x5377)"/><line x1="362.1" y1="469.7" x2="636.5" y2="470.4" stroke="#2060ff" stroke-opacity=".52" stroke-width="1.3" filter="url(#skr1x5377)"/><line x1="399.5" y1="550.0" x2="601.1" y2="551.4" stroke="#2060ff" stroke-opacity=".52" stroke-width="1.3" filter="url(#skr1x5377)"/><line x1="265.6" y1="492.0" x2="318.4" y2="491.9" stroke="#2060ff" stroke-opacity=".62" stroke-width="1.8"/><line x1="680.5" y1="492.4" x2="731.7" y2="492.7" stroke="#2060ff" stroke-opacity=".62" stroke-width="1.8"/><line x1="267.1" y1="523.3" x2="318.7" y2="522.5" stroke="#2060ff" stroke-opacity=".62" stroke-width="1.8"/><line x1="678.4" y1="522.5" x2="732.4" y2="521.9" stroke="#2060ff" stroke-opacity=".62" stroke-width="1.8"/><line x1="267.0" y1="556.3" x2="319.2" y2="554.5" stroke="#2060ff" stroke-opacity=".62" stroke-width="1.8"/><line x1="679.4" y1="553.4" x2="733.8" y2="553.7" stroke="#2060ff" stroke-opacity=".62" stroke-width="1.8"/><line x1="268.0" y1="586.8" x2="320.8" y2="585.3" stroke="#2060ff" stroke-opacity=".62" stroke-width="1.8"/><line x1="680.8" y1="587.0" x2="734.0" y2="587.8" stroke="#2060ff" stroke-opacity=".62" stroke-width="1.8"/><g filter="url(#glowr1x5377)"><polygon points="481.6,454.2 512.5,504.3 499.9,505.2 518.5,569.0 487.5,514.8 498.6,514.7" fill="#2060ff" stroke="#000a14" stroke-width="1.4" filter="url(#skr1x5377)"/><polygon points="484.1,451.6 513.5,506.5 500.2,506.1 517.8,569.4 485.8,516.0 498.3,514.8" fill="url(#suitHir1x5377)" opacity=".4"/></g><g><rect x="829.4175857510977" y="420.06796334218234" width="148.0" height="82.0" rx="5" fill="url(#gunmetalr1x5377)" stroke="#2060ff" stroke-width="2" filter="url(#wmr1x5377)"/><rect x="831.2635720125959" y="421.1910063949413" width="148.0" height="82.0" rx="5" fill="url(#carbonr1x5377)"/><rect x="838.5991826244258" y="403.29116963576524" width="90.0" height="22.0" rx="3" fill="url(#barrelr1x5377)" stroke="#2060ff" stroke-width="1" filter="url(#wmr1x5377)"/><circle cx="876.4807006237656" cy="416.03366513056676" r="15.0" fill="#2060ff" opacity=".8" filter="url(#glowr1x5377)"/><circle cx="879.0065326814167" cy="413.94592517130076" r="6.0" fill="rgba(255,255,255,.9)"/><rect x="945.2284885646403" y="455.9148642721586" width="78.0" height="36.0" rx="5" fill="url(#barrelr1x5377)" stroke="#2060ff" stroke-width="1.2" filter="url(#wmr1x5377)"/><circle cx="1021.3097733621113" cy="472.58528234250844" r="18.0" fill="#2060ff" filter="url(#glowr1x5377)" opacity=".88"/><circle cx="1020.9679943251051" cy="469.7819865430705" r="7.0" fill="#ffffff"/><rect x="873.2667001851462" y="500.6150560052134" width="44.0" height="42.0" rx="3" fill="url(#gunmetalr1x5377)" stroke="#2060ff" stroke-width="1" filter="url(#wmr1x5377)"/><rect x="832.8737893585675" y="422.8720474128611" width="90.0" height="10.0" rx="2" fill="rgba(255,255,255,.22)"/><line x1="856.5434778414294" y1="487.41753764785824" x2="857.4056901138835" y2="519.2084189077839" stroke="#2060ff" stroke-opacity=".5" stroke-width="1.2"/><line x1="873.0538646274805" y1="484.817262381874" x2="872.3465143017098" y2="518.971813260112" stroke="#2060ff" stroke-opacity=".5" stroke-width="1.2"/><line x1="890.1729320614227" y1="486.9586203908548" x2="888.1206078248657" y2="519.1944743855856" stroke="#2060ff" stroke-opacity=".5" stroke-width="1.2"/></g><rect x="448.5556719568558" y="556.2837587832473" width="100.0"  height="56.0" fill="#003ccc" stroke="#2060ff" stroke-width="2.2" filter="url(#skr1x5377)"/><rect x="425.06863129632546" y="574.7548443726264" width="152.0" height="26.0" fill="url(#bevelr1x5377)" fill-opacity=".65" stroke="#2060ff" stroke-width="1.2" filter="url(#skr1x5377)"/><polygon points="307.2,381.2 349.2,295.3 498.8,279.7 651.3,293.7 691.8,382.3 669.6,503.1 498.8,564.4 331.0,504.4" fill="url(#suitr1x5377)" stroke="#2060ff" stroke-width="2.8" filter="url(#skr1x5377) url(#metalr1x5377)"/><polygon points="307.7,382.0 349.7,292.7 499.7,276.7 648.4,295.8 691.3,380.9 668.0,503.8 499.5,565.0 331.8,501.8" fill="url(#carbonr1x5377)"/><polygon points="382.1,304.4 499.2,285.8 620.1,304.2 606.7,381.1 393.7,380.8" fill="url(#suitHir1x5377)"/><polygon points="381.3,381.6 364.6,425.9 431.4,503.6 498.3,526.8 565.8,504.2 635.0,424.5 617.5,379.4" fill="#000a14" fill-opacity=".88" stroke="#2060ff" stroke-width="1.8" filter="url(#skr1x5377)"/><polygon points="380.7,411.4 475.3,410.1 485.1,440.0 387.6,439.0" fill="#2060ff" filter="url(#glowr1x5377)"/><polygon points="523.0,411.1 620.3,409.7 610.1,439.2 515.6,439.9" fill="#2060ff" filter="url(#glowr1x5377)"/><ellipse cx="430.9" cy="425.7" rx="38.4"  ry="8.2" fill="#ffffff" opacity=".88"/><ellipse cx="569.1" cy="425.7" rx="38.4"  ry="8.2" fill="#ffffff" opacity=".88"/><line x1="485.537388504073" y1="413.8128410484642" x2="515.1005260989442" y2="415.1802065606229" stroke="#2060ff" stroke-opacity=".52" stroke-width="2"/><line x1="484.5073977738246" y1="439.2103768737987" x2="515.9186025441065" y2="437.14430158864707" stroke="#2060ff" stroke-opacity=".52" stroke-width="2"/><line x1="498.5531681843102" y1="454.2030913030728" x2="498.78468742575495" y2="484.07642847383397" stroke="#2060ff" stroke-opacity=".58" stroke-width="2.2" filter="url(#skr1x5377)"/><line x1="455.16207533728334" y1="491.5402198983356" x2="453.3429846165516" y2="519.8525614414364" stroke="#2060ff" stroke-opacity=".52" stroke-width="1.5" filter="url(#skr1x5377)"/><line x1="476.5274181689508" y1="492.1785612332634" x2="477.4964916702732" y2="520.2586210767738" stroke="#2060ff" stroke-opacity=".52" stroke-width="1.5" filter="url(#skr1x5377)"/><line x1="499.6780412487686" y1="492.1268226878717" x2="501.75227965852247" y2="518.5838503512554" stroke="#2060ff" stroke-opacity=".52" stroke-width="1.5" filter="url(#skr1x5377)"/><line x1="521.8315974969044" y1="491.49751838147637" x2="524.3926938791386" y2="521.5585105274804" stroke="#2060ff" stroke-opacity=".52" stroke-width="1.5" filter="url(#skr1x5377)"/><line x1="544.4411066455954" y1="491.56768844192845" x2="546.6954529239051" y2="519.1968121970073" stroke="#2060ff" stroke-opacity=".52" stroke-width="1.5" filter="url(#skr1x5377)"/><polygon points="432.6,502.1 566.1,502.9 552.7,558.1 446.8,557.3" fill="#003ccc" fill-opacity=".72" stroke="#2060ff" stroke-width="1.3" filter="url(#skr1x5377)"/><polygon points="478.7,304.4 524.1,301.5 511.6,174.1 486.8,174.8" fill="url(#bevelr1x5377)" stroke="#2060ff" stroke-width="2.2" filter="url(#skr1x5377)"/><polygon points="367.0,322.4 456.3,324.5 470.2,228.6" fill="url(#bevelr1x5377)" fill-opacity=".78" stroke="#2060ff" stroke-width="1.5" filter="url(#skr1x5377)"/><polygon points="540.8,323.6 634.5,322.2 529.1,228.5" fill="url(#bevelr1x5377)" fill-opacity=".78" stroke="#2060ff" stroke-width="1.5" filter="url(#skr1x5377)"/><text x="30.0"  y="975.0" font-family="monospace" font-weight="bold" font-size="22.0" fill="rgba(255,255,255,.22)">#0001</text><text x="500.0"   y="975.0" text-anchor="middle" font-family="monospace" font-weight="bold" font-size="22.0" fill="#2060ff" fill-opacity=".48">COBALT RANGER</text><text x="970.0" y="975.0" text-anchor="end"    font-family="monospace" font-weight="bold" font-size="22.0" fill="#2060ff" fill-opacity=".32">MECH RANGERS</text></svg>