<svg xmlns="http://www.w3.org/2000/svg" viewBox="0 0 1000 1000" width="1000" height="1000" shape-rendering="geometricPrecision"><defs>

  <!-- Scene gradients -->
  <radialGradient id="bgr1x5408" cx="50%" cy="42%" r="72%">
    <stop offset="0%"   stop-color="#1e0a2e"/>
    <stop offset="100%" stop-color="#0a0520"/>
  </radialGradient>
  <linearGradient id="suitr1x5408" x1="8%" y1="0%" x2="92%" y2="100%">
    <stop offset="0%"   stop-color="#ff2040" stop-opacity=".95"/>
    <stop offset="45%"  stop-color="#cc0020"/>
    <stop offset="100%" stop-color="#0a0520"/>
  </linearGradient>
  <linearGradient id="suitHir1x5408" x1="0%" y1="0%" x2="0%" y2="100%">
    <stop offset="0%"   stop-color="rgba(255,255,255,.28)"/>
    <stop offset="60%"  stop-color="rgba(255,255,255,.04)"/>
    <stop offset="100%" stop-color="rgba(255,255,255,0)"/>
  </linearGradient>
  <!-- Bevel: bright top, dark bottom for armour panels -->
  <linearGradient id="bevelr1x5408" x1="0%" y1="0%" x2="0%" y2="100%">
    <stop offset="0%"   stop-color="rgba(255,255,255,.55)"/>
    <stop offset="30%"  stop-color="#ff2040"/>
    <stop offset="70%"  stop-color="#cc0020"/>
    <stop offset="100%" stop-color="rgba(0,0,0,.5)"/>
  </linearGradient>

  <!-- Weapon: cold steel blade sweep -->
  <linearGradient id="blader1x5408" x1="0%" y1="0%" x2="100%" y2="0%">
    <stop offset="0%"   stop-color="#0e0e20"/>
    <stop offset="16%"  stop-color="#3e3e58"/>
    <stop offset="34%"  stop-color="#c8c8e0"/>
    <stop offset="50%"  stop-color="#f5f5ff"/>
    <stop offset="66%"  stop-color="#b8b8d0"/>
    <stop offset="84%"  stop-color="#2e2e48"/>
    <stop offset="100%" stop-color="#08080e"/>
  </linearGradient>
  <!-- Blade tip brightening -->
  <linearGradient id="bladeTipr1x5408" x1="0%" y1="100%" x2="0%" y2="0%">
    <stop offset="0%"   stop-color="rgba(255,255,255,0)"/>
    <stop offset="55%"  stop-color="rgba(255,255,255,.1)"/>
    <stop offset="100%" stop-color="rgba(255,255,255,.55)"/>
  </linearGradient>
  <!-- Gunmetal anodised — blaster body -->
  <linearGradient id="gunmetalr1x5408" x1="0%" y1="0%" x2="0%" y2="100%">
    <stop offset="0%"   stop-color="#46465e"/>
    <stop offset="18%"  stop-color="#828296"/>
    <stop offset="42%"  stop-color="#26263a"/>
    <stop offset="72%"  stop-color="#16162a"/>
    <stop offset="100%" stop-color="#0c0c18"/>
  </linearGradient>
  <!-- Brushed steel tube — barrel/rod -->
  <linearGradient id="barrelr1x5408" x1="0%" y1="0%" x2="100%" y2="0%">
    <stop offset="0%"   stop-color="#0a0a14"/>
    <stop offset="24%"  stop-color="#585875"/>
    <stop offset="50%"  stop-color="#a8a8c8"/>
    <stop offset="76%"  stop-color="#383852"/>
    <stop offset="100%" stop-color="#0a0a14"/>
  </linearGradient>
  <!-- Chrome rod — lance shaft -->
  <linearGradient id="chromer1x5408" x1="0%" y1="0%" x2="100%" y2="0%">
    <stop offset="0%"   stop-color="#0c0c18"/>
    <stop offset="20%"  stop-color="#686888"/>
    <stop offset="44%"  stop-color="#e0e0f0"/>
    <stop offset="56%"  stop-color="#c0c0d8"/>
    <stop offset="80%"  stop-color="#28283e"/>
    <stop offset="100%" stop-color="#0c0c18"/>
  </linearGradient>
  <!-- Titanium plate — shield face -->
  <linearGradient id="titaniumr1x5408" x1="0%" y1="0%" x2="100%" y2="100%">
    <stop offset="0%"   stop-color="#585878"/>
    <stop offset="28%"  stop-color="#ff2040" stop-opacity=".88"/>
    <stop offset="55%"  stop-color="#cc0020"/>
    <stop offset="80%"  stop-color="#181828"/>
    <stop offset="100%" stop-color="#0a0a18"/>
  </linearGradient>
  <!-- Artillery black-chrome — cannon body -->
  <linearGradient id="artilleryr1x5408" x1="0%" y1="0%" x2="0%" y2="100%">
    <stop offset="0%"   stop-color="#383850"/>
    <stop offset="14%"  stop-color="#78789a"/>
    <stop offset="36%"  stop-color="#202034"/>
    <stop offset="65%"  stop-color="#14141e"/>
    <stop offset="100%" stop-color="#0a0a12"/>
  </linearGradient>
  <!-- Energy orb — staff -->
  <radialGradient id="orbr1x5408" cx="35%" cy="35%" r="65%">
    <stop offset="0%"   stop-color="rgba(255,255,255,.9)"/>
    <stop offset="30%"  stop-color="#ff2040"/>
    <stop offset="68%"  stop-color="#cc0020"/>
    <stop offset="100%" stop-color="rgba(0,0,0,.6)"/>
  </radialGradient>
  <!-- Knuckle plate chrome -->
  <linearGradient id="knuckler1x5408" x1="0%" y1="0%" x2="0%" y2="100%">
    <stop offset="0%"   stop-color="#888aaa"/>
    <stop offset="32%"  stop-color="#ff2040" stop-opacity=".8"/>
    <stop offset="62%"  stop-color="#1a1a2c"/>
    <stop offset="100%" stop-color="#0a0a14"/>
  </linearGradient>

  <!-- Carbon fibre weave texture overlay -->
  <pattern id="carbonr1x5408" width="6" height="6" patternUnits="userSpaceOnUse">
    <rect width="6" height="6" fill="rgba(0,0,0,.08)"/>
    <rect x="0" y="0" width="3" height="3" fill="rgba(255,255,255,.022)"/>
    <rect x="3" y="3" width="3" height="3" fill="rgba(255,255,255,.022)"/>
    <line x1="0" y1="0" x2="3" y2="3" stroke="rgba(255,255,255,.038)" stroke-width=".5"/>
    <line x1="3" y1="0" x2="6" y2="3" stroke="rgba(0,0,0,.055)"       stroke-width=".5"/>
    <line x1="0" y1="3" x2="3" y2="6" stroke="rgba(0,0,0,.055)"       stroke-width=".5"/>
    <line x1="3" y1="3" x2="6" y2="6" stroke="rgba(255,255,255,.038)" stroke-width=".5"/>
  </pattern>

  <!-- Specular metal sheen on armour panels -->
  <filter id="metalr1x5408" x="-5%" y="-5%" width="110%" height="110%">
    <feSpecularLighting surfaceScale="4" specularConstant="1.8"
        specularExponent="42" lighting-color="#ffffff" result="spec">
      <feDistantLight elevation="52" azimuth="38"/>
    </feSpecularLighting>
    <feComposite in="spec" in2="SourceGraphic" operator="in" result="sm"/>
    <feComposite in="SourceGraphic" in2="sm" operator="arithmetic" k1="0" k2="1" k3="0.55" k4="0"/>
  </filter>

  <!-- Sharper specular for weapons — heavier glare -->
  <filter id="wmr1x5408" x="-8%" y="-8%" width="116%" height="116%">
    <feSpecularLighting surfaceScale="6" specularConstant="2.4"
        specularExponent="65" lighting-color="#ffffff" result="spec">
      <feDistantLight elevation="44" azimuth="28"/>
    </feSpecularLighting>
    <feComposite in="spec" in2="SourceGraphic" operator="in" result="sm"/>
    <feComposite in="SourceGraphic" in2="sm" operator="arithmetic" k1="0" k2="1" k3="0.78" k4="0"/>
  </filter>

  <!-- Sketch wobble -->
  <filter id="skr1x5408" x="-8%" y="-8%" width="116%" height="116%">
    <feTurbulence type="fractalNoise" baseFrequency="0.038"
        numOctaves="3" seed="25" result="noise"/>
    <feDisplacementMap in="SourceGraphic" in2="noise" scale="2.6"
        xChannelSelector="R" yChannelSelector="G" result="w"/>
    <feComposite in="w" in2="SourceGraphic" operator="atop"/>
  </filter>

  <!-- Glow: sharp accent -->
  <filter id="glowr1x5408" x="-20%" y="-20%" width="140%" height="140%">
    <feGaussianBlur stdDeviation="3.5" result="b"/>
    <feColorMatrix in="b" type="matrix"
        values="0 0 0 0 1  0 0 0 0 1  0 0 0 0 1  0 0 0 1.8 0" result="boost"/>
    <feMerge><feMergeNode in="boost"/><feMergeNode in="SourceGraphic"/></feMerge>
  </filter>

  <!-- Bloom: wide soft -->
  <filter id="bloomr1x5408" x="-40%" y="-40%" width="180%" height="180%">
    <feGaussianBlur stdDeviation="11" result="b"/>
    <feMerge><feMergeNode in="b"/><feMergeNode in="SourceGraphic"/></feMerge>
  </filter>

  </defs><rect width="1000" height="1000" fill="url(#bgr1x5408)"/><ellipse cx="500.0" cy="892.0" rx="350.0" ry="65.0" fill="rgba(0,0,0,.7)" filter="url(#bloomr1x5408)"/><ellipse cx="500.0" cy="889.0" rx="220.0" ry="34.0" fill="rgba(0,0,0,.45)"/><ellipse cx="500.0" cy="520.0" rx="320.0" ry="480.0" fill="#ff6600" fill-opacity=".042" filter="url(#bloomr1x5408)"/><circle cx="540.4" cy="516.8" r="3.0" fill="#ff6600" fill-opacity="0.65" filter="url(#glowr1x5408)"/><circle cx="670.7" cy="664.3" r="3.0" fill="#ff6600" fill-opacity="0.68" filter="url(#glowr1x5408)"/><circle cx="732.9" cy="192.0" r="1.1" fill="#ff6600" fill-opacity="0.77" filter="url(#glowr1x5408)"/><circle cx="549.5" cy="602.5" r="2.3" fill="#ff6600" fill-opacity="0.48" filter="url(#glowr1x5408)"/><circle cx="738.7" cy="250.0" r="3.7" fill="#ff6600" fill-opacity="0.86" filter="url(#glowr1x5408)"/><circle cx="696.2" cy="600.6" r="3.3" fill="#ff6600" fill-opacity="0.88" filter="url(#glowr1x5408)"/><circle cx="411.4" cy="668.0" r="2.3" fill="#ff6600" fill-opacity="0.40" filter="url(#glowr1x5408)"/><circle cx="714.2" cy="638.6" r="2.3" fill="#ff6600" fill-opacity="0.56" filter="url(#glowr1x5408)"/><circle cx="345.2" cy="570.2" r="3.1" fill="#ff6600" fill-opacity="0.85" filter="url(#glowr1x5408)"/><circle cx="522.5" cy="700.7" r="2.8" fill="#ff6600" fill-opacity="0.89" filter="url(#glowr1x5408)"/><circle cx="695.7" cy="336.8" r="1.4" fill="#ff6600" fill-opacity="0.61" filter="url(#glowr1x5408)"/><circle cx="411.9" cy="315.7" r="3.0" fill="#ff6600" fill-opacity="0.39" filter="url(#glowr1x5408)"/><circle cx="676.9" cy="783.3" r="1.0" fill="#ff6600" fill-opacity="0.56" filter="url(#glowr1x5408)"/><circle cx="452.8" cy="217.9" r="1.0" fill="#ff6600" fill-opacity="0.83" filter="url(#glowr1x5408)"/><polygon points="397.6,663.2 489.4,663.4 480.3,876.3 389.0,878.1" fill="url(#suitr1x5408)" stroke="#ff2040" stroke-width="2.2" filter="url(#skr1x5408) url(#metalr1x5408)"/><polygon points="398.6,664.2 488.0,662.6 482.3,877.2 386.3,878.6" fill="url(#carbonr1x5408)"/><polygon points="393.8,724.3 492.0,723.7 484.5,789.8 385.1,786.5" fill="url(#bevelr1x5408)" fill-opacity=".5" stroke="#ff2040" stroke-width="1.4" filter="url(#skr1x5408)"/><polygon points="510.4,661.1 601.3,663.4 614.2,877.9 519.4,877.4" fill="url(#suitr1x5408)" stroke="#ff2040" stroke-width="2.2" filter="url(#skr1x5408) url(#metalr1x5408)"/><polygon points="511.3,662.0 602.4,662.3 611.2,878.3 519.3,876.4" fill="url(#carbonr1x5408)"/><polygon points="506.7,722.7 608.9,723.9 617.4,787.0 516.8,788.8" fill="url(#bevelr1x5408)" fill-opacity=".5" stroke="#ff2040" stroke-width="1.4" filter="url(#skr1x5408)"/><rect x="391.4" y="838.6" width="100.3" height="24.7" fill="url(#bevelr1x5408)" stroke="#ff2040" stroke-width="1" filter="url(#skr1x5408)"/><rect x="507.5"  y="838.0" width="100.3" height="24.7" fill="url(#bevelr1x5408)" stroke="#ff2040" stroke-width="1" filter="url(#skr1x5408)"/><polygon points="369.1,878.8 497.2,878.3 502.7,922.6 362.9,921.2" fill="#cc0020" stroke="#ff2040" stroke-width="2" filter="url(#skr1x5408)"/><polygon points="505.0,878.1 629.4,878.4 635.8,920.2 496.1,921.9" fill="#cc0020" stroke="#ff2040" stroke-width="2" filter="url(#skr1x5408)"/><polygon points="304.0,633.6 695.8,634.3 638.2,681.5 362.2,680.7" fill="#ff2040" fill-opacity=".52" stroke="#ff2040" stroke-width="2" filter="url(#skr1x5408)"/><rect x="464.7" y="638.4" width="72.0" height="42.0" fill="url(#bevelr1x5408)" stroke="#ff2040" stroke-width="1.4" filter="url(#glowr1x5408)"/><rect x="487.0" y="639.7" width="28.0" height="22.0" rx="1" fill="rgba(255,255,255,.48)"/><polygon points="153.2,467.9 233.4,464.9 258.9,735.7 128.3,733.4" fill="url(#suitr1x5408)" stroke="#ff2040" stroke-width="2.2" filter="url(#skr1x5408) url(#metalr1x5408)"/><polygon points="173.2,430.8 253.7,432.3 244.4,511.0 158.7,512.0" fill="url(#bevelr1x5408)" fill-opacity=".72" stroke="#ff2040" stroke-width="2.2" filter="url(#skr1x5408)"/><polygon points="161.9,622.1 241.5,621.4 238.4,659.5 166.6,660.4" fill="#ff2040" fill-opacity=".42" stroke="#ff2040" stroke-width="1" filter="url(#skr1x5408)"/><polygon points="763.9,464.9 847.1,466.8 872.9,734.3 742.8,735.0" fill="url(#suitr1x5408)" stroke="#ff2040" stroke-width="2.2" filter="url(#skr1x5408) url(#metalr1x5408)"/><polygon points="748.2,433.6 824.7,430.8 839.9,510.8 758.4,509.6" fill="url(#bevelr1x5408)" fill-opacity=".72" stroke="#ff2040" stroke-width="2.2" filter="url(#skr1x5408)"/><polygon points="756.6,622.7 837.7,620.6 835.5,660.0 761.2,660.2" fill="#ff2040" fill-opacity=".42" stroke="#ff2040" stroke-width="1" filter="url(#skr1x5408)"/><rect x="121.7"  y="699.5" width="135.3" height="85.0" rx="4" fill="url(#bevelr1x5408)" stroke="#ff2040" stroke-width="1.8" filter="url(#skr1x5408)"/><rect x="749.9"   y="699.4" width="135.3" height="85.0" rx="4" fill="url(#bevelr1x5408)" stroke="#ff2040" stroke-width="1.8" filter="url(#skr1x5408)"/><line x1="150.2" y1="703.0" x2="149.7" y2="785.6" stroke="#ff2040" stroke-opacity=".38" stroke-width="1"/><line x1="779.8" y1="700.6" x2="779.8" y2="782.3" stroke="#ff2040" stroke-opacity=".38" stroke-width="1"/><line x1="181.8" y1="703.6" x2="183.4" y2="784.8" stroke="#ff2040" stroke-opacity=".38" stroke-width="1"/><line x1="809.8" y1="700.3" x2="811.5" y2="782.7" stroke="#ff2040" stroke-opacity=".38" stroke-width="1"/><line x1="214.5" y1="701.9" x2="215.5" y2="783.4" stroke="#ff2040" stroke-opacity=".38" stroke-width="1"/><line x1="842.9" y1="701.2" x2="844.3" y2="784.5" stroke="#ff2040" stroke-opacity=".38" stroke-width="1"/><polygon points="235.8,416.8 763.5,415.7 723.4,664.3 277.8,664.3" fill="url(#suitr1x5408)" stroke="#ff2040" stroke-width="2.6" filter="url(#skr1x5408) url(#metalr1x5408)"/><polygon points="234.6,417.2 764.6,419.1 721.7,664.1 276.5,661.4" fill="url(#carbonr1x5408)"/><polygon points="366.9,416.9 631.4,419.2 613.0,516.6 387.9,515.9" fill="url(#suitHir1x5408)"/><line x1="363.0" y1="470.5" x2="636.7" y2="470.5" stroke="#ff2040" stroke-opacity=".52" stroke-width="1.3" filter="url(#skr1x5408)"/><line x1="399.5" y1="548.4" x2="601.6" y2="549.4" stroke="#ff2040" stroke-opacity=".52" stroke-width="1.3" filter="url(#skr1x5408)"/><line x1="266.1" y1="491.8" x2="321.1" y2="490.5" stroke="#ff2040" stroke-opacity=".62" stroke-width="1.8"/><line x1="678.9" y1="490.5" x2="734.1" y2="492.4" stroke="#ff2040" stroke-opacity=".62" stroke-width="1.8"/><line x1="266.6" y1="522.9" x2="318.8" y2="521.9" stroke="#ff2040" stroke-opacity=".62" stroke-width="1.8"/><line x1="681.8" y1="523.3" x2="732.5" y2="522.1" stroke="#ff2040" stroke-opacity=".62" stroke-width="1.8"/><line x1="267.8" y1="556.3" x2="319.1" y2="553.8" stroke="#ff2040" stroke-opacity=".62" stroke-width="1.8"/><line x1="681.8" y1="555.8" x2="732.3" y2="553.4" stroke="#ff2040" stroke-opacity=".62" stroke-width="1.8"/><line x1="268.3" y1="588.2" x2="320.8" y2="588.0" stroke="#ff2040" stroke-opacity=".62" stroke-width="1.8"/><line x1="680.7" y1="585.0" x2="731.6" y2="587.0" stroke="#ff2040" stroke-opacity=".62" stroke-width="1.8"/><g filter="url(#glowr1x5408)"><polygon points="501.2,452.2 543.5,511.1 499.8,569.5 459.7,509.9" fill="#ff2040" stroke="#0a0520" stroke-width="1.4" filter="url(#skr1x5408)"/><polygon points="501.6,453.0 543.4,509.4 499.9,568.4 459.9,511.1" fill="url(#suitHir1x5408)" opacity=".45"/></g><g><polygon points="76.2,671.4 128.2,671.4 112.6,-28.6 91.8,-28.6" fill="url(#blader1x5408)" filter="url(#wmr1x5408)"/><polygon points="91.8,-28.6 112.6,-28.6 102.2,-138.6" fill="url(#blader1x5408)" filter="url(#wmr1x5408)"/><polygon points="100.3,671.4 104.0,671.4 102.7,-128.6 101.6,-128.6" fill="url(#bladeTipr1x5408)" opacity=".9"/><line x1="111.48564432652664" y1="670.8069182549604" x2="103.6163818082772" y2="-127.94773074323314" stroke="rgba(255,255,255,.68)" stroke-width="1.5"/><line x1="94.26913445573297" y1="672.8133459163829" x2="102.53266083745282" y2="-129.74102142872292" stroke="#ff2040" stroke-width="1" stroke-opacity=".45"/><line x1="106.8" y1="651.4" x2="104.0" y2="11.4" stroke="rgba(0,0,0,.38)" stroke-width="1.6"/><line x1="97.5" y1="651.4" x2="100.3" y2="11.4" stroke="rgba(0,0,0,.38)" stroke-width="1.6"/><rect x="44.886050172559884" y="668.6680619304068" width="112.0" height="28.0" rx="3" fill="url(#bevelr1x5408)" stroke="#ff2040" stroke-width="1.6" filter="url(#wmr1x5408)"/><rect x="71.05657644266259" y="674.385544899106" width="64.0" height="10.0" rx="1" fill="rgba(255,255,255,.32)"/><rect x="90.5782509936392" y="678.98939970145" width="24.0" height="6.0" rx="1" fill="#ff2040" fill-opacity=".35"/><rect x="90.50157189922405" y="684.7912285802886" width="24.0" height="6.0" rx="1" fill="#ff2040" fill-opacity=".35"/><rect x="91.63356232516465" y="692.7963590258732" width="24.0" height="6.0" rx="1" fill="#ff2040" fill-opacity=".35"/><rect x="90.64497628802431" y="701.8433525690808" width="24.0" height="6.0" rx="1" fill="#ff2040" fill-opacity=".35"/><rect x="89.28999502439049" y="709.1322157185524" width="24.0" height="6.0" rx="1" fill="#ff2040" fill-opacity=".35"/><rect x="91.4710856214538" y="716.9446856537834" width="24.0" height="6.0" rx="1" fill="#ff2040" fill-opacity=".35"/><ellipse cx="101.27672893762585" cy="725.900174574554" rx="22.0" ry="16.0" fill="url(#bevelr1x5408)" stroke="#ff2040" stroke-width="1.2" filter="url(#wmr1x5408)"/></g><rect x="450.43240425372494" y="555.2610982745886" width="100.0"  height="56.0" fill="#cc0020" stroke="#ff2040" stroke-width="2.2" filter="url(#skr1x5408)"/><rect x="422.6908779617399" y="576.6822514683939" width="152.0" height="26.0" fill="url(#bevelr1x5408)" fill-opacity=".65" stroke="#ff2040" stroke-width="1.2" filter="url(#skr1x5408)"/><polygon points="306.2,381.7 351.2,293.5 501.4,279.6 651.0,292.8 693.5,382.4 669.8,502.7 500.0,566.3 332.3,502.2" fill="url(#suitr1x5408)" stroke="#ff2040" stroke-width="2.8" filter="url(#skr1x5408) url(#metalr1x5408)"/><polygon points="308.2,382.1 351.4,295.0 500.7,277.8 651.4,294.4 693.7,381.3 669.3,504.6 499.2,566.0 330.2,504.8" fill="url(#carbonr1x5408)"/><polygon points="381.7,303.2 501.8,285.2 619.1,302.9 605.8,380.8 393.9,381.7" fill="url(#suitHir1x5408)"/><polygon points="380.6,379.6 364.0,426.4 434.4,501.8 501.2,527.4 567.9,504.8 636.1,425.9 617.5,382.2" fill="#0a0520" fill-opacity=".88" stroke="#ff2040" stroke-width="1.8" filter="url(#skr1x5408)"/><polygon points="380.2,412.7 475.8,409.7 483.0,441.8 389.5,440.8" fill="#ff2040" filter="url(#glowr1x5408)"/><polygon points="524.4,412.9 619.8,411.2 611.3,439.7 517.0,441.8" fill="#ff2040" filter="url(#glowr1x5408)"/><ellipse cx="430.9" cy="425.7" rx="38.4"  ry="8.2" fill="#ffffff" opacity=".88"/><ellipse cx="569.1" cy="425.7" rx="38.4"  ry="8.2" fill="#ffffff" opacity=".88"/><line x1="486.0355489046872" y1="414.85670031476764" x2="515.221235984508" y2="411.78673245124514" stroke="#ff2040" stroke-opacity=".52" stroke-width="2"/><line x1="483.72707954017443" y1="437.7458497029729" x2="514.2056037527882" y2="439.4307067329995" stroke="#ff2040" stroke-opacity=".52" stroke-width="2"/><line x1="498.53081359406934" y1="453.3305007022805" x2="499.8617249872535" y2="484.7518653662876" stroke="#ff2040" stroke-opacity=".58" stroke-width="2.2" filter="url(#skr1x5408)"/><line x1="454.26483777284625" y1="490.97160165552043" x2="452.24837118394674" y2="520.0675963786431" stroke="#ff2040" stroke-opacity=".52" stroke-width="1.5" filter="url(#skr1x5408)"/><line x1="478.6958911116607" y1="490.21746448753396" x2="478.21979483313856" y2="518.7250849620439" stroke="#ff2040" stroke-opacity=".52" stroke-width="1.5" filter="url(#skr1x5408)"/><line x1="501.21681892629715" y1="493.0267951181158" x2="500.6002030703239" y2="519.1131140809506" stroke="#ff2040" stroke-opacity=".52" stroke-width="1.5" filter="url(#skr1x5408)"/><line x1="522.9634254765324" y1="492.7658541970886" x2="522.8243593705445" y2="520.6547328229993" stroke="#ff2040" stroke-opacity=".52" stroke-width="1.5" filter="url(#skr1x5408)"/><line x1="546.7353260723129" y1="490.032126553636" x2="545.0809999661707" y2="520.3319324540905" stroke="#ff2040" stroke-opacity=".52" stroke-width="1.5" filter="url(#skr1x5408)"/><polygon points="433.3,504.1 566.7,503.9 552.9,558.6 448.0,557.6" fill="#cc0020" fill-opacity=".72" stroke="#ff2040" stroke-width="1.3" filter="url(#skr1x5408)"/><path d="M397.7210525645688 346.717214510683 C343.1675551829301 155.46955658197405 449.7831202140264 229.0105588082224 474.32216096125546 322.3936927369796" fill="#ff2040" stroke="#ff2040" stroke-width="2.8" filter="url(#skr1x5408)"/><path d="M602.570807280317 349.2570257446729 C659.2319946387411 156.16082179415974 551.6697601958923 228.82749141873794 523.940224683229 321.4255485665984" fill="#ff2040" stroke="#ff2040" stroke-width="2.8" filter="url(#skr1x5408)"/><path d="M391.4060109207593 426.87823778372257 L460.35663433913146 391.10470090508466 L500.09156998042016 427.1285884249024 L537.0535044611431 392.4443317473866 L607.840445483271 425.22533592637626" stroke="#ff2040" stroke-width="2.2" fill="none" filter="url(#skr1x5408)"/><text x="30.0"  y="975.0" font-family="monospace" font-weight="bold" font-size="22.0" fill="rgba(255,255,255,.22)">#0001</text><text x="500.0"   y="975.0" text-anchor="middle" font-family="monospace" font-weight="bold" font-size="22.0" fill="#ff2040" fill-opacity=".48">CRIMSON RANGER</text><text x="970.0" y="975.0" text-anchor="end"    font-family="monospace" font-weight="bold" font-size="22.0" fill="#ff2040" fill-opacity=".32">MECH RANGERS</text></svg>