<svg xmlns="http://www.w3.org/2000/svg" viewBox="0 0 1000 1000" width="1000" height="1000" shape-rendering="geometricPrecision"><defs>

  <!-- Scene gradients -->
  <radialGradient id="bgr1x5425" cx="50%" cy="42%" r="72%">
    <stop offset="0%"   stop-color="#0a0a14"/>
    <stop offset="100%" stop-color="#050508"/>
  </radialGradient>
  <linearGradient id="suitr1x5425" x1="8%" y1="0%" x2="92%" y2="100%">
    <stop offset="0%"   stop-color="#ff44aa" stop-opacity=".95"/>
    <stop offset="45%"  stop-color="#880050"/>
    <stop offset="100%" stop-color="#050508"/>
  </linearGradient>
  <linearGradient id="suitHir1x5425" x1="0%" y1="0%" x2="0%" y2="100%">
    <stop offset="0%"   stop-color="rgba(255,255,255,.28)"/>
    <stop offset="60%"  stop-color="rgba(255,255,255,.04)"/>
    <stop offset="100%" stop-color="rgba(255,255,255,0)"/>
  </linearGradient>
  <!-- Bevel: bright top, dark bottom for armour panels -->
  <linearGradient id="bevelr1x5425" x1="0%" y1="0%" x2="0%" y2="100%">
    <stop offset="0%"   stop-color="rgba(255,255,255,.55)"/>
    <stop offset="30%"  stop-color="#ff44aa"/>
    <stop offset="70%"  stop-color="#880050"/>
    <stop offset="100%" stop-color="rgba(0,0,0,.5)"/>
  </linearGradient>

  <!-- Weapon: cold steel blade sweep -->
  <linearGradient id="blader1x5425" x1="0%" y1="0%" x2="100%" y2="0%">
    <stop offset="0%"   stop-color="#0e0e20"/>
    <stop offset="16%"  stop-color="#3e3e58"/>
    <stop offset="34%"  stop-color="#c8c8e0"/>
    <stop offset="50%"  stop-color="#f5f5ff"/>
    <stop offset="66%"  stop-color="#b8b8d0"/>
    <stop offset="84%"  stop-color="#2e2e48"/>
    <stop offset="100%" stop-color="#08080e"/>
  </linearGradient>
  <!-- Blade tip brightening -->
  <linearGradient id="bladeTipr1x5425" x1="0%" y1="100%" x2="0%" y2="0%">
    <stop offset="0%"   stop-color="rgba(255,255,255,0)"/>
    <stop offset="55%"  stop-color="rgba(255,255,255,.1)"/>
    <stop offset="100%" stop-color="rgba(255,255,255,.55)"/>
  </linearGradient>
  <!-- Gunmetal anodised — blaster body -->
  <linearGradient id="gunmetalr1x5425" x1="0%" y1="0%" x2="0%" y2="100%">
    <stop offset="0%"   stop-color="#46465e"/>
    <stop offset="18%"  stop-color="#828296"/>
    <stop offset="42%"  stop-color="#26263a"/>
    <stop offset="72%"  stop-color="#16162a"/>
    <stop offset="100%" stop-color="#0c0c18"/>
  </linearGradient>
  <!-- Brushed steel tube — barrel/rod -->
  <linearGradient id="barrelr1x5425" x1="0%" y1="0%" x2="100%" y2="0%">
    <stop offset="0%"   stop-color="#0a0a14"/>
    <stop offset="24%"  stop-color="#585875"/>
    <stop offset="50%"  stop-color="#a8a8c8"/>
    <stop offset="76%"  stop-color="#383852"/>
    <stop offset="100%" stop-color="#0a0a14"/>
  </linearGradient>
  <!-- Chrome rod — lance shaft -->
  <linearGradient id="chromer1x5425" x1="0%" y1="0%" x2="100%" y2="0%">
    <stop offset="0%"   stop-color="#0c0c18"/>
    <stop offset="20%"  stop-color="#686888"/>
    <stop offset="44%"  stop-color="#e0e0f0"/>
    <stop offset="56%"  stop-color="#c0c0d8"/>
    <stop offset="80%"  stop-color="#28283e"/>
    <stop offset="100%" stop-color="#0c0c18"/>
  </linearGradient>
  <!-- Titanium plate — shield face -->
  <linearGradient id="titaniumr1x5425" x1="0%" y1="0%" x2="100%" y2="100%">
    <stop offset="0%"   stop-color="#585878"/>
    <stop offset="28%"  stop-color="#ff44aa" stop-opacity=".88"/>
    <stop offset="55%"  stop-color="#880050"/>
    <stop offset="80%"  stop-color="#181828"/>
    <stop offset="100%" stop-color="#0a0a18"/>
  </linearGradient>
  <!-- Artillery black-chrome — cannon body -->
  <linearGradient id="artilleryr1x5425" x1="0%" y1="0%" x2="0%" y2="100%">
    <stop offset="0%"   stop-color="#383850"/>
    <stop offset="14%"  stop-color="#78789a"/>
    <stop offset="36%"  stop-color="#202034"/>
    <stop offset="65%"  stop-color="#14141e"/>
    <stop offset="100%" stop-color="#0a0a12"/>
  </linearGradient>
  <!-- Energy orb — staff -->
  <radialGradient id="orbr1x5425" cx="35%" cy="35%" r="65%">
    <stop offset="0%"   stop-color="rgba(255,255,255,.9)"/>
    <stop offset="30%"  stop-color="#ff44aa"/>
    <stop offset="68%"  stop-color="#880050"/>
    <stop offset="100%" stop-color="rgba(0,0,0,.6)"/>
  </radialGradient>
  <!-- Knuckle plate chrome -->
  <linearGradient id="knuckler1x5425" x1="0%" y1="0%" x2="0%" y2="100%">
    <stop offset="0%"   stop-color="#888aaa"/>
    <stop offset="32%"  stop-color="#ff44aa" stop-opacity=".8"/>
    <stop offset="62%"  stop-color="#1a1a2c"/>
    <stop offset="100%" stop-color="#0a0a14"/>
  </linearGradient>

  <!-- Carbon fibre weave texture overlay -->
  <pattern id="carbonr1x5425" width="6" height="6" patternUnits="userSpaceOnUse">
    <rect width="6" height="6" fill="rgba(0,0,0,.08)"/>
    <rect x="0" y="0" width="3" height="3" fill="rgba(255,255,255,.022)"/>
    <rect x="3" y="3" width="3" height="3" fill="rgba(255,255,255,.022)"/>
    <line x1="0" y1="0" x2="3" y2="3" stroke="rgba(255,255,255,.038)" stroke-width=".5"/>
    <line x1="3" y1="0" x2="6" y2="3" stroke="rgba(0,0,0,.055)"       stroke-width=".5"/>
    <line x1="0" y1="3" x2="3" y2="6" stroke="rgba(0,0,0,.055)"       stroke-width=".5"/>
    <line x1="3" y1="3" x2="6" y2="6" stroke="rgba(255,255,255,.038)" stroke-width=".5"/>
  </pattern>

  <!-- Specular metal sheen on armour panels -->
  <filter id="metalr1x5425" x="-5%" y="-5%" width="110%" height="110%">
    <feSpecularLighting surfaceScale="4" specularConstant="1.8"
        specularExponent="42" lighting-color="#ffffff" result="spec">
      <feDistantLight elevation="52" azimuth="38"/>
    </feSpecularLighting>
    <feComposite in="spec" in2="SourceGraphic" operator="in" result="sm"/>
    <feComposite in="SourceGraphic" in2="sm" operator="arithmetic" k1="0" k2="1" k3="0.55" k4="0"/>
  </filter>

  <!-- Sharper specular for weapons — heavier glare -->
  <filter id="wmr1x5425" x="-8%" y="-8%" width="116%" height="116%">
    <feSpecularLighting surfaceScale="6" specularConstant="2.4"
        specularExponent="65" lighting-color="#ffffff" result="spec">
      <feDistantLight elevation="44" azimuth="28"/>
    </feSpecularLighting>
    <feComposite in="spec" in2="SourceGraphic" operator="in" result="sm"/>
    <feComposite in="SourceGraphic" in2="sm" operator="arithmetic" k1="0" k2="1" k3="0.78" k4="0"/>
  </filter>

  <!-- Sketch wobble -->
  <filter id="skr1x5425" x="-8%" y="-8%" width="116%" height="116%">
    <feTurbulence type="fractalNoise" baseFrequency="0.038"
        numOctaves="3" seed="71" result="noise"/>
    <feDisplacementMap in="SourceGraphic" in2="noise" scale="2.6"
        xChannelSelector="R" yChannelSelector="G" result="w"/>
    <feComposite in="w" in2="SourceGraphic" operator="atop"/>
  </filter>

  <!-- Glow: sharp accent -->
  <filter id="glowr1x5425" x="-20%" y="-20%" width="140%" height="140%">
    <feGaussianBlur stdDeviation="3.5" result="b"/>
    <feColorMatrix in="b" type="matrix"
        values="0 0 0 0 1  0 0 0 0 1  0 0 0 0 1  0 0 0 1.8 0" result="boost"/>
    <feMerge><feMergeNode in="boost"/><feMergeNode in="SourceGraphic"/></feMerge>
  </filter>

  <!-- Bloom: wide soft -->
  <filter id="bloomr1x5425" x="-40%" y="-40%" width="180%" height="180%">
    <feGaussianBlur stdDeviation="11" result="b"/>
    <feMerge><feMergeNode in="b"/><feMergeNode in="SourceGraphic"/></feMerge>
  </filter>

  </defs><rect width="1000" height="1000" fill="url(#bgr1x5425)"/><ellipse cx="500.0" cy="892.0" rx="350.0" ry="65.0" fill="rgba(0,0,0,.7)" filter="url(#bloomr1x5425)"/><ellipse cx="500.0" cy="889.0" rx="220.0" ry="34.0" fill="rgba(0,0,0,.45)"/><ellipse cx="500.0" cy="520.0" rx="320.0" ry="480.0" fill="#6600ff" fill-opacity=".042" filter="url(#bloomr1x5425)"/><circle cx="348.0" cy="788.6" r="2.3" fill="#6600ff" fill-opacity="0.50" filter="url(#glowr1x5425)"/><circle cx="260.4" cy="210.6" r="3.8" fill="#6600ff" fill-opacity="0.65" filter="url(#glowr1x5425)"/><circle cx="744.5" cy="464.7" r="3.0" fill="#6600ff" fill-opacity="0.78" filter="url(#glowr1x5425)"/><circle cx="598.9" cy="659.8" r="1.1" fill="#6600ff" fill-opacity="0.75" filter="url(#glowr1x5425)"/><circle cx="443.2" cy="560.6" r="0.5" fill="#6600ff" fill-opacity="0.88" filter="url(#glowr1x5425)"/><circle cx="626.2" cy="265.5" r="0.9" fill="#6600ff" fill-opacity="0.65" filter="url(#glowr1x5425)"/><circle cx="679.9" cy="783.2" r="0.8" fill="#6600ff" fill-opacity="0.49" filter="url(#glowr1x5425)"/><circle cx="472.9" cy="188.6" r="2.4" fill="#6600ff" fill-opacity="0.84" filter="url(#glowr1x5425)"/><circle cx="642.0" cy="384.5" r="2.5" fill="#6600ff" fill-opacity="0.52" filter="url(#glowr1x5425)"/><circle cx="525.0" cy="754.8" r="3.4" fill="#6600ff" fill-opacity="0.62" filter="url(#glowr1x5425)"/><circle cx="476.5" cy="344.8" r="3.1" fill="#6600ff" fill-opacity="0.43" filter="url(#glowr1x5425)"/><circle cx="604.8" cy="368.2" r="1.5" fill="#6600ff" fill-opacity="0.87" filter="url(#glowr1x5425)"/><circle cx="585.7" cy="725.4" r="2.5" fill="#6600ff" fill-opacity="0.84" filter="url(#glowr1x5425)"/><circle cx="629.6" cy="284.8" r="0.9" fill="#6600ff" fill-opacity="0.52" filter="url(#glowr1x5425)"/><polygon points="398.5,662.1 489.6,661.2 479.0,876.1 386.0,878.2" fill="url(#suitr1x5425)" stroke="#ff44aa" stroke-width="2.2" filter="url(#skr1x5425) url(#metalr1x5425)"/><polygon points="397.6,663.4 490.4,663.8 479.7,878.6 388.3,878.4" fill="url(#carbonr1x5425)"/><polygon points="394.3,723.5 494.2,724.6 483.9,786.6 382.3,788.9" fill="url(#bevelr1x5425)" fill-opacity=".5" stroke="#ff44aa" stroke-width="1.4" filter="url(#skr1x5425)"/><polygon points="510.6,660.8 602.7,663.8 612.8,879.2 520.3,879.0" fill="url(#suitr1x5425)" stroke="#ff44aa" stroke-width="2.2" filter="url(#skr1x5425) url(#metalr1x5425)"/><polygon points="509.1,664.0 600.5,663.0 613.1,878.0 518.3,876.0" fill="url(#carbonr1x5425)"/><polygon points="506.7,722.8 607.3,724.2 615.5,789.7 516.7,788.8" fill="url(#bevelr1x5425)" fill-opacity=".5" stroke="#ff44aa" stroke-width="1.4" filter="url(#skr1x5425)"/><rect x="392.1" y="839.2" width="100.3" height="24.7" fill="url(#bevelr1x5425)" stroke="#ff44aa" stroke-width="1" filter="url(#skr1x5425)"/><rect x="507.0"  y="840.2" width="100.3" height="24.7" fill="url(#bevelr1x5425)" stroke="#ff44aa" stroke-width="1" filter="url(#skr1x5425)"/><polygon points="370.3,877.9 498.0,877.0 502.2,921.7 361.0,922.3" fill="#880050" stroke="#ff44aa" stroke-width="2" filter="url(#skr1x5425)"/><polygon points="504.2,877.6 630.3,876.8 636.4,921.2 496.8,921.9" fill="#880050" stroke="#ff44aa" stroke-width="2" filter="url(#skr1x5425)"/><polygon points="303.8,631.6 694.4,634.5 638.0,681.5 362.1,682.7" fill="#ff44aa" fill-opacity=".52" stroke="#ff44aa" stroke-width="2" filter="url(#skr1x5425)"/><rect x="465.6" y="636.3" width="72.0" height="42.0" fill="url(#bevelr1x5425)" stroke="#ff44aa" stroke-width="1.4" filter="url(#glowr1x5425)"/><rect x="484.8" y="641.8" width="28.0" height="22.0" rx="1" fill="rgba(255,255,255,.48)"/><polygon points="154.8,466.4 234.6,466.5 257.0,735.2 128.8,733.5" fill="url(#suitr1x5425)" stroke="#ff44aa" stroke-width="2.2" filter="url(#skr1x5425) url(#metalr1x5425)"/><polygon points="174.1,432.7 252.2,434.0 242.9,509.4 158.3,509.0" fill="url(#bevelr1x5425)" fill-opacity=".72" stroke="#ff44aa" stroke-width="2.2" filter="url(#skr1x5425)"/><polygon points="161.3,620.2 243.9,621.3 238.8,659.3 166.3,661.7" fill="#ff44aa" fill-opacity=".42" stroke="#ff44aa" stroke-width="1" filter="url(#skr1x5425)"/><polygon points="766.0,465.6 845.3,466.2 872.2,735.9 743.4,735.7" fill="url(#suitr1x5425)" stroke="#ff44aa" stroke-width="2.2" filter="url(#skr1x5425) url(#metalr1x5425)"/><polygon points="747.0,432.1 825.1,432.6 841.0,509.0 757.3,509.4" fill="url(#bevelr1x5425)" fill-opacity=".72" stroke="#ff44aa" stroke-width="2.2" filter="url(#skr1x5425)"/><polygon points="755.8,623.5 839.4,620.3 836.1,660.4 761.0,662.6" fill="#ff44aa" fill-opacity=".42" stroke="#ff44aa" stroke-width="1" filter="url(#skr1x5425)"/><rect x="119.7"  y="699.5" width="135.3" height="85.0" rx="4" fill="url(#bevelr1x5425)" stroke="#ff44aa" stroke-width="1.8" filter="url(#skr1x5425)"/><rect x="750.3"   y="699.1" width="135.3" height="85.0" rx="4" fill="url(#bevelr1x5425)" stroke="#ff44aa" stroke-width="1.8" filter="url(#skr1x5425)"/><line x1="150.0" y1="703.6" x2="150.1" y2="785.2" stroke="#ff44aa" stroke-opacity=".38" stroke-width="1"/><line x1="776.5" y1="700.9" x2="777.1" y2="782.7" stroke="#ff44aa" stroke-opacity=".38" stroke-width="1"/><line x1="183.6" y1="701.0" x2="183.7" y2="782.9" stroke="#ff44aa" stroke-opacity=".38" stroke-width="1"/><line x1="812.1" y1="700.3" x2="809.3" y2="784.5" stroke="#ff44aa" stroke-opacity=".38" stroke-width="1"/><line x1="216.4" y1="701.6" x2="215.8" y2="784.8" stroke="#ff44aa" stroke-opacity=".38" stroke-width="1"/><line x1="843.7" y1="703.4" x2="842.7" y2="783.6" stroke="#ff44aa" stroke-opacity=".38" stroke-width="1"/><polygon points="236.6,415.8 764.7,417.4 721.1,662.0 276.6,661.9" fill="url(#suitr1x5425)" stroke="#ff44aa" stroke-width="2.6" filter="url(#skr1x5425) url(#metalr1x5425)"/><polygon points="236.7,418.0 763.3,419.0 722.6,663.1 276.2,663.3" fill="url(#carbonr1x5425)"/><polygon points="366.1,417.0 633.1,417.7 612.9,515.6 387.3,515.4" fill="url(#suitHir1x5425)"/><line x1="363.1" y1="469.9" x2="636.6" y2="471.7" stroke="#ff44aa" stroke-opacity=".52" stroke-width="1.3" filter="url(#skr1x5425)"/><line x1="399.3" y1="551.2" x2="601.7" y2="548.1" stroke="#ff44aa" stroke-opacity=".52" stroke-width="1.3" filter="url(#skr1x5425)"/><line x1="266.8" y1="491.8" x2="320.5" y2="490.4" stroke="#ff44aa" stroke-opacity=".62" stroke-width="1.8"/><line x1="681.2" y1="492.2" x2="731.5" y2="491.0" stroke="#ff44aa" stroke-opacity=".62" stroke-width="1.8"/><line x1="266.3" y1="523.9" x2="318.3" y2="522.8" stroke="#ff44aa" stroke-opacity=".62" stroke-width="1.8"/><line x1="680.4" y1="522.5" x2="734.2" y2="524.6" stroke="#ff44aa" stroke-opacity=".62" stroke-width="1.8"/><line x1="267.7" y1="555.5" x2="320.1" y2="556.4" stroke="#ff44aa" stroke-opacity=".62" stroke-width="1.8"/><line x1="680.9" y1="552.9" x2="732.4" y2="553.7" stroke="#ff44aa" stroke-opacity=".62" stroke-width="1.8"/><line x1="265.2" y1="587.0" x2="321.6" y2="587.8" stroke="#ff44aa" stroke-opacity=".62" stroke-width="1.8"/><line x1="678.7" y1="586.4" x2="733.5" y2="587.3" stroke="#ff44aa" stroke-opacity=".62" stroke-width="1.8"/><g filter="url(#glowr1x5425)"><polygon points="500.5,452.0 514.0,489.8 554.3,493.8 525.6,518.2 535.4,556.7 501.0,537.9 467.1,558.0 476.4,517.7 443.7,493.7 484.0,489.8 " fill="#ff44aa" stroke="#050508" stroke-width="1.4" filter="url(#skr1x5425)"/><polygon points="500.5,452.0 514.0,489.8 554.3,493.8 525.6,518.2 535.4,556.7 501.0,537.9 467.1,558.0 476.4,517.7 443.7,493.7 484.0,489.8 " fill="url(#suitHir1x5425)" opacity=".45"/></g><g><polygon points="33.5,295.1 173.4,292.1 172.6,590.0 102.8,727.7 33.8,592.8" fill="url(#titaniumr1x5425)" stroke="#ff44aa" stroke-width="2.6" filter="url(#wmr1x5425)"/><polygon points="33.3,293.2 172.1,292.4 171.2,591.4 102.0,727.2 32.8,591.3" fill="url(#carbonr1x5425)"/><polygon points="62.9,360.1 140.2,362.6 138.5,542.5 102.8,631.5 65.8,542.1" fill="#ff44aa" fill-opacity=".28" stroke="#ff44aa" stroke-width="1.5"/><line x1="51.8332359403744" y1="432.9932633472606" x2="154.87143594281744" y2="430.13734162542966" stroke="#ff44aa" stroke-opacity=".65" stroke-width="1.3"/><line x1="100.88300344463434" y1="331.1522645813413" x2="102.45003211557862" y2="591.4293838587589" stroke="#ff44aa" stroke-opacity=".4" stroke-width="1"/><line x1="34.937655157167434" y1="297.65093022957444" x2="171.0100976655632" y2="296.3275991798378" stroke="rgba(255,255,255,.5)" stroke-width="2"/><circle cx="103.7412529115006" cy="431.7149665173143" r="18.0" fill="url(#bevelr1x5425)" stroke="#ff44aa" stroke-width="1.2" filter="url(#wmr1x5425)"/></g><rect x="451.0532534125261" y="557.6931746850721" width="100.0"  height="56.0" fill="#880050" stroke="#ff44aa" stroke-width="2.2" filter="url(#skr1x5425)"/><rect x="423.7043388119899" y="575.728552050516" width="152.0" height="26.0" fill="url(#bevelr1x5425)" fill-opacity=".65" stroke="#ff44aa" stroke-width="1.2" filter="url(#skr1x5425)"/><polygon points="309.8,380.2 351.7,293.4 499.5,278.3 649.2,292.8 693.3,382.2 668.4,504.9 500.7,564.2 330.9,502.6" fill="url(#suitr1x5425)" stroke="#ff44aa" stroke-width="2.8" filter="url(#skr1x5425) url(#metalr1x5425)"/><polygon points="308.8,379.3 349.3,293.5 500.9,278.8 651.0,292.9 693.3,380.6 669.5,502.2 500.5,563.8 330.9,504.5" fill="url(#carbonr1x5425)"/><polygon points="381.3,303.3 499.2,285.6 620.1,303.6 609.3,379.6 391.3,379.9" fill="url(#suitHir1x5425)"/><polygon points="379.5,381.9 364.8,425.4 432.0,502.5 498.3,527.0 566.3,503.6 635.0,425.0 618.6,380.8" fill="#050508" fill-opacity=".88" stroke="#ff44aa" stroke-width="1.8" filter="url(#skr1x5425)"/><polygon points="379.7,410.8 478.0,411.4 483.2,441.2 389.7,439.6" fill="#ff44aa" filter="url(#glowr1x5425)"/><polygon points="524.0,410.0 618.1,410.7 610.0,441.7 515.7,439.6" fill="#ff44aa" filter="url(#glowr1x5425)"/><ellipse cx="430.9" cy="425.7" rx="38.4"  ry="8.2" fill="#ffffff" opacity=".88"/><ellipse cx="569.1" cy="425.7" rx="38.4"  ry="8.2" fill="#ffffff" opacity=".88"/><line x1="485.7395131252333" y1="411.86510658692566" x2="515.1720858713985" y2="414.3008975023404" stroke="#ff44aa" stroke-opacity=".52" stroke-width="2"/><line x1="484.8986479432881" y1="437.6139888351783" x2="516.9276608131267" y2="439.3364984789863" stroke="#ff44aa" stroke-opacity=".52" stroke-width="2"/><line x1="500.47691263649614" y1="452.916686474625" x2="498.2400191318244" y2="482.4766895825044" stroke="#ff44aa" stroke-opacity=".58" stroke-width="2.2" filter="url(#skr1x5425)"/><line x1="453.28399091202766" y1="491.42563230739904" x2="452.8635660910793" y2="519.9273282079957" stroke="#ff44aa" stroke-opacity=".52" stroke-width="1.5" filter="url(#skr1x5425)"/><line x1="477.66961576057594" y1="491.7093582654371" x2="475.91632639452814" y2="520.4107655006461" stroke="#ff44aa" stroke-opacity=".52" stroke-width="1.5" filter="url(#skr1x5425)"/><line x1="500.06135107707235" y1="492.74368424592535" x2="501.74981338493524" y2="518.9908407290466" stroke="#ff44aa" stroke-opacity=".52" stroke-width="1.5" filter="url(#skr1x5425)"/><line x1="524.4749582974798" y1="489.69525175141166" x2="521.967715811599" y2="518.4893070516176" stroke="#ff44aa" stroke-opacity=".52" stroke-width="1.5" filter="url(#skr1x5425)"/><line x1="545.6443746462651" y1="490.60657029710706" x2="545.7723900687137" y2="520.637917142734" stroke="#ff44aa" stroke-opacity=".52" stroke-width="1.5" filter="url(#skr1x5425)"/><polygon points="431.6,503.8 566.7,503.0 554.7,555.4 447.7,555.4" fill="#880050" fill-opacity=".72" stroke="#ff44aa" stroke-width="1.3" filter="url(#skr1x5425)"/><text x="30.0"  y="975.0" font-family="monospace" font-weight="bold" font-size="22.0" fill="rgba(255,255,255,.22)">#0001</text><text x="500.0"   y="975.0" text-anchor="middle" font-family="monospace" font-weight="bold" font-size="22.0" fill="#ff44aa" fill-opacity=".48">SAKURA RANGER</text><text x="970.0" y="975.0" text-anchor="end"    font-family="monospace" font-weight="bold" font-size="22.0" fill="#ff44aa" fill-opacity=".32">MECH RANGERS</text></svg>