<svg xmlns="http://www.w3.org/2000/svg" viewBox="0 0 1000 1000" width="1000" height="1000" shape-rendering="geometricPrecision"><defs>

  <!-- Scene gradients -->
  <radialGradient id="bgr1x5460" cx="50%" cy="42%" r="72%">
    <stop offset="0%"   stop-color="#0e000e"/>
    <stop offset="100%" stop-color="#1e0600"/>
  </radialGradient>
  <linearGradient id="suitr1x5460" x1="8%" y1="0%" x2="92%" y2="100%">
    <stop offset="0%"   stop-color="#c0c0d0" stop-opacity=".95"/>
    <stop offset="45%"  stop-color="#2c2c3c"/>
    <stop offset="100%" stop-color="#1e0600"/>
  </linearGradient>
  <linearGradient id="suitHir1x5460" x1="0%" y1="0%" x2="0%" y2="100%">
    <stop offset="0%"   stop-color="rgba(255,255,255,.28)"/>
    <stop offset="60%"  stop-color="rgba(255,255,255,.04)"/>
    <stop offset="100%" stop-color="rgba(255,255,255,0)"/>
  </linearGradient>
  <!-- Bevel: bright top, dark bottom for armour panels -->
  <linearGradient id="bevelr1x5460" x1="0%" y1="0%" x2="0%" y2="100%">
    <stop offset="0%"   stop-color="rgba(255,255,255,.55)"/>
    <stop offset="30%"  stop-color="#c0c0d0"/>
    <stop offset="70%"  stop-color="#2c2c3c"/>
    <stop offset="100%" stop-color="rgba(0,0,0,.5)"/>
  </linearGradient>

  <!-- Weapon: cold steel blade sweep -->
  <linearGradient id="blader1x5460" x1="0%" y1="0%" x2="100%" y2="0%">
    <stop offset="0%"   stop-color="#0e0e20"/>
    <stop offset="16%"  stop-color="#3e3e58"/>
    <stop offset="34%"  stop-color="#c8c8e0"/>
    <stop offset="50%"  stop-color="#f5f5ff"/>
    <stop offset="66%"  stop-color="#b8b8d0"/>
    <stop offset="84%"  stop-color="#2e2e48"/>
    <stop offset="100%" stop-color="#08080e"/>
  </linearGradient>
  <!-- Blade tip brightening -->
  <linearGradient id="bladeTipr1x5460" x1="0%" y1="100%" x2="0%" y2="0%">
    <stop offset="0%"   stop-color="rgba(255,255,255,0)"/>
    <stop offset="55%"  stop-color="rgba(255,255,255,.1)"/>
    <stop offset="100%" stop-color="rgba(255,255,255,.55)"/>
  </linearGradient>
  <!-- Gunmetal anodised — blaster body -->
  <linearGradient id="gunmetalr1x5460" x1="0%" y1="0%" x2="0%" y2="100%">
    <stop offset="0%"   stop-color="#46465e"/>
    <stop offset="18%"  stop-color="#828296"/>
    <stop offset="42%"  stop-color="#26263a"/>
    <stop offset="72%"  stop-color="#16162a"/>
    <stop offset="100%" stop-color="#0c0c18"/>
  </linearGradient>
  <!-- Brushed steel tube — barrel/rod -->
  <linearGradient id="barrelr1x5460" x1="0%" y1="0%" x2="100%" y2="0%">
    <stop offset="0%"   stop-color="#0a0a14"/>
    <stop offset="24%"  stop-color="#585875"/>
    <stop offset="50%"  stop-color="#a8a8c8"/>
    <stop offset="76%"  stop-color="#383852"/>
    <stop offset="100%" stop-color="#0a0a14"/>
  </linearGradient>
  <!-- Chrome rod — lance shaft -->
  <linearGradient id="chromer1x5460" x1="0%" y1="0%" x2="100%" y2="0%">
    <stop offset="0%"   stop-color="#0c0c18"/>
    <stop offset="20%"  stop-color="#686888"/>
    <stop offset="44%"  stop-color="#e0e0f0"/>
    <stop offset="56%"  stop-color="#c0c0d8"/>
    <stop offset="80%"  stop-color="#28283e"/>
    <stop offset="100%" stop-color="#0c0c18"/>
  </linearGradient>
  <!-- Titanium plate — shield face -->
  <linearGradient id="titaniumr1x5460" x1="0%" y1="0%" x2="100%" y2="100%">
    <stop offset="0%"   stop-color="#585878"/>
    <stop offset="28%"  stop-color="#c0c0d0" stop-opacity=".88"/>
    <stop offset="55%"  stop-color="#2c2c3c"/>
    <stop offset="80%"  stop-color="#181828"/>
    <stop offset="100%" stop-color="#0a0a18"/>
  </linearGradient>
  <!-- Artillery black-chrome — cannon body -->
  <linearGradient id="artilleryr1x5460" x1="0%" y1="0%" x2="0%" y2="100%">
    <stop offset="0%"   stop-color="#383850"/>
    <stop offset="14%"  stop-color="#78789a"/>
    <stop offset="36%"  stop-color="#202034"/>
    <stop offset="65%"  stop-color="#14141e"/>
    <stop offset="100%" stop-color="#0a0a12"/>
  </linearGradient>
  <!-- Energy orb — staff -->
  <radialGradient id="orbr1x5460" cx="35%" cy="35%" r="65%">
    <stop offset="0%"   stop-color="rgba(255,255,255,.9)"/>
    <stop offset="30%"  stop-color="#c0c0d0"/>
    <stop offset="68%"  stop-color="#2c2c3c"/>
    <stop offset="100%" stop-color="rgba(0,0,0,.6)"/>
  </radialGradient>
  <!-- Knuckle plate chrome -->
  <linearGradient id="knuckler1x5460" x1="0%" y1="0%" x2="0%" y2="100%">
    <stop offset="0%"   stop-color="#888aaa"/>
    <stop offset="32%"  stop-color="#c0c0d0" stop-opacity=".8"/>
    <stop offset="62%"  stop-color="#1a1a2c"/>
    <stop offset="100%" stop-color="#0a0a14"/>
  </linearGradient>

  <!-- Carbon fibre weave texture overlay -->
  <pattern id="carbonr1x5460" width="6" height="6" patternUnits="userSpaceOnUse">
    <rect width="6" height="6" fill="rgba(0,0,0,.08)"/>
    <rect x="0" y="0" width="3" height="3" fill="rgba(255,255,255,.022)"/>
    <rect x="3" y="3" width="3" height="3" fill="rgba(255,255,255,.022)"/>
    <line x1="0" y1="0" x2="3" y2="3" stroke="rgba(255,255,255,.038)" stroke-width=".5"/>
    <line x1="3" y1="0" x2="6" y2="3" stroke="rgba(0,0,0,.055)"       stroke-width=".5"/>
    <line x1="0" y1="3" x2="3" y2="6" stroke="rgba(0,0,0,.055)"       stroke-width=".5"/>
    <line x1="3" y1="3" x2="6" y2="6" stroke="rgba(255,255,255,.038)" stroke-width=".5"/>
  </pattern>

  <!-- Specular metal sheen on armour panels -->
  <filter id="metalr1x5460" x="-5%" y="-5%" width="110%" height="110%">
    <feSpecularLighting surfaceScale="4" specularConstant="1.8"
        specularExponent="42" lighting-color="#ffffff" result="spec">
      <feDistantLight elevation="52" azimuth="38"/>
    </feSpecularLighting>
    <feComposite in="spec" in2="SourceGraphic" operator="in" result="sm"/>
    <feComposite in="SourceGraphic" in2="sm" operator="arithmetic" k1="0" k2="1" k3="0.55" k4="0"/>
  </filter>

  <!-- Sharper specular for weapons — heavier glare -->
  <filter id="wmr1x5460" x="-8%" y="-8%" width="116%" height="116%">
    <feSpecularLighting surfaceScale="6" specularConstant="2.4"
        specularExponent="65" lighting-color="#ffffff" result="spec">
      <feDistantLight elevation="44" azimuth="28"/>
    </feSpecularLighting>
    <feComposite in="spec" in2="SourceGraphic" operator="in" result="sm"/>
    <feComposite in="SourceGraphic" in2="sm" operator="arithmetic" k1="0" k2="1" k3="0.78" k4="0"/>
  </filter>

  <!-- Sketch wobble -->
  <filter id="skr1x5460" x="-8%" y="-8%" width="116%" height="116%">
    <feTurbulence type="fractalNoise" baseFrequency="0.038"
        numOctaves="3" seed="57" result="noise"/>
    <feDisplacementMap in="SourceGraphic" in2="noise" scale="2.6"
        xChannelSelector="R" yChannelSelector="G" result="w"/>
    <feComposite in="w" in2="SourceGraphic" operator="atop"/>
  </filter>

  <!-- Glow: sharp accent -->
  <filter id="glowr1x5460" x="-20%" y="-20%" width="140%" height="140%">
    <feGaussianBlur stdDeviation="3.5" result="b"/>
    <feColorMatrix in="b" type="matrix"
        values="0 0 0 0 1  0 0 0 0 1  0 0 0 0 1  0 0 0 1.8 0" result="boost"/>
    <feMerge><feMergeNode in="boost"/><feMergeNode in="SourceGraphic"/></feMerge>
  </filter>

  <!-- Bloom: wide soft -->
  <filter id="bloomr1x5460" x="-40%" y="-40%" width="180%" height="180%">
    <feGaussianBlur stdDeviation="11" result="b"/>
    <feMerge><feMergeNode in="b"/><feMergeNode in="SourceGraphic"/></feMerge>
  </filter>

  </defs><rect width="1000" height="1000" fill="url(#bgr1x5460)"/><ellipse cx="500.0" cy="1000" rx="850.0" ry="350.0" fill="#ff4500" fill-opacity=".11" filter="url(#bloomr1x5460)"/><ellipse cx="500.0" cy="892.0" rx="350.0" ry="65.0" fill="rgba(0,0,0,.7)" filter="url(#bloomr1x5460)"/><ellipse cx="500.0" cy="889.0" rx="220.0" ry="34.0" fill="rgba(0,0,0,.45)"/><ellipse cx="500.0" cy="520.0" rx="320.0" ry="480.0" fill="#ffffff" fill-opacity=".042" filter="url(#bloomr1x5460)"/><circle cx="322.1" cy="396.1" r="0.7" fill="#ffffff" fill-opacity="0.40" filter="url(#glowr1x5460)"/><circle cx="729.2" cy="235.3" r="4.1" fill="#ffffff" fill-opacity="0.87" filter="url(#glowr1x5460)"/><circle cx="682.9" cy="496.2" r="2.2" fill="#ffffff" fill-opacity="0.54" filter="url(#glowr1x5460)"/><circle cx="652.3" cy="514.9" r="4.2" fill="#ffffff" fill-opacity="0.79" filter="url(#glowr1x5460)"/><circle cx="255.8" cy="540.5" r="2.4" fill="#ffffff" fill-opacity="0.79" filter="url(#glowr1x5460)"/><circle cx="669.4" cy="461.3" r="3.6" fill="#ffffff" fill-opacity="0.73" filter="url(#glowr1x5460)"/><circle cx="743.8" cy="246.9" r="1.5" fill="#ffffff" fill-opacity="0.49" filter="url(#glowr1x5460)"/><circle cx="449.5" cy="296.4" r="0.9" fill="#ffffff" fill-opacity="0.72" filter="url(#glowr1x5460)"/><circle cx="281.0" cy="595.9" r="4.2" fill="#ffffff" fill-opacity="0.71" filter="url(#glowr1x5460)"/><circle cx="549.3" cy="454.3" r="0.6" fill="#ffffff" fill-opacity="0.70" filter="url(#glowr1x5460)"/><circle cx="438.4" cy="356.9" r="1.1" fill="#ffffff" fill-opacity="0.46" filter="url(#glowr1x5460)"/><circle cx="403.4" cy="776.4" r="1.4" fill="#ffffff" fill-opacity="0.64" filter="url(#glowr1x5460)"/><circle cx="651.2" cy="202.6" r="1.1" fill="#ffffff" fill-opacity="0.60" filter="url(#glowr1x5460)"/><circle cx="548.1" cy="563.4" r="3.6" fill="#ffffff" fill-opacity="0.65" filter="url(#glowr1x5460)"/><polygon points="400.4,663.9 489.8,662.5 481.9,878.5 387.1,879.1" fill="url(#suitr1x5460)" stroke="#c0c0d0" stroke-width="2.2" filter="url(#skr1x5460) url(#metalr1x5460)"/><polygon points="398.4,663.3 489.7,662.3 480.1,877.8 388.2,876.9" fill="url(#carbonr1x5460)"/><polygon points="394.4,724.6 493.8,724.0 483.8,788.5 383.5,787.9" fill="url(#bevelr1x5460)" fill-opacity=".5" stroke="#c0c0d0" stroke-width="1.4" filter="url(#skr1x5460)"/><polygon points="510.6,663.5 600.4,661.5 611.3,875.9 517.6,878.0" fill="url(#suitr1x5460)" stroke="#c0c0d0" stroke-width="2.2" filter="url(#skr1x5460) url(#metalr1x5460)"/><polygon points="512.2,663.5 601.5,660.7 613.8,878.5 520.8,878.4" fill="url(#carbonr1x5460)"/><polygon points="508.5,722.1 607.8,723.6 615.2,789.8 517.5,786.5" fill="url(#bevelr1x5460)" fill-opacity=".5" stroke="#c0c0d0" stroke-width="1.4" filter="url(#skr1x5460)"/><rect x="392.3" y="839.6" width="100.3" height="24.7" fill="url(#bevelr1x5460)" stroke="#c0c0d0" stroke-width="1" filter="url(#skr1x5460)"/><rect x="508.1"  y="839.5" width="100.3" height="24.7" fill="url(#bevelr1x5460)" stroke="#c0c0d0" stroke-width="1" filter="url(#skr1x5460)"/><polygon points="368.6,877.7 495.4,876.4 504.1,922.6 363.5,922.4" fill="#2c2c3c" stroke="#c0c0d0" stroke-width="2" filter="url(#skr1x5460)"/><polygon points="502.1,875.7 630.0,878.0 635.5,921.0 495.7,920.3" fill="#2c2c3c" stroke="#c0c0d0" stroke-width="2" filter="url(#skr1x5460)"/><polygon points="303.8,632.7 695.3,633.8 638.3,683.8 362.5,682.6" fill="#c0c0d0" fill-opacity=".52" stroke="#c0c0d0" stroke-width="2" filter="url(#skr1x5460)"/><rect x="464.9" y="638.8" width="72.0" height="42.0" fill="url(#bevelr1x5460)" stroke="#c0c0d0" stroke-width="1.4" filter="url(#glowr1x5460)"/><rect x="485.4" y="640.0" width="28.0" height="22.0" rx="1" fill="rgba(255,255,255,.48)"/><polygon points="152.3,468.1 235.2,464.8 257.5,735.1 130.2,734.2" fill="url(#suitr1x5460)" stroke="#c0c0d0" stroke-width="2.2" filter="url(#skr1x5460) url(#metalr1x5460)"/><polygon points="171.9,433.1 253.4,432.1 244.5,509.7 160.4,509.6" fill="url(#bevelr1x5460)" fill-opacity=".72" stroke="#c0c0d0" stroke-width="2.2" filter="url(#skr1x5460)"/><polygon points="162.3,623.1 242.4,621.1 239.2,662.4 164.8,661.2" fill="#c0c0d0" fill-opacity=".42" stroke="#c0c0d0" stroke-width="1" filter="url(#skr1x5460)"/><polygon points="765.4,468.0 846.6,467.5 871.5,735.0 742.1,736.7" fill="url(#suitr1x5460)" stroke="#c0c0d0" stroke-width="2.2" filter="url(#skr1x5460) url(#metalr1x5460)"/><polygon points="746.6,431.3 828.0,433.0 841.7,511.6 755.5,512.2" fill="url(#bevelr1x5460)" fill-opacity=".72" stroke="#c0c0d0" stroke-width="2.2" filter="url(#skr1x5460)"/><polygon points="756.3,621.0 837.8,622.8 836.0,660.2 760.1,660.2" fill="#c0c0d0" fill-opacity=".42" stroke="#c0c0d0" stroke-width="1" filter="url(#skr1x5460)"/><rect x="121.0"  y="698.1" width="135.3" height="85.0" rx="4" fill="url(#bevelr1x5460)" stroke="#c0c0d0" stroke-width="1.8" filter="url(#skr1x5460)"/><rect x="747.2"   y="699.0" width="135.3" height="85.0" rx="4" fill="url(#bevelr1x5460)" stroke="#c0c0d0" stroke-width="1.8" filter="url(#skr1x5460)"/><line x1="148.3" y1="702.7" x2="150.0" y2="782.4" stroke="#c0c0d0" stroke-opacity=".38" stroke-width="1"/><line x1="779.6" y1="702.1" x2="778.8" y2="782.2" stroke="#c0c0d0" stroke-opacity=".38" stroke-width="1"/><line x1="182.1" y1="703.0" x2="183.4" y2="783.7" stroke="#c0c0d0" stroke-opacity=".38" stroke-width="1"/><line x1="810.2" y1="701.7" x2="809.3" y2="784.9" stroke="#c0c0d0" stroke-opacity=".38" stroke-width="1"/><line x1="213.5" y1="701.6" x2="216.1" y2="784.0" stroke="#c0c0d0" stroke-opacity=".38" stroke-width="1"/><line x1="844.7" y1="700.6" x2="842.7" y2="784.8" stroke="#c0c0d0" stroke-opacity=".38" stroke-width="1"/><polygon points="234.2,417.2 764.5,415.9 723.0,664.1 277.0,661.7" fill="url(#suitr1x5460)" stroke="#c0c0d0" stroke-width="2.6" filter="url(#skr1x5460) url(#metalr1x5460)"/><polygon points="233.2,419.0 766.3,416.2 721.3,664.3 276.7,661.7" fill="url(#carbonr1x5460)"/><polygon points="367.2,419.0 633.0,416.6 610.2,516.9 387.4,515.7" fill="url(#suitHir1x5460)"/><line x1="360.9" y1="470.5" x2="638.4" y2="473.2" stroke="#c0c0d0" stroke-opacity=".52" stroke-width="1.3" filter="url(#skr1x5460)"/><line x1="400.2" y1="551.2" x2="602.0" y2="548.8" stroke="#c0c0d0" stroke-opacity=".52" stroke-width="1.3" filter="url(#skr1x5460)"/><line x1="266.8" y1="491.6" x2="319.7" y2="489.8" stroke="#c0c0d0" stroke-opacity=".62" stroke-width="1.8"/><line x1="679.1" y1="491.5" x2="732.1" y2="492.3" stroke="#c0c0d0" stroke-opacity=".62" stroke-width="1.8"/><line x1="265.2" y1="523.2" x2="318.4" y2="522.1" stroke="#c0c0d0" stroke-opacity=".62" stroke-width="1.8"/><line x1="679.9" y1="523.1" x2="733.6" y2="523.1" stroke="#c0c0d0" stroke-opacity=".62" stroke-width="1.8"/><line x1="266.7" y1="555.2" x2="320.3" y2="556.0" stroke="#c0c0d0" stroke-opacity=".62" stroke-width="1.8"/><line x1="680.1" y1="554.2" x2="733.4" y2="556.1" stroke="#c0c0d0" stroke-opacity=".62" stroke-width="1.8"/><line x1="266.0" y1="585.4" x2="319.6" y2="588.3" stroke="#c0c0d0" stroke-opacity=".62" stroke-width="1.8"/><line x1="679.1" y1="587.4" x2="733.8" y2="585.3" stroke="#c0c0d0" stroke-opacity=".62" stroke-width="1.8"/><g filter="url(#glowr1x5460)"><polygon points="481.0,453.2 511.7,505.2 498.4,506.0 517.1,568.5 487.2,515.5 499.3,515.0" fill="#c0c0d0" stroke="#1e0600" stroke-width="1.4" filter="url(#skr1x5460)"/><polygon points="483.0,452.5 511.8,504.5 500.8,505.0 516.6,568.3 487.5,515.4 498.5,516.1" fill="url(#suitHir1x5460)" opacity=".4"/></g><g><polygon points="871.8,671.4 923.8,671.4 908.2,-28.6 887.4,-28.6" fill="url(#blader1x5460)" filter="url(#wmr1x5460)"/><polygon points="887.4,-28.6 908.2,-28.6 897.8,-138.6" fill="url(#blader1x5460)" filter="url(#wmr1x5460)"/><polygon points="896.0,671.4 899.7,671.4 898.4,-128.6 897.3,-128.6" fill="url(#bladeTipr1x5460)" opacity=".9"/><line x1="908.5494604543783" y1="670.762303286232" x2="899.6018122779392" y2="-128.2072533364408" stroke="rgba(255,255,255,.68)" stroke-width="1.5"/><line x1="888.9536925775185" y1="670.5003987195902" x2="897.2501766586677" y2="-130.0111346521415" stroke="#c0c0d0" stroke-width="1" stroke-opacity=".45"/><line x1="902.5" y1="651.4" x2="899.7" y2="11.4" stroke="rgba(0,0,0,.38)" stroke-width="1.6"/><line x1="893.2" y1="651.4" x2="896.0" y2="11.4" stroke="rgba(0,0,0,.38)" stroke-width="1.6"/><rect x="842.7718004989066" y="669.2242089875973" width="112.0" height="28.0" rx="3" fill="url(#bevelr1x5460)" stroke="#c0c0d0" stroke-width="1.6" filter="url(#wmr1x5460)"/><rect x="866.4705579071865" y="672.4409870967269" width="64.0" height="10.0" rx="1" fill="rgba(255,255,255,.32)"/><rect x="884.880388877783" y="676.8618823327124" width="24.0" height="6.0" rx="1" fill="#c0c0d0" fill-opacity=".35"/><rect x="885.4303922530822" y="685.6979102697223" width="24.0" height="6.0" rx="1" fill="#c0c0d0" fill-opacity=".35"/><rect x="887.4219483797998" y="694.4017144746147" width="24.0" height="6.0" rx="1" fill="#c0c0d0" fill-opacity=".35"/><rect x="886.9025075189397" y="700.0289563461207" width="24.0" height="6.0" rx="1" fill="#c0c0d0" fill-opacity=".35"/><rect x="885.705478554368" y="708.1993106340058" width="24.0" height="6.0" rx="1" fill="#c0c0d0" fill-opacity=".35"/><rect x="886.9240975572355" y="715.8296325588599" width="24.0" height="6.0" rx="1" fill="#c0c0d0" fill-opacity=".35"/><ellipse cx="898.815249202922" cy="725.2664649049751" rx="22.0" ry="16.0" fill="url(#bevelr1x5460)" stroke="#c0c0d0" stroke-width="1.2" filter="url(#wmr1x5460)"/></g><rect x="448.851110496372" y="555.772491640877" width="100.0"  height="56.0" fill="#2c2c3c" stroke="#c0c0d0" stroke-width="2.2" filter="url(#skr1x5460)"/><rect x="425.0065990538336" y="576.8276997918264" width="152.0" height="26.0" fill="url(#bevelr1x5460)" fill-opacity=".65" stroke="#c0c0d0" stroke-width="1.2" filter="url(#skr1x5460)"/><polygon points="308.2,382.2 350.4,293.5 501.2,279.2 649.9,295.8 691.9,381.1 667.5,502.7 501.2,564.5 329.8,503.0" fill="url(#suitr1x5460)" stroke="#c0c0d0" stroke-width="2.8" filter="url(#skr1x5460) url(#metalr1x5460)"/><polygon points="307.5,381.2 351.1,293.6 499.1,276.4 650.3,292.9 693.6,381.0 667.7,501.9 499.0,566.7 331.7,504.0" fill="url(#carbonr1x5460)"/><polygon points="379.9,301.2 501.2,287.4 620.0,304.0 608.6,380.2 393.3,379.3" fill="url(#suitHir1x5460)"/><polygon points="382.6,381.6 364.3,424.2 434.1,503.4 501.8,529.1 566.4,502.9 633.9,424.7 618.5,380.7" fill="#1e0600" fill-opacity=".88" stroke="#c0c0d0" stroke-width="1.8" filter="url(#skr1x5460)"/><polygon points="381.3,410.9 477.8,409.6 484.7,441.4 389.4,438.5" fill="#c0c0d0" filter="url(#glowr1x5460)"/><polygon points="524.3,411.7 620.7,413.1 611.6,441.6 514.7,439.0" fill="#c0c0d0" filter="url(#glowr1x5460)"/><ellipse cx="430.9" cy="425.7" rx="38.4"  ry="8.2" fill="#ffffff" opacity=".88"/><ellipse cx="569.1" cy="425.7" rx="38.4"  ry="8.2" fill="#ffffff" opacity=".88"/><line x1="486.0906319769658" y1="412.2993990646675" x2="514.1898191027716" y2="413.43912355396895" stroke="#c0c0d0" stroke-opacity=".52" stroke-width="2"/><line x1="483.72945144945754" y1="438.99850563900543" x2="517.0283201578446" y2="436.73127376539634" stroke="#c0c0d0" stroke-opacity=".52" stroke-width="2"/><line x1="499.10868885768576" y1="453.09133522473275" x2="500.0429973167367" y2="484.1832914637402" stroke="#c0c0d0" stroke-opacity=".58" stroke-width="2.2" filter="url(#skr1x5460)"/><line x1="454.3076907054335" y1="489.8518941735848" x2="455.2442680517957" y2="518.7753149216063" stroke="#c0c0d0" stroke-opacity=".52" stroke-width="1.5" filter="url(#skr1x5460)"/><line x1="475.9975872928649" y1="491.4873991914093" x2="477.73235731491815" y2="520.7627845838666" stroke="#c0c0d0" stroke-opacity=".52" stroke-width="1.5" filter="url(#skr1x5460)"/><line x1="501.6383536847308" y1="489.6240990879945" x2="501.4752593152225" y2="521.460213959124" stroke="#c0c0d0" stroke-opacity=".52" stroke-width="1.5" filter="url(#skr1x5460)"/><line x1="522.4816968055069" y1="490.5012433102354" x2="523.3183448985777" y2="521.7711961136199" stroke="#c0c0d0" stroke-opacity=".52" stroke-width="1.5" filter="url(#skr1x5460)"/><line x1="546.6372992654518" y1="490.2118217534385" x2="547.6032539888472" y2="520.4763357427903" stroke="#c0c0d0" stroke-opacity=".52" stroke-width="1.5" filter="url(#skr1x5460)"/><polygon points="433.7,502.0 568.2,503.4 553.9,558.1 448.0,557.9" fill="#2c2c3c" fill-opacity=".72" stroke="#c0c0d0" stroke-width="1.3" filter="url(#skr1x5460)"/><circle cx="500.0" cy="315.0" r="203.5" fill="none" stroke="#c0c0d0" stroke-width="3" stroke-dasharray="6,4" filter="url(#bloomr1x5460)"/><circle cx="500.0" cy="315.0" r="134.4"   fill="none" stroke="#c0c0d0" stroke-width="1.2" stroke-opacity=".42"/><circle cx="703.5" cy="315.0" r="1.8" fill="#c0c0d0" filter="url(#glowr1x5460)"/><circle cx="688.0" cy="392.9" r="2.7" fill="#c0c0d0" filter="url(#glowr1x5460)"/><circle cx="643.9" cy="458.9" r="2.8" fill="#c0c0d0" filter="url(#glowr1x5460)"/><circle cx="577.9" cy="503.0" r="2.0" fill="#c0c0d0" filter="url(#glowr1x5460)"/><circle cx="500.0" cy="518.5" r="1.0" fill="#c0c0d0" filter="url(#glowr1x5460)"/><circle cx="422.1" cy="503.0" r="0.7" fill="#c0c0d0" filter="url(#glowr1x5460)"/><circle cx="356.1" cy="458.9" r="1.5" fill="#c0c0d0" filter="url(#glowr1x5460)"/><circle cx="312.0" cy="392.9" r="2.5" fill="#c0c0d0" filter="url(#glowr1x5460)"/><circle cx="296.5" cy="315.0" r="2.9" fill="#c0c0d0" filter="url(#glowr1x5460)"/><circle cx="312.0" cy="237.1" r="2.3" fill="#c0c0d0" filter="url(#glowr1x5460)"/><circle cx="356.1" cy="171.1" r="1.2" fill="#c0c0d0" filter="url(#glowr1x5460)"/><circle cx="422.1" cy="127.0" r="0.7" fill="#c0c0d0" filter="url(#glowr1x5460)"/><circle cx="500.0" cy="111.5" r="1.2" fill="#c0c0d0" filter="url(#glowr1x5460)"/><circle cx="577.9" cy="127.0" r="2.3" fill="#c0c0d0" filter="url(#glowr1x5460)"/><circle cx="643.9" cy="171.1" r="2.9" fill="#c0c0d0" filter="url(#glowr1x5460)"/><circle cx="688.0" cy="237.1" r="2.5" fill="#c0c0d0" filter="url(#glowr1x5460)"/><text x="30.0"  y="975.0" font-family="monospace" font-weight="bold" font-size="22.0" fill="rgba(255,255,255,.22)">#0001</text><text x="500.0"   y="975.0" text-anchor="middle" font-family="monospace" font-weight="bold" font-size="22.0" fill="#c0c0d0" fill-opacity=".48">CHROME RANGER</text><text x="970.0" y="975.0" text-anchor="end"    font-family="monospace" font-weight="bold" font-size="22.0" fill="#c0c0d0" fill-opacity=".32">MECH RANGERS</text></svg>