<svg xmlns="http://www.w3.org/2000/svg" viewBox="0 0 1000 1000" width="1000" height="1000" shape-rendering="geometricPrecision"><defs>

  <!-- Scene gradients -->
  <radialGradient id="bgr1x5470" cx="50%" cy="42%" r="72%">
    <stop offset="0%"   stop-color="#1a2814"/>
    <stop offset="100%" stop-color="#0d1520"/>
  </radialGradient>
  <linearGradient id="suitr1x5470" x1="8%" y1="0%" x2="92%" y2="100%">
    <stop offset="0%"   stop-color="#00ff60" stop-opacity=".95"/>
    <stop offset="45%"  stop-color="#00441e"/>
    <stop offset="100%" stop-color="#0d1520"/>
  </linearGradient>
  <linearGradient id="suitHir1x5470" x1="0%" y1="0%" x2="0%" y2="100%">
    <stop offset="0%"   stop-color="rgba(255,255,255,.28)"/>
    <stop offset="60%"  stop-color="rgba(255,255,255,.04)"/>
    <stop offset="100%" stop-color="rgba(255,255,255,0)"/>
  </linearGradient>
  <!-- Bevel: bright top, dark bottom for armour panels -->
  <linearGradient id="bevelr1x5470" x1="0%" y1="0%" x2="0%" y2="100%">
    <stop offset="0%"   stop-color="rgba(255,255,255,.55)"/>
    <stop offset="30%"  stop-color="#00ff60"/>
    <stop offset="70%"  stop-color="#00441e"/>
    <stop offset="100%" stop-color="rgba(0,0,0,.5)"/>
  </linearGradient>

  <!-- Weapon: cold steel blade sweep -->
  <linearGradient id="blader1x5470" x1="0%" y1="0%" x2="100%" y2="0%">
    <stop offset="0%"   stop-color="#0e0e20"/>
    <stop offset="16%"  stop-color="#3e3e58"/>
    <stop offset="34%"  stop-color="#c8c8e0"/>
    <stop offset="50%"  stop-color="#f5f5ff"/>
    <stop offset="66%"  stop-color="#b8b8d0"/>
    <stop offset="84%"  stop-color="#2e2e48"/>
    <stop offset="100%" stop-color="#08080e"/>
  </linearGradient>
  <!-- Blade tip brightening -->
  <linearGradient id="bladeTipr1x5470" x1="0%" y1="100%" x2="0%" y2="0%">
    <stop offset="0%"   stop-color="rgba(255,255,255,0)"/>
    <stop offset="55%"  stop-color="rgba(255,255,255,.1)"/>
    <stop offset="100%" stop-color="rgba(255,255,255,.55)"/>
  </linearGradient>
  <!-- Gunmetal anodised — blaster body -->
  <linearGradient id="gunmetalr1x5470" x1="0%" y1="0%" x2="0%" y2="100%">
    <stop offset="0%"   stop-color="#46465e"/>
    <stop offset="18%"  stop-color="#828296"/>
    <stop offset="42%"  stop-color="#26263a"/>
    <stop offset="72%"  stop-color="#16162a"/>
    <stop offset="100%" stop-color="#0c0c18"/>
  </linearGradient>
  <!-- Brushed steel tube — barrel/rod -->
  <linearGradient id="barrelr1x5470" x1="0%" y1="0%" x2="100%" y2="0%">
    <stop offset="0%"   stop-color="#0a0a14"/>
    <stop offset="24%"  stop-color="#585875"/>
    <stop offset="50%"  stop-color="#a8a8c8"/>
    <stop offset="76%"  stop-color="#383852"/>
    <stop offset="100%" stop-color="#0a0a14"/>
  </linearGradient>
  <!-- Chrome rod — lance shaft -->
  <linearGradient id="chromer1x5470" x1="0%" y1="0%" x2="100%" y2="0%">
    <stop offset="0%"   stop-color="#0c0c18"/>
    <stop offset="20%"  stop-color="#686888"/>
    <stop offset="44%"  stop-color="#e0e0f0"/>
    <stop offset="56%"  stop-color="#c0c0d8"/>
    <stop offset="80%"  stop-color="#28283e"/>
    <stop offset="100%" stop-color="#0c0c18"/>
  </linearGradient>
  <!-- Titanium plate — shield face -->
  <linearGradient id="titaniumr1x5470" x1="0%" y1="0%" x2="100%" y2="100%">
    <stop offset="0%"   stop-color="#585878"/>
    <stop offset="28%"  stop-color="#00ff60" stop-opacity=".88"/>
    <stop offset="55%"  stop-color="#00441e"/>
    <stop offset="80%"  stop-color="#181828"/>
    <stop offset="100%" stop-color="#0a0a18"/>
  </linearGradient>
  <!-- Artillery black-chrome — cannon body -->
  <linearGradient id="artilleryr1x5470" x1="0%" y1="0%" x2="0%" y2="100%">
    <stop offset="0%"   stop-color="#383850"/>
    <stop offset="14%"  stop-color="#78789a"/>
    <stop offset="36%"  stop-color="#202034"/>
    <stop offset="65%"  stop-color="#14141e"/>
    <stop offset="100%" stop-color="#0a0a12"/>
  </linearGradient>
  <!-- Energy orb — staff -->
  <radialGradient id="orbr1x5470" cx="35%" cy="35%" r="65%">
    <stop offset="0%"   stop-color="rgba(255,255,255,.9)"/>
    <stop offset="30%"  stop-color="#00ff60"/>
    <stop offset="68%"  stop-color="#00441e"/>
    <stop offset="100%" stop-color="rgba(0,0,0,.6)"/>
  </radialGradient>
  <!-- Knuckle plate chrome -->
  <linearGradient id="knuckler1x5470" x1="0%" y1="0%" x2="0%" y2="100%">
    <stop offset="0%"   stop-color="#888aaa"/>
    <stop offset="32%"  stop-color="#00ff60" stop-opacity=".8"/>
    <stop offset="62%"  stop-color="#1a1a2c"/>
    <stop offset="100%" stop-color="#0a0a14"/>
  </linearGradient>

  <!-- Carbon fibre weave texture overlay -->
  <pattern id="carbonr1x5470" width="6" height="6" patternUnits="userSpaceOnUse">
    <rect width="6" height="6" fill="rgba(0,0,0,.08)"/>
    <rect x="0" y="0" width="3" height="3" fill="rgba(255,255,255,.022)"/>
    <rect x="3" y="3" width="3" height="3" fill="rgba(255,255,255,.022)"/>
    <line x1="0" y1="0" x2="3" y2="3" stroke="rgba(255,255,255,.038)" stroke-width=".5"/>
    <line x1="3" y1="0" x2="6" y2="3" stroke="rgba(0,0,0,.055)"       stroke-width=".5"/>
    <line x1="0" y1="3" x2="3" y2="6" stroke="rgba(0,0,0,.055)"       stroke-width=".5"/>
    <line x1="3" y1="3" x2="6" y2="6" stroke="rgba(255,255,255,.038)" stroke-width=".5"/>
  </pattern>

  <!-- Specular metal sheen on armour panels -->
  <filter id="metalr1x5470" x="-5%" y="-5%" width="110%" height="110%">
    <feSpecularLighting surfaceScale="4" specularConstant="1.8"
        specularExponent="42" lighting-color="#ffffff" result="spec">
      <feDistantLight elevation="52" azimuth="38"/>
    </feSpecularLighting>
    <feComposite in="spec" in2="SourceGraphic" operator="in" result="sm"/>
    <feComposite in="SourceGraphic" in2="sm" operator="arithmetic" k1="0" k2="1" k3="0.55" k4="0"/>
  </filter>

  <!-- Sharper specular for weapons — heavier glare -->
  <filter id="wmr1x5470" x="-8%" y="-8%" width="116%" height="116%">
    <feSpecularLighting surfaceScale="6" specularConstant="2.4"
        specularExponent="65" lighting-color="#ffffff" result="spec">
      <feDistantLight elevation="44" azimuth="28"/>
    </feSpecularLighting>
    <feComposite in="spec" in2="SourceGraphic" operator="in" result="sm"/>
    <feComposite in="SourceGraphic" in2="sm" operator="arithmetic" k1="0" k2="1" k3="0.78" k4="0"/>
  </filter>

  <!-- Sketch wobble -->
  <filter id="skr1x5470" x="-8%" y="-8%" width="116%" height="116%">
    <feTurbulence type="fractalNoise" baseFrequency="0.038"
        numOctaves="3" seed="4" result="noise"/>
    <feDisplacementMap in="SourceGraphic" in2="noise" scale="2.6"
        xChannelSelector="R" yChannelSelector="G" result="w"/>
    <feComposite in="w" in2="SourceGraphic" operator="atop"/>
  </filter>

  <!-- Glow: sharp accent -->
  <filter id="glowr1x5470" x="-20%" y="-20%" width="140%" height="140%">
    <feGaussianBlur stdDeviation="3.5" result="b"/>
    <feColorMatrix in="b" type="matrix"
        values="0 0 0 0 1  0 0 0 0 1  0 0 0 0 1  0 0 0 1.8 0" result="boost"/>
    <feMerge><feMergeNode in="boost"/><feMergeNode in="SourceGraphic"/></feMerge>
  </filter>

  <!-- Bloom: wide soft -->
  <filter id="bloomr1x5470" x="-40%" y="-40%" width="180%" height="180%">
    <feGaussianBlur stdDeviation="11" result="b"/>
    <feMerge><feMergeNode in="b"/><feMergeNode in="SourceGraphic"/></feMerge>
  </filter>

  </defs><rect width="1000" height="1000" fill="url(#bgr1x5470)"/><ellipse cx="500.0" cy="892.0" rx="350.0" ry="65.0" fill="rgba(0,0,0,.7)" filter="url(#bloomr1x5470)"/><ellipse cx="500.0" cy="889.0" rx="220.0" ry="34.0" fill="rgba(0,0,0,.45)"/><ellipse cx="500.0" cy="520.0" rx="320.0" ry="480.0" fill="#ff00ff" fill-opacity=".042" filter="url(#bloomr1x5470)"/><circle cx="479.4" cy="597.4" r="0.8" fill="#ff00ff" fill-opacity="0.58" filter="url(#glowr1x5470)"/><circle cx="353.2" cy="730.0" r="2.4" fill="#ff00ff" fill-opacity="0.75" filter="url(#glowr1x5470)"/><circle cx="326.5" cy="407.8" r="1.5" fill="#ff00ff" fill-opacity="0.82" filter="url(#glowr1x5470)"/><circle cx="523.9" cy="710.6" r="1.8" fill="#ff00ff" fill-opacity="0.63" filter="url(#glowr1x5470)"/><circle cx="275.4" cy="679.7" r="2.0" fill="#ff00ff" fill-opacity="0.64" filter="url(#glowr1x5470)"/><circle cx="718.8" cy="525.8" r="4.1" fill="#ff00ff" fill-opacity="0.81" filter="url(#glowr1x5470)"/><circle cx="375.0" cy="618.0" r="3.8" fill="#ff00ff" fill-opacity="0.73" filter="url(#glowr1x5470)"/><circle cx="374.8" cy="695.1" r="0.7" fill="#ff00ff" fill-opacity="0.69" filter="url(#glowr1x5470)"/><circle cx="505.1" cy="633.8" r="0.8" fill="#ff00ff" fill-opacity="0.49" filter="url(#glowr1x5470)"/><circle cx="332.1" cy="431.2" r="2.1" fill="#ff00ff" fill-opacity="0.86" filter="url(#glowr1x5470)"/><circle cx="657.8" cy="582.4" r="4.0" fill="#ff00ff" fill-opacity="0.60" filter="url(#glowr1x5470)"/><circle cx="679.4" cy="503.1" r="0.6" fill="#ff00ff" fill-opacity="0.54" filter="url(#glowr1x5470)"/><circle cx="274.2" cy="371.1" r="0.7" fill="#ff00ff" fill-opacity="0.68" filter="url(#glowr1x5470)"/><circle cx="494.1" cy="555.2" r="2.6" fill="#ff00ff" fill-opacity="0.59" filter="url(#glowr1x5470)"/><path d="M462.3,159.8 Q501.4,462.2 664.0,805.9" stroke="#ff00ff" stroke-opacity="0.72" stroke-width="0.9" fill="none" filter="url(#glowr1x5470)"/><path d="M640.9,328.1 Q651.1,572.4 650.9,767.5" stroke="#ff00ff" stroke-opacity="0.59" stroke-width="1.0" fill="none" filter="url(#glowr1x5470)"/><path d="M412.6,343.6 Q378.3,619.5 666.5,854.1" stroke="#ff00ff" stroke-opacity="0.39" stroke-width="1.7" fill="none" filter="url(#glowr1x5470)"/><path d="M638.5,316.9 Q639.7,477.7 654.7,686.1" stroke="#ff00ff" stroke-opacity="0.51" stroke-width="1.8" fill="none" filter="url(#glowr1x5470)"/><path d="M357.7,232.6 Q385.0,461.7 561.7,685.4" stroke="#ff00ff" stroke-opacity="0.52" stroke-width="0.7" fill="none" filter="url(#glowr1x5470)"/><polygon points="398.8,664.0 488.4,663.9 479.9,877.2 387.0,876.7" fill="url(#suitr1x5470)" stroke="#00ff60" stroke-width="2.2" filter="url(#skr1x5470) url(#metalr1x5470)"/><polygon points="398.1,663.5 488.5,662.0 482.3,878.7 387.1,879.0" fill="url(#carbonr1x5470)"/><polygon points="390.9,724.6 491.8,724.8 483.2,787.6 382.6,788.2" fill="url(#bevelr1x5470)" fill-opacity=".5" stroke="#00ff60" stroke-width="1.4" filter="url(#skr1x5470)"/><polygon points="509.2,661.2 601.0,662.7 611.8,875.9 520.4,878.8" fill="url(#suitr1x5470)" stroke="#00ff60" stroke-width="2.2" filter="url(#skr1x5470) url(#metalr1x5470)"/><polygon points="511.4,661.0 600.6,660.9 611.5,879.3 520.1,878.2" fill="url(#carbonr1x5470)"/><polygon points="507.6,724.2 607.3,723.1 614.9,789.0 517.3,786.8" fill="url(#bevelr1x5470)" fill-opacity=".5" stroke="#00ff60" stroke-width="1.4" filter="url(#skr1x5470)"/><rect x="394.3" y="837.5" width="100.3" height="24.7" fill="url(#bevelr1x5470)" stroke="#00ff60" stroke-width="1" filter="url(#skr1x5470)"/><rect x="507.7"  y="838.3" width="100.3" height="24.7" fill="url(#bevelr1x5470)" stroke="#00ff60" stroke-width="1" filter="url(#skr1x5470)"/><polygon points="368.5,877.6 497.7,877.9 502.9,921.0 364.3,921.9" fill="#00441e" stroke="#00ff60" stroke-width="2" filter="url(#skr1x5470)"/><polygon points="504.3,877.6 630.3,878.3 638.2,921.3 496.7,922.7" fill="#00441e" stroke="#00ff60" stroke-width="2" filter="url(#skr1x5470)"/><polygon points="303.9,632.1 696.3,631.5 638.2,681.3 361.5,681.8" fill="#00ff60" fill-opacity=".52" stroke="#00ff60" stroke-width="2" filter="url(#skr1x5470)"/><rect x="462.9" y="639.3" width="72.0" height="42.0" fill="url(#bevelr1x5470)" stroke="#00ff60" stroke-width="1.4" filter="url(#glowr1x5470)"/><rect x="486.0" y="641.6" width="28.0" height="22.0" rx="1" fill="rgba(255,255,255,.48)"/><polygon points="152.3,467.7 236.3,467.5 256.8,736.1 127.2,734.2" fill="url(#suitr1x5470)" stroke="#00ff60" stroke-width="2.2" filter="url(#skr1x5470) url(#metalr1x5470)"/><polygon points="172.5,430.7 251.7,432.5 244.1,511.8 160.0,509.9" fill="url(#bevelr1x5470)" fill-opacity=".72" stroke="#00ff60" stroke-width="2.2" filter="url(#skr1x5470)"/><polygon points="162.8,623.4 241.5,623.7 237.9,661.1 166.2,659.6" fill="#00ff60" fill-opacity=".42" stroke="#00ff60" stroke-width="1" filter="url(#skr1x5470)"/><polygon points="764.6,466.9 846.9,466.7 872.2,734.8 740.9,734.2" fill="url(#suitr1x5470)" stroke="#00ff60" stroke-width="2.2" filter="url(#skr1x5470) url(#metalr1x5470)"/><polygon points="747.1,432.1 826.5,430.9 838.7,510.9 755.0,509.5" fill="url(#bevelr1x5470)" fill-opacity=".72" stroke="#00ff60" stroke-width="2.2" filter="url(#skr1x5470)"/><polygon points="757.9,622.7 839.0,623.4 832.9,660.9 759.7,659.3" fill="#00ff60" fill-opacity=".42" stroke="#00ff60" stroke-width="1" filter="url(#skr1x5470)"/><rect x="119.4"  y="698.3" width="135.3" height="85.0" rx="4" fill="url(#bevelr1x5470)" stroke="#00ff60" stroke-width="1.8" filter="url(#skr1x5470)"/><rect x="746.9"   y="700.6" width="135.3" height="85.0" rx="4" fill="url(#bevelr1x5470)" stroke="#00ff60" stroke-width="1.8" filter="url(#skr1x5470)"/><line x1="148.8" y1="700.7" x2="150.9" y2="785.1" stroke="#00ff60" stroke-opacity=".38" stroke-width="1"/><line x1="779.6" y1="701.5" x2="778.0" y2="783.1" stroke="#00ff60" stroke-opacity=".38" stroke-width="1"/><line x1="182.8" y1="703.3" x2="182.4" y2="784.5" stroke="#00ff60" stroke-opacity=".38" stroke-width="1"/><line x1="810.3" y1="702.7" x2="812.1" y2="785.3" stroke="#00ff60" stroke-opacity=".38" stroke-width="1"/><line x1="213.6" y1="702.1" x2="216.1" y2="784.3" stroke="#00ff60" stroke-opacity=".38" stroke-width="1"/><line x1="843.1" y1="702.1" x2="842.7" y2="785.5" stroke="#00ff60" stroke-opacity=".38" stroke-width="1"/><polygon points="234.6,416.6 765.2,419.0 721.1,664.1 276.4,661.1" fill="url(#suitr1x5470)" stroke="#00ff60" stroke-width="2.6" filter="url(#skr1x5470) url(#metalr1x5470)"/><polygon points="236.1,419.0 766.8,417.2 724.1,661.7 277.7,660.9" fill="url(#carbonr1x5470)"/><polygon points="368.6,417.8 633.4,416.7 610.1,515.2 389.4,515.4" fill="url(#suitHir1x5470)"/><line x1="361.5" y1="469.8" x2="637.2" y2="471.4" stroke="#00ff60" stroke-opacity=".52" stroke-width="1.3" filter="url(#skr1x5470)"/><line x1="401.1" y1="550.1" x2="600.6" y2="548.6" stroke="#00ff60" stroke-opacity=".52" stroke-width="1.3" filter="url(#skr1x5470)"/><line x1="266.2" y1="492.0" x2="319.1" y2="491.5" stroke="#00ff60" stroke-opacity=".62" stroke-width="1.8"/><line x1="680.8" y1="490.1" x2="733.8" y2="489.8" stroke="#00ff60" stroke-opacity=".62" stroke-width="1.8"/><line x1="265.8" y1="521.4" x2="319.8" y2="521.4" stroke="#00ff60" stroke-opacity=".62" stroke-width="1.8"/><line x1="681.0" y1="523.8" x2="731.8" y2="522.1" stroke="#00ff60" stroke-opacity=".62" stroke-width="1.8"/><line x1="268.1" y1="553.7" x2="320.3" y2="554.3" stroke="#00ff60" stroke-opacity=".62" stroke-width="1.8"/><line x1="679.7" y1="553.6" x2="733.7" y2="556.4" stroke="#00ff60" stroke-opacity=".62" stroke-width="1.8"/><line x1="266.8" y1="585.2" x2="320.1" y2="586.7" stroke="#00ff60" stroke-opacity=".62" stroke-width="1.8"/><line x1="680.7" y1="588.3" x2="733.2" y2="585.9" stroke="#00ff60" stroke-opacity=".62" stroke-width="1.8"/><g filter="url(#glowr1x5470)"><polygon points="499.7,451.8 542.1,509.0 501.3,567.3 456.5,510.7" fill="#00ff60" stroke="#0d1520" stroke-width="1.4" filter="url(#skr1x5470)"/><polygon points="500.1,453.6 541.0,511.8 501.5,569.9 459.7,509.5" fill="url(#suitHir1x5470)" opacity=".45"/></g><g><polygon points="871.8,671.4 923.8,671.4 908.2,-28.6 887.4,-28.6" fill="url(#blader1x5470)" filter="url(#wmr1x5470)"/><polygon points="887.4,-28.6 908.2,-28.6 897.8,-138.6" fill="url(#blader1x5470)" filter="url(#wmr1x5470)"/><polygon points="896.0,671.4 899.7,671.4 898.4,-128.6 897.3,-128.6" fill="url(#bladeTipr1x5470)" opacity=".9"/><line x1="906.1833978035488" y1="670.0896158491261" x2="900.2567569443211" y2="-129.05609838860113" stroke="rgba(255,255,255,.68)" stroke-width="1.5"/><line x1="888.0182365923375" y1="672.9111416861415" x2="897.9360276886263" y2="-127.43547292193401" stroke="#00ff60" stroke-width="1" stroke-opacity=".45"/><line x1="902.5" y1="651.4" x2="899.7" y2="11.4" stroke="rgba(0,0,0,.38)" stroke-width="1.6"/><line x1="893.2" y1="651.4" x2="896.0" y2="11.4" stroke="rgba(0,0,0,.38)" stroke-width="1.6"/><rect x="840.9282787918672" y="671.0488975003361" width="112.0" height="28.0" rx="3" fill="url(#bevelr1x5470)" stroke="#00ff60" stroke-width="1.6" filter="url(#wmr1x5470)"/><rect x="865.731075147409" y="671.7036342154257" width="64.0" height="10.0" rx="1" fill="rgba(255,255,255,.32)"/><rect x="885.2500957858376" y="676.6143248509616" width="24.0" height="6.0" rx="1" fill="#00ff60" fill-opacity=".35"/><rect x="885.9910312685744" y="686.1021634942852" width="24.0" height="6.0" rx="1" fill="#00ff60" fill-opacity=".35"/><rect x="886.7397598953545" y="694.082791767735" width="24.0" height="6.0" rx="1" fill="#00ff60" fill-opacity=".35"/><rect x="885.7720387034677" y="701.2067351762205" width="24.0" height="6.0" rx="1" fill="#00ff60" fill-opacity=".35"/><rect x="887.4144703827426" y="710.1522735104896" width="24.0" height="6.0" rx="1" fill="#00ff60" fill-opacity=".35"/><rect x="884.7026185175032" y="717.2874112607911" width="24.0" height="6.0" rx="1" fill="#00ff60" fill-opacity=".35"/><ellipse cx="898.9324828106538" cy="725.7429761882871" rx="22.0" ry="16.0" fill="url(#bevelr1x5470)" stroke="#00ff60" stroke-width="1.2" filter="url(#wmr1x5470)"/></g><rect x="449.5811972139403" y="556.6647646744735" width="100.0"  height="56.0" fill="#00441e" stroke="#00ff60" stroke-width="2.2" filter="url(#skr1x5470)"/><rect x="424.41106565827505" y="576.2220050075092" width="152.0" height="26.0" fill="url(#bevelr1x5470)" fill-opacity=".65" stroke="#00ff60" stroke-width="1.2" filter="url(#skr1x5470)"/><polygon points="307.1,381.1 351.6,294.2 499.3,278.8 650.8,295.6 690.6,382.2 670.5,502.4 498.8,565.2 331.8,503.0" fill="url(#suitr1x5470)" stroke="#00ff60" stroke-width="2.8" filter="url(#skr1x5470) url(#metalr1x5470)"/><polygon points="308.3,379.6 349.7,295.5 501.2,278.3 649.8,293.0 690.4,380.4 667.5,503.3 501.0,566.8 330.7,504.1" fill="url(#carbonr1x5470)"/><polygon points="379.2,301.9 500.1,287.2 619.9,302.6 607.0,382.2 392.5,381.1" fill="url(#suitHir1x5470)"/><polygon points="380.7,380.7 365.9,426.4 433.5,503.0 500.6,526.6 565.8,503.4 632.8,426.4 617.7,381.9" fill="#0d1520" fill-opacity=".88" stroke="#00ff60" stroke-width="1.8" filter="url(#skr1x5470)"/><polygon points="382.3,412.3 476.4,411.2 483.9,438.4 388.2,439.3" fill="#00ff60" filter="url(#glowr1x5470)"/><polygon points="522.3,410.4 620.2,410.1 611.9,439.0 516.9,441.8" fill="#00ff60" filter="url(#glowr1x5470)"/><ellipse cx="430.9" cy="425.7" rx="38.4"  ry="8.2" fill="#ffffff" opacity=".88"/><ellipse cx="569.1" cy="425.7" rx="38.4"  ry="8.2" fill="#ffffff" opacity=".88"/><line x1="484.963827991914" y1="415.1414146115072" x2="516.7066066862457" y2="413.52389102149755" stroke="#00ff60" stroke-opacity=".52" stroke-width="2"/><line x1="482.8810268855281" y1="437.89827515948565" x2="515.292579617016" y2="436.44777799537405" stroke="#00ff60" stroke-opacity=".52" stroke-width="2"/><line x1="499.38041319940237" y1="453.1275397934951" x2="500.46784360501914" y2="482.3064887764864" stroke="#00ff60" stroke-opacity=".58" stroke-width="2.2" filter="url(#skr1x5470)"/><line x1="454.38892834231257" y1="492.3284301648847" x2="452.755282516107" y2="521.0426818477921" stroke="#00ff60" stroke-opacity=".52" stroke-width="1.5" filter="url(#skr1x5470)"/><line x1="478.40592814594504" y1="490.1881552428007" x2="475.8067687920667" y2="518.484331782721" stroke="#00ff60" stroke-opacity=".52" stroke-width="1.5" filter="url(#skr1x5470)"/><line x1="501.7001828990877" y1="492.0037791388109" x2="498.8247750855051" y2="520.6714716806076" stroke="#00ff60" stroke-opacity=".52" stroke-width="1.5" filter="url(#skr1x5470)"/><line x1="523.7644882357306" y1="492.20628183493386" x2="524.5124632455967" y2="521.1568560164421" stroke="#00ff60" stroke-opacity=".52" stroke-width="1.5" filter="url(#skr1x5470)"/><line x1="545.2987738888897" y1="492.5549795932136" x2="547.5897808238119" y2="521.6549705672078" stroke="#00ff60" stroke-opacity=".52" stroke-width="1.5" filter="url(#skr1x5470)"/><polygon points="434.6,504.5 566.0,501.8 552.0,558.1 447.5,556.8" fill="#00441e" fill-opacity=".72" stroke="#00ff60" stroke-width="1.3" filter="url(#skr1x5470)"/><polygon points="316.1,305.5 362.9,303.0 338.0,193.9" fill="url(#bevelr1x5470)" fill-opacity=".95" stroke="#00ff60" stroke-width="1.6" filter="url(#skr1x5470) url(#glowr1x5470)"/><polygon points="396.4,304.1 442.8,305.5 420.0,207.9" fill="url(#bevelr1x5470)" fill-opacity=".95" stroke="#00ff60" stroke-width="1.6" filter="url(#skr1x5470) url(#glowr1x5470)"/><polygon points="475.6,305.6 523.9,304.4 501.0,222.8" fill="url(#bevelr1x5470)" fill-opacity=".95" stroke="#00ff60" stroke-width="1.6" filter="url(#skr1x5470) url(#glowr1x5470)"/><polygon points="557.4,304.2 603.0,304.6 582.4,209.9" fill="url(#bevelr1x5470)" fill-opacity=".95" stroke="#00ff60" stroke-width="1.6" filter="url(#skr1x5470) url(#glowr1x5470)"/><polygon points="638.4,303.2 684.0,306.5 661.7,197.1" fill="url(#bevelr1x5470)" fill-opacity=".95" stroke="#00ff60" stroke-width="1.6" filter="url(#skr1x5470) url(#glowr1x5470)"/><text x="30.0"  y="975.0" font-family="monospace" font-weight="bold" font-size="22.0" fill="rgba(255,255,255,.22)">#0001</text><text x="500.0"   y="975.0" text-anchor="middle" font-family="monospace" font-weight="bold" font-size="22.0" fill="#00ff60" fill-opacity=".48">VIPER RANGER</text><text x="970.0" y="975.0" text-anchor="end"    font-family="monospace" font-weight="bold" font-size="22.0" fill="#00ff60" fill-opacity=".32">MECH RANGERS</text></svg>