<svg xmlns="http://www.w3.org/2000/svg" viewBox="0 0 1000 1000" width="1000" height="1000" shape-rendering="geometricPrecision"><defs>

  <!-- Scene gradients -->
  <radialGradient id="bgr1x5473" cx="50%" cy="42%" r="72%">
    <stop offset="0%"   stop-color="#001422"/>
    <stop offset="100%" stop-color="#000a14"/>
  </radialGradient>
  <linearGradient id="suitr1x5473" x1="8%" y1="0%" x2="92%" y2="100%">
    <stop offset="0%"   stop-color="#ff44aa" stop-opacity=".95"/>
    <stop offset="45%"  stop-color="#880050"/>
    <stop offset="100%" stop-color="#000a14"/>
  </linearGradient>
  <linearGradient id="suitHir1x5473" x1="0%" y1="0%" x2="0%" y2="100%">
    <stop offset="0%"   stop-color="rgba(255,255,255,.28)"/>
    <stop offset="60%"  stop-color="rgba(255,255,255,.04)"/>
    <stop offset="100%" stop-color="rgba(255,255,255,0)"/>
  </linearGradient>
  <!-- Bevel: bright top, dark bottom for armour panels -->
  <linearGradient id="bevelr1x5473" x1="0%" y1="0%" x2="0%" y2="100%">
    <stop offset="0%"   stop-color="rgba(255,255,255,.55)"/>
    <stop offset="30%"  stop-color="#ff44aa"/>
    <stop offset="70%"  stop-color="#880050"/>
    <stop offset="100%" stop-color="rgba(0,0,0,.5)"/>
  </linearGradient>

  <!-- Weapon: cold steel blade sweep -->
  <linearGradient id="blader1x5473" x1="0%" y1="0%" x2="100%" y2="0%">
    <stop offset="0%"   stop-color="#0e0e20"/>
    <stop offset="16%"  stop-color="#3e3e58"/>
    <stop offset="34%"  stop-color="#c8c8e0"/>
    <stop offset="50%"  stop-color="#f5f5ff"/>
    <stop offset="66%"  stop-color="#b8b8d0"/>
    <stop offset="84%"  stop-color="#2e2e48"/>
    <stop offset="100%" stop-color="#08080e"/>
  </linearGradient>
  <!-- Blade tip brightening -->
  <linearGradient id="bladeTipr1x5473" x1="0%" y1="100%" x2="0%" y2="0%">
    <stop offset="0%"   stop-color="rgba(255,255,255,0)"/>
    <stop offset="55%"  stop-color="rgba(255,255,255,.1)"/>
    <stop offset="100%" stop-color="rgba(255,255,255,.55)"/>
  </linearGradient>
  <!-- Gunmetal anodised — blaster body -->
  <linearGradient id="gunmetalr1x5473" x1="0%" y1="0%" x2="0%" y2="100%">
    <stop offset="0%"   stop-color="#46465e"/>
    <stop offset="18%"  stop-color="#828296"/>
    <stop offset="42%"  stop-color="#26263a"/>
    <stop offset="72%"  stop-color="#16162a"/>
    <stop offset="100%" stop-color="#0c0c18"/>
  </linearGradient>
  <!-- Brushed steel tube — barrel/rod -->
  <linearGradient id="barrelr1x5473" x1="0%" y1="0%" x2="100%" y2="0%">
    <stop offset="0%"   stop-color="#0a0a14"/>
    <stop offset="24%"  stop-color="#585875"/>
    <stop offset="50%"  stop-color="#a8a8c8"/>
    <stop offset="76%"  stop-color="#383852"/>
    <stop offset="100%" stop-color="#0a0a14"/>
  </linearGradient>
  <!-- Chrome rod — lance shaft -->
  <linearGradient id="chromer1x5473" x1="0%" y1="0%" x2="100%" y2="0%">
    <stop offset="0%"   stop-color="#0c0c18"/>
    <stop offset="20%"  stop-color="#686888"/>
    <stop offset="44%"  stop-color="#e0e0f0"/>
    <stop offset="56%"  stop-color="#c0c0d8"/>
    <stop offset="80%"  stop-color="#28283e"/>
    <stop offset="100%" stop-color="#0c0c18"/>
  </linearGradient>
  <!-- Titanium plate — shield face -->
  <linearGradient id="titaniumr1x5473" x1="0%" y1="0%" x2="100%" y2="100%">
    <stop offset="0%"   stop-color="#585878"/>
    <stop offset="28%"  stop-color="#ff44aa" stop-opacity=".88"/>
    <stop offset="55%"  stop-color="#880050"/>
    <stop offset="80%"  stop-color="#181828"/>
    <stop offset="100%" stop-color="#0a0a18"/>
  </linearGradient>
  <!-- Artillery black-chrome — cannon body -->
  <linearGradient id="artilleryr1x5473" x1="0%" y1="0%" x2="0%" y2="100%">
    <stop offset="0%"   stop-color="#383850"/>
    <stop offset="14%"  stop-color="#78789a"/>
    <stop offset="36%"  stop-color="#202034"/>
    <stop offset="65%"  stop-color="#14141e"/>
    <stop offset="100%" stop-color="#0a0a12"/>
  </linearGradient>
  <!-- Energy orb — staff -->
  <radialGradient id="orbr1x5473" cx="35%" cy="35%" r="65%">
    <stop offset="0%"   stop-color="rgba(255,255,255,.9)"/>
    <stop offset="30%"  stop-color="#ff44aa"/>
    <stop offset="68%"  stop-color="#880050"/>
    <stop offset="100%" stop-color="rgba(0,0,0,.6)"/>
  </radialGradient>
  <!-- Knuckle plate chrome -->
  <linearGradient id="knuckler1x5473" x1="0%" y1="0%" x2="0%" y2="100%">
    <stop offset="0%"   stop-color="#888aaa"/>
    <stop offset="32%"  stop-color="#ff44aa" stop-opacity=".8"/>
    <stop offset="62%"  stop-color="#1a1a2c"/>
    <stop offset="100%" stop-color="#0a0a14"/>
  </linearGradient>

  <!-- Carbon fibre weave texture overlay -->
  <pattern id="carbonr1x5473" width="6" height="6" patternUnits="userSpaceOnUse">
    <rect width="6" height="6" fill="rgba(0,0,0,.08)"/>
    <rect x="0" y="0" width="3" height="3" fill="rgba(255,255,255,.022)"/>
    <rect x="3" y="3" width="3" height="3" fill="rgba(255,255,255,.022)"/>
    <line x1="0" y1="0" x2="3" y2="3" stroke="rgba(255,255,255,.038)" stroke-width=".5"/>
    <line x1="3" y1="0" x2="6" y2="3" stroke="rgba(0,0,0,.055)"       stroke-width=".5"/>
    <line x1="0" y1="3" x2="3" y2="6" stroke="rgba(0,0,0,.055)"       stroke-width=".5"/>
    <line x1="3" y1="3" x2="6" y2="6" stroke="rgba(255,255,255,.038)" stroke-width=".5"/>
  </pattern>

  <!-- Specular metal sheen on armour panels -->
  <filter id="metalr1x5473" x="-5%" y="-5%" width="110%" height="110%">
    <feSpecularLighting surfaceScale="4" specularConstant="1.8"
        specularExponent="42" lighting-color="#ffffff" result="spec">
      <feDistantLight elevation="52" azimuth="38"/>
    </feSpecularLighting>
    <feComposite in="spec" in2="SourceGraphic" operator="in" result="sm"/>
    <feComposite in="SourceGraphic" in2="sm" operator="arithmetic" k1="0" k2="1" k3="0.55" k4="0"/>
  </filter>

  <!-- Sharper specular for weapons — heavier glare -->
  <filter id="wmr1x5473" x="-8%" y="-8%" width="116%" height="116%">
    <feSpecularLighting surfaceScale="6" specularConstant="2.4"
        specularExponent="65" lighting-color="#ffffff" result="spec">
      <feDistantLight elevation="44" azimuth="28"/>
    </feSpecularLighting>
    <feComposite in="spec" in2="SourceGraphic" operator="in" result="sm"/>
    <feComposite in="SourceGraphic" in2="sm" operator="arithmetic" k1="0" k2="1" k3="0.78" k4="0"/>
  </filter>

  <!-- Sketch wobble -->
  <filter id="skr1x5473" x="-8%" y="-8%" width="116%" height="116%">
    <feTurbulence type="fractalNoise" baseFrequency="0.038"
        numOctaves="3" seed="72" result="noise"/>
    <feDisplacementMap in="SourceGraphic" in2="noise" scale="2.6"
        xChannelSelector="R" yChannelSelector="G" result="w"/>
    <feComposite in="w" in2="SourceGraphic" operator="atop"/>
  </filter>

  <!-- Glow: sharp accent -->
  <filter id="glowr1x5473" x="-20%" y="-20%" width="140%" height="140%">
    <feGaussianBlur stdDeviation="3.5" result="b"/>
    <feColorMatrix in="b" type="matrix"
        values="0 0 0 0 1  0 0 0 0 1  0 0 0 0 1  0 0 0 1.8 0" result="boost"/>
    <feMerge><feMergeNode in="boost"/><feMergeNode in="SourceGraphic"/></feMerge>
  </filter>

  <!-- Bloom: wide soft -->
  <filter id="bloomr1x5473" x="-40%" y="-40%" width="180%" height="180%">
    <feGaussianBlur stdDeviation="11" result="b"/>
    <feMerge><feMergeNode in="b"/><feMergeNode in="SourceGraphic"/></feMerge>
  </filter>

  </defs><rect width="1000" height="1000" fill="url(#bgr1x5473)"/><line x1="0" y1="1.0" x2="1000" y2="-1.6" stroke="#ff44aa" stroke-opacity=".055" stroke-width="1.2"/><line x1="-1.7" y1="0" x2="0.8" y2="1000" stroke="#ff44aa" stroke-opacity=".055" stroke-width="1.2"/><line x1="0" y1="100.5" x2="1000" y2="98.4" stroke="#ff44aa" stroke-opacity=".055" stroke-width="1.2"/><line x1="102.6" y1="0" x2="100.7" y2="1000" stroke="#ff44aa" stroke-opacity=".055" stroke-width="1.2"/><line x1="0" y1="201.0" x2="1000" y2="197.9" stroke="#ff44aa" stroke-opacity=".055" stroke-width="1.2"/><line x1="201.3" y1="0" x2="201.7" y2="1000" stroke="#ff44aa" stroke-opacity=".055" stroke-width="1.2"/><line x1="0" y1="302.3" x2="1000" y2="301.0" stroke="#ff44aa" stroke-opacity=".055" stroke-width="1.2"/><line x1="297.0" y1="0" x2="300.5" y2="1000" stroke="#ff44aa" stroke-opacity=".055" stroke-width="1.2"/><line x1="0" y1="397.4" x2="1000" y2="399.1" stroke="#ff44aa" stroke-opacity=".055" stroke-width="1.2"/><line x1="397.5" y1="0" x2="402.2" y2="1000" stroke="#ff44aa" stroke-opacity=".055" stroke-width="1.2"/><line x1="0" y1="498.9" x2="1000" y2="499.2" stroke="#ff44aa" stroke-opacity=".055" stroke-width="1.2"/><line x1="498.6" y1="0" x2="500.0" y2="1000" stroke="#ff44aa" stroke-opacity=".055" stroke-width="1.2"/><line x1="0" y1="599.3" x2="1000" y2="599.1" stroke="#ff44aa" stroke-opacity=".055" stroke-width="1.2"/><line x1="599.4" y1="0" x2="602.2" y2="1000" stroke="#ff44aa" stroke-opacity=".055" stroke-width="1.2"/><line x1="0" y1="702.5" x2="1000" y2="701.1" stroke="#ff44aa" stroke-opacity=".055" stroke-width="1.2"/><line x1="698.1" y1="0" x2="698.8" y2="1000" stroke="#ff44aa" stroke-opacity=".055" stroke-width="1.2"/><line x1="0" y1="801.2" x2="1000" y2="800.1" stroke="#ff44aa" stroke-opacity=".055" stroke-width="1.2"/><line x1="800.7" y1="0" x2="799.4" y2="1000" stroke="#ff44aa" stroke-opacity=".055" stroke-width="1.2"/><line x1="0" y1="901.3" x2="1000" y2="901.3" stroke="#ff44aa" stroke-opacity=".055" stroke-width="1.2"/><line x1="902.1" y1="0" x2="901.6" y2="1000" stroke="#ff44aa" stroke-opacity=".055" stroke-width="1.2"/><path d="M80,30 L30,30 L30,80" stroke="#ff44aa" stroke-opacity=".45" stroke-width="2" fill="none" filter="url(#glowr1x5473)"/><path d="M920,30 L970,30 L970,80" stroke="#ff44aa" stroke-opacity=".45" stroke-width="2" fill="none" filter="url(#glowr1x5473)"/><path d="M30,920 L30,970 L80,970" stroke="#ff44aa" stroke-opacity=".45" stroke-width="2" fill="none" filter="url(#glowr1x5473)"/><path d="M970,920 L970,970 L920,970" stroke="#ff44aa" stroke-opacity=".45" stroke-width="2" fill="none" filter="url(#glowr1x5473)"/><ellipse cx="500.0" cy="892.0" rx="350.0" ry="65.0" fill="rgba(0,0,0,.7)" filter="url(#bloomr1x5473)"/><ellipse cx="500.0" cy="889.0" rx="220.0" ry="34.0" fill="rgba(0,0,0,.45)"/><polygon points="397.1,660.7 488.4,660.9 480.1,878.1 385.6,877.9" fill="url(#suitr1x5473)" stroke="#ff44aa" stroke-width="2.2" filter="url(#skr1x5473) url(#metalr1x5473)"/><polygon points="399.2,663.4 487.7,664.1 481.5,876.1 388.6,879.2" fill="url(#carbonr1x5473)"/><polygon points="393.8,725.0 492.8,722.1 484.3,789.2 384.9,786.9" fill="url(#bevelr1x5473)" fill-opacity=".5" stroke="#ff44aa" stroke-width="1.4" filter="url(#skr1x5473)"/><polygon points="511.0,661.9 602.5,661.1 613.8,876.5 519.0,878.2" fill="url(#suitr1x5473)" stroke="#ff44aa" stroke-width="2.2" filter="url(#skr1x5473) url(#metalr1x5473)"/><polygon points="509.7,663.2 602.9,661.5 612.2,876.5 519.8,879.1" fill="url(#carbonr1x5473)"/><polygon points="507.0,724.9 607.8,723.2 616.4,789.6 516.5,786.6" fill="url(#bevelr1x5473)" fill-opacity=".5" stroke="#ff44aa" stroke-width="1.4" filter="url(#skr1x5473)"/><rect x="393.9" y="838.6" width="100.3" height="24.7" fill="url(#bevelr1x5473)" stroke="#ff44aa" stroke-width="1" filter="url(#skr1x5473)"/><rect x="505.3"  y="838.2" width="100.3" height="24.7" fill="url(#bevelr1x5473)" stroke="#ff44aa" stroke-width="1" filter="url(#skr1x5473)"/><polygon points="368.4,876.4 496.2,876.7 504.1,923.1 361.4,921.0" fill="#880050" stroke="#ff44aa" stroke-width="2" filter="url(#skr1x5473)"/><polygon points="503.2,877.5 630.0,877.8 635.8,922.3 497.5,921.0" fill="#880050" stroke="#ff44aa" stroke-width="2" filter="url(#skr1x5473)"/><polygon points="305.0,631.7 697.8,631.8 639.5,681.4 362.7,683.2" fill="#ff44aa" fill-opacity=".52" stroke="#ff44aa" stroke-width="2" filter="url(#skr1x5473)"/><rect x="462.4" y="638.4" width="72.0" height="42.0" fill="url(#bevelr1x5473)" stroke="#ff44aa" stroke-width="1.4" filter="url(#glowr1x5473)"/><rect x="487.5" y="639.6" width="28.0" height="22.0" rx="1" fill="rgba(255,255,255,.48)"/><polygon points="152.6,464.8 234.3,467.8 258.0,736.3 127.1,733.3" fill="url(#suitr1x5473)" stroke="#ff44aa" stroke-width="2.2" filter="url(#skr1x5473) url(#metalr1x5473)"/><polygon points="173.6,433.1 254.4,433.6 241.4,509.3 157.8,510.4" fill="url(#bevelr1x5473)" fill-opacity=".72" stroke="#ff44aa" stroke-width="2.2" filter="url(#skr1x5473)"/><polygon points="162.8,621.0 243.9,620.5 239.6,661.8 166.2,659.7" fill="#ff44aa" fill-opacity=".42" stroke="#ff44aa" stroke-width="1" filter="url(#skr1x5473)"/><polygon points="763.6,465.6 847.5,466.1 872.7,735.7 742.3,735.2" fill="url(#suitr1x5473)" stroke="#ff44aa" stroke-width="2.2" filter="url(#skr1x5473) url(#metalr1x5473)"/><polygon points="746.8,433.5 825.1,432.8 839.9,511.1 757.7,508.9" fill="url(#bevelr1x5473)" fill-opacity=".72" stroke="#ff44aa" stroke-width="2.2" filter="url(#skr1x5473)"/><polygon points="756.8,623.5 838.2,623.6 834.8,660.4 760.9,661.9" fill="#ff44aa" fill-opacity=".42" stroke="#ff44aa" stroke-width="1" filter="url(#skr1x5473)"/><rect x="122.0"  y="699.5" width="135.3" height="85.0" rx="4" fill="url(#bevelr1x5473)" stroke="#ff44aa" stroke-width="1.8" filter="url(#skr1x5473)"/><rect x="748.4"   y="698.7" width="135.3" height="85.0" rx="4" fill="url(#bevelr1x5473)" stroke="#ff44aa" stroke-width="1.8" filter="url(#skr1x5473)"/><line x1="149.0" y1="701.0" x2="151.3" y2="783.5" stroke="#ff44aa" stroke-opacity=".38" stroke-width="1"/><line x1="776.5" y1="700.5" x2="779.6" y2="782.2" stroke="#ff44aa" stroke-opacity=".38" stroke-width="1"/><line x1="182.7" y1="703.4" x2="184.0" y2="783.5" stroke="#ff44aa" stroke-opacity=".38" stroke-width="1"/><line x1="810.5" y1="703.1" x2="811.2" y2="783.6" stroke="#ff44aa" stroke-opacity=".38" stroke-width="1"/><line x1="216.2" y1="700.8" x2="215.1" y2="785.5" stroke="#ff44aa" stroke-opacity=".38" stroke-width="1"/><line x1="845.4" y1="701.8" x2="843.8" y2="784.7" stroke="#ff44aa" stroke-opacity=".38" stroke-width="1"/><polygon points="234.2,416.0 766.7,416.8 724.0,662.5 277.0,663.1" fill="url(#suitr1x5473)" stroke="#ff44aa" stroke-width="2.6" filter="url(#skr1x5473) url(#metalr1x5473)"/><polygon points="236.3,415.8 766.2,418.4 723.4,661.7 277.8,663.5" fill="url(#carbonr1x5473)"/><polygon points="366.6,415.8 633.9,417.5 609.5,514.8 388.2,513.8" fill="url(#suitHir1x5473)"/><line x1="363.8" y1="472.0" x2="636.5" y2="470.0" stroke="#ff44aa" stroke-opacity=".52" stroke-width="1.3" filter="url(#skr1x5473)"/><line x1="400.1" y1="550.1" x2="601.5" y2="548.7" stroke="#ff44aa" stroke-opacity=".52" stroke-width="1.3" filter="url(#skr1x5473)"/><line x1="267.5" y1="491.1" x2="321.4" y2="489.9" stroke="#ff44aa" stroke-opacity=".62" stroke-width="1.8"/><line x1="678.7" y1="491.5" x2="734.2" y2="490.6" stroke="#ff44aa" stroke-opacity=".62" stroke-width="1.8"/><line x1="267.3" y1="524.1" x2="321.3" y2="524.6" stroke="#ff44aa" stroke-opacity=".62" stroke-width="1.8"/><line x1="680.7" y1="522.6" x2="732.2" y2="521.8" stroke="#ff44aa" stroke-opacity=".62" stroke-width="1.8"/><line x1="265.1" y1="555.6" x2="320.6" y2="554.3" stroke="#ff44aa" stroke-opacity=".62" stroke-width="1.8"/><line x1="681.0" y1="556.3" x2="732.7" y2="554.8" stroke="#ff44aa" stroke-opacity=".62" stroke-width="1.8"/><line x1="268.4" y1="586.0" x2="321.1" y2="587.9" stroke="#ff44aa" stroke-opacity=".62" stroke-width="1.8"/><line x1="681.2" y1="588.0" x2="731.4" y2="587.5" stroke="#ff44aa" stroke-opacity=".62" stroke-width="1.8"/><g filter="url(#glowr1x5473)"><path d="M500.0,449.7 C462.3,446.8 442.0,481.6 447.8,513.5 L459.4,542.5 C476.8,536.7 491.3,551.2 500.0,551.2 C508.7,551.2 523.2,536.7 540.6,542.5 L552.2,513.5 C558.0,481.6 537.7,446.8 500.0,449.7 Z" fill="#ff44aa" fill-opacity=".92" stroke="#000a14" stroke-width="1.3" filter="url(#skr1x5473)"/><path d="M483.8,519.3 Q500.0,533.8 516.2,519.3" stroke="#000a14" stroke-width="1" fill="none" opacity=".58"/><ellipse cx="481.4" cy="497.8" rx="8.7" ry="6.4" fill="#000a14" opacity=".95"/><ellipse cx="518.6" cy="497.8" rx="8.7" ry="6.4" fill="#000a14" opacity=".95"/><ellipse cx="481.4" cy="497.8" rx="2.3" ry="5.8" fill="#ff44aa"/><ellipse cx="518.6" cy="497.8" rx="2.3" ry="5.8" fill="#ff44aa"/><path d="M471.0,467.1 L458.2,426.5 L481.4,463.0" fill="#ff44aa" stroke="#000a14" stroke-width=".9"/><path d="M529.0,467.1 L541.8,426.5 L518.6,463.0" fill="#ff44aa" stroke="#000a14" stroke-width=".9"/><path d="M476.8,452.6 C488.4,449.1 511.6,449.1 523.2,452.6" fill="rgba(255,255,255,.18)"/></g><g><polygon points="76.2,671.4 128.2,671.4 112.6,-28.6 91.8,-28.6" fill="url(#blader1x5473)" filter="url(#wmr1x5473)"/><polygon points="91.8,-28.6 112.6,-28.6 102.2,-138.6" fill="url(#blader1x5473)" filter="url(#wmr1x5473)"/><polygon points="100.3,671.4 104.0,671.4 102.7,-128.6 101.6,-128.6" fill="url(#bladeTipr1x5473)" opacity=".9"/><line x1="112.00308821069073" y1="672.4496253828518" x2="103.29197658067567" y2="-128.2024626772851" stroke="rgba(255,255,255,.68)" stroke-width="1.5"/><line x1="91.93230443568898" y1="672.7383494848385" x2="102.55340319963169" y2="-127.95906546013433" stroke="#ff44aa" stroke-width="1" stroke-opacity=".45"/><line x1="106.8" y1="651.4" x2="104.0" y2="11.4" stroke="rgba(0,0,0,.38)" stroke-width="1.6"/><line x1="97.5" y1="651.4" x2="100.3" y2="11.4" stroke="rgba(0,0,0,.38)" stroke-width="1.6"/><rect x="44.49053510384631" y="669.1295136938803" width="112.0" height="28.0" rx="3" fill="url(#bevelr1x5473)" stroke="#ff44aa" stroke-width="1.6" filter="url(#wmr1x5473)"/><rect x="69.30564767451953" y="671.7829175780527" width="64.0" height="10.0" rx="1" fill="rgba(255,255,255,.32)"/><rect x="89.13023186460134" y="678.4162262320518" width="24.0" height="6.0" rx="1" fill="#ff44aa" fill-opacity=".35"/><rect x="91.6865270859934" y="685.4020343767479" width="24.0" height="6.0" rx="1" fill="#ff44aa" fill-opacity=".35"/><rect x="88.44538259696212" y="694.5295885723084" width="24.0" height="6.0" rx="1" fill="#ff44aa" fill-opacity=".35"/><rect x="90.30231516802681" y="699.6333704905584" width="24.0" height="6.0" rx="1" fill="#ff44aa" fill-opacity=".35"/><rect x="89.4991545676626" y="710.9866642296314" width="24.0" height="6.0" rx="1" fill="#ff44aa" fill-opacity=".35"/><rect x="89.22754261385646" y="716.1888274363242" width="24.0" height="6.0" rx="1" fill="#ff44aa" fill-opacity=".35"/><ellipse cx="103.5117306375317" cy="724.9186999418772" rx="22.0" ry="16.0" fill="url(#bevelr1x5473)" stroke="#ff44aa" stroke-width="1.2" filter="url(#wmr1x5473)"/></g><rect x="451.7751267517917" y="557.2110953101889" width="100.0"  height="56.0" fill="#880050" stroke="#ff44aa" stroke-width="2.2" filter="url(#skr1x5473)"/><rect x="425.7330820819363" y="573.6961426308379" width="152.0" height="26.0" fill="url(#bevelr1x5473)" fill-opacity=".65" stroke="#ff44aa" stroke-width="1.2" filter="url(#skr1x5473)"/><polygon points="306.2,380.4 351.2,295.1 499.7,277.1 651.1,295.0 693.8,382.4 668.3,503.1 499.7,564.1 332.7,505.3" fill="url(#suitr1x5473)" stroke="#ff44aa" stroke-width="2.8" filter="url(#skr1x5473) url(#metalr1x5473)"/><polygon points="307.2,381.7 350.2,294.0 499.5,279.9 649.2,292.9 692.0,382.4 669.8,504.7 500.4,566.0 331.6,504.7" fill="url(#carbonr1x5473)"/><polygon points="380.6,302.8 501.2,287.5 618.2,304.4 608.2,379.0 394.0,381.5" fill="url(#suitHir1x5473)"/><polygon points="380.8,381.6 366.9,424.4 432.1,502.8 498.5,529.4 568.5,505.0 632.8,424.9 620.4,380.9" fill="#000a14" fill-opacity=".88" stroke="#ff44aa" stroke-width="1.8" filter="url(#skr1x5473)"/><polygon points="381.6,410.5 476.7,411.2 484.6,439.2 389.0,439.4" fill="#ff44aa" filter="url(#glowr1x5473)"/><polygon points="523.9,409.7 617.7,411.3 609.7,441.0 515.2,439.9" fill="#ff44aa" filter="url(#glowr1x5473)"/><ellipse cx="430.9" cy="425.7" rx="38.4"  ry="8.2" fill="#ffffff" opacity=".88"/><ellipse cx="569.1" cy="425.7" rx="38.4"  ry="8.2" fill="#ffffff" opacity=".88"/><line x1="485.67122994601726" y1="413.887977226451" x2="517.010474040769" y2="412.4182332336902" stroke="#ff44aa" stroke-opacity=".52" stroke-width="2"/><line x1="484.60718811048196" y1="436.8083079038188" x2="516.7001290768758" y2="438.1079700021073" stroke="#ff44aa" stroke-opacity=".52" stroke-width="2"/><line x1="501.3738501371816" y1="453.1139562413096" x2="498.579162817169" y2="482.2188509622589" stroke="#ff44aa" stroke-opacity=".58" stroke-width="2.2" filter="url(#skr1x5473)"/><line x1="452.5930988185853" y1="491.35678812656545" x2="452.3893832661025" y2="519.7322389364242" stroke="#ff44aa" stroke-opacity=".52" stroke-width="1.5" filter="url(#skr1x5473)"/><line x1="476.95507348779586" y1="489.5330432501621" x2="476.4349125929549" y2="519.5595875720494" stroke="#ff44aa" stroke-opacity=".52" stroke-width="1.5" filter="url(#skr1x5473)"/><line x1="500.015656309668" y1="489.66948203183705" x2="499.6872243830934" y2="519.2769380096346" stroke="#ff44aa" stroke-opacity=".52" stroke-width="1.5" filter="url(#skr1x5473)"/><line x1="522.2029208147526" y1="490.0111892275512" x2="522.0807958309166" y2="521.4601227304898" stroke="#ff44aa" stroke-opacity=".52" stroke-width="1.5" filter="url(#skr1x5473)"/><line x1="545.8283748678118" y1="492.9223529710434" x2="546.0076445862837" y2="519.1738091190346" stroke="#ff44aa" stroke-opacity=".52" stroke-width="1.5" filter="url(#skr1x5473)"/><polygon points="433.0,503.6 566.7,502.5 554.7,556.5 445.3,556.5" fill="#880050" fill-opacity=".72" stroke="#ff44aa" stroke-width="1.3" filter="url(#skr1x5473)"/><polygon points="475.9,303.7 522.9,304.4 511.1,174.9 488.9,173.9" fill="url(#bevelr1x5473)" stroke="#ff44aa" stroke-width="2.2" filter="url(#skr1x5473)"/><polygon points="365.4,324.9 457.2,322.1 469.4,229.7" fill="url(#bevelr1x5473)" fill-opacity=".78" stroke="#ff44aa" stroke-width="1.5" filter="url(#skr1x5473)"/><polygon points="543.2,321.6 635.8,322.8 531.3,227.3" fill="url(#bevelr1x5473)" fill-opacity=".78" stroke="#ff44aa" stroke-width="1.5" filter="url(#skr1x5473)"/><text x="30.0"  y="975.0" font-family="monospace" font-weight="bold" font-size="22.0" fill="rgba(255,255,255,.22)">#0001</text><text x="500.0"   y="975.0" text-anchor="middle" font-family="monospace" font-weight="bold" font-size="22.0" fill="#ff44aa" fill-opacity=".48">SAKURA RANGER</text><text x="970.0" y="975.0" text-anchor="end"    font-family="monospace" font-weight="bold" font-size="22.0" fill="#ff44aa" fill-opacity=".32">MECH RANGERS</text></svg>