<svg xmlns="http://www.w3.org/2000/svg" viewBox="0 0 1000 1000" width="1000" height="1000" shape-rendering="geometricPrecision"><defs>

  <!-- Scene gradients -->
  <radialGradient id="bgr1x5568" cx="50%" cy="42%" r="72%">
    <stop offset="0%"   stop-color="#1a2814"/>
    <stop offset="100%" stop-color="#0d1520"/>
  </radialGradient>
  <linearGradient id="suitr1x5568" x1="8%" y1="0%" x2="92%" y2="100%">
    <stop offset="0%"   stop-color="#ffcc00" stop-opacity=".95"/>
    <stop offset="45%"  stop-color="#a07000"/>
    <stop offset="100%" stop-color="#0d1520"/>
  </linearGradient>
  <linearGradient id="suitHir1x5568" x1="0%" y1="0%" x2="0%" y2="100%">
    <stop offset="0%"   stop-color="rgba(255,255,255,.28)"/>
    <stop offset="60%"  stop-color="rgba(255,255,255,.04)"/>
    <stop offset="100%" stop-color="rgba(255,255,255,0)"/>
  </linearGradient>
  <!-- Bevel: bright top, dark bottom for armour panels -->
  <linearGradient id="bevelr1x5568" x1="0%" y1="0%" x2="0%" y2="100%">
    <stop offset="0%"   stop-color="rgba(255,255,255,.55)"/>
    <stop offset="30%"  stop-color="#ffcc00"/>
    <stop offset="70%"  stop-color="#a07000"/>
    <stop offset="100%" stop-color="rgba(0,0,0,.5)"/>
  </linearGradient>

  <!-- Weapon: cold steel blade sweep -->
  <linearGradient id="blader1x5568" x1="0%" y1="0%" x2="100%" y2="0%">
    <stop offset="0%"   stop-color="#0e0e20"/>
    <stop offset="16%"  stop-color="#3e3e58"/>
    <stop offset="34%"  stop-color="#c8c8e0"/>
    <stop offset="50%"  stop-color="#f5f5ff"/>
    <stop offset="66%"  stop-color="#b8b8d0"/>
    <stop offset="84%"  stop-color="#2e2e48"/>
    <stop offset="100%" stop-color="#08080e"/>
  </linearGradient>
  <!-- Blade tip brightening -->
  <linearGradient id="bladeTipr1x5568" x1="0%" y1="100%" x2="0%" y2="0%">
    <stop offset="0%"   stop-color="rgba(255,255,255,0)"/>
    <stop offset="55%"  stop-color="rgba(255,255,255,.1)"/>
    <stop offset="100%" stop-color="rgba(255,255,255,.55)"/>
  </linearGradient>
  <!-- Gunmetal anodised — blaster body -->
  <linearGradient id="gunmetalr1x5568" x1="0%" y1="0%" x2="0%" y2="100%">
    <stop offset="0%"   stop-color="#46465e"/>
    <stop offset="18%"  stop-color="#828296"/>
    <stop offset="42%"  stop-color="#26263a"/>
    <stop offset="72%"  stop-color="#16162a"/>
    <stop offset="100%" stop-color="#0c0c18"/>
  </linearGradient>
  <!-- Brushed steel tube — barrel/rod -->
  <linearGradient id="barrelr1x5568" x1="0%" y1="0%" x2="100%" y2="0%">
    <stop offset="0%"   stop-color="#0a0a14"/>
    <stop offset="24%"  stop-color="#585875"/>
    <stop offset="50%"  stop-color="#a8a8c8"/>
    <stop offset="76%"  stop-color="#383852"/>
    <stop offset="100%" stop-color="#0a0a14"/>
  </linearGradient>
  <!-- Chrome rod — lance shaft -->
  <linearGradient id="chromer1x5568" x1="0%" y1="0%" x2="100%" y2="0%">
    <stop offset="0%"   stop-color="#0c0c18"/>
    <stop offset="20%"  stop-color="#686888"/>
    <stop offset="44%"  stop-color="#e0e0f0"/>
    <stop offset="56%"  stop-color="#c0c0d8"/>
    <stop offset="80%"  stop-color="#28283e"/>
    <stop offset="100%" stop-color="#0c0c18"/>
  </linearGradient>
  <!-- Titanium plate — shield face -->
  <linearGradient id="titaniumr1x5568" x1="0%" y1="0%" x2="100%" y2="100%">
    <stop offset="0%"   stop-color="#585878"/>
    <stop offset="28%"  stop-color="#ffcc00" stop-opacity=".88"/>
    <stop offset="55%"  stop-color="#a07000"/>
    <stop offset="80%"  stop-color="#181828"/>
    <stop offset="100%" stop-color="#0a0a18"/>
  </linearGradient>
  <!-- Artillery black-chrome — cannon body -->
  <linearGradient id="artilleryr1x5568" x1="0%" y1="0%" x2="0%" y2="100%">
    <stop offset="0%"   stop-color="#383850"/>
    <stop offset="14%"  stop-color="#78789a"/>
    <stop offset="36%"  stop-color="#202034"/>
    <stop offset="65%"  stop-color="#14141e"/>
    <stop offset="100%" stop-color="#0a0a12"/>
  </linearGradient>
  <!-- Energy orb — staff -->
  <radialGradient id="orbr1x5568" cx="35%" cy="35%" r="65%">
    <stop offset="0%"   stop-color="rgba(255,255,255,.9)"/>
    <stop offset="30%"  stop-color="#ffcc00"/>
    <stop offset="68%"  stop-color="#a07000"/>
    <stop offset="100%" stop-color="rgba(0,0,0,.6)"/>
  </radialGradient>
  <!-- Knuckle plate chrome -->
  <linearGradient id="knuckler1x5568" x1="0%" y1="0%" x2="0%" y2="100%">
    <stop offset="0%"   stop-color="#888aaa"/>
    <stop offset="32%"  stop-color="#ffcc00" stop-opacity=".8"/>
    <stop offset="62%"  stop-color="#1a1a2c"/>
    <stop offset="100%" stop-color="#0a0a14"/>
  </linearGradient>

  <!-- Carbon fibre weave texture overlay -->
  <pattern id="carbonr1x5568" width="6" height="6" patternUnits="userSpaceOnUse">
    <rect width="6" height="6" fill="rgba(0,0,0,.08)"/>
    <rect x="0" y="0" width="3" height="3" fill="rgba(255,255,255,.022)"/>
    <rect x="3" y="3" width="3" height="3" fill="rgba(255,255,255,.022)"/>
    <line x1="0" y1="0" x2="3" y2="3" stroke="rgba(255,255,255,.038)" stroke-width=".5"/>
    <line x1="3" y1="0" x2="6" y2="3" stroke="rgba(0,0,0,.055)"       stroke-width=".5"/>
    <line x1="0" y1="3" x2="3" y2="6" stroke="rgba(0,0,0,.055)"       stroke-width=".5"/>
    <line x1="3" y1="3" x2="6" y2="6" stroke="rgba(255,255,255,.038)" stroke-width=".5"/>
  </pattern>

  <!-- Specular metal sheen on armour panels -->
  <filter id="metalr1x5568" x="-5%" y="-5%" width="110%" height="110%">
    <feSpecularLighting surfaceScale="4" specularConstant="1.8"
        specularExponent="42" lighting-color="#ffffff" result="spec">
      <feDistantLight elevation="52" azimuth="38"/>
    </feSpecularLighting>
    <feComposite in="spec" in2="SourceGraphic" operator="in" result="sm"/>
    <feComposite in="SourceGraphic" in2="sm" operator="arithmetic" k1="0" k2="1" k3="0.55" k4="0"/>
  </filter>

  <!-- Sharper specular for weapons — heavier glare -->
  <filter id="wmr1x5568" x="-8%" y="-8%" width="116%" height="116%">
    <feSpecularLighting surfaceScale="6" specularConstant="2.4"
        specularExponent="65" lighting-color="#ffffff" result="spec">
      <feDistantLight elevation="44" azimuth="28"/>
    </feSpecularLighting>
    <feComposite in="spec" in2="SourceGraphic" operator="in" result="sm"/>
    <feComposite in="SourceGraphic" in2="sm" operator="arithmetic" k1="0" k2="1" k3="0.78" k4="0"/>
  </filter>

  <!-- Sketch wobble -->
  <filter id="skr1x5568" x="-8%" y="-8%" width="116%" height="116%">
    <feTurbulence type="fractalNoise" baseFrequency="0.038"
        numOctaves="3" seed="33" result="noise"/>
    <feDisplacementMap in="SourceGraphic" in2="noise" scale="2.6"
        xChannelSelector="R" yChannelSelector="G" result="w"/>
    <feComposite in="w" in2="SourceGraphic" operator="atop"/>
  </filter>

  <!-- Glow: sharp accent -->
  <filter id="glowr1x5568" x="-20%" y="-20%" width="140%" height="140%">
    <feGaussianBlur stdDeviation="3.5" result="b"/>
    <feColorMatrix in="b" type="matrix"
        values="0 0 0 0 1  0 0 0 0 1  0 0 0 0 1  0 0 0 1.8 0" result="boost"/>
    <feMerge><feMergeNode in="boost"/><feMergeNode in="SourceGraphic"/></feMerge>
  </filter>

  <!-- Bloom: wide soft -->
  <filter id="bloomr1x5568" x="-40%" y="-40%" width="180%" height="180%">
    <feGaussianBlur stdDeviation="11" result="b"/>
    <feMerge><feMergeNode in="b"/><feMergeNode in="SourceGraphic"/></feMerge>
  </filter>

  </defs><rect width="1000" height="1000" fill="url(#bgr1x5568)"/><ellipse cx="500.0" cy="892.0" rx="350.0" ry="65.0" fill="rgba(0,0,0,.7)" filter="url(#bloomr1x5568)"/><ellipse cx="500.0" cy="889.0" rx="220.0" ry="34.0" fill="rgba(0,0,0,.45)"/><polygon points="400.6,661.2 489.4,663.2 482.3,875.7 385.6,878.8" fill="url(#suitr1x5568)" stroke="#ffcc00" stroke-width="2.2" filter="url(#skr1x5568) url(#metalr1x5568)"/><polygon points="397.1,660.9 491.1,663.4 480.8,877.7 388.6,877.1" fill="url(#carbonr1x5568)"/><polygon points="393.8,724.1 492.4,722.3 483.6,787.6 384.0,786.6" fill="url(#bevelr1x5568)" fill-opacity=".5" stroke="#ffcc00" stroke-width="1.4" filter="url(#skr1x5568)"/><polygon points="510.1,661.0 602.7,660.9 613.5,876.3 518.1,879.1" fill="url(#suitr1x5568)" stroke="#ffcc00" stroke-width="2.2" filter="url(#skr1x5568) url(#metalr1x5568)"/><polygon points="509.0,661.0 602.9,661.5 613.5,878.4 519.5,875.8" fill="url(#carbonr1x5568)"/><polygon points="506.7,724.2 609.1,725.2 616.1,789.3 515.2,789.9" fill="url(#bevelr1x5568)" fill-opacity=".5" stroke="#ffcc00" stroke-width="1.4" filter="url(#skr1x5568)"/><rect x="393.4" y="837.1" width="100.3" height="24.7" fill="url(#bevelr1x5568)" stroke="#ffcc00" stroke-width="1" filter="url(#skr1x5568)"/><rect x="505.9"  y="838.4" width="100.3" height="24.7" fill="url(#bevelr1x5568)" stroke="#ffcc00" stroke-width="1" filter="url(#skr1x5568)"/><polygon points="369.1,879.0 496.1,878.3 503.0,921.5 361.6,921.6" fill="#a07000" stroke="#ffcc00" stroke-width="2" filter="url(#skr1x5568)"/><polygon points="503.1,876.4 628.9,876.8 638.3,921.3 497.8,921.6" fill="#a07000" stroke="#ffcc00" stroke-width="2" filter="url(#skr1x5568)"/><polygon points="303.3,634.7 696.5,632.1 639.2,682.7 361.7,682.3" fill="#ffcc00" fill-opacity=".52" stroke="#ffcc00" stroke-width="2" filter="url(#skr1x5568)"/><rect x="464.4" y="636.7" width="72.0" height="42.0" fill="url(#bevelr1x5568)" stroke="#ffcc00" stroke-width="1.4" filter="url(#glowr1x5568)"/><rect x="486.1" y="639.1" width="28.0" height="22.0" rx="1" fill="rgba(255,255,255,.48)"/><polygon points="153.0,467.4 236.6,465.5 258.0,735.8 127.8,736.2" fill="url(#suitr1x5568)" stroke="#ffcc00" stroke-width="2.2" filter="url(#skr1x5568) url(#metalr1x5568)"/><polygon points="172.1,431.7 253.7,433.4 244.0,510.7 161.2,509.0" fill="url(#bevelr1x5568)" fill-opacity=".72" stroke="#ffcc00" stroke-width="2.2" filter="url(#skr1x5568)"/><polygon points="161.3,623.3 243.3,623.2 239.2,659.2 163.9,662.7" fill="#ffcc00" fill-opacity=".42" stroke="#ffcc00" stroke-width="1" filter="url(#skr1x5568)"/><polygon points="764.6,465.6 848.0,467.4 873.0,734.3 742.2,733.5" fill="url(#suitr1x5568)" stroke="#ffcc00" stroke-width="2.2" filter="url(#skr1x5568) url(#metalr1x5568)"/><polygon points="748.3,431.9 826.4,430.5 841.3,510.3 756.1,510.6" fill="url(#bevelr1x5568)" fill-opacity=".72" stroke="#ffcc00" stroke-width="2.2" filter="url(#skr1x5568)"/><polygon points="757.2,622.4 840.1,620.9 836.3,661.7 761.4,660.3" fill="#ffcc00" fill-opacity=".42" stroke="#ffcc00" stroke-width="1" filter="url(#skr1x5568)"/><rect x="120.2"  y="701.1" width="135.3" height="85.0" rx="4" fill="url(#bevelr1x5568)" stroke="#ffcc00" stroke-width="1.8" filter="url(#skr1x5568)"/><rect x="749.1"   y="700.5" width="135.3" height="85.0" rx="4" fill="url(#bevelr1x5568)" stroke="#ffcc00" stroke-width="1.8" filter="url(#skr1x5568)"/><line x1="150.9" y1="702.2" x2="150.0" y2="782.7" stroke="#ffcc00" stroke-opacity=".38" stroke-width="1"/><line x1="778.1" y1="703.2" x2="777.2" y2="785.6" stroke="#ffcc00" stroke-opacity=".38" stroke-width="1"/><line x1="181.2" y1="701.4" x2="181.4" y2="783.5" stroke="#ffcc00" stroke-opacity=".38" stroke-width="1"/><line x1="811.9" y1="701.2" x2="810.4" y2="783.6" stroke="#ffcc00" stroke-opacity=".38" stroke-width="1"/><line x1="213.7" y1="703.6" x2="216.9" y2="783.7" stroke="#ffcc00" stroke-opacity=".38" stroke-width="1"/><line x1="842.0" y1="703.4" x2="843.6" y2="782.1" stroke="#ffcc00" stroke-opacity=".38" stroke-width="1"/><polygon points="235.3,416.2 766.5,417.4 723.3,662.2 277.9,661.9" fill="url(#suitr1x5568)" stroke="#ffcc00" stroke-width="2.6" filter="url(#skr1x5568) url(#metalr1x5568)"/><polygon points="233.4,415.9 764.8,419.3 722.8,663.6 278.0,661.7" fill="url(#carbonr1x5568)"/><polygon points="369.3,418.6 633.7,417.1 610.6,516.3 389.2,514.0" fill="url(#suitHir1x5568)"/><line x1="363.8" y1="470.8" x2="637.3" y2="471.8" stroke="#ffcc00" stroke-opacity=".52" stroke-width="1.3" filter="url(#skr1x5568)"/><line x1="398.9" y1="551.2" x2="601.8" y2="548.1" stroke="#ffcc00" stroke-opacity=".52" stroke-width="1.3" filter="url(#skr1x5568)"/><line x1="268.2" y1="490.0" x2="321.2" y2="491.0" stroke="#ffcc00" stroke-opacity=".62" stroke-width="1.8"/><line x1="680.8" y1="490.0" x2="734.8" y2="490.1" stroke="#ffcc00" stroke-opacity=".62" stroke-width="1.8"/><line x1="268.1" y1="524.2" x2="318.6" y2="524.0" stroke="#ffcc00" stroke-opacity=".62" stroke-width="1.8"/><line x1="679.7" y1="523.6" x2="733.3" y2="523.9" stroke="#ffcc00" stroke-opacity=".62" stroke-width="1.8"/><line x1="268.0" y1="554.4" x2="318.6" y2="555.4" stroke="#ffcc00" stroke-opacity=".62" stroke-width="1.8"/><line x1="681.7" y1="555.6" x2="733.8" y2="554.9" stroke="#ffcc00" stroke-opacity=".62" stroke-width="1.8"/><line x1="268.2" y1="586.8" x2="319.4" y2="586.3" stroke="#ffcc00" stroke-opacity=".62" stroke-width="1.8"/><line x1="681.6" y1="587.1" x2="733.5" y2="586.5" stroke="#ffcc00" stroke-opacity=".62" stroke-width="1.8"/><g filter="url(#glowr1x5568)"><polygon points="481.8,452.4 511.2,506.0 501.2,506.2 516.1,570.3 487.3,514.2 501.2,516.6" fill="#ffcc00" stroke="#0d1520" stroke-width="1.4" filter="url(#skr1x5568)"/><polygon points="482.6,451.2 513.2,506.7 501.2,506.8 516.7,567.5 486.5,513.5 500.6,516.0" fill="url(#suitHir1x5568)" opacity=".4"/></g><g><line x1="100.62433459939432" y1="791.5588840934448" x2="87.85265173645686" y2="111.08613577838985" stroke="url(#chromer1x5568)" stroke-width="28.0" stroke-linecap="round" filter="url(#wmr1x5568)"/><line x1="97.36289501193907" y1="772.0203928060829" x2="87.07020780708638" y2="132.2655523376539" stroke="rgba(255,255,255,.42)" stroke-width="5.0" stroke-linecap="round"/><polygon points="72.5,152.6 141.6,151.0 84.3,-7.3" fill="url(#blader1x5568)" stroke="#ffcc00" stroke-width="1.8" filter="url(#wmr1x5568)"/><line x1="140.2" y1="151.4" x2="84.2" y2="-8.6" stroke="rgba(255,255,255,.72)" stroke-width="1.6"/><rect x="84.37873375279825" y="420.33069926956665" width="40.0" height="20.0" fill="url(#bevelr1x5568)" stroke="#ffcc00" stroke-width="1" filter="url(#wmr1x5568)"/><rect x="81.69425895692777" y="511.6002215628512" width="40.0" height="20.0" fill="url(#bevelr1x5568)" stroke="#ffcc00" stroke-width="1" filter="url(#wmr1x5568)"/><rect x="82.77108344960955" y="602.8496731006541" width="40.0" height="20.0" fill="url(#bevelr1x5568)" stroke="#ffcc00" stroke-width="1" filter="url(#wmr1x5568)"/><rect x="82.08185966586692" y="692.5138869978488" width="40.0" height="20.0" fill="url(#bevelr1x5568)" stroke="#ffcc00" stroke-width="1" filter="url(#wmr1x5568)"/><ellipse cx="101.61250495448705" cy="793.1801598893478" rx="22.0" ry="15.0" fill="url(#bevelr1x5568)" stroke="#ffcc00" stroke-width="1" filter="url(#wmr1x5568)"/></g><rect x="450.89354594713075" y="555.4565236646682" width="100.0"  height="56.0" fill="#a07000" stroke="#ffcc00" stroke-width="2.2" filter="url(#skr1x5568)"/><rect x="423.0272626372054" y="575.2172187028453" width="152.0" height="26.0" fill="url(#bevelr1x5568)" fill-opacity=".65" stroke="#ffcc00" stroke-width="1.2" filter="url(#skr1x5568)"/><polygon points="307.4,380.6 349.9,295.4 499.1,276.3 648.1,294.8 693.4,380.1 668.3,503.2 499.5,566.4 329.3,504.6" fill="url(#suitr1x5568)" stroke="#ffcc00" stroke-width="2.8" filter="url(#skr1x5568) url(#metalr1x5568)"/><polygon points="308.5,381.3 350.4,296.2 499.3,279.8 651.1,293.5 692.6,380.3 669.9,505.0 501.7,566.3 330.0,501.9" fill="url(#carbonr1x5568)"/><polygon points="380.7,301.4 499.3,286.2 620.2,303.1 609.2,382.2 394.0,381.6" fill="url(#suitHir1x5568)"/><polygon points="381.2,380.7 366.3,424.6 433.8,504.4 501.0,527.4 566.0,502.7 634.6,424.3 619.0,380.4" fill="#0d1520" fill-opacity=".88" stroke="#ffcc00" stroke-width="1.8" filter="url(#skr1x5568)"/><polygon points="381.3,411.7 475.5,413.0 484.7,441.7 386.9,438.9" fill="#ffcc00" filter="url(#glowr1x5568)"/><polygon points="524.4,411.2 619.3,412.3 609.9,441.4 517.1,439.8" fill="#ffcc00" filter="url(#glowr1x5568)"/><ellipse cx="430.9" cy="425.7" rx="38.4"  ry="8.2" fill="#ffffff" opacity=".88"/><ellipse cx="569.1" cy="425.7" rx="38.4"  ry="8.2" fill="#ffffff" opacity=".88"/><line x1="483.60385919246824" y1="412.71395810907705" x2="515.3944141934068" y2="413.23951699817553" stroke="#ffcc00" stroke-opacity=".52" stroke-width="2"/><line x1="485.8455207679048" y1="436.4226476700045" x2="516.7905754145607" y2="437.478406276647" stroke="#ffcc00" stroke-opacity=".52" stroke-width="2"/><line x1="500.536131997779" y1="454.100474923104" x2="499.70147520434114" y2="483.3916174930521" stroke="#ffcc00" stroke-opacity=".58" stroke-width="2.2" filter="url(#skr1x5568)"/><line x1="453.53677949009466" y1="492.1648332717828" x2="455.15459584321826" y2="521.0691455663182" stroke="#ffcc00" stroke-opacity=".52" stroke-width="1.5" filter="url(#skr1x5568)"/><line x1="476.6141950066574" y1="491.9222253440879" x2="478.1170400830358" y2="519.612389500998" stroke="#ffcc00" stroke-opacity=".52" stroke-width="1.5" filter="url(#skr1x5568)"/><line x1="498.22183536989616" y1="491.3133565878495" x2="499.5856269609183" y2="519.6497609438375" stroke="#ffcc00" stroke-opacity=".52" stroke-width="1.5" filter="url(#skr1x5568)"/><line x1="524.2794118559547" y1="492.0077410632744" x2="522.4838396742567" y2="520.438012523111" stroke="#ffcc00" stroke-opacity=".52" stroke-width="1.5" filter="url(#skr1x5568)"/><line x1="547.3514757771231" y1="492.38339424850415" x2="545.6607004721835" y2="519.8020693194121" stroke="#ffcc00" stroke-opacity=".52" stroke-width="1.5" filter="url(#skr1x5568)"/><polygon points="434.5,504.4 567.7,502.2 553.3,557.4 447.9,557.4" fill="#a07000" fill-opacity=".72" stroke="#ffcc00" stroke-width="1.3" filter="url(#skr1x5568)"/><path d="M474.3728642741032 311.9038018551655 C304.1806100387498 147.11579935085027 419.1779161078297 241.94413320058956 499.45134411873295 312.2307743004523" fill="#ffcc00" fill-opacity=".92" stroke="#ffcc00" stroke-width="2.2" filter="url(#skr1x5568)"/><path d="M472.39138335676864 312.56704518487675 C305.3597413568198 145.37245606845244 418.02000806279483 240.12769137918949 499.94635874750094 312.2626671947539" fill="url(#suitHir1x5568)" opacity=".28"/><path d="M526.13092836814 309.70971398819233 C694.7784184156545 145.4353961682878 579.1667447886057 241.6822394231334 498.84233693536373 311.69080229634415" fill="#ffcc00" fill-opacity=".92" stroke="#ffcc00" stroke-width="2.2" filter="url(#skr1x5568)"/><path d="M526.1383203526213 312.44714259561147 C696.8684630638547 148.18383403420447 579.4679995449818 240.27023323746397 500.69483006158845 310.7953680329956" fill="url(#suitHir1x5568)" opacity=".28"/><text x="30.0"  y="975.0" font-family="monospace" font-weight="bold" font-size="22.0" fill="rgba(255,255,255,.22)">#0001</text><text x="500.0"   y="975.0" text-anchor="middle" font-family="monospace" font-weight="bold" font-size="22.0" fill="#ffcc00" fill-opacity=".48">NOVA RANGER</text><text x="970.0" y="975.0" text-anchor="end"    font-family="monospace" font-weight="bold" font-size="22.0" fill="#ffcc00" fill-opacity=".32">MECH RANGERS</text></svg>