<svg xmlns="http://www.w3.org/2000/svg" viewBox="0 0 1000 1000" width="1000" height="1000" shape-rendering="geometricPrecision"><defs>

  <!-- Scene gradients -->
  <radialGradient id="bgr1x5653" cx="50%" cy="42%" r="72%">
    <stop offset="0%"   stop-color="#0a0a14"/>
    <stop offset="100%" stop-color="#050508"/>
  </radialGradient>
  <linearGradient id="suitr1x5653" x1="8%" y1="0%" x2="92%" y2="100%">
    <stop offset="0%"   stop-color="#ffd700" stop-opacity=".95"/>
    <stop offset="45%"  stop-color="#503400"/>
    <stop offset="100%" stop-color="#050508"/>
  </linearGradient>
  <linearGradient id="suitHir1x5653" x1="0%" y1="0%" x2="0%" y2="100%">
    <stop offset="0%"   stop-color="rgba(255,255,255,.28)"/>
    <stop offset="60%"  stop-color="rgba(255,255,255,.04)"/>
    <stop offset="100%" stop-color="rgba(255,255,255,0)"/>
  </linearGradient>
  <!-- Bevel: bright top, dark bottom for armour panels -->
  <linearGradient id="bevelr1x5653" x1="0%" y1="0%" x2="0%" y2="100%">
    <stop offset="0%"   stop-color="rgba(255,255,255,.55)"/>
    <stop offset="30%"  stop-color="#ffd700"/>
    <stop offset="70%"  stop-color="#503400"/>
    <stop offset="100%" stop-color="rgba(0,0,0,.5)"/>
  </linearGradient>

  <!-- Weapon: cold steel blade sweep -->
  <linearGradient id="blader1x5653" x1="0%" y1="0%" x2="100%" y2="0%">
    <stop offset="0%"   stop-color="#0e0e20"/>
    <stop offset="16%"  stop-color="#3e3e58"/>
    <stop offset="34%"  stop-color="#c8c8e0"/>
    <stop offset="50%"  stop-color="#f5f5ff"/>
    <stop offset="66%"  stop-color="#b8b8d0"/>
    <stop offset="84%"  stop-color="#2e2e48"/>
    <stop offset="100%" stop-color="#08080e"/>
  </linearGradient>
  <!-- Blade tip brightening -->
  <linearGradient id="bladeTipr1x5653" x1="0%" y1="100%" x2="0%" y2="0%">
    <stop offset="0%"   stop-color="rgba(255,255,255,0)"/>
    <stop offset="55%"  stop-color="rgba(255,255,255,.1)"/>
    <stop offset="100%" stop-color="rgba(255,255,255,.55)"/>
  </linearGradient>
  <!-- Gunmetal anodised — blaster body -->
  <linearGradient id="gunmetalr1x5653" x1="0%" y1="0%" x2="0%" y2="100%">
    <stop offset="0%"   stop-color="#46465e"/>
    <stop offset="18%"  stop-color="#828296"/>
    <stop offset="42%"  stop-color="#26263a"/>
    <stop offset="72%"  stop-color="#16162a"/>
    <stop offset="100%" stop-color="#0c0c18"/>
  </linearGradient>
  <!-- Brushed steel tube — barrel/rod -->
  <linearGradient id="barrelr1x5653" x1="0%" y1="0%" x2="100%" y2="0%">
    <stop offset="0%"   stop-color="#0a0a14"/>
    <stop offset="24%"  stop-color="#585875"/>
    <stop offset="50%"  stop-color="#a8a8c8"/>
    <stop offset="76%"  stop-color="#383852"/>
    <stop offset="100%" stop-color="#0a0a14"/>
  </linearGradient>
  <!-- Chrome rod — lance shaft -->
  <linearGradient id="chromer1x5653" x1="0%" y1="0%" x2="100%" y2="0%">
    <stop offset="0%"   stop-color="#0c0c18"/>
    <stop offset="20%"  stop-color="#686888"/>
    <stop offset="44%"  stop-color="#e0e0f0"/>
    <stop offset="56%"  stop-color="#c0c0d8"/>
    <stop offset="80%"  stop-color="#28283e"/>
    <stop offset="100%" stop-color="#0c0c18"/>
  </linearGradient>
  <!-- Titanium plate — shield face -->
  <linearGradient id="titaniumr1x5653" x1="0%" y1="0%" x2="100%" y2="100%">
    <stop offset="0%"   stop-color="#585878"/>
    <stop offset="28%"  stop-color="#ffd700" stop-opacity=".88"/>
    <stop offset="55%"  stop-color="#503400"/>
    <stop offset="80%"  stop-color="#181828"/>
    <stop offset="100%" stop-color="#0a0a18"/>
  </linearGradient>
  <!-- Artillery black-chrome — cannon body -->
  <linearGradient id="artilleryr1x5653" x1="0%" y1="0%" x2="0%" y2="100%">
    <stop offset="0%"   stop-color="#383850"/>
    <stop offset="14%"  stop-color="#78789a"/>
    <stop offset="36%"  stop-color="#202034"/>
    <stop offset="65%"  stop-color="#14141e"/>
    <stop offset="100%" stop-color="#0a0a12"/>
  </linearGradient>
  <!-- Energy orb — staff -->
  <radialGradient id="orbr1x5653" cx="35%" cy="35%" r="65%">
    <stop offset="0%"   stop-color="rgba(255,255,255,.9)"/>
    <stop offset="30%"  stop-color="#ffd700"/>
    <stop offset="68%"  stop-color="#503400"/>
    <stop offset="100%" stop-color="rgba(0,0,0,.6)"/>
  </radialGradient>
  <!-- Knuckle plate chrome -->
  <linearGradient id="knuckler1x5653" x1="0%" y1="0%" x2="0%" y2="100%">
    <stop offset="0%"   stop-color="#888aaa"/>
    <stop offset="32%"  stop-color="#ffd700" stop-opacity=".8"/>
    <stop offset="62%"  stop-color="#1a1a2c"/>
    <stop offset="100%" stop-color="#0a0a14"/>
  </linearGradient>

  <!-- Carbon fibre weave texture overlay -->
  <pattern id="carbonr1x5653" width="6" height="6" patternUnits="userSpaceOnUse">
    <rect width="6" height="6" fill="rgba(0,0,0,.08)"/>
    <rect x="0" y="0" width="3" height="3" fill="rgba(255,255,255,.022)"/>
    <rect x="3" y="3" width="3" height="3" fill="rgba(255,255,255,.022)"/>
    <line x1="0" y1="0" x2="3" y2="3" stroke="rgba(255,255,255,.038)" stroke-width=".5"/>
    <line x1="3" y1="0" x2="6" y2="3" stroke="rgba(0,0,0,.055)"       stroke-width=".5"/>
    <line x1="0" y1="3" x2="3" y2="6" stroke="rgba(0,0,0,.055)"       stroke-width=".5"/>
    <line x1="3" y1="3" x2="6" y2="6" stroke="rgba(255,255,255,.038)" stroke-width=".5"/>
  </pattern>

  <!-- Specular metal sheen on armour panels -->
  <filter id="metalr1x5653" x="-5%" y="-5%" width="110%" height="110%">
    <feSpecularLighting surfaceScale="4" specularConstant="1.8"
        specularExponent="42" lighting-color="#ffffff" result="spec">
      <feDistantLight elevation="52" azimuth="38"/>
    </feSpecularLighting>
    <feComposite in="spec" in2="SourceGraphic" operator="in" result="sm"/>
    <feComposite in="SourceGraphic" in2="sm" operator="arithmetic" k1="0" k2="1" k3="0.55" k4="0"/>
  </filter>

  <!-- Sharper specular for weapons — heavier glare -->
  <filter id="wmr1x5653" x="-8%" y="-8%" width="116%" height="116%">
    <feSpecularLighting surfaceScale="6" specularConstant="2.4"
        specularExponent="65" lighting-color="#ffffff" result="spec">
      <feDistantLight elevation="44" azimuth="28"/>
    </feSpecularLighting>
    <feComposite in="spec" in2="SourceGraphic" operator="in" result="sm"/>
    <feComposite in="SourceGraphic" in2="sm" operator="arithmetic" k1="0" k2="1" k3="0.78" k4="0"/>
  </filter>

  <!-- Sketch wobble -->
  <filter id="skr1x5653" x="-8%" y="-8%" width="116%" height="116%">
    <feTurbulence type="fractalNoise" baseFrequency="0.038"
        numOctaves="3" seed="48" result="noise"/>
    <feDisplacementMap in="SourceGraphic" in2="noise" scale="2.6"
        xChannelSelector="R" yChannelSelector="G" result="w"/>
    <feComposite in="w" in2="SourceGraphic" operator="atop"/>
  </filter>

  <!-- Glow: sharp accent -->
  <filter id="glowr1x5653" x="-20%" y="-20%" width="140%" height="140%">
    <feGaussianBlur stdDeviation="3.5" result="b"/>
    <feColorMatrix in="b" type="matrix"
        values="0 0 0 0 1  0 0 0 0 1  0 0 0 0 1  0 0 0 1.8 0" result="boost"/>
    <feMerge><feMergeNode in="boost"/><feMergeNode in="SourceGraphic"/></feMerge>
  </filter>

  <!-- Bloom: wide soft -->
  <filter id="bloomr1x5653" x="-40%" y="-40%" width="180%" height="180%">
    <feGaussianBlur stdDeviation="11" result="b"/>
    <feMerge><feMergeNode in="b"/><feMergeNode in="SourceGraphic"/></feMerge>
  </filter>

  </defs><rect width="1000" height="1000" fill="url(#bgr1x5653)"/><ellipse cx="500.0" cy="892.0" rx="350.0" ry="65.0" fill="rgba(0,0,0,.7)" filter="url(#bloomr1x5653)"/><ellipse cx="500.0" cy="889.0" rx="220.0" ry="34.0" fill="rgba(0,0,0,.45)"/><ellipse cx="500.0" cy="520.0" rx="320.0" ry="480.0" fill="#6600ff" fill-opacity=".042" filter="url(#bloomr1x5653)"/><circle cx="558.8" cy="705.1" r="2.7" fill="#6600ff" fill-opacity="0.88" filter="url(#glowr1x5653)"/><circle cx="592.0" cy="217.8" r="1.7" fill="#6600ff" fill-opacity="0.84" filter="url(#glowr1x5653)"/><circle cx="416.7" cy="503.5" r="2.5" fill="#6600ff" fill-opacity="0.86" filter="url(#glowr1x5653)"/><circle cx="283.3" cy="664.4" r="3.9" fill="#6600ff" fill-opacity="0.40" filter="url(#glowr1x5653)"/><circle cx="686.4" cy="647.5" r="1.9" fill="#6600ff" fill-opacity="0.71" filter="url(#glowr1x5653)"/><circle cx="268.3" cy="765.3" r="1.8" fill="#6600ff" fill-opacity="0.77" filter="url(#glowr1x5653)"/><circle cx="345.6" cy="385.3" r="3.0" fill="#6600ff" fill-opacity="0.58" filter="url(#glowr1x5653)"/><circle cx="343.1" cy="562.5" r="1.3" fill="#6600ff" fill-opacity="0.47" filter="url(#glowr1x5653)"/><circle cx="573.6" cy="311.0" r="3.1" fill="#6600ff" fill-opacity="0.71" filter="url(#glowr1x5653)"/><circle cx="433.5" cy="430.2" r="1.1" fill="#6600ff" fill-opacity="0.62" filter="url(#glowr1x5653)"/><circle cx="391.0" cy="650.1" r="1.3" fill="#6600ff" fill-opacity="0.47" filter="url(#glowr1x5653)"/><circle cx="597.6" cy="761.7" r="1.2" fill="#6600ff" fill-opacity="0.71" filter="url(#glowr1x5653)"/><circle cx="334.5" cy="263.5" r="1.8" fill="#6600ff" fill-opacity="0.83" filter="url(#glowr1x5653)"/><circle cx="269.8" cy="551.2" r="3.2" fill="#6600ff" fill-opacity="0.75" filter="url(#glowr1x5653)"/><polygon points="397.4,661.9 488.9,663.9 479.5,879.1 388.0,875.7" fill="url(#suitr1x5653)" stroke="#ffd700" stroke-width="2.2" filter="url(#skr1x5653) url(#metalr1x5653)"/><polygon points="398.5,663.3 488.2,664.1 479.1,878.4 387.2,875.8" fill="url(#carbonr1x5653)"/><polygon points="391.4,724.5 492.8,725.5 484.5,786.9 384.2,789.5" fill="url(#bevelr1x5653)" fill-opacity=".5" stroke="#ffd700" stroke-width="1.4" filter="url(#skr1x5653)"/><polygon points="512.2,660.9 601.8,662.3 610.9,876.9 521.1,876.2" fill="url(#suitr1x5653)" stroke="#ffd700" stroke-width="2.2" filter="url(#skr1x5653) url(#metalr1x5653)"/><polygon points="510.6,661.3 600.9,663.6 612.9,876.9 520.6,879.1" fill="url(#carbonr1x5653)"/><polygon points="508.8,725.4 608.1,724.4 615.0,787.6 517.4,787.8" fill="url(#bevelr1x5653)" fill-opacity=".5" stroke="#ffd700" stroke-width="1.4" filter="url(#skr1x5653)"/><rect x="394.0" y="837.2" width="100.3" height="24.7" fill="url(#bevelr1x5653)" stroke="#ffd700" stroke-width="1" filter="url(#skr1x5653)"/><rect x="506.4"  y="838.7" width="100.3" height="24.7" fill="url(#bevelr1x5653)" stroke="#ffd700" stroke-width="1" filter="url(#skr1x5653)"/><polygon points="370.2,877.0 495.0,876.7 502.1,920.6 361.2,921.1" fill="#503400" stroke="#ffd700" stroke-width="2" filter="url(#skr1x5653)"/><polygon points="504.6,878.0 630.9,876.2 638.2,922.2 496.5,921.7" fill="#503400" stroke="#ffd700" stroke-width="2" filter="url(#skr1x5653)"/><polygon points="305.3,634.7 695.4,633.7 638.5,683.7 363.4,681.7" fill="#ffd700" fill-opacity=".52" stroke="#ffd700" stroke-width="2" filter="url(#skr1x5653)"/><rect x="464.8" y="636.3" width="72.0" height="42.0" fill="url(#bevelr1x5653)" stroke="#ffd700" stroke-width="1.4" filter="url(#glowr1x5653)"/><rect x="485.3" y="641.2" width="28.0" height="22.0" rx="1" fill="rgba(255,255,255,.48)"/><polygon points="153.5,466.7 234.1,467.4 259.0,735.9 129.9,733.3" fill="url(#suitr1x5653)" stroke="#ffd700" stroke-width="2.2" filter="url(#skr1x5653) url(#metalr1x5653)"/><polygon points="173.0,431.4 254.7,433.8 243.3,511.6 158.0,509.1" fill="url(#bevelr1x5653)" fill-opacity=".72" stroke="#ffd700" stroke-width="2.2" filter="url(#skr1x5653)"/><polygon points="162.1,620.5 244.5,623.4 239.8,661.9 166.5,659.3" fill="#ffd700" fill-opacity=".42" stroke="#ffd700" stroke-width="1" filter="url(#skr1x5653)"/><polygon points="766.7,465.8 846.6,467.8 870.6,733.4 742.9,736.0" fill="url(#suitr1x5653)" stroke="#ffd700" stroke-width="2.2" filter="url(#skr1x5653) url(#metalr1x5653)"/><polygon points="747.6,431.4 826.1,432.5 841.3,511.2 757.5,512.1" fill="url(#bevelr1x5653)" fill-opacity=".72" stroke="#ffd700" stroke-width="2.2" filter="url(#skr1x5653)"/><polygon points="756.7,620.2 839.1,620.2 833.8,661.3 760.1,661.8" fill="#ffd700" fill-opacity=".42" stroke="#ffd700" stroke-width="1" filter="url(#skr1x5653)"/><rect x="120.8"  y="701.6" width="135.3" height="85.0" rx="4" fill="url(#bevelr1x5653)" stroke="#ffd700" stroke-width="1.8" filter="url(#skr1x5653)"/><rect x="750.3"   y="699.0" width="135.3" height="85.0" rx="4" fill="url(#bevelr1x5653)" stroke="#ffd700" stroke-width="1.8" filter="url(#skr1x5653)"/><line x1="150.5" y1="701.4" x2="148.1" y2="782.1" stroke="#ffd700" stroke-opacity=".38" stroke-width="1"/><line x1="778.2" y1="700.6" x2="778.7" y2="783.0" stroke="#ffd700" stroke-opacity=".38" stroke-width="1"/><line x1="181.3" y1="703.1" x2="183.8" y2="783.7" stroke="#ffd700" stroke-opacity=".38" stroke-width="1"/><line x1="812.2" y1="700.7" x2="812.6" y2="783.1" stroke="#ffd700" stroke-opacity=".38" stroke-width="1"/><line x1="214.1" y1="703.4" x2="216.7" y2="784.9" stroke="#ffd700" stroke-opacity=".38" stroke-width="1"/><line x1="845.0" y1="703.5" x2="843.3" y2="783.8" stroke="#ffd700" stroke-opacity=".38" stroke-width="1"/><polygon points="234.0,415.9 766.0,418.9 722.6,662.7 277.7,662.3" fill="url(#suitr1x5653)" stroke="#ffd700" stroke-width="2.6" filter="url(#skr1x5653) url(#metalr1x5653)"/><polygon points="236.2,418.6 765.9,417.7 724.1,661.1 276.4,663.1" fill="url(#carbonr1x5653)"/><polygon points="366.5,418.6 633.8,419.0 611.9,515.3 389.6,514.2" fill="url(#suitHir1x5653)"/><line x1="362.3" y1="472.8" x2="638.8" y2="471.8" stroke="#ffd700" stroke-opacity=".52" stroke-width="1.3" filter="url(#skr1x5653)"/><line x1="398.4" y1="551.5" x2="599.7" y2="549.2" stroke="#ffd700" stroke-opacity=".52" stroke-width="1.3" filter="url(#skr1x5653)"/><line x1="265.1" y1="492.4" x2="321.4" y2="490.7" stroke="#ffd700" stroke-opacity=".62" stroke-width="1.8"/><line x1="681.5" y1="492.4" x2="734.9" y2="491.5" stroke="#ffd700" stroke-opacity=".62" stroke-width="1.8"/><line x1="268.6" y1="524.1" x2="320.6" y2="523.8" stroke="#ffd700" stroke-opacity=".62" stroke-width="1.8"/><line x1="680.8" y1="521.5" x2="732.9" y2="524.4" stroke="#ffd700" stroke-opacity=".62" stroke-width="1.8"/><line x1="267.4" y1="556.5" x2="319.3" y2="556.3" stroke="#ffd700" stroke-opacity=".62" stroke-width="1.8"/><line x1="679.2" y1="553.9" x2="734.3" y2="555.2" stroke="#ffd700" stroke-opacity=".62" stroke-width="1.8"/><line x1="265.5" y1="585.9" x2="320.7" y2="585.8" stroke="#ffd700" stroke-opacity=".62" stroke-width="1.8"/><line x1="680.4" y1="587.9" x2="732.0" y2="586.6" stroke="#ffd700" stroke-opacity=".62" stroke-width="1.8"/><g filter="url(#glowr1x5653)"><circle cx="500.9" cy="501.5" r="31.3" fill="#ffd700" stroke="#050508" stroke-width="1.4" filter="url(#skr1x5653)"/><circle cx="489.3" cy="496.5" r="7.0" fill="#050508"/><circle cx="510.9" cy="496.1" r="7.0" fill="#050508"/><rect x="482.9" y="521.0" width="9.3" height="17.4" rx="1" fill="#ffd700" stroke="#050508" stroke-width=".6"/><rect x="495.9" y="521.8" width="9.3" height="17.4" rx="1" fill="#ffd700" stroke="#050508" stroke-width=".6"/><rect x="508.4" y="520.5" width="9.3" height="17.4" rx="1" fill="#ffd700" stroke="#050508" stroke-width=".6"/></g><g><polygon points="826.5,293.7 968.0,292.7 969.6,590.8 899.0,725.6 828.5,592.2" fill="url(#titaniumr1x5653)" stroke="#ffd700" stroke-width="2.6" filter="url(#wmr1x5653)"/><polygon points="827.3,293.0 968.7,291.9 968.4,590.7 896.7,726.0 828.3,590.0" fill="url(#carbonr1x5653)"/><polygon points="858.4,363.1 937.5,360.4 934.8,543.0 896.3,633.0 860.9,543.0" fill="#ffd700" fill-opacity=".28" stroke="#ffd700" stroke-width="1.5"/><line x1="845.33771498302" y1="431.064779461082" x2="950.7241319533997" y2="429.7004123535007" stroke="#ffd700" stroke-opacity=".65" stroke-width="1.3"/><line x1="897.1758602860942" y1="330.226327469293" x2="897.0209008520097" y2="592.7607993714511" stroke="#ffd700" stroke-opacity=".4" stroke-width="1"/><line x1="828.1757660048642" y1="297.7779442635365" x2="966.2627496281267" y2="294.8561134284362" stroke="rgba(255,255,255,.5)" stroke-width="2"/><circle cx="896.0998909344524" cy="432.67978832591325" r="18.0" fill="url(#bevelr1x5653)" stroke="#ffd700" stroke-width="1.2" filter="url(#wmr1x5653)"/></g><rect x="451.21018582843243" y="557.8765728965401" width="100.0"  height="56.0" fill="#503400" stroke="#ffd700" stroke-width="2.2" filter="url(#skr1x5653)"/><rect x="424.1685990327038" y="574.8664506144822" width="152.0" height="26.0" fill="url(#bevelr1x5653)" fill-opacity=".65" stroke="#ffd700" stroke-width="1.2" filter="url(#skr1x5653)"/><polygon points="307.2,380.9 348.7,294.7 501.8,279.6 648.7,295.5 690.7,380.9 667.8,504.9 498.8,566.9 329.7,501.9" fill="url(#suitr1x5653)" stroke="#ffd700" stroke-width="2.8" filter="url(#skr1x5653) url(#metalr1x5653)"/><polygon points="309.4,380.4 350.5,293.0 498.3,279.5 648.7,294.6 690.6,381.8 670.4,503.3 500.3,565.7 331.6,504.6" fill="url(#carbonr1x5653)"/><polygon points="379.3,301.5 500.4,287.6 619.0,304.4 606.8,379.1 391.1,379.7" fill="url(#suitHir1x5653)"/><polygon points="379.3,381.3 366.6,424.9 431.2,502.8 500.1,529.5 568.4,503.9 634.0,424.1 619.6,381.9" fill="#050508" fill-opacity=".88" stroke="#ffd700" stroke-width="1.8" filter="url(#skr1x5653)"/><polygon points="379.9,412.5 476.2,412.9 483.7,440.7 387.7,441.3" fill="#ffd700" filter="url(#glowr1x5653)"/><polygon points="521.7,411.0 620.5,412.3 613.0,439.5 516.2,441.6" fill="#ffd700" filter="url(#glowr1x5653)"/><ellipse cx="430.9" cy="425.7" rx="38.4"  ry="8.2" fill="#ffffff" opacity=".88"/><ellipse cx="569.1" cy="425.7" rx="38.4"  ry="8.2" fill="#ffffff" opacity=".88"/><line x1="485.9292018611543" y1="414.6377326740883" x2="516.0112973323464" y2="413.2061210283078" stroke="#ffd700" stroke-opacity=".52" stroke-width="2"/><line x1="485.7609413768723" y1="438.21199251841756" x2="516.6130490841716" y2="438.512464636378" stroke="#ffd700" stroke-opacity=".52" stroke-width="2"/><line x1="500.1003824384883" y1="455.0471765356138" x2="498.9318300176412" y2="484.35065653026106" stroke="#ffd700" stroke-opacity=".58" stroke-width="2.2" filter="url(#skr1x5653)"/><line x1="452.8319768605568" y1="492.43499623341484" x2="454.34859995849433" y2="520.6604794591665" stroke="#ffd700" stroke-opacity=".52" stroke-width="1.5" filter="url(#skr1x5653)"/><line x1="475.6193978543766" y1="489.5542761975899" x2="477.858057612963" y2="519.5425409116782" stroke="#ffd700" stroke-opacity=".52" stroke-width="1.5" filter="url(#skr1x5653)"/><line x1="499.7501376650296" y1="490.64653624994673" x2="499.4589517880231" y2="520.6128044797108" stroke="#ffd700" stroke-opacity=".52" stroke-width="1.5" filter="url(#skr1x5653)"/><line x1="523.6997666436806" y1="491.6934375301934" x2="523.2990781696141" y2="518.8081591920927" stroke="#ffd700" stroke-opacity=".52" stroke-width="1.5" filter="url(#skr1x5653)"/><line x1="545.7386635367014" y1="491.1699310146272" x2="544.3073270838894" y2="521.6483092499897" stroke="#ffd700" stroke-opacity=".52" stroke-width="1.5" filter="url(#skr1x5653)"/><polygon points="433.5,503.5 566.8,502.6 553.9,558.6 444.9,557.8" fill="#503400" fill-opacity=".72" stroke="#ffd700" stroke-width="1.3" filter="url(#skr1x5653)"/><text x="30.0"  y="975.0" font-family="monospace" font-weight="bold" font-size="22.0" fill="rgba(255,255,255,.22)">#0001</text><text x="500.0"   y="975.0" text-anchor="middle" font-family="monospace" font-weight="bold" font-size="22.0" fill="#ffd700" fill-opacity=".48">IMPERIAL RANGER</text><text x="970.0" y="975.0" text-anchor="end"    font-family="monospace" font-weight="bold" font-size="22.0" fill="#ffd700" fill-opacity=".32">MECH RANGERS</text></svg>