<svg xmlns="http://www.w3.org/2000/svg" viewBox="0 0 1000 1000" width="1000" height="1000" shape-rendering="geometricPrecision"><defs>

  <!-- Scene gradients -->
  <radialGradient id="bgr1x5700" cx="50%" cy="42%" r="72%">
    <stop offset="0%"   stop-color="#1a2814"/>
    <stop offset="100%" stop-color="#0d1520"/>
  </radialGradient>
  <linearGradient id="suitr1x5700" x1="8%" y1="0%" x2="92%" y2="100%">
    <stop offset="0%"   stop-color="#ff00ff" stop-opacity=".95"/>
    <stop offset="45%"  stop-color="#050508"/>
    <stop offset="100%" stop-color="#0d1520"/>
  </linearGradient>
  <linearGradient id="suitHir1x5700" x1="0%" y1="0%" x2="0%" y2="100%">
    <stop offset="0%"   stop-color="rgba(255,255,255,.28)"/>
    <stop offset="60%"  stop-color="rgba(255,255,255,.04)"/>
    <stop offset="100%" stop-color="rgba(255,255,255,0)"/>
  </linearGradient>
  <!-- Bevel: bright top, dark bottom for armour panels -->
  <linearGradient id="bevelr1x5700" x1="0%" y1="0%" x2="0%" y2="100%">
    <stop offset="0%"   stop-color="rgba(255,255,255,.55)"/>
    <stop offset="30%"  stop-color="#ff00ff"/>
    <stop offset="70%"  stop-color="#050508"/>
    <stop offset="100%" stop-color="rgba(0,0,0,.5)"/>
  </linearGradient>

  <!-- Weapon: cold steel blade sweep -->
  <linearGradient id="blader1x5700" x1="0%" y1="0%" x2="100%" y2="0%">
    <stop offset="0%"   stop-color="#0e0e20"/>
    <stop offset="16%"  stop-color="#3e3e58"/>
    <stop offset="34%"  stop-color="#c8c8e0"/>
    <stop offset="50%"  stop-color="#f5f5ff"/>
    <stop offset="66%"  stop-color="#b8b8d0"/>
    <stop offset="84%"  stop-color="#2e2e48"/>
    <stop offset="100%" stop-color="#08080e"/>
  </linearGradient>
  <!-- Blade tip brightening -->
  <linearGradient id="bladeTipr1x5700" x1="0%" y1="100%" x2="0%" y2="0%">
    <stop offset="0%"   stop-color="rgba(255,255,255,0)"/>
    <stop offset="55%"  stop-color="rgba(255,255,255,.1)"/>
    <stop offset="100%" stop-color="rgba(255,255,255,.55)"/>
  </linearGradient>
  <!-- Gunmetal anodised — blaster body -->
  <linearGradient id="gunmetalr1x5700" x1="0%" y1="0%" x2="0%" y2="100%">
    <stop offset="0%"   stop-color="#46465e"/>
    <stop offset="18%"  stop-color="#828296"/>
    <stop offset="42%"  stop-color="#26263a"/>
    <stop offset="72%"  stop-color="#16162a"/>
    <stop offset="100%" stop-color="#0c0c18"/>
  </linearGradient>
  <!-- Brushed steel tube — barrel/rod -->
  <linearGradient id="barrelr1x5700" x1="0%" y1="0%" x2="100%" y2="0%">
    <stop offset="0%"   stop-color="#0a0a14"/>
    <stop offset="24%"  stop-color="#585875"/>
    <stop offset="50%"  stop-color="#a8a8c8"/>
    <stop offset="76%"  stop-color="#383852"/>
    <stop offset="100%" stop-color="#0a0a14"/>
  </linearGradient>
  <!-- Chrome rod — lance shaft -->
  <linearGradient id="chromer1x5700" x1="0%" y1="0%" x2="100%" y2="0%">
    <stop offset="0%"   stop-color="#0c0c18"/>
    <stop offset="20%"  stop-color="#686888"/>
    <stop offset="44%"  stop-color="#e0e0f0"/>
    <stop offset="56%"  stop-color="#c0c0d8"/>
    <stop offset="80%"  stop-color="#28283e"/>
    <stop offset="100%" stop-color="#0c0c18"/>
  </linearGradient>
  <!-- Titanium plate — shield face -->
  <linearGradient id="titaniumr1x5700" x1="0%" y1="0%" x2="100%" y2="100%">
    <stop offset="0%"   stop-color="#585878"/>
    <stop offset="28%"  stop-color="#ff00ff" stop-opacity=".88"/>
    <stop offset="55%"  stop-color="#050508"/>
    <stop offset="80%"  stop-color="#181828"/>
    <stop offset="100%" stop-color="#0a0a18"/>
  </linearGradient>
  <!-- Artillery black-chrome — cannon body -->
  <linearGradient id="artilleryr1x5700" x1="0%" y1="0%" x2="0%" y2="100%">
    <stop offset="0%"   stop-color="#383850"/>
    <stop offset="14%"  stop-color="#78789a"/>
    <stop offset="36%"  stop-color="#202034"/>
    <stop offset="65%"  stop-color="#14141e"/>
    <stop offset="100%" stop-color="#0a0a12"/>
  </linearGradient>
  <!-- Energy orb — staff -->
  <radialGradient id="orbr1x5700" cx="35%" cy="35%" r="65%">
    <stop offset="0%"   stop-color="rgba(255,255,255,.9)"/>
    <stop offset="30%"  stop-color="#ff00ff"/>
    <stop offset="68%"  stop-color="#050508"/>
    <stop offset="100%" stop-color="rgba(0,0,0,.6)"/>
  </radialGradient>
  <!-- Knuckle plate chrome -->
  <linearGradient id="knuckler1x5700" x1="0%" y1="0%" x2="0%" y2="100%">
    <stop offset="0%"   stop-color="#888aaa"/>
    <stop offset="32%"  stop-color="#ff00ff" stop-opacity=".8"/>
    <stop offset="62%"  stop-color="#1a1a2c"/>
    <stop offset="100%" stop-color="#0a0a14"/>
  </linearGradient>

  <!-- Carbon fibre weave texture overlay -->
  <pattern id="carbonr1x5700" width="6" height="6" patternUnits="userSpaceOnUse">
    <rect width="6" height="6" fill="rgba(0,0,0,.08)"/>
    <rect x="0" y="0" width="3" height="3" fill="rgba(255,255,255,.022)"/>
    <rect x="3" y="3" width="3" height="3" fill="rgba(255,255,255,.022)"/>
    <line x1="0" y1="0" x2="3" y2="3" stroke="rgba(255,255,255,.038)" stroke-width=".5"/>
    <line x1="3" y1="0" x2="6" y2="3" stroke="rgba(0,0,0,.055)"       stroke-width=".5"/>
    <line x1="0" y1="3" x2="3" y2="6" stroke="rgba(0,0,0,.055)"       stroke-width=".5"/>
    <line x1="3" y1="3" x2="6" y2="6" stroke="rgba(255,255,255,.038)" stroke-width=".5"/>
  </pattern>

  <!-- Specular metal sheen on armour panels -->
  <filter id="metalr1x5700" x="-5%" y="-5%" width="110%" height="110%">
    <feSpecularLighting surfaceScale="4" specularConstant="1.8"
        specularExponent="42" lighting-color="#ffffff" result="spec">
      <feDistantLight elevation="52" azimuth="38"/>
    </feSpecularLighting>
    <feComposite in="spec" in2="SourceGraphic" operator="in" result="sm"/>
    <feComposite in="SourceGraphic" in2="sm" operator="arithmetic" k1="0" k2="1" k3="0.55" k4="0"/>
  </filter>

  <!-- Sharper specular for weapons — heavier glare -->
  <filter id="wmr1x5700" x="-8%" y="-8%" width="116%" height="116%">
    <feSpecularLighting surfaceScale="6" specularConstant="2.4"
        specularExponent="65" lighting-color="#ffffff" result="spec">
      <feDistantLight elevation="44" azimuth="28"/>
    </feSpecularLighting>
    <feComposite in="spec" in2="SourceGraphic" operator="in" result="sm"/>
    <feComposite in="SourceGraphic" in2="sm" operator="arithmetic" k1="0" k2="1" k3="0.78" k4="0"/>
  </filter>

  <!-- Sketch wobble -->
  <filter id="skr1x5700" x="-8%" y="-8%" width="116%" height="116%">
    <feTurbulence type="fractalNoise" baseFrequency="0.038"
        numOctaves="3" seed="94" result="noise"/>
    <feDisplacementMap in="SourceGraphic" in2="noise" scale="2.6"
        xChannelSelector="R" yChannelSelector="G" result="w"/>
    <feComposite in="w" in2="SourceGraphic" operator="atop"/>
  </filter>

  <!-- Glow: sharp accent -->
  <filter id="glowr1x5700" x="-20%" y="-20%" width="140%" height="140%">
    <feGaussianBlur stdDeviation="3.5" result="b"/>
    <feColorMatrix in="b" type="matrix"
        values="0 0 0 0 1  0 0 0 0 1  0 0 0 0 1  0 0 0 1.8 0" result="boost"/>
    <feMerge><feMergeNode in="boost"/><feMergeNode in="SourceGraphic"/></feMerge>
  </filter>

  <!-- Bloom: wide soft -->
  <filter id="bloomr1x5700" x="-40%" y="-40%" width="180%" height="180%">
    <feGaussianBlur stdDeviation="11" result="b"/>
    <feMerge><feMergeNode in="b"/><feMergeNode in="SourceGraphic"/></feMerge>
  </filter>

  </defs><rect width="1000" height="1000" fill="url(#bgr1x5700)"/><ellipse cx="500.0" cy="892.0" rx="350.0" ry="65.0" fill="rgba(0,0,0,.7)" filter="url(#bloomr1x5700)"/><ellipse cx="500.0" cy="889.0" rx="220.0" ry="34.0" fill="rgba(0,0,0,.45)"/><polygon points="399.9,662.2 490.3,661.5 479.5,876.3 387.8,876.7" fill="url(#suitr1x5700)" stroke="#ff00ff" stroke-width="2.2" filter="url(#skr1x5700) url(#metalr1x5700)"/><polygon points="400.0,661.5 488.4,661.3 480.8,879.0 387.0,878.9" fill="url(#carbonr1x5700)"/><polygon points="392.5,723.6 493.1,724.6 485.8,789.3 384.2,789.8" fill="url(#bevelr1x5700)" fill-opacity=".5" stroke="#ff00ff" stroke-width="1.4" filter="url(#skr1x5700)"/><polygon points="512.3,662.1 600.4,662.3 614.2,876.0 519.7,875.8" fill="url(#suitr1x5700)" stroke="#ff00ff" stroke-width="2.2" filter="url(#skr1x5700) url(#metalr1x5700)"/><polygon points="509.8,663.6 599.5,661.6 612.1,876.5 519.2,876.7" fill="url(#carbonr1x5700)"/><polygon points="508.3,725.0 606.6,724.5 614.5,787.3 514.4,789.1" fill="url(#bevelr1x5700)" fill-opacity=".5" stroke="#ff00ff" stroke-width="1.4" filter="url(#skr1x5700)"/><rect x="392.2" y="838.7" width="100.3" height="24.7" fill="url(#bevelr1x5700)" stroke="#ff00ff" stroke-width="1" filter="url(#skr1x5700)"/><rect x="506.9"  y="839.7" width="100.3" height="24.7" fill="url(#bevelr1x5700)" stroke="#ff00ff" stroke-width="1" filter="url(#skr1x5700)"/><polygon points="369.0,875.9 496.3,877.7 503.2,920.1 363.3,920.0" fill="#050508" stroke="#ff00ff" stroke-width="2" filter="url(#skr1x5700)"/><polygon points="504.5,878.2 631.5,876.2 636.0,920.1 496.2,920.1" fill="#050508" stroke="#ff00ff" stroke-width="2" filter="url(#skr1x5700)"/><polygon points="304.5,632.1 696.8,631.3 639.3,682.5 361.0,682.7" fill="#ff00ff" fill-opacity=".52" stroke="#ff00ff" stroke-width="2" filter="url(#skr1x5700)"/><rect x="463.2" y="639.8" width="72.0" height="42.0" fill="url(#bevelr1x5700)" stroke="#ff00ff" stroke-width="1.4" filter="url(#glowr1x5700)"/><rect x="485.3" y="642.2" width="28.0" height="22.0" rx="1" fill="rgba(255,255,255,.48)"/><polygon points="153.9,465.0 233.5,466.7 259.4,735.9 127.3,733.5" fill="url(#suitr1x5700)" stroke="#ff00ff" stroke-width="2.2" filter="url(#skr1x5700) url(#metalr1x5700)"/><polygon points="174.8,431.1 251.4,431.5 242.0,511.4 158.3,511.2" fill="url(#bevelr1x5700)" fill-opacity=".72" stroke="#ff00ff" stroke-width="2.2" filter="url(#skr1x5700)"/><polygon points="159.4,622.8 241.8,621.7 239.0,661.9 165.5,661.6" fill="#ff00ff" fill-opacity=".42" stroke="#ff00ff" stroke-width="1" filter="url(#skr1x5700)"/><polygon points="765.4,466.2 846.6,465.4 870.0,736.5 743.0,736.4" fill="url(#suitr1x5700)" stroke="#ff00ff" stroke-width="2.2" filter="url(#skr1x5700) url(#metalr1x5700)"/><polygon points="748.1,431.3 824.8,433.7 841.1,512.2 755.1,509.7" fill="url(#bevelr1x5700)" fill-opacity=".72" stroke="#ff00ff" stroke-width="2.2" filter="url(#skr1x5700)"/><polygon points="755.8,620.6 839.8,620.2 833.7,661.7 762.3,660.5" fill="#ff00ff" fill-opacity=".42" stroke="#ff00ff" stroke-width="1" filter="url(#skr1x5700)"/><rect x="118.4"  y="701.1" width="135.3" height="85.0" rx="4" fill="url(#bevelr1x5700)" stroke="#ff00ff" stroke-width="1.8" filter="url(#skr1x5700)"/><rect x="750.1"   y="699.7" width="135.3" height="85.0" rx="4" fill="url(#bevelr1x5700)" stroke="#ff00ff" stroke-width="1.8" filter="url(#skr1x5700)"/><line x1="150.6" y1="700.5" x2="148.4" y2="784.8" stroke="#ff00ff" stroke-opacity=".38" stroke-width="1"/><line x1="778.0" y1="702.7" x2="777.2" y2="784.5" stroke="#ff00ff" stroke-opacity=".38" stroke-width="1"/><line x1="180.8" y1="701.7" x2="182.3" y2="782.9" stroke="#ff00ff" stroke-opacity=".38" stroke-width="1"/><line x1="810.6" y1="701.5" x2="811.9" y2="785.3" stroke="#ff00ff" stroke-opacity=".38" stroke-width="1"/><line x1="214.4" y1="701.2" x2="214.6" y2="785.3" stroke="#ff00ff" stroke-opacity=".38" stroke-width="1"/><line x1="843.2" y1="703.5" x2="845.5" y2="783.8" stroke="#ff00ff" stroke-opacity=".38" stroke-width="1"/><polygon points="236.4,417.3 763.9,417.8 722.8,662.9 278.9,661.8" fill="url(#suitr1x5700)" stroke="#ff00ff" stroke-width="2.6" filter="url(#skr1x5700) url(#metalr1x5700)"/><polygon points="235.5,417.0 763.3,417.2 724.0,663.8 277.3,663.0" fill="url(#carbonr1x5700)"/><polygon points="368.9,418.7 632.1,418.5 610.4,514.5 387.8,515.5" fill="url(#suitHir1x5700)"/><line x1="361.3" y1="470.3" x2="638.1" y2="470.9" stroke="#ff00ff" stroke-opacity=".52" stroke-width="1.3" filter="url(#skr1x5700)"/><line x1="400.0" y1="549.7" x2="601.5" y2="548.7" stroke="#ff00ff" stroke-opacity=".52" stroke-width="1.3" filter="url(#skr1x5700)"/><line x1="265.2" y1="489.4" x2="320.4" y2="490.0" stroke="#ff00ff" stroke-opacity=".62" stroke-width="1.8"/><line x1="680.7" y1="491.6" x2="734.1" y2="490.0" stroke="#ff00ff" stroke-opacity=".62" stroke-width="1.8"/><line x1="265.4" y1="522.1" x2="321.3" y2="522.9" stroke="#ff00ff" stroke-opacity=".62" stroke-width="1.8"/><line x1="679.0" y1="523.2" x2="732.1" y2="522.3" stroke="#ff00ff" stroke-opacity=".62" stroke-width="1.8"/><line x1="267.8" y1="555.8" x2="318.2" y2="555.8" stroke="#ff00ff" stroke-opacity=".62" stroke-width="1.8"/><line x1="679.1" y1="555.8" x2="731.8" y2="554.6" stroke="#ff00ff" stroke-opacity=".62" stroke-width="1.8"/><line x1="267.9" y1="585.6" x2="320.4" y2="586.1" stroke="#ff00ff" stroke-opacity=".62" stroke-width="1.8"/><line x1="681.7" y1="587.7" x2="734.6" y2="585.2" stroke="#ff00ff" stroke-opacity=".62" stroke-width="1.8"/><g filter="url(#glowr1x5700)"><path d="M500,510.6 C398.53760272711514,445.8586376521737 440.7971321027726,546.9446370344982 500,532.3751408546418" fill="#ff00ff" fill-opacity=".88" stroke="#ff00ff" stroke-width="1.2" filter="url(#skr1x5700)"/><path d="M500,510.6 C606.4699634054675,448.6420448234305 553.386731444858,548.0387443373353 500,533.292833154574" fill="#ff00ff" fill-opacity=".88" stroke="#ff00ff" stroke-width="1.2" filter="url(#skr1x5700)"/><path d="M500,493.20000000000005 C452.2806724453345,465.31560576409106 479.7890959276818,516.6418605159037 500,524.0140854211525" fill="rgba(255,255,255,.14)"/><path d="M500,493.20000000000005 C547.499202661775,463.0899218202569 525.7030878670514,517.4365307121537 500,522.8474856007845" fill="rgba(255,255,255,.14)"/></g><g><polygon points="30.7,292.5 171.8,293.1 172.8,593.2 100.7,725.3 30.6,590.4" fill="url(#titaniumr1x5700)" stroke="#ff00ff" stroke-width="2.6" filter="url(#wmr1x5700)"/><polygon points="30.8,292.7 170.4,291.7 171.3,591.5 103.7,726.8 30.9,592.3" fill="url(#carbonr1x5700)"/><polygon points="65.1,360.5 140.1,362.4 138.7,541.9 102.7,631.4 62.6,542.9" fill="#ff00ff" fill-opacity=".28" stroke="#ff00ff" stroke-width="1.5"/><line x1="49.43948787091297" y1="430.774297870975" x2="155.27554498523472" y2="432.65007980000223" stroke="#ff00ff" stroke-opacity=".65" stroke-width="1.3"/><line x1="101.88540872888636" y1="329.9666634029709" x2="102.52033148784187" y2="592.6363618532196" stroke="#ff00ff" stroke-opacity=".4" stroke-width="1"/><line x1="33.66895620901134" y1="295.24024342009795" x2="169.93296802802007" y2="298.1682407098822" stroke="rgba(255,255,255,.5)" stroke-width="2"/><circle cx="102.76733710173514" cy="430.4241874845698" r="18.0" fill="url(#bevelr1x5700)" stroke="#ff00ff" stroke-width="1.2" filter="url(#wmr1x5700)"/></g><rect x="450.304645861499" y="557.7996920044534" width="100.0"  height="56.0" fill="#050508" stroke="#ff00ff" stroke-width="2.2" filter="url(#skr1x5700)"/><rect x="424.4314536143094" y="577.1325494358316" width="152.0" height="26.0" fill="url(#bevelr1x5700)" fill-opacity=".65" stroke="#ff00ff" stroke-width="1.2" filter="url(#skr1x5700)"/><polygon points="306.7,381.6 349.5,293.5 499.0,278.1 651.3,294.3 692.5,381.4 670.1,504.0 499.1,564.9 332.4,503.6" fill="url(#suitr1x5700)" stroke="#ff00ff" stroke-width="2.8" filter="url(#skr1x5700) url(#metalr1x5700)"/><polygon points="308.5,380.2 350.0,293.0 498.8,277.9 650.0,294.1 690.3,382.2 667.8,505.3 501.8,564.2 330.8,504.4" fill="url(#carbonr1x5700)"/><polygon points="381.5,303.1 500.1,285.1 617.6,301.3 607.9,381.3 391.3,379.0" fill="url(#suitHir1x5700)"/><polygon points="379.4,379.3 365.7,424.3 432.0,504.2 498.2,526.4 568.1,503.8 635.2,426.4 620.6,381.7" fill="#0d1520" fill-opacity=".88" stroke="#ff00ff" stroke-width="1.8" filter="url(#skr1x5700)"/><polygon points="379.3,412.9 476.6,410.5 484.8,441.2 387.1,441.3" fill="#ff00ff" filter="url(#glowr1x5700)"/><polygon points="523.3,410.6 618.3,410.9 610.7,439.1 514.9,439.7" fill="#ff00ff" filter="url(#glowr1x5700)"/><ellipse cx="430.9" cy="425.7" rx="38.4"  ry="8.2" fill="#ffffff" opacity=".88"/><ellipse cx="569.1" cy="425.7" rx="38.4"  ry="8.2" fill="#ffffff" opacity=".88"/><line x1="484.8412718337588" y1="413.173958491534" x2="513.9524455453642" y2="413.14406309695914" stroke="#ff00ff" stroke-opacity=".52" stroke-width="2"/><line x1="484.4705437827483" y1="439.71779493307696" x2="514.6389031577297" y2="438.3036404999904" stroke="#ff00ff" stroke-opacity=".52" stroke-width="2"/><line x1="500.8037491876632" y1="453.9339992921799" x2="501.10482497867196" y2="484.6459543912672" stroke="#ff00ff" stroke-opacity=".58" stroke-width="2.2" filter="url(#skr1x5700)"/><line x1="453.0358636117354" y1="490.78216565158215" x2="455.3995307934284" y2="518.8168661630713" stroke="#ff00ff" stroke-opacity=".52" stroke-width="1.5" filter="url(#skr1x5700)"/><line x1="475.8950324335508" y1="490.54216032242397" x2="477.7963439406268" y2="519.1702454003505" stroke="#ff00ff" stroke-opacity=".52" stroke-width="1.5" filter="url(#skr1x5700)"/><line x1="498.6344683468342" y1="491.06631369795645" x2="500.94370578452947" y2="519.479493909888" stroke="#ff00ff" stroke-opacity=".52" stroke-width="1.5" filter="url(#skr1x5700)"/><line x1="522.7789765750616" y1="489.93714186381544" x2="524.6537959263287" y2="521.5003798178398" stroke="#ff00ff" stroke-opacity=".52" stroke-width="1.5" filter="url(#skr1x5700)"/><line x1="547.3866342961044" y1="490.01557355551046" x2="545.8188930016198" y2="521.158336254675" stroke="#ff00ff" stroke-opacity=".52" stroke-width="1.5" filter="url(#skr1x5700)"/><polygon points="431.8,502.2 567.0,503.9 554.1,557.7 445.3,557.8" fill="#050508" fill-opacity=".72" stroke="#ff00ff" stroke-width="1.3" filter="url(#skr1x5700)"/><text x="30.0"  y="975.0" font-family="monospace" font-weight="bold" font-size="22.0" fill="rgba(255,255,255,.22)">#0001</text><text x="500.0"   y="975.0" text-anchor="middle" font-family="monospace" font-weight="bold" font-size="22.0" fill="#ff00ff" fill-opacity=".48">VOID RANGER</text><text x="970.0" y="975.0" text-anchor="end"    font-family="monospace" font-weight="bold" font-size="22.0" fill="#ff00ff" fill-opacity=".32">MECH RANGERS</text></svg>