<svg xmlns="http://www.w3.org/2000/svg" viewBox="0 0 1000 1000" width="1000" height="1000" shape-rendering="geometricPrecision"><defs>

  <!-- Scene gradients -->
  <radialGradient id="bgr1x5761" cx="50%" cy="42%" r="72%">
    <stop offset="0%"   stop-color="#1e0d00"/>
    <stop offset="100%" stop-color="#140900"/>
  </radialGradient>
  <linearGradient id="suitr1x5761" x1="8%" y1="0%" x2="92%" y2="100%">
    <stop offset="0%"   stop-color="#ffcc00" stop-opacity=".95"/>
    <stop offset="45%"  stop-color="#a07000"/>
    <stop offset="100%" stop-color="#140900"/>
  </linearGradient>
  <linearGradient id="suitHir1x5761" x1="0%" y1="0%" x2="0%" y2="100%">
    <stop offset="0%"   stop-color="rgba(255,255,255,.28)"/>
    <stop offset="60%"  stop-color="rgba(255,255,255,.04)"/>
    <stop offset="100%" stop-color="rgba(255,255,255,0)"/>
  </linearGradient>
  <!-- Bevel: bright top, dark bottom for armour panels -->
  <linearGradient id="bevelr1x5761" x1="0%" y1="0%" x2="0%" y2="100%">
    <stop offset="0%"   stop-color="rgba(255,255,255,.55)"/>
    <stop offset="30%"  stop-color="#ffcc00"/>
    <stop offset="70%"  stop-color="#a07000"/>
    <stop offset="100%" stop-color="rgba(0,0,0,.5)"/>
  </linearGradient>

  <!-- Weapon: cold steel blade sweep -->
  <linearGradient id="blader1x5761" x1="0%" y1="0%" x2="100%" y2="0%">
    <stop offset="0%"   stop-color="#0e0e20"/>
    <stop offset="16%"  stop-color="#3e3e58"/>
    <stop offset="34%"  stop-color="#c8c8e0"/>
    <stop offset="50%"  stop-color="#f5f5ff"/>
    <stop offset="66%"  stop-color="#b8b8d0"/>
    <stop offset="84%"  stop-color="#2e2e48"/>
    <stop offset="100%" stop-color="#08080e"/>
  </linearGradient>
  <!-- Blade tip brightening -->
  <linearGradient id="bladeTipr1x5761" x1="0%" y1="100%" x2="0%" y2="0%">
    <stop offset="0%"   stop-color="rgba(255,255,255,0)"/>
    <stop offset="55%"  stop-color="rgba(255,255,255,.1)"/>
    <stop offset="100%" stop-color="rgba(255,255,255,.55)"/>
  </linearGradient>
  <!-- Gunmetal anodised — blaster body -->
  <linearGradient id="gunmetalr1x5761" x1="0%" y1="0%" x2="0%" y2="100%">
    <stop offset="0%"   stop-color="#46465e"/>
    <stop offset="18%"  stop-color="#828296"/>
    <stop offset="42%"  stop-color="#26263a"/>
    <stop offset="72%"  stop-color="#16162a"/>
    <stop offset="100%" stop-color="#0c0c18"/>
  </linearGradient>
  <!-- Brushed steel tube — barrel/rod -->
  <linearGradient id="barrelr1x5761" x1="0%" y1="0%" x2="100%" y2="0%">
    <stop offset="0%"   stop-color="#0a0a14"/>
    <stop offset="24%"  stop-color="#585875"/>
    <stop offset="50%"  stop-color="#a8a8c8"/>
    <stop offset="76%"  stop-color="#383852"/>
    <stop offset="100%" stop-color="#0a0a14"/>
  </linearGradient>
  <!-- Chrome rod — lance shaft -->
  <linearGradient id="chromer1x5761" x1="0%" y1="0%" x2="100%" y2="0%">
    <stop offset="0%"   stop-color="#0c0c18"/>
    <stop offset="20%"  stop-color="#686888"/>
    <stop offset="44%"  stop-color="#e0e0f0"/>
    <stop offset="56%"  stop-color="#c0c0d8"/>
    <stop offset="80%"  stop-color="#28283e"/>
    <stop offset="100%" stop-color="#0c0c18"/>
  </linearGradient>
  <!-- Titanium plate — shield face -->
  <linearGradient id="titaniumr1x5761" x1="0%" y1="0%" x2="100%" y2="100%">
    <stop offset="0%"   stop-color="#585878"/>
    <stop offset="28%"  stop-color="#ffcc00" stop-opacity=".88"/>
    <stop offset="55%"  stop-color="#a07000"/>
    <stop offset="80%"  stop-color="#181828"/>
    <stop offset="100%" stop-color="#0a0a18"/>
  </linearGradient>
  <!-- Artillery black-chrome — cannon body -->
  <linearGradient id="artilleryr1x5761" x1="0%" y1="0%" x2="0%" y2="100%">
    <stop offset="0%"   stop-color="#383850"/>
    <stop offset="14%"  stop-color="#78789a"/>
    <stop offset="36%"  stop-color="#202034"/>
    <stop offset="65%"  stop-color="#14141e"/>
    <stop offset="100%" stop-color="#0a0a12"/>
  </linearGradient>
  <!-- Energy orb — staff -->
  <radialGradient id="orbr1x5761" cx="35%" cy="35%" r="65%">
    <stop offset="0%"   stop-color="rgba(255,255,255,.9)"/>
    <stop offset="30%"  stop-color="#ffcc00"/>
    <stop offset="68%"  stop-color="#a07000"/>
    <stop offset="100%" stop-color="rgba(0,0,0,.6)"/>
  </radialGradient>
  <!-- Knuckle plate chrome -->
  <linearGradient id="knuckler1x5761" x1="0%" y1="0%" x2="0%" y2="100%">
    <stop offset="0%"   stop-color="#888aaa"/>
    <stop offset="32%"  stop-color="#ffcc00" stop-opacity=".8"/>
    <stop offset="62%"  stop-color="#1a1a2c"/>
    <stop offset="100%" stop-color="#0a0a14"/>
  </linearGradient>

  <!-- Carbon fibre weave texture overlay -->
  <pattern id="carbonr1x5761" width="6" height="6" patternUnits="userSpaceOnUse">
    <rect width="6" height="6" fill="rgba(0,0,0,.08)"/>
    <rect x="0" y="0" width="3" height="3" fill="rgba(255,255,255,.022)"/>
    <rect x="3" y="3" width="3" height="3" fill="rgba(255,255,255,.022)"/>
    <line x1="0" y1="0" x2="3" y2="3" stroke="rgba(255,255,255,.038)" stroke-width=".5"/>
    <line x1="3" y1="0" x2="6" y2="3" stroke="rgba(0,0,0,.055)"       stroke-width=".5"/>
    <line x1="0" y1="3" x2="3" y2="6" stroke="rgba(0,0,0,.055)"       stroke-width=".5"/>
    <line x1="3" y1="3" x2="6" y2="6" stroke="rgba(255,255,255,.038)" stroke-width=".5"/>
  </pattern>

  <!-- Specular metal sheen on armour panels -->
  <filter id="metalr1x5761" x="-5%" y="-5%" width="110%" height="110%">
    <feSpecularLighting surfaceScale="4" specularConstant="1.8"
        specularExponent="42" lighting-color="#ffffff" result="spec">
      <feDistantLight elevation="52" azimuth="38"/>
    </feSpecularLighting>
    <feComposite in="spec" in2="SourceGraphic" operator="in" result="sm"/>
    <feComposite in="SourceGraphic" in2="sm" operator="arithmetic" k1="0" k2="1" k3="0.55" k4="0"/>
  </filter>

  <!-- Sharper specular for weapons — heavier glare -->
  <filter id="wmr1x5761" x="-8%" y="-8%" width="116%" height="116%">
    <feSpecularLighting surfaceScale="6" specularConstant="2.4"
        specularExponent="65" lighting-color="#ffffff" result="spec">
      <feDistantLight elevation="44" azimuth="28"/>
    </feSpecularLighting>
    <feComposite in="spec" in2="SourceGraphic" operator="in" result="sm"/>
    <feComposite in="SourceGraphic" in2="sm" operator="arithmetic" k1="0" k2="1" k3="0.78" k4="0"/>
  </filter>

  <!-- Sketch wobble -->
  <filter id="skr1x5761" x="-8%" y="-8%" width="116%" height="116%">
    <feTurbulence type="fractalNoise" baseFrequency="0.038"
        numOctaves="3" seed="66" result="noise"/>
    <feDisplacementMap in="SourceGraphic" in2="noise" scale="2.6"
        xChannelSelector="R" yChannelSelector="G" result="w"/>
    <feComposite in="w" in2="SourceGraphic" operator="atop"/>
  </filter>

  <!-- Glow: sharp accent -->
  <filter id="glowr1x5761" x="-20%" y="-20%" width="140%" height="140%">
    <feGaussianBlur stdDeviation="3.5" result="b"/>
    <feColorMatrix in="b" type="matrix"
        values="0 0 0 0 1  0 0 0 0 1  0 0 0 0 1  0 0 0 1.8 0" result="boost"/>
    <feMerge><feMergeNode in="boost"/><feMergeNode in="SourceGraphic"/></feMerge>
  </filter>

  <!-- Bloom: wide soft -->
  <filter id="bloomr1x5761" x="-40%" y="-40%" width="180%" height="180%">
    <feGaussianBlur stdDeviation="11" result="b"/>
    <feMerge><feMergeNode in="b"/><feMergeNode in="SourceGraphic"/></feMerge>
  </filter>

  </defs><rect width="1000" height="1000" fill="url(#bgr1x5761)"/><line x1="500" y1="500" x2="1500.0" y2="500.0" stroke="#ffcc00" stroke-opacity=".048" stroke-width="5"/><line x1="500" y1="500" x2="1474.9" y2="722.5" stroke="#ffcc00" stroke-opacity=".048" stroke-width="5"/><line x1="500" y1="500" x2="1401.0" y2="933.9" stroke="#ffcc00" stroke-opacity=".048" stroke-width="5"/><line x1="500" y1="500" x2="1281.8" y2="1123.5" stroke="#ffcc00" stroke-opacity=".048" stroke-width="5"/><line x1="500" y1="500" x2="1123.5" y2="1281.8" stroke="#ffcc00" stroke-opacity=".048" stroke-width="5"/><line x1="500" y1="500" x2="933.9" y2="1401.0" stroke="#ffcc00" stroke-opacity=".048" stroke-width="5"/><line x1="500" y1="500" x2="722.5" y2="1474.9" stroke="#ffcc00" stroke-opacity=".048" stroke-width="5"/><line x1="500" y1="500" x2="500.0" y2="1500.0" stroke="#ffcc00" stroke-opacity=".048" stroke-width="5"/><line x1="500" y1="500" x2="277.5" y2="1474.9" stroke="#ffcc00" stroke-opacity=".048" stroke-width="5"/><line x1="500" y1="500" x2="66.1" y2="1401.0" stroke="#ffcc00" stroke-opacity=".048" stroke-width="5"/><line x1="500" y1="500" x2="-123.5" y2="1281.8" stroke="#ffcc00" stroke-opacity=".048" stroke-width="5"/><line x1="500" y1="500" x2="-281.8" y2="1123.5" stroke="#ffcc00" stroke-opacity=".048" stroke-width="5"/><line x1="500" y1="500" x2="-401.0" y2="933.9" stroke="#ffcc00" stroke-opacity=".048" stroke-width="5"/><line x1="500" y1="500" x2="-474.9" y2="722.5" stroke="#ffcc00" stroke-opacity=".048" stroke-width="5"/><line x1="500" y1="500" x2="-500.0" y2="500.0" stroke="#ffcc00" stroke-opacity=".048" stroke-width="5"/><line x1="500" y1="500" x2="-474.9" y2="277.5" stroke="#ffcc00" stroke-opacity=".048" stroke-width="5"/><line x1="500" y1="500" x2="-401.0" y2="66.1" stroke="#ffcc00" stroke-opacity=".048" stroke-width="5"/><line x1="500" y1="500" x2="-281.8" y2="-123.5" stroke="#ffcc00" stroke-opacity=".048" stroke-width="5"/><line x1="500" y1="500" x2="-123.5" y2="-281.8" stroke="#ffcc00" stroke-opacity=".048" stroke-width="5"/><line x1="500" y1="500" x2="66.1" y2="-401.0" stroke="#ffcc00" stroke-opacity=".048" stroke-width="5"/><line x1="500" y1="500" x2="277.5" y2="-474.9" stroke="#ffcc00" stroke-opacity=".048" stroke-width="5"/><line x1="500" y1="500" x2="500.0" y2="-500.0" stroke="#ffcc00" stroke-opacity=".048" stroke-width="5"/><line x1="500" y1="500" x2="722.5" y2="-474.9" stroke="#ffcc00" stroke-opacity=".048" stroke-width="5"/><line x1="500" y1="500" x2="933.9" y2="-401.0" stroke="#ffcc00" stroke-opacity=".048" stroke-width="5"/><line x1="500" y1="500" x2="1123.5" y2="-281.8" stroke="#ffcc00" stroke-opacity=".048" stroke-width="5"/><line x1="500" y1="500" x2="1281.8" y2="-123.5" stroke="#ffcc00" stroke-opacity=".048" stroke-width="5"/><line x1="500" y1="500" x2="1401.0" y2="66.1" stroke="#ffcc00" stroke-opacity=".048" stroke-width="5"/><line x1="500" y1="500" x2="1474.9" y2="277.5" stroke="#ffcc00" stroke-opacity=".048" stroke-width="5"/><ellipse cx="500.0" cy="892.0" rx="350.0" ry="65.0" fill="rgba(0,0,0,.7)" filter="url(#bloomr1x5761)"/><ellipse cx="500.0" cy="889.0" rx="220.0" ry="34.0" fill="rgba(0,0,0,.45)"/><ellipse cx="500.0" cy="520.0" rx="320.0" ry="480.0" fill="#00e5ff" fill-opacity=".042" filter="url(#bloomr1x5761)"/><circle cx="398.1" cy="579.9" r="3.3" fill="#00e5ff" fill-opacity="0.41" filter="url(#glowr1x5761)"/><circle cx="558.3" cy="323.1" r="3.6" fill="#00e5ff" fill-opacity="0.46" filter="url(#glowr1x5761)"/><circle cx="433.6" cy="725.0" r="1.9" fill="#00e5ff" fill-opacity="0.59" filter="url(#glowr1x5761)"/><circle cx="500.1" cy="601.8" r="3.9" fill="#00e5ff" fill-opacity="0.40" filter="url(#glowr1x5761)"/><circle cx="426.8" cy="642.8" r="3.3" fill="#00e5ff" fill-opacity="0.57" filter="url(#glowr1x5761)"/><circle cx="377.3" cy="276.7" r="1.9" fill="#00e5ff" fill-opacity="0.53" filter="url(#glowr1x5761)"/><circle cx="472.8" cy="756.0" r="3.6" fill="#00e5ff" fill-opacity="0.69" filter="url(#glowr1x5761)"/><circle cx="465.9" cy="287.1" r="0.9" fill="#00e5ff" fill-opacity="0.45" filter="url(#glowr1x5761)"/><circle cx="289.5" cy="391.6" r="0.8" fill="#00e5ff" fill-opacity="0.81" filter="url(#glowr1x5761)"/><circle cx="374.7" cy="493.1" r="2.2" fill="#00e5ff" fill-opacity="0.44" filter="url(#glowr1x5761)"/><circle cx="348.1" cy="595.5" r="4.0" fill="#00e5ff" fill-opacity="0.40" filter="url(#glowr1x5761)"/><circle cx="555.0" cy="255.9" r="3.8" fill="#00e5ff" fill-opacity="0.66" filter="url(#glowr1x5761)"/><circle cx="391.3" cy="214.3" r="3.6" fill="#00e5ff" fill-opacity="0.45" filter="url(#glowr1x5761)"/><circle cx="386.6" cy="508.4" r="2.7" fill="#00e5ff" fill-opacity="0.64" filter="url(#glowr1x5761)"/><path d="M510.3,337.9 Q522.9,598.4 522.1,869.8" stroke="#00e5ff" stroke-opacity="0.42" stroke-width="2.5" fill="none" filter="url(#glowr1x5761)"/><path d="M501.9,250.4 Q474.7,416.0 703.5,610.7" stroke="#00e5ff" stroke-opacity="0.45" stroke-width="1.5" fill="none" filter="url(#glowr1x5761)"/><path d="M519.8,328.1 Q519.7,506.6 595.8,663.3" stroke="#00e5ff" stroke-opacity="0.76" stroke-width="1.5" fill="none" filter="url(#glowr1x5761)"/><path d="M515.3,164.5 Q506.5,470.2 449.8,730.2" stroke="#00e5ff" stroke-opacity="0.65" stroke-width="2.3" fill="none" filter="url(#glowr1x5761)"/><path d="M302.9,150.9 Q324.1,453.4 601.1,797.6" stroke="#00e5ff" stroke-opacity="0.73" stroke-width="2.1" fill="none" filter="url(#glowr1x5761)"/><polygon points="397.1,661.5 489.5,663.3 480.0,878.9 386.1,878.3" fill="url(#suitr1x5761)" stroke="#ffcc00" stroke-width="2.2" filter="url(#skr1x5761) url(#metalr1x5761)"/><polygon points="397.5,663.8 488.9,664.2 481.1,876.5 388.3,878.1" fill="url(#carbonr1x5761)"/><polygon points="394.2,723.5 492.5,725.2 484.5,788.4 382.4,787.2" fill="url(#bevelr1x5761)" fill-opacity=".5" stroke="#ffcc00" stroke-width="1.4" filter="url(#skr1x5761)"/><polygon points="509.7,664.2 602.7,663.3 612.8,878.2 518.2,877.8" fill="url(#suitr1x5761)" stroke="#ffcc00" stroke-width="2.2" filter="url(#skr1x5761) url(#metalr1x5761)"/><polygon points="510.4,661.6 600.1,663.4 611.4,877.9 519.8,876.1" fill="url(#carbonr1x5761)"/><polygon points="505.7,723.8 606.5,723.7 615.1,788.1 514.1,788.5" fill="url(#bevelr1x5761)" fill-opacity=".5" stroke="#ffcc00" stroke-width="1.4" filter="url(#skr1x5761)"/><rect x="392.0" y="839.4" width="100.3" height="24.7" fill="url(#bevelr1x5761)" stroke="#ffcc00" stroke-width="1" filter="url(#skr1x5761)"/><rect x="508.5"  y="840.1" width="100.3" height="24.7" fill="url(#bevelr1x5761)" stroke="#ffcc00" stroke-width="1" filter="url(#skr1x5761)"/><polygon points="369.2,875.8 497.0,878.9 502.0,921.9 363.4,921.6" fill="#a07000" stroke="#ffcc00" stroke-width="2" filter="url(#skr1x5761)"/><polygon points="502.5,879.2 628.7,875.9 638.3,920.4 496.3,920.7" fill="#a07000" stroke="#ffcc00" stroke-width="2" filter="url(#skr1x5761)"/><polygon points="303.1,631.3 697.2,634.2 636.5,683.3 362.1,681.3" fill="#ffcc00" fill-opacity=".52" stroke="#ffcc00" stroke-width="2" filter="url(#skr1x5761)"/><rect x="462.2" y="639.1" width="72.0" height="42.0" fill="url(#bevelr1x5761)" stroke="#ffcc00" stroke-width="1.4" filter="url(#glowr1x5761)"/><rect x="487.1" y="641.3" width="28.0" height="22.0" rx="1" fill="rgba(255,255,255,.48)"/><polygon points="154.5,468.3 236.6,466.3 258.3,735.0 129.5,734.6" fill="url(#suitr1x5761)" stroke="#ffcc00" stroke-width="2.2" filter="url(#skr1x5761) url(#metalr1x5761)"/><polygon points="173.5,432.6 254.4,432.6 244.9,509.8 160.9,510.0" fill="url(#bevelr1x5761)" fill-opacity=".72" stroke="#ffcc00" stroke-width="2.2" filter="url(#skr1x5761)"/><polygon points="161.8,620.9 244.3,622.8 237.7,659.2 165.5,659.2" fill="#ffcc00" fill-opacity=".42" stroke="#ffcc00" stroke-width="1" filter="url(#skr1x5761)"/><polygon points="763.5,464.9 845.5,467.9 871.2,736.0 743.8,734.7" fill="url(#suitr1x5761)" stroke="#ffcc00" stroke-width="2.2" filter="url(#skr1x5761) url(#metalr1x5761)"/><polygon points="746.6,433.2 828.3,431.0 841.2,511.3 758.1,508.9" fill="url(#bevelr1x5761)" fill-opacity=".72" stroke="#ffcc00" stroke-width="2.2" filter="url(#skr1x5761)"/><polygon points="755.8,620.5 838.1,622.6 834.3,660.1 760.4,659.2" fill="#ffcc00" fill-opacity=".42" stroke="#ffcc00" stroke-width="1" filter="url(#skr1x5761)"/><rect x="120.1"  y="701.2" width="135.3" height="85.0" rx="4" fill="url(#bevelr1x5761)" stroke="#ffcc00" stroke-width="1.8" filter="url(#skr1x5761)"/><rect x="747.8"   y="699.6" width="135.3" height="85.0" rx="4" fill="url(#bevelr1x5761)" stroke="#ffcc00" stroke-width="1.8" filter="url(#skr1x5761)"/><line x1="151.2" y1="702.1" x2="150.1" y2="783.7" stroke="#ffcc00" stroke-opacity=".38" stroke-width="1"/><line x1="779.6" y1="701.5" x2="777.6" y2="784.7" stroke="#ffcc00" stroke-opacity=".38" stroke-width="1"/><line x1="184.1" y1="701.8" x2="183.5" y2="784.7" stroke="#ffcc00" stroke-opacity=".38" stroke-width="1"/><line x1="810.5" y1="702.5" x2="810.1" y2="782.3" stroke="#ffcc00" stroke-opacity=".38" stroke-width="1"/><line x1="216.5" y1="703.4" x2="216.0" y2="784.6" stroke="#ffcc00" stroke-opacity=".38" stroke-width="1"/><line x1="842.3" y1="703.6" x2="843.1" y2="782.1" stroke="#ffcc00" stroke-opacity=".38" stroke-width="1"/><polygon points="233.5,418.4 766.4,419.0 724.1,663.6 276.1,661.8" fill="url(#suitr1x5761)" stroke="#ffcc00" stroke-width="2.6" filter="url(#skr1x5761) url(#metalr1x5761)"/><polygon points="236.4,416.5 765.4,418.2 723.6,662.6 278.5,660.8" fill="url(#carbonr1x5761)"/><polygon points="368.3,418.1 632.0,417.2 612.3,516.9 387.0,514.0" fill="url(#suitHir1x5761)"/><line x1="362.4" y1="471.5" x2="639.5" y2="470.2" stroke="#ffcc00" stroke-opacity=".52" stroke-width="1.3" filter="url(#skr1x5761)"/><line x1="397.7" y1="551.3" x2="602.0" y2="551.1" stroke="#ffcc00" stroke-opacity=".52" stroke-width="1.3" filter="url(#skr1x5761)"/><line x1="266.6" y1="491.2" x2="320.8" y2="490.0" stroke="#ffcc00" stroke-opacity=".62" stroke-width="1.8"/><line x1="681.5" y1="491.4" x2="732.1" y2="489.4" stroke="#ffcc00" stroke-opacity=".62" stroke-width="1.8"/><line x1="265.0" y1="523.9" x2="318.0" y2="523.1" stroke="#ffcc00" stroke-opacity=".62" stroke-width="1.8"/><line x1="679.9" y1="522.8" x2="731.7" y2="521.6" stroke="#ffcc00" stroke-opacity=".62" stroke-width="1.8"/><line x1="266.2" y1="554.8" x2="321.5" y2="554.8" stroke="#ffcc00" stroke-opacity=".62" stroke-width="1.8"/><line x1="680.9" y1="554.7" x2="732.3" y2="554.3" stroke="#ffcc00" stroke-opacity=".62" stroke-width="1.8"/><line x1="267.6" y1="585.8" x2="319.6" y2="585.6" stroke="#ffcc00" stroke-opacity=".62" stroke-width="1.8"/><line x1="678.7" y1="586.3" x2="734.1" y2="586.3" stroke="#ffcc00" stroke-opacity=".62" stroke-width="1.8"/><g filter="url(#glowr1x5761)"><path d="M500.0,449.7 C462.3,446.8 442.0,481.6 447.8,513.5 L459.4,542.5 C476.8,536.7 491.3,551.2 500.0,551.2 C508.7,551.2 523.2,536.7 540.6,542.5 L552.2,513.5 C558.0,481.6 537.7,446.8 500.0,449.7 Z" fill="#ffcc00" fill-opacity=".92" stroke="#140900" stroke-width="1.3" filter="url(#skr1x5761)"/><path d="M483.8,519.3 Q500.0,533.8 516.2,519.3" stroke="#140900" stroke-width="1" fill="none" opacity=".58"/><ellipse cx="481.4" cy="497.8" rx="8.7" ry="6.4" fill="#140900" opacity=".95"/><ellipse cx="518.6" cy="497.8" rx="8.7" ry="6.4" fill="#140900" opacity=".95"/><ellipse cx="481.4" cy="497.8" rx="2.3" ry="5.8" fill="#ffcc00"/><ellipse cx="518.6" cy="497.8" rx="2.3" ry="5.8" fill="#ffcc00"/><path d="M471.0,467.1 L458.2,426.5 L481.4,463.0" fill="#ffcc00" stroke="#140900" stroke-width=".9"/><path d="M529.0,467.1 L541.8,426.5 L518.6,463.0" fill="#ffcc00" stroke="#140900" stroke-width=".9"/><path d="M476.8,452.6 C488.4,449.1 511.6,449.1 523.2,452.6" fill="rgba(255,255,255,.18)"/></g><g><line x1="103.01877828048539" y1="831.3830570422112" x2="102.46730690620836" y2="109.63322834353892" stroke="url(#chromer1x5761)" stroke-width="22.0" stroke-linecap="round" filter="url(#wmr1x5761)"/><line x1="97.37381376273927" y1="810.0208156263456" x2="99.69961684769017" y2="130.5551133016124" stroke="rgba(255,255,255,.35)" stroke-width="4.0" stroke-linecap="round"/><rect x="85.89607648517934" y="619.7427550083958" width="32.0" height="18.0" fill="url(#bevelr1x5761)" stroke="#ffcc00" stroke-width=".8" filter="url(#wmr1x5761)"/><rect x="86.32969444938001" y="442.9440685602836" width="32.0" height="18.0" fill="url(#bevelr1x5761)" stroke="#ffcc00" stroke-width=".8" filter="url(#wmr1x5761)"/><rect x="85.89784536765885" y="262.5042363201268" width="32.0" height="18.0" fill="url(#bevelr1x5761)" stroke="#ffcc00" stroke-width=".8" filter="url(#wmr1x5761)"/><circle cx="103.38283646808934" cy="111.65972890034315" r="58.0" fill="rgba(0,0,0,.52)" stroke="#ffcc00" stroke-width="2.2" filter="url(#wmr1x5761)"/><circle cx="101.20136917907742" cy="111.2610645377077" r="46.0" fill="url(#orbr1x5761)" filter="url(#bloomr1x5761)"/><circle cx="101.86105828596276" cy="110.42061175545675" r="20.0" fill="#00e5ff" filter="url(#glowr1x5761)"/><circle cx="101.12150403441858" cy="110.08752946015446" r="66.0" fill="none" stroke="#ffcc00" stroke-opacity=".4" stroke-width="1.3" stroke-dasharray="4,4"/><ellipse cx="103.48802092991767" cy="111.0573403501883" rx="66.0" ry="30.0" fill="none" stroke="#ffcc00" stroke-opacity=".24" stroke-width="1" stroke-dasharray="3,5" transform="rotate(60,102.2,111.4)"/></g><rect x="450.3447147927247" y="557.7928870054893" width="100.0"  height="56.0" fill="#a07000" stroke="#ffcc00" stroke-width="2.2" filter="url(#skr1x5761)"/><rect x="424.18134394027294" y="575.9247533952818" width="152.0" height="26.0" fill="url(#bevelr1x5761)" fill-opacity=".65" stroke="#ffcc00" stroke-width="1.2" filter="url(#skr1x5761)"/><polygon points="306.5,381.4 351.3,296.2 501.6,278.9 649.1,294.0 693.3,378.9 670.5,503.3 501.6,566.4 332.7,502.9" fill="url(#suitr1x5761)" stroke="#ffcc00" stroke-width="2.8" filter="url(#skr1x5761) url(#metalr1x5761)"/><polygon points="306.3,378.8 350.3,296.1 499.1,279.7 650.8,294.6 691.9,380.3 669.6,502.9 499.3,565.9 330.4,504.4" fill="url(#carbonr1x5761)"/><polygon points="381.2,301.6 499.8,286.5 617.3,304.3 607.9,382.2 392.4,380.7" fill="url(#suitHir1x5761)"/><polygon points="382.7,380.0 366.6,426.2 434.5,504.5 499.3,529.0 568.7,503.8 633.2,426.2 617.4,381.7" fill="#140900" fill-opacity=".88" stroke="#ffcc00" stroke-width="1.8" filter="url(#skr1x5761)"/><polygon points="379.5,409.8 478.1,411.4 484.1,440.8 387.1,438.6" fill="#ffcc00" filter="url(#glowr1x5761)"/><polygon points="523.3,412.9 617.6,410.5 610.6,439.0 514.3,439.0" fill="#ffcc00" filter="url(#glowr1x5761)"/><ellipse cx="430.9" cy="425.7" rx="38.4"  ry="8.2" fill="#ffffff" opacity=".88"/><ellipse cx="569.1" cy="425.7" rx="38.4"  ry="8.2" fill="#ffffff" opacity=".88"/><line x1="485.7639845391363" y1="413.57367801172654" x2="516.8419125380367" y2="413.3174803133122" stroke="#ffcc00" stroke-opacity=".52" stroke-width="2"/><line x1="483.2810679665394" y1="439.1052014887333" x2="516.2590532196127" y2="438.2949340151623" stroke="#ffcc00" stroke-opacity=".52" stroke-width="2"/><line x1="499.4490605589002" y1="455.699797995761" x2="501.6353332005441" y2="482.70316179506483" stroke="#ffcc00" stroke-opacity=".58" stroke-width="2.2" filter="url(#skr1x5761)"/><line x1="455.6701641952433" y1="493.0316693155095" x2="453.27861966777596" y2="520.0289159834385" stroke="#ffcc00" stroke-opacity=".52" stroke-width="1.5" filter="url(#skr1x5761)"/><line x1="477.2701657713763" y1="489.7023222580552" x2="475.371098754406" y2="518.3780939252116" stroke="#ffcc00" stroke-opacity=".52" stroke-width="1.5" filter="url(#skr1x5761)"/><line x1="500.86763757998125" y1="489.95938865272325" x2="500.9222550341859" y2="521.2463132954202" stroke="#ffcc00" stroke-opacity=".52" stroke-width="1.5" filter="url(#skr1x5761)"/><line x1="521.254779522363" y1="492.078670608811" x2="523.5469005438126" y2="518.2078585974872" stroke="#ffcc00" stroke-opacity=".52" stroke-width="1.5" filter="url(#skr1x5761)"/><line x1="547.1834735593945" y1="491.25211704373356" x2="546.5403908978403" y2="520.7643912061118" stroke="#ffcc00" stroke-opacity=".52" stroke-width="1.5" filter="url(#skr1x5761)"/><polygon points="432.2,505.0 568.4,503.3 554.7,556.6 447.4,557.8" fill="#a07000" fill-opacity=".72" stroke="#ffcc00" stroke-width="1.3" filter="url(#skr1x5761)"/><polygon points="314.6,304.9 362.0,304.6 340.3,195.1" fill="url(#bevelr1x5761)" fill-opacity=".95" stroke="#ffcc00" stroke-width="1.6" filter="url(#skr1x5761) url(#glowr1x5761)"/><polygon points="396.5,306.3 444.1,305.4 420.0,207.7" fill="url(#bevelr1x5761)" fill-opacity=".95" stroke="#ffcc00" stroke-width="1.6" filter="url(#skr1x5761) url(#glowr1x5761)"/><polygon points="477.1,306.1 524.7,304.3 498.3,220.6" fill="url(#bevelr1x5761)" fill-opacity=".95" stroke="#ffcc00" stroke-width="1.6" filter="url(#skr1x5761) url(#glowr1x5761)"/><polygon points="556.2,304.2 603.6,306.4 579.3,207.6" fill="url(#bevelr1x5761)" fill-opacity=".95" stroke="#ffcc00" stroke-width="1.6" filter="url(#skr1x5761) url(#glowr1x5761)"/><polygon points="639.7,303.8 685.7,304.4 661.8,194.4" fill="url(#bevelr1x5761)" fill-opacity=".95" stroke="#ffcc00" stroke-width="1.6" filter="url(#skr1x5761) url(#glowr1x5761)"/><text x="30.0"  y="975.0" font-family="monospace" font-weight="bold" font-size="22.0" fill="rgba(255,255,255,.22)">#0001</text><text x="500.0"   y="975.0" text-anchor="middle" font-family="monospace" font-weight="bold" font-size="22.0" fill="#ffcc00" fill-opacity=".48">NOVA RANGER</text><text x="970.0" y="975.0" text-anchor="end"    font-family="monospace" font-weight="bold" font-size="22.0" fill="#ffcc00" fill-opacity=".32">MECH RANGERS</text></svg>