<svg xmlns="http://www.w3.org/2000/svg" viewBox="0 0 1000 1000" width="1000" height="1000" shape-rendering="geometricPrecision"><defs>

  <!-- Scene gradients -->
  <radialGradient id="bgr1x5772" cx="50%" cy="42%" r="72%">
    <stop offset="0%"   stop-color="#0e000e"/>
    <stop offset="100%" stop-color="#1e0600"/>
  </radialGradient>
  <linearGradient id="suitr1x5772" x1="8%" y1="0%" x2="92%" y2="100%">
    <stop offset="0%"   stop-color="#ff2040" stop-opacity=".95"/>
    <stop offset="45%"  stop-color="#cc0020"/>
    <stop offset="100%" stop-color="#1e0600"/>
  </linearGradient>
  <linearGradient id="suitHir1x5772" x1="0%" y1="0%" x2="0%" y2="100%">
    <stop offset="0%"   stop-color="rgba(255,255,255,.28)"/>
    <stop offset="60%"  stop-color="rgba(255,255,255,.04)"/>
    <stop offset="100%" stop-color="rgba(255,255,255,0)"/>
  </linearGradient>
  <!-- Bevel: bright top, dark bottom for armour panels -->
  <linearGradient id="bevelr1x5772" x1="0%" y1="0%" x2="0%" y2="100%">
    <stop offset="0%"   stop-color="rgba(255,255,255,.55)"/>
    <stop offset="30%"  stop-color="#ff2040"/>
    <stop offset="70%"  stop-color="#cc0020"/>
    <stop offset="100%" stop-color="rgba(0,0,0,.5)"/>
  </linearGradient>

  <!-- Weapon: cold steel blade sweep -->
  <linearGradient id="blader1x5772" x1="0%" y1="0%" x2="100%" y2="0%">
    <stop offset="0%"   stop-color="#0e0e20"/>
    <stop offset="16%"  stop-color="#3e3e58"/>
    <stop offset="34%"  stop-color="#c8c8e0"/>
    <stop offset="50%"  stop-color="#f5f5ff"/>
    <stop offset="66%"  stop-color="#b8b8d0"/>
    <stop offset="84%"  stop-color="#2e2e48"/>
    <stop offset="100%" stop-color="#08080e"/>
  </linearGradient>
  <!-- Blade tip brightening -->
  <linearGradient id="bladeTipr1x5772" x1="0%" y1="100%" x2="0%" y2="0%">
    <stop offset="0%"   stop-color="rgba(255,255,255,0)"/>
    <stop offset="55%"  stop-color="rgba(255,255,255,.1)"/>
    <stop offset="100%" stop-color="rgba(255,255,255,.55)"/>
  </linearGradient>
  <!-- Gunmetal anodised — blaster body -->
  <linearGradient id="gunmetalr1x5772" x1="0%" y1="0%" x2="0%" y2="100%">
    <stop offset="0%"   stop-color="#46465e"/>
    <stop offset="18%"  stop-color="#828296"/>
    <stop offset="42%"  stop-color="#26263a"/>
    <stop offset="72%"  stop-color="#16162a"/>
    <stop offset="100%" stop-color="#0c0c18"/>
  </linearGradient>
  <!-- Brushed steel tube — barrel/rod -->
  <linearGradient id="barrelr1x5772" x1="0%" y1="0%" x2="100%" y2="0%">
    <stop offset="0%"   stop-color="#0a0a14"/>
    <stop offset="24%"  stop-color="#585875"/>
    <stop offset="50%"  stop-color="#a8a8c8"/>
    <stop offset="76%"  stop-color="#383852"/>
    <stop offset="100%" stop-color="#0a0a14"/>
  </linearGradient>
  <!-- Chrome rod — lance shaft -->
  <linearGradient id="chromer1x5772" x1="0%" y1="0%" x2="100%" y2="0%">
    <stop offset="0%"   stop-color="#0c0c18"/>
    <stop offset="20%"  stop-color="#686888"/>
    <stop offset="44%"  stop-color="#e0e0f0"/>
    <stop offset="56%"  stop-color="#c0c0d8"/>
    <stop offset="80%"  stop-color="#28283e"/>
    <stop offset="100%" stop-color="#0c0c18"/>
  </linearGradient>
  <!-- Titanium plate — shield face -->
  <linearGradient id="titaniumr1x5772" x1="0%" y1="0%" x2="100%" y2="100%">
    <stop offset="0%"   stop-color="#585878"/>
    <stop offset="28%"  stop-color="#ff2040" stop-opacity=".88"/>
    <stop offset="55%"  stop-color="#cc0020"/>
    <stop offset="80%"  stop-color="#181828"/>
    <stop offset="100%" stop-color="#0a0a18"/>
  </linearGradient>
  <!-- Artillery black-chrome — cannon body -->
  <linearGradient id="artilleryr1x5772" x1="0%" y1="0%" x2="0%" y2="100%">
    <stop offset="0%"   stop-color="#383850"/>
    <stop offset="14%"  stop-color="#78789a"/>
    <stop offset="36%"  stop-color="#202034"/>
    <stop offset="65%"  stop-color="#14141e"/>
    <stop offset="100%" stop-color="#0a0a12"/>
  </linearGradient>
  <!-- Energy orb — staff -->
  <radialGradient id="orbr1x5772" cx="35%" cy="35%" r="65%">
    <stop offset="0%"   stop-color="rgba(255,255,255,.9)"/>
    <stop offset="30%"  stop-color="#ff2040"/>
    <stop offset="68%"  stop-color="#cc0020"/>
    <stop offset="100%" stop-color="rgba(0,0,0,.6)"/>
  </radialGradient>
  <!-- Knuckle plate chrome -->
  <linearGradient id="knuckler1x5772" x1="0%" y1="0%" x2="0%" y2="100%">
    <stop offset="0%"   stop-color="#888aaa"/>
    <stop offset="32%"  stop-color="#ff2040" stop-opacity=".8"/>
    <stop offset="62%"  stop-color="#1a1a2c"/>
    <stop offset="100%" stop-color="#0a0a14"/>
  </linearGradient>

  <!-- Carbon fibre weave texture overlay -->
  <pattern id="carbonr1x5772" width="6" height="6" patternUnits="userSpaceOnUse">
    <rect width="6" height="6" fill="rgba(0,0,0,.08)"/>
    <rect x="0" y="0" width="3" height="3" fill="rgba(255,255,255,.022)"/>
    <rect x="3" y="3" width="3" height="3" fill="rgba(255,255,255,.022)"/>
    <line x1="0" y1="0" x2="3" y2="3" stroke="rgba(255,255,255,.038)" stroke-width=".5"/>
    <line x1="3" y1="0" x2="6" y2="3" stroke="rgba(0,0,0,.055)"       stroke-width=".5"/>
    <line x1="0" y1="3" x2="3" y2="6" stroke="rgba(0,0,0,.055)"       stroke-width=".5"/>
    <line x1="3" y1="3" x2="6" y2="6" stroke="rgba(255,255,255,.038)" stroke-width=".5"/>
  </pattern>

  <!-- Specular metal sheen on armour panels -->
  <filter id="metalr1x5772" x="-5%" y="-5%" width="110%" height="110%">
    <feSpecularLighting surfaceScale="4" specularConstant="1.8"
        specularExponent="42" lighting-color="#ffffff" result="spec">
      <feDistantLight elevation="52" azimuth="38"/>
    </feSpecularLighting>
    <feComposite in="spec" in2="SourceGraphic" operator="in" result="sm"/>
    <feComposite in="SourceGraphic" in2="sm" operator="arithmetic" k1="0" k2="1" k3="0.55" k4="0"/>
  </filter>

  <!-- Sharper specular for weapons — heavier glare -->
  <filter id="wmr1x5772" x="-8%" y="-8%" width="116%" height="116%">
    <feSpecularLighting surfaceScale="6" specularConstant="2.4"
        specularExponent="65" lighting-color="#ffffff" result="spec">
      <feDistantLight elevation="44" azimuth="28"/>
    </feSpecularLighting>
    <feComposite in="spec" in2="SourceGraphic" operator="in" result="sm"/>
    <feComposite in="SourceGraphic" in2="sm" operator="arithmetic" k1="0" k2="1" k3="0.78" k4="0"/>
  </filter>

  <!-- Sketch wobble -->
  <filter id="skr1x5772" x="-8%" y="-8%" width="116%" height="116%">
    <feTurbulence type="fractalNoise" baseFrequency="0.038"
        numOctaves="3" seed="42" result="noise"/>
    <feDisplacementMap in="SourceGraphic" in2="noise" scale="2.6"
        xChannelSelector="R" yChannelSelector="G" result="w"/>
    <feComposite in="w" in2="SourceGraphic" operator="atop"/>
  </filter>

  <!-- Glow: sharp accent -->
  <filter id="glowr1x5772" x="-20%" y="-20%" width="140%" height="140%">
    <feGaussianBlur stdDeviation="3.5" result="b"/>
    <feColorMatrix in="b" type="matrix"
        values="0 0 0 0 1  0 0 0 0 1  0 0 0 0 1  0 0 0 1.8 0" result="boost"/>
    <feMerge><feMergeNode in="boost"/><feMergeNode in="SourceGraphic"/></feMerge>
  </filter>

  <!-- Bloom: wide soft -->
  <filter id="bloomr1x5772" x="-40%" y="-40%" width="180%" height="180%">
    <feGaussianBlur stdDeviation="11" result="b"/>
    <feMerge><feMergeNode in="b"/><feMergeNode in="SourceGraphic"/></feMerge>
  </filter>

  </defs><rect width="1000" height="1000" fill="url(#bgr1x5772)"/><ellipse cx="500.0" cy="1000" rx="850.0" ry="350.0" fill="#ff4500" fill-opacity=".11" filter="url(#bloomr1x5772)"/><ellipse cx="500.0" cy="892.0" rx="350.0" ry="65.0" fill="rgba(0,0,0,.7)" filter="url(#bloomr1x5772)"/><ellipse cx="500.0" cy="889.0" rx="220.0" ry="34.0" fill="rgba(0,0,0,.45)"/><ellipse cx="500.0" cy="520.0" rx="320.0" ry="480.0" fill="#ffffff" fill-opacity=".042" filter="url(#bloomr1x5772)"/><circle cx="393.9" cy="387.2" r="3.8" fill="#ffffff" fill-opacity="0.63" filter="url(#glowr1x5772)"/><circle cx="594.2" cy="415.6" r="3.6" fill="#ffffff" fill-opacity="0.64" filter="url(#glowr1x5772)"/><circle cx="357.9" cy="383.2" r="3.4" fill="#ffffff" fill-opacity="0.45" filter="url(#glowr1x5772)"/><circle cx="597.7" cy="776.7" r="1.0" fill="#ffffff" fill-opacity="0.65" filter="url(#glowr1x5772)"/><circle cx="311.1" cy="563.5" r="3.0" fill="#ffffff" fill-opacity="0.65" filter="url(#glowr1x5772)"/><circle cx="366.3" cy="667.3" r="2.9" fill="#ffffff" fill-opacity="0.71" filter="url(#glowr1x5772)"/><circle cx="483.9" cy="324.2" r="2.1" fill="#ffffff" fill-opacity="0.43" filter="url(#glowr1x5772)"/><circle cx="667.7" cy="268.3" r="3.5" fill="#ffffff" fill-opacity="0.78" filter="url(#glowr1x5772)"/><circle cx="598.2" cy="699.0" r="3.7" fill="#ffffff" fill-opacity="0.53" filter="url(#glowr1x5772)"/><circle cx="664.6" cy="347.0" r="1.7" fill="#ffffff" fill-opacity="0.43" filter="url(#glowr1x5772)"/><circle cx="348.6" cy="379.2" r="0.9" fill="#ffffff" fill-opacity="0.87" filter="url(#glowr1x5772)"/><circle cx="257.4" cy="615.3" r="3.2" fill="#ffffff" fill-opacity="0.47" filter="url(#glowr1x5772)"/><circle cx="265.2" cy="649.3" r="4.0" fill="#ffffff" fill-opacity="0.74" filter="url(#glowr1x5772)"/><circle cx="491.2" cy="198.7" r="3.4" fill="#ffffff" fill-opacity="0.40" filter="url(#glowr1x5772)"/><polygon points="397.2,664.2 489.1,662.8 480.1,878.0 386.9,878.3" fill="url(#suitr1x5772)" stroke="#ff2040" stroke-width="2.2" filter="url(#skr1x5772) url(#metalr1x5772)"/><polygon points="398.5,662.4 489.1,660.9 482.4,879.0 386.0,876.7" fill="url(#carbonr1x5772)"/><polygon points="392.2,722.4 492.4,723.6 485.4,788.9 384.4,788.6" fill="url(#bevelr1x5772)" fill-opacity=".5" stroke="#ff2040" stroke-width="1.4" filter="url(#skr1x5772)"/><polygon points="510.9,662.9 599.5,661.3 612.7,876.5 520.5,876.2" fill="url(#suitr1x5772)" stroke="#ff2040" stroke-width="2.2" filter="url(#skr1x5772) url(#metalr1x5772)"/><polygon points="512.3,662.0 601.9,663.3 611.0,875.8 518.3,876.9" fill="url(#carbonr1x5772)"/><polygon points="505.4,723.4 608.8,724.5 617.1,786.8 517.6,788.2" fill="url(#bevelr1x5772)" fill-opacity=".5" stroke="#ff2040" stroke-width="1.4" filter="url(#skr1x5772)"/><rect x="391.5" y="840.5" width="100.3" height="24.7" fill="url(#bevelr1x5772)" stroke="#ff2040" stroke-width="1" filter="url(#skr1x5772)"/><rect x="508.4"  y="837.9" width="100.3" height="24.7" fill="url(#bevelr1x5772)" stroke="#ff2040" stroke-width="1" filter="url(#skr1x5772)"/><polygon points="370.8,877.5 496.5,877.6 504.2,922.7 363.5,920.4" fill="#cc0020" stroke="#ff2040" stroke-width="2" filter="url(#skr1x5772)"/><polygon points="503.8,876.0 631.5,876.5 635.6,922.5 495.8,920.2" fill="#cc0020" stroke="#ff2040" stroke-width="2" filter="url(#skr1x5772)"/><polygon points="304.7,631.7 697.8,633.9 639.3,680.3 362.2,681.7" fill="#ff2040" fill-opacity=".52" stroke="#ff2040" stroke-width="2" filter="url(#skr1x5772)"/><rect x="464.7" y="638.7" width="72.0" height="42.0" fill="url(#bevelr1x5772)" stroke="#ff2040" stroke-width="1.4" filter="url(#glowr1x5772)"/><rect x="486.8" y="642.1" width="28.0" height="22.0" rx="1" fill="rgba(255,255,255,.48)"/><polygon points="153.3,468.3 233.4,467.1 259.2,735.4 126.8,733.9" fill="url(#suitr1x5772)" stroke="#ff2040" stroke-width="2.2" filter="url(#skr1x5772) url(#metalr1x5772)"/><polygon points="174.3,431.1 252.5,432.0 242.3,510.1 159.7,511.4" fill="url(#bevelr1x5772)" fill-opacity=".72" stroke="#ff2040" stroke-width="2.2" filter="url(#skr1x5772)"/><polygon points="161.6,623.5 242.4,623.6 237.4,662.6 163.9,660.2" fill="#ff2040" fill-opacity=".42" stroke="#ff2040" stroke-width="1" filter="url(#skr1x5772)"/><polygon points="765.5,467.2 846.9,467.4 870.6,733.7 741.8,734.5" fill="url(#suitr1x5772)" stroke="#ff2040" stroke-width="2.2" filter="url(#skr1x5772) url(#metalr1x5772)"/><polygon points="747.1,432.2 828.1,431.4 839.0,511.5 757.3,511.5" fill="url(#bevelr1x5772)" fill-opacity=".72" stroke="#ff2040" stroke-width="2.2" filter="url(#skr1x5772)"/><polygon points="757.6,621.7 840.1,623.6 836.4,662.5 760.7,659.3" fill="#ff2040" fill-opacity=".42" stroke="#ff2040" stroke-width="1" filter="url(#skr1x5772)"/><rect x="118.7"  y="698.7" width="135.3" height="85.0" rx="4" fill="url(#bevelr1x5772)" stroke="#ff2040" stroke-width="1.8" filter="url(#skr1x5772)"/><rect x="747.8"   y="700.1" width="135.3" height="85.0" rx="4" fill="url(#bevelr1x5772)" stroke="#ff2040" stroke-width="1.8" filter="url(#skr1x5772)"/><line x1="150.0" y1="701.6" x2="148.1" y2="785.0" stroke="#ff2040" stroke-opacity=".38" stroke-width="1"/><line x1="776.8" y1="700.6" x2="777.2" y2="784.1" stroke="#ff2040" stroke-opacity=".38" stroke-width="1"/><line x1="182.8" y1="701.7" x2="183.3" y2="782.7" stroke="#ff2040" stroke-opacity=".38" stroke-width="1"/><line x1="812.7" y1="701.8" x2="812.5" y2="783.2" stroke="#ff2040" stroke-opacity=".38" stroke-width="1"/><line x1="214.8" y1="700.5" x2="216.7" y2="785.2" stroke="#ff2040" stroke-opacity=".38" stroke-width="1"/><line x1="842.5" y1="701.3" x2="844.8" y2="784.3" stroke="#ff2040" stroke-opacity=".38" stroke-width="1"/><polygon points="235.2,418.1 763.7,417.1 724.0,664.2 278.0,661.0" fill="url(#suitr1x5772)" stroke="#ff2040" stroke-width="2.6" filter="url(#skr1x5772) url(#metalr1x5772)"/><polygon points="236.2,416.0 764.9,416.4 721.7,663.4 275.8,663.8" fill="url(#carbonr1x5772)"/><polygon points="366.0,418.0 630.8,418.4 610.3,517.3 389.5,516.3" fill="url(#suitHir1x5772)"/><line x1="361.0" y1="470.2" x2="638.6" y2="471.7" stroke="#ff2040" stroke-opacity=".52" stroke-width="1.3" filter="url(#skr1x5772)"/><line x1="398.6" y1="550.7" x2="602.2" y2="549.5" stroke="#ff2040" stroke-opacity=".52" stroke-width="1.3" filter="url(#skr1x5772)"/><line x1="267.8" y1="489.8" x2="320.2" y2="492.5" stroke="#ff2040" stroke-opacity=".62" stroke-width="1.8"/><line x1="681.5" y1="492.2" x2="731.7" y2="491.2" stroke="#ff2040" stroke-opacity=".62" stroke-width="1.8"/><line x1="268.2" y1="521.1" x2="319.6" y2="524.6" stroke="#ff2040" stroke-opacity=".62" stroke-width="1.8"/><line x1="680.7" y1="523.0" x2="734.5" y2="522.1" stroke="#ff2040" stroke-opacity=".62" stroke-width="1.8"/><line x1="268.2" y1="555.6" x2="318.5" y2="554.6" stroke="#ff2040" stroke-opacity=".62" stroke-width="1.8"/><line x1="679.3" y1="553.4" x2="733.1" y2="555.8" stroke="#ff2040" stroke-opacity=".62" stroke-width="1.8"/><line x1="265.7" y1="588.1" x2="321.4" y2="587.4" stroke="#ff2040" stroke-opacity=".62" stroke-width="1.8"/><line x1="678.8" y1="585.7" x2="732.5" y2="587.8" stroke="#ff2040" stroke-opacity=".62" stroke-width="1.8"/><g filter="url(#glowr1x5772)"><polygon points="499.6,452.8 513.5,490.0 553.4,494.1 523.1,520.0 535.8,557.3 500.2,536.5 467.5,556.9 475.4,519.0 443.8,491.7 483.8,489.6 " fill="#ff2040" stroke="#1e0600" stroke-width="1.4" filter="url(#skr1x5772)"/><polygon points="499.6,452.8 513.5,490.0 553.4,494.1 523.1,520.0 535.8,557.3 500.2,536.5 467.5,556.9 475.4,519.0 443.8,491.7 483.8,489.6 " fill="url(#suitHir1x5772)" opacity=".45"/></g><g><polygon points="871.8,671.4 923.8,671.4 908.2,-28.6 887.4,-28.6" fill="url(#blader1x5772)" filter="url(#wmr1x5772)"/><polygon points="887.4,-28.6 908.2,-28.6 897.8,-138.6" fill="url(#blader1x5772)" filter="url(#wmr1x5772)"/><polygon points="896.0,671.4 899.7,671.4 898.4,-128.6 897.3,-128.6" fill="url(#bladeTipr1x5772)" opacity=".9"/><line x1="906.6615955165588" y1="670.2643959059379" x2="899.8234162174351" y2="-130.1337632986717" stroke="rgba(255,255,255,.68)" stroke-width="1.5"/><line x1="887.9588985391148" y1="672.2447783648037" x2="896.9586455335841" y2="-127.40566951204093" stroke="#ff2040" stroke-width="1" stroke-opacity=".45"/><line x1="902.5" y1="651.4" x2="899.7" y2="11.4" stroke="rgba(0,0,0,.38)" stroke-width="1.6"/><line x1="893.2" y1="651.4" x2="896.0" y2="11.4" stroke="rgba(0,0,0,.38)" stroke-width="1.6"/><rect x="843.5166946120188" y="668.8065061226487" width="112.0" height="28.0" rx="3" fill="url(#bevelr1x5772)" stroke="#ff2040" stroke-width="1.6" filter="url(#wmr1x5772)"/><rect x="866.0115931583197" y="673.3205546151846" width="64.0" height="10.0" rx="1" fill="rgba(255,255,255,.32)"/><rect x="887.4211214664952" y="678.5801433574408" width="24.0" height="6.0" rx="1" fill="#ff2040" fill-opacity=".35"/><rect x="886.7321071331017" y="683.9533577309921" width="24.0" height="6.0" rx="1" fill="#ff2040" fill-opacity=".35"/><rect x="886.0853201103956" y="692.1666293454356" width="24.0" height="6.0" rx="1" fill="#ff2040" fill-opacity=".35"/><rect x="887.4744880716876" y="702.8515997900628" width="24.0" height="6.0" rx="1" fill="#ff2040" fill-opacity=".35"/><rect x="885.7204619086907" y="710.8202750831842" width="24.0" height="6.0" rx="1" fill="#ff2040" fill-opacity=".35"/><rect x="887.0723120486923" y="716.2157543371432" width="24.0" height="6.0" rx="1" fill="#ff2040" fill-opacity=".35"/><ellipse cx="898.3012955633551" cy="726.5377825692295" rx="22.0" ry="16.0" fill="url(#bevelr1x5772)" stroke="#ff2040" stroke-width="1.2" filter="url(#wmr1x5772)"/></g><rect x="449.06036462439226" y="556.9187001533807" width="100.0"  height="56.0" fill="#cc0020" stroke="#ff2040" stroke-width="2.2" filter="url(#skr1x5772)"/><rect x="424.25796009916814" y="576.4354504902848" width="152.0" height="26.0" fill="url(#bevelr1x5772)" fill-opacity=".65" stroke="#ff2040" stroke-width="1.2" filter="url(#skr1x5772)"/><polygon points="307.9,379.3 350.4,295.5 501.4,276.7 648.3,296.0 690.3,379.1 669.6,502.6 501.1,564.9 332.3,503.8" fill="url(#suitr1x5772)" stroke="#ff2040" stroke-width="2.8" filter="url(#skr1x5772) url(#metalr1x5772)"/><polygon points="307.2,380.5 351.7,294.5 501.0,278.2 650.4,293.8 693.6,381.6 670.4,504.6 499.9,565.4 329.5,503.7" fill="url(#carbonr1x5772)"/><polygon points="382.7,301.0 500.8,284.7 618.1,303.8 607.6,379.0 393.5,381.5" fill="url(#suitHir1x5772)"/><polygon points="380.5,382.1 365.0,426.7 431.7,503.3 499.0,529.5 567.1,504.3 634.6,424.4 620.0,380.7" fill="#1e0600" fill-opacity=".88" stroke="#ff2040" stroke-width="1.8" filter="url(#skr1x5772)"/><polygon points="381.6,410.1 478.6,411.8 483.5,441.5 387.0,440.3" fill="#ff2040" filter="url(#glowr1x5772)"/><polygon points="522.0,412.8 620.3,412.3 609.8,439.3 514.0,441.1" fill="#ff2040" filter="url(#glowr1x5772)"/><ellipse cx="430.9" cy="425.7" rx="38.4"  ry="8.2" fill="#ffffff" opacity=".88"/><ellipse cx="569.1" cy="425.7" rx="38.4"  ry="8.2" fill="#ffffff" opacity=".88"/><line x1="484.84206071669234" y1="411.9052370597608" x2="515.7174811252765" y2="412.4002501102164" stroke="#ff2040" stroke-opacity=".52" stroke-width="2"/><line x1="483.87856623945754" y1="436.9844688632526" x2="515.6329013520293" y2="439.5616577334702" stroke="#ff2040" stroke-opacity=".52" stroke-width="2"/><line x1="501.3374416878447" y1="455.6398652347736" x2="500.10876216907053" y2="484.44315197840336" stroke="#ff2040" stroke-opacity=".58" stroke-width="2.2" filter="url(#skr1x5772)"/><line x1="452.3863295342587" y1="492.2924671625718" x2="452.993772284016" y2="520.1790188254788" stroke="#ff2040" stroke-opacity=".52" stroke-width="1.5" filter="url(#skr1x5772)"/><line x1="477.03253485433754" y1="493.0584768211469" x2="476.9837257338129" y2="521.5585624357685" stroke="#ff2040" stroke-opacity=".52" stroke-width="1.5" filter="url(#skr1x5772)"/><line x1="500.474568063952" y1="491.4737947138026" x2="498.72974842917176" y2="521.6100009785965" stroke="#ff2040" stroke-opacity=".52" stroke-width="1.5" filter="url(#skr1x5772)"/><line x1="523.6285214725509" y1="491.17488376973193" x2="523.2472262271307" y2="518.5362153643742" stroke="#ff2040" stroke-opacity=".52" stroke-width="1.5" filter="url(#skr1x5772)"/><line x1="546.2763391046972" y1="489.70857039606193" x2="547.5528794666008" y2="520.648172452394" stroke="#ff2040" stroke-opacity=".52" stroke-width="1.5" filter="url(#skr1x5772)"/><polygon points="434.2,504.5 568.5,503.0 553.6,558.3 446.0,557.0" fill="#cc0020" fill-opacity=".72" stroke="#ff2040" stroke-width="1.3" filter="url(#skr1x5772)"/><text x="30.0"  y="975.0" font-family="monospace" font-weight="bold" font-size="22.0" fill="rgba(255,255,255,.22)">#0001</text><text x="500.0"   y="975.0" text-anchor="middle" font-family="monospace" font-weight="bold" font-size="22.0" fill="#ff2040" fill-opacity=".48">CRIMSON RANGER</text><text x="970.0" y="975.0" text-anchor="end"    font-family="monospace" font-weight="bold" font-size="22.0" fill="#ff2040" fill-opacity=".32">MECH RANGERS</text></svg>