<svg xmlns="http://www.w3.org/2000/svg" viewBox="0 0 1000 1000" width="1000" height="1000" shape-rendering="geometricPrecision"><defs>

  <!-- Scene gradients -->
  <radialGradient id="bgr1x5781" cx="50%" cy="42%" r="72%">
    <stop offset="0%"   stop-color="#0a1420"/>
    <stop offset="100%" stop-color="#050d14"/>
  </radialGradient>
  <linearGradient id="suitr1x5781" x1="8%" y1="0%" x2="92%" y2="100%">
    <stop offset="0%"   stop-color="#ff00ff" stop-opacity=".95"/>
    <stop offset="45%"  stop-color="#050508"/>
    <stop offset="100%" stop-color="#050d14"/>
  </linearGradient>
  <linearGradient id="suitHir1x5781" x1="0%" y1="0%" x2="0%" y2="100%">
    <stop offset="0%"   stop-color="rgba(255,255,255,.28)"/>
    <stop offset="60%"  stop-color="rgba(255,255,255,.04)"/>
    <stop offset="100%" stop-color="rgba(255,255,255,0)"/>
  </linearGradient>
  <!-- Bevel: bright top, dark bottom for armour panels -->
  <linearGradient id="bevelr1x5781" x1="0%" y1="0%" x2="0%" y2="100%">
    <stop offset="0%"   stop-color="rgba(255,255,255,.55)"/>
    <stop offset="30%"  stop-color="#ff00ff"/>
    <stop offset="70%"  stop-color="#050508"/>
    <stop offset="100%" stop-color="rgba(0,0,0,.5)"/>
  </linearGradient>

  <!-- Weapon: cold steel blade sweep -->
  <linearGradient id="blader1x5781" x1="0%" y1="0%" x2="100%" y2="0%">
    <stop offset="0%"   stop-color="#0e0e20"/>
    <stop offset="16%"  stop-color="#3e3e58"/>
    <stop offset="34%"  stop-color="#c8c8e0"/>
    <stop offset="50%"  stop-color="#f5f5ff"/>
    <stop offset="66%"  stop-color="#b8b8d0"/>
    <stop offset="84%"  stop-color="#2e2e48"/>
    <stop offset="100%" stop-color="#08080e"/>
  </linearGradient>
  <!-- Blade tip brightening -->
  <linearGradient id="bladeTipr1x5781" x1="0%" y1="100%" x2="0%" y2="0%">
    <stop offset="0%"   stop-color="rgba(255,255,255,0)"/>
    <stop offset="55%"  stop-color="rgba(255,255,255,.1)"/>
    <stop offset="100%" stop-color="rgba(255,255,255,.55)"/>
  </linearGradient>
  <!-- Gunmetal anodised — blaster body -->
  <linearGradient id="gunmetalr1x5781" x1="0%" y1="0%" x2="0%" y2="100%">
    <stop offset="0%"   stop-color="#46465e"/>
    <stop offset="18%"  stop-color="#828296"/>
    <stop offset="42%"  stop-color="#26263a"/>
    <stop offset="72%"  stop-color="#16162a"/>
    <stop offset="100%" stop-color="#0c0c18"/>
  </linearGradient>
  <!-- Brushed steel tube — barrel/rod -->
  <linearGradient id="barrelr1x5781" x1="0%" y1="0%" x2="100%" y2="0%">
    <stop offset="0%"   stop-color="#0a0a14"/>
    <stop offset="24%"  stop-color="#585875"/>
    <stop offset="50%"  stop-color="#a8a8c8"/>
    <stop offset="76%"  stop-color="#383852"/>
    <stop offset="100%" stop-color="#0a0a14"/>
  </linearGradient>
  <!-- Chrome rod — lance shaft -->
  <linearGradient id="chromer1x5781" x1="0%" y1="0%" x2="100%" y2="0%">
    <stop offset="0%"   stop-color="#0c0c18"/>
    <stop offset="20%"  stop-color="#686888"/>
    <stop offset="44%"  stop-color="#e0e0f0"/>
    <stop offset="56%"  stop-color="#c0c0d8"/>
    <stop offset="80%"  stop-color="#28283e"/>
    <stop offset="100%" stop-color="#0c0c18"/>
  </linearGradient>
  <!-- Titanium plate — shield face -->
  <linearGradient id="titaniumr1x5781" x1="0%" y1="0%" x2="100%" y2="100%">
    <stop offset="0%"   stop-color="#585878"/>
    <stop offset="28%"  stop-color="#ff00ff" stop-opacity=".88"/>
    <stop offset="55%"  stop-color="#050508"/>
    <stop offset="80%"  stop-color="#181828"/>
    <stop offset="100%" stop-color="#0a0a18"/>
  </linearGradient>
  <!-- Artillery black-chrome — cannon body -->
  <linearGradient id="artilleryr1x5781" x1="0%" y1="0%" x2="0%" y2="100%">
    <stop offset="0%"   stop-color="#383850"/>
    <stop offset="14%"  stop-color="#78789a"/>
    <stop offset="36%"  stop-color="#202034"/>
    <stop offset="65%"  stop-color="#14141e"/>
    <stop offset="100%" stop-color="#0a0a12"/>
  </linearGradient>
  <!-- Energy orb — staff -->
  <radialGradient id="orbr1x5781" cx="35%" cy="35%" r="65%">
    <stop offset="0%"   stop-color="rgba(255,255,255,.9)"/>
    <stop offset="30%"  stop-color="#ff00ff"/>
    <stop offset="68%"  stop-color="#050508"/>
    <stop offset="100%" stop-color="rgba(0,0,0,.6)"/>
  </radialGradient>
  <!-- Knuckle plate chrome -->
  <linearGradient id="knuckler1x5781" x1="0%" y1="0%" x2="0%" y2="100%">
    <stop offset="0%"   stop-color="#888aaa"/>
    <stop offset="32%"  stop-color="#ff00ff" stop-opacity=".8"/>
    <stop offset="62%"  stop-color="#1a1a2c"/>
    <stop offset="100%" stop-color="#0a0a14"/>
  </linearGradient>

  <!-- Carbon fibre weave texture overlay -->
  <pattern id="carbonr1x5781" width="6" height="6" patternUnits="userSpaceOnUse">
    <rect width="6" height="6" fill="rgba(0,0,0,.08)"/>
    <rect x="0" y="0" width="3" height="3" fill="rgba(255,255,255,.022)"/>
    <rect x="3" y="3" width="3" height="3" fill="rgba(255,255,255,.022)"/>
    <line x1="0" y1="0" x2="3" y2="3" stroke="rgba(255,255,255,.038)" stroke-width=".5"/>
    <line x1="3" y1="0" x2="6" y2="3" stroke="rgba(0,0,0,.055)"       stroke-width=".5"/>
    <line x1="0" y1="3" x2="3" y2="6" stroke="rgba(0,0,0,.055)"       stroke-width=".5"/>
    <line x1="3" y1="3" x2="6" y2="6" stroke="rgba(255,255,255,.038)" stroke-width=".5"/>
  </pattern>

  <!-- Specular metal sheen on armour panels -->
  <filter id="metalr1x5781" x="-5%" y="-5%" width="110%" height="110%">
    <feSpecularLighting surfaceScale="4" specularConstant="1.8"
        specularExponent="42" lighting-color="#ffffff" result="spec">
      <feDistantLight elevation="52" azimuth="38"/>
    </feSpecularLighting>
    <feComposite in="spec" in2="SourceGraphic" operator="in" result="sm"/>
    <feComposite in="SourceGraphic" in2="sm" operator="arithmetic" k1="0" k2="1" k3="0.55" k4="0"/>
  </filter>

  <!-- Sharper specular for weapons — heavier glare -->
  <filter id="wmr1x5781" x="-8%" y="-8%" width="116%" height="116%">
    <feSpecularLighting surfaceScale="6" specularConstant="2.4"
        specularExponent="65" lighting-color="#ffffff" result="spec">
      <feDistantLight elevation="44" azimuth="28"/>
    </feSpecularLighting>
    <feComposite in="spec" in2="SourceGraphic" operator="in" result="sm"/>
    <feComposite in="SourceGraphic" in2="sm" operator="arithmetic" k1="0" k2="1" k3="0.78" k4="0"/>
  </filter>

  <!-- Sketch wobble -->
  <filter id="skr1x5781" x="-8%" y="-8%" width="116%" height="116%">
    <feTurbulence type="fractalNoise" baseFrequency="0.038"
        numOctaves="3" seed="26" result="noise"/>
    <feDisplacementMap in="SourceGraphic" in2="noise" scale="2.6"
        xChannelSelector="R" yChannelSelector="G" result="w"/>
    <feComposite in="w" in2="SourceGraphic" operator="atop"/>
  </filter>

  <!-- Glow: sharp accent -->
  <filter id="glowr1x5781" x="-20%" y="-20%" width="140%" height="140%">
    <feGaussianBlur stdDeviation="3.5" result="b"/>
    <feColorMatrix in="b" type="matrix"
        values="0 0 0 0 1  0 0 0 0 1  0 0 0 0 1  0 0 0 1.8 0" result="boost"/>
    <feMerge><feMergeNode in="boost"/><feMergeNode in="SourceGraphic"/></feMerge>
  </filter>

  <!-- Bloom: wide soft -->
  <filter id="bloomr1x5781" x="-40%" y="-40%" width="180%" height="180%">
    <feGaussianBlur stdDeviation="11" result="b"/>
    <feMerge><feMergeNode in="b"/><feMergeNode in="SourceGraphic"/></feMerge>
  </filter>

  </defs><rect width="1000" height="1000" fill="url(#bgr1x5781)"/><polygon points="11.502411128021777,398.94116387702525 29.081004758365452,369.7317619789392 49.10176018066704,398.0563896149397" fill="#ff00ff" fill-opacity=".055" stroke="#ff00ff" stroke-opacity=".1" stroke-width="1"/><polygon points="469.53309088014066,392.71683941595256 492.5865843128413,363.60038786474615 519.9678621469066,391.09011927153915" fill="#ff00ff" fill-opacity=".055" stroke="#ff00ff" stroke-opacity=".1" stroke-width="1"/><polygon points="733.8021358987316,23.054895009845495 744.1037493925542,-23.441808635368943 778.3162258965895,28.910578596405685" fill="#ff00ff" fill-opacity=".055" stroke="#ff00ff" stroke-opacity=".1" stroke-width="1"/><polygon points="396.1265531508252,315.75368089135736 426.28519804030657,284.32544902246445 439.4859356507659,318.52287594228983" fill="#ff00ff" fill-opacity=".055" stroke="#ff00ff" stroke-opacity=".1" stroke-width="1"/><polygon points="675.9570612292737,128.31736522261053 695.3764054719359,87.27854521758854 720.6737175099552,119.940554802306" fill="#ff00ff" fill-opacity=".055" stroke="#ff00ff" stroke-opacity=".1" stroke-width="1"/><polygon points="714.8656068695709,183.4668608987704 741.532810645178,135.3682011719793 761.7991781728342,179.27573137450963" fill="#ff00ff" fill-opacity=".055" stroke="#ff00ff" stroke-opacity=".1" stroke-width="1"/><polygon points="501.27698114607483,45.25066951755434 524.8941465634853,19.811119933612645 538.0867412853986,57.67432201188058" fill="#ff00ff" fill-opacity=".055" stroke="#ff00ff" stroke-opacity=".1" stroke-width="1"/><polygon points="478.6450854083523,318.0897767562419 492.46151619404554,280.84964954108 510.129770825617,327.891104365699" fill="#ff00ff" fill-opacity=".055" stroke="#ff00ff" stroke-opacity=".1" stroke-width="1"/><ellipse cx="500.0" cy="892.0" rx="350.0" ry="65.0" fill="rgba(0,0,0,.7)" filter="url(#bloomr1x5781)"/><ellipse cx="500.0" cy="889.0" rx="220.0" ry="34.0" fill="rgba(0,0,0,.45)"/><ellipse cx="500.0" cy="520.0" rx="320.0" ry="480.0" fill="#ff6600" fill-opacity=".042" filter="url(#bloomr1x5781)"/><circle cx="738.2" cy="386.2" r="3.9" fill="#ff6600" fill-opacity="0.72" filter="url(#glowr1x5781)"/><circle cx="255.9" cy="541.1" r="2.5" fill="#ff6600" fill-opacity="0.45" filter="url(#glowr1x5781)"/><circle cx="379.1" cy="760.4" r="2.5" fill="#ff6600" fill-opacity="0.68" filter="url(#glowr1x5781)"/><circle cx="694.8" cy="739.2" r="1.6" fill="#ff6600" fill-opacity="0.79" filter="url(#glowr1x5781)"/><circle cx="607.6" cy="629.9" r="2.3" fill="#ff6600" fill-opacity="0.45" filter="url(#glowr1x5781)"/><circle cx="290.9" cy="537.4" r="2.0" fill="#ff6600" fill-opacity="0.90" filter="url(#glowr1x5781)"/><circle cx="569.7" cy="661.1" r="3.9" fill="#ff6600" fill-opacity="0.53" filter="url(#glowr1x5781)"/><circle cx="388.5" cy="480.6" r="0.9" fill="#ff6600" fill-opacity="0.48" filter="url(#glowr1x5781)"/><circle cx="688.7" cy="757.3" r="4.2" fill="#ff6600" fill-opacity="0.39" filter="url(#glowr1x5781)"/><circle cx="616.6" cy="229.7" r="3.3" fill="#ff6600" fill-opacity="0.42" filter="url(#glowr1x5781)"/><circle cx="704.8" cy="532.8" r="0.7" fill="#ff6600" fill-opacity="0.55" filter="url(#glowr1x5781)"/><circle cx="351.2" cy="537.5" r="2.9" fill="#ff6600" fill-opacity="0.66" filter="url(#glowr1x5781)"/><circle cx="645.2" cy="364.4" r="1.0" fill="#ff6600" fill-opacity="0.48" filter="url(#glowr1x5781)"/><circle cx="695.2" cy="229.1" r="1.1" fill="#ff6600" fill-opacity="0.80" filter="url(#glowr1x5781)"/><polygon points="399.4,660.8 490.0,663.3 481.4,876.2 388.8,878.3" fill="url(#suitr1x5781)" stroke="#ff00ff" stroke-width="2.2" filter="url(#skr1x5781) url(#metalr1x5781)"/><polygon points="400.3,660.9 489.4,663.7 482.2,877.6 387.7,876.9" fill="url(#carbonr1x5781)"/><polygon points="393.7,723.5 494.3,722.5 485.2,789.7 382.8,787.2" fill="url(#bevelr1x5781)" fill-opacity=".5" stroke="#ff00ff" stroke-width="1.4" filter="url(#skr1x5781)"/><polygon points="508.9,661.9 600.3,662.3 613.9,878.9 520.3,878.2" fill="url(#suitr1x5781)" stroke="#ff00ff" stroke-width="2.2" filter="url(#skr1x5781) url(#metalr1x5781)"/><polygon points="509.8,664.1 601.2,662.1 613.9,876.9 519.0,879.2" fill="url(#carbonr1x5781)"/><polygon points="506.8,723.5 605.8,724.2 617.3,787.1 516.9,786.7" fill="url(#bevelr1x5781)" fill-opacity=".5" stroke="#ff00ff" stroke-width="1.4" filter="url(#skr1x5781)"/><rect x="391.6" y="838.0" width="100.3" height="24.7" fill="url(#bevelr1x5781)" stroke="#ff00ff" stroke-width="1" filter="url(#skr1x5781)"/><rect x="505.7"  y="838.1" width="100.3" height="24.7" fill="url(#bevelr1x5781)" stroke="#ff00ff" stroke-width="1" filter="url(#skr1x5781)"/><polygon points="369.7,875.9 496.7,878.1 502.8,921.5 362.3,923.0" fill="#050508" stroke="#ff00ff" stroke-width="2" filter="url(#skr1x5781)"/><polygon points="502.3,877.1 631.5,878.8 637.6,922.2 497.0,922.0" fill="#050508" stroke="#ff00ff" stroke-width="2" filter="url(#skr1x5781)"/><polygon points="303.4,632.0 694.7,632.1 636.3,681.9 361.4,682.0" fill="#ff00ff" fill-opacity=".52" stroke="#ff00ff" stroke-width="2" filter="url(#skr1x5781)"/><rect x="465.7" y="637.7" width="72.0" height="42.0" fill="url(#bevelr1x5781)" stroke="#ff00ff" stroke-width="1.4" filter="url(#glowr1x5781)"/><rect x="485.7" y="641.2" width="28.0" height="22.0" rx="1" fill="rgba(255,255,255,.48)"/><polygon points="153.5,466.8 233.4,466.4 259.0,735.8 129.0,735.0" fill="url(#suitr1x5781)" stroke="#ff00ff" stroke-width="2.2" filter="url(#skr1x5781) url(#metalr1x5781)"/><polygon points="174.9,430.5 253.8,430.5 244.1,510.5 157.8,510.9" fill="url(#bevelr1x5781)" fill-opacity=".72" stroke="#ff00ff" stroke-width="2.2" filter="url(#skr1x5781)"/><polygon points="162.8,621.2 241.5,620.8 239.1,659.5 164.9,661.2" fill="#ff00ff" fill-opacity=".42" stroke="#ff00ff" stroke-width="1" filter="url(#skr1x5781)"/><polygon points="764.9,465.1 848.7,467.3 872.0,736.0 743.1,734.2" fill="url(#suitr1x5781)" stroke="#ff00ff" stroke-width="2.2" filter="url(#skr1x5781) url(#metalr1x5781)"/><polygon points="745.2,430.5 826.7,431.5 839.6,510.9 755.8,512.1" fill="url(#bevelr1x5781)" fill-opacity=".72" stroke="#ff00ff" stroke-width="2.2" filter="url(#skr1x5781)"/><polygon points="757.9,623.7 837.1,623.1 835.2,662.1 762.2,661.6" fill="#ff00ff" fill-opacity=".42" stroke="#ff00ff" stroke-width="1" filter="url(#skr1x5781)"/><rect x="119.2"  y="701.0" width="135.3" height="85.0" rx="4" fill="url(#bevelr1x5781)" stroke="#ff00ff" stroke-width="1.8" filter="url(#skr1x5781)"/><rect x="747.3"   y="700.7" width="135.3" height="85.0" rx="4" fill="url(#bevelr1x5781)" stroke="#ff00ff" stroke-width="1.8" filter="url(#skr1x5781)"/><line x1="150.8" y1="701.0" x2="147.9" y2="783.1" stroke="#ff00ff" stroke-opacity=".38" stroke-width="1"/><line x1="777.1" y1="700.6" x2="778.3" y2="784.3" stroke="#ff00ff" stroke-opacity=".38" stroke-width="1"/><line x1="184.1" y1="703.5" x2="182.5" y2="785.1" stroke="#ff00ff" stroke-opacity=".38" stroke-width="1"/><line x1="811.1" y1="703.3" x2="810.5" y2="783.1" stroke="#ff00ff" stroke-opacity=".38" stroke-width="1"/><line x1="215.6" y1="702.2" x2="213.9" y2="782.1" stroke="#ff00ff" stroke-opacity=".38" stroke-width="1"/><line x1="844.3" y1="701.4" x2="845.4" y2="785.5" stroke="#ff00ff" stroke-opacity=".38" stroke-width="1"/><polygon points="236.2,417.4 765.9,417.6 720.9,663.2 278.4,661.0" fill="url(#suitr1x5781)" stroke="#ff00ff" stroke-width="2.6" filter="url(#skr1x5781) url(#metalr1x5781)"/><polygon points="233.6,417.3 765.2,418.4 721.1,662.3 278.1,661.7" fill="url(#carbonr1x5781)"/><polygon points="365.7,417.5 633.4,418.4 611.9,514.8 388.8,516.5" fill="url(#suitHir1x5781)"/><line x1="360.9" y1="469.7" x2="636.3" y2="469.6" stroke="#ff00ff" stroke-opacity=".52" stroke-width="1.3" filter="url(#skr1x5781)"/><line x1="399.6" y1="550.1" x2="599.0" y2="550.1" stroke="#ff00ff" stroke-opacity=".52" stroke-width="1.3" filter="url(#skr1x5781)"/><line x1="267.5" y1="491.1" x2="321.1" y2="491.7" stroke="#ff00ff" stroke-opacity=".62" stroke-width="1.8"/><line x1="678.7" y1="491.8" x2="733.2" y2="491.9" stroke="#ff00ff" stroke-opacity=".62" stroke-width="1.8"/><line x1="265.8" y1="521.8" x2="318.2" y2="521.5" stroke="#ff00ff" stroke-opacity=".62" stroke-width="1.8"/><line x1="679.4" y1="523.8" x2="731.6" y2="524.4" stroke="#ff00ff" stroke-opacity=".62" stroke-width="1.8"/><line x1="268.2" y1="556.1" x2="319.0" y2="555.4" stroke="#ff00ff" stroke-opacity=".62" stroke-width="1.8"/><line x1="679.5" y1="553.0" x2="732.5" y2="555.1" stroke="#ff00ff" stroke-opacity=".62" stroke-width="1.8"/><line x1="266.5" y1="588.0" x2="320.6" y2="586.5" stroke="#ff00ff" stroke-opacity=".62" stroke-width="1.8"/><line x1="678.4" y1="588.3" x2="732.3" y2="585.6" stroke="#ff00ff" stroke-opacity=".62" stroke-width="1.8"/><g filter="url(#glowr1x5781)"><polygon points="500.8,452.6 542.4,509.6 500.0,569.1 459.2,512.3" fill="#ff00ff" stroke="#050d14" stroke-width="1.4" filter="url(#skr1x5781)"/><polygon points="501.2,453.3 543.5,508.9 498.7,568.1 458.6,510.2" fill="url(#suitHir1x5781)" opacity=".45"/></g><g><rect x="838.494030919075" y="395.08402761751785" width="175.0" height="118.0" rx="7" fill="url(#artilleryr1x5781)" stroke="#ff00ff" stroke-width="2.6" filter="url(#wmr1x5781)"/><rect x="838.9827555053495" y="396.2440053354949" width="175.0" height="118.0" rx="7" fill="url(#carbonr1x5781)"/><rect x="981.9380324069039" y="449.1014992945827" width="78.0" height="32.0" rx="6" fill="url(#barrelr1x5781)" stroke="#ff00ff" stroke-width="1.4" filter="url(#wmr1x5781)"/><circle cx="881.3028775001504" cy="470.3013784293085" r="48.0" fill="rgba(0,0,0,.55)" stroke="#ff00ff" stroke-width="2" filter="url(#wmr1x5781)"/><circle cx="883.1193213399127" cy="473.1038342966698" r="34.0" fill="#ff00ff" fill-opacity=".4" filter="url(#bloomr1x5781)"/><circle cx="882.2085974692926" cy="471.14330372419204" r="18.0" fill="#ff00ff" filter="url(#glowr1x5781)"/><rect x="844.5192233089916" y="381.3924997070804" width="100.0" height="18.0" rx="2" fill="url(#bevelr1x5781)" stroke="#ff00ff" stroke-width="1" filter="url(#wmr1x5781)"/><rect x="840.3913022601605" y="397.92774280663576" width="120.0" height="12.0" rx="3" fill="rgba(255,255,255,.2)"/><line x1="848.0486527641863" y1="518.3930480839684" x2="847.2322869405709" y2="549.3977374544367" stroke="#ff00ff" stroke-opacity=".6" stroke-width="2"/><line x1="871.4450567262807" y1="518.693036231678" x2="872.7551817237959" y2="547.9338699813001" stroke="#ff00ff" stroke-opacity=".6" stroke-width="2"/><line x1="897.5111127649062" y1="518.2481050660833" x2="896.5477352655121" y2="548.2762071767821" stroke="#ff00ff" stroke-opacity=".6" stroke-width="2"/><line x1="919.5446171029099" y1="518.4493505429476" x2="921.1883018599451" y2="548.8568895087577" stroke="#ff00ff" stroke-opacity=".6" stroke-width="2"/></g><rect x="450.18164067221807" y="558.466973375529" width="100.0"  height="56.0" fill="#050508" stroke="#ff00ff" stroke-width="2.2" filter="url(#skr1x5781)"/><rect x="423.0167157446034" y="575.124954381492" width="152.0" height="26.0" fill="url(#bevelr1x5781)" fill-opacity=".65" stroke="#ff00ff" stroke-width="1.2" filter="url(#skr1x5781)"/><polygon points="309.3,380.0 351.0,294.4 500.0,276.7 649.6,295.5 690.6,381.9 668.1,504.7 498.4,565.8 330.8,505.3" fill="url(#suitr1x5781)" stroke="#ff00ff" stroke-width="2.8" filter="url(#skr1x5781) url(#metalr1x5781)"/><polygon points="306.9,380.7 349.2,292.8 500.2,279.5 648.7,294.2 691.9,380.1 667.7,502.6 500.3,564.0 331.0,502.9" fill="url(#carbonr1x5781)"/><polygon points="380.7,303.7 501.8,286.6 619.8,304.1 607.0,382.1 392.2,380.4" fill="url(#suitHir1x5781)"/><polygon points="380.1,380.2 366.4,427.1 433.4,504.6 499.1,527.8 567.1,503.5 632.9,424.1 618.9,379.7" fill="#050d14" fill-opacity=".88" stroke="#ff00ff" stroke-width="1.8" filter="url(#skr1x5781)"/><polygon points="380.2,410.1 475.4,412.5 486.0,438.6 388.6,439.7" fill="#ff00ff" filter="url(#glowr1x5781)"/><polygon points="522.3,409.7 617.8,412.2 610.4,439.4 516.1,440.3" fill="#ff00ff" filter="url(#glowr1x5781)"/><ellipse cx="430.9" cy="425.7" rx="38.4"  ry="8.2" fill="#ffffff" opacity=".88"/><ellipse cx="569.1" cy="425.7" rx="38.4"  ry="8.2" fill="#ffffff" opacity=".88"/><line x1="484.36407074579967" y1="413.54190008025614" x2="517.0338091477194" y2="414.74080141950395" stroke="#ff00ff" stroke-opacity=".52" stroke-width="2"/><line x1="482.9974749236926" y1="438.9554992849007" x2="515.8483923661895" y2="436.3880523411557" stroke="#ff00ff" stroke-opacity=".52" stroke-width="2"/><line x1="501.0041051342152" y1="454.3225641605444" x2="500.7417115061544" y2="481.8299401501194" stroke="#ff00ff" stroke-opacity=".58" stroke-width="2.2" filter="url(#skr1x5781)"/><line x1="453.59215145640076" y1="490.4992307993583" x2="454.5498681017012" y2="521.3669646702707" stroke="#ff00ff" stroke-opacity=".52" stroke-width="1.5" filter="url(#skr1x5781)"/><line x1="475.29243733150884" y1="491.9844269027002" x2="477.47319865137337" y2="518.5386572374031" stroke="#ff00ff" stroke-opacity=".52" stroke-width="1.5" filter="url(#skr1x5781)"/><line x1="501.7565243196674" y1="490.4417809802107" x2="499.70720825344324" y2="519.0525973997079" stroke="#ff00ff" stroke-opacity=".52" stroke-width="1.5" filter="url(#skr1x5781)"/><line x1="523.7997490491346" y1="491.5807900564745" x2="523.4213211404718" y2="520.8195204878226" stroke="#ff00ff" stroke-opacity=".52" stroke-width="1.5" filter="url(#skr1x5781)"/><line x1="546.1782521970757" y1="490.5801851597614" x2="546.0441441544518" y2="520.7588629168458" stroke="#ff00ff" stroke-opacity=".52" stroke-width="1.5" filter="url(#skr1x5781)"/><polygon points="432.5,503.3 567.5,502.5 553.8,558.1 447.1,557.4" fill="#050508" fill-opacity=".72" stroke="#ff00ff" stroke-width="1.3" filter="url(#skr1x5781)"/><path d="M343.89059341479094 370.6083871074952 Q381.82220880234615 236.07833924787118 498.48404646860433 281.954836764466" stroke="#ff00ff" stroke-width="2.8" fill="none" stroke-opacity=".88" filter="url(#skr1x5781)"/><path d="M656.9982227165812 370.69455269826574 Q620.4945426963828 237.0876651007682 500.87546154931186 282.0470499277115" stroke="#ff00ff" stroke-width="2.8" fill="none" stroke-opacity=".88" filter="url(#skr1x5781)"/><line x1="419.90559875642884" y1="471.65732583832" x2="437.7945398137346" y2="504.4898771529086" stroke="#ff00ff" stroke-opacity=".52" stroke-width="1.3" filter="url(#skr1x5781)"/><line x1="476.07075198268524" y1="471.709681784641" x2="497.49919297503305" y2="503.1262830705382" stroke="#ff00ff" stroke-opacity=".52" stroke-width="1.3" filter="url(#skr1x5781)"/><line x1="534.3326541936397" y1="469.2676120048389" x2="553.5053108295798" y2="504.3961011251435" stroke="#ff00ff" stroke-opacity=".52" stroke-width="1.3" filter="url(#skr1x5781)"/><line x1="591.8374629527702" y1="472.0128773514181" x2="612.725049171541" y2="502.3210823090747" stroke="#ff00ff" stroke-opacity=".52" stroke-width="1.3" filter="url(#skr1x5781)"/><text x="30.0"  y="975.0" font-family="monospace" font-weight="bold" font-size="22.0" fill="rgba(255,255,255,.22)">#0001</text><text x="500.0"   y="975.0" text-anchor="middle" font-family="monospace" font-weight="bold" font-size="22.0" fill="#ff00ff" fill-opacity=".48">VOID RANGER</text><text x="970.0" y="975.0" text-anchor="end"    font-family="monospace" font-weight="bold" font-size="22.0" fill="#ff00ff" fill-opacity=".32">MECH RANGERS</text></svg>