<svg xmlns="http://www.w3.org/2000/svg" viewBox="0 0 1000 1000" width="1000" height="1000" shape-rendering="geometricPrecision"><defs>

  <!-- Scene gradients -->
  <radialGradient id="bgr1x581" cx="50%" cy="42%" r="72%">
    <stop offset="0%"   stop-color="#1e0a2e"/>
    <stop offset="100%" stop-color="#0a0520"/>
  </radialGradient>
  <linearGradient id="suitr1x581" x1="8%" y1="0%" x2="92%" y2="100%">
    <stop offset="0%"   stop-color="#2060ff" stop-opacity=".95"/>
    <stop offset="45%"  stop-color="#003ccc"/>
    <stop offset="100%" stop-color="#0a0520"/>
  </linearGradient>
  <linearGradient id="suitHir1x581" x1="0%" y1="0%" x2="0%" y2="100%">
    <stop offset="0%"   stop-color="rgba(255,255,255,.28)"/>
    <stop offset="60%"  stop-color="rgba(255,255,255,.04)"/>
    <stop offset="100%" stop-color="rgba(255,255,255,0)"/>
  </linearGradient>
  <!-- Bevel: bright top, dark bottom for armour panels -->
  <linearGradient id="bevelr1x581" x1="0%" y1="0%" x2="0%" y2="100%">
    <stop offset="0%"   stop-color="rgba(255,255,255,.55)"/>
    <stop offset="30%"  stop-color="#2060ff"/>
    <stop offset="70%"  stop-color="#003ccc"/>
    <stop offset="100%" stop-color="rgba(0,0,0,.5)"/>
  </linearGradient>

  <!-- Weapon: cold steel blade sweep -->
  <linearGradient id="blader1x581" x1="0%" y1="0%" x2="100%" y2="0%">
    <stop offset="0%"   stop-color="#0e0e20"/>
    <stop offset="16%"  stop-color="#3e3e58"/>
    <stop offset="34%"  stop-color="#c8c8e0"/>
    <stop offset="50%"  stop-color="#f5f5ff"/>
    <stop offset="66%"  stop-color="#b8b8d0"/>
    <stop offset="84%"  stop-color="#2e2e48"/>
    <stop offset="100%" stop-color="#08080e"/>
  </linearGradient>
  <!-- Blade tip brightening -->
  <linearGradient id="bladeTipr1x581" x1="0%" y1="100%" x2="0%" y2="0%">
    <stop offset="0%"   stop-color="rgba(255,255,255,0)"/>
    <stop offset="55%"  stop-color="rgba(255,255,255,.1)"/>
    <stop offset="100%" stop-color="rgba(255,255,255,.55)"/>
  </linearGradient>
  <!-- Gunmetal anodised — blaster body -->
  <linearGradient id="gunmetalr1x581" x1="0%" y1="0%" x2="0%" y2="100%">
    <stop offset="0%"   stop-color="#46465e"/>
    <stop offset="18%"  stop-color="#828296"/>
    <stop offset="42%"  stop-color="#26263a"/>
    <stop offset="72%"  stop-color="#16162a"/>
    <stop offset="100%" stop-color="#0c0c18"/>
  </linearGradient>
  <!-- Brushed steel tube — barrel/rod -->
  <linearGradient id="barrelr1x581" x1="0%" y1="0%" x2="100%" y2="0%">
    <stop offset="0%"   stop-color="#0a0a14"/>
    <stop offset="24%"  stop-color="#585875"/>
    <stop offset="50%"  stop-color="#a8a8c8"/>
    <stop offset="76%"  stop-color="#383852"/>
    <stop offset="100%" stop-color="#0a0a14"/>
  </linearGradient>
  <!-- Chrome rod — lance shaft -->
  <linearGradient id="chromer1x581" x1="0%" y1="0%" x2="100%" y2="0%">
    <stop offset="0%"   stop-color="#0c0c18"/>
    <stop offset="20%"  stop-color="#686888"/>
    <stop offset="44%"  stop-color="#e0e0f0"/>
    <stop offset="56%"  stop-color="#c0c0d8"/>
    <stop offset="80%"  stop-color="#28283e"/>
    <stop offset="100%" stop-color="#0c0c18"/>
  </linearGradient>
  <!-- Titanium plate — shield face -->
  <linearGradient id="titaniumr1x581" x1="0%" y1="0%" x2="100%" y2="100%">
    <stop offset="0%"   stop-color="#585878"/>
    <stop offset="28%"  stop-color="#2060ff" stop-opacity=".88"/>
    <stop offset="55%"  stop-color="#003ccc"/>
    <stop offset="80%"  stop-color="#181828"/>
    <stop offset="100%" stop-color="#0a0a18"/>
  </linearGradient>
  <!-- Artillery black-chrome — cannon body -->
  <linearGradient id="artilleryr1x581" x1="0%" y1="0%" x2="0%" y2="100%">
    <stop offset="0%"   stop-color="#383850"/>
    <stop offset="14%"  stop-color="#78789a"/>
    <stop offset="36%"  stop-color="#202034"/>
    <stop offset="65%"  stop-color="#14141e"/>
    <stop offset="100%" stop-color="#0a0a12"/>
  </linearGradient>
  <!-- Energy orb — staff -->
  <radialGradient id="orbr1x581" cx="35%" cy="35%" r="65%">
    <stop offset="0%"   stop-color="rgba(255,255,255,.9)"/>
    <stop offset="30%"  stop-color="#2060ff"/>
    <stop offset="68%"  stop-color="#003ccc"/>
    <stop offset="100%" stop-color="rgba(0,0,0,.6)"/>
  </radialGradient>
  <!-- Knuckle plate chrome -->
  <linearGradient id="knuckler1x581" x1="0%" y1="0%" x2="0%" y2="100%">
    <stop offset="0%"   stop-color="#888aaa"/>
    <stop offset="32%"  stop-color="#2060ff" stop-opacity=".8"/>
    <stop offset="62%"  stop-color="#1a1a2c"/>
    <stop offset="100%" stop-color="#0a0a14"/>
  </linearGradient>

  <!-- Carbon fibre weave texture overlay -->
  <pattern id="carbonr1x581" width="6" height="6" patternUnits="userSpaceOnUse">
    <rect width="6" height="6" fill="rgba(0,0,0,.08)"/>
    <rect x="0" y="0" width="3" height="3" fill="rgba(255,255,255,.022)"/>
    <rect x="3" y="3" width="3" height="3" fill="rgba(255,255,255,.022)"/>
    <line x1="0" y1="0" x2="3" y2="3" stroke="rgba(255,255,255,.038)" stroke-width=".5"/>
    <line x1="3" y1="0" x2="6" y2="3" stroke="rgba(0,0,0,.055)"       stroke-width=".5"/>
    <line x1="0" y1="3" x2="3" y2="6" stroke="rgba(0,0,0,.055)"       stroke-width=".5"/>
    <line x1="3" y1="3" x2="6" y2="6" stroke="rgba(255,255,255,.038)" stroke-width=".5"/>
  </pattern>

  <!-- Specular metal sheen on armour panels -->
  <filter id="metalr1x581" x="-5%" y="-5%" width="110%" height="110%">
    <feSpecularLighting surfaceScale="4" specularConstant="1.8"
        specularExponent="42" lighting-color="#ffffff" result="spec">
      <feDistantLight elevation="52" azimuth="38"/>
    </feSpecularLighting>
    <feComposite in="spec" in2="SourceGraphic" operator="in" result="sm"/>
    <feComposite in="SourceGraphic" in2="sm" operator="arithmetic" k1="0" k2="1" k3="0.55" k4="0"/>
  </filter>

  <!-- Sharper specular for weapons — heavier glare -->
  <filter id="wmr1x581" x="-8%" y="-8%" width="116%" height="116%">
    <feSpecularLighting surfaceScale="6" specularConstant="2.4"
        specularExponent="65" lighting-color="#ffffff" result="spec">
      <feDistantLight elevation="44" azimuth="28"/>
    </feSpecularLighting>
    <feComposite in="spec" in2="SourceGraphic" operator="in" result="sm"/>
    <feComposite in="SourceGraphic" in2="sm" operator="arithmetic" k1="0" k2="1" k3="0.78" k4="0"/>
  </filter>

  <!-- Sketch wobble -->
  <filter id="skr1x581" x="-8%" y="-8%" width="116%" height="116%">
    <feTurbulence type="fractalNoise" baseFrequency="0.038"
        numOctaves="3" seed="43" result="noise"/>
    <feDisplacementMap in="SourceGraphic" in2="noise" scale="2.6"
        xChannelSelector="R" yChannelSelector="G" result="w"/>
    <feComposite in="w" in2="SourceGraphic" operator="atop"/>
  </filter>

  <!-- Glow: sharp accent -->
  <filter id="glowr1x581" x="-20%" y="-20%" width="140%" height="140%">
    <feGaussianBlur stdDeviation="3.5" result="b"/>
    <feColorMatrix in="b" type="matrix"
        values="0 0 0 0 1  0 0 0 0 1  0 0 0 0 1  0 0 0 1.8 0" result="boost"/>
    <feMerge><feMergeNode in="boost"/><feMergeNode in="SourceGraphic"/></feMerge>
  </filter>

  <!-- Bloom: wide soft -->
  <filter id="bloomr1x581" x="-40%" y="-40%" width="180%" height="180%">
    <feGaussianBlur stdDeviation="11" result="b"/>
    <feMerge><feMergeNode in="b"/><feMergeNode in="SourceGraphic"/></feMerge>
  </filter>

  </defs><rect width="1000" height="1000" fill="url(#bgr1x581)"/><ellipse cx="500.0" cy="892.0" rx="350.0" ry="65.0" fill="rgba(0,0,0,.7)" filter="url(#bloomr1x581)"/><ellipse cx="500.0" cy="889.0" rx="220.0" ry="34.0" fill="rgba(0,0,0,.45)"/><polygon points="398.9,664.2 488.4,663.1 481.0,878.4 386.0,877.7" fill="url(#suitr1x581)" stroke="#2060ff" stroke-width="2.2" filter="url(#skr1x581) url(#metalr1x581)"/><polygon points="399.2,662.2 488.0,663.1 480.5,877.6 386.8,877.0" fill="url(#carbonr1x581)"/><polygon points="394.2,723.2 494.2,725.1 482.9,787.2 384.1,788.2" fill="url(#bevelr1x581)" fill-opacity=".5" stroke="#2060ff" stroke-width="1.4" filter="url(#skr1x581)"/><polygon points="510.5,662.9 600.9,663.1 613.0,878.2 518.2,878.1" fill="url(#suitr1x581)" stroke="#2060ff" stroke-width="2.2" filter="url(#skr1x581) url(#metalr1x581)"/><polygon points="509.5,663.6 600.3,660.8 611.3,877.6 520.1,879.2" fill="url(#carbonr1x581)"/><polygon points="507.9,725.1 609.1,723.3 617.2,788.1 516.2,788.9" fill="url(#bevelr1x581)" fill-opacity=".5" stroke="#2060ff" stroke-width="1.4" filter="url(#skr1x581)"/><rect x="394.2" y="840.3" width="100.3" height="24.7" fill="url(#bevelr1x581)" stroke="#2060ff" stroke-width="1" filter="url(#skr1x581)"/><rect x="508.0"  y="837.6" width="100.3" height="24.7" fill="url(#bevelr1x581)" stroke="#2060ff" stroke-width="1" filter="url(#skr1x581)"/><polygon points="369.4,877.3 496.1,877.3 504.3,921.0 363.5,920.7" fill="#003ccc" stroke="#2060ff" stroke-width="2" filter="url(#skr1x581)"/><polygon points="502.9,879.2 628.5,877.7 636.8,920.2 497.5,921.6" fill="#003ccc" stroke="#2060ff" stroke-width="2" filter="url(#skr1x581)"/><polygon points="304.1,632.1 696.9,632.3 639.4,680.8 363.5,682.3" fill="#2060ff" fill-opacity=".52" stroke="#2060ff" stroke-width="2" filter="url(#skr1x581)"/><rect x="462.4" y="638.7" width="72.0" height="42.0" fill="url(#bevelr1x581)" stroke="#2060ff" stroke-width="1.4" filter="url(#glowr1x581)"/><rect x="484.7" y="639.1" width="28.0" height="22.0" rx="1" fill="rgba(255,255,255,.48)"/><polygon points="151.3,467.4 233.4,466.6 257.4,735.8 130.2,735.6" fill="url(#suitr1x581)" stroke="#2060ff" stroke-width="2.2" filter="url(#skr1x581) url(#metalr1x581)"/><polygon points="175.2,430.7 252.7,433.4 243.6,511.6 158.4,510.8" fill="url(#bevelr1x581)" fill-opacity=".72" stroke="#2060ff" stroke-width="2.2" filter="url(#skr1x581)"/><polygon points="160.3,620.9 241.6,623.1 238.4,661.8 166.7,659.2" fill="#2060ff" fill-opacity=".42" stroke="#2060ff" stroke-width="1" filter="url(#skr1x581)"/><polygon points="766.7,465.6 846.0,465.3 871.9,736.2 740.9,734.9" fill="url(#suitr1x581)" stroke="#2060ff" stroke-width="2.2" filter="url(#skr1x581) url(#metalr1x581)"/><polygon points="745.4,432.9 825.3,430.7 840.2,509.0 755.1,510.2" fill="url(#bevelr1x581)" fill-opacity=".72" stroke="#2060ff" stroke-width="2.2" filter="url(#skr1x581)"/><polygon points="755.4,622.6 839.4,623.2 835.5,659.9 762.0,660.9" fill="#2060ff" fill-opacity=".42" stroke="#2060ff" stroke-width="1" filter="url(#skr1x581)"/><rect x="121.4"  y="700.0" width="135.3" height="85.0" rx="4" fill="url(#bevelr1x581)" stroke="#2060ff" stroke-width="1.8" filter="url(#skr1x581)"/><rect x="749.1"   y="700.4" width="135.3" height="85.0" rx="4" fill="url(#bevelr1x581)" stroke="#2060ff" stroke-width="1.8" filter="url(#skr1x581)"/><line x1="149.8" y1="701.4" x2="148.3" y2="782.7" stroke="#2060ff" stroke-opacity=".38" stroke-width="1"/><line x1="777.1" y1="703.2" x2="779.5" y2="782.1" stroke="#2060ff" stroke-opacity=".38" stroke-width="1"/><line x1="182.8" y1="702.7" x2="181.9" y2="784.5" stroke="#2060ff" stroke-opacity=".38" stroke-width="1"/><line x1="810.1" y1="702.8" x2="812.2" y2="782.6" stroke="#2060ff" stroke-opacity=".38" stroke-width="1"/><line x1="213.7" y1="701.3" x2="213.7" y2="784.1" stroke="#2060ff" stroke-opacity=".38" stroke-width="1"/><line x1="845.3" y1="702.4" x2="842.4" y2="782.9" stroke="#2060ff" stroke-opacity=".38" stroke-width="1"/><polygon points="234.2,419.2 766.3,416.8 721.7,663.6 278.5,662.8" fill="url(#suitr1x581)" stroke="#2060ff" stroke-width="2.6" filter="url(#skr1x581) url(#metalr1x581)"/><polygon points="234.2,416.8 766.2,417.7 724.4,664.0 278.3,661.9" fill="url(#carbonr1x581)"/><polygon points="369.0,416.4 633.3,416.5 612.2,514.6 389.0,515.8" fill="url(#suitHir1x581)"/><line x1="362.4" y1="470.9" x2="636.4" y2="473.0" stroke="#2060ff" stroke-opacity=".52" stroke-width="1.3" filter="url(#skr1x581)"/><line x1="400.6" y1="550.7" x2="601.4" y2="549.7" stroke="#2060ff" stroke-opacity=".52" stroke-width="1.3" filter="url(#skr1x581)"/><line x1="268.3" y1="492.2" x2="318.9" y2="489.7" stroke="#2060ff" stroke-opacity=".62" stroke-width="1.8"/><line x1="681.4" y1="492.4" x2="734.7" y2="490.2" stroke="#2060ff" stroke-opacity=".62" stroke-width="1.8"/><line x1="266.8" y1="523.6" x2="320.4" y2="523.0" stroke="#2060ff" stroke-opacity=".62" stroke-width="1.8"/><line x1="681.0" y1="521.5" x2="731.7" y2="521.3" stroke="#2060ff" stroke-opacity=".62" stroke-width="1.8"/><line x1="265.6" y1="554.2" x2="319.7" y2="556.0" stroke="#2060ff" stroke-opacity=".62" stroke-width="1.8"/><line x1="679.1" y1="554.7" x2="734.7" y2="553.6" stroke="#2060ff" stroke-opacity=".62" stroke-width="1.8"/><line x1="265.6" y1="586.3" x2="318.7" y2="585.1" stroke="#2060ff" stroke-opacity=".62" stroke-width="1.8"/><line x1="679.7" y1="586.1" x2="732.8" y2="586.0" stroke="#2060ff" stroke-opacity=".62" stroke-width="1.8"/><g filter="url(#glowr1x581)"><path d="M500.0,449.7 C462.3,446.8 442.0,481.6 447.8,513.5 L459.4,542.5 C476.8,536.7 491.3,551.2 500.0,551.2 C508.7,551.2 523.2,536.7 540.6,542.5 L552.2,513.5 C558.0,481.6 537.7,446.8 500.0,449.7 Z" fill="#2060ff" fill-opacity=".92" stroke="#0a0520" stroke-width="1.3" filter="url(#skr1x581)"/><path d="M483.8,519.3 Q500.0,533.8 516.2,519.3" stroke="#0a0520" stroke-width="1" fill="none" opacity=".58"/><ellipse cx="481.4" cy="497.8" rx="8.7" ry="6.4" fill="#0a0520" opacity=".95"/><ellipse cx="518.6" cy="497.8" rx="8.7" ry="6.4" fill="#0a0520" opacity=".95"/><ellipse cx="481.4" cy="497.8" rx="2.3" ry="5.8" fill="#2060ff"/><ellipse cx="518.6" cy="497.8" rx="2.3" ry="5.8" fill="#2060ff"/><path d="M471.0,467.1 L458.2,426.5 L481.4,463.0" fill="#2060ff" stroke="#0a0520" stroke-width=".9"/><path d="M529.0,467.1 L541.8,426.5 L518.6,463.0" fill="#2060ff" stroke="#0a0520" stroke-width=".9"/><path d="M476.8,452.6 C488.4,449.1 511.6,449.1 523.2,452.6" fill="rgba(255,255,255,.18)"/></g><g><rect x="830.8417269426957" y="422.6914946452714" width="148.0" height="82.0" rx="5" fill="url(#gunmetalr1x581)" stroke="#2060ff" stroke-width="2" filter="url(#wmr1x581)"/><rect x="830.6559351622686" y="422.6906271065585" width="148.0" height="82.0" rx="5" fill="url(#carbonr1x581)"/><rect x="839.1744202850015" y="401.7594005452469" width="90.0" height="22.0" rx="3" fill="url(#barrelr1x581)" stroke="#2060ff" stroke-width="1" filter="url(#wmr1x581)"/><circle cx="879.3295788965747" cy="414.7632564920932" r="15.0" fill="#2060ff" opacity=".8" filter="url(#glowr1x581)"/><circle cx="878.6366193237342" cy="413.9571392357349" r="6.0" fill="rgba(255,255,255,.9)"/><rect x="946.111738018468" y="457.0878271104768" width="78.0" height="36.0" rx="5" fill="url(#barrelr1x581)" stroke="#2060ff" stroke-width="1.2" filter="url(#wmr1x581)"/><circle cx="1020.1771399058961" cy="471.4240557586774" r="18.0" fill="#2060ff" filter="url(#glowr1x581)" opacity=".88"/><circle cx="1020.3698448453657" cy="472.28847939763216" r="7.0" fill="#ffffff"/><rect x="873.9847174977511" y="501.66220345860347" width="44.0" height="42.0" rx="3" fill="url(#gunmetalr1x581)" stroke="#2060ff" stroke-width="1" filter="url(#wmr1x581)"/><rect x="832.7859230913781" y="422.33694219822064" width="90.0" height="10.0" rx="2" fill="rgba(255,255,255,.22)"/><line x1="856.787171427589" y1="488.0743532799184" x2="858.5026419474372" y2="520.0911821877584" stroke="#2060ff" stroke-opacity=".5" stroke-width="1.2"/><line x1="872.4744319777564" y1="484.8180323284119" x2="873.7784276457131" y2="519.7917623548768" stroke="#2060ff" stroke-opacity=".5" stroke-width="1.2"/><line x1="891.0933616218716" y1="487.8517135735601" x2="891.5597271101177" y2="518.758241164498" stroke="#2060ff" stroke-opacity=".5" stroke-width="1.2"/></g><rect x="448.8978571549058" y="556.6557977982797" width="100.0"  height="56.0" fill="#003ccc" stroke="#2060ff" stroke-width="2.2" filter="url(#skr1x581)"/><rect x="423.2407079104334" y="574.2800876395777" width="152.0" height="26.0" fill="url(#bevelr1x581)" fill-opacity=".65" stroke="#2060ff" stroke-width="1.2" filter="url(#skr1x581)"/><polygon points="307.2,381.8 351.5,295.2 501.8,279.2 650.2,295.3 690.7,378.9 669.8,503.6 498.9,564.2 332.1,504.1" fill="url(#suitr1x581)" stroke="#2060ff" stroke-width="2.8" filter="url(#skr1x581) url(#metalr1x581)"/><polygon points="307.6,381.2 350.9,292.7 499.3,278.6 648.8,295.7 690.8,378.9 670.3,504.0 499.6,564.9 330.7,504.0" fill="url(#carbonr1x581)"/><polygon points="382.6,303.3 500.3,285.4 617.4,303.1 606.8,380.3 393.7,381.0" fill="url(#suitHir1x581)"/><polygon points="381.0,380.1 367.0,425.9 433.1,504.4 501.6,526.7 566.2,502.4 636.0,427.2 617.8,382.3" fill="#0a0520" fill-opacity=".88" stroke="#2060ff" stroke-width="1.8" filter="url(#skr1x581)"/><polygon points="379.7,412.7 476.7,411.8 485.7,440.8 388.1,440.6" fill="#2060ff" filter="url(#glowr1x581)"/><polygon points="522.2,410.8 619.2,409.6 612.6,440.3 516.2,440.0" fill="#2060ff" filter="url(#glowr1x581)"/><ellipse cx="430.9" cy="425.7" rx="38.4"  ry="8.2" fill="#ffffff" opacity=".88"/><ellipse cx="569.1" cy="425.7" rx="38.4"  ry="8.2" fill="#ffffff" opacity=".88"/><line x1="484.2634515881166" y1="413.20880931923165" x2="514.3853540485167" y2="412.46637981506063" stroke="#2060ff" stroke-opacity=".52" stroke-width="2"/><line x1="483.43631408685815" y1="439.13829245371744" x2="513.9666038681195" y2="437.14614027058707" stroke="#2060ff" stroke-opacity=".52" stroke-width="2"/><line x1="498.2267350113951" y1="453.1033674282953" x2="498.91024395152925" y2="482.02100998563697" stroke="#2060ff" stroke-opacity=".58" stroke-width="2.2" filter="url(#skr1x581)"/><line x1="454.61603470116853" y1="492.88200697768474" x2="452.8772893838398" y2="521.5588546800427" stroke="#2060ff" stroke-opacity=".52" stroke-width="1.5" filter="url(#skr1x581)"/><line x1="475.6431132675521" y1="489.6815372956916" x2="477.58817004797976" y2="520.509346321132" stroke="#2060ff" stroke-opacity=".52" stroke-width="1.5" filter="url(#skr1x581)"/><line x1="499.53715597810225" y1="492.2290723880752" x2="499.48384650312363" y2="520.4150744434446" stroke="#2060ff" stroke-opacity=".52" stroke-width="1.5" filter="url(#skr1x581)"/><line x1="522.6893376619182" y1="489.57423331877214" x2="523.953893159572" y2="521.4832856731489" stroke="#2060ff" stroke-opacity=".52" stroke-width="1.5" filter="url(#skr1x581)"/><line x1="544.6695275282674" y1="491.5043315402232" x2="545.6047479702346" y2="518.7213630483486" stroke="#2060ff" stroke-opacity=".52" stroke-width="1.5" filter="url(#skr1x581)"/><polygon points="433.2,503.4 568.6,504.1 554.8,558.4 444.6,557.1" fill="#003ccc" fill-opacity=".72" stroke="#2060ff" stroke-width="1.3" filter="url(#skr1x581)"/><path d="M387.56558050667866 327.0921844437718 Q329.6029307151772 215.48204428972676 382.14171314457434 142.12015731958672" stroke="#2060ff" stroke-width="5" fill="none" stroke-linecap="round" filter="url(#skr1x581)"/><path d="M389.9531958292797 326.19831090504306 Q331.01112407367674 217.845325600449 382.08826924482366 141.31354689970613" stroke="rgba(255,255,255,.25)" stroke-width="1.5" fill="none" stroke-linecap="round"/><path d="M612.9356960726343 328.35986903747545 Q667.6697019518726 215.30626655593514 619.3923394236341 142.3065439796075" stroke="#2060ff" stroke-width="5" fill="none" stroke-linecap="round" filter="url(#skr1x581)"/><path d="M610.1646478074975 327.3264099502936 Q669.7509714339301 216.84815262788905 620.4770001735166 142.35802534725516" stroke="rgba(255,255,255,.25)" stroke-width="1.5" fill="none" stroke-linecap="round"/><text x="30.0"  y="975.0" font-family="monospace" font-weight="bold" font-size="22.0" fill="rgba(255,255,255,.22)">#0001</text><text x="500.0"   y="975.0" text-anchor="middle" font-family="monospace" font-weight="bold" font-size="22.0" fill="#2060ff" fill-opacity=".48">COBALT RANGER</text><text x="970.0" y="975.0" text-anchor="end"    font-family="monospace" font-weight="bold" font-size="22.0" fill="#2060ff" fill-opacity=".32">MECH RANGERS</text></svg>