<svg xmlns="http://www.w3.org/2000/svg" viewBox="0 0 1000 1000" width="1000" height="1000" shape-rendering="geometricPrecision"><defs>

  <!-- Scene gradients -->
  <radialGradient id="bgr1x591" cx="50%" cy="42%" r="72%">
    <stop offset="0%"   stop-color="#0e000e"/>
    <stop offset="100%" stop-color="#1e0600"/>
  </radialGradient>
  <linearGradient id="suitr1x591" x1="8%" y1="0%" x2="92%" y2="100%">
    <stop offset="0%"   stop-color="#ffcc00" stop-opacity=".95"/>
    <stop offset="45%"  stop-color="#a07000"/>
    <stop offset="100%" stop-color="#1e0600"/>
  </linearGradient>
  <linearGradient id="suitHir1x591" x1="0%" y1="0%" x2="0%" y2="100%">
    <stop offset="0%"   stop-color="rgba(255,255,255,.28)"/>
    <stop offset="60%"  stop-color="rgba(255,255,255,.04)"/>
    <stop offset="100%" stop-color="rgba(255,255,255,0)"/>
  </linearGradient>
  <!-- Bevel: bright top, dark bottom for armour panels -->
  <linearGradient id="bevelr1x591" x1="0%" y1="0%" x2="0%" y2="100%">
    <stop offset="0%"   stop-color="rgba(255,255,255,.55)"/>
    <stop offset="30%"  stop-color="#ffcc00"/>
    <stop offset="70%"  stop-color="#a07000"/>
    <stop offset="100%" stop-color="rgba(0,0,0,.5)"/>
  </linearGradient>

  <!-- Weapon: cold steel blade sweep -->
  <linearGradient id="blader1x591" x1="0%" y1="0%" x2="100%" y2="0%">
    <stop offset="0%"   stop-color="#0e0e20"/>
    <stop offset="16%"  stop-color="#3e3e58"/>
    <stop offset="34%"  stop-color="#c8c8e0"/>
    <stop offset="50%"  stop-color="#f5f5ff"/>
    <stop offset="66%"  stop-color="#b8b8d0"/>
    <stop offset="84%"  stop-color="#2e2e48"/>
    <stop offset="100%" stop-color="#08080e"/>
  </linearGradient>
  <!-- Blade tip brightening -->
  <linearGradient id="bladeTipr1x591" x1="0%" y1="100%" x2="0%" y2="0%">
    <stop offset="0%"   stop-color="rgba(255,255,255,0)"/>
    <stop offset="55%"  stop-color="rgba(255,255,255,.1)"/>
    <stop offset="100%" stop-color="rgba(255,255,255,.55)"/>
  </linearGradient>
  <!-- Gunmetal anodised — blaster body -->
  <linearGradient id="gunmetalr1x591" x1="0%" y1="0%" x2="0%" y2="100%">
    <stop offset="0%"   stop-color="#46465e"/>
    <stop offset="18%"  stop-color="#828296"/>
    <stop offset="42%"  stop-color="#26263a"/>
    <stop offset="72%"  stop-color="#16162a"/>
    <stop offset="100%" stop-color="#0c0c18"/>
  </linearGradient>
  <!-- Brushed steel tube — barrel/rod -->
  <linearGradient id="barrelr1x591" x1="0%" y1="0%" x2="100%" y2="0%">
    <stop offset="0%"   stop-color="#0a0a14"/>
    <stop offset="24%"  stop-color="#585875"/>
    <stop offset="50%"  stop-color="#a8a8c8"/>
    <stop offset="76%"  stop-color="#383852"/>
    <stop offset="100%" stop-color="#0a0a14"/>
  </linearGradient>
  <!-- Chrome rod — lance shaft -->
  <linearGradient id="chromer1x591" x1="0%" y1="0%" x2="100%" y2="0%">
    <stop offset="0%"   stop-color="#0c0c18"/>
    <stop offset="20%"  stop-color="#686888"/>
    <stop offset="44%"  stop-color="#e0e0f0"/>
    <stop offset="56%"  stop-color="#c0c0d8"/>
    <stop offset="80%"  stop-color="#28283e"/>
    <stop offset="100%" stop-color="#0c0c18"/>
  </linearGradient>
  <!-- Titanium plate — shield face -->
  <linearGradient id="titaniumr1x591" x1="0%" y1="0%" x2="100%" y2="100%">
    <stop offset="0%"   stop-color="#585878"/>
    <stop offset="28%"  stop-color="#ffcc00" stop-opacity=".88"/>
    <stop offset="55%"  stop-color="#a07000"/>
    <stop offset="80%"  stop-color="#181828"/>
    <stop offset="100%" stop-color="#0a0a18"/>
  </linearGradient>
  <!-- Artillery black-chrome — cannon body -->
  <linearGradient id="artilleryr1x591" x1="0%" y1="0%" x2="0%" y2="100%">
    <stop offset="0%"   stop-color="#383850"/>
    <stop offset="14%"  stop-color="#78789a"/>
    <stop offset="36%"  stop-color="#202034"/>
    <stop offset="65%"  stop-color="#14141e"/>
    <stop offset="100%" stop-color="#0a0a12"/>
  </linearGradient>
  <!-- Energy orb — staff -->
  <radialGradient id="orbr1x591" cx="35%" cy="35%" r="65%">
    <stop offset="0%"   stop-color="rgba(255,255,255,.9)"/>
    <stop offset="30%"  stop-color="#ffcc00"/>
    <stop offset="68%"  stop-color="#a07000"/>
    <stop offset="100%" stop-color="rgba(0,0,0,.6)"/>
  </radialGradient>
  <!-- Knuckle plate chrome -->
  <linearGradient id="knuckler1x591" x1="0%" y1="0%" x2="0%" y2="100%">
    <stop offset="0%"   stop-color="#888aaa"/>
    <stop offset="32%"  stop-color="#ffcc00" stop-opacity=".8"/>
    <stop offset="62%"  stop-color="#1a1a2c"/>
    <stop offset="100%" stop-color="#0a0a14"/>
  </linearGradient>

  <!-- Carbon fibre weave texture overlay -->
  <pattern id="carbonr1x591" width="6" height="6" patternUnits="userSpaceOnUse">
    <rect width="6" height="6" fill="rgba(0,0,0,.08)"/>
    <rect x="0" y="0" width="3" height="3" fill="rgba(255,255,255,.022)"/>
    <rect x="3" y="3" width="3" height="3" fill="rgba(255,255,255,.022)"/>
    <line x1="0" y1="0" x2="3" y2="3" stroke="rgba(255,255,255,.038)" stroke-width=".5"/>
    <line x1="3" y1="0" x2="6" y2="3" stroke="rgba(0,0,0,.055)"       stroke-width=".5"/>
    <line x1="0" y1="3" x2="3" y2="6" stroke="rgba(0,0,0,.055)"       stroke-width=".5"/>
    <line x1="3" y1="3" x2="6" y2="6" stroke="rgba(255,255,255,.038)" stroke-width=".5"/>
  </pattern>

  <!-- Specular metal sheen on armour panels -->
  <filter id="metalr1x591" x="-5%" y="-5%" width="110%" height="110%">
    <feSpecularLighting surfaceScale="4" specularConstant="1.8"
        specularExponent="42" lighting-color="#ffffff" result="spec">
      <feDistantLight elevation="52" azimuth="38"/>
    </feSpecularLighting>
    <feComposite in="spec" in2="SourceGraphic" operator="in" result="sm"/>
    <feComposite in="SourceGraphic" in2="sm" operator="arithmetic" k1="0" k2="1" k3="0.55" k4="0"/>
  </filter>

  <!-- Sharper specular for weapons — heavier glare -->
  <filter id="wmr1x591" x="-8%" y="-8%" width="116%" height="116%">
    <feSpecularLighting surfaceScale="6" specularConstant="2.4"
        specularExponent="65" lighting-color="#ffffff" result="spec">
      <feDistantLight elevation="44" azimuth="28"/>
    </feSpecularLighting>
    <feComposite in="spec" in2="SourceGraphic" operator="in" result="sm"/>
    <feComposite in="SourceGraphic" in2="sm" operator="arithmetic" k1="0" k2="1" k3="0.78" k4="0"/>
  </filter>

  <!-- Sketch wobble -->
  <filter id="skr1x591" x="-8%" y="-8%" width="116%" height="116%">
    <feTurbulence type="fractalNoise" baseFrequency="0.038"
        numOctaves="3" seed="72" result="noise"/>
    <feDisplacementMap in="SourceGraphic" in2="noise" scale="2.6"
        xChannelSelector="R" yChannelSelector="G" result="w"/>
    <feComposite in="w" in2="SourceGraphic" operator="atop"/>
  </filter>

  <!-- Glow: sharp accent -->
  <filter id="glowr1x591" x="-20%" y="-20%" width="140%" height="140%">
    <feGaussianBlur stdDeviation="3.5" result="b"/>
    <feColorMatrix in="b" type="matrix"
        values="0 0 0 0 1  0 0 0 0 1  0 0 0 0 1  0 0 0 1.8 0" result="boost"/>
    <feMerge><feMergeNode in="boost"/><feMergeNode in="SourceGraphic"/></feMerge>
  </filter>

  <!-- Bloom: wide soft -->
  <filter id="bloomr1x591" x="-40%" y="-40%" width="180%" height="180%">
    <feGaussianBlur stdDeviation="11" result="b"/>
    <feMerge><feMergeNode in="b"/><feMergeNode in="SourceGraphic"/></feMerge>
  </filter>

  </defs><rect width="1000" height="1000" fill="url(#bgr1x591)"/><ellipse cx="500.0" cy="1000" rx="850.0" ry="350.0" fill="#ff4500" fill-opacity=".11" filter="url(#bloomr1x591)"/><ellipse cx="500.0" cy="892.0" rx="350.0" ry="65.0" fill="rgba(0,0,0,.7)" filter="url(#bloomr1x591)"/><ellipse cx="500.0" cy="889.0" rx="220.0" ry="34.0" fill="rgba(0,0,0,.45)"/><ellipse cx="500.0" cy="520.0" rx="320.0" ry="480.0" fill="#ff6600" fill-opacity=".042" filter="url(#bloomr1x591)"/><circle cx="326.8" cy="210.9" r="2.1" fill="#ff6600" fill-opacity="0.49" filter="url(#glowr1x591)"/><circle cx="670.0" cy="374.7" r="1.2" fill="#ff6600" fill-opacity="0.87" filter="url(#glowr1x591)"/><circle cx="421.5" cy="391.4" r="1.8" fill="#ff6600" fill-opacity="0.71" filter="url(#glowr1x591)"/><circle cx="580.6" cy="735.4" r="3.6" fill="#ff6600" fill-opacity="0.70" filter="url(#glowr1x591)"/><circle cx="613.3" cy="443.5" r="1.5" fill="#ff6600" fill-opacity="0.89" filter="url(#glowr1x591)"/><circle cx="339.9" cy="597.4" r="1.7" fill="#ff6600" fill-opacity="0.44" filter="url(#glowr1x591)"/><circle cx="593.4" cy="556.3" r="3.4" fill="#ff6600" fill-opacity="0.45" filter="url(#glowr1x591)"/><circle cx="289.4" cy="228.0" r="1.3" fill="#ff6600" fill-opacity="0.39" filter="url(#glowr1x591)"/><circle cx="724.7" cy="303.7" r="2.3" fill="#ff6600" fill-opacity="0.83" filter="url(#glowr1x591)"/><circle cx="489.6" cy="307.0" r="2.5" fill="#ff6600" fill-opacity="0.71" filter="url(#glowr1x591)"/><circle cx="464.3" cy="248.9" r="2.8" fill="#ff6600" fill-opacity="0.40" filter="url(#glowr1x591)"/><circle cx="531.6" cy="701.8" r="2.9" fill="#ff6600" fill-opacity="0.81" filter="url(#glowr1x591)"/><circle cx="354.4" cy="203.7" r="3.4" fill="#ff6600" fill-opacity="0.57" filter="url(#glowr1x591)"/><circle cx="687.6" cy="568.3" r="1.1" fill="#ff6600" fill-opacity="0.66" filter="url(#glowr1x591)"/><polygon points="398.5,661.2 489.8,663.0 479.3,878.7 388.6,876.1" fill="url(#suitr1x591)" stroke="#ffcc00" stroke-width="2.2" filter="url(#skr1x591) url(#metalr1x591)"/><polygon points="399.1,662.3 490.7,663.1 479.9,877.6 385.7,878.5" fill="url(#carbonr1x591)"/><polygon points="391.4,724.9 491.8,722.7 483.5,787.4 382.1,789.2" fill="url(#bevelr1x591)" fill-opacity=".5" stroke="#ffcc00" stroke-width="1.4" filter="url(#skr1x591)"/><polygon points="512.3,663.7 601.5,663.4 613.5,876.8 521.1,877.7" fill="url(#suitr1x591)" stroke="#ffcc00" stroke-width="2.2" filter="url(#skr1x591) url(#metalr1x591)"/><polygon points="509.8,664.2 600.3,661.4 613.6,876.3 518.7,878.4" fill="url(#carbonr1x591)"/><polygon points="506.0,724.7 607.6,722.8 617.2,787.1 514.9,786.9" fill="url(#bevelr1x591)" fill-opacity=".5" stroke="#ffcc00" stroke-width="1.4" filter="url(#skr1x591)"/><rect x="391.1" y="838.5" width="100.3" height="24.7" fill="url(#bevelr1x591)" stroke="#ffcc00" stroke-width="1" filter="url(#skr1x591)"/><rect x="507.1"  y="840.3" width="100.3" height="24.7" fill="url(#bevelr1x591)" stroke="#ffcc00" stroke-width="1" filter="url(#skr1x591)"/><polygon points="368.1,878.7 495.4,877.9 504.2,919.7 363.9,921.4" fill="#a07000" stroke="#ffcc00" stroke-width="2" filter="url(#skr1x591)"/><polygon points="505.0,876.0 629.4,875.8 635.6,921.2 495.4,919.8" fill="#a07000" stroke="#ffcc00" stroke-width="2" filter="url(#skr1x591)"/><polygon points="304.1,634.5 697.1,634.0 639.0,681.0 361.7,680.9" fill="#ffcc00" fill-opacity=".52" stroke="#ffcc00" stroke-width="2" filter="url(#skr1x591)"/><rect x="463.1" y="636.4" width="72.0" height="42.0" fill="url(#bevelr1x591)" stroke="#ffcc00" stroke-width="1.4" filter="url(#glowr1x591)"/><rect x="487.1" y="639.8" width="28.0" height="22.0" rx="1" fill="rgba(255,255,255,.48)"/><polygon points="153.9,465.3 233.4,468.2 258.7,734.5 129.8,733.4" fill="url(#suitr1x591)" stroke="#ffcc00" stroke-width="2.2" filter="url(#skr1x591) url(#metalr1x591)"/><polygon points="174.0,431.5 253.2,431.8 242.6,511.2 161.0,510.8" fill="url(#bevelr1x591)" fill-opacity=".72" stroke="#ffcc00" stroke-width="2.2" filter="url(#skr1x591)"/><polygon points="161.7,622.4 241.5,620.4 238.7,660.7 165.4,662.2" fill="#ffcc00" fill-opacity=".42" stroke="#ffcc00" stroke-width="1" filter="url(#skr1x591)"/><polygon points="763.9,465.8 846.9,467.2 871.5,735.2 742.3,734.7" fill="url(#suitr1x591)" stroke="#ffcc00" stroke-width="2.2" filter="url(#skr1x591) url(#metalr1x591)"/><polygon points="747.6,432.4 825.0,430.8 840.3,509.5 757.1,512.1" fill="url(#bevelr1x591)" fill-opacity=".72" stroke="#ffcc00" stroke-width="2.2" filter="url(#skr1x591)"/><polygon points="756.2,620.8 840.2,621.7 833.8,661.6 762.3,659.9" fill="#ffcc00" fill-opacity=".42" stroke="#ffcc00" stroke-width="1" filter="url(#skr1x591)"/><rect x="118.9"  y="700.9" width="135.3" height="85.0" rx="4" fill="url(#bevelr1x591)" stroke="#ffcc00" stroke-width="1.8" filter="url(#skr1x591)"/><rect x="748.7"   y="701.1" width="135.3" height="85.0" rx="4" fill="url(#bevelr1x591)" stroke="#ffcc00" stroke-width="1.8" filter="url(#skr1x591)"/><line x1="149.0" y1="700.6" x2="149.4" y2="785.3" stroke="#ffcc00" stroke-opacity=".38" stroke-width="1"/><line x1="778.3" y1="703.0" x2="776.4" y2="783.9" stroke="#ffcc00" stroke-opacity=".38" stroke-width="1"/><line x1="183.3" y1="700.7" x2="182.8" y2="784.0" stroke="#ffcc00" stroke-opacity=".38" stroke-width="1"/><line x1="810.6" y1="702.0" x2="811.8" y2="785.0" stroke="#ffcc00" stroke-opacity=".38" stroke-width="1"/><line x1="214.0" y1="702.5" x2="216.7" y2="783.8" stroke="#ffcc00" stroke-opacity=".38" stroke-width="1"/><line x1="844.9" y1="702.0" x2="844.2" y2="785.3" stroke="#ffcc00" stroke-opacity=".38" stroke-width="1"/><polygon points="234.8,418.5 765.0,418.1 723.0,662.5 278.3,662.9" fill="url(#suitr1x591)" stroke="#ffcc00" stroke-width="2.6" filter="url(#skr1x591) url(#metalr1x591)"/><polygon points="234.1,419.2 765.4,416.6 722.5,661.7 278.7,662.2" fill="url(#carbonr1x591)"/><polygon points="366.0,417.3 634.0,417.6 611.3,516.4 390.2,516.5" fill="url(#suitHir1x591)"/><line x1="362.7" y1="473.0" x2="636.9" y2="470.6" stroke="#ffcc00" stroke-opacity=".52" stroke-width="1.3" filter="url(#skr1x591)"/><line x1="399.9" y1="550.0" x2="600.5" y2="550.9" stroke="#ffcc00" stroke-opacity=".52" stroke-width="1.3" filter="url(#skr1x591)"/><line x1="266.2" y1="492.5" x2="318.2" y2="489.9" stroke="#ffcc00" stroke-opacity=".62" stroke-width="1.8"/><line x1="678.6" y1="490.2" x2="734.8" y2="491.8" stroke="#ffcc00" stroke-opacity=".62" stroke-width="1.8"/><line x1="268.4" y1="523.5" x2="319.6" y2="521.2" stroke="#ffcc00" stroke-opacity=".62" stroke-width="1.8"/><line x1="680.8" y1="522.0" x2="734.1" y2="523.9" stroke="#ffcc00" stroke-opacity=".62" stroke-width="1.8"/><line x1="266.7" y1="553.1" x2="320.8" y2="555.8" stroke="#ffcc00" stroke-opacity=".62" stroke-width="1.8"/><line x1="678.9" y1="553.4" x2="732.9" y2="555.0" stroke="#ffcc00" stroke-opacity=".62" stroke-width="1.8"/><line x1="266.2" y1="585.7" x2="318.6" y2="585.6" stroke="#ffcc00" stroke-opacity=".62" stroke-width="1.8"/><line x1="681.6" y1="585.0" x2="734.1" y2="587.9" stroke="#ffcc00" stroke-opacity=".62" stroke-width="1.8"/><g filter="url(#glowr1x591)"><polygon points="501.5,452.8 516.3,490.1 554.6,493.3 523.9,517.8 534.5,557.9 498.5,535.2 465.5,556.7 474.6,517.5 445.7,493.2 484.2,490.8 " fill="#ffcc00" stroke="#1e0600" stroke-width="1.4" filter="url(#skr1x591)"/><polygon points="501.5,452.8 516.3,490.1 554.6,493.3 523.9,517.8 534.5,557.9 498.5,535.2 465.5,556.7 474.6,517.5 445.7,493.2 484.2,490.8 " fill="url(#suitHir1x591)" opacity=".45"/></g><g><rect x="116.5" y="703.3" width="137.8" height="88.0" rx="5" fill="url(#bevelr1x591)" stroke="#ffcc00" stroke-width="2" filter="url(#wmr1x591)"/><rect x="115.5" y="702.1" width="137.8" height="88.0" rx="5" fill="url(#carbonr1x591)"/><rect x="747.2"  y="701.5" width="137.8" height="88.0" rx="5" fill="url(#bevelr1x591)" stroke="#ffcc00" stroke-width="2" filter="url(#wmr1x591)"/><rect x="749.4"  y="701.6" width="137.8" height="88.0" rx="5" fill="url(#carbonr1x591)"/><rect x="121.4" y="699.9" width="23.0" height="22.0" rx="2" fill="url(#knuckler1x591)" stroke="#ffcc00" stroke-width=".8" filter="url(#wmr1x591)"/><rect x="755.4" y="698.8" width="23.0" height="22.0" rx="2" fill="url(#knuckler1x591)" stroke="#ffcc00" stroke-width=".8" filter="url(#wmr1x591)"/><rect x="151.8" y="701.2" width="23.0" height="22.0" rx="2" fill="url(#knuckler1x591)" stroke="#ffcc00" stroke-width=".8" filter="url(#wmr1x591)"/><rect x="784.2" y="699.2" width="23.0" height="22.0" rx="2" fill="url(#knuckler1x591)" stroke="#ffcc00" stroke-width=".8" filter="url(#wmr1x591)"/><rect x="181.9" y="699.4" width="23.0" height="22.0" rx="2" fill="url(#knuckler1x591)" stroke="#ffcc00" stroke-width=".8" filter="url(#wmr1x591)"/><rect x="813.0" y="700.1" width="23.0" height="22.0" rx="2" fill="url(#knuckler1x591)" stroke="#ffcc00" stroke-width=".8" filter="url(#wmr1x591)"/><rect x="209.4" y="701.6" width="23.0" height="22.0" rx="2" fill="url(#knuckler1x591)" stroke="#ffcc00" stroke-width=".8" filter="url(#wmr1x591)"/><rect x="842.8" y="700.6" width="23.0" height="22.0" rx="2" fill="url(#knuckler1x591)" stroke="#ffcc00" stroke-width=".8" filter="url(#wmr1x591)"/><ellipse cx="185.76280532008036" cy="709.7478756067156" rx="45.1" ry="30.0" fill="#ffcc00" fill-opacity=".25" filter="url(#glowr1x591)"/><ellipse cx="816.8199956287816" cy="711.246593502704" rx="45.1" ry="30.0" fill="#ffcc00" fill-opacity=".25" filter="url(#glowr1x591)"/></g><rect x="449.9871048828587" y="555.833616923727" width="100.0"  height="56.0" fill="#a07000" stroke="#ffcc00" stroke-width="2.2" filter="url(#skr1x591)"/><rect x="424.1292969492264" y="575.4936627307907" width="152.0" height="26.0" fill="url(#bevelr1x591)" fill-opacity=".65" stroke="#ffcc00" stroke-width="1.2" filter="url(#skr1x591)"/><polygon points="306.5,381.8 351.6,294.4 499.4,276.3 651.0,296.1 692.7,380.5 669.7,503.1 500.3,565.7 329.9,504.0" fill="url(#suitr1x591)" stroke="#ffcc00" stroke-width="2.8" filter="url(#skr1x591) url(#metalr1x591)"/><polygon points="306.8,379.0 349.0,293.3 501.7,278.2 648.1,293.0 693.2,382.1 670.5,504.8 499.3,564.5 331.5,504.3" fill="url(#carbonr1x591)"/><polygon points="381.3,303.3 499.1,286.0 619.6,301.5 607.0,381.2 393.5,382.0" fill="url(#suitHir1x591)"/><polygon points="381.7,378.8 364.1,424.4 431.9,505.2 498.5,529.1 566.9,502.4 636.2,424.0 620.7,379.7" fill="#1e0600" fill-opacity=".88" stroke="#ffcc00" stroke-width="1.8" filter="url(#skr1x591)"/><polygon points="382.3,412.4 476.4,412.7 484.3,441.7 388.2,439.7" fill="#ffcc00" filter="url(#glowr1x591)"/><polygon points="524.6,412.6 619.6,412.5 609.7,439.4 516.9,440.5" fill="#ffcc00" filter="url(#glowr1x591)"/><ellipse cx="430.9" cy="425.7" rx="38.4"  ry="8.2" fill="#ffffff" opacity=".88"/><ellipse cx="569.1" cy="425.7" rx="38.4"  ry="8.2" fill="#ffffff" opacity=".88"/><line x1="485.2289439732767" y1="412.2480512995273" x2="516.798832242135" y2="413.7653092612512" stroke="#ffcc00" stroke-opacity=".52" stroke-width="2"/><line x1="486.166936417073" y1="438.9455953848548" x2="514.4929427603632" y2="436.8711099729873" stroke="#ffcc00" stroke-opacity=".52" stroke-width="2"/><line x1="499.12621846487747" y1="456.09747229805214" x2="499.86402221629396" y2="482.334537547268" stroke="#ffcc00" stroke-opacity=".58" stroke-width="2.2" filter="url(#skr1x591)"/><line x1="455.38026513315737" y1="492.0341652954928" x2="455.18311678336937" y2="521.6058622420766" stroke="#ffcc00" stroke-opacity=".52" stroke-width="1.5" filter="url(#skr1x591)"/><line x1="478.30138021674003" y1="489.5281956435181" x2="476.2837867647782" y2="518.7663727879524" stroke="#ffcc00" stroke-opacity=".52" stroke-width="1.5" filter="url(#skr1x591)"/><line x1="501.6105360063724" y1="492.54169466979795" x2="498.762519334536" y2="519.2567948529497" stroke="#ffcc00" stroke-opacity=".52" stroke-width="1.5" filter="url(#skr1x591)"/><line x1="523.3720773025974" y1="492.82772851865735" x2="524.3503946500457" y2="520.4253272418864" stroke="#ffcc00" stroke-opacity=".52" stroke-width="1.5" filter="url(#skr1x591)"/><line x1="547.4373667231016" y1="490.8292481495067" x2="546.6998770709337" y2="520.6217582667247" stroke="#ffcc00" stroke-opacity=".52" stroke-width="1.5" filter="url(#skr1x591)"/><polygon points="434.6,502.8 567.8,503.8 554.3,556.6 444.5,558.2" fill="#a07000" fill-opacity=".72" stroke="#ffcc00" stroke-width="1.3" filter="url(#skr1x591)"/><path d="M387.27302447265015 327.2105810372159 Q331.0006960171833 217.23051504213362 380.17246838346125 142.20033483849838" stroke="#ffcc00" stroke-width="5" fill="none" stroke-linecap="round" filter="url(#skr1x591)"/><path d="M388.56643643384797 329.04368495894596 Q329.65784488875414 218.2648585449904 379.3399115962349 139.63281775917858" stroke="rgba(255,255,255,.25)" stroke-width="1.5" fill="none" stroke-linecap="round"/><path d="M612.0201089849137 328.297542126663 Q667.6167315139808 215.96438049953431 617.439013188295 141.2819810940884" stroke="#ffcc00" stroke-width="5" fill="none" stroke-linecap="round" filter="url(#skr1x591)"/><path d="M610.4101991603524 327.344374098815 Q667.7115592937358 216.7233840353787 620.2959379330836 141.19441560646518" stroke="rgba(255,255,255,.25)" stroke-width="1.5" fill="none" stroke-linecap="round"/><text x="30.0"  y="975.0" font-family="monospace" font-weight="bold" font-size="22.0" fill="rgba(255,255,255,.22)">#0001</text><text x="500.0"   y="975.0" text-anchor="middle" font-family="monospace" font-weight="bold" font-size="22.0" fill="#ffcc00" fill-opacity=".48">NOVA RANGER</text><text x="970.0" y="975.0" text-anchor="end"    font-family="monospace" font-weight="bold" font-size="22.0" fill="#ffcc00" fill-opacity=".32">MECH RANGERS</text></svg>