<svg xmlns="http://www.w3.org/2000/svg" viewBox="0 0 1000 1000" width="1000" height="1000" shape-rendering="geometricPrecision"><defs>

  <!-- Scene gradients -->
  <radialGradient id="bgr1x5930" cx="50%" cy="42%" r="72%">
    <stop offset="0%"   stop-color="#1e0a2e"/>
    <stop offset="100%" stop-color="#0a0520"/>
  </radialGradient>
  <linearGradient id="suitr1x5930" x1="8%" y1="0%" x2="92%" y2="100%">
    <stop offset="0%"   stop-color="#ccccff" stop-opacity=".95"/>
    <stop offset="45%"  stop-color="#242438"/>
    <stop offset="100%" stop-color="#0a0520"/>
  </linearGradient>
  <linearGradient id="suitHir1x5930" x1="0%" y1="0%" x2="0%" y2="100%">
    <stop offset="0%"   stop-color="rgba(255,255,255,.28)"/>
    <stop offset="60%"  stop-color="rgba(255,255,255,.04)"/>
    <stop offset="100%" stop-color="rgba(255,255,255,0)"/>
  </linearGradient>
  <!-- Bevel: bright top, dark bottom for armour panels -->
  <linearGradient id="bevelr1x5930" x1="0%" y1="0%" x2="0%" y2="100%">
    <stop offset="0%"   stop-color="rgba(255,255,255,.55)"/>
    <stop offset="30%"  stop-color="#ccccff"/>
    <stop offset="70%"  stop-color="#242438"/>
    <stop offset="100%" stop-color="rgba(0,0,0,.5)"/>
  </linearGradient>

  <!-- Weapon: cold steel blade sweep -->
  <linearGradient id="blader1x5930" x1="0%" y1="0%" x2="100%" y2="0%">
    <stop offset="0%"   stop-color="#0e0e20"/>
    <stop offset="16%"  stop-color="#3e3e58"/>
    <stop offset="34%"  stop-color="#c8c8e0"/>
    <stop offset="50%"  stop-color="#f5f5ff"/>
    <stop offset="66%"  stop-color="#b8b8d0"/>
    <stop offset="84%"  stop-color="#2e2e48"/>
    <stop offset="100%" stop-color="#08080e"/>
  </linearGradient>
  <!-- Blade tip brightening -->
  <linearGradient id="bladeTipr1x5930" x1="0%" y1="100%" x2="0%" y2="0%">
    <stop offset="0%"   stop-color="rgba(255,255,255,0)"/>
    <stop offset="55%"  stop-color="rgba(255,255,255,.1)"/>
    <stop offset="100%" stop-color="rgba(255,255,255,.55)"/>
  </linearGradient>
  <!-- Gunmetal anodised — blaster body -->
  <linearGradient id="gunmetalr1x5930" x1="0%" y1="0%" x2="0%" y2="100%">
    <stop offset="0%"   stop-color="#46465e"/>
    <stop offset="18%"  stop-color="#828296"/>
    <stop offset="42%"  stop-color="#26263a"/>
    <stop offset="72%"  stop-color="#16162a"/>
    <stop offset="100%" stop-color="#0c0c18"/>
  </linearGradient>
  <!-- Brushed steel tube — barrel/rod -->
  <linearGradient id="barrelr1x5930" x1="0%" y1="0%" x2="100%" y2="0%">
    <stop offset="0%"   stop-color="#0a0a14"/>
    <stop offset="24%"  stop-color="#585875"/>
    <stop offset="50%"  stop-color="#a8a8c8"/>
    <stop offset="76%"  stop-color="#383852"/>
    <stop offset="100%" stop-color="#0a0a14"/>
  </linearGradient>
  <!-- Chrome rod — lance shaft -->
  <linearGradient id="chromer1x5930" x1="0%" y1="0%" x2="100%" y2="0%">
    <stop offset="0%"   stop-color="#0c0c18"/>
    <stop offset="20%"  stop-color="#686888"/>
    <stop offset="44%"  stop-color="#e0e0f0"/>
    <stop offset="56%"  stop-color="#c0c0d8"/>
    <stop offset="80%"  stop-color="#28283e"/>
    <stop offset="100%" stop-color="#0c0c18"/>
  </linearGradient>
  <!-- Titanium plate — shield face -->
  <linearGradient id="titaniumr1x5930" x1="0%" y1="0%" x2="100%" y2="100%">
    <stop offset="0%"   stop-color="#585878"/>
    <stop offset="28%"  stop-color="#ccccff" stop-opacity=".88"/>
    <stop offset="55%"  stop-color="#242438"/>
    <stop offset="80%"  stop-color="#181828"/>
    <stop offset="100%" stop-color="#0a0a18"/>
  </linearGradient>
  <!-- Artillery black-chrome — cannon body -->
  <linearGradient id="artilleryr1x5930" x1="0%" y1="0%" x2="0%" y2="100%">
    <stop offset="0%"   stop-color="#383850"/>
    <stop offset="14%"  stop-color="#78789a"/>
    <stop offset="36%"  stop-color="#202034"/>
    <stop offset="65%"  stop-color="#14141e"/>
    <stop offset="100%" stop-color="#0a0a12"/>
  </linearGradient>
  <!-- Energy orb — staff -->
  <radialGradient id="orbr1x5930" cx="35%" cy="35%" r="65%">
    <stop offset="0%"   stop-color="rgba(255,255,255,.9)"/>
    <stop offset="30%"  stop-color="#ccccff"/>
    <stop offset="68%"  stop-color="#242438"/>
    <stop offset="100%" stop-color="rgba(0,0,0,.6)"/>
  </radialGradient>
  <!-- Knuckle plate chrome -->
  <linearGradient id="knuckler1x5930" x1="0%" y1="0%" x2="0%" y2="100%">
    <stop offset="0%"   stop-color="#888aaa"/>
    <stop offset="32%"  stop-color="#ccccff" stop-opacity=".8"/>
    <stop offset="62%"  stop-color="#1a1a2c"/>
    <stop offset="100%" stop-color="#0a0a14"/>
  </linearGradient>

  <!-- Carbon fibre weave texture overlay -->
  <pattern id="carbonr1x5930" width="6" height="6" patternUnits="userSpaceOnUse">
    <rect width="6" height="6" fill="rgba(0,0,0,.08)"/>
    <rect x="0" y="0" width="3" height="3" fill="rgba(255,255,255,.022)"/>
    <rect x="3" y="3" width="3" height="3" fill="rgba(255,255,255,.022)"/>
    <line x1="0" y1="0" x2="3" y2="3" stroke="rgba(255,255,255,.038)" stroke-width=".5"/>
    <line x1="3" y1="0" x2="6" y2="3" stroke="rgba(0,0,0,.055)"       stroke-width=".5"/>
    <line x1="0" y1="3" x2="3" y2="6" stroke="rgba(0,0,0,.055)"       stroke-width=".5"/>
    <line x1="3" y1="3" x2="6" y2="6" stroke="rgba(255,255,255,.038)" stroke-width=".5"/>
  </pattern>

  <!-- Specular metal sheen on armour panels -->
  <filter id="metalr1x5930" x="-5%" y="-5%" width="110%" height="110%">
    <feSpecularLighting surfaceScale="4" specularConstant="1.8"
        specularExponent="42" lighting-color="#ffffff" result="spec">
      <feDistantLight elevation="52" azimuth="38"/>
    </feSpecularLighting>
    <feComposite in="spec" in2="SourceGraphic" operator="in" result="sm"/>
    <feComposite in="SourceGraphic" in2="sm" operator="arithmetic" k1="0" k2="1" k3="0.55" k4="0"/>
  </filter>

  <!-- Sharper specular for weapons — heavier glare -->
  <filter id="wmr1x5930" x="-8%" y="-8%" width="116%" height="116%">
    <feSpecularLighting surfaceScale="6" specularConstant="2.4"
        specularExponent="65" lighting-color="#ffffff" result="spec">
      <feDistantLight elevation="44" azimuth="28"/>
    </feSpecularLighting>
    <feComposite in="spec" in2="SourceGraphic" operator="in" result="sm"/>
    <feComposite in="SourceGraphic" in2="sm" operator="arithmetic" k1="0" k2="1" k3="0.78" k4="0"/>
  </filter>

  <!-- Sketch wobble -->
  <filter id="skr1x5930" x="-8%" y="-8%" width="116%" height="116%">
    <feTurbulence type="fractalNoise" baseFrequency="0.038"
        numOctaves="3" seed="86" result="noise"/>
    <feDisplacementMap in="SourceGraphic" in2="noise" scale="2.6"
        xChannelSelector="R" yChannelSelector="G" result="w"/>
    <feComposite in="w" in2="SourceGraphic" operator="atop"/>
  </filter>

  <!-- Glow: sharp accent -->
  <filter id="glowr1x5930" x="-20%" y="-20%" width="140%" height="140%">
    <feGaussianBlur stdDeviation="3.5" result="b"/>
    <feColorMatrix in="b" type="matrix"
        values="0 0 0 0 1  0 0 0 0 1  0 0 0 0 1  0 0 0 1.8 0" result="boost"/>
    <feMerge><feMergeNode in="boost"/><feMergeNode in="SourceGraphic"/></feMerge>
  </filter>

  <!-- Bloom: wide soft -->
  <filter id="bloomr1x5930" x="-40%" y="-40%" width="180%" height="180%">
    <feGaussianBlur stdDeviation="11" result="b"/>
    <feMerge><feMergeNode in="b"/><feMergeNode in="SourceGraphic"/></feMerge>
  </filter>

  </defs><rect width="1000" height="1000" fill="url(#bgr1x5930)"/><ellipse cx="500.0" cy="892.0" rx="350.0" ry="65.0" fill="rgba(0,0,0,.7)" filter="url(#bloomr1x5930)"/><ellipse cx="500.0" cy="889.0" rx="220.0" ry="34.0" fill="rgba(0,0,0,.45)"/><ellipse cx="500.0" cy="520.0" rx="320.0" ry="480.0" fill="#6600ff" fill-opacity=".042" filter="url(#bloomr1x5930)"/><circle cx="504.6" cy="386.0" r="2.5" fill="#6600ff" fill-opacity="0.48" filter="url(#glowr1x5930)"/><circle cx="566.0" cy="283.7" r="2.1" fill="#6600ff" fill-opacity="0.48" filter="url(#glowr1x5930)"/><circle cx="483.5" cy="324.2" r="2.5" fill="#6600ff" fill-opacity="0.68" filter="url(#glowr1x5930)"/><circle cx="337.7" cy="751.6" r="0.8" fill="#6600ff" fill-opacity="0.48" filter="url(#glowr1x5930)"/><circle cx="286.4" cy="455.3" r="2.1" fill="#6600ff" fill-opacity="0.80" filter="url(#glowr1x5930)"/><circle cx="679.4" cy="335.8" r="0.9" fill="#6600ff" fill-opacity="0.75" filter="url(#glowr1x5930)"/><circle cx="709.2" cy="547.5" r="0.5" fill="#6600ff" fill-opacity="0.87" filter="url(#glowr1x5930)"/><circle cx="633.1" cy="309.3" r="2.5" fill="#6600ff" fill-opacity="0.54" filter="url(#glowr1x5930)"/><circle cx="512.4" cy="724.5" r="0.6" fill="#6600ff" fill-opacity="0.67" filter="url(#glowr1x5930)"/><circle cx="367.6" cy="613.2" r="3.8" fill="#6600ff" fill-opacity="0.69" filter="url(#glowr1x5930)"/><circle cx="260.5" cy="677.8" r="4.2" fill="#6600ff" fill-opacity="0.49" filter="url(#glowr1x5930)"/><circle cx="256.2" cy="398.3" r="0.9" fill="#6600ff" fill-opacity="0.72" filter="url(#glowr1x5930)"/><circle cx="419.9" cy="514.5" r="2.7" fill="#6600ff" fill-opacity="0.74" filter="url(#glowr1x5930)"/><circle cx="329.6" cy="327.9" r="3.5" fill="#6600ff" fill-opacity="0.84" filter="url(#glowr1x5930)"/><polygon points="397.2,662.3 487.9,662.1 479.1,878.3 387.5,875.7" fill="url(#suitr1x5930)" stroke="#ccccff" stroke-width="2.2" filter="url(#skr1x5930) url(#metalr1x5930)"/><polygon points="397.8,664.0 488.5,661.2 480.6,877.1 388.9,876.9" fill="url(#carbonr1x5930)"/><polygon points="394.3,723.5 493.7,722.2 485.3,788.9 384.1,789.2" fill="url(#bevelr1x5930)" fill-opacity=".5" stroke="#ccccff" stroke-width="1.4" filter="url(#skr1x5930)"/><polygon points="510.8,662.2 599.5,663.2 612.3,878.1 519.7,878.7" fill="url(#suitr1x5930)" stroke="#ccccff" stroke-width="2.2" filter="url(#skr1x5930) url(#metalr1x5930)"/><polygon points="511.3,662.8 600.2,661.0 612.2,876.9 518.2,876.5" fill="url(#carbonr1x5930)"/><polygon points="508.5,725.4 606.1,725.5 615.3,786.6 516.5,787.3" fill="url(#bevelr1x5930)" fill-opacity=".5" stroke="#ccccff" stroke-width="1.4" filter="url(#skr1x5930)"/><rect x="391.4" y="838.7" width="100.3" height="24.7" fill="url(#bevelr1x5930)" stroke="#ccccff" stroke-width="1" filter="url(#skr1x5930)"/><rect x="505.9"  y="838.9" width="100.3" height="24.7" fill="url(#bevelr1x5930)" stroke="#ccccff" stroke-width="1" filter="url(#skr1x5930)"/><polygon points="369.4,877.4 497.3,876.6 502.1,920.1 363.3,920.2" fill="#242438" stroke="#ccccff" stroke-width="2" filter="url(#skr1x5930)"/><polygon points="503.5,877.4 629.6,879.1 636.8,922.3 496.4,922.3" fill="#242438" stroke="#ccccff" stroke-width="2" filter="url(#skr1x5930)"/><polygon points="302.3,632.1 697.3,631.8 637.7,681.9 362.7,682.6" fill="#ccccff" fill-opacity=".52" stroke="#ccccff" stroke-width="2" filter="url(#skr1x5930)"/><rect x="462.7" y="639.6" width="72.0" height="42.0" fill="url(#bevelr1x5930)" stroke="#ccccff" stroke-width="1.4" filter="url(#glowr1x5930)"/><rect x="486.3" y="639.2" width="28.0" height="22.0" rx="1" fill="rgba(255,255,255,.48)"/><polygon points="151.6,465.5 235.0,465.4 259.5,736.3 127.8,733.4" fill="url(#suitr1x5930)" stroke="#ccccff" stroke-width="2.2" filter="url(#skr1x5930) url(#metalr1x5930)"/><polygon points="173.1,431.9 252.4,433.8 242.3,509.6 159.8,509.3" fill="url(#bevelr1x5930)" fill-opacity=".72" stroke="#ccccff" stroke-width="2.2" filter="url(#skr1x5930)"/><polygon points="161.1,622.7 244.6,621.4 239.7,661.8 166.0,660.0" fill="#ccccff" fill-opacity=".42" stroke="#ccccff" stroke-width="1" filter="url(#skr1x5930)"/><polygon points="765.8,466.6 848.7,467.1 870.4,734.5 743.7,733.3" fill="url(#suitr1x5930)" stroke="#ccccff" stroke-width="2.2" filter="url(#skr1x5930) url(#metalr1x5930)"/><polygon points="747.7,431.0 828.3,431.4 838.8,510.1 756.0,511.4" fill="url(#bevelr1x5930)" fill-opacity=".72" stroke="#ccccff" stroke-width="2.2" filter="url(#skr1x5930)"/><polygon points="755.4,620.2 840.4,620.9 835.0,661.7 761.4,661.6" fill="#ccccff" fill-opacity=".42" stroke="#ccccff" stroke-width="1" filter="url(#skr1x5930)"/><rect x="119.3"  y="698.8" width="135.3" height="85.0" rx="4" fill="url(#bevelr1x5930)" stroke="#ccccff" stroke-width="1.8" filter="url(#skr1x5930)"/><rect x="748.0"   y="700.4" width="135.3" height="85.0" rx="4" fill="url(#bevelr1x5930)" stroke="#ccccff" stroke-width="1.8" filter="url(#skr1x5930)"/><line x1="150.6" y1="700.6" x2="150.0" y2="785.3" stroke="#ccccff" stroke-opacity=".38" stroke-width="1"/><line x1="779.7" y1="703.1" x2="777.5" y2="783.0" stroke="#ccccff" stroke-opacity=".38" stroke-width="1"/><line x1="183.5" y1="700.4" x2="181.3" y2="783.5" stroke="#ccccff" stroke-opacity=".38" stroke-width="1"/><line x1="811.2" y1="701.6" x2="812.0" y2="782.8" stroke="#ccccff" stroke-opacity=".38" stroke-width="1"/><line x1="216.8" y1="702.1" x2="214.5" y2="784.0" stroke="#ccccff" stroke-opacity=".38" stroke-width="1"/><line x1="844.6" y1="701.5" x2="842.9" y2="783.6" stroke="#ccccff" stroke-opacity=".38" stroke-width="1"/><polygon points="235.8,416.6 766.2,419.2 722.3,662.4 276.1,661.0" fill="url(#suitr1x5930)" stroke="#ccccff" stroke-width="2.6" filter="url(#skr1x5930) url(#metalr1x5930)"/><polygon points="234.4,419.0 765.7,416.8 723.8,661.3 277.6,662.6" fill="url(#carbonr1x5930)"/><polygon points="366.8,416.6 631.8,418.2 610.0,515.1 387.0,514.3" fill="url(#suitHir1x5930)"/><line x1="363.4" y1="473.1" x2="637.0" y2="472.0" stroke="#ccccff" stroke-opacity=".52" stroke-width="1.3" filter="url(#skr1x5930)"/><line x1="399.5" y1="550.2" x2="599.4" y2="549.5" stroke="#ccccff" stroke-opacity=".52" stroke-width="1.3" filter="url(#skr1x5930)"/><line x1="268.3" y1="490.0" x2="321.0" y2="490.0" stroke="#ccccff" stroke-opacity=".62" stroke-width="1.8"/><line x1="681.3" y1="491.9" x2="734.0" y2="492.3" stroke="#ccccff" stroke-opacity=".62" stroke-width="1.8"/><line x1="265.0" y1="522.6" x2="320.0" y2="523.5" stroke="#ccccff" stroke-opacity=".62" stroke-width="1.8"/><line x1="680.8" y1="523.5" x2="733.1" y2="523.8" stroke="#ccccff" stroke-opacity=".62" stroke-width="1.8"/><line x1="266.8" y1="556.1" x2="319.5" y2="554.9" stroke="#ccccff" stroke-opacity=".62" stroke-width="1.8"/><line x1="679.4" y1="554.4" x2="733.8" y2="555.1" stroke="#ccccff" stroke-opacity=".62" stroke-width="1.8"/><line x1="268.4" y1="588.1" x2="319.8" y2="584.9" stroke="#ccccff" stroke-opacity=".62" stroke-width="1.8"/><line x1="681.0" y1="585.2" x2="734.9" y2="586.5" stroke="#ccccff" stroke-opacity=".62" stroke-width="1.8"/><g filter="url(#glowr1x5930)"><polygon points="500.2,452.8 540.2,508.9 499.7,568.9 457.2,509.9" fill="#ccccff" stroke="#0a0520" stroke-width="1.4" filter="url(#skr1x5930)"/><polygon points="501.5,451.7 543.0,512.3 500.6,568.6 458.4,509.5" fill="url(#suitHir1x5930)" opacity=".45"/></g><g><polygon points="72.2,689.8 105.3,689.7 39.4,269.9" fill="url(#blader1x5930)" stroke="#ccccff" stroke-width="1.8" filter="url(#wmr1x5930)"/><line x1="97.2" y1="691.4" x2="46.2" y2="271.4" stroke="rgba(255,255,255,.58)" stroke-width="1.3"/><polygon points="117.5,692.5 148.0,691.8 189.6,270.8" fill="url(#blader1x5930)" stroke="#ccccff" stroke-width="1.8" filter="url(#wmr1x5930)"/><line x1="146.2" y1="691.4" x2="184.2" y2="271.4" stroke="rgba(255,255,255,.58)" stroke-width="1.3"/><rect x="68.55494313960892" y="680.6134856606833" width="96.0" height="26.0" rx="2" fill="url(#bevelr1x5930)" stroke="#ccccff" stroke-width="1.4" filter="url(#wmr1x5930)"/></g><rect x="450.7042770515196" y="557.0737626647576" width="100.0"  height="56.0" fill="#242438" stroke="#ccccff" stroke-width="2.2" filter="url(#skr1x5930)"/><rect x="423.74666226059196" y="576.533631056454" width="152.0" height="26.0" fill="url(#bevelr1x5930)" fill-opacity=".65" stroke="#ccccff" stroke-width="1.2" filter="url(#skr1x5930)"/><polygon points="307.4,379.9 349.0,293.3 498.8,277.0 650.9,295.3 692.8,380.9 670.1,505.0 501.3,565.8 331.7,503.1" fill="url(#suitr1x5930)" stroke="#ccccff" stroke-width="2.8" filter="url(#skr1x5930) url(#metalr1x5930)"/><polygon points="309.0,380.0 352.0,296.2 499.3,277.9 649.0,293.5 692.9,382.2 670.8,503.5 501.5,565.8 332.2,503.5" fill="url(#carbonr1x5930)"/><polygon points="379.4,304.3 499.6,288.1 618.1,302.2 607.7,379.4 393.3,379.6" fill="url(#suitHir1x5930)"/><polygon points="379.5,379.4 365.4,424.3 431.5,504.3 500.2,529.7 566.8,503.8 633.4,425.1 620.8,379.3" fill="#0a0520" fill-opacity=".88" stroke="#ccccff" stroke-width="1.8" filter="url(#skr1x5930)"/><polygon points="382.0,412.6 477.7,410.3 486.4,439.1 389.2,439.1" fill="#ccccff" filter="url(#glowr1x5930)"/><polygon points="522.4,411.8 620.7,412.1 612.7,440.1 516.4,438.3" fill="#ccccff" filter="url(#glowr1x5930)"/><ellipse cx="430.9" cy="425.7" rx="38.4"  ry="8.2" fill="#ffffff" opacity=".88"/><ellipse cx="569.1" cy="425.7" rx="38.4"  ry="8.2" fill="#ffffff" opacity=".88"/><line x1="483.3620803095959" y1="412.4811591295525" x2="516.3631215555966" y2="413.6312700306996" stroke="#ccccff" stroke-opacity=".52" stroke-width="2"/><line x1="483.90011522486805" y1="437.14191614845765" x2="514.4855918430164" y2="439.08578232228757" stroke="#ccccff" stroke-opacity=".52" stroke-width="2"/><line x1="501.469141656626" y1="453.8811668757349" x2="501.2952771282755" y2="481.59917051903903" stroke="#ccccff" stroke-opacity=".58" stroke-width="2.2" filter="url(#skr1x5930)"/><line x1="454.20509609075265" y1="492.37343304893" x2="455.4487347275764" y2="521.1583253850229" stroke="#ccccff" stroke-opacity=".52" stroke-width="1.5" filter="url(#skr1x5930)"/><line x1="478.3494433537498" y1="490.7242090173065" x2="476.41995810171585" y2="518.7774912400171" stroke="#ccccff" stroke-opacity=".52" stroke-width="1.5" filter="url(#skr1x5930)"/><line x1="500.77263854118064" y1="491.5829554859548" x2="500.99741692701355" y2="518.5530865068547" stroke="#ccccff" stroke-opacity=".52" stroke-width="1.5" filter="url(#skr1x5930)"/><line x1="523.773600050956" y1="490.51711023198436" x2="523.2016464703344" y2="520.1945912951603" stroke="#ccccff" stroke-opacity=".52" stroke-width="1.5" filter="url(#skr1x5930)"/><line x1="545.3779014168493" y1="490.911774744559" x2="545.0415614403971" y2="519.0626882245764" stroke="#ccccff" stroke-opacity=".52" stroke-width="1.5" filter="url(#skr1x5930)"/><polygon points="432.9,501.9 568.4,505.1 555.0,555.4 446.8,555.8" fill="#242438" fill-opacity=".72" stroke="#ccccff" stroke-width="1.3" filter="url(#skr1x5930)"/><path d="M343.05245808878914 373.8923607605509 Q380.0339764093422 236.0854165136814 501.01026017526164 281.25271476730705" stroke="#ccccff" stroke-width="2.8" fill="none" stroke-opacity=".88" filter="url(#skr1x5930)"/><path d="M655.7241507975012 372.11115442244335 Q618.5151672678627 236.66540156938134 501.06974349021914 281.589598812256" stroke="#ccccff" stroke-width="2.8" fill="none" stroke-opacity=".88" filter="url(#skr1x5930)"/><line x1="420.38305739428847" y1="469.2670692062006" x2="438.8490099818818" y2="504.4603665589355" stroke="#ccccff" stroke-opacity=".52" stroke-width="1.3" filter="url(#skr1x5930)"/><line x1="475.7806348922104" y1="471.28655849378555" x2="497.4367465751618" y2="502.08804562883455" stroke="#ccccff" stroke-opacity=".52" stroke-width="1.3" filter="url(#skr1x5930)"/><line x1="533.5757737670466" y1="472.5122811394744" x2="552.4698954950459" y2="503.8722727931105" stroke="#ccccff" stroke-opacity=".52" stroke-width="1.3" filter="url(#skr1x5930)"/><line x1="590.8956396774761" y1="469.26731584789235" x2="610.925683417581" y2="505.32924797311426" stroke="#ccccff" stroke-opacity=".52" stroke-width="1.3" filter="url(#skr1x5930)"/><text x="30.0"  y="975.0" font-family="monospace" font-weight="bold" font-size="22.0" fill="rgba(255,255,255,.22)">#0001</text><text x="500.0"   y="975.0" text-anchor="middle" font-family="monospace" font-weight="bold" font-size="22.0" fill="#ccccff" fill-opacity=".48">PHANTOM RANGER</text><text x="970.0" y="975.0" text-anchor="end"    font-family="monospace" font-weight="bold" font-size="22.0" fill="#ccccff" fill-opacity=".32">MECH RANGERS</text></svg>