<svg xmlns="http://www.w3.org/2000/svg" viewBox="0 0 1000 1000" width="1000" height="1000" shape-rendering="geometricPrecision"><defs>

  <!-- Scene gradients -->
  <radialGradient id="bgr1x5964" cx="50%" cy="42%" r="72%">
    <stop offset="0%"   stop-color="#1e0a2e"/>
    <stop offset="100%" stop-color="#0a0520"/>
  </radialGradient>
  <linearGradient id="suitr1x5964" x1="8%" y1="0%" x2="92%" y2="100%">
    <stop offset="0%"   stop-color="#2060ff" stop-opacity=".95"/>
    <stop offset="45%"  stop-color="#003ccc"/>
    <stop offset="100%" stop-color="#0a0520"/>
  </linearGradient>
  <linearGradient id="suitHir1x5964" x1="0%" y1="0%" x2="0%" y2="100%">
    <stop offset="0%"   stop-color="rgba(255,255,255,.28)"/>
    <stop offset="60%"  stop-color="rgba(255,255,255,.04)"/>
    <stop offset="100%" stop-color="rgba(255,255,255,0)"/>
  </linearGradient>
  <!-- Bevel: bright top, dark bottom for armour panels -->
  <linearGradient id="bevelr1x5964" x1="0%" y1="0%" x2="0%" y2="100%">
    <stop offset="0%"   stop-color="rgba(255,255,255,.55)"/>
    <stop offset="30%"  stop-color="#2060ff"/>
    <stop offset="70%"  stop-color="#003ccc"/>
    <stop offset="100%" stop-color="rgba(0,0,0,.5)"/>
  </linearGradient>

  <!-- Weapon: cold steel blade sweep -->
  <linearGradient id="blader1x5964" x1="0%" y1="0%" x2="100%" y2="0%">
    <stop offset="0%"   stop-color="#0e0e20"/>
    <stop offset="16%"  stop-color="#3e3e58"/>
    <stop offset="34%"  stop-color="#c8c8e0"/>
    <stop offset="50%"  stop-color="#f5f5ff"/>
    <stop offset="66%"  stop-color="#b8b8d0"/>
    <stop offset="84%"  stop-color="#2e2e48"/>
    <stop offset="100%" stop-color="#08080e"/>
  </linearGradient>
  <!-- Blade tip brightening -->
  <linearGradient id="bladeTipr1x5964" x1="0%" y1="100%" x2="0%" y2="0%">
    <stop offset="0%"   stop-color="rgba(255,255,255,0)"/>
    <stop offset="55%"  stop-color="rgba(255,255,255,.1)"/>
    <stop offset="100%" stop-color="rgba(255,255,255,.55)"/>
  </linearGradient>
  <!-- Gunmetal anodised — blaster body -->
  <linearGradient id="gunmetalr1x5964" x1="0%" y1="0%" x2="0%" y2="100%">
    <stop offset="0%"   stop-color="#46465e"/>
    <stop offset="18%"  stop-color="#828296"/>
    <stop offset="42%"  stop-color="#26263a"/>
    <stop offset="72%"  stop-color="#16162a"/>
    <stop offset="100%" stop-color="#0c0c18"/>
  </linearGradient>
  <!-- Brushed steel tube — barrel/rod -->
  <linearGradient id="barrelr1x5964" x1="0%" y1="0%" x2="100%" y2="0%">
    <stop offset="0%"   stop-color="#0a0a14"/>
    <stop offset="24%"  stop-color="#585875"/>
    <stop offset="50%"  stop-color="#a8a8c8"/>
    <stop offset="76%"  stop-color="#383852"/>
    <stop offset="100%" stop-color="#0a0a14"/>
  </linearGradient>
  <!-- Chrome rod — lance shaft -->
  <linearGradient id="chromer1x5964" x1="0%" y1="0%" x2="100%" y2="0%">
    <stop offset="0%"   stop-color="#0c0c18"/>
    <stop offset="20%"  stop-color="#686888"/>
    <stop offset="44%"  stop-color="#e0e0f0"/>
    <stop offset="56%"  stop-color="#c0c0d8"/>
    <stop offset="80%"  stop-color="#28283e"/>
    <stop offset="100%" stop-color="#0c0c18"/>
  </linearGradient>
  <!-- Titanium plate — shield face -->
  <linearGradient id="titaniumr1x5964" x1="0%" y1="0%" x2="100%" y2="100%">
    <stop offset="0%"   stop-color="#585878"/>
    <stop offset="28%"  stop-color="#2060ff" stop-opacity=".88"/>
    <stop offset="55%"  stop-color="#003ccc"/>
    <stop offset="80%"  stop-color="#181828"/>
    <stop offset="100%" stop-color="#0a0a18"/>
  </linearGradient>
  <!-- Artillery black-chrome — cannon body -->
  <linearGradient id="artilleryr1x5964" x1="0%" y1="0%" x2="0%" y2="100%">
    <stop offset="0%"   stop-color="#383850"/>
    <stop offset="14%"  stop-color="#78789a"/>
    <stop offset="36%"  stop-color="#202034"/>
    <stop offset="65%"  stop-color="#14141e"/>
    <stop offset="100%" stop-color="#0a0a12"/>
  </linearGradient>
  <!-- Energy orb — staff -->
  <radialGradient id="orbr1x5964" cx="35%" cy="35%" r="65%">
    <stop offset="0%"   stop-color="rgba(255,255,255,.9)"/>
    <stop offset="30%"  stop-color="#2060ff"/>
    <stop offset="68%"  stop-color="#003ccc"/>
    <stop offset="100%" stop-color="rgba(0,0,0,.6)"/>
  </radialGradient>
  <!-- Knuckle plate chrome -->
  <linearGradient id="knuckler1x5964" x1="0%" y1="0%" x2="0%" y2="100%">
    <stop offset="0%"   stop-color="#888aaa"/>
    <stop offset="32%"  stop-color="#2060ff" stop-opacity=".8"/>
    <stop offset="62%"  stop-color="#1a1a2c"/>
    <stop offset="100%" stop-color="#0a0a14"/>
  </linearGradient>

  <!-- Carbon fibre weave texture overlay -->
  <pattern id="carbonr1x5964" width="6" height="6" patternUnits="userSpaceOnUse">
    <rect width="6" height="6" fill="rgba(0,0,0,.08)"/>
    <rect x="0" y="0" width="3" height="3" fill="rgba(255,255,255,.022)"/>
    <rect x="3" y="3" width="3" height="3" fill="rgba(255,255,255,.022)"/>
    <line x1="0" y1="0" x2="3" y2="3" stroke="rgba(255,255,255,.038)" stroke-width=".5"/>
    <line x1="3" y1="0" x2="6" y2="3" stroke="rgba(0,0,0,.055)"       stroke-width=".5"/>
    <line x1="0" y1="3" x2="3" y2="6" stroke="rgba(0,0,0,.055)"       stroke-width=".5"/>
    <line x1="3" y1="3" x2="6" y2="6" stroke="rgba(255,255,255,.038)" stroke-width=".5"/>
  </pattern>

  <!-- Specular metal sheen on armour panels -->
  <filter id="metalr1x5964" x="-5%" y="-5%" width="110%" height="110%">
    <feSpecularLighting surfaceScale="4" specularConstant="1.8"
        specularExponent="42" lighting-color="#ffffff" result="spec">
      <feDistantLight elevation="52" azimuth="38"/>
    </feSpecularLighting>
    <feComposite in="spec" in2="SourceGraphic" operator="in" result="sm"/>
    <feComposite in="SourceGraphic" in2="sm" operator="arithmetic" k1="0" k2="1" k3="0.55" k4="0"/>
  </filter>

  <!-- Sharper specular for weapons — heavier glare -->
  <filter id="wmr1x5964" x="-8%" y="-8%" width="116%" height="116%">
    <feSpecularLighting surfaceScale="6" specularConstant="2.4"
        specularExponent="65" lighting-color="#ffffff" result="spec">
      <feDistantLight elevation="44" azimuth="28"/>
    </feSpecularLighting>
    <feComposite in="spec" in2="SourceGraphic" operator="in" result="sm"/>
    <feComposite in="SourceGraphic" in2="sm" operator="arithmetic" k1="0" k2="1" k3="0.78" k4="0"/>
  </filter>

  <!-- Sketch wobble -->
  <filter id="skr1x5964" x="-8%" y="-8%" width="116%" height="116%">
    <feTurbulence type="fractalNoise" baseFrequency="0.038"
        numOctaves="3" seed="81" result="noise"/>
    <feDisplacementMap in="SourceGraphic" in2="noise" scale="2.6"
        xChannelSelector="R" yChannelSelector="G" result="w"/>
    <feComposite in="w" in2="SourceGraphic" operator="atop"/>
  </filter>

  <!-- Glow: sharp accent -->
  <filter id="glowr1x5964" x="-20%" y="-20%" width="140%" height="140%">
    <feGaussianBlur stdDeviation="3.5" result="b"/>
    <feColorMatrix in="b" type="matrix"
        values="0 0 0 0 1  0 0 0 0 1  0 0 0 0 1  0 0 0 1.8 0" result="boost"/>
    <feMerge><feMergeNode in="boost"/><feMergeNode in="SourceGraphic"/></feMerge>
  </filter>

  <!-- Bloom: wide soft -->
  <filter id="bloomr1x5964" x="-40%" y="-40%" width="180%" height="180%">
    <feGaussianBlur stdDeviation="11" result="b"/>
    <feMerge><feMergeNode in="b"/><feMergeNode in="SourceGraphic"/></feMerge>
  </filter>

  </defs><rect width="1000" height="1000" fill="url(#bgr1x5964)"/><ellipse cx="500.0" cy="892.0" rx="350.0" ry="65.0" fill="rgba(0,0,0,.7)" filter="url(#bloomr1x5964)"/><ellipse cx="500.0" cy="889.0" rx="220.0" ry="34.0" fill="rgba(0,0,0,.45)"/><ellipse cx="500.0" cy="520.0" rx="320.0" ry="480.0" fill="#00e5ff" fill-opacity=".042" filter="url(#bloomr1x5964)"/><circle cx="279.3" cy="240.9" r="3.4" fill="#00e5ff" fill-opacity="0.54" filter="url(#glowr1x5964)"/><circle cx="306.0" cy="647.4" r="4.2" fill="#00e5ff" fill-opacity="0.86" filter="url(#glowr1x5964)"/><circle cx="314.1" cy="273.1" r="4.1" fill="#00e5ff" fill-opacity="0.46" filter="url(#glowr1x5964)"/><circle cx="259.0" cy="495.8" r="0.5" fill="#00e5ff" fill-opacity="0.84" filter="url(#glowr1x5964)"/><circle cx="471.6" cy="360.9" r="3.2" fill="#00e5ff" fill-opacity="0.84" filter="url(#glowr1x5964)"/><circle cx="576.1" cy="557.8" r="0.9" fill="#00e5ff" fill-opacity="0.46" filter="url(#glowr1x5964)"/><circle cx="389.7" cy="447.4" r="2.0" fill="#00e5ff" fill-opacity="0.75" filter="url(#glowr1x5964)"/><circle cx="572.1" cy="319.0" r="2.2" fill="#00e5ff" fill-opacity="0.69" filter="url(#glowr1x5964)"/><circle cx="607.4" cy="370.3" r="1.8" fill="#00e5ff" fill-opacity="0.47" filter="url(#glowr1x5964)"/><circle cx="415.9" cy="441.8" r="0.7" fill="#00e5ff" fill-opacity="0.55" filter="url(#glowr1x5964)"/><circle cx="481.0" cy="264.6" r="2.0" fill="#00e5ff" fill-opacity="0.55" filter="url(#glowr1x5964)"/><circle cx="288.7" cy="604.9" r="4.3" fill="#00e5ff" fill-opacity="0.74" filter="url(#glowr1x5964)"/><circle cx="699.6" cy="348.8" r="2.2" fill="#00e5ff" fill-opacity="0.78" filter="url(#glowr1x5964)"/><circle cx="280.8" cy="605.8" r="0.6" fill="#00e5ff" fill-opacity="0.54" filter="url(#glowr1x5964)"/><path d="M432.5,286.3 Q466.1,446.1 667.0,620.7" stroke="#00e5ff" stroke-opacity="0.41" stroke-width="1.0" fill="none" filter="url(#glowr1x5964)"/><path d="M682.9,171.0 Q682.0,504.8 607.8,808.8" stroke="#00e5ff" stroke-opacity="0.64" stroke-width="1.1" fill="none" filter="url(#glowr1x5964)"/><path d="M500.6,215.5 Q457.4,497.0 585.4,728.0" stroke="#00e5ff" stroke-opacity="0.58" stroke-width="2.7" fill="none" filter="url(#glowr1x5964)"/><path d="M669.6,172.7 Q674.7,495.6 365.1,769.6" stroke="#00e5ff" stroke-opacity="0.44" stroke-width="2.0" fill="none" filter="url(#glowr1x5964)"/><path d="M469.9,255.8 Q470.4,557.6 596.2,805.6" stroke="#00e5ff" stroke-opacity="0.56" stroke-width="2.6" fill="none" filter="url(#glowr1x5964)"/><polygon points="399.5,662.3 487.8,664.1 481.0,876.8 386.4,876.2" fill="url(#suitr1x5964)" stroke="#2060ff" stroke-width="2.2" filter="url(#skr1x5964) url(#metalr1x5964)"/><polygon points="400.4,663.7 487.8,663.1 482.0,877.3 386.8,876.5" fill="url(#carbonr1x5964)"/><polygon points="393.0,725.5 494.6,725.1 485.0,788.4 382.9,788.4" fill="url(#bevelr1x5964)" fill-opacity=".5" stroke="#2060ff" stroke-width="1.4" filter="url(#skr1x5964)"/><polygon points="511.8,661.4 600.0,663.8 613.5,877.7 521.0,878.8" fill="url(#suitr1x5964)" stroke="#2060ff" stroke-width="2.2" filter="url(#skr1x5964) url(#metalr1x5964)"/><polygon points="509.0,663.7 600.0,662.2 613.9,879.1 517.9,877.7" fill="url(#carbonr1x5964)"/><polygon points="505.8,722.4 606.6,725.1 615.2,786.9 514.3,787.9" fill="url(#bevelr1x5964)" fill-opacity=".5" stroke="#2060ff" stroke-width="1.4" filter="url(#skr1x5964)"/><rect x="393.0" y="839.3" width="100.3" height="24.7" fill="url(#bevelr1x5964)" stroke="#2060ff" stroke-width="1" filter="url(#skr1x5964)"/><rect x="506.5"  y="840.4" width="100.3" height="24.7" fill="url(#bevelr1x5964)" stroke="#2060ff" stroke-width="1" filter="url(#skr1x5964)"/><polygon points="371.2,878.8 496.8,876.2 501.8,920.4 364.1,922.9" fill="#003ccc" stroke="#2060ff" stroke-width="2" filter="url(#skr1x5964)"/><polygon points="505.0,878.1 631.0,878.7 635.6,922.3 496.2,919.9" fill="#003ccc" stroke="#2060ff" stroke-width="2" filter="url(#skr1x5964)"/><polygon points="303.1,633.3 694.7,634.6 636.2,683.1 360.5,681.9" fill="#2060ff" fill-opacity=".52" stroke="#2060ff" stroke-width="2" filter="url(#skr1x5964)"/><rect x="465.3" y="636.8" width="72.0" height="42.0" fill="url(#bevelr1x5964)" stroke="#2060ff" stroke-width="1.4" filter="url(#glowr1x5964)"/><rect x="485.0" y="641.9" width="28.0" height="22.0" rx="1" fill="rgba(255,255,255,.48)"/><polygon points="152.8,465.3 234.2,466.8 256.3,736.6 126.9,735.5" fill="url(#suitr1x5964)" stroke="#2060ff" stroke-width="2.2" filter="url(#skr1x5964) url(#metalr1x5964)"/><polygon points="173.0,430.7 252.6,430.6 242.5,509.2 158.8,509.8" fill="url(#bevelr1x5964)" fill-opacity=".72" stroke="#2060ff" stroke-width="2.2" filter="url(#skr1x5964)"/><polygon points="162.2,621.5 244.7,622.4 239.2,660.9 164.0,659.2" fill="#2060ff" fill-opacity=".42" stroke="#2060ff" stroke-width="1" filter="url(#skr1x5964)"/><polygon points="764.3,467.0 845.9,467.6 871.0,733.9 740.9,734.2" fill="url(#suitr1x5964)" stroke="#2060ff" stroke-width="2.2" filter="url(#skr1x5964) url(#metalr1x5964)"/><polygon points="746.3,433.5 827.6,433.3 841.5,511.2 758.1,510.0" fill="url(#bevelr1x5964)" fill-opacity=".72" stroke="#2060ff" stroke-width="2.2" filter="url(#skr1x5964)"/><polygon points="757.3,620.2 840.5,621.9 833.7,659.7 759.4,659.7" fill="#2060ff" fill-opacity=".42" stroke="#2060ff" stroke-width="1" filter="url(#skr1x5964)"/><rect x="121.9"  y="698.8" width="135.3" height="85.0" rx="4" fill="url(#bevelr1x5964)" stroke="#2060ff" stroke-width="1.8" filter="url(#skr1x5964)"/><rect x="749.4"   y="701.2" width="135.3" height="85.0" rx="4" fill="url(#bevelr1x5964)" stroke="#2060ff" stroke-width="1.8" filter="url(#skr1x5964)"/><line x1="148.5" y1="703.4" x2="148.5" y2="783.1" stroke="#2060ff" stroke-opacity=".38" stroke-width="1"/><line x1="779.8" y1="703.0" x2="777.6" y2="782.4" stroke="#2060ff" stroke-opacity=".38" stroke-width="1"/><line x1="183.1" y1="701.2" x2="183.0" y2="782.2" stroke="#2060ff" stroke-opacity=".38" stroke-width="1"/><line x1="810.2" y1="701.2" x2="809.4" y2="783.7" stroke="#2060ff" stroke-opacity=".38" stroke-width="1"/><line x1="216.2" y1="700.2" x2="216.9" y2="784.3" stroke="#2060ff" stroke-opacity=".38" stroke-width="1"/><line x1="843.9" y1="701.4" x2="843.8" y2="783.9" stroke="#2060ff" stroke-opacity=".38" stroke-width="1"/><polygon points="236.2,418.7 763.3,418.4 721.4,661.7 277.2,662.9" fill="url(#suitr1x5964)" stroke="#2060ff" stroke-width="2.6" filter="url(#skr1x5964) url(#metalr1x5964)"/><polygon points="233.4,418.0 765.3,418.8 724.3,663.8 277.9,664.3" fill="url(#carbonr1x5964)"/><polygon points="368.6,419.0 631.8,419.2 611.6,514.8 387.1,516.2" fill="url(#suitHir1x5964)"/><line x1="361.1" y1="472.2" x2="636.3" y2="471.6" stroke="#2060ff" stroke-opacity=".52" stroke-width="1.3" filter="url(#skr1x5964)"/><line x1="400.1" y1="551.3" x2="600.1" y2="550.0" stroke="#2060ff" stroke-opacity=".52" stroke-width="1.3" filter="url(#skr1x5964)"/><line x1="268.5" y1="489.3" x2="320.8" y2="490.4" stroke="#2060ff" stroke-opacity=".62" stroke-width="1.8"/><line x1="680.4" y1="492.4" x2="732.4" y2="492.7" stroke="#2060ff" stroke-opacity=".62" stroke-width="1.8"/><line x1="265.7" y1="523.6" x2="320.3" y2="522.5" stroke="#2060ff" stroke-opacity=".62" stroke-width="1.8"/><line x1="678.6" y1="523.2" x2="731.9" y2="524.2" stroke="#2060ff" stroke-opacity=".62" stroke-width="1.8"/><line x1="267.0" y1="556.3" x2="320.0" y2="556.0" stroke="#2060ff" stroke-opacity=".62" stroke-width="1.8"/><line x1="680.7" y1="555.6" x2="732.2" y2="553.8" stroke="#2060ff" stroke-opacity=".62" stroke-width="1.8"/><line x1="266.7" y1="588.2" x2="320.6" y2="587.1" stroke="#2060ff" stroke-opacity=".62" stroke-width="1.8"/><line x1="681.7" y1="585.2" x2="733.6" y2="587.8" stroke="#2060ff" stroke-opacity=".62" stroke-width="1.8"/><g filter="url(#glowr1x5964)"><path d="M500.0,449.7 C462.3,446.8 442.0,481.6 447.8,513.5 L459.4,542.5 C476.8,536.7 491.3,551.2 500.0,551.2 C508.7,551.2 523.2,536.7 540.6,542.5 L552.2,513.5 C558.0,481.6 537.7,446.8 500.0,449.7 Z" fill="#2060ff" fill-opacity=".92" stroke="#0a0520" stroke-width="1.3" filter="url(#skr1x5964)"/><path d="M483.8,519.3 Q500.0,533.8 516.2,519.3" stroke="#0a0520" stroke-width="1" fill="none" opacity=".58"/><ellipse cx="481.4" cy="497.8" rx="8.7" ry="6.4" fill="#0a0520" opacity=".95"/><ellipse cx="518.6" cy="497.8" rx="8.7" ry="6.4" fill="#0a0520" opacity=".95"/><ellipse cx="481.4" cy="497.8" rx="2.3" ry="5.8" fill="#2060ff"/><ellipse cx="518.6" cy="497.8" rx="2.3" ry="5.8" fill="#2060ff"/><path d="M471.0,467.1 L458.2,426.5 L481.4,463.0" fill="#2060ff" stroke="#0a0520" stroke-width=".9"/><path d="M529.0,467.1 L541.8,426.5 L518.6,463.0" fill="#2060ff" stroke="#0a0520" stroke-width=".9"/><path d="M476.8,452.6 C488.4,449.1 511.6,449.1 523.2,452.6" fill="rgba(255,255,255,.18)"/></g><g><line x1="897.0275680809841" y1="830.5877174666151" x2="897.8205006690324" y2="109.93480071704832" stroke="url(#chromer1x5964)" stroke-width="22.0" stroke-linecap="round" filter="url(#wmr1x5964)"/><line x1="900.9982111633383" y1="811.2962397132069" x2="903.1923437234574" y2="129.9659595167264" stroke="rgba(255,255,255,.35)" stroke-width="4.0" stroke-linecap="round"/><rect x="882.7927570882813" y="619.8476924060843" width="32.0" height="18.0" fill="url(#bevelr1x5964)" stroke="#2060ff" stroke-width=".8" filter="url(#wmr1x5964)"/><rect x="883.3085576190241" y="440.3770176203921" width="32.0" height="18.0" fill="url(#bevelr1x5964)" stroke="#2060ff" stroke-width=".8" filter="url(#wmr1x5964)"/><rect x="881.0630388510041" y="262.50385449426244" width="32.0" height="18.0" fill="url(#bevelr1x5964)" stroke="#2060ff" stroke-width=".8" filter="url(#wmr1x5964)"/><circle cx="899.125928006284" cy="112.93811161546034" r="58.0" fill="rgba(0,0,0,.52)" stroke="#2060ff" stroke-width="2.2" filter="url(#wmr1x5964)"/><circle cx="898.0820378752984" cy="112.68991502951829" r="46.0" fill="url(#orbr1x5964)" filter="url(#bloomr1x5964)"/><circle cx="897.2769617544114" cy="111.8661258915439" r="20.0" fill="#00e5ff" filter="url(#glowr1x5964)"/><circle cx="897.7273851285316" cy="111.7367632483132" r="66.0" fill="none" stroke="#2060ff" stroke-opacity=".4" stroke-width="1.3" stroke-dasharray="4,4"/><ellipse cx="897.4264901687019" cy="109.97329947641117" rx="66.0" ry="30.0" fill="none" stroke="#2060ff" stroke-opacity=".24" stroke-width="1" stroke-dasharray="3,5" transform="rotate(60,897.8,111.4)"/></g><rect x="451.5162825219333" y="557.374709657766" width="100.0"  height="56.0" fill="#003ccc" stroke="#2060ff" stroke-width="2.2" filter="url(#skr1x5964)"/><rect x="425.560858414229" y="576.6647021612152" width="152.0" height="26.0" fill="url(#bevelr1x5964)" fill-opacity=".65" stroke="#2060ff" stroke-width="1.2" filter="url(#skr1x5964)"/><polygon points="307.8,380.7 348.9,293.8 499.8,278.4 651.5,296.1 691.2,379.3 668.7,503.3 498.6,566.7 332.7,504.2" fill="url(#suitr1x5964)" stroke="#2060ff" stroke-width="2.8" filter="url(#skr1x5964) url(#metalr1x5964)"/><polygon points="306.7,379.3 351.3,294.6 498.6,277.7 649.4,293.8 690.8,381.3 669.2,502.2 500.0,566.6 331.6,503.5" fill="url(#carbonr1x5964)"/><polygon points="379.6,300.9 499.7,285.4 620.2,301.6 608.1,382.2 391.9,380.1" fill="url(#suitHir1x5964)"/><polygon points="381.1,380.6 365.4,426.3 431.0,503.5 501.1,529.0 567.2,503.4 633.6,426.8 620.0,380.3" fill="#0a0520" fill-opacity=".88" stroke="#2060ff" stroke-width="1.8" filter="url(#skr1x5964)"/><polygon points="379.8,409.8 477.3,409.6 484.9,441.4 387.7,438.7" fill="#2060ff" filter="url(#glowr1x5964)"/><polygon points="523.1,409.8 618.8,410.8 609.9,441.0 514.5,441.8" fill="#2060ff" filter="url(#glowr1x5964)"/><ellipse cx="430.9" cy="425.7" rx="38.4"  ry="8.2" fill="#ffffff" opacity=".88"/><ellipse cx="569.1" cy="425.7" rx="38.4"  ry="8.2" fill="#ffffff" opacity=".88"/><line x1="484.3767137704976" y1="412.3024165590293" x2="513.6362977840379" y2="414.8002304683439" stroke="#2060ff" stroke-opacity=".52" stroke-width="2"/><line x1="484.5174164405651" y1="436.8671306418255" x2="514.2091094879806" y2="437.26093079326677" stroke="#2060ff" stroke-opacity=".52" stroke-width="2"/><line x1="500.2086294842884" y1="452.6620869503356" x2="501.03753595184537" y2="481.39467455018314" stroke="#2060ff" stroke-opacity=".58" stroke-width="2.2" filter="url(#skr1x5964)"/><line x1="453.07220971563834" y1="490.182365905866" x2="454.77472139324993" y2="519.0279665435664" stroke="#2060ff" stroke-opacity=".52" stroke-width="1.5" filter="url(#skr1x5964)"/><line x1="478.2609662008844" y1="490.63805494159453" x2="476.4198594584502" y2="520.458908957243" stroke="#2060ff" stroke-opacity=".52" stroke-width="1.5" filter="url(#skr1x5964)"/><line x1="499.24404875682666" y1="491.42635910725215" x2="498.8544677168131" y2="519.4708713061176" stroke="#2060ff" stroke-opacity=".52" stroke-width="1.5" filter="url(#skr1x5964)"/><line x1="524.4976187483966" y1="491.21323039084666" x2="522.8020270929298" y2="520.4596607628279" stroke="#2060ff" stroke-opacity=".52" stroke-width="1.5" filter="url(#skr1x5964)"/><line x1="545.0561241296307" y1="491.05149202970784" x2="544.602008190211" y2="520.4323137979023" stroke="#2060ff" stroke-opacity=".52" stroke-width="1.5" filter="url(#skr1x5964)"/><polygon points="433.4,504.5 565.5,501.9 555.5,558.7 445.6,557.6" fill="#003ccc" fill-opacity=".72" stroke="#2060ff" stroke-width="1.3" filter="url(#skr1x5964)"/><text x="30.0"  y="975.0" font-family="monospace" font-weight="bold" font-size="22.0" fill="rgba(255,255,255,.22)">#0001</text><text x="500.0"   y="975.0" text-anchor="middle" font-family="monospace" font-weight="bold" font-size="22.0" fill="#2060ff" fill-opacity=".48">COBALT RANGER</text><text x="970.0" y="975.0" text-anchor="end"    font-family="monospace" font-weight="bold" font-size="22.0" fill="#2060ff" fill-opacity=".32">MECH RANGERS</text></svg>