<svg xmlns="http://www.w3.org/2000/svg" viewBox="0 0 1000 1000" width="1000" height="1000" shape-rendering="geometricPrecision"><defs>

  <!-- Scene gradients -->
  <radialGradient id="bgr1x5967" cx="50%" cy="42%" r="72%">
    <stop offset="0%"   stop-color="#1e0a2e"/>
    <stop offset="100%" stop-color="#0a0520"/>
  </radialGradient>
  <linearGradient id="suitr1x5967" x1="8%" y1="0%" x2="92%" y2="100%">
    <stop offset="0%"   stop-color="#ff44aa" stop-opacity=".95"/>
    <stop offset="45%"  stop-color="#880050"/>
    <stop offset="100%" stop-color="#0a0520"/>
  </linearGradient>
  <linearGradient id="suitHir1x5967" x1="0%" y1="0%" x2="0%" y2="100%">
    <stop offset="0%"   stop-color="rgba(255,255,255,.28)"/>
    <stop offset="60%"  stop-color="rgba(255,255,255,.04)"/>
    <stop offset="100%" stop-color="rgba(255,255,255,0)"/>
  </linearGradient>
  <!-- Bevel: bright top, dark bottom for armour panels -->
  <linearGradient id="bevelr1x5967" x1="0%" y1="0%" x2="0%" y2="100%">
    <stop offset="0%"   stop-color="rgba(255,255,255,.55)"/>
    <stop offset="30%"  stop-color="#ff44aa"/>
    <stop offset="70%"  stop-color="#880050"/>
    <stop offset="100%" stop-color="rgba(0,0,0,.5)"/>
  </linearGradient>

  <!-- Weapon: cold steel blade sweep -->
  <linearGradient id="blader1x5967" x1="0%" y1="0%" x2="100%" y2="0%">
    <stop offset="0%"   stop-color="#0e0e20"/>
    <stop offset="16%"  stop-color="#3e3e58"/>
    <stop offset="34%"  stop-color="#c8c8e0"/>
    <stop offset="50%"  stop-color="#f5f5ff"/>
    <stop offset="66%"  stop-color="#b8b8d0"/>
    <stop offset="84%"  stop-color="#2e2e48"/>
    <stop offset="100%" stop-color="#08080e"/>
  </linearGradient>
  <!-- Blade tip brightening -->
  <linearGradient id="bladeTipr1x5967" x1="0%" y1="100%" x2="0%" y2="0%">
    <stop offset="0%"   stop-color="rgba(255,255,255,0)"/>
    <stop offset="55%"  stop-color="rgba(255,255,255,.1)"/>
    <stop offset="100%" stop-color="rgba(255,255,255,.55)"/>
  </linearGradient>
  <!-- Gunmetal anodised — blaster body -->
  <linearGradient id="gunmetalr1x5967" x1="0%" y1="0%" x2="0%" y2="100%">
    <stop offset="0%"   stop-color="#46465e"/>
    <stop offset="18%"  stop-color="#828296"/>
    <stop offset="42%"  stop-color="#26263a"/>
    <stop offset="72%"  stop-color="#16162a"/>
    <stop offset="100%" stop-color="#0c0c18"/>
  </linearGradient>
  <!-- Brushed steel tube — barrel/rod -->
  <linearGradient id="barrelr1x5967" x1="0%" y1="0%" x2="100%" y2="0%">
    <stop offset="0%"   stop-color="#0a0a14"/>
    <stop offset="24%"  stop-color="#585875"/>
    <stop offset="50%"  stop-color="#a8a8c8"/>
    <stop offset="76%"  stop-color="#383852"/>
    <stop offset="100%" stop-color="#0a0a14"/>
  </linearGradient>
  <!-- Chrome rod — lance shaft -->
  <linearGradient id="chromer1x5967" x1="0%" y1="0%" x2="100%" y2="0%">
    <stop offset="0%"   stop-color="#0c0c18"/>
    <stop offset="20%"  stop-color="#686888"/>
    <stop offset="44%"  stop-color="#e0e0f0"/>
    <stop offset="56%"  stop-color="#c0c0d8"/>
    <stop offset="80%"  stop-color="#28283e"/>
    <stop offset="100%" stop-color="#0c0c18"/>
  </linearGradient>
  <!-- Titanium plate — shield face -->
  <linearGradient id="titaniumr1x5967" x1="0%" y1="0%" x2="100%" y2="100%">
    <stop offset="0%"   stop-color="#585878"/>
    <stop offset="28%"  stop-color="#ff44aa" stop-opacity=".88"/>
    <stop offset="55%"  stop-color="#880050"/>
    <stop offset="80%"  stop-color="#181828"/>
    <stop offset="100%" stop-color="#0a0a18"/>
  </linearGradient>
  <!-- Artillery black-chrome — cannon body -->
  <linearGradient id="artilleryr1x5967" x1="0%" y1="0%" x2="0%" y2="100%">
    <stop offset="0%"   stop-color="#383850"/>
    <stop offset="14%"  stop-color="#78789a"/>
    <stop offset="36%"  stop-color="#202034"/>
    <stop offset="65%"  stop-color="#14141e"/>
    <stop offset="100%" stop-color="#0a0a12"/>
  </linearGradient>
  <!-- Energy orb — staff -->
  <radialGradient id="orbr1x5967" cx="35%" cy="35%" r="65%">
    <stop offset="0%"   stop-color="rgba(255,255,255,.9)"/>
    <stop offset="30%"  stop-color="#ff44aa"/>
    <stop offset="68%"  stop-color="#880050"/>
    <stop offset="100%" stop-color="rgba(0,0,0,.6)"/>
  </radialGradient>
  <!-- Knuckle plate chrome -->
  <linearGradient id="knuckler1x5967" x1="0%" y1="0%" x2="0%" y2="100%">
    <stop offset="0%"   stop-color="#888aaa"/>
    <stop offset="32%"  stop-color="#ff44aa" stop-opacity=".8"/>
    <stop offset="62%"  stop-color="#1a1a2c"/>
    <stop offset="100%" stop-color="#0a0a14"/>
  </linearGradient>

  <!-- Carbon fibre weave texture overlay -->
  <pattern id="carbonr1x5967" width="6" height="6" patternUnits="userSpaceOnUse">
    <rect width="6" height="6" fill="rgba(0,0,0,.08)"/>
    <rect x="0" y="0" width="3" height="3" fill="rgba(255,255,255,.022)"/>
    <rect x="3" y="3" width="3" height="3" fill="rgba(255,255,255,.022)"/>
    <line x1="0" y1="0" x2="3" y2="3" stroke="rgba(255,255,255,.038)" stroke-width=".5"/>
    <line x1="3" y1="0" x2="6" y2="3" stroke="rgba(0,0,0,.055)"       stroke-width=".5"/>
    <line x1="0" y1="3" x2="3" y2="6" stroke="rgba(0,0,0,.055)"       stroke-width=".5"/>
    <line x1="3" y1="3" x2="6" y2="6" stroke="rgba(255,255,255,.038)" stroke-width=".5"/>
  </pattern>

  <!-- Specular metal sheen on armour panels -->
  <filter id="metalr1x5967" x="-5%" y="-5%" width="110%" height="110%">
    <feSpecularLighting surfaceScale="4" specularConstant="1.8"
        specularExponent="42" lighting-color="#ffffff" result="spec">
      <feDistantLight elevation="52" azimuth="38"/>
    </feSpecularLighting>
    <feComposite in="spec" in2="SourceGraphic" operator="in" result="sm"/>
    <feComposite in="SourceGraphic" in2="sm" operator="arithmetic" k1="0" k2="1" k3="0.55" k4="0"/>
  </filter>

  <!-- Sharper specular for weapons — heavier glare -->
  <filter id="wmr1x5967" x="-8%" y="-8%" width="116%" height="116%">
    <feSpecularLighting surfaceScale="6" specularConstant="2.4"
        specularExponent="65" lighting-color="#ffffff" result="spec">
      <feDistantLight elevation="44" azimuth="28"/>
    </feSpecularLighting>
    <feComposite in="spec" in2="SourceGraphic" operator="in" result="sm"/>
    <feComposite in="SourceGraphic" in2="sm" operator="arithmetic" k1="0" k2="1" k3="0.78" k4="0"/>
  </filter>

  <!-- Sketch wobble -->
  <filter id="skr1x5967" x="-8%" y="-8%" width="116%" height="116%">
    <feTurbulence type="fractalNoise" baseFrequency="0.038"
        numOctaves="3" seed="48" result="noise"/>
    <feDisplacementMap in="SourceGraphic" in2="noise" scale="2.6"
        xChannelSelector="R" yChannelSelector="G" result="w"/>
    <feComposite in="w" in2="SourceGraphic" operator="atop"/>
  </filter>

  <!-- Glow: sharp accent -->
  <filter id="glowr1x5967" x="-20%" y="-20%" width="140%" height="140%">
    <feGaussianBlur stdDeviation="3.5" result="b"/>
    <feColorMatrix in="b" type="matrix"
        values="0 0 0 0 1  0 0 0 0 1  0 0 0 0 1  0 0 0 1.8 0" result="boost"/>
    <feMerge><feMergeNode in="boost"/><feMergeNode in="SourceGraphic"/></feMerge>
  </filter>

  <!-- Bloom: wide soft -->
  <filter id="bloomr1x5967" x="-40%" y="-40%" width="180%" height="180%">
    <feGaussianBlur stdDeviation="11" result="b"/>
    <feMerge><feMergeNode in="b"/><feMergeNode in="SourceGraphic"/></feMerge>
  </filter>

  </defs><rect width="1000" height="1000" fill="url(#bgr1x5967)"/><ellipse cx="500.0" cy="892.0" rx="350.0" ry="65.0" fill="rgba(0,0,0,.7)" filter="url(#bloomr1x5967)"/><ellipse cx="500.0" cy="889.0" rx="220.0" ry="34.0" fill="rgba(0,0,0,.45)"/><ellipse cx="500.0" cy="520.0" rx="320.0" ry="480.0" fill="#00e5ff" fill-opacity=".042" filter="url(#bloomr1x5967)"/><circle cx="516.0" cy="234.8" r="1.8" fill="#00e5ff" fill-opacity="0.63" filter="url(#glowr1x5967)"/><circle cx="449.8" cy="479.3" r="0.9" fill="#00e5ff" fill-opacity="0.44" filter="url(#glowr1x5967)"/><circle cx="728.2" cy="254.8" r="3.5" fill="#00e5ff" fill-opacity="0.51" filter="url(#glowr1x5967)"/><circle cx="317.2" cy="370.5" r="3.2" fill="#00e5ff" fill-opacity="0.83" filter="url(#glowr1x5967)"/><circle cx="324.6" cy="330.4" r="0.8" fill="#00e5ff" fill-opacity="0.51" filter="url(#glowr1x5967)"/><circle cx="312.0" cy="459.2" r="3.2" fill="#00e5ff" fill-opacity="0.55" filter="url(#glowr1x5967)"/><circle cx="521.9" cy="722.8" r="3.8" fill="#00e5ff" fill-opacity="0.54" filter="url(#glowr1x5967)"/><circle cx="745.0" cy="759.9" r="3.4" fill="#00e5ff" fill-opacity="0.84" filter="url(#glowr1x5967)"/><circle cx="743.0" cy="474.5" r="0.8" fill="#00e5ff" fill-opacity="0.74" filter="url(#glowr1x5967)"/><circle cx="667.1" cy="712.1" r="2.4" fill="#00e5ff" fill-opacity="0.47" filter="url(#glowr1x5967)"/><circle cx="580.5" cy="306.8" r="3.8" fill="#00e5ff" fill-opacity="0.78" filter="url(#glowr1x5967)"/><circle cx="442.5" cy="361.1" r="2.8" fill="#00e5ff" fill-opacity="0.39" filter="url(#glowr1x5967)"/><circle cx="503.9" cy="518.9" r="1.2" fill="#00e5ff" fill-opacity="0.70" filter="url(#glowr1x5967)"/><circle cx="592.4" cy="582.6" r="2.9" fill="#00e5ff" fill-opacity="0.89" filter="url(#glowr1x5967)"/><path d="M427.4,167.8 Q387.9,433.2 315.5,672.1" stroke="#00e5ff" stroke-opacity="0.51" stroke-width="2.5" fill="none" filter="url(#glowr1x5967)"/><path d="M535.9,346.6 Q502.8,539.4 385.6,736.8" stroke="#00e5ff" stroke-opacity="0.73" stroke-width="1.0" fill="none" filter="url(#glowr1x5967)"/><path d="M391.2,346.2 Q358.3,565.4 668.0,783.4" stroke="#00e5ff" stroke-opacity="0.47" stroke-width="2.0" fill="none" filter="url(#glowr1x5967)"/><path d="M582.8,333.5 Q604.4,496.6 672.3,692.5" stroke="#00e5ff" stroke-opacity="0.55" stroke-width="2.0" fill="none" filter="url(#glowr1x5967)"/><path d="M511.4,331.2 Q480.5,469.8 361.3,624.8" stroke="#00e5ff" stroke-opacity="0.48" stroke-width="1.3" fill="none" filter="url(#glowr1x5967)"/><polygon points="398.4,663.8 490.2,663.6 481.8,878.4 386.2,877.1" fill="url(#suitr1x5967)" stroke="#ff44aa" stroke-width="2.2" filter="url(#skr1x5967) url(#metalr1x5967)"/><polygon points="399.9,661.5 489.9,661.9 480.0,879.3 386.6,877.7" fill="url(#carbonr1x5967)"/><polygon points="391.7,724.9 494.1,722.3 483.4,789.1 384.1,787.4" fill="url(#bevelr1x5967)" fill-opacity=".5" stroke="#ff44aa" stroke-width="1.4" filter="url(#skr1x5967)"/><polygon points="510.4,662.5 602.5,661.8 611.9,875.9 520.2,876.0" fill="url(#suitr1x5967)" stroke="#ff44aa" stroke-width="2.2" filter="url(#skr1x5967) url(#metalr1x5967)"/><polygon points="509.6,664.0 602.1,661.6 614.0,877.9 520.0,876.9" fill="url(#carbonr1x5967)"/><polygon points="507.5,723.2 607.4,723.0 616.3,787.6 516.4,788.3" fill="url(#bevelr1x5967)" fill-opacity=".5" stroke="#ff44aa" stroke-width="1.4" filter="url(#skr1x5967)"/><rect x="392.4" y="838.7" width="100.3" height="24.7" fill="url(#bevelr1x5967)" stroke="#ff44aa" stroke-width="1" filter="url(#skr1x5967)"/><rect x="507.9"  y="838.1" width="100.3" height="24.7" fill="url(#bevelr1x5967)" stroke="#ff44aa" stroke-width="1" filter="url(#skr1x5967)"/><polygon points="368.5,876.8 496.8,878.2 503.6,920.4 361.1,923.1" fill="#880050" stroke="#ff44aa" stroke-width="2" filter="url(#skr1x5967)"/><polygon points="502.0,876.5 628.5,877.9 638.8,919.8 495.1,921.4" fill="#880050" stroke="#ff44aa" stroke-width="2" filter="url(#skr1x5967)"/><polygon points="303.0,634.1 696.3,632.9 638.7,680.4 362.8,683.6" fill="#ff44aa" fill-opacity=".52" stroke="#ff44aa" stroke-width="2" filter="url(#skr1x5967)"/><rect x="463.7" y="637.6" width="72.0" height="42.0" fill="url(#bevelr1x5967)" stroke="#ff44aa" stroke-width="1.4" filter="url(#glowr1x5967)"/><rect x="487.4" y="640.0" width="28.0" height="22.0" rx="1" fill="rgba(255,255,255,.48)"/><polygon points="153.5,466.7 235.7,466.6 257.6,733.4 129.7,733.9" fill="url(#suitr1x5967)" stroke="#ff44aa" stroke-width="2.2" filter="url(#skr1x5967) url(#metalr1x5967)"/><polygon points="173.8,431.4 251.8,432.7 242.7,509.4 160.1,509.3" fill="url(#bevelr1x5967)" fill-opacity=".72" stroke="#ff44aa" stroke-width="2.2" filter="url(#skr1x5967)"/><polygon points="160.9,621.8 243.9,622.9 239.0,660.3 164.2,662.7" fill="#ff44aa" fill-opacity=".42" stroke="#ff44aa" stroke-width="1" filter="url(#skr1x5967)"/><polygon points="763.6,467.7 846.9,468.2 869.9,733.9 741.8,736.1" fill="url(#suitr1x5967)" stroke="#ff44aa" stroke-width="2.2" filter="url(#skr1x5967) url(#metalr1x5967)"/><polygon points="747.3,430.6 828.2,431.5 841.2,509.5 756.4,509.6" fill="url(#bevelr1x5967)" fill-opacity=".72" stroke="#ff44aa" stroke-width="2.2" filter="url(#skr1x5967)"/><polygon points="756.0,622.9 839.3,620.3 833.9,662.3 761.7,662.0" fill="#ff44aa" fill-opacity=".42" stroke="#ff44aa" stroke-width="1" filter="url(#skr1x5967)"/><rect x="120.1"  y="700.8" width="135.3" height="85.0" rx="4" fill="url(#bevelr1x5967)" stroke="#ff44aa" stroke-width="1.8" filter="url(#skr1x5967)"/><rect x="748.8"   y="700.7" width="135.3" height="85.0" rx="4" fill="url(#bevelr1x5967)" stroke="#ff44aa" stroke-width="1.8" filter="url(#skr1x5967)"/><line x1="150.9" y1="700.7" x2="149.4" y2="782.6" stroke="#ff44aa" stroke-opacity=".38" stroke-width="1"/><line x1="777.6" y1="702.6" x2="778.5" y2="784.7" stroke="#ff44aa" stroke-opacity=".38" stroke-width="1"/><line x1="183.9" y1="701.3" x2="183.8" y2="784.9" stroke="#ff44aa" stroke-opacity=".38" stroke-width="1"/><line x1="812.1" y1="700.5" x2="811.5" y2="784.3" stroke="#ff44aa" stroke-opacity=".38" stroke-width="1"/><line x1="214.5" y1="703.2" x2="216.7" y2="784.1" stroke="#ff44aa" stroke-opacity=".38" stroke-width="1"/><line x1="842.5" y1="701.9" x2="844.0" y2="783.9" stroke="#ff44aa" stroke-opacity=".38" stroke-width="1"/><polygon points="235.0,416.3 765.3,415.8 722.4,663.4 278.3,661.1" fill="url(#suitr1x5967)" stroke="#ff44aa" stroke-width="2.6" filter="url(#skr1x5967) url(#metalr1x5967)"/><polygon points="235.4,419.1 763.9,417.3 720.9,663.8 278.4,663.2" fill="url(#carbonr1x5967)"/><polygon points="366.3,416.6 631.4,418.5 610.9,516.2 388.9,514.8" fill="url(#suitHir1x5967)"/><line x1="361.0" y1="471.2" x2="639.0" y2="472.2" stroke="#ff44aa" stroke-opacity=".52" stroke-width="1.3" filter="url(#skr1x5967)"/><line x1="399.7" y1="548.9" x2="601.8" y2="548.1" stroke="#ff44aa" stroke-opacity=".52" stroke-width="1.3" filter="url(#skr1x5967)"/><line x1="266.8" y1="491.1" x2="321.0" y2="492.6" stroke="#ff44aa" stroke-opacity=".62" stroke-width="1.8"/><line x1="681.3" y1="490.7" x2="732.4" y2="489.5" stroke="#ff44aa" stroke-opacity=".62" stroke-width="1.8"/><line x1="267.1" y1="523.5" x2="321.4" y2="524.6" stroke="#ff44aa" stroke-opacity=".62" stroke-width="1.8"/><line x1="679.5" y1="523.8" x2="733.1" y2="522.3" stroke="#ff44aa" stroke-opacity=".62" stroke-width="1.8"/><line x1="266.5" y1="553.1" x2="319.0" y2="553.1" stroke="#ff44aa" stroke-opacity=".62" stroke-width="1.8"/><line x1="680.0" y1="553.1" x2="734.5" y2="555.0" stroke="#ff44aa" stroke-opacity=".62" stroke-width="1.8"/><line x1="265.9" y1="588.0" x2="318.1" y2="586.5" stroke="#ff44aa" stroke-opacity=".62" stroke-width="1.8"/><line x1="679.1" y1="584.8" x2="734.8" y2="587.1" stroke="#ff44aa" stroke-opacity=".62" stroke-width="1.8"/><g filter="url(#glowr1x5967)"><path d="M500,510.6 C391.30728037264197,449.92231023386125 443.50261756777763,543.8510666977987 500,529.5392097863555" fill="#ff44aa" fill-opacity=".88" stroke="#ff44aa" stroke-width="1.2" filter="url(#skr1x5967)"/><path d="M500,510.6 C612.7155385196208,452.60572741068904 554.416230677627,545.3081417199597 500,528.1306870165467" fill="#ff44aa" fill-opacity=".88" stroke="#ff44aa" stroke-width="1.2" filter="url(#skr1x5967)"/><path d="M500,493.20000000000005 C453.3532559540123,463.08145196717237 476.5106134532951,515.6752349977381 500,523.1931546449662" fill="rgba(255,255,255,.14)"/><path d="M500,493.20000000000005 C548.4479099215008,465.03633102802564 525.1836147716269,516.2325263853185 500,523.2528122829274" fill="rgba(255,255,255,.14)"/></g><g><polygon points="32.6,292.5 173.2,291.8 170.5,590.8 101.4,727.5 33.5,593.0" fill="url(#titaniumr1x5967)" stroke="#ff44aa" stroke-width="2.6" filter="url(#wmr1x5967)"/><polygon points="31.9,295.2 172.4,292.7 171.6,591.4 103.8,726.9 31.8,591.3" fill="url(#carbonr1x5967)"/><polygon points="65.9,361.6 140.0,362.7 139.8,542.7 102.3,630.2 64.3,540.5" fill="#ff44aa" fill-opacity=".28" stroke="#ff44aa" stroke-width="1.5"/><line x1="51.215496734194424" y1="431.63257259773087" x2="155.30742792434987" y2="432.4892724419944" stroke="#ff44aa" stroke-opacity=".65" stroke-width="1.3"/><line x1="102.93327667558563" y1="331.4146191581152" x2="101.89057117993009" y2="592.6746427618898" stroke="#ff44aa" stroke-opacity=".4" stroke-width="1"/><line x1="34.78374317180362" y1="297.929593941383" x2="170.05945316556839" y2="295.38747156355527" stroke="rgba(255,255,255,.5)" stroke-width="2"/><circle cx="103.20882042426612" cy="433.1413130111061" r="18.0" fill="url(#bevelr1x5967)" stroke="#ff44aa" stroke-width="1.2" filter="url(#wmr1x5967)"/></g><rect x="449.98270431999117" y="557.1778796266764" width="100.0"  height="56.0" fill="#880050" stroke="#ff44aa" stroke-width="2.2" filter="url(#skr1x5967)"/><rect x="422.82886753631755" y="573.5899443526753" width="152.0" height="26.0" fill="url(#bevelr1x5967)" fill-opacity=".65" stroke="#ff44aa" stroke-width="1.2" filter="url(#skr1x5967)"/><polygon points="306.5,382.2 351.4,295.1 500.4,278.4 649.4,296.3 692.0,381.7 668.1,504.5 498.5,566.2 329.4,503.2" fill="url(#suitr1x5967)" stroke="#ff44aa" stroke-width="2.8" filter="url(#skr1x5967) url(#metalr1x5967)"/><polygon points="308.0,381.2 348.7,294.1 501.7,276.6 650.8,292.8 693.7,380.8 670.6,501.9 499.3,564.8 330.6,503.4" fill="url(#carbonr1x5967)"/><polygon points="382.7,303.0 499.6,285.0 620.4,301.8 606.0,379.1 391.0,380.3" fill="url(#suitHir1x5967)"/><polygon points="382.4,382.3 363.9,426.4 433.9,504.1 498.6,527.4 568.4,502.2 632.6,425.8 618.1,382.3" fill="#0a0520" fill-opacity=".88" stroke="#ff44aa" stroke-width="1.8" filter="url(#skr1x5967)"/><polygon points="381.8,412.4 478.4,410.3 483.7,439.1 387.7,438.3" fill="#ff44aa" filter="url(#glowr1x5967)"/><polygon points="521.9,412.0 618.7,411.6 609.7,438.6 514.2,441.1" fill="#ff44aa" filter="url(#glowr1x5967)"/><ellipse cx="430.9" cy="425.7" rx="38.4"  ry="8.2" fill="#ffffff" opacity=".88"/><ellipse cx="569.1" cy="425.7" rx="38.4"  ry="8.2" fill="#ffffff" opacity=".88"/><line x1="485.1620852800645" y1="412.029885294009" x2="516.2077310813032" y2="414.7338680625893" stroke="#ff44aa" stroke-opacity=".52" stroke-width="2"/><line x1="482.85436549490316" y1="438.0147297103889" x2="516.0570516447909" y2="437.7441776264459" stroke="#ff44aa" stroke-opacity=".52" stroke-width="2"/><line x1="500.42077661361543" y1="454.917742623575" x2="500.9848360868171" y2="483.44925257740545" stroke="#ff44aa" stroke-opacity=".58" stroke-width="2.2" filter="url(#skr1x5967)"/><line x1="455.6054517562315" y1="491.3526503581553" x2="455.1950242482871" y2="520.0286569650285" stroke="#ff44aa" stroke-opacity=".52" stroke-width="1.5" filter="url(#skr1x5967)"/><line x1="476.20505009921266" y1="490.06768867466593" x2="476.0445206180587" y2="521.6850599173456" stroke="#ff44aa" stroke-opacity=".52" stroke-width="1.5" filter="url(#skr1x5967)"/><line x1="498.8570956471376" y1="491.39340300373726" x2="500.88847626950593" y2="519.128545202408" stroke="#ff44aa" stroke-opacity=".52" stroke-width="1.5" filter="url(#skr1x5967)"/><line x1="522.8024191371724" y1="490.1874826361425" x2="523.9134362401068" y2="519.5402894042433" stroke="#ff44aa" stroke-opacity=".52" stroke-width="1.5" filter="url(#skr1x5967)"/><line x1="546.8239546937124" y1="492.67323559699577" x2="547.8256084112637" y2="518.4504141030833" stroke="#ff44aa" stroke-opacity=".52" stroke-width="1.5" filter="url(#skr1x5967)"/><polygon points="432.4,504.3 568.6,502.7 553.8,557.1 445.8,558.4" fill="#880050" fill-opacity=".72" stroke="#ff44aa" stroke-width="1.3" filter="url(#skr1x5967)"/><path d="M474.07211120229215 311.78444091454145 C305.9593175487965 145.9687707026489 419.71175771117214 242.99710455285384 499.1997039544396 310.8488078557886" fill="#ff44aa" fill-opacity=".92" stroke="#ff44aa" stroke-width="2.2" filter="url(#skr1x5967)"/><path d="M472.12069840792566 309.9219269858673 C305.15180244999004 145.6780077345669 419.34047718042507 240.6713769553229 501.25877809319644 312.4595949286595" fill="url(#suitHir1x5967)" opacity=".28"/><path d="M528.6709272226504 309.45950022432953 C694.8613005718776 148.08967404654248 578.9447489834018 239.8928124597296 500.6246496620588 312.08680522367354" fill="#ff44aa" fill-opacity=".92" stroke="#ff44aa" stroke-width="2.2" filter="url(#skr1x5967)"/><path d="M526.7675674248673 311.6804976860061 C695.1108776547574 148.5010001783259 581.1844037593901 242.66155575932933 501.7692592645064 311.9800657017156" fill="url(#suitHir1x5967)" opacity=".28"/><text x="30.0"  y="975.0" font-family="monospace" font-weight="bold" font-size="22.0" fill="rgba(255,255,255,.22)">#0001</text><text x="500.0"   y="975.0" text-anchor="middle" font-family="monospace" font-weight="bold" font-size="22.0" fill="#ff44aa" fill-opacity=".48">SAKURA RANGER</text><text x="970.0" y="975.0" text-anchor="end"    font-family="monospace" font-weight="bold" font-size="22.0" fill="#ff44aa" fill-opacity=".32">MECH RANGERS</text></svg>