<svg xmlns="http://www.w3.org/2000/svg" viewBox="0 0 1000 1000" width="1000" height="1000" shape-rendering="geometricPrecision"><defs>

  <!-- Scene gradients -->
  <radialGradient id="bgr1x6011" cx="50%" cy="42%" r="72%">
    <stop offset="0%"   stop-color="#1e0a2e"/>
    <stop offset="100%" stop-color="#0a0520"/>
  </radialGradient>
  <linearGradient id="suitr1x6011" x1="8%" y1="0%" x2="92%" y2="100%">
    <stop offset="0%"   stop-color="#ff2040" stop-opacity=".95"/>
    <stop offset="45%"  stop-color="#cc0020"/>
    <stop offset="100%" stop-color="#0a0520"/>
  </linearGradient>
  <linearGradient id="suitHir1x6011" x1="0%" y1="0%" x2="0%" y2="100%">
    <stop offset="0%"   stop-color="rgba(255,255,255,.28)"/>
    <stop offset="60%"  stop-color="rgba(255,255,255,.04)"/>
    <stop offset="100%" stop-color="rgba(255,255,255,0)"/>
  </linearGradient>
  <!-- Bevel: bright top, dark bottom for armour panels -->
  <linearGradient id="bevelr1x6011" x1="0%" y1="0%" x2="0%" y2="100%">
    <stop offset="0%"   stop-color="rgba(255,255,255,.55)"/>
    <stop offset="30%"  stop-color="#ff2040"/>
    <stop offset="70%"  stop-color="#cc0020"/>
    <stop offset="100%" stop-color="rgba(0,0,0,.5)"/>
  </linearGradient>

  <!-- Weapon: cold steel blade sweep -->
  <linearGradient id="blader1x6011" x1="0%" y1="0%" x2="100%" y2="0%">
    <stop offset="0%"   stop-color="#0e0e20"/>
    <stop offset="16%"  stop-color="#3e3e58"/>
    <stop offset="34%"  stop-color="#c8c8e0"/>
    <stop offset="50%"  stop-color="#f5f5ff"/>
    <stop offset="66%"  stop-color="#b8b8d0"/>
    <stop offset="84%"  stop-color="#2e2e48"/>
    <stop offset="100%" stop-color="#08080e"/>
  </linearGradient>
  <!-- Blade tip brightening -->
  <linearGradient id="bladeTipr1x6011" x1="0%" y1="100%" x2="0%" y2="0%">
    <stop offset="0%"   stop-color="rgba(255,255,255,0)"/>
    <stop offset="55%"  stop-color="rgba(255,255,255,.1)"/>
    <stop offset="100%" stop-color="rgba(255,255,255,.55)"/>
  </linearGradient>
  <!-- Gunmetal anodised — blaster body -->
  <linearGradient id="gunmetalr1x6011" x1="0%" y1="0%" x2="0%" y2="100%">
    <stop offset="0%"   stop-color="#46465e"/>
    <stop offset="18%"  stop-color="#828296"/>
    <stop offset="42%"  stop-color="#26263a"/>
    <stop offset="72%"  stop-color="#16162a"/>
    <stop offset="100%" stop-color="#0c0c18"/>
  </linearGradient>
  <!-- Brushed steel tube — barrel/rod -->
  <linearGradient id="barrelr1x6011" x1="0%" y1="0%" x2="100%" y2="0%">
    <stop offset="0%"   stop-color="#0a0a14"/>
    <stop offset="24%"  stop-color="#585875"/>
    <stop offset="50%"  stop-color="#a8a8c8"/>
    <stop offset="76%"  stop-color="#383852"/>
    <stop offset="100%" stop-color="#0a0a14"/>
  </linearGradient>
  <!-- Chrome rod — lance shaft -->
  <linearGradient id="chromer1x6011" x1="0%" y1="0%" x2="100%" y2="0%">
    <stop offset="0%"   stop-color="#0c0c18"/>
    <stop offset="20%"  stop-color="#686888"/>
    <stop offset="44%"  stop-color="#e0e0f0"/>
    <stop offset="56%"  stop-color="#c0c0d8"/>
    <stop offset="80%"  stop-color="#28283e"/>
    <stop offset="100%" stop-color="#0c0c18"/>
  </linearGradient>
  <!-- Titanium plate — shield face -->
  <linearGradient id="titaniumr1x6011" x1="0%" y1="0%" x2="100%" y2="100%">
    <stop offset="0%"   stop-color="#585878"/>
    <stop offset="28%"  stop-color="#ff2040" stop-opacity=".88"/>
    <stop offset="55%"  stop-color="#cc0020"/>
    <stop offset="80%"  stop-color="#181828"/>
    <stop offset="100%" stop-color="#0a0a18"/>
  </linearGradient>
  <!-- Artillery black-chrome — cannon body -->
  <linearGradient id="artilleryr1x6011" x1="0%" y1="0%" x2="0%" y2="100%">
    <stop offset="0%"   stop-color="#383850"/>
    <stop offset="14%"  stop-color="#78789a"/>
    <stop offset="36%"  stop-color="#202034"/>
    <stop offset="65%"  stop-color="#14141e"/>
    <stop offset="100%" stop-color="#0a0a12"/>
  </linearGradient>
  <!-- Energy orb — staff -->
  <radialGradient id="orbr1x6011" cx="35%" cy="35%" r="65%">
    <stop offset="0%"   stop-color="rgba(255,255,255,.9)"/>
    <stop offset="30%"  stop-color="#ff2040"/>
    <stop offset="68%"  stop-color="#cc0020"/>
    <stop offset="100%" stop-color="rgba(0,0,0,.6)"/>
  </radialGradient>
  <!-- Knuckle plate chrome -->
  <linearGradient id="knuckler1x6011" x1="0%" y1="0%" x2="0%" y2="100%">
    <stop offset="0%"   stop-color="#888aaa"/>
    <stop offset="32%"  stop-color="#ff2040" stop-opacity=".8"/>
    <stop offset="62%"  stop-color="#1a1a2c"/>
    <stop offset="100%" stop-color="#0a0a14"/>
  </linearGradient>

  <!-- Carbon fibre weave texture overlay -->
  <pattern id="carbonr1x6011" width="6" height="6" patternUnits="userSpaceOnUse">
    <rect width="6" height="6" fill="rgba(0,0,0,.08)"/>
    <rect x="0" y="0" width="3" height="3" fill="rgba(255,255,255,.022)"/>
    <rect x="3" y="3" width="3" height="3" fill="rgba(255,255,255,.022)"/>
    <line x1="0" y1="0" x2="3" y2="3" stroke="rgba(255,255,255,.038)" stroke-width=".5"/>
    <line x1="3" y1="0" x2="6" y2="3" stroke="rgba(0,0,0,.055)"       stroke-width=".5"/>
    <line x1="0" y1="3" x2="3" y2="6" stroke="rgba(0,0,0,.055)"       stroke-width=".5"/>
    <line x1="3" y1="3" x2="6" y2="6" stroke="rgba(255,255,255,.038)" stroke-width=".5"/>
  </pattern>

  <!-- Specular metal sheen on armour panels -->
  <filter id="metalr1x6011" x="-5%" y="-5%" width="110%" height="110%">
    <feSpecularLighting surfaceScale="4" specularConstant="1.8"
        specularExponent="42" lighting-color="#ffffff" result="spec">
      <feDistantLight elevation="52" azimuth="38"/>
    </feSpecularLighting>
    <feComposite in="spec" in2="SourceGraphic" operator="in" result="sm"/>
    <feComposite in="SourceGraphic" in2="sm" operator="arithmetic" k1="0" k2="1" k3="0.55" k4="0"/>
  </filter>

  <!-- Sharper specular for weapons — heavier glare -->
  <filter id="wmr1x6011" x="-8%" y="-8%" width="116%" height="116%">
    <feSpecularLighting surfaceScale="6" specularConstant="2.4"
        specularExponent="65" lighting-color="#ffffff" result="spec">
      <feDistantLight elevation="44" azimuth="28"/>
    </feSpecularLighting>
    <feComposite in="spec" in2="SourceGraphic" operator="in" result="sm"/>
    <feComposite in="SourceGraphic" in2="sm" operator="arithmetic" k1="0" k2="1" k3="0.78" k4="0"/>
  </filter>

  <!-- Sketch wobble -->
  <filter id="skr1x6011" x="-8%" y="-8%" width="116%" height="116%">
    <feTurbulence type="fractalNoise" baseFrequency="0.038"
        numOctaves="3" seed="10" result="noise"/>
    <feDisplacementMap in="SourceGraphic" in2="noise" scale="2.6"
        xChannelSelector="R" yChannelSelector="G" result="w"/>
    <feComposite in="w" in2="SourceGraphic" operator="atop"/>
  </filter>

  <!-- Glow: sharp accent -->
  <filter id="glowr1x6011" x="-20%" y="-20%" width="140%" height="140%">
    <feGaussianBlur stdDeviation="3.5" result="b"/>
    <feColorMatrix in="b" type="matrix"
        values="0 0 0 0 1  0 0 0 0 1  0 0 0 0 1  0 0 0 1.8 0" result="boost"/>
    <feMerge><feMergeNode in="boost"/><feMergeNode in="SourceGraphic"/></feMerge>
  </filter>

  <!-- Bloom: wide soft -->
  <filter id="bloomr1x6011" x="-40%" y="-40%" width="180%" height="180%">
    <feGaussianBlur stdDeviation="11" result="b"/>
    <feMerge><feMergeNode in="b"/><feMergeNode in="SourceGraphic"/></feMerge>
  </filter>

  </defs><rect width="1000" height="1000" fill="url(#bgr1x6011)"/><ellipse cx="500.0" cy="892.0" rx="350.0" ry="65.0" fill="rgba(0,0,0,.7)" filter="url(#bloomr1x6011)"/><ellipse cx="500.0" cy="889.0" rx="220.0" ry="34.0" fill="rgba(0,0,0,.45)"/><ellipse cx="500.0" cy="520.0" rx="320.0" ry="480.0" fill="#00e5ff" fill-opacity=".042" filter="url(#bloomr1x6011)"/><circle cx="619.7" cy="598.1" r="3.4" fill="#00e5ff" fill-opacity="0.67" filter="url(#glowr1x6011)"/><circle cx="659.4" cy="458.2" r="2.6" fill="#00e5ff" fill-opacity="0.71" filter="url(#glowr1x6011)"/><circle cx="361.7" cy="232.1" r="2.5" fill="#00e5ff" fill-opacity="0.73" filter="url(#glowr1x6011)"/><circle cx="377.1" cy="516.4" r="3.8" fill="#00e5ff" fill-opacity="0.86" filter="url(#glowr1x6011)"/><circle cx="704.4" cy="757.3" r="0.9" fill="#00e5ff" fill-opacity="0.88" filter="url(#glowr1x6011)"/><circle cx="409.8" cy="466.8" r="1.5" fill="#00e5ff" fill-opacity="0.85" filter="url(#glowr1x6011)"/><circle cx="717.6" cy="330.3" r="3.8" fill="#00e5ff" fill-opacity="0.67" filter="url(#glowr1x6011)"/><circle cx="310.5" cy="369.8" r="4.3" fill="#00e5ff" fill-opacity="0.61" filter="url(#glowr1x6011)"/><circle cx="456.4" cy="453.1" r="1.7" fill="#00e5ff" fill-opacity="0.60" filter="url(#glowr1x6011)"/><circle cx="283.7" cy="312.9" r="0.8" fill="#00e5ff" fill-opacity="0.62" filter="url(#glowr1x6011)"/><circle cx="487.1" cy="683.3" r="2.2" fill="#00e5ff" fill-opacity="0.40" filter="url(#glowr1x6011)"/><circle cx="533.3" cy="303.1" r="1.3" fill="#00e5ff" fill-opacity="0.73" filter="url(#glowr1x6011)"/><circle cx="537.6" cy="369.8" r="2.8" fill="#00e5ff" fill-opacity="0.67" filter="url(#glowr1x6011)"/><circle cx="504.7" cy="449.5" r="3.0" fill="#00e5ff" fill-opacity="0.39" filter="url(#glowr1x6011)"/><path d="M332.2,194.4 Q349.6,442.5 622.7,684.4" stroke="#00e5ff" stroke-opacity="0.67" stroke-width="1.6" fill="none" filter="url(#glowr1x6011)"/><path d="M582.0,249.4 Q619.9,505.9 524.4,777.5" stroke="#00e5ff" stroke-opacity="0.46" stroke-width="2.0" fill="none" filter="url(#glowr1x6011)"/><path d="M430.6,366.7 Q421.9,533.0 652.8,741.6" stroke="#00e5ff" stroke-opacity="0.65" stroke-width="2.2" fill="none" filter="url(#glowr1x6011)"/><path d="M686.9,300.7 Q678.7,591.0 608.0,868.5" stroke="#00e5ff" stroke-opacity="0.72" stroke-width="2.4" fill="none" filter="url(#glowr1x6011)"/><path d="M583.1,221.8 Q613.3,455.9 685.8,687.5" stroke="#00e5ff" stroke-opacity="0.53" stroke-width="1.8" fill="none" filter="url(#glowr1x6011)"/><polygon points="398.6,661.8 490.4,663.6 481.1,877.4 386.2,876.8" fill="url(#suitr1x6011)" stroke="#ff2040" stroke-width="2.2" filter="url(#skr1x6011) url(#metalr1x6011)"/><polygon points="398.9,664.2 490.8,662.6 480.1,878.9 387.3,875.8" fill="url(#carbonr1x6011)"/><polygon points="391.9,722.4 491.7,723.0 485.3,788.8 383.9,790.0" fill="url(#bevelr1x6011)" fill-opacity=".5" stroke="#ff2040" stroke-width="1.4" filter="url(#skr1x6011)"/><polygon points="511.5,663.5 602.7,663.0 611.2,877.5 518.8,876.1" fill="url(#suitr1x6011)" stroke="#ff2040" stroke-width="2.2" filter="url(#skr1x6011) url(#metalr1x6011)"/><polygon points="512.2,662.9 600.3,662.8 612.2,879.3 517.7,878.6" fill="url(#carbonr1x6011)"/><polygon points="507.4,722.1 606.4,724.8 614.4,789.2 517.3,789.2" fill="url(#bevelr1x6011)" fill-opacity=".5" stroke="#ff2040" stroke-width="1.4" filter="url(#skr1x6011)"/><rect x="392.9" y="840.1" width="100.3" height="24.7" fill="url(#bevelr1x6011)" stroke="#ff2040" stroke-width="1" filter="url(#skr1x6011)"/><rect x="506.5"  y="837.3" width="100.3" height="24.7" fill="url(#bevelr1x6011)" stroke="#ff2040" stroke-width="1" filter="url(#skr1x6011)"/><polygon points="371.3,878.2 496.6,876.5 503.4,919.7 363.5,921.2" fill="#cc0020" stroke="#ff2040" stroke-width="2" filter="url(#skr1x6011)"/><polygon points="505.3,878.9 631.6,878.3 637.1,920.0 497.0,922.2" fill="#cc0020" stroke="#ff2040" stroke-width="2" filter="url(#skr1x6011)"/><polygon points="303.1,633.9 696.5,633.3 639.6,680.4 362.2,681.1" fill="#ff2040" fill-opacity=".52" stroke="#ff2040" stroke-width="2" filter="url(#skr1x6011)"/><rect x="465.4" y="638.4" width="72.0" height="42.0" fill="url(#bevelr1x6011)" stroke="#ff2040" stroke-width="1.4" filter="url(#glowr1x6011)"/><rect x="484.5" y="640.5" width="28.0" height="22.0" rx="1" fill="rgba(255,255,255,.48)"/><polygon points="153.7,466.4 236.3,467.5 258.0,735.3 129.6,736.1" fill="url(#suitr1x6011)" stroke="#ff2040" stroke-width="2.2" filter="url(#skr1x6011) url(#metalr1x6011)"/><polygon points="174.8,432.4 254.2,433.2 244.8,509.3 161.0,512.2" fill="url(#bevelr1x6011)" fill-opacity=".72" stroke="#ff2040" stroke-width="2.2" filter="url(#skr1x6011)"/><polygon points="161.4,623.5 243.0,621.6 238.2,659.8 164.7,661.4" fill="#ff2040" fill-opacity=".42" stroke="#ff2040" stroke-width="1" filter="url(#skr1x6011)"/><polygon points="766.4,468.1 847.3,467.9 872.4,733.6 740.9,735.8" fill="url(#suitr1x6011)" stroke="#ff2040" stroke-width="2.2" filter="url(#skr1x6011) url(#metalr1x6011)"/><polygon points="747.1,430.6 827.0,431.4 839.6,509.4 758.0,509.2" fill="url(#bevelr1x6011)" fill-opacity=".72" stroke="#ff2040" stroke-width="2.2" filter="url(#skr1x6011)"/><polygon points="755.9,621.5 839.5,623.1 834.3,662.5 761.2,659.5" fill="#ff2040" fill-opacity=".42" stroke="#ff2040" stroke-width="1" filter="url(#skr1x6011)"/><rect x="121.2"  y="700.7" width="135.3" height="85.0" rx="4" fill="url(#bevelr1x6011)" stroke="#ff2040" stroke-width="1.8" filter="url(#skr1x6011)"/><rect x="747.9"   y="699.5" width="135.3" height="85.0" rx="4" fill="url(#bevelr1x6011)" stroke="#ff2040" stroke-width="1.8" filter="url(#skr1x6011)"/><line x1="151.1" y1="703.1" x2="148.3" y2="784.7" stroke="#ff2040" stroke-opacity=".38" stroke-width="1"/><line x1="777.3" y1="701.7" x2="779.0" y2="784.4" stroke="#ff2040" stroke-opacity=".38" stroke-width="1"/><line x1="182.6" y1="703.3" x2="182.5" y2="785.5" stroke="#ff2040" stroke-opacity=".38" stroke-width="1"/><line x1="809.9" y1="701.2" x2="811.6" y2="782.1" stroke="#ff2040" stroke-opacity=".38" stroke-width="1"/><line x1="213.7" y1="701.6" x2="216.0" y2="782.6" stroke="#ff2040" stroke-opacity=".38" stroke-width="1"/><line x1="844.4" y1="702.0" x2="842.2" y2="782.1" stroke="#ff2040" stroke-opacity=".38" stroke-width="1"/><polygon points="235.9,415.9 764.2,417.8 722.2,660.9 276.1,664.1" fill="url(#suitr1x6011)" stroke="#ff2040" stroke-width="2.6" filter="url(#skr1x6011) url(#metalr1x6011)"/><polygon points="236.2,416.0 766.0,419.3 721.0,664.2 277.6,663.9" fill="url(#carbonr1x6011)"/><polygon points="369.2,417.8 632.8,416.5 612.9,517.1 389.0,514.8" fill="url(#suitHir1x6011)"/><line x1="360.7" y1="470.8" x2="636.1" y2="470.3" stroke="#ff2040" stroke-opacity=".52" stroke-width="1.3" filter="url(#skr1x6011)"/><line x1="397.7" y1="551.4" x2="599.0" y2="548.7" stroke="#ff2040" stroke-opacity=".52" stroke-width="1.3" filter="url(#skr1x6011)"/><line x1="268.2" y1="492.2" x2="320.7" y2="490.9" stroke="#ff2040" stroke-opacity=".62" stroke-width="1.8"/><line x1="680.5" y1="490.3" x2="733.4" y2="491.3" stroke="#ff2040" stroke-opacity=".62" stroke-width="1.8"/><line x1="266.2" y1="524.4" x2="319.3" y2="524.2" stroke="#ff2040" stroke-opacity=".62" stroke-width="1.8"/><line x1="679.5" y1="522.2" x2="732.6" y2="523.1" stroke="#ff2040" stroke-opacity=".62" stroke-width="1.8"/><line x1="265.1" y1="554.3" x2="319.7" y2="554.5" stroke="#ff2040" stroke-opacity=".62" stroke-width="1.8"/><line x1="680.8" y1="553.3" x2="732.7" y2="553.1" stroke="#ff2040" stroke-opacity=".62" stroke-width="1.8"/><line x1="268.0" y1="585.2" x2="318.6" y2="587.0" stroke="#ff2040" stroke-opacity=".62" stroke-width="1.8"/><line x1="679.1" y1="585.7" x2="734.3" y2="585.9" stroke="#ff2040" stroke-opacity=".62" stroke-width="1.8"/><g filter="url(#glowr1x6011)"><polygon points="500.8,453.8 541.8,510.1 499.1,566.8 458.7,510.5" fill="#ff2040" stroke="#0a0520" stroke-width="1.4" filter="url(#skr1x6011)"/><polygon points="499.4,451.3 542.3,512.0 498.6,567.0 457.6,510.8" fill="url(#suitHir1x6011)" opacity=".45"/></g><g><polygon points="76.2,671.4 128.2,671.4 112.6,-28.6 91.8,-28.6" fill="url(#blader1x6011)" filter="url(#wmr1x6011)"/><polygon points="91.8,-28.6 112.6,-28.6 102.2,-138.6" fill="url(#blader1x6011)" filter="url(#wmr1x6011)"/><polygon points="100.3,671.4 104.0,671.4 102.7,-128.6 101.6,-128.6" fill="url(#bladeTipr1x6011)" opacity=".9"/><line x1="110.92535481879484" y1="671.3312732580117" x2="104.94284505536777" y2="-128.87646998669953" stroke="rgba(255,255,255,.68)" stroke-width="1.5"/><line x1="91.33528918083753" y1="669.9153113052249" x2="99.72862139137457" y2="-128.41408868273723" stroke="#ff2040" stroke-width="1" stroke-opacity=".45"/><line x1="106.8" y1="651.4" x2="104.0" y2="11.4" stroke="rgba(0,0,0,.38)" stroke-width="1.6"/><line x1="97.5" y1="651.4" x2="100.3" y2="11.4" stroke="rgba(0,0,0,.38)" stroke-width="1.6"/><rect x="46.176244353819605" y="670.1087427761405" width="112.0" height="28.0" rx="3" fill="url(#bevelr1x6011)" stroke="#ff2040" stroke-width="1.6" filter="url(#wmr1x6011)"/><rect x="68.87760738827285" y="672.9525461330078" width="64.0" height="10.0" rx="1" fill="rgba(255,255,255,.32)"/><rect x="91.19397311912846" y="678.2200687506236" width="24.0" height="6.0" rx="1" fill="#ff2040" fill-opacity=".35"/><rect x="90.06693678772073" y="684.3890702858567" width="24.0" height="6.0" rx="1" fill="#ff2040" fill-opacity=".35"/><rect x="91.74956645941359" y="692.6090935023501" width="24.0" height="6.0" rx="1" fill="#ff2040" fill-opacity=".35"/><rect x="89.96508019207042" y="699.990564252343" width="24.0" height="6.0" rx="1" fill="#ff2040" fill-opacity=".35"/><rect x="90.70066993081939" y="708.8544747754931" width="24.0" height="6.0" rx="1" fill="#ff2040" fill-opacity=".35"/><rect x="91.28257738271725" y="718.7248730625957" width="24.0" height="6.0" rx="1" fill="#ff2040" fill-opacity=".35"/><ellipse cx="102.23622770294544" cy="727.8434675812721" rx="22.0" ry="16.0" fill="url(#bevelr1x6011)" stroke="#ff2040" stroke-width="1.2" filter="url(#wmr1x6011)"/></g><rect x="450.3480526635423" y="558.3687865790911" width="100.0"  height="56.0" fill="#cc0020" stroke="#ff2040" stroke-width="2.2" filter="url(#skr1x6011)"/><rect x="423.75211154790594" y="573.9914841162972" width="152.0" height="26.0" fill="url(#bevelr1x6011)" fill-opacity=".65" stroke="#ff2040" stroke-width="1.2" filter="url(#skr1x6011)"/><polygon points="308.1,378.9 350.3,294.5 501.4,278.9 648.4,295.1 691.8,379.2 670.3,505.3 498.4,566.2 330.3,504.5" fill="url(#suitr1x6011)" stroke="#ff2040" stroke-width="2.8" filter="url(#skr1x6011) url(#metalr1x6011)"/><polygon points="309.6,379.8 350.7,293.1 501.5,277.3 648.4,294.6 691.8,380.5 669.9,503.8 499.3,565.1 331.5,505.1" fill="url(#carbonr1x6011)"/><polygon points="381.9,302.6 501.6,287.6 620.7,301.4 608.6,381.3 393.5,380.9" fill="url(#suitHir1x6011)"/><polygon points="382.2,381.9 364.4,424.2 431.4,504.7 498.5,528.7 566.9,504.9 634.5,424.4 620.2,380.4" fill="#0a0520" fill-opacity=".88" stroke="#ff2040" stroke-width="1.8" filter="url(#skr1x6011)"/><polygon points="382.0,410.0 477.1,412.8 484.7,440.6 389.1,439.9" fill="#ff2040" filter="url(#glowr1x6011)"/><polygon points="522.1,411.7 618.6,412.1 611.0,439.3 514.7,438.6" fill="#ff2040" filter="url(#glowr1x6011)"/><ellipse cx="430.9" cy="425.7" rx="38.4"  ry="8.2" fill="#ffffff" opacity=".88"/><ellipse cx="569.1" cy="425.7" rx="38.4"  ry="8.2" fill="#ffffff" opacity=".88"/><line x1="483.8455021828972" y1="414.4663003544323" x2="514.4888040607236" y2="415.1233336779289" stroke="#ff2040" stroke-opacity=".52" stroke-width="2"/><line x1="484.49304042445493" y1="439.507938028872" x2="514.8473545978219" y2="436.5025602755137" stroke="#ff2040" stroke-opacity=".52" stroke-width="2"/><line x1="498.6437370193191" y1="454.85258195223287" x2="499.1953396810219" y2="481.3164641063661" stroke="#ff2040" stroke-opacity=".58" stroke-width="2.2" filter="url(#skr1x6011)"/><line x1="454.6285308288224" y1="489.73581448150793" x2="455.4835838369839" y2="520.8983815064654" stroke="#ff2040" stroke-opacity=".52" stroke-width="1.5" filter="url(#skr1x6011)"/><line x1="475.9406048478" y1="490.87191148009146" x2="475.26648454194884" y2="519.2947066955269" stroke="#ff2040" stroke-opacity=".52" stroke-width="1.5" filter="url(#skr1x6011)"/><line x1="501.77114181397485" y1="491.45712550980966" x2="501.42483346555383" y2="518.9076129257679" stroke="#ff2040" stroke-opacity=".52" stroke-width="1.5" filter="url(#skr1x6011)"/><line x1="523.0830447038263" y1="491.22707743402566" x2="524.3833166299946" y2="520.6907126058825" stroke="#ff2040" stroke-opacity=".52" stroke-width="1.5" filter="url(#skr1x6011)"/><line x1="546.0192366753892" y1="492.8372440608218" x2="547.4387372581475" y2="518.7748408612795" stroke="#ff2040" stroke-opacity=".52" stroke-width="1.5" filter="url(#skr1x6011)"/><polygon points="432.9,503.6 566.2,504.5 554.7,555.5 445.7,557.5" fill="#cc0020" fill-opacity=".72" stroke="#ff2040" stroke-width="1.3" filter="url(#skr1x6011)"/><path d="M386.9129732220061 325.74888082668184 Q331.0763876873627 217.36875048642978 381.0425665373356 141.0254076424986" stroke="#ff2040" stroke-width="5" fill="none" stroke-linecap="round" filter="url(#skr1x6011)"/><path d="M389.64062524713574 327.6266743202694 Q331.4797601256147 217.04707791013644 379.26013694008816 140.84688276341186" stroke="rgba(255,255,255,.25)" stroke-width="1.5" fill="none" stroke-linecap="round"/><path d="M612.7841534635425 326.4103156560101 Q667.2625659385137 215.10194210261105 618.7680060744844 142.21330200480298" stroke="#ff2040" stroke-width="5" fill="none" stroke-linecap="round" filter="url(#skr1x6011)"/><path d="M610.8621898145788 327.00007265964524 Q669.7101565225423 217.058797544986 617.8930414253473 142.3081915097311" stroke="rgba(255,255,255,.25)" stroke-width="1.5" fill="none" stroke-linecap="round"/><text x="30.0"  y="975.0" font-family="monospace" font-weight="bold" font-size="22.0" fill="rgba(255,255,255,.22)">#0001</text><text x="500.0"   y="975.0" text-anchor="middle" font-family="monospace" font-weight="bold" font-size="22.0" fill="#ff2040" fill-opacity=".48">CRIMSON RANGER</text><text x="970.0" y="975.0" text-anchor="end"    font-family="monospace" font-weight="bold" font-size="22.0" fill="#ff2040" fill-opacity=".32">MECH RANGERS</text></svg>