<svg xmlns="http://www.w3.org/2000/svg" viewBox="0 0 1000 1000" width="1000" height="1000" shape-rendering="geometricPrecision"><defs>

  <!-- Scene gradients -->
  <radialGradient id="bgr1x6068" cx="50%" cy="42%" r="72%">
    <stop offset="0%"   stop-color="#001422"/>
    <stop offset="100%" stop-color="#000a14"/>
  </radialGradient>
  <linearGradient id="suitr1x6068" x1="8%" y1="0%" x2="92%" y2="100%">
    <stop offset="0%"   stop-color="#2060ff" stop-opacity=".95"/>
    <stop offset="45%"  stop-color="#003ccc"/>
    <stop offset="100%" stop-color="#000a14"/>
  </linearGradient>
  <linearGradient id="suitHir1x6068" x1="0%" y1="0%" x2="0%" y2="100%">
    <stop offset="0%"   stop-color="rgba(255,255,255,.28)"/>
    <stop offset="60%"  stop-color="rgba(255,255,255,.04)"/>
    <stop offset="100%" stop-color="rgba(255,255,255,0)"/>
  </linearGradient>
  <!-- Bevel: bright top, dark bottom for armour panels -->
  <linearGradient id="bevelr1x6068" x1="0%" y1="0%" x2="0%" y2="100%">
    <stop offset="0%"   stop-color="rgba(255,255,255,.55)"/>
    <stop offset="30%"  stop-color="#2060ff"/>
    <stop offset="70%"  stop-color="#003ccc"/>
    <stop offset="100%" stop-color="rgba(0,0,0,.5)"/>
  </linearGradient>

  <!-- Weapon: cold steel blade sweep -->
  <linearGradient id="blader1x6068" x1="0%" y1="0%" x2="100%" y2="0%">
    <stop offset="0%"   stop-color="#0e0e20"/>
    <stop offset="16%"  stop-color="#3e3e58"/>
    <stop offset="34%"  stop-color="#c8c8e0"/>
    <stop offset="50%"  stop-color="#f5f5ff"/>
    <stop offset="66%"  stop-color="#b8b8d0"/>
    <stop offset="84%"  stop-color="#2e2e48"/>
    <stop offset="100%" stop-color="#08080e"/>
  </linearGradient>
  <!-- Blade tip brightening -->
  <linearGradient id="bladeTipr1x6068" x1="0%" y1="100%" x2="0%" y2="0%">
    <stop offset="0%"   stop-color="rgba(255,255,255,0)"/>
    <stop offset="55%"  stop-color="rgba(255,255,255,.1)"/>
    <stop offset="100%" stop-color="rgba(255,255,255,.55)"/>
  </linearGradient>
  <!-- Gunmetal anodised — blaster body -->
  <linearGradient id="gunmetalr1x6068" x1="0%" y1="0%" x2="0%" y2="100%">
    <stop offset="0%"   stop-color="#46465e"/>
    <stop offset="18%"  stop-color="#828296"/>
    <stop offset="42%"  stop-color="#26263a"/>
    <stop offset="72%"  stop-color="#16162a"/>
    <stop offset="100%" stop-color="#0c0c18"/>
  </linearGradient>
  <!-- Brushed steel tube — barrel/rod -->
  <linearGradient id="barrelr1x6068" x1="0%" y1="0%" x2="100%" y2="0%">
    <stop offset="0%"   stop-color="#0a0a14"/>
    <stop offset="24%"  stop-color="#585875"/>
    <stop offset="50%"  stop-color="#a8a8c8"/>
    <stop offset="76%"  stop-color="#383852"/>
    <stop offset="100%" stop-color="#0a0a14"/>
  </linearGradient>
  <!-- Chrome rod — lance shaft -->
  <linearGradient id="chromer1x6068" x1="0%" y1="0%" x2="100%" y2="0%">
    <stop offset="0%"   stop-color="#0c0c18"/>
    <stop offset="20%"  stop-color="#686888"/>
    <stop offset="44%"  stop-color="#e0e0f0"/>
    <stop offset="56%"  stop-color="#c0c0d8"/>
    <stop offset="80%"  stop-color="#28283e"/>
    <stop offset="100%" stop-color="#0c0c18"/>
  </linearGradient>
  <!-- Titanium plate — shield face -->
  <linearGradient id="titaniumr1x6068" x1="0%" y1="0%" x2="100%" y2="100%">
    <stop offset="0%"   stop-color="#585878"/>
    <stop offset="28%"  stop-color="#2060ff" stop-opacity=".88"/>
    <stop offset="55%"  stop-color="#003ccc"/>
    <stop offset="80%"  stop-color="#181828"/>
    <stop offset="100%" stop-color="#0a0a18"/>
  </linearGradient>
  <!-- Artillery black-chrome — cannon body -->
  <linearGradient id="artilleryr1x6068" x1="0%" y1="0%" x2="0%" y2="100%">
    <stop offset="0%"   stop-color="#383850"/>
    <stop offset="14%"  stop-color="#78789a"/>
    <stop offset="36%"  stop-color="#202034"/>
    <stop offset="65%"  stop-color="#14141e"/>
    <stop offset="100%" stop-color="#0a0a12"/>
  </linearGradient>
  <!-- Energy orb — staff -->
  <radialGradient id="orbr1x6068" cx="35%" cy="35%" r="65%">
    <stop offset="0%"   stop-color="rgba(255,255,255,.9)"/>
    <stop offset="30%"  stop-color="#2060ff"/>
    <stop offset="68%"  stop-color="#003ccc"/>
    <stop offset="100%" stop-color="rgba(0,0,0,.6)"/>
  </radialGradient>
  <!-- Knuckle plate chrome -->
  <linearGradient id="knuckler1x6068" x1="0%" y1="0%" x2="0%" y2="100%">
    <stop offset="0%"   stop-color="#888aaa"/>
    <stop offset="32%"  stop-color="#2060ff" stop-opacity=".8"/>
    <stop offset="62%"  stop-color="#1a1a2c"/>
    <stop offset="100%" stop-color="#0a0a14"/>
  </linearGradient>

  <!-- Carbon fibre weave texture overlay -->
  <pattern id="carbonr1x6068" width="6" height="6" patternUnits="userSpaceOnUse">
    <rect width="6" height="6" fill="rgba(0,0,0,.08)"/>
    <rect x="0" y="0" width="3" height="3" fill="rgba(255,255,255,.022)"/>
    <rect x="3" y="3" width="3" height="3" fill="rgba(255,255,255,.022)"/>
    <line x1="0" y1="0" x2="3" y2="3" stroke="rgba(255,255,255,.038)" stroke-width=".5"/>
    <line x1="3" y1="0" x2="6" y2="3" stroke="rgba(0,0,0,.055)"       stroke-width=".5"/>
    <line x1="0" y1="3" x2="3" y2="6" stroke="rgba(0,0,0,.055)"       stroke-width=".5"/>
    <line x1="3" y1="3" x2="6" y2="6" stroke="rgba(255,255,255,.038)" stroke-width=".5"/>
  </pattern>

  <!-- Specular metal sheen on armour panels -->
  <filter id="metalr1x6068" x="-5%" y="-5%" width="110%" height="110%">
    <feSpecularLighting surfaceScale="4" specularConstant="1.8"
        specularExponent="42" lighting-color="#ffffff" result="spec">
      <feDistantLight elevation="52" azimuth="38"/>
    </feSpecularLighting>
    <feComposite in="spec" in2="SourceGraphic" operator="in" result="sm"/>
    <feComposite in="SourceGraphic" in2="sm" operator="arithmetic" k1="0" k2="1" k3="0.55" k4="0"/>
  </filter>

  <!-- Sharper specular for weapons — heavier glare -->
  <filter id="wmr1x6068" x="-8%" y="-8%" width="116%" height="116%">
    <feSpecularLighting surfaceScale="6" specularConstant="2.4"
        specularExponent="65" lighting-color="#ffffff" result="spec">
      <feDistantLight elevation="44" azimuth="28"/>
    </feSpecularLighting>
    <feComposite in="spec" in2="SourceGraphic" operator="in" result="sm"/>
    <feComposite in="SourceGraphic" in2="sm" operator="arithmetic" k1="0" k2="1" k3="0.78" k4="0"/>
  </filter>

  <!-- Sketch wobble -->
  <filter id="skr1x6068" x="-8%" y="-8%" width="116%" height="116%">
    <feTurbulence type="fractalNoise" baseFrequency="0.038"
        numOctaves="3" seed="48" result="noise"/>
    <feDisplacementMap in="SourceGraphic" in2="noise" scale="2.6"
        xChannelSelector="R" yChannelSelector="G" result="w"/>
    <feComposite in="w" in2="SourceGraphic" operator="atop"/>
  </filter>

  <!-- Glow: sharp accent -->
  <filter id="glowr1x6068" x="-20%" y="-20%" width="140%" height="140%">
    <feGaussianBlur stdDeviation="3.5" result="b"/>
    <feColorMatrix in="b" type="matrix"
        values="0 0 0 0 1  0 0 0 0 1  0 0 0 0 1  0 0 0 1.8 0" result="boost"/>
    <feMerge><feMergeNode in="boost"/><feMergeNode in="SourceGraphic"/></feMerge>
  </filter>

  <!-- Bloom: wide soft -->
  <filter id="bloomr1x6068" x="-40%" y="-40%" width="180%" height="180%">
    <feGaussianBlur stdDeviation="11" result="b"/>
    <feMerge><feMergeNode in="b"/><feMergeNode in="SourceGraphic"/></feMerge>
  </filter>

  </defs><rect width="1000" height="1000" fill="url(#bgr1x6068)"/><line x1="0" y1="-0.1" x2="1000" y2="1.0" stroke="#2060ff" stroke-opacity=".055" stroke-width="1.2"/><line x1="1.1" y1="0" x2="-2.1" y2="1000" stroke="#2060ff" stroke-opacity=".055" stroke-width="1.2"/><line x1="0" y1="99.9" x2="1000" y2="102.5" stroke="#2060ff" stroke-opacity=".055" stroke-width="1.2"/><line x1="98.9" y1="0" x2="100.6" y2="1000" stroke="#2060ff" stroke-opacity=".055" stroke-width="1.2"/><line x1="0" y1="202.4" x2="1000" y2="201.4" stroke="#2060ff" stroke-opacity=".055" stroke-width="1.2"/><line x1="200.4" y1="0" x2="198.4" y2="1000" stroke="#2060ff" stroke-opacity=".055" stroke-width="1.2"/><line x1="0" y1="301.3" x2="1000" y2="297.7" stroke="#2060ff" stroke-opacity=".055" stroke-width="1.2"/><line x1="297.7" y1="0" x2="300.2" y2="1000" stroke="#2060ff" stroke-opacity=".055" stroke-width="1.2"/><line x1="0" y1="400.7" x2="1000" y2="401.1" stroke="#2060ff" stroke-opacity=".055" stroke-width="1.2"/><line x1="399.6" y1="0" x2="399.0" y2="1000" stroke="#2060ff" stroke-opacity=".055" stroke-width="1.2"/><line x1="0" y1="497.7" x2="1000" y2="498.2" stroke="#2060ff" stroke-opacity=".055" stroke-width="1.2"/><line x1="498.7" y1="0" x2="500.5" y2="1000" stroke="#2060ff" stroke-opacity=".055" stroke-width="1.2"/><line x1="0" y1="599.4" x2="1000" y2="600.9" stroke="#2060ff" stroke-opacity=".055" stroke-width="1.2"/><line x1="597.2" y1="0" x2="601.0" y2="1000" stroke="#2060ff" stroke-opacity=".055" stroke-width="1.2"/><line x1="0" y1="701.5" x2="1000" y2="700.2" stroke="#2060ff" stroke-opacity=".055" stroke-width="1.2"/><line x1="701.6" y1="0" x2="701.5" y2="1000" stroke="#2060ff" stroke-opacity=".055" stroke-width="1.2"/><line x1="0" y1="801.6" x2="1000" y2="801.9" stroke="#2060ff" stroke-opacity=".055" stroke-width="1.2"/><line x1="797.2" y1="0" x2="800.3" y2="1000" stroke="#2060ff" stroke-opacity=".055" stroke-width="1.2"/><line x1="0" y1="902.9" x2="1000" y2="901.2" stroke="#2060ff" stroke-opacity=".055" stroke-width="1.2"/><line x1="898.1" y1="0" x2="897.5" y2="1000" stroke="#2060ff" stroke-opacity=".055" stroke-width="1.2"/><path d="M80,30 L30,30 L30,80" stroke="#2060ff" stroke-opacity=".45" stroke-width="2" fill="none" filter="url(#glowr1x6068)"/><path d="M920,30 L970,30 L970,80" stroke="#2060ff" stroke-opacity=".45" stroke-width="2" fill="none" filter="url(#glowr1x6068)"/><path d="M30,920 L30,970 L80,970" stroke="#2060ff" stroke-opacity=".45" stroke-width="2" fill="none" filter="url(#glowr1x6068)"/><path d="M970,920 L970,970 L920,970" stroke="#2060ff" stroke-opacity=".45" stroke-width="2" fill="none" filter="url(#glowr1x6068)"/><ellipse cx="500.0" cy="892.0" rx="350.0" ry="65.0" fill="rgba(0,0,0,.7)" filter="url(#bloomr1x6068)"/><ellipse cx="500.0" cy="889.0" rx="220.0" ry="34.0" fill="rgba(0,0,0,.45)"/><ellipse cx="500.0" cy="520.0" rx="320.0" ry="480.0" fill="#ff6600" fill-opacity=".042" filter="url(#bloomr1x6068)"/><circle cx="538.4" cy="470.5" r="2.8" fill="#ff6600" fill-opacity="0.84" filter="url(#glowr1x6068)"/><circle cx="582.5" cy="716.8" r="2.5" fill="#ff6600" fill-opacity="0.86" filter="url(#glowr1x6068)"/><circle cx="275.8" cy="331.5" r="0.6" fill="#ff6600" fill-opacity="0.48" filter="url(#glowr1x6068)"/><circle cx="705.3" cy="783.0" r="2.9" fill="#ff6600" fill-opacity="0.56" filter="url(#glowr1x6068)"/><circle cx="720.2" cy="781.2" r="0.7" fill="#ff6600" fill-opacity="0.42" filter="url(#glowr1x6068)"/><circle cx="434.1" cy="304.2" r="1.1" fill="#ff6600" fill-opacity="0.69" filter="url(#glowr1x6068)"/><circle cx="629.8" cy="574.6" r="0.8" fill="#ff6600" fill-opacity="0.67" filter="url(#glowr1x6068)"/><circle cx="736.2" cy="455.5" r="3.4" fill="#ff6600" fill-opacity="0.73" filter="url(#glowr1x6068)"/><circle cx="598.3" cy="351.4" r="2.8" fill="#ff6600" fill-opacity="0.39" filter="url(#glowr1x6068)"/><circle cx="422.1" cy="699.3" r="3.7" fill="#ff6600" fill-opacity="0.73" filter="url(#glowr1x6068)"/><circle cx="651.6" cy="529.2" r="1.5" fill="#ff6600" fill-opacity="0.66" filter="url(#glowr1x6068)"/><circle cx="404.8" cy="772.1" r="1.8" fill="#ff6600" fill-opacity="0.45" filter="url(#glowr1x6068)"/><circle cx="378.9" cy="208.9" r="2.1" fill="#ff6600" fill-opacity="0.82" filter="url(#glowr1x6068)"/><circle cx="641.5" cy="538.4" r="2.2" fill="#ff6600" fill-opacity="0.73" filter="url(#glowr1x6068)"/><polygon points="400.5,661.3 490.5,661.3 479.4,876.9 389.0,876.5" fill="url(#suitr1x6068)" stroke="#2060ff" stroke-width="2.2" filter="url(#skr1x6068) url(#metalr1x6068)"/><polygon points="399.1,663.9 488.2,663.9 479.6,876.0 387.4,879.1" fill="url(#carbonr1x6068)"/><polygon points="391.0,722.1 494.4,723.5 483.2,789.3 382.4,788.7" fill="url(#bevelr1x6068)" fill-opacity=".5" stroke="#2060ff" stroke-width="1.4" filter="url(#skr1x6068)"/><polygon points="510.6,661.3 603.0,663.0 612.9,875.8 518.7,877.7" fill="url(#suitr1x6068)" stroke="#2060ff" stroke-width="2.2" filter="url(#skr1x6068) url(#metalr1x6068)"/><polygon points="509.8,660.7 600.8,660.8 611.4,879.3 517.7,878.2" fill="url(#carbonr1x6068)"/><polygon points="507.4,724.2 607.9,724.9 615.4,789.7 516.7,788.4" fill="url(#bevelr1x6068)" fill-opacity=".5" stroke="#2060ff" stroke-width="1.4" filter="url(#skr1x6068)"/><rect x="393.2" y="839.0" width="100.3" height="24.7" fill="url(#bevelr1x6068)" stroke="#2060ff" stroke-width="1" filter="url(#skr1x6068)"/><rect x="505.7"  y="837.5" width="100.3" height="24.7" fill="url(#bevelr1x6068)" stroke="#2060ff" stroke-width="1" filter="url(#skr1x6068)"/><polygon points="369.7,878.9 497.7,878.0 504.8,920.7 362.0,920.7" fill="#003ccc" stroke="#2060ff" stroke-width="2" filter="url(#skr1x6068)"/><polygon points="502.2,877.1 631.1,878.5 636.5,921.1 495.7,923.0" fill="#003ccc" stroke="#2060ff" stroke-width="2" filter="url(#skr1x6068)"/><polygon points="305.3,633.8 695.8,632.7 637.7,682.6 360.6,681.2" fill="#2060ff" fill-opacity=".52" stroke="#2060ff" stroke-width="2" filter="url(#skr1x6068)"/><rect x="465.5" y="638.2" width="72.0" height="42.0" fill="url(#bevelr1x6068)" stroke="#2060ff" stroke-width="1.4" filter="url(#glowr1x6068)"/><rect x="484.6" y="639.6" width="28.0" height="22.0" rx="1" fill="rgba(255,255,255,.48)"/><polygon points="154.2,465.6 236.3,465.0 259.1,735.0 130.1,735.0" fill="url(#suitr1x6068)" stroke="#2060ff" stroke-width="2.2" filter="url(#skr1x6068) url(#metalr1x6068)"/><polygon points="174.7,432.3 252.9,432.0 242.8,510.5 160.5,510.4" fill="url(#bevelr1x6068)" fill-opacity=".72" stroke="#2060ff" stroke-width="2.2" filter="url(#skr1x6068)"/><polygon points="161.2,623.7 244.2,621.6 238.5,661.1 166.6,660.5" fill="#2060ff" fill-opacity=".42" stroke="#2060ff" stroke-width="1" filter="url(#skr1x6068)"/><polygon points="766.7,466.4 845.2,465.1 869.8,735.3 740.5,734.7" fill="url(#suitr1x6068)" stroke="#2060ff" stroke-width="2.2" filter="url(#skr1x6068) url(#metalr1x6068)"/><polygon points="747.1,432.5 824.8,430.7 840.8,509.6 756.3,509.0" fill="url(#bevelr1x6068)" fill-opacity=".72" stroke="#2060ff" stroke-width="2.2" filter="url(#skr1x6068)"/><polygon points="757.7,622.6 837.6,621.7 834.8,659.8 759.8,661.8" fill="#2060ff" fill-opacity=".42" stroke="#2060ff" stroke-width="1" filter="url(#skr1x6068)"/><rect x="121.5"  y="699.0" width="135.3" height="85.0" rx="4" fill="url(#bevelr1x6068)" stroke="#2060ff" stroke-width="1.8" filter="url(#skr1x6068)"/><rect x="750.2"   y="700.0" width="135.3" height="85.0" rx="4" fill="url(#bevelr1x6068)" stroke="#2060ff" stroke-width="1.8" filter="url(#skr1x6068)"/><line x1="151.4" y1="700.3" x2="150.8" y2="782.2" stroke="#2060ff" stroke-opacity=".38" stroke-width="1"/><line x1="778.2" y1="703.4" x2="777.6" y2="782.8" stroke="#2060ff" stroke-opacity=".38" stroke-width="1"/><line x1="183.8" y1="700.4" x2="183.0" y2="784.2" stroke="#2060ff" stroke-opacity=".38" stroke-width="1"/><line x1="811.2" y1="701.9" x2="811.0" y2="785.2" stroke="#2060ff" stroke-opacity=".38" stroke-width="1"/><line x1="215.5" y1="700.1" x2="216.5" y2="783.2" stroke="#2060ff" stroke-opacity=".38" stroke-width="1"/><line x1="843.7" y1="700.4" x2="844.3" y2="782.7" stroke="#2060ff" stroke-opacity=".38" stroke-width="1"/><polygon points="234.3,416.9 764.9,417.5 723.5,664.3 277.7,660.7" fill="url(#suitr1x6068)" stroke="#2060ff" stroke-width="2.6" filter="url(#skr1x6068) url(#metalr1x6068)"/><polygon points="233.7,417.8 764.8,416.7 721.1,662.2 276.5,662.7" fill="url(#carbonr1x6068)"/><polygon points="366.8,417.6 632.6,417.2 611.9,514.2 387.0,516.7" fill="url(#suitHir1x6068)"/><line x1="362.7" y1="470.5" x2="636.1" y2="472.0" stroke="#2060ff" stroke-opacity=".52" stroke-width="1.3" filter="url(#skr1x6068)"/><line x1="397.9" y1="550.5" x2="601.3" y2="551.4" stroke="#2060ff" stroke-opacity=".52" stroke-width="1.3" filter="url(#skr1x6068)"/><line x1="265.1" y1="491.9" x2="320.7" y2="489.9" stroke="#2060ff" stroke-opacity=".62" stroke-width="1.8"/><line x1="681.8" y1="490.8" x2="734.5" y2="492.8" stroke="#2060ff" stroke-opacity=".62" stroke-width="1.8"/><line x1="265.2" y1="523.0" x2="319.1" y2="522.4" stroke="#2060ff" stroke-opacity=".62" stroke-width="1.8"/><line x1="682.0" y1="523.7" x2="731.7" y2="521.3" stroke="#2060ff" stroke-opacity=".62" stroke-width="1.8"/><line x1="266.7" y1="554.1" x2="320.4" y2="555.7" stroke="#2060ff" stroke-opacity=".62" stroke-width="1.8"/><line x1="680.7" y1="555.9" x2="734.5" y2="555.8" stroke="#2060ff" stroke-opacity=".62" stroke-width="1.8"/><line x1="265.5" y1="584.8" x2="319.8" y2="586.4" stroke="#2060ff" stroke-opacity=".62" stroke-width="1.8"/><line x1="681.6" y1="586.2" x2="732.5" y2="584.9" stroke="#2060ff" stroke-opacity=".62" stroke-width="1.8"/><g filter="url(#glowr1x6068)"><ellipse cx="500.1" cy="509.5" rx="42.9" ry="23.2" fill="#000a14" stroke="#2060ff" stroke-width="1.6" filter="url(#skr1x6068)"/><circle cx="498.9" cy="509.8" r="15.1" fill="#2060ff"/><circle cx="496.8" cy="506.5" r="5.8" fill="#000a14"/><ellipse cx="493.9" cy="505.1" rx="3.5" ry="2.3" fill="rgba(255,255,255,.7)"/></g><g><polygon points="871.8,671.4 923.8,671.4 908.2,-28.6 887.4,-28.6" fill="url(#blader1x6068)" filter="url(#wmr1x6068)"/><polygon points="887.4,-28.6 908.2,-28.6 897.8,-138.6" fill="url(#blader1x6068)" filter="url(#wmr1x6068)"/><polygon points="896.0,671.4 899.7,671.4 898.4,-128.6 897.3,-128.6" fill="url(#bladeTipr1x6068)" opacity=".9"/><line x1="907.0684942063876" y1="671.0680077678524" x2="900.628191708792" y2="-130.36805697605016" stroke="rgba(255,255,255,.68)" stroke-width="1.5"/><line x1="890.279579374306" y1="670.7951910705306" x2="896.2710366299376" y2="-129.18126267651098" stroke="#2060ff" stroke-width="1" stroke-opacity=".45"/><line x1="902.5" y1="651.4" x2="899.7" y2="11.4" stroke="rgba(0,0,0,.38)" stroke-width="1.6"/><line x1="893.2" y1="651.4" x2="896.0" y2="11.4" stroke="rgba(0,0,0,.38)" stroke-width="1.6"/><rect x="841.6189974260144" y="669.2392538005486" width="112.0" height="28.0" rx="3" fill="url(#bevelr1x6068)" stroke="#2060ff" stroke-width="1.6" filter="url(#wmr1x6068)"/><rect x="864.0614494947345" y="671.9642400355078" width="64.0" height="10.0" rx="1" fill="rgba(255,255,255,.32)"/><rect x="887.1115146104805" y="676.2710282376967" width="24.0" height="6.0" rx="1" fill="#2060ff" fill-opacity=".35"/><rect x="887.3020824663901" y="685.5782541603782" width="24.0" height="6.0" rx="1" fill="#2060ff" fill-opacity=".35"/><rect x="886.458331634067" y="692.7479207349941" width="24.0" height="6.0" rx="1" fill="#2060ff" fill-opacity=".35"/><rect x="885.0066552099399" y="702.5428034381009" width="24.0" height="6.0" rx="1" fill="#2060ff" fill-opacity=".35"/><rect x="884.3023231354169" y="708.9733150197193" width="24.0" height="6.0" rx="1" fill="#2060ff" fill-opacity=".35"/><rect x="887.2761686660908" y="717.9982297515496" width="24.0" height="6.0" rx="1" fill="#2060ff" fill-opacity=".35"/><ellipse cx="897.714048178643" cy="726.4311402069404" rx="22.0" ry="16.0" fill="url(#bevelr1x6068)" stroke="#2060ff" stroke-width="1.2" filter="url(#wmr1x6068)"/></g><rect x="450.3249249785207" y="556.089748839289" width="100.0"  height="56.0" fill="#003ccc" stroke="#2060ff" stroke-width="2.2" filter="url(#skr1x6068)"/><rect x="425.7930410942063" y="574.9152172345669" width="152.0" height="26.0" fill="url(#bevelr1x6068)" fill-opacity=".65" stroke="#2060ff" stroke-width="1.2" filter="url(#skr1x6068)"/><polygon points="309.7,380.5 349.2,293.3 498.9,276.3 650.3,292.7 691.7,380.1 667.8,503.8 499.2,565.5 330.9,505.0" fill="url(#suitr1x6068)" stroke="#2060ff" stroke-width="2.8" filter="url(#skr1x6068) url(#metalr1x6068)"/><polygon points="307.8,381.5 350.2,292.8 500.9,279.9 648.6,295.0 691.1,381.5 670.0,503.8 498.4,563.7 331.5,502.0" fill="url(#carbonr1x6068)"/><polygon points="382.1,303.5 498.3,287.9 619.6,303.7 605.8,379.0 393.0,379.8" fill="url(#suitHir1x6068)"/><polygon points="382.0,381.1 366.3,426.5 432.0,504.0 499.5,526.6 568.4,502.8 635.2,424.7 618.2,381.6" fill="#000a14" fill-opacity=".88" stroke="#2060ff" stroke-width="1.8" filter="url(#skr1x6068)"/><polygon points="380.8,413.1 475.9,410.9 484.5,438.9 387.5,440.5" fill="#2060ff" filter="url(#glowr1x6068)"/><polygon points="521.7,411.9 617.8,412.0 611.9,440.3 514.3,438.3" fill="#2060ff" filter="url(#glowr1x6068)"/><ellipse cx="430.9" cy="425.7" rx="38.4"  ry="8.2" fill="#ffffff" opacity=".88"/><ellipse cx="569.1" cy="425.7" rx="38.4"  ry="8.2" fill="#ffffff" opacity=".88"/><line x1="484.9781594554521" y1="412.00081005273387" x2="515.4265709458292" y2="414.8030060190707" stroke="#2060ff" stroke-opacity=".52" stroke-width="2"/><line x1="485.57799513438715" y1="437.46056610066444" x2="515.5629781503603" y2="439.0426798688248" stroke="#2060ff" stroke-opacity=".52" stroke-width="2"/><line x1="500.02869603391736" y1="452.98293155133723" x2="498.70720110712574" y2="484.19472450204194" stroke="#2060ff" stroke-opacity=".58" stroke-width="2.2" filter="url(#skr1x6068)"/><line x1="452.263255367782" y1="490.3158351963385" x2="453.2216691653058" y2="519.8567351187579" stroke="#2060ff" stroke-opacity=".52" stroke-width="1.5" filter="url(#skr1x6068)"/><line x1="478.6344680449366" y1="490.51039700228716" x2="476.38751417187973" y2="518.6845285896212" stroke="#2060ff" stroke-opacity=".52" stroke-width="1.5" filter="url(#skr1x6068)"/><line x1="500.74787131398915" y1="491.54808548465365" x2="498.73133098110554" y2="521.2516865798273" stroke="#2060ff" stroke-opacity=".52" stroke-width="1.5" filter="url(#skr1x6068)"/><line x1="523.8275528696925" y1="491.2898387746885" x2="522.6182271561213" y2="519.6893775213509" stroke="#2060ff" stroke-opacity=".52" stroke-width="1.5" filter="url(#skr1x6068)"/><line x1="545.4734814405628" y1="491.98623488843435" x2="544.7310081619024" y2="518.208107177075" stroke="#2060ff" stroke-opacity=".52" stroke-width="1.5" filter="url(#skr1x6068)"/><polygon points="431.8,503.2 568.8,503.0 554.0,558.2 445.5,555.4" fill="#003ccc" fill-opacity=".72" stroke="#2060ff" stroke-width="1.3" filter="url(#skr1x6068)"/><text x="30.0"  y="975.0" font-family="monospace" font-weight="bold" font-size="22.0" fill="rgba(255,255,255,.22)">#0001</text><text x="500.0"   y="975.0" text-anchor="middle" font-family="monospace" font-weight="bold" font-size="22.0" fill="#2060ff" fill-opacity=".48">COBALT RANGER</text><text x="970.0" y="975.0" text-anchor="end"    font-family="monospace" font-weight="bold" font-size="22.0" fill="#2060ff" fill-opacity=".32">MECH RANGERS</text></svg>