<svg xmlns="http://www.w3.org/2000/svg" viewBox="0 0 1000 1000" width="1000" height="1000" shape-rendering="geometricPrecision"><defs>

  <!-- Scene gradients -->
  <radialGradient id="bgr1x6072" cx="50%" cy="42%" r="72%">
    <stop offset="0%"   stop-color="#0a0a14"/>
    <stop offset="100%" stop-color="#050508"/>
  </radialGradient>
  <linearGradient id="suitr1x6072" x1="8%" y1="0%" x2="92%" y2="100%">
    <stop offset="0%"   stop-color="#00ff60" stop-opacity=".95"/>
    <stop offset="45%"  stop-color="#00441e"/>
    <stop offset="100%" stop-color="#050508"/>
  </linearGradient>
  <linearGradient id="suitHir1x6072" x1="0%" y1="0%" x2="0%" y2="100%">
    <stop offset="0%"   stop-color="rgba(255,255,255,.28)"/>
    <stop offset="60%"  stop-color="rgba(255,255,255,.04)"/>
    <stop offset="100%" stop-color="rgba(255,255,255,0)"/>
  </linearGradient>
  <!-- Bevel: bright top, dark bottom for armour panels -->
  <linearGradient id="bevelr1x6072" x1="0%" y1="0%" x2="0%" y2="100%">
    <stop offset="0%"   stop-color="rgba(255,255,255,.55)"/>
    <stop offset="30%"  stop-color="#00ff60"/>
    <stop offset="70%"  stop-color="#00441e"/>
    <stop offset="100%" stop-color="rgba(0,0,0,.5)"/>
  </linearGradient>

  <!-- Weapon: cold steel blade sweep -->
  <linearGradient id="blader1x6072" x1="0%" y1="0%" x2="100%" y2="0%">
    <stop offset="0%"   stop-color="#0e0e20"/>
    <stop offset="16%"  stop-color="#3e3e58"/>
    <stop offset="34%"  stop-color="#c8c8e0"/>
    <stop offset="50%"  stop-color="#f5f5ff"/>
    <stop offset="66%"  stop-color="#b8b8d0"/>
    <stop offset="84%"  stop-color="#2e2e48"/>
    <stop offset="100%" stop-color="#08080e"/>
  </linearGradient>
  <!-- Blade tip brightening -->
  <linearGradient id="bladeTipr1x6072" x1="0%" y1="100%" x2="0%" y2="0%">
    <stop offset="0%"   stop-color="rgba(255,255,255,0)"/>
    <stop offset="55%"  stop-color="rgba(255,255,255,.1)"/>
    <stop offset="100%" stop-color="rgba(255,255,255,.55)"/>
  </linearGradient>
  <!-- Gunmetal anodised — blaster body -->
  <linearGradient id="gunmetalr1x6072" x1="0%" y1="0%" x2="0%" y2="100%">
    <stop offset="0%"   stop-color="#46465e"/>
    <stop offset="18%"  stop-color="#828296"/>
    <stop offset="42%"  stop-color="#26263a"/>
    <stop offset="72%"  stop-color="#16162a"/>
    <stop offset="100%" stop-color="#0c0c18"/>
  </linearGradient>
  <!-- Brushed steel tube — barrel/rod -->
  <linearGradient id="barrelr1x6072" x1="0%" y1="0%" x2="100%" y2="0%">
    <stop offset="0%"   stop-color="#0a0a14"/>
    <stop offset="24%"  stop-color="#585875"/>
    <stop offset="50%"  stop-color="#a8a8c8"/>
    <stop offset="76%"  stop-color="#383852"/>
    <stop offset="100%" stop-color="#0a0a14"/>
  </linearGradient>
  <!-- Chrome rod — lance shaft -->
  <linearGradient id="chromer1x6072" x1="0%" y1="0%" x2="100%" y2="0%">
    <stop offset="0%"   stop-color="#0c0c18"/>
    <stop offset="20%"  stop-color="#686888"/>
    <stop offset="44%"  stop-color="#e0e0f0"/>
    <stop offset="56%"  stop-color="#c0c0d8"/>
    <stop offset="80%"  stop-color="#28283e"/>
    <stop offset="100%" stop-color="#0c0c18"/>
  </linearGradient>
  <!-- Titanium plate — shield face -->
  <linearGradient id="titaniumr1x6072" x1="0%" y1="0%" x2="100%" y2="100%">
    <stop offset="0%"   stop-color="#585878"/>
    <stop offset="28%"  stop-color="#00ff60" stop-opacity=".88"/>
    <stop offset="55%"  stop-color="#00441e"/>
    <stop offset="80%"  stop-color="#181828"/>
    <stop offset="100%" stop-color="#0a0a18"/>
  </linearGradient>
  <!-- Artillery black-chrome — cannon body -->
  <linearGradient id="artilleryr1x6072" x1="0%" y1="0%" x2="0%" y2="100%">
    <stop offset="0%"   stop-color="#383850"/>
    <stop offset="14%"  stop-color="#78789a"/>
    <stop offset="36%"  stop-color="#202034"/>
    <stop offset="65%"  stop-color="#14141e"/>
    <stop offset="100%" stop-color="#0a0a12"/>
  </linearGradient>
  <!-- Energy orb — staff -->
  <radialGradient id="orbr1x6072" cx="35%" cy="35%" r="65%">
    <stop offset="0%"   stop-color="rgba(255,255,255,.9)"/>
    <stop offset="30%"  stop-color="#00ff60"/>
    <stop offset="68%"  stop-color="#00441e"/>
    <stop offset="100%" stop-color="rgba(0,0,0,.6)"/>
  </radialGradient>
  <!-- Knuckle plate chrome -->
  <linearGradient id="knuckler1x6072" x1="0%" y1="0%" x2="0%" y2="100%">
    <stop offset="0%"   stop-color="#888aaa"/>
    <stop offset="32%"  stop-color="#00ff60" stop-opacity=".8"/>
    <stop offset="62%"  stop-color="#1a1a2c"/>
    <stop offset="100%" stop-color="#0a0a14"/>
  </linearGradient>

  <!-- Carbon fibre weave texture overlay -->
  <pattern id="carbonr1x6072" width="6" height="6" patternUnits="userSpaceOnUse">
    <rect width="6" height="6" fill="rgba(0,0,0,.08)"/>
    <rect x="0" y="0" width="3" height="3" fill="rgba(255,255,255,.022)"/>
    <rect x="3" y="3" width="3" height="3" fill="rgba(255,255,255,.022)"/>
    <line x1="0" y1="0" x2="3" y2="3" stroke="rgba(255,255,255,.038)" stroke-width=".5"/>
    <line x1="3" y1="0" x2="6" y2="3" stroke="rgba(0,0,0,.055)"       stroke-width=".5"/>
    <line x1="0" y1="3" x2="3" y2="6" stroke="rgba(0,0,0,.055)"       stroke-width=".5"/>
    <line x1="3" y1="3" x2="6" y2="6" stroke="rgba(255,255,255,.038)" stroke-width=".5"/>
  </pattern>

  <!-- Specular metal sheen on armour panels -->
  <filter id="metalr1x6072" x="-5%" y="-5%" width="110%" height="110%">
    <feSpecularLighting surfaceScale="4" specularConstant="1.8"
        specularExponent="42" lighting-color="#ffffff" result="spec">
      <feDistantLight elevation="52" azimuth="38"/>
    </feSpecularLighting>
    <feComposite in="spec" in2="SourceGraphic" operator="in" result="sm"/>
    <feComposite in="SourceGraphic" in2="sm" operator="arithmetic" k1="0" k2="1" k3="0.55" k4="0"/>
  </filter>

  <!-- Sharper specular for weapons — heavier glare -->
  <filter id="wmr1x6072" x="-8%" y="-8%" width="116%" height="116%">
    <feSpecularLighting surfaceScale="6" specularConstant="2.4"
        specularExponent="65" lighting-color="#ffffff" result="spec">
      <feDistantLight elevation="44" azimuth="28"/>
    </feSpecularLighting>
    <feComposite in="spec" in2="SourceGraphic" operator="in" result="sm"/>
    <feComposite in="SourceGraphic" in2="sm" operator="arithmetic" k1="0" k2="1" k3="0.78" k4="0"/>
  </filter>

  <!-- Sketch wobble -->
  <filter id="skr1x6072" x="-8%" y="-8%" width="116%" height="116%">
    <feTurbulence type="fractalNoise" baseFrequency="0.038"
        numOctaves="3" seed="70" result="noise"/>
    <feDisplacementMap in="SourceGraphic" in2="noise" scale="2.6"
        xChannelSelector="R" yChannelSelector="G" result="w"/>
    <feComposite in="w" in2="SourceGraphic" operator="atop"/>
  </filter>

  <!-- Glow: sharp accent -->
  <filter id="glowr1x6072" x="-20%" y="-20%" width="140%" height="140%">
    <feGaussianBlur stdDeviation="3.5" result="b"/>
    <feColorMatrix in="b" type="matrix"
        values="0 0 0 0 1  0 0 0 0 1  0 0 0 0 1  0 0 0 1.8 0" result="boost"/>
    <feMerge><feMergeNode in="boost"/><feMergeNode in="SourceGraphic"/></feMerge>
  </filter>

  <!-- Bloom: wide soft -->
  <filter id="bloomr1x6072" x="-40%" y="-40%" width="180%" height="180%">
    <feGaussianBlur stdDeviation="11" result="b"/>
    <feMerge><feMergeNode in="b"/><feMergeNode in="SourceGraphic"/></feMerge>
  </filter>

  </defs><rect width="1000" height="1000" fill="url(#bgr1x6072)"/><ellipse cx="500.0" cy="892.0" rx="350.0" ry="65.0" fill="rgba(0,0,0,.7)" filter="url(#bloomr1x6072)"/><ellipse cx="500.0" cy="889.0" rx="220.0" ry="34.0" fill="rgba(0,0,0,.45)"/><ellipse cx="500.0" cy="520.0" rx="320.0" ry="480.0" fill="#ff6600" fill-opacity=".042" filter="url(#bloomr1x6072)"/><circle cx="654.9" cy="281.5" r="1.7" fill="#ff6600" fill-opacity="0.78" filter="url(#glowr1x6072)"/><circle cx="402.6" cy="777.9" r="1.6" fill="#ff6600" fill-opacity="0.44" filter="url(#glowr1x6072)"/><circle cx="327.0" cy="602.5" r="1.7" fill="#ff6600" fill-opacity="0.49" filter="url(#glowr1x6072)"/><circle cx="329.7" cy="240.7" r="3.3" fill="#ff6600" fill-opacity="0.41" filter="url(#glowr1x6072)"/><circle cx="324.7" cy="369.1" r="1.9" fill="#ff6600" fill-opacity="0.52" filter="url(#glowr1x6072)"/><circle cx="679.9" cy="617.2" r="3.7" fill="#ff6600" fill-opacity="0.62" filter="url(#glowr1x6072)"/><circle cx="664.3" cy="255.1" r="3.0" fill="#ff6600" fill-opacity="0.67" filter="url(#glowr1x6072)"/><circle cx="739.1" cy="534.8" r="4.0" fill="#ff6600" fill-opacity="0.44" filter="url(#glowr1x6072)"/><circle cx="360.0" cy="614.0" r="1.5" fill="#ff6600" fill-opacity="0.56" filter="url(#glowr1x6072)"/><circle cx="699.2" cy="759.5" r="2.2" fill="#ff6600" fill-opacity="0.72" filter="url(#glowr1x6072)"/><circle cx="746.5" cy="283.9" r="1.8" fill="#ff6600" fill-opacity="0.89" filter="url(#glowr1x6072)"/><circle cx="395.4" cy="678.0" r="0.6" fill="#ff6600" fill-opacity="0.41" filter="url(#glowr1x6072)"/><circle cx="642.4" cy="732.3" r="1.2" fill="#ff6600" fill-opacity="0.65" filter="url(#glowr1x6072)"/><circle cx="522.5" cy="193.1" r="2.3" fill="#ff6600" fill-opacity="0.51" filter="url(#glowr1x6072)"/><polygon points="399.2,663.9 487.9,662.4 481.9,878.1 386.1,877.8" fill="url(#suitr1x6072)" stroke="#00ff60" stroke-width="2.2" filter="url(#skr1x6072) url(#metalr1x6072)"/><polygon points="398.7,664.0 489.2,661.4 481.0,876.4 386.5,878.3" fill="url(#carbonr1x6072)"/><polygon points="391.7,723.6 493.4,722.0 483.4,789.9 384.0,789.7" fill="url(#bevelr1x6072)" fill-opacity=".5" stroke="#00ff60" stroke-width="1.4" filter="url(#skr1x6072)"/><polygon points="510.3,662.0 602.1,662.8 612.3,877.0 518.3,877.8" fill="url(#suitr1x6072)" stroke="#00ff60" stroke-width="2.2" filter="url(#skr1x6072) url(#metalr1x6072)"/><polygon points="512.4,663.6 602.6,662.7 611.0,877.6 517.9,877.1" fill="url(#carbonr1x6072)"/><polygon points="507.8,723.8 607.1,725.5 614.8,788.9 516.9,786.5" fill="url(#bevelr1x6072)" fill-opacity=".5" stroke="#00ff60" stroke-width="1.4" filter="url(#skr1x6072)"/><rect x="391.9" y="840.2" width="100.3" height="24.7" fill="url(#bevelr1x6072)" stroke="#00ff60" stroke-width="1" filter="url(#skr1x6072)"/><rect x="507.1"  y="837.9" width="100.3" height="24.7" fill="url(#bevelr1x6072)" stroke="#00ff60" stroke-width="1" filter="url(#skr1x6072)"/><polygon points="370.4,878.0 495.2,878.5 505.2,920.8 361.9,920.5" fill="#00441e" stroke="#00ff60" stroke-width="2" filter="url(#skr1x6072)"/><polygon points="504.8,879.1 630.7,876.7 636.5,921.7 496.6,921.1" fill="#00441e" stroke="#00ff60" stroke-width="2" filter="url(#skr1x6072)"/><polygon points="304.4,634.7 695.2,634.1 637.8,681.7 363.3,681.0" fill="#00ff60" fill-opacity=".52" stroke="#00ff60" stroke-width="2" filter="url(#skr1x6072)"/><rect x="462.9" y="637.3" width="72.0" height="42.0" fill="url(#bevelr1x6072)" stroke="#00ff60" stroke-width="1.4" filter="url(#glowr1x6072)"/><rect x="487.2" y="641.0" width="28.0" height="22.0" rx="1" fill="rgba(255,255,255,.48)"/><polygon points="153.5,467.5 234.6,467.8 256.8,734.6 128.0,735.2" fill="url(#suitr1x6072)" stroke="#00ff60" stroke-width="2.2" filter="url(#skr1x6072) url(#metalr1x6072)"/><polygon points="173.3,430.8 253.9,431.7 242.4,511.0 161.1,511.8" fill="url(#bevelr1x6072)" fill-opacity=".72" stroke="#00ff60" stroke-width="2.2" filter="url(#skr1x6072)"/><polygon points="161.5,623.6 243.9,622.3 240.6,661.9 167.1,661.0" fill="#00ff60" fill-opacity=".42" stroke="#00ff60" stroke-width="1" filter="url(#skr1x6072)"/><polygon points="765.6,466.1 845.5,466.6 872.8,736.4 740.8,736.3" fill="url(#suitr1x6072)" stroke="#00ff60" stroke-width="2.2" filter="url(#skr1x6072) url(#metalr1x6072)"/><polygon points="746.5,433.3 825.6,431.1 839.8,508.9 757.7,511.6" fill="url(#bevelr1x6072)" fill-opacity=".72" stroke="#00ff60" stroke-width="2.2" filter="url(#skr1x6072)"/><polygon points="755.1,623.2 837.3,620.2 835.9,659.8 761.8,661.5" fill="#00ff60" fill-opacity=".42" stroke="#00ff60" stroke-width="1" filter="url(#skr1x6072)"/><rect x="121.7"  y="699.3" width="135.3" height="85.0" rx="4" fill="url(#bevelr1x6072)" stroke="#00ff60" stroke-width="1.8" filter="url(#skr1x6072)"/><rect x="747.7"   y="700.6" width="135.3" height="85.0" rx="4" fill="url(#bevelr1x6072)" stroke="#00ff60" stroke-width="1.8" filter="url(#skr1x6072)"/><line x1="151.2" y1="703.3" x2="148.8" y2="782.2" stroke="#00ff60" stroke-opacity=".38" stroke-width="1"/><line x1="779.3" y1="700.7" x2="776.7" y2="783.0" stroke="#00ff60" stroke-opacity=".38" stroke-width="1"/><line x1="181.6" y1="702.5" x2="182.7" y2="782.2" stroke="#00ff60" stroke-opacity=".38" stroke-width="1"/><line x1="810.1" y1="701.7" x2="810.1" y2="784.4" stroke="#00ff60" stroke-opacity=".38" stroke-width="1"/><line x1="213.6" y1="701.8" x2="214.7" y2="783.3" stroke="#00ff60" stroke-opacity=".38" stroke-width="1"/><line x1="843.7" y1="700.8" x2="844.2" y2="784.2" stroke="#00ff60" stroke-opacity=".38" stroke-width="1"/><polygon points="236.3,418.1 764.3,415.9 721.7,663.6 278.7,663.1" fill="url(#suitr1x6072)" stroke="#00ff60" stroke-width="2.6" filter="url(#skr1x6072) url(#metalr1x6072)"/><polygon points="235.3,416.3 766.6,417.5 723.3,663.3 277.7,660.9" fill="url(#carbonr1x6072)"/><polygon points="368.5,417.5 632.4,417.6 612.0,514.2 387.2,515.8" fill="url(#suitHir1x6072)"/><line x1="361.2" y1="470.0" x2="636.9" y2="471.3" stroke="#00ff60" stroke-opacity=".52" stroke-width="1.3" filter="url(#skr1x6072)"/><line x1="399.2" y1="549.8" x2="600.3" y2="550.6" stroke="#00ff60" stroke-opacity=".52" stroke-width="1.3" filter="url(#skr1x6072)"/><line x1="265.2" y1="491.5" x2="318.7" y2="491.4" stroke="#00ff60" stroke-opacity=".62" stroke-width="1.8"/><line x1="679.9" y1="489.9" x2="732.0" y2="492.1" stroke="#00ff60" stroke-opacity=".62" stroke-width="1.8"/><line x1="266.9" y1="521.4" x2="319.1" y2="521.4" stroke="#00ff60" stroke-opacity=".62" stroke-width="1.8"/><line x1="680.0" y1="524.1" x2="733.2" y2="522.1" stroke="#00ff60" stroke-opacity=".62" stroke-width="1.8"/><line x1="265.6" y1="555.3" x2="318.0" y2="555.9" stroke="#00ff60" stroke-opacity=".62" stroke-width="1.8"/><line x1="679.7" y1="555.9" x2="734.3" y2="555.3" stroke="#00ff60" stroke-opacity=".62" stroke-width="1.8"/><line x1="267.1" y1="586.7" x2="321.0" y2="586.1" stroke="#00ff60" stroke-opacity=".62" stroke-width="1.8"/><line x1="679.6" y1="588.3" x2="733.7" y2="588.3" stroke="#00ff60" stroke-opacity=".62" stroke-width="1.8"/><g filter="url(#glowr1x6072)"><polygon points="500.0,453.6 514.0,490.8 556.8,493.0 525.1,518.9 535.8,559.2 498.5,536.1 467.2,557.3 475.3,519.0 444.2,491.5 484.9,491.6 " fill="#00ff60" stroke="#050508" stroke-width="1.4" filter="url(#skr1x6072)"/><polygon points="500.0,453.6 514.0,490.8 556.8,493.0 525.1,518.9 535.8,559.2 498.5,536.1 467.2,557.3 475.3,519.0 444.2,491.5 484.9,491.6 " fill="url(#suitHir1x6072)" opacity=".45"/></g><g><line x1="101.0356943132728" y1="790.2061572709121" x2="84.68288109418002" y2="109.71677179588002" stroke="url(#chromer1x6072)" stroke-width="28.0" stroke-linecap="round" filter="url(#wmr1x6072)"/><line x1="97.74348061861467" y1="773.1410149171016" x2="88.4257416895963" y2="132.35225007114929" stroke="rgba(255,255,255,.42)" stroke-width="5.0" stroke-linecap="round"/><polygon points="75.7,151.1 141.4,153.1 83.3,-7.1" fill="url(#blader1x6072)" stroke="#00ff60" stroke-width="1.8" filter="url(#wmr1x6072)"/><line x1="140.2" y1="151.4" x2="84.2" y2="-8.6" stroke="rgba(255,255,255,.72)" stroke-width="1.6"/><rect x="84.56774417482313" y="422.4740918640047" width="40.0" height="20.0" fill="url(#bevelr1x6072)" stroke="#00ff60" stroke-width="1" filter="url(#wmr1x6072)"/><rect x="83.5543637916818" y="512.42708600685" width="40.0" height="20.0" fill="url(#bevelr1x6072)" stroke="#00ff60" stroke-width="1" filter="url(#wmr1x6072)"/><rect x="84.1469060724042" y="601.6111985946073" width="40.0" height="20.0" fill="url(#bevelr1x6072)" stroke="#00ff60" stroke-width="1" filter="url(#wmr1x6072)"/><rect x="84.80074711538848" y="691.2083234278485" width="40.0" height="20.0" fill="url(#bevelr1x6072)" stroke="#00ff60" stroke-width="1" filter="url(#wmr1x6072)"/><ellipse cx="101.77298546185713" cy="792.5042723463848" rx="22.0" ry="15.0" fill="url(#bevelr1x6072)" stroke="#00ff60" stroke-width="1" filter="url(#wmr1x6072)"/></g><rect x="449.60087348772214" y="557.5345903402194" width="100.0"  height="56.0" fill="#00441e" stroke="#00ff60" stroke-width="2.2" filter="url(#skr1x6072)"/><rect x="423.8855525980704" y="574.1695714214817" width="152.0" height="26.0" fill="url(#bevelr1x6072)" fill-opacity=".65" stroke="#00ff60" stroke-width="1.2" filter="url(#skr1x6072)"/><polygon points="308.5,379.3 349.2,293.7 498.4,277.9 648.9,294.9 690.9,379.8 669.9,502.8 500.6,563.7 331.3,502.6" fill="url(#suitr1x6072)" stroke="#00ff60" stroke-width="2.8" filter="url(#skr1x6072) url(#metalr1x6072)"/><polygon points="307.6,379.0 350.3,293.2 500.7,279.8 649.8,294.3 692.3,380.9 668.1,504.6 499.7,566.3 330.5,502.4" fill="url(#carbonr1x6072)"/><polygon points="380.9,302.5 500.6,285.0 618.9,303.2 606.9,379.6 390.9,380.4" fill="url(#suitHir1x6072)"/><polygon points="379.2,382.3 366.1,426.5 433.7,505.0 499.2,528.7 566.1,505.3 634.5,425.3 620.0,379.6" fill="#050508" fill-opacity=".88" stroke="#00ff60" stroke-width="1.8" filter="url(#skr1x6072)"/><polygon points="382.1,411.3 477.6,410.2 485.8,439.8 387.3,440.6" fill="#00ff60" filter="url(#glowr1x6072)"/><polygon points="524.2,411.4 620.2,412.2 610.5,438.9 513.8,440.8" fill="#00ff60" filter="url(#glowr1x6072)"/><ellipse cx="430.9" cy="425.7" rx="38.4"  ry="8.2" fill="#ffffff" opacity=".88"/><ellipse cx="569.1" cy="425.7" rx="38.4"  ry="8.2" fill="#ffffff" opacity=".88"/><line x1="485.7773842971399" y1="412.2560631768778" x2="513.5988927155174" y2="414.49870920181274" stroke="#00ff60" stroke-opacity=".52" stroke-width="2"/><line x1="485.40707901507614" y1="436.61675852788613" x2="515.7608648628369" y2="436.79993026703596" stroke="#00ff60" stroke-opacity=".52" stroke-width="2"/><line x1="500.9836989483796" y1="455.42428945107383" x2="499.92367805512623" y2="481.6960316504352" stroke="#00ff60" stroke-opacity=".58" stroke-width="2.2" filter="url(#skr1x6072)"/><line x1="454.10621990038084" y1="492.93841375615443" x2="454.14345477854835" y2="519.8129749340005" stroke="#00ff60" stroke-opacity=".52" stroke-width="1.5" filter="url(#skr1x6072)"/><line x1="475.36810677371915" y1="491.3957353680394" x2="477.78145267743616" y2="521.5503356195986" stroke="#00ff60" stroke-opacity=".52" stroke-width="1.5" filter="url(#skr1x6072)"/><line x1="498.32255569295955" y1="492.2596594832837" x2="500.96632138807325" y2="521.252714086324" stroke="#00ff60" stroke-opacity=".52" stroke-width="1.5" filter="url(#skr1x6072)"/><line x1="523.9184360973164" y1="490.81097186980764" x2="524.0044053336233" y2="518.2385423502885" stroke="#00ff60" stroke-opacity=".52" stroke-width="1.5" filter="url(#skr1x6072)"/><line x1="545.8687586090714" y1="493.0771450889296" x2="544.4237753718347" y2="518.215484027192" stroke="#00ff60" stroke-opacity=".52" stroke-width="1.5" filter="url(#skr1x6072)"/><polygon points="433.2,502.1 566.9,501.9 553.2,556.4 445.1,555.3" fill="#00441e" fill-opacity=".72" stroke="#00ff60" stroke-width="1.3" filter="url(#skr1x6072)"/><polygon points="315.2,303.6 362.7,305.3 339.3,195.1" fill="url(#bevelr1x6072)" fill-opacity=".95" stroke="#00ff60" stroke-width="1.6" filter="url(#skr1x6072) url(#glowr1x6072)"/><polygon points="395.0,305.1 440.7,305.8 420.7,210.2" fill="url(#bevelr1x6072)" fill-opacity=".95" stroke="#00ff60" stroke-width="1.6" filter="url(#skr1x6072) url(#glowr1x6072)"/><polygon points="477.3,305.0 524.6,305.3 500.9,221.5" fill="url(#bevelr1x6072)" fill-opacity=".95" stroke="#00ff60" stroke-width="1.6" filter="url(#skr1x6072) url(#glowr1x6072)"/><polygon points="559.4,306.5 602.6,303.0 579.4,209.2" fill="url(#bevelr1x6072)" fill-opacity=".95" stroke="#00ff60" stroke-width="1.6" filter="url(#skr1x6072) url(#glowr1x6072)"/><polygon points="637.8,305.3 683.2,304.4 660.8,196.3" fill="url(#bevelr1x6072)" fill-opacity=".95" stroke="#00ff60" stroke-width="1.6" filter="url(#skr1x6072) url(#glowr1x6072)"/><text x="30.0"  y="975.0" font-family="monospace" font-weight="bold" font-size="22.0" fill="rgba(255,255,255,.22)">#0001</text><text x="500.0"   y="975.0" text-anchor="middle" font-family="monospace" font-weight="bold" font-size="22.0" fill="#00ff60" fill-opacity=".48">VIPER RANGER</text><text x="970.0" y="975.0" text-anchor="end"    font-family="monospace" font-weight="bold" font-size="22.0" fill="#00ff60" fill-opacity=".32">MECH RANGERS</text></svg>