<svg xmlns="http://www.w3.org/2000/svg" viewBox="0 0 1000 1000" width="1000" height="1000" shape-rendering="geometricPrecision"><defs>

  <!-- Scene gradients -->
  <radialGradient id="bgr1x6074" cx="50%" cy="42%" r="72%">
    <stop offset="0%"   stop-color="#001422"/>
    <stop offset="100%" stop-color="#000a14"/>
  </radialGradient>
  <linearGradient id="suitr1x6074" x1="8%" y1="0%" x2="92%" y2="100%">
    <stop offset="0%"   stop-color="#00ff60" stop-opacity=".95"/>
    <stop offset="45%"  stop-color="#00441e"/>
    <stop offset="100%" stop-color="#000a14"/>
  </linearGradient>
  <linearGradient id="suitHir1x6074" x1="0%" y1="0%" x2="0%" y2="100%">
    <stop offset="0%"   stop-color="rgba(255,255,255,.28)"/>
    <stop offset="60%"  stop-color="rgba(255,255,255,.04)"/>
    <stop offset="100%" stop-color="rgba(255,255,255,0)"/>
  </linearGradient>
  <!-- Bevel: bright top, dark bottom for armour panels -->
  <linearGradient id="bevelr1x6074" x1="0%" y1="0%" x2="0%" y2="100%">
    <stop offset="0%"   stop-color="rgba(255,255,255,.55)"/>
    <stop offset="30%"  stop-color="#00ff60"/>
    <stop offset="70%"  stop-color="#00441e"/>
    <stop offset="100%" stop-color="rgba(0,0,0,.5)"/>
  </linearGradient>

  <!-- Weapon: cold steel blade sweep -->
  <linearGradient id="blader1x6074" x1="0%" y1="0%" x2="100%" y2="0%">
    <stop offset="0%"   stop-color="#0e0e20"/>
    <stop offset="16%"  stop-color="#3e3e58"/>
    <stop offset="34%"  stop-color="#c8c8e0"/>
    <stop offset="50%"  stop-color="#f5f5ff"/>
    <stop offset="66%"  stop-color="#b8b8d0"/>
    <stop offset="84%"  stop-color="#2e2e48"/>
    <stop offset="100%" stop-color="#08080e"/>
  </linearGradient>
  <!-- Blade tip brightening -->
  <linearGradient id="bladeTipr1x6074" x1="0%" y1="100%" x2="0%" y2="0%">
    <stop offset="0%"   stop-color="rgba(255,255,255,0)"/>
    <stop offset="55%"  stop-color="rgba(255,255,255,.1)"/>
    <stop offset="100%" stop-color="rgba(255,255,255,.55)"/>
  </linearGradient>
  <!-- Gunmetal anodised — blaster body -->
  <linearGradient id="gunmetalr1x6074" x1="0%" y1="0%" x2="0%" y2="100%">
    <stop offset="0%"   stop-color="#46465e"/>
    <stop offset="18%"  stop-color="#828296"/>
    <stop offset="42%"  stop-color="#26263a"/>
    <stop offset="72%"  stop-color="#16162a"/>
    <stop offset="100%" stop-color="#0c0c18"/>
  </linearGradient>
  <!-- Brushed steel tube — barrel/rod -->
  <linearGradient id="barrelr1x6074" x1="0%" y1="0%" x2="100%" y2="0%">
    <stop offset="0%"   stop-color="#0a0a14"/>
    <stop offset="24%"  stop-color="#585875"/>
    <stop offset="50%"  stop-color="#a8a8c8"/>
    <stop offset="76%"  stop-color="#383852"/>
    <stop offset="100%" stop-color="#0a0a14"/>
  </linearGradient>
  <!-- Chrome rod — lance shaft -->
  <linearGradient id="chromer1x6074" x1="0%" y1="0%" x2="100%" y2="0%">
    <stop offset="0%"   stop-color="#0c0c18"/>
    <stop offset="20%"  stop-color="#686888"/>
    <stop offset="44%"  stop-color="#e0e0f0"/>
    <stop offset="56%"  stop-color="#c0c0d8"/>
    <stop offset="80%"  stop-color="#28283e"/>
    <stop offset="100%" stop-color="#0c0c18"/>
  </linearGradient>
  <!-- Titanium plate — shield face -->
  <linearGradient id="titaniumr1x6074" x1="0%" y1="0%" x2="100%" y2="100%">
    <stop offset="0%"   stop-color="#585878"/>
    <stop offset="28%"  stop-color="#00ff60" stop-opacity=".88"/>
    <stop offset="55%"  stop-color="#00441e"/>
    <stop offset="80%"  stop-color="#181828"/>
    <stop offset="100%" stop-color="#0a0a18"/>
  </linearGradient>
  <!-- Artillery black-chrome — cannon body -->
  <linearGradient id="artilleryr1x6074" x1="0%" y1="0%" x2="0%" y2="100%">
    <stop offset="0%"   stop-color="#383850"/>
    <stop offset="14%"  stop-color="#78789a"/>
    <stop offset="36%"  stop-color="#202034"/>
    <stop offset="65%"  stop-color="#14141e"/>
    <stop offset="100%" stop-color="#0a0a12"/>
  </linearGradient>
  <!-- Energy orb — staff -->
  <radialGradient id="orbr1x6074" cx="35%" cy="35%" r="65%">
    <stop offset="0%"   stop-color="rgba(255,255,255,.9)"/>
    <stop offset="30%"  stop-color="#00ff60"/>
    <stop offset="68%"  stop-color="#00441e"/>
    <stop offset="100%" stop-color="rgba(0,0,0,.6)"/>
  </radialGradient>
  <!-- Knuckle plate chrome -->
  <linearGradient id="knuckler1x6074" x1="0%" y1="0%" x2="0%" y2="100%">
    <stop offset="0%"   stop-color="#888aaa"/>
    <stop offset="32%"  stop-color="#00ff60" stop-opacity=".8"/>
    <stop offset="62%"  stop-color="#1a1a2c"/>
    <stop offset="100%" stop-color="#0a0a14"/>
  </linearGradient>

  <!-- Carbon fibre weave texture overlay -->
  <pattern id="carbonr1x6074" width="6" height="6" patternUnits="userSpaceOnUse">
    <rect width="6" height="6" fill="rgba(0,0,0,.08)"/>
    <rect x="0" y="0" width="3" height="3" fill="rgba(255,255,255,.022)"/>
    <rect x="3" y="3" width="3" height="3" fill="rgba(255,255,255,.022)"/>
    <line x1="0" y1="0" x2="3" y2="3" stroke="rgba(255,255,255,.038)" stroke-width=".5"/>
    <line x1="3" y1="0" x2="6" y2="3" stroke="rgba(0,0,0,.055)"       stroke-width=".5"/>
    <line x1="0" y1="3" x2="3" y2="6" stroke="rgba(0,0,0,.055)"       stroke-width=".5"/>
    <line x1="3" y1="3" x2="6" y2="6" stroke="rgba(255,255,255,.038)" stroke-width=".5"/>
  </pattern>

  <!-- Specular metal sheen on armour panels -->
  <filter id="metalr1x6074" x="-5%" y="-5%" width="110%" height="110%">
    <feSpecularLighting surfaceScale="4" specularConstant="1.8"
        specularExponent="42" lighting-color="#ffffff" result="spec">
      <feDistantLight elevation="52" azimuth="38"/>
    </feSpecularLighting>
    <feComposite in="spec" in2="SourceGraphic" operator="in" result="sm"/>
    <feComposite in="SourceGraphic" in2="sm" operator="arithmetic" k1="0" k2="1" k3="0.55" k4="0"/>
  </filter>

  <!-- Sharper specular for weapons — heavier glare -->
  <filter id="wmr1x6074" x="-8%" y="-8%" width="116%" height="116%">
    <feSpecularLighting surfaceScale="6" specularConstant="2.4"
        specularExponent="65" lighting-color="#ffffff" result="spec">
      <feDistantLight elevation="44" azimuth="28"/>
    </feSpecularLighting>
    <feComposite in="spec" in2="SourceGraphic" operator="in" result="sm"/>
    <feComposite in="SourceGraphic" in2="sm" operator="arithmetic" k1="0" k2="1" k3="0.78" k4="0"/>
  </filter>

  <!-- Sketch wobble -->
  <filter id="skr1x6074" x="-8%" y="-8%" width="116%" height="116%">
    <feTurbulence type="fractalNoise" baseFrequency="0.038"
        numOctaves="3" seed="76" result="noise"/>
    <feDisplacementMap in="SourceGraphic" in2="noise" scale="2.6"
        xChannelSelector="R" yChannelSelector="G" result="w"/>
    <feComposite in="w" in2="SourceGraphic" operator="atop"/>
  </filter>

  <!-- Glow: sharp accent -->
  <filter id="glowr1x6074" x="-20%" y="-20%" width="140%" height="140%">
    <feGaussianBlur stdDeviation="3.5" result="b"/>
    <feColorMatrix in="b" type="matrix"
        values="0 0 0 0 1  0 0 0 0 1  0 0 0 0 1  0 0 0 1.8 0" result="boost"/>
    <feMerge><feMergeNode in="boost"/><feMergeNode in="SourceGraphic"/></feMerge>
  </filter>

  <!-- Bloom: wide soft -->
  <filter id="bloomr1x6074" x="-40%" y="-40%" width="180%" height="180%">
    <feGaussianBlur stdDeviation="11" result="b"/>
    <feMerge><feMergeNode in="b"/><feMergeNode in="SourceGraphic"/></feMerge>
  </filter>

  </defs><rect width="1000" height="1000" fill="url(#bgr1x6074)"/><line x1="0" y1="1.9" x2="1000" y2="-0.5" stroke="#00ff60" stroke-opacity=".055" stroke-width="1.2"/><line x1="2.7" y1="0" x2="1.4" y2="1000" stroke="#00ff60" stroke-opacity=".055" stroke-width="1.2"/><line x1="0" y1="99.9" x2="1000" y2="99.3" stroke="#00ff60" stroke-opacity=".055" stroke-width="1.2"/><line x1="98.1" y1="0" x2="98.2" y2="1000" stroke="#00ff60" stroke-opacity=".055" stroke-width="1.2"/><line x1="0" y1="197.5" x2="1000" y2="200.5" stroke="#00ff60" stroke-opacity=".055" stroke-width="1.2"/><line x1="198.6" y1="0" x2="198.7" y2="1000" stroke="#00ff60" stroke-opacity=".055" stroke-width="1.2"/><line x1="0" y1="298.2" x2="1000" y2="302.0" stroke="#00ff60" stroke-opacity=".055" stroke-width="1.2"/><line x1="302.4" y1="0" x2="302.8" y2="1000" stroke="#00ff60" stroke-opacity=".055" stroke-width="1.2"/><line x1="0" y1="402.2" x2="1000" y2="402.5" stroke="#00ff60" stroke-opacity=".055" stroke-width="1.2"/><line x1="397.5" y1="0" x2="400.0" y2="1000" stroke="#00ff60" stroke-opacity=".055" stroke-width="1.2"/><line x1="0" y1="498.1" x2="1000" y2="501.4" stroke="#00ff60" stroke-opacity=".055" stroke-width="1.2"/><line x1="498.0" y1="0" x2="499.1" y2="1000" stroke="#00ff60" stroke-opacity=".055" stroke-width="1.2"/><line x1="0" y1="599.9" x2="1000" y2="599.2" stroke="#00ff60" stroke-opacity=".055" stroke-width="1.2"/><line x1="597.2" y1="0" x2="601.1" y2="1000" stroke="#00ff60" stroke-opacity=".055" stroke-width="1.2"/><line x1="0" y1="698.3" x2="1000" y2="701.7" stroke="#00ff60" stroke-opacity=".055" stroke-width="1.2"/><line x1="698.2" y1="0" x2="699.6" y2="1000" stroke="#00ff60" stroke-opacity=".055" stroke-width="1.2"/><line x1="0" y1="802.9" x2="1000" y2="801.8" stroke="#00ff60" stroke-opacity=".055" stroke-width="1.2"/><line x1="799.8" y1="0" x2="802.9" y2="1000" stroke="#00ff60" stroke-opacity=".055" stroke-width="1.2"/><line x1="0" y1="901.9" x2="1000" y2="903.0" stroke="#00ff60" stroke-opacity=".055" stroke-width="1.2"/><line x1="897.3" y1="0" x2="901.2" y2="1000" stroke="#00ff60" stroke-opacity=".055" stroke-width="1.2"/><path d="M80,30 L30,30 L30,80" stroke="#00ff60" stroke-opacity=".45" stroke-width="2" fill="none" filter="url(#glowr1x6074)"/><path d="M920,30 L970,30 L970,80" stroke="#00ff60" stroke-opacity=".45" stroke-width="2" fill="none" filter="url(#glowr1x6074)"/><path d="M30,920 L30,970 L80,970" stroke="#00ff60" stroke-opacity=".45" stroke-width="2" fill="none" filter="url(#glowr1x6074)"/><path d="M970,920 L970,970 L920,970" stroke="#00ff60" stroke-opacity=".45" stroke-width="2" fill="none" filter="url(#glowr1x6074)"/><ellipse cx="500.0" cy="892.0" rx="350.0" ry="65.0" fill="rgba(0,0,0,.7)" filter="url(#bloomr1x6074)"/><ellipse cx="500.0" cy="889.0" rx="220.0" ry="34.0" fill="rgba(0,0,0,.45)"/><ellipse cx="500.0" cy="520.0" rx="320.0" ry="480.0" fill="#00e5ff" fill-opacity=".042" filter="url(#bloomr1x6074)"/><circle cx="560.6" cy="308.5" r="3.0" fill="#00e5ff" fill-opacity="0.60" filter="url(#glowr1x6074)"/><circle cx="710.2" cy="695.8" r="1.1" fill="#00e5ff" fill-opacity="0.74" filter="url(#glowr1x6074)"/><circle cx="674.4" cy="724.0" r="1.2" fill="#00e5ff" fill-opacity="0.50" filter="url(#glowr1x6074)"/><circle cx="633.0" cy="409.6" r="4.2" fill="#00e5ff" fill-opacity="0.72" filter="url(#glowr1x6074)"/><circle cx="646.5" cy="322.9" r="0.9" fill="#00e5ff" fill-opacity="0.69" filter="url(#glowr1x6074)"/><circle cx="285.9" cy="301.9" r="4.2" fill="#00e5ff" fill-opacity="0.47" filter="url(#glowr1x6074)"/><circle cx="508.5" cy="266.4" r="2.2" fill="#00e5ff" fill-opacity="0.47" filter="url(#glowr1x6074)"/><circle cx="362.5" cy="206.3" r="2.8" fill="#00e5ff" fill-opacity="0.48" filter="url(#glowr1x6074)"/><circle cx="718.3" cy="563.5" r="1.7" fill="#00e5ff" fill-opacity="0.86" filter="url(#glowr1x6074)"/><circle cx="295.1" cy="675.8" r="0.9" fill="#00e5ff" fill-opacity="0.61" filter="url(#glowr1x6074)"/><circle cx="326.5" cy="690.5" r="4.0" fill="#00e5ff" fill-opacity="0.56" filter="url(#glowr1x6074)"/><circle cx="487.8" cy="687.4" r="4.2" fill="#00e5ff" fill-opacity="0.86" filter="url(#glowr1x6074)"/><circle cx="674.4" cy="635.4" r="1.7" fill="#00e5ff" fill-opacity="0.51" filter="url(#glowr1x6074)"/><circle cx="459.3" cy="591.9" r="2.1" fill="#00e5ff" fill-opacity="0.56" filter="url(#glowr1x6074)"/><path d="M503.1,312.3 Q527.9,591.5 601.0,867.8" stroke="#00e5ff" stroke-opacity="0.72" stroke-width="0.9" fill="none" filter="url(#glowr1x6074)"/><path d="M301.3,270.0 Q261.8,574.2 378.8,864.3" stroke="#00e5ff" stroke-opacity="0.50" stroke-width="2.2" fill="none" filter="url(#glowr1x6074)"/><path d="M533.9,140.3 Q546.9,472.5 545.4,826.3" stroke="#00e5ff" stroke-opacity="0.59" stroke-width="2.0" fill="none" filter="url(#glowr1x6074)"/><path d="M499.0,340.5 Q532.3,511.3 356.4,706.0" stroke="#00e5ff" stroke-opacity="0.75" stroke-width="1.4" fill="none" filter="url(#glowr1x6074)"/><path d="M628.7,229.0 Q650.4,502.1 328.5,775.9" stroke="#00e5ff" stroke-opacity="0.77" stroke-width="2.5" fill="none" filter="url(#glowr1x6074)"/><polygon points="400.0,664.2 488.1,663.3 480.2,876.8 388.3,875.8" fill="url(#suitr1x6074)" stroke="#00ff60" stroke-width="2.2" filter="url(#skr1x6074) url(#metalr1x6074)"/><polygon points="400.2,663.4 487.7,662.4 480.1,878.3 387.9,875.9" fill="url(#carbonr1x6074)"/><polygon points="394.3,725.2 491.5,724.8 483.4,788.9 384.3,786.5" fill="url(#bevelr1x6074)" fill-opacity=".5" stroke="#00ff60" stroke-width="1.4" filter="url(#skr1x6074)"/><polygon points="511.4,660.9 602.1,663.7 613.4,877.5 519.1,876.1" fill="url(#suitr1x6074)" stroke="#00ff60" stroke-width="2.2" filter="url(#skr1x6074) url(#metalr1x6074)"/><polygon points="511.8,663.1 600.8,661.8 612.1,877.6 517.8,877.2" fill="url(#carbonr1x6074)"/><polygon points="507.8,723.8 608.6,724.9 615.1,788.3 514.6,789.4" fill="url(#bevelr1x6074)" fill-opacity=".5" stroke="#00ff60" stroke-width="1.4" filter="url(#skr1x6074)"/><rect x="393.9" y="837.3" width="100.3" height="24.7" fill="url(#bevelr1x6074)" stroke="#00ff60" stroke-width="1" filter="url(#skr1x6074)"/><rect x="505.3"  y="839.8" width="100.3" height="24.7" fill="url(#bevelr1x6074)" stroke="#00ff60" stroke-width="1" filter="url(#skr1x6074)"/><polygon points="369.2,878.0 497.9,877.8 503.1,920.6 361.4,921.1" fill="#00441e" stroke="#00ff60" stroke-width="2" filter="url(#skr1x6074)"/><polygon points="503.4,879.0 630.0,878.1 637.5,920.2 498.1,921.4" fill="#00441e" stroke="#00ff60" stroke-width="2" filter="url(#skr1x6074)"/><polygon points="304.0,632.9 697.8,634.4 638.8,680.7 362.0,681.6" fill="#00ff60" fill-opacity=".52" stroke="#00ff60" stroke-width="2" filter="url(#skr1x6074)"/><rect x="464.1" y="637.5" width="72.0" height="42.0" fill="url(#bevelr1x6074)" stroke="#00ff60" stroke-width="1.4" filter="url(#glowr1x6074)"/><rect x="487.1" y="641.5" width="28.0" height="22.0" rx="1" fill="rgba(255,255,255,.48)"/><polygon points="151.4,467.4 235.4,465.5 257.1,736.0 126.6,734.7" fill="url(#suitr1x6074)" stroke="#00ff60" stroke-width="2.2" filter="url(#skr1x6074) url(#metalr1x6074)"/><polygon points="174.1,431.1 253.4,433.8 243.9,511.4 158.8,509.0" fill="url(#bevelr1x6074)" fill-opacity=".72" stroke="#00ff60" stroke-width="2.2" filter="url(#skr1x6074)"/><polygon points="161.8,621.3 242.3,621.6 238.2,659.7 165.2,662.3" fill="#00ff60" fill-opacity=".42" stroke="#00ff60" stroke-width="1" filter="url(#skr1x6074)"/><polygon points="764.8,466.7 847.1,466.1 872.8,734.8 740.8,733.7" fill="url(#suitr1x6074)" stroke="#00ff60" stroke-width="2.2" filter="url(#skr1x6074) url(#metalr1x6074)"/><polygon points="748.3,431.3 825.0,433.8 840.7,510.5 755.3,512.1" fill="url(#bevelr1x6074)" fill-opacity=".72" stroke="#00ff60" stroke-width="2.2" filter="url(#skr1x6074)"/><polygon points="756.8,621.9 838.1,622.4 836.4,660.7 762.1,662.2" fill="#00ff60" fill-opacity=".42" stroke="#00ff60" stroke-width="1" filter="url(#skr1x6074)"/><rect x="119.4"  y="701.3" width="135.3" height="85.0" rx="4" fill="url(#bevelr1x6074)" stroke="#00ff60" stroke-width="1.8" filter="url(#skr1x6074)"/><rect x="748.7"   y="699.8" width="135.3" height="85.0" rx="4" fill="url(#bevelr1x6074)" stroke="#00ff60" stroke-width="1.8" filter="url(#skr1x6074)"/><line x1="149.9" y1="702.4" x2="149.9" y2="784.9" stroke="#00ff60" stroke-opacity=".38" stroke-width="1"/><line x1="778.4" y1="701.4" x2="776.9" y2="783.3" stroke="#00ff60" stroke-opacity=".38" stroke-width="1"/><line x1="182.8" y1="701.5" x2="181.9" y2="785.0" stroke="#00ff60" stroke-opacity=".38" stroke-width="1"/><line x1="809.8" y1="703.5" x2="809.8" y2="782.4" stroke="#00ff60" stroke-opacity=".38" stroke-width="1"/><line x1="215.9" y1="700.1" x2="214.5" y2="784.8" stroke="#00ff60" stroke-opacity=".38" stroke-width="1"/><line x1="843.0" y1="702.9" x2="844.8" y2="783.7" stroke="#00ff60" stroke-opacity=".38" stroke-width="1"/><polygon points="234.5,419.2 763.4,417.5 724.3,663.9 278.5,664.2" fill="url(#suitr1x6074)" stroke="#00ff60" stroke-width="2.6" filter="url(#skr1x6074) url(#metalr1x6074)"/><polygon points="236.2,416.7 764.3,418.4 722.4,663.6 278.3,660.8" fill="url(#carbonr1x6074)"/><polygon points="365.8,418.0 632.6,416.4 611.2,516.3 389.1,517.2" fill="url(#suitHir1x6074)"/><line x1="361.1" y1="470.2" x2="638.4" y2="469.8" stroke="#00ff60" stroke-opacity=".52" stroke-width="1.3" filter="url(#skr1x6074)"/><line x1="399.7" y1="551.2" x2="599.4" y2="549.7" stroke="#00ff60" stroke-opacity=".52" stroke-width="1.3" filter="url(#skr1x6074)"/><line x1="268.5" y1="491.5" x2="321.2" y2="491.6" stroke="#00ff60" stroke-opacity=".62" stroke-width="1.8"/><line x1="678.9" y1="491.6" x2="734.3" y2="492.2" stroke="#00ff60" stroke-opacity=".62" stroke-width="1.8"/><line x1="267.7" y1="523.9" x2="318.9" y2="522.2" stroke="#00ff60" stroke-opacity=".62" stroke-width="1.8"/><line x1="679.9" y1="523.0" x2="731.5" y2="522.6" stroke="#00ff60" stroke-opacity=".62" stroke-width="1.8"/><line x1="268.4" y1="555.4" x2="320.9" y2="555.3" stroke="#00ff60" stroke-opacity=".62" stroke-width="1.8"/><line x1="679.7" y1="554.3" x2="731.5" y2="555.1" stroke="#00ff60" stroke-opacity=".62" stroke-width="1.8"/><line x1="265.8" y1="587.8" x2="320.0" y2="585.4" stroke="#00ff60" stroke-opacity=".62" stroke-width="1.8"/><line x1="680.5" y1="586.1" x2="733.0" y2="585.4" stroke="#00ff60" stroke-opacity=".62" stroke-width="1.8"/><g filter="url(#glowr1x6074)"><polygon points="482.5,452.7 512.4,506.2 500.0,507.5 517.8,567.5 486.4,513.6 500.6,514.2" fill="#00ff60" stroke="#000a14" stroke-width="1.4" filter="url(#skr1x6074)"/><polygon points="481.0,451.4 511.0,504.8 499.2,504.7 517.1,568.5 488.3,514.0 499.3,515.5" fill="url(#suitHir1x6074)" opacity=".4"/></g><g><polygon points="76.2,671.4 128.2,671.4 112.6,-28.6 91.8,-28.6" fill="url(#blader1x6074)" filter="url(#wmr1x6074)"/><polygon points="91.8,-28.6 112.6,-28.6 102.2,-138.6" fill="url(#blader1x6074)" filter="url(#wmr1x6074)"/><polygon points="100.3,671.4 104.0,671.4 102.7,-128.6 101.6,-128.6" fill="url(#bladeTipr1x6074)" opacity=".9"/><line x1="112.09419144231823" y1="671.185954618547" x2="102.14969710120928" y2="-129.94440584657715" stroke="rgba(255,255,255,.68)" stroke-width="1.5"/><line x1="93.87719667600464" y1="671.2645567763597" x2="99.83121368762102" y2="-128.3010705713183" stroke="#00ff60" stroke-width="1" stroke-opacity=".45"/><line x1="106.8" y1="651.4" x2="104.0" y2="11.4" stroke="rgba(0,0,0,.38)" stroke-width="1.6"/><line x1="97.5" y1="651.4" x2="100.3" y2="11.4" stroke="rgba(0,0,0,.38)" stroke-width="1.6"/><rect x="45.795056627262355" y="669.5252233954146" width="112.0" height="28.0" rx="3" fill="url(#bevelr1x6074)" stroke="#00ff60" stroke-width="1.6" filter="url(#wmr1x6074)"/><rect x="68.73538745291528" y="673.7778746829368" width="64.0" height="10.0" rx="1" fill="rgba(255,255,255,.32)"/><rect x="91.51463372729715" y="675.7616107349284" width="24.0" height="6.0" rx="1" fill="#00ff60" fill-opacity=".35"/><rect x="90.27052091447634" y="686.758016997017" width="24.0" height="6.0" rx="1" fill="#00ff60" fill-opacity=".35"/><rect x="88.51779311917718" y="692.8655980329029" width="24.0" height="6.0" rx="1" fill="#00ff60" fill-opacity=".35"/><rect x="90.59664638856422" y="701.3543545869179" width="24.0" height="6.0" rx="1" fill="#00ff60" fill-opacity=".35"/><rect x="91.82903118882325" y="711.173486333713" width="24.0" height="6.0" rx="1" fill="#00ff60" fill-opacity=".35"/><rect x="91.09389966776591" y="718.5695998896845" width="24.0" height="6.0" rx="1" fill="#00ff60" fill-opacity=".35"/><ellipse cx="101.72703818291423" cy="725.2223093047738" rx="22.0" ry="16.0" fill="url(#bevelr1x6074)" stroke="#00ff60" stroke-width="1.2" filter="url(#wmr1x6074)"/></g><rect x="450.27295192340387" y="555.5614681593142" width="100.0"  height="56.0" fill="#00441e" stroke="#00ff60" stroke-width="2.2" filter="url(#skr1x6074)"/><rect x="422.98179081082344" y="575.4019362770022" width="152.0" height="26.0" fill="url(#bevelr1x6074)" fill-opacity=".65" stroke="#00ff60" stroke-width="1.2" filter="url(#skr1x6074)"/><polygon points="307.0,382.2 351.1,295.0 500.8,277.1 650.4,294.1 690.5,381.0 667.6,504.8 498.7,565.1 329.8,503.1" fill="url(#suitr1x6074)" stroke="#00ff60" stroke-width="2.8" filter="url(#skr1x6074) url(#metalr1x6074)"/><polygon points="308.5,382.4 349.1,293.0 499.7,277.3 648.7,295.1 690.4,382.3 669.8,502.1 501.1,566.7 330.7,502.4" fill="url(#carbonr1x6074)"/><polygon points="381.7,303.8 499.0,286.0 620.6,301.0 608.1,381.6 393.7,379.2" fill="url(#suitHir1x6074)"/><polygon points="381.3,380.4 365.4,424.7 432.5,504.9 498.4,529.1 567.2,504.7 636.1,425.8 620.5,380.1" fill="#000a14" fill-opacity=".88" stroke="#00ff60" stroke-width="1.8" filter="url(#skr1x6074)"/><polygon points="379.4,411.5 475.5,412.3 484.5,438.4 388.8,441.6" fill="#00ff60" filter="url(#glowr1x6074)"/><polygon points="524.1,410.5 618.3,410.4 610.6,438.8 516.8,441.3" fill="#00ff60" filter="url(#glowr1x6074)"/><ellipse cx="430.9" cy="425.7" rx="38.4"  ry="8.2" fill="#ffffff" opacity=".88"/><ellipse cx="569.1" cy="425.7" rx="38.4"  ry="8.2" fill="#ffffff" opacity=".88"/><line x1="483.56112560728565" y1="413.147491857782" x2="514.0541898872144" y2="411.6968258167617" stroke="#00ff60" stroke-opacity=".52" stroke-width="2"/><line x1="483.4534209083393" y1="437.8504525302909" x2="514.0904560621269" y2="436.73564332863316" stroke="#00ff60" stroke-opacity=".52" stroke-width="2"/><line x1="499.51399286026134" y1="455.8828255653381" x2="500.33353458950296" y2="483.6602905294858" stroke="#00ff60" stroke-opacity=".58" stroke-width="2.2" filter="url(#skr1x6074)"/><line x1="454.73151030780747" y1="490.57617153571914" x2="453.30557829661296" y2="518.7866059520281" stroke="#00ff60" stroke-opacity=".52" stroke-width="1.5" filter="url(#skr1x6074)"/><line x1="477.2177669147402" y1="490.5586549699306" x2="477.8944904117286" y2="519.8306333182379" stroke="#00ff60" stroke-opacity=".52" stroke-width="1.5" filter="url(#skr1x6074)"/><line x1="500.19097007997334" y1="491.9112771905027" x2="501.40568055864424" y2="520.4760625011288" stroke="#00ff60" stroke-opacity=".52" stroke-width="1.5" filter="url(#skr1x6074)"/><line x1="521.2984523903206" y1="492.59895595982664" x2="523.3928379700146" y2="520.8512219277211" stroke="#00ff60" stroke-opacity=".52" stroke-width="1.5" filter="url(#skr1x6074)"/><line x1="545.1227644306795" y1="492.148737959098" x2="545.5313812958263" y2="518.6362217881717" stroke="#00ff60" stroke-opacity=".52" stroke-width="1.5" filter="url(#skr1x6074)"/><polygon points="434.3,504.8 566.8,503.4 554.9,558.4 445.7,558.5" fill="#00441e" fill-opacity=".72" stroke="#00ff60" stroke-width="1.3" filter="url(#skr1x6074)"/><circle cx="500.0" cy="315.0" r="203.5" fill="none" stroke="#00ff60" stroke-width="3" stroke-dasharray="6,4" filter="url(#bloomr1x6074)"/><circle cx="500.0" cy="315.0" r="134.4"   fill="none" stroke="#00ff60" stroke-width="1.2" stroke-opacity=".42"/><circle cx="703.5" cy="315.0" r="1.8" fill="#00ff60" filter="url(#glowr1x6074)"/><circle cx="688.0" cy="392.9" r="2.7" fill="#00ff60" filter="url(#glowr1x6074)"/><circle cx="643.9" cy="458.9" r="2.8" fill="#00ff60" filter="url(#glowr1x6074)"/><circle cx="577.9" cy="503.0" r="2.0" fill="#00ff60" filter="url(#glowr1x6074)"/><circle cx="500.0" cy="518.5" r="1.0" fill="#00ff60" filter="url(#glowr1x6074)"/><circle cx="422.1" cy="503.0" r="0.7" fill="#00ff60" filter="url(#glowr1x6074)"/><circle cx="356.1" cy="458.9" r="1.5" fill="#00ff60" filter="url(#glowr1x6074)"/><circle cx="312.0" cy="392.9" r="2.5" fill="#00ff60" filter="url(#glowr1x6074)"/><circle cx="296.5" cy="315.0" r="2.9" fill="#00ff60" filter="url(#glowr1x6074)"/><circle cx="312.0" cy="237.1" r="2.3" fill="#00ff60" filter="url(#glowr1x6074)"/><circle cx="356.1" cy="171.1" r="1.2" fill="#00ff60" filter="url(#glowr1x6074)"/><circle cx="422.1" cy="127.0" r="0.7" fill="#00ff60" filter="url(#glowr1x6074)"/><circle cx="500.0" cy="111.5" r="1.2" fill="#00ff60" filter="url(#glowr1x6074)"/><circle cx="577.9" cy="127.0" r="2.3" fill="#00ff60" filter="url(#glowr1x6074)"/><circle cx="643.9" cy="171.1" r="2.9" fill="#00ff60" filter="url(#glowr1x6074)"/><circle cx="688.0" cy="237.1" r="2.5" fill="#00ff60" filter="url(#glowr1x6074)"/><text x="30.0"  y="975.0" font-family="monospace" font-weight="bold" font-size="22.0" fill="rgba(255,255,255,.22)">#0001</text><text x="500.0"   y="975.0" text-anchor="middle" font-family="monospace" font-weight="bold" font-size="22.0" fill="#00ff60" fill-opacity=".48">VIPER RANGER</text><text x="970.0" y="975.0" text-anchor="end"    font-family="monospace" font-weight="bold" font-size="22.0" fill="#00ff60" fill-opacity=".32">MECH RANGERS</text></svg>