<svg xmlns="http://www.w3.org/2000/svg" viewBox="0 0 1000 1000" width="1000" height="1000" shape-rendering="geometricPrecision"><defs>

  <!-- Scene gradients -->
  <radialGradient id="bgr1x6075" cx="50%" cy="42%" r="72%">
    <stop offset="0%"   stop-color="#0a0a14"/>
    <stop offset="100%" stop-color="#050508"/>
  </radialGradient>
  <linearGradient id="suitr1x6075" x1="8%" y1="0%" x2="92%" y2="100%">
    <stop offset="0%"   stop-color="#ff44aa" stop-opacity=".95"/>
    <stop offset="45%"  stop-color="#880050"/>
    <stop offset="100%" stop-color="#050508"/>
  </linearGradient>
  <linearGradient id="suitHir1x6075" x1="0%" y1="0%" x2="0%" y2="100%">
    <stop offset="0%"   stop-color="rgba(255,255,255,.28)"/>
    <stop offset="60%"  stop-color="rgba(255,255,255,.04)"/>
    <stop offset="100%" stop-color="rgba(255,255,255,0)"/>
  </linearGradient>
  <!-- Bevel: bright top, dark bottom for armour panels -->
  <linearGradient id="bevelr1x6075" x1="0%" y1="0%" x2="0%" y2="100%">
    <stop offset="0%"   stop-color="rgba(255,255,255,.55)"/>
    <stop offset="30%"  stop-color="#ff44aa"/>
    <stop offset="70%"  stop-color="#880050"/>
    <stop offset="100%" stop-color="rgba(0,0,0,.5)"/>
  </linearGradient>

  <!-- Weapon: cold steel blade sweep -->
  <linearGradient id="blader1x6075" x1="0%" y1="0%" x2="100%" y2="0%">
    <stop offset="0%"   stop-color="#0e0e20"/>
    <stop offset="16%"  stop-color="#3e3e58"/>
    <stop offset="34%"  stop-color="#c8c8e0"/>
    <stop offset="50%"  stop-color="#f5f5ff"/>
    <stop offset="66%"  stop-color="#b8b8d0"/>
    <stop offset="84%"  stop-color="#2e2e48"/>
    <stop offset="100%" stop-color="#08080e"/>
  </linearGradient>
  <!-- Blade tip brightening -->
  <linearGradient id="bladeTipr1x6075" x1="0%" y1="100%" x2="0%" y2="0%">
    <stop offset="0%"   stop-color="rgba(255,255,255,0)"/>
    <stop offset="55%"  stop-color="rgba(255,255,255,.1)"/>
    <stop offset="100%" stop-color="rgba(255,255,255,.55)"/>
  </linearGradient>
  <!-- Gunmetal anodised — blaster body -->
  <linearGradient id="gunmetalr1x6075" x1="0%" y1="0%" x2="0%" y2="100%">
    <stop offset="0%"   stop-color="#46465e"/>
    <stop offset="18%"  stop-color="#828296"/>
    <stop offset="42%"  stop-color="#26263a"/>
    <stop offset="72%"  stop-color="#16162a"/>
    <stop offset="100%" stop-color="#0c0c18"/>
  </linearGradient>
  <!-- Brushed steel tube — barrel/rod -->
  <linearGradient id="barrelr1x6075" x1="0%" y1="0%" x2="100%" y2="0%">
    <stop offset="0%"   stop-color="#0a0a14"/>
    <stop offset="24%"  stop-color="#585875"/>
    <stop offset="50%"  stop-color="#a8a8c8"/>
    <stop offset="76%"  stop-color="#383852"/>
    <stop offset="100%" stop-color="#0a0a14"/>
  </linearGradient>
  <!-- Chrome rod — lance shaft -->
  <linearGradient id="chromer1x6075" x1="0%" y1="0%" x2="100%" y2="0%">
    <stop offset="0%"   stop-color="#0c0c18"/>
    <stop offset="20%"  stop-color="#686888"/>
    <stop offset="44%"  stop-color="#e0e0f0"/>
    <stop offset="56%"  stop-color="#c0c0d8"/>
    <stop offset="80%"  stop-color="#28283e"/>
    <stop offset="100%" stop-color="#0c0c18"/>
  </linearGradient>
  <!-- Titanium plate — shield face -->
  <linearGradient id="titaniumr1x6075" x1="0%" y1="0%" x2="100%" y2="100%">
    <stop offset="0%"   stop-color="#585878"/>
    <stop offset="28%"  stop-color="#ff44aa" stop-opacity=".88"/>
    <stop offset="55%"  stop-color="#880050"/>
    <stop offset="80%"  stop-color="#181828"/>
    <stop offset="100%" stop-color="#0a0a18"/>
  </linearGradient>
  <!-- Artillery black-chrome — cannon body -->
  <linearGradient id="artilleryr1x6075" x1="0%" y1="0%" x2="0%" y2="100%">
    <stop offset="0%"   stop-color="#383850"/>
    <stop offset="14%"  stop-color="#78789a"/>
    <stop offset="36%"  stop-color="#202034"/>
    <stop offset="65%"  stop-color="#14141e"/>
    <stop offset="100%" stop-color="#0a0a12"/>
  </linearGradient>
  <!-- Energy orb — staff -->
  <radialGradient id="orbr1x6075" cx="35%" cy="35%" r="65%">
    <stop offset="0%"   stop-color="rgba(255,255,255,.9)"/>
    <stop offset="30%"  stop-color="#ff44aa"/>
    <stop offset="68%"  stop-color="#880050"/>
    <stop offset="100%" stop-color="rgba(0,0,0,.6)"/>
  </radialGradient>
  <!-- Knuckle plate chrome -->
  <linearGradient id="knuckler1x6075" x1="0%" y1="0%" x2="0%" y2="100%">
    <stop offset="0%"   stop-color="#888aaa"/>
    <stop offset="32%"  stop-color="#ff44aa" stop-opacity=".8"/>
    <stop offset="62%"  stop-color="#1a1a2c"/>
    <stop offset="100%" stop-color="#0a0a14"/>
  </linearGradient>

  <!-- Carbon fibre weave texture overlay -->
  <pattern id="carbonr1x6075" width="6" height="6" patternUnits="userSpaceOnUse">
    <rect width="6" height="6" fill="rgba(0,0,0,.08)"/>
    <rect x="0" y="0" width="3" height="3" fill="rgba(255,255,255,.022)"/>
    <rect x="3" y="3" width="3" height="3" fill="rgba(255,255,255,.022)"/>
    <line x1="0" y1="0" x2="3" y2="3" stroke="rgba(255,255,255,.038)" stroke-width=".5"/>
    <line x1="3" y1="0" x2="6" y2="3" stroke="rgba(0,0,0,.055)"       stroke-width=".5"/>
    <line x1="0" y1="3" x2="3" y2="6" stroke="rgba(0,0,0,.055)"       stroke-width=".5"/>
    <line x1="3" y1="3" x2="6" y2="6" stroke="rgba(255,255,255,.038)" stroke-width=".5"/>
  </pattern>

  <!-- Specular metal sheen on armour panels -->
  <filter id="metalr1x6075" x="-5%" y="-5%" width="110%" height="110%">
    <feSpecularLighting surfaceScale="4" specularConstant="1.8"
        specularExponent="42" lighting-color="#ffffff" result="spec">
      <feDistantLight elevation="52" azimuth="38"/>
    </feSpecularLighting>
    <feComposite in="spec" in2="SourceGraphic" operator="in" result="sm"/>
    <feComposite in="SourceGraphic" in2="sm" operator="arithmetic" k1="0" k2="1" k3="0.55" k4="0"/>
  </filter>

  <!-- Sharper specular for weapons — heavier glare -->
  <filter id="wmr1x6075" x="-8%" y="-8%" width="116%" height="116%">
    <feSpecularLighting surfaceScale="6" specularConstant="2.4"
        specularExponent="65" lighting-color="#ffffff" result="spec">
      <feDistantLight elevation="44" azimuth="28"/>
    </feSpecularLighting>
    <feComposite in="spec" in2="SourceGraphic" operator="in" result="sm"/>
    <feComposite in="SourceGraphic" in2="sm" operator="arithmetic" k1="0" k2="1" k3="0.78" k4="0"/>
  </filter>

  <!-- Sketch wobble -->
  <filter id="skr1x6075" x="-8%" y="-8%" width="116%" height="116%">
    <feTurbulence type="fractalNoise" baseFrequency="0.038"
        numOctaves="3" seed="42" result="noise"/>
    <feDisplacementMap in="SourceGraphic" in2="noise" scale="2.6"
        xChannelSelector="R" yChannelSelector="G" result="w"/>
    <feComposite in="w" in2="SourceGraphic" operator="atop"/>
  </filter>

  <!-- Glow: sharp accent -->
  <filter id="glowr1x6075" x="-20%" y="-20%" width="140%" height="140%">
    <feGaussianBlur stdDeviation="3.5" result="b"/>
    <feColorMatrix in="b" type="matrix"
        values="0 0 0 0 1  0 0 0 0 1  0 0 0 0 1  0 0 0 1.8 0" result="boost"/>
    <feMerge><feMergeNode in="boost"/><feMergeNode in="SourceGraphic"/></feMerge>
  </filter>

  <!-- Bloom: wide soft -->
  <filter id="bloomr1x6075" x="-40%" y="-40%" width="180%" height="180%">
    <feGaussianBlur stdDeviation="11" result="b"/>
    <feMerge><feMergeNode in="b"/><feMergeNode in="SourceGraphic"/></feMerge>
  </filter>

  </defs><rect width="1000" height="1000" fill="url(#bgr1x6075)"/><ellipse cx="500.0" cy="892.0" rx="350.0" ry="65.0" fill="rgba(0,0,0,.7)" filter="url(#bloomr1x6075)"/><ellipse cx="500.0" cy="889.0" rx="220.0" ry="34.0" fill="rgba(0,0,0,.45)"/><ellipse cx="500.0" cy="520.0" rx="320.0" ry="480.0" fill="#00e5ff" fill-opacity=".042" filter="url(#bloomr1x6075)"/><circle cx="282.4" cy="285.9" r="3.6" fill="#00e5ff" fill-opacity="0.55" filter="url(#glowr1x6075)"/><circle cx="661.4" cy="212.2" r="1.6" fill="#00e5ff" fill-opacity="0.70" filter="url(#glowr1x6075)"/><circle cx="598.7" cy="388.5" r="2.5" fill="#00e5ff" fill-opacity="0.66" filter="url(#glowr1x6075)"/><circle cx="329.8" cy="677.0" r="2.0" fill="#00e5ff" fill-opacity="0.49" filter="url(#glowr1x6075)"/><circle cx="607.8" cy="406.9" r="2.1" fill="#00e5ff" fill-opacity="0.61" filter="url(#glowr1x6075)"/><circle cx="368.8" cy="466.0" r="4.1" fill="#00e5ff" fill-opacity="0.51" filter="url(#glowr1x6075)"/><circle cx="431.0" cy="370.5" r="2.8" fill="#00e5ff" fill-opacity="0.73" filter="url(#glowr1x6075)"/><circle cx="649.4" cy="736.2" r="2.8" fill="#00e5ff" fill-opacity="0.75" filter="url(#glowr1x6075)"/><circle cx="558.1" cy="278.1" r="4.0" fill="#00e5ff" fill-opacity="0.46" filter="url(#glowr1x6075)"/><circle cx="731.6" cy="463.6" r="2.3" fill="#00e5ff" fill-opacity="0.74" filter="url(#glowr1x6075)"/><circle cx="544.1" cy="681.0" r="3.7" fill="#00e5ff" fill-opacity="0.40" filter="url(#glowr1x6075)"/><circle cx="372.8" cy="419.3" r="1.6" fill="#00e5ff" fill-opacity="0.84" filter="url(#glowr1x6075)"/><circle cx="417.1" cy="453.0" r="3.8" fill="#00e5ff" fill-opacity="0.71" filter="url(#glowr1x6075)"/><circle cx="694.8" cy="410.5" r="0.9" fill="#00e5ff" fill-opacity="0.85" filter="url(#glowr1x6075)"/><path d="M372.3,153.2 Q373.8,529.8 644.4,865.5" stroke="#00e5ff" stroke-opacity="0.76" stroke-width="2.4" fill="none" filter="url(#glowr1x6075)"/><path d="M296.1,172.2 Q316.3,447.1 668.8,675.0" stroke="#00e5ff" stroke-opacity="0.64" stroke-width="1.3" fill="none" filter="url(#glowr1x6075)"/><path d="M416.4,185.9 Q398.5,539.5 694.2,899.8" stroke="#00e5ff" stroke-opacity="0.77" stroke-width="2.0" fill="none" filter="url(#glowr1x6075)"/><path d="M486.9,328.0 Q463.9,489.5 364.2,670.4" stroke="#00e5ff" stroke-opacity="0.67" stroke-width="1.1" fill="none" filter="url(#glowr1x6075)"/><path d="M505.5,210.6 Q544.7,473.2 375.9,789.1" stroke="#00e5ff" stroke-opacity="0.38" stroke-width="2.2" fill="none" filter="url(#glowr1x6075)"/><polygon points="397.1,660.9 490.0,663.6 481.1,877.3 387.9,877.2" fill="url(#suitr1x6075)" stroke="#ff44aa" stroke-width="2.2" filter="url(#skr1x6075) url(#metalr1x6075)"/><polygon points="398.1,663.3 487.9,661.9 480.9,878.7 387.2,878.4" fill="url(#carbonr1x6075)"/><polygon points="393.3,723.4 494.0,723.3 482.6,786.6 383.9,789.5" fill="url(#bevelr1x6075)" fill-opacity=".5" stroke="#ff44aa" stroke-width="1.4" filter="url(#skr1x6075)"/><polygon points="511.0,662.6 601.3,662.8 613.3,877.6 519.8,878.8" fill="url(#suitr1x6075)" stroke="#ff44aa" stroke-width="2.2" filter="url(#skr1x6075) url(#metalr1x6075)"/><polygon points="510.4,660.8 600.4,661.0 612.0,877.3 517.9,877.2" fill="url(#carbonr1x6075)"/><polygon points="506.7,723.6 605.9,724.9 617.7,788.6 515.8,787.1" fill="url(#bevelr1x6075)" fill-opacity=".5" stroke="#ff44aa" stroke-width="1.4" filter="url(#skr1x6075)"/><rect x="394.4" y="840.5" width="100.3" height="24.7" fill="url(#bevelr1x6075)" stroke="#ff44aa" stroke-width="1" filter="url(#skr1x6075)"/><rect x="507.5"  y="838.9" width="100.3" height="24.7" fill="url(#bevelr1x6075)" stroke="#ff44aa" stroke-width="1" filter="url(#skr1x6075)"/><polygon points="368.8,879.3 495.0,878.3 502.5,922.6 360.9,921.2" fill="#880050" stroke="#ff44aa" stroke-width="2" filter="url(#skr1x6075)"/><polygon points="503.7,875.8 632.0,878.9 638.7,922.6 497.1,920.3" fill="#880050" stroke="#ff44aa" stroke-width="2" filter="url(#skr1x6075)"/><polygon points="304.3,633.9 696.5,633.9 639.2,683.7 364.0,681.8" fill="#ff44aa" fill-opacity=".52" stroke="#ff44aa" stroke-width="2" filter="url(#skr1x6075)"/><rect x="465.5" y="638.8" width="72.0" height="42.0" fill="url(#bevelr1x6075)" stroke="#ff44aa" stroke-width="1.4" filter="url(#glowr1x6075)"/><rect x="486.8" y="639.3" width="28.0" height="22.0" rx="1" fill="rgba(255,255,255,.48)"/><polygon points="154.7,466.1 234.4,466.9 257.6,735.2 127.4,733.5" fill="url(#suitr1x6075)" stroke="#ff44aa" stroke-width="2.2" filter="url(#skr1x6075) url(#metalr1x6075)"/><polygon points="172.3,433.4 254.7,433.6 243.3,510.6 161.3,509.7" fill="url(#bevelr1x6075)" fill-opacity=".72" stroke="#ff44aa" stroke-width="2.2" filter="url(#skr1x6075)"/><polygon points="159.9,621.8 241.7,623.0 237.6,662.0 164.8,662.0" fill="#ff44aa" fill-opacity=".42" stroke="#ff44aa" stroke-width="1" filter="url(#skr1x6075)"/><polygon points="765.9,465.5 847.6,467.4 871.9,734.6 742.8,733.2" fill="url(#suitr1x6075)" stroke="#ff44aa" stroke-width="2.2" filter="url(#skr1x6075) url(#metalr1x6075)"/><polygon points="747.1,433.4 826.3,433.5 839.5,511.9 758.5,510.6" fill="url(#bevelr1x6075)" fill-opacity=".72" stroke="#ff44aa" stroke-width="2.2" filter="url(#skr1x6075)"/><polygon points="758.5,621.6 838.3,623.1 835.4,659.9 762.3,662.6" fill="#ff44aa" fill-opacity=".42" stroke="#ff44aa" stroke-width="1" filter="url(#skr1x6075)"/><rect x="120.1"  y="701.2" width="135.3" height="85.0" rx="4" fill="url(#bevelr1x6075)" stroke="#ff44aa" stroke-width="1.8" filter="url(#skr1x6075)"/><rect x="748.9"   y="701.1" width="135.3" height="85.0" rx="4" fill="url(#bevelr1x6075)" stroke="#ff44aa" stroke-width="1.8" filter="url(#skr1x6075)"/><line x1="148.0" y1="700.2" x2="149.2" y2="782.8" stroke="#ff44aa" stroke-opacity=".38" stroke-width="1"/><line x1="779.3" y1="703.6" x2="777.5" y2="782.4" stroke="#ff44aa" stroke-opacity=".38" stroke-width="1"/><line x1="183.0" y1="702.0" x2="181.1" y2="785.3" stroke="#ff44aa" stroke-opacity=".38" stroke-width="1"/><line x1="811.2" y1="700.9" x2="811.6" y2="784.8" stroke="#ff44aa" stroke-opacity=".38" stroke-width="1"/><line x1="215.8" y1="703.4" x2="215.1" y2="784.5" stroke="#ff44aa" stroke-opacity=".38" stroke-width="1"/><line x1="844.8" y1="700.6" x2="845.0" y2="782.5" stroke="#ff44aa" stroke-opacity=".38" stroke-width="1"/><polygon points="235.8,419.1 766.2,419.0 724.1,662.5 278.4,663.6" fill="url(#suitr1x6075)" stroke="#ff44aa" stroke-width="2.6" filter="url(#skr1x6075) url(#metalr1x6075)"/><polygon points="236.5,416.9 765.6,416.0 721.1,660.7 277.8,661.6" fill="url(#carbonr1x6075)"/><polygon points="366.0,416.9 633.8,416.8 610.6,513.9 389.4,517.3" fill="url(#suitHir1x6075)"/><line x1="363.9" y1="469.6" x2="639.6" y2="469.6" stroke="#ff44aa" stroke-opacity=".52" stroke-width="1.3" filter="url(#skr1x6075)"/><line x1="398.8" y1="551.2" x2="600.3" y2="550.7" stroke="#ff44aa" stroke-opacity=".52" stroke-width="1.3" filter="url(#skr1x6075)"/><line x1="267.3" y1="490.8" x2="318.0" y2="490.2" stroke="#ff44aa" stroke-opacity=".62" stroke-width="1.8"/><line x1="680.2" y1="492.3" x2="733.7" y2="490.4" stroke="#ff44aa" stroke-opacity=".62" stroke-width="1.8"/><line x1="267.1" y1="521.3" x2="319.0" y2="524.3" stroke="#ff44aa" stroke-opacity=".62" stroke-width="1.8"/><line x1="681.7" y1="522.4" x2="733.8" y2="521.4" stroke="#ff44aa" stroke-opacity=".62" stroke-width="1.8"/><line x1="266.3" y1="555.8" x2="320.8" y2="556.4" stroke="#ff44aa" stroke-opacity=".62" stroke-width="1.8"/><line x1="680.2" y1="553.9" x2="734.2" y2="553.8" stroke="#ff44aa" stroke-opacity=".62" stroke-width="1.8"/><line x1="266.3" y1="586.3" x2="318.1" y2="587.4" stroke="#ff44aa" stroke-opacity=".62" stroke-width="1.8"/><line x1="681.7" y1="588.0" x2="731.7" y2="585.1" stroke="#ff44aa" stroke-opacity=".62" stroke-width="1.8"/><g filter="url(#glowr1x6075)"><path d="M500.0,449.7 C462.3,446.8 442.0,481.6 447.8,513.5 L459.4,542.5 C476.8,536.7 491.3,551.2 500.0,551.2 C508.7,551.2 523.2,536.7 540.6,542.5 L552.2,513.5 C558.0,481.6 537.7,446.8 500.0,449.7 Z" fill="#ff44aa" fill-opacity=".92" stroke="#050508" stroke-width="1.3" filter="url(#skr1x6075)"/><path d="M483.8,519.3 Q500.0,533.8 516.2,519.3" stroke="#050508" stroke-width="1" fill="none" opacity=".58"/><ellipse cx="481.4" cy="497.8" rx="8.7" ry="6.4" fill="#050508" opacity=".95"/><ellipse cx="518.6" cy="497.8" rx="8.7" ry="6.4" fill="#050508" opacity=".95"/><ellipse cx="481.4" cy="497.8" rx="2.3" ry="5.8" fill="#ff44aa"/><ellipse cx="518.6" cy="497.8" rx="2.3" ry="5.8" fill="#ff44aa"/><path d="M471.0,467.1 L458.2,426.5 L481.4,463.0" fill="#ff44aa" stroke="#050508" stroke-width=".9"/><path d="M529.0,467.1 L541.8,426.5 L518.6,463.0" fill="#ff44aa" stroke="#050508" stroke-width=".9"/><path d="M476.8,452.6 C488.4,449.1 511.6,449.1 523.2,452.6" fill="rgba(255,255,255,.18)"/></g><g><polygon points="76.2,671.4 128.2,671.4 112.6,-28.6 91.8,-28.6" fill="url(#blader1x6075)" filter="url(#wmr1x6075)"/><polygon points="91.8,-28.6 112.6,-28.6 102.2,-138.6" fill="url(#blader1x6075)" filter="url(#wmr1x6075)"/><polygon points="100.3,671.4 104.0,671.4 102.7,-128.6 101.6,-128.6" fill="url(#bladeTipr1x6075)" opacity=".9"/><line x1="109.89622355548661" y1="671.9772252696566" x2="102.4190789138898" y2="-127.90843002181502" stroke="rgba(255,255,255,.68)" stroke-width="1.5"/><line x1="93.57206605887038" y1="671.9825328332372" x2="101.76809045558791" y2="-129.81787027847025" stroke="#ff44aa" stroke-width="1" stroke-opacity=".45"/><line x1="106.8" y1="651.4" x2="104.0" y2="11.4" stroke="rgba(0,0,0,.38)" stroke-width="1.6"/><line x1="97.5" y1="651.4" x2="100.3" y2="11.4" stroke="rgba(0,0,0,.38)" stroke-width="1.6"/><rect x="47.206219499595434" y="668.9057110328228" width="112.0" height="28.0" rx="3" fill="url(#bevelr1x6075)" stroke="#ff44aa" stroke-width="1.6" filter="url(#wmr1x6075)"/><rect x="68.50010060047728" y="672.1873572153039" width="64.0" height="10.0" rx="1" fill="rgba(255,255,255,.32)"/><rect x="90.34479115804655" y="678.2700410580262" width="24.0" height="6.0" rx="1" fill="#ff44aa" fill-opacity=".35"/><rect x="90.63049879077819" y="685.5064166996627" width="24.0" height="6.0" rx="1" fill="#ff44aa" fill-opacity=".35"/><rect x="89.6338003864884" y="694.3395352202467" width="24.0" height="6.0" rx="1" fill="#ff44aa" fill-opacity=".35"/><rect x="90.83815171210092" y="699.9830960436724" width="24.0" height="6.0" rx="1" fill="#ff44aa" fill-opacity=".35"/><rect x="90.36737837543708" y="709.103577021882" width="24.0" height="6.0" rx="1" fill="#ff44aa" fill-opacity=".35"/><rect x="89.90305201144886" y="715.7170149230398" width="24.0" height="6.0" rx="1" fill="#ff44aa" fill-opacity=".35"/><ellipse cx="102.16653408328068" cy="726.806520803459" rx="22.0" ry="16.0" fill="url(#bevelr1x6075)" stroke="#ff44aa" stroke-width="1.2" filter="url(#wmr1x6075)"/></g><rect x="451.7912821115926" y="555.3947064490058" width="100.0"  height="56.0" fill="#880050" stroke="#ff44aa" stroke-width="2.2" filter="url(#skr1x6075)"/><rect x="425.0543720403686" y="576.6283056208864" width="152.0" height="26.0" fill="url(#bevelr1x6075)" fill-opacity=".65" stroke="#ff44aa" stroke-width="1.2" filter="url(#skr1x6075)"/><polygon points="306.2,381.3 351.9,295.4 499.1,279.0 651.5,294.3 691.0,379.0 670.3,504.0 501.1,566.4 330.1,503.8" fill="url(#suitr1x6075)" stroke="#ff44aa" stroke-width="2.8" filter="url(#skr1x6075) url(#metalr1x6075)"/><polygon points="309.1,381.7 348.6,294.4 500.0,279.3 649.0,295.2 691.0,380.5 669.3,504.4 500.3,566.9 329.9,504.7" fill="url(#carbonr1x6075)"/><polygon points="382.4,302.4 501.5,287.8 617.3,304.0 607.5,382.1 394.0,379.1" fill="url(#suitHir1x6075)"/><polygon points="379.3,380.0 365.2,427.2 431.5,503.2 500.8,528.1 569.0,502.6 632.7,427.3 619.0,380.1" fill="#050508" fill-opacity=".88" stroke="#ff44aa" stroke-width="1.8" filter="url(#skr1x6075)"/><polygon points="382.0,411.8 477.4,411.7 485.0,441.3 389.5,441.8" fill="#ff44aa" filter="url(#glowr1x6075)"/><polygon points="522.8,412.0 618.6,412.6 612.9,440.8 515.2,441.2" fill="#ff44aa" filter="url(#glowr1x6075)"/><ellipse cx="430.9" cy="425.7" rx="38.4"  ry="8.2" fill="#ffffff" opacity=".88"/><ellipse cx="569.1" cy="425.7" rx="38.4"  ry="8.2" fill="#ffffff" opacity=".88"/><line x1="483.82485654536634" y1="413.6140563558787" x2="515.0688174296544" y2="414.7015424257144" stroke="#ff44aa" stroke-opacity=".52" stroke-width="2"/><line x1="485.01981024207544" y1="437.280353185907" x2="514.83959461594" y2="439.5794741760939" stroke="#ff44aa" stroke-opacity=".52" stroke-width="2"/><line x1="498.54676176663486" y1="454.24870424466206" x2="500.4486827076413" y2="482.89727542568" stroke="#ff44aa" stroke-opacity=".58" stroke-width="2.2" filter="url(#skr1x6075)"/><line x1="455.7102421168983" y1="491.9605848565697" x2="452.3607683891244" y2="521.507027923502" stroke="#ff44aa" stroke-opacity=".52" stroke-width="1.5" filter="url(#skr1x6075)"/><line x1="477.6587799664028" y1="489.5250805846415" x2="476.5851599255949" y2="518.9188053296879" stroke="#ff44aa" stroke-opacity=".52" stroke-width="1.5" filter="url(#skr1x6075)"/><line x1="498.87903057392685" y1="491.0434597826562" x2="500.45346714491023" y2="519.0489620811306" stroke="#ff44aa" stroke-opacity=".52" stroke-width="1.5" filter="url(#skr1x6075)"/><line x1="524.4461783313751" y1="491.33404114758594" x2="522.8927038306929" y2="518.8322621869854" stroke="#ff44aa" stroke-opacity=".52" stroke-width="1.5" filter="url(#skr1x6075)"/><line x1="547.4341198898107" y1="491.43349894732233" x2="545.949302911684" y2="521.2796728014946" stroke="#ff44aa" stroke-opacity=".52" stroke-width="1.5" filter="url(#skr1x6075)"/><polygon points="433.2,502.8 565.9,504.9 552.5,555.2 447.5,555.5" fill="#880050" fill-opacity=".72" stroke="#ff44aa" stroke-width="1.3" filter="url(#skr1x6075)"/><text x="30.0"  y="975.0" font-family="monospace" font-weight="bold" font-size="22.0" fill="rgba(255,255,255,.22)">#0001</text><text x="500.0"   y="975.0" text-anchor="middle" font-family="monospace" font-weight="bold" font-size="22.0" fill="#ff44aa" fill-opacity=".48">SAKURA RANGER</text><text x="970.0" y="975.0" text-anchor="end"    font-family="monospace" font-weight="bold" font-size="22.0" fill="#ff44aa" fill-opacity=".32">MECH RANGERS</text></svg>