<svg xmlns="http://www.w3.org/2000/svg" viewBox="0 0 1000 1000" width="1000" height="1000" shape-rendering="geometricPrecision"><defs>

  <!-- Scene gradients -->
  <radialGradient id="bgr1x6089" cx="50%" cy="42%" r="72%">
    <stop offset="0%"   stop-color="#1a2814"/>
    <stop offset="100%" stop-color="#0d1520"/>
  </radialGradient>
  <linearGradient id="suitr1x6089" x1="8%" y1="0%" x2="92%" y2="100%">
    <stop offset="0%"   stop-color="#2060ff" stop-opacity=".95"/>
    <stop offset="45%"  stop-color="#003ccc"/>
    <stop offset="100%" stop-color="#0d1520"/>
  </linearGradient>
  <linearGradient id="suitHir1x6089" x1="0%" y1="0%" x2="0%" y2="100%">
    <stop offset="0%"   stop-color="rgba(255,255,255,.28)"/>
    <stop offset="60%"  stop-color="rgba(255,255,255,.04)"/>
    <stop offset="100%" stop-color="rgba(255,255,255,0)"/>
  </linearGradient>
  <!-- Bevel: bright top, dark bottom for armour panels -->
  <linearGradient id="bevelr1x6089" x1="0%" y1="0%" x2="0%" y2="100%">
    <stop offset="0%"   stop-color="rgba(255,255,255,.55)"/>
    <stop offset="30%"  stop-color="#2060ff"/>
    <stop offset="70%"  stop-color="#003ccc"/>
    <stop offset="100%" stop-color="rgba(0,0,0,.5)"/>
  </linearGradient>

  <!-- Weapon: cold steel blade sweep -->
  <linearGradient id="blader1x6089" x1="0%" y1="0%" x2="100%" y2="0%">
    <stop offset="0%"   stop-color="#0e0e20"/>
    <stop offset="16%"  stop-color="#3e3e58"/>
    <stop offset="34%"  stop-color="#c8c8e0"/>
    <stop offset="50%"  stop-color="#f5f5ff"/>
    <stop offset="66%"  stop-color="#b8b8d0"/>
    <stop offset="84%"  stop-color="#2e2e48"/>
    <stop offset="100%" stop-color="#08080e"/>
  </linearGradient>
  <!-- Blade tip brightening -->
  <linearGradient id="bladeTipr1x6089" x1="0%" y1="100%" x2="0%" y2="0%">
    <stop offset="0%"   stop-color="rgba(255,255,255,0)"/>
    <stop offset="55%"  stop-color="rgba(255,255,255,.1)"/>
    <stop offset="100%" stop-color="rgba(255,255,255,.55)"/>
  </linearGradient>
  <!-- Gunmetal anodised — blaster body -->
  <linearGradient id="gunmetalr1x6089" x1="0%" y1="0%" x2="0%" y2="100%">
    <stop offset="0%"   stop-color="#46465e"/>
    <stop offset="18%"  stop-color="#828296"/>
    <stop offset="42%"  stop-color="#26263a"/>
    <stop offset="72%"  stop-color="#16162a"/>
    <stop offset="100%" stop-color="#0c0c18"/>
  </linearGradient>
  <!-- Brushed steel tube — barrel/rod -->
  <linearGradient id="barrelr1x6089" x1="0%" y1="0%" x2="100%" y2="0%">
    <stop offset="0%"   stop-color="#0a0a14"/>
    <stop offset="24%"  stop-color="#585875"/>
    <stop offset="50%"  stop-color="#a8a8c8"/>
    <stop offset="76%"  stop-color="#383852"/>
    <stop offset="100%" stop-color="#0a0a14"/>
  </linearGradient>
  <!-- Chrome rod — lance shaft -->
  <linearGradient id="chromer1x6089" x1="0%" y1="0%" x2="100%" y2="0%">
    <stop offset="0%"   stop-color="#0c0c18"/>
    <stop offset="20%"  stop-color="#686888"/>
    <stop offset="44%"  stop-color="#e0e0f0"/>
    <stop offset="56%"  stop-color="#c0c0d8"/>
    <stop offset="80%"  stop-color="#28283e"/>
    <stop offset="100%" stop-color="#0c0c18"/>
  </linearGradient>
  <!-- Titanium plate — shield face -->
  <linearGradient id="titaniumr1x6089" x1="0%" y1="0%" x2="100%" y2="100%">
    <stop offset="0%"   stop-color="#585878"/>
    <stop offset="28%"  stop-color="#2060ff" stop-opacity=".88"/>
    <stop offset="55%"  stop-color="#003ccc"/>
    <stop offset="80%"  stop-color="#181828"/>
    <stop offset="100%" stop-color="#0a0a18"/>
  </linearGradient>
  <!-- Artillery black-chrome — cannon body -->
  <linearGradient id="artilleryr1x6089" x1="0%" y1="0%" x2="0%" y2="100%">
    <stop offset="0%"   stop-color="#383850"/>
    <stop offset="14%"  stop-color="#78789a"/>
    <stop offset="36%"  stop-color="#202034"/>
    <stop offset="65%"  stop-color="#14141e"/>
    <stop offset="100%" stop-color="#0a0a12"/>
  </linearGradient>
  <!-- Energy orb — staff -->
  <radialGradient id="orbr1x6089" cx="35%" cy="35%" r="65%">
    <stop offset="0%"   stop-color="rgba(255,255,255,.9)"/>
    <stop offset="30%"  stop-color="#2060ff"/>
    <stop offset="68%"  stop-color="#003ccc"/>
    <stop offset="100%" stop-color="rgba(0,0,0,.6)"/>
  </radialGradient>
  <!-- Knuckle plate chrome -->
  <linearGradient id="knuckler1x6089" x1="0%" y1="0%" x2="0%" y2="100%">
    <stop offset="0%"   stop-color="#888aaa"/>
    <stop offset="32%"  stop-color="#2060ff" stop-opacity=".8"/>
    <stop offset="62%"  stop-color="#1a1a2c"/>
    <stop offset="100%" stop-color="#0a0a14"/>
  </linearGradient>

  <!-- Carbon fibre weave texture overlay -->
  <pattern id="carbonr1x6089" width="6" height="6" patternUnits="userSpaceOnUse">
    <rect width="6" height="6" fill="rgba(0,0,0,.08)"/>
    <rect x="0" y="0" width="3" height="3" fill="rgba(255,255,255,.022)"/>
    <rect x="3" y="3" width="3" height="3" fill="rgba(255,255,255,.022)"/>
    <line x1="0" y1="0" x2="3" y2="3" stroke="rgba(255,255,255,.038)" stroke-width=".5"/>
    <line x1="3" y1="0" x2="6" y2="3" stroke="rgba(0,0,0,.055)"       stroke-width=".5"/>
    <line x1="0" y1="3" x2="3" y2="6" stroke="rgba(0,0,0,.055)"       stroke-width=".5"/>
    <line x1="3" y1="3" x2="6" y2="6" stroke="rgba(255,255,255,.038)" stroke-width=".5"/>
  </pattern>

  <!-- Specular metal sheen on armour panels -->
  <filter id="metalr1x6089" x="-5%" y="-5%" width="110%" height="110%">
    <feSpecularLighting surfaceScale="4" specularConstant="1.8"
        specularExponent="42" lighting-color="#ffffff" result="spec">
      <feDistantLight elevation="52" azimuth="38"/>
    </feSpecularLighting>
    <feComposite in="spec" in2="SourceGraphic" operator="in" result="sm"/>
    <feComposite in="SourceGraphic" in2="sm" operator="arithmetic" k1="0" k2="1" k3="0.55" k4="0"/>
  </filter>

  <!-- Sharper specular for weapons — heavier glare -->
  <filter id="wmr1x6089" x="-8%" y="-8%" width="116%" height="116%">
    <feSpecularLighting surfaceScale="6" specularConstant="2.4"
        specularExponent="65" lighting-color="#ffffff" result="spec">
      <feDistantLight elevation="44" azimuth="28"/>
    </feSpecularLighting>
    <feComposite in="spec" in2="SourceGraphic" operator="in" result="sm"/>
    <feComposite in="SourceGraphic" in2="sm" operator="arithmetic" k1="0" k2="1" k3="0.78" k4="0"/>
  </filter>

  <!-- Sketch wobble -->
  <filter id="skr1x6089" x="-8%" y="-8%" width="116%" height="116%">
    <feTurbulence type="fractalNoise" baseFrequency="0.038"
        numOctaves="3" seed="68" result="noise"/>
    <feDisplacementMap in="SourceGraphic" in2="noise" scale="2.6"
        xChannelSelector="R" yChannelSelector="G" result="w"/>
    <feComposite in="w" in2="SourceGraphic" operator="atop"/>
  </filter>

  <!-- Glow: sharp accent -->
  <filter id="glowr1x6089" x="-20%" y="-20%" width="140%" height="140%">
    <feGaussianBlur stdDeviation="3.5" result="b"/>
    <feColorMatrix in="b" type="matrix"
        values="0 0 0 0 1  0 0 0 0 1  0 0 0 0 1  0 0 0 1.8 0" result="boost"/>
    <feMerge><feMergeNode in="boost"/><feMergeNode in="SourceGraphic"/></feMerge>
  </filter>

  <!-- Bloom: wide soft -->
  <filter id="bloomr1x6089" x="-40%" y="-40%" width="180%" height="180%">
    <feGaussianBlur stdDeviation="11" result="b"/>
    <feMerge><feMergeNode in="b"/><feMergeNode in="SourceGraphic"/></feMerge>
  </filter>

  </defs><rect width="1000" height="1000" fill="url(#bgr1x6089)"/><ellipse cx="500.0" cy="892.0" rx="350.0" ry="65.0" fill="rgba(0,0,0,.7)" filter="url(#bloomr1x6089)"/><ellipse cx="500.0" cy="889.0" rx="220.0" ry="34.0" fill="rgba(0,0,0,.45)"/><ellipse cx="500.0" cy="520.0" rx="320.0" ry="480.0" fill="#00e5ff" fill-opacity=".042" filter="url(#bloomr1x6089)"/><circle cx="506.9" cy="786.1" r="4.0" fill="#00e5ff" fill-opacity="0.65" filter="url(#glowr1x6089)"/><circle cx="654.4" cy="679.5" r="2.2" fill="#00e5ff" fill-opacity="0.84" filter="url(#glowr1x6089)"/><circle cx="581.7" cy="336.9" r="2.8" fill="#00e5ff" fill-opacity="0.53" filter="url(#glowr1x6089)"/><circle cx="588.6" cy="720.2" r="3.1" fill="#00e5ff" fill-opacity="0.59" filter="url(#glowr1x6089)"/><circle cx="708.0" cy="490.4" r="3.3" fill="#00e5ff" fill-opacity="0.57" filter="url(#glowr1x6089)"/><circle cx="640.3" cy="550.2" r="1.9" fill="#00e5ff" fill-opacity="0.84" filter="url(#glowr1x6089)"/><circle cx="329.6" cy="377.2" r="4.3" fill="#00e5ff" fill-opacity="0.78" filter="url(#glowr1x6089)"/><circle cx="519.7" cy="500.4" r="1.2" fill="#00e5ff" fill-opacity="0.76" filter="url(#glowr1x6089)"/><circle cx="738.5" cy="529.0" r="0.8" fill="#00e5ff" fill-opacity="0.56" filter="url(#glowr1x6089)"/><circle cx="410.1" cy="407.2" r="2.0" fill="#00e5ff" fill-opacity="0.38" filter="url(#glowr1x6089)"/><circle cx="375.1" cy="591.5" r="0.6" fill="#00e5ff" fill-opacity="0.56" filter="url(#glowr1x6089)"/><circle cx="560.8" cy="503.3" r="3.7" fill="#00e5ff" fill-opacity="0.51" filter="url(#glowr1x6089)"/><circle cx="571.2" cy="699.9" r="1.2" fill="#00e5ff" fill-opacity="0.72" filter="url(#glowr1x6089)"/><circle cx="322.2" cy="557.8" r="3.5" fill="#00e5ff" fill-opacity="0.60" filter="url(#glowr1x6089)"/><path d="M640.7,369.3 Q674.1,514.2 351.0,699.2" stroke="#00e5ff" stroke-opacity="0.50" stroke-width="2.4" fill="none" filter="url(#glowr1x6089)"/><path d="M319.6,310.6 Q333.8,521.8 448.7,689.9" stroke="#00e5ff" stroke-opacity="0.40" stroke-width="1.4" fill="none" filter="url(#glowr1x6089)"/><path d="M378.4,181.3 Q384.4,444.7 709.2,737.7" stroke="#00e5ff" stroke-opacity="0.66" stroke-width="0.9" fill="none" filter="url(#glowr1x6089)"/><path d="M538.5,356.9 Q538.9,502.5 684.1,701.3" stroke="#00e5ff" stroke-opacity="0.51" stroke-width="1.8" fill="none" filter="url(#glowr1x6089)"/><path d="M705.4,192.2 Q661.0,492.8 584.7,744.8" stroke="#00e5ff" stroke-opacity="0.53" stroke-width="2.0" fill="none" filter="url(#glowr1x6089)"/><polygon points="397.1,662.0 488.8,661.0 479.2,877.2 387.2,876.5" fill="url(#suitr1x6089)" stroke="#2060ff" stroke-width="2.2" filter="url(#skr1x6089) url(#metalr1x6089)"/><polygon points="399.8,662.6 489.0,662.3 480.3,876.6 388.0,878.9" fill="url(#carbonr1x6089)"/><polygon points="394.4,724.1 491.6,723.2 484.6,788.5 383.1,789.2" fill="url(#bevelr1x6089)" fill-opacity=".5" stroke="#2060ff" stroke-width="1.4" filter="url(#skr1x6089)"/><polygon points="512.1,662.3 601.4,662.1 611.1,878.1 519.0,878.5" fill="url(#suitr1x6089)" stroke="#2060ff" stroke-width="2.2" filter="url(#skr1x6089) url(#metalr1x6089)"/><polygon points="509.0,662.7 599.7,661.3 612.1,879.1 518.4,879.1" fill="url(#carbonr1x6089)"/><polygon points="505.9,723.7 608.6,725.4 616.6,787.8 517.3,786.9" fill="url(#bevelr1x6089)" fill-opacity=".5" stroke="#2060ff" stroke-width="1.4" filter="url(#skr1x6089)"/><rect x="392.8" y="837.4" width="100.3" height="24.7" fill="url(#bevelr1x6089)" stroke="#2060ff" stroke-width="1" filter="url(#skr1x6089)"/><rect x="507.5"  y="838.9" width="100.3" height="24.7" fill="url(#bevelr1x6089)" stroke="#2060ff" stroke-width="1" filter="url(#skr1x6089)"/><polygon points="369.3,878.8 497.6,878.6 503.0,920.0 360.9,921.9" fill="#003ccc" stroke="#2060ff" stroke-width="2" filter="url(#skr1x6089)"/><polygon points="502.4,875.8 629.2,878.7 638.4,922.1 496.2,919.7" fill="#003ccc" stroke="#2060ff" stroke-width="2" filter="url(#skr1x6089)"/><polygon points="303.8,633.6 695.0,631.3 637.6,680.9 362.2,680.9" fill="#2060ff" fill-opacity=".52" stroke="#2060ff" stroke-width="2" filter="url(#skr1x6089)"/><rect x="462.4" y="637.9" width="72.0" height="42.0" fill="url(#bevelr1x6089)" stroke="#2060ff" stroke-width="1.4" filter="url(#glowr1x6089)"/><rect x="485.5" y="642.2" width="28.0" height="22.0" rx="1" fill="rgba(255,255,255,.48)"/><polygon points="153.1,467.6 236.0,467.4 259.2,734.3 127.3,735.8" fill="url(#suitr1x6089)" stroke="#2060ff" stroke-width="2.2" filter="url(#skr1x6089) url(#metalr1x6089)"/><polygon points="174.3,430.8 252.7,431.9 242.0,508.9 158.6,511.0" fill="url(#bevelr1x6089)" fill-opacity=".72" stroke="#2060ff" stroke-width="2.2" filter="url(#skr1x6089)"/><polygon points="161.4,622.9 245.0,621.9 238.3,659.2 166.8,660.3" fill="#2060ff" fill-opacity=".42" stroke="#2060ff" stroke-width="1" filter="url(#skr1x6089)"/><polygon points="764.2,466.8 846.9,464.7 871.5,735.9 743.4,733.9" fill="url(#suitr1x6089)" stroke="#2060ff" stroke-width="2.2" filter="url(#skr1x6089) url(#metalr1x6089)"/><polygon points="746.2,431.5 826.4,433.3 841.4,509.2 755.9,511.9" fill="url(#bevelr1x6089)" fill-opacity=".72" stroke="#2060ff" stroke-width="2.2" filter="url(#skr1x6089)"/><polygon points="755.7,621.0 839.1,621.2 835.5,659.7 760.2,660.1" fill="#2060ff" fill-opacity=".42" stroke="#2060ff" stroke-width="1" filter="url(#skr1x6089)"/><rect x="121.0"  y="701.3" width="135.3" height="85.0" rx="4" fill="url(#bevelr1x6089)" stroke="#2060ff" stroke-width="1.8" filter="url(#skr1x6089)"/><rect x="750.0"   y="699.4" width="135.3" height="85.0" rx="4" fill="url(#bevelr1x6089)" stroke="#2060ff" stroke-width="1.8" filter="url(#skr1x6089)"/><line x1="149.1" y1="701.3" x2="149.6" y2="783.1" stroke="#2060ff" stroke-opacity=".38" stroke-width="1"/><line x1="776.4" y1="703.2" x2="779.8" y2="784.2" stroke="#2060ff" stroke-opacity=".38" stroke-width="1"/><line x1="182.6" y1="703.1" x2="180.8" y2="785.4" stroke="#2060ff" stroke-opacity=".38" stroke-width="1"/><line x1="812.6" y1="700.3" x2="811.7" y2="785.4" stroke="#2060ff" stroke-opacity=".38" stroke-width="1"/><line x1="216.5" y1="702.0" x2="215.3" y2="784.8" stroke="#2060ff" stroke-opacity=".38" stroke-width="1"/><line x1="844.0" y1="702.0" x2="845.5" y2="782.5" stroke="#2060ff" stroke-opacity=".38" stroke-width="1"/><polygon points="234.4,416.1 765.6,418.6 721.7,661.0 278.3,660.9" fill="url(#suitr1x6089)" stroke="#2060ff" stroke-width="2.6" filter="url(#skr1x6089) url(#metalr1x6089)"/><polygon points="234.7,416.2 765.1,419.1 722.4,661.8 276.8,663.7" fill="url(#carbonr1x6089)"/><polygon points="367.9,416.5 634.0,417.1 610.0,516.3 389.9,515.2" fill="url(#suitHir1x6089)"/><line x1="362.1" y1="471.6" x2="636.7" y2="470.6" stroke="#2060ff" stroke-opacity=".52" stroke-width="1.3" filter="url(#skr1x6089)"/><line x1="398.4" y1="549.5" x2="599.6" y2="548.5" stroke="#2060ff" stroke-opacity=".52" stroke-width="1.3" filter="url(#skr1x6089)"/><line x1="266.1" y1="490.4" x2="318.0" y2="490.9" stroke="#2060ff" stroke-opacity=".62" stroke-width="1.8"/><line x1="679.4" y1="489.9" x2="733.6" y2="492.7" stroke="#2060ff" stroke-opacity=".62" stroke-width="1.8"/><line x1="265.8" y1="521.9" x2="321.1" y2="522.7" stroke="#2060ff" stroke-opacity=".62" stroke-width="1.8"/><line x1="681.9" y1="522.2" x2="733.4" y2="521.2" stroke="#2060ff" stroke-opacity=".62" stroke-width="1.8"/><line x1="268.2" y1="555.8" x2="319.9" y2="555.4" stroke="#2060ff" stroke-opacity=".62" stroke-width="1.8"/><line x1="680.5" y1="554.6" x2="732.7" y2="554.5" stroke="#2060ff" stroke-opacity=".62" stroke-width="1.8"/><line x1="267.6" y1="586.1" x2="319.5" y2="584.8" stroke="#2060ff" stroke-opacity=".62" stroke-width="1.8"/><line x1="681.8" y1="585.4" x2="734.0" y2="585.2" stroke="#2060ff" stroke-opacity=".62" stroke-width="1.8"/><g filter="url(#glowr1x6089)"><ellipse cx="499.3" cy="510.6" rx="42.9" ry="23.2" fill="#0d1520" stroke="#2060ff" stroke-width="1.6" filter="url(#skr1x6089)"/><circle cx="499.3" cy="510.8" r="15.1" fill="#2060ff"/><circle cx="496.5" cy="507.9" r="5.8" fill="#0d1520"/><ellipse cx="496.3" cy="505.2" rx="3.5" ry="2.3" fill="rgba(255,255,255,.7)"/></g><g><rect x="115.9" y="702.1" width="137.8" height="88.0" rx="5" fill="url(#bevelr1x6089)" stroke="#2060ff" stroke-width="2" filter="url(#wmr1x6089)"/><rect x="116.9" y="700.3" width="137.8" height="88.0" rx="5" fill="url(#carbonr1x6089)"/><rect x="746.9"  y="701.6" width="137.8" height="88.0" rx="5" fill="url(#bevelr1x6089)" stroke="#2060ff" stroke-width="2" filter="url(#wmr1x6089)"/><rect x="749.7"  y="701.7" width="137.8" height="88.0" rx="5" fill="url(#carbonr1x6089)"/><rect x="120.6" y="699.9" width="23.0" height="22.0" rx="2" fill="url(#knuckler1x6089)" stroke="#2060ff" stroke-width=".8" filter="url(#wmr1x6089)"/><rect x="756.1" y="699.6" width="23.0" height="22.0" rx="2" fill="url(#knuckler1x6089)" stroke="#2060ff" stroke-width=".8" filter="url(#wmr1x6089)"/><rect x="149.8" y="700.8" width="23.0" height="22.0" rx="2" fill="url(#knuckler1x6089)" stroke="#2060ff" stroke-width=".8" filter="url(#wmr1x6089)"/><rect x="784.7" y="700.1" width="23.0" height="22.0" rx="2" fill="url(#knuckler1x6089)" stroke="#2060ff" stroke-width=".8" filter="url(#wmr1x6089)"/><rect x="180.3" y="701.0" width="23.0" height="22.0" rx="2" fill="url(#knuckler1x6089)" stroke="#2060ff" stroke-width=".8" filter="url(#wmr1x6089)"/><rect x="814.5" y="700.8" width="23.0" height="22.0" rx="2" fill="url(#knuckler1x6089)" stroke="#2060ff" stroke-width=".8" filter="url(#wmr1x6089)"/><rect x="209.3" y="701.7" width="23.0" height="22.0" rx="2" fill="url(#knuckler1x6089)" stroke="#2060ff" stroke-width=".8" filter="url(#wmr1x6089)"/><rect x="845.2" y="698.6" width="23.0" height="22.0" rx="2" fill="url(#knuckler1x6089)" stroke="#2060ff" stroke-width=".8" filter="url(#wmr1x6089)"/><ellipse cx="184.35173844400794" cy="710.8478641325421" rx="45.1" ry="30.0" fill="#2060ff" fill-opacity=".25" filter="url(#glowr1x6089)"/><ellipse cx="818.7112659528107" cy="712.5466717918216" rx="45.1" ry="30.0" fill="#2060ff" fill-opacity=".25" filter="url(#glowr1x6089)"/></g><rect x="451.4616938754916" y="556.8928611624054" width="100.0"  height="56.0" fill="#003ccc" stroke="#2060ff" stroke-width="2.2" filter="url(#skr1x6089)"/><rect x="423.936939372588" y="575.7326220621355" width="152.0" height="26.0" fill="url(#bevelr1x6089)" fill-opacity=".65" stroke="#2060ff" stroke-width="1.2" filter="url(#skr1x6089)"/><polygon points="309.4,381.8 349.8,294.2 500.5,279.8 651.0,295.9 692.7,379.2 668.7,503.9 500.0,564.6 330.2,502.3" fill="url(#suitr1x6089)" stroke="#2060ff" stroke-width="2.8" filter="url(#skr1x6089) url(#metalr1x6089)"/><polygon points="309.3,378.9 349.8,293.1 501.1,276.6 651.0,292.9 690.8,380.6 667.5,504.4 499.1,565.7 331.2,504.1" fill="url(#carbonr1x6089)"/><polygon points="381.0,303.9 501.7,287.9 618.7,301.4 609.2,382.1 392.3,379.2" fill="url(#suitHir1x6089)"/><polygon points="381.8,381.1 365.5,424.0 432.0,505.3 499.8,527.7 568.5,504.6 634.8,426.2 618.9,379.9" fill="#0d1520" fill-opacity=".88" stroke="#2060ff" stroke-width="1.8" filter="url(#skr1x6089)"/><polygon points="382.5,409.6 477.2,412.9 485.8,440.6 389.4,438.4" fill="#2060ff" filter="url(#glowr1x6089)"/><polygon points="522.4,412.3 619.4,412.2 612.6,438.6 513.8,441.3" fill="#2060ff" filter="url(#glowr1x6089)"/><ellipse cx="430.9" cy="425.7" rx="38.4"  ry="8.2" fill="#ffffff" opacity=".88"/><ellipse cx="569.1" cy="425.7" rx="38.4"  ry="8.2" fill="#ffffff" opacity=".88"/><line x1="482.86145131779836" y1="414.8706492533907" x2="513.9015577866137" y2="412.72528230752795" stroke="#2060ff" stroke-opacity=".52" stroke-width="2"/><line x1="484.5598638273403" y1="437.09789854036643" x2="513.7123436164484" y2="438.5654024644755" stroke="#2060ff" stroke-opacity=".52" stroke-width="2"/><line x1="499.74334870819" y1="452.9745124065317" x2="499.5300355974585" y2="481.77037858925763" stroke="#2060ff" stroke-opacity=".58" stroke-width="2.2" filter="url(#skr1x6089)"/><line x1="454.7669237137586" y1="489.8588187881745" x2="454.94817020183433" y2="519.3743286727928" stroke="#2060ff" stroke-opacity=".52" stroke-width="1.5" filter="url(#skr1x6089)"/><line x1="476.5499820284918" y1="491.8077304896898" x2="477.73884708726774" y2="521.778546961397" stroke="#2060ff" stroke-opacity=".52" stroke-width="1.5" filter="url(#skr1x6089)"/><line x1="501.03393071340395" y1="492.03812071559946" x2="501.2204376839101" y2="520.6327195086517" stroke="#2060ff" stroke-opacity=".52" stroke-width="1.5" filter="url(#skr1x6089)"/><line x1="523.94537529774" y1="491.71991179650644" x2="523.5629856272228" y2="520.6838380522095" stroke="#2060ff" stroke-opacity=".52" stroke-width="1.5" filter="url(#skr1x6089)"/><line x1="544.8572545593792" y1="493.0903667775914" x2="546.1749286006392" y2="518.6543611486443" stroke="#2060ff" stroke-opacity=".52" stroke-width="1.5" filter="url(#skr1x6089)"/><polygon points="432.2,503.2 566.2,502.5 554.5,556.9 446.5,558.2" fill="#003ccc" fill-opacity=".72" stroke="#2060ff" stroke-width="1.3" filter="url(#skr1x6089)"/><path d="M390.2559411344677 328.08938892558217 Q330.98637213507664 218.37859771382062 382.6058127336577 139.31962088961154" stroke="#2060ff" stroke-width="5" fill="none" stroke-linecap="round" filter="url(#skr1x6089)"/><path d="M389.4882488867827 327.58060564622286 Q330.83951985878866 218.27209848845376 381.5071235511825 139.55857754964381" stroke="rgba(255,255,255,.25)" stroke-width="1.5" fill="none" stroke-linecap="round"/><path d="M612.6297113169358 326.63969265986236 Q670.7103346445971 218.23064966294913 618.7023434687965 141.29175079734995" stroke="#2060ff" stroke-width="5" fill="none" stroke-linecap="round" filter="url(#skr1x6089)"/><path d="M611.9248361076601 328.67371467724445 Q670.6926003731229 215.34379117302595 617.9802110063471 139.87351325424387" stroke="rgba(255,255,255,.25)" stroke-width="1.5" fill="none" stroke-linecap="round"/><text x="30.0"  y="975.0" font-family="monospace" font-weight="bold" font-size="22.0" fill="rgba(255,255,255,.22)">#0001</text><text x="500.0"   y="975.0" text-anchor="middle" font-family="monospace" font-weight="bold" font-size="22.0" fill="#2060ff" fill-opacity=".48">COBALT RANGER</text><text x="970.0" y="975.0" text-anchor="end"    font-family="monospace" font-weight="bold" font-size="22.0" fill="#2060ff" fill-opacity=".32">MECH RANGERS</text></svg>