<svg xmlns="http://www.w3.org/2000/svg" viewBox="0 0 1000 1000" width="1000" height="1000" shape-rendering="geometricPrecision"><defs>

  <!-- Scene gradients -->
  <radialGradient id="bgr1x6153" cx="50%" cy="42%" r="72%">
    <stop offset="0%"   stop-color="#1a2814"/>
    <stop offset="100%" stop-color="#0d1520"/>
  </radialGradient>
  <linearGradient id="suitr1x6153" x1="8%" y1="0%" x2="92%" y2="100%">
    <stop offset="0%"   stop-color="#ff44aa" stop-opacity=".95"/>
    <stop offset="45%"  stop-color="#880050"/>
    <stop offset="100%" stop-color="#0d1520"/>
  </linearGradient>
  <linearGradient id="suitHir1x6153" x1="0%" y1="0%" x2="0%" y2="100%">
    <stop offset="0%"   stop-color="rgba(255,255,255,.28)"/>
    <stop offset="60%"  stop-color="rgba(255,255,255,.04)"/>
    <stop offset="100%" stop-color="rgba(255,255,255,0)"/>
  </linearGradient>
  <!-- Bevel: bright top, dark bottom for armour panels -->
  <linearGradient id="bevelr1x6153" x1="0%" y1="0%" x2="0%" y2="100%">
    <stop offset="0%"   stop-color="rgba(255,255,255,.55)"/>
    <stop offset="30%"  stop-color="#ff44aa"/>
    <stop offset="70%"  stop-color="#880050"/>
    <stop offset="100%" stop-color="rgba(0,0,0,.5)"/>
  </linearGradient>

  <!-- Weapon: cold steel blade sweep -->
  <linearGradient id="blader1x6153" x1="0%" y1="0%" x2="100%" y2="0%">
    <stop offset="0%"   stop-color="#0e0e20"/>
    <stop offset="16%"  stop-color="#3e3e58"/>
    <stop offset="34%"  stop-color="#c8c8e0"/>
    <stop offset="50%"  stop-color="#f5f5ff"/>
    <stop offset="66%"  stop-color="#b8b8d0"/>
    <stop offset="84%"  stop-color="#2e2e48"/>
    <stop offset="100%" stop-color="#08080e"/>
  </linearGradient>
  <!-- Blade tip brightening -->
  <linearGradient id="bladeTipr1x6153" x1="0%" y1="100%" x2="0%" y2="0%">
    <stop offset="0%"   stop-color="rgba(255,255,255,0)"/>
    <stop offset="55%"  stop-color="rgba(255,255,255,.1)"/>
    <stop offset="100%" stop-color="rgba(255,255,255,.55)"/>
  </linearGradient>
  <!-- Gunmetal anodised — blaster body -->
  <linearGradient id="gunmetalr1x6153" x1="0%" y1="0%" x2="0%" y2="100%">
    <stop offset="0%"   stop-color="#46465e"/>
    <stop offset="18%"  stop-color="#828296"/>
    <stop offset="42%"  stop-color="#26263a"/>
    <stop offset="72%"  stop-color="#16162a"/>
    <stop offset="100%" stop-color="#0c0c18"/>
  </linearGradient>
  <!-- Brushed steel tube — barrel/rod -->
  <linearGradient id="barrelr1x6153" x1="0%" y1="0%" x2="100%" y2="0%">
    <stop offset="0%"   stop-color="#0a0a14"/>
    <stop offset="24%"  stop-color="#585875"/>
    <stop offset="50%"  stop-color="#a8a8c8"/>
    <stop offset="76%"  stop-color="#383852"/>
    <stop offset="100%" stop-color="#0a0a14"/>
  </linearGradient>
  <!-- Chrome rod — lance shaft -->
  <linearGradient id="chromer1x6153" x1="0%" y1="0%" x2="100%" y2="0%">
    <stop offset="0%"   stop-color="#0c0c18"/>
    <stop offset="20%"  stop-color="#686888"/>
    <stop offset="44%"  stop-color="#e0e0f0"/>
    <stop offset="56%"  stop-color="#c0c0d8"/>
    <stop offset="80%"  stop-color="#28283e"/>
    <stop offset="100%" stop-color="#0c0c18"/>
  </linearGradient>
  <!-- Titanium plate — shield face -->
  <linearGradient id="titaniumr1x6153" x1="0%" y1="0%" x2="100%" y2="100%">
    <stop offset="0%"   stop-color="#585878"/>
    <stop offset="28%"  stop-color="#ff44aa" stop-opacity=".88"/>
    <stop offset="55%"  stop-color="#880050"/>
    <stop offset="80%"  stop-color="#181828"/>
    <stop offset="100%" stop-color="#0a0a18"/>
  </linearGradient>
  <!-- Artillery black-chrome — cannon body -->
  <linearGradient id="artilleryr1x6153" x1="0%" y1="0%" x2="0%" y2="100%">
    <stop offset="0%"   stop-color="#383850"/>
    <stop offset="14%"  stop-color="#78789a"/>
    <stop offset="36%"  stop-color="#202034"/>
    <stop offset="65%"  stop-color="#14141e"/>
    <stop offset="100%" stop-color="#0a0a12"/>
  </linearGradient>
  <!-- Energy orb — staff -->
  <radialGradient id="orbr1x6153" cx="35%" cy="35%" r="65%">
    <stop offset="0%"   stop-color="rgba(255,255,255,.9)"/>
    <stop offset="30%"  stop-color="#ff44aa"/>
    <stop offset="68%"  stop-color="#880050"/>
    <stop offset="100%" stop-color="rgba(0,0,0,.6)"/>
  </radialGradient>
  <!-- Knuckle plate chrome -->
  <linearGradient id="knuckler1x6153" x1="0%" y1="0%" x2="0%" y2="100%">
    <stop offset="0%"   stop-color="#888aaa"/>
    <stop offset="32%"  stop-color="#ff44aa" stop-opacity=".8"/>
    <stop offset="62%"  stop-color="#1a1a2c"/>
    <stop offset="100%" stop-color="#0a0a14"/>
  </linearGradient>

  <!-- Carbon fibre weave texture overlay -->
  <pattern id="carbonr1x6153" width="6" height="6" patternUnits="userSpaceOnUse">
    <rect width="6" height="6" fill="rgba(0,0,0,.08)"/>
    <rect x="0" y="0" width="3" height="3" fill="rgba(255,255,255,.022)"/>
    <rect x="3" y="3" width="3" height="3" fill="rgba(255,255,255,.022)"/>
    <line x1="0" y1="0" x2="3" y2="3" stroke="rgba(255,255,255,.038)" stroke-width=".5"/>
    <line x1="3" y1="0" x2="6" y2="3" stroke="rgba(0,0,0,.055)"       stroke-width=".5"/>
    <line x1="0" y1="3" x2="3" y2="6" stroke="rgba(0,0,0,.055)"       stroke-width=".5"/>
    <line x1="3" y1="3" x2="6" y2="6" stroke="rgba(255,255,255,.038)" stroke-width=".5"/>
  </pattern>

  <!-- Specular metal sheen on armour panels -->
  <filter id="metalr1x6153" x="-5%" y="-5%" width="110%" height="110%">
    <feSpecularLighting surfaceScale="4" specularConstant="1.8"
        specularExponent="42" lighting-color="#ffffff" result="spec">
      <feDistantLight elevation="52" azimuth="38"/>
    </feSpecularLighting>
    <feComposite in="spec" in2="SourceGraphic" operator="in" result="sm"/>
    <feComposite in="SourceGraphic" in2="sm" operator="arithmetic" k1="0" k2="1" k3="0.55" k4="0"/>
  </filter>

  <!-- Sharper specular for weapons — heavier glare -->
  <filter id="wmr1x6153" x="-8%" y="-8%" width="116%" height="116%">
    <feSpecularLighting surfaceScale="6" specularConstant="2.4"
        specularExponent="65" lighting-color="#ffffff" result="spec">
      <feDistantLight elevation="44" azimuth="28"/>
    </feSpecularLighting>
    <feComposite in="spec" in2="SourceGraphic" operator="in" result="sm"/>
    <feComposite in="SourceGraphic" in2="sm" operator="arithmetic" k1="0" k2="1" k3="0.78" k4="0"/>
  </filter>

  <!-- Sketch wobble -->
  <filter id="skr1x6153" x="-8%" y="-8%" width="116%" height="116%">
    <feTurbulence type="fractalNoise" baseFrequency="0.038"
        numOctaves="3" seed="3" result="noise"/>
    <feDisplacementMap in="SourceGraphic" in2="noise" scale="2.6"
        xChannelSelector="R" yChannelSelector="G" result="w"/>
    <feComposite in="w" in2="SourceGraphic" operator="atop"/>
  </filter>

  <!-- Glow: sharp accent -->
  <filter id="glowr1x6153" x="-20%" y="-20%" width="140%" height="140%">
    <feGaussianBlur stdDeviation="3.5" result="b"/>
    <feColorMatrix in="b" type="matrix"
        values="0 0 0 0 1  0 0 0 0 1  0 0 0 0 1  0 0 0 1.8 0" result="boost"/>
    <feMerge><feMergeNode in="boost"/><feMergeNode in="SourceGraphic"/></feMerge>
  </filter>

  <!-- Bloom: wide soft -->
  <filter id="bloomr1x6153" x="-40%" y="-40%" width="180%" height="180%">
    <feGaussianBlur stdDeviation="11" result="b"/>
    <feMerge><feMergeNode in="b"/><feMergeNode in="SourceGraphic"/></feMerge>
  </filter>

  </defs><rect width="1000" height="1000" fill="url(#bgr1x6153)"/><ellipse cx="500.0" cy="892.0" rx="350.0" ry="65.0" fill="rgba(0,0,0,.7)" filter="url(#bloomr1x6153)"/><ellipse cx="500.0" cy="889.0" rx="220.0" ry="34.0" fill="rgba(0,0,0,.45)"/><ellipse cx="500.0" cy="520.0" rx="320.0" ry="480.0" fill="#ff00ff" fill-opacity=".042" filter="url(#bloomr1x6153)"/><circle cx="628.7" cy="258.6" r="2.3" fill="#ff00ff" fill-opacity="0.47" filter="url(#glowr1x6153)"/><circle cx="585.0" cy="578.1" r="3.3" fill="#ff00ff" fill-opacity="0.89" filter="url(#glowr1x6153)"/><circle cx="650.4" cy="369.2" r="2.2" fill="#ff00ff" fill-opacity="0.57" filter="url(#glowr1x6153)"/><circle cx="599.5" cy="254.9" r="0.6" fill="#ff00ff" fill-opacity="0.84" filter="url(#glowr1x6153)"/><circle cx="622.5" cy="788.0" r="0.6" fill="#ff00ff" fill-opacity="0.39" filter="url(#glowr1x6153)"/><circle cx="270.0" cy="591.2" r="2.0" fill="#ff00ff" fill-opacity="0.85" filter="url(#glowr1x6153)"/><circle cx="392.0" cy="727.4" r="3.7" fill="#ff00ff" fill-opacity="0.77" filter="url(#glowr1x6153)"/><circle cx="725.3" cy="281.9" r="0.8" fill="#ff00ff" fill-opacity="0.65" filter="url(#glowr1x6153)"/><circle cx="413.8" cy="219.7" r="2.4" fill="#ff00ff" fill-opacity="0.44" filter="url(#glowr1x6153)"/><circle cx="694.5" cy="787.8" r="1.2" fill="#ff00ff" fill-opacity="0.58" filter="url(#glowr1x6153)"/><circle cx="642.1" cy="689.4" r="4.1" fill="#ff00ff" fill-opacity="0.59" filter="url(#glowr1x6153)"/><circle cx="380.0" cy="684.2" r="1.2" fill="#ff00ff" fill-opacity="0.67" filter="url(#glowr1x6153)"/><circle cx="500.7" cy="268.9" r="1.0" fill="#ff00ff" fill-opacity="0.45" filter="url(#glowr1x6153)"/><circle cx="394.3" cy="580.1" r="3.2" fill="#ff00ff" fill-opacity="0.79" filter="url(#glowr1x6153)"/><path d="M444.7,329.7 Q450.7,542.3 520.2,757.3" stroke="#ff00ff" stroke-opacity="0.50" stroke-width="0.9" fill="none" filter="url(#glowr1x6153)"/><path d="M387.5,261.2 Q348.6,506.3 597.1,788.3" stroke="#ff00ff" stroke-opacity="0.65" stroke-width="1.0" fill="none" filter="url(#glowr1x6153)"/><path d="M406.4,362.3 Q379.5,537.1 434.1,763.4" stroke="#ff00ff" stroke-opacity="0.52" stroke-width="2.4" fill="none" filter="url(#glowr1x6153)"/><path d="M663.5,229.0 Q690.4,465.7 630.7,709.4" stroke="#ff00ff" stroke-opacity="0.54" stroke-width="2.8" fill="none" filter="url(#glowr1x6153)"/><path d="M626.7,237.2 Q665.9,556.0 306.6,824.0" stroke="#ff00ff" stroke-opacity="0.72" stroke-width="0.9" fill="none" filter="url(#glowr1x6153)"/><polygon points="397.4,662.5 487.7,663.3 481.7,876.0 388.6,875.7" fill="url(#suitr1x6153)" stroke="#ff44aa" stroke-width="2.2" filter="url(#skr1x6153) url(#metalr1x6153)"/><polygon points="398.5,663.8 490.4,663.4 480.6,879.2 387.8,878.0" fill="url(#carbonr1x6153)"/><polygon points="391.5,724.3 493.5,722.7 484.9,788.0 383.4,789.7" fill="url(#bevelr1x6153)" fill-opacity=".5" stroke="#ff44aa" stroke-width="1.4" filter="url(#skr1x6153)"/><polygon points="510.0,662.9 601.1,664.3 613.7,875.7 519.9,876.9" fill="url(#suitr1x6153)" stroke="#ff44aa" stroke-width="2.2" filter="url(#skr1x6153) url(#metalr1x6153)"/><polygon points="511.9,660.9 602.2,663.7 612.1,876.1 517.6,877.0" fill="url(#carbonr1x6153)"/><polygon points="508.4,722.8 606.4,724.2 616.4,787.6 517.4,787.7" fill="url(#bevelr1x6153)" fill-opacity=".5" stroke="#ff44aa" stroke-width="1.4" filter="url(#skr1x6153)"/><rect x="392.6" y="839.0" width="100.3" height="24.7" fill="url(#bevelr1x6153)" stroke="#ff44aa" stroke-width="1" filter="url(#skr1x6153)"/><rect x="506.5"  y="840.2" width="100.3" height="24.7" fill="url(#bevelr1x6153)" stroke="#ff44aa" stroke-width="1" filter="url(#skr1x6153)"/><polygon points="371.4,879.1 497.2,876.6 504.7,920.9 363.1,919.7" fill="#880050" stroke="#ff44aa" stroke-width="2" filter="url(#skr1x6153)"/><polygon points="502.1,878.2 630.1,877.8 638.9,920.7 494.7,921.7" fill="#880050" stroke="#ff44aa" stroke-width="2" filter="url(#skr1x6153)"/><polygon points="304.6,634.6 697.8,634.7 637.5,682.5 361.2,680.5" fill="#ff44aa" fill-opacity=".52" stroke="#ff44aa" stroke-width="2" filter="url(#skr1x6153)"/><rect x="464.7" y="637.8" width="72.0" height="42.0" fill="url(#bevelr1x6153)" stroke="#ff44aa" stroke-width="1.4" filter="url(#glowr1x6153)"/><rect x="485.7" y="639.3" width="28.0" height="22.0" rx="1" fill="rgba(255,255,255,.48)"/><polygon points="152.8,467.3 236.4,465.5 257.3,735.5 127.1,736.6" fill="url(#suitr1x6153)" stroke="#ff44aa" stroke-width="2.2" filter="url(#skr1x6153) url(#metalr1x6153)"/><polygon points="174.9,431.5 251.8,432.7 244.1,510.9 158.3,511.8" fill="url(#bevelr1x6153)" fill-opacity=".72" stroke="#ff44aa" stroke-width="2.2" filter="url(#skr1x6153)"/><polygon points="159.9,621.8 241.8,623.2 238.3,659.2 164.5,661.0" fill="#ff44aa" fill-opacity=".42" stroke="#ff44aa" stroke-width="1" filter="url(#skr1x6153)"/><polygon points="765.2,467.9 847.9,467.5 871.6,734.5 742.9,735.1" fill="url(#suitr1x6153)" stroke="#ff44aa" stroke-width="2.2" filter="url(#skr1x6153) url(#metalr1x6153)"/><polygon points="747.7,432.2 825.8,432.9 840.6,509.5 755.8,510.2" fill="url(#bevelr1x6153)" fill-opacity=".72" stroke="#ff44aa" stroke-width="2.2" filter="url(#skr1x6153)"/><polygon points="756.7,621.7 837.1,620.9 834.5,661.3 761.2,659.4" fill="#ff44aa" fill-opacity=".42" stroke="#ff44aa" stroke-width="1" filter="url(#skr1x6153)"/><rect x="118.7"  y="698.9" width="135.3" height="85.0" rx="4" fill="url(#bevelr1x6153)" stroke="#ff44aa" stroke-width="1.8" filter="url(#skr1x6153)"/><rect x="749.8"   y="699.3" width="135.3" height="85.0" rx="4" fill="url(#bevelr1x6153)" stroke="#ff44aa" stroke-width="1.8" filter="url(#skr1x6153)"/><line x1="150.7" y1="701.6" x2="150.9" y2="783.6" stroke="#ff44aa" stroke-opacity=".38" stroke-width="1"/><line x1="777.4" y1="701.9" x2="776.7" y2="783.4" stroke="#ff44aa" stroke-opacity=".38" stroke-width="1"/><line x1="181.9" y1="701.2" x2="183.6" y2="784.8" stroke="#ff44aa" stroke-opacity=".38" stroke-width="1"/><line x1="812.2" y1="703.3" x2="811.4" y2="782.9" stroke="#ff44aa" stroke-opacity=".38" stroke-width="1"/><line x1="215.8" y1="703.2" x2="213.8" y2="783.5" stroke="#ff44aa" stroke-opacity=".38" stroke-width="1"/><line x1="843.4" y1="701.2" x2="844.4" y2="782.5" stroke="#ff44aa" stroke-opacity=".38" stroke-width="1"/><polygon points="234.3,418.2 763.5,418.1 723.2,663.6 276.9,660.9" fill="url(#suitr1x6153)" stroke="#ff44aa" stroke-width="2.6" filter="url(#skr1x6153) url(#metalr1x6153)"/><polygon points="233.5,415.8 766.0,416.2 721.3,663.4 279.1,661.3" fill="url(#carbonr1x6153)"/><polygon points="369.1,418.8 634.0,417.5 611.6,516.5 387.4,515.4" fill="url(#suitHir1x6153)"/><line x1="361.1" y1="472.2" x2="637.7" y2="471.8" stroke="#ff44aa" stroke-opacity=".52" stroke-width="1.3" filter="url(#skr1x6153)"/><line x1="399.8" y1="549.5" x2="599.0" y2="548.3" stroke="#ff44aa" stroke-opacity=".52" stroke-width="1.3" filter="url(#skr1x6153)"/><line x1="267.8" y1="492.6" x2="321.5" y2="490.4" stroke="#ff44aa" stroke-opacity=".62" stroke-width="1.8"/><line x1="678.7" y1="492.1" x2="732.5" y2="491.6" stroke="#ff44aa" stroke-opacity=".62" stroke-width="1.8"/><line x1="268.2" y1="522.6" x2="318.4" y2="523.0" stroke="#ff44aa" stroke-opacity=".62" stroke-width="1.8"/><line x1="679.0" y1="522.7" x2="732.0" y2="522.0" stroke="#ff44aa" stroke-opacity=".62" stroke-width="1.8"/><line x1="265.8" y1="554.8" x2="318.3" y2="554.0" stroke="#ff44aa" stroke-opacity=".62" stroke-width="1.8"/><line x1="679.2" y1="555.5" x2="733.5" y2="555.0" stroke="#ff44aa" stroke-opacity=".62" stroke-width="1.8"/><line x1="268.0" y1="585.0" x2="318.3" y2="584.8" stroke="#ff44aa" stroke-opacity=".62" stroke-width="1.8"/><line x1="679.5" y1="586.6" x2="731.4" y2="585.6" stroke="#ff44aa" stroke-opacity=".62" stroke-width="1.8"/><g filter="url(#glowr1x6153)"><polygon points="498.8,452.6 515.2,490.7 553.5,493.7 523.9,518.5 535.8,557.6 498.3,535.7 464.3,557.8 475.6,518.6 445.9,492.3 486.4,490.4 " fill="#ff44aa" stroke="#0d1520" stroke-width="1.4" filter="url(#skr1x6153)"/><polygon points="498.8,452.6 515.2,490.7 553.5,493.7 523.9,518.5 535.8,557.6 498.3,535.7 464.3,557.8 475.6,518.6 445.9,492.3 486.4,490.4 " fill="url(#suitHir1x6153)" opacity=".45"/></g><g><polygon points="73.7,692.4 104.9,689.6 39.8,272.8" fill="url(#blader1x6153)" stroke="#ff44aa" stroke-width="1.8" filter="url(#wmr1x6153)"/><line x1="97.2" y1="691.4" x2="46.2" y2="271.4" stroke="rgba(255,255,255,.58)" stroke-width="1.3"/><polygon points="115.3,692.6 146.5,691.9 189.6,269.8" fill="url(#blader1x6153)" stroke="#ff44aa" stroke-width="1.8" filter="url(#wmr1x6153)"/><line x1="146.2" y1="691.4" x2="184.2" y2="271.4" stroke="rgba(255,255,255,.58)" stroke-width="1.3"/><rect x="69.31474661495534" y="680.3327862855047" width="96.0" height="26.0" rx="2" fill="url(#bevelr1x6153)" stroke="#ff44aa" stroke-width="1.4" filter="url(#wmr1x6153)"/></g><rect x="448.53585546389223" y="557.2091398297808" width="100.0"  height="56.0" fill="#880050" stroke="#ff44aa" stroke-width="2.2" filter="url(#skr1x6153)"/><rect x="424.8658063897863" y="574.1059671455063" width="152.0" height="26.0" fill="url(#bevelr1x6153)" fill-opacity=".65" stroke="#ff44aa" stroke-width="1.2" filter="url(#skr1x6153)"/><polygon points="308.9,381.3 350.4,296.0 501.3,279.4 648.8,294.9 692.6,381.7 669.1,503.4 501.5,565.7 330.2,502.4" fill="url(#suitr1x6153)" stroke="#ff44aa" stroke-width="2.8" filter="url(#skr1x6153) url(#metalr1x6153)"/><polygon points="306.9,379.3 352.0,295.9 499.4,279.9 650.8,295.7 691.7,382.3 670.3,504.3 501.0,564.0 332.2,503.1" fill="url(#carbonr1x6153)"/><polygon points="381.2,303.3 499.2,285.4 617.9,302.2 608.1,379.8 391.8,381.2" fill="url(#suitHir1x6153)"/><polygon points="380.1,380.6 366.3,426.5 433.8,503.2 499.4,526.7 567.9,502.1 634.0,425.9 620.5,381.1" fill="#0d1520" fill-opacity=".88" stroke="#ff44aa" stroke-width="1.8" filter="url(#skr1x6153)"/><polygon points="381.4,413.0 476.7,409.6 485.2,438.8 387.3,440.6" fill="#ff44aa" filter="url(#glowr1x6153)"/><polygon points="523.6,410.2 620.8,410.7 612.6,441.0 515.0,440.9" fill="#ff44aa" filter="url(#glowr1x6153)"/><ellipse cx="430.9" cy="425.7" rx="38.4"  ry="8.2" fill="#ffffff" opacity=".88"/><ellipse cx="569.1" cy="425.7" rx="38.4"  ry="8.2" fill="#ffffff" opacity=".88"/><line x1="486.2692551347054" y1="412.50383305773136" x2="516.8993139458262" y2="414.7973834166303" stroke="#ff44aa" stroke-opacity=".52" stroke-width="2"/><line x1="482.84966834258285" y1="436.43203089879825" x2="513.9150011782907" y2="438.11766736786814" stroke="#ff44aa" stroke-opacity=".52" stroke-width="2"/><line x1="498.29961337624115" y1="455.61901975255455" x2="500.87354805888606" y2="482.75389077458533" stroke="#ff44aa" stroke-opacity=".58" stroke-width="2.2" filter="url(#skr1x6153)"/><line x1="455.65848869446666" y1="490.9993240626528" x2="453.92759742744266" y2="521.3817739240825" stroke="#ff44aa" stroke-opacity=".52" stroke-width="1.5" filter="url(#skr1x6153)"/><line x1="476.33146606091407" y1="489.6218294907361" x2="476.91884129563346" y2="519.5808979012072" stroke="#ff44aa" stroke-opacity=".52" stroke-width="1.5" filter="url(#skr1x6153)"/><line x1="500.02169445334005" y1="490.6367709086276" x2="500.4878041300923" y2="518.6800831433386" stroke="#ff44aa" stroke-opacity=".52" stroke-width="1.5" filter="url(#skr1x6153)"/><line x1="523.1042606485635" y1="491.26428766855963" x2="524.588699817434" y2="521.5203856781125" stroke="#ff44aa" stroke-opacity=".52" stroke-width="1.5" filter="url(#skr1x6153)"/><line x1="547.1519623903745" y1="492.866469934117" x2="545.3079675223865" y2="518.5350976417773" stroke="#ff44aa" stroke-opacity=".52" stroke-width="1.5" filter="url(#skr1x6153)"/><polygon points="432.6,504.2 568.5,504.9 555.1,556.2 447.6,557.9" fill="#880050" fill-opacity=".72" stroke="#ff44aa" stroke-width="1.3" filter="url(#skr1x6153)"/><text x="30.0"  y="975.0" font-family="monospace" font-weight="bold" font-size="22.0" fill="rgba(255,255,255,.22)">#0001</text><text x="500.0"   y="975.0" text-anchor="middle" font-family="monospace" font-weight="bold" font-size="22.0" fill="#ff44aa" fill-opacity=".48">SAKURA RANGER</text><text x="970.0" y="975.0" text-anchor="end"    font-family="monospace" font-weight="bold" font-size="22.0" fill="#ff44aa" fill-opacity=".32">MECH RANGERS</text></svg>