<svg xmlns="http://www.w3.org/2000/svg" viewBox="0 0 1000 1000" width="1000" height="1000" shape-rendering="geometricPrecision"><defs>

  <!-- Scene gradients -->
  <radialGradient id="bgr1x6196" cx="50%" cy="42%" r="72%">
    <stop offset="0%"   stop-color="#1e0d00"/>
    <stop offset="100%" stop-color="#140900"/>
  </radialGradient>
  <linearGradient id="suitr1x6196" x1="8%" y1="0%" x2="92%" y2="100%">
    <stop offset="0%"   stop-color="#ff2040" stop-opacity=".95"/>
    <stop offset="45%"  stop-color="#cc0020"/>
    <stop offset="100%" stop-color="#140900"/>
  </linearGradient>
  <linearGradient id="suitHir1x6196" x1="0%" y1="0%" x2="0%" y2="100%">
    <stop offset="0%"   stop-color="rgba(255,255,255,.28)"/>
    <stop offset="60%"  stop-color="rgba(255,255,255,.04)"/>
    <stop offset="100%" stop-color="rgba(255,255,255,0)"/>
  </linearGradient>
  <!-- Bevel: bright top, dark bottom for armour panels -->
  <linearGradient id="bevelr1x6196" x1="0%" y1="0%" x2="0%" y2="100%">
    <stop offset="0%"   stop-color="rgba(255,255,255,.55)"/>
    <stop offset="30%"  stop-color="#ff2040"/>
    <stop offset="70%"  stop-color="#cc0020"/>
    <stop offset="100%" stop-color="rgba(0,0,0,.5)"/>
  </linearGradient>

  <!-- Weapon: cold steel blade sweep -->
  <linearGradient id="blader1x6196" x1="0%" y1="0%" x2="100%" y2="0%">
    <stop offset="0%"   stop-color="#0e0e20"/>
    <stop offset="16%"  stop-color="#3e3e58"/>
    <stop offset="34%"  stop-color="#c8c8e0"/>
    <stop offset="50%"  stop-color="#f5f5ff"/>
    <stop offset="66%"  stop-color="#b8b8d0"/>
    <stop offset="84%"  stop-color="#2e2e48"/>
    <stop offset="100%" stop-color="#08080e"/>
  </linearGradient>
  <!-- Blade tip brightening -->
  <linearGradient id="bladeTipr1x6196" x1="0%" y1="100%" x2="0%" y2="0%">
    <stop offset="0%"   stop-color="rgba(255,255,255,0)"/>
    <stop offset="55%"  stop-color="rgba(255,255,255,.1)"/>
    <stop offset="100%" stop-color="rgba(255,255,255,.55)"/>
  </linearGradient>
  <!-- Gunmetal anodised — blaster body -->
  <linearGradient id="gunmetalr1x6196" x1="0%" y1="0%" x2="0%" y2="100%">
    <stop offset="0%"   stop-color="#46465e"/>
    <stop offset="18%"  stop-color="#828296"/>
    <stop offset="42%"  stop-color="#26263a"/>
    <stop offset="72%"  stop-color="#16162a"/>
    <stop offset="100%" stop-color="#0c0c18"/>
  </linearGradient>
  <!-- Brushed steel tube — barrel/rod -->
  <linearGradient id="barrelr1x6196" x1="0%" y1="0%" x2="100%" y2="0%">
    <stop offset="0%"   stop-color="#0a0a14"/>
    <stop offset="24%"  stop-color="#585875"/>
    <stop offset="50%"  stop-color="#a8a8c8"/>
    <stop offset="76%"  stop-color="#383852"/>
    <stop offset="100%" stop-color="#0a0a14"/>
  </linearGradient>
  <!-- Chrome rod — lance shaft -->
  <linearGradient id="chromer1x6196" x1="0%" y1="0%" x2="100%" y2="0%">
    <stop offset="0%"   stop-color="#0c0c18"/>
    <stop offset="20%"  stop-color="#686888"/>
    <stop offset="44%"  stop-color="#e0e0f0"/>
    <stop offset="56%"  stop-color="#c0c0d8"/>
    <stop offset="80%"  stop-color="#28283e"/>
    <stop offset="100%" stop-color="#0c0c18"/>
  </linearGradient>
  <!-- Titanium plate — shield face -->
  <linearGradient id="titaniumr1x6196" x1="0%" y1="0%" x2="100%" y2="100%">
    <stop offset="0%"   stop-color="#585878"/>
    <stop offset="28%"  stop-color="#ff2040" stop-opacity=".88"/>
    <stop offset="55%"  stop-color="#cc0020"/>
    <stop offset="80%"  stop-color="#181828"/>
    <stop offset="100%" stop-color="#0a0a18"/>
  </linearGradient>
  <!-- Artillery black-chrome — cannon body -->
  <linearGradient id="artilleryr1x6196" x1="0%" y1="0%" x2="0%" y2="100%">
    <stop offset="0%"   stop-color="#383850"/>
    <stop offset="14%"  stop-color="#78789a"/>
    <stop offset="36%"  stop-color="#202034"/>
    <stop offset="65%"  stop-color="#14141e"/>
    <stop offset="100%" stop-color="#0a0a12"/>
  </linearGradient>
  <!-- Energy orb — staff -->
  <radialGradient id="orbr1x6196" cx="35%" cy="35%" r="65%">
    <stop offset="0%"   stop-color="rgba(255,255,255,.9)"/>
    <stop offset="30%"  stop-color="#ff2040"/>
    <stop offset="68%"  stop-color="#cc0020"/>
    <stop offset="100%" stop-color="rgba(0,0,0,.6)"/>
  </radialGradient>
  <!-- Knuckle plate chrome -->
  <linearGradient id="knuckler1x6196" x1="0%" y1="0%" x2="0%" y2="100%">
    <stop offset="0%"   stop-color="#888aaa"/>
    <stop offset="32%"  stop-color="#ff2040" stop-opacity=".8"/>
    <stop offset="62%"  stop-color="#1a1a2c"/>
    <stop offset="100%" stop-color="#0a0a14"/>
  </linearGradient>

  <!-- Carbon fibre weave texture overlay -->
  <pattern id="carbonr1x6196" width="6" height="6" patternUnits="userSpaceOnUse">
    <rect width="6" height="6" fill="rgba(0,0,0,.08)"/>
    <rect x="0" y="0" width="3" height="3" fill="rgba(255,255,255,.022)"/>
    <rect x="3" y="3" width="3" height="3" fill="rgba(255,255,255,.022)"/>
    <line x1="0" y1="0" x2="3" y2="3" stroke="rgba(255,255,255,.038)" stroke-width=".5"/>
    <line x1="3" y1="0" x2="6" y2="3" stroke="rgba(0,0,0,.055)"       stroke-width=".5"/>
    <line x1="0" y1="3" x2="3" y2="6" stroke="rgba(0,0,0,.055)"       stroke-width=".5"/>
    <line x1="3" y1="3" x2="6" y2="6" stroke="rgba(255,255,255,.038)" stroke-width=".5"/>
  </pattern>

  <!-- Specular metal sheen on armour panels -->
  <filter id="metalr1x6196" x="-5%" y="-5%" width="110%" height="110%">
    <feSpecularLighting surfaceScale="4" specularConstant="1.8"
        specularExponent="42" lighting-color="#ffffff" result="spec">
      <feDistantLight elevation="52" azimuth="38"/>
    </feSpecularLighting>
    <feComposite in="spec" in2="SourceGraphic" operator="in" result="sm"/>
    <feComposite in="SourceGraphic" in2="sm" operator="arithmetic" k1="0" k2="1" k3="0.55" k4="0"/>
  </filter>

  <!-- Sharper specular for weapons — heavier glare -->
  <filter id="wmr1x6196" x="-8%" y="-8%" width="116%" height="116%">
    <feSpecularLighting surfaceScale="6" specularConstant="2.4"
        specularExponent="65" lighting-color="#ffffff" result="spec">
      <feDistantLight elevation="44" azimuth="28"/>
    </feSpecularLighting>
    <feComposite in="spec" in2="SourceGraphic" operator="in" result="sm"/>
    <feComposite in="SourceGraphic" in2="sm" operator="arithmetic" k1="0" k2="1" k3="0.78" k4="0"/>
  </filter>

  <!-- Sketch wobble -->
  <filter id="skr1x6196" x="-8%" y="-8%" width="116%" height="116%">
    <feTurbulence type="fractalNoise" baseFrequency="0.038"
        numOctaves="3" seed="71" result="noise"/>
    <feDisplacementMap in="SourceGraphic" in2="noise" scale="2.6"
        xChannelSelector="R" yChannelSelector="G" result="w"/>
    <feComposite in="w" in2="SourceGraphic" operator="atop"/>
  </filter>

  <!-- Glow: sharp accent -->
  <filter id="glowr1x6196" x="-20%" y="-20%" width="140%" height="140%">
    <feGaussianBlur stdDeviation="3.5" result="b"/>
    <feColorMatrix in="b" type="matrix"
        values="0 0 0 0 1  0 0 0 0 1  0 0 0 0 1  0 0 0 1.8 0" result="boost"/>
    <feMerge><feMergeNode in="boost"/><feMergeNode in="SourceGraphic"/></feMerge>
  </filter>

  <!-- Bloom: wide soft -->
  <filter id="bloomr1x6196" x="-40%" y="-40%" width="180%" height="180%">
    <feGaussianBlur stdDeviation="11" result="b"/>
    <feMerge><feMergeNode in="b"/><feMergeNode in="SourceGraphic"/></feMerge>
  </filter>

  </defs><rect width="1000" height="1000" fill="url(#bgr1x6196)"/><line x1="500" y1="500" x2="1500.0" y2="500.0" stroke="#ff2040" stroke-opacity=".048" stroke-width="5"/><line x1="500" y1="500" x2="1474.9" y2="722.5" stroke="#ff2040" stroke-opacity=".048" stroke-width="5"/><line x1="500" y1="500" x2="1401.0" y2="933.9" stroke="#ff2040" stroke-opacity=".048" stroke-width="5"/><line x1="500" y1="500" x2="1281.8" y2="1123.5" stroke="#ff2040" stroke-opacity=".048" stroke-width="5"/><line x1="500" y1="500" x2="1123.5" y2="1281.8" stroke="#ff2040" stroke-opacity=".048" stroke-width="5"/><line x1="500" y1="500" x2="933.9" y2="1401.0" stroke="#ff2040" stroke-opacity=".048" stroke-width="5"/><line x1="500" y1="500" x2="722.5" y2="1474.9" stroke="#ff2040" stroke-opacity=".048" stroke-width="5"/><line x1="500" y1="500" x2="500.0" y2="1500.0" stroke="#ff2040" stroke-opacity=".048" stroke-width="5"/><line x1="500" y1="500" x2="277.5" y2="1474.9" stroke="#ff2040" stroke-opacity=".048" stroke-width="5"/><line x1="500" y1="500" x2="66.1" y2="1401.0" stroke="#ff2040" stroke-opacity=".048" stroke-width="5"/><line x1="500" y1="500" x2="-123.5" y2="1281.8" stroke="#ff2040" stroke-opacity=".048" stroke-width="5"/><line x1="500" y1="500" x2="-281.8" y2="1123.5" stroke="#ff2040" stroke-opacity=".048" stroke-width="5"/><line x1="500" y1="500" x2="-401.0" y2="933.9" stroke="#ff2040" stroke-opacity=".048" stroke-width="5"/><line x1="500" y1="500" x2="-474.9" y2="722.5" stroke="#ff2040" stroke-opacity=".048" stroke-width="5"/><line x1="500" y1="500" x2="-500.0" y2="500.0" stroke="#ff2040" stroke-opacity=".048" stroke-width="5"/><line x1="500" y1="500" x2="-474.9" y2="277.5" stroke="#ff2040" stroke-opacity=".048" stroke-width="5"/><line x1="500" y1="500" x2="-401.0" y2="66.1" stroke="#ff2040" stroke-opacity=".048" stroke-width="5"/><line x1="500" y1="500" x2="-281.8" y2="-123.5" stroke="#ff2040" stroke-opacity=".048" stroke-width="5"/><line x1="500" y1="500" x2="-123.5" y2="-281.8" stroke="#ff2040" stroke-opacity=".048" stroke-width="5"/><line x1="500" y1="500" x2="66.1" y2="-401.0" stroke="#ff2040" stroke-opacity=".048" stroke-width="5"/><line x1="500" y1="500" x2="277.5" y2="-474.9" stroke="#ff2040" stroke-opacity=".048" stroke-width="5"/><line x1="500" y1="500" x2="500.0" y2="-500.0" stroke="#ff2040" stroke-opacity=".048" stroke-width="5"/><line x1="500" y1="500" x2="722.5" y2="-474.9" stroke="#ff2040" stroke-opacity=".048" stroke-width="5"/><line x1="500" y1="500" x2="933.9" y2="-401.0" stroke="#ff2040" stroke-opacity=".048" stroke-width="5"/><line x1="500" y1="500" x2="1123.5" y2="-281.8" stroke="#ff2040" stroke-opacity=".048" stroke-width="5"/><line x1="500" y1="500" x2="1281.8" y2="-123.5" stroke="#ff2040" stroke-opacity=".048" stroke-width="5"/><line x1="500" y1="500" x2="1401.0" y2="66.1" stroke="#ff2040" stroke-opacity=".048" stroke-width="5"/><line x1="500" y1="500" x2="1474.9" y2="277.5" stroke="#ff2040" stroke-opacity=".048" stroke-width="5"/><ellipse cx="500.0" cy="892.0" rx="350.0" ry="65.0" fill="rgba(0,0,0,.7)" filter="url(#bloomr1x6196)"/><ellipse cx="500.0" cy="889.0" rx="220.0" ry="34.0" fill="rgba(0,0,0,.45)"/><ellipse cx="500.0" cy="520.0" rx="320.0" ry="480.0" fill="#ff6600" fill-opacity=".042" filter="url(#bloomr1x6196)"/><circle cx="406.8" cy="432.3" r="2.7" fill="#ff6600" fill-opacity="0.63" filter="url(#glowr1x6196)"/><circle cx="343.2" cy="520.5" r="0.9" fill="#ff6600" fill-opacity="0.72" filter="url(#glowr1x6196)"/><circle cx="389.7" cy="225.9" r="3.4" fill="#ff6600" fill-opacity="0.46" filter="url(#glowr1x6196)"/><circle cx="289.3" cy="532.5" r="0.6" fill="#ff6600" fill-opacity="0.80" filter="url(#glowr1x6196)"/><circle cx="409.8" cy="751.3" r="2.9" fill="#ff6600" fill-opacity="0.80" filter="url(#glowr1x6196)"/><circle cx="471.2" cy="194.2" r="2.5" fill="#ff6600" fill-opacity="0.57" filter="url(#glowr1x6196)"/><circle cx="348.5" cy="684.6" r="3.2" fill="#ff6600" fill-opacity="0.47" filter="url(#glowr1x6196)"/><circle cx="414.6" cy="291.2" r="2.5" fill="#ff6600" fill-opacity="0.60" filter="url(#glowr1x6196)"/><circle cx="609.3" cy="562.4" r="3.0" fill="#ff6600" fill-opacity="0.43" filter="url(#glowr1x6196)"/><circle cx="726.3" cy="791.7" r="1.3" fill="#ff6600" fill-opacity="0.49" filter="url(#glowr1x6196)"/><circle cx="555.9" cy="758.1" r="2.1" fill="#ff6600" fill-opacity="0.46" filter="url(#glowr1x6196)"/><circle cx="612.2" cy="589.3" r="2.5" fill="#ff6600" fill-opacity="0.47" filter="url(#glowr1x6196)"/><circle cx="496.4" cy="384.1" r="3.4" fill="#ff6600" fill-opacity="0.58" filter="url(#glowr1x6196)"/><circle cx="279.1" cy="585.5" r="3.9" fill="#ff6600" fill-opacity="0.76" filter="url(#glowr1x6196)"/><polygon points="397.0,662.2 488.8,662.6 480.8,877.9 388.6,876.1" fill="url(#suitr1x6196)" stroke="#ff2040" stroke-width="2.2" filter="url(#skr1x6196) url(#metalr1x6196)"/><polygon points="398.1,661.2 490.5,663.0 480.1,878.2 388.3,879.0" fill="url(#carbonr1x6196)"/><polygon points="392.2,724.9 491.3,723.2 483.7,788.0 382.9,787.9" fill="url(#bevelr1x6196)" fill-opacity=".5" stroke="#ff2040" stroke-width="1.4" filter="url(#skr1x6196)"/><polygon points="509.7,662.6 603.0,662.1 612.2,879.0 517.6,876.1" fill="url(#suitr1x6196)" stroke="#ff2040" stroke-width="2.2" filter="url(#skr1x6196) url(#metalr1x6196)"/><polygon points="511.8,661.6 599.6,663.3 612.0,877.6 520.3,876.5" fill="url(#carbonr1x6196)"/><polygon points="507.0,723.1 605.8,725.5 614.6,787.3 514.3,789.8" fill="url(#bevelr1x6196)" fill-opacity=".5" stroke="#ff2040" stroke-width="1.4" filter="url(#skr1x6196)"/><rect x="392.7" y="837.3" width="100.3" height="24.7" fill="url(#bevelr1x6196)" stroke="#ff2040" stroke-width="1" filter="url(#skr1x6196)"/><rect x="508.8"  y="840.4" width="100.3" height="24.7" fill="url(#bevelr1x6196)" stroke="#ff2040" stroke-width="1" filter="url(#skr1x6196)"/><polygon points="369.0,876.1 494.8,877.6 505.2,921.6 364.1,921.6" fill="#cc0020" stroke="#ff2040" stroke-width="2" filter="url(#skr1x6196)"/><polygon points="502.2,876.2 629.1,877.7 636.3,919.7 497.4,920.7" fill="#cc0020" stroke="#ff2040" stroke-width="2" filter="url(#skr1x6196)"/><polygon points="304.7,631.6 695.0,631.9 636.5,681.9 361.9,680.9" fill="#ff2040" fill-opacity=".52" stroke="#ff2040" stroke-width="2" filter="url(#skr1x6196)"/><rect x="463.4" y="636.3" width="72.0" height="42.0" fill="url(#bevelr1x6196)" stroke="#ff2040" stroke-width="1.4" filter="url(#glowr1x6196)"/><rect x="487.2" y="640.5" width="28.0" height="22.0" rx="1" fill="rgba(255,255,255,.48)"/><polygon points="152.7,467.3 234.8,467.2 258.8,733.9 126.9,734.4" fill="url(#suitr1x6196)" stroke="#ff2040" stroke-width="2.2" filter="url(#skr1x6196) url(#metalr1x6196)"/><polygon points="172.4,431.0 254.4,433.6 242.5,512.1 160.5,510.6" fill="url(#bevelr1x6196)" fill-opacity=".72" stroke="#ff2040" stroke-width="2.2" filter="url(#skr1x6196)"/><polygon points="160.5,620.9 241.6,620.9 240.8,661.6 165.0,659.4" fill="#ff2040" fill-opacity=".42" stroke="#ff2040" stroke-width="1" filter="url(#skr1x6196)"/><polygon points="763.3,465.1 846.9,467.1 871.6,735.3 742.4,733.9" fill="url(#suitr1x6196)" stroke="#ff2040" stroke-width="2.2" filter="url(#skr1x6196) url(#metalr1x6196)"/><polygon points="746.0,431.3 827.8,433.3 840.4,511.1 757.4,511.6" fill="url(#bevelr1x6196)" fill-opacity=".72" stroke="#ff2040" stroke-width="2.2" filter="url(#skr1x6196)"/><polygon points="756.2,623.3 838.5,621.0 834.8,661.3 760.7,662.2" fill="#ff2040" fill-opacity=".42" stroke="#ff2040" stroke-width="1" filter="url(#skr1x6196)"/><rect x="120.6"  y="699.5" width="135.3" height="85.0" rx="4" fill="url(#bevelr1x6196)" stroke="#ff2040" stroke-width="1.8" filter="url(#skr1x6196)"/><rect x="749.4"   y="699.9" width="135.3" height="85.0" rx="4" fill="url(#bevelr1x6196)" stroke="#ff2040" stroke-width="1.8" filter="url(#skr1x6196)"/><line x1="149.4" y1="703.2" x2="151.1" y2="783.5" stroke="#ff2040" stroke-opacity=".38" stroke-width="1"/><line x1="778.9" y1="703.5" x2="779.7" y2="783.6" stroke="#ff2040" stroke-opacity=".38" stroke-width="1"/><line x1="182.7" y1="702.8" x2="182.6" y2="783.5" stroke="#ff2040" stroke-opacity=".38" stroke-width="1"/><line x1="811.3" y1="701.5" x2="811.5" y2="783.7" stroke="#ff2040" stroke-opacity=".38" stroke-width="1"/><line x1="213.6" y1="700.2" x2="216.6" y2="782.4" stroke="#ff2040" stroke-opacity=".38" stroke-width="1"/><line x1="842.5" y1="701.7" x2="842.9" y2="785.5" stroke="#ff2040" stroke-opacity=".38" stroke-width="1"/><polygon points="233.3,418.2 763.3,418.1 723.0,664.0 278.2,663.1" fill="url(#suitr1x6196)" stroke="#ff2040" stroke-width="2.6" filter="url(#skr1x6196) url(#metalr1x6196)"/><polygon points="236.6,419.0 766.7,417.1 720.9,661.5 278.6,662.7" fill="url(#carbonr1x6196)"/><polygon points="366.8,418.8 633.6,418.2 612.7,517.1 388.7,514.5" fill="url(#suitHir1x6196)"/><line x1="363.4" y1="472.1" x2="638.2" y2="470.9" stroke="#ff2040" stroke-opacity=".52" stroke-width="1.3" filter="url(#skr1x6196)"/><line x1="400.7" y1="551.1" x2="600.6" y2="548.4" stroke="#ff2040" stroke-opacity=".52" stroke-width="1.3" filter="url(#skr1x6196)"/><line x1="265.3" y1="489.4" x2="318.1" y2="490.3" stroke="#ff2040" stroke-opacity=".62" stroke-width="1.8"/><line x1="678.9" y1="491.1" x2="732.6" y2="491.3" stroke="#ff2040" stroke-opacity=".62" stroke-width="1.8"/><line x1="267.8" y1="521.2" x2="321.4" y2="524.6" stroke="#ff2040" stroke-opacity=".62" stroke-width="1.8"/><line x1="680.9" y1="524.1" x2="733.5" y2="523.3" stroke="#ff2040" stroke-opacity=".62" stroke-width="1.8"/><line x1="268.5" y1="553.4" x2="320.9" y2="555.9" stroke="#ff2040" stroke-opacity=".62" stroke-width="1.8"/><line x1="679.8" y1="556.3" x2="734.0" y2="554.9" stroke="#ff2040" stroke-opacity=".62" stroke-width="1.8"/><line x1="267.6" y1="586.4" x2="318.9" y2="588.0" stroke="#ff2040" stroke-opacity=".62" stroke-width="1.8"/><line x1="679.0" y1="586.8" x2="734.0" y2="586.8" stroke="#ff2040" stroke-opacity=".62" stroke-width="1.8"/><g filter="url(#glowr1x6196)"><polygon points="501.0,450.9 516.1,488.4 553.4,491.8 523.0,519.6 533.9,558.7 500.1,536.9 464.9,556.8 475.7,517.0 443.7,492.4 483.5,489.9 " fill="#ff2040" stroke="#140900" stroke-width="1.4" filter="url(#skr1x6196)"/><polygon points="501.0,450.9 516.1,488.4 553.4,491.8 523.0,519.6 533.9,558.7 500.1,536.9 464.9,556.8 475.7,517.0 443.7,492.4 483.5,489.9 " fill="url(#suitHir1x6196)" opacity=".45"/></g><g><line x1="896.5573607558013" y1="833.1222586083226" x2="898.3791082489863" y2="109.65516384700311" stroke="url(#chromer1x6196)" stroke-width="22.0" stroke-linecap="round" filter="url(#wmr1x6196)"/><line x1="900.2868541805633" y1="812.3807457884774" x2="901.689446281977" y2="132.17963130567222" stroke="rgba(255,255,255,.35)" stroke-width="4.0" stroke-linecap="round"/><rect x="881.0192398982682" y="622.126054516714" width="32.0" height="18.0" fill="url(#bevelr1x6196)" stroke="#ff2040" stroke-width=".8" filter="url(#wmr1x6196)"/><rect x="881.0498224706017" y="440.74124275036155" width="32.0" height="18.0" fill="url(#bevelr1x6196)" stroke="#ff2040" stroke-width=".8" filter="url(#wmr1x6196)"/><rect x="880.9550801669807" y="260.17869274979455" width="32.0" height="18.0" fill="url(#bevelr1x6196)" stroke="#ff2040" stroke-width=".8" filter="url(#wmr1x6196)"/><circle cx="898.9047519042716" cy="111.48062709989024" r="58.0" fill="rgba(0,0,0,.52)" stroke="#ff2040" stroke-width="2.2" filter="url(#wmr1x6196)"/><circle cx="897.3394618177414" cy="112.3561115737073" r="46.0" fill="url(#orbr1x6196)" filter="url(#bloomr1x6196)"/><circle cx="899.5347910646908" cy="111.681430831179" r="20.0" fill="#ff6600" filter="url(#glowr1x6196)"/><circle cx="897.2747377186641" cy="112.35582728134466" r="66.0" fill="none" stroke="#ff2040" stroke-opacity=".4" stroke-width="1.3" stroke-dasharray="4,4"/><ellipse cx="897.8782914556191" cy="112.23701681299133" rx="66.0" ry="30.0" fill="none" stroke="#ff2040" stroke-opacity=".24" stroke-width="1" stroke-dasharray="3,5" transform="rotate(60,897.8,111.4)"/></g><rect x="451.16409888267515" y="556.604561197292" width="100.0"  height="56.0" fill="#cc0020" stroke="#ff2040" stroke-width="2.2" filter="url(#skr1x6196)"/><rect x="423.30619112579154" y="576.3866746383719" width="152.0" height="26.0" fill="url(#bevelr1x6196)" fill-opacity=".65" stroke="#ff2040" stroke-width="1.2" filter="url(#skr1x6196)"/><polygon points="308.6,382.3 348.9,294.6 498.6,279.8 649.1,294.3 693.7,380.4 670.3,502.9 500.1,563.4 331.9,503.7" fill="url(#suitr1x6196)" stroke="#ff2040" stroke-width="2.8" filter="url(#skr1x6196) url(#metalr1x6196)"/><polygon points="309.6,380.8 351.8,293.8 498.5,279.3 648.1,294.3 692.9,381.3 669.9,504.9 498.3,564.1 332.7,504.9" fill="url(#carbonr1x6196)"/><polygon points="380.4,302.7 499.0,286.3 619.8,303.4 608.8,379.8 393.0,381.4" fill="url(#suitHir1x6196)"/><polygon points="382.0,382.0 365.1,425.5 433.4,502.5 500.8,529.4 567.3,503.1 632.6,426.4 617.8,381.9" fill="#140900" fill-opacity=".88" stroke="#ff2040" stroke-width="1.8" filter="url(#skr1x6196)"/><polygon points="380.0,409.8 478.0,410.4 485.4,440.0 387.8,441.8" fill="#ff2040" filter="url(#glowr1x6196)"/><polygon points="523.5,412.5 620.7,410.3 611.4,438.6 515.3,439.6" fill="#ff2040" filter="url(#glowr1x6196)"/><ellipse cx="430.9" cy="425.7" rx="38.4"  ry="8.2" fill="#ffffff" opacity=".88"/><ellipse cx="569.1" cy="425.7" rx="38.4"  ry="8.2" fill="#ffffff" opacity=".88"/><line x1="483.62775444356726" y1="412.21176970275116" x2="516.9897449873761" y2="413.2416673125699" stroke="#ff2040" stroke-opacity=".52" stroke-width="2"/><line x1="485.6422007054649" y1="438.7991464340128" x2="514.2856040019915" y2="438.7972426758148" stroke="#ff2040" stroke-opacity=".52" stroke-width="2"/><line x1="501.65569540066645" y1="455.9353632137179" x2="499.01252604611216" y2="483.618389284052" stroke="#ff2040" stroke-opacity=".58" stroke-width="2.2" filter="url(#skr1x6196)"/><line x1="453.30551800306887" y1="491.7909193423576" x2="453.09181407939644" y2="521.2893974838778" stroke="#ff2040" stroke-opacity=".52" stroke-width="1.5" filter="url(#skr1x6196)"/><line x1="477.78851492706684" y1="490.160614194069" x2="477.96120980441566" y2="520.6754299907946" stroke="#ff2040" stroke-opacity=".52" stroke-width="1.5" filter="url(#skr1x6196)"/><line x1="498.2717299083248" y1="491.89023579722266" x2="498.6935535633005" y2="518.6859607450664" stroke="#ff2040" stroke-opacity=".52" stroke-width="1.5" filter="url(#skr1x6196)"/><line x1="521.9588139211386" y1="491.48878129348157" x2="521.5710833572409" y2="519.1280684104189" stroke="#ff2040" stroke-opacity=".52" stroke-width="1.5" filter="url(#skr1x6196)"/><line x1="545.1830248050578" y1="492.7444447494112" x2="546.472675495334" y2="520.5856491561048" stroke="#ff2040" stroke-opacity=".52" stroke-width="1.5" filter="url(#skr1x6196)"/><polygon points="433.2,503.8 568.4,502.5 554.8,557.0 444.5,555.3" fill="#cc0020" fill-opacity=".72" stroke="#ff2040" stroke-width="1.3" filter="url(#skr1x6196)"/><text x="30.0"  y="975.0" font-family="monospace" font-weight="bold" font-size="22.0" fill="rgba(255,255,255,.22)">#0001</text><text x="500.0"   y="975.0" text-anchor="middle" font-family="monospace" font-weight="bold" font-size="22.0" fill="#ff2040" fill-opacity=".48">CRIMSON RANGER</text><text x="970.0" y="975.0" text-anchor="end"    font-family="monospace" font-weight="bold" font-size="22.0" fill="#ff2040" fill-opacity=".32">MECH RANGERS</text></svg>