<svg xmlns="http://www.w3.org/2000/svg" viewBox="0 0 1000 1000" width="1000" height="1000" shape-rendering="geometricPrecision"><defs>

  <!-- Scene gradients -->
  <radialGradient id="bgr1x6207" cx="50%" cy="42%" r="72%">
    <stop offset="0%"   stop-color="#1e0a2e"/>
    <stop offset="100%" stop-color="#0a0520"/>
  </radialGradient>
  <linearGradient id="suitr1x6207" x1="8%" y1="0%" x2="92%" y2="100%">
    <stop offset="0%"   stop-color="#00ffff" stop-opacity=".95"/>
    <stop offset="45%"  stop-color="#08001e"/>
    <stop offset="100%" stop-color="#0a0520"/>
  </linearGradient>
  <linearGradient id="suitHir1x6207" x1="0%" y1="0%" x2="0%" y2="100%">
    <stop offset="0%"   stop-color="rgba(255,255,255,.28)"/>
    <stop offset="60%"  stop-color="rgba(255,255,255,.04)"/>
    <stop offset="100%" stop-color="rgba(255,255,255,0)"/>
  </linearGradient>
  <!-- Bevel: bright top, dark bottom for armour panels -->
  <linearGradient id="bevelr1x6207" x1="0%" y1="0%" x2="0%" y2="100%">
    <stop offset="0%"   stop-color="rgba(255,255,255,.55)"/>
    <stop offset="30%"  stop-color="#00ffff"/>
    <stop offset="70%"  stop-color="#08001e"/>
    <stop offset="100%" stop-color="rgba(0,0,0,.5)"/>
  </linearGradient>

  <!-- Weapon: cold steel blade sweep -->
  <linearGradient id="blader1x6207" x1="0%" y1="0%" x2="100%" y2="0%">
    <stop offset="0%"   stop-color="#0e0e20"/>
    <stop offset="16%"  stop-color="#3e3e58"/>
    <stop offset="34%"  stop-color="#c8c8e0"/>
    <stop offset="50%"  stop-color="#f5f5ff"/>
    <stop offset="66%"  stop-color="#b8b8d0"/>
    <stop offset="84%"  stop-color="#2e2e48"/>
    <stop offset="100%" stop-color="#08080e"/>
  </linearGradient>
  <!-- Blade tip brightening -->
  <linearGradient id="bladeTipr1x6207" x1="0%" y1="100%" x2="0%" y2="0%">
    <stop offset="0%"   stop-color="rgba(255,255,255,0)"/>
    <stop offset="55%"  stop-color="rgba(255,255,255,.1)"/>
    <stop offset="100%" stop-color="rgba(255,255,255,.55)"/>
  </linearGradient>
  <!-- Gunmetal anodised — blaster body -->
  <linearGradient id="gunmetalr1x6207" x1="0%" y1="0%" x2="0%" y2="100%">
    <stop offset="0%"   stop-color="#46465e"/>
    <stop offset="18%"  stop-color="#828296"/>
    <stop offset="42%"  stop-color="#26263a"/>
    <stop offset="72%"  stop-color="#16162a"/>
    <stop offset="100%" stop-color="#0c0c18"/>
  </linearGradient>
  <!-- Brushed steel tube — barrel/rod -->
  <linearGradient id="barrelr1x6207" x1="0%" y1="0%" x2="100%" y2="0%">
    <stop offset="0%"   stop-color="#0a0a14"/>
    <stop offset="24%"  stop-color="#585875"/>
    <stop offset="50%"  stop-color="#a8a8c8"/>
    <stop offset="76%"  stop-color="#383852"/>
    <stop offset="100%" stop-color="#0a0a14"/>
  </linearGradient>
  <!-- Chrome rod — lance shaft -->
  <linearGradient id="chromer1x6207" x1="0%" y1="0%" x2="100%" y2="0%">
    <stop offset="0%"   stop-color="#0c0c18"/>
    <stop offset="20%"  stop-color="#686888"/>
    <stop offset="44%"  stop-color="#e0e0f0"/>
    <stop offset="56%"  stop-color="#c0c0d8"/>
    <stop offset="80%"  stop-color="#28283e"/>
    <stop offset="100%" stop-color="#0c0c18"/>
  </linearGradient>
  <!-- Titanium plate — shield face -->
  <linearGradient id="titaniumr1x6207" x1="0%" y1="0%" x2="100%" y2="100%">
    <stop offset="0%"   stop-color="#585878"/>
    <stop offset="28%"  stop-color="#00ffff" stop-opacity=".88"/>
    <stop offset="55%"  stop-color="#08001e"/>
    <stop offset="80%"  stop-color="#181828"/>
    <stop offset="100%" stop-color="#0a0a18"/>
  </linearGradient>
  <!-- Artillery black-chrome — cannon body -->
  <linearGradient id="artilleryr1x6207" x1="0%" y1="0%" x2="0%" y2="100%">
    <stop offset="0%"   stop-color="#383850"/>
    <stop offset="14%"  stop-color="#78789a"/>
    <stop offset="36%"  stop-color="#202034"/>
    <stop offset="65%"  stop-color="#14141e"/>
    <stop offset="100%" stop-color="#0a0a12"/>
  </linearGradient>
  <!-- Energy orb — staff -->
  <radialGradient id="orbr1x6207" cx="35%" cy="35%" r="65%">
    <stop offset="0%"   stop-color="rgba(255,255,255,.9)"/>
    <stop offset="30%"  stop-color="#00ffff"/>
    <stop offset="68%"  stop-color="#08001e"/>
    <stop offset="100%" stop-color="rgba(0,0,0,.6)"/>
  </radialGradient>
  <!-- Knuckle plate chrome -->
  <linearGradient id="knuckler1x6207" x1="0%" y1="0%" x2="0%" y2="100%">
    <stop offset="0%"   stop-color="#888aaa"/>
    <stop offset="32%"  stop-color="#00ffff" stop-opacity=".8"/>
    <stop offset="62%"  stop-color="#1a1a2c"/>
    <stop offset="100%" stop-color="#0a0a14"/>
  </linearGradient>

  <!-- Carbon fibre weave texture overlay -->
  <pattern id="carbonr1x6207" width="6" height="6" patternUnits="userSpaceOnUse">
    <rect width="6" height="6" fill="rgba(0,0,0,.08)"/>
    <rect x="0" y="0" width="3" height="3" fill="rgba(255,255,255,.022)"/>
    <rect x="3" y="3" width="3" height="3" fill="rgba(255,255,255,.022)"/>
    <line x1="0" y1="0" x2="3" y2="3" stroke="rgba(255,255,255,.038)" stroke-width=".5"/>
    <line x1="3" y1="0" x2="6" y2="3" stroke="rgba(0,0,0,.055)"       stroke-width=".5"/>
    <line x1="0" y1="3" x2="3" y2="6" stroke="rgba(0,0,0,.055)"       stroke-width=".5"/>
    <line x1="3" y1="3" x2="6" y2="6" stroke="rgba(255,255,255,.038)" stroke-width=".5"/>
  </pattern>

  <!-- Specular metal sheen on armour panels -->
  <filter id="metalr1x6207" x="-5%" y="-5%" width="110%" height="110%">
    <feSpecularLighting surfaceScale="4" specularConstant="1.8"
        specularExponent="42" lighting-color="#ffffff" result="spec">
      <feDistantLight elevation="52" azimuth="38"/>
    </feSpecularLighting>
    <feComposite in="spec" in2="SourceGraphic" operator="in" result="sm"/>
    <feComposite in="SourceGraphic" in2="sm" operator="arithmetic" k1="0" k2="1" k3="0.55" k4="0"/>
  </filter>

  <!-- Sharper specular for weapons — heavier glare -->
  <filter id="wmr1x6207" x="-8%" y="-8%" width="116%" height="116%">
    <feSpecularLighting surfaceScale="6" specularConstant="2.4"
        specularExponent="65" lighting-color="#ffffff" result="spec">
      <feDistantLight elevation="44" azimuth="28"/>
    </feSpecularLighting>
    <feComposite in="spec" in2="SourceGraphic" operator="in" result="sm"/>
    <feComposite in="SourceGraphic" in2="sm" operator="arithmetic" k1="0" k2="1" k3="0.78" k4="0"/>
  </filter>

  <!-- Sketch wobble -->
  <filter id="skr1x6207" x="-8%" y="-8%" width="116%" height="116%">
    <feTurbulence type="fractalNoise" baseFrequency="0.038"
        numOctaves="3" seed="6" result="noise"/>
    <feDisplacementMap in="SourceGraphic" in2="noise" scale="2.6"
        xChannelSelector="R" yChannelSelector="G" result="w"/>
    <feComposite in="w" in2="SourceGraphic" operator="atop"/>
  </filter>

  <!-- Glow: sharp accent -->
  <filter id="glowr1x6207" x="-20%" y="-20%" width="140%" height="140%">
    <feGaussianBlur stdDeviation="3.5" result="b"/>
    <feColorMatrix in="b" type="matrix"
        values="0 0 0 0 1  0 0 0 0 1  0 0 0 0 1  0 0 0 1.8 0" result="boost"/>
    <feMerge><feMergeNode in="boost"/><feMergeNode in="SourceGraphic"/></feMerge>
  </filter>

  <!-- Bloom: wide soft -->
  <filter id="bloomr1x6207" x="-40%" y="-40%" width="180%" height="180%">
    <feGaussianBlur stdDeviation="11" result="b"/>
    <feMerge><feMergeNode in="b"/><feMergeNode in="SourceGraphic"/></feMerge>
  </filter>

  </defs><rect width="1000" height="1000" fill="url(#bgr1x6207)"/><ellipse cx="500.0" cy="892.0" rx="350.0" ry="65.0" fill="rgba(0,0,0,.7)" filter="url(#bloomr1x6207)"/><ellipse cx="500.0" cy="889.0" rx="220.0" ry="34.0" fill="rgba(0,0,0,.45)"/><ellipse cx="500.0" cy="520.0" rx="320.0" ry="480.0" fill="#ff6600" fill-opacity=".042" filter="url(#bloomr1x6207)"/><circle cx="537.7" cy="576.5" r="3.4" fill="#ff6600" fill-opacity="0.66" filter="url(#glowr1x6207)"/><circle cx="620.0" cy="628.7" r="3.6" fill="#ff6600" fill-opacity="0.75" filter="url(#glowr1x6207)"/><circle cx="618.9" cy="212.7" r="2.4" fill="#ff6600" fill-opacity="0.60" filter="url(#glowr1x6207)"/><circle cx="602.9" cy="762.8" r="1.5" fill="#ff6600" fill-opacity="0.75" filter="url(#glowr1x6207)"/><circle cx="405.5" cy="211.5" r="2.5" fill="#ff6600" fill-opacity="0.63" filter="url(#glowr1x6207)"/><circle cx="624.7" cy="622.0" r="1.1" fill="#ff6600" fill-opacity="0.47" filter="url(#glowr1x6207)"/><circle cx="583.8" cy="281.8" r="1.9" fill="#ff6600" fill-opacity="0.75" filter="url(#glowr1x6207)"/><circle cx="589.7" cy="669.4" r="0.8" fill="#ff6600" fill-opacity="0.59" filter="url(#glowr1x6207)"/><circle cx="573.1" cy="451.0" r="1.5" fill="#ff6600" fill-opacity="0.83" filter="url(#glowr1x6207)"/><circle cx="554.3" cy="304.6" r="1.0" fill="#ff6600" fill-opacity="0.65" filter="url(#glowr1x6207)"/><circle cx="546.9" cy="375.9" r="4.2" fill="#ff6600" fill-opacity="0.57" filter="url(#glowr1x6207)"/><circle cx="679.1" cy="241.6" r="3.9" fill="#ff6600" fill-opacity="0.66" filter="url(#glowr1x6207)"/><circle cx="377.5" cy="557.4" r="3.2" fill="#ff6600" fill-opacity="0.81" filter="url(#glowr1x6207)"/><circle cx="548.4" cy="250.2" r="2.6" fill="#ff6600" fill-opacity="0.80" filter="url(#glowr1x6207)"/><polygon points="397.5,663.6 490.5,663.5 480.2,879.0 387.6,877.7" fill="url(#suitr1x6207)" stroke="#00ffff" stroke-width="2.2" filter="url(#skr1x6207) url(#metalr1x6207)"/><polygon points="398.6,663.9 488.0,662.7 479.4,878.5 385.7,877.5" fill="url(#carbonr1x6207)"/><polygon points="394.1,722.9 491.7,722.4 482.4,789.4 385.4,786.8" fill="url(#bevelr1x6207)" fill-opacity=".5" stroke="#00ffff" stroke-width="1.4" filter="url(#skr1x6207)"/><polygon points="511.5,661.0 601.7,660.9 613.0,876.3 519.8,879.2" fill="url(#suitr1x6207)" stroke="#00ffff" stroke-width="2.2" filter="url(#skr1x6207) url(#metalr1x6207)"/><polygon points="509.7,662.0 600.2,661.8 611.5,877.3 518.0,879.0" fill="url(#carbonr1x6207)"/><polygon points="507.0,722.1 605.9,724.5 614.9,788.5 515.7,788.1" fill="url(#bevelr1x6207)" fill-opacity=".5" stroke="#00ffff" stroke-width="1.4" filter="url(#skr1x6207)"/><rect x="392.9" y="839.2" width="100.3" height="24.7" fill="url(#bevelr1x6207)" stroke="#00ffff" stroke-width="1" filter="url(#skr1x6207)"/><rect x="506.3"  y="840.2" width="100.3" height="24.7" fill="url(#bevelr1x6207)" stroke="#00ffff" stroke-width="1" filter="url(#skr1x6207)"/><polygon points="370.3,877.2 496.7,878.8 504.3,920.7 361.6,922.0" fill="#08001e" stroke="#00ffff" stroke-width="2" filter="url(#skr1x6207)"/><polygon points="505.0,876.2 630.4,877.6 637.4,922.8 495.2,922.0" fill="#08001e" stroke="#00ffff" stroke-width="2" filter="url(#skr1x6207)"/><polygon points="303.5,634.5 697.4,634.9 636.3,682.8 361.1,683.9" fill="#00ffff" fill-opacity=".52" stroke="#00ffff" stroke-width="2" filter="url(#skr1x6207)"/><rect x="465.6" y="637.5" width="72.0" height="42.0" fill="url(#bevelr1x6207)" stroke="#00ffff" stroke-width="1.4" filter="url(#glowr1x6207)"/><rect x="486.2" y="640.6" width="28.0" height="22.0" rx="1" fill="rgba(255,255,255,.48)"/><polygon points="154.7,466.6 234.6,465.6 256.6,735.6 128.4,734.3" fill="url(#suitr1x6207)" stroke="#00ffff" stroke-width="2.2" filter="url(#skr1x6207) url(#metalr1x6207)"/><polygon points="173.6,432.8 252.0,430.8 244.7,510.6 160.1,508.8" fill="url(#bevelr1x6207)" fill-opacity=".72" stroke="#00ffff" stroke-width="2.2" filter="url(#skr1x6207)"/><polygon points="160.9,622.1 243.8,620.6 237.8,661.7 166.4,659.8" fill="#00ffff" fill-opacity=".42" stroke="#00ffff" stroke-width="1" filter="url(#skr1x6207)"/><polygon points="764.2,464.7 847.2,465.2 872.9,734.2 741.7,735.4" fill="url(#suitr1x6207)" stroke="#00ffff" stroke-width="2.2" filter="url(#skr1x6207) url(#metalr1x6207)"/><polygon points="748.6,432.3 826.2,432.2 840.5,510.6 757.0,509.0" fill="url(#bevelr1x6207)" fill-opacity=".72" stroke="#00ffff" stroke-width="2.2" filter="url(#skr1x6207)"/><polygon points="758.0,623.5 838.4,620.1 834.3,659.7 760.5,661.7" fill="#00ffff" fill-opacity=".42" stroke="#00ffff" stroke-width="1" filter="url(#skr1x6207)"/><rect x="118.9"  y="699.7" width="135.3" height="85.0" rx="4" fill="url(#bevelr1x6207)" stroke="#00ffff" stroke-width="1.8" filter="url(#skr1x6207)"/><rect x="750.3"   y="700.6" width="135.3" height="85.0" rx="4" fill="url(#bevelr1x6207)" stroke="#00ffff" stroke-width="1.8" filter="url(#skr1x6207)"/><line x1="149.1" y1="702.0" x2="149.9" y2="785.2" stroke="#00ffff" stroke-opacity=".38" stroke-width="1"/><line x1="778.0" y1="702.8" x2="779.8" y2="784.8" stroke="#00ffff" stroke-opacity=".38" stroke-width="1"/><line x1="183.7" y1="701.0" x2="182.5" y2="782.4" stroke="#00ffff" stroke-opacity=".38" stroke-width="1"/><line x1="812.0" y1="700.4" x2="811.3" y2="784.9" stroke="#00ffff" stroke-opacity=".38" stroke-width="1"/><line x1="216.8" y1="701.8" x2="216.4" y2="784.4" stroke="#00ffff" stroke-opacity=".38" stroke-width="1"/><line x1="845.0" y1="701.2" x2="842.1" y2="784.1" stroke="#00ffff" stroke-opacity=".38" stroke-width="1"/><polygon points="236.2,419.1 765.8,419.1 723.4,661.2 277.3,662.6" fill="url(#suitr1x6207)" stroke="#00ffff" stroke-width="2.6" filter="url(#skr1x6207) url(#metalr1x6207)"/><polygon points="235.2,418.8 764.8,416.8 723.9,662.7 275.7,661.3" fill="url(#carbonr1x6207)"/><polygon points="366.2,416.3 632.7,416.9 611.7,516.3 387.9,517.2" fill="url(#suitHir1x6207)"/><line x1="361.2" y1="472.2" x2="636.3" y2="472.6" stroke="#00ffff" stroke-opacity=".52" stroke-width="1.3" filter="url(#skr1x6207)"/><line x1="399.6" y1="551.3" x2="598.9" y2="550.7" stroke="#00ffff" stroke-opacity=".52" stroke-width="1.3" filter="url(#skr1x6207)"/><line x1="265.2" y1="491.5" x2="320.6" y2="492.2" stroke="#00ffff" stroke-opacity=".62" stroke-width="1.8"/><line x1="679.4" y1="492.8" x2="733.7" y2="492.7" stroke="#00ffff" stroke-opacity=".62" stroke-width="1.8"/><line x1="266.6" y1="521.7" x2="319.9" y2="522.6" stroke="#00ffff" stroke-opacity=".62" stroke-width="1.8"/><line x1="679.9" y1="523.1" x2="731.8" y2="522.0" stroke="#00ffff" stroke-opacity=".62" stroke-width="1.8"/><line x1="266.9" y1="556.1" x2="321.5" y2="555.0" stroke="#00ffff" stroke-opacity=".62" stroke-width="1.8"/><line x1="679.7" y1="554.6" x2="734.1" y2="553.0" stroke="#00ffff" stroke-opacity=".62" stroke-width="1.8"/><line x1="267.3" y1="585.5" x2="320.0" y2="588.3" stroke="#00ffff" stroke-opacity=".62" stroke-width="1.8"/><line x1="681.0" y1="588.1" x2="731.9" y2="585.1" stroke="#00ffff" stroke-opacity=".62" stroke-width="1.8"/><g filter="url(#glowr1x6207)"><path d="M500.0,449.7 C462.3,446.8 442.0,481.6 447.8,513.5 L459.4,542.5 C476.8,536.7 491.3,551.2 500.0,551.2 C508.7,551.2 523.2,536.7 540.6,542.5 L552.2,513.5 C558.0,481.6 537.7,446.8 500.0,449.7 Z" fill="#00ffff" fill-opacity=".92" stroke="#0a0520" stroke-width="1.3" filter="url(#skr1x6207)"/><path d="M483.8,519.3 Q500.0,533.8 516.2,519.3" stroke="#0a0520" stroke-width="1" fill="none" opacity=".58"/><ellipse cx="481.4" cy="497.8" rx="8.7" ry="6.4" fill="#0a0520" opacity=".95"/><ellipse cx="518.6" cy="497.8" rx="8.7" ry="6.4" fill="#0a0520" opacity=".95"/><ellipse cx="481.4" cy="497.8" rx="2.3" ry="5.8" fill="#00ffff"/><ellipse cx="518.6" cy="497.8" rx="2.3" ry="5.8" fill="#00ffff"/><path d="M471.0,467.1 L458.2,426.5 L481.4,463.0" fill="#00ffff" stroke="#0a0520" stroke-width=".9"/><path d="M529.0,467.1 L541.8,426.5 L518.6,463.0" fill="#00ffff" stroke="#0a0520" stroke-width=".9"/><path d="M476.8,452.6 C488.4,449.1 511.6,449.1 523.2,452.6" fill="rgba(255,255,255,.18)"/></g><g><polygon points="76.2,671.4 128.2,671.4 112.6,-28.6 91.8,-28.6" fill="url(#blader1x6207)" filter="url(#wmr1x6207)"/><polygon points="91.8,-28.6 112.6,-28.6 102.2,-138.6" fill="url(#blader1x6207)" filter="url(#wmr1x6207)"/><polygon points="100.3,671.4 104.0,671.4 102.7,-128.6 101.6,-128.6" fill="url(#bladeTipr1x6207)" opacity=".9"/><line x1="113.12516422903163" y1="671.0704180637374" x2="104.73814285313708" y2="-129.43534961976113" stroke="rgba(255,255,255,.68)" stroke-width="1.5"/><line x1="92.69295265683901" y1="669.8325282859615" x2="99.56328871760513" y2="-130.01606529830025" stroke="#00ffff" stroke-width="1" stroke-opacity=".45"/><line x1="106.8" y1="651.4" x2="104.0" y2="11.4" stroke="rgba(0,0,0,.38)" stroke-width="1.6"/><line x1="97.5" y1="651.4" x2="100.3" y2="11.4" stroke="rgba(0,0,0,.38)" stroke-width="1.6"/><rect x="46.572815454322814" y="667.9588034040295" width="112.0" height="28.0" rx="3" fill="url(#bevelr1x6207)" stroke="#00ffff" stroke-width="1.6" filter="url(#wmr1x6207)"/><rect x="68.6958578694984" y="674.3667888535186" width="64.0" height="10.0" rx="1" fill="rgba(255,255,255,.32)"/><rect x="91.09409375324842" y="678.2341903589665" width="24.0" height="6.0" rx="1" fill="#00ffff" fill-opacity=".35"/><rect x="88.54382301973176" y="685.266699282173" width="24.0" height="6.0" rx="1" fill="#00ffff" fill-opacity=".35"/><rect x="89.62726878592741" y="691.9141447437927" width="24.0" height="6.0" rx="1" fill="#00ffff" fill-opacity=".35"/><rect x="89.54678038977083" y="703.0970303655602" width="24.0" height="6.0" rx="1" fill="#00ffff" fill-opacity=".35"/><rect x="90.9504022607952" y="709.2038313915953" width="24.0" height="6.0" rx="1" fill="#00ffff" fill-opacity=".35"/><rect x="91.39832070231435" y="718.3672660830431" width="24.0" height="6.0" rx="1" fill="#00ffff" fill-opacity=".35"/><ellipse cx="101.79624541582537" cy="727.538038560003" rx="22.0" ry="16.0" fill="url(#bevelr1x6207)" stroke="#00ffff" stroke-width="1.2" filter="url(#wmr1x6207)"/></g><rect x="448.51829201644284" y="558.1564413527027" width="100.0"  height="56.0" fill="#08001e" stroke="#00ffff" stroke-width="2.2" filter="url(#skr1x6207)"/><rect x="424.6193208335899" y="576.9366430988536" width="152.0" height="26.0" fill="url(#bevelr1x6207)" fill-opacity=".65" stroke="#00ffff" stroke-width="1.2" filter="url(#skr1x6207)"/><polygon points="307.2,381.7 349.7,295.5 500.2,279.2 650.0,296.2 692.3,381.5 670.5,503.2 500.1,565.2 329.8,502.1" fill="url(#suitr1x6207)" stroke="#00ffff" stroke-width="2.8" filter="url(#skr1x6207) url(#metalr1x6207)"/><polygon points="308.7,380.7 351.3,295.9 498.7,279.4 648.5,294.7 692.4,380.6 667.5,503.2 499.3,563.9 332.3,504.9" fill="url(#carbonr1x6207)"/><polygon points="382.7,302.0 501.0,287.8 618.2,303.1 608.1,381.5 392.4,380.7" fill="url(#suitHir1x6207)"/><polygon points="381.3,380.0 366.0,426.5 431.7,502.3 499.1,529.5 565.6,502.1 633.7,426.5 620.1,379.0" fill="#0a0520" fill-opacity=".88" stroke="#00ffff" stroke-width="1.8" filter="url(#skr1x6207)"/><polygon points="380.9,412.6 478.7,410.5 485.4,438.6 387.5,439.4" fill="#00ffff" filter="url(#glowr1x6207)"/><polygon points="524.3,409.9 619.5,412.0 611.7,438.8 515.2,440.5" fill="#00ffff" filter="url(#glowr1x6207)"/><ellipse cx="430.9" cy="425.7" rx="38.4"  ry="8.2" fill="#ffffff" opacity=".88"/><ellipse cx="569.1" cy="425.7" rx="38.4"  ry="8.2" fill="#ffffff" opacity=".88"/><line x1="485.0440265804157" y1="412.38811852913346" x2="514.8405661405437" y2="412.47373444810506" stroke="#00ffff" stroke-opacity=".52" stroke-width="2"/><line x1="485.1963337909058" y1="437.49513642294335" x2="513.7333362387866" y2="436.59591270787644" stroke="#00ffff" stroke-opacity=".52" stroke-width="2"/><line x1="498.3247164822184" y1="453.6714277146384" x2="498.6778533777222" y2="482.3091030568816" stroke="#00ffff" stroke-opacity=".58" stroke-width="2.2" filter="url(#skr1x6207)"/><line x1="453.45242300907154" y1="491.5711575691588" x2="455.3478477136046" y2="520.9516275698319" stroke="#00ffff" stroke-opacity=".52" stroke-width="1.5" filter="url(#skr1x6207)"/><line x1="477.55424737775695" y1="489.8698780388571" x2="476.22981981750576" y2="519.2063847009092" stroke="#00ffff" stroke-opacity=".52" stroke-width="1.5" filter="url(#skr1x6207)"/><line x1="498.4604140421376" y1="489.7479522945359" x2="499.2546665427275" y2="520.4442174113356" stroke="#00ffff" stroke-opacity=".52" stroke-width="1.5" filter="url(#skr1x6207)"/><line x1="522.4579764335974" y1="490.4267670788802" x2="523.2014351131022" y2="521.4383232309483" stroke="#00ffff" stroke-opacity=".52" stroke-width="1.5" filter="url(#skr1x6207)"/><line x1="545.4456862315723" y1="490.2499755991622" x2="546.2736938305386" y2="520.6381798449904" stroke="#00ffff" stroke-opacity=".52" stroke-width="1.5" filter="url(#skr1x6207)"/><polygon points="434.2,504.4 568.5,502.5 555.0,558.1 446.7,555.4" fill="#08001e" fill-opacity=".72" stroke="#00ffff" stroke-width="1.3" filter="url(#skr1x6207)"/><text x="30.0"  y="975.0" font-family="monospace" font-weight="bold" font-size="22.0" fill="rgba(255,255,255,.22)">#0001</text><text x="500.0"   y="975.0" text-anchor="middle" font-family="monospace" font-weight="bold" font-size="22.0" fill="#00ffff" fill-opacity=".48">COSMIC RANGER</text><text x="970.0" y="975.0" text-anchor="end"    font-family="monospace" font-weight="bold" font-size="22.0" fill="#00ffff" fill-opacity=".32">MECH RANGERS</text></svg>