<svg xmlns="http://www.w3.org/2000/svg" viewBox="0 0 1000 1000" width="1000" height="1000" shape-rendering="geometricPrecision"><defs>

  <!-- Scene gradients -->
  <radialGradient id="bgr1x6381" cx="50%" cy="42%" r="72%">
    <stop offset="0%"   stop-color="#0e000e"/>
    <stop offset="100%" stop-color="#1e0600"/>
  </radialGradient>
  <linearGradient id="suitr1x6381" x1="8%" y1="0%" x2="92%" y2="100%">
    <stop offset="0%"   stop-color="#00ff60" stop-opacity=".95"/>
    <stop offset="45%"  stop-color="#00441e"/>
    <stop offset="100%" stop-color="#1e0600"/>
  </linearGradient>
  <linearGradient id="suitHir1x6381" x1="0%" y1="0%" x2="0%" y2="100%">
    <stop offset="0%"   stop-color="rgba(255,255,255,.28)"/>
    <stop offset="60%"  stop-color="rgba(255,255,255,.04)"/>
    <stop offset="100%" stop-color="rgba(255,255,255,0)"/>
  </linearGradient>
  <!-- Bevel: bright top, dark bottom for armour panels -->
  <linearGradient id="bevelr1x6381" x1="0%" y1="0%" x2="0%" y2="100%">
    <stop offset="0%"   stop-color="rgba(255,255,255,.55)"/>
    <stop offset="30%"  stop-color="#00ff60"/>
    <stop offset="70%"  stop-color="#00441e"/>
    <stop offset="100%" stop-color="rgba(0,0,0,.5)"/>
  </linearGradient>

  <!-- Weapon: cold steel blade sweep -->
  <linearGradient id="blader1x6381" x1="0%" y1="0%" x2="100%" y2="0%">
    <stop offset="0%"   stop-color="#0e0e20"/>
    <stop offset="16%"  stop-color="#3e3e58"/>
    <stop offset="34%"  stop-color="#c8c8e0"/>
    <stop offset="50%"  stop-color="#f5f5ff"/>
    <stop offset="66%"  stop-color="#b8b8d0"/>
    <stop offset="84%"  stop-color="#2e2e48"/>
    <stop offset="100%" stop-color="#08080e"/>
  </linearGradient>
  <!-- Blade tip brightening -->
  <linearGradient id="bladeTipr1x6381" x1="0%" y1="100%" x2="0%" y2="0%">
    <stop offset="0%"   stop-color="rgba(255,255,255,0)"/>
    <stop offset="55%"  stop-color="rgba(255,255,255,.1)"/>
    <stop offset="100%" stop-color="rgba(255,255,255,.55)"/>
  </linearGradient>
  <!-- Gunmetal anodised — blaster body -->
  <linearGradient id="gunmetalr1x6381" x1="0%" y1="0%" x2="0%" y2="100%">
    <stop offset="0%"   stop-color="#46465e"/>
    <stop offset="18%"  stop-color="#828296"/>
    <stop offset="42%"  stop-color="#26263a"/>
    <stop offset="72%"  stop-color="#16162a"/>
    <stop offset="100%" stop-color="#0c0c18"/>
  </linearGradient>
  <!-- Brushed steel tube — barrel/rod -->
  <linearGradient id="barrelr1x6381" x1="0%" y1="0%" x2="100%" y2="0%">
    <stop offset="0%"   stop-color="#0a0a14"/>
    <stop offset="24%"  stop-color="#585875"/>
    <stop offset="50%"  stop-color="#a8a8c8"/>
    <stop offset="76%"  stop-color="#383852"/>
    <stop offset="100%" stop-color="#0a0a14"/>
  </linearGradient>
  <!-- Chrome rod — lance shaft -->
  <linearGradient id="chromer1x6381" x1="0%" y1="0%" x2="100%" y2="0%">
    <stop offset="0%"   stop-color="#0c0c18"/>
    <stop offset="20%"  stop-color="#686888"/>
    <stop offset="44%"  stop-color="#e0e0f0"/>
    <stop offset="56%"  stop-color="#c0c0d8"/>
    <stop offset="80%"  stop-color="#28283e"/>
    <stop offset="100%" stop-color="#0c0c18"/>
  </linearGradient>
  <!-- Titanium plate — shield face -->
  <linearGradient id="titaniumr1x6381" x1="0%" y1="0%" x2="100%" y2="100%">
    <stop offset="0%"   stop-color="#585878"/>
    <stop offset="28%"  stop-color="#00ff60" stop-opacity=".88"/>
    <stop offset="55%"  stop-color="#00441e"/>
    <stop offset="80%"  stop-color="#181828"/>
    <stop offset="100%" stop-color="#0a0a18"/>
  </linearGradient>
  <!-- Artillery black-chrome — cannon body -->
  <linearGradient id="artilleryr1x6381" x1="0%" y1="0%" x2="0%" y2="100%">
    <stop offset="0%"   stop-color="#383850"/>
    <stop offset="14%"  stop-color="#78789a"/>
    <stop offset="36%"  stop-color="#202034"/>
    <stop offset="65%"  stop-color="#14141e"/>
    <stop offset="100%" stop-color="#0a0a12"/>
  </linearGradient>
  <!-- Energy orb — staff -->
  <radialGradient id="orbr1x6381" cx="35%" cy="35%" r="65%">
    <stop offset="0%"   stop-color="rgba(255,255,255,.9)"/>
    <stop offset="30%"  stop-color="#00ff60"/>
    <stop offset="68%"  stop-color="#00441e"/>
    <stop offset="100%" stop-color="rgba(0,0,0,.6)"/>
  </radialGradient>
  <!-- Knuckle plate chrome -->
  <linearGradient id="knuckler1x6381" x1="0%" y1="0%" x2="0%" y2="100%">
    <stop offset="0%"   stop-color="#888aaa"/>
    <stop offset="32%"  stop-color="#00ff60" stop-opacity=".8"/>
    <stop offset="62%"  stop-color="#1a1a2c"/>
    <stop offset="100%" stop-color="#0a0a14"/>
  </linearGradient>

  <!-- Carbon fibre weave texture overlay -->
  <pattern id="carbonr1x6381" width="6" height="6" patternUnits="userSpaceOnUse">
    <rect width="6" height="6" fill="rgba(0,0,0,.08)"/>
    <rect x="0" y="0" width="3" height="3" fill="rgba(255,255,255,.022)"/>
    <rect x="3" y="3" width="3" height="3" fill="rgba(255,255,255,.022)"/>
    <line x1="0" y1="0" x2="3" y2="3" stroke="rgba(255,255,255,.038)" stroke-width=".5"/>
    <line x1="3" y1="0" x2="6" y2="3" stroke="rgba(0,0,0,.055)"       stroke-width=".5"/>
    <line x1="0" y1="3" x2="3" y2="6" stroke="rgba(0,0,0,.055)"       stroke-width=".5"/>
    <line x1="3" y1="3" x2="6" y2="6" stroke="rgba(255,255,255,.038)" stroke-width=".5"/>
  </pattern>

  <!-- Specular metal sheen on armour panels -->
  <filter id="metalr1x6381" x="-5%" y="-5%" width="110%" height="110%">
    <feSpecularLighting surfaceScale="4" specularConstant="1.8"
        specularExponent="42" lighting-color="#ffffff" result="spec">
      <feDistantLight elevation="52" azimuth="38"/>
    </feSpecularLighting>
    <feComposite in="spec" in2="SourceGraphic" operator="in" result="sm"/>
    <feComposite in="SourceGraphic" in2="sm" operator="arithmetic" k1="0" k2="1" k3="0.55" k4="0"/>
  </filter>

  <!-- Sharper specular for weapons — heavier glare -->
  <filter id="wmr1x6381" x="-8%" y="-8%" width="116%" height="116%">
    <feSpecularLighting surfaceScale="6" specularConstant="2.4"
        specularExponent="65" lighting-color="#ffffff" result="spec">
      <feDistantLight elevation="44" azimuth="28"/>
    </feSpecularLighting>
    <feComposite in="spec" in2="SourceGraphic" operator="in" result="sm"/>
    <feComposite in="SourceGraphic" in2="sm" operator="arithmetic" k1="0" k2="1" k3="0.78" k4="0"/>
  </filter>

  <!-- Sketch wobble -->
  <filter id="skr1x6381" x="-8%" y="-8%" width="116%" height="116%">
    <feTurbulence type="fractalNoise" baseFrequency="0.038"
        numOctaves="3" seed="59" result="noise"/>
    <feDisplacementMap in="SourceGraphic" in2="noise" scale="2.6"
        xChannelSelector="R" yChannelSelector="G" result="w"/>
    <feComposite in="w" in2="SourceGraphic" operator="atop"/>
  </filter>

  <!-- Glow: sharp accent -->
  <filter id="glowr1x6381" x="-20%" y="-20%" width="140%" height="140%">
    <feGaussianBlur stdDeviation="3.5" result="b"/>
    <feColorMatrix in="b" type="matrix"
        values="0 0 0 0 1  0 0 0 0 1  0 0 0 0 1  0 0 0 1.8 0" result="boost"/>
    <feMerge><feMergeNode in="boost"/><feMergeNode in="SourceGraphic"/></feMerge>
  </filter>

  <!-- Bloom: wide soft -->
  <filter id="bloomr1x6381" x="-40%" y="-40%" width="180%" height="180%">
    <feGaussianBlur stdDeviation="11" result="b"/>
    <feMerge><feMergeNode in="b"/><feMergeNode in="SourceGraphic"/></feMerge>
  </filter>

  </defs><rect width="1000" height="1000" fill="url(#bgr1x6381)"/><ellipse cx="500.0" cy="1000" rx="850.0" ry="350.0" fill="#ff4500" fill-opacity=".11" filter="url(#bloomr1x6381)"/><ellipse cx="500.0" cy="892.0" rx="350.0" ry="65.0" fill="rgba(0,0,0,.7)" filter="url(#bloomr1x6381)"/><ellipse cx="500.0" cy="889.0" rx="220.0" ry="34.0" fill="rgba(0,0,0,.45)"/><ellipse cx="500.0" cy="520.0" rx="320.0" ry="480.0" fill="#ffffff" fill-opacity=".042" filter="url(#bloomr1x6381)"/><circle cx="441.9" cy="225.9" r="0.8" fill="#ffffff" fill-opacity="0.50" filter="url(#glowr1x6381)"/><circle cx="406.4" cy="523.7" r="1.4" fill="#ffffff" fill-opacity="0.75" filter="url(#glowr1x6381)"/><circle cx="496.9" cy="198.3" r="2.9" fill="#ffffff" fill-opacity="0.49" filter="url(#glowr1x6381)"/><circle cx="460.7" cy="441.8" r="1.9" fill="#ffffff" fill-opacity="0.77" filter="url(#glowr1x6381)"/><circle cx="407.5" cy="463.4" r="2.0" fill="#ffffff" fill-opacity="0.45" filter="url(#glowr1x6381)"/><circle cx="515.3" cy="774.9" r="3.7" fill="#ffffff" fill-opacity="0.60" filter="url(#glowr1x6381)"/><circle cx="652.9" cy="419.1" r="3.3" fill="#ffffff" fill-opacity="0.68" filter="url(#glowr1x6381)"/><circle cx="411.7" cy="518.7" r="2.4" fill="#ffffff" fill-opacity="0.84" filter="url(#glowr1x6381)"/><circle cx="522.0" cy="623.1" r="1.8" fill="#ffffff" fill-opacity="0.77" filter="url(#glowr1x6381)"/><circle cx="254.4" cy="456.9" r="1.0" fill="#ffffff" fill-opacity="0.65" filter="url(#glowr1x6381)"/><circle cx="596.8" cy="195.1" r="2.7" fill="#ffffff" fill-opacity="0.44" filter="url(#glowr1x6381)"/><circle cx="566.1" cy="189.5" r="2.9" fill="#ffffff" fill-opacity="0.75" filter="url(#glowr1x6381)"/><circle cx="259.5" cy="339.0" r="2.3" fill="#ffffff" fill-opacity="0.53" filter="url(#glowr1x6381)"/><circle cx="626.5" cy="367.6" r="1.7" fill="#ffffff" fill-opacity="0.65" filter="url(#glowr1x6381)"/><polygon points="398.2,661.0 488.3,664.1 479.5,877.1 385.6,875.9" fill="url(#suitr1x6381)" stroke="#00ff60" stroke-width="2.2" filter="url(#skr1x6381) url(#metalr1x6381)"/><polygon points="400.4,661.9 490.4,662.3 480.7,876.0 386.5,876.3" fill="url(#carbonr1x6381)"/><polygon points="393.8,724.9 494.2,724.3 483.5,786.7 384.4,788.3" fill="url(#bevelr1x6381)" fill-opacity=".5" stroke="#00ff60" stroke-width="1.4" filter="url(#skr1x6381)"/><polygon points="509.8,664.2 602.6,663.9 613.1,878.0 520.9,877.7" fill="url(#suitr1x6381)" stroke="#00ff60" stroke-width="2.2" filter="url(#skr1x6381) url(#metalr1x6381)"/><polygon points="511.5,663.1 602.4,661.8 612.7,876.6 518.2,877.7" fill="url(#carbonr1x6381)"/><polygon points="507.1,724.3 606.5,723.4 615.0,788.3 517.5,786.5" fill="url(#bevelr1x6381)" fill-opacity=".5" stroke="#00ff60" stroke-width="1.4" filter="url(#skr1x6381)"/><rect x="392.2" y="839.0" width="100.3" height="24.7" fill="url(#bevelr1x6381)" stroke="#00ff60" stroke-width="1" filter="url(#skr1x6381)"/><rect x="506.9"  y="840.3" width="100.3" height="24.7" fill="url(#bevelr1x6381)" stroke="#00ff60" stroke-width="1" filter="url(#skr1x6381)"/><polygon points="368.7,878.7 497.2,878.2 502.8,922.2 361.4,921.6" fill="#00441e" stroke="#00ff60" stroke-width="2" filter="url(#skr1x6381)"/><polygon points="504.8,878.7 629.0,877.4 637.4,921.4 494.7,920.7" fill="#00441e" stroke="#00ff60" stroke-width="2" filter="url(#skr1x6381)"/><polygon points="303.6,631.5 694.7,631.4 637.9,680.3 362.5,680.3" fill="#00ff60" fill-opacity=".52" stroke="#00ff60" stroke-width="2" filter="url(#skr1x6381)"/><rect x="463.2" y="638.6" width="72.0" height="42.0" fill="url(#bevelr1x6381)" stroke="#00ff60" stroke-width="1.4" filter="url(#glowr1x6381)"/><rect x="485.4" y="640.8" width="28.0" height="22.0" rx="1" fill="rgba(255,255,255,.48)"/><polygon points="154.5,465.0 234.1,468.1 258.4,734.3 129.8,734.7" fill="url(#suitr1x6381)" stroke="#00ff60" stroke-width="2.2" filter="url(#skr1x6381) url(#metalr1x6381)"/><polygon points="174.2,432.7 252.4,433.8 242.9,508.9 159.9,510.1" fill="url(#bevelr1x6381)" fill-opacity=".72" stroke="#00ff60" stroke-width="2.2" filter="url(#skr1x6381)"/><polygon points="159.9,622.2 244.4,622.1 238.5,659.4 166.7,659.8" fill="#00ff60" fill-opacity=".42" stroke="#00ff60" stroke-width="1" filter="url(#skr1x6381)"/><polygon points="766.4,465.4 847.7,466.5 871.5,733.8 740.9,735.7" fill="url(#suitr1x6381)" stroke="#00ff60" stroke-width="2.2" filter="url(#skr1x6381) url(#metalr1x6381)"/><polygon points="748.6,433.5 826.4,431.1 841.3,509.8 758.5,511.7" fill="url(#bevelr1x6381)" fill-opacity=".72" stroke="#00ff60" stroke-width="2.2" filter="url(#skr1x6381)"/><polygon points="758.6,620.3 839.4,622.8 832.9,662.4 760.3,660.5" fill="#00ff60" fill-opacity=".42" stroke="#00ff60" stroke-width="1" filter="url(#skr1x6381)"/><rect x="120.2"  y="698.2" width="135.3" height="85.0" rx="4" fill="url(#bevelr1x6381)" stroke="#00ff60" stroke-width="1.8" filter="url(#skr1x6381)"/><rect x="747.5"   y="699.0" width="135.3" height="85.0" rx="4" fill="url(#bevelr1x6381)" stroke="#00ff60" stroke-width="1.8" filter="url(#skr1x6381)"/><line x1="150.6" y1="700.5" x2="150.7" y2="785.0" stroke="#00ff60" stroke-opacity=".38" stroke-width="1"/><line x1="779.6" y1="701.6" x2="776.6" y2="782.4" stroke="#00ff60" stroke-opacity=".38" stroke-width="1"/><line x1="182.9" y1="700.3" x2="184.2" y2="785.2" stroke="#00ff60" stroke-opacity=".38" stroke-width="1"/><line x1="812.0" y1="702.2" x2="812.3" y2="782.9" stroke="#00ff60" stroke-opacity=".38" stroke-width="1"/><line x1="216.2" y1="700.5" x2="213.6" y2="785.4" stroke="#00ff60" stroke-opacity=".38" stroke-width="1"/><line x1="842.1" y1="701.9" x2="842.4" y2="782.9" stroke="#00ff60" stroke-opacity=".38" stroke-width="1"/><polygon points="234.6,418.6 764.6,415.7 722.2,663.5 276.9,663.9" fill="url(#suitr1x6381)" stroke="#00ff60" stroke-width="2.6" filter="url(#skr1x6381) url(#metalr1x6381)"/><polygon points="235.2,418.1 763.4,419.3 721.6,661.0 277.7,664.3" fill="url(#carbonr1x6381)"/><polygon points="366.4,416.3 631.1,418.0 609.7,515.9 390.4,514.8" fill="url(#suitHir1x6381)"/><line x1="361.6" y1="471.3" x2="636.6" y2="472.8" stroke="#00ff60" stroke-opacity=".52" stroke-width="1.3" filter="url(#skr1x6381)"/><line x1="398.0" y1="551.1" x2="601.6" y2="550.2" stroke="#00ff60" stroke-opacity=".52" stroke-width="1.3" filter="url(#skr1x6381)"/><line x1="267.7" y1="490.1" x2="319.6" y2="490.6" stroke="#00ff60" stroke-opacity=".62" stroke-width="1.8"/><line x1="681.8" y1="491.7" x2="733.2" y2="489.5" stroke="#00ff60" stroke-opacity=".62" stroke-width="1.8"/><line x1="265.7" y1="523.8" x2="321.3" y2="521.3" stroke="#00ff60" stroke-opacity=".62" stroke-width="1.8"/><line x1="681.1" y1="523.1" x2="733.5" y2="524.4" stroke="#00ff60" stroke-opacity=".62" stroke-width="1.8"/><line x1="267.0" y1="554.6" x2="320.2" y2="553.1" stroke="#00ff60" stroke-opacity=".62" stroke-width="1.8"/><line x1="678.7" y1="556.3" x2="733.2" y2="555.9" stroke="#00ff60" stroke-opacity=".62" stroke-width="1.8"/><line x1="268.6" y1="586.0" x2="319.9" y2="587.7" stroke="#00ff60" stroke-opacity=".62" stroke-width="1.8"/><line x1="680.9" y1="585.1" x2="732.3" y2="588.1" stroke="#00ff60" stroke-opacity=".62" stroke-width="1.8"/><g filter="url(#glowr1x6381)"><polygon points="481.8,454.1 514.0,507.5 501.5,504.7 517.8,570.0 485.8,515.5 500.3,515.2" fill="#00ff60" stroke="#1e0600" stroke-width="1.4" filter="url(#skr1x6381)"/><polygon points="483.4,454.0 512.7,506.4 501.2,504.2 516.0,567.9 488.2,516.1 501.4,515.8" fill="url(#suitHir1x6381)" opacity=".4"/></g><g><rect x="836.1301675036177" y="395.1799286203459" width="175.0" height="118.0" rx="7" fill="url(#artilleryr1x6381)" stroke="#00ff60" stroke-width="2.6" filter="url(#wmr1x6381)"/><rect x="838.6759605766833" y="395.86218047617" width="175.0" height="118.0" rx="7" fill="url(#carbonr1x6381)"/><rect x="982.4730812750385" y="446.01492053326217" width="78.0" height="32.0" rx="6" fill="url(#barrelr1x6381)" stroke="#00ff60" stroke-width="1.4" filter="url(#wmr1x6381)"/><circle cx="880.3535541322641" cy="469.7951978004537" r="48.0" fill="rgba(0,0,0,.55)" stroke="#00ff60" stroke-width="2" filter="url(#wmr1x6381)"/><circle cx="880.9613277501054" cy="473.0213510519825" r="34.0" fill="#00ff60" fill-opacity=".4" filter="url(#bloomr1x6381)"/><circle cx="882.9294173474983" cy="471.7189703906886" r="18.0" fill="#00ff60" filter="url(#glowr1x6381)"/><rect x="841.5152353556455" y="382.7663826853968" width="100.0" height="18.0" rx="2" fill="url(#bevelr1x6381)" stroke="#00ff60" stroke-width="1" filter="url(#wmr1x6381)"/><rect x="839.6233083310165" y="398.3300355568528" width="120.0" height="12.0" rx="3" fill="rgba(255,255,255,.2)"/><line x1="847.9706447567419" y1="519.9746850844473" x2="846.9859848063999" y2="547.7843405695631" stroke="#00ff60" stroke-opacity=".6" stroke-width="2"/><line x1="872.0793344843761" y1="520.774784938991" x2="871.7154596056417" y2="548.3384125131182" stroke="#00ff60" stroke-opacity=".6" stroke-width="2"/><line x1="895.4789222838916" y1="520.9109459435567" x2="894.058917091284" y2="549.9406136077829" stroke="#00ff60" stroke-opacity=".6" stroke-width="2"/><line x1="918.2941128550657" y1="519.4237263498827" x2="921.5690438679047" y2="547.7775872416794" stroke="#00ff60" stroke-opacity=".6" stroke-width="2"/></g><rect x="448.2921175315976" y="556.9289442229084" width="100.0"  height="56.0" fill="#00441e" stroke="#00ff60" stroke-width="2.2" filter="url(#skr1x6381)"/><rect x="424.8086723663844" y="573.9702297656797" width="152.0" height="26.0" fill="url(#bevelr1x6381)" fill-opacity=".65" stroke="#00ff60" stroke-width="1.2" filter="url(#skr1x6381)"/><polygon points="309.2,379.0 349.3,295.0 501.3,279.0 648.9,294.6 692.6,378.9 668.9,503.4 499.2,564.8 331.7,502.7" fill="url(#suitr1x6381)" stroke="#00ff60" stroke-width="2.8" filter="url(#skr1x6381) url(#metalr1x6381)"/><polygon points="308.1,382.3 348.8,294.8 499.1,278.4 648.2,293.0 692.6,379.1 669.6,502.2 499.6,566.8 331.5,504.1" fill="url(#carbonr1x6381)"/><polygon points="379.4,301.8 500.6,286.8 617.4,302.2 609.2,379.1 392.2,381.2" fill="url(#suitHir1x6381)"/><polygon points="379.5,381.4 365.7,427.1 434.5,504.7 498.3,528.6 567.3,505.0 635.6,424.6 620.8,380.6" fill="#1e0600" fill-opacity=".88" stroke="#00ff60" stroke-width="1.8" filter="url(#skr1x6381)"/><polygon points="379.4,411.3 476.7,410.2 486.1,440.7 389.6,441.4" fill="#00ff60" filter="url(#glowr1x6381)"/><polygon points="524.3,410.7 617.7,410.1 611.8,439.0 516.4,438.7" fill="#00ff60" filter="url(#glowr1x6381)"/><ellipse cx="430.9" cy="425.7" rx="38.4"  ry="8.2" fill="#ffffff" opacity=".88"/><ellipse cx="569.1" cy="425.7" rx="38.4"  ry="8.2" fill="#ffffff" opacity=".88"/><line x1="483.4802637520805" y1="415.15353819541633" x2="516.9038982182183" y2="412.75052302088585" stroke="#00ff60" stroke-opacity=".52" stroke-width="2"/><line x1="486.3330002585053" y1="439.6386094073765" x2="514.4367184291035" y2="437.11134615316985" stroke="#00ff60" stroke-opacity=".52" stroke-width="2"/><line x1="500.8317088940181" y1="454.2835096416063" x2="498.2630913688801" y2="482.07110689505936" stroke="#00ff60" stroke-opacity=".58" stroke-width="2.2" filter="url(#skr1x6381)"/><line x1="452.40582557616756" y1="492.56071892539035" x2="455.65437999282034" y2="520.1972579867579" stroke="#00ff60" stroke-opacity=".52" stroke-width="1.5" filter="url(#skr1x6381)"/><line x1="476.77213265499097" y1="492.0219437916763" x2="476.46142113789915" y2="518.6692788030953" stroke="#00ff60" stroke-opacity=".52" stroke-width="1.5" filter="url(#skr1x6381)"/><line x1="498.2390982992947" y1="491.9674739352427" x2="499.6896136957221" y2="520.863880543597" stroke="#00ff60" stroke-opacity=".52" stroke-width="1.5" filter="url(#skr1x6381)"/><line x1="521.2793211900256" y1="490.9894589917734" x2="521.527913136091" y2="520.0422911506146" stroke="#00ff60" stroke-opacity=".52" stroke-width="1.5" filter="url(#skr1x6381)"/><line x1="545.4529096677155" y1="491.637474112492" x2="546.1581297319569" y2="520.9892819345929" stroke="#00ff60" stroke-opacity=".52" stroke-width="1.5" filter="url(#skr1x6381)"/><polygon points="432.5,504.3 567.6,503.7 552.7,555.9 446.2,556.0" fill="#00441e" fill-opacity=".72" stroke="#00ff60" stroke-width="1.3" filter="url(#skr1x6381)"/><polygon points="317.2,305.3 362.5,306.5 338.9,194.0" fill="url(#bevelr1x6381)" fill-opacity=".95" stroke="#00ff60" stroke-width="1.6" filter="url(#skr1x6381) url(#glowr1x6381)"/><polygon points="395.7,305.0 443.5,305.6 419.7,208.1" fill="url(#bevelr1x6381)" fill-opacity=".95" stroke="#00ff60" stroke-width="1.6" filter="url(#skr1x6381) url(#glowr1x6381)"/><polygon points="478.4,304.7 521.7,306.3 500.1,221.6" fill="url(#bevelr1x6381)" fill-opacity=".95" stroke="#00ff60" stroke-width="1.6" filter="url(#skr1x6381) url(#glowr1x6381)"/><polygon points="557.4,304.2 605.1,305.2 579.8,209.0" fill="url(#bevelr1x6381)" fill-opacity=".95" stroke="#00ff60" stroke-width="1.6" filter="url(#skr1x6381) url(#glowr1x6381)"/><polygon points="637.2,305.4 686.0,305.1 660.3,195.0" fill="url(#bevelr1x6381)" fill-opacity=".95" stroke="#00ff60" stroke-width="1.6" filter="url(#skr1x6381) url(#glowr1x6381)"/><text x="30.0"  y="975.0" font-family="monospace" font-weight="bold" font-size="22.0" fill="rgba(255,255,255,.22)">#0001</text><text x="500.0"   y="975.0" text-anchor="middle" font-family="monospace" font-weight="bold" font-size="22.0" fill="#00ff60" fill-opacity=".48">VIPER RANGER</text><text x="970.0" y="975.0" text-anchor="end"    font-family="monospace" font-weight="bold" font-size="22.0" fill="#00ff60" fill-opacity=".32">MECH RANGERS</text></svg>