<svg xmlns="http://www.w3.org/2000/svg" viewBox="0 0 1000 1000" width="1000" height="1000" shape-rendering="geometricPrecision"><defs>

  <!-- Scene gradients -->
  <radialGradient id="bgr1x6403" cx="50%" cy="42%" r="72%">
    <stop offset="0%"   stop-color="#0a0a14"/>
    <stop offset="100%" stop-color="#050508"/>
  </radialGradient>
  <linearGradient id="suitr1x6403" x1="8%" y1="0%" x2="92%" y2="100%">
    <stop offset="0%"   stop-color="#ff2040" stop-opacity=".95"/>
    <stop offset="45%"  stop-color="#cc0020"/>
    <stop offset="100%" stop-color="#050508"/>
  </linearGradient>
  <linearGradient id="suitHir1x6403" x1="0%" y1="0%" x2="0%" y2="100%">
    <stop offset="0%"   stop-color="rgba(255,255,255,.28)"/>
    <stop offset="60%"  stop-color="rgba(255,255,255,.04)"/>
    <stop offset="100%" stop-color="rgba(255,255,255,0)"/>
  </linearGradient>
  <!-- Bevel: bright top, dark bottom for armour panels -->
  <linearGradient id="bevelr1x6403" x1="0%" y1="0%" x2="0%" y2="100%">
    <stop offset="0%"   stop-color="rgba(255,255,255,.55)"/>
    <stop offset="30%"  stop-color="#ff2040"/>
    <stop offset="70%"  stop-color="#cc0020"/>
    <stop offset="100%" stop-color="rgba(0,0,0,.5)"/>
  </linearGradient>

  <!-- Weapon: cold steel blade sweep -->
  <linearGradient id="blader1x6403" x1="0%" y1="0%" x2="100%" y2="0%">
    <stop offset="0%"   stop-color="#0e0e20"/>
    <stop offset="16%"  stop-color="#3e3e58"/>
    <stop offset="34%"  stop-color="#c8c8e0"/>
    <stop offset="50%"  stop-color="#f5f5ff"/>
    <stop offset="66%"  stop-color="#b8b8d0"/>
    <stop offset="84%"  stop-color="#2e2e48"/>
    <stop offset="100%" stop-color="#08080e"/>
  </linearGradient>
  <!-- Blade tip brightening -->
  <linearGradient id="bladeTipr1x6403" x1="0%" y1="100%" x2="0%" y2="0%">
    <stop offset="0%"   stop-color="rgba(255,255,255,0)"/>
    <stop offset="55%"  stop-color="rgba(255,255,255,.1)"/>
    <stop offset="100%" stop-color="rgba(255,255,255,.55)"/>
  </linearGradient>
  <!-- Gunmetal anodised — blaster body -->
  <linearGradient id="gunmetalr1x6403" x1="0%" y1="0%" x2="0%" y2="100%">
    <stop offset="0%"   stop-color="#46465e"/>
    <stop offset="18%"  stop-color="#828296"/>
    <stop offset="42%"  stop-color="#26263a"/>
    <stop offset="72%"  stop-color="#16162a"/>
    <stop offset="100%" stop-color="#0c0c18"/>
  </linearGradient>
  <!-- Brushed steel tube — barrel/rod -->
  <linearGradient id="barrelr1x6403" x1="0%" y1="0%" x2="100%" y2="0%">
    <stop offset="0%"   stop-color="#0a0a14"/>
    <stop offset="24%"  stop-color="#585875"/>
    <stop offset="50%"  stop-color="#a8a8c8"/>
    <stop offset="76%"  stop-color="#383852"/>
    <stop offset="100%" stop-color="#0a0a14"/>
  </linearGradient>
  <!-- Chrome rod — lance shaft -->
  <linearGradient id="chromer1x6403" x1="0%" y1="0%" x2="100%" y2="0%">
    <stop offset="0%"   stop-color="#0c0c18"/>
    <stop offset="20%"  stop-color="#686888"/>
    <stop offset="44%"  stop-color="#e0e0f0"/>
    <stop offset="56%"  stop-color="#c0c0d8"/>
    <stop offset="80%"  stop-color="#28283e"/>
    <stop offset="100%" stop-color="#0c0c18"/>
  </linearGradient>
  <!-- Titanium plate — shield face -->
  <linearGradient id="titaniumr1x6403" x1="0%" y1="0%" x2="100%" y2="100%">
    <stop offset="0%"   stop-color="#585878"/>
    <stop offset="28%"  stop-color="#ff2040" stop-opacity=".88"/>
    <stop offset="55%"  stop-color="#cc0020"/>
    <stop offset="80%"  stop-color="#181828"/>
    <stop offset="100%" stop-color="#0a0a18"/>
  </linearGradient>
  <!-- Artillery black-chrome — cannon body -->
  <linearGradient id="artilleryr1x6403" x1="0%" y1="0%" x2="0%" y2="100%">
    <stop offset="0%"   stop-color="#383850"/>
    <stop offset="14%"  stop-color="#78789a"/>
    <stop offset="36%"  stop-color="#202034"/>
    <stop offset="65%"  stop-color="#14141e"/>
    <stop offset="100%" stop-color="#0a0a12"/>
  </linearGradient>
  <!-- Energy orb — staff -->
  <radialGradient id="orbr1x6403" cx="35%" cy="35%" r="65%">
    <stop offset="0%"   stop-color="rgba(255,255,255,.9)"/>
    <stop offset="30%"  stop-color="#ff2040"/>
    <stop offset="68%"  stop-color="#cc0020"/>
    <stop offset="100%" stop-color="rgba(0,0,0,.6)"/>
  </radialGradient>
  <!-- Knuckle plate chrome -->
  <linearGradient id="knuckler1x6403" x1="0%" y1="0%" x2="0%" y2="100%">
    <stop offset="0%"   stop-color="#888aaa"/>
    <stop offset="32%"  stop-color="#ff2040" stop-opacity=".8"/>
    <stop offset="62%"  stop-color="#1a1a2c"/>
    <stop offset="100%" stop-color="#0a0a14"/>
  </linearGradient>

  <!-- Carbon fibre weave texture overlay -->
  <pattern id="carbonr1x6403" width="6" height="6" patternUnits="userSpaceOnUse">
    <rect width="6" height="6" fill="rgba(0,0,0,.08)"/>
    <rect x="0" y="0" width="3" height="3" fill="rgba(255,255,255,.022)"/>
    <rect x="3" y="3" width="3" height="3" fill="rgba(255,255,255,.022)"/>
    <line x1="0" y1="0" x2="3" y2="3" stroke="rgba(255,255,255,.038)" stroke-width=".5"/>
    <line x1="3" y1="0" x2="6" y2="3" stroke="rgba(0,0,0,.055)"       stroke-width=".5"/>
    <line x1="0" y1="3" x2="3" y2="6" stroke="rgba(0,0,0,.055)"       stroke-width=".5"/>
    <line x1="3" y1="3" x2="6" y2="6" stroke="rgba(255,255,255,.038)" stroke-width=".5"/>
  </pattern>

  <!-- Specular metal sheen on armour panels -->
  <filter id="metalr1x6403" x="-5%" y="-5%" width="110%" height="110%">
    <feSpecularLighting surfaceScale="4" specularConstant="1.8"
        specularExponent="42" lighting-color="#ffffff" result="spec">
      <feDistantLight elevation="52" azimuth="38"/>
    </feSpecularLighting>
    <feComposite in="spec" in2="SourceGraphic" operator="in" result="sm"/>
    <feComposite in="SourceGraphic" in2="sm" operator="arithmetic" k1="0" k2="1" k3="0.55" k4="0"/>
  </filter>

  <!-- Sharper specular for weapons — heavier glare -->
  <filter id="wmr1x6403" x="-8%" y="-8%" width="116%" height="116%">
    <feSpecularLighting surfaceScale="6" specularConstant="2.4"
        specularExponent="65" lighting-color="#ffffff" result="spec">
      <feDistantLight elevation="44" azimuth="28"/>
    </feSpecularLighting>
    <feComposite in="spec" in2="SourceGraphic" operator="in" result="sm"/>
    <feComposite in="SourceGraphic" in2="sm" operator="arithmetic" k1="0" k2="1" k3="0.78" k4="0"/>
  </filter>

  <!-- Sketch wobble -->
  <filter id="skr1x6403" x="-8%" y="-8%" width="116%" height="116%">
    <feTurbulence type="fractalNoise" baseFrequency="0.038"
        numOctaves="3" seed="46" result="noise"/>
    <feDisplacementMap in="SourceGraphic" in2="noise" scale="2.6"
        xChannelSelector="R" yChannelSelector="G" result="w"/>
    <feComposite in="w" in2="SourceGraphic" operator="atop"/>
  </filter>

  <!-- Glow: sharp accent -->
  <filter id="glowr1x6403" x="-20%" y="-20%" width="140%" height="140%">
    <feGaussianBlur stdDeviation="3.5" result="b"/>
    <feColorMatrix in="b" type="matrix"
        values="0 0 0 0 1  0 0 0 0 1  0 0 0 0 1  0 0 0 1.8 0" result="boost"/>
    <feMerge><feMergeNode in="boost"/><feMergeNode in="SourceGraphic"/></feMerge>
  </filter>

  <!-- Bloom: wide soft -->
  <filter id="bloomr1x6403" x="-40%" y="-40%" width="180%" height="180%">
    <feGaussianBlur stdDeviation="11" result="b"/>
    <feMerge><feMergeNode in="b"/><feMergeNode in="SourceGraphic"/></feMerge>
  </filter>

  </defs><rect width="1000" height="1000" fill="url(#bgr1x6403)"/><ellipse cx="500.0" cy="892.0" rx="350.0" ry="65.0" fill="rgba(0,0,0,.7)" filter="url(#bloomr1x6403)"/><ellipse cx="500.0" cy="889.0" rx="220.0" ry="34.0" fill="rgba(0,0,0,.45)"/><ellipse cx="500.0" cy="520.0" rx="320.0" ry="480.0" fill="#ff6600" fill-opacity=".042" filter="url(#bloomr1x6403)"/><circle cx="382.1" cy="520.7" r="0.7" fill="#ff6600" fill-opacity="0.85" filter="url(#glowr1x6403)"/><circle cx="705.8" cy="422.4" r="3.2" fill="#ff6600" fill-opacity="0.54" filter="url(#glowr1x6403)"/><circle cx="379.5" cy="446.6" r="1.3" fill="#ff6600" fill-opacity="0.84" filter="url(#glowr1x6403)"/><circle cx="682.6" cy="296.4" r="3.0" fill="#ff6600" fill-opacity="0.80" filter="url(#glowr1x6403)"/><circle cx="654.9" cy="556.3" r="0.6" fill="#ff6600" fill-opacity="0.76" filter="url(#glowr1x6403)"/><circle cx="577.1" cy="493.3" r="2.2" fill="#ff6600" fill-opacity="0.76" filter="url(#glowr1x6403)"/><circle cx="616.5" cy="743.4" r="3.1" fill="#ff6600" fill-opacity="0.78" filter="url(#glowr1x6403)"/><circle cx="745.7" cy="266.4" r="1.9" fill="#ff6600" fill-opacity="0.53" filter="url(#glowr1x6403)"/><circle cx="678.4" cy="255.4" r="2.6" fill="#ff6600" fill-opacity="0.59" filter="url(#glowr1x6403)"/><circle cx="746.8" cy="245.5" r="2.8" fill="#ff6600" fill-opacity="0.47" filter="url(#glowr1x6403)"/><circle cx="323.4" cy="318.6" r="3.4" fill="#ff6600" fill-opacity="0.66" filter="url(#glowr1x6403)"/><circle cx="655.5" cy="502.0" r="4.2" fill="#ff6600" fill-opacity="0.65" filter="url(#glowr1x6403)"/><circle cx="387.0" cy="319.3" r="4.2" fill="#ff6600" fill-opacity="0.76" filter="url(#glowr1x6403)"/><circle cx="365.4" cy="377.5" r="3.9" fill="#ff6600" fill-opacity="0.90" filter="url(#glowr1x6403)"/><polygon points="399.2,662.4 490.0,663.7 480.3,876.6 388.7,877.4" fill="url(#suitr1x6403)" stroke="#ff2040" stroke-width="2.2" filter="url(#skr1x6403) url(#metalr1x6403)"/><polygon points="398.3,663.5 490.6,661.4 481.2,875.9 387.9,878.0" fill="url(#carbonr1x6403)"/><polygon points="392.0,724.1 491.3,722.3 483.3,787.9 385.1,788.5" fill="url(#bevelr1x6403)" fill-opacity=".5" stroke="#ff2040" stroke-width="1.4" filter="url(#skr1x6403)"/><polygon points="512.1,663.7 600.9,662.2 611.8,876.9 518.3,876.5" fill="url(#suitr1x6403)" stroke="#ff2040" stroke-width="2.2" filter="url(#skr1x6403) url(#metalr1x6403)"/><polygon points="512.2,664.2 600.0,662.7 612.0,876.7 517.9,878.6" fill="url(#carbonr1x6403)"/><polygon points="506.8,722.7 609.1,724.9 617.8,789.1 514.7,787.9" fill="url(#bevelr1x6403)" fill-opacity=".5" stroke="#ff2040" stroke-width="1.4" filter="url(#skr1x6403)"/><rect x="392.4" y="839.1" width="100.3" height="24.7" fill="url(#bevelr1x6403)" stroke="#ff2040" stroke-width="1" filter="url(#skr1x6403)"/><rect x="508.6"  y="840.6" width="100.3" height="24.7" fill="url(#bevelr1x6403)" stroke="#ff2040" stroke-width="1" filter="url(#skr1x6403)"/><polygon points="369.0,875.8 497.0,877.0 503.9,920.3 363.1,922.1" fill="#cc0020" stroke="#ff2040" stroke-width="2" filter="url(#skr1x6403)"/><polygon points="504.9,877.9 632.0,879.3 638.9,921.1 497.2,922.8" fill="#cc0020" stroke="#ff2040" stroke-width="2" filter="url(#skr1x6403)"/><polygon points="303.6,634.3 696.5,632.4 638.1,683.0 363.8,682.7" fill="#ff2040" fill-opacity=".52" stroke="#ff2040" stroke-width="2" filter="url(#skr1x6403)"/><rect x="465.6" y="638.3" width="72.0" height="42.0" fill="url(#bevelr1x6403)" stroke="#ff2040" stroke-width="1.4" filter="url(#glowr1x6403)"/><rect x="487.0" y="641.4" width="28.0" height="22.0" rx="1" fill="rgba(255,255,255,.48)"/><polygon points="154.7,466.8 233.4,465.5 257.3,735.4 127.0,735.4" fill="url(#suitr1x6403)" stroke="#ff2040" stroke-width="2.2" filter="url(#skr1x6403) url(#metalr1x6403)"/><polygon points="172.4,432.7 253.3,430.4 244.1,511.9 157.9,510.4" fill="url(#bevelr1x6403)" fill-opacity=".72" stroke="#ff2040" stroke-width="2.2" filter="url(#skr1x6403)"/><polygon points="162.0,620.3 243.4,620.9 239.2,659.9 164.9,662.7" fill="#ff2040" fill-opacity=".42" stroke="#ff2040" stroke-width="1" filter="url(#skr1x6403)"/><polygon points="763.2,467.8 848.0,465.0 871.3,734.5 743.2,735.0" fill="url(#suitr1x6403)" stroke="#ff2040" stroke-width="2.2" filter="url(#skr1x6403) url(#metalr1x6403)"/><polygon points="746.1,432.8 826.4,432.0 842.1,510.6 756.3,511.9" fill="url(#bevelr1x6403)" fill-opacity=".72" stroke="#ff2040" stroke-width="2.2" filter="url(#skr1x6403)"/><polygon points="756.6,623.1 838.1,622.1 835.9,661.6 761.7,661.6" fill="#ff2040" fill-opacity=".42" stroke="#ff2040" stroke-width="1" filter="url(#skr1x6403)"/><rect x="121.1"  y="700.7" width="135.3" height="85.0" rx="4" fill="url(#bevelr1x6403)" stroke="#ff2040" stroke-width="1.8" filter="url(#skr1x6403)"/><rect x="749.4"   y="700.2" width="135.3" height="85.0" rx="4" fill="url(#bevelr1x6403)" stroke="#ff2040" stroke-width="1.8" filter="url(#skr1x6403)"/><line x1="148.5" y1="702.6" x2="150.5" y2="785.0" stroke="#ff2040" stroke-opacity=".38" stroke-width="1"/><line x1="779.4" y1="700.5" x2="777.6" y2="783.1" stroke="#ff2040" stroke-opacity=".38" stroke-width="1"/><line x1="184.0" y1="701.3" x2="183.4" y2="784.5" stroke="#ff2040" stroke-opacity=".38" stroke-width="1"/><line x1="809.9" y1="700.4" x2="809.9" y2="783.7" stroke="#ff2040" stroke-opacity=".38" stroke-width="1"/><line x1="215.0" y1="702.0" x2="213.6" y2="783.7" stroke="#ff2040" stroke-opacity=".38" stroke-width="1"/><line x1="843.8" y1="701.6" x2="842.5" y2="785.4" stroke="#ff2040" stroke-opacity=".38" stroke-width="1"/><polygon points="234.6,418.3 764.8,416.2 723.5,662.5 277.7,661.3" fill="url(#suitr1x6403)" stroke="#ff2040" stroke-width="2.6" filter="url(#skr1x6403) url(#metalr1x6403)"/><polygon points="235.0,419.2 764.6,418.5 723.3,663.7 278.6,664.1" fill="url(#carbonr1x6403)"/><polygon points="368.1,415.8 631.4,417.4 610.4,516.6 387.6,514.2" fill="url(#suitHir1x6403)"/><line x1="362.2" y1="471.9" x2="636.2" y2="472.3" stroke="#ff2040" stroke-opacity=".52" stroke-width="1.3" filter="url(#skr1x6403)"/><line x1="399.3" y1="551.1" x2="601.9" y2="550.0" stroke="#ff2040" stroke-opacity=".52" stroke-width="1.3" filter="url(#skr1x6403)"/><line x1="267.0" y1="489.2" x2="320.2" y2="491.6" stroke="#ff2040" stroke-opacity=".62" stroke-width="1.8"/><line x1="681.7" y1="490.8" x2="732.4" y2="491.9" stroke="#ff2040" stroke-opacity=".62" stroke-width="1.8"/><line x1="265.3" y1="522.0" x2="320.8" y2="524.0" stroke="#ff2040" stroke-opacity=".62" stroke-width="1.8"/><line x1="679.1" y1="521.5" x2="732.1" y2="522.7" stroke="#ff2040" stroke-opacity=".62" stroke-width="1.8"/><line x1="267.7" y1="553.1" x2="320.3" y2="556.3" stroke="#ff2040" stroke-opacity=".62" stroke-width="1.8"/><line x1="681.3" y1="555.9" x2="733.9" y2="554.9" stroke="#ff2040" stroke-opacity=".62" stroke-width="1.8"/><line x1="265.1" y1="586.3" x2="319.8" y2="586.8" stroke="#ff2040" stroke-opacity=".62" stroke-width="1.8"/><line x1="681.3" y1="587.6" x2="732.4" y2="585.3" stroke="#ff2040" stroke-opacity=".62" stroke-width="1.8"/><g filter="url(#glowr1x6403)"><polygon points="501.5,451.2 514.4,491.7 556.4,492.4 523.0,520.1 532.7,557.3 498.7,536.1 464.8,555.8 474.0,519.4 443.2,492.4 484.2,488.9 " fill="#ff2040" stroke="#050508" stroke-width="1.4" filter="url(#skr1x6403)"/><polygon points="501.5,451.2 514.4,491.7 556.4,492.4 523.0,520.1 532.7,557.3 498.7,536.1 464.8,555.8 474.0,519.4 443.2,492.4 484.2,488.9 " fill="url(#suitHir1x6403)" opacity=".45"/></g><g><rect x="42.98053354056549" y="397.18477019350973" width="175.0" height="118.0" rx="7" fill="url(#artilleryr1x6403)" stroke="#ff2040" stroke-width="2.6" filter="url(#wmr1x6403)"/><rect x="43.052835775297105" y="397.1230455660261" width="175.0" height="118.0" rx="7" fill="url(#carbonr1x6403)"/><rect x="15.710332288909672" y="446.9177992668934" width="78.0" height="32.0" rx="6" fill="url(#barrelr1x6403)" stroke="#ff2040" stroke-width="1.4" filter="url(#wmr1x6403)"/><circle cx="117.77236998625096" cy="471.8563513770699" r="48.0" fill="rgba(0,0,0,.55)" stroke="#ff2040" stroke-width="2" filter="url(#wmr1x6403)"/><circle cx="118.66189587622878" cy="470.3229930718429" r="34.0" fill="#ff2040" fill-opacity=".4" filter="url(#bloomr1x6403)"/><circle cx="119.34243623962622" cy="471.46614861944687" r="18.0" fill="#ff2040" filter="url(#glowr1x6403)"/><rect x="46.70710927354169" y="380.64545270381495" width="100.0" height="18.0" rx="2" fill="url(#bevelr1x6403)" stroke="#ff2040" stroke-width="1" filter="url(#wmr1x6403)"/><rect x="44.02049741981548" y="398.4306837704032" width="120.0" height="12.0" rx="3" fill="rgba(255,255,255,.2)"/><line x1="51.36715121924874" y1="520.8036298044957" x2="52.673095662090894" y2="550.3621410077437" stroke="#ff2040" stroke-opacity=".6" stroke-width="2"/><line x1="77.37749619413164" y1="518.0511243443004" x2="75.97948521770533" y2="549.3439385475591" stroke="#ff2040" stroke-opacity=".6" stroke-width="2"/><line x1="98.97094570383426" y1="520.4901803311892" x2="99.18991060530763" y2="550.8138533165678" stroke="#ff2040" stroke-opacity=".6" stroke-width="2"/><line x1="124.39349434388798" y1="518.9157904943451" x2="123.15705224148925" y2="547.6450131937861" stroke="#ff2040" stroke-opacity=".6" stroke-width="2"/></g><rect x="451.0343358384445" y="556.0280251698568" width="100.0"  height="56.0" fill="#cc0020" stroke="#ff2040" stroke-width="2.2" filter="url(#skr1x6403)"/><rect x="422.2129756563343" y="574.4565593756736" width="152.0" height="26.0" fill="url(#bevelr1x6403)" fill-opacity=".65" stroke="#ff2040" stroke-width="1.2" filter="url(#skr1x6403)"/><polygon points="306.2,381.0 351.6,295.6 500.7,276.4 648.5,292.9 692.0,379.4 667.3,503.9 499.4,566.0 331.8,502.2" fill="url(#suitr1x6403)" stroke="#ff2040" stroke-width="2.8" filter="url(#skr1x6403) url(#metalr1x6403)"/><polygon points="308.9,381.5 349.9,293.1 500.3,279.4 651.2,293.7 690.3,381.3 670.0,503.1 499.1,566.2 332.2,504.8" fill="url(#carbonr1x6403)"/><polygon points="380.6,302.5 501.2,285.6 619.0,303.0 606.0,379.9 392.5,381.6" fill="url(#suitHir1x6403)"/><polygon points="381.4,381.8 365.7,424.8 434.3,505.0 500.5,528.8 568.2,504.0 635.3,426.5 620.6,381.4" fill="#050508" fill-opacity=".88" stroke="#ff2040" stroke-width="1.8" filter="url(#skr1x6403)"/><polygon points="382.1,410.7 477.7,412.1 483.9,439.9 386.9,439.2" fill="#ff2040" filter="url(#glowr1x6403)"/><polygon points="523.3,411.2 619.7,412.4 612.4,439.8 513.6,438.4" fill="#ff2040" filter="url(#glowr1x6403)"/><ellipse cx="430.9" cy="425.7" rx="38.4"  ry="8.2" fill="#ffffff" opacity=".88"/><ellipse cx="569.1" cy="425.7" rx="38.4"  ry="8.2" fill="#ffffff" opacity=".88"/><line x1="485.68386361064387" y1="411.71021825149654" x2="516.8639618342183" y2="414.3768795099109" stroke="#ff2040" stroke-opacity=".52" stroke-width="2"/><line x1="485.25846632957456" y1="439.2147027765401" x2="516.9516722072289" y2="436.83127949014306" stroke="#ff2040" stroke-opacity=".52" stroke-width="2"/><line x1="499.7217619329691" y1="453.99201966160905" x2="499.60783485192803" y2="481.6859312559478" stroke="#ff2040" stroke-opacity=".58" stroke-width="2.2" filter="url(#skr1x6403)"/><line x1="455.38307645617056" y1="490.8414029241539" x2="452.6577040530555" y2="518.5510763940401" stroke="#ff2040" stroke-opacity=".52" stroke-width="1.5" filter="url(#skr1x6403)"/><line x1="476.8557072167657" y1="490.9437253507785" x2="475.75390622843054" y2="521.6412178707309" stroke="#ff2040" stroke-opacity=".52" stroke-width="1.5" filter="url(#skr1x6403)"/><line x1="498.5690814060159" y1="490.1813902238383" x2="501.43448245683686" y2="521.0617273640819" stroke="#ff2040" stroke-opacity=".52" stroke-width="1.5" filter="url(#skr1x6403)"/><line x1="521.6631117187999" y1="489.53741235323247" x2="522.0995587546937" y2="519.313425260596" stroke="#ff2040" stroke-opacity=".52" stroke-width="1.5" filter="url(#skr1x6403)"/><line x1="544.793508329168" y1="492.10668281186366" x2="547.6232660156861" y2="520.4535571682267" stroke="#ff2040" stroke-opacity=".52" stroke-width="1.5" filter="url(#skr1x6403)"/><polygon points="433.6,502.4 565.4,504.3 552.1,557.9 446.2,555.7" fill="#cc0020" fill-opacity=".72" stroke="#ff2040" stroke-width="1.3" filter="url(#skr1x6403)"/><polygon points="314.7,306.4 361.8,306.3 337.6,196.9" fill="url(#bevelr1x6403)" fill-opacity=".95" stroke="#ff2040" stroke-width="1.6" filter="url(#skr1x6403) url(#glowr1x6403)"/><polygon points="397.7,305.0 444.0,305.0 420.5,209.9" fill="url(#bevelr1x6403)" fill-opacity=".95" stroke="#ff2040" stroke-width="1.6" filter="url(#skr1x6403) url(#glowr1x6403)"/><polygon points="478.6,304.3 524.2,306.3 500.9,220.6" fill="url(#bevelr1x6403)" fill-opacity=".95" stroke="#ff2040" stroke-width="1.6" filter="url(#skr1x6403) url(#glowr1x6403)"/><polygon points="555.9,304.4 605.1,304.9 580.2,210.2" fill="url(#bevelr1x6403)" fill-opacity=".95" stroke="#ff2040" stroke-width="1.6" filter="url(#skr1x6403) url(#glowr1x6403)"/><polygon points="639.9,305.5 685.8,303.0 661.6,195.7" fill="url(#bevelr1x6403)" fill-opacity=".95" stroke="#ff2040" stroke-width="1.6" filter="url(#skr1x6403) url(#glowr1x6403)"/><text x="30.0"  y="975.0" font-family="monospace" font-weight="bold" font-size="22.0" fill="rgba(255,255,255,.22)">#0001</text><text x="500.0"   y="975.0" text-anchor="middle" font-family="monospace" font-weight="bold" font-size="22.0" fill="#ff2040" fill-opacity=".48">CRIMSON RANGER</text><text x="970.0" y="975.0" text-anchor="end"    font-family="monospace" font-weight="bold" font-size="22.0" fill="#ff2040" fill-opacity=".32">MECH RANGERS</text></svg>