<svg xmlns="http://www.w3.org/2000/svg" viewBox="0 0 1000 1000" width="1000" height="1000" shape-rendering="geometricPrecision"><defs>

  <!-- Scene gradients -->
  <radialGradient id="bgr1x6428" cx="50%" cy="42%" r="72%">
    <stop offset="0%"   stop-color="#0e000e"/>
    <stop offset="100%" stop-color="#1e0600"/>
  </radialGradient>
  <linearGradient id="suitr1x6428" x1="8%" y1="0%" x2="92%" y2="100%">
    <stop offset="0%"   stop-color="#ff2040" stop-opacity=".95"/>
    <stop offset="45%"  stop-color="#cc0020"/>
    <stop offset="100%" stop-color="#1e0600"/>
  </linearGradient>
  <linearGradient id="suitHir1x6428" x1="0%" y1="0%" x2="0%" y2="100%">
    <stop offset="0%"   stop-color="rgba(255,255,255,.28)"/>
    <stop offset="60%"  stop-color="rgba(255,255,255,.04)"/>
    <stop offset="100%" stop-color="rgba(255,255,255,0)"/>
  </linearGradient>
  <!-- Bevel: bright top, dark bottom for armour panels -->
  <linearGradient id="bevelr1x6428" x1="0%" y1="0%" x2="0%" y2="100%">
    <stop offset="0%"   stop-color="rgba(255,255,255,.55)"/>
    <stop offset="30%"  stop-color="#ff2040"/>
    <stop offset="70%"  stop-color="#cc0020"/>
    <stop offset="100%" stop-color="rgba(0,0,0,.5)"/>
  </linearGradient>

  <!-- Weapon: cold steel blade sweep -->
  <linearGradient id="blader1x6428" x1="0%" y1="0%" x2="100%" y2="0%">
    <stop offset="0%"   stop-color="#0e0e20"/>
    <stop offset="16%"  stop-color="#3e3e58"/>
    <stop offset="34%"  stop-color="#c8c8e0"/>
    <stop offset="50%"  stop-color="#f5f5ff"/>
    <stop offset="66%"  stop-color="#b8b8d0"/>
    <stop offset="84%"  stop-color="#2e2e48"/>
    <stop offset="100%" stop-color="#08080e"/>
  </linearGradient>
  <!-- Blade tip brightening -->
  <linearGradient id="bladeTipr1x6428" x1="0%" y1="100%" x2="0%" y2="0%">
    <stop offset="0%"   stop-color="rgba(255,255,255,0)"/>
    <stop offset="55%"  stop-color="rgba(255,255,255,.1)"/>
    <stop offset="100%" stop-color="rgba(255,255,255,.55)"/>
  </linearGradient>
  <!-- Gunmetal anodised — blaster body -->
  <linearGradient id="gunmetalr1x6428" x1="0%" y1="0%" x2="0%" y2="100%">
    <stop offset="0%"   stop-color="#46465e"/>
    <stop offset="18%"  stop-color="#828296"/>
    <stop offset="42%"  stop-color="#26263a"/>
    <stop offset="72%"  stop-color="#16162a"/>
    <stop offset="100%" stop-color="#0c0c18"/>
  </linearGradient>
  <!-- Brushed steel tube — barrel/rod -->
  <linearGradient id="barrelr1x6428" x1="0%" y1="0%" x2="100%" y2="0%">
    <stop offset="0%"   stop-color="#0a0a14"/>
    <stop offset="24%"  stop-color="#585875"/>
    <stop offset="50%"  stop-color="#a8a8c8"/>
    <stop offset="76%"  stop-color="#383852"/>
    <stop offset="100%" stop-color="#0a0a14"/>
  </linearGradient>
  <!-- Chrome rod — lance shaft -->
  <linearGradient id="chromer1x6428" x1="0%" y1="0%" x2="100%" y2="0%">
    <stop offset="0%"   stop-color="#0c0c18"/>
    <stop offset="20%"  stop-color="#686888"/>
    <stop offset="44%"  stop-color="#e0e0f0"/>
    <stop offset="56%"  stop-color="#c0c0d8"/>
    <stop offset="80%"  stop-color="#28283e"/>
    <stop offset="100%" stop-color="#0c0c18"/>
  </linearGradient>
  <!-- Titanium plate — shield face -->
  <linearGradient id="titaniumr1x6428" x1="0%" y1="0%" x2="100%" y2="100%">
    <stop offset="0%"   stop-color="#585878"/>
    <stop offset="28%"  stop-color="#ff2040" stop-opacity=".88"/>
    <stop offset="55%"  stop-color="#cc0020"/>
    <stop offset="80%"  stop-color="#181828"/>
    <stop offset="100%" stop-color="#0a0a18"/>
  </linearGradient>
  <!-- Artillery black-chrome — cannon body -->
  <linearGradient id="artilleryr1x6428" x1="0%" y1="0%" x2="0%" y2="100%">
    <stop offset="0%"   stop-color="#383850"/>
    <stop offset="14%"  stop-color="#78789a"/>
    <stop offset="36%"  stop-color="#202034"/>
    <stop offset="65%"  stop-color="#14141e"/>
    <stop offset="100%" stop-color="#0a0a12"/>
  </linearGradient>
  <!-- Energy orb — staff -->
  <radialGradient id="orbr1x6428" cx="35%" cy="35%" r="65%">
    <stop offset="0%"   stop-color="rgba(255,255,255,.9)"/>
    <stop offset="30%"  stop-color="#ff2040"/>
    <stop offset="68%"  stop-color="#cc0020"/>
    <stop offset="100%" stop-color="rgba(0,0,0,.6)"/>
  </radialGradient>
  <!-- Knuckle plate chrome -->
  <linearGradient id="knuckler1x6428" x1="0%" y1="0%" x2="0%" y2="100%">
    <stop offset="0%"   stop-color="#888aaa"/>
    <stop offset="32%"  stop-color="#ff2040" stop-opacity=".8"/>
    <stop offset="62%"  stop-color="#1a1a2c"/>
    <stop offset="100%" stop-color="#0a0a14"/>
  </linearGradient>

  <!-- Carbon fibre weave texture overlay -->
  <pattern id="carbonr1x6428" width="6" height="6" patternUnits="userSpaceOnUse">
    <rect width="6" height="6" fill="rgba(0,0,0,.08)"/>
    <rect x="0" y="0" width="3" height="3" fill="rgba(255,255,255,.022)"/>
    <rect x="3" y="3" width="3" height="3" fill="rgba(255,255,255,.022)"/>
    <line x1="0" y1="0" x2="3" y2="3" stroke="rgba(255,255,255,.038)" stroke-width=".5"/>
    <line x1="3" y1="0" x2="6" y2="3" stroke="rgba(0,0,0,.055)"       stroke-width=".5"/>
    <line x1="0" y1="3" x2="3" y2="6" stroke="rgba(0,0,0,.055)"       stroke-width=".5"/>
    <line x1="3" y1="3" x2="6" y2="6" stroke="rgba(255,255,255,.038)" stroke-width=".5"/>
  </pattern>

  <!-- Specular metal sheen on armour panels -->
  <filter id="metalr1x6428" x="-5%" y="-5%" width="110%" height="110%">
    <feSpecularLighting surfaceScale="4" specularConstant="1.8"
        specularExponent="42" lighting-color="#ffffff" result="spec">
      <feDistantLight elevation="52" azimuth="38"/>
    </feSpecularLighting>
    <feComposite in="spec" in2="SourceGraphic" operator="in" result="sm"/>
    <feComposite in="SourceGraphic" in2="sm" operator="arithmetic" k1="0" k2="1" k3="0.55" k4="0"/>
  </filter>

  <!-- Sharper specular for weapons — heavier glare -->
  <filter id="wmr1x6428" x="-8%" y="-8%" width="116%" height="116%">
    <feSpecularLighting surfaceScale="6" specularConstant="2.4"
        specularExponent="65" lighting-color="#ffffff" result="spec">
      <feDistantLight elevation="44" azimuth="28"/>
    </feSpecularLighting>
    <feComposite in="spec" in2="SourceGraphic" operator="in" result="sm"/>
    <feComposite in="SourceGraphic" in2="sm" operator="arithmetic" k1="0" k2="1" k3="0.78" k4="0"/>
  </filter>

  <!-- Sketch wobble -->
  <filter id="skr1x6428" x="-8%" y="-8%" width="116%" height="116%">
    <feTurbulence type="fractalNoise" baseFrequency="0.038"
        numOctaves="3" seed="42" result="noise"/>
    <feDisplacementMap in="SourceGraphic" in2="noise" scale="2.6"
        xChannelSelector="R" yChannelSelector="G" result="w"/>
    <feComposite in="w" in2="SourceGraphic" operator="atop"/>
  </filter>

  <!-- Glow: sharp accent -->
  <filter id="glowr1x6428" x="-20%" y="-20%" width="140%" height="140%">
    <feGaussianBlur stdDeviation="3.5" result="b"/>
    <feColorMatrix in="b" type="matrix"
        values="0 0 0 0 1  0 0 0 0 1  0 0 0 0 1  0 0 0 1.8 0" result="boost"/>
    <feMerge><feMergeNode in="boost"/><feMergeNode in="SourceGraphic"/></feMerge>
  </filter>

  <!-- Bloom: wide soft -->
  <filter id="bloomr1x6428" x="-40%" y="-40%" width="180%" height="180%">
    <feGaussianBlur stdDeviation="11" result="b"/>
    <feMerge><feMergeNode in="b"/><feMergeNode in="SourceGraphic"/></feMerge>
  </filter>

  </defs><rect width="1000" height="1000" fill="url(#bgr1x6428)"/><ellipse cx="500.0" cy="1000" rx="850.0" ry="350.0" fill="#ff4500" fill-opacity=".11" filter="url(#bloomr1x6428)"/><ellipse cx="500.0" cy="892.0" rx="350.0" ry="65.0" fill="rgba(0,0,0,.7)" filter="url(#bloomr1x6428)"/><ellipse cx="500.0" cy="889.0" rx="220.0" ry="34.0" fill="rgba(0,0,0,.45)"/><polygon points="400.5,663.7 488.2,661.6 479.2,876.2 386.4,875.9" fill="url(#suitr1x6428)" stroke="#ff2040" stroke-width="2.2" filter="url(#skr1x6428) url(#metalr1x6428)"/><polygon points="397.2,661.8 491.2,662.5 480.7,878.3 387.6,879.2" fill="url(#carbonr1x6428)"/><polygon points="393.9,723.2 491.3,722.3 485.6,789.7 385.6,789.0" fill="url(#bevelr1x6428)" fill-opacity=".5" stroke="#ff2040" stroke-width="1.4" filter="url(#skr1x6428)"/><polygon points="510.1,662.3 600.0,660.8 611.9,878.0 520.9,876.5" fill="url(#suitr1x6428)" stroke="#ff2040" stroke-width="2.2" filter="url(#skr1x6428) url(#metalr1x6428)"/><polygon points="512.2,661.5 602.7,663.3 613.6,876.6 519.4,878.0" fill="url(#carbonr1x6428)"/><polygon points="507.8,724.6 605.6,723.4 616.2,787.3 517.3,788.3" fill="url(#bevelr1x6428)" fill-opacity=".5" stroke="#ff2040" stroke-width="1.4" filter="url(#skr1x6428)"/><rect x="393.5" y="839.9" width="100.3" height="24.7" fill="url(#bevelr1x6428)" stroke="#ff2040" stroke-width="1" filter="url(#skr1x6428)"/><rect x="507.8"  y="837.3" width="100.3" height="24.7" fill="url(#bevelr1x6428)" stroke="#ff2040" stroke-width="1" filter="url(#skr1x6428)"/><polygon points="368.9,879.1 497.7,878.1 502.9,921.1 364.3,923.2" fill="#cc0020" stroke="#ff2040" stroke-width="2" filter="url(#skr1x6428)"/><polygon points="503.9,878.7 628.7,878.7 638.0,921.3 497.7,919.7" fill="#cc0020" stroke="#ff2040" stroke-width="2" filter="url(#skr1x6428)"/><polygon points="305.4,631.5 697.0,634.8 637.4,683.3 362.8,680.7" fill="#ff2040" fill-opacity=".52" stroke="#ff2040" stroke-width="2" filter="url(#skr1x6428)"/><rect x="462.5" y="639.5" width="72.0" height="42.0" fill="url(#bevelr1x6428)" stroke="#ff2040" stroke-width="1.4" filter="url(#glowr1x6428)"/><rect x="486.4" y="641.9" width="28.0" height="22.0" rx="1" fill="rgba(255,255,255,.48)"/><polygon points="153.5,466.6 236.5,465.9 257.2,736.0 128.1,736.1" fill="url(#suitr1x6428)" stroke="#ff2040" stroke-width="2.2" filter="url(#skr1x6428) url(#metalr1x6428)"/><polygon points="172.9,432.3 253.3,431.8 244.4,509.5 159.2,509.3" fill="url(#bevelr1x6428)" fill-opacity=".72" stroke="#ff2040" stroke-width="2.2" filter="url(#skr1x6428)"/><polygon points="162.4,621.9 242.5,621.6 237.4,660.0 165.9,662.3" fill="#ff2040" fill-opacity=".42" stroke="#ff2040" stroke-width="1" filter="url(#skr1x6428)"/><polygon points="765.6,465.0 846.6,465.4 870.9,735.6 743.3,734.5" fill="url(#suitr1x6428)" stroke="#ff2040" stroke-width="2.2" filter="url(#skr1x6428) url(#metalr1x6428)"/><polygon points="748.0,432.2 827.1,432.8 841.8,511.5 756.8,510.5" fill="url(#bevelr1x6428)" fill-opacity=".72" stroke="#ff2040" stroke-width="2.2" filter="url(#skr1x6428)"/><polygon points="756.3,623.0 838.6,623.0 833.5,661.2 761.1,661.7" fill="#ff2040" fill-opacity=".42" stroke="#ff2040" stroke-width="1" filter="url(#skr1x6428)"/><rect x="120.8"  y="699.8" width="135.3" height="85.0" rx="4" fill="url(#bevelr1x6428)" stroke="#ff2040" stroke-width="1.8" filter="url(#skr1x6428)"/><rect x="749.8"   y="699.9" width="135.3" height="85.0" rx="4" fill="url(#bevelr1x6428)" stroke="#ff2040" stroke-width="1.8" filter="url(#skr1x6428)"/><line x1="147.9" y1="701.5" x2="148.0" y2="784.1" stroke="#ff2040" stroke-opacity=".38" stroke-width="1"/><line x1="777.7" y1="702.4" x2="778.2" y2="785.0" stroke="#ff2040" stroke-opacity=".38" stroke-width="1"/><line x1="184.3" y1="701.1" x2="180.9" y2="782.9" stroke="#ff2040" stroke-opacity=".38" stroke-width="1"/><line x1="812.1" y1="702.2" x2="812.5" y2="784.4" stroke="#ff2040" stroke-opacity=".38" stroke-width="1"/><line x1="213.8" y1="700.2" x2="216.0" y2="782.3" stroke="#ff2040" stroke-opacity=".38" stroke-width="1"/><line x1="844.9" y1="701.5" x2="844.1" y2="782.4" stroke="#ff2040" stroke-opacity=".38" stroke-width="1"/><polygon points="236.0,415.8 765.4,417.2 723.0,663.7 277.1,662.3" fill="url(#suitr1x6428)" stroke="#ff2040" stroke-width="2.6" filter="url(#skr1x6428) url(#metalr1x6428)"/><polygon points="234.6,419.1 763.7,416.8 721.1,662.1 275.7,661.0" fill="url(#carbonr1x6428)"/><polygon points="368.0,416.2 631.9,415.8 610.2,517.0 390.2,513.8" fill="url(#suitHir1x6428)"/><line x1="363.7" y1="470.2" x2="638.6" y2="470.8" stroke="#ff2040" stroke-opacity=".52" stroke-width="1.3" filter="url(#skr1x6428)"/><line x1="397.8" y1="548.2" x2="601.3" y2="548.0" stroke="#ff2040" stroke-opacity=".52" stroke-width="1.3" filter="url(#skr1x6428)"/><line x1="266.7" y1="490.5" x2="321.0" y2="492.1" stroke="#ff2040" stroke-opacity=".62" stroke-width="1.8"/><line x1="679.3" y1="490.5" x2="731.4" y2="490.0" stroke="#ff2040" stroke-opacity=".62" stroke-width="1.8"/><line x1="267.8" y1="524.1" x2="319.1" y2="521.9" stroke="#ff2040" stroke-opacity=".62" stroke-width="1.8"/><line x1="681.8" y1="521.2" x2="731.7" y2="524.2" stroke="#ff2040" stroke-opacity=".62" stroke-width="1.8"/><line x1="267.1" y1="553.9" x2="318.9" y2="556.0" stroke="#ff2040" stroke-opacity=".62" stroke-width="1.8"/><line x1="680.5" y1="555.6" x2="733.3" y2="553.4" stroke="#ff2040" stroke-opacity=".62" stroke-width="1.8"/><line x1="268.2" y1="585.3" x2="318.4" y2="587.1" stroke="#ff2040" stroke-opacity=".62" stroke-width="1.8"/><line x1="680.8" y1="585.5" x2="734.3" y2="587.5" stroke="#ff2040" stroke-opacity=".62" stroke-width="1.8"/><g filter="url(#glowr1x6428)"><circle cx="500.1" cy="498.4" r="31.3" fill="#ff2040" stroke="#1e0600" stroke-width="1.4" filter="url(#skr1x6428)"/><circle cx="487.5" cy="496.3" r="7.0" fill="#1e0600"/><circle cx="512.5" cy="496.7" r="7.0" fill="#1e0600"/><rect x="485.7" y="523.3" width="9.3" height="17.4" rx="1" fill="#ff2040" stroke="#1e0600" stroke-width=".6"/><rect x="496.1" y="522.8" width="9.3" height="17.4" rx="1" fill="#ff2040" stroke="#1e0600" stroke-width=".6"/><rect x="507.1" y="521.0" width="9.3" height="17.4" rx="1" fill="#ff2040" stroke="#1e0600" stroke-width=".6"/></g><g><polygon points="76.2,671.4 128.2,671.4 112.6,-28.6 91.8,-28.6" fill="url(#blader1x6428)" filter="url(#wmr1x6428)"/><polygon points="91.8,-28.6 112.6,-28.6 102.2,-138.6" fill="url(#blader1x6428)" filter="url(#wmr1x6428)"/><polygon points="100.3,671.4 104.0,671.4 102.7,-128.6 101.6,-128.6" fill="url(#bladeTipr1x6428)" opacity=".9"/><line x1="110.79834331700575" y1="671.816342768725" x2="102.75632491372524" y2="-128.2290778467432" stroke="rgba(255,255,255,.68)" stroke-width="1.5"/><line x1="92.37306069266047" y1="669.9155458828434" x2="101.27730345174666" y2="-129.0238094393164" stroke="#ff2040" stroke-width="1" stroke-opacity=".45"/><line x1="106.8" y1="651.4" x2="104.0" y2="11.4" stroke="rgba(0,0,0,.38)" stroke-width="1.6"/><line x1="97.5" y1="651.4" x2="100.3" y2="11.4" stroke="rgba(0,0,0,.38)" stroke-width="1.6"/><rect x="47.51253444528204" y="670.0328122560866" width="112.0" height="28.0" rx="3" fill="url(#bevelr1x6428)" stroke="#ff2040" stroke-width="1.6" filter="url(#wmr1x6428)"/><rect x="69.14280992871147" y="674.9129750028252" width="64.0" height="10.0" rx="1" fill="rgba(255,255,255,.32)"/><rect x="89.15958859700706" y="678.7858291517011" width="24.0" height="6.0" rx="1" fill="#ff2040" fill-opacity=".35"/><rect x="91.2181902587786" y="684.5622460153885" width="24.0" height="6.0" rx="1" fill="#ff2040" fill-opacity=".35"/><rect x="91.74832472153005" y="695.1193522160872" width="24.0" height="6.0" rx="1" fill="#ff2040" fill-opacity=".35"/><rect x="90.62612422522155" y="699.9062594273128" width="24.0" height="6.0" rx="1" fill="#ff2040" fill-opacity=".35"/><rect x="89.78944971658287" y="708.5233542880975" width="24.0" height="6.0" rx="1" fill="#ff2040" fill-opacity=".35"/><rect x="91.2171303805336" y="718.3445937583223" width="24.0" height="6.0" rx="1" fill="#ff2040" fill-opacity=".35"/><ellipse cx="103.62257009953257" cy="727.6689478772693" rx="22.0" ry="16.0" fill="url(#bevelr1x6428)" stroke="#ff2040" stroke-width="1.2" filter="url(#wmr1x6428)"/></g><rect x="451.4193153066561" y="557.3603750283829" width="100.0"  height="56.0" fill="#cc0020" stroke="#ff2040" stroke-width="2.2" filter="url(#skr1x6428)"/><rect x="423.32922703986986" y="573.690651526209" width="152.0" height="26.0" fill="url(#bevelr1x6428)" fill-opacity=".65" stroke="#ff2040" stroke-width="1.2" filter="url(#skr1x6428)"/><polygon points="308.6,379.4 351.7,294.5 500.9,279.3 648.3,295.5 690.3,378.8 667.9,503.8 500.0,565.5 332.8,503.0" fill="url(#suitr1x6428)" stroke="#ff2040" stroke-width="2.8" filter="url(#skr1x6428) url(#metalr1x6428)"/><polygon points="309.5,379.7 349.5,293.3 498.4,278.8 648.0,293.5 691.5,380.6 669.2,502.1 500.0,565.5 331.9,502.6" fill="url(#carbonr1x6428)"/><polygon points="380.6,304.0 501.6,285.4 620.2,302.1 607.2,381.6 393.0,378.9" fill="url(#suitHir1x6428)"/><polygon points="381.3,379.8 365.1,424.9 432.5,503.0 501.2,529.0 567.9,505.3 633.9,426.4 618.3,378.8" fill="#1e0600" fill-opacity=".88" stroke="#ff2040" stroke-width="1.8" filter="url(#skr1x6428)"/><polygon points="380.5,412.6 478.2,411.3 483.4,439.3 387.0,440.3" fill="#ff2040" filter="url(#glowr1x6428)"/><polygon points="521.4,412.7 617.6,410.4 609.7,441.2 516.9,439.8" fill="#ff2040" filter="url(#glowr1x6428)"/><ellipse cx="430.9" cy="425.7" rx="38.4"  ry="8.2" fill="#ffffff" opacity=".88"/><ellipse cx="569.1" cy="425.7" rx="38.4"  ry="8.2" fill="#ffffff" opacity=".88"/><line x1="485.04593341393394" y1="413.70150476843116" x2="516.3216389141418" y2="413.0031633088365" stroke="#ff2040" stroke-opacity=".52" stroke-width="2"/><line x1="485.8923996090516" y1="439.51290967930106" x2="515.6470659494772" y2="438.5125111827627" stroke="#ff2040" stroke-opacity=".52" stroke-width="2"/><line x1="501.71252835029736" y1="455.1790012824349" x2="501.21656443998216" y2="484.42355924788865" stroke="#ff2040" stroke-opacity=".58" stroke-width="2.2" filter="url(#skr1x6428)"/><line x1="453.6426214661263" y1="492.2365951889194" x2="452.3468487419002" y2="520.8984276480041" stroke="#ff2040" stroke-opacity=".52" stroke-width="1.5" filter="url(#skr1x6428)"/><line x1="477.6170028016343" y1="489.6336635754443" x2="475.22519229626283" y2="521.3746971494518" stroke="#ff2040" stroke-opacity=".52" stroke-width="1.5" filter="url(#skr1x6428)"/><line x1="500.20992804979903" y1="491.7334250345826" x2="498.2102518923581" y2="520.996840003971" stroke="#ff2040" stroke-opacity=".52" stroke-width="1.5" filter="url(#skr1x6428)"/><line x1="524.5496233295277" y1="492.4493978325277" x2="524.7613996015489" y2="521.5026880648918" stroke="#ff2040" stroke-opacity=".52" stroke-width="1.5" filter="url(#skr1x6428)"/><line x1="546.6040662842058" y1="492.4380122500471" x2="547.2713171568886" y2="520.8401972029358" stroke="#ff2040" stroke-opacity=".52" stroke-width="1.5" filter="url(#skr1x6428)"/><polygon points="432.5,502.4 568.8,504.0 552.5,557.3 446.1,555.6" fill="#cc0020" fill-opacity=".72" stroke="#ff2040" stroke-width="1.3" filter="url(#skr1x6428)"/><text x="30.0"  y="975.0" font-family="monospace" font-weight="bold" font-size="22.0" fill="rgba(255,255,255,.22)">#0001</text><text x="500.0"   y="975.0" text-anchor="middle" font-family="monospace" font-weight="bold" font-size="22.0" fill="#ff2040" fill-opacity=".48">CRIMSON RANGER</text><text x="970.0" y="975.0" text-anchor="end"    font-family="monospace" font-weight="bold" font-size="22.0" fill="#ff2040" fill-opacity=".32">MECH RANGERS</text></svg>