<svg xmlns="http://www.w3.org/2000/svg" viewBox="0 0 1000 1000" width="1000" height="1000" shape-rendering="geometricPrecision"><defs>

  <!-- Scene gradients -->
  <radialGradient id="bgr1x6466" cx="50%" cy="42%" r="72%">
    <stop offset="0%"   stop-color="#001422"/>
    <stop offset="100%" stop-color="#000a14"/>
  </radialGradient>
  <linearGradient id="suitr1x6466" x1="8%" y1="0%" x2="92%" y2="100%">
    <stop offset="0%"   stop-color="#2060ff" stop-opacity=".95"/>
    <stop offset="45%"  stop-color="#003ccc"/>
    <stop offset="100%" stop-color="#000a14"/>
  </linearGradient>
  <linearGradient id="suitHir1x6466" x1="0%" y1="0%" x2="0%" y2="100%">
    <stop offset="0%"   stop-color="rgba(255,255,255,.28)"/>
    <stop offset="60%"  stop-color="rgba(255,255,255,.04)"/>
    <stop offset="100%" stop-color="rgba(255,255,255,0)"/>
  </linearGradient>
  <!-- Bevel: bright top, dark bottom for armour panels -->
  <linearGradient id="bevelr1x6466" x1="0%" y1="0%" x2="0%" y2="100%">
    <stop offset="0%"   stop-color="rgba(255,255,255,.55)"/>
    <stop offset="30%"  stop-color="#2060ff"/>
    <stop offset="70%"  stop-color="#003ccc"/>
    <stop offset="100%" stop-color="rgba(0,0,0,.5)"/>
  </linearGradient>

  <!-- Weapon: cold steel blade sweep -->
  <linearGradient id="blader1x6466" x1="0%" y1="0%" x2="100%" y2="0%">
    <stop offset="0%"   stop-color="#0e0e20"/>
    <stop offset="16%"  stop-color="#3e3e58"/>
    <stop offset="34%"  stop-color="#c8c8e0"/>
    <stop offset="50%"  stop-color="#f5f5ff"/>
    <stop offset="66%"  stop-color="#b8b8d0"/>
    <stop offset="84%"  stop-color="#2e2e48"/>
    <stop offset="100%" stop-color="#08080e"/>
  </linearGradient>
  <!-- Blade tip brightening -->
  <linearGradient id="bladeTipr1x6466" x1="0%" y1="100%" x2="0%" y2="0%">
    <stop offset="0%"   stop-color="rgba(255,255,255,0)"/>
    <stop offset="55%"  stop-color="rgba(255,255,255,.1)"/>
    <stop offset="100%" stop-color="rgba(255,255,255,.55)"/>
  </linearGradient>
  <!-- Gunmetal anodised — blaster body -->
  <linearGradient id="gunmetalr1x6466" x1="0%" y1="0%" x2="0%" y2="100%">
    <stop offset="0%"   stop-color="#46465e"/>
    <stop offset="18%"  stop-color="#828296"/>
    <stop offset="42%"  stop-color="#26263a"/>
    <stop offset="72%"  stop-color="#16162a"/>
    <stop offset="100%" stop-color="#0c0c18"/>
  </linearGradient>
  <!-- Brushed steel tube — barrel/rod -->
  <linearGradient id="barrelr1x6466" x1="0%" y1="0%" x2="100%" y2="0%">
    <stop offset="0%"   stop-color="#0a0a14"/>
    <stop offset="24%"  stop-color="#585875"/>
    <stop offset="50%"  stop-color="#a8a8c8"/>
    <stop offset="76%"  stop-color="#383852"/>
    <stop offset="100%" stop-color="#0a0a14"/>
  </linearGradient>
  <!-- Chrome rod — lance shaft -->
  <linearGradient id="chromer1x6466" x1="0%" y1="0%" x2="100%" y2="0%">
    <stop offset="0%"   stop-color="#0c0c18"/>
    <stop offset="20%"  stop-color="#686888"/>
    <stop offset="44%"  stop-color="#e0e0f0"/>
    <stop offset="56%"  stop-color="#c0c0d8"/>
    <stop offset="80%"  stop-color="#28283e"/>
    <stop offset="100%" stop-color="#0c0c18"/>
  </linearGradient>
  <!-- Titanium plate — shield face -->
  <linearGradient id="titaniumr1x6466" x1="0%" y1="0%" x2="100%" y2="100%">
    <stop offset="0%"   stop-color="#585878"/>
    <stop offset="28%"  stop-color="#2060ff" stop-opacity=".88"/>
    <stop offset="55%"  stop-color="#003ccc"/>
    <stop offset="80%"  stop-color="#181828"/>
    <stop offset="100%" stop-color="#0a0a18"/>
  </linearGradient>
  <!-- Artillery black-chrome — cannon body -->
  <linearGradient id="artilleryr1x6466" x1="0%" y1="0%" x2="0%" y2="100%">
    <stop offset="0%"   stop-color="#383850"/>
    <stop offset="14%"  stop-color="#78789a"/>
    <stop offset="36%"  stop-color="#202034"/>
    <stop offset="65%"  stop-color="#14141e"/>
    <stop offset="100%" stop-color="#0a0a12"/>
  </linearGradient>
  <!-- Energy orb — staff -->
  <radialGradient id="orbr1x6466" cx="35%" cy="35%" r="65%">
    <stop offset="0%"   stop-color="rgba(255,255,255,.9)"/>
    <stop offset="30%"  stop-color="#2060ff"/>
    <stop offset="68%"  stop-color="#003ccc"/>
    <stop offset="100%" stop-color="rgba(0,0,0,.6)"/>
  </radialGradient>
  <!-- Knuckle plate chrome -->
  <linearGradient id="knuckler1x6466" x1="0%" y1="0%" x2="0%" y2="100%">
    <stop offset="0%"   stop-color="#888aaa"/>
    <stop offset="32%"  stop-color="#2060ff" stop-opacity=".8"/>
    <stop offset="62%"  stop-color="#1a1a2c"/>
    <stop offset="100%" stop-color="#0a0a14"/>
  </linearGradient>

  <!-- Carbon fibre weave texture overlay -->
  <pattern id="carbonr1x6466" width="6" height="6" patternUnits="userSpaceOnUse">
    <rect width="6" height="6" fill="rgba(0,0,0,.08)"/>
    <rect x="0" y="0" width="3" height="3" fill="rgba(255,255,255,.022)"/>
    <rect x="3" y="3" width="3" height="3" fill="rgba(255,255,255,.022)"/>
    <line x1="0" y1="0" x2="3" y2="3" stroke="rgba(255,255,255,.038)" stroke-width=".5"/>
    <line x1="3" y1="0" x2="6" y2="3" stroke="rgba(0,0,0,.055)"       stroke-width=".5"/>
    <line x1="0" y1="3" x2="3" y2="6" stroke="rgba(0,0,0,.055)"       stroke-width=".5"/>
    <line x1="3" y1="3" x2="6" y2="6" stroke="rgba(255,255,255,.038)" stroke-width=".5"/>
  </pattern>

  <!-- Specular metal sheen on armour panels -->
  <filter id="metalr1x6466" x="-5%" y="-5%" width="110%" height="110%">
    <feSpecularLighting surfaceScale="4" specularConstant="1.8"
        specularExponent="42" lighting-color="#ffffff" result="spec">
      <feDistantLight elevation="52" azimuth="38"/>
    </feSpecularLighting>
    <feComposite in="spec" in2="SourceGraphic" operator="in" result="sm"/>
    <feComposite in="SourceGraphic" in2="sm" operator="arithmetic" k1="0" k2="1" k3="0.55" k4="0"/>
  </filter>

  <!-- Sharper specular for weapons — heavier glare -->
  <filter id="wmr1x6466" x="-8%" y="-8%" width="116%" height="116%">
    <feSpecularLighting surfaceScale="6" specularConstant="2.4"
        specularExponent="65" lighting-color="#ffffff" result="spec">
      <feDistantLight elevation="44" azimuth="28"/>
    </feSpecularLighting>
    <feComposite in="spec" in2="SourceGraphic" operator="in" result="sm"/>
    <feComposite in="SourceGraphic" in2="sm" operator="arithmetic" k1="0" k2="1" k3="0.78" k4="0"/>
  </filter>

  <!-- Sketch wobble -->
  <filter id="skr1x6466" x="-8%" y="-8%" width="116%" height="116%">
    <feTurbulence type="fractalNoise" baseFrequency="0.038"
        numOctaves="3" seed="64" result="noise"/>
    <feDisplacementMap in="SourceGraphic" in2="noise" scale="2.6"
        xChannelSelector="R" yChannelSelector="G" result="w"/>
    <feComposite in="w" in2="SourceGraphic" operator="atop"/>
  </filter>

  <!-- Glow: sharp accent -->
  <filter id="glowr1x6466" x="-20%" y="-20%" width="140%" height="140%">
    <feGaussianBlur stdDeviation="3.5" result="b"/>
    <feColorMatrix in="b" type="matrix"
        values="0 0 0 0 1  0 0 0 0 1  0 0 0 0 1  0 0 0 1.8 0" result="boost"/>
    <feMerge><feMergeNode in="boost"/><feMergeNode in="SourceGraphic"/></feMerge>
  </filter>

  <!-- Bloom: wide soft -->
  <filter id="bloomr1x6466" x="-40%" y="-40%" width="180%" height="180%">
    <feGaussianBlur stdDeviation="11" result="b"/>
    <feMerge><feMergeNode in="b"/><feMergeNode in="SourceGraphic"/></feMerge>
  </filter>

  </defs><rect width="1000" height="1000" fill="url(#bgr1x6466)"/><line x1="0" y1="2.3" x2="1000" y2="-2.7" stroke="#2060ff" stroke-opacity=".055" stroke-width="1.2"/><line x1="1.7" y1="0" x2="0.1" y2="1000" stroke="#2060ff" stroke-opacity=".055" stroke-width="1.2"/><line x1="0" y1="100.3" x2="1000" y2="99.4" stroke="#2060ff" stroke-opacity=".055" stroke-width="1.2"/><line x1="101.1" y1="0" x2="100.7" y2="1000" stroke="#2060ff" stroke-opacity=".055" stroke-width="1.2"/><line x1="0" y1="201.1" x2="1000" y2="199.0" stroke="#2060ff" stroke-opacity=".055" stroke-width="1.2"/><line x1="202.4" y1="0" x2="201.7" y2="1000" stroke="#2060ff" stroke-opacity=".055" stroke-width="1.2"/><line x1="0" y1="299.1" x2="1000" y2="298.4" stroke="#2060ff" stroke-opacity=".055" stroke-width="1.2"/><line x1="301.3" y1="0" x2="299.8" y2="1000" stroke="#2060ff" stroke-opacity=".055" stroke-width="1.2"/><line x1="0" y1="397.9" x2="1000" y2="402.8" stroke="#2060ff" stroke-opacity=".055" stroke-width="1.2"/><line x1="402.3" y1="0" x2="399.8" y2="1000" stroke="#2060ff" stroke-opacity=".055" stroke-width="1.2"/><line x1="0" y1="498.4" x2="1000" y2="502.9" stroke="#2060ff" stroke-opacity=".055" stroke-width="1.2"/><line x1="501.2" y1="0" x2="498.4" y2="1000" stroke="#2060ff" stroke-opacity=".055" stroke-width="1.2"/><line x1="0" y1="600.8" x2="1000" y2="597.6" stroke="#2060ff" stroke-opacity=".055" stroke-width="1.2"/><line x1="601.0" y1="0" x2="601.6" y2="1000" stroke="#2060ff" stroke-opacity=".055" stroke-width="1.2"/><line x1="0" y1="700.5" x2="1000" y2="700.0" stroke="#2060ff" stroke-opacity=".055" stroke-width="1.2"/><line x1="702.5" y1="0" x2="702.8" y2="1000" stroke="#2060ff" stroke-opacity=".055" stroke-width="1.2"/><line x1="0" y1="801.3" x2="1000" y2="800.1" stroke="#2060ff" stroke-opacity=".055" stroke-width="1.2"/><line x1="799.0" y1="0" x2="798.1" y2="1000" stroke="#2060ff" stroke-opacity=".055" stroke-width="1.2"/><line x1="0" y1="897.5" x2="1000" y2="902.7" stroke="#2060ff" stroke-opacity=".055" stroke-width="1.2"/><line x1="901.9" y1="0" x2="899.8" y2="1000" stroke="#2060ff" stroke-opacity=".055" stroke-width="1.2"/><path d="M80,30 L30,30 L30,80" stroke="#2060ff" stroke-opacity=".45" stroke-width="2" fill="none" filter="url(#glowr1x6466)"/><path d="M920,30 L970,30 L970,80" stroke="#2060ff" stroke-opacity=".45" stroke-width="2" fill="none" filter="url(#glowr1x6466)"/><path d="M30,920 L30,970 L80,970" stroke="#2060ff" stroke-opacity=".45" stroke-width="2" fill="none" filter="url(#glowr1x6466)"/><path d="M970,920 L970,970 L920,970" stroke="#2060ff" stroke-opacity=".45" stroke-width="2" fill="none" filter="url(#glowr1x6466)"/><ellipse cx="500.0" cy="892.0" rx="350.0" ry="65.0" fill="rgba(0,0,0,.7)" filter="url(#bloomr1x6466)"/><ellipse cx="500.0" cy="889.0" rx="220.0" ry="34.0" fill="rgba(0,0,0,.45)"/><ellipse cx="500.0" cy="520.0" rx="320.0" ry="480.0" fill="#ffffff" fill-opacity=".042" filter="url(#bloomr1x6466)"/><circle cx="552.5" cy="407.7" r="3.1" fill="#ffffff" fill-opacity="0.41" filter="url(#glowr1x6466)"/><circle cx="648.8" cy="581.8" r="2.7" fill="#ffffff" fill-opacity="0.70" filter="url(#glowr1x6466)"/><circle cx="391.7" cy="741.1" r="2.3" fill="#ffffff" fill-opacity="0.69" filter="url(#glowr1x6466)"/><circle cx="475.6" cy="277.2" r="2.4" fill="#ffffff" fill-opacity="0.89" filter="url(#glowr1x6466)"/><circle cx="607.8" cy="602.7" r="4.2" fill="#ffffff" fill-opacity="0.68" filter="url(#glowr1x6466)"/><circle cx="340.1" cy="530.9" r="1.0" fill="#ffffff" fill-opacity="0.88" filter="url(#glowr1x6466)"/><circle cx="268.1" cy="591.8" r="2.5" fill="#ffffff" fill-opacity="0.76" filter="url(#glowr1x6466)"/><circle cx="703.6" cy="578.9" r="4.2" fill="#ffffff" fill-opacity="0.79" filter="url(#glowr1x6466)"/><circle cx="453.4" cy="475.2" r="3.3" fill="#ffffff" fill-opacity="0.67" filter="url(#glowr1x6466)"/><circle cx="622.1" cy="498.8" r="3.3" fill="#ffffff" fill-opacity="0.76" filter="url(#glowr1x6466)"/><circle cx="510.6" cy="195.8" r="3.8" fill="#ffffff" fill-opacity="0.77" filter="url(#glowr1x6466)"/><circle cx="696.3" cy="604.5" r="1.7" fill="#ffffff" fill-opacity="0.84" filter="url(#glowr1x6466)"/><circle cx="261.7" cy="784.4" r="3.3" fill="#ffffff" fill-opacity="0.84" filter="url(#glowr1x6466)"/><circle cx="415.3" cy="547.5" r="0.7" fill="#ffffff" fill-opacity="0.38" filter="url(#glowr1x6466)"/><polygon points="398.9,664.0 490.5,662.4 479.6,876.0 386.7,877.3" fill="url(#suitr1x6466)" stroke="#2060ff" stroke-width="2.2" filter="url(#skr1x6466) url(#metalr1x6466)"/><polygon points="400.0,661.0 488.4,663.8 482.1,878.7 388.5,878.2" fill="url(#carbonr1x6466)"/><polygon points="393.7,724.1 491.8,725.4 484.1,789.6 383.5,789.1" fill="url(#bevelr1x6466)" fill-opacity=".5" stroke="#2060ff" stroke-width="1.4" filter="url(#skr1x6466)"/><polygon points="512.3,664.1 602.3,664.0 613.6,877.0 518.7,876.7" fill="url(#suitr1x6466)" stroke="#2060ff" stroke-width="2.2" filter="url(#skr1x6466) url(#metalr1x6466)"/><polygon points="509.2,661.3 601.6,661.6 613.1,877.9 518.6,877.5" fill="url(#carbonr1x6466)"/><polygon points="506.0,722.1 607.0,724.3 615.6,787.6 515.6,788.3" fill="url(#bevelr1x6466)" fill-opacity=".5" stroke="#2060ff" stroke-width="1.4" filter="url(#skr1x6466)"/><rect x="393.7" y="837.4" width="100.3" height="24.7" fill="url(#bevelr1x6466)" stroke="#2060ff" stroke-width="1" filter="url(#skr1x6466)"/><rect x="506.2"  y="837.3" width="100.3" height="24.7" fill="url(#bevelr1x6466)" stroke="#2060ff" stroke-width="1" filter="url(#skr1x6466)"/><polygon points="370.7,878.7 497.5,875.8 502.0,920.8 361.5,921.2" fill="#003ccc" stroke="#2060ff" stroke-width="2" filter="url(#skr1x6466)"/><polygon points="504.8,876.5 631.9,877.8 636.8,921.6 497.0,921.1" fill="#003ccc" stroke="#2060ff" stroke-width="2" filter="url(#skr1x6466)"/><polygon points="303.3,632.4 694.6,633.0 637.8,683.2 362.4,680.6" fill="#2060ff" fill-opacity=".52" stroke="#2060ff" stroke-width="2" filter="url(#skr1x6466)"/><rect x="462.6" y="638.9" width="72.0" height="42.0" fill="url(#bevelr1x6466)" stroke="#2060ff" stroke-width="1.4" filter="url(#glowr1x6466)"/><rect x="487.4" y="639.2" width="28.0" height="22.0" rx="1" fill="rgba(255,255,255,.48)"/><polygon points="152.7,465.6 235.5,467.2 256.7,734.1 129.1,733.3" fill="url(#suitr1x6466)" stroke="#2060ff" stroke-width="2.2" filter="url(#skr1x6466) url(#metalr1x6466)"/><polygon points="171.9,430.9 254.4,433.9 244.6,510.8 160.1,511.1" fill="url(#bevelr1x6466)" fill-opacity=".72" stroke="#2060ff" stroke-width="2.2" filter="url(#skr1x6466)"/><polygon points="161.8,623.3 242.5,621.3 237.4,660.6 163.7,659.8" fill="#2060ff" fill-opacity=".42" stroke="#2060ff" stroke-width="1" filter="url(#skr1x6466)"/><polygon points="766.7,464.8 846.7,466.1 872.9,736.7 743.2,736.4" fill="url(#suitr1x6466)" stroke="#2060ff" stroke-width="2.2" filter="url(#skr1x6466) url(#metalr1x6466)"/><polygon points="746.9,431.2 828.2,433.5 841.8,511.7 755.3,510.0" fill="url(#bevelr1x6466)" fill-opacity=".72" stroke="#2060ff" stroke-width="2.2" filter="url(#skr1x6466)"/><polygon points="758.0,621.0 840.1,621.9 835.0,660.3 761.2,659.7" fill="#2060ff" fill-opacity=".42" stroke="#2060ff" stroke-width="1" filter="url(#skr1x6466)"/><rect x="121.8"  y="701.3" width="135.3" height="85.0" rx="4" fill="url(#bevelr1x6466)" stroke="#2060ff" stroke-width="1.8" filter="url(#skr1x6466)"/><rect x="750.3"   y="701.7" width="135.3" height="85.0" rx="4" fill="url(#bevelr1x6466)" stroke="#2060ff" stroke-width="1.8" filter="url(#skr1x6466)"/><line x1="149.7" y1="701.4" x2="148.3" y2="782.1" stroke="#2060ff" stroke-opacity=".38" stroke-width="1"/><line x1="779.3" y1="701.3" x2="778.7" y2="785.2" stroke="#2060ff" stroke-opacity=".38" stroke-width="1"/><line x1="181.4" y1="701.8" x2="184.2" y2="784.3" stroke="#2060ff" stroke-opacity=".38" stroke-width="1"/><line x1="810.3" y1="703.5" x2="811.6" y2="785.4" stroke="#2060ff" stroke-opacity=".38" stroke-width="1"/><line x1="216.9" y1="702.1" x2="213.6" y2="783.8" stroke="#2060ff" stroke-opacity=".38" stroke-width="1"/><line x1="843.3" y1="702.3" x2="842.4" y2="785.2" stroke="#2060ff" stroke-opacity=".38" stroke-width="1"/><polygon points="234.4,418.3 765.7,419.0 723.0,662.0 276.2,661.1" fill="url(#suitr1x6466)" stroke="#2060ff" stroke-width="2.6" filter="url(#skr1x6466) url(#metalr1x6466)"/><polygon points="234.2,416.0 763.4,418.2 720.9,663.3 275.8,664.1" fill="url(#carbonr1x6466)"/><polygon points="369.2,418.8 633.4,416.0 611.9,516.2 387.6,515.9" fill="url(#suitHir1x6466)"/><line x1="361.1" y1="471.7" x2="637.3" y2="471.8" stroke="#2060ff" stroke-opacity=".52" stroke-width="1.3" filter="url(#skr1x6466)"/><line x1="398.3" y1="551.3" x2="602.4" y2="549.2" stroke="#2060ff" stroke-opacity=".52" stroke-width="1.3" filter="url(#skr1x6466)"/><line x1="267.6" y1="491.4" x2="321.2" y2="492.0" stroke="#2060ff" stroke-opacity=".62" stroke-width="1.8"/><line x1="681.4" y1="492.6" x2="732.0" y2="492.2" stroke="#2060ff" stroke-opacity=".62" stroke-width="1.8"/><line x1="266.3" y1="523.1" x2="319.8" y2="522.7" stroke="#2060ff" stroke-opacity=".62" stroke-width="1.8"/><line x1="680.1" y1="522.9" x2="731.5" y2="524.4" stroke="#2060ff" stroke-opacity=".62" stroke-width="1.8"/><line x1="266.5" y1="553.0" x2="319.1" y2="553.5" stroke="#2060ff" stroke-opacity=".62" stroke-width="1.8"/><line x1="680.8" y1="554.2" x2="734.1" y2="553.4" stroke="#2060ff" stroke-opacity=".62" stroke-width="1.8"/><line x1="265.6" y1="586.3" x2="318.1" y2="584.9" stroke="#2060ff" stroke-opacity=".62" stroke-width="1.8"/><line x1="681.0" y1="587.4" x2="731.9" y2="585.7" stroke="#2060ff" stroke-opacity=".62" stroke-width="1.8"/><g filter="url(#glowr1x6466)"><circle cx="499.1" cy="501.4" r="31.3" fill="#2060ff" stroke="#000a14" stroke-width="1.4" filter="url(#skr1x6466)"/><circle cx="488.9" cy="499.1" r="7.0" fill="#000a14"/><circle cx="511.7" cy="496.8" r="7.0" fill="#000a14"/><rect x="483.3" y="524.0" width="9.3" height="17.4" rx="1" fill="#2060ff" stroke="#000a14" stroke-width=".6"/><rect x="495.1" y="522.2" width="9.3" height="17.4" rx="1" fill="#2060ff" stroke="#000a14" stroke-width=".6"/><rect x="508.1" y="520.7" width="9.3" height="17.4" rx="1" fill="#2060ff" stroke="#000a14" stroke-width=".6"/></g><g><rect x="34.28939176782963" y="422.6661072243005" width="148.0" height="82.0" rx="5" fill="url(#gunmetalr1x6466)" stroke="#2060ff" stroke-width="2" filter="url(#wmr1x6466)"/><rect x="34.59117958726358" y="422.94365567276253" width="148.0" height="82.0" rx="5" fill="url(#carbonr1x6466)"/><rect x="41.858695383034615" y="404.514568959549" width="90.0" height="22.0" rx="3" fill="url(#barrelr1x6466)" stroke="#2060ff" stroke-width="1" filter="url(#wmr1x6466)"/><circle cx="80.51715358331796" cy="413.9649305315688" r="15.0" fill="#2060ff" opacity=".8" filter="url(#glowr1x6466)"/><circle cx="82.32975958347318" cy="415.39127626428376" r="6.0" fill="rgba(255,255,255,.9)"/><rect x="53.11134803690013" y="454.9177838601172" width="78.0" height="36.0" rx="5" fill="url(#barrelr1x6466)" stroke="#2060ff" stroke-width="1.2" filter="url(#wmr1x6466)"/><circle cx="-20.569870073869858" cy="471.7279163179919" r="18.0" fill="#2060ff" filter="url(#glowr1x6466)" opacity=".88"/><circle cx="-20.075277653299302" cy="471.42316465843464" r="7.0" fill="#ffffff"/><rect x="79.28483188081529" y="501.125758709386" width="44.0" height="42.0" rx="3" fill="url(#gunmetalr1x6466)" stroke="#2060ff" stroke-width="1" filter="url(#wmr1x6466)"/><rect x="36.40798179306087" y="421.8678604561835" width="90.0" height="10.0" rx="2" fill="rgba(255,255,255,.22)"/><line x1="63.880279505196924" y1="487.4399137334898" x2="62.65524748390537" y2="520.769869345054" stroke="#2060ff" stroke-opacity=".5" stroke-width="1.2"/><line x1="77.00105752082538" y1="485.47290265401824" x2="78.1349676515348" y2="519.4507132207043" stroke="#2060ff" stroke-opacity=".5" stroke-width="1.2"/><line x1="93.32501875398677" y1="486.9365845241584" x2="94.1676349138282" y2="518.4351617997512" stroke="#2060ff" stroke-opacity=".5" stroke-width="1.2"/></g><rect x="450.0321169635281" y="556.6995922055095" width="100.0"  height="56.0" fill="#003ccc" stroke="#2060ff" stroke-width="2.2" filter="url(#skr1x6466)"/><rect x="422.3723940189928" y="575.683508463949" width="152.0" height="26.0" fill="url(#bevelr1x6466)" fill-opacity=".65" stroke="#2060ff" stroke-width="1.2" filter="url(#skr1x6466)"/><polygon points="309.2,380.4 349.7,295.6 501.1,278.8 648.7,295.4 690.6,379.9 669.4,503.1 500.2,563.7 331.7,505.3" fill="url(#suitr1x6466)" stroke="#2060ff" stroke-width="2.8" filter="url(#skr1x6466) url(#metalr1x6466)"/><polygon points="308.5,379.3 351.6,294.7 498.7,278.1 650.0,296.0 692.5,379.0 670.5,502.4 501.5,565.7 331.9,502.8" fill="url(#carbonr1x6466)"/><polygon points="380.9,301.3 499.5,285.2 620.5,302.6 607.6,379.7 391.6,380.1" fill="url(#suitHir1x6466)"/><polygon points="380.5,379.8 365.6,424.7 432.1,501.9 501.5,529.3 568.2,504.4 635.6,426.5 619.2,378.9" fill="#000a14" fill-opacity=".88" stroke="#2060ff" stroke-width="1.8" filter="url(#skr1x6466)"/><polygon points="379.7,412.9 478.2,409.6 485.4,438.3 389.7,439.5" fill="#2060ff" filter="url(#glowr1x6466)"/><polygon points="522.1,412.4 618.1,410.9 611.4,439.4 516.8,439.4" fill="#2060ff" filter="url(#glowr1x6466)"/><ellipse cx="430.9" cy="425.7" rx="38.4"  ry="8.2" fill="#ffffff" opacity=".88"/><ellipse cx="569.1" cy="425.7" rx="38.4"  ry="8.2" fill="#ffffff" opacity=".88"/><line x1="485.4728899687156" y1="413.95864395070816" x2="514.8993471827731" y2="412.3265540664084" stroke="#2060ff" stroke-opacity=".52" stroke-width="2"/><line x1="483.2321718125231" y1="436.58470239685846" x2="514.3072115316428" y2="438.1647236438468" stroke="#2060ff" stroke-opacity=".52" stroke-width="2"/><line x1="501.41105559654534" y1="454.16259803213177" x2="500.4654217639007" y2="482.8659905998968" stroke="#2060ff" stroke-opacity=".58" stroke-width="2.2" filter="url(#skr1x6466)"/><line x1="452.3325713609159" y1="491.77840745253485" x2="455.14913098819557" y2="519.4579199237749" stroke="#2060ff" stroke-opacity=".52" stroke-width="1.5" filter="url(#skr1x6466)"/><line x1="478.51445454381405" y1="492.82072296170514" x2="477.85478150755165" y2="519.7155210235156" stroke="#2060ff" stroke-opacity=".52" stroke-width="1.5" filter="url(#skr1x6466)"/><line x1="499.69199118064716" y1="490.53598364852365" x2="498.342366332002" y2="519.8211247263476" stroke="#2060ff" stroke-opacity=".52" stroke-width="1.5" filter="url(#skr1x6466)"/><line x1="522.5489307674206" y1="489.8784530024044" x2="522.7630094635858" y2="519.9793260727077" stroke="#2060ff" stroke-opacity=".52" stroke-width="1.5" filter="url(#skr1x6466)"/><line x1="547.1059480453097" y1="489.69480035407463" x2="544.6770311001875" y2="518.2008501831442" stroke="#2060ff" stroke-opacity=".52" stroke-width="1.5" filter="url(#skr1x6466)"/><polygon points="431.1,503.6 568.3,503.6 555.1,557.5 444.8,558.6" fill="#003ccc" fill-opacity=".72" stroke="#2060ff" stroke-width="1.3" filter="url(#skr1x6466)"/><text x="30.0"  y="975.0" font-family="monospace" font-weight="bold" font-size="22.0" fill="rgba(255,255,255,.22)">#0001</text><text x="500.0"   y="975.0" text-anchor="middle" font-family="monospace" font-weight="bold" font-size="22.0" fill="#2060ff" fill-opacity=".48">COBALT RANGER</text><text x="970.0" y="975.0" text-anchor="end"    font-family="monospace" font-weight="bold" font-size="22.0" fill="#2060ff" fill-opacity=".32">MECH RANGERS</text></svg>