<svg xmlns="http://www.w3.org/2000/svg" viewBox="0 0 1000 1000" width="1000" height="1000" shape-rendering="geometricPrecision"><defs>

  <!-- Scene gradients -->
  <radialGradient id="bgr1x6513" cx="50%" cy="42%" r="72%">
    <stop offset="0%"   stop-color="#1a2814"/>
    <stop offset="100%" stop-color="#0d1520"/>
  </radialGradient>
  <linearGradient id="suitr1x6513" x1="8%" y1="0%" x2="92%" y2="100%">
    <stop offset="0%"   stop-color="#ffcc00" stop-opacity=".95"/>
    <stop offset="45%"  stop-color="#a07000"/>
    <stop offset="100%" stop-color="#0d1520"/>
  </linearGradient>
  <linearGradient id="suitHir1x6513" x1="0%" y1="0%" x2="0%" y2="100%">
    <stop offset="0%"   stop-color="rgba(255,255,255,.28)"/>
    <stop offset="60%"  stop-color="rgba(255,255,255,.04)"/>
    <stop offset="100%" stop-color="rgba(255,255,255,0)"/>
  </linearGradient>
  <!-- Bevel: bright top, dark bottom for armour panels -->
  <linearGradient id="bevelr1x6513" x1="0%" y1="0%" x2="0%" y2="100%">
    <stop offset="0%"   stop-color="rgba(255,255,255,.55)"/>
    <stop offset="30%"  stop-color="#ffcc00"/>
    <stop offset="70%"  stop-color="#a07000"/>
    <stop offset="100%" stop-color="rgba(0,0,0,.5)"/>
  </linearGradient>

  <!-- Weapon: cold steel blade sweep -->
  <linearGradient id="blader1x6513" x1="0%" y1="0%" x2="100%" y2="0%">
    <stop offset="0%"   stop-color="#0e0e20"/>
    <stop offset="16%"  stop-color="#3e3e58"/>
    <stop offset="34%"  stop-color="#c8c8e0"/>
    <stop offset="50%"  stop-color="#f5f5ff"/>
    <stop offset="66%"  stop-color="#b8b8d0"/>
    <stop offset="84%"  stop-color="#2e2e48"/>
    <stop offset="100%" stop-color="#08080e"/>
  </linearGradient>
  <!-- Blade tip brightening -->
  <linearGradient id="bladeTipr1x6513" x1="0%" y1="100%" x2="0%" y2="0%">
    <stop offset="0%"   stop-color="rgba(255,255,255,0)"/>
    <stop offset="55%"  stop-color="rgba(255,255,255,.1)"/>
    <stop offset="100%" stop-color="rgba(255,255,255,.55)"/>
  </linearGradient>
  <!-- Gunmetal anodised — blaster body -->
  <linearGradient id="gunmetalr1x6513" x1="0%" y1="0%" x2="0%" y2="100%">
    <stop offset="0%"   stop-color="#46465e"/>
    <stop offset="18%"  stop-color="#828296"/>
    <stop offset="42%"  stop-color="#26263a"/>
    <stop offset="72%"  stop-color="#16162a"/>
    <stop offset="100%" stop-color="#0c0c18"/>
  </linearGradient>
  <!-- Brushed steel tube — barrel/rod -->
  <linearGradient id="barrelr1x6513" x1="0%" y1="0%" x2="100%" y2="0%">
    <stop offset="0%"   stop-color="#0a0a14"/>
    <stop offset="24%"  stop-color="#585875"/>
    <stop offset="50%"  stop-color="#a8a8c8"/>
    <stop offset="76%"  stop-color="#383852"/>
    <stop offset="100%" stop-color="#0a0a14"/>
  </linearGradient>
  <!-- Chrome rod — lance shaft -->
  <linearGradient id="chromer1x6513" x1="0%" y1="0%" x2="100%" y2="0%">
    <stop offset="0%"   stop-color="#0c0c18"/>
    <stop offset="20%"  stop-color="#686888"/>
    <stop offset="44%"  stop-color="#e0e0f0"/>
    <stop offset="56%"  stop-color="#c0c0d8"/>
    <stop offset="80%"  stop-color="#28283e"/>
    <stop offset="100%" stop-color="#0c0c18"/>
  </linearGradient>
  <!-- Titanium plate — shield face -->
  <linearGradient id="titaniumr1x6513" x1="0%" y1="0%" x2="100%" y2="100%">
    <stop offset="0%"   stop-color="#585878"/>
    <stop offset="28%"  stop-color="#ffcc00" stop-opacity=".88"/>
    <stop offset="55%"  stop-color="#a07000"/>
    <stop offset="80%"  stop-color="#181828"/>
    <stop offset="100%" stop-color="#0a0a18"/>
  </linearGradient>
  <!-- Artillery black-chrome — cannon body -->
  <linearGradient id="artilleryr1x6513" x1="0%" y1="0%" x2="0%" y2="100%">
    <stop offset="0%"   stop-color="#383850"/>
    <stop offset="14%"  stop-color="#78789a"/>
    <stop offset="36%"  stop-color="#202034"/>
    <stop offset="65%"  stop-color="#14141e"/>
    <stop offset="100%" stop-color="#0a0a12"/>
  </linearGradient>
  <!-- Energy orb — staff -->
  <radialGradient id="orbr1x6513" cx="35%" cy="35%" r="65%">
    <stop offset="0%"   stop-color="rgba(255,255,255,.9)"/>
    <stop offset="30%"  stop-color="#ffcc00"/>
    <stop offset="68%"  stop-color="#a07000"/>
    <stop offset="100%" stop-color="rgba(0,0,0,.6)"/>
  </radialGradient>
  <!-- Knuckle plate chrome -->
  <linearGradient id="knuckler1x6513" x1="0%" y1="0%" x2="0%" y2="100%">
    <stop offset="0%"   stop-color="#888aaa"/>
    <stop offset="32%"  stop-color="#ffcc00" stop-opacity=".8"/>
    <stop offset="62%"  stop-color="#1a1a2c"/>
    <stop offset="100%" stop-color="#0a0a14"/>
  </linearGradient>

  <!-- Carbon fibre weave texture overlay -->
  <pattern id="carbonr1x6513" width="6" height="6" patternUnits="userSpaceOnUse">
    <rect width="6" height="6" fill="rgba(0,0,0,.08)"/>
    <rect x="0" y="0" width="3" height="3" fill="rgba(255,255,255,.022)"/>
    <rect x="3" y="3" width="3" height="3" fill="rgba(255,255,255,.022)"/>
    <line x1="0" y1="0" x2="3" y2="3" stroke="rgba(255,255,255,.038)" stroke-width=".5"/>
    <line x1="3" y1="0" x2="6" y2="3" stroke="rgba(0,0,0,.055)"       stroke-width=".5"/>
    <line x1="0" y1="3" x2="3" y2="6" stroke="rgba(0,0,0,.055)"       stroke-width=".5"/>
    <line x1="3" y1="3" x2="6" y2="6" stroke="rgba(255,255,255,.038)" stroke-width=".5"/>
  </pattern>

  <!-- Specular metal sheen on armour panels -->
  <filter id="metalr1x6513" x="-5%" y="-5%" width="110%" height="110%">
    <feSpecularLighting surfaceScale="4" specularConstant="1.8"
        specularExponent="42" lighting-color="#ffffff" result="spec">
      <feDistantLight elevation="52" azimuth="38"/>
    </feSpecularLighting>
    <feComposite in="spec" in2="SourceGraphic" operator="in" result="sm"/>
    <feComposite in="SourceGraphic" in2="sm" operator="arithmetic" k1="0" k2="1" k3="0.55" k4="0"/>
  </filter>

  <!-- Sharper specular for weapons — heavier glare -->
  <filter id="wmr1x6513" x="-8%" y="-8%" width="116%" height="116%">
    <feSpecularLighting surfaceScale="6" specularConstant="2.4"
        specularExponent="65" lighting-color="#ffffff" result="spec">
      <feDistantLight elevation="44" azimuth="28"/>
    </feSpecularLighting>
    <feComposite in="spec" in2="SourceGraphic" operator="in" result="sm"/>
    <feComposite in="SourceGraphic" in2="sm" operator="arithmetic" k1="0" k2="1" k3="0.78" k4="0"/>
  </filter>

  <!-- Sketch wobble -->
  <filter id="skr1x6513" x="-8%" y="-8%" width="116%" height="116%">
    <feTurbulence type="fractalNoise" baseFrequency="0.038"
        numOctaves="3" seed="96" result="noise"/>
    <feDisplacementMap in="SourceGraphic" in2="noise" scale="2.6"
        xChannelSelector="R" yChannelSelector="G" result="w"/>
    <feComposite in="w" in2="SourceGraphic" operator="atop"/>
  </filter>

  <!-- Glow: sharp accent -->
  <filter id="glowr1x6513" x="-20%" y="-20%" width="140%" height="140%">
    <feGaussianBlur stdDeviation="3.5" result="b"/>
    <feColorMatrix in="b" type="matrix"
        values="0 0 0 0 1  0 0 0 0 1  0 0 0 0 1  0 0 0 1.8 0" result="boost"/>
    <feMerge><feMergeNode in="boost"/><feMergeNode in="SourceGraphic"/></feMerge>
  </filter>

  <!-- Bloom: wide soft -->
  <filter id="bloomr1x6513" x="-40%" y="-40%" width="180%" height="180%">
    <feGaussianBlur stdDeviation="11" result="b"/>
    <feMerge><feMergeNode in="b"/><feMergeNode in="SourceGraphic"/></feMerge>
  </filter>

  </defs><rect width="1000" height="1000" fill="url(#bgr1x6513)"/><ellipse cx="500.0" cy="892.0" rx="350.0" ry="65.0" fill="rgba(0,0,0,.7)" filter="url(#bloomr1x6513)"/><ellipse cx="500.0" cy="889.0" rx="220.0" ry="34.0" fill="rgba(0,0,0,.45)"/><ellipse cx="500.0" cy="520.0" rx="320.0" ry="480.0" fill="#ff6600" fill-opacity=".042" filter="url(#bloomr1x6513)"/><circle cx="489.2" cy="383.9" r="1.1" fill="#ff6600" fill-opacity="0.83" filter="url(#glowr1x6513)"/><circle cx="263.3" cy="233.2" r="2.9" fill="#ff6600" fill-opacity="0.78" filter="url(#glowr1x6513)"/><circle cx="450.9" cy="783.6" r="1.5" fill="#ff6600" fill-opacity="0.58" filter="url(#glowr1x6513)"/><circle cx="559.7" cy="720.6" r="1.5" fill="#ff6600" fill-opacity="0.49" filter="url(#glowr1x6513)"/><circle cx="474.5" cy="290.8" r="4.0" fill="#ff6600" fill-opacity="0.50" filter="url(#glowr1x6513)"/><circle cx="456.9" cy="398.0" r="3.1" fill="#ff6600" fill-opacity="0.45" filter="url(#glowr1x6513)"/><circle cx="695.9" cy="243.6" r="3.2" fill="#ff6600" fill-opacity="0.56" filter="url(#glowr1x6513)"/><circle cx="368.0" cy="226.3" r="3.7" fill="#ff6600" fill-opacity="0.71" filter="url(#glowr1x6513)"/><circle cx="649.5" cy="249.2" r="2.0" fill="#ff6600" fill-opacity="0.49" filter="url(#glowr1x6513)"/><circle cx="428.0" cy="763.7" r="0.9" fill="#ff6600" fill-opacity="0.78" filter="url(#glowr1x6513)"/><circle cx="674.5" cy="720.4" r="0.7" fill="#ff6600" fill-opacity="0.59" filter="url(#glowr1x6513)"/><circle cx="458.2" cy="407.6" r="4.3" fill="#ff6600" fill-opacity="0.83" filter="url(#glowr1x6513)"/><circle cx="551.4" cy="307.8" r="2.7" fill="#ff6600" fill-opacity="0.51" filter="url(#glowr1x6513)"/><circle cx="419.8" cy="619.6" r="1.5" fill="#ff6600" fill-opacity="0.75" filter="url(#glowr1x6513)"/><polygon points="399.5,662.8 490.0,663.4 481.2,877.0 388.4,879.2" fill="url(#suitr1x6513)" stroke="#ffcc00" stroke-width="2.2" filter="url(#skr1x6513) url(#metalr1x6513)"/><polygon points="399.4,664.0 491.0,661.2 480.9,878.7 386.9,877.9" fill="url(#carbonr1x6513)"/><polygon points="393.9,724.1 493.2,722.4 485.8,789.0 382.2,789.0" fill="url(#bevelr1x6513)" fill-opacity=".5" stroke="#ffcc00" stroke-width="1.4" filter="url(#skr1x6513)"/><polygon points="512.1,661.8 601.3,661.7 614.3,877.2 518.7,878.4" fill="url(#suitr1x6513)" stroke="#ffcc00" stroke-width="2.2" filter="url(#skr1x6513) url(#metalr1x6513)"/><polygon points="509.7,662.2 602.1,661.4 611.2,878.5 518.2,879.1" fill="url(#carbonr1x6513)"/><polygon points="507.7,722.3 605.6,723.9 617.6,786.5 515.6,786.6" fill="url(#bevelr1x6513)" fill-opacity=".5" stroke="#ffcc00" stroke-width="1.4" filter="url(#skr1x6513)"/><rect x="391.6" y="840.5" width="100.3" height="24.7" fill="url(#bevelr1x6513)" stroke="#ffcc00" stroke-width="1" filter="url(#skr1x6513)"/><rect x="508.2"  y="838.0" width="100.3" height="24.7" fill="url(#bevelr1x6513)" stroke="#ffcc00" stroke-width="1" filter="url(#skr1x6513)"/><polygon points="368.5,876.8 496.2,877.5 501.8,922.5 364.4,923.3" fill="#a07000" stroke="#ffcc00" stroke-width="2" filter="url(#skr1x6513)"/><polygon points="502.1,877.1 629.4,878.4 639.0,923.3 494.7,922.2" fill="#a07000" stroke="#ffcc00" stroke-width="2" filter="url(#skr1x6513)"/><polygon points="303.3,633.4 694.3,633.9 639.3,683.0 360.7,681.2" fill="#ffcc00" fill-opacity=".52" stroke="#ffcc00" stroke-width="2" filter="url(#skr1x6513)"/><rect x="465.5" y="639.1" width="72.0" height="42.0" fill="url(#bevelr1x6513)" stroke="#ffcc00" stroke-width="1.4" filter="url(#glowr1x6513)"/><rect x="486.9" y="639.6" width="28.0" height="22.0" rx="1" fill="rgba(255,255,255,.48)"/><polygon points="154.7,466.3 235.7,465.0 257.7,735.3 129.7,735.2" fill="url(#suitr1x6513)" stroke="#ffcc00" stroke-width="2.2" filter="url(#skr1x6513) url(#metalr1x6513)"/><polygon points="174.6,433.8 254.7,432.3 242.8,511.7 159.1,511.3" fill="url(#bevelr1x6513)" fill-opacity=".72" stroke="#ffcc00" stroke-width="2.2" filter="url(#skr1x6513)"/><polygon points="162.5,621.9 244.5,623.7 238.0,660.2 164.0,660.9" fill="#ffcc00" fill-opacity=".42" stroke="#ffcc00" stroke-width="1" filter="url(#skr1x6513)"/><polygon points="766.2,466.6 845.3,466.5 872.4,734.8 743.0,736.6" fill="url(#suitr1x6513)" stroke="#ffcc00" stroke-width="2.2" filter="url(#skr1x6513) url(#metalr1x6513)"/><polygon points="746.1,432.0 825.1,433.7 839.4,511.2 756.7,511.4" fill="url(#bevelr1x6513)" fill-opacity=".72" stroke="#ffcc00" stroke-width="2.2" filter="url(#skr1x6513)"/><polygon points="758.6,620.4 840.2,623.6 834.3,660.7 762.1,660.0" fill="#ffcc00" fill-opacity=".42" stroke="#ffcc00" stroke-width="1" filter="url(#skr1x6513)"/><rect x="120.2"  y="700.4" width="135.3" height="85.0" rx="4" fill="url(#bevelr1x6513)" stroke="#ffcc00" stroke-width="1.8" filter="url(#skr1x6513)"/><rect x="747.8"   y="700.8" width="135.3" height="85.0" rx="4" fill="url(#bevelr1x6513)" stroke="#ffcc00" stroke-width="1.8" filter="url(#skr1x6513)"/><line x1="148.3" y1="702.4" x2="149.8" y2="783.4" stroke="#ffcc00" stroke-opacity=".38" stroke-width="1"/><line x1="776.7" y1="700.3" x2="777.1" y2="783.6" stroke="#ffcc00" stroke-opacity=".38" stroke-width="1"/><line x1="182.2" y1="701.9" x2="183.0" y2="783.2" stroke="#ffcc00" stroke-opacity=".38" stroke-width="1"/><line x1="811.2" y1="702.8" x2="810.9" y2="783.0" stroke="#ffcc00" stroke-opacity=".38" stroke-width="1"/><line x1="216.8" y1="702.9" x2="214.1" y2="783.9" stroke="#ffcc00" stroke-opacity=".38" stroke-width="1"/><line x1="842.3" y1="700.9" x2="845.3" y2="785.6" stroke="#ffcc00" stroke-opacity=".38" stroke-width="1"/><polygon points="234.1,417.1 764.8,416.2 723.0,662.7 275.7,661.7" fill="url(#suitr1x6513)" stroke="#ffcc00" stroke-width="2.6" filter="url(#skr1x6513) url(#metalr1x6513)"/><polygon points="236.7,418.6 764.1,416.9 721.4,663.3 277.4,661.3" fill="url(#carbonr1x6513)"/><polygon points="366.9,416.5 630.8,417.2 610.6,514.7 390.2,516.3" fill="url(#suitHir1x6513)"/><line x1="361.9" y1="472.5" x2="636.5" y2="473.0" stroke="#ffcc00" stroke-opacity=".52" stroke-width="1.3" filter="url(#skr1x6513)"/><line x1="400.2" y1="549.8" x2="600.6" y2="550.5" stroke="#ffcc00" stroke-opacity=".52" stroke-width="1.3" filter="url(#skr1x6513)"/><line x1="266.7" y1="490.2" x2="318.3" y2="492.0" stroke="#ffcc00" stroke-opacity=".62" stroke-width="1.8"/><line x1="678.6" y1="492.5" x2="734.8" y2="492.5" stroke="#ffcc00" stroke-opacity=".62" stroke-width="1.8"/><line x1="265.5" y1="521.6" x2="321.6" y2="521.6" stroke="#ffcc00" stroke-opacity=".62" stroke-width="1.8"/><line x1="678.4" y1="524.1" x2="732.9" y2="522.9" stroke="#ffcc00" stroke-opacity=".62" stroke-width="1.8"/><line x1="266.7" y1="554.2" x2="320.5" y2="553.7" stroke="#ffcc00" stroke-opacity=".62" stroke-width="1.8"/><line x1="680.7" y1="556.1" x2="732.9" y2="554.7" stroke="#ffcc00" stroke-opacity=".62" stroke-width="1.8"/><line x1="266.3" y1="586.0" x2="320.9" y2="585.9" stroke="#ffcc00" stroke-opacity=".62" stroke-width="1.8"/><line x1="682.0" y1="587.7" x2="734.6" y2="585.8" stroke="#ffcc00" stroke-opacity=".62" stroke-width="1.8"/><g filter="url(#glowr1x6513)"><polygon points="463.7,529.3 461.3,498.8 481.4,468.1 501.0,497.1 518.4,466.3 536.1,499.5 539.5,528.6" fill="#ffcc00" stroke="#0d1520" stroke-width="1.4" filter="url(#skr1x6513)"/><polygon points="463.6,528.1 461.5,497.7 482.9,468.2 500.8,497.9 520.3,467.5 536.0,496.5 539.1,528.5" fill="url(#suitHir1x6513)" opacity=".38"/></g><g><polygon points="871.8,671.4 923.8,671.4 908.2,-28.6 887.4,-28.6" fill="url(#blader1x6513)" filter="url(#wmr1x6513)"/><polygon points="887.4,-28.6 908.2,-28.6 897.8,-138.6" fill="url(#blader1x6513)" filter="url(#wmr1x6513)"/><polygon points="896.0,671.4 899.7,671.4 898.4,-128.6 897.3,-128.6" fill="url(#bladeTipr1x6513)" opacity=".9"/><line x1="906.523807529267" y1="672.5431600436568" x2="900.5271568757668" y2="-129.74141569919885" stroke="rgba(255,255,255,.68)" stroke-width="1.5"/><line x1="890.1173463274911" y1="670.6848591679707" x2="896.0319397607819" y2="-127.38657642761248" stroke="#ffcc00" stroke-width="1" stroke-opacity=".45"/><line x1="902.5" y1="651.4" x2="899.7" y2="11.4" stroke="rgba(0,0,0,.38)" stroke-width="1.6"/><line x1="893.2" y1="651.4" x2="896.0" y2="11.4" stroke="rgba(0,0,0,.38)" stroke-width="1.6"/><rect x="843.3001290680469" y="670.711159286648" width="112.0" height="28.0" rx="3" fill="url(#bevelr1x6513)" stroke="#ffcc00" stroke-width="1.6" filter="url(#wmr1x6513)"/><rect x="865.2159975675494" y="674.0190271073952" width="64.0" height="10.0" rx="1" fill="rgba(255,255,255,.32)"/><rect x="886.2953811801598" y="676.6530843294225" width="24.0" height="6.0" rx="1" fill="#ffcc00" fill-opacity=".35"/><rect x="884.2377612722665" y="684.5148470670916" width="24.0" height="6.0" rx="1" fill="#ffcc00" fill-opacity=".35"/><rect x="885.9621214550548" y="694.8241755238734" width="24.0" height="6.0" rx="1" fill="#ffcc00" fill-opacity=".35"/><rect x="886.9112243000977" y="702.3653092581778" width="24.0" height="6.0" rx="1" fill="#ffcc00" fill-opacity=".35"/><rect x="885.4116837194748" y="711.0121772467159" width="24.0" height="6.0" rx="1" fill="#ffcc00" fill-opacity=".35"/><rect x="884.3419010488875" y="717.4970659348182" width="24.0" height="6.0" rx="1" fill="#ffcc00" fill-opacity=".35"/><ellipse cx="898.2221673564613" cy="727.4400411375798" rx="22.0" ry="16.0" fill="url(#bevelr1x6513)" stroke="#ffcc00" stroke-width="1.2" filter="url(#wmr1x6513)"/></g><rect x="448.660357922595" y="557.2854449446313" width="100.0"  height="56.0" fill="#a07000" stroke="#ffcc00" stroke-width="2.2" filter="url(#skr1x6513)"/><rect x="425.1398700167425" y="576.8619966788218" width="152.0" height="26.0" fill="url(#bevelr1x6513)" fill-opacity=".65" stroke="#ffcc00" stroke-width="1.2" filter="url(#skr1x6513)"/><polygon points="306.3,381.0 349.9,294.2 498.6,278.5 648.7,294.5 691.6,379.8 668.4,505.1 499.2,563.5 330.4,503.9" fill="url(#suitr1x6513)" stroke="#ffcc00" stroke-width="2.8" filter="url(#skr1x6513) url(#metalr1x6513)"/><polygon points="308.0,379.3 349.8,294.2 498.3,279.6 651.3,292.9 693.5,382.1 670.0,504.3 499.2,566.7 332.4,502.7" fill="url(#carbonr1x6513)"/><polygon points="380.9,303.7 500.9,284.6 618.6,302.2 606.4,381.0 391.3,381.7" fill="url(#suitHir1x6513)"/><polygon points="381.6,382.4 365.8,424.5 433.8,504.7 499.2,527.6 568.2,503.1 634.6,427.1 620.6,381.0" fill="#0d1520" fill-opacity=".88" stroke="#ffcc00" stroke-width="1.8" filter="url(#skr1x6513)"/><polygon points="380.0,412.8 477.2,412.0 482.9,438.5 389.6,439.3" fill="#ffcc00" filter="url(#glowr1x6513)"/><polygon points="522.6,409.6 619.9,410.6 611.4,441.3 513.8,440.6" fill="#ffcc00" filter="url(#glowr1x6513)"/><ellipse cx="430.9" cy="425.7" rx="38.4"  ry="8.2" fill="#ffffff" opacity=".88"/><ellipse cx="569.1" cy="425.7" rx="38.4"  ry="8.2" fill="#ffffff" opacity=".88"/><line x1="484.90052413508295" y1="414.72163201533255" x2="514.8897472499311" y2="412.89248864594845" stroke="#ffcc00" stroke-opacity=".52" stroke-width="2"/><line x1="483.3086175916344" y1="439.4563525990583" x2="514.6194364189543" y2="436.6733840103261" stroke="#ffcc00" stroke-opacity=".52" stroke-width="2"/><line x1="501.45187383973973" y1="455.9077660774812" x2="500.47147767553105" y2="483.9172538594343" stroke="#ffcc00" stroke-opacity=".58" stroke-width="2.2" filter="url(#skr1x6513)"/><line x1="455.06502571364865" y1="490.73000693395727" x2="452.40618803983557" y2="518.8788454671391" stroke="#ffcc00" stroke-opacity=".52" stroke-width="1.5" filter="url(#skr1x6513)"/><line x1="478.70503973685203" y1="491.2416945679113" x2="475.18709757648406" y2="520.8197408958338" stroke="#ffcc00" stroke-opacity=".52" stroke-width="1.5" filter="url(#skr1x6513)"/><line x1="498.5851905656047" y1="490.55070148678493" x2="499.31014486951756" y2="521.501736005582" stroke="#ffcc00" stroke-opacity=".52" stroke-width="1.5" filter="url(#skr1x6513)"/><line x1="524.601724539753" y1="491.46531972708175" x2="524.6901979500986" y2="521.7557960219681" stroke="#ffcc00" stroke-opacity=".52" stroke-width="1.5" filter="url(#skr1x6513)"/><line x1="544.797101128865" y1="490.1044405632652" x2="544.2999967793189" y2="520.7154728593305" stroke="#ffcc00" stroke-opacity=".52" stroke-width="1.5" filter="url(#skr1x6513)"/><polygon points="434.0,505.2 566.6,505.1 552.5,555.5 447.9,555.7" fill="#a07000" fill-opacity=".72" stroke="#ffcc00" stroke-width="1.3" filter="url(#skr1x6513)"/><path d="M389.8326602847874 326.9186913083308 Q330.2237793693877 218.38511061603202 382.63900789659476 139.52006991971285" stroke="#ffcc00" stroke-width="5" fill="none" stroke-linecap="round" filter="url(#skr1x6513)"/><path d="M387.65504108309744 328.53049215730283 Q331.4683159284852 218.334892637562 380.2638343458437 141.03377816136927" stroke="rgba(255,255,255,.25)" stroke-width="1.5" fill="none" stroke-linecap="round"/><path d="M612.3927904552221 326.5520939363167 Q667.801120058205 216.72563392929732 617.5236127202027 142.51322323223576" stroke="#ffcc00" stroke-width="5" fill="none" stroke-linecap="round" filter="url(#skr1x6513)"/><path d="M612.7319499069266 327.14791832221675 Q670.7430499578268 218.26041666269302 619.7234317394532 140.6294107266702" stroke="rgba(255,255,255,.25)" stroke-width="1.5" fill="none" stroke-linecap="round"/><text x="30.0"  y="975.0" font-family="monospace" font-weight="bold" font-size="22.0" fill="rgba(255,255,255,.22)">#0001</text><text x="500.0"   y="975.0" text-anchor="middle" font-family="monospace" font-weight="bold" font-size="22.0" fill="#ffcc00" fill-opacity=".48">NOVA RANGER</text><text x="970.0" y="975.0" text-anchor="end"    font-family="monospace" font-weight="bold" font-size="22.0" fill="#ffcc00" fill-opacity=".32">MECH RANGERS</text></svg>