<svg xmlns="http://www.w3.org/2000/svg" viewBox="0 0 1000 1000" width="1000" height="1000" shape-rendering="geometricPrecision"><defs>

  <!-- Scene gradients -->
  <radialGradient id="bgr1x6540" cx="50%" cy="42%" r="72%">
    <stop offset="0%"   stop-color="#0a0a14"/>
    <stop offset="100%" stop-color="#050508"/>
  </radialGradient>
  <linearGradient id="suitr1x6540" x1="8%" y1="0%" x2="92%" y2="100%">
    <stop offset="0%"   stop-color="#00ffff" stop-opacity=".95"/>
    <stop offset="45%"  stop-color="#08001e"/>
    <stop offset="100%" stop-color="#050508"/>
  </linearGradient>
  <linearGradient id="suitHir1x6540" x1="0%" y1="0%" x2="0%" y2="100%">
    <stop offset="0%"   stop-color="rgba(255,255,255,.28)"/>
    <stop offset="60%"  stop-color="rgba(255,255,255,.04)"/>
    <stop offset="100%" stop-color="rgba(255,255,255,0)"/>
  </linearGradient>
  <!-- Bevel: bright top, dark bottom for armour panels -->
  <linearGradient id="bevelr1x6540" x1="0%" y1="0%" x2="0%" y2="100%">
    <stop offset="0%"   stop-color="rgba(255,255,255,.55)"/>
    <stop offset="30%"  stop-color="#00ffff"/>
    <stop offset="70%"  stop-color="#08001e"/>
    <stop offset="100%" stop-color="rgba(0,0,0,.5)"/>
  </linearGradient>

  <!-- Weapon: cold steel blade sweep -->
  <linearGradient id="blader1x6540" x1="0%" y1="0%" x2="100%" y2="0%">
    <stop offset="0%"   stop-color="#0e0e20"/>
    <stop offset="16%"  stop-color="#3e3e58"/>
    <stop offset="34%"  stop-color="#c8c8e0"/>
    <stop offset="50%"  stop-color="#f5f5ff"/>
    <stop offset="66%"  stop-color="#b8b8d0"/>
    <stop offset="84%"  stop-color="#2e2e48"/>
    <stop offset="100%" stop-color="#08080e"/>
  </linearGradient>
  <!-- Blade tip brightening -->
  <linearGradient id="bladeTipr1x6540" x1="0%" y1="100%" x2="0%" y2="0%">
    <stop offset="0%"   stop-color="rgba(255,255,255,0)"/>
    <stop offset="55%"  stop-color="rgba(255,255,255,.1)"/>
    <stop offset="100%" stop-color="rgba(255,255,255,.55)"/>
  </linearGradient>
  <!-- Gunmetal anodised — blaster body -->
  <linearGradient id="gunmetalr1x6540" x1="0%" y1="0%" x2="0%" y2="100%">
    <stop offset="0%"   stop-color="#46465e"/>
    <stop offset="18%"  stop-color="#828296"/>
    <stop offset="42%"  stop-color="#26263a"/>
    <stop offset="72%"  stop-color="#16162a"/>
    <stop offset="100%" stop-color="#0c0c18"/>
  </linearGradient>
  <!-- Brushed steel tube — barrel/rod -->
  <linearGradient id="barrelr1x6540" x1="0%" y1="0%" x2="100%" y2="0%">
    <stop offset="0%"   stop-color="#0a0a14"/>
    <stop offset="24%"  stop-color="#585875"/>
    <stop offset="50%"  stop-color="#a8a8c8"/>
    <stop offset="76%"  stop-color="#383852"/>
    <stop offset="100%" stop-color="#0a0a14"/>
  </linearGradient>
  <!-- Chrome rod — lance shaft -->
  <linearGradient id="chromer1x6540" x1="0%" y1="0%" x2="100%" y2="0%">
    <stop offset="0%"   stop-color="#0c0c18"/>
    <stop offset="20%"  stop-color="#686888"/>
    <stop offset="44%"  stop-color="#e0e0f0"/>
    <stop offset="56%"  stop-color="#c0c0d8"/>
    <stop offset="80%"  stop-color="#28283e"/>
    <stop offset="100%" stop-color="#0c0c18"/>
  </linearGradient>
  <!-- Titanium plate — shield face -->
  <linearGradient id="titaniumr1x6540" x1="0%" y1="0%" x2="100%" y2="100%">
    <stop offset="0%"   stop-color="#585878"/>
    <stop offset="28%"  stop-color="#00ffff" stop-opacity=".88"/>
    <stop offset="55%"  stop-color="#08001e"/>
    <stop offset="80%"  stop-color="#181828"/>
    <stop offset="100%" stop-color="#0a0a18"/>
  </linearGradient>
  <!-- Artillery black-chrome — cannon body -->
  <linearGradient id="artilleryr1x6540" x1="0%" y1="0%" x2="0%" y2="100%">
    <stop offset="0%"   stop-color="#383850"/>
    <stop offset="14%"  stop-color="#78789a"/>
    <stop offset="36%"  stop-color="#202034"/>
    <stop offset="65%"  stop-color="#14141e"/>
    <stop offset="100%" stop-color="#0a0a12"/>
  </linearGradient>
  <!-- Energy orb — staff -->
  <radialGradient id="orbr1x6540" cx="35%" cy="35%" r="65%">
    <stop offset="0%"   stop-color="rgba(255,255,255,.9)"/>
    <stop offset="30%"  stop-color="#00ffff"/>
    <stop offset="68%"  stop-color="#08001e"/>
    <stop offset="100%" stop-color="rgba(0,0,0,.6)"/>
  </radialGradient>
  <!-- Knuckle plate chrome -->
  <linearGradient id="knuckler1x6540" x1="0%" y1="0%" x2="0%" y2="100%">
    <stop offset="0%"   stop-color="#888aaa"/>
    <stop offset="32%"  stop-color="#00ffff" stop-opacity=".8"/>
    <stop offset="62%"  stop-color="#1a1a2c"/>
    <stop offset="100%" stop-color="#0a0a14"/>
  </linearGradient>

  <!-- Carbon fibre weave texture overlay -->
  <pattern id="carbonr1x6540" width="6" height="6" patternUnits="userSpaceOnUse">
    <rect width="6" height="6" fill="rgba(0,0,0,.08)"/>
    <rect x="0" y="0" width="3" height="3" fill="rgba(255,255,255,.022)"/>
    <rect x="3" y="3" width="3" height="3" fill="rgba(255,255,255,.022)"/>
    <line x1="0" y1="0" x2="3" y2="3" stroke="rgba(255,255,255,.038)" stroke-width=".5"/>
    <line x1="3" y1="0" x2="6" y2="3" stroke="rgba(0,0,0,.055)"       stroke-width=".5"/>
    <line x1="0" y1="3" x2="3" y2="6" stroke="rgba(0,0,0,.055)"       stroke-width=".5"/>
    <line x1="3" y1="3" x2="6" y2="6" stroke="rgba(255,255,255,.038)" stroke-width=".5"/>
  </pattern>

  <!-- Specular metal sheen on armour panels -->
  <filter id="metalr1x6540" x="-5%" y="-5%" width="110%" height="110%">
    <feSpecularLighting surfaceScale="4" specularConstant="1.8"
        specularExponent="42" lighting-color="#ffffff" result="spec">
      <feDistantLight elevation="52" azimuth="38"/>
    </feSpecularLighting>
    <feComposite in="spec" in2="SourceGraphic" operator="in" result="sm"/>
    <feComposite in="SourceGraphic" in2="sm" operator="arithmetic" k1="0" k2="1" k3="0.55" k4="0"/>
  </filter>

  <!-- Sharper specular for weapons — heavier glare -->
  <filter id="wmr1x6540" x="-8%" y="-8%" width="116%" height="116%">
    <feSpecularLighting surfaceScale="6" specularConstant="2.4"
        specularExponent="65" lighting-color="#ffffff" result="spec">
      <feDistantLight elevation="44" azimuth="28"/>
    </feSpecularLighting>
    <feComposite in="spec" in2="SourceGraphic" operator="in" result="sm"/>
    <feComposite in="SourceGraphic" in2="sm" operator="arithmetic" k1="0" k2="1" k3="0.78" k4="0"/>
  </filter>

  <!-- Sketch wobble -->
  <filter id="skr1x6540" x="-8%" y="-8%" width="116%" height="116%">
    <feTurbulence type="fractalNoise" baseFrequency="0.038"
        numOctaves="3" seed="66" result="noise"/>
    <feDisplacementMap in="SourceGraphic" in2="noise" scale="2.6"
        xChannelSelector="R" yChannelSelector="G" result="w"/>
    <feComposite in="w" in2="SourceGraphic" operator="atop"/>
  </filter>

  <!-- Glow: sharp accent -->
  <filter id="glowr1x6540" x="-20%" y="-20%" width="140%" height="140%">
    <feGaussianBlur stdDeviation="3.5" result="b"/>
    <feColorMatrix in="b" type="matrix"
        values="0 0 0 0 1  0 0 0 0 1  0 0 0 0 1  0 0 0 1.8 0" result="boost"/>
    <feMerge><feMergeNode in="boost"/><feMergeNode in="SourceGraphic"/></feMerge>
  </filter>

  <!-- Bloom: wide soft -->
  <filter id="bloomr1x6540" x="-40%" y="-40%" width="180%" height="180%">
    <feGaussianBlur stdDeviation="11" result="b"/>
    <feMerge><feMergeNode in="b"/><feMergeNode in="SourceGraphic"/></feMerge>
  </filter>

  </defs><rect width="1000" height="1000" fill="url(#bgr1x6540)"/><ellipse cx="500.0" cy="892.0" rx="350.0" ry="65.0" fill="rgba(0,0,0,.7)" filter="url(#bloomr1x6540)"/><ellipse cx="500.0" cy="889.0" rx="220.0" ry="34.0" fill="rgba(0,0,0,.45)"/><ellipse cx="500.0" cy="520.0" rx="320.0" ry="480.0" fill="#00e5ff" fill-opacity=".042" filter="url(#bloomr1x6540)"/><circle cx="318.3" cy="541.2" r="3.4" fill="#00e5ff" fill-opacity="0.40" filter="url(#glowr1x6540)"/><circle cx="451.2" cy="777.1" r="2.1" fill="#00e5ff" fill-opacity="0.87" filter="url(#glowr1x6540)"/><circle cx="483.4" cy="746.9" r="3.3" fill="#00e5ff" fill-opacity="0.75" filter="url(#glowr1x6540)"/><circle cx="379.8" cy="640.7" r="3.5" fill="#00e5ff" fill-opacity="0.58" filter="url(#glowr1x6540)"/><circle cx="467.9" cy="726.7" r="3.1" fill="#00e5ff" fill-opacity="0.73" filter="url(#glowr1x6540)"/><circle cx="386.2" cy="573.7" r="4.1" fill="#00e5ff" fill-opacity="0.49" filter="url(#glowr1x6540)"/><circle cx="679.6" cy="572.2" r="4.0" fill="#00e5ff" fill-opacity="0.38" filter="url(#glowr1x6540)"/><circle cx="730.4" cy="502.4" r="2.7" fill="#00e5ff" fill-opacity="0.71" filter="url(#glowr1x6540)"/><circle cx="527.9" cy="779.7" r="3.9" fill="#00e5ff" fill-opacity="0.53" filter="url(#glowr1x6540)"/><circle cx="478.4" cy="291.6" r="4.3" fill="#00e5ff" fill-opacity="0.57" filter="url(#glowr1x6540)"/><circle cx="474.0" cy="300.9" r="3.3" fill="#00e5ff" fill-opacity="0.83" filter="url(#glowr1x6540)"/><circle cx="741.6" cy="768.2" r="2.7" fill="#00e5ff" fill-opacity="0.68" filter="url(#glowr1x6540)"/><circle cx="480.7" cy="614.6" r="1.7" fill="#00e5ff" fill-opacity="0.49" filter="url(#glowr1x6540)"/><circle cx="539.0" cy="314.3" r="4.2" fill="#00e5ff" fill-opacity="0.69" filter="url(#glowr1x6540)"/><path d="M308.5,213.6 Q334.0,540.6 524.9,836.3" stroke="#00e5ff" stroke-opacity="0.68" stroke-width="2.8" fill="none" filter="url(#glowr1x6540)"/><path d="M466.5,357.0 Q470.2,536.1 359.0,729.6" stroke="#00e5ff" stroke-opacity="0.78" stroke-width="1.2" fill="none" filter="url(#glowr1x6540)"/><path d="M671.2,184.0 Q648.5,487.0 445.6,750.7" stroke="#00e5ff" stroke-opacity="0.46" stroke-width="2.0" fill="none" filter="url(#glowr1x6540)"/><path d="M604.5,237.3 Q610.9,421.4 684.4,607.2" stroke="#00e5ff" stroke-opacity="0.49" stroke-width="0.9" fill="none" filter="url(#glowr1x6540)"/><path d="M361.9,259.4 Q372.4,576.2 319.0,873.9" stroke="#00e5ff" stroke-opacity="0.58" stroke-width="0.9" fill="none" filter="url(#glowr1x6540)"/><polygon points="400.0,662.1 487.8,661.4 479.6,876.3 387.3,876.2" fill="url(#suitr1x6540)" stroke="#00ffff" stroke-width="2.2" filter="url(#skr1x6540) url(#metalr1x6540)"/><polygon points="400.5,664.1 488.4,663.1 481.1,877.4 388.9,876.8" fill="url(#carbonr1x6540)"/><polygon points="392.7,722.0 493.1,723.6 482.8,786.6 384.6,786.5" fill="url(#bevelr1x6540)" fill-opacity=".5" stroke="#00ffff" stroke-width="1.4" filter="url(#skr1x6540)"/><polygon points="511.9,664.1 602.9,664.3 612.4,879.0 519.3,878.8" fill="url(#suitr1x6540)" stroke="#00ffff" stroke-width="2.2" filter="url(#skr1x6540) url(#metalr1x6540)"/><polygon points="510.8,661.2 599.7,663.9 613.1,877.2 518.6,877.6" fill="url(#carbonr1x6540)"/><polygon points="507.5,725.0 606.2,722.3 616.4,789.1 517.5,789.8" fill="url(#bevelr1x6540)" fill-opacity=".5" stroke="#00ffff" stroke-width="1.4" filter="url(#skr1x6540)"/><rect x="392.8" y="839.8" width="100.3" height="24.7" fill="url(#bevelr1x6540)" stroke="#00ffff" stroke-width="1" filter="url(#skr1x6540)"/><rect x="506.9"  y="839.2" width="100.3" height="24.7" fill="url(#bevelr1x6540)" stroke="#00ffff" stroke-width="1" filter="url(#skr1x6540)"/><polygon points="370.7,878.4 495.0,877.4 502.9,920.8 362.0,923.2" fill="#08001e" stroke="#00ffff" stroke-width="2" filter="url(#skr1x6540)"/><polygon points="503.8,876.3 631.3,878.5 637.7,919.9 496.4,921.5" fill="#08001e" stroke="#00ffff" stroke-width="2" filter="url(#skr1x6540)"/><polygon points="303.8,634.0 696.3,632.5 638.2,682.6 364.0,681.3" fill="#00ffff" fill-opacity=".52" stroke="#00ffff" stroke-width="2" filter="url(#skr1x6540)"/><rect x="463.2" y="638.7" width="72.0" height="42.0" fill="url(#bevelr1x6540)" stroke="#00ffff" stroke-width="1.4" filter="url(#glowr1x6540)"/><rect x="486.9" y="639.9" width="28.0" height="22.0" rx="1" fill="rgba(255,255,255,.48)"/><polygon points="151.4,465.7 235.8,468.1 259.0,734.8 128.0,734.2" fill="url(#suitr1x6540)" stroke="#00ffff" stroke-width="2.2" filter="url(#skr1x6540) url(#metalr1x6540)"/><polygon points="174.4,431.9 252.2,430.9 244.6,511.9 158.8,511.0" fill="url(#bevelr1x6540)" fill-opacity=".72" stroke="#00ffff" stroke-width="2.2" filter="url(#skr1x6540)"/><polygon points="161.3,623.6 242.9,620.6 239.3,662.7 165.5,660.7" fill="#00ffff" fill-opacity=".42" stroke="#00ffff" stroke-width="1" filter="url(#skr1x6540)"/><polygon points="765.6,464.9 846.9,467.2 870.6,734.6 743.5,734.8" fill="url(#suitr1x6540)" stroke="#00ffff" stroke-width="2.2" filter="url(#skr1x6540) url(#metalr1x6540)"/><polygon points="748.5,431.9 826.2,433.3 841.6,509.3 757.9,509.5" fill="url(#bevelr1x6540)" fill-opacity=".72" stroke="#00ffff" stroke-width="2.2" filter="url(#skr1x6540)"/><polygon points="756.9,622.0 839.3,623.1 833.5,661.7 759.6,661.7" fill="#00ffff" fill-opacity=".42" stroke="#00ffff" stroke-width="1" filter="url(#skr1x6540)"/><rect x="121.2"  y="700.9" width="135.3" height="85.0" rx="4" fill="url(#bevelr1x6540)" stroke="#00ffff" stroke-width="1.8" filter="url(#skr1x6540)"/><rect x="749.7"   y="700.7" width="135.3" height="85.0" rx="4" fill="url(#bevelr1x6540)" stroke="#00ffff" stroke-width="1.8" filter="url(#skr1x6540)"/><line x1="148.9" y1="703.4" x2="151.1" y2="784.9" stroke="#00ffff" stroke-opacity=".38" stroke-width="1"/><line x1="778.4" y1="702.3" x2="778.7" y2="782.6" stroke="#00ffff" stroke-opacity=".38" stroke-width="1"/><line x1="182.6" y1="700.4" x2="182.1" y2="784.6" stroke="#00ffff" stroke-opacity=".38" stroke-width="1"/><line x1="809.3" y1="702.8" x2="810.8" y2="782.2" stroke="#00ffff" stroke-opacity=".38" stroke-width="1"/><line x1="213.8" y1="700.3" x2="216.5" y2="784.6" stroke="#00ffff" stroke-opacity=".38" stroke-width="1"/><line x1="842.3" y1="703.2" x2="845.1" y2="782.3" stroke="#00ffff" stroke-opacity=".38" stroke-width="1"/><polygon points="236.2,418.5 765.8,419.2 722.8,661.3 275.6,660.7" fill="url(#suitr1x6540)" stroke="#00ffff" stroke-width="2.6" filter="url(#skr1x6540) url(#metalr1x6540)"/><polygon points="235.0,417.6 766.5,415.9 723.7,663.5 278.9,664.1" fill="url(#carbonr1x6540)"/><polygon points="368.6,417.4 630.9,416.0 610.9,516.8 387.1,517.0" fill="url(#suitHir1x6540)"/><line x1="363.7" y1="473.0" x2="638.5" y2="471.3" stroke="#00ffff" stroke-opacity=".52" stroke-width="1.3" filter="url(#skr1x6540)"/><line x1="399.9" y1="550.9" x2="600.1" y2="551.4" stroke="#00ffff" stroke-opacity=".52" stroke-width="1.3" filter="url(#skr1x6540)"/><line x1="265.9" y1="489.5" x2="318.6" y2="491.5" stroke="#00ffff" stroke-opacity=".62" stroke-width="1.8"/><line x1="679.2" y1="492.7" x2="731.6" y2="492.0" stroke="#00ffff" stroke-opacity=".62" stroke-width="1.8"/><line x1="266.1" y1="524.2" x2="319.9" y2="523.0" stroke="#00ffff" stroke-opacity=".62" stroke-width="1.8"/><line x1="681.0" y1="523.9" x2="732.8" y2="521.7" stroke="#00ffff" stroke-opacity=".62" stroke-width="1.8"/><line x1="267.8" y1="553.3" x2="318.2" y2="554.4" stroke="#00ffff" stroke-opacity=".62" stroke-width="1.8"/><line x1="681.1" y1="553.8" x2="735.0" y2="553.2" stroke="#00ffff" stroke-opacity=".62" stroke-width="1.8"/><line x1="266.2" y1="585.8" x2="320.7" y2="585.4" stroke="#00ffff" stroke-opacity=".62" stroke-width="1.8"/><line x1="679.3" y1="585.7" x2="732.0" y2="586.3" stroke="#00ffff" stroke-opacity=".62" stroke-width="1.8"/><g filter="url(#glowr1x6540)"><circle cx="501.1" cy="501.4" r="31.3" fill="#00ffff" stroke="#050508" stroke-width="1.4" filter="url(#skr1x6540)"/><circle cx="487.6" cy="497.8" r="7.0" fill="#050508"/><circle cx="511.2" cy="497.2" r="7.0" fill="#050508"/><rect x="485.1" y="522.2" width="9.3" height="17.4" rx="1" fill="#00ffff" stroke="#050508" stroke-width=".6"/><rect x="496.4" y="522.1" width="9.3" height="17.4" rx="1" fill="#00ffff" stroke="#050508" stroke-width=".6"/><rect x="508.3" y="523.3" width="9.3" height="17.4" rx="1" fill="#00ffff" stroke="#050508" stroke-width=".6"/></g><g><polygon points="827.4,293.6 966.3,292.6 967.3,590.8 898.1,725.0 827.7,590.8" fill="url(#titaniumr1x6540)" stroke="#00ffff" stroke-width="2.6" filter="url(#wmr1x6540)"/><polygon points="827.7,292.6 969.5,293.1 967.8,591.2 898.5,728.1 828.3,591.8" fill="url(#carbonr1x6540)"/><polygon points="861.4,362.8 934.3,361.4 936.1,542.7 898.9,631.9 860.8,541.5" fill="#00ffff" fill-opacity=".28" stroke="#00ffff" stroke-width="1.5"/><line x1="845.448748669643" y1="432.2508409769274" x2="949.2640329470486" y2="432.18043159302323" stroke="#00ffff" stroke-opacity=".65" stroke-width="1.3"/><line x1="899.5495938418061" y1="330.9267097094096" x2="898.1874707591347" y2="590.3035699114204" stroke="#00ffff" stroke-opacity=".4" stroke-width="1"/><line x1="828.3479599763267" y1="296.7462413527071" x2="967.3294097154029" y2="296.08584576956923" stroke="rgba(255,255,255,.5)" stroke-width="2"/><circle cx="898.7385591793433" cy="432.95897957794364" r="18.0" fill="url(#bevelr1x6540)" stroke="#00ffff" stroke-width="1.2" filter="url(#wmr1x6540)"/></g><rect x="451.17492582388223" y="556.0723507919348" width="100.0"  height="56.0" fill="#08001e" stroke="#00ffff" stroke-width="2.2" filter="url(#skr1x6540)"/><rect x="422.85257590198887" y="574.3812499538064" width="152.0" height="26.0" fill="url(#bevelr1x6540)" fill-opacity=".65" stroke="#00ffff" stroke-width="1.2" filter="url(#skr1x6540)"/><polygon points="306.4,381.4 350.3,296.2 500.1,279.0 648.0,294.9 690.2,381.4 668.9,505.2 500.7,564.4 329.3,502.3" fill="url(#suitr1x6540)" stroke="#00ffff" stroke-width="2.8" filter="url(#skr1x6540) url(#metalr1x6540)"/><polygon points="307.4,379.3 352.0,293.7 501.0,279.8 651.0,292.9 690.7,382.0 670.3,502.2 500.3,565.9 331.7,504.3" fill="url(#carbonr1x6540)"/><polygon points="380.3,304.4 501.1,287.5 620.1,303.8 608.3,379.2 392.6,381.4" fill="url(#suitHir1x6540)"/><polygon points="381.6,381.0 364.3,424.9 433.4,502.9 501.7,529.1 567.2,505.0 634.9,427.1 620.5,380.1" fill="#050508" fill-opacity=".88" stroke="#00ffff" stroke-width="1.8" filter="url(#skr1x6540)"/><polygon points="382.0,411.2 475.8,411.8 484.3,439.5 388.0,440.3" fill="#00ffff" filter="url(#glowr1x6540)"/><polygon points="523.0,411.2 620.0,411.1 610.5,438.5 516.7,439.5" fill="#00ffff" filter="url(#glowr1x6540)"/><ellipse cx="430.9" cy="425.7" rx="38.4"  ry="8.2" fill="#ffffff" opacity=".88"/><ellipse cx="569.1" cy="425.7" rx="38.4"  ry="8.2" fill="#ffffff" opacity=".88"/><line x1="484.05619420293715" y1="413.6625637538731" x2="516.9706960185804" y2="414.6342539613135" stroke="#00ffff" stroke-opacity=".52" stroke-width="2"/><line x1="483.1090986225381" y1="436.3103179257363" x2="516.9241185563058" y2="438.311996775493" stroke="#00ffff" stroke-opacity=".52" stroke-width="2"/><line x1="499.29541055243465" y1="452.69953300636257" x2="499.5359211527742" y2="483.89028562409806" stroke="#00ffff" stroke-opacity=".58" stroke-width="2.2" filter="url(#skr1x6540)"/><line x1="453.00722583623605" y1="492.6946953109465" x2="454.5743439010158" y2="519.534587302804" stroke="#00ffff" stroke-opacity=".52" stroke-width="1.5" filter="url(#skr1x6540)"/><line x1="477.88785018840804" y1="490.7997976839542" x2="476.7861502782814" y2="520.9664178746752" stroke="#00ffff" stroke-opacity=".52" stroke-width="1.5" filter="url(#skr1x6540)"/><line x1="498.512933107838" y1="492.4403299803845" x2="499.4677131583914" y2="521.1325177063234" stroke="#00ffff" stroke-opacity=".52" stroke-width="1.5" filter="url(#skr1x6540)"/><line x1="523.8102106625772" y1="492.21690401043736" x2="522.949722095821" y2="521.62683413513" stroke="#00ffff" stroke-opacity=".52" stroke-width="1.5" filter="url(#skr1x6540)"/><line x1="544.3871471238509" y1="489.7652644575573" x2="544.7457899029554" y2="518.7288358117454" stroke="#00ffff" stroke-opacity=".52" stroke-width="1.5" filter="url(#skr1x6540)"/><polygon points="432.2,503.3 565.5,503.0 552.4,555.6 446.1,556.1" fill="#08001e" fill-opacity=".72" stroke="#00ffff" stroke-width="1.3" filter="url(#skr1x6540)"/><text x="30.0"  y="975.0" font-family="monospace" font-weight="bold" font-size="22.0" fill="rgba(255,255,255,.22)">#0001</text><text x="500.0"   y="975.0" text-anchor="middle" font-family="monospace" font-weight="bold" font-size="22.0" fill="#00ffff" fill-opacity=".48">COSMIC RANGER</text><text x="970.0" y="975.0" text-anchor="end"    font-family="monospace" font-weight="bold" font-size="22.0" fill="#00ffff" fill-opacity=".32">MECH RANGERS</text></svg>