<svg xmlns="http://www.w3.org/2000/svg" viewBox="0 0 1000 1000" width="1000" height="1000" shape-rendering="geometricPrecision"><defs>

  <!-- Scene gradients -->
  <radialGradient id="bgr1x6567" cx="50%" cy="42%" r="72%">
    <stop offset="0%"   stop-color="#1e0a2e"/>
    <stop offset="100%" stop-color="#0a0520"/>
  </radialGradient>
  <linearGradient id="suitr1x6567" x1="8%" y1="0%" x2="92%" y2="100%">
    <stop offset="0%"   stop-color="#00ff60" stop-opacity=".95"/>
    <stop offset="45%"  stop-color="#00441e"/>
    <stop offset="100%" stop-color="#0a0520"/>
  </linearGradient>
  <linearGradient id="suitHir1x6567" x1="0%" y1="0%" x2="0%" y2="100%">
    <stop offset="0%"   stop-color="rgba(255,255,255,.28)"/>
    <stop offset="60%"  stop-color="rgba(255,255,255,.04)"/>
    <stop offset="100%" stop-color="rgba(255,255,255,0)"/>
  </linearGradient>
  <!-- Bevel: bright top, dark bottom for armour panels -->
  <linearGradient id="bevelr1x6567" x1="0%" y1="0%" x2="0%" y2="100%">
    <stop offset="0%"   stop-color="rgba(255,255,255,.55)"/>
    <stop offset="30%"  stop-color="#00ff60"/>
    <stop offset="70%"  stop-color="#00441e"/>
    <stop offset="100%" stop-color="rgba(0,0,0,.5)"/>
  </linearGradient>

  <!-- Weapon: cold steel blade sweep -->
  <linearGradient id="blader1x6567" x1="0%" y1="0%" x2="100%" y2="0%">
    <stop offset="0%"   stop-color="#0e0e20"/>
    <stop offset="16%"  stop-color="#3e3e58"/>
    <stop offset="34%"  stop-color="#c8c8e0"/>
    <stop offset="50%"  stop-color="#f5f5ff"/>
    <stop offset="66%"  stop-color="#b8b8d0"/>
    <stop offset="84%"  stop-color="#2e2e48"/>
    <stop offset="100%" stop-color="#08080e"/>
  </linearGradient>
  <!-- Blade tip brightening -->
  <linearGradient id="bladeTipr1x6567" x1="0%" y1="100%" x2="0%" y2="0%">
    <stop offset="0%"   stop-color="rgba(255,255,255,0)"/>
    <stop offset="55%"  stop-color="rgba(255,255,255,.1)"/>
    <stop offset="100%" stop-color="rgba(255,255,255,.55)"/>
  </linearGradient>
  <!-- Gunmetal anodised — blaster body -->
  <linearGradient id="gunmetalr1x6567" x1="0%" y1="0%" x2="0%" y2="100%">
    <stop offset="0%"   stop-color="#46465e"/>
    <stop offset="18%"  stop-color="#828296"/>
    <stop offset="42%"  stop-color="#26263a"/>
    <stop offset="72%"  stop-color="#16162a"/>
    <stop offset="100%" stop-color="#0c0c18"/>
  </linearGradient>
  <!-- Brushed steel tube — barrel/rod -->
  <linearGradient id="barrelr1x6567" x1="0%" y1="0%" x2="100%" y2="0%">
    <stop offset="0%"   stop-color="#0a0a14"/>
    <stop offset="24%"  stop-color="#585875"/>
    <stop offset="50%"  stop-color="#a8a8c8"/>
    <stop offset="76%"  stop-color="#383852"/>
    <stop offset="100%" stop-color="#0a0a14"/>
  </linearGradient>
  <!-- Chrome rod — lance shaft -->
  <linearGradient id="chromer1x6567" x1="0%" y1="0%" x2="100%" y2="0%">
    <stop offset="0%"   stop-color="#0c0c18"/>
    <stop offset="20%"  stop-color="#686888"/>
    <stop offset="44%"  stop-color="#e0e0f0"/>
    <stop offset="56%"  stop-color="#c0c0d8"/>
    <stop offset="80%"  stop-color="#28283e"/>
    <stop offset="100%" stop-color="#0c0c18"/>
  </linearGradient>
  <!-- Titanium plate — shield face -->
  <linearGradient id="titaniumr1x6567" x1="0%" y1="0%" x2="100%" y2="100%">
    <stop offset="0%"   stop-color="#585878"/>
    <stop offset="28%"  stop-color="#00ff60" stop-opacity=".88"/>
    <stop offset="55%"  stop-color="#00441e"/>
    <stop offset="80%"  stop-color="#181828"/>
    <stop offset="100%" stop-color="#0a0a18"/>
  </linearGradient>
  <!-- Artillery black-chrome — cannon body -->
  <linearGradient id="artilleryr1x6567" x1="0%" y1="0%" x2="0%" y2="100%">
    <stop offset="0%"   stop-color="#383850"/>
    <stop offset="14%"  stop-color="#78789a"/>
    <stop offset="36%"  stop-color="#202034"/>
    <stop offset="65%"  stop-color="#14141e"/>
    <stop offset="100%" stop-color="#0a0a12"/>
  </linearGradient>
  <!-- Energy orb — staff -->
  <radialGradient id="orbr1x6567" cx="35%" cy="35%" r="65%">
    <stop offset="0%"   stop-color="rgba(255,255,255,.9)"/>
    <stop offset="30%"  stop-color="#00ff60"/>
    <stop offset="68%"  stop-color="#00441e"/>
    <stop offset="100%" stop-color="rgba(0,0,0,.6)"/>
  </radialGradient>
  <!-- Knuckle plate chrome -->
  <linearGradient id="knuckler1x6567" x1="0%" y1="0%" x2="0%" y2="100%">
    <stop offset="0%"   stop-color="#888aaa"/>
    <stop offset="32%"  stop-color="#00ff60" stop-opacity=".8"/>
    <stop offset="62%"  stop-color="#1a1a2c"/>
    <stop offset="100%" stop-color="#0a0a14"/>
  </linearGradient>

  <!-- Carbon fibre weave texture overlay -->
  <pattern id="carbonr1x6567" width="6" height="6" patternUnits="userSpaceOnUse">
    <rect width="6" height="6" fill="rgba(0,0,0,.08)"/>
    <rect x="0" y="0" width="3" height="3" fill="rgba(255,255,255,.022)"/>
    <rect x="3" y="3" width="3" height="3" fill="rgba(255,255,255,.022)"/>
    <line x1="0" y1="0" x2="3" y2="3" stroke="rgba(255,255,255,.038)" stroke-width=".5"/>
    <line x1="3" y1="0" x2="6" y2="3" stroke="rgba(0,0,0,.055)"       stroke-width=".5"/>
    <line x1="0" y1="3" x2="3" y2="6" stroke="rgba(0,0,0,.055)"       stroke-width=".5"/>
    <line x1="3" y1="3" x2="6" y2="6" stroke="rgba(255,255,255,.038)" stroke-width=".5"/>
  </pattern>

  <!-- Specular metal sheen on armour panels -->
  <filter id="metalr1x6567" x="-5%" y="-5%" width="110%" height="110%">
    <feSpecularLighting surfaceScale="4" specularConstant="1.8"
        specularExponent="42" lighting-color="#ffffff" result="spec">
      <feDistantLight elevation="52" azimuth="38"/>
    </feSpecularLighting>
    <feComposite in="spec" in2="SourceGraphic" operator="in" result="sm"/>
    <feComposite in="SourceGraphic" in2="sm" operator="arithmetic" k1="0" k2="1" k3="0.55" k4="0"/>
  </filter>

  <!-- Sharper specular for weapons — heavier glare -->
  <filter id="wmr1x6567" x="-8%" y="-8%" width="116%" height="116%">
    <feSpecularLighting surfaceScale="6" specularConstant="2.4"
        specularExponent="65" lighting-color="#ffffff" result="spec">
      <feDistantLight elevation="44" azimuth="28"/>
    </feSpecularLighting>
    <feComposite in="spec" in2="SourceGraphic" operator="in" result="sm"/>
    <feComposite in="SourceGraphic" in2="sm" operator="arithmetic" k1="0" k2="1" k3="0.78" k4="0"/>
  </filter>

  <!-- Sketch wobble -->
  <filter id="skr1x6567" x="-8%" y="-8%" width="116%" height="116%">
    <feTurbulence type="fractalNoise" baseFrequency="0.038"
        numOctaves="3" seed="51" result="noise"/>
    <feDisplacementMap in="SourceGraphic" in2="noise" scale="2.6"
        xChannelSelector="R" yChannelSelector="G" result="w"/>
    <feComposite in="w" in2="SourceGraphic" operator="atop"/>
  </filter>

  <!-- Glow: sharp accent -->
  <filter id="glowr1x6567" x="-20%" y="-20%" width="140%" height="140%">
    <feGaussianBlur stdDeviation="3.5" result="b"/>
    <feColorMatrix in="b" type="matrix"
        values="0 0 0 0 1  0 0 0 0 1  0 0 0 0 1  0 0 0 1.8 0" result="boost"/>
    <feMerge><feMergeNode in="boost"/><feMergeNode in="SourceGraphic"/></feMerge>
  </filter>

  <!-- Bloom: wide soft -->
  <filter id="bloomr1x6567" x="-40%" y="-40%" width="180%" height="180%">
    <feGaussianBlur stdDeviation="11" result="b"/>
    <feMerge><feMergeNode in="b"/><feMergeNode in="SourceGraphic"/></feMerge>
  </filter>

  </defs><rect width="1000" height="1000" fill="url(#bgr1x6567)"/><ellipse cx="500.0" cy="892.0" rx="350.0" ry="65.0" fill="rgba(0,0,0,.7)" filter="url(#bloomr1x6567)"/><ellipse cx="500.0" cy="889.0" rx="220.0" ry="34.0" fill="rgba(0,0,0,.45)"/><ellipse cx="500.0" cy="520.0" rx="320.0" ry="480.0" fill="#6600ff" fill-opacity=".042" filter="url(#bloomr1x6567)"/><circle cx="317.2" cy="526.1" r="0.9" fill="#6600ff" fill-opacity="0.71" filter="url(#glowr1x6567)"/><circle cx="348.7" cy="651.2" r="0.9" fill="#6600ff" fill-opacity="0.55" filter="url(#glowr1x6567)"/><circle cx="704.2" cy="610.4" r="0.7" fill="#6600ff" fill-opacity="0.77" filter="url(#glowr1x6567)"/><circle cx="256.8" cy="302.2" r="2.6" fill="#6600ff" fill-opacity="0.62" filter="url(#glowr1x6567)"/><circle cx="376.6" cy="236.9" r="1.6" fill="#6600ff" fill-opacity="0.60" filter="url(#glowr1x6567)"/><circle cx="282.8" cy="266.7" r="3.2" fill="#6600ff" fill-opacity="0.39" filter="url(#glowr1x6567)"/><circle cx="519.4" cy="269.2" r="2.8" fill="#6600ff" fill-opacity="0.77" filter="url(#glowr1x6567)"/><circle cx="727.6" cy="679.9" r="0.8" fill="#6600ff" fill-opacity="0.89" filter="url(#glowr1x6567)"/><circle cx="461.6" cy="625.6" r="3.3" fill="#6600ff" fill-opacity="0.48" filter="url(#glowr1x6567)"/><circle cx="747.9" cy="268.3" r="3.7" fill="#6600ff" fill-opacity="0.85" filter="url(#glowr1x6567)"/><circle cx="544.8" cy="433.7" r="2.1" fill="#6600ff" fill-opacity="0.74" filter="url(#glowr1x6567)"/><circle cx="646.9" cy="236.3" r="4.2" fill="#6600ff" fill-opacity="0.58" filter="url(#glowr1x6567)"/><circle cx="624.1" cy="180.3" r="1.2" fill="#6600ff" fill-opacity="0.45" filter="url(#glowr1x6567)"/><circle cx="656.6" cy="706.1" r="2.5" fill="#6600ff" fill-opacity="0.64" filter="url(#glowr1x6567)"/><polygon points="399.8,662.1 491.2,663.6 481.0,878.4 388.8,877.4" fill="url(#suitr1x6567)" stroke="#00ff60" stroke-width="2.2" filter="url(#skr1x6567) url(#metalr1x6567)"/><polygon points="397.3,661.6 488.5,662.3 479.5,877.2 388.6,878.7" fill="url(#carbonr1x6567)"/><polygon points="392.6,722.7 493.7,722.2 484.7,787.1 383.1,789.7" fill="url(#bevelr1x6567)" fill-opacity=".5" stroke="#00ff60" stroke-width="1.4" filter="url(#skr1x6567)"/><polygon points="512.0,662.3 601.2,661.3 613.1,878.1 521.1,878.6" fill="url(#suitr1x6567)" stroke="#00ff60" stroke-width="2.2" filter="url(#skr1x6567) url(#metalr1x6567)"/><polygon points="510.7,661.9 600.3,662.2 611.2,877.6 520.7,876.6" fill="url(#carbonr1x6567)"/><polygon points="505.4,725.2 606.2,722.9 617.9,788.3 514.7,787.0" fill="url(#bevelr1x6567)" fill-opacity=".5" stroke="#00ff60" stroke-width="1.4" filter="url(#skr1x6567)"/><rect x="392.8" y="837.1" width="100.3" height="24.7" fill="url(#bevelr1x6567)" stroke="#00ff60" stroke-width="1" filter="url(#skr1x6567)"/><rect x="505.5"  y="837.5" width="100.3" height="24.7" fill="url(#bevelr1x6567)" stroke="#00ff60" stroke-width="1" filter="url(#skr1x6567)"/><polygon points="371.5,878.5 497.1,879.3 504.1,921.9 361.1,923.0" fill="#00441e" stroke="#00ff60" stroke-width="2" filter="url(#skr1x6567)"/><polygon points="502.5,876.4 629.4,876.5 638.8,919.8 496.7,919.8" fill="#00441e" stroke="#00ff60" stroke-width="2" filter="url(#skr1x6567)"/><polygon points="302.7,632.3 697.2,634.8 637.4,682.0 363.6,683.4" fill="#00ff60" fill-opacity=".52" stroke="#00ff60" stroke-width="2" filter="url(#skr1x6567)"/><rect x="463.8" y="638.0" width="72.0" height="42.0" fill="url(#bevelr1x6567)" stroke="#00ff60" stroke-width="1.4" filter="url(#glowr1x6567)"/><rect x="486.3" y="640.0" width="28.0" height="22.0" rx="1" fill="rgba(255,255,255,.48)"/><polygon points="154.4,464.9 233.9,467.1 259.5,733.4 128.2,736.1" fill="url(#suitr1x6567)" stroke="#00ff60" stroke-width="2.2" filter="url(#skr1x6567) url(#metalr1x6567)"/><polygon points="175.0,433.1 252.3,432.8 242.7,510.8 160.6,509.0" fill="url(#bevelr1x6567)" fill-opacity=".72" stroke="#00ff60" stroke-width="2.2" filter="url(#skr1x6567)"/><polygon points="160.4,622.6 243.3,622.1 239.4,661.6 166.5,662.3" fill="#00ff60" fill-opacity=".42" stroke="#00ff60" stroke-width="1" filter="url(#skr1x6567)"/><polygon points="765.2,465.7 845.8,467.9 873.2,733.6 742.2,735.1" fill="url(#suitr1x6567)" stroke="#00ff60" stroke-width="2.2" filter="url(#skr1x6567) url(#metalr1x6567)"/><polygon points="748.2,432.7 826.7,433.3 838.8,512.0 755.1,510.9" fill="url(#bevelr1x6567)" fill-opacity=".72" stroke="#00ff60" stroke-width="2.2" filter="url(#skr1x6567)"/><polygon points="757.9,621.2 839.0,620.5 835.3,661.8 762.4,661.7" fill="#00ff60" fill-opacity=".42" stroke="#00ff60" stroke-width="1" filter="url(#skr1x6567)"/><rect x="119.6"  y="699.1" width="135.3" height="85.0" rx="4" fill="url(#bevelr1x6567)" stroke="#00ff60" stroke-width="1.8" filter="url(#skr1x6567)"/><rect x="746.9"   y="698.7" width="135.3" height="85.0" rx="4" fill="url(#bevelr1x6567)" stroke="#00ff60" stroke-width="1.8" filter="url(#skr1x6567)"/><line x1="151.1" y1="701.5" x2="151.5" y2="782.4" stroke="#00ff60" stroke-opacity=".38" stroke-width="1"/><line x1="779.2" y1="702.7" x2="776.5" y2="782.7" stroke="#00ff60" stroke-opacity=".38" stroke-width="1"/><line x1="180.8" y1="701.1" x2="181.4" y2="785.0" stroke="#00ff60" stroke-opacity=".38" stroke-width="1"/><line x1="812.4" y1="701.0" x2="812.6" y2="785.2" stroke="#00ff60" stroke-opacity=".38" stroke-width="1"/><line x1="213.7" y1="701.4" x2="216.1" y2="782.5" stroke="#00ff60" stroke-opacity=".38" stroke-width="1"/><line x1="842.2" y1="702.7" x2="843.5" y2="782.4" stroke="#00ff60" stroke-opacity=".38" stroke-width="1"/><polygon points="234.2,417.5 763.5,416.7 721.9,663.8 277.5,663.0" fill="url(#suitr1x6567)" stroke="#00ff60" stroke-width="2.6" filter="url(#skr1x6567) url(#metalr1x6567)"/><polygon points="236.6,416.0 764.7,417.1 722.2,661.8 277.1,660.7" fill="url(#carbonr1x6567)"/><polygon points="368.3,418.6 631.7,417.9 610.5,515.1 389.4,513.8" fill="url(#suitHir1x6567)"/><line x1="362.8" y1="469.7" x2="637.4" y2="470.6" stroke="#00ff60" stroke-opacity=".52" stroke-width="1.3" filter="url(#skr1x6567)"/><line x1="398.5" y1="550.2" x2="601.5" y2="549.7" stroke="#00ff60" stroke-opacity=".52" stroke-width="1.3" filter="url(#skr1x6567)"/><line x1="268.6" y1="490.9" x2="320.2" y2="489.5" stroke="#00ff60" stroke-opacity=".62" stroke-width="1.8"/><line x1="680.7" y1="489.6" x2="731.9" y2="490.4" stroke="#00ff60" stroke-opacity=".62" stroke-width="1.8"/><line x1="268.5" y1="521.2" x2="321.0" y2="522.2" stroke="#00ff60" stroke-opacity=".62" stroke-width="1.8"/><line x1="679.5" y1="521.5" x2="733.2" y2="523.9" stroke="#00ff60" stroke-opacity=".62" stroke-width="1.8"/><line x1="266.2" y1="554.3" x2="319.3" y2="553.7" stroke="#00ff60" stroke-opacity=".62" stroke-width="1.8"/><line x1="681.0" y1="556.4" x2="734.3" y2="554.1" stroke="#00ff60" stroke-opacity=".62" stroke-width="1.8"/><line x1="266.1" y1="585.0" x2="321.1" y2="587.1" stroke="#00ff60" stroke-opacity=".62" stroke-width="1.8"/><line x1="680.4" y1="586.6" x2="733.6" y2="588.2" stroke="#00ff60" stroke-opacity=".62" stroke-width="1.8"/><g filter="url(#glowr1x6567)"><polygon points="501.2,451.5 514.9,489.6 556.8,492.7 523.3,517.5 532.3,556.2 499.3,536.1 467.7,558.7 474.3,518.7 446.3,492.9 484.1,491.6 " fill="#00ff60" stroke="#0a0520" stroke-width="1.4" filter="url(#skr1x6567)"/><polygon points="501.2,451.5 514.9,489.6 556.8,492.7 523.3,517.5 532.3,556.2 499.3,536.1 467.7,558.7 474.3,518.7 446.3,492.9 484.1,491.6 " fill="url(#suitHir1x6567)" opacity=".45"/></g><g><polygon points="76.2,671.4 128.2,671.4 112.6,-28.6 91.8,-28.6" fill="url(#blader1x6567)" filter="url(#wmr1x6567)"/><polygon points="91.8,-28.6 112.6,-28.6 102.2,-138.6" fill="url(#blader1x6567)" filter="url(#wmr1x6567)"/><polygon points="100.3,671.4 104.0,671.4 102.7,-128.6 101.6,-128.6" fill="url(#bladeTipr1x6567)" opacity=".9"/><line x1="111.60252160698172" y1="673.1438011949882" x2="104.48793102717025" y2="-129.76574105424808" stroke="rgba(255,255,255,.68)" stroke-width="1.5"/><line x1="93.13042131345716" y1="669.9301229855977" x2="99.72269209090616" y2="-126.94837920507419" stroke="#00ff60" stroke-width="1" stroke-opacity=".45"/><line x1="106.8" y1="651.4" x2="104.0" y2="11.4" stroke="rgba(0,0,0,.38)" stroke-width="1.6"/><line x1="97.5" y1="651.4" x2="100.3" y2="11.4" stroke="rgba(0,0,0,.38)" stroke-width="1.6"/><rect x="45.6370513411611" y="667.7541563128121" width="112.0" height="28.0" rx="3" fill="url(#bevelr1x6567)" stroke="#00ff60" stroke-width="1.6" filter="url(#wmr1x6567)"/><rect x="71.27470640683543" y="674.3823327970691" width="64.0" height="10.0" rx="1" fill="rgba(255,255,255,.32)"/><rect x="89.91072389114645" y="676.0524936924688" width="24.0" height="6.0" rx="1" fill="#00ff60" fill-opacity=".35"/><rect x="88.76630991477516" y="685.4149988516234" width="24.0" height="6.0" rx="1" fill="#00ff60" fill-opacity=".35"/><rect x="90.7875002274662" y="695.115780912619" width="24.0" height="6.0" rx="1" fill="#00ff60" fill-opacity=".35"/><rect x="90.9880791561119" y="700.7800902220421" width="24.0" height="6.0" rx="1" fill="#00ff60" fill-opacity=".35"/><rect x="91.94566907625642" y="708.3597817863338" width="24.0" height="6.0" rx="1" fill="#00ff60" fill-opacity=".35"/><rect x="90.23194612286981" y="717.0343012400903" width="24.0" height="6.0" rx="1" fill="#00ff60" fill-opacity=".35"/><ellipse cx="102.8088163778558" cy="725.9120608206838" rx="22.0" ry="16.0" fill="url(#bevelr1x6567)" stroke="#00ff60" stroke-width="1.2" filter="url(#wmr1x6567)"/></g><rect x="448.26001436216757" y="555.1136507557704" width="100.0"  height="56.0" fill="#00441e" stroke="#00ff60" stroke-width="2.2" filter="url(#skr1x6567)"/><rect x="422.3585260193795" y="574.855441670306" width="152.0" height="26.0" fill="url(#bevelr1x6567)" fill-opacity=".65" stroke="#00ff60" stroke-width="1.2" filter="url(#skr1x6567)"/><polygon points="306.2,382.3 352.0,293.8 500.7,279.6 649.3,295.8 692.9,380.5 670.6,502.0 501.0,566.9 330.5,504.2" fill="url(#suitr1x6567)" stroke="#00ff60" stroke-width="2.8" filter="url(#skr1x6567) url(#metalr1x6567)"/><polygon points="306.5,381.4 350.8,292.7 499.0,279.5 651.3,295.8 692.5,379.5 667.8,502.2 498.9,565.0 330.7,503.0" fill="url(#carbonr1x6567)"/><polygon points="379.9,301.2 498.5,286.3 620.4,301.6 607.6,381.5 393.7,379.3" fill="url(#suitHir1x6567)"/><polygon points="380.3,381.1 364.4,426.8 432.3,503.6 500.0,526.5 565.5,503.3 634.8,424.8 620.6,381.2" fill="#0a0520" fill-opacity=".88" stroke="#00ff60" stroke-width="1.8" filter="url(#skr1x6567)"/><polygon points="382.4,411.4 477.6,410.3 485.8,439.7 387.7,439.9" fill="#00ff60" filter="url(#glowr1x6567)"/><polygon points="524.7,411.3 617.5,410.8 611.9,439.8 515.3,438.8" fill="#00ff60" filter="url(#glowr1x6567)"/><ellipse cx="430.9" cy="425.7" rx="38.4"  ry="8.2" fill="#ffffff" opacity=".88"/><ellipse cx="569.1" cy="425.7" rx="38.4"  ry="8.2" fill="#ffffff" opacity=".88"/><line x1="484.9837367419712" y1="413.4300755543634" x2="516.2448857622594" y2="413.6542378099635" stroke="#00ff60" stroke-opacity=".52" stroke-width="2"/><line x1="483.97334448048844" y1="436.63641916019844" x2="516.9953306021541" y2="436.5362289732322" stroke="#00ff60" stroke-opacity=".52" stroke-width="2"/><line x1="500.0453357252292" y1="456.0137095960788" x2="498.2000941379927" y2="484.6222086247057" stroke="#00ff60" stroke-opacity=".58" stroke-width="2.2" filter="url(#skr1x6567)"/><line x1="453.643614003323" y1="492.56094807572657" x2="455.1623771930859" y2="521.5619170485995" stroke="#00ff60" stroke-opacity=".52" stroke-width="1.5" filter="url(#skr1x6567)"/><line x1="476.56038009202103" y1="490.02436745520674" x2="478.5844810474105" y2="518.231759903673" stroke="#00ff60" stroke-opacity=".52" stroke-width="1.5" filter="url(#skr1x6567)"/><line x1="500.46379636954515" y1="490.4784258000552" x2="499.25917818341406" y2="518.5518680195324" stroke="#00ff60" stroke-opacity=".52" stroke-width="1.5" filter="url(#skr1x6567)"/><line x1="523.8138387953489" y1="491.39309731321407" x2="523.7138813411444" y2="520.6253488938324" stroke="#00ff60" stroke-opacity=".52" stroke-width="1.5" filter="url(#skr1x6567)"/><line x1="546.5734618694709" y1="492.8233014086261" x2="545.4194094185904" y2="521.699500187207" stroke="#00ff60" stroke-opacity=".52" stroke-width="1.5" filter="url(#skr1x6567)"/><polygon points="432.8,502.9 568.0,502.5 555.2,557.5 445.8,557.9" fill="#00441e" fill-opacity=".72" stroke="#00ff60" stroke-width="1.3" filter="url(#skr1x6567)"/><polygon points="317.0,303.9 361.7,305.2 337.8,196.8" fill="url(#bevelr1x6567)" fill-opacity=".95" stroke="#00ff60" stroke-width="1.6" filter="url(#skr1x6567) url(#glowr1x6567)"/><polygon points="397.9,303.3 443.5,303.3 420.2,209.8" fill="url(#bevelr1x6567)" fill-opacity=".95" stroke="#00ff60" stroke-width="1.6" filter="url(#skr1x6567) url(#glowr1x6567)"/><polygon points="475.3,306.4 524.4,303.4 500.2,222.5" fill="url(#bevelr1x6567)" fill-opacity=".95" stroke="#00ff60" stroke-width="1.6" filter="url(#skr1x6567) url(#glowr1x6567)"/><polygon points="558.8,305.9 604.5,303.7 579.9,210.5" fill="url(#bevelr1x6567)" fill-opacity=".95" stroke="#00ff60" stroke-width="1.6" filter="url(#skr1x6567) url(#glowr1x6567)"/><polygon points="638.2,305.2 682.6,303.4 661.6,193.7" fill="url(#bevelr1x6567)" fill-opacity=".95" stroke="#00ff60" stroke-width="1.6" filter="url(#skr1x6567) url(#glowr1x6567)"/><text x="30.0"  y="975.0" font-family="monospace" font-weight="bold" font-size="22.0" fill="rgba(255,255,255,.22)">#0001</text><text x="500.0"   y="975.0" text-anchor="middle" font-family="monospace" font-weight="bold" font-size="22.0" fill="#00ff60" fill-opacity=".48">VIPER RANGER</text><text x="970.0" y="975.0" text-anchor="end"    font-family="monospace" font-weight="bold" font-size="22.0" fill="#00ff60" fill-opacity=".32">MECH RANGERS</text></svg>