<svg xmlns="http://www.w3.org/2000/svg" viewBox="0 0 1000 1000" width="1000" height="1000" shape-rendering="geometricPrecision"><defs>

  <!-- Scene gradients -->
  <radialGradient id="bgr1x664" cx="50%" cy="42%" r="72%">
    <stop offset="0%"   stop-color="#0a0a14"/>
    <stop offset="100%" stop-color="#050508"/>
  </radialGradient>
  <linearGradient id="suitr1x664" x1="8%" y1="0%" x2="92%" y2="100%">
    <stop offset="0%"   stop-color="#ff2040" stop-opacity=".95"/>
    <stop offset="45%"  stop-color="#cc0020"/>
    <stop offset="100%" stop-color="#050508"/>
  </linearGradient>
  <linearGradient id="suitHir1x664" x1="0%" y1="0%" x2="0%" y2="100%">
    <stop offset="0%"   stop-color="rgba(255,255,255,.28)"/>
    <stop offset="60%"  stop-color="rgba(255,255,255,.04)"/>
    <stop offset="100%" stop-color="rgba(255,255,255,0)"/>
  </linearGradient>
  <!-- Bevel: bright top, dark bottom for armour panels -->
  <linearGradient id="bevelr1x664" x1="0%" y1="0%" x2="0%" y2="100%">
    <stop offset="0%"   stop-color="rgba(255,255,255,.55)"/>
    <stop offset="30%"  stop-color="#ff2040"/>
    <stop offset="70%"  stop-color="#cc0020"/>
    <stop offset="100%" stop-color="rgba(0,0,0,.5)"/>
  </linearGradient>

  <!-- Weapon: cold steel blade sweep -->
  <linearGradient id="blader1x664" x1="0%" y1="0%" x2="100%" y2="0%">
    <stop offset="0%"   stop-color="#0e0e20"/>
    <stop offset="16%"  stop-color="#3e3e58"/>
    <stop offset="34%"  stop-color="#c8c8e0"/>
    <stop offset="50%"  stop-color="#f5f5ff"/>
    <stop offset="66%"  stop-color="#b8b8d0"/>
    <stop offset="84%"  stop-color="#2e2e48"/>
    <stop offset="100%" stop-color="#08080e"/>
  </linearGradient>
  <!-- Blade tip brightening -->
  <linearGradient id="bladeTipr1x664" x1="0%" y1="100%" x2="0%" y2="0%">
    <stop offset="0%"   stop-color="rgba(255,255,255,0)"/>
    <stop offset="55%"  stop-color="rgba(255,255,255,.1)"/>
    <stop offset="100%" stop-color="rgba(255,255,255,.55)"/>
  </linearGradient>
  <!-- Gunmetal anodised — blaster body -->
  <linearGradient id="gunmetalr1x664" x1="0%" y1="0%" x2="0%" y2="100%">
    <stop offset="0%"   stop-color="#46465e"/>
    <stop offset="18%"  stop-color="#828296"/>
    <stop offset="42%"  stop-color="#26263a"/>
    <stop offset="72%"  stop-color="#16162a"/>
    <stop offset="100%" stop-color="#0c0c18"/>
  </linearGradient>
  <!-- Brushed steel tube — barrel/rod -->
  <linearGradient id="barrelr1x664" x1="0%" y1="0%" x2="100%" y2="0%">
    <stop offset="0%"   stop-color="#0a0a14"/>
    <stop offset="24%"  stop-color="#585875"/>
    <stop offset="50%"  stop-color="#a8a8c8"/>
    <stop offset="76%"  stop-color="#383852"/>
    <stop offset="100%" stop-color="#0a0a14"/>
  </linearGradient>
  <!-- Chrome rod — lance shaft -->
  <linearGradient id="chromer1x664" x1="0%" y1="0%" x2="100%" y2="0%">
    <stop offset="0%"   stop-color="#0c0c18"/>
    <stop offset="20%"  stop-color="#686888"/>
    <stop offset="44%"  stop-color="#e0e0f0"/>
    <stop offset="56%"  stop-color="#c0c0d8"/>
    <stop offset="80%"  stop-color="#28283e"/>
    <stop offset="100%" stop-color="#0c0c18"/>
  </linearGradient>
  <!-- Titanium plate — shield face -->
  <linearGradient id="titaniumr1x664" x1="0%" y1="0%" x2="100%" y2="100%">
    <stop offset="0%"   stop-color="#585878"/>
    <stop offset="28%"  stop-color="#ff2040" stop-opacity=".88"/>
    <stop offset="55%"  stop-color="#cc0020"/>
    <stop offset="80%"  stop-color="#181828"/>
    <stop offset="100%" stop-color="#0a0a18"/>
  </linearGradient>
  <!-- Artillery black-chrome — cannon body -->
  <linearGradient id="artilleryr1x664" x1="0%" y1="0%" x2="0%" y2="100%">
    <stop offset="0%"   stop-color="#383850"/>
    <stop offset="14%"  stop-color="#78789a"/>
    <stop offset="36%"  stop-color="#202034"/>
    <stop offset="65%"  stop-color="#14141e"/>
    <stop offset="100%" stop-color="#0a0a12"/>
  </linearGradient>
  <!-- Energy orb — staff -->
  <radialGradient id="orbr1x664" cx="35%" cy="35%" r="65%">
    <stop offset="0%"   stop-color="rgba(255,255,255,.9)"/>
    <stop offset="30%"  stop-color="#ff2040"/>
    <stop offset="68%"  stop-color="#cc0020"/>
    <stop offset="100%" stop-color="rgba(0,0,0,.6)"/>
  </radialGradient>
  <!-- Knuckle plate chrome -->
  <linearGradient id="knuckler1x664" x1="0%" y1="0%" x2="0%" y2="100%">
    <stop offset="0%"   stop-color="#888aaa"/>
    <stop offset="32%"  stop-color="#ff2040" stop-opacity=".8"/>
    <stop offset="62%"  stop-color="#1a1a2c"/>
    <stop offset="100%" stop-color="#0a0a14"/>
  </linearGradient>

  <!-- Carbon fibre weave texture overlay -->
  <pattern id="carbonr1x664" width="6" height="6" patternUnits="userSpaceOnUse">
    <rect width="6" height="6" fill="rgba(0,0,0,.08)"/>
    <rect x="0" y="0" width="3" height="3" fill="rgba(255,255,255,.022)"/>
    <rect x="3" y="3" width="3" height="3" fill="rgba(255,255,255,.022)"/>
    <line x1="0" y1="0" x2="3" y2="3" stroke="rgba(255,255,255,.038)" stroke-width=".5"/>
    <line x1="3" y1="0" x2="6" y2="3" stroke="rgba(0,0,0,.055)"       stroke-width=".5"/>
    <line x1="0" y1="3" x2="3" y2="6" stroke="rgba(0,0,0,.055)"       stroke-width=".5"/>
    <line x1="3" y1="3" x2="6" y2="6" stroke="rgba(255,255,255,.038)" stroke-width=".5"/>
  </pattern>

  <!-- Specular metal sheen on armour panels -->
  <filter id="metalr1x664" x="-5%" y="-5%" width="110%" height="110%">
    <feSpecularLighting surfaceScale="4" specularConstant="1.8"
        specularExponent="42" lighting-color="#ffffff" result="spec">
      <feDistantLight elevation="52" azimuth="38"/>
    </feSpecularLighting>
    <feComposite in="spec" in2="SourceGraphic" operator="in" result="sm"/>
    <feComposite in="SourceGraphic" in2="sm" operator="arithmetic" k1="0" k2="1" k3="0.55" k4="0"/>
  </filter>

  <!-- Sharper specular for weapons — heavier glare -->
  <filter id="wmr1x664" x="-8%" y="-8%" width="116%" height="116%">
    <feSpecularLighting surfaceScale="6" specularConstant="2.4"
        specularExponent="65" lighting-color="#ffffff" result="spec">
      <feDistantLight elevation="44" azimuth="28"/>
    </feSpecularLighting>
    <feComposite in="spec" in2="SourceGraphic" operator="in" result="sm"/>
    <feComposite in="SourceGraphic" in2="sm" operator="arithmetic" k1="0" k2="1" k3="0.78" k4="0"/>
  </filter>

  <!-- Sketch wobble -->
  <filter id="skr1x664" x="-8%" y="-8%" width="116%" height="116%">
    <feTurbulence type="fractalNoise" baseFrequency="0.038"
        numOctaves="3" seed="48" result="noise"/>
    <feDisplacementMap in="SourceGraphic" in2="noise" scale="2.6"
        xChannelSelector="R" yChannelSelector="G" result="w"/>
    <feComposite in="w" in2="SourceGraphic" operator="atop"/>
  </filter>

  <!-- Glow: sharp accent -->
  <filter id="glowr1x664" x="-20%" y="-20%" width="140%" height="140%">
    <feGaussianBlur stdDeviation="3.5" result="b"/>
    <feColorMatrix in="b" type="matrix"
        values="0 0 0 0 1  0 0 0 0 1  0 0 0 0 1  0 0 0 1.8 0" result="boost"/>
    <feMerge><feMergeNode in="boost"/><feMergeNode in="SourceGraphic"/></feMerge>
  </filter>

  <!-- Bloom: wide soft -->
  <filter id="bloomr1x664" x="-40%" y="-40%" width="180%" height="180%">
    <feGaussianBlur stdDeviation="11" result="b"/>
    <feMerge><feMergeNode in="b"/><feMergeNode in="SourceGraphic"/></feMerge>
  </filter>

  </defs><rect width="1000" height="1000" fill="url(#bgr1x664)"/><ellipse cx="500.0" cy="892.0" rx="350.0" ry="65.0" fill="rgba(0,0,0,.7)" filter="url(#bloomr1x664)"/><ellipse cx="500.0" cy="889.0" rx="220.0" ry="34.0" fill="rgba(0,0,0,.45)"/><ellipse cx="500.0" cy="520.0" rx="320.0" ry="480.0" fill="#6600ff" fill-opacity=".042" filter="url(#bloomr1x664)"/><circle cx="740.3" cy="678.6" r="2.2" fill="#6600ff" fill-opacity="0.54" filter="url(#glowr1x664)"/><circle cx="342.7" cy="274.5" r="4.2" fill="#6600ff" fill-opacity="0.43" filter="url(#glowr1x664)"/><circle cx="507.0" cy="247.2" r="3.4" fill="#6600ff" fill-opacity="0.73" filter="url(#glowr1x664)"/><circle cx="388.6" cy="366.4" r="1.6" fill="#6600ff" fill-opacity="0.88" filter="url(#glowr1x664)"/><circle cx="489.4" cy="248.5" r="3.1" fill="#6600ff" fill-opacity="0.86" filter="url(#glowr1x664)"/><circle cx="502.0" cy="418.1" r="2.5" fill="#6600ff" fill-opacity="0.56" filter="url(#glowr1x664)"/><circle cx="384.5" cy="307.0" r="1.2" fill="#6600ff" fill-opacity="0.81" filter="url(#glowr1x664)"/><circle cx="411.8" cy="691.1" r="2.0" fill="#6600ff" fill-opacity="0.63" filter="url(#glowr1x664)"/><circle cx="350.9" cy="669.7" r="4.1" fill="#6600ff" fill-opacity="0.70" filter="url(#glowr1x664)"/><circle cx="285.1" cy="349.6" r="3.8" fill="#6600ff" fill-opacity="0.41" filter="url(#glowr1x664)"/><circle cx="385.3" cy="599.4" r="1.0" fill="#6600ff" fill-opacity="0.61" filter="url(#glowr1x664)"/><circle cx="371.9" cy="247.7" r="3.5" fill="#6600ff" fill-opacity="0.49" filter="url(#glowr1x664)"/><circle cx="279.8" cy="574.8" r="3.9" fill="#6600ff" fill-opacity="0.44" filter="url(#glowr1x664)"/><circle cx="685.6" cy="329.5" r="1.7" fill="#6600ff" fill-opacity="0.59" filter="url(#glowr1x664)"/><polygon points="399.4,663.7 490.7,663.0 481.3,876.6 388.5,878.5" fill="url(#suitr1x664)" stroke="#ff2040" stroke-width="2.2" filter="url(#skr1x664) url(#metalr1x664)"/><polygon points="399.9,661.8 490.5,663.0 480.7,878.6 387.2,878.8" fill="url(#carbonr1x664)"/><polygon points="394.3,722.4 493.2,722.9 483.4,787.8 384.9,788.6" fill="url(#bevelr1x664)" fill-opacity=".5" stroke="#ff2040" stroke-width="1.4" filter="url(#skr1x664)"/><polygon points="510.2,663.7 601.2,662.7 613.2,878.1 518.4,876.3" fill="url(#suitr1x664)" stroke="#ff2040" stroke-width="2.2" filter="url(#skr1x664) url(#metalr1x664)"/><polygon points="512.0,663.9 601.2,662.3 614.2,878.3 518.3,879.1" fill="url(#carbonr1x664)"/><polygon points="507.7,723.9 607.2,722.1 615.6,789.9 515.9,789.9" fill="url(#bevelr1x664)" fill-opacity=".5" stroke="#ff2040" stroke-width="1.4" filter="url(#skr1x664)"/><rect x="394.4" y="840.3" width="100.3" height="24.7" fill="url(#bevelr1x664)" stroke="#ff2040" stroke-width="1" filter="url(#skr1x664)"/><rect x="505.9"  y="838.6" width="100.3" height="24.7" fill="url(#bevelr1x664)" stroke="#ff2040" stroke-width="1" filter="url(#skr1x664)"/><polygon points="368.2,877.9 498.2,876.1 503.5,920.2 362.2,923.2" fill="#cc0020" stroke="#ff2040" stroke-width="2" filter="url(#skr1x664)"/><polygon points="504.5,877.5 630.6,876.9 637.9,922.3 495.4,922.7" fill="#cc0020" stroke="#ff2040" stroke-width="2" filter="url(#skr1x664)"/><polygon points="304.4,631.9 695.2,631.7 637.6,683.6 360.6,683.8" fill="#ff2040" fill-opacity=".52" stroke="#ff2040" stroke-width="2" filter="url(#skr1x664)"/><rect x="464.4" y="639.3" width="72.0" height="42.0" fill="url(#bevelr1x664)" stroke="#ff2040" stroke-width="1.4" filter="url(#glowr1x664)"/><rect x="484.6" y="640.2" width="28.0" height="22.0" rx="1" fill="rgba(255,255,255,.48)"/><polygon points="152.9,465.7 235.3,465.7 258.4,736.8 127.3,734.5" fill="url(#suitr1x664)" stroke="#ff2040" stroke-width="2.2" filter="url(#skr1x664) url(#metalr1x664)"/><polygon points="173.4,433.6 251.9,431.4 243.8,511.0 160.9,510.5" fill="url(#bevelr1x664)" fill-opacity=".72" stroke="#ff2040" stroke-width="2.2" filter="url(#skr1x664)"/><polygon points="160.5,623.3 243.2,620.4 237.8,660.3 164.6,661.6" fill="#ff2040" fill-opacity=".42" stroke="#ff2040" stroke-width="1" filter="url(#skr1x664)"/><polygon points="766.6,467.6 848.3,464.9 870.7,736.4 742.3,736.6" fill="url(#suitr1x664)" stroke="#ff2040" stroke-width="2.2" filter="url(#skr1x664) url(#metalr1x664)"/><polygon points="745.7,431.4 827.8,431.7 840.6,509.5 757.9,511.9" fill="url(#bevelr1x664)" fill-opacity=".72" stroke="#ff2040" stroke-width="2.2" filter="url(#skr1x664)"/><polygon points="756.7,622.0 839.5,620.7 833.2,660.1 762.5,659.7" fill="#ff2040" fill-opacity=".42" stroke="#ff2040" stroke-width="1" filter="url(#skr1x664)"/><rect x="120.2"  y="699.9" width="135.3" height="85.0" rx="4" fill="url(#bevelr1x664)" stroke="#ff2040" stroke-width="1.8" filter="url(#skr1x664)"/><rect x="747.7"   y="700.0" width="135.3" height="85.0" rx="4" fill="url(#bevelr1x664)" stroke="#ff2040" stroke-width="1.8" filter="url(#skr1x664)"/><line x1="148.6" y1="701.6" x2="150.0" y2="783.8" stroke="#ff2040" stroke-opacity=".38" stroke-width="1"/><line x1="778.6" y1="702.6" x2="776.6" y2="783.2" stroke="#ff2040" stroke-opacity=".38" stroke-width="1"/><line x1="181.4" y1="701.2" x2="181.3" y2="785.3" stroke="#ff2040" stroke-opacity=".38" stroke-width="1"/><line x1="811.3" y1="701.3" x2="809.2" y2="785.4" stroke="#ff2040" stroke-opacity=".38" stroke-width="1"/><line x1="217.0" y1="700.4" x2="214.0" y2="784.8" stroke="#ff2040" stroke-opacity=".38" stroke-width="1"/><line x1="843.0" y1="702.1" x2="845.0" y2="784.3" stroke="#ff2040" stroke-opacity=".38" stroke-width="1"/><polygon points="235.3,415.8 765.2,418.2 723.0,663.9 278.9,661.4" fill="url(#suitr1x664)" stroke="#ff2040" stroke-width="2.6" filter="url(#skr1x664) url(#metalr1x664)"/><polygon points="233.2,417.2 764.0,418.1 723.7,661.3 276.3,660.7" fill="url(#carbonr1x664)"/><polygon points="367.5,417.5 630.9,418.8 610.4,514.6 387.7,513.8" fill="url(#suitHir1x664)"/><line x1="362.2" y1="472.1" x2="636.6" y2="471.5" stroke="#ff2040" stroke-opacity=".52" stroke-width="1.3" filter="url(#skr1x664)"/><line x1="400.7" y1="550.3" x2="599.6" y2="549.9" stroke="#ff2040" stroke-opacity=".52" stroke-width="1.3" filter="url(#skr1x664)"/><line x1="265.5" y1="491.4" x2="318.3" y2="491.2" stroke="#ff2040" stroke-opacity=".62" stroke-width="1.8"/><line x1="681.3" y1="492.3" x2="732.1" y2="489.8" stroke="#ff2040" stroke-opacity=".62" stroke-width="1.8"/><line x1="265.9" y1="523.9" x2="318.1" y2="523.0" stroke="#ff2040" stroke-opacity=".62" stroke-width="1.8"/><line x1="678.8" y1="523.2" x2="731.6" y2="521.2" stroke="#ff2040" stroke-opacity=".62" stroke-width="1.8"/><line x1="265.5" y1="554.2" x2="319.4" y2="554.5" stroke="#ff2040" stroke-opacity=".62" stroke-width="1.8"/><line x1="679.3" y1="553.3" x2="732.4" y2="553.8" stroke="#ff2040" stroke-opacity=".62" stroke-width="1.8"/><line x1="268.0" y1="586.4" x2="318.3" y2="585.5" stroke="#ff2040" stroke-opacity=".62" stroke-width="1.8"/><line x1="680.1" y1="585.0" x2="731.5" y2="588.0" stroke="#ff2040" stroke-opacity=".62" stroke-width="1.8"/><g filter="url(#glowr1x664)"><path d="M500.0,449.7 C462.3,446.8 442.0,481.6 447.8,513.5 L459.4,542.5 C476.8,536.7 491.3,551.2 500.0,551.2 C508.7,551.2 523.2,536.7 540.6,542.5 L552.2,513.5 C558.0,481.6 537.7,446.8 500.0,449.7 Z" fill="#ff2040" fill-opacity=".92" stroke="#050508" stroke-width="1.3" filter="url(#skr1x664)"/><path d="M483.8,519.3 Q500.0,533.8 516.2,519.3" stroke="#050508" stroke-width="1" fill="none" opacity=".58"/><ellipse cx="481.4" cy="497.8" rx="8.7" ry="6.4" fill="#050508" opacity=".95"/><ellipse cx="518.6" cy="497.8" rx="8.7" ry="6.4" fill="#050508" opacity=".95"/><ellipse cx="481.4" cy="497.8" rx="2.3" ry="5.8" fill="#ff2040"/><ellipse cx="518.6" cy="497.8" rx="2.3" ry="5.8" fill="#ff2040"/><path d="M471.0,467.1 L458.2,426.5 L481.4,463.0" fill="#ff2040" stroke="#050508" stroke-width=".9"/><path d="M529.0,467.1 L541.8,426.5 L518.6,463.0" fill="#ff2040" stroke="#050508" stroke-width=".9"/><path d="M476.8,452.6 C488.4,449.1 511.6,449.1 523.2,452.6" fill="rgba(255,255,255,.18)"/></g><g><polygon points="76.2,671.4 128.2,671.4 112.6,-28.6 91.8,-28.6" fill="url(#blader1x664)" filter="url(#wmr1x664)"/><polygon points="91.8,-28.6 112.6,-28.6 102.2,-138.6" fill="url(#blader1x664)" filter="url(#wmr1x664)"/><polygon points="100.3,671.4 104.0,671.4 102.7,-128.6 101.6,-128.6" fill="url(#bladeTipr1x664)" opacity=".9"/><line x1="111.3424327055737" y1="669.6915819673799" x2="103.13164863064883" y2="-128.05133912479508" stroke="rgba(255,255,255,.68)" stroke-width="1.5"/><line x1="92.82286914689463" y1="673.092743339762" x2="102.29025973573323" y2="-126.8159491046332" stroke="#ff2040" stroke-width="1" stroke-opacity=".45"/><line x1="106.8" y1="651.4" x2="104.0" y2="11.4" stroke="rgba(0,0,0,.38)" stroke-width="1.6"/><line x1="97.5" y1="651.4" x2="100.3" y2="11.4" stroke="rgba(0,0,0,.38)" stroke-width="1.6"/><rect x="44.56659655509513" y="668.070530372113" width="112.0" height="28.0" rx="3" fill="url(#bevelr1x664)" stroke="#ff2040" stroke-width="1.6" filter="url(#wmr1x664)"/><rect x="69.28701639356089" y="672.5100459255278" width="64.0" height="10.0" rx="1" fill="rgba(255,255,255,.32)"/><rect x="88.5833407896943" y="678.8167645652778" width="24.0" height="6.0" rx="1" fill="#ff2040" fill-opacity=".35"/><rect x="89.20086461700495" y="686.4277558038942" width="24.0" height="6.0" rx="1" fill="#ff2040" fill-opacity=".35"/><rect x="90.95184719864275" y="694.6434262025169" width="24.0" height="6.0" rx="1" fill="#ff2040" fill-opacity=".35"/><rect x="88.82743091111999" y="702.9056748873554" width="24.0" height="6.0" rx="1" fill="#ff2040" fill-opacity=".35"/><rect x="89.48684031641108" y="709.0328569568693" width="24.0" height="6.0" rx="1" fill="#ff2040" fill-opacity=".35"/><rect x="88.91392461232837" y="716.392088160757" width="24.0" height="6.0" rx="1" fill="#ff2040" fill-opacity=".35"/><ellipse cx="101.64582781236615" cy="727.5508768319152" rx="22.0" ry="16.0" fill="url(#bevelr1x664)" stroke="#ff2040" stroke-width="1.2" filter="url(#wmr1x664)"/></g><rect x="449.1344170331955" y="556.6927334056236" width="100.0"  height="56.0" fill="#cc0020" stroke="#ff2040" stroke-width="2.2" filter="url(#skr1x664)"/><rect x="423.29397058505566" y="573.7949896588922" width="152.0" height="26.0" fill="url(#bevelr1x664)" fill-opacity=".65" stroke="#ff2040" stroke-width="1.2" filter="url(#skr1x664)"/><polygon points="309.3,380.9 350.0,294.1 499.1,279.5 651.5,294.3 693.4,381.3 670.7,503.2 500.8,564.0 331.8,505.1" fill="url(#suitr1x664)" stroke="#ff2040" stroke-width="2.8" filter="url(#skr1x664) url(#metalr1x664)"/><polygon points="307.6,380.8 351.4,294.7 500.4,278.3 649.6,293.3 693.6,379.1 668.4,504.1 499.5,564.1 332.4,504.1" fill="url(#carbonr1x664)"/><polygon points="379.8,304.4 499.3,287.1 617.6,301.8 609.1,382.2 393.4,382.1" fill="url(#suitHir1x664)"/><polygon points="381.8,381.5 365.9,424.0 432.0,503.1 501.6,527.7 567.4,501.9 633.0,425.5 618.5,379.0" fill="#050508" fill-opacity=".88" stroke="#ff2040" stroke-width="1.8" filter="url(#skr1x664)"/><polygon points="381.0,411.0 477.1,409.7 484.1,439.7 389.8,438.8" fill="#ff2040" filter="url(#glowr1x664)"/><polygon points="524.3,411.1 619.9,411.2 611.0,441.3 516.2,439.9" fill="#ff2040" filter="url(#glowr1x664)"/><ellipse cx="430.9" cy="425.7" rx="38.4"  ry="8.2" fill="#ffffff" opacity=".88"/><ellipse cx="569.1" cy="425.7" rx="38.4"  ry="8.2" fill="#ffffff" opacity=".88"/><line x1="484.9006297302991" y1="413.9922783345915" x2="514.6654849772714" y2="415.1890990993939" stroke="#ff2040" stroke-opacity=".52" stroke-width="2"/><line x1="483.08898562896997" y1="436.7490870052949" x2="517.0405349209346" y2="439.5845237790607" stroke="#ff2040" stroke-opacity=".52" stroke-width="2"/><line x1="501.0279024117626" y1="454.27857059929516" x2="501.64742482928557" y2="482.4216059813276" stroke="#ff2040" stroke-opacity=".58" stroke-width="2.2" filter="url(#skr1x664)"/><line x1="452.7349709150195" y1="492.7993744580075" x2="453.1906341370009" y2="520.719021659065" stroke="#ff2040" stroke-opacity=".52" stroke-width="1.5" filter="url(#skr1x664)"/><line x1="476.79512273514644" y1="490.1415600737556" x2="477.0052318902127" y2="520.5508896877989" stroke="#ff2040" stroke-opacity=".52" stroke-width="1.5" filter="url(#skr1x664)"/><line x1="499.18634048253296" y1="492.7327715184539" x2="499.0530177814886" y2="519.6147702825256" stroke="#ff2040" stroke-opacity=".52" stroke-width="1.5" filter="url(#skr1x664)"/><line x1="524.7415992714092" y1="490.86445733038704" x2="522.6996372313797" y2="519.673433090467" stroke="#ff2040" stroke-opacity=".52" stroke-width="1.5" filter="url(#skr1x664)"/><line x1="546.2948987941444" y1="489.81220589978614" x2="546.1164041787573" y2="521.260874206014" stroke="#ff2040" stroke-opacity=".52" stroke-width="1.5" filter="url(#skr1x664)"/><polygon points="434.0,502.7 568.4,504.9 554.9,558.5 444.8,555.6" fill="#cc0020" fill-opacity=".72" stroke="#ff2040" stroke-width="1.3" filter="url(#skr1x664)"/><polygon points="476.9,301.8 523.6,302.8 511.6,174.6 489.1,174.6" fill="url(#bevelr1x664)" stroke="#ff2040" stroke-width="2.2" filter="url(#skr1x664)"/><polygon points="366.7,323.6 458.6,324.1 469.0,229.0" fill="url(#bevelr1x664)" fill-opacity=".78" stroke="#ff2040" stroke-width="1.5" filter="url(#skr1x664)"/><polygon points="541.7,322.8 634.9,324.6 531.7,228.0" fill="url(#bevelr1x664)" fill-opacity=".78" stroke="#ff2040" stroke-width="1.5" filter="url(#skr1x664)"/><text x="30.0"  y="975.0" font-family="monospace" font-weight="bold" font-size="22.0" fill="rgba(255,255,255,.22)">#0001</text><text x="500.0"   y="975.0" text-anchor="middle" font-family="monospace" font-weight="bold" font-size="22.0" fill="#ff2040" fill-opacity=".48">CRIMSON RANGER</text><text x="970.0" y="975.0" text-anchor="end"    font-family="monospace" font-weight="bold" font-size="22.0" fill="#ff2040" fill-opacity=".32">MECH RANGERS</text></svg>