<svg xmlns="http://www.w3.org/2000/svg" viewBox="0 0 1000 1000" width="1000" height="1000" shape-rendering="geometricPrecision"><defs>

  <!-- Scene gradients -->
  <radialGradient id="bgr1x6707" cx="50%" cy="42%" r="72%">
    <stop offset="0%"   stop-color="#0e000e"/>
    <stop offset="100%" stop-color="#1e0600"/>
  </radialGradient>
  <linearGradient id="suitr1x6707" x1="8%" y1="0%" x2="92%" y2="100%">
    <stop offset="0%"   stop-color="#c0c0d0" stop-opacity=".95"/>
    <stop offset="45%"  stop-color="#2c2c3c"/>
    <stop offset="100%" stop-color="#1e0600"/>
  </linearGradient>
  <linearGradient id="suitHir1x6707" x1="0%" y1="0%" x2="0%" y2="100%">
    <stop offset="0%"   stop-color="rgba(255,255,255,.28)"/>
    <stop offset="60%"  stop-color="rgba(255,255,255,.04)"/>
    <stop offset="100%" stop-color="rgba(255,255,255,0)"/>
  </linearGradient>
  <!-- Bevel: bright top, dark bottom for armour panels -->
  <linearGradient id="bevelr1x6707" x1="0%" y1="0%" x2="0%" y2="100%">
    <stop offset="0%"   stop-color="rgba(255,255,255,.55)"/>
    <stop offset="30%"  stop-color="#c0c0d0"/>
    <stop offset="70%"  stop-color="#2c2c3c"/>
    <stop offset="100%" stop-color="rgba(0,0,0,.5)"/>
  </linearGradient>

  <!-- Weapon: cold steel blade sweep -->
  <linearGradient id="blader1x6707" x1="0%" y1="0%" x2="100%" y2="0%">
    <stop offset="0%"   stop-color="#0e0e20"/>
    <stop offset="16%"  stop-color="#3e3e58"/>
    <stop offset="34%"  stop-color="#c8c8e0"/>
    <stop offset="50%"  stop-color="#f5f5ff"/>
    <stop offset="66%"  stop-color="#b8b8d0"/>
    <stop offset="84%"  stop-color="#2e2e48"/>
    <stop offset="100%" stop-color="#08080e"/>
  </linearGradient>
  <!-- Blade tip brightening -->
  <linearGradient id="bladeTipr1x6707" x1="0%" y1="100%" x2="0%" y2="0%">
    <stop offset="0%"   stop-color="rgba(255,255,255,0)"/>
    <stop offset="55%"  stop-color="rgba(255,255,255,.1)"/>
    <stop offset="100%" stop-color="rgba(255,255,255,.55)"/>
  </linearGradient>
  <!-- Gunmetal anodised — blaster body -->
  <linearGradient id="gunmetalr1x6707" x1="0%" y1="0%" x2="0%" y2="100%">
    <stop offset="0%"   stop-color="#46465e"/>
    <stop offset="18%"  stop-color="#828296"/>
    <stop offset="42%"  stop-color="#26263a"/>
    <stop offset="72%"  stop-color="#16162a"/>
    <stop offset="100%" stop-color="#0c0c18"/>
  </linearGradient>
  <!-- Brushed steel tube — barrel/rod -->
  <linearGradient id="barrelr1x6707" x1="0%" y1="0%" x2="100%" y2="0%">
    <stop offset="0%"   stop-color="#0a0a14"/>
    <stop offset="24%"  stop-color="#585875"/>
    <stop offset="50%"  stop-color="#a8a8c8"/>
    <stop offset="76%"  stop-color="#383852"/>
    <stop offset="100%" stop-color="#0a0a14"/>
  </linearGradient>
  <!-- Chrome rod — lance shaft -->
  <linearGradient id="chromer1x6707" x1="0%" y1="0%" x2="100%" y2="0%">
    <stop offset="0%"   stop-color="#0c0c18"/>
    <stop offset="20%"  stop-color="#686888"/>
    <stop offset="44%"  stop-color="#e0e0f0"/>
    <stop offset="56%"  stop-color="#c0c0d8"/>
    <stop offset="80%"  stop-color="#28283e"/>
    <stop offset="100%" stop-color="#0c0c18"/>
  </linearGradient>
  <!-- Titanium plate — shield face -->
  <linearGradient id="titaniumr1x6707" x1="0%" y1="0%" x2="100%" y2="100%">
    <stop offset="0%"   stop-color="#585878"/>
    <stop offset="28%"  stop-color="#c0c0d0" stop-opacity=".88"/>
    <stop offset="55%"  stop-color="#2c2c3c"/>
    <stop offset="80%"  stop-color="#181828"/>
    <stop offset="100%" stop-color="#0a0a18"/>
  </linearGradient>
  <!-- Artillery black-chrome — cannon body -->
  <linearGradient id="artilleryr1x6707" x1="0%" y1="0%" x2="0%" y2="100%">
    <stop offset="0%"   stop-color="#383850"/>
    <stop offset="14%"  stop-color="#78789a"/>
    <stop offset="36%"  stop-color="#202034"/>
    <stop offset="65%"  stop-color="#14141e"/>
    <stop offset="100%" stop-color="#0a0a12"/>
  </linearGradient>
  <!-- Energy orb — staff -->
  <radialGradient id="orbr1x6707" cx="35%" cy="35%" r="65%">
    <stop offset="0%"   stop-color="rgba(255,255,255,.9)"/>
    <stop offset="30%"  stop-color="#c0c0d0"/>
    <stop offset="68%"  stop-color="#2c2c3c"/>
    <stop offset="100%" stop-color="rgba(0,0,0,.6)"/>
  </radialGradient>
  <!-- Knuckle plate chrome -->
  <linearGradient id="knuckler1x6707" x1="0%" y1="0%" x2="0%" y2="100%">
    <stop offset="0%"   stop-color="#888aaa"/>
    <stop offset="32%"  stop-color="#c0c0d0" stop-opacity=".8"/>
    <stop offset="62%"  stop-color="#1a1a2c"/>
    <stop offset="100%" stop-color="#0a0a14"/>
  </linearGradient>

  <!-- Carbon fibre weave texture overlay -->
  <pattern id="carbonr1x6707" width="6" height="6" patternUnits="userSpaceOnUse">
    <rect width="6" height="6" fill="rgba(0,0,0,.08)"/>
    <rect x="0" y="0" width="3" height="3" fill="rgba(255,255,255,.022)"/>
    <rect x="3" y="3" width="3" height="3" fill="rgba(255,255,255,.022)"/>
    <line x1="0" y1="0" x2="3" y2="3" stroke="rgba(255,255,255,.038)" stroke-width=".5"/>
    <line x1="3" y1="0" x2="6" y2="3" stroke="rgba(0,0,0,.055)"       stroke-width=".5"/>
    <line x1="0" y1="3" x2="3" y2="6" stroke="rgba(0,0,0,.055)"       stroke-width=".5"/>
    <line x1="3" y1="3" x2="6" y2="6" stroke="rgba(255,255,255,.038)" stroke-width=".5"/>
  </pattern>

  <!-- Specular metal sheen on armour panels -->
  <filter id="metalr1x6707" x="-5%" y="-5%" width="110%" height="110%">
    <feSpecularLighting surfaceScale="4" specularConstant="1.8"
        specularExponent="42" lighting-color="#ffffff" result="spec">
      <feDistantLight elevation="52" azimuth="38"/>
    </feSpecularLighting>
    <feComposite in="spec" in2="SourceGraphic" operator="in" result="sm"/>
    <feComposite in="SourceGraphic" in2="sm" operator="arithmetic" k1="0" k2="1" k3="0.55" k4="0"/>
  </filter>

  <!-- Sharper specular for weapons — heavier glare -->
  <filter id="wmr1x6707" x="-8%" y="-8%" width="116%" height="116%">
    <feSpecularLighting surfaceScale="6" specularConstant="2.4"
        specularExponent="65" lighting-color="#ffffff" result="spec">
      <feDistantLight elevation="44" azimuth="28"/>
    </feSpecularLighting>
    <feComposite in="spec" in2="SourceGraphic" operator="in" result="sm"/>
    <feComposite in="SourceGraphic" in2="sm" operator="arithmetic" k1="0" k2="1" k3="0.78" k4="0"/>
  </filter>

  <!-- Sketch wobble -->
  <filter id="skr1x6707" x="-8%" y="-8%" width="116%" height="116%">
    <feTurbulence type="fractalNoise" baseFrequency="0.038"
        numOctaves="3" seed="15" result="noise"/>
    <feDisplacementMap in="SourceGraphic" in2="noise" scale="2.6"
        xChannelSelector="R" yChannelSelector="G" result="w"/>
    <feComposite in="w" in2="SourceGraphic" operator="atop"/>
  </filter>

  <!-- Glow: sharp accent -->
  <filter id="glowr1x6707" x="-20%" y="-20%" width="140%" height="140%">
    <feGaussianBlur stdDeviation="3.5" result="b"/>
    <feColorMatrix in="b" type="matrix"
        values="0 0 0 0 1  0 0 0 0 1  0 0 0 0 1  0 0 0 1.8 0" result="boost"/>
    <feMerge><feMergeNode in="boost"/><feMergeNode in="SourceGraphic"/></feMerge>
  </filter>

  <!-- Bloom: wide soft -->
  <filter id="bloomr1x6707" x="-40%" y="-40%" width="180%" height="180%">
    <feGaussianBlur stdDeviation="11" result="b"/>
    <feMerge><feMergeNode in="b"/><feMergeNode in="SourceGraphic"/></feMerge>
  </filter>

  </defs><rect width="1000" height="1000" fill="url(#bgr1x6707)"/><ellipse cx="500.0" cy="1000" rx="850.0" ry="350.0" fill="#ff4500" fill-opacity=".11" filter="url(#bloomr1x6707)"/><ellipse cx="500.0" cy="892.0" rx="350.0" ry="65.0" fill="rgba(0,0,0,.7)" filter="url(#bloomr1x6707)"/><ellipse cx="500.0" cy="889.0" rx="220.0" ry="34.0" fill="rgba(0,0,0,.45)"/><ellipse cx="500.0" cy="520.0" rx="320.0" ry="480.0" fill="#ff6600" fill-opacity=".042" filter="url(#bloomr1x6707)"/><circle cx="369.9" cy="382.8" r="2.6" fill="#ff6600" fill-opacity="0.76" filter="url(#glowr1x6707)"/><circle cx="556.1" cy="759.2" r="0.5" fill="#ff6600" fill-opacity="0.76" filter="url(#glowr1x6707)"/><circle cx="530.9" cy="347.5" r="3.3" fill="#ff6600" fill-opacity="0.83" filter="url(#glowr1x6707)"/><circle cx="539.5" cy="613.2" r="1.1" fill="#ff6600" fill-opacity="0.54" filter="url(#glowr1x6707)"/><circle cx="550.7" cy="328.6" r="1.4" fill="#ff6600" fill-opacity="0.86" filter="url(#glowr1x6707)"/><circle cx="277.6" cy="798.1" r="0.7" fill="#ff6600" fill-opacity="0.53" filter="url(#glowr1x6707)"/><circle cx="523.2" cy="745.9" r="2.3" fill="#ff6600" fill-opacity="0.49" filter="url(#glowr1x6707)"/><circle cx="284.6" cy="187.0" r="3.7" fill="#ff6600" fill-opacity="0.45" filter="url(#glowr1x6707)"/><circle cx="723.0" cy="574.9" r="2.8" fill="#ff6600" fill-opacity="0.45" filter="url(#glowr1x6707)"/><circle cx="696.7" cy="604.8" r="2.1" fill="#ff6600" fill-opacity="0.76" filter="url(#glowr1x6707)"/><circle cx="525.9" cy="189.2" r="3.0" fill="#ff6600" fill-opacity="0.79" filter="url(#glowr1x6707)"/><circle cx="421.6" cy="650.6" r="3.2" fill="#ff6600" fill-opacity="0.73" filter="url(#glowr1x6707)"/><circle cx="320.1" cy="309.4" r="1.5" fill="#ff6600" fill-opacity="0.60" filter="url(#glowr1x6707)"/><circle cx="419.0" cy="450.5" r="0.5" fill="#ff6600" fill-opacity="0.72" filter="url(#glowr1x6707)"/><polygon points="398.1,661.5 489.4,662.3 481.0,875.8 385.7,878.9" fill="url(#suitr1x6707)" stroke="#c0c0d0" stroke-width="2.2" filter="url(#skr1x6707) url(#metalr1x6707)"/><polygon points="398.5,661.4 490.3,663.3 480.5,877.0 387.8,876.3" fill="url(#carbonr1x6707)"/><polygon points="393.9,724.1 493.2,723.1 482.9,788.4 385.5,787.8" fill="url(#bevelr1x6707)" fill-opacity=".5" stroke="#c0c0d0" stroke-width="1.4" filter="url(#skr1x6707)"/><polygon points="511.9,662.3 599.6,663.0 611.3,878.1 520.7,876.9" fill="url(#suitr1x6707)" stroke="#c0c0d0" stroke-width="2.2" filter="url(#skr1x6707) url(#metalr1x6707)"/><polygon points="508.8,663.5 602.7,660.8 613.2,877.4 519.0,876.2" fill="url(#carbonr1x6707)"/><polygon points="506.0,724.6 608.9,724.9 616.4,789.9 515.8,789.6" fill="url(#bevelr1x6707)" fill-opacity=".5" stroke="#c0c0d0" stroke-width="1.4" filter="url(#skr1x6707)"/><rect x="391.3" y="838.4" width="100.3" height="24.7" fill="url(#bevelr1x6707)" stroke="#c0c0d0" stroke-width="1" filter="url(#skr1x6707)"/><rect x="508.4"  y="837.4" width="100.3" height="24.7" fill="url(#bevelr1x6707)" stroke="#c0c0d0" stroke-width="1" filter="url(#skr1x6707)"/><polygon points="368.6,876.0 497.7,875.9 504.0,921.3 363.4,920.0" fill="#2c2c3c" stroke="#c0c0d0" stroke-width="2" filter="url(#skr1x6707)"/><polygon points="502.3,876.8 629.8,878.7 638.4,921.4 494.8,920.0" fill="#2c2c3c" stroke="#c0c0d0" stroke-width="2" filter="url(#skr1x6707)"/><polygon points="303.5,634.2 696.7,632.0 636.8,682.3 360.5,683.4" fill="#c0c0d0" fill-opacity=".52" stroke="#c0c0d0" stroke-width="2" filter="url(#skr1x6707)"/><rect x="463.9" y="637.0" width="72.0" height="42.0" fill="url(#bevelr1x6707)" stroke="#c0c0d0" stroke-width="1.4" filter="url(#glowr1x6707)"/><rect x="484.8" y="641.6" width="28.0" height="22.0" rx="1" fill="rgba(255,255,255,.48)"/><polygon points="152.6,468.2 235.9,466.2 256.5,736.0 129.7,736.3" fill="url(#suitr1x6707)" stroke="#c0c0d0" stroke-width="2.2" filter="url(#skr1x6707) url(#metalr1x6707)"/><polygon points="174.1,431.4 254.7,431.4 244.9,510.3 159.5,511.8" fill="url(#bevelr1x6707)" fill-opacity=".72" stroke="#c0c0d0" stroke-width="2.2" filter="url(#skr1x6707)"/><polygon points="162.3,620.5 242.5,622.5 240.5,659.7 164.0,659.2" fill="#c0c0d0" fill-opacity=".42" stroke="#c0c0d0" stroke-width="1" filter="url(#skr1x6707)"/><polygon points="765.2,466.3 845.8,467.3 871.3,734.0 743.8,734.2" fill="url(#suitr1x6707)" stroke="#c0c0d0" stroke-width="2.2" filter="url(#skr1x6707) url(#metalr1x6707)"/><polygon points="748.1,433.5 826.1,432.4 841.5,508.9 756.1,510.4" fill="url(#bevelr1x6707)" fill-opacity=".72" stroke="#c0c0d0" stroke-width="2.2" filter="url(#skr1x6707)"/><polygon points="757.2,622.1 837.3,621.2 835.2,661.1 760.2,660.0" fill="#c0c0d0" fill-opacity=".42" stroke="#c0c0d0" stroke-width="1" filter="url(#skr1x6707)"/><rect x="119.7"  y="698.5" width="135.3" height="85.0" rx="4" fill="url(#bevelr1x6707)" stroke="#c0c0d0" stroke-width="1.8" filter="url(#skr1x6707)"/><rect x="749.9"   y="698.3" width="135.3" height="85.0" rx="4" fill="url(#bevelr1x6707)" stroke="#c0c0d0" stroke-width="1.8" filter="url(#skr1x6707)"/><line x1="149.1" y1="702.2" x2="150.0" y2="785.0" stroke="#c0c0d0" stroke-opacity=".38" stroke-width="1"/><line x1="776.6" y1="701.9" x2="778.0" y2="784.5" stroke="#c0c0d0" stroke-opacity=".38" stroke-width="1"/><line x1="182.3" y1="702.3" x2="182.0" y2="783.8" stroke="#c0c0d0" stroke-opacity=".38" stroke-width="1"/><line x1="812.1" y1="703.2" x2="812.0" y2="785.3" stroke="#c0c0d0" stroke-opacity=".38" stroke-width="1"/><line x1="214.0" y1="701.2" x2="215.3" y2="782.1" stroke="#c0c0d0" stroke-opacity=".38" stroke-width="1"/><line x1="842.8" y1="700.2" x2="842.0" y2="782.7" stroke="#c0c0d0" stroke-opacity=".38" stroke-width="1"/><polygon points="234.1,418.1 764.4,416.9 724.0,663.1 277.1,662.3" fill="url(#suitr1x6707)" stroke="#c0c0d0" stroke-width="2.6" filter="url(#skr1x6707) url(#metalr1x6707)"/><polygon points="234.3,415.9 766.8,417.6 724.1,661.1 278.4,662.7" fill="url(#carbonr1x6707)"/><polygon points="367.8,416.7 630.9,418.0 610.0,515.6 389.3,514.8" fill="url(#suitHir1x6707)"/><line x1="360.6" y1="470.3" x2="638.1" y2="469.8" stroke="#c0c0d0" stroke-opacity=".52" stroke-width="1.3" filter="url(#skr1x6707)"/><line x1="398.8" y1="548.5" x2="600.9" y2="551.1" stroke="#c0c0d0" stroke-opacity=".52" stroke-width="1.3" filter="url(#skr1x6707)"/><line x1="268.0" y1="490.7" x2="321.0" y2="490.8" stroke="#c0c0d0" stroke-opacity=".62" stroke-width="1.8"/><line x1="681.9" y1="490.9" x2="734.5" y2="491.5" stroke="#c0c0d0" stroke-opacity=".62" stroke-width="1.8"/><line x1="265.9" y1="521.8" x2="318.1" y2="522.6" stroke="#c0c0d0" stroke-opacity=".62" stroke-width="1.8"/><line x1="680.0" y1="522.9" x2="731.8" y2="524.6" stroke="#c0c0d0" stroke-opacity=".62" stroke-width="1.8"/><line x1="267.7" y1="554.0" x2="318.7" y2="555.9" stroke="#c0c0d0" stroke-opacity=".62" stroke-width="1.8"/><line x1="681.0" y1="553.7" x2="732.3" y2="554.3" stroke="#c0c0d0" stroke-opacity=".62" stroke-width="1.8"/><line x1="268.2" y1="587.9" x2="319.4" y2="585.0" stroke="#c0c0d0" stroke-opacity=".62" stroke-width="1.8"/><line x1="678.7" y1="586.6" x2="734.5" y2="587.5" stroke="#c0c0d0" stroke-opacity=".62" stroke-width="1.8"/><g filter="url(#glowr1x6707)"><path d="M500.0,449.7 C462.3,446.8 442.0,481.6 447.8,513.5 L459.4,542.5 C476.8,536.7 491.3,551.2 500.0,551.2 C508.7,551.2 523.2,536.7 540.6,542.5 L552.2,513.5 C558.0,481.6 537.7,446.8 500.0,449.7 Z" fill="#c0c0d0" fill-opacity=".92" stroke="#1e0600" stroke-width="1.3" filter="url(#skr1x6707)"/><path d="M483.8,519.3 Q500.0,533.8 516.2,519.3" stroke="#1e0600" stroke-width="1" fill="none" opacity=".58"/><ellipse cx="481.4" cy="497.8" rx="8.7" ry="6.4" fill="#1e0600" opacity=".95"/><ellipse cx="518.6" cy="497.8" rx="8.7" ry="6.4" fill="#1e0600" opacity=".95"/><ellipse cx="481.4" cy="497.8" rx="2.3" ry="5.8" fill="#c0c0d0"/><ellipse cx="518.6" cy="497.8" rx="2.3" ry="5.8" fill="#c0c0d0"/><path d="M471.0,467.1 L458.2,426.5 L481.4,463.0" fill="#c0c0d0" stroke="#1e0600" stroke-width=".9"/><path d="M529.0,467.1 L541.8,426.5 L518.6,463.0" fill="#c0c0d0" stroke="#1e0600" stroke-width=".9"/><path d="M476.8,452.6 C488.4,449.1 511.6,449.1 523.2,452.6" fill="rgba(255,255,255,.18)"/></g><g><polygon points="871.8,671.4 923.8,671.4 908.2,-28.6 887.4,-28.6" fill="url(#blader1x6707)" filter="url(#wmr1x6707)"/><polygon points="887.4,-28.6 908.2,-28.6 897.8,-138.6" fill="url(#blader1x6707)" filter="url(#wmr1x6707)"/><polygon points="896.0,671.4 899.7,671.4 898.4,-128.6 897.3,-128.6" fill="url(#bladeTipr1x6707)" opacity=".9"/><line x1="908.055071300827" y1="671.4342899769545" x2="897.5395011806115" y2="-128.80781478257853" stroke="rgba(255,255,255,.68)" stroke-width="1.5"/><line x1="887.3350157935358" y1="672.0912635190413" x2="897.9808704917319" y2="-127.429038239643" stroke="#c0c0d0" stroke-width="1" stroke-opacity=".45"/><line x1="902.5" y1="651.4" x2="899.7" y2="11.4" stroke="rgba(0,0,0,.38)" stroke-width="1.6"/><line x1="893.2" y1="651.4" x2="896.0" y2="11.4" stroke="rgba(0,0,0,.38)" stroke-width="1.6"/><rect x="843.5299658645504" y="670.9575619474984" width="112.0" height="28.0" rx="3" fill="url(#bevelr1x6707)" stroke="#c0c0d0" stroke-width="1.6" filter="url(#wmr1x6707)"/><rect x="865.2235639718921" y="674.9330369330011" width="64.0" height="10.0" rx="1" fill="rgba(255,255,255,.32)"/><rect x="886.1846145753376" y="677.9828372782096" width="24.0" height="6.0" rx="1" fill="#c0c0d0" fill-opacity=".35"/><rect x="884.6340713753924" y="684.7158783813007" width="24.0" height="6.0" rx="1" fill="#c0c0d0" fill-opacity=".35"/><rect x="885.2011035550945" y="694.6993479906581" width="24.0" height="6.0" rx="1" fill="#c0c0d0" fill-opacity=".35"/><rect x="885.1624867944606" y="699.7697890182026" width="24.0" height="6.0" rx="1" fill="#c0c0d0" fill-opacity=".35"/><rect x="885.7799705043063" y="709.8999009690248" width="24.0" height="6.0" rx="1" fill="#c0c0d0" fill-opacity=".35"/><rect x="887.4442291413993" y="716.7964949753135" width="24.0" height="6.0" rx="1" fill="#c0c0d0" fill-opacity=".35"/><ellipse cx="897.3550360082277" cy="726.3703434879891" rx="22.0" ry="16.0" fill="url(#bevelr1x6707)" stroke="#c0c0d0" stroke-width="1.2" filter="url(#wmr1x6707)"/></g><rect x="448.9909999298863" y="555.3599924282171" width="100.0"  height="56.0" fill="#2c2c3c" stroke="#c0c0d0" stroke-width="2.2" filter="url(#skr1x6707)"/><rect x="425.566884305235" y="575.3902993388474" width="152.0" height="26.0" fill="url(#bevelr1x6707)" fill-opacity=".65" stroke="#c0c0d0" stroke-width="1.2" filter="url(#skr1x6707)"/><polygon points="309.6,380.2 349.0,294.9 499.7,277.8 651.5,294.4 690.8,379.0 668.5,502.3 500.8,565.4 332.4,504.0" fill="url(#suitr1x6707)" stroke="#c0c0d0" stroke-width="2.8" filter="url(#skr1x6707) url(#metalr1x6707)"/><polygon points="309.3,379.7 351.6,296.3 501.8,276.8 648.8,292.8 690.5,380.0 668.2,502.1 500.6,565.3 332.7,504.1" fill="url(#carbonr1x6707)"/><polygon points="379.6,303.8 501.8,285.0 618.0,300.9 607.2,381.4 391.2,379.4" fill="url(#suitHir1x6707)"/><polygon points="380.8,379.0 365.0,424.5 433.3,502.2 498.4,529.7 567.2,505.3 634.6,424.6 619.9,380.7" fill="#1e0600" fill-opacity=".88" stroke="#c0c0d0" stroke-width="1.8" filter="url(#skr1x6707)"/><polygon points="381.8,410.5 478.6,410.8 486.2,440.5 387.8,441.0" fill="#c0c0d0" filter="url(#glowr1x6707)"/><polygon points="524.2,410.5 618.9,411.3 611.5,438.3 516.3,440.9" fill="#c0c0d0" filter="url(#glowr1x6707)"/><ellipse cx="430.9" cy="425.7" rx="38.4"  ry="8.2" fill="#ffffff" opacity=".88"/><ellipse cx="569.1" cy="425.7" rx="38.4"  ry="8.2" fill="#ffffff" opacity=".88"/><line x1="484.2801085981168" y1="412.12683608578516" x2="514.8480947022699" y2="412.3971672822721" stroke="#c0c0d0" stroke-opacity=".52" stroke-width="2"/><line x1="483.31803350146856" y1="438.0403966829181" x2="515.9956394913048" y2="438.89263885002583" stroke="#c0c0d0" stroke-opacity=".52" stroke-width="2"/><line x1="500.304549084045" y1="455.10933570107443" x2="501.3845451757312" y2="483.77726553538815" stroke="#c0c0d0" stroke-opacity=".58" stroke-width="2.2" filter="url(#skr1x6707)"/><line x1="453.616416478511" y1="492.00988521948454" x2="455.22291751800105" y2="518.5780381987803" stroke="#c0c0d0" stroke-opacity=".52" stroke-width="1.5" filter="url(#skr1x6707)"/><line x1="477.39807304129005" y1="490.0426130412146" x2="477.56586429573593" y2="521.1970733786002" stroke="#c0c0d0" stroke-opacity=".52" stroke-width="1.5" filter="url(#skr1x6707)"/><line x1="499.23722696136684" y1="492.11569390594957" x2="501.217041063495" y2="519.3246514871716" stroke="#c0c0d0" stroke-opacity=".52" stroke-width="1.5" filter="url(#skr1x6707)"/><line x1="521.6258845704235" y1="490.15571407061066" x2="522.1913698933646" y2="519.8645634491928" stroke="#c0c0d0" stroke-opacity=".52" stroke-width="1.5" filter="url(#skr1x6707)"/><line x1="546.9289102449269" y1="490.5140578177757" x2="546.7443610212953" y2="521.0368309809826" stroke="#c0c0d0" stroke-opacity=".52" stroke-width="1.5" filter="url(#skr1x6707)"/><polygon points="431.4,504.0 567.3,503.9 554.0,557.1 445.3,558.6" fill="#2c2c3c" fill-opacity=".72" stroke="#c0c0d0" stroke-width="1.3" filter="url(#skr1x6707)"/><path d="M396.2392802088335 347.0305859032087 C343.4323857001402 154.74159130649645 450.5942634833231 229.0785738805309 473.61011757437143 320.4029126923531" fill="#c0c0d0" stroke="#c0c0d0" stroke-width="2.8" filter="url(#skr1x6707)"/><path d="M602.3864824528061 348.9084839970805 C656.2220201088675 153.40468261465432 548.5444954687542 230.6475340252742 524.5642883337475 321.91723312810063" fill="#c0c0d0" stroke="#c0c0d0" stroke-width="2.8" filter="url(#skr1x6707)"/><path d="M393.1687820406817 425.26261590840295 L461.15763347381727 392.49893758343535 L500.37676600776615 426.9792837101966 L536.7402894648723 391.235139588546 L607.9325358256511 425.605801145453" stroke="#c0c0d0" stroke-width="2.2" fill="none" filter="url(#skr1x6707)"/><text x="30.0"  y="975.0" font-family="monospace" font-weight="bold" font-size="22.0" fill="rgba(255,255,255,.22)">#0001</text><text x="500.0"   y="975.0" text-anchor="middle" font-family="monospace" font-weight="bold" font-size="22.0" fill="#c0c0d0" fill-opacity=".48">CHROME RANGER</text><text x="970.0" y="975.0" text-anchor="end"    font-family="monospace" font-weight="bold" font-size="22.0" fill="#c0c0d0" fill-opacity=".32">MECH RANGERS</text></svg>