<svg xmlns="http://www.w3.org/2000/svg" viewBox="0 0 1000 1000" width="1000" height="1000" shape-rendering="geometricPrecision"><defs>

  <!-- Scene gradients -->
  <radialGradient id="bgr1x6763" cx="50%" cy="42%" r="72%">
    <stop offset="0%"   stop-color="#1e0a2e"/>
    <stop offset="100%" stop-color="#0a0520"/>
  </radialGradient>
  <linearGradient id="suitr1x6763" x1="8%" y1="0%" x2="92%" y2="100%">
    <stop offset="0%"   stop-color="#2060ff" stop-opacity=".95"/>
    <stop offset="45%"  stop-color="#003ccc"/>
    <stop offset="100%" stop-color="#0a0520"/>
  </linearGradient>
  <linearGradient id="suitHir1x6763" x1="0%" y1="0%" x2="0%" y2="100%">
    <stop offset="0%"   stop-color="rgba(255,255,255,.28)"/>
    <stop offset="60%"  stop-color="rgba(255,255,255,.04)"/>
    <stop offset="100%" stop-color="rgba(255,255,255,0)"/>
  </linearGradient>
  <!-- Bevel: bright top, dark bottom for armour panels -->
  <linearGradient id="bevelr1x6763" x1="0%" y1="0%" x2="0%" y2="100%">
    <stop offset="0%"   stop-color="rgba(255,255,255,.55)"/>
    <stop offset="30%"  stop-color="#2060ff"/>
    <stop offset="70%"  stop-color="#003ccc"/>
    <stop offset="100%" stop-color="rgba(0,0,0,.5)"/>
  </linearGradient>

  <!-- Weapon: cold steel blade sweep -->
  <linearGradient id="blader1x6763" x1="0%" y1="0%" x2="100%" y2="0%">
    <stop offset="0%"   stop-color="#0e0e20"/>
    <stop offset="16%"  stop-color="#3e3e58"/>
    <stop offset="34%"  stop-color="#c8c8e0"/>
    <stop offset="50%"  stop-color="#f5f5ff"/>
    <stop offset="66%"  stop-color="#b8b8d0"/>
    <stop offset="84%"  stop-color="#2e2e48"/>
    <stop offset="100%" stop-color="#08080e"/>
  </linearGradient>
  <!-- Blade tip brightening -->
  <linearGradient id="bladeTipr1x6763" x1="0%" y1="100%" x2="0%" y2="0%">
    <stop offset="0%"   stop-color="rgba(255,255,255,0)"/>
    <stop offset="55%"  stop-color="rgba(255,255,255,.1)"/>
    <stop offset="100%" stop-color="rgba(255,255,255,.55)"/>
  </linearGradient>
  <!-- Gunmetal anodised — blaster body -->
  <linearGradient id="gunmetalr1x6763" x1="0%" y1="0%" x2="0%" y2="100%">
    <stop offset="0%"   stop-color="#46465e"/>
    <stop offset="18%"  stop-color="#828296"/>
    <stop offset="42%"  stop-color="#26263a"/>
    <stop offset="72%"  stop-color="#16162a"/>
    <stop offset="100%" stop-color="#0c0c18"/>
  </linearGradient>
  <!-- Brushed steel tube — barrel/rod -->
  <linearGradient id="barrelr1x6763" x1="0%" y1="0%" x2="100%" y2="0%">
    <stop offset="0%"   stop-color="#0a0a14"/>
    <stop offset="24%"  stop-color="#585875"/>
    <stop offset="50%"  stop-color="#a8a8c8"/>
    <stop offset="76%"  stop-color="#383852"/>
    <stop offset="100%" stop-color="#0a0a14"/>
  </linearGradient>
  <!-- Chrome rod — lance shaft -->
  <linearGradient id="chromer1x6763" x1="0%" y1="0%" x2="100%" y2="0%">
    <stop offset="0%"   stop-color="#0c0c18"/>
    <stop offset="20%"  stop-color="#686888"/>
    <stop offset="44%"  stop-color="#e0e0f0"/>
    <stop offset="56%"  stop-color="#c0c0d8"/>
    <stop offset="80%"  stop-color="#28283e"/>
    <stop offset="100%" stop-color="#0c0c18"/>
  </linearGradient>
  <!-- Titanium plate — shield face -->
  <linearGradient id="titaniumr1x6763" x1="0%" y1="0%" x2="100%" y2="100%">
    <stop offset="0%"   stop-color="#585878"/>
    <stop offset="28%"  stop-color="#2060ff" stop-opacity=".88"/>
    <stop offset="55%"  stop-color="#003ccc"/>
    <stop offset="80%"  stop-color="#181828"/>
    <stop offset="100%" stop-color="#0a0a18"/>
  </linearGradient>
  <!-- Artillery black-chrome — cannon body -->
  <linearGradient id="artilleryr1x6763" x1="0%" y1="0%" x2="0%" y2="100%">
    <stop offset="0%"   stop-color="#383850"/>
    <stop offset="14%"  stop-color="#78789a"/>
    <stop offset="36%"  stop-color="#202034"/>
    <stop offset="65%"  stop-color="#14141e"/>
    <stop offset="100%" stop-color="#0a0a12"/>
  </linearGradient>
  <!-- Energy orb — staff -->
  <radialGradient id="orbr1x6763" cx="35%" cy="35%" r="65%">
    <stop offset="0%"   stop-color="rgba(255,255,255,.9)"/>
    <stop offset="30%"  stop-color="#2060ff"/>
    <stop offset="68%"  stop-color="#003ccc"/>
    <stop offset="100%" stop-color="rgba(0,0,0,.6)"/>
  </radialGradient>
  <!-- Knuckle plate chrome -->
  <linearGradient id="knuckler1x6763" x1="0%" y1="0%" x2="0%" y2="100%">
    <stop offset="0%"   stop-color="#888aaa"/>
    <stop offset="32%"  stop-color="#2060ff" stop-opacity=".8"/>
    <stop offset="62%"  stop-color="#1a1a2c"/>
    <stop offset="100%" stop-color="#0a0a14"/>
  </linearGradient>

  <!-- Carbon fibre weave texture overlay -->
  <pattern id="carbonr1x6763" width="6" height="6" patternUnits="userSpaceOnUse">
    <rect width="6" height="6" fill="rgba(0,0,0,.08)"/>
    <rect x="0" y="0" width="3" height="3" fill="rgba(255,255,255,.022)"/>
    <rect x="3" y="3" width="3" height="3" fill="rgba(255,255,255,.022)"/>
    <line x1="0" y1="0" x2="3" y2="3" stroke="rgba(255,255,255,.038)" stroke-width=".5"/>
    <line x1="3" y1="0" x2="6" y2="3" stroke="rgba(0,0,0,.055)"       stroke-width=".5"/>
    <line x1="0" y1="3" x2="3" y2="6" stroke="rgba(0,0,0,.055)"       stroke-width=".5"/>
    <line x1="3" y1="3" x2="6" y2="6" stroke="rgba(255,255,255,.038)" stroke-width=".5"/>
  </pattern>

  <!-- Specular metal sheen on armour panels -->
  <filter id="metalr1x6763" x="-5%" y="-5%" width="110%" height="110%">
    <feSpecularLighting surfaceScale="4" specularConstant="1.8"
        specularExponent="42" lighting-color="#ffffff" result="spec">
      <feDistantLight elevation="52" azimuth="38"/>
    </feSpecularLighting>
    <feComposite in="spec" in2="SourceGraphic" operator="in" result="sm"/>
    <feComposite in="SourceGraphic" in2="sm" operator="arithmetic" k1="0" k2="1" k3="0.55" k4="0"/>
  </filter>

  <!-- Sharper specular for weapons — heavier glare -->
  <filter id="wmr1x6763" x="-8%" y="-8%" width="116%" height="116%">
    <feSpecularLighting surfaceScale="6" specularConstant="2.4"
        specularExponent="65" lighting-color="#ffffff" result="spec">
      <feDistantLight elevation="44" azimuth="28"/>
    </feSpecularLighting>
    <feComposite in="spec" in2="SourceGraphic" operator="in" result="sm"/>
    <feComposite in="SourceGraphic" in2="sm" operator="arithmetic" k1="0" k2="1" k3="0.78" k4="0"/>
  </filter>

  <!-- Sketch wobble -->
  <filter id="skr1x6763" x="-8%" y="-8%" width="116%" height="116%">
    <feTurbulence type="fractalNoise" baseFrequency="0.038"
        numOctaves="3" seed="89" result="noise"/>
    <feDisplacementMap in="SourceGraphic" in2="noise" scale="2.6"
        xChannelSelector="R" yChannelSelector="G" result="w"/>
    <feComposite in="w" in2="SourceGraphic" operator="atop"/>
  </filter>

  <!-- Glow: sharp accent -->
  <filter id="glowr1x6763" x="-20%" y="-20%" width="140%" height="140%">
    <feGaussianBlur stdDeviation="3.5" result="b"/>
    <feColorMatrix in="b" type="matrix"
        values="0 0 0 0 1  0 0 0 0 1  0 0 0 0 1  0 0 0 1.8 0" result="boost"/>
    <feMerge><feMergeNode in="boost"/><feMergeNode in="SourceGraphic"/></feMerge>
  </filter>

  <!-- Bloom: wide soft -->
  <filter id="bloomr1x6763" x="-40%" y="-40%" width="180%" height="180%">
    <feGaussianBlur stdDeviation="11" result="b"/>
    <feMerge><feMergeNode in="b"/><feMergeNode in="SourceGraphic"/></feMerge>
  </filter>

  </defs><rect width="1000" height="1000" fill="url(#bgr1x6763)"/><ellipse cx="500.0" cy="892.0" rx="350.0" ry="65.0" fill="rgba(0,0,0,.7)" filter="url(#bloomr1x6763)"/><ellipse cx="500.0" cy="889.0" rx="220.0" ry="34.0" fill="rgba(0,0,0,.45)"/><ellipse cx="500.0" cy="520.0" rx="320.0" ry="480.0" fill="#ff6600" fill-opacity=".042" filter="url(#bloomr1x6763)"/><circle cx="572.6" cy="356.4" r="2.9" fill="#ff6600" fill-opacity="0.67" filter="url(#glowr1x6763)"/><circle cx="694.7" cy="795.3" r="3.1" fill="#ff6600" fill-opacity="0.46" filter="url(#glowr1x6763)"/><circle cx="715.2" cy="371.7" r="3.2" fill="#ff6600" fill-opacity="0.89" filter="url(#glowr1x6763)"/><circle cx="286.0" cy="752.9" r="3.2" fill="#ff6600" fill-opacity="0.47" filter="url(#glowr1x6763)"/><circle cx="463.2" cy="618.2" r="3.0" fill="#ff6600" fill-opacity="0.43" filter="url(#glowr1x6763)"/><circle cx="456.7" cy="382.9" r="4.0" fill="#ff6600" fill-opacity="0.71" filter="url(#glowr1x6763)"/><circle cx="417.5" cy="547.2" r="4.0" fill="#ff6600" fill-opacity="0.49" filter="url(#glowr1x6763)"/><circle cx="275.2" cy="523.9" r="1.4" fill="#ff6600" fill-opacity="0.73" filter="url(#glowr1x6763)"/><circle cx="268.8" cy="331.4" r="1.8" fill="#ff6600" fill-opacity="0.86" filter="url(#glowr1x6763)"/><circle cx="559.1" cy="286.2" r="1.1" fill="#ff6600" fill-opacity="0.44" filter="url(#glowr1x6763)"/><circle cx="520.5" cy="636.0" r="2.6" fill="#ff6600" fill-opacity="0.50" filter="url(#glowr1x6763)"/><circle cx="559.6" cy="792.2" r="4.0" fill="#ff6600" fill-opacity="0.46" filter="url(#glowr1x6763)"/><circle cx="583.3" cy="219.4" r="3.5" fill="#ff6600" fill-opacity="0.41" filter="url(#glowr1x6763)"/><circle cx="253.4" cy="416.3" r="2.3" fill="#ff6600" fill-opacity="0.73" filter="url(#glowr1x6763)"/><polygon points="399.9,663.7 490.3,662.5 480.3,878.1 386.4,877.6" fill="url(#suitr1x6763)" stroke="#2060ff" stroke-width="2.2" filter="url(#skr1x6763) url(#metalr1x6763)"/><polygon points="400.6,662.6 490.5,664.1 480.9,878.2 388.4,879.0" fill="url(#carbonr1x6763)"/><polygon points="394.3,724.6 491.8,725.4 485.5,787.4 384.2,787.2" fill="url(#bevelr1x6763)" fill-opacity=".5" stroke="#2060ff" stroke-width="1.4" filter="url(#skr1x6763)"/><polygon points="509.9,661.8 599.9,662.6 611.5,875.9 518.2,876.6" fill="url(#suitr1x6763)" stroke="#2060ff" stroke-width="2.2" filter="url(#skr1x6763) url(#metalr1x6763)"/><polygon points="509.1,661.4 602.0,660.9 611.0,877.8 520.9,876.5" fill="url(#carbonr1x6763)"/><polygon points="507.7,722.4 607.1,724.1 614.7,788.3 515.1,789.1" fill="url(#bevelr1x6763)" fill-opacity=".5" stroke="#2060ff" stroke-width="1.4" filter="url(#skr1x6763)"/><rect x="391.0" y="840.3" width="100.3" height="24.7" fill="url(#bevelr1x6763)" stroke="#2060ff" stroke-width="1" filter="url(#skr1x6763)"/><rect x="508.2"  y="839.8" width="100.3" height="24.7" fill="url(#bevelr1x6763)" stroke="#2060ff" stroke-width="1" filter="url(#skr1x6763)"/><polygon points="371.3,878.4 497.6,877.4 504.3,920.4 363.1,921.3" fill="#003ccc" stroke="#2060ff" stroke-width="2" filter="url(#skr1x6763)"/><polygon points="502.1,878.0 629.3,877.4 636.4,923.1 497.4,922.0" fill="#003ccc" stroke="#2060ff" stroke-width="2" filter="url(#skr1x6763)"/><polygon points="303.0,632.8 695.1,633.7 637.4,681.2 362.0,680.7" fill="#2060ff" fill-opacity=".52" stroke="#2060ff" stroke-width="2" filter="url(#skr1x6763)"/><rect x="464.3" y="636.7" width="72.0" height="42.0" fill="url(#bevelr1x6763)" stroke="#2060ff" stroke-width="1.4" filter="url(#glowr1x6763)"/><rect x="485.8" y="639.5" width="28.0" height="22.0" rx="1" fill="rgba(255,255,255,.48)"/><polygon points="153.2,465.7 235.3,466.2 256.5,734.9 128.8,734.8" fill="url(#suitr1x6763)" stroke="#2060ff" stroke-width="2.2" filter="url(#skr1x6763) url(#metalr1x6763)"/><polygon points="173.8,430.4 253.6,431.3 244.8,508.9 160.9,512.0" fill="url(#bevelr1x6763)" fill-opacity=".72" stroke="#2060ff" stroke-width="2.2" filter="url(#skr1x6763)"/><polygon points="162.6,622.1 244.8,622.4 237.6,659.6 163.8,659.2" fill="#2060ff" fill-opacity=".42" stroke="#2060ff" stroke-width="1" filter="url(#skr1x6763)"/><polygon points="766.0,467.4 845.7,468.1 873.0,733.4 741.6,734.3" fill="url(#suitr1x6763)" stroke="#2060ff" stroke-width="2.2" filter="url(#skr1x6763) url(#metalr1x6763)"/><polygon points="748.4,432.9 826.1,430.9 841.4,511.9 757.9,511.0" fill="url(#bevelr1x6763)" fill-opacity=".72" stroke="#2060ff" stroke-width="2.2" filter="url(#skr1x6763)"/><polygon points="756.1,622.4 839.6,620.6 833.0,659.4 761.6,662.6" fill="#2060ff" fill-opacity=".42" stroke="#2060ff" stroke-width="1" filter="url(#skr1x6763)"/><rect x="119.1"  y="701.1" width="135.3" height="85.0" rx="4" fill="url(#bevelr1x6763)" stroke="#2060ff" stroke-width="1.8" filter="url(#skr1x6763)"/><rect x="747.4"   y="700.6" width="135.3" height="85.0" rx="4" fill="url(#bevelr1x6763)" stroke="#2060ff" stroke-width="1.8" filter="url(#skr1x6763)"/><line x1="149.5" y1="703.0" x2="148.1" y2="784.7" stroke="#2060ff" stroke-opacity=".38" stroke-width="1"/><line x1="779.3" y1="700.5" x2="778.4" y2="785.2" stroke="#2060ff" stroke-opacity=".38" stroke-width="1"/><line x1="180.8" y1="701.2" x2="181.5" y2="783.9" stroke="#2060ff" stroke-opacity=".38" stroke-width="1"/><line x1="810.4" y1="702.9" x2="810.8" y2="784.9" stroke="#2060ff" stroke-opacity=".38" stroke-width="1"/><line x1="215.7" y1="702.4" x2="213.6" y2="784.6" stroke="#2060ff" stroke-opacity=".38" stroke-width="1"/><line x1="844.7" y1="702.2" x2="842.0" y2="785.6" stroke="#2060ff" stroke-opacity=".38" stroke-width="1"/><polygon points="233.5,417.7 763.9,417.4 721.8,663.3 278.3,661.9" fill="url(#suitr1x6763)" stroke="#2060ff" stroke-width="2.6" filter="url(#skr1x6763) url(#metalr1x6763)"/><polygon points="236.5,417.6 764.4,417.6 723.0,661.8 276.0,662.7" fill="url(#carbonr1x6763)"/><polygon points="368.7,418.4 631.5,419.1 612.3,514.6 388.4,514.1" fill="url(#suitHir1x6763)"/><line x1="361.9" y1="472.0" x2="639.3" y2="472.0" stroke="#2060ff" stroke-opacity=".52" stroke-width="1.3" filter="url(#skr1x6763)"/><line x1="398.0" y1="548.3" x2="599.3" y2="549.7" stroke="#2060ff" stroke-opacity=".52" stroke-width="1.3" filter="url(#skr1x6763)"/><line x1="265.6" y1="489.4" x2="318.1" y2="489.4" stroke="#2060ff" stroke-opacity=".62" stroke-width="1.8"/><line x1="680.6" y1="492.3" x2="732.3" y2="490.3" stroke="#2060ff" stroke-opacity=".62" stroke-width="1.8"/><line x1="267.8" y1="523.7" x2="320.0" y2="522.5" stroke="#2060ff" stroke-opacity=".62" stroke-width="1.8"/><line x1="678.5" y1="523.4" x2="731.5" y2="521.6" stroke="#2060ff" stroke-opacity=".62" stroke-width="1.8"/><line x1="266.9" y1="553.4" x2="320.0" y2="553.7" stroke="#2060ff" stroke-opacity=".62" stroke-width="1.8"/><line x1="679.9" y1="554.2" x2="733.4" y2="554.7" stroke="#2060ff" stroke-opacity=".62" stroke-width="1.8"/><line x1="266.8" y1="585.0" x2="321.1" y2="587.0" stroke="#2060ff" stroke-opacity=".62" stroke-width="1.8"/><line x1="679.3" y1="586.1" x2="733.5" y2="586.8" stroke="#2060ff" stroke-opacity=".62" stroke-width="1.8"/><g filter="url(#glowr1x6763)"><ellipse cx="500.3" cy="508.8" rx="42.9" ry="23.2" fill="#0a0520" stroke="#2060ff" stroke-width="1.6" filter="url(#skr1x6763)"/><circle cx="501.3" cy="511.8" r="15.1" fill="#2060ff"/><circle cx="495.5" cy="505.3" r="5.8" fill="#0a0520"/><ellipse cx="495.9" cy="505.2" rx="3.5" ry="2.3" fill="rgba(255,255,255,.7)"/></g><g><polygon points="827.4,291.7 969.4,293.1 967.4,590.6 897.1,725.5 828.0,592.9" fill="url(#titaniumr1x6763)" stroke="#2060ff" stroke-width="2.6" filter="url(#wmr1x6763)"/><polygon points="828.2,291.7 968.4,291.7 967.3,591.6 896.7,725.8 827.5,590.5" fill="url(#carbonr1x6763)"/><polygon points="858.7,360.8 935.7,361.2 936.4,541.6 897.5,632.1 859.0,540.7" fill="#2060ff" fill-opacity=".28" stroke="#2060ff" stroke-width="1.5"/><line x1="844.0677591634542" y1="430.61796950111165" x2="949.6256153140777" y2="432.1445355143398" stroke="#2060ff" stroke-opacity=".65" stroke-width="1.3"/><line x1="897.7610203799419" y1="331.62519767712797" x2="897.9480361973494" y2="590.7448680953122" stroke="#2060ff" stroke-opacity=".4" stroke-width="1"/><line x1="829.98748203801" y1="294.8118679331615" x2="964.7644208075106" y2="296.412708268594" stroke="rgba(255,255,255,.5)" stroke-width="2"/><circle cx="896.3263398780115" cy="431.97545298663897" r="18.0" fill="url(#bevelr1x6763)" stroke="#2060ff" stroke-width="1.2" filter="url(#wmr1x6763)"/></g><rect x="451.70276942197233" y="556.9854699665681" width="100.0"  height="56.0" fill="#003ccc" stroke="#2060ff" stroke-width="2.2" filter="url(#skr1x6763)"/><rect x="424.02961902813985" y="575.091461184062" width="152.0" height="26.0" fill="url(#bevelr1x6763)" fill-opacity=".65" stroke="#2060ff" stroke-width="1.2" filter="url(#skr1x6763)"/><polygon points="308.8,379.3 351.9,294.8 500.5,277.6 649.7,294.8 690.2,381.6 668.4,502.1 499.2,564.9 329.9,505.1" fill="url(#suitr1x6763)" stroke="#2060ff" stroke-width="2.8" filter="url(#skr1x6763) url(#metalr1x6763)"/><polygon points="309.0,380.8 348.8,293.1 501.8,278.2 648.4,294.9 693.7,379.7 670.7,504.9 501.7,566.5 329.3,505.1" fill="url(#carbonr1x6763)"/><polygon points="379.2,302.1 499.8,287.7 620.1,304.0 606.7,382.1 392.5,380.2" fill="url(#suitHir1x6763)"/><polygon points="382.2,380.0 365.0,425.2 431.1,502.8 498.9,528.8 565.6,503.8 632.8,425.3 619.5,379.3" fill="#0a0520" fill-opacity=".88" stroke="#2060ff" stroke-width="1.8" filter="url(#skr1x6763)"/><polygon points="381.9,411.2 477.1,410.5 483.2,441.6 389.9,440.8" fill="#2060ff" filter="url(#glowr1x6763)"/><polygon points="524.1,412.7 617.4,409.6 613.0,440.8 514.2,440.3" fill="#2060ff" filter="url(#glowr1x6763)"/><ellipse cx="430.9" cy="425.7" rx="38.4"  ry="8.2" fill="#ffffff" opacity=".88"/><ellipse cx="569.1" cy="425.7" rx="38.4"  ry="8.2" fill="#ffffff" opacity=".88"/><line x1="485.642484145388" y1="414.101128111314" x2="515.0415499092452" y2="412.37941493522374" stroke="#2060ff" stroke-opacity=".52" stroke-width="2"/><line x1="482.8900999671407" y1="437.4918753513135" x2="516.788441838827" y2="439.31620959201825" stroke="#2060ff" stroke-opacity=".52" stroke-width="2"/><line x1="498.2007596963085" y1="455.90430623739957" x2="500.5764383397065" y2="484.7538845080883" stroke="#2060ff" stroke-opacity=".58" stroke-width="2.2" filter="url(#skr1x6763)"/><line x1="455.58313650058585" y1="490.71658673752097" x2="454.97852087372917" y2="519.0106773419305" stroke="#2060ff" stroke-opacity=".52" stroke-width="1.5" filter="url(#skr1x6763)"/><line x1="475.2742814016901" y1="492.06181495273484" x2="476.324029419329" y2="521.1710196256638" stroke="#2060ff" stroke-opacity=".52" stroke-width="1.5" filter="url(#skr1x6763)"/><line x1="498.4194598050788" y1="489.65707596857095" x2="501.53853568192574" y2="521.7197131399996" stroke="#2060ff" stroke-opacity=".52" stroke-width="1.5" filter="url(#skr1x6763)"/><line x1="522.350328283999" y1="491.94797469060865" x2="524.8358060795441" y2="521.4443332885392" stroke="#2060ff" stroke-opacity=".52" stroke-width="1.5" filter="url(#skr1x6763)"/><line x1="546.9089824344218" y1="490.0827962915413" x2="547.0696507592872" y2="518.6561799562536" stroke="#2060ff" stroke-opacity=".52" stroke-width="1.5" filter="url(#skr1x6763)"/><polygon points="431.9,502.8 567.4,503.0 555.5,558.2 446.0,558.1" fill="#003ccc" fill-opacity=".72" stroke="#2060ff" stroke-width="1.3" filter="url(#skr1x6763)"/><text x="30.0"  y="975.0" font-family="monospace" font-weight="bold" font-size="22.0" fill="rgba(255,255,255,.22)">#0001</text><text x="500.0"   y="975.0" text-anchor="middle" font-family="monospace" font-weight="bold" font-size="22.0" fill="#2060ff" fill-opacity=".48">COBALT RANGER</text><text x="970.0" y="975.0" text-anchor="end"    font-family="monospace" font-weight="bold" font-size="22.0" fill="#2060ff" fill-opacity=".32">MECH RANGERS</text></svg>