<svg xmlns="http://www.w3.org/2000/svg" viewBox="0 0 1000 1000" width="1000" height="1000" shape-rendering="geometricPrecision"><defs>

  <!-- Scene gradients -->
  <radialGradient id="bgr1x6781" cx="50%" cy="42%" r="72%">
    <stop offset="0%"   stop-color="#001422"/>
    <stop offset="100%" stop-color="#000a14"/>
  </radialGradient>
  <linearGradient id="suitr1x6781" x1="8%" y1="0%" x2="92%" y2="100%">
    <stop offset="0%"   stop-color="#ff44aa" stop-opacity=".95"/>
    <stop offset="45%"  stop-color="#880050"/>
    <stop offset="100%" stop-color="#000a14"/>
  </linearGradient>
  <linearGradient id="suitHir1x6781" x1="0%" y1="0%" x2="0%" y2="100%">
    <stop offset="0%"   stop-color="rgba(255,255,255,.28)"/>
    <stop offset="60%"  stop-color="rgba(255,255,255,.04)"/>
    <stop offset="100%" stop-color="rgba(255,255,255,0)"/>
  </linearGradient>
  <!-- Bevel: bright top, dark bottom for armour panels -->
  <linearGradient id="bevelr1x6781" x1="0%" y1="0%" x2="0%" y2="100%">
    <stop offset="0%"   stop-color="rgba(255,255,255,.55)"/>
    <stop offset="30%"  stop-color="#ff44aa"/>
    <stop offset="70%"  stop-color="#880050"/>
    <stop offset="100%" stop-color="rgba(0,0,0,.5)"/>
  </linearGradient>

  <!-- Weapon: cold steel blade sweep -->
  <linearGradient id="blader1x6781" x1="0%" y1="0%" x2="100%" y2="0%">
    <stop offset="0%"   stop-color="#0e0e20"/>
    <stop offset="16%"  stop-color="#3e3e58"/>
    <stop offset="34%"  stop-color="#c8c8e0"/>
    <stop offset="50%"  stop-color="#f5f5ff"/>
    <stop offset="66%"  stop-color="#b8b8d0"/>
    <stop offset="84%"  stop-color="#2e2e48"/>
    <stop offset="100%" stop-color="#08080e"/>
  </linearGradient>
  <!-- Blade tip brightening -->
  <linearGradient id="bladeTipr1x6781" x1="0%" y1="100%" x2="0%" y2="0%">
    <stop offset="0%"   stop-color="rgba(255,255,255,0)"/>
    <stop offset="55%"  stop-color="rgba(255,255,255,.1)"/>
    <stop offset="100%" stop-color="rgba(255,255,255,.55)"/>
  </linearGradient>
  <!-- Gunmetal anodised — blaster body -->
  <linearGradient id="gunmetalr1x6781" x1="0%" y1="0%" x2="0%" y2="100%">
    <stop offset="0%"   stop-color="#46465e"/>
    <stop offset="18%"  stop-color="#828296"/>
    <stop offset="42%"  stop-color="#26263a"/>
    <stop offset="72%"  stop-color="#16162a"/>
    <stop offset="100%" stop-color="#0c0c18"/>
  </linearGradient>
  <!-- Brushed steel tube — barrel/rod -->
  <linearGradient id="barrelr1x6781" x1="0%" y1="0%" x2="100%" y2="0%">
    <stop offset="0%"   stop-color="#0a0a14"/>
    <stop offset="24%"  stop-color="#585875"/>
    <stop offset="50%"  stop-color="#a8a8c8"/>
    <stop offset="76%"  stop-color="#383852"/>
    <stop offset="100%" stop-color="#0a0a14"/>
  </linearGradient>
  <!-- Chrome rod — lance shaft -->
  <linearGradient id="chromer1x6781" x1="0%" y1="0%" x2="100%" y2="0%">
    <stop offset="0%"   stop-color="#0c0c18"/>
    <stop offset="20%"  stop-color="#686888"/>
    <stop offset="44%"  stop-color="#e0e0f0"/>
    <stop offset="56%"  stop-color="#c0c0d8"/>
    <stop offset="80%"  stop-color="#28283e"/>
    <stop offset="100%" stop-color="#0c0c18"/>
  </linearGradient>
  <!-- Titanium plate — shield face -->
  <linearGradient id="titaniumr1x6781" x1="0%" y1="0%" x2="100%" y2="100%">
    <stop offset="0%"   stop-color="#585878"/>
    <stop offset="28%"  stop-color="#ff44aa" stop-opacity=".88"/>
    <stop offset="55%"  stop-color="#880050"/>
    <stop offset="80%"  stop-color="#181828"/>
    <stop offset="100%" stop-color="#0a0a18"/>
  </linearGradient>
  <!-- Artillery black-chrome — cannon body -->
  <linearGradient id="artilleryr1x6781" x1="0%" y1="0%" x2="0%" y2="100%">
    <stop offset="0%"   stop-color="#383850"/>
    <stop offset="14%"  stop-color="#78789a"/>
    <stop offset="36%"  stop-color="#202034"/>
    <stop offset="65%"  stop-color="#14141e"/>
    <stop offset="100%" stop-color="#0a0a12"/>
  </linearGradient>
  <!-- Energy orb — staff -->
  <radialGradient id="orbr1x6781" cx="35%" cy="35%" r="65%">
    <stop offset="0%"   stop-color="rgba(255,255,255,.9)"/>
    <stop offset="30%"  stop-color="#ff44aa"/>
    <stop offset="68%"  stop-color="#880050"/>
    <stop offset="100%" stop-color="rgba(0,0,0,.6)"/>
  </radialGradient>
  <!-- Knuckle plate chrome -->
  <linearGradient id="knuckler1x6781" x1="0%" y1="0%" x2="0%" y2="100%">
    <stop offset="0%"   stop-color="#888aaa"/>
    <stop offset="32%"  stop-color="#ff44aa" stop-opacity=".8"/>
    <stop offset="62%"  stop-color="#1a1a2c"/>
    <stop offset="100%" stop-color="#0a0a14"/>
  </linearGradient>

  <!-- Carbon fibre weave texture overlay -->
  <pattern id="carbonr1x6781" width="6" height="6" patternUnits="userSpaceOnUse">
    <rect width="6" height="6" fill="rgba(0,0,0,.08)"/>
    <rect x="0" y="0" width="3" height="3" fill="rgba(255,255,255,.022)"/>
    <rect x="3" y="3" width="3" height="3" fill="rgba(255,255,255,.022)"/>
    <line x1="0" y1="0" x2="3" y2="3" stroke="rgba(255,255,255,.038)" stroke-width=".5"/>
    <line x1="3" y1="0" x2="6" y2="3" stroke="rgba(0,0,0,.055)"       stroke-width=".5"/>
    <line x1="0" y1="3" x2="3" y2="6" stroke="rgba(0,0,0,.055)"       stroke-width=".5"/>
    <line x1="3" y1="3" x2="6" y2="6" stroke="rgba(255,255,255,.038)" stroke-width=".5"/>
  </pattern>

  <!-- Specular metal sheen on armour panels -->
  <filter id="metalr1x6781" x="-5%" y="-5%" width="110%" height="110%">
    <feSpecularLighting surfaceScale="4" specularConstant="1.8"
        specularExponent="42" lighting-color="#ffffff" result="spec">
      <feDistantLight elevation="52" azimuth="38"/>
    </feSpecularLighting>
    <feComposite in="spec" in2="SourceGraphic" operator="in" result="sm"/>
    <feComposite in="SourceGraphic" in2="sm" operator="arithmetic" k1="0" k2="1" k3="0.55" k4="0"/>
  </filter>

  <!-- Sharper specular for weapons — heavier glare -->
  <filter id="wmr1x6781" x="-8%" y="-8%" width="116%" height="116%">
    <feSpecularLighting surfaceScale="6" specularConstant="2.4"
        specularExponent="65" lighting-color="#ffffff" result="spec">
      <feDistantLight elevation="44" azimuth="28"/>
    </feSpecularLighting>
    <feComposite in="spec" in2="SourceGraphic" operator="in" result="sm"/>
    <feComposite in="SourceGraphic" in2="sm" operator="arithmetic" k1="0" k2="1" k3="0.78" k4="0"/>
  </filter>

  <!-- Sketch wobble -->
  <filter id="skr1x6781" x="-8%" y="-8%" width="116%" height="116%">
    <feTurbulence type="fractalNoise" baseFrequency="0.038"
        numOctaves="3" seed="46" result="noise"/>
    <feDisplacementMap in="SourceGraphic" in2="noise" scale="2.6"
        xChannelSelector="R" yChannelSelector="G" result="w"/>
    <feComposite in="w" in2="SourceGraphic" operator="atop"/>
  </filter>

  <!-- Glow: sharp accent -->
  <filter id="glowr1x6781" x="-20%" y="-20%" width="140%" height="140%">
    <feGaussianBlur stdDeviation="3.5" result="b"/>
    <feColorMatrix in="b" type="matrix"
        values="0 0 0 0 1  0 0 0 0 1  0 0 0 0 1  0 0 0 1.8 0" result="boost"/>
    <feMerge><feMergeNode in="boost"/><feMergeNode in="SourceGraphic"/></feMerge>
  </filter>

  <!-- Bloom: wide soft -->
  <filter id="bloomr1x6781" x="-40%" y="-40%" width="180%" height="180%">
    <feGaussianBlur stdDeviation="11" result="b"/>
    <feMerge><feMergeNode in="b"/><feMergeNode in="SourceGraphic"/></feMerge>
  </filter>

  </defs><rect width="1000" height="1000" fill="url(#bgr1x6781)"/><line x1="0" y1="1.0" x2="1000" y2="-2.7" stroke="#ff44aa" stroke-opacity=".055" stroke-width="1.2"/><line x1="1.8" y1="0" x2="-0.1" y2="1000" stroke="#ff44aa" stroke-opacity=".055" stroke-width="1.2"/><line x1="0" y1="99.3" x2="1000" y2="98.4" stroke="#ff44aa" stroke-opacity=".055" stroke-width="1.2"/><line x1="97.7" y1="0" x2="101.7" y2="1000" stroke="#ff44aa" stroke-opacity=".055" stroke-width="1.2"/><line x1="0" y1="198.9" x2="1000" y2="202.2" stroke="#ff44aa" stroke-opacity=".055" stroke-width="1.2"/><line x1="200.7" y1="0" x2="197.3" y2="1000" stroke="#ff44aa" stroke-opacity=".055" stroke-width="1.2"/><line x1="0" y1="300.5" x2="1000" y2="302.4" stroke="#ff44aa" stroke-opacity=".055" stroke-width="1.2"/><line x1="297.1" y1="0" x2="298.2" y2="1000" stroke="#ff44aa" stroke-opacity=".055" stroke-width="1.2"/><line x1="0" y1="400.1" x2="1000" y2="398.5" stroke="#ff44aa" stroke-opacity=".055" stroke-width="1.2"/><line x1="402.7" y1="0" x2="399.3" y2="1000" stroke="#ff44aa" stroke-opacity=".055" stroke-width="1.2"/><line x1="0" y1="498.1" x2="1000" y2="497.1" stroke="#ff44aa" stroke-opacity=".055" stroke-width="1.2"/><line x1="499.0" y1="0" x2="502.5" y2="1000" stroke="#ff44aa" stroke-opacity=".055" stroke-width="1.2"/><line x1="0" y1="599.5" x2="1000" y2="601.5" stroke="#ff44aa" stroke-opacity=".055" stroke-width="1.2"/><line x1="597.7" y1="0" x2="602.8" y2="1000" stroke="#ff44aa" stroke-opacity=".055" stroke-width="1.2"/><line x1="0" y1="698.6" x2="1000" y2="698.0" stroke="#ff44aa" stroke-opacity=".055" stroke-width="1.2"/><line x1="700.3" y1="0" x2="697.2" y2="1000" stroke="#ff44aa" stroke-opacity=".055" stroke-width="1.2"/><line x1="0" y1="798.4" x2="1000" y2="802.8" stroke="#ff44aa" stroke-opacity=".055" stroke-width="1.2"/><line x1="801.9" y1="0" x2="798.9" y2="1000" stroke="#ff44aa" stroke-opacity=".055" stroke-width="1.2"/><line x1="0" y1="897.6" x2="1000" y2="900.6" stroke="#ff44aa" stroke-opacity=".055" stroke-width="1.2"/><line x1="897.5" y1="0" x2="901.6" y2="1000" stroke="#ff44aa" stroke-opacity=".055" stroke-width="1.2"/><path d="M80,30 L30,30 L30,80" stroke="#ff44aa" stroke-opacity=".45" stroke-width="2" fill="none" filter="url(#glowr1x6781)"/><path d="M920,30 L970,30 L970,80" stroke="#ff44aa" stroke-opacity=".45" stroke-width="2" fill="none" filter="url(#glowr1x6781)"/><path d="M30,920 L30,970 L80,970" stroke="#ff44aa" stroke-opacity=".45" stroke-width="2" fill="none" filter="url(#glowr1x6781)"/><path d="M970,920 L970,970 L920,970" stroke="#ff44aa" stroke-opacity=".45" stroke-width="2" fill="none" filter="url(#glowr1x6781)"/><ellipse cx="500.0" cy="892.0" rx="350.0" ry="65.0" fill="rgba(0,0,0,.7)" filter="url(#bloomr1x6781)"/><ellipse cx="500.0" cy="889.0" rx="220.0" ry="34.0" fill="rgba(0,0,0,.45)"/><polygon points="397.1,663.8 491.2,662.0 479.0,875.9 385.9,877.7" fill="url(#suitr1x6781)" stroke="#ff44aa" stroke-width="2.2" filter="url(#skr1x6781) url(#metalr1x6781)"/><polygon points="399.2,662.3 488.6,661.9 481.5,877.1 387.7,876.2" fill="url(#carbonr1x6781)"/><polygon points="391.8,723.9 491.3,723.7 484.6,789.7 384.2,789.3" fill="url(#bevelr1x6781)" fill-opacity=".5" stroke="#ff44aa" stroke-width="1.4" filter="url(#skr1x6781)"/><polygon points="510.8,664.1 602.0,662.3 614.2,877.0 520.4,878.0" fill="url(#suitr1x6781)" stroke="#ff44aa" stroke-width="2.2" filter="url(#skr1x6781) url(#metalr1x6781)"/><polygon points="510.6,662.2 601.7,664.3 613.4,876.7 520.6,877.2" fill="url(#carbonr1x6781)"/><polygon points="508.7,724.6 606.1,723.8 617.0,789.1 517.1,789.5" fill="url(#bevelr1x6781)" fill-opacity=".5" stroke="#ff44aa" stroke-width="1.4" filter="url(#skr1x6781)"/><rect x="394.0" y="838.6" width="100.3" height="24.7" fill="url(#bevelr1x6781)" stroke="#ff44aa" stroke-width="1" filter="url(#skr1x6781)"/><rect x="507.1"  y="839.6" width="100.3" height="24.7" fill="url(#bevelr1x6781)" stroke="#ff44aa" stroke-width="1" filter="url(#skr1x6781)"/><polygon points="368.1,876.7 497.6,877.1 503.2,921.5 363.9,921.3" fill="#880050" stroke="#ff44aa" stroke-width="2" filter="url(#skr1x6781)"/><polygon points="502.0,877.0 631.2,878.5 638.7,920.1 495.4,920.3" fill="#880050" stroke="#ff44aa" stroke-width="2" filter="url(#skr1x6781)"/><polygon points="305.3,633.0 695.3,631.5 638.8,682.2 361.4,683.0" fill="#ff44aa" fill-opacity=".52" stroke="#ff44aa" stroke-width="2" filter="url(#skr1x6781)"/><rect x="462.5" y="637.0" width="72.0" height="42.0" fill="url(#bevelr1x6781)" stroke="#ff44aa" stroke-width="1.4" filter="url(#glowr1x6781)"/><rect x="485.6" y="641.1" width="28.0" height="22.0" rx="1" fill="rgba(255,255,255,.48)"/><polygon points="154.5,466.7 233.3,466.6 257.1,735.1 127.3,734.3" fill="url(#suitr1x6781)" stroke="#ff44aa" stroke-width="2.2" filter="url(#skr1x6781) url(#metalr1x6781)"/><polygon points="173.4,431.5 251.6,432.7 242.8,509.7 160.9,509.3" fill="url(#bevelr1x6781)" fill-opacity=".72" stroke="#ff44aa" stroke-width="2.2" filter="url(#skr1x6781)"/><polygon points="160.8,620.9 243.8,622.1 238.0,662.2 166.5,659.5" fill="#ff44aa" fill-opacity=".42" stroke="#ff44aa" stroke-width="1" filter="url(#skr1x6781)"/><polygon points="765.4,465.0 847.8,465.5 870.4,733.3 743.3,735.6" fill="url(#suitr1x6781)" stroke="#ff44aa" stroke-width="2.2" filter="url(#skr1x6781) url(#metalr1x6781)"/><polygon points="746.0,430.9 825.2,430.8 842.0,512.3 757.9,510.8" fill="url(#bevelr1x6781)" fill-opacity=".72" stroke="#ff44aa" stroke-width="2.2" filter="url(#skr1x6781)"/><polygon points="758.2,620.2 837.1,620.7 834.4,659.8 761.0,662.3" fill="#ff44aa" fill-opacity=".42" stroke="#ff44aa" stroke-width="1" filter="url(#skr1x6781)"/><rect x="121.0"  y="701.5" width="135.3" height="85.0" rx="4" fill="url(#bevelr1x6781)" stroke="#ff44aa" stroke-width="1.8" filter="url(#skr1x6781)"/><rect x="749.2"   y="700.4" width="135.3" height="85.0" rx="4" fill="url(#bevelr1x6781)" stroke="#ff44aa" stroke-width="1.8" filter="url(#skr1x6781)"/><line x1="148.2" y1="703.6" x2="148.5" y2="784.0" stroke="#ff44aa" stroke-opacity=".38" stroke-width="1"/><line x1="778.0" y1="702.7" x2="777.7" y2="784.1" stroke="#ff44aa" stroke-opacity=".38" stroke-width="1"/><line x1="184.2" y1="701.7" x2="180.9" y2="784.6" stroke="#ff44aa" stroke-opacity=".38" stroke-width="1"/><line x1="810.7" y1="700.6" x2="812.1" y2="785.5" stroke="#ff44aa" stroke-opacity=".38" stroke-width="1"/><line x1="216.2" y1="701.4" x2="215.2" y2="783.0" stroke="#ff44aa" stroke-opacity=".38" stroke-width="1"/><line x1="844.5" y1="703.3" x2="845.2" y2="782.4" stroke="#ff44aa" stroke-opacity=".38" stroke-width="1"/><polygon points="233.9,417.6 765.1,417.2 723.0,663.6 278.6,664.0" fill="url(#suitr1x6781)" stroke="#ff44aa" stroke-width="2.6" filter="url(#skr1x6781) url(#metalr1x6781)"/><polygon points="234.8,417.2 766.7,416.5 723.0,661.8 276.3,662.6" fill="url(#carbonr1x6781)"/><polygon points="365.8,419.0 634.0,416.9 611.3,517.1 387.2,514.2" fill="url(#suitHir1x6781)"/><line x1="360.8" y1="470.8" x2="638.5" y2="471.9" stroke="#ff44aa" stroke-opacity=".52" stroke-width="1.3" filter="url(#skr1x6781)"/><line x1="397.6" y1="549.9" x2="601.1" y2="550.2" stroke="#ff44aa" stroke-opacity=".52" stroke-width="1.3" filter="url(#skr1x6781)"/><line x1="267.5" y1="490.4" x2="319.7" y2="491.1" stroke="#ff44aa" stroke-opacity=".62" stroke-width="1.8"/><line x1="678.5" y1="489.9" x2="732.1" y2="491.0" stroke="#ff44aa" stroke-opacity=".62" stroke-width="1.8"/><line x1="268.3" y1="522.6" x2="321.2" y2="521.3" stroke="#ff44aa" stroke-opacity=".62" stroke-width="1.8"/><line x1="680.6" y1="523.5" x2="734.6" y2="523.7" stroke="#ff44aa" stroke-opacity=".62" stroke-width="1.8"/><line x1="265.3" y1="554.3" x2="321.2" y2="555.5" stroke="#ff44aa" stroke-opacity=".62" stroke-width="1.8"/><line x1="679.0" y1="556.3" x2="733.7" y2="556.1" stroke="#ff44aa" stroke-opacity=".62" stroke-width="1.8"/><line x1="265.7" y1="587.1" x2="320.7" y2="587.1" stroke="#ff44aa" stroke-opacity=".62" stroke-width="1.8"/><line x1="681.7" y1="587.3" x2="732.0" y2="586.7" stroke="#ff44aa" stroke-opacity=".62" stroke-width="1.8"/><g filter="url(#glowr1x6781)"><polygon points="481.2,453.0 513.1,507.1 498.8,507.3 516.7,567.1 488.8,516.1 500.9,514.0" fill="#ff44aa" stroke="#000a14" stroke-width="1.4" filter="url(#skr1x6781)"/><polygon points="482.9,453.3 512.1,507.6 501.6,505.5 517.5,567.4 488.0,514.5 499.2,514.7" fill="url(#suitHir1x6781)" opacity=".4"/></g><g><polygon points="33.4,294.6 173.8,294.6 173.3,593.0 102.6,724.8 31.7,592.2" fill="url(#titaniumr1x6781)" stroke="#ff44aa" stroke-width="2.6" filter="url(#wmr1x6781)"/><polygon points="31.2,292.9 170.8,291.9 170.4,589.7 102.2,725.8 33.1,592.6" fill="url(#carbonr1x6781)"/><polygon points="62.4,362.2 138.4,360.3 141.9,540.5 101.3,632.7 63.7,541.9" fill="#ff44aa" fill-opacity=".28" stroke="#ff44aa" stroke-width="1.5"/><line x1="49.53630266631019" y1="430.13289979761464" x2="154.74863030569625" y2="430.114710304141" stroke="#ff44aa" stroke-opacity=".65" stroke-width="1.3"/><line x1="103.84925865991038" y1="333.02522905431687" x2="101.65557686597106" y2="593.0798096750863" stroke="#ff44aa" stroke-opacity=".4" stroke-width="1"/><line x1="34.49798832297322" y1="294.7465093307197" x2="169.69865283597258" y2="295.238083493337" stroke="rgba(255,255,255,.5)" stroke-width="2"/><circle cx="102.75415140245107" cy="430.23172139832747" r="18.0" fill="url(#bevelr1x6781)" stroke="#ff44aa" stroke-width="1.2" filter="url(#wmr1x6781)"/></g><rect x="450.8073982609436" y="555.5749663518742" width="100.0"  height="56.0" fill="#880050" stroke="#ff44aa" stroke-width="2.2" filter="url(#skr1x6781)"/><rect x="422.768920104485" y="576.2849720593542" width="152.0" height="26.0" fill="url(#bevelr1x6781)" fill-opacity=".65" stroke="#ff44aa" stroke-width="1.2" filter="url(#skr1x6781)"/><polygon points="308.2,382.3 348.8,296.3 500.2,276.5 649.7,294.6 693.6,380.4 668.0,502.1 499.0,566.5 330.4,503.4" fill="url(#suitr1x6781)" stroke="#ff44aa" stroke-width="2.8" filter="url(#skr1x6781) url(#metalr1x6781)"/><polygon points="307.5,379.5 351.3,296.0 500.7,279.4 649.7,295.3 693.5,381.2 668.9,503.3 499.6,566.2 331.7,505.4" fill="url(#carbonr1x6781)"/><polygon points="379.6,304.3 500.9,287.8 620.8,302.8 608.0,378.8 392.2,382.4" fill="url(#suitHir1x6781)"/><polygon points="381.5,381.3 365.6,425.1 431.7,504.7 500.5,528.0 566.7,503.6 635.8,424.3 619.2,380.5" fill="#000a14" fill-opacity=".88" stroke="#ff44aa" stroke-width="1.8" filter="url(#skr1x6781)"/><polygon points="382.2,412.6 475.8,410.6 485.7,441.1 389.7,438.9" fill="#ff44aa" filter="url(#glowr1x6781)"/><polygon points="524.2,409.9 620.5,411.5 612.8,441.2 514.1,440.5" fill="#ff44aa" filter="url(#glowr1x6781)"/><ellipse cx="430.9" cy="425.7" rx="38.4"  ry="8.2" fill="#ffffff" opacity=".88"/><ellipse cx="569.1" cy="425.7" rx="38.4"  ry="8.2" fill="#ffffff" opacity=".88"/><line x1="485.0467094842903" y1="414.5624120405875" x2="516.813715416789" y2="412.8726094437763" stroke="#ff44aa" stroke-opacity=".52" stroke-width="2"/><line x1="484.2794521500915" y1="438.2886659600772" x2="516.8220775353163" y2="436.84188917744905" stroke="#ff44aa" stroke-opacity=".52" stroke-width="2"/><line x1="501.1110249852762" y1="453.54380818204953" x2="500.2674597551115" y2="483.9749001855962" stroke="#ff44aa" stroke-opacity=".58" stroke-width="2.2" filter="url(#skr1x6781)"/><line x1="455.08811267267913" y1="492.9524876362644" x2="453.64188655342906" y2="520.642158479616" stroke="#ff44aa" stroke-opacity=".52" stroke-width="1.5" filter="url(#skr1x6781)"/><line x1="478.1018447948061" y1="490.3165087476372" x2="475.6172142445482" y2="518.3293868635781" stroke="#ff44aa" stroke-opacity=".52" stroke-width="1.5" filter="url(#skr1x6781)"/><line x1="501.5172085101716" y1="490.0776063755154" x2="499.66500943787395" y2="519.5931088513695" stroke="#ff44aa" stroke-opacity=".52" stroke-width="1.5" filter="url(#skr1x6781)"/><line x1="521.4444614630751" y1="492.8933979497291" x2="523.8222545144706" y2="519.4786935135722" stroke="#ff44aa" stroke-opacity=".52" stroke-width="1.5" filter="url(#skr1x6781)"/><line x1="544.8059436612018" y1="490.7042068115435" x2="545.927619421035" y2="518.4788106750697" stroke="#ff44aa" stroke-opacity=".52" stroke-width="1.5" filter="url(#skr1x6781)"/><polygon points="432.0,504.1 568.9,501.9 554.6,556.5 444.6,556.1" fill="#880050" fill-opacity=".72" stroke="#ff44aa" stroke-width="1.3" filter="url(#skr1x6781)"/><text x="30.0"  y="975.0" font-family="monospace" font-weight="bold" font-size="22.0" fill="rgba(255,255,255,.22)">#0001</text><text x="500.0"   y="975.0" text-anchor="middle" font-family="monospace" font-weight="bold" font-size="22.0" fill="#ff44aa" fill-opacity=".48">SAKURA RANGER</text><text x="970.0" y="975.0" text-anchor="end"    font-family="monospace" font-weight="bold" font-size="22.0" fill="#ff44aa" fill-opacity=".32">MECH RANGERS</text></svg>