<svg xmlns="http://www.w3.org/2000/svg" viewBox="0 0 1000 1000" width="1000" height="1000" shape-rendering="geometricPrecision"><defs>

  <!-- Scene gradients -->
  <radialGradient id="bgr1x679" cx="50%" cy="42%" r="72%">
    <stop offset="0%"   stop-color="#0e000e"/>
    <stop offset="100%" stop-color="#1e0600"/>
  </radialGradient>
  <linearGradient id="suitr1x679" x1="8%" y1="0%" x2="92%" y2="100%">
    <stop offset="0%"   stop-color="#4444ff" stop-opacity=".95"/>
    <stop offset="45%"  stop-color="#141428"/>
    <stop offset="100%" stop-color="#1e0600"/>
  </linearGradient>
  <linearGradient id="suitHir1x679" x1="0%" y1="0%" x2="0%" y2="100%">
    <stop offset="0%"   stop-color="rgba(255,255,255,.28)"/>
    <stop offset="60%"  stop-color="rgba(255,255,255,.04)"/>
    <stop offset="100%" stop-color="rgba(255,255,255,0)"/>
  </linearGradient>
  <!-- Bevel: bright top, dark bottom for armour panels -->
  <linearGradient id="bevelr1x679" x1="0%" y1="0%" x2="0%" y2="100%">
    <stop offset="0%"   stop-color="rgba(255,255,255,.55)"/>
    <stop offset="30%"  stop-color="#4444ff"/>
    <stop offset="70%"  stop-color="#141428"/>
    <stop offset="100%" stop-color="rgba(0,0,0,.5)"/>
  </linearGradient>

  <!-- Weapon: cold steel blade sweep -->
  <linearGradient id="blader1x679" x1="0%" y1="0%" x2="100%" y2="0%">
    <stop offset="0%"   stop-color="#0e0e20"/>
    <stop offset="16%"  stop-color="#3e3e58"/>
    <stop offset="34%"  stop-color="#c8c8e0"/>
    <stop offset="50%"  stop-color="#f5f5ff"/>
    <stop offset="66%"  stop-color="#b8b8d0"/>
    <stop offset="84%"  stop-color="#2e2e48"/>
    <stop offset="100%" stop-color="#08080e"/>
  </linearGradient>
  <!-- Blade tip brightening -->
  <linearGradient id="bladeTipr1x679" x1="0%" y1="100%" x2="0%" y2="0%">
    <stop offset="0%"   stop-color="rgba(255,255,255,0)"/>
    <stop offset="55%"  stop-color="rgba(255,255,255,.1)"/>
    <stop offset="100%" stop-color="rgba(255,255,255,.55)"/>
  </linearGradient>
  <!-- Gunmetal anodised — blaster body -->
  <linearGradient id="gunmetalr1x679" x1="0%" y1="0%" x2="0%" y2="100%">
    <stop offset="0%"   stop-color="#46465e"/>
    <stop offset="18%"  stop-color="#828296"/>
    <stop offset="42%"  stop-color="#26263a"/>
    <stop offset="72%"  stop-color="#16162a"/>
    <stop offset="100%" stop-color="#0c0c18"/>
  </linearGradient>
  <!-- Brushed steel tube — barrel/rod -->
  <linearGradient id="barrelr1x679" x1="0%" y1="0%" x2="100%" y2="0%">
    <stop offset="0%"   stop-color="#0a0a14"/>
    <stop offset="24%"  stop-color="#585875"/>
    <stop offset="50%"  stop-color="#a8a8c8"/>
    <stop offset="76%"  stop-color="#383852"/>
    <stop offset="100%" stop-color="#0a0a14"/>
  </linearGradient>
  <!-- Chrome rod — lance shaft -->
  <linearGradient id="chromer1x679" x1="0%" y1="0%" x2="100%" y2="0%">
    <stop offset="0%"   stop-color="#0c0c18"/>
    <stop offset="20%"  stop-color="#686888"/>
    <stop offset="44%"  stop-color="#e0e0f0"/>
    <stop offset="56%"  stop-color="#c0c0d8"/>
    <stop offset="80%"  stop-color="#28283e"/>
    <stop offset="100%" stop-color="#0c0c18"/>
  </linearGradient>
  <!-- Titanium plate — shield face -->
  <linearGradient id="titaniumr1x679" x1="0%" y1="0%" x2="100%" y2="100%">
    <stop offset="0%"   stop-color="#585878"/>
    <stop offset="28%"  stop-color="#4444ff" stop-opacity=".88"/>
    <stop offset="55%"  stop-color="#141428"/>
    <stop offset="80%"  stop-color="#181828"/>
    <stop offset="100%" stop-color="#0a0a18"/>
  </linearGradient>
  <!-- Artillery black-chrome — cannon body -->
  <linearGradient id="artilleryr1x679" x1="0%" y1="0%" x2="0%" y2="100%">
    <stop offset="0%"   stop-color="#383850"/>
    <stop offset="14%"  stop-color="#78789a"/>
    <stop offset="36%"  stop-color="#202034"/>
    <stop offset="65%"  stop-color="#14141e"/>
    <stop offset="100%" stop-color="#0a0a12"/>
  </linearGradient>
  <!-- Energy orb — staff -->
  <radialGradient id="orbr1x679" cx="35%" cy="35%" r="65%">
    <stop offset="0%"   stop-color="rgba(255,255,255,.9)"/>
    <stop offset="30%"  stop-color="#4444ff"/>
    <stop offset="68%"  stop-color="#141428"/>
    <stop offset="100%" stop-color="rgba(0,0,0,.6)"/>
  </radialGradient>
  <!-- Knuckle plate chrome -->
  <linearGradient id="knuckler1x679" x1="0%" y1="0%" x2="0%" y2="100%">
    <stop offset="0%"   stop-color="#888aaa"/>
    <stop offset="32%"  stop-color="#4444ff" stop-opacity=".8"/>
    <stop offset="62%"  stop-color="#1a1a2c"/>
    <stop offset="100%" stop-color="#0a0a14"/>
  </linearGradient>

  <!-- Carbon fibre weave texture overlay -->
  <pattern id="carbonr1x679" width="6" height="6" patternUnits="userSpaceOnUse">
    <rect width="6" height="6" fill="rgba(0,0,0,.08)"/>
    <rect x="0" y="0" width="3" height="3" fill="rgba(255,255,255,.022)"/>
    <rect x="3" y="3" width="3" height="3" fill="rgba(255,255,255,.022)"/>
    <line x1="0" y1="0" x2="3" y2="3" stroke="rgba(255,255,255,.038)" stroke-width=".5"/>
    <line x1="3" y1="0" x2="6" y2="3" stroke="rgba(0,0,0,.055)"       stroke-width=".5"/>
    <line x1="0" y1="3" x2="3" y2="6" stroke="rgba(0,0,0,.055)"       stroke-width=".5"/>
    <line x1="3" y1="3" x2="6" y2="6" stroke="rgba(255,255,255,.038)" stroke-width=".5"/>
  </pattern>

  <!-- Specular metal sheen on armour panels -->
  <filter id="metalr1x679" x="-5%" y="-5%" width="110%" height="110%">
    <feSpecularLighting surfaceScale="4" specularConstant="1.8"
        specularExponent="42" lighting-color="#ffffff" result="spec">
      <feDistantLight elevation="52" azimuth="38"/>
    </feSpecularLighting>
    <feComposite in="spec" in2="SourceGraphic" operator="in" result="sm"/>
    <feComposite in="SourceGraphic" in2="sm" operator="arithmetic" k1="0" k2="1" k3="0.55" k4="0"/>
  </filter>

  <!-- Sharper specular for weapons — heavier glare -->
  <filter id="wmr1x679" x="-8%" y="-8%" width="116%" height="116%">
    <feSpecularLighting surfaceScale="6" specularConstant="2.4"
        specularExponent="65" lighting-color="#ffffff" result="spec">
      <feDistantLight elevation="44" azimuth="28"/>
    </feSpecularLighting>
    <feComposite in="spec" in2="SourceGraphic" operator="in" result="sm"/>
    <feComposite in="SourceGraphic" in2="sm" operator="arithmetic" k1="0" k2="1" k3="0.78" k4="0"/>
  </filter>

  <!-- Sketch wobble -->
  <filter id="skr1x679" x="-8%" y="-8%" width="116%" height="116%">
    <feTurbulence type="fractalNoise" baseFrequency="0.038"
        numOctaves="3" seed="87" result="noise"/>
    <feDisplacementMap in="SourceGraphic" in2="noise" scale="2.6"
        xChannelSelector="R" yChannelSelector="G" result="w"/>
    <feComposite in="w" in2="SourceGraphic" operator="atop"/>
  </filter>

  <!-- Glow: sharp accent -->
  <filter id="glowr1x679" x="-20%" y="-20%" width="140%" height="140%">
    <feGaussianBlur stdDeviation="3.5" result="b"/>
    <feColorMatrix in="b" type="matrix"
        values="0 0 0 0 1  0 0 0 0 1  0 0 0 0 1  0 0 0 1.8 0" result="boost"/>
    <feMerge><feMergeNode in="boost"/><feMergeNode in="SourceGraphic"/></feMerge>
  </filter>

  <!-- Bloom: wide soft -->
  <filter id="bloomr1x679" x="-40%" y="-40%" width="180%" height="180%">
    <feGaussianBlur stdDeviation="11" result="b"/>
    <feMerge><feMergeNode in="b"/><feMergeNode in="SourceGraphic"/></feMerge>
  </filter>

  </defs><rect width="1000" height="1000" fill="url(#bgr1x679)"/><ellipse cx="500.0" cy="1000" rx="850.0" ry="350.0" fill="#ff4500" fill-opacity=".11" filter="url(#bloomr1x679)"/><ellipse cx="500.0" cy="892.0" rx="350.0" ry="65.0" fill="rgba(0,0,0,.7)" filter="url(#bloomr1x679)"/><ellipse cx="500.0" cy="889.0" rx="220.0" ry="34.0" fill="rgba(0,0,0,.45)"/><ellipse cx="500.0" cy="520.0" rx="320.0" ry="480.0" fill="#6600ff" fill-opacity=".042" filter="url(#bloomr1x679)"/><circle cx="712.3" cy="234.5" r="4.1" fill="#6600ff" fill-opacity="0.69" filter="url(#glowr1x679)"/><circle cx="643.1" cy="701.9" r="1.3" fill="#6600ff" fill-opacity="0.84" filter="url(#glowr1x679)"/><circle cx="469.4" cy="553.2" r="1.7" fill="#6600ff" fill-opacity="0.60" filter="url(#glowr1x679)"/><circle cx="350.5" cy="334.5" r="3.2" fill="#6600ff" fill-opacity="0.85" filter="url(#glowr1x679)"/><circle cx="631.5" cy="214.7" r="1.3" fill="#6600ff" fill-opacity="0.62" filter="url(#glowr1x679)"/><circle cx="591.6" cy="729.6" r="3.7" fill="#6600ff" fill-opacity="0.66" filter="url(#glowr1x679)"/><circle cx="600.4" cy="227.5" r="1.1" fill="#6600ff" fill-opacity="0.76" filter="url(#glowr1x679)"/><circle cx="371.3" cy="764.0" r="2.3" fill="#6600ff" fill-opacity="0.60" filter="url(#glowr1x679)"/><circle cx="589.4" cy="571.4" r="1.3" fill="#6600ff" fill-opacity="0.55" filter="url(#glowr1x679)"/><circle cx="686.6" cy="448.6" r="0.8" fill="#6600ff" fill-opacity="0.86" filter="url(#glowr1x679)"/><circle cx="626.3" cy="620.0" r="4.0" fill="#6600ff" fill-opacity="0.86" filter="url(#glowr1x679)"/><circle cx="399.8" cy="330.2" r="4.0" fill="#6600ff" fill-opacity="0.62" filter="url(#glowr1x679)"/><circle cx="363.0" cy="442.4" r="0.8" fill="#6600ff" fill-opacity="0.58" filter="url(#glowr1x679)"/><circle cx="582.2" cy="533.2" r="1.9" fill="#6600ff" fill-opacity="0.53" filter="url(#glowr1x679)"/><polygon points="399.5,660.8 487.6,664.0 479.2,876.9 387.3,877.8" fill="url(#suitr1x679)" stroke="#4444ff" stroke-width="2.2" filter="url(#skr1x679) url(#metalr1x679)"/><polygon points="397.8,661.8 489.1,661.8 479.9,875.9 387.9,876.3" fill="url(#carbonr1x679)"/><polygon points="394.2,722.5 491.3,724.4 484.4,788.4 384.1,789.6" fill="url(#bevelr1x679)" fill-opacity=".5" stroke="#4444ff" stroke-width="1.4" filter="url(#skr1x679)"/><polygon points="510.6,662.9 600.9,663.8 611.5,877.5 520.1,876.1" fill="url(#suitr1x679)" stroke="#4444ff" stroke-width="2.2" filter="url(#skr1x679) url(#metalr1x679)"/><polygon points="511.8,661.7 599.8,664.3 612.2,878.6 520.0,876.3" fill="url(#carbonr1x679)"/><polygon points="508.4,722.2 607.7,725.1 615.8,787.0 516.0,787.3" fill="url(#bevelr1x679)" fill-opacity=".5" stroke="#4444ff" stroke-width="1.4" filter="url(#skr1x679)"/><rect x="392.0" y="837.0" width="100.3" height="24.7" fill="url(#bevelr1x679)" stroke="#4444ff" stroke-width="1" filter="url(#skr1x679)"/><rect x="507.5"  y="837.3" width="100.3" height="24.7" fill="url(#bevelr1x679)" stroke="#4444ff" stroke-width="1" filter="url(#skr1x679)"/><polygon points="368.0,876.0 495.5,877.6 504.9,922.5 361.7,920.4" fill="#141428" stroke="#4444ff" stroke-width="2" filter="url(#skr1x679)"/><polygon points="505.1,878.1 629.5,877.0 637.6,923.3 497.6,922.7" fill="#141428" stroke="#4444ff" stroke-width="2" filter="url(#skr1x679)"/><polygon points="302.8,634.5 697.0,631.4 636.6,683.0 361.8,681.6" fill="#4444ff" fill-opacity=".52" stroke="#4444ff" stroke-width="2" filter="url(#skr1x679)"/><rect x="464.7" y="637.3" width="72.0" height="42.0" fill="url(#bevelr1x679)" stroke="#4444ff" stroke-width="1.4" filter="url(#glowr1x679)"/><rect x="484.3" y="639.4" width="28.0" height="22.0" rx="1" fill="rgba(255,255,255,.48)"/><polygon points="153.5,464.9 234.3,467.8 257.4,735.5 127.7,734.7" fill="url(#suitr1x679)" stroke="#4444ff" stroke-width="2.2" filter="url(#skr1x679) url(#metalr1x679)"/><polygon points="175.3,432.0 252.0,430.8 241.9,512.1 158.5,509.0" fill="url(#bevelr1x679)" fill-opacity=".72" stroke="#4444ff" stroke-width="2.2" filter="url(#skr1x679)"/><polygon points="159.7,620.7 243.5,622.5 240.2,659.3 165.7,661.0" fill="#4444ff" fill-opacity=".42" stroke="#4444ff" stroke-width="1" filter="url(#skr1x679)"/><polygon points="765.5,466.2 846.2,467.8 870.8,734.8 740.5,736.4" fill="url(#suitr1x679)" stroke="#4444ff" stroke-width="2.2" filter="url(#skr1x679) url(#metalr1x679)"/><polygon points="745.3,432.6 825.4,433.7 841.8,511.8 755.4,511.5" fill="url(#bevelr1x679)" fill-opacity=".72" stroke="#4444ff" stroke-width="2.2" filter="url(#skr1x679)"/><polygon points="756.7,622.0 837.2,621.0 833.0,659.5 760.0,662.1" fill="#4444ff" fill-opacity=".42" stroke="#4444ff" stroke-width="1" filter="url(#skr1x679)"/><rect x="119.5"  y="698.3" width="135.3" height="85.0" rx="4" fill="url(#bevelr1x679)" stroke="#4444ff" stroke-width="1.8" filter="url(#skr1x679)"/><rect x="747.8"   y="699.1" width="135.3" height="85.0" rx="4" fill="url(#bevelr1x679)" stroke="#4444ff" stroke-width="1.8" filter="url(#skr1x679)"/><line x1="149.1" y1="701.1" x2="150.6" y2="783.6" stroke="#4444ff" stroke-opacity=".38" stroke-width="1"/><line x1="777.2" y1="703.3" x2="779.0" y2="783.4" stroke="#4444ff" stroke-opacity=".38" stroke-width="1"/><line x1="182.4" y1="700.5" x2="181.4" y2="783.6" stroke="#4444ff" stroke-opacity=".38" stroke-width="1"/><line x1="811.4" y1="701.2" x2="810.0" y2="785.0" stroke="#4444ff" stroke-opacity=".38" stroke-width="1"/><line x1="215.2" y1="702.7" x2="214.5" y2="784.0" stroke="#4444ff" stroke-opacity=".38" stroke-width="1"/><line x1="842.2" y1="703.1" x2="842.4" y2="784.1" stroke="#4444ff" stroke-opacity=".38" stroke-width="1"/><polygon points="234.0,417.3 763.6,416.3 724.3,662.8 277.7,661.7" fill="url(#suitr1x679)" stroke="#4444ff" stroke-width="2.6" filter="url(#skr1x679) url(#metalr1x679)"/><polygon points="236.0,416.3 764.9,417.6 722.3,661.0 277.6,662.1" fill="url(#carbonr1x679)"/><polygon points="367.7,419.0 631.0,417.0 613.0,516.7 388.4,514.6" fill="url(#suitHir1x679)"/><line x1="363.0" y1="473.2" x2="636.9" y2="471.4" stroke="#4444ff" stroke-opacity=".52" stroke-width="1.3" filter="url(#skr1x679)"/><line x1="398.5" y1="548.7" x2="599.3" y2="548.9" stroke="#4444ff" stroke-opacity=".52" stroke-width="1.3" filter="url(#skr1x679)"/><line x1="265.4" y1="489.7" x2="319.5" y2="490.4" stroke="#4444ff" stroke-opacity=".62" stroke-width="1.8"/><line x1="680.5" y1="492.6" x2="734.5" y2="490.5" stroke="#4444ff" stroke-opacity=".62" stroke-width="1.8"/><line x1="265.5" y1="521.5" x2="320.5" y2="522.6" stroke="#4444ff" stroke-opacity=".62" stroke-width="1.8"/><line x1="679.9" y1="524.0" x2="731.9" y2="522.9" stroke="#4444ff" stroke-opacity=".62" stroke-width="1.8"/><line x1="267.4" y1="554.6" x2="319.0" y2="555.3" stroke="#4444ff" stroke-opacity=".62" stroke-width="1.8"/><line x1="680.4" y1="553.0" x2="734.1" y2="554.4" stroke="#4444ff" stroke-opacity=".62" stroke-width="1.8"/><line x1="266.2" y1="587.7" x2="319.1" y2="584.8" stroke="#4444ff" stroke-opacity=".62" stroke-width="1.8"/><line x1="679.2" y1="585.7" x2="733.4" y2="588.0" stroke="#4444ff" stroke-opacity=".62" stroke-width="1.8"/><g filter="url(#glowr1x679)"><polygon points="498.9,451.3 541.5,510.0 500.2,568.5 457.9,509.4" fill="#4444ff" stroke="#1e0600" stroke-width="1.4" filter="url(#skr1x679)"/><polygon points="500.1,453.5 541.5,509.3 499.5,568.3 457.3,511.3" fill="url(#suitHir1x679)" opacity=".45"/></g><g><line x1="100.78779930820686" y1="792.4847057422622" x2="87.89098834874105" y2="112.6055383749306" stroke="url(#chromer1x679)" stroke-width="28.0" stroke-linecap="round" filter="url(#wmr1x679)"/><line x1="97.27035315068436" y1="772.4446593558415" x2="87.83041957499456" y2="132.5317633400671" stroke="rgba(255,255,255,.42)" stroke-width="5.0" stroke-linecap="round"/><polygon points="75.1,153.0 140.6,151.6 83.7,-9.0" fill="url(#blader1x679)" stroke="#4444ff" stroke-width="1.8" filter="url(#wmr1x679)"/><line x1="140.2" y1="151.4" x2="84.2" y2="-8.6" stroke="rgba(255,255,255,.72)" stroke-width="1.6"/><rect x="82.53089090393853" y="423.11882941918446" width="40.0" height="20.0" fill="url(#bevelr1x679)" stroke="#4444ff" stroke-width="1" filter="url(#wmr1x679)"/><rect x="83.6305205434933" y="511.39274781141427" width="40.0" height="20.0" fill="url(#bevelr1x679)" stroke="#4444ff" stroke-width="1" filter="url(#wmr1x679)"/><rect x="81.44656926322725" y="603.0392442845739" width="40.0" height="20.0" fill="url(#bevelr1x679)" stroke="#4444ff" stroke-width="1" filter="url(#wmr1x679)"/><rect x="83.04602067455646" y="691.1485568179748" width="40.0" height="20.0" fill="url(#bevelr1x679)" stroke="#4444ff" stroke-width="1" filter="url(#wmr1x679)"/><ellipse cx="100.48918626787137" cy="792.6686998911201" rx="22.0" ry="15.0" fill="url(#bevelr1x679)" stroke="#4444ff" stroke-width="1" filter="url(#wmr1x679)"/></g><rect x="450.1641354898922" y="556.8193040343932" width="100.0"  height="56.0" fill="#141428" stroke="#4444ff" stroke-width="2.2" filter="url(#skr1x679)"/><rect x="424.15484831351785" y="573.5954564992338" width="152.0" height="26.0" fill="url(#bevelr1x679)" fill-opacity=".65" stroke="#4444ff" stroke-width="1.2" filter="url(#skr1x679)"/><polygon points="306.6,381.1 350.6,293.6 500.4,276.7 651.4,295.0 691.3,380.5 668.6,505.3 499.1,565.0 332.0,504.6" fill="url(#suitr1x679)" stroke="#4444ff" stroke-width="2.8" filter="url(#skr1x679) url(#metalr1x679)"/><polygon points="307.3,381.7 351.2,294.1 499.4,277.5 649.2,296.1 691.9,379.7 670.6,503.3 499.7,563.6 332.7,504.6" fill="url(#carbonr1x679)"/><polygon points="380.3,304.1 499.5,284.9 619.9,302.1 607.5,380.1 392.1,378.8" fill="url(#suitHir1x679)"/><polygon points="380.0,381.3 365.4,426.3 432.5,505.4 499.6,528.6 566.2,504.4 634.5,425.1 619.5,379.0" fill="#1e0600" fill-opacity=".88" stroke="#4444ff" stroke-width="1.8" filter="url(#skr1x679)"/><polygon points="382.2,409.7 475.5,410.1 483.8,438.6 387.3,440.7" fill="#4444ff" filter="url(#glowr1x679)"/><polygon points="524.6,410.9 617.7,413.1 611.4,438.7 516.7,440.3" fill="#4444ff" filter="url(#glowr1x679)"/><ellipse cx="430.9" cy="425.7" rx="38.4"  ry="8.2" fill="#ffffff" opacity=".88"/><ellipse cx="569.1" cy="425.7" rx="38.4"  ry="8.2" fill="#ffffff" opacity=".88"/><line x1="484.79467264559116" y1="414.4309447375126" x2="513.5981606132724" y2="412.60091499527914" stroke="#4444ff" stroke-opacity=".52" stroke-width="2"/><line x1="484.2803874916956" y1="439.20582357672976" x2="516.9050576743111" y2="436.67529226792976" stroke="#4444ff" stroke-opacity=".52" stroke-width="2"/><line x1="498.8693302770145" y1="455.76511909170074" x2="499.391657020431" y2="483.96444847788666" stroke="#4444ff" stroke-opacity=".58" stroke-width="2.2" filter="url(#skr1x679)"/><line x1="452.96727571345866" y1="489.69285325892264" x2="453.119742201902" y2="519.501256178692" stroke="#4444ff" stroke-opacity=".52" stroke-width="1.5" filter="url(#skr1x679)"/><line x1="476.2341422903724" y1="489.9859879577532" x2="475.2690613384731" y2="519.2344022273086" stroke="#4444ff" stroke-opacity=".52" stroke-width="1.5" filter="url(#skr1x679)"/><line x1="499.7993123974651" y1="490.56731096636497" x2="500.79581572385507" y2="521.1026375911199" stroke="#4444ff" stroke-opacity=".52" stroke-width="1.5" filter="url(#skr1x679)"/><line x1="523.0677517588808" y1="490.54063954344014" x2="521.4285729419998" y2="521.0923380350694" stroke="#4444ff" stroke-opacity=".52" stroke-width="1.5" filter="url(#skr1x679)"/><line x1="545.9372094942444" y1="491.47227642005305" x2="547.1375984838419" y2="521.0515697429888" stroke="#4444ff" stroke-opacity=".52" stroke-width="1.5" filter="url(#skr1x679)"/><polygon points="433.0,503.0 565.9,503.0 554.7,556.3 447.5,558.6" fill="#141428" fill-opacity=".72" stroke="#4444ff" stroke-width="1.3" filter="url(#skr1x679)"/><text x="30.0"  y="975.0" font-family="monospace" font-weight="bold" font-size="22.0" fill="rgba(255,255,255,.22)">#0001</text><text x="500.0"   y="975.0" text-anchor="middle" font-family="monospace" font-weight="bold" font-size="22.0" fill="#4444ff" fill-opacity=".48">OBSIDIAN RANGER</text><text x="970.0" y="975.0" text-anchor="end"    font-family="monospace" font-weight="bold" font-size="22.0" fill="#4444ff" fill-opacity=".32">MECH RANGERS</text></svg>