<svg xmlns="http://www.w3.org/2000/svg" viewBox="0 0 1000 1000" width="1000" height="1000" shape-rendering="geometricPrecision"><defs>

  <!-- Scene gradients -->
  <radialGradient id="bgr1x680" cx="50%" cy="42%" r="72%">
    <stop offset="0%"   stop-color="#1e0d00"/>
    <stop offset="100%" stop-color="#140900"/>
  </radialGradient>
  <linearGradient id="suitr1x680" x1="8%" y1="0%" x2="92%" y2="100%">
    <stop offset="0%"   stop-color="#ff2040" stop-opacity=".95"/>
    <stop offset="45%"  stop-color="#cc0020"/>
    <stop offset="100%" stop-color="#140900"/>
  </linearGradient>
  <linearGradient id="suitHir1x680" x1="0%" y1="0%" x2="0%" y2="100%">
    <stop offset="0%"   stop-color="rgba(255,255,255,.28)"/>
    <stop offset="60%"  stop-color="rgba(255,255,255,.04)"/>
    <stop offset="100%" stop-color="rgba(255,255,255,0)"/>
  </linearGradient>
  <!-- Bevel: bright top, dark bottom for armour panels -->
  <linearGradient id="bevelr1x680" x1="0%" y1="0%" x2="0%" y2="100%">
    <stop offset="0%"   stop-color="rgba(255,255,255,.55)"/>
    <stop offset="30%"  stop-color="#ff2040"/>
    <stop offset="70%"  stop-color="#cc0020"/>
    <stop offset="100%" stop-color="rgba(0,0,0,.5)"/>
  </linearGradient>

  <!-- Weapon: cold steel blade sweep -->
  <linearGradient id="blader1x680" x1="0%" y1="0%" x2="100%" y2="0%">
    <stop offset="0%"   stop-color="#0e0e20"/>
    <stop offset="16%"  stop-color="#3e3e58"/>
    <stop offset="34%"  stop-color="#c8c8e0"/>
    <stop offset="50%"  stop-color="#f5f5ff"/>
    <stop offset="66%"  stop-color="#b8b8d0"/>
    <stop offset="84%"  stop-color="#2e2e48"/>
    <stop offset="100%" stop-color="#08080e"/>
  </linearGradient>
  <!-- Blade tip brightening -->
  <linearGradient id="bladeTipr1x680" x1="0%" y1="100%" x2="0%" y2="0%">
    <stop offset="0%"   stop-color="rgba(255,255,255,0)"/>
    <stop offset="55%"  stop-color="rgba(255,255,255,.1)"/>
    <stop offset="100%" stop-color="rgba(255,255,255,.55)"/>
  </linearGradient>
  <!-- Gunmetal anodised — blaster body -->
  <linearGradient id="gunmetalr1x680" x1="0%" y1="0%" x2="0%" y2="100%">
    <stop offset="0%"   stop-color="#46465e"/>
    <stop offset="18%"  stop-color="#828296"/>
    <stop offset="42%"  stop-color="#26263a"/>
    <stop offset="72%"  stop-color="#16162a"/>
    <stop offset="100%" stop-color="#0c0c18"/>
  </linearGradient>
  <!-- Brushed steel tube — barrel/rod -->
  <linearGradient id="barrelr1x680" x1="0%" y1="0%" x2="100%" y2="0%">
    <stop offset="0%"   stop-color="#0a0a14"/>
    <stop offset="24%"  stop-color="#585875"/>
    <stop offset="50%"  stop-color="#a8a8c8"/>
    <stop offset="76%"  stop-color="#383852"/>
    <stop offset="100%" stop-color="#0a0a14"/>
  </linearGradient>
  <!-- Chrome rod — lance shaft -->
  <linearGradient id="chromer1x680" x1="0%" y1="0%" x2="100%" y2="0%">
    <stop offset="0%"   stop-color="#0c0c18"/>
    <stop offset="20%"  stop-color="#686888"/>
    <stop offset="44%"  stop-color="#e0e0f0"/>
    <stop offset="56%"  stop-color="#c0c0d8"/>
    <stop offset="80%"  stop-color="#28283e"/>
    <stop offset="100%" stop-color="#0c0c18"/>
  </linearGradient>
  <!-- Titanium plate — shield face -->
  <linearGradient id="titaniumr1x680" x1="0%" y1="0%" x2="100%" y2="100%">
    <stop offset="0%"   stop-color="#585878"/>
    <stop offset="28%"  stop-color="#ff2040" stop-opacity=".88"/>
    <stop offset="55%"  stop-color="#cc0020"/>
    <stop offset="80%"  stop-color="#181828"/>
    <stop offset="100%" stop-color="#0a0a18"/>
  </linearGradient>
  <!-- Artillery black-chrome — cannon body -->
  <linearGradient id="artilleryr1x680" x1="0%" y1="0%" x2="0%" y2="100%">
    <stop offset="0%"   stop-color="#383850"/>
    <stop offset="14%"  stop-color="#78789a"/>
    <stop offset="36%"  stop-color="#202034"/>
    <stop offset="65%"  stop-color="#14141e"/>
    <stop offset="100%" stop-color="#0a0a12"/>
  </linearGradient>
  <!-- Energy orb — staff -->
  <radialGradient id="orbr1x680" cx="35%" cy="35%" r="65%">
    <stop offset="0%"   stop-color="rgba(255,255,255,.9)"/>
    <stop offset="30%"  stop-color="#ff2040"/>
    <stop offset="68%"  stop-color="#cc0020"/>
    <stop offset="100%" stop-color="rgba(0,0,0,.6)"/>
  </radialGradient>
  <!-- Knuckle plate chrome -->
  <linearGradient id="knuckler1x680" x1="0%" y1="0%" x2="0%" y2="100%">
    <stop offset="0%"   stop-color="#888aaa"/>
    <stop offset="32%"  stop-color="#ff2040" stop-opacity=".8"/>
    <stop offset="62%"  stop-color="#1a1a2c"/>
    <stop offset="100%" stop-color="#0a0a14"/>
  </linearGradient>

  <!-- Carbon fibre weave texture overlay -->
  <pattern id="carbonr1x680" width="6" height="6" patternUnits="userSpaceOnUse">
    <rect width="6" height="6" fill="rgba(0,0,0,.08)"/>
    <rect x="0" y="0" width="3" height="3" fill="rgba(255,255,255,.022)"/>
    <rect x="3" y="3" width="3" height="3" fill="rgba(255,255,255,.022)"/>
    <line x1="0" y1="0" x2="3" y2="3" stroke="rgba(255,255,255,.038)" stroke-width=".5"/>
    <line x1="3" y1="0" x2="6" y2="3" stroke="rgba(0,0,0,.055)"       stroke-width=".5"/>
    <line x1="0" y1="3" x2="3" y2="6" stroke="rgba(0,0,0,.055)"       stroke-width=".5"/>
    <line x1="3" y1="3" x2="6" y2="6" stroke="rgba(255,255,255,.038)" stroke-width=".5"/>
  </pattern>

  <!-- Specular metal sheen on armour panels -->
  <filter id="metalr1x680" x="-5%" y="-5%" width="110%" height="110%">
    <feSpecularLighting surfaceScale="4" specularConstant="1.8"
        specularExponent="42" lighting-color="#ffffff" result="spec">
      <feDistantLight elevation="52" azimuth="38"/>
    </feSpecularLighting>
    <feComposite in="spec" in2="SourceGraphic" operator="in" result="sm"/>
    <feComposite in="SourceGraphic" in2="sm" operator="arithmetic" k1="0" k2="1" k3="0.55" k4="0"/>
  </filter>

  <!-- Sharper specular for weapons — heavier glare -->
  <filter id="wmr1x680" x="-8%" y="-8%" width="116%" height="116%">
    <feSpecularLighting surfaceScale="6" specularConstant="2.4"
        specularExponent="65" lighting-color="#ffffff" result="spec">
      <feDistantLight elevation="44" azimuth="28"/>
    </feSpecularLighting>
    <feComposite in="spec" in2="SourceGraphic" operator="in" result="sm"/>
    <feComposite in="SourceGraphic" in2="sm" operator="arithmetic" k1="0" k2="1" k3="0.78" k4="0"/>
  </filter>

  <!-- Sketch wobble -->
  <filter id="skr1x680" x="-8%" y="-8%" width="116%" height="116%">
    <feTurbulence type="fractalNoise" baseFrequency="0.038"
        numOctaves="3" seed="43" result="noise"/>
    <feDisplacementMap in="SourceGraphic" in2="noise" scale="2.6"
        xChannelSelector="R" yChannelSelector="G" result="w"/>
    <feComposite in="w" in2="SourceGraphic" operator="atop"/>
  </filter>

  <!-- Glow: sharp accent -->
  <filter id="glowr1x680" x="-20%" y="-20%" width="140%" height="140%">
    <feGaussianBlur stdDeviation="3.5" result="b"/>
    <feColorMatrix in="b" type="matrix"
        values="0 0 0 0 1  0 0 0 0 1  0 0 0 0 1  0 0 0 1.8 0" result="boost"/>
    <feMerge><feMergeNode in="boost"/><feMergeNode in="SourceGraphic"/></feMerge>
  </filter>

  <!-- Bloom: wide soft -->
  <filter id="bloomr1x680" x="-40%" y="-40%" width="180%" height="180%">
    <feGaussianBlur stdDeviation="11" result="b"/>
    <feMerge><feMergeNode in="b"/><feMergeNode in="SourceGraphic"/></feMerge>
  </filter>

  </defs><rect width="1000" height="1000" fill="url(#bgr1x680)"/><line x1="500" y1="500" x2="1500.0" y2="500.0" stroke="#ff2040" stroke-opacity=".048" stroke-width="5"/><line x1="500" y1="500" x2="1474.9" y2="722.5" stroke="#ff2040" stroke-opacity=".048" stroke-width="5"/><line x1="500" y1="500" x2="1401.0" y2="933.9" stroke="#ff2040" stroke-opacity=".048" stroke-width="5"/><line x1="500" y1="500" x2="1281.8" y2="1123.5" stroke="#ff2040" stroke-opacity=".048" stroke-width="5"/><line x1="500" y1="500" x2="1123.5" y2="1281.8" stroke="#ff2040" stroke-opacity=".048" stroke-width="5"/><line x1="500" y1="500" x2="933.9" y2="1401.0" stroke="#ff2040" stroke-opacity=".048" stroke-width="5"/><line x1="500" y1="500" x2="722.5" y2="1474.9" stroke="#ff2040" stroke-opacity=".048" stroke-width="5"/><line x1="500" y1="500" x2="500.0" y2="1500.0" stroke="#ff2040" stroke-opacity=".048" stroke-width="5"/><line x1="500" y1="500" x2="277.5" y2="1474.9" stroke="#ff2040" stroke-opacity=".048" stroke-width="5"/><line x1="500" y1="500" x2="66.1" y2="1401.0" stroke="#ff2040" stroke-opacity=".048" stroke-width="5"/><line x1="500" y1="500" x2="-123.5" y2="1281.8" stroke="#ff2040" stroke-opacity=".048" stroke-width="5"/><line x1="500" y1="500" x2="-281.8" y2="1123.5" stroke="#ff2040" stroke-opacity=".048" stroke-width="5"/><line x1="500" y1="500" x2="-401.0" y2="933.9" stroke="#ff2040" stroke-opacity=".048" stroke-width="5"/><line x1="500" y1="500" x2="-474.9" y2="722.5" stroke="#ff2040" stroke-opacity=".048" stroke-width="5"/><line x1="500" y1="500" x2="-500.0" y2="500.0" stroke="#ff2040" stroke-opacity=".048" stroke-width="5"/><line x1="500" y1="500" x2="-474.9" y2="277.5" stroke="#ff2040" stroke-opacity=".048" stroke-width="5"/><line x1="500" y1="500" x2="-401.0" y2="66.1" stroke="#ff2040" stroke-opacity=".048" stroke-width="5"/><line x1="500" y1="500" x2="-281.8" y2="-123.5" stroke="#ff2040" stroke-opacity=".048" stroke-width="5"/><line x1="500" y1="500" x2="-123.5" y2="-281.8" stroke="#ff2040" stroke-opacity=".048" stroke-width="5"/><line x1="500" y1="500" x2="66.1" y2="-401.0" stroke="#ff2040" stroke-opacity=".048" stroke-width="5"/><line x1="500" y1="500" x2="277.5" y2="-474.9" stroke="#ff2040" stroke-opacity=".048" stroke-width="5"/><line x1="500" y1="500" x2="500.0" y2="-500.0" stroke="#ff2040" stroke-opacity=".048" stroke-width="5"/><line x1="500" y1="500" x2="722.5" y2="-474.9" stroke="#ff2040" stroke-opacity=".048" stroke-width="5"/><line x1="500" y1="500" x2="933.9" y2="-401.0" stroke="#ff2040" stroke-opacity=".048" stroke-width="5"/><line x1="500" y1="500" x2="1123.5" y2="-281.8" stroke="#ff2040" stroke-opacity=".048" stroke-width="5"/><line x1="500" y1="500" x2="1281.8" y2="-123.5" stroke="#ff2040" stroke-opacity=".048" stroke-width="5"/><line x1="500" y1="500" x2="1401.0" y2="66.1" stroke="#ff2040" stroke-opacity=".048" stroke-width="5"/><line x1="500" y1="500" x2="1474.9" y2="277.5" stroke="#ff2040" stroke-opacity=".048" stroke-width="5"/><ellipse cx="500.0" cy="892.0" rx="350.0" ry="65.0" fill="rgba(0,0,0,.7)" filter="url(#bloomr1x680)"/><ellipse cx="500.0" cy="889.0" rx="220.0" ry="34.0" fill="rgba(0,0,0,.45)"/><ellipse cx="500.0" cy="520.0" rx="320.0" ry="480.0" fill="#ff6600" fill-opacity=".042" filter="url(#bloomr1x680)"/><circle cx="715.3" cy="780.8" r="3.5" fill="#ff6600" fill-opacity="0.40" filter="url(#glowr1x680)"/><circle cx="745.3" cy="624.6" r="2.5" fill="#ff6600" fill-opacity="0.80" filter="url(#glowr1x680)"/><circle cx="303.7" cy="600.3" r="2.8" fill="#ff6600" fill-opacity="0.44" filter="url(#glowr1x680)"/><circle cx="556.0" cy="766.7" r="3.2" fill="#ff6600" fill-opacity="0.80" filter="url(#glowr1x680)"/><circle cx="327.5" cy="221.8" r="3.4" fill="#ff6600" fill-opacity="0.84" filter="url(#glowr1x680)"/><circle cx="677.7" cy="618.7" r="4.1" fill="#ff6600" fill-opacity="0.73" filter="url(#glowr1x680)"/><circle cx="300.6" cy="581.2" r="4.3" fill="#ff6600" fill-opacity="0.40" filter="url(#glowr1x680)"/><circle cx="504.0" cy="343.1" r="1.6" fill="#ff6600" fill-opacity="0.48" filter="url(#glowr1x680)"/><circle cx="260.5" cy="483.2" r="4.2" fill="#ff6600" fill-opacity="0.45" filter="url(#glowr1x680)"/><circle cx="692.4" cy="202.9" r="3.5" fill="#ff6600" fill-opacity="0.66" filter="url(#glowr1x680)"/><circle cx="440.0" cy="345.2" r="0.9" fill="#ff6600" fill-opacity="0.59" filter="url(#glowr1x680)"/><circle cx="414.1" cy="504.0" r="4.1" fill="#ff6600" fill-opacity="0.85" filter="url(#glowr1x680)"/><circle cx="357.3" cy="702.6" r="3.6" fill="#ff6600" fill-opacity="0.47" filter="url(#glowr1x680)"/><circle cx="671.0" cy="749.1" r="0.9" fill="#ff6600" fill-opacity="0.65" filter="url(#glowr1x680)"/><polygon points="399.9,661.8 488.7,662.2 482.0,876.3 387.6,876.0" fill="url(#suitr1x680)" stroke="#ff2040" stroke-width="2.2" filter="url(#skr1x680) url(#metalr1x680)"/><polygon points="397.7,662.8 490.0,661.1 479.7,876.6 388.8,878.2" fill="url(#carbonr1x680)"/><polygon points="393.6,723.5 493.9,723.9 485.3,788.2 383.0,789.1" fill="url(#bevelr1x680)" fill-opacity=".5" stroke="#ff2040" stroke-width="1.4" filter="url(#skr1x680)"/><polygon points="512.2,663.8 599.8,661.8 611.8,877.7 518.8,876.6" fill="url(#suitr1x680)" stroke="#ff2040" stroke-width="2.2" filter="url(#skr1x680) url(#metalr1x680)"/><polygon points="510.3,661.8 599.6,662.2 613.9,879.2 519.3,876.4" fill="url(#carbonr1x680)"/><polygon points="506.6,724.8 605.7,725.2 617.0,787.5 516.9,789.5" fill="url(#bevelr1x680)" fill-opacity=".5" stroke="#ff2040" stroke-width="1.4" filter="url(#skr1x680)"/><rect x="391.3" y="840.4" width="100.3" height="24.7" fill="url(#bevelr1x680)" stroke="#ff2040" stroke-width="1" filter="url(#skr1x680)"/><rect x="507.5"  y="838.1" width="100.3" height="24.7" fill="url(#bevelr1x680)" stroke="#ff2040" stroke-width="1" filter="url(#skr1x680)"/><polygon points="370.8,879.0 497.8,876.9 502.2,923.0 361.8,922.7" fill="#cc0020" stroke="#ff2040" stroke-width="2" filter="url(#skr1x680)"/><polygon points="502.9,875.9 629.1,878.6 638.6,920.8 496.1,920.7" fill="#cc0020" stroke="#ff2040" stroke-width="2" filter="url(#skr1x680)"/><polygon points="303.8,631.5 695.3,631.9 638.5,681.8 363.6,682.1" fill="#ff2040" fill-opacity=".52" stroke="#ff2040" stroke-width="2" filter="url(#skr1x680)"/><rect x="464.9" y="638.4" width="72.0" height="42.0" fill="url(#bevelr1x680)" stroke="#ff2040" stroke-width="1.4" filter="url(#glowr1x680)"/><rect x="486.0" y="639.2" width="28.0" height="22.0" rx="1" fill="rgba(255,255,255,.48)"/><polygon points="153.9,467.6 233.9,466.3 257.4,735.1 128.4,734.3" fill="url(#suitr1x680)" stroke="#ff2040" stroke-width="2.2" filter="url(#skr1x680) url(#metalr1x680)"/><polygon points="171.7,433.9 253.2,431.0 243.2,511.7 158.5,511.8" fill="url(#bevelr1x680)" fill-opacity=".72" stroke="#ff2040" stroke-width="2.2" filter="url(#skr1x680)"/><polygon points="161.7,621.3 243.4,622.4 237.9,661.5 164.4,662.5" fill="#ff2040" fill-opacity=".42" stroke="#ff2040" stroke-width="1" filter="url(#skr1x680)"/><polygon points="764.2,465.5 845.7,465.3 869.8,733.6 743.2,735.0" fill="url(#suitr1x680)" stroke="#ff2040" stroke-width="2.2" filter="url(#skr1x680) url(#metalr1x680)"/><polygon points="748.4,433.0 825.1,432.1 840.0,510.0 757.5,509.5" fill="url(#bevelr1x680)" fill-opacity=".72" stroke="#ff2040" stroke-width="2.2" filter="url(#skr1x680)"/><polygon points="756.9,622.5 837.1,622.1 833.1,659.7 760.6,661.2" fill="#ff2040" fill-opacity=".42" stroke="#ff2040" stroke-width="1" filter="url(#skr1x680)"/><rect x="120.8"  y="698.9" width="135.3" height="85.0" rx="4" fill="url(#bevelr1x680)" stroke="#ff2040" stroke-width="1.8" filter="url(#skr1x680)"/><rect x="747.1"   y="700.6" width="135.3" height="85.0" rx="4" fill="url(#bevelr1x680)" stroke="#ff2040" stroke-width="1.8" filter="url(#skr1x680)"/><line x1="148.0" y1="701.6" x2="150.9" y2="785.2" stroke="#ff2040" stroke-opacity=".38" stroke-width="1"/><line x1="777.2" y1="703.1" x2="779.8" y2="782.9" stroke="#ff2040" stroke-opacity=".38" stroke-width="1"/><line x1="182.9" y1="703.0" x2="181.1" y2="782.9" stroke="#ff2040" stroke-opacity=".38" stroke-width="1"/><line x1="809.8" y1="702.5" x2="811.6" y2="783.8" stroke="#ff2040" stroke-opacity=".38" stroke-width="1"/><line x1="215.3" y1="702.7" x2="213.6" y2="785.4" stroke="#ff2040" stroke-opacity=".38" stroke-width="1"/><line x1="843.3" y1="700.8" x2="845.4" y2="785.4" stroke="#ff2040" stroke-opacity=".38" stroke-width="1"/><polygon points="235.4,419.1 765.2,417.0 722.3,664.0 277.8,662.0" fill="url(#suitr1x680)" stroke="#ff2040" stroke-width="2.6" filter="url(#skr1x680) url(#metalr1x680)"/><polygon points="236.3,417.8 766.6,417.7 721.8,661.9 276.1,663.9" fill="url(#carbonr1x680)"/><polygon points="367.9,416.0 632.5,417.9 611.9,516.3 389.1,515.6" fill="url(#suitHir1x680)"/><line x1="363.9" y1="472.3" x2="637.3" y2="470.5" stroke="#ff2040" stroke-opacity=".52" stroke-width="1.3" filter="url(#skr1x680)"/><line x1="397.6" y1="549.3" x2="599.4" y2="551.3" stroke="#ff2040" stroke-opacity=".52" stroke-width="1.3" filter="url(#skr1x680)"/><line x1="265.2" y1="492.3" x2="320.4" y2="489.8" stroke="#ff2040" stroke-opacity=".62" stroke-width="1.8"/><line x1="679.5" y1="489.8" x2="734.9" y2="490.7" stroke="#ff2040" stroke-opacity=".62" stroke-width="1.8"/><line x1="265.1" y1="523.2" x2="318.0" y2="521.7" stroke="#ff2040" stroke-opacity=".62" stroke-width="1.8"/><line x1="681.8" y1="524.5" x2="732.1" y2="521.6" stroke="#ff2040" stroke-opacity=".62" stroke-width="1.8"/><line x1="267.4" y1="553.5" x2="318.6" y2="554.2" stroke="#ff2040" stroke-opacity=".62" stroke-width="1.8"/><line x1="680.1" y1="554.0" x2="734.8" y2="553.9" stroke="#ff2040" stroke-opacity=".62" stroke-width="1.8"/><line x1="267.8" y1="585.7" x2="320.3" y2="588.2" stroke="#ff2040" stroke-opacity=".62" stroke-width="1.8"/><line x1="679.4" y1="586.8" x2="733.2" y2="586.8" stroke="#ff2040" stroke-opacity=".62" stroke-width="1.8"/><g filter="url(#glowr1x680)"><polygon points="498.3,451.6 541.6,510.1 498.8,567.5 457.9,511.4" fill="#ff2040" stroke="#140900" stroke-width="1.4" filter="url(#skr1x680)"/><polygon points="500.0,453.0 542.3,511.9 498.9,570.3 457.8,509.2" fill="url(#suitHir1x680)" opacity=".45"/></g><g><rect x="33.35749558530745" y="420.1770030913874" width="148.0" height="82.0" rx="5" fill="url(#gunmetalr1x680)" stroke="#ff2040" stroke-width="2" filter="url(#wmr1x680)"/><rect x="32.776375477425724" y="420.8912378346547" width="148.0" height="82.0" rx="5" fill="url(#carbonr1x680)"/><rect x="42.05877275452015" y="402.005334503483" width="90.0" height="22.0" rx="3" fill="url(#barrelr1x680)" stroke="#ff2040" stroke-width="1" filter="url(#wmr1x680)"/><circle cx="81.54393473112953" cy="415.17101289452984" r="15.0" fill="#ff2040" opacity=".8" filter="url(#glowr1x680)"/><circle cx="81.78294206060465" cy="413.52233893284574" r="6.0" fill="rgba(255,255,255,.9)"/><rect x="52.556782997716184" y="454.3402619683184" width="78.0" height="36.0" rx="5" fill="url(#barrelr1x680)" stroke="#ff2040" stroke-width="1.2" filter="url(#wmr1x680)"/><circle cx="-21.26385694701228" cy="470.5683997723274" r="18.0" fill="#ff2040" filter="url(#glowr1x680)" opacity=".88"/><circle cx="-18.903721482735158" cy="471.92458862261844" r="7.0" fill="#ffffff"/><rect x="79.3873149357177" y="502.15877974405885" width="44.0" height="42.0" rx="3" fill="url(#gunmetalr1x680)" stroke="#ff2040" stroke-width="1" filter="url(#wmr1x680)"/><rect x="35.49777199797329" y="425.00976672116667" width="90.0" height="10.0" rx="2" fill="rgba(255,255,255,.22)"/><line x1="60.40008563719687" y1="486.79456734368574" x2="61.33831898694855" y2="520.469620974455" stroke="#ff2040" stroke-opacity=".5" stroke-width="1.2"/><line x1="79.43545593809333" y1="484.8248007252812" x2="76.4563617342524" y2="518.5520581540651" stroke="#ff2040" stroke-opacity=".5" stroke-width="1.2"/><line x1="94.18110810400916" y1="487.1070748033933" x2="94.5536761839315" y2="520.0632068080828" stroke="#ff2040" stroke-opacity=".5" stroke-width="1.2"/></g><rect x="449.5082980745472" y="557.7584970751777" width="100.0"  height="56.0" fill="#cc0020" stroke="#ff2040" stroke-width="2.2" filter="url(#skr1x680)"/><rect x="423.25660165259615" y="573.8602471747436" width="152.0" height="26.0" fill="url(#bevelr1x680)" fill-opacity=".65" stroke="#ff2040" stroke-width="1.2" filter="url(#skr1x680)"/><polygon points="308.6,381.8 349.2,293.3 501.7,279.6 649.4,295.9 692.2,380.8 669.1,502.7 499.8,565.6 332.7,504.5" fill="url(#suitr1x680)" stroke="#ff2040" stroke-width="2.8" filter="url(#skr1x680) url(#metalr1x680)"/><polygon points="308.8,380.2 348.8,293.9 501.7,276.5 651.2,293.0 692.1,381.3 670.4,503.7 500.1,566.9 330.4,504.4" fill="url(#carbonr1x680)"/><polygon points="380.1,302.2 500.3,287.2 618.3,302.1 606.7,380.3 393.2,379.5" fill="url(#suitHir1x680)"/><polygon points="382.5,379.1 364.4,425.4 431.5,503.2 499.1,529.0 568.1,504.4 635.8,425.4 620.8,379.9" fill="#140900" fill-opacity=".88" stroke="#ff2040" stroke-width="1.8" filter="url(#skr1x680)"/><polygon points="382.5,411.1 477.3,412.0 484.9,441.3 389.6,438.7" fill="#ff2040" filter="url(#glowr1x680)"/><polygon points="522.4,410.0 619.3,413.1 613.0,441.7 513.7,439.6" fill="#ff2040" filter="url(#glowr1x680)"/><ellipse cx="430.9" cy="425.7" rx="38.4"  ry="8.2" fill="#ffffff" opacity=".88"/><ellipse cx="569.1" cy="425.7" rx="38.4"  ry="8.2" fill="#ffffff" opacity=".88"/><line x1="482.9022494452633" y1="415.0156494542956" x2="514.2159424498119" y2="412.017045204062" stroke="#ff2040" stroke-opacity=".52" stroke-width="2"/><line x1="486.05763142505657" y1="437.5238575765863" x2="514.5392996159754" y2="439.48273235941303" stroke="#ff2040" stroke-opacity=".52" stroke-width="2"/><line x1="500.16586617184805" y1="454.445465695858" x2="498.7624206912704" y2="481.98156325481835" stroke="#ff2040" stroke-opacity=".58" stroke-width="2.2" filter="url(#skr1x680)"/><line x1="452.93857594624166" y1="490.0928566951304" x2="455.6480300079845" y2="521.16304921275" stroke="#ff2040" stroke-opacity=".52" stroke-width="1.5" filter="url(#skr1x680)"/><line x1="477.7736653169058" y1="490.46943180505184" x2="478.66553094139323" y2="518.8553898124956" stroke="#ff2040" stroke-opacity=".52" stroke-width="1.5" filter="url(#skr1x680)"/><line x1="500.3708469826728" y1="491.12313022240994" x2="498.7542807987891" y2="521.7883939349092" stroke="#ff2040" stroke-opacity=".52" stroke-width="1.5" filter="url(#skr1x680)"/><line x1="522.4073395225778" y1="491.21901493333274" x2="522.4177258732356" y2="520.8829529993236" stroke="#ff2040" stroke-opacity=".52" stroke-width="1.5" filter="url(#skr1x680)"/><line x1="547.8587249452435" y1="491.0144393959082" x2="544.9816341033392" y2="521.7109957813285" stroke="#ff2040" stroke-opacity=".52" stroke-width="1.5" filter="url(#skr1x680)"/><polygon points="432.2,502.0 566.1,505.1 552.1,555.5 445.1,557.3" fill="#cc0020" fill-opacity=".72" stroke="#ff2040" stroke-width="1.3" filter="url(#skr1x680)"/><text x="30.0"  y="975.0" font-family="monospace" font-weight="bold" font-size="22.0" fill="rgba(255,255,255,.22)">#0001</text><text x="500.0"   y="975.0" text-anchor="middle" font-family="monospace" font-weight="bold" font-size="22.0" fill="#ff2040" fill-opacity=".48">CRIMSON RANGER</text><text x="970.0" y="975.0" text-anchor="end"    font-family="monospace" font-weight="bold" font-size="22.0" fill="#ff2040" fill-opacity=".32">MECH RANGERS</text></svg>