<svg xmlns="http://www.w3.org/2000/svg" viewBox="0 0 1000 1000" width="1000" height="1000" shape-rendering="geometricPrecision"><defs>

  <!-- Scene gradients -->
  <radialGradient id="bgr1x6826" cx="50%" cy="42%" r="72%">
    <stop offset="0%"   stop-color="#0a1420"/>
    <stop offset="100%" stop-color="#050d14"/>
  </radialGradient>
  <linearGradient id="suitr1x6826" x1="8%" y1="0%" x2="92%" y2="100%">
    <stop offset="0%"   stop-color="#c0c0d0" stop-opacity=".95"/>
    <stop offset="45%"  stop-color="#2c2c3c"/>
    <stop offset="100%" stop-color="#050d14"/>
  </linearGradient>
  <linearGradient id="suitHir1x6826" x1="0%" y1="0%" x2="0%" y2="100%">
    <stop offset="0%"   stop-color="rgba(255,255,255,.28)"/>
    <stop offset="60%"  stop-color="rgba(255,255,255,.04)"/>
    <stop offset="100%" stop-color="rgba(255,255,255,0)"/>
  </linearGradient>
  <!-- Bevel: bright top, dark bottom for armour panels -->
  <linearGradient id="bevelr1x6826" x1="0%" y1="0%" x2="0%" y2="100%">
    <stop offset="0%"   stop-color="rgba(255,255,255,.55)"/>
    <stop offset="30%"  stop-color="#c0c0d0"/>
    <stop offset="70%"  stop-color="#2c2c3c"/>
    <stop offset="100%" stop-color="rgba(0,0,0,.5)"/>
  </linearGradient>

  <!-- Weapon: cold steel blade sweep -->
  <linearGradient id="blader1x6826" x1="0%" y1="0%" x2="100%" y2="0%">
    <stop offset="0%"   stop-color="#0e0e20"/>
    <stop offset="16%"  stop-color="#3e3e58"/>
    <stop offset="34%"  stop-color="#c8c8e0"/>
    <stop offset="50%"  stop-color="#f5f5ff"/>
    <stop offset="66%"  stop-color="#b8b8d0"/>
    <stop offset="84%"  stop-color="#2e2e48"/>
    <stop offset="100%" stop-color="#08080e"/>
  </linearGradient>
  <!-- Blade tip brightening -->
  <linearGradient id="bladeTipr1x6826" x1="0%" y1="100%" x2="0%" y2="0%">
    <stop offset="0%"   stop-color="rgba(255,255,255,0)"/>
    <stop offset="55%"  stop-color="rgba(255,255,255,.1)"/>
    <stop offset="100%" stop-color="rgba(255,255,255,.55)"/>
  </linearGradient>
  <!-- Gunmetal anodised — blaster body -->
  <linearGradient id="gunmetalr1x6826" x1="0%" y1="0%" x2="0%" y2="100%">
    <stop offset="0%"   stop-color="#46465e"/>
    <stop offset="18%"  stop-color="#828296"/>
    <stop offset="42%"  stop-color="#26263a"/>
    <stop offset="72%"  stop-color="#16162a"/>
    <stop offset="100%" stop-color="#0c0c18"/>
  </linearGradient>
  <!-- Brushed steel tube — barrel/rod -->
  <linearGradient id="barrelr1x6826" x1="0%" y1="0%" x2="100%" y2="0%">
    <stop offset="0%"   stop-color="#0a0a14"/>
    <stop offset="24%"  stop-color="#585875"/>
    <stop offset="50%"  stop-color="#a8a8c8"/>
    <stop offset="76%"  stop-color="#383852"/>
    <stop offset="100%" stop-color="#0a0a14"/>
  </linearGradient>
  <!-- Chrome rod — lance shaft -->
  <linearGradient id="chromer1x6826" x1="0%" y1="0%" x2="100%" y2="0%">
    <stop offset="0%"   stop-color="#0c0c18"/>
    <stop offset="20%"  stop-color="#686888"/>
    <stop offset="44%"  stop-color="#e0e0f0"/>
    <stop offset="56%"  stop-color="#c0c0d8"/>
    <stop offset="80%"  stop-color="#28283e"/>
    <stop offset="100%" stop-color="#0c0c18"/>
  </linearGradient>
  <!-- Titanium plate — shield face -->
  <linearGradient id="titaniumr1x6826" x1="0%" y1="0%" x2="100%" y2="100%">
    <stop offset="0%"   stop-color="#585878"/>
    <stop offset="28%"  stop-color="#c0c0d0" stop-opacity=".88"/>
    <stop offset="55%"  stop-color="#2c2c3c"/>
    <stop offset="80%"  stop-color="#181828"/>
    <stop offset="100%" stop-color="#0a0a18"/>
  </linearGradient>
  <!-- Artillery black-chrome — cannon body -->
  <linearGradient id="artilleryr1x6826" x1="0%" y1="0%" x2="0%" y2="100%">
    <stop offset="0%"   stop-color="#383850"/>
    <stop offset="14%"  stop-color="#78789a"/>
    <stop offset="36%"  stop-color="#202034"/>
    <stop offset="65%"  stop-color="#14141e"/>
    <stop offset="100%" stop-color="#0a0a12"/>
  </linearGradient>
  <!-- Energy orb — staff -->
  <radialGradient id="orbr1x6826" cx="35%" cy="35%" r="65%">
    <stop offset="0%"   stop-color="rgba(255,255,255,.9)"/>
    <stop offset="30%"  stop-color="#c0c0d0"/>
    <stop offset="68%"  stop-color="#2c2c3c"/>
    <stop offset="100%" stop-color="rgba(0,0,0,.6)"/>
  </radialGradient>
  <!-- Knuckle plate chrome -->
  <linearGradient id="knuckler1x6826" x1="0%" y1="0%" x2="0%" y2="100%">
    <stop offset="0%"   stop-color="#888aaa"/>
    <stop offset="32%"  stop-color="#c0c0d0" stop-opacity=".8"/>
    <stop offset="62%"  stop-color="#1a1a2c"/>
    <stop offset="100%" stop-color="#0a0a14"/>
  </linearGradient>

  <!-- Carbon fibre weave texture overlay -->
  <pattern id="carbonr1x6826" width="6" height="6" patternUnits="userSpaceOnUse">
    <rect width="6" height="6" fill="rgba(0,0,0,.08)"/>
    <rect x="0" y="0" width="3" height="3" fill="rgba(255,255,255,.022)"/>
    <rect x="3" y="3" width="3" height="3" fill="rgba(255,255,255,.022)"/>
    <line x1="0" y1="0" x2="3" y2="3" stroke="rgba(255,255,255,.038)" stroke-width=".5"/>
    <line x1="3" y1="0" x2="6" y2="3" stroke="rgba(0,0,0,.055)"       stroke-width=".5"/>
    <line x1="0" y1="3" x2="3" y2="6" stroke="rgba(0,0,0,.055)"       stroke-width=".5"/>
    <line x1="3" y1="3" x2="6" y2="6" stroke="rgba(255,255,255,.038)" stroke-width=".5"/>
  </pattern>

  <!-- Specular metal sheen on armour panels -->
  <filter id="metalr1x6826" x="-5%" y="-5%" width="110%" height="110%">
    <feSpecularLighting surfaceScale="4" specularConstant="1.8"
        specularExponent="42" lighting-color="#ffffff" result="spec">
      <feDistantLight elevation="52" azimuth="38"/>
    </feSpecularLighting>
    <feComposite in="spec" in2="SourceGraphic" operator="in" result="sm"/>
    <feComposite in="SourceGraphic" in2="sm" operator="arithmetic" k1="0" k2="1" k3="0.55" k4="0"/>
  </filter>

  <!-- Sharper specular for weapons — heavier glare -->
  <filter id="wmr1x6826" x="-8%" y="-8%" width="116%" height="116%">
    <feSpecularLighting surfaceScale="6" specularConstant="2.4"
        specularExponent="65" lighting-color="#ffffff" result="spec">
      <feDistantLight elevation="44" azimuth="28"/>
    </feSpecularLighting>
    <feComposite in="spec" in2="SourceGraphic" operator="in" result="sm"/>
    <feComposite in="SourceGraphic" in2="sm" operator="arithmetic" k1="0" k2="1" k3="0.78" k4="0"/>
  </filter>

  <!-- Sketch wobble -->
  <filter id="skr1x6826" x="-8%" y="-8%" width="116%" height="116%">
    <feTurbulence type="fractalNoise" baseFrequency="0.038"
        numOctaves="3" seed="40" result="noise"/>
    <feDisplacementMap in="SourceGraphic" in2="noise" scale="2.6"
        xChannelSelector="R" yChannelSelector="G" result="w"/>
    <feComposite in="w" in2="SourceGraphic" operator="atop"/>
  </filter>

  <!-- Glow: sharp accent -->
  <filter id="glowr1x6826" x="-20%" y="-20%" width="140%" height="140%">
    <feGaussianBlur stdDeviation="3.5" result="b"/>
    <feColorMatrix in="b" type="matrix"
        values="0 0 0 0 1  0 0 0 0 1  0 0 0 0 1  0 0 0 1.8 0" result="boost"/>
    <feMerge><feMergeNode in="boost"/><feMergeNode in="SourceGraphic"/></feMerge>
  </filter>

  <!-- Bloom: wide soft -->
  <filter id="bloomr1x6826" x="-40%" y="-40%" width="180%" height="180%">
    <feGaussianBlur stdDeviation="11" result="b"/>
    <feMerge><feMergeNode in="b"/><feMergeNode in="SourceGraphic"/></feMerge>
  </filter>

  </defs><rect width="1000" height="1000" fill="url(#bgr1x6826)"/><polygon points="598.5592272365466,165.9444398013875 615.7581847421825,125.9126625424251 642.5280807521194,178.88962506782264" fill="#c0c0d0" fill-opacity=".055" stroke="#c0c0d0" stroke-opacity=".1" stroke-width="1"/><polygon points="512.9178944416344,214.69917444046587 532.3083259006962,181.18830081354827 559.240878874436,210.51167369354516" fill="#c0c0d0" fill-opacity=".055" stroke="#c0c0d0" stroke-opacity=".1" stroke-width="1"/><polygon points="191.60255732480437,340.9143559448421 222.39468770846725,301.1300382837653 249.50306273344904,347.88202926516533" fill="#c0c0d0" fill-opacity=".055" stroke="#c0c0d0" stroke-opacity=".1" stroke-width="1"/><polygon points="514.1470677405596,138.22832794394344 518.0507143102586,103.22597306035459 549.6845909422264,128.85115135926753" fill="#c0c0d0" fill-opacity=".055" stroke="#c0c0d0" stroke-opacity=".1" stroke-width="1"/><polygon points="933.7097365222871,299.4373536622152 956.8573935357854,260.7010660720989 979.2398108243942,299.4573121564463" fill="#c0c0d0" fill-opacity=".055" stroke="#c0c0d0" stroke-opacity=".1" stroke-width="1"/><polygon points="267.7391250291839,169.16358998976648 277.9185141324997,129.62742405757308 306.7142832400277,163.8063292996958" fill="#c0c0d0" fill-opacity=".055" stroke="#c0c0d0" stroke-opacity=".1" stroke-width="1"/><polygon points="158.6291206581518,408.49613544065505 168.82070397771895,378.08813020866364 201.2422624025494,422.65674396883696" fill="#c0c0d0" fill-opacity=".055" stroke="#c0c0d0" stroke-opacity=".1" stroke-width="1"/><polygon points="879.8501252895221,225.82596813794225 912.2482227887958,194.9410237353295 918.8011524062604,223.25929946731776" fill="#c0c0d0" fill-opacity=".055" stroke="#c0c0d0" stroke-opacity=".1" stroke-width="1"/><ellipse cx="500.0" cy="892.0" rx="350.0" ry="65.0" fill="rgba(0,0,0,.7)" filter="url(#bloomr1x6826)"/><ellipse cx="500.0" cy="889.0" rx="220.0" ry="34.0" fill="rgba(0,0,0,.45)"/><polygon points="397.1,661.6 488.7,661.0 481.2,876.4 386.7,876.1" fill="url(#suitr1x6826)" stroke="#c0c0d0" stroke-width="2.2" filter="url(#skr1x6826) url(#metalr1x6826)"/><polygon points="399.3,661.9 490.0,662.8 481.5,877.1 387.4,877.4" fill="url(#carbonr1x6826)"/><polygon points="393.9,724.3 493.1,722.4 484.7,789.4 384.7,788.3" fill="url(#bevelr1x6826)" fill-opacity=".5" stroke="#c0c0d0" stroke-width="1.4" filter="url(#skr1x6826)"/><polygon points="509.2,663.7 599.8,663.2 611.2,877.6 519.8,879.2" fill="url(#suitr1x6826)" stroke="#c0c0d0" stroke-width="2.2" filter="url(#skr1x6826) url(#metalr1x6826)"/><polygon points="509.7,662.2 600.4,663.8 611.4,877.7 519.2,877.1" fill="url(#carbonr1x6826)"/><polygon points="505.7,722.9 606.3,724.1 616.7,789.0 516.3,787.4" fill="url(#bevelr1x6826)" fill-opacity=".5" stroke="#c0c0d0" stroke-width="1.4" filter="url(#skr1x6826)"/><rect x="393.7" y="837.7" width="100.3" height="24.7" fill="url(#bevelr1x6826)" stroke="#c0c0d0" stroke-width="1" filter="url(#skr1x6826)"/><rect x="505.3"  y="839.6" width="100.3" height="24.7" fill="url(#bevelr1x6826)" stroke="#c0c0d0" stroke-width="1" filter="url(#skr1x6826)"/><polygon points="369.6,879.2 498.2,877.8 502.8,922.0 361.9,922.7" fill="#2c2c3c" stroke="#c0c0d0" stroke-width="2" filter="url(#skr1x6826)"/><polygon points="504.0,878.8 630.8,875.9 638.5,920.6 496.8,920.2" fill="#2c2c3c" stroke="#c0c0d0" stroke-width="2" filter="url(#skr1x6826)"/><polygon points="305.6,632.4 695.3,632.7 636.6,682.2 363.9,683.8" fill="#c0c0d0" fill-opacity=".52" stroke="#c0c0d0" stroke-width="2" filter="url(#skr1x6826)"/><rect x="463.1" y="639.7" width="72.0" height="42.0" fill="url(#bevelr1x6826)" stroke="#c0c0d0" stroke-width="1.4" filter="url(#glowr1x6826)"/><rect x="485.5" y="638.7" width="28.0" height="22.0" rx="1" fill="rgba(255,255,255,.48)"/><polygon points="154.2,467.7 236.3,468.2 258.3,736.5 126.6,735.1" fill="url(#suitr1x6826)" stroke="#c0c0d0" stroke-width="2.2" filter="url(#skr1x6826) url(#metalr1x6826)"/><polygon points="173.5,432.9 253.6,431.2 243.5,509.3 160.4,511.6" fill="url(#bevelr1x6826)" fill-opacity=".72" stroke="#c0c0d0" stroke-width="2.2" filter="url(#skr1x6826)"/><polygon points="161.8,620.6 243.7,621.4 239.8,660.2 166.2,659.6" fill="#c0c0d0" fill-opacity=".42" stroke="#c0c0d0" stroke-width="1" filter="url(#skr1x6826)"/><polygon points="766.8,467.7 848.3,465.3 871.7,734.0 743.3,733.2" fill="url(#suitr1x6826)" stroke="#c0c0d0" stroke-width="2.2" filter="url(#skr1x6826) url(#metalr1x6826)"/><polygon points="745.3,430.9 827.3,432.6 839.9,511.9 756.8,510.7" fill="url(#bevelr1x6826)" fill-opacity=".72" stroke="#c0c0d0" stroke-width="2.2" filter="url(#skr1x6826)"/><polygon points="755.1,622.5 839.3,620.6 835.2,662.4 762.2,661.6" fill="#c0c0d0" fill-opacity=".42" stroke="#c0c0d0" stroke-width="1" filter="url(#skr1x6826)"/><rect x="118.8"  y="698.5" width="135.3" height="85.0" rx="4" fill="url(#bevelr1x6826)" stroke="#c0c0d0" stroke-width="1.8" filter="url(#skr1x6826)"/><rect x="747.3"   y="698.9" width="135.3" height="85.0" rx="4" fill="url(#bevelr1x6826)" stroke="#c0c0d0" stroke-width="1.8" filter="url(#skr1x6826)"/><line x1="150.9" y1="700.4" x2="151.3" y2="784.6" stroke="#c0c0d0" stroke-opacity=".38" stroke-width="1"/><line x1="778.4" y1="702.9" x2="778.3" y2="782.7" stroke="#c0c0d0" stroke-opacity=".38" stroke-width="1"/><line x1="183.0" y1="703.2" x2="182.2" y2="784.9" stroke="#c0c0d0" stroke-opacity=".38" stroke-width="1"/><line x1="811.5" y1="701.2" x2="810.6" y2="783.8" stroke="#c0c0d0" stroke-opacity=".38" stroke-width="1"/><line x1="215.6" y1="701.6" x2="214.4" y2="785.5" stroke="#c0c0d0" stroke-opacity=".38" stroke-width="1"/><line x1="842.0" y1="701.1" x2="845.2" y2="784.3" stroke="#c0c0d0" stroke-opacity=".38" stroke-width="1"/><polygon points="236.3,417.5 764.2,418.6 724.4,663.9 277.8,660.8" fill="url(#suitr1x6826)" stroke="#c0c0d0" stroke-width="2.6" filter="url(#skr1x6826) url(#metalr1x6826)"/><polygon points="236.5,416.1 764.6,416.3 722.4,663.8 277.5,661.9" fill="url(#carbonr1x6826)"/><polygon points="368.1,418.3 633.8,418.5 610.7,515.4 387.1,516.4" fill="url(#suitHir1x6826)"/><line x1="360.8" y1="471.5" x2="637.1" y2="471.9" stroke="#c0c0d0" stroke-opacity=".52" stroke-width="1.3" filter="url(#skr1x6826)"/><line x1="399.9" y1="548.9" x2="601.3" y2="548.1" stroke="#c0c0d0" stroke-opacity=".52" stroke-width="1.3" filter="url(#skr1x6826)"/><line x1="267.0" y1="492.5" x2="319.9" y2="491.5" stroke="#c0c0d0" stroke-opacity=".62" stroke-width="1.8"/><line x1="681.0" y1="490.7" x2="734.0" y2="491.1" stroke="#c0c0d0" stroke-opacity=".62" stroke-width="1.8"/><line x1="265.1" y1="522.0" x2="320.0" y2="521.8" stroke="#c0c0d0" stroke-opacity=".62" stroke-width="1.8"/><line x1="678.7" y1="523.1" x2="733.5" y2="524.1" stroke="#c0c0d0" stroke-opacity=".62" stroke-width="1.8"/><line x1="267.6" y1="556.2" x2="319.5" y2="555.4" stroke="#c0c0d0" stroke-opacity=".62" stroke-width="1.8"/><line x1="680.2" y1="554.6" x2="733.8" y2="555.6" stroke="#c0c0d0" stroke-opacity=".62" stroke-width="1.8"/><line x1="265.1" y1="588.0" x2="320.3" y2="587.1" stroke="#c0c0d0" stroke-opacity=".62" stroke-width="1.8"/><line x1="679.7" y1="587.6" x2="732.9" y2="585.2" stroke="#c0c0d0" stroke-opacity=".62" stroke-width="1.8"/><g filter="url(#glowr1x6826)"><ellipse cx="500.0" cy="511.0" rx="42.9" ry="23.2" fill="#050d14" stroke="#c0c0d0" stroke-width="1.6" filter="url(#skr1x6826)"/><circle cx="501.2" cy="509.4" r="15.1" fill="#c0c0d0"/><circle cx="497.1" cy="507.3" r="5.8" fill="#050d14"/><ellipse cx="494.7" cy="503.3" rx="3.5" ry="2.3" fill="rgba(255,255,255,.7)"/></g><g><polygon points="828.5,291.9 969.5,293.8 967.9,589.8 899.2,725.6 828.7,590.0" fill="url(#titaniumr1x6826)" stroke="#c0c0d0" stroke-width="2.6" filter="url(#wmr1x6826)"/><polygon points="828.4,293.9 969.3,294.1 966.3,590.6 897.6,724.8 826.1,592.9" fill="url(#carbonr1x6826)"/><polygon points="859.1,362.8 936.4,360.7 934.5,539.7 897.2,630.6 861.2,541.0" fill="#c0c0d0" fill-opacity=".28" stroke="#c0c0d0" stroke-width="1.5"/><line x1="846.4394247829542" y1="430.48977254340423" x2="948.7088177110628" y2="432.7660560669377" stroke="#c0c0d0" stroke-opacity=".65" stroke-width="1.3"/><line x1="897.4773378577643" y1="331.89016273980957" x2="896.3000033070892" y2="590.1594657384791" stroke="#c0c0d0" stroke-opacity=".4" stroke-width="1"/><line x1="830.9086084866524" y1="297.0156003272161" x2="966.3446342926101" y2="297.5874547465704" stroke="rgba(255,255,255,.5)" stroke-width="2"/><circle cx="898.124317759797" cy="431.5531228560023" r="18.0" fill="url(#bevelr1x6826)" stroke="#c0c0d0" stroke-width="1.2" filter="url(#wmr1x6826)"/></g><rect x="450.77301009753717" y="557.101865671482" width="100.0"  height="56.0" fill="#2c2c3c" stroke="#c0c0d0" stroke-width="2.2" filter="url(#skr1x6826)"/><rect x="423.86782237002626" y="575.3949798237533" width="152.0" height="26.0" fill="url(#bevelr1x6826)" fill-opacity=".65" stroke="#c0c0d0" stroke-width="1.2" filter="url(#skr1x6826)"/><polygon points="309.5,380.2 352.0,295.1 501.2,278.9 648.0,295.9 693.3,380.1 668.4,504.9 498.8,564.1 332.6,505.2" fill="url(#suitr1x6826)" stroke="#c0c0d0" stroke-width="2.8" filter="url(#skr1x6826) url(#metalr1x6826)"/><polygon points="309.5,379.6 349.1,296.0 498.5,276.4 651.1,294.9 690.7,380.4 668.8,504.4 501.3,565.2 332.3,503.6" fill="url(#carbonr1x6826)"/><polygon points="381.5,301.1 500.1,286.4 618.8,301.3 609.2,380.4 392.0,380.6" fill="url(#suitHir1x6826)"/><polygon points="380.2,381.6 366.2,424.8 432.5,505.4 500.2,529.9 566.4,505.4 634.7,427.3 618.8,381.0" fill="#050d14" fill-opacity=".88" stroke="#c0c0d0" stroke-width="1.8" filter="url(#skr1x6826)"/><polygon points="382.0,411.5 478.5,410.1 483.7,441.6 387.7,439.2" fill="#c0c0d0" filter="url(#glowr1x6826)"/><polygon points="524.6,410.9 619.2,411.1 612.8,441.5 515.2,439.0" fill="#c0c0d0" filter="url(#glowr1x6826)"/><ellipse cx="430.9" cy="425.7" rx="38.4"  ry="8.2" fill="#ffffff" opacity=".88"/><ellipse cx="569.1" cy="425.7" rx="38.4"  ry="8.2" fill="#ffffff" opacity=".88"/><line x1="485.7137133062445" y1="413.04840234294534" x2="514.041134268362" y2="413.81117020742965" stroke="#c0c0d0" stroke-opacity=".52" stroke-width="2"/><line x1="483.2714912448637" y1="436.4441557290964" x2="514.6483871822618" y2="438.466436478775" stroke="#c0c0d0" stroke-opacity=".52" stroke-width="2"/><line x1="499.0518371066079" y1="453.21158008398487" x2="498.38245008578525" y2="481.79457497028636" stroke="#c0c0d0" stroke-opacity=".58" stroke-width="2.2" filter="url(#skr1x6826)"/><line x1="455.5108279500902" y1="490.83901347154745" x2="454.7415507733636" y2="518.3614455527626" stroke="#c0c0d0" stroke-opacity=".52" stroke-width="1.5" filter="url(#skr1x6826)"/><line x1="475.60959849845614" y1="490.25310974782326" x2="478.7205227557011" y2="518.806209605001" stroke="#c0c0d0" stroke-opacity=".52" stroke-width="1.5" filter="url(#skr1x6826)"/><line x1="501.47305743200707" y1="490.2056205809116" x2="499.5965047718957" y2="520.1080459052697" stroke="#c0c0d0" stroke-opacity=".52" stroke-width="1.5" filter="url(#skr1x6826)"/><line x1="521.3324715119413" y1="490.0850288030691" x2="521.7806282526441" y2="520.1629536868073" stroke="#c0c0d0" stroke-opacity=".52" stroke-width="1.5" filter="url(#skr1x6826)"/><line x1="547.3578372862377" y1="489.70727641209953" x2="544.6482934819721" y2="518.6323385647498" stroke="#c0c0d0" stroke-opacity=".52" stroke-width="1.5" filter="url(#skr1x6826)"/><polygon points="434.3,503.9 568.6,503.9 553.0,556.9 447.5,555.3" fill="#2c2c3c" fill-opacity=".72" stroke="#c0c0d0" stroke-width="1.3" filter="url(#skr1x6826)"/><polygon points="314.4,304.1 361.9,304.2 338.9,196.2" fill="url(#bevelr1x6826)" fill-opacity=".95" stroke="#c0c0d0" stroke-width="1.6" filter="url(#skr1x6826) url(#glowr1x6826)"/><polygon points="398.0,303.4 440.8,303.6 420.2,208.6" fill="url(#bevelr1x6826)" fill-opacity=".95" stroke="#c0c0d0" stroke-width="1.6" filter="url(#skr1x6826) url(#glowr1x6826)"/><polygon points="477.2,304.8 523.8,306.1 500.2,222.6" fill="url(#bevelr1x6826)" fill-opacity=".95" stroke="#c0c0d0" stroke-width="1.6" filter="url(#skr1x6826) url(#glowr1x6826)"/><polygon points="557.6,305.4 601.9,306.4 580.5,209.8" fill="url(#bevelr1x6826)" fill-opacity=".95" stroke="#c0c0d0" stroke-width="1.6" filter="url(#skr1x6826) url(#glowr1x6826)"/><polygon points="638.2,303.4 685.6,303.6 662.1,196.8" fill="url(#bevelr1x6826)" fill-opacity=".95" stroke="#c0c0d0" stroke-width="1.6" filter="url(#skr1x6826) url(#glowr1x6826)"/><text x="30.0"  y="975.0" font-family="monospace" font-weight="bold" font-size="22.0" fill="rgba(255,255,255,.22)">#0001</text><text x="500.0"   y="975.0" text-anchor="middle" font-family="monospace" font-weight="bold" font-size="22.0" fill="#c0c0d0" fill-opacity=".48">CHROME RANGER</text><text x="970.0" y="975.0" text-anchor="end"    font-family="monospace" font-weight="bold" font-size="22.0" fill="#c0c0d0" fill-opacity=".32">MECH RANGERS</text></svg>