<svg xmlns="http://www.w3.org/2000/svg" viewBox="0 0 1000 1000" width="1000" height="1000" shape-rendering="geometricPrecision"><defs>

  <!-- Scene gradients -->
  <radialGradient id="bgr1x6864" cx="50%" cy="42%" r="72%">
    <stop offset="0%"   stop-color="#0a0a14"/>
    <stop offset="100%" stop-color="#050508"/>
  </radialGradient>
  <linearGradient id="suitr1x6864" x1="8%" y1="0%" x2="92%" y2="100%">
    <stop offset="0%"   stop-color="#00ff60" stop-opacity=".95"/>
    <stop offset="45%"  stop-color="#00441e"/>
    <stop offset="100%" stop-color="#050508"/>
  </linearGradient>
  <linearGradient id="suitHir1x6864" x1="0%" y1="0%" x2="0%" y2="100%">
    <stop offset="0%"   stop-color="rgba(255,255,255,.28)"/>
    <stop offset="60%"  stop-color="rgba(255,255,255,.04)"/>
    <stop offset="100%" stop-color="rgba(255,255,255,0)"/>
  </linearGradient>
  <!-- Bevel: bright top, dark bottom for armour panels -->
  <linearGradient id="bevelr1x6864" x1="0%" y1="0%" x2="0%" y2="100%">
    <stop offset="0%"   stop-color="rgba(255,255,255,.55)"/>
    <stop offset="30%"  stop-color="#00ff60"/>
    <stop offset="70%"  stop-color="#00441e"/>
    <stop offset="100%" stop-color="rgba(0,0,0,.5)"/>
  </linearGradient>

  <!-- Weapon: cold steel blade sweep -->
  <linearGradient id="blader1x6864" x1="0%" y1="0%" x2="100%" y2="0%">
    <stop offset="0%"   stop-color="#0e0e20"/>
    <stop offset="16%"  stop-color="#3e3e58"/>
    <stop offset="34%"  stop-color="#c8c8e0"/>
    <stop offset="50%"  stop-color="#f5f5ff"/>
    <stop offset="66%"  stop-color="#b8b8d0"/>
    <stop offset="84%"  stop-color="#2e2e48"/>
    <stop offset="100%" stop-color="#08080e"/>
  </linearGradient>
  <!-- Blade tip brightening -->
  <linearGradient id="bladeTipr1x6864" x1="0%" y1="100%" x2="0%" y2="0%">
    <stop offset="0%"   stop-color="rgba(255,255,255,0)"/>
    <stop offset="55%"  stop-color="rgba(255,255,255,.1)"/>
    <stop offset="100%" stop-color="rgba(255,255,255,.55)"/>
  </linearGradient>
  <!-- Gunmetal anodised — blaster body -->
  <linearGradient id="gunmetalr1x6864" x1="0%" y1="0%" x2="0%" y2="100%">
    <stop offset="0%"   stop-color="#46465e"/>
    <stop offset="18%"  stop-color="#828296"/>
    <stop offset="42%"  stop-color="#26263a"/>
    <stop offset="72%"  stop-color="#16162a"/>
    <stop offset="100%" stop-color="#0c0c18"/>
  </linearGradient>
  <!-- Brushed steel tube — barrel/rod -->
  <linearGradient id="barrelr1x6864" x1="0%" y1="0%" x2="100%" y2="0%">
    <stop offset="0%"   stop-color="#0a0a14"/>
    <stop offset="24%"  stop-color="#585875"/>
    <stop offset="50%"  stop-color="#a8a8c8"/>
    <stop offset="76%"  stop-color="#383852"/>
    <stop offset="100%" stop-color="#0a0a14"/>
  </linearGradient>
  <!-- Chrome rod — lance shaft -->
  <linearGradient id="chromer1x6864" x1="0%" y1="0%" x2="100%" y2="0%">
    <stop offset="0%"   stop-color="#0c0c18"/>
    <stop offset="20%"  stop-color="#686888"/>
    <stop offset="44%"  stop-color="#e0e0f0"/>
    <stop offset="56%"  stop-color="#c0c0d8"/>
    <stop offset="80%"  stop-color="#28283e"/>
    <stop offset="100%" stop-color="#0c0c18"/>
  </linearGradient>
  <!-- Titanium plate — shield face -->
  <linearGradient id="titaniumr1x6864" x1="0%" y1="0%" x2="100%" y2="100%">
    <stop offset="0%"   stop-color="#585878"/>
    <stop offset="28%"  stop-color="#00ff60" stop-opacity=".88"/>
    <stop offset="55%"  stop-color="#00441e"/>
    <stop offset="80%"  stop-color="#181828"/>
    <stop offset="100%" stop-color="#0a0a18"/>
  </linearGradient>
  <!-- Artillery black-chrome — cannon body -->
  <linearGradient id="artilleryr1x6864" x1="0%" y1="0%" x2="0%" y2="100%">
    <stop offset="0%"   stop-color="#383850"/>
    <stop offset="14%"  stop-color="#78789a"/>
    <stop offset="36%"  stop-color="#202034"/>
    <stop offset="65%"  stop-color="#14141e"/>
    <stop offset="100%" stop-color="#0a0a12"/>
  </linearGradient>
  <!-- Energy orb — staff -->
  <radialGradient id="orbr1x6864" cx="35%" cy="35%" r="65%">
    <stop offset="0%"   stop-color="rgba(255,255,255,.9)"/>
    <stop offset="30%"  stop-color="#00ff60"/>
    <stop offset="68%"  stop-color="#00441e"/>
    <stop offset="100%" stop-color="rgba(0,0,0,.6)"/>
  </radialGradient>
  <!-- Knuckle plate chrome -->
  <linearGradient id="knuckler1x6864" x1="0%" y1="0%" x2="0%" y2="100%">
    <stop offset="0%"   stop-color="#888aaa"/>
    <stop offset="32%"  stop-color="#00ff60" stop-opacity=".8"/>
    <stop offset="62%"  stop-color="#1a1a2c"/>
    <stop offset="100%" stop-color="#0a0a14"/>
  </linearGradient>

  <!-- Carbon fibre weave texture overlay -->
  <pattern id="carbonr1x6864" width="6" height="6" patternUnits="userSpaceOnUse">
    <rect width="6" height="6" fill="rgba(0,0,0,.08)"/>
    <rect x="0" y="0" width="3" height="3" fill="rgba(255,255,255,.022)"/>
    <rect x="3" y="3" width="3" height="3" fill="rgba(255,255,255,.022)"/>
    <line x1="0" y1="0" x2="3" y2="3" stroke="rgba(255,255,255,.038)" stroke-width=".5"/>
    <line x1="3" y1="0" x2="6" y2="3" stroke="rgba(0,0,0,.055)"       stroke-width=".5"/>
    <line x1="0" y1="3" x2="3" y2="6" stroke="rgba(0,0,0,.055)"       stroke-width=".5"/>
    <line x1="3" y1="3" x2="6" y2="6" stroke="rgba(255,255,255,.038)" stroke-width=".5"/>
  </pattern>

  <!-- Specular metal sheen on armour panels -->
  <filter id="metalr1x6864" x="-5%" y="-5%" width="110%" height="110%">
    <feSpecularLighting surfaceScale="4" specularConstant="1.8"
        specularExponent="42" lighting-color="#ffffff" result="spec">
      <feDistantLight elevation="52" azimuth="38"/>
    </feSpecularLighting>
    <feComposite in="spec" in2="SourceGraphic" operator="in" result="sm"/>
    <feComposite in="SourceGraphic" in2="sm" operator="arithmetic" k1="0" k2="1" k3="0.55" k4="0"/>
  </filter>

  <!-- Sharper specular for weapons — heavier glare -->
  <filter id="wmr1x6864" x="-8%" y="-8%" width="116%" height="116%">
    <feSpecularLighting surfaceScale="6" specularConstant="2.4"
        specularExponent="65" lighting-color="#ffffff" result="spec">
      <feDistantLight elevation="44" azimuth="28"/>
    </feSpecularLighting>
    <feComposite in="spec" in2="SourceGraphic" operator="in" result="sm"/>
    <feComposite in="SourceGraphic" in2="sm" operator="arithmetic" k1="0" k2="1" k3="0.78" k4="0"/>
  </filter>

  <!-- Sketch wobble -->
  <filter id="skr1x6864" x="-8%" y="-8%" width="116%" height="116%">
    <feTurbulence type="fractalNoise" baseFrequency="0.038"
        numOctaves="3" seed="70" result="noise"/>
    <feDisplacementMap in="SourceGraphic" in2="noise" scale="2.6"
        xChannelSelector="R" yChannelSelector="G" result="w"/>
    <feComposite in="w" in2="SourceGraphic" operator="atop"/>
  </filter>

  <!-- Glow: sharp accent -->
  <filter id="glowr1x6864" x="-20%" y="-20%" width="140%" height="140%">
    <feGaussianBlur stdDeviation="3.5" result="b"/>
    <feColorMatrix in="b" type="matrix"
        values="0 0 0 0 1  0 0 0 0 1  0 0 0 0 1  0 0 0 1.8 0" result="boost"/>
    <feMerge><feMergeNode in="boost"/><feMergeNode in="SourceGraphic"/></feMerge>
  </filter>

  <!-- Bloom: wide soft -->
  <filter id="bloomr1x6864" x="-40%" y="-40%" width="180%" height="180%">
    <feGaussianBlur stdDeviation="11" result="b"/>
    <feMerge><feMergeNode in="b"/><feMergeNode in="SourceGraphic"/></feMerge>
  </filter>

  </defs><rect width="1000" height="1000" fill="url(#bgr1x6864)"/><ellipse cx="500.0" cy="892.0" rx="350.0" ry="65.0" fill="rgba(0,0,0,.7)" filter="url(#bloomr1x6864)"/><ellipse cx="500.0" cy="889.0" rx="220.0" ry="34.0" fill="rgba(0,0,0,.45)"/><ellipse cx="500.0" cy="520.0" rx="320.0" ry="480.0" fill="#6600ff" fill-opacity=".042" filter="url(#bloomr1x6864)"/><circle cx="621.4" cy="571.3" r="2.8" fill="#6600ff" fill-opacity="0.65" filter="url(#glowr1x6864)"/><circle cx="465.3" cy="716.0" r="3.5" fill="#6600ff" fill-opacity="0.74" filter="url(#glowr1x6864)"/><circle cx="432.8" cy="188.6" r="1.7" fill="#6600ff" fill-opacity="0.77" filter="url(#glowr1x6864)"/><circle cx="708.6" cy="304.3" r="3.1" fill="#6600ff" fill-opacity="0.58" filter="url(#glowr1x6864)"/><circle cx="347.5" cy="714.0" r="3.0" fill="#6600ff" fill-opacity="0.89" filter="url(#glowr1x6864)"/><circle cx="397.5" cy="572.5" r="1.3" fill="#6600ff" fill-opacity="0.44" filter="url(#glowr1x6864)"/><circle cx="737.1" cy="359.1" r="3.3" fill="#6600ff" fill-opacity="0.45" filter="url(#glowr1x6864)"/><circle cx="566.2" cy="614.6" r="4.2" fill="#6600ff" fill-opacity="0.70" filter="url(#glowr1x6864)"/><circle cx="723.5" cy="773.4" r="0.6" fill="#6600ff" fill-opacity="0.64" filter="url(#glowr1x6864)"/><circle cx="456.0" cy="759.9" r="1.0" fill="#6600ff" fill-opacity="0.53" filter="url(#glowr1x6864)"/><circle cx="299.3" cy="381.9" r="1.3" fill="#6600ff" fill-opacity="0.42" filter="url(#glowr1x6864)"/><circle cx="620.7" cy="417.9" r="0.9" fill="#6600ff" fill-opacity="0.54" filter="url(#glowr1x6864)"/><circle cx="381.3" cy="463.9" r="3.7" fill="#6600ff" fill-opacity="0.38" filter="url(#glowr1x6864)"/><circle cx="423.0" cy="728.6" r="1.8" fill="#6600ff" fill-opacity="0.39" filter="url(#glowr1x6864)"/><polygon points="400.2,661.9 489.8,663.1 479.4,877.4 386.3,879.0" fill="url(#suitr1x6864)" stroke="#00ff60" stroke-width="2.2" filter="url(#skr1x6864) url(#metalr1x6864)"/><polygon points="397.6,662.6 488.0,663.1 482.3,877.3 388.4,879.1" fill="url(#carbonr1x6864)"/><polygon points="390.9,725.5 492.2,723.0 484.7,788.6 383.0,787.6" fill="url(#bevelr1x6864)" fill-opacity=".5" stroke="#00ff60" stroke-width="1.4" filter="url(#skr1x6864)"/><polygon points="512.0,663.8 601.8,662.1 610.9,878.5 519.9,878.2" fill="url(#suitr1x6864)" stroke="#00ff60" stroke-width="2.2" filter="url(#skr1x6864) url(#metalr1x6864)"/><polygon points="511.6,662.4 600.0,662.3 613.0,878.7 520.7,876.2" fill="url(#carbonr1x6864)"/><polygon points="506.9,723.4 609.0,722.6 615.2,789.7 517.3,787.3" fill="url(#bevelr1x6864)" fill-opacity=".5" stroke="#00ff60" stroke-width="1.4" filter="url(#skr1x6864)"/><rect x="391.7" y="837.4" width="100.3" height="24.7" fill="url(#bevelr1x6864)" stroke="#00ff60" stroke-width="1" filter="url(#skr1x6864)"/><rect x="506.1"  y="840.3" width="100.3" height="24.7" fill="url(#bevelr1x6864)" stroke="#00ff60" stroke-width="1" filter="url(#skr1x6864)"/><polygon points="371.0,877.3 497.3,877.3 504.5,921.7 364.2,920.4" fill="#00441e" stroke="#00ff60" stroke-width="2" filter="url(#skr1x6864)"/><polygon points="503.6,878.4 630.7,879.2 636.4,921.8 496.8,921.0" fill="#00441e" stroke="#00ff60" stroke-width="2" filter="url(#skr1x6864)"/><polygon points="302.3,633.0 695.1,633.8 639.0,681.3 360.8,681.2" fill="#00ff60" fill-opacity=".52" stroke="#00ff60" stroke-width="2" filter="url(#skr1x6864)"/><rect x="462.3" y="639.5" width="72.0" height="42.0" fill="url(#bevelr1x6864)" stroke="#00ff60" stroke-width="1.4" filter="url(#glowr1x6864)"/><rect x="487.1" y="641.4" width="28.0" height="22.0" rx="1" fill="rgba(255,255,255,.48)"/><polygon points="154.5,467.0 236.2,466.3 257.2,734.6 128.9,736.8" fill="url(#suitr1x6864)" stroke="#00ff60" stroke-width="2.2" filter="url(#skr1x6864) url(#metalr1x6864)"/><polygon points="174.9,433.6 254.2,431.1 243.8,510.4 160.3,512.3" fill="url(#bevelr1x6864)" fill-opacity=".72" stroke="#00ff60" stroke-width="2.2" filter="url(#skr1x6864)"/><polygon points="160.6,622.0 242.0,620.4 239.3,661.8 165.1,662.1" fill="#00ff60" fill-opacity=".42" stroke="#00ff60" stroke-width="1" filter="url(#skr1x6864)"/><polygon points="763.9,465.1 847.2,467.6 870.6,733.8 741.6,736.5" fill="url(#suitr1x6864)" stroke="#00ff60" stroke-width="2.2" filter="url(#skr1x6864) url(#metalr1x6864)"/><polygon points="746.6,432.2 828.0,434.0 840.8,509.1 756.1,510.1" fill="url(#bevelr1x6864)" fill-opacity=".72" stroke="#00ff60" stroke-width="2.2" filter="url(#skr1x6864)"/><polygon points="757.4,622.8 837.4,622.1 833.9,660.2 761.0,662.6" fill="#00ff60" fill-opacity=".42" stroke="#00ff60" stroke-width="1" filter="url(#skr1x6864)"/><rect x="120.5"  y="701.6" width="135.3" height="85.0" rx="4" fill="url(#bevelr1x6864)" stroke="#00ff60" stroke-width="1.8" filter="url(#skr1x6864)"/><rect x="747.8"   y="699.0" width="135.3" height="85.0" rx="4" fill="url(#bevelr1x6864)" stroke="#00ff60" stroke-width="1.8" filter="url(#skr1x6864)"/><line x1="149.7" y1="700.8" x2="149.1" y2="784.8" stroke="#00ff60" stroke-opacity=".38" stroke-width="1"/><line x1="779.0" y1="703.6" x2="779.3" y2="785.0" stroke="#00ff60" stroke-opacity=".38" stroke-width="1"/><line x1="182.1" y1="700.8" x2="182.1" y2="783.7" stroke="#00ff60" stroke-opacity=".38" stroke-width="1"/><line x1="809.3" y1="702.8" x2="810.3" y2="783.9" stroke="#00ff60" stroke-opacity=".38" stroke-width="1"/><line x1="213.6" y1="703.2" x2="215.6" y2="782.5" stroke="#00ff60" stroke-opacity=".38" stroke-width="1"/><line x1="843.0" y1="701.3" x2="844.0" y2="784.4" stroke="#00ff60" stroke-opacity=".38" stroke-width="1"/><polygon points="235.6,418.9 763.4,417.5 721.0,663.5 278.6,663.2" fill="url(#suitr1x6864)" stroke="#00ff60" stroke-width="2.6" filter="url(#skr1x6864) url(#metalr1x6864)"/><polygon points="235.5,416.8 764.6,418.3 721.9,661.9 278.9,661.4" fill="url(#carbonr1x6864)"/><polygon points="365.9,419.2 633.4,416.8 611.1,515.1 389.2,514.5" fill="url(#suitHir1x6864)"/><line x1="361.5" y1="470.1" x2="638.2" y2="471.5" stroke="#00ff60" stroke-opacity=".52" stroke-width="1.3" filter="url(#skr1x6864)"/><line x1="397.6" y1="551.5" x2="600.0" y2="550.2" stroke="#00ff60" stroke-opacity=".52" stroke-width="1.3" filter="url(#skr1x6864)"/><line x1="265.8" y1="490.7" x2="318.8" y2="489.3" stroke="#00ff60" stroke-opacity=".62" stroke-width="1.8"/><line x1="679.8" y1="492.4" x2="732.8" y2="489.6" stroke="#00ff60" stroke-opacity=".62" stroke-width="1.8"/><line x1="268.1" y1="522.3" x2="321.5" y2="521.7" stroke="#00ff60" stroke-opacity=".62" stroke-width="1.8"/><line x1="681.0" y1="522.2" x2="733.0" y2="521.4" stroke="#00ff60" stroke-opacity=".62" stroke-width="1.8"/><line x1="265.4" y1="554.2" x2="320.1" y2="554.9" stroke="#00ff60" stroke-opacity=".62" stroke-width="1.8"/><line x1="678.6" y1="556.2" x2="732.6" y2="553.5" stroke="#00ff60" stroke-opacity=".62" stroke-width="1.8"/><line x1="266.2" y1="584.8" x2="318.1" y2="586.2" stroke="#00ff60" stroke-opacity=".62" stroke-width="1.8"/><line x1="681.4" y1="586.8" x2="734.5" y2="586.2" stroke="#00ff60" stroke-opacity=".62" stroke-width="1.8"/><g filter="url(#glowr1x6864)"><ellipse cx="501.7" cy="510.1" rx="42.9" ry="23.2" fill="#050508" stroke="#00ff60" stroke-width="1.6" filter="url(#skr1x6864)"/><circle cx="501.2" cy="510.4" r="15.1" fill="#00ff60"/><circle cx="496.3" cy="505.9" r="5.8" fill="#050508"/><ellipse cx="496.9" cy="506.5" rx="3.5" ry="2.3" fill="rgba(255,255,255,.7)"/></g><g><rect x="829.7616385620646" y="421.34438179265703" width="148.0" height="82.0" rx="5" fill="url(#gunmetalr1x6864)" stroke="#00ff60" stroke-width="2" filter="url(#wmr1x6864)"/><rect x="830.0092198408768" y="420.20232096267864" width="148.0" height="82.0" rx="5" fill="url(#carbonr1x6864)"/><rect x="836.9631433021837" y="404.7861822888255" width="90.0" height="22.0" rx="3" fill="url(#barrelr1x6864)" stroke="#00ff60" stroke-width="1" filter="url(#wmr1x6864)"/><circle cx="877.2171684037522" cy="413.87650562059133" r="15.0" fill="#00ff60" opacity=".8" filter="url(#glowr1x6864)"/><circle cx="878.0238008470834" cy="415.87369476258755" r="6.0" fill="rgba(255,255,255,.9)"/><rect x="946.3651717667095" y="456.63254335988313" width="78.0" height="36.0" rx="5" fill="url(#barrelr1x6864)" stroke="#00ff60" stroke-width="1.2" filter="url(#wmr1x6864)"/><circle cx="1019.9823719143495" cy="469.66502053681756" r="18.0" fill="#00ff60" filter="url(#glowr1x6864)" opacity=".88"/><circle cx="1020.8098315522634" cy="470.6088295956142" r="7.0" fill="#ffffff"/><rect x="874.5075594926813" y="500.9938376067206" width="44.0" height="42.0" rx="3" fill="url(#gunmetalr1x6864)" stroke="#00ff60" stroke-width="1" filter="url(#wmr1x6864)"/><rect x="834.3255436095037" y="422.69946196377276" width="90.0" height="10.0" rx="2" fill="rgba(255,255,255,.22)"/><line x1="856.1567349037715" y1="487.3385542752221" x2="856.96412989242" y2="519.5437454006634" stroke="#00ff60" stroke-opacity=".5" stroke-width="1.2"/><line x1="875.3671055387333" y1="484.85873635895547" x2="872.0564238715544" y2="519.5231502900831" stroke="#00ff60" stroke-opacity=".5" stroke-width="1.2"/><line x1="888.6453007703275" y1="486.4999292449094" x2="890.309053021446" y2="520.1752610945142" stroke="#00ff60" stroke-opacity=".5" stroke-width="1.2"/></g><rect x="450.88723507896066" y="558.0622203581967" width="100.0"  height="56.0" fill="#00441e" stroke="#00ff60" stroke-width="2.2" filter="url(#skr1x6864)"/><rect x="423.9118831206113" y="576.0903157189489" width="152.0" height="26.0" fill="url(#bevelr1x6864)" fill-opacity=".65" stroke="#00ff60" stroke-width="1.2" filter="url(#skr1x6864)"/><polygon points="308.5,378.8 349.6,294.8 499.2,276.5 651.4,294.3 691.3,382.2 667.7,502.4 499.2,566.8 330.0,503.5" fill="url(#suitr1x6864)" stroke="#00ff60" stroke-width="2.8" filter="url(#skr1x6864) url(#metalr1x6864)"/><polygon points="309.6,382.2 351.3,293.4 498.7,279.6 649.8,293.6 690.4,381.7 670.2,505.2 499.7,566.3 332.2,502.7" fill="url(#carbonr1x6864)"/><polygon points="382.2,302.5 499.0,285.4 619.4,304.1 608.8,380.1 392.6,378.8" fill="url(#suitHir1x6864)"/><polygon points="380.9,378.9 366.2,426.3 433.3,504.1 500.1,528.5 566.6,503.9 634.0,426.9 620.7,379.7" fill="#050508" fill-opacity=".88" stroke="#00ff60" stroke-width="1.8" filter="url(#skr1x6864)"/><polygon points="381.4,412.1 477.0,409.9 485.2,441.5 389.3,438.7" fill="#00ff60" filter="url(#glowr1x6864)"/><polygon points="523.5,412.3 619.8,412.0 612.2,439.6 517.0,440.4" fill="#00ff60" filter="url(#glowr1x6864)"/><ellipse cx="430.9" cy="425.7" rx="38.4"  ry="8.2" fill="#ffffff" opacity=".88"/><ellipse cx="569.1" cy="425.7" rx="38.4"  ry="8.2" fill="#ffffff" opacity=".88"/><line x1="483.7208918013237" y1="415.14122707396746" x2="515.509310445413" y2="413.154485126026" stroke="#00ff60" stroke-opacity=".52" stroke-width="2"/><line x1="485.6793112498335" y1="438.5015558861196" x2="515.9348125597835" y2="436.68821266321464" stroke="#00ff60" stroke-opacity=".52" stroke-width="2"/><line x1="498.418859952502" y1="453.0433187933638" x2="499.4646005872637" y2="483.6753645282239" stroke="#00ff60" stroke-opacity=".58" stroke-width="2.2" filter="url(#skr1x6864)"/><line x1="452.90379453578964" y1="491.24932475937527" x2="454.57106419892983" y2="521.4054226474836" stroke="#00ff60" stroke-opacity=".52" stroke-width="1.5" filter="url(#skr1x6864)"/><line x1="476.10123166631905" y1="491.8895612074062" x2="477.0905684705265" y2="518.3302112120203" stroke="#00ff60" stroke-opacity=".52" stroke-width="1.5" filter="url(#skr1x6864)"/><line x1="501.2990726769902" y1="492.55444788467133" x2="499.8314231709577" y2="518.3777520231903" stroke="#00ff60" stroke-opacity=".52" stroke-width="1.5" filter="url(#skr1x6864)"/><line x1="522.6633813611791" y1="490.62233748761935" x2="522.50464702636" y2="519.706681724079" stroke="#00ff60" stroke-opacity=".52" stroke-width="1.5" filter="url(#skr1x6864)"/><line x1="546.7706239848584" y1="491.9048851402476" x2="547.3751003866271" y2="518.5468077698722" stroke="#00ff60" stroke-opacity=".52" stroke-width="1.5" filter="url(#skr1x6864)"/><polygon points="434.2,503.5 568.7,502.6 552.5,556.6 445.7,555.6" fill="#00441e" fill-opacity=".72" stroke="#00ff60" stroke-width="1.3" filter="url(#skr1x6864)"/><text x="30.0"  y="975.0" font-family="monospace" font-weight="bold" font-size="22.0" fill="rgba(255,255,255,.22)">#0001</text><text x="500.0"   y="975.0" text-anchor="middle" font-family="monospace" font-weight="bold" font-size="22.0" fill="#00ff60" fill-opacity=".48">VIPER RANGER</text><text x="970.0" y="975.0" text-anchor="end"    font-family="monospace" font-weight="bold" font-size="22.0" fill="#00ff60" fill-opacity=".32">MECH RANGERS</text></svg>