<svg xmlns="http://www.w3.org/2000/svg" viewBox="0 0 1000 1000" width="1000" height="1000" shape-rendering="geometricPrecision"><defs>

  <!-- Scene gradients -->
  <radialGradient id="bgr1x6871" cx="50%" cy="42%" r="72%">
    <stop offset="0%"   stop-color="#1a2814"/>
    <stop offset="100%" stop-color="#0d1520"/>
  </radialGradient>
  <linearGradient id="suitr1x6871" x1="8%" y1="0%" x2="92%" y2="100%">
    <stop offset="0%"   stop-color="#ff44aa" stop-opacity=".95"/>
    <stop offset="45%"  stop-color="#880050"/>
    <stop offset="100%" stop-color="#0d1520"/>
  </linearGradient>
  <linearGradient id="suitHir1x6871" x1="0%" y1="0%" x2="0%" y2="100%">
    <stop offset="0%"   stop-color="rgba(255,255,255,.28)"/>
    <stop offset="60%"  stop-color="rgba(255,255,255,.04)"/>
    <stop offset="100%" stop-color="rgba(255,255,255,0)"/>
  </linearGradient>
  <!-- Bevel: bright top, dark bottom for armour panels -->
  <linearGradient id="bevelr1x6871" x1="0%" y1="0%" x2="0%" y2="100%">
    <stop offset="0%"   stop-color="rgba(255,255,255,.55)"/>
    <stop offset="30%"  stop-color="#ff44aa"/>
    <stop offset="70%"  stop-color="#880050"/>
    <stop offset="100%" stop-color="rgba(0,0,0,.5)"/>
  </linearGradient>

  <!-- Weapon: cold steel blade sweep -->
  <linearGradient id="blader1x6871" x1="0%" y1="0%" x2="100%" y2="0%">
    <stop offset="0%"   stop-color="#0e0e20"/>
    <stop offset="16%"  stop-color="#3e3e58"/>
    <stop offset="34%"  stop-color="#c8c8e0"/>
    <stop offset="50%"  stop-color="#f5f5ff"/>
    <stop offset="66%"  stop-color="#b8b8d0"/>
    <stop offset="84%"  stop-color="#2e2e48"/>
    <stop offset="100%" stop-color="#08080e"/>
  </linearGradient>
  <!-- Blade tip brightening -->
  <linearGradient id="bladeTipr1x6871" x1="0%" y1="100%" x2="0%" y2="0%">
    <stop offset="0%"   stop-color="rgba(255,255,255,0)"/>
    <stop offset="55%"  stop-color="rgba(255,255,255,.1)"/>
    <stop offset="100%" stop-color="rgba(255,255,255,.55)"/>
  </linearGradient>
  <!-- Gunmetal anodised — blaster body -->
  <linearGradient id="gunmetalr1x6871" x1="0%" y1="0%" x2="0%" y2="100%">
    <stop offset="0%"   stop-color="#46465e"/>
    <stop offset="18%"  stop-color="#828296"/>
    <stop offset="42%"  stop-color="#26263a"/>
    <stop offset="72%"  stop-color="#16162a"/>
    <stop offset="100%" stop-color="#0c0c18"/>
  </linearGradient>
  <!-- Brushed steel tube — barrel/rod -->
  <linearGradient id="barrelr1x6871" x1="0%" y1="0%" x2="100%" y2="0%">
    <stop offset="0%"   stop-color="#0a0a14"/>
    <stop offset="24%"  stop-color="#585875"/>
    <stop offset="50%"  stop-color="#a8a8c8"/>
    <stop offset="76%"  stop-color="#383852"/>
    <stop offset="100%" stop-color="#0a0a14"/>
  </linearGradient>
  <!-- Chrome rod — lance shaft -->
  <linearGradient id="chromer1x6871" x1="0%" y1="0%" x2="100%" y2="0%">
    <stop offset="0%"   stop-color="#0c0c18"/>
    <stop offset="20%"  stop-color="#686888"/>
    <stop offset="44%"  stop-color="#e0e0f0"/>
    <stop offset="56%"  stop-color="#c0c0d8"/>
    <stop offset="80%"  stop-color="#28283e"/>
    <stop offset="100%" stop-color="#0c0c18"/>
  </linearGradient>
  <!-- Titanium plate — shield face -->
  <linearGradient id="titaniumr1x6871" x1="0%" y1="0%" x2="100%" y2="100%">
    <stop offset="0%"   stop-color="#585878"/>
    <stop offset="28%"  stop-color="#ff44aa" stop-opacity=".88"/>
    <stop offset="55%"  stop-color="#880050"/>
    <stop offset="80%"  stop-color="#181828"/>
    <stop offset="100%" stop-color="#0a0a18"/>
  </linearGradient>
  <!-- Artillery black-chrome — cannon body -->
  <linearGradient id="artilleryr1x6871" x1="0%" y1="0%" x2="0%" y2="100%">
    <stop offset="0%"   stop-color="#383850"/>
    <stop offset="14%"  stop-color="#78789a"/>
    <stop offset="36%"  stop-color="#202034"/>
    <stop offset="65%"  stop-color="#14141e"/>
    <stop offset="100%" stop-color="#0a0a12"/>
  </linearGradient>
  <!-- Energy orb — staff -->
  <radialGradient id="orbr1x6871" cx="35%" cy="35%" r="65%">
    <stop offset="0%"   stop-color="rgba(255,255,255,.9)"/>
    <stop offset="30%"  stop-color="#ff44aa"/>
    <stop offset="68%"  stop-color="#880050"/>
    <stop offset="100%" stop-color="rgba(0,0,0,.6)"/>
  </radialGradient>
  <!-- Knuckle plate chrome -->
  <linearGradient id="knuckler1x6871" x1="0%" y1="0%" x2="0%" y2="100%">
    <stop offset="0%"   stop-color="#888aaa"/>
    <stop offset="32%"  stop-color="#ff44aa" stop-opacity=".8"/>
    <stop offset="62%"  stop-color="#1a1a2c"/>
    <stop offset="100%" stop-color="#0a0a14"/>
  </linearGradient>

  <!-- Carbon fibre weave texture overlay -->
  <pattern id="carbonr1x6871" width="6" height="6" patternUnits="userSpaceOnUse">
    <rect width="6" height="6" fill="rgba(0,0,0,.08)"/>
    <rect x="0" y="0" width="3" height="3" fill="rgba(255,255,255,.022)"/>
    <rect x="3" y="3" width="3" height="3" fill="rgba(255,255,255,.022)"/>
    <line x1="0" y1="0" x2="3" y2="3" stroke="rgba(255,255,255,.038)" stroke-width=".5"/>
    <line x1="3" y1="0" x2="6" y2="3" stroke="rgba(0,0,0,.055)"       stroke-width=".5"/>
    <line x1="0" y1="3" x2="3" y2="6" stroke="rgba(0,0,0,.055)"       stroke-width=".5"/>
    <line x1="3" y1="3" x2="6" y2="6" stroke="rgba(255,255,255,.038)" stroke-width=".5"/>
  </pattern>

  <!-- Specular metal sheen on armour panels -->
  <filter id="metalr1x6871" x="-5%" y="-5%" width="110%" height="110%">
    <feSpecularLighting surfaceScale="4" specularConstant="1.8"
        specularExponent="42" lighting-color="#ffffff" result="spec">
      <feDistantLight elevation="52" azimuth="38"/>
    </feSpecularLighting>
    <feComposite in="spec" in2="SourceGraphic" operator="in" result="sm"/>
    <feComposite in="SourceGraphic" in2="sm" operator="arithmetic" k1="0" k2="1" k3="0.55" k4="0"/>
  </filter>

  <!-- Sharper specular for weapons — heavier glare -->
  <filter id="wmr1x6871" x="-8%" y="-8%" width="116%" height="116%">
    <feSpecularLighting surfaceScale="6" specularConstant="2.4"
        specularExponent="65" lighting-color="#ffffff" result="spec">
      <feDistantLight elevation="44" azimuth="28"/>
    </feSpecularLighting>
    <feComposite in="spec" in2="SourceGraphic" operator="in" result="sm"/>
    <feComposite in="SourceGraphic" in2="sm" operator="arithmetic" k1="0" k2="1" k3="0.78" k4="0"/>
  </filter>

  <!-- Sketch wobble -->
  <filter id="skr1x6871" x="-8%" y="-8%" width="116%" height="116%">
    <feTurbulence type="fractalNoise" baseFrequency="0.038"
        numOctaves="3" seed="17" result="noise"/>
    <feDisplacementMap in="SourceGraphic" in2="noise" scale="2.6"
        xChannelSelector="R" yChannelSelector="G" result="w"/>
    <feComposite in="w" in2="SourceGraphic" operator="atop"/>
  </filter>

  <!-- Glow: sharp accent -->
  <filter id="glowr1x6871" x="-20%" y="-20%" width="140%" height="140%">
    <feGaussianBlur stdDeviation="3.5" result="b"/>
    <feColorMatrix in="b" type="matrix"
        values="0 0 0 0 1  0 0 0 0 1  0 0 0 0 1  0 0 0 1.8 0" result="boost"/>
    <feMerge><feMergeNode in="boost"/><feMergeNode in="SourceGraphic"/></feMerge>
  </filter>

  <!-- Bloom: wide soft -->
  <filter id="bloomr1x6871" x="-40%" y="-40%" width="180%" height="180%">
    <feGaussianBlur stdDeviation="11" result="b"/>
    <feMerge><feMergeNode in="b"/><feMergeNode in="SourceGraphic"/></feMerge>
  </filter>

  </defs><rect width="1000" height="1000" fill="url(#bgr1x6871)"/><ellipse cx="500.0" cy="892.0" rx="350.0" ry="65.0" fill="rgba(0,0,0,.7)" filter="url(#bloomr1x6871)"/><ellipse cx="500.0" cy="889.0" rx="220.0" ry="34.0" fill="rgba(0,0,0,.45)"/><ellipse cx="500.0" cy="520.0" rx="320.0" ry="480.0" fill="#ffffff" fill-opacity=".042" filter="url(#bloomr1x6871)"/><circle cx="296.2" cy="485.8" r="2.5" fill="#ffffff" fill-opacity="0.67" filter="url(#glowr1x6871)"/><circle cx="622.1" cy="386.7" r="1.4" fill="#ffffff" fill-opacity="0.50" filter="url(#glowr1x6871)"/><circle cx="351.1" cy="405.9" r="1.5" fill="#ffffff" fill-opacity="0.65" filter="url(#glowr1x6871)"/><circle cx="488.5" cy="375.5" r="2.1" fill="#ffffff" fill-opacity="0.59" filter="url(#glowr1x6871)"/><circle cx="622.6" cy="558.9" r="1.6" fill="#ffffff" fill-opacity="0.73" filter="url(#glowr1x6871)"/><circle cx="725.5" cy="762.7" r="2.8" fill="#ffffff" fill-opacity="0.55" filter="url(#glowr1x6871)"/><circle cx="285.1" cy="217.8" r="1.0" fill="#ffffff" fill-opacity="0.45" filter="url(#glowr1x6871)"/><circle cx="595.2" cy="191.6" r="1.8" fill="#ffffff" fill-opacity="0.60" filter="url(#glowr1x6871)"/><circle cx="256.7" cy="480.0" r="3.0" fill="#ffffff" fill-opacity="0.41" filter="url(#glowr1x6871)"/><circle cx="269.2" cy="266.7" r="2.9" fill="#ffffff" fill-opacity="0.49" filter="url(#glowr1x6871)"/><circle cx="677.4" cy="329.9" r="1.5" fill="#ffffff" fill-opacity="0.87" filter="url(#glowr1x6871)"/><circle cx="353.4" cy="529.4" r="0.8" fill="#ffffff" fill-opacity="0.65" filter="url(#glowr1x6871)"/><circle cx="564.4" cy="766.9" r="2.6" fill="#ffffff" fill-opacity="0.48" filter="url(#glowr1x6871)"/><circle cx="447.7" cy="302.4" r="1.6" fill="#ffffff" fill-opacity="0.81" filter="url(#glowr1x6871)"/><polygon points="397.5,663.7 490.7,661.3 480.1,878.9 385.7,878.3" fill="url(#suitr1x6871)" stroke="#ff44aa" stroke-width="2.2" filter="url(#skr1x6871) url(#metalr1x6871)"/><polygon points="397.2,661.3 490.8,661.5 479.2,878.8 387.6,878.4" fill="url(#carbonr1x6871)"/><polygon points="392.9,725.4 494.7,724.0 483.6,788.2 384.1,789.7" fill="url(#bevelr1x6871)" fill-opacity=".5" stroke="#ff44aa" stroke-width="1.4" filter="url(#skr1x6871)"/><polygon points="509.7,660.8 599.9,662.4 612.7,879.2 520.6,878.6" fill="url(#suitr1x6871)" stroke="#ff44aa" stroke-width="2.2" filter="url(#skr1x6871) url(#metalr1x6871)"/><polygon points="508.8,662.2 601.4,661.9 613.0,875.9 519.9,879.0" fill="url(#carbonr1x6871)"/><polygon points="505.4,724.8 608.4,725.5 615.4,789.8 516.9,788.0" fill="url(#bevelr1x6871)" fill-opacity=".5" stroke="#ff44aa" stroke-width="1.4" filter="url(#skr1x6871)"/><rect x="391.0" y="839.5" width="100.3" height="24.7" fill="url(#bevelr1x6871)" stroke="#ff44aa" stroke-width="1" filter="url(#skr1x6871)"/><rect x="508.3"  y="838.4" width="100.3" height="24.7" fill="url(#bevelr1x6871)" stroke="#ff44aa" stroke-width="1" filter="url(#skr1x6871)"/><polygon points="371.5,879.2 497.1,877.9 502.4,922.1 362.9,923.0" fill="#880050" stroke="#ff44aa" stroke-width="2" filter="url(#skr1x6871)"/><polygon points="502.4,878.3 629.5,879.2 635.6,921.4 497.2,922.2" fill="#880050" stroke="#ff44aa" stroke-width="2" filter="url(#skr1x6871)"/><polygon points="304.0,634.6 696.5,633.7 637.2,683.7 361.4,680.9" fill="#ff44aa" fill-opacity=".52" stroke="#ff44aa" stroke-width="2" filter="url(#skr1x6871)"/><rect x="464.1" y="637.5" width="72.0" height="42.0" fill="url(#bevelr1x6871)" stroke="#ff44aa" stroke-width="1.4" filter="url(#glowr1x6871)"/><rect x="486.9" y="642.2" width="28.0" height="22.0" rx="1" fill="rgba(255,255,255,.48)"/><polygon points="152.5,464.8 233.3,465.3 256.8,734.3 127.7,735.4" fill="url(#suitr1x6871)" stroke="#ff44aa" stroke-width="2.2" filter="url(#skr1x6871) url(#metalr1x6871)"/><polygon points="173.5,432.1 254.0,432.9 244.1,511.0 159.2,512.1" fill="url(#bevelr1x6871)" fill-opacity=".72" stroke="#ff44aa" stroke-width="2.2" filter="url(#skr1x6871)"/><polygon points="160.0,621.9 243.1,623.6 239.1,660.4 165.9,660.0" fill="#ff44aa" fill-opacity=".42" stroke="#ff44aa" stroke-width="1" filter="url(#skr1x6871)"/><polygon points="765.8,467.3 848.4,466.5 870.6,734.4 742.1,734.5" fill="url(#suitr1x6871)" stroke="#ff44aa" stroke-width="2.2" filter="url(#skr1x6871) url(#metalr1x6871)"/><polygon points="746.3,433.6 825.2,431.7 840.9,508.9 755.5,509.8" fill="url(#bevelr1x6871)" fill-opacity=".72" stroke="#ff44aa" stroke-width="2.2" filter="url(#skr1x6871)"/><polygon points="756.8,622.1 838.5,620.3 835.7,661.5 759.3,661.2" fill="#ff44aa" fill-opacity=".42" stroke="#ff44aa" stroke-width="1" filter="url(#skr1x6871)"/><rect x="121.0"  y="700.2" width="135.3" height="85.0" rx="4" fill="url(#bevelr1x6871)" stroke="#ff44aa" stroke-width="1.8" filter="url(#skr1x6871)"/><rect x="749.5"   y="699.9" width="135.3" height="85.0" rx="4" fill="url(#bevelr1x6871)" stroke="#ff44aa" stroke-width="1.8" filter="url(#skr1x6871)"/><line x1="151.3" y1="702.4" x2="151.0" y2="785.2" stroke="#ff44aa" stroke-opacity=".38" stroke-width="1"/><line x1="779.2" y1="702.7" x2="778.7" y2="783.4" stroke="#ff44aa" stroke-opacity=".38" stroke-width="1"/><line x1="183.1" y1="701.9" x2="182.4" y2="784.1" stroke="#ff44aa" stroke-opacity=".38" stroke-width="1"/><line x1="811.6" y1="702.2" x2="810.3" y2="783.3" stroke="#ff44aa" stroke-opacity=".38" stroke-width="1"/><line x1="216.2" y1="700.2" x2="216.7" y2="783.7" stroke="#ff44aa" stroke-opacity=".38" stroke-width="1"/><line x1="842.4" y1="703.6" x2="844.0" y2="783.3" stroke="#ff44aa" stroke-opacity=".38" stroke-width="1"/><polygon points="234.4,415.7 763.8,418.8 723.1,664.2 277.8,662.1" fill="url(#suitr1x6871)" stroke="#ff44aa" stroke-width="2.6" filter="url(#skr1x6871) url(#metalr1x6871)"/><polygon points="234.5,417.4 766.7,417.6 722.7,662.8 276.7,660.7" fill="url(#carbonr1x6871)"/><polygon points="368.7,415.8 631.7,415.9 612.0,515.8 388.5,515.7" fill="url(#suitHir1x6871)"/><line x1="363.6" y1="470.9" x2="638.0" y2="473.0" stroke="#ff44aa" stroke-opacity=".52" stroke-width="1.3" filter="url(#skr1x6871)"/><line x1="399.6" y1="550.7" x2="602.4" y2="550.2" stroke="#ff44aa" stroke-opacity=".52" stroke-width="1.3" filter="url(#skr1x6871)"/><line x1="265.8" y1="490.1" x2="321.6" y2="491.9" stroke="#ff44aa" stroke-opacity=".62" stroke-width="1.8"/><line x1="681.6" y1="489.8" x2="732.7" y2="489.8" stroke="#ff44aa" stroke-opacity=".62" stroke-width="1.8"/><line x1="267.5" y1="522.1" x2="320.2" y2="524.6" stroke="#ff44aa" stroke-opacity=".62" stroke-width="1.8"/><line x1="680.1" y1="524.1" x2="731.8" y2="521.3" stroke="#ff44aa" stroke-opacity=".62" stroke-width="1.8"/><line x1="266.7" y1="554.5" x2="321.6" y2="553.2" stroke="#ff44aa" stroke-opacity=".62" stroke-width="1.8"/><line x1="680.3" y1="555.9" x2="732.0" y2="556.3" stroke="#ff44aa" stroke-opacity=".62" stroke-width="1.8"/><line x1="268.3" y1="585.0" x2="321.4" y2="587.1" stroke="#ff44aa" stroke-opacity=".62" stroke-width="1.8"/><line x1="679.1" y1="586.7" x2="734.5" y2="585.3" stroke="#ff44aa" stroke-opacity=".62" stroke-width="1.8"/><g filter="url(#glowr1x6871)"><polygon points="481.3,452.5 514.2,504.4 500.1,505.4 517.4,569.6 488.0,515.8 499.5,515.3" fill="#ff44aa" stroke="#0d1520" stroke-width="1.4" filter="url(#skr1x6871)"/><polygon points="483.8,452.6 511.6,506.3 499.6,506.9 516.8,569.9 487.7,516.4 499.4,516.4" fill="url(#suitHir1x6871)" opacity=".4"/></g><g><polygon points="871.8,671.4 923.8,671.4 908.2,-28.6 887.4,-28.6" fill="url(#blader1x6871)" filter="url(#wmr1x6871)"/><polygon points="887.4,-28.6 908.2,-28.6 897.8,-138.6" fill="url(#blader1x6871)" filter="url(#wmr1x6871)"/><polygon points="896.0,671.4 899.7,671.4 898.4,-128.6 897.3,-128.6" fill="url(#bladeTipr1x6871)" opacity=".9"/><line x1="907.7509797521867" y1="671.696868913807" x2="900.3645990302041" y2="-128.12845253758135" stroke="rgba(255,255,255,.68)" stroke-width="1.5"/><line x1="888.7205878110789" y1="672.6823669438251" x2="897.6119086284191" y2="-128.9808469544165" stroke="#ff44aa" stroke-width="1" stroke-opacity=".45"/><line x1="902.5" y1="651.4" x2="899.7" y2="11.4" stroke="rgba(0,0,0,.38)" stroke-width="1.6"/><line x1="893.2" y1="651.4" x2="896.0" y2="11.4" stroke="rgba(0,0,0,.38)" stroke-width="1.6"/><rect x="840.8143332907558" y="670.8350572894327" width="112.0" height="28.0" rx="3" fill="url(#bevelr1x6871)" stroke="#ff44aa" stroke-width="1.6" filter="url(#wmr1x6871)"/><rect x="864.0996557198092" y="674.3461236249656" width="64.0" height="10.0" rx="1" fill="rgba(255,255,255,.32)"/><rect x="886.7675591251441" y="677.4321919279173" width="24.0" height="6.0" rx="1" fill="#ff44aa" fill-opacity=".35"/><rect x="886.5031739418023" y="685.4933991698548" width="24.0" height="6.0" rx="1" fill="#ff44aa" fill-opacity=".35"/><rect x="886.8016093268618" y="692.4334102334454" width="24.0" height="6.0" rx="1" fill="#ff44aa" fill-opacity=".35"/><rect x="884.9303999984264" y="699.6271989170461" width="24.0" height="6.0" rx="1" fill="#ff44aa" fill-opacity=".35"/><rect x="885.0541764217056" y="709.5350473639555" width="24.0" height="6.0" rx="1" fill="#ff44aa" fill-opacity=".35"/><rect x="884.6768521993049" y="717.7976329501718" width="24.0" height="6.0" rx="1" fill="#ff44aa" fill-opacity=".35"/><ellipse cx="897.8134361009672" cy="726.8210814885795" rx="22.0" ry="16.0" fill="url(#bevelr1x6871)" stroke="#ff44aa" stroke-width="1.2" filter="url(#wmr1x6871)"/></g><rect x="448.72877889191733" y="556.2550988518633" width="100.0"  height="56.0" fill="#880050" stroke="#ff44aa" stroke-width="2.2" filter="url(#skr1x6871)"/><rect x="425.1357109297998" y="574.9738280478865" width="152.0" height="26.0" fill="url(#bevelr1x6871)" fill-opacity=".65" stroke="#ff44aa" stroke-width="1.2" filter="url(#skr1x6871)"/><polygon points="309.0,379.7 350.4,293.6 500.8,276.4 649.0,294.6 690.2,379.9 667.6,505.0 499.8,566.0 330.1,503.2" fill="url(#suitr1x6871)" stroke="#ff44aa" stroke-width="2.8" filter="url(#skr1x6871) url(#metalr1x6871)"/><polygon points="309.3,381.2 351.8,293.6 499.0,278.6 650.5,295.9 693.2,382.2 670.0,504.6 498.8,564.6 332.7,504.4" fill="url(#carbonr1x6871)"/><polygon points="381.7,302.6 501.3,284.6 620.2,301.2 606.2,382.1 392.6,381.9" fill="url(#suitHir1x6871)"/><polygon points="380.3,381.0 364.3,426.6 433.0,504.2 501.4,526.9 568.3,503.0 635.4,424.9 619.0,381.3" fill="#0d1520" fill-opacity=".88" stroke="#ff44aa" stroke-width="1.8" filter="url(#skr1x6871)"/><polygon points="380.7,412.7 477.1,409.6 483.0,440.9 387.5,438.5" fill="#ff44aa" filter="url(#glowr1x6871)"/><polygon points="524.5,409.9 620.8,409.9 609.9,439.4 514.8,438.4" fill="#ff44aa" filter="url(#glowr1x6871)"/><ellipse cx="430.9" cy="425.7" rx="38.4"  ry="8.2" fill="#ffffff" opacity=".88"/><ellipse cx="569.1" cy="425.7" rx="38.4"  ry="8.2" fill="#ffffff" opacity=".88"/><line x1="483.22553418926896" y1="413.482801912073" x2="514.0320791114494" y2="414.9445552571676" stroke="#ff44aa" stroke-opacity=".52" stroke-width="2"/><line x1="486.3707308373973" y1="437.0961222256534" x2="514.5242224865966" y2="437.9305768299848" stroke="#ff44aa" stroke-opacity=".52" stroke-width="2"/><line x1="501.31238828571514" y1="453.22561220964417" x2="500.20738358143717" y2="483.1954711218365" stroke="#ff44aa" stroke-opacity=".58" stroke-width="2.2" filter="url(#skr1x6871)"/><line x1="454.35175697131086" y1="491.7663146427832" x2="453.5434356239438" y2="520.7065500208176" stroke="#ff44aa" stroke-opacity=".52" stroke-width="1.5" filter="url(#skr1x6871)"/><line x1="476.42292927432806" y1="489.6369191703386" x2="477.0908127434924" y2="519.8505222995766" stroke="#ff44aa" stroke-opacity=".52" stroke-width="1.5" filter="url(#skr1x6871)"/><line x1="499.4634668309242" y1="491.93084329841656" x2="498.7755209110677" y2="520.718089435529" stroke="#ff44aa" stroke-opacity=".52" stroke-width="1.5" filter="url(#skr1x6871)"/><line x1="522.8325424365327" y1="492.58494758931914" x2="522.3606465534865" y2="519.3767442568205" stroke="#ff44aa" stroke-opacity=".52" stroke-width="1.5" filter="url(#skr1x6871)"/><line x1="546.0796190676466" y1="492.65185221033164" x2="544.4678895754927" y2="520.3483963961713" stroke="#ff44aa" stroke-opacity=".52" stroke-width="1.5" filter="url(#skr1x6871)"/><polygon points="431.8,504.9 567.2,504.9 552.8,555.3 446.7,556.1" fill="#880050" fill-opacity=".72" stroke="#ff44aa" stroke-width="1.3" filter="url(#skr1x6871)"/><text x="30.0"  y="975.0" font-family="monospace" font-weight="bold" font-size="22.0" fill="rgba(255,255,255,.22)">#0001</text><text x="500.0"   y="975.0" text-anchor="middle" font-family="monospace" font-weight="bold" font-size="22.0" fill="#ff44aa" fill-opacity=".48">SAKURA RANGER</text><text x="970.0" y="975.0" text-anchor="end"    font-family="monospace" font-weight="bold" font-size="22.0" fill="#ff44aa" fill-opacity=".32">MECH RANGERS</text></svg>