<svg xmlns="http://www.w3.org/2000/svg" viewBox="0 0 1000 1000" width="1000" height="1000" shape-rendering="geometricPrecision"><defs>

  <!-- Scene gradients -->
  <radialGradient id="bgr1x6892" cx="50%" cy="42%" r="72%">
    <stop offset="0%"   stop-color="#1a2814"/>
    <stop offset="100%" stop-color="#0d1520"/>
  </radialGradient>
  <linearGradient id="suitr1x6892" x1="8%" y1="0%" x2="92%" y2="100%">
    <stop offset="0%"   stop-color="#4444ff" stop-opacity=".95"/>
    <stop offset="45%"  stop-color="#141428"/>
    <stop offset="100%" stop-color="#0d1520"/>
  </linearGradient>
  <linearGradient id="suitHir1x6892" x1="0%" y1="0%" x2="0%" y2="100%">
    <stop offset="0%"   stop-color="rgba(255,255,255,.28)"/>
    <stop offset="60%"  stop-color="rgba(255,255,255,.04)"/>
    <stop offset="100%" stop-color="rgba(255,255,255,0)"/>
  </linearGradient>
  <!-- Bevel: bright top, dark bottom for armour panels -->
  <linearGradient id="bevelr1x6892" x1="0%" y1="0%" x2="0%" y2="100%">
    <stop offset="0%"   stop-color="rgba(255,255,255,.55)"/>
    <stop offset="30%"  stop-color="#4444ff"/>
    <stop offset="70%"  stop-color="#141428"/>
    <stop offset="100%" stop-color="rgba(0,0,0,.5)"/>
  </linearGradient>

  <!-- Weapon: cold steel blade sweep -->
  <linearGradient id="blader1x6892" x1="0%" y1="0%" x2="100%" y2="0%">
    <stop offset="0%"   stop-color="#0e0e20"/>
    <stop offset="16%"  stop-color="#3e3e58"/>
    <stop offset="34%"  stop-color="#c8c8e0"/>
    <stop offset="50%"  stop-color="#f5f5ff"/>
    <stop offset="66%"  stop-color="#b8b8d0"/>
    <stop offset="84%"  stop-color="#2e2e48"/>
    <stop offset="100%" stop-color="#08080e"/>
  </linearGradient>
  <!-- Blade tip brightening -->
  <linearGradient id="bladeTipr1x6892" x1="0%" y1="100%" x2="0%" y2="0%">
    <stop offset="0%"   stop-color="rgba(255,255,255,0)"/>
    <stop offset="55%"  stop-color="rgba(255,255,255,.1)"/>
    <stop offset="100%" stop-color="rgba(255,255,255,.55)"/>
  </linearGradient>
  <!-- Gunmetal anodised — blaster body -->
  <linearGradient id="gunmetalr1x6892" x1="0%" y1="0%" x2="0%" y2="100%">
    <stop offset="0%"   stop-color="#46465e"/>
    <stop offset="18%"  stop-color="#828296"/>
    <stop offset="42%"  stop-color="#26263a"/>
    <stop offset="72%"  stop-color="#16162a"/>
    <stop offset="100%" stop-color="#0c0c18"/>
  </linearGradient>
  <!-- Brushed steel tube — barrel/rod -->
  <linearGradient id="barrelr1x6892" x1="0%" y1="0%" x2="100%" y2="0%">
    <stop offset="0%"   stop-color="#0a0a14"/>
    <stop offset="24%"  stop-color="#585875"/>
    <stop offset="50%"  stop-color="#a8a8c8"/>
    <stop offset="76%"  stop-color="#383852"/>
    <stop offset="100%" stop-color="#0a0a14"/>
  </linearGradient>
  <!-- Chrome rod — lance shaft -->
  <linearGradient id="chromer1x6892" x1="0%" y1="0%" x2="100%" y2="0%">
    <stop offset="0%"   stop-color="#0c0c18"/>
    <stop offset="20%"  stop-color="#686888"/>
    <stop offset="44%"  stop-color="#e0e0f0"/>
    <stop offset="56%"  stop-color="#c0c0d8"/>
    <stop offset="80%"  stop-color="#28283e"/>
    <stop offset="100%" stop-color="#0c0c18"/>
  </linearGradient>
  <!-- Titanium plate — shield face -->
  <linearGradient id="titaniumr1x6892" x1="0%" y1="0%" x2="100%" y2="100%">
    <stop offset="0%"   stop-color="#585878"/>
    <stop offset="28%"  stop-color="#4444ff" stop-opacity=".88"/>
    <stop offset="55%"  stop-color="#141428"/>
    <stop offset="80%"  stop-color="#181828"/>
    <stop offset="100%" stop-color="#0a0a18"/>
  </linearGradient>
  <!-- Artillery black-chrome — cannon body -->
  <linearGradient id="artilleryr1x6892" x1="0%" y1="0%" x2="0%" y2="100%">
    <stop offset="0%"   stop-color="#383850"/>
    <stop offset="14%"  stop-color="#78789a"/>
    <stop offset="36%"  stop-color="#202034"/>
    <stop offset="65%"  stop-color="#14141e"/>
    <stop offset="100%" stop-color="#0a0a12"/>
  </linearGradient>
  <!-- Energy orb — staff -->
  <radialGradient id="orbr1x6892" cx="35%" cy="35%" r="65%">
    <stop offset="0%"   stop-color="rgba(255,255,255,.9)"/>
    <stop offset="30%"  stop-color="#4444ff"/>
    <stop offset="68%"  stop-color="#141428"/>
    <stop offset="100%" stop-color="rgba(0,0,0,.6)"/>
  </radialGradient>
  <!-- Knuckle plate chrome -->
  <linearGradient id="knuckler1x6892" x1="0%" y1="0%" x2="0%" y2="100%">
    <stop offset="0%"   stop-color="#888aaa"/>
    <stop offset="32%"  stop-color="#4444ff" stop-opacity=".8"/>
    <stop offset="62%"  stop-color="#1a1a2c"/>
    <stop offset="100%" stop-color="#0a0a14"/>
  </linearGradient>

  <!-- Carbon fibre weave texture overlay -->
  <pattern id="carbonr1x6892" width="6" height="6" patternUnits="userSpaceOnUse">
    <rect width="6" height="6" fill="rgba(0,0,0,.08)"/>
    <rect x="0" y="0" width="3" height="3" fill="rgba(255,255,255,.022)"/>
    <rect x="3" y="3" width="3" height="3" fill="rgba(255,255,255,.022)"/>
    <line x1="0" y1="0" x2="3" y2="3" stroke="rgba(255,255,255,.038)" stroke-width=".5"/>
    <line x1="3" y1="0" x2="6" y2="3" stroke="rgba(0,0,0,.055)"       stroke-width=".5"/>
    <line x1="0" y1="3" x2="3" y2="6" stroke="rgba(0,0,0,.055)"       stroke-width=".5"/>
    <line x1="3" y1="3" x2="6" y2="6" stroke="rgba(255,255,255,.038)" stroke-width=".5"/>
  </pattern>

  <!-- Specular metal sheen on armour panels -->
  <filter id="metalr1x6892" x="-5%" y="-5%" width="110%" height="110%">
    <feSpecularLighting surfaceScale="4" specularConstant="1.8"
        specularExponent="42" lighting-color="#ffffff" result="spec">
      <feDistantLight elevation="52" azimuth="38"/>
    </feSpecularLighting>
    <feComposite in="spec" in2="SourceGraphic" operator="in" result="sm"/>
    <feComposite in="SourceGraphic" in2="sm" operator="arithmetic" k1="0" k2="1" k3="0.55" k4="0"/>
  </filter>

  <!-- Sharper specular for weapons — heavier glare -->
  <filter id="wmr1x6892" x="-8%" y="-8%" width="116%" height="116%">
    <feSpecularLighting surfaceScale="6" specularConstant="2.4"
        specularExponent="65" lighting-color="#ffffff" result="spec">
      <feDistantLight elevation="44" azimuth="28"/>
    </feSpecularLighting>
    <feComposite in="spec" in2="SourceGraphic" operator="in" result="sm"/>
    <feComposite in="SourceGraphic" in2="sm" operator="arithmetic" k1="0" k2="1" k3="0.78" k4="0"/>
  </filter>

  <!-- Sketch wobble -->
  <filter id="skr1x6892" x="-8%" y="-8%" width="116%" height="116%">
    <feTurbulence type="fractalNoise" baseFrequency="0.038"
        numOctaves="3" seed="81" result="noise"/>
    <feDisplacementMap in="SourceGraphic" in2="noise" scale="2.6"
        xChannelSelector="R" yChannelSelector="G" result="w"/>
    <feComposite in="w" in2="SourceGraphic" operator="atop"/>
  </filter>

  <!-- Glow: sharp accent -->
  <filter id="glowr1x6892" x="-20%" y="-20%" width="140%" height="140%">
    <feGaussianBlur stdDeviation="3.5" result="b"/>
    <feColorMatrix in="b" type="matrix"
        values="0 0 0 0 1  0 0 0 0 1  0 0 0 0 1  0 0 0 1.8 0" result="boost"/>
    <feMerge><feMergeNode in="boost"/><feMergeNode in="SourceGraphic"/></feMerge>
  </filter>

  <!-- Bloom: wide soft -->
  <filter id="bloomr1x6892" x="-40%" y="-40%" width="180%" height="180%">
    <feGaussianBlur stdDeviation="11" result="b"/>
    <feMerge><feMergeNode in="b"/><feMergeNode in="SourceGraphic"/></feMerge>
  </filter>

  </defs><rect width="1000" height="1000" fill="url(#bgr1x6892)"/><ellipse cx="500.0" cy="892.0" rx="350.0" ry="65.0" fill="rgba(0,0,0,.7)" filter="url(#bloomr1x6892)"/><ellipse cx="500.0" cy="889.0" rx="220.0" ry="34.0" fill="rgba(0,0,0,.45)"/><polygon points="399.4,663.0 491.2,662.6 479.1,876.7 386.9,877.5" fill="url(#suitr1x6892)" stroke="#4444ff" stroke-width="2.2" filter="url(#skr1x6892) url(#metalr1x6892)"/><polygon points="400.3,663.6 488.3,664.0 479.6,875.8 389.0,878.8" fill="url(#carbonr1x6892)"/><polygon points="393.9,722.6 492.6,724.9 483.5,787.3 384.2,787.0" fill="url(#bevelr1x6892)" fill-opacity=".5" stroke="#4444ff" stroke-width="1.4" filter="url(#skr1x6892)"/><polygon points="510.9,663.7 601.0,660.9 612.0,879.0 521.0,877.2" fill="url(#suitr1x6892)" stroke="#4444ff" stroke-width="2.2" filter="url(#skr1x6892) url(#metalr1x6892)"/><polygon points="512.0,662.4 602.5,663.5 612.0,875.8 519.4,877.2" fill="url(#carbonr1x6892)"/><polygon points="508.0,724.4 608.7,724.8 614.4,787.2 515.4,787.7" fill="url(#bevelr1x6892)" fill-opacity=".5" stroke="#4444ff" stroke-width="1.4" filter="url(#skr1x6892)"/><rect x="391.1" y="838.4" width="100.3" height="24.7" fill="url(#bevelr1x6892)" stroke="#4444ff" stroke-width="1" filter="url(#skr1x6892)"/><rect x="508.6"  y="838.0" width="100.3" height="24.7" fill="url(#bevelr1x6892)" stroke="#4444ff" stroke-width="1" filter="url(#skr1x6892)"/><polygon points="369.8,878.0 498.0,876.5 505.0,920.6 362.1,920.0" fill="#141428" stroke="#4444ff" stroke-width="2" filter="url(#skr1x6892)"/><polygon points="504.7,876.7 629.9,878.7 638.7,922.9 495.9,923.0" fill="#141428" stroke="#4444ff" stroke-width="2" filter="url(#skr1x6892)"/><polygon points="303.9,632.4 695.0,634.6 639.4,681.6 361.3,683.7" fill="#4444ff" fill-opacity=".52" stroke="#4444ff" stroke-width="2" filter="url(#skr1x6892)"/><rect x="465.3" y="637.3" width="72.0" height="42.0" fill="url(#bevelr1x6892)" stroke="#4444ff" stroke-width="1.4" filter="url(#glowr1x6892)"/><rect x="486.4" y="641.8" width="28.0" height="22.0" rx="1" fill="rgba(255,255,255,.48)"/><polygon points="152.4,465.4 236.0,468.1 258.5,736.2 127.1,735.9" fill="url(#suitr1x6892)" stroke="#4444ff" stroke-width="2.2" filter="url(#skr1x6892) url(#metalr1x6892)"/><polygon points="173.6,433.1 252.5,430.8 242.6,511.2 160.6,510.3" fill="url(#bevelr1x6892)" fill-opacity=".72" stroke="#4444ff" stroke-width="2.2" filter="url(#skr1x6892)"/><polygon points="161.8,621.1 243.6,621.9 240.6,661.2 164.4,661.7" fill="#4444ff" fill-opacity=".42" stroke="#4444ff" stroke-width="1" filter="url(#skr1x6892)"/><polygon points="766.3,466.4 846.5,465.5 873.1,733.4 741.0,735.9" fill="url(#suitr1x6892)" stroke="#4444ff" stroke-width="2.2" filter="url(#skr1x6892) url(#metalr1x6892)"/><polygon points="748.0,433.9 827.5,431.4 838.9,511.6 756.7,509.0" fill="url(#bevelr1x6892)" fill-opacity=".72" stroke="#4444ff" stroke-width="2.2" filter="url(#skr1x6892)"/><polygon points="756.7,622.9 839.6,620.6 836.5,661.7 761.8,659.5" fill="#4444ff" fill-opacity=".42" stroke="#4444ff" stroke-width="1" filter="url(#skr1x6892)"/><rect x="118.4"  y="699.2" width="135.3" height="85.0" rx="4" fill="url(#bevelr1x6892)" stroke="#4444ff" stroke-width="1.8" filter="url(#skr1x6892)"/><rect x="750.2"   y="701.1" width="135.3" height="85.0" rx="4" fill="url(#bevelr1x6892)" stroke="#4444ff" stroke-width="1.8" filter="url(#skr1x6892)"/><line x1="150.0" y1="700.7" x2="149.0" y2="784.5" stroke="#4444ff" stroke-opacity=".38" stroke-width="1"/><line x1="777.2" y1="702.2" x2="776.8" y2="784.0" stroke="#4444ff" stroke-opacity=".38" stroke-width="1"/><line x1="182.9" y1="703.3" x2="181.9" y2="782.3" stroke="#4444ff" stroke-opacity=".38" stroke-width="1"/><line x1="810.4" y1="700.5" x2="812.2" y2="784.4" stroke="#4444ff" stroke-opacity=".38" stroke-width="1"/><line x1="214.7" y1="701.9" x2="216.8" y2="782.7" stroke="#4444ff" stroke-opacity=".38" stroke-width="1"/><line x1="843.9" y1="702.1" x2="843.3" y2="784.9" stroke="#4444ff" stroke-opacity=".38" stroke-width="1"/><polygon points="235.2,417.4 764.9,416.3 723.6,664.2 277.5,661.7" fill="url(#suitr1x6892)" stroke="#4444ff" stroke-width="2.6" filter="url(#skr1x6892) url(#metalr1x6892)"/><polygon points="234.0,416.6 764.0,417.6 722.7,661.2 277.0,663.2" fill="url(#carbonr1x6892)"/><polygon points="367.5,416.5 633.6,418.1 610.8,515.2 390.3,513.9" fill="url(#suitHir1x6892)"/><line x1="363.2" y1="471.2" x2="639.2" y2="470.8" stroke="#4444ff" stroke-opacity=".52" stroke-width="1.3" filter="url(#skr1x6892)"/><line x1="398.6" y1="548.6" x2="601.5" y2="548.3" stroke="#4444ff" stroke-opacity=".52" stroke-width="1.3" filter="url(#skr1x6892)"/><line x1="265.7" y1="490.6" x2="318.9" y2="490.2" stroke="#4444ff" stroke-opacity=".62" stroke-width="1.8"/><line x1="678.5" y1="491.3" x2="734.2" y2="491.0" stroke="#4444ff" stroke-opacity=".62" stroke-width="1.8"/><line x1="267.9" y1="522.1" x2="319.8" y2="523.0" stroke="#4444ff" stroke-opacity=".62" stroke-width="1.8"/><line x1="679.5" y1="521.3" x2="733.5" y2="524.2" stroke="#4444ff" stroke-opacity=".62" stroke-width="1.8"/><line x1="266.5" y1="555.9" x2="319.9" y2="554.9" stroke="#4444ff" stroke-opacity=".62" stroke-width="1.8"/><line x1="679.8" y1="556.4" x2="734.1" y2="553.1" stroke="#4444ff" stroke-opacity=".62" stroke-width="1.8"/><line x1="266.6" y1="587.9" x2="318.3" y2="586.9" stroke="#4444ff" stroke-opacity=".62" stroke-width="1.8"/><line x1="679.0" y1="586.5" x2="733.3" y2="587.0" stroke="#4444ff" stroke-opacity=".62" stroke-width="1.8"/><g filter="url(#glowr1x6892)"><polygon points="498.6,452.1 515.3,488.8 555.7,493.4 522.8,517.2 535.8,556.6 500.3,537.6 466.9,557.6 474.3,519.2 443.7,491.0 485.7,491.1 " fill="#4444ff" stroke="#0d1520" stroke-width="1.4" filter="url(#skr1x6892)"/><polygon points="498.6,452.1 515.3,488.8 555.7,493.4 522.8,517.2 535.8,556.6 500.3,537.6 466.9,557.6 474.3,519.2 443.7,491.0 485.7,491.1 " fill="url(#suitHir1x6892)" opacity=".45"/></g><g><line x1="898.4951216687076" y1="790.4060026388615" x2="913.3325365518779" y2="112.19448518808929" stroke="url(#chromer1x6892)" stroke-width="28.0" stroke-linecap="round" filter="url(#wmr1x6892)"/><line x1="904.5264684190602" y1="770.6784492273815" x2="912.0390042573773" y2="131.83099658600983" stroke="rgba(255,255,255,.42)" stroke-width="5.0" stroke-linecap="round"/><polygon points="870.7,151.3 935.4,152.7 917.3,-8.8" fill="url(#blader1x6892)" stroke="#4444ff" stroke-width="1.8" filter="url(#wmr1x6892)"/><line x1="935.8" y1="151.4" x2="915.8" y2="-8.6" stroke="rgba(255,255,255,.72)" stroke-width="1.6"/><rect x="877.7904735294729" y="422.98821294382213" width="40.0" height="20.0" fill="url(#bevelr1x6892)" stroke="#4444ff" stroke-width="1" filter="url(#wmr1x6892)"/><rect x="880.145697574839" y="511.7226554307155" width="40.0" height="20.0" fill="url(#bevelr1x6892)" stroke="#4444ff" stroke-width="1" filter="url(#wmr1x6892)"/><rect x="878.8053906851076" y="600.0739280511625" width="40.0" height="20.0" fill="url(#bevelr1x6892)" stroke="#4444ff" stroke-width="1" filter="url(#wmr1x6892)"/><rect x="877.1511890636385" y="691.243516041059" width="40.0" height="20.0" fill="url(#bevelr1x6892)" stroke="#4444ff" stroke-width="1" filter="url(#wmr1x6892)"/><ellipse cx="896.6284559947998" cy="789.7747896934859" rx="22.0" ry="15.0" fill="url(#bevelr1x6892)" stroke="#4444ff" stroke-width="1" filter="url(#wmr1x6892)"/></g><rect x="451.6274620008655" y="558.0124810727312" width="100.0"  height="56.0" fill="#141428" stroke="#4444ff" stroke-width="2.2" filter="url(#skr1x6892)"/><rect x="425.0389528346248" y="577.0463284968399" width="152.0" height="26.0" fill="url(#bevelr1x6892)" fill-opacity=".65" stroke="#4444ff" stroke-width="1.2" filter="url(#skr1x6892)"/><polygon points="306.7,379.0 352.0,293.1 501.7,279.5 648.9,293.6 692.4,380.3 669.1,503.9 501.3,565.8 329.9,504.4" fill="url(#suitr1x6892)" stroke="#4444ff" stroke-width="2.8" filter="url(#skr1x6892) url(#metalr1x6892)"/><polygon points="309.2,379.5 350.8,296.2 499.1,279.7 648.4,293.9 691.9,381.9 670.2,502.6 499.4,566.6 331.8,502.3" fill="url(#carbonr1x6892)"/><polygon points="379.2,302.6 499.7,286.6 619.2,301.9 607.0,379.1 393.5,382.3" fill="url(#suitHir1x6892)"/><polygon points="382.7,379.8 364.5,424.1 433.0,503.0 501.8,527.5 565.4,504.4 632.7,425.2 617.9,381.0" fill="#0d1520" fill-opacity=".88" stroke="#4444ff" stroke-width="1.8" filter="url(#skr1x6892)"/><polygon points="381.8,411.4 476.6,410.3 483.4,438.3 387.6,439.1" fill="#4444ff" filter="url(#glowr1x6892)"/><polygon points="524.6,411.1 618.6,412.2 612.7,439.9 515.5,438.6" fill="#4444ff" filter="url(#glowr1x6892)"/><ellipse cx="430.9" cy="425.7" rx="38.4"  ry="8.2" fill="#ffffff" opacity=".88"/><ellipse cx="569.1" cy="425.7" rx="38.4"  ry="8.2" fill="#ffffff" opacity=".88"/><line x1="486.11997185336423" y1="412.6984680251218" x2="514.2012290363573" y2="413.0607200768776" stroke="#4444ff" stroke-opacity=".52" stroke-width="2"/><line x1="483.0210890641995" y1="436.2584207704291" x2="514.943365282882" y2="437.33814296247436" stroke="#4444ff" stroke-opacity=".52" stroke-width="2"/><line x1="500.67169765755534" y1="455.0241351833567" x2="499.1300444114022" y2="483.4965232926421" stroke="#4444ff" stroke-opacity=".58" stroke-width="2.2" filter="url(#skr1x6892)"/><line x1="454.4278020376153" y1="491.91359082041305" x2="454.99592486636715" y2="519.9197263859212" stroke="#4444ff" stroke-opacity=".52" stroke-width="1.5" filter="url(#skr1x6892)"/><line x1="477.8779322570562" y1="492.85065353931856" x2="477.33826197547836" y2="518.9591767386534" stroke="#4444ff" stroke-opacity=".52" stroke-width="1.5" filter="url(#skr1x6892)"/><line x1="500.3208862557076" y1="490.46256855521347" x2="500.6843824828044" y2="521.046521976497" stroke="#4444ff" stroke-opacity=".52" stroke-width="1.5" filter="url(#skr1x6892)"/><line x1="523.203765124604" y1="490.68338961321854" x2="523.9943670792132" y2="521.5277210679836" stroke="#4444ff" stroke-opacity=".52" stroke-width="1.5" filter="url(#skr1x6892)"/><line x1="545.4346835838818" y1="492.712909885589" x2="546.8914183776081" y2="519.2729099133983" stroke="#4444ff" stroke-opacity=".52" stroke-width="1.5" filter="url(#skr1x6892)"/><polygon points="432.2,504.7 568.1,505.0 552.9,558.2 447.8,556.7" fill="#141428" fill-opacity=".72" stroke="#4444ff" stroke-width="1.3" filter="url(#skr1x6892)"/><path d="M341.7969786223397 373.1771080108359 Q380.09403244297954 236.49466470712795 500.34576624128965 282.77453008797016" stroke="#4444ff" stroke-width="2.8" fill="none" stroke-opacity=".88" filter="url(#skr1x6892)"/><path d="M658.6023882359825 370.89151929905637 Q617.5239323397725 238.37667536335064 498.4121323294006 281.5898476340808" stroke="#4444ff" stroke-width="2.8" fill="none" stroke-opacity=".88" filter="url(#skr1x6892)"/><line x1="418.811092939917" y1="470.44402039879935" x2="437.1364949294738" y2="503.4928311192431" stroke="#4444ff" stroke-opacity=".52" stroke-width="1.3" filter="url(#skr1x6892)"/><line x1="476.6028906213493" y1="471.7561577009969" x2="495.0545320815779" y2="502.35123271802445" stroke="#4444ff" stroke-opacity=".52" stroke-width="1.3" filter="url(#skr1x6892)"/><line x1="533.0917931929603" y1="471.11605524523185" x2="552.3259527223557" y2="502.6072209903971" stroke="#4444ff" stroke-opacity=".52" stroke-width="1.3" filter="url(#skr1x6892)"/><line x1="593.9056423906609" y1="472.52557699875905" x2="611.920092862416" y2="503.3658830584027" stroke="#4444ff" stroke-opacity=".52" stroke-width="1.3" filter="url(#skr1x6892)"/><text x="30.0"  y="975.0" font-family="monospace" font-weight="bold" font-size="22.0" fill="rgba(255,255,255,.22)">#0001</text><text x="500.0"   y="975.0" text-anchor="middle" font-family="monospace" font-weight="bold" font-size="22.0" fill="#4444ff" fill-opacity=".48">OBSIDIAN RANGER</text><text x="970.0" y="975.0" text-anchor="end"    font-family="monospace" font-weight="bold" font-size="22.0" fill="#4444ff" fill-opacity=".32">MECH RANGERS</text></svg>