<svg xmlns="http://www.w3.org/2000/svg" viewBox="0 0 1000 1000" width="1000" height="1000" shape-rendering="geometricPrecision"><defs>

  <!-- Scene gradients -->
  <radialGradient id="bgr1x7055" cx="50%" cy="42%" r="72%">
    <stop offset="0%"   stop-color="#001422"/>
    <stop offset="100%" stop-color="#000a14"/>
  </radialGradient>
  <linearGradient id="suitr1x7055" x1="8%" y1="0%" x2="92%" y2="100%">
    <stop offset="0%"   stop-color="#ccccff" stop-opacity=".95"/>
    <stop offset="45%"  stop-color="#242438"/>
    <stop offset="100%" stop-color="#000a14"/>
  </linearGradient>
  <linearGradient id="suitHir1x7055" x1="0%" y1="0%" x2="0%" y2="100%">
    <stop offset="0%"   stop-color="rgba(255,255,255,.28)"/>
    <stop offset="60%"  stop-color="rgba(255,255,255,.04)"/>
    <stop offset="100%" stop-color="rgba(255,255,255,0)"/>
  </linearGradient>
  <!-- Bevel: bright top, dark bottom for armour panels -->
  <linearGradient id="bevelr1x7055" x1="0%" y1="0%" x2="0%" y2="100%">
    <stop offset="0%"   stop-color="rgba(255,255,255,.55)"/>
    <stop offset="30%"  stop-color="#ccccff"/>
    <stop offset="70%"  stop-color="#242438"/>
    <stop offset="100%" stop-color="rgba(0,0,0,.5)"/>
  </linearGradient>

  <!-- Weapon: cold steel blade sweep -->
  <linearGradient id="blader1x7055" x1="0%" y1="0%" x2="100%" y2="0%">
    <stop offset="0%"   stop-color="#0e0e20"/>
    <stop offset="16%"  stop-color="#3e3e58"/>
    <stop offset="34%"  stop-color="#c8c8e0"/>
    <stop offset="50%"  stop-color="#f5f5ff"/>
    <stop offset="66%"  stop-color="#b8b8d0"/>
    <stop offset="84%"  stop-color="#2e2e48"/>
    <stop offset="100%" stop-color="#08080e"/>
  </linearGradient>
  <!-- Blade tip brightening -->
  <linearGradient id="bladeTipr1x7055" x1="0%" y1="100%" x2="0%" y2="0%">
    <stop offset="0%"   stop-color="rgba(255,255,255,0)"/>
    <stop offset="55%"  stop-color="rgba(255,255,255,.1)"/>
    <stop offset="100%" stop-color="rgba(255,255,255,.55)"/>
  </linearGradient>
  <!-- Gunmetal anodised — blaster body -->
  <linearGradient id="gunmetalr1x7055" x1="0%" y1="0%" x2="0%" y2="100%">
    <stop offset="0%"   stop-color="#46465e"/>
    <stop offset="18%"  stop-color="#828296"/>
    <stop offset="42%"  stop-color="#26263a"/>
    <stop offset="72%"  stop-color="#16162a"/>
    <stop offset="100%" stop-color="#0c0c18"/>
  </linearGradient>
  <!-- Brushed steel tube — barrel/rod -->
  <linearGradient id="barrelr1x7055" x1="0%" y1="0%" x2="100%" y2="0%">
    <stop offset="0%"   stop-color="#0a0a14"/>
    <stop offset="24%"  stop-color="#585875"/>
    <stop offset="50%"  stop-color="#a8a8c8"/>
    <stop offset="76%"  stop-color="#383852"/>
    <stop offset="100%" stop-color="#0a0a14"/>
  </linearGradient>
  <!-- Chrome rod — lance shaft -->
  <linearGradient id="chromer1x7055" x1="0%" y1="0%" x2="100%" y2="0%">
    <stop offset="0%"   stop-color="#0c0c18"/>
    <stop offset="20%"  stop-color="#686888"/>
    <stop offset="44%"  stop-color="#e0e0f0"/>
    <stop offset="56%"  stop-color="#c0c0d8"/>
    <stop offset="80%"  stop-color="#28283e"/>
    <stop offset="100%" stop-color="#0c0c18"/>
  </linearGradient>
  <!-- Titanium plate — shield face -->
  <linearGradient id="titaniumr1x7055" x1="0%" y1="0%" x2="100%" y2="100%">
    <stop offset="0%"   stop-color="#585878"/>
    <stop offset="28%"  stop-color="#ccccff" stop-opacity=".88"/>
    <stop offset="55%"  stop-color="#242438"/>
    <stop offset="80%"  stop-color="#181828"/>
    <stop offset="100%" stop-color="#0a0a18"/>
  </linearGradient>
  <!-- Artillery black-chrome — cannon body -->
  <linearGradient id="artilleryr1x7055" x1="0%" y1="0%" x2="0%" y2="100%">
    <stop offset="0%"   stop-color="#383850"/>
    <stop offset="14%"  stop-color="#78789a"/>
    <stop offset="36%"  stop-color="#202034"/>
    <stop offset="65%"  stop-color="#14141e"/>
    <stop offset="100%" stop-color="#0a0a12"/>
  </linearGradient>
  <!-- Energy orb — staff -->
  <radialGradient id="orbr1x7055" cx="35%" cy="35%" r="65%">
    <stop offset="0%"   stop-color="rgba(255,255,255,.9)"/>
    <stop offset="30%"  stop-color="#ccccff"/>
    <stop offset="68%"  stop-color="#242438"/>
    <stop offset="100%" stop-color="rgba(0,0,0,.6)"/>
  </radialGradient>
  <!-- Knuckle plate chrome -->
  <linearGradient id="knuckler1x7055" x1="0%" y1="0%" x2="0%" y2="100%">
    <stop offset="0%"   stop-color="#888aaa"/>
    <stop offset="32%"  stop-color="#ccccff" stop-opacity=".8"/>
    <stop offset="62%"  stop-color="#1a1a2c"/>
    <stop offset="100%" stop-color="#0a0a14"/>
  </linearGradient>

  <!-- Carbon fibre weave texture overlay -->
  <pattern id="carbonr1x7055" width="6" height="6" patternUnits="userSpaceOnUse">
    <rect width="6" height="6" fill="rgba(0,0,0,.08)"/>
    <rect x="0" y="0" width="3" height="3" fill="rgba(255,255,255,.022)"/>
    <rect x="3" y="3" width="3" height="3" fill="rgba(255,255,255,.022)"/>
    <line x1="0" y1="0" x2="3" y2="3" stroke="rgba(255,255,255,.038)" stroke-width=".5"/>
    <line x1="3" y1="0" x2="6" y2="3" stroke="rgba(0,0,0,.055)"       stroke-width=".5"/>
    <line x1="0" y1="3" x2="3" y2="6" stroke="rgba(0,0,0,.055)"       stroke-width=".5"/>
    <line x1="3" y1="3" x2="6" y2="6" stroke="rgba(255,255,255,.038)" stroke-width=".5"/>
  </pattern>

  <!-- Specular metal sheen on armour panels -->
  <filter id="metalr1x7055" x="-5%" y="-5%" width="110%" height="110%">
    <feSpecularLighting surfaceScale="4" specularConstant="1.8"
        specularExponent="42" lighting-color="#ffffff" result="spec">
      <feDistantLight elevation="52" azimuth="38"/>
    </feSpecularLighting>
    <feComposite in="spec" in2="SourceGraphic" operator="in" result="sm"/>
    <feComposite in="SourceGraphic" in2="sm" operator="arithmetic" k1="0" k2="1" k3="0.55" k4="0"/>
  </filter>

  <!-- Sharper specular for weapons — heavier glare -->
  <filter id="wmr1x7055" x="-8%" y="-8%" width="116%" height="116%">
    <feSpecularLighting surfaceScale="6" specularConstant="2.4"
        specularExponent="65" lighting-color="#ffffff" result="spec">
      <feDistantLight elevation="44" azimuth="28"/>
    </feSpecularLighting>
    <feComposite in="spec" in2="SourceGraphic" operator="in" result="sm"/>
    <feComposite in="SourceGraphic" in2="sm" operator="arithmetic" k1="0" k2="1" k3="0.78" k4="0"/>
  </filter>

  <!-- Sketch wobble -->
  <filter id="skr1x7055" x="-8%" y="-8%" width="116%" height="116%">
    <feTurbulence type="fractalNoise" baseFrequency="0.038"
        numOctaves="3" seed="12" result="noise"/>
    <feDisplacementMap in="SourceGraphic" in2="noise" scale="2.6"
        xChannelSelector="R" yChannelSelector="G" result="w"/>
    <feComposite in="w" in2="SourceGraphic" operator="atop"/>
  </filter>

  <!-- Glow: sharp accent -->
  <filter id="glowr1x7055" x="-20%" y="-20%" width="140%" height="140%">
    <feGaussianBlur stdDeviation="3.5" result="b"/>
    <feColorMatrix in="b" type="matrix"
        values="0 0 0 0 1  0 0 0 0 1  0 0 0 0 1  0 0 0 1.8 0" result="boost"/>
    <feMerge><feMergeNode in="boost"/><feMergeNode in="SourceGraphic"/></feMerge>
  </filter>

  <!-- Bloom: wide soft -->
  <filter id="bloomr1x7055" x="-40%" y="-40%" width="180%" height="180%">
    <feGaussianBlur stdDeviation="11" result="b"/>
    <feMerge><feMergeNode in="b"/><feMergeNode in="SourceGraphic"/></feMerge>
  </filter>

  </defs><rect width="1000" height="1000" fill="url(#bgr1x7055)"/><line x1="0" y1="-1.3" x2="1000" y2="2.8" stroke="#ccccff" stroke-opacity=".055" stroke-width="1.2"/><line x1="-2.7" y1="0" x2="-0.4" y2="1000" stroke="#ccccff" stroke-opacity=".055" stroke-width="1.2"/><line x1="0" y1="101.5" x2="1000" y2="97.7" stroke="#ccccff" stroke-opacity=".055" stroke-width="1.2"/><line x1="99.0" y1="0" x2="98.8" y2="1000" stroke="#ccccff" stroke-opacity=".055" stroke-width="1.2"/><line x1="0" y1="197.6" x2="1000" y2="202.4" stroke="#ccccff" stroke-opacity=".055" stroke-width="1.2"/><line x1="197.4" y1="0" x2="201.5" y2="1000" stroke="#ccccff" stroke-opacity=".055" stroke-width="1.2"/><line x1="0" y1="300.8" x2="1000" y2="302.0" stroke="#ccccff" stroke-opacity=".055" stroke-width="1.2"/><line x1="298.1" y1="0" x2="300.9" y2="1000" stroke="#ccccff" stroke-opacity=".055" stroke-width="1.2"/><line x1="0" y1="398.5" x2="1000" y2="400.4" stroke="#ccccff" stroke-opacity=".055" stroke-width="1.2"/><line x1="397.4" y1="0" x2="399.6" y2="1000" stroke="#ccccff" stroke-opacity=".055" stroke-width="1.2"/><line x1="0" y1="497.3" x2="1000" y2="501.7" stroke="#ccccff" stroke-opacity=".055" stroke-width="1.2"/><line x1="502.2" y1="0" x2="497.8" y2="1000" stroke="#ccccff" stroke-opacity=".055" stroke-width="1.2"/><line x1="0" y1="597.6" x2="1000" y2="600.0" stroke="#ccccff" stroke-opacity=".055" stroke-width="1.2"/><line x1="599.7" y1="0" x2="601.5" y2="1000" stroke="#ccccff" stroke-opacity=".055" stroke-width="1.2"/><line x1="0" y1="699.7" x2="1000" y2="702.3" stroke="#ccccff" stroke-opacity=".055" stroke-width="1.2"/><line x1="698.8" y1="0" x2="698.9" y2="1000" stroke="#ccccff" stroke-opacity=".055" stroke-width="1.2"/><line x1="0" y1="798.1" x2="1000" y2="799.9" stroke="#ccccff" stroke-opacity=".055" stroke-width="1.2"/><line x1="798.3" y1="0" x2="802.1" y2="1000" stroke="#ccccff" stroke-opacity=".055" stroke-width="1.2"/><line x1="0" y1="898.0" x2="1000" y2="900.1" stroke="#ccccff" stroke-opacity=".055" stroke-width="1.2"/><line x1="898.5" y1="0" x2="897.6" y2="1000" stroke="#ccccff" stroke-opacity=".055" stroke-width="1.2"/><path d="M80,30 L30,30 L30,80" stroke="#ccccff" stroke-opacity=".45" stroke-width="2" fill="none" filter="url(#glowr1x7055)"/><path d="M920,30 L970,30 L970,80" stroke="#ccccff" stroke-opacity=".45" stroke-width="2" fill="none" filter="url(#glowr1x7055)"/><path d="M30,920 L30,970 L80,970" stroke="#ccccff" stroke-opacity=".45" stroke-width="2" fill="none" filter="url(#glowr1x7055)"/><path d="M970,920 L970,970 L920,970" stroke="#ccccff" stroke-opacity=".45" stroke-width="2" fill="none" filter="url(#glowr1x7055)"/><ellipse cx="500.0" cy="892.0" rx="350.0" ry="65.0" fill="rgba(0,0,0,.7)" filter="url(#bloomr1x7055)"/><ellipse cx="500.0" cy="889.0" rx="220.0" ry="34.0" fill="rgba(0,0,0,.45)"/><polygon points="400.0,661.3 488.3,662.1 480.9,877.2 387.8,876.2" fill="url(#suitr1x7055)" stroke="#ccccff" stroke-width="2.2" filter="url(#skr1x7055) url(#metalr1x7055)"/><polygon points="400.2,662.0 491.0,661.1 479.7,877.4 387.1,876.7" fill="url(#carbonr1x7055)"/><polygon points="391.7,722.4 493.9,724.9 484.1,788.4 382.7,787.0" fill="url(#bevelr1x7055)" fill-opacity=".5" stroke="#ccccff" stroke-width="1.4" filter="url(#skr1x7055)"/><polygon points="510.0,664.1 600.7,663.1 613.2,877.7 517.9,877.5" fill="url(#suitr1x7055)" stroke="#ccccff" stroke-width="2.2" filter="url(#skr1x7055) url(#metalr1x7055)"/><polygon points="510.1,661.7 600.9,662.9 611.3,878.9 519.9,878.7" fill="url(#carbonr1x7055)"/><polygon points="508.0,723.5 608.6,724.5 617.2,789.8 517.4,786.6" fill="url(#bevelr1x7055)" fill-opacity=".5" stroke="#ccccff" stroke-width="1.4" filter="url(#skr1x7055)"/><rect x="393.8" y="837.9" width="100.3" height="24.7" fill="url(#bevelr1x7055)" stroke="#ccccff" stroke-width="1" filter="url(#skr1x7055)"/><rect x="507.3"  y="839.7" width="100.3" height="24.7" fill="url(#bevelr1x7055)" stroke="#ccccff" stroke-width="1" filter="url(#skr1x7055)"/><polygon points="371.2,878.2 497.6,878.9 502.1,922.2 360.9,922.0" fill="#242438" stroke="#ccccff" stroke-width="2" filter="url(#skr1x7055)"/><polygon points="504.3,878.7 628.9,875.9 636.2,920.2 496.7,922.8" fill="#242438" stroke="#ccccff" stroke-width="2" filter="url(#skr1x7055)"/><polygon points="303.5,634.5 695.6,634.4 636.6,682.6 363.6,680.9" fill="#ccccff" fill-opacity=".52" stroke="#ccccff" stroke-width="2" filter="url(#skr1x7055)"/><rect x="464.2" y="636.4" width="72.0" height="42.0" fill="url(#bevelr1x7055)" stroke="#ccccff" stroke-width="1.4" filter="url(#glowr1x7055)"/><rect x="487.7" y="641.8" width="28.0" height="22.0" rx="1" fill="rgba(255,255,255,.48)"/><polygon points="153.2,464.8 235.5,467.0 258.7,734.6 129.7,736.3" fill="url(#suitr1x7055)" stroke="#ccccff" stroke-width="2.2" filter="url(#skr1x7055) url(#metalr1x7055)"/><polygon points="173.5,431.8 254.3,430.6 243.1,510.8 160.1,510.4" fill="url(#bevelr1x7055)" fill-opacity=".72" stroke="#ccccff" stroke-width="2.2" filter="url(#skr1x7055)"/><polygon points="159.9,622.4 245.0,621.4 240.7,660.8 165.2,659.8" fill="#ccccff" fill-opacity=".42" stroke="#ccccff" stroke-width="1" filter="url(#skr1x7055)"/><polygon points="763.7,466.9 846.4,466.2 873.3,736.4 740.6,733.9" fill="url(#suitr1x7055)" stroke="#ccccff" stroke-width="2.2" filter="url(#skr1x7055) url(#metalr1x7055)"/><polygon points="746.9,432.4 826.9,431.7 839.3,511.0 758.0,512.0" fill="url(#bevelr1x7055)" fill-opacity=".72" stroke="#ccccff" stroke-width="2.2" filter="url(#skr1x7055)"/><polygon points="755.7,621.6 840.2,622.8 834.9,659.9 760.9,662.4" fill="#ccccff" fill-opacity=".42" stroke="#ccccff" stroke-width="1" filter="url(#skr1x7055)"/><rect x="118.8"  y="698.7" width="135.3" height="85.0" rx="4" fill="url(#bevelr1x7055)" stroke="#ccccff" stroke-width="1.8" filter="url(#skr1x7055)"/><rect x="750.2"   y="700.8" width="135.3" height="85.0" rx="4" fill="url(#bevelr1x7055)" stroke="#ccccff" stroke-width="1.8" filter="url(#skr1x7055)"/><line x1="149.9" y1="701.0" x2="148.0" y2="783.6" stroke="#ccccff" stroke-opacity=".38" stroke-width="1"/><line x1="777.0" y1="700.8" x2="779.7" y2="785.0" stroke="#ccccff" stroke-opacity=".38" stroke-width="1"/><line x1="182.0" y1="703.4" x2="181.9" y2="784.4" stroke="#ccccff" stroke-opacity=".38" stroke-width="1"/><line x1="812.0" y1="700.8" x2="812.4" y2="784.2" stroke="#ccccff" stroke-opacity=".38" stroke-width="1"/><line x1="215.6" y1="702.8" x2="216.6" y2="782.4" stroke="#ccccff" stroke-opacity=".38" stroke-width="1"/><line x1="842.5" y1="700.3" x2="843.9" y2="783.3" stroke="#ccccff" stroke-opacity=".38" stroke-width="1"/><polygon points="235.0,418.3 764.6,419.1 721.6,661.5 276.4,661.7" fill="url(#suitr1x7055)" stroke="#ccccff" stroke-width="2.6" filter="url(#skr1x7055) url(#metalr1x7055)"/><polygon points="233.6,419.1 766.1,415.9 723.4,661.2 276.6,661.2" fill="url(#carbonr1x7055)"/><polygon points="366.6,417.1 632.1,418.7 610.0,516.7 388.0,514.8" fill="url(#suitHir1x7055)"/><line x1="361.8" y1="472.6" x2="637.2" y2="472.4" stroke="#ccccff" stroke-opacity=".52" stroke-width="1.3" filter="url(#skr1x7055)"/><line x1="399.2" y1="549.9" x2="598.9" y2="548.8" stroke="#ccccff" stroke-opacity=".52" stroke-width="1.3" filter="url(#skr1x7055)"/><line x1="266.0" y1="490.1" x2="321.5" y2="490.1" stroke="#ccccff" stroke-opacity=".62" stroke-width="1.8"/><line x1="678.8" y1="492.4" x2="734.2" y2="491.4" stroke="#ccccff" stroke-opacity=".62" stroke-width="1.8"/><line x1="266.5" y1="522.6" x2="319.7" y2="523.7" stroke="#ccccff" stroke-opacity=".62" stroke-width="1.8"/><line x1="679.7" y1="522.5" x2="734.0" y2="521.3" stroke="#ccccff" stroke-opacity=".62" stroke-width="1.8"/><line x1="268.3" y1="554.0" x2="318.3" y2="554.2" stroke="#ccccff" stroke-opacity=".62" stroke-width="1.8"/><line x1="678.6" y1="555.5" x2="734.1" y2="554.6" stroke="#ccccff" stroke-opacity=".62" stroke-width="1.8"/><line x1="267.2" y1="586.1" x2="319.5" y2="585.5" stroke="#ccccff" stroke-opacity=".62" stroke-width="1.8"/><line x1="678.7" y1="587.4" x2="734.9" y2="585.6" stroke="#ccccff" stroke-opacity=".62" stroke-width="1.8"/><g filter="url(#glowr1x7055)"><circle cx="498.5" cy="500.2" r="31.3" fill="#ccccff" stroke="#000a14" stroke-width="1.4" filter="url(#skr1x7055)"/><circle cx="489.0" cy="498.3" r="7.0" fill="#000a14"/><circle cx="513.3" cy="496.1" r="7.0" fill="#000a14"/><rect x="485.5" y="522.5" width="9.3" height="17.4" rx="1" fill="#ccccff" stroke="#000a14" stroke-width=".6"/><rect x="496.0" y="522.3" width="9.3" height="17.4" rx="1" fill="#ccccff" stroke="#000a14" stroke-width=".6"/><rect x="506.1" y="520.6" width="9.3" height="17.4" rx="1" fill="#ccccff" stroke="#000a14" stroke-width=".6"/></g><g><rect x="34.14241581656036" y="422.6680948375724" width="148.0" height="82.0" rx="5" fill="url(#gunmetalr1x7055)" stroke="#ccccff" stroke-width="2" filter="url(#wmr1x7055)"/><rect x="35.402921620327945" y="420.6154328723438" width="148.0" height="82.0" rx="5" fill="url(#carbonr1x7055)"/><rect x="41.97246184082699" y="405.14181356243785" width="90.0" height="22.0" rx="3" fill="url(#barrelr1x7055)" stroke="#ccccff" stroke-width="1" filter="url(#wmr1x7055)"/><circle cx="83.64426555786278" cy="415.13470974201334" r="15.0" fill="#ccccff" opacity=".8" filter="url(#glowr1x7055)"/><circle cx="80.39961447617036" cy="415.731583619304" r="6.0" fill="rgba(255,255,255,.9)"/><rect x="55.661289970148324" y="455.1642596782185" width="78.0" height="36.0" rx="5" fill="url(#barrelr1x7055)" stroke="#ccccff" stroke-width="1.2" filter="url(#wmr1x7055)"/><circle cx="-18.291703161001237" cy="471.74361938610673" r="18.0" fill="#ccccff" filter="url(#glowr1x7055)" opacity=".88"/><circle cx="-18.477153914477707" cy="472.0024793680757" r="7.0" fill="#ffffff"/><rect x="77.21698694456366" y="500.9421729519963" width="44.0" height="42.0" rx="3" fill="url(#gunmetalr1x7055)" stroke="#ccccff" stroke-width="1" filter="url(#wmr1x7055)"/><rect x="37.334747738707776" y="421.9630939032882" width="90.0" height="10.0" rx="2" fill="rgba(255,255,255,.22)"/><line x1="62.815320088472184" y1="487.2144506115466" x2="62.788779783658654" y2="520.0766642495058" stroke="#ccccff" stroke-opacity=".5" stroke-width="1.2"/><line x1="77.56160209825259" y1="485.6452835444361" x2="78.61809268727896" y2="519.6539658549242" stroke="#ccccff" stroke-opacity=".5" stroke-width="1.2"/><line x1="92.36837611462917" y1="488.0171433391049" x2="94.21045249741522" y2="520.881064506527" stroke="#ccccff" stroke-opacity=".5" stroke-width="1.2"/></g><rect x="448.85446081850677" y="558.2100496165455" width="100.0"  height="56.0" fill="#242438" stroke="#ccccff" stroke-width="2.2" filter="url(#skr1x7055)"/><rect x="424.1395148529671" y="576.7635324983858" width="152.0" height="26.0" fill="url(#bevelr1x7055)" fill-opacity=".65" stroke="#ccccff" stroke-width="1.2" filter="url(#skr1x7055)"/><polygon points="308.6,381.9 348.7,293.2 499.7,278.4 649.2,293.5 691.7,381.8 669.3,503.7 500.9,564.9 330.2,503.0" fill="url(#suitr1x7055)" stroke="#ccccff" stroke-width="2.8" filter="url(#skr1x7055) url(#metalr1x7055)"/><polygon points="308.4,380.6 349.0,293.2 498.6,276.6 649.8,293.5 690.7,381.7 669.6,503.2 499.7,565.9 331.9,503.9" fill="url(#carbonr1x7055)"/><polygon points="381.4,304.3 498.4,285.9 618.4,303.9 608.0,379.4 390.7,380.9" fill="url(#suitHir1x7055)"/><polygon points="382.4,381.0 367.0,425.8 432.2,501.9 498.3,529.1 566.7,504.7 634.8,424.4 617.7,380.7" fill="#000a14" fill-opacity=".88" stroke="#ccccff" stroke-width="1.8" filter="url(#skr1x7055)"/><polygon points="379.9,412.7 477.0,412.1 485.7,440.1 388.1,441.5" fill="#ccccff" filter="url(#glowr1x7055)"/><polygon points="522.1,412.9 620.0,412.0 610.6,439.3 514.7,441.0" fill="#ccccff" filter="url(#glowr1x7055)"/><ellipse cx="430.9" cy="425.7" rx="38.4"  ry="8.2" fill="#ffffff" opacity=".88"/><ellipse cx="569.1" cy="425.7" rx="38.4"  ry="8.2" fill="#ffffff" opacity=".88"/><line x1="485.8530223466083" y1="414.3814904199913" x2="516.7199874542094" y2="411.82079303311184" stroke="#ccccff" stroke-opacity=".52" stroke-width="2"/><line x1="483.69691122831773" y1="436.3820865986869" x2="516.9310103808903" y2="438.20566935651004" stroke="#ccccff" stroke-opacity=".52" stroke-width="2"/><line x1="499.0297734832391" y1="453.2186306123622" x2="500.45388986859473" y2="482.0163107864559" stroke="#ccccff" stroke-opacity=".58" stroke-width="2.2" filter="url(#skr1x7055)"/><line x1="453.09500561727214" y1="493.04405254060396" x2="454.97883364193143" y2="518.7183430201374" stroke="#ccccff" stroke-opacity=".52" stroke-width="1.5" filter="url(#skr1x7055)"/><line x1="477.60427317092194" y1="491.44016266092655" x2="475.39608035799114" y2="521.4609488391318" stroke="#ccccff" stroke-opacity=".52" stroke-width="1.5" filter="url(#skr1x7055)"/><line x1="499.771248971764" y1="490.2571129615418" x2="498.61868739072236" y2="521.6981742279604" stroke="#ccccff" stroke-opacity=".52" stroke-width="1.5" filter="url(#skr1x7055)"/><line x1="524.568683959227" y1="492.1818785063922" x2="524.0229223893582" y2="521.6026987827383" stroke="#ccccff" stroke-opacity=".52" stroke-width="1.5" filter="url(#skr1x7055)"/><line x1="545.1795038256981" y1="492.22069595828646" x2="547.8593440854178" y2="518.88456817884" stroke="#ccccff" stroke-opacity=".52" stroke-width="1.5" filter="url(#skr1x7055)"/><polygon points="432.3,505.0 566.5,503.9 555.4,558.1 444.5,557.1" fill="#242438" fill-opacity=".72" stroke="#ccccff" stroke-width="1.3" filter="url(#skr1x7055)"/><text x="30.0"  y="975.0" font-family="monospace" font-weight="bold" font-size="22.0" fill="rgba(255,255,255,.22)">#0001</text><text x="500.0"   y="975.0" text-anchor="middle" font-family="monospace" font-weight="bold" font-size="22.0" fill="#ccccff" fill-opacity=".48">PHANTOM RANGER</text><text x="970.0" y="975.0" text-anchor="end"    font-family="monospace" font-weight="bold" font-size="22.0" fill="#ccccff" fill-opacity=".32">MECH RANGERS</text></svg>