<svg xmlns="http://www.w3.org/2000/svg" viewBox="0 0 1000 1000" width="1000" height="1000" shape-rendering="geometricPrecision"><defs>

  <!-- Scene gradients -->
  <radialGradient id="bgr1x7059" cx="50%" cy="42%" r="72%">
    <stop offset="0%"   stop-color="#1e0032"/>
    <stop offset="100%" stop-color="#08001e"/>
  </radialGradient>
  <linearGradient id="suitr1x7059" x1="8%" y1="0%" x2="92%" y2="100%">
    <stop offset="0%"   stop-color="#2060ff" stop-opacity=".95"/>
    <stop offset="45%"  stop-color="#003ccc"/>
    <stop offset="100%" stop-color="#08001e"/>
  </linearGradient>
  <linearGradient id="suitHir1x7059" x1="0%" y1="0%" x2="0%" y2="100%">
    <stop offset="0%"   stop-color="rgba(255,255,255,.28)"/>
    <stop offset="60%"  stop-color="rgba(255,255,255,.04)"/>
    <stop offset="100%" stop-color="rgba(255,255,255,0)"/>
  </linearGradient>
  <!-- Bevel: bright top, dark bottom for armour panels -->
  <linearGradient id="bevelr1x7059" x1="0%" y1="0%" x2="0%" y2="100%">
    <stop offset="0%"   stop-color="rgba(255,255,255,.55)"/>
    <stop offset="30%"  stop-color="#2060ff"/>
    <stop offset="70%"  stop-color="#003ccc"/>
    <stop offset="100%" stop-color="rgba(0,0,0,.5)"/>
  </linearGradient>

  <!-- Weapon: cold steel blade sweep -->
  <linearGradient id="blader1x7059" x1="0%" y1="0%" x2="100%" y2="0%">
    <stop offset="0%"   stop-color="#0e0e20"/>
    <stop offset="16%"  stop-color="#3e3e58"/>
    <stop offset="34%"  stop-color="#c8c8e0"/>
    <stop offset="50%"  stop-color="#f5f5ff"/>
    <stop offset="66%"  stop-color="#b8b8d0"/>
    <stop offset="84%"  stop-color="#2e2e48"/>
    <stop offset="100%" stop-color="#08080e"/>
  </linearGradient>
  <!-- Blade tip brightening -->
  <linearGradient id="bladeTipr1x7059" x1="0%" y1="100%" x2="0%" y2="0%">
    <stop offset="0%"   stop-color="rgba(255,255,255,0)"/>
    <stop offset="55%"  stop-color="rgba(255,255,255,.1)"/>
    <stop offset="100%" stop-color="rgba(255,255,255,.55)"/>
  </linearGradient>
  <!-- Gunmetal anodised — blaster body -->
  <linearGradient id="gunmetalr1x7059" x1="0%" y1="0%" x2="0%" y2="100%">
    <stop offset="0%"   stop-color="#46465e"/>
    <stop offset="18%"  stop-color="#828296"/>
    <stop offset="42%"  stop-color="#26263a"/>
    <stop offset="72%"  stop-color="#16162a"/>
    <stop offset="100%" stop-color="#0c0c18"/>
  </linearGradient>
  <!-- Brushed steel tube — barrel/rod -->
  <linearGradient id="barrelr1x7059" x1="0%" y1="0%" x2="100%" y2="0%">
    <stop offset="0%"   stop-color="#0a0a14"/>
    <stop offset="24%"  stop-color="#585875"/>
    <stop offset="50%"  stop-color="#a8a8c8"/>
    <stop offset="76%"  stop-color="#383852"/>
    <stop offset="100%" stop-color="#0a0a14"/>
  </linearGradient>
  <!-- Chrome rod — lance shaft -->
  <linearGradient id="chromer1x7059" x1="0%" y1="0%" x2="100%" y2="0%">
    <stop offset="0%"   stop-color="#0c0c18"/>
    <stop offset="20%"  stop-color="#686888"/>
    <stop offset="44%"  stop-color="#e0e0f0"/>
    <stop offset="56%"  stop-color="#c0c0d8"/>
    <stop offset="80%"  stop-color="#28283e"/>
    <stop offset="100%" stop-color="#0c0c18"/>
  </linearGradient>
  <!-- Titanium plate — shield face -->
  <linearGradient id="titaniumr1x7059" x1="0%" y1="0%" x2="100%" y2="100%">
    <stop offset="0%"   stop-color="#585878"/>
    <stop offset="28%"  stop-color="#2060ff" stop-opacity=".88"/>
    <stop offset="55%"  stop-color="#003ccc"/>
    <stop offset="80%"  stop-color="#181828"/>
    <stop offset="100%" stop-color="#0a0a18"/>
  </linearGradient>
  <!-- Artillery black-chrome — cannon body -->
  <linearGradient id="artilleryr1x7059" x1="0%" y1="0%" x2="0%" y2="100%">
    <stop offset="0%"   stop-color="#383850"/>
    <stop offset="14%"  stop-color="#78789a"/>
    <stop offset="36%"  stop-color="#202034"/>
    <stop offset="65%"  stop-color="#14141e"/>
    <stop offset="100%" stop-color="#0a0a12"/>
  </linearGradient>
  <!-- Energy orb — staff -->
  <radialGradient id="orbr1x7059" cx="35%" cy="35%" r="65%">
    <stop offset="0%"   stop-color="rgba(255,255,255,.9)"/>
    <stop offset="30%"  stop-color="#2060ff"/>
    <stop offset="68%"  stop-color="#003ccc"/>
    <stop offset="100%" stop-color="rgba(0,0,0,.6)"/>
  </radialGradient>
  <!-- Knuckle plate chrome -->
  <linearGradient id="knuckler1x7059" x1="0%" y1="0%" x2="0%" y2="100%">
    <stop offset="0%"   stop-color="#888aaa"/>
    <stop offset="32%"  stop-color="#2060ff" stop-opacity=".8"/>
    <stop offset="62%"  stop-color="#1a1a2c"/>
    <stop offset="100%" stop-color="#0a0a14"/>
  </linearGradient>

  <!-- Carbon fibre weave texture overlay -->
  <pattern id="carbonr1x7059" width="6" height="6" patternUnits="userSpaceOnUse">
    <rect width="6" height="6" fill="rgba(0,0,0,.08)"/>
    <rect x="0" y="0" width="3" height="3" fill="rgba(255,255,255,.022)"/>
    <rect x="3" y="3" width="3" height="3" fill="rgba(255,255,255,.022)"/>
    <line x1="0" y1="0" x2="3" y2="3" stroke="rgba(255,255,255,.038)" stroke-width=".5"/>
    <line x1="3" y1="0" x2="6" y2="3" stroke="rgba(0,0,0,.055)"       stroke-width=".5"/>
    <line x1="0" y1="3" x2="3" y2="6" stroke="rgba(0,0,0,.055)"       stroke-width=".5"/>
    <line x1="3" y1="3" x2="6" y2="6" stroke="rgba(255,255,255,.038)" stroke-width=".5"/>
  </pattern>

  <!-- Specular metal sheen on armour panels -->
  <filter id="metalr1x7059" x="-5%" y="-5%" width="110%" height="110%">
    <feSpecularLighting surfaceScale="4" specularConstant="1.8"
        specularExponent="42" lighting-color="#ffffff" result="spec">
      <feDistantLight elevation="52" azimuth="38"/>
    </feSpecularLighting>
    <feComposite in="spec" in2="SourceGraphic" operator="in" result="sm"/>
    <feComposite in="SourceGraphic" in2="sm" operator="arithmetic" k1="0" k2="1" k3="0.55" k4="0"/>
  </filter>

  <!-- Sharper specular for weapons — heavier glare -->
  <filter id="wmr1x7059" x="-8%" y="-8%" width="116%" height="116%">
    <feSpecularLighting surfaceScale="6" specularConstant="2.4"
        specularExponent="65" lighting-color="#ffffff" result="spec">
      <feDistantLight elevation="44" azimuth="28"/>
    </feSpecularLighting>
    <feComposite in="spec" in2="SourceGraphic" operator="in" result="sm"/>
    <feComposite in="SourceGraphic" in2="sm" operator="arithmetic" k1="0" k2="1" k3="0.78" k4="0"/>
  </filter>

  <!-- Sketch wobble -->
  <filter id="skr1x7059" x="-8%" y="-8%" width="116%" height="116%">
    <feTurbulence type="fractalNoise" baseFrequency="0.038"
        numOctaves="3" seed="6" result="noise"/>
    <feDisplacementMap in="SourceGraphic" in2="noise" scale="2.6"
        xChannelSelector="R" yChannelSelector="G" result="w"/>
    <feComposite in="w" in2="SourceGraphic" operator="atop"/>
  </filter>

  <!-- Glow: sharp accent -->
  <filter id="glowr1x7059" x="-20%" y="-20%" width="140%" height="140%">
    <feGaussianBlur stdDeviation="3.5" result="b"/>
    <feColorMatrix in="b" type="matrix"
        values="0 0 0 0 1  0 0 0 0 1  0 0 0 0 1  0 0 0 1.8 0" result="boost"/>
    <feMerge><feMergeNode in="boost"/><feMergeNode in="SourceGraphic"/></feMerge>
  </filter>

  <!-- Bloom: wide soft -->
  <filter id="bloomr1x7059" x="-40%" y="-40%" width="180%" height="180%">
    <feGaussianBlur stdDeviation="11" result="b"/>
    <feMerge><feMergeNode in="b"/><feMergeNode in="SourceGraphic"/></feMerge>
  </filter>

  </defs><rect width="1000" height="1000" fill="url(#bgr1x7059)"/><ellipse cx="500.0" cy="892.0" rx="350.0" ry="65.0" fill="rgba(0,0,0,.7)" filter="url(#bloomr1x7059)"/><ellipse cx="500.0" cy="889.0" rx="220.0" ry="34.0" fill="rgba(0,0,0,.45)"/><polygon points="397.5,663.0 489.7,662.2 479.0,876.7 386.0,879.2" fill="url(#suitr1x7059)" stroke="#2060ff" stroke-width="2.2" filter="url(#skr1x7059) url(#metalr1x7059)"/><polygon points="399.4,662.0 488.9,663.4 480.4,876.2 385.9,877.8" fill="url(#carbonr1x7059)"/><polygon points="394.3,724.4 491.6,725.4 485.0,787.4 384.6,788.9" fill="url(#bevelr1x7059)" fill-opacity=".5" stroke="#2060ff" stroke-width="1.4" filter="url(#skr1x7059)"/><polygon points="510.3,663.2 600.5,664.2 612.7,877.4 517.6,877.5" fill="url(#suitr1x7059)" stroke="#2060ff" stroke-width="2.2" filter="url(#skr1x7059) url(#metalr1x7059)"/><polygon points="512.2,663.4 599.7,662.0 613.4,876.2 520.2,879.0" fill="url(#carbonr1x7059)"/><polygon points="506.4,725.1 606.8,723.1 616.1,789.8 514.7,789.3" fill="url(#bevelr1x7059)" fill-opacity=".5" stroke="#2060ff" stroke-width="1.4" filter="url(#skr1x7059)"/><rect x="391.2" y="838.1" width="100.3" height="24.7" fill="url(#bevelr1x7059)" stroke="#2060ff" stroke-width="1" filter="url(#skr1x7059)"/><rect x="508.7"  y="839.2" width="100.3" height="24.7" fill="url(#bevelr1x7059)" stroke="#2060ff" stroke-width="1" filter="url(#skr1x7059)"/><polygon points="369.5,876.4 496.7,877.7 502.0,922.0 361.4,921.5" fill="#003ccc" stroke="#2060ff" stroke-width="2" filter="url(#skr1x7059)"/><polygon points="501.8,876.7 628.5,879.0 635.8,920.4 496.7,920.1" fill="#003ccc" stroke="#2060ff" stroke-width="2" filter="url(#skr1x7059)"/><polygon points="302.9,632.7 697.9,632.1 637.9,683.6 363.1,683.0" fill="#2060ff" fill-opacity=".52" stroke="#2060ff" stroke-width="2" filter="url(#skr1x7059)"/><rect x="465.8" y="637.2" width="72.0" height="42.0" fill="url(#bevelr1x7059)" stroke="#2060ff" stroke-width="1.4" filter="url(#glowr1x7059)"/><rect x="486.6" y="639.1" width="28.0" height="22.0" rx="1" fill="rgba(255,255,255,.48)"/><polygon points="152.6,466.5 234.9,467.7 259.6,735.0 126.9,736.7" fill="url(#suitr1x7059)" stroke="#2060ff" stroke-width="2.2" filter="url(#skr1x7059) url(#metalr1x7059)"/><polygon points="174.2,433.5 253.9,432.0 244.5,510.2 161.0,511.6" fill="url(#bevelr1x7059)" fill-opacity=".72" stroke="#2060ff" stroke-width="2.2" filter="url(#skr1x7059)"/><polygon points="160.6,622.6 244.5,621.9 240.1,660.7 167.1,659.4" fill="#2060ff" fill-opacity=".42" stroke="#2060ff" stroke-width="1" filter="url(#skr1x7059)"/><polygon points="766.2,465.1 848.8,466.4 870.0,736.5 742.5,735.1" fill="url(#suitr1x7059)" stroke="#2060ff" stroke-width="2.2" filter="url(#skr1x7059) url(#metalr1x7059)"/><polygon points="747.6,431.6 825.4,430.4 839.8,509.6 758.2,509.2" fill="url(#bevelr1x7059)" fill-opacity=".72" stroke="#2060ff" stroke-width="2.2" filter="url(#skr1x7059)"/><polygon points="757.8,622.6 838.2,620.3 834.5,659.7 760.1,661.3" fill="#2060ff" fill-opacity=".42" stroke="#2060ff" stroke-width="1" filter="url(#skr1x7059)"/><rect x="118.7"  y="698.7" width="135.3" height="85.0" rx="4" fill="url(#bevelr1x7059)" stroke="#2060ff" stroke-width="1.8" filter="url(#skr1x7059)"/><rect x="748.5"   y="699.4" width="135.3" height="85.0" rx="4" fill="url(#bevelr1x7059)" stroke="#2060ff" stroke-width="1.8" filter="url(#skr1x7059)"/><line x1="150.9" y1="702.8" x2="151.2" y2="785.1" stroke="#2060ff" stroke-opacity=".38" stroke-width="1"/><line x1="778.3" y1="702.1" x2="778.2" y2="783.2" stroke="#2060ff" stroke-opacity=".38" stroke-width="1"/><line x1="183.5" y1="700.5" x2="183.3" y2="782.2" stroke="#2060ff" stroke-opacity=".38" stroke-width="1"/><line x1="811.0" y1="703.1" x2="811.0" y2="784.7" stroke="#2060ff" stroke-opacity=".38" stroke-width="1"/><line x1="215.6" y1="701.2" x2="215.7" y2="784.7" stroke="#2060ff" stroke-opacity=".38" stroke-width="1"/><line x1="844.0" y1="701.9" x2="843.0" y2="783.7" stroke="#2060ff" stroke-opacity=".38" stroke-width="1"/><polygon points="235.8,416.8 764.6,417.8 720.8,661.8 277.5,661.9" fill="url(#suitr1x7059)" stroke="#2060ff" stroke-width="2.6" filter="url(#skr1x7059) url(#metalr1x7059)"/><polygon points="233.7,417.3 763.4,418.7 722.0,662.3 277.5,661.6" fill="url(#carbonr1x7059)"/><polygon points="367.8,416.7 633.7,416.9 611.5,515.4 389.1,515.2" fill="url(#suitHir1x7059)"/><line x1="362.5" y1="471.4" x2="636.4" y2="472.1" stroke="#2060ff" stroke-opacity=".52" stroke-width="1.3" filter="url(#skr1x7059)"/><line x1="397.6" y1="548.5" x2="601.1" y2="548.6" stroke="#2060ff" stroke-opacity=".52" stroke-width="1.3" filter="url(#skr1x7059)"/><line x1="268.2" y1="490.1" x2="320.8" y2="490.5" stroke="#2060ff" stroke-opacity=".62" stroke-width="1.8"/><line x1="679.5" y1="490.5" x2="733.4" y2="490.7" stroke="#2060ff" stroke-opacity=".62" stroke-width="1.8"/><line x1="265.0" y1="522.9" x2="320.0" y2="521.6" stroke="#2060ff" stroke-opacity=".62" stroke-width="1.8"/><line x1="680.8" y1="521.8" x2="732.6" y2="523.7" stroke="#2060ff" stroke-opacity=".62" stroke-width="1.8"/><line x1="265.4" y1="555.5" x2="320.2" y2="553.8" stroke="#2060ff" stroke-opacity=".62" stroke-width="1.8"/><line x1="679.7" y1="553.3" x2="732.9" y2="555.9" stroke="#2060ff" stroke-opacity=".62" stroke-width="1.8"/><line x1="265.8" y1="588.2" x2="320.8" y2="586.6" stroke="#2060ff" stroke-opacity=".62" stroke-width="1.8"/><line x1="679.4" y1="587.0" x2="733.5" y2="587.6" stroke="#2060ff" stroke-opacity=".62" stroke-width="1.8"/><g filter="url(#glowr1x7059)"><circle cx="499.6" cy="501.3" r="31.3" fill="#2060ff" stroke="#08001e" stroke-width="1.4" filter="url(#skr1x7059)"/><circle cx="488.8" cy="499.6" r="7.0" fill="#08001e"/><circle cx="513.0" cy="496.8" r="7.0" fill="#08001e"/><rect x="485.0" y="521.8" width="9.3" height="17.4" rx="1" fill="#2060ff" stroke="#08001e" stroke-width=".6"/><rect x="494.7" y="522.5" width="9.3" height="17.4" rx="1" fill="#2060ff" stroke="#08001e" stroke-width=".6"/><rect x="506.7" y="523.6" width="9.3" height="17.4" rx="1" fill="#2060ff" stroke="#08001e" stroke-width=".6"/></g><g><polygon points="828.8,292.1 969.2,294.1 969.5,590.1 898.8,725.2 828.7,590.9" fill="url(#titaniumr1x7059)" stroke="#2060ff" stroke-width="2.6" filter="url(#wmr1x7059)"/><polygon points="826.6,294.2 967.6,293.1 968.6,591.2 898.4,726.7 828.7,589.9" fill="url(#carbonr1x7059)"/><polygon points="859.3,360.1 936.1,361.9 936.2,541.3 898.8,631.2 859.7,539.9" fill="#2060ff" fill-opacity=".28" stroke="#2060ff" stroke-width="1.5"/><line x1="844.6773182599433" y1="432.7312963538803" x2="949.6332811177336" y2="433.002126181405" stroke="#2060ff" stroke-opacity=".65" stroke-width="1.3"/><line x1="896.7551029265486" y1="330.001071049273" x2="896.9221497607045" y2="591.9594657468609" stroke="#2060ff" stroke-opacity=".4" stroke-width="1"/><line x1="829.1063291001693" y1="298.1330059549771" x2="966.5981630840898" y2="298.06742447437716" stroke="rgba(255,255,255,.5)" stroke-width="2"/><circle cx="897.178769301027" cy="432.2576350416988" r="18.0" fill="url(#bevelr1x7059)" stroke="#2060ff" stroke-width="1.2" filter="url(#wmr1x7059)"/></g><rect x="450.5630251605995" y="557.4260014644824" width="100.0"  height="56.0" fill="#003ccc" stroke="#2060ff" stroke-width="2.2" filter="url(#skr1x7059)"/><rect x="424.8210706713609" y="573.9013487145305" width="152.0" height="26.0" fill="url(#bevelr1x7059)" fill-opacity=".65" stroke="#2060ff" stroke-width="1.2" filter="url(#skr1x7059)"/><polygon points="309.5,379.5 351.9,295.5 500.9,276.9 650.0,295.8 690.4,380.9 668.8,502.9 498.9,565.3 331.3,502.8" fill="url(#suitr1x7059)" stroke="#2060ff" stroke-width="2.8" filter="url(#skr1x7059) url(#metalr1x7059)"/><polygon points="307.3,379.0 350.3,295.3 501.2,278.9 650.7,295.5 692.2,381.9 669.5,505.2 499.9,566.2 330.4,502.4" fill="url(#carbonr1x7059)"/><polygon points="381.5,301.4 500.7,285.3 617.7,302.4 608.7,379.1 391.5,379.3" fill="url(#suitHir1x7059)"/><polygon points="381.2,379.6 366.6,424.4 434.0,501.9 498.9,529.4 566.6,504.0 633.2,426.4 618.6,381.8" fill="#08001e" fill-opacity=".88" stroke="#2060ff" stroke-width="1.8" filter="url(#skr1x7059)"/><polygon points="379.7,411.0 477.4,410.3 483.6,440.2 388.9,439.8" fill="#2060ff" filter="url(#glowr1x7059)"/><polygon points="524.4,410.3 618.3,410.4 611.2,441.8 517.0,438.5" fill="#2060ff" filter="url(#glowr1x7059)"/><ellipse cx="430.9" cy="425.7" rx="38.4"  ry="8.2" fill="#ffffff" opacity=".88"/><ellipse cx="569.1" cy="425.7" rx="38.4"  ry="8.2" fill="#ffffff" opacity=".88"/><line x1="483.4683467359841" y1="414.2978806248866" x2="516.2925856711715" y2="413.3719601257704" stroke="#2060ff" stroke-opacity=".52" stroke-width="2"/><line x1="485.50474182270466" y1="437.1818810921162" x2="516.4077277819998" y2="438.0908856399357" stroke="#2060ff" stroke-opacity=".52" stroke-width="2"/><line x1="500.21414999431" y1="455.44255268182604" x2="500.70534853534775" y2="481.5510717681609" stroke="#2060ff" stroke-opacity=".58" stroke-width="2.2" filter="url(#skr1x7059)"/><line x1="452.198585291747" y1="489.66894143763926" x2="452.39112558046355" y2="519.3046303709968" stroke="#2060ff" stroke-opacity=".52" stroke-width="1.5" filter="url(#skr1x7059)"/><line x1="476.96557433608916" y1="492.34994071088727" x2="478.59304381864143" y2="521.7433112987317" stroke="#2060ff" stroke-opacity=".52" stroke-width="1.5" filter="url(#skr1x7059)"/><line x1="500.14832034232097" y1="489.53202073173594" x2="499.0191534928978" y2="520.3776845394634" stroke="#2060ff" stroke-opacity=".52" stroke-width="1.5" filter="url(#skr1x7059)"/><line x1="523.3567946757748" y1="492.83173491079356" x2="522.891264621038" y2="518.9901217763312" stroke="#2060ff" stroke-opacity=".52" stroke-width="1.5" filter="url(#skr1x7059)"/><line x1="544.7847256595455" y1="492.52809518026186" x2="546.2763752659038" y2="519.8245201431215" stroke="#2060ff" stroke-opacity=".52" stroke-width="1.5" filter="url(#skr1x7059)"/><polygon points="432.3,505.4 566.5,504.0 554.6,557.7 446.3,558.6" fill="#003ccc" fill-opacity=".72" stroke="#2060ff" stroke-width="1.3" filter="url(#skr1x7059)"/><polygon points="315.6,304.2 361.9,305.1 338.4,194.1" fill="url(#bevelr1x7059)" fill-opacity=".95" stroke="#2060ff" stroke-width="1.6" filter="url(#skr1x7059) url(#glowr1x7059)"/><polygon points="397.0,306.2 443.2,305.4 417.7,209.8" fill="url(#bevelr1x7059)" fill-opacity=".95" stroke="#2060ff" stroke-width="1.6" filter="url(#skr1x7059) url(#glowr1x7059)"/><polygon points="476.9,305.5 523.4,303.7 500.6,221.5" fill="url(#bevelr1x7059)" fill-opacity=".95" stroke="#2060ff" stroke-width="1.6" filter="url(#skr1x7059) url(#glowr1x7059)"/><polygon points="557.8,304.7 603.0,306.0 581.6,209.9" fill="url(#bevelr1x7059)" fill-opacity=".95" stroke="#2060ff" stroke-width="1.6" filter="url(#skr1x7059) url(#glowr1x7059)"/><polygon points="637.5,303.7 685.2,303.3 662.3,196.4" fill="url(#bevelr1x7059)" fill-opacity=".95" stroke="#2060ff" stroke-width="1.6" filter="url(#skr1x7059) url(#glowr1x7059)"/><text x="30.0"  y="975.0" font-family="monospace" font-weight="bold" font-size="22.0" fill="rgba(255,255,255,.22)">#0001</text><text x="500.0"   y="975.0" text-anchor="middle" font-family="monospace" font-weight="bold" font-size="22.0" fill="#2060ff" fill-opacity=".48">COBALT RANGER</text><text x="970.0" y="975.0" text-anchor="end"    font-family="monospace" font-weight="bold" font-size="22.0" fill="#2060ff" fill-opacity=".32">MECH RANGERS</text></svg>