<svg xmlns="http://www.w3.org/2000/svg" viewBox="0 0 1000 1000" width="1000" height="1000" shape-rendering="geometricPrecision"><defs>

  <!-- Scene gradients -->
  <radialGradient id="bgr1x706" cx="50%" cy="42%" r="72%">
    <stop offset="0%"   stop-color="#1a2814"/>
    <stop offset="100%" stop-color="#0d1520"/>
  </radialGradient>
  <linearGradient id="suitr1x706" x1="8%" y1="0%" x2="92%" y2="100%">
    <stop offset="0%"   stop-color="#00ff60" stop-opacity=".95"/>
    <stop offset="45%"  stop-color="#00441e"/>
    <stop offset="100%" stop-color="#0d1520"/>
  </linearGradient>
  <linearGradient id="suitHir1x706" x1="0%" y1="0%" x2="0%" y2="100%">
    <stop offset="0%"   stop-color="rgba(255,255,255,.28)"/>
    <stop offset="60%"  stop-color="rgba(255,255,255,.04)"/>
    <stop offset="100%" stop-color="rgba(255,255,255,0)"/>
  </linearGradient>
  <!-- Bevel: bright top, dark bottom for armour panels -->
  <linearGradient id="bevelr1x706" x1="0%" y1="0%" x2="0%" y2="100%">
    <stop offset="0%"   stop-color="rgba(255,255,255,.55)"/>
    <stop offset="30%"  stop-color="#00ff60"/>
    <stop offset="70%"  stop-color="#00441e"/>
    <stop offset="100%" stop-color="rgba(0,0,0,.5)"/>
  </linearGradient>

  <!-- Weapon: cold steel blade sweep -->
  <linearGradient id="blader1x706" x1="0%" y1="0%" x2="100%" y2="0%">
    <stop offset="0%"   stop-color="#0e0e20"/>
    <stop offset="16%"  stop-color="#3e3e58"/>
    <stop offset="34%"  stop-color="#c8c8e0"/>
    <stop offset="50%"  stop-color="#f5f5ff"/>
    <stop offset="66%"  stop-color="#b8b8d0"/>
    <stop offset="84%"  stop-color="#2e2e48"/>
    <stop offset="100%" stop-color="#08080e"/>
  </linearGradient>
  <!-- Blade tip brightening -->
  <linearGradient id="bladeTipr1x706" x1="0%" y1="100%" x2="0%" y2="0%">
    <stop offset="0%"   stop-color="rgba(255,255,255,0)"/>
    <stop offset="55%"  stop-color="rgba(255,255,255,.1)"/>
    <stop offset="100%" stop-color="rgba(255,255,255,.55)"/>
  </linearGradient>
  <!-- Gunmetal anodised — blaster body -->
  <linearGradient id="gunmetalr1x706" x1="0%" y1="0%" x2="0%" y2="100%">
    <stop offset="0%"   stop-color="#46465e"/>
    <stop offset="18%"  stop-color="#828296"/>
    <stop offset="42%"  stop-color="#26263a"/>
    <stop offset="72%"  stop-color="#16162a"/>
    <stop offset="100%" stop-color="#0c0c18"/>
  </linearGradient>
  <!-- Brushed steel tube — barrel/rod -->
  <linearGradient id="barrelr1x706" x1="0%" y1="0%" x2="100%" y2="0%">
    <stop offset="0%"   stop-color="#0a0a14"/>
    <stop offset="24%"  stop-color="#585875"/>
    <stop offset="50%"  stop-color="#a8a8c8"/>
    <stop offset="76%"  stop-color="#383852"/>
    <stop offset="100%" stop-color="#0a0a14"/>
  </linearGradient>
  <!-- Chrome rod — lance shaft -->
  <linearGradient id="chromer1x706" x1="0%" y1="0%" x2="100%" y2="0%">
    <stop offset="0%"   stop-color="#0c0c18"/>
    <stop offset="20%"  stop-color="#686888"/>
    <stop offset="44%"  stop-color="#e0e0f0"/>
    <stop offset="56%"  stop-color="#c0c0d8"/>
    <stop offset="80%"  stop-color="#28283e"/>
    <stop offset="100%" stop-color="#0c0c18"/>
  </linearGradient>
  <!-- Titanium plate — shield face -->
  <linearGradient id="titaniumr1x706" x1="0%" y1="0%" x2="100%" y2="100%">
    <stop offset="0%"   stop-color="#585878"/>
    <stop offset="28%"  stop-color="#00ff60" stop-opacity=".88"/>
    <stop offset="55%"  stop-color="#00441e"/>
    <stop offset="80%"  stop-color="#181828"/>
    <stop offset="100%" stop-color="#0a0a18"/>
  </linearGradient>
  <!-- Artillery black-chrome — cannon body -->
  <linearGradient id="artilleryr1x706" x1="0%" y1="0%" x2="0%" y2="100%">
    <stop offset="0%"   stop-color="#383850"/>
    <stop offset="14%"  stop-color="#78789a"/>
    <stop offset="36%"  stop-color="#202034"/>
    <stop offset="65%"  stop-color="#14141e"/>
    <stop offset="100%" stop-color="#0a0a12"/>
  </linearGradient>
  <!-- Energy orb — staff -->
  <radialGradient id="orbr1x706" cx="35%" cy="35%" r="65%">
    <stop offset="0%"   stop-color="rgba(255,255,255,.9)"/>
    <stop offset="30%"  stop-color="#00ff60"/>
    <stop offset="68%"  stop-color="#00441e"/>
    <stop offset="100%" stop-color="rgba(0,0,0,.6)"/>
  </radialGradient>
  <!-- Knuckle plate chrome -->
  <linearGradient id="knuckler1x706" x1="0%" y1="0%" x2="0%" y2="100%">
    <stop offset="0%"   stop-color="#888aaa"/>
    <stop offset="32%"  stop-color="#00ff60" stop-opacity=".8"/>
    <stop offset="62%"  stop-color="#1a1a2c"/>
    <stop offset="100%" stop-color="#0a0a14"/>
  </linearGradient>

  <!-- Carbon fibre weave texture overlay -->
  <pattern id="carbonr1x706" width="6" height="6" patternUnits="userSpaceOnUse">
    <rect width="6" height="6" fill="rgba(0,0,0,.08)"/>
    <rect x="0" y="0" width="3" height="3" fill="rgba(255,255,255,.022)"/>
    <rect x="3" y="3" width="3" height="3" fill="rgba(255,255,255,.022)"/>
    <line x1="0" y1="0" x2="3" y2="3" stroke="rgba(255,255,255,.038)" stroke-width=".5"/>
    <line x1="3" y1="0" x2="6" y2="3" stroke="rgba(0,0,0,.055)"       stroke-width=".5"/>
    <line x1="0" y1="3" x2="3" y2="6" stroke="rgba(0,0,0,.055)"       stroke-width=".5"/>
    <line x1="3" y1="3" x2="6" y2="6" stroke="rgba(255,255,255,.038)" stroke-width=".5"/>
  </pattern>

  <!-- Specular metal sheen on armour panels -->
  <filter id="metalr1x706" x="-5%" y="-5%" width="110%" height="110%">
    <feSpecularLighting surfaceScale="4" specularConstant="1.8"
        specularExponent="42" lighting-color="#ffffff" result="spec">
      <feDistantLight elevation="52" azimuth="38"/>
    </feSpecularLighting>
    <feComposite in="spec" in2="SourceGraphic" operator="in" result="sm"/>
    <feComposite in="SourceGraphic" in2="sm" operator="arithmetic" k1="0" k2="1" k3="0.55" k4="0"/>
  </filter>

  <!-- Sharper specular for weapons — heavier glare -->
  <filter id="wmr1x706" x="-8%" y="-8%" width="116%" height="116%">
    <feSpecularLighting surfaceScale="6" specularConstant="2.4"
        specularExponent="65" lighting-color="#ffffff" result="spec">
      <feDistantLight elevation="44" azimuth="28"/>
    </feSpecularLighting>
    <feComposite in="spec" in2="SourceGraphic" operator="in" result="sm"/>
    <feComposite in="SourceGraphic" in2="sm" operator="arithmetic" k1="0" k2="1" k3="0.78" k4="0"/>
  </filter>

  <!-- Sketch wobble -->
  <filter id="skr1x706" x="-8%" y="-8%" width="116%" height="116%">
    <feTurbulence type="fractalNoise" baseFrequency="0.038"
        numOctaves="3" seed="30" result="noise"/>
    <feDisplacementMap in="SourceGraphic" in2="noise" scale="2.6"
        xChannelSelector="R" yChannelSelector="G" result="w"/>
    <feComposite in="w" in2="SourceGraphic" operator="atop"/>
  </filter>

  <!-- Glow: sharp accent -->
  <filter id="glowr1x706" x="-20%" y="-20%" width="140%" height="140%">
    <feGaussianBlur stdDeviation="3.5" result="b"/>
    <feColorMatrix in="b" type="matrix"
        values="0 0 0 0 1  0 0 0 0 1  0 0 0 0 1  0 0 0 1.8 0" result="boost"/>
    <feMerge><feMergeNode in="boost"/><feMergeNode in="SourceGraphic"/></feMerge>
  </filter>

  <!-- Bloom: wide soft -->
  <filter id="bloomr1x706" x="-40%" y="-40%" width="180%" height="180%">
    <feGaussianBlur stdDeviation="11" result="b"/>
    <feMerge><feMergeNode in="b"/><feMergeNode in="SourceGraphic"/></feMerge>
  </filter>

  </defs><rect width="1000" height="1000" fill="url(#bgr1x706)"/><ellipse cx="500.0" cy="892.0" rx="350.0" ry="65.0" fill="rgba(0,0,0,.7)" filter="url(#bloomr1x706)"/><ellipse cx="500.0" cy="889.0" rx="220.0" ry="34.0" fill="rgba(0,0,0,.45)"/><ellipse cx="500.0" cy="520.0" rx="320.0" ry="480.0" fill="#00e5ff" fill-opacity=".042" filter="url(#bloomr1x706)"/><circle cx="718.6" cy="267.6" r="0.7" fill="#00e5ff" fill-opacity="0.85" filter="url(#glowr1x706)"/><circle cx="477.4" cy="554.2" r="1.4" fill="#00e5ff" fill-opacity="0.72" filter="url(#glowr1x706)"/><circle cx="408.8" cy="635.0" r="1.2" fill="#00e5ff" fill-opacity="0.62" filter="url(#glowr1x706)"/><circle cx="508.0" cy="639.0" r="3.7" fill="#00e5ff" fill-opacity="0.44" filter="url(#glowr1x706)"/><circle cx="433.6" cy="762.2" r="0.5" fill="#00e5ff" fill-opacity="0.55" filter="url(#glowr1x706)"/><circle cx="536.7" cy="422.5" r="3.4" fill="#00e5ff" fill-opacity="0.62" filter="url(#glowr1x706)"/><circle cx="523.0" cy="551.0" r="0.6" fill="#00e5ff" fill-opacity="0.48" filter="url(#glowr1x706)"/><circle cx="519.3" cy="387.8" r="4.1" fill="#00e5ff" fill-opacity="0.67" filter="url(#glowr1x706)"/><circle cx="468.0" cy="229.3" r="2.0" fill="#00e5ff" fill-opacity="0.41" filter="url(#glowr1x706)"/><circle cx="456.0" cy="557.8" r="4.2" fill="#00e5ff" fill-opacity="0.46" filter="url(#glowr1x706)"/><circle cx="727.8" cy="372.3" r="1.3" fill="#00e5ff" fill-opacity="0.40" filter="url(#glowr1x706)"/><circle cx="552.8" cy="301.1" r="2.7" fill="#00e5ff" fill-opacity="0.73" filter="url(#glowr1x706)"/><circle cx="635.1" cy="570.4" r="1.7" fill="#00e5ff" fill-opacity="0.73" filter="url(#glowr1x706)"/><circle cx="338.6" cy="744.2" r="4.3" fill="#00e5ff" fill-opacity="0.62" filter="url(#glowr1x706)"/><path d="M611.8,243.3 Q581.5,429.1 642.9,620.9" stroke="#00e5ff" stroke-opacity="0.55" stroke-width="1.1" fill="none" filter="url(#glowr1x706)"/><path d="M657.5,350.3 Q671.7,566.9 481.5,813.4" stroke="#00e5ff" stroke-opacity="0.78" stroke-width="1.2" fill="none" filter="url(#glowr1x706)"/><path d="M403.2,317.2 Q372.6,599.0 589.6,832.8" stroke="#00e5ff" stroke-opacity="0.43" stroke-width="1.7" fill="none" filter="url(#glowr1x706)"/><path d="M622.4,244.7 Q623.8,442.9 304.4,636.9" stroke="#00e5ff" stroke-opacity="0.54" stroke-width="1.2" fill="none" filter="url(#glowr1x706)"/><path d="M335.4,248.3 Q315.5,540.9 576.2,783.2" stroke="#00e5ff" stroke-opacity="0.40" stroke-width="2.5" fill="none" filter="url(#glowr1x706)"/><polygon points="398.5,662.1 488.6,661.5 480.3,878.0 386.3,876.6" fill="url(#suitr1x706)" stroke="#00ff60" stroke-width="2.2" filter="url(#skr1x706) url(#metalr1x706)"/><polygon points="397.5,662.7 488.0,660.9 480.6,876.9 387.1,876.9" fill="url(#carbonr1x706)"/><polygon points="390.8,724.4 494.6,724.8 482.6,788.8 385.4,788.2" fill="url(#bevelr1x706)" fill-opacity=".5" stroke="#00ff60" stroke-width="1.4" filter="url(#skr1x706)"/><polygon points="509.2,662.1 599.7,664.1 611.6,879.1 519.9,876.9" fill="url(#suitr1x706)" stroke="#00ff60" stroke-width="2.2" filter="url(#skr1x706) url(#metalr1x706)"/><polygon points="512.0,663.9 602.6,661.2 613.8,877.6 520.9,876.5" fill="url(#carbonr1x706)"/><polygon points="506.0,722.0 608.5,724.0 617.2,787.9 514.9,787.5" fill="url(#bevelr1x706)" fill-opacity=".5" stroke="#00ff60" stroke-width="1.4" filter="url(#skr1x706)"/><rect x="391.9" y="838.4" width="100.3" height="24.7" fill="url(#bevelr1x706)" stroke="#00ff60" stroke-width="1" filter="url(#skr1x706)"/><rect x="505.5"  y="839.1" width="100.3" height="24.7" fill="url(#bevelr1x706)" stroke="#00ff60" stroke-width="1" filter="url(#skr1x706)"/><polygon points="369.6,875.8 497.6,877.4 505.0,922.8 362.6,922.4" fill="#00441e" stroke="#00ff60" stroke-width="2" filter="url(#skr1x706)"/><polygon points="502.0,875.9 629.2,877.3 638.6,920.8 498.2,919.7" fill="#00441e" stroke="#00ff60" stroke-width="2" filter="url(#skr1x706)"/><polygon points="304.3,631.4 696.0,633.4 636.1,680.7 361.4,682.3" fill="#00ff60" fill-opacity=".52" stroke="#00ff60" stroke-width="2" filter="url(#skr1x706)"/><rect x="464.1" y="636.4" width="72.0" height="42.0" fill="url(#bevelr1x706)" stroke="#00ff60" stroke-width="1.4" filter="url(#glowr1x706)"/><rect x="487.3" y="641.5" width="28.0" height="22.0" rx="1" fill="rgba(255,255,255,.48)"/><polygon points="151.7,467.6 236.1,466.4 258.5,733.6 127.3,735.5" fill="url(#suitr1x706)" stroke="#00ff60" stroke-width="2.2" filter="url(#skr1x706) url(#metalr1x706)"/><polygon points="172.1,432.2 252.8,433.7 245.0,510.5 159.3,509.9" fill="url(#bevelr1x706)" fill-opacity=".72" stroke="#00ff60" stroke-width="2.2" filter="url(#skr1x706)"/><polygon points="161.5,623.1 244.0,622.7 238.6,662.0 165.5,660.4" fill="#00ff60" fill-opacity=".42" stroke="#00ff60" stroke-width="1" filter="url(#skr1x706)"/><polygon points="765.5,466.9 846.1,465.2 872.0,734.2 741.5,733.4" fill="url(#suitr1x706)" stroke="#00ff60" stroke-width="2.2" filter="url(#skr1x706) url(#metalr1x706)"/><polygon points="748.7,432.7 827.8,431.4 840.5,511.4 757.2,509.9" fill="url(#bevelr1x706)" fill-opacity=".72" stroke="#00ff60" stroke-width="2.2" filter="url(#skr1x706)"/><polygon points="755.8,622.2 840.0,620.7 836.1,660.9 762.7,659.8" fill="#00ff60" fill-opacity=".42" stroke="#00ff60" stroke-width="1" filter="url(#skr1x706)"/><rect x="120.8"  y="698.4" width="135.3" height="85.0" rx="4" fill="url(#bevelr1x706)" stroke="#00ff60" stroke-width="1.8" filter="url(#skr1x706)"/><rect x="746.9"   y="699.2" width="135.3" height="85.0" rx="4" fill="url(#bevelr1x706)" stroke="#00ff60" stroke-width="1.8" filter="url(#skr1x706)"/><line x1="150.4" y1="702.0" x2="151.3" y2="782.3" stroke="#00ff60" stroke-opacity=".38" stroke-width="1"/><line x1="779.9" y1="701.3" x2="779.0" y2="783.5" stroke="#00ff60" stroke-opacity=".38" stroke-width="1"/><line x1="182.8" y1="700.6" x2="182.8" y2="784.1" stroke="#00ff60" stroke-opacity=".38" stroke-width="1"/><line x1="811.9" y1="701.3" x2="809.1" y2="784.3" stroke="#00ff60" stroke-opacity=".38" stroke-width="1"/><line x1="214.2" y1="701.7" x2="216.3" y2="785.3" stroke="#00ff60" stroke-opacity=".38" stroke-width="1"/><line x1="842.6" y1="700.4" x2="843.4" y2="782.6" stroke="#00ff60" stroke-opacity=".38" stroke-width="1"/><polygon points="234.8,418.5 766.6,417.8 722.9,661.5 278.7,661.1" fill="url(#suitr1x706)" stroke="#00ff60" stroke-width="2.6" filter="url(#skr1x706) url(#metalr1x706)"/><polygon points="234.7,419.2 763.3,416.4 722.8,661.6 276.9,662.1" fill="url(#carbonr1x706)"/><polygon points="366.0,418.7 632.3,418.9 609.5,516.7 388.3,516.7" fill="url(#suitHir1x706)"/><line x1="360.5" y1="472.7" x2="636.8" y2="473.1" stroke="#00ff60" stroke-opacity=".52" stroke-width="1.3" filter="url(#skr1x706)"/><line x1="399.0" y1="549.0" x2="600.4" y2="550.9" stroke="#00ff60" stroke-opacity=".52" stroke-width="1.3" filter="url(#skr1x706)"/><line x1="268.0" y1="490.7" x2="320.6" y2="490.6" stroke="#00ff60" stroke-opacity=".62" stroke-width="1.8"/><line x1="680.4" y1="491.1" x2="734.8" y2="489.6" stroke="#00ff60" stroke-opacity=".62" stroke-width="1.8"/><line x1="265.6" y1="524.6" x2="321.2" y2="522.2" stroke="#00ff60" stroke-opacity=".62" stroke-width="1.8"/><line x1="679.9" y1="523.5" x2="734.4" y2="524.6" stroke="#00ff60" stroke-opacity=".62" stroke-width="1.8"/><line x1="267.2" y1="556.1" x2="320.0" y2="554.4" stroke="#00ff60" stroke-opacity=".62" stroke-width="1.8"/><line x1="678.7" y1="554.3" x2="731.7" y2="554.6" stroke="#00ff60" stroke-opacity=".62" stroke-width="1.8"/><line x1="265.2" y1="587.8" x2="320.8" y2="584.8" stroke="#00ff60" stroke-opacity=".62" stroke-width="1.8"/><line x1="680.9" y1="586.1" x2="731.4" y2="586.0" stroke="#00ff60" stroke-opacity=".62" stroke-width="1.8"/><g filter="url(#glowr1x706)"><polygon points="481.7,451.8 514.1,506.7 501.1,506.6 518.3,569.5 487.6,516.3 500.0,515.8" fill="#00ff60" stroke="#0d1520" stroke-width="1.4" filter="url(#skr1x706)"/><polygon points="483.6,453.1 511.4,505.2 498.9,505.0 518.7,570.2 487.2,516.4 498.2,515.5" fill="url(#suitHir1x706)" opacity=".4"/></g><g><line x1="896.1754239259847" y1="790.772186116688" x2="914.2211203092337" y2="112.96746381996198" stroke="url(#chromer1x706)" stroke-width="28.0" stroke-linecap="round" filter="url(#wmr1x706)"/><line x1="904.2336715503224" y1="772.9792764352634" x2="910.5505483723805" y2="131.69596106149254" stroke="rgba(255,255,255,.42)" stroke-width="5.0" stroke-linecap="round"/><polygon points="869.7,151.0 935.4,152.3 915.2,-8.0" fill="url(#blader1x706)" stroke="#00ff60" stroke-width="1.8" filter="url(#wmr1x706)"/><line x1="935.8" y1="151.4" x2="915.8" y2="-8.6" stroke="rgba(255,255,255,.72)" stroke-width="1.6"/><rect x="877.2494960574061" y="420.99953443259" width="40.0" height="20.0" fill="url(#bevelr1x706)" stroke="#00ff60" stroke-width="1" filter="url(#wmr1x706)"/><rect x="878.2787610950508" y="510.7381753258407" width="40.0" height="20.0" fill="url(#bevelr1x706)" stroke="#00ff60" stroke-width="1" filter="url(#wmr1x706)"/><rect x="880.0194165693224" y="599.6790153680369" width="40.0" height="20.0" fill="url(#bevelr1x706)" stroke="#00ff60" stroke-width="1" filter="url(#wmr1x706)"/><rect x="879.7769704467245" y="692.037023535464" width="40.0" height="20.0" fill="url(#bevelr1x706)" stroke="#00ff60" stroke-width="1" filter="url(#wmr1x706)"/><ellipse cx="896.7521910156682" cy="792.9414320829325" rx="22.0" ry="15.0" fill="url(#bevelr1x706)" stroke="#00ff60" stroke-width="1" filter="url(#wmr1x706)"/></g><rect x="449.71786994626746" y="555.1544268975034" width="100.0"  height="56.0" fill="#00441e" stroke="#00ff60" stroke-width="2.2" filter="url(#skr1x706)"/><rect x="424.43737761657684" y="576.7990643230268" width="152.0" height="26.0" fill="url(#bevelr1x706)" fill-opacity=".65" stroke="#00ff60" stroke-width="1.2" filter="url(#skr1x706)"/><polygon points="309.1,380.3 351.4,293.0 500.5,276.8 648.9,293.1 690.5,381.9 667.7,504.0 500.6,566.5 332.7,504.0" fill="url(#suitr1x706)" stroke="#00ff60" stroke-width="2.8" filter="url(#skr1x706) url(#metalr1x706)"/><polygon points="309.4,380.8 350.5,293.1 500.2,277.1 648.0,295.1 693.0,381.4 668.7,503.0 500.6,566.4 331.0,504.9" fill="url(#carbonr1x706)"/><polygon points="382.4,302.6 498.5,287.8 618.6,301.1 608.2,379.0 392.9,380.3" fill="url(#suitHir1x706)"/><polygon points="381.1,382.3 365.8,427.3 431.4,502.3 500.3,528.4 566.6,502.5 633.8,427.5 617.4,382.2" fill="#0d1520" fill-opacity=".88" stroke="#00ff60" stroke-width="1.8" filter="url(#skr1x706)"/><polygon points="380.5,411.2 476.4,413.0 485.6,441.8 388.3,439.7" fill="#00ff60" filter="url(#glowr1x706)"/><polygon points="524.1,410.0 619.6,412.4 611.1,438.4 514.9,438.5" fill="#00ff60" filter="url(#glowr1x706)"/><ellipse cx="430.9" cy="425.7" rx="38.4"  ry="8.2" fill="#ffffff" opacity=".88"/><ellipse cx="569.1" cy="425.7" rx="38.4"  ry="8.2" fill="#ffffff" opacity=".88"/><line x1="483.2254656848125" y1="413.64486156580966" x2="516.3725632917509" y2="413.2753059745766" stroke="#00ff60" stroke-opacity=".52" stroke-width="2"/><line x1="485.96111849887296" y1="439.0855287303217" x2="515.5777088146098" y2="436.57913695732134" stroke="#00ff60" stroke-opacity=".52" stroke-width="2"/><line x1="498.4549983545206" y1="454.3572929837741" x2="498.5512867052108" y2="483.80529246795925" stroke="#00ff60" stroke-opacity=".58" stroke-width="2.2" filter="url(#skr1x706)"/><line x1="455.0010802246444" y1="491.3281916017644" x2="452.98319679738955" y2="520.944264949672" stroke="#00ff60" stroke-opacity=".52" stroke-width="1.5" filter="url(#skr1x706)"/><line x1="476.45130891235544" y1="491.05403977623206" x2="476.2020196698978" y2="520.6160587955267" stroke="#00ff60" stroke-opacity=".52" stroke-width="1.5" filter="url(#skr1x706)"/><line x1="499.0187761815265" y1="489.9628402098082" x2="501.64475357457997" y2="520.4049823009409" stroke="#00ff60" stroke-opacity=".52" stroke-width="1.5" filter="url(#skr1x706)"/><line x1="522.6363695617392" y1="489.6368826285935" x2="522.0280515426397" y2="519.3461449558847" stroke="#00ff60" stroke-opacity=".52" stroke-width="1.5" filter="url(#skr1x706)"/><line x1="547.0750166449883" y1="492.41661159498614" x2="547.5164757756703" y2="518.5993311447091" stroke="#00ff60" stroke-opacity=".52" stroke-width="1.5" filter="url(#skr1x706)"/><polygon points="432.1,504.2 566.9,504.9 554.6,555.7 447.5,556.6" fill="#00441e" fill-opacity=".72" stroke="#00ff60" stroke-width="1.3" filter="url(#skr1x706)"/><text x="30.0"  y="975.0" font-family="monospace" font-weight="bold" font-size="22.0" fill="rgba(255,255,255,.22)">#0001</text><text x="500.0"   y="975.0" text-anchor="middle" font-family="monospace" font-weight="bold" font-size="22.0" fill="#00ff60" fill-opacity=".48">VIPER RANGER</text><text x="970.0" y="975.0" text-anchor="end"    font-family="monospace" font-weight="bold" font-size="22.0" fill="#00ff60" fill-opacity=".32">MECH RANGERS</text></svg>