<svg xmlns="http://www.w3.org/2000/svg" viewBox="0 0 1000 1000" width="1000" height="1000" shape-rendering="geometricPrecision"><defs>

  <!-- Scene gradients -->
  <radialGradient id="bgr1x7065" cx="50%" cy="42%" r="72%">
    <stop offset="0%"   stop-color="#1a2814"/>
    <stop offset="100%" stop-color="#0d1520"/>
  </radialGradient>
  <linearGradient id="suitr1x7065" x1="8%" y1="0%" x2="92%" y2="100%">
    <stop offset="0%"   stop-color="#ff2040" stop-opacity=".95"/>
    <stop offset="45%"  stop-color="#cc0020"/>
    <stop offset="100%" stop-color="#0d1520"/>
  </linearGradient>
  <linearGradient id="suitHir1x7065" x1="0%" y1="0%" x2="0%" y2="100%">
    <stop offset="0%"   stop-color="rgba(255,255,255,.28)"/>
    <stop offset="60%"  stop-color="rgba(255,255,255,.04)"/>
    <stop offset="100%" stop-color="rgba(255,255,255,0)"/>
  </linearGradient>
  <!-- Bevel: bright top, dark bottom for armour panels -->
  <linearGradient id="bevelr1x7065" x1="0%" y1="0%" x2="0%" y2="100%">
    <stop offset="0%"   stop-color="rgba(255,255,255,.55)"/>
    <stop offset="30%"  stop-color="#ff2040"/>
    <stop offset="70%"  stop-color="#cc0020"/>
    <stop offset="100%" stop-color="rgba(0,0,0,.5)"/>
  </linearGradient>

  <!-- Weapon: cold steel blade sweep -->
  <linearGradient id="blader1x7065" x1="0%" y1="0%" x2="100%" y2="0%">
    <stop offset="0%"   stop-color="#0e0e20"/>
    <stop offset="16%"  stop-color="#3e3e58"/>
    <stop offset="34%"  stop-color="#c8c8e0"/>
    <stop offset="50%"  stop-color="#f5f5ff"/>
    <stop offset="66%"  stop-color="#b8b8d0"/>
    <stop offset="84%"  stop-color="#2e2e48"/>
    <stop offset="100%" stop-color="#08080e"/>
  </linearGradient>
  <!-- Blade tip brightening -->
  <linearGradient id="bladeTipr1x7065" x1="0%" y1="100%" x2="0%" y2="0%">
    <stop offset="0%"   stop-color="rgba(255,255,255,0)"/>
    <stop offset="55%"  stop-color="rgba(255,255,255,.1)"/>
    <stop offset="100%" stop-color="rgba(255,255,255,.55)"/>
  </linearGradient>
  <!-- Gunmetal anodised — blaster body -->
  <linearGradient id="gunmetalr1x7065" x1="0%" y1="0%" x2="0%" y2="100%">
    <stop offset="0%"   stop-color="#46465e"/>
    <stop offset="18%"  stop-color="#828296"/>
    <stop offset="42%"  stop-color="#26263a"/>
    <stop offset="72%"  stop-color="#16162a"/>
    <stop offset="100%" stop-color="#0c0c18"/>
  </linearGradient>
  <!-- Brushed steel tube — barrel/rod -->
  <linearGradient id="barrelr1x7065" x1="0%" y1="0%" x2="100%" y2="0%">
    <stop offset="0%"   stop-color="#0a0a14"/>
    <stop offset="24%"  stop-color="#585875"/>
    <stop offset="50%"  stop-color="#a8a8c8"/>
    <stop offset="76%"  stop-color="#383852"/>
    <stop offset="100%" stop-color="#0a0a14"/>
  </linearGradient>
  <!-- Chrome rod — lance shaft -->
  <linearGradient id="chromer1x7065" x1="0%" y1="0%" x2="100%" y2="0%">
    <stop offset="0%"   stop-color="#0c0c18"/>
    <stop offset="20%"  stop-color="#686888"/>
    <stop offset="44%"  stop-color="#e0e0f0"/>
    <stop offset="56%"  stop-color="#c0c0d8"/>
    <stop offset="80%"  stop-color="#28283e"/>
    <stop offset="100%" stop-color="#0c0c18"/>
  </linearGradient>
  <!-- Titanium plate — shield face -->
  <linearGradient id="titaniumr1x7065" x1="0%" y1="0%" x2="100%" y2="100%">
    <stop offset="0%"   stop-color="#585878"/>
    <stop offset="28%"  stop-color="#ff2040" stop-opacity=".88"/>
    <stop offset="55%"  stop-color="#cc0020"/>
    <stop offset="80%"  stop-color="#181828"/>
    <stop offset="100%" stop-color="#0a0a18"/>
  </linearGradient>
  <!-- Artillery black-chrome — cannon body -->
  <linearGradient id="artilleryr1x7065" x1="0%" y1="0%" x2="0%" y2="100%">
    <stop offset="0%"   stop-color="#383850"/>
    <stop offset="14%"  stop-color="#78789a"/>
    <stop offset="36%"  stop-color="#202034"/>
    <stop offset="65%"  stop-color="#14141e"/>
    <stop offset="100%" stop-color="#0a0a12"/>
  </linearGradient>
  <!-- Energy orb — staff -->
  <radialGradient id="orbr1x7065" cx="35%" cy="35%" r="65%">
    <stop offset="0%"   stop-color="rgba(255,255,255,.9)"/>
    <stop offset="30%"  stop-color="#ff2040"/>
    <stop offset="68%"  stop-color="#cc0020"/>
    <stop offset="100%" stop-color="rgba(0,0,0,.6)"/>
  </radialGradient>
  <!-- Knuckle plate chrome -->
  <linearGradient id="knuckler1x7065" x1="0%" y1="0%" x2="0%" y2="100%">
    <stop offset="0%"   stop-color="#888aaa"/>
    <stop offset="32%"  stop-color="#ff2040" stop-opacity=".8"/>
    <stop offset="62%"  stop-color="#1a1a2c"/>
    <stop offset="100%" stop-color="#0a0a14"/>
  </linearGradient>

  <!-- Carbon fibre weave texture overlay -->
  <pattern id="carbonr1x7065" width="6" height="6" patternUnits="userSpaceOnUse">
    <rect width="6" height="6" fill="rgba(0,0,0,.08)"/>
    <rect x="0" y="0" width="3" height="3" fill="rgba(255,255,255,.022)"/>
    <rect x="3" y="3" width="3" height="3" fill="rgba(255,255,255,.022)"/>
    <line x1="0" y1="0" x2="3" y2="3" stroke="rgba(255,255,255,.038)" stroke-width=".5"/>
    <line x1="3" y1="0" x2="6" y2="3" stroke="rgba(0,0,0,.055)"       stroke-width=".5"/>
    <line x1="0" y1="3" x2="3" y2="6" stroke="rgba(0,0,0,.055)"       stroke-width=".5"/>
    <line x1="3" y1="3" x2="6" y2="6" stroke="rgba(255,255,255,.038)" stroke-width=".5"/>
  </pattern>

  <!-- Specular metal sheen on armour panels -->
  <filter id="metalr1x7065" x="-5%" y="-5%" width="110%" height="110%">
    <feSpecularLighting surfaceScale="4" specularConstant="1.8"
        specularExponent="42" lighting-color="#ffffff" result="spec">
      <feDistantLight elevation="52" azimuth="38"/>
    </feSpecularLighting>
    <feComposite in="spec" in2="SourceGraphic" operator="in" result="sm"/>
    <feComposite in="SourceGraphic" in2="sm" operator="arithmetic" k1="0" k2="1" k3="0.55" k4="0"/>
  </filter>

  <!-- Sharper specular for weapons — heavier glare -->
  <filter id="wmr1x7065" x="-8%" y="-8%" width="116%" height="116%">
    <feSpecularLighting surfaceScale="6" specularConstant="2.4"
        specularExponent="65" lighting-color="#ffffff" result="spec">
      <feDistantLight elevation="44" azimuth="28"/>
    </feSpecularLighting>
    <feComposite in="spec" in2="SourceGraphic" operator="in" result="sm"/>
    <feComposite in="SourceGraphic" in2="sm" operator="arithmetic" k1="0" k2="1" k3="0.78" k4="0"/>
  </filter>

  <!-- Sketch wobble -->
  <filter id="skr1x7065" x="-8%" y="-8%" width="116%" height="116%">
    <feTurbulence type="fractalNoise" baseFrequency="0.038"
        numOctaves="3" seed="40" result="noise"/>
    <feDisplacementMap in="SourceGraphic" in2="noise" scale="2.6"
        xChannelSelector="R" yChannelSelector="G" result="w"/>
    <feComposite in="w" in2="SourceGraphic" operator="atop"/>
  </filter>

  <!-- Glow: sharp accent -->
  <filter id="glowr1x7065" x="-20%" y="-20%" width="140%" height="140%">
    <feGaussianBlur stdDeviation="3.5" result="b"/>
    <feColorMatrix in="b" type="matrix"
        values="0 0 0 0 1  0 0 0 0 1  0 0 0 0 1  0 0 0 1.8 0" result="boost"/>
    <feMerge><feMergeNode in="boost"/><feMergeNode in="SourceGraphic"/></feMerge>
  </filter>

  <!-- Bloom: wide soft -->
  <filter id="bloomr1x7065" x="-40%" y="-40%" width="180%" height="180%">
    <feGaussianBlur stdDeviation="11" result="b"/>
    <feMerge><feMergeNode in="b"/><feMergeNode in="SourceGraphic"/></feMerge>
  </filter>

  </defs><rect width="1000" height="1000" fill="url(#bgr1x7065)"/><ellipse cx="500.0" cy="892.0" rx="350.0" ry="65.0" fill="rgba(0,0,0,.7)" filter="url(#bloomr1x7065)"/><ellipse cx="500.0" cy="889.0" rx="220.0" ry="34.0" fill="rgba(0,0,0,.45)"/><ellipse cx="500.0" cy="520.0" rx="320.0" ry="480.0" fill="#ffffff" fill-opacity=".042" filter="url(#bloomr1x7065)"/><circle cx="470.9" cy="451.1" r="4.3" fill="#ffffff" fill-opacity="0.78" filter="url(#glowr1x7065)"/><circle cx="298.8" cy="266.9" r="2.6" fill="#ffffff" fill-opacity="0.87" filter="url(#glowr1x7065)"/><circle cx="730.3" cy="740.8" r="0.5" fill="#ffffff" fill-opacity="0.66" filter="url(#glowr1x7065)"/><circle cx="393.3" cy="276.2" r="3.8" fill="#ffffff" fill-opacity="0.52" filter="url(#glowr1x7065)"/><circle cx="606.1" cy="719.8" r="3.5" fill="#ffffff" fill-opacity="0.47" filter="url(#glowr1x7065)"/><circle cx="628.8" cy="356.3" r="2.0" fill="#ffffff" fill-opacity="0.51" filter="url(#glowr1x7065)"/><circle cx="735.8" cy="288.4" r="0.7" fill="#ffffff" fill-opacity="0.48" filter="url(#glowr1x7065)"/><circle cx="312.2" cy="558.8" r="3.2" fill="#ffffff" fill-opacity="0.77" filter="url(#glowr1x7065)"/><circle cx="677.4" cy="264.1" r="1.0" fill="#ffffff" fill-opacity="0.79" filter="url(#glowr1x7065)"/><circle cx="573.7" cy="485.5" r="3.9" fill="#ffffff" fill-opacity="0.78" filter="url(#glowr1x7065)"/><circle cx="565.4" cy="701.4" r="4.0" fill="#ffffff" fill-opacity="0.41" filter="url(#glowr1x7065)"/><circle cx="632.4" cy="202.9" r="2.0" fill="#ffffff" fill-opacity="0.77" filter="url(#glowr1x7065)"/><circle cx="374.4" cy="573.5" r="4.3" fill="#ffffff" fill-opacity="0.60" filter="url(#glowr1x7065)"/><circle cx="466.4" cy="361.6" r="3.2" fill="#ffffff" fill-opacity="0.49" filter="url(#glowr1x7065)"/><polygon points="398.4,663.3 488.6,663.4 480.1,878.6 386.6,878.0" fill="url(#suitr1x7065)" stroke="#ff2040" stroke-width="2.2" filter="url(#skr1x7065) url(#metalr1x7065)"/><polygon points="397.2,662.9 487.8,662.5 479.0,877.1 388.2,875.7" fill="url(#carbonr1x7065)"/><polygon points="394.0,722.6 493.5,723.1 485.2,788.0 383.0,788.3" fill="url(#bevelr1x7065)" fill-opacity=".5" stroke="#ff2040" stroke-width="1.4" filter="url(#skr1x7065)"/><polygon points="511.5,663.8 600.9,664.0 613.7,877.5 521.1,876.0" fill="url(#suitr1x7065)" stroke="#ff2040" stroke-width="2.2" filter="url(#skr1x7065) url(#metalr1x7065)"/><polygon points="509.2,663.9 602.5,663.6 611.1,878.8 519.5,877.0" fill="url(#carbonr1x7065)"/><polygon points="507.8,725.1 608.4,724.1 615.6,787.6 514.2,788.9" fill="url(#bevelr1x7065)" fill-opacity=".5" stroke="#ff2040" stroke-width="1.4" filter="url(#skr1x7065)"/><rect x="394.3" y="837.5" width="100.3" height="24.7" fill="url(#bevelr1x7065)" stroke="#ff2040" stroke-width="1" filter="url(#skr1x7065)"/><rect x="508.5"  y="837.8" width="100.3" height="24.7" fill="url(#bevelr1x7065)" stroke="#ff2040" stroke-width="1" filter="url(#skr1x7065)"/><polygon points="369.3,877.2 496.6,877.1 502.8,921.0 362.9,920.2" fill="#cc0020" stroke="#ff2040" stroke-width="2" filter="url(#skr1x7065)"/><polygon points="502.9,877.7 629.5,876.7 638.9,921.1 497.2,922.4" fill="#cc0020" stroke="#ff2040" stroke-width="2" filter="url(#skr1x7065)"/><polygon points="304.5,634.2 696.3,632.4 638.2,683.0 362.1,681.4" fill="#ff2040" fill-opacity=".52" stroke="#ff2040" stroke-width="2" filter="url(#skr1x7065)"/><rect x="463.8" y="637.0" width="72.0" height="42.0" fill="url(#bevelr1x7065)" stroke="#ff2040" stroke-width="1.4" filter="url(#glowr1x7065)"/><rect x="487.4" y="639.9" width="28.0" height="22.0" rx="1" fill="rgba(255,255,255,.48)"/><polygon points="152.7,466.4 234.1,466.1 257.4,733.5 127.9,736.5" fill="url(#suitr1x7065)" stroke="#ff2040" stroke-width="2.2" filter="url(#skr1x7065) url(#metalr1x7065)"/><polygon points="173.8,433.2 253.4,433.2 242.3,511.1 160.8,510.0" fill="url(#bevelr1x7065)" fill-opacity=".72" stroke="#ff2040" stroke-width="2.2" filter="url(#skr1x7065)"/><polygon points="159.7,621.2 243.8,621.0 240.4,661.4 164.5,661.3" fill="#ff2040" fill-opacity=".42" stroke="#ff2040" stroke-width="1" filter="url(#skr1x7065)"/><polygon points="763.9,465.5 847.7,464.7 873.1,733.8 743.3,733.3" fill="url(#suitr1x7065)" stroke="#ff2040" stroke-width="2.2" filter="url(#skr1x7065) url(#metalr1x7065)"/><polygon points="747.6,433.4 824.8,431.8 838.7,511.2 756.7,512.1" fill="url(#bevelr1x7065)" fill-opacity=".72" stroke="#ff2040" stroke-width="2.2" filter="url(#skr1x7065)"/><polygon points="756.6,620.9 838.1,621.7 834.0,661.2 762.7,662.5" fill="#ff2040" fill-opacity=".42" stroke="#ff2040" stroke-width="1" filter="url(#skr1x7065)"/><rect x="120.3"  y="701.2" width="135.3" height="85.0" rx="4" fill="url(#bevelr1x7065)" stroke="#ff2040" stroke-width="1.8" filter="url(#skr1x7065)"/><rect x="747.9"   y="698.3" width="135.3" height="85.0" rx="4" fill="url(#bevelr1x7065)" stroke="#ff2040" stroke-width="1.8" filter="url(#skr1x7065)"/><line x1="148.1" y1="701.9" x2="151.4" y2="784.1" stroke="#ff2040" stroke-opacity=".38" stroke-width="1"/><line x1="778.7" y1="702.2" x2="777.6" y2="782.8" stroke="#ff2040" stroke-opacity=".38" stroke-width="1"/><line x1="184.2" y1="701.6" x2="181.9" y2="782.7" stroke="#ff2040" stroke-opacity=".38" stroke-width="1"/><line x1="812.6" y1="703.4" x2="812.1" y2="782.8" stroke="#ff2040" stroke-opacity=".38" stroke-width="1"/><line x1="215.8" y1="702.1" x2="216.3" y2="783.4" stroke="#ff2040" stroke-opacity=".38" stroke-width="1"/><line x1="842.6" y1="702.4" x2="845.2" y2="782.2" stroke="#ff2040" stroke-opacity=".38" stroke-width="1"/><polygon points="234.0,415.8 764.9,418.1 724.3,663.4 278.0,662.4" fill="url(#suitr1x7065)" stroke="#ff2040" stroke-width="2.6" filter="url(#skr1x7065) url(#metalr1x7065)"/><polygon points="235.4,416.5 764.8,419.3 722.3,662.7 277.2,660.7" fill="url(#carbonr1x7065)"/><polygon points="368.3,418.7 632.6,416.0 610.1,515.0 389.1,517.2" fill="url(#suitHir1x7065)"/><line x1="361.0" y1="471.4" x2="637.5" y2="470.0" stroke="#ff2040" stroke-opacity=".52" stroke-width="1.3" filter="url(#skr1x7065)"/><line x1="400.3" y1="549.3" x2="599.6" y2="550.1" stroke="#ff2040" stroke-opacity=".52" stroke-width="1.3" filter="url(#skr1x7065)"/><line x1="267.1" y1="491.9" x2="321.3" y2="492.1" stroke="#ff2040" stroke-opacity=".62" stroke-width="1.8"/><line x1="680.5" y1="491.0" x2="734.4" y2="490.9" stroke="#ff2040" stroke-opacity=".62" stroke-width="1.8"/><line x1="265.9" y1="523.6" x2="318.8" y2="524.0" stroke="#ff2040" stroke-opacity=".62" stroke-width="1.8"/><line x1="678.8" y1="521.3" x2="734.2" y2="523.0" stroke="#ff2040" stroke-opacity=".62" stroke-width="1.8"/><line x1="265.3" y1="555.3" x2="318.7" y2="555.1" stroke="#ff2040" stroke-opacity=".62" stroke-width="1.8"/><line x1="680.6" y1="553.2" x2="732.4" y2="554.4" stroke="#ff2040" stroke-opacity=".62" stroke-width="1.8"/><line x1="266.0" y1="587.4" x2="318.4" y2="586.4" stroke="#ff2040" stroke-opacity=".62" stroke-width="1.8"/><line x1="681.4" y1="586.4" x2="734.8" y2="587.4" stroke="#ff2040" stroke-opacity=".62" stroke-width="1.8"/><g filter="url(#glowr1x7065)"><polygon points="500.4,454.4 516.0,490.4 555.2,492.9 525.7,519.9 535.7,558.9 499.2,534.9 466.9,559.0 474.7,517.7 445.9,493.4 484.1,489.4 " fill="#ff2040" stroke="#0d1520" stroke-width="1.4" filter="url(#skr1x7065)"/><polygon points="500.4,454.4 516.0,490.4 555.2,492.9 525.7,519.9 535.7,558.9 499.2,534.9 466.9,559.0 474.7,517.7 445.9,493.4 484.1,489.4 " fill="url(#suitHir1x7065)" opacity=".45"/></g><g><polygon points="30.4,293.2 173.2,293.0 171.9,593.1 101.5,727.2 32.9,592.3" fill="url(#titaniumr1x7065)" stroke="#ff2040" stroke-width="2.6" filter="url(#wmr1x7065)"/><polygon points="32.6,294.8 172.3,293.9 171.4,592.8 103.3,728.1 32.1,592.4" fill="url(#carbonr1x7065)"/><polygon points="62.6,360.9 140.7,359.7 140.1,541.3 102.3,631.5 63.8,542.0" fill="#ff2040" fill-opacity=".28" stroke="#ff2040" stroke-width="1.5"/><line x1="51.938964151348884" y1="430.3912514531985" x2="154.46237820968028" y2="432.1295150273479" stroke="#ff2040" stroke-opacity=".65" stroke-width="1.3"/><line x1="101.87013643946496" y1="331.9432255194522" x2="100.93548602139575" y2="590.1272859165445" stroke="#ff2040" stroke-opacity=".4" stroke-width="1"/><line x1="34.56823556650427" y1="294.6709179240279" x2="171.30162423172962" y2="296.9985091840848" stroke="rgba(255,255,255,.5)" stroke-width="2"/><circle cx="100.59181498181071" cy="432.71502163494006" r="18.0" fill="url(#bevelr1x7065)" stroke="#ff2040" stroke-width="1.2" filter="url(#wmr1x7065)"/></g><rect x="451.77565199285743" y="557.446285606455" width="100.0"  height="56.0" fill="#cc0020" stroke="#ff2040" stroke-width="2.2" filter="url(#skr1x7065)"/><rect x="422.7961611129343" y="576.6909986339509" width="152.0" height="26.0" fill="url(#bevelr1x7065)" fill-opacity=".65" stroke="#ff2040" stroke-width="1.2" filter="url(#skr1x7065)"/><polygon points="307.0,378.9 349.8,293.5 501.1,279.5 648.3,293.3 690.3,381.1 667.7,504.3 500.5,565.9 329.4,504.4" fill="url(#suitr1x7065)" stroke="#ff2040" stroke-width="2.8" filter="url(#skr1x7065) url(#metalr1x7065)"/><polygon points="308.3,380.4 351.2,293.4 498.5,277.7 648.1,296.1 691.1,380.7 667.2,502.4 501.1,566.5 330.3,502.1" fill="url(#carbonr1x7065)"/><polygon points="382.3,302.4 498.9,284.5 618.2,301.1 608.5,379.7 391.3,379.7" fill="url(#suitHir1x7065)"/><polygon points="379.4,381.0 365.9,425.1 432.6,504.0 500.2,528.1 568.0,504.3 632.9,426.9 619.5,380.7" fill="#0d1520" fill-opacity=".88" stroke="#ff2040" stroke-width="1.8" filter="url(#skr1x7065)"/><polygon points="379.7,411.3 477.0,413.0 484.7,438.9 390.3,440.3" fill="#ff2040" filter="url(#glowr1x7065)"/><polygon points="521.9,411.4 617.6,411.0 609.8,440.9 514.9,438.9" fill="#ff2040" filter="url(#glowr1x7065)"/><ellipse cx="430.9" cy="425.7" rx="38.4"  ry="8.2" fill="#ffffff" opacity=".88"/><ellipse cx="569.1" cy="425.7" rx="38.4"  ry="8.2" fill="#ffffff" opacity=".88"/><line x1="484.58779173275457" y1="413.51743291597813" x2="515.5707958139852" y2="412.76611388465386" stroke="#ff2040" stroke-opacity=".52" stroke-width="2"/><line x1="484.0167558313906" y1="437.5109135937877" x2="514.068186899405" y2="438.93430840624495" stroke="#ff2040" stroke-opacity=".52" stroke-width="2"/><line x1="501.3141858770512" y1="455.91082982234656" x2="499.0093293315731" y2="482.03974373200913" stroke="#ff2040" stroke-opacity=".58" stroke-width="2.2" filter="url(#skr1x7065)"/><line x1="454.06930760394783" y1="490.0603387665003" x2="453.35063048552723" y2="519.0870142225176" stroke="#ff2040" stroke-opacity=".52" stroke-width="1.5" filter="url(#skr1x7065)"/><line x1="477.99759036464616" y1="492.8563448457047" x2="475.68092446107414" y2="519.7730864651501" stroke="#ff2040" stroke-opacity=".52" stroke-width="1.5" filter="url(#skr1x7065)"/><line x1="500.3384989099577" y1="490.8881067595444" x2="499.4896954387426" y2="518.8043667321093" stroke="#ff2040" stroke-opacity=".52" stroke-width="1.5" filter="url(#skr1x7065)"/><line x1="523.3343445050157" y1="490.4910753282718" x2="522.3836784836463" y2="521.2793862351216" stroke="#ff2040" stroke-opacity=".52" stroke-width="1.5" filter="url(#skr1x7065)"/><line x1="547.0525798752159" y1="490.65527937961735" x2="544.5232829977945" y2="521.596502836328" stroke="#ff2040" stroke-opacity=".52" stroke-width="1.5" filter="url(#skr1x7065)"/><polygon points="434.2,505.2 565.6,503.4 555.5,556.2 446.8,555.4" fill="#cc0020" fill-opacity=".72" stroke="#ff2040" stroke-width="1.3" filter="url(#skr1x7065)"/><text x="30.0"  y="975.0" font-family="monospace" font-weight="bold" font-size="22.0" fill="rgba(255,255,255,.22)">#0001</text><text x="500.0"   y="975.0" text-anchor="middle" font-family="monospace" font-weight="bold" font-size="22.0" fill="#ff2040" fill-opacity=".48">CRIMSON RANGER</text><text x="970.0" y="975.0" text-anchor="end"    font-family="monospace" font-weight="bold" font-size="22.0" fill="#ff2040" fill-opacity=".32">MECH RANGERS</text></svg>