<svg xmlns="http://www.w3.org/2000/svg" viewBox="0 0 1000 1000" width="1000" height="1000" shape-rendering="geometricPrecision"><defs>

  <!-- Scene gradients -->
  <radialGradient id="bgr1x7123" cx="50%" cy="42%" r="72%">
    <stop offset="0%"   stop-color="#0e000e"/>
    <stop offset="100%" stop-color="#1e0600"/>
  </radialGradient>
  <linearGradient id="suitr1x7123" x1="8%" y1="0%" x2="92%" y2="100%">
    <stop offset="0%"   stop-color="#ff00ff" stop-opacity=".95"/>
    <stop offset="45%"  stop-color="#050508"/>
    <stop offset="100%" stop-color="#1e0600"/>
  </linearGradient>
  <linearGradient id="suitHir1x7123" x1="0%" y1="0%" x2="0%" y2="100%">
    <stop offset="0%"   stop-color="rgba(255,255,255,.28)"/>
    <stop offset="60%"  stop-color="rgba(255,255,255,.04)"/>
    <stop offset="100%" stop-color="rgba(255,255,255,0)"/>
  </linearGradient>
  <!-- Bevel: bright top, dark bottom for armour panels -->
  <linearGradient id="bevelr1x7123" x1="0%" y1="0%" x2="0%" y2="100%">
    <stop offset="0%"   stop-color="rgba(255,255,255,.55)"/>
    <stop offset="30%"  stop-color="#ff00ff"/>
    <stop offset="70%"  stop-color="#050508"/>
    <stop offset="100%" stop-color="rgba(0,0,0,.5)"/>
  </linearGradient>

  <!-- Weapon: cold steel blade sweep -->
  <linearGradient id="blader1x7123" x1="0%" y1="0%" x2="100%" y2="0%">
    <stop offset="0%"   stop-color="#0e0e20"/>
    <stop offset="16%"  stop-color="#3e3e58"/>
    <stop offset="34%"  stop-color="#c8c8e0"/>
    <stop offset="50%"  stop-color="#f5f5ff"/>
    <stop offset="66%"  stop-color="#b8b8d0"/>
    <stop offset="84%"  stop-color="#2e2e48"/>
    <stop offset="100%" stop-color="#08080e"/>
  </linearGradient>
  <!-- Blade tip brightening -->
  <linearGradient id="bladeTipr1x7123" x1="0%" y1="100%" x2="0%" y2="0%">
    <stop offset="0%"   stop-color="rgba(255,255,255,0)"/>
    <stop offset="55%"  stop-color="rgba(255,255,255,.1)"/>
    <stop offset="100%" stop-color="rgba(255,255,255,.55)"/>
  </linearGradient>
  <!-- Gunmetal anodised — blaster body -->
  <linearGradient id="gunmetalr1x7123" x1="0%" y1="0%" x2="0%" y2="100%">
    <stop offset="0%"   stop-color="#46465e"/>
    <stop offset="18%"  stop-color="#828296"/>
    <stop offset="42%"  stop-color="#26263a"/>
    <stop offset="72%"  stop-color="#16162a"/>
    <stop offset="100%" stop-color="#0c0c18"/>
  </linearGradient>
  <!-- Brushed steel tube — barrel/rod -->
  <linearGradient id="barrelr1x7123" x1="0%" y1="0%" x2="100%" y2="0%">
    <stop offset="0%"   stop-color="#0a0a14"/>
    <stop offset="24%"  stop-color="#585875"/>
    <stop offset="50%"  stop-color="#a8a8c8"/>
    <stop offset="76%"  stop-color="#383852"/>
    <stop offset="100%" stop-color="#0a0a14"/>
  </linearGradient>
  <!-- Chrome rod — lance shaft -->
  <linearGradient id="chromer1x7123" x1="0%" y1="0%" x2="100%" y2="0%">
    <stop offset="0%"   stop-color="#0c0c18"/>
    <stop offset="20%"  stop-color="#686888"/>
    <stop offset="44%"  stop-color="#e0e0f0"/>
    <stop offset="56%"  stop-color="#c0c0d8"/>
    <stop offset="80%"  stop-color="#28283e"/>
    <stop offset="100%" stop-color="#0c0c18"/>
  </linearGradient>
  <!-- Titanium plate — shield face -->
  <linearGradient id="titaniumr1x7123" x1="0%" y1="0%" x2="100%" y2="100%">
    <stop offset="0%"   stop-color="#585878"/>
    <stop offset="28%"  stop-color="#ff00ff" stop-opacity=".88"/>
    <stop offset="55%"  stop-color="#050508"/>
    <stop offset="80%"  stop-color="#181828"/>
    <stop offset="100%" stop-color="#0a0a18"/>
  </linearGradient>
  <!-- Artillery black-chrome — cannon body -->
  <linearGradient id="artilleryr1x7123" x1="0%" y1="0%" x2="0%" y2="100%">
    <stop offset="0%"   stop-color="#383850"/>
    <stop offset="14%"  stop-color="#78789a"/>
    <stop offset="36%"  stop-color="#202034"/>
    <stop offset="65%"  stop-color="#14141e"/>
    <stop offset="100%" stop-color="#0a0a12"/>
  </linearGradient>
  <!-- Energy orb — staff -->
  <radialGradient id="orbr1x7123" cx="35%" cy="35%" r="65%">
    <stop offset="0%"   stop-color="rgba(255,255,255,.9)"/>
    <stop offset="30%"  stop-color="#ff00ff"/>
    <stop offset="68%"  stop-color="#050508"/>
    <stop offset="100%" stop-color="rgba(0,0,0,.6)"/>
  </radialGradient>
  <!-- Knuckle plate chrome -->
  <linearGradient id="knuckler1x7123" x1="0%" y1="0%" x2="0%" y2="100%">
    <stop offset="0%"   stop-color="#888aaa"/>
    <stop offset="32%"  stop-color="#ff00ff" stop-opacity=".8"/>
    <stop offset="62%"  stop-color="#1a1a2c"/>
    <stop offset="100%" stop-color="#0a0a14"/>
  </linearGradient>

  <!-- Carbon fibre weave texture overlay -->
  <pattern id="carbonr1x7123" width="6" height="6" patternUnits="userSpaceOnUse">
    <rect width="6" height="6" fill="rgba(0,0,0,.08)"/>
    <rect x="0" y="0" width="3" height="3" fill="rgba(255,255,255,.022)"/>
    <rect x="3" y="3" width="3" height="3" fill="rgba(255,255,255,.022)"/>
    <line x1="0" y1="0" x2="3" y2="3" stroke="rgba(255,255,255,.038)" stroke-width=".5"/>
    <line x1="3" y1="0" x2="6" y2="3" stroke="rgba(0,0,0,.055)"       stroke-width=".5"/>
    <line x1="0" y1="3" x2="3" y2="6" stroke="rgba(0,0,0,.055)"       stroke-width=".5"/>
    <line x1="3" y1="3" x2="6" y2="6" stroke="rgba(255,255,255,.038)" stroke-width=".5"/>
  </pattern>

  <!-- Specular metal sheen on armour panels -->
  <filter id="metalr1x7123" x="-5%" y="-5%" width="110%" height="110%">
    <feSpecularLighting surfaceScale="4" specularConstant="1.8"
        specularExponent="42" lighting-color="#ffffff" result="spec">
      <feDistantLight elevation="52" azimuth="38"/>
    </feSpecularLighting>
    <feComposite in="spec" in2="SourceGraphic" operator="in" result="sm"/>
    <feComposite in="SourceGraphic" in2="sm" operator="arithmetic" k1="0" k2="1" k3="0.55" k4="0"/>
  </filter>

  <!-- Sharper specular for weapons — heavier glare -->
  <filter id="wmr1x7123" x="-8%" y="-8%" width="116%" height="116%">
    <feSpecularLighting surfaceScale="6" specularConstant="2.4"
        specularExponent="65" lighting-color="#ffffff" result="spec">
      <feDistantLight elevation="44" azimuth="28"/>
    </feSpecularLighting>
    <feComposite in="spec" in2="SourceGraphic" operator="in" result="sm"/>
    <feComposite in="SourceGraphic" in2="sm" operator="arithmetic" k1="0" k2="1" k3="0.78" k4="0"/>
  </filter>

  <!-- Sketch wobble -->
  <filter id="skr1x7123" x="-8%" y="-8%" width="116%" height="116%">
    <feTurbulence type="fractalNoise" baseFrequency="0.038"
        numOctaves="3" seed="59" result="noise"/>
    <feDisplacementMap in="SourceGraphic" in2="noise" scale="2.6"
        xChannelSelector="R" yChannelSelector="G" result="w"/>
    <feComposite in="w" in2="SourceGraphic" operator="atop"/>
  </filter>

  <!-- Glow: sharp accent -->
  <filter id="glowr1x7123" x="-20%" y="-20%" width="140%" height="140%">
    <feGaussianBlur stdDeviation="3.5" result="b"/>
    <feColorMatrix in="b" type="matrix"
        values="0 0 0 0 1  0 0 0 0 1  0 0 0 0 1  0 0 0 1.8 0" result="boost"/>
    <feMerge><feMergeNode in="boost"/><feMergeNode in="SourceGraphic"/></feMerge>
  </filter>

  <!-- Bloom: wide soft -->
  <filter id="bloomr1x7123" x="-40%" y="-40%" width="180%" height="180%">
    <feGaussianBlur stdDeviation="11" result="b"/>
    <feMerge><feMergeNode in="b"/><feMergeNode in="SourceGraphic"/></feMerge>
  </filter>

  </defs><rect width="1000" height="1000" fill="url(#bgr1x7123)"/><ellipse cx="500.0" cy="1000" rx="850.0" ry="350.0" fill="#ff4500" fill-opacity=".11" filter="url(#bloomr1x7123)"/><ellipse cx="500.0" cy="892.0" rx="350.0" ry="65.0" fill="rgba(0,0,0,.7)" filter="url(#bloomr1x7123)"/><ellipse cx="500.0" cy="889.0" rx="220.0" ry="34.0" fill="rgba(0,0,0,.45)"/><ellipse cx="500.0" cy="520.0" rx="320.0" ry="480.0" fill="#ffffff" fill-opacity=".042" filter="url(#bloomr1x7123)"/><circle cx="730.0" cy="750.6" r="1.7" fill="#ffffff" fill-opacity="0.60" filter="url(#glowr1x7123)"/><circle cx="257.7" cy="367.8" r="2.4" fill="#ffffff" fill-opacity="0.57" filter="url(#glowr1x7123)"/><circle cx="663.9" cy="699.3" r="3.1" fill="#ffffff" fill-opacity="0.70" filter="url(#glowr1x7123)"/><circle cx="604.2" cy="542.5" r="1.9" fill="#ffffff" fill-opacity="0.71" filter="url(#glowr1x7123)"/><circle cx="668.9" cy="273.4" r="2.5" fill="#ffffff" fill-opacity="0.44" filter="url(#glowr1x7123)"/><circle cx="408.6" cy="714.1" r="2.9" fill="#ffffff" fill-opacity="0.41" filter="url(#glowr1x7123)"/><circle cx="709.8" cy="622.2" r="3.0" fill="#ffffff" fill-opacity="0.88" filter="url(#glowr1x7123)"/><circle cx="704.9" cy="634.0" r="3.8" fill="#ffffff" fill-opacity="0.83" filter="url(#glowr1x7123)"/><circle cx="685.8" cy="305.3" r="1.5" fill="#ffffff" fill-opacity="0.83" filter="url(#glowr1x7123)"/><circle cx="579.5" cy="245.8" r="2.0" fill="#ffffff" fill-opacity="0.89" filter="url(#glowr1x7123)"/><circle cx="310.7" cy="595.2" r="0.9" fill="#ffffff" fill-opacity="0.83" filter="url(#glowr1x7123)"/><circle cx="645.7" cy="705.4" r="1.2" fill="#ffffff" fill-opacity="0.44" filter="url(#glowr1x7123)"/><circle cx="319.8" cy="314.9" r="3.3" fill="#ffffff" fill-opacity="0.61" filter="url(#glowr1x7123)"/><circle cx="367.2" cy="306.2" r="3.5" fill="#ffffff" fill-opacity="0.61" filter="url(#glowr1x7123)"/><polygon points="397.6,661.8 490.5,660.9 479.9,878.1 386.4,878.7" fill="url(#suitr1x7123)" stroke="#ff00ff" stroke-width="2.2" filter="url(#skr1x7123) url(#metalr1x7123)"/><polygon points="398.2,661.9 488.8,660.9 480.0,877.7 387.5,878.2" fill="url(#carbonr1x7123)"/><polygon points="391.2,723.0 494.4,722.2 483.8,787.2 382.9,788.8" fill="url(#bevelr1x7123)" fill-opacity=".5" stroke="#ff00ff" stroke-width="1.4" filter="url(#skr1x7123)"/><polygon points="510.8,662.9 599.5,660.7 613.0,878.4 520.0,879.2" fill="url(#suitr1x7123)" stroke="#ff00ff" stroke-width="2.2" filter="url(#skr1x7123) url(#metalr1x7123)"/><polygon points="510.5,661.9 601.5,662.0 612.9,877.5 520.4,877.9" fill="url(#carbonr1x7123)"/><polygon points="508.6,723.3 608.2,725.5 615.1,787.6 517.2,789.2" fill="url(#bevelr1x7123)" fill-opacity=".5" stroke="#ff00ff" stroke-width="1.4" filter="url(#skr1x7123)"/><rect x="392.9" y="837.9" width="100.3" height="24.7" fill="url(#bevelr1x7123)" stroke="#ff00ff" stroke-width="1" filter="url(#skr1x7123)"/><rect x="508.5"  y="838.1" width="100.3" height="24.7" fill="url(#bevelr1x7123)" stroke="#ff00ff" stroke-width="1" filter="url(#skr1x7123)"/><polygon points="370.6,878.6 496.7,876.6 502.6,920.5 362.2,922.2" fill="#050508" stroke="#ff00ff" stroke-width="2" filter="url(#skr1x7123)"/><polygon points="503.2,877.9 629.0,875.7 637.3,922.5 496.6,920.9" fill="#050508" stroke="#ff00ff" stroke-width="2" filter="url(#skr1x7123)"/><polygon points="305.7,631.7 695.9,633.6 636.7,680.6 361.5,683.2" fill="#ff00ff" fill-opacity=".52" stroke="#ff00ff" stroke-width="2" filter="url(#skr1x7123)"/><rect x="463.1" y="637.2" width="72.0" height="42.0" fill="url(#bevelr1x7123)" stroke="#ff00ff" stroke-width="1.4" filter="url(#glowr1x7123)"/><rect x="487.6" y="641.0" width="28.0" height="22.0" rx="1" fill="rgba(255,255,255,.48)"/><polygon points="154.7,467.1 234.0,465.5 258.2,734.5 127.5,736.5" fill="url(#suitr1x7123)" stroke="#ff00ff" stroke-width="2.2" filter="url(#skr1x7123) url(#metalr1x7123)"/><polygon points="172.5,432.0 254.8,432.7 243.8,509.7 158.3,510.2" fill="url(#bevelr1x7123)" fill-opacity=".72" stroke="#ff00ff" stroke-width="2.2" filter="url(#skr1x7123)"/><polygon points="161.6,623.5 242.1,621.5 239.1,660.8 163.9,660.8" fill="#ff00ff" fill-opacity=".42" stroke="#ff00ff" stroke-width="1" filter="url(#skr1x7123)"/><polygon points="766.2,466.8 847.4,465.8 870.8,735.8 741.2,735.7" fill="url(#suitr1x7123)" stroke="#ff00ff" stroke-width="2.2" filter="url(#skr1x7123) url(#metalr1x7123)"/><polygon points="746.4,432.4 826.0,432.4 840.1,510.2 756.7,511.2" fill="url(#bevelr1x7123)" fill-opacity=".72" stroke="#ff00ff" stroke-width="2.2" filter="url(#skr1x7123)"/><polygon points="757.7,622.3 838.7,623.6 833.5,659.4 761.5,662.2" fill="#ff00ff" fill-opacity=".42" stroke="#ff00ff" stroke-width="1" filter="url(#skr1x7123)"/><rect x="119.3"  y="700.0" width="135.3" height="85.0" rx="4" fill="url(#bevelr1x7123)" stroke="#ff00ff" stroke-width="1.8" filter="url(#skr1x7123)"/><rect x="747.5"   y="699.7" width="135.3" height="85.0" rx="4" fill="url(#bevelr1x7123)" stroke="#ff00ff" stroke-width="1.8" filter="url(#skr1x7123)"/><line x1="148.4" y1="701.1" x2="149.8" y2="782.3" stroke="#ff00ff" stroke-opacity=".38" stroke-width="1"/><line x1="776.6" y1="700.5" x2="779.3" y2="783.5" stroke="#ff00ff" stroke-opacity=".38" stroke-width="1"/><line x1="182.1" y1="703.4" x2="183.5" y2="782.8" stroke="#ff00ff" stroke-opacity=".38" stroke-width="1"/><line x1="812.0" y1="701.9" x2="811.1" y2="783.1" stroke="#ff00ff" stroke-opacity=".38" stroke-width="1"/><line x1="215.1" y1="700.4" x2="216.3" y2="784.3" stroke="#ff00ff" stroke-opacity=".38" stroke-width="1"/><line x1="844.9" y1="702.7" x2="844.8" y2="783.7" stroke="#ff00ff" stroke-opacity=".38" stroke-width="1"/><polygon points="236.3,418.1 764.4,416.9 724.2,663.0 276.7,663.5" fill="url(#suitr1x7123)" stroke="#ff00ff" stroke-width="2.6" filter="url(#skr1x7123) url(#metalr1x7123)"/><polygon points="233.7,419.0 764.6,416.3 724.0,660.9 276.6,663.1" fill="url(#carbonr1x7123)"/><polygon points="366.2,416.1 633.0,417.0 609.5,514.7 387.9,517.1" fill="url(#suitHir1x7123)"/><line x1="361.7" y1="471.6" x2="638.5" y2="471.4" stroke="#ff00ff" stroke-opacity=".52" stroke-width="1.3" filter="url(#skr1x7123)"/><line x1="400.2" y1="551.2" x2="601.9" y2="549.2" stroke="#ff00ff" stroke-opacity=".52" stroke-width="1.3" filter="url(#skr1x7123)"/><line x1="267.4" y1="490.4" x2="319.7" y2="491.2" stroke="#ff00ff" stroke-opacity=".62" stroke-width="1.8"/><line x1="679.0" y1="491.5" x2="732.8" y2="492.7" stroke="#ff00ff" stroke-opacity=".62" stroke-width="1.8"/><line x1="265.6" y1="522.3" x2="318.6" y2="522.3" stroke="#ff00ff" stroke-opacity=".62" stroke-width="1.8"/><line x1="679.9" y1="521.2" x2="732.4" y2="523.8" stroke="#ff00ff" stroke-opacity=".62" stroke-width="1.8"/><line x1="266.7" y1="553.9" x2="319.4" y2="555.5" stroke="#ff00ff" stroke-opacity=".62" stroke-width="1.8"/><line x1="680.2" y1="553.1" x2="733.0" y2="556.1" stroke="#ff00ff" stroke-opacity=".62" stroke-width="1.8"/><line x1="267.7" y1="587.5" x2="318.5" y2="586.2" stroke="#ff00ff" stroke-opacity=".62" stroke-width="1.8"/><line x1="680.8" y1="585.1" x2="733.6" y2="585.1" stroke="#ff00ff" stroke-opacity=".62" stroke-width="1.8"/><g filter="url(#glowr1x7123)"><polygon points="499.4,452.9 541.1,509.4 501.7,569.7 458.2,511.7" fill="#ff00ff" stroke="#1e0600" stroke-width="1.4" filter="url(#skr1x7123)"/><polygon points="501.7,452.1 542.0,509.4 499.1,567.9 459.0,511.7" fill="url(#suitHir1x7123)" opacity=".45"/></g><g><polygon points="871.8,671.4 923.8,671.4 908.2,-28.6 887.4,-28.6" fill="url(#blader1x7123)" filter="url(#wmr1x7123)"/><polygon points="887.4,-28.6 908.2,-28.6 897.8,-138.6" fill="url(#blader1x7123)" filter="url(#wmr1x7123)"/><polygon points="896.0,671.4 899.7,671.4 898.4,-128.6 897.3,-128.6" fill="url(#bladeTipr1x7123)" opacity=".9"/><line x1="905.4640656637029" y1="670.5453637710772" x2="898.3135359666496" y2="-130.36393059613187" stroke="rgba(255,255,255,.68)" stroke-width="1.5"/><line x1="887.5394094688073" y1="671.2503742592409" x2="897.8740345854313" y2="-128.46225685002284" stroke="#ff00ff" stroke-width="1" stroke-opacity=".45"/><line x1="902.5" y1="651.4" x2="899.7" y2="11.4" stroke="rgba(0,0,0,.38)" stroke-width="1.6"/><line x1="893.2" y1="651.4" x2="896.0" y2="11.4" stroke="rgba(0,0,0,.38)" stroke-width="1.6"/><rect x="843.3010531150363" y="667.746416161675" width="112.0" height="28.0" rx="3" fill="url(#bevelr1x7123)" stroke="#ff00ff" stroke-width="1.6" filter="url(#wmr1x7123)"/><rect x="867.1026708392985" y="672.5833128058351" width="64.0" height="10.0" rx="1" fill="rgba(255,255,255,.32)"/><rect x="886.8809183213488" y="677.3384191556834" width="24.0" height="6.0" rx="1" fill="#ff00ff" fill-opacity=".35"/><rect x="884.1397063181363" y="684.9874864769168" width="24.0" height="6.0" rx="1" fill="#ff00ff" fill-opacity=".35"/><rect x="887.0215429056063" y="693.9924586318433" width="24.0" height="6.0" rx="1" fill="#ff00ff" fill-opacity=".35"/><rect x="885.0420582650788" y="700.355031217821" width="24.0" height="6.0" rx="1" fill="#ff00ff" fill-opacity=".35"/><rect x="884.661807894297" y="711.0428291801363" width="24.0" height="6.0" rx="1" fill="#ff00ff" fill-opacity=".35"/><rect x="884.4373806942814" y="718.1594117244705" width="24.0" height="6.0" rx="1" fill="#ff00ff" fill-opacity=".35"/><ellipse cx="898.9639511657507" cy="724.813048293721" rx="22.0" ry="16.0" fill="url(#bevelr1x7123)" stroke="#ff00ff" stroke-width="1.2" filter="url(#wmr1x7123)"/></g><rect x="450.2568818628788" y="557.9020114680752" width="100.0"  height="56.0" fill="#050508" stroke="#ff00ff" stroke-width="2.2" filter="url(#skr1x7123)"/><rect x="422.8893740050495" y="573.6924020447768" width="152.0" height="26.0" fill="url(#bevelr1x7123)" fill-opacity=".65" stroke="#ff00ff" stroke-width="1.2" filter="url(#skr1x7123)"/><polygon points="306.7,379.8 349.8,293.0 499.4,279.4 648.6,294.8 690.8,381.3 670.6,504.1 500.0,564.2 331.9,503.9" fill="url(#suitr1x7123)" stroke="#ff00ff" stroke-width="2.8" filter="url(#skr1x7123) url(#metalr1x7123)"/><polygon points="307.8,382.0 350.5,295.1 500.1,278.6 651.0,295.3 691.7,379.9 667.4,503.8 498.4,566.0 332.6,503.8" fill="url(#carbonr1x7123)"/><polygon points="382.6,301.4 499.1,286.7 620.6,302.8 607.6,380.1 392.0,381.0" fill="url(#suitHir1x7123)"/><polygon points="379.4,381.9 367.1,424.8 432.6,501.8 499.1,527.1 566.8,502.1 635.6,426.6 620.0,381.1" fill="#1e0600" fill-opacity=".88" stroke="#ff00ff" stroke-width="1.8" filter="url(#skr1x7123)"/><polygon points="382.3,412.4 477.4,410.0 486.2,441.0 389.5,441.4" fill="#ff00ff" filter="url(#glowr1x7123)"/><polygon points="521.3,412.9 617.6,411.7 612.2,438.7 516.2,439.6" fill="#ff00ff" filter="url(#glowr1x7123)"/><ellipse cx="430.9" cy="425.7" rx="38.4"  ry="8.2" fill="#ffffff" opacity=".88"/><ellipse cx="569.1" cy="425.7" rx="38.4"  ry="8.2" fill="#ffffff" opacity=".88"/><line x1="483.56663586875425" y1="414.361856520921" x2="516.4224596021138" y2="414.85961535125966" stroke="#ff00ff" stroke-opacity=".52" stroke-width="2"/><line x1="484.68843237660826" y1="437.6110553576611" x2="516.8744511071034" y2="437.5064129149541" stroke="#ff00ff" stroke-opacity=".52" stroke-width="2"/><line x1="498.2742626579478" y1="456.04272752106186" x2="500.73715839181096" y2="482.93930223118514" stroke="#ff00ff" stroke-opacity=".58" stroke-width="2.2" filter="url(#skr1x7123)"/><line x1="455.44544564362616" y1="492.4373985287733" x2="452.7831434425712" y2="519.7592657352798" stroke="#ff00ff" stroke-opacity=".52" stroke-width="1.5" filter="url(#skr1x7123)"/><line x1="477.92999385608357" y1="492.4509199140593" x2="476.93757876859974" y2="518.618432378862" stroke="#ff00ff" stroke-opacity=".52" stroke-width="1.5" filter="url(#skr1x7123)"/><line x1="501.3436066547409" y1="490.1476613314822" x2="499.65720963440833" y2="520.5377124207095" stroke="#ff00ff" stroke-opacity=".52" stroke-width="1.5" filter="url(#skr1x7123)"/><line x1="524.8346883711963" y1="492.61700674621386" x2="521.3022399326413" y2="518.2682480531745" stroke="#ff00ff" stroke-opacity=".52" stroke-width="1.5" filter="url(#skr1x7123)"/><line x1="545.9833703298308" y1="492.71309415921564" x2="546.4251816915535" y2="520.6470965957269" stroke="#ff00ff" stroke-opacity=".52" stroke-width="1.5" filter="url(#skr1x7123)"/><polygon points="433.9,504.1 569.0,502.6 554.7,555.4 447.0,557.9" fill="#050508" fill-opacity=".72" stroke="#ff00ff" stroke-width="1.3" filter="url(#skr1x7123)"/><text x="30.0"  y="975.0" font-family="monospace" font-weight="bold" font-size="22.0" fill="rgba(255,255,255,.22)">#0001</text><text x="500.0"   y="975.0" text-anchor="middle" font-family="monospace" font-weight="bold" font-size="22.0" fill="#ff00ff" fill-opacity=".48">VOID RANGER</text><text x="970.0" y="975.0" text-anchor="end"    font-family="monospace" font-weight="bold" font-size="22.0" fill="#ff00ff" fill-opacity=".32">MECH RANGERS</text></svg>