<svg xmlns="http://www.w3.org/2000/svg" viewBox="0 0 1000 1000" width="1000" height="1000" shape-rendering="geometricPrecision"><defs>

  <!-- Scene gradients -->
  <radialGradient id="bgr1x7128" cx="50%" cy="42%" r="72%">
    <stop offset="0%"   stop-color="#001422"/>
    <stop offset="100%" stop-color="#000a14"/>
  </radialGradient>
  <linearGradient id="suitr1x7128" x1="8%" y1="0%" x2="92%" y2="100%">
    <stop offset="0%"   stop-color="#4444ff" stop-opacity=".95"/>
    <stop offset="45%"  stop-color="#141428"/>
    <stop offset="100%" stop-color="#000a14"/>
  </linearGradient>
  <linearGradient id="suitHir1x7128" x1="0%" y1="0%" x2="0%" y2="100%">
    <stop offset="0%"   stop-color="rgba(255,255,255,.28)"/>
    <stop offset="60%"  stop-color="rgba(255,255,255,.04)"/>
    <stop offset="100%" stop-color="rgba(255,255,255,0)"/>
  </linearGradient>
  <!-- Bevel: bright top, dark bottom for armour panels -->
  <linearGradient id="bevelr1x7128" x1="0%" y1="0%" x2="0%" y2="100%">
    <stop offset="0%"   stop-color="rgba(255,255,255,.55)"/>
    <stop offset="30%"  stop-color="#4444ff"/>
    <stop offset="70%"  stop-color="#141428"/>
    <stop offset="100%" stop-color="rgba(0,0,0,.5)"/>
  </linearGradient>

  <!-- Weapon: cold steel blade sweep -->
  <linearGradient id="blader1x7128" x1="0%" y1="0%" x2="100%" y2="0%">
    <stop offset="0%"   stop-color="#0e0e20"/>
    <stop offset="16%"  stop-color="#3e3e58"/>
    <stop offset="34%"  stop-color="#c8c8e0"/>
    <stop offset="50%"  stop-color="#f5f5ff"/>
    <stop offset="66%"  stop-color="#b8b8d0"/>
    <stop offset="84%"  stop-color="#2e2e48"/>
    <stop offset="100%" stop-color="#08080e"/>
  </linearGradient>
  <!-- Blade tip brightening -->
  <linearGradient id="bladeTipr1x7128" x1="0%" y1="100%" x2="0%" y2="0%">
    <stop offset="0%"   stop-color="rgba(255,255,255,0)"/>
    <stop offset="55%"  stop-color="rgba(255,255,255,.1)"/>
    <stop offset="100%" stop-color="rgba(255,255,255,.55)"/>
  </linearGradient>
  <!-- Gunmetal anodised — blaster body -->
  <linearGradient id="gunmetalr1x7128" x1="0%" y1="0%" x2="0%" y2="100%">
    <stop offset="0%"   stop-color="#46465e"/>
    <stop offset="18%"  stop-color="#828296"/>
    <stop offset="42%"  stop-color="#26263a"/>
    <stop offset="72%"  stop-color="#16162a"/>
    <stop offset="100%" stop-color="#0c0c18"/>
  </linearGradient>
  <!-- Brushed steel tube — barrel/rod -->
  <linearGradient id="barrelr1x7128" x1="0%" y1="0%" x2="100%" y2="0%">
    <stop offset="0%"   stop-color="#0a0a14"/>
    <stop offset="24%"  stop-color="#585875"/>
    <stop offset="50%"  stop-color="#a8a8c8"/>
    <stop offset="76%"  stop-color="#383852"/>
    <stop offset="100%" stop-color="#0a0a14"/>
  </linearGradient>
  <!-- Chrome rod — lance shaft -->
  <linearGradient id="chromer1x7128" x1="0%" y1="0%" x2="100%" y2="0%">
    <stop offset="0%"   stop-color="#0c0c18"/>
    <stop offset="20%"  stop-color="#686888"/>
    <stop offset="44%"  stop-color="#e0e0f0"/>
    <stop offset="56%"  stop-color="#c0c0d8"/>
    <stop offset="80%"  stop-color="#28283e"/>
    <stop offset="100%" stop-color="#0c0c18"/>
  </linearGradient>
  <!-- Titanium plate — shield face -->
  <linearGradient id="titaniumr1x7128" x1="0%" y1="0%" x2="100%" y2="100%">
    <stop offset="0%"   stop-color="#585878"/>
    <stop offset="28%"  stop-color="#4444ff" stop-opacity=".88"/>
    <stop offset="55%"  stop-color="#141428"/>
    <stop offset="80%"  stop-color="#181828"/>
    <stop offset="100%" stop-color="#0a0a18"/>
  </linearGradient>
  <!-- Artillery black-chrome — cannon body -->
  <linearGradient id="artilleryr1x7128" x1="0%" y1="0%" x2="0%" y2="100%">
    <stop offset="0%"   stop-color="#383850"/>
    <stop offset="14%"  stop-color="#78789a"/>
    <stop offset="36%"  stop-color="#202034"/>
    <stop offset="65%"  stop-color="#14141e"/>
    <stop offset="100%" stop-color="#0a0a12"/>
  </linearGradient>
  <!-- Energy orb — staff -->
  <radialGradient id="orbr1x7128" cx="35%" cy="35%" r="65%">
    <stop offset="0%"   stop-color="rgba(255,255,255,.9)"/>
    <stop offset="30%"  stop-color="#4444ff"/>
    <stop offset="68%"  stop-color="#141428"/>
    <stop offset="100%" stop-color="rgba(0,0,0,.6)"/>
  </radialGradient>
  <!-- Knuckle plate chrome -->
  <linearGradient id="knuckler1x7128" x1="0%" y1="0%" x2="0%" y2="100%">
    <stop offset="0%"   stop-color="#888aaa"/>
    <stop offset="32%"  stop-color="#4444ff" stop-opacity=".8"/>
    <stop offset="62%"  stop-color="#1a1a2c"/>
    <stop offset="100%" stop-color="#0a0a14"/>
  </linearGradient>

  <!-- Carbon fibre weave texture overlay -->
  <pattern id="carbonr1x7128" width="6" height="6" patternUnits="userSpaceOnUse">
    <rect width="6" height="6" fill="rgba(0,0,0,.08)"/>
    <rect x="0" y="0" width="3" height="3" fill="rgba(255,255,255,.022)"/>
    <rect x="3" y="3" width="3" height="3" fill="rgba(255,255,255,.022)"/>
    <line x1="0" y1="0" x2="3" y2="3" stroke="rgba(255,255,255,.038)" stroke-width=".5"/>
    <line x1="3" y1="0" x2="6" y2="3" stroke="rgba(0,0,0,.055)"       stroke-width=".5"/>
    <line x1="0" y1="3" x2="3" y2="6" stroke="rgba(0,0,0,.055)"       stroke-width=".5"/>
    <line x1="3" y1="3" x2="6" y2="6" stroke="rgba(255,255,255,.038)" stroke-width=".5"/>
  </pattern>

  <!-- Specular metal sheen on armour panels -->
  <filter id="metalr1x7128" x="-5%" y="-5%" width="110%" height="110%">
    <feSpecularLighting surfaceScale="4" specularConstant="1.8"
        specularExponent="42" lighting-color="#ffffff" result="spec">
      <feDistantLight elevation="52" azimuth="38"/>
    </feSpecularLighting>
    <feComposite in="spec" in2="SourceGraphic" operator="in" result="sm"/>
    <feComposite in="SourceGraphic" in2="sm" operator="arithmetic" k1="0" k2="1" k3="0.55" k4="0"/>
  </filter>

  <!-- Sharper specular for weapons — heavier glare -->
  <filter id="wmr1x7128" x="-8%" y="-8%" width="116%" height="116%">
    <feSpecularLighting surfaceScale="6" specularConstant="2.4"
        specularExponent="65" lighting-color="#ffffff" result="spec">
      <feDistantLight elevation="44" azimuth="28"/>
    </feSpecularLighting>
    <feComposite in="spec" in2="SourceGraphic" operator="in" result="sm"/>
    <feComposite in="SourceGraphic" in2="sm" operator="arithmetic" k1="0" k2="1" k3="0.78" k4="0"/>
  </filter>

  <!-- Sketch wobble -->
  <filter id="skr1x7128" x="-8%" y="-8%" width="116%" height="116%">
    <feTurbulence type="fractalNoise" baseFrequency="0.038"
        numOctaves="3" seed="82" result="noise"/>
    <feDisplacementMap in="SourceGraphic" in2="noise" scale="2.6"
        xChannelSelector="R" yChannelSelector="G" result="w"/>
    <feComposite in="w" in2="SourceGraphic" operator="atop"/>
  </filter>

  <!-- Glow: sharp accent -->
  <filter id="glowr1x7128" x="-20%" y="-20%" width="140%" height="140%">
    <feGaussianBlur stdDeviation="3.5" result="b"/>
    <feColorMatrix in="b" type="matrix"
        values="0 0 0 0 1  0 0 0 0 1  0 0 0 0 1  0 0 0 1.8 0" result="boost"/>
    <feMerge><feMergeNode in="boost"/><feMergeNode in="SourceGraphic"/></feMerge>
  </filter>

  <!-- Bloom: wide soft -->
  <filter id="bloomr1x7128" x="-40%" y="-40%" width="180%" height="180%">
    <feGaussianBlur stdDeviation="11" result="b"/>
    <feMerge><feMergeNode in="b"/><feMergeNode in="SourceGraphic"/></feMerge>
  </filter>

  </defs><rect width="1000" height="1000" fill="url(#bgr1x7128)"/><line x1="0" y1="0.4" x2="1000" y2="0.6" stroke="#4444ff" stroke-opacity=".055" stroke-width="1.2"/><line x1="1.5" y1="0" x2="0.6" y2="1000" stroke="#4444ff" stroke-opacity=".055" stroke-width="1.2"/><line x1="0" y1="101.2" x2="1000" y2="98.8" stroke="#4444ff" stroke-opacity=".055" stroke-width="1.2"/><line x1="102.5" y1="0" x2="102.8" y2="1000" stroke="#4444ff" stroke-opacity=".055" stroke-width="1.2"/><line x1="0" y1="198.4" x2="1000" y2="198.5" stroke="#4444ff" stroke-opacity=".055" stroke-width="1.2"/><line x1="197.0" y1="0" x2="201.5" y2="1000" stroke="#4444ff" stroke-opacity=".055" stroke-width="1.2"/><line x1="0" y1="300.0" x2="1000" y2="300.4" stroke="#4444ff" stroke-opacity=".055" stroke-width="1.2"/><line x1="300.7" y1="0" x2="298.7" y2="1000" stroke="#4444ff" stroke-opacity=".055" stroke-width="1.2"/><line x1="0" y1="402.9" x2="1000" y2="403.0" stroke="#4444ff" stroke-opacity=".055" stroke-width="1.2"/><line x1="402.4" y1="0" x2="402.1" y2="1000" stroke="#4444ff" stroke-opacity=".055" stroke-width="1.2"/><line x1="0" y1="501.9" x2="1000" y2="499.7" stroke="#4444ff" stroke-opacity=".055" stroke-width="1.2"/><line x1="501.8" y1="0" x2="499.2" y2="1000" stroke="#4444ff" stroke-opacity=".055" stroke-width="1.2"/><line x1="0" y1="601.8" x2="1000" y2="601.4" stroke="#4444ff" stroke-opacity=".055" stroke-width="1.2"/><line x1="598.9" y1="0" x2="600.2" y2="1000" stroke="#4444ff" stroke-opacity=".055" stroke-width="1.2"/><line x1="0" y1="702.1" x2="1000" y2="698.8" stroke="#4444ff" stroke-opacity=".055" stroke-width="1.2"/><line x1="700.1" y1="0" x2="697.5" y2="1000" stroke="#4444ff" stroke-opacity=".055" stroke-width="1.2"/><line x1="0" y1="800.5" x2="1000" y2="801.4" stroke="#4444ff" stroke-opacity=".055" stroke-width="1.2"/><line x1="802.9" y1="0" x2="801.8" y2="1000" stroke="#4444ff" stroke-opacity=".055" stroke-width="1.2"/><line x1="0" y1="901.5" x2="1000" y2="900.6" stroke="#4444ff" stroke-opacity=".055" stroke-width="1.2"/><line x1="902.1" y1="0" x2="897.8" y2="1000" stroke="#4444ff" stroke-opacity=".055" stroke-width="1.2"/><path d="M80,30 L30,30 L30,80" stroke="#4444ff" stroke-opacity=".45" stroke-width="2" fill="none" filter="url(#glowr1x7128)"/><path d="M920,30 L970,30 L970,80" stroke="#4444ff" stroke-opacity=".45" stroke-width="2" fill="none" filter="url(#glowr1x7128)"/><path d="M30,920 L30,970 L80,970" stroke="#4444ff" stroke-opacity=".45" stroke-width="2" fill="none" filter="url(#glowr1x7128)"/><path d="M970,920 L970,970 L920,970" stroke="#4444ff" stroke-opacity=".45" stroke-width="2" fill="none" filter="url(#glowr1x7128)"/><ellipse cx="500.0" cy="892.0" rx="350.0" ry="65.0" fill="rgba(0,0,0,.7)" filter="url(#bloomr1x7128)"/><ellipse cx="500.0" cy="889.0" rx="220.0" ry="34.0" fill="rgba(0,0,0,.45)"/><ellipse cx="500.0" cy="520.0" rx="320.0" ry="480.0" fill="#6600ff" fill-opacity=".042" filter="url(#bloomr1x7128)"/><circle cx="663.7" cy="507.4" r="1.1" fill="#6600ff" fill-opacity="0.44" filter="url(#glowr1x7128)"/><circle cx="547.8" cy="633.7" r="0.7" fill="#6600ff" fill-opacity="0.46" filter="url(#glowr1x7128)"/><circle cx="281.7" cy="521.9" r="1.1" fill="#6600ff" fill-opacity="0.55" filter="url(#glowr1x7128)"/><circle cx="381.5" cy="226.0" r="3.5" fill="#6600ff" fill-opacity="0.79" filter="url(#glowr1x7128)"/><circle cx="446.8" cy="434.5" r="3.1" fill="#6600ff" fill-opacity="0.57" filter="url(#glowr1x7128)"/><circle cx="378.0" cy="560.5" r="3.4" fill="#6600ff" fill-opacity="0.44" filter="url(#glowr1x7128)"/><circle cx="484.4" cy="291.3" r="2.5" fill="#6600ff" fill-opacity="0.55" filter="url(#glowr1x7128)"/><circle cx="314.4" cy="765.1" r="3.6" fill="#6600ff" fill-opacity="0.83" filter="url(#glowr1x7128)"/><circle cx="545.6" cy="717.6" r="1.7" fill="#6600ff" fill-opacity="0.75" filter="url(#glowr1x7128)"/><circle cx="676.0" cy="773.1" r="4.2" fill="#6600ff" fill-opacity="0.40" filter="url(#glowr1x7128)"/><circle cx="420.0" cy="288.0" r="1.7" fill="#6600ff" fill-opacity="0.54" filter="url(#glowr1x7128)"/><circle cx="402.3" cy="401.4" r="1.7" fill="#6600ff" fill-opacity="0.58" filter="url(#glowr1x7128)"/><circle cx="398.2" cy="717.3" r="4.1" fill="#6600ff" fill-opacity="0.54" filter="url(#glowr1x7128)"/><circle cx="729.3" cy="224.6" r="3.0" fill="#6600ff" fill-opacity="0.83" filter="url(#glowr1x7128)"/><polygon points="398.2,663.3 487.9,663.7 479.6,876.4 386.5,876.5" fill="url(#suitr1x7128)" stroke="#4444ff" stroke-width="2.2" filter="url(#skr1x7128) url(#metalr1x7128)"/><polygon points="398.4,661.9 489.0,663.3 480.5,876.9 386.4,878.2" fill="url(#carbonr1x7128)"/><polygon points="392.0,722.8 494.2,722.9 485.9,787.8 383.5,788.8" fill="url(#bevelr1x7128)" fill-opacity=".5" stroke="#4444ff" stroke-width="1.4" filter="url(#skr1x7128)"/><polygon points="509.4,661.2 600.2,660.9 612.4,876.2 518.8,878.2" fill="url(#suitr1x7128)" stroke="#4444ff" stroke-width="2.2" filter="url(#skr1x7128) url(#metalr1x7128)"/><polygon points="509.8,661.6 600.7,661.7 613.9,878.4 518.1,877.4" fill="url(#carbonr1x7128)"/><polygon points="506.0,722.9 606.5,724.0 614.6,787.5 517.2,787.9" fill="url(#bevelr1x7128)" fill-opacity=".5" stroke="#4444ff" stroke-width="1.4" filter="url(#skr1x7128)"/><rect x="391.9" y="839.3" width="100.3" height="24.7" fill="url(#bevelr1x7128)" stroke="#4444ff" stroke-width="1" filter="url(#skr1x7128)"/><rect x="508.4"  y="839.2" width="100.3" height="24.7" fill="url(#bevelr1x7128)" stroke="#4444ff" stroke-width="1" filter="url(#skr1x7128)"/><polygon points="370.3,878.1 495.0,877.4 502.8,920.8 363.7,920.9" fill="#141428" stroke="#4444ff" stroke-width="2" filter="url(#skr1x7128)"/><polygon points="502.8,876.9 630.3,877.4 636.9,921.7 495.1,921.2" fill="#141428" stroke="#4444ff" stroke-width="2" filter="url(#skr1x7128)"/><polygon points="302.6,632.4 694.6,631.4 636.1,681.7 360.7,683.2" fill="#4444ff" fill-opacity=".52" stroke="#4444ff" stroke-width="2" filter="url(#skr1x7128)"/><rect x="462.8" y="637.0" width="72.0" height="42.0" fill="url(#bevelr1x7128)" stroke="#4444ff" stroke-width="1.4" filter="url(#glowr1x7128)"/><rect x="484.6" y="639.3" width="28.0" height="22.0" rx="1" fill="rgba(255,255,255,.48)"/><polygon points="154.4,467.7 236.3,466.7 259.0,733.6 127.3,733.8" fill="url(#suitr1x7128)" stroke="#4444ff" stroke-width="2.2" filter="url(#skr1x7128) url(#metalr1x7128)"/><polygon points="172.2,431.6 252.8,430.9 244.3,511.7 159.0,509.7" fill="url(#bevelr1x7128)" fill-opacity=".72" stroke="#4444ff" stroke-width="2.2" filter="url(#skr1x7128)"/><polygon points="160.2,620.8 244.8,623.7 240.1,660.2 164.5,660.9" fill="#4444ff" fill-opacity=".42" stroke="#4444ff" stroke-width="1" filter="url(#skr1x7128)"/><polygon points="766.6,465.4 846.7,468.0 873.1,736.6 741.3,736.3" fill="url(#suitr1x7128)" stroke="#4444ff" stroke-width="2.2" filter="url(#skr1x7128) url(#metalr1x7128)"/><polygon points="745.2,433.5 825.5,431.7 838.9,511.9 758.5,509.3" fill="url(#bevelr1x7128)" fill-opacity=".72" stroke="#4444ff" stroke-width="2.2" filter="url(#skr1x7128)"/><polygon points="757.8,622.1 840.0,623.5 834.6,662.2 761.5,659.7" fill="#4444ff" fill-opacity=".42" stroke="#4444ff" stroke-width="1" filter="url(#skr1x7128)"/><rect x="118.6"  y="699.3" width="135.3" height="85.0" rx="4" fill="url(#bevelr1x7128)" stroke="#4444ff" stroke-width="1.8" filter="url(#skr1x7128)"/><rect x="748.0"   y="698.6" width="135.3" height="85.0" rx="4" fill="url(#bevelr1x7128)" stroke="#4444ff" stroke-width="1.8" filter="url(#skr1x7128)"/><line x1="150.0" y1="700.8" x2="150.3" y2="783.1" stroke="#4444ff" stroke-opacity=".38" stroke-width="1"/><line x1="778.9" y1="703.4" x2="777.7" y2="785.4" stroke="#4444ff" stroke-opacity=".38" stroke-width="1"/><line x1="182.6" y1="702.1" x2="181.4" y2="784.2" stroke="#4444ff" stroke-opacity=".38" stroke-width="1"/><line x1="810.3" y1="701.8" x2="810.1" y2="785.4" stroke="#4444ff" stroke-opacity=".38" stroke-width="1"/><line x1="214.9" y1="702.9" x2="215.9" y2="785.0" stroke="#4444ff" stroke-opacity=".38" stroke-width="1"/><line x1="844.1" y1="702.5" x2="843.1" y2="784.1" stroke="#4444ff" stroke-opacity=".38" stroke-width="1"/><polygon points="236.2,417.5 765.1,416.8 721.0,661.6 275.6,662.6" fill="url(#suitr1x7128)" stroke="#4444ff" stroke-width="2.6" filter="url(#skr1x7128) url(#metalr1x7128)"/><polygon points="236.5,419.0 764.0,418.8 723.3,664.3 276.2,661.7" fill="url(#carbonr1x7128)"/><polygon points="368.6,417.8 632.6,419.2 610.3,515.2 390.3,516.5" fill="url(#suitHir1x7128)"/><line x1="363.1" y1="471.2" x2="639.0" y2="469.9" stroke="#4444ff" stroke-opacity=".52" stroke-width="1.3" filter="url(#skr1x7128)"/><line x1="401.0" y1="551.3" x2="600.3" y2="548.8" stroke="#4444ff" stroke-opacity=".52" stroke-width="1.3" filter="url(#skr1x7128)"/><line x1="267.9" y1="490.4" x2="320.1" y2="490.1" stroke="#4444ff" stroke-opacity=".62" stroke-width="1.8"/><line x1="681.6" y1="491.9" x2="733.9" y2="490.3" stroke="#4444ff" stroke-opacity=".62" stroke-width="1.8"/><line x1="267.2" y1="521.3" x2="319.2" y2="522.0" stroke="#4444ff" stroke-opacity=".62" stroke-width="1.8"/><line x1="678.8" y1="523.6" x2="733.6" y2="522.6" stroke="#4444ff" stroke-opacity=".62" stroke-width="1.8"/><line x1="265.4" y1="553.9" x2="320.3" y2="555.1" stroke="#4444ff" stroke-opacity=".62" stroke-width="1.8"/><line x1="679.8" y1="556.3" x2="732.1" y2="554.9" stroke="#4444ff" stroke-opacity=".62" stroke-width="1.8"/><line x1="268.3" y1="587.2" x2="321.5" y2="586.8" stroke="#4444ff" stroke-opacity=".62" stroke-width="1.8"/><line x1="680.4" y1="585.9" x2="733.4" y2="585.0" stroke="#4444ff" stroke-opacity=".62" stroke-width="1.8"/><g filter="url(#glowr1x7128)"><polygon points="484.4,452.7 514.4,506.0 500.3,505.7 518.7,568.1 488.8,515.9 500.9,515.9" fill="#4444ff" stroke="#000a14" stroke-width="1.4" filter="url(#skr1x7128)"/><polygon points="484.4,454.3 511.0,504.9 499.0,506.5 518.6,568.8 487.8,516.0 501.4,516.5" fill="url(#suitHir1x7128)" opacity=".4"/></g><g><line x1="101.64489205166694" y1="790.0034968726337" x2="84.71906506357712" y2="111.11840988919137" stroke="url(#chromer1x7128)" stroke-width="28.0" stroke-linecap="round" filter="url(#wmr1x7128)"/><line x1="95.68311360565943" y1="772.7606214655563" x2="89.03026624372225" y2="131.59675241969524" stroke="rgba(255,255,255,.42)" stroke-width="5.0" stroke-linecap="round"/><polygon points="74.5,152.6 140.9,151.2 82.8,-7.5" fill="url(#blader1x7128)" stroke="#4444ff" stroke-width="1.8" filter="url(#wmr1x7128)"/><line x1="140.2" y1="151.4" x2="84.2" y2="-8.6" stroke="rgba(255,255,255,.72)" stroke-width="1.6"/><rect x="82.59654074734074" y="420.91077685058116" width="40.0" height="20.0" fill="url(#bevelr1x7128)" stroke="#4444ff" stroke-width="1" filter="url(#wmr1x7128)"/><rect x="83.59367963321503" y="509.8098835846409" width="40.0" height="20.0" fill="url(#bevelr1x7128)" stroke="#4444ff" stroke-width="1" filter="url(#wmr1x7128)"/><rect x="81.48505720909682" y="602.8090618208981" width="40.0" height="20.0" fill="url(#bevelr1x7128)" stroke="#4444ff" stroke-width="1" filter="url(#wmr1x7128)"/><rect x="84.12283902078863" y="691.2967382470146" width="40.0" height="20.0" fill="url(#bevelr1x7128)" stroke="#4444ff" stroke-width="1" filter="url(#wmr1x7128)"/><ellipse cx="103.47358906207603" cy="793.0834977183491" rx="22.0" ry="15.0" fill="url(#bevelr1x7128)" stroke="#4444ff" stroke-width="1" filter="url(#wmr1x7128)"/></g><rect x="449.85597578203306" y="558.5831763536669" width="100.0"  height="56.0" fill="#141428" stroke="#4444ff" stroke-width="2.2" filter="url(#skr1x7128)"/><rect x="422.22401234544816" y="573.8549873117357" width="152.0" height="26.0" fill="url(#bevelr1x7128)" fill-opacity=".65" stroke="#4444ff" stroke-width="1.2" filter="url(#skr1x7128)"/><polygon points="309.3,381.8 349.3,294.6 501.6,278.1 648.8,296.1 692.7,381.7 669.1,502.5 500.4,566.2 329.8,502.1" fill="url(#suitr1x7128)" stroke="#4444ff" stroke-width="2.8" filter="url(#skr1x7128) url(#metalr1x7128)"/><polygon points="306.8,379.7 350.7,295.4 499.2,276.6 649.7,294.3 691.1,382.2 669.9,504.1 499.8,563.6 331.3,504.3" fill="url(#carbonr1x7128)"/><polygon points="379.6,303.5 499.2,287.3 619.0,301.9 606.3,379.3 393.4,382.3" fill="url(#suitHir1x7128)"/><polygon points="382.3,379.9 365.2,427.3 431.0,503.1 501.0,527.5 568.0,501.9 634.8,423.9 619.6,382.0" fill="#000a14" fill-opacity=".88" stroke="#4444ff" stroke-width="1.8" filter="url(#skr1x7128)"/><polygon points="380.0,409.7 477.2,409.7 486.2,438.8 388.9,441.4" fill="#4444ff" filter="url(#glowr1x7128)"/><polygon points="524.2,409.6 617.3,411.0 611.3,439.8 514.9,438.6" fill="#4444ff" filter="url(#glowr1x7128)"/><ellipse cx="430.9" cy="425.7" rx="38.4"  ry="8.2" fill="#ffffff" opacity=".88"/><ellipse cx="569.1" cy="425.7" rx="38.4"  ry="8.2" fill="#ffffff" opacity=".88"/><line x1="485.80143110562113" y1="414.1287516807206" x2="515.5133962267452" y2="412.06116682402785" stroke="#4444ff" stroke-opacity=".52" stroke-width="2"/><line x1="484.47407012401146" y1="438.93356342772023" x2="516.903348020874" y2="438.21781392619016" stroke="#4444ff" stroke-opacity=".52" stroke-width="2"/><line x1="499.9572286375798" y1="453.3554211917333" x2="500.30468226829544" y2="482.13794928714634" stroke="#4444ff" stroke-opacity=".58" stroke-width="2.2" filter="url(#skr1x7128)"/><line x1="452.56193837270143" y1="491.9388368881307" x2="452.5006049789302" y2="520.4562887265347" stroke="#4444ff" stroke-opacity=".52" stroke-width="1.5" filter="url(#skr1x7128)"/><line x1="475.3719775458239" y1="489.65868843132625" x2="475.8087058876082" y2="520.2620402520522" stroke="#4444ff" stroke-opacity=".52" stroke-width="1.5" filter="url(#skr1x7128)"/><line x1="500.8887564530596" y1="491.1652532580308" x2="501.1524313170463" y2="521.6968533976003" stroke="#4444ff" stroke-opacity=".52" stroke-width="1.5" filter="url(#skr1x7128)"/><line x1="523.7520178002864" y1="490.72542328936976" x2="523.6956845059618" y2="518.3739654229954" stroke="#4444ff" stroke-opacity=".52" stroke-width="1.5" filter="url(#skr1x7128)"/><line x1="546.5193592401408" y1="491.64280963307243" x2="544.7842339888401" y2="518.2556448827497" stroke="#4444ff" stroke-opacity=".52" stroke-width="1.5" filter="url(#skr1x7128)"/><polygon points="431.2,504.6 566.2,504.4 554.9,555.6 444.7,556.7" fill="#141428" fill-opacity=".72" stroke="#4444ff" stroke-width="1.3" filter="url(#skr1x7128)"/><text x="30.0"  y="975.0" font-family="monospace" font-weight="bold" font-size="22.0" fill="rgba(255,255,255,.22)">#0001</text><text x="500.0"   y="975.0" text-anchor="middle" font-family="monospace" font-weight="bold" font-size="22.0" fill="#4444ff" fill-opacity=".48">OBSIDIAN RANGER</text><text x="970.0" y="975.0" text-anchor="end"    font-family="monospace" font-weight="bold" font-size="22.0" fill="#4444ff" fill-opacity=".32">MECH RANGERS</text></svg>