<svg xmlns="http://www.w3.org/2000/svg" viewBox="0 0 1000 1000" width="1000" height="1000" shape-rendering="geometricPrecision"><defs>

  <!-- Scene gradients -->
  <radialGradient id="bgr1x716" cx="50%" cy="42%" r="72%">
    <stop offset="0%"   stop-color="#1e0a2e"/>
    <stop offset="100%" stop-color="#0a0520"/>
  </radialGradient>
  <linearGradient id="suitr1x716" x1="8%" y1="0%" x2="92%" y2="100%">
    <stop offset="0%"   stop-color="#00ff60" stop-opacity=".95"/>
    <stop offset="45%"  stop-color="#00441e"/>
    <stop offset="100%" stop-color="#0a0520"/>
  </linearGradient>
  <linearGradient id="suitHir1x716" x1="0%" y1="0%" x2="0%" y2="100%">
    <stop offset="0%"   stop-color="rgba(255,255,255,.28)"/>
    <stop offset="60%"  stop-color="rgba(255,255,255,.04)"/>
    <stop offset="100%" stop-color="rgba(255,255,255,0)"/>
  </linearGradient>
  <!-- Bevel: bright top, dark bottom for armour panels -->
  <linearGradient id="bevelr1x716" x1="0%" y1="0%" x2="0%" y2="100%">
    <stop offset="0%"   stop-color="rgba(255,255,255,.55)"/>
    <stop offset="30%"  stop-color="#00ff60"/>
    <stop offset="70%"  stop-color="#00441e"/>
    <stop offset="100%" stop-color="rgba(0,0,0,.5)"/>
  </linearGradient>

  <!-- Weapon: cold steel blade sweep -->
  <linearGradient id="blader1x716" x1="0%" y1="0%" x2="100%" y2="0%">
    <stop offset="0%"   stop-color="#0e0e20"/>
    <stop offset="16%"  stop-color="#3e3e58"/>
    <stop offset="34%"  stop-color="#c8c8e0"/>
    <stop offset="50%"  stop-color="#f5f5ff"/>
    <stop offset="66%"  stop-color="#b8b8d0"/>
    <stop offset="84%"  stop-color="#2e2e48"/>
    <stop offset="100%" stop-color="#08080e"/>
  </linearGradient>
  <!-- Blade tip brightening -->
  <linearGradient id="bladeTipr1x716" x1="0%" y1="100%" x2="0%" y2="0%">
    <stop offset="0%"   stop-color="rgba(255,255,255,0)"/>
    <stop offset="55%"  stop-color="rgba(255,255,255,.1)"/>
    <stop offset="100%" stop-color="rgba(255,255,255,.55)"/>
  </linearGradient>
  <!-- Gunmetal anodised — blaster body -->
  <linearGradient id="gunmetalr1x716" x1="0%" y1="0%" x2="0%" y2="100%">
    <stop offset="0%"   stop-color="#46465e"/>
    <stop offset="18%"  stop-color="#828296"/>
    <stop offset="42%"  stop-color="#26263a"/>
    <stop offset="72%"  stop-color="#16162a"/>
    <stop offset="100%" stop-color="#0c0c18"/>
  </linearGradient>
  <!-- Brushed steel tube — barrel/rod -->
  <linearGradient id="barrelr1x716" x1="0%" y1="0%" x2="100%" y2="0%">
    <stop offset="0%"   stop-color="#0a0a14"/>
    <stop offset="24%"  stop-color="#585875"/>
    <stop offset="50%"  stop-color="#a8a8c8"/>
    <stop offset="76%"  stop-color="#383852"/>
    <stop offset="100%" stop-color="#0a0a14"/>
  </linearGradient>
  <!-- Chrome rod — lance shaft -->
  <linearGradient id="chromer1x716" x1="0%" y1="0%" x2="100%" y2="0%">
    <stop offset="0%"   stop-color="#0c0c18"/>
    <stop offset="20%"  stop-color="#686888"/>
    <stop offset="44%"  stop-color="#e0e0f0"/>
    <stop offset="56%"  stop-color="#c0c0d8"/>
    <stop offset="80%"  stop-color="#28283e"/>
    <stop offset="100%" stop-color="#0c0c18"/>
  </linearGradient>
  <!-- Titanium plate — shield face -->
  <linearGradient id="titaniumr1x716" x1="0%" y1="0%" x2="100%" y2="100%">
    <stop offset="0%"   stop-color="#585878"/>
    <stop offset="28%"  stop-color="#00ff60" stop-opacity=".88"/>
    <stop offset="55%"  stop-color="#00441e"/>
    <stop offset="80%"  stop-color="#181828"/>
    <stop offset="100%" stop-color="#0a0a18"/>
  </linearGradient>
  <!-- Artillery black-chrome — cannon body -->
  <linearGradient id="artilleryr1x716" x1="0%" y1="0%" x2="0%" y2="100%">
    <stop offset="0%"   stop-color="#383850"/>
    <stop offset="14%"  stop-color="#78789a"/>
    <stop offset="36%"  stop-color="#202034"/>
    <stop offset="65%"  stop-color="#14141e"/>
    <stop offset="100%" stop-color="#0a0a12"/>
  </linearGradient>
  <!-- Energy orb — staff -->
  <radialGradient id="orbr1x716" cx="35%" cy="35%" r="65%">
    <stop offset="0%"   stop-color="rgba(255,255,255,.9)"/>
    <stop offset="30%"  stop-color="#00ff60"/>
    <stop offset="68%"  stop-color="#00441e"/>
    <stop offset="100%" stop-color="rgba(0,0,0,.6)"/>
  </radialGradient>
  <!-- Knuckle plate chrome -->
  <linearGradient id="knuckler1x716" x1="0%" y1="0%" x2="0%" y2="100%">
    <stop offset="0%"   stop-color="#888aaa"/>
    <stop offset="32%"  stop-color="#00ff60" stop-opacity=".8"/>
    <stop offset="62%"  stop-color="#1a1a2c"/>
    <stop offset="100%" stop-color="#0a0a14"/>
  </linearGradient>

  <!-- Carbon fibre weave texture overlay -->
  <pattern id="carbonr1x716" width="6" height="6" patternUnits="userSpaceOnUse">
    <rect width="6" height="6" fill="rgba(0,0,0,.08)"/>
    <rect x="0" y="0" width="3" height="3" fill="rgba(255,255,255,.022)"/>
    <rect x="3" y="3" width="3" height="3" fill="rgba(255,255,255,.022)"/>
    <line x1="0" y1="0" x2="3" y2="3" stroke="rgba(255,255,255,.038)" stroke-width=".5"/>
    <line x1="3" y1="0" x2="6" y2="3" stroke="rgba(0,0,0,.055)"       stroke-width=".5"/>
    <line x1="0" y1="3" x2="3" y2="6" stroke="rgba(0,0,0,.055)"       stroke-width=".5"/>
    <line x1="3" y1="3" x2="6" y2="6" stroke="rgba(255,255,255,.038)" stroke-width=".5"/>
  </pattern>

  <!-- Specular metal sheen on armour panels -->
  <filter id="metalr1x716" x="-5%" y="-5%" width="110%" height="110%">
    <feSpecularLighting surfaceScale="4" specularConstant="1.8"
        specularExponent="42" lighting-color="#ffffff" result="spec">
      <feDistantLight elevation="52" azimuth="38"/>
    </feSpecularLighting>
    <feComposite in="spec" in2="SourceGraphic" operator="in" result="sm"/>
    <feComposite in="SourceGraphic" in2="sm" operator="arithmetic" k1="0" k2="1" k3="0.55" k4="0"/>
  </filter>

  <!-- Sharper specular for weapons — heavier glare -->
  <filter id="wmr1x716" x="-8%" y="-8%" width="116%" height="116%">
    <feSpecularLighting surfaceScale="6" specularConstant="2.4"
        specularExponent="65" lighting-color="#ffffff" result="spec">
      <feDistantLight elevation="44" azimuth="28"/>
    </feSpecularLighting>
    <feComposite in="spec" in2="SourceGraphic" operator="in" result="sm"/>
    <feComposite in="SourceGraphic" in2="sm" operator="arithmetic" k1="0" k2="1" k3="0.78" k4="0"/>
  </filter>

  <!-- Sketch wobble -->
  <filter id="skr1x716" x="-8%" y="-8%" width="116%" height="116%">
    <feTurbulence type="fractalNoise" baseFrequency="0.038"
        numOctaves="3" seed="45" result="noise"/>
    <feDisplacementMap in="SourceGraphic" in2="noise" scale="2.6"
        xChannelSelector="R" yChannelSelector="G" result="w"/>
    <feComposite in="w" in2="SourceGraphic" operator="atop"/>
  </filter>

  <!-- Glow: sharp accent -->
  <filter id="glowr1x716" x="-20%" y="-20%" width="140%" height="140%">
    <feGaussianBlur stdDeviation="3.5" result="b"/>
    <feColorMatrix in="b" type="matrix"
        values="0 0 0 0 1  0 0 0 0 1  0 0 0 0 1  0 0 0 1.8 0" result="boost"/>
    <feMerge><feMergeNode in="boost"/><feMergeNode in="SourceGraphic"/></feMerge>
  </filter>

  <!-- Bloom: wide soft -->
  <filter id="bloomr1x716" x="-40%" y="-40%" width="180%" height="180%">
    <feGaussianBlur stdDeviation="11" result="b"/>
    <feMerge><feMergeNode in="b"/><feMergeNode in="SourceGraphic"/></feMerge>
  </filter>

  </defs><rect width="1000" height="1000" fill="url(#bgr1x716)"/><ellipse cx="500.0" cy="892.0" rx="350.0" ry="65.0" fill="rgba(0,0,0,.7)" filter="url(#bloomr1x716)"/><ellipse cx="500.0" cy="889.0" rx="220.0" ry="34.0" fill="rgba(0,0,0,.45)"/><ellipse cx="500.0" cy="520.0" rx="320.0" ry="480.0" fill="#ffffff" fill-opacity=".042" filter="url(#bloomr1x716)"/><circle cx="347.3" cy="198.7" r="1.3" fill="#ffffff" fill-opacity="0.40" filter="url(#glowr1x716)"/><circle cx="679.5" cy="607.9" r="2.6" fill="#ffffff" fill-opacity="0.41" filter="url(#glowr1x716)"/><circle cx="529.9" cy="350.3" r="4.0" fill="#ffffff" fill-opacity="0.75" filter="url(#glowr1x716)"/><circle cx="496.2" cy="663.7" r="2.9" fill="#ffffff" fill-opacity="0.83" filter="url(#glowr1x716)"/><circle cx="740.7" cy="659.7" r="1.4" fill="#ffffff" fill-opacity="0.58" filter="url(#glowr1x716)"/><circle cx="677.9" cy="233.0" r="2.7" fill="#ffffff" fill-opacity="0.78" filter="url(#glowr1x716)"/><circle cx="483.9" cy="551.6" r="0.5" fill="#ffffff" fill-opacity="0.55" filter="url(#glowr1x716)"/><circle cx="276.6" cy="362.9" r="1.7" fill="#ffffff" fill-opacity="0.54" filter="url(#glowr1x716)"/><circle cx="440.0" cy="373.3" r="2.4" fill="#ffffff" fill-opacity="0.55" filter="url(#glowr1x716)"/><circle cx="322.6" cy="368.1" r="3.7" fill="#ffffff" fill-opacity="0.69" filter="url(#glowr1x716)"/><circle cx="346.7" cy="376.7" r="3.4" fill="#ffffff" fill-opacity="0.75" filter="url(#glowr1x716)"/><circle cx="327.1" cy="257.0" r="3.4" fill="#ffffff" fill-opacity="0.79" filter="url(#glowr1x716)"/><circle cx="664.8" cy="566.1" r="4.0" fill="#ffffff" fill-opacity="0.81" filter="url(#glowr1x716)"/><circle cx="595.6" cy="772.9" r="1.2" fill="#ffffff" fill-opacity="0.75" filter="url(#glowr1x716)"/><polygon points="400.4,663.0 487.9,661.2 481.4,878.9 387.1,876.0" fill="url(#suitr1x716)" stroke="#00ff60" stroke-width="2.2" filter="url(#skr1x716) url(#metalr1x716)"/><polygon points="398.9,662.4 489.3,660.9 480.3,878.9 386.3,876.3" fill="url(#carbonr1x716)"/><polygon points="394.0,722.4 492.9,722.1 483.6,788.9 385.1,789.2" fill="url(#bevelr1x716)" fill-opacity=".5" stroke="#00ff60" stroke-width="1.4" filter="url(#skr1x716)"/><polygon points="509.6,663.9 601.1,662.2 611.8,877.7 520.1,877.4" fill="url(#suitr1x716)" stroke="#00ff60" stroke-width="2.2" filter="url(#skr1x716) url(#metalr1x716)"/><polygon points="509.3,662.5 601.3,663.9 611.7,879.2 520.9,877.3" fill="url(#carbonr1x716)"/><polygon points="506.9,724.4 608.1,724.8 616.1,789.1 516.5,788.1" fill="url(#bevelr1x716)" fill-opacity=".5" stroke="#00ff60" stroke-width="1.4" filter="url(#skr1x716)"/><rect x="392.1" y="838.2" width="100.3" height="24.7" fill="url(#bevelr1x716)" stroke="#00ff60" stroke-width="1" filter="url(#skr1x716)"/><rect x="508.3"  y="837.4" width="100.3" height="24.7" fill="url(#bevelr1x716)" stroke="#00ff60" stroke-width="1" filter="url(#skr1x716)"/><polygon points="368.5,878.4 495.5,877.4 504.3,922.7 361.0,921.8" fill="#00441e" stroke="#00ff60" stroke-width="2" filter="url(#skr1x716)"/><polygon points="504.2,877.0 631.2,877.5 638.7,920.2 497.3,922.2" fill="#00441e" stroke="#00ff60" stroke-width="2" filter="url(#skr1x716)"/><polygon points="303.1,633.3 696.4,631.6 637.6,681.8 361.7,680.5" fill="#00ff60" fill-opacity=".52" stroke="#00ff60" stroke-width="2" filter="url(#skr1x716)"/><rect x="462.3" y="639.8" width="72.0" height="42.0" fill="url(#bevelr1x716)" stroke="#00ff60" stroke-width="1.4" filter="url(#glowr1x716)"/><rect x="486.6" y="640.9" width="28.0" height="22.0" rx="1" fill="rgba(255,255,255,.48)"/><polygon points="153.4,466.4 235.8,467.6 257.6,734.1 127.6,734.1" fill="url(#suitr1x716)" stroke="#00ff60" stroke-width="2.2" filter="url(#skr1x716) url(#metalr1x716)"/><polygon points="172.2,433.1 251.6,430.8 242.6,512.1 161.2,512.2" fill="url(#bevelr1x716)" fill-opacity=".72" stroke="#00ff60" stroke-width="2.2" filter="url(#skr1x716)"/><polygon points="160.7,622.2 242.5,621.2 238.8,659.3 163.9,660.6" fill="#00ff60" fill-opacity=".42" stroke="#00ff60" stroke-width="1" filter="url(#skr1x716)"/><polygon points="763.6,466.7 846.9,468.2 870.8,735.1 741.0,736.2" fill="url(#suitr1x716)" stroke="#00ff60" stroke-width="2.2" filter="url(#skr1x716) url(#metalr1x716)"/><polygon points="748.5,433.1 825.6,431.3 841.7,509.7 757.7,510.4" fill="url(#bevelr1x716)" fill-opacity=".72" stroke="#00ff60" stroke-width="2.2" filter="url(#skr1x716)"/><polygon points="756.9,623.3 838.3,622.0 836.0,660.0 760.2,661.7" fill="#00ff60" fill-opacity=".42" stroke="#00ff60" stroke-width="1" filter="url(#skr1x716)"/><rect x="119.2"  y="700.3" width="135.3" height="85.0" rx="4" fill="url(#bevelr1x716)" stroke="#00ff60" stroke-width="1.8" filter="url(#skr1x716)"/><rect x="750.3"   y="700.1" width="135.3" height="85.0" rx="4" fill="url(#bevelr1x716)" stroke="#00ff60" stroke-width="1.8" filter="url(#skr1x716)"/><line x1="149.4" y1="701.9" x2="150.5" y2="785.3" stroke="#00ff60" stroke-opacity=".38" stroke-width="1"/><line x1="778.7" y1="700.3" x2="779.7" y2="782.8" stroke="#00ff60" stroke-opacity=".38" stroke-width="1"/><line x1="181.6" y1="700.2" x2="182.5" y2="782.8" stroke="#00ff60" stroke-opacity=".38" stroke-width="1"/><line x1="811.0" y1="700.5" x2="812.3" y2="782.1" stroke="#00ff60" stroke-opacity=".38" stroke-width="1"/><line x1="214.8" y1="701.0" x2="216.4" y2="784.7" stroke="#00ff60" stroke-opacity=".38" stroke-width="1"/><line x1="843.5" y1="701.8" x2="844.9" y2="785.1" stroke="#00ff60" stroke-opacity=".38" stroke-width="1"/><polygon points="235.3,416.2 766.2,418.5 721.3,663.0 277.9,663.7" fill="url(#suitr1x716)" stroke="#00ff60" stroke-width="2.6" filter="url(#skr1x716) url(#metalr1x716)"/><polygon points="236.3,419.1 766.2,416.4 723.2,662.2 277.8,662.8" fill="url(#carbonr1x716)"/><polygon points="367.0,416.3 632.4,416.8 609.6,515.7 389.6,515.5" fill="url(#suitHir1x716)"/><line x1="363.9" y1="472.1" x2="636.2" y2="472.3" stroke="#00ff60" stroke-opacity=".52" stroke-width="1.3" filter="url(#skr1x716)"/><line x1="400.6" y1="548.4" x2="601.7" y2="550.6" stroke="#00ff60" stroke-opacity=".52" stroke-width="1.3" filter="url(#skr1x716)"/><line x1="267.6" y1="489.7" x2="320.3" y2="492.0" stroke="#00ff60" stroke-opacity=".62" stroke-width="1.8"/><line x1="681.5" y1="492.8" x2="733.0" y2="492.7" stroke="#00ff60" stroke-opacity=".62" stroke-width="1.8"/><line x1="266.5" y1="521.7" x2="318.6" y2="523.5" stroke="#00ff60" stroke-opacity=".62" stroke-width="1.8"/><line x1="678.8" y1="522.0" x2="732.8" y2="521.3" stroke="#00ff60" stroke-opacity=".62" stroke-width="1.8"/><line x1="267.5" y1="553.9" x2="318.6" y2="555.7" stroke="#00ff60" stroke-opacity=".62" stroke-width="1.8"/><line x1="680.0" y1="554.6" x2="734.6" y2="555.3" stroke="#00ff60" stroke-opacity=".62" stroke-width="1.8"/><line x1="267.8" y1="585.4" x2="320.2" y2="585.4" stroke="#00ff60" stroke-opacity=".62" stroke-width="1.8"/><line x1="679.5" y1="584.9" x2="733.6" y2="585.6" stroke="#00ff60" stroke-opacity=".62" stroke-width="1.8"/><g filter="url(#glowr1x716)"><polygon points="499.0,454.0 543.5,511.4 499.5,568.6 459.1,510.4" fill="#00ff60" stroke="#0a0520" stroke-width="1.4" filter="url(#skr1x716)"/><polygon points="501.0,454.2 540.2,510.9 501.4,568.1 458.8,512.2" fill="url(#suitHir1x716)" opacity=".45"/></g><rect x="449.7036981093697" y="556.852511646971" width="100.0"  height="56.0" fill="#00441e" stroke="#00ff60" stroke-width="2.2" filter="url(#skr1x716)"/><rect x="422.64467344135045" y="574.1784214489162" width="152.0" height="26.0" fill="url(#bevelr1x716)" fill-opacity=".65" stroke="#00ff60" stroke-width="1.2" filter="url(#skr1x716)"/><polygon points="309.7,381.1 351.7,296.2 499.6,277.4 649.7,294.2 692.9,382.1 667.5,504.2 501.8,563.8 332.6,502.7" fill="url(#suitr1x716)" stroke="#00ff60" stroke-width="2.8" filter="url(#skr1x716) url(#metalr1x716)"/><polygon points="309.1,380.5 348.7,295.1 501.1,277.2 649.3,294.1 690.3,380.7 668.8,504.5 499.8,563.9 330.9,503.8" fill="url(#carbonr1x716)"/><polygon points="380.4,302.4 499.1,285.5 620.1,301.1 606.8,381.9 392.7,378.9" fill="url(#suitHir1x716)"/><polygon points="379.5,379.7 366.9,425.7 432.0,503.8 500.0,526.9 566.0,502.9 634.5,425.1 617.5,379.7" fill="#0a0520" fill-opacity=".88" stroke="#00ff60" stroke-width="1.8" filter="url(#skr1x716)"/><polygon points="382.1,410.4 475.2,411.8 483.3,438.4 387.3,440.5" fill="#00ff60" filter="url(#glowr1x716)"/><polygon points="522.1,412.5 618.3,409.9 609.6,439.9 515.7,440.8" fill="#00ff60" filter="url(#glowr1x716)"/><ellipse cx="430.9" cy="425.7" rx="38.4"  ry="8.2" fill="#ffffff" opacity=".88"/><ellipse cx="569.1" cy="425.7" rx="38.4"  ry="8.2" fill="#ffffff" opacity=".88"/><line x1="485.96783603854476" y1="413.6622581672855" x2="513.5676404970139" y2="412.2498640243895" stroke="#00ff60" stroke-opacity=".52" stroke-width="2"/><line x1="484.67807861981913" y1="438.88035744745287" x2="515.542678428106" y2="438.4228856312111" stroke="#00ff60" stroke-opacity=".52" stroke-width="2"/><line x1="500.1041697201319" y1="452.7328650474548" x2="500.0088432104327" y2="483.0203719299287" stroke="#00ff60" stroke-opacity=".58" stroke-width="2.2" filter="url(#skr1x716)"/><line x1="453.3138863451593" y1="490.16938539389514" x2="455.0138360890374" y2="521.2368242107332" stroke="#00ff60" stroke-opacity=".52" stroke-width="1.5" filter="url(#skr1x716)"/><line x1="477.26515455082057" y1="492.8134610098786" x2="477.6427040435746" y2="521.2822685654276" stroke="#00ff60" stroke-opacity=".52" stroke-width="1.5" filter="url(#skr1x716)"/><line x1="500.2800005717203" y1="492.2295961321331" x2="500.9896200957708" y2="518.3882988462225" stroke="#00ff60" stroke-opacity=".52" stroke-width="1.5" filter="url(#skr1x716)"/><line x1="522.561410126239" y1="490.2322736474685" x2="522.705886860527" y2="519.1684570098296" stroke="#00ff60" stroke-opacity=".52" stroke-width="1.5" filter="url(#skr1x716)"/><line x1="547.8123027686216" y1="489.9144977701827" x2="545.3245057231002" y2="519.1540140963159" stroke="#00ff60" stroke-opacity=".52" stroke-width="1.5" filter="url(#skr1x716)"/><polygon points="434.6,505.2 568.0,503.7 554.1,558.5 447.2,555.5" fill="#00441e" fill-opacity=".72" stroke="#00ff60" stroke-width="1.3" filter="url(#skr1x716)"/><polygon points="314.9,303.6 362.6,304.5 337.5,197.1" fill="url(#bevelr1x716)" fill-opacity=".95" stroke="#00ff60" stroke-width="1.6" filter="url(#skr1x716) url(#glowr1x716)"/><polygon points="395.2,305.7 442.6,303.0 420.5,208.0" fill="url(#bevelr1x716)" fill-opacity=".95" stroke="#00ff60" stroke-width="1.6" filter="url(#skr1x716) url(#glowr1x716)"/><polygon points="477.2,306.5 523.9,305.0 499.6,223.0" fill="url(#bevelr1x716)" fill-opacity=".95" stroke="#00ff60" stroke-width="1.6" filter="url(#skr1x716) url(#glowr1x716)"/><polygon points="556.7,304.8 602.3,303.2 581.8,207.0" fill="url(#bevelr1x716)" fill-opacity=".95" stroke="#00ff60" stroke-width="1.6" filter="url(#skr1x716) url(#glowr1x716)"/><polygon points="639.1,303.0 685.8,305.5 660.2,196.7" fill="url(#bevelr1x716)" fill-opacity=".95" stroke="#00ff60" stroke-width="1.6" filter="url(#skr1x716) url(#glowr1x716)"/><text x="30.0"  y="975.0" font-family="monospace" font-weight="bold" font-size="22.0" fill="rgba(255,255,255,.22)">#0001</text><text x="500.0"   y="975.0" text-anchor="middle" font-family="monospace" font-weight="bold" font-size="22.0" fill="#00ff60" fill-opacity=".48">VIPER RANGER</text><text x="970.0" y="975.0" text-anchor="end"    font-family="monospace" font-weight="bold" font-size="22.0" fill="#00ff60" fill-opacity=".32">MECH RANGERS</text></svg>