<svg xmlns="http://www.w3.org/2000/svg" viewBox="0 0 1000 1000" width="1000" height="1000" shape-rendering="geometricPrecision"><defs>

  <!-- Scene gradients -->
  <radialGradient id="bgr1x7175" cx="50%" cy="42%" r="72%">
    <stop offset="0%"   stop-color="#0e000e"/>
    <stop offset="100%" stop-color="#1e0600"/>
  </radialGradient>
  <linearGradient id="suitr1x7175" x1="8%" y1="0%" x2="92%" y2="100%">
    <stop offset="0%"   stop-color="#00ff60" stop-opacity=".95"/>
    <stop offset="45%"  stop-color="#00441e"/>
    <stop offset="100%" stop-color="#1e0600"/>
  </linearGradient>
  <linearGradient id="suitHir1x7175" x1="0%" y1="0%" x2="0%" y2="100%">
    <stop offset="0%"   stop-color="rgba(255,255,255,.28)"/>
    <stop offset="60%"  stop-color="rgba(255,255,255,.04)"/>
    <stop offset="100%" stop-color="rgba(255,255,255,0)"/>
  </linearGradient>
  <!-- Bevel: bright top, dark bottom for armour panels -->
  <linearGradient id="bevelr1x7175" x1="0%" y1="0%" x2="0%" y2="100%">
    <stop offset="0%"   stop-color="rgba(255,255,255,.55)"/>
    <stop offset="30%"  stop-color="#00ff60"/>
    <stop offset="70%"  stop-color="#00441e"/>
    <stop offset="100%" stop-color="rgba(0,0,0,.5)"/>
  </linearGradient>

  <!-- Weapon: cold steel blade sweep -->
  <linearGradient id="blader1x7175" x1="0%" y1="0%" x2="100%" y2="0%">
    <stop offset="0%"   stop-color="#0e0e20"/>
    <stop offset="16%"  stop-color="#3e3e58"/>
    <stop offset="34%"  stop-color="#c8c8e0"/>
    <stop offset="50%"  stop-color="#f5f5ff"/>
    <stop offset="66%"  stop-color="#b8b8d0"/>
    <stop offset="84%"  stop-color="#2e2e48"/>
    <stop offset="100%" stop-color="#08080e"/>
  </linearGradient>
  <!-- Blade tip brightening -->
  <linearGradient id="bladeTipr1x7175" x1="0%" y1="100%" x2="0%" y2="0%">
    <stop offset="0%"   stop-color="rgba(255,255,255,0)"/>
    <stop offset="55%"  stop-color="rgba(255,255,255,.1)"/>
    <stop offset="100%" stop-color="rgba(255,255,255,.55)"/>
  </linearGradient>
  <!-- Gunmetal anodised — blaster body -->
  <linearGradient id="gunmetalr1x7175" x1="0%" y1="0%" x2="0%" y2="100%">
    <stop offset="0%"   stop-color="#46465e"/>
    <stop offset="18%"  stop-color="#828296"/>
    <stop offset="42%"  stop-color="#26263a"/>
    <stop offset="72%"  stop-color="#16162a"/>
    <stop offset="100%" stop-color="#0c0c18"/>
  </linearGradient>
  <!-- Brushed steel tube — barrel/rod -->
  <linearGradient id="barrelr1x7175" x1="0%" y1="0%" x2="100%" y2="0%">
    <stop offset="0%"   stop-color="#0a0a14"/>
    <stop offset="24%"  stop-color="#585875"/>
    <stop offset="50%"  stop-color="#a8a8c8"/>
    <stop offset="76%"  stop-color="#383852"/>
    <stop offset="100%" stop-color="#0a0a14"/>
  </linearGradient>
  <!-- Chrome rod — lance shaft -->
  <linearGradient id="chromer1x7175" x1="0%" y1="0%" x2="100%" y2="0%">
    <stop offset="0%"   stop-color="#0c0c18"/>
    <stop offset="20%"  stop-color="#686888"/>
    <stop offset="44%"  stop-color="#e0e0f0"/>
    <stop offset="56%"  stop-color="#c0c0d8"/>
    <stop offset="80%"  stop-color="#28283e"/>
    <stop offset="100%" stop-color="#0c0c18"/>
  </linearGradient>
  <!-- Titanium plate — shield face -->
  <linearGradient id="titaniumr1x7175" x1="0%" y1="0%" x2="100%" y2="100%">
    <stop offset="0%"   stop-color="#585878"/>
    <stop offset="28%"  stop-color="#00ff60" stop-opacity=".88"/>
    <stop offset="55%"  stop-color="#00441e"/>
    <stop offset="80%"  stop-color="#181828"/>
    <stop offset="100%" stop-color="#0a0a18"/>
  </linearGradient>
  <!-- Artillery black-chrome — cannon body -->
  <linearGradient id="artilleryr1x7175" x1="0%" y1="0%" x2="0%" y2="100%">
    <stop offset="0%"   stop-color="#383850"/>
    <stop offset="14%"  stop-color="#78789a"/>
    <stop offset="36%"  stop-color="#202034"/>
    <stop offset="65%"  stop-color="#14141e"/>
    <stop offset="100%" stop-color="#0a0a12"/>
  </linearGradient>
  <!-- Energy orb — staff -->
  <radialGradient id="orbr1x7175" cx="35%" cy="35%" r="65%">
    <stop offset="0%"   stop-color="rgba(255,255,255,.9)"/>
    <stop offset="30%"  stop-color="#00ff60"/>
    <stop offset="68%"  stop-color="#00441e"/>
    <stop offset="100%" stop-color="rgba(0,0,0,.6)"/>
  </radialGradient>
  <!-- Knuckle plate chrome -->
  <linearGradient id="knuckler1x7175" x1="0%" y1="0%" x2="0%" y2="100%">
    <stop offset="0%"   stop-color="#888aaa"/>
    <stop offset="32%"  stop-color="#00ff60" stop-opacity=".8"/>
    <stop offset="62%"  stop-color="#1a1a2c"/>
    <stop offset="100%" stop-color="#0a0a14"/>
  </linearGradient>

  <!-- Carbon fibre weave texture overlay -->
  <pattern id="carbonr1x7175" width="6" height="6" patternUnits="userSpaceOnUse">
    <rect width="6" height="6" fill="rgba(0,0,0,.08)"/>
    <rect x="0" y="0" width="3" height="3" fill="rgba(255,255,255,.022)"/>
    <rect x="3" y="3" width="3" height="3" fill="rgba(255,255,255,.022)"/>
    <line x1="0" y1="0" x2="3" y2="3" stroke="rgba(255,255,255,.038)" stroke-width=".5"/>
    <line x1="3" y1="0" x2="6" y2="3" stroke="rgba(0,0,0,.055)"       stroke-width=".5"/>
    <line x1="0" y1="3" x2="3" y2="6" stroke="rgba(0,0,0,.055)"       stroke-width=".5"/>
    <line x1="3" y1="3" x2="6" y2="6" stroke="rgba(255,255,255,.038)" stroke-width=".5"/>
  </pattern>

  <!-- Specular metal sheen on armour panels -->
  <filter id="metalr1x7175" x="-5%" y="-5%" width="110%" height="110%">
    <feSpecularLighting surfaceScale="4" specularConstant="1.8"
        specularExponent="42" lighting-color="#ffffff" result="spec">
      <feDistantLight elevation="52" azimuth="38"/>
    </feSpecularLighting>
    <feComposite in="spec" in2="SourceGraphic" operator="in" result="sm"/>
    <feComposite in="SourceGraphic" in2="sm" operator="arithmetic" k1="0" k2="1" k3="0.55" k4="0"/>
  </filter>

  <!-- Sharper specular for weapons — heavier glare -->
  <filter id="wmr1x7175" x="-8%" y="-8%" width="116%" height="116%">
    <feSpecularLighting surfaceScale="6" specularConstant="2.4"
        specularExponent="65" lighting-color="#ffffff" result="spec">
      <feDistantLight elevation="44" azimuth="28"/>
    </feSpecularLighting>
    <feComposite in="spec" in2="SourceGraphic" operator="in" result="sm"/>
    <feComposite in="SourceGraphic" in2="sm" operator="arithmetic" k1="0" k2="1" k3="0.78" k4="0"/>
  </filter>

  <!-- Sketch wobble -->
  <filter id="skr1x7175" x="-8%" y="-8%" width="116%" height="116%">
    <feTurbulence type="fractalNoise" baseFrequency="0.038"
        numOctaves="3" seed="39" result="noise"/>
    <feDisplacementMap in="SourceGraphic" in2="noise" scale="2.6"
        xChannelSelector="R" yChannelSelector="G" result="w"/>
    <feComposite in="w" in2="SourceGraphic" operator="atop"/>
  </filter>

  <!-- Glow: sharp accent -->
  <filter id="glowr1x7175" x="-20%" y="-20%" width="140%" height="140%">
    <feGaussianBlur stdDeviation="3.5" result="b"/>
    <feColorMatrix in="b" type="matrix"
        values="0 0 0 0 1  0 0 0 0 1  0 0 0 0 1  0 0 0 1.8 0" result="boost"/>
    <feMerge><feMergeNode in="boost"/><feMergeNode in="SourceGraphic"/></feMerge>
  </filter>

  <!-- Bloom: wide soft -->
  <filter id="bloomr1x7175" x="-40%" y="-40%" width="180%" height="180%">
    <feGaussianBlur stdDeviation="11" result="b"/>
    <feMerge><feMergeNode in="b"/><feMergeNode in="SourceGraphic"/></feMerge>
  </filter>

  </defs><rect width="1000" height="1000" fill="url(#bgr1x7175)"/><ellipse cx="500.0" cy="1000" rx="850.0" ry="350.0" fill="#ff4500" fill-opacity=".11" filter="url(#bloomr1x7175)"/><ellipse cx="500.0" cy="892.0" rx="350.0" ry="65.0" fill="rgba(0,0,0,.7)" filter="url(#bloomr1x7175)"/><ellipse cx="500.0" cy="889.0" rx="220.0" ry="34.0" fill="rgba(0,0,0,.45)"/><ellipse cx="500.0" cy="520.0" rx="320.0" ry="480.0" fill="#ff00ff" fill-opacity=".042" filter="url(#bloomr1x7175)"/><circle cx="502.4" cy="429.9" r="3.7" fill="#ff00ff" fill-opacity="0.52" filter="url(#glowr1x7175)"/><circle cx="324.2" cy="386.9" r="4.1" fill="#ff00ff" fill-opacity="0.64" filter="url(#glowr1x7175)"/><circle cx="413.2" cy="699.3" r="3.8" fill="#ff00ff" fill-opacity="0.79" filter="url(#glowr1x7175)"/><circle cx="658.6" cy="702.0" r="3.0" fill="#ff00ff" fill-opacity="0.59" filter="url(#glowr1x7175)"/><circle cx="584.4" cy="637.2" r="3.3" fill="#ff00ff" fill-opacity="0.39" filter="url(#glowr1x7175)"/><circle cx="590.0" cy="310.2" r="1.5" fill="#ff00ff" fill-opacity="0.72" filter="url(#glowr1x7175)"/><circle cx="649.0" cy="443.2" r="1.0" fill="#ff00ff" fill-opacity="0.62" filter="url(#glowr1x7175)"/><circle cx="625.8" cy="404.1" r="1.4" fill="#ff00ff" fill-opacity="0.65" filter="url(#glowr1x7175)"/><circle cx="506.0" cy="234.4" r="0.6" fill="#ff00ff" fill-opacity="0.75" filter="url(#glowr1x7175)"/><circle cx="645.1" cy="742.7" r="1.3" fill="#ff00ff" fill-opacity="0.70" filter="url(#glowr1x7175)"/><circle cx="530.4" cy="453.1" r="2.9" fill="#ff00ff" fill-opacity="0.59" filter="url(#glowr1x7175)"/><circle cx="729.9" cy="670.6" r="0.9" fill="#ff00ff" fill-opacity="0.54" filter="url(#glowr1x7175)"/><circle cx="720.3" cy="596.8" r="2.0" fill="#ff00ff" fill-opacity="0.64" filter="url(#glowr1x7175)"/><circle cx="619.8" cy="730.9" r="0.8" fill="#ff00ff" fill-opacity="0.87" filter="url(#glowr1x7175)"/><path d="M539.9,189.1 Q579.6,517.1 467.1,801.1" stroke="#ff00ff" stroke-opacity="0.71" stroke-width="1.5" fill="none" filter="url(#glowr1x7175)"/><path d="M366.8,141.3 Q381.2,352.2 519.0,617.2" stroke="#ff00ff" stroke-opacity="0.62" stroke-width="1.8" fill="none" filter="url(#glowr1x7175)"/><path d="M414.9,279.3 Q371.6,471.4 593.9,642.2" stroke="#ff00ff" stroke-opacity="0.50" stroke-width="1.8" fill="none" filter="url(#glowr1x7175)"/><path d="M366.6,179.0 Q402.0,394.1 473.6,648.9" stroke="#ff00ff" stroke-opacity="0.41" stroke-width="1.4" fill="none" filter="url(#glowr1x7175)"/><path d="M558.9,254.4 Q522.0,517.1 382.8,769.1" stroke="#ff00ff" stroke-opacity="0.56" stroke-width="1.3" fill="none" filter="url(#glowr1x7175)"/><polygon points="399.0,661.9 488.6,661.2 479.0,877.8 386.7,878.3" fill="url(#suitr1x7175)" stroke="#00ff60" stroke-width="2.2" filter="url(#skr1x7175) url(#metalr1x7175)"/><polygon points="399.5,663.1 488.0,662.5 481.1,876.5 387.7,878.1" fill="url(#carbonr1x7175)"/><polygon points="391.9,723.6 494.0,722.4 483.3,789.2 385.0,788.9" fill="url(#bevelr1x7175)" fill-opacity=".5" stroke="#00ff60" stroke-width="1.4" filter="url(#skr1x7175)"/><polygon points="509.3,663.4 602.3,662.0 613.4,875.8 520.4,877.4" fill="url(#suitr1x7175)" stroke="#00ff60" stroke-width="2.2" filter="url(#skr1x7175) url(#metalr1x7175)"/><polygon points="509.6,664.3 601.1,664.2 612.8,879.3 518.5,877.1" fill="url(#carbonr1x7175)"/><polygon points="508.8,725.1 607.5,723.3 615.4,787.6 517.2,787.9" fill="url(#bevelr1x7175)" fill-opacity=".5" stroke="#00ff60" stroke-width="1.4" filter="url(#skr1x7175)"/><rect x="392.5" y="837.6" width="100.3" height="24.7" fill="url(#bevelr1x7175)" stroke="#00ff60" stroke-width="1" filter="url(#skr1x7175)"/><rect x="505.6"  y="838.7" width="100.3" height="24.7" fill="url(#bevelr1x7175)" stroke="#00ff60" stroke-width="1" filter="url(#skr1x7175)"/><polygon points="369.3,875.9 495.9,876.9 505.0,923.0 363.9,920.4" fill="#00441e" stroke="#00ff60" stroke-width="2" filter="url(#skr1x7175)"/><polygon points="505.2,877.2 630.9,876.8 636.2,920.3 495.5,920.7" fill="#00441e" stroke="#00ff60" stroke-width="2" filter="url(#skr1x7175)"/><polygon points="304.8,632.2 697.3,633.8 638.8,683.5 360.9,681.5" fill="#00ff60" fill-opacity=".52" stroke="#00ff60" stroke-width="2" filter="url(#skr1x7175)"/><rect x="462.5" y="636.8" width="72.0" height="42.0" fill="url(#bevelr1x7175)" stroke="#00ff60" stroke-width="1.4" filter="url(#glowr1x7175)"/><rect x="487.1" y="642.2" width="28.0" height="22.0" rx="1" fill="rgba(255,255,255,.48)"/><polygon points="153.4,465.6 235.8,468.0 256.4,733.5 128.3,735.6" fill="url(#suitr1x7175)" stroke="#00ff60" stroke-width="2.2" filter="url(#skr1x7175) url(#metalr1x7175)"/><polygon points="172.6,431.4 252.5,433.2 241.7,512.0 159.0,511.5" fill="url(#bevelr1x7175)" fill-opacity=".72" stroke="#00ff60" stroke-width="2.2" filter="url(#skr1x7175)"/><polygon points="162.6,623.2 241.9,622.5 240.3,660.3 165.4,660.7" fill="#00ff60" fill-opacity=".42" stroke="#00ff60" stroke-width="1" filter="url(#skr1x7175)"/><polygon points="763.9,467.6 848.6,467.8 871.5,734.2 742.3,736.4" fill="url(#suitr1x7175)" stroke="#00ff60" stroke-width="2.2" filter="url(#skr1x7175) url(#metalr1x7175)"/><polygon points="746.4,430.9 826.5,431.3 841.6,510.7 755.6,511.6" fill="url(#bevelr1x7175)" fill-opacity=".72" stroke="#00ff60" stroke-width="2.2" filter="url(#skr1x7175)"/><polygon points="755.0,620.2 839.4,621.5 833.0,661.2 760.1,662.0" fill="#00ff60" fill-opacity=".42" stroke="#00ff60" stroke-width="1" filter="url(#skr1x7175)"/><rect x="119.0"  y="699.7" width="135.3" height="85.0" rx="4" fill="url(#bevelr1x7175)" stroke="#00ff60" stroke-width="1.8" filter="url(#skr1x7175)"/><rect x="747.6"   y="701.0" width="135.3" height="85.0" rx="4" fill="url(#bevelr1x7175)" stroke="#00ff60" stroke-width="1.8" filter="url(#skr1x7175)"/><line x1="148.5" y1="703.5" x2="149.0" y2="783.8" stroke="#00ff60" stroke-opacity=".38" stroke-width="1"/><line x1="777.2" y1="703.2" x2="778.8" y2="785.4" stroke="#00ff60" stroke-opacity=".38" stroke-width="1"/><line x1="182.3" y1="702.4" x2="180.8" y2="785.0" stroke="#00ff60" stroke-opacity=".38" stroke-width="1"/><line x1="809.2" y1="702.3" x2="812.3" y2="783.3" stroke="#00ff60" stroke-opacity=".38" stroke-width="1"/><line x1="215.1" y1="702.5" x2="213.5" y2="783.8" stroke="#00ff60" stroke-opacity=".38" stroke-width="1"/><line x1="845.5" y1="700.7" x2="842.3" y2="782.3" stroke="#00ff60" stroke-opacity=".38" stroke-width="1"/><polygon points="234.3,417.6 763.6,415.8 722.6,662.4 276.4,663.5" fill="url(#suitr1x7175)" stroke="#00ff60" stroke-width="2.6" filter="url(#skr1x7175) url(#metalr1x7175)"/><polygon points="235.1,419.3 766.2,416.4 721.1,662.4 275.9,662.4" fill="url(#carbonr1x7175)"/><polygon points="365.9,418.9 633.4,416.1 611.8,516.4 387.0,515.0" fill="url(#suitHir1x7175)"/><line x1="363.9" y1="470.6" x2="636.7" y2="470.2" stroke="#00ff60" stroke-opacity=".52" stroke-width="1.3" filter="url(#skr1x7175)"/><line x1="398.8" y1="548.8" x2="600.0" y2="549.8" stroke="#00ff60" stroke-opacity=".52" stroke-width="1.3" filter="url(#skr1x7175)"/><line x1="265.1" y1="491.9" x2="321.2" y2="490.2" stroke="#00ff60" stroke-opacity=".62" stroke-width="1.8"/><line x1="679.2" y1="492.7" x2="732.5" y2="491.8" stroke="#00ff60" stroke-opacity=".62" stroke-width="1.8"/><line x1="265.6" y1="521.6" x2="320.1" y2="521.3" stroke="#00ff60" stroke-opacity=".62" stroke-width="1.8"/><line x1="680.0" y1="523.0" x2="734.8" y2="521.9" stroke="#00ff60" stroke-opacity=".62" stroke-width="1.8"/><line x1="268.1" y1="553.6" x2="320.6" y2="555.1" stroke="#00ff60" stroke-opacity=".62" stroke-width="1.8"/><line x1="679.8" y1="553.8" x2="731.5" y2="554.7" stroke="#00ff60" stroke-opacity=".62" stroke-width="1.8"/><line x1="268.3" y1="585.1" x2="321.4" y2="587.2" stroke="#00ff60" stroke-opacity=".62" stroke-width="1.8"/><line x1="681.6" y1="586.8" x2="732.2" y2="585.7" stroke="#00ff60" stroke-opacity=".62" stroke-width="1.8"/><g filter="url(#glowr1x7175)"><polygon points="501.2,453.6 542.6,511.6 501.0,567.3 459.2,509.3" fill="#00ff60" stroke="#1e0600" stroke-width="1.4" filter="url(#skr1x7175)"/><polygon points="499.4,452.6 540.5,510.4 500.6,568.1 458.5,510.3" fill="url(#suitHir1x7175)" opacity=".45"/></g><g><rect x="837.875937911924" y="398.18818897642194" width="175.0" height="118.0" rx="7" fill="url(#artilleryr1x7175)" stroke="#00ff60" stroke-width="2.6" filter="url(#wmr1x7175)"/><rect x="839.5161883148924" y="395.020757933706" width="175.0" height="118.0" rx="7" fill="url(#carbonr1x7175)"/><rect x="982.8081035559625" y="449.18732834355905" width="78.0" height="32.0" rx="6" fill="url(#barrelr1x7175)" stroke="#00ff60" stroke-width="1.4" filter="url(#wmr1x7175)"/><circle cx="881.6323826430925" cy="469.98461824171244" r="48.0" fill="rgba(0,0,0,.55)" stroke="#00ff60" stroke-width="2" filter="url(#wmr1x7175)"/><circle cx="880.9900012425707" cy="469.8128972048871" r="34.0" fill="#00ff60" fill-opacity=".4" filter="url(#bloomr1x7175)"/><circle cx="880.6764255931229" cy="471.92469740128143" r="18.0" fill="#00ff60" filter="url(#glowr1x7175)"/><rect x="843.6652684340812" y="380.16665005125105" width="100.0" height="18.0" rx="2" fill="url(#bevelr1x7175)" stroke="#00ff60" stroke-width="1" filter="url(#wmr1x7175)"/><rect x="839.4213748004846" y="399.81806677021086" width="120.0" height="12.0" rx="3" fill="rgba(255,255,255,.2)"/><line x1="849.2655945314654" y1="520.92322684573" x2="848.6272235815973" y2="550.4325455267914" stroke="#00ff60" stroke-opacity=".6" stroke-width="2"/><line x1="872.9947451254912" y1="520.400852666609" x2="871.8579403539748" y2="547.9780994160101" stroke="#00ff60" stroke-opacity=".6" stroke-width="2"/><line x1="895.8348207348586" y1="519.045792545192" x2="894.5247844690085" y2="549.9582163328305" stroke="#00ff60" stroke-opacity=".6" stroke-width="2"/><line x1="918.0935206050613" y1="520.9802758238278" x2="920.986004564874" y2="550.1277589205653" stroke="#00ff60" stroke-opacity=".6" stroke-width="2"/></g><rect x="448.3699981676415" y="557.7204438625835" width="100.0"  height="56.0" fill="#00441e" stroke="#00ff60" stroke-width="2.2" filter="url(#skr1x7175)"/><rect x="425.3715661842376" y="575.877233359497" width="152.0" height="26.0" fill="url(#bevelr1x7175)" fill-opacity=".65" stroke="#00ff60" stroke-width="1.2" filter="url(#skr1x7175)"/><polygon points="307.1,381.7 349.5,293.9 499.7,278.8 650.8,295.9 692.7,382.2 667.9,502.3 500.5,564.4 329.9,505.0" fill="url(#suitr1x7175)" stroke="#00ff60" stroke-width="2.8" filter="url(#skr1x7175) url(#metalr1x7175)"/><polygon points="308.9,381.4 350.9,296.2 499.7,278.2 651.3,294.6 693.4,382.1 669.9,502.2 499.3,563.3 330.7,504.7" fill="url(#carbonr1x7175)"/><polygon points="379.8,301.6 499.5,285.4 619.6,302.4 608.9,378.9 393.8,379.4" fill="url(#suitHir1x7175)"/><polygon points="382.5,379.9 366.0,426.4 432.9,504.9 500.2,529.0 566.0,503.4 633.9,424.4 617.3,381.6" fill="#1e0600" fill-opacity=".88" stroke="#00ff60" stroke-width="1.8" filter="url(#skr1x7175)"/><polygon points="379.9,411.8 475.2,411.6 486.4,439.9 388.2,440.8" fill="#00ff60" filter="url(#glowr1x7175)"/><polygon points="523.0,412.5 619.9,410.1 613.0,438.9 515.1,438.9" fill="#00ff60" filter="url(#glowr1x7175)"/><ellipse cx="430.9" cy="425.7" rx="38.4"  ry="8.2" fill="#ffffff" opacity=".88"/><ellipse cx="569.1" cy="425.7" rx="38.4"  ry="8.2" fill="#ffffff" opacity=".88"/><line x1="482.86628745548427" y1="414.66828508498145" x2="514.0411877231114" y2="413.76099872337653" stroke="#00ff60" stroke-opacity=".52" stroke-width="2"/><line x1="485.7066346414946" y1="437.6852209925652" x2="515.695530284606" y2="437.9024049810134" stroke="#00ff60" stroke-opacity=".52" stroke-width="2"/><line x1="501.5025187152438" y1="455.12702929936347" x2="498.3252127889544" y2="482.3990702078678" stroke="#00ff60" stroke-opacity=".58" stroke-width="2.2" filter="url(#skr1x7175)"/><line x1="454.5627443142981" y1="492.0443040958605" x2="452.29110123615715" y2="521.4484270150773" stroke="#00ff60" stroke-opacity=".52" stroke-width="1.5" filter="url(#skr1x7175)"/><line x1="478.70988634269685" y1="490.66083987718446" x2="476.20774065157394" y2="518.4075190262869" stroke="#00ff60" stroke-opacity=".52" stroke-width="1.5" filter="url(#skr1x7175)"/><line x1="501.7636563209817" y1="491.5935095400549" x2="499.5066350764595" y2="521.1336520468816" stroke="#00ff60" stroke-opacity=".52" stroke-width="1.5" filter="url(#skr1x7175)"/><line x1="522.9115330905281" y1="490.69267734782767" x2="524.2076354163326" y2="518.8066918091848" stroke="#00ff60" stroke-opacity=".52" stroke-width="1.5" filter="url(#skr1x7175)"/><line x1="545.0006063743681" y1="490.9507817657664" x2="545.6804544084893" y2="518.7180324513465" stroke="#00ff60" stroke-opacity=".52" stroke-width="1.5" filter="url(#skr1x7175)"/><polygon points="432.9,503.9 568.6,502.4 552.0,556.1 446.0,558.2" fill="#00441e" fill-opacity=".72" stroke="#00ff60" stroke-width="1.3" filter="url(#skr1x7175)"/><text x="30.0"  y="975.0" font-family="monospace" font-weight="bold" font-size="22.0" fill="rgba(255,255,255,.22)">#0001</text><text x="500.0"   y="975.0" text-anchor="middle" font-family="monospace" font-weight="bold" font-size="22.0" fill="#00ff60" fill-opacity=".48">VIPER RANGER</text><text x="970.0" y="975.0" text-anchor="end"    font-family="monospace" font-weight="bold" font-size="22.0" fill="#00ff60" fill-opacity=".32">MECH RANGERS</text></svg>