<svg xmlns="http://www.w3.org/2000/svg" viewBox="0 0 1000 1000" width="1000" height="1000" shape-rendering="geometricPrecision"><defs>

  <!-- Scene gradients -->
  <radialGradient id="bgr1x7185" cx="50%" cy="42%" r="72%">
    <stop offset="0%"   stop-color="#0a1420"/>
    <stop offset="100%" stop-color="#050d14"/>
  </radialGradient>
  <linearGradient id="suitr1x7185" x1="8%" y1="0%" x2="92%" y2="100%">
    <stop offset="0%"   stop-color="#00ff60" stop-opacity=".95"/>
    <stop offset="45%"  stop-color="#00441e"/>
    <stop offset="100%" stop-color="#050d14"/>
  </linearGradient>
  <linearGradient id="suitHir1x7185" x1="0%" y1="0%" x2="0%" y2="100%">
    <stop offset="0%"   stop-color="rgba(255,255,255,.28)"/>
    <stop offset="60%"  stop-color="rgba(255,255,255,.04)"/>
    <stop offset="100%" stop-color="rgba(255,255,255,0)"/>
  </linearGradient>
  <!-- Bevel: bright top, dark bottom for armour panels -->
  <linearGradient id="bevelr1x7185" x1="0%" y1="0%" x2="0%" y2="100%">
    <stop offset="0%"   stop-color="rgba(255,255,255,.55)"/>
    <stop offset="30%"  stop-color="#00ff60"/>
    <stop offset="70%"  stop-color="#00441e"/>
    <stop offset="100%" stop-color="rgba(0,0,0,.5)"/>
  </linearGradient>

  <!-- Weapon: cold steel blade sweep -->
  <linearGradient id="blader1x7185" x1="0%" y1="0%" x2="100%" y2="0%">
    <stop offset="0%"   stop-color="#0e0e20"/>
    <stop offset="16%"  stop-color="#3e3e58"/>
    <stop offset="34%"  stop-color="#c8c8e0"/>
    <stop offset="50%"  stop-color="#f5f5ff"/>
    <stop offset="66%"  stop-color="#b8b8d0"/>
    <stop offset="84%"  stop-color="#2e2e48"/>
    <stop offset="100%" stop-color="#08080e"/>
  </linearGradient>
  <!-- Blade tip brightening -->
  <linearGradient id="bladeTipr1x7185" x1="0%" y1="100%" x2="0%" y2="0%">
    <stop offset="0%"   stop-color="rgba(255,255,255,0)"/>
    <stop offset="55%"  stop-color="rgba(255,255,255,.1)"/>
    <stop offset="100%" stop-color="rgba(255,255,255,.55)"/>
  </linearGradient>
  <!-- Gunmetal anodised — blaster body -->
  <linearGradient id="gunmetalr1x7185" x1="0%" y1="0%" x2="0%" y2="100%">
    <stop offset="0%"   stop-color="#46465e"/>
    <stop offset="18%"  stop-color="#828296"/>
    <stop offset="42%"  stop-color="#26263a"/>
    <stop offset="72%"  stop-color="#16162a"/>
    <stop offset="100%" stop-color="#0c0c18"/>
  </linearGradient>
  <!-- Brushed steel tube — barrel/rod -->
  <linearGradient id="barrelr1x7185" x1="0%" y1="0%" x2="100%" y2="0%">
    <stop offset="0%"   stop-color="#0a0a14"/>
    <stop offset="24%"  stop-color="#585875"/>
    <stop offset="50%"  stop-color="#a8a8c8"/>
    <stop offset="76%"  stop-color="#383852"/>
    <stop offset="100%" stop-color="#0a0a14"/>
  </linearGradient>
  <!-- Chrome rod — lance shaft -->
  <linearGradient id="chromer1x7185" x1="0%" y1="0%" x2="100%" y2="0%">
    <stop offset="0%"   stop-color="#0c0c18"/>
    <stop offset="20%"  stop-color="#686888"/>
    <stop offset="44%"  stop-color="#e0e0f0"/>
    <stop offset="56%"  stop-color="#c0c0d8"/>
    <stop offset="80%"  stop-color="#28283e"/>
    <stop offset="100%" stop-color="#0c0c18"/>
  </linearGradient>
  <!-- Titanium plate — shield face -->
  <linearGradient id="titaniumr1x7185" x1="0%" y1="0%" x2="100%" y2="100%">
    <stop offset="0%"   stop-color="#585878"/>
    <stop offset="28%"  stop-color="#00ff60" stop-opacity=".88"/>
    <stop offset="55%"  stop-color="#00441e"/>
    <stop offset="80%"  stop-color="#181828"/>
    <stop offset="100%" stop-color="#0a0a18"/>
  </linearGradient>
  <!-- Artillery black-chrome — cannon body -->
  <linearGradient id="artilleryr1x7185" x1="0%" y1="0%" x2="0%" y2="100%">
    <stop offset="0%"   stop-color="#383850"/>
    <stop offset="14%"  stop-color="#78789a"/>
    <stop offset="36%"  stop-color="#202034"/>
    <stop offset="65%"  stop-color="#14141e"/>
    <stop offset="100%" stop-color="#0a0a12"/>
  </linearGradient>
  <!-- Energy orb — staff -->
  <radialGradient id="orbr1x7185" cx="35%" cy="35%" r="65%">
    <stop offset="0%"   stop-color="rgba(255,255,255,.9)"/>
    <stop offset="30%"  stop-color="#00ff60"/>
    <stop offset="68%"  stop-color="#00441e"/>
    <stop offset="100%" stop-color="rgba(0,0,0,.6)"/>
  </radialGradient>
  <!-- Knuckle plate chrome -->
  <linearGradient id="knuckler1x7185" x1="0%" y1="0%" x2="0%" y2="100%">
    <stop offset="0%"   stop-color="#888aaa"/>
    <stop offset="32%"  stop-color="#00ff60" stop-opacity=".8"/>
    <stop offset="62%"  stop-color="#1a1a2c"/>
    <stop offset="100%" stop-color="#0a0a14"/>
  </linearGradient>

  <!-- Carbon fibre weave texture overlay -->
  <pattern id="carbonr1x7185" width="6" height="6" patternUnits="userSpaceOnUse">
    <rect width="6" height="6" fill="rgba(0,0,0,.08)"/>
    <rect x="0" y="0" width="3" height="3" fill="rgba(255,255,255,.022)"/>
    <rect x="3" y="3" width="3" height="3" fill="rgba(255,255,255,.022)"/>
    <line x1="0" y1="0" x2="3" y2="3" stroke="rgba(255,255,255,.038)" stroke-width=".5"/>
    <line x1="3" y1="0" x2="6" y2="3" stroke="rgba(0,0,0,.055)"       stroke-width=".5"/>
    <line x1="0" y1="3" x2="3" y2="6" stroke="rgba(0,0,0,.055)"       stroke-width=".5"/>
    <line x1="3" y1="3" x2="6" y2="6" stroke="rgba(255,255,255,.038)" stroke-width=".5"/>
  </pattern>

  <!-- Specular metal sheen on armour panels -->
  <filter id="metalr1x7185" x="-5%" y="-5%" width="110%" height="110%">
    <feSpecularLighting surfaceScale="4" specularConstant="1.8"
        specularExponent="42" lighting-color="#ffffff" result="spec">
      <feDistantLight elevation="52" azimuth="38"/>
    </feSpecularLighting>
    <feComposite in="spec" in2="SourceGraphic" operator="in" result="sm"/>
    <feComposite in="SourceGraphic" in2="sm" operator="arithmetic" k1="0" k2="1" k3="0.55" k4="0"/>
  </filter>

  <!-- Sharper specular for weapons — heavier glare -->
  <filter id="wmr1x7185" x="-8%" y="-8%" width="116%" height="116%">
    <feSpecularLighting surfaceScale="6" specularConstant="2.4"
        specularExponent="65" lighting-color="#ffffff" result="spec">
      <feDistantLight elevation="44" azimuth="28"/>
    </feSpecularLighting>
    <feComposite in="spec" in2="SourceGraphic" operator="in" result="sm"/>
    <feComposite in="SourceGraphic" in2="sm" operator="arithmetic" k1="0" k2="1" k3="0.78" k4="0"/>
  </filter>

  <!-- Sketch wobble -->
  <filter id="skr1x7185" x="-8%" y="-8%" width="116%" height="116%">
    <feTurbulence type="fractalNoise" baseFrequency="0.038"
        numOctaves="3" seed="94" result="noise"/>
    <feDisplacementMap in="SourceGraphic" in2="noise" scale="2.6"
        xChannelSelector="R" yChannelSelector="G" result="w"/>
    <feComposite in="w" in2="SourceGraphic" operator="atop"/>
  </filter>

  <!-- Glow: sharp accent -->
  <filter id="glowr1x7185" x="-20%" y="-20%" width="140%" height="140%">
    <feGaussianBlur stdDeviation="3.5" result="b"/>
    <feColorMatrix in="b" type="matrix"
        values="0 0 0 0 1  0 0 0 0 1  0 0 0 0 1  0 0 0 1.8 0" result="boost"/>
    <feMerge><feMergeNode in="boost"/><feMergeNode in="SourceGraphic"/></feMerge>
  </filter>

  <!-- Bloom: wide soft -->
  <filter id="bloomr1x7185" x="-40%" y="-40%" width="180%" height="180%">
    <feGaussianBlur stdDeviation="11" result="b"/>
    <feMerge><feMergeNode in="b"/><feMergeNode in="SourceGraphic"/></feMerge>
  </filter>

  </defs><rect width="1000" height="1000" fill="url(#bgr1x7185)"/><polygon points="325.65941632259637,68.71674842666835 337.4682890046388,35.815090456046164 366.4534925278276,57.126947082579136" fill="#00ff60" fill-opacity=".055" stroke="#00ff60" stroke-opacity=".1" stroke-width="1"/><polygon points="731.3378572417423,291.45145402289927 748.2756368378177,240.50639355368912 775.9021517150104,278.228178396821" fill="#00ff60" fill-opacity=".055" stroke="#00ff60" stroke-opacity=".1" stroke-width="1"/><polygon points="83.67239816579968,224.78192732203752 121.0068363957107,173.44919597543776 128.14399367477745,219.472508947365" fill="#00ff60" fill-opacity=".055" stroke="#00ff60" stroke-opacity=".1" stroke-width="1"/><polygon points="609.3989112507552,26.090292325243354 637.1405646884814,-5.794219870120287 658.5724376030266,38.401400838047266" fill="#00ff60" fill-opacity=".055" stroke="#00ff60" stroke-opacity=".1" stroke-width="1"/><polygon points="693.9670466724783,175.3987766848877 699.6436752313748,146.07010872848332 723.0969090694562,171.7712019942701" fill="#00ff60" fill-opacity=".055" stroke="#00ff60" stroke-opacity=".1" stroke-width="1"/><polygon points="532.9855826729909,110.68643603473902 559.2191901830956,68.21716555207968 580.2921806024387,108.76174322329462" fill="#00ff60" fill-opacity=".055" stroke="#00ff60" stroke-opacity=".1" stroke-width="1"/><polygon points="502.7763818902895,79.90240346640348 534.6260766712949,44.999084196053445 544.2707422357053,77.30172255542129" fill="#00ff60" fill-opacity=".055" stroke="#00ff60" stroke-opacity=".1" stroke-width="1"/><polygon points="169.15072870906442,399.0504695661366 205.692281791009,357.48127337824553 218.02382583543658,397.77488755993545" fill="#00ff60" fill-opacity=".055" stroke="#00ff60" stroke-opacity=".1" stroke-width="1"/><ellipse cx="500.0" cy="892.0" rx="350.0" ry="65.0" fill="rgba(0,0,0,.7)" filter="url(#bloomr1x7185)"/><ellipse cx="500.0" cy="889.0" rx="220.0" ry="34.0" fill="rgba(0,0,0,.45)"/><ellipse cx="500.0" cy="520.0" rx="320.0" ry="480.0" fill="#00e5ff" fill-opacity=".042" filter="url(#bloomr1x7185)"/><circle cx="613.6" cy="269.8" r="1.8" fill="#00e5ff" fill-opacity="0.50" filter="url(#glowr1x7185)"/><circle cx="428.5" cy="671.4" r="0.8" fill="#00e5ff" fill-opacity="0.54" filter="url(#glowr1x7185)"/><circle cx="536.4" cy="288.6" r="3.0" fill="#00e5ff" fill-opacity="0.46" filter="url(#glowr1x7185)"/><circle cx="473.7" cy="238.8" r="3.2" fill="#00e5ff" fill-opacity="0.64" filter="url(#glowr1x7185)"/><circle cx="629.9" cy="663.6" r="1.2" fill="#00e5ff" fill-opacity="0.74" filter="url(#glowr1x7185)"/><circle cx="710.7" cy="725.6" r="4.0" fill="#00e5ff" fill-opacity="0.47" filter="url(#glowr1x7185)"/><circle cx="514.5" cy="532.8" r="3.2" fill="#00e5ff" fill-opacity="0.46" filter="url(#glowr1x7185)"/><circle cx="486.7" cy="316.7" r="0.6" fill="#00e5ff" fill-opacity="0.65" filter="url(#glowr1x7185)"/><circle cx="452.8" cy="747.2" r="0.6" fill="#00e5ff" fill-opacity="0.80" filter="url(#glowr1x7185)"/><circle cx="675.5" cy="450.3" r="1.6" fill="#00e5ff" fill-opacity="0.53" filter="url(#glowr1x7185)"/><circle cx="343.4" cy="241.5" r="0.8" fill="#00e5ff" fill-opacity="0.43" filter="url(#glowr1x7185)"/><circle cx="742.0" cy="396.0" r="0.8" fill="#00e5ff" fill-opacity="0.57" filter="url(#glowr1x7185)"/><circle cx="349.2" cy="494.6" r="1.4" fill="#00e5ff" fill-opacity="0.38" filter="url(#glowr1x7185)"/><circle cx="322.1" cy="596.2" r="0.5" fill="#00e5ff" fill-opacity="0.77" filter="url(#glowr1x7185)"/><path d="M661.3,328.8 Q680.0,550.0 623.2,764.2" stroke="#00e5ff" stroke-opacity="0.43" stroke-width="0.9" fill="none" filter="url(#glowr1x7185)"/><path d="M510.7,242.8 Q511.1,532.1 319.2,781.6" stroke="#00e5ff" stroke-opacity="0.44" stroke-width="1.1" fill="none" filter="url(#glowr1x7185)"/><path d="M644.7,225.7 Q680.6,512.0 566.3,847.2" stroke="#00e5ff" stroke-opacity="0.43" stroke-width="2.3" fill="none" filter="url(#glowr1x7185)"/><path d="M477.7,346.2 Q481.8,524.7 358.9,721.3" stroke="#00e5ff" stroke-opacity="0.75" stroke-width="0.7" fill="none" filter="url(#glowr1x7185)"/><path d="M509.5,271.6 Q544.1,576.8 611.0,885.8" stroke="#00e5ff" stroke-opacity="0.63" stroke-width="2.1" fill="none" filter="url(#glowr1x7185)"/><polygon points="398.4,660.9 491.0,663.4 480.3,876.5 385.7,879.1" fill="url(#suitr1x7185)" stroke="#00ff60" stroke-width="2.2" filter="url(#skr1x7185) url(#metalr1x7185)"/><polygon points="398.9,664.0 488.2,661.0 481.7,877.7 385.7,875.8" fill="url(#carbonr1x7185)"/><polygon points="393.8,724.3 494.2,724.2 484.5,789.6 385.4,789.3" fill="url(#bevelr1x7185)" fill-opacity=".5" stroke="#00ff60" stroke-width="1.4" filter="url(#skr1x7185)"/><polygon points="509.5,663.0 600.6,661.5 611.6,875.9 520.4,878.0" fill="url(#suitr1x7185)" stroke="#00ff60" stroke-width="2.2" filter="url(#skr1x7185) url(#metalr1x7185)"/><polygon points="509.5,662.9 600.0,661.0 612.4,877.7 520.8,877.2" fill="url(#carbonr1x7185)"/><polygon points="506.1,723.5 606.0,725.2 617.9,788.1 515.7,787.4" fill="url(#bevelr1x7185)" fill-opacity=".5" stroke="#00ff60" stroke-width="1.4" filter="url(#skr1x7185)"/><rect x="393.1" y="838.2" width="100.3" height="24.7" fill="url(#bevelr1x7185)" stroke="#00ff60" stroke-width="1" filter="url(#skr1x7185)"/><rect x="508.6"  y="838.8" width="100.3" height="24.7" fill="url(#bevelr1x7185)" stroke="#00ff60" stroke-width="1" filter="url(#skr1x7185)"/><polygon points="369.2,876.3 495.5,875.7 502.5,921.8 363.6,921.4" fill="#00441e" stroke="#00ff60" stroke-width="2" filter="url(#skr1x7185)"/><polygon points="502.3,875.7 630.3,878.6 638.9,922.6 497.9,921.7" fill="#00441e" stroke="#00ff60" stroke-width="2" filter="url(#skr1x7185)"/><polygon points="304.1,632.4 694.6,632.4 637.9,683.3 363.8,681.7" fill="#00ff60" fill-opacity=".52" stroke="#00ff60" stroke-width="2" filter="url(#skr1x7185)"/><rect x="462.4" y="638.8" width="72.0" height="42.0" fill="url(#bevelr1x7185)" stroke="#00ff60" stroke-width="1.4" filter="url(#glowr1x7185)"/><rect x="484.6" y="638.9" width="28.0" height="22.0" rx="1" fill="rgba(255,255,255,.48)"/><polygon points="151.5,465.8 234.8,466.2 259.1,733.8 129.1,734.0" fill="url(#suitr1x7185)" stroke="#00ff60" stroke-width="2.2" filter="url(#skr1x7185) url(#metalr1x7185)"/><polygon points="172.2,430.5 252.5,433.8 242.6,511.9 158.5,509.2" fill="url(#bevelr1x7185)" fill-opacity=".72" stroke="#00ff60" stroke-width="2.2" filter="url(#skr1x7185)"/><polygon points="161.6,622.8 243.6,621.8 240.4,661.3 166.7,662.5" fill="#00ff60" fill-opacity=".42" stroke="#00ff60" stroke-width="1" filter="url(#skr1x7185)"/><polygon points="766.7,466.2 846.5,466.7 870.7,735.4 741.3,735.8" fill="url(#suitr1x7185)" stroke="#00ff60" stroke-width="2.2" filter="url(#skr1x7185) url(#metalr1x7185)"/><polygon points="747.4,433.0 826.2,430.9 839.6,509.9 755.5,509.6" fill="url(#bevelr1x7185)" fill-opacity=".72" stroke="#00ff60" stroke-width="2.2" filter="url(#skr1x7185)"/><polygon points="755.7,622.8 837.1,620.8 833.5,661.8 760.1,660.1" fill="#00ff60" fill-opacity=".42" stroke="#00ff60" stroke-width="1" filter="url(#skr1x7185)"/><rect x="120.3"  y="698.2" width="135.3" height="85.0" rx="4" fill="url(#bevelr1x7185)" stroke="#00ff60" stroke-width="1.8" filter="url(#skr1x7185)"/><rect x="748.3"   y="701.2" width="135.3" height="85.0" rx="4" fill="url(#bevelr1x7185)" stroke="#00ff60" stroke-width="1.8" filter="url(#skr1x7185)"/><line x1="148.1" y1="700.1" x2="149.2" y2="783.5" stroke="#00ff60" stroke-opacity=".38" stroke-width="1"/><line x1="777.8" y1="700.7" x2="777.0" y2="784.4" stroke="#00ff60" stroke-opacity=".38" stroke-width="1"/><line x1="181.1" y1="701.7" x2="181.4" y2="783.5" stroke="#00ff60" stroke-opacity=".38" stroke-width="1"/><line x1="811.9" y1="703.2" x2="810.2" y2="782.5" stroke="#00ff60" stroke-opacity=".38" stroke-width="1"/><line x1="215.1" y1="701.5" x2="215.5" y2="783.8" stroke="#00ff60" stroke-opacity=".38" stroke-width="1"/><line x1="844.6" y1="701.8" x2="843.5" y2="785.6" stroke="#00ff60" stroke-opacity=".38" stroke-width="1"/><polygon points="235.3,419.0 764.8,415.9 723.4,662.3 279.1,663.7" fill="url(#suitr1x7185)" stroke="#00ff60" stroke-width="2.6" filter="url(#skr1x7185) url(#metalr1x7185)"/><polygon points="234.6,416.7 764.3,417.4 722.3,661.5 278.1,662.8" fill="url(#carbonr1x7185)"/><polygon points="366.7,415.9 634.1,417.1 609.5,515.2 387.8,513.9" fill="url(#suitHir1x7185)"/><line x1="361.7" y1="472.6" x2="638.2" y2="469.9" stroke="#00ff60" stroke-opacity=".52" stroke-width="1.3" filter="url(#skr1x7185)"/><line x1="400.3" y1="548.2" x2="599.3" y2="549.0" stroke="#00ff60" stroke-opacity=".52" stroke-width="1.3" filter="url(#skr1x7185)"/><line x1="266.0" y1="492.2" x2="318.1" y2="490.9" stroke="#00ff60" stroke-opacity=".62" stroke-width="1.8"/><line x1="680.7" y1="491.5" x2="731.4" y2="490.3" stroke="#00ff60" stroke-opacity=".62" stroke-width="1.8"/><line x1="266.6" y1="521.3" x2="319.8" y2="524.6" stroke="#00ff60" stroke-opacity=".62" stroke-width="1.8"/><line x1="679.4" y1="522.2" x2="734.5" y2="524.4" stroke="#00ff60" stroke-opacity=".62" stroke-width="1.8"/><line x1="267.3" y1="553.7" x2="318.7" y2="553.1" stroke="#00ff60" stroke-opacity=".62" stroke-width="1.8"/><line x1="681.4" y1="555.5" x2="734.6" y2="556.4" stroke="#00ff60" stroke-opacity=".62" stroke-width="1.8"/><line x1="265.7" y1="588.3" x2="319.2" y2="586.6" stroke="#00ff60" stroke-opacity=".62" stroke-width="1.8"/><line x1="680.7" y1="585.1" x2="731.7" y2="587.1" stroke="#00ff60" stroke-opacity=".62" stroke-width="1.8"/><g filter="url(#glowr1x7185)"><polygon points="501.2,452.8 516.5,489.8 555.3,494.4 525.6,519.4 533.4,557.8 498.9,537.8 466.6,558.3 476.5,520.0 446.3,493.5 484.6,489.7 " fill="#00ff60" stroke="#050d14" stroke-width="1.4" filter="url(#skr1x7185)"/><polygon points="501.2,452.8 516.5,489.8 555.3,494.4 525.6,519.4 533.4,557.8 498.9,537.8 466.6,558.3 476.5,520.0 446.3,493.5 484.6,489.7 " fill="url(#suitHir1x7185)" opacity=".45"/></g><g><rect x="838.0871711271443" y="396.9025118782185" width="175.0" height="118.0" rx="7" fill="url(#artilleryr1x7185)" stroke="#00ff60" stroke-width="2.6" filter="url(#wmr1x7185)"/><rect x="837.4880672704987" y="396.7925818560645" width="175.0" height="118.0" rx="7" fill="url(#carbonr1x7185)"/><rect x="981.9544945192151" y="448.9644191523082" width="78.0" height="32.0" rx="6" fill="url(#barrelr1x7185)" stroke="#00ff60" stroke-width="1.4" filter="url(#wmr1x7185)"/><circle cx="881.422671699673" cy="471.00695428354663" r="48.0" fill="rgba(0,0,0,.55)" stroke="#00ff60" stroke-width="2" filter="url(#wmr1x7185)"/><circle cx="880.8150270491466" cy="473.06149974288417" r="34.0" fill="#00ff60" fill-opacity=".4" filter="url(#bloomr1x7185)"/><circle cx="881.3780182957277" cy="471.4478330864571" r="18.0" fill="#00ff60" filter="url(#glowr1x7185)"/><rect x="841.6893734517135" y="381.9971057911403" width="100.0" height="18.0" rx="2" fill="url(#bevelr1x7185)" stroke="#00ff60" stroke-width="1" filter="url(#wmr1x7185)"/><rect x="840.5313884286769" y="398.4127038680948" width="120.0" height="12.0" rx="3" fill="rgba(255,255,255,.2)"/><line x1="847.4712637506984" y1="518.5654266249388" x2="846.1695732771046" y2="550.454601230938" stroke="#00ff60" stroke-opacity=".6" stroke-width="2"/><line x1="873.4058274796791" y1="518.3760814791545" x2="871.1978461597674" y2="549.152197248675" stroke="#00ff60" stroke-opacity=".6" stroke-width="2"/><line x1="894.7710761635192" y1="519.423541371338" x2="894.4770135779493" y2="550.5843125496059" stroke="#00ff60" stroke-opacity=".6" stroke-width="2"/><line x1="920.4137894102" y1="517.827548009716" x2="919.2200882078707" y2="547.8691867440008" stroke="#00ff60" stroke-opacity=".6" stroke-width="2"/></g><rect x="449.76918197264894" y="555.2061942707747" width="100.0"  height="56.0" fill="#00441e" stroke="#00ff60" stroke-width="2.2" filter="url(#skr1x7185)"/><rect x="424.05953618213533" y="574.2807342229411" width="152.0" height="26.0" fill="url(#bevelr1x7185)" fill-opacity=".65" stroke="#00ff60" stroke-width="1.2" filter="url(#skr1x7185)"/><polygon points="309.6,379.5 348.6,295.2 500.7,278.0 649.6,294.3 690.8,379.0 668.3,502.7 500.5,564.5 332.6,505.2" fill="url(#suitr1x7185)" stroke="#00ff60" stroke-width="2.8" filter="url(#skr1x7185) url(#metalr1x7185)"/><polygon points="308.4,381.6 350.2,293.5 501.5,279.6 649.7,294.5 692.0,379.1 669.0,504.5 499.5,566.4 329.5,503.0" fill="url(#carbonr1x7185)"/><polygon points="382.2,304.2 499.8,286.7 618.7,302.3 608.1,380.2 393.6,379.5" fill="url(#suitHir1x7185)"/><polygon points="379.3,380.7 366.0,424.9 434.6,504.2 498.8,528.6 566.3,503.6 632.8,426.9 618.7,381.2" fill="#050d14" fill-opacity=".88" stroke="#00ff60" stroke-width="1.8" filter="url(#skr1x7185)"/><polygon points="380.4,411.8 477.6,412.3 485.3,438.7 389.5,438.7" fill="#00ff60" filter="url(#glowr1x7185)"/><polygon points="522.8,412.1 617.4,412.5 612.8,439.4 514.6,439.4" fill="#00ff60" filter="url(#glowr1x7185)"/><ellipse cx="430.9" cy="425.7" rx="38.4"  ry="8.2" fill="#ffffff" opacity=".88"/><ellipse cx="569.1" cy="425.7" rx="38.4"  ry="8.2" fill="#ffffff" opacity=".88"/><line x1="485.4014127177745" y1="414.0799332805909" x2="516.1718574895896" y2="412.6558229578659" stroke="#00ff60" stroke-opacity=".52" stroke-width="2"/><line x1="483.10059936182574" y1="436.27902312884106" x2="514.205414953772" y2="438.2670752696693" stroke="#00ff60" stroke-opacity=".52" stroke-width="2"/><line x1="500.45344608286393" y1="454.8389950640499" x2="498.78782791784033" y2="484.4552769604139" stroke="#00ff60" stroke-opacity=".58" stroke-width="2.2" filter="url(#skr1x7185)"/><line x1="454.591630928386" y1="491.87985878987234" x2="452.25759674578904" y2="519.4159733154811" stroke="#00ff60" stroke-opacity=".52" stroke-width="1.5" filter="url(#skr1x7185)"/><line x1="478.3551821017079" y1="490.7789574806578" x2="477.03621354172003" y2="521.6730350621976" stroke="#00ff60" stroke-opacity=".52" stroke-width="1.5" filter="url(#skr1x7185)"/><line x1="500.2035139140673" y1="490.23496197611087" x2="500.0294261932373" y2="521.6720529261045" stroke="#00ff60" stroke-opacity=".52" stroke-width="1.5" filter="url(#skr1x7185)"/><line x1="524.375726663284" y1="489.97687965538347" x2="522.6930344223604" y2="519.1576601814479" stroke="#00ff60" stroke-opacity=".52" stroke-width="1.5" filter="url(#skr1x7185)"/><line x1="545.6004726589844" y1="492.37250195778904" x2="547.7809645953774" y2="518.9260431508534" stroke="#00ff60" stroke-opacity=".52" stroke-width="1.5" filter="url(#skr1x7185)"/><polygon points="433.6,504.1 568.4,502.9 552.7,557.6 444.8,555.1" fill="#00441e" fill-opacity=".72" stroke="#00ff60" stroke-width="1.3" filter="url(#skr1x7185)"/><text x="30.0"  y="975.0" font-family="monospace" font-weight="bold" font-size="22.0" fill="rgba(255,255,255,.22)">#0001</text><text x="500.0"   y="975.0" text-anchor="middle" font-family="monospace" font-weight="bold" font-size="22.0" fill="#00ff60" fill-opacity=".48">VIPER RANGER</text><text x="970.0" y="975.0" text-anchor="end"    font-family="monospace" font-weight="bold" font-size="22.0" fill="#00ff60" fill-opacity=".32">MECH RANGERS</text></svg>