<svg xmlns="http://www.w3.org/2000/svg" viewBox="0 0 1000 1000" width="1000" height="1000" shape-rendering="geometricPrecision"><defs>

  <!-- Scene gradients -->
  <radialGradient id="bgr1x7296" cx="50%" cy="42%" r="72%">
    <stop offset="0%"   stop-color="#1e0a2e"/>
    <stop offset="100%" stop-color="#0a0520"/>
  </radialGradient>
  <linearGradient id="suitr1x7296" x1="8%" y1="0%" x2="92%" y2="100%">
    <stop offset="0%"   stop-color="#4444ff" stop-opacity=".95"/>
    <stop offset="45%"  stop-color="#141428"/>
    <stop offset="100%" stop-color="#0a0520"/>
  </linearGradient>
  <linearGradient id="suitHir1x7296" x1="0%" y1="0%" x2="0%" y2="100%">
    <stop offset="0%"   stop-color="rgba(255,255,255,.28)"/>
    <stop offset="60%"  stop-color="rgba(255,255,255,.04)"/>
    <stop offset="100%" stop-color="rgba(255,255,255,0)"/>
  </linearGradient>
  <!-- Bevel: bright top, dark bottom for armour panels -->
  <linearGradient id="bevelr1x7296" x1="0%" y1="0%" x2="0%" y2="100%">
    <stop offset="0%"   stop-color="rgba(255,255,255,.55)"/>
    <stop offset="30%"  stop-color="#4444ff"/>
    <stop offset="70%"  stop-color="#141428"/>
    <stop offset="100%" stop-color="rgba(0,0,0,.5)"/>
  </linearGradient>

  <!-- Weapon: cold steel blade sweep -->
  <linearGradient id="blader1x7296" x1="0%" y1="0%" x2="100%" y2="0%">
    <stop offset="0%"   stop-color="#0e0e20"/>
    <stop offset="16%"  stop-color="#3e3e58"/>
    <stop offset="34%"  stop-color="#c8c8e0"/>
    <stop offset="50%"  stop-color="#f5f5ff"/>
    <stop offset="66%"  stop-color="#b8b8d0"/>
    <stop offset="84%"  stop-color="#2e2e48"/>
    <stop offset="100%" stop-color="#08080e"/>
  </linearGradient>
  <!-- Blade tip brightening -->
  <linearGradient id="bladeTipr1x7296" x1="0%" y1="100%" x2="0%" y2="0%">
    <stop offset="0%"   stop-color="rgba(255,255,255,0)"/>
    <stop offset="55%"  stop-color="rgba(255,255,255,.1)"/>
    <stop offset="100%" stop-color="rgba(255,255,255,.55)"/>
  </linearGradient>
  <!-- Gunmetal anodised — blaster body -->
  <linearGradient id="gunmetalr1x7296" x1="0%" y1="0%" x2="0%" y2="100%">
    <stop offset="0%"   stop-color="#46465e"/>
    <stop offset="18%"  stop-color="#828296"/>
    <stop offset="42%"  stop-color="#26263a"/>
    <stop offset="72%"  stop-color="#16162a"/>
    <stop offset="100%" stop-color="#0c0c18"/>
  </linearGradient>
  <!-- Brushed steel tube — barrel/rod -->
  <linearGradient id="barrelr1x7296" x1="0%" y1="0%" x2="100%" y2="0%">
    <stop offset="0%"   stop-color="#0a0a14"/>
    <stop offset="24%"  stop-color="#585875"/>
    <stop offset="50%"  stop-color="#a8a8c8"/>
    <stop offset="76%"  stop-color="#383852"/>
    <stop offset="100%" stop-color="#0a0a14"/>
  </linearGradient>
  <!-- Chrome rod — lance shaft -->
  <linearGradient id="chromer1x7296" x1="0%" y1="0%" x2="100%" y2="0%">
    <stop offset="0%"   stop-color="#0c0c18"/>
    <stop offset="20%"  stop-color="#686888"/>
    <stop offset="44%"  stop-color="#e0e0f0"/>
    <stop offset="56%"  stop-color="#c0c0d8"/>
    <stop offset="80%"  stop-color="#28283e"/>
    <stop offset="100%" stop-color="#0c0c18"/>
  </linearGradient>
  <!-- Titanium plate — shield face -->
  <linearGradient id="titaniumr1x7296" x1="0%" y1="0%" x2="100%" y2="100%">
    <stop offset="0%"   stop-color="#585878"/>
    <stop offset="28%"  stop-color="#4444ff" stop-opacity=".88"/>
    <stop offset="55%"  stop-color="#141428"/>
    <stop offset="80%"  stop-color="#181828"/>
    <stop offset="100%" stop-color="#0a0a18"/>
  </linearGradient>
  <!-- Artillery black-chrome — cannon body -->
  <linearGradient id="artilleryr1x7296" x1="0%" y1="0%" x2="0%" y2="100%">
    <stop offset="0%"   stop-color="#383850"/>
    <stop offset="14%"  stop-color="#78789a"/>
    <stop offset="36%"  stop-color="#202034"/>
    <stop offset="65%"  stop-color="#14141e"/>
    <stop offset="100%" stop-color="#0a0a12"/>
  </linearGradient>
  <!-- Energy orb — staff -->
  <radialGradient id="orbr1x7296" cx="35%" cy="35%" r="65%">
    <stop offset="0%"   stop-color="rgba(255,255,255,.9)"/>
    <stop offset="30%"  stop-color="#4444ff"/>
    <stop offset="68%"  stop-color="#141428"/>
    <stop offset="100%" stop-color="rgba(0,0,0,.6)"/>
  </radialGradient>
  <!-- Knuckle plate chrome -->
  <linearGradient id="knuckler1x7296" x1="0%" y1="0%" x2="0%" y2="100%">
    <stop offset="0%"   stop-color="#888aaa"/>
    <stop offset="32%"  stop-color="#4444ff" stop-opacity=".8"/>
    <stop offset="62%"  stop-color="#1a1a2c"/>
    <stop offset="100%" stop-color="#0a0a14"/>
  </linearGradient>

  <!-- Carbon fibre weave texture overlay -->
  <pattern id="carbonr1x7296" width="6" height="6" patternUnits="userSpaceOnUse">
    <rect width="6" height="6" fill="rgba(0,0,0,.08)"/>
    <rect x="0" y="0" width="3" height="3" fill="rgba(255,255,255,.022)"/>
    <rect x="3" y="3" width="3" height="3" fill="rgba(255,255,255,.022)"/>
    <line x1="0" y1="0" x2="3" y2="3" stroke="rgba(255,255,255,.038)" stroke-width=".5"/>
    <line x1="3" y1="0" x2="6" y2="3" stroke="rgba(0,0,0,.055)"       stroke-width=".5"/>
    <line x1="0" y1="3" x2="3" y2="6" stroke="rgba(0,0,0,.055)"       stroke-width=".5"/>
    <line x1="3" y1="3" x2="6" y2="6" stroke="rgba(255,255,255,.038)" stroke-width=".5"/>
  </pattern>

  <!-- Specular metal sheen on armour panels -->
  <filter id="metalr1x7296" x="-5%" y="-5%" width="110%" height="110%">
    <feSpecularLighting surfaceScale="4" specularConstant="1.8"
        specularExponent="42" lighting-color="#ffffff" result="spec">
      <feDistantLight elevation="52" azimuth="38"/>
    </feSpecularLighting>
    <feComposite in="spec" in2="SourceGraphic" operator="in" result="sm"/>
    <feComposite in="SourceGraphic" in2="sm" operator="arithmetic" k1="0" k2="1" k3="0.55" k4="0"/>
  </filter>

  <!-- Sharper specular for weapons — heavier glare -->
  <filter id="wmr1x7296" x="-8%" y="-8%" width="116%" height="116%">
    <feSpecularLighting surfaceScale="6" specularConstant="2.4"
        specularExponent="65" lighting-color="#ffffff" result="spec">
      <feDistantLight elevation="44" azimuth="28"/>
    </feSpecularLighting>
    <feComposite in="spec" in2="SourceGraphic" operator="in" result="sm"/>
    <feComposite in="SourceGraphic" in2="sm" operator="arithmetic" k1="0" k2="1" k3="0.78" k4="0"/>
  </filter>

  <!-- Sketch wobble -->
  <filter id="skr1x7296" x="-8%" y="-8%" width="116%" height="116%">
    <feTurbulence type="fractalNoise" baseFrequency="0.038"
        numOctaves="3" seed="4" result="noise"/>
    <feDisplacementMap in="SourceGraphic" in2="noise" scale="2.6"
        xChannelSelector="R" yChannelSelector="G" result="w"/>
    <feComposite in="w" in2="SourceGraphic" operator="atop"/>
  </filter>

  <!-- Glow: sharp accent -->
  <filter id="glowr1x7296" x="-20%" y="-20%" width="140%" height="140%">
    <feGaussianBlur stdDeviation="3.5" result="b"/>
    <feColorMatrix in="b" type="matrix"
        values="0 0 0 0 1  0 0 0 0 1  0 0 0 0 1  0 0 0 1.8 0" result="boost"/>
    <feMerge><feMergeNode in="boost"/><feMergeNode in="SourceGraphic"/></feMerge>
  </filter>

  <!-- Bloom: wide soft -->
  <filter id="bloomr1x7296" x="-40%" y="-40%" width="180%" height="180%">
    <feGaussianBlur stdDeviation="11" result="b"/>
    <feMerge><feMergeNode in="b"/><feMergeNode in="SourceGraphic"/></feMerge>
  </filter>

  </defs><rect width="1000" height="1000" fill="url(#bgr1x7296)"/><ellipse cx="500.0" cy="892.0" rx="350.0" ry="65.0" fill="rgba(0,0,0,.7)" filter="url(#bloomr1x7296)"/><ellipse cx="500.0" cy="889.0" rx="220.0" ry="34.0" fill="rgba(0,0,0,.45)"/><ellipse cx="500.0" cy="520.0" rx="320.0" ry="480.0" fill="#ffffff" fill-opacity=".042" filter="url(#bloomr1x7296)"/><circle cx="258.9" cy="378.3" r="0.9" fill="#ffffff" fill-opacity="0.61" filter="url(#glowr1x7296)"/><circle cx="636.4" cy="205.6" r="2.5" fill="#ffffff" fill-opacity="0.69" filter="url(#glowr1x7296)"/><circle cx="540.2" cy="304.2" r="0.7" fill="#ffffff" fill-opacity="0.69" filter="url(#glowr1x7296)"/><circle cx="665.2" cy="253.6" r="3.2" fill="#ffffff" fill-opacity="0.42" filter="url(#glowr1x7296)"/><circle cx="467.0" cy="295.0" r="1.8" fill="#ffffff" fill-opacity="0.53" filter="url(#glowr1x7296)"/><circle cx="703.3" cy="622.7" r="3.1" fill="#ffffff" fill-opacity="0.45" filter="url(#glowr1x7296)"/><circle cx="275.5" cy="394.4" r="0.7" fill="#ffffff" fill-opacity="0.88" filter="url(#glowr1x7296)"/><circle cx="573.5" cy="781.2" r="3.1" fill="#ffffff" fill-opacity="0.87" filter="url(#glowr1x7296)"/><circle cx="734.8" cy="595.4" r="0.7" fill="#ffffff" fill-opacity="0.40" filter="url(#glowr1x7296)"/><circle cx="554.1" cy="283.6" r="3.0" fill="#ffffff" fill-opacity="0.51" filter="url(#glowr1x7296)"/><circle cx="713.7" cy="571.7" r="2.7" fill="#ffffff" fill-opacity="0.73" filter="url(#glowr1x7296)"/><circle cx="264.1" cy="247.6" r="3.5" fill="#ffffff" fill-opacity="0.48" filter="url(#glowr1x7296)"/><circle cx="393.8" cy="466.1" r="4.2" fill="#ffffff" fill-opacity="0.90" filter="url(#glowr1x7296)"/><circle cx="679.3" cy="410.1" r="2.9" fill="#ffffff" fill-opacity="0.42" filter="url(#glowr1x7296)"/><polygon points="399.7,661.9 488.3,662.3 480.6,876.1 388.5,878.8" fill="url(#suitr1x7296)" stroke="#4444ff" stroke-width="2.2" filter="url(#skr1x7296) url(#metalr1x7296)"/><polygon points="397.2,660.8 488.8,661.6 480.1,876.1 387.3,878.5" fill="url(#carbonr1x7296)"/><polygon points="391.1,723.0 492.1,725.0 484.6,787.6 382.8,788.4" fill="url(#bevelr1x7296)" fill-opacity=".5" stroke="#4444ff" stroke-width="1.4" filter="url(#skr1x7296)"/><polygon points="512.3,661.2 602.4,661.7 611.0,876.1 518.6,878.1" fill="url(#suitr1x7296)" stroke="#4444ff" stroke-width="2.2" filter="url(#skr1x7296) url(#metalr1x7296)"/><polygon points="512.1,664.1 600.5,661.7 611.8,877.6 520.2,879.0" fill="url(#carbonr1x7296)"/><polygon points="505.7,723.4 606.9,723.5 617.3,787.8 517.4,789.8" fill="url(#bevelr1x7296)" fill-opacity=".5" stroke="#4444ff" stroke-width="1.4" filter="url(#skr1x7296)"/><rect x="392.5" y="838.6" width="100.3" height="24.7" fill="url(#bevelr1x7296)" stroke="#4444ff" stroke-width="1" filter="url(#skr1x7296)"/><rect x="508.8"  y="840.4" width="100.3" height="24.7" fill="url(#bevelr1x7296)" stroke="#4444ff" stroke-width="1" filter="url(#skr1x7296)"/><polygon points="371.4,877.9 495.7,876.1 502.4,922.1 361.6,922.8" fill="#141428" stroke="#4444ff" stroke-width="2" filter="url(#skr1x7296)"/><polygon points="504.2,877.5 631.0,878.0 635.8,923.1 497.3,922.5" fill="#141428" stroke="#4444ff" stroke-width="2" filter="url(#skr1x7296)"/><polygon points="302.5,634.1 696.4,634.9 636.5,683.7 363.2,681.2" fill="#4444ff" fill-opacity=".52" stroke="#4444ff" stroke-width="2" filter="url(#skr1x7296)"/><rect x="465.2" y="636.6" width="72.0" height="42.0" fill="url(#bevelr1x7296)" stroke="#4444ff" stroke-width="1.4" filter="url(#glowr1x7296)"/><rect x="486.2" y="640.5" width="28.0" height="22.0" rx="1" fill="rgba(255,255,255,.48)"/><polygon points="152.8,465.0 234.3,467.3 259.2,735.9 127.3,733.8" fill="url(#suitr1x7296)" stroke="#4444ff" stroke-width="2.2" filter="url(#skr1x7296) url(#metalr1x7296)"/><polygon points="174.7,433.7 251.5,433.0 242.9,511.2 161.3,511.7" fill="url(#bevelr1x7296)" fill-opacity=".72" stroke="#4444ff" stroke-width="2.2" filter="url(#skr1x7296)"/><polygon points="162.4,622.6 244.8,620.3 239.4,660.0 166.0,659.9" fill="#4444ff" fill-opacity=".42" stroke="#4444ff" stroke-width="1" filter="url(#skr1x7296)"/><polygon points="764.0,468.1 847.2,467.2 872.9,734.3 743.6,734.0" fill="url(#suitr1x7296)" stroke="#4444ff" stroke-width="2.2" filter="url(#skr1x7296) url(#metalr1x7296)"/><polygon points="746.6,433.1 824.8,431.2 839.1,512.0 757.9,509.2" fill="url(#bevelr1x7296)" fill-opacity=".72" stroke="#4444ff" stroke-width="2.2" filter="url(#skr1x7296)"/><polygon points="756.8,620.5 837.1,622.4 833.6,661.7 761.5,661.0" fill="#4444ff" fill-opacity=".42" stroke="#4444ff" stroke-width="1" filter="url(#skr1x7296)"/><rect x="119.1"  y="699.4" width="135.3" height="85.0" rx="4" fill="url(#bevelr1x7296)" stroke="#4444ff" stroke-width="1.8" filter="url(#skr1x7296)"/><rect x="747.2"   y="699.9" width="135.3" height="85.0" rx="4" fill="url(#bevelr1x7296)" stroke="#4444ff" stroke-width="1.8" filter="url(#skr1x7296)"/><line x1="149.6" y1="701.8" x2="151.4" y2="784.4" stroke="#4444ff" stroke-opacity=".38" stroke-width="1"/><line x1="776.5" y1="701.2" x2="778.1" y2="785.2" stroke="#4444ff" stroke-opacity=".38" stroke-width="1"/><line x1="182.1" y1="702.6" x2="181.0" y2="784.0" stroke="#4444ff" stroke-opacity=".38" stroke-width="1"/><line x1="812.1" y1="700.2" x2="812.5" y2="785.1" stroke="#4444ff" stroke-opacity=".38" stroke-width="1"/><line x1="216.3" y1="703.6" x2="215.5" y2="782.5" stroke="#4444ff" stroke-opacity=".38" stroke-width="1"/><line x1="842.1" y1="700.9" x2="845.0" y2="784.9" stroke="#4444ff" stroke-opacity=".38" stroke-width="1"/><polygon points="236.6,417.7 764.6,416.6 722.7,661.9 278.7,663.5" fill="url(#suitr1x7296)" stroke="#4444ff" stroke-width="2.6" filter="url(#skr1x7296) url(#metalr1x7296)"/><polygon points="233.4,417.7 766.4,418.1 722.1,660.9 277.9,663.8" fill="url(#carbonr1x7296)"/><polygon points="367.6,418.5 631.1,417.6 612.9,516.8 387.7,514.9" fill="url(#suitHir1x7296)"/><line x1="362.2" y1="472.5" x2="636.7" y2="471.4" stroke="#4444ff" stroke-opacity=".52" stroke-width="1.3" filter="url(#skr1x7296)"/><line x1="398.6" y1="551.2" x2="600.5" y2="549.1" stroke="#4444ff" stroke-opacity=".52" stroke-width="1.3" filter="url(#skr1x7296)"/><line x1="266.5" y1="492.4" x2="320.5" y2="492.4" stroke="#4444ff" stroke-opacity=".62" stroke-width="1.8"/><line x1="682.0" y1="490.6" x2="733.6" y2="490.9" stroke="#4444ff" stroke-opacity=".62" stroke-width="1.8"/><line x1="267.4" y1="522.8" x2="319.4" y2="523.9" stroke="#4444ff" stroke-opacity=".62" stroke-width="1.8"/><line x1="680.1" y1="523.9" x2="734.4" y2="523.8" stroke="#4444ff" stroke-opacity=".62" stroke-width="1.8"/><line x1="268.3" y1="553.6" x2="318.9" y2="554.3" stroke="#4444ff" stroke-opacity=".62" stroke-width="1.8"/><line x1="678.4" y1="553.8" x2="732.5" y2="556.2" stroke="#4444ff" stroke-opacity=".62" stroke-width="1.8"/><line x1="265.5" y1="586.5" x2="320.6" y2="585.4" stroke="#4444ff" stroke-opacity=".62" stroke-width="1.8"/><line x1="680.2" y1="587.6" x2="732.6" y2="586.6" stroke="#4444ff" stroke-opacity=".62" stroke-width="1.8"/><g filter="url(#glowr1x7296)"><polygon points="498.4,451.4 540.8,509.7 500.1,568.1 460.0,509.4" fill="#4444ff" stroke="#0a0520" stroke-width="1.4" filter="url(#skr1x7296)"/><polygon points="500.4,451.4 543.3,509.4 501.7,567.9 459.1,509.9" fill="url(#suitHir1x7296)" opacity=".45"/></g><g><line x1="102.26343919955191" y1="790.4433457173407" x2="87.49874961677935" y2="111.77727421345188" stroke="url(#chromer1x7296)" stroke-width="28.0" stroke-linecap="round" filter="url(#wmr1x7296)"/><line x1="95.46432084081691" y1="772.7522661807947" x2="89.19421871559692" y2="129.92032576203343" stroke="rgba(255,255,255,.42)" stroke-width="5.0" stroke-linecap="round"/><polygon points="73.4,151.7 138.5,149.7 84.9,-10.3" fill="url(#blader1x7296)" stroke="#4444ff" stroke-width="1.8" filter="url(#wmr1x7296)"/><line x1="140.2" y1="151.4" x2="84.2" y2="-8.6" stroke="rgba(255,255,255,.72)" stroke-width="1.6"/><rect x="82.40498421577733" y="421.4756178507581" width="40.0" height="20.0" fill="url(#bevelr1x7296)" stroke="#4444ff" stroke-width="1" filter="url(#wmr1x7296)"/><rect x="82.83721982980144" y="512.9062424989417" width="40.0" height="20.0" fill="url(#bevelr1x7296)" stroke="#4444ff" stroke-width="1" filter="url(#wmr1x7296)"/><rect x="82.17572318309915" y="601.0246471710503" width="40.0" height="20.0" fill="url(#bevelr1x7296)" stroke="#4444ff" stroke-width="1" filter="url(#wmr1x7296)"/><rect x="83.91358376121146" y="691.8274450034834" width="40.0" height="20.0" fill="url(#bevelr1x7296)" stroke="#4444ff" stroke-width="1" filter="url(#wmr1x7296)"/><ellipse cx="101.80040161017325" cy="792.3729951079935" rx="22.0" ry="15.0" fill="url(#bevelr1x7296)" stroke="#4444ff" stroke-width="1" filter="url(#wmr1x7296)"/></g><rect x="448.8593979598023" y="556.5815498488955" width="100.0"  height="56.0" fill="#141428" stroke="#4444ff" stroke-width="2.2" filter="url(#skr1x7296)"/><rect x="422.89938387917357" y="576.8979774289764" width="152.0" height="26.0" fill="url(#bevelr1x7296)" fill-opacity=".65" stroke="#4444ff" stroke-width="1.2" filter="url(#skr1x7296)"/><polygon points="309.5,380.4 350.7,293.7 500.0,277.4 650.7,294.0 692.3,380.5 669.1,503.0 498.9,564.3 331.8,503.9" fill="url(#suitr1x7296)" stroke="#4444ff" stroke-width="2.8" filter="url(#skr1x7296) url(#metalr1x7296)"/><polygon points="309.5,379.9 350.7,294.5 499.4,278.3 648.1,293.4 691.1,381.5 668.0,504.1 501.8,566.2 332.2,504.2" fill="url(#carbonr1x7296)"/><polygon points="380.4,303.2 500.7,284.6 618.8,304.2 607.3,380.5 392.9,381.8" fill="url(#suitHir1x7296)"/><polygon points="380.2,381.8 366.8,427.4 434.2,504.4 501.4,526.5 568.8,505.1 635.1,425.2 618.7,380.3" fill="#0a0520" fill-opacity=".88" stroke="#4444ff" stroke-width="1.8" filter="url(#skr1x7296)"/><polygon points="381.8,410.5 475.9,411.2 485.4,438.7 390.3,438.9" fill="#4444ff" filter="url(#glowr1x7296)"/><polygon points="522.6,410.2 620.4,411.3 611.7,441.4 516.1,441.1" fill="#4444ff" filter="url(#glowr1x7296)"/><ellipse cx="430.9" cy="425.7" rx="38.4"  ry="8.2" fill="#ffffff" opacity=".88"/><ellipse cx="569.1" cy="425.7" rx="38.4"  ry="8.2" fill="#ffffff" opacity=".88"/><line x1="486.4304076259583" y1="414.1913567751646" x2="515.8343538652547" y2="413.7515938441269" stroke="#4444ff" stroke-opacity=".52" stroke-width="2"/><line x1="486.03371227044613" y1="439.7940537303686" x2="515.1965488237702" y2="436.86954985437916" stroke="#4444ff" stroke-opacity=".52" stroke-width="2"/><line x1="499.6186691524461" y1="455.97173431999977" x2="500.75367854712533" y2="482.16366987954825" stroke="#4444ff" stroke-opacity=".58" stroke-width="2.2" filter="url(#skr1x7296)"/><line x1="453.03999044846745" y1="492.11093889251345" x2="452.54850006883964" y2="520.6498854870908" stroke="#4444ff" stroke-opacity=".52" stroke-width="1.5" filter="url(#skr1x7296)"/><line x1="477.05625802244987" y1="489.8947250667959" x2="477.50487207811324" y2="521.0703044331633" stroke="#4444ff" stroke-opacity=".52" stroke-width="1.5" filter="url(#skr1x7296)"/><line x1="501.66862122071905" y1="490.90615797257044" x2="500.36818574601784" y2="519.9369243354537" stroke="#4444ff" stroke-opacity=".52" stroke-width="1.5" filter="url(#skr1x7296)"/><line x1="523.1008434648253" y1="489.5232834794558" x2="523.9015612592548" y2="519.7187371463515" stroke="#4444ff" stroke-opacity=".52" stroke-width="1.5" filter="url(#skr1x7296)"/><line x1="547.8364171670936" y1="492.5095798403024" x2="546.2437605371886" y2="521.6841967917047" stroke="#4444ff" stroke-opacity=".52" stroke-width="1.5" filter="url(#skr1x7296)"/><polygon points="431.1,504.1 567.7,502.3 554.9,558.2 447.7,558.5" fill="#141428" fill-opacity=".72" stroke="#4444ff" stroke-width="1.3" filter="url(#skr1x7296)"/><path d="M389.5873231071606 328.90188563000413 Q329.728596889656 215.4059523191303 381.64615489155057 140.94478189460932" stroke="#4444ff" stroke-width="5" fill="none" stroke-linecap="round" filter="url(#skr1x7296)"/><path d="M389.0897817939147 329.0547285438515 Q332.63872794831167 218.1168637784198 381.0034565645643 140.46428834144027" stroke="rgba(255,255,255,.25)" stroke-width="1.5" fill="none" stroke-linecap="round"/><path d="M612.6291164708697 326.64769583847374 Q668.7125925409049 218.2792524235323 618.3532335362955 141.2372893286869" stroke="#4444ff" stroke-width="5" fill="none" stroke-linecap="round" filter="url(#skr1x7296)"/><path d="M611.3542975699902 326.5336787223816 Q668.8505590057373 215.8234083252959 620.2133987978659 141.95895264260471" stroke="rgba(255,255,255,.25)" stroke-width="1.5" fill="none" stroke-linecap="round"/><text x="30.0"  y="975.0" font-family="monospace" font-weight="bold" font-size="22.0" fill="rgba(255,255,255,.22)">#0001</text><text x="500.0"   y="975.0" text-anchor="middle" font-family="monospace" font-weight="bold" font-size="22.0" fill="#4444ff" fill-opacity=".48">OBSIDIAN RANGER</text><text x="970.0" y="975.0" text-anchor="end"    font-family="monospace" font-weight="bold" font-size="22.0" fill="#4444ff" fill-opacity=".32">MECH RANGERS</text></svg>