<svg xmlns="http://www.w3.org/2000/svg" viewBox="0 0 1000 1000" width="1000" height="1000" shape-rendering="geometricPrecision"><defs>

  <!-- Scene gradients -->
  <radialGradient id="bgr1x7327" cx="50%" cy="42%" r="72%">
    <stop offset="0%"   stop-color="#0a0a14"/>
    <stop offset="100%" stop-color="#050508"/>
  </radialGradient>
  <linearGradient id="suitr1x7327" x1="8%" y1="0%" x2="92%" y2="100%">
    <stop offset="0%"   stop-color="#ff00ff" stop-opacity=".95"/>
    <stop offset="45%"  stop-color="#050508"/>
    <stop offset="100%" stop-color="#050508"/>
  </linearGradient>
  <linearGradient id="suitHir1x7327" x1="0%" y1="0%" x2="0%" y2="100%">
    <stop offset="0%"   stop-color="rgba(255,255,255,.28)"/>
    <stop offset="60%"  stop-color="rgba(255,255,255,.04)"/>
    <stop offset="100%" stop-color="rgba(255,255,255,0)"/>
  </linearGradient>
  <!-- Bevel: bright top, dark bottom for armour panels -->
  <linearGradient id="bevelr1x7327" x1="0%" y1="0%" x2="0%" y2="100%">
    <stop offset="0%"   stop-color="rgba(255,255,255,.55)"/>
    <stop offset="30%"  stop-color="#ff00ff"/>
    <stop offset="70%"  stop-color="#050508"/>
    <stop offset="100%" stop-color="rgba(0,0,0,.5)"/>
  </linearGradient>

  <!-- Weapon: cold steel blade sweep -->
  <linearGradient id="blader1x7327" x1="0%" y1="0%" x2="100%" y2="0%">
    <stop offset="0%"   stop-color="#0e0e20"/>
    <stop offset="16%"  stop-color="#3e3e58"/>
    <stop offset="34%"  stop-color="#c8c8e0"/>
    <stop offset="50%"  stop-color="#f5f5ff"/>
    <stop offset="66%"  stop-color="#b8b8d0"/>
    <stop offset="84%"  stop-color="#2e2e48"/>
    <stop offset="100%" stop-color="#08080e"/>
  </linearGradient>
  <!-- Blade tip brightening -->
  <linearGradient id="bladeTipr1x7327" x1="0%" y1="100%" x2="0%" y2="0%">
    <stop offset="0%"   stop-color="rgba(255,255,255,0)"/>
    <stop offset="55%"  stop-color="rgba(255,255,255,.1)"/>
    <stop offset="100%" stop-color="rgba(255,255,255,.55)"/>
  </linearGradient>
  <!-- Gunmetal anodised — blaster body -->
  <linearGradient id="gunmetalr1x7327" x1="0%" y1="0%" x2="0%" y2="100%">
    <stop offset="0%"   stop-color="#46465e"/>
    <stop offset="18%"  stop-color="#828296"/>
    <stop offset="42%"  stop-color="#26263a"/>
    <stop offset="72%"  stop-color="#16162a"/>
    <stop offset="100%" stop-color="#0c0c18"/>
  </linearGradient>
  <!-- Brushed steel tube — barrel/rod -->
  <linearGradient id="barrelr1x7327" x1="0%" y1="0%" x2="100%" y2="0%">
    <stop offset="0%"   stop-color="#0a0a14"/>
    <stop offset="24%"  stop-color="#585875"/>
    <stop offset="50%"  stop-color="#a8a8c8"/>
    <stop offset="76%"  stop-color="#383852"/>
    <stop offset="100%" stop-color="#0a0a14"/>
  </linearGradient>
  <!-- Chrome rod — lance shaft -->
  <linearGradient id="chromer1x7327" x1="0%" y1="0%" x2="100%" y2="0%">
    <stop offset="0%"   stop-color="#0c0c18"/>
    <stop offset="20%"  stop-color="#686888"/>
    <stop offset="44%"  stop-color="#e0e0f0"/>
    <stop offset="56%"  stop-color="#c0c0d8"/>
    <stop offset="80%"  stop-color="#28283e"/>
    <stop offset="100%" stop-color="#0c0c18"/>
  </linearGradient>
  <!-- Titanium plate — shield face -->
  <linearGradient id="titaniumr1x7327" x1="0%" y1="0%" x2="100%" y2="100%">
    <stop offset="0%"   stop-color="#585878"/>
    <stop offset="28%"  stop-color="#ff00ff" stop-opacity=".88"/>
    <stop offset="55%"  stop-color="#050508"/>
    <stop offset="80%"  stop-color="#181828"/>
    <stop offset="100%" stop-color="#0a0a18"/>
  </linearGradient>
  <!-- Artillery black-chrome — cannon body -->
  <linearGradient id="artilleryr1x7327" x1="0%" y1="0%" x2="0%" y2="100%">
    <stop offset="0%"   stop-color="#383850"/>
    <stop offset="14%"  stop-color="#78789a"/>
    <stop offset="36%"  stop-color="#202034"/>
    <stop offset="65%"  stop-color="#14141e"/>
    <stop offset="100%" stop-color="#0a0a12"/>
  </linearGradient>
  <!-- Energy orb — staff -->
  <radialGradient id="orbr1x7327" cx="35%" cy="35%" r="65%">
    <stop offset="0%"   stop-color="rgba(255,255,255,.9)"/>
    <stop offset="30%"  stop-color="#ff00ff"/>
    <stop offset="68%"  stop-color="#050508"/>
    <stop offset="100%" stop-color="rgba(0,0,0,.6)"/>
  </radialGradient>
  <!-- Knuckle plate chrome -->
  <linearGradient id="knuckler1x7327" x1="0%" y1="0%" x2="0%" y2="100%">
    <stop offset="0%"   stop-color="#888aaa"/>
    <stop offset="32%"  stop-color="#ff00ff" stop-opacity=".8"/>
    <stop offset="62%"  stop-color="#1a1a2c"/>
    <stop offset="100%" stop-color="#0a0a14"/>
  </linearGradient>

  <!-- Carbon fibre weave texture overlay -->
  <pattern id="carbonr1x7327" width="6" height="6" patternUnits="userSpaceOnUse">
    <rect width="6" height="6" fill="rgba(0,0,0,.08)"/>
    <rect x="0" y="0" width="3" height="3" fill="rgba(255,255,255,.022)"/>
    <rect x="3" y="3" width="3" height="3" fill="rgba(255,255,255,.022)"/>
    <line x1="0" y1="0" x2="3" y2="3" stroke="rgba(255,255,255,.038)" stroke-width=".5"/>
    <line x1="3" y1="0" x2="6" y2="3" stroke="rgba(0,0,0,.055)"       stroke-width=".5"/>
    <line x1="0" y1="3" x2="3" y2="6" stroke="rgba(0,0,0,.055)"       stroke-width=".5"/>
    <line x1="3" y1="3" x2="6" y2="6" stroke="rgba(255,255,255,.038)" stroke-width=".5"/>
  </pattern>

  <!-- Specular metal sheen on armour panels -->
  <filter id="metalr1x7327" x="-5%" y="-5%" width="110%" height="110%">
    <feSpecularLighting surfaceScale="4" specularConstant="1.8"
        specularExponent="42" lighting-color="#ffffff" result="spec">
      <feDistantLight elevation="52" azimuth="38"/>
    </feSpecularLighting>
    <feComposite in="spec" in2="SourceGraphic" operator="in" result="sm"/>
    <feComposite in="SourceGraphic" in2="sm" operator="arithmetic" k1="0" k2="1" k3="0.55" k4="0"/>
  </filter>

  <!-- Sharper specular for weapons — heavier glare -->
  <filter id="wmr1x7327" x="-8%" y="-8%" width="116%" height="116%">
    <feSpecularLighting surfaceScale="6" specularConstant="2.4"
        specularExponent="65" lighting-color="#ffffff" result="spec">
      <feDistantLight elevation="44" azimuth="28"/>
    </feSpecularLighting>
    <feComposite in="spec" in2="SourceGraphic" operator="in" result="sm"/>
    <feComposite in="SourceGraphic" in2="sm" operator="arithmetic" k1="0" k2="1" k3="0.78" k4="0"/>
  </filter>

  <!-- Sketch wobble -->
  <filter id="skr1x7327" x="-8%" y="-8%" width="116%" height="116%">
    <feTurbulence type="fractalNoise" baseFrequency="0.038"
        numOctaves="3" seed="31" result="noise"/>
    <feDisplacementMap in="SourceGraphic" in2="noise" scale="2.6"
        xChannelSelector="R" yChannelSelector="G" result="w"/>
    <feComposite in="w" in2="SourceGraphic" operator="atop"/>
  </filter>

  <!-- Glow: sharp accent -->
  <filter id="glowr1x7327" x="-20%" y="-20%" width="140%" height="140%">
    <feGaussianBlur stdDeviation="3.5" result="b"/>
    <feColorMatrix in="b" type="matrix"
        values="0 0 0 0 1  0 0 0 0 1  0 0 0 0 1  0 0 0 1.8 0" result="boost"/>
    <feMerge><feMergeNode in="boost"/><feMergeNode in="SourceGraphic"/></feMerge>
  </filter>

  <!-- Bloom: wide soft -->
  <filter id="bloomr1x7327" x="-40%" y="-40%" width="180%" height="180%">
    <feGaussianBlur stdDeviation="11" result="b"/>
    <feMerge><feMergeNode in="b"/><feMergeNode in="SourceGraphic"/></feMerge>
  </filter>

  </defs><rect width="1000" height="1000" fill="url(#bgr1x7327)"/><ellipse cx="500.0" cy="892.0" rx="350.0" ry="65.0" fill="rgba(0,0,0,.7)" filter="url(#bloomr1x7327)"/><ellipse cx="500.0" cy="889.0" rx="220.0" ry="34.0" fill="rgba(0,0,0,.45)"/><polygon points="399.0,661.4 491.2,664.2 482.1,878.9 388.8,877.9" fill="url(#suitr1x7327)" stroke="#ff00ff" stroke-width="2.2" filter="url(#skr1x7327) url(#metalr1x7327)"/><polygon points="398.3,664.1 490.4,661.6 479.5,876.4 386.6,878.8" fill="url(#carbonr1x7327)"/><polygon points="393.7,724.8 494.5,724.4 483.6,790.0 384.9,789.5" fill="url(#bevelr1x7327)" fill-opacity=".5" stroke="#ff00ff" stroke-width="1.4" filter="url(#skr1x7327)"/><polygon points="509.6,663.6 600.7,663.2 611.6,879.2 520.6,877.2" fill="url(#suitr1x7327)" stroke="#ff00ff" stroke-width="2.2" filter="url(#skr1x7327) url(#metalr1x7327)"/><polygon points="511.3,661.0 601.8,663.0 613.0,877.8 518.8,876.5" fill="url(#carbonr1x7327)"/><polygon points="505.6,724.3 609.0,723.9 615.5,789.0 514.3,788.7" fill="url(#bevelr1x7327)" fill-opacity=".5" stroke="#ff00ff" stroke-width="1.4" filter="url(#skr1x7327)"/><rect x="391.1" y="840.2" width="100.3" height="24.7" fill="url(#bevelr1x7327)" stroke="#ff00ff" stroke-width="1" filter="url(#skr1x7327)"/><rect x="506.9"  y="837.4" width="100.3" height="24.7" fill="url(#bevelr1x7327)" stroke="#ff00ff" stroke-width="1" filter="url(#skr1x7327)"/><polygon points="370.8,876.6 498.3,877.6 504.8,921.7 362.8,920.9" fill="#050508" stroke="#ff00ff" stroke-width="2" filter="url(#skr1x7327)"/><polygon points="504.1,876.6 631.3,876.1 638.4,921.8 495.1,921.1" fill="#050508" stroke="#ff00ff" stroke-width="2" filter="url(#skr1x7327)"/><polygon points="303.7,633.8 697.3,633.4 636.7,682.6 363.8,681.3" fill="#ff00ff" fill-opacity=".52" stroke="#ff00ff" stroke-width="2" filter="url(#skr1x7327)"/><rect x="463.1" y="638.9" width="72.0" height="42.0" fill="url(#bevelr1x7327)" stroke="#ff00ff" stroke-width="1.4" filter="url(#glowr1x7327)"/><rect x="485.1" y="640.1" width="28.0" height="22.0" rx="1" fill="rgba(255,255,255,.48)"/><polygon points="151.4,467.1 236.6,465.9 257.5,736.2 126.8,736.4" fill="url(#suitr1x7327)" stroke="#ff00ff" stroke-width="2.2" filter="url(#skr1x7327) url(#metalr1x7327)"/><polygon points="171.8,433.8 252.2,433.9 242.1,510.7 159.0,508.9" fill="url(#bevelr1x7327)" fill-opacity=".72" stroke="#ff00ff" stroke-width="2.2" filter="url(#skr1x7327)"/><polygon points="162.6,620.8 244.6,620.4 239.8,662.6 165.5,659.7" fill="#ff00ff" fill-opacity=".42" stroke="#ff00ff" stroke-width="1" filter="url(#skr1x7327)"/><polygon points="766.7,466.5 845.6,468.1 870.3,735.3 740.7,735.0" fill="url(#suitr1x7327)" stroke="#ff00ff" stroke-width="2.2" filter="url(#skr1x7327) url(#metalr1x7327)"/><polygon points="746.4,430.5 826.9,433.9 841.1,511.1 757.2,510.9" fill="url(#bevelr1x7327)" fill-opacity=".72" stroke="#ff00ff" stroke-width="2.2" filter="url(#skr1x7327)"/><polygon points="758.4,622.3 837.8,620.5 835.1,661.2 760.7,660.4" fill="#ff00ff" fill-opacity=".42" stroke="#ff00ff" stroke-width="1" filter="url(#skr1x7327)"/><rect x="119.6"  y="700.0" width="135.3" height="85.0" rx="4" fill="url(#bevelr1x7327)" stroke="#ff00ff" stroke-width="1.8" filter="url(#skr1x7327)"/><rect x="748.1"   y="699.3" width="135.3" height="85.0" rx="4" fill="url(#bevelr1x7327)" stroke="#ff00ff" stroke-width="1.8" filter="url(#skr1x7327)"/><line x1="150.4" y1="700.8" x2="150.0" y2="783.8" stroke="#ff00ff" stroke-opacity=".38" stroke-width="1"/><line x1="779.2" y1="702.2" x2="777.4" y2="785.6" stroke="#ff00ff" stroke-opacity=".38" stroke-width="1"/><line x1="184.0" y1="701.9" x2="183.3" y2="783.6" stroke="#ff00ff" stroke-opacity=".38" stroke-width="1"/><line x1="810.4" y1="701.1" x2="810.2" y2="782.9" stroke="#ff00ff" stroke-opacity=".38" stroke-width="1"/><line x1="214.0" y1="703.2" x2="217.1" y2="782.6" stroke="#ff00ff" stroke-opacity=".38" stroke-width="1"/><line x1="843.2" y1="703.6" x2="845.5" y2="782.8" stroke="#ff00ff" stroke-opacity=".38" stroke-width="1"/><polygon points="236.1,417.1 766.8,417.7 722.3,664.3 275.8,662.0" fill="url(#suitr1x7327)" stroke="#ff00ff" stroke-width="2.6" filter="url(#skr1x7327) url(#metalr1x7327)"/><polygon points="235.5,417.5 766.2,416.3 721.2,661.9 278.2,664.2" fill="url(#carbonr1x7327)"/><polygon points="367.8,418.8 633.6,419.0 612.9,515.9 389.6,515.4" fill="url(#suitHir1x7327)"/><line x1="363.7" y1="471.1" x2="636.3" y2="469.8" stroke="#ff00ff" stroke-opacity=".52" stroke-width="1.3" filter="url(#skr1x7327)"/><line x1="397.9" y1="549.9" x2="599.8" y2="551.4" stroke="#ff00ff" stroke-opacity=".52" stroke-width="1.3" filter="url(#skr1x7327)"/><line x1="265.3" y1="489.2" x2="320.0" y2="492.2" stroke="#ff00ff" stroke-opacity=".62" stroke-width="1.8"/><line x1="678.7" y1="490.6" x2="734.3" y2="489.4" stroke="#ff00ff" stroke-opacity=".62" stroke-width="1.8"/><line x1="267.8" y1="523.7" x2="319.9" y2="522.6" stroke="#ff00ff" stroke-opacity=".62" stroke-width="1.8"/><line x1="679.8" y1="521.4" x2="732.5" y2="523.0" stroke="#ff00ff" stroke-opacity=".62" stroke-width="1.8"/><line x1="266.6" y1="554.0" x2="318.8" y2="556.3" stroke="#ff00ff" stroke-opacity=".62" stroke-width="1.8"/><line x1="680.5" y1="554.3" x2="733.6" y2="555.7" stroke="#ff00ff" stroke-opacity=".62" stroke-width="1.8"/><line x1="267.3" y1="585.8" x2="321.4" y2="587.4" stroke="#ff00ff" stroke-opacity=".62" stroke-width="1.8"/><line x1="681.4" y1="588.2" x2="733.3" y2="586.5" stroke="#ff00ff" stroke-opacity=".62" stroke-width="1.8"/><g filter="url(#glowr1x7327)"><circle cx="500.0" cy="500.8" r="31.3" fill="#ff00ff" stroke="#050508" stroke-width="1.4" filter="url(#skr1x7327)"/><circle cx="488.7" cy="497.0" r="7.0" fill="#050508"/><circle cx="511.7" cy="498.8" r="7.0" fill="#050508"/><rect x="484.6" y="522.7" width="9.3" height="17.4" rx="1" fill="#ff00ff" stroke="#050508" stroke-width=".6"/><rect x="494.6" y="521.8" width="9.3" height="17.4" rx="1" fill="#ff00ff" stroke="#050508" stroke-width=".6"/><rect x="508.5" y="523.6" width="9.3" height="17.4" rx="1" fill="#ff00ff" stroke="#050508" stroke-width=".6"/></g><g><polygon points="76.2,671.4 128.2,671.4 112.6,-28.6 91.8,-28.6" fill="url(#blader1x7327)" filter="url(#wmr1x7327)"/><polygon points="91.8,-28.6 112.6,-28.6 102.2,-138.6" fill="url(#blader1x7327)" filter="url(#wmr1x7327)"/><polygon points="100.3,671.4 104.0,671.4 102.7,-128.6 101.6,-128.6" fill="url(#bladeTipr1x7327)" opacity=".9"/><line x1="111.17609037121754" y1="672.2878844861872" x2="104.81763289840889" y2="-126.8047681545839" stroke="rgba(255,255,255,.68)" stroke-width="1.5"/><line x1="94.26229925174263" y1="673.013228863757" x2="102.52688515212382" y2="-129.1708505992778" stroke="#ff00ff" stroke-width="1" stroke-opacity=".45"/><line x1="106.8" y1="651.4" x2="104.0" y2="11.4" stroke="rgba(0,0,0,.38)" stroke-width="1.6"/><line x1="97.5" y1="651.4" x2="100.3" y2="11.4" stroke="rgba(0,0,0,.38)" stroke-width="1.6"/><rect x="46.74346407022324" y="670.2457707511261" width="112.0" height="28.0" rx="3" fill="url(#bevelr1x7327)" stroke="#ff00ff" stroke-width="1.6" filter="url(#wmr1x7327)"/><rect x="70.21778275337067" y="674.8499585212209" width="64.0" height="10.0" rx="1" fill="rgba(255,255,255,.32)"/><rect x="90.88423389358442" y="678.540084845759" width="24.0" height="6.0" rx="1" fill="#ff00ff" fill-opacity=".35"/><rect x="91.30091552086171" y="684.2285199991427" width="24.0" height="6.0" rx="1" fill="#ff00ff" fill-opacity=".35"/><rect x="91.6800757756829" y="694.7648864922113" width="24.0" height="6.0" rx="1" fill="#ff00ff" fill-opacity=".35"/><rect x="88.82020075185221" y="702.4422131896018" width="24.0" height="6.0" rx="1" fill="#ff00ff" fill-opacity=".35"/><rect x="90.87304034050551" y="709.278951612953" width="24.0" height="6.0" rx="1" fill="#ff00ff" fill-opacity=".35"/><rect x="90.40390960792077" y="716.631402645912" width="24.0" height="6.0" rx="1" fill="#ff00ff" fill-opacity=".35"/><ellipse cx="100.62838994771239" cy="725.5364043413662" rx="22.0" ry="16.0" fill="url(#bevelr1x7327)" stroke="#ff00ff" stroke-width="1.2" filter="url(#wmr1x7327)"/></g><rect x="448.7244793150574" y="557.300660320092" width="100.0"  height="56.0" fill="#050508" stroke="#ff00ff" stroke-width="2.2" filter="url(#skr1x7327)"/><rect x="424.3937320199795" y="575.8192454204894" width="152.0" height="26.0" fill="url(#bevelr1x7327)" fill-opacity=".65" stroke="#ff00ff" stroke-width="1.2" filter="url(#skr1x7327)"/><polygon points="306.8,382.4 350.1,295.6 499.9,276.5 648.0,295.2 693.0,381.3 667.4,505.3 500.7,566.3 330.4,502.0" fill="url(#suitr1x7327)" stroke="#ff00ff" stroke-width="2.8" filter="url(#skr1x7327) url(#metalr1x7327)"/><polygon points="309.3,381.3 350.5,296.2 501.0,277.2 650.6,296.1 691.6,379.1 670.0,502.1 499.2,565.4 330.3,504.8" fill="url(#carbonr1x7327)"/><polygon points="380.9,303.9 498.4,287.1 620.5,302.9 606.7,380.3 391.9,379.4" fill="url(#suitHir1x7327)"/><polygon points="382.2,379.6 367.2,425.2 433.4,504.5 499.3,528.5 565.5,503.2 634.6,426.0 618.8,380.1" fill="#050508" fill-opacity=".88" stroke="#ff00ff" stroke-width="1.8" filter="url(#skr1x7327)"/><polygon points="382.7,411.5 478.3,409.8 483.8,439.2 389.8,439.9" fill="#ff00ff" filter="url(#glowr1x7327)"/><polygon points="523.3,410.0 619.7,412.5 612.2,438.5 515.1,441.5" fill="#ff00ff" filter="url(#glowr1x7327)"/><ellipse cx="430.9" cy="425.7" rx="38.4"  ry="8.2" fill="#ffffff" opacity=".88"/><ellipse cx="569.1" cy="425.7" rx="38.4"  ry="8.2" fill="#ffffff" opacity=".88"/><line x1="484.91937131961805" y1="412.9946070285514" x2="515.9312285191752" y2="414.9834609034471" stroke="#ff00ff" stroke-opacity=".52" stroke-width="2"/><line x1="485.4507599120587" y1="439.3024499720894" x2="513.5665147738904" y2="438.8116090415977" stroke="#ff00ff" stroke-opacity=".52" stroke-width="2"/><line x1="500.941799082607" y1="453.37674999544396" x2="499.72572295386345" y2="484.85639895573263" stroke="#ff00ff" stroke-opacity=".58" stroke-width="2.2" filter="url(#skr1x7327)"/><line x1="454.7215946839936" y1="492.59885271657254" x2="453.3961730099097" y2="518.527195112221" stroke="#ff00ff" stroke-opacity=".52" stroke-width="1.5" filter="url(#skr1x7327)"/><line x1="478.5034225737117" y1="492.8070160723291" x2="476.251730472818" y2="521.151458323095" stroke="#ff00ff" stroke-opacity=".52" stroke-width="1.5" filter="url(#skr1x7327)"/><line x1="499.91771980691703" y1="491.085439285729" x2="500.17296590870245" y2="519.7200186722912" stroke="#ff00ff" stroke-opacity=".52" stroke-width="1.5" filter="url(#skr1x7327)"/><line x1="522.7618811814673" y1="492.3460252020508" x2="524.6838251019456" y2="519.1719006963074" stroke="#ff00ff" stroke-opacity=".52" stroke-width="1.5" filter="url(#skr1x7327)"/><line x1="547.3958716512844" y1="492.6561964811757" x2="546.9953455489316" y2="519.6249627907761" stroke="#ff00ff" stroke-opacity=".52" stroke-width="1.5" filter="url(#skr1x7327)"/><polygon points="433.8,502.1 567.5,504.0 554.8,556.9 446.1,558.5" fill="#050508" fill-opacity=".72" stroke="#ff00ff" stroke-width="1.3" filter="url(#skr1x7327)"/><path d="M340.8365162709169 370.71546604791655 Q380.2069770870172 238.83165917424483 499.79442722648383 283.29329794486983" stroke="#ff00ff" stroke-width="2.8" fill="none" stroke-opacity=".88" filter="url(#skr1x7327)"/><path d="M656.0975340191834 372.5267757674679 Q618.4051937277056 237.75040614241735 499.2970272321254 283.1442496644333" stroke="#ff00ff" stroke-width="2.8" fill="none" stroke-opacity=".88" filter="url(#skr1x7327)"/><line x1="418.4507495087013" y1="469.91127710975707" x2="439.8617567023635" y2="503.3938019155525" stroke="#ff00ff" stroke-opacity=".52" stroke-width="1.3" filter="url(#skr1x7327)"/><line x1="477.16291932448746" y1="471.2619089862332" x2="496.3446359092742" y2="504.6391358098947" stroke="#ff00ff" stroke-opacity=".52" stroke-width="1.3" filter="url(#skr1x7327)"/><line x1="536.0010790339112" y1="469.9578316684812" x2="553.5712586940639" y2="505.0222203460522" stroke="#ff00ff" stroke-opacity=".52" stroke-width="1.3" filter="url(#skr1x7327)"/><line x1="593.8863643427752" y1="471.94554930934686" x2="611.0158434621432" y2="501.8592011658475" stroke="#ff00ff" stroke-opacity=".52" stroke-width="1.3" filter="url(#skr1x7327)"/><text x="30.0"  y="975.0" font-family="monospace" font-weight="bold" font-size="22.0" fill="rgba(255,255,255,.22)">#0001</text><text x="500.0"   y="975.0" text-anchor="middle" font-family="monospace" font-weight="bold" font-size="22.0" fill="#ff00ff" fill-opacity=".48">VOID RANGER</text><text x="970.0" y="975.0" text-anchor="end"    font-family="monospace" font-weight="bold" font-size="22.0" fill="#ff00ff" fill-opacity=".32">MECH RANGERS</text></svg>