<svg xmlns="http://www.w3.org/2000/svg" viewBox="0 0 1000 1000" width="1000" height="1000" shape-rendering="geometricPrecision"><defs>

  <!-- Scene gradients -->
  <radialGradient id="bgr1x736" cx="50%" cy="42%" r="72%">
    <stop offset="0%"   stop-color="#0a1420"/>
    <stop offset="100%" stop-color="#050d14"/>
  </radialGradient>
  <linearGradient id="suitr1x736" x1="8%" y1="0%" x2="92%" y2="100%">
    <stop offset="0%"   stop-color="#4444ff" stop-opacity=".95"/>
    <stop offset="45%"  stop-color="#141428"/>
    <stop offset="100%" stop-color="#050d14"/>
  </linearGradient>
  <linearGradient id="suitHir1x736" x1="0%" y1="0%" x2="0%" y2="100%">
    <stop offset="0%"   stop-color="rgba(255,255,255,.28)"/>
    <stop offset="60%"  stop-color="rgba(255,255,255,.04)"/>
    <stop offset="100%" stop-color="rgba(255,255,255,0)"/>
  </linearGradient>
  <!-- Bevel: bright top, dark bottom for armour panels -->
  <linearGradient id="bevelr1x736" x1="0%" y1="0%" x2="0%" y2="100%">
    <stop offset="0%"   stop-color="rgba(255,255,255,.55)"/>
    <stop offset="30%"  stop-color="#4444ff"/>
    <stop offset="70%"  stop-color="#141428"/>
    <stop offset="100%" stop-color="rgba(0,0,0,.5)"/>
  </linearGradient>

  <!-- Weapon: cold steel blade sweep -->
  <linearGradient id="blader1x736" x1="0%" y1="0%" x2="100%" y2="0%">
    <stop offset="0%"   stop-color="#0e0e20"/>
    <stop offset="16%"  stop-color="#3e3e58"/>
    <stop offset="34%"  stop-color="#c8c8e0"/>
    <stop offset="50%"  stop-color="#f5f5ff"/>
    <stop offset="66%"  stop-color="#b8b8d0"/>
    <stop offset="84%"  stop-color="#2e2e48"/>
    <stop offset="100%" stop-color="#08080e"/>
  </linearGradient>
  <!-- Blade tip brightening -->
  <linearGradient id="bladeTipr1x736" x1="0%" y1="100%" x2="0%" y2="0%">
    <stop offset="0%"   stop-color="rgba(255,255,255,0)"/>
    <stop offset="55%"  stop-color="rgba(255,255,255,.1)"/>
    <stop offset="100%" stop-color="rgba(255,255,255,.55)"/>
  </linearGradient>
  <!-- Gunmetal anodised — blaster body -->
  <linearGradient id="gunmetalr1x736" x1="0%" y1="0%" x2="0%" y2="100%">
    <stop offset="0%"   stop-color="#46465e"/>
    <stop offset="18%"  stop-color="#828296"/>
    <stop offset="42%"  stop-color="#26263a"/>
    <stop offset="72%"  stop-color="#16162a"/>
    <stop offset="100%" stop-color="#0c0c18"/>
  </linearGradient>
  <!-- Brushed steel tube — barrel/rod -->
  <linearGradient id="barrelr1x736" x1="0%" y1="0%" x2="100%" y2="0%">
    <stop offset="0%"   stop-color="#0a0a14"/>
    <stop offset="24%"  stop-color="#585875"/>
    <stop offset="50%"  stop-color="#a8a8c8"/>
    <stop offset="76%"  stop-color="#383852"/>
    <stop offset="100%" stop-color="#0a0a14"/>
  </linearGradient>
  <!-- Chrome rod — lance shaft -->
  <linearGradient id="chromer1x736" x1="0%" y1="0%" x2="100%" y2="0%">
    <stop offset="0%"   stop-color="#0c0c18"/>
    <stop offset="20%"  stop-color="#686888"/>
    <stop offset="44%"  stop-color="#e0e0f0"/>
    <stop offset="56%"  stop-color="#c0c0d8"/>
    <stop offset="80%"  stop-color="#28283e"/>
    <stop offset="100%" stop-color="#0c0c18"/>
  </linearGradient>
  <!-- Titanium plate — shield face -->
  <linearGradient id="titaniumr1x736" x1="0%" y1="0%" x2="100%" y2="100%">
    <stop offset="0%"   stop-color="#585878"/>
    <stop offset="28%"  stop-color="#4444ff" stop-opacity=".88"/>
    <stop offset="55%"  stop-color="#141428"/>
    <stop offset="80%"  stop-color="#181828"/>
    <stop offset="100%" stop-color="#0a0a18"/>
  </linearGradient>
  <!-- Artillery black-chrome — cannon body -->
  <linearGradient id="artilleryr1x736" x1="0%" y1="0%" x2="0%" y2="100%">
    <stop offset="0%"   stop-color="#383850"/>
    <stop offset="14%"  stop-color="#78789a"/>
    <stop offset="36%"  stop-color="#202034"/>
    <stop offset="65%"  stop-color="#14141e"/>
    <stop offset="100%" stop-color="#0a0a12"/>
  </linearGradient>
  <!-- Energy orb — staff -->
  <radialGradient id="orbr1x736" cx="35%" cy="35%" r="65%">
    <stop offset="0%"   stop-color="rgba(255,255,255,.9)"/>
    <stop offset="30%"  stop-color="#4444ff"/>
    <stop offset="68%"  stop-color="#141428"/>
    <stop offset="100%" stop-color="rgba(0,0,0,.6)"/>
  </radialGradient>
  <!-- Knuckle plate chrome -->
  <linearGradient id="knuckler1x736" x1="0%" y1="0%" x2="0%" y2="100%">
    <stop offset="0%"   stop-color="#888aaa"/>
    <stop offset="32%"  stop-color="#4444ff" stop-opacity=".8"/>
    <stop offset="62%"  stop-color="#1a1a2c"/>
    <stop offset="100%" stop-color="#0a0a14"/>
  </linearGradient>

  <!-- Carbon fibre weave texture overlay -->
  <pattern id="carbonr1x736" width="6" height="6" patternUnits="userSpaceOnUse">
    <rect width="6" height="6" fill="rgba(0,0,0,.08)"/>
    <rect x="0" y="0" width="3" height="3" fill="rgba(255,255,255,.022)"/>
    <rect x="3" y="3" width="3" height="3" fill="rgba(255,255,255,.022)"/>
    <line x1="0" y1="0" x2="3" y2="3" stroke="rgba(255,255,255,.038)" stroke-width=".5"/>
    <line x1="3" y1="0" x2="6" y2="3" stroke="rgba(0,0,0,.055)"       stroke-width=".5"/>
    <line x1="0" y1="3" x2="3" y2="6" stroke="rgba(0,0,0,.055)"       stroke-width=".5"/>
    <line x1="3" y1="3" x2="6" y2="6" stroke="rgba(255,255,255,.038)" stroke-width=".5"/>
  </pattern>

  <!-- Specular metal sheen on armour panels -->
  <filter id="metalr1x736" x="-5%" y="-5%" width="110%" height="110%">
    <feSpecularLighting surfaceScale="4" specularConstant="1.8"
        specularExponent="42" lighting-color="#ffffff" result="spec">
      <feDistantLight elevation="52" azimuth="38"/>
    </feSpecularLighting>
    <feComposite in="spec" in2="SourceGraphic" operator="in" result="sm"/>
    <feComposite in="SourceGraphic" in2="sm" operator="arithmetic" k1="0" k2="1" k3="0.55" k4="0"/>
  </filter>

  <!-- Sharper specular for weapons — heavier glare -->
  <filter id="wmr1x736" x="-8%" y="-8%" width="116%" height="116%">
    <feSpecularLighting surfaceScale="6" specularConstant="2.4"
        specularExponent="65" lighting-color="#ffffff" result="spec">
      <feDistantLight elevation="44" azimuth="28"/>
    </feSpecularLighting>
    <feComposite in="spec" in2="SourceGraphic" operator="in" result="sm"/>
    <feComposite in="SourceGraphic" in2="sm" operator="arithmetic" k1="0" k2="1" k3="0.78" k4="0"/>
  </filter>

  <!-- Sketch wobble -->
  <filter id="skr1x736" x="-8%" y="-8%" width="116%" height="116%">
    <feTurbulence type="fractalNoise" baseFrequency="0.038"
        numOctaves="3" seed="40" result="noise"/>
    <feDisplacementMap in="SourceGraphic" in2="noise" scale="2.6"
        xChannelSelector="R" yChannelSelector="G" result="w"/>
    <feComposite in="w" in2="SourceGraphic" operator="atop"/>
  </filter>

  <!-- Glow: sharp accent -->
  <filter id="glowr1x736" x="-20%" y="-20%" width="140%" height="140%">
    <feGaussianBlur stdDeviation="3.5" result="b"/>
    <feColorMatrix in="b" type="matrix"
        values="0 0 0 0 1  0 0 0 0 1  0 0 0 0 1  0 0 0 1.8 0" result="boost"/>
    <feMerge><feMergeNode in="boost"/><feMergeNode in="SourceGraphic"/></feMerge>
  </filter>

  <!-- Bloom: wide soft -->
  <filter id="bloomr1x736" x="-40%" y="-40%" width="180%" height="180%">
    <feGaussianBlur stdDeviation="11" result="b"/>
    <feMerge><feMergeNode in="b"/><feMergeNode in="SourceGraphic"/></feMerge>
  </filter>

  </defs><rect width="1000" height="1000" fill="url(#bgr1x736)"/><polygon points="233.6927153263241,78.70643510483205 253.65546582546085,43.43111702054739 289.59991105180234,84.64963546488434" fill="#4444ff" fill-opacity=".055" stroke="#4444ff" stroke-opacity=".1" stroke-width="1"/><polygon points="958.2554766396061,2.086244635283947 986.8480845242739,-38.24429448880255 999.8430349426344,7.499542096629739" fill="#4444ff" fill-opacity=".055" stroke="#4444ff" stroke-opacity=".1" stroke-width="1"/><polygon points="825.395898129791,186.82401394937187 845.1546382140368,157.56554077658802 865.2810536818579,198.55079476255924" fill="#4444ff" fill-opacity=".055" stroke="#4444ff" stroke-opacity=".1" stroke-width="1"/><polygon points="823.6406541103497,368.5351718775928 845.7816137541085,329.74555671960115 875.5628171963617,359.14500031620264" fill="#4444ff" fill-opacity=".055" stroke="#4444ff" stroke-opacity=".1" stroke-width="1"/><polygon points="427.59111986495554,109.91091509815305 436.3960409797728,68.53421559371054 454.9190309997648,110.0652515143156" fill="#4444ff" fill-opacity=".055" stroke="#4444ff" stroke-opacity=".1" stroke-width="1"/><polygon points="704.8348081903532,248.9247109182179 733.8123076111078,215.30997568089515 754.3841293528676,246.56820525880903" fill="#4444ff" fill-opacity=".055" stroke="#4444ff" stroke-opacity=".1" stroke-width="1"/><polygon points="665.5484893545508,271.87950029969215 674.6076746266335,220.0476655671373 703.8753983685747,261.86298586428165" fill="#4444ff" fill-opacity=".055" stroke="#4444ff" stroke-opacity=".1" stroke-width="1"/><polygon points="12.002477194182575,466.39068042393774 15.100397512316704,421.27752199582756 42.426011802628636,459.9169065710157" fill="#4444ff" fill-opacity=".055" stroke="#4444ff" stroke-opacity=".1" stroke-width="1"/><ellipse cx="500.0" cy="892.0" rx="350.0" ry="65.0" fill="rgba(0,0,0,.7)" filter="url(#bloomr1x736)"/><ellipse cx="500.0" cy="889.0" rx="220.0" ry="34.0" fill="rgba(0,0,0,.45)"/><ellipse cx="500.0" cy="520.0" rx="320.0" ry="480.0" fill="#ff6600" fill-opacity=".042" filter="url(#bloomr1x736)"/><circle cx="308.4" cy="675.8" r="1.3" fill="#ff6600" fill-opacity="0.87" filter="url(#glowr1x736)"/><circle cx="276.7" cy="663.4" r="0.8" fill="#ff6600" fill-opacity="0.62" filter="url(#glowr1x736)"/><circle cx="414.1" cy="291.3" r="3.3" fill="#ff6600" fill-opacity="0.52" filter="url(#glowr1x736)"/><circle cx="326.8" cy="453.3" r="3.4" fill="#ff6600" fill-opacity="0.40" filter="url(#glowr1x736)"/><circle cx="745.0" cy="206.0" r="3.5" fill="#ff6600" fill-opacity="0.45" filter="url(#glowr1x736)"/><circle cx="494.0" cy="193.7" r="3.6" fill="#ff6600" fill-opacity="0.60" filter="url(#glowr1x736)"/><circle cx="316.0" cy="345.0" r="0.7" fill="#ff6600" fill-opacity="0.86" filter="url(#glowr1x736)"/><circle cx="370.9" cy="472.1" r="2.6" fill="#ff6600" fill-opacity="0.65" filter="url(#glowr1x736)"/><circle cx="488.3" cy="509.5" r="0.5" fill="#ff6600" fill-opacity="0.85" filter="url(#glowr1x736)"/><circle cx="646.5" cy="291.6" r="2.1" fill="#ff6600" fill-opacity="0.70" filter="url(#glowr1x736)"/><circle cx="686.8" cy="529.9" r="0.6" fill="#ff6600" fill-opacity="0.77" filter="url(#glowr1x736)"/><circle cx="263.5" cy="687.8" r="2.2" fill="#ff6600" fill-opacity="0.39" filter="url(#glowr1x736)"/><circle cx="483.1" cy="265.3" r="1.8" fill="#ff6600" fill-opacity="0.53" filter="url(#glowr1x736)"/><circle cx="664.3" cy="409.1" r="3.4" fill="#ff6600" fill-opacity="0.57" filter="url(#glowr1x736)"/><polygon points="398.3,663.8 489.9,661.9 480.0,876.0 389.0,876.8" fill="url(#suitr1x736)" stroke="#4444ff" stroke-width="2.2" filter="url(#skr1x736) url(#metalr1x736)"/><polygon points="397.8,663.6 490.4,662.0 479.8,877.1 387.1,876.7" fill="url(#carbonr1x736)"/><polygon points="391.5,724.5 492.4,724.9 484.1,789.3 383.0,789.9" fill="url(#bevelr1x736)" fill-opacity=".5" stroke="#4444ff" stroke-width="1.4" filter="url(#skr1x736)"/><polygon points="510.2,662.1 601.3,662.6 612.3,876.5 519.4,876.1" fill="url(#suitr1x736)" stroke="#4444ff" stroke-width="2.2" filter="url(#skr1x736) url(#metalr1x736)"/><polygon points="509.9,661.6 601.5,663.2 613.7,878.8 518.8,877.7" fill="url(#carbonr1x736)"/><polygon points="506.5,722.6 606.3,722.0 614.4,787.2 516.6,787.0" fill="url(#bevelr1x736)" fill-opacity=".5" stroke="#4444ff" stroke-width="1.4" filter="url(#skr1x736)"/><rect x="392.4" y="840.3" width="100.3" height="24.7" fill="url(#bevelr1x736)" stroke="#4444ff" stroke-width="1" filter="url(#skr1x736)"/><rect x="508.5"  y="837.9" width="100.3" height="24.7" fill="url(#bevelr1x736)" stroke="#4444ff" stroke-width="1" filter="url(#skr1x736)"/><polygon points="369.4,878.0 498.0,876.7 502.8,921.6 364.2,921.3" fill="#141428" stroke="#4444ff" stroke-width="2" filter="url(#skr1x736)"/><polygon points="502.7,878.4 630.8,878.1 638.1,922.2 494.8,922.5" fill="#141428" stroke="#4444ff" stroke-width="2" filter="url(#skr1x736)"/><polygon points="302.9,633.4 696.2,632.3 636.5,681.3 360.9,682.8" fill="#4444ff" fill-opacity=".52" stroke="#4444ff" stroke-width="2" filter="url(#skr1x736)"/><rect x="463.2" y="639.5" width="72.0" height="42.0" fill="url(#bevelr1x736)" stroke="#4444ff" stroke-width="1.4" filter="url(#glowr1x736)"/><rect x="484.2" y="642.1" width="28.0" height="22.0" rx="1" fill="rgba(255,255,255,.48)"/><polygon points="151.2,468.0 236.3,465.4 259.2,734.6 128.3,734.4" fill="url(#suitr1x736)" stroke="#4444ff" stroke-width="2.2" filter="url(#skr1x736) url(#metalr1x736)"/><polygon points="173.0,432.2 253.3,431.0 242.6,510.8 159.1,509.0" fill="url(#bevelr1x736)" fill-opacity=".72" stroke="#4444ff" stroke-width="2.2" filter="url(#skr1x736)"/><polygon points="159.7,621.6 243.1,623.4 239.6,661.8 165.9,659.6" fill="#4444ff" fill-opacity=".42" stroke="#4444ff" stroke-width="1" filter="url(#skr1x736)"/><polygon points="765.8,467.3 845.5,465.9 870.3,734.7 742.7,733.7" fill="url(#suitr1x736)" stroke="#4444ff" stroke-width="2.2" filter="url(#skr1x736) url(#metalr1x736)"/><polygon points="745.3,432.0 827.7,432.2 840.4,511.5 756.6,509.4" fill="url(#bevelr1x736)" fill-opacity=".72" stroke="#4444ff" stroke-width="2.2" filter="url(#skr1x736)"/><polygon points="757.2,621.0 838.8,623.0 832.9,661.7 760.8,660.6" fill="#4444ff" fill-opacity=".42" stroke="#4444ff" stroke-width="1" filter="url(#skr1x736)"/><rect x="121.6"  y="701.2" width="135.3" height="85.0" rx="4" fill="url(#bevelr1x736)" stroke="#4444ff" stroke-width="1.8" filter="url(#skr1x736)"/><rect x="750.4"   y="699.9" width="135.3" height="85.0" rx="4" fill="url(#bevelr1x736)" stroke="#4444ff" stroke-width="1.8" filter="url(#skr1x736)"/><line x1="148.2" y1="702.8" x2="148.4" y2="782.7" stroke="#4444ff" stroke-opacity=".38" stroke-width="1"/><line x1="777.1" y1="700.6" x2="777.0" y2="784.6" stroke="#4444ff" stroke-opacity=".38" stroke-width="1"/><line x1="180.9" y1="702.7" x2="184.2" y2="783.9" stroke="#4444ff" stroke-opacity=".38" stroke-width="1"/><line x1="811.0" y1="702.4" x2="809.6" y2="785.6" stroke="#4444ff" stroke-opacity=".38" stroke-width="1"/><line x1="216.2" y1="702.8" x2="215.1" y2="784.1" stroke="#4444ff" stroke-opacity=".38" stroke-width="1"/><line x1="844.2" y1="703.5" x2="843.2" y2="785.3" stroke="#4444ff" stroke-opacity=".38" stroke-width="1"/><polygon points="236.5,416.6 763.7,415.8 722.1,662.8 275.9,661.7" fill="url(#suitr1x736)" stroke="#4444ff" stroke-width="2.6" filter="url(#skr1x736) url(#metalr1x736)"/><polygon points="235.0,418.7 766.3,417.2 723.6,661.1 277.0,660.9" fill="url(#carbonr1x736)"/><polygon points="366.0,416.5 633.9,416.6 609.5,515.6 388.3,514.3" fill="url(#suitHir1x736)"/><line x1="363.9" y1="471.8" x2="637.9" y2="470.1" stroke="#4444ff" stroke-opacity=".52" stroke-width="1.3" filter="url(#skr1x736)"/><line x1="399.4" y1="548.5" x2="601.2" y2="550.3" stroke="#4444ff" stroke-opacity=".52" stroke-width="1.3" filter="url(#skr1x736)"/><line x1="266.6" y1="490.6" x2="321.4" y2="491.1" stroke="#4444ff" stroke-opacity=".62" stroke-width="1.8"/><line x1="680.6" y1="491.9" x2="734.9" y2="490.8" stroke="#4444ff" stroke-opacity=".62" stroke-width="1.8"/><line x1="267.2" y1="523.7" x2="321.2" y2="521.6" stroke="#4444ff" stroke-opacity=".62" stroke-width="1.8"/><line x1="680.6" y1="523.7" x2="732.5" y2="523.6" stroke="#4444ff" stroke-opacity=".62" stroke-width="1.8"/><line x1="267.9" y1="554.2" x2="320.6" y2="553.5" stroke="#4444ff" stroke-opacity=".62" stroke-width="1.8"/><line x1="681.2" y1="553.9" x2="732.7" y2="556.2" stroke="#4444ff" stroke-opacity=".62" stroke-width="1.8"/><line x1="265.7" y1="585.0" x2="319.6" y2="585.1" stroke="#4444ff" stroke-opacity=".62" stroke-width="1.8"/><line x1="679.0" y1="585.3" x2="731.8" y2="586.7" stroke="#4444ff" stroke-opacity=".62" stroke-width="1.8"/><g filter="url(#glowr1x736)"><polygon points="463.6,530.9 462.9,496.8 481.9,468.7 501.0,498.0 517.3,469.2 538.7,497.0 537.1,529.7" fill="#4444ff" stroke="#050d14" stroke-width="1.4" filter="url(#skr1x736)"/><polygon points="462.1,529.5 463.3,499.4 481.2,469.3 501.1,499.4 519.9,468.9 536.0,496.9 539.4,529.2" fill="url(#suitHir1x736)" opacity=".38"/></g><g><polygon points="31.6,293.1 171.3,293.6 170.4,592.7 103.7,725.6 33.7,590.0" fill="url(#titaniumr1x736)" stroke="#4444ff" stroke-width="2.6" filter="url(#wmr1x736)"/><polygon points="32.8,293.7 171.6,292.6 172.6,591.1 101.1,726.3 32.9,590.2" fill="url(#carbonr1x736)"/><polygon points="62.5,359.9 138.6,360.9 139.5,540.5 101.8,632.9 62.4,541.9" fill="#4444ff" fill-opacity=".28" stroke="#4444ff" stroke-width="1.5"/><line x1="51.909065581709115" y1="431.3062295151874" x2="152.72606510439886" y2="430.8276624326594" stroke="#4444ff" stroke-opacity=".65" stroke-width="1.3"/><line x1="102.23850952018049" y1="331.226216330193" x2="103.86306220520285" y2="591.5032944147475" stroke="#4444ff" stroke-opacity=".4" stroke-width="1"/><line x1="35.20754388891157" y1="297.8941154717468" x2="170.04110259957608" y2="297.5261191098019" stroke="rgba(255,255,255,.5)" stroke-width="2"/><circle cx="100.87766909081486" cy="432.3336103789508" r="18.0" fill="url(#bevelr1x736)" stroke="#4444ff" stroke-width="1.2" filter="url(#wmr1x736)"/></g><rect x="450.38737137336284" y="555.3680678278207" width="100.0"  height="56.0" fill="#141428" stroke="#4444ff" stroke-width="2.2" filter="url(#skr1x736)"/><rect x="423.7085273521021" y="574.0432772949338" width="152.0" height="26.0" fill="url(#bevelr1x736)" fill-opacity=".65" stroke="#4444ff" stroke-width="1.2" filter="url(#skr1x736)"/><polygon points="307.6,380.1 349.5,293.2 500.4,279.8 650.1,294.7 690.9,379.0 667.9,502.3 500.5,566.0 332.1,504.9" fill="url(#suitr1x736)" stroke="#4444ff" stroke-width="2.8" filter="url(#skr1x736) url(#metalr1x736)"/><polygon points="307.2,381.1 348.7,295.6 501.6,278.2 650.7,293.9 693.5,382.4 669.0,504.2 499.4,565.3 331.1,504.2" fill="url(#carbonr1x736)"/><polygon points="380.6,303.4 498.8,287.0 620.5,303.4 607.5,380.1 392.6,381.3" fill="url(#suitHir1x736)"/><polygon points="380.3,380.5 365.5,426.6 433.2,505.1 501.1,529.4 566.3,505.0 633.4,425.4 617.4,380.9" fill="#050d14" fill-opacity=".88" stroke="#4444ff" stroke-width="1.8" filter="url(#skr1x736)"/><polygon points="382.3,410.3 478.4,413.0 484.5,440.5 389.9,441.3" fill="#4444ff" filter="url(#glowr1x736)"/><polygon points="523.9,411.4 617.8,411.6 611.3,440.4 517.0,441.5" fill="#4444ff" filter="url(#glowr1x736)"/><ellipse cx="430.9" cy="425.7" rx="38.4"  ry="8.2" fill="#ffffff" opacity=".88"/><ellipse cx="569.1" cy="425.7" rx="38.4"  ry="8.2" fill="#ffffff" opacity=".88"/><line x1="485.4488807715103" y1="414.4182228458114" x2="515.2645559181832" y2="413.0824882582761" stroke="#4444ff" stroke-opacity=".52" stroke-width="2"/><line x1="485.4303352525085" y1="438.8027105307207" x2="515.8041049865448" y2="437.1576805343851" stroke="#4444ff" stroke-opacity=".52" stroke-width="2"/><line x1="500.63433782448993" y1="454.0192700879648" x2="499.1214316178113" y2="481.9719178183004" stroke="#4444ff" stroke-opacity=".58" stroke-width="2.2" filter="url(#skr1x736)"/><line x1="454.43671756375585" y1="492.5821284669451" x2="454.1133452313766" y2="518.9570211268962" stroke="#4444ff" stroke-opacity=".52" stroke-width="1.5" filter="url(#skr1x736)"/><line x1="477.6781888490915" y1="491.2508810038678" x2="477.2579436506517" y2="519.3830176243558" stroke="#4444ff" stroke-opacity=".52" stroke-width="1.5" filter="url(#skr1x736)"/><line x1="499.59921431178225" y1="490.8031191128306" x2="500.51948042260483" y2="519.2316216072068" stroke="#4444ff" stroke-opacity=".52" stroke-width="1.5" filter="url(#skr1x736)"/><line x1="523.1156269970909" y1="492.2555337420664" x2="521.9840869391895" y2="519.5247692728415" stroke="#4444ff" stroke-opacity=".52" stroke-width="1.5" filter="url(#skr1x736)"/><line x1="547.1980028308184" y1="490.7249721200205" x2="545.9531936411001" y2="521.4396032791585" stroke="#4444ff" stroke-opacity=".52" stroke-width="1.5" filter="url(#skr1x736)"/><polygon points="432.8,502.9 566.9,503.1 553.2,555.3 445.9,556.2" fill="#141428" fill-opacity=".72" stroke="#4444ff" stroke-width="1.3" filter="url(#skr1x736)"/><text x="30.0"  y="975.0" font-family="monospace" font-weight="bold" font-size="22.0" fill="rgba(255,255,255,.22)">#0001</text><text x="500.0"   y="975.0" text-anchor="middle" font-family="monospace" font-weight="bold" font-size="22.0" fill="#4444ff" fill-opacity=".48">OBSIDIAN RANGER</text><text x="970.0" y="975.0" text-anchor="end"    font-family="monospace" font-weight="bold" font-size="22.0" fill="#4444ff" fill-opacity=".32">MECH RANGERS</text></svg>