<svg xmlns="http://www.w3.org/2000/svg" viewBox="0 0 1000 1000" width="1000" height="1000" shape-rendering="geometricPrecision"><defs>

  <!-- Scene gradients -->
  <radialGradient id="bgr1x7386" cx="50%" cy="42%" r="72%">
    <stop offset="0%"   stop-color="#001e1e"/>
    <stop offset="100%" stop-color="#0e001e"/>
  </radialGradient>
  <linearGradient id="suitr1x7386" x1="8%" y1="0%" x2="92%" y2="100%">
    <stop offset="0%"   stop-color="#00ff60" stop-opacity=".95"/>
    <stop offset="45%"  stop-color="#00441e"/>
    <stop offset="100%" stop-color="#0e001e"/>
  </linearGradient>
  <linearGradient id="suitHir1x7386" x1="0%" y1="0%" x2="0%" y2="100%">
    <stop offset="0%"   stop-color="rgba(255,255,255,.28)"/>
    <stop offset="60%"  stop-color="rgba(255,255,255,.04)"/>
    <stop offset="100%" stop-color="rgba(255,255,255,0)"/>
  </linearGradient>
  <!-- Bevel: bright top, dark bottom for armour panels -->
  <linearGradient id="bevelr1x7386" x1="0%" y1="0%" x2="0%" y2="100%">
    <stop offset="0%"   stop-color="rgba(255,255,255,.55)"/>
    <stop offset="30%"  stop-color="#00ff60"/>
    <stop offset="70%"  stop-color="#00441e"/>
    <stop offset="100%" stop-color="rgba(0,0,0,.5)"/>
  </linearGradient>

  <!-- Weapon: cold steel blade sweep -->
  <linearGradient id="blader1x7386" x1="0%" y1="0%" x2="100%" y2="0%">
    <stop offset="0%"   stop-color="#0e0e20"/>
    <stop offset="16%"  stop-color="#3e3e58"/>
    <stop offset="34%"  stop-color="#c8c8e0"/>
    <stop offset="50%"  stop-color="#f5f5ff"/>
    <stop offset="66%"  stop-color="#b8b8d0"/>
    <stop offset="84%"  stop-color="#2e2e48"/>
    <stop offset="100%" stop-color="#08080e"/>
  </linearGradient>
  <!-- Blade tip brightening -->
  <linearGradient id="bladeTipr1x7386" x1="0%" y1="100%" x2="0%" y2="0%">
    <stop offset="0%"   stop-color="rgba(255,255,255,0)"/>
    <stop offset="55%"  stop-color="rgba(255,255,255,.1)"/>
    <stop offset="100%" stop-color="rgba(255,255,255,.55)"/>
  </linearGradient>
  <!-- Gunmetal anodised — blaster body -->
  <linearGradient id="gunmetalr1x7386" x1="0%" y1="0%" x2="0%" y2="100%">
    <stop offset="0%"   stop-color="#46465e"/>
    <stop offset="18%"  stop-color="#828296"/>
    <stop offset="42%"  stop-color="#26263a"/>
    <stop offset="72%"  stop-color="#16162a"/>
    <stop offset="100%" stop-color="#0c0c18"/>
  </linearGradient>
  <!-- Brushed steel tube — barrel/rod -->
  <linearGradient id="barrelr1x7386" x1="0%" y1="0%" x2="100%" y2="0%">
    <stop offset="0%"   stop-color="#0a0a14"/>
    <stop offset="24%"  stop-color="#585875"/>
    <stop offset="50%"  stop-color="#a8a8c8"/>
    <stop offset="76%"  stop-color="#383852"/>
    <stop offset="100%" stop-color="#0a0a14"/>
  </linearGradient>
  <!-- Chrome rod — lance shaft -->
  <linearGradient id="chromer1x7386" x1="0%" y1="0%" x2="100%" y2="0%">
    <stop offset="0%"   stop-color="#0c0c18"/>
    <stop offset="20%"  stop-color="#686888"/>
    <stop offset="44%"  stop-color="#e0e0f0"/>
    <stop offset="56%"  stop-color="#c0c0d8"/>
    <stop offset="80%"  stop-color="#28283e"/>
    <stop offset="100%" stop-color="#0c0c18"/>
  </linearGradient>
  <!-- Titanium plate — shield face -->
  <linearGradient id="titaniumr1x7386" x1="0%" y1="0%" x2="100%" y2="100%">
    <stop offset="0%"   stop-color="#585878"/>
    <stop offset="28%"  stop-color="#00ff60" stop-opacity=".88"/>
    <stop offset="55%"  stop-color="#00441e"/>
    <stop offset="80%"  stop-color="#181828"/>
    <stop offset="100%" stop-color="#0a0a18"/>
  </linearGradient>
  <!-- Artillery black-chrome — cannon body -->
  <linearGradient id="artilleryr1x7386" x1="0%" y1="0%" x2="0%" y2="100%">
    <stop offset="0%"   stop-color="#383850"/>
    <stop offset="14%"  stop-color="#78789a"/>
    <stop offset="36%"  stop-color="#202034"/>
    <stop offset="65%"  stop-color="#14141e"/>
    <stop offset="100%" stop-color="#0a0a12"/>
  </linearGradient>
  <!-- Energy orb — staff -->
  <radialGradient id="orbr1x7386" cx="35%" cy="35%" r="65%">
    <stop offset="0%"   stop-color="rgba(255,255,255,.9)"/>
    <stop offset="30%"  stop-color="#00ff60"/>
    <stop offset="68%"  stop-color="#00441e"/>
    <stop offset="100%" stop-color="rgba(0,0,0,.6)"/>
  </radialGradient>
  <!-- Knuckle plate chrome -->
  <linearGradient id="knuckler1x7386" x1="0%" y1="0%" x2="0%" y2="100%">
    <stop offset="0%"   stop-color="#888aaa"/>
    <stop offset="32%"  stop-color="#00ff60" stop-opacity=".8"/>
    <stop offset="62%"  stop-color="#1a1a2c"/>
    <stop offset="100%" stop-color="#0a0a14"/>
  </linearGradient>

  <!-- Carbon fibre weave texture overlay -->
  <pattern id="carbonr1x7386" width="6" height="6" patternUnits="userSpaceOnUse">
    <rect width="6" height="6" fill="rgba(0,0,0,.08)"/>
    <rect x="0" y="0" width="3" height="3" fill="rgba(255,255,255,.022)"/>
    <rect x="3" y="3" width="3" height="3" fill="rgba(255,255,255,.022)"/>
    <line x1="0" y1="0" x2="3" y2="3" stroke="rgba(255,255,255,.038)" stroke-width=".5"/>
    <line x1="3" y1="0" x2="6" y2="3" stroke="rgba(0,0,0,.055)"       stroke-width=".5"/>
    <line x1="0" y1="3" x2="3" y2="6" stroke="rgba(0,0,0,.055)"       stroke-width=".5"/>
    <line x1="3" y1="3" x2="6" y2="6" stroke="rgba(255,255,255,.038)" stroke-width=".5"/>
  </pattern>

  <!-- Specular metal sheen on armour panels -->
  <filter id="metalr1x7386" x="-5%" y="-5%" width="110%" height="110%">
    <feSpecularLighting surfaceScale="4" specularConstant="1.8"
        specularExponent="42" lighting-color="#ffffff" result="spec">
      <feDistantLight elevation="52" azimuth="38"/>
    </feSpecularLighting>
    <feComposite in="spec" in2="SourceGraphic" operator="in" result="sm"/>
    <feComposite in="SourceGraphic" in2="sm" operator="arithmetic" k1="0" k2="1" k3="0.55" k4="0"/>
  </filter>

  <!-- Sharper specular for weapons — heavier glare -->
  <filter id="wmr1x7386" x="-8%" y="-8%" width="116%" height="116%">
    <feSpecularLighting surfaceScale="6" specularConstant="2.4"
        specularExponent="65" lighting-color="#ffffff" result="spec">
      <feDistantLight elevation="44" azimuth="28"/>
    </feSpecularLighting>
    <feComposite in="spec" in2="SourceGraphic" operator="in" result="sm"/>
    <feComposite in="SourceGraphic" in2="sm" operator="arithmetic" k1="0" k2="1" k3="0.78" k4="0"/>
  </filter>

  <!-- Sketch wobble -->
  <filter id="skr1x7386" x="-8%" y="-8%" width="116%" height="116%">
    <feTurbulence type="fractalNoise" baseFrequency="0.038"
        numOctaves="3" seed="33" result="noise"/>
    <feDisplacementMap in="SourceGraphic" in2="noise" scale="2.6"
        xChannelSelector="R" yChannelSelector="G" result="w"/>
    <feComposite in="w" in2="SourceGraphic" operator="atop"/>
  </filter>

  <!-- Glow: sharp accent -->
  <filter id="glowr1x7386" x="-20%" y="-20%" width="140%" height="140%">
    <feGaussianBlur stdDeviation="3.5" result="b"/>
    <feColorMatrix in="b" type="matrix"
        values="0 0 0 0 1  0 0 0 0 1  0 0 0 0 1  0 0 0 1.8 0" result="boost"/>
    <feMerge><feMergeNode in="boost"/><feMergeNode in="SourceGraphic"/></feMerge>
  </filter>

  <!-- Bloom: wide soft -->
  <filter id="bloomr1x7386" x="-40%" y="-40%" width="180%" height="180%">
    <feGaussianBlur stdDeviation="11" result="b"/>
    <feMerge><feMergeNode in="b"/><feMergeNode in="SourceGraphic"/></feMerge>
  </filter>

  </defs><rect width="1000" height="1000" fill="url(#bgr1x7386)"/><circle cx="500" cy="500" r="420.0" fill="none" stroke="#00ff60" stroke-opacity=".11" stroke-width="42" stroke-dasharray="8,5"/><circle cx="500" cy="500" r="240.0" fill="none" stroke="#00441e" stroke-opacity=".09" stroke-width="18"/><line x1="500" y1="500" x2="1500.0" y2="500.0" stroke="#00ff60" stroke-opacity=".035" stroke-width="1.2"/><line x1="500" y1="500" x2="1366.0" y2="1000.0" stroke="#00ff60" stroke-opacity=".035" stroke-width="1.2"/><line x1="500" y1="500" x2="1000.0" y2="1366.0" stroke="#00ff60" stroke-opacity=".035" stroke-width="1.2"/><line x1="500" y1="500" x2="500.0" y2="1500.0" stroke="#00ff60" stroke-opacity=".035" stroke-width="1.2"/><line x1="500" y1="500" x2="0.0" y2="1366.0" stroke="#00ff60" stroke-opacity=".035" stroke-width="1.2"/><line x1="500" y1="500" x2="-366.0" y2="1000.0" stroke="#00ff60" stroke-opacity=".035" stroke-width="1.2"/><line x1="500" y1="500" x2="-500.0" y2="500.0" stroke="#00ff60" stroke-opacity=".035" stroke-width="1.2"/><line x1="500" y1="500" x2="-366.0" y2="-0.0" stroke="#00ff60" stroke-opacity=".035" stroke-width="1.2"/><line x1="500" y1="500" x2="-0.0" y2="-366.0" stroke="#00ff60" stroke-opacity=".035" stroke-width="1.2"/><line x1="500" y1="500" x2="500.0" y2="-500.0" stroke="#00ff60" stroke-opacity=".035" stroke-width="1.2"/><line x1="500" y1="500" x2="1000.0" y2="-366.0" stroke="#00ff60" stroke-opacity=".035" stroke-width="1.2"/><line x1="500" y1="500" x2="1366.0" y2="-0.0" stroke="#00ff60" stroke-opacity=".035" stroke-width="1.2"/><ellipse cx="500.0" cy="892.0" rx="350.0" ry="65.0" fill="rgba(0,0,0,.7)" filter="url(#bloomr1x7386)"/><ellipse cx="500.0" cy="889.0" rx="220.0" ry="34.0" fill="rgba(0,0,0,.45)"/><polygon points="397.8,660.7 489.5,661.2 481.6,878.1 387.1,879.1" fill="url(#suitr1x7386)" stroke="#00ff60" stroke-width="2.2" filter="url(#skr1x7386) url(#metalr1x7386)"/><polygon points="399.4,661.3 490.5,662.5 480.4,878.1 388.8,877.6" fill="url(#carbonr1x7386)"/><polygon points="392.2,724.4 494.6,722.4 483.4,787.1 384.9,787.3" fill="url(#bevelr1x7386)" fill-opacity=".5" stroke="#00ff60" stroke-width="1.4" filter="url(#skr1x7386)"/><polygon points="510.8,661.2 600.7,661.1 611.7,877.5 520.2,876.0" fill="url(#suitr1x7386)" stroke="#00ff60" stroke-width="2.2" filter="url(#skr1x7386) url(#metalr1x7386)"/><polygon points="509.4,661.9 599.7,664.1 613.8,878.8 519.6,876.7" fill="url(#carbonr1x7386)"/><polygon points="508.6,725.4 608.4,723.3 615.4,787.6 517.6,786.5" fill="url(#bevelr1x7386)" fill-opacity=".5" stroke="#00ff60" stroke-width="1.4" filter="url(#skr1x7386)"/><rect x="392.2" y="839.0" width="100.3" height="24.7" fill="url(#bevelr1x7386)" stroke="#00ff60" stroke-width="1" filter="url(#skr1x7386)"/><rect x="507.0"  y="839.9" width="100.3" height="24.7" fill="url(#bevelr1x7386)" stroke="#00ff60" stroke-width="1" filter="url(#skr1x7386)"/><polygon points="368.2,877.4 496.4,878.8 502.1,922.0 362.7,920.7" fill="#00441e" stroke="#00ff60" stroke-width="2" filter="url(#skr1x7386)"/><polygon points="504.2,877.1 631.0,876.8 638.6,921.9 496.2,921.1" fill="#00441e" stroke="#00ff60" stroke-width="2" filter="url(#skr1x7386)"/><polygon points="305.2,633.4 695.7,634.1 636.2,683.0 361.2,681.9" fill="#00ff60" fill-opacity=".52" stroke="#00ff60" stroke-width="2" filter="url(#skr1x7386)"/><rect x="464.1" y="636.6" width="72.0" height="42.0" fill="url(#bevelr1x7386)" stroke="#00ff60" stroke-width="1.4" filter="url(#glowr1x7386)"/><rect x="486.3" y="639.4" width="28.0" height="22.0" rx="1" fill="rgba(255,255,255,.48)"/><polygon points="152.5,465.8 235.7,466.2 256.7,734.3 129.4,736.1" fill="url(#suitr1x7386)" stroke="#00ff60" stroke-width="2.2" filter="url(#skr1x7386) url(#metalr1x7386)"/><polygon points="173.3,431.1 252.7,433.2 244.7,509.2 159.6,509.2" fill="url(#bevelr1x7386)" fill-opacity=".72" stroke="#00ff60" stroke-width="2.2" filter="url(#skr1x7386)"/><polygon points="160.1,621.6 241.8,622.3 237.7,662.2 166.2,660.8" fill="#00ff60" fill-opacity=".42" stroke="#00ff60" stroke-width="1" filter="url(#skr1x7386)"/><polygon points="766.7,466.7 847.3,464.7 871.5,736.3 741.8,733.8" fill="url(#suitr1x7386)" stroke="#00ff60" stroke-width="2.2" filter="url(#skr1x7386) url(#metalr1x7386)"/><polygon points="746.6,432.5 825.1,433.6 841.2,510.8 756.1,512.2" fill="url(#bevelr1x7386)" fill-opacity=".72" stroke="#00ff60" stroke-width="2.2" filter="url(#skr1x7386)"/><polygon points="758.3,620.2 838.6,622.7 834.6,661.4 760.3,660.7" fill="#00ff60" fill-opacity=".42" stroke="#00ff60" stroke-width="1" filter="url(#skr1x7386)"/><rect x="121.0"  y="701.5" width="135.3" height="85.0" rx="4" fill="url(#bevelr1x7386)" stroke="#00ff60" stroke-width="1.8" filter="url(#skr1x7386)"/><rect x="749.8"   y="701.1" width="135.3" height="85.0" rx="4" fill="url(#bevelr1x7386)" stroke="#00ff60" stroke-width="1.8" filter="url(#skr1x7386)"/><line x1="150.3" y1="703.4" x2="150.5" y2="784.2" stroke="#00ff60" stroke-opacity=".38" stroke-width="1"/><line x1="778.9" y1="701.6" x2="778.7" y2="783.4" stroke="#00ff60" stroke-opacity=".38" stroke-width="1"/><line x1="181.6" y1="701.3" x2="181.6" y2="785.0" stroke="#00ff60" stroke-opacity=".38" stroke-width="1"/><line x1="812.3" y1="700.8" x2="811.4" y2="785.5" stroke="#00ff60" stroke-opacity=".38" stroke-width="1"/><line x1="215.4" y1="703.4" x2="216.6" y2="782.6" stroke="#00ff60" stroke-opacity=".38" stroke-width="1"/><line x1="843.1" y1="702.1" x2="844.8" y2="784.2" stroke="#00ff60" stroke-opacity=".38" stroke-width="1"/><polygon points="233.3,415.8 763.9,417.8 723.0,660.8 278.9,661.4" fill="url(#suitr1x7386)" stroke="#00ff60" stroke-width="2.6" filter="url(#skr1x7386) url(#metalr1x7386)"/><polygon points="235.2,416.4 765.3,416.2 722.7,660.8 276.7,661.9" fill="url(#carbonr1x7386)"/><polygon points="369.0,418.9 631.7,417.2 609.5,515.3 388.0,516.1" fill="url(#suitHir1x7386)"/><line x1="362.2" y1="472.5" x2="637.8" y2="471.7" stroke="#00ff60" stroke-opacity=".52" stroke-width="1.3" filter="url(#skr1x7386)"/><line x1="397.6" y1="549.3" x2="602.1" y2="549.3" stroke="#00ff60" stroke-opacity=".52" stroke-width="1.3" filter="url(#skr1x7386)"/><line x1="265.8" y1="492.6" x2="319.4" y2="489.2" stroke="#00ff60" stroke-opacity=".62" stroke-width="1.8"/><line x1="678.7" y1="489.8" x2="734.3" y2="490.6" stroke="#00ff60" stroke-opacity=".62" stroke-width="1.8"/><line x1="266.3" y1="522.2" x2="318.3" y2="521.1" stroke="#00ff60" stroke-opacity=".62" stroke-width="1.8"/><line x1="678.9" y1="524.4" x2="732.2" y2="524.3" stroke="#00ff60" stroke-opacity=".62" stroke-width="1.8"/><line x1="267.1" y1="554.4" x2="320.1" y2="555.3" stroke="#00ff60" stroke-opacity=".62" stroke-width="1.8"/><line x1="681.9" y1="553.4" x2="734.5" y2="554.2" stroke="#00ff60" stroke-opacity=".62" stroke-width="1.8"/><line x1="267.2" y1="586.1" x2="321.3" y2="587.7" stroke="#00ff60" stroke-opacity=".62" stroke-width="1.8"/><line x1="680.1" y1="587.8" x2="734.8" y2="585.6" stroke="#00ff60" stroke-opacity=".62" stroke-width="1.8"/><g filter="url(#glowr1x7386)"><ellipse cx="500.6" cy="508.8" rx="42.9" ry="23.2" fill="#0e001e" stroke="#00ff60" stroke-width="1.6" filter="url(#skr1x7386)"/><circle cx="500.4" cy="511.1" r="15.1" fill="#00ff60"/><circle cx="497.0" cy="508.4" r="5.8" fill="#0e001e"/><ellipse cx="495.6" cy="504.0" rx="3.5" ry="2.3" fill="rgba(255,255,255,.7)"/></g><g><polygon points="827.5,294.5 966.2,293.0 966.6,591.0 899.5,725.9 828.4,590.7" fill="url(#titaniumr1x7386)" stroke="#00ff60" stroke-width="2.6" filter="url(#wmr1x7386)"/><polygon points="828.3,294.4 967.1,292.0 967.8,589.6 897.5,727.6 829.1,591.3" fill="url(#carbonr1x7386)"/><polygon points="861.5,362.4 936.3,361.9 934.1,540.3 898.7,633.0 859.7,542.7" fill="#00ff60" fill-opacity=".28" stroke="#00ff60" stroke-width="1.5"/><line x1="845.1188481623866" y1="431.227231017407" x2="949.9393542438373" y2="432.10766452727836" stroke="#00ff60" stroke-opacity=".65" stroke-width="1.3"/><line x1="896.5267023901083" y1="330.99965938245873" x2="896.1505931472034" y2="591.1880111981183" stroke="#00ff60" stroke-opacity=".4" stroke-width="1"/><line x1="829.9061677989177" y1="297.11022415431216" x2="964.7850122417882" y2="297.6438554976135" stroke="rgba(255,255,255,.5)" stroke-width="2"/><circle cx="897.5486631649175" cy="431.266391425766" r="18.0" fill="url(#bevelr1x7386)" stroke="#00ff60" stroke-width="1.2" filter="url(#wmr1x7386)"/></g><rect x="450.5270392882638" y="557.1387874319217" width="100.0"  height="56.0" fill="#00441e" stroke="#00ff60" stroke-width="2.2" filter="url(#skr1x7386)"/><rect x="422.765619284194" y="573.8534285099246" width="152.0" height="26.0" fill="url(#bevelr1x7386)" fill-opacity=".65" stroke="#00ff60" stroke-width="1.2" filter="url(#skr1x7386)"/><polygon points="306.8,381.2 349.2,293.2 499.3,279.6 648.7,295.3 692.6,378.9 669.1,505.3 499.9,565.6 330.6,501.8" fill="url(#suitr1x7386)" stroke="#00ff60" stroke-width="2.8" filter="url(#skr1x7386) url(#metalr1x7386)"/><polygon points="307.2,380.0 351.2,296.0 500.4,279.1 648.7,295.4 690.9,380.1 667.9,502.1 500.9,565.2 331.9,503.0" fill="url(#carbonr1x7386)"/><polygon points="380.3,303.1 500.6,287.2 619.2,302.6 607.6,380.4 392.8,381.2" fill="url(#suitHir1x7386)"/><polygon points="381.6,380.9 364.2,424.9 432.5,504.6 499.6,526.9 565.7,505.1 635.9,427.3 619.6,382.3" fill="#0e001e" fill-opacity=".88" stroke="#00ff60" stroke-width="1.8" filter="url(#skr1x7386)"/><polygon points="381.3,412.5 475.7,412.8 482.9,441.8 390.0,441.0" fill="#00ff60" filter="url(#glowr1x7386)"/><polygon points="523.9,411.2 619.0,410.5 613.0,441.1 514.5,438.6" fill="#00ff60" filter="url(#glowr1x7386)"/><ellipse cx="430.9" cy="425.7" rx="38.4"  ry="8.2" fill="#ffffff" opacity=".88"/><ellipse cx="569.1" cy="425.7" rx="38.4"  ry="8.2" fill="#ffffff" opacity=".88"/><line x1="485.65736819762736" y1="414.03893212834373" x2="515.1676601913199" y2="412.8362684830092" stroke="#00ff60" stroke-opacity=".52" stroke-width="2"/><line x1="485.68894865229726" y1="437.8403609971516" x2="514.1626625964791" y2="438.3482133303769" stroke="#00ff60" stroke-opacity=".52" stroke-width="2"/><line x1="501.7806742071174" y1="454.65759817613286" x2="499.3199997480027" y2="484.0079850460403" stroke="#00ff60" stroke-opacity=".58" stroke-width="2.2" filter="url(#skr1x7386)"/><line x1="454.1041231304221" y1="492.1363121665082" x2="454.42575843239206" y2="518.3152768440544" stroke="#00ff60" stroke-opacity=".52" stroke-width="1.5" filter="url(#skr1x7386)"/><line x1="476.67740972781553" y1="491.35156794600186" x2="477.8354787565209" y2="518.8718677045778" stroke="#00ff60" stroke-opacity=".52" stroke-width="1.5" filter="url(#skr1x7386)"/><line x1="501.3727976953611" y1="489.9672096347436" x2="498.2790120043792" y2="518.2988033566623" stroke="#00ff60" stroke-opacity=".52" stroke-width="1.5" filter="url(#skr1x7386)"/><line x1="523.3617764540575" y1="491.2067399479448" x2="523.3796753092296" y2="518.3311511460691" stroke="#00ff60" stroke-opacity=".52" stroke-width="1.5" filter="url(#skr1x7386)"/><line x1="545.8638792710566" y1="492.22118479842317" x2="545.714055833891" y2="519.5357481092215" stroke="#00ff60" stroke-opacity=".52" stroke-width="1.5" filter="url(#skr1x7386)"/><polygon points="431.5,501.9 568.2,505.1 552.8,557.3 447.7,557.5" fill="#00441e" fill-opacity=".72" stroke="#00ff60" stroke-width="1.3" filter="url(#skr1x7386)"/><path d="M390.07149148197846 326.1163086642511 Q329.6092749600857 217.78788850503042 379.7067550936155 141.37638642089442" stroke="#00ff60" stroke-width="5" fill="none" stroke-linecap="round" filter="url(#skr1x7386)"/><path d="M387.9134217207879 326.5228730896488 Q331.45570109548044 217.29074214790015 379.3615793381259 142.54496814236046" stroke="rgba(255,255,255,.25)" stroke-width="1.5" fill="none" stroke-linecap="round"/><path d="M609.7984493931197 328.40234228577464 Q668.7264092072286 216.6082389816642 620.3394415109045 141.90891316263006" stroke="#00ff60" stroke-width="5" fill="none" stroke-linecap="round" filter="url(#skr1x7386)"/><path d="M612.4810175524466 328.319863051828 Q667.8377593828739 217.04511138824745 619.2475067250058 139.9924385420978" stroke="rgba(255,255,255,.25)" stroke-width="1.5" fill="none" stroke-linecap="round"/><text x="30.0"  y="975.0" font-family="monospace" font-weight="bold" font-size="22.0" fill="rgba(255,255,255,.22)">#0001</text><text x="500.0"   y="975.0" text-anchor="middle" font-family="monospace" font-weight="bold" font-size="22.0" fill="#00ff60" fill-opacity=".48">VIPER RANGER</text><text x="970.0" y="975.0" text-anchor="end"    font-family="monospace" font-weight="bold" font-size="22.0" fill="#00ff60" fill-opacity=".32">MECH RANGERS</text></svg>