<svg xmlns="http://www.w3.org/2000/svg" viewBox="0 0 1000 1000" width="1000" height="1000" shape-rendering="geometricPrecision"><defs>

  <!-- Scene gradients -->
  <radialGradient id="bgr1x7449" cx="50%" cy="42%" r="72%">
    <stop offset="0%"   stop-color="#0a1420"/>
    <stop offset="100%" stop-color="#050d14"/>
  </radialGradient>
  <linearGradient id="suitr1x7449" x1="8%" y1="0%" x2="92%" y2="100%">
    <stop offset="0%"   stop-color="#ffd700" stop-opacity=".95"/>
    <stop offset="45%"  stop-color="#503400"/>
    <stop offset="100%" stop-color="#050d14"/>
  </linearGradient>
  <linearGradient id="suitHir1x7449" x1="0%" y1="0%" x2="0%" y2="100%">
    <stop offset="0%"   stop-color="rgba(255,255,255,.28)"/>
    <stop offset="60%"  stop-color="rgba(255,255,255,.04)"/>
    <stop offset="100%" stop-color="rgba(255,255,255,0)"/>
  </linearGradient>
  <!-- Bevel: bright top, dark bottom for armour panels -->
  <linearGradient id="bevelr1x7449" x1="0%" y1="0%" x2="0%" y2="100%">
    <stop offset="0%"   stop-color="rgba(255,255,255,.55)"/>
    <stop offset="30%"  stop-color="#ffd700"/>
    <stop offset="70%"  stop-color="#503400"/>
    <stop offset="100%" stop-color="rgba(0,0,0,.5)"/>
  </linearGradient>

  <!-- Weapon: cold steel blade sweep -->
  <linearGradient id="blader1x7449" x1="0%" y1="0%" x2="100%" y2="0%">
    <stop offset="0%"   stop-color="#0e0e20"/>
    <stop offset="16%"  stop-color="#3e3e58"/>
    <stop offset="34%"  stop-color="#c8c8e0"/>
    <stop offset="50%"  stop-color="#f5f5ff"/>
    <stop offset="66%"  stop-color="#b8b8d0"/>
    <stop offset="84%"  stop-color="#2e2e48"/>
    <stop offset="100%" stop-color="#08080e"/>
  </linearGradient>
  <!-- Blade tip brightening -->
  <linearGradient id="bladeTipr1x7449" x1="0%" y1="100%" x2="0%" y2="0%">
    <stop offset="0%"   stop-color="rgba(255,255,255,0)"/>
    <stop offset="55%"  stop-color="rgba(255,255,255,.1)"/>
    <stop offset="100%" stop-color="rgba(255,255,255,.55)"/>
  </linearGradient>
  <!-- Gunmetal anodised — blaster body -->
  <linearGradient id="gunmetalr1x7449" x1="0%" y1="0%" x2="0%" y2="100%">
    <stop offset="0%"   stop-color="#46465e"/>
    <stop offset="18%"  stop-color="#828296"/>
    <stop offset="42%"  stop-color="#26263a"/>
    <stop offset="72%"  stop-color="#16162a"/>
    <stop offset="100%" stop-color="#0c0c18"/>
  </linearGradient>
  <!-- Brushed steel tube — barrel/rod -->
  <linearGradient id="barrelr1x7449" x1="0%" y1="0%" x2="100%" y2="0%">
    <stop offset="0%"   stop-color="#0a0a14"/>
    <stop offset="24%"  stop-color="#585875"/>
    <stop offset="50%"  stop-color="#a8a8c8"/>
    <stop offset="76%"  stop-color="#383852"/>
    <stop offset="100%" stop-color="#0a0a14"/>
  </linearGradient>
  <!-- Chrome rod — lance shaft -->
  <linearGradient id="chromer1x7449" x1="0%" y1="0%" x2="100%" y2="0%">
    <stop offset="0%"   stop-color="#0c0c18"/>
    <stop offset="20%"  stop-color="#686888"/>
    <stop offset="44%"  stop-color="#e0e0f0"/>
    <stop offset="56%"  stop-color="#c0c0d8"/>
    <stop offset="80%"  stop-color="#28283e"/>
    <stop offset="100%" stop-color="#0c0c18"/>
  </linearGradient>
  <!-- Titanium plate — shield face -->
  <linearGradient id="titaniumr1x7449" x1="0%" y1="0%" x2="100%" y2="100%">
    <stop offset="0%"   stop-color="#585878"/>
    <stop offset="28%"  stop-color="#ffd700" stop-opacity=".88"/>
    <stop offset="55%"  stop-color="#503400"/>
    <stop offset="80%"  stop-color="#181828"/>
    <stop offset="100%" stop-color="#0a0a18"/>
  </linearGradient>
  <!-- Artillery black-chrome — cannon body -->
  <linearGradient id="artilleryr1x7449" x1="0%" y1="0%" x2="0%" y2="100%">
    <stop offset="0%"   stop-color="#383850"/>
    <stop offset="14%"  stop-color="#78789a"/>
    <stop offset="36%"  stop-color="#202034"/>
    <stop offset="65%"  stop-color="#14141e"/>
    <stop offset="100%" stop-color="#0a0a12"/>
  </linearGradient>
  <!-- Energy orb — staff -->
  <radialGradient id="orbr1x7449" cx="35%" cy="35%" r="65%">
    <stop offset="0%"   stop-color="rgba(255,255,255,.9)"/>
    <stop offset="30%"  stop-color="#ffd700"/>
    <stop offset="68%"  stop-color="#503400"/>
    <stop offset="100%" stop-color="rgba(0,0,0,.6)"/>
  </radialGradient>
  <!-- Knuckle plate chrome -->
  <linearGradient id="knuckler1x7449" x1="0%" y1="0%" x2="0%" y2="100%">
    <stop offset="0%"   stop-color="#888aaa"/>
    <stop offset="32%"  stop-color="#ffd700" stop-opacity=".8"/>
    <stop offset="62%"  stop-color="#1a1a2c"/>
    <stop offset="100%" stop-color="#0a0a14"/>
  </linearGradient>

  <!-- Carbon fibre weave texture overlay -->
  <pattern id="carbonr1x7449" width="6" height="6" patternUnits="userSpaceOnUse">
    <rect width="6" height="6" fill="rgba(0,0,0,.08)"/>
    <rect x="0" y="0" width="3" height="3" fill="rgba(255,255,255,.022)"/>
    <rect x="3" y="3" width="3" height="3" fill="rgba(255,255,255,.022)"/>
    <line x1="0" y1="0" x2="3" y2="3" stroke="rgba(255,255,255,.038)" stroke-width=".5"/>
    <line x1="3" y1="0" x2="6" y2="3" stroke="rgba(0,0,0,.055)"       stroke-width=".5"/>
    <line x1="0" y1="3" x2="3" y2="6" stroke="rgba(0,0,0,.055)"       stroke-width=".5"/>
    <line x1="3" y1="3" x2="6" y2="6" stroke="rgba(255,255,255,.038)" stroke-width=".5"/>
  </pattern>

  <!-- Specular metal sheen on armour panels -->
  <filter id="metalr1x7449" x="-5%" y="-5%" width="110%" height="110%">
    <feSpecularLighting surfaceScale="4" specularConstant="1.8"
        specularExponent="42" lighting-color="#ffffff" result="spec">
      <feDistantLight elevation="52" azimuth="38"/>
    </feSpecularLighting>
    <feComposite in="spec" in2="SourceGraphic" operator="in" result="sm"/>
    <feComposite in="SourceGraphic" in2="sm" operator="arithmetic" k1="0" k2="1" k3="0.55" k4="0"/>
  </filter>

  <!-- Sharper specular for weapons — heavier glare -->
  <filter id="wmr1x7449" x="-8%" y="-8%" width="116%" height="116%">
    <feSpecularLighting surfaceScale="6" specularConstant="2.4"
        specularExponent="65" lighting-color="#ffffff" result="spec">
      <feDistantLight elevation="44" azimuth="28"/>
    </feSpecularLighting>
    <feComposite in="spec" in2="SourceGraphic" operator="in" result="sm"/>
    <feComposite in="SourceGraphic" in2="sm" operator="arithmetic" k1="0" k2="1" k3="0.78" k4="0"/>
  </filter>

  <!-- Sketch wobble -->
  <filter id="skr1x7449" x="-8%" y="-8%" width="116%" height="116%">
    <feTurbulence type="fractalNoise" baseFrequency="0.038"
        numOctaves="3" seed="3" result="noise"/>
    <feDisplacementMap in="SourceGraphic" in2="noise" scale="2.6"
        xChannelSelector="R" yChannelSelector="G" result="w"/>
    <feComposite in="w" in2="SourceGraphic" operator="atop"/>
  </filter>

  <!-- Glow: sharp accent -->
  <filter id="glowr1x7449" x="-20%" y="-20%" width="140%" height="140%">
    <feGaussianBlur stdDeviation="3.5" result="b"/>
    <feColorMatrix in="b" type="matrix"
        values="0 0 0 0 1  0 0 0 0 1  0 0 0 0 1  0 0 0 1.8 0" result="boost"/>
    <feMerge><feMergeNode in="boost"/><feMergeNode in="SourceGraphic"/></feMerge>
  </filter>

  <!-- Bloom: wide soft -->
  <filter id="bloomr1x7449" x="-40%" y="-40%" width="180%" height="180%">
    <feGaussianBlur stdDeviation="11" result="b"/>
    <feMerge><feMergeNode in="b"/><feMergeNode in="SourceGraphic"/></feMerge>
  </filter>

  </defs><rect width="1000" height="1000" fill="url(#bgr1x7449)"/><polygon points="244.62135400623083,367.4711660435423 264.04508205410093,326.1949594859034 269.96517870388925,371.5895494585857" fill="#ffd700" fill-opacity=".055" stroke="#ffd700" stroke-opacity=".1" stroke-width="1"/><polygon points="662.7744450373575,213.55970421805978 681.3245849525556,176.61440488230437 702.7445385167375,202.5146797671914" fill="#ffd700" fill-opacity=".055" stroke="#ffd700" stroke-opacity=".1" stroke-width="1"/><polygon points="681.8254309287295,188.6663914239034 703.5169641887769,145.4344727685675 721.2675859294832,186.80333444848657" fill="#ffd700" fill-opacity=".055" stroke="#ffd700" stroke-opacity=".1" stroke-width="1"/><polygon points="369.58126227371395,236.42752062529325 398.2281965697184,213.1841175891459 400.612824594602,236.63308788090944" fill="#ffd700" fill-opacity=".055" stroke="#ffd700" stroke-opacity=".1" stroke-width="1"/><polygon points="416.8122575106099,82.73279336281121 450.9349145255983,54.26583490613848 461.4612471945584,96.38548711314797" fill="#ffd700" fill-opacity=".055" stroke="#ffd700" stroke-opacity=".1" stroke-width="1"/><polygon points="212.4335053190589,212.2595431562513 227.57936479337513,166.34415287803859 256.4982634158805,207.69824681803584" fill="#ffd700" fill-opacity=".055" stroke="#ffd700" stroke-opacity=".1" stroke-width="1"/><polygon points="555.3494019201025,229.28191804792732 574.7627195557579,194.48283993452787 595.8233279436827,246.03037709370255" fill="#ffd700" fill-opacity=".055" stroke="#ffd700" stroke-opacity=".1" stroke-width="1"/><polygon points="387.9157478082925,239.0449562948197 410.66985918488353,188.47081916220486 412.19386120606214,235.74851231649518" fill="#ffd700" fill-opacity=".055" stroke="#ffd700" stroke-opacity=".1" stroke-width="1"/><ellipse cx="500.0" cy="892.0" rx="350.0" ry="65.0" fill="rgba(0,0,0,.7)" filter="url(#bloomr1x7449)"/><ellipse cx="500.0" cy="889.0" rx="220.0" ry="34.0" fill="rgba(0,0,0,.45)"/><ellipse cx="500.0" cy="520.0" rx="320.0" ry="480.0" fill="#6600ff" fill-opacity=".042" filter="url(#bloomr1x7449)"/><circle cx="317.9" cy="309.8" r="2.7" fill="#6600ff" fill-opacity="0.71" filter="url(#glowr1x7449)"/><circle cx="740.2" cy="254.1" r="1.0" fill="#6600ff" fill-opacity="0.56" filter="url(#glowr1x7449)"/><circle cx="451.6" cy="588.0" r="3.1" fill="#6600ff" fill-opacity="0.81" filter="url(#glowr1x7449)"/><circle cx="674.0" cy="594.7" r="3.0" fill="#6600ff" fill-opacity="0.80" filter="url(#glowr1x7449)"/><circle cx="382.6" cy="600.6" r="4.3" fill="#6600ff" fill-opacity="0.75" filter="url(#glowr1x7449)"/><circle cx="616.3" cy="648.8" r="2.5" fill="#6600ff" fill-opacity="0.41" filter="url(#glowr1x7449)"/><circle cx="309.0" cy="552.4" r="1.5" fill="#6600ff" fill-opacity="0.76" filter="url(#glowr1x7449)"/><circle cx="507.8" cy="294.1" r="1.8" fill="#6600ff" fill-opacity="0.84" filter="url(#glowr1x7449)"/><circle cx="580.2" cy="524.8" r="1.7" fill="#6600ff" fill-opacity="0.38" filter="url(#glowr1x7449)"/><circle cx="617.2" cy="607.1" r="3.8" fill="#6600ff" fill-opacity="0.42" filter="url(#glowr1x7449)"/><circle cx="312.9" cy="346.6" r="1.0" fill="#6600ff" fill-opacity="0.76" filter="url(#glowr1x7449)"/><circle cx="626.6" cy="320.0" r="2.6" fill="#6600ff" fill-opacity="0.39" filter="url(#glowr1x7449)"/><circle cx="739.2" cy="210.0" r="4.0" fill="#6600ff" fill-opacity="0.49" filter="url(#glowr1x7449)"/><circle cx="546.4" cy="584.0" r="3.7" fill="#6600ff" fill-opacity="0.48" filter="url(#glowr1x7449)"/><polygon points="397.5,662.7 487.7,661.4 479.2,876.1 386.6,877.9" fill="url(#suitr1x7449)" stroke="#ffd700" stroke-width="2.2" filter="url(#skr1x7449) url(#metalr1x7449)"/><polygon points="399.3,663.6 491.2,661.3 482.0,876.5 387.5,876.4" fill="url(#carbonr1x7449)"/><polygon points="392.3,723.3 494.8,723.2 485.1,789.4 382.2,789.6" fill="url(#bevelr1x7449)" fill-opacity=".5" stroke="#ffd700" stroke-width="1.4" filter="url(#skr1x7449)"/><polygon points="511.3,661.1 602.2,662.8 612.9,877.8 519.0,879.2" fill="url(#suitr1x7449)" stroke="#ffd700" stroke-width="2.2" filter="url(#skr1x7449) url(#metalr1x7449)"/><polygon points="510.5,663.8 602.8,661.4 612.7,878.7 518.2,875.9" fill="url(#carbonr1x7449)"/><polygon points="507.6,722.5 607.7,723.2 615.5,788.3 516.7,787.4" fill="url(#bevelr1x7449)" fill-opacity=".5" stroke="#ffd700" stroke-width="1.4" filter="url(#skr1x7449)"/><rect x="392.7" y="839.3" width="100.3" height="24.7" fill="url(#bevelr1x7449)" stroke="#ffd700" stroke-width="1" filter="url(#skr1x7449)"/><rect x="506.4"  y="839.5" width="100.3" height="24.7" fill="url(#bevelr1x7449)" stroke="#ffd700" stroke-width="1" filter="url(#skr1x7449)"/><polygon points="371.5,877.4 495.6,878.6 503.5,923.0 362.4,922.5" fill="#503400" stroke="#ffd700" stroke-width="2" filter="url(#skr1x7449)"/><polygon points="502.1,877.2 629.1,876.0 637.8,921.2 494.9,922.8" fill="#503400" stroke="#ffd700" stroke-width="2" filter="url(#skr1x7449)"/><polygon points="302.9,631.9 696.0,631.5 637.6,680.7 363.7,683.8" fill="#ffd700" fill-opacity=".52" stroke="#ffd700" stroke-width="2" filter="url(#skr1x7449)"/><rect x="463.9" y="637.5" width="72.0" height="42.0" fill="url(#bevelr1x7449)" stroke="#ffd700" stroke-width="1.4" filter="url(#glowr1x7449)"/><rect x="485.0" y="638.9" width="28.0" height="22.0" rx="1" fill="rgba(255,255,255,.48)"/><polygon points="152.5,466.9 233.8,468.0 259.7,733.9 129.5,736.4" fill="url(#suitr1x7449)" stroke="#ffd700" stroke-width="2.2" filter="url(#skr1x7449) url(#metalr1x7449)"/><polygon points="174.9,431.4 253.5,433.9 244.6,511.4 158.6,510.9" fill="url(#bevelr1x7449)" fill-opacity=".72" stroke="#ffd700" stroke-width="2.2" filter="url(#skr1x7449)"/><polygon points="162.1,620.2 241.4,620.5 239.0,661.6 167.0,660.9" fill="#ffd700" fill-opacity=".42" stroke="#ffd700" stroke-width="1" filter="url(#skr1x7449)"/><polygon points="764.2,465.3 845.4,467.3 870.7,734.0 743.5,735.7" fill="url(#suitr1x7449)" stroke="#ffd700" stroke-width="2.2" filter="url(#skr1x7449) url(#metalr1x7449)"/><polygon points="747.8,433.9 825.8,432.1 841.5,509.2 757.4,512.0" fill="url(#bevelr1x7449)" fill-opacity=".72" stroke="#ffd700" stroke-width="2.2" filter="url(#skr1x7449)"/><polygon points="758.4,621.4 837.3,623.3 834.0,659.3 762.3,660.3" fill="#ffd700" fill-opacity=".42" stroke="#ffd700" stroke-width="1" filter="url(#skr1x7449)"/><rect x="119.8"  y="700.6" width="135.3" height="85.0" rx="4" fill="url(#bevelr1x7449)" stroke="#ffd700" stroke-width="1.8" filter="url(#skr1x7449)"/><rect x="748.1"   y="700.6" width="135.3" height="85.0" rx="4" fill="url(#bevelr1x7449)" stroke="#ffd700" stroke-width="1.8" filter="url(#skr1x7449)"/><line x1="150.5" y1="702.8" x2="148.2" y2="785.5" stroke="#ffd700" stroke-opacity=".38" stroke-width="1"/><line x1="777.2" y1="702.5" x2="778.9" y2="782.6" stroke="#ffd700" stroke-opacity=".38" stroke-width="1"/><line x1="182.4" y1="702.5" x2="180.9" y2="784.1" stroke="#ffd700" stroke-opacity=".38" stroke-width="1"/><line x1="810.1" y1="702.9" x2="812.0" y2="783.6" stroke="#ffd700" stroke-opacity=".38" stroke-width="1"/><line x1="214.4" y1="700.9" x2="213.5" y2="785.2" stroke="#ffd700" stroke-opacity=".38" stroke-width="1"/><line x1="844.3" y1="700.7" x2="843.1" y2="783.6" stroke="#ffd700" stroke-opacity=".38" stroke-width="1"/><polygon points="233.5,416.5 764.7,417.2 722.1,660.8 279.1,662.6" fill="url(#suitr1x7449)" stroke="#ffd700" stroke-width="2.6" filter="url(#skr1x7449) url(#metalr1x7449)"/><polygon points="235.1,417.1 766.2,417.2 723.7,661.5 275.7,661.6" fill="url(#carbonr1x7449)"/><polygon points="367.9,417.5 633.6,418.2 610.2,514.7 390.1,516.6" fill="url(#suitHir1x7449)"/><line x1="362.7" y1="472.7" x2="637.8" y2="470.9" stroke="#ffd700" stroke-opacity=".52" stroke-width="1.3" filter="url(#skr1x7449)"/><line x1="400.4" y1="550.3" x2="600.9" y2="550.0" stroke="#ffd700" stroke-opacity=".52" stroke-width="1.3" filter="url(#skr1x7449)"/><line x1="267.4" y1="491.3" x2="320.9" y2="490.6" stroke="#ffd700" stroke-opacity=".62" stroke-width="1.8"/><line x1="680.7" y1="491.5" x2="733.1" y2="492.3" stroke="#ffd700" stroke-opacity=".62" stroke-width="1.8"/><line x1="265.5" y1="523.3" x2="321.5" y2="523.2" stroke="#ffd700" stroke-opacity=".62" stroke-width="1.8"/><line x1="678.5" y1="523.6" x2="732.1" y2="523.2" stroke="#ffd700" stroke-opacity=".62" stroke-width="1.8"/><line x1="265.6" y1="554.6" x2="318.1" y2="554.4" stroke="#ffd700" stroke-opacity=".62" stroke-width="1.8"/><line x1="679.8" y1="555.9" x2="733.3" y2="554.9" stroke="#ffd700" stroke-opacity=".62" stroke-width="1.8"/><line x1="265.7" y1="585.8" x2="320.9" y2="584.9" stroke="#ffd700" stroke-opacity=".62" stroke-width="1.8"/><line x1="681.4" y1="585.2" x2="734.2" y2="588.0" stroke="#ffd700" stroke-opacity=".62" stroke-width="1.8"/><g filter="url(#glowr1x7449)"><polygon points="499.5,451.1 542.4,511.4 499.7,569.9 458.0,509.9" fill="#ffd700" stroke="#050d14" stroke-width="1.4" filter="url(#skr1x7449)"/><polygon points="500.6,451.2 540.3,509.6 498.4,569.9 457.5,510.9" fill="url(#suitHir1x7449)" opacity=".45"/></g><g><rect x="35.94917888086286" y="421.3978447486646" width="148.0" height="82.0" rx="5" fill="url(#gunmetalr1x7449)" stroke="#ffd700" stroke-width="2" filter="url(#wmr1x7449)"/><rect x="34.43484096633267" y="422.38980789734046" width="148.0" height="82.0" rx="5" fill="url(#carbonr1x7449)"/><rect x="43.20502089917657" y="403.7532943336293" width="90.0" height="22.0" rx="3" fill="url(#barrelr1x7449)" stroke="#ffd700" stroke-width="1" filter="url(#wmr1x7449)"/><circle cx="81.50676407342773" cy="413.1876164122484" r="15.0" fill="#ffd700" opacity=".8" filter="url(#glowr1x7449)"/><circle cx="83.45970541261133" cy="414.2358418420888" r="6.0" fill="rgba(255,255,255,.9)"/><rect x="55.32653858646747" y="456.1725345066748" width="78.0" height="36.0" rx="5" fill="url(#barrelr1x7449)" stroke="#ffd700" stroke-width="1.2" filter="url(#wmr1x7449)"/><circle cx="-19.33277274804193" cy="470.3616261763498" r="18.0" fill="#ffd700" filter="url(#glowr1x7449)" opacity=".88"/><circle cx="-21.63061425914991" cy="470.45121850958094" r="7.0" fill="#ffffff"/><rect x="78.24253132328388" y="500.6764512741938" width="44.0" height="42.0" rx="3" fill="url(#gunmetalr1x7449)" stroke="#ffd700" stroke-width="1" filter="url(#wmr1x7449)"/><rect x="37.40523788727817" y="422.04338248912245" width="90.0" height="10.0" rx="2" fill="rgba(255,255,255,.22)"/><line x1="61.24389516798776" y1="488.0863757302984" x2="61.61979980109256" y2="517.7101662836968" stroke="#ffd700" stroke-opacity=".5" stroke-width="1.2"/><line x1="77.67499005360526" y1="485.04480819469313" x2="77.11564208338034" y2="518.2498875381425" stroke="#ffd700" stroke-opacity=".5" stroke-width="1.2"/><line x1="93.93207808028903" y1="488.0340890830382" x2="95.00349255990234" y2="520.9528283774853" stroke="#ffd700" stroke-opacity=".5" stroke-width="1.2"/></g><rect x="448.8327263960615" y="557.8569701043889" width="100.0"  height="56.0" fill="#503400" stroke="#ffd700" stroke-width="2.2" filter="url(#skr1x7449)"/><rect x="424.13259866889564" y="575.615002499614" width="152.0" height="26.0" fill="url(#bevelr1x7449)" fill-opacity=".65" stroke="#ffd700" stroke-width="1.2" filter="url(#skr1x7449)"/><polygon points="306.8,381.7 349.5,293.5 500.1,276.5 649.1,294.5 690.3,379.5 670.7,502.4 499.9,564.7 331.9,503.7" fill="url(#suitr1x7449)" stroke="#ffd700" stroke-width="2.8" filter="url(#skr1x7449) url(#metalr1x7449)"/><polygon points="306.3,379.8 349.9,294.3 498.7,276.6 649.3,296.1 691.5,380.6 668.4,505.3 500.9,563.9 332.6,504.4" fill="url(#carbonr1x7449)"/><polygon points="382.2,304.0 499.7,287.6 618.2,302.2 606.5,379.7 392.3,380.3" fill="url(#suitHir1x7449)"/><polygon points="381.5,380.4 366.6,424.8 433.9,503.8 501.3,527.5 569.0,503.0 633.1,427.3 618.6,380.4" fill="#050d14" fill-opacity=".88" stroke="#ffd700" stroke-width="1.8" filter="url(#skr1x7449)"/><polygon points="382.2,411.1 476.4,411.4 484.8,440.3 389.8,441.8" fill="#ffd700" filter="url(#glowr1x7449)"/><polygon points="523.9,412.1 617.5,411.8 610.7,439.5 514.1,439.9" fill="#ffd700" filter="url(#glowr1x7449)"/><ellipse cx="430.9" cy="425.7" rx="38.4"  ry="8.2" fill="#ffffff" opacity=".88"/><ellipse cx="569.1" cy="425.7" rx="38.4"  ry="8.2" fill="#ffffff" opacity=".88"/><line x1="483.1612884185836" y1="412.78023905698205" x2="517.1583627980575" y2="413.5930825760588" stroke="#ffd700" stroke-opacity=".52" stroke-width="2"/><line x1="485.4871645283513" y1="437.5155023739673" x2="515.0083969936147" y2="437.5165626620874" stroke="#ffd700" stroke-opacity=".52" stroke-width="2"/><line x1="498.84667127449063" y1="453.2949265372939" x2="499.1798049634323" y2="482.44861459815877" stroke="#ffd700" stroke-opacity=".58" stroke-width="2.2" filter="url(#skr1x7449)"/><line x1="453.1406505819224" y1="490.73448680136346" x2="452.5654831407406" y2="519.1708605834283" stroke="#ffd700" stroke-opacity=".52" stroke-width="1.5" filter="url(#skr1x7449)"/><line x1="475.8699938699044" y1="492.8991003277711" x2="478.7421372473612" y2="518.9591677582823" stroke="#ffd700" stroke-opacity=".52" stroke-width="1.5" filter="url(#skr1x7449)"/><line x1="501.427696744632" y1="490.12793584251773" x2="500.84217776954176" y2="518.7634838334285" stroke="#ffd700" stroke-opacity=".52" stroke-width="1.5" filter="url(#skr1x7449)"/><line x1="523.7825825409591" y1="492.4434044130146" x2="521.9547865231149" y2="521.0617794777266" stroke="#ffd700" stroke-opacity=".52" stroke-width="1.5" filter="url(#skr1x7449)"/><line x1="547.722641679477" y1="489.5745220166631" x2="546.9792804429494" y2="520.0984424210153" stroke="#ffd700" stroke-opacity=".52" stroke-width="1.5" filter="url(#skr1x7449)"/><polygon points="431.9,504.3 568.7,504.6 553.0,558.1 446.6,556.6" fill="#503400" fill-opacity=".72" stroke="#ffd700" stroke-width="1.3" filter="url(#skr1x7449)"/><text x="30.0"  y="975.0" font-family="monospace" font-weight="bold" font-size="22.0" fill="rgba(255,255,255,.22)">#0001</text><text x="500.0"   y="975.0" text-anchor="middle" font-family="monospace" font-weight="bold" font-size="22.0" fill="#ffd700" fill-opacity=".48">IMPERIAL RANGER</text><text x="970.0" y="975.0" text-anchor="end"    font-family="monospace" font-weight="bold" font-size="22.0" fill="#ffd700" fill-opacity=".32">MECH RANGERS</text></svg>