<svg xmlns="http://www.w3.org/2000/svg" viewBox="0 0 1000 1000" width="1000" height="1000" shape-rendering="geometricPrecision"><defs>

  <!-- Scene gradients -->
  <radialGradient id="bgr1x7545" cx="50%" cy="42%" r="72%">
    <stop offset="0%"   stop-color="#001e1e"/>
    <stop offset="100%" stop-color="#0e001e"/>
  </radialGradient>
  <linearGradient id="suitr1x7545" x1="8%" y1="0%" x2="92%" y2="100%">
    <stop offset="0%"   stop-color="#4444ff" stop-opacity=".95"/>
    <stop offset="45%"  stop-color="#141428"/>
    <stop offset="100%" stop-color="#0e001e"/>
  </linearGradient>
  <linearGradient id="suitHir1x7545" x1="0%" y1="0%" x2="0%" y2="100%">
    <stop offset="0%"   stop-color="rgba(255,255,255,.28)"/>
    <stop offset="60%"  stop-color="rgba(255,255,255,.04)"/>
    <stop offset="100%" stop-color="rgba(255,255,255,0)"/>
  </linearGradient>
  <!-- Bevel: bright top, dark bottom for armour panels -->
  <linearGradient id="bevelr1x7545" x1="0%" y1="0%" x2="0%" y2="100%">
    <stop offset="0%"   stop-color="rgba(255,255,255,.55)"/>
    <stop offset="30%"  stop-color="#4444ff"/>
    <stop offset="70%"  stop-color="#141428"/>
    <stop offset="100%" stop-color="rgba(0,0,0,.5)"/>
  </linearGradient>

  <!-- Weapon: cold steel blade sweep -->
  <linearGradient id="blader1x7545" x1="0%" y1="0%" x2="100%" y2="0%">
    <stop offset="0%"   stop-color="#0e0e20"/>
    <stop offset="16%"  stop-color="#3e3e58"/>
    <stop offset="34%"  stop-color="#c8c8e0"/>
    <stop offset="50%"  stop-color="#f5f5ff"/>
    <stop offset="66%"  stop-color="#b8b8d0"/>
    <stop offset="84%"  stop-color="#2e2e48"/>
    <stop offset="100%" stop-color="#08080e"/>
  </linearGradient>
  <!-- Blade tip brightening -->
  <linearGradient id="bladeTipr1x7545" x1="0%" y1="100%" x2="0%" y2="0%">
    <stop offset="0%"   stop-color="rgba(255,255,255,0)"/>
    <stop offset="55%"  stop-color="rgba(255,255,255,.1)"/>
    <stop offset="100%" stop-color="rgba(255,255,255,.55)"/>
  </linearGradient>
  <!-- Gunmetal anodised — blaster body -->
  <linearGradient id="gunmetalr1x7545" x1="0%" y1="0%" x2="0%" y2="100%">
    <stop offset="0%"   stop-color="#46465e"/>
    <stop offset="18%"  stop-color="#828296"/>
    <stop offset="42%"  stop-color="#26263a"/>
    <stop offset="72%"  stop-color="#16162a"/>
    <stop offset="100%" stop-color="#0c0c18"/>
  </linearGradient>
  <!-- Brushed steel tube — barrel/rod -->
  <linearGradient id="barrelr1x7545" x1="0%" y1="0%" x2="100%" y2="0%">
    <stop offset="0%"   stop-color="#0a0a14"/>
    <stop offset="24%"  stop-color="#585875"/>
    <stop offset="50%"  stop-color="#a8a8c8"/>
    <stop offset="76%"  stop-color="#383852"/>
    <stop offset="100%" stop-color="#0a0a14"/>
  </linearGradient>
  <!-- Chrome rod — lance shaft -->
  <linearGradient id="chromer1x7545" x1="0%" y1="0%" x2="100%" y2="0%">
    <stop offset="0%"   stop-color="#0c0c18"/>
    <stop offset="20%"  stop-color="#686888"/>
    <stop offset="44%"  stop-color="#e0e0f0"/>
    <stop offset="56%"  stop-color="#c0c0d8"/>
    <stop offset="80%"  stop-color="#28283e"/>
    <stop offset="100%" stop-color="#0c0c18"/>
  </linearGradient>
  <!-- Titanium plate — shield face -->
  <linearGradient id="titaniumr1x7545" x1="0%" y1="0%" x2="100%" y2="100%">
    <stop offset="0%"   stop-color="#585878"/>
    <stop offset="28%"  stop-color="#4444ff" stop-opacity=".88"/>
    <stop offset="55%"  stop-color="#141428"/>
    <stop offset="80%"  stop-color="#181828"/>
    <stop offset="100%" stop-color="#0a0a18"/>
  </linearGradient>
  <!-- Artillery black-chrome — cannon body -->
  <linearGradient id="artilleryr1x7545" x1="0%" y1="0%" x2="0%" y2="100%">
    <stop offset="0%"   stop-color="#383850"/>
    <stop offset="14%"  stop-color="#78789a"/>
    <stop offset="36%"  stop-color="#202034"/>
    <stop offset="65%"  stop-color="#14141e"/>
    <stop offset="100%" stop-color="#0a0a12"/>
  </linearGradient>
  <!-- Energy orb — staff -->
  <radialGradient id="orbr1x7545" cx="35%" cy="35%" r="65%">
    <stop offset="0%"   stop-color="rgba(255,255,255,.9)"/>
    <stop offset="30%"  stop-color="#4444ff"/>
    <stop offset="68%"  stop-color="#141428"/>
    <stop offset="100%" stop-color="rgba(0,0,0,.6)"/>
  </radialGradient>
  <!-- Knuckle plate chrome -->
  <linearGradient id="knuckler1x7545" x1="0%" y1="0%" x2="0%" y2="100%">
    <stop offset="0%"   stop-color="#888aaa"/>
    <stop offset="32%"  stop-color="#4444ff" stop-opacity=".8"/>
    <stop offset="62%"  stop-color="#1a1a2c"/>
    <stop offset="100%" stop-color="#0a0a14"/>
  </linearGradient>

  <!-- Carbon fibre weave texture overlay -->
  <pattern id="carbonr1x7545" width="6" height="6" patternUnits="userSpaceOnUse">
    <rect width="6" height="6" fill="rgba(0,0,0,.08)"/>
    <rect x="0" y="0" width="3" height="3" fill="rgba(255,255,255,.022)"/>
    <rect x="3" y="3" width="3" height="3" fill="rgba(255,255,255,.022)"/>
    <line x1="0" y1="0" x2="3" y2="3" stroke="rgba(255,255,255,.038)" stroke-width=".5"/>
    <line x1="3" y1="0" x2="6" y2="3" stroke="rgba(0,0,0,.055)"       stroke-width=".5"/>
    <line x1="0" y1="3" x2="3" y2="6" stroke="rgba(0,0,0,.055)"       stroke-width=".5"/>
    <line x1="3" y1="3" x2="6" y2="6" stroke="rgba(255,255,255,.038)" stroke-width=".5"/>
  </pattern>

  <!-- Specular metal sheen on armour panels -->
  <filter id="metalr1x7545" x="-5%" y="-5%" width="110%" height="110%">
    <feSpecularLighting surfaceScale="4" specularConstant="1.8"
        specularExponent="42" lighting-color="#ffffff" result="spec">
      <feDistantLight elevation="52" azimuth="38"/>
    </feSpecularLighting>
    <feComposite in="spec" in2="SourceGraphic" operator="in" result="sm"/>
    <feComposite in="SourceGraphic" in2="sm" operator="arithmetic" k1="0" k2="1" k3="0.55" k4="0"/>
  </filter>

  <!-- Sharper specular for weapons — heavier glare -->
  <filter id="wmr1x7545" x="-8%" y="-8%" width="116%" height="116%">
    <feSpecularLighting surfaceScale="6" specularConstant="2.4"
        specularExponent="65" lighting-color="#ffffff" result="spec">
      <feDistantLight elevation="44" azimuth="28"/>
    </feSpecularLighting>
    <feComposite in="spec" in2="SourceGraphic" operator="in" result="sm"/>
    <feComposite in="SourceGraphic" in2="sm" operator="arithmetic" k1="0" k2="1" k3="0.78" k4="0"/>
  </filter>

  <!-- Sketch wobble -->
  <filter id="skr1x7545" x="-8%" y="-8%" width="116%" height="116%">
    <feTurbulence type="fractalNoise" baseFrequency="0.038"
        numOctaves="3" seed="12" result="noise"/>
    <feDisplacementMap in="SourceGraphic" in2="noise" scale="2.6"
        xChannelSelector="R" yChannelSelector="G" result="w"/>
    <feComposite in="w" in2="SourceGraphic" operator="atop"/>
  </filter>

  <!-- Glow: sharp accent -->
  <filter id="glowr1x7545" x="-20%" y="-20%" width="140%" height="140%">
    <feGaussianBlur stdDeviation="3.5" result="b"/>
    <feColorMatrix in="b" type="matrix"
        values="0 0 0 0 1  0 0 0 0 1  0 0 0 0 1  0 0 0 1.8 0" result="boost"/>
    <feMerge><feMergeNode in="boost"/><feMergeNode in="SourceGraphic"/></feMerge>
  </filter>

  <!-- Bloom: wide soft -->
  <filter id="bloomr1x7545" x="-40%" y="-40%" width="180%" height="180%">
    <feGaussianBlur stdDeviation="11" result="b"/>
    <feMerge><feMergeNode in="b"/><feMergeNode in="SourceGraphic"/></feMerge>
  </filter>

  </defs><rect width="1000" height="1000" fill="url(#bgr1x7545)"/><circle cx="500" cy="500" r="420.0" fill="none" stroke="#4444ff" stroke-opacity=".11" stroke-width="42" stroke-dasharray="8,5"/><circle cx="500" cy="500" r="240.0" fill="none" stroke="#141428" stroke-opacity=".09" stroke-width="18"/><line x1="500" y1="500" x2="1500.0" y2="500.0" stroke="#4444ff" stroke-opacity=".035" stroke-width="1.2"/><line x1="500" y1="500" x2="1366.0" y2="1000.0" stroke="#4444ff" stroke-opacity=".035" stroke-width="1.2"/><line x1="500" y1="500" x2="1000.0" y2="1366.0" stroke="#4444ff" stroke-opacity=".035" stroke-width="1.2"/><line x1="500" y1="500" x2="500.0" y2="1500.0" stroke="#4444ff" stroke-opacity=".035" stroke-width="1.2"/><line x1="500" y1="500" x2="0.0" y2="1366.0" stroke="#4444ff" stroke-opacity=".035" stroke-width="1.2"/><line x1="500" y1="500" x2="-366.0" y2="1000.0" stroke="#4444ff" stroke-opacity=".035" stroke-width="1.2"/><line x1="500" y1="500" x2="-500.0" y2="500.0" stroke="#4444ff" stroke-opacity=".035" stroke-width="1.2"/><line x1="500" y1="500" x2="-366.0" y2="-0.0" stroke="#4444ff" stroke-opacity=".035" stroke-width="1.2"/><line x1="500" y1="500" x2="-0.0" y2="-366.0" stroke="#4444ff" stroke-opacity=".035" stroke-width="1.2"/><line x1="500" y1="500" x2="500.0" y2="-500.0" stroke="#4444ff" stroke-opacity=".035" stroke-width="1.2"/><line x1="500" y1="500" x2="1000.0" y2="-366.0" stroke="#4444ff" stroke-opacity=".035" stroke-width="1.2"/><line x1="500" y1="500" x2="1366.0" y2="-0.0" stroke="#4444ff" stroke-opacity=".035" stroke-width="1.2"/><ellipse cx="500.0" cy="892.0" rx="350.0" ry="65.0" fill="rgba(0,0,0,.7)" filter="url(#bloomr1x7545)"/><ellipse cx="500.0" cy="889.0" rx="220.0" ry="34.0" fill="rgba(0,0,0,.45)"/><ellipse cx="500.0" cy="520.0" rx="320.0" ry="480.0" fill="#ff00ff" fill-opacity=".042" filter="url(#bloomr1x7545)"/><circle cx="342.6" cy="594.6" r="0.8" fill="#ff00ff" fill-opacity="0.49" filter="url(#glowr1x7545)"/><circle cx="479.0" cy="309.6" r="1.4" fill="#ff00ff" fill-opacity="0.73" filter="url(#glowr1x7545)"/><circle cx="633.6" cy="702.8" r="1.1" fill="#ff00ff" fill-opacity="0.69" filter="url(#glowr1x7545)"/><circle cx="724.8" cy="777.2" r="3.5" fill="#ff00ff" fill-opacity="0.77" filter="url(#glowr1x7545)"/><circle cx="541.4" cy="293.9" r="2.3" fill="#ff00ff" fill-opacity="0.78" filter="url(#glowr1x7545)"/><circle cx="655.6" cy="362.2" r="2.9" fill="#ff00ff" fill-opacity="0.56" filter="url(#glowr1x7545)"/><circle cx="582.0" cy="786.5" r="3.5" fill="#ff00ff" fill-opacity="0.81" filter="url(#glowr1x7545)"/><circle cx="444.6" cy="260.5" r="4.1" fill="#ff00ff" fill-opacity="0.51" filter="url(#glowr1x7545)"/><circle cx="284.0" cy="706.9" r="0.9" fill="#ff00ff" fill-opacity="0.82" filter="url(#glowr1x7545)"/><circle cx="719.9" cy="752.7" r="4.0" fill="#ff00ff" fill-opacity="0.90" filter="url(#glowr1x7545)"/><circle cx="374.8" cy="677.3" r="1.6" fill="#ff00ff" fill-opacity="0.62" filter="url(#glowr1x7545)"/><circle cx="594.8" cy="629.8" r="1.9" fill="#ff00ff" fill-opacity="0.55" filter="url(#glowr1x7545)"/><circle cx="374.1" cy="470.8" r="4.0" fill="#ff00ff" fill-opacity="0.49" filter="url(#glowr1x7545)"/><circle cx="721.1" cy="736.8" r="4.2" fill="#ff00ff" fill-opacity="0.75" filter="url(#glowr1x7545)"/><path d="M350.3,329.6 Q310.1,525.4 421.7,717.7" stroke="#ff00ff" stroke-opacity="0.68" stroke-width="2.8" fill="none" filter="url(#glowr1x7545)"/><path d="M627.7,275.0 Q644.6,569.6 459.2,824.1" stroke="#ff00ff" stroke-opacity="0.51" stroke-width="0.8" fill="none" filter="url(#glowr1x7545)"/><path d="M544.0,386.8 Q535.1,503.7 479.0,667.3" stroke="#ff00ff" stroke-opacity="0.40" stroke-width="1.6" fill="none" filter="url(#glowr1x7545)"/><path d="M533.9,213.5 Q499.5,514.1 629.1,800.2" stroke="#ff00ff" stroke-opacity="0.42" stroke-width="1.4" fill="none" filter="url(#glowr1x7545)"/><path d="M512.6,347.1 Q482.1,611.0 511.9,838.5" stroke="#ff00ff" stroke-opacity="0.64" stroke-width="1.6" fill="none" filter="url(#glowr1x7545)"/><polygon points="399.0,662.1 488.5,661.2 480.1,877.5 388.3,876.4" fill="url(#suitr1x7545)" stroke="#4444ff" stroke-width="2.2" filter="url(#skr1x7545) url(#metalr1x7545)"/><polygon points="397.9,662.7 487.9,661.1 481.0,877.9 385.8,879.0" fill="url(#carbonr1x7545)"/><polygon points="391.1,723.6 493.4,724.7 484.9,786.6 384.9,789.8" fill="url(#bevelr1x7545)" fill-opacity=".5" stroke="#4444ff" stroke-width="1.4" filter="url(#skr1x7545)"/><polygon points="510.0,663.7 600.0,662.6 614.4,877.4 519.0,879.0" fill="url(#suitr1x7545)" stroke="#4444ff" stroke-width="2.2" filter="url(#skr1x7545) url(#metalr1x7545)"/><polygon points="512.1,660.8 601.5,663.5 611.0,878.8 519.6,878.1" fill="url(#carbonr1x7545)"/><polygon points="505.3,724.4 608.9,722.5 614.5,789.5 516.0,786.6" fill="url(#bevelr1x7545)" fill-opacity=".5" stroke="#4444ff" stroke-width="1.4" filter="url(#skr1x7545)"/><rect x="391.8" y="839.8" width="100.3" height="24.7" fill="url(#bevelr1x7545)" stroke="#4444ff" stroke-width="1" filter="url(#skr1x7545)"/><rect x="506.0"  y="838.2" width="100.3" height="24.7" fill="url(#bevelr1x7545)" stroke="#4444ff" stroke-width="1" filter="url(#skr1x7545)"/><polygon points="368.5,878.6 495.2,877.5 504.7,922.1 361.5,919.7" fill="#141428" stroke="#4444ff" stroke-width="2" filter="url(#skr1x7545)"/><polygon points="504.9,877.6 629.8,876.1 636.0,921.2 494.9,921.4" fill="#141428" stroke="#4444ff" stroke-width="2" filter="url(#skr1x7545)"/><polygon points="303.8,631.4 696.9,633.0 638.7,681.8 362.4,681.4" fill="#4444ff" fill-opacity=".52" stroke="#4444ff" stroke-width="2" filter="url(#skr1x7545)"/><rect x="463.9" y="639.3" width="72.0" height="42.0" fill="url(#bevelr1x7545)" stroke="#4444ff" stroke-width="1.4" filter="url(#glowr1x7545)"/><rect x="485.0" y="642.0" width="28.0" height="22.0" rx="1" fill="rgba(255,255,255,.48)"/><polygon points="154.8,467.7 236.7,467.2 258.2,736.6 126.7,733.3" fill="url(#suitr1x7545)" stroke="#4444ff" stroke-width="2.2" filter="url(#skr1x7545) url(#metalr1x7545)"/><polygon points="172.6,433.2 254.4,432.5 242.8,510.5 158.4,512.3" fill="url(#bevelr1x7545)" fill-opacity=".72" stroke="#4444ff" stroke-width="2.2" filter="url(#skr1x7545)"/><polygon points="160.6,622.3 243.1,620.4 238.4,662.4 166.2,659.9" fill="#4444ff" fill-opacity=".42" stroke="#4444ff" stroke-width="1" filter="url(#skr1x7545)"/><polygon points="765.1,467.4 846.0,466.9 871.5,736.6 743.5,735.3" fill="url(#suitr1x7545)" stroke="#4444ff" stroke-width="2.2" filter="url(#skr1x7545) url(#metalr1x7545)"/><polygon points="747.4,431.8 828.0,432.0 841.7,511.7 756.7,510.7" fill="url(#bevelr1x7545)" fill-opacity=".72" stroke="#4444ff" stroke-width="2.2" filter="url(#skr1x7545)"/><polygon points="755.4,622.7 839.0,623.1 834.2,660.2 762.7,661.2" fill="#4444ff" fill-opacity=".42" stroke="#4444ff" stroke-width="1" filter="url(#skr1x7545)"/><rect x="121.0"  y="699.1" width="135.3" height="85.0" rx="4" fill="url(#bevelr1x7545)" stroke="#4444ff" stroke-width="1.8" filter="url(#skr1x7545)"/><rect x="747.4"   y="701.0" width="135.3" height="85.0" rx="4" fill="url(#bevelr1x7545)" stroke="#4444ff" stroke-width="1.8" filter="url(#skr1x7545)"/><line x1="148.1" y1="703.4" x2="151.2" y2="784.3" stroke="#4444ff" stroke-opacity=".38" stroke-width="1"/><line x1="776.8" y1="702.3" x2="776.3" y2="782.5" stroke="#4444ff" stroke-opacity=".38" stroke-width="1"/><line x1="183.4" y1="701.3" x2="183.3" y2="784.1" stroke="#4444ff" stroke-opacity=".38" stroke-width="1"/><line x1="810.9" y1="702.1" x2="810.2" y2="782.7" stroke="#4444ff" stroke-opacity=".38" stroke-width="1"/><line x1="213.6" y1="700.3" x2="213.8" y2="782.8" stroke="#4444ff" stroke-opacity=".38" stroke-width="1"/><line x1="842.3" y1="703.5" x2="845.4" y2="785.6" stroke="#4444ff" stroke-opacity=".38" stroke-width="1"/><polygon points="233.3,418.4 765.9,418.4 721.5,662.2 276.2,661.5" fill="url(#suitr1x7545)" stroke="#4444ff" stroke-width="2.6" filter="url(#skr1x7545) url(#metalr1x7545)"/><polygon points="235.0,418.2 766.0,418.6 724.0,661.4 277.0,663.3" fill="url(#carbonr1x7545)"/><polygon points="367.9,419.1 632.8,417.6 612.3,514.1 389.0,516.8" fill="url(#suitHir1x7545)"/><line x1="360.4" y1="469.9" x2="639.4" y2="472.2" stroke="#4444ff" stroke-opacity=".52" stroke-width="1.3" filter="url(#skr1x7545)"/><line x1="399.1" y1="549.4" x2="601.6" y2="548.9" stroke="#4444ff" stroke-opacity=".52" stroke-width="1.3" filter="url(#skr1x7545)"/><line x1="266.9" y1="491.4" x2="321.0" y2="490.6" stroke="#4444ff" stroke-opacity=".62" stroke-width="1.8"/><line x1="679.1" y1="491.0" x2="734.4" y2="492.2" stroke="#4444ff" stroke-opacity=".62" stroke-width="1.8"/><line x1="267.4" y1="524.1" x2="318.5" y2="523.5" stroke="#4444ff" stroke-opacity=".62" stroke-width="1.8"/><line x1="679.0" y1="522.7" x2="732.1" y2="522.1" stroke="#4444ff" stroke-opacity=".62" stroke-width="1.8"/><line x1="265.2" y1="553.1" x2="319.3" y2="555.7" stroke="#4444ff" stroke-opacity=".62" stroke-width="1.8"/><line x1="678.9" y1="555.1" x2="732.2" y2="555.5" stroke="#4444ff" stroke-opacity=".62" stroke-width="1.8"/><line x1="267.0" y1="588.3" x2="318.5" y2="587.0" stroke="#4444ff" stroke-opacity=".62" stroke-width="1.8"/><line x1="680.5" y1="584.9" x2="734.6" y2="587.6" stroke="#4444ff" stroke-opacity=".62" stroke-width="1.8"/><g filter="url(#glowr1x7545)"><polygon points="501.0,450.9 542.3,510.0 498.6,569.6 459.2,512.2" fill="#4444ff" stroke="#0e001e" stroke-width="1.4" filter="url(#skr1x7545)"/><polygon points="501.2,453.1 541.8,509.0 498.5,567.8 457.2,510.1" fill="url(#suitHir1x7545)" opacity=".45"/></g><g><polygon points="871.8,671.4 923.8,671.4 908.2,-28.6 887.4,-28.6" fill="url(#blader1x7545)" filter="url(#wmr1x7545)"/><polygon points="887.4,-28.6 908.2,-28.6 897.8,-138.6" fill="url(#blader1x7545)" filter="url(#wmr1x7545)"/><polygon points="896.0,671.4 899.7,671.4 898.4,-128.6 897.3,-128.6" fill="url(#bladeTipr1x7545)" opacity=".9"/><line x1="906.4247747372837" y1="671.1192889940925" x2="900.3898457089625" y2="-128.04060127902778" stroke="rgba(255,255,255,.68)" stroke-width="1.5"/><line x1="888.5584612538294" y1="672.780327555444" x2="897.7932771653869" y2="-128.8335977463983" stroke="#4444ff" stroke-width="1" stroke-opacity=".45"/><line x1="902.5" y1="651.4" x2="899.7" y2="11.4" stroke="rgba(0,0,0,.38)" stroke-width="1.6"/><line x1="893.2" y1="651.4" x2="896.0" y2="11.4" stroke="rgba(0,0,0,.38)" stroke-width="1.6"/><rect x="840.0696171003021" y="669.435732769873" width="112.0" height="28.0" rx="3" fill="url(#bevelr1x7545)" stroke="#4444ff" stroke-width="1.6" filter="url(#wmr1x7545)"/><rect x="865.4885726146027" y="672.0396487829275" width="64.0" height="10.0" rx="1" fill="rgba(255,255,255,.32)"/><rect x="886.6500240455009" y="678.9369002385065" width="24.0" height="6.0" rx="1" fill="#4444ff" fill-opacity=".35"/><rect x="886.3144577161968" y="686.3754744824953" width="24.0" height="6.0" rx="1" fill="#4444ff" fill-opacity=".35"/><rect x="884.7661868359521" y="693.2090208407491" width="24.0" height="6.0" rx="1" fill="#4444ff" fill-opacity=".35"/><rect x="884.1509492272139" y="701.6320623091422" width="24.0" height="6.0" rx="1" fill="#4444ff" fill-opacity=".35"/><rect x="886.97195216842" y="708.3252058532089" width="24.0" height="6.0" rx="1" fill="#4444ff" fill-opacity=".35"/><rect x="886.2668018080853" y="717.8660441042855" width="24.0" height="6.0" rx="1" fill="#4444ff" fill-opacity=".35"/><ellipse cx="897.1115057409369" cy="725.1289946194738" rx="22.0" ry="16.0" fill="url(#bevelr1x7545)" stroke="#4444ff" stroke-width="1.2" filter="url(#wmr1x7545)"/></g><rect x="449.572717406787" y="558.1498038090765" width="100.0"  height="56.0" fill="#141428" stroke="#4444ff" stroke-width="2.2" filter="url(#skr1x7545)"/><rect x="425.1812463731505" y="576.8902752562426" width="152.0" height="26.0" fill="url(#bevelr1x7545)" fill-opacity=".65" stroke="#4444ff" stroke-width="1.2" filter="url(#skr1x7545)"/><polygon points="309.1,381.0 351.0,296.0 499.7,278.6 648.0,293.5 692.2,382.1 669.5,504.7 501.8,564.7 332.6,504.9" fill="url(#suitr1x7545)" stroke="#4444ff" stroke-width="2.8" filter="url(#skr1x7545) url(#metalr1x7545)"/><polygon points="307.2,381.2 350.2,294.9 499.5,279.2 648.2,293.0 693.3,381.2 668.0,501.9 498.4,565.6 332.3,503.2" fill="url(#carbonr1x7545)"/><polygon points="380.2,303.4 500.2,285.4 620.3,303.1 606.1,379.7 391.3,382.3" fill="url(#suitHir1x7545)"/><polygon points="381.6,379.9 366.5,427.0 432.8,504.7 500.7,528.7 568.3,505.1 633.2,427.0 617.3,380.9" fill="#0e001e" fill-opacity=".88" stroke="#4444ff" stroke-width="1.8" filter="url(#skr1x7545)"/><polygon points="381.4,410.5 477.2,411.2 484.2,440.1 390.1,441.7" fill="#4444ff" filter="url(#glowr1x7545)"/><polygon points="524.5,412.5 618.6,412.7 613.1,440.4 516.6,440.2" fill="#4444ff" filter="url(#glowr1x7545)"/><ellipse cx="430.9" cy="425.7" rx="38.4"  ry="8.2" fill="#ffffff" opacity=".88"/><ellipse cx="569.1" cy="425.7" rx="38.4"  ry="8.2" fill="#ffffff" opacity=".88"/><line x1="483.6612339458056" y1="414.6869189492427" x2="514.6367694436946" y2="411.88517703227694" stroke="#4444ff" stroke-opacity=".52" stroke-width="2"/><line x1="484.72707176921887" y1="437.0649026496336" x2="516.7955523229576" y2="436.9250427983701" stroke="#4444ff" stroke-opacity=".52" stroke-width="2"/><line x1="500.49256405029445" y1="454.23001241870224" x2="500.901597931888" y2="482.1293148665689" stroke="#4444ff" stroke-opacity=".58" stroke-width="2.2" filter="url(#skr1x7545)"/><line x1="454.35148563401776" y1="490.4963462537154" x2="452.4641675382666" y2="520.7965782649815" stroke="#4444ff" stroke-opacity=".52" stroke-width="1.5" filter="url(#skr1x7545)"/><line x1="475.31937029328196" y1="490.33688665125516" x2="475.43773627601564" y2="519.2359951996244" stroke="#4444ff" stroke-opacity=".52" stroke-width="1.5" filter="url(#skr1x7545)"/><line x1="501.186993706692" y1="491.1732948735356" x2="500.35121944127604" y2="520.8305311787874" stroke="#4444ff" stroke-opacity=".52" stroke-width="1.5" filter="url(#skr1x7545)"/><line x1="522.573056631498" y1="492.40771982232104" x2="521.3786391486041" y2="518.8259751150384" stroke="#4444ff" stroke-opacity=".52" stroke-width="1.5" filter="url(#skr1x7545)"/><line x1="547.2323423951119" y1="492.49362060949204" x2="546.561669186335" y2="521.5554274195805" stroke="#4444ff" stroke-opacity=".52" stroke-width="1.5" filter="url(#skr1x7545)"/><polygon points="433.0,505.4 565.4,503.5 553.9,555.4 447.1,555.5" fill="#141428" fill-opacity=".72" stroke="#4444ff" stroke-width="1.3" filter="url(#skr1x7545)"/><path d="M342.5460773302615 373.7572541843168 Q380.2015909422562 236.831895867642 499.48996488843113 281.0706493547186" stroke="#4444ff" stroke-width="2.8" fill="none" stroke-opacity=".88" filter="url(#skr1x7545)"/><path d="M659.0450418859348 372.3935009690001 Q618.9552557025663 236.95623067319391 498.60558777274565 282.06212752144785" stroke="#4444ff" stroke-width="2.8" fill="none" stroke-opacity=".88" filter="url(#skr1x7545)"/><line x1="419.77835265355185" y1="470.19380176588896" x2="439.3812720935233" y2="502.17127176998184" stroke="#4444ff" stroke-opacity=".52" stroke-width="1.3" filter="url(#skr1x7545)"/><line x1="477.41939351590355" y1="472.0095031685196" x2="494.49859775457526" y2="502.48718354720626" stroke="#4444ff" stroke-opacity=".52" stroke-width="1.3" filter="url(#skr1x7545)"/><line x1="535.4567991146258" y1="469.3800750565715" x2="554.2481353829056" y2="504.8954900587909" stroke="#4444ff" stroke-opacity=".52" stroke-width="1.3" filter="url(#skr1x7545)"/><line x1="590.8001626430452" y1="471.72666104277596" x2="610.287407857962" y2="502.6507044667378" stroke="#4444ff" stroke-opacity=".52" stroke-width="1.3" filter="url(#skr1x7545)"/><text x="30.0"  y="975.0" font-family="monospace" font-weight="bold" font-size="22.0" fill="rgba(255,255,255,.22)">#0001</text><text x="500.0"   y="975.0" text-anchor="middle" font-family="monospace" font-weight="bold" font-size="22.0" fill="#4444ff" fill-opacity=".48">OBSIDIAN RANGER</text><text x="970.0" y="975.0" text-anchor="end"    font-family="monospace" font-weight="bold" font-size="22.0" fill="#4444ff" fill-opacity=".32">MECH RANGERS</text></svg>