<svg xmlns="http://www.w3.org/2000/svg" viewBox="0 0 1000 1000" width="1000" height="1000" shape-rendering="geometricPrecision"><defs>

  <!-- Scene gradients -->
  <radialGradient id="bgr1x7563" cx="50%" cy="42%" r="72%">
    <stop offset="0%"   stop-color="#001422"/>
    <stop offset="100%" stop-color="#000a14"/>
  </radialGradient>
  <linearGradient id="suitr1x7563" x1="8%" y1="0%" x2="92%" y2="100%">
    <stop offset="0%"   stop-color="#4444ff" stop-opacity=".95"/>
    <stop offset="45%"  stop-color="#141428"/>
    <stop offset="100%" stop-color="#000a14"/>
  </linearGradient>
  <linearGradient id="suitHir1x7563" x1="0%" y1="0%" x2="0%" y2="100%">
    <stop offset="0%"   stop-color="rgba(255,255,255,.28)"/>
    <stop offset="60%"  stop-color="rgba(255,255,255,.04)"/>
    <stop offset="100%" stop-color="rgba(255,255,255,0)"/>
  </linearGradient>
  <!-- Bevel: bright top, dark bottom for armour panels -->
  <linearGradient id="bevelr1x7563" x1="0%" y1="0%" x2="0%" y2="100%">
    <stop offset="0%"   stop-color="rgba(255,255,255,.55)"/>
    <stop offset="30%"  stop-color="#4444ff"/>
    <stop offset="70%"  stop-color="#141428"/>
    <stop offset="100%" stop-color="rgba(0,0,0,.5)"/>
  </linearGradient>

  <!-- Weapon: cold steel blade sweep -->
  <linearGradient id="blader1x7563" x1="0%" y1="0%" x2="100%" y2="0%">
    <stop offset="0%"   stop-color="#0e0e20"/>
    <stop offset="16%"  stop-color="#3e3e58"/>
    <stop offset="34%"  stop-color="#c8c8e0"/>
    <stop offset="50%"  stop-color="#f5f5ff"/>
    <stop offset="66%"  stop-color="#b8b8d0"/>
    <stop offset="84%"  stop-color="#2e2e48"/>
    <stop offset="100%" stop-color="#08080e"/>
  </linearGradient>
  <!-- Blade tip brightening -->
  <linearGradient id="bladeTipr1x7563" x1="0%" y1="100%" x2="0%" y2="0%">
    <stop offset="0%"   stop-color="rgba(255,255,255,0)"/>
    <stop offset="55%"  stop-color="rgba(255,255,255,.1)"/>
    <stop offset="100%" stop-color="rgba(255,255,255,.55)"/>
  </linearGradient>
  <!-- Gunmetal anodised — blaster body -->
  <linearGradient id="gunmetalr1x7563" x1="0%" y1="0%" x2="0%" y2="100%">
    <stop offset="0%"   stop-color="#46465e"/>
    <stop offset="18%"  stop-color="#828296"/>
    <stop offset="42%"  stop-color="#26263a"/>
    <stop offset="72%"  stop-color="#16162a"/>
    <stop offset="100%" stop-color="#0c0c18"/>
  </linearGradient>
  <!-- Brushed steel tube — barrel/rod -->
  <linearGradient id="barrelr1x7563" x1="0%" y1="0%" x2="100%" y2="0%">
    <stop offset="0%"   stop-color="#0a0a14"/>
    <stop offset="24%"  stop-color="#585875"/>
    <stop offset="50%"  stop-color="#a8a8c8"/>
    <stop offset="76%"  stop-color="#383852"/>
    <stop offset="100%" stop-color="#0a0a14"/>
  </linearGradient>
  <!-- Chrome rod — lance shaft -->
  <linearGradient id="chromer1x7563" x1="0%" y1="0%" x2="100%" y2="0%">
    <stop offset="0%"   stop-color="#0c0c18"/>
    <stop offset="20%"  stop-color="#686888"/>
    <stop offset="44%"  stop-color="#e0e0f0"/>
    <stop offset="56%"  stop-color="#c0c0d8"/>
    <stop offset="80%"  stop-color="#28283e"/>
    <stop offset="100%" stop-color="#0c0c18"/>
  </linearGradient>
  <!-- Titanium plate — shield face -->
  <linearGradient id="titaniumr1x7563" x1="0%" y1="0%" x2="100%" y2="100%">
    <stop offset="0%"   stop-color="#585878"/>
    <stop offset="28%"  stop-color="#4444ff" stop-opacity=".88"/>
    <stop offset="55%"  stop-color="#141428"/>
    <stop offset="80%"  stop-color="#181828"/>
    <stop offset="100%" stop-color="#0a0a18"/>
  </linearGradient>
  <!-- Artillery black-chrome — cannon body -->
  <linearGradient id="artilleryr1x7563" x1="0%" y1="0%" x2="0%" y2="100%">
    <stop offset="0%"   stop-color="#383850"/>
    <stop offset="14%"  stop-color="#78789a"/>
    <stop offset="36%"  stop-color="#202034"/>
    <stop offset="65%"  stop-color="#14141e"/>
    <stop offset="100%" stop-color="#0a0a12"/>
  </linearGradient>
  <!-- Energy orb — staff -->
  <radialGradient id="orbr1x7563" cx="35%" cy="35%" r="65%">
    <stop offset="0%"   stop-color="rgba(255,255,255,.9)"/>
    <stop offset="30%"  stop-color="#4444ff"/>
    <stop offset="68%"  stop-color="#141428"/>
    <stop offset="100%" stop-color="rgba(0,0,0,.6)"/>
  </radialGradient>
  <!-- Knuckle plate chrome -->
  <linearGradient id="knuckler1x7563" x1="0%" y1="0%" x2="0%" y2="100%">
    <stop offset="0%"   stop-color="#888aaa"/>
    <stop offset="32%"  stop-color="#4444ff" stop-opacity=".8"/>
    <stop offset="62%"  stop-color="#1a1a2c"/>
    <stop offset="100%" stop-color="#0a0a14"/>
  </linearGradient>

  <!-- Carbon fibre weave texture overlay -->
  <pattern id="carbonr1x7563" width="6" height="6" patternUnits="userSpaceOnUse">
    <rect width="6" height="6" fill="rgba(0,0,0,.08)"/>
    <rect x="0" y="0" width="3" height="3" fill="rgba(255,255,255,.022)"/>
    <rect x="3" y="3" width="3" height="3" fill="rgba(255,255,255,.022)"/>
    <line x1="0" y1="0" x2="3" y2="3" stroke="rgba(255,255,255,.038)" stroke-width=".5"/>
    <line x1="3" y1="0" x2="6" y2="3" stroke="rgba(0,0,0,.055)"       stroke-width=".5"/>
    <line x1="0" y1="3" x2="3" y2="6" stroke="rgba(0,0,0,.055)"       stroke-width=".5"/>
    <line x1="3" y1="3" x2="6" y2="6" stroke="rgba(255,255,255,.038)" stroke-width=".5"/>
  </pattern>

  <!-- Specular metal sheen on armour panels -->
  <filter id="metalr1x7563" x="-5%" y="-5%" width="110%" height="110%">
    <feSpecularLighting surfaceScale="4" specularConstant="1.8"
        specularExponent="42" lighting-color="#ffffff" result="spec">
      <feDistantLight elevation="52" azimuth="38"/>
    </feSpecularLighting>
    <feComposite in="spec" in2="SourceGraphic" operator="in" result="sm"/>
    <feComposite in="SourceGraphic" in2="sm" operator="arithmetic" k1="0" k2="1" k3="0.55" k4="0"/>
  </filter>

  <!-- Sharper specular for weapons — heavier glare -->
  <filter id="wmr1x7563" x="-8%" y="-8%" width="116%" height="116%">
    <feSpecularLighting surfaceScale="6" specularConstant="2.4"
        specularExponent="65" lighting-color="#ffffff" result="spec">
      <feDistantLight elevation="44" azimuth="28"/>
    </feSpecularLighting>
    <feComposite in="spec" in2="SourceGraphic" operator="in" result="sm"/>
    <feComposite in="SourceGraphic" in2="sm" operator="arithmetic" k1="0" k2="1" k3="0.78" k4="0"/>
  </filter>

  <!-- Sketch wobble -->
  <filter id="skr1x7563" x="-8%" y="-8%" width="116%" height="116%">
    <feTurbulence type="fractalNoise" baseFrequency="0.038"
        numOctaves="3" seed="29" result="noise"/>
    <feDisplacementMap in="SourceGraphic" in2="noise" scale="2.6"
        xChannelSelector="R" yChannelSelector="G" result="w"/>
    <feComposite in="w" in2="SourceGraphic" operator="atop"/>
  </filter>

  <!-- Glow: sharp accent -->
  <filter id="glowr1x7563" x="-20%" y="-20%" width="140%" height="140%">
    <feGaussianBlur stdDeviation="3.5" result="b"/>
    <feColorMatrix in="b" type="matrix"
        values="0 0 0 0 1  0 0 0 0 1  0 0 0 0 1  0 0 0 1.8 0" result="boost"/>
    <feMerge><feMergeNode in="boost"/><feMergeNode in="SourceGraphic"/></feMerge>
  </filter>

  <!-- Bloom: wide soft -->
  <filter id="bloomr1x7563" x="-40%" y="-40%" width="180%" height="180%">
    <feGaussianBlur stdDeviation="11" result="b"/>
    <feMerge><feMergeNode in="b"/><feMergeNode in="SourceGraphic"/></feMerge>
  </filter>

  </defs><rect width="1000" height="1000" fill="url(#bgr1x7563)"/><line x1="0" y1="-3.0" x2="1000" y2="0.3" stroke="#4444ff" stroke-opacity=".055" stroke-width="1.2"/><line x1="-2.6" y1="0" x2="-1.5" y2="1000" stroke="#4444ff" stroke-opacity=".055" stroke-width="1.2"/><line x1="0" y1="99.2" x2="1000" y2="102.1" stroke="#4444ff" stroke-opacity=".055" stroke-width="1.2"/><line x1="99.4" y1="0" x2="97.7" y2="1000" stroke="#4444ff" stroke-opacity=".055" stroke-width="1.2"/><line x1="0" y1="200.8" x2="1000" y2="202.8" stroke="#4444ff" stroke-opacity=".055" stroke-width="1.2"/><line x1="198.7" y1="0" x2="202.4" y2="1000" stroke="#4444ff" stroke-opacity=".055" stroke-width="1.2"/><line x1="0" y1="297.3" x2="1000" y2="302.2" stroke="#4444ff" stroke-opacity=".055" stroke-width="1.2"/><line x1="301.8" y1="0" x2="301.5" y2="1000" stroke="#4444ff" stroke-opacity=".055" stroke-width="1.2"/><line x1="0" y1="399.3" x2="1000" y2="397.4" stroke="#4444ff" stroke-opacity=".055" stroke-width="1.2"/><line x1="400.0" y1="0" x2="401.0" y2="1000" stroke="#4444ff" stroke-opacity=".055" stroke-width="1.2"/><line x1="0" y1="498.1" x2="1000" y2="501.6" stroke="#4444ff" stroke-opacity=".055" stroke-width="1.2"/><line x1="498.3" y1="0" x2="500.5" y2="1000" stroke="#4444ff" stroke-opacity=".055" stroke-width="1.2"/><line x1="0" y1="602.2" x2="1000" y2="600.3" stroke="#4444ff" stroke-opacity=".055" stroke-width="1.2"/><line x1="598.0" y1="0" x2="602.0" y2="1000" stroke="#4444ff" stroke-opacity=".055" stroke-width="1.2"/><line x1="0" y1="698.9" x2="1000" y2="697.0" stroke="#4444ff" stroke-opacity=".055" stroke-width="1.2"/><line x1="701.6" y1="0" x2="700.3" y2="1000" stroke="#4444ff" stroke-opacity=".055" stroke-width="1.2"/><line x1="0" y1="798.4" x2="1000" y2="800.4" stroke="#4444ff" stroke-opacity=".055" stroke-width="1.2"/><line x1="799.9" y1="0" x2="802.2" y2="1000" stroke="#4444ff" stroke-opacity=".055" stroke-width="1.2"/><line x1="0" y1="899.2" x2="1000" y2="899.6" stroke="#4444ff" stroke-opacity=".055" stroke-width="1.2"/><line x1="902.8" y1="0" x2="897.3" y2="1000" stroke="#4444ff" stroke-opacity=".055" stroke-width="1.2"/><path d="M80,30 L30,30 L30,80" stroke="#4444ff" stroke-opacity=".45" stroke-width="2" fill="none" filter="url(#glowr1x7563)"/><path d="M920,30 L970,30 L970,80" stroke="#4444ff" stroke-opacity=".45" stroke-width="2" fill="none" filter="url(#glowr1x7563)"/><path d="M30,920 L30,970 L80,970" stroke="#4444ff" stroke-opacity=".45" stroke-width="2" fill="none" filter="url(#glowr1x7563)"/><path d="M970,920 L970,970 L920,970" stroke="#4444ff" stroke-opacity=".45" stroke-width="2" fill="none" filter="url(#glowr1x7563)"/><ellipse cx="500.0" cy="892.0" rx="350.0" ry="65.0" fill="rgba(0,0,0,.7)" filter="url(#bloomr1x7563)"/><ellipse cx="500.0" cy="889.0" rx="220.0" ry="34.0" fill="rgba(0,0,0,.45)"/><polygon points="399.5,662.1 490.8,661.1 480.7,879.1 389.1,877.8" fill="url(#suitr1x7563)" stroke="#4444ff" stroke-width="2.2" filter="url(#skr1x7563) url(#metalr1x7563)"/><polygon points="400.2,663.2 488.9,660.9 481.0,879.0 388.8,876.1" fill="url(#carbonr1x7563)"/><polygon points="392.6,722.3 492.3,722.9 482.4,788.9 384.2,789.9" fill="url(#bevelr1x7563)" fill-opacity=".5" stroke="#4444ff" stroke-width="1.4" filter="url(#skr1x7563)"/><polygon points="510.0,661.0 599.6,662.4 614.1,875.8 519.9,877.5" fill="url(#suitr1x7563)" stroke="#4444ff" stroke-width="2.2" filter="url(#skr1x7563) url(#metalr1x7563)"/><polygon points="510.9,662.6 600.9,661.2 613.7,879.0 518.5,876.9" fill="url(#carbonr1x7563)"/><polygon points="505.4,724.9 605.6,723.2 616.5,789.3 515.8,788.7" fill="url(#bevelr1x7563)" fill-opacity=".5" stroke="#4444ff" stroke-width="1.4" filter="url(#skr1x7563)"/><rect x="392.2" y="840.0" width="100.3" height="24.7" fill="url(#bevelr1x7563)" stroke="#4444ff" stroke-width="1" filter="url(#skr1x7563)"/><rect x="506.0"  y="838.0" width="100.3" height="24.7" fill="url(#bevelr1x7563)" stroke="#4444ff" stroke-width="1" filter="url(#skr1x7563)"/><polygon points="368.5,878.9 495.0,877.8 504.6,922.6 363.5,922.6" fill="#141428" stroke="#4444ff" stroke-width="2" filter="url(#skr1x7563)"/><polygon points="502.1,877.9 631.5,876.0 636.4,919.9 496.2,919.9" fill="#141428" stroke="#4444ff" stroke-width="2" filter="url(#skr1x7563)"/><polygon points="304.5,633.7 696.6,632.5 638.2,680.4 361.5,681.7" fill="#4444ff" fill-opacity=".52" stroke="#4444ff" stroke-width="2" filter="url(#skr1x7563)"/><rect x="462.5" y="639.4" width="72.0" height="42.0" fill="url(#bevelr1x7563)" stroke="#4444ff" stroke-width="1.4" filter="url(#glowr1x7563)"/><rect x="486.9" y="639.8" width="28.0" height="22.0" rx="1" fill="rgba(255,255,255,.48)"/><polygon points="151.7,468.1 234.1,467.1 259.4,733.9 128.3,733.3" fill="url(#suitr1x7563)" stroke="#4444ff" stroke-width="2.2" filter="url(#skr1x7563) url(#metalr1x7563)"/><polygon points="174.3,431.9 253.6,430.7 244.3,512.1 158.4,510.2" fill="url(#bevelr1x7563)" fill-opacity=".72" stroke="#4444ff" stroke-width="2.2" filter="url(#skr1x7563)"/><polygon points="161.9,623.5 241.4,621.9 238.7,661.0 166.1,660.9" fill="#4444ff" fill-opacity=".42" stroke="#4444ff" stroke-width="1" filter="url(#skr1x7563)"/><polygon points="764.2,467.7 846.3,467.3 873.2,734.5 742.6,735.4" fill="url(#suitr1x7563)" stroke="#4444ff" stroke-width="2.2" filter="url(#skr1x7563) url(#metalr1x7563)"/><polygon points="747.8,432.7 828.2,431.0 839.1,510.9 756.8,509.0" fill="url(#bevelr1x7563)" fill-opacity=".72" stroke="#4444ff" stroke-width="2.2" filter="url(#skr1x7563)"/><polygon points="757.5,621.9 837.0,623.5 835.1,659.9 760.2,661.3" fill="#4444ff" fill-opacity=".42" stroke="#4444ff" stroke-width="1" filter="url(#skr1x7563)"/><rect x="121.2"  y="701.5" width="135.3" height="85.0" rx="4" fill="url(#bevelr1x7563)" stroke="#4444ff" stroke-width="1.8" filter="url(#skr1x7563)"/><rect x="749.7"   y="698.4" width="135.3" height="85.0" rx="4" fill="url(#bevelr1x7563)" stroke="#4444ff" stroke-width="1.8" filter="url(#skr1x7563)"/><line x1="148.3" y1="701.8" x2="148.6" y2="783.9" stroke="#4444ff" stroke-opacity=".38" stroke-width="1"/><line x1="777.1" y1="700.2" x2="777.9" y2="783.2" stroke="#4444ff" stroke-opacity=".38" stroke-width="1"/><line x1="181.1" y1="703.4" x2="181.3" y2="783.6" stroke="#4444ff" stroke-opacity=".38" stroke-width="1"/><line x1="809.9" y1="701.4" x2="811.1" y2="782.6" stroke="#4444ff" stroke-opacity=".38" stroke-width="1"/><line x1="215.0" y1="703.2" x2="214.5" y2="782.8" stroke="#4444ff" stroke-opacity=".38" stroke-width="1"/><line x1="842.7" y1="702.1" x2="845.1" y2="782.2" stroke="#4444ff" stroke-opacity=".38" stroke-width="1"/><polygon points="235.1,417.0 764.5,417.7 723.0,661.5 276.3,664.1" fill="url(#suitr1x7563)" stroke="#4444ff" stroke-width="2.6" filter="url(#skr1x7563) url(#metalr1x7563)"/><polygon points="234.3,417.3 764.2,418.2 721.8,663.5 278.0,663.9" fill="url(#carbonr1x7563)"/><polygon points="367.9,418.2 633.8,418.3 612.1,514.1 389.1,517.1" fill="url(#suitHir1x7563)"/><line x1="362.0" y1="471.8" x2="639.6" y2="472.3" stroke="#4444ff" stroke-opacity=".52" stroke-width="1.3" filter="url(#skr1x7563)"/><line x1="400.2" y1="549.1" x2="601.4" y2="549.8" stroke="#4444ff" stroke-opacity=".52" stroke-width="1.3" filter="url(#skr1x7563)"/><line x1="268.3" y1="491.1" x2="320.9" y2="492.4" stroke="#4444ff" stroke-opacity=".62" stroke-width="1.8"/><line x1="680.0" y1="490.2" x2="731.6" y2="491.3" stroke="#4444ff" stroke-opacity=".62" stroke-width="1.8"/><line x1="267.2" y1="522.2" x2="321.4" y2="524.3" stroke="#4444ff" stroke-opacity=".62" stroke-width="1.8"/><line x1="681.7" y1="521.3" x2="733.5" y2="523.1" stroke="#4444ff" stroke-opacity=".62" stroke-width="1.8"/><line x1="266.2" y1="553.8" x2="318.0" y2="555.1" stroke="#4444ff" stroke-opacity=".62" stroke-width="1.8"/><line x1="678.8" y1="553.5" x2="734.6" y2="553.5" stroke="#4444ff" stroke-opacity=".62" stroke-width="1.8"/><line x1="267.9" y1="585.6" x2="318.1" y2="587.6" stroke="#4444ff" stroke-opacity=".62" stroke-width="1.8"/><line x1="679.6" y1="588.2" x2="734.4" y2="585.1" stroke="#4444ff" stroke-opacity=".62" stroke-width="1.8"/><g filter="url(#glowr1x7563)"><polygon points="498.9,451.1 513.3,491.1 555.7,491.4 523.0,517.1 533.3,558.4 499.9,537.1 466.1,558.6 474.6,516.9 443.8,492.8 485.7,489.4 " fill="#4444ff" stroke="#000a14" stroke-width="1.4" filter="url(#skr1x7563)"/><polygon points="498.9,451.1 513.3,491.1 555.7,491.4 523.0,517.1 533.3,558.4 499.9,537.1 466.1,558.6 474.6,516.9 443.8,492.8 485.7,489.4 " fill="url(#suitHir1x7563)" opacity=".45"/></g><g><line x1="100.85497994361442" y1="790.6294546396472" x2="85.73886580433694" y2="111.36775821652262" stroke="url(#chromer1x7563)" stroke-width="28.0" stroke-linecap="round" filter="url(#wmr1x7563)"/><line x1="96.53082223687318" y1="772.5538599872962" x2="88.9848443625867" y2="130.5221028221771" stroke="rgba(255,255,255,.42)" stroke-width="5.0" stroke-linecap="round"/><polygon points="73.3,152.8 140.4,153.0 85.2,-7.9" fill="url(#blader1x7563)" stroke="#4444ff" stroke-width="1.8" filter="url(#wmr1x7563)"/><line x1="140.2" y1="151.4" x2="84.2" y2="-8.6" stroke="rgba(255,255,255,.72)" stroke-width="1.6"/><rect x="84.63913108309728" y="420.0134915201925" width="40.0" height="20.0" fill="url(#bevelr1x7563)" stroke="#4444ff" stroke-width="1" filter="url(#wmr1x7563)"/><rect x="84.35988136645403" y="512.010219951719" width="40.0" height="20.0" fill="url(#bevelr1x7563)" stroke="#4444ff" stroke-width="1" filter="url(#wmr1x7563)"/><rect x="83.3491061919741" y="600.4381315306761" width="40.0" height="20.0" fill="url(#bevelr1x7563)" stroke="#4444ff" stroke-width="1" filter="url(#wmr1x7563)"/><rect x="83.60359164359045" y="690.9452496049926" width="40.0" height="20.0" fill="url(#bevelr1x7563)" stroke="#4444ff" stroke-width="1" filter="url(#wmr1x7563)"/><ellipse cx="102.32996928025034" cy="789.6222324659117" rx="22.0" ry="15.0" fill="url(#bevelr1x7563)" stroke="#4444ff" stroke-width="1" filter="url(#wmr1x7563)"/></g><rect x="449.3166994842701" y="555.7435815314763" width="100.0"  height="56.0" fill="#141428" stroke="#4444ff" stroke-width="2.2" filter="url(#skr1x7563)"/><rect x="423.0071718607098" y="575.8003014928662" width="152.0" height="26.0" fill="url(#bevelr1x7563)" fill-opacity=".65" stroke="#4444ff" stroke-width="1.2" filter="url(#skr1x7563)"/><polygon points="309.7,380.2 348.7,294.4 501.3,279.0 651.4,293.7 690.4,381.2 667.4,502.8 498.2,564.5 330.3,502.0" fill="url(#suitr1x7563)" stroke="#4444ff" stroke-width="2.8" filter="url(#skr1x7563) url(#metalr1x7563)"/><polygon points="308.4,379.6 350.8,294.8 499.5,277.7 650.4,292.9 692.1,381.9 667.4,501.9 499.0,565.3 330.8,501.9" fill="url(#carbonr1x7563)"/><polygon points="379.7,301.4 501.1,285.9 618.5,302.2 609.1,380.8 392.8,382.0" fill="url(#suitHir1x7563)"/><polygon points="379.4,379.7 366.0,426.2 432.4,502.7 498.5,527.1 566.4,503.1 635.2,425.4 617.4,379.7" fill="#000a14" fill-opacity=".88" stroke="#4444ff" stroke-width="1.8" filter="url(#skr1x7563)"/><polygon points="379.5,411.8 476.2,411.2 484.1,440.9 389.7,441.3" fill="#4444ff" filter="url(#glowr1x7563)"/><polygon points="524.4,412.0 619.5,412.8 612.2,441.0 514.6,441.8" fill="#4444ff" filter="url(#glowr1x7563)"/><ellipse cx="430.9" cy="425.7" rx="38.4"  ry="8.2" fill="#ffffff" opacity=".88"/><ellipse cx="569.1" cy="425.7" rx="38.4"  ry="8.2" fill="#ffffff" opacity=".88"/><line x1="482.97395541990176" y1="414.2702466527" x2="514.1178247739002" y2="411.6274025117978" stroke="#4444ff" stroke-opacity=".52" stroke-width="2"/><line x1="482.94428889989854" y1="438.6266266395338" x2="514.8842141997442" y2="438.39453056640923" stroke="#4444ff" stroke-opacity=".52" stroke-width="2"/><line x1="498.39223454371097" y1="455.74658544315025" x2="499.1153242002241" y2="482.691986849811" stroke="#4444ff" stroke-opacity=".58" stroke-width="2.2" filter="url(#skr1x7563)"/><line x1="455.1288700934313" y1="491.4290456916205" x2="455.1586623595841" y2="521.2988297753036" stroke="#4444ff" stroke-opacity=".52" stroke-width="1.5" filter="url(#skr1x7563)"/><line x1="476.01920142913235" y1="491.5905468608252" x2="478.2584949073754" y2="518.5654378564097" stroke="#4444ff" stroke-opacity=".52" stroke-width="1.5" filter="url(#skr1x7563)"/><line x1="501.51821293625983" y1="492.0659945711493" x2="499.72595145879313" y2="521.7320847050287" stroke="#4444ff" stroke-opacity=".52" stroke-width="1.5" filter="url(#skr1x7563)"/><line x1="522.6606301540136" y1="490.81060948409134" x2="521.4317768071405" y2="518.6092287675477" stroke="#4444ff" stroke-opacity=".52" stroke-width="1.5" filter="url(#skr1x7563)"/><line x1="546.6152372505702" y1="490.7404084265232" x2="544.4189355821535" y2="521.4754563611932" stroke="#4444ff" stroke-opacity=".52" stroke-width="1.5" filter="url(#skr1x7563)"/><polygon points="434.5,503.5 567.3,502.9 552.8,558.6 446.0,555.1" fill="#141428" fill-opacity=".72" stroke="#4444ff" stroke-width="1.3" filter="url(#skr1x7563)"/><polygon points="475.2,302.7 524.8,302.4 510.9,176.4 489.2,175.9" fill="url(#bevelr1x7563)" stroke="#4444ff" stroke-width="2.2" filter="url(#skr1x7563)"/><polygon points="367.0,321.7 456.1,322.7 469.2,229.0" fill="url(#bevelr1x7563)" fill-opacity=".78" stroke="#4444ff" stroke-width="1.5" filter="url(#skr1x7563)"/><polygon points="542.5,322.2 635.9,322.8 529.0,228.3" fill="url(#bevelr1x7563)" fill-opacity=".78" stroke="#4444ff" stroke-width="1.5" filter="url(#skr1x7563)"/><text x="30.0"  y="975.0" font-family="monospace" font-weight="bold" font-size="22.0" fill="rgba(255,255,255,.22)">#0001</text><text x="500.0"   y="975.0" text-anchor="middle" font-family="monospace" font-weight="bold" font-size="22.0" fill="#4444ff" fill-opacity=".48">OBSIDIAN RANGER</text><text x="970.0" y="975.0" text-anchor="end"    font-family="monospace" font-weight="bold" font-size="22.0" fill="#4444ff" fill-opacity=".32">MECH RANGERS</text></svg>