<svg xmlns="http://www.w3.org/2000/svg" viewBox="0 0 1000 1000" width="1000" height="1000" shape-rendering="geometricPrecision"><defs>

  <!-- Scene gradients -->
  <radialGradient id="bgr1x7650" cx="50%" cy="42%" r="72%">
    <stop offset="0%"   stop-color="#0a0a14"/>
    <stop offset="100%" stop-color="#050508"/>
  </radialGradient>
  <linearGradient id="suitr1x7650" x1="8%" y1="0%" x2="92%" y2="100%">
    <stop offset="0%"   stop-color="#ffcc00" stop-opacity=".95"/>
    <stop offset="45%"  stop-color="#a07000"/>
    <stop offset="100%" stop-color="#050508"/>
  </linearGradient>
  <linearGradient id="suitHir1x7650" x1="0%" y1="0%" x2="0%" y2="100%">
    <stop offset="0%"   stop-color="rgba(255,255,255,.28)"/>
    <stop offset="60%"  stop-color="rgba(255,255,255,.04)"/>
    <stop offset="100%" stop-color="rgba(255,255,255,0)"/>
  </linearGradient>
  <!-- Bevel: bright top, dark bottom for armour panels -->
  <linearGradient id="bevelr1x7650" x1="0%" y1="0%" x2="0%" y2="100%">
    <stop offset="0%"   stop-color="rgba(255,255,255,.55)"/>
    <stop offset="30%"  stop-color="#ffcc00"/>
    <stop offset="70%"  stop-color="#a07000"/>
    <stop offset="100%" stop-color="rgba(0,0,0,.5)"/>
  </linearGradient>

  <!-- Weapon: cold steel blade sweep -->
  <linearGradient id="blader1x7650" x1="0%" y1="0%" x2="100%" y2="0%">
    <stop offset="0%"   stop-color="#0e0e20"/>
    <stop offset="16%"  stop-color="#3e3e58"/>
    <stop offset="34%"  stop-color="#c8c8e0"/>
    <stop offset="50%"  stop-color="#f5f5ff"/>
    <stop offset="66%"  stop-color="#b8b8d0"/>
    <stop offset="84%"  stop-color="#2e2e48"/>
    <stop offset="100%" stop-color="#08080e"/>
  </linearGradient>
  <!-- Blade tip brightening -->
  <linearGradient id="bladeTipr1x7650" x1="0%" y1="100%" x2="0%" y2="0%">
    <stop offset="0%"   stop-color="rgba(255,255,255,0)"/>
    <stop offset="55%"  stop-color="rgba(255,255,255,.1)"/>
    <stop offset="100%" stop-color="rgba(255,255,255,.55)"/>
  </linearGradient>
  <!-- Gunmetal anodised — blaster body -->
  <linearGradient id="gunmetalr1x7650" x1="0%" y1="0%" x2="0%" y2="100%">
    <stop offset="0%"   stop-color="#46465e"/>
    <stop offset="18%"  stop-color="#828296"/>
    <stop offset="42%"  stop-color="#26263a"/>
    <stop offset="72%"  stop-color="#16162a"/>
    <stop offset="100%" stop-color="#0c0c18"/>
  </linearGradient>
  <!-- Brushed steel tube — barrel/rod -->
  <linearGradient id="barrelr1x7650" x1="0%" y1="0%" x2="100%" y2="0%">
    <stop offset="0%"   stop-color="#0a0a14"/>
    <stop offset="24%"  stop-color="#585875"/>
    <stop offset="50%"  stop-color="#a8a8c8"/>
    <stop offset="76%"  stop-color="#383852"/>
    <stop offset="100%" stop-color="#0a0a14"/>
  </linearGradient>
  <!-- Chrome rod — lance shaft -->
  <linearGradient id="chromer1x7650" x1="0%" y1="0%" x2="100%" y2="0%">
    <stop offset="0%"   stop-color="#0c0c18"/>
    <stop offset="20%"  stop-color="#686888"/>
    <stop offset="44%"  stop-color="#e0e0f0"/>
    <stop offset="56%"  stop-color="#c0c0d8"/>
    <stop offset="80%"  stop-color="#28283e"/>
    <stop offset="100%" stop-color="#0c0c18"/>
  </linearGradient>
  <!-- Titanium plate — shield face -->
  <linearGradient id="titaniumr1x7650" x1="0%" y1="0%" x2="100%" y2="100%">
    <stop offset="0%"   stop-color="#585878"/>
    <stop offset="28%"  stop-color="#ffcc00" stop-opacity=".88"/>
    <stop offset="55%"  stop-color="#a07000"/>
    <stop offset="80%"  stop-color="#181828"/>
    <stop offset="100%" stop-color="#0a0a18"/>
  </linearGradient>
  <!-- Artillery black-chrome — cannon body -->
  <linearGradient id="artilleryr1x7650" x1="0%" y1="0%" x2="0%" y2="100%">
    <stop offset="0%"   stop-color="#383850"/>
    <stop offset="14%"  stop-color="#78789a"/>
    <stop offset="36%"  stop-color="#202034"/>
    <stop offset="65%"  stop-color="#14141e"/>
    <stop offset="100%" stop-color="#0a0a12"/>
  </linearGradient>
  <!-- Energy orb — staff -->
  <radialGradient id="orbr1x7650" cx="35%" cy="35%" r="65%">
    <stop offset="0%"   stop-color="rgba(255,255,255,.9)"/>
    <stop offset="30%"  stop-color="#ffcc00"/>
    <stop offset="68%"  stop-color="#a07000"/>
    <stop offset="100%" stop-color="rgba(0,0,0,.6)"/>
  </radialGradient>
  <!-- Knuckle plate chrome -->
  <linearGradient id="knuckler1x7650" x1="0%" y1="0%" x2="0%" y2="100%">
    <stop offset="0%"   stop-color="#888aaa"/>
    <stop offset="32%"  stop-color="#ffcc00" stop-opacity=".8"/>
    <stop offset="62%"  stop-color="#1a1a2c"/>
    <stop offset="100%" stop-color="#0a0a14"/>
  </linearGradient>

  <!-- Carbon fibre weave texture overlay -->
  <pattern id="carbonr1x7650" width="6" height="6" patternUnits="userSpaceOnUse">
    <rect width="6" height="6" fill="rgba(0,0,0,.08)"/>
    <rect x="0" y="0" width="3" height="3" fill="rgba(255,255,255,.022)"/>
    <rect x="3" y="3" width="3" height="3" fill="rgba(255,255,255,.022)"/>
    <line x1="0" y1="0" x2="3" y2="3" stroke="rgba(255,255,255,.038)" stroke-width=".5"/>
    <line x1="3" y1="0" x2="6" y2="3" stroke="rgba(0,0,0,.055)"       stroke-width=".5"/>
    <line x1="0" y1="3" x2="3" y2="6" stroke="rgba(0,0,0,.055)"       stroke-width=".5"/>
    <line x1="3" y1="3" x2="6" y2="6" stroke="rgba(255,255,255,.038)" stroke-width=".5"/>
  </pattern>

  <!-- Specular metal sheen on armour panels -->
  <filter id="metalr1x7650" x="-5%" y="-5%" width="110%" height="110%">
    <feSpecularLighting surfaceScale="4" specularConstant="1.8"
        specularExponent="42" lighting-color="#ffffff" result="spec">
      <feDistantLight elevation="52" azimuth="38"/>
    </feSpecularLighting>
    <feComposite in="spec" in2="SourceGraphic" operator="in" result="sm"/>
    <feComposite in="SourceGraphic" in2="sm" operator="arithmetic" k1="0" k2="1" k3="0.55" k4="0"/>
  </filter>

  <!-- Sharper specular for weapons — heavier glare -->
  <filter id="wmr1x7650" x="-8%" y="-8%" width="116%" height="116%">
    <feSpecularLighting surfaceScale="6" specularConstant="2.4"
        specularExponent="65" lighting-color="#ffffff" result="spec">
      <feDistantLight elevation="44" azimuth="28"/>
    </feSpecularLighting>
    <feComposite in="spec" in2="SourceGraphic" operator="in" result="sm"/>
    <feComposite in="SourceGraphic" in2="sm" operator="arithmetic" k1="0" k2="1" k3="0.78" k4="0"/>
  </filter>

  <!-- Sketch wobble -->
  <filter id="skr1x7650" x="-8%" y="-8%" width="116%" height="116%">
    <feTurbulence type="fractalNoise" baseFrequency="0.038"
        numOctaves="3" seed="52" result="noise"/>
    <feDisplacementMap in="SourceGraphic" in2="noise" scale="2.6"
        xChannelSelector="R" yChannelSelector="G" result="w"/>
    <feComposite in="w" in2="SourceGraphic" operator="atop"/>
  </filter>

  <!-- Glow: sharp accent -->
  <filter id="glowr1x7650" x="-20%" y="-20%" width="140%" height="140%">
    <feGaussianBlur stdDeviation="3.5" result="b"/>
    <feColorMatrix in="b" type="matrix"
        values="0 0 0 0 1  0 0 0 0 1  0 0 0 0 1  0 0 0 1.8 0" result="boost"/>
    <feMerge><feMergeNode in="boost"/><feMergeNode in="SourceGraphic"/></feMerge>
  </filter>

  <!-- Bloom: wide soft -->
  <filter id="bloomr1x7650" x="-40%" y="-40%" width="180%" height="180%">
    <feGaussianBlur stdDeviation="11" result="b"/>
    <feMerge><feMergeNode in="b"/><feMergeNode in="SourceGraphic"/></feMerge>
  </filter>

  </defs><rect width="1000" height="1000" fill="url(#bgr1x7650)"/><ellipse cx="500.0" cy="892.0" rx="350.0" ry="65.0" fill="rgba(0,0,0,.7)" filter="url(#bloomr1x7650)"/><ellipse cx="500.0" cy="889.0" rx="220.0" ry="34.0" fill="rgba(0,0,0,.45)"/><polygon points="400.1,661.7 489.6,663.8 479.4,878.0 387.8,877.1" fill="url(#suitr1x7650)" stroke="#ffcc00" stroke-width="2.2" filter="url(#skr1x7650) url(#metalr1x7650)"/><polygon points="399.4,663.5 490.4,661.9 481.4,876.6 389.1,878.9" fill="url(#carbonr1x7650)"/><polygon points="392.9,725.0 494.4,725.2 483.1,786.8 383.5,789.9" fill="url(#bevelr1x7650)" fill-opacity=".5" stroke="#ffcc00" stroke-width="1.4" filter="url(#skr1x7650)"/><polygon points="511.2,661.3 599.9,663.7 610.9,878.4 517.8,876.8" fill="url(#suitr1x7650)" stroke="#ffcc00" stroke-width="2.2" filter="url(#skr1x7650) url(#metalr1x7650)"/><polygon points="509.1,661.1 601.5,661.6 611.7,876.6 518.3,876.4" fill="url(#carbonr1x7650)"/><polygon points="507.2,723.1 605.6,722.4 616.4,786.8 515.5,787.1" fill="url(#bevelr1x7650)" fill-opacity=".5" stroke="#ffcc00" stroke-width="1.4" filter="url(#skr1x7650)"/><rect x="392.1" y="840.1" width="100.3" height="24.7" fill="url(#bevelr1x7650)" stroke="#ffcc00" stroke-width="1" filter="url(#skr1x7650)"/><rect x="507.9"  y="840.4" width="100.3" height="24.7" fill="url(#bevelr1x7650)" stroke="#ffcc00" stroke-width="1" filter="url(#skr1x7650)"/><polygon points="368.0,876.5 497.1,879.0 504.6,923.2 362.8,922.5" fill="#a07000" stroke="#ffcc00" stroke-width="2" filter="url(#skr1x7650)"/><polygon points="503.0,879.3 631.9,876.6 638.4,923.0 495.6,923.2" fill="#a07000" stroke="#ffcc00" stroke-width="2" filter="url(#skr1x7650)"/><polygon points="304.4,633.9 696.3,633.3 636.2,681.2 361.5,683.3" fill="#ffcc00" fill-opacity=".52" stroke="#ffcc00" stroke-width="2" filter="url(#skr1x7650)"/><rect x="464.0" y="639.0" width="72.0" height="42.0" fill="url(#bevelr1x7650)" stroke="#ffcc00" stroke-width="1.4" filter="url(#glowr1x7650)"/><rect x="485.8" y="641.7" width="28.0" height="22.0" rx="1" fill="rgba(255,255,255,.48)"/><polygon points="153.6,468.2 233.3,467.6 258.0,733.9 128.1,735.6" fill="url(#suitr1x7650)" stroke="#ffcc00" stroke-width="2.2" filter="url(#skr1x7650) url(#metalr1x7650)"/><polygon points="174.6,432.9 252.7,431.2 243.8,509.4 158.7,511.8" fill="url(#bevelr1x7650)" fill-opacity=".72" stroke="#ffcc00" stroke-width="2.2" filter="url(#skr1x7650)"/><polygon points="159.8,620.8 244.1,621.6 238.4,659.6 166.6,660.4" fill="#ffcc00" fill-opacity=".42" stroke="#ffcc00" stroke-width="1" filter="url(#skr1x7650)"/><polygon points="765.6,466.2 847.5,464.7 873.1,733.8 741.1,735.2" fill="url(#suitr1x7650)" stroke="#ffcc00" stroke-width="2.2" filter="url(#skr1x7650) url(#metalr1x7650)"/><polygon points="746.7,433.4 825.4,434.0 842.1,508.8 757.6,512.4" fill="url(#bevelr1x7650)" fill-opacity=".72" stroke="#ffcc00" stroke-width="2.2" filter="url(#skr1x7650)"/><polygon points="757.2,621.8 837.8,623.1 833.6,659.8 761.8,660.0" fill="#ffcc00" fill-opacity=".42" stroke="#ffcc00" stroke-width="1" filter="url(#skr1x7650)"/><rect x="120.0"  y="699.0" width="135.3" height="85.0" rx="4" fill="url(#bevelr1x7650)" stroke="#ffcc00" stroke-width="1.8" filter="url(#skr1x7650)"/><rect x="749.2"   y="699.0" width="135.3" height="85.0" rx="4" fill="url(#bevelr1x7650)" stroke="#ffcc00" stroke-width="1.8" filter="url(#skr1x7650)"/><line x1="150.4" y1="700.8" x2="148.9" y2="784.6" stroke="#ffcc00" stroke-opacity=".38" stroke-width="1"/><line x1="779.1" y1="701.2" x2="779.2" y2="782.1" stroke="#ffcc00" stroke-opacity=".38" stroke-width="1"/><line x1="183.6" y1="703.2" x2="184.2" y2="783.3" stroke="#ffcc00" stroke-opacity=".38" stroke-width="1"/><line x1="812.6" y1="701.7" x2="809.6" y2="783.7" stroke="#ffcc00" stroke-opacity=".38" stroke-width="1"/><line x1="215.9" y1="702.9" x2="214.8" y2="784.1" stroke="#ffcc00" stroke-opacity=".38" stroke-width="1"/><line x1="843.0" y1="700.8" x2="844.7" y2="784.8" stroke="#ffcc00" stroke-opacity=".38" stroke-width="1"/><polygon points="234.4,418.8 766.2,416.2 721.6,661.1 275.9,663.6" fill="url(#suitr1x7650)" stroke="#ffcc00" stroke-width="2.6" filter="url(#skr1x7650) url(#metalr1x7650)"/><polygon points="234.9,415.9 765.5,417.5 721.6,663.8 277.9,663.2" fill="url(#carbonr1x7650)"/><polygon points="367.8,418.5 632.0,418.1 611.5,514.8 390.3,514.5" fill="url(#suitHir1x7650)"/><line x1="362.2" y1="469.9" x2="637.9" y2="469.8" stroke="#ffcc00" stroke-opacity=".52" stroke-width="1.3" filter="url(#skr1x7650)"/><line x1="399.9" y1="551.1" x2="599.7" y2="550.8" stroke="#ffcc00" stroke-opacity=".52" stroke-width="1.3" filter="url(#skr1x7650)"/><line x1="268.5" y1="489.4" x2="321.1" y2="489.2" stroke="#ffcc00" stroke-opacity=".62" stroke-width="1.8"/><line x1="679.1" y1="492.2" x2="734.7" y2="491.4" stroke="#ffcc00" stroke-opacity=".62" stroke-width="1.8"/><line x1="268.0" y1="524.1" x2="318.5" y2="524.4" stroke="#ffcc00" stroke-opacity=".62" stroke-width="1.8"/><line x1="680.5" y1="521.4" x2="734.1" y2="522.7" stroke="#ffcc00" stroke-opacity=".62" stroke-width="1.8"/><line x1="265.1" y1="553.8" x2="320.3" y2="553.7" stroke="#ffcc00" stroke-opacity=".62" stroke-width="1.8"/><line x1="678.7" y1="555.4" x2="734.7" y2="555.7" stroke="#ffcc00" stroke-opacity=".62" stroke-width="1.8"/><line x1="267.9" y1="587.4" x2="319.8" y2="586.8" stroke="#ffcc00" stroke-opacity=".62" stroke-width="1.8"/><line x1="679.0" y1="588.0" x2="731.6" y2="588.1" stroke="#ffcc00" stroke-opacity=".62" stroke-width="1.8"/><g filter="url(#glowr1x7650)"><polygon points="501.0,451.2 515.2,489.2 554.7,493.8 525.9,518.2 534.1,555.7 498.7,535.5 466.7,555.8 475.2,518.2 443.5,492.3 483.8,490.5 " fill="#ffcc00" stroke="#050508" stroke-width="1.4" filter="url(#skr1x7650)"/><polygon points="501.0,451.2 515.2,489.2 554.7,493.8 525.9,518.2 534.1,555.7 498.7,535.5 466.7,555.8 475.2,518.2 443.5,492.3 483.8,490.5 " fill="url(#suitHir1x7650)" opacity=".45"/></g><g><polygon points="871.8,671.4 923.8,671.4 908.2,-28.6 887.4,-28.6" fill="url(#blader1x7650)" filter="url(#wmr1x7650)"/><polygon points="887.4,-28.6 908.2,-28.6 897.8,-138.6" fill="url(#blader1x7650)" filter="url(#wmr1x7650)"/><polygon points="896.0,671.4 899.7,671.4 898.4,-128.6 897.3,-128.6" fill="url(#bladeTipr1x7650)" opacity=".9"/><line x1="906.8297699295916" y1="673.1748790556564" x2="898.2430530214868" y2="-128.6438576755114" stroke="rgba(255,255,255,.68)" stroke-width="1.5"/><line x1="889.1896713577397" y1="671.9891073835082" x2="896.3933484145441" y2="-129.76725014382976" stroke="#ffcc00" stroke-width="1" stroke-opacity=".45"/><line x1="902.5" y1="651.4" x2="899.7" y2="11.4" stroke="rgba(0,0,0,.38)" stroke-width="1.6"/><line x1="893.2" y1="651.4" x2="896.0" y2="11.4" stroke="rgba(0,0,0,.38)" stroke-width="1.6"/><rect x="840.3858602711558" y="670.4605038224719" width="112.0" height="28.0" rx="3" fill="url(#bevelr1x7650)" stroke="#ffcc00" stroke-width="1.6" filter="url(#wmr1x7650)"/><rect x="864.2936631475203" y="672.5773693449795" width="64.0" height="10.0" rx="1" fill="rgba(255,255,255,.32)"/><rect x="884.5780583133549" y="678.2222991490736" width="24.0" height="6.0" rx="1" fill="#ffcc00" fill-opacity=".35"/><rect x="884.5674167681113" y="686.9474470732733" width="24.0" height="6.0" rx="1" fill="#ffcc00" fill-opacity=".35"/><rect x="886.8838691410236" y="694.6328231880441" width="24.0" height="6.0" rx="1" fill="#ffcc00" fill-opacity=".35"/><rect x="884.1604701103271" y="701.03417084869" width="24.0" height="6.0" rx="1" fill="#ffcc00" fill-opacity=".35"/><rect x="885.6325031849184" y="707.7364154757931" width="24.0" height="6.0" rx="1" fill="#ffcc00" fill-opacity=".35"/><rect x="884.6702199907601" y="717.7258142590523" width="24.0" height="6.0" rx="1" fill="#ffcc00" fill-opacity=".35"/><ellipse cx="896.1641354201921" cy="725.2085041719489" rx="22.0" ry="16.0" fill="url(#bevelr1x7650)" stroke="#ffcc00" stroke-width="1.2" filter="url(#wmr1x7650)"/></g><rect x="448.3036436056718" y="555.727255547978" width="100.0"  height="56.0" fill="#a07000" stroke="#ffcc00" stroke-width="2.2" filter="url(#skr1x7650)"/><rect x="424.89956700764594" y="574.3838760652579" width="152.0" height="26.0" fill="url(#bevelr1x7650)" fill-opacity=".65" stroke="#ffcc00" stroke-width="1.2" filter="url(#skr1x7650)"/><polygon points="309.3,381.2 349.9,292.8 501.0,279.2 650.7,294.4 691.4,379.0 669.7,502.3 498.8,566.7 330.3,504.5" fill="url(#suitr1x7650)" stroke="#ffcc00" stroke-width="2.8" filter="url(#skr1x7650) url(#metalr1x7650)"/><polygon points="309.0,379.0 350.9,295.2 499.1,278.2 648.4,295.5 693.8,380.4 668.2,502.4 500.8,566.8 332.2,502.5" fill="url(#carbonr1x7650)"/><polygon points="381.8,303.2 501.7,287.7 619.4,301.1 608.2,380.1 391.2,381.5" fill="url(#suitHir1x7650)"/><polygon points="379.6,379.2 363.9,425.1 434.2,501.9 500.3,528.1 567.9,501.9 634.7,426.2 619.2,380.4" fill="#050508" fill-opacity=".88" stroke="#ffcc00" stroke-width="1.8" filter="url(#skr1x7650)"/><polygon points="379.6,413.1 475.3,410.8 486.4,440.3 389.4,441.7" fill="#ffcc00" filter="url(#glowr1x7650)"/><polygon points="522.6,410.1 620.6,412.7 612.5,440.8 514.1,439.4" fill="#ffcc00" filter="url(#glowr1x7650)"/><ellipse cx="430.9" cy="425.7" rx="38.4"  ry="8.2" fill="#ffffff" opacity=".88"/><ellipse cx="569.1" cy="425.7" rx="38.4"  ry="8.2" fill="#ffffff" opacity=".88"/><line x1="486.0720711802691" y1="413.89615358943115" x2="513.5796641862393" y2="413.2580006746575" stroke="#ffcc00" stroke-opacity=".52" stroke-width="2"/><line x1="486.36799224918707" y1="436.3763692229055" x2="513.9503092890978" y2="437.0550606222823" stroke="#ffcc00" stroke-opacity=".52" stroke-width="2"/><line x1="500.0679262735881" y1="455.10554764913394" x2="498.6159422067925" y2="481.92884641559795" stroke="#ffcc00" stroke-opacity=".58" stroke-width="2.2" filter="url(#skr1x7650)"/><line x1="453.7098458165117" y1="491.5605397874489" x2="455.50335958635435" y2="519.5455330122262" stroke="#ffcc00" stroke-opacity=".52" stroke-width="1.5" filter="url(#skr1x7650)"/><line x1="477.9570383843407" y1="492.4862954086624" x2="476.07670956369486" y2="520.4770619978196" stroke="#ffcc00" stroke-opacity=".52" stroke-width="1.5" filter="url(#skr1x7650)"/><line x1="500.23283118782564" y1="491.0649009759537" x2="498.62375218840316" y2="518.8572333970108" stroke="#ffcc00" stroke-opacity=".52" stroke-width="1.5" filter="url(#skr1x7650)"/><line x1="521.8813035732694" y1="491.32392857335503" x2="523.607315227352" y2="521.6583589155227" stroke="#ffcc00" stroke-opacity=".52" stroke-width="1.5" filter="url(#skr1x7650)"/><line x1="547.8043821785785" y1="492.78679750114674" x2="547.4146156839282" y2="519.1064105407335" stroke="#ffcc00" stroke-opacity=".52" stroke-width="1.5" filter="url(#skr1x7650)"/><polygon points="431.3,504.7 566.0,504.3 552.5,558.2 446.5,555.9" fill="#a07000" fill-opacity=".72" stroke="#ffcc00" stroke-width="1.3" filter="url(#skr1x7650)"/><text x="30.0"  y="975.0" font-family="monospace" font-weight="bold" font-size="22.0" fill="rgba(255,255,255,.22)">#0001</text><text x="500.0"   y="975.0" text-anchor="middle" font-family="monospace" font-weight="bold" font-size="22.0" fill="#ffcc00" fill-opacity=".48">NOVA RANGER</text><text x="970.0" y="975.0" text-anchor="end"    font-family="monospace" font-weight="bold" font-size="22.0" fill="#ffcc00" fill-opacity=".32">MECH RANGERS</text></svg>