<svg xmlns="http://www.w3.org/2000/svg" viewBox="0 0 1000 1000" width="1000" height="1000" shape-rendering="geometricPrecision"><defs>

  <!-- Scene gradients -->
  <radialGradient id="bgr1x7696" cx="50%" cy="42%" r="72%">
    <stop offset="0%"   stop-color="#001e1e"/>
    <stop offset="100%" stop-color="#0e001e"/>
  </radialGradient>
  <linearGradient id="suitr1x7696" x1="8%" y1="0%" x2="92%" y2="100%">
    <stop offset="0%"   stop-color="#ffcc00" stop-opacity=".95"/>
    <stop offset="45%"  stop-color="#a07000"/>
    <stop offset="100%" stop-color="#0e001e"/>
  </linearGradient>
  <linearGradient id="suitHir1x7696" x1="0%" y1="0%" x2="0%" y2="100%">
    <stop offset="0%"   stop-color="rgba(255,255,255,.28)"/>
    <stop offset="60%"  stop-color="rgba(255,255,255,.04)"/>
    <stop offset="100%" stop-color="rgba(255,255,255,0)"/>
  </linearGradient>
  <!-- Bevel: bright top, dark bottom for armour panels -->
  <linearGradient id="bevelr1x7696" x1="0%" y1="0%" x2="0%" y2="100%">
    <stop offset="0%"   stop-color="rgba(255,255,255,.55)"/>
    <stop offset="30%"  stop-color="#ffcc00"/>
    <stop offset="70%"  stop-color="#a07000"/>
    <stop offset="100%" stop-color="rgba(0,0,0,.5)"/>
  </linearGradient>

  <!-- Weapon: cold steel blade sweep -->
  <linearGradient id="blader1x7696" x1="0%" y1="0%" x2="100%" y2="0%">
    <stop offset="0%"   stop-color="#0e0e20"/>
    <stop offset="16%"  stop-color="#3e3e58"/>
    <stop offset="34%"  stop-color="#c8c8e0"/>
    <stop offset="50%"  stop-color="#f5f5ff"/>
    <stop offset="66%"  stop-color="#b8b8d0"/>
    <stop offset="84%"  stop-color="#2e2e48"/>
    <stop offset="100%" stop-color="#08080e"/>
  </linearGradient>
  <!-- Blade tip brightening -->
  <linearGradient id="bladeTipr1x7696" x1="0%" y1="100%" x2="0%" y2="0%">
    <stop offset="0%"   stop-color="rgba(255,255,255,0)"/>
    <stop offset="55%"  stop-color="rgba(255,255,255,.1)"/>
    <stop offset="100%" stop-color="rgba(255,255,255,.55)"/>
  </linearGradient>
  <!-- Gunmetal anodised — blaster body -->
  <linearGradient id="gunmetalr1x7696" x1="0%" y1="0%" x2="0%" y2="100%">
    <stop offset="0%"   stop-color="#46465e"/>
    <stop offset="18%"  stop-color="#828296"/>
    <stop offset="42%"  stop-color="#26263a"/>
    <stop offset="72%"  stop-color="#16162a"/>
    <stop offset="100%" stop-color="#0c0c18"/>
  </linearGradient>
  <!-- Brushed steel tube — barrel/rod -->
  <linearGradient id="barrelr1x7696" x1="0%" y1="0%" x2="100%" y2="0%">
    <stop offset="0%"   stop-color="#0a0a14"/>
    <stop offset="24%"  stop-color="#585875"/>
    <stop offset="50%"  stop-color="#a8a8c8"/>
    <stop offset="76%"  stop-color="#383852"/>
    <stop offset="100%" stop-color="#0a0a14"/>
  </linearGradient>
  <!-- Chrome rod — lance shaft -->
  <linearGradient id="chromer1x7696" x1="0%" y1="0%" x2="100%" y2="0%">
    <stop offset="0%"   stop-color="#0c0c18"/>
    <stop offset="20%"  stop-color="#686888"/>
    <stop offset="44%"  stop-color="#e0e0f0"/>
    <stop offset="56%"  stop-color="#c0c0d8"/>
    <stop offset="80%"  stop-color="#28283e"/>
    <stop offset="100%" stop-color="#0c0c18"/>
  </linearGradient>
  <!-- Titanium plate — shield face -->
  <linearGradient id="titaniumr1x7696" x1="0%" y1="0%" x2="100%" y2="100%">
    <stop offset="0%"   stop-color="#585878"/>
    <stop offset="28%"  stop-color="#ffcc00" stop-opacity=".88"/>
    <stop offset="55%"  stop-color="#a07000"/>
    <stop offset="80%"  stop-color="#181828"/>
    <stop offset="100%" stop-color="#0a0a18"/>
  </linearGradient>
  <!-- Artillery black-chrome — cannon body -->
  <linearGradient id="artilleryr1x7696" x1="0%" y1="0%" x2="0%" y2="100%">
    <stop offset="0%"   stop-color="#383850"/>
    <stop offset="14%"  stop-color="#78789a"/>
    <stop offset="36%"  stop-color="#202034"/>
    <stop offset="65%"  stop-color="#14141e"/>
    <stop offset="100%" stop-color="#0a0a12"/>
  </linearGradient>
  <!-- Energy orb — staff -->
  <radialGradient id="orbr1x7696" cx="35%" cy="35%" r="65%">
    <stop offset="0%"   stop-color="rgba(255,255,255,.9)"/>
    <stop offset="30%"  stop-color="#ffcc00"/>
    <stop offset="68%"  stop-color="#a07000"/>
    <stop offset="100%" stop-color="rgba(0,0,0,.6)"/>
  </radialGradient>
  <!-- Knuckle plate chrome -->
  <linearGradient id="knuckler1x7696" x1="0%" y1="0%" x2="0%" y2="100%">
    <stop offset="0%"   stop-color="#888aaa"/>
    <stop offset="32%"  stop-color="#ffcc00" stop-opacity=".8"/>
    <stop offset="62%"  stop-color="#1a1a2c"/>
    <stop offset="100%" stop-color="#0a0a14"/>
  </linearGradient>

  <!-- Carbon fibre weave texture overlay -->
  <pattern id="carbonr1x7696" width="6" height="6" patternUnits="userSpaceOnUse">
    <rect width="6" height="6" fill="rgba(0,0,0,.08)"/>
    <rect x="0" y="0" width="3" height="3" fill="rgba(255,255,255,.022)"/>
    <rect x="3" y="3" width="3" height="3" fill="rgba(255,255,255,.022)"/>
    <line x1="0" y1="0" x2="3" y2="3" stroke="rgba(255,255,255,.038)" stroke-width=".5"/>
    <line x1="3" y1="0" x2="6" y2="3" stroke="rgba(0,0,0,.055)"       stroke-width=".5"/>
    <line x1="0" y1="3" x2="3" y2="6" stroke="rgba(0,0,0,.055)"       stroke-width=".5"/>
    <line x1="3" y1="3" x2="6" y2="6" stroke="rgba(255,255,255,.038)" stroke-width=".5"/>
  </pattern>

  <!-- Specular metal sheen on armour panels -->
  <filter id="metalr1x7696" x="-5%" y="-5%" width="110%" height="110%">
    <feSpecularLighting surfaceScale="4" specularConstant="1.8"
        specularExponent="42" lighting-color="#ffffff" result="spec">
      <feDistantLight elevation="52" azimuth="38"/>
    </feSpecularLighting>
    <feComposite in="spec" in2="SourceGraphic" operator="in" result="sm"/>
    <feComposite in="SourceGraphic" in2="sm" operator="arithmetic" k1="0" k2="1" k3="0.55" k4="0"/>
  </filter>

  <!-- Sharper specular for weapons — heavier glare -->
  <filter id="wmr1x7696" x="-8%" y="-8%" width="116%" height="116%">
    <feSpecularLighting surfaceScale="6" specularConstant="2.4"
        specularExponent="65" lighting-color="#ffffff" result="spec">
      <feDistantLight elevation="44" azimuth="28"/>
    </feSpecularLighting>
    <feComposite in="spec" in2="SourceGraphic" operator="in" result="sm"/>
    <feComposite in="SourceGraphic" in2="sm" operator="arithmetic" k1="0" k2="1" k3="0.78" k4="0"/>
  </filter>

  <!-- Sketch wobble -->
  <filter id="skr1x7696" x="-8%" y="-8%" width="116%" height="116%">
    <feTurbulence type="fractalNoise" baseFrequency="0.038"
        numOctaves="3" seed="74" result="noise"/>
    <feDisplacementMap in="SourceGraphic" in2="noise" scale="2.6"
        xChannelSelector="R" yChannelSelector="G" result="w"/>
    <feComposite in="w" in2="SourceGraphic" operator="atop"/>
  </filter>

  <!-- Glow: sharp accent -->
  <filter id="glowr1x7696" x="-20%" y="-20%" width="140%" height="140%">
    <feGaussianBlur stdDeviation="3.5" result="b"/>
    <feColorMatrix in="b" type="matrix"
        values="0 0 0 0 1  0 0 0 0 1  0 0 0 0 1  0 0 0 1.8 0" result="boost"/>
    <feMerge><feMergeNode in="boost"/><feMergeNode in="SourceGraphic"/></feMerge>
  </filter>

  <!-- Bloom: wide soft -->
  <filter id="bloomr1x7696" x="-40%" y="-40%" width="180%" height="180%">
    <feGaussianBlur stdDeviation="11" result="b"/>
    <feMerge><feMergeNode in="b"/><feMergeNode in="SourceGraphic"/></feMerge>
  </filter>

  </defs><rect width="1000" height="1000" fill="url(#bgr1x7696)"/><circle cx="500" cy="500" r="420.0" fill="none" stroke="#ffcc00" stroke-opacity=".11" stroke-width="42" stroke-dasharray="8,5"/><circle cx="500" cy="500" r="240.0" fill="none" stroke="#a07000" stroke-opacity=".09" stroke-width="18"/><line x1="500" y1="500" x2="1500.0" y2="500.0" stroke="#ffcc00" stroke-opacity=".035" stroke-width="1.2"/><line x1="500" y1="500" x2="1366.0" y2="1000.0" stroke="#ffcc00" stroke-opacity=".035" stroke-width="1.2"/><line x1="500" y1="500" x2="1000.0" y2="1366.0" stroke="#ffcc00" stroke-opacity=".035" stroke-width="1.2"/><line x1="500" y1="500" x2="500.0" y2="1500.0" stroke="#ffcc00" stroke-opacity=".035" stroke-width="1.2"/><line x1="500" y1="500" x2="0.0" y2="1366.0" stroke="#ffcc00" stroke-opacity=".035" stroke-width="1.2"/><line x1="500" y1="500" x2="-366.0" y2="1000.0" stroke="#ffcc00" stroke-opacity=".035" stroke-width="1.2"/><line x1="500" y1="500" x2="-500.0" y2="500.0" stroke="#ffcc00" stroke-opacity=".035" stroke-width="1.2"/><line x1="500" y1="500" x2="-366.0" y2="-0.0" stroke="#ffcc00" stroke-opacity=".035" stroke-width="1.2"/><line x1="500" y1="500" x2="-0.0" y2="-366.0" stroke="#ffcc00" stroke-opacity=".035" stroke-width="1.2"/><line x1="500" y1="500" x2="500.0" y2="-500.0" stroke="#ffcc00" stroke-opacity=".035" stroke-width="1.2"/><line x1="500" y1="500" x2="1000.0" y2="-366.0" stroke="#ffcc00" stroke-opacity=".035" stroke-width="1.2"/><line x1="500" y1="500" x2="1366.0" y2="-0.0" stroke="#ffcc00" stroke-opacity=".035" stroke-width="1.2"/><ellipse cx="500.0" cy="892.0" rx="350.0" ry="65.0" fill="rgba(0,0,0,.7)" filter="url(#bloomr1x7696)"/><ellipse cx="500.0" cy="889.0" rx="220.0" ry="34.0" fill="rgba(0,0,0,.45)"/><ellipse cx="500.0" cy="520.0" rx="320.0" ry="480.0" fill="#00e5ff" fill-opacity=".042" filter="url(#bloomr1x7696)"/><circle cx="651.3" cy="186.8" r="3.2" fill="#00e5ff" fill-opacity="0.39" filter="url(#glowr1x7696)"/><circle cx="709.5" cy="188.1" r="2.1" fill="#00e5ff" fill-opacity="0.54" filter="url(#glowr1x7696)"/><circle cx="368.8" cy="337.0" r="0.6" fill="#00e5ff" fill-opacity="0.52" filter="url(#glowr1x7696)"/><circle cx="401.5" cy="421.3" r="3.3" fill="#00e5ff" fill-opacity="0.55" filter="url(#glowr1x7696)"/><circle cx="610.5" cy="396.3" r="1.9" fill="#00e5ff" fill-opacity="0.52" filter="url(#glowr1x7696)"/><circle cx="336.2" cy="220.9" r="1.8" fill="#00e5ff" fill-opacity="0.74" filter="url(#glowr1x7696)"/><circle cx="473.8" cy="421.2" r="2.0" fill="#00e5ff" fill-opacity="0.83" filter="url(#glowr1x7696)"/><circle cx="253.8" cy="555.8" r="1.8" fill="#00e5ff" fill-opacity="0.84" filter="url(#glowr1x7696)"/><circle cx="392.3" cy="641.1" r="3.4" fill="#00e5ff" fill-opacity="0.77" filter="url(#glowr1x7696)"/><circle cx="271.3" cy="384.1" r="0.5" fill="#00e5ff" fill-opacity="0.39" filter="url(#glowr1x7696)"/><circle cx="354.7" cy="460.5" r="3.2" fill="#00e5ff" fill-opacity="0.81" filter="url(#glowr1x7696)"/><circle cx="478.9" cy="721.2" r="4.0" fill="#00e5ff" fill-opacity="0.75" filter="url(#glowr1x7696)"/><circle cx="414.6" cy="749.3" r="0.8" fill="#00e5ff" fill-opacity="0.44" filter="url(#glowr1x7696)"/><circle cx="473.5" cy="523.6" r="2.3" fill="#00e5ff" fill-opacity="0.66" filter="url(#glowr1x7696)"/><path d="M647.0,205.9 Q666.9,522.8 356.9,792.8" stroke="#00e5ff" stroke-opacity="0.70" stroke-width="1.6" fill="none" filter="url(#glowr1x7696)"/><path d="M402.2,164.3 Q398.5,441.0 505.2,666.3" stroke="#00e5ff" stroke-opacity="0.50" stroke-width="1.2" fill="none" filter="url(#glowr1x7696)"/><path d="M552.4,278.9 Q597.4,483.4 484.1,657.4" stroke="#00e5ff" stroke-opacity="0.76" stroke-width="1.3" fill="none" filter="url(#glowr1x7696)"/><path d="M453.7,395.2 Q464.5,667.1 538.9,887.8" stroke="#00e5ff" stroke-opacity="0.64" stroke-width="2.3" fill="none" filter="url(#glowr1x7696)"/><path d="M649.6,168.9 Q653.0,463.3 347.3,746.7" stroke="#00e5ff" stroke-opacity="0.59" stroke-width="1.9" fill="none" filter="url(#glowr1x7696)"/><polygon points="400.1,662.9 490.3,661.4 478.9,878.4 389.2,876.6" fill="url(#suitr1x7696)" stroke="#ffcc00" stroke-width="2.2" filter="url(#skr1x7696) url(#metalr1x7696)"/><polygon points="397.8,661.1 488.9,662.2 481.7,878.5 388.9,879.1" fill="url(#carbonr1x7696)"/><polygon points="391.5,722.3 493.4,724.6 483.4,788.9 384.3,789.0" fill="url(#bevelr1x7696)" fill-opacity=".5" stroke="#ffcc00" stroke-width="1.4" filter="url(#skr1x7696)"/><polygon points="509.2,662.9 601.5,662.5 612.7,879.3 519.4,877.9" fill="url(#suitr1x7696)" stroke="#ffcc00" stroke-width="2.2" filter="url(#skr1x7696) url(#metalr1x7696)"/><polygon points="511.6,663.4 600.8,663.2 612.4,879.1 519.9,877.1" fill="url(#carbonr1x7696)"/><polygon points="506.9,724.8 608.4,722.8 616.5,787.9 517.1,786.9" fill="url(#bevelr1x7696)" fill-opacity=".5" stroke="#ffcc00" stroke-width="1.4" filter="url(#skr1x7696)"/><rect x="393.4" y="839.3" width="100.3" height="24.7" fill="url(#bevelr1x7696)" stroke="#ffcc00" stroke-width="1" filter="url(#skr1x7696)"/><rect x="505.3"  y="838.6" width="100.3" height="24.7" fill="url(#bevelr1x7696)" stroke="#ffcc00" stroke-width="1" filter="url(#skr1x7696)"/><polygon points="369.5,878.1 494.8,878.8 503.4,922.6 363.3,919.9" fill="#a07000" stroke="#ffcc00" stroke-width="2" filter="url(#skr1x7696)"/><polygon points="505.0,878.0 631.7,878.8 636.9,919.8 495.4,919.9" fill="#a07000" stroke="#ffcc00" stroke-width="2" filter="url(#skr1x7696)"/><polygon points="304.6,633.7 697.0,634.2 636.9,683.4 360.9,682.6" fill="#ffcc00" fill-opacity=".52" stroke="#ffcc00" stroke-width="2" filter="url(#skr1x7696)"/><rect x="465.4" y="639.0" width="72.0" height="42.0" fill="url(#bevelr1x7696)" stroke="#ffcc00" stroke-width="1.4" filter="url(#glowr1x7696)"/><rect x="486.6" y="639.5" width="28.0" height="22.0" rx="1" fill="rgba(255,255,255,.48)"/><polygon points="151.5,466.1 233.8,465.3 259.0,736.6 128.0,735.9" fill="url(#suitr1x7696)" stroke="#ffcc00" stroke-width="2.2" filter="url(#skr1x7696) url(#metalr1x7696)"/><polygon points="172.1,430.9 251.7,433.2 241.6,511.8 158.7,511.9" fill="url(#bevelr1x7696)" fill-opacity=".72" stroke="#ffcc00" stroke-width="2.2" filter="url(#skr1x7696)"/><polygon points="162.4,623.0 243.4,622.1 239.5,662.0 165.1,661.6" fill="#ffcc00" fill-opacity=".42" stroke="#ffcc00" stroke-width="1" filter="url(#skr1x7696)"/><polygon points="763.5,465.7 848.7,468.2 872.5,733.4 742.8,735.8" fill="url(#suitr1x7696)" stroke="#ffcc00" stroke-width="2.2" filter="url(#skr1x7696) url(#metalr1x7696)"/><polygon points="748.3,432.2 827.7,432.5 839.4,509.0 756.9,510.9" fill="url(#bevelr1x7696)" fill-opacity=".72" stroke="#ffcc00" stroke-width="2.2" filter="url(#skr1x7696)"/><polygon points="757.7,623.4 837.9,621.2 836.0,660.9 760.8,660.8" fill="#ffcc00" fill-opacity=".42" stroke="#ffcc00" stroke-width="1" filter="url(#skr1x7696)"/><rect x="120.1"  y="698.4" width="135.3" height="85.0" rx="4" fill="url(#bevelr1x7696)" stroke="#ffcc00" stroke-width="1.8" filter="url(#skr1x7696)"/><rect x="747.5"   y="701.0" width="135.3" height="85.0" rx="4" fill="url(#bevelr1x7696)" stroke="#ffcc00" stroke-width="1.8" filter="url(#skr1x7696)"/><line x1="148.6" y1="700.8" x2="149.3" y2="783.7" stroke="#ffcc00" stroke-opacity=".38" stroke-width="1"/><line x1="776.7" y1="701.1" x2="779.3" y2="785.1" stroke="#ffcc00" stroke-opacity=".38" stroke-width="1"/><line x1="183.5" y1="701.3" x2="183.8" y2="784.6" stroke="#ffcc00" stroke-opacity=".38" stroke-width="1"/><line x1="810.3" y1="701.2" x2="810.7" y2="782.3" stroke="#ffcc00" stroke-opacity=".38" stroke-width="1"/><line x1="214.9" y1="701.1" x2="215.5" y2="782.3" stroke="#ffcc00" stroke-opacity=".38" stroke-width="1"/><line x1="844.3" y1="702.5" x2="843.8" y2="782.6" stroke="#ffcc00" stroke-opacity=".38" stroke-width="1"/><polygon points="235.4,415.9 766.2,418.3 721.1,661.9 276.3,662.3" fill="url(#suitr1x7696)" stroke="#ffcc00" stroke-width="2.6" filter="url(#skr1x7696) url(#metalr1x7696)"/><polygon points="236.7,417.0 766.1,418.2 724.1,662.0 276.8,664.0" fill="url(#carbonr1x7696)"/><polygon points="368.9,416.4 632.2,417.2 611.3,515.0 390.2,516.3" fill="url(#suitHir1x7696)"/><line x1="361.0" y1="470.0" x2="637.6" y2="470.4" stroke="#ffcc00" stroke-opacity=".52" stroke-width="1.3" filter="url(#skr1x7696)"/><line x1="399.0" y1="549.1" x2="602.1" y2="548.4" stroke="#ffcc00" stroke-opacity=".52" stroke-width="1.3" filter="url(#skr1x7696)"/><line x1="265.1" y1="491.6" x2="321.5" y2="490.3" stroke="#ffcc00" stroke-opacity=".62" stroke-width="1.8"/><line x1="681.6" y1="490.5" x2="732.5" y2="489.2" stroke="#ffcc00" stroke-opacity=".62" stroke-width="1.8"/><line x1="266.8" y1="521.9" x2="319.6" y2="524.1" stroke="#ffcc00" stroke-opacity=".62" stroke-width="1.8"/><line x1="680.0" y1="523.6" x2="732.4" y2="521.9" stroke="#ffcc00" stroke-opacity=".62" stroke-width="1.8"/><line x1="266.3" y1="556.5" x2="319.6" y2="556.5" stroke="#ffcc00" stroke-opacity=".62" stroke-width="1.8"/><line x1="678.9" y1="554.4" x2="733.5" y2="556.5" stroke="#ffcc00" stroke-opacity=".62" stroke-width="1.8"/><line x1="265.0" y1="587.8" x2="319.6" y2="587.5" stroke="#ffcc00" stroke-opacity=".62" stroke-width="1.8"/><line x1="679.5" y1="585.0" x2="731.5" y2="586.3" stroke="#ffcc00" stroke-opacity=".62" stroke-width="1.8"/><g filter="url(#glowr1x7696)"><circle cx="500.6" cy="500.0" r="31.3" fill="#ffcc00" stroke="#0e001e" stroke-width="1.4" filter="url(#skr1x7696)"/><circle cx="489.4" cy="498.8" r="7.0" fill="#0e001e"/><circle cx="511.7" cy="497.8" r="7.0" fill="#0e001e"/><rect x="482.7" y="521.8" width="9.3" height="17.4" rx="1" fill="#ffcc00" stroke="#0e001e" stroke-width=".6"/><rect x="497.1" y="521.3" width="9.3" height="17.4" rx="1" fill="#ffcc00" stroke="#0e001e" stroke-width=".6"/><rect x="508.6" y="523.6" width="9.3" height="17.4" rx="1" fill="#ffcc00" stroke="#0e001e" stroke-width=".6"/></g><g><rect x="829.5642233961821" y="419.9925591117702" width="148.0" height="82.0" rx="5" fill="url(#gunmetalr1x7696)" stroke="#ffcc00" stroke-width="2" filter="url(#wmr1x7696)"/><rect x="829.4581567767635" y="422.7726460105739" width="148.0" height="82.0" rx="5" fill="url(#carbonr1x7696)"/><rect x="837.1992384525576" y="404.72002708707004" width="90.0" height="22.0" rx="3" fill="url(#barrelr1x7696)" stroke="#ffcc00" stroke-width="1" filter="url(#wmr1x7696)"/><circle cx="879.1618719322234" cy="413.87822715789076" r="15.0" fill="#ffcc00" opacity=".8" filter="url(#glowr1x7696)"/><circle cx="876.071785121467" cy="414.78864829093214" r="6.0" fill="rgba(255,255,255,.9)"/><rect x="944.1883804497868" y="454.5402886988595" width="78.0" height="36.0" rx="5" fill="url(#barrelr1x7696)" stroke="#ffcc00" stroke-width="1.2" filter="url(#wmr1x7696)"/><circle cx="1018.2566484753602" cy="472.3171159141697" r="18.0" fill="#ffcc00" filter="url(#glowr1x7696)" opacity=".88"/><circle cx="1018.9784612855502" cy="470.4189357327297" r="7.0" fill="#ffffff"/><rect x="875.212649362497" y="500.03050854299215" width="44.0" height="42.0" rx="3" fill="url(#gunmetalr1x7696)" stroke="#ffcc00" stroke-width="1" filter="url(#wmr1x7696)"/><rect x="833.8061063998007" y="423.5056354995817" width="90.0" height="10.0" rx="2" fill="rgba(255,255,255,.22)"/><line x1="856.7528040831536" y1="487.046688888222" x2="859.4621279378981" y2="519.0356522821821" stroke="#ffcc00" stroke-opacity=".5" stroke-width="1.2"/><line x1="873.1464515481704" y1="484.6853106844239" x2="874.8426724616066" y2="520.9263935119844" stroke="#ffcc00" stroke-opacity=".5" stroke-width="1.2"/><line x1="890.0109422037937" y1="485.78767345808444" x2="891.5691376614012" y2="520.9429253818467" stroke="#ffcc00" stroke-opacity=".5" stroke-width="1.2"/></g><rect x="449.04882626244796" y="557.3299305101856" width="100.0"  height="56.0" fill="#a07000" stroke="#ffcc00" stroke-width="2.2" filter="url(#skr1x7696)"/><rect x="424.1960817844607" y="574.4400770772248" width="152.0" height="26.0" fill="url(#bevelr1x7696)" fill-opacity=".65" stroke="#ffcc00" stroke-width="1.2" filter="url(#skr1x7696)"/><polygon points="309.2,379.9 348.9,296.0 499.9,278.4 650.6,294.5 691.3,380.8 670.5,503.6 498.9,564.2 330.1,502.3" fill="url(#suitr1x7696)" stroke="#ffcc00" stroke-width="2.8" filter="url(#skr1x7696) url(#metalr1x7696)"/><polygon points="308.4,381.3 350.1,293.5 500.1,277.3 648.0,295.5 692.0,380.4 669.1,503.5 501.1,564.6 330.9,502.6" fill="url(#carbonr1x7696)"/><polygon points="382.0,303.7 499.7,286.7 617.5,304.4 609.1,378.9 392.2,380.3" fill="url(#suitHir1x7696)"/><polygon points="380.0,381.8 366.7,426.5 433.8,502.3 501.0,529.8 568.9,503.8 633.5,426.6 619.2,381.9" fill="#0e001e" fill-opacity=".88" stroke="#ffcc00" stroke-width="1.8" filter="url(#skr1x7696)"/><polygon points="381.8,411.0 475.6,409.8 484.4,441.2 389.1,440.9" fill="#ffcc00" filter="url(#glowr1x7696)"/><polygon points="523.4,411.8 617.9,411.0 612.7,441.5 515.0,440.2" fill="#ffcc00" filter="url(#glowr1x7696)"/><ellipse cx="430.9" cy="425.7" rx="38.4"  ry="8.2" fill="#ffffff" opacity=".88"/><ellipse cx="569.1" cy="425.7" rx="38.4"  ry="8.2" fill="#ffffff" opacity=".88"/><line x1="483.58576782342044" y1="414.22817222373556" x2="516.2894371324592" y2="415.07844448601827" stroke="#ffcc00" stroke-opacity=".52" stroke-width="2"/><line x1="485.99016175145283" y1="437.90369612770155" x2="516.6344397111237" y2="437.52875038683413" stroke="#ffcc00" stroke-opacity=".52" stroke-width="2"/><line x1="500.2590757522732" y1="452.70413831565526" x2="498.38986911196264" y2="482.8117611699738" stroke="#ffcc00" stroke-opacity=".58" stroke-width="2.2" filter="url(#skr1x7696)"/><line x1="452.4283504850045" y1="490.94530796054744" x2="453.0745505498536" y2="518.6753373684362" stroke="#ffcc00" stroke-opacity=".52" stroke-width="1.5" filter="url(#skr1x7696)"/><line x1="477.6734692600928" y1="490.65652761850504" x2="476.7175140231289" y2="518.9679288914427" stroke="#ffcc00" stroke-opacity=".52" stroke-width="1.5" filter="url(#skr1x7696)"/><line x1="499.8163226845674" y1="489.98375676134594" x2="500.58621931411324" y2="519.4060736189597" stroke="#ffcc00" stroke-opacity=".52" stroke-width="1.5" filter="url(#skr1x7696)"/><line x1="521.3630357882566" y1="492.53178993826725" x2="521.4862448262609" y2="519.9099324815907" stroke="#ffcc00" stroke-opacity=".52" stroke-width="1.5" filter="url(#skr1x7696)"/><line x1="545.1034659703449" y1="490.5495467882603" x2="547.7894056722708" y2="518.4247035748325" stroke="#ffcc00" stroke-opacity=".52" stroke-width="1.5" filter="url(#skr1x7696)"/><polygon points="433.8,505.3 566.6,504.2 553.3,558.2 445.2,556.2" fill="#a07000" fill-opacity=".72" stroke="#ffcc00" stroke-width="1.3" filter="url(#skr1x7696)"/><path d="M342.2768123068288 371.9740598767064 Q379.4474542570673 236.2553466127254 501.68771559596064 281.1717860479839" stroke="#ffcc00" stroke-width="2.8" fill="none" stroke-opacity=".88" filter="url(#skr1x7696)"/><path d="M657.1251899384522 373.31380635323 Q620.5627207120508 236.41332462998108 498.5309780855663 283.44649426741523" stroke="#ffcc00" stroke-width="2.8" fill="none" stroke-opacity=".88" filter="url(#skr1x7696)"/><line x1="418.60191313674676" y1="469.59086594115945" x2="438.3023877322115" y2="502.45896052001046" stroke="#ffcc00" stroke-opacity=".52" stroke-width="1.3" filter="url(#skr1x7696)"/><line x1="476.9515436085314" y1="470.50602995399385" x2="497.16114857126024" y2="503.1537068011239" stroke="#ffcc00" stroke-opacity=".52" stroke-width="1.3" filter="url(#skr1x7696)"/><line x1="536.0889988245815" y1="470.38183209281414" x2="554.4999257215671" y2="502.33381975004454" stroke="#ffcc00" stroke-opacity=".52" stroke-width="1.3" filter="url(#skr1x7696)"/><line x1="592.9281683858857" y1="469.6852603513748" x2="610.8557241343334" y2="503.2459945582785" stroke="#ffcc00" stroke-opacity=".52" stroke-width="1.3" filter="url(#skr1x7696)"/><text x="30.0"  y="975.0" font-family="monospace" font-weight="bold" font-size="22.0" fill="rgba(255,255,255,.22)">#0001</text><text x="500.0"   y="975.0" text-anchor="middle" font-family="monospace" font-weight="bold" font-size="22.0" fill="#ffcc00" fill-opacity=".48">NOVA RANGER</text><text x="970.0" y="975.0" text-anchor="end"    font-family="monospace" font-weight="bold" font-size="22.0" fill="#ffcc00" fill-opacity=".32">MECH RANGERS</text></svg>