<svg xmlns="http://www.w3.org/2000/svg" viewBox="0 0 1000 1000" width="1000" height="1000" shape-rendering="geometricPrecision"><defs>

  <!-- Scene gradients -->
  <radialGradient id="bgr1x7703" cx="50%" cy="42%" r="72%">
    <stop offset="0%"   stop-color="#0a0a14"/>
    <stop offset="100%" stop-color="#050508"/>
  </radialGradient>
  <linearGradient id="suitr1x7703" x1="8%" y1="0%" x2="92%" y2="100%">
    <stop offset="0%"   stop-color="#ccccff" stop-opacity=".95"/>
    <stop offset="45%"  stop-color="#242438"/>
    <stop offset="100%" stop-color="#050508"/>
  </linearGradient>
  <linearGradient id="suitHir1x7703" x1="0%" y1="0%" x2="0%" y2="100%">
    <stop offset="0%"   stop-color="rgba(255,255,255,.28)"/>
    <stop offset="60%"  stop-color="rgba(255,255,255,.04)"/>
    <stop offset="100%" stop-color="rgba(255,255,255,0)"/>
  </linearGradient>
  <!-- Bevel: bright top, dark bottom for armour panels -->
  <linearGradient id="bevelr1x7703" x1="0%" y1="0%" x2="0%" y2="100%">
    <stop offset="0%"   stop-color="rgba(255,255,255,.55)"/>
    <stop offset="30%"  stop-color="#ccccff"/>
    <stop offset="70%"  stop-color="#242438"/>
    <stop offset="100%" stop-color="rgba(0,0,0,.5)"/>
  </linearGradient>

  <!-- Weapon: cold steel blade sweep -->
  <linearGradient id="blader1x7703" x1="0%" y1="0%" x2="100%" y2="0%">
    <stop offset="0%"   stop-color="#0e0e20"/>
    <stop offset="16%"  stop-color="#3e3e58"/>
    <stop offset="34%"  stop-color="#c8c8e0"/>
    <stop offset="50%"  stop-color="#f5f5ff"/>
    <stop offset="66%"  stop-color="#b8b8d0"/>
    <stop offset="84%"  stop-color="#2e2e48"/>
    <stop offset="100%" stop-color="#08080e"/>
  </linearGradient>
  <!-- Blade tip brightening -->
  <linearGradient id="bladeTipr1x7703" x1="0%" y1="100%" x2="0%" y2="0%">
    <stop offset="0%"   stop-color="rgba(255,255,255,0)"/>
    <stop offset="55%"  stop-color="rgba(255,255,255,.1)"/>
    <stop offset="100%" stop-color="rgba(255,255,255,.55)"/>
  </linearGradient>
  <!-- Gunmetal anodised — blaster body -->
  <linearGradient id="gunmetalr1x7703" x1="0%" y1="0%" x2="0%" y2="100%">
    <stop offset="0%"   stop-color="#46465e"/>
    <stop offset="18%"  stop-color="#828296"/>
    <stop offset="42%"  stop-color="#26263a"/>
    <stop offset="72%"  stop-color="#16162a"/>
    <stop offset="100%" stop-color="#0c0c18"/>
  </linearGradient>
  <!-- Brushed steel tube — barrel/rod -->
  <linearGradient id="barrelr1x7703" x1="0%" y1="0%" x2="100%" y2="0%">
    <stop offset="0%"   stop-color="#0a0a14"/>
    <stop offset="24%"  stop-color="#585875"/>
    <stop offset="50%"  stop-color="#a8a8c8"/>
    <stop offset="76%"  stop-color="#383852"/>
    <stop offset="100%" stop-color="#0a0a14"/>
  </linearGradient>
  <!-- Chrome rod — lance shaft -->
  <linearGradient id="chromer1x7703" x1="0%" y1="0%" x2="100%" y2="0%">
    <stop offset="0%"   stop-color="#0c0c18"/>
    <stop offset="20%"  stop-color="#686888"/>
    <stop offset="44%"  stop-color="#e0e0f0"/>
    <stop offset="56%"  stop-color="#c0c0d8"/>
    <stop offset="80%"  stop-color="#28283e"/>
    <stop offset="100%" stop-color="#0c0c18"/>
  </linearGradient>
  <!-- Titanium plate — shield face -->
  <linearGradient id="titaniumr1x7703" x1="0%" y1="0%" x2="100%" y2="100%">
    <stop offset="0%"   stop-color="#585878"/>
    <stop offset="28%"  stop-color="#ccccff" stop-opacity=".88"/>
    <stop offset="55%"  stop-color="#242438"/>
    <stop offset="80%"  stop-color="#181828"/>
    <stop offset="100%" stop-color="#0a0a18"/>
  </linearGradient>
  <!-- Artillery black-chrome — cannon body -->
  <linearGradient id="artilleryr1x7703" x1="0%" y1="0%" x2="0%" y2="100%">
    <stop offset="0%"   stop-color="#383850"/>
    <stop offset="14%"  stop-color="#78789a"/>
    <stop offset="36%"  stop-color="#202034"/>
    <stop offset="65%"  stop-color="#14141e"/>
    <stop offset="100%" stop-color="#0a0a12"/>
  </linearGradient>
  <!-- Energy orb — staff -->
  <radialGradient id="orbr1x7703" cx="35%" cy="35%" r="65%">
    <stop offset="0%"   stop-color="rgba(255,255,255,.9)"/>
    <stop offset="30%"  stop-color="#ccccff"/>
    <stop offset="68%"  stop-color="#242438"/>
    <stop offset="100%" stop-color="rgba(0,0,0,.6)"/>
  </radialGradient>
  <!-- Knuckle plate chrome -->
  <linearGradient id="knuckler1x7703" x1="0%" y1="0%" x2="0%" y2="100%">
    <stop offset="0%"   stop-color="#888aaa"/>
    <stop offset="32%"  stop-color="#ccccff" stop-opacity=".8"/>
    <stop offset="62%"  stop-color="#1a1a2c"/>
    <stop offset="100%" stop-color="#0a0a14"/>
  </linearGradient>

  <!-- Carbon fibre weave texture overlay -->
  <pattern id="carbonr1x7703" width="6" height="6" patternUnits="userSpaceOnUse">
    <rect width="6" height="6" fill="rgba(0,0,0,.08)"/>
    <rect x="0" y="0" width="3" height="3" fill="rgba(255,255,255,.022)"/>
    <rect x="3" y="3" width="3" height="3" fill="rgba(255,255,255,.022)"/>
    <line x1="0" y1="0" x2="3" y2="3" stroke="rgba(255,255,255,.038)" stroke-width=".5"/>
    <line x1="3" y1="0" x2="6" y2="3" stroke="rgba(0,0,0,.055)"       stroke-width=".5"/>
    <line x1="0" y1="3" x2="3" y2="6" stroke="rgba(0,0,0,.055)"       stroke-width=".5"/>
    <line x1="3" y1="3" x2="6" y2="6" stroke="rgba(255,255,255,.038)" stroke-width=".5"/>
  </pattern>

  <!-- Specular metal sheen on armour panels -->
  <filter id="metalr1x7703" x="-5%" y="-5%" width="110%" height="110%">
    <feSpecularLighting surfaceScale="4" specularConstant="1.8"
        specularExponent="42" lighting-color="#ffffff" result="spec">
      <feDistantLight elevation="52" azimuth="38"/>
    </feSpecularLighting>
    <feComposite in="spec" in2="SourceGraphic" operator="in" result="sm"/>
    <feComposite in="SourceGraphic" in2="sm" operator="arithmetic" k1="0" k2="1" k3="0.55" k4="0"/>
  </filter>

  <!-- Sharper specular for weapons — heavier glare -->
  <filter id="wmr1x7703" x="-8%" y="-8%" width="116%" height="116%">
    <feSpecularLighting surfaceScale="6" specularConstant="2.4"
        specularExponent="65" lighting-color="#ffffff" result="spec">
      <feDistantLight elevation="44" azimuth="28"/>
    </feSpecularLighting>
    <feComposite in="spec" in2="SourceGraphic" operator="in" result="sm"/>
    <feComposite in="SourceGraphic" in2="sm" operator="arithmetic" k1="0" k2="1" k3="0.78" k4="0"/>
  </filter>

  <!-- Sketch wobble -->
  <filter id="skr1x7703" x="-8%" y="-8%" width="116%" height="116%">
    <feTurbulence type="fractalNoise" baseFrequency="0.038"
        numOctaves="3" seed="20" result="noise"/>
    <feDisplacementMap in="SourceGraphic" in2="noise" scale="2.6"
        xChannelSelector="R" yChannelSelector="G" result="w"/>
    <feComposite in="w" in2="SourceGraphic" operator="atop"/>
  </filter>

  <!-- Glow: sharp accent -->
  <filter id="glowr1x7703" x="-20%" y="-20%" width="140%" height="140%">
    <feGaussianBlur stdDeviation="3.5" result="b"/>
    <feColorMatrix in="b" type="matrix"
        values="0 0 0 0 1  0 0 0 0 1  0 0 0 0 1  0 0 0 1.8 0" result="boost"/>
    <feMerge><feMergeNode in="boost"/><feMergeNode in="SourceGraphic"/></feMerge>
  </filter>

  <!-- Bloom: wide soft -->
  <filter id="bloomr1x7703" x="-40%" y="-40%" width="180%" height="180%">
    <feGaussianBlur stdDeviation="11" result="b"/>
    <feMerge><feMergeNode in="b"/><feMergeNode in="SourceGraphic"/></feMerge>
  </filter>

  </defs><rect width="1000" height="1000" fill="url(#bgr1x7703)"/><ellipse cx="500.0" cy="892.0" rx="350.0" ry="65.0" fill="rgba(0,0,0,.7)" filter="url(#bloomr1x7703)"/><ellipse cx="500.0" cy="889.0" rx="220.0" ry="34.0" fill="rgba(0,0,0,.45)"/><ellipse cx="500.0" cy="520.0" rx="320.0" ry="480.0" fill="#6600ff" fill-opacity=".042" filter="url(#bloomr1x7703)"/><circle cx="479.0" cy="196.1" r="0.5" fill="#6600ff" fill-opacity="0.69" filter="url(#glowr1x7703)"/><circle cx="463.6" cy="779.0" r="2.0" fill="#6600ff" fill-opacity="0.84" filter="url(#glowr1x7703)"/><circle cx="451.2" cy="389.7" r="1.5" fill="#6600ff" fill-opacity="0.79" filter="url(#glowr1x7703)"/><circle cx="654.8" cy="360.6" r="0.7" fill="#6600ff" fill-opacity="0.81" filter="url(#glowr1x7703)"/><circle cx="631.9" cy="452.0" r="1.7" fill="#6600ff" fill-opacity="0.69" filter="url(#glowr1x7703)"/><circle cx="401.1" cy="661.3" r="3.6" fill="#6600ff" fill-opacity="0.65" filter="url(#glowr1x7703)"/><circle cx="388.7" cy="574.0" r="1.9" fill="#6600ff" fill-opacity="0.60" filter="url(#glowr1x7703)"/><circle cx="710.4" cy="772.3" r="1.3" fill="#6600ff" fill-opacity="0.70" filter="url(#glowr1x7703)"/><circle cx="675.4" cy="345.3" r="2.0" fill="#6600ff" fill-opacity="0.76" filter="url(#glowr1x7703)"/><circle cx="744.9" cy="546.5" r="1.3" fill="#6600ff" fill-opacity="0.75" filter="url(#glowr1x7703)"/><circle cx="456.8" cy="219.7" r="2.6" fill="#6600ff" fill-opacity="0.80" filter="url(#glowr1x7703)"/><circle cx="530.7" cy="476.2" r="1.9" fill="#6600ff" fill-opacity="0.58" filter="url(#glowr1x7703)"/><circle cx="641.1" cy="414.7" r="3.9" fill="#6600ff" fill-opacity="0.54" filter="url(#glowr1x7703)"/><circle cx="407.7" cy="692.9" r="1.2" fill="#6600ff" fill-opacity="0.68" filter="url(#glowr1x7703)"/><polygon points="397.9,664.0 489.9,663.9 481.8,879.2 389.0,876.0" fill="url(#suitr1x7703)" stroke="#ccccff" stroke-width="2.2" filter="url(#skr1x7703) url(#metalr1x7703)"/><polygon points="399.0,661.8 490.9,662.0 479.5,878.1 387.1,877.8" fill="url(#carbonr1x7703)"/><polygon points="394.1,722.0 494.7,722.9 485.0,789.9 383.9,788.2" fill="url(#bevelr1x7703)" fill-opacity=".5" stroke="#ccccff" stroke-width="1.4" filter="url(#skr1x7703)"/><polygon points="510.3,660.9 602.0,663.6 612.0,878.3 517.7,877.5" fill="url(#suitr1x7703)" stroke="#ccccff" stroke-width="2.2" filter="url(#skr1x7703) url(#metalr1x7703)"/><polygon points="510.9,662.2 601.7,661.8 611.6,876.0 517.7,878.7" fill="url(#carbonr1x7703)"/><polygon points="508.6,725.2 608.5,723.8 615.8,788.1 515.6,789.4" fill="url(#bevelr1x7703)" fill-opacity=".5" stroke="#ccccff" stroke-width="1.4" filter="url(#skr1x7703)"/><rect x="391.6" y="838.6" width="100.3" height="24.7" fill="url(#bevelr1x7703)" stroke="#ccccff" stroke-width="1" filter="url(#skr1x7703)"/><rect x="506.0"  y="837.1" width="100.3" height="24.7" fill="url(#bevelr1x7703)" stroke="#ccccff" stroke-width="1" filter="url(#skr1x7703)"/><polygon points="371.2,877.2 495.4,876.5 502.6,923.2 364.0,922.3" fill="#242438" stroke="#ccccff" stroke-width="2" filter="url(#skr1x7703)"/><polygon points="502.1,877.2 631.4,876.6 638.5,921.7 495.9,921.4" fill="#242438" stroke="#ccccff" stroke-width="2" filter="url(#skr1x7703)"/><polygon points="305.1,632.6 697.7,631.4 639.1,680.9 362.0,683.1" fill="#ccccff" fill-opacity=".52" stroke="#ccccff" stroke-width="2" filter="url(#skr1x7703)"/><rect x="464.6" y="637.9" width="72.0" height="42.0" fill="url(#bevelr1x7703)" stroke="#ccccff" stroke-width="1.4" filter="url(#glowr1x7703)"/><rect x="486.3" y="640.7" width="28.0" height="22.0" rx="1" fill="rgba(255,255,255,.48)"/><polygon points="152.6,466.9 236.4,467.3 259.0,735.7 127.5,736.5" fill="url(#suitr1x7703)" stroke="#ccccff" stroke-width="2.2" filter="url(#skr1x7703) url(#metalr1x7703)"/><polygon points="173.8,430.7 253.6,431.0 242.2,511.5 160.3,512.1" fill="url(#bevelr1x7703)" fill-opacity=".72" stroke="#ccccff" stroke-width="2.2" filter="url(#skr1x7703)"/><polygon points="160.5,621.7 244.1,620.7 240.2,659.3 166.9,659.9" fill="#ccccff" fill-opacity=".42" stroke="#ccccff" stroke-width="1" filter="url(#skr1x7703)"/><polygon points="764.6,465.8 847.2,465.5 870.0,735.7 742.8,736.0" fill="url(#suitr1x7703)" stroke="#ccccff" stroke-width="2.2" filter="url(#skr1x7703) url(#metalr1x7703)"/><polygon points="748.2,433.6 825.7,432.3 841.9,511.9 755.9,508.8" fill="url(#bevelr1x7703)" fill-opacity=".72" stroke="#ccccff" stroke-width="2.2" filter="url(#skr1x7703)"/><polygon points="757.0,622.7 839.8,622.6 835.3,659.6 761.3,660.5" fill="#ccccff" fill-opacity=".42" stroke="#ccccff" stroke-width="1" filter="url(#skr1x7703)"/><rect x="119.9"  y="698.8" width="135.3" height="85.0" rx="4" fill="url(#bevelr1x7703)" stroke="#ccccff" stroke-width="1.8" filter="url(#skr1x7703)"/><rect x="748.5"   y="698.6" width="135.3" height="85.0" rx="4" fill="url(#bevelr1x7703)" stroke="#ccccff" stroke-width="1.8" filter="url(#skr1x7703)"/><line x1="151.0" y1="703.1" x2="148.0" y2="782.1" stroke="#ccccff" stroke-opacity=".38" stroke-width="1"/><line x1="777.8" y1="702.4" x2="779.1" y2="782.2" stroke="#ccccff" stroke-opacity=".38" stroke-width="1"/><line x1="181.5" y1="702.5" x2="182.2" y2="785.2" stroke="#ccccff" stroke-opacity=".38" stroke-width="1"/><line x1="810.4" y1="702.5" x2="809.7" y2="785.4" stroke="#ccccff" stroke-opacity=".38" stroke-width="1"/><line x1="214.4" y1="701.7" x2="215.7" y2="783.3" stroke="#ccccff" stroke-opacity=".38" stroke-width="1"/><line x1="843.7" y1="703.3" x2="843.0" y2="782.2" stroke="#ccccff" stroke-opacity=".38" stroke-width="1"/><polygon points="235.8,418.5 765.6,418.6 723.1,662.3 275.9,664.2" fill="url(#suitr1x7703)" stroke="#ccccff" stroke-width="2.6" filter="url(#skr1x7703) url(#metalr1x7703)"/><polygon points="235.9,418.3 765.8,416.5 721.3,663.9 279.0,662.1" fill="url(#carbonr1x7703)"/><polygon points="366.1,418.2 633.5,418.2 611.7,513.7 390.4,513.9" fill="url(#suitHir1x7703)"/><line x1="360.5" y1="472.9" x2="638.6" y2="472.4" stroke="#ccccff" stroke-opacity=".52" stroke-width="1.3" filter="url(#skr1x7703)"/><line x1="400.7" y1="550.3" x2="599.1" y2="548.2" stroke="#ccccff" stroke-opacity=".52" stroke-width="1.3" filter="url(#skr1x7703)"/><line x1="267.8" y1="489.7" x2="318.7" y2="492.1" stroke="#ccccff" stroke-opacity=".62" stroke-width="1.8"/><line x1="680.6" y1="489.5" x2="734.2" y2="491.5" stroke="#ccccff" stroke-opacity=".62" stroke-width="1.8"/><line x1="268.1" y1="524.1" x2="318.4" y2="523.0" stroke="#ccccff" stroke-opacity=".62" stroke-width="1.8"/><line x1="681.1" y1="521.4" x2="733.3" y2="523.6" stroke="#ccccff" stroke-opacity=".62" stroke-width="1.8"/><line x1="268.4" y1="553.1" x2="319.3" y2="555.9" stroke="#ccccff" stroke-opacity=".62" stroke-width="1.8"/><line x1="680.0" y1="554.2" x2="732.4" y2="556.1" stroke="#ccccff" stroke-opacity=".62" stroke-width="1.8"/><line x1="267.6" y1="587.3" x2="319.6" y2="585.4" stroke="#ccccff" stroke-opacity=".62" stroke-width="1.8"/><line x1="680.2" y1="585.2" x2="733.8" y2="585.7" stroke="#ccccff" stroke-opacity=".62" stroke-width="1.8"/><g filter="url(#glowr1x7703)"><polygon points="460.6,530.2 463.5,497.1 482.8,467.8 501.5,499.0 519.6,468.8 536.6,498.6 539.1,527.8" fill="#ccccff" stroke="#050508" stroke-width="1.4" filter="url(#skr1x7703)"/><polygon points="463.4,530.6 461.5,496.4 481.5,467.0 499.2,498.7 519.6,466.8 537.0,496.6 539.1,529.0" fill="url(#suitHir1x7703)" opacity=".38"/></g><g><polygon points="76.2,671.4 128.2,671.4 112.6,-28.6 91.8,-28.6" fill="url(#blader1x7703)" filter="url(#wmr1x7703)"/><polygon points="91.8,-28.6 112.6,-28.6 102.2,-138.6" fill="url(#blader1x7703)" filter="url(#wmr1x7703)"/><polygon points="100.3,671.4 104.0,671.4 102.7,-128.6 101.6,-128.6" fill="url(#bladeTipr1x7703)" opacity=".9"/><line x1="111.02355826169249" y1="672.0201717484742" x2="103.4852912080474" y2="-128.8984623328783" stroke="rgba(255,255,255,.68)" stroke-width="1.5"/><line x1="91.98247916018587" y1="671.8935253540054" x2="101.57203624842684" y2="-129.48811361640693" stroke="#ccccff" stroke-width="1" stroke-opacity=".45"/><line x1="106.8" y1="651.4" x2="104.0" y2="11.4" stroke="rgba(0,0,0,.38)" stroke-width="1.6"/><line x1="97.5" y1="651.4" x2="100.3" y2="11.4" stroke="rgba(0,0,0,.38)" stroke-width="1.6"/><rect x="47.47851697238159" y="668.6056925694458" width="112.0" height="28.0" rx="3" fill="url(#bevelr1x7703)" stroke="#ccccff" stroke-width="1.6" filter="url(#wmr1x7703)"/><rect x="70.06396187007424" y="673.8273061069659" width="64.0" height="10.0" rx="1" fill="rgba(255,255,255,.32)"/><rect x="89.97454366501418" y="678.014441698417" width="24.0" height="6.0" rx="1" fill="#ccccff" fill-opacity=".35"/><rect x="90.73384300241244" y="685.4863993410952" width="24.0" height="6.0" rx="1" fill="#ccccff" fill-opacity=".35"/><rect x="90.85663650672879" y="692.4037083175033" width="24.0" height="6.0" rx="1" fill="#ccccff" fill-opacity=".35"/><rect x="91.04861717097458" y="700.9584590351209" width="24.0" height="6.0" rx="1" fill="#ccccff" fill-opacity=".35"/><rect x="91.00052936853838" y="707.8761515858583" width="24.0" height="6.0" rx="1" fill="#ccccff" fill-opacity=".35"/><rect x="91.01214864015576" y="717.8650315318256" width="24.0" height="6.0" rx="1" fill="#ccccff" fill-opacity=".35"/><ellipse cx="100.91828212909397" cy="726.0910875746049" rx="22.0" ry="16.0" fill="url(#bevelr1x7703)" stroke="#ccccff" stroke-width="1.2" filter="url(#wmr1x7703)"/></g><rect x="450.1335644275881" y="557.1966838489286" width="100.0"  height="56.0" fill="#242438" stroke="#ccccff" stroke-width="2.2" filter="url(#skr1x7703)"/><rect x="425.61824172884224" y="574.268151063472" width="152.0" height="26.0" fill="url(#bevelr1x7703)" fill-opacity=".65" stroke="#ccccff" stroke-width="1.2" filter="url(#skr1x7703)"/><polygon points="307.2,381.6 351.3,293.0 501.5,276.6 651.1,294.1 691.6,381.4 670.5,503.7 499.4,566.5 329.8,504.9" fill="url(#suitr1x7703)" stroke="#ccccff" stroke-width="2.8" filter="url(#skr1x7703) url(#metalr1x7703)"/><polygon points="307.6,381.9 350.2,295.1 501.3,278.0 650.0,295.7 690.7,381.9 667.5,504.1 499.0,565.5 331.5,503.6" fill="url(#carbonr1x7703)"/><polygon points="382.0,303.4 501.1,287.9 618.7,304.0 608.2,379.8 391.7,380.5" fill="url(#suitHir1x7703)"/><polygon points="380.9,382.2 365.9,424.4 432.0,502.9 499.2,526.9 569.0,505.0 635.8,426.6 617.8,379.9" fill="#050508" fill-opacity=".88" stroke="#ccccff" stroke-width="1.8" filter="url(#skr1x7703)"/><polygon points="379.3,411.0 475.8,411.2 486.3,438.3 389.6,438.7" fill="#ccccff" filter="url(#glowr1x7703)"/><polygon points="522.1,409.7 618.8,411.8 612.6,440.9 515.8,441.7" fill="#ccccff" filter="url(#glowr1x7703)"/><ellipse cx="430.9" cy="425.7" rx="38.4"  ry="8.2" fill="#ffffff" opacity=".88"/><ellipse cx="569.1" cy="425.7" rx="38.4"  ry="8.2" fill="#ffffff" opacity=".88"/><line x1="483.8729706133343" y1="413.13244487307963" x2="516.7233709820919" y2="412.36795708145945" stroke="#ccccff" stroke-opacity=".52" stroke-width="2"/><line x1="484.8638636804744" y1="437.46492278259245" x2="516.6645141884126" y2="439.47857961170376" stroke="#ccccff" stroke-opacity=".52" stroke-width="2"/><line x1="500.8302317671478" y1="453.59647457478565" x2="498.2804554779083" y2="481.98618101878094" stroke="#ccccff" stroke-opacity=".58" stroke-width="2.2" filter="url(#skr1x7703)"/><line x1="453.7737024254911" y1="490.378561358992" x2="452.6348255100474" y2="519.2069467041641" stroke="#ccccff" stroke-opacity=".52" stroke-width="1.5" filter="url(#skr1x7703)"/><line x1="476.83602719040584" y1="492.7205281353555" x2="477.11962204039094" y2="520.1188455751166" stroke="#ccccff" stroke-opacity=".52" stroke-width="1.5" filter="url(#skr1x7703)"/><line x1="501.413921137061" y1="491.65723597807806" x2="499.96918952288104" y2="519.3903716949746" stroke="#ccccff" stroke-opacity=".52" stroke-width="1.5" filter="url(#skr1x7703)"/><line x1="522.0431330934725" y1="492.5037140956148" x2="523.7407703272626" y2="520.5417351709679" stroke="#ccccff" stroke-opacity=".52" stroke-width="1.5" filter="url(#skr1x7703)"/><line x1="545.0982474879548" y1="491.2836833740584" x2="546.6267698298395" y2="521.324554641638" stroke="#ccccff" stroke-opacity=".52" stroke-width="1.5" filter="url(#skr1x7703)"/><polygon points="431.5,501.9 567.8,503.2 554.8,555.5 446.9,555.7" fill="#242438" fill-opacity=".72" stroke="#ccccff" stroke-width="1.3" filter="url(#skr1x7703)"/><path d="M389.03949177047235 325.89296583775433 Q331.78339389745145 217.60565504115075 382.02651240484795 139.9840472361073" stroke="#ccccff" stroke-width="5" fill="none" stroke-linecap="round" filter="url(#skr1x7703)"/><path d="M388.4879816634208 327.708842306491 Q331.3264107620902 216.2929173809476 382.61099991383037 140.94216614235194" stroke="rgba(255,255,255,.25)" stroke-width="1.5" fill="none" stroke-linecap="round"/><path d="M611.0865136313624 325.54333077901975 Q669.8010411516204 217.17034165263175 618.6221852031164 141.4513904565014" stroke="#ccccff" stroke-width="5" fill="none" stroke-linecap="round" filter="url(#skr1x7703)"/><path d="M610.2580632474646 325.7894211075269 Q667.5882566893846 218.03774069203064 619.4366757879592 141.62711263084785" stroke="rgba(255,255,255,.25)" stroke-width="1.5" fill="none" stroke-linecap="round"/><text x="30.0"  y="975.0" font-family="monospace" font-weight="bold" font-size="22.0" fill="rgba(255,255,255,.22)">#0001</text><text x="500.0"   y="975.0" text-anchor="middle" font-family="monospace" font-weight="bold" font-size="22.0" fill="#ccccff" fill-opacity=".48">PHANTOM RANGER</text><text x="970.0" y="975.0" text-anchor="end"    font-family="monospace" font-weight="bold" font-size="22.0" fill="#ccccff" fill-opacity=".32">MECH RANGERS</text></svg>