<svg xmlns="http://www.w3.org/2000/svg" viewBox="0 0 1000 1000" width="1000" height="1000" shape-rendering="geometricPrecision"><defs>

  <!-- Scene gradients -->
  <radialGradient id="bgr1x7706" cx="50%" cy="42%" r="72%">
    <stop offset="0%"   stop-color="#001422"/>
    <stop offset="100%" stop-color="#000a14"/>
  </radialGradient>
  <linearGradient id="suitr1x7706" x1="8%" y1="0%" x2="92%" y2="100%">
    <stop offset="0%"   stop-color="#4444ff" stop-opacity=".95"/>
    <stop offset="45%"  stop-color="#141428"/>
    <stop offset="100%" stop-color="#000a14"/>
  </linearGradient>
  <linearGradient id="suitHir1x7706" x1="0%" y1="0%" x2="0%" y2="100%">
    <stop offset="0%"   stop-color="rgba(255,255,255,.28)"/>
    <stop offset="60%"  stop-color="rgba(255,255,255,.04)"/>
    <stop offset="100%" stop-color="rgba(255,255,255,0)"/>
  </linearGradient>
  <!-- Bevel: bright top, dark bottom for armour panels -->
  <linearGradient id="bevelr1x7706" x1="0%" y1="0%" x2="0%" y2="100%">
    <stop offset="0%"   stop-color="rgba(255,255,255,.55)"/>
    <stop offset="30%"  stop-color="#4444ff"/>
    <stop offset="70%"  stop-color="#141428"/>
    <stop offset="100%" stop-color="rgba(0,0,0,.5)"/>
  </linearGradient>

  <!-- Weapon: cold steel blade sweep -->
  <linearGradient id="blader1x7706" x1="0%" y1="0%" x2="100%" y2="0%">
    <stop offset="0%"   stop-color="#0e0e20"/>
    <stop offset="16%"  stop-color="#3e3e58"/>
    <stop offset="34%"  stop-color="#c8c8e0"/>
    <stop offset="50%"  stop-color="#f5f5ff"/>
    <stop offset="66%"  stop-color="#b8b8d0"/>
    <stop offset="84%"  stop-color="#2e2e48"/>
    <stop offset="100%" stop-color="#08080e"/>
  </linearGradient>
  <!-- Blade tip brightening -->
  <linearGradient id="bladeTipr1x7706" x1="0%" y1="100%" x2="0%" y2="0%">
    <stop offset="0%"   stop-color="rgba(255,255,255,0)"/>
    <stop offset="55%"  stop-color="rgba(255,255,255,.1)"/>
    <stop offset="100%" stop-color="rgba(255,255,255,.55)"/>
  </linearGradient>
  <!-- Gunmetal anodised — blaster body -->
  <linearGradient id="gunmetalr1x7706" x1="0%" y1="0%" x2="0%" y2="100%">
    <stop offset="0%"   stop-color="#46465e"/>
    <stop offset="18%"  stop-color="#828296"/>
    <stop offset="42%"  stop-color="#26263a"/>
    <stop offset="72%"  stop-color="#16162a"/>
    <stop offset="100%" stop-color="#0c0c18"/>
  </linearGradient>
  <!-- Brushed steel tube — barrel/rod -->
  <linearGradient id="barrelr1x7706" x1="0%" y1="0%" x2="100%" y2="0%">
    <stop offset="0%"   stop-color="#0a0a14"/>
    <stop offset="24%"  stop-color="#585875"/>
    <stop offset="50%"  stop-color="#a8a8c8"/>
    <stop offset="76%"  stop-color="#383852"/>
    <stop offset="100%" stop-color="#0a0a14"/>
  </linearGradient>
  <!-- Chrome rod — lance shaft -->
  <linearGradient id="chromer1x7706" x1="0%" y1="0%" x2="100%" y2="0%">
    <stop offset="0%"   stop-color="#0c0c18"/>
    <stop offset="20%"  stop-color="#686888"/>
    <stop offset="44%"  stop-color="#e0e0f0"/>
    <stop offset="56%"  stop-color="#c0c0d8"/>
    <stop offset="80%"  stop-color="#28283e"/>
    <stop offset="100%" stop-color="#0c0c18"/>
  </linearGradient>
  <!-- Titanium plate — shield face -->
  <linearGradient id="titaniumr1x7706" x1="0%" y1="0%" x2="100%" y2="100%">
    <stop offset="0%"   stop-color="#585878"/>
    <stop offset="28%"  stop-color="#4444ff" stop-opacity=".88"/>
    <stop offset="55%"  stop-color="#141428"/>
    <stop offset="80%"  stop-color="#181828"/>
    <stop offset="100%" stop-color="#0a0a18"/>
  </linearGradient>
  <!-- Artillery black-chrome — cannon body -->
  <linearGradient id="artilleryr1x7706" x1="0%" y1="0%" x2="0%" y2="100%">
    <stop offset="0%"   stop-color="#383850"/>
    <stop offset="14%"  stop-color="#78789a"/>
    <stop offset="36%"  stop-color="#202034"/>
    <stop offset="65%"  stop-color="#14141e"/>
    <stop offset="100%" stop-color="#0a0a12"/>
  </linearGradient>
  <!-- Energy orb — staff -->
  <radialGradient id="orbr1x7706" cx="35%" cy="35%" r="65%">
    <stop offset="0%"   stop-color="rgba(255,255,255,.9)"/>
    <stop offset="30%"  stop-color="#4444ff"/>
    <stop offset="68%"  stop-color="#141428"/>
    <stop offset="100%" stop-color="rgba(0,0,0,.6)"/>
  </radialGradient>
  <!-- Knuckle plate chrome -->
  <linearGradient id="knuckler1x7706" x1="0%" y1="0%" x2="0%" y2="100%">
    <stop offset="0%"   stop-color="#888aaa"/>
    <stop offset="32%"  stop-color="#4444ff" stop-opacity=".8"/>
    <stop offset="62%"  stop-color="#1a1a2c"/>
    <stop offset="100%" stop-color="#0a0a14"/>
  </linearGradient>

  <!-- Carbon fibre weave texture overlay -->
  <pattern id="carbonr1x7706" width="6" height="6" patternUnits="userSpaceOnUse">
    <rect width="6" height="6" fill="rgba(0,0,0,.08)"/>
    <rect x="0" y="0" width="3" height="3" fill="rgba(255,255,255,.022)"/>
    <rect x="3" y="3" width="3" height="3" fill="rgba(255,255,255,.022)"/>
    <line x1="0" y1="0" x2="3" y2="3" stroke="rgba(255,255,255,.038)" stroke-width=".5"/>
    <line x1="3" y1="0" x2="6" y2="3" stroke="rgba(0,0,0,.055)"       stroke-width=".5"/>
    <line x1="0" y1="3" x2="3" y2="6" stroke="rgba(0,0,0,.055)"       stroke-width=".5"/>
    <line x1="3" y1="3" x2="6" y2="6" stroke="rgba(255,255,255,.038)" stroke-width=".5"/>
  </pattern>

  <!-- Specular metal sheen on armour panels -->
  <filter id="metalr1x7706" x="-5%" y="-5%" width="110%" height="110%">
    <feSpecularLighting surfaceScale="4" specularConstant="1.8"
        specularExponent="42" lighting-color="#ffffff" result="spec">
      <feDistantLight elevation="52" azimuth="38"/>
    </feSpecularLighting>
    <feComposite in="spec" in2="SourceGraphic" operator="in" result="sm"/>
    <feComposite in="SourceGraphic" in2="sm" operator="arithmetic" k1="0" k2="1" k3="0.55" k4="0"/>
  </filter>

  <!-- Sharper specular for weapons — heavier glare -->
  <filter id="wmr1x7706" x="-8%" y="-8%" width="116%" height="116%">
    <feSpecularLighting surfaceScale="6" specularConstant="2.4"
        specularExponent="65" lighting-color="#ffffff" result="spec">
      <feDistantLight elevation="44" azimuth="28"/>
    </feSpecularLighting>
    <feComposite in="spec" in2="SourceGraphic" operator="in" result="sm"/>
    <feComposite in="SourceGraphic" in2="sm" operator="arithmetic" k1="0" k2="1" k3="0.78" k4="0"/>
  </filter>

  <!-- Sketch wobble -->
  <filter id="skr1x7706" x="-8%" y="-8%" width="116%" height="116%">
    <feTurbulence type="fractalNoise" baseFrequency="0.038"
        numOctaves="3" seed="20" result="noise"/>
    <feDisplacementMap in="SourceGraphic" in2="noise" scale="2.6"
        xChannelSelector="R" yChannelSelector="G" result="w"/>
    <feComposite in="w" in2="SourceGraphic" operator="atop"/>
  </filter>

  <!-- Glow: sharp accent -->
  <filter id="glowr1x7706" x="-20%" y="-20%" width="140%" height="140%">
    <feGaussianBlur stdDeviation="3.5" result="b"/>
    <feColorMatrix in="b" type="matrix"
        values="0 0 0 0 1  0 0 0 0 1  0 0 0 0 1  0 0 0 1.8 0" result="boost"/>
    <feMerge><feMergeNode in="boost"/><feMergeNode in="SourceGraphic"/></feMerge>
  </filter>

  <!-- Bloom: wide soft -->
  <filter id="bloomr1x7706" x="-40%" y="-40%" width="180%" height="180%">
    <feGaussianBlur stdDeviation="11" result="b"/>
    <feMerge><feMergeNode in="b"/><feMergeNode in="SourceGraphic"/></feMerge>
  </filter>

  </defs><rect width="1000" height="1000" fill="url(#bgr1x7706)"/><line x1="0" y1="-1.9" x2="1000" y2="-1.1" stroke="#4444ff" stroke-opacity=".055" stroke-width="1.2"/><line x1="-3.0" y1="0" x2="2.0" y2="1000" stroke="#4444ff" stroke-opacity=".055" stroke-width="1.2"/><line x1="0" y1="102.6" x2="1000" y2="97.6" stroke="#4444ff" stroke-opacity=".055" stroke-width="1.2"/><line x1="100.8" y1="0" x2="102.7" y2="1000" stroke="#4444ff" stroke-opacity=".055" stroke-width="1.2"/><line x1="0" y1="197.9" x2="1000" y2="202.5" stroke="#4444ff" stroke-opacity=".055" stroke-width="1.2"/><line x1="202.9" y1="0" x2="199.4" y2="1000" stroke="#4444ff" stroke-opacity=".055" stroke-width="1.2"/><line x1="0" y1="297.2" x2="1000" y2="299.5" stroke="#4444ff" stroke-opacity=".055" stroke-width="1.2"/><line x1="300.3" y1="0" x2="301.7" y2="1000" stroke="#4444ff" stroke-opacity=".055" stroke-width="1.2"/><line x1="0" y1="398.9" x2="1000" y2="400.1" stroke="#4444ff" stroke-opacity=".055" stroke-width="1.2"/><line x1="397.6" y1="0" x2="397.4" y2="1000" stroke="#4444ff" stroke-opacity=".055" stroke-width="1.2"/><line x1="0" y1="502.6" x2="1000" y2="499.8" stroke="#4444ff" stroke-opacity=".055" stroke-width="1.2"/><line x1="498.6" y1="0" x2="502.5" y2="1000" stroke="#4444ff" stroke-opacity=".055" stroke-width="1.2"/><line x1="0" y1="602.4" x2="1000" y2="598.1" stroke="#4444ff" stroke-opacity=".055" stroke-width="1.2"/><line x1="599.6" y1="0" x2="598.3" y2="1000" stroke="#4444ff" stroke-opacity=".055" stroke-width="1.2"/><line x1="0" y1="697.5" x2="1000" y2="699.4" stroke="#4444ff" stroke-opacity=".055" stroke-width="1.2"/><line x1="700.3" y1="0" x2="701.6" y2="1000" stroke="#4444ff" stroke-opacity=".055" stroke-width="1.2"/><line x1="0" y1="797.8" x2="1000" y2="802.2" stroke="#4444ff" stroke-opacity=".055" stroke-width="1.2"/><line x1="799.8" y1="0" x2="800.5" y2="1000" stroke="#4444ff" stroke-opacity=".055" stroke-width="1.2"/><line x1="0" y1="897.6" x2="1000" y2="900.4" stroke="#4444ff" stroke-opacity=".055" stroke-width="1.2"/><line x1="900.3" y1="0" x2="900.1" y2="1000" stroke="#4444ff" stroke-opacity=".055" stroke-width="1.2"/><path d="M80,30 L30,30 L30,80" stroke="#4444ff" stroke-opacity=".45" stroke-width="2" fill="none" filter="url(#glowr1x7706)"/><path d="M920,30 L970,30 L970,80" stroke="#4444ff" stroke-opacity=".45" stroke-width="2" fill="none" filter="url(#glowr1x7706)"/><path d="M30,920 L30,970 L80,970" stroke="#4444ff" stroke-opacity=".45" stroke-width="2" fill="none" filter="url(#glowr1x7706)"/><path d="M970,920 L970,970 L920,970" stroke="#4444ff" stroke-opacity=".45" stroke-width="2" fill="none" filter="url(#glowr1x7706)"/><ellipse cx="500.0" cy="892.0" rx="350.0" ry="65.0" fill="rgba(0,0,0,.7)" filter="url(#bloomr1x7706)"/><ellipse cx="500.0" cy="889.0" rx="220.0" ry="34.0" fill="rgba(0,0,0,.45)"/><ellipse cx="500.0" cy="520.0" rx="320.0" ry="480.0" fill="#ff6600" fill-opacity=".042" filter="url(#bloomr1x7706)"/><circle cx="612.4" cy="456.9" r="0.7" fill="#ff6600" fill-opacity="0.53" filter="url(#glowr1x7706)"/><circle cx="343.0" cy="423.4" r="2.5" fill="#ff6600" fill-opacity="0.43" filter="url(#glowr1x7706)"/><circle cx="609.3" cy="225.3" r="1.4" fill="#ff6600" fill-opacity="0.77" filter="url(#glowr1x7706)"/><circle cx="534.3" cy="407.5" r="2.6" fill="#ff6600" fill-opacity="0.44" filter="url(#glowr1x7706)"/><circle cx="358.8" cy="431.6" r="4.0" fill="#ff6600" fill-opacity="0.71" filter="url(#glowr1x7706)"/><circle cx="704.4" cy="241.7" r="0.7" fill="#ff6600" fill-opacity="0.52" filter="url(#glowr1x7706)"/><circle cx="334.9" cy="504.1" r="1.6" fill="#ff6600" fill-opacity="0.67" filter="url(#glowr1x7706)"/><circle cx="273.3" cy="196.3" r="2.9" fill="#ff6600" fill-opacity="0.85" filter="url(#glowr1x7706)"/><circle cx="747.2" cy="506.0" r="1.7" fill="#ff6600" fill-opacity="0.40" filter="url(#glowr1x7706)"/><circle cx="748.7" cy="789.5" r="4.1" fill="#ff6600" fill-opacity="0.49" filter="url(#glowr1x7706)"/><circle cx="389.9" cy="465.2" r="3.7" fill="#ff6600" fill-opacity="0.70" filter="url(#glowr1x7706)"/><circle cx="365.5" cy="506.4" r="2.5" fill="#ff6600" fill-opacity="0.58" filter="url(#glowr1x7706)"/><circle cx="641.2" cy="764.5" r="4.0" fill="#ff6600" fill-opacity="0.59" filter="url(#glowr1x7706)"/><circle cx="363.2" cy="584.1" r="1.4" fill="#ff6600" fill-opacity="0.77" filter="url(#glowr1x7706)"/><polygon points="399.5,660.8 489.2,661.0 482.2,876.3 387.3,875.9" fill="url(#suitr1x7706)" stroke="#4444ff" stroke-width="2.2" filter="url(#skr1x7706) url(#metalr1x7706)"/><polygon points="397.7,660.8 490.0,663.4 481.7,878.7 386.2,878.0" fill="url(#carbonr1x7706)"/><polygon points="392.3,725.3 492.5,725.5 484.2,786.8 383.0,787.5" fill="url(#bevelr1x7706)" fill-opacity=".5" stroke="#4444ff" stroke-width="1.4" filter="url(#skr1x7706)"/><polygon points="512.0,662.5 600.1,662.5 612.9,877.0 519.6,878.0" fill="url(#suitr1x7706)" stroke="#4444ff" stroke-width="2.2" filter="url(#skr1x7706) url(#metalr1x7706)"/><polygon points="509.3,661.9 601.2,662.6 611.3,877.5 518.5,876.9" fill="url(#carbonr1x7706)"/><polygon points="508.1,724.4 606.8,724.5 615.6,787.7 516.2,786.5" fill="url(#bevelr1x7706)" fill-opacity=".5" stroke="#4444ff" stroke-width="1.4" filter="url(#skr1x7706)"/><rect x="391.8" y="838.8" width="100.3" height="24.7" fill="url(#bevelr1x7706)" stroke="#4444ff" stroke-width="1" filter="url(#skr1x7706)"/><rect x="508.8"  y="839.7" width="100.3" height="24.7" fill="url(#bevelr1x7706)" stroke="#4444ff" stroke-width="1" filter="url(#skr1x7706)"/><polygon points="368.5,879.0 494.9,877.0 502.4,922.0 363.1,921.2" fill="#141428" stroke="#4444ff" stroke-width="2" filter="url(#skr1x7706)"/><polygon points="503.1,876.5 628.7,878.3 636.9,920.9 495.5,922.0" fill="#141428" stroke="#4444ff" stroke-width="2" filter="url(#skr1x7706)"/><polygon points="302.9,634.8 696.4,632.8 637.9,681.8 361.0,682.4" fill="#4444ff" fill-opacity=".52" stroke="#4444ff" stroke-width="2" filter="url(#skr1x7706)"/><rect x="462.7" y="636.7" width="72.0" height="42.0" fill="url(#bevelr1x7706)" stroke="#4444ff" stroke-width="1.4" filter="url(#glowr1x7706)"/><rect x="486.8" y="641.4" width="28.0" height="22.0" rx="1" fill="rgba(255,255,255,.48)"/><polygon points="152.2,467.1 236.7,465.0 257.4,733.3 130.1,734.5" fill="url(#suitr1x7706)" stroke="#4444ff" stroke-width="2.2" filter="url(#skr1x7706) url(#metalr1x7706)"/><polygon points="172.4,433.7 253.5,431.9 243.0,511.7 161.0,509.3" fill="url(#bevelr1x7706)" fill-opacity=".72" stroke="#4444ff" stroke-width="2.2" filter="url(#skr1x7706)"/><polygon points="162.7,621.1 243.0,621.3 240.6,662.2 166.4,660.1" fill="#4444ff" fill-opacity=".42" stroke="#4444ff" stroke-width="1" filter="url(#skr1x7706)"/><polygon points="763.9,466.2 845.3,465.0 872.5,736.5 743.5,735.4" fill="url(#suitr1x7706)" stroke="#4444ff" stroke-width="2.2" filter="url(#skr1x7706) url(#metalr1x7706)"/><polygon points="746.2,433.4 826.5,433.9 841.0,511.2 755.3,511.5" fill="url(#bevelr1x7706)" fill-opacity=".72" stroke="#4444ff" stroke-width="2.2" filter="url(#skr1x7706)"/><polygon points="756.2,623.5 840.2,620.5 836.3,662.4 760.3,660.6" fill="#4444ff" fill-opacity=".42" stroke="#4444ff" stroke-width="1" filter="url(#skr1x7706)"/><rect x="121.7"  y="701.0" width="135.3" height="85.0" rx="4" fill="url(#bevelr1x7706)" stroke="#4444ff" stroke-width="1.8" filter="url(#skr1x7706)"/><rect x="748.6"   y="700.4" width="135.3" height="85.0" rx="4" fill="url(#bevelr1x7706)" stroke="#4444ff" stroke-width="1.8" filter="url(#skr1x7706)"/><line x1="150.8" y1="703.6" x2="150.3" y2="784.9" stroke="#4444ff" stroke-opacity=".38" stroke-width="1"/><line x1="776.4" y1="702.3" x2="776.8" y2="783.6" stroke="#4444ff" stroke-opacity=".38" stroke-width="1"/><line x1="183.4" y1="702.7" x2="183.4" y2="783.3" stroke="#4444ff" stroke-opacity=".38" stroke-width="1"/><line x1="812.3" y1="703.2" x2="811.0" y2="782.5" stroke="#4444ff" stroke-opacity=".38" stroke-width="1"/><line x1="214.6" y1="703.3" x2="214.3" y2="784.5" stroke="#4444ff" stroke-opacity=".38" stroke-width="1"/><line x1="843.2" y1="703.2" x2="842.5" y2="782.8" stroke="#4444ff" stroke-opacity=".38" stroke-width="1"/><polygon points="234.4,417.5 766.7,417.4 722.4,662.3 276.7,661.1" fill="url(#suitr1x7706)" stroke="#4444ff" stroke-width="2.6" filter="url(#skr1x7706) url(#metalr1x7706)"/><polygon points="235.8,417.4 763.8,416.7 723.5,664.0 277.9,662.0" fill="url(#carbonr1x7706)"/><polygon points="367.0,418.6 631.0,417.3 612.5,515.8 388.5,515.9" fill="url(#suitHir1x7706)"/><line x1="363.4" y1="469.7" x2="638.6" y2="469.9" stroke="#4444ff" stroke-opacity=".52" stroke-width="1.3" filter="url(#skr1x7706)"/><line x1="399.0" y1="549.0" x2="599.6" y2="550.1" stroke="#4444ff" stroke-opacity=".52" stroke-width="1.3" filter="url(#skr1x7706)"/><line x1="268.5" y1="492.5" x2="321.5" y2="492.7" stroke="#4444ff" stroke-opacity=".62" stroke-width="1.8"/><line x1="679.2" y1="490.7" x2="733.3" y2="492.3" stroke="#4444ff" stroke-opacity=".62" stroke-width="1.8"/><line x1="266.6" y1="522.8" x2="319.2" y2="524.4" stroke="#4444ff" stroke-opacity=".62" stroke-width="1.8"/><line x1="680.7" y1="524.2" x2="734.8" y2="521.9" stroke="#4444ff" stroke-opacity=".62" stroke-width="1.8"/><line x1="265.4" y1="554.6" x2="321.2" y2="554.0" stroke="#4444ff" stroke-opacity=".62" stroke-width="1.8"/><line x1="681.3" y1="555.1" x2="732.8" y2="555.4" stroke="#4444ff" stroke-opacity=".62" stroke-width="1.8"/><line x1="268.1" y1="585.2" x2="318.8" y2="586.3" stroke="#4444ff" stroke-opacity=".62" stroke-width="1.8"/><line x1="681.3" y1="586.9" x2="732.5" y2="585.0" stroke="#4444ff" stroke-opacity=".62" stroke-width="1.8"/><g filter="url(#glowr1x7706)"><path d="M500.0,449.7 C462.3,446.8 442.0,481.6 447.8,513.5 L459.4,542.5 C476.8,536.7 491.3,551.2 500.0,551.2 C508.7,551.2 523.2,536.7 540.6,542.5 L552.2,513.5 C558.0,481.6 537.7,446.8 500.0,449.7 Z" fill="#4444ff" fill-opacity=".92" stroke="#000a14" stroke-width="1.3" filter="url(#skr1x7706)"/><path d="M483.8,519.3 Q500.0,533.8 516.2,519.3" stroke="#000a14" stroke-width="1" fill="none" opacity=".58"/><ellipse cx="481.4" cy="497.8" rx="8.7" ry="6.4" fill="#000a14" opacity=".95"/><ellipse cx="518.6" cy="497.8" rx="8.7" ry="6.4" fill="#000a14" opacity=".95"/><ellipse cx="481.4" cy="497.8" rx="2.3" ry="5.8" fill="#4444ff"/><ellipse cx="518.6" cy="497.8" rx="2.3" ry="5.8" fill="#4444ff"/><path d="M471.0,467.1 L458.2,426.5 L481.4,463.0" fill="#4444ff" stroke="#000a14" stroke-width=".9"/><path d="M529.0,467.1 L541.8,426.5 L518.6,463.0" fill="#4444ff" stroke="#000a14" stroke-width=".9"/><path d="M476.8,452.6 C488.4,449.1 511.6,449.1 523.2,452.6" fill="rgba(255,255,255,.18)"/></g><g><rect x="114.5" y="701.6" width="137.8" height="88.0" rx="5" fill="url(#bevelr1x7706)" stroke="#4444ff" stroke-width="2" filter="url(#wmr1x7706)"/><rect x="113.9" y="701.4" width="137.8" height="88.0" rx="5" fill="url(#carbonr1x7706)"/><rect x="750.1"  y="702.4" width="137.8" height="88.0" rx="5" fill="url(#bevelr1x7706)" stroke="#4444ff" stroke-width="2" filter="url(#wmr1x7706)"/><rect x="748.4"  y="702.7" width="137.8" height="88.0" rx="5" fill="url(#carbonr1x7706)"/><rect x="121.5" y="699.5" width="23.0" height="22.0" rx="2" fill="url(#knuckler1x7706)" stroke="#4444ff" stroke-width=".8" filter="url(#wmr1x7706)"/><rect x="755.0" y="698.6" width="23.0" height="22.0" rx="2" fill="url(#knuckler1x7706)" stroke="#4444ff" stroke-width=".8" filter="url(#wmr1x7706)"/><rect x="149.7" y="698.2" width="23.0" height="22.0" rx="2" fill="url(#knuckler1x7706)" stroke="#4444ff" stroke-width=".8" filter="url(#wmr1x7706)"/><rect x="783.6" y="701.5" width="23.0" height="22.0" rx="2" fill="url(#knuckler1x7706)" stroke="#4444ff" stroke-width=".8" filter="url(#wmr1x7706)"/><rect x="182.6" y="700.6" width="23.0" height="22.0" rx="2" fill="url(#knuckler1x7706)" stroke="#4444ff" stroke-width=".8" filter="url(#wmr1x7706)"/><rect x="813.5" y="700.8" width="23.0" height="22.0" rx="2" fill="url(#knuckler1x7706)" stroke="#4444ff" stroke-width=".8" filter="url(#wmr1x7706)"/><rect x="212.1" y="700.4" width="23.0" height="22.0" rx="2" fill="url(#knuckler1x7706)" stroke="#4444ff" stroke-width=".8" filter="url(#wmr1x7706)"/><rect x="842.9" y="701.4" width="23.0" height="22.0" rx="2" fill="url(#knuckler1x7706)" stroke="#4444ff" stroke-width=".8" filter="url(#wmr1x7706)"/><ellipse cx="182.3628782332316" cy="709.4158706147969" rx="45.1" ry="30.0" fill="#4444ff" fill-opacity=".25" filter="url(#glowr1x7706)"/><ellipse cx="816.1379006268643" cy="710.8952022282219" rx="45.1" ry="30.0" fill="#4444ff" fill-opacity=".25" filter="url(#glowr1x7706)"/></g><rect x="448.2159221232869" y="556.7832184551283" width="100.0"  height="56.0" fill="#141428" stroke="#4444ff" stroke-width="2.2" filter="url(#skr1x7706)"/><rect x="425.7170193991624" y="573.9437653874978" width="152.0" height="26.0" fill="url(#bevelr1x7706)" fill-opacity=".65" stroke="#4444ff" stroke-width="1.2" filter="url(#skr1x7706)"/><polygon points="308.1,382.3 350.4,295.3 501.6,276.8 650.8,294.6 693.7,381.2 670.7,505.2 498.6,566.5 332.0,504.0" fill="url(#suitr1x7706)" stroke="#4444ff" stroke-width="2.8" filter="url(#skr1x7706) url(#metalr1x7706)"/><polygon points="309.5,380.1 350.8,294.4 501.1,276.9 651.3,294.4 690.6,379.7 670.2,502.0 501.2,566.3 332.1,502.6" fill="url(#carbonr1x7706)"/><polygon points="380.7,304.3 500.3,284.7 619.4,302.2 606.7,381.6 390.8,382.2" fill="url(#suitHir1x7706)"/><polygon points="379.5,381.3 364.1,426.6 431.2,503.3 500.4,529.1 568.5,504.0 635.0,427.2 619.4,378.9" fill="#000a14" fill-opacity=".88" stroke="#4444ff" stroke-width="1.8" filter="url(#skr1x7706)"/><polygon points="381.8,412.2 478.4,410.9 483.1,439.9 387.4,440.1" fill="#4444ff" filter="url(#glowr1x7706)"/><polygon points="524.3,411.8 617.6,411.5 613.1,438.5 515.0,439.9" fill="#4444ff" filter="url(#glowr1x7706)"/><ellipse cx="430.9" cy="425.7" rx="38.4"  ry="8.2" fill="#ffffff" opacity=".88"/><ellipse cx="569.1" cy="425.7" rx="38.4"  ry="8.2" fill="#ffffff" opacity=".88"/><line x1="483.4722765334509" y1="413.58513986533507" x2="513.933973534815" y2="412.90510955248027" stroke="#4444ff" stroke-opacity=".52" stroke-width="2"/><line x1="483.5301320643723" y1="438.42586583951487" x2="516.613883153107" y2="437.20673821438106" stroke="#4444ff" stroke-opacity=".52" stroke-width="2"/><line x1="498.7412576111965" y1="454.1410773255862" x2="500.93192427195606" y2="483.2166098617017" stroke="#4444ff" stroke-opacity=".58" stroke-width="2.2" filter="url(#skr1x7706)"/><line x1="454.3467753757537" y1="491.84090056139974" x2="454.32134072862567" y2="521.650050015375" stroke="#4444ff" stroke-opacity=".52" stroke-width="1.5" filter="url(#skr1x7706)"/><line x1="476.5372055395879" y1="492.0930135538801" x2="476.10330636002124" y2="521.1709501916542" stroke="#4444ff" stroke-opacity=".52" stroke-width="1.5" filter="url(#skr1x7706)"/><line x1="501.03420979809016" y1="490.48168588764963" x2="498.9032023129985" y2="521.7734333718196" stroke="#4444ff" stroke-opacity=".52" stroke-width="1.5" filter="url(#skr1x7706)"/><line x1="524.1145542835444" y1="492.47869514729825" x2="522.8197355925664" y2="519.6890283966437" stroke="#4444ff" stroke-opacity=".52" stroke-width="1.5" filter="url(#skr1x7706)"/><line x1="546.8321851099097" y1="492.36820341525595" x2="545.2685688844138" y2="519.6548692519776" stroke="#4444ff" stroke-opacity=".52" stroke-width="1.5" filter="url(#skr1x7706)"/><polygon points="432.6,504.3 566.0,502.9 553.2,556.3 446.9,558.4" fill="#141428" fill-opacity=".72" stroke="#4444ff" stroke-width="1.3" filter="url(#skr1x7706)"/><text x="30.0"  y="975.0" font-family="monospace" font-weight="bold" font-size="22.0" fill="rgba(255,255,255,.22)">#0001</text><text x="500.0"   y="975.0" text-anchor="middle" font-family="monospace" font-weight="bold" font-size="22.0" fill="#4444ff" fill-opacity=".48">OBSIDIAN RANGER</text><text x="970.0" y="975.0" text-anchor="end"    font-family="monospace" font-weight="bold" font-size="22.0" fill="#4444ff" fill-opacity=".32">MECH RANGERS</text></svg>