<svg xmlns="http://www.w3.org/2000/svg" viewBox="0 0 1000 1000" width="1000" height="1000" shape-rendering="geometricPrecision"><defs>

  <!-- Scene gradients -->
  <radialGradient id="bgr1x7759" cx="50%" cy="42%" r="72%">
    <stop offset="0%"   stop-color="#0e000e"/>
    <stop offset="100%" stop-color="#1e0600"/>
  </radialGradient>
  <linearGradient id="suitr1x7759" x1="8%" y1="0%" x2="92%" y2="100%">
    <stop offset="0%"   stop-color="#ffd700" stop-opacity=".95"/>
    <stop offset="45%"  stop-color="#503400"/>
    <stop offset="100%" stop-color="#1e0600"/>
  </linearGradient>
  <linearGradient id="suitHir1x7759" x1="0%" y1="0%" x2="0%" y2="100%">
    <stop offset="0%"   stop-color="rgba(255,255,255,.28)"/>
    <stop offset="60%"  stop-color="rgba(255,255,255,.04)"/>
    <stop offset="100%" stop-color="rgba(255,255,255,0)"/>
  </linearGradient>
  <!-- Bevel: bright top, dark bottom for armour panels -->
  <linearGradient id="bevelr1x7759" x1="0%" y1="0%" x2="0%" y2="100%">
    <stop offset="0%"   stop-color="rgba(255,255,255,.55)"/>
    <stop offset="30%"  stop-color="#ffd700"/>
    <stop offset="70%"  stop-color="#503400"/>
    <stop offset="100%" stop-color="rgba(0,0,0,.5)"/>
  </linearGradient>

  <!-- Weapon: cold steel blade sweep -->
  <linearGradient id="blader1x7759" x1="0%" y1="0%" x2="100%" y2="0%">
    <stop offset="0%"   stop-color="#0e0e20"/>
    <stop offset="16%"  stop-color="#3e3e58"/>
    <stop offset="34%"  stop-color="#c8c8e0"/>
    <stop offset="50%"  stop-color="#f5f5ff"/>
    <stop offset="66%"  stop-color="#b8b8d0"/>
    <stop offset="84%"  stop-color="#2e2e48"/>
    <stop offset="100%" stop-color="#08080e"/>
  </linearGradient>
  <!-- Blade tip brightening -->
  <linearGradient id="bladeTipr1x7759" x1="0%" y1="100%" x2="0%" y2="0%">
    <stop offset="0%"   stop-color="rgba(255,255,255,0)"/>
    <stop offset="55%"  stop-color="rgba(255,255,255,.1)"/>
    <stop offset="100%" stop-color="rgba(255,255,255,.55)"/>
  </linearGradient>
  <!-- Gunmetal anodised — blaster body -->
  <linearGradient id="gunmetalr1x7759" x1="0%" y1="0%" x2="0%" y2="100%">
    <stop offset="0%"   stop-color="#46465e"/>
    <stop offset="18%"  stop-color="#828296"/>
    <stop offset="42%"  stop-color="#26263a"/>
    <stop offset="72%"  stop-color="#16162a"/>
    <stop offset="100%" stop-color="#0c0c18"/>
  </linearGradient>
  <!-- Brushed steel tube — barrel/rod -->
  <linearGradient id="barrelr1x7759" x1="0%" y1="0%" x2="100%" y2="0%">
    <stop offset="0%"   stop-color="#0a0a14"/>
    <stop offset="24%"  stop-color="#585875"/>
    <stop offset="50%"  stop-color="#a8a8c8"/>
    <stop offset="76%"  stop-color="#383852"/>
    <stop offset="100%" stop-color="#0a0a14"/>
  </linearGradient>
  <!-- Chrome rod — lance shaft -->
  <linearGradient id="chromer1x7759" x1="0%" y1="0%" x2="100%" y2="0%">
    <stop offset="0%"   stop-color="#0c0c18"/>
    <stop offset="20%"  stop-color="#686888"/>
    <stop offset="44%"  stop-color="#e0e0f0"/>
    <stop offset="56%"  stop-color="#c0c0d8"/>
    <stop offset="80%"  stop-color="#28283e"/>
    <stop offset="100%" stop-color="#0c0c18"/>
  </linearGradient>
  <!-- Titanium plate — shield face -->
  <linearGradient id="titaniumr1x7759" x1="0%" y1="0%" x2="100%" y2="100%">
    <stop offset="0%"   stop-color="#585878"/>
    <stop offset="28%"  stop-color="#ffd700" stop-opacity=".88"/>
    <stop offset="55%"  stop-color="#503400"/>
    <stop offset="80%"  stop-color="#181828"/>
    <stop offset="100%" stop-color="#0a0a18"/>
  </linearGradient>
  <!-- Artillery black-chrome — cannon body -->
  <linearGradient id="artilleryr1x7759" x1="0%" y1="0%" x2="0%" y2="100%">
    <stop offset="0%"   stop-color="#383850"/>
    <stop offset="14%"  stop-color="#78789a"/>
    <stop offset="36%"  stop-color="#202034"/>
    <stop offset="65%"  stop-color="#14141e"/>
    <stop offset="100%" stop-color="#0a0a12"/>
  </linearGradient>
  <!-- Energy orb — staff -->
  <radialGradient id="orbr1x7759" cx="35%" cy="35%" r="65%">
    <stop offset="0%"   stop-color="rgba(255,255,255,.9)"/>
    <stop offset="30%"  stop-color="#ffd700"/>
    <stop offset="68%"  stop-color="#503400"/>
    <stop offset="100%" stop-color="rgba(0,0,0,.6)"/>
  </radialGradient>
  <!-- Knuckle plate chrome -->
  <linearGradient id="knuckler1x7759" x1="0%" y1="0%" x2="0%" y2="100%">
    <stop offset="0%"   stop-color="#888aaa"/>
    <stop offset="32%"  stop-color="#ffd700" stop-opacity=".8"/>
    <stop offset="62%"  stop-color="#1a1a2c"/>
    <stop offset="100%" stop-color="#0a0a14"/>
  </linearGradient>

  <!-- Carbon fibre weave texture overlay -->
  <pattern id="carbonr1x7759" width="6" height="6" patternUnits="userSpaceOnUse">
    <rect width="6" height="6" fill="rgba(0,0,0,.08)"/>
    <rect x="0" y="0" width="3" height="3" fill="rgba(255,255,255,.022)"/>
    <rect x="3" y="3" width="3" height="3" fill="rgba(255,255,255,.022)"/>
    <line x1="0" y1="0" x2="3" y2="3" stroke="rgba(255,255,255,.038)" stroke-width=".5"/>
    <line x1="3" y1="0" x2="6" y2="3" stroke="rgba(0,0,0,.055)"       stroke-width=".5"/>
    <line x1="0" y1="3" x2="3" y2="6" stroke="rgba(0,0,0,.055)"       stroke-width=".5"/>
    <line x1="3" y1="3" x2="6" y2="6" stroke="rgba(255,255,255,.038)" stroke-width=".5"/>
  </pattern>

  <!-- Specular metal sheen on armour panels -->
  <filter id="metalr1x7759" x="-5%" y="-5%" width="110%" height="110%">
    <feSpecularLighting surfaceScale="4" specularConstant="1.8"
        specularExponent="42" lighting-color="#ffffff" result="spec">
      <feDistantLight elevation="52" azimuth="38"/>
    </feSpecularLighting>
    <feComposite in="spec" in2="SourceGraphic" operator="in" result="sm"/>
    <feComposite in="SourceGraphic" in2="sm" operator="arithmetic" k1="0" k2="1" k3="0.55" k4="0"/>
  </filter>

  <!-- Sharper specular for weapons — heavier glare -->
  <filter id="wmr1x7759" x="-8%" y="-8%" width="116%" height="116%">
    <feSpecularLighting surfaceScale="6" specularConstant="2.4"
        specularExponent="65" lighting-color="#ffffff" result="spec">
      <feDistantLight elevation="44" azimuth="28"/>
    </feSpecularLighting>
    <feComposite in="spec" in2="SourceGraphic" operator="in" result="sm"/>
    <feComposite in="SourceGraphic" in2="sm" operator="arithmetic" k1="0" k2="1" k3="0.78" k4="0"/>
  </filter>

  <!-- Sketch wobble -->
  <filter id="skr1x7759" x="-8%" y="-8%" width="116%" height="116%">
    <feTurbulence type="fractalNoise" baseFrequency="0.038"
        numOctaves="3" seed="22" result="noise"/>
    <feDisplacementMap in="SourceGraphic" in2="noise" scale="2.6"
        xChannelSelector="R" yChannelSelector="G" result="w"/>
    <feComposite in="w" in2="SourceGraphic" operator="atop"/>
  </filter>

  <!-- Glow: sharp accent -->
  <filter id="glowr1x7759" x="-20%" y="-20%" width="140%" height="140%">
    <feGaussianBlur stdDeviation="3.5" result="b"/>
    <feColorMatrix in="b" type="matrix"
        values="0 0 0 0 1  0 0 0 0 1  0 0 0 0 1  0 0 0 1.8 0" result="boost"/>
    <feMerge><feMergeNode in="boost"/><feMergeNode in="SourceGraphic"/></feMerge>
  </filter>

  <!-- Bloom: wide soft -->
  <filter id="bloomr1x7759" x="-40%" y="-40%" width="180%" height="180%">
    <feGaussianBlur stdDeviation="11" result="b"/>
    <feMerge><feMergeNode in="b"/><feMergeNode in="SourceGraphic"/></feMerge>
  </filter>

  </defs><rect width="1000" height="1000" fill="url(#bgr1x7759)"/><ellipse cx="500.0" cy="1000" rx="850.0" ry="350.0" fill="#ff4500" fill-opacity=".11" filter="url(#bloomr1x7759)"/><ellipse cx="500.0" cy="892.0" rx="350.0" ry="65.0" fill="rgba(0,0,0,.7)" filter="url(#bloomr1x7759)"/><ellipse cx="500.0" cy="889.0" rx="220.0" ry="34.0" fill="rgba(0,0,0,.45)"/><ellipse cx="500.0" cy="520.0" rx="320.0" ry="480.0" fill="#ff6600" fill-opacity=".042" filter="url(#bloomr1x7759)"/><circle cx="259.9" cy="278.3" r="0.9" fill="#ff6600" fill-opacity="0.79" filter="url(#glowr1x7759)"/><circle cx="414.8" cy="748.6" r="2.8" fill="#ff6600" fill-opacity="0.83" filter="url(#glowr1x7759)"/><circle cx="585.3" cy="681.6" r="2.7" fill="#ff6600" fill-opacity="0.76" filter="url(#glowr1x7759)"/><circle cx="361.0" cy="598.6" r="2.3" fill="#ff6600" fill-opacity="0.52" filter="url(#glowr1x7759)"/><circle cx="320.0" cy="711.3" r="1.4" fill="#ff6600" fill-opacity="0.78" filter="url(#glowr1x7759)"/><circle cx="581.2" cy="770.6" r="2.5" fill="#ff6600" fill-opacity="0.56" filter="url(#glowr1x7759)"/><circle cx="428.9" cy="300.1" r="3.0" fill="#ff6600" fill-opacity="0.74" filter="url(#glowr1x7759)"/><circle cx="500.8" cy="498.2" r="2.7" fill="#ff6600" fill-opacity="0.70" filter="url(#glowr1x7759)"/><circle cx="478.9" cy="296.7" r="2.0" fill="#ff6600" fill-opacity="0.75" filter="url(#glowr1x7759)"/><circle cx="428.1" cy="737.6" r="4.0" fill="#ff6600" fill-opacity="0.81" filter="url(#glowr1x7759)"/><circle cx="661.8" cy="536.6" r="3.2" fill="#ff6600" fill-opacity="0.47" filter="url(#glowr1x7759)"/><circle cx="296.7" cy="350.1" r="1.5" fill="#ff6600" fill-opacity="0.82" filter="url(#glowr1x7759)"/><circle cx="398.1" cy="387.9" r="0.5" fill="#ff6600" fill-opacity="0.63" filter="url(#glowr1x7759)"/><circle cx="726.0" cy="276.1" r="4.2" fill="#ff6600" fill-opacity="0.83" filter="url(#glowr1x7759)"/><polygon points="400.3,661.2 491.0,662.3 482.4,876.4 386.4,877.7" fill="url(#suitr1x7759)" stroke="#ffd700" stroke-width="2.2" filter="url(#skr1x7759) url(#metalr1x7759)"/><polygon points="400.4,664.0 488.5,663.0 479.9,877.2 388.1,877.6" fill="url(#carbonr1x7759)"/><polygon points="394.3,724.0 492.7,722.5 484.1,787.3 382.4,789.6" fill="url(#bevelr1x7759)" fill-opacity=".5" stroke="#ffd700" stroke-width="1.4" filter="url(#skr1x7759)"/><polygon points="511.8,662.0 601.5,664.2 614.2,876.6 520.3,875.8" fill="url(#suitr1x7759)" stroke="#ffd700" stroke-width="2.2" filter="url(#skr1x7759) url(#metalr1x7759)"/><polygon points="510.7,662.3 600.3,662.5 613.5,877.2 518.3,877.1" fill="url(#carbonr1x7759)"/><polygon points="507.2,722.2 606.8,723.3 615.7,786.9 514.3,788.7" fill="url(#bevelr1x7759)" fill-opacity=".5" stroke="#ffd700" stroke-width="1.4" filter="url(#skr1x7759)"/><rect x="393.1" y="837.4" width="100.3" height="24.7" fill="url(#bevelr1x7759)" stroke="#ffd700" stroke-width="1" filter="url(#skr1x7759)"/><rect x="506.4"  y="838.7" width="100.3" height="24.7" fill="url(#bevelr1x7759)" stroke="#ffd700" stroke-width="1" filter="url(#skr1x7759)"/><polygon points="368.7,878.1 497.7,876.4 505.1,921.0 361.2,920.6" fill="#503400" stroke="#ffd700" stroke-width="2" filter="url(#skr1x7759)"/><polygon points="504.4,877.9 628.6,878.6 637.0,922.6 496.3,922.9" fill="#503400" stroke="#ffd700" stroke-width="2" filter="url(#skr1x7759)"/><polygon points="302.5,634.6 695.6,633.4 639.5,682.5 361.6,682.3" fill="#ffd700" fill-opacity=".52" stroke="#ffd700" stroke-width="2" filter="url(#skr1x7759)"/><rect x="465.8" y="637.6" width="72.0" height="42.0" fill="url(#bevelr1x7759)" stroke="#ffd700" stroke-width="1.4" filter="url(#glowr1x7759)"/><rect x="487.5" y="638.8" width="28.0" height="22.0" rx="1" fill="rgba(255,255,255,.48)"/><polygon points="153.2,467.4 236.5,466.0 257.9,736.3 129.6,735.0" fill="url(#suitr1x7759)" stroke="#ffd700" stroke-width="2.2" filter="url(#skr1x7759) url(#metalr1x7759)"/><polygon points="175.3,434.0 253.0,432.7 244.2,511.9 158.1,511.8" fill="url(#bevelr1x7759)" fill-opacity=".72" stroke="#ffd700" stroke-width="2.2" filter="url(#skr1x7759)"/><polygon points="161.6,622.4 241.4,621.9 238.7,660.2 165.8,660.3" fill="#ffd700" fill-opacity=".42" stroke="#ffd700" stroke-width="1" filter="url(#skr1x7759)"/><polygon points="765.7,466.9 845.9,467.1 871.8,736.5 740.3,734.7" fill="url(#suitr1x7759)" stroke="#ffd700" stroke-width="2.2" filter="url(#skr1x7759) url(#metalr1x7759)"/><polygon points="746.5,432.1 825.9,433.0 840.5,509.3 758.5,510.6" fill="url(#bevelr1x7759)" fill-opacity=".72" stroke="#ffd700" stroke-width="2.2" filter="url(#skr1x7759)"/><polygon points="755.5,621.3 837.4,620.8 835.1,661.3 759.7,661.8" fill="#ffd700" fill-opacity=".42" stroke="#ffd700" stroke-width="1" filter="url(#skr1x7759)"/><rect x="118.8"  y="699.4" width="135.3" height="85.0" rx="4" fill="url(#bevelr1x7759)" stroke="#ffd700" stroke-width="1.8" filter="url(#skr1x7759)"/><rect x="748.9"   y="698.8" width="135.3" height="85.0" rx="4" fill="url(#bevelr1x7759)" stroke="#ffd700" stroke-width="1.8" filter="url(#skr1x7759)"/><line x1="150.3" y1="702.0" x2="151.4" y2="783.9" stroke="#ffd700" stroke-opacity=".38" stroke-width="1"/><line x1="777.0" y1="703.4" x2="777.2" y2="783.8" stroke="#ffd700" stroke-opacity=".38" stroke-width="1"/><line x1="183.3" y1="702.5" x2="181.3" y2="783.0" stroke="#ffd700" stroke-opacity=".38" stroke-width="1"/><line x1="812.0" y1="702.3" x2="809.2" y2="785.5" stroke="#ffd700" stroke-opacity=".38" stroke-width="1"/><line x1="215.4" y1="702.5" x2="216.3" y2="785.3" stroke="#ffd700" stroke-opacity=".38" stroke-width="1"/><line x1="842.1" y1="702.5" x2="843.5" y2="783.2" stroke="#ffd700" stroke-opacity=".38" stroke-width="1"/><polygon points="235.7,416.3 764.1,416.4 722.9,664.3 275.7,662.4" fill="url(#suitr1x7759)" stroke="#ffd700" stroke-width="2.6" filter="url(#skr1x7759) url(#metalr1x7759)"/><polygon points="235.8,418.3 764.8,418.5 722.6,661.0 278.9,661.8" fill="url(#carbonr1x7759)"/><polygon points="368.4,418.4 631.6,418.8 612.7,516.0 388.9,515.3" fill="url(#suitHir1x7759)"/><line x1="361.6" y1="472.5" x2="639.5" y2="470.5" stroke="#ffd700" stroke-opacity=".52" stroke-width="1.3" filter="url(#skr1x7759)"/><line x1="398.0" y1="549.3" x2="600.0" y2="548.4" stroke="#ffd700" stroke-opacity=".52" stroke-width="1.3" filter="url(#skr1x7759)"/><line x1="267.6" y1="490.2" x2="319.0" y2="491.4" stroke="#ffd700" stroke-opacity=".62" stroke-width="1.8"/><line x1="680.1" y1="490.5" x2="733.3" y2="490.4" stroke="#ffd700" stroke-opacity=".62" stroke-width="1.8"/><line x1="268.6" y1="522.8" x2="318.7" y2="522.5" stroke="#ffd700" stroke-opacity=".62" stroke-width="1.8"/><line x1="679.8" y1="523.5" x2="731.7" y2="522.2" stroke="#ffd700" stroke-opacity=".62" stroke-width="1.8"/><line x1="268.1" y1="556.2" x2="320.2" y2="555.5" stroke="#ffd700" stroke-opacity=".62" stroke-width="1.8"/><line x1="679.8" y1="554.7" x2="734.8" y2="553.5" stroke="#ffd700" stroke-opacity=".62" stroke-width="1.8"/><line x1="266.3" y1="585.3" x2="318.3" y2="587.9" stroke="#ffd700" stroke-opacity=".62" stroke-width="1.8"/><line x1="681.8" y1="586.4" x2="733.4" y2="585.5" stroke="#ffd700" stroke-opacity=".62" stroke-width="1.8"/><g filter="url(#glowr1x7759)"><polygon points="461.8,527.9 462.3,497.3 479.7,468.6 498.9,496.1 517.5,466.0 538.0,499.4 536.0,530.6" fill="#ffd700" stroke="#1e0600" stroke-width="1.4" filter="url(#skr1x7759)"/><polygon points="461.7,530.9 461.3,499.3 482.3,467.6 499.0,496.2 519.9,468.0 539.1,496.4 536.6,530.7" fill="url(#suitHir1x7759)" opacity=".38"/></g><g><polygon points="33.4,294.6 173.0,292.1 171.7,591.9 102.7,725.7 31.3,592.0" fill="url(#titaniumr1x7759)" stroke="#ffd700" stroke-width="2.6" filter="url(#wmr1x7759)"/><polygon points="32.3,294.0 171.2,291.6 170.5,591.9 101.1,727.3 31.2,591.8" fill="url(#carbonr1x7759)"/><polygon points="65.1,360.1 139.5,362.8 140.6,542.7 101.0,631.6 62.4,540.1" fill="#ffd700" fill-opacity=".28" stroke="#ffd700" stroke-width="1.5"/><line x1="48.65585659950968" y1="429.90946312313895" x2="154.382880120296" y2="433.1359019930474" stroke="#ffd700" stroke-opacity=".65" stroke-width="1.3"/><line x1="101.14658979320896" y1="331.8394955474883" x2="102.06471070175988" y2="590.6316434429027" stroke="#ffd700" stroke-opacity=".4" stroke-width="1"/><line x1="32.67866027871143" y1="297.31045631440355" x2="170.09844793410969" y2="294.78896797103806" stroke="rgba(255,255,255,.5)" stroke-width="2"/><circle cx="102.51065280366686" cy="431.9782354180701" r="18.0" fill="url(#bevelr1x7759)" stroke="#ffd700" stroke-width="1.2" filter="url(#wmr1x7759)"/></g><rect x="450.2975693031214" y="556.1053572136908" width="100.0"  height="56.0" fill="#503400" stroke="#ffd700" stroke-width="2.2" filter="url(#skr1x7759)"/><rect x="425.6745372400619" y="575.3721238934435" width="152.0" height="26.0" fill="url(#bevelr1x7759)" fill-opacity=".65" stroke="#ffd700" stroke-width="1.2" filter="url(#skr1x7759)"/><polygon points="309.5,379.0 349.2,296.1 499.4,277.4 649.3,295.6 691.6,380.2 668.7,504.8 501.3,563.7 331.8,503.2" fill="url(#suitr1x7759)" stroke="#ffd700" stroke-width="2.8" filter="url(#skr1x7759) url(#metalr1x7759)"/><polygon points="308.9,379.8 348.8,295.9 500.2,279.0 650.3,295.6 691.9,382.1 670.7,503.6 501.2,563.7 332.3,501.9" fill="url(#carbonr1x7759)"/><polygon points="380.5,304.2 500.7,286.2 619.7,304.1 608.1,379.2 390.8,381.8" fill="url(#suitHir1x7759)"/><polygon points="379.9,379.0 365.1,424.5 432.7,503.9 500.2,529.7 569.0,504.9 633.0,424.1 620.4,381.1" fill="#1e0600" fill-opacity=".88" stroke="#ffd700" stroke-width="1.8" filter="url(#skr1x7759)"/><polygon points="380.4,412.6 476.1,410.4 486.3,440.1 387.9,439.7" fill="#ffd700" filter="url(#glowr1x7759)"/><polygon points="523.3,411.7 617.4,411.6 610.8,441.2 513.7,441.6" fill="#ffd700" filter="url(#glowr1x7759)"/><ellipse cx="430.9" cy="425.7" rx="38.4"  ry="8.2" fill="#ffffff" opacity=".88"/><ellipse cx="569.1" cy="425.7" rx="38.4"  ry="8.2" fill="#ffffff" opacity=".88"/><line x1="485.67592299707235" y1="412.22334101647135" x2="515.7336537920311" y2="412.2504669112153" stroke="#ffd700" stroke-opacity=".52" stroke-width="2"/><line x1="483.7967755495198" y1="438.7303332025185" x2="513.9294940420799" y2="436.6959502838552" stroke="#ffd700" stroke-opacity=".52" stroke-width="2"/><line x1="499.03438960602506" y1="454.5028917330317" x2="498.52855878919365" y2="483.7803139531054" stroke="#ffd700" stroke-opacity=".58" stroke-width="2.2" filter="url(#skr1x7759)"/><line x1="453.36698486439883" y1="491.115389843285" x2="455.1678203037754" y2="518.9264835050329" stroke="#ffd700" stroke-opacity=".52" stroke-width="1.5" filter="url(#skr1x7759)"/><line x1="477.1256703362241" y1="491.9768678652122" x2="478.64698659585787" y2="519.1105358670466" stroke="#ffd700" stroke-opacity=".52" stroke-width="1.5" filter="url(#skr1x7759)"/><line x1="500.3950934170745" y1="492.23630582382896" x2="500.79082285044717" y2="520.9905165847391" stroke="#ffd700" stroke-opacity=".52" stroke-width="1.5" filter="url(#skr1x7759)"/><line x1="524.0154805719479" y1="493.09792414959514" x2="523.3420153721794" y2="519.7198914148845" stroke="#ffd700" stroke-opacity=".52" stroke-width="1.5" filter="url(#skr1x7759)"/><line x1="545.7972528420576" y1="491.22007191814475" x2="547.8569595144317" y2="520.365759613365" stroke="#ffd700" stroke-opacity=".52" stroke-width="1.5" filter="url(#skr1x7759)"/><polygon points="432.3,502.1 568.9,504.4 554.9,556.5 444.5,557.8" fill="#503400" fill-opacity=".72" stroke="#ffd700" stroke-width="1.3" filter="url(#skr1x7759)"/><text x="30.0"  y="975.0" font-family="monospace" font-weight="bold" font-size="22.0" fill="rgba(255,255,255,.22)">#0001</text><text x="500.0"   y="975.0" text-anchor="middle" font-family="monospace" font-weight="bold" font-size="22.0" fill="#ffd700" fill-opacity=".48">IMPERIAL RANGER</text><text x="970.0" y="975.0" text-anchor="end"    font-family="monospace" font-weight="bold" font-size="22.0" fill="#ffd700" fill-opacity=".32">MECH RANGERS</text></svg>