<svg xmlns="http://www.w3.org/2000/svg" viewBox="0 0 1000 1000" width="1000" height="1000" shape-rendering="geometricPrecision"><defs>

  <!-- Scene gradients -->
  <radialGradient id="bgr1x7785" cx="50%" cy="42%" r="72%">
    <stop offset="0%"   stop-color="#001422"/>
    <stop offset="100%" stop-color="#000a14"/>
  </radialGradient>
  <linearGradient id="suitr1x7785" x1="8%" y1="0%" x2="92%" y2="100%">
    <stop offset="0%"   stop-color="#00ff60" stop-opacity=".95"/>
    <stop offset="45%"  stop-color="#00441e"/>
    <stop offset="100%" stop-color="#000a14"/>
  </linearGradient>
  <linearGradient id="suitHir1x7785" x1="0%" y1="0%" x2="0%" y2="100%">
    <stop offset="0%"   stop-color="rgba(255,255,255,.28)"/>
    <stop offset="60%"  stop-color="rgba(255,255,255,.04)"/>
    <stop offset="100%" stop-color="rgba(255,255,255,0)"/>
  </linearGradient>
  <!-- Bevel: bright top, dark bottom for armour panels -->
  <linearGradient id="bevelr1x7785" x1="0%" y1="0%" x2="0%" y2="100%">
    <stop offset="0%"   stop-color="rgba(255,255,255,.55)"/>
    <stop offset="30%"  stop-color="#00ff60"/>
    <stop offset="70%"  stop-color="#00441e"/>
    <stop offset="100%" stop-color="rgba(0,0,0,.5)"/>
  </linearGradient>

  <!-- Weapon: cold steel blade sweep -->
  <linearGradient id="blader1x7785" x1="0%" y1="0%" x2="100%" y2="0%">
    <stop offset="0%"   stop-color="#0e0e20"/>
    <stop offset="16%"  stop-color="#3e3e58"/>
    <stop offset="34%"  stop-color="#c8c8e0"/>
    <stop offset="50%"  stop-color="#f5f5ff"/>
    <stop offset="66%"  stop-color="#b8b8d0"/>
    <stop offset="84%"  stop-color="#2e2e48"/>
    <stop offset="100%" stop-color="#08080e"/>
  </linearGradient>
  <!-- Blade tip brightening -->
  <linearGradient id="bladeTipr1x7785" x1="0%" y1="100%" x2="0%" y2="0%">
    <stop offset="0%"   stop-color="rgba(255,255,255,0)"/>
    <stop offset="55%"  stop-color="rgba(255,255,255,.1)"/>
    <stop offset="100%" stop-color="rgba(255,255,255,.55)"/>
  </linearGradient>
  <!-- Gunmetal anodised — blaster body -->
  <linearGradient id="gunmetalr1x7785" x1="0%" y1="0%" x2="0%" y2="100%">
    <stop offset="0%"   stop-color="#46465e"/>
    <stop offset="18%"  stop-color="#828296"/>
    <stop offset="42%"  stop-color="#26263a"/>
    <stop offset="72%"  stop-color="#16162a"/>
    <stop offset="100%" stop-color="#0c0c18"/>
  </linearGradient>
  <!-- Brushed steel tube — barrel/rod -->
  <linearGradient id="barrelr1x7785" x1="0%" y1="0%" x2="100%" y2="0%">
    <stop offset="0%"   stop-color="#0a0a14"/>
    <stop offset="24%"  stop-color="#585875"/>
    <stop offset="50%"  stop-color="#a8a8c8"/>
    <stop offset="76%"  stop-color="#383852"/>
    <stop offset="100%" stop-color="#0a0a14"/>
  </linearGradient>
  <!-- Chrome rod — lance shaft -->
  <linearGradient id="chromer1x7785" x1="0%" y1="0%" x2="100%" y2="0%">
    <stop offset="0%"   stop-color="#0c0c18"/>
    <stop offset="20%"  stop-color="#686888"/>
    <stop offset="44%"  stop-color="#e0e0f0"/>
    <stop offset="56%"  stop-color="#c0c0d8"/>
    <stop offset="80%"  stop-color="#28283e"/>
    <stop offset="100%" stop-color="#0c0c18"/>
  </linearGradient>
  <!-- Titanium plate — shield face -->
  <linearGradient id="titaniumr1x7785" x1="0%" y1="0%" x2="100%" y2="100%">
    <stop offset="0%"   stop-color="#585878"/>
    <stop offset="28%"  stop-color="#00ff60" stop-opacity=".88"/>
    <stop offset="55%"  stop-color="#00441e"/>
    <stop offset="80%"  stop-color="#181828"/>
    <stop offset="100%" stop-color="#0a0a18"/>
  </linearGradient>
  <!-- Artillery black-chrome — cannon body -->
  <linearGradient id="artilleryr1x7785" x1="0%" y1="0%" x2="0%" y2="100%">
    <stop offset="0%"   stop-color="#383850"/>
    <stop offset="14%"  stop-color="#78789a"/>
    <stop offset="36%"  stop-color="#202034"/>
    <stop offset="65%"  stop-color="#14141e"/>
    <stop offset="100%" stop-color="#0a0a12"/>
  </linearGradient>
  <!-- Energy orb — staff -->
  <radialGradient id="orbr1x7785" cx="35%" cy="35%" r="65%">
    <stop offset="0%"   stop-color="rgba(255,255,255,.9)"/>
    <stop offset="30%"  stop-color="#00ff60"/>
    <stop offset="68%"  stop-color="#00441e"/>
    <stop offset="100%" stop-color="rgba(0,0,0,.6)"/>
  </radialGradient>
  <!-- Knuckle plate chrome -->
  <linearGradient id="knuckler1x7785" x1="0%" y1="0%" x2="0%" y2="100%">
    <stop offset="0%"   stop-color="#888aaa"/>
    <stop offset="32%"  stop-color="#00ff60" stop-opacity=".8"/>
    <stop offset="62%"  stop-color="#1a1a2c"/>
    <stop offset="100%" stop-color="#0a0a14"/>
  </linearGradient>

  <!-- Carbon fibre weave texture overlay -->
  <pattern id="carbonr1x7785" width="6" height="6" patternUnits="userSpaceOnUse">
    <rect width="6" height="6" fill="rgba(0,0,0,.08)"/>
    <rect x="0" y="0" width="3" height="3" fill="rgba(255,255,255,.022)"/>
    <rect x="3" y="3" width="3" height="3" fill="rgba(255,255,255,.022)"/>
    <line x1="0" y1="0" x2="3" y2="3" stroke="rgba(255,255,255,.038)" stroke-width=".5"/>
    <line x1="3" y1="0" x2="6" y2="3" stroke="rgba(0,0,0,.055)"       stroke-width=".5"/>
    <line x1="0" y1="3" x2="3" y2="6" stroke="rgba(0,0,0,.055)"       stroke-width=".5"/>
    <line x1="3" y1="3" x2="6" y2="6" stroke="rgba(255,255,255,.038)" stroke-width=".5"/>
  </pattern>

  <!-- Specular metal sheen on armour panels -->
  <filter id="metalr1x7785" x="-5%" y="-5%" width="110%" height="110%">
    <feSpecularLighting surfaceScale="4" specularConstant="1.8"
        specularExponent="42" lighting-color="#ffffff" result="spec">
      <feDistantLight elevation="52" azimuth="38"/>
    </feSpecularLighting>
    <feComposite in="spec" in2="SourceGraphic" operator="in" result="sm"/>
    <feComposite in="SourceGraphic" in2="sm" operator="arithmetic" k1="0" k2="1" k3="0.55" k4="0"/>
  </filter>

  <!-- Sharper specular for weapons — heavier glare -->
  <filter id="wmr1x7785" x="-8%" y="-8%" width="116%" height="116%">
    <feSpecularLighting surfaceScale="6" specularConstant="2.4"
        specularExponent="65" lighting-color="#ffffff" result="spec">
      <feDistantLight elevation="44" azimuth="28"/>
    </feSpecularLighting>
    <feComposite in="spec" in2="SourceGraphic" operator="in" result="sm"/>
    <feComposite in="SourceGraphic" in2="sm" operator="arithmetic" k1="0" k2="1" k3="0.78" k4="0"/>
  </filter>

  <!-- Sketch wobble -->
  <filter id="skr1x7785" x="-8%" y="-8%" width="116%" height="116%">
    <feTurbulence type="fractalNoise" baseFrequency="0.038"
        numOctaves="3" seed="14" result="noise"/>
    <feDisplacementMap in="SourceGraphic" in2="noise" scale="2.6"
        xChannelSelector="R" yChannelSelector="G" result="w"/>
    <feComposite in="w" in2="SourceGraphic" operator="atop"/>
  </filter>

  <!-- Glow: sharp accent -->
  <filter id="glowr1x7785" x="-20%" y="-20%" width="140%" height="140%">
    <feGaussianBlur stdDeviation="3.5" result="b"/>
    <feColorMatrix in="b" type="matrix"
        values="0 0 0 0 1  0 0 0 0 1  0 0 0 0 1  0 0 0 1.8 0" result="boost"/>
    <feMerge><feMergeNode in="boost"/><feMergeNode in="SourceGraphic"/></feMerge>
  </filter>

  <!-- Bloom: wide soft -->
  <filter id="bloomr1x7785" x="-40%" y="-40%" width="180%" height="180%">
    <feGaussianBlur stdDeviation="11" result="b"/>
    <feMerge><feMergeNode in="b"/><feMergeNode in="SourceGraphic"/></feMerge>
  </filter>

  </defs><rect width="1000" height="1000" fill="url(#bgr1x7785)"/><line x1="0" y1="-2.3" x2="1000" y2="-0.7" stroke="#00ff60" stroke-opacity=".055" stroke-width="1.2"/><line x1="1.9" y1="0" x2="1.3" y2="1000" stroke="#00ff60" stroke-opacity=".055" stroke-width="1.2"/><line x1="0" y1="102.4" x2="1000" y2="98.6" stroke="#00ff60" stroke-opacity=".055" stroke-width="1.2"/><line x1="100.3" y1="0" x2="97.1" y2="1000" stroke="#00ff60" stroke-opacity=".055" stroke-width="1.2"/><line x1="0" y1="197.2" x2="1000" y2="201.1" stroke="#00ff60" stroke-opacity=".055" stroke-width="1.2"/><line x1="199.2" y1="0" x2="199.1" y2="1000" stroke="#00ff60" stroke-opacity=".055" stroke-width="1.2"/><line x1="0" y1="297.7" x2="1000" y2="297.6" stroke="#00ff60" stroke-opacity=".055" stroke-width="1.2"/><line x1="298.3" y1="0" x2="298.8" y2="1000" stroke="#00ff60" stroke-opacity=".055" stroke-width="1.2"/><line x1="0" y1="397.9" x2="1000" y2="402.1" stroke="#00ff60" stroke-opacity=".055" stroke-width="1.2"/><line x1="401.7" y1="0" x2="397.7" y2="1000" stroke="#00ff60" stroke-opacity=".055" stroke-width="1.2"/><line x1="0" y1="497.3" x2="1000" y2="500.6" stroke="#00ff60" stroke-opacity=".055" stroke-width="1.2"/><line x1="497.4" y1="0" x2="502.8" y2="1000" stroke="#00ff60" stroke-opacity=".055" stroke-width="1.2"/><line x1="0" y1="602.0" x2="1000" y2="597.8" stroke="#00ff60" stroke-opacity=".055" stroke-width="1.2"/><line x1="597.7" y1="0" x2="601.9" y2="1000" stroke="#00ff60" stroke-opacity=".055" stroke-width="1.2"/><line x1="0" y1="699.7" x2="1000" y2="697.9" stroke="#00ff60" stroke-opacity=".055" stroke-width="1.2"/><line x1="702.2" y1="0" x2="701.0" y2="1000" stroke="#00ff60" stroke-opacity=".055" stroke-width="1.2"/><line x1="0" y1="800.8" x2="1000" y2="801.0" stroke="#00ff60" stroke-opacity=".055" stroke-width="1.2"/><line x1="800.5" y1="0" x2="799.1" y2="1000" stroke="#00ff60" stroke-opacity=".055" stroke-width="1.2"/><line x1="0" y1="899.2" x2="1000" y2="902.1" stroke="#00ff60" stroke-opacity=".055" stroke-width="1.2"/><line x1="901.1" y1="0" x2="899.2" y2="1000" stroke="#00ff60" stroke-opacity=".055" stroke-width="1.2"/><path d="M80,30 L30,30 L30,80" stroke="#00ff60" stroke-opacity=".45" stroke-width="2" fill="none" filter="url(#glowr1x7785)"/><path d="M920,30 L970,30 L970,80" stroke="#00ff60" stroke-opacity=".45" stroke-width="2" fill="none" filter="url(#glowr1x7785)"/><path d="M30,920 L30,970 L80,970" stroke="#00ff60" stroke-opacity=".45" stroke-width="2" fill="none" filter="url(#glowr1x7785)"/><path d="M970,920 L970,970 L920,970" stroke="#00ff60" stroke-opacity=".45" stroke-width="2" fill="none" filter="url(#glowr1x7785)"/><ellipse cx="500.0" cy="892.0" rx="350.0" ry="65.0" fill="rgba(0,0,0,.7)" filter="url(#bloomr1x7785)"/><ellipse cx="500.0" cy="889.0" rx="220.0" ry="34.0" fill="rgba(0,0,0,.45)"/><ellipse cx="500.0" cy="520.0" rx="320.0" ry="480.0" fill="#00e5ff" fill-opacity=".042" filter="url(#bloomr1x7785)"/><circle cx="427.1" cy="182.4" r="0.6" fill="#00e5ff" fill-opacity="0.73" filter="url(#glowr1x7785)"/><circle cx="567.9" cy="197.4" r="2.6" fill="#00e5ff" fill-opacity="0.52" filter="url(#glowr1x7785)"/><circle cx="486.5" cy="406.1" r="1.3" fill="#00e5ff" fill-opacity="0.39" filter="url(#glowr1x7785)"/><circle cx="564.0" cy="181.7" r="0.8" fill="#00e5ff" fill-opacity="0.89" filter="url(#glowr1x7785)"/><circle cx="626.7" cy="606.2" r="4.3" fill="#00e5ff" fill-opacity="0.66" filter="url(#glowr1x7785)"/><circle cx="519.7" cy="272.7" r="3.8" fill="#00e5ff" fill-opacity="0.58" filter="url(#glowr1x7785)"/><circle cx="661.6" cy="744.7" r="4.0" fill="#00e5ff" fill-opacity="0.66" filter="url(#glowr1x7785)"/><circle cx="565.6" cy="267.3" r="2.2" fill="#00e5ff" fill-opacity="0.39" filter="url(#glowr1x7785)"/><circle cx="594.4" cy="570.0" r="2.7" fill="#00e5ff" fill-opacity="0.38" filter="url(#glowr1x7785)"/><circle cx="420.6" cy="732.2" r="2.7" fill="#00e5ff" fill-opacity="0.52" filter="url(#glowr1x7785)"/><circle cx="360.3" cy="647.3" r="1.0" fill="#00e5ff" fill-opacity="0.66" filter="url(#glowr1x7785)"/><circle cx="584.4" cy="631.2" r="3.0" fill="#00e5ff" fill-opacity="0.78" filter="url(#glowr1x7785)"/><circle cx="314.6" cy="500.5" r="2.6" fill="#00e5ff" fill-opacity="0.87" filter="url(#glowr1x7785)"/><circle cx="553.2" cy="628.9" r="4.1" fill="#00e5ff" fill-opacity="0.59" filter="url(#glowr1x7785)"/><path d="M679.5,374.7 Q657.8,530.0 471.7,653.0" stroke="#00e5ff" stroke-opacity="0.77" stroke-width="2.1" fill="none" filter="url(#glowr1x7785)"/><path d="M523.3,216.7 Q502.6,420.9 328.0,617.3" stroke="#00e5ff" stroke-opacity="0.45" stroke-width="2.5" fill="none" filter="url(#glowr1x7785)"/><path d="M514.3,281.5 Q479.5,452.7 436.6,628.5" stroke="#00e5ff" stroke-opacity="0.60" stroke-width="2.9" fill="none" filter="url(#glowr1x7785)"/><path d="M446.4,384.1 Q475.7,573.1 340.3,718.6" stroke="#00e5ff" stroke-opacity="0.55" stroke-width="2.5" fill="none" filter="url(#glowr1x7785)"/><path d="M531.5,393.1 Q534.3,609.1 617.5,811.6" stroke="#00e5ff" stroke-opacity="0.60" stroke-width="2.8" fill="none" filter="url(#glowr1x7785)"/><polygon points="398.8,660.9 488.1,661.7 482.0,876.9 387.5,879.0" fill="url(#suitr1x7785)" stroke="#00ff60" stroke-width="2.2" filter="url(#skr1x7785) url(#metalr1x7785)"/><polygon points="398.5,661.6 489.0,662.6 481.5,879.1 388.0,879.3" fill="url(#carbonr1x7785)"/><polygon points="394.1,725.0 491.3,724.9 484.1,787.1 385.4,789.7" fill="url(#bevelr1x7785)" fill-opacity=".5" stroke="#00ff60" stroke-width="1.4" filter="url(#skr1x7785)"/><polygon points="511.4,662.2 602.8,663.4 613.3,878.4 520.8,877.0" fill="url(#suitr1x7785)" stroke="#00ff60" stroke-width="2.2" filter="url(#skr1x7785) url(#metalr1x7785)"/><polygon points="511.1,661.1 600.9,662.4 614.0,878.3 520.4,876.1" fill="url(#carbonr1x7785)"/><polygon points="506.6,723.7 607.0,723.9 617.8,789.4 514.0,786.7" fill="url(#bevelr1x7785)" fill-opacity=".5" stroke="#00ff60" stroke-width="1.4" filter="url(#skr1x7785)"/><rect x="391.5" y="838.5" width="100.3" height="24.7" fill="url(#bevelr1x7785)" stroke="#00ff60" stroke-width="1" filter="url(#skr1x7785)"/><rect x="508.5"  y="838.4" width="100.3" height="24.7" fill="url(#bevelr1x7785)" stroke="#00ff60" stroke-width="1" filter="url(#skr1x7785)"/><polygon points="370.2,876.7 496.0,878.5 502.4,920.0 363.2,923.0" fill="#00441e" stroke="#00ff60" stroke-width="2" filter="url(#skr1x7785)"/><polygon points="503.7,876.9 628.6,876.3 635.6,921.4 495.7,922.4" fill="#00441e" stroke="#00ff60" stroke-width="2" filter="url(#skr1x7785)"/><polygon points="302.4,632.6 697.1,633.6 637.6,683.4 361.0,680.9" fill="#00ff60" fill-opacity=".52" stroke="#00ff60" stroke-width="2" filter="url(#skr1x7785)"/><rect x="464.4" y="636.7" width="72.0" height="42.0" fill="url(#bevelr1x7785)" stroke="#00ff60" stroke-width="1.4" filter="url(#glowr1x7785)"/><rect x="485.1" y="641.6" width="28.0" height="22.0" rx="1" fill="rgba(255,255,255,.48)"/><polygon points="151.9,465.1 233.4,467.5 256.4,736.4 127.3,736.5" fill="url(#suitr1x7785)" stroke="#00ff60" stroke-width="2.2" filter="url(#skr1x7785) url(#metalr1x7785)"/><polygon points="173.9,432.8 253.6,431.9 242.0,510.7 158.2,510.1" fill="url(#bevelr1x7785)" fill-opacity=".72" stroke="#00ff60" stroke-width="2.2" filter="url(#skr1x7785)"/><polygon points="160.4,623.4 244.1,622.8 239.4,661.9 166.8,661.2" fill="#00ff60" fill-opacity=".42" stroke="#00ff60" stroke-width="1" filter="url(#skr1x7785)"/><polygon points="766.4,465.5 846.8,466.1 873.2,734.5 742.3,735.9" fill="url(#suitr1x7785)" stroke="#00ff60" stroke-width="2.2" filter="url(#skr1x7785) url(#metalr1x7785)"/><polygon points="745.7,433.8 825.2,430.5 839.0,509.9 756.5,510.7" fill="url(#bevelr1x7785)" fill-opacity=".72" stroke="#00ff60" stroke-width="2.2" filter="url(#skr1x7785)"/><polygon points="757.2,621.1 837.8,621.8 834.7,662.5 761.8,660.0" fill="#00ff60" fill-opacity=".42" stroke="#00ff60" stroke-width="1" filter="url(#skr1x7785)"/><rect x="120.3"  y="699.0" width="135.3" height="85.0" rx="4" fill="url(#bevelr1x7785)" stroke="#00ff60" stroke-width="1.8" filter="url(#skr1x7785)"/><rect x="749.1"   y="698.5" width="135.3" height="85.0" rx="4" fill="url(#bevelr1x7785)" stroke="#00ff60" stroke-width="1.8" filter="url(#skr1x7785)"/><line x1="148.8" y1="701.1" x2="150.0" y2="783.0" stroke="#00ff60" stroke-opacity=".38" stroke-width="1"/><line x1="779.6" y1="703.4" x2="777.6" y2="784.4" stroke="#00ff60" stroke-opacity=".38" stroke-width="1"/><line x1="183.0" y1="701.1" x2="183.5" y2="785.0" stroke="#00ff60" stroke-opacity=".38" stroke-width="1"/><line x1="811.8" y1="703.3" x2="811.3" y2="783.5" stroke="#00ff60" stroke-opacity=".38" stroke-width="1"/><line x1="217.1" y1="701.7" x2="215.3" y2="784.9" stroke="#00ff60" stroke-opacity=".38" stroke-width="1"/><line x1="842.9" y1="700.4" x2="844.9" y2="785.3" stroke="#00ff60" stroke-opacity=".38" stroke-width="1"/><polygon points="233.9,419.2 766.6,418.1 721.8,664.1 276.1,664.2" fill="url(#suitr1x7785)" stroke="#00ff60" stroke-width="2.6" filter="url(#skr1x7785) url(#metalr1x7785)"/><polygon points="236.7,416.0 764.8,416.5 721.9,663.8 278.9,660.9" fill="url(#carbonr1x7785)"/><polygon points="368.9,416.7 633.5,418.4 613.1,514.4 387.3,516.2" fill="url(#suitHir1x7785)"/><line x1="360.6" y1="472.8" x2="636.1" y2="471.8" stroke="#00ff60" stroke-opacity=".52" stroke-width="1.3" filter="url(#skr1x7785)"/><line x1="398.0" y1="549.5" x2="601.0" y2="548.9" stroke="#00ff60" stroke-opacity=".52" stroke-width="1.3" filter="url(#skr1x7785)"/><line x1="266.0" y1="492.6" x2="319.6" y2="491.9" stroke="#00ff60" stroke-opacity=".62" stroke-width="1.8"/><line x1="678.4" y1="490.3" x2="733.9" y2="492.3" stroke="#00ff60" stroke-opacity=".62" stroke-width="1.8"/><line x1="265.3" y1="523.3" x2="321.5" y2="521.1" stroke="#00ff60" stroke-opacity=".62" stroke-width="1.8"/><line x1="681.0" y1="522.5" x2="734.2" y2="521.2" stroke="#00ff60" stroke-opacity=".62" stroke-width="1.8"/><line x1="265.4" y1="554.4" x2="321.3" y2="555.2" stroke="#00ff60" stroke-opacity=".62" stroke-width="1.8"/><line x1="679.9" y1="554.5" x2="732.5" y2="553.0" stroke="#00ff60" stroke-opacity=".62" stroke-width="1.8"/><line x1="265.1" y1="586.1" x2="319.4" y2="586.3" stroke="#00ff60" stroke-opacity=".62" stroke-width="1.8"/><line x1="680.4" y1="586.9" x2="732.6" y2="586.9" stroke="#00ff60" stroke-opacity=".62" stroke-width="1.8"/><g filter="url(#glowr1x7785)"><path d="M500.0,449.7 C462.3,446.8 442.0,481.6 447.8,513.5 L459.4,542.5 C476.8,536.7 491.3,551.2 500.0,551.2 C508.7,551.2 523.2,536.7 540.6,542.5 L552.2,513.5 C558.0,481.6 537.7,446.8 500.0,449.7 Z" fill="#00ff60" fill-opacity=".92" stroke="#000a14" stroke-width="1.3" filter="url(#skr1x7785)"/><path d="M483.8,519.3 Q500.0,533.8 516.2,519.3" stroke="#000a14" stroke-width="1" fill="none" opacity=".58"/><ellipse cx="481.4" cy="497.8" rx="8.7" ry="6.4" fill="#000a14" opacity=".95"/><ellipse cx="518.6" cy="497.8" rx="8.7" ry="6.4" fill="#000a14" opacity=".95"/><ellipse cx="481.4" cy="497.8" rx="2.3" ry="5.8" fill="#00ff60"/><ellipse cx="518.6" cy="497.8" rx="2.3" ry="5.8" fill="#00ff60"/><path d="M471.0,467.1 L458.2,426.5 L481.4,463.0" fill="#00ff60" stroke="#000a14" stroke-width=".9"/><path d="M529.0,467.1 L541.8,426.5 L518.6,463.0" fill="#00ff60" stroke="#000a14" stroke-width=".9"/><path d="M476.8,452.6 C488.4,449.1 511.6,449.1 523.2,452.6" fill="rgba(255,255,255,.18)"/></g><g><polygon points="30.6,292.6 172.2,294.7 171.3,592.8 102.2,728.1 33.3,589.7" fill="url(#titaniumr1x7785)" stroke="#00ff60" stroke-width="2.6" filter="url(#wmr1x7785)"/><polygon points="32.8,292.5 171.4,291.6 171.3,591.1 101.2,726.6 32.9,592.2" fill="url(#carbonr1x7785)"/><polygon points="65.7,363.0 140.9,360.2 139.3,541.0 101.8,631.1 63.3,540.4" fill="#00ff60" fill-opacity=".28" stroke="#00ff60" stroke-width="1.5"/><line x1="50.33713610669595" y1="431.8863290676847" x2="153.23020989386362" y2="431.28719328520816" stroke="#00ff60" stroke-opacity=".65" stroke-width="1.3"/><line x1="101.92862410670143" y1="330.88753715232014" x2="101.91679366057735" y2="591.1057475500739" stroke="#00ff60" stroke-opacity=".4" stroke-width="1"/><line x1="33.488117822390016" y1="295.5990561028942" x2="171.13938929395746" y2="295.12278867596757" stroke="rgba(255,255,255,.5)" stroke-width="2"/><circle cx="101.90286482427265" cy="433.0929185600951" r="18.0" fill="url(#bevelr1x7785)" stroke="#00ff60" stroke-width="1.2" filter="url(#wmr1x7785)"/></g><rect x="448.9023265382275" y="558.6241169676184" width="100.0"  height="56.0" fill="#00441e" stroke="#00ff60" stroke-width="2.2" filter="url(#skr1x7785)"/><rect x="424.54685350302606" y="576.1364530223422" width="152.0" height="26.0" fill="url(#bevelr1x7785)" fill-opacity=".65" stroke="#00ff60" stroke-width="1.2" filter="url(#skr1x7785)"/><polygon points="306.5,380.9 351.6,292.8 500.7,277.4 648.1,293.1 692.6,380.7 668.3,503.9 498.9,565.4 330.4,502.9" fill="url(#suitr1x7785)" stroke="#00ff60" stroke-width="2.8" filter="url(#skr1x7785) url(#metalr1x7785)"/><polygon points="307.1,381.9 349.6,292.8 498.5,278.8 650.6,295.9 692.9,379.5 668.5,502.5 498.7,564.5 331.0,505.2" fill="url(#carbonr1x7785)"/><polygon points="381.9,303.5 499.1,287.1 619.3,303.7 608.5,380.2 390.7,380.9" fill="url(#suitHir1x7785)"/><polygon points="381.4,379.5 365.6,425.6 432.8,503.0 498.8,527.5 566.6,504.0 634.3,424.6 619.2,378.8" fill="#000a14" fill-opacity=".88" stroke="#00ff60" stroke-width="1.8" filter="url(#skr1x7785)"/><polygon points="380.8,413.0 477.2,411.1 483.7,440.3 387.2,438.8" fill="#00ff60" filter="url(#glowr1x7785)"/><polygon points="521.9,409.9 620.0,412.4 611.2,438.8 514.8,441.6" fill="#00ff60" filter="url(#glowr1x7785)"/><ellipse cx="430.9" cy="425.7" rx="38.4"  ry="8.2" fill="#ffffff" opacity=".88"/><ellipse cx="569.1" cy="425.7" rx="38.4"  ry="8.2" fill="#ffffff" opacity=".88"/><line x1="484.9004758997448" y1="412.4822492119856" x2="513.9975095946714" y2="411.91990019520745" stroke="#00ff60" stroke-opacity=".52" stroke-width="2"/><line x1="484.1029627256654" y1="438.7134069381282" x2="514.3095899050496" y2="437.5452666546218" stroke="#00ff60" stroke-opacity=".52" stroke-width="2"/><line x1="500.95940672447904" y1="455.0806106825359" x2="501.66489844955504" y2="483.5469183061272" stroke="#00ff60" stroke-opacity=".58" stroke-width="2.2" filter="url(#skr1x7785)"/><line x1="452.1607420332544" y1="490.6977606686763" x2="452.67856121042746" y2="521.6652488055639" stroke="#00ff60" stroke-opacity=".52" stroke-width="1.5" filter="url(#skr1x7785)"/><line x1="478.1010039901733" y1="493.0760582142509" x2="475.8339818099886" y2="520.5489305939525" stroke="#00ff60" stroke-opacity=".52" stroke-width="1.5" filter="url(#skr1x7785)"/><line x1="500.88396533122284" y1="491.33340376922854" x2="500.64841070212424" y2="520.9058794616722" stroke="#00ff60" stroke-opacity=".52" stroke-width="1.5" filter="url(#skr1x7785)"/><line x1="523.2243038534746" y1="492.4584142826497" x2="523.7176459095068" y2="518.540980514884" stroke="#00ff60" stroke-opacity=".52" stroke-width="1.5" filter="url(#skr1x7785)"/><line x1="546.1621817249992" y1="491.1722759660333" x2="546.4680809936673" y2="520.9425302863121" stroke="#00ff60" stroke-opacity=".52" stroke-width="1.5" filter="url(#skr1x7785)"/><polygon points="433.1,505.3 568.9,504.5 552.9,556.1 447.9,558.4" fill="#00441e" fill-opacity=".72" stroke="#00ff60" stroke-width="1.3" filter="url(#skr1x7785)"/><path d="M342.1756719372608 372.6928547734394 Q380.71162320816893 237.71268298905343 501.3313007619232 280.931512192823" stroke="#00ff60" stroke-width="2.8" fill="none" stroke-opacity=".88" filter="url(#skr1x7785)"/><path d="M657.1245477262512 370.70446049338204 Q620.0913928177766 235.361156714987 501.5593779429793 281.04912440609183" stroke="#00ff60" stroke-width="2.8" fill="none" stroke-opacity=".88" filter="url(#skr1x7785)"/><line x1="418.4399195659347" y1="470.5048890495673" x2="439.7301769015752" y2="504.82283735321835" stroke="#00ff60" stroke-opacity=".52" stroke-width="1.3" filter="url(#skr1x7785)"/><line x1="478.39831024821854" y1="470.1896122794598" x2="494.98994509786365" y2="505.3987462500111" stroke="#00ff60" stroke-opacity=".52" stroke-width="1.3" filter="url(#skr1x7785)"/><line x1="534.8274913129769" y1="470.29642494022846" x2="552.0289092436806" y2="503.7094780992717" stroke="#00ff60" stroke-opacity=".52" stroke-width="1.3" filter="url(#skr1x7785)"/><line x1="592.4270038273557" y1="472.4937117747963" x2="611.4610073638521" y2="503.9693553609774" stroke="#00ff60" stroke-opacity=".52" stroke-width="1.3" filter="url(#skr1x7785)"/><text x="30.0"  y="975.0" font-family="monospace" font-weight="bold" font-size="22.0" fill="rgba(255,255,255,.22)">#0001</text><text x="500.0"   y="975.0" text-anchor="middle" font-family="monospace" font-weight="bold" font-size="22.0" fill="#00ff60" fill-opacity=".48">VIPER RANGER</text><text x="970.0" y="975.0" text-anchor="end"    font-family="monospace" font-weight="bold" font-size="22.0" fill="#00ff60" fill-opacity=".32">MECH RANGERS</text></svg>