<svg xmlns="http://www.w3.org/2000/svg" viewBox="0 0 1000 1000" width="1000" height="1000" shape-rendering="geometricPrecision"><defs>

  <!-- Scene gradients -->
  <radialGradient id="bgr1x7849" cx="50%" cy="42%" r="72%">
    <stop offset="0%"   stop-color="#0a1420"/>
    <stop offset="100%" stop-color="#050d14"/>
  </radialGradient>
  <linearGradient id="suitr1x7849" x1="8%" y1="0%" x2="92%" y2="100%">
    <stop offset="0%"   stop-color="#c0c0d0" stop-opacity=".95"/>
    <stop offset="45%"  stop-color="#2c2c3c"/>
    <stop offset="100%" stop-color="#050d14"/>
  </linearGradient>
  <linearGradient id="suitHir1x7849" x1="0%" y1="0%" x2="0%" y2="100%">
    <stop offset="0%"   stop-color="rgba(255,255,255,.28)"/>
    <stop offset="60%"  stop-color="rgba(255,255,255,.04)"/>
    <stop offset="100%" stop-color="rgba(255,255,255,0)"/>
  </linearGradient>
  <!-- Bevel: bright top, dark bottom for armour panels -->
  <linearGradient id="bevelr1x7849" x1="0%" y1="0%" x2="0%" y2="100%">
    <stop offset="0%"   stop-color="rgba(255,255,255,.55)"/>
    <stop offset="30%"  stop-color="#c0c0d0"/>
    <stop offset="70%"  stop-color="#2c2c3c"/>
    <stop offset="100%" stop-color="rgba(0,0,0,.5)"/>
  </linearGradient>

  <!-- Weapon: cold steel blade sweep -->
  <linearGradient id="blader1x7849" x1="0%" y1="0%" x2="100%" y2="0%">
    <stop offset="0%"   stop-color="#0e0e20"/>
    <stop offset="16%"  stop-color="#3e3e58"/>
    <stop offset="34%"  stop-color="#c8c8e0"/>
    <stop offset="50%"  stop-color="#f5f5ff"/>
    <stop offset="66%"  stop-color="#b8b8d0"/>
    <stop offset="84%"  stop-color="#2e2e48"/>
    <stop offset="100%" stop-color="#08080e"/>
  </linearGradient>
  <!-- Blade tip brightening -->
  <linearGradient id="bladeTipr1x7849" x1="0%" y1="100%" x2="0%" y2="0%">
    <stop offset="0%"   stop-color="rgba(255,255,255,0)"/>
    <stop offset="55%"  stop-color="rgba(255,255,255,.1)"/>
    <stop offset="100%" stop-color="rgba(255,255,255,.55)"/>
  </linearGradient>
  <!-- Gunmetal anodised — blaster body -->
  <linearGradient id="gunmetalr1x7849" x1="0%" y1="0%" x2="0%" y2="100%">
    <stop offset="0%"   stop-color="#46465e"/>
    <stop offset="18%"  stop-color="#828296"/>
    <stop offset="42%"  stop-color="#26263a"/>
    <stop offset="72%"  stop-color="#16162a"/>
    <stop offset="100%" stop-color="#0c0c18"/>
  </linearGradient>
  <!-- Brushed steel tube — barrel/rod -->
  <linearGradient id="barrelr1x7849" x1="0%" y1="0%" x2="100%" y2="0%">
    <stop offset="0%"   stop-color="#0a0a14"/>
    <stop offset="24%"  stop-color="#585875"/>
    <stop offset="50%"  stop-color="#a8a8c8"/>
    <stop offset="76%"  stop-color="#383852"/>
    <stop offset="100%" stop-color="#0a0a14"/>
  </linearGradient>
  <!-- Chrome rod — lance shaft -->
  <linearGradient id="chromer1x7849" x1="0%" y1="0%" x2="100%" y2="0%">
    <stop offset="0%"   stop-color="#0c0c18"/>
    <stop offset="20%"  stop-color="#686888"/>
    <stop offset="44%"  stop-color="#e0e0f0"/>
    <stop offset="56%"  stop-color="#c0c0d8"/>
    <stop offset="80%"  stop-color="#28283e"/>
    <stop offset="100%" stop-color="#0c0c18"/>
  </linearGradient>
  <!-- Titanium plate — shield face -->
  <linearGradient id="titaniumr1x7849" x1="0%" y1="0%" x2="100%" y2="100%">
    <stop offset="0%"   stop-color="#585878"/>
    <stop offset="28%"  stop-color="#c0c0d0" stop-opacity=".88"/>
    <stop offset="55%"  stop-color="#2c2c3c"/>
    <stop offset="80%"  stop-color="#181828"/>
    <stop offset="100%" stop-color="#0a0a18"/>
  </linearGradient>
  <!-- Artillery black-chrome — cannon body -->
  <linearGradient id="artilleryr1x7849" x1="0%" y1="0%" x2="0%" y2="100%">
    <stop offset="0%"   stop-color="#383850"/>
    <stop offset="14%"  stop-color="#78789a"/>
    <stop offset="36%"  stop-color="#202034"/>
    <stop offset="65%"  stop-color="#14141e"/>
    <stop offset="100%" stop-color="#0a0a12"/>
  </linearGradient>
  <!-- Energy orb — staff -->
  <radialGradient id="orbr1x7849" cx="35%" cy="35%" r="65%">
    <stop offset="0%"   stop-color="rgba(255,255,255,.9)"/>
    <stop offset="30%"  stop-color="#c0c0d0"/>
    <stop offset="68%"  stop-color="#2c2c3c"/>
    <stop offset="100%" stop-color="rgba(0,0,0,.6)"/>
  </radialGradient>
  <!-- Knuckle plate chrome -->
  <linearGradient id="knuckler1x7849" x1="0%" y1="0%" x2="0%" y2="100%">
    <stop offset="0%"   stop-color="#888aaa"/>
    <stop offset="32%"  stop-color="#c0c0d0" stop-opacity=".8"/>
    <stop offset="62%"  stop-color="#1a1a2c"/>
    <stop offset="100%" stop-color="#0a0a14"/>
  </linearGradient>

  <!-- Carbon fibre weave texture overlay -->
  <pattern id="carbonr1x7849" width="6" height="6" patternUnits="userSpaceOnUse">
    <rect width="6" height="6" fill="rgba(0,0,0,.08)"/>
    <rect x="0" y="0" width="3" height="3" fill="rgba(255,255,255,.022)"/>
    <rect x="3" y="3" width="3" height="3" fill="rgba(255,255,255,.022)"/>
    <line x1="0" y1="0" x2="3" y2="3" stroke="rgba(255,255,255,.038)" stroke-width=".5"/>
    <line x1="3" y1="0" x2="6" y2="3" stroke="rgba(0,0,0,.055)"       stroke-width=".5"/>
    <line x1="0" y1="3" x2="3" y2="6" stroke="rgba(0,0,0,.055)"       stroke-width=".5"/>
    <line x1="3" y1="3" x2="6" y2="6" stroke="rgba(255,255,255,.038)" stroke-width=".5"/>
  </pattern>

  <!-- Specular metal sheen on armour panels -->
  <filter id="metalr1x7849" x="-5%" y="-5%" width="110%" height="110%">
    <feSpecularLighting surfaceScale="4" specularConstant="1.8"
        specularExponent="42" lighting-color="#ffffff" result="spec">
      <feDistantLight elevation="52" azimuth="38"/>
    </feSpecularLighting>
    <feComposite in="spec" in2="SourceGraphic" operator="in" result="sm"/>
    <feComposite in="SourceGraphic" in2="sm" operator="arithmetic" k1="0" k2="1" k3="0.55" k4="0"/>
  </filter>

  <!-- Sharper specular for weapons — heavier glare -->
  <filter id="wmr1x7849" x="-8%" y="-8%" width="116%" height="116%">
    <feSpecularLighting surfaceScale="6" specularConstant="2.4"
        specularExponent="65" lighting-color="#ffffff" result="spec">
      <feDistantLight elevation="44" azimuth="28"/>
    </feSpecularLighting>
    <feComposite in="spec" in2="SourceGraphic" operator="in" result="sm"/>
    <feComposite in="SourceGraphic" in2="sm" operator="arithmetic" k1="0" k2="1" k3="0.78" k4="0"/>
  </filter>

  <!-- Sketch wobble -->
  <filter id="skr1x7849" x="-8%" y="-8%" width="116%" height="116%">
    <feTurbulence type="fractalNoise" baseFrequency="0.038"
        numOctaves="3" seed="96" result="noise"/>
    <feDisplacementMap in="SourceGraphic" in2="noise" scale="2.6"
        xChannelSelector="R" yChannelSelector="G" result="w"/>
    <feComposite in="w" in2="SourceGraphic" operator="atop"/>
  </filter>

  <!-- Glow: sharp accent -->
  <filter id="glowr1x7849" x="-20%" y="-20%" width="140%" height="140%">
    <feGaussianBlur stdDeviation="3.5" result="b"/>
    <feColorMatrix in="b" type="matrix"
        values="0 0 0 0 1  0 0 0 0 1  0 0 0 0 1  0 0 0 1.8 0" result="boost"/>
    <feMerge><feMergeNode in="boost"/><feMergeNode in="SourceGraphic"/></feMerge>
  </filter>

  <!-- Bloom: wide soft -->
  <filter id="bloomr1x7849" x="-40%" y="-40%" width="180%" height="180%">
    <feGaussianBlur stdDeviation="11" result="b"/>
    <feMerge><feMergeNode in="b"/><feMergeNode in="SourceGraphic"/></feMerge>
  </filter>

  </defs><rect width="1000" height="1000" fill="url(#bgr1x7849)"/><polygon points="290.0090445391834,178.20588889997452 315.67882672231644,147.5259812111035 329.5379149708897,173.3317200327292" fill="#c0c0d0" fill-opacity=".055" stroke="#c0c0d0" stroke-opacity=".1" stroke-width="1"/><polygon points="275.82796731963754,214.16190463583916 283.3883883925155,161.02430125512183 301.83817361295223,206.90859480760992" fill="#c0c0d0" fill-opacity=".055" stroke="#c0c0d0" stroke-opacity=".1" stroke-width="1"/><polygon points="940.232818168588,386.1864484101534 963.5454125823453,338.6997293801978 982.9202145179734,387.07100432831794" fill="#c0c0d0" fill-opacity=".055" stroke="#c0c0d0" stroke-opacity=".1" stroke-width="1"/><polygon points="898.7350539024919,390.9660623362288 925.9279187517241,345.21887210942805 937.5985714960843,381.54041244648397" fill="#c0c0d0" fill-opacity=".055" stroke="#c0c0d0" stroke-opacity=".1" stroke-width="1"/><polygon points="724.7888559149578,266.2963102385402 749.386418520473,233.55296145472676 766.0662225987762,275.8878747327253" fill="#c0c0d0" fill-opacity=".055" stroke="#c0c0d0" stroke-opacity=".1" stroke-width="1"/><polygon points="721.91730405204,458.75595479272306 744.5450568133965,435.84121445473284 754.1202787943184,465.8622058480978" fill="#c0c0d0" fill-opacity=".055" stroke="#c0c0d0" stroke-opacity=".1" stroke-width="1"/><polygon points="835.9234098438174,80.10489858686924 866.1942685237154,43.353087816387415 875.1474106106907,73.97162330336869" fill="#c0c0d0" fill-opacity=".055" stroke="#c0c0d0" stroke-opacity=".1" stroke-width="1"/><polygon points="442.78324017766863,108.40769750066102 477.5866980459541,73.53186060488224 489.44000588543713,123.9019474061206" fill="#c0c0d0" fill-opacity=".055" stroke="#c0c0d0" stroke-opacity=".1" stroke-width="1"/><ellipse cx="500.0" cy="892.0" rx="350.0" ry="65.0" fill="rgba(0,0,0,.7)" filter="url(#bloomr1x7849)"/><ellipse cx="500.0" cy="889.0" rx="220.0" ry="34.0" fill="rgba(0,0,0,.45)"/><ellipse cx="500.0" cy="520.0" rx="320.0" ry="480.0" fill="#ff6600" fill-opacity=".042" filter="url(#bloomr1x7849)"/><circle cx="510.8" cy="668.1" r="3.8" fill="#ff6600" fill-opacity="0.84" filter="url(#glowr1x7849)"/><circle cx="329.8" cy="703.8" r="3.7" fill="#ff6600" fill-opacity="0.88" filter="url(#glowr1x7849)"/><circle cx="285.2" cy="636.9" r="3.1" fill="#ff6600" fill-opacity="0.50" filter="url(#glowr1x7849)"/><circle cx="424.8" cy="390.4" r="4.2" fill="#ff6600" fill-opacity="0.41" filter="url(#glowr1x7849)"/><circle cx="473.2" cy="240.0" r="3.6" fill="#ff6600" fill-opacity="0.88" filter="url(#glowr1x7849)"/><circle cx="452.8" cy="782.8" r="4.1" fill="#ff6600" fill-opacity="0.86" filter="url(#glowr1x7849)"/><circle cx="252.9" cy="528.2" r="0.7" fill="#ff6600" fill-opacity="0.59" filter="url(#glowr1x7849)"/><circle cx="701.1" cy="622.6" r="1.1" fill="#ff6600" fill-opacity="0.49" filter="url(#glowr1x7849)"/><circle cx="613.4" cy="339.5" r="4.2" fill="#ff6600" fill-opacity="0.85" filter="url(#glowr1x7849)"/><circle cx="737.5" cy="235.3" r="0.6" fill="#ff6600" fill-opacity="0.51" filter="url(#glowr1x7849)"/><circle cx="579.4" cy="431.7" r="1.6" fill="#ff6600" fill-opacity="0.56" filter="url(#glowr1x7849)"/><circle cx="694.6" cy="501.7" r="4.2" fill="#ff6600" fill-opacity="0.40" filter="url(#glowr1x7849)"/><circle cx="676.8" cy="387.9" r="3.2" fill="#ff6600" fill-opacity="0.79" filter="url(#glowr1x7849)"/><circle cx="738.1" cy="264.2" r="0.8" fill="#ff6600" fill-opacity="0.41" filter="url(#glowr1x7849)"/><polygon points="400.4,662.9 488.7,663.6 479.3,876.9 388.7,878.7" fill="url(#suitr1x7849)" stroke="#c0c0d0" stroke-width="2.2" filter="url(#skr1x7849) url(#metalr1x7849)"/><polygon points="398.3,660.9 489.8,664.1 479.0,878.6 386.8,878.7" fill="url(#carbonr1x7849)"/><polygon points="391.5,724.7 493.5,725.1 484.0,789.2 382.9,787.4" fill="url(#bevelr1x7849)" fill-opacity=".5" stroke="#c0c0d0" stroke-width="1.4" filter="url(#skr1x7849)"/><polygon points="511.7,662.8 601.7,664.0 611.6,878.3 518.4,875.8" fill="url(#suitr1x7849)" stroke="#c0c0d0" stroke-width="2.2" filter="url(#skr1x7849) url(#metalr1x7849)"/><polygon points="509.5,662.4 602.4,661.2 613.3,876.1 520.2,878.8" fill="url(#carbonr1x7849)"/><polygon points="508.8,722.4 606.4,725.2 616.1,788.4 514.9,788.2" fill="url(#bevelr1x7849)" fill-opacity=".5" stroke="#c0c0d0" stroke-width="1.4" filter="url(#skr1x7849)"/><rect x="391.7" y="837.3" width="100.3" height="24.7" fill="url(#bevelr1x7849)" stroke="#c0c0d0" stroke-width="1" filter="url(#skr1x7849)"/><rect x="508.6"  y="840.3" width="100.3" height="24.7" fill="url(#bevelr1x7849)" stroke="#c0c0d0" stroke-width="1" filter="url(#skr1x7849)"/><polygon points="369.1,876.9 496.0,877.0 502.9,921.7 364.2,921.3" fill="#2c2c3c" stroke="#c0c0d0" stroke-width="2" filter="url(#skr1x7849)"/><polygon points="502.1,877.0 630.7,876.9 636.0,922.3 497.7,920.5" fill="#2c2c3c" stroke="#c0c0d0" stroke-width="2" filter="url(#skr1x7849)"/><polygon points="305.0,634.0 694.9,633.6 636.9,682.9 362.4,681.7" fill="#c0c0d0" fill-opacity=".52" stroke="#c0c0d0" stroke-width="2" filter="url(#skr1x7849)"/><rect x="462.4" y="637.6" width="72.0" height="42.0" fill="url(#bevelr1x7849)" stroke="#c0c0d0" stroke-width="1.4" filter="url(#glowr1x7849)"/><rect x="486.1" y="641.4" width="28.0" height="22.0" rx="1" fill="rgba(255,255,255,.48)"/><polygon points="152.0,467.4 235.7,464.9 258.3,733.4 129.7,735.1" fill="url(#suitr1x7849)" stroke="#c0c0d0" stroke-width="2.2" filter="url(#skr1x7849) url(#metalr1x7849)"/><polygon points="174.2,433.1 254.0,432.4 243.5,511.5 160.2,510.5" fill="url(#bevelr1x7849)" fill-opacity=".72" stroke="#c0c0d0" stroke-width="2.2" filter="url(#skr1x7849)"/><polygon points="161.2,620.2 244.4,623.1 238.9,660.0 163.8,660.7" fill="#c0c0d0" fill-opacity=".42" stroke="#c0c0d0" stroke-width="1" filter="url(#skr1x7849)"/><polygon points="766.2,466.3 845.7,467.8 871.7,736.2 742.4,735.1" fill="url(#suitr1x7849)" stroke="#c0c0d0" stroke-width="2.2" filter="url(#skr1x7849) url(#metalr1x7849)"/><polygon points="746.3,432.4 825.9,431.0 840.3,511.2 756.4,512.1" fill="url(#bevelr1x7849)" fill-opacity=".72" stroke="#c0c0d0" stroke-width="2.2" filter="url(#skr1x7849)"/><polygon points="755.6,620.3 838.9,621.0 834.0,659.4 761.1,660.7" fill="#c0c0d0" fill-opacity=".42" stroke="#c0c0d0" stroke-width="1" filter="url(#skr1x7849)"/><rect x="118.7"  y="700.5" width="135.3" height="85.0" rx="4" fill="url(#bevelr1x7849)" stroke="#c0c0d0" stroke-width="1.8" filter="url(#skr1x7849)"/><rect x="749.0"   y="700.1" width="135.3" height="85.0" rx="4" fill="url(#bevelr1x7849)" stroke="#c0c0d0" stroke-width="1.8" filter="url(#skr1x7849)"/><line x1="149.4" y1="703.6" x2="150.9" y2="785.2" stroke="#c0c0d0" stroke-opacity=".38" stroke-width="1"/><line x1="778.9" y1="703.6" x2="777.2" y2="782.7" stroke="#c0c0d0" stroke-opacity=".38" stroke-width="1"/><line x1="184.3" y1="703.6" x2="180.8" y2="782.5" stroke="#c0c0d0" stroke-opacity=".38" stroke-width="1"/><line x1="809.4" y1="700.4" x2="810.9" y2="784.0" stroke="#c0c0d0" stroke-opacity=".38" stroke-width="1"/><line x1="216.6" y1="703.3" x2="216.7" y2="784.8" stroke="#c0c0d0" stroke-opacity=".38" stroke-width="1"/><line x1="841.9" y1="703.0" x2="843.2" y2="784.1" stroke="#c0c0d0" stroke-opacity=".38" stroke-width="1"/><polygon points="235.8,416.6 763.7,415.9 721.5,664.3 278.0,664.0" fill="url(#suitr1x7849)" stroke="#c0c0d0" stroke-width="2.6" filter="url(#skr1x7849) url(#metalr1x7849)"/><polygon points="234.6,417.4 765.6,418.0 722.8,663.1 275.8,661.8" fill="url(#carbonr1x7849)"/><polygon points="368.6,417.8 634.2,416.0 612.3,515.9 389.6,515.7" fill="url(#suitHir1x7849)"/><line x1="363.9" y1="472.4" x2="638.9" y2="471.0" stroke="#c0c0d0" stroke-opacity=".52" stroke-width="1.3" filter="url(#skr1x7849)"/><line x1="398.5" y1="549.9" x2="599.2" y2="550.2" stroke="#c0c0d0" stroke-opacity=".52" stroke-width="1.3" filter="url(#skr1x7849)"/><line x1="267.8" y1="492.5" x2="319.0" y2="492.2" stroke="#c0c0d0" stroke-opacity=".62" stroke-width="1.8"/><line x1="680.7" y1="492.0" x2="732.6" y2="489.3" stroke="#c0c0d0" stroke-opacity=".62" stroke-width="1.8"/><line x1="265.8" y1="524.0" x2="319.3" y2="522.3" stroke="#c0c0d0" stroke-opacity=".62" stroke-width="1.8"/><line x1="679.9" y1="524.4" x2="732.4" y2="522.7" stroke="#c0c0d0" stroke-opacity=".62" stroke-width="1.8"/><line x1="265.4" y1="555.5" x2="321.6" y2="553.6" stroke="#c0c0d0" stroke-opacity=".62" stroke-width="1.8"/><line x1="681.1" y1="553.4" x2="734.8" y2="555.5" stroke="#c0c0d0" stroke-opacity=".62" stroke-width="1.8"/><line x1="265.3" y1="585.7" x2="319.3" y2="584.8" stroke="#c0c0d0" stroke-opacity=".62" stroke-width="1.8"/><line x1="679.7" y1="585.9" x2="734.3" y2="588.0" stroke="#c0c0d0" stroke-opacity=".62" stroke-width="1.8"/><g filter="url(#glowr1x7849)"><polygon points="499.3,453.0 513.4,490.7 553.7,491.3 523.0,518.6 532.4,556.1 501.7,535.5 467.6,559.0 477.1,518.3 446.1,492.5 486.8,491.1 " fill="#c0c0d0" stroke="#050d14" stroke-width="1.4" filter="url(#skr1x7849)"/><polygon points="499.3,453.0 513.4,490.7 553.7,491.3 523.0,518.6 532.4,556.1 501.7,535.5 467.6,559.0 477.1,518.3 446.1,492.5 486.8,491.1 " fill="url(#suitHir1x7849)" opacity=".45"/></g><g><rect x="829.0726666285284" y="423.1202486572787" width="148.0" height="82.0" rx="5" fill="url(#gunmetalr1x7849)" stroke="#c0c0d0" stroke-width="2" filter="url(#wmr1x7849)"/><rect x="830.2139401362837" y="420.93509188499297" width="148.0" height="82.0" rx="5" fill="url(#carbonr1x7849)"/><rect x="839.6274619435519" y="403.0322873889468" width="90.0" height="22.0" rx="3" fill="url(#barrelr1x7849)" stroke="#c0c0d0" stroke-width="1" filter="url(#wmr1x7849)"/><circle cx="876.4495397311263" cy="414.69811154855415" r="15.0" fill="#c0c0d0" opacity=".8" filter="url(#glowr1x7849)"/><circle cx="878.739305430241" cy="413.59408976826813" r="6.0" fill="rgba(255,255,255,.9)"/><rect x="947.2395021010749" y="455.6843302295543" width="78.0" height="36.0" rx="5" fill="url(#barrelr1x7849)" stroke="#c0c0d0" stroke-width="1.2" filter="url(#wmr1x7849)"/><circle cx="1019.3164883178287" cy="472.0859412016347" r="18.0" fill="#c0c0d0" filter="url(#glowr1x7849)" opacity=".88"/><circle cx="1021.5746120977775" cy="470.4656784014776" r="7.0" fill="#ffffff"/><rect x="874.4778179789521" y="499.95468427529556" width="44.0" height="42.0" rx="3" fill="url(#gunmetalr1x7849)" stroke="#c0c0d0" stroke-width="1" filter="url(#wmr1x7849)"/><rect x="832.7089672659151" y="421.7732886119745" width="90.0" height="10.0" rx="2" fill="rgba(255,255,255,.22)"/><line x1="858.4054812292196" y1="486.18103830460456" x2="857.6489488167316" y2="519.1244174657389" stroke="#c0c0d0" stroke-opacity=".5" stroke-width="1.2"/><line x1="874.5741200918891" y1="485.65687301252035" x2="875.4442973348871" y2="518.6088393001817" stroke="#c0c0d0" stroke-opacity=".5" stroke-width="1.2"/><line x1="889.6848724894785" y1="487.7535022223368" x2="888.4038251681812" y2="518.3458075284958" stroke="#c0c0d0" stroke-opacity=".5" stroke-width="1.2"/></g><rect x="450.79146864004434" y="556.1475181723945" width="100.0"  height="56.0" fill="#2c2c3c" stroke="#c0c0d0" stroke-width="2.2" filter="url(#skr1x7849)"/><rect x="423.44184664459897" y="574.3217623255216" width="152.0" height="26.0" fill="url(#bevelr1x7849)" fill-opacity=".65" stroke="#c0c0d0" stroke-width="1.2" filter="url(#skr1x7849)"/><polygon points="309.3,380.5 351.4,293.6 501.3,278.2 648.9,294.9 693.8,380.2 669.5,503.1 499.5,563.8 332.5,504.1" fill="url(#suitr1x7849)" stroke="#c0c0d0" stroke-width="2.8" filter="url(#skr1x7849) url(#metalr1x7849)"/><polygon points="308.2,381.7 348.5,293.6 501.0,276.7 648.7,293.4 691.2,379.2 667.4,505.1 499.7,565.4 332.2,502.9" fill="url(#carbonr1x7849)"/><polygon points="380.1,302.1 498.2,287.9 618.6,302.8 608.6,379.1 390.9,381.6" fill="url(#suitHir1x7849)"/><polygon points="380.9,381.2 366.0,426.0 433.7,502.6 500.6,526.9 566.1,503.9 632.6,425.0 618.1,380.3" fill="#050d14" fill-opacity=".88" stroke="#c0c0d0" stroke-width="1.8" filter="url(#skr1x7849)"/><polygon points="381.6,411.8 475.6,412.2 485.2,440.4 387.2,439.7" fill="#c0c0d0" filter="url(#glowr1x7849)"/><polygon points="521.9,412.4 617.2,412.2 611.3,438.5 515.2,439.8" fill="#c0c0d0" filter="url(#glowr1x7849)"/><ellipse cx="430.9" cy="425.7" rx="38.4"  ry="8.2" fill="#ffffff" opacity=".88"/><ellipse cx="569.1" cy="425.7" rx="38.4"  ry="8.2" fill="#ffffff" opacity=".88"/><line x1="484.54571133084596" y1="412.4326138956472" x2="516.7502535962873" y2="411.78661791086193" stroke="#c0c0d0" stroke-opacity=".52" stroke-width="2"/><line x1="483.1665199029818" y1="438.10831136014315" x2="517.049941728022" y2="438.8833910685964" stroke="#c0c0d0" stroke-opacity=".52" stroke-width="2"/><line x1="500.94828443014995" y1="454.48506999555974" x2="499.2254706816748" y2="483.68518403843046" stroke="#c0c0d0" stroke-opacity=".58" stroke-width="2.2" filter="url(#skr1x7849)"/><line x1="454.9505722834543" y1="489.5599790425039" x2="453.8364585643448" y2="519.7292241041548" stroke="#c0c0d0" stroke-opacity=".52" stroke-width="1.5" filter="url(#skr1x7849)"/><line x1="477.37489045983176" y1="490.6261888262815" x2="476.8403703347221" y2="520.1616697594524" stroke="#c0c0d0" stroke-opacity=".52" stroke-width="1.5" filter="url(#skr1x7849)"/><line x1="499.6790260989219" y1="492.0207936906255" x2="499.88689571172" y2="521.48801257452" stroke="#c0c0d0" stroke-opacity=".52" stroke-width="1.5" filter="url(#skr1x7849)"/><line x1="521.5936076944321" y1="491.18573728743934" x2="524.2445905216597" y2="521.4447920627892" stroke="#c0c0d0" stroke-opacity=".52" stroke-width="1.5" filter="url(#skr1x7849)"/><line x1="544.4108348616586" y1="491.33851119223976" x2="545.1211226203666" y2="521.5010856335982" stroke="#c0c0d0" stroke-opacity=".52" stroke-width="1.5" filter="url(#skr1x7849)"/><polygon points="433.8,503.9 566.3,503.2 553.7,558.5 444.9,556.8" fill="#2c2c3c" fill-opacity=".72" stroke="#c0c0d0" stroke-width="1.3" filter="url(#skr1x7849)"/><path d="M396.65354583298785 347.5858686596155 C343.42538994833825 156.7804219278507 449.78555463805793 230.12986613558607 475.1431117571518 321.39600725965573" fill="#c0c0d0" stroke="#c0c0d0" stroke-width="2.8" filter="url(#skr1x7849)"/><path d="M604.5887721344084 349.16721463371067 C657.0233064896986 155.7472414216027 548.4184208575449 230.57924345992507 526.459191642832 319.49422134021296" fill="#c0c0d0" stroke="#c0c0d0" stroke-width="2.8" filter="url(#skr1x7849)"/><path d="M392.67407947687434 427.39793590111657 L462.4306001216173 391.7237646112219 L500.65045720413326 426.0591266613454 L537.7388106808066 391.0062191301957 L606.0004855377413 425.62236170740795" stroke="#c0c0d0" stroke-width="2.2" fill="none" filter="url(#skr1x7849)"/><text x="30.0"  y="975.0" font-family="monospace" font-weight="bold" font-size="22.0" fill="rgba(255,255,255,.22)">#0001</text><text x="500.0"   y="975.0" text-anchor="middle" font-family="monospace" font-weight="bold" font-size="22.0" fill="#c0c0d0" fill-opacity=".48">CHROME RANGER</text><text x="970.0" y="975.0" text-anchor="end"    font-family="monospace" font-weight="bold" font-size="22.0" fill="#c0c0d0" fill-opacity=".32">MECH RANGERS</text></svg>