<svg xmlns="http://www.w3.org/2000/svg" viewBox="0 0 1000 1000" width="1000" height="1000" shape-rendering="geometricPrecision"><defs>

  <!-- Scene gradients -->
  <radialGradient id="bgr1x7855" cx="50%" cy="42%" r="72%">
    <stop offset="0%"   stop-color="#1a2814"/>
    <stop offset="100%" stop-color="#0d1520"/>
  </radialGradient>
  <linearGradient id="suitr1x7855" x1="8%" y1="0%" x2="92%" y2="100%">
    <stop offset="0%"   stop-color="#c0c0d0" stop-opacity=".95"/>
    <stop offset="45%"  stop-color="#2c2c3c"/>
    <stop offset="100%" stop-color="#0d1520"/>
  </linearGradient>
  <linearGradient id="suitHir1x7855" x1="0%" y1="0%" x2="0%" y2="100%">
    <stop offset="0%"   stop-color="rgba(255,255,255,.28)"/>
    <stop offset="60%"  stop-color="rgba(255,255,255,.04)"/>
    <stop offset="100%" stop-color="rgba(255,255,255,0)"/>
  </linearGradient>
  <!-- Bevel: bright top, dark bottom for armour panels -->
  <linearGradient id="bevelr1x7855" x1="0%" y1="0%" x2="0%" y2="100%">
    <stop offset="0%"   stop-color="rgba(255,255,255,.55)"/>
    <stop offset="30%"  stop-color="#c0c0d0"/>
    <stop offset="70%"  stop-color="#2c2c3c"/>
    <stop offset="100%" stop-color="rgba(0,0,0,.5)"/>
  </linearGradient>

  <!-- Weapon: cold steel blade sweep -->
  <linearGradient id="blader1x7855" x1="0%" y1="0%" x2="100%" y2="0%">
    <stop offset="0%"   stop-color="#0e0e20"/>
    <stop offset="16%"  stop-color="#3e3e58"/>
    <stop offset="34%"  stop-color="#c8c8e0"/>
    <stop offset="50%"  stop-color="#f5f5ff"/>
    <stop offset="66%"  stop-color="#b8b8d0"/>
    <stop offset="84%"  stop-color="#2e2e48"/>
    <stop offset="100%" stop-color="#08080e"/>
  </linearGradient>
  <!-- Blade tip brightening -->
  <linearGradient id="bladeTipr1x7855" x1="0%" y1="100%" x2="0%" y2="0%">
    <stop offset="0%"   stop-color="rgba(255,255,255,0)"/>
    <stop offset="55%"  stop-color="rgba(255,255,255,.1)"/>
    <stop offset="100%" stop-color="rgba(255,255,255,.55)"/>
  </linearGradient>
  <!-- Gunmetal anodised — blaster body -->
  <linearGradient id="gunmetalr1x7855" x1="0%" y1="0%" x2="0%" y2="100%">
    <stop offset="0%"   stop-color="#46465e"/>
    <stop offset="18%"  stop-color="#828296"/>
    <stop offset="42%"  stop-color="#26263a"/>
    <stop offset="72%"  stop-color="#16162a"/>
    <stop offset="100%" stop-color="#0c0c18"/>
  </linearGradient>
  <!-- Brushed steel tube — barrel/rod -->
  <linearGradient id="barrelr1x7855" x1="0%" y1="0%" x2="100%" y2="0%">
    <stop offset="0%"   stop-color="#0a0a14"/>
    <stop offset="24%"  stop-color="#585875"/>
    <stop offset="50%"  stop-color="#a8a8c8"/>
    <stop offset="76%"  stop-color="#383852"/>
    <stop offset="100%" stop-color="#0a0a14"/>
  </linearGradient>
  <!-- Chrome rod — lance shaft -->
  <linearGradient id="chromer1x7855" x1="0%" y1="0%" x2="100%" y2="0%">
    <stop offset="0%"   stop-color="#0c0c18"/>
    <stop offset="20%"  stop-color="#686888"/>
    <stop offset="44%"  stop-color="#e0e0f0"/>
    <stop offset="56%"  stop-color="#c0c0d8"/>
    <stop offset="80%"  stop-color="#28283e"/>
    <stop offset="100%" stop-color="#0c0c18"/>
  </linearGradient>
  <!-- Titanium plate — shield face -->
  <linearGradient id="titaniumr1x7855" x1="0%" y1="0%" x2="100%" y2="100%">
    <stop offset="0%"   stop-color="#585878"/>
    <stop offset="28%"  stop-color="#c0c0d0" stop-opacity=".88"/>
    <stop offset="55%"  stop-color="#2c2c3c"/>
    <stop offset="80%"  stop-color="#181828"/>
    <stop offset="100%" stop-color="#0a0a18"/>
  </linearGradient>
  <!-- Artillery black-chrome — cannon body -->
  <linearGradient id="artilleryr1x7855" x1="0%" y1="0%" x2="0%" y2="100%">
    <stop offset="0%"   stop-color="#383850"/>
    <stop offset="14%"  stop-color="#78789a"/>
    <stop offset="36%"  stop-color="#202034"/>
    <stop offset="65%"  stop-color="#14141e"/>
    <stop offset="100%" stop-color="#0a0a12"/>
  </linearGradient>
  <!-- Energy orb — staff -->
  <radialGradient id="orbr1x7855" cx="35%" cy="35%" r="65%">
    <stop offset="0%"   stop-color="rgba(255,255,255,.9)"/>
    <stop offset="30%"  stop-color="#c0c0d0"/>
    <stop offset="68%"  stop-color="#2c2c3c"/>
    <stop offset="100%" stop-color="rgba(0,0,0,.6)"/>
  </radialGradient>
  <!-- Knuckle plate chrome -->
  <linearGradient id="knuckler1x7855" x1="0%" y1="0%" x2="0%" y2="100%">
    <stop offset="0%"   stop-color="#888aaa"/>
    <stop offset="32%"  stop-color="#c0c0d0" stop-opacity=".8"/>
    <stop offset="62%"  stop-color="#1a1a2c"/>
    <stop offset="100%" stop-color="#0a0a14"/>
  </linearGradient>

  <!-- Carbon fibre weave texture overlay -->
  <pattern id="carbonr1x7855" width="6" height="6" patternUnits="userSpaceOnUse">
    <rect width="6" height="6" fill="rgba(0,0,0,.08)"/>
    <rect x="0" y="0" width="3" height="3" fill="rgba(255,255,255,.022)"/>
    <rect x="3" y="3" width="3" height="3" fill="rgba(255,255,255,.022)"/>
    <line x1="0" y1="0" x2="3" y2="3" stroke="rgba(255,255,255,.038)" stroke-width=".5"/>
    <line x1="3" y1="0" x2="6" y2="3" stroke="rgba(0,0,0,.055)"       stroke-width=".5"/>
    <line x1="0" y1="3" x2="3" y2="6" stroke="rgba(0,0,0,.055)"       stroke-width=".5"/>
    <line x1="3" y1="3" x2="6" y2="6" stroke="rgba(255,255,255,.038)" stroke-width=".5"/>
  </pattern>

  <!-- Specular metal sheen on armour panels -->
  <filter id="metalr1x7855" x="-5%" y="-5%" width="110%" height="110%">
    <feSpecularLighting surfaceScale="4" specularConstant="1.8"
        specularExponent="42" lighting-color="#ffffff" result="spec">
      <feDistantLight elevation="52" azimuth="38"/>
    </feSpecularLighting>
    <feComposite in="spec" in2="SourceGraphic" operator="in" result="sm"/>
    <feComposite in="SourceGraphic" in2="sm" operator="arithmetic" k1="0" k2="1" k3="0.55" k4="0"/>
  </filter>

  <!-- Sharper specular for weapons — heavier glare -->
  <filter id="wmr1x7855" x="-8%" y="-8%" width="116%" height="116%">
    <feSpecularLighting surfaceScale="6" specularConstant="2.4"
        specularExponent="65" lighting-color="#ffffff" result="spec">
      <feDistantLight elevation="44" azimuth="28"/>
    </feSpecularLighting>
    <feComposite in="spec" in2="SourceGraphic" operator="in" result="sm"/>
    <feComposite in="SourceGraphic" in2="sm" operator="arithmetic" k1="0" k2="1" k3="0.78" k4="0"/>
  </filter>

  <!-- Sketch wobble -->
  <filter id="skr1x7855" x="-8%" y="-8%" width="116%" height="116%">
    <feTurbulence type="fractalNoise" baseFrequency="0.038"
        numOctaves="3" seed="49" result="noise"/>
    <feDisplacementMap in="SourceGraphic" in2="noise" scale="2.6"
        xChannelSelector="R" yChannelSelector="G" result="w"/>
    <feComposite in="w" in2="SourceGraphic" operator="atop"/>
  </filter>

  <!-- Glow: sharp accent -->
  <filter id="glowr1x7855" x="-20%" y="-20%" width="140%" height="140%">
    <feGaussianBlur stdDeviation="3.5" result="b"/>
    <feColorMatrix in="b" type="matrix"
        values="0 0 0 0 1  0 0 0 0 1  0 0 0 0 1  0 0 0 1.8 0" result="boost"/>
    <feMerge><feMergeNode in="boost"/><feMergeNode in="SourceGraphic"/></feMerge>
  </filter>

  <!-- Bloom: wide soft -->
  <filter id="bloomr1x7855" x="-40%" y="-40%" width="180%" height="180%">
    <feGaussianBlur stdDeviation="11" result="b"/>
    <feMerge><feMergeNode in="b"/><feMergeNode in="SourceGraphic"/></feMerge>
  </filter>

  </defs><rect width="1000" height="1000" fill="url(#bgr1x7855)"/><ellipse cx="500.0" cy="892.0" rx="350.0" ry="65.0" fill="rgba(0,0,0,.7)" filter="url(#bloomr1x7855)"/><ellipse cx="500.0" cy="889.0" rx="220.0" ry="34.0" fill="rgba(0,0,0,.45)"/><polygon points="400.0,660.9 488.0,661.8 480.7,878.5 385.9,878.8" fill="url(#suitr1x7855)" stroke="#c0c0d0" stroke-width="2.2" filter="url(#skr1x7855) url(#metalr1x7855)"/><polygon points="398.4,663.9 490.5,663.0 479.7,878.9 387.7,878.6" fill="url(#carbonr1x7855)"/><polygon points="393.0,723.1 493.8,724.0 484.6,789.4 382.5,787.7" fill="url(#bevelr1x7855)" fill-opacity=".5" stroke="#c0c0d0" stroke-width="1.4" filter="url(#skr1x7855)"/><polygon points="510.5,662.5 600.1,663.2 613.3,877.0 520.4,876.0" fill="url(#suitr1x7855)" stroke="#c0c0d0" stroke-width="2.2" filter="url(#skr1x7855) url(#metalr1x7855)"/><polygon points="510.7,661.3 601.9,662.0 612.9,878.6 517.7,876.5" fill="url(#carbonr1x7855)"/><polygon points="506.1,725.1 606.5,722.2 617.1,789.6 514.2,789.9" fill="url(#bevelr1x7855)" fill-opacity=".5" stroke="#c0c0d0" stroke-width="1.4" filter="url(#skr1x7855)"/><rect x="392.3" y="838.8" width="100.3" height="24.7" fill="url(#bevelr1x7855)" stroke="#c0c0d0" stroke-width="1" filter="url(#skr1x7855)"/><rect x="506.9"  y="840.0" width="100.3" height="24.7" fill="url(#bevelr1x7855)" stroke="#c0c0d0" stroke-width="1" filter="url(#skr1x7855)"/><polygon points="368.7,876.3 497.8,877.7 502.4,922.7 363.7,920.5" fill="#2c2c3c" stroke="#c0c0d0" stroke-width="2" filter="url(#skr1x7855)"/><polygon points="502.3,876.2 629.5,877.0 636.1,922.4 497.5,921.1" fill="#2c2c3c" stroke="#c0c0d0" stroke-width="2" filter="url(#skr1x7855)"/><polygon points="305.4,633.3 694.7,634.8 637.0,681.2 361.0,680.7" fill="#c0c0d0" fill-opacity=".52" stroke="#c0c0d0" stroke-width="2" filter="url(#skr1x7855)"/><rect x="462.6" y="636.5" width="72.0" height="42.0" fill="url(#bevelr1x7855)" stroke="#c0c0d0" stroke-width="1.4" filter="url(#glowr1x7855)"/><rect x="487.4" y="640.6" width="28.0" height="22.0" rx="1" fill="rgba(255,255,255,.48)"/><polygon points="152.1,468.1 235.5,467.2 259.2,734.5 127.7,735.5" fill="url(#suitr1x7855)" stroke="#c0c0d0" stroke-width="2.2" filter="url(#skr1x7855) url(#metalr1x7855)"/><polygon points="171.7,433.3 254.5,433.2 242.6,511.5 160.7,512.3" fill="url(#bevelr1x7855)" fill-opacity=".72" stroke="#c0c0d0" stroke-width="2.2" filter="url(#skr1x7855)"/><polygon points="162.9,620.3 242.2,620.3 237.8,662.0 165.1,659.3" fill="#c0c0d0" fill-opacity=".42" stroke="#c0c0d0" stroke-width="1" filter="url(#skr1x7855)"/><polygon points="764.9,466.1 847.0,465.5 873.0,736.6 740.7,734.2" fill="url(#suitr1x7855)" stroke="#c0c0d0" stroke-width="2.2" filter="url(#skr1x7855) url(#metalr1x7855)"/><polygon points="746.9,432.1 828.2,430.9 839.8,510.8 756.5,509.9" fill="url(#bevelr1x7855)" fill-opacity=".72" stroke="#c0c0d0" stroke-width="2.2" filter="url(#skr1x7855)"/><polygon points="755.7,622.7 837.5,620.9 834.7,661.3 761.6,660.3" fill="#c0c0d0" fill-opacity=".42" stroke="#c0c0d0" stroke-width="1" filter="url(#skr1x7855)"/><rect x="119.5"  y="700.0" width="135.3" height="85.0" rx="4" fill="url(#bevelr1x7855)" stroke="#c0c0d0" stroke-width="1.8" filter="url(#skr1x7855)"/><rect x="748.0"   y="698.9" width="135.3" height="85.0" rx="4" fill="url(#bevelr1x7855)" stroke="#c0c0d0" stroke-width="1.8" filter="url(#skr1x7855)"/><line x1="150.8" y1="700.1" x2="149.4" y2="785.4" stroke="#c0c0d0" stroke-opacity=".38" stroke-width="1"/><line x1="778.1" y1="702.3" x2="779.1" y2="782.4" stroke="#c0c0d0" stroke-opacity=".38" stroke-width="1"/><line x1="182.8" y1="701.6" x2="182.5" y2="782.4" stroke="#c0c0d0" stroke-opacity=".38" stroke-width="1"/><line x1="811.4" y1="700.4" x2="811.0" y2="784.4" stroke="#c0c0d0" stroke-opacity=".38" stroke-width="1"/><line x1="215.0" y1="700.2" x2="213.5" y2="784.2" stroke="#c0c0d0" stroke-opacity=".38" stroke-width="1"/><line x1="844.8" y1="700.1" x2="842.9" y2="784.9" stroke="#c0c0d0" stroke-opacity=".38" stroke-width="1"/><polygon points="235.3,417.7 765.1,415.8 722.3,663.1 275.6,662.7" fill="url(#suitr1x7855)" stroke="#c0c0d0" stroke-width="2.6" filter="url(#skr1x7855) url(#metalr1x7855)"/><polygon points="233.9,417.5 766.0,419.3 722.0,663.3 277.2,663.3" fill="url(#carbonr1x7855)"/><polygon points="366.6,418.3 631.2,416.6 611.0,516.5 387.3,514.1" fill="url(#suitHir1x7855)"/><line x1="363.1" y1="472.3" x2="638.3" y2="473.2" stroke="#c0c0d0" stroke-opacity=".52" stroke-width="1.3" filter="url(#skr1x7855)"/><line x1="397.6" y1="551.0" x2="599.0" y2="550.7" stroke="#c0c0d0" stroke-opacity=".52" stroke-width="1.3" filter="url(#skr1x7855)"/><line x1="267.8" y1="491.8" x2="320.3" y2="491.5" stroke="#c0c0d0" stroke-opacity=".62" stroke-width="1.8"/><line x1="681.7" y1="491.0" x2="731.5" y2="489.7" stroke="#c0c0d0" stroke-opacity=".62" stroke-width="1.8"/><line x1="268.2" y1="521.3" x2="319.3" y2="522.9" stroke="#c0c0d0" stroke-opacity=".62" stroke-width="1.8"/><line x1="680.1" y1="524.5" x2="734.4" y2="524.2" stroke="#c0c0d0" stroke-opacity=".62" stroke-width="1.8"/><line x1="266.1" y1="555.9" x2="318.7" y2="554.4" stroke="#c0c0d0" stroke-opacity=".62" stroke-width="1.8"/><line x1="681.4" y1="553.6" x2="732.8" y2="555.7" stroke="#c0c0d0" stroke-opacity=".62" stroke-width="1.8"/><line x1="267.9" y1="586.9" x2="318.9" y2="588.3" stroke="#c0c0d0" stroke-opacity=".62" stroke-width="1.8"/><line x1="679.1" y1="588.0" x2="734.6" y2="587.7" stroke="#c0c0d0" stroke-opacity=".62" stroke-width="1.8"/><g filter="url(#glowr1x7855)"><polygon points="463.8,530.2 462.0,498.6 481.7,466.2 499.0,496.1 516.9,467.4 536.2,496.0 536.7,529.6" fill="#c0c0d0" stroke="#0d1520" stroke-width="1.4" filter="url(#skr1x7855)"/><polygon points="462.9,530.9 460.9,497.9 481.8,467.6 500.9,497.8 519.3,467.3 537.6,499.2 537.0,528.2" fill="url(#suitHir1x7855)" opacity=".38"/></g><g><line x1="898.3995453606918" y1="792.3251232334412" x2="914.6380191216805" y2="112.21764858923851" stroke="url(#chromer1x7855)" stroke-width="28.0" stroke-linecap="round" filter="url(#wmr1x7855)"/><line x1="901.9136109315418" y1="771.0442098356783" x2="913.5173528906518" y2="132.91013685688375" stroke="rgba(255,255,255,.42)" stroke-width="5.0" stroke-linecap="round"/><polygon points="868.7,152.2 935.4,151.8 916.4,-9.2" fill="url(#blader1x7855)" stroke="#c0c0d0" stroke-width="1.8" filter="url(#wmr1x7855)"/><line x1="935.8" y1="151.4" x2="915.8" y2="-8.6" stroke="rgba(255,255,255,.72)" stroke-width="1.6"/><rect x="877.5823165297136" y="422.0485924695618" width="40.0" height="20.0" fill="url(#bevelr1x7855)" stroke="#c0c0d0" stroke-width="1" filter="url(#wmr1x7855)"/><rect x="878.9872634513863" y="512.2435597031377" width="40.0" height="20.0" fill="url(#bevelr1x7855)" stroke="#c0c0d0" stroke-width="1" filter="url(#wmr1x7855)"/><rect x="878.6409254100732" y="600.9662050100043" width="40.0" height="20.0" fill="url(#bevelr1x7855)" stroke="#c0c0d0" stroke-width="1" filter="url(#wmr1x7855)"/><rect x="879.3824245875329" y="689.6392592192627" width="40.0" height="20.0" fill="url(#bevelr1x7855)" stroke="#c0c0d0" stroke-width="1" filter="url(#wmr1x7855)"/><ellipse cx="898.871551555451" cy="793.0162875987589" rx="22.0" ry="15.0" fill="url(#bevelr1x7855)" stroke="#c0c0d0" stroke-width="1" filter="url(#wmr1x7855)"/></g><rect x="448.7129124169238" y="557.4347650334239" width="100.0"  height="56.0" fill="#2c2c3c" stroke="#c0c0d0" stroke-width="2.2" filter="url(#skr1x7855)"/><rect x="425.39341619983315" y="574.2633427956142" width="152.0" height="26.0" fill="url(#bevelr1x7855)" fill-opacity=".65" stroke="#c0c0d0" stroke-width="1.2" filter="url(#skr1x7855)"/><polygon points="306.8,382.0 350.8,295.4 500.7,278.3 650.4,294.4 692.1,382.4 667.5,503.8 500.8,564.6 329.6,503.5" fill="url(#suitr1x7855)" stroke="#c0c0d0" stroke-width="2.8" filter="url(#skr1x7855) url(#metalr1x7855)"/><polygon points="307.5,381.0 350.1,292.7 500.9,276.9 648.2,296.2 693.3,380.9 668.7,503.3 501.0,565.2 330.3,502.3" fill="url(#carbonr1x7855)"/><polygon points="382.8,302.2 498.4,286.2 618.1,301.1 608.8,380.2 391.9,379.6" fill="url(#suitHir1x7855)"/><polygon points="382.7,381.0 364.7,424.5 432.2,501.9 500.2,529.6 566.3,503.2 636.0,427.4 620.1,380.7" fill="#0d1520" fill-opacity=".88" stroke="#c0c0d0" stroke-width="1.8" filter="url(#skr1x7855)"/><polygon points="382.2,410.7 476.1,410.7 484.4,441.6 387.5,438.3" fill="#c0c0d0" filter="url(#glowr1x7855)"/><polygon points="523.2,410.5 618.5,409.9 611.1,439.9 515.4,441.1" fill="#c0c0d0" filter="url(#glowr1x7855)"/><ellipse cx="430.9" cy="425.7" rx="38.4"  ry="8.2" fill="#ffffff" opacity=".88"/><ellipse cx="569.1" cy="425.7" rx="38.4"  ry="8.2" fill="#ffffff" opacity=".88"/><line x1="483.1125854565389" y1="412.1424496762454" x2="514.7129879609123" y2="414.680513098184" stroke="#c0c0d0" stroke-opacity=".52" stroke-width="2"/><line x1="483.80121950214726" y1="437.54790092501787" x2="516.2001191598736" y2="439.5308659681119" stroke="#c0c0d0" stroke-opacity=".52" stroke-width="2"/><line x1="500.55357082476837" y1="453.2547518373467" x2="500.0151102957316" y2="483.2866626610048" stroke="#c0c0d0" stroke-opacity=".58" stroke-width="2.2" filter="url(#skr1x7855)"/><line x1="454.7543865407631" y1="490.58278817655514" x2="452.4616177675128" y2="520.3246725415811" stroke="#c0c0d0" stroke-opacity=".52" stroke-width="1.5" filter="url(#skr1x7855)"/><line x1="476.34753436710685" y1="489.66610178379335" x2="477.44994697872545" y2="521.0028784929775" stroke="#c0c0d0" stroke-opacity=".52" stroke-width="1.5" filter="url(#skr1x7855)"/><line x1="499.3850407718681" y1="491.15503891492256" x2="500.4516712031327" y2="521.3378550020046" stroke="#c0c0d0" stroke-opacity=".52" stroke-width="1.5" filter="url(#skr1x7855)"/><line x1="524.0337506674789" y1="492.8941740510985" x2="522.328984363526" y2="520.0527489787899" stroke="#c0c0d0" stroke-opacity=".52" stroke-width="1.5" filter="url(#skr1x7855)"/><line x1="547.4784677976929" y1="491.6168712260201" x2="546.3413995016552" y2="520.2758647789248" stroke="#c0c0d0" stroke-opacity=".52" stroke-width="1.5" filter="url(#skr1x7855)"/><polygon points="432.8,503.8 565.8,504.6 552.5,555.6 446.9,558.6" fill="#2c2c3c" fill-opacity=".72" stroke="#c0c0d0" stroke-width="1.3" filter="url(#skr1x7855)"/><text x="30.0"  y="975.0" font-family="monospace" font-weight="bold" font-size="22.0" fill="rgba(255,255,255,.22)">#0001</text><text x="500.0"   y="975.0" text-anchor="middle" font-family="monospace" font-weight="bold" font-size="22.0" fill="#c0c0d0" fill-opacity=".48">CHROME RANGER</text><text x="970.0" y="975.0" text-anchor="end"    font-family="monospace" font-weight="bold" font-size="22.0" fill="#c0c0d0" fill-opacity=".32">MECH RANGERS</text></svg>