<svg xmlns="http://www.w3.org/2000/svg" viewBox="0 0 1000 1000" width="1000" height="1000" shape-rendering="geometricPrecision"><defs>

  <!-- Scene gradients -->
  <radialGradient id="bgr1x7877" cx="50%" cy="42%" r="72%">
    <stop offset="0%"   stop-color="#0a1420"/>
    <stop offset="100%" stop-color="#050d14"/>
  </radialGradient>
  <linearGradient id="suitr1x7877" x1="8%" y1="0%" x2="92%" y2="100%">
    <stop offset="0%"   stop-color="#ffd700" stop-opacity=".95"/>
    <stop offset="45%"  stop-color="#503400"/>
    <stop offset="100%" stop-color="#050d14"/>
  </linearGradient>
  <linearGradient id="suitHir1x7877" x1="0%" y1="0%" x2="0%" y2="100%">
    <stop offset="0%"   stop-color="rgba(255,255,255,.28)"/>
    <stop offset="60%"  stop-color="rgba(255,255,255,.04)"/>
    <stop offset="100%" stop-color="rgba(255,255,255,0)"/>
  </linearGradient>
  <!-- Bevel: bright top, dark bottom for armour panels -->
  <linearGradient id="bevelr1x7877" x1="0%" y1="0%" x2="0%" y2="100%">
    <stop offset="0%"   stop-color="rgba(255,255,255,.55)"/>
    <stop offset="30%"  stop-color="#ffd700"/>
    <stop offset="70%"  stop-color="#503400"/>
    <stop offset="100%" stop-color="rgba(0,0,0,.5)"/>
  </linearGradient>

  <!-- Weapon: cold steel blade sweep -->
  <linearGradient id="blader1x7877" x1="0%" y1="0%" x2="100%" y2="0%">
    <stop offset="0%"   stop-color="#0e0e20"/>
    <stop offset="16%"  stop-color="#3e3e58"/>
    <stop offset="34%"  stop-color="#c8c8e0"/>
    <stop offset="50%"  stop-color="#f5f5ff"/>
    <stop offset="66%"  stop-color="#b8b8d0"/>
    <stop offset="84%"  stop-color="#2e2e48"/>
    <stop offset="100%" stop-color="#08080e"/>
  </linearGradient>
  <!-- Blade tip brightening -->
  <linearGradient id="bladeTipr1x7877" x1="0%" y1="100%" x2="0%" y2="0%">
    <stop offset="0%"   stop-color="rgba(255,255,255,0)"/>
    <stop offset="55%"  stop-color="rgba(255,255,255,.1)"/>
    <stop offset="100%" stop-color="rgba(255,255,255,.55)"/>
  </linearGradient>
  <!-- Gunmetal anodised — blaster body -->
  <linearGradient id="gunmetalr1x7877" x1="0%" y1="0%" x2="0%" y2="100%">
    <stop offset="0%"   stop-color="#46465e"/>
    <stop offset="18%"  stop-color="#828296"/>
    <stop offset="42%"  stop-color="#26263a"/>
    <stop offset="72%"  stop-color="#16162a"/>
    <stop offset="100%" stop-color="#0c0c18"/>
  </linearGradient>
  <!-- Brushed steel tube — barrel/rod -->
  <linearGradient id="barrelr1x7877" x1="0%" y1="0%" x2="100%" y2="0%">
    <stop offset="0%"   stop-color="#0a0a14"/>
    <stop offset="24%"  stop-color="#585875"/>
    <stop offset="50%"  stop-color="#a8a8c8"/>
    <stop offset="76%"  stop-color="#383852"/>
    <stop offset="100%" stop-color="#0a0a14"/>
  </linearGradient>
  <!-- Chrome rod — lance shaft -->
  <linearGradient id="chromer1x7877" x1="0%" y1="0%" x2="100%" y2="0%">
    <stop offset="0%"   stop-color="#0c0c18"/>
    <stop offset="20%"  stop-color="#686888"/>
    <stop offset="44%"  stop-color="#e0e0f0"/>
    <stop offset="56%"  stop-color="#c0c0d8"/>
    <stop offset="80%"  stop-color="#28283e"/>
    <stop offset="100%" stop-color="#0c0c18"/>
  </linearGradient>
  <!-- Titanium plate — shield face -->
  <linearGradient id="titaniumr1x7877" x1="0%" y1="0%" x2="100%" y2="100%">
    <stop offset="0%"   stop-color="#585878"/>
    <stop offset="28%"  stop-color="#ffd700" stop-opacity=".88"/>
    <stop offset="55%"  stop-color="#503400"/>
    <stop offset="80%"  stop-color="#181828"/>
    <stop offset="100%" stop-color="#0a0a18"/>
  </linearGradient>
  <!-- Artillery black-chrome — cannon body -->
  <linearGradient id="artilleryr1x7877" x1="0%" y1="0%" x2="0%" y2="100%">
    <stop offset="0%"   stop-color="#383850"/>
    <stop offset="14%"  stop-color="#78789a"/>
    <stop offset="36%"  stop-color="#202034"/>
    <stop offset="65%"  stop-color="#14141e"/>
    <stop offset="100%" stop-color="#0a0a12"/>
  </linearGradient>
  <!-- Energy orb — staff -->
  <radialGradient id="orbr1x7877" cx="35%" cy="35%" r="65%">
    <stop offset="0%"   stop-color="rgba(255,255,255,.9)"/>
    <stop offset="30%"  stop-color="#ffd700"/>
    <stop offset="68%"  stop-color="#503400"/>
    <stop offset="100%" stop-color="rgba(0,0,0,.6)"/>
  </radialGradient>
  <!-- Knuckle plate chrome -->
  <linearGradient id="knuckler1x7877" x1="0%" y1="0%" x2="0%" y2="100%">
    <stop offset="0%"   stop-color="#888aaa"/>
    <stop offset="32%"  stop-color="#ffd700" stop-opacity=".8"/>
    <stop offset="62%"  stop-color="#1a1a2c"/>
    <stop offset="100%" stop-color="#0a0a14"/>
  </linearGradient>

  <!-- Carbon fibre weave texture overlay -->
  <pattern id="carbonr1x7877" width="6" height="6" patternUnits="userSpaceOnUse">
    <rect width="6" height="6" fill="rgba(0,0,0,.08)"/>
    <rect x="0" y="0" width="3" height="3" fill="rgba(255,255,255,.022)"/>
    <rect x="3" y="3" width="3" height="3" fill="rgba(255,255,255,.022)"/>
    <line x1="0" y1="0" x2="3" y2="3" stroke="rgba(255,255,255,.038)" stroke-width=".5"/>
    <line x1="3" y1="0" x2="6" y2="3" stroke="rgba(0,0,0,.055)"       stroke-width=".5"/>
    <line x1="0" y1="3" x2="3" y2="6" stroke="rgba(0,0,0,.055)"       stroke-width=".5"/>
    <line x1="3" y1="3" x2="6" y2="6" stroke="rgba(255,255,255,.038)" stroke-width=".5"/>
  </pattern>

  <!-- Specular metal sheen on armour panels -->
  <filter id="metalr1x7877" x="-5%" y="-5%" width="110%" height="110%">
    <feSpecularLighting surfaceScale="4" specularConstant="1.8"
        specularExponent="42" lighting-color="#ffffff" result="spec">
      <feDistantLight elevation="52" azimuth="38"/>
    </feSpecularLighting>
    <feComposite in="spec" in2="SourceGraphic" operator="in" result="sm"/>
    <feComposite in="SourceGraphic" in2="sm" operator="arithmetic" k1="0" k2="1" k3="0.55" k4="0"/>
  </filter>

  <!-- Sharper specular for weapons — heavier glare -->
  <filter id="wmr1x7877" x="-8%" y="-8%" width="116%" height="116%">
    <feSpecularLighting surfaceScale="6" specularConstant="2.4"
        specularExponent="65" lighting-color="#ffffff" result="spec">
      <feDistantLight elevation="44" azimuth="28"/>
    </feSpecularLighting>
    <feComposite in="spec" in2="SourceGraphic" operator="in" result="sm"/>
    <feComposite in="SourceGraphic" in2="sm" operator="arithmetic" k1="0" k2="1" k3="0.78" k4="0"/>
  </filter>

  <!-- Sketch wobble -->
  <filter id="skr1x7877" x="-8%" y="-8%" width="116%" height="116%">
    <feTurbulence type="fractalNoise" baseFrequency="0.038"
        numOctaves="3" seed="35" result="noise"/>
    <feDisplacementMap in="SourceGraphic" in2="noise" scale="2.6"
        xChannelSelector="R" yChannelSelector="G" result="w"/>
    <feComposite in="w" in2="SourceGraphic" operator="atop"/>
  </filter>

  <!-- Glow: sharp accent -->
  <filter id="glowr1x7877" x="-20%" y="-20%" width="140%" height="140%">
    <feGaussianBlur stdDeviation="3.5" result="b"/>
    <feColorMatrix in="b" type="matrix"
        values="0 0 0 0 1  0 0 0 0 1  0 0 0 0 1  0 0 0 1.8 0" result="boost"/>
    <feMerge><feMergeNode in="boost"/><feMergeNode in="SourceGraphic"/></feMerge>
  </filter>

  <!-- Bloom: wide soft -->
  <filter id="bloomr1x7877" x="-40%" y="-40%" width="180%" height="180%">
    <feGaussianBlur stdDeviation="11" result="b"/>
    <feMerge><feMergeNode in="b"/><feMergeNode in="SourceGraphic"/></feMerge>
  </filter>

  </defs><rect width="1000" height="1000" fill="url(#bgr1x7877)"/><polygon points="17.290207887999713,279.65235504787415 43.09338049776852,238.2058162735775 68.9341607298702,278.285651714541" fill="#ffd700" fill-opacity=".055" stroke="#ffd700" stroke-opacity=".1" stroke-width="1"/><polygon points="369.8295602807775,59.67006245627999 394.9225909290835,18.449456810951233 420.7177607463673,69.49931019451469" fill="#ffd700" fill-opacity=".055" stroke="#ffd700" stroke-opacity=".1" stroke-width="1"/><polygon points="828.6069973418489,149.14650784805417 846.653439600952,103.92422406747937 883.7635867837816,155.49935979768634" fill="#ffd700" fill-opacity=".055" stroke="#ffd700" stroke-opacity=".1" stroke-width="1"/><polygon points="399.97847456485033,289.4829245656729 410.54509838391095,241.50173066928983 446.47167517151684,284.6292312024161" fill="#ffd700" fill-opacity=".055" stroke="#ffd700" stroke-opacity=".1" stroke-width="1"/><polygon points="88.69930586777627,456.1682247975841 108.92220461554825,410.0065021663904 145.81756181828678,455.27537900954485" fill="#ffd700" fill-opacity=".055" stroke="#ffd700" stroke-opacity=".1" stroke-width="1"/><polygon points="372.2627963591367,322.2300721751526 392.07693012245,267.55971204303205 425.14614510629326,319.40746342763305" fill="#ffd700" fill-opacity=".055" stroke="#ffd700" stroke-opacity=".1" stroke-width="1"/><polygon points="188.43334960285574,395.39045521989465 212.98853360395879,354.3899012990296 235.61994553357363,408.1965862913057" fill="#ffd700" fill-opacity=".055" stroke="#ffd700" stroke-opacity=".1" stroke-width="1"/><polygon points="875.8429839322343,240.00344707630575 897.5445695342496,207.50111206248403 908.9177696574479,243.6775984056294" fill="#ffd700" fill-opacity=".055" stroke="#ffd700" stroke-opacity=".1" stroke-width="1"/><ellipse cx="500.0" cy="892.0" rx="350.0" ry="65.0" fill="rgba(0,0,0,.7)" filter="url(#bloomr1x7877)"/><ellipse cx="500.0" cy="889.0" rx="220.0" ry="34.0" fill="rgba(0,0,0,.45)"/><polygon points="398.6,661.2 487.9,663.3 481.4,877.0 386.5,878.8" fill="url(#suitr1x7877)" stroke="#ffd700" stroke-width="2.2" filter="url(#skr1x7877) url(#metalr1x7877)"/><polygon points="399.1,663.5 488.9,661.0 480.8,877.7 388.2,876.9" fill="url(#carbonr1x7877)"/><polygon points="392.6,724.7 493.0,722.5 483.6,787.7 383.5,789.2" fill="url(#bevelr1x7877)" fill-opacity=".5" stroke="#ffd700" stroke-width="1.4" filter="url(#skr1x7877)"/><polygon points="509.9,661.8 602.5,663.8 612.8,876.7 519.6,878.9" fill="url(#suitr1x7877)" stroke="#ffd700" stroke-width="2.2" filter="url(#skr1x7877) url(#metalr1x7877)"/><polygon points="509.7,660.8 601.0,661.8 612.8,878.8 520.8,877.4" fill="url(#carbonr1x7877)"/><polygon points="506.1,722.1 608.3,724.1 614.7,789.1 516.0,787.1" fill="url(#bevelr1x7877)" fill-opacity=".5" stroke="#ffd700" stroke-width="1.4" filter="url(#skr1x7877)"/><rect x="393.8" y="837.8" width="100.3" height="24.7" fill="url(#bevelr1x7877)" stroke="#ffd700" stroke-width="1" filter="url(#skr1x7877)"/><rect x="505.3"  y="839.0" width="100.3" height="24.7" fill="url(#bevelr1x7877)" stroke="#ffd700" stroke-width="1" filter="url(#skr1x7877)"/><polygon points="370.0,877.8 496.9,877.3 503.3,920.2 361.4,919.8" fill="#503400" stroke="#ffd700" stroke-width="2" filter="url(#skr1x7877)"/><polygon points="504.1,877.0 630.0,878.7 636.9,922.9 496.1,922.6" fill="#503400" stroke="#ffd700" stroke-width="2" filter="url(#skr1x7877)"/><polygon points="303.7,632.0 696.2,631.6 639.2,683.5 360.9,681.5" fill="#ffd700" fill-opacity=".52" stroke="#ffd700" stroke-width="2" filter="url(#skr1x7877)"/><rect x="462.8" y="639.5" width="72.0" height="42.0" fill="url(#bevelr1x7877)" stroke="#ffd700" stroke-width="1.4" filter="url(#glowr1x7877)"/><rect x="486.1" y="638.9" width="28.0" height="22.0" rx="1" fill="rgba(255,255,255,.48)"/><polygon points="154.0,465.9 236.7,467.1 257.9,733.3 126.8,736.6" fill="url(#suitr1x7877)" stroke="#ffd700" stroke-width="2.2" filter="url(#skr1x7877) url(#metalr1x7877)"/><polygon points="172.9,434.0 253.8,431.3 245.0,511.4 158.0,509.5" fill="url(#bevelr1x7877)" fill-opacity=".72" stroke="#ffd700" stroke-width="2.2" filter="url(#skr1x7877)"/><polygon points="162.0,620.3 244.7,622.0 238.0,660.0 165.6,661.8" fill="#ffd700" fill-opacity=".42" stroke="#ffd700" stroke-width="1" filter="url(#skr1x7877)"/><polygon points="766.2,468.3 846.4,468.0 870.1,736.4 742.6,734.1" fill="url(#suitr1x7877)" stroke="#ffd700" stroke-width="2.2" filter="url(#skr1x7877) url(#metalr1x7877)"/><polygon points="745.7,432.2 826.9,432.4 841.1,510.3 756.0,511.2" fill="url(#bevelr1x7877)" fill-opacity=".72" stroke="#ffd700" stroke-width="2.2" filter="url(#skr1x7877)"/><polygon points="755.2,621.9 838.3,620.8 834.1,660.2 759.2,660.2" fill="#ffd700" fill-opacity=".42" stroke="#ffd700" stroke-width="1" filter="url(#skr1x7877)"/><rect x="119.5"  y="701.2" width="135.3" height="85.0" rx="4" fill="url(#bevelr1x7877)" stroke="#ffd700" stroke-width="1.8" filter="url(#skr1x7877)"/><rect x="749.8"   y="699.4" width="135.3" height="85.0" rx="4" fill="url(#bevelr1x7877)" stroke="#ffd700" stroke-width="1.8" filter="url(#skr1x7877)"/><line x1="150.2" y1="701.3" x2="148.5" y2="784.7" stroke="#ffd700" stroke-opacity=".38" stroke-width="1"/><line x1="776.6" y1="702.8" x2="776.5" y2="782.4" stroke="#ffd700" stroke-opacity=".38" stroke-width="1"/><line x1="182.6" y1="701.4" x2="183.4" y2="783.5" stroke="#ffd700" stroke-opacity=".38" stroke-width="1"/><line x1="810.4" y1="703.1" x2="812.0" y2="784.0" stroke="#ffd700" stroke-opacity=".38" stroke-width="1"/><line x1="215.7" y1="702.1" x2="215.5" y2="784.2" stroke="#ffd700" stroke-opacity=".38" stroke-width="1"/><line x1="844.6" y1="702.2" x2="844.2" y2="782.5" stroke="#ffd700" stroke-opacity=".38" stroke-width="1"/><polygon points="233.7,416.9 763.3,418.8 722.1,663.6 276.5,662.2" fill="url(#suitr1x7877)" stroke="#ffd700" stroke-width="2.6" filter="url(#skr1x7877) url(#metalr1x7877)"/><polygon points="235.2,416.9 766.1,416.6 723.3,661.0 276.7,662.9" fill="url(#carbonr1x7877)"/><polygon points="369.0,416.1 632.4,416.2 611.1,514.2 388.7,514.7" fill="url(#suitHir1x7877)"/><line x1="361.6" y1="470.6" x2="637.4" y2="471.7" stroke="#ffd700" stroke-opacity=".52" stroke-width="1.3" filter="url(#skr1x7877)"/><line x1="400.8" y1="548.3" x2="602.2" y2="548.3" stroke="#ffd700" stroke-opacity=".52" stroke-width="1.3" filter="url(#skr1x7877)"/><line x1="265.5" y1="490.3" x2="319.5" y2="489.7" stroke="#ffd700" stroke-opacity=".62" stroke-width="1.8"/><line x1="679.0" y1="489.8" x2="734.2" y2="491.7" stroke="#ffd700" stroke-opacity=".62" stroke-width="1.8"/><line x1="265.4" y1="524.3" x2="318.3" y2="523.9" stroke="#ffd700" stroke-opacity=".62" stroke-width="1.8"/><line x1="680.1" y1="521.4" x2="734.0" y2="521.6" stroke="#ffd700" stroke-opacity=".62" stroke-width="1.8"/><line x1="266.1" y1="555.5" x2="318.9" y2="555.4" stroke="#ffd700" stroke-opacity=".62" stroke-width="1.8"/><line x1="681.5" y1="555.2" x2="731.8" y2="553.9" stroke="#ffd700" stroke-opacity=".62" stroke-width="1.8"/><line x1="267.9" y1="586.7" x2="321.4" y2="586.5" stroke="#ffd700" stroke-opacity=".62" stroke-width="1.8"/><line x1="680.8" y1="587.8" x2="733.9" y2="587.9" stroke="#ffd700" stroke-opacity=".62" stroke-width="1.8"/><g filter="url(#glowr1x7877)"><circle cx="498.6" cy="500.2" r="31.3" fill="#ffd700" stroke="#050d14" stroke-width="1.4" filter="url(#skr1x7877)"/><circle cx="489.1" cy="498.3" r="7.0" fill="#050d14"/><circle cx="512.0" cy="498.5" r="7.0" fill="#050d14"/><rect x="485.9" y="520.6" width="9.3" height="17.4" rx="1" fill="#ffd700" stroke="#050d14" stroke-width=".6"/><rect x="497.0" y="520.5" width="9.3" height="17.4" rx="1" fill="#ffd700" stroke="#050d14" stroke-width=".6"/><rect x="506.4" y="520.6" width="9.3" height="17.4" rx="1" fill="#ffd700" stroke="#050d14" stroke-width=".6"/></g><g><line x1="898.9242023645528" y1="791.222622971423" x2="914.0343519004621" y2="110.32636632770297" stroke="url(#chromer1x7877)" stroke-width="28.0" stroke-linecap="round" filter="url(#wmr1x7877)"/><line x1="903.8178356973082" y1="772.1954505855217" x2="911.1179423359782" y2="131.1638240673579" stroke="rgba(255,255,255,.42)" stroke-width="5.0" stroke-linecap="round"/><polygon points="868.6,151.1 937.2,151.1 917.6,-8.9" fill="url(#blader1x7877)" stroke="#ffd700" stroke-width="1.8" filter="url(#wmr1x7877)"/><line x1="935.8" y1="151.4" x2="915.8" y2="-8.6" stroke="rgba(255,255,255,.72)" stroke-width="1.6"/><rect x="878.3275527787023" y="421.24320789212356" width="40.0" height="20.0" fill="url(#bevelr1x7877)" stroke="#ffd700" stroke-width="1" filter="url(#wmr1x7877)"/><rect x="878.4650519096851" y="509.97197700655084" width="40.0" height="20.0" fill="url(#bevelr1x7877)" stroke="#ffd700" stroke-width="1" filter="url(#wmr1x7877)"/><rect x="879.4263869496622" y="601.8748843651265" width="40.0" height="20.0" fill="url(#bevelr1x7877)" stroke="#ffd700" stroke-width="1" filter="url(#wmr1x7877)"/><rect x="877.9314683675394" y="693.0995242617092" width="40.0" height="20.0" fill="url(#bevelr1x7877)" stroke="#ffd700" stroke-width="1" filter="url(#wmr1x7877)"/><ellipse cx="896.6497522105091" cy="789.764973229263" rx="22.0" ry="15.0" fill="url(#bevelr1x7877)" stroke="#ffd700" stroke-width="1" filter="url(#wmr1x7877)"/></g><rect x="451.36237027673053" y="555.4989090421237" width="100.0"  height="56.0" fill="#503400" stroke="#ffd700" stroke-width="2.2" filter="url(#skr1x7877)"/><rect x="424.01743183815853" y="574.7502058911138" width="152.0" height="26.0" fill="url(#bevelr1x7877)" fill-opacity=".65" stroke="#ffd700" stroke-width="1.2" filter="url(#skr1x7877)"/><polygon points="308.2,381.2 348.8,295.4 498.5,276.7 651.4,293.6 692.9,379.5 667.8,505.4 499.9,564.9 332.2,503.6" fill="url(#suitr1x7877)" stroke="#ffd700" stroke-width="2.8" filter="url(#skr1x7877) url(#metalr1x7877)"/><polygon points="307.9,382.1 350.0,295.6 498.4,276.9 650.9,294.3 692.2,382.0 667.2,504.7 499.4,565.2 332.0,502.0" fill="url(#carbonr1x7877)"/><polygon points="379.8,302.1 500.8,285.5 619.2,302.8 606.5,380.4 391.8,381.0" fill="url(#suitHir1x7877)"/><polygon points="380.7,380.7 366.8,426.5 434.3,504.8 500.2,527.1 567.6,503.0 633.0,425.8 618.3,381.7" fill="#050d14" fill-opacity=".88" stroke="#ffd700" stroke-width="1.8" filter="url(#skr1x7877)"/><polygon points="381.9,411.5 477.4,412.1 483.2,439.7 387.2,438.4" fill="#ffd700" filter="url(#glowr1x7877)"/><polygon points="521.6,412.2 618.0,411.8 611.8,440.8 515.3,441.5" fill="#ffd700" filter="url(#glowr1x7877)"/><ellipse cx="430.9" cy="425.7" rx="38.4"  ry="8.2" fill="#ffffff" opacity=".88"/><ellipse cx="569.1" cy="425.7" rx="38.4"  ry="8.2" fill="#ffffff" opacity=".88"/><line x1="483.4986236228235" y1="414.4447285777889" x2="513.6395322531835" y2="411.92434256700795" stroke="#ffd700" stroke-opacity=".52" stroke-width="2"/><line x1="483.25570428060365" y1="439.57874776935205" x2="515.7047334617376" y2="437.16653598239645" stroke="#ffd700" stroke-opacity=".52" stroke-width="2"/><line x1="500.83372357413174" y1="452.94715985087674" x2="500.43221247326585" y2="481.5144780972041" stroke="#ffd700" stroke-opacity=".58" stroke-width="2.2" filter="url(#skr1x7877)"/><line x1="452.9113873582147" y1="493.00943580437445" x2="453.74974750781433" y2="518.3728011925705" stroke="#ffd700" stroke-opacity=".52" stroke-width="1.5" filter="url(#skr1x7877)"/><line x1="476.2456837167404" y1="491.0816754817962" x2="476.39120643459256" y2="520.8566606848501" stroke="#ffd700" stroke-opacity=".52" stroke-width="1.5" filter="url(#skr1x7877)"/><line x1="499.55092628747224" y1="489.6524223652668" x2="500.0939790827222" y2="521.1345217799768" stroke="#ffd700" stroke-opacity=".52" stroke-width="1.5" filter="url(#skr1x7877)"/><line x1="521.9861285176687" y1="490.0083351509645" x2="524.0545534522831" y2="521.456686477922" stroke="#ffd700" stroke-opacity=".52" stroke-width="1.5" filter="url(#skr1x7877)"/><line x1="546.0260412208922" y1="489.84915282018477" x2="544.4806600788795" y2="520.9679543336854" stroke="#ffd700" stroke-opacity=".52" stroke-width="1.5" filter="url(#skr1x7877)"/><polygon points="433.5,504.2 568.8,503.9 555.5,558.7 445.5,555.6" fill="#503400" fill-opacity=".72" stroke="#ffd700" stroke-width="1.3" filter="url(#skr1x7877)"/><polygon points="315.1,306.5 362.4,303.7 337.1,196.2" fill="url(#bevelr1x7877)" fill-opacity=".95" stroke="#ffd700" stroke-width="1.6" filter="url(#skr1x7877) url(#glowr1x7877)"/><polygon points="397.0,304.8 440.6,305.3 418.8,208.2" fill="url(#bevelr1x7877)" fill-opacity=".95" stroke="#ffd700" stroke-width="1.6" filter="url(#skr1x7877) url(#glowr1x7877)"/><polygon points="478.6,306.0 523.1,305.5 500.0,221.8" fill="url(#bevelr1x7877)" fill-opacity=".95" stroke="#ffd700" stroke-width="1.6" filter="url(#skr1x7877) url(#glowr1x7877)"/><polygon points="556.3,303.5 604.1,306.1 578.9,208.4" fill="url(#bevelr1x7877)" fill-opacity=".95" stroke="#ffd700" stroke-width="1.6" filter="url(#skr1x7877) url(#glowr1x7877)"/><polygon points="636.9,303.5 683.3,305.0 660.4,195.5" fill="url(#bevelr1x7877)" fill-opacity=".95" stroke="#ffd700" stroke-width="1.6" filter="url(#skr1x7877) url(#glowr1x7877)"/><text x="30.0"  y="975.0" font-family="monospace" font-weight="bold" font-size="22.0" fill="rgba(255,255,255,.22)">#0001</text><text x="500.0"   y="975.0" text-anchor="middle" font-family="monospace" font-weight="bold" font-size="22.0" fill="#ffd700" fill-opacity=".48">IMPERIAL RANGER</text><text x="970.0" y="975.0" text-anchor="end"    font-family="monospace" font-weight="bold" font-size="22.0" fill="#ffd700" fill-opacity=".32">MECH RANGERS</text></svg>