<svg xmlns="http://www.w3.org/2000/svg" viewBox="0 0 1000 1000" width="1000" height="1000" shape-rendering="geometricPrecision"><defs>

  <!-- Scene gradients -->
  <radialGradient id="bgr1x7901" cx="50%" cy="42%" r="72%">
    <stop offset="0%"   stop-color="#1e0d00"/>
    <stop offset="100%" stop-color="#140900"/>
  </radialGradient>
  <linearGradient id="suitr1x7901" x1="8%" y1="0%" x2="92%" y2="100%">
    <stop offset="0%"   stop-color="#ffcc00" stop-opacity=".95"/>
    <stop offset="45%"  stop-color="#a07000"/>
    <stop offset="100%" stop-color="#140900"/>
  </linearGradient>
  <linearGradient id="suitHir1x7901" x1="0%" y1="0%" x2="0%" y2="100%">
    <stop offset="0%"   stop-color="rgba(255,255,255,.28)"/>
    <stop offset="60%"  stop-color="rgba(255,255,255,.04)"/>
    <stop offset="100%" stop-color="rgba(255,255,255,0)"/>
  </linearGradient>
  <!-- Bevel: bright top, dark bottom for armour panels -->
  <linearGradient id="bevelr1x7901" x1="0%" y1="0%" x2="0%" y2="100%">
    <stop offset="0%"   stop-color="rgba(255,255,255,.55)"/>
    <stop offset="30%"  stop-color="#ffcc00"/>
    <stop offset="70%"  stop-color="#a07000"/>
    <stop offset="100%" stop-color="rgba(0,0,0,.5)"/>
  </linearGradient>

  <!-- Weapon: cold steel blade sweep -->
  <linearGradient id="blader1x7901" x1="0%" y1="0%" x2="100%" y2="0%">
    <stop offset="0%"   stop-color="#0e0e20"/>
    <stop offset="16%"  stop-color="#3e3e58"/>
    <stop offset="34%"  stop-color="#c8c8e0"/>
    <stop offset="50%"  stop-color="#f5f5ff"/>
    <stop offset="66%"  stop-color="#b8b8d0"/>
    <stop offset="84%"  stop-color="#2e2e48"/>
    <stop offset="100%" stop-color="#08080e"/>
  </linearGradient>
  <!-- Blade tip brightening -->
  <linearGradient id="bladeTipr1x7901" x1="0%" y1="100%" x2="0%" y2="0%">
    <stop offset="0%"   stop-color="rgba(255,255,255,0)"/>
    <stop offset="55%"  stop-color="rgba(255,255,255,.1)"/>
    <stop offset="100%" stop-color="rgba(255,255,255,.55)"/>
  </linearGradient>
  <!-- Gunmetal anodised — blaster body -->
  <linearGradient id="gunmetalr1x7901" x1="0%" y1="0%" x2="0%" y2="100%">
    <stop offset="0%"   stop-color="#46465e"/>
    <stop offset="18%"  stop-color="#828296"/>
    <stop offset="42%"  stop-color="#26263a"/>
    <stop offset="72%"  stop-color="#16162a"/>
    <stop offset="100%" stop-color="#0c0c18"/>
  </linearGradient>
  <!-- Brushed steel tube — barrel/rod -->
  <linearGradient id="barrelr1x7901" x1="0%" y1="0%" x2="100%" y2="0%">
    <stop offset="0%"   stop-color="#0a0a14"/>
    <stop offset="24%"  stop-color="#585875"/>
    <stop offset="50%"  stop-color="#a8a8c8"/>
    <stop offset="76%"  stop-color="#383852"/>
    <stop offset="100%" stop-color="#0a0a14"/>
  </linearGradient>
  <!-- Chrome rod — lance shaft -->
  <linearGradient id="chromer1x7901" x1="0%" y1="0%" x2="100%" y2="0%">
    <stop offset="0%"   stop-color="#0c0c18"/>
    <stop offset="20%"  stop-color="#686888"/>
    <stop offset="44%"  stop-color="#e0e0f0"/>
    <stop offset="56%"  stop-color="#c0c0d8"/>
    <stop offset="80%"  stop-color="#28283e"/>
    <stop offset="100%" stop-color="#0c0c18"/>
  </linearGradient>
  <!-- Titanium plate — shield face -->
  <linearGradient id="titaniumr1x7901" x1="0%" y1="0%" x2="100%" y2="100%">
    <stop offset="0%"   stop-color="#585878"/>
    <stop offset="28%"  stop-color="#ffcc00" stop-opacity=".88"/>
    <stop offset="55%"  stop-color="#a07000"/>
    <stop offset="80%"  stop-color="#181828"/>
    <stop offset="100%" stop-color="#0a0a18"/>
  </linearGradient>
  <!-- Artillery black-chrome — cannon body -->
  <linearGradient id="artilleryr1x7901" x1="0%" y1="0%" x2="0%" y2="100%">
    <stop offset="0%"   stop-color="#383850"/>
    <stop offset="14%"  stop-color="#78789a"/>
    <stop offset="36%"  stop-color="#202034"/>
    <stop offset="65%"  stop-color="#14141e"/>
    <stop offset="100%" stop-color="#0a0a12"/>
  </linearGradient>
  <!-- Energy orb — staff -->
  <radialGradient id="orbr1x7901" cx="35%" cy="35%" r="65%">
    <stop offset="0%"   stop-color="rgba(255,255,255,.9)"/>
    <stop offset="30%"  stop-color="#ffcc00"/>
    <stop offset="68%"  stop-color="#a07000"/>
    <stop offset="100%" stop-color="rgba(0,0,0,.6)"/>
  </radialGradient>
  <!-- Knuckle plate chrome -->
  <linearGradient id="knuckler1x7901" x1="0%" y1="0%" x2="0%" y2="100%">
    <stop offset="0%"   stop-color="#888aaa"/>
    <stop offset="32%"  stop-color="#ffcc00" stop-opacity=".8"/>
    <stop offset="62%"  stop-color="#1a1a2c"/>
    <stop offset="100%" stop-color="#0a0a14"/>
  </linearGradient>

  <!-- Carbon fibre weave texture overlay -->
  <pattern id="carbonr1x7901" width="6" height="6" patternUnits="userSpaceOnUse">
    <rect width="6" height="6" fill="rgba(0,0,0,.08)"/>
    <rect x="0" y="0" width="3" height="3" fill="rgba(255,255,255,.022)"/>
    <rect x="3" y="3" width="3" height="3" fill="rgba(255,255,255,.022)"/>
    <line x1="0" y1="0" x2="3" y2="3" stroke="rgba(255,255,255,.038)" stroke-width=".5"/>
    <line x1="3" y1="0" x2="6" y2="3" stroke="rgba(0,0,0,.055)"       stroke-width=".5"/>
    <line x1="0" y1="3" x2="3" y2="6" stroke="rgba(0,0,0,.055)"       stroke-width=".5"/>
    <line x1="3" y1="3" x2="6" y2="6" stroke="rgba(255,255,255,.038)" stroke-width=".5"/>
  </pattern>

  <!-- Specular metal sheen on armour panels -->
  <filter id="metalr1x7901" x="-5%" y="-5%" width="110%" height="110%">
    <feSpecularLighting surfaceScale="4" specularConstant="1.8"
        specularExponent="42" lighting-color="#ffffff" result="spec">
      <feDistantLight elevation="52" azimuth="38"/>
    </feSpecularLighting>
    <feComposite in="spec" in2="SourceGraphic" operator="in" result="sm"/>
    <feComposite in="SourceGraphic" in2="sm" operator="arithmetic" k1="0" k2="1" k3="0.55" k4="0"/>
  </filter>

  <!-- Sharper specular for weapons — heavier glare -->
  <filter id="wmr1x7901" x="-8%" y="-8%" width="116%" height="116%">
    <feSpecularLighting surfaceScale="6" specularConstant="2.4"
        specularExponent="65" lighting-color="#ffffff" result="spec">
      <feDistantLight elevation="44" azimuth="28"/>
    </feSpecularLighting>
    <feComposite in="spec" in2="SourceGraphic" operator="in" result="sm"/>
    <feComposite in="SourceGraphic" in2="sm" operator="arithmetic" k1="0" k2="1" k3="0.78" k4="0"/>
  </filter>

  <!-- Sketch wobble -->
  <filter id="skr1x7901" x="-8%" y="-8%" width="116%" height="116%">
    <feTurbulence type="fractalNoise" baseFrequency="0.038"
        numOctaves="3" seed="35" result="noise"/>
    <feDisplacementMap in="SourceGraphic" in2="noise" scale="2.6"
        xChannelSelector="R" yChannelSelector="G" result="w"/>
    <feComposite in="w" in2="SourceGraphic" operator="atop"/>
  </filter>

  <!-- Glow: sharp accent -->
  <filter id="glowr1x7901" x="-20%" y="-20%" width="140%" height="140%">
    <feGaussianBlur stdDeviation="3.5" result="b"/>
    <feColorMatrix in="b" type="matrix"
        values="0 0 0 0 1  0 0 0 0 1  0 0 0 0 1  0 0 0 1.8 0" result="boost"/>
    <feMerge><feMergeNode in="boost"/><feMergeNode in="SourceGraphic"/></feMerge>
  </filter>

  <!-- Bloom: wide soft -->
  <filter id="bloomr1x7901" x="-40%" y="-40%" width="180%" height="180%">
    <feGaussianBlur stdDeviation="11" result="b"/>
    <feMerge><feMergeNode in="b"/><feMergeNode in="SourceGraphic"/></feMerge>
  </filter>

  </defs><rect width="1000" height="1000" fill="url(#bgr1x7901)"/><line x1="500" y1="500" x2="1500.0" y2="500.0" stroke="#ffcc00" stroke-opacity=".048" stroke-width="5"/><line x1="500" y1="500" x2="1474.9" y2="722.5" stroke="#ffcc00" stroke-opacity=".048" stroke-width="5"/><line x1="500" y1="500" x2="1401.0" y2="933.9" stroke="#ffcc00" stroke-opacity=".048" stroke-width="5"/><line x1="500" y1="500" x2="1281.8" y2="1123.5" stroke="#ffcc00" stroke-opacity=".048" stroke-width="5"/><line x1="500" y1="500" x2="1123.5" y2="1281.8" stroke="#ffcc00" stroke-opacity=".048" stroke-width="5"/><line x1="500" y1="500" x2="933.9" y2="1401.0" stroke="#ffcc00" stroke-opacity=".048" stroke-width="5"/><line x1="500" y1="500" x2="722.5" y2="1474.9" stroke="#ffcc00" stroke-opacity=".048" stroke-width="5"/><line x1="500" y1="500" x2="500.0" y2="1500.0" stroke="#ffcc00" stroke-opacity=".048" stroke-width="5"/><line x1="500" y1="500" x2="277.5" y2="1474.9" stroke="#ffcc00" stroke-opacity=".048" stroke-width="5"/><line x1="500" y1="500" x2="66.1" y2="1401.0" stroke="#ffcc00" stroke-opacity=".048" stroke-width="5"/><line x1="500" y1="500" x2="-123.5" y2="1281.8" stroke="#ffcc00" stroke-opacity=".048" stroke-width="5"/><line x1="500" y1="500" x2="-281.8" y2="1123.5" stroke="#ffcc00" stroke-opacity=".048" stroke-width="5"/><line x1="500" y1="500" x2="-401.0" y2="933.9" stroke="#ffcc00" stroke-opacity=".048" stroke-width="5"/><line x1="500" y1="500" x2="-474.9" y2="722.5" stroke="#ffcc00" stroke-opacity=".048" stroke-width="5"/><line x1="500" y1="500" x2="-500.0" y2="500.0" stroke="#ffcc00" stroke-opacity=".048" stroke-width="5"/><line x1="500" y1="500" x2="-474.9" y2="277.5" stroke="#ffcc00" stroke-opacity=".048" stroke-width="5"/><line x1="500" y1="500" x2="-401.0" y2="66.1" stroke="#ffcc00" stroke-opacity=".048" stroke-width="5"/><line x1="500" y1="500" x2="-281.8" y2="-123.5" stroke="#ffcc00" stroke-opacity=".048" stroke-width="5"/><line x1="500" y1="500" x2="-123.5" y2="-281.8" stroke="#ffcc00" stroke-opacity=".048" stroke-width="5"/><line x1="500" y1="500" x2="66.1" y2="-401.0" stroke="#ffcc00" stroke-opacity=".048" stroke-width="5"/><line x1="500" y1="500" x2="277.5" y2="-474.9" stroke="#ffcc00" stroke-opacity=".048" stroke-width="5"/><line x1="500" y1="500" x2="500.0" y2="-500.0" stroke="#ffcc00" stroke-opacity=".048" stroke-width="5"/><line x1="500" y1="500" x2="722.5" y2="-474.9" stroke="#ffcc00" stroke-opacity=".048" stroke-width="5"/><line x1="500" y1="500" x2="933.9" y2="-401.0" stroke="#ffcc00" stroke-opacity=".048" stroke-width="5"/><line x1="500" y1="500" x2="1123.5" y2="-281.8" stroke="#ffcc00" stroke-opacity=".048" stroke-width="5"/><line x1="500" y1="500" x2="1281.8" y2="-123.5" stroke="#ffcc00" stroke-opacity=".048" stroke-width="5"/><line x1="500" y1="500" x2="1401.0" y2="66.1" stroke="#ffcc00" stroke-opacity=".048" stroke-width="5"/><line x1="500" y1="500" x2="1474.9" y2="277.5" stroke="#ffcc00" stroke-opacity=".048" stroke-width="5"/><ellipse cx="500.0" cy="892.0" rx="350.0" ry="65.0" fill="rgba(0,0,0,.7)" filter="url(#bloomr1x7901)"/><ellipse cx="500.0" cy="889.0" rx="220.0" ry="34.0" fill="rgba(0,0,0,.45)"/><polygon points="397.4,661.2 489.7,663.5 479.7,876.4 388.9,877.1" fill="url(#suitr1x7901)" stroke="#ffcc00" stroke-width="2.2" filter="url(#skr1x7901) url(#metalr1x7901)"/><polygon points="398.9,663.0 488.3,661.2 480.8,879.2 386.2,879.3" fill="url(#carbonr1x7901)"/><polygon points="392.7,724.4 493.6,722.2 483.9,787.2 384.8,788.8" fill="url(#bevelr1x7901)" fill-opacity=".5" stroke="#ffcc00" stroke-width="1.4" filter="url(#skr1x7901)"/><polygon points="509.0,660.7 600.4,661.7 613.7,876.0 520.6,877.2" fill="url(#suitr1x7901)" stroke="#ffcc00" stroke-width="2.2" filter="url(#skr1x7901) url(#metalr1x7901)"/><polygon points="512.3,661.4 600.1,661.4 613.6,878.1 518.5,877.9" fill="url(#carbonr1x7901)"/><polygon points="506.6,723.0 606.7,724.4 615.3,787.1 517.6,789.9" fill="url(#bevelr1x7901)" fill-opacity=".5" stroke="#ffcc00" stroke-width="1.4" filter="url(#skr1x7901)"/><rect x="391.8" y="840.4" width="100.3" height="24.7" fill="url(#bevelr1x7901)" stroke="#ffcc00" stroke-width="1" filter="url(#skr1x7901)"/><rect x="506.2"  y="837.0" width="100.3" height="24.7" fill="url(#bevelr1x7901)" stroke="#ffcc00" stroke-width="1" filter="url(#skr1x7901)"/><polygon points="369.4,879.1 497.1,878.0 502.7,921.5 362.0,923.0" fill="#a07000" stroke="#ffcc00" stroke-width="2" filter="url(#skr1x7901)"/><polygon points="502.9,878.8 628.7,876.4 637.1,920.8 497.2,920.1" fill="#a07000" stroke="#ffcc00" stroke-width="2" filter="url(#skr1x7901)"/><polygon points="303.8,634.1 696.9,631.3 639.0,682.4 360.8,680.9" fill="#ffcc00" fill-opacity=".52" stroke="#ffcc00" stroke-width="2" filter="url(#skr1x7901)"/><rect x="464.3" y="637.6" width="72.0" height="42.0" fill="url(#bevelr1x7901)" stroke="#ffcc00" stroke-width="1.4" filter="url(#glowr1x7901)"/><rect x="487.2" y="639.3" width="28.0" height="22.0" rx="1" fill="rgba(255,255,255,.48)"/><polygon points="153.3,466.5 235.3,465.9 258.5,734.2 126.9,733.9" fill="url(#suitr1x7901)" stroke="#ffcc00" stroke-width="2.2" filter="url(#skr1x7901) url(#metalr1x7901)"/><polygon points="172.1,431.2 254.1,432.1 241.6,510.3 159.5,509.3" fill="url(#bevelr1x7901)" fill-opacity=".72" stroke="#ffcc00" stroke-width="2.2" filter="url(#skr1x7901)"/><polygon points="161.7,622.5 244.0,621.4 239.8,662.6 164.9,662.5" fill="#ffcc00" fill-opacity=".42" stroke="#ffcc00" stroke-width="1" filter="url(#skr1x7901)"/><polygon points="766.6,467.0 847.8,465.6 870.8,735.4 741.7,734.0" fill="url(#suitr1x7901)" stroke="#ffcc00" stroke-width="2.2" filter="url(#skr1x7901) url(#metalr1x7901)"/><polygon points="748.7,431.1 826.0,431.4 839.8,510.5 755.4,510.2" fill="url(#bevelr1x7901)" fill-opacity=".72" stroke="#ffcc00" stroke-width="2.2" filter="url(#skr1x7901)"/><polygon points="758.2,621.0 839.7,620.5 833.7,659.3 761.3,660.7" fill="#ffcc00" fill-opacity=".42" stroke="#ffcc00" stroke-width="1" filter="url(#skr1x7901)"/><rect x="119.7"  y="699.8" width="135.3" height="85.0" rx="4" fill="url(#bevelr1x7901)" stroke="#ffcc00" stroke-width="1.8" filter="url(#skr1x7901)"/><rect x="747.2"   y="700.0" width="135.3" height="85.0" rx="4" fill="url(#bevelr1x7901)" stroke="#ffcc00" stroke-width="1.8" filter="url(#skr1x7901)"/><line x1="150.0" y1="702.9" x2="150.1" y2="784.3" stroke="#ffcc00" stroke-opacity=".38" stroke-width="1"/><line x1="779.4" y1="702.7" x2="779.1" y2="785.3" stroke="#ffcc00" stroke-opacity=".38" stroke-width="1"/><line x1="181.2" y1="701.6" x2="181.5" y2="782.1" stroke="#ffcc00" stroke-opacity=".38" stroke-width="1"/><line x1="811.8" y1="701.8" x2="811.5" y2="784.5" stroke="#ffcc00" stroke-opacity=".38" stroke-width="1"/><line x1="214.3" y1="702.0" x2="215.4" y2="784.1" stroke="#ffcc00" stroke-opacity=".38" stroke-width="1"/><line x1="844.3" y1="701.2" x2="843.2" y2="785.2" stroke="#ffcc00" stroke-opacity=".38" stroke-width="1"/><polygon points="233.8,417.5 764.3,417.5 723.1,661.9 275.8,661.5" fill="url(#suitr1x7901)" stroke="#ffcc00" stroke-width="2.6" filter="url(#skr1x7901) url(#metalr1x7901)"/><polygon points="236.2,416.8 763.3,417.7 723.3,662.5 275.9,661.3" fill="url(#carbonr1x7901)"/><polygon points="366.6,417.8 631.6,418.0 612.5,515.3 389.0,515.7" fill="url(#suitHir1x7901)"/><line x1="361.0" y1="471.5" x2="638.2" y2="472.2" stroke="#ffcc00" stroke-opacity=".52" stroke-width="1.3" filter="url(#skr1x7901)"/><line x1="401.0" y1="548.8" x2="599.7" y2="550.1" stroke="#ffcc00" stroke-opacity=".52" stroke-width="1.3" filter="url(#skr1x7901)"/><line x1="265.0" y1="491.6" x2="321.0" y2="490.2" stroke="#ffcc00" stroke-opacity=".62" stroke-width="1.8"/><line x1="680.8" y1="490.3" x2="732.5" y2="489.8" stroke="#ffcc00" stroke-opacity=".62" stroke-width="1.8"/><line x1="267.9" y1="522.9" x2="321.4" y2="522.7" stroke="#ffcc00" stroke-opacity=".62" stroke-width="1.8"/><line x1="680.7" y1="522.9" x2="734.2" y2="522.5" stroke="#ffcc00" stroke-opacity=".62" stroke-width="1.8"/><line x1="265.8" y1="555.5" x2="320.3" y2="556.4" stroke="#ffcc00" stroke-opacity=".62" stroke-width="1.8"/><line x1="682.0" y1="554.7" x2="732.2" y2="555.9" stroke="#ffcc00" stroke-opacity=".62" stroke-width="1.8"/><line x1="267.4" y1="588.2" x2="319.8" y2="587.2" stroke="#ffcc00" stroke-opacity=".62" stroke-width="1.8"/><line x1="681.0" y1="586.2" x2="731.8" y2="586.6" stroke="#ffcc00" stroke-opacity=".62" stroke-width="1.8"/><g filter="url(#glowr1x7901)"><path d="M500.0,449.7 C462.3,446.8 442.0,481.6 447.8,513.5 L459.4,542.5 C476.8,536.7 491.3,551.2 500.0,551.2 C508.7,551.2 523.2,536.7 540.6,542.5 L552.2,513.5 C558.0,481.6 537.7,446.8 500.0,449.7 Z" fill="#ffcc00" fill-opacity=".92" stroke="#140900" stroke-width="1.3" filter="url(#skr1x7901)"/><path d="M483.8,519.3 Q500.0,533.8 516.2,519.3" stroke="#140900" stroke-width="1" fill="none" opacity=".58"/><ellipse cx="481.4" cy="497.8" rx="8.7" ry="6.4" fill="#140900" opacity=".95"/><ellipse cx="518.6" cy="497.8" rx="8.7" ry="6.4" fill="#140900" opacity=".95"/><ellipse cx="481.4" cy="497.8" rx="2.3" ry="5.8" fill="#ffcc00"/><ellipse cx="518.6" cy="497.8" rx="2.3" ry="5.8" fill="#ffcc00"/><path d="M471.0,467.1 L458.2,426.5 L481.4,463.0" fill="#ffcc00" stroke="#140900" stroke-width=".9"/><path d="M529.0,467.1 L541.8,426.5 L518.6,463.0" fill="#ffcc00" stroke="#140900" stroke-width=".9"/><path d="M476.8,452.6 C488.4,449.1 511.6,449.1 523.2,452.6" fill="rgba(255,255,255,.18)"/></g><g><polygon points="828.9,294.4 967.1,294.8 967.0,591.7 896.5,726.9 826.7,591.6" fill="url(#titaniumr1x7901)" stroke="#ffcc00" stroke-width="2.6" filter="url(#wmr1x7901)"/><polygon points="828.6,294.5 966.5,292.4 966.4,590.6 897.2,725.6 827.2,590.1" fill="url(#carbonr1x7901)"/><polygon points="858.0,361.7 936.7,360.4 936.7,542.4 897.9,632.8 861.1,543.2" fill="#ffcc00" fill-opacity=".28" stroke="#ffcc00" stroke-width="1.5"/><line x1="846.7238657483459" y1="429.81521215159444" x2="948.399539551381" y2="432.55708154411985" stroke="#ffcc00" stroke-opacity=".65" stroke-width="1.3"/><line x1="897.8508069654555" y1="333.19482277249915" x2="896.756182162799" y2="589.855604340136" stroke="#ffcc00" stroke-opacity=".4" stroke-width="1"/><line x1="829.7503404707276" y1="296.4397921297699" x2="966.8498975347355" y2="295.7354103371501" stroke="rgba(255,255,255,.5)" stroke-width="2"/><circle cx="899.551781814415" cy="431.990944906231" r="18.0" fill="url(#bevelr1x7901)" stroke="#ffcc00" stroke-width="1.2" filter="url(#wmr1x7901)"/></g><rect x="448.5881136998534" y="558.1362127701751" width="100.0"  height="56.0" fill="#a07000" stroke="#ffcc00" stroke-width="2.2" filter="url(#skr1x7901)"/><rect x="423.95206811185926" y="576.1235920874402" width="152.0" height="26.0" fill="url(#bevelr1x7901)" fill-opacity=".65" stroke="#ffcc00" stroke-width="1.2" filter="url(#skr1x7901)"/><polygon points="307.3,381.4 351.2,294.0 499.7,279.0 650.8,294.7 693.5,381.7 667.2,502.3 499.4,563.8 331.9,503.3" fill="url(#suitr1x7901)" stroke="#ffcc00" stroke-width="2.8" filter="url(#skr1x7901) url(#metalr1x7901)"/><polygon points="307.1,381.8 351.3,293.2 498.5,277.6 650.7,292.7 693.2,381.3 669.9,502.1 500.0,564.6 331.7,504.0" fill="url(#carbonr1x7901)"/><polygon points="381.2,301.2 500.5,287.3 620.0,303.4 607.1,380.7 392.9,381.7" fill="url(#suitHir1x7901)"/><polygon points="379.2,380.0 367.3,427.3 432.7,501.9 500.8,528.9 568.9,501.9 632.7,424.5 618.8,381.5" fill="#140900" fill-opacity=".88" stroke="#ffcc00" stroke-width="1.8" filter="url(#skr1x7901)"/><polygon points="382.3,410.0 476.1,409.7 485.8,440.2 388.6,441.5" fill="#ffcc00" filter="url(#glowr1x7901)"/><polygon points="524.1,410.0 620.8,410.3 611.5,439.8 513.8,439.0" fill="#ffcc00" filter="url(#glowr1x7901)"/><ellipse cx="430.9" cy="425.7" rx="38.4"  ry="8.2" fill="#ffffff" opacity=".88"/><ellipse cx="569.1" cy="425.7" rx="38.4"  ry="8.2" fill="#ffffff" opacity=".88"/><line x1="483.32627121997996" y1="414.42748535005376" x2="516.2845453095995" y2="413.3079423269257" stroke="#ffcc00" stroke-opacity=".52" stroke-width="2"/><line x1="483.7951653398201" y1="438.70647493908183" x2="515.4407705888525" y2="437.87134280707687" stroke="#ffcc00" stroke-opacity=".52" stroke-width="2"/><line x1="501.55028972867876" y1="453.66748429993163" x2="501.7715468409471" y2="481.6484725382179" stroke="#ffcc00" stroke-opacity=".58" stroke-width="2.2" filter="url(#skr1x7901)"/><line x1="452.2495727197081" y1="492.26906158896156" x2="454.2549240098149" y2="518.6855087693781" stroke="#ffcc00" stroke-opacity=".52" stroke-width="1.5" filter="url(#skr1x7901)"/><line x1="475.44661859054116" y1="490.4414571520872" x2="477.3464894286729" y2="520.9464437901973" stroke="#ffcc00" stroke-opacity=".52" stroke-width="1.5" filter="url(#skr1x7901)"/><line x1="501.4992472508922" y1="493.0682553295977" x2="501.4260893504135" y2="520.9739334335551" stroke="#ffcc00" stroke-opacity=".52" stroke-width="1.5" filter="url(#skr1x7901)"/><line x1="524.7729867327586" y1="489.9976359080523" x2="523.3686579999141" y2="520.797833250463" stroke="#ffcc00" stroke-opacity=".52" stroke-width="1.5" filter="url(#skr1x7901)"/><line x1="545.5940877501108" y1="490.5059713389724" x2="544.4292160039954" y2="519.1898803362623" stroke="#ffcc00" stroke-opacity=".52" stroke-width="1.5" filter="url(#skr1x7901)"/><polygon points="434.4,504.0 565.7,504.5 555.0,556.3 445.3,556.0" fill="#a07000" fill-opacity=".72" stroke="#ffcc00" stroke-width="1.3" filter="url(#skr1x7901)"/><polygon points="477.4,303.6 522.5,302.7 513.0,175.2 487.2,174.1" fill="url(#bevelr1x7901)" stroke="#ffcc00" stroke-width="2.2" filter="url(#skr1x7901)"/><polygon points="365.2,322.5 458.9,321.5 470.9,227.7" fill="url(#bevelr1x7901)" fill-opacity=".78" stroke="#ffcc00" stroke-width="1.5" filter="url(#skr1x7901)"/><polygon points="541.1,321.8 635.4,323.1 531.2,230.4" fill="url(#bevelr1x7901)" fill-opacity=".78" stroke="#ffcc00" stroke-width="1.5" filter="url(#skr1x7901)"/><text x="30.0"  y="975.0" font-family="monospace" font-weight="bold" font-size="22.0" fill="rgba(255,255,255,.22)">#0001</text><text x="500.0"   y="975.0" text-anchor="middle" font-family="monospace" font-weight="bold" font-size="22.0" fill="#ffcc00" fill-opacity=".48">NOVA RANGER</text><text x="970.0" y="975.0" text-anchor="end"    font-family="monospace" font-weight="bold" font-size="22.0" fill="#ffcc00" fill-opacity=".32">MECH RANGERS</text></svg>