<svg xmlns="http://www.w3.org/2000/svg" viewBox="0 0 1000 1000" width="1000" height="1000" shape-rendering="geometricPrecision"><defs>

  <!-- Scene gradients -->
  <radialGradient id="bgr1x7916" cx="50%" cy="42%" r="72%">
    <stop offset="0%"   stop-color="#1a2814"/>
    <stop offset="100%" stop-color="#0d1520"/>
  </radialGradient>
  <linearGradient id="suitr1x7916" x1="8%" y1="0%" x2="92%" y2="100%">
    <stop offset="0%"   stop-color="#ffcc00" stop-opacity=".95"/>
    <stop offset="45%"  stop-color="#a07000"/>
    <stop offset="100%" stop-color="#0d1520"/>
  </linearGradient>
  <linearGradient id="suitHir1x7916" x1="0%" y1="0%" x2="0%" y2="100%">
    <stop offset="0%"   stop-color="rgba(255,255,255,.28)"/>
    <stop offset="60%"  stop-color="rgba(255,255,255,.04)"/>
    <stop offset="100%" stop-color="rgba(255,255,255,0)"/>
  </linearGradient>
  <!-- Bevel: bright top, dark bottom for armour panels -->
  <linearGradient id="bevelr1x7916" x1="0%" y1="0%" x2="0%" y2="100%">
    <stop offset="0%"   stop-color="rgba(255,255,255,.55)"/>
    <stop offset="30%"  stop-color="#ffcc00"/>
    <stop offset="70%"  stop-color="#a07000"/>
    <stop offset="100%" stop-color="rgba(0,0,0,.5)"/>
  </linearGradient>

  <!-- Weapon: cold steel blade sweep -->
  <linearGradient id="blader1x7916" x1="0%" y1="0%" x2="100%" y2="0%">
    <stop offset="0%"   stop-color="#0e0e20"/>
    <stop offset="16%"  stop-color="#3e3e58"/>
    <stop offset="34%"  stop-color="#c8c8e0"/>
    <stop offset="50%"  stop-color="#f5f5ff"/>
    <stop offset="66%"  stop-color="#b8b8d0"/>
    <stop offset="84%"  stop-color="#2e2e48"/>
    <stop offset="100%" stop-color="#08080e"/>
  </linearGradient>
  <!-- Blade tip brightening -->
  <linearGradient id="bladeTipr1x7916" x1="0%" y1="100%" x2="0%" y2="0%">
    <stop offset="0%"   stop-color="rgba(255,255,255,0)"/>
    <stop offset="55%"  stop-color="rgba(255,255,255,.1)"/>
    <stop offset="100%" stop-color="rgba(255,255,255,.55)"/>
  </linearGradient>
  <!-- Gunmetal anodised — blaster body -->
  <linearGradient id="gunmetalr1x7916" x1="0%" y1="0%" x2="0%" y2="100%">
    <stop offset="0%"   stop-color="#46465e"/>
    <stop offset="18%"  stop-color="#828296"/>
    <stop offset="42%"  stop-color="#26263a"/>
    <stop offset="72%"  stop-color="#16162a"/>
    <stop offset="100%" stop-color="#0c0c18"/>
  </linearGradient>
  <!-- Brushed steel tube — barrel/rod -->
  <linearGradient id="barrelr1x7916" x1="0%" y1="0%" x2="100%" y2="0%">
    <stop offset="0%"   stop-color="#0a0a14"/>
    <stop offset="24%"  stop-color="#585875"/>
    <stop offset="50%"  stop-color="#a8a8c8"/>
    <stop offset="76%"  stop-color="#383852"/>
    <stop offset="100%" stop-color="#0a0a14"/>
  </linearGradient>
  <!-- Chrome rod — lance shaft -->
  <linearGradient id="chromer1x7916" x1="0%" y1="0%" x2="100%" y2="0%">
    <stop offset="0%"   stop-color="#0c0c18"/>
    <stop offset="20%"  stop-color="#686888"/>
    <stop offset="44%"  stop-color="#e0e0f0"/>
    <stop offset="56%"  stop-color="#c0c0d8"/>
    <stop offset="80%"  stop-color="#28283e"/>
    <stop offset="100%" stop-color="#0c0c18"/>
  </linearGradient>
  <!-- Titanium plate — shield face -->
  <linearGradient id="titaniumr1x7916" x1="0%" y1="0%" x2="100%" y2="100%">
    <stop offset="0%"   stop-color="#585878"/>
    <stop offset="28%"  stop-color="#ffcc00" stop-opacity=".88"/>
    <stop offset="55%"  stop-color="#a07000"/>
    <stop offset="80%"  stop-color="#181828"/>
    <stop offset="100%" stop-color="#0a0a18"/>
  </linearGradient>
  <!-- Artillery black-chrome — cannon body -->
  <linearGradient id="artilleryr1x7916" x1="0%" y1="0%" x2="0%" y2="100%">
    <stop offset="0%"   stop-color="#383850"/>
    <stop offset="14%"  stop-color="#78789a"/>
    <stop offset="36%"  stop-color="#202034"/>
    <stop offset="65%"  stop-color="#14141e"/>
    <stop offset="100%" stop-color="#0a0a12"/>
  </linearGradient>
  <!-- Energy orb — staff -->
  <radialGradient id="orbr1x7916" cx="35%" cy="35%" r="65%">
    <stop offset="0%"   stop-color="rgba(255,255,255,.9)"/>
    <stop offset="30%"  stop-color="#ffcc00"/>
    <stop offset="68%"  stop-color="#a07000"/>
    <stop offset="100%" stop-color="rgba(0,0,0,.6)"/>
  </radialGradient>
  <!-- Knuckle plate chrome -->
  <linearGradient id="knuckler1x7916" x1="0%" y1="0%" x2="0%" y2="100%">
    <stop offset="0%"   stop-color="#888aaa"/>
    <stop offset="32%"  stop-color="#ffcc00" stop-opacity=".8"/>
    <stop offset="62%"  stop-color="#1a1a2c"/>
    <stop offset="100%" stop-color="#0a0a14"/>
  </linearGradient>

  <!-- Carbon fibre weave texture overlay -->
  <pattern id="carbonr1x7916" width="6" height="6" patternUnits="userSpaceOnUse">
    <rect width="6" height="6" fill="rgba(0,0,0,.08)"/>
    <rect x="0" y="0" width="3" height="3" fill="rgba(255,255,255,.022)"/>
    <rect x="3" y="3" width="3" height="3" fill="rgba(255,255,255,.022)"/>
    <line x1="0" y1="0" x2="3" y2="3" stroke="rgba(255,255,255,.038)" stroke-width=".5"/>
    <line x1="3" y1="0" x2="6" y2="3" stroke="rgba(0,0,0,.055)"       stroke-width=".5"/>
    <line x1="0" y1="3" x2="3" y2="6" stroke="rgba(0,0,0,.055)"       stroke-width=".5"/>
    <line x1="3" y1="3" x2="6" y2="6" stroke="rgba(255,255,255,.038)" stroke-width=".5"/>
  </pattern>

  <!-- Specular metal sheen on armour panels -->
  <filter id="metalr1x7916" x="-5%" y="-5%" width="110%" height="110%">
    <feSpecularLighting surfaceScale="4" specularConstant="1.8"
        specularExponent="42" lighting-color="#ffffff" result="spec">
      <feDistantLight elevation="52" azimuth="38"/>
    </feSpecularLighting>
    <feComposite in="spec" in2="SourceGraphic" operator="in" result="sm"/>
    <feComposite in="SourceGraphic" in2="sm" operator="arithmetic" k1="0" k2="1" k3="0.55" k4="0"/>
  </filter>

  <!-- Sharper specular for weapons — heavier glare -->
  <filter id="wmr1x7916" x="-8%" y="-8%" width="116%" height="116%">
    <feSpecularLighting surfaceScale="6" specularConstant="2.4"
        specularExponent="65" lighting-color="#ffffff" result="spec">
      <feDistantLight elevation="44" azimuth="28"/>
    </feSpecularLighting>
    <feComposite in="spec" in2="SourceGraphic" operator="in" result="sm"/>
    <feComposite in="SourceGraphic" in2="sm" operator="arithmetic" k1="0" k2="1" k3="0.78" k4="0"/>
  </filter>

  <!-- Sketch wobble -->
  <filter id="skr1x7916" x="-8%" y="-8%" width="116%" height="116%">
    <feTurbulence type="fractalNoise" baseFrequency="0.038"
        numOctaves="3" seed="12" result="noise"/>
    <feDisplacementMap in="SourceGraphic" in2="noise" scale="2.6"
        xChannelSelector="R" yChannelSelector="G" result="w"/>
    <feComposite in="w" in2="SourceGraphic" operator="atop"/>
  </filter>

  <!-- Glow: sharp accent -->
  <filter id="glowr1x7916" x="-20%" y="-20%" width="140%" height="140%">
    <feGaussianBlur stdDeviation="3.5" result="b"/>
    <feColorMatrix in="b" type="matrix"
        values="0 0 0 0 1  0 0 0 0 1  0 0 0 0 1  0 0 0 1.8 0" result="boost"/>
    <feMerge><feMergeNode in="boost"/><feMergeNode in="SourceGraphic"/></feMerge>
  </filter>

  <!-- Bloom: wide soft -->
  <filter id="bloomr1x7916" x="-40%" y="-40%" width="180%" height="180%">
    <feGaussianBlur stdDeviation="11" result="b"/>
    <feMerge><feMergeNode in="b"/><feMergeNode in="SourceGraphic"/></feMerge>
  </filter>

  </defs><rect width="1000" height="1000" fill="url(#bgr1x7916)"/><ellipse cx="500.0" cy="892.0" rx="350.0" ry="65.0" fill="rgba(0,0,0,.7)" filter="url(#bloomr1x7916)"/><ellipse cx="500.0" cy="889.0" rx="220.0" ry="34.0" fill="rgba(0,0,0,.45)"/><ellipse cx="500.0" cy="520.0" rx="320.0" ry="480.0" fill="#ff6600" fill-opacity=".042" filter="url(#bloomr1x7916)"/><circle cx="372.7" cy="675.4" r="0.9" fill="#ff6600" fill-opacity="0.59" filter="url(#glowr1x7916)"/><circle cx="263.0" cy="609.2" r="3.0" fill="#ff6600" fill-opacity="0.77" filter="url(#glowr1x7916)"/><circle cx="276.1" cy="274.9" r="1.9" fill="#ff6600" fill-opacity="0.40" filter="url(#glowr1x7916)"/><circle cx="319.9" cy="748.5" r="2.4" fill="#ff6600" fill-opacity="0.62" filter="url(#glowr1x7916)"/><circle cx="413.1" cy="492.7" r="4.0" fill="#ff6600" fill-opacity="0.44" filter="url(#glowr1x7916)"/><circle cx="402.2" cy="225.0" r="0.7" fill="#ff6600" fill-opacity="0.76" filter="url(#glowr1x7916)"/><circle cx="292.7" cy="658.7" r="2.6" fill="#ff6600" fill-opacity="0.40" filter="url(#glowr1x7916)"/><circle cx="720.4" cy="346.3" r="1.2" fill="#ff6600" fill-opacity="0.83" filter="url(#glowr1x7916)"/><circle cx="639.4" cy="189.4" r="2.9" fill="#ff6600" fill-opacity="0.89" filter="url(#glowr1x7916)"/><circle cx="642.3" cy="690.2" r="3.9" fill="#ff6600" fill-opacity="0.89" filter="url(#glowr1x7916)"/><circle cx="647.0" cy="442.8" r="3.9" fill="#ff6600" fill-opacity="0.83" filter="url(#glowr1x7916)"/><circle cx="612.1" cy="301.4" r="2.4" fill="#ff6600" fill-opacity="0.74" filter="url(#glowr1x7916)"/><circle cx="620.8" cy="215.9" r="3.8" fill="#ff6600" fill-opacity="0.77" filter="url(#glowr1x7916)"/><circle cx="262.4" cy="200.5" r="3.8" fill="#ff6600" fill-opacity="0.72" filter="url(#glowr1x7916)"/><polygon points="398.5,664.0 488.9,662.2 481.0,878.0 385.8,876.3" fill="url(#suitr1x7916)" stroke="#ffcc00" stroke-width="2.2" filter="url(#skr1x7916) url(#metalr1x7916)"/><polygon points="397.9,661.2 489.3,662.7 480.7,876.4 388.5,878.8" fill="url(#carbonr1x7916)"/><polygon points="394.1,724.9 491.3,722.5 485.5,786.6 385.1,786.5" fill="url(#bevelr1x7916)" fill-opacity=".5" stroke="#ffcc00" stroke-width="1.4" filter="url(#skr1x7916)"/><polygon points="511.9,662.4 600.2,660.7 613.3,875.9 520.1,876.5" fill="url(#suitr1x7916)" stroke="#ffcc00" stroke-width="2.2" filter="url(#skr1x7916) url(#metalr1x7916)"/><polygon points="509.0,661.6 602.3,660.8 613.8,879.2 519.2,878.9" fill="url(#carbonr1x7916)"/><polygon points="506.5,723.1 606.5,723.3 616.0,786.9 515.5,788.7" fill="url(#bevelr1x7916)" fill-opacity=".5" stroke="#ffcc00" stroke-width="1.4" filter="url(#skr1x7916)"/><rect x="392.6" y="837.4" width="100.3" height="24.7" fill="url(#bevelr1x7916)" stroke="#ffcc00" stroke-width="1" filter="url(#skr1x7916)"/><rect x="506.0"  y="840.5" width="100.3" height="24.7" fill="url(#bevelr1x7916)" stroke="#ffcc00" stroke-width="1" filter="url(#skr1x7916)"/><polygon points="370.7,878.9 497.0,877.9 503.8,923.0 363.6,920.1" fill="#a07000" stroke="#ffcc00" stroke-width="2" filter="url(#skr1x7916)"/><polygon points="503.6,876.9 631.3,876.9 636.3,919.8 494.7,921.9" fill="#a07000" stroke="#ffcc00" stroke-width="2" filter="url(#skr1x7916)"/><polygon points="303.7,633.5 697.2,633.2 639.5,682.2 362.3,681.6" fill="#ffcc00" fill-opacity=".52" stroke="#ffcc00" stroke-width="2" filter="url(#skr1x7916)"/><rect x="463.2" y="637.1" width="72.0" height="42.0" fill="url(#bevelr1x7916)" stroke="#ffcc00" stroke-width="1.4" filter="url(#glowr1x7916)"/><rect x="487.2" y="641.7" width="28.0" height="22.0" rx="1" fill="rgba(255,255,255,.48)"/><polygon points="153.6,466.2 234.9,466.6 257.0,733.9 126.6,735.8" fill="url(#suitr1x7916)" stroke="#ffcc00" stroke-width="2.2" filter="url(#skr1x7916) url(#metalr1x7916)"/><polygon points="172.8,433.7 251.5,433.6 244.4,510.9 159.8,509.9" fill="url(#bevelr1x7916)" fill-opacity=".72" stroke="#ffcc00" stroke-width="2.2" filter="url(#skr1x7916)"/><polygon points="161.5,623.5 242.3,622.4 238.9,661.2 163.5,661.4" fill="#ffcc00" fill-opacity=".42" stroke="#ffcc00" stroke-width="1" filter="url(#skr1x7916)"/><polygon points="764.4,466.9 847.1,468.3 872.4,736.3 741.1,736.3" fill="url(#suitr1x7916)" stroke="#ffcc00" stroke-width="2.2" filter="url(#skr1x7916) url(#metalr1x7916)"/><polygon points="746.2,431.4 826.4,433.3 839.9,510.8 758.2,512.2" fill="url(#bevelr1x7916)" fill-opacity=".72" stroke="#ffcc00" stroke-width="2.2" filter="url(#skr1x7916)"/><polygon points="757.9,622.4 839.0,622.4 834.2,659.6 760.2,662.3" fill="#ffcc00" fill-opacity=".42" stroke="#ffcc00" stroke-width="1" filter="url(#skr1x7916)"/><rect x="120.5"  y="701.5" width="135.3" height="85.0" rx="4" fill="url(#bevelr1x7916)" stroke="#ffcc00" stroke-width="1.8" filter="url(#skr1x7916)"/><rect x="747.2"   y="698.8" width="135.3" height="85.0" rx="4" fill="url(#bevelr1x7916)" stroke="#ffcc00" stroke-width="1.8" filter="url(#skr1x7916)"/><line x1="149.0" y1="702.4" x2="151.0" y2="783.6" stroke="#ffcc00" stroke-opacity=".38" stroke-width="1"/><line x1="776.4" y1="703.5" x2="779.5" y2="785.6" stroke="#ffcc00" stroke-opacity=".38" stroke-width="1"/><line x1="182.4" y1="702.6" x2="181.5" y2="784.9" stroke="#ffcc00" stroke-opacity=".38" stroke-width="1"/><line x1="811.7" y1="703.6" x2="811.0" y2="784.9" stroke="#ffcc00" stroke-opacity=".38" stroke-width="1"/><line x1="213.7" y1="700.5" x2="214.3" y2="782.9" stroke="#ffcc00" stroke-opacity=".38" stroke-width="1"/><line x1="844.2" y1="702.7" x2="845.5" y2="785.4" stroke="#ffcc00" stroke-opacity=".38" stroke-width="1"/><polygon points="235.9,417.2 766.7,416.9 723.7,662.1 275.9,661.6" fill="url(#suitr1x7916)" stroke="#ffcc00" stroke-width="2.6" filter="url(#skr1x7916) url(#metalr1x7916)"/><polygon points="235.7,417.4 765.8,416.6 721.7,662.9 276.9,660.9" fill="url(#carbonr1x7916)"/><polygon points="365.7,416.2 634.1,416.4 611.9,515.2 388.3,516.7" fill="url(#suitHir1x7916)"/><line x1="362.8" y1="471.1" x2="637.6" y2="469.6" stroke="#ffcc00" stroke-opacity=".52" stroke-width="1.3" filter="url(#skr1x7916)"/><line x1="399.3" y1="550.2" x2="599.5" y2="551.6" stroke="#ffcc00" stroke-opacity=".52" stroke-width="1.3" filter="url(#skr1x7916)"/><line x1="268.1" y1="490.2" x2="318.6" y2="491.7" stroke="#ffcc00" stroke-opacity=".62" stroke-width="1.8"/><line x1="680.2" y1="489.2" x2="732.4" y2="492.1" stroke="#ffcc00" stroke-opacity=".62" stroke-width="1.8"/><line x1="266.1" y1="521.8" x2="321.5" y2="521.8" stroke="#ffcc00" stroke-opacity=".62" stroke-width="1.8"/><line x1="678.5" y1="524.2" x2="732.6" y2="523.0" stroke="#ffcc00" stroke-opacity=".62" stroke-width="1.8"/><line x1="268.4" y1="553.3" x2="321.3" y2="553.4" stroke="#ffcc00" stroke-opacity=".62" stroke-width="1.8"/><line x1="681.3" y1="554.6" x2="734.9" y2="555.9" stroke="#ffcc00" stroke-opacity=".62" stroke-width="1.8"/><line x1="266.3" y1="588.2" x2="321.3" y2="586.3" stroke="#ffcc00" stroke-opacity=".62" stroke-width="1.8"/><line x1="679.6" y1="585.4" x2="734.7" y2="588.0" stroke="#ffcc00" stroke-opacity=".62" stroke-width="1.8"/><g filter="url(#glowr1x7916)"><circle cx="500.9" cy="500.3" r="31.3" fill="#ffcc00" stroke="#0d1520" stroke-width="1.4" filter="url(#skr1x7916)"/><circle cx="487.4" cy="496.2" r="7.0" fill="#0d1520"/><circle cx="510.5" cy="497.7" r="7.0" fill="#0d1520"/><rect x="485.5" y="521.0" width="9.3" height="17.4" rx="1" fill="#ffcc00" stroke="#0d1520" stroke-width=".6"/><rect x="496.9" y="523.2" width="9.3" height="17.4" rx="1" fill="#ffcc00" stroke="#0d1520" stroke-width=".6"/><rect x="506.3" y="522.3" width="9.3" height="17.4" rx="1" fill="#ffcc00" stroke="#0d1520" stroke-width=".6"/></g><g><rect x="34.972582965940205" y="422.966048647929" width="148.0" height="82.0" rx="5" fill="url(#gunmetalr1x7916)" stroke="#ffcc00" stroke-width="2" filter="url(#wmr1x7916)"/><rect x="34.31782452533018" y="421.8645071532577" width="148.0" height="82.0" rx="5" fill="url(#carbonr1x7916)"/><rect x="43.56588915823024" y="401.71869375873354" width="90.0" height="22.0" rx="3" fill="url(#barrelr1x7916)" stroke="#ffcc00" stroke-width="1" filter="url(#wmr1x7916)"/><circle cx="80.7292325526848" cy="415.61396394781764" r="15.0" fill="#ffcc00" opacity=".8" filter="url(#glowr1x7916)"/><circle cx="81.3350866484828" cy="414.7127341147512" r="6.0" fill="rgba(255,255,255,.9)"/><rect x="53.924082882087646" y="455.9963462314568" width="78.0" height="36.0" rx="5" fill="url(#barrelr1x7916)" stroke="#ffcc00" stroke-width="1.2" filter="url(#wmr1x7916)"/><circle cx="-19.94117694232616" cy="470.0534524497576" r="18.0" fill="#ffcc00" filter="url(#glowr1x7916)" opacity=".88"/><circle cx="-19.467177571225943" cy="472.129599037487" r="7.0" fill="#ffffff"/><rect x="77.12214654836801" y="501.16928899195045" width="44.0" height="42.0" rx="3" fill="url(#gunmetalr1x7916)" stroke="#ffcc00" stroke-width="1" filter="url(#wmr1x7916)"/><rect x="38.040612408183485" y="424.0967527930625" width="90.0" height="10.0" rx="2" fill="rgba(255,255,255,.22)"/><line x1="60.39387690084052" y1="486.6102188867517" x2="62.63603658847508" y2="518.6226740647107" stroke="#ffcc00" stroke-opacity=".5" stroke-width="1.2"/><line x1="78.65370960080993" y1="485.96206217892467" x2="77.68552803792056" y2="520.4062891061418" stroke="#ffcc00" stroke-opacity=".5" stroke-width="1.2"/><line x1="93.58666491325941" y1="487.90649670865383" x2="92.99046614211049" y2="518.4423323100433" stroke="#ffcc00" stroke-opacity=".5" stroke-width="1.2"/></g><rect x="449.17530815787615" y="556.7591494916006" width="100.0"  height="56.0" fill="#a07000" stroke="#ffcc00" stroke-width="2.2" filter="url(#skr1x7916)"/><rect x="422.679777618777" y="576.9870297446847" width="152.0" height="26.0" fill="url(#bevelr1x7916)" fill-opacity=".65" stroke="#ffcc00" stroke-width="1.2" filter="url(#skr1x7916)"/><polygon points="308.0,379.9 351.5,293.5 500.1,279.2 648.2,293.5 692.6,381.1 668.2,503.9 498.7,566.4 332.5,503.5" fill="url(#suitr1x7916)" stroke="#ffcc00" stroke-width="2.8" filter="url(#skr1x7916) url(#metalr1x7916)"/><polygon points="308.0,381.9 351.3,295.8 501.3,277.5 651.3,296.0 692.7,380.9 669.7,503.0 499.3,566.9 329.8,504.1" fill="url(#carbonr1x7916)"/><polygon points="380.1,304.1 498.7,285.2 620.1,301.1 608.5,379.1 394.2,382.4" fill="url(#suitHir1x7916)"/><polygon points="380.7,381.9 365.2,424.9 432.7,502.1 500.1,527.3 567.2,503.4 635.7,426.4 620.3,379.4" fill="#0d1520" fill-opacity=".88" stroke="#ffcc00" stroke-width="1.8" filter="url(#skr1x7916)"/><polygon points="379.5,411.4 476.2,411.6 485.4,439.8 387.7,440.0" fill="#ffcc00" filter="url(#glowr1x7916)"/><polygon points="521.8,412.4 620.7,409.6 610.6,440.0 514.5,439.9" fill="#ffcc00" filter="url(#glowr1x7916)"/><ellipse cx="430.9" cy="425.7" rx="38.4"  ry="8.2" fill="#ffffff" opacity=".88"/><ellipse cx="569.1" cy="425.7" rx="38.4"  ry="8.2" fill="#ffffff" opacity=".88"/><line x1="483.68559481414036" y1="414.74173030871896" x2="516.4428873076477" y2="412.33451554505154" stroke="#ffcc00" stroke-opacity=".52" stroke-width="2"/><line x1="483.16595244478435" y1="437.69623887604104" x2="514.161643531397" y2="437.0056978636421" stroke="#ffcc00" stroke-opacity=".52" stroke-width="2"/><line x1="499.46415621479974" y1="455.39575259033586" x2="500.0199922430329" y2="481.63985131075606" stroke="#ffcc00" stroke-opacity=".58" stroke-width="2.2" filter="url(#skr1x7916)"/><line x1="453.74200274579226" y1="490.59690808253356" x2="455.5780303407274" y2="520.619113608636" stroke="#ffcc00" stroke-opacity=".52" stroke-width="1.5" filter="url(#skr1x7916)"/><line x1="477.0327186032571" y1="491.0327273130416" x2="478.5537822616659" y2="521.0145655951462" stroke="#ffcc00" stroke-opacity=".52" stroke-width="1.5" filter="url(#skr1x7916)"/><line x1="498.51853375807406" y1="493.07973552616306" x2="500.6565140754916" y2="519.78968283711" stroke="#ffcc00" stroke-opacity=".52" stroke-width="1.5" filter="url(#skr1x7916)"/><line x1="521.5046050565876" y1="491.81446583922946" x2="524.0303147962875" y2="518.3418701518327" stroke="#ffcc00" stroke-opacity=".52" stroke-width="1.5" filter="url(#skr1x7916)"/><line x1="545.0505491246656" y1="490.1476359728723" x2="545.1437743566186" y2="518.6623082732782" stroke="#ffcc00" stroke-opacity=".52" stroke-width="1.5" filter="url(#skr1x7916)"/><polygon points="432.7,504.6 566.3,503.2 553.8,558.4 447.0,556.3" fill="#a07000" fill-opacity=".72" stroke="#ffcc00" stroke-width="1.3" filter="url(#skr1x7916)"/><polygon points="475.7,303.3 523.5,303.7 511.5,176.8 490.0,173.9" fill="url(#bevelr1x7916)" stroke="#ffcc00" stroke-width="2.2" filter="url(#skr1x7916)"/><polygon points="366.4,323.2 457.6,323.4 467.7,227.7" fill="url(#bevelr1x7916)" fill-opacity=".78" stroke="#ffcc00" stroke-width="1.5" filter="url(#skr1x7916)"/><polygon points="543.0,324.4 632.8,323.9 531.1,230.1" fill="url(#bevelr1x7916)" fill-opacity=".78" stroke="#ffcc00" stroke-width="1.5" filter="url(#skr1x7916)"/><text x="30.0"  y="975.0" font-family="monospace" font-weight="bold" font-size="22.0" fill="rgba(255,255,255,.22)">#0001</text><text x="500.0"   y="975.0" text-anchor="middle" font-family="monospace" font-weight="bold" font-size="22.0" fill="#ffcc00" fill-opacity=".48">NOVA RANGER</text><text x="970.0" y="975.0" text-anchor="end"    font-family="monospace" font-weight="bold" font-size="22.0" fill="#ffcc00" fill-opacity=".32">MECH RANGERS</text></svg>