<svg xmlns="http://www.w3.org/2000/svg" viewBox="0 0 1000 1000" width="1000" height="1000" shape-rendering="geometricPrecision"><defs>

  <!-- Scene gradients -->
  <radialGradient id="bgr1x7994" cx="50%" cy="42%" r="72%">
    <stop offset="0%"   stop-color="#0a0a14"/>
    <stop offset="100%" stop-color="#050508"/>
  </radialGradient>
  <linearGradient id="suitr1x7994" x1="8%" y1="0%" x2="92%" y2="100%">
    <stop offset="0%"   stop-color="#4444ff" stop-opacity=".95"/>
    <stop offset="45%"  stop-color="#141428"/>
    <stop offset="100%" stop-color="#050508"/>
  </linearGradient>
  <linearGradient id="suitHir1x7994" x1="0%" y1="0%" x2="0%" y2="100%">
    <stop offset="0%"   stop-color="rgba(255,255,255,.28)"/>
    <stop offset="60%"  stop-color="rgba(255,255,255,.04)"/>
    <stop offset="100%" stop-color="rgba(255,255,255,0)"/>
  </linearGradient>
  <!-- Bevel: bright top, dark bottom for armour panels -->
  <linearGradient id="bevelr1x7994" x1="0%" y1="0%" x2="0%" y2="100%">
    <stop offset="0%"   stop-color="rgba(255,255,255,.55)"/>
    <stop offset="30%"  stop-color="#4444ff"/>
    <stop offset="70%"  stop-color="#141428"/>
    <stop offset="100%" stop-color="rgba(0,0,0,.5)"/>
  </linearGradient>

  <!-- Weapon: cold steel blade sweep -->
  <linearGradient id="blader1x7994" x1="0%" y1="0%" x2="100%" y2="0%">
    <stop offset="0%"   stop-color="#0e0e20"/>
    <stop offset="16%"  stop-color="#3e3e58"/>
    <stop offset="34%"  stop-color="#c8c8e0"/>
    <stop offset="50%"  stop-color="#f5f5ff"/>
    <stop offset="66%"  stop-color="#b8b8d0"/>
    <stop offset="84%"  stop-color="#2e2e48"/>
    <stop offset="100%" stop-color="#08080e"/>
  </linearGradient>
  <!-- Blade tip brightening -->
  <linearGradient id="bladeTipr1x7994" x1="0%" y1="100%" x2="0%" y2="0%">
    <stop offset="0%"   stop-color="rgba(255,255,255,0)"/>
    <stop offset="55%"  stop-color="rgba(255,255,255,.1)"/>
    <stop offset="100%" stop-color="rgba(255,255,255,.55)"/>
  </linearGradient>
  <!-- Gunmetal anodised — blaster body -->
  <linearGradient id="gunmetalr1x7994" x1="0%" y1="0%" x2="0%" y2="100%">
    <stop offset="0%"   stop-color="#46465e"/>
    <stop offset="18%"  stop-color="#828296"/>
    <stop offset="42%"  stop-color="#26263a"/>
    <stop offset="72%"  stop-color="#16162a"/>
    <stop offset="100%" stop-color="#0c0c18"/>
  </linearGradient>
  <!-- Brushed steel tube — barrel/rod -->
  <linearGradient id="barrelr1x7994" x1="0%" y1="0%" x2="100%" y2="0%">
    <stop offset="0%"   stop-color="#0a0a14"/>
    <stop offset="24%"  stop-color="#585875"/>
    <stop offset="50%"  stop-color="#a8a8c8"/>
    <stop offset="76%"  stop-color="#383852"/>
    <stop offset="100%" stop-color="#0a0a14"/>
  </linearGradient>
  <!-- Chrome rod — lance shaft -->
  <linearGradient id="chromer1x7994" x1="0%" y1="0%" x2="100%" y2="0%">
    <stop offset="0%"   stop-color="#0c0c18"/>
    <stop offset="20%"  stop-color="#686888"/>
    <stop offset="44%"  stop-color="#e0e0f0"/>
    <stop offset="56%"  stop-color="#c0c0d8"/>
    <stop offset="80%"  stop-color="#28283e"/>
    <stop offset="100%" stop-color="#0c0c18"/>
  </linearGradient>
  <!-- Titanium plate — shield face -->
  <linearGradient id="titaniumr1x7994" x1="0%" y1="0%" x2="100%" y2="100%">
    <stop offset="0%"   stop-color="#585878"/>
    <stop offset="28%"  stop-color="#4444ff" stop-opacity=".88"/>
    <stop offset="55%"  stop-color="#141428"/>
    <stop offset="80%"  stop-color="#181828"/>
    <stop offset="100%" stop-color="#0a0a18"/>
  </linearGradient>
  <!-- Artillery black-chrome — cannon body -->
  <linearGradient id="artilleryr1x7994" x1="0%" y1="0%" x2="0%" y2="100%">
    <stop offset="0%"   stop-color="#383850"/>
    <stop offset="14%"  stop-color="#78789a"/>
    <stop offset="36%"  stop-color="#202034"/>
    <stop offset="65%"  stop-color="#14141e"/>
    <stop offset="100%" stop-color="#0a0a12"/>
  </linearGradient>
  <!-- Energy orb — staff -->
  <radialGradient id="orbr1x7994" cx="35%" cy="35%" r="65%">
    <stop offset="0%"   stop-color="rgba(255,255,255,.9)"/>
    <stop offset="30%"  stop-color="#4444ff"/>
    <stop offset="68%"  stop-color="#141428"/>
    <stop offset="100%" stop-color="rgba(0,0,0,.6)"/>
  </radialGradient>
  <!-- Knuckle plate chrome -->
  <linearGradient id="knuckler1x7994" x1="0%" y1="0%" x2="0%" y2="100%">
    <stop offset="0%"   stop-color="#888aaa"/>
    <stop offset="32%"  stop-color="#4444ff" stop-opacity=".8"/>
    <stop offset="62%"  stop-color="#1a1a2c"/>
    <stop offset="100%" stop-color="#0a0a14"/>
  </linearGradient>

  <!-- Carbon fibre weave texture overlay -->
  <pattern id="carbonr1x7994" width="6" height="6" patternUnits="userSpaceOnUse">
    <rect width="6" height="6" fill="rgba(0,0,0,.08)"/>
    <rect x="0" y="0" width="3" height="3" fill="rgba(255,255,255,.022)"/>
    <rect x="3" y="3" width="3" height="3" fill="rgba(255,255,255,.022)"/>
    <line x1="0" y1="0" x2="3" y2="3" stroke="rgba(255,255,255,.038)" stroke-width=".5"/>
    <line x1="3" y1="0" x2="6" y2="3" stroke="rgba(0,0,0,.055)"       stroke-width=".5"/>
    <line x1="0" y1="3" x2="3" y2="6" stroke="rgba(0,0,0,.055)"       stroke-width=".5"/>
    <line x1="3" y1="3" x2="6" y2="6" stroke="rgba(255,255,255,.038)" stroke-width=".5"/>
  </pattern>

  <!-- Specular metal sheen on armour panels -->
  <filter id="metalr1x7994" x="-5%" y="-5%" width="110%" height="110%">
    <feSpecularLighting surfaceScale="4" specularConstant="1.8"
        specularExponent="42" lighting-color="#ffffff" result="spec">
      <feDistantLight elevation="52" azimuth="38"/>
    </feSpecularLighting>
    <feComposite in="spec" in2="SourceGraphic" operator="in" result="sm"/>
    <feComposite in="SourceGraphic" in2="sm" operator="arithmetic" k1="0" k2="1" k3="0.55" k4="0"/>
  </filter>

  <!-- Sharper specular for weapons — heavier glare -->
  <filter id="wmr1x7994" x="-8%" y="-8%" width="116%" height="116%">
    <feSpecularLighting surfaceScale="6" specularConstant="2.4"
        specularExponent="65" lighting-color="#ffffff" result="spec">
      <feDistantLight elevation="44" azimuth="28"/>
    </feSpecularLighting>
    <feComposite in="spec" in2="SourceGraphic" operator="in" result="sm"/>
    <feComposite in="SourceGraphic" in2="sm" operator="arithmetic" k1="0" k2="1" k3="0.78" k4="0"/>
  </filter>

  <!-- Sketch wobble -->
  <filter id="skr1x7994" x="-8%" y="-8%" width="116%" height="116%">
    <feTurbulence type="fractalNoise" baseFrequency="0.038"
        numOctaves="3" seed="25" result="noise"/>
    <feDisplacementMap in="SourceGraphic" in2="noise" scale="2.6"
        xChannelSelector="R" yChannelSelector="G" result="w"/>
    <feComposite in="w" in2="SourceGraphic" operator="atop"/>
  </filter>

  <!-- Glow: sharp accent -->
  <filter id="glowr1x7994" x="-20%" y="-20%" width="140%" height="140%">
    <feGaussianBlur stdDeviation="3.5" result="b"/>
    <feColorMatrix in="b" type="matrix"
        values="0 0 0 0 1  0 0 0 0 1  0 0 0 0 1  0 0 0 1.8 0" result="boost"/>
    <feMerge><feMergeNode in="boost"/><feMergeNode in="SourceGraphic"/></feMerge>
  </filter>

  <!-- Bloom: wide soft -->
  <filter id="bloomr1x7994" x="-40%" y="-40%" width="180%" height="180%">
    <feGaussianBlur stdDeviation="11" result="b"/>
    <feMerge><feMergeNode in="b"/><feMergeNode in="SourceGraphic"/></feMerge>
  </filter>

  </defs><rect width="1000" height="1000" fill="url(#bgr1x7994)"/><ellipse cx="500.0" cy="892.0" rx="350.0" ry="65.0" fill="rgba(0,0,0,.7)" filter="url(#bloomr1x7994)"/><ellipse cx="500.0" cy="889.0" rx="220.0" ry="34.0" fill="rgba(0,0,0,.45)"/><ellipse cx="500.0" cy="520.0" rx="320.0" ry="480.0" fill="#6600ff" fill-opacity=".042" filter="url(#bloomr1x7994)"/><circle cx="651.6" cy="343.6" r="1.4" fill="#6600ff" fill-opacity="0.60" filter="url(#glowr1x7994)"/><circle cx="707.4" cy="301.8" r="1.5" fill="#6600ff" fill-opacity="0.71" filter="url(#glowr1x7994)"/><circle cx="688.6" cy="256.6" r="0.7" fill="#6600ff" fill-opacity="0.51" filter="url(#glowr1x7994)"/><circle cx="523.8" cy="411.5" r="1.2" fill="#6600ff" fill-opacity="0.39" filter="url(#glowr1x7994)"/><circle cx="439.6" cy="426.9" r="4.0" fill="#6600ff" fill-opacity="0.47" filter="url(#glowr1x7994)"/><circle cx="461.4" cy="637.0" r="3.6" fill="#6600ff" fill-opacity="0.57" filter="url(#glowr1x7994)"/><circle cx="373.4" cy="738.3" r="2.0" fill="#6600ff" fill-opacity="0.69" filter="url(#glowr1x7994)"/><circle cx="559.5" cy="411.9" r="2.2" fill="#6600ff" fill-opacity="0.40" filter="url(#glowr1x7994)"/><circle cx="374.3" cy="236.5" r="0.7" fill="#6600ff" fill-opacity="0.76" filter="url(#glowr1x7994)"/><circle cx="659.2" cy="725.5" r="3.2" fill="#6600ff" fill-opacity="0.53" filter="url(#glowr1x7994)"/><circle cx="268.3" cy="344.3" r="1.6" fill="#6600ff" fill-opacity="0.46" filter="url(#glowr1x7994)"/><circle cx="482.1" cy="478.6" r="2.0" fill="#6600ff" fill-opacity="0.86" filter="url(#glowr1x7994)"/><circle cx="432.8" cy="465.0" r="2.3" fill="#6600ff" fill-opacity="0.38" filter="url(#glowr1x7994)"/><circle cx="656.3" cy="773.6" r="2.6" fill="#6600ff" fill-opacity="0.57" filter="url(#glowr1x7994)"/><polygon points="397.1,661.3 488.4,661.6 480.5,876.5 387.9,878.4" fill="url(#suitr1x7994)" stroke="#4444ff" stroke-width="2.2" filter="url(#skr1x7994) url(#metalr1x7994)"/><polygon points="398.8,661.2 490.8,662.2 480.3,878.0 388.3,876.4" fill="url(#carbonr1x7994)"/><polygon points="391.5,723.3 494.7,725.5 485.8,788.7 384.4,787.7" fill="url(#bevelr1x7994)" fill-opacity=".5" stroke="#4444ff" stroke-width="1.4" filter="url(#skr1x7994)"/><polygon points="511.8,660.9 601.6,660.7 613.2,878.0 520.4,877.4" fill="url(#suitr1x7994)" stroke="#4444ff" stroke-width="2.2" filter="url(#skr1x7994) url(#metalr1x7994)"/><polygon points="511.6,663.4 601.4,662.7 611.6,878.3 521.0,878.8" fill="url(#carbonr1x7994)"/><polygon points="505.7,722.4 606.9,722.4 616.7,790.0 514.2,787.8" fill="url(#bevelr1x7994)" fill-opacity=".5" stroke="#4444ff" stroke-width="1.4" filter="url(#skr1x7994)"/><rect x="391.3" y="840.1" width="100.3" height="24.7" fill="url(#bevelr1x7994)" stroke="#4444ff" stroke-width="1" filter="url(#skr1x7994)"/><rect x="507.2"  y="838.9" width="100.3" height="24.7" fill="url(#bevelr1x7994)" stroke="#4444ff" stroke-width="1" filter="url(#skr1x7994)"/><polygon points="370.7,878.4 496.2,878.4 505.1,920.6 362.8,921.6" fill="#141428" stroke="#4444ff" stroke-width="2" filter="url(#skr1x7994)"/><polygon points="504.4,876.1 631.5,879.3 636.9,923.2 495.4,920.1" fill="#141428" stroke="#4444ff" stroke-width="2" filter="url(#skr1x7994)"/><polygon points="302.9,631.3 697.5,631.6 637.1,683.8 363.4,683.8" fill="#4444ff" fill-opacity=".52" stroke="#4444ff" stroke-width="2" filter="url(#skr1x7994)"/><rect x="464.4" y="637.7" width="72.0" height="42.0" fill="url(#bevelr1x7994)" stroke="#4444ff" stroke-width="1.4" filter="url(#glowr1x7994)"/><rect x="484.4" y="639.3" width="28.0" height="22.0" rx="1" fill="rgba(255,255,255,.48)"/><polygon points="154.2,468.0 235.4,464.9 256.9,734.3 129.6,735.8" fill="url(#suitr1x7994)" stroke="#4444ff" stroke-width="2.2" filter="url(#skr1x7994) url(#metalr1x7994)"/><polygon points="175.2,431.9 253.6,433.2 243.3,508.8 158.5,510.6" fill="url(#bevelr1x7994)" fill-opacity=".72" stroke="#4444ff" stroke-width="2.2" filter="url(#skr1x7994)"/><polygon points="159.7,622.3 244.4,620.1 238.6,661.8 166.2,660.9" fill="#4444ff" fill-opacity=".42" stroke="#4444ff" stroke-width="1" filter="url(#skr1x7994)"/><polygon points="766.3,467.9 847.3,465.7 872.0,733.5 741.2,736.4" fill="url(#suitr1x7994)" stroke="#4444ff" stroke-width="2.2" filter="url(#skr1x7994) url(#metalr1x7994)"/><polygon points="746.0,432.9 825.6,432.8 840.7,510.0 756.3,512.3" fill="url(#bevelr1x7994)" fill-opacity=".72" stroke="#4444ff" stroke-width="2.2" filter="url(#skr1x7994)"/><polygon points="757.3,620.8 838.1,623.1 835.2,661.7 760.2,661.7" fill="#4444ff" fill-opacity=".42" stroke="#4444ff" stroke-width="1" filter="url(#skr1x7994)"/><rect x="119.1"  y="700.6" width="135.3" height="85.0" rx="4" fill="url(#bevelr1x7994)" stroke="#4444ff" stroke-width="1.8" filter="url(#skr1x7994)"/><rect x="749.9"   y="701.6" width="135.3" height="85.0" rx="4" fill="url(#bevelr1x7994)" stroke="#4444ff" stroke-width="1.8" filter="url(#skr1x7994)"/><line x1="151.0" y1="701.0" x2="150.8" y2="784.9" stroke="#4444ff" stroke-opacity=".38" stroke-width="1"/><line x1="776.5" y1="703.4" x2="778.3" y2="783.6" stroke="#4444ff" stroke-opacity=".38" stroke-width="1"/><line x1="181.2" y1="700.3" x2="182.1" y2="785.2" stroke="#4444ff" stroke-opacity=".38" stroke-width="1"/><line x1="810.0" y1="701.2" x2="810.0" y2="785.6" stroke="#4444ff" stroke-opacity=".38" stroke-width="1"/><line x1="216.4" y1="702.3" x2="215.4" y2="784.8" stroke="#4444ff" stroke-opacity=".38" stroke-width="1"/><line x1="845.2" y1="702.8" x2="843.1" y2="782.2" stroke="#4444ff" stroke-opacity=".38" stroke-width="1"/><polygon points="234.1,417.1 766.7,417.5 722.7,664.1 277.0,662.4" fill="url(#suitr1x7994)" stroke="#4444ff" stroke-width="2.6" filter="url(#skr1x7994) url(#metalr1x7994)"/><polygon points="234.6,418.5 766.2,418.7 721.1,663.8 278.5,661.0" fill="url(#carbonr1x7994)"/><polygon points="369.1,416.6 631.9,418.6 612.8,513.8 388.6,516.8" fill="url(#suitHir1x7994)"/><line x1="361.0" y1="469.7" x2="637.5" y2="472.6" stroke="#4444ff" stroke-opacity=".52" stroke-width="1.3" filter="url(#skr1x7994)"/><line x1="398.1" y1="550.4" x2="601.1" y2="549.0" stroke="#4444ff" stroke-opacity=".52" stroke-width="1.3" filter="url(#skr1x7994)"/><line x1="268.2" y1="489.8" x2="319.7" y2="491.2" stroke="#4444ff" stroke-opacity=".62" stroke-width="1.8"/><line x1="680.1" y1="490.7" x2="734.1" y2="492.6" stroke="#4444ff" stroke-opacity=".62" stroke-width="1.8"/><line x1="267.6" y1="522.1" x2="320.0" y2="523.2" stroke="#4444ff" stroke-opacity=".62" stroke-width="1.8"/><line x1="681.9" y1="521.9" x2="734.5" y2="522.0" stroke="#4444ff" stroke-opacity=".62" stroke-width="1.8"/><line x1="266.0" y1="555.6" x2="319.0" y2="556.4" stroke="#4444ff" stroke-opacity=".62" stroke-width="1.8"/><line x1="679.6" y1="554.0" x2="733.1" y2="554.2" stroke="#4444ff" stroke-opacity=".62" stroke-width="1.8"/><line x1="267.7" y1="587.0" x2="320.6" y2="585.4" stroke="#4444ff" stroke-opacity=".62" stroke-width="1.8"/><line x1="681.4" y1="587.2" x2="733.3" y2="587.1" stroke="#4444ff" stroke-opacity=".62" stroke-width="1.8"/><g filter="url(#glowr1x7994)"><path d="M500,510.6 C389.2274577504024,453.16624327450995 442.1507686339319,547.9764240267128 500,534.8395198616386" fill="#4444ff" fill-opacity=".88" stroke="#4444ff" stroke-width="1.2" filter="url(#skr1x7994)"/><path d="M500,510.6 C601.3670787841081,452.5934026882053 556.9163184184581,550.9373902887479 500,533.0272095329315" fill="#4444ff" fill-opacity=".88" stroke="#4444ff" stroke-width="1.2" filter="url(#skr1x7994)"/><path d="M500,493.20000000000005 C451.35318133598196,464.50790758412336 479.72525370093064,518.6433494054712 500,522.8944349603728" fill="rgba(255,255,255,.14)"/><path d="M500,493.20000000000005 C545.9542195774615,461.990146002546 524.8433632699773,514.0495885550976 500,522.19955241289" fill="rgba(255,255,255,.14)"/></g><g><polygon points="866.9,691.6 900.1,693.0 832.9,271.9" fill="url(#blader1x7994)" stroke="#4444ff" stroke-width="1.8" filter="url(#wmr1x7994)"/><line x1="892.8" y1="691.4" x2="841.8" y2="271.4" stroke="rgba(255,255,255,.58)" stroke-width="1.3"/><polygon points="912.5,693.1 944.8,692.0 985.2,271.2" fill="url(#blader1x7994)" stroke="#4444ff" stroke-width="1.8" filter="url(#wmr1x7994)"/><line x1="941.8" y1="691.4" x2="979.8" y2="271.4" stroke="rgba(255,255,255,.58)" stroke-width="1.3"/><rect x="863.3506996314601" y="680.8136606134474" width="96.0" height="26.0" rx="2" fill="url(#bevelr1x7994)" stroke="#4444ff" stroke-width="1.4" filter="url(#wmr1x7994)"/></g><rect x="449.3059486255981" y="557.0037402749992" width="100.0"  height="56.0" fill="#141428" stroke="#4444ff" stroke-width="2.2" filter="url(#skr1x7994)"/><rect x="423.4447552161291" y="575.4267071511597" width="152.0" height="26.0" fill="url(#bevelr1x7994)" fill-opacity=".65" stroke="#4444ff" stroke-width="1.2" filter="url(#skr1x7994)"/><polygon points="306.2,381.3 349.9,294.3 499.3,279.1 649.7,292.8 692.0,380.9 670.5,503.3 501.6,564.4 331.8,505.0" fill="url(#suitr1x7994)" stroke="#4444ff" stroke-width="2.8" filter="url(#skr1x7994) url(#metalr1x7994)"/><polygon points="307.4,379.0 348.7,293.9 501.8,277.3 648.5,292.7 691.8,379.2 669.3,504.9 500.5,566.6 329.8,502.0" fill="url(#carbonr1x7994)"/><polygon points="382.7,302.9 500.2,287.8 619.4,302.0 607.9,380.3 393.0,382.2" fill="url(#suitHir1x7994)"/><polygon points="379.4,381.8 364.9,427.4 432.4,503.3 500.6,528.6 566.7,502.7 634.7,426.6 619.9,380.4" fill="#050508" fill-opacity=".88" stroke="#4444ff" stroke-width="1.8" filter="url(#skr1x7994)"/><polygon points="381.3,412.7 477.4,409.9 483.1,441.2 389.3,439.9" fill="#4444ff" filter="url(#glowr1x7994)"/><polygon points="522.9,409.7 618.4,411.4 610.9,441.5 516.8,439.6" fill="#4444ff" filter="url(#glowr1x7994)"/><ellipse cx="430.9" cy="425.7" rx="38.4"  ry="8.2" fill="#ffffff" opacity=".88"/><ellipse cx="569.1" cy="425.7" rx="38.4"  ry="8.2" fill="#ffffff" opacity=".88"/><line x1="484.94584368575363" y1="411.812430352997" x2="514.4188265468366" y2="411.69615420922634" stroke="#4444ff" stroke-opacity=".52" stroke-width="2"/><line x1="485.281373844631" y1="436.40666780127214" x2="515.4625500824675" y2="437.2940168674104" stroke="#4444ff" stroke-opacity=".52" stroke-width="2"/><line x1="499.70818462111055" y1="453.9344127505086" x2="501.7609651341103" y2="484.55909365992994" stroke="#4444ff" stroke-opacity=".58" stroke-width="2.2" filter="url(#skr1x7994)"/><line x1="455.1213545999304" y1="490.3997748143039" x2="452.66045961294327" y2="518.6828006602824" stroke="#4444ff" stroke-opacity=".52" stroke-width="1.5" filter="url(#skr1x7994)"/><line x1="477.68531799972055" y1="490.55180262662464" x2="477.2240431941487" y2="518.5894173984416" stroke="#4444ff" stroke-opacity=".52" stroke-width="1.5" filter="url(#skr1x7994)"/><line x1="501.06795151643456" y1="490.4030519984662" x2="500.1446696555242" y2="519.8110057366081" stroke="#4444ff" stroke-opacity=".52" stroke-width="1.5" filter="url(#skr1x7994)"/><line x1="521.5519570653885" y1="490.2711414611898" x2="524.4581882424279" y2="518.278171413485" stroke="#4444ff" stroke-opacity=".52" stroke-width="1.5" filter="url(#skr1x7994)"/><line x1="544.5409592539258" y1="492.7837040742859" x2="546.3205899417587" y2="521.606413131766" stroke="#4444ff" stroke-opacity=".52" stroke-width="1.5" filter="url(#skr1x7994)"/><polygon points="433.3,503.8 566.6,501.9 552.7,556.8 447.4,555.1" fill="#141428" fill-opacity=".72" stroke="#4444ff" stroke-width="1.3" filter="url(#skr1x7994)"/><path d="M387.0373003162071 328.21822989843787 Q332.48028053861105 216.09533401122317 379.5727272264101 140.64235742772" stroke="#4444ff" stroke-width="5" fill="none" stroke-linecap="round" filter="url(#skr1x7994)"/><path d="M389.70866773078217 326.9392091042362 Q331.7072904285602 217.26007422935217 380.4343724974804 139.28187570273877" stroke="rgba(255,255,255,.25)" stroke-width="1.5" fill="none" stroke-linecap="round"/><path d="M611.8761554263905 328.91547079402955 Q668.1626497441345 216.6417893478647 619.9963558139838 141.83435392780228" stroke="#4444ff" stroke-width="5" fill="none" stroke-linecap="round" filter="url(#skr1x7994)"/><path d="M612.5012300232798 328.41042906129735 Q668.0312605210022 216.03976379530505 619.5461140329577 140.60780075956137" stroke="rgba(255,255,255,.25)" stroke-width="1.5" fill="none" stroke-linecap="round"/><text x="30.0"  y="975.0" font-family="monospace" font-weight="bold" font-size="22.0" fill="rgba(255,255,255,.22)">#0001</text><text x="500.0"   y="975.0" text-anchor="middle" font-family="monospace" font-weight="bold" font-size="22.0" fill="#4444ff" fill-opacity=".48">OBSIDIAN RANGER</text><text x="970.0" y="975.0" text-anchor="end"    font-family="monospace" font-weight="bold" font-size="22.0" fill="#4444ff" fill-opacity=".32">MECH RANGERS</text></svg>