<svg xmlns="http://www.w3.org/2000/svg" viewBox="0 0 1000 1000" width="1000" height="1000" shape-rendering="geometricPrecision"><defs>

  <!-- Scene gradients -->
  <radialGradient id="bgr1x8007" cx="50%" cy="42%" r="72%">
    <stop offset="0%"   stop-color="#1e0a2e"/>
    <stop offset="100%" stop-color="#0a0520"/>
  </radialGradient>
  <linearGradient id="suitr1x8007" x1="8%" y1="0%" x2="92%" y2="100%">
    <stop offset="0%"   stop-color="#ffd700" stop-opacity=".95"/>
    <stop offset="45%"  stop-color="#503400"/>
    <stop offset="100%" stop-color="#0a0520"/>
  </linearGradient>
  <linearGradient id="suitHir1x8007" x1="0%" y1="0%" x2="0%" y2="100%">
    <stop offset="0%"   stop-color="rgba(255,255,255,.28)"/>
    <stop offset="60%"  stop-color="rgba(255,255,255,.04)"/>
    <stop offset="100%" stop-color="rgba(255,255,255,0)"/>
  </linearGradient>
  <!-- Bevel: bright top, dark bottom for armour panels -->
  <linearGradient id="bevelr1x8007" x1="0%" y1="0%" x2="0%" y2="100%">
    <stop offset="0%"   stop-color="rgba(255,255,255,.55)"/>
    <stop offset="30%"  stop-color="#ffd700"/>
    <stop offset="70%"  stop-color="#503400"/>
    <stop offset="100%" stop-color="rgba(0,0,0,.5)"/>
  </linearGradient>

  <!-- Weapon: cold steel blade sweep -->
  <linearGradient id="blader1x8007" x1="0%" y1="0%" x2="100%" y2="0%">
    <stop offset="0%"   stop-color="#0e0e20"/>
    <stop offset="16%"  stop-color="#3e3e58"/>
    <stop offset="34%"  stop-color="#c8c8e0"/>
    <stop offset="50%"  stop-color="#f5f5ff"/>
    <stop offset="66%"  stop-color="#b8b8d0"/>
    <stop offset="84%"  stop-color="#2e2e48"/>
    <stop offset="100%" stop-color="#08080e"/>
  </linearGradient>
  <!-- Blade tip brightening -->
  <linearGradient id="bladeTipr1x8007" x1="0%" y1="100%" x2="0%" y2="0%">
    <stop offset="0%"   stop-color="rgba(255,255,255,0)"/>
    <stop offset="55%"  stop-color="rgba(255,255,255,.1)"/>
    <stop offset="100%" stop-color="rgba(255,255,255,.55)"/>
  </linearGradient>
  <!-- Gunmetal anodised — blaster body -->
  <linearGradient id="gunmetalr1x8007" x1="0%" y1="0%" x2="0%" y2="100%">
    <stop offset="0%"   stop-color="#46465e"/>
    <stop offset="18%"  stop-color="#828296"/>
    <stop offset="42%"  stop-color="#26263a"/>
    <stop offset="72%"  stop-color="#16162a"/>
    <stop offset="100%" stop-color="#0c0c18"/>
  </linearGradient>
  <!-- Brushed steel tube — barrel/rod -->
  <linearGradient id="barrelr1x8007" x1="0%" y1="0%" x2="100%" y2="0%">
    <stop offset="0%"   stop-color="#0a0a14"/>
    <stop offset="24%"  stop-color="#585875"/>
    <stop offset="50%"  stop-color="#a8a8c8"/>
    <stop offset="76%"  stop-color="#383852"/>
    <stop offset="100%" stop-color="#0a0a14"/>
  </linearGradient>
  <!-- Chrome rod — lance shaft -->
  <linearGradient id="chromer1x8007" x1="0%" y1="0%" x2="100%" y2="0%">
    <stop offset="0%"   stop-color="#0c0c18"/>
    <stop offset="20%"  stop-color="#686888"/>
    <stop offset="44%"  stop-color="#e0e0f0"/>
    <stop offset="56%"  stop-color="#c0c0d8"/>
    <stop offset="80%"  stop-color="#28283e"/>
    <stop offset="100%" stop-color="#0c0c18"/>
  </linearGradient>
  <!-- Titanium plate — shield face -->
  <linearGradient id="titaniumr1x8007" x1="0%" y1="0%" x2="100%" y2="100%">
    <stop offset="0%"   stop-color="#585878"/>
    <stop offset="28%"  stop-color="#ffd700" stop-opacity=".88"/>
    <stop offset="55%"  stop-color="#503400"/>
    <stop offset="80%"  stop-color="#181828"/>
    <stop offset="100%" stop-color="#0a0a18"/>
  </linearGradient>
  <!-- Artillery black-chrome — cannon body -->
  <linearGradient id="artilleryr1x8007" x1="0%" y1="0%" x2="0%" y2="100%">
    <stop offset="0%"   stop-color="#383850"/>
    <stop offset="14%"  stop-color="#78789a"/>
    <stop offset="36%"  stop-color="#202034"/>
    <stop offset="65%"  stop-color="#14141e"/>
    <stop offset="100%" stop-color="#0a0a12"/>
  </linearGradient>
  <!-- Energy orb — staff -->
  <radialGradient id="orbr1x8007" cx="35%" cy="35%" r="65%">
    <stop offset="0%"   stop-color="rgba(255,255,255,.9)"/>
    <stop offset="30%"  stop-color="#ffd700"/>
    <stop offset="68%"  stop-color="#503400"/>
    <stop offset="100%" stop-color="rgba(0,0,0,.6)"/>
  </radialGradient>
  <!-- Knuckle plate chrome -->
  <linearGradient id="knuckler1x8007" x1="0%" y1="0%" x2="0%" y2="100%">
    <stop offset="0%"   stop-color="#888aaa"/>
    <stop offset="32%"  stop-color="#ffd700" stop-opacity=".8"/>
    <stop offset="62%"  stop-color="#1a1a2c"/>
    <stop offset="100%" stop-color="#0a0a14"/>
  </linearGradient>

  <!-- Carbon fibre weave texture overlay -->
  <pattern id="carbonr1x8007" width="6" height="6" patternUnits="userSpaceOnUse">
    <rect width="6" height="6" fill="rgba(0,0,0,.08)"/>
    <rect x="0" y="0" width="3" height="3" fill="rgba(255,255,255,.022)"/>
    <rect x="3" y="3" width="3" height="3" fill="rgba(255,255,255,.022)"/>
    <line x1="0" y1="0" x2="3" y2="3" stroke="rgba(255,255,255,.038)" stroke-width=".5"/>
    <line x1="3" y1="0" x2="6" y2="3" stroke="rgba(0,0,0,.055)"       stroke-width=".5"/>
    <line x1="0" y1="3" x2="3" y2="6" stroke="rgba(0,0,0,.055)"       stroke-width=".5"/>
    <line x1="3" y1="3" x2="6" y2="6" stroke="rgba(255,255,255,.038)" stroke-width=".5"/>
  </pattern>

  <!-- Specular metal sheen on armour panels -->
  <filter id="metalr1x8007" x="-5%" y="-5%" width="110%" height="110%">
    <feSpecularLighting surfaceScale="4" specularConstant="1.8"
        specularExponent="42" lighting-color="#ffffff" result="spec">
      <feDistantLight elevation="52" azimuth="38"/>
    </feSpecularLighting>
    <feComposite in="spec" in2="SourceGraphic" operator="in" result="sm"/>
    <feComposite in="SourceGraphic" in2="sm" operator="arithmetic" k1="0" k2="1" k3="0.55" k4="0"/>
  </filter>

  <!-- Sharper specular for weapons — heavier glare -->
  <filter id="wmr1x8007" x="-8%" y="-8%" width="116%" height="116%">
    <feSpecularLighting surfaceScale="6" specularConstant="2.4"
        specularExponent="65" lighting-color="#ffffff" result="spec">
      <feDistantLight elevation="44" azimuth="28"/>
    </feSpecularLighting>
    <feComposite in="spec" in2="SourceGraphic" operator="in" result="sm"/>
    <feComposite in="SourceGraphic" in2="sm" operator="arithmetic" k1="0" k2="1" k3="0.78" k4="0"/>
  </filter>

  <!-- Sketch wobble -->
  <filter id="skr1x8007" x="-8%" y="-8%" width="116%" height="116%">
    <feTurbulence type="fractalNoise" baseFrequency="0.038"
        numOctaves="3" seed="79" result="noise"/>
    <feDisplacementMap in="SourceGraphic" in2="noise" scale="2.6"
        xChannelSelector="R" yChannelSelector="G" result="w"/>
    <feComposite in="w" in2="SourceGraphic" operator="atop"/>
  </filter>

  <!-- Glow: sharp accent -->
  <filter id="glowr1x8007" x="-20%" y="-20%" width="140%" height="140%">
    <feGaussianBlur stdDeviation="3.5" result="b"/>
    <feColorMatrix in="b" type="matrix"
        values="0 0 0 0 1  0 0 0 0 1  0 0 0 0 1  0 0 0 1.8 0" result="boost"/>
    <feMerge><feMergeNode in="boost"/><feMergeNode in="SourceGraphic"/></feMerge>
  </filter>

  <!-- Bloom: wide soft -->
  <filter id="bloomr1x8007" x="-40%" y="-40%" width="180%" height="180%">
    <feGaussianBlur stdDeviation="11" result="b"/>
    <feMerge><feMergeNode in="b"/><feMergeNode in="SourceGraphic"/></feMerge>
  </filter>

  </defs><rect width="1000" height="1000" fill="url(#bgr1x8007)"/><ellipse cx="500.0" cy="892.0" rx="350.0" ry="65.0" fill="rgba(0,0,0,.7)" filter="url(#bloomr1x8007)"/><ellipse cx="500.0" cy="889.0" rx="220.0" ry="34.0" fill="rgba(0,0,0,.45)"/><ellipse cx="500.0" cy="520.0" rx="320.0" ry="480.0" fill="#ff00ff" fill-opacity=".042" filter="url(#bloomr1x8007)"/><circle cx="461.7" cy="362.5" r="2.1" fill="#ff00ff" fill-opacity="0.80" filter="url(#glowr1x8007)"/><circle cx="279.5" cy="261.9" r="1.7" fill="#ff00ff" fill-opacity="0.76" filter="url(#glowr1x8007)"/><circle cx="399.0" cy="590.7" r="3.6" fill="#ff00ff" fill-opacity="0.74" filter="url(#glowr1x8007)"/><circle cx="522.2" cy="471.0" r="1.3" fill="#ff00ff" fill-opacity="0.42" filter="url(#glowr1x8007)"/><circle cx="357.3" cy="313.7" r="3.5" fill="#ff00ff" fill-opacity="0.61" filter="url(#glowr1x8007)"/><circle cx="404.1" cy="467.3" r="3.4" fill="#ff00ff" fill-opacity="0.48" filter="url(#glowr1x8007)"/><circle cx="496.9" cy="184.6" r="3.1" fill="#ff00ff" fill-opacity="0.75" filter="url(#glowr1x8007)"/><circle cx="571.8" cy="484.0" r="1.8" fill="#ff00ff" fill-opacity="0.86" filter="url(#glowr1x8007)"/><circle cx="310.8" cy="407.9" r="3.5" fill="#ff00ff" fill-opacity="0.61" filter="url(#glowr1x8007)"/><circle cx="720.9" cy="423.7" r="3.7" fill="#ff00ff" fill-opacity="0.68" filter="url(#glowr1x8007)"/><circle cx="395.8" cy="562.6" r="0.9" fill="#ff00ff" fill-opacity="0.54" filter="url(#glowr1x8007)"/><circle cx="353.8" cy="463.2" r="1.8" fill="#ff00ff" fill-opacity="0.60" filter="url(#glowr1x8007)"/><circle cx="359.1" cy="277.1" r="1.9" fill="#ff00ff" fill-opacity="0.44" filter="url(#glowr1x8007)"/><circle cx="321.6" cy="697.2" r="0.9" fill="#ff00ff" fill-opacity="0.53" filter="url(#glowr1x8007)"/><path d="M513.5,161.8 Q480.3,389.9 540.3,636.5" stroke="#ff00ff" stroke-opacity="0.46" stroke-width="1.4" fill="none" filter="url(#glowr1x8007)"/><path d="M371.7,177.8 Q412.4,473.6 468.9,721.3" stroke="#ff00ff" stroke-opacity="0.48" stroke-width="1.9" fill="none" filter="url(#glowr1x8007)"/><path d="M335.3,274.9 Q331.4,450.3 342.6,649.6" stroke="#ff00ff" stroke-opacity="0.69" stroke-width="1.3" fill="none" filter="url(#glowr1x8007)"/><path d="M561.8,241.3 Q568.7,466.5 412.3,716.3" stroke="#ff00ff" stroke-opacity="0.45" stroke-width="1.1" fill="none" filter="url(#glowr1x8007)"/><path d="M539.9,245.4 Q499.9,518.5 348.8,790.5" stroke="#ff00ff" stroke-opacity="0.45" stroke-width="1.3" fill="none" filter="url(#glowr1x8007)"/><polygon points="399.4,660.9 487.8,661.0 480.8,877.5 388.5,877.6" fill="url(#suitr1x8007)" stroke="#ffd700" stroke-width="2.2" filter="url(#skr1x8007) url(#metalr1x8007)"/><polygon points="399.6,662.8 490.5,663.1 480.7,877.3 385.8,878.7" fill="url(#carbonr1x8007)"/><polygon points="393.5,723.4 494.2,722.6 483.6,789.8 385.0,786.9" fill="url(#bevelr1x8007)" fill-opacity=".5" stroke="#ffd700" stroke-width="1.4" filter="url(#skr1x8007)"/><polygon points="511.2,663.2 602.8,663.2 613.1,878.3 520.9,876.2" fill="url(#suitr1x8007)" stroke="#ffd700" stroke-width="2.2" filter="url(#skr1x8007) url(#metalr1x8007)"/><polygon points="512.1,662.7 600.7,661.3 612.0,876.3 519.4,876.2" fill="url(#carbonr1x8007)"/><polygon points="506.4,723.8 607.9,722.7 617.3,787.2 515.3,786.6" fill="url(#bevelr1x8007)" fill-opacity=".5" stroke="#ffd700" stroke-width="1.4" filter="url(#skr1x8007)"/><rect x="392.9" y="837.8" width="100.3" height="24.7" fill="url(#bevelr1x8007)" stroke="#ffd700" stroke-width="1" filter="url(#skr1x8007)"/><rect x="506.2"  y="837.5" width="100.3" height="24.7" fill="url(#bevelr1x8007)" stroke="#ffd700" stroke-width="1" filter="url(#skr1x8007)"/><polygon points="369.9,877.0 496.0,877.1 504.9,920.0 362.6,920.0" fill="#503400" stroke="#ffd700" stroke-width="2" filter="url(#skr1x8007)"/><polygon points="501.9,875.9 632.0,878.9 635.7,920.7 495.0,922.3" fill="#503400" stroke="#ffd700" stroke-width="2" filter="url(#skr1x8007)"/><polygon points="303.2,634.5 694.7,634.0 637.5,682.7 362.1,683.5" fill="#ffd700" fill-opacity=".52" stroke="#ffd700" stroke-width="2" filter="url(#skr1x8007)"/><rect x="463.5" y="639.2" width="72.0" height="42.0" fill="url(#bevelr1x8007)" stroke="#ffd700" stroke-width="1.4" filter="url(#glowr1x8007)"/><rect x="487.0" y="641.1" width="28.0" height="22.0" rx="1" fill="rgba(255,255,255,.48)"/><polygon points="152.1,466.1 234.1,466.5 257.5,733.8 128.0,736.2" fill="url(#suitr1x8007)" stroke="#ffd700" stroke-width="2.2" filter="url(#skr1x8007) url(#metalr1x8007)"/><polygon points="173.1,433.9 251.7,431.2 244.6,509.6 158.8,509.4" fill="url(#bevelr1x8007)" fill-opacity=".72" stroke="#ffd700" stroke-width="2.2" filter="url(#skr1x8007)"/><polygon points="160.7,622.4 243.7,620.8 238.4,660.0 166.3,661.6" fill="#ffd700" fill-opacity=".42" stroke="#ffd700" stroke-width="1" filter="url(#skr1x8007)"/><polygon points="763.7,464.8 848.2,465.4 872.4,734.2 742.9,735.6" fill="url(#suitr1x8007)" stroke="#ffd700" stroke-width="2.2" filter="url(#skr1x8007) url(#metalr1x8007)"/><polygon points="745.4,430.8 824.9,431.9 839.0,512.4 758.3,509.5" fill="url(#bevelr1x8007)" fill-opacity=".72" stroke="#ffd700" stroke-width="2.2" filter="url(#skr1x8007)"/><polygon points="756.8,621.5 839.6,622.0 835.7,660.3 760.6,661.0" fill="#ffd700" fill-opacity=".42" stroke="#ffd700" stroke-width="1" filter="url(#skr1x8007)"/><rect x="119.3"  y="701.2" width="135.3" height="85.0" rx="4" fill="url(#bevelr1x8007)" stroke="#ffd700" stroke-width="1.8" filter="url(#skr1x8007)"/><rect x="750.1"   y="700.3" width="135.3" height="85.0" rx="4" fill="url(#bevelr1x8007)" stroke="#ffd700" stroke-width="1.8" filter="url(#skr1x8007)"/><line x1="148.4" y1="702.0" x2="148.6" y2="782.5" stroke="#ffd700" stroke-opacity=".38" stroke-width="1"/><line x1="777.4" y1="703.2" x2="776.5" y2="782.3" stroke="#ffd700" stroke-opacity=".38" stroke-width="1"/><line x1="182.4" y1="702.7" x2="182.1" y2="782.2" stroke="#ffd700" stroke-opacity=".38" stroke-width="1"/><line x1="811.0" y1="700.2" x2="810.3" y2="783.3" stroke="#ffd700" stroke-opacity=".38" stroke-width="1"/><line x1="216.8" y1="701.6" x2="216.3" y2="783.9" stroke="#ffd700" stroke-opacity=".38" stroke-width="1"/><line x1="845.5" y1="701.7" x2="842.5" y2="783.0" stroke="#ffd700" stroke-opacity=".38" stroke-width="1"/><polygon points="234.3,417.3 766.2,418.6 724.3,662.3 276.0,662.5" fill="url(#suitr1x8007)" stroke="#ffd700" stroke-width="2.6" filter="url(#skr1x8007) url(#metalr1x8007)"/><polygon points="235.8,416.2 764.7,415.8 724.4,661.8 279.2,662.6" fill="url(#carbonr1x8007)"/><polygon points="367.4,418.1 631.3,417.4 610.6,513.8 388.8,514.1" fill="url(#suitHir1x8007)"/><line x1="360.8" y1="469.6" x2="636.9" y2="473.1" stroke="#ffd700" stroke-opacity=".52" stroke-width="1.3" filter="url(#skr1x8007)"/><line x1="398.8" y1="549.3" x2="601.2" y2="549.7" stroke="#ffd700" stroke-opacity=".52" stroke-width="1.3" filter="url(#skr1x8007)"/><line x1="266.7" y1="491.0" x2="319.5" y2="491.3" stroke="#ffd700" stroke-opacity=".62" stroke-width="1.8"/><line x1="678.9" y1="492.4" x2="733.4" y2="491.8" stroke="#ffd700" stroke-opacity=".62" stroke-width="1.8"/><line x1="265.0" y1="522.5" x2="321.1" y2="521.1" stroke="#ffd700" stroke-opacity=".62" stroke-width="1.8"/><line x1="680.9" y1="523.9" x2="733.6" y2="524.4" stroke="#ffd700" stroke-opacity=".62" stroke-width="1.8"/><line x1="265.6" y1="555.1" x2="319.6" y2="553.9" stroke="#ffd700" stroke-opacity=".62" stroke-width="1.8"/><line x1="680.7" y1="556.1" x2="731.7" y2="553.4" stroke="#ffd700" stroke-opacity=".62" stroke-width="1.8"/><line x1="265.9" y1="585.8" x2="319.3" y2="585.5" stroke="#ffd700" stroke-opacity=".62" stroke-width="1.8"/><line x1="681.1" y1="586.5" x2="733.6" y2="587.2" stroke="#ffd700" stroke-opacity=".62" stroke-width="1.8"/><g filter="url(#glowr1x8007)"><path d="M500,510.6 C390.2935508860275,452.42788272332405 439.08815358765423,551.746768654734 500,530.4571757666022" fill="#ffd700" fill-opacity=".88" stroke="#ffd700" stroke-width="1.2" filter="url(#skr1x8007)"/><path d="M500,510.6 C602.0182098273187,445.2530900973827 563.9261889690533,543.4508777628095 500,529.2788667935133" fill="#ffd700" fill-opacity=".88" stroke="#ffd700" stroke-width="1.2" filter="url(#skr1x8007)"/><path d="M500,493.20000000000005 C452.23717492064463,466.98984901588415 475.9089701456949,515.5383972838521 500,522.6430713774637" fill="rgba(255,255,255,.14)"/><path d="M500,493.20000000000005 C545.6037911266088,463.7487497723662 523.4905769236386,518.0115350420587 500,520.6772795410827" fill="rgba(255,255,255,.14)"/></g><g><polygon points="76.2,671.4 128.2,671.4 112.6,-28.6 91.8,-28.6" fill="url(#blader1x8007)" filter="url(#wmr1x8007)"/><polygon points="91.8,-28.6 112.6,-28.6 102.2,-138.6" fill="url(#blader1x8007)" filter="url(#wmr1x8007)"/><polygon points="100.3,671.4 104.0,671.4 102.7,-128.6 101.6,-128.6" fill="url(#bladeTipr1x8007)" opacity=".9"/><line x1="110.70268975382668" y1="671.782556468714" x2="103.47493803966788" y2="-129.92707705888898" stroke="rgba(255,255,255,.68)" stroke-width="1.5"/><line x1="91.20416014455256" y1="670.2894401927479" x2="100.40865653388198" y2="-129.93661925466733" stroke="#ffd700" stroke-width="1" stroke-opacity=".45"/><line x1="106.8" y1="651.4" x2="104.0" y2="11.4" stroke="rgba(0,0,0,.38)" stroke-width="1.6"/><line x1="97.5" y1="651.4" x2="100.3" y2="11.4" stroke="rgba(0,0,0,.38)" stroke-width="1.6"/><rect x="44.689652525298264" y="668.6923296271823" width="112.0" height="28.0" rx="3" fill="url(#bevelr1x8007)" stroke="#ffd700" stroke-width="1.6" filter="url(#wmr1x8007)"/><rect x="69.5443355872668" y="673.3121254975907" width="64.0" height="10.0" rx="1" fill="rgba(255,255,255,.32)"/><rect x="89.76836429232728" y="678.6657680078409" width="24.0" height="6.0" rx="1" fill="#ffd700" fill-opacity=".35"/><rect x="90.62078826123846" y="685.949318414554" width="24.0" height="6.0" rx="1" fill="#ffd700" fill-opacity=".35"/><rect x="89.72840604329478" y="694.797601673007" width="24.0" height="6.0" rx="1" fill="#ffd700" fill-opacity=".35"/><rect x="91.52821054881436" y="702.1510700477287" width="24.0" height="6.0" rx="1" fill="#ffd700" fill-opacity=".35"/><rect x="89.28879507867616" y="708.7107548424043" width="24.0" height="6.0" rx="1" fill="#ffd700" fill-opacity=".35"/><rect x="90.94702258272093" y="717.8036933184601" width="24.0" height="6.0" rx="1" fill="#ffd700" fill-opacity=".35"/><ellipse cx="102.70259228259322" cy="726.7873883492313" rx="22.0" ry="16.0" fill="url(#bevelr1x8007)" stroke="#ffd700" stroke-width="1.2" filter="url(#wmr1x8007)"/></g><rect x="450.6489672043361" y="558.4984014321118" width="100.0"  height="56.0" fill="#503400" stroke="#ffd700" stroke-width="2.2" filter="url(#skr1x8007)"/><rect x="424.20984388962387" y="575.520685569197" width="152.0" height="26.0" fill="url(#bevelr1x8007)" fill-opacity=".65" stroke="#ffd700" stroke-width="1.2" filter="url(#skr1x8007)"/><polygon points="308.4,381.4 351.4,294.9 498.3,277.4 651.3,293.4 693.4,382.0 667.2,502.4 498.6,565.6 332.0,502.3" fill="url(#suitr1x8007)" stroke="#ffd700" stroke-width="2.8" filter="url(#skr1x8007) url(#metalr1x8007)"/><polygon points="306.3,380.7 350.3,294.0 499.0,278.5 651.1,295.5 693.0,381.9 667.7,502.7 500.5,566.5 331.3,503.1" fill="url(#carbonr1x8007)"/><polygon points="379.5,302.4 498.4,284.8 618.6,302.2 607.9,382.1 391.5,381.6" fill="url(#suitHir1x8007)"/><polygon points="381.1,381.7 364.2,425.6 433.2,504.7 500.2,528.3 566.5,504.7 632.8,426.3 620.2,379.9" fill="#0a0520" fill-opacity=".88" stroke="#ffd700" stroke-width="1.8" filter="url(#skr1x8007)"/><polygon points="379.9,410.3 477.1,411.0 484.3,440.8 387.3,438.8" fill="#ffd700" filter="url(#glowr1x8007)"/><polygon points="524.2,410.9 617.6,411.4 611.3,441.1 514.1,440.0" fill="#ffd700" filter="url(#glowr1x8007)"/><ellipse cx="430.9" cy="425.7" rx="38.4"  ry="8.2" fill="#ffffff" opacity=".88"/><ellipse cx="569.1" cy="425.7" rx="38.4"  ry="8.2" fill="#ffffff" opacity=".88"/><line x1="483.56866309154776" y1="415.0349489338696" x2="514.6818535919674" y2="413.4381389234215" stroke="#ffd700" stroke-opacity=".52" stroke-width="2"/><line x1="483.4712647002749" y1="438.0021779009141" x2="516.8141671929881" y2="437.02360958587377" stroke="#ffd700" stroke-opacity=".52" stroke-width="2"/><line x1="498.77089539049194" y1="454.2351029412821" x2="500.5632793971337" y2="483.7575761573389" stroke="#ffd700" stroke-opacity=".58" stroke-width="2.2" filter="url(#skr1x8007)"/><line x1="452.393554194998" y1="491.6671402377076" x2="455.68907258778813" y2="518.9373808684759" stroke="#ffd700" stroke-opacity=".52" stroke-width="1.5" filter="url(#skr1x8007)"/><line x1="475.68460148800165" y1="489.9289815991185" x2="477.3230481925793" y2="521.3186476437374" stroke="#ffd700" stroke-opacity=".52" stroke-width="1.5" filter="url(#skr1x8007)"/><line x1="499.0886045226827" y1="493.04971444243563" x2="500.706140957959" y2="520.752814517077" stroke="#ffd700" stroke-opacity=".52" stroke-width="1.5" filter="url(#skr1x8007)"/><line x1="522.3807594976015" y1="490.3439577530138" x2="524.4702475237287" y2="520.8296162085608" stroke="#ffd700" stroke-opacity=".52" stroke-width="1.5" filter="url(#skr1x8007)"/><line x1="547.8289388146438" y1="491.0699373472481" x2="546.8711668747663" y2="521.5121121085249" stroke="#ffd700" stroke-opacity=".52" stroke-width="1.5" filter="url(#skr1x8007)"/><polygon points="434.1,505.0 567.3,504.8 555.2,557.7 444.5,557.8" fill="#503400" fill-opacity=".72" stroke="#ffd700" stroke-width="1.3" filter="url(#skr1x8007)"/><path d="M389.3266154192947 325.6667687745765 Q331.80218672115353 217.2177767219022 380.0590699222312 140.3865624562837" stroke="#ffd700" stroke-width="5" fill="none" stroke-linecap="round" filter="url(#skr1x8007)"/><path d="M387.089098627083 326.39893475901334 Q330.1321567791141 215.36845964547246 380.47488108551136 140.07249157130718" stroke="rgba(255,255,255,.25)" stroke-width="1.5" fill="none" stroke-linecap="round"/><path d="M611.9315494974517 328.6127576334402 Q667.629084141776 217.6873919234611 618.9580672267451 140.4050956991501" stroke="#ffd700" stroke-width="5" fill="none" stroke-linecap="round" filter="url(#skr1x8007)"/><path d="M611.2915016103908 326.04446156350895 Q668.8573662342876 216.40751209650188 619.7914881588518 141.26046162638812" stroke="rgba(255,255,255,.25)" stroke-width="1.5" fill="none" stroke-linecap="round"/><text x="30.0"  y="975.0" font-family="monospace" font-weight="bold" font-size="22.0" fill="rgba(255,255,255,.22)">#0001</text><text x="500.0"   y="975.0" text-anchor="middle" font-family="monospace" font-weight="bold" font-size="22.0" fill="#ffd700" fill-opacity=".48">IMPERIAL RANGER</text><text x="970.0" y="975.0" text-anchor="end"    font-family="monospace" font-weight="bold" font-size="22.0" fill="#ffd700" fill-opacity=".32">MECH RANGERS</text></svg>