<svg xmlns="http://www.w3.org/2000/svg" viewBox="0 0 1000 1000" width="1000" height="1000" shape-rendering="geometricPrecision"><defs>

  <!-- Scene gradients -->
  <radialGradient id="bgr1x8011" cx="50%" cy="42%" r="72%">
    <stop offset="0%"   stop-color="#001e1e"/>
    <stop offset="100%" stop-color="#0e001e"/>
  </radialGradient>
  <linearGradient id="suitr1x8011" x1="8%" y1="0%" x2="92%" y2="100%">
    <stop offset="0%"   stop-color="#4444ff" stop-opacity=".95"/>
    <stop offset="45%"  stop-color="#141428"/>
    <stop offset="100%" stop-color="#0e001e"/>
  </linearGradient>
  <linearGradient id="suitHir1x8011" x1="0%" y1="0%" x2="0%" y2="100%">
    <stop offset="0%"   stop-color="rgba(255,255,255,.28)"/>
    <stop offset="60%"  stop-color="rgba(255,255,255,.04)"/>
    <stop offset="100%" stop-color="rgba(255,255,255,0)"/>
  </linearGradient>
  <!-- Bevel: bright top, dark bottom for armour panels -->
  <linearGradient id="bevelr1x8011" x1="0%" y1="0%" x2="0%" y2="100%">
    <stop offset="0%"   stop-color="rgba(255,255,255,.55)"/>
    <stop offset="30%"  stop-color="#4444ff"/>
    <stop offset="70%"  stop-color="#141428"/>
    <stop offset="100%" stop-color="rgba(0,0,0,.5)"/>
  </linearGradient>

  <!-- Weapon: cold steel blade sweep -->
  <linearGradient id="blader1x8011" x1="0%" y1="0%" x2="100%" y2="0%">
    <stop offset="0%"   stop-color="#0e0e20"/>
    <stop offset="16%"  stop-color="#3e3e58"/>
    <stop offset="34%"  stop-color="#c8c8e0"/>
    <stop offset="50%"  stop-color="#f5f5ff"/>
    <stop offset="66%"  stop-color="#b8b8d0"/>
    <stop offset="84%"  stop-color="#2e2e48"/>
    <stop offset="100%" stop-color="#08080e"/>
  </linearGradient>
  <!-- Blade tip brightening -->
  <linearGradient id="bladeTipr1x8011" x1="0%" y1="100%" x2="0%" y2="0%">
    <stop offset="0%"   stop-color="rgba(255,255,255,0)"/>
    <stop offset="55%"  stop-color="rgba(255,255,255,.1)"/>
    <stop offset="100%" stop-color="rgba(255,255,255,.55)"/>
  </linearGradient>
  <!-- Gunmetal anodised — blaster body -->
  <linearGradient id="gunmetalr1x8011" x1="0%" y1="0%" x2="0%" y2="100%">
    <stop offset="0%"   stop-color="#46465e"/>
    <stop offset="18%"  stop-color="#828296"/>
    <stop offset="42%"  stop-color="#26263a"/>
    <stop offset="72%"  stop-color="#16162a"/>
    <stop offset="100%" stop-color="#0c0c18"/>
  </linearGradient>
  <!-- Brushed steel tube — barrel/rod -->
  <linearGradient id="barrelr1x8011" x1="0%" y1="0%" x2="100%" y2="0%">
    <stop offset="0%"   stop-color="#0a0a14"/>
    <stop offset="24%"  stop-color="#585875"/>
    <stop offset="50%"  stop-color="#a8a8c8"/>
    <stop offset="76%"  stop-color="#383852"/>
    <stop offset="100%" stop-color="#0a0a14"/>
  </linearGradient>
  <!-- Chrome rod — lance shaft -->
  <linearGradient id="chromer1x8011" x1="0%" y1="0%" x2="100%" y2="0%">
    <stop offset="0%"   stop-color="#0c0c18"/>
    <stop offset="20%"  stop-color="#686888"/>
    <stop offset="44%"  stop-color="#e0e0f0"/>
    <stop offset="56%"  stop-color="#c0c0d8"/>
    <stop offset="80%"  stop-color="#28283e"/>
    <stop offset="100%" stop-color="#0c0c18"/>
  </linearGradient>
  <!-- Titanium plate — shield face -->
  <linearGradient id="titaniumr1x8011" x1="0%" y1="0%" x2="100%" y2="100%">
    <stop offset="0%"   stop-color="#585878"/>
    <stop offset="28%"  stop-color="#4444ff" stop-opacity=".88"/>
    <stop offset="55%"  stop-color="#141428"/>
    <stop offset="80%"  stop-color="#181828"/>
    <stop offset="100%" stop-color="#0a0a18"/>
  </linearGradient>
  <!-- Artillery black-chrome — cannon body -->
  <linearGradient id="artilleryr1x8011" x1="0%" y1="0%" x2="0%" y2="100%">
    <stop offset="0%"   stop-color="#383850"/>
    <stop offset="14%"  stop-color="#78789a"/>
    <stop offset="36%"  stop-color="#202034"/>
    <stop offset="65%"  stop-color="#14141e"/>
    <stop offset="100%" stop-color="#0a0a12"/>
  </linearGradient>
  <!-- Energy orb — staff -->
  <radialGradient id="orbr1x8011" cx="35%" cy="35%" r="65%">
    <stop offset="0%"   stop-color="rgba(255,255,255,.9)"/>
    <stop offset="30%"  stop-color="#4444ff"/>
    <stop offset="68%"  stop-color="#141428"/>
    <stop offset="100%" stop-color="rgba(0,0,0,.6)"/>
  </radialGradient>
  <!-- Knuckle plate chrome -->
  <linearGradient id="knuckler1x8011" x1="0%" y1="0%" x2="0%" y2="100%">
    <stop offset="0%"   stop-color="#888aaa"/>
    <stop offset="32%"  stop-color="#4444ff" stop-opacity=".8"/>
    <stop offset="62%"  stop-color="#1a1a2c"/>
    <stop offset="100%" stop-color="#0a0a14"/>
  </linearGradient>

  <!-- Carbon fibre weave texture overlay -->
  <pattern id="carbonr1x8011" width="6" height="6" patternUnits="userSpaceOnUse">
    <rect width="6" height="6" fill="rgba(0,0,0,.08)"/>
    <rect x="0" y="0" width="3" height="3" fill="rgba(255,255,255,.022)"/>
    <rect x="3" y="3" width="3" height="3" fill="rgba(255,255,255,.022)"/>
    <line x1="0" y1="0" x2="3" y2="3" stroke="rgba(255,255,255,.038)" stroke-width=".5"/>
    <line x1="3" y1="0" x2="6" y2="3" stroke="rgba(0,0,0,.055)"       stroke-width=".5"/>
    <line x1="0" y1="3" x2="3" y2="6" stroke="rgba(0,0,0,.055)"       stroke-width=".5"/>
    <line x1="3" y1="3" x2="6" y2="6" stroke="rgba(255,255,255,.038)" stroke-width=".5"/>
  </pattern>

  <!-- Specular metal sheen on armour panels -->
  <filter id="metalr1x8011" x="-5%" y="-5%" width="110%" height="110%">
    <feSpecularLighting surfaceScale="4" specularConstant="1.8"
        specularExponent="42" lighting-color="#ffffff" result="spec">
      <feDistantLight elevation="52" azimuth="38"/>
    </feSpecularLighting>
    <feComposite in="spec" in2="SourceGraphic" operator="in" result="sm"/>
    <feComposite in="SourceGraphic" in2="sm" operator="arithmetic" k1="0" k2="1" k3="0.55" k4="0"/>
  </filter>

  <!-- Sharper specular for weapons — heavier glare -->
  <filter id="wmr1x8011" x="-8%" y="-8%" width="116%" height="116%">
    <feSpecularLighting surfaceScale="6" specularConstant="2.4"
        specularExponent="65" lighting-color="#ffffff" result="spec">
      <feDistantLight elevation="44" azimuth="28"/>
    </feSpecularLighting>
    <feComposite in="spec" in2="SourceGraphic" operator="in" result="sm"/>
    <feComposite in="SourceGraphic" in2="sm" operator="arithmetic" k1="0" k2="1" k3="0.78" k4="0"/>
  </filter>

  <!-- Sketch wobble -->
  <filter id="skr1x8011" x="-8%" y="-8%" width="116%" height="116%">
    <feTurbulence type="fractalNoise" baseFrequency="0.038"
        numOctaves="3" seed="14" result="noise"/>
    <feDisplacementMap in="SourceGraphic" in2="noise" scale="2.6"
        xChannelSelector="R" yChannelSelector="G" result="w"/>
    <feComposite in="w" in2="SourceGraphic" operator="atop"/>
  </filter>

  <!-- Glow: sharp accent -->
  <filter id="glowr1x8011" x="-20%" y="-20%" width="140%" height="140%">
    <feGaussianBlur stdDeviation="3.5" result="b"/>
    <feColorMatrix in="b" type="matrix"
        values="0 0 0 0 1  0 0 0 0 1  0 0 0 0 1  0 0 0 1.8 0" result="boost"/>
    <feMerge><feMergeNode in="boost"/><feMergeNode in="SourceGraphic"/></feMerge>
  </filter>

  <!-- Bloom: wide soft -->
  <filter id="bloomr1x8011" x="-40%" y="-40%" width="180%" height="180%">
    <feGaussianBlur stdDeviation="11" result="b"/>
    <feMerge><feMergeNode in="b"/><feMergeNode in="SourceGraphic"/></feMerge>
  </filter>

  </defs><rect width="1000" height="1000" fill="url(#bgr1x8011)"/><circle cx="500" cy="500" r="420.0" fill="none" stroke="#4444ff" stroke-opacity=".11" stroke-width="42" stroke-dasharray="8,5"/><circle cx="500" cy="500" r="240.0" fill="none" stroke="#141428" stroke-opacity=".09" stroke-width="18"/><line x1="500" y1="500" x2="1500.0" y2="500.0" stroke="#4444ff" stroke-opacity=".035" stroke-width="1.2"/><line x1="500" y1="500" x2="1366.0" y2="1000.0" stroke="#4444ff" stroke-opacity=".035" stroke-width="1.2"/><line x1="500" y1="500" x2="1000.0" y2="1366.0" stroke="#4444ff" stroke-opacity=".035" stroke-width="1.2"/><line x1="500" y1="500" x2="500.0" y2="1500.0" stroke="#4444ff" stroke-opacity=".035" stroke-width="1.2"/><line x1="500" y1="500" x2="0.0" y2="1366.0" stroke="#4444ff" stroke-opacity=".035" stroke-width="1.2"/><line x1="500" y1="500" x2="-366.0" y2="1000.0" stroke="#4444ff" stroke-opacity=".035" stroke-width="1.2"/><line x1="500" y1="500" x2="-500.0" y2="500.0" stroke="#4444ff" stroke-opacity=".035" stroke-width="1.2"/><line x1="500" y1="500" x2="-366.0" y2="-0.0" stroke="#4444ff" stroke-opacity=".035" stroke-width="1.2"/><line x1="500" y1="500" x2="-0.0" y2="-366.0" stroke="#4444ff" stroke-opacity=".035" stroke-width="1.2"/><line x1="500" y1="500" x2="500.0" y2="-500.0" stroke="#4444ff" stroke-opacity=".035" stroke-width="1.2"/><line x1="500" y1="500" x2="1000.0" y2="-366.0" stroke="#4444ff" stroke-opacity=".035" stroke-width="1.2"/><line x1="500" y1="500" x2="1366.0" y2="-0.0" stroke="#4444ff" stroke-opacity=".035" stroke-width="1.2"/><ellipse cx="500.0" cy="892.0" rx="350.0" ry="65.0" fill="rgba(0,0,0,.7)" filter="url(#bloomr1x8011)"/><ellipse cx="500.0" cy="889.0" rx="220.0" ry="34.0" fill="rgba(0,0,0,.45)"/><ellipse cx="500.0" cy="520.0" rx="320.0" ry="480.0" fill="#00e5ff" fill-opacity=".042" filter="url(#bloomr1x8011)"/><circle cx="593.0" cy="306.7" r="0.7" fill="#00e5ff" fill-opacity="0.47" filter="url(#glowr1x8011)"/><circle cx="642.5" cy="582.0" r="2.6" fill="#00e5ff" fill-opacity="0.86" filter="url(#glowr1x8011)"/><circle cx="300.4" cy="229.2" r="0.8" fill="#00e5ff" fill-opacity="0.74" filter="url(#glowr1x8011)"/><circle cx="408.7" cy="592.9" r="4.2" fill="#00e5ff" fill-opacity="0.46" filter="url(#glowr1x8011)"/><circle cx="637.8" cy="524.5" r="0.9" fill="#00e5ff" fill-opacity="0.85" filter="url(#glowr1x8011)"/><circle cx="683.2" cy="307.5" r="1.2" fill="#00e5ff" fill-opacity="0.48" filter="url(#glowr1x8011)"/><circle cx="514.2" cy="333.1" r="3.4" fill="#00e5ff" fill-opacity="0.52" filter="url(#glowr1x8011)"/><circle cx="544.4" cy="375.5" r="2.0" fill="#00e5ff" fill-opacity="0.82" filter="url(#glowr1x8011)"/><circle cx="428.2" cy="563.1" r="1.4" fill="#00e5ff" fill-opacity="0.70" filter="url(#glowr1x8011)"/><circle cx="661.2" cy="674.5" r="3.9" fill="#00e5ff" fill-opacity="0.49" filter="url(#glowr1x8011)"/><circle cx="394.8" cy="638.8" r="3.2" fill="#00e5ff" fill-opacity="0.43" filter="url(#glowr1x8011)"/><circle cx="455.1" cy="751.9" r="0.6" fill="#00e5ff" fill-opacity="0.56" filter="url(#glowr1x8011)"/><circle cx="292.2" cy="209.2" r="1.7" fill="#00e5ff" fill-opacity="0.48" filter="url(#glowr1x8011)"/><circle cx="727.9" cy="277.8" r="2.3" fill="#00e5ff" fill-opacity="0.52" filter="url(#glowr1x8011)"/><path d="M318.8,301.5 Q361.7,495.7 380.3,669.8" stroke="#00e5ff" stroke-opacity="0.53" stroke-width="2.6" fill="none" filter="url(#glowr1x8011)"/><path d="M515.7,162.1 Q486.5,437.9 339.8,675.2" stroke="#00e5ff" stroke-opacity="0.50" stroke-width="2.2" fill="none" filter="url(#glowr1x8011)"/><path d="M492.5,250.2 Q463.7,438.4 655.5,681.2" stroke="#00e5ff" stroke-opacity="0.65" stroke-width="2.6" fill="none" filter="url(#glowr1x8011)"/><path d="M582.2,307.7 Q550.2,526.6 582.1,778.3" stroke="#00e5ff" stroke-opacity="0.57" stroke-width="1.0" fill="none" filter="url(#glowr1x8011)"/><path d="M335.0,224.5 Q347.9,440.1 486.6,710.1" stroke="#00e5ff" stroke-opacity="0.58" stroke-width="2.2" fill="none" filter="url(#glowr1x8011)"/><polygon points="398.1,664.3 489.2,662.7 479.0,876.8 387.8,876.5" fill="url(#suitr1x8011)" stroke="#4444ff" stroke-width="2.2" filter="url(#skr1x8011) url(#metalr1x8011)"/><polygon points="400.1,662.3 489.3,662.6 480.3,876.3 386.4,876.6" fill="url(#carbonr1x8011)"/><polygon points="393.4,722.2 494.7,722.9 485.1,789.9 385.0,787.2" fill="url(#bevelr1x8011)" fill-opacity=".5" stroke="#4444ff" stroke-width="1.4" filter="url(#skr1x8011)"/><polygon points="511.1,664.0 601.6,664.2 613.1,876.2 519.7,876.7" fill="url(#suitr1x8011)" stroke="#4444ff" stroke-width="2.2" filter="url(#skr1x8011) url(#metalr1x8011)"/><polygon points="509.6,664.1 599.7,663.1 613.8,876.8 518.1,876.0" fill="url(#carbonr1x8011)"/><polygon points="507.9,722.5 606.7,722.8 616.3,786.6 515.1,790.0" fill="url(#bevelr1x8011)" fill-opacity=".5" stroke="#4444ff" stroke-width="1.4" filter="url(#skr1x8011)"/><rect x="391.8" y="839.0" width="100.3" height="24.7" fill="url(#bevelr1x8011)" stroke="#4444ff" stroke-width="1" filter="url(#skr1x8011)"/><rect x="507.0"  y="840.1" width="100.3" height="24.7" fill="url(#bevelr1x8011)" stroke="#4444ff" stroke-width="1" filter="url(#skr1x8011)"/><polygon points="370.2,879.0 496.5,876.2 505.0,921.6 361.9,921.3" fill="#141428" stroke="#4444ff" stroke-width="2" filter="url(#skr1x8011)"/><polygon points="502.2,876.9 631.6,878.5 636.5,922.4 495.6,920.8" fill="#141428" stroke="#4444ff" stroke-width="2" filter="url(#skr1x8011)"/><polygon points="305.7,631.9 695.0,634.2 637.4,681.3 363.0,683.6" fill="#4444ff" fill-opacity=".52" stroke="#4444ff" stroke-width="2" filter="url(#skr1x8011)"/><rect x="462.6" y="637.6" width="72.0" height="42.0" fill="url(#bevelr1x8011)" stroke="#4444ff" stroke-width="1.4" filter="url(#glowr1x8011)"/><rect x="485.9" y="642.2" width="28.0" height="22.0" rx="1" fill="rgba(255,255,255,.48)"/><polygon points="153.8,468.3 235.7,468.0 257.3,733.2 128.9,736.0" fill="url(#suitr1x8011)" stroke="#4444ff" stroke-width="2.2" filter="url(#skr1x8011) url(#metalr1x8011)"/><polygon points="171.8,432.8 254.1,432.2 244.1,509.9 158.0,511.6" fill="url(#bevelr1x8011)" fill-opacity=".72" stroke="#4444ff" stroke-width="2.2" filter="url(#skr1x8011)"/><polygon points="160.4,621.7 244.9,621.1 239.8,659.9 165.6,661.6" fill="#4444ff" fill-opacity=".42" stroke="#4444ff" stroke-width="1" filter="url(#skr1x8011)"/><polygon points="763.6,465.5 845.7,467.3 871.4,733.9 742.8,736.5" fill="url(#suitr1x8011)" stroke="#4444ff" stroke-width="2.2" filter="url(#skr1x8011) url(#metalr1x8011)"/><polygon points="746.2,432.1 825.9,433.2 839.6,511.4 755.4,509.3" fill="url(#bevelr1x8011)" fill-opacity=".72" stroke="#4444ff" stroke-width="2.2" filter="url(#skr1x8011)"/><polygon points="758.6,621.4 839.7,620.2 835.3,660.2 762.5,659.4" fill="#4444ff" fill-opacity=".42" stroke="#4444ff" stroke-width="1" filter="url(#skr1x8011)"/><rect x="118.5"  y="700.2" width="135.3" height="85.0" rx="4" fill="url(#bevelr1x8011)" stroke="#4444ff" stroke-width="1.8" filter="url(#skr1x8011)"/><rect x="746.9"   y="699.4" width="135.3" height="85.0" rx="4" fill="url(#bevelr1x8011)" stroke="#4444ff" stroke-width="1.8" filter="url(#skr1x8011)"/><line x1="151.4" y1="703.5" x2="148.4" y2="783.3" stroke="#4444ff" stroke-opacity=".38" stroke-width="1"/><line x1="778.6" y1="701.7" x2="776.4" y2="782.9" stroke="#4444ff" stroke-opacity=".38" stroke-width="1"/><line x1="184.0" y1="703.4" x2="182.1" y2="783.7" stroke="#4444ff" stroke-opacity=".38" stroke-width="1"/><line x1="812.2" y1="701.8" x2="809.6" y2="785.2" stroke="#4444ff" stroke-opacity=".38" stroke-width="1"/><line x1="215.9" y1="702.0" x2="216.7" y2="785.3" stroke="#4444ff" stroke-opacity=".38" stroke-width="1"/><line x1="844.7" y1="702.3" x2="843.8" y2="785.2" stroke="#4444ff" stroke-opacity=".38" stroke-width="1"/><polygon points="235.9,415.9 765.1,417.7 721.6,662.3 277.8,660.9" fill="url(#suitr1x8011)" stroke="#4444ff" stroke-width="2.6" filter="url(#skr1x8011) url(#metalr1x8011)"/><polygon points="235.4,417.5 765.5,418.3 722.5,663.6 275.6,663.3" fill="url(#carbonr1x8011)"/><polygon points="367.1,416.6 633.0,415.7 611.6,514.3 388.0,514.9" fill="url(#suitHir1x8011)"/><line x1="362.9" y1="471.1" x2="639.0" y2="473.1" stroke="#4444ff" stroke-opacity=".52" stroke-width="1.3" filter="url(#skr1x8011)"/><line x1="400.9" y1="550.3" x2="602.1" y2="548.6" stroke="#4444ff" stroke-opacity=".52" stroke-width="1.3" filter="url(#skr1x8011)"/><line x1="268.5" y1="490.9" x2="318.4" y2="489.2" stroke="#4444ff" stroke-opacity=".62" stroke-width="1.8"/><line x1="678.6" y1="492.2" x2="734.9" y2="492.4" stroke="#4444ff" stroke-opacity=".62" stroke-width="1.8"/><line x1="265.7" y1="524.0" x2="319.9" y2="523.8" stroke="#4444ff" stroke-opacity=".62" stroke-width="1.8"/><line x1="679.9" y1="524.1" x2="731.9" y2="523.3" stroke="#4444ff" stroke-opacity=".62" stroke-width="1.8"/><line x1="265.5" y1="555.5" x2="320.2" y2="553.8" stroke="#4444ff" stroke-opacity=".62" stroke-width="1.8"/><line x1="681.6" y1="554.4" x2="731.5" y2="553.5" stroke="#4444ff" stroke-opacity=".62" stroke-width="1.8"/><line x1="265.1" y1="585.7" x2="318.9" y2="587.5" stroke="#4444ff" stroke-opacity=".62" stroke-width="1.8"/><line x1="681.2" y1="587.1" x2="733.0" y2="586.8" stroke="#4444ff" stroke-opacity=".62" stroke-width="1.8"/><g filter="url(#glowr1x8011)"><polygon points="500.1,452.1 541.7,510.7 501.5,568.3 459.7,510.5" fill="#4444ff" stroke="#0e001e" stroke-width="1.4" filter="url(#skr1x8011)"/><polygon points="501.6,451.2 542.4,510.2 499.1,567.0 457.1,511.0" fill="url(#suitHir1x8011)" opacity=".45"/></g><g><line x1="897.5831491602213" y1="792.959307078179" x2="912.913858389631" y2="109.89333359468726" stroke="url(#chromer1x8011)" stroke-width="28.0" stroke-linecap="round" filter="url(#wmr1x8011)"/><line x1="901.3510244420357" y1="769.8086851325817" x2="913.5165827764757" y2="130.2806432747282" stroke="rgba(255,255,255,.42)" stroke-width="5.0" stroke-linecap="round"/><polygon points="868.1,152.6 934.8,152.2 916.1,-8.3" fill="url(#blader1x8011)" stroke="#4444ff" stroke-width="1.8" filter="url(#wmr1x8011)"/><line x1="935.8" y1="151.4" x2="915.8" y2="-8.6" stroke="rgba(255,255,255,.72)" stroke-width="1.6"/><rect x="877.9615568560176" y="422.37966023646294" width="40.0" height="20.0" fill="url(#bevelr1x8011)" stroke="#4444ff" stroke-width="1" filter="url(#wmr1x8011)"/><rect x="879.2326011428237" y="512.5807972649112" width="40.0" height="20.0" fill="url(#bevelr1x8011)" stroke="#4444ff" stroke-width="1" filter="url(#wmr1x8011)"/><rect x="878.3499238812924" y="601.5558587259612" width="40.0" height="20.0" fill="url(#bevelr1x8011)" stroke="#4444ff" stroke-width="1" filter="url(#wmr1x8011)"/><rect x="877.1916659923829" y="692.1740068600512" width="40.0" height="20.0" fill="url(#bevelr1x8011)" stroke="#4444ff" stroke-width="1" filter="url(#wmr1x8011)"/><ellipse cx="897.5065041038766" cy="792.9216264487244" rx="22.0" ry="15.0" fill="url(#bevelr1x8011)" stroke="#4444ff" stroke-width="1" filter="url(#wmr1x8011)"/></g><rect x="450.3090765103698" y="555.9361186342313" width="100.0"  height="56.0" fill="#141428" stroke="#4444ff" stroke-width="2.2" filter="url(#skr1x8011)"/><rect x="424.82536985091866" y="574.8069740042091" width="152.0" height="26.0" fill="url(#bevelr1x8011)" fill-opacity=".65" stroke="#4444ff" stroke-width="1.2" filter="url(#skr1x8011)"/><polygon points="306.8,379.9 350.5,294.0 501.7,277.0 649.0,296.1 691.6,381.3 667.2,503.5 500.9,563.4 330.0,504.2" fill="url(#suitr1x8011)" stroke="#4444ff" stroke-width="2.8" filter="url(#skr1x8011) url(#metalr1x8011)"/><polygon points="307.3,380.2 350.5,295.5 498.5,276.8 650.4,295.9 691.4,378.8 667.6,504.6 499.2,564.0 332.5,502.5" fill="url(#carbonr1x8011)"/><polygon points="381.9,302.8 499.9,287.7 617.5,301.1 607.1,381.8 391.7,379.0" fill="url(#suitHir1x8011)"/><polygon points="379.6,381.3 364.5,424.5 432.0,505.3 501.1,528.5 567.2,502.2 632.7,426.1 620.2,378.8" fill="#0e001e" fill-opacity=".88" stroke="#4444ff" stroke-width="1.8" filter="url(#skr1x8011)"/><polygon points="379.6,411.2 477.0,412.1 485.0,441.0 388.4,441.0" fill="#4444ff" filter="url(#glowr1x8011)"/><polygon points="522.6,411.8 619.2,410.4 610.8,439.4 516.4,440.1" fill="#4444ff" filter="url(#glowr1x8011)"/><ellipse cx="430.9" cy="425.7" rx="38.4"  ry="8.2" fill="#ffffff" opacity=".88"/><ellipse cx="569.1" cy="425.7" rx="38.4"  ry="8.2" fill="#ffffff" opacity=".88"/><line x1="484.3589154897816" y1="413.41318465238436" x2="515.554609063957" y2="412.03769172923637" stroke="#4444ff" stroke-opacity=".52" stroke-width="2"/><line x1="485.4871817171201" y1="436.52611147966235" x2="514.7136709669977" y2="439.52828292455524" stroke="#4444ff" stroke-opacity=".52" stroke-width="2"/><line x1="501.38987674508246" y1="455.2142278113402" x2="498.50422137007115" y2="482.61186626665295" stroke="#4444ff" stroke-opacity=".58" stroke-width="2.2" filter="url(#skr1x8011)"/><line x1="455.3084124970064" y1="492.22691673859947" x2="454.72062833689154" y2="520.0426785420626" stroke="#4444ff" stroke-opacity=".52" stroke-width="1.5" filter="url(#skr1x8011)"/><line x1="476.0273369554803" y1="491.8744790757074" x2="477.8020123971067" y2="520.7395244245417" stroke="#4444ff" stroke-opacity=".52" stroke-width="1.5" filter="url(#skr1x8011)"/><line x1="499.8314165509306" y1="492.05732690207657" x2="500.0681188444607" y2="519.529552972503" stroke="#4444ff" stroke-opacity=".52" stroke-width="1.5" filter="url(#skr1x8011)"/><line x1="524.3974320591985" y1="490.269245037157" x2="521.7410132207535" y2="521.4862521225587" stroke="#4444ff" stroke-opacity=".52" stroke-width="1.5" filter="url(#skr1x8011)"/><line x1="545.187476278767" y1="490.24886863222343" x2="545.9930965980701" y2="520.448231524881" stroke="#4444ff" stroke-opacity=".52" stroke-width="1.5" filter="url(#skr1x8011)"/><polygon points="433.3,503.1 567.1,503.1 554.8,558.2 444.9,558.0" fill="#141428" fill-opacity=".72" stroke="#4444ff" stroke-width="1.3" filter="url(#skr1x8011)"/><polygon points="316.3,304.3 360.9,304.2 340.2,195.5" fill="url(#bevelr1x8011)" fill-opacity=".95" stroke="#4444ff" stroke-width="1.6" filter="url(#skr1x8011) url(#glowr1x8011)"/><polygon points="397.1,304.7 442.9,306.1 420.8,209.2" fill="url(#bevelr1x8011)" fill-opacity=".95" stroke="#4444ff" stroke-width="1.6" filter="url(#skr1x8011) url(#glowr1x8011)"/><polygon points="475.4,306.4 523.8,304.3 501.8,222.2" fill="url(#bevelr1x8011)" fill-opacity=".95" stroke="#4444ff" stroke-width="1.6" filter="url(#skr1x8011) url(#glowr1x8011)"/><polygon points="556.4,304.0 604.5,303.5 581.5,208.7" fill="url(#bevelr1x8011)" fill-opacity=".95" stroke="#4444ff" stroke-width="1.6" filter="url(#skr1x8011) url(#glowr1x8011)"/><polygon points="639.6,306.2 683.7,305.4 660.6,196.6" fill="url(#bevelr1x8011)" fill-opacity=".95" stroke="#4444ff" stroke-width="1.6" filter="url(#skr1x8011) url(#glowr1x8011)"/><text x="30.0"  y="975.0" font-family="monospace" font-weight="bold" font-size="22.0" fill="rgba(255,255,255,.22)">#0001</text><text x="500.0"   y="975.0" text-anchor="middle" font-family="monospace" font-weight="bold" font-size="22.0" fill="#4444ff" fill-opacity=".48">OBSIDIAN RANGER</text><text x="970.0" y="975.0" text-anchor="end"    font-family="monospace" font-weight="bold" font-size="22.0" fill="#4444ff" fill-opacity=".32">MECH RANGERS</text></svg>