<svg xmlns="http://www.w3.org/2000/svg" viewBox="0 0 1000 1000" width="1000" height="1000" shape-rendering="geometricPrecision"><defs>

  <!-- Scene gradients -->
  <radialGradient id="bgr1x8029" cx="50%" cy="42%" r="72%">
    <stop offset="0%"   stop-color="#0a1420"/>
    <stop offset="100%" stop-color="#050d14"/>
  </radialGradient>
  <linearGradient id="suitr1x8029" x1="8%" y1="0%" x2="92%" y2="100%">
    <stop offset="0%"   stop-color="#2060ff" stop-opacity=".95"/>
    <stop offset="45%"  stop-color="#003ccc"/>
    <stop offset="100%" stop-color="#050d14"/>
  </linearGradient>
  <linearGradient id="suitHir1x8029" x1="0%" y1="0%" x2="0%" y2="100%">
    <stop offset="0%"   stop-color="rgba(255,255,255,.28)"/>
    <stop offset="60%"  stop-color="rgba(255,255,255,.04)"/>
    <stop offset="100%" stop-color="rgba(255,255,255,0)"/>
  </linearGradient>
  <!-- Bevel: bright top, dark bottom for armour panels -->
  <linearGradient id="bevelr1x8029" x1="0%" y1="0%" x2="0%" y2="100%">
    <stop offset="0%"   stop-color="rgba(255,255,255,.55)"/>
    <stop offset="30%"  stop-color="#2060ff"/>
    <stop offset="70%"  stop-color="#003ccc"/>
    <stop offset="100%" stop-color="rgba(0,0,0,.5)"/>
  </linearGradient>

  <!-- Weapon: cold steel blade sweep -->
  <linearGradient id="blader1x8029" x1="0%" y1="0%" x2="100%" y2="0%">
    <stop offset="0%"   stop-color="#0e0e20"/>
    <stop offset="16%"  stop-color="#3e3e58"/>
    <stop offset="34%"  stop-color="#c8c8e0"/>
    <stop offset="50%"  stop-color="#f5f5ff"/>
    <stop offset="66%"  stop-color="#b8b8d0"/>
    <stop offset="84%"  stop-color="#2e2e48"/>
    <stop offset="100%" stop-color="#08080e"/>
  </linearGradient>
  <!-- Blade tip brightening -->
  <linearGradient id="bladeTipr1x8029" x1="0%" y1="100%" x2="0%" y2="0%">
    <stop offset="0%"   stop-color="rgba(255,255,255,0)"/>
    <stop offset="55%"  stop-color="rgba(255,255,255,.1)"/>
    <stop offset="100%" stop-color="rgba(255,255,255,.55)"/>
  </linearGradient>
  <!-- Gunmetal anodised — blaster body -->
  <linearGradient id="gunmetalr1x8029" x1="0%" y1="0%" x2="0%" y2="100%">
    <stop offset="0%"   stop-color="#46465e"/>
    <stop offset="18%"  stop-color="#828296"/>
    <stop offset="42%"  stop-color="#26263a"/>
    <stop offset="72%"  stop-color="#16162a"/>
    <stop offset="100%" stop-color="#0c0c18"/>
  </linearGradient>
  <!-- Brushed steel tube — barrel/rod -->
  <linearGradient id="barrelr1x8029" x1="0%" y1="0%" x2="100%" y2="0%">
    <stop offset="0%"   stop-color="#0a0a14"/>
    <stop offset="24%"  stop-color="#585875"/>
    <stop offset="50%"  stop-color="#a8a8c8"/>
    <stop offset="76%"  stop-color="#383852"/>
    <stop offset="100%" stop-color="#0a0a14"/>
  </linearGradient>
  <!-- Chrome rod — lance shaft -->
  <linearGradient id="chromer1x8029" x1="0%" y1="0%" x2="100%" y2="0%">
    <stop offset="0%"   stop-color="#0c0c18"/>
    <stop offset="20%"  stop-color="#686888"/>
    <stop offset="44%"  stop-color="#e0e0f0"/>
    <stop offset="56%"  stop-color="#c0c0d8"/>
    <stop offset="80%"  stop-color="#28283e"/>
    <stop offset="100%" stop-color="#0c0c18"/>
  </linearGradient>
  <!-- Titanium plate — shield face -->
  <linearGradient id="titaniumr1x8029" x1="0%" y1="0%" x2="100%" y2="100%">
    <stop offset="0%"   stop-color="#585878"/>
    <stop offset="28%"  stop-color="#2060ff" stop-opacity=".88"/>
    <stop offset="55%"  stop-color="#003ccc"/>
    <stop offset="80%"  stop-color="#181828"/>
    <stop offset="100%" stop-color="#0a0a18"/>
  </linearGradient>
  <!-- Artillery black-chrome — cannon body -->
  <linearGradient id="artilleryr1x8029" x1="0%" y1="0%" x2="0%" y2="100%">
    <stop offset="0%"   stop-color="#383850"/>
    <stop offset="14%"  stop-color="#78789a"/>
    <stop offset="36%"  stop-color="#202034"/>
    <stop offset="65%"  stop-color="#14141e"/>
    <stop offset="100%" stop-color="#0a0a12"/>
  </linearGradient>
  <!-- Energy orb — staff -->
  <radialGradient id="orbr1x8029" cx="35%" cy="35%" r="65%">
    <stop offset="0%"   stop-color="rgba(255,255,255,.9)"/>
    <stop offset="30%"  stop-color="#2060ff"/>
    <stop offset="68%"  stop-color="#003ccc"/>
    <stop offset="100%" stop-color="rgba(0,0,0,.6)"/>
  </radialGradient>
  <!-- Knuckle plate chrome -->
  <linearGradient id="knuckler1x8029" x1="0%" y1="0%" x2="0%" y2="100%">
    <stop offset="0%"   stop-color="#888aaa"/>
    <stop offset="32%"  stop-color="#2060ff" stop-opacity=".8"/>
    <stop offset="62%"  stop-color="#1a1a2c"/>
    <stop offset="100%" stop-color="#0a0a14"/>
  </linearGradient>

  <!-- Carbon fibre weave texture overlay -->
  <pattern id="carbonr1x8029" width="6" height="6" patternUnits="userSpaceOnUse">
    <rect width="6" height="6" fill="rgba(0,0,0,.08)"/>
    <rect x="0" y="0" width="3" height="3" fill="rgba(255,255,255,.022)"/>
    <rect x="3" y="3" width="3" height="3" fill="rgba(255,255,255,.022)"/>
    <line x1="0" y1="0" x2="3" y2="3" stroke="rgba(255,255,255,.038)" stroke-width=".5"/>
    <line x1="3" y1="0" x2="6" y2="3" stroke="rgba(0,0,0,.055)"       stroke-width=".5"/>
    <line x1="0" y1="3" x2="3" y2="6" stroke="rgba(0,0,0,.055)"       stroke-width=".5"/>
    <line x1="3" y1="3" x2="6" y2="6" stroke="rgba(255,255,255,.038)" stroke-width=".5"/>
  </pattern>

  <!-- Specular metal sheen on armour panels -->
  <filter id="metalr1x8029" x="-5%" y="-5%" width="110%" height="110%">
    <feSpecularLighting surfaceScale="4" specularConstant="1.8"
        specularExponent="42" lighting-color="#ffffff" result="spec">
      <feDistantLight elevation="52" azimuth="38"/>
    </feSpecularLighting>
    <feComposite in="spec" in2="SourceGraphic" operator="in" result="sm"/>
    <feComposite in="SourceGraphic" in2="sm" operator="arithmetic" k1="0" k2="1" k3="0.55" k4="0"/>
  </filter>

  <!-- Sharper specular for weapons — heavier glare -->
  <filter id="wmr1x8029" x="-8%" y="-8%" width="116%" height="116%">
    <feSpecularLighting surfaceScale="6" specularConstant="2.4"
        specularExponent="65" lighting-color="#ffffff" result="spec">
      <feDistantLight elevation="44" azimuth="28"/>
    </feSpecularLighting>
    <feComposite in="spec" in2="SourceGraphic" operator="in" result="sm"/>
    <feComposite in="SourceGraphic" in2="sm" operator="arithmetic" k1="0" k2="1" k3="0.78" k4="0"/>
  </filter>

  <!-- Sketch wobble -->
  <filter id="skr1x8029" x="-8%" y="-8%" width="116%" height="116%">
    <feTurbulence type="fractalNoise" baseFrequency="0.038"
        numOctaves="3" seed="70" result="noise"/>
    <feDisplacementMap in="SourceGraphic" in2="noise" scale="2.6"
        xChannelSelector="R" yChannelSelector="G" result="w"/>
    <feComposite in="w" in2="SourceGraphic" operator="atop"/>
  </filter>

  <!-- Glow: sharp accent -->
  <filter id="glowr1x8029" x="-20%" y="-20%" width="140%" height="140%">
    <feGaussianBlur stdDeviation="3.5" result="b"/>
    <feColorMatrix in="b" type="matrix"
        values="0 0 0 0 1  0 0 0 0 1  0 0 0 0 1  0 0 0 1.8 0" result="boost"/>
    <feMerge><feMergeNode in="boost"/><feMergeNode in="SourceGraphic"/></feMerge>
  </filter>

  <!-- Bloom: wide soft -->
  <filter id="bloomr1x8029" x="-40%" y="-40%" width="180%" height="180%">
    <feGaussianBlur stdDeviation="11" result="b"/>
    <feMerge><feMergeNode in="b"/><feMergeNode in="SourceGraphic"/></feMerge>
  </filter>

  </defs><rect width="1000" height="1000" fill="url(#bgr1x8029)"/><polygon points="205.81096491776407,10.851967423222959 219.47328045312315,-36.989102146588266 234.94402328319848,-0.03306009341031313" fill="#2060ff" fill-opacity=".055" stroke="#2060ff" stroke-opacity=".1" stroke-width="1"/><polygon points="894.5381384529173,215.03204239998013 917.4438835941255,174.34207501169294 926.0960751706734,214.42607819102705" fill="#2060ff" fill-opacity=".055" stroke="#2060ff" stroke-opacity=".1" stroke-width="1"/><polygon points="496.1103678448126,263.36600000970066 528.6987666068599,232.14482602477074 550.558345856145,266.8597858492285" fill="#2060ff" fill-opacity=".055" stroke="#2060ff" stroke-opacity=".1" stroke-width="1"/><polygon points="705.2620696136728,359.9008975410834 740.5882778093219,333.07139877509326 758.0787546169013,365.8340226439759" fill="#2060ff" fill-opacity=".055" stroke="#2060ff" stroke-opacity=".1" stroke-width="1"/><polygon points="320.35395542159677,165.79602145589888 346.95207256637514,130.38096980936825 379.2419083863497,174.26117438357323" fill="#2060ff" fill-opacity=".055" stroke="#2060ff" stroke-opacity=".1" stroke-width="1"/><polygon points="232.6817498076707,434.48658449109644 246.95882035698742,402.1931192865595 272.98501200787723,431.24129470437765" fill="#2060ff" fill-opacity=".055" stroke="#2060ff" stroke-opacity=".1" stroke-width="1"/><polygon points="945.3614237578586,119.87815687898546 973.1318485951051,77.92667986638844 986.6308469446376,120.95641336403787" fill="#2060ff" fill-opacity=".055" stroke="#2060ff" stroke-opacity=".1" stroke-width="1"/><polygon points="995.705874520354,185.2242392487824 1012.5656973551959,159.36492353491485 1045.928224532865,192.97209918964654" fill="#2060ff" fill-opacity=".055" stroke="#2060ff" stroke-opacity=".1" stroke-width="1"/><ellipse cx="500.0" cy="892.0" rx="350.0" ry="65.0" fill="rgba(0,0,0,.7)" filter="url(#bloomr1x8029)"/><ellipse cx="500.0" cy="889.0" rx="220.0" ry="34.0" fill="rgba(0,0,0,.45)"/><ellipse cx="500.0" cy="520.0" rx="320.0" ry="480.0" fill="#00e5ff" fill-opacity=".042" filter="url(#bloomr1x8029)"/><circle cx="437.4" cy="467.6" r="2.4" fill="#00e5ff" fill-opacity="0.80" filter="url(#glowr1x8029)"/><circle cx="381.5" cy="766.4" r="2.5" fill="#00e5ff" fill-opacity="0.43" filter="url(#glowr1x8029)"/><circle cx="725.8" cy="590.6" r="3.2" fill="#00e5ff" fill-opacity="0.43" filter="url(#glowr1x8029)"/><circle cx="528.2" cy="590.8" r="3.4" fill="#00e5ff" fill-opacity="0.58" filter="url(#glowr1x8029)"/><circle cx="601.6" cy="423.8" r="1.5" fill="#00e5ff" fill-opacity="0.58" filter="url(#glowr1x8029)"/><circle cx="553.1" cy="781.1" r="2.5" fill="#00e5ff" fill-opacity="0.40" filter="url(#glowr1x8029)"/><circle cx="523.8" cy="260.8" r="1.2" fill="#00e5ff" fill-opacity="0.83" filter="url(#glowr1x8029)"/><circle cx="714.0" cy="269.1" r="1.3" fill="#00e5ff" fill-opacity="0.55" filter="url(#glowr1x8029)"/><circle cx="680.9" cy="361.2" r="2.5" fill="#00e5ff" fill-opacity="0.86" filter="url(#glowr1x8029)"/><circle cx="438.3" cy="500.4" r="3.9" fill="#00e5ff" fill-opacity="0.42" filter="url(#glowr1x8029)"/><circle cx="250.5" cy="523.3" r="2.7" fill="#00e5ff" fill-opacity="0.52" filter="url(#glowr1x8029)"/><circle cx="480.2" cy="302.9" r="1.0" fill="#00e5ff" fill-opacity="0.51" filter="url(#glowr1x8029)"/><circle cx="731.6" cy="610.1" r="2.6" fill="#00e5ff" fill-opacity="0.47" filter="url(#glowr1x8029)"/><circle cx="277.3" cy="698.6" r="4.2" fill="#00e5ff" fill-opacity="0.85" filter="url(#glowr1x8029)"/><path d="M614.1,384.2 Q583.8,567.5 625.4,715.5" stroke="#00e5ff" stroke-opacity="0.52" stroke-width="2.1" fill="none" filter="url(#glowr1x8029)"/><path d="M405.8,328.8 Q369.3,542.4 369.3,794.5" stroke="#00e5ff" stroke-opacity="0.61" stroke-width="2.0" fill="none" filter="url(#glowr1x8029)"/><path d="M670.4,285.2 Q651.7,487.2 705.3,669.9" stroke="#00e5ff" stroke-opacity="0.62" stroke-width="1.9" fill="none" filter="url(#glowr1x8029)"/><path d="M401.6,190.3 Q377.9,465.1 295.1,713.3" stroke="#00e5ff" stroke-opacity="0.53" stroke-width="1.9" fill="none" filter="url(#glowr1x8029)"/><path d="M358.8,329.5 Q362.3,543.2 548.4,803.3" stroke="#00e5ff" stroke-opacity="0.75" stroke-width="0.8" fill="none" filter="url(#glowr1x8029)"/><polygon points="397.5,661.1 488.9,661.3 481.6,876.4 388.4,876.2" fill="url(#suitr1x8029)" stroke="#2060ff" stroke-width="2.2" filter="url(#skr1x8029) url(#metalr1x8029)"/><polygon points="399.9,662.7 490.2,661.7 480.6,876.8 388.8,875.9" fill="url(#carbonr1x8029)"/><polygon points="393.2,724.4 492.8,725.5 483.0,786.9 383.2,787.1" fill="url(#bevelr1x8029)" fill-opacity=".5" stroke="#2060ff" stroke-width="1.4" filter="url(#skr1x8029)"/><polygon points="510.0,662.2 602.5,662.0 611.7,877.9 518.5,877.8" fill="url(#suitr1x8029)" stroke="#2060ff" stroke-width="2.2" filter="url(#skr1x8029) url(#metalr1x8029)"/><polygon points="512.3,663.8 600.9,661.6 611.3,877.8 519.8,875.8" fill="url(#carbonr1x8029)"/><polygon points="507.3,724.0 606.8,723.2 615.2,788.2 517.6,788.3" fill="url(#bevelr1x8029)" fill-opacity=".5" stroke="#2060ff" stroke-width="1.4" filter="url(#skr1x8029)"/><rect x="390.8" y="838.2" width="100.3" height="24.7" fill="url(#bevelr1x8029)" stroke="#2060ff" stroke-width="1" filter="url(#skr1x8029)"/><rect x="507.2"  y="839.5" width="100.3" height="24.7" fill="url(#bevelr1x8029)" stroke="#2060ff" stroke-width="1" filter="url(#skr1x8029)"/><polygon points="370.9,876.4 495.4,876.4 505.2,919.8 362.9,922.2" fill="#003ccc" stroke="#2060ff" stroke-width="2" filter="url(#skr1x8029)"/><polygon points="503.5,878.7 631.0,877.0 636.0,921.4 495.6,922.7" fill="#003ccc" stroke="#2060ff" stroke-width="2" filter="url(#skr1x8029)"/><polygon points="302.5,633.2 696.4,634.2 638.6,682.6 363.2,682.8" fill="#2060ff" fill-opacity=".52" stroke="#2060ff" stroke-width="2" filter="url(#skr1x8029)"/><rect x="463.6" y="637.3" width="72.0" height="42.0" fill="url(#bevelr1x8029)" stroke="#2060ff" stroke-width="1.4" filter="url(#glowr1x8029)"/><rect x="487.6" y="640.4" width="28.0" height="22.0" rx="1" fill="rgba(255,255,255,.48)"/><polygon points="154.4,466.8 233.6,466.3 257.5,734.6 129.9,734.4" fill="url(#suitr1x8029)" stroke="#2060ff" stroke-width="2.2" filter="url(#skr1x8029) url(#metalr1x8029)"/><polygon points="174.1,433.0 254.5,432.5 242.2,509.5 158.9,512.1" fill="url(#bevelr1x8029)" fill-opacity=".72" stroke="#2060ff" stroke-width="2.2" filter="url(#skr1x8029)"/><polygon points="161.8,623.5 241.5,622.6 237.4,660.1 164.6,659.5" fill="#2060ff" fill-opacity=".42" stroke="#2060ff" stroke-width="1" filter="url(#skr1x8029)"/><polygon points="765.8,467.6 848.3,464.9 871.6,734.6 740.7,735.3" fill="url(#suitr1x8029)" stroke="#2060ff" stroke-width="2.2" filter="url(#skr1x8029) url(#metalr1x8029)"/><polygon points="747.2,432.4 825.6,431.6 839.7,510.9 755.7,510.9" fill="url(#bevelr1x8029)" fill-opacity=".72" stroke="#2060ff" stroke-width="2.2" filter="url(#skr1x8029)"/><polygon points="757.2,620.3 838.2,620.7 833.3,662.3 761.4,661.1" fill="#2060ff" fill-opacity=".42" stroke="#2060ff" stroke-width="1" filter="url(#skr1x8029)"/><rect x="120.0"  y="700.7" width="135.3" height="85.0" rx="4" fill="url(#bevelr1x8029)" stroke="#2060ff" stroke-width="1.8" filter="url(#skr1x8029)"/><rect x="748.7"   y="700.0" width="135.3" height="85.0" rx="4" fill="url(#bevelr1x8029)" stroke="#2060ff" stroke-width="1.8" filter="url(#skr1x8029)"/><line x1="151.0" y1="702.7" x2="149.5" y2="785.0" stroke="#2060ff" stroke-opacity=".38" stroke-width="1"/><line x1="778.1" y1="701.9" x2="779.3" y2="784.7" stroke="#2060ff" stroke-opacity=".38" stroke-width="1"/><line x1="182.6" y1="702.0" x2="182.5" y2="785.5" stroke="#2060ff" stroke-opacity=".38" stroke-width="1"/><line x1="809.2" y1="701.3" x2="810.5" y2="783.4" stroke="#2060ff" stroke-opacity=".38" stroke-width="1"/><line x1="215.1" y1="702.6" x2="214.8" y2="784.7" stroke="#2060ff" stroke-opacity=".38" stroke-width="1"/><line x1="842.7" y1="701.1" x2="843.1" y2="785.4" stroke="#2060ff" stroke-opacity=".38" stroke-width="1"/><polygon points="236.1,418.0 763.3,418.6 720.9,661.2 275.7,662.8" fill="url(#suitr1x8029)" stroke="#2060ff" stroke-width="2.6" filter="url(#skr1x8029) url(#metalr1x8029)"/><polygon points="234.5,416.7 763.4,416.6 722.3,663.5 279.0,661.2" fill="url(#carbonr1x8029)"/><polygon points="367.6,417.9 631.1,416.5 610.3,517.2 388.1,515.9" fill="url(#suitHir1x8029)"/><line x1="363.2" y1="469.7" x2="636.4" y2="472.4" stroke="#2060ff" stroke-opacity=".52" stroke-width="1.3" filter="url(#skr1x8029)"/><line x1="399.8" y1="548.7" x2="601.0" y2="550.2" stroke="#2060ff" stroke-opacity=".52" stroke-width="1.3" filter="url(#skr1x8029)"/><line x1="268.3" y1="489.6" x2="319.1" y2="491.5" stroke="#2060ff" stroke-opacity=".62" stroke-width="1.8"/><line x1="680.1" y1="489.7" x2="731.6" y2="492.6" stroke="#2060ff" stroke-opacity=".62" stroke-width="1.8"/><line x1="266.3" y1="522.4" x2="318.6" y2="522.3" stroke="#2060ff" stroke-opacity=".62" stroke-width="1.8"/><line x1="680.4" y1="522.3" x2="734.7" y2="522.0" stroke="#2060ff" stroke-opacity=".62" stroke-width="1.8"/><line x1="267.2" y1="553.1" x2="318.0" y2="556.3" stroke="#2060ff" stroke-opacity=".62" stroke-width="1.8"/><line x1="678.9" y1="554.7" x2="732.1" y2="555.4" stroke="#2060ff" stroke-opacity=".62" stroke-width="1.8"/><line x1="267.3" y1="585.2" x2="320.8" y2="587.3" stroke="#2060ff" stroke-opacity=".62" stroke-width="1.8"/><line x1="679.0" y1="586.6" x2="731.7" y2="587.1" stroke="#2060ff" stroke-opacity=".62" stroke-width="1.8"/><g filter="url(#glowr1x8029)"><path d="M500,510.6 C394.24522558674215,450.74297469556336 441.90876579191536,552.4325194502622 500,531.7786322958023" fill="#2060ff" fill-opacity=".88" stroke="#2060ff" stroke-width="1.2" filter="url(#skr1x8029)"/><path d="M500,510.6 C611.8777508998289,452.40773447211836 559.8712016288191,543.1541847153009 500,535.4625940839946" fill="#2060ff" fill-opacity=".88" stroke="#2060ff" stroke-width="1.2" filter="url(#skr1x8029)"/><path d="M500,493.20000000000005 C454.183214359358,465.94985501868655 479.2424817184918,516.5012313514948 500,523.7790810566396" fill="rgba(255,255,255,.14)"/><path d="M500,493.20000000000005 C543.9211514765396,462.29105062391614 525.4575801992789,517.0664342400618 500,520.2452561890707" fill="rgba(255,255,255,.14)"/></g><g><polygon points="76.2,671.4 128.2,671.4 112.6,-28.6 91.8,-28.6" fill="url(#blader1x8029)" filter="url(#wmr1x8029)"/><polygon points="91.8,-28.6 112.6,-28.6 102.2,-138.6" fill="url(#blader1x8029)" filter="url(#wmr1x8029)"/><polygon points="100.3,671.4 104.0,671.4 102.7,-128.6 101.6,-128.6" fill="url(#bladeTipr1x8029)" opacity=".9"/><line x1="110.08330760326233" y1="672.6651289103553" x2="104.43839732380582" y2="-128.48801916837695" stroke="rgba(255,255,255,.68)" stroke-width="1.5"/><line x1="93.17542038960379" y1="672.3218034549616" x2="102.02914735700931" y2="-130.12094964524732" stroke="#2060ff" stroke-width="1" stroke-opacity=".45"/><line x1="106.8" y1="651.4" x2="104.0" y2="11.4" stroke="rgba(0,0,0,.38)" stroke-width="1.6"/><line x1="97.5" y1="651.4" x2="100.3" y2="11.4" stroke="rgba(0,0,0,.38)" stroke-width="1.6"/><rect x="45.31720696859058" y="668.5625775389373" width="112.0" height="28.0" rx="3" fill="url(#bevelr1x8029)" stroke="#2060ff" stroke-width="1.6" filter="url(#wmr1x8029)"/><rect x="69.90643759038296" y="675.0571235822514" width="64.0" height="10.0" rx="1" fill="rgba(255,255,255,.32)"/><rect x="90.63518080873412" y="676.6147936969064" width="24.0" height="6.0" rx="1" fill="#2060ff" fill-opacity=".35"/><rect x="89.94413019003343" y="685.2563313448801" width="24.0" height="6.0" rx="1" fill="#2060ff" fill-opacity=".35"/><rect x="90.16029672440138" y="694.1757256598212" width="24.0" height="6.0" rx="1" fill="#2060ff" fill-opacity=".35"/><rect x="91.8552747482806" y="701.3432375078089" width="24.0" height="6.0" rx="1" fill="#2060ff" fill-opacity=".35"/><rect x="90.13370303189379" y="709.5981401141732" width="24.0" height="6.0" rx="1" fill="#2060ff" fill-opacity=".35"/><rect x="90.88392476145175" y="716.0391697035171" width="24.0" height="6.0" rx="1" fill="#2060ff" fill-opacity=".35"/><ellipse cx="103.93393086459484" cy="725.0951049420983" rx="22.0" ry="16.0" fill="url(#bevelr1x8029)" stroke="#2060ff" stroke-width="1.2" filter="url(#wmr1x8029)"/></g><rect x="450.3239798108116" y="555.7849109324626" width="100.0"  height="56.0" fill="#003ccc" stroke="#2060ff" stroke-width="2.2" filter="url(#skr1x8029)"/><rect x="422.57400388987736" y="575.256154976599" width="152.0" height="26.0" fill="url(#bevelr1x8029)" fill-opacity=".65" stroke="#2060ff" stroke-width="1.2" filter="url(#skr1x8029)"/><polygon points="307.2,379.8 351.2,293.4 498.3,276.7 650.9,294.1 691.4,379.6 667.9,505.2 500.8,565.9 331.7,503.2" fill="url(#suitr1x8029)" stroke="#2060ff" stroke-width="2.8" filter="url(#skr1x8029) url(#metalr1x8029)"/><polygon points="307.8,380.0 349.6,294.5 500.9,279.1 649.3,296.1 691.9,379.2 669.7,501.9 499.3,566.1 332.6,502.5" fill="url(#carbonr1x8029)"/><polygon points="380.2,303.7 500.6,287.1 619.8,301.4 606.8,380.6 390.8,381.8" fill="url(#suitHir1x8029)"/><polygon points="382.3,380.9 366.7,425.7 431.7,503.2 499.5,527.9 567.9,502.9 634.1,424.5 617.4,379.9" fill="#050d14" fill-opacity=".88" stroke="#2060ff" stroke-width="1.8" filter="url(#skr1x8029)"/><polygon points="382.1,412.6 475.6,411.9 484.5,438.3 389.6,441.0" fill="#2060ff" filter="url(#glowr1x8029)"/><polygon points="522.6,410.2 620.3,411.2 612.1,439.8 514.6,439.6" fill="#2060ff" filter="url(#glowr1x8029)"/><ellipse cx="430.9" cy="425.7" rx="38.4"  ry="8.2" fill="#ffffff" opacity=".88"/><ellipse cx="569.1" cy="425.7" rx="38.4"  ry="8.2" fill="#ffffff" opacity=".88"/><line x1="486.1025452907756" y1="414.2745216454379" x2="516.3297572550737" y2="413.28361109197135" stroke="#2060ff" stroke-opacity=".52" stroke-width="2"/><line x1="484.5217055115476" y1="437.49177783373744" x2="516.3630577559024" y2="438.9209576555528" stroke="#2060ff" stroke-opacity=".52" stroke-width="2"/><line x1="499.2330567206256" y1="453.578350527212" x2="501.6042973357253" y2="482.308626412414" stroke="#2060ff" stroke-opacity=".58" stroke-width="2.2" filter="url(#skr1x8029)"/><line x1="453.7082100721821" y1="491.46941296830767" x2="454.94808689661323" y2="520.2628787944093" stroke="#2060ff" stroke-opacity=".52" stroke-width="1.5" filter="url(#skr1x8029)"/><line x1="478.008690936435" y1="491.60261852471154" x2="477.0599314644374" y2="521.0646154368296" stroke="#2060ff" stroke-opacity=".52" stroke-width="1.5" filter="url(#skr1x8029)"/><line x1="500.96324882879856" y1="489.57283752569924" x2="500.9507760606706" y2="519.5113702214323" stroke="#2060ff" stroke-opacity=".52" stroke-width="1.5" filter="url(#skr1x8029)"/><line x1="524.8034085376746" y1="491.63068011561404" x2="522.9413917706906" y2="519.6982523466461" stroke="#2060ff" stroke-opacity=".52" stroke-width="1.5" filter="url(#skr1x8029)"/><line x1="544.4012337335572" y1="490.3454745355062" x2="546.9905730349199" y2="518.879895048216" stroke="#2060ff" stroke-opacity=".52" stroke-width="1.5" filter="url(#skr1x8029)"/><polygon points="432.5,505.3 568.0,503.5 555.3,557.4 447.0,556.6" fill="#003ccc" fill-opacity=".72" stroke="#2060ff" stroke-width="1.3" filter="url(#skr1x8029)"/><polygon points="315.8,303.0 361.7,305.6 338.1,195.7" fill="url(#bevelr1x8029)" fill-opacity=".95" stroke="#2060ff" stroke-width="1.6" filter="url(#skr1x8029) url(#glowr1x8029)"/><polygon points="394.6,306.5 440.7,304.2 420.4,207.1" fill="url(#bevelr1x8029)" fill-opacity=".95" stroke="#2060ff" stroke-width="1.6" filter="url(#skr1x8029) url(#glowr1x8029)"/><polygon points="477.5,304.9 522.4,304.6 501.6,221.5" fill="url(#bevelr1x8029)" fill-opacity=".95" stroke="#2060ff" stroke-width="1.6" filter="url(#skr1x8029) url(#glowr1x8029)"/><polygon points="557.4,305.5 602.5,305.2 579.9,209.1" fill="url(#bevelr1x8029)" fill-opacity=".95" stroke="#2060ff" stroke-width="1.6" filter="url(#skr1x8029) url(#glowr1x8029)"/><polygon points="637.8,304.6 683.2,305.6 662.7,197.0" fill="url(#bevelr1x8029)" fill-opacity=".95" stroke="#2060ff" stroke-width="1.6" filter="url(#skr1x8029) url(#glowr1x8029)"/><text x="30.0"  y="975.0" font-family="monospace" font-weight="bold" font-size="22.0" fill="rgba(255,255,255,.22)">#0001</text><text x="500.0"   y="975.0" text-anchor="middle" font-family="monospace" font-weight="bold" font-size="22.0" fill="#2060ff" fill-opacity=".48">COBALT RANGER</text><text x="970.0" y="975.0" text-anchor="end"    font-family="monospace" font-weight="bold" font-size="22.0" fill="#2060ff" fill-opacity=".32">MECH RANGERS</text></svg>