<svg xmlns="http://www.w3.org/2000/svg" viewBox="0 0 1000 1000" width="1000" height="1000" shape-rendering="geometricPrecision"><defs>

  <!-- Scene gradients -->
  <radialGradient id="bgr1x8046" cx="50%" cy="42%" r="72%">
    <stop offset="0%"   stop-color="#1a2814"/>
    <stop offset="100%" stop-color="#0d1520"/>
  </radialGradient>
  <linearGradient id="suitr1x8046" x1="8%" y1="0%" x2="92%" y2="100%">
    <stop offset="0%"   stop-color="#ccccff" stop-opacity=".95"/>
    <stop offset="45%"  stop-color="#242438"/>
    <stop offset="100%" stop-color="#0d1520"/>
  </linearGradient>
  <linearGradient id="suitHir1x8046" x1="0%" y1="0%" x2="0%" y2="100%">
    <stop offset="0%"   stop-color="rgba(255,255,255,.28)"/>
    <stop offset="60%"  stop-color="rgba(255,255,255,.04)"/>
    <stop offset="100%" stop-color="rgba(255,255,255,0)"/>
  </linearGradient>
  <!-- Bevel: bright top, dark bottom for armour panels -->
  <linearGradient id="bevelr1x8046" x1="0%" y1="0%" x2="0%" y2="100%">
    <stop offset="0%"   stop-color="rgba(255,255,255,.55)"/>
    <stop offset="30%"  stop-color="#ccccff"/>
    <stop offset="70%"  stop-color="#242438"/>
    <stop offset="100%" stop-color="rgba(0,0,0,.5)"/>
  </linearGradient>

  <!-- Weapon: cold steel blade sweep -->
  <linearGradient id="blader1x8046" x1="0%" y1="0%" x2="100%" y2="0%">
    <stop offset="0%"   stop-color="#0e0e20"/>
    <stop offset="16%"  stop-color="#3e3e58"/>
    <stop offset="34%"  stop-color="#c8c8e0"/>
    <stop offset="50%"  stop-color="#f5f5ff"/>
    <stop offset="66%"  stop-color="#b8b8d0"/>
    <stop offset="84%"  stop-color="#2e2e48"/>
    <stop offset="100%" stop-color="#08080e"/>
  </linearGradient>
  <!-- Blade tip brightening -->
  <linearGradient id="bladeTipr1x8046" x1="0%" y1="100%" x2="0%" y2="0%">
    <stop offset="0%"   stop-color="rgba(255,255,255,0)"/>
    <stop offset="55%"  stop-color="rgba(255,255,255,.1)"/>
    <stop offset="100%" stop-color="rgba(255,255,255,.55)"/>
  </linearGradient>
  <!-- Gunmetal anodised — blaster body -->
  <linearGradient id="gunmetalr1x8046" x1="0%" y1="0%" x2="0%" y2="100%">
    <stop offset="0%"   stop-color="#46465e"/>
    <stop offset="18%"  stop-color="#828296"/>
    <stop offset="42%"  stop-color="#26263a"/>
    <stop offset="72%"  stop-color="#16162a"/>
    <stop offset="100%" stop-color="#0c0c18"/>
  </linearGradient>
  <!-- Brushed steel tube — barrel/rod -->
  <linearGradient id="barrelr1x8046" x1="0%" y1="0%" x2="100%" y2="0%">
    <stop offset="0%"   stop-color="#0a0a14"/>
    <stop offset="24%"  stop-color="#585875"/>
    <stop offset="50%"  stop-color="#a8a8c8"/>
    <stop offset="76%"  stop-color="#383852"/>
    <stop offset="100%" stop-color="#0a0a14"/>
  </linearGradient>
  <!-- Chrome rod — lance shaft -->
  <linearGradient id="chromer1x8046" x1="0%" y1="0%" x2="100%" y2="0%">
    <stop offset="0%"   stop-color="#0c0c18"/>
    <stop offset="20%"  stop-color="#686888"/>
    <stop offset="44%"  stop-color="#e0e0f0"/>
    <stop offset="56%"  stop-color="#c0c0d8"/>
    <stop offset="80%"  stop-color="#28283e"/>
    <stop offset="100%" stop-color="#0c0c18"/>
  </linearGradient>
  <!-- Titanium plate — shield face -->
  <linearGradient id="titaniumr1x8046" x1="0%" y1="0%" x2="100%" y2="100%">
    <stop offset="0%"   stop-color="#585878"/>
    <stop offset="28%"  stop-color="#ccccff" stop-opacity=".88"/>
    <stop offset="55%"  stop-color="#242438"/>
    <stop offset="80%"  stop-color="#181828"/>
    <stop offset="100%" stop-color="#0a0a18"/>
  </linearGradient>
  <!-- Artillery black-chrome — cannon body -->
  <linearGradient id="artilleryr1x8046" x1="0%" y1="0%" x2="0%" y2="100%">
    <stop offset="0%"   stop-color="#383850"/>
    <stop offset="14%"  stop-color="#78789a"/>
    <stop offset="36%"  stop-color="#202034"/>
    <stop offset="65%"  stop-color="#14141e"/>
    <stop offset="100%" stop-color="#0a0a12"/>
  </linearGradient>
  <!-- Energy orb — staff -->
  <radialGradient id="orbr1x8046" cx="35%" cy="35%" r="65%">
    <stop offset="0%"   stop-color="rgba(255,255,255,.9)"/>
    <stop offset="30%"  stop-color="#ccccff"/>
    <stop offset="68%"  stop-color="#242438"/>
    <stop offset="100%" stop-color="rgba(0,0,0,.6)"/>
  </radialGradient>
  <!-- Knuckle plate chrome -->
  <linearGradient id="knuckler1x8046" x1="0%" y1="0%" x2="0%" y2="100%">
    <stop offset="0%"   stop-color="#888aaa"/>
    <stop offset="32%"  stop-color="#ccccff" stop-opacity=".8"/>
    <stop offset="62%"  stop-color="#1a1a2c"/>
    <stop offset="100%" stop-color="#0a0a14"/>
  </linearGradient>

  <!-- Carbon fibre weave texture overlay -->
  <pattern id="carbonr1x8046" width="6" height="6" patternUnits="userSpaceOnUse">
    <rect width="6" height="6" fill="rgba(0,0,0,.08)"/>
    <rect x="0" y="0" width="3" height="3" fill="rgba(255,255,255,.022)"/>
    <rect x="3" y="3" width="3" height="3" fill="rgba(255,255,255,.022)"/>
    <line x1="0" y1="0" x2="3" y2="3" stroke="rgba(255,255,255,.038)" stroke-width=".5"/>
    <line x1="3" y1="0" x2="6" y2="3" stroke="rgba(0,0,0,.055)"       stroke-width=".5"/>
    <line x1="0" y1="3" x2="3" y2="6" stroke="rgba(0,0,0,.055)"       stroke-width=".5"/>
    <line x1="3" y1="3" x2="6" y2="6" stroke="rgba(255,255,255,.038)" stroke-width=".5"/>
  </pattern>

  <!-- Specular metal sheen on armour panels -->
  <filter id="metalr1x8046" x="-5%" y="-5%" width="110%" height="110%">
    <feSpecularLighting surfaceScale="4" specularConstant="1.8"
        specularExponent="42" lighting-color="#ffffff" result="spec">
      <feDistantLight elevation="52" azimuth="38"/>
    </feSpecularLighting>
    <feComposite in="spec" in2="SourceGraphic" operator="in" result="sm"/>
    <feComposite in="SourceGraphic" in2="sm" operator="arithmetic" k1="0" k2="1" k3="0.55" k4="0"/>
  </filter>

  <!-- Sharper specular for weapons — heavier glare -->
  <filter id="wmr1x8046" x="-8%" y="-8%" width="116%" height="116%">
    <feSpecularLighting surfaceScale="6" specularConstant="2.4"
        specularExponent="65" lighting-color="#ffffff" result="spec">
      <feDistantLight elevation="44" azimuth="28"/>
    </feSpecularLighting>
    <feComposite in="spec" in2="SourceGraphic" operator="in" result="sm"/>
    <feComposite in="SourceGraphic" in2="sm" operator="arithmetic" k1="0" k2="1" k3="0.78" k4="0"/>
  </filter>

  <!-- Sketch wobble -->
  <filter id="skr1x8046" x="-8%" y="-8%" width="116%" height="116%">
    <feTurbulence type="fractalNoise" baseFrequency="0.038"
        numOctaves="3" seed="68" result="noise"/>
    <feDisplacementMap in="SourceGraphic" in2="noise" scale="2.6"
        xChannelSelector="R" yChannelSelector="G" result="w"/>
    <feComposite in="w" in2="SourceGraphic" operator="atop"/>
  </filter>

  <!-- Glow: sharp accent -->
  <filter id="glowr1x8046" x="-20%" y="-20%" width="140%" height="140%">
    <feGaussianBlur stdDeviation="3.5" result="b"/>
    <feColorMatrix in="b" type="matrix"
        values="0 0 0 0 1  0 0 0 0 1  0 0 0 0 1  0 0 0 1.8 0" result="boost"/>
    <feMerge><feMergeNode in="boost"/><feMergeNode in="SourceGraphic"/></feMerge>
  </filter>

  <!-- Bloom: wide soft -->
  <filter id="bloomr1x8046" x="-40%" y="-40%" width="180%" height="180%">
    <feGaussianBlur stdDeviation="11" result="b"/>
    <feMerge><feMergeNode in="b"/><feMergeNode in="SourceGraphic"/></feMerge>
  </filter>

  </defs><rect width="1000" height="1000" fill="url(#bgr1x8046)"/><ellipse cx="500.0" cy="892.0" rx="350.0" ry="65.0" fill="rgba(0,0,0,.7)" filter="url(#bloomr1x8046)"/><ellipse cx="500.0" cy="889.0" rx="220.0" ry="34.0" fill="rgba(0,0,0,.45)"/><ellipse cx="500.0" cy="520.0" rx="320.0" ry="480.0" fill="#6600ff" fill-opacity=".042" filter="url(#bloomr1x8046)"/><circle cx="261.2" cy="729.9" r="2.8" fill="#6600ff" fill-opacity="0.73" filter="url(#glowr1x8046)"/><circle cx="614.1" cy="241.4" r="3.6" fill="#6600ff" fill-opacity="0.50" filter="url(#glowr1x8046)"/><circle cx="532.4" cy="264.2" r="2.4" fill="#6600ff" fill-opacity="0.86" filter="url(#glowr1x8046)"/><circle cx="584.7" cy="764.8" r="2.6" fill="#6600ff" fill-opacity="0.50" filter="url(#glowr1x8046)"/><circle cx="320.6" cy="395.9" r="1.9" fill="#6600ff" fill-opacity="0.69" filter="url(#glowr1x8046)"/><circle cx="263.8" cy="263.4" r="1.0" fill="#6600ff" fill-opacity="0.90" filter="url(#glowr1x8046)"/><circle cx="341.9" cy="717.0" r="4.1" fill="#6600ff" fill-opacity="0.88" filter="url(#glowr1x8046)"/><circle cx="679.9" cy="442.7" r="3.6" fill="#6600ff" fill-opacity="0.70" filter="url(#glowr1x8046)"/><circle cx="415.3" cy="424.5" r="1.8" fill="#6600ff" fill-opacity="0.75" filter="url(#glowr1x8046)"/><circle cx="655.4" cy="306.0" r="3.3" fill="#6600ff" fill-opacity="0.85" filter="url(#glowr1x8046)"/><circle cx="430.4" cy="617.5" r="4.3" fill="#6600ff" fill-opacity="0.87" filter="url(#glowr1x8046)"/><circle cx="320.8" cy="737.0" r="4.1" fill="#6600ff" fill-opacity="0.42" filter="url(#glowr1x8046)"/><circle cx="459.9" cy="668.8" r="2.7" fill="#6600ff" fill-opacity="0.67" filter="url(#glowr1x8046)"/><circle cx="403.1" cy="603.0" r="1.7" fill="#6600ff" fill-opacity="0.43" filter="url(#glowr1x8046)"/><polygon points="400.2,661.9 490.6,662.7 481.2,877.2 387.4,877.9" fill="url(#suitr1x8046)" stroke="#ccccff" stroke-width="2.2" filter="url(#skr1x8046) url(#metalr1x8046)"/><polygon points="399.9,663.5 490.6,663.6 480.6,879.0 386.9,876.7" fill="url(#carbonr1x8046)"/><polygon points="393.4,723.7 494.4,722.5 485.5,789.6 382.2,787.4" fill="url(#bevelr1x8046)" fill-opacity=".5" stroke="#ccccff" stroke-width="1.4" filter="url(#skr1x8046)"/><polygon points="510.3,663.1 600.6,660.9 611.1,878.6 520.6,877.3" fill="url(#suitr1x8046)" stroke="#ccccff" stroke-width="2.2" filter="url(#skr1x8046) url(#metalr1x8046)"/><polygon points="510.1,663.2 602.1,662.6 611.7,876.7 519.2,875.8" fill="url(#carbonr1x8046)"/><polygon points="507.6,724.3 606.6,722.6 614.7,790.0 514.1,786.5" fill="url(#bevelr1x8046)" fill-opacity=".5" stroke="#ccccff" stroke-width="1.4" filter="url(#skr1x8046)"/><rect x="392.7" y="838.7" width="100.3" height="24.7" fill="url(#bevelr1x8046)" stroke="#ccccff" stroke-width="1" filter="url(#skr1x8046)"/><rect x="508.6"  y="837.5" width="100.3" height="24.7" fill="url(#bevelr1x8046)" stroke="#ccccff" stroke-width="1" filter="url(#skr1x8046)"/><polygon points="368.7,877.6 496.0,878.1 504.9,923.1 362.5,922.3" fill="#242438" stroke="#ccccff" stroke-width="2" filter="url(#skr1x8046)"/><polygon points="504.4,878.5 630.4,878.1 638.3,921.6 497.0,921.8" fill="#242438" stroke="#ccccff" stroke-width="2" filter="url(#skr1x8046)"/><polygon points="304.4,634.8 694.4,632.6 638.7,681.3 362.9,683.0" fill="#ccccff" fill-opacity=".52" stroke="#ccccff" stroke-width="2" filter="url(#skr1x8046)"/><rect x="465.7" y="638.7" width="72.0" height="42.0" fill="url(#bevelr1x8046)" stroke="#ccccff" stroke-width="1.4" filter="url(#glowr1x8046)"/><rect x="484.8" y="639.7" width="28.0" height="22.0" rx="1" fill="rgba(255,255,255,.48)"/><polygon points="151.3,467.2 234.4,466.9 256.3,736.1 128.8,735.3" fill="url(#suitr1x8046)" stroke="#ccccff" stroke-width="2.2" filter="url(#skr1x8046) url(#metalr1x8046)"/><polygon points="171.8,430.4 253.3,430.7 242.1,509.0 161.1,511.8" fill="url(#bevelr1x8046)" fill-opacity=".72" stroke="#ccccff" stroke-width="2.2" filter="url(#skr1x8046)"/><polygon points="159.5,620.4 243.0,620.1 239.8,662.4 166.1,661.5" fill="#ccccff" fill-opacity=".42" stroke="#ccccff" stroke-width="1" filter="url(#skr1x8046)"/><polygon points="763.3,467.6 847.6,464.9 871.5,734.3 743.5,734.7" fill="url(#suitr1x8046)" stroke="#ccccff" stroke-width="2.2" filter="url(#skr1x8046) url(#metalr1x8046)"/><polygon points="745.9,432.9 825.0,432.7 839.4,510.2 756.8,511.4" fill="url(#bevelr1x8046)" fill-opacity=".72" stroke="#ccccff" stroke-width="2.2" filter="url(#skr1x8046)"/><polygon points="757.6,622.8 838.7,620.6 835.1,662.3 760.6,659.9" fill="#ccccff" fill-opacity=".42" stroke="#ccccff" stroke-width="1" filter="url(#skr1x8046)"/><rect x="120.4"  y="698.5" width="135.3" height="85.0" rx="4" fill="url(#bevelr1x8046)" stroke="#ccccff" stroke-width="1.8" filter="url(#skr1x8046)"/><rect x="746.8"   y="700.8" width="135.3" height="85.0" rx="4" fill="url(#bevelr1x8046)" stroke="#ccccff" stroke-width="1.8" filter="url(#skr1x8046)"/><line x1="148.2" y1="702.5" x2="148.7" y2="782.9" stroke="#ccccff" stroke-opacity=".38" stroke-width="1"/><line x1="779.4" y1="702.6" x2="776.9" y2="783.8" stroke="#ccccff" stroke-opacity=".38" stroke-width="1"/><line x1="180.9" y1="703.2" x2="183.1" y2="784.6" stroke="#ccccff" stroke-opacity=".38" stroke-width="1"/><line x1="810.3" y1="700.9" x2="809.5" y2="784.2" stroke="#ccccff" stroke-opacity=".38" stroke-width="1"/><line x1="216.0" y1="703.4" x2="217.0" y2="783.4" stroke="#ccccff" stroke-opacity=".38" stroke-width="1"/><line x1="842.0" y1="703.2" x2="844.5" y2="782.4" stroke="#ccccff" stroke-opacity=".38" stroke-width="1"/><polygon points="236.6,417.8 766.4,418.3 721.3,664.2 278.1,663.2" fill="url(#suitr1x8046)" stroke="#ccccff" stroke-width="2.6" filter="url(#skr1x8046) url(#metalr1x8046)"/><polygon points="234.8,417.4 763.8,418.8 723.5,661.6 279.1,662.5" fill="url(#carbonr1x8046)"/><polygon points="368.1,418.8 633.1,417.4 611.0,514.3 389.5,516.1" fill="url(#suitHir1x8046)"/><line x1="360.6" y1="473.0" x2="636.7" y2="471.8" stroke="#ccccff" stroke-opacity=".52" stroke-width="1.3" filter="url(#skr1x8046)"/><line x1="400.2" y1="550.4" x2="601.4" y2="551.0" stroke="#ccccff" stroke-opacity=".52" stroke-width="1.3" filter="url(#skr1x8046)"/><line x1="266.3" y1="490.5" x2="319.2" y2="490.3" stroke="#ccccff" stroke-opacity=".62" stroke-width="1.8"/><line x1="680.8" y1="489.5" x2="732.9" y2="491.9" stroke="#ccccff" stroke-opacity=".62" stroke-width="1.8"/><line x1="265.0" y1="521.9" x2="321.2" y2="523.1" stroke="#ccccff" stroke-opacity=".62" stroke-width="1.8"/><line x1="680.0" y1="521.5" x2="731.8" y2="522.4" stroke="#ccccff" stroke-opacity=".62" stroke-width="1.8"/><line x1="265.6" y1="555.3" x2="319.5" y2="555.4" stroke="#ccccff" stroke-opacity=".62" stroke-width="1.8"/><line x1="678.7" y1="555.0" x2="733.4" y2="554.5" stroke="#ccccff" stroke-opacity=".62" stroke-width="1.8"/><line x1="266.9" y1="587.6" x2="320.2" y2="587.5" stroke="#ccccff" stroke-opacity=".62" stroke-width="1.8"/><line x1="681.5" y1="586.0" x2="734.9" y2="587.8" stroke="#ccccff" stroke-opacity=".62" stroke-width="1.8"/><g filter="url(#glowr1x8046)"><polygon points="482.8,452.2 513.4,504.4 499.6,505.2 519.0,568.5 486.9,515.0 500.7,515.3" fill="#ccccff" stroke="#0d1520" stroke-width="1.4" filter="url(#skr1x8046)"/><polygon points="482.6,452.9 513.4,506.2 499.7,506.5 517.6,569.4 485.7,515.5 499.4,516.8" fill="url(#suitHir1x8046)" opacity=".4"/></g><g><polygon points="871.8,671.4 923.8,671.4 908.2,-28.6 887.4,-28.6" fill="url(#blader1x8046)" filter="url(#wmr1x8046)"/><polygon points="887.4,-28.6 908.2,-28.6 897.8,-138.6" fill="url(#blader1x8046)" filter="url(#wmr1x8046)"/><polygon points="896.0,671.4 899.7,671.4 898.4,-128.6 897.3,-128.6" fill="url(#bladeTipr1x8046)" opacity=".9"/><line x1="905.4094023194165" y1="672.6238765155896" x2="897.9745130402222" y2="-129.5536751514301" stroke="rgba(255,255,255,.68)" stroke-width="1.5"/><line x1="887.0830825107358" y1="670.1571998686529" x2="895.5973415858113" y2="-129.56014807280155" stroke="#ccccff" stroke-width="1" stroke-opacity=".45"/><line x1="902.5" y1="651.4" x2="899.7" y2="11.4" stroke="rgba(0,0,0,.38)" stroke-width="1.6"/><line x1="893.2" y1="651.4" x2="896.0" y2="11.4" stroke="rgba(0,0,0,.38)" stroke-width="1.6"/><rect x="841.0949538802356" y="670.5953465037047" width="112.0" height="28.0" rx="3" fill="url(#bevelr1x8046)" stroke="#ccccff" stroke-width="1.6" filter="url(#wmr1x8046)"/><rect x="864.47944604313" y="673.300154326018" width="64.0" height="10.0" rx="1" fill="rgba(255,255,255,.32)"/><rect x="887.1087555754558" y="677.2416712520644" width="24.0" height="6.0" rx="1" fill="#ccccff" fill-opacity=".35"/><rect x="886.0633178727329" y="686.7113060529343" width="24.0" height="6.0" rx="1" fill="#ccccff" fill-opacity=".35"/><rect x="887.3784249536321" y="692.2101814175955" width="24.0" height="6.0" rx="1" fill="#ccccff" fill-opacity=".35"/><rect x="886.8752123365738" y="701.5189249006099" width="24.0" height="6.0" rx="1" fill="#ccccff" fill-opacity=".35"/><rect x="886.7537296747416" y="708.0839744402095" width="24.0" height="6.0" rx="1" fill="#ccccff" fill-opacity=".35"/><rect x="886.9905362240598" y="717.5914754852653" width="24.0" height="6.0" rx="1" fill="#ccccff" fill-opacity=".35"/><ellipse cx="897.2971978957393" cy="728.1444134502672" rx="22.0" ry="16.0" fill="url(#bevelr1x8046)" stroke="#ccccff" stroke-width="1.2" filter="url(#wmr1x8046)"/></g><rect x="450.68078654324637" y="557.9598625473678" width="100.0"  height="56.0" fill="#242438" stroke="#ccccff" stroke-width="2.2" filter="url(#skr1x8046)"/><rect x="424.7290122866631" y="574.2150376747362" width="152.0" height="26.0" fill="url(#bevelr1x8046)" fill-opacity=".65" stroke="#ccccff" stroke-width="1.2" filter="url(#skr1x8046)"/><polygon points="306.2,379.7 348.7,293.7 499.6,277.8 648.7,294.1 692.6,378.8 667.7,503.2 501.5,565.8 329.3,504.8" fill="url(#suitr1x8046)" stroke="#ccccff" stroke-width="2.8" filter="url(#skr1x8046) url(#metalr1x8046)"/><polygon points="308.3,381.4 349.4,292.9 498.3,277.7 649.6,296.1 691.1,380.7 669.2,503.8 501.6,566.5 332.7,502.4" fill="url(#carbonr1x8046)"/><polygon points="379.4,302.4 498.5,285.3 619.9,303.7 607.2,380.9 393.9,381.8" fill="url(#suitHir1x8046)"/><polygon points="379.3,381.7 364.4,424.0 431.3,504.6 500.1,528.7 565.9,502.0 635.2,424.2 620.5,381.7" fill="#0d1520" fill-opacity=".88" stroke="#ccccff" stroke-width="1.8" filter="url(#skr1x8046)"/><polygon points="382.4,411.7 476.8,409.8 486.3,439.6 390.4,441.1" fill="#ccccff" filter="url(#glowr1x8046)"/><polygon points="522.2,412.9 620.6,410.4 609.9,438.9 514.8,438.8" fill="#ccccff" filter="url(#glowr1x8046)"/><ellipse cx="430.9" cy="425.7" rx="38.4"  ry="8.2" fill="#ffffff" opacity=".88"/><ellipse cx="569.1" cy="425.7" rx="38.4"  ry="8.2" fill="#ffffff" opacity=".88"/><line x1="483.2289870899729" y1="413.1051531013101" x2="516.7422284352966" y2="412.2873544072732" stroke="#ccccff" stroke-opacity=".52" stroke-width="2"/><line x1="485.2983020930178" y1="437.72415123470125" x2="516.7667347522826" y2="436.9172512368299" stroke="#ccccff" stroke-opacity=".52" stroke-width="2"/><line x1="501.15489680776375" y1="454.77842653486874" x2="501.0588214487769" y2="484.17499601067976" stroke="#ccccff" stroke-opacity=".58" stroke-width="2.2" filter="url(#skr1x8046)"/><line x1="454.46513287516314" y1="490.7518752195872" x2="452.26209277601913" y2="521.7871969555505" stroke="#ccccff" stroke-opacity=".52" stroke-width="1.5" filter="url(#skr1x8046)"/><line x1="476.8133788689412" y1="493.05512219741934" x2="477.3646816471033" y2="521.3593220928684" stroke="#ccccff" stroke-opacity=".52" stroke-width="1.5" filter="url(#skr1x8046)"/><line x1="498.4737241364084" y1="490.7627651164308" x2="500.4870792597532" y2="520.2459266609512" stroke="#ccccff" stroke-opacity=".52" stroke-width="1.5" filter="url(#skr1x8046)"/><line x1="524.6918643897958" y1="491.90880460869516" x2="522.3658773589507" y2="519.2936081507244" stroke="#ccccff" stroke-opacity=".52" stroke-width="1.5" filter="url(#skr1x8046)"/><line x1="545.9709313675947" y1="491.0228449544869" x2="546.4614379422926" y2="519.8564472498372" stroke="#ccccff" stroke-opacity=".52" stroke-width="1.5" filter="url(#skr1x8046)"/><polygon points="432.2,503.5 565.7,504.0 552.3,555.7 447.1,557.3" fill="#242438" fill-opacity=".72" stroke="#ccccff" stroke-width="1.3" filter="url(#skr1x8046)"/><path d="M388.2049764375761 328.5711126370356 Q330.84517655126746 218.37372774928807 382.374793190267 139.3958897896111" stroke="#ccccff" stroke-width="5" fill="none" stroke-linecap="round" filter="url(#skr1x8046)"/><path d="M390.33573636818676 327.59794633202256 Q329.3062821750156 217.54251939402891 380.1780397716351 141.58053938634694" stroke="rgba(255,255,255,.25)" stroke-width="1.5" fill="none" stroke-linecap="round"/><path d="M610.0509691216424 325.5301125646569 Q668.8697690403462 216.41122486721724 619.4623129158839 139.8884528659284" stroke="#ccccff" stroke-width="5" fill="none" stroke-linecap="round" filter="url(#skr1x8046)"/><path d="M611.7003917054645 327.6853187542409 Q667.7499604349398 218.1861310467124 617.9724289800599 141.67436754619703" stroke="rgba(255,255,255,.25)" stroke-width="1.5" fill="none" stroke-linecap="round"/><text x="30.0"  y="975.0" font-family="monospace" font-weight="bold" font-size="22.0" fill="rgba(255,255,255,.22)">#0001</text><text x="500.0"   y="975.0" text-anchor="middle" font-family="monospace" font-weight="bold" font-size="22.0" fill="#ccccff" fill-opacity=".48">PHANTOM RANGER</text><text x="970.0" y="975.0" text-anchor="end"    font-family="monospace" font-weight="bold" font-size="22.0" fill="#ccccff" fill-opacity=".32">MECH RANGERS</text></svg>