<svg xmlns="http://www.w3.org/2000/svg" viewBox="0 0 1000 1000" width="1000" height="1000" shape-rendering="geometricPrecision"><defs>

  <!-- Scene gradients -->
  <radialGradient id="bgr1x81" cx="50%" cy="42%" r="72%">
    <stop offset="0%"   stop-color="#0a0a14"/>
    <stop offset="100%" stop-color="#050508"/>
  </radialGradient>
  <linearGradient id="suitr1x81" x1="8%" y1="0%" x2="92%" y2="100%">
    <stop offset="0%"   stop-color="#2060ff" stop-opacity=".95"/>
    <stop offset="45%"  stop-color="#003ccc"/>
    <stop offset="100%" stop-color="#050508"/>
  </linearGradient>
  <linearGradient id="suitHir1x81" x1="0%" y1="0%" x2="0%" y2="100%">
    <stop offset="0%"   stop-color="rgba(255,255,255,.28)"/>
    <stop offset="60%"  stop-color="rgba(255,255,255,.04)"/>
    <stop offset="100%" stop-color="rgba(255,255,255,0)"/>
  </linearGradient>
  <!-- Bevel: bright top, dark bottom for armour panels -->
  <linearGradient id="bevelr1x81" x1="0%" y1="0%" x2="0%" y2="100%">
    <stop offset="0%"   stop-color="rgba(255,255,255,.55)"/>
    <stop offset="30%"  stop-color="#2060ff"/>
    <stop offset="70%"  stop-color="#003ccc"/>
    <stop offset="100%" stop-color="rgba(0,0,0,.5)"/>
  </linearGradient>

  <!-- Weapon: cold steel blade sweep -->
  <linearGradient id="blader1x81" x1="0%" y1="0%" x2="100%" y2="0%">
    <stop offset="0%"   stop-color="#0e0e20"/>
    <stop offset="16%"  stop-color="#3e3e58"/>
    <stop offset="34%"  stop-color="#c8c8e0"/>
    <stop offset="50%"  stop-color="#f5f5ff"/>
    <stop offset="66%"  stop-color="#b8b8d0"/>
    <stop offset="84%"  stop-color="#2e2e48"/>
    <stop offset="100%" stop-color="#08080e"/>
  </linearGradient>
  <!-- Blade tip brightening -->
  <linearGradient id="bladeTipr1x81" x1="0%" y1="100%" x2="0%" y2="0%">
    <stop offset="0%"   stop-color="rgba(255,255,255,0)"/>
    <stop offset="55%"  stop-color="rgba(255,255,255,.1)"/>
    <stop offset="100%" stop-color="rgba(255,255,255,.55)"/>
  </linearGradient>
  <!-- Gunmetal anodised — blaster body -->
  <linearGradient id="gunmetalr1x81" x1="0%" y1="0%" x2="0%" y2="100%">
    <stop offset="0%"   stop-color="#46465e"/>
    <stop offset="18%"  stop-color="#828296"/>
    <stop offset="42%"  stop-color="#26263a"/>
    <stop offset="72%"  stop-color="#16162a"/>
    <stop offset="100%" stop-color="#0c0c18"/>
  </linearGradient>
  <!-- Brushed steel tube — barrel/rod -->
  <linearGradient id="barrelr1x81" x1="0%" y1="0%" x2="100%" y2="0%">
    <stop offset="0%"   stop-color="#0a0a14"/>
    <stop offset="24%"  stop-color="#585875"/>
    <stop offset="50%"  stop-color="#a8a8c8"/>
    <stop offset="76%"  stop-color="#383852"/>
    <stop offset="100%" stop-color="#0a0a14"/>
  </linearGradient>
  <!-- Chrome rod — lance shaft -->
  <linearGradient id="chromer1x81" x1="0%" y1="0%" x2="100%" y2="0%">
    <stop offset="0%"   stop-color="#0c0c18"/>
    <stop offset="20%"  stop-color="#686888"/>
    <stop offset="44%"  stop-color="#e0e0f0"/>
    <stop offset="56%"  stop-color="#c0c0d8"/>
    <stop offset="80%"  stop-color="#28283e"/>
    <stop offset="100%" stop-color="#0c0c18"/>
  </linearGradient>
  <!-- Titanium plate — shield face -->
  <linearGradient id="titaniumr1x81" x1="0%" y1="0%" x2="100%" y2="100%">
    <stop offset="0%"   stop-color="#585878"/>
    <stop offset="28%"  stop-color="#2060ff" stop-opacity=".88"/>
    <stop offset="55%"  stop-color="#003ccc"/>
    <stop offset="80%"  stop-color="#181828"/>
    <stop offset="100%" stop-color="#0a0a18"/>
  </linearGradient>
  <!-- Artillery black-chrome — cannon body -->
  <linearGradient id="artilleryr1x81" x1="0%" y1="0%" x2="0%" y2="100%">
    <stop offset="0%"   stop-color="#383850"/>
    <stop offset="14%"  stop-color="#78789a"/>
    <stop offset="36%"  stop-color="#202034"/>
    <stop offset="65%"  stop-color="#14141e"/>
    <stop offset="100%" stop-color="#0a0a12"/>
  </linearGradient>
  <!-- Energy orb — staff -->
  <radialGradient id="orbr1x81" cx="35%" cy="35%" r="65%">
    <stop offset="0%"   stop-color="rgba(255,255,255,.9)"/>
    <stop offset="30%"  stop-color="#2060ff"/>
    <stop offset="68%"  stop-color="#003ccc"/>
    <stop offset="100%" stop-color="rgba(0,0,0,.6)"/>
  </radialGradient>
  <!-- Knuckle plate chrome -->
  <linearGradient id="knuckler1x81" x1="0%" y1="0%" x2="0%" y2="100%">
    <stop offset="0%"   stop-color="#888aaa"/>
    <stop offset="32%"  stop-color="#2060ff" stop-opacity=".8"/>
    <stop offset="62%"  stop-color="#1a1a2c"/>
    <stop offset="100%" stop-color="#0a0a14"/>
  </linearGradient>

  <!-- Carbon fibre weave texture overlay -->
  <pattern id="carbonr1x81" width="6" height="6" patternUnits="userSpaceOnUse">
    <rect width="6" height="6" fill="rgba(0,0,0,.08)"/>
    <rect x="0" y="0" width="3" height="3" fill="rgba(255,255,255,.022)"/>
    <rect x="3" y="3" width="3" height="3" fill="rgba(255,255,255,.022)"/>
    <line x1="0" y1="0" x2="3" y2="3" stroke="rgba(255,255,255,.038)" stroke-width=".5"/>
    <line x1="3" y1="0" x2="6" y2="3" stroke="rgba(0,0,0,.055)"       stroke-width=".5"/>
    <line x1="0" y1="3" x2="3" y2="6" stroke="rgba(0,0,0,.055)"       stroke-width=".5"/>
    <line x1="3" y1="3" x2="6" y2="6" stroke="rgba(255,255,255,.038)" stroke-width=".5"/>
  </pattern>

  <!-- Specular metal sheen on armour panels -->
  <filter id="metalr1x81" x="-5%" y="-5%" width="110%" height="110%">
    <feSpecularLighting surfaceScale="4" specularConstant="1.8"
        specularExponent="42" lighting-color="#ffffff" result="spec">
      <feDistantLight elevation="52" azimuth="38"/>
    </feSpecularLighting>
    <feComposite in="spec" in2="SourceGraphic" operator="in" result="sm"/>
    <feComposite in="SourceGraphic" in2="sm" operator="arithmetic" k1="0" k2="1" k3="0.55" k4="0"/>
  </filter>

  <!-- Sharper specular for weapons — heavier glare -->
  <filter id="wmr1x81" x="-8%" y="-8%" width="116%" height="116%">
    <feSpecularLighting surfaceScale="6" specularConstant="2.4"
        specularExponent="65" lighting-color="#ffffff" result="spec">
      <feDistantLight elevation="44" azimuth="28"/>
    </feSpecularLighting>
    <feComposite in="spec" in2="SourceGraphic" operator="in" result="sm"/>
    <feComposite in="SourceGraphic" in2="sm" operator="arithmetic" k1="0" k2="1" k3="0.78" k4="0"/>
  </filter>

  <!-- Sketch wobble -->
  <filter id="skr1x81" x="-8%" y="-8%" width="116%" height="116%">
    <feTurbulence type="fractalNoise" baseFrequency="0.038"
        numOctaves="3" seed="65" result="noise"/>
    <feDisplacementMap in="SourceGraphic" in2="noise" scale="2.6"
        xChannelSelector="R" yChannelSelector="G" result="w"/>
    <feComposite in="w" in2="SourceGraphic" operator="atop"/>
  </filter>

  <!-- Glow: sharp accent -->
  <filter id="glowr1x81" x="-20%" y="-20%" width="140%" height="140%">
    <feGaussianBlur stdDeviation="3.5" result="b"/>
    <feColorMatrix in="b" type="matrix"
        values="0 0 0 0 1  0 0 0 0 1  0 0 0 0 1  0 0 0 1.8 0" result="boost"/>
    <feMerge><feMergeNode in="boost"/><feMergeNode in="SourceGraphic"/></feMerge>
  </filter>

  <!-- Bloom: wide soft -->
  <filter id="bloomr1x81" x="-40%" y="-40%" width="180%" height="180%">
    <feGaussianBlur stdDeviation="11" result="b"/>
    <feMerge><feMergeNode in="b"/><feMergeNode in="SourceGraphic"/></feMerge>
  </filter>

  </defs><rect width="1000" height="1000" fill="url(#bgr1x81)"/><ellipse cx="500.0" cy="892.0" rx="350.0" ry="65.0" fill="rgba(0,0,0,.7)" filter="url(#bloomr1x81)"/><ellipse cx="500.0" cy="889.0" rx="220.0" ry="34.0" fill="rgba(0,0,0,.45)"/><ellipse cx="500.0" cy="520.0" rx="320.0" ry="480.0" fill="#ffffff" fill-opacity=".042" filter="url(#bloomr1x81)"/><circle cx="366.1" cy="701.2" r="2.3" fill="#ffffff" fill-opacity="0.64" filter="url(#glowr1x81)"/><circle cx="272.0" cy="216.5" r="2.3" fill="#ffffff" fill-opacity="0.42" filter="url(#glowr1x81)"/><circle cx="603.9" cy="529.7" r="2.4" fill="#ffffff" fill-opacity="0.88" filter="url(#glowr1x81)"/><circle cx="314.6" cy="614.3" r="1.9" fill="#ffffff" fill-opacity="0.69" filter="url(#glowr1x81)"/><circle cx="709.4" cy="281.0" r="2.4" fill="#ffffff" fill-opacity="0.48" filter="url(#glowr1x81)"/><circle cx="602.3" cy="413.0" r="1.2" fill="#ffffff" fill-opacity="0.71" filter="url(#glowr1x81)"/><circle cx="575.8" cy="563.3" r="1.7" fill="#ffffff" fill-opacity="0.70" filter="url(#glowr1x81)"/><circle cx="500.3" cy="216.5" r="4.2" fill="#ffffff" fill-opacity="0.60" filter="url(#glowr1x81)"/><circle cx="326.4" cy="361.2" r="0.9" fill="#ffffff" fill-opacity="0.72" filter="url(#glowr1x81)"/><circle cx="600.6" cy="314.8" r="4.2" fill="#ffffff" fill-opacity="0.86" filter="url(#glowr1x81)"/><circle cx="543.6" cy="300.9" r="3.3" fill="#ffffff" fill-opacity="0.51" filter="url(#glowr1x81)"/><circle cx="284.9" cy="796.7" r="3.5" fill="#ffffff" fill-opacity="0.48" filter="url(#glowr1x81)"/><circle cx="515.7" cy="335.2" r="2.7" fill="#ffffff" fill-opacity="0.65" filter="url(#glowr1x81)"/><circle cx="283.5" cy="195.3" r="2.3" fill="#ffffff" fill-opacity="0.49" filter="url(#glowr1x81)"/><polygon points="399.3,663.8 490.2,663.8 479.4,878.4 388.9,876.3" fill="url(#suitr1x81)" stroke="#2060ff" stroke-width="2.2" filter="url(#skr1x81) url(#metalr1x81)"/><polygon points="397.8,663.7 490.1,662.0 481.3,878.2 386.1,878.4" fill="url(#carbonr1x81)"/><polygon points="392.6,723.2 494.5,722.7 484.3,788.4 384.9,788.5" fill="url(#bevelr1x81)" fill-opacity=".5" stroke="#2060ff" stroke-width="1.4" filter="url(#skr1x81)"/><polygon points="510.4,664.2 599.8,664.2 613.0,877.8 518.9,877.2" fill="url(#suitr1x81)" stroke="#2060ff" stroke-width="2.2" filter="url(#skr1x81) url(#metalr1x81)"/><polygon points="510.6,663.5 600.2,662.4 613.4,878.3 517.6,879.3" fill="url(#carbonr1x81)"/><polygon points="505.8,724.4 609.0,722.0 617.0,787.2 515.1,786.7" fill="url(#bevelr1x81)" fill-opacity=".5" stroke="#2060ff" stroke-width="1.4" filter="url(#skr1x81)"/><rect x="393.9" y="839.1" width="100.3" height="24.7" fill="url(#bevelr1x81)" stroke="#2060ff" stroke-width="1" filter="url(#skr1x81)"/><rect x="507.0"  y="837.2" width="100.3" height="24.7" fill="url(#bevelr1x81)" stroke="#2060ff" stroke-width="1" filter="url(#skr1x81)"/><polygon points="370.2,876.9 495.3,878.3 503.6,921.0 363.2,921.6" fill="#003ccc" stroke="#2060ff" stroke-width="2" filter="url(#skr1x81)"/><polygon points="503.1,877.6 631.1,879.0 637.0,922.0 496.4,923.3" fill="#003ccc" stroke="#2060ff" stroke-width="2" filter="url(#skr1x81)"/><polygon points="303.9,633.6 695.9,632.4 638.9,681.6 361.2,683.5" fill="#2060ff" fill-opacity=".52" stroke="#2060ff" stroke-width="2" filter="url(#skr1x81)"/><rect x="463.9" y="639.3" width="72.0" height="42.0" fill="url(#bevelr1x81)" stroke="#2060ff" stroke-width="1.4" filter="url(#glowr1x81)"/><rect x="486.2" y="642.1" width="28.0" height="22.0" rx="1" fill="rgba(255,255,255,.48)"/><polygon points="153.6,467.1 234.2,466.9 259.6,734.6 127.6,736.4" fill="url(#suitr1x81)" stroke="#2060ff" stroke-width="2.2" filter="url(#skr1x81) url(#metalr1x81)"/><polygon points="174.4,433.5 252.9,431.5 241.5,509.5 160.9,509.9" fill="url(#bevelr1x81)" fill-opacity=".72" stroke="#2060ff" stroke-width="2.2" filter="url(#skr1x81)"/><polygon points="161.0,622.3 243.2,621.1 238.0,661.9 164.9,661.3" fill="#2060ff" fill-opacity=".42" stroke="#2060ff" stroke-width="1" filter="url(#skr1x81)"/><polygon points="763.6,465.2 846.7,465.3 873.3,734.4 743.4,734.3" fill="url(#suitr1x81)" stroke="#2060ff" stroke-width="2.2" filter="url(#skr1x81) url(#metalr1x81)"/><polygon points="748.3,431.7 825.8,431.7 840.0,512.1 756.9,509.7" fill="url(#bevelr1x81)" fill-opacity=".72" stroke="#2060ff" stroke-width="2.2" filter="url(#skr1x81)"/><polygon points="757.7,620.6 839.7,622.4 833.3,661.9 760.9,662.5" fill="#2060ff" fill-opacity=".42" stroke="#2060ff" stroke-width="1" filter="url(#skr1x81)"/><rect x="119.3"  y="698.3" width="135.3" height="85.0" rx="4" fill="url(#bevelr1x81)" stroke="#2060ff" stroke-width="1.8" filter="url(#skr1x81)"/><rect x="748.4"   y="698.5" width="135.3" height="85.0" rx="4" fill="url(#bevelr1x81)" stroke="#2060ff" stroke-width="1.8" filter="url(#skr1x81)"/><line x1="151.1" y1="702.7" x2="150.4" y2="783.5" stroke="#2060ff" stroke-opacity=".38" stroke-width="1"/><line x1="777.9" y1="701.9" x2="778.9" y2="783.3" stroke="#2060ff" stroke-opacity=".38" stroke-width="1"/><line x1="182.8" y1="702.2" x2="182.4" y2="784.5" stroke="#2060ff" stroke-opacity=".38" stroke-width="1"/><line x1="809.9" y1="700.3" x2="812.5" y2="784.9" stroke="#2060ff" stroke-opacity=".38" stroke-width="1"/><line x1="217.0" y1="703.2" x2="215.8" y2="785.5" stroke="#2060ff" stroke-opacity=".38" stroke-width="1"/><line x1="844.2" y1="703.2" x2="842.1" y2="785.6" stroke="#2060ff" stroke-opacity=".38" stroke-width="1"/><polygon points="234.9,416.9 763.6,417.5 721.9,662.1 276.2,662.8" fill="url(#suitr1x81)" stroke="#2060ff" stroke-width="2.6" filter="url(#skr1x81) url(#metalr1x81)"/><polygon points="234.0,416.2 765.3,416.3 721.3,663.2 278.6,661.7" fill="url(#carbonr1x81)"/><polygon points="369.1,418.2 634.2,417.7 610.0,515.9 387.7,514.8" fill="url(#suitHir1x81)"/><line x1="360.7" y1="470.1" x2="638.4" y2="470.2" stroke="#2060ff" stroke-opacity=".52" stroke-width="1.3" filter="url(#skr1x81)"/><line x1="399.3" y1="550.5" x2="599.4" y2="550.5" stroke="#2060ff" stroke-opacity=".52" stroke-width="1.3" filter="url(#skr1x81)"/><line x1="268.2" y1="490.5" x2="321.5" y2="491.6" stroke="#2060ff" stroke-opacity=".62" stroke-width="1.8"/><line x1="678.8" y1="489.8" x2="732.7" y2="492.1" stroke="#2060ff" stroke-opacity=".62" stroke-width="1.8"/><line x1="266.4" y1="522.1" x2="320.8" y2="521.9" stroke="#2060ff" stroke-opacity=".62" stroke-width="1.8"/><line x1="678.5" y1="523.3" x2="732.7" y2="521.9" stroke="#2060ff" stroke-opacity=".62" stroke-width="1.8"/><line x1="265.9" y1="555.8" x2="319.3" y2="554.7" stroke="#2060ff" stroke-opacity=".62" stroke-width="1.8"/><line x1="681.9" y1="554.9" x2="732.3" y2="553.8" stroke="#2060ff" stroke-opacity=".62" stroke-width="1.8"/><line x1="267.3" y1="586.8" x2="321.5" y2="587.4" stroke="#2060ff" stroke-opacity=".62" stroke-width="1.8"/><line x1="680.1" y1="585.5" x2="733.9" y2="585.7" stroke="#2060ff" stroke-opacity=".62" stroke-width="1.8"/><g filter="url(#glowr1x81)"><circle cx="500.1" cy="498.6" r="31.3" fill="#2060ff" stroke="#050508" stroke-width="1.4" filter="url(#skr1x81)"/><circle cx="488.1" cy="496.6" r="7.0" fill="#050508"/><circle cx="512.4" cy="496.6" r="7.0" fill="#050508"/><rect x="484.0" y="522.2" width="9.3" height="17.4" rx="1" fill="#2060ff" stroke="#050508" stroke-width=".6"/><rect x="495.3" y="521.8" width="9.3" height="17.4" rx="1" fill="#2060ff" stroke="#050508" stroke-width=".6"/><rect x="507.3" y="523.9" width="9.3" height="17.4" rx="1" fill="#2060ff" stroke="#050508" stroke-width=".6"/></g><g><line x1="899.2600647125021" y1="792.762135188654" x2="914.9415338319354" y2="111.90378004256634" stroke="url(#chromer1x81)" stroke-width="28.0" stroke-linecap="round" filter="url(#wmr1x81)"/><line x1="903.2370807545818" y1="769.6862596876919" x2="912.6085204853304" y2="130.86539503913372" stroke="rgba(255,255,255,.42)" stroke-width="5.0" stroke-linecap="round"/><polygon points="869.4,151.2 934.5,150.3 914.7,-7.0" fill="url(#blader1x81)" stroke="#2060ff" stroke-width="1.8" filter="url(#wmr1x81)"/><line x1="935.8" y1="151.4" x2="915.8" y2="-8.6" stroke="rgba(255,255,255,.72)" stroke-width="1.6"/><rect x="879.5316264604777" y="423.0145937141962" width="40.0" height="20.0" fill="url(#bevelr1x81)" stroke="#2060ff" stroke-width="1" filter="url(#wmr1x81)"/><rect x="879.0877490987629" y="512.9732752490788" width="40.0" height="20.0" fill="url(#bevelr1x81)" stroke="#2060ff" stroke-width="1" filter="url(#wmr1x81)"/><rect x="878.5148829853721" y="602.9011798637919" width="40.0" height="20.0" fill="url(#bevelr1x81)" stroke="#2060ff" stroke-width="1" filter="url(#wmr1x81)"/><rect x="877.5259774418175" y="690.9650312325917" width="40.0" height="20.0" fill="url(#bevelr1x81)" stroke="#2060ff" stroke-width="1" filter="url(#wmr1x81)"/><ellipse cx="899.5986605055258" cy="789.8094181409106" rx="22.0" ry="15.0" fill="url(#bevelr1x81)" stroke="#2060ff" stroke-width="1" filter="url(#wmr1x81)"/></g><rect x="448.27877138257026" y="556.8445146106184" width="100.0"  height="56.0" fill="#003ccc" stroke="#2060ff" stroke-width="2.2" filter="url(#skr1x81)"/><rect x="425.54294535843655" y="575.5509401283227" width="152.0" height="26.0" fill="url(#bevelr1x81)" fill-opacity=".65" stroke="#2060ff" stroke-width="1.2" filter="url(#skr1x81)"/><polygon points="306.3,381.3 351.3,294.1 500.0,277.2 648.0,294.7 692.5,379.4 669.9,504.9 499.0,564.8 329.3,504.1" fill="url(#suitr1x81)" stroke="#2060ff" stroke-width="2.8" filter="url(#skr1x81) url(#metalr1x81)"/><polygon points="307.1,378.9 348.5,294.8 501.2,279.0 650.8,296.2 692.3,380.8 669.6,503.9 498.4,564.8 332.1,502.6" fill="url(#carbonr1x81)"/><polygon points="379.7,301.2 498.5,287.5 617.4,301.5 608.4,381.7 391.1,380.1" fill="url(#suitHir1x81)"/><polygon points="382.0,382.1 366.6,425.4 434.2,503.9 500.3,529.8 566.9,503.2 632.7,425.4 620.0,380.5" fill="#050508" fill-opacity=".88" stroke="#2060ff" stroke-width="1.8" filter="url(#skr1x81)"/><polygon points="379.5,410.7 476.8,410.4 483.6,439.6 388.8,439.9" fill="#2060ff" filter="url(#glowr1x81)"/><polygon points="521.4,410.1 620.1,411.4 610.2,438.6 514.7,440.6" fill="#2060ff" filter="url(#glowr1x81)"/><ellipse cx="430.9" cy="425.7" rx="38.4"  ry="8.2" fill="#ffffff" opacity=".88"/><ellipse cx="569.1" cy="425.7" rx="38.4"  ry="8.2" fill="#ffffff" opacity=".88"/><line x1="483.08359382558615" y1="413.43693049354476" x2="516.8990078211203" y2="413.33365560527886" stroke="#2060ff" stroke-opacity=".52" stroke-width="2"/><line x1="486.0888001287915" y1="438.7179495197721" x2="513.8453213443421" y2="438.58942075436937" stroke="#2060ff" stroke-opacity=".52" stroke-width="2"/><line x1="500.36456901933997" y1="453.1583693679422" x2="499.9983953374438" y2="484.8491815679707" stroke="#2060ff" stroke-opacity=".58" stroke-width="2.2" filter="url(#skr1x81)"/><line x1="454.5932990897261" y1="490.7145883400924" x2="455.25312680982057" y2="521.0268693790771" stroke="#2060ff" stroke-opacity=".52" stroke-width="1.5" filter="url(#skr1x81)"/><line x1="475.21372033575545" y1="491.46991940205913" x2="476.9703169501759" y2="520.6210934485309" stroke="#2060ff" stroke-opacity=".52" stroke-width="1.5" filter="url(#skr1x81)"/><line x1="501.2565916435793" y1="492.05361556550486" x2="499.99692941801624" y2="521.542977731023" stroke="#2060ff" stroke-opacity=".52" stroke-width="1.5" filter="url(#skr1x81)"/><line x1="522.3449308563582" y1="490.6836424181237" x2="523.3370241181552" y2="519.7896133687348" stroke="#2060ff" stroke-opacity=".52" stroke-width="1.5" filter="url(#skr1x81)"/><line x1="544.4539355767146" y1="492.44478213386606" x2="546.1107934350334" y2="520.3569334718399" stroke="#2060ff" stroke-opacity=".52" stroke-width="1.5" filter="url(#skr1x81)"/><polygon points="433.1,504.1 566.1,504.7 555.5,556.1 447.9,557.2" fill="#003ccc" fill-opacity=".72" stroke="#2060ff" stroke-width="1.3" filter="url(#skr1x81)"/><polygon points="478.5,303.2 521.3,303.3 511.9,174.7 487.4,174.4" fill="url(#bevelr1x81)" stroke="#2060ff" stroke-width="2.2" filter="url(#skr1x81)"/><polygon points="366.6,324.9 457.9,324.2 467.7,228.4" fill="url(#bevelr1x81)" fill-opacity=".78" stroke="#2060ff" stroke-width="1.5" filter="url(#skr1x81)"/><polygon points="540.9,324.5 635.1,323.8 531.2,228.2" fill="url(#bevelr1x81)" fill-opacity=".78" stroke="#2060ff" stroke-width="1.5" filter="url(#skr1x81)"/><text x="30.0"  y="975.0" font-family="monospace" font-weight="bold" font-size="22.0" fill="rgba(255,255,255,.22)">#0001</text><text x="500.0"   y="975.0" text-anchor="middle" font-family="monospace" font-weight="bold" font-size="22.0" fill="#2060ff" fill-opacity=".48">COBALT RANGER</text><text x="970.0" y="975.0" text-anchor="end"    font-family="monospace" font-weight="bold" font-size="22.0" fill="#2060ff" fill-opacity=".32">MECH RANGERS</text></svg>