<svg xmlns="http://www.w3.org/2000/svg" viewBox="0 0 1000 1000" width="1000" height="1000" shape-rendering="geometricPrecision"><defs>

  <!-- Scene gradients -->
  <radialGradient id="bgr1x8190" cx="50%" cy="42%" r="72%">
    <stop offset="0%"   stop-color="#0a0a14"/>
    <stop offset="100%" stop-color="#050508"/>
  </radialGradient>
  <linearGradient id="suitr1x8190" x1="8%" y1="0%" x2="92%" y2="100%">
    <stop offset="0%"   stop-color="#ff2040" stop-opacity=".95"/>
    <stop offset="45%"  stop-color="#cc0020"/>
    <stop offset="100%" stop-color="#050508"/>
  </linearGradient>
  <linearGradient id="suitHir1x8190" x1="0%" y1="0%" x2="0%" y2="100%">
    <stop offset="0%"   stop-color="rgba(255,255,255,.28)"/>
    <stop offset="60%"  stop-color="rgba(255,255,255,.04)"/>
    <stop offset="100%" stop-color="rgba(255,255,255,0)"/>
  </linearGradient>
  <!-- Bevel: bright top, dark bottom for armour panels -->
  <linearGradient id="bevelr1x8190" x1="0%" y1="0%" x2="0%" y2="100%">
    <stop offset="0%"   stop-color="rgba(255,255,255,.55)"/>
    <stop offset="30%"  stop-color="#ff2040"/>
    <stop offset="70%"  stop-color="#cc0020"/>
    <stop offset="100%" stop-color="rgba(0,0,0,.5)"/>
  </linearGradient>

  <!-- Weapon: cold steel blade sweep -->
  <linearGradient id="blader1x8190" x1="0%" y1="0%" x2="100%" y2="0%">
    <stop offset="0%"   stop-color="#0e0e20"/>
    <stop offset="16%"  stop-color="#3e3e58"/>
    <stop offset="34%"  stop-color="#c8c8e0"/>
    <stop offset="50%"  stop-color="#f5f5ff"/>
    <stop offset="66%"  stop-color="#b8b8d0"/>
    <stop offset="84%"  stop-color="#2e2e48"/>
    <stop offset="100%" stop-color="#08080e"/>
  </linearGradient>
  <!-- Blade tip brightening -->
  <linearGradient id="bladeTipr1x8190" x1="0%" y1="100%" x2="0%" y2="0%">
    <stop offset="0%"   stop-color="rgba(255,255,255,0)"/>
    <stop offset="55%"  stop-color="rgba(255,255,255,.1)"/>
    <stop offset="100%" stop-color="rgba(255,255,255,.55)"/>
  </linearGradient>
  <!-- Gunmetal anodised — blaster body -->
  <linearGradient id="gunmetalr1x8190" x1="0%" y1="0%" x2="0%" y2="100%">
    <stop offset="0%"   stop-color="#46465e"/>
    <stop offset="18%"  stop-color="#828296"/>
    <stop offset="42%"  stop-color="#26263a"/>
    <stop offset="72%"  stop-color="#16162a"/>
    <stop offset="100%" stop-color="#0c0c18"/>
  </linearGradient>
  <!-- Brushed steel tube — barrel/rod -->
  <linearGradient id="barrelr1x8190" x1="0%" y1="0%" x2="100%" y2="0%">
    <stop offset="0%"   stop-color="#0a0a14"/>
    <stop offset="24%"  stop-color="#585875"/>
    <stop offset="50%"  stop-color="#a8a8c8"/>
    <stop offset="76%"  stop-color="#383852"/>
    <stop offset="100%" stop-color="#0a0a14"/>
  </linearGradient>
  <!-- Chrome rod — lance shaft -->
  <linearGradient id="chromer1x8190" x1="0%" y1="0%" x2="100%" y2="0%">
    <stop offset="0%"   stop-color="#0c0c18"/>
    <stop offset="20%"  stop-color="#686888"/>
    <stop offset="44%"  stop-color="#e0e0f0"/>
    <stop offset="56%"  stop-color="#c0c0d8"/>
    <stop offset="80%"  stop-color="#28283e"/>
    <stop offset="100%" stop-color="#0c0c18"/>
  </linearGradient>
  <!-- Titanium plate — shield face -->
  <linearGradient id="titaniumr1x8190" x1="0%" y1="0%" x2="100%" y2="100%">
    <stop offset="0%"   stop-color="#585878"/>
    <stop offset="28%"  stop-color="#ff2040" stop-opacity=".88"/>
    <stop offset="55%"  stop-color="#cc0020"/>
    <stop offset="80%"  stop-color="#181828"/>
    <stop offset="100%" stop-color="#0a0a18"/>
  </linearGradient>
  <!-- Artillery black-chrome — cannon body -->
  <linearGradient id="artilleryr1x8190" x1="0%" y1="0%" x2="0%" y2="100%">
    <stop offset="0%"   stop-color="#383850"/>
    <stop offset="14%"  stop-color="#78789a"/>
    <stop offset="36%"  stop-color="#202034"/>
    <stop offset="65%"  stop-color="#14141e"/>
    <stop offset="100%" stop-color="#0a0a12"/>
  </linearGradient>
  <!-- Energy orb — staff -->
  <radialGradient id="orbr1x8190" cx="35%" cy="35%" r="65%">
    <stop offset="0%"   stop-color="rgba(255,255,255,.9)"/>
    <stop offset="30%"  stop-color="#ff2040"/>
    <stop offset="68%"  stop-color="#cc0020"/>
    <stop offset="100%" stop-color="rgba(0,0,0,.6)"/>
  </radialGradient>
  <!-- Knuckle plate chrome -->
  <linearGradient id="knuckler1x8190" x1="0%" y1="0%" x2="0%" y2="100%">
    <stop offset="0%"   stop-color="#888aaa"/>
    <stop offset="32%"  stop-color="#ff2040" stop-opacity=".8"/>
    <stop offset="62%"  stop-color="#1a1a2c"/>
    <stop offset="100%" stop-color="#0a0a14"/>
  </linearGradient>

  <!-- Carbon fibre weave texture overlay -->
  <pattern id="carbonr1x8190" width="6" height="6" patternUnits="userSpaceOnUse">
    <rect width="6" height="6" fill="rgba(0,0,0,.08)"/>
    <rect x="0" y="0" width="3" height="3" fill="rgba(255,255,255,.022)"/>
    <rect x="3" y="3" width="3" height="3" fill="rgba(255,255,255,.022)"/>
    <line x1="0" y1="0" x2="3" y2="3" stroke="rgba(255,255,255,.038)" stroke-width=".5"/>
    <line x1="3" y1="0" x2="6" y2="3" stroke="rgba(0,0,0,.055)"       stroke-width=".5"/>
    <line x1="0" y1="3" x2="3" y2="6" stroke="rgba(0,0,0,.055)"       stroke-width=".5"/>
    <line x1="3" y1="3" x2="6" y2="6" stroke="rgba(255,255,255,.038)" stroke-width=".5"/>
  </pattern>

  <!-- Specular metal sheen on armour panels -->
  <filter id="metalr1x8190" x="-5%" y="-5%" width="110%" height="110%">
    <feSpecularLighting surfaceScale="4" specularConstant="1.8"
        specularExponent="42" lighting-color="#ffffff" result="spec">
      <feDistantLight elevation="52" azimuth="38"/>
    </feSpecularLighting>
    <feComposite in="spec" in2="SourceGraphic" operator="in" result="sm"/>
    <feComposite in="SourceGraphic" in2="sm" operator="arithmetic" k1="0" k2="1" k3="0.55" k4="0"/>
  </filter>

  <!-- Sharper specular for weapons — heavier glare -->
  <filter id="wmr1x8190" x="-8%" y="-8%" width="116%" height="116%">
    <feSpecularLighting surfaceScale="6" specularConstant="2.4"
        specularExponent="65" lighting-color="#ffffff" result="spec">
      <feDistantLight elevation="44" azimuth="28"/>
    </feSpecularLighting>
    <feComposite in="spec" in2="SourceGraphic" operator="in" result="sm"/>
    <feComposite in="SourceGraphic" in2="sm" operator="arithmetic" k1="0" k2="1" k3="0.78" k4="0"/>
  </filter>

  <!-- Sketch wobble -->
  <filter id="skr1x8190" x="-8%" y="-8%" width="116%" height="116%">
    <feTurbulence type="fractalNoise" baseFrequency="0.038"
        numOctaves="3" seed="49" result="noise"/>
    <feDisplacementMap in="SourceGraphic" in2="noise" scale="2.6"
        xChannelSelector="R" yChannelSelector="G" result="w"/>
    <feComposite in="w" in2="SourceGraphic" operator="atop"/>
  </filter>

  <!-- Glow: sharp accent -->
  <filter id="glowr1x8190" x="-20%" y="-20%" width="140%" height="140%">
    <feGaussianBlur stdDeviation="3.5" result="b"/>
    <feColorMatrix in="b" type="matrix"
        values="0 0 0 0 1  0 0 0 0 1  0 0 0 0 1  0 0 0 1.8 0" result="boost"/>
    <feMerge><feMergeNode in="boost"/><feMergeNode in="SourceGraphic"/></feMerge>
  </filter>

  <!-- Bloom: wide soft -->
  <filter id="bloomr1x8190" x="-40%" y="-40%" width="180%" height="180%">
    <feGaussianBlur stdDeviation="11" result="b"/>
    <feMerge><feMergeNode in="b"/><feMergeNode in="SourceGraphic"/></feMerge>
  </filter>

  </defs><rect width="1000" height="1000" fill="url(#bgr1x8190)"/><ellipse cx="500.0" cy="892.0" rx="350.0" ry="65.0" fill="rgba(0,0,0,.7)" filter="url(#bloomr1x8190)"/><ellipse cx="500.0" cy="889.0" rx="220.0" ry="34.0" fill="rgba(0,0,0,.45)"/><ellipse cx="500.0" cy="520.0" rx="320.0" ry="480.0" fill="#00e5ff" fill-opacity=".042" filter="url(#bloomr1x8190)"/><circle cx="436.9" cy="711.9" r="2.4" fill="#00e5ff" fill-opacity="0.47" filter="url(#glowr1x8190)"/><circle cx="698.8" cy="720.1" r="1.1" fill="#00e5ff" fill-opacity="0.61" filter="url(#glowr1x8190)"/><circle cx="600.9" cy="184.2" r="1.2" fill="#00e5ff" fill-opacity="0.39" filter="url(#glowr1x8190)"/><circle cx="633.4" cy="651.3" r="3.3" fill="#00e5ff" fill-opacity="0.49" filter="url(#glowr1x8190)"/><circle cx="730.1" cy="628.3" r="0.8" fill="#00e5ff" fill-opacity="0.90" filter="url(#glowr1x8190)"/><circle cx="630.3" cy="593.0" r="4.0" fill="#00e5ff" fill-opacity="0.57" filter="url(#glowr1x8190)"/><circle cx="292.2" cy="282.2" r="0.7" fill="#00e5ff" fill-opacity="0.70" filter="url(#glowr1x8190)"/><circle cx="294.2" cy="639.9" r="4.1" fill="#00e5ff" fill-opacity="0.47" filter="url(#glowr1x8190)"/><circle cx="550.0" cy="743.0" r="3.7" fill="#00e5ff" fill-opacity="0.89" filter="url(#glowr1x8190)"/><circle cx="604.7" cy="186.1" r="2.7" fill="#00e5ff" fill-opacity="0.69" filter="url(#glowr1x8190)"/><circle cx="591.1" cy="404.9" r="0.6" fill="#00e5ff" fill-opacity="0.52" filter="url(#glowr1x8190)"/><circle cx="387.2" cy="261.4" r="1.4" fill="#00e5ff" fill-opacity="0.58" filter="url(#glowr1x8190)"/><circle cx="377.5" cy="775.1" r="1.4" fill="#00e5ff" fill-opacity="0.74" filter="url(#glowr1x8190)"/><circle cx="375.3" cy="426.0" r="1.8" fill="#00e5ff" fill-opacity="0.74" filter="url(#glowr1x8190)"/><path d="M709.0,237.1 Q695.0,416.2 585.6,614.1" stroke="#00e5ff" stroke-opacity="0.52" stroke-width="2.3" fill="none" filter="url(#glowr1x8190)"/><path d="M319.0,321.5 Q314.6,590.4 448.8,888.4" stroke="#00e5ff" stroke-opacity="0.54" stroke-width="2.4" fill="none" filter="url(#glowr1x8190)"/><path d="M355.2,377.6 Q314.5,580.1 417.9,823.3" stroke="#00e5ff" stroke-opacity="0.59" stroke-width="2.6" fill="none" filter="url(#glowr1x8190)"/><path d="M580.5,382.0 Q572.9,568.1 516.1,703.9" stroke="#00e5ff" stroke-opacity="0.71" stroke-width="2.4" fill="none" filter="url(#glowr1x8190)"/><path d="M601.9,332.2 Q562.5,562.9 290.1,797.2" stroke="#00e5ff" stroke-opacity="0.79" stroke-width="1.7" fill="none" filter="url(#glowr1x8190)"/><polygon points="398.8,662.8 489.3,663.3 481.1,878.8 386.4,878.9" fill="url(#suitr1x8190)" stroke="#ff2040" stroke-width="2.2" filter="url(#skr1x8190) url(#metalr1x8190)"/><polygon points="399.8,661.1 489.3,663.7 481.9,878.8 388.1,879.1" fill="url(#carbonr1x8190)"/><polygon points="392.6,724.5 491.5,725.2 483.2,786.5 383.5,787.0" fill="url(#bevelr1x8190)" fill-opacity=".5" stroke="#ff2040" stroke-width="1.4" filter="url(#skr1x8190)"/><polygon points="510.6,662.2 601.1,661.8 612.0,879.0 517.9,878.1" fill="url(#suitr1x8190)" stroke="#ff2040" stroke-width="2.2" filter="url(#skr1x8190) url(#metalr1x8190)"/><polygon points="509.5,662.9 601.1,660.9 614.1,875.9 519.3,875.9" fill="url(#carbonr1x8190)"/><polygon points="506.8,722.1 606.6,725.4 616.7,787.6 517.5,787.1" fill="url(#bevelr1x8190)" fill-opacity=".5" stroke="#ff2040" stroke-width="1.4" filter="url(#skr1x8190)"/><rect x="391.0" y="839.3" width="100.3" height="24.7" fill="url(#bevelr1x8190)" stroke="#ff2040" stroke-width="1" filter="url(#skr1x8190)"/><rect x="505.7"  y="839.8" width="100.3" height="24.7" fill="url(#bevelr1x8190)" stroke="#ff2040" stroke-width="1" filter="url(#skr1x8190)"/><polygon points="369.6,875.9 495.5,878.3 504.1,920.3 364.2,920.9" fill="#cc0020" stroke="#ff2040" stroke-width="2" filter="url(#skr1x8190)"/><polygon points="502.9,877.3 629.7,875.8 638.9,919.8 495.2,921.9" fill="#cc0020" stroke="#ff2040" stroke-width="2" filter="url(#skr1x8190)"/><polygon points="303.7,633.5 694.9,633.8 636.9,681.2 360.9,683.4" fill="#ff2040" fill-opacity=".52" stroke="#ff2040" stroke-width="2" filter="url(#skr1x8190)"/><rect x="463.5" y="636.5" width="72.0" height="42.0" fill="url(#bevelr1x8190)" stroke="#ff2040" stroke-width="1.4" filter="url(#glowr1x8190)"/><rect x="486.9" y="639.2" width="28.0" height="22.0" rx="1" fill="rgba(255,255,255,.48)"/><polygon points="154.8,466.7 235.3,465.8 258.3,733.4 128.0,735.0" fill="url(#suitr1x8190)" stroke="#ff2040" stroke-width="2.2" filter="url(#skr1x8190) url(#metalr1x8190)"/><polygon points="172.2,431.3 254.2,431.1 243.6,509.2 157.8,510.2" fill="url(#bevelr1x8190)" fill-opacity=".72" stroke="#ff2040" stroke-width="2.2" filter="url(#skr1x8190)"/><polygon points="159.8,620.5 244.7,620.8 238.2,662.2 164.2,661.6" fill="#ff2040" fill-opacity=".42" stroke="#ff2040" stroke-width="1" filter="url(#skr1x8190)"/><polygon points="764.0,465.9 848.5,464.9 870.8,734.4 742.0,735.8" fill="url(#suitr1x8190)" stroke="#ff2040" stroke-width="2.2" filter="url(#skr1x8190) url(#metalr1x8190)"/><polygon points="747.1,432.8 827.9,432.0 838.8,511.3 756.5,511.9" fill="url(#bevelr1x8190)" fill-opacity=".72" stroke="#ff2040" stroke-width="2.2" filter="url(#skr1x8190)"/><polygon points="758.2,620.6 838.8,622.8 835.8,660.1 761.4,659.8" fill="#ff2040" fill-opacity=".42" stroke="#ff2040" stroke-width="1" filter="url(#skr1x8190)"/><rect x="121.3"  y="699.1" width="135.3" height="85.0" rx="4" fill="url(#bevelr1x8190)" stroke="#ff2040" stroke-width="1.8" filter="url(#skr1x8190)"/><rect x="750.2"   y="701.6" width="135.3" height="85.0" rx="4" fill="url(#bevelr1x8190)" stroke="#ff2040" stroke-width="1.8" filter="url(#skr1x8190)"/><line x1="150.9" y1="702.2" x2="151.0" y2="785.3" stroke="#ff2040" stroke-opacity=".38" stroke-width="1"/><line x1="778.9" y1="701.3" x2="778.9" y2="783.6" stroke="#ff2040" stroke-opacity=".38" stroke-width="1"/><line x1="183.9" y1="702.5" x2="183.4" y2="784.3" stroke="#ff2040" stroke-opacity=".38" stroke-width="1"/><line x1="811.4" y1="700.6" x2="812.7" y2="785.2" stroke="#ff2040" stroke-opacity=".38" stroke-width="1"/><line x1="215.2" y1="702.7" x2="216.1" y2="785.0" stroke="#ff2040" stroke-opacity=".38" stroke-width="1"/><line x1="844.4" y1="703.3" x2="844.2" y2="784.2" stroke="#ff2040" stroke-opacity=".38" stroke-width="1"/><polygon points="234.4,417.8 764.9,416.1 723.3,663.9 277.0,663.1" fill="url(#suitr1x8190)" stroke="#ff2040" stroke-width="2.6" filter="url(#skr1x8190) url(#metalr1x8190)"/><polygon points="236.4,416.5 766.0,418.5 722.5,661.8 278.6,662.9" fill="url(#carbonr1x8190)"/><polygon points="366.5,416.9 633.3,418.8 610.7,513.9 387.9,516.6" fill="url(#suitHir1x8190)"/><line x1="363.4" y1="471.4" x2="637.3" y2="471.3" stroke="#ff2040" stroke-opacity=".52" stroke-width="1.3" filter="url(#skr1x8190)"/><line x1="399.3" y1="548.8" x2="599.3" y2="549.3" stroke="#ff2040" stroke-opacity=".52" stroke-width="1.3" filter="url(#skr1x8190)"/><line x1="267.3" y1="490.4" x2="319.7" y2="490.0" stroke="#ff2040" stroke-opacity=".62" stroke-width="1.8"/><line x1="681.5" y1="491.8" x2="733.5" y2="492.1" stroke="#ff2040" stroke-opacity=".62" stroke-width="1.8"/><line x1="267.2" y1="522.9" x2="320.5" y2="524.5" stroke="#ff2040" stroke-opacity=".62" stroke-width="1.8"/><line x1="681.3" y1="521.4" x2="732.1" y2="523.5" stroke="#ff2040" stroke-opacity=".62" stroke-width="1.8"/><line x1="265.8" y1="553.3" x2="318.5" y2="553.9" stroke="#ff2040" stroke-opacity=".62" stroke-width="1.8"/><line x1="679.0" y1="554.3" x2="734.0" y2="555.6" stroke="#ff2040" stroke-opacity=".62" stroke-width="1.8"/><line x1="266.0" y1="586.8" x2="320.9" y2="585.4" stroke="#ff2040" stroke-opacity=".62" stroke-width="1.8"/><line x1="680.0" y1="585.3" x2="732.6" y2="587.5" stroke="#ff2040" stroke-opacity=".62" stroke-width="1.8"/><g filter="url(#glowr1x8190)"><path d="M500.0,449.7 C462.3,446.8 442.0,481.6 447.8,513.5 L459.4,542.5 C476.8,536.7 491.3,551.2 500.0,551.2 C508.7,551.2 523.2,536.7 540.6,542.5 L552.2,513.5 C558.0,481.6 537.7,446.8 500.0,449.7 Z" fill="#ff2040" fill-opacity=".92" stroke="#050508" stroke-width="1.3" filter="url(#skr1x8190)"/><path d="M483.8,519.3 Q500.0,533.8 516.2,519.3" stroke="#050508" stroke-width="1" fill="none" opacity=".58"/><ellipse cx="481.4" cy="497.8" rx="8.7" ry="6.4" fill="#050508" opacity=".95"/><ellipse cx="518.6" cy="497.8" rx="8.7" ry="6.4" fill="#050508" opacity=".95"/><ellipse cx="481.4" cy="497.8" rx="2.3" ry="5.8" fill="#ff2040"/><ellipse cx="518.6" cy="497.8" rx="2.3" ry="5.8" fill="#ff2040"/><path d="M471.0,467.1 L458.2,426.5 L481.4,463.0" fill="#ff2040" stroke="#050508" stroke-width=".9"/><path d="M529.0,467.1 L541.8,426.5 L518.6,463.0" fill="#ff2040" stroke="#050508" stroke-width=".9"/><path d="M476.8,452.6 C488.4,449.1 511.6,449.1 523.2,452.6" fill="rgba(255,255,255,.18)"/></g><g><line x1="103.1889026200771" y1="792.6414443300106" x2="84.79095922954377" y2="110.04520096397025" stroke="url(#chromer1x8190)" stroke-width="28.0" stroke-linecap="round" filter="url(#wmr1x8190)"/><line x1="97.01386207308617" y1="770.458417114336" x2="89.88333823768419" y2="131.6163767055608" stroke="rgba(255,255,255,.42)" stroke-width="5.0" stroke-linecap="round"/><polygon points="72.6,150.1 140.0,152.6 82.4,-6.9" fill="url(#blader1x8190)" stroke="#ff2040" stroke-width="1.8" filter="url(#wmr1x8190)"/><line x1="140.2" y1="151.4" x2="84.2" y2="-8.6" stroke="rgba(255,255,255,.72)" stroke-width="1.6"/><rect x="84.56836014579979" y="419.74315597433593" width="40.0" height="20.0" fill="url(#bevelr1x8190)" stroke="#ff2040" stroke-width="1" filter="url(#wmr1x8190)"/><rect x="84.07765147503463" y="511.6887424382381" width="40.0" height="20.0" fill="url(#bevelr1x8190)" stroke="#ff2040" stroke-width="1" filter="url(#wmr1x8190)"/><rect x="83.55418306527656" y="601.067275937181" width="40.0" height="20.0" fill="url(#bevelr1x8190)" stroke="#ff2040" stroke-width="1" filter="url(#wmr1x8190)"/><rect x="83.06590266874056" y="692.2210038835183" width="40.0" height="20.0" fill="url(#bevelr1x8190)" stroke="#ff2040" stroke-width="1" filter="url(#wmr1x8190)"/><ellipse cx="101.80307939521965" cy="792.0508334753104" rx="22.0" ry="15.0" fill="url(#bevelr1x8190)" stroke="#ff2040" stroke-width="1" filter="url(#wmr1x8190)"/></g><rect x="449.46400313191117" y="557.9782905680128" width="100.0"  height="56.0" fill="#cc0020" stroke="#ff2040" stroke-width="2.2" filter="url(#skr1x8190)"/><rect x="423.40604736348615" y="574.231349505391" width="152.0" height="26.0" fill="url(#bevelr1x8190)" fill-opacity=".65" stroke="#ff2040" stroke-width="1.2" filter="url(#skr1x8190)"/><polygon points="306.5,379.0 349.5,295.2 500.3,276.6 651.4,295.4 692.1,382.2 669.0,504.5 501.2,565.5 331.0,505.4" fill="url(#suitr1x8190)" stroke="#ff2040" stroke-width="2.8" filter="url(#skr1x8190) url(#metalr1x8190)"/><polygon points="306.8,379.6 349.1,294.6 498.8,276.3 648.0,296.2 690.7,380.3 670.5,503.3 500.8,566.8 332.2,504.7" fill="url(#carbonr1x8190)"/><polygon points="380.3,301.3 500.6,285.6 619.6,304.3 607.3,381.5 394.1,380.1" fill="url(#suitHir1x8190)"/><polygon points="380.3,380.2 364.2,426.1 434.4,502.8 501.3,528.1 567.5,503.1 635.3,427.3 619.4,382.3" fill="#050508" fill-opacity=".88" stroke="#ff2040" stroke-width="1.8" filter="url(#skr1x8190)"/><polygon points="379.5,412.6 478.4,412.1 486.2,438.6 389.1,438.8" fill="#ff2040" filter="url(#glowr1x8190)"/><polygon points="524.1,412.3 617.3,409.6 611.8,440.0 514.8,441.4" fill="#ff2040" filter="url(#glowr1x8190)"/><ellipse cx="430.9" cy="425.7" rx="38.4"  ry="8.2" fill="#ffffff" opacity=".88"/><ellipse cx="569.1" cy="425.7" rx="38.4"  ry="8.2" fill="#ffffff" opacity=".88"/><line x1="483.77526152418926" y1="413.47892903275783" x2="516.2973956036755" y2="413.84487404627725" stroke="#ff2040" stroke-opacity=".52" stroke-width="2"/><line x1="484.6867134787701" y1="436.985030992236" x2="515.7305178379081" y2="438.81803677445276" stroke="#ff2040" stroke-opacity=".52" stroke-width="2"/><line x1="498.6094322860241" y1="455.78065652418877" x2="498.90834107259286" y2="482.95500692538917" stroke="#ff2040" stroke-opacity=".58" stroke-width="2.2" filter="url(#skr1x8190)"/><line x1="452.59642257511615" y1="490.2456070484593" x2="453.20230022070933" y2="520.7572886780836" stroke="#ff2040" stroke-opacity=".52" stroke-width="1.5" filter="url(#skr1x8190)"/><line x1="476.42733672209084" y1="490.73797456994646" x2="477.91346036013215" y2="520.9263391626067" stroke="#ff2040" stroke-opacity=".52" stroke-width="1.5" filter="url(#skr1x8190)"/><line x1="501.35057718120515" y1="492.0605769012123" x2="499.2908288935199" y2="519.9736575449817" stroke="#ff2040" stroke-opacity=".52" stroke-width="1.5" filter="url(#skr1x8190)"/><line x1="522.945807584431" y1="492.73501454005014" x2="523.9691640567593" y2="519.8373463585042" stroke="#ff2040" stroke-opacity=".52" stroke-width="1.5" filter="url(#skr1x8190)"/><line x1="547.1282117229142" y1="491.8992492399178" x2="546.4390145181865" y2="521.7979011186399" stroke="#ff2040" stroke-opacity=".52" stroke-width="1.5" filter="url(#skr1x8190)"/><polygon points="431.3,504.5 568.2,503.2 554.4,556.7 444.4,557.3" fill="#cc0020" fill-opacity=".72" stroke="#ff2040" stroke-width="1.3" filter="url(#skr1x8190)"/><path d="M342.69503286242485 371.38087751949206 Q382.49715372402227 237.91680105142294 501.6673147762194 280.8206127809361" stroke="#ff2040" stroke-width="2.8" fill="none" stroke-opacity=".88" filter="url(#skr1x8190)"/><path d="M657.7629007463903 372.025028412696 Q617.4952689014002 237.70594986239448 501.72330329436807 283.3084411680698" stroke="#ff2040" stroke-width="2.8" fill="none" stroke-opacity=".88" filter="url(#skr1x8190)"/><line x1="419.3080055768974" y1="471.63457822399215" x2="439.69597552469" y2="501.8995418978855" stroke="#ff2040" stroke-opacity=".52" stroke-width="1.3" filter="url(#skr1x8190)"/><line x1="475.35264694759627" y1="471.76032843040304" x2="497.75816692741586" y2="503.66267211698" stroke="#ff2040" stroke-opacity=".52" stroke-width="1.3" filter="url(#skr1x8190)"/><line x1="533.4806943717784" y1="472.4165783108212" x2="554.0212614374608" y2="502.61514862459154" stroke="#ff2040" stroke-opacity=".52" stroke-width="1.3" filter="url(#skr1x8190)"/><line x1="592.6501136788539" y1="469.947081473656" x2="610.7522122209333" y2="501.847192071192" stroke="#ff2040" stroke-opacity=".52" stroke-width="1.3" filter="url(#skr1x8190)"/><text x="30.0"  y="975.0" font-family="monospace" font-weight="bold" font-size="22.0" fill="rgba(255,255,255,.22)">#0001</text><text x="500.0"   y="975.0" text-anchor="middle" font-family="monospace" font-weight="bold" font-size="22.0" fill="#ff2040" fill-opacity=".48">CRIMSON RANGER</text><text x="970.0" y="975.0" text-anchor="end"    font-family="monospace" font-weight="bold" font-size="22.0" fill="#ff2040" fill-opacity=".32">MECH RANGERS</text></svg>