<svg xmlns="http://www.w3.org/2000/svg" viewBox="0 0 1000 1000" width="1000" height="1000" shape-rendering="geometricPrecision"><defs>

  <!-- Scene gradients -->
  <radialGradient id="bgr1x8211" cx="50%" cy="42%" r="72%">
    <stop offset="0%"   stop-color="#1a2814"/>
    <stop offset="100%" stop-color="#0d1520"/>
  </radialGradient>
  <linearGradient id="suitr1x8211" x1="8%" y1="0%" x2="92%" y2="100%">
    <stop offset="0%"   stop-color="#ff2040" stop-opacity=".95"/>
    <stop offset="45%"  stop-color="#cc0020"/>
    <stop offset="100%" stop-color="#0d1520"/>
  </linearGradient>
  <linearGradient id="suitHir1x8211" x1="0%" y1="0%" x2="0%" y2="100%">
    <stop offset="0%"   stop-color="rgba(255,255,255,.28)"/>
    <stop offset="60%"  stop-color="rgba(255,255,255,.04)"/>
    <stop offset="100%" stop-color="rgba(255,255,255,0)"/>
  </linearGradient>
  <!-- Bevel: bright top, dark bottom for armour panels -->
  <linearGradient id="bevelr1x8211" x1="0%" y1="0%" x2="0%" y2="100%">
    <stop offset="0%"   stop-color="rgba(255,255,255,.55)"/>
    <stop offset="30%"  stop-color="#ff2040"/>
    <stop offset="70%"  stop-color="#cc0020"/>
    <stop offset="100%" stop-color="rgba(0,0,0,.5)"/>
  </linearGradient>

  <!-- Weapon: cold steel blade sweep -->
  <linearGradient id="blader1x8211" x1="0%" y1="0%" x2="100%" y2="0%">
    <stop offset="0%"   stop-color="#0e0e20"/>
    <stop offset="16%"  stop-color="#3e3e58"/>
    <stop offset="34%"  stop-color="#c8c8e0"/>
    <stop offset="50%"  stop-color="#f5f5ff"/>
    <stop offset="66%"  stop-color="#b8b8d0"/>
    <stop offset="84%"  stop-color="#2e2e48"/>
    <stop offset="100%" stop-color="#08080e"/>
  </linearGradient>
  <!-- Blade tip brightening -->
  <linearGradient id="bladeTipr1x8211" x1="0%" y1="100%" x2="0%" y2="0%">
    <stop offset="0%"   stop-color="rgba(255,255,255,0)"/>
    <stop offset="55%"  stop-color="rgba(255,255,255,.1)"/>
    <stop offset="100%" stop-color="rgba(255,255,255,.55)"/>
  </linearGradient>
  <!-- Gunmetal anodised — blaster body -->
  <linearGradient id="gunmetalr1x8211" x1="0%" y1="0%" x2="0%" y2="100%">
    <stop offset="0%"   stop-color="#46465e"/>
    <stop offset="18%"  stop-color="#828296"/>
    <stop offset="42%"  stop-color="#26263a"/>
    <stop offset="72%"  stop-color="#16162a"/>
    <stop offset="100%" stop-color="#0c0c18"/>
  </linearGradient>
  <!-- Brushed steel tube — barrel/rod -->
  <linearGradient id="barrelr1x8211" x1="0%" y1="0%" x2="100%" y2="0%">
    <stop offset="0%"   stop-color="#0a0a14"/>
    <stop offset="24%"  stop-color="#585875"/>
    <stop offset="50%"  stop-color="#a8a8c8"/>
    <stop offset="76%"  stop-color="#383852"/>
    <stop offset="100%" stop-color="#0a0a14"/>
  </linearGradient>
  <!-- Chrome rod — lance shaft -->
  <linearGradient id="chromer1x8211" x1="0%" y1="0%" x2="100%" y2="0%">
    <stop offset="0%"   stop-color="#0c0c18"/>
    <stop offset="20%"  stop-color="#686888"/>
    <stop offset="44%"  stop-color="#e0e0f0"/>
    <stop offset="56%"  stop-color="#c0c0d8"/>
    <stop offset="80%"  stop-color="#28283e"/>
    <stop offset="100%" stop-color="#0c0c18"/>
  </linearGradient>
  <!-- Titanium plate — shield face -->
  <linearGradient id="titaniumr1x8211" x1="0%" y1="0%" x2="100%" y2="100%">
    <stop offset="0%"   stop-color="#585878"/>
    <stop offset="28%"  stop-color="#ff2040" stop-opacity=".88"/>
    <stop offset="55%"  stop-color="#cc0020"/>
    <stop offset="80%"  stop-color="#181828"/>
    <stop offset="100%" stop-color="#0a0a18"/>
  </linearGradient>
  <!-- Artillery black-chrome — cannon body -->
  <linearGradient id="artilleryr1x8211" x1="0%" y1="0%" x2="0%" y2="100%">
    <stop offset="0%"   stop-color="#383850"/>
    <stop offset="14%"  stop-color="#78789a"/>
    <stop offset="36%"  stop-color="#202034"/>
    <stop offset="65%"  stop-color="#14141e"/>
    <stop offset="100%" stop-color="#0a0a12"/>
  </linearGradient>
  <!-- Energy orb — staff -->
  <radialGradient id="orbr1x8211" cx="35%" cy="35%" r="65%">
    <stop offset="0%"   stop-color="rgba(255,255,255,.9)"/>
    <stop offset="30%"  stop-color="#ff2040"/>
    <stop offset="68%"  stop-color="#cc0020"/>
    <stop offset="100%" stop-color="rgba(0,0,0,.6)"/>
  </radialGradient>
  <!-- Knuckle plate chrome -->
  <linearGradient id="knuckler1x8211" x1="0%" y1="0%" x2="0%" y2="100%">
    <stop offset="0%"   stop-color="#888aaa"/>
    <stop offset="32%"  stop-color="#ff2040" stop-opacity=".8"/>
    <stop offset="62%"  stop-color="#1a1a2c"/>
    <stop offset="100%" stop-color="#0a0a14"/>
  </linearGradient>

  <!-- Carbon fibre weave texture overlay -->
  <pattern id="carbonr1x8211" width="6" height="6" patternUnits="userSpaceOnUse">
    <rect width="6" height="6" fill="rgba(0,0,0,.08)"/>
    <rect x="0" y="0" width="3" height="3" fill="rgba(255,255,255,.022)"/>
    <rect x="3" y="3" width="3" height="3" fill="rgba(255,255,255,.022)"/>
    <line x1="0" y1="0" x2="3" y2="3" stroke="rgba(255,255,255,.038)" stroke-width=".5"/>
    <line x1="3" y1="0" x2="6" y2="3" stroke="rgba(0,0,0,.055)"       stroke-width=".5"/>
    <line x1="0" y1="3" x2="3" y2="6" stroke="rgba(0,0,0,.055)"       stroke-width=".5"/>
    <line x1="3" y1="3" x2="6" y2="6" stroke="rgba(255,255,255,.038)" stroke-width=".5"/>
  </pattern>

  <!-- Specular metal sheen on armour panels -->
  <filter id="metalr1x8211" x="-5%" y="-5%" width="110%" height="110%">
    <feSpecularLighting surfaceScale="4" specularConstant="1.8"
        specularExponent="42" lighting-color="#ffffff" result="spec">
      <feDistantLight elevation="52" azimuth="38"/>
    </feSpecularLighting>
    <feComposite in="spec" in2="SourceGraphic" operator="in" result="sm"/>
    <feComposite in="SourceGraphic" in2="sm" operator="arithmetic" k1="0" k2="1" k3="0.55" k4="0"/>
  </filter>

  <!-- Sharper specular for weapons — heavier glare -->
  <filter id="wmr1x8211" x="-8%" y="-8%" width="116%" height="116%">
    <feSpecularLighting surfaceScale="6" specularConstant="2.4"
        specularExponent="65" lighting-color="#ffffff" result="spec">
      <feDistantLight elevation="44" azimuth="28"/>
    </feSpecularLighting>
    <feComposite in="spec" in2="SourceGraphic" operator="in" result="sm"/>
    <feComposite in="SourceGraphic" in2="sm" operator="arithmetic" k1="0" k2="1" k3="0.78" k4="0"/>
  </filter>

  <!-- Sketch wobble -->
  <filter id="skr1x8211" x="-8%" y="-8%" width="116%" height="116%">
    <feTurbulence type="fractalNoise" baseFrequency="0.038"
        numOctaves="3" seed="56" result="noise"/>
    <feDisplacementMap in="SourceGraphic" in2="noise" scale="2.6"
        xChannelSelector="R" yChannelSelector="G" result="w"/>
    <feComposite in="w" in2="SourceGraphic" operator="atop"/>
  </filter>

  <!-- Glow: sharp accent -->
  <filter id="glowr1x8211" x="-20%" y="-20%" width="140%" height="140%">
    <feGaussianBlur stdDeviation="3.5" result="b"/>
    <feColorMatrix in="b" type="matrix"
        values="0 0 0 0 1  0 0 0 0 1  0 0 0 0 1  0 0 0 1.8 0" result="boost"/>
    <feMerge><feMergeNode in="boost"/><feMergeNode in="SourceGraphic"/></feMerge>
  </filter>

  <!-- Bloom: wide soft -->
  <filter id="bloomr1x8211" x="-40%" y="-40%" width="180%" height="180%">
    <feGaussianBlur stdDeviation="11" result="b"/>
    <feMerge><feMergeNode in="b"/><feMergeNode in="SourceGraphic"/></feMerge>
  </filter>

  </defs><rect width="1000" height="1000" fill="url(#bgr1x8211)"/><ellipse cx="500.0" cy="892.0" rx="350.0" ry="65.0" fill="rgba(0,0,0,.7)" filter="url(#bloomr1x8211)"/><ellipse cx="500.0" cy="889.0" rx="220.0" ry="34.0" fill="rgba(0,0,0,.45)"/><ellipse cx="500.0" cy="520.0" rx="320.0" ry="480.0" fill="#6600ff" fill-opacity=".042" filter="url(#bloomr1x8211)"/><circle cx="398.9" cy="585.6" r="2.2" fill="#6600ff" fill-opacity="0.58" filter="url(#glowr1x8211)"/><circle cx="680.2" cy="416.4" r="1.6" fill="#6600ff" fill-opacity="0.69" filter="url(#glowr1x8211)"/><circle cx="611.4" cy="374.1" r="2.1" fill="#6600ff" fill-opacity="0.79" filter="url(#glowr1x8211)"/><circle cx="545.4" cy="438.6" r="1.9" fill="#6600ff" fill-opacity="0.61" filter="url(#glowr1x8211)"/><circle cx="447.4" cy="552.3" r="1.3" fill="#6600ff" fill-opacity="0.53" filter="url(#glowr1x8211)"/><circle cx="286.3" cy="473.9" r="1.2" fill="#6600ff" fill-opacity="0.54" filter="url(#glowr1x8211)"/><circle cx="580.8" cy="783.6" r="3.6" fill="#6600ff" fill-opacity="0.72" filter="url(#glowr1x8211)"/><circle cx="574.5" cy="188.6" r="2.3" fill="#6600ff" fill-opacity="0.88" filter="url(#glowr1x8211)"/><circle cx="314.6" cy="604.9" r="0.8" fill="#6600ff" fill-opacity="0.85" filter="url(#glowr1x8211)"/><circle cx="659.2" cy="235.8" r="2.5" fill="#6600ff" fill-opacity="0.80" filter="url(#glowr1x8211)"/><circle cx="605.1" cy="786.6" r="1.5" fill="#6600ff" fill-opacity="0.70" filter="url(#glowr1x8211)"/><circle cx="346.0" cy="365.9" r="1.2" fill="#6600ff" fill-opacity="0.54" filter="url(#glowr1x8211)"/><circle cx="263.8" cy="295.8" r="3.8" fill="#6600ff" fill-opacity="0.83" filter="url(#glowr1x8211)"/><circle cx="641.9" cy="411.5" r="2.1" fill="#6600ff" fill-opacity="0.66" filter="url(#glowr1x8211)"/><polygon points="399.9,661.6 490.0,664.1 480.4,877.7 389.1,876.3" fill="url(#suitr1x8211)" stroke="#ff2040" stroke-width="2.2" filter="url(#skr1x8211) url(#metalr1x8211)"/><polygon points="398.3,661.9 490.9,662.8 480.1,875.9 388.0,876.4" fill="url(#carbonr1x8211)"/><polygon points="394.4,724.0 493.5,724.7 485.5,787.4 383.7,790.0" fill="url(#bevelr1x8211)" fill-opacity=".5" stroke="#ff2040" stroke-width="1.4" filter="url(#skr1x8211)"/><polygon points="511.9,661.5 599.4,663.8 614.3,878.3 517.7,877.8" fill="url(#suitr1x8211)" stroke="#ff2040" stroke-width="2.2" filter="url(#skr1x8211) url(#metalr1x8211)"/><polygon points="510.7,660.7 599.5,664.0 613.0,878.1 519.5,879.3" fill="url(#carbonr1x8211)"/><polygon points="506.9,722.5 607.8,724.4 614.8,788.7 515.9,788.1" fill="url(#bevelr1x8211)" fill-opacity=".5" stroke="#ff2040" stroke-width="1.4" filter="url(#skr1x8211)"/><rect x="390.9" y="840.0" width="100.3" height="24.7" fill="url(#bevelr1x8211)" stroke="#ff2040" stroke-width="1" filter="url(#skr1x8211)"/><rect x="508.7"  y="837.8" width="100.3" height="24.7" fill="url(#bevelr1x8211)" stroke="#ff2040" stroke-width="1" filter="url(#skr1x8211)"/><polygon points="368.0,876.8 496.4,879.0 504.1,922.9 363.7,920.2" fill="#cc0020" stroke="#ff2040" stroke-width="2" filter="url(#skr1x8211)"/><polygon points="504.5,877.2 631.3,876.0 637.3,920.7 496.6,923.2" fill="#cc0020" stroke="#ff2040" stroke-width="2" filter="url(#skr1x8211)"/><polygon points="304.8,633.0 697.6,631.6 638.3,681.7 362.3,683.5" fill="#ff2040" fill-opacity=".52" stroke="#ff2040" stroke-width="2" filter="url(#skr1x8211)"/><rect x="462.8" y="636.6" width="72.0" height="42.0" fill="url(#bevelr1x8211)" stroke="#ff2040" stroke-width="1.4" filter="url(#glowr1x8211)"/><rect x="484.9" y="640.6" width="28.0" height="22.0" rx="1" fill="rgba(255,255,255,.48)"/><polygon points="153.3,466.5 235.4,465.8 257.6,735.8 127.5,735.3" fill="url(#suitr1x8211)" stroke="#ff2040" stroke-width="2.2" filter="url(#skr1x8211) url(#metalr1x8211)"/><polygon points="172.8,432.4 252.9,431.5 241.5,510.8 159.4,509.5" fill="url(#bevelr1x8211)" fill-opacity=".72" stroke="#ff2040" stroke-width="2.2" filter="url(#skr1x8211)"/><polygon points="161.8,621.6 241.5,622.2 240.2,662.1 165.2,661.0" fill="#ff2040" fill-opacity=".42" stroke="#ff2040" stroke-width="1" filter="url(#skr1x8211)"/><polygon points="764.2,467.6 846.4,464.9 872.8,736.4 740.4,735.3" fill="url(#suitr1x8211)" stroke="#ff2040" stroke-width="2.2" filter="url(#skr1x8211) url(#metalr1x8211)"/><polygon points="748.7,430.5 826.2,432.9 840.0,509.1 758.5,510.8" fill="url(#bevelr1x8211)" fill-opacity=".72" stroke="#ff2040" stroke-width="2.2" filter="url(#skr1x8211)"/><polygon points="757.6,623.1 838.3,621.5 834.9,659.2 762.5,659.3" fill="#ff2040" fill-opacity=".42" stroke="#ff2040" stroke-width="1" filter="url(#skr1x8211)"/><rect x="119.4"  y="700.3" width="135.3" height="85.0" rx="4" fill="url(#bevelr1x8211)" stroke="#ff2040" stroke-width="1.8" filter="url(#skr1x8211)"/><rect x="749.7"   y="701.7" width="135.3" height="85.0" rx="4" fill="url(#bevelr1x8211)" stroke="#ff2040" stroke-width="1.8" filter="url(#skr1x8211)"/><line x1="149.2" y1="702.1" x2="148.0" y2="782.9" stroke="#ff2040" stroke-opacity=".38" stroke-width="1"/><line x1="778.3" y1="703.2" x2="778.0" y2="783.1" stroke="#ff2040" stroke-opacity=".38" stroke-width="1"/><line x1="181.1" y1="700.8" x2="182.3" y2="783.3" stroke="#ff2040" stroke-opacity=".38" stroke-width="1"/><line x1="812.0" y1="703.3" x2="812.7" y2="782.2" stroke="#ff2040" stroke-opacity=".38" stroke-width="1"/><line x1="215.8" y1="702.9" x2="214.6" y2="785.4" stroke="#ff2040" stroke-opacity=".38" stroke-width="1"/><line x1="845.1" y1="702.2" x2="844.0" y2="782.4" stroke="#ff2040" stroke-opacity=".38" stroke-width="1"/><polygon points="235.0,417.7 764.6,417.0 721.9,662.0 275.8,663.6" fill="url(#suitr1x8211)" stroke="#ff2040" stroke-width="2.6" filter="url(#skr1x8211) url(#metalr1x8211)"/><polygon points="236.3,417.3 764.9,417.2 722.8,663.4 277.1,661.2" fill="url(#carbonr1x8211)"/><polygon points="368.8,416.8 631.4,416.8 611.5,517.2 387.4,516.6" fill="url(#suitHir1x8211)"/><line x1="362.8" y1="473.1" x2="639.1" y2="470.3" stroke="#ff2040" stroke-opacity=".52" stroke-width="1.3" filter="url(#skr1x8211)"/><line x1="397.7" y1="551.3" x2="600.3" y2="551.1" stroke="#ff2040" stroke-opacity=".52" stroke-width="1.3" filter="url(#skr1x8211)"/><line x1="266.0" y1="492.0" x2="321.3" y2="491.6" stroke="#ff2040" stroke-opacity=".62" stroke-width="1.8"/><line x1="681.3" y1="489.6" x2="734.2" y2="491.5" stroke="#ff2040" stroke-opacity=".62" stroke-width="1.8"/><line x1="266.6" y1="523.2" x2="321.3" y2="523.1" stroke="#ff2040" stroke-opacity=".62" stroke-width="1.8"/><line x1="681.2" y1="521.8" x2="732.0" y2="523.3" stroke="#ff2040" stroke-opacity=".62" stroke-width="1.8"/><line x1="268.0" y1="555.9" x2="319.6" y2="556.4" stroke="#ff2040" stroke-opacity=".62" stroke-width="1.8"/><line x1="679.4" y1="553.2" x2="733.2" y2="554.5" stroke="#ff2040" stroke-opacity=".62" stroke-width="1.8"/><line x1="268.0" y1="587.5" x2="320.7" y2="585.6" stroke="#ff2040" stroke-opacity=".62" stroke-width="1.8"/><line x1="680.8" y1="586.4" x2="731.9" y2="587.3" stroke="#ff2040" stroke-opacity=".62" stroke-width="1.8"/><g filter="url(#glowr1x8211)"><polygon points="501.1,451.0 541.8,509.7 499.1,569.1 457.9,509.1" fill="#ff2040" stroke="#0d1520" stroke-width="1.4" filter="url(#skr1x8211)"/><polygon points="499.6,454.2 541.5,508.8 501.1,568.3 458.1,509.4" fill="url(#suitHir1x8211)" opacity=".45"/></g><g><polygon points="71.5,692.0 104.1,690.4 38.9,272.9" fill="url(#blader1x8211)" stroke="#ff2040" stroke-width="1.8" filter="url(#wmr1x8211)"/><line x1="97.2" y1="691.4" x2="46.2" y2="271.4" stroke="rgba(255,255,255,.58)" stroke-width="1.3"/><polygon points="114.4,692.7 149.5,691.9 189.7,270.8" fill="url(#blader1x8211)" stroke="#ff2040" stroke-width="1.8" filter="url(#wmr1x8211)"/><line x1="146.2" y1="691.4" x2="184.2" y2="271.4" stroke="rgba(255,255,255,.58)" stroke-width="1.3"/><rect x="66.83148988796395" y="680.2632458643988" width="96.0" height="26.0" rx="2" fill="url(#bevelr1x8211)" stroke="#ff2040" stroke-width="1.4" filter="url(#wmr1x8211)"/></g><rect x="450.41990849403663" y="556.6413013319485" width="100.0"  height="56.0" fill="#cc0020" stroke="#ff2040" stroke-width="2.2" filter="url(#skr1x8211)"/><rect x="424.627437127661" y="575.0132927696221" width="152.0" height="26.0" fill="url(#bevelr1x8211)" fill-opacity=".65" stroke="#ff2040" stroke-width="1.2" filter="url(#skr1x8211)"/><polygon points="306.6,380.8 348.5,295.5 499.7,279.7 650.9,293.9 693.1,382.0 669.1,502.3 498.2,565.8 332.8,505.4" fill="url(#suitr1x8211)" stroke="#ff2040" stroke-width="2.8" filter="url(#skr1x8211) url(#metalr1x8211)"/><polygon points="306.6,381.5 351.8,294.8 499.7,278.2 651.4,294.2 692.8,379.2 669.1,505.3 500.6,566.9 332.8,503.8" fill="url(#carbonr1x8211)"/><polygon points="379.8,301.1 498.7,285.7 619.8,304.4 607.3,380.5 392.7,382.0" fill="url(#suitHir1x8211)"/><polygon points="379.6,379.3 367.3,424.5 433.2,503.3 498.9,529.0 567.5,502.2 634.7,426.4 620.1,381.8" fill="#0d1520" fill-opacity=".88" stroke="#ff2040" stroke-width="1.8" filter="url(#skr1x8211)"/><polygon points="379.6,410.4 475.4,409.9 484.7,440.5 389.4,439.7" fill="#ff2040" filter="url(#glowr1x8211)"/><polygon points="524.4,411.5 619.3,413.0 609.9,440.4 513.9,439.6" fill="#ff2040" filter="url(#glowr1x8211)"/><ellipse cx="430.9" cy="425.7" rx="38.4"  ry="8.2" fill="#ffffff" opacity=".88"/><ellipse cx="569.1" cy="425.7" rx="38.4"  ry="8.2" fill="#ffffff" opacity=".88"/><line x1="485.6971906321682" y1="412.8578358516097" x2="517.1395488452539" y2="413.6735831402242" stroke="#ff2040" stroke-opacity=".52" stroke-width="2"/><line x1="485.64037155961614" y1="438.2333339410834" x2="516.0255719808303" y2="438.7720167255029" stroke="#ff2040" stroke-opacity=".52" stroke-width="2"/><line x1="498.71567896883937" y1="453.9170163870789" x2="498.81963493535295" y2="484.4213432386518" stroke="#ff2040" stroke-opacity=".58" stroke-width="2.2" filter="url(#skr1x8211)"/><line x1="455.4707813608274" y1="492.0718224564567" x2="453.4271182353422" y2="521.2504912793636" stroke="#ff2040" stroke-opacity=".52" stroke-width="1.5" filter="url(#skr1x8211)"/><line x1="477.714039129056" y1="491.887708624918" x2="476.72565684257074" y2="520.4245910668745" stroke="#ff2040" stroke-opacity=".52" stroke-width="1.5" filter="url(#skr1x8211)"/><line x1="500.68965646009894" y1="491.44635611204427" x2="500.42651129299776" y2="519.1393143042922" stroke="#ff2040" stroke-opacity=".52" stroke-width="1.5" filter="url(#skr1x8211)"/><line x1="523.6341875720397" y1="491.55565411355343" x2="522.0926772708632" y2="521.4635890112258" stroke="#ff2040" stroke-opacity=".52" stroke-width="1.5" filter="url(#skr1x8211)"/><line x1="547.3833339234069" y1="490.9503054976463" x2="547.0547248754837" y2="518.7849127153866" stroke="#ff2040" stroke-opacity=".52" stroke-width="1.5" filter="url(#skr1x8211)"/><polygon points="431.2,503.5 568.8,503.8 552.1,555.9 445.9,556.5" fill="#cc0020" fill-opacity=".72" stroke="#ff2040" stroke-width="1.3" filter="url(#skr1x8211)"/><text x="30.0"  y="975.0" font-family="monospace" font-weight="bold" font-size="22.0" fill="rgba(255,255,255,.22)">#0001</text><text x="500.0"   y="975.0" text-anchor="middle" font-family="monospace" font-weight="bold" font-size="22.0" fill="#ff2040" fill-opacity=".48">CRIMSON RANGER</text><text x="970.0" y="975.0" text-anchor="end"    font-family="monospace" font-weight="bold" font-size="22.0" fill="#ff2040" fill-opacity=".32">MECH RANGERS</text></svg>