<svg xmlns="http://www.w3.org/2000/svg" viewBox="0 0 1000 1000" width="1000" height="1000" shape-rendering="geometricPrecision"><defs>

  <!-- Scene gradients -->
  <radialGradient id="bgr1x8262" cx="50%" cy="42%" r="72%">
    <stop offset="0%"   stop-color="#001e1e"/>
    <stop offset="100%" stop-color="#0e001e"/>
  </radialGradient>
  <linearGradient id="suitr1x8262" x1="8%" y1="0%" x2="92%" y2="100%">
    <stop offset="0%"   stop-color="#4444ff" stop-opacity=".95"/>
    <stop offset="45%"  stop-color="#141428"/>
    <stop offset="100%" stop-color="#0e001e"/>
  </linearGradient>
  <linearGradient id="suitHir1x8262" x1="0%" y1="0%" x2="0%" y2="100%">
    <stop offset="0%"   stop-color="rgba(255,255,255,.28)"/>
    <stop offset="60%"  stop-color="rgba(255,255,255,.04)"/>
    <stop offset="100%" stop-color="rgba(255,255,255,0)"/>
  </linearGradient>
  <!-- Bevel: bright top, dark bottom for armour panels -->
  <linearGradient id="bevelr1x8262" x1="0%" y1="0%" x2="0%" y2="100%">
    <stop offset="0%"   stop-color="rgba(255,255,255,.55)"/>
    <stop offset="30%"  stop-color="#4444ff"/>
    <stop offset="70%"  stop-color="#141428"/>
    <stop offset="100%" stop-color="rgba(0,0,0,.5)"/>
  </linearGradient>

  <!-- Weapon: cold steel blade sweep -->
  <linearGradient id="blader1x8262" x1="0%" y1="0%" x2="100%" y2="0%">
    <stop offset="0%"   stop-color="#0e0e20"/>
    <stop offset="16%"  stop-color="#3e3e58"/>
    <stop offset="34%"  stop-color="#c8c8e0"/>
    <stop offset="50%"  stop-color="#f5f5ff"/>
    <stop offset="66%"  stop-color="#b8b8d0"/>
    <stop offset="84%"  stop-color="#2e2e48"/>
    <stop offset="100%" stop-color="#08080e"/>
  </linearGradient>
  <!-- Blade tip brightening -->
  <linearGradient id="bladeTipr1x8262" x1="0%" y1="100%" x2="0%" y2="0%">
    <stop offset="0%"   stop-color="rgba(255,255,255,0)"/>
    <stop offset="55%"  stop-color="rgba(255,255,255,.1)"/>
    <stop offset="100%" stop-color="rgba(255,255,255,.55)"/>
  </linearGradient>
  <!-- Gunmetal anodised — blaster body -->
  <linearGradient id="gunmetalr1x8262" x1="0%" y1="0%" x2="0%" y2="100%">
    <stop offset="0%"   stop-color="#46465e"/>
    <stop offset="18%"  stop-color="#828296"/>
    <stop offset="42%"  stop-color="#26263a"/>
    <stop offset="72%"  stop-color="#16162a"/>
    <stop offset="100%" stop-color="#0c0c18"/>
  </linearGradient>
  <!-- Brushed steel tube — barrel/rod -->
  <linearGradient id="barrelr1x8262" x1="0%" y1="0%" x2="100%" y2="0%">
    <stop offset="0%"   stop-color="#0a0a14"/>
    <stop offset="24%"  stop-color="#585875"/>
    <stop offset="50%"  stop-color="#a8a8c8"/>
    <stop offset="76%"  stop-color="#383852"/>
    <stop offset="100%" stop-color="#0a0a14"/>
  </linearGradient>
  <!-- Chrome rod — lance shaft -->
  <linearGradient id="chromer1x8262" x1="0%" y1="0%" x2="100%" y2="0%">
    <stop offset="0%"   stop-color="#0c0c18"/>
    <stop offset="20%"  stop-color="#686888"/>
    <stop offset="44%"  stop-color="#e0e0f0"/>
    <stop offset="56%"  stop-color="#c0c0d8"/>
    <stop offset="80%"  stop-color="#28283e"/>
    <stop offset="100%" stop-color="#0c0c18"/>
  </linearGradient>
  <!-- Titanium plate — shield face -->
  <linearGradient id="titaniumr1x8262" x1="0%" y1="0%" x2="100%" y2="100%">
    <stop offset="0%"   stop-color="#585878"/>
    <stop offset="28%"  stop-color="#4444ff" stop-opacity=".88"/>
    <stop offset="55%"  stop-color="#141428"/>
    <stop offset="80%"  stop-color="#181828"/>
    <stop offset="100%" stop-color="#0a0a18"/>
  </linearGradient>
  <!-- Artillery black-chrome — cannon body -->
  <linearGradient id="artilleryr1x8262" x1="0%" y1="0%" x2="0%" y2="100%">
    <stop offset="0%"   stop-color="#383850"/>
    <stop offset="14%"  stop-color="#78789a"/>
    <stop offset="36%"  stop-color="#202034"/>
    <stop offset="65%"  stop-color="#14141e"/>
    <stop offset="100%" stop-color="#0a0a12"/>
  </linearGradient>
  <!-- Energy orb — staff -->
  <radialGradient id="orbr1x8262" cx="35%" cy="35%" r="65%">
    <stop offset="0%"   stop-color="rgba(255,255,255,.9)"/>
    <stop offset="30%"  stop-color="#4444ff"/>
    <stop offset="68%"  stop-color="#141428"/>
    <stop offset="100%" stop-color="rgba(0,0,0,.6)"/>
  </radialGradient>
  <!-- Knuckle plate chrome -->
  <linearGradient id="knuckler1x8262" x1="0%" y1="0%" x2="0%" y2="100%">
    <stop offset="0%"   stop-color="#888aaa"/>
    <stop offset="32%"  stop-color="#4444ff" stop-opacity=".8"/>
    <stop offset="62%"  stop-color="#1a1a2c"/>
    <stop offset="100%" stop-color="#0a0a14"/>
  </linearGradient>

  <!-- Carbon fibre weave texture overlay -->
  <pattern id="carbonr1x8262" width="6" height="6" patternUnits="userSpaceOnUse">
    <rect width="6" height="6" fill="rgba(0,0,0,.08)"/>
    <rect x="0" y="0" width="3" height="3" fill="rgba(255,255,255,.022)"/>
    <rect x="3" y="3" width="3" height="3" fill="rgba(255,255,255,.022)"/>
    <line x1="0" y1="0" x2="3" y2="3" stroke="rgba(255,255,255,.038)" stroke-width=".5"/>
    <line x1="3" y1="0" x2="6" y2="3" stroke="rgba(0,0,0,.055)"       stroke-width=".5"/>
    <line x1="0" y1="3" x2="3" y2="6" stroke="rgba(0,0,0,.055)"       stroke-width=".5"/>
    <line x1="3" y1="3" x2="6" y2="6" stroke="rgba(255,255,255,.038)" stroke-width=".5"/>
  </pattern>

  <!-- Specular metal sheen on armour panels -->
  <filter id="metalr1x8262" x="-5%" y="-5%" width="110%" height="110%">
    <feSpecularLighting surfaceScale="4" specularConstant="1.8"
        specularExponent="42" lighting-color="#ffffff" result="spec">
      <feDistantLight elevation="52" azimuth="38"/>
    </feSpecularLighting>
    <feComposite in="spec" in2="SourceGraphic" operator="in" result="sm"/>
    <feComposite in="SourceGraphic" in2="sm" operator="arithmetic" k1="0" k2="1" k3="0.55" k4="0"/>
  </filter>

  <!-- Sharper specular for weapons — heavier glare -->
  <filter id="wmr1x8262" x="-8%" y="-8%" width="116%" height="116%">
    <feSpecularLighting surfaceScale="6" specularConstant="2.4"
        specularExponent="65" lighting-color="#ffffff" result="spec">
      <feDistantLight elevation="44" azimuth="28"/>
    </feSpecularLighting>
    <feComposite in="spec" in2="SourceGraphic" operator="in" result="sm"/>
    <feComposite in="SourceGraphic" in2="sm" operator="arithmetic" k1="0" k2="1" k3="0.78" k4="0"/>
  </filter>

  <!-- Sketch wobble -->
  <filter id="skr1x8262" x="-8%" y="-8%" width="116%" height="116%">
    <feTurbulence type="fractalNoise" baseFrequency="0.038"
        numOctaves="3" seed="39" result="noise"/>
    <feDisplacementMap in="SourceGraphic" in2="noise" scale="2.6"
        xChannelSelector="R" yChannelSelector="G" result="w"/>
    <feComposite in="w" in2="SourceGraphic" operator="atop"/>
  </filter>

  <!-- Glow: sharp accent -->
  <filter id="glowr1x8262" x="-20%" y="-20%" width="140%" height="140%">
    <feGaussianBlur stdDeviation="3.5" result="b"/>
    <feColorMatrix in="b" type="matrix"
        values="0 0 0 0 1  0 0 0 0 1  0 0 0 0 1  0 0 0 1.8 0" result="boost"/>
    <feMerge><feMergeNode in="boost"/><feMergeNode in="SourceGraphic"/></feMerge>
  </filter>

  <!-- Bloom: wide soft -->
  <filter id="bloomr1x8262" x="-40%" y="-40%" width="180%" height="180%">
    <feGaussianBlur stdDeviation="11" result="b"/>
    <feMerge><feMergeNode in="b"/><feMergeNode in="SourceGraphic"/></feMerge>
  </filter>

  </defs><rect width="1000" height="1000" fill="url(#bgr1x8262)"/><circle cx="500" cy="500" r="420.0" fill="none" stroke="#4444ff" stroke-opacity=".11" stroke-width="42" stroke-dasharray="8,5"/><circle cx="500" cy="500" r="240.0" fill="none" stroke="#141428" stroke-opacity=".09" stroke-width="18"/><line x1="500" y1="500" x2="1500.0" y2="500.0" stroke="#4444ff" stroke-opacity=".035" stroke-width="1.2"/><line x1="500" y1="500" x2="1366.0" y2="1000.0" stroke="#4444ff" stroke-opacity=".035" stroke-width="1.2"/><line x1="500" y1="500" x2="1000.0" y2="1366.0" stroke="#4444ff" stroke-opacity=".035" stroke-width="1.2"/><line x1="500" y1="500" x2="500.0" y2="1500.0" stroke="#4444ff" stroke-opacity=".035" stroke-width="1.2"/><line x1="500" y1="500" x2="0.0" y2="1366.0" stroke="#4444ff" stroke-opacity=".035" stroke-width="1.2"/><line x1="500" y1="500" x2="-366.0" y2="1000.0" stroke="#4444ff" stroke-opacity=".035" stroke-width="1.2"/><line x1="500" y1="500" x2="-500.0" y2="500.0" stroke="#4444ff" stroke-opacity=".035" stroke-width="1.2"/><line x1="500" y1="500" x2="-366.0" y2="-0.0" stroke="#4444ff" stroke-opacity=".035" stroke-width="1.2"/><line x1="500" y1="500" x2="-0.0" y2="-366.0" stroke="#4444ff" stroke-opacity=".035" stroke-width="1.2"/><line x1="500" y1="500" x2="500.0" y2="-500.0" stroke="#4444ff" stroke-opacity=".035" stroke-width="1.2"/><line x1="500" y1="500" x2="1000.0" y2="-366.0" stroke="#4444ff" stroke-opacity=".035" stroke-width="1.2"/><line x1="500" y1="500" x2="1366.0" y2="-0.0" stroke="#4444ff" stroke-opacity=".035" stroke-width="1.2"/><ellipse cx="500.0" cy="892.0" rx="350.0" ry="65.0" fill="rgba(0,0,0,.7)" filter="url(#bloomr1x8262)"/><ellipse cx="500.0" cy="889.0" rx="220.0" ry="34.0" fill="rgba(0,0,0,.45)"/><polygon points="399.6,661.5 488.8,664.1 480.5,875.9 388.5,876.9" fill="url(#suitr1x8262)" stroke="#4444ff" stroke-width="2.2" filter="url(#skr1x8262) url(#metalr1x8262)"/><polygon points="400.1,664.1 488.9,662.1 480.6,878.3 387.0,875.9" fill="url(#carbonr1x8262)"/><polygon points="393.4,724.1 492.1,723.0 482.4,789.8 384.8,786.6" fill="url(#bevelr1x8262)" fill-opacity=".5" stroke="#4444ff" stroke-width="1.4" filter="url(#skr1x8262)"/><polygon points="508.9,663.2 601.9,663.6 614.0,875.9 519.5,876.2" fill="url(#suitr1x8262)" stroke="#4444ff" stroke-width="2.2" filter="url(#skr1x8262) url(#metalr1x8262)"/><polygon points="511.0,662.1 601.4,661.3 613.9,878.0 520.0,878.8" fill="url(#carbonr1x8262)"/><polygon points="507.7,722.2 608.8,722.6 615.8,787.0 517.3,788.2" fill="url(#bevelr1x8262)" fill-opacity=".5" stroke="#4444ff" stroke-width="1.4" filter="url(#skr1x8262)"/><rect x="394.3" y="839.0" width="100.3" height="24.7" fill="url(#bevelr1x8262)" stroke="#4444ff" stroke-width="1" filter="url(#skr1x8262)"/><rect x="506.3"  y="840.2" width="100.3" height="24.7" fill="url(#bevelr1x8262)" stroke="#4444ff" stroke-width="1" filter="url(#skr1x8262)"/><polygon points="370.8,876.2 495.2,878.9 502.8,921.7 363.2,920.5" fill="#141428" stroke="#4444ff" stroke-width="2" filter="url(#skr1x8262)"/><polygon points="503.0,875.8 629.0,876.3 637.2,921.8 497.9,921.7" fill="#141428" stroke="#4444ff" stroke-width="2" filter="url(#skr1x8262)"/><polygon points="304.3,632.0 697.2,631.6 639.4,682.4 362.5,683.7" fill="#4444ff" fill-opacity=".52" stroke="#4444ff" stroke-width="2" filter="url(#skr1x8262)"/><rect x="464.1" y="637.9" width="72.0" height="42.0" fill="url(#bevelr1x8262)" stroke="#4444ff" stroke-width="1.4" filter="url(#glowr1x8262)"/><rect x="487.1" y="642.0" width="28.0" height="22.0" rx="1" fill="rgba(255,255,255,.48)"/><polygon points="151.8,467.6 234.8,466.4 256.9,733.8 127.0,735.8" fill="url(#suitr1x8262)" stroke="#4444ff" stroke-width="2.2" filter="url(#skr1x8262) url(#metalr1x8262)"/><polygon points="174.1,432.9 251.8,432.8 242.1,511.5 160.6,510.5" fill="url(#bevelr1x8262)" fill-opacity=".72" stroke="#4444ff" stroke-width="2.2" filter="url(#skr1x8262)"/><polygon points="161.3,622.2 242.4,622.3 239.3,662.5 164.5,662.6" fill="#4444ff" fill-opacity=".42" stroke="#4444ff" stroke-width="1" filter="url(#skr1x8262)"/><polygon points="766.4,466.2 848.5,465.2 871.0,735.4 743.1,735.1" fill="url(#suitr1x8262)" stroke="#4444ff" stroke-width="2.2" filter="url(#skr1x8262) url(#metalr1x8262)"/><polygon points="748.1,433.9 827.0,431.1 840.2,509.3 756.1,510.6" fill="url(#bevelr1x8262)" fill-opacity=".72" stroke="#4444ff" stroke-width="2.2" filter="url(#skr1x8262)"/><polygon points="756.5,622.7 838.7,622.1 835.9,660.5 761.9,661.2" fill="#4444ff" fill-opacity=".42" stroke="#4444ff" stroke-width="1" filter="url(#skr1x8262)"/><rect x="119.6"  y="701.1" width="135.3" height="85.0" rx="4" fill="url(#bevelr1x8262)" stroke="#4444ff" stroke-width="1.8" filter="url(#skr1x8262)"/><rect x="747.1"   y="698.9" width="135.3" height="85.0" rx="4" fill="url(#bevelr1x8262)" stroke="#4444ff" stroke-width="1.8" filter="url(#skr1x8262)"/><line x1="148.3" y1="701.4" x2="149.7" y2="784.2" stroke="#4444ff" stroke-opacity=".38" stroke-width="1"/><line x1="777.3" y1="701.5" x2="777.1" y2="782.6" stroke="#4444ff" stroke-opacity=".38" stroke-width="1"/><line x1="182.2" y1="701.5" x2="183.8" y2="783.0" stroke="#4444ff" stroke-opacity=".38" stroke-width="1"/><line x1="811.8" y1="702.8" x2="809.9" y2="783.3" stroke="#4444ff" stroke-opacity=".38" stroke-width="1"/><line x1="215.4" y1="702.2" x2="217.0" y2="784.3" stroke="#4444ff" stroke-opacity=".38" stroke-width="1"/><line x1="842.1" y1="701.4" x2="843.9" y2="783.5" stroke="#4444ff" stroke-opacity=".38" stroke-width="1"/><polygon points="235.9,418.4 765.7,417.7 721.8,661.1 277.5,664.0" fill="url(#suitr1x8262)" stroke="#4444ff" stroke-width="2.6" filter="url(#skr1x8262) url(#metalr1x8262)"/><polygon points="234.9,418.6 766.7,417.6 723.5,661.8 275.7,664.1" fill="url(#carbonr1x8262)"/><polygon points="368.0,417.3 633.3,417.0 612.7,516.7 389.8,514.4" fill="url(#suitHir1x8262)"/><line x1="362.2" y1="470.1" x2="639.3" y2="471.4" stroke="#4444ff" stroke-opacity=".52" stroke-width="1.3" filter="url(#skr1x8262)"/><line x1="398.7" y1="548.4" x2="601.8" y2="549.2" stroke="#4444ff" stroke-opacity=".52" stroke-width="1.3" filter="url(#skr1x8262)"/><line x1="266.7" y1="492.4" x2="319.8" y2="491.8" stroke="#4444ff" stroke-opacity=".62" stroke-width="1.8"/><line x1="681.8" y1="492.6" x2="734.5" y2="489.7" stroke="#4444ff" stroke-opacity=".62" stroke-width="1.8"/><line x1="267.5" y1="521.9" x2="319.8" y2="524.5" stroke="#4444ff" stroke-opacity=".62" stroke-width="1.8"/><line x1="679.4" y1="524.4" x2="731.8" y2="523.4" stroke="#4444ff" stroke-opacity=".62" stroke-width="1.8"/><line x1="267.9" y1="556.2" x2="321.5" y2="554.6" stroke="#4444ff" stroke-opacity=".62" stroke-width="1.8"/><line x1="680.1" y1="555.4" x2="732.7" y2="553.4" stroke="#4444ff" stroke-opacity=".62" stroke-width="1.8"/><line x1="268.1" y1="585.4" x2="319.9" y2="588.3" stroke="#4444ff" stroke-opacity=".62" stroke-width="1.8"/><line x1="681.3" y1="586.4" x2="733.7" y2="586.8" stroke="#4444ff" stroke-opacity=".62" stroke-width="1.8"/><g filter="url(#glowr1x8262)"><circle cx="499.1" cy="499.0" r="31.3" fill="#4444ff" stroke="#0e001e" stroke-width="1.4" filter="url(#skr1x8262)"/><circle cx="487.3" cy="499.3" r="7.0" fill="#0e001e"/><circle cx="510.6" cy="499.1" r="7.0" fill="#0e001e"/><rect x="485.3" y="521.3" width="9.3" height="17.4" rx="1" fill="#4444ff" stroke="#0e001e" stroke-width=".6"/><rect x="495.0" y="520.7" width="9.3" height="17.4" rx="1" fill="#4444ff" stroke="#0e001e" stroke-width=".6"/><rect x="506.2" y="523.5" width="9.3" height="17.4" rx="1" fill="#4444ff" stroke="#0e001e" stroke-width=".6"/></g><g><rect x="32.77643160097298" y="422.0368939336389" width="148.0" height="82.0" rx="5" fill="url(#gunmetalr1x8262)" stroke="#4444ff" stroke-width="2" filter="url(#wmr1x8262)"/><rect x="34.144723897650806" y="420.47222897363827" width="148.0" height="82.0" rx="5" fill="url(#carbonr1x8262)"/><rect x="43.825575189329655" y="402.84263214962556" width="90.0" height="22.0" rx="3" fill="url(#barrelr1x8262)" stroke="#4444ff" stroke-width="1" filter="url(#wmr1x8262)"/><circle cx="81.37897337315601" cy="414.8166817337274" r="15.0" fill="#4444ff" opacity=".8" filter="url(#glowr1x8262)"/><circle cx="83.30956332985309" cy="414.9464649523608" r="6.0" fill="rgba(255,255,255,.9)"/><rect x="54.64827672610056" y="456.60312899518755" width="78.0" height="36.0" rx="5" fill="url(#barrelr1x8262)" stroke="#4444ff" stroke-width="1.2" filter="url(#wmr1x8262)"/><circle cx="-19.794366749059442" cy="472.67722856393084" r="18.0" fill="#4444ff" filter="url(#glowr1x8262)" opacity=".88"/><circle cx="-21.341376388408275" cy="470.0775917416438" r="7.0" fill="#ffffff"/><rect x="79.92114584207532" y="501.252330920659" width="44.0" height="42.0" rx="3" fill="url(#gunmetalr1x8262)" stroke="#4444ff" stroke-width="1" filter="url(#wmr1x8262)"/><rect x="36.07535319928077" y="424.58593313442543" width="90.0" height="10.0" rx="2" fill="rgba(255,255,255,.22)"/><line x1="63.80624759182331" y1="485.962747289706" x2="61.35219424528998" y2="518.4580418162979" stroke="#4444ff" stroke-opacity=".5" stroke-width="1.2"/><line x1="78.76247992798683" y1="485.3622408699244" x2="79.43222951725122" y2="519.3888174951077" stroke="#4444ff" stroke-opacity=".5" stroke-width="1.2"/><line x1="94.6522433486208" y1="488.0131615595892" x2="94.6918548810668" y2="518.0768485317006" stroke="#4444ff" stroke-opacity=".5" stroke-width="1.2"/></g><rect x="448.31933220075445" y="555.2481125792489" width="100.0"  height="56.0" fill="#141428" stroke="#4444ff" stroke-width="2.2" filter="url(#skr1x8262)"/><rect x="423.67378459647296" y="574.963397401385" width="152.0" height="26.0" fill="url(#bevelr1x8262)" fill-opacity=".65" stroke="#4444ff" stroke-width="1.2" filter="url(#skr1x8262)"/><polygon points="308.9,381.0 350.8,294.5 498.6,279.4 648.2,295.2 690.5,380.9 670.1,503.1 499.8,564.6 329.9,503.7" fill="url(#suitr1x8262)" stroke="#4444ff" stroke-width="2.8" filter="url(#skr1x8262) url(#metalr1x8262)"/><polygon points="308.7,379.9 349.5,293.0 498.7,276.5 649.0,292.9 693.7,379.5 669.8,501.9 498.2,564.3 331.4,503.3" fill="url(#carbonr1x8262)"/><polygon points="380.0,304.1 498.4,286.5 617.3,303.1 608.6,379.0 392.4,379.1" fill="url(#suitHir1x8262)"/><polygon points="379.8,379.8 365.1,424.8 432.9,501.9 501.4,528.8 568.4,504.9 634.6,424.3 619.5,382.1" fill="#0e001e" fill-opacity=".88" stroke="#4444ff" stroke-width="1.8" filter="url(#skr1x8262)"/><polygon points="381.9,411.7 476.7,412.7 484.7,438.6 388.6,441.1" fill="#4444ff" filter="url(#glowr1x8262)"/><polygon points="523.3,411.6 618.4,409.6 611.7,438.3 513.7,441.3" fill="#4444ff" filter="url(#glowr1x8262)"/><ellipse cx="430.9" cy="425.7" rx="38.4"  ry="8.2" fill="#ffffff" opacity=".88"/><ellipse cx="569.1" cy="425.7" rx="38.4"  ry="8.2" fill="#ffffff" opacity=".88"/><line x1="483.47347704326734" y1="413.1245627140626" x2="515.8051918059028" y2="413.47578434553" stroke="#4444ff" stroke-opacity=".52" stroke-width="2"/><line x1="483.4040579317696" y1="439.15189487524333" x2="516.083210255336" y2="439.71690117157993" stroke="#4444ff" stroke-opacity=".52" stroke-width="2"/><line x1="500.70384232411163" y1="454.08484453111885" x2="500.3327030921355" y2="484.0568867715076" stroke="#4444ff" stroke-opacity=".58" stroke-width="2.2" filter="url(#skr1x8262)"/><line x1="453.6075250486657" y1="492.75799716031173" x2="455.02343417702247" y2="519.8248095593415" stroke="#4444ff" stroke-opacity=".52" stroke-width="1.5" filter="url(#skr1x8262)"/><line x1="476.5033887696825" y1="492.40256379935886" x2="478.05044074434784" y2="519.5479107905179" stroke="#4444ff" stroke-opacity=".52" stroke-width="1.5" filter="url(#skr1x8262)"/><line x1="499.1599662818946" y1="490.01088854689147" x2="501.4089634123258" y2="521.2814327639528" stroke="#4444ff" stroke-opacity=".52" stroke-width="1.5" filter="url(#skr1x8262)"/><line x1="522.4530000742152" y1="490.7649007390253" x2="523.032232618574" y2="520.5560881374404" stroke="#4444ff" stroke-opacity=".52" stroke-width="1.5" filter="url(#skr1x8262)"/><line x1="544.7867592467181" y1="491.64481995208183" x2="544.8115249701963" y2="519.668588210456" stroke="#4444ff" stroke-opacity=".52" stroke-width="1.5" filter="url(#skr1x8262)"/><polygon points="434.3,505.0 567.6,504.8 554.0,556.5 447.0,558.1" fill="#141428" fill-opacity=".72" stroke="#4444ff" stroke-width="1.3" filter="url(#skr1x8262)"/><text x="30.0"  y="975.0" font-family="monospace" font-weight="bold" font-size="22.0" fill="rgba(255,255,255,.22)">#0001</text><text x="500.0"   y="975.0" text-anchor="middle" font-family="monospace" font-weight="bold" font-size="22.0" fill="#4444ff" fill-opacity=".48">OBSIDIAN RANGER</text><text x="970.0" y="975.0" text-anchor="end"    font-family="monospace" font-weight="bold" font-size="22.0" fill="#4444ff" fill-opacity=".32">MECH RANGERS</text></svg>