<svg xmlns="http://www.w3.org/2000/svg" viewBox="0 0 1000 1000" width="1000" height="1000" shape-rendering="geometricPrecision"><defs>

  <!-- Scene gradients -->
  <radialGradient id="bgr1x8310" cx="50%" cy="42%" r="72%">
    <stop offset="0%"   stop-color="#001422"/>
    <stop offset="100%" stop-color="#000a14"/>
  </radialGradient>
  <linearGradient id="suitr1x8310" x1="8%" y1="0%" x2="92%" y2="100%">
    <stop offset="0%"   stop-color="#4444ff" stop-opacity=".95"/>
    <stop offset="45%"  stop-color="#141428"/>
    <stop offset="100%" stop-color="#000a14"/>
  </linearGradient>
  <linearGradient id="suitHir1x8310" x1="0%" y1="0%" x2="0%" y2="100%">
    <stop offset="0%"   stop-color="rgba(255,255,255,.28)"/>
    <stop offset="60%"  stop-color="rgba(255,255,255,.04)"/>
    <stop offset="100%" stop-color="rgba(255,255,255,0)"/>
  </linearGradient>
  <!-- Bevel: bright top, dark bottom for armour panels -->
  <linearGradient id="bevelr1x8310" x1="0%" y1="0%" x2="0%" y2="100%">
    <stop offset="0%"   stop-color="rgba(255,255,255,.55)"/>
    <stop offset="30%"  stop-color="#4444ff"/>
    <stop offset="70%"  stop-color="#141428"/>
    <stop offset="100%" stop-color="rgba(0,0,0,.5)"/>
  </linearGradient>

  <!-- Weapon: cold steel blade sweep -->
  <linearGradient id="blader1x8310" x1="0%" y1="0%" x2="100%" y2="0%">
    <stop offset="0%"   stop-color="#0e0e20"/>
    <stop offset="16%"  stop-color="#3e3e58"/>
    <stop offset="34%"  stop-color="#c8c8e0"/>
    <stop offset="50%"  stop-color="#f5f5ff"/>
    <stop offset="66%"  stop-color="#b8b8d0"/>
    <stop offset="84%"  stop-color="#2e2e48"/>
    <stop offset="100%" stop-color="#08080e"/>
  </linearGradient>
  <!-- Blade tip brightening -->
  <linearGradient id="bladeTipr1x8310" x1="0%" y1="100%" x2="0%" y2="0%">
    <stop offset="0%"   stop-color="rgba(255,255,255,0)"/>
    <stop offset="55%"  stop-color="rgba(255,255,255,.1)"/>
    <stop offset="100%" stop-color="rgba(255,255,255,.55)"/>
  </linearGradient>
  <!-- Gunmetal anodised — blaster body -->
  <linearGradient id="gunmetalr1x8310" x1="0%" y1="0%" x2="0%" y2="100%">
    <stop offset="0%"   stop-color="#46465e"/>
    <stop offset="18%"  stop-color="#828296"/>
    <stop offset="42%"  stop-color="#26263a"/>
    <stop offset="72%"  stop-color="#16162a"/>
    <stop offset="100%" stop-color="#0c0c18"/>
  </linearGradient>
  <!-- Brushed steel tube — barrel/rod -->
  <linearGradient id="barrelr1x8310" x1="0%" y1="0%" x2="100%" y2="0%">
    <stop offset="0%"   stop-color="#0a0a14"/>
    <stop offset="24%"  stop-color="#585875"/>
    <stop offset="50%"  stop-color="#a8a8c8"/>
    <stop offset="76%"  stop-color="#383852"/>
    <stop offset="100%" stop-color="#0a0a14"/>
  </linearGradient>
  <!-- Chrome rod — lance shaft -->
  <linearGradient id="chromer1x8310" x1="0%" y1="0%" x2="100%" y2="0%">
    <stop offset="0%"   stop-color="#0c0c18"/>
    <stop offset="20%"  stop-color="#686888"/>
    <stop offset="44%"  stop-color="#e0e0f0"/>
    <stop offset="56%"  stop-color="#c0c0d8"/>
    <stop offset="80%"  stop-color="#28283e"/>
    <stop offset="100%" stop-color="#0c0c18"/>
  </linearGradient>
  <!-- Titanium plate — shield face -->
  <linearGradient id="titaniumr1x8310" x1="0%" y1="0%" x2="100%" y2="100%">
    <stop offset="0%"   stop-color="#585878"/>
    <stop offset="28%"  stop-color="#4444ff" stop-opacity=".88"/>
    <stop offset="55%"  stop-color="#141428"/>
    <stop offset="80%"  stop-color="#181828"/>
    <stop offset="100%" stop-color="#0a0a18"/>
  </linearGradient>
  <!-- Artillery black-chrome — cannon body -->
  <linearGradient id="artilleryr1x8310" x1="0%" y1="0%" x2="0%" y2="100%">
    <stop offset="0%"   stop-color="#383850"/>
    <stop offset="14%"  stop-color="#78789a"/>
    <stop offset="36%"  stop-color="#202034"/>
    <stop offset="65%"  stop-color="#14141e"/>
    <stop offset="100%" stop-color="#0a0a12"/>
  </linearGradient>
  <!-- Energy orb — staff -->
  <radialGradient id="orbr1x8310" cx="35%" cy="35%" r="65%">
    <stop offset="0%"   stop-color="rgba(255,255,255,.9)"/>
    <stop offset="30%"  stop-color="#4444ff"/>
    <stop offset="68%"  stop-color="#141428"/>
    <stop offset="100%" stop-color="rgba(0,0,0,.6)"/>
  </radialGradient>
  <!-- Knuckle plate chrome -->
  <linearGradient id="knuckler1x8310" x1="0%" y1="0%" x2="0%" y2="100%">
    <stop offset="0%"   stop-color="#888aaa"/>
    <stop offset="32%"  stop-color="#4444ff" stop-opacity=".8"/>
    <stop offset="62%"  stop-color="#1a1a2c"/>
    <stop offset="100%" stop-color="#0a0a14"/>
  </linearGradient>

  <!-- Carbon fibre weave texture overlay -->
  <pattern id="carbonr1x8310" width="6" height="6" patternUnits="userSpaceOnUse">
    <rect width="6" height="6" fill="rgba(0,0,0,.08)"/>
    <rect x="0" y="0" width="3" height="3" fill="rgba(255,255,255,.022)"/>
    <rect x="3" y="3" width="3" height="3" fill="rgba(255,255,255,.022)"/>
    <line x1="0" y1="0" x2="3" y2="3" stroke="rgba(255,255,255,.038)" stroke-width=".5"/>
    <line x1="3" y1="0" x2="6" y2="3" stroke="rgba(0,0,0,.055)"       stroke-width=".5"/>
    <line x1="0" y1="3" x2="3" y2="6" stroke="rgba(0,0,0,.055)"       stroke-width=".5"/>
    <line x1="3" y1="3" x2="6" y2="6" stroke="rgba(255,255,255,.038)" stroke-width=".5"/>
  </pattern>

  <!-- Specular metal sheen on armour panels -->
  <filter id="metalr1x8310" x="-5%" y="-5%" width="110%" height="110%">
    <feSpecularLighting surfaceScale="4" specularConstant="1.8"
        specularExponent="42" lighting-color="#ffffff" result="spec">
      <feDistantLight elevation="52" azimuth="38"/>
    </feSpecularLighting>
    <feComposite in="spec" in2="SourceGraphic" operator="in" result="sm"/>
    <feComposite in="SourceGraphic" in2="sm" operator="arithmetic" k1="0" k2="1" k3="0.55" k4="0"/>
  </filter>

  <!-- Sharper specular for weapons — heavier glare -->
  <filter id="wmr1x8310" x="-8%" y="-8%" width="116%" height="116%">
    <feSpecularLighting surfaceScale="6" specularConstant="2.4"
        specularExponent="65" lighting-color="#ffffff" result="spec">
      <feDistantLight elevation="44" azimuth="28"/>
    </feSpecularLighting>
    <feComposite in="spec" in2="SourceGraphic" operator="in" result="sm"/>
    <feComposite in="SourceGraphic" in2="sm" operator="arithmetic" k1="0" k2="1" k3="0.78" k4="0"/>
  </filter>

  <!-- Sketch wobble -->
  <filter id="skr1x8310" x="-8%" y="-8%" width="116%" height="116%">
    <feTurbulence type="fractalNoise" baseFrequency="0.038"
        numOctaves="3" seed="77" result="noise"/>
    <feDisplacementMap in="SourceGraphic" in2="noise" scale="2.6"
        xChannelSelector="R" yChannelSelector="G" result="w"/>
    <feComposite in="w" in2="SourceGraphic" operator="atop"/>
  </filter>

  <!-- Glow: sharp accent -->
  <filter id="glowr1x8310" x="-20%" y="-20%" width="140%" height="140%">
    <feGaussianBlur stdDeviation="3.5" result="b"/>
    <feColorMatrix in="b" type="matrix"
        values="0 0 0 0 1  0 0 0 0 1  0 0 0 0 1  0 0 0 1.8 0" result="boost"/>
    <feMerge><feMergeNode in="boost"/><feMergeNode in="SourceGraphic"/></feMerge>
  </filter>

  <!-- Bloom: wide soft -->
  <filter id="bloomr1x8310" x="-40%" y="-40%" width="180%" height="180%">
    <feGaussianBlur stdDeviation="11" result="b"/>
    <feMerge><feMergeNode in="b"/><feMergeNode in="SourceGraphic"/></feMerge>
  </filter>

  </defs><rect width="1000" height="1000" fill="url(#bgr1x8310)"/><line x1="0" y1="-2.5" x2="1000" y2="2.6" stroke="#4444ff" stroke-opacity=".055" stroke-width="1.2"/><line x1="-3.0" y1="0" x2="0.8" y2="1000" stroke="#4444ff" stroke-opacity=".055" stroke-width="1.2"/><line x1="0" y1="98.6" x2="1000" y2="102.3" stroke="#4444ff" stroke-opacity=".055" stroke-width="1.2"/><line x1="102.1" y1="0" x2="102.5" y2="1000" stroke="#4444ff" stroke-opacity=".055" stroke-width="1.2"/><line x1="0" y1="201.1" x2="1000" y2="199.1" stroke="#4444ff" stroke-opacity=".055" stroke-width="1.2"/><line x1="200.7" y1="0" x2="198.9" y2="1000" stroke="#4444ff" stroke-opacity=".055" stroke-width="1.2"/><line x1="0" y1="300.9" x2="1000" y2="300.8" stroke="#4444ff" stroke-opacity=".055" stroke-width="1.2"/><line x1="301.0" y1="0" x2="300.1" y2="1000" stroke="#4444ff" stroke-opacity=".055" stroke-width="1.2"/><line x1="0" y1="400.1" x2="1000" y2="398.7" stroke="#4444ff" stroke-opacity=".055" stroke-width="1.2"/><line x1="400.1" y1="0" x2="398.7" y2="1000" stroke="#4444ff" stroke-opacity=".055" stroke-width="1.2"/><line x1="0" y1="501.8" x2="1000" y2="498.7" stroke="#4444ff" stroke-opacity=".055" stroke-width="1.2"/><line x1="498.8" y1="0" x2="501.1" y2="1000" stroke="#4444ff" stroke-opacity=".055" stroke-width="1.2"/><line x1="0" y1="600.7" x2="1000" y2="601.1" stroke="#4444ff" stroke-opacity=".055" stroke-width="1.2"/><line x1="600.5" y1="0" x2="598.5" y2="1000" stroke="#4444ff" stroke-opacity=".055" stroke-width="1.2"/><line x1="0" y1="701.6" x2="1000" y2="697.4" stroke="#4444ff" stroke-opacity=".055" stroke-width="1.2"/><line x1="697.7" y1="0" x2="702.6" y2="1000" stroke="#4444ff" stroke-opacity=".055" stroke-width="1.2"/><line x1="0" y1="800.0" x2="1000" y2="797.8" stroke="#4444ff" stroke-opacity=".055" stroke-width="1.2"/><line x1="801.9" y1="0" x2="802.1" y2="1000" stroke="#4444ff" stroke-opacity=".055" stroke-width="1.2"/><line x1="0" y1="897.2" x2="1000" y2="898.1" stroke="#4444ff" stroke-opacity=".055" stroke-width="1.2"/><line x1="899.4" y1="0" x2="902.6" y2="1000" stroke="#4444ff" stroke-opacity=".055" stroke-width="1.2"/><path d="M80,30 L30,30 L30,80" stroke="#4444ff" stroke-opacity=".45" stroke-width="2" fill="none" filter="url(#glowr1x8310)"/><path d="M920,30 L970,30 L970,80" stroke="#4444ff" stroke-opacity=".45" stroke-width="2" fill="none" filter="url(#glowr1x8310)"/><path d="M30,920 L30,970 L80,970" stroke="#4444ff" stroke-opacity=".45" stroke-width="2" fill="none" filter="url(#glowr1x8310)"/><path d="M970,920 L970,970 L920,970" stroke="#4444ff" stroke-opacity=".45" stroke-width="2" fill="none" filter="url(#glowr1x8310)"/><ellipse cx="500.0" cy="892.0" rx="350.0" ry="65.0" fill="rgba(0,0,0,.7)" filter="url(#bloomr1x8310)"/><ellipse cx="500.0" cy="889.0" rx="220.0" ry="34.0" fill="rgba(0,0,0,.45)"/><polygon points="400.0,662.8 490.8,663.4 480.1,877.8 387.8,879.2" fill="url(#suitr1x8310)" stroke="#4444ff" stroke-width="2.2" filter="url(#skr1x8310) url(#metalr1x8310)"/><polygon points="397.8,661.6 491.1,664.2 482.1,877.1 387.5,877.2" fill="url(#carbonr1x8310)"/><polygon points="394.0,724.9 492.8,724.7 484.7,786.6 382.2,788.0" fill="url(#bevelr1x8310)" fill-opacity=".5" stroke="#4444ff" stroke-width="1.4" filter="url(#skr1x8310)"/><polygon points="509.5,662.0 600.0,662.0 612.8,876.6 518.2,876.7" fill="url(#suitr1x8310)" stroke="#4444ff" stroke-width="2.2" filter="url(#skr1x8310) url(#metalr1x8310)"/><polygon points="509.0,663.1 601.5,661.2 611.5,877.8 520.6,878.2" fill="url(#carbonr1x8310)"/><polygon points="507.0,725.2 608.5,722.3 615.1,788.6 514.1,787.9" fill="url(#bevelr1x8310)" fill-opacity=".5" stroke="#4444ff" stroke-width="1.4" filter="url(#skr1x8310)"/><rect x="392.1" y="839.0" width="100.3" height="24.7" fill="url(#bevelr1x8310)" stroke="#4444ff" stroke-width="1" filter="url(#skr1x8310)"/><rect x="508.7"  y="837.1" width="100.3" height="24.7" fill="url(#bevelr1x8310)" stroke="#4444ff" stroke-width="1" filter="url(#skr1x8310)"/><polygon points="369.6,879.2 495.0,875.8 501.8,922.1 363.6,922.1" fill="#141428" stroke="#4444ff" stroke-width="2" filter="url(#skr1x8310)"/><polygon points="504.5,877.5 630.0,878.8 635.7,921.6 496.1,920.4" fill="#141428" stroke="#4444ff" stroke-width="2" filter="url(#skr1x8310)"/><polygon points="304.2,633.5 695.7,631.9 639.1,683.0 361.8,682.0" fill="#4444ff" fill-opacity=".52" stroke="#4444ff" stroke-width="2" filter="url(#skr1x8310)"/><rect x="462.9" y="638.3" width="72.0" height="42.0" fill="url(#bevelr1x8310)" stroke="#4444ff" stroke-width="1.4" filter="url(#glowr1x8310)"/><rect x="485.0" y="638.9" width="28.0" height="22.0" rx="1" fill="rgba(255,255,255,.48)"/><polygon points="154.1,465.4 235.1,468.0 256.9,734.0 128.4,733.7" fill="url(#suitr1x8310)" stroke="#4444ff" stroke-width="2.2" filter="url(#skr1x8310) url(#metalr1x8310)"/><polygon points="174.4,432.5 253.6,432.5 243.5,510.3 158.2,511.0" fill="url(#bevelr1x8310)" fill-opacity=".72" stroke="#4444ff" stroke-width="2.2" filter="url(#skr1x8310)"/><polygon points="162.6,623.4 242.9,622.2 239.6,659.1 166.0,661.7" fill="#4444ff" fill-opacity=".42" stroke="#4444ff" stroke-width="1" filter="url(#skr1x8310)"/><polygon points="764.9,465.1 845.7,467.7 873.3,736.3 740.8,733.5" fill="url(#suitr1x8310)" stroke="#4444ff" stroke-width="2.2" filter="url(#skr1x8310) url(#metalr1x8310)"/><polygon points="745.8,431.3 824.8,433.3 839.4,511.8 756.1,510.9" fill="url(#bevelr1x8310)" fill-opacity=".72" stroke="#4444ff" stroke-width="2.2" filter="url(#skr1x8310)"/><polygon points="758.3,622.9 837.8,622.3 836.3,659.7 762.4,661.6" fill="#4444ff" fill-opacity=".42" stroke="#4444ff" stroke-width="1" filter="url(#skr1x8310)"/><rect x="120.0"  y="701.2" width="135.3" height="85.0" rx="4" fill="url(#bevelr1x8310)" stroke="#4444ff" stroke-width="1.8" filter="url(#skr1x8310)"/><rect x="747.9"   y="698.7" width="135.3" height="85.0" rx="4" fill="url(#bevelr1x8310)" stroke="#4444ff" stroke-width="1.8" filter="url(#skr1x8310)"/><line x1="149.7" y1="700.6" x2="149.6" y2="785.4" stroke="#4444ff" stroke-opacity=".38" stroke-width="1"/><line x1="778.9" y1="701.7" x2="776.5" y2="784.1" stroke="#4444ff" stroke-opacity=".38" stroke-width="1"/><line x1="183.9" y1="703.1" x2="182.3" y2="785.6" stroke="#4444ff" stroke-opacity=".38" stroke-width="1"/><line x1="811.6" y1="701.6" x2="812.6" y2="784.8" stroke="#4444ff" stroke-opacity=".38" stroke-width="1"/><line x1="216.9" y1="700.3" x2="214.1" y2="784.4" stroke="#4444ff" stroke-opacity=".38" stroke-width="1"/><line x1="845.2" y1="703.1" x2="842.6" y2="785.6" stroke="#4444ff" stroke-opacity=".38" stroke-width="1"/><polygon points="236.0,417.2 764.9,416.8 723.4,661.1 279.1,663.4" fill="url(#suitr1x8310)" stroke="#4444ff" stroke-width="2.6" filter="url(#skr1x8310) url(#metalr1x8310)"/><polygon points="233.8,419.1 765.6,416.8 723.5,661.6 275.8,661.6" fill="url(#carbonr1x8310)"/><polygon points="368.2,418.9 630.8,419.0 611.5,516.3 387.0,515.7" fill="url(#suitHir1x8310)"/><line x1="360.9" y1="470.6" x2="638.4" y2="473.1" stroke="#4444ff" stroke-opacity=".52" stroke-width="1.3" filter="url(#skr1x8310)"/><line x1="398.8" y1="549.6" x2="600.8" y2="548.2" stroke="#4444ff" stroke-opacity=".52" stroke-width="1.3" filter="url(#skr1x8310)"/><line x1="266.8" y1="489.4" x2="320.5" y2="492.3" stroke="#4444ff" stroke-opacity=".62" stroke-width="1.8"/><line x1="681.1" y1="491.7" x2="732.2" y2="489.9" stroke="#4444ff" stroke-opacity=".62" stroke-width="1.8"/><line x1="266.7" y1="521.6" x2="320.8" y2="522.2" stroke="#4444ff" stroke-opacity=".62" stroke-width="1.8"/><line x1="680.3" y1="523.5" x2="734.6" y2="521.7" stroke="#4444ff" stroke-opacity=".62" stroke-width="1.8"/><line x1="268.0" y1="554.0" x2="318.3" y2="555.3" stroke="#4444ff" stroke-opacity=".62" stroke-width="1.8"/><line x1="681.9" y1="555.9" x2="731.7" y2="554.7" stroke="#4444ff" stroke-opacity=".62" stroke-width="1.8"/><line x1="267.9" y1="586.5" x2="318.9" y2="586.1" stroke="#4444ff" stroke-opacity=".62" stroke-width="1.8"/><line x1="680.3" y1="587.3" x2="732.5" y2="586.9" stroke="#4444ff" stroke-opacity=".62" stroke-width="1.8"/><g filter="url(#glowr1x8310)"><polygon points="500.6,451.1 541.8,510.4 499.3,569.6 458.6,509.9" fill="#4444ff" stroke="#000a14" stroke-width="1.4" filter="url(#skr1x8310)"/><polygon points="500.2,451.6 543.4,511.4 501.3,568.2 457.0,512.3" fill="url(#suitHir1x8310)" opacity=".45"/></g><g><rect x="113.9" y="701.6" width="137.8" height="88.0" rx="5" fill="url(#bevelr1x8310)" stroke="#4444ff" stroke-width="2" filter="url(#wmr1x8310)"/><rect x="116.9" y="702.6" width="137.8" height="88.0" rx="5" fill="url(#carbonr1x8310)"/><rect x="748.1"  y="702.0" width="137.8" height="88.0" rx="5" fill="url(#bevelr1x8310)" stroke="#4444ff" stroke-width="2" filter="url(#wmr1x8310)"/><rect x="747.7"  y="701.6" width="137.8" height="88.0" rx="5" fill="url(#carbonr1x8310)"/><rect x="121.2" y="700.8" width="23.0" height="22.0" rx="2" fill="url(#knuckler1x8310)" stroke="#4444ff" stroke-width=".8" filter="url(#wmr1x8310)"/><rect x="755.8" y="699.0" width="23.0" height="22.0" rx="2" fill="url(#knuckler1x8310)" stroke="#4444ff" stroke-width=".8" filter="url(#wmr1x8310)"/><rect x="152.7" y="699.7" width="23.0" height="22.0" rx="2" fill="url(#knuckler1x8310)" stroke="#4444ff" stroke-width=".8" filter="url(#wmr1x8310)"/><rect x="785.9" y="701.4" width="23.0" height="22.0" rx="2" fill="url(#knuckler1x8310)" stroke="#4444ff" stroke-width=".8" filter="url(#wmr1x8310)"/><rect x="180.5" y="698.4" width="23.0" height="22.0" rx="2" fill="url(#knuckler1x8310)" stroke="#4444ff" stroke-width=".8" filter="url(#wmr1x8310)"/><rect x="812.7" y="699.0" width="23.0" height="22.0" rx="2" fill="url(#knuckler1x8310)" stroke="#4444ff" stroke-width=".8" filter="url(#wmr1x8310)"/><rect x="209.7" y="698.6" width="23.0" height="22.0" rx="2" fill="url(#knuckler1x8310)" stroke="#4444ff" stroke-width=".8" filter="url(#wmr1x8310)"/><rect x="844.8" y="700.8" width="23.0" height="22.0" rx="2" fill="url(#knuckler1x8310)" stroke="#4444ff" stroke-width=".8" filter="url(#wmr1x8310)"/><ellipse cx="183.74791672671213" cy="710.8185046315938" rx="45.1" ry="30.0" fill="#4444ff" fill-opacity=".25" filter="url(#glowr1x8310)"/><ellipse cx="815.7898166032694" cy="710.8653068210742" rx="45.1" ry="30.0" fill="#4444ff" fill-opacity=".25" filter="url(#glowr1x8310)"/></g><rect x="451.25647359285506" y="556.0557242627256" width="100.0"  height="56.0" fill="#141428" stroke="#4444ff" stroke-width="2.2" filter="url(#skr1x8310)"/><rect x="423.1991280129179" y="575.304553642869" width="152.0" height="26.0" fill="url(#bevelr1x8310)" fill-opacity=".65" stroke="#4444ff" stroke-width="1.2" filter="url(#skr1x8310)"/><polygon points="308.9,379.8 351.8,294.2 498.4,279.0 648.8,294.1 691.7,379.5 669.2,505.0 500.1,564.9 331.8,504.1" fill="url(#suitr1x8310)" stroke="#4444ff" stroke-width="2.8" filter="url(#skr1x8310) url(#metalr1x8310)"/><polygon points="307.4,381.3 349.0,295.5 501.5,276.5 649.3,294.5 692.1,379.2 668.2,505.3 500.5,566.6 330.7,502.3" fill="url(#carbonr1x8310)"/><polygon points="379.6,301.3 499.9,286.0 619.9,302.0 606.1,381.1 394.2,380.0" fill="url(#suitHir1x8310)"/><polygon points="379.5,379.9 367.3,425.3 431.9,504.9 500.4,529.8 565.4,504.0 633.2,427.1 618.3,379.3" fill="#000a14" fill-opacity=".88" stroke="#4444ff" stroke-width="1.8" filter="url(#skr1x8310)"/><polygon points="382.0,411.0 476.7,413.1 485.7,439.2 386.9,440.0" fill="#4444ff" filter="url(#glowr1x8310)"/><polygon points="524.8,410.3 620.7,410.0 612.8,439.1 515.9,439.4" fill="#4444ff" filter="url(#glowr1x8310)"/><ellipse cx="430.9" cy="425.7" rx="38.4"  ry="8.2" fill="#ffffff" opacity=".88"/><ellipse cx="569.1" cy="425.7" rx="38.4"  ry="8.2" fill="#ffffff" opacity=".88"/><line x1="484.53479139745235" y1="411.79853483475745" x2="516.578559042085" y2="412.1432508093305" stroke="#4444ff" stroke-opacity=".52" stroke-width="2"/><line x1="484.8798839944042" y1="438.89464535946024" x2="515.5111072664522" y2="437.2776095157489" stroke="#4444ff" stroke-opacity=".52" stroke-width="2"/><line x1="501.1371353621595" y1="456.1660059536807" x2="499.2574284334667" y2="483.1990802771412" stroke="#4444ff" stroke-opacity=".58" stroke-width="2.2" filter="url(#skr1x8310)"/><line x1="455.2445558025316" y1="490.23546452568837" x2="455.02444825235756" y2="519.3763905748725" stroke="#4444ff" stroke-opacity=".52" stroke-width="1.5" filter="url(#skr1x8310)"/><line x1="478.58758990116416" y1="490.6965009608306" x2="477.99272560024633" y2="518.7865194725804" stroke="#4444ff" stroke-opacity=".52" stroke-width="1.5" filter="url(#skr1x8310)"/><line x1="500.8462579023093" y1="489.7792921483516" x2="500.1710240455344" y2="520.7164336877875" stroke="#4444ff" stroke-opacity=".52" stroke-width="1.5" filter="url(#skr1x8310)"/><line x1="523.9334988190419" y1="492.696128480602" x2="523.114519338645" y2="521.5098531596362" stroke="#4444ff" stroke-opacity=".52" stroke-width="1.5" filter="url(#skr1x8310)"/><line x1="545.7325327067823" y1="492.812259772513" x2="547.0502678747475" y2="519.9610018803738" stroke="#4444ff" stroke-opacity=".52" stroke-width="1.5" filter="url(#skr1x8310)"/><polygon points="433.3,505.3 568.1,503.7 555.3,556.7 444.5,557.3" fill="#141428" fill-opacity=".72" stroke="#4444ff" stroke-width="1.3" filter="url(#skr1x8310)"/><path d="M389.2099751178734 328.78104336988184 Q331.83201935036107 218.12404529834166 382.6943576407992 139.41065542651342" stroke="#4444ff" stroke-width="5" fill="none" stroke-linecap="round" filter="url(#skr1x8310)"/><path d="M389.9943579970486 326.7079967477359 Q331.37248043023044 216.77779888724908 380.5674420005083 141.14754566773772" stroke="rgba(255,255,255,.25)" stroke-width="1.5" fill="none" stroke-linecap="round"/><path d="M612.5363515981845 326.2053951445967 Q667.4398318171874 215.05050189765169 620.1920317668095 139.11740279179065" stroke="#4444ff" stroke-width="5" fill="none" stroke-linecap="round" filter="url(#skr1x8310)"/><path d="M611.3318868595549 326.9342542075552 Q668.3922482330725 215.65510137761012 620.4563229169323 142.17657725010068" stroke="rgba(255,255,255,.25)" stroke-width="1.5" fill="none" stroke-linecap="round"/><text x="30.0"  y="975.0" font-family="monospace" font-weight="bold" font-size="22.0" fill="rgba(255,255,255,.22)">#0001</text><text x="500.0"   y="975.0" text-anchor="middle" font-family="monospace" font-weight="bold" font-size="22.0" fill="#4444ff" fill-opacity=".48">OBSIDIAN RANGER</text><text x="970.0" y="975.0" text-anchor="end"    font-family="monospace" font-weight="bold" font-size="22.0" fill="#4444ff" fill-opacity=".32">MECH RANGERS</text></svg>