<svg xmlns="http://www.w3.org/2000/svg" viewBox="0 0 1000 1000" width="1000" height="1000" shape-rendering="geometricPrecision"><defs>

  <!-- Scene gradients -->
  <radialGradient id="bgr1x8312" cx="50%" cy="42%" r="72%">
    <stop offset="0%"   stop-color="#0a0a14"/>
    <stop offset="100%" stop-color="#050508"/>
  </radialGradient>
  <linearGradient id="suitr1x8312" x1="8%" y1="0%" x2="92%" y2="100%">
    <stop offset="0%"   stop-color="#2060ff" stop-opacity=".95"/>
    <stop offset="45%"  stop-color="#003ccc"/>
    <stop offset="100%" stop-color="#050508"/>
  </linearGradient>
  <linearGradient id="suitHir1x8312" x1="0%" y1="0%" x2="0%" y2="100%">
    <stop offset="0%"   stop-color="rgba(255,255,255,.28)"/>
    <stop offset="60%"  stop-color="rgba(255,255,255,.04)"/>
    <stop offset="100%" stop-color="rgba(255,255,255,0)"/>
  </linearGradient>
  <!-- Bevel: bright top, dark bottom for armour panels -->
  <linearGradient id="bevelr1x8312" x1="0%" y1="0%" x2="0%" y2="100%">
    <stop offset="0%"   stop-color="rgba(255,255,255,.55)"/>
    <stop offset="30%"  stop-color="#2060ff"/>
    <stop offset="70%"  stop-color="#003ccc"/>
    <stop offset="100%" stop-color="rgba(0,0,0,.5)"/>
  </linearGradient>

  <!-- Weapon: cold steel blade sweep -->
  <linearGradient id="blader1x8312" x1="0%" y1="0%" x2="100%" y2="0%">
    <stop offset="0%"   stop-color="#0e0e20"/>
    <stop offset="16%"  stop-color="#3e3e58"/>
    <stop offset="34%"  stop-color="#c8c8e0"/>
    <stop offset="50%"  stop-color="#f5f5ff"/>
    <stop offset="66%"  stop-color="#b8b8d0"/>
    <stop offset="84%"  stop-color="#2e2e48"/>
    <stop offset="100%" stop-color="#08080e"/>
  </linearGradient>
  <!-- Blade tip brightening -->
  <linearGradient id="bladeTipr1x8312" x1="0%" y1="100%" x2="0%" y2="0%">
    <stop offset="0%"   stop-color="rgba(255,255,255,0)"/>
    <stop offset="55%"  stop-color="rgba(255,255,255,.1)"/>
    <stop offset="100%" stop-color="rgba(255,255,255,.55)"/>
  </linearGradient>
  <!-- Gunmetal anodised — blaster body -->
  <linearGradient id="gunmetalr1x8312" x1="0%" y1="0%" x2="0%" y2="100%">
    <stop offset="0%"   stop-color="#46465e"/>
    <stop offset="18%"  stop-color="#828296"/>
    <stop offset="42%"  stop-color="#26263a"/>
    <stop offset="72%"  stop-color="#16162a"/>
    <stop offset="100%" stop-color="#0c0c18"/>
  </linearGradient>
  <!-- Brushed steel tube — barrel/rod -->
  <linearGradient id="barrelr1x8312" x1="0%" y1="0%" x2="100%" y2="0%">
    <stop offset="0%"   stop-color="#0a0a14"/>
    <stop offset="24%"  stop-color="#585875"/>
    <stop offset="50%"  stop-color="#a8a8c8"/>
    <stop offset="76%"  stop-color="#383852"/>
    <stop offset="100%" stop-color="#0a0a14"/>
  </linearGradient>
  <!-- Chrome rod — lance shaft -->
  <linearGradient id="chromer1x8312" x1="0%" y1="0%" x2="100%" y2="0%">
    <stop offset="0%"   stop-color="#0c0c18"/>
    <stop offset="20%"  stop-color="#686888"/>
    <stop offset="44%"  stop-color="#e0e0f0"/>
    <stop offset="56%"  stop-color="#c0c0d8"/>
    <stop offset="80%"  stop-color="#28283e"/>
    <stop offset="100%" stop-color="#0c0c18"/>
  </linearGradient>
  <!-- Titanium plate — shield face -->
  <linearGradient id="titaniumr1x8312" x1="0%" y1="0%" x2="100%" y2="100%">
    <stop offset="0%"   stop-color="#585878"/>
    <stop offset="28%"  stop-color="#2060ff" stop-opacity=".88"/>
    <stop offset="55%"  stop-color="#003ccc"/>
    <stop offset="80%"  stop-color="#181828"/>
    <stop offset="100%" stop-color="#0a0a18"/>
  </linearGradient>
  <!-- Artillery black-chrome — cannon body -->
  <linearGradient id="artilleryr1x8312" x1="0%" y1="0%" x2="0%" y2="100%">
    <stop offset="0%"   stop-color="#383850"/>
    <stop offset="14%"  stop-color="#78789a"/>
    <stop offset="36%"  stop-color="#202034"/>
    <stop offset="65%"  stop-color="#14141e"/>
    <stop offset="100%" stop-color="#0a0a12"/>
  </linearGradient>
  <!-- Energy orb — staff -->
  <radialGradient id="orbr1x8312" cx="35%" cy="35%" r="65%">
    <stop offset="0%"   stop-color="rgba(255,255,255,.9)"/>
    <stop offset="30%"  stop-color="#2060ff"/>
    <stop offset="68%"  stop-color="#003ccc"/>
    <stop offset="100%" stop-color="rgba(0,0,0,.6)"/>
  </radialGradient>
  <!-- Knuckle plate chrome -->
  <linearGradient id="knuckler1x8312" x1="0%" y1="0%" x2="0%" y2="100%">
    <stop offset="0%"   stop-color="#888aaa"/>
    <stop offset="32%"  stop-color="#2060ff" stop-opacity=".8"/>
    <stop offset="62%"  stop-color="#1a1a2c"/>
    <stop offset="100%" stop-color="#0a0a14"/>
  </linearGradient>

  <!-- Carbon fibre weave texture overlay -->
  <pattern id="carbonr1x8312" width="6" height="6" patternUnits="userSpaceOnUse">
    <rect width="6" height="6" fill="rgba(0,0,0,.08)"/>
    <rect x="0" y="0" width="3" height="3" fill="rgba(255,255,255,.022)"/>
    <rect x="3" y="3" width="3" height="3" fill="rgba(255,255,255,.022)"/>
    <line x1="0" y1="0" x2="3" y2="3" stroke="rgba(255,255,255,.038)" stroke-width=".5"/>
    <line x1="3" y1="0" x2="6" y2="3" stroke="rgba(0,0,0,.055)"       stroke-width=".5"/>
    <line x1="0" y1="3" x2="3" y2="6" stroke="rgba(0,0,0,.055)"       stroke-width=".5"/>
    <line x1="3" y1="3" x2="6" y2="6" stroke="rgba(255,255,255,.038)" stroke-width=".5"/>
  </pattern>

  <!-- Specular metal sheen on armour panels -->
  <filter id="metalr1x8312" x="-5%" y="-5%" width="110%" height="110%">
    <feSpecularLighting surfaceScale="4" specularConstant="1.8"
        specularExponent="42" lighting-color="#ffffff" result="spec">
      <feDistantLight elevation="52" azimuth="38"/>
    </feSpecularLighting>
    <feComposite in="spec" in2="SourceGraphic" operator="in" result="sm"/>
    <feComposite in="SourceGraphic" in2="sm" operator="arithmetic" k1="0" k2="1" k3="0.55" k4="0"/>
  </filter>

  <!-- Sharper specular for weapons — heavier glare -->
  <filter id="wmr1x8312" x="-8%" y="-8%" width="116%" height="116%">
    <feSpecularLighting surfaceScale="6" specularConstant="2.4"
        specularExponent="65" lighting-color="#ffffff" result="spec">
      <feDistantLight elevation="44" azimuth="28"/>
    </feSpecularLighting>
    <feComposite in="spec" in2="SourceGraphic" operator="in" result="sm"/>
    <feComposite in="SourceGraphic" in2="sm" operator="arithmetic" k1="0" k2="1" k3="0.78" k4="0"/>
  </filter>

  <!-- Sketch wobble -->
  <filter id="skr1x8312" x="-8%" y="-8%" width="116%" height="116%">
    <feTurbulence type="fractalNoise" baseFrequency="0.038"
        numOctaves="3" seed="22" result="noise"/>
    <feDisplacementMap in="SourceGraphic" in2="noise" scale="2.6"
        xChannelSelector="R" yChannelSelector="G" result="w"/>
    <feComposite in="w" in2="SourceGraphic" operator="atop"/>
  </filter>

  <!-- Glow: sharp accent -->
  <filter id="glowr1x8312" x="-20%" y="-20%" width="140%" height="140%">
    <feGaussianBlur stdDeviation="3.5" result="b"/>
    <feColorMatrix in="b" type="matrix"
        values="0 0 0 0 1  0 0 0 0 1  0 0 0 0 1  0 0 0 1.8 0" result="boost"/>
    <feMerge><feMergeNode in="boost"/><feMergeNode in="SourceGraphic"/></feMerge>
  </filter>

  <!-- Bloom: wide soft -->
  <filter id="bloomr1x8312" x="-40%" y="-40%" width="180%" height="180%">
    <feGaussianBlur stdDeviation="11" result="b"/>
    <feMerge><feMergeNode in="b"/><feMergeNode in="SourceGraphic"/></feMerge>
  </filter>

  </defs><rect width="1000" height="1000" fill="url(#bgr1x8312)"/><ellipse cx="500.0" cy="892.0" rx="350.0" ry="65.0" fill="rgba(0,0,0,.7)" filter="url(#bloomr1x8312)"/><ellipse cx="500.0" cy="889.0" rx="220.0" ry="34.0" fill="rgba(0,0,0,.45)"/><ellipse cx="500.0" cy="520.0" rx="320.0" ry="480.0" fill="#ffffff" fill-opacity=".042" filter="url(#bloomr1x8312)"/><circle cx="608.3" cy="416.6" r="1.8" fill="#ffffff" fill-opacity="0.65" filter="url(#glowr1x8312)"/><circle cx="490.1" cy="364.2" r="4.1" fill="#ffffff" fill-opacity="0.68" filter="url(#glowr1x8312)"/><circle cx="386.0" cy="553.9" r="3.9" fill="#ffffff" fill-opacity="0.67" filter="url(#glowr1x8312)"/><circle cx="434.7" cy="279.8" r="4.3" fill="#ffffff" fill-opacity="0.58" filter="url(#glowr1x8312)"/><circle cx="321.6" cy="772.4" r="3.2" fill="#ffffff" fill-opacity="0.83" filter="url(#glowr1x8312)"/><circle cx="702.5" cy="605.4" r="0.5" fill="#ffffff" fill-opacity="0.80" filter="url(#glowr1x8312)"/><circle cx="316.1" cy="510.7" r="3.4" fill="#ffffff" fill-opacity="0.42" filter="url(#glowr1x8312)"/><circle cx="734.2" cy="797.8" r="3.6" fill="#ffffff" fill-opacity="0.52" filter="url(#glowr1x8312)"/><circle cx="527.5" cy="527.1" r="2.8" fill="#ffffff" fill-opacity="0.86" filter="url(#glowr1x8312)"/><circle cx="730.4" cy="291.8" r="1.8" fill="#ffffff" fill-opacity="0.71" filter="url(#glowr1x8312)"/><circle cx="539.2" cy="775.1" r="0.8" fill="#ffffff" fill-opacity="0.47" filter="url(#glowr1x8312)"/><circle cx="405.1" cy="441.1" r="3.0" fill="#ffffff" fill-opacity="0.41" filter="url(#glowr1x8312)"/><circle cx="602.0" cy="753.0" r="1.6" fill="#ffffff" fill-opacity="0.51" filter="url(#glowr1x8312)"/><circle cx="559.1" cy="471.4" r="1.3" fill="#ffffff" fill-opacity="0.60" filter="url(#glowr1x8312)"/><polygon points="397.9,661.0 488.3,663.3 480.5,876.6 387.7,875.7" fill="url(#suitr1x8312)" stroke="#2060ff" stroke-width="2.2" filter="url(#skr1x8312) url(#metalr1x8312)"/><polygon points="397.9,663.4 489.1,662.3 480.6,878.8 388.3,876.4" fill="url(#carbonr1x8312)"/><polygon points="392.0,724.3 491.6,724.0 484.9,788.7 383.9,787.3" fill="url(#bevelr1x8312)" fill-opacity=".5" stroke="#2060ff" stroke-width="1.4" filter="url(#skr1x8312)"/><polygon points="510.3,662.6 601.2,661.7 611.0,878.7 520.0,878.8" fill="url(#suitr1x8312)" stroke="#2060ff" stroke-width="2.2" filter="url(#skr1x8312) url(#metalr1x8312)"/><polygon points="509.4,661.3 601.4,663.2 612.1,876.5 519.1,878.1" fill="url(#carbonr1x8312)"/><polygon points="507.7,723.8 606.4,723.3 616.9,789.3 516.6,790.0" fill="url(#bevelr1x8312)" fill-opacity=".5" stroke="#2060ff" stroke-width="1.4" filter="url(#skr1x8312)"/><rect x="392.3" y="839.4" width="100.3" height="24.7" fill="url(#bevelr1x8312)" stroke="#2060ff" stroke-width="1" filter="url(#skr1x8312)"/><rect x="508.0"  y="838.4" width="100.3" height="24.7" fill="url(#bevelr1x8312)" stroke="#2060ff" stroke-width="1" filter="url(#skr1x8312)"/><polygon points="370.1,877.4 497.8,876.3 503.6,921.4 362.7,920.1" fill="#003ccc" stroke="#2060ff" stroke-width="2" filter="url(#skr1x8312)"/><polygon points="503.4,878.3 629.5,877.1 637.7,922.3 494.8,920.6" fill="#003ccc" stroke="#2060ff" stroke-width="2" filter="url(#skr1x8312)"/><polygon points="304.9,631.9 694.5,634.5 638.3,681.6 361.4,683.9" fill="#2060ff" fill-opacity=".52" stroke="#2060ff" stroke-width="2" filter="url(#skr1x8312)"/><rect x="463.7" y="638.8" width="72.0" height="42.0" fill="url(#bevelr1x8312)" stroke="#2060ff" stroke-width="1.4" filter="url(#glowr1x8312)"/><rect x="487.7" y="641.2" width="28.0" height="22.0" rx="1" fill="rgba(255,255,255,.48)"/><polygon points="153.5,467.0 235.2,467.2 257.2,733.8 127.0,734.7" fill="url(#suitr1x8312)" stroke="#2060ff" stroke-width="2.2" filter="url(#skr1x8312) url(#metalr1x8312)"/><polygon points="172.7,433.7 253.7,433.5 242.6,509.4 158.9,510.0" fill="url(#bevelr1x8312)" fill-opacity=".72" stroke="#2060ff" stroke-width="2.2" filter="url(#skr1x8312)"/><polygon points="160.7,623.4 242.5,622.5 237.8,662.0 165.6,661.5" fill="#2060ff" fill-opacity=".42" stroke="#2060ff" stroke-width="1" filter="url(#skr1x8312)"/><polygon points="766.8,468.1 846.0,466.2 872.5,735.2 741.0,734.1" fill="url(#suitr1x8312)" stroke="#2060ff" stroke-width="2.2" filter="url(#skr1x8312) url(#metalr1x8312)"/><polygon points="745.2,432.8 826.8,431.9 840.6,510.0 756.2,512.0" fill="url(#bevelr1x8312)" fill-opacity=".72" stroke="#2060ff" stroke-width="2.2" filter="url(#skr1x8312)"/><polygon points="755.8,623.4 839.8,621.6 833.7,660.3 760.1,662.1" fill="#2060ff" fill-opacity=".42" stroke="#2060ff" stroke-width="1" filter="url(#skr1x8312)"/><rect x="120.6"  y="701.2" width="135.3" height="85.0" rx="4" fill="url(#bevelr1x8312)" stroke="#2060ff" stroke-width="1.8" filter="url(#skr1x8312)"/><rect x="748.3"   y="698.2" width="135.3" height="85.0" rx="4" fill="url(#bevelr1x8312)" stroke="#2060ff" stroke-width="1.8" filter="url(#skr1x8312)"/><line x1="151.5" y1="702.7" x2="148.5" y2="784.9" stroke="#2060ff" stroke-opacity=".38" stroke-width="1"/><line x1="776.6" y1="702.9" x2="778.9" y2="782.6" stroke="#2060ff" stroke-opacity=".38" stroke-width="1"/><line x1="182.0" y1="702.5" x2="182.7" y2="782.7" stroke="#2060ff" stroke-opacity=".38" stroke-width="1"/><line x1="812.3" y1="700.6" x2="811.9" y2="784.3" stroke="#2060ff" stroke-opacity=".38" stroke-width="1"/><line x1="215.8" y1="703.0" x2="216.4" y2="783.3" stroke="#2060ff" stroke-opacity=".38" stroke-width="1"/><line x1="842.7" y1="703.4" x2="842.2" y2="783.1" stroke="#2060ff" stroke-opacity=".38" stroke-width="1"/><polygon points="235.0,416.2 766.4,418.3 723.4,660.7 279.2,661.6" fill="url(#suitr1x8312)" stroke="#2060ff" stroke-width="2.6" filter="url(#skr1x8312) url(#metalr1x8312)"/><polygon points="235.4,416.1 764.3,418.8 723.1,662.6 278.8,661.3" fill="url(#carbonr1x8312)"/><polygon points="369.2,418.9 633.2,416.0 612.1,516.4 390.2,514.6" fill="url(#suitHir1x8312)"/><line x1="361.3" y1="470.6" x2="637.4" y2="471.2" stroke="#2060ff" stroke-opacity=".52" stroke-width="1.3" filter="url(#skr1x8312)"/><line x1="400.4" y1="550.6" x2="599.8" y2="548.8" stroke="#2060ff" stroke-opacity=".52" stroke-width="1.3" filter="url(#skr1x8312)"/><line x1="268.1" y1="490.7" x2="318.4" y2="491.1" stroke="#2060ff" stroke-opacity=".62" stroke-width="1.8"/><line x1="681.6" y1="491.4" x2="733.7" y2="489.6" stroke="#2060ff" stroke-opacity=".62" stroke-width="1.8"/><line x1="266.6" y1="522.5" x2="320.9" y2="523.1" stroke="#2060ff" stroke-opacity=".62" stroke-width="1.8"/><line x1="681.1" y1="524.2" x2="733.9" y2="521.8" stroke="#2060ff" stroke-opacity=".62" stroke-width="1.8"/><line x1="266.9" y1="554.6" x2="320.3" y2="555.0" stroke="#2060ff" stroke-opacity=".62" stroke-width="1.8"/><line x1="680.9" y1="556.4" x2="732.0" y2="553.1" stroke="#2060ff" stroke-opacity=".62" stroke-width="1.8"/><line x1="266.0" y1="587.8" x2="319.2" y2="585.4" stroke="#2060ff" stroke-opacity=".62" stroke-width="1.8"/><line x1="679.5" y1="588.1" x2="731.9" y2="586.9" stroke="#2060ff" stroke-opacity=".62" stroke-width="1.8"/><g filter="url(#glowr1x8312)"><polygon points="499.5,453.9 513.7,491.1 553.9,494.4 525.8,518.4 534.3,556.0 501.4,537.1 467.3,556.1 477.5,520.2 446.2,492.9 483.6,490.5 " fill="#2060ff" stroke="#050508" stroke-width="1.4" filter="url(#skr1x8312)"/><polygon points="499.5,453.9 513.7,491.1 553.9,494.4 525.8,518.4 534.3,556.0 501.4,537.1 467.3,556.1 477.5,520.2 446.2,492.9 483.6,490.5 " fill="url(#suitHir1x8312)" opacity=".45"/></g><g><rect x="115.5" y="702.7" width="137.8" height="88.0" rx="5" fill="url(#bevelr1x8312)" stroke="#2060ff" stroke-width="2" filter="url(#wmr1x8312)"/><rect x="117.0" y="702.6" width="137.8" height="88.0" rx="5" fill="url(#carbonr1x8312)"/><rect x="748.2"  y="700.5" width="137.8" height="88.0" rx="5" fill="url(#bevelr1x8312)" stroke="#2060ff" stroke-width="2" filter="url(#wmr1x8312)"/><rect x="748.0"  y="701.8" width="137.8" height="88.0" rx="5" fill="url(#carbonr1x8312)"/><rect x="122.3" y="701.1" width="23.0" height="22.0" rx="2" fill="url(#knuckler1x8312)" stroke="#2060ff" stroke-width=".8" filter="url(#wmr1x8312)"/><rect x="755.7" y="700.7" width="23.0" height="22.0" rx="2" fill="url(#knuckler1x8312)" stroke="#2060ff" stroke-width=".8" filter="url(#wmr1x8312)"/><rect x="151.7" y="700.4" width="23.0" height="22.0" rx="2" fill="url(#knuckler1x8312)" stroke="#2060ff" stroke-width=".8" filter="url(#wmr1x8312)"/><rect x="784.6" y="699.0" width="23.0" height="22.0" rx="2" fill="url(#knuckler1x8312)" stroke="#2060ff" stroke-width=".8" filter="url(#wmr1x8312)"/><rect x="181.5" y="700.9" width="23.0" height="22.0" rx="2" fill="url(#knuckler1x8312)" stroke="#2060ff" stroke-width=".8" filter="url(#wmr1x8312)"/><rect x="815.2" y="701.1" width="23.0" height="22.0" rx="2" fill="url(#knuckler1x8312)" stroke="#2060ff" stroke-width=".8" filter="url(#wmr1x8312)"/><rect x="209.1" y="701.6" width="23.0" height="22.0" rx="2" fill="url(#knuckler1x8312)" stroke="#2060ff" stroke-width=".8" filter="url(#wmr1x8312)"/><rect x="843.0" y="701.0" width="23.0" height="22.0" rx="2" fill="url(#knuckler1x8312)" stroke="#2060ff" stroke-width=".8" filter="url(#wmr1x8312)"/><ellipse cx="184.00981882488355" cy="711.6911973608471" rx="45.1" ry="30.0" fill="#2060ff" fill-opacity=".25" filter="url(#glowr1x8312)"/><ellipse cx="818.624273816701" cy="710.2675176944397" rx="45.1" ry="30.0" fill="#2060ff" fill-opacity=".25" filter="url(#glowr1x8312)"/></g><rect x="451.6118038647808" y="558.3509033821523" width="100.0"  height="56.0" fill="#003ccc" stroke="#2060ff" stroke-width="2.2" filter="url(#skr1x8312)"/><rect x="422.4485141913407" y="576.7900057647378" width="152.0" height="26.0" fill="url(#bevelr1x8312)" fill-opacity=".65" stroke="#2060ff" stroke-width="1.2" filter="url(#skr1x8312)"/><polygon points="309.8,382.4 350.5,293.3 498.3,277.0 648.2,296.0 693.4,381.0 668.5,502.0 500.4,564.7 329.7,504.8" fill="url(#suitr1x8312)" stroke="#2060ff" stroke-width="2.8" filter="url(#skr1x8312) url(#metalr1x8312)"/><polygon points="306.9,382.1 349.1,293.1 499.4,277.7 651.0,293.2 692.3,381.2 667.6,505.2 498.3,565.9 329.5,503.7" fill="url(#carbonr1x8312)"/><polygon points="381.2,303.3 501.4,287.2 618.8,301.4 606.0,381.0 391.1,380.2" fill="url(#suitHir1x8312)"/><polygon points="380.8,381.8 366.9,427.3 431.6,501.8 498.9,526.9 569.0,502.8 633.1,424.5 617.8,381.0" fill="#050508" fill-opacity=".88" stroke="#2060ff" stroke-width="1.8" filter="url(#skr1x8312)"/><polygon points="380.5,410.0 476.8,410.8 485.7,441.8 388.5,440.5" fill="#2060ff" filter="url(#glowr1x8312)"/><polygon points="521.3,411.3 618.4,411.3 610.9,440.4 516.2,439.8" fill="#2060ff" filter="url(#glowr1x8312)"/><ellipse cx="430.9" cy="425.7" rx="38.4"  ry="8.2" fill="#ffffff" opacity=".88"/><ellipse cx="569.1" cy="425.7" rx="38.4"  ry="8.2" fill="#ffffff" opacity=".88"/><line x1="485.6730531851388" y1="413.42190769147123" x2="514.2147099823133" y2="414.0437718107365" stroke="#2060ff" stroke-opacity=".52" stroke-width="2"/><line x1="486.17527550967407" y1="438.1641351018101" x2="515.2108277931251" y2="439.03407606566327" stroke="#2060ff" stroke-opacity=".52" stroke-width="2"/><line x1="501.79202812025324" y1="453.723238012474" x2="501.7382500063628" y2="482.9359671498649" stroke="#2060ff" stroke-opacity=".58" stroke-width="2.2" filter="url(#skr1x8312)"/><line x1="452.9506390278973" y1="490.32530007492744" x2="455.4517251785658" y2="518.7224447036162" stroke="#2060ff" stroke-opacity=".52" stroke-width="1.5" filter="url(#skr1x8312)"/><line x1="475.5087897303886" y1="491.8354067485779" x2="475.56002934718504" y2="521.4101436873898" stroke="#2060ff" stroke-opacity=".52" stroke-width="1.5" filter="url(#skr1x8312)"/><line x1="498.97681724010033" y1="491.2253780601546" x2="498.86342548858374" y2="519.2213142258115" stroke="#2060ff" stroke-opacity=".52" stroke-width="1.5" filter="url(#skr1x8312)"/><line x1="523.1396593811548" y1="490.7883666019886" x2="522.7289897057786" y2="521.7024879995733" stroke="#2060ff" stroke-opacity=".52" stroke-width="1.5" filter="url(#skr1x8312)"/><line x1="546.5967247755453" y1="490.75748065840446" x2="547.6825258230045" y2="518.9197543488815" stroke="#2060ff" stroke-opacity=".52" stroke-width="1.5" filter="url(#skr1x8312)"/><polygon points="432.5,505.1 567.9,503.4 553.0,556.9 447.6,557.5" fill="#003ccc" fill-opacity=".72" stroke="#2060ff" stroke-width="1.3" filter="url(#skr1x8312)"/><circle cx="500.0" cy="315.0" r="203.5" fill="none" stroke="#2060ff" stroke-width="3" stroke-dasharray="6,4" filter="url(#bloomr1x8312)"/><circle cx="500.0" cy="315.0" r="134.4"   fill="none" stroke="#2060ff" stroke-width="1.2" stroke-opacity=".42"/><circle cx="703.5" cy="315.0" r="1.8" fill="#2060ff" filter="url(#glowr1x8312)"/><circle cx="688.0" cy="392.9" r="2.7" fill="#2060ff" filter="url(#glowr1x8312)"/><circle cx="643.9" cy="458.9" r="2.8" fill="#2060ff" filter="url(#glowr1x8312)"/><circle cx="577.9" cy="503.0" r="2.0" fill="#2060ff" filter="url(#glowr1x8312)"/><circle cx="500.0" cy="518.5" r="1.0" fill="#2060ff" filter="url(#glowr1x8312)"/><circle cx="422.1" cy="503.0" r="0.7" fill="#2060ff" filter="url(#glowr1x8312)"/><circle cx="356.1" cy="458.9" r="1.5" fill="#2060ff" filter="url(#glowr1x8312)"/><circle cx="312.0" cy="392.9" r="2.5" fill="#2060ff" filter="url(#glowr1x8312)"/><circle cx="296.5" cy="315.0" r="2.9" fill="#2060ff" filter="url(#glowr1x8312)"/><circle cx="312.0" cy="237.1" r="2.3" fill="#2060ff" filter="url(#glowr1x8312)"/><circle cx="356.1" cy="171.1" r="1.2" fill="#2060ff" filter="url(#glowr1x8312)"/><circle cx="422.1" cy="127.0" r="0.7" fill="#2060ff" filter="url(#glowr1x8312)"/><circle cx="500.0" cy="111.5" r="1.2" fill="#2060ff" filter="url(#glowr1x8312)"/><circle cx="577.9" cy="127.0" r="2.3" fill="#2060ff" filter="url(#glowr1x8312)"/><circle cx="643.9" cy="171.1" r="2.9" fill="#2060ff" filter="url(#glowr1x8312)"/><circle cx="688.0" cy="237.1" r="2.5" fill="#2060ff" filter="url(#glowr1x8312)"/><text x="30.0"  y="975.0" font-family="monospace" font-weight="bold" font-size="22.0" fill="rgba(255,255,255,.22)">#0001</text><text x="500.0"   y="975.0" text-anchor="middle" font-family="monospace" font-weight="bold" font-size="22.0" fill="#2060ff" fill-opacity=".48">COBALT RANGER</text><text x="970.0" y="975.0" text-anchor="end"    font-family="monospace" font-weight="bold" font-size="22.0" fill="#2060ff" fill-opacity=".32">MECH RANGERS</text></svg>