<svg xmlns="http://www.w3.org/2000/svg" viewBox="0 0 1000 1000" width="1000" height="1000" shape-rendering="geometricPrecision"><defs>

  <!-- Scene gradients -->
  <radialGradient id="bgr1x8348" cx="50%" cy="42%" r="72%">
    <stop offset="0%"   stop-color="#0a0a14"/>
    <stop offset="100%" stop-color="#050508"/>
  </radialGradient>
  <linearGradient id="suitr1x8348" x1="8%" y1="0%" x2="92%" y2="100%">
    <stop offset="0%"   stop-color="#ffcc00" stop-opacity=".95"/>
    <stop offset="45%"  stop-color="#a07000"/>
    <stop offset="100%" stop-color="#050508"/>
  </linearGradient>
  <linearGradient id="suitHir1x8348" x1="0%" y1="0%" x2="0%" y2="100%">
    <stop offset="0%"   stop-color="rgba(255,255,255,.28)"/>
    <stop offset="60%"  stop-color="rgba(255,255,255,.04)"/>
    <stop offset="100%" stop-color="rgba(255,255,255,0)"/>
  </linearGradient>
  <!-- Bevel: bright top, dark bottom for armour panels -->
  <linearGradient id="bevelr1x8348" x1="0%" y1="0%" x2="0%" y2="100%">
    <stop offset="0%"   stop-color="rgba(255,255,255,.55)"/>
    <stop offset="30%"  stop-color="#ffcc00"/>
    <stop offset="70%"  stop-color="#a07000"/>
    <stop offset="100%" stop-color="rgba(0,0,0,.5)"/>
  </linearGradient>

  <!-- Weapon: cold steel blade sweep -->
  <linearGradient id="blader1x8348" x1="0%" y1="0%" x2="100%" y2="0%">
    <stop offset="0%"   stop-color="#0e0e20"/>
    <stop offset="16%"  stop-color="#3e3e58"/>
    <stop offset="34%"  stop-color="#c8c8e0"/>
    <stop offset="50%"  stop-color="#f5f5ff"/>
    <stop offset="66%"  stop-color="#b8b8d0"/>
    <stop offset="84%"  stop-color="#2e2e48"/>
    <stop offset="100%" stop-color="#08080e"/>
  </linearGradient>
  <!-- Blade tip brightening -->
  <linearGradient id="bladeTipr1x8348" x1="0%" y1="100%" x2="0%" y2="0%">
    <stop offset="0%"   stop-color="rgba(255,255,255,0)"/>
    <stop offset="55%"  stop-color="rgba(255,255,255,.1)"/>
    <stop offset="100%" stop-color="rgba(255,255,255,.55)"/>
  </linearGradient>
  <!-- Gunmetal anodised — blaster body -->
  <linearGradient id="gunmetalr1x8348" x1="0%" y1="0%" x2="0%" y2="100%">
    <stop offset="0%"   stop-color="#46465e"/>
    <stop offset="18%"  stop-color="#828296"/>
    <stop offset="42%"  stop-color="#26263a"/>
    <stop offset="72%"  stop-color="#16162a"/>
    <stop offset="100%" stop-color="#0c0c18"/>
  </linearGradient>
  <!-- Brushed steel tube — barrel/rod -->
  <linearGradient id="barrelr1x8348" x1="0%" y1="0%" x2="100%" y2="0%">
    <stop offset="0%"   stop-color="#0a0a14"/>
    <stop offset="24%"  stop-color="#585875"/>
    <stop offset="50%"  stop-color="#a8a8c8"/>
    <stop offset="76%"  stop-color="#383852"/>
    <stop offset="100%" stop-color="#0a0a14"/>
  </linearGradient>
  <!-- Chrome rod — lance shaft -->
  <linearGradient id="chromer1x8348" x1="0%" y1="0%" x2="100%" y2="0%">
    <stop offset="0%"   stop-color="#0c0c18"/>
    <stop offset="20%"  stop-color="#686888"/>
    <stop offset="44%"  stop-color="#e0e0f0"/>
    <stop offset="56%"  stop-color="#c0c0d8"/>
    <stop offset="80%"  stop-color="#28283e"/>
    <stop offset="100%" stop-color="#0c0c18"/>
  </linearGradient>
  <!-- Titanium plate — shield face -->
  <linearGradient id="titaniumr1x8348" x1="0%" y1="0%" x2="100%" y2="100%">
    <stop offset="0%"   stop-color="#585878"/>
    <stop offset="28%"  stop-color="#ffcc00" stop-opacity=".88"/>
    <stop offset="55%"  stop-color="#a07000"/>
    <stop offset="80%"  stop-color="#181828"/>
    <stop offset="100%" stop-color="#0a0a18"/>
  </linearGradient>
  <!-- Artillery black-chrome — cannon body -->
  <linearGradient id="artilleryr1x8348" x1="0%" y1="0%" x2="0%" y2="100%">
    <stop offset="0%"   stop-color="#383850"/>
    <stop offset="14%"  stop-color="#78789a"/>
    <stop offset="36%"  stop-color="#202034"/>
    <stop offset="65%"  stop-color="#14141e"/>
    <stop offset="100%" stop-color="#0a0a12"/>
  </linearGradient>
  <!-- Energy orb — staff -->
  <radialGradient id="orbr1x8348" cx="35%" cy="35%" r="65%">
    <stop offset="0%"   stop-color="rgba(255,255,255,.9)"/>
    <stop offset="30%"  stop-color="#ffcc00"/>
    <stop offset="68%"  stop-color="#a07000"/>
    <stop offset="100%" stop-color="rgba(0,0,0,.6)"/>
  </radialGradient>
  <!-- Knuckle plate chrome -->
  <linearGradient id="knuckler1x8348" x1="0%" y1="0%" x2="0%" y2="100%">
    <stop offset="0%"   stop-color="#888aaa"/>
    <stop offset="32%"  stop-color="#ffcc00" stop-opacity=".8"/>
    <stop offset="62%"  stop-color="#1a1a2c"/>
    <stop offset="100%" stop-color="#0a0a14"/>
  </linearGradient>

  <!-- Carbon fibre weave texture overlay -->
  <pattern id="carbonr1x8348" width="6" height="6" patternUnits="userSpaceOnUse">
    <rect width="6" height="6" fill="rgba(0,0,0,.08)"/>
    <rect x="0" y="0" width="3" height="3" fill="rgba(255,255,255,.022)"/>
    <rect x="3" y="3" width="3" height="3" fill="rgba(255,255,255,.022)"/>
    <line x1="0" y1="0" x2="3" y2="3" stroke="rgba(255,255,255,.038)" stroke-width=".5"/>
    <line x1="3" y1="0" x2="6" y2="3" stroke="rgba(0,0,0,.055)"       stroke-width=".5"/>
    <line x1="0" y1="3" x2="3" y2="6" stroke="rgba(0,0,0,.055)"       stroke-width=".5"/>
    <line x1="3" y1="3" x2="6" y2="6" stroke="rgba(255,255,255,.038)" stroke-width=".5"/>
  </pattern>

  <!-- Specular metal sheen on armour panels -->
  <filter id="metalr1x8348" x="-5%" y="-5%" width="110%" height="110%">
    <feSpecularLighting surfaceScale="4" specularConstant="1.8"
        specularExponent="42" lighting-color="#ffffff" result="spec">
      <feDistantLight elevation="52" azimuth="38"/>
    </feSpecularLighting>
    <feComposite in="spec" in2="SourceGraphic" operator="in" result="sm"/>
    <feComposite in="SourceGraphic" in2="sm" operator="arithmetic" k1="0" k2="1" k3="0.55" k4="0"/>
  </filter>

  <!-- Sharper specular for weapons — heavier glare -->
  <filter id="wmr1x8348" x="-8%" y="-8%" width="116%" height="116%">
    <feSpecularLighting surfaceScale="6" specularConstant="2.4"
        specularExponent="65" lighting-color="#ffffff" result="spec">
      <feDistantLight elevation="44" azimuth="28"/>
    </feSpecularLighting>
    <feComposite in="spec" in2="SourceGraphic" operator="in" result="sm"/>
    <feComposite in="SourceGraphic" in2="sm" operator="arithmetic" k1="0" k2="1" k3="0.78" k4="0"/>
  </filter>

  <!-- Sketch wobble -->
  <filter id="skr1x8348" x="-8%" y="-8%" width="116%" height="116%">
    <feTurbulence type="fractalNoise" baseFrequency="0.038"
        numOctaves="3" seed="45" result="noise"/>
    <feDisplacementMap in="SourceGraphic" in2="noise" scale="2.6"
        xChannelSelector="R" yChannelSelector="G" result="w"/>
    <feComposite in="w" in2="SourceGraphic" operator="atop"/>
  </filter>

  <!-- Glow: sharp accent -->
  <filter id="glowr1x8348" x="-20%" y="-20%" width="140%" height="140%">
    <feGaussianBlur stdDeviation="3.5" result="b"/>
    <feColorMatrix in="b" type="matrix"
        values="0 0 0 0 1  0 0 0 0 1  0 0 0 0 1  0 0 0 1.8 0" result="boost"/>
    <feMerge><feMergeNode in="boost"/><feMergeNode in="SourceGraphic"/></feMerge>
  </filter>

  <!-- Bloom: wide soft -->
  <filter id="bloomr1x8348" x="-40%" y="-40%" width="180%" height="180%">
    <feGaussianBlur stdDeviation="11" result="b"/>
    <feMerge><feMergeNode in="b"/><feMergeNode in="SourceGraphic"/></feMerge>
  </filter>

  </defs><rect width="1000" height="1000" fill="url(#bgr1x8348)"/><ellipse cx="500.0" cy="892.0" rx="350.0" ry="65.0" fill="rgba(0,0,0,.7)" filter="url(#bloomr1x8348)"/><ellipse cx="500.0" cy="889.0" rx="220.0" ry="34.0" fill="rgba(0,0,0,.45)"/><ellipse cx="500.0" cy="520.0" rx="320.0" ry="480.0" fill="#00e5ff" fill-opacity=".042" filter="url(#bloomr1x8348)"/><circle cx="521.9" cy="611.3" r="0.9" fill="#00e5ff" fill-opacity="0.46" filter="url(#glowr1x8348)"/><circle cx="374.6" cy="214.5" r="1.7" fill="#00e5ff" fill-opacity="0.57" filter="url(#glowr1x8348)"/><circle cx="269.1" cy="376.7" r="4.0" fill="#00e5ff" fill-opacity="0.40" filter="url(#glowr1x8348)"/><circle cx="464.5" cy="433.6" r="2.5" fill="#00e5ff" fill-opacity="0.71" filter="url(#glowr1x8348)"/><circle cx="563.6" cy="294.1" r="1.3" fill="#00e5ff" fill-opacity="0.58" filter="url(#glowr1x8348)"/><circle cx="251.0" cy="248.4" r="1.6" fill="#00e5ff" fill-opacity="0.64" filter="url(#glowr1x8348)"/><circle cx="600.3" cy="786.4" r="4.0" fill="#00e5ff" fill-opacity="0.53" filter="url(#glowr1x8348)"/><circle cx="748.9" cy="367.2" r="4.1" fill="#00e5ff" fill-opacity="0.42" filter="url(#glowr1x8348)"/><circle cx="718.1" cy="500.8" r="2.4" fill="#00e5ff" fill-opacity="0.49" filter="url(#glowr1x8348)"/><circle cx="690.6" cy="792.1" r="3.5" fill="#00e5ff" fill-opacity="0.45" filter="url(#glowr1x8348)"/><circle cx="636.4" cy="572.5" r="3.5" fill="#00e5ff" fill-opacity="0.82" filter="url(#glowr1x8348)"/><circle cx="663.4" cy="425.7" r="4.2" fill="#00e5ff" fill-opacity="0.63" filter="url(#glowr1x8348)"/><circle cx="539.7" cy="304.6" r="3.5" fill="#00e5ff" fill-opacity="0.61" filter="url(#glowr1x8348)"/><circle cx="512.3" cy="538.6" r="3.2" fill="#00e5ff" fill-opacity="0.90" filter="url(#glowr1x8348)"/><path d="M653.5,219.7 Q675.5,578.6 632.1,898.8" stroke="#00e5ff" stroke-opacity="0.61" stroke-width="2.3" fill="none" filter="url(#glowr1x8348)"/><path d="M489.3,243.4 Q523.9,494.3 308.7,743.5" stroke="#00e5ff" stroke-opacity="0.64" stroke-width="1.7" fill="none" filter="url(#glowr1x8348)"/><path d="M629.6,380.0 Q661.4,544.2 705.6,658.0" stroke="#00e5ff" stroke-opacity="0.75" stroke-width="2.9" fill="none" filter="url(#glowr1x8348)"/><path d="M469.4,164.0 Q504.5,420.0 401.2,686.6" stroke="#00e5ff" stroke-opacity="0.68" stroke-width="2.7" fill="none" filter="url(#glowr1x8348)"/><path d="M388.7,364.0 Q406.4,600.9 700.8,835.9" stroke="#00e5ff" stroke-opacity="0.69" stroke-width="2.9" fill="none" filter="url(#glowr1x8348)"/><polygon points="400.2,661.3 491.1,662.9 481.0,878.2 385.9,876.4" fill="url(#suitr1x8348)" stroke="#ffcc00" stroke-width="2.2" filter="url(#skr1x8348) url(#metalr1x8348)"/><polygon points="398.5,662.3 488.5,662.5 479.9,876.9 387.7,878.7" fill="url(#carbonr1x8348)"/><polygon points="394.2,723.1 494.5,724.6 485.7,787.9 382.1,787.3" fill="url(#bevelr1x8348)" fill-opacity=".5" stroke="#ffcc00" stroke-width="1.4" filter="url(#skr1x8348)"/><polygon points="510.4,663.3 600.5,662.5 611.2,879.3 519.3,878.8" fill="url(#suitr1x8348)" stroke="#ffcc00" stroke-width="2.2" filter="url(#skr1x8348) url(#metalr1x8348)"/><polygon points="511.8,662.0 599.5,664.0 612.3,877.0 519.9,878.3" fill="url(#carbonr1x8348)"/><polygon points="508.8,724.9 606.0,723.0 615.1,788.3 516.9,789.6" fill="url(#bevelr1x8348)" fill-opacity=".5" stroke="#ffcc00" stroke-width="1.4" filter="url(#skr1x8348)"/><rect x="392.1" y="838.1" width="100.3" height="24.7" fill="url(#bevelr1x8348)" stroke="#ffcc00" stroke-width="1" filter="url(#skr1x8348)"/><rect x="506.3"  y="839.6" width="100.3" height="24.7" fill="url(#bevelr1x8348)" stroke="#ffcc00" stroke-width="1" filter="url(#skr1x8348)"/><polygon points="370.5,877.5 497.1,877.3 505.1,922.1 363.1,920.0" fill="#a07000" stroke="#ffcc00" stroke-width="2" filter="url(#skr1x8348)"/><polygon points="501.7,878.7 631.7,878.5 639.0,920.0 495.0,920.5" fill="#a07000" stroke="#ffcc00" stroke-width="2" filter="url(#skr1x8348)"/><polygon points="304.0,634.0 694.7,634.6 639.0,681.1 360.9,683.8" fill="#ffcc00" fill-opacity=".52" stroke="#ffcc00" stroke-width="2" filter="url(#skr1x8348)"/><rect x="464.6" y="636.5" width="72.0" height="42.0" fill="url(#bevelr1x8348)" stroke="#ffcc00" stroke-width="1.4" filter="url(#glowr1x8348)"/><rect x="486.3" y="640.5" width="28.0" height="22.0" rx="1" fill="rgba(255,255,255,.48)"/><polygon points="151.5,466.7 236.6,466.4 258.4,735.9 128.3,733.7" fill="url(#suitr1x8348)" stroke="#ffcc00" stroke-width="2.2" filter="url(#skr1x8348) url(#metalr1x8348)"/><polygon points="172.4,433.9 253.5,431.2 242.4,511.2 159.6,509.4" fill="url(#bevelr1x8348)" fill-opacity=".72" stroke="#ffcc00" stroke-width="2.2" filter="url(#skr1x8348)"/><polygon points="160.2,622.2 243.8,620.5 238.6,659.6 163.9,659.3" fill="#ffcc00" fill-opacity=".42" stroke="#ffcc00" stroke-width="1" filter="url(#skr1x8348)"/><polygon points="763.8,467.2 847.5,467.8 872.5,735.7 743.2,736.7" fill="url(#suitr1x8348)" stroke="#ffcc00" stroke-width="2.2" filter="url(#skr1x8348) url(#metalr1x8348)"/><polygon points="747.2,431.8 827.7,431.5 840.5,510.8 756.7,509.9" fill="url(#bevelr1x8348)" fill-opacity=".72" stroke="#ffcc00" stroke-width="2.2" filter="url(#skr1x8348)"/><polygon points="756.0,623.2 838.7,621.1 833.6,660.3 759.6,661.7" fill="#ffcc00" fill-opacity=".42" stroke="#ffcc00" stroke-width="1" filter="url(#skr1x8348)"/><rect x="120.0"  y="698.6" width="135.3" height="85.0" rx="4" fill="url(#bevelr1x8348)" stroke="#ffcc00" stroke-width="1.8" filter="url(#skr1x8348)"/><rect x="748.3"   y="701.4" width="135.3" height="85.0" rx="4" fill="url(#bevelr1x8348)" stroke="#ffcc00" stroke-width="1.8" filter="url(#skr1x8348)"/><line x1="151.1" y1="702.6" x2="149.0" y2="782.2" stroke="#ffcc00" stroke-opacity=".38" stroke-width="1"/><line x1="779.7" y1="702.7" x2="777.1" y2="782.6" stroke="#ffcc00" stroke-opacity=".38" stroke-width="1"/><line x1="182.5" y1="702.9" x2="182.3" y2="785.2" stroke="#ffcc00" stroke-opacity=".38" stroke-width="1"/><line x1="809.8" y1="703.1" x2="810.2" y2="783.8" stroke="#ffcc00" stroke-opacity=".38" stroke-width="1"/><line x1="213.9" y1="701.4" x2="215.8" y2="785.4" stroke="#ffcc00" stroke-opacity=".38" stroke-width="1"/><line x1="845.3" y1="702.6" x2="842.5" y2="783.8" stroke="#ffcc00" stroke-opacity=".38" stroke-width="1"/><polygon points="234.6,418.7 764.6,416.7 723.4,662.2 276.4,661.7" fill="url(#suitr1x8348)" stroke="#ffcc00" stroke-width="2.6" filter="url(#skr1x8348) url(#metalr1x8348)"/><polygon points="235.3,418.3 766.8,418.2 723.7,661.5 276.4,662.7" fill="url(#carbonr1x8348)"/><polygon points="368.0,416.8 631.6,419.1 612.0,515.6 387.6,516.1" fill="url(#suitHir1x8348)"/><line x1="360.8" y1="470.6" x2="638.0" y2="472.2" stroke="#ffcc00" stroke-opacity=".52" stroke-width="1.3" filter="url(#skr1x8348)"/><line x1="400.4" y1="549.7" x2="600.0" y2="548.6" stroke="#ffcc00" stroke-opacity=".52" stroke-width="1.3" filter="url(#skr1x8348)"/><line x1="265.9" y1="490.0" x2="321.3" y2="490.5" stroke="#ffcc00" stroke-opacity=".62" stroke-width="1.8"/><line x1="680.0" y1="492.5" x2="734.3" y2="490.6" stroke="#ffcc00" stroke-opacity=".62" stroke-width="1.8"/><line x1="265.6" y1="522.8" x2="318.2" y2="524.0" stroke="#ffcc00" stroke-opacity=".62" stroke-width="1.8"/><line x1="678.9" y1="522.9" x2="733.9" y2="523.3" stroke="#ffcc00" stroke-opacity=".62" stroke-width="1.8"/><line x1="265.4" y1="554.4" x2="318.9" y2="556.0" stroke="#ffcc00" stroke-opacity=".62" stroke-width="1.8"/><line x1="679.1" y1="555.0" x2="734.3" y2="554.8" stroke="#ffcc00" stroke-opacity=".62" stroke-width="1.8"/><line x1="268.1" y1="586.9" x2="319.1" y2="586.3" stroke="#ffcc00" stroke-opacity=".62" stroke-width="1.8"/><line x1="681.9" y1="586.3" x2="734.1" y2="585.7" stroke="#ffcc00" stroke-opacity=".62" stroke-width="1.8"/><g filter="url(#glowr1x8348)"><polygon points="463.1,528.2 461.6,498.5 480.0,466.4 498.3,499.4 520.2,466.2 538.3,499.3 539.5,527.4" fill="#ffcc00" stroke="#050508" stroke-width="1.4" filter="url(#skr1x8348)"/><polygon points="461.8,530.5 463.2,497.6 482.3,466.2 500.0,496.8 517.7,468.3 537.4,496.7 539.1,528.2" fill="url(#suitHir1x8348)" opacity=".38"/></g><g><line x1="899.0785194808245" y1="792.1752057689242" x2="914.1753877335788" y2="111.14565251450983" stroke="url(#chromer1x8348)" stroke-width="28.0" stroke-linecap="round" filter="url(#wmr1x8348)"/><line x1="901.4369448512421" y1="771.3156505027786" x2="913.4111879028939" y2="130.09192009633404" stroke="rgba(255,255,255,.42)" stroke-width="5.0" stroke-linecap="round"/><polygon points="870.3,150.6 935.0,152.1 917.0,-8.4" fill="url(#blader1x8348)" stroke="#ffcc00" stroke-width="1.8" filter="url(#wmr1x8348)"/><line x1="935.8" y1="151.4" x2="915.8" y2="-8.6" stroke="rgba(255,255,255,.72)" stroke-width="1.6"/><rect x="877.9215323740244" y="420.16258555995296" width="40.0" height="20.0" fill="url(#bevelr1x8348)" stroke="#ffcc00" stroke-width="1" filter="url(#wmr1x8348)"/><rect x="877.5331987112388" y="512.0479421621188" width="40.0" height="20.0" fill="url(#bevelr1x8348)" stroke="#ffcc00" stroke-width="1" filter="url(#wmr1x8348)"/><rect x="879.5791528153792" y="601.9889737122692" width="40.0" height="20.0" fill="url(#bevelr1x8348)" stroke="#ffcc00" stroke-width="1" filter="url(#wmr1x8348)"/><rect x="878.5316917195544" y="692.8633084404282" width="40.0" height="20.0" fill="url(#bevelr1x8348)" stroke="#ffcc00" stroke-width="1" filter="url(#wmr1x8348)"/><ellipse cx="899.2078433996626" cy="789.6319422687403" rx="22.0" ry="15.0" fill="url(#bevelr1x8348)" stroke="#ffcc00" stroke-width="1" filter="url(#wmr1x8348)"/></g><rect x="448.4581608180888" y="557.3332905561663" width="100.0"  height="56.0" fill="#a07000" stroke="#ffcc00" stroke-width="2.2" filter="url(#skr1x8348)"/><rect x="425.74883232591674" y="576.9538784056903" width="152.0" height="26.0" fill="url(#bevelr1x8348)" fill-opacity=".65" stroke="#ffcc00" stroke-width="1.2" filter="url(#skr1x8348)"/><polygon points="309.3,380.5 350.6,294.1 499.6,277.3 649.1,293.9 690.3,380.3 670.3,503.5 500.0,565.6 329.6,501.9" fill="url(#suitr1x8348)" stroke="#ffcc00" stroke-width="2.8" filter="url(#skr1x8348) url(#metalr1x8348)"/><polygon points="308.2,380.0 349.2,295.3 499.9,278.8 648.4,295.3 690.5,382.0 668.8,502.2 501.0,566.3 330.8,503.7" fill="url(#carbonr1x8348)"/><polygon points="380.4,301.1 499.8,285.6 620.5,303.7 606.9,380.3 394.1,380.2" fill="url(#suitHir1x8348)"/><polygon points="382.6,378.8 364.8,423.9 433.0,501.9 498.6,529.1 565.6,503.3 635.4,427.3 620.8,379.5" fill="#050508" fill-opacity=".88" stroke="#ffcc00" stroke-width="1.8" filter="url(#skr1x8348)"/><polygon points="382.3,411.8 478.7,412.2 485.6,439.1 387.2,438.9" fill="#ffcc00" filter="url(#glowr1x8348)"/><polygon points="524.7,413.0 619.5,411.5 611.1,440.9 514.2,440.1" fill="#ffcc00" filter="url(#glowr1x8348)"/><ellipse cx="430.9" cy="425.7" rx="38.4"  ry="8.2" fill="#ffffff" opacity=".88"/><ellipse cx="569.1" cy="425.7" rx="38.4"  ry="8.2" fill="#ffffff" opacity=".88"/><line x1="484.9925496719405" y1="413.03451797347515" x2="515.7556926795654" y2="411.6820159452036" stroke="#ffcc00" stroke-opacity=".52" stroke-width="2"/><line x1="483.38454358294604" y1="438.535909441486" x2="515.8744274861552" y2="439.2772523878142" stroke="#ffcc00" stroke-opacity=".52" stroke-width="2"/><line x1="499.4925534657203" y1="455.28104838365687" x2="499.2384882072918" y2="482.0670021044091" stroke="#ffcc00" stroke-opacity=".58" stroke-width="2.2" filter="url(#skr1x8348)"/><line x1="455.2596408871748" y1="492.9655172787606" x2="454.00207838367675" y2="519.0290253916755" stroke="#ffcc00" stroke-opacity=".52" stroke-width="1.5" filter="url(#skr1x8348)"/><line x1="478.13655694391576" y1="492.08747682487586" x2="478.6129185733758" y2="521.1447285248898" stroke="#ffcc00" stroke-opacity=".52" stroke-width="1.5" filter="url(#skr1x8348)"/><line x1="500.2169904653914" y1="490.95916129937393" x2="498.5748958257958" y2="519.1517183877528" stroke="#ffcc00" stroke-opacity=".52" stroke-width="1.5" filter="url(#skr1x8348)"/><line x1="523.0764963721483" y1="490.52032361980525" x2="521.7749606821313" y2="518.5322158135474" stroke="#ffcc00" stroke-opacity=".52" stroke-width="1.5" filter="url(#skr1x8348)"/><line x1="544.8773485142924" y1="492.18503833720456" x2="544.5230300428533" y2="521.2278842421249" stroke="#ffcc00" stroke-opacity=".52" stroke-width="1.5" filter="url(#skr1x8348)"/><polygon points="434.4,503.4 565.5,503.0 554.9,555.9 446.5,556.6" fill="#a07000" fill-opacity=".72" stroke="#ffcc00" stroke-width="1.3" filter="url(#skr1x8348)"/><text x="30.0"  y="975.0" font-family="monospace" font-weight="bold" font-size="22.0" fill="rgba(255,255,255,.22)">#0001</text><text x="500.0"   y="975.0" text-anchor="middle" font-family="monospace" font-weight="bold" font-size="22.0" fill="#ffcc00" fill-opacity=".48">NOVA RANGER</text><text x="970.0" y="975.0" text-anchor="end"    font-family="monospace" font-weight="bold" font-size="22.0" fill="#ffcc00" fill-opacity=".32">MECH RANGERS</text></svg>