<svg xmlns="http://www.w3.org/2000/svg" viewBox="0 0 1000 1000" width="1000" height="1000" shape-rendering="geometricPrecision"><defs>

  <!-- Scene gradients -->
  <radialGradient id="bgr1x8356" cx="50%" cy="42%" r="72%">
    <stop offset="0%"   stop-color="#001e1e"/>
    <stop offset="100%" stop-color="#0e001e"/>
  </radialGradient>
  <linearGradient id="suitr1x8356" x1="8%" y1="0%" x2="92%" y2="100%">
    <stop offset="0%"   stop-color="#2060ff" stop-opacity=".95"/>
    <stop offset="45%"  stop-color="#003ccc"/>
    <stop offset="100%" stop-color="#0e001e"/>
  </linearGradient>
  <linearGradient id="suitHir1x8356" x1="0%" y1="0%" x2="0%" y2="100%">
    <stop offset="0%"   stop-color="rgba(255,255,255,.28)"/>
    <stop offset="60%"  stop-color="rgba(255,255,255,.04)"/>
    <stop offset="100%" stop-color="rgba(255,255,255,0)"/>
  </linearGradient>
  <!-- Bevel: bright top, dark bottom for armour panels -->
  <linearGradient id="bevelr1x8356" x1="0%" y1="0%" x2="0%" y2="100%">
    <stop offset="0%"   stop-color="rgba(255,255,255,.55)"/>
    <stop offset="30%"  stop-color="#2060ff"/>
    <stop offset="70%"  stop-color="#003ccc"/>
    <stop offset="100%" stop-color="rgba(0,0,0,.5)"/>
  </linearGradient>

  <!-- Weapon: cold steel blade sweep -->
  <linearGradient id="blader1x8356" x1="0%" y1="0%" x2="100%" y2="0%">
    <stop offset="0%"   stop-color="#0e0e20"/>
    <stop offset="16%"  stop-color="#3e3e58"/>
    <stop offset="34%"  stop-color="#c8c8e0"/>
    <stop offset="50%"  stop-color="#f5f5ff"/>
    <stop offset="66%"  stop-color="#b8b8d0"/>
    <stop offset="84%"  stop-color="#2e2e48"/>
    <stop offset="100%" stop-color="#08080e"/>
  </linearGradient>
  <!-- Blade tip brightening -->
  <linearGradient id="bladeTipr1x8356" x1="0%" y1="100%" x2="0%" y2="0%">
    <stop offset="0%"   stop-color="rgba(255,255,255,0)"/>
    <stop offset="55%"  stop-color="rgba(255,255,255,.1)"/>
    <stop offset="100%" stop-color="rgba(255,255,255,.55)"/>
  </linearGradient>
  <!-- Gunmetal anodised — blaster body -->
  <linearGradient id="gunmetalr1x8356" x1="0%" y1="0%" x2="0%" y2="100%">
    <stop offset="0%"   stop-color="#46465e"/>
    <stop offset="18%"  stop-color="#828296"/>
    <stop offset="42%"  stop-color="#26263a"/>
    <stop offset="72%"  stop-color="#16162a"/>
    <stop offset="100%" stop-color="#0c0c18"/>
  </linearGradient>
  <!-- Brushed steel tube — barrel/rod -->
  <linearGradient id="barrelr1x8356" x1="0%" y1="0%" x2="100%" y2="0%">
    <stop offset="0%"   stop-color="#0a0a14"/>
    <stop offset="24%"  stop-color="#585875"/>
    <stop offset="50%"  stop-color="#a8a8c8"/>
    <stop offset="76%"  stop-color="#383852"/>
    <stop offset="100%" stop-color="#0a0a14"/>
  </linearGradient>
  <!-- Chrome rod — lance shaft -->
  <linearGradient id="chromer1x8356" x1="0%" y1="0%" x2="100%" y2="0%">
    <stop offset="0%"   stop-color="#0c0c18"/>
    <stop offset="20%"  stop-color="#686888"/>
    <stop offset="44%"  stop-color="#e0e0f0"/>
    <stop offset="56%"  stop-color="#c0c0d8"/>
    <stop offset="80%"  stop-color="#28283e"/>
    <stop offset="100%" stop-color="#0c0c18"/>
  </linearGradient>
  <!-- Titanium plate — shield face -->
  <linearGradient id="titaniumr1x8356" x1="0%" y1="0%" x2="100%" y2="100%">
    <stop offset="0%"   stop-color="#585878"/>
    <stop offset="28%"  stop-color="#2060ff" stop-opacity=".88"/>
    <stop offset="55%"  stop-color="#003ccc"/>
    <stop offset="80%"  stop-color="#181828"/>
    <stop offset="100%" stop-color="#0a0a18"/>
  </linearGradient>
  <!-- Artillery black-chrome — cannon body -->
  <linearGradient id="artilleryr1x8356" x1="0%" y1="0%" x2="0%" y2="100%">
    <stop offset="0%"   stop-color="#383850"/>
    <stop offset="14%"  stop-color="#78789a"/>
    <stop offset="36%"  stop-color="#202034"/>
    <stop offset="65%"  stop-color="#14141e"/>
    <stop offset="100%" stop-color="#0a0a12"/>
  </linearGradient>
  <!-- Energy orb — staff -->
  <radialGradient id="orbr1x8356" cx="35%" cy="35%" r="65%">
    <stop offset="0%"   stop-color="rgba(255,255,255,.9)"/>
    <stop offset="30%"  stop-color="#2060ff"/>
    <stop offset="68%"  stop-color="#003ccc"/>
    <stop offset="100%" stop-color="rgba(0,0,0,.6)"/>
  </radialGradient>
  <!-- Knuckle plate chrome -->
  <linearGradient id="knuckler1x8356" x1="0%" y1="0%" x2="0%" y2="100%">
    <stop offset="0%"   stop-color="#888aaa"/>
    <stop offset="32%"  stop-color="#2060ff" stop-opacity=".8"/>
    <stop offset="62%"  stop-color="#1a1a2c"/>
    <stop offset="100%" stop-color="#0a0a14"/>
  </linearGradient>

  <!-- Carbon fibre weave texture overlay -->
  <pattern id="carbonr1x8356" width="6" height="6" patternUnits="userSpaceOnUse">
    <rect width="6" height="6" fill="rgba(0,0,0,.08)"/>
    <rect x="0" y="0" width="3" height="3" fill="rgba(255,255,255,.022)"/>
    <rect x="3" y="3" width="3" height="3" fill="rgba(255,255,255,.022)"/>
    <line x1="0" y1="0" x2="3" y2="3" stroke="rgba(255,255,255,.038)" stroke-width=".5"/>
    <line x1="3" y1="0" x2="6" y2="3" stroke="rgba(0,0,0,.055)"       stroke-width=".5"/>
    <line x1="0" y1="3" x2="3" y2="6" stroke="rgba(0,0,0,.055)"       stroke-width=".5"/>
    <line x1="3" y1="3" x2="6" y2="6" stroke="rgba(255,255,255,.038)" stroke-width=".5"/>
  </pattern>

  <!-- Specular metal sheen on armour panels -->
  <filter id="metalr1x8356" x="-5%" y="-5%" width="110%" height="110%">
    <feSpecularLighting surfaceScale="4" specularConstant="1.8"
        specularExponent="42" lighting-color="#ffffff" result="spec">
      <feDistantLight elevation="52" azimuth="38"/>
    </feSpecularLighting>
    <feComposite in="spec" in2="SourceGraphic" operator="in" result="sm"/>
    <feComposite in="SourceGraphic" in2="sm" operator="arithmetic" k1="0" k2="1" k3="0.55" k4="0"/>
  </filter>

  <!-- Sharper specular for weapons — heavier glare -->
  <filter id="wmr1x8356" x="-8%" y="-8%" width="116%" height="116%">
    <feSpecularLighting surfaceScale="6" specularConstant="2.4"
        specularExponent="65" lighting-color="#ffffff" result="spec">
      <feDistantLight elevation="44" azimuth="28"/>
    </feSpecularLighting>
    <feComposite in="spec" in2="SourceGraphic" operator="in" result="sm"/>
    <feComposite in="SourceGraphic" in2="sm" operator="arithmetic" k1="0" k2="1" k3="0.78" k4="0"/>
  </filter>

  <!-- Sketch wobble -->
  <filter id="skr1x8356" x="-8%" y="-8%" width="116%" height="116%">
    <feTurbulence type="fractalNoise" baseFrequency="0.038"
        numOctaves="3" seed="55" result="noise"/>
    <feDisplacementMap in="SourceGraphic" in2="noise" scale="2.6"
        xChannelSelector="R" yChannelSelector="G" result="w"/>
    <feComposite in="w" in2="SourceGraphic" operator="atop"/>
  </filter>

  <!-- Glow: sharp accent -->
  <filter id="glowr1x8356" x="-20%" y="-20%" width="140%" height="140%">
    <feGaussianBlur stdDeviation="3.5" result="b"/>
    <feColorMatrix in="b" type="matrix"
        values="0 0 0 0 1  0 0 0 0 1  0 0 0 0 1  0 0 0 1.8 0" result="boost"/>
    <feMerge><feMergeNode in="boost"/><feMergeNode in="SourceGraphic"/></feMerge>
  </filter>

  <!-- Bloom: wide soft -->
  <filter id="bloomr1x8356" x="-40%" y="-40%" width="180%" height="180%">
    <feGaussianBlur stdDeviation="11" result="b"/>
    <feMerge><feMergeNode in="b"/><feMergeNode in="SourceGraphic"/></feMerge>
  </filter>

  </defs><rect width="1000" height="1000" fill="url(#bgr1x8356)"/><circle cx="500" cy="500" r="420.0" fill="none" stroke="#2060ff" stroke-opacity=".11" stroke-width="42" stroke-dasharray="8,5"/><circle cx="500" cy="500" r="240.0" fill="none" stroke="#003ccc" stroke-opacity=".09" stroke-width="18"/><line x1="500" y1="500" x2="1500.0" y2="500.0" stroke="#2060ff" stroke-opacity=".035" stroke-width="1.2"/><line x1="500" y1="500" x2="1366.0" y2="1000.0" stroke="#2060ff" stroke-opacity=".035" stroke-width="1.2"/><line x1="500" y1="500" x2="1000.0" y2="1366.0" stroke="#2060ff" stroke-opacity=".035" stroke-width="1.2"/><line x1="500" y1="500" x2="500.0" y2="1500.0" stroke="#2060ff" stroke-opacity=".035" stroke-width="1.2"/><line x1="500" y1="500" x2="0.0" y2="1366.0" stroke="#2060ff" stroke-opacity=".035" stroke-width="1.2"/><line x1="500" y1="500" x2="-366.0" y2="1000.0" stroke="#2060ff" stroke-opacity=".035" stroke-width="1.2"/><line x1="500" y1="500" x2="-500.0" y2="500.0" stroke="#2060ff" stroke-opacity=".035" stroke-width="1.2"/><line x1="500" y1="500" x2="-366.0" y2="-0.0" stroke="#2060ff" stroke-opacity=".035" stroke-width="1.2"/><line x1="500" y1="500" x2="-0.0" y2="-366.0" stroke="#2060ff" stroke-opacity=".035" stroke-width="1.2"/><line x1="500" y1="500" x2="500.0" y2="-500.0" stroke="#2060ff" stroke-opacity=".035" stroke-width="1.2"/><line x1="500" y1="500" x2="1000.0" y2="-366.0" stroke="#2060ff" stroke-opacity=".035" stroke-width="1.2"/><line x1="500" y1="500" x2="1366.0" y2="-0.0" stroke="#2060ff" stroke-opacity=".035" stroke-width="1.2"/><ellipse cx="500.0" cy="892.0" rx="350.0" ry="65.0" fill="rgba(0,0,0,.7)" filter="url(#bloomr1x8356)"/><ellipse cx="500.0" cy="889.0" rx="220.0" ry="34.0" fill="rgba(0,0,0,.45)"/><ellipse cx="500.0" cy="520.0" rx="320.0" ry="480.0" fill="#6600ff" fill-opacity=".042" filter="url(#bloomr1x8356)"/><circle cx="318.8" cy="776.4" r="2.4" fill="#6600ff" fill-opacity="0.62" filter="url(#glowr1x8356)"/><circle cx="616.8" cy="585.8" r="0.5" fill="#6600ff" fill-opacity="0.86" filter="url(#glowr1x8356)"/><circle cx="715.0" cy="617.9" r="2.8" fill="#6600ff" fill-opacity="0.87" filter="url(#glowr1x8356)"/><circle cx="458.8" cy="247.6" r="2.4" fill="#6600ff" fill-opacity="0.75" filter="url(#glowr1x8356)"/><circle cx="649.8" cy="308.3" r="2.6" fill="#6600ff" fill-opacity="0.41" filter="url(#glowr1x8356)"/><circle cx="353.7" cy="788.3" r="2.1" fill="#6600ff" fill-opacity="0.87" filter="url(#glowr1x8356)"/><circle cx="373.1" cy="608.0" r="3.8" fill="#6600ff" fill-opacity="0.79" filter="url(#glowr1x8356)"/><circle cx="471.2" cy="258.7" r="0.8" fill="#6600ff" fill-opacity="0.40" filter="url(#glowr1x8356)"/><circle cx="626.6" cy="639.2" r="3.5" fill="#6600ff" fill-opacity="0.59" filter="url(#glowr1x8356)"/><circle cx="284.8" cy="321.6" r="4.1" fill="#6600ff" fill-opacity="0.68" filter="url(#glowr1x8356)"/><circle cx="717.2" cy="490.8" r="3.5" fill="#6600ff" fill-opacity="0.90" filter="url(#glowr1x8356)"/><circle cx="286.0" cy="634.0" r="4.1" fill="#6600ff" fill-opacity="0.55" filter="url(#glowr1x8356)"/><circle cx="454.6" cy="512.5" r="3.7" fill="#6600ff" fill-opacity="0.62" filter="url(#glowr1x8356)"/><circle cx="272.7" cy="644.5" r="3.1" fill="#6600ff" fill-opacity="0.83" filter="url(#glowr1x8356)"/><polygon points="400.5,664.2 488.7,662.8 480.9,878.7 386.5,878.8" fill="url(#suitr1x8356)" stroke="#2060ff" stroke-width="2.2" filter="url(#skr1x8356) url(#metalr1x8356)"/><polygon points="400.4,662.1 488.7,663.1 480.1,878.9 387.5,877.3" fill="url(#carbonr1x8356)"/><polygon points="393.7,723.5 494.3,722.5 485.1,788.5 382.9,788.8" fill="url(#bevelr1x8356)" fill-opacity=".5" stroke="#2060ff" stroke-width="1.4" filter="url(#skr1x8356)"/><polygon points="509.4,661.9 601.3,661.4 611.5,876.0 517.7,877.3" fill="url(#suitr1x8356)" stroke="#2060ff" stroke-width="2.2" filter="url(#skr1x8356) url(#metalr1x8356)"/><polygon points="509.5,661.8 600.9,662.9 611.1,876.8 518.2,876.1" fill="url(#carbonr1x8356)"/><polygon points="508.0,722.2 605.6,725.3 617.1,788.7 514.1,788.1" fill="url(#bevelr1x8356)" fill-opacity=".5" stroke="#2060ff" stroke-width="1.4" filter="url(#skr1x8356)"/><rect x="394.2" y="838.2" width="100.3" height="24.7" fill="url(#bevelr1x8356)" stroke="#2060ff" stroke-width="1" filter="url(#skr1x8356)"/><rect x="507.9"  y="839.7" width="100.3" height="24.7" fill="url(#bevelr1x8356)" stroke="#2060ff" stroke-width="1" filter="url(#skr1x8356)"/><polygon points="369.7,877.4 497.6,879.3 503.5,923.0 363.5,921.5" fill="#003ccc" stroke="#2060ff" stroke-width="2" filter="url(#skr1x8356)"/><polygon points="505.2,877.1 629.8,878.6 638.5,922.4 497.8,920.5" fill="#003ccc" stroke="#2060ff" stroke-width="2" filter="url(#skr1x8356)"/><polygon points="302.8,633.0 695.9,633.6 637.6,681.5 362.0,682.3" fill="#2060ff" fill-opacity=".52" stroke="#2060ff" stroke-width="2" filter="url(#skr1x8356)"/><rect x="464.3" y="639.6" width="72.0" height="42.0" fill="url(#bevelr1x8356)" stroke="#2060ff" stroke-width="1.4" filter="url(#glowr1x8356)"/><rect x="487.7" y="638.8" width="28.0" height="22.0" rx="1" fill="rgba(255,255,255,.48)"/><polygon points="153.3,467.9 234.4,467.6 257.5,736.2 130.0,734.2" fill="url(#suitr1x8356)" stroke="#2060ff" stroke-width="2.2" filter="url(#skr1x8356) url(#metalr1x8356)"/><polygon points="172.2,432.8 254.1,430.8 243.6,509.4 157.9,509.9" fill="url(#bevelr1x8356)" fill-opacity=".72" stroke="#2060ff" stroke-width="2.2" filter="url(#skr1x8356)"/><polygon points="159.6,620.7 244.9,623.4 238.5,662.2 164.2,659.2" fill="#2060ff" fill-opacity=".42" stroke="#2060ff" stroke-width="1" filter="url(#skr1x8356)"/><polygon points="766.8,467.8 845.6,464.7 873.1,736.5 742.5,734.4" fill="url(#suitr1x8356)" stroke="#2060ff" stroke-width="2.2" filter="url(#skr1x8356) url(#metalr1x8356)"/><polygon points="747.5,434.0 824.9,433.0 841.4,511.8 756.1,512.0" fill="url(#bevelr1x8356)" fill-opacity=".72" stroke="#2060ff" stroke-width="2.2" filter="url(#skr1x8356)"/><polygon points="758.5,621.6 839.5,621.8 834.9,660.8 759.6,659.5" fill="#2060ff" fill-opacity=".42" stroke="#2060ff" stroke-width="1" filter="url(#skr1x8356)"/><rect x="121.3"  y="699.4" width="135.3" height="85.0" rx="4" fill="url(#bevelr1x8356)" stroke="#2060ff" stroke-width="1.8" filter="url(#skr1x8356)"/><rect x="750.2"   y="701.0" width="135.3" height="85.0" rx="4" fill="url(#bevelr1x8356)" stroke="#2060ff" stroke-width="1.8" filter="url(#skr1x8356)"/><line x1="150.1" y1="703.1" x2="148.5" y2="783.8" stroke="#2060ff" stroke-opacity=".38" stroke-width="1"/><line x1="778.9" y1="700.6" x2="777.0" y2="782.3" stroke="#2060ff" stroke-opacity=".38" stroke-width="1"/><line x1="183.5" y1="701.4" x2="180.8" y2="784.2" stroke="#2060ff" stroke-opacity=".38" stroke-width="1"/><line x1="812.4" y1="702.7" x2="810.5" y2="785.4" stroke="#2060ff" stroke-opacity=".38" stroke-width="1"/><line x1="217.1" y1="701.6" x2="214.9" y2="782.4" stroke="#2060ff" stroke-opacity=".38" stroke-width="1"/><line x1="841.9" y1="702.0" x2="842.0" y2="783.2" stroke="#2060ff" stroke-opacity=".38" stroke-width="1"/><polygon points="236.1,417.7 766.4,416.4 720.8,660.9 277.7,662.2" fill="url(#suitr1x8356)" stroke="#2060ff" stroke-width="2.6" filter="url(#skr1x8356) url(#metalr1x8356)"/><polygon points="233.8,416.7 763.3,417.2 724.3,661.5 276.6,664.0" fill="url(#carbonr1x8356)"/><polygon points="367.7,416.5 632.9,419.1 612.7,515.0 388.1,516.5" fill="url(#suitHir1x8356)"/><line x1="361.8" y1="472.7" x2="636.3" y2="472.6" stroke="#2060ff" stroke-opacity=".52" stroke-width="1.3" filter="url(#skr1x8356)"/><line x1="399.0" y1="550.9" x2="601.5" y2="548.6" stroke="#2060ff" stroke-opacity=".52" stroke-width="1.3" filter="url(#skr1x8356)"/><line x1="265.8" y1="492.8" x2="321.5" y2="492.2" stroke="#2060ff" stroke-opacity=".62" stroke-width="1.8"/><line x1="680.8" y1="492.3" x2="734.0" y2="491.1" stroke="#2060ff" stroke-opacity=".62" stroke-width="1.8"/><line x1="267.9" y1="523.8" x2="321.4" y2="521.2" stroke="#2060ff" stroke-opacity=".62" stroke-width="1.8"/><line x1="681.8" y1="522.3" x2="734.4" y2="522.0" stroke="#2060ff" stroke-opacity=".62" stroke-width="1.8"/><line x1="265.9" y1="553.3" x2="318.2" y2="553.1" stroke="#2060ff" stroke-opacity=".62" stroke-width="1.8"/><line x1="679.3" y1="553.6" x2="734.3" y2="554.0" stroke="#2060ff" stroke-opacity=".62" stroke-width="1.8"/><line x1="265.9" y1="585.5" x2="318.4" y2="586.6" stroke="#2060ff" stroke-opacity=".62" stroke-width="1.8"/><line x1="680.2" y1="585.8" x2="732.5" y2="585.9" stroke="#2060ff" stroke-opacity=".62" stroke-width="1.8"/><g filter="url(#glowr1x8356)"><polygon points="499.2,451.9 514.1,491.2 556.0,492.7 523.8,519.8 534.1,559.2 499.3,536.5 465.6,558.0 477.2,516.9 446.6,492.5 486.5,489.1 " fill="#2060ff" stroke="#0e001e" stroke-width="1.4" filter="url(#skr1x8356)"/><polygon points="499.2,451.9 514.1,491.2 556.0,492.7 523.8,519.8 534.1,559.2 499.3,536.5 465.6,558.0 477.2,516.9 446.6,492.5 486.5,489.1 " fill="url(#suitHir1x8356)" opacity=".45"/></g><g><line x1="898.0357706239075" y1="792.6480569282546" x2="913.8182768352889" y2="109.76074240412561" stroke="url(#chromer1x8356)" stroke-width="28.0" stroke-linecap="round" filter="url(#wmr1x8356)"/><line x1="902.0251934350096" y1="772.3517254436389" x2="911.9872113218158" y2="131.87394872009753" stroke="rgba(255,255,255,.42)" stroke-width="5.0" stroke-linecap="round"/><polygon points="868.2,152.2 935.1,149.7 914.7,-7.8" fill="url(#blader1x8356)" stroke="#2060ff" stroke-width="1.8" filter="url(#wmr1x8356)"/><line x1="935.8" y1="151.4" x2="915.8" y2="-8.6" stroke="rgba(255,255,255,.72)" stroke-width="1.6"/><rect x="879.9109138905629" y="420.3540570126846" width="40.0" height="20.0" fill="url(#bevelr1x8356)" stroke="#2060ff" stroke-width="1" filter="url(#wmr1x8356)"/><rect x="879.318107145708" y="512.6477297239005" width="40.0" height="20.0" fill="url(#bevelr1x8356)" stroke="#2060ff" stroke-width="1" filter="url(#wmr1x8356)"/><rect x="878.6029256555811" y="602.4180056354962" width="40.0" height="20.0" fill="url(#bevelr1x8356)" stroke="#2060ff" stroke-width="1" filter="url(#wmr1x8356)"/><rect x="879.4565690522642" y="692.8821503192186" width="40.0" height="20.0" fill="url(#bevelr1x8356)" stroke="#2060ff" stroke-width="1" filter="url(#wmr1x8356)"/><ellipse cx="898.1557105922699" cy="791.1025802434422" rx="22.0" ry="15.0" fill="url(#bevelr1x8356)" stroke="#2060ff" stroke-width="1" filter="url(#wmr1x8356)"/></g><rect x="450.1179468976334" y="556.0072107342072" width="100.0"  height="56.0" fill="#003ccc" stroke="#2060ff" stroke-width="2.2" filter="url(#skr1x8356)"/><rect x="422.7864497820847" y="575.6914036425762" width="152.0" height="26.0" fill="url(#bevelr1x8356)" fill-opacity=".65" stroke="#2060ff" stroke-width="1.2" filter="url(#skr1x8356)"/><polygon points="306.9,379.7 350.3,295.3 500.0,277.7 651.2,295.4 691.5,380.1 667.6,505.0 498.5,565.2 331.7,503.3" fill="url(#suitr1x8356)" stroke="#2060ff" stroke-width="2.8" filter="url(#skr1x8356) url(#metalr1x8356)"/><polygon points="306.4,380.1 349.9,294.6 498.9,278.1 650.7,294.8 693.1,379.1 667.9,505.1 501.1,566.7 332.6,504.6" fill="url(#carbonr1x8356)"/><polygon points="382.0,302.9 500.2,285.8 620.7,303.4 605.9,381.0 393.4,381.4" fill="url(#suitHir1x8356)"/><polygon points="381.6,380.0 365.1,425.2 433.2,505.0 499.6,529.9 568.5,503.8 633.4,424.9 617.4,379.9" fill="#0e001e" fill-opacity=".88" stroke="#2060ff" stroke-width="1.8" filter="url(#skr1x8356)"/><polygon points="381.5,410.3 475.9,411.4 484.0,441.5 387.3,441.7" fill="#2060ff" filter="url(#glowr1x8356)"/><polygon points="524.7,412.6 618.5,412.4 610.6,439.9 516.2,440.5" fill="#2060ff" filter="url(#glowr1x8356)"/><ellipse cx="430.9" cy="425.7" rx="38.4"  ry="8.2" fill="#ffffff" opacity=".88"/><ellipse cx="569.1" cy="425.7" rx="38.4"  ry="8.2" fill="#ffffff" opacity=".88"/><line x1="484.6399291268177" y1="413.4043883495964" x2="517.0627902049013" y2="413.27315990980713" stroke="#2060ff" stroke-opacity=".52" stroke-width="2"/><line x1="483.7218124352023" y1="439.5176607884467" x2="516.2135571485758" y2="437.4580822150223" stroke="#2060ff" stroke-opacity=".52" stroke-width="2"/><line x1="499.5769101814367" y1="455.8997108128853" x2="500.1269669301808" y2="481.9936693339609" stroke="#2060ff" stroke-opacity=".58" stroke-width="2.2" filter="url(#skr1x8356)"/><line x1="452.41685639962554" y1="490.760067629721" x2="453.51595665242525" y2="521.5538570012898" stroke="#2060ff" stroke-opacity=".52" stroke-width="1.5" filter="url(#skr1x8356)"/><line x1="477.5666101912409" y1="491.95900707645336" x2="476.96673122145233" y2="521.7016615849919" stroke="#2060ff" stroke-opacity=".52" stroke-width="1.5" filter="url(#skr1x8356)"/><line x1="501.2317456365563" y1="490.2910614849068" x2="499.94438096452507" y2="519.56393132573" stroke="#2060ff" stroke-opacity=".52" stroke-width="1.5" filter="url(#skr1x8356)"/><line x1="523.9174347859434" y1="489.6951789705082" x2="524.5801640862226" y2="520.7333414625376" stroke="#2060ff" stroke-opacity=".52" stroke-width="1.5" filter="url(#skr1x8356)"/><line x1="546.8823632877506" y1="489.5756029770709" x2="546.4895867938362" y2="518.2498068938963" stroke="#2060ff" stroke-opacity=".52" stroke-width="1.5" filter="url(#skr1x8356)"/><polygon points="434.5,504.1 566.1,504.5 554.5,558.0 446.6,557.2" fill="#003ccc" fill-opacity=".72" stroke="#2060ff" stroke-width="1.3" filter="url(#skr1x8356)"/><text x="30.0"  y="975.0" font-family="monospace" font-weight="bold" font-size="22.0" fill="rgba(255,255,255,.22)">#0001</text><text x="500.0"   y="975.0" text-anchor="middle" font-family="monospace" font-weight="bold" font-size="22.0" fill="#2060ff" fill-opacity=".48">COBALT RANGER</text><text x="970.0" y="975.0" text-anchor="end"    font-family="monospace" font-weight="bold" font-size="22.0" fill="#2060ff" fill-opacity=".32">MECH RANGERS</text></svg>