<svg xmlns="http://www.w3.org/2000/svg" viewBox="0 0 1000 1000" width="1000" height="1000" shape-rendering="geometricPrecision"><defs>

  <!-- Scene gradients -->
  <radialGradient id="bgr1x8403" cx="50%" cy="42%" r="72%">
    <stop offset="0%"   stop-color="#1a2814"/>
    <stop offset="100%" stop-color="#0d1520"/>
  </radialGradient>
  <linearGradient id="suitr1x8403" x1="8%" y1="0%" x2="92%" y2="100%">
    <stop offset="0%"   stop-color="#ccccff" stop-opacity=".95"/>
    <stop offset="45%"  stop-color="#242438"/>
    <stop offset="100%" stop-color="#0d1520"/>
  </linearGradient>
  <linearGradient id="suitHir1x8403" x1="0%" y1="0%" x2="0%" y2="100%">
    <stop offset="0%"   stop-color="rgba(255,255,255,.28)"/>
    <stop offset="60%"  stop-color="rgba(255,255,255,.04)"/>
    <stop offset="100%" stop-color="rgba(255,255,255,0)"/>
  </linearGradient>
  <!-- Bevel: bright top, dark bottom for armour panels -->
  <linearGradient id="bevelr1x8403" x1="0%" y1="0%" x2="0%" y2="100%">
    <stop offset="0%"   stop-color="rgba(255,255,255,.55)"/>
    <stop offset="30%"  stop-color="#ccccff"/>
    <stop offset="70%"  stop-color="#242438"/>
    <stop offset="100%" stop-color="rgba(0,0,0,.5)"/>
  </linearGradient>

  <!-- Weapon: cold steel blade sweep -->
  <linearGradient id="blader1x8403" x1="0%" y1="0%" x2="100%" y2="0%">
    <stop offset="0%"   stop-color="#0e0e20"/>
    <stop offset="16%"  stop-color="#3e3e58"/>
    <stop offset="34%"  stop-color="#c8c8e0"/>
    <stop offset="50%"  stop-color="#f5f5ff"/>
    <stop offset="66%"  stop-color="#b8b8d0"/>
    <stop offset="84%"  stop-color="#2e2e48"/>
    <stop offset="100%" stop-color="#08080e"/>
  </linearGradient>
  <!-- Blade tip brightening -->
  <linearGradient id="bladeTipr1x8403" x1="0%" y1="100%" x2="0%" y2="0%">
    <stop offset="0%"   stop-color="rgba(255,255,255,0)"/>
    <stop offset="55%"  stop-color="rgba(255,255,255,.1)"/>
    <stop offset="100%" stop-color="rgba(255,255,255,.55)"/>
  </linearGradient>
  <!-- Gunmetal anodised — blaster body -->
  <linearGradient id="gunmetalr1x8403" x1="0%" y1="0%" x2="0%" y2="100%">
    <stop offset="0%"   stop-color="#46465e"/>
    <stop offset="18%"  stop-color="#828296"/>
    <stop offset="42%"  stop-color="#26263a"/>
    <stop offset="72%"  stop-color="#16162a"/>
    <stop offset="100%" stop-color="#0c0c18"/>
  </linearGradient>
  <!-- Brushed steel tube — barrel/rod -->
  <linearGradient id="barrelr1x8403" x1="0%" y1="0%" x2="100%" y2="0%">
    <stop offset="0%"   stop-color="#0a0a14"/>
    <stop offset="24%"  stop-color="#585875"/>
    <stop offset="50%"  stop-color="#a8a8c8"/>
    <stop offset="76%"  stop-color="#383852"/>
    <stop offset="100%" stop-color="#0a0a14"/>
  </linearGradient>
  <!-- Chrome rod — lance shaft -->
  <linearGradient id="chromer1x8403" x1="0%" y1="0%" x2="100%" y2="0%">
    <stop offset="0%"   stop-color="#0c0c18"/>
    <stop offset="20%"  stop-color="#686888"/>
    <stop offset="44%"  stop-color="#e0e0f0"/>
    <stop offset="56%"  stop-color="#c0c0d8"/>
    <stop offset="80%"  stop-color="#28283e"/>
    <stop offset="100%" stop-color="#0c0c18"/>
  </linearGradient>
  <!-- Titanium plate — shield face -->
  <linearGradient id="titaniumr1x8403" x1="0%" y1="0%" x2="100%" y2="100%">
    <stop offset="0%"   stop-color="#585878"/>
    <stop offset="28%"  stop-color="#ccccff" stop-opacity=".88"/>
    <stop offset="55%"  stop-color="#242438"/>
    <stop offset="80%"  stop-color="#181828"/>
    <stop offset="100%" stop-color="#0a0a18"/>
  </linearGradient>
  <!-- Artillery black-chrome — cannon body -->
  <linearGradient id="artilleryr1x8403" x1="0%" y1="0%" x2="0%" y2="100%">
    <stop offset="0%"   stop-color="#383850"/>
    <stop offset="14%"  stop-color="#78789a"/>
    <stop offset="36%"  stop-color="#202034"/>
    <stop offset="65%"  stop-color="#14141e"/>
    <stop offset="100%" stop-color="#0a0a12"/>
  </linearGradient>
  <!-- Energy orb — staff -->
  <radialGradient id="orbr1x8403" cx="35%" cy="35%" r="65%">
    <stop offset="0%"   stop-color="rgba(255,255,255,.9)"/>
    <stop offset="30%"  stop-color="#ccccff"/>
    <stop offset="68%"  stop-color="#242438"/>
    <stop offset="100%" stop-color="rgba(0,0,0,.6)"/>
  </radialGradient>
  <!-- Knuckle plate chrome -->
  <linearGradient id="knuckler1x8403" x1="0%" y1="0%" x2="0%" y2="100%">
    <stop offset="0%"   stop-color="#888aaa"/>
    <stop offset="32%"  stop-color="#ccccff" stop-opacity=".8"/>
    <stop offset="62%"  stop-color="#1a1a2c"/>
    <stop offset="100%" stop-color="#0a0a14"/>
  </linearGradient>

  <!-- Carbon fibre weave texture overlay -->
  <pattern id="carbonr1x8403" width="6" height="6" patternUnits="userSpaceOnUse">
    <rect width="6" height="6" fill="rgba(0,0,0,.08)"/>
    <rect x="0" y="0" width="3" height="3" fill="rgba(255,255,255,.022)"/>
    <rect x="3" y="3" width="3" height="3" fill="rgba(255,255,255,.022)"/>
    <line x1="0" y1="0" x2="3" y2="3" stroke="rgba(255,255,255,.038)" stroke-width=".5"/>
    <line x1="3" y1="0" x2="6" y2="3" stroke="rgba(0,0,0,.055)"       stroke-width=".5"/>
    <line x1="0" y1="3" x2="3" y2="6" stroke="rgba(0,0,0,.055)"       stroke-width=".5"/>
    <line x1="3" y1="3" x2="6" y2="6" stroke="rgba(255,255,255,.038)" stroke-width=".5"/>
  </pattern>

  <!-- Specular metal sheen on armour panels -->
  <filter id="metalr1x8403" x="-5%" y="-5%" width="110%" height="110%">
    <feSpecularLighting surfaceScale="4" specularConstant="1.8"
        specularExponent="42" lighting-color="#ffffff" result="spec">
      <feDistantLight elevation="52" azimuth="38"/>
    </feSpecularLighting>
    <feComposite in="spec" in2="SourceGraphic" operator="in" result="sm"/>
    <feComposite in="SourceGraphic" in2="sm" operator="arithmetic" k1="0" k2="1" k3="0.55" k4="0"/>
  </filter>

  <!-- Sharper specular for weapons — heavier glare -->
  <filter id="wmr1x8403" x="-8%" y="-8%" width="116%" height="116%">
    <feSpecularLighting surfaceScale="6" specularConstant="2.4"
        specularExponent="65" lighting-color="#ffffff" result="spec">
      <feDistantLight elevation="44" azimuth="28"/>
    </feSpecularLighting>
    <feComposite in="spec" in2="SourceGraphic" operator="in" result="sm"/>
    <feComposite in="SourceGraphic" in2="sm" operator="arithmetic" k1="0" k2="1" k3="0.78" k4="0"/>
  </filter>

  <!-- Sketch wobble -->
  <filter id="skr1x8403" x="-8%" y="-8%" width="116%" height="116%">
    <feTurbulence type="fractalNoise" baseFrequency="0.038"
        numOctaves="3" seed="36" result="noise"/>
    <feDisplacementMap in="SourceGraphic" in2="noise" scale="2.6"
        xChannelSelector="R" yChannelSelector="G" result="w"/>
    <feComposite in="w" in2="SourceGraphic" operator="atop"/>
  </filter>

  <!-- Glow: sharp accent -->
  <filter id="glowr1x8403" x="-20%" y="-20%" width="140%" height="140%">
    <feGaussianBlur stdDeviation="3.5" result="b"/>
    <feColorMatrix in="b" type="matrix"
        values="0 0 0 0 1  0 0 0 0 1  0 0 0 0 1  0 0 0 1.8 0" result="boost"/>
    <feMerge><feMergeNode in="boost"/><feMergeNode in="SourceGraphic"/></feMerge>
  </filter>

  <!-- Bloom: wide soft -->
  <filter id="bloomr1x8403" x="-40%" y="-40%" width="180%" height="180%">
    <feGaussianBlur stdDeviation="11" result="b"/>
    <feMerge><feMergeNode in="b"/><feMergeNode in="SourceGraphic"/></feMerge>
  </filter>

  </defs><rect width="1000" height="1000" fill="url(#bgr1x8403)"/><ellipse cx="500.0" cy="892.0" rx="350.0" ry="65.0" fill="rgba(0,0,0,.7)" filter="url(#bloomr1x8403)"/><ellipse cx="500.0" cy="889.0" rx="220.0" ry="34.0" fill="rgba(0,0,0,.45)"/><polygon points="399.5,663.4 488.9,664.0 480.1,876.8 388.5,878.5" fill="url(#suitr1x8403)" stroke="#ccccff" stroke-width="2.2" filter="url(#skr1x8403) url(#metalr1x8403)"/><polygon points="399.7,663.0 488.7,663.2 481.5,877.0 387.3,876.2" fill="url(#carbonr1x8403)"/><polygon points="392.4,725.2 491.5,723.3 485.2,789.6 385.1,786.9" fill="url(#bevelr1x8403)" fill-opacity=".5" stroke="#ccccff" stroke-width="1.4" filter="url(#skr1x8403)"/><polygon points="511.0,663.5 602.3,662.7 612.4,878.2 520.3,877.8" fill="url(#suitr1x8403)" stroke="#ccccff" stroke-width="2.2" filter="url(#skr1x8403) url(#metalr1x8403)"/><polygon points="509.7,662.2 601.6,662.8 612.4,876.6 519.5,877.3" fill="url(#carbonr1x8403)"/><polygon points="506.8,724.4 605.9,722.5 615.7,788.9 516.7,789.6" fill="url(#bevelr1x8403)" fill-opacity=".5" stroke="#ccccff" stroke-width="1.4" filter="url(#skr1x8403)"/><rect x="391.5" y="839.9" width="100.3" height="24.7" fill="url(#bevelr1x8403)" stroke="#ccccff" stroke-width="1" filter="url(#skr1x8403)"/><rect x="507.7"  y="837.3" width="100.3" height="24.7" fill="url(#bevelr1x8403)" stroke="#ccccff" stroke-width="1" filter="url(#skr1x8403)"/><polygon points="368.5,876.7 496.2,876.0 503.2,919.7 363.2,922.1" fill="#242438" stroke="#ccccff" stroke-width="2" filter="url(#skr1x8403)"/><polygon points="505.0,879.2 631.8,879.2 639.1,920.6 496.5,921.7" fill="#242438" stroke="#ccccff" stroke-width="2" filter="url(#skr1x8403)"/><polygon points="304.0,633.8 695.0,632.9 636.4,683.8 362.7,682.3" fill="#ccccff" fill-opacity=".52" stroke="#ccccff" stroke-width="2" filter="url(#skr1x8403)"/><rect x="465.2" y="636.8" width="72.0" height="42.0" fill="url(#bevelr1x8403)" stroke="#ccccff" stroke-width="1.4" filter="url(#glowr1x8403)"/><rect x="486.7" y="641.4" width="28.0" height="22.0" rx="1" fill="rgba(255,255,255,.48)"/><polygon points="152.3,467.2 235.8,464.7 259.7,736.1 127.9,733.8" fill="url(#suitr1x8403)" stroke="#ccccff" stroke-width="2.2" filter="url(#skr1x8403) url(#metalr1x8403)"/><polygon points="174.0,430.7 253.0,433.9 243.1,511.5 159.5,510.1" fill="url(#bevelr1x8403)" fill-opacity=".72" stroke="#ccccff" stroke-width="2.2" filter="url(#skr1x8403)"/><polygon points="162.9,620.3 242.9,622.9 240.4,662.0 166.1,660.6" fill="#ccccff" fill-opacity=".42" stroke="#ccccff" stroke-width="1" filter="url(#skr1x8403)"/><polygon points="763.3,465.4 847.9,467.0 872.2,734.9 742.4,736.6" fill="url(#suitr1x8403)" stroke="#ccccff" stroke-width="2.2" filter="url(#skr1x8403) url(#metalr1x8403)"/><polygon points="746.3,430.7 826.8,431.7 841.5,511.8 757.0,512.1" fill="url(#bevelr1x8403)" fill-opacity=".72" stroke="#ccccff" stroke-width="2.2" filter="url(#skr1x8403)"/><polygon points="755.6,621.2 838.5,623.6 833.2,662.4 760.1,662.3" fill="#ccccff" fill-opacity=".42" stroke="#ccccff" stroke-width="1" filter="url(#skr1x8403)"/><rect x="118.7"  y="698.7" width="135.3" height="85.0" rx="4" fill="url(#bevelr1x8403)" stroke="#ccccff" stroke-width="1.8" filter="url(#skr1x8403)"/><rect x="749.4"   y="698.7" width="135.3" height="85.0" rx="4" fill="url(#bevelr1x8403)" stroke="#ccccff" stroke-width="1.8" filter="url(#skr1x8403)"/><line x1="150.2" y1="701.5" x2="151.3" y2="783.7" stroke="#ccccff" stroke-opacity=".38" stroke-width="1"/><line x1="776.6" y1="703.2" x2="778.5" y2="783.5" stroke="#ccccff" stroke-opacity=".38" stroke-width="1"/><line x1="180.8" y1="700.5" x2="181.6" y2="782.5" stroke="#ccccff" stroke-opacity=".38" stroke-width="1"/><line x1="809.1" y1="702.8" x2="811.4" y2="783.5" stroke="#ccccff" stroke-opacity=".38" stroke-width="1"/><line x1="214.5" y1="700.7" x2="216.7" y2="783.4" stroke="#ccccff" stroke-opacity=".38" stroke-width="1"/><line x1="844.5" y1="701.1" x2="845.2" y2="782.9" stroke="#ccccff" stroke-opacity=".38" stroke-width="1"/><polygon points="234.5,416.3 764.9,416.9 722.0,662.5 277.8,663.3" fill="url(#suitr1x8403)" stroke="#ccccff" stroke-width="2.6" filter="url(#skr1x8403) url(#metalr1x8403)"/><polygon points="234.9,417.0 765.2,417.9 722.3,661.9 275.6,662.3" fill="url(#carbonr1x8403)"/><polygon points="367.2,416.3 631.7,418.8 611.0,514.8 390.0,515.0" fill="url(#suitHir1x8403)"/><line x1="361.6" y1="472.4" x2="636.8" y2="471.0" stroke="#ccccff" stroke-opacity=".52" stroke-width="1.3" filter="url(#skr1x8403)"/><line x1="400.6" y1="550.0" x2="602.1" y2="550.5" stroke="#ccccff" stroke-opacity=".52" stroke-width="1.3" filter="url(#skr1x8403)"/><line x1="267.6" y1="490.6" x2="319.7" y2="489.2" stroke="#ccccff" stroke-opacity=".62" stroke-width="1.8"/><line x1="679.9" y1="489.6" x2="734.3" y2="489.5" stroke="#ccccff" stroke-opacity=".62" stroke-width="1.8"/><line x1="266.9" y1="523.6" x2="320.9" y2="522.3" stroke="#ccccff" stroke-opacity=".62" stroke-width="1.8"/><line x1="678.4" y1="521.3" x2="732.8" y2="522.6" stroke="#ccccff" stroke-opacity=".62" stroke-width="1.8"/><line x1="265.5" y1="553.9" x2="318.8" y2="553.0" stroke="#ccccff" stroke-opacity=".62" stroke-width="1.8"/><line x1="679.9" y1="553.0" x2="733.9" y2="555.4" stroke="#ccccff" stroke-opacity=".62" stroke-width="1.8"/><line x1="265.4" y1="585.3" x2="320.8" y2="588.1" stroke="#ccccff" stroke-opacity=".62" stroke-width="1.8"/><line x1="678.6" y1="587.2" x2="733.6" y2="586.3" stroke="#ccccff" stroke-opacity=".62" stroke-width="1.8"/><g filter="url(#glowr1x8403)"><polygon points="484.0,451.8 513.8,507.6 498.6,504.6 518.5,567.8 485.8,515.5 500.5,516.7" fill="#ccccff" stroke="#0d1520" stroke-width="1.4" filter="url(#skr1x8403)"/><polygon points="483.5,451.2 512.8,504.7 500.8,504.5 515.7,567.8 489.0,516.7 500.9,515.3" fill="url(#suitHir1x8403)" opacity=".4"/></g><g><polygon points="866.4,691.6 900.3,691.7 835.2,272.6" fill="url(#blader1x8403)" stroke="#ccccff" stroke-width="1.8" filter="url(#wmr1x8403)"/><line x1="892.8" y1="691.4" x2="841.8" y2="271.4" stroke="rgba(255,255,255,.58)" stroke-width="1.3"/><polygon points="911.8,692.1 943.6,689.8 986.7,271.8" fill="url(#blader1x8403)" stroke="#ccccff" stroke-width="1.8" filter="url(#wmr1x8403)"/><line x1="941.8" y1="691.4" x2="979.8" y2="271.4" stroke="rgba(255,255,255,.58)" stroke-width="1.3"/><rect x="863.1742352982611" y="680.3899959706702" width="96.0" height="26.0" rx="2" fill="url(#bevelr1x8403)" stroke="#ccccff" stroke-width="1.4" filter="url(#wmr1x8403)"/></g><rect x="449.37795319464055" y="557.7419164377264" width="100.0"  height="56.0" fill="#242438" stroke="#ccccff" stroke-width="2.2" filter="url(#skr1x8403)"/><rect x="423.665608273726" y="574.1680262578651" width="152.0" height="26.0" fill="url(#bevelr1x8403)" fill-opacity=".65" stroke="#ccccff" stroke-width="1.2" filter="url(#skr1x8403)"/><polygon points="307.2,382.3 349.6,295.2 500.0,277.8 651.3,293.2 691.6,382.4 669.6,505.1 500.5,566.3 329.3,504.7" fill="url(#suitr1x8403)" stroke="#ccccff" stroke-width="2.8" filter="url(#skr1x8403) url(#metalr1x8403)"/><polygon points="307.6,379.2 350.9,293.2 501.1,279.2 650.3,294.2 692.4,379.6 668.6,504.4 498.5,564.3 331.3,503.8" fill="url(#carbonr1x8403)"/><polygon points="381.4,302.1 500.1,286.2 618.6,303.1 607.1,381.5 392.2,380.0" fill="url(#suitHir1x8403)"/><polygon points="379.3,379.5 364.4,425.6 431.4,505.4 498.5,528.0 568.0,502.6 634.8,426.3 617.4,381.8" fill="#0d1520" fill-opacity=".88" stroke="#ccccff" stroke-width="1.8" filter="url(#skr1x8403)"/><polygon points="381.1,410.0 478.1,411.1 484.4,441.0 389.3,438.3" fill="#ccccff" filter="url(#glowr1x8403)"/><polygon points="522.4,409.7 620.7,409.9 610.8,440.9 515.1,441.0" fill="#ccccff" filter="url(#glowr1x8403)"/><ellipse cx="430.9" cy="425.7" rx="38.4"  ry="8.2" fill="#ffffff" opacity=".88"/><ellipse cx="569.1" cy="425.7" rx="38.4"  ry="8.2" fill="#ffffff" opacity=".88"/><line x1="483.79684958267956" y1="412.29029728425667" x2="514.326698423028" y2="411.74927007481455" stroke="#ccccff" stroke-opacity=".52" stroke-width="2"/><line x1="484.5105683083273" y1="438.97407984109594" x2="515.9667616304383" y2="437.98947916086763" stroke="#ccccff" stroke-opacity=".52" stroke-width="2"/><line x1="499.9610356594436" y1="453.44034092407674" x2="500.8977200469002" y2="482.8795220493339" stroke="#ccccff" stroke-opacity=".58" stroke-width="2.2" filter="url(#skr1x8403)"/><line x1="453.82591712836177" y1="491.7539601047523" x2="455.5806182298623" y2="519.6558691308834" stroke="#ccccff" stroke-opacity=".52" stroke-width="1.5" filter="url(#skr1x8403)"/><line x1="476.42477188654243" y1="491.4149570501409" x2="478.53961242301386" y2="519.4520203103311" stroke="#ccccff" stroke-opacity=".52" stroke-width="1.5" filter="url(#skr1x8403)"/><line x1="498.71340966159477" y1="491.85922721466045" x2="499.9561240343377" y2="520.9572123598307" stroke="#ccccff" stroke-opacity=".52" stroke-width="1.5" filter="url(#skr1x8403)"/><line x1="522.660981102623" y1="492.8520320447161" x2="521.6846501773782" y2="519.3229459190741" stroke="#ccccff" stroke-opacity=".52" stroke-width="1.5" filter="url(#skr1x8403)"/><line x1="546.2316918907874" y1="489.96056948602194" x2="546.310468559824" y2="521.2498621823266" stroke="#ccccff" stroke-opacity=".52" stroke-width="1.5" filter="url(#skr1x8403)"/><polygon points="433.8,502.0 567.2,502.8 554.2,555.1 448.0,556.7" fill="#242438" fill-opacity=".72" stroke="#ccccff" stroke-width="1.3" filter="url(#skr1x8403)"/><path d="M388.88334991890935 326.5455112807453 Q332.1907587141357 217.61208248818292 381.59610002407805 139.21331107346342" stroke="#ccccff" stroke-width="5" fill="none" stroke-linecap="round" filter="url(#skr1x8403)"/><path d="M389.7989595279656 325.5359004884027 Q332.20938670268276 216.8684510107152 379.39117383997893 140.78168886788188" stroke="rgba(255,255,255,.25)" stroke-width="1.5" fill="none" stroke-linecap="round"/><path d="M610.756208754275 328.1771872457117 Q669.7418395742216 216.71376356603577 618.7087073055654 139.944985361211" stroke="#ccccff" stroke-width="5" fill="none" stroke-linecap="round" filter="url(#skr1x8403)"/><path d="M610.0855890781992 328.0064148575999 Q667.249414087031 215.99821237782015 618.1861166051216 141.6601675243117" stroke="rgba(255,255,255,.25)" stroke-width="1.5" fill="none" stroke-linecap="round"/><text x="30.0"  y="975.0" font-family="monospace" font-weight="bold" font-size="22.0" fill="rgba(255,255,255,.22)">#0001</text><text x="500.0"   y="975.0" text-anchor="middle" font-family="monospace" font-weight="bold" font-size="22.0" fill="#ccccff" fill-opacity=".48">PHANTOM RANGER</text><text x="970.0" y="975.0" text-anchor="end"    font-family="monospace" font-weight="bold" font-size="22.0" fill="#ccccff" fill-opacity=".32">MECH RANGERS</text></svg>