<svg xmlns="http://www.w3.org/2000/svg" viewBox="0 0 1000 1000" width="1000" height="1000" shape-rendering="geometricPrecision"><defs>

  <!-- Scene gradients -->
  <radialGradient id="bgr1x8410" cx="50%" cy="42%" r="72%">
    <stop offset="0%"   stop-color="#0a1420"/>
    <stop offset="100%" stop-color="#050d14"/>
  </radialGradient>
  <linearGradient id="suitr1x8410" x1="8%" y1="0%" x2="92%" y2="100%">
    <stop offset="0%"   stop-color="#ccccff" stop-opacity=".95"/>
    <stop offset="45%"  stop-color="#242438"/>
    <stop offset="100%" stop-color="#050d14"/>
  </linearGradient>
  <linearGradient id="suitHir1x8410" x1="0%" y1="0%" x2="0%" y2="100%">
    <stop offset="0%"   stop-color="rgba(255,255,255,.28)"/>
    <stop offset="60%"  stop-color="rgba(255,255,255,.04)"/>
    <stop offset="100%" stop-color="rgba(255,255,255,0)"/>
  </linearGradient>
  <!-- Bevel: bright top, dark bottom for armour panels -->
  <linearGradient id="bevelr1x8410" x1="0%" y1="0%" x2="0%" y2="100%">
    <stop offset="0%"   stop-color="rgba(255,255,255,.55)"/>
    <stop offset="30%"  stop-color="#ccccff"/>
    <stop offset="70%"  stop-color="#242438"/>
    <stop offset="100%" stop-color="rgba(0,0,0,.5)"/>
  </linearGradient>

  <!-- Weapon: cold steel blade sweep -->
  <linearGradient id="blader1x8410" x1="0%" y1="0%" x2="100%" y2="0%">
    <stop offset="0%"   stop-color="#0e0e20"/>
    <stop offset="16%"  stop-color="#3e3e58"/>
    <stop offset="34%"  stop-color="#c8c8e0"/>
    <stop offset="50%"  stop-color="#f5f5ff"/>
    <stop offset="66%"  stop-color="#b8b8d0"/>
    <stop offset="84%"  stop-color="#2e2e48"/>
    <stop offset="100%" stop-color="#08080e"/>
  </linearGradient>
  <!-- Blade tip brightening -->
  <linearGradient id="bladeTipr1x8410" x1="0%" y1="100%" x2="0%" y2="0%">
    <stop offset="0%"   stop-color="rgba(255,255,255,0)"/>
    <stop offset="55%"  stop-color="rgba(255,255,255,.1)"/>
    <stop offset="100%" stop-color="rgba(255,255,255,.55)"/>
  </linearGradient>
  <!-- Gunmetal anodised — blaster body -->
  <linearGradient id="gunmetalr1x8410" x1="0%" y1="0%" x2="0%" y2="100%">
    <stop offset="0%"   stop-color="#46465e"/>
    <stop offset="18%"  stop-color="#828296"/>
    <stop offset="42%"  stop-color="#26263a"/>
    <stop offset="72%"  stop-color="#16162a"/>
    <stop offset="100%" stop-color="#0c0c18"/>
  </linearGradient>
  <!-- Brushed steel tube — barrel/rod -->
  <linearGradient id="barrelr1x8410" x1="0%" y1="0%" x2="100%" y2="0%">
    <stop offset="0%"   stop-color="#0a0a14"/>
    <stop offset="24%"  stop-color="#585875"/>
    <stop offset="50%"  stop-color="#a8a8c8"/>
    <stop offset="76%"  stop-color="#383852"/>
    <stop offset="100%" stop-color="#0a0a14"/>
  </linearGradient>
  <!-- Chrome rod — lance shaft -->
  <linearGradient id="chromer1x8410" x1="0%" y1="0%" x2="100%" y2="0%">
    <stop offset="0%"   stop-color="#0c0c18"/>
    <stop offset="20%"  stop-color="#686888"/>
    <stop offset="44%"  stop-color="#e0e0f0"/>
    <stop offset="56%"  stop-color="#c0c0d8"/>
    <stop offset="80%"  stop-color="#28283e"/>
    <stop offset="100%" stop-color="#0c0c18"/>
  </linearGradient>
  <!-- Titanium plate — shield face -->
  <linearGradient id="titaniumr1x8410" x1="0%" y1="0%" x2="100%" y2="100%">
    <stop offset="0%"   stop-color="#585878"/>
    <stop offset="28%"  stop-color="#ccccff" stop-opacity=".88"/>
    <stop offset="55%"  stop-color="#242438"/>
    <stop offset="80%"  stop-color="#181828"/>
    <stop offset="100%" stop-color="#0a0a18"/>
  </linearGradient>
  <!-- Artillery black-chrome — cannon body -->
  <linearGradient id="artilleryr1x8410" x1="0%" y1="0%" x2="0%" y2="100%">
    <stop offset="0%"   stop-color="#383850"/>
    <stop offset="14%"  stop-color="#78789a"/>
    <stop offset="36%"  stop-color="#202034"/>
    <stop offset="65%"  stop-color="#14141e"/>
    <stop offset="100%" stop-color="#0a0a12"/>
  </linearGradient>
  <!-- Energy orb — staff -->
  <radialGradient id="orbr1x8410" cx="35%" cy="35%" r="65%">
    <stop offset="0%"   stop-color="rgba(255,255,255,.9)"/>
    <stop offset="30%"  stop-color="#ccccff"/>
    <stop offset="68%"  stop-color="#242438"/>
    <stop offset="100%" stop-color="rgba(0,0,0,.6)"/>
  </radialGradient>
  <!-- Knuckle plate chrome -->
  <linearGradient id="knuckler1x8410" x1="0%" y1="0%" x2="0%" y2="100%">
    <stop offset="0%"   stop-color="#888aaa"/>
    <stop offset="32%"  stop-color="#ccccff" stop-opacity=".8"/>
    <stop offset="62%"  stop-color="#1a1a2c"/>
    <stop offset="100%" stop-color="#0a0a14"/>
  </linearGradient>

  <!-- Carbon fibre weave texture overlay -->
  <pattern id="carbonr1x8410" width="6" height="6" patternUnits="userSpaceOnUse">
    <rect width="6" height="6" fill="rgba(0,0,0,.08)"/>
    <rect x="0" y="0" width="3" height="3" fill="rgba(255,255,255,.022)"/>
    <rect x="3" y="3" width="3" height="3" fill="rgba(255,255,255,.022)"/>
    <line x1="0" y1="0" x2="3" y2="3" stroke="rgba(255,255,255,.038)" stroke-width=".5"/>
    <line x1="3" y1="0" x2="6" y2="3" stroke="rgba(0,0,0,.055)"       stroke-width=".5"/>
    <line x1="0" y1="3" x2="3" y2="6" stroke="rgba(0,0,0,.055)"       stroke-width=".5"/>
    <line x1="3" y1="3" x2="6" y2="6" stroke="rgba(255,255,255,.038)" stroke-width=".5"/>
  </pattern>

  <!-- Specular metal sheen on armour panels -->
  <filter id="metalr1x8410" x="-5%" y="-5%" width="110%" height="110%">
    <feSpecularLighting surfaceScale="4" specularConstant="1.8"
        specularExponent="42" lighting-color="#ffffff" result="spec">
      <feDistantLight elevation="52" azimuth="38"/>
    </feSpecularLighting>
    <feComposite in="spec" in2="SourceGraphic" operator="in" result="sm"/>
    <feComposite in="SourceGraphic" in2="sm" operator="arithmetic" k1="0" k2="1" k3="0.55" k4="0"/>
  </filter>

  <!-- Sharper specular for weapons — heavier glare -->
  <filter id="wmr1x8410" x="-8%" y="-8%" width="116%" height="116%">
    <feSpecularLighting surfaceScale="6" specularConstant="2.4"
        specularExponent="65" lighting-color="#ffffff" result="spec">
      <feDistantLight elevation="44" azimuth="28"/>
    </feSpecularLighting>
    <feComposite in="spec" in2="SourceGraphic" operator="in" result="sm"/>
    <feComposite in="SourceGraphic" in2="sm" operator="arithmetic" k1="0" k2="1" k3="0.78" k4="0"/>
  </filter>

  <!-- Sketch wobble -->
  <filter id="skr1x8410" x="-8%" y="-8%" width="116%" height="116%">
    <feTurbulence type="fractalNoise" baseFrequency="0.038"
        numOctaves="3" seed="45" result="noise"/>
    <feDisplacementMap in="SourceGraphic" in2="noise" scale="2.6"
        xChannelSelector="R" yChannelSelector="G" result="w"/>
    <feComposite in="w" in2="SourceGraphic" operator="atop"/>
  </filter>

  <!-- Glow: sharp accent -->
  <filter id="glowr1x8410" x="-20%" y="-20%" width="140%" height="140%">
    <feGaussianBlur stdDeviation="3.5" result="b"/>
    <feColorMatrix in="b" type="matrix"
        values="0 0 0 0 1  0 0 0 0 1  0 0 0 0 1  0 0 0 1.8 0" result="boost"/>
    <feMerge><feMergeNode in="boost"/><feMergeNode in="SourceGraphic"/></feMerge>
  </filter>

  <!-- Bloom: wide soft -->
  <filter id="bloomr1x8410" x="-40%" y="-40%" width="180%" height="180%">
    <feGaussianBlur stdDeviation="11" result="b"/>
    <feMerge><feMergeNode in="b"/><feMergeNode in="SourceGraphic"/></feMerge>
  </filter>

  </defs><rect width="1000" height="1000" fill="url(#bgr1x8410)"/><polygon points="974.056598553434,207.39164242520928 994.4417646788061,168.33631053380668 1015.0748264398426,199.92842314299196" fill="#ccccff" fill-opacity=".055" stroke="#ccccff" stroke-opacity=".1" stroke-width="1"/><polygon points="124.1626311885193,223.0999497929588 158.61296888254583,169.28397774975747 161.1196162905544,219.1936486074701" fill="#ccccff" fill-opacity=".055" stroke="#ccccff" stroke-opacity=".1" stroke-width="1"/><polygon points="668.4498832793906,470.46542685478926 699.2720532864332,424.736784494482 725.7702376674861,462.3934606835246" fill="#ccccff" fill-opacity=".055" stroke="#ccccff" stroke-opacity=".1" stroke-width="1"/><polygon points="703.3828544337302,236.8548124935478 724.534316368401,200.59690012875944 760.8858406478539,230.83073675166816" fill="#ccccff" fill-opacity=".055" stroke="#ccccff" stroke-opacity=".1" stroke-width="1"/><polygon points="466.55725493561476,261.56614248175174 479.5299330195412,219.97359766438603 504.4503439478576,266.05632721912116" fill="#ccccff" fill-opacity=".055" stroke="#ccccff" stroke-opacity=".1" stroke-width="1"/><polygon points="732.4615403404459,396.2794168340042 744.438139426522,355.14247524831444 779.6395391160622,395.3176717739552" fill="#ccccff" fill-opacity=".055" stroke="#ccccff" stroke-opacity=".1" stroke-width="1"/><polygon points="523.8878047512844,439.57023916300386 540.4935014974326,400.5073763364926 564.4123401660472,443.1276207929477" fill="#ccccff" fill-opacity=".055" stroke="#ccccff" stroke-opacity=".1" stroke-width="1"/><polygon points="12.212492101825774,342.5325468974188 38.02940041106194,300.98648109752685 60.115967023186386,339.63088967837393" fill="#ccccff" fill-opacity=".055" stroke="#ccccff" stroke-opacity=".1" stroke-width="1"/><ellipse cx="500.0" cy="892.0" rx="350.0" ry="65.0" fill="rgba(0,0,0,.7)" filter="url(#bloomr1x8410)"/><ellipse cx="500.0" cy="889.0" rx="220.0" ry="34.0" fill="rgba(0,0,0,.45)"/><ellipse cx="500.0" cy="520.0" rx="320.0" ry="480.0" fill="#ff00ff" fill-opacity=".042" filter="url(#bloomr1x8410)"/><circle cx="585.6" cy="253.5" r="0.8" fill="#ff00ff" fill-opacity="0.48" filter="url(#glowr1x8410)"/><circle cx="627.3" cy="589.6" r="2.0" fill="#ff00ff" fill-opacity="0.40" filter="url(#glowr1x8410)"/><circle cx="641.0" cy="391.3" r="2.9" fill="#ff00ff" fill-opacity="0.63" filter="url(#glowr1x8410)"/><circle cx="511.9" cy="337.9" r="1.2" fill="#ff00ff" fill-opacity="0.88" filter="url(#glowr1x8410)"/><circle cx="364.6" cy="755.1" r="1.3" fill="#ff00ff" fill-opacity="0.82" filter="url(#glowr1x8410)"/><circle cx="321.0" cy="628.6" r="2.4" fill="#ff00ff" fill-opacity="0.72" filter="url(#glowr1x8410)"/><circle cx="368.3" cy="182.1" r="3.8" fill="#ff00ff" fill-opacity="0.40" filter="url(#glowr1x8410)"/><circle cx="268.8" cy="325.3" r="4.1" fill="#ff00ff" fill-opacity="0.68" filter="url(#glowr1x8410)"/><circle cx="723.2" cy="552.7" r="3.9" fill="#ff00ff" fill-opacity="0.40" filter="url(#glowr1x8410)"/><circle cx="705.8" cy="688.2" r="2.8" fill="#ff00ff" fill-opacity="0.42" filter="url(#glowr1x8410)"/><circle cx="428.5" cy="613.3" r="0.7" fill="#ff00ff" fill-opacity="0.38" filter="url(#glowr1x8410)"/><circle cx="482.0" cy="261.3" r="1.0" fill="#ff00ff" fill-opacity="0.80" filter="url(#glowr1x8410)"/><circle cx="270.6" cy="183.9" r="0.7" fill="#ff00ff" fill-opacity="0.80" filter="url(#glowr1x8410)"/><circle cx="636.2" cy="603.0" r="0.8" fill="#ff00ff" fill-opacity="0.42" filter="url(#glowr1x8410)"/><path d="M653.2,183.9 Q628.6,515.6 688.2,882.0" stroke="#ff00ff" stroke-opacity="0.52" stroke-width="0.7" fill="none" filter="url(#glowr1x8410)"/><path d="M369.0,372.4 Q365.1,648.6 613.7,889.7" stroke="#ff00ff" stroke-opacity="0.41" stroke-width="2.4" fill="none" filter="url(#glowr1x8410)"/><path d="M701.4,310.9 Q673.0,587.6 545.6,873.8" stroke="#ff00ff" stroke-opacity="0.70" stroke-width="1.5" fill="none" filter="url(#glowr1x8410)"/><path d="M337.8,296.4 Q303.6,484.2 700.0,699.0" stroke="#ff00ff" stroke-opacity="0.78" stroke-width="2.1" fill="none" filter="url(#glowr1x8410)"/><path d="M590.5,246.8 Q620.6,558.0 533.9,859.6" stroke="#ff00ff" stroke-opacity="0.76" stroke-width="0.9" fill="none" filter="url(#glowr1x8410)"/><polygon points="400.0,663.6 490.6,664.2 480.3,878.8 388.3,878.0" fill="url(#suitr1x8410)" stroke="#ccccff" stroke-width="2.2" filter="url(#skr1x8410) url(#metalr1x8410)"/><polygon points="400.4,661.0 490.2,662.7 481.5,878.8 386.9,877.2" fill="url(#carbonr1x8410)"/><polygon points="393.9,724.8 491.3,722.8 484.0,790.0 384.2,789.8" fill="url(#bevelr1x8410)" fill-opacity=".5" stroke="#ccccff" stroke-width="1.4" filter="url(#skr1x8410)"/><polygon points="509.0,662.3 599.6,661.2 611.1,876.2 518.4,879.2" fill="url(#suitr1x8410)" stroke="#ccccff" stroke-width="2.2" filter="url(#skr1x8410) url(#metalr1x8410)"/><polygon points="510.8,661.0 600.1,662.8 613.2,877.8 520.7,876.0" fill="url(#carbonr1x8410)"/><polygon points="505.8,723.6 608.8,724.2 615.2,786.5 517.2,787.5" fill="url(#bevelr1x8410)" fill-opacity=".5" stroke="#ccccff" stroke-width="1.4" filter="url(#skr1x8410)"/><rect x="393.7" y="838.4" width="100.3" height="24.7" fill="url(#bevelr1x8410)" stroke="#ccccff" stroke-width="1" filter="url(#skr1x8410)"/><rect x="505.8"  y="839.6" width="100.3" height="24.7" fill="url(#bevelr1x8410)" stroke="#ccccff" stroke-width="1" filter="url(#skr1x8410)"/><polygon points="370.9,878.0 494.8,876.7 503.6,921.2 363.2,923.0" fill="#242438" stroke="#ccccff" stroke-width="2" filter="url(#skr1x8410)"/><polygon points="502.7,878.9 631.4,876.2 637.6,923.1 496.6,921.0" fill="#242438" stroke="#ccccff" stroke-width="2" filter="url(#skr1x8410)"/><polygon points="302.5,634.6 697.2,633.9 638.3,683.0 361.0,681.1" fill="#ccccff" fill-opacity=".52" stroke="#ccccff" stroke-width="2" filter="url(#skr1x8410)"/><rect x="464.4" y="638.8" width="72.0" height="42.0" fill="url(#bevelr1x8410)" stroke="#ccccff" stroke-width="1.4" filter="url(#glowr1x8410)"/><rect x="487.3" y="639.1" width="28.0" height="22.0" rx="1" fill="rgba(255,255,255,.48)"/><polygon points="151.7,466.3 236.4,468.0 257.0,734.6 129.3,736.5" fill="url(#suitr1x8410)" stroke="#ccccff" stroke-width="2.2" filter="url(#skr1x8410) url(#metalr1x8410)"/><polygon points="173.4,433.9 253.3,433.7 242.5,511.9 160.8,509.1" fill="url(#bevelr1x8410)" fill-opacity=".72" stroke="#ccccff" stroke-width="2.2" filter="url(#skr1x8410)"/><polygon points="161.9,623.5 241.8,620.3 240.4,661.4 166.6,660.3" fill="#ccccff" fill-opacity=".42" stroke="#ccccff" stroke-width="1" filter="url(#skr1x8410)"/><polygon points="765.3,464.9 848.6,468.2 872.8,736.7 742.8,733.8" fill="url(#suitr1x8410)" stroke="#ccccff" stroke-width="2.2" filter="url(#skr1x8410) url(#metalr1x8410)"/><polygon points="745.5,430.5 827.0,433.7 840.3,511.2 757.6,510.9" fill="url(#bevelr1x8410)" fill-opacity=".72" stroke="#ccccff" stroke-width="2.2" filter="url(#skr1x8410)"/><polygon points="756.5,620.7 839.8,622.3 834.1,662.6 762.6,662.1" fill="#ccccff" fill-opacity=".42" stroke="#ccccff" stroke-width="1" filter="url(#skr1x8410)"/><rect x="118.9"  y="700.2" width="135.3" height="85.0" rx="4" fill="url(#bevelr1x8410)" stroke="#ccccff" stroke-width="1.8" filter="url(#skr1x8410)"/><rect x="747.5"   y="699.7" width="135.3" height="85.0" rx="4" fill="url(#bevelr1x8410)" stroke="#ccccff" stroke-width="1.8" filter="url(#skr1x8410)"/><line x1="150.9" y1="702.9" x2="148.6" y2="784.6" stroke="#ccccff" stroke-opacity=".38" stroke-width="1"/><line x1="777.7" y1="703.5" x2="779.1" y2="785.1" stroke="#ccccff" stroke-opacity=".38" stroke-width="1"/><line x1="181.6" y1="700.3" x2="183.8" y2="782.5" stroke="#ccccff" stroke-opacity=".38" stroke-width="1"/><line x1="810.1" y1="703.1" x2="811.7" y2="783.2" stroke="#ccccff" stroke-opacity=".38" stroke-width="1"/><line x1="216.4" y1="701.2" x2="215.0" y2="783.2" stroke="#ccccff" stroke-opacity=".38" stroke-width="1"/><line x1="844.0" y1="701.9" x2="842.7" y2="783.0" stroke="#ccccff" stroke-opacity=".38" stroke-width="1"/><polygon points="234.4,415.9 764.6,416.1 723.5,663.4 278.3,663.6" fill="url(#suitr1x8410)" stroke="#ccccff" stroke-width="2.6" filter="url(#skr1x8410) url(#metalr1x8410)"/><polygon points="236.6,416.6 765.0,418.0 723.9,661.6 276.7,661.2" fill="url(#carbonr1x8410)"/><polygon points="366.1,418.3 630.9,417.7 610.9,515.0 387.9,515.1" fill="url(#suitHir1x8410)"/><line x1="362.6" y1="470.6" x2="637.2" y2="471.5" stroke="#ccccff" stroke-opacity=".52" stroke-width="1.3" filter="url(#skr1x8410)"/><line x1="400.0" y1="549.7" x2="601.3" y2="549.7" stroke="#ccccff" stroke-opacity=".52" stroke-width="1.3" filter="url(#skr1x8410)"/><line x1="265.7" y1="491.9" x2="319.0" y2="489.5" stroke="#ccccff" stroke-opacity=".62" stroke-width="1.8"/><line x1="680.6" y1="489.5" x2="735.0" y2="490.2" stroke="#ccccff" stroke-opacity=".62" stroke-width="1.8"/><line x1="268.4" y1="523.9" x2="318.8" y2="523.1" stroke="#ccccff" stroke-opacity=".62" stroke-width="1.8"/><line x1="678.7" y1="524.5" x2="734.1" y2="523.8" stroke="#ccccff" stroke-opacity=".62" stroke-width="1.8"/><line x1="266.2" y1="553.0" x2="320.2" y2="556.0" stroke="#ccccff" stroke-opacity=".62" stroke-width="1.8"/><line x1="680.0" y1="555.4" x2="732.5" y2="554.3" stroke="#ccccff" stroke-opacity=".62" stroke-width="1.8"/><line x1="267.0" y1="586.0" x2="318.8" y2="586.0" stroke="#ccccff" stroke-opacity=".62" stroke-width="1.8"/><line x1="678.8" y1="584.9" x2="731.7" y2="587.0" stroke="#ccccff" stroke-opacity=".62" stroke-width="1.8"/><g filter="url(#glowr1x8410)"><ellipse cx="500.8" cy="509.8" rx="42.9" ry="23.2" fill="#050d14" stroke="#ccccff" stroke-width="1.6" filter="url(#skr1x8410)"/><circle cx="499.5" cy="509.1" r="15.1" fill="#ccccff"/><circle cx="495.6" cy="505.7" r="5.8" fill="#050d14"/><ellipse cx="494.5" cy="503.3" rx="3.5" ry="2.3" fill="rgba(255,255,255,.7)"/></g><g><polygon points="76.2,671.4 128.2,671.4 112.6,-28.6 91.8,-28.6" fill="url(#blader1x8410)" filter="url(#wmr1x8410)"/><polygon points="91.8,-28.6 112.6,-28.6 102.2,-138.6" fill="url(#blader1x8410)" filter="url(#wmr1x8410)"/><polygon points="100.3,671.4 104.0,671.4 102.7,-128.6 101.6,-128.6" fill="url(#bladeTipr1x8410)" opacity=".9"/><line x1="110.55456958308812" y1="672.4812476506456" x2="102.04551488114518" y2="-128.5558520147577" stroke="rgba(255,255,255,.68)" stroke-width="1.5"/><line x1="92.17233948623759" y1="671.9364772198721" x2="101.99813633279871" y2="-128.14291595490653" stroke="#ccccff" stroke-width="1" stroke-opacity=".45"/><line x1="106.8" y1="651.4" x2="104.0" y2="11.4" stroke="rgba(0,0,0,.38)" stroke-width="1.6"/><line x1="97.5" y1="651.4" x2="100.3" y2="11.4" stroke="rgba(0,0,0,.38)" stroke-width="1.6"/><rect x="46.02593510238451" y="670.8094341475517" width="112.0" height="28.0" rx="3" fill="url(#bevelr1x8410)" stroke="#ccccff" stroke-width="1.6" filter="url(#wmr1x8410)"/><rect x="70.1769089096598" y="673.758750512544" width="64.0" height="10.0" rx="1" fill="rgba(255,255,255,.32)"/><rect x="90.50872769424689" y="677.8323430599645" width="24.0" height="6.0" rx="1" fill="#ccccff" fill-opacity=".35"/><rect x="91.42156910266723" y="685.4377070835791" width="24.0" height="6.0" rx="1" fill="#ccccff" fill-opacity=".35"/><rect x="90.67221919162196" y="691.9019349025563" width="24.0" height="6.0" rx="1" fill="#ccccff" fill-opacity=".35"/><rect x="90.4019915694743" y="700.7813716457225" width="24.0" height="6.0" rx="1" fill="#ccccff" fill-opacity=".35"/><rect x="89.38990974094716" y="708.7014550697058" width="24.0" height="6.0" rx="1" fill="#ccccff" fill-opacity=".35"/><rect x="89.85901590114456" y="716.0529795092531" width="24.0" height="6.0" rx="1" fill="#ccccff" fill-opacity=".35"/><ellipse cx="100.6880874898657" cy="728.0180285904556" rx="22.0" ry="16.0" fill="url(#bevelr1x8410)" stroke="#ccccff" stroke-width="1.2" filter="url(#wmr1x8410)"/></g><rect x="449.1571060261689" y="556.4806758184917" width="100.0"  height="56.0" fill="#242438" stroke="#ccccff" stroke-width="2.2" filter="url(#skr1x8410)"/><rect x="423.3904270708561" y="574.9462339802645" width="152.0" height="26.0" fill="url(#bevelr1x8410)" fill-opacity=".65" stroke="#ccccff" stroke-width="1.2" filter="url(#skr1x8410)"/><polygon points="308.3,378.8 351.2,295.4 499.0,277.5 650.7,295.6 690.4,381.9 669.4,502.5 500.7,565.0 332.3,502.3" fill="url(#suitr1x8410)" stroke="#ccccff" stroke-width="2.8" filter="url(#skr1x8410) url(#metalr1x8410)"/><polygon points="308.4,381.4 351.9,295.7 501.7,278.0 651.4,294.3 693.1,381.9 668.8,505.2 500.9,565.5 330.3,503.6" fill="url(#carbonr1x8410)"/><polygon points="379.5,301.1 499.3,286.6 620.4,303.0 608.8,382.0 391.1,380.4" fill="url(#suitHir1x8410)"/><polygon points="380.6,379.5 365.6,425.3 433.8,502.5 501.4,528.4 567.9,503.0 632.9,426.0 620.3,379.9" fill="#050d14" fill-opacity=".88" stroke="#ccccff" stroke-width="1.8" filter="url(#skr1x8410)"/><polygon points="379.5,410.1 477.5,411.7 483.7,439.4 388.8,441.2" fill="#ccccff" filter="url(#glowr1x8410)"/><polygon points="521.9,412.5 620.6,409.8 611.5,439.0 514.5,439.4" fill="#ccccff" filter="url(#glowr1x8410)"/><ellipse cx="430.9" cy="425.7" rx="38.4"  ry="8.2" fill="#ffffff" opacity=".88"/><ellipse cx="569.1" cy="425.7" rx="38.4"  ry="8.2" fill="#ffffff" opacity=".88"/><line x1="483.7970692396723" y1="414.2905748700723" x2="515.22579648247" y2="414.2611942769028" stroke="#ccccff" stroke-opacity=".52" stroke-width="2"/><line x1="486.10844702400266" y1="437.5653034240007" x2="516.4518534697033" y2="438.84950858540833" stroke="#ccccff" stroke-opacity=".52" stroke-width="2"/><line x1="499.89065651660786" y1="454.51794503601263" x2="500.3534863135777" y2="484.1623890264891" stroke="#ccccff" stroke-opacity=".58" stroke-width="2.2" filter="url(#skr1x8410)"/><line x1="455.53215353850277" y1="490.8149097524583" x2="452.2001869460382" y2="520.9351723935455" stroke="#ccccff" stroke-opacity=".52" stroke-width="1.5" filter="url(#skr1x8410)"/><line x1="477.7350835574232" y1="490.273130590748" x2="475.1922309163399" y2="521.4494648656807" stroke="#ccccff" stroke-opacity=".52" stroke-width="1.5" filter="url(#skr1x8410)"/><line x1="500.39769950835034" y1="491.07942184284326" x2="500.12048269994557" y2="521.6969716017135" stroke="#ccccff" stroke-opacity=".52" stroke-width="1.5" filter="url(#skr1x8410)"/><line x1="524.2182421758398" y1="491.1755570435896" x2="521.554698143024" y2="519.4390447503887" stroke="#ccccff" stroke-opacity=".52" stroke-width="1.5" filter="url(#skr1x8410)"/><line x1="546.5897821080126" y1="489.81744946502147" x2="545.8206395999715" y2="521.3553732215427" stroke="#ccccff" stroke-opacity=".52" stroke-width="1.5" filter="url(#skr1x8410)"/><polygon points="433.1,502.1 566.4,504.5 552.1,556.1 447.4,556.0" fill="#242438" fill-opacity=".72" stroke="#ccccff" stroke-width="1.3" filter="url(#skr1x8410)"/><text x="30.0"  y="975.0" font-family="monospace" font-weight="bold" font-size="22.0" fill="rgba(255,255,255,.22)">#0001</text><text x="500.0"   y="975.0" text-anchor="middle" font-family="monospace" font-weight="bold" font-size="22.0" fill="#ccccff" fill-opacity=".48">PHANTOM RANGER</text><text x="970.0" y="975.0" text-anchor="end"    font-family="monospace" font-weight="bold" font-size="22.0" fill="#ccccff" fill-opacity=".32">MECH RANGERS</text></svg>