<svg xmlns="http://www.w3.org/2000/svg" viewBox="0 0 1000 1000" width="1000" height="1000" shape-rendering="geometricPrecision"><defs>

  <!-- Scene gradients -->
  <radialGradient id="bgr1x8412" cx="50%" cy="42%" r="72%">
    <stop offset="0%"   stop-color="#1e0d00"/>
    <stop offset="100%" stop-color="#140900"/>
  </radialGradient>
  <linearGradient id="suitr1x8412" x1="8%" y1="0%" x2="92%" y2="100%">
    <stop offset="0%"   stop-color="#ccccff" stop-opacity=".95"/>
    <stop offset="45%"  stop-color="#242438"/>
    <stop offset="100%" stop-color="#140900"/>
  </linearGradient>
  <linearGradient id="suitHir1x8412" x1="0%" y1="0%" x2="0%" y2="100%">
    <stop offset="0%"   stop-color="rgba(255,255,255,.28)"/>
    <stop offset="60%"  stop-color="rgba(255,255,255,.04)"/>
    <stop offset="100%" stop-color="rgba(255,255,255,0)"/>
  </linearGradient>
  <!-- Bevel: bright top, dark bottom for armour panels -->
  <linearGradient id="bevelr1x8412" x1="0%" y1="0%" x2="0%" y2="100%">
    <stop offset="0%"   stop-color="rgba(255,255,255,.55)"/>
    <stop offset="30%"  stop-color="#ccccff"/>
    <stop offset="70%"  stop-color="#242438"/>
    <stop offset="100%" stop-color="rgba(0,0,0,.5)"/>
  </linearGradient>

  <!-- Weapon: cold steel blade sweep -->
  <linearGradient id="blader1x8412" x1="0%" y1="0%" x2="100%" y2="0%">
    <stop offset="0%"   stop-color="#0e0e20"/>
    <stop offset="16%"  stop-color="#3e3e58"/>
    <stop offset="34%"  stop-color="#c8c8e0"/>
    <stop offset="50%"  stop-color="#f5f5ff"/>
    <stop offset="66%"  stop-color="#b8b8d0"/>
    <stop offset="84%"  stop-color="#2e2e48"/>
    <stop offset="100%" stop-color="#08080e"/>
  </linearGradient>
  <!-- Blade tip brightening -->
  <linearGradient id="bladeTipr1x8412" x1="0%" y1="100%" x2="0%" y2="0%">
    <stop offset="0%"   stop-color="rgba(255,255,255,0)"/>
    <stop offset="55%"  stop-color="rgba(255,255,255,.1)"/>
    <stop offset="100%" stop-color="rgba(255,255,255,.55)"/>
  </linearGradient>
  <!-- Gunmetal anodised — blaster body -->
  <linearGradient id="gunmetalr1x8412" x1="0%" y1="0%" x2="0%" y2="100%">
    <stop offset="0%"   stop-color="#46465e"/>
    <stop offset="18%"  stop-color="#828296"/>
    <stop offset="42%"  stop-color="#26263a"/>
    <stop offset="72%"  stop-color="#16162a"/>
    <stop offset="100%" stop-color="#0c0c18"/>
  </linearGradient>
  <!-- Brushed steel tube — barrel/rod -->
  <linearGradient id="barrelr1x8412" x1="0%" y1="0%" x2="100%" y2="0%">
    <stop offset="0%"   stop-color="#0a0a14"/>
    <stop offset="24%"  stop-color="#585875"/>
    <stop offset="50%"  stop-color="#a8a8c8"/>
    <stop offset="76%"  stop-color="#383852"/>
    <stop offset="100%" stop-color="#0a0a14"/>
  </linearGradient>
  <!-- Chrome rod — lance shaft -->
  <linearGradient id="chromer1x8412" x1="0%" y1="0%" x2="100%" y2="0%">
    <stop offset="0%"   stop-color="#0c0c18"/>
    <stop offset="20%"  stop-color="#686888"/>
    <stop offset="44%"  stop-color="#e0e0f0"/>
    <stop offset="56%"  stop-color="#c0c0d8"/>
    <stop offset="80%"  stop-color="#28283e"/>
    <stop offset="100%" stop-color="#0c0c18"/>
  </linearGradient>
  <!-- Titanium plate — shield face -->
  <linearGradient id="titaniumr1x8412" x1="0%" y1="0%" x2="100%" y2="100%">
    <stop offset="0%"   stop-color="#585878"/>
    <stop offset="28%"  stop-color="#ccccff" stop-opacity=".88"/>
    <stop offset="55%"  stop-color="#242438"/>
    <stop offset="80%"  stop-color="#181828"/>
    <stop offset="100%" stop-color="#0a0a18"/>
  </linearGradient>
  <!-- Artillery black-chrome — cannon body -->
  <linearGradient id="artilleryr1x8412" x1="0%" y1="0%" x2="0%" y2="100%">
    <stop offset="0%"   stop-color="#383850"/>
    <stop offset="14%"  stop-color="#78789a"/>
    <stop offset="36%"  stop-color="#202034"/>
    <stop offset="65%"  stop-color="#14141e"/>
    <stop offset="100%" stop-color="#0a0a12"/>
  </linearGradient>
  <!-- Energy orb — staff -->
  <radialGradient id="orbr1x8412" cx="35%" cy="35%" r="65%">
    <stop offset="0%"   stop-color="rgba(255,255,255,.9)"/>
    <stop offset="30%"  stop-color="#ccccff"/>
    <stop offset="68%"  stop-color="#242438"/>
    <stop offset="100%" stop-color="rgba(0,0,0,.6)"/>
  </radialGradient>
  <!-- Knuckle plate chrome -->
  <linearGradient id="knuckler1x8412" x1="0%" y1="0%" x2="0%" y2="100%">
    <stop offset="0%"   stop-color="#888aaa"/>
    <stop offset="32%"  stop-color="#ccccff" stop-opacity=".8"/>
    <stop offset="62%"  stop-color="#1a1a2c"/>
    <stop offset="100%" stop-color="#0a0a14"/>
  </linearGradient>

  <!-- Carbon fibre weave texture overlay -->
  <pattern id="carbonr1x8412" width="6" height="6" patternUnits="userSpaceOnUse">
    <rect width="6" height="6" fill="rgba(0,0,0,.08)"/>
    <rect x="0" y="0" width="3" height="3" fill="rgba(255,255,255,.022)"/>
    <rect x="3" y="3" width="3" height="3" fill="rgba(255,255,255,.022)"/>
    <line x1="0" y1="0" x2="3" y2="3" stroke="rgba(255,255,255,.038)" stroke-width=".5"/>
    <line x1="3" y1="0" x2="6" y2="3" stroke="rgba(0,0,0,.055)"       stroke-width=".5"/>
    <line x1="0" y1="3" x2="3" y2="6" stroke="rgba(0,0,0,.055)"       stroke-width=".5"/>
    <line x1="3" y1="3" x2="6" y2="6" stroke="rgba(255,255,255,.038)" stroke-width=".5"/>
  </pattern>

  <!-- Specular metal sheen on armour panels -->
  <filter id="metalr1x8412" x="-5%" y="-5%" width="110%" height="110%">
    <feSpecularLighting surfaceScale="4" specularConstant="1.8"
        specularExponent="42" lighting-color="#ffffff" result="spec">
      <feDistantLight elevation="52" azimuth="38"/>
    </feSpecularLighting>
    <feComposite in="spec" in2="SourceGraphic" operator="in" result="sm"/>
    <feComposite in="SourceGraphic" in2="sm" operator="arithmetic" k1="0" k2="1" k3="0.55" k4="0"/>
  </filter>

  <!-- Sharper specular for weapons — heavier glare -->
  <filter id="wmr1x8412" x="-8%" y="-8%" width="116%" height="116%">
    <feSpecularLighting surfaceScale="6" specularConstant="2.4"
        specularExponent="65" lighting-color="#ffffff" result="spec">
      <feDistantLight elevation="44" azimuth="28"/>
    </feSpecularLighting>
    <feComposite in="spec" in2="SourceGraphic" operator="in" result="sm"/>
    <feComposite in="SourceGraphic" in2="sm" operator="arithmetic" k1="0" k2="1" k3="0.78" k4="0"/>
  </filter>

  <!-- Sketch wobble -->
  <filter id="skr1x8412" x="-8%" y="-8%" width="116%" height="116%">
    <feTurbulence type="fractalNoise" baseFrequency="0.038"
        numOctaves="3" seed="58" result="noise"/>
    <feDisplacementMap in="SourceGraphic" in2="noise" scale="2.6"
        xChannelSelector="R" yChannelSelector="G" result="w"/>
    <feComposite in="w" in2="SourceGraphic" operator="atop"/>
  </filter>

  <!-- Glow: sharp accent -->
  <filter id="glowr1x8412" x="-20%" y="-20%" width="140%" height="140%">
    <feGaussianBlur stdDeviation="3.5" result="b"/>
    <feColorMatrix in="b" type="matrix"
        values="0 0 0 0 1  0 0 0 0 1  0 0 0 0 1  0 0 0 1.8 0" result="boost"/>
    <feMerge><feMergeNode in="boost"/><feMergeNode in="SourceGraphic"/></feMerge>
  </filter>

  <!-- Bloom: wide soft -->
  <filter id="bloomr1x8412" x="-40%" y="-40%" width="180%" height="180%">
    <feGaussianBlur stdDeviation="11" result="b"/>
    <feMerge><feMergeNode in="b"/><feMergeNode in="SourceGraphic"/></feMerge>
  </filter>

  </defs><rect width="1000" height="1000" fill="url(#bgr1x8412)"/><line x1="500" y1="500" x2="1500.0" y2="500.0" stroke="#ccccff" stroke-opacity=".048" stroke-width="5"/><line x1="500" y1="500" x2="1474.9" y2="722.5" stroke="#ccccff" stroke-opacity=".048" stroke-width="5"/><line x1="500" y1="500" x2="1401.0" y2="933.9" stroke="#ccccff" stroke-opacity=".048" stroke-width="5"/><line x1="500" y1="500" x2="1281.8" y2="1123.5" stroke="#ccccff" stroke-opacity=".048" stroke-width="5"/><line x1="500" y1="500" x2="1123.5" y2="1281.8" stroke="#ccccff" stroke-opacity=".048" stroke-width="5"/><line x1="500" y1="500" x2="933.9" y2="1401.0" stroke="#ccccff" stroke-opacity=".048" stroke-width="5"/><line x1="500" y1="500" x2="722.5" y2="1474.9" stroke="#ccccff" stroke-opacity=".048" stroke-width="5"/><line x1="500" y1="500" x2="500.0" y2="1500.0" stroke="#ccccff" stroke-opacity=".048" stroke-width="5"/><line x1="500" y1="500" x2="277.5" y2="1474.9" stroke="#ccccff" stroke-opacity=".048" stroke-width="5"/><line x1="500" y1="500" x2="66.1" y2="1401.0" stroke="#ccccff" stroke-opacity=".048" stroke-width="5"/><line x1="500" y1="500" x2="-123.5" y2="1281.8" stroke="#ccccff" stroke-opacity=".048" stroke-width="5"/><line x1="500" y1="500" x2="-281.8" y2="1123.5" stroke="#ccccff" stroke-opacity=".048" stroke-width="5"/><line x1="500" y1="500" x2="-401.0" y2="933.9" stroke="#ccccff" stroke-opacity=".048" stroke-width="5"/><line x1="500" y1="500" x2="-474.9" y2="722.5" stroke="#ccccff" stroke-opacity=".048" stroke-width="5"/><line x1="500" y1="500" x2="-500.0" y2="500.0" stroke="#ccccff" stroke-opacity=".048" stroke-width="5"/><line x1="500" y1="500" x2="-474.9" y2="277.5" stroke="#ccccff" stroke-opacity=".048" stroke-width="5"/><line x1="500" y1="500" x2="-401.0" y2="66.1" stroke="#ccccff" stroke-opacity=".048" stroke-width="5"/><line x1="500" y1="500" x2="-281.8" y2="-123.5" stroke="#ccccff" stroke-opacity=".048" stroke-width="5"/><line x1="500" y1="500" x2="-123.5" y2="-281.8" stroke="#ccccff" stroke-opacity=".048" stroke-width="5"/><line x1="500" y1="500" x2="66.1" y2="-401.0" stroke="#ccccff" stroke-opacity=".048" stroke-width="5"/><line x1="500" y1="500" x2="277.5" y2="-474.9" stroke="#ccccff" stroke-opacity=".048" stroke-width="5"/><line x1="500" y1="500" x2="500.0" y2="-500.0" stroke="#ccccff" stroke-opacity=".048" stroke-width="5"/><line x1="500" y1="500" x2="722.5" y2="-474.9" stroke="#ccccff" stroke-opacity=".048" stroke-width="5"/><line x1="500" y1="500" x2="933.9" y2="-401.0" stroke="#ccccff" stroke-opacity=".048" stroke-width="5"/><line x1="500" y1="500" x2="1123.5" y2="-281.8" stroke="#ccccff" stroke-opacity=".048" stroke-width="5"/><line x1="500" y1="500" x2="1281.8" y2="-123.5" stroke="#ccccff" stroke-opacity=".048" stroke-width="5"/><line x1="500" y1="500" x2="1401.0" y2="66.1" stroke="#ccccff" stroke-opacity=".048" stroke-width="5"/><line x1="500" y1="500" x2="1474.9" y2="277.5" stroke="#ccccff" stroke-opacity=".048" stroke-width="5"/><ellipse cx="500.0" cy="892.0" rx="350.0" ry="65.0" fill="rgba(0,0,0,.7)" filter="url(#bloomr1x8412)"/><ellipse cx="500.0" cy="889.0" rx="220.0" ry="34.0" fill="rgba(0,0,0,.45)"/><polygon points="397.8,662.8 489.1,663.4 479.6,877.5 388.7,878.0" fill="url(#suitr1x8412)" stroke="#ccccff" stroke-width="2.2" filter="url(#skr1x8412) url(#metalr1x8412)"/><polygon points="397.9,662.8 490.9,662.6 479.5,876.9 387.3,878.3" fill="url(#carbonr1x8412)"/><polygon points="391.5,723.8 494.7,725.0 484.5,789.5 382.6,789.8" fill="url(#bevelr1x8412)" fill-opacity=".5" stroke="#ccccff" stroke-width="1.4" filter="url(#skr1x8412)"/><polygon points="511.3,661.4 601.2,661.7 611.2,876.3 521.1,875.9" fill="url(#suitr1x8412)" stroke="#ccccff" stroke-width="2.2" filter="url(#skr1x8412) url(#metalr1x8412)"/><polygon points="511.0,661.4 600.4,663.6 613.3,878.7 517.9,878.4" fill="url(#carbonr1x8412)"/><polygon points="508.0,724.6 609.1,723.2 616.6,787.3 516.2,789.3" fill="url(#bevelr1x8412)" fill-opacity=".5" stroke="#ccccff" stroke-width="1.4" filter="url(#skr1x8412)"/><rect x="393.6" y="837.0" width="100.3" height="24.7" fill="url(#bevelr1x8412)" stroke="#ccccff" stroke-width="1" filter="url(#skr1x8412)"/><rect x="506.7"  y="840.4" width="100.3" height="24.7" fill="url(#bevelr1x8412)" stroke="#ccccff" stroke-width="1" filter="url(#skr1x8412)"/><polygon points="369.4,878.6 494.7,877.1 501.8,922.4 364.3,920.0" fill="#242438" stroke="#ccccff" stroke-width="2" filter="url(#skr1x8412)"/><polygon points="502.9,876.2 630.1,879.1 636.6,920.7 498.0,922.8" fill="#242438" stroke="#ccccff" stroke-width="2" filter="url(#skr1x8412)"/><polygon points="304.4,634.7 697.7,633.4 639.0,681.8 363.4,683.3" fill="#ccccff" fill-opacity=".52" stroke="#ccccff" stroke-width="2" filter="url(#skr1x8412)"/><rect x="462.2" y="636.6" width="72.0" height="42.0" fill="url(#bevelr1x8412)" stroke="#ccccff" stroke-width="1.4" filter="url(#glowr1x8412)"/><rect x="484.7" y="639.1" width="28.0" height="22.0" rx="1" fill="rgba(255,255,255,.48)"/><polygon points="154.4,466.2 235.1,466.6 257.4,736.8 128.0,734.5" fill="url(#suitr1x8412)" stroke="#ccccff" stroke-width="2.2" filter="url(#skr1x8412) url(#metalr1x8412)"/><polygon points="173.6,431.5 251.3,431.9 244.9,511.1 158.3,512.3" fill="url(#bevelr1x8412)" fill-opacity=".72" stroke="#ccccff" stroke-width="2.2" filter="url(#skr1x8412)"/><polygon points="159.7,622.3 242.4,622.3 240.2,660.4 164.3,662.4" fill="#ccccff" fill-opacity=".42" stroke="#ccccff" stroke-width="1" filter="url(#skr1x8412)"/><polygon points="763.7,465.7 848.1,467.8 872.4,733.5 740.9,733.3" fill="url(#suitr1x8412)" stroke="#ccccff" stroke-width="2.2" filter="url(#skr1x8412) url(#metalr1x8412)"/><polygon points="746.3,432.5 827.3,431.8 839.2,511.6 757.2,512.3" fill="url(#bevelr1x8412)" fill-opacity=".72" stroke="#ccccff" stroke-width="2.2" filter="url(#skr1x8412)"/><polygon points="757.5,622.2 839.2,620.6 833.7,661.6 760.2,662.1" fill="#ccccff" fill-opacity=".42" stroke="#ccccff" stroke-width="1" filter="url(#skr1x8412)"/><rect x="120.3"  y="700.3" width="135.3" height="85.0" rx="4" fill="url(#bevelr1x8412)" stroke="#ccccff" stroke-width="1.8" filter="url(#skr1x8412)"/><rect x="748.2"   y="700.5" width="135.3" height="85.0" rx="4" fill="url(#bevelr1x8412)" stroke="#ccccff" stroke-width="1.8" filter="url(#skr1x8412)"/><line x1="148.0" y1="700.2" x2="149.6" y2="783.2" stroke="#ccccff" stroke-opacity=".38" stroke-width="1"/><line x1="778.7" y1="701.3" x2="778.3" y2="785.5" stroke="#ccccff" stroke-opacity=".38" stroke-width="1"/><line x1="183.3" y1="701.6" x2="181.0" y2="785.3" stroke="#ccccff" stroke-opacity=".38" stroke-width="1"/><line x1="811.4" y1="700.5" x2="811.3" y2="783.7" stroke="#ccccff" stroke-opacity=".38" stroke-width="1"/><line x1="216.7" y1="700.7" x2="213.8" y2="783.2" stroke="#ccccff" stroke-opacity=".38" stroke-width="1"/><line x1="842.9" y1="701.1" x2="843.4" y2="783.3" stroke="#ccccff" stroke-opacity=".38" stroke-width="1"/><polygon points="234.5,416.3 765.0,418.6 724.1,664.0 277.2,662.7" fill="url(#suitr1x8412)" stroke="#ccccff" stroke-width="2.6" filter="url(#skr1x8412) url(#metalr1x8412)"/><polygon points="233.4,418.3 763.5,417.5 721.7,661.7 278.6,661.3" fill="url(#carbonr1x8412)"/><polygon points="368.9,416.1 634.1,417.7 611.2,517.0 389.1,514.9" fill="url(#suitHir1x8412)"/><line x1="363.0" y1="472.0" x2="638.3" y2="470.3" stroke="#ccccff" stroke-opacity=".52" stroke-width="1.3" filter="url(#skr1x8412)"/><line x1="398.3" y1="551.0" x2="601.7" y2="548.1" stroke="#ccccff" stroke-opacity=".52" stroke-width="1.3" filter="url(#skr1x8412)"/><line x1="265.1" y1="490.2" x2="319.5" y2="490.2" stroke="#ccccff" stroke-opacity=".62" stroke-width="1.8"/><line x1="679.3" y1="492.6" x2="733.5" y2="490.9" stroke="#ccccff" stroke-opacity=".62" stroke-width="1.8"/><line x1="266.2" y1="521.1" x2="318.0" y2="521.7" stroke="#ccccff" stroke-opacity=".62" stroke-width="1.8"/><line x1="682.0" y1="524.3" x2="734.1" y2="524.4" stroke="#ccccff" stroke-opacity=".62" stroke-width="1.8"/><line x1="265.1" y1="556.0" x2="318.9" y2="553.4" stroke="#ccccff" stroke-opacity=".62" stroke-width="1.8"/><line x1="680.1" y1="556.3" x2="734.1" y2="556.1" stroke="#ccccff" stroke-opacity=".62" stroke-width="1.8"/><line x1="266.8" y1="585.3" x2="318.7" y2="585.6" stroke="#ccccff" stroke-opacity=".62" stroke-width="1.8"/><line x1="679.3" y1="586.1" x2="732.2" y2="587.5" stroke="#ccccff" stroke-opacity=".62" stroke-width="1.8"/><g filter="url(#glowr1x8412)"><ellipse cx="499.4" cy="510.3" rx="42.9" ry="23.2" fill="#140900" stroke="#ccccff" stroke-width="1.6" filter="url(#skr1x8412)"/><circle cx="500.5" cy="509.8" r="15.1" fill="#ccccff"/><circle cx="496.2" cy="508.5" r="5.8" fill="#140900"/><ellipse cx="493.6" cy="503.0" rx="3.5" ry="2.3" fill="rgba(255,255,255,.7)"/></g><g><polygon points="866.8,692.5 901.0,692.8 834.4,272.1" fill="url(#blader1x8412)" stroke="#ccccff" stroke-width="1.8" filter="url(#wmr1x8412)"/><line x1="892.8" y1="691.4" x2="841.8" y2="271.4" stroke="rgba(255,255,255,.58)" stroke-width="1.3"/><polygon points="911.6,692.9 942.8,691.4 986.5,271.3" fill="url(#blader1x8412)" stroke="#ccccff" stroke-width="1.8" filter="url(#wmr1x8412)"/><line x1="941.8" y1="691.4" x2="979.8" y2="271.4" stroke="rgba(255,255,255,.58)" stroke-width="1.3"/><rect x="864.234611659646" y="680.8168974136003" width="96.0" height="26.0" rx="2" fill="url(#bevelr1x8412)" stroke="#ccccff" stroke-width="1.4" filter="url(#wmr1x8412)"/></g><rect x="449.47232032176106" y="557.3617134858854" width="100.0"  height="56.0" fill="#242438" stroke="#ccccff" stroke-width="2.2" filter="url(#skr1x8412)"/><rect x="425.5591492268257" y="573.8222606871277" width="152.0" height="26.0" fill="url(#bevelr1x8412)" fill-opacity=".65" stroke="#ccccff" stroke-width="1.2" filter="url(#skr1x8412)"/><polygon points="308.3,380.7 349.5,293.0 500.3,276.5 648.6,293.6 693.0,379.4 668.7,503.0 500.2,564.7 331.6,501.9" fill="url(#suitr1x8412)" stroke="#ccccff" stroke-width="2.8" filter="url(#skr1x8412) url(#metalr1x8412)"/><polygon points="308.4,380.2 348.8,295.1 500.3,278.8 650.1,295.5 690.7,381.7 669.6,502.3 499.6,565.7 329.8,505.0" fill="url(#carbonr1x8412)"/><polygon points="380.2,303.7 499.6,287.8 618.7,303.5 608.3,381.4 393.2,380.7" fill="url(#suitHir1x8412)"/><polygon points="380.2,380.0 365.3,425.7 431.9,502.1 500.3,528.5 567.2,504.5 633.1,426.1 617.7,380.4" fill="#140900" fill-opacity=".88" stroke="#ccccff" stroke-width="1.8" filter="url(#skr1x8412)"/><polygon points="380.1,410.6 478.3,410.5 484.5,441.8 389.9,440.3" fill="#ccccff" filter="url(#glowr1x8412)"/><polygon points="524.4,412.8 619.3,409.8 610.3,439.6 514.4,439.3" fill="#ccccff" filter="url(#glowr1x8412)"/><ellipse cx="430.9" cy="425.7" rx="38.4"  ry="8.2" fill="#ffffff" opacity=".88"/><ellipse cx="569.1" cy="425.7" rx="38.4"  ry="8.2" fill="#ffffff" opacity=".88"/><line x1="483.54567386886106" y1="412.07000987688076" x2="515.6885303334706" y2="412.32136350497603" stroke="#ccccff" stroke-opacity=".52" stroke-width="2"/><line x1="485.71025043359026" y1="437.65503353644164" x2="516.3309873454646" y2="439.03589005954564" stroke="#ccccff" stroke-opacity=".52" stroke-width="2"/><line x1="501.6234511495568" y1="455.3987160298042" x2="501.0940369085409" y2="483.67434138199314" stroke="#ccccff" stroke-opacity=".58" stroke-width="2.2" filter="url(#skr1x8412)"/><line x1="452.16784107441083" y1="489.90164470253507" x2="454.4321540005319" y2="520.6310050632804" stroke="#ccccff" stroke-opacity=".52" stroke-width="1.5" filter="url(#skr1x8412)"/><line x1="477.73164285406466" y1="492.52141622919584" x2="477.8032658310979" y2="520.4300365043804" stroke="#ccccff" stroke-opacity=".52" stroke-width="1.5" filter="url(#skr1x8412)"/><line x1="500.2683927782811" y1="491.46244422970335" x2="500.2158839644864" y2="518.5000780042261" stroke="#ccccff" stroke-opacity=".52" stroke-width="1.5" filter="url(#skr1x8412)"/><line x1="522.6589068565145" y1="491.5514372685924" x2="523.4824525613897" y2="521.0600338382646" stroke="#ccccff" stroke-opacity=".52" stroke-width="1.5" filter="url(#skr1x8412)"/><line x1="547.0330102309771" y1="489.69012225549665" x2="545.5267148782685" y2="520.7539000531658" stroke="#ccccff" stroke-opacity=".52" stroke-width="1.5" filter="url(#skr1x8412)"/><polygon points="434.1,504.0 565.5,501.8 553.5,558.3 446.3,556.0" fill="#242438" fill-opacity=".72" stroke="#ccccff" stroke-width="1.3" filter="url(#skr1x8412)"/><text x="30.0"  y="975.0" font-family="monospace" font-weight="bold" font-size="22.0" fill="rgba(255,255,255,.22)">#0001</text><text x="500.0"   y="975.0" text-anchor="middle" font-family="monospace" font-weight="bold" font-size="22.0" fill="#ccccff" fill-opacity=".48">PHANTOM RANGER</text><text x="970.0" y="975.0" text-anchor="end"    font-family="monospace" font-weight="bold" font-size="22.0" fill="#ccccff" fill-opacity=".32">MECH RANGERS</text></svg>