<svg xmlns="http://www.w3.org/2000/svg" viewBox="0 0 1000 1000" width="1000" height="1000" shape-rendering="geometricPrecision"><defs>

  <!-- Scene gradients -->
  <radialGradient id="bgr1x8423" cx="50%" cy="42%" r="72%">
    <stop offset="0%"   stop-color="#001422"/>
    <stop offset="100%" stop-color="#000a14"/>
  </radialGradient>
  <linearGradient id="suitr1x8423" x1="8%" y1="0%" x2="92%" y2="100%">
    <stop offset="0%"   stop-color="#ff44aa" stop-opacity=".95"/>
    <stop offset="45%"  stop-color="#880050"/>
    <stop offset="100%" stop-color="#000a14"/>
  </linearGradient>
  <linearGradient id="suitHir1x8423" x1="0%" y1="0%" x2="0%" y2="100%">
    <stop offset="0%"   stop-color="rgba(255,255,255,.28)"/>
    <stop offset="60%"  stop-color="rgba(255,255,255,.04)"/>
    <stop offset="100%" stop-color="rgba(255,255,255,0)"/>
  </linearGradient>
  <!-- Bevel: bright top, dark bottom for armour panels -->
  <linearGradient id="bevelr1x8423" x1="0%" y1="0%" x2="0%" y2="100%">
    <stop offset="0%"   stop-color="rgba(255,255,255,.55)"/>
    <stop offset="30%"  stop-color="#ff44aa"/>
    <stop offset="70%"  stop-color="#880050"/>
    <stop offset="100%" stop-color="rgba(0,0,0,.5)"/>
  </linearGradient>

  <!-- Weapon: cold steel blade sweep -->
  <linearGradient id="blader1x8423" x1="0%" y1="0%" x2="100%" y2="0%">
    <stop offset="0%"   stop-color="#0e0e20"/>
    <stop offset="16%"  stop-color="#3e3e58"/>
    <stop offset="34%"  stop-color="#c8c8e0"/>
    <stop offset="50%"  stop-color="#f5f5ff"/>
    <stop offset="66%"  stop-color="#b8b8d0"/>
    <stop offset="84%"  stop-color="#2e2e48"/>
    <stop offset="100%" stop-color="#08080e"/>
  </linearGradient>
  <!-- Blade tip brightening -->
  <linearGradient id="bladeTipr1x8423" x1="0%" y1="100%" x2="0%" y2="0%">
    <stop offset="0%"   stop-color="rgba(255,255,255,0)"/>
    <stop offset="55%"  stop-color="rgba(255,255,255,.1)"/>
    <stop offset="100%" stop-color="rgba(255,255,255,.55)"/>
  </linearGradient>
  <!-- Gunmetal anodised — blaster body -->
  <linearGradient id="gunmetalr1x8423" x1="0%" y1="0%" x2="0%" y2="100%">
    <stop offset="0%"   stop-color="#46465e"/>
    <stop offset="18%"  stop-color="#828296"/>
    <stop offset="42%"  stop-color="#26263a"/>
    <stop offset="72%"  stop-color="#16162a"/>
    <stop offset="100%" stop-color="#0c0c18"/>
  </linearGradient>
  <!-- Brushed steel tube — barrel/rod -->
  <linearGradient id="barrelr1x8423" x1="0%" y1="0%" x2="100%" y2="0%">
    <stop offset="0%"   stop-color="#0a0a14"/>
    <stop offset="24%"  stop-color="#585875"/>
    <stop offset="50%"  stop-color="#a8a8c8"/>
    <stop offset="76%"  stop-color="#383852"/>
    <stop offset="100%" stop-color="#0a0a14"/>
  </linearGradient>
  <!-- Chrome rod — lance shaft -->
  <linearGradient id="chromer1x8423" x1="0%" y1="0%" x2="100%" y2="0%">
    <stop offset="0%"   stop-color="#0c0c18"/>
    <stop offset="20%"  stop-color="#686888"/>
    <stop offset="44%"  stop-color="#e0e0f0"/>
    <stop offset="56%"  stop-color="#c0c0d8"/>
    <stop offset="80%"  stop-color="#28283e"/>
    <stop offset="100%" stop-color="#0c0c18"/>
  </linearGradient>
  <!-- Titanium plate — shield face -->
  <linearGradient id="titaniumr1x8423" x1="0%" y1="0%" x2="100%" y2="100%">
    <stop offset="0%"   stop-color="#585878"/>
    <stop offset="28%"  stop-color="#ff44aa" stop-opacity=".88"/>
    <stop offset="55%"  stop-color="#880050"/>
    <stop offset="80%"  stop-color="#181828"/>
    <stop offset="100%" stop-color="#0a0a18"/>
  </linearGradient>
  <!-- Artillery black-chrome — cannon body -->
  <linearGradient id="artilleryr1x8423" x1="0%" y1="0%" x2="0%" y2="100%">
    <stop offset="0%"   stop-color="#383850"/>
    <stop offset="14%"  stop-color="#78789a"/>
    <stop offset="36%"  stop-color="#202034"/>
    <stop offset="65%"  stop-color="#14141e"/>
    <stop offset="100%" stop-color="#0a0a12"/>
  </linearGradient>
  <!-- Energy orb — staff -->
  <radialGradient id="orbr1x8423" cx="35%" cy="35%" r="65%">
    <stop offset="0%"   stop-color="rgba(255,255,255,.9)"/>
    <stop offset="30%"  stop-color="#ff44aa"/>
    <stop offset="68%"  stop-color="#880050"/>
    <stop offset="100%" stop-color="rgba(0,0,0,.6)"/>
  </radialGradient>
  <!-- Knuckle plate chrome -->
  <linearGradient id="knuckler1x8423" x1="0%" y1="0%" x2="0%" y2="100%">
    <stop offset="0%"   stop-color="#888aaa"/>
    <stop offset="32%"  stop-color="#ff44aa" stop-opacity=".8"/>
    <stop offset="62%"  stop-color="#1a1a2c"/>
    <stop offset="100%" stop-color="#0a0a14"/>
  </linearGradient>

  <!-- Carbon fibre weave texture overlay -->
  <pattern id="carbonr1x8423" width="6" height="6" patternUnits="userSpaceOnUse">
    <rect width="6" height="6" fill="rgba(0,0,0,.08)"/>
    <rect x="0" y="0" width="3" height="3" fill="rgba(255,255,255,.022)"/>
    <rect x="3" y="3" width="3" height="3" fill="rgba(255,255,255,.022)"/>
    <line x1="0" y1="0" x2="3" y2="3" stroke="rgba(255,255,255,.038)" stroke-width=".5"/>
    <line x1="3" y1="0" x2="6" y2="3" stroke="rgba(0,0,0,.055)"       stroke-width=".5"/>
    <line x1="0" y1="3" x2="3" y2="6" stroke="rgba(0,0,0,.055)"       stroke-width=".5"/>
    <line x1="3" y1="3" x2="6" y2="6" stroke="rgba(255,255,255,.038)" stroke-width=".5"/>
  </pattern>

  <!-- Specular metal sheen on armour panels -->
  <filter id="metalr1x8423" x="-5%" y="-5%" width="110%" height="110%">
    <feSpecularLighting surfaceScale="4" specularConstant="1.8"
        specularExponent="42" lighting-color="#ffffff" result="spec">
      <feDistantLight elevation="52" azimuth="38"/>
    </feSpecularLighting>
    <feComposite in="spec" in2="SourceGraphic" operator="in" result="sm"/>
    <feComposite in="SourceGraphic" in2="sm" operator="arithmetic" k1="0" k2="1" k3="0.55" k4="0"/>
  </filter>

  <!-- Sharper specular for weapons — heavier glare -->
  <filter id="wmr1x8423" x="-8%" y="-8%" width="116%" height="116%">
    <feSpecularLighting surfaceScale="6" specularConstant="2.4"
        specularExponent="65" lighting-color="#ffffff" result="spec">
      <feDistantLight elevation="44" azimuth="28"/>
    </feSpecularLighting>
    <feComposite in="spec" in2="SourceGraphic" operator="in" result="sm"/>
    <feComposite in="SourceGraphic" in2="sm" operator="arithmetic" k1="0" k2="1" k3="0.78" k4="0"/>
  </filter>

  <!-- Sketch wobble -->
  <filter id="skr1x8423" x="-8%" y="-8%" width="116%" height="116%">
    <feTurbulence type="fractalNoise" baseFrequency="0.038"
        numOctaves="3" seed="85" result="noise"/>
    <feDisplacementMap in="SourceGraphic" in2="noise" scale="2.6"
        xChannelSelector="R" yChannelSelector="G" result="w"/>
    <feComposite in="w" in2="SourceGraphic" operator="atop"/>
  </filter>

  <!-- Glow: sharp accent -->
  <filter id="glowr1x8423" x="-20%" y="-20%" width="140%" height="140%">
    <feGaussianBlur stdDeviation="3.5" result="b"/>
    <feColorMatrix in="b" type="matrix"
        values="0 0 0 0 1  0 0 0 0 1  0 0 0 0 1  0 0 0 1.8 0" result="boost"/>
    <feMerge><feMergeNode in="boost"/><feMergeNode in="SourceGraphic"/></feMerge>
  </filter>

  <!-- Bloom: wide soft -->
  <filter id="bloomr1x8423" x="-40%" y="-40%" width="180%" height="180%">
    <feGaussianBlur stdDeviation="11" result="b"/>
    <feMerge><feMergeNode in="b"/><feMergeNode in="SourceGraphic"/></feMerge>
  </filter>

  </defs><rect width="1000" height="1000" fill="url(#bgr1x8423)"/><line x1="0" y1="-0.7" x2="1000" y2="2.3" stroke="#ff44aa" stroke-opacity=".055" stroke-width="1.2"/><line x1="-0.9" y1="0" x2="0.4" y2="1000" stroke="#ff44aa" stroke-opacity=".055" stroke-width="1.2"/><line x1="0" y1="101.8" x2="1000" y2="98.3" stroke="#ff44aa" stroke-opacity=".055" stroke-width="1.2"/><line x1="100.5" y1="0" x2="100.8" y2="1000" stroke="#ff44aa" stroke-opacity=".055" stroke-width="1.2"/><line x1="0" y1="201.5" x2="1000" y2="202.3" stroke="#ff44aa" stroke-opacity=".055" stroke-width="1.2"/><line x1="202.2" y1="0" x2="201.1" y2="1000" stroke="#ff44aa" stroke-opacity=".055" stroke-width="1.2"/><line x1="0" y1="298.5" x2="1000" y2="301.4" stroke="#ff44aa" stroke-opacity=".055" stroke-width="1.2"/><line x1="300.8" y1="0" x2="299.1" y2="1000" stroke="#ff44aa" stroke-opacity=".055" stroke-width="1.2"/><line x1="0" y1="398.3" x2="1000" y2="400.8" stroke="#ff44aa" stroke-opacity=".055" stroke-width="1.2"/><line x1="401.2" y1="0" x2="401.4" y2="1000" stroke="#ff44aa" stroke-opacity=".055" stroke-width="1.2"/><line x1="0" y1="499.8" x2="1000" y2="497.0" stroke="#ff44aa" stroke-opacity=".055" stroke-width="1.2"/><line x1="502.9" y1="0" x2="499.1" y2="1000" stroke="#ff44aa" stroke-opacity=".055" stroke-width="1.2"/><line x1="0" y1="601.3" x2="1000" y2="602.1" stroke="#ff44aa" stroke-opacity=".055" stroke-width="1.2"/><line x1="597.2" y1="0" x2="601.6" y2="1000" stroke="#ff44aa" stroke-opacity=".055" stroke-width="1.2"/><line x1="0" y1="698.7" x2="1000" y2="698.2" stroke="#ff44aa" stroke-opacity=".055" stroke-width="1.2"/><line x1="702.4" y1="0" x2="701.8" y2="1000" stroke="#ff44aa" stroke-opacity=".055" stroke-width="1.2"/><line x1="0" y1="801.8" x2="1000" y2="798.6" stroke="#ff44aa" stroke-opacity=".055" stroke-width="1.2"/><line x1="802.3" y1="0" x2="799.5" y2="1000" stroke="#ff44aa" stroke-opacity=".055" stroke-width="1.2"/><line x1="0" y1="903.0" x2="1000" y2="898.9" stroke="#ff44aa" stroke-opacity=".055" stroke-width="1.2"/><line x1="902.1" y1="0" x2="901.6" y2="1000" stroke="#ff44aa" stroke-opacity=".055" stroke-width="1.2"/><path d="M80,30 L30,30 L30,80" stroke="#ff44aa" stroke-opacity=".45" stroke-width="2" fill="none" filter="url(#glowr1x8423)"/><path d="M920,30 L970,30 L970,80" stroke="#ff44aa" stroke-opacity=".45" stroke-width="2" fill="none" filter="url(#glowr1x8423)"/><path d="M30,920 L30,970 L80,970" stroke="#ff44aa" stroke-opacity=".45" stroke-width="2" fill="none" filter="url(#glowr1x8423)"/><path d="M970,920 L970,970 L920,970" stroke="#ff44aa" stroke-opacity=".45" stroke-width="2" fill="none" filter="url(#glowr1x8423)"/><ellipse cx="500.0" cy="892.0" rx="350.0" ry="65.0" fill="rgba(0,0,0,.7)" filter="url(#bloomr1x8423)"/><ellipse cx="500.0" cy="889.0" rx="220.0" ry="34.0" fill="rgba(0,0,0,.45)"/><ellipse cx="500.0" cy="520.0" rx="320.0" ry="480.0" fill="#6600ff" fill-opacity=".042" filter="url(#bloomr1x8423)"/><circle cx="729.0" cy="222.0" r="0.6" fill="#6600ff" fill-opacity="0.42" filter="url(#glowr1x8423)"/><circle cx="443.8" cy="683.6" r="3.4" fill="#6600ff" fill-opacity="0.50" filter="url(#glowr1x8423)"/><circle cx="690.6" cy="575.8" r="3.1" fill="#6600ff" fill-opacity="0.45" filter="url(#glowr1x8423)"/><circle cx="329.2" cy="439.3" r="1.5" fill="#6600ff" fill-opacity="0.68" filter="url(#glowr1x8423)"/><circle cx="736.4" cy="590.3" r="2.2" fill="#6600ff" fill-opacity="0.87" filter="url(#glowr1x8423)"/><circle cx="536.0" cy="695.5" r="2.5" fill="#6600ff" fill-opacity="0.56" filter="url(#glowr1x8423)"/><circle cx="252.9" cy="441.2" r="2.3" fill="#6600ff" fill-opacity="0.45" filter="url(#glowr1x8423)"/><circle cx="544.6" cy="266.3" r="2.0" fill="#6600ff" fill-opacity="0.90" filter="url(#glowr1x8423)"/><circle cx="437.0" cy="235.6" r="2.6" fill="#6600ff" fill-opacity="0.65" filter="url(#glowr1x8423)"/><circle cx="278.1" cy="618.5" r="2.0" fill="#6600ff" fill-opacity="0.59" filter="url(#glowr1x8423)"/><circle cx="679.7" cy="683.2" r="1.9" fill="#6600ff" fill-opacity="0.89" filter="url(#glowr1x8423)"/><circle cx="594.9" cy="355.4" r="2.1" fill="#6600ff" fill-opacity="0.40" filter="url(#glowr1x8423)"/><circle cx="726.8" cy="692.2" r="4.0" fill="#6600ff" fill-opacity="0.48" filter="url(#glowr1x8423)"/><circle cx="514.5" cy="785.9" r="2.5" fill="#6600ff" fill-opacity="0.72" filter="url(#glowr1x8423)"/><polygon points="397.6,662.0 487.9,661.8 480.7,875.7 388.8,878.7" fill="url(#suitr1x8423)" stroke="#ff44aa" stroke-width="2.2" filter="url(#skr1x8423) url(#metalr1x8423)"/><polygon points="398.7,661.8 488.6,662.6 482.1,877.0 388.5,878.6" fill="url(#carbonr1x8423)"/><polygon points="393.6,722.2 491.7,725.2 485.1,787.5 382.8,789.8" fill="url(#bevelr1x8423)" fill-opacity=".5" stroke="#ff44aa" stroke-width="1.4" filter="url(#skr1x8423)"/><polygon points="509.3,662.8 601.6,661.3 612.6,879.3 520.8,878.4" fill="url(#suitr1x8423)" stroke="#ff44aa" stroke-width="2.2" filter="url(#skr1x8423) url(#metalr1x8423)"/><polygon points="511.3,663.2 602.7,663.4 610.9,876.7 520.4,878.5" fill="url(#carbonr1x8423)"/><polygon points="506.8,723.2 608.0,722.4 614.5,786.8 515.9,787.5" fill="url(#bevelr1x8423)" fill-opacity=".5" stroke="#ff44aa" stroke-width="1.4" filter="url(#skr1x8423)"/><rect x="393.5" y="837.6" width="100.3" height="24.7" fill="url(#bevelr1x8423)" stroke="#ff44aa" stroke-width="1" filter="url(#skr1x8423)"/><rect x="506.3"  y="837.3" width="100.3" height="24.7" fill="url(#bevelr1x8423)" stroke="#ff44aa" stroke-width="1" filter="url(#skr1x8423)"/><polygon points="370.2,876.6 495.6,878.6 505.2,922.9 364.5,921.2" fill="#880050" stroke="#ff44aa" stroke-width="2" filter="url(#skr1x8423)"/><polygon points="504.4,878.3 631.1,878.9 638.6,922.6 494.8,922.0" fill="#880050" stroke="#ff44aa" stroke-width="2" filter="url(#skr1x8423)"/><polygon points="304.2,633.9 695.3,633.8 637.5,680.5 362.0,681.2" fill="#ff44aa" fill-opacity=".52" stroke="#ff44aa" stroke-width="2" filter="url(#skr1x8423)"/><rect x="465.5" y="636.2" width="72.0" height="42.0" fill="url(#bevelr1x8423)" stroke="#ff44aa" stroke-width="1.4" filter="url(#glowr1x8423)"/><rect x="487.0" y="639.5" width="28.0" height="22.0" rx="1" fill="rgba(255,255,255,.48)"/><polygon points="151.7,465.9 234.4,466.7 258.1,736.6 127.0,734.6" fill="url(#suitr1x8423)" stroke="#ff44aa" stroke-width="2.2" filter="url(#skr1x8423) url(#metalr1x8423)"/><polygon points="172.4,433.9 251.6,430.6 244.2,509.1 159.0,511.1" fill="url(#bevelr1x8423)" fill-opacity=".72" stroke="#ff44aa" stroke-width="2.2" filter="url(#skr1x8423)"/><polygon points="161.7,623.0 243.0,621.8 239.0,662.2 164.8,662.7" fill="#ff44aa" fill-opacity=".42" stroke="#ff44aa" stroke-width="1" filter="url(#skr1x8423)"/><polygon points="765.4,467.1 845.7,465.1 873.4,736.3 743.0,733.5" fill="url(#suitr1x8423)" stroke="#ff44aa" stroke-width="2.2" filter="url(#skr1x8423) url(#metalr1x8423)"/><polygon points="745.7,433.8 827.0,433.7 841.4,511.3 757.3,511.0" fill="url(#bevelr1x8423)" fill-opacity=".72" stroke="#ff44aa" stroke-width="2.2" filter="url(#skr1x8423)"/><polygon points="757.8,623.6 840.4,620.2 835.5,660.4 761.4,659.4" fill="#ff44aa" fill-opacity=".42" stroke="#ff44aa" stroke-width="1" filter="url(#skr1x8423)"/><rect x="119.9"  y="701.5" width="135.3" height="85.0" rx="4" fill="url(#bevelr1x8423)" stroke="#ff44aa" stroke-width="1.8" filter="url(#skr1x8423)"/><rect x="747.7"   y="701.0" width="135.3" height="85.0" rx="4" fill="url(#bevelr1x8423)" stroke="#ff44aa" stroke-width="1.8" filter="url(#skr1x8423)"/><line x1="148.4" y1="700.2" x2="151.4" y2="784.1" stroke="#ff44aa" stroke-opacity=".38" stroke-width="1"/><line x1="778.2" y1="702.0" x2="777.1" y2="785.2" stroke="#ff44aa" stroke-opacity=".38" stroke-width="1"/><line x1="180.8" y1="700.7" x2="183.1" y2="784.4" stroke="#ff44aa" stroke-opacity=".38" stroke-width="1"/><line x1="810.9" y1="700.7" x2="809.8" y2="784.6" stroke="#ff44aa" stroke-opacity=".38" stroke-width="1"/><line x1="214.1" y1="701.3" x2="216.3" y2="782.3" stroke="#ff44aa" stroke-opacity=".38" stroke-width="1"/><line x1="842.9" y1="702.9" x2="843.3" y2="784.3" stroke="#ff44aa" stroke-opacity=".38" stroke-width="1"/><polygon points="235.6,417.9 763.8,418.5 724.3,660.9 276.7,664.3" fill="url(#suitr1x8423)" stroke="#ff44aa" stroke-width="2.6" filter="url(#skr1x8423) url(#metalr1x8423)"/><polygon points="233.9,416.8 765.7,419.3 723.9,661.8 276.0,661.6" fill="url(#carbonr1x8423)"/><polygon points="367.5,418.5 633.9,416.5 612.7,514.6 388.3,516.3" fill="url(#suitHir1x8423)"/><line x1="362.8" y1="469.9" x2="637.8" y2="471.5" stroke="#ff44aa" stroke-opacity=".52" stroke-width="1.3" filter="url(#skr1x8423)"/><line x1="397.7" y1="548.8" x2="598.9" y2="548.9" stroke="#ff44aa" stroke-opacity=".52" stroke-width="1.3" filter="url(#skr1x8423)"/><line x1="266.8" y1="489.5" x2="320.0" y2="492.5" stroke="#ff44aa" stroke-opacity=".62" stroke-width="1.8"/><line x1="680.2" y1="490.1" x2="732.4" y2="491.6" stroke="#ff44aa" stroke-opacity=".62" stroke-width="1.8"/><line x1="268.0" y1="524.5" x2="320.7" y2="522.0" stroke="#ff44aa" stroke-opacity=".62" stroke-width="1.8"/><line x1="680.3" y1="524.3" x2="733.0" y2="523.3" stroke="#ff44aa" stroke-opacity=".62" stroke-width="1.8"/><line x1="268.5" y1="555.8" x2="318.0" y2="553.8" stroke="#ff44aa" stroke-opacity=".62" stroke-width="1.8"/><line x1="680.3" y1="553.2" x2="734.7" y2="556.3" stroke="#ff44aa" stroke-opacity=".62" stroke-width="1.8"/><line x1="266.3" y1="587.0" x2="320.6" y2="585.0" stroke="#ff44aa" stroke-opacity=".62" stroke-width="1.8"/><line x1="681.6" y1="585.5" x2="731.8" y2="587.4" stroke="#ff44aa" stroke-opacity=".62" stroke-width="1.8"/><g filter="url(#glowr1x8423)"><polygon points="482.4,452.7 513.8,504.6 498.5,505.9 516.8,568.8 488.9,515.7 501.7,513.5" fill="#ff44aa" stroke="#000a14" stroke-width="1.4" filter="url(#skr1x8423)"/><polygon points="482.3,453.4 512.8,504.5 499.9,505.6 517.7,569.4 487.1,514.0 500.4,513.6" fill="url(#suitHir1x8423)" opacity=".4"/></g><g><polygon points="871.8,671.4 923.8,671.4 908.2,-28.6 887.4,-28.6" fill="url(#blader1x8423)" filter="url(#wmr1x8423)"/><polygon points="887.4,-28.6 908.2,-28.6 897.8,-138.6" fill="url(#blader1x8423)" filter="url(#wmr1x8423)"/><polygon points="896.0,671.4 899.7,671.4 898.4,-128.6 897.3,-128.6" fill="url(#bladeTipr1x8423)" opacity=".9"/><line x1="908.6665617705323" y1="669.9897116241976" x2="898.1660201076604" y2="-129.657993728295" stroke="rgba(255,255,255,.68)" stroke-width="1.5"/><line x1="889.9735503780842" y1="669.6238080499694" x2="897.6520597098396" y2="-127.27092026052999" stroke="#ff44aa" stroke-width="1" stroke-opacity=".45"/><line x1="902.5" y1="651.4" x2="899.7" y2="11.4" stroke="rgba(0,0,0,.38)" stroke-width="1.6"/><line x1="893.2" y1="651.4" x2="896.0" y2="11.4" stroke="rgba(0,0,0,.38)" stroke-width="1.6"/><rect x="842.8792510216683" y="670.6595571081153" width="112.0" height="28.0" rx="3" fill="url(#bevelr1x8423)" stroke="#ff44aa" stroke-width="1.6" filter="url(#wmr1x8423)"/><rect x="867.5960352699832" y="671.6784336027689" width="64.0" height="10.0" rx="1" fill="rgba(255,255,255,.32)"/><rect x="886.0839164509066" y="678.3808727466501" width="24.0" height="6.0" rx="1" fill="#ff44aa" fill-opacity=".35"/><rect x="885.8862571252138" y="687.1983418952674" width="24.0" height="6.0" rx="1" fill="#ff44aa" fill-opacity=".35"/><rect x="885.7766072958335" y="692.6342285760678" width="24.0" height="6.0" rx="1" fill="#ff44aa" fill-opacity=".35"/><rect x="884.7597090279311" y="701.2701265342533" width="24.0" height="6.0" rx="1" fill="#ff44aa" fill-opacity=".35"/><rect x="884.9214124164172" y="708.1449146816507" width="24.0" height="6.0" rx="1" fill="#ff44aa" fill-opacity=".35"/><rect x="885.6625382940844" y="717.6295011708513" width="24.0" height="6.0" rx="1" fill="#ff44aa" fill-opacity=".35"/><ellipse cx="897.4970953463204" cy="725.814159407094" rx="22.0" ry="16.0" fill="url(#bevelr1x8423)" stroke="#ff44aa" stroke-width="1.2" filter="url(#wmr1x8423)"/></g><rect x="448.6006731703877" y="556.7307684177532" width="100.0"  height="56.0" fill="#880050" stroke="#ff44aa" stroke-width="2.2" filter="url(#skr1x8423)"/><rect x="422.2674312802963" y="576.6718790551648" width="152.0" height="26.0" fill="url(#bevelr1x8423)" fill-opacity=".65" stroke="#ff44aa" stroke-width="1.2" filter="url(#skr1x8423)"/><polygon points="307.4,381.2 349.4,295.5 499.4,278.2 648.0,294.0 691.0,380.2 668.3,503.8 501.2,566.9 330.0,504.4" fill="url(#suitr1x8423)" stroke="#ff44aa" stroke-width="2.8" filter="url(#skr1x8423) url(#metalr1x8423)"/><polygon points="307.3,378.9 351.8,294.5 500.8,278.6 649.2,293.1 693.6,378.9 668.0,502.4 498.4,564.7 329.8,503.6" fill="url(#carbonr1x8423)"/><polygon points="381.4,304.2 499.7,285.2 619.1,303.3 606.9,379.9 391.4,381.2" fill="url(#suitHir1x8423)"/><polygon points="380.1,381.7 367.0,427.4 433.8,504.7 500.6,528.7 566.8,503.6 632.8,427.1 617.9,382.2" fill="#000a14" fill-opacity=".88" stroke="#ff44aa" stroke-width="1.8" filter="url(#skr1x8423)"/><polygon points="381.9,412.5 475.7,412.7 483.8,438.6 387.3,440.0" fill="#ff44aa" filter="url(#glowr1x8423)"/><polygon points="521.3,412.2 618.9,410.4 609.7,441.4 514.8,439.2" fill="#ff44aa" filter="url(#glowr1x8423)"/><ellipse cx="430.9" cy="425.7" rx="38.4"  ry="8.2" fill="#ffffff" opacity=".88"/><ellipse cx="569.1" cy="425.7" rx="38.4"  ry="8.2" fill="#ffffff" opacity=".88"/><line x1="486.34072922566907" y1="414.05888936100524" x2="517.0580172307231" y2="414.61725892005484" stroke="#ff44aa" stroke-opacity=".52" stroke-width="2"/><line x1="486.00615725746377" y1="438.1224320992827" x2="514.4064997780509" y2="438.9033272953704" stroke="#ff44aa" stroke-opacity=".52" stroke-width="2"/><line x1="498.6030656949617" y1="455.7845276148058" x2="498.26050189640375" y2="483.94485240466895" stroke="#ff44aa" stroke-opacity=".58" stroke-width="2.2" filter="url(#skr1x8423)"/><line x1="455.6492133717798" y1="490.2636274227872" x2="455.5544027548097" y2="521.0700404820033" stroke="#ff44aa" stroke-opacity=".52" stroke-width="1.5" filter="url(#skr1x8423)"/><line x1="476.417505442854" y1="490.211463163048" x2="477.6855796835758" y2="520.9270425970666" stroke="#ff44aa" stroke-opacity=".52" stroke-width="1.5" filter="url(#skr1x8423)"/><line x1="499.488143981155" y1="492.63397294534366" x2="499.7856817406602" y2="521.6318950545043" stroke="#ff44aa" stroke-opacity=".52" stroke-width="1.5" filter="url(#skr1x8423)"/><line x1="524.7563954737595" y1="490.87395084407177" x2="524.3239340638369" y2="518.6868082057684" stroke="#ff44aa" stroke-opacity=".52" stroke-width="1.5" filter="url(#skr1x8423)"/><line x1="547.7916827772" y1="490.0400033297948" x2="547.707339827083" y2="521.2877805409953" stroke="#ff44aa" stroke-opacity=".52" stroke-width="1.5" filter="url(#skr1x8423)"/><polygon points="433.1,502.1 565.8,504.8 554.2,555.2 445.4,557.9" fill="#880050" fill-opacity=".72" stroke="#ff44aa" stroke-width="1.3" filter="url(#skr1x8423)"/><text x="30.0"  y="975.0" font-family="monospace" font-weight="bold" font-size="22.0" fill="rgba(255,255,255,.22)">#0001</text><text x="500.0"   y="975.0" text-anchor="middle" font-family="monospace" font-weight="bold" font-size="22.0" fill="#ff44aa" fill-opacity=".48">SAKURA RANGER</text><text x="970.0" y="975.0" text-anchor="end"    font-family="monospace" font-weight="bold" font-size="22.0" fill="#ff44aa" fill-opacity=".32">MECH RANGERS</text></svg>