<svg xmlns="http://www.w3.org/2000/svg" viewBox="0 0 1000 1000" width="1000" height="1000" shape-rendering="geometricPrecision"><defs>

  <!-- Scene gradients -->
  <radialGradient id="bgr1x8579" cx="50%" cy="42%" r="72%">
    <stop offset="0%"   stop-color="#1a2814"/>
    <stop offset="100%" stop-color="#0d1520"/>
  </radialGradient>
  <linearGradient id="suitr1x8579" x1="8%" y1="0%" x2="92%" y2="100%">
    <stop offset="0%"   stop-color="#00ff60" stop-opacity=".95"/>
    <stop offset="45%"  stop-color="#00441e"/>
    <stop offset="100%" stop-color="#0d1520"/>
  </linearGradient>
  <linearGradient id="suitHir1x8579" x1="0%" y1="0%" x2="0%" y2="100%">
    <stop offset="0%"   stop-color="rgba(255,255,255,.28)"/>
    <stop offset="60%"  stop-color="rgba(255,255,255,.04)"/>
    <stop offset="100%" stop-color="rgba(255,255,255,0)"/>
  </linearGradient>
  <!-- Bevel: bright top, dark bottom for armour panels -->
  <linearGradient id="bevelr1x8579" x1="0%" y1="0%" x2="0%" y2="100%">
    <stop offset="0%"   stop-color="rgba(255,255,255,.55)"/>
    <stop offset="30%"  stop-color="#00ff60"/>
    <stop offset="70%"  stop-color="#00441e"/>
    <stop offset="100%" stop-color="rgba(0,0,0,.5)"/>
  </linearGradient>

  <!-- Weapon: cold steel blade sweep -->
  <linearGradient id="blader1x8579" x1="0%" y1="0%" x2="100%" y2="0%">
    <stop offset="0%"   stop-color="#0e0e20"/>
    <stop offset="16%"  stop-color="#3e3e58"/>
    <stop offset="34%"  stop-color="#c8c8e0"/>
    <stop offset="50%"  stop-color="#f5f5ff"/>
    <stop offset="66%"  stop-color="#b8b8d0"/>
    <stop offset="84%"  stop-color="#2e2e48"/>
    <stop offset="100%" stop-color="#08080e"/>
  </linearGradient>
  <!-- Blade tip brightening -->
  <linearGradient id="bladeTipr1x8579" x1="0%" y1="100%" x2="0%" y2="0%">
    <stop offset="0%"   stop-color="rgba(255,255,255,0)"/>
    <stop offset="55%"  stop-color="rgba(255,255,255,.1)"/>
    <stop offset="100%" stop-color="rgba(255,255,255,.55)"/>
  </linearGradient>
  <!-- Gunmetal anodised — blaster body -->
  <linearGradient id="gunmetalr1x8579" x1="0%" y1="0%" x2="0%" y2="100%">
    <stop offset="0%"   stop-color="#46465e"/>
    <stop offset="18%"  stop-color="#828296"/>
    <stop offset="42%"  stop-color="#26263a"/>
    <stop offset="72%"  stop-color="#16162a"/>
    <stop offset="100%" stop-color="#0c0c18"/>
  </linearGradient>
  <!-- Brushed steel tube — barrel/rod -->
  <linearGradient id="barrelr1x8579" x1="0%" y1="0%" x2="100%" y2="0%">
    <stop offset="0%"   stop-color="#0a0a14"/>
    <stop offset="24%"  stop-color="#585875"/>
    <stop offset="50%"  stop-color="#a8a8c8"/>
    <stop offset="76%"  stop-color="#383852"/>
    <stop offset="100%" stop-color="#0a0a14"/>
  </linearGradient>
  <!-- Chrome rod — lance shaft -->
  <linearGradient id="chromer1x8579" x1="0%" y1="0%" x2="100%" y2="0%">
    <stop offset="0%"   stop-color="#0c0c18"/>
    <stop offset="20%"  stop-color="#686888"/>
    <stop offset="44%"  stop-color="#e0e0f0"/>
    <stop offset="56%"  stop-color="#c0c0d8"/>
    <stop offset="80%"  stop-color="#28283e"/>
    <stop offset="100%" stop-color="#0c0c18"/>
  </linearGradient>
  <!-- Titanium plate — shield face -->
  <linearGradient id="titaniumr1x8579" x1="0%" y1="0%" x2="100%" y2="100%">
    <stop offset="0%"   stop-color="#585878"/>
    <stop offset="28%"  stop-color="#00ff60" stop-opacity=".88"/>
    <stop offset="55%"  stop-color="#00441e"/>
    <stop offset="80%"  stop-color="#181828"/>
    <stop offset="100%" stop-color="#0a0a18"/>
  </linearGradient>
  <!-- Artillery black-chrome — cannon body -->
  <linearGradient id="artilleryr1x8579" x1="0%" y1="0%" x2="0%" y2="100%">
    <stop offset="0%"   stop-color="#383850"/>
    <stop offset="14%"  stop-color="#78789a"/>
    <stop offset="36%"  stop-color="#202034"/>
    <stop offset="65%"  stop-color="#14141e"/>
    <stop offset="100%" stop-color="#0a0a12"/>
  </linearGradient>
  <!-- Energy orb — staff -->
  <radialGradient id="orbr1x8579" cx="35%" cy="35%" r="65%">
    <stop offset="0%"   stop-color="rgba(255,255,255,.9)"/>
    <stop offset="30%"  stop-color="#00ff60"/>
    <stop offset="68%"  stop-color="#00441e"/>
    <stop offset="100%" stop-color="rgba(0,0,0,.6)"/>
  </radialGradient>
  <!-- Knuckle plate chrome -->
  <linearGradient id="knuckler1x8579" x1="0%" y1="0%" x2="0%" y2="100%">
    <stop offset="0%"   stop-color="#888aaa"/>
    <stop offset="32%"  stop-color="#00ff60" stop-opacity=".8"/>
    <stop offset="62%"  stop-color="#1a1a2c"/>
    <stop offset="100%" stop-color="#0a0a14"/>
  </linearGradient>

  <!-- Carbon fibre weave texture overlay -->
  <pattern id="carbonr1x8579" width="6" height="6" patternUnits="userSpaceOnUse">
    <rect width="6" height="6" fill="rgba(0,0,0,.08)"/>
    <rect x="0" y="0" width="3" height="3" fill="rgba(255,255,255,.022)"/>
    <rect x="3" y="3" width="3" height="3" fill="rgba(255,255,255,.022)"/>
    <line x1="0" y1="0" x2="3" y2="3" stroke="rgba(255,255,255,.038)" stroke-width=".5"/>
    <line x1="3" y1="0" x2="6" y2="3" stroke="rgba(0,0,0,.055)"       stroke-width=".5"/>
    <line x1="0" y1="3" x2="3" y2="6" stroke="rgba(0,0,0,.055)"       stroke-width=".5"/>
    <line x1="3" y1="3" x2="6" y2="6" stroke="rgba(255,255,255,.038)" stroke-width=".5"/>
  </pattern>

  <!-- Specular metal sheen on armour panels -->
  <filter id="metalr1x8579" x="-5%" y="-5%" width="110%" height="110%">
    <feSpecularLighting surfaceScale="4" specularConstant="1.8"
        specularExponent="42" lighting-color="#ffffff" result="spec">
      <feDistantLight elevation="52" azimuth="38"/>
    </feSpecularLighting>
    <feComposite in="spec" in2="SourceGraphic" operator="in" result="sm"/>
    <feComposite in="SourceGraphic" in2="sm" operator="arithmetic" k1="0" k2="1" k3="0.55" k4="0"/>
  </filter>

  <!-- Sharper specular for weapons — heavier glare -->
  <filter id="wmr1x8579" x="-8%" y="-8%" width="116%" height="116%">
    <feSpecularLighting surfaceScale="6" specularConstant="2.4"
        specularExponent="65" lighting-color="#ffffff" result="spec">
      <feDistantLight elevation="44" azimuth="28"/>
    </feSpecularLighting>
    <feComposite in="spec" in2="SourceGraphic" operator="in" result="sm"/>
    <feComposite in="SourceGraphic" in2="sm" operator="arithmetic" k1="0" k2="1" k3="0.78" k4="0"/>
  </filter>

  <!-- Sketch wobble -->
  <filter id="skr1x8579" x="-8%" y="-8%" width="116%" height="116%">
    <feTurbulence type="fractalNoise" baseFrequency="0.038"
        numOctaves="3" seed="48" result="noise"/>
    <feDisplacementMap in="SourceGraphic" in2="noise" scale="2.6"
        xChannelSelector="R" yChannelSelector="G" result="w"/>
    <feComposite in="w" in2="SourceGraphic" operator="atop"/>
  </filter>

  <!-- Glow: sharp accent -->
  <filter id="glowr1x8579" x="-20%" y="-20%" width="140%" height="140%">
    <feGaussianBlur stdDeviation="3.5" result="b"/>
    <feColorMatrix in="b" type="matrix"
        values="0 0 0 0 1  0 0 0 0 1  0 0 0 0 1  0 0 0 1.8 0" result="boost"/>
    <feMerge><feMergeNode in="boost"/><feMergeNode in="SourceGraphic"/></feMerge>
  </filter>

  <!-- Bloom: wide soft -->
  <filter id="bloomr1x8579" x="-40%" y="-40%" width="180%" height="180%">
    <feGaussianBlur stdDeviation="11" result="b"/>
    <feMerge><feMergeNode in="b"/><feMergeNode in="SourceGraphic"/></feMerge>
  </filter>

  </defs><rect width="1000" height="1000" fill="url(#bgr1x8579)"/><ellipse cx="500.0" cy="892.0" rx="350.0" ry="65.0" fill="rgba(0,0,0,.7)" filter="url(#bloomr1x8579)"/><ellipse cx="500.0" cy="889.0" rx="220.0" ry="34.0" fill="rgba(0,0,0,.45)"/><ellipse cx="500.0" cy="520.0" rx="320.0" ry="480.0" fill="#ffffff" fill-opacity=".042" filter="url(#bloomr1x8579)"/><circle cx="489.5" cy="287.1" r="4.2" fill="#ffffff" fill-opacity="0.44" filter="url(#glowr1x8579)"/><circle cx="352.9" cy="580.0" r="2.6" fill="#ffffff" fill-opacity="0.58" filter="url(#glowr1x8579)"/><circle cx="728.1" cy="741.3" r="2.7" fill="#ffffff" fill-opacity="0.40" filter="url(#glowr1x8579)"/><circle cx="430.0" cy="432.5" r="0.7" fill="#ffffff" fill-opacity="0.74" filter="url(#glowr1x8579)"/><circle cx="635.7" cy="344.6" r="2.9" fill="#ffffff" fill-opacity="0.43" filter="url(#glowr1x8579)"/><circle cx="339.7" cy="633.9" r="2.3" fill="#ffffff" fill-opacity="0.67" filter="url(#glowr1x8579)"/><circle cx="391.2" cy="182.0" r="3.4" fill="#ffffff" fill-opacity="0.70" filter="url(#glowr1x8579)"/><circle cx="323.6" cy="415.8" r="0.6" fill="#ffffff" fill-opacity="0.84" filter="url(#glowr1x8579)"/><circle cx="691.8" cy="705.4" r="2.1" fill="#ffffff" fill-opacity="0.86" filter="url(#glowr1x8579)"/><circle cx="288.6" cy="240.5" r="0.7" fill="#ffffff" fill-opacity="0.71" filter="url(#glowr1x8579)"/><circle cx="320.5" cy="302.4" r="3.4" fill="#ffffff" fill-opacity="0.60" filter="url(#glowr1x8579)"/><circle cx="574.2" cy="540.2" r="4.1" fill="#ffffff" fill-opacity="0.48" filter="url(#glowr1x8579)"/><circle cx="498.8" cy="449.8" r="1.1" fill="#ffffff" fill-opacity="0.48" filter="url(#glowr1x8579)"/><circle cx="503.7" cy="269.0" r="2.4" fill="#ffffff" fill-opacity="0.82" filter="url(#glowr1x8579)"/><polygon points="397.4,662.9 488.1,662.6 479.9,878.4 386.1,876.4" fill="url(#suitr1x8579)" stroke="#00ff60" stroke-width="2.2" filter="url(#skr1x8579) url(#metalr1x8579)"/><polygon points="400.5,661.6 489.4,661.0 479.9,876.4 386.5,878.7" fill="url(#carbonr1x8579)"/><polygon points="393.7,722.5 494.1,724.8 482.4,790.0 382.6,787.2" fill="url(#bevelr1x8579)" fill-opacity=".5" stroke="#00ff60" stroke-width="1.4" filter="url(#skr1x8579)"/><polygon points="512.1,662.6 599.4,661.0 611.3,877.6 520.7,877.4" fill="url(#suitr1x8579)" stroke="#00ff60" stroke-width="2.2" filter="url(#skr1x8579) url(#metalr1x8579)"/><polygon points="510.1,662.7 602.7,660.7 612.6,879.0 521.1,877.6" fill="url(#carbonr1x8579)"/><polygon points="508.7,723.8 606.9,724.1 616.7,787.8 516.1,787.0" fill="url(#bevelr1x8579)" fill-opacity=".5" stroke="#00ff60" stroke-width="1.4" filter="url(#skr1x8579)"/><rect x="394.4" y="840.1" width="100.3" height="24.7" fill="url(#bevelr1x8579)" stroke="#00ff60" stroke-width="1" filter="url(#skr1x8579)"/><rect x="505.8"  y="838.5" width="100.3" height="24.7" fill="url(#bevelr1x8579)" stroke="#00ff60" stroke-width="1" filter="url(#skr1x8579)"/><polygon points="369.5,878.7 494.8,876.9 502.0,922.3 360.9,920.2" fill="#00441e" stroke="#00ff60" stroke-width="2" filter="url(#skr1x8579)"/><polygon points="503.6,879.2 628.5,877.8 638.1,920.8 497.6,922.6" fill="#00441e" stroke="#00ff60" stroke-width="2" filter="url(#skr1x8579)"/><polygon points="302.9,634.0 697.6,631.7 638.9,683.8 363.1,681.8" fill="#00ff60" fill-opacity=".52" stroke="#00ff60" stroke-width="2" filter="url(#skr1x8579)"/><rect x="463.9" y="639.3" width="72.0" height="42.0" fill="url(#bevelr1x8579)" stroke="#00ff60" stroke-width="1.4" filter="url(#glowr1x8579)"/><rect x="485.0" y="641.1" width="28.0" height="22.0" rx="1" fill="rgba(255,255,255,.48)"/><polygon points="153.5,466.9 235.9,467.0 259.4,734.3 129.6,734.8" fill="url(#suitr1x8579)" stroke="#00ff60" stroke-width="2.2" filter="url(#skr1x8579) url(#metalr1x8579)"/><polygon points="173.4,432.1 252.2,430.6 244.4,509.8 158.2,512.4" fill="url(#bevelr1x8579)" fill-opacity=".72" stroke="#00ff60" stroke-width="2.2" filter="url(#skr1x8579)"/><polygon points="159.7,622.9 241.9,622.0 237.5,662.4 164.9,659.2" fill="#00ff60" fill-opacity=".42" stroke="#00ff60" stroke-width="1" filter="url(#skr1x8579)"/><polygon points="763.5,468.2 845.8,464.8 870.0,736.5 741.3,734.0" fill="url(#suitr1x8579)" stroke="#00ff60" stroke-width="2.2" filter="url(#skr1x8579) url(#metalr1x8579)"/><polygon points="746.3,431.5 824.9,433.1 839.8,510.7 755.1,509.6" fill="url(#bevelr1x8579)" fill-opacity=".72" stroke="#00ff60" stroke-width="2.2" filter="url(#skr1x8579)"/><polygon points="755.1,620.6 839.8,623.2 834.4,661.7 762.4,660.7" fill="#00ff60" fill-opacity=".42" stroke="#00ff60" stroke-width="1" filter="url(#skr1x8579)"/><rect x="120.5"  y="701.5" width="135.3" height="85.0" rx="4" fill="url(#bevelr1x8579)" stroke="#00ff60" stroke-width="1.8" filter="url(#skr1x8579)"/><rect x="747.6"   y="699.0" width="135.3" height="85.0" rx="4" fill="url(#bevelr1x8579)" stroke="#00ff60" stroke-width="1.8" filter="url(#skr1x8579)"/><line x1="148.8" y1="703.0" x2="150.0" y2="785.3" stroke="#00ff60" stroke-opacity=".38" stroke-width="1"/><line x1="777.0" y1="700.6" x2="778.1" y2="782.8" stroke="#00ff60" stroke-opacity=".38" stroke-width="1"/><line x1="181.0" y1="700.5" x2="184.2" y2="784.8" stroke="#00ff60" stroke-opacity=".38" stroke-width="1"/><line x1="810.9" y1="700.4" x2="811.4" y2="783.6" stroke="#00ff60" stroke-opacity=".38" stroke-width="1"/><line x1="215.9" y1="703.0" x2="217.0" y2="784.9" stroke="#00ff60" stroke-opacity=".38" stroke-width="1"/><line x1="843.7" y1="701.2" x2="845.4" y2="785.6" stroke="#00ff60" stroke-opacity=".38" stroke-width="1"/><polygon points="235.6,419.1 764.7,416.9 721.9,662.7 276.0,663.2" fill="url(#suitr1x8579)" stroke="#00ff60" stroke-width="2.6" filter="url(#skr1x8579) url(#metalr1x8579)"/><polygon points="233.6,415.9 764.3,415.8 723.8,663.8 276.0,662.2" fill="url(#carbonr1x8579)"/><polygon points="366.2,418.8 633.9,416.6 610.2,516.5 388.8,515.0" fill="url(#suitHir1x8579)"/><line x1="361.2" y1="469.8" x2="637.7" y2="472.4" stroke="#00ff60" stroke-opacity=".52" stroke-width="1.3" filter="url(#skr1x8579)"/><line x1="399.5" y1="550.7" x2="601.2" y2="549.0" stroke="#00ff60" stroke-opacity=".52" stroke-width="1.3" filter="url(#skr1x8579)"/><line x1="267.7" y1="490.8" x2="319.1" y2="491.0" stroke="#00ff60" stroke-opacity=".62" stroke-width="1.8"/><line x1="681.0" y1="492.7" x2="734.8" y2="492.1" stroke="#00ff60" stroke-opacity=".62" stroke-width="1.8"/><line x1="267.5" y1="524.6" x2="318.1" y2="522.6" stroke="#00ff60" stroke-opacity=".62" stroke-width="1.8"/><line x1="680.3" y1="521.9" x2="734.6" y2="522.2" stroke="#00ff60" stroke-opacity=".62" stroke-width="1.8"/><line x1="268.1" y1="556.1" x2="321.3" y2="553.9" stroke="#00ff60" stroke-opacity=".62" stroke-width="1.8"/><line x1="680.1" y1="555.9" x2="731.5" y2="555.9" stroke="#00ff60" stroke-opacity=".62" stroke-width="1.8"/><line x1="266.0" y1="586.6" x2="318.9" y2="585.4" stroke="#00ff60" stroke-opacity=".62" stroke-width="1.8"/><line x1="680.4" y1="587.3" x2="734.7" y2="585.2" stroke="#00ff60" stroke-opacity=".62" stroke-width="1.8"/><g filter="url(#glowr1x8579)"><polygon points="500.3,453.3 516.5,489.0 555.8,493.2 523.3,517.0 535.7,557.3 500.0,535.0 465.2,556.6 476.0,519.6 443.4,493.2 484.8,488.4 " fill="#00ff60" stroke="#0d1520" stroke-width="1.4" filter="url(#skr1x8579)"/><polygon points="500.3,453.3 516.5,489.0 555.8,493.2 523.3,517.0 535.7,557.3 500.0,535.0 465.2,556.6 476.0,519.6 443.4,493.2 484.8,488.4 " fill="url(#suitHir1x8579)" opacity=".45"/></g><g><polygon points="30.7,292.4 170.4,292.5 173.6,589.6 100.7,726.2 31.9,589.7" fill="url(#titaniumr1x8579)" stroke="#00ff60" stroke-width="2.6" filter="url(#wmr1x8579)"/><polygon points="32.8,294.0 172.0,294.1 172.9,590.0 103.9,726.8 32.8,592.8" fill="url(#carbonr1x8579)"/><polygon points="64.0,362.5 141.5,361.4 141.4,541.2 101.5,632.2 63.8,539.7" fill="#00ff60" fill-opacity=".28" stroke="#00ff60" stroke-width="1.5"/><line x1="50.393624063059654" y1="432.7615594508126" x2="152.53649342007932" y2="432.63894291864705" stroke="#00ff60" stroke-opacity=".65" stroke-width="1.3"/><line x1="102.19074344536287" y1="331.76361244218424" x2="102.97725759021935" y2="592.0622495058924" stroke="#00ff60" stroke-opacity=".4" stroke-width="1"/><line x1="33.15025750616562" y1="297.1248002780601" x2="171.1779077574983" y2="295.69669139273464" stroke="rgba(255,255,255,.5)" stroke-width="2"/><circle cx="103.14708077138286" cy="430.26256134537977" r="18.0" fill="url(#bevelr1x8579)" stroke="#00ff60" stroke-width="1.2" filter="url(#wmr1x8579)"/></g><rect x="449.1555486015044" y="557.6601388570853" width="100.0"  height="56.0" fill="#00441e" stroke="#00ff60" stroke-width="2.2" filter="url(#skr1x8579)"/><rect x="423.3829579083249" y="575.021978919115" width="152.0" height="26.0" fill="url(#bevelr1x8579)" fill-opacity=".65" stroke="#00ff60" stroke-width="1.2" filter="url(#skr1x8579)"/><polygon points="309.2,381.1 348.5,293.1 498.7,277.1 649.8,295.1 693.5,380.8 667.3,502.7 501.8,564.7 331.4,502.6" fill="url(#suitr1x8579)" stroke="#00ff60" stroke-width="2.8" filter="url(#skr1x8579) url(#metalr1x8579)"/><polygon points="308.6,381.6 348.7,292.9 501.8,276.8 650.7,295.4 691.2,381.7 667.5,502.0 501.3,563.7 330.2,504.0" fill="url(#carbonr1x8579)"/><polygon points="381.5,302.2 499.9,286.4 617.7,304.0 607.9,380.0 391.3,380.7" fill="url(#suitHir1x8579)"/><polygon points="382.3,379.8 364.2,426.6 434.5,502.4 500.7,527.8 567.1,503.1 634.3,424.1 619.1,380.6" fill="#0d1520" fill-opacity=".88" stroke="#00ff60" stroke-width="1.8" filter="url(#skr1x8579)"/><polygon points="380.9,411.4 477.2,412.7 486.2,439.6 387.7,439.7" fill="#00ff60" filter="url(#glowr1x8579)"/><polygon points="522.9,410.0 618.7,412.8 612.9,440.4 515.0,439.4" fill="#00ff60" filter="url(#glowr1x8579)"/><ellipse cx="430.9" cy="425.7" rx="38.4"  ry="8.2" fill="#ffffff" opacity=".88"/><ellipse cx="569.1" cy="425.7" rx="38.4"  ry="8.2" fill="#ffffff" opacity=".88"/><line x1="485.32597477618606" y1="413.31339759556573" x2="514.9576161502301" y2="411.940147953853" stroke="#00ff60" stroke-opacity=".52" stroke-width="2"/><line x1="485.6778155746497" y1="436.3082489845343" x2="516.5014140203036" y2="438.31181813869625" stroke="#00ff60" stroke-opacity=".52" stroke-width="2"/><line x1="499.0429602378048" y1="452.767477290146" x2="499.08047783756626" y2="481.49743784563617" stroke="#00ff60" stroke-opacity=".58" stroke-width="2.2" filter="url(#skr1x8579)"/><line x1="453.7598616008461" y1="491.0254752309061" x2="452.48447016904134" y2="520.2754720767028" stroke="#00ff60" stroke-opacity=".52" stroke-width="1.5" filter="url(#skr1x8579)"/><line x1="476.85990449920297" y1="489.8706222856417" x2="478.45111538073047" y2="518.2546651950106" stroke="#00ff60" stroke-opacity=".52" stroke-width="1.5" filter="url(#skr1x8579)"/><line x1="500.03259843094276" y1="490.783413490653" x2="498.54053935101257" y2="520.5316237995401" stroke="#00ff60" stroke-opacity=".52" stroke-width="1.5" filter="url(#skr1x8579)"/><line x1="521.364276261311" y1="490.7848801535554" x2="524.8178986128047" y2="518.742640714068" stroke="#00ff60" stroke-opacity=".52" stroke-width="1.5" filter="url(#skr1x8579)"/><line x1="547.4219023288414" y1="492.99109328249466" x2="546.0092363985442" y2="521.7422056301497" stroke="#00ff60" stroke-opacity=".52" stroke-width="1.5" filter="url(#skr1x8579)"/><polygon points="432.6,504.5 566.1,504.5 554.8,558.0 445.6,555.6" fill="#00441e" fill-opacity=".72" stroke="#00ff60" stroke-width="1.3" filter="url(#skr1x8579)"/><polygon points="317.3,304.8 363.2,305.0 339.4,196.9" fill="url(#bevelr1x8579)" fill-opacity=".95" stroke="#00ff60" stroke-width="1.6" filter="url(#skr1x8579) url(#glowr1x8579)"/><polygon points="396.4,304.6 441.6,306.4 417.6,210.4" fill="url(#bevelr1x8579)" fill-opacity=".95" stroke="#00ff60" stroke-width="1.6" filter="url(#skr1x8579) url(#glowr1x8579)"/><polygon points="478.2,304.3 522.7,303.1 498.7,221.8" fill="url(#bevelr1x8579)" fill-opacity=".95" stroke="#00ff60" stroke-width="1.6" filter="url(#skr1x8579) url(#glowr1x8579)"/><polygon points="558.9,304.4 602.5,304.9 582.1,207.7" fill="url(#bevelr1x8579)" fill-opacity=".95" stroke="#00ff60" stroke-width="1.6" filter="url(#skr1x8579) url(#glowr1x8579)"/><polygon points="636.9,304.2 685.0,305.0 660.4,195.2" fill="url(#bevelr1x8579)" fill-opacity=".95" stroke="#00ff60" stroke-width="1.6" filter="url(#skr1x8579) url(#glowr1x8579)"/><text x="30.0"  y="975.0" font-family="monospace" font-weight="bold" font-size="22.0" fill="rgba(255,255,255,.22)">#0001</text><text x="500.0"   y="975.0" text-anchor="middle" font-family="monospace" font-weight="bold" font-size="22.0" fill="#00ff60" fill-opacity=".48">VIPER RANGER</text><text x="970.0" y="975.0" text-anchor="end"    font-family="monospace" font-weight="bold" font-size="22.0" fill="#00ff60" fill-opacity=".32">MECH RANGERS</text></svg>