<svg xmlns="http://www.w3.org/2000/svg" viewBox="0 0 1000 1000" width="1000" height="1000" shape-rendering="geometricPrecision"><defs>

  <!-- Scene gradients -->
  <radialGradient id="bgr1x8591" cx="50%" cy="42%" r="72%">
    <stop offset="0%"   stop-color="#001422"/>
    <stop offset="100%" stop-color="#000a14"/>
  </radialGradient>
  <linearGradient id="suitr1x8591" x1="8%" y1="0%" x2="92%" y2="100%">
    <stop offset="0%"   stop-color="#ffd700" stop-opacity=".95"/>
    <stop offset="45%"  stop-color="#503400"/>
    <stop offset="100%" stop-color="#000a14"/>
  </linearGradient>
  <linearGradient id="suitHir1x8591" x1="0%" y1="0%" x2="0%" y2="100%">
    <stop offset="0%"   stop-color="rgba(255,255,255,.28)"/>
    <stop offset="60%"  stop-color="rgba(255,255,255,.04)"/>
    <stop offset="100%" stop-color="rgba(255,255,255,0)"/>
  </linearGradient>
  <!-- Bevel: bright top, dark bottom for armour panels -->
  <linearGradient id="bevelr1x8591" x1="0%" y1="0%" x2="0%" y2="100%">
    <stop offset="0%"   stop-color="rgba(255,255,255,.55)"/>
    <stop offset="30%"  stop-color="#ffd700"/>
    <stop offset="70%"  stop-color="#503400"/>
    <stop offset="100%" stop-color="rgba(0,0,0,.5)"/>
  </linearGradient>

  <!-- Weapon: cold steel blade sweep -->
  <linearGradient id="blader1x8591" x1="0%" y1="0%" x2="100%" y2="0%">
    <stop offset="0%"   stop-color="#0e0e20"/>
    <stop offset="16%"  stop-color="#3e3e58"/>
    <stop offset="34%"  stop-color="#c8c8e0"/>
    <stop offset="50%"  stop-color="#f5f5ff"/>
    <stop offset="66%"  stop-color="#b8b8d0"/>
    <stop offset="84%"  stop-color="#2e2e48"/>
    <stop offset="100%" stop-color="#08080e"/>
  </linearGradient>
  <!-- Blade tip brightening -->
  <linearGradient id="bladeTipr1x8591" x1="0%" y1="100%" x2="0%" y2="0%">
    <stop offset="0%"   stop-color="rgba(255,255,255,0)"/>
    <stop offset="55%"  stop-color="rgba(255,255,255,.1)"/>
    <stop offset="100%" stop-color="rgba(255,255,255,.55)"/>
  </linearGradient>
  <!-- Gunmetal anodised — blaster body -->
  <linearGradient id="gunmetalr1x8591" x1="0%" y1="0%" x2="0%" y2="100%">
    <stop offset="0%"   stop-color="#46465e"/>
    <stop offset="18%"  stop-color="#828296"/>
    <stop offset="42%"  stop-color="#26263a"/>
    <stop offset="72%"  stop-color="#16162a"/>
    <stop offset="100%" stop-color="#0c0c18"/>
  </linearGradient>
  <!-- Brushed steel tube — barrel/rod -->
  <linearGradient id="barrelr1x8591" x1="0%" y1="0%" x2="100%" y2="0%">
    <stop offset="0%"   stop-color="#0a0a14"/>
    <stop offset="24%"  stop-color="#585875"/>
    <stop offset="50%"  stop-color="#a8a8c8"/>
    <stop offset="76%"  stop-color="#383852"/>
    <stop offset="100%" stop-color="#0a0a14"/>
  </linearGradient>
  <!-- Chrome rod — lance shaft -->
  <linearGradient id="chromer1x8591" x1="0%" y1="0%" x2="100%" y2="0%">
    <stop offset="0%"   stop-color="#0c0c18"/>
    <stop offset="20%"  stop-color="#686888"/>
    <stop offset="44%"  stop-color="#e0e0f0"/>
    <stop offset="56%"  stop-color="#c0c0d8"/>
    <stop offset="80%"  stop-color="#28283e"/>
    <stop offset="100%" stop-color="#0c0c18"/>
  </linearGradient>
  <!-- Titanium plate — shield face -->
  <linearGradient id="titaniumr1x8591" x1="0%" y1="0%" x2="100%" y2="100%">
    <stop offset="0%"   stop-color="#585878"/>
    <stop offset="28%"  stop-color="#ffd700" stop-opacity=".88"/>
    <stop offset="55%"  stop-color="#503400"/>
    <stop offset="80%"  stop-color="#181828"/>
    <stop offset="100%" stop-color="#0a0a18"/>
  </linearGradient>
  <!-- Artillery black-chrome — cannon body -->
  <linearGradient id="artilleryr1x8591" x1="0%" y1="0%" x2="0%" y2="100%">
    <stop offset="0%"   stop-color="#383850"/>
    <stop offset="14%"  stop-color="#78789a"/>
    <stop offset="36%"  stop-color="#202034"/>
    <stop offset="65%"  stop-color="#14141e"/>
    <stop offset="100%" stop-color="#0a0a12"/>
  </linearGradient>
  <!-- Energy orb — staff -->
  <radialGradient id="orbr1x8591" cx="35%" cy="35%" r="65%">
    <stop offset="0%"   stop-color="rgba(255,255,255,.9)"/>
    <stop offset="30%"  stop-color="#ffd700"/>
    <stop offset="68%"  stop-color="#503400"/>
    <stop offset="100%" stop-color="rgba(0,0,0,.6)"/>
  </radialGradient>
  <!-- Knuckle plate chrome -->
  <linearGradient id="knuckler1x8591" x1="0%" y1="0%" x2="0%" y2="100%">
    <stop offset="0%"   stop-color="#888aaa"/>
    <stop offset="32%"  stop-color="#ffd700" stop-opacity=".8"/>
    <stop offset="62%"  stop-color="#1a1a2c"/>
    <stop offset="100%" stop-color="#0a0a14"/>
  </linearGradient>

  <!-- Carbon fibre weave texture overlay -->
  <pattern id="carbonr1x8591" width="6" height="6" patternUnits="userSpaceOnUse">
    <rect width="6" height="6" fill="rgba(0,0,0,.08)"/>
    <rect x="0" y="0" width="3" height="3" fill="rgba(255,255,255,.022)"/>
    <rect x="3" y="3" width="3" height="3" fill="rgba(255,255,255,.022)"/>
    <line x1="0" y1="0" x2="3" y2="3" stroke="rgba(255,255,255,.038)" stroke-width=".5"/>
    <line x1="3" y1="0" x2="6" y2="3" stroke="rgba(0,0,0,.055)"       stroke-width=".5"/>
    <line x1="0" y1="3" x2="3" y2="6" stroke="rgba(0,0,0,.055)"       stroke-width=".5"/>
    <line x1="3" y1="3" x2="6" y2="6" stroke="rgba(255,255,255,.038)" stroke-width=".5"/>
  </pattern>

  <!-- Specular metal sheen on armour panels -->
  <filter id="metalr1x8591" x="-5%" y="-5%" width="110%" height="110%">
    <feSpecularLighting surfaceScale="4" specularConstant="1.8"
        specularExponent="42" lighting-color="#ffffff" result="spec">
      <feDistantLight elevation="52" azimuth="38"/>
    </feSpecularLighting>
    <feComposite in="spec" in2="SourceGraphic" operator="in" result="sm"/>
    <feComposite in="SourceGraphic" in2="sm" operator="arithmetic" k1="0" k2="1" k3="0.55" k4="0"/>
  </filter>

  <!-- Sharper specular for weapons — heavier glare -->
  <filter id="wmr1x8591" x="-8%" y="-8%" width="116%" height="116%">
    <feSpecularLighting surfaceScale="6" specularConstant="2.4"
        specularExponent="65" lighting-color="#ffffff" result="spec">
      <feDistantLight elevation="44" azimuth="28"/>
    </feSpecularLighting>
    <feComposite in="spec" in2="SourceGraphic" operator="in" result="sm"/>
    <feComposite in="SourceGraphic" in2="sm" operator="arithmetic" k1="0" k2="1" k3="0.78" k4="0"/>
  </filter>

  <!-- Sketch wobble -->
  <filter id="skr1x8591" x="-8%" y="-8%" width="116%" height="116%">
    <feTurbulence type="fractalNoise" baseFrequency="0.038"
        numOctaves="3" seed="83" result="noise"/>
    <feDisplacementMap in="SourceGraphic" in2="noise" scale="2.6"
        xChannelSelector="R" yChannelSelector="G" result="w"/>
    <feComposite in="w" in2="SourceGraphic" operator="atop"/>
  </filter>

  <!-- Glow: sharp accent -->
  <filter id="glowr1x8591" x="-20%" y="-20%" width="140%" height="140%">
    <feGaussianBlur stdDeviation="3.5" result="b"/>
    <feColorMatrix in="b" type="matrix"
        values="0 0 0 0 1  0 0 0 0 1  0 0 0 0 1  0 0 0 1.8 0" result="boost"/>
    <feMerge><feMergeNode in="boost"/><feMergeNode in="SourceGraphic"/></feMerge>
  </filter>

  <!-- Bloom: wide soft -->
  <filter id="bloomr1x8591" x="-40%" y="-40%" width="180%" height="180%">
    <feGaussianBlur stdDeviation="11" result="b"/>
    <feMerge><feMergeNode in="b"/><feMergeNode in="SourceGraphic"/></feMerge>
  </filter>

  </defs><rect width="1000" height="1000" fill="url(#bgr1x8591)"/><line x1="0" y1="-1.9" x2="1000" y2="2.7" stroke="#ffd700" stroke-opacity=".055" stroke-width="1.2"/><line x1="-0.5" y1="0" x2="0.1" y2="1000" stroke="#ffd700" stroke-opacity=".055" stroke-width="1.2"/><line x1="0" y1="99.3" x2="1000" y2="101.2" stroke="#ffd700" stroke-opacity=".055" stroke-width="1.2"/><line x1="97.0" y1="0" x2="101.0" y2="1000" stroke="#ffd700" stroke-opacity=".055" stroke-width="1.2"/><line x1="0" y1="200.1" x2="1000" y2="203.0" stroke="#ffd700" stroke-opacity=".055" stroke-width="1.2"/><line x1="197.6" y1="0" x2="201.9" y2="1000" stroke="#ffd700" stroke-opacity=".055" stroke-width="1.2"/><line x1="0" y1="298.1" x2="1000" y2="298.9" stroke="#ffd700" stroke-opacity=".055" stroke-width="1.2"/><line x1="298.2" y1="0" x2="302.8" y2="1000" stroke="#ffd700" stroke-opacity=".055" stroke-width="1.2"/><line x1="0" y1="399.3" x2="1000" y2="397.2" stroke="#ffd700" stroke-opacity=".055" stroke-width="1.2"/><line x1="402.2" y1="0" x2="401.2" y2="1000" stroke="#ffd700" stroke-opacity=".055" stroke-width="1.2"/><line x1="0" y1="501.9" x2="1000" y2="502.1" stroke="#ffd700" stroke-opacity=".055" stroke-width="1.2"/><line x1="502.9" y1="0" x2="500.8" y2="1000" stroke="#ffd700" stroke-opacity=".055" stroke-width="1.2"/><line x1="0" y1="602.2" x2="1000" y2="598.8" stroke="#ffd700" stroke-opacity=".055" stroke-width="1.2"/><line x1="598.1" y1="0" x2="602.3" y2="1000" stroke="#ffd700" stroke-opacity=".055" stroke-width="1.2"/><line x1="0" y1="697.1" x2="1000" y2="701.6" stroke="#ffd700" stroke-opacity=".055" stroke-width="1.2"/><line x1="702.3" y1="0" x2="700.8" y2="1000" stroke="#ffd700" stroke-opacity=".055" stroke-width="1.2"/><line x1="0" y1="798.4" x2="1000" y2="800.7" stroke="#ffd700" stroke-opacity=".055" stroke-width="1.2"/><line x1="799.5" y1="0" x2="797.0" y2="1000" stroke="#ffd700" stroke-opacity=".055" stroke-width="1.2"/><line x1="0" y1="898.3" x2="1000" y2="897.9" stroke="#ffd700" stroke-opacity=".055" stroke-width="1.2"/><line x1="900.3" y1="0" x2="901.5" y2="1000" stroke="#ffd700" stroke-opacity=".055" stroke-width="1.2"/><path d="M80,30 L30,30 L30,80" stroke="#ffd700" stroke-opacity=".45" stroke-width="2" fill="none" filter="url(#glowr1x8591)"/><path d="M920,30 L970,30 L970,80" stroke="#ffd700" stroke-opacity=".45" stroke-width="2" fill="none" filter="url(#glowr1x8591)"/><path d="M30,920 L30,970 L80,970" stroke="#ffd700" stroke-opacity=".45" stroke-width="2" fill="none" filter="url(#glowr1x8591)"/><path d="M970,920 L970,970 L920,970" stroke="#ffd700" stroke-opacity=".45" stroke-width="2" fill="none" filter="url(#glowr1x8591)"/><ellipse cx="500.0" cy="892.0" rx="350.0" ry="65.0" fill="rgba(0,0,0,.7)" filter="url(#bloomr1x8591)"/><ellipse cx="500.0" cy="889.0" rx="220.0" ry="34.0" fill="rgba(0,0,0,.45)"/><polygon points="398.8,661.5 490.6,661.8 478.9,876.0 385.9,875.8" fill="url(#suitr1x8591)" stroke="#ffd700" stroke-width="2.2" filter="url(#skr1x8591) url(#metalr1x8591)"/><polygon points="399.1,663.6 488.1,661.3 480.0,875.9 389.1,878.1" fill="url(#carbonr1x8591)"/><polygon points="393.3,724.8 491.3,722.6 484.9,787.7 382.4,787.1" fill="url(#bevelr1x8591)" fill-opacity=".5" stroke="#ffd700" stroke-width="1.4" filter="url(#skr1x8591)"/><polygon points="508.8,662.5 601.7,663.6 614.3,876.0 517.9,876.9" fill="url(#suitr1x8591)" stroke="#ffd700" stroke-width="2.2" filter="url(#skr1x8591) url(#metalr1x8591)"/><polygon points="509.5,664.0 600.9,662.1 613.5,877.8 520.0,877.8" fill="url(#carbonr1x8591)"/><polygon points="506.4,724.6 608.7,724.2 614.8,787.3 517.0,789.9" fill="url(#bevelr1x8591)" fill-opacity=".5" stroke="#ffd700" stroke-width="1.4" filter="url(#skr1x8591)"/><rect x="392.9" y="837.3" width="100.3" height="24.7" fill="url(#bevelr1x8591)" stroke="#ffd700" stroke-width="1" filter="url(#skr1x8591)"/><rect x="506.2"  y="839.2" width="100.3" height="24.7" fill="url(#bevelr1x8591)" stroke="#ffd700" stroke-width="1" filter="url(#skr1x8591)"/><polygon points="369.6,878.4 497.7,876.7 504.4,920.8 364.1,921.8" fill="#503400" stroke="#ffd700" stroke-width="2" filter="url(#skr1x8591)"/><polygon points="504.6,877.5 629.9,876.5 637.8,922.2 495.5,923.1" fill="#503400" stroke="#ffd700" stroke-width="2" filter="url(#skr1x8591)"/><polygon points="303.4,634.1 697.7,631.8 637.7,683.3 363.6,683.6" fill="#ffd700" fill-opacity=".52" stroke="#ffd700" stroke-width="2" filter="url(#skr1x8591)"/><rect x="464.0" y="637.8" width="72.0" height="42.0" fill="url(#bevelr1x8591)" stroke="#ffd700" stroke-width="1.4" filter="url(#glowr1x8591)"/><rect x="485.8" y="639.2" width="28.0" height="22.0" rx="1" fill="rgba(255,255,255,.48)"/><polygon points="152.6,465.5 233.9,468.2 258.2,733.3 127.2,735.6" fill="url(#suitr1x8591)" stroke="#ffd700" stroke-width="2.2" filter="url(#skr1x8591) url(#metalr1x8591)"/><polygon points="172.1,432.9 252.8,433.5 242.7,510.0 159.7,509.6" fill="url(#bevelr1x8591)" fill-opacity=".72" stroke="#ffd700" stroke-width="2.2" filter="url(#skr1x8591)"/><polygon points="160.2,622.2 244.9,622.4 237.4,660.8 163.5,662.4" fill="#ffd700" fill-opacity=".42" stroke="#ffd700" stroke-width="1" filter="url(#skr1x8591)"/><polygon points="766.3,466.9 847.9,466.9 870.6,736.8 741.2,733.6" fill="url(#suitr1x8591)" stroke="#ffd700" stroke-width="2.2" filter="url(#skr1x8591) url(#metalr1x8591)"/><polygon points="745.7,432.3 826.6,433.1 840.1,510.0 755.1,508.9" fill="url(#bevelr1x8591)" fill-opacity=".72" stroke="#ffd700" stroke-width="2.2" filter="url(#skr1x8591)"/><polygon points="757.6,622.0 837.5,623.5 833.9,659.9 759.3,660.7" fill="#ffd700" fill-opacity=".42" stroke="#ffd700" stroke-width="1" filter="url(#skr1x8591)"/><rect x="119.6"  y="700.1" width="135.3" height="85.0" rx="4" fill="url(#bevelr1x8591)" stroke="#ffd700" stroke-width="1.8" filter="url(#skr1x8591)"/><rect x="747.3"   y="698.6" width="135.3" height="85.0" rx="4" fill="url(#bevelr1x8591)" stroke="#ffd700" stroke-width="1.8" filter="url(#skr1x8591)"/><line x1="150.2" y1="703.5" x2="150.2" y2="784.6" stroke="#ffd700" stroke-opacity=".38" stroke-width="1"/><line x1="779.8" y1="702.6" x2="776.9" y2="783.6" stroke="#ffd700" stroke-opacity=".38" stroke-width="1"/><line x1="181.7" y1="700.6" x2="184.2" y2="782.7" stroke="#ffd700" stroke-opacity=".38" stroke-width="1"/><line x1="812.1" y1="701.4" x2="810.3" y2="782.7" stroke="#ffd700" stroke-opacity=".38" stroke-width="1"/><line x1="216.7" y1="701.5" x2="214.9" y2="782.1" stroke="#ffd700" stroke-opacity=".38" stroke-width="1"/><line x1="843.8" y1="700.5" x2="842.5" y2="782.2" stroke="#ffd700" stroke-opacity=".38" stroke-width="1"/><polygon points="236.7,416.7 765.0,418.6 721.0,662.9 277.9,663.0" fill="url(#suitr1x8591)" stroke="#ffd700" stroke-width="2.6" filter="url(#skr1x8591) url(#metalr1x8591)"/><polygon points="233.4,418.5 766.8,416.9 721.9,661.5 276.2,662.4" fill="url(#carbonr1x8591)"/><polygon points="367.0,416.6 633.4,417.9 610.6,515.9 388.0,514.3" fill="url(#suitHir1x8591)"/><line x1="361.4" y1="469.9" x2="638.1" y2="470.9" stroke="#ffd700" stroke-opacity=".52" stroke-width="1.3" filter="url(#skr1x8591)"/><line x1="399.1" y1="548.5" x2="600.8" y2="549.3" stroke="#ffd700" stroke-opacity=".52" stroke-width="1.3" filter="url(#skr1x8591)"/><line x1="268.1" y1="489.5" x2="318.4" y2="490.2" stroke="#ffd700" stroke-opacity=".62" stroke-width="1.8"/><line x1="680.9" y1="489.6" x2="731.9" y2="492.6" stroke="#ffd700" stroke-opacity=".62" stroke-width="1.8"/><line x1="267.1" y1="524.3" x2="320.0" y2="523.7" stroke="#ffd700" stroke-opacity=".62" stroke-width="1.8"/><line x1="681.0" y1="521.4" x2="733.3" y2="524.4" stroke="#ffd700" stroke-opacity=".62" stroke-width="1.8"/><line x1="266.3" y1="555.3" x2="319.0" y2="556.3" stroke="#ffd700" stroke-opacity=".62" stroke-width="1.8"/><line x1="681.8" y1="554.3" x2="732.5" y2="555.9" stroke="#ffd700" stroke-opacity=".62" stroke-width="1.8"/><line x1="268.1" y1="587.5" x2="321.2" y2="587.4" stroke="#ffd700" stroke-opacity=".62" stroke-width="1.8"/><line x1="679.0" y1="587.0" x2="732.7" y2="586.9" stroke="#ffd700" stroke-opacity=".62" stroke-width="1.8"/><g filter="url(#glowr1x8591)"><path d="M500.0,449.7 C462.3,446.8 442.0,481.6 447.8,513.5 L459.4,542.5 C476.8,536.7 491.3,551.2 500.0,551.2 C508.7,551.2 523.2,536.7 540.6,542.5 L552.2,513.5 C558.0,481.6 537.7,446.8 500.0,449.7 Z" fill="#ffd700" fill-opacity=".92" stroke="#000a14" stroke-width="1.3" filter="url(#skr1x8591)"/><path d="M483.8,519.3 Q500.0,533.8 516.2,519.3" stroke="#000a14" stroke-width="1" fill="none" opacity=".58"/><ellipse cx="481.4" cy="497.8" rx="8.7" ry="6.4" fill="#000a14" opacity=".95"/><ellipse cx="518.6" cy="497.8" rx="8.7" ry="6.4" fill="#000a14" opacity=".95"/><ellipse cx="481.4" cy="497.8" rx="2.3" ry="5.8" fill="#ffd700"/><ellipse cx="518.6" cy="497.8" rx="2.3" ry="5.8" fill="#ffd700"/><path d="M471.0,467.1 L458.2,426.5 L481.4,463.0" fill="#ffd700" stroke="#000a14" stroke-width=".9"/><path d="M529.0,467.1 L541.8,426.5 L518.6,463.0" fill="#ffd700" stroke="#000a14" stroke-width=".9"/><path d="M476.8,452.6 C488.4,449.1 511.6,449.1 523.2,452.6" fill="rgba(255,255,255,.18)"/></g><g><polygon points="30.9,291.6 173.7,292.9 173.8,592.5 102.5,724.7 32.6,592.3" fill="url(#titaniumr1x8591)" stroke="#ffd700" stroke-width="2.6" filter="url(#wmr1x8591)"/><polygon points="32.3,294.6 172.9,293.7 172.4,590.3 102.4,724.9 32.6,590.6" fill="url(#carbonr1x8591)"/><polygon points="65.0,362.9 139.8,360.1 138.9,541.8 103.0,632.9 63.9,541.6" fill="#ffd700" fill-opacity=".28" stroke="#ffd700" stroke-width="1.5"/><line x1="49.635613290723384" y1="432.8297264040448" x2="153.32836987240236" y2="432.3255132174119" stroke="#ffd700" stroke-opacity=".65" stroke-width="1.3"/><line x1="100.88751546250653" y1="331.18998241638764" x2="102.95622740354386" y2="593.0563156749122" stroke="#ffd700" stroke-opacity=".4" stroke-width="1"/><line x1="34.14757202392441" y1="295.0671172334812" x2="170.21758143262934" y2="298.01993253892283" stroke="rgba(255,255,255,.5)" stroke-width="2"/><circle cx="101.38876786170525" cy="433.1781951326877" r="18.0" fill="url(#bevelr1x8591)" stroke="#ffd700" stroke-width="1.2" filter="url(#wmr1x8591)"/></g><rect x="449.64107672888787" y="558.3692149991169" width="100.0"  height="56.0" fill="#503400" stroke="#ffd700" stroke-width="2.2" filter="url(#skr1x8591)"/><rect x="423.4422016617842" y="576.2126746559516" width="152.0" height="26.0" fill="url(#bevelr1x8591)" fill-opacity=".65" stroke="#ffd700" stroke-width="1.2" filter="url(#skr1x8591)"/><polygon points="306.4,379.7 349.2,295.4 500.5,279.6 650.8,294.2 690.7,379.9 670.0,504.8 501.8,564.5 330.7,502.7" fill="url(#suitr1x8591)" stroke="#ffd700" stroke-width="2.8" filter="url(#skr1x8591) url(#metalr1x8591)"/><polygon points="306.8,379.8 350.0,294.2 500.1,278.0 649.8,294.6 693.1,379.9 669.6,505.1 500.4,564.9 329.6,502.9" fill="url(#carbonr1x8591)"/><polygon points="380.3,302.7 500.9,287.7 620.6,302.5 608.6,379.5 390.9,378.9" fill="url(#suitHir1x8591)"/><polygon points="380.7,379.0 364.5,424.4 431.9,503.7 501.0,529.4 568.8,503.2 632.8,427.0 618.6,378.9" fill="#000a14" fill-opacity=".88" stroke="#ffd700" stroke-width="1.8" filter="url(#skr1x8591)"/><polygon points="381.4,410.7 477.1,412.1 485.3,438.8 390.1,438.5" fill="#ffd700" filter="url(#glowr1x8591)"/><polygon points="521.9,413.1 618.9,409.7 610.7,439.6 514.6,439.4" fill="#ffd700" filter="url(#glowr1x8591)"/><ellipse cx="430.9" cy="425.7" rx="38.4"  ry="8.2" fill="#ffffff" opacity=".88"/><ellipse cx="569.1" cy="425.7" rx="38.4"  ry="8.2" fill="#ffffff" opacity=".88"/><line x1="486.1501099291816" y1="411.7205872474238" x2="515.7099756942504" y2="413.6928218920715" stroke="#ffd700" stroke-opacity=".52" stroke-width="2"/><line x1="486.3300219822302" y1="439.4285494096577" x2="514.0429166976735" y2="437.610978636425" stroke="#ffd700" stroke-opacity=".52" stroke-width="2"/><line x1="499.88906049579384" y1="453.8287001759745" x2="499.80996051160616" y2="481.51296678641813" stroke="#ffd700" stroke-opacity=".58" stroke-width="2.2" filter="url(#skr1x8591)"/><line x1="454.61242288628597" y1="491.3165269664488" x2="453.1877198657766" y2="519.7365853748285" stroke="#ffd700" stroke-opacity=".52" stroke-width="1.5" filter="url(#skr1x8591)"/><line x1="478.4712176194787" y1="492.5935095416381" x2="477.56344602027906" y2="519.1307167590596" stroke="#ffd700" stroke-opacity=".52" stroke-width="1.5" filter="url(#skr1x8591)"/><line x1="499.49223523000256" y1="489.8424622350372" x2="498.41663754871115" y2="518.3621112292633" stroke="#ffd700" stroke-opacity=".52" stroke-width="1.5" filter="url(#skr1x8591)"/><line x1="521.4030512747913" y1="491.19808783903716" x2="523.218233786486" y2="518.580861001648" stroke="#ffd700" stroke-opacity=".52" stroke-width="1.5" filter="url(#skr1x8591)"/><line x1="546.5519351975248" y1="490.39934841012575" x2="547.0979821267724" y2="520.2221764720977" stroke="#ffd700" stroke-opacity=".52" stroke-width="1.5" filter="url(#skr1x8591)"/><polygon points="432.8,502.3 568.2,503.0 552.4,558.2 444.4,558.5" fill="#503400" fill-opacity=".72" stroke="#ffd700" stroke-width="1.3" filter="url(#skr1x8591)"/><text x="30.0"  y="975.0" font-family="monospace" font-weight="bold" font-size="22.0" fill="rgba(255,255,255,.22)">#0001</text><text x="500.0"   y="975.0" text-anchor="middle" font-family="monospace" font-weight="bold" font-size="22.0" fill="#ffd700" fill-opacity=".48">IMPERIAL RANGER</text><text x="970.0" y="975.0" text-anchor="end"    font-family="monospace" font-weight="bold" font-size="22.0" fill="#ffd700" fill-opacity=".32">MECH RANGERS</text></svg>