<svg xmlns="http://www.w3.org/2000/svg" viewBox="0 0 1000 1000" width="1000" height="1000" shape-rendering="geometricPrecision"><defs>

  <!-- Scene gradients -->
  <radialGradient id="bgr1x8613" cx="50%" cy="42%" r="72%">
    <stop offset="0%"   stop-color="#0a0a14"/>
    <stop offset="100%" stop-color="#050508"/>
  </radialGradient>
  <linearGradient id="suitr1x8613" x1="8%" y1="0%" x2="92%" y2="100%">
    <stop offset="0%"   stop-color="#ff2040" stop-opacity=".95"/>
    <stop offset="45%"  stop-color="#cc0020"/>
    <stop offset="100%" stop-color="#050508"/>
  </linearGradient>
  <linearGradient id="suitHir1x8613" x1="0%" y1="0%" x2="0%" y2="100%">
    <stop offset="0%"   stop-color="rgba(255,255,255,.28)"/>
    <stop offset="60%"  stop-color="rgba(255,255,255,.04)"/>
    <stop offset="100%" stop-color="rgba(255,255,255,0)"/>
  </linearGradient>
  <!-- Bevel: bright top, dark bottom for armour panels -->
  <linearGradient id="bevelr1x8613" x1="0%" y1="0%" x2="0%" y2="100%">
    <stop offset="0%"   stop-color="rgba(255,255,255,.55)"/>
    <stop offset="30%"  stop-color="#ff2040"/>
    <stop offset="70%"  stop-color="#cc0020"/>
    <stop offset="100%" stop-color="rgba(0,0,0,.5)"/>
  </linearGradient>

  <!-- Weapon: cold steel blade sweep -->
  <linearGradient id="blader1x8613" x1="0%" y1="0%" x2="100%" y2="0%">
    <stop offset="0%"   stop-color="#0e0e20"/>
    <stop offset="16%"  stop-color="#3e3e58"/>
    <stop offset="34%"  stop-color="#c8c8e0"/>
    <stop offset="50%"  stop-color="#f5f5ff"/>
    <stop offset="66%"  stop-color="#b8b8d0"/>
    <stop offset="84%"  stop-color="#2e2e48"/>
    <stop offset="100%" stop-color="#08080e"/>
  </linearGradient>
  <!-- Blade tip brightening -->
  <linearGradient id="bladeTipr1x8613" x1="0%" y1="100%" x2="0%" y2="0%">
    <stop offset="0%"   stop-color="rgba(255,255,255,0)"/>
    <stop offset="55%"  stop-color="rgba(255,255,255,.1)"/>
    <stop offset="100%" stop-color="rgba(255,255,255,.55)"/>
  </linearGradient>
  <!-- Gunmetal anodised — blaster body -->
  <linearGradient id="gunmetalr1x8613" x1="0%" y1="0%" x2="0%" y2="100%">
    <stop offset="0%"   stop-color="#46465e"/>
    <stop offset="18%"  stop-color="#828296"/>
    <stop offset="42%"  stop-color="#26263a"/>
    <stop offset="72%"  stop-color="#16162a"/>
    <stop offset="100%" stop-color="#0c0c18"/>
  </linearGradient>
  <!-- Brushed steel tube — barrel/rod -->
  <linearGradient id="barrelr1x8613" x1="0%" y1="0%" x2="100%" y2="0%">
    <stop offset="0%"   stop-color="#0a0a14"/>
    <stop offset="24%"  stop-color="#585875"/>
    <stop offset="50%"  stop-color="#a8a8c8"/>
    <stop offset="76%"  stop-color="#383852"/>
    <stop offset="100%" stop-color="#0a0a14"/>
  </linearGradient>
  <!-- Chrome rod — lance shaft -->
  <linearGradient id="chromer1x8613" x1="0%" y1="0%" x2="100%" y2="0%">
    <stop offset="0%"   stop-color="#0c0c18"/>
    <stop offset="20%"  stop-color="#686888"/>
    <stop offset="44%"  stop-color="#e0e0f0"/>
    <stop offset="56%"  stop-color="#c0c0d8"/>
    <stop offset="80%"  stop-color="#28283e"/>
    <stop offset="100%" stop-color="#0c0c18"/>
  </linearGradient>
  <!-- Titanium plate — shield face -->
  <linearGradient id="titaniumr1x8613" x1="0%" y1="0%" x2="100%" y2="100%">
    <stop offset="0%"   stop-color="#585878"/>
    <stop offset="28%"  stop-color="#ff2040" stop-opacity=".88"/>
    <stop offset="55%"  stop-color="#cc0020"/>
    <stop offset="80%"  stop-color="#181828"/>
    <stop offset="100%" stop-color="#0a0a18"/>
  </linearGradient>
  <!-- Artillery black-chrome — cannon body -->
  <linearGradient id="artilleryr1x8613" x1="0%" y1="0%" x2="0%" y2="100%">
    <stop offset="0%"   stop-color="#383850"/>
    <stop offset="14%"  stop-color="#78789a"/>
    <stop offset="36%"  stop-color="#202034"/>
    <stop offset="65%"  stop-color="#14141e"/>
    <stop offset="100%" stop-color="#0a0a12"/>
  </linearGradient>
  <!-- Energy orb — staff -->
  <radialGradient id="orbr1x8613" cx="35%" cy="35%" r="65%">
    <stop offset="0%"   stop-color="rgba(255,255,255,.9)"/>
    <stop offset="30%"  stop-color="#ff2040"/>
    <stop offset="68%"  stop-color="#cc0020"/>
    <stop offset="100%" stop-color="rgba(0,0,0,.6)"/>
  </radialGradient>
  <!-- Knuckle plate chrome -->
  <linearGradient id="knuckler1x8613" x1="0%" y1="0%" x2="0%" y2="100%">
    <stop offset="0%"   stop-color="#888aaa"/>
    <stop offset="32%"  stop-color="#ff2040" stop-opacity=".8"/>
    <stop offset="62%"  stop-color="#1a1a2c"/>
    <stop offset="100%" stop-color="#0a0a14"/>
  </linearGradient>

  <!-- Carbon fibre weave texture overlay -->
  <pattern id="carbonr1x8613" width="6" height="6" patternUnits="userSpaceOnUse">
    <rect width="6" height="6" fill="rgba(0,0,0,.08)"/>
    <rect x="0" y="0" width="3" height="3" fill="rgba(255,255,255,.022)"/>
    <rect x="3" y="3" width="3" height="3" fill="rgba(255,255,255,.022)"/>
    <line x1="0" y1="0" x2="3" y2="3" stroke="rgba(255,255,255,.038)" stroke-width=".5"/>
    <line x1="3" y1="0" x2="6" y2="3" stroke="rgba(0,0,0,.055)"       stroke-width=".5"/>
    <line x1="0" y1="3" x2="3" y2="6" stroke="rgba(0,0,0,.055)"       stroke-width=".5"/>
    <line x1="3" y1="3" x2="6" y2="6" stroke="rgba(255,255,255,.038)" stroke-width=".5"/>
  </pattern>

  <!-- Specular metal sheen on armour panels -->
  <filter id="metalr1x8613" x="-5%" y="-5%" width="110%" height="110%">
    <feSpecularLighting surfaceScale="4" specularConstant="1.8"
        specularExponent="42" lighting-color="#ffffff" result="spec">
      <feDistantLight elevation="52" azimuth="38"/>
    </feSpecularLighting>
    <feComposite in="spec" in2="SourceGraphic" operator="in" result="sm"/>
    <feComposite in="SourceGraphic" in2="sm" operator="arithmetic" k1="0" k2="1" k3="0.55" k4="0"/>
  </filter>

  <!-- Sharper specular for weapons — heavier glare -->
  <filter id="wmr1x8613" x="-8%" y="-8%" width="116%" height="116%">
    <feSpecularLighting surfaceScale="6" specularConstant="2.4"
        specularExponent="65" lighting-color="#ffffff" result="spec">
      <feDistantLight elevation="44" azimuth="28"/>
    </feSpecularLighting>
    <feComposite in="spec" in2="SourceGraphic" operator="in" result="sm"/>
    <feComposite in="SourceGraphic" in2="sm" operator="arithmetic" k1="0" k2="1" k3="0.78" k4="0"/>
  </filter>

  <!-- Sketch wobble -->
  <filter id="skr1x8613" x="-8%" y="-8%" width="116%" height="116%">
    <feTurbulence type="fractalNoise" baseFrequency="0.038"
        numOctaves="3" seed="17" result="noise"/>
    <feDisplacementMap in="SourceGraphic" in2="noise" scale="2.6"
        xChannelSelector="R" yChannelSelector="G" result="w"/>
    <feComposite in="w" in2="SourceGraphic" operator="atop"/>
  </filter>

  <!-- Glow: sharp accent -->
  <filter id="glowr1x8613" x="-20%" y="-20%" width="140%" height="140%">
    <feGaussianBlur stdDeviation="3.5" result="b"/>
    <feColorMatrix in="b" type="matrix"
        values="0 0 0 0 1  0 0 0 0 1  0 0 0 0 1  0 0 0 1.8 0" result="boost"/>
    <feMerge><feMergeNode in="boost"/><feMergeNode in="SourceGraphic"/></feMerge>
  </filter>

  <!-- Bloom: wide soft -->
  <filter id="bloomr1x8613" x="-40%" y="-40%" width="180%" height="180%">
    <feGaussianBlur stdDeviation="11" result="b"/>
    <feMerge><feMergeNode in="b"/><feMergeNode in="SourceGraphic"/></feMerge>
  </filter>

  </defs><rect width="1000" height="1000" fill="url(#bgr1x8613)"/><ellipse cx="500.0" cy="892.0" rx="350.0" ry="65.0" fill="rgba(0,0,0,.7)" filter="url(#bloomr1x8613)"/><ellipse cx="500.0" cy="889.0" rx="220.0" ry="34.0" fill="rgba(0,0,0,.45)"/><ellipse cx="500.0" cy="520.0" rx="320.0" ry="480.0" fill="#00ffcc" fill-opacity=".042" filter="url(#bloomr1x8613)"/><circle cx="736.5" cy="665.8" r="1.0" fill="#00ffcc" fill-opacity="0.66" filter="url(#glowr1x8613)"/><circle cx="531.0" cy="607.8" r="2.9" fill="#00ffcc" fill-opacity="0.63" filter="url(#glowr1x8613)"/><circle cx="691.2" cy="558.7" r="3.8" fill="#00ffcc" fill-opacity="0.54" filter="url(#glowr1x8613)"/><circle cx="473.3" cy="524.3" r="4.0" fill="#00ffcc" fill-opacity="0.88" filter="url(#glowr1x8613)"/><circle cx="632.0" cy="669.3" r="3.2" fill="#00ffcc" fill-opacity="0.64" filter="url(#glowr1x8613)"/><circle cx="595.6" cy="799.6" r="1.3" fill="#00ffcc" fill-opacity="0.44" filter="url(#glowr1x8613)"/><circle cx="600.5" cy="652.7" r="3.9" fill="#00ffcc" fill-opacity="0.73" filter="url(#glowr1x8613)"/><circle cx="473.7" cy="633.6" r="2.2" fill="#00ffcc" fill-opacity="0.42" filter="url(#glowr1x8613)"/><circle cx="418.0" cy="713.5" r="2.7" fill="#00ffcc" fill-opacity="0.61" filter="url(#glowr1x8613)"/><circle cx="684.5" cy="680.0" r="3.6" fill="#00ffcc" fill-opacity="0.57" filter="url(#glowr1x8613)"/><circle cx="591.2" cy="344.0" r="4.1" fill="#00ffcc" fill-opacity="0.74" filter="url(#glowr1x8613)"/><circle cx="382.3" cy="446.4" r="3.5" fill="#00ffcc" fill-opacity="0.83" filter="url(#glowr1x8613)"/><circle cx="655.9" cy="742.4" r="2.7" fill="#00ffcc" fill-opacity="0.85" filter="url(#glowr1x8613)"/><circle cx="505.0" cy="661.5" r="4.2" fill="#00ffcc" fill-opacity="0.80" filter="url(#glowr1x8613)"/><path d="M563.4,152.0 Q588.0,416.4 709.9,683.1" stroke="#00ffcc" stroke-opacity="0.64" stroke-width="1.4" fill="none" filter="url(#glowr1x8613)"/><path d="M382.8,178.2 Q390.7,455.8 699.0,772.5" stroke="#00ffcc" stroke-opacity="0.77" stroke-width="2.1" fill="none" filter="url(#glowr1x8613)"/><path d="M341.9,370.1 Q301.6,537.9 305.3,700.8" stroke="#00ffcc" stroke-opacity="0.50" stroke-width="0.8" fill="none" filter="url(#glowr1x8613)"/><path d="M468.5,157.6 Q496.4,441.2 339.7,711.1" stroke="#00ffcc" stroke-opacity="0.43" stroke-width="2.9" fill="none" filter="url(#glowr1x8613)"/><path d="M453.7,286.7 Q411.6,531.8 620.1,762.2" stroke="#00ffcc" stroke-opacity="0.43" stroke-width="1.7" fill="none" filter="url(#glowr1x8613)"/><polygon points="397.7,664.3 489.4,661.9 479.9,876.7 387.5,875.7" fill="url(#suitr1x8613)" stroke="#ff2040" stroke-width="2.2" filter="url(#skr1x8613) url(#metalr1x8613)"/><polygon points="397.2,661.5 490.7,662.5 482.4,876.5 386.9,876.1" fill="url(#carbonr1x8613)"/><polygon points="391.6,723.1 493.2,723.5 484.2,788.2 385.2,787.0" fill="url(#bevelr1x8613)" fill-opacity=".5" stroke="#ff2040" stroke-width="1.4" filter="url(#skr1x8613)"/><polygon points="510.0,663.8 602.5,662.3 614.2,876.0 518.0,877.1" fill="url(#suitr1x8613)" stroke="#ff2040" stroke-width="2.2" filter="url(#skr1x8613) url(#metalr1x8613)"/><polygon points="511.7,662.5 601.1,661.1 612.7,876.6 518.8,877.4" fill="url(#carbonr1x8613)"/><polygon points="508.4,724.4 608.0,724.5 617.3,789.5 517.0,787.9" fill="url(#bevelr1x8613)" fill-opacity=".5" stroke="#ff2040" stroke-width="1.4" filter="url(#skr1x8613)"/><rect x="392.2" y="838.6" width="100.3" height="24.7" fill="url(#bevelr1x8613)" stroke="#ff2040" stroke-width="1" filter="url(#skr1x8613)"/><rect x="506.4"  y="840.3" width="100.3" height="24.7" fill="url(#bevelr1x8613)" stroke="#ff2040" stroke-width="1" filter="url(#skr1x8613)"/><polygon points="370.4,878.5 495.9,877.8 501.9,920.6 363.7,922.1" fill="#cc0020" stroke="#ff2040" stroke-width="2" filter="url(#skr1x8613)"/><polygon points="502.0,878.2 629.2,878.2 635.7,920.6 496.0,922.7" fill="#cc0020" stroke="#ff2040" stroke-width="2" filter="url(#skr1x8613)"/><polygon points="304.8,633.3 694.3,631.4 638.6,682.4 361.5,680.6" fill="#ff2040" fill-opacity=".52" stroke="#ff2040" stroke-width="2" filter="url(#skr1x8613)"/><rect x="464.7" y="636.4" width="72.0" height="42.0" fill="url(#bevelr1x8613)" stroke="#ff2040" stroke-width="1.4" filter="url(#glowr1x8613)"/><rect x="485.4" y="640.9" width="28.0" height="22.0" rx="1" fill="rgba(255,255,255,.48)"/><polygon points="153.7,467.1 234.8,465.4 259.1,733.9 127.2,734.3" fill="url(#suitr1x8613)" stroke="#ff2040" stroke-width="2.2" filter="url(#skr1x8613) url(#metalr1x8613)"/><polygon points="174.5,432.9 254.5,433.4 244.5,511.9 159.2,509.1" fill="url(#bevelr1x8613)" fill-opacity=".72" stroke="#ff2040" stroke-width="2.2" filter="url(#skr1x8613)"/><polygon points="162.3,622.5 241.6,620.3 240.0,660.7 166.7,660.4" fill="#ff2040" fill-opacity=".42" stroke="#ff2040" stroke-width="1" filter="url(#skr1x8613)"/><polygon points="764.7,467.9 845.6,468.0 871.7,735.8 742.5,735.6" fill="url(#suitr1x8613)" stroke="#ff2040" stroke-width="2.2" filter="url(#skr1x8613) url(#metalr1x8613)"/><polygon points="746.2,433.6 827.1,433.1 840.1,509.1 757.5,509.1" fill="url(#bevelr1x8613)" fill-opacity=".72" stroke="#ff2040" stroke-width="2.2" filter="url(#skr1x8613)"/><polygon points="755.9,620.6 838.8,623.2 834.8,660.4 760.0,662.0" fill="#ff2040" fill-opacity=".42" stroke="#ff2040" stroke-width="1" filter="url(#skr1x8613)"/><rect x="121.9"  y="698.4" width="135.3" height="85.0" rx="4" fill="url(#bevelr1x8613)" stroke="#ff2040" stroke-width="1.8" filter="url(#skr1x8613)"/><rect x="749.0"   y="699.4" width="135.3" height="85.0" rx="4" fill="url(#bevelr1x8613)" stroke="#ff2040" stroke-width="1.8" filter="url(#skr1x8613)"/><line x1="151.1" y1="701.9" x2="150.9" y2="783.4" stroke="#ff2040" stroke-opacity=".38" stroke-width="1"/><line x1="778.4" y1="701.2" x2="777.5" y2="785.5" stroke="#ff2040" stroke-opacity=".38" stroke-width="1"/><line x1="184.3" y1="702.0" x2="183.7" y2="784.2" stroke="#ff2040" stroke-opacity=".38" stroke-width="1"/><line x1="811.4" y1="703.3" x2="809.1" y2="784.6" stroke="#ff2040" stroke-opacity=".38" stroke-width="1"/><line x1="215.3" y1="702.5" x2="214.3" y2="782.2" stroke="#ff2040" stroke-opacity=".38" stroke-width="1"/><line x1="843.0" y1="700.9" x2="842.0" y2="783.2" stroke="#ff2040" stroke-opacity=".38" stroke-width="1"/><polygon points="236.2,415.7 763.8,416.0 722.5,663.7 276.4,662.2" fill="url(#suitr1x8613)" stroke="#ff2040" stroke-width="2.6" filter="url(#skr1x8613) url(#metalr1x8613)"/><polygon points="236.6,417.8 764.8,416.4 723.7,662.6 277.6,663.8" fill="url(#carbonr1x8613)"/><polygon points="367.3,417.0 633.8,417.5 612.1,514.5 390.4,516.3" fill="url(#suitHir1x8613)"/><line x1="362.6" y1="472.6" x2="637.4" y2="469.8" stroke="#ff2040" stroke-opacity=".52" stroke-width="1.3" filter="url(#skr1x8613)"/><line x1="399.3" y1="550.6" x2="600.5" y2="548.4" stroke="#ff2040" stroke-opacity=".52" stroke-width="1.3" filter="url(#skr1x8613)"/><line x1="268.2" y1="490.4" x2="319.4" y2="491.1" stroke="#ff2040" stroke-opacity=".62" stroke-width="1.8"/><line x1="681.5" y1="490.2" x2="734.6" y2="492.6" stroke="#ff2040" stroke-opacity=".62" stroke-width="1.8"/><line x1="265.3" y1="523.4" x2="319.1" y2="521.1" stroke="#ff2040" stroke-opacity=".62" stroke-width="1.8"/><line x1="678.9" y1="522.2" x2="733.7" y2="523.5" stroke="#ff2040" stroke-opacity=".62" stroke-width="1.8"/><line x1="267.3" y1="554.3" x2="321.2" y2="555.1" stroke="#ff2040" stroke-opacity=".62" stroke-width="1.8"/><line x1="680.8" y1="552.9" x2="731.6" y2="554.5" stroke="#ff2040" stroke-opacity=".62" stroke-width="1.8"/><line x1="267.4" y1="586.1" x2="318.7" y2="588.0" stroke="#ff2040" stroke-opacity=".62" stroke-width="1.8"/><line x1="678.9" y1="585.5" x2="731.5" y2="587.6" stroke="#ff2040" stroke-opacity=".62" stroke-width="1.8"/><g filter="url(#glowr1x8613)"><polygon points="499.0,453.6 516.3,488.2 554.9,494.5 523.9,518.0 533.0,559.2 501.5,537.1 467.6,559.0 474.1,516.8 443.2,492.6 486.2,488.3 " fill="#ff2040" stroke="#050508" stroke-width="1.4" filter="url(#skr1x8613)"/><polygon points="499.0,453.6 516.3,488.2 554.9,494.5 523.9,518.0 533.0,559.2 501.5,537.1 467.6,559.0 474.1,516.8 443.2,492.6 486.2,488.3 " fill="url(#suitHir1x8613)" opacity=".45"/></g><g><rect x="115.7" y="703.6" width="137.8" height="88.0" rx="5" fill="url(#bevelr1x8613)" stroke="#ff2040" stroke-width="2" filter="url(#wmr1x8613)"/><rect x="116.9" y="702.6" width="137.8" height="88.0" rx="5" fill="url(#carbonr1x8613)"/><rect x="747.8"  y="701.5" width="137.8" height="88.0" rx="5" fill="url(#bevelr1x8613)" stroke="#ff2040" stroke-width="2" filter="url(#wmr1x8613)"/><rect x="750.3"  y="700.3" width="137.8" height="88.0" rx="5" fill="url(#carbonr1x8613)"/><rect x="122.3" y="700.4" width="23.0" height="22.0" rx="2" fill="url(#knuckler1x8613)" stroke="#ff2040" stroke-width=".8" filter="url(#wmr1x8613)"/><rect x="754.6" y="700.2" width="23.0" height="22.0" rx="2" fill="url(#knuckler1x8613)" stroke="#ff2040" stroke-width=".8" filter="url(#wmr1x8613)"/><rect x="151.1" y="698.9" width="23.0" height="22.0" rx="2" fill="url(#knuckler1x8613)" stroke="#ff2040" stroke-width=".8" filter="url(#wmr1x8613)"/><rect x="783.5" y="700.8" width="23.0" height="22.0" rx="2" fill="url(#knuckler1x8613)" stroke="#ff2040" stroke-width=".8" filter="url(#wmr1x8613)"/><rect x="180.1" y="700.8" width="23.0" height="22.0" rx="2" fill="url(#knuckler1x8613)" stroke="#ff2040" stroke-width=".8" filter="url(#wmr1x8613)"/><rect x="815.1" y="698.2" width="23.0" height="22.0" rx="2" fill="url(#knuckler1x8613)" stroke="#ff2040" stroke-width=".8" filter="url(#wmr1x8613)"/><rect x="211.9" y="700.6" width="23.0" height="22.0" rx="2" fill="url(#knuckler1x8613)" stroke="#ff2040" stroke-width=".8" filter="url(#wmr1x8613)"/><rect x="844.2" y="698.2" width="23.0" height="22.0" rx="2" fill="url(#knuckler1x8613)" stroke="#ff2040" stroke-width=".8" filter="url(#wmr1x8613)"/><ellipse cx="185.92746495887636" cy="710.3743362904339" rx="45.1" ry="30.0" fill="#ff2040" fill-opacity=".25" filter="url(#glowr1x8613)"/><ellipse cx="817.3370869633928" cy="710.481522467248" rx="45.1" ry="30.0" fill="#ff2040" fill-opacity=".25" filter="url(#glowr1x8613)"/></g><rect x="450.19504711143674" y="555.1642474261113" width="100.0"  height="56.0" fill="#cc0020" stroke="#ff2040" stroke-width="2.2" filter="url(#skr1x8613)"/><rect x="425.7808081155643" y="573.6101346315817" width="152.0" height="26.0" fill="url(#bevelr1x8613)" fill-opacity=".65" stroke="#ff2040" stroke-width="1.2" filter="url(#skr1x8613)"/><polygon points="308.1,380.7 350.8,294.8 500.1,278.9 648.4,293.4 691.9,381.0 669.9,502.5 500.9,563.8 330.6,502.6" fill="url(#suitr1x8613)" stroke="#ff2040" stroke-width="2.8" filter="url(#skr1x8613) url(#metalr1x8613)"/><polygon points="308.3,381.6 349.7,293.9 499.5,279.2 650.3,294.0 691.0,378.9 668.7,503.6 500.7,566.0 331.5,502.8" fill="url(#carbonr1x8613)"/><polygon points="381.8,302.3 499.4,287.4 618.4,301.4 607.3,379.0 391.8,379.3" fill="url(#suitHir1x8613)"/><polygon points="381.8,382.1 364.0,425.6 432.6,502.5 499.5,527.3 565.9,504.7 635.7,425.4 617.4,379.8" fill="#050508" fill-opacity=".88" stroke="#ff2040" stroke-width="1.8" filter="url(#skr1x8613)"/><polygon points="379.5,411.7 476.2,411.5 485.4,439.9 390.0,438.4" fill="#ff2040" filter="url(#glowr1x8613)"/><polygon points="521.3,413.1 618.6,412.4 609.8,440.8 514.3,439.6" fill="#ff2040" filter="url(#glowr1x8613)"/><ellipse cx="430.9" cy="425.7" rx="38.4"  ry="8.2" fill="#ffffff" opacity=".88"/><ellipse cx="569.1" cy="425.7" rx="38.4"  ry="8.2" fill="#ffffff" opacity=".88"/><line x1="486.4118992647715" y1="415.0378438387066" x2="514.8586438781023" y2="413.97788938712324" stroke="#ff2040" stroke-opacity=".52" stroke-width="2"/><line x1="483.066213733945" y1="438.6819723252207" x2="516.5918510909565" y2="438.58079805923626" stroke="#ff2040" stroke-opacity=".52" stroke-width="2"/><line x1="499.3113067521714" y1="454.78765601525083" x2="501.68308724146334" y2="482.57986072460193" stroke="#ff2040" stroke-opacity=".58" stroke-width="2.2" filter="url(#skr1x8613)"/><line x1="454.8574117162079" y1="491.44934153137723" x2="454.7513180777244" y2="521.1446532604284" stroke="#ff2040" stroke-opacity=".52" stroke-width="1.5" filter="url(#skr1x8613)"/><line x1="476.48654832843687" y1="491.2396867383271" x2="478.12499456781893" y2="521.2879409228451" stroke="#ff2040" stroke-opacity=".52" stroke-width="1.5" filter="url(#skr1x8613)"/><line x1="500.2295936961658" y1="491.05520803835236" x2="500.0162276872434" y2="521.3865252444521" stroke="#ff2040" stroke-opacity=".52" stroke-width="1.5" filter="url(#skr1x8613)"/><line x1="521.2832220087387" y1="491.06516202110794" x2="523.109355393108" y2="520.0766984641552" stroke="#ff2040" stroke-opacity=".52" stroke-width="1.5" filter="url(#skr1x8613)"/><line x1="546.5425537490472" y1="489.72106416588645" x2="546.3785411898233" y2="519.7976333849132" stroke="#ff2040" stroke-opacity=".52" stroke-width="1.5" filter="url(#skr1x8613)"/><polygon points="434.1,502.7 565.9,504.4 554.8,556.4 447.6,555.9" fill="#cc0020" fill-opacity=".72" stroke="#ff2040" stroke-width="1.3" filter="url(#skr1x8613)"/><text x="30.0"  y="975.0" font-family="monospace" font-weight="bold" font-size="22.0" fill="rgba(255,255,255,.22)">#0001</text><text x="500.0"   y="975.0" text-anchor="middle" font-family="monospace" font-weight="bold" font-size="22.0" fill="#ff2040" fill-opacity=".48">CRIMSON RANGER</text><text x="970.0" y="975.0" text-anchor="end"    font-family="monospace" font-weight="bold" font-size="22.0" fill="#ff2040" fill-opacity=".32">MECH RANGERS</text></svg>