<svg xmlns="http://www.w3.org/2000/svg" viewBox="0 0 1000 1000" width="1000" height="1000" shape-rendering="geometricPrecision"><defs>

  <!-- Scene gradients -->
  <radialGradient id="bgr1x8729" cx="50%" cy="42%" r="72%">
    <stop offset="0%"   stop-color="#1e0a2e"/>
    <stop offset="100%" stop-color="#0a0520"/>
  </radialGradient>
  <linearGradient id="suitr1x8729" x1="8%" y1="0%" x2="92%" y2="100%">
    <stop offset="0%"   stop-color="#ff00ff" stop-opacity=".95"/>
    <stop offset="45%"  stop-color="#050508"/>
    <stop offset="100%" stop-color="#0a0520"/>
  </linearGradient>
  <linearGradient id="suitHir1x8729" x1="0%" y1="0%" x2="0%" y2="100%">
    <stop offset="0%"   stop-color="rgba(255,255,255,.28)"/>
    <stop offset="60%"  stop-color="rgba(255,255,255,.04)"/>
    <stop offset="100%" stop-color="rgba(255,255,255,0)"/>
  </linearGradient>
  <!-- Bevel: bright top, dark bottom for armour panels -->
  <linearGradient id="bevelr1x8729" x1="0%" y1="0%" x2="0%" y2="100%">
    <stop offset="0%"   stop-color="rgba(255,255,255,.55)"/>
    <stop offset="30%"  stop-color="#ff00ff"/>
    <stop offset="70%"  stop-color="#050508"/>
    <stop offset="100%" stop-color="rgba(0,0,0,.5)"/>
  </linearGradient>

  <!-- Weapon: cold steel blade sweep -->
  <linearGradient id="blader1x8729" x1="0%" y1="0%" x2="100%" y2="0%">
    <stop offset="0%"   stop-color="#0e0e20"/>
    <stop offset="16%"  stop-color="#3e3e58"/>
    <stop offset="34%"  stop-color="#c8c8e0"/>
    <stop offset="50%"  stop-color="#f5f5ff"/>
    <stop offset="66%"  stop-color="#b8b8d0"/>
    <stop offset="84%"  stop-color="#2e2e48"/>
    <stop offset="100%" stop-color="#08080e"/>
  </linearGradient>
  <!-- Blade tip brightening -->
  <linearGradient id="bladeTipr1x8729" x1="0%" y1="100%" x2="0%" y2="0%">
    <stop offset="0%"   stop-color="rgba(255,255,255,0)"/>
    <stop offset="55%"  stop-color="rgba(255,255,255,.1)"/>
    <stop offset="100%" stop-color="rgba(255,255,255,.55)"/>
  </linearGradient>
  <!-- Gunmetal anodised — blaster body -->
  <linearGradient id="gunmetalr1x8729" x1="0%" y1="0%" x2="0%" y2="100%">
    <stop offset="0%"   stop-color="#46465e"/>
    <stop offset="18%"  stop-color="#828296"/>
    <stop offset="42%"  stop-color="#26263a"/>
    <stop offset="72%"  stop-color="#16162a"/>
    <stop offset="100%" stop-color="#0c0c18"/>
  </linearGradient>
  <!-- Brushed steel tube — barrel/rod -->
  <linearGradient id="barrelr1x8729" x1="0%" y1="0%" x2="100%" y2="0%">
    <stop offset="0%"   stop-color="#0a0a14"/>
    <stop offset="24%"  stop-color="#585875"/>
    <stop offset="50%"  stop-color="#a8a8c8"/>
    <stop offset="76%"  stop-color="#383852"/>
    <stop offset="100%" stop-color="#0a0a14"/>
  </linearGradient>
  <!-- Chrome rod — lance shaft -->
  <linearGradient id="chromer1x8729" x1="0%" y1="0%" x2="100%" y2="0%">
    <stop offset="0%"   stop-color="#0c0c18"/>
    <stop offset="20%"  stop-color="#686888"/>
    <stop offset="44%"  stop-color="#e0e0f0"/>
    <stop offset="56%"  stop-color="#c0c0d8"/>
    <stop offset="80%"  stop-color="#28283e"/>
    <stop offset="100%" stop-color="#0c0c18"/>
  </linearGradient>
  <!-- Titanium plate — shield face -->
  <linearGradient id="titaniumr1x8729" x1="0%" y1="0%" x2="100%" y2="100%">
    <stop offset="0%"   stop-color="#585878"/>
    <stop offset="28%"  stop-color="#ff00ff" stop-opacity=".88"/>
    <stop offset="55%"  stop-color="#050508"/>
    <stop offset="80%"  stop-color="#181828"/>
    <stop offset="100%" stop-color="#0a0a18"/>
  </linearGradient>
  <!-- Artillery black-chrome — cannon body -->
  <linearGradient id="artilleryr1x8729" x1="0%" y1="0%" x2="0%" y2="100%">
    <stop offset="0%"   stop-color="#383850"/>
    <stop offset="14%"  stop-color="#78789a"/>
    <stop offset="36%"  stop-color="#202034"/>
    <stop offset="65%"  stop-color="#14141e"/>
    <stop offset="100%" stop-color="#0a0a12"/>
  </linearGradient>
  <!-- Energy orb — staff -->
  <radialGradient id="orbr1x8729" cx="35%" cy="35%" r="65%">
    <stop offset="0%"   stop-color="rgba(255,255,255,.9)"/>
    <stop offset="30%"  stop-color="#ff00ff"/>
    <stop offset="68%"  stop-color="#050508"/>
    <stop offset="100%" stop-color="rgba(0,0,0,.6)"/>
  </radialGradient>
  <!-- Knuckle plate chrome -->
  <linearGradient id="knuckler1x8729" x1="0%" y1="0%" x2="0%" y2="100%">
    <stop offset="0%"   stop-color="#888aaa"/>
    <stop offset="32%"  stop-color="#ff00ff" stop-opacity=".8"/>
    <stop offset="62%"  stop-color="#1a1a2c"/>
    <stop offset="100%" stop-color="#0a0a14"/>
  </linearGradient>

  <!-- Carbon fibre weave texture overlay -->
  <pattern id="carbonr1x8729" width="6" height="6" patternUnits="userSpaceOnUse">
    <rect width="6" height="6" fill="rgba(0,0,0,.08)"/>
    <rect x="0" y="0" width="3" height="3" fill="rgba(255,255,255,.022)"/>
    <rect x="3" y="3" width="3" height="3" fill="rgba(255,255,255,.022)"/>
    <line x1="0" y1="0" x2="3" y2="3" stroke="rgba(255,255,255,.038)" stroke-width=".5"/>
    <line x1="3" y1="0" x2="6" y2="3" stroke="rgba(0,0,0,.055)"       stroke-width=".5"/>
    <line x1="0" y1="3" x2="3" y2="6" stroke="rgba(0,0,0,.055)"       stroke-width=".5"/>
    <line x1="3" y1="3" x2="6" y2="6" stroke="rgba(255,255,255,.038)" stroke-width=".5"/>
  </pattern>

  <!-- Specular metal sheen on armour panels -->
  <filter id="metalr1x8729" x="-5%" y="-5%" width="110%" height="110%">
    <feSpecularLighting surfaceScale="4" specularConstant="1.8"
        specularExponent="42" lighting-color="#ffffff" result="spec">
      <feDistantLight elevation="52" azimuth="38"/>
    </feSpecularLighting>
    <feComposite in="spec" in2="SourceGraphic" operator="in" result="sm"/>
    <feComposite in="SourceGraphic" in2="sm" operator="arithmetic" k1="0" k2="1" k3="0.55" k4="0"/>
  </filter>

  <!-- Sharper specular for weapons — heavier glare -->
  <filter id="wmr1x8729" x="-8%" y="-8%" width="116%" height="116%">
    <feSpecularLighting surfaceScale="6" specularConstant="2.4"
        specularExponent="65" lighting-color="#ffffff" result="spec">
      <feDistantLight elevation="44" azimuth="28"/>
    </feSpecularLighting>
    <feComposite in="spec" in2="SourceGraphic" operator="in" result="sm"/>
    <feComposite in="SourceGraphic" in2="sm" operator="arithmetic" k1="0" k2="1" k3="0.78" k4="0"/>
  </filter>

  <!-- Sketch wobble -->
  <filter id="skr1x8729" x="-8%" y="-8%" width="116%" height="116%">
    <feTurbulence type="fractalNoise" baseFrequency="0.038"
        numOctaves="3" seed="39" result="noise"/>
    <feDisplacementMap in="SourceGraphic" in2="noise" scale="2.6"
        xChannelSelector="R" yChannelSelector="G" result="w"/>
    <feComposite in="w" in2="SourceGraphic" operator="atop"/>
  </filter>

  <!-- Glow: sharp accent -->
  <filter id="glowr1x8729" x="-20%" y="-20%" width="140%" height="140%">
    <feGaussianBlur stdDeviation="3.5" result="b"/>
    <feColorMatrix in="b" type="matrix"
        values="0 0 0 0 1  0 0 0 0 1  0 0 0 0 1  0 0 0 1.8 0" result="boost"/>
    <feMerge><feMergeNode in="boost"/><feMergeNode in="SourceGraphic"/></feMerge>
  </filter>

  <!-- Bloom: wide soft -->
  <filter id="bloomr1x8729" x="-40%" y="-40%" width="180%" height="180%">
    <feGaussianBlur stdDeviation="11" result="b"/>
    <feMerge><feMergeNode in="b"/><feMergeNode in="SourceGraphic"/></feMerge>
  </filter>

  </defs><rect width="1000" height="1000" fill="url(#bgr1x8729)"/><ellipse cx="500.0" cy="892.0" rx="350.0" ry="65.0" fill="rgba(0,0,0,.7)" filter="url(#bloomr1x8729)"/><ellipse cx="500.0" cy="889.0" rx="220.0" ry="34.0" fill="rgba(0,0,0,.45)"/><ellipse cx="500.0" cy="520.0" rx="320.0" ry="480.0" fill="#ff6600" fill-opacity=".042" filter="url(#bloomr1x8729)"/><circle cx="283.3" cy="301.3" r="0.9" fill="#ff6600" fill-opacity="0.56" filter="url(#glowr1x8729)"/><circle cx="544.9" cy="237.2" r="0.7" fill="#ff6600" fill-opacity="0.48" filter="url(#glowr1x8729)"/><circle cx="632.0" cy="737.2" r="2.8" fill="#ff6600" fill-opacity="0.80" filter="url(#glowr1x8729)"/><circle cx="684.4" cy="436.6" r="1.4" fill="#ff6600" fill-opacity="0.64" filter="url(#glowr1x8729)"/><circle cx="636.7" cy="507.6" r="3.3" fill="#ff6600" fill-opacity="0.66" filter="url(#glowr1x8729)"/><circle cx="503.7" cy="752.7" r="3.7" fill="#ff6600" fill-opacity="0.83" filter="url(#glowr1x8729)"/><circle cx="402.4" cy="776.1" r="3.0" fill="#ff6600" fill-opacity="0.47" filter="url(#glowr1x8729)"/><circle cx="335.3" cy="312.8" r="2.9" fill="#ff6600" fill-opacity="0.59" filter="url(#glowr1x8729)"/><circle cx="279.3" cy="519.1" r="1.5" fill="#ff6600" fill-opacity="0.72" filter="url(#glowr1x8729)"/><circle cx="440.2" cy="661.4" r="0.6" fill="#ff6600" fill-opacity="0.48" filter="url(#glowr1x8729)"/><circle cx="559.0" cy="484.0" r="3.9" fill="#ff6600" fill-opacity="0.67" filter="url(#glowr1x8729)"/><circle cx="541.1" cy="251.9" r="0.5" fill="#ff6600" fill-opacity="0.87" filter="url(#glowr1x8729)"/><circle cx="717.3" cy="485.9" r="1.2" fill="#ff6600" fill-opacity="0.72" filter="url(#glowr1x8729)"/><circle cx="647.3" cy="332.4" r="4.1" fill="#ff6600" fill-opacity="0.72" filter="url(#glowr1x8729)"/><polygon points="398.2,662.5 488.9,662.6 482.1,876.0 387.3,876.5" fill="url(#suitr1x8729)" stroke="#ff00ff" stroke-width="2.2" filter="url(#skr1x8729) url(#metalr1x8729)"/><polygon points="398.3,661.3 488.3,661.0 481.4,879.2 385.9,876.6" fill="url(#carbonr1x8729)"/><polygon points="392.6,724.0 491.4,725.5 485.6,787.4 383.7,789.4" fill="url(#bevelr1x8729)" fill-opacity=".5" stroke="#ff00ff" stroke-width="1.4" filter="url(#skr1x8729)"/><polygon points="511.8,662.6 600.8,663.7 612.7,877.6 517.6,877.5" fill="url(#suitr1x8729)" stroke="#ff00ff" stroke-width="2.2" filter="url(#skr1x8729) url(#metalr1x8729)"/><polygon points="509.6,664.1 601.9,661.3 611.2,878.0 518.3,876.8" fill="url(#carbonr1x8729)"/><polygon points="506.3,723.7 608.2,725.3 616.6,789.0 515.9,787.4" fill="url(#bevelr1x8729)" fill-opacity=".5" stroke="#ff00ff" stroke-width="1.4" filter="url(#skr1x8729)"/><rect x="393.7" y="839.6" width="100.3" height="24.7" fill="url(#bevelr1x8729)" stroke="#ff00ff" stroke-width="1" filter="url(#skr1x8729)"/><rect x="506.8"  y="840.4" width="100.3" height="24.7" fill="url(#bevelr1x8729)" stroke="#ff00ff" stroke-width="1" filter="url(#skr1x8729)"/><polygon points="369.8,876.2 495.6,876.6 502.5,922.7 361.2,921.2" fill="#050508" stroke="#ff00ff" stroke-width="2" filter="url(#skr1x8729)"/><polygon points="502.4,878.8 630.9,879.3 638.2,922.4 494.7,920.6" fill="#050508" stroke="#ff00ff" stroke-width="2" filter="url(#skr1x8729)"/><polygon points="303.9,631.7 696.0,632.9 637.2,681.7 362.9,683.6" fill="#ff00ff" fill-opacity=".52" stroke="#ff00ff" stroke-width="2" filter="url(#skr1x8729)"/><rect x="465.7" y="637.9" width="72.0" height="42.0" fill="url(#bevelr1x8729)" stroke="#ff00ff" stroke-width="1.4" filter="url(#glowr1x8729)"/><rect x="485.8" y="641.0" width="28.0" height="22.0" rx="1" fill="rgba(255,255,255,.48)"/><polygon points="152.0,466.1 236.3,465.6 256.4,733.8 127.3,736.3" fill="url(#suitr1x8729)" stroke="#ff00ff" stroke-width="2.2" filter="url(#skr1x8729) url(#metalr1x8729)"/><polygon points="172.5,431.9 253.6,431.1 242.1,511.1 159.4,509.4" fill="url(#bevelr1x8729)" fill-opacity=".72" stroke="#ff00ff" stroke-width="2.2" filter="url(#skr1x8729)"/><polygon points="162.4,623.6 242.5,620.6 239.2,659.9 166.8,661.4" fill="#ff00ff" fill-opacity=".42" stroke="#ff00ff" stroke-width="1" filter="url(#skr1x8729)"/><polygon points="765.3,467.3 847.3,467.1 870.0,735.7 740.4,734.7" fill="url(#suitr1x8729)" stroke="#ff00ff" stroke-width="2.2" filter="url(#skr1x8729) url(#metalr1x8729)"/><polygon points="747.9,433.3 827.3,432.8 839.3,510.2 757.4,511.2" fill="url(#bevelr1x8729)" fill-opacity=".72" stroke="#ff00ff" stroke-width="2.2" filter="url(#skr1x8729)"/><polygon points="755.4,622.3 838.1,622.2 835.6,660.8 759.7,661.8" fill="#ff00ff" fill-opacity=".42" stroke="#ff00ff" stroke-width="1" filter="url(#skr1x8729)"/><rect x="121.5"  y="700.6" width="135.3" height="85.0" rx="4" fill="url(#bevelr1x8729)" stroke="#ff00ff" stroke-width="1.8" filter="url(#skr1x8729)"/><rect x="750.3"   y="700.1" width="135.3" height="85.0" rx="4" fill="url(#bevelr1x8729)" stroke="#ff00ff" stroke-width="1.8" filter="url(#skr1x8729)"/><line x1="150.3" y1="701.9" x2="148.2" y2="782.7" stroke="#ff00ff" stroke-opacity=".38" stroke-width="1"/><line x1="779.4" y1="700.7" x2="776.8" y2="785.5" stroke="#ff00ff" stroke-opacity=".38" stroke-width="1"/><line x1="181.1" y1="702.2" x2="181.7" y2="783.4" stroke="#ff00ff" stroke-opacity=".38" stroke-width="1"/><line x1="812.5" y1="702.3" x2="812.1" y2="784.0" stroke="#ff00ff" stroke-opacity=".38" stroke-width="1"/><line x1="213.9" y1="700.9" x2="216.6" y2="785.6" stroke="#ff00ff" stroke-opacity=".38" stroke-width="1"/><line x1="844.1" y1="700.9" x2="843.3" y2="782.8" stroke="#ff00ff" stroke-opacity=".38" stroke-width="1"/><polygon points="236.6,418.9 764.0,418.4 722.3,663.3 276.9,662.3" fill="url(#suitr1x8729)" stroke="#ff00ff" stroke-width="2.6" filter="url(#skr1x8729) url(#metalr1x8729)"/><polygon points="234.4,418.4 764.2,416.7 722.6,664.3 277.5,664.1" fill="url(#carbonr1x8729)"/><polygon points="368.8,418.6 633.5,415.9 611.6,516.3 388.6,516.7" fill="url(#suitHir1x8729)"/><line x1="360.4" y1="470.1" x2="638.7" y2="472.9" stroke="#ff00ff" stroke-opacity=".52" stroke-width="1.3" filter="url(#skr1x8729)"/><line x1="399.4" y1="549.2" x2="599.8" y2="548.2" stroke="#ff00ff" stroke-opacity=".52" stroke-width="1.3" filter="url(#skr1x8729)"/><line x1="265.1" y1="492.7" x2="320.7" y2="489.9" stroke="#ff00ff" stroke-opacity=".62" stroke-width="1.8"/><line x1="679.8" y1="491.1" x2="734.5" y2="491.5" stroke="#ff00ff" stroke-opacity=".62" stroke-width="1.8"/><line x1="265.5" y1="524.4" x2="320.1" y2="521.3" stroke="#ff00ff" stroke-opacity=".62" stroke-width="1.8"/><line x1="680.3" y1="521.7" x2="732.6" y2="522.7" stroke="#ff00ff" stroke-opacity=".62" stroke-width="1.8"/><line x1="266.5" y1="555.9" x2="320.8" y2="555.4" stroke="#ff00ff" stroke-opacity=".62" stroke-width="1.8"/><line x1="681.8" y1="553.5" x2="731.5" y2="556.3" stroke="#ff00ff" stroke-opacity=".62" stroke-width="1.8"/><line x1="265.5" y1="585.2" x2="320.8" y2="588.2" stroke="#ff00ff" stroke-opacity=".62" stroke-width="1.8"/><line x1="680.6" y1="588.1" x2="731.8" y2="586.5" stroke="#ff00ff" stroke-opacity=".62" stroke-width="1.8"/><g filter="url(#glowr1x8729)"><path d="M500.0,449.7 C462.3,446.8 442.0,481.6 447.8,513.5 L459.4,542.5 C476.8,536.7 491.3,551.2 500.0,551.2 C508.7,551.2 523.2,536.7 540.6,542.5 L552.2,513.5 C558.0,481.6 537.7,446.8 500.0,449.7 Z" fill="#ff00ff" fill-opacity=".92" stroke="#0a0520" stroke-width="1.3" filter="url(#skr1x8729)"/><path d="M483.8,519.3 Q500.0,533.8 516.2,519.3" stroke="#0a0520" stroke-width="1" fill="none" opacity=".58"/><ellipse cx="481.4" cy="497.8" rx="8.7" ry="6.4" fill="#0a0520" opacity=".95"/><ellipse cx="518.6" cy="497.8" rx="8.7" ry="6.4" fill="#0a0520" opacity=".95"/><ellipse cx="481.4" cy="497.8" rx="2.3" ry="5.8" fill="#ff00ff"/><ellipse cx="518.6" cy="497.8" rx="2.3" ry="5.8" fill="#ff00ff"/><path d="M471.0,467.1 L458.2,426.5 L481.4,463.0" fill="#ff00ff" stroke="#0a0520" stroke-width=".9"/><path d="M529.0,467.1 L541.8,426.5 L518.6,463.0" fill="#ff00ff" stroke="#0a0520" stroke-width=".9"/><path d="M476.8,452.6 C488.4,449.1 511.6,449.1 523.2,452.6" fill="rgba(255,255,255,.18)"/></g><g><line x1="898.4459340331704" y1="792.6796850818209" x2="914.4231730580889" y2="112.54118810119105" stroke="url(#chromer1x8729)" stroke-width="28.0" stroke-linecap="round" filter="url(#wmr1x8729)"/><line x1="904.3537047564611" y1="771.4852974007837" x2="911.7216650286317" y2="130.07176447240633" stroke="rgba(255,255,255,.42)" stroke-width="5.0" stroke-linecap="round"/><polygon points="869.0,149.7 937.3,151.8 916.4,-10.3" fill="url(#blader1x8729)" stroke="#ff00ff" stroke-width="1.8" filter="url(#wmr1x8729)"/><line x1="935.8" y1="151.4" x2="915.8" y2="-8.6" stroke="rgba(255,255,255,.72)" stroke-width="1.6"/><rect x="879.92274166286" y="420.7543130853213" width="40.0" height="20.0" fill="url(#bevelr1x8729)" stroke="#ff00ff" stroke-width="1" filter="url(#wmr1x8729)"/><rect x="877.591516948361" y="513.1546937455423" width="40.0" height="20.0" fill="url(#bevelr1x8729)" stroke="#ff00ff" stroke-width="1" filter="url(#wmr1x8729)"/><rect x="878.462295770608" y="600.1647025085055" width="40.0" height="20.0" fill="url(#bevelr1x8729)" stroke="#ff00ff" stroke-width="1" filter="url(#wmr1x8729)"/><rect x="878.1593047826178" y="693.1952634770423" width="40.0" height="20.0" fill="url(#bevelr1x8729)" stroke="#ff00ff" stroke-width="1" filter="url(#wmr1x8729)"/><ellipse cx="896.6378806729429" cy="792.0637729427777" rx="22.0" ry="15.0" fill="url(#bevelr1x8729)" stroke="#ff00ff" stroke-width="1" filter="url(#wmr1x8729)"/></g><rect x="449.1420562922023" y="558.2044071816839" width="100.0"  height="56.0" fill="#050508" stroke="#ff00ff" stroke-width="2.2" filter="url(#skr1x8729)"/><rect x="422.3759130948223" y="574.5871464355849" width="152.0" height="26.0" fill="url(#bevelr1x8729)" fill-opacity=".65" stroke="#ff00ff" stroke-width="1.2" filter="url(#skr1x8729)"/><polygon points="309.2,380.7 348.8,293.4 499.4,276.6 651.5,294.7 692.0,380.5 669.3,504.5 498.8,566.0 331.6,504.8" fill="url(#suitr1x8729)" stroke="#ff00ff" stroke-width="2.8" filter="url(#skr1x8729) url(#metalr1x8729)"/><polygon points="308.9,381.7 349.8,293.4 499.1,278.5 648.0,296.0 691.2,379.1 667.6,501.8 498.3,564.4 332.3,504.5" fill="url(#carbonr1x8729)"/><polygon points="381.2,302.3 500.1,285.4 618.4,304.0 607.4,381.2 393.2,379.3" fill="url(#suitHir1x8729)"/><polygon points="380.7,382.4 364.7,424.9 433.4,502.8 498.5,526.6 568.5,504.8 633.1,426.7 618.9,381.3" fill="#0a0520" fill-opacity=".88" stroke="#ff00ff" stroke-width="1.8" filter="url(#skr1x8729)"/><polygon points="380.5,410.6 478.7,409.6 483.2,439.4 388.2,441.4" fill="#ff00ff" filter="url(#glowr1x8729)"/><polygon points="523.5,410.3 618.6,411.8 612.4,439.3 517.1,440.9" fill="#ff00ff" filter="url(#glowr1x8729)"/><ellipse cx="430.9" cy="425.7" rx="38.4"  ry="8.2" fill="#ffffff" opacity=".88"/><ellipse cx="569.1" cy="425.7" rx="38.4"  ry="8.2" fill="#ffffff" opacity=".88"/><line x1="483.8635780588351" y1="414.43231662623583" x2="517.1147217050567" y2="413.3456860218197" stroke="#ff00ff" stroke-opacity=".52" stroke-width="2"/><line x1="484.2676658003218" y1="436.6194531949237" x2="515.315321185477" y2="436.7163994126953" stroke="#ff00ff" stroke-opacity=".52" stroke-width="2"/><line x1="500.521261591278" y1="453.32446509664874" x2="499.05352862076836" y2="484.50911418180914" stroke="#ff00ff" stroke-opacity=".58" stroke-width="2.2" filter="url(#skr1x8729)"/><line x1="453.78021932251755" y1="490.05415553878987" x2="454.24955628009513" y2="518.5464121180587" stroke="#ff00ff" stroke-opacity=".52" stroke-width="1.5" filter="url(#skr1x8729)"/><line x1="477.840838591326" y1="492.1171347559429" x2="476.8746139505319" y2="520.3368800333701" stroke="#ff00ff" stroke-opacity=".52" stroke-width="1.5" filter="url(#skr1x8729)"/><line x1="498.7243542520329" y1="492.89957310147577" x2="499.87841992117467" y2="518.2759313968011" stroke="#ff00ff" stroke-opacity=".52" stroke-width="1.5" filter="url(#skr1x8729)"/><line x1="522.2423352802731" y1="491.7907100764103" x2="522.0242572998255" y2="520.1979078516364" stroke="#ff00ff" stroke-opacity=".52" stroke-width="1.5" filter="url(#skr1x8729)"/><line x1="544.7321945683286" y1="489.8242248180322" x2="545.7539060921595" y2="518.4989880600945" stroke="#ff00ff" stroke-opacity=".52" stroke-width="1.5" filter="url(#skr1x8729)"/><polygon points="432.0,503.3 568.2,503.0 554.7,557.8 447.9,555.7" fill="#050508" fill-opacity=".72" stroke="#ff00ff" stroke-width="1.3" filter="url(#skr1x8729)"/><path d="M472.137542904336 311.0608014387078 C303.1925611399486 147.22645186875013 420.5692948270962 241.45467864610254 499.9237766103819 309.799174612388" fill="#ff00ff" fill-opacity=".92" stroke="#ff00ff" stroke-width="2.2" filter="url(#skr1x8729)"/><path d="M472.49345142113043 310.481223778706 C304.3492336161807 145.7356209346093 419.11213456712665 241.8638770451769 501.6446983613074 311.68690756373104" fill="url(#suitHir1x8729)" opacity=".28"/><path d="M525.8044005551561 309.4251910368912 C696.6440522311815 146.86031613089142 579.3737419299408 242.81652597170321 498.28545126905664 312.3837576748803" fill="#ff00ff" fill-opacity=".92" stroke="#ff00ff" stroke-width="2.2" filter="url(#skr1x8729)"/><path d="M526.5626841693371 310.65519194928925 C696.9602264156193 146.848393627163 579.8052213387191 242.98618511985987 500.1172091032378 312.21734070638195" fill="url(#suitHir1x8729)" opacity=".28"/><text x="30.0"  y="975.0" font-family="monospace" font-weight="bold" font-size="22.0" fill="rgba(255,255,255,.22)">#0001</text><text x="500.0"   y="975.0" text-anchor="middle" font-family="monospace" font-weight="bold" font-size="22.0" fill="#ff00ff" fill-opacity=".48">VOID RANGER</text><text x="970.0" y="975.0" text-anchor="end"    font-family="monospace" font-weight="bold" font-size="22.0" fill="#ff00ff" fill-opacity=".32">MECH RANGERS</text></svg>