<svg xmlns="http://www.w3.org/2000/svg" viewBox="0 0 1000 1000" width="1000" height="1000" shape-rendering="geometricPrecision"><defs>

  <!-- Scene gradients -->
  <radialGradient id="bgr1x8773" cx="50%" cy="42%" r="72%">
    <stop offset="0%"   stop-color="#001e1e"/>
    <stop offset="100%" stop-color="#0e001e"/>
  </radialGradient>
  <linearGradient id="suitr1x8773" x1="8%" y1="0%" x2="92%" y2="100%">
    <stop offset="0%"   stop-color="#00ff60" stop-opacity=".95"/>
    <stop offset="45%"  stop-color="#00441e"/>
    <stop offset="100%" stop-color="#0e001e"/>
  </linearGradient>
  <linearGradient id="suitHir1x8773" x1="0%" y1="0%" x2="0%" y2="100%">
    <stop offset="0%"   stop-color="rgba(255,255,255,.28)"/>
    <stop offset="60%"  stop-color="rgba(255,255,255,.04)"/>
    <stop offset="100%" stop-color="rgba(255,255,255,0)"/>
  </linearGradient>
  <!-- Bevel: bright top, dark bottom for armour panels -->
  <linearGradient id="bevelr1x8773" x1="0%" y1="0%" x2="0%" y2="100%">
    <stop offset="0%"   stop-color="rgba(255,255,255,.55)"/>
    <stop offset="30%"  stop-color="#00ff60"/>
    <stop offset="70%"  stop-color="#00441e"/>
    <stop offset="100%" stop-color="rgba(0,0,0,.5)"/>
  </linearGradient>

  <!-- Weapon: cold steel blade sweep -->
  <linearGradient id="blader1x8773" x1="0%" y1="0%" x2="100%" y2="0%">
    <stop offset="0%"   stop-color="#0e0e20"/>
    <stop offset="16%"  stop-color="#3e3e58"/>
    <stop offset="34%"  stop-color="#c8c8e0"/>
    <stop offset="50%"  stop-color="#f5f5ff"/>
    <stop offset="66%"  stop-color="#b8b8d0"/>
    <stop offset="84%"  stop-color="#2e2e48"/>
    <stop offset="100%" stop-color="#08080e"/>
  </linearGradient>
  <!-- Blade tip brightening -->
  <linearGradient id="bladeTipr1x8773" x1="0%" y1="100%" x2="0%" y2="0%">
    <stop offset="0%"   stop-color="rgba(255,255,255,0)"/>
    <stop offset="55%"  stop-color="rgba(255,255,255,.1)"/>
    <stop offset="100%" stop-color="rgba(255,255,255,.55)"/>
  </linearGradient>
  <!-- Gunmetal anodised — blaster body -->
  <linearGradient id="gunmetalr1x8773" x1="0%" y1="0%" x2="0%" y2="100%">
    <stop offset="0%"   stop-color="#46465e"/>
    <stop offset="18%"  stop-color="#828296"/>
    <stop offset="42%"  stop-color="#26263a"/>
    <stop offset="72%"  stop-color="#16162a"/>
    <stop offset="100%" stop-color="#0c0c18"/>
  </linearGradient>
  <!-- Brushed steel tube — barrel/rod -->
  <linearGradient id="barrelr1x8773" x1="0%" y1="0%" x2="100%" y2="0%">
    <stop offset="0%"   stop-color="#0a0a14"/>
    <stop offset="24%"  stop-color="#585875"/>
    <stop offset="50%"  stop-color="#a8a8c8"/>
    <stop offset="76%"  stop-color="#383852"/>
    <stop offset="100%" stop-color="#0a0a14"/>
  </linearGradient>
  <!-- Chrome rod — lance shaft -->
  <linearGradient id="chromer1x8773" x1="0%" y1="0%" x2="100%" y2="0%">
    <stop offset="0%"   stop-color="#0c0c18"/>
    <stop offset="20%"  stop-color="#686888"/>
    <stop offset="44%"  stop-color="#e0e0f0"/>
    <stop offset="56%"  stop-color="#c0c0d8"/>
    <stop offset="80%"  stop-color="#28283e"/>
    <stop offset="100%" stop-color="#0c0c18"/>
  </linearGradient>
  <!-- Titanium plate — shield face -->
  <linearGradient id="titaniumr1x8773" x1="0%" y1="0%" x2="100%" y2="100%">
    <stop offset="0%"   stop-color="#585878"/>
    <stop offset="28%"  stop-color="#00ff60" stop-opacity=".88"/>
    <stop offset="55%"  stop-color="#00441e"/>
    <stop offset="80%"  stop-color="#181828"/>
    <stop offset="100%" stop-color="#0a0a18"/>
  </linearGradient>
  <!-- Artillery black-chrome — cannon body -->
  <linearGradient id="artilleryr1x8773" x1="0%" y1="0%" x2="0%" y2="100%">
    <stop offset="0%"   stop-color="#383850"/>
    <stop offset="14%"  stop-color="#78789a"/>
    <stop offset="36%"  stop-color="#202034"/>
    <stop offset="65%"  stop-color="#14141e"/>
    <stop offset="100%" stop-color="#0a0a12"/>
  </linearGradient>
  <!-- Energy orb — staff -->
  <radialGradient id="orbr1x8773" cx="35%" cy="35%" r="65%">
    <stop offset="0%"   stop-color="rgba(255,255,255,.9)"/>
    <stop offset="30%"  stop-color="#00ff60"/>
    <stop offset="68%"  stop-color="#00441e"/>
    <stop offset="100%" stop-color="rgba(0,0,0,.6)"/>
  </radialGradient>
  <!-- Knuckle plate chrome -->
  <linearGradient id="knuckler1x8773" x1="0%" y1="0%" x2="0%" y2="100%">
    <stop offset="0%"   stop-color="#888aaa"/>
    <stop offset="32%"  stop-color="#00ff60" stop-opacity=".8"/>
    <stop offset="62%"  stop-color="#1a1a2c"/>
    <stop offset="100%" stop-color="#0a0a14"/>
  </linearGradient>

  <!-- Carbon fibre weave texture overlay -->
  <pattern id="carbonr1x8773" width="6" height="6" patternUnits="userSpaceOnUse">
    <rect width="6" height="6" fill="rgba(0,0,0,.08)"/>
    <rect x="0" y="0" width="3" height="3" fill="rgba(255,255,255,.022)"/>
    <rect x="3" y="3" width="3" height="3" fill="rgba(255,255,255,.022)"/>
    <line x1="0" y1="0" x2="3" y2="3" stroke="rgba(255,255,255,.038)" stroke-width=".5"/>
    <line x1="3" y1="0" x2="6" y2="3" stroke="rgba(0,0,0,.055)"       stroke-width=".5"/>
    <line x1="0" y1="3" x2="3" y2="6" stroke="rgba(0,0,0,.055)"       stroke-width=".5"/>
    <line x1="3" y1="3" x2="6" y2="6" stroke="rgba(255,255,255,.038)" stroke-width=".5"/>
  </pattern>

  <!-- Specular metal sheen on armour panels -->
  <filter id="metalr1x8773" x="-5%" y="-5%" width="110%" height="110%">
    <feSpecularLighting surfaceScale="4" specularConstant="1.8"
        specularExponent="42" lighting-color="#ffffff" result="spec">
      <feDistantLight elevation="52" azimuth="38"/>
    </feSpecularLighting>
    <feComposite in="spec" in2="SourceGraphic" operator="in" result="sm"/>
    <feComposite in="SourceGraphic" in2="sm" operator="arithmetic" k1="0" k2="1" k3="0.55" k4="0"/>
  </filter>

  <!-- Sharper specular for weapons — heavier glare -->
  <filter id="wmr1x8773" x="-8%" y="-8%" width="116%" height="116%">
    <feSpecularLighting surfaceScale="6" specularConstant="2.4"
        specularExponent="65" lighting-color="#ffffff" result="spec">
      <feDistantLight elevation="44" azimuth="28"/>
    </feSpecularLighting>
    <feComposite in="spec" in2="SourceGraphic" operator="in" result="sm"/>
    <feComposite in="SourceGraphic" in2="sm" operator="arithmetic" k1="0" k2="1" k3="0.78" k4="0"/>
  </filter>

  <!-- Sketch wobble -->
  <filter id="skr1x8773" x="-8%" y="-8%" width="116%" height="116%">
    <feTurbulence type="fractalNoise" baseFrequency="0.038"
        numOctaves="3" seed="98" result="noise"/>
    <feDisplacementMap in="SourceGraphic" in2="noise" scale="2.6"
        xChannelSelector="R" yChannelSelector="G" result="w"/>
    <feComposite in="w" in2="SourceGraphic" operator="atop"/>
  </filter>

  <!-- Glow: sharp accent -->
  <filter id="glowr1x8773" x="-20%" y="-20%" width="140%" height="140%">
    <feGaussianBlur stdDeviation="3.5" result="b"/>
    <feColorMatrix in="b" type="matrix"
        values="0 0 0 0 1  0 0 0 0 1  0 0 0 0 1  0 0 0 1.8 0" result="boost"/>
    <feMerge><feMergeNode in="boost"/><feMergeNode in="SourceGraphic"/></feMerge>
  </filter>

  <!-- Bloom: wide soft -->
  <filter id="bloomr1x8773" x="-40%" y="-40%" width="180%" height="180%">
    <feGaussianBlur stdDeviation="11" result="b"/>
    <feMerge><feMergeNode in="b"/><feMergeNode in="SourceGraphic"/></feMerge>
  </filter>

  </defs><rect width="1000" height="1000" fill="url(#bgr1x8773)"/><circle cx="500" cy="500" r="420.0" fill="none" stroke="#00ff60" stroke-opacity=".11" stroke-width="42" stroke-dasharray="8,5"/><circle cx="500" cy="500" r="240.0" fill="none" stroke="#00441e" stroke-opacity=".09" stroke-width="18"/><line x1="500" y1="500" x2="1500.0" y2="500.0" stroke="#00ff60" stroke-opacity=".035" stroke-width="1.2"/><line x1="500" y1="500" x2="1366.0" y2="1000.0" stroke="#00ff60" stroke-opacity=".035" stroke-width="1.2"/><line x1="500" y1="500" x2="1000.0" y2="1366.0" stroke="#00ff60" stroke-opacity=".035" stroke-width="1.2"/><line x1="500" y1="500" x2="500.0" y2="1500.0" stroke="#00ff60" stroke-opacity=".035" stroke-width="1.2"/><line x1="500" y1="500" x2="0.0" y2="1366.0" stroke="#00ff60" stroke-opacity=".035" stroke-width="1.2"/><line x1="500" y1="500" x2="-366.0" y2="1000.0" stroke="#00ff60" stroke-opacity=".035" stroke-width="1.2"/><line x1="500" y1="500" x2="-500.0" y2="500.0" stroke="#00ff60" stroke-opacity=".035" stroke-width="1.2"/><line x1="500" y1="500" x2="-366.0" y2="-0.0" stroke="#00ff60" stroke-opacity=".035" stroke-width="1.2"/><line x1="500" y1="500" x2="-0.0" y2="-366.0" stroke="#00ff60" stroke-opacity=".035" stroke-width="1.2"/><line x1="500" y1="500" x2="500.0" y2="-500.0" stroke="#00ff60" stroke-opacity=".035" stroke-width="1.2"/><line x1="500" y1="500" x2="1000.0" y2="-366.0" stroke="#00ff60" stroke-opacity=".035" stroke-width="1.2"/><line x1="500" y1="500" x2="1366.0" y2="-0.0" stroke="#00ff60" stroke-opacity=".035" stroke-width="1.2"/><ellipse cx="500.0" cy="892.0" rx="350.0" ry="65.0" fill="rgba(0,0,0,.7)" filter="url(#bloomr1x8773)"/><ellipse cx="500.0" cy="889.0" rx="220.0" ry="34.0" fill="rgba(0,0,0,.45)"/><polygon points="397.1,663.2 491.1,663.7 480.2,878.2 386.1,877.8" fill="url(#suitr1x8773)" stroke="#00ff60" stroke-width="2.2" filter="url(#skr1x8773) url(#metalr1x8773)"/><polygon points="400.0,662.4 489.6,661.2 481.9,875.9 388.8,877.8" fill="url(#carbonr1x8773)"/><polygon points="394.0,722.0 492.7,723.2 483.0,789.3 385.6,788.8" fill="url(#bevelr1x8773)" fill-opacity=".5" stroke="#00ff60" stroke-width="1.4" filter="url(#skr1x8773)"/><polygon points="510.4,662.2 601.8,661.9 611.8,878.8 517.6,876.8" fill="url(#suitr1x8773)" stroke="#00ff60" stroke-width="2.2" filter="url(#skr1x8773) url(#metalr1x8773)"/><polygon points="510.5,661.4 600.9,661.3 613.4,876.7 518.5,876.7" fill="url(#carbonr1x8773)"/><polygon points="506.1,722.0 605.8,723.3 614.8,786.6 514.5,786.6" fill="url(#bevelr1x8773)" fill-opacity=".5" stroke="#00ff60" stroke-width="1.4" filter="url(#skr1x8773)"/><rect x="391.1" y="840.6" width="100.3" height="24.7" fill="url(#bevelr1x8773)" stroke="#00ff60" stroke-width="1" filter="url(#skr1x8773)"/><rect x="506.3"  y="837.6" width="100.3" height="24.7" fill="url(#bevelr1x8773)" stroke="#00ff60" stroke-width="1" filter="url(#skr1x8773)"/><polygon points="370.7,879.1 496.0,878.5 503.4,922.3 364.5,922.4" fill="#00441e" stroke="#00ff60" stroke-width="2" filter="url(#skr1x8773)"/><polygon points="502.4,878.2 630.0,879.0 637.0,922.5 496.8,922.2" fill="#00441e" stroke="#00ff60" stroke-width="2" filter="url(#skr1x8773)"/><polygon points="305.1,631.8 696.2,631.4 638.2,682.8 363.8,682.8" fill="#00ff60" fill-opacity=".52" stroke="#00ff60" stroke-width="2" filter="url(#skr1x8773)"/><rect x="462.5" y="638.1" width="72.0" height="42.0" fill="url(#bevelr1x8773)" stroke="#00ff60" stroke-width="1.4" filter="url(#glowr1x8773)"/><rect x="485.4" y="641.1" width="28.0" height="22.0" rx="1" fill="rgba(255,255,255,.48)"/><polygon points="153.2,464.7 234.8,466.2 259.2,736.4 127.5,735.5" fill="url(#suitr1x8773)" stroke="#00ff60" stroke-width="2.2" filter="url(#skr1x8773) url(#metalr1x8773)"/><polygon points="173.4,431.5 253.5,433.0 242.7,510.3 158.0,510.8" fill="url(#bevelr1x8773)" fill-opacity=".72" stroke="#00ff60" stroke-width="2.2" filter="url(#skr1x8773)"/><polygon points="160.7,620.5 241.7,622.4 237.5,659.3 165.2,659.9" fill="#00ff60" fill-opacity=".42" stroke="#00ff60" stroke-width="1" filter="url(#skr1x8773)"/><polygon points="766.1,465.6 847.9,465.4 872.2,736.0 743.7,733.3" fill="url(#suitr1x8773)" stroke="#00ff60" stroke-width="2.2" filter="url(#skr1x8773) url(#metalr1x8773)"/><polygon points="746.4,433.8 827.2,433.2 838.9,511.3 756.5,511.6" fill="url(#bevelr1x8773)" fill-opacity=".72" stroke="#00ff60" stroke-width="2.2" filter="url(#skr1x8773)"/><polygon points="756.1,623.5 837.4,620.5 833.0,661.4 761.1,662.4" fill="#00ff60" fill-opacity=".42" stroke="#00ff60" stroke-width="1" filter="url(#skr1x8773)"/><rect x="120.7"  y="699.6" width="135.3" height="85.0" rx="4" fill="url(#bevelr1x8773)" stroke="#00ff60" stroke-width="1.8" filter="url(#skr1x8773)"/><rect x="748.9"   y="699.3" width="135.3" height="85.0" rx="4" fill="url(#bevelr1x8773)" stroke="#00ff60" stroke-width="1.8" filter="url(#skr1x8773)"/><line x1="149.3" y1="702.6" x2="148.4" y2="783.0" stroke="#00ff60" stroke-opacity=".38" stroke-width="1"/><line x1="779.6" y1="701.4" x2="777.5" y2="782.7" stroke="#00ff60" stroke-opacity=".38" stroke-width="1"/><line x1="180.9" y1="701.7" x2="183.7" y2="784.6" stroke="#00ff60" stroke-opacity=".38" stroke-width="1"/><line x1="812.1" y1="700.4" x2="811.1" y2="782.7" stroke="#00ff60" stroke-opacity=".38" stroke-width="1"/><line x1="215.5" y1="702.3" x2="214.5" y2="784.5" stroke="#00ff60" stroke-opacity=".38" stroke-width="1"/><line x1="843.5" y1="701.9" x2="845.0" y2="785.3" stroke="#00ff60" stroke-opacity=".38" stroke-width="1"/><polygon points="234.8,418.4 765.4,416.9 723.2,663.3 276.1,661.1" fill="url(#suitr1x8773)" stroke="#00ff60" stroke-width="2.6" filter="url(#skr1x8773) url(#metalr1x8773)"/><polygon points="234.6,419.2 765.9,418.1 723.7,661.3 277.3,664.2" fill="url(#carbonr1x8773)"/><polygon points="368.2,416.8 631.0,418.1 610.0,516.9 388.6,516.1" fill="url(#suitHir1x8773)"/><line x1="361.6" y1="470.5" x2="639.2" y2="471.8" stroke="#00ff60" stroke-opacity=".52" stroke-width="1.3" filter="url(#skr1x8773)"/><line x1="399.6" y1="548.7" x2="602.4" y2="550.5" stroke="#00ff60" stroke-opacity=".52" stroke-width="1.3" filter="url(#skr1x8773)"/><line x1="267.5" y1="490.2" x2="318.1" y2="489.7" stroke="#00ff60" stroke-opacity=".62" stroke-width="1.8"/><line x1="682.0" y1="490.4" x2="734.7" y2="492.3" stroke="#00ff60" stroke-opacity=".62" stroke-width="1.8"/><line x1="265.2" y1="522.1" x2="321.2" y2="523.1" stroke="#00ff60" stroke-opacity=".62" stroke-width="1.8"/><line x1="681.0" y1="521.9" x2="732.7" y2="523.4" stroke="#00ff60" stroke-opacity=".62" stroke-width="1.8"/><line x1="268.1" y1="553.0" x2="321.0" y2="554.2" stroke="#00ff60" stroke-opacity=".62" stroke-width="1.8"/><line x1="681.2" y1="554.3" x2="732.3" y2="555.1" stroke="#00ff60" stroke-opacity=".62" stroke-width="1.8"/><line x1="268.1" y1="584.9" x2="318.2" y2="587.6" stroke="#00ff60" stroke-opacity=".62" stroke-width="1.8"/><line x1="679.6" y1="585.1" x2="732.8" y2="586.5" stroke="#00ff60" stroke-opacity=".62" stroke-width="1.8"/><g filter="url(#glowr1x8773)"><polygon points="460.6,527.7 461.5,498.1 480.5,469.3 499.3,496.1 517.9,466.2 537.1,498.6 536.3,530.9" fill="#00ff60" stroke="#0e001e" stroke-width="1.4" filter="url(#skr1x8773)"/><polygon points="461.8,527.7 462.6,498.3 480.2,468.5 498.7,497.7 517.2,466.1 536.8,496.6 538.1,529.6" fill="url(#suitHir1x8773)" opacity=".38"/></g><g><polygon points="871.8,671.4 923.8,671.4 908.2,-28.6 887.4,-28.6" fill="url(#blader1x8773)" filter="url(#wmr1x8773)"/><polygon points="887.4,-28.6 908.2,-28.6 897.8,-138.6" fill="url(#blader1x8773)" filter="url(#wmr1x8773)"/><polygon points="896.0,671.4 899.7,671.4 898.4,-128.6 897.3,-128.6" fill="url(#bladeTipr1x8773)" opacity=".9"/><line x1="908.185763711203" y1="670.3136180531234" x2="899.1230673607625" y2="-130.32491992292927" stroke="rgba(255,255,255,.68)" stroke-width="1.5"/><line x1="887.9847956099734" y1="672.1662156304344" x2="898.4806216644124" y2="-128.6525895818137" stroke="#00ff60" stroke-width="1" stroke-opacity=".45"/><line x1="902.5" y1="651.4" x2="899.7" y2="11.4" stroke="rgba(0,0,0,.38)" stroke-width="1.6"/><line x1="893.2" y1="651.4" x2="896.0" y2="11.4" stroke="rgba(0,0,0,.38)" stroke-width="1.6"/><rect x="840.6504721162469" y="668.8177343893796" width="112.0" height="28.0" rx="3" fill="url(#bevelr1x8773)" stroke="#00ff60" stroke-width="1.6" filter="url(#wmr1x8773)"/><rect x="864.8060775461234" y="673.9799658192321" width="64.0" height="10.0" rx="1" fill="rgba(255,255,255,.32)"/><rect x="887.223938829694" y="678.4718462037854" width="24.0" height="6.0" rx="1" fill="#00ff60" fill-opacity=".35"/><rect x="884.798883366175" y="684.8624652270228" width="24.0" height="6.0" rx="1" fill="#00ff60" fill-opacity=".35"/><rect x="885.0500325831213" y="693.5559957139194" width="24.0" height="6.0" rx="1" fill="#00ff60" fill-opacity=".35"/><rect x="885.1807068483532" y="701.2263168585487" width="24.0" height="6.0" rx="1" fill="#00ff60" fill-opacity=".35"/><rect x="884.1355909587443" y="710.780492676422" width="24.0" height="6.0" rx="1" fill="#00ff60" fill-opacity=".35"/><rect x="886.4689694267325" y="716.9100904674269" width="24.0" height="6.0" rx="1" fill="#00ff60" fill-opacity=".35"/><ellipse cx="896.8190543776005" cy="724.8469644679687" rx="22.0" ry="16.0" fill="url(#bevelr1x8773)" stroke="#00ff60" stroke-width="1.2" filter="url(#wmr1x8773)"/></g><rect x="450.8448136945255" y="555.5699831461534" width="100.0"  height="56.0" fill="#00441e" stroke="#00ff60" stroke-width="2.2" filter="url(#skr1x8773)"/><rect x="423.4063889503479" y="574.5692566219717" width="152.0" height="26.0" fill="url(#bevelr1x8773)" fill-opacity=".65" stroke="#00ff60" stroke-width="1.2" filter="url(#skr1x8773)"/><polygon points="306.8,379.4 349.8,294.6 501.0,279.8 648.8,294.8 691.3,382.3 670.6,502.5 500.0,563.6 331.3,501.9" fill="url(#suitr1x8773)" stroke="#00ff60" stroke-width="2.8" filter="url(#skr1x8773) url(#metalr1x8773)"/><polygon points="309.2,380.2 349.1,293.0 498.7,277.9 649.6,294.1 690.3,379.4 668.8,504.2 500.6,564.0 331.2,504.2" fill="url(#carbonr1x8773)"/><polygon points="381.5,302.6 498.2,286.6 618.8,303.0 608.0,379.0 392.5,381.9" fill="url(#suitHir1x8773)"/><polygon points="380.1,379.0 366.3,426.9 434.4,504.8 500.0,528.6 567.1,505.1 636.2,425.5 619.3,379.0" fill="#0e001e" fill-opacity=".88" stroke="#00ff60" stroke-width="1.8" filter="url(#skr1x8773)"/><polygon points="382.7,412.9 477.9,412.3 483.3,439.7 389.4,439.9" fill="#00ff60" filter="url(#glowr1x8773)"/><polygon points="522.0,411.7 619.2,412.3 611.7,441.5 513.9,439.4" fill="#00ff60" filter="url(#glowr1x8773)"/><ellipse cx="430.9" cy="425.7" rx="38.4"  ry="8.2" fill="#ffffff" opacity=".88"/><ellipse cx="569.1" cy="425.7" rx="38.4"  ry="8.2" fill="#ffffff" opacity=".88"/><line x1="484.21323387702927" y1="412.9090514383279" x2="513.9119939408638" y2="413.96318567991256" stroke="#00ff60" stroke-opacity=".52" stroke-width="2"/><line x1="485.665762556307" y1="437.1682770998217" x2="514.5818515091576" y2="439.55474660536277" stroke="#00ff60" stroke-opacity=".52" stroke-width="2"/><line x1="501.4581238058396" y1="453.70750357005744" x2="499.2630126887001" y2="484.68027691850443" stroke="#00ff60" stroke-opacity=".58" stroke-width="2.2" filter="url(#skr1x8773)"/><line x1="454.79901102546603" y1="492.9116034207865" x2="454.087257490661" y2="519.0498831818811" stroke="#00ff60" stroke-opacity=".52" stroke-width="1.5" filter="url(#skr1x8773)"/><line x1="478.30310587709766" y1="491.694996474497" x2="475.316660474278" y2="520.8001689314842" stroke="#00ff60" stroke-opacity=".52" stroke-width="1.5" filter="url(#skr1x8773)"/><line x1="501.6596175882034" y1="489.75245616519817" x2="498.5644782550633" y2="518.9922504880466" stroke="#00ff60" stroke-opacity=".52" stroke-width="1.5" filter="url(#skr1x8773)"/><line x1="521.5529760030656" y1="492.5427110711112" x2="523.0016595655679" y2="518.9606400714256" stroke="#00ff60" stroke-opacity=".52" stroke-width="1.5" filter="url(#skr1x8773)"/><line x1="544.4296526382864" y1="491.4644878818653" x2="544.5683983544075" y2="519.1848602158018" stroke="#00ff60" stroke-opacity=".52" stroke-width="1.5" filter="url(#skr1x8773)"/><polygon points="433.8,503.1 567.8,504.0 555.3,556.0 448.0,557.6" fill="#00441e" fill-opacity=".72" stroke="#00ff60" stroke-width="1.3" filter="url(#skr1x8773)"/><text x="30.0"  y="975.0" font-family="monospace" font-weight="bold" font-size="22.0" fill="rgba(255,255,255,.22)">#0001</text><text x="500.0"   y="975.0" text-anchor="middle" font-family="monospace" font-weight="bold" font-size="22.0" fill="#00ff60" fill-opacity=".48">VIPER RANGER</text><text x="970.0" y="975.0" text-anchor="end"    font-family="monospace" font-weight="bold" font-size="22.0" fill="#00ff60" fill-opacity=".32">MECH RANGERS</text></svg>