<svg xmlns="http://www.w3.org/2000/svg" viewBox="0 0 1000 1000" width="1000" height="1000" shape-rendering="geometricPrecision"><defs>

  <!-- Scene gradients -->
  <radialGradient id="bgr1x8794" cx="50%" cy="42%" r="72%">
    <stop offset="0%"   stop-color="#0a0a14"/>
    <stop offset="100%" stop-color="#050508"/>
  </radialGradient>
  <linearGradient id="suitr1x8794" x1="8%" y1="0%" x2="92%" y2="100%">
    <stop offset="0%"   stop-color="#4444ff" stop-opacity=".95"/>
    <stop offset="45%"  stop-color="#141428"/>
    <stop offset="100%" stop-color="#050508"/>
  </linearGradient>
  <linearGradient id="suitHir1x8794" x1="0%" y1="0%" x2="0%" y2="100%">
    <stop offset="0%"   stop-color="rgba(255,255,255,.28)"/>
    <stop offset="60%"  stop-color="rgba(255,255,255,.04)"/>
    <stop offset="100%" stop-color="rgba(255,255,255,0)"/>
  </linearGradient>
  <!-- Bevel: bright top, dark bottom for armour panels -->
  <linearGradient id="bevelr1x8794" x1="0%" y1="0%" x2="0%" y2="100%">
    <stop offset="0%"   stop-color="rgba(255,255,255,.55)"/>
    <stop offset="30%"  stop-color="#4444ff"/>
    <stop offset="70%"  stop-color="#141428"/>
    <stop offset="100%" stop-color="rgba(0,0,0,.5)"/>
  </linearGradient>

  <!-- Weapon: cold steel blade sweep -->
  <linearGradient id="blader1x8794" x1="0%" y1="0%" x2="100%" y2="0%">
    <stop offset="0%"   stop-color="#0e0e20"/>
    <stop offset="16%"  stop-color="#3e3e58"/>
    <stop offset="34%"  stop-color="#c8c8e0"/>
    <stop offset="50%"  stop-color="#f5f5ff"/>
    <stop offset="66%"  stop-color="#b8b8d0"/>
    <stop offset="84%"  stop-color="#2e2e48"/>
    <stop offset="100%" stop-color="#08080e"/>
  </linearGradient>
  <!-- Blade tip brightening -->
  <linearGradient id="bladeTipr1x8794" x1="0%" y1="100%" x2="0%" y2="0%">
    <stop offset="0%"   stop-color="rgba(255,255,255,0)"/>
    <stop offset="55%"  stop-color="rgba(255,255,255,.1)"/>
    <stop offset="100%" stop-color="rgba(255,255,255,.55)"/>
  </linearGradient>
  <!-- Gunmetal anodised — blaster body -->
  <linearGradient id="gunmetalr1x8794" x1="0%" y1="0%" x2="0%" y2="100%">
    <stop offset="0%"   stop-color="#46465e"/>
    <stop offset="18%"  stop-color="#828296"/>
    <stop offset="42%"  stop-color="#26263a"/>
    <stop offset="72%"  stop-color="#16162a"/>
    <stop offset="100%" stop-color="#0c0c18"/>
  </linearGradient>
  <!-- Brushed steel tube — barrel/rod -->
  <linearGradient id="barrelr1x8794" x1="0%" y1="0%" x2="100%" y2="0%">
    <stop offset="0%"   stop-color="#0a0a14"/>
    <stop offset="24%"  stop-color="#585875"/>
    <stop offset="50%"  stop-color="#a8a8c8"/>
    <stop offset="76%"  stop-color="#383852"/>
    <stop offset="100%" stop-color="#0a0a14"/>
  </linearGradient>
  <!-- Chrome rod — lance shaft -->
  <linearGradient id="chromer1x8794" x1="0%" y1="0%" x2="100%" y2="0%">
    <stop offset="0%"   stop-color="#0c0c18"/>
    <stop offset="20%"  stop-color="#686888"/>
    <stop offset="44%"  stop-color="#e0e0f0"/>
    <stop offset="56%"  stop-color="#c0c0d8"/>
    <stop offset="80%"  stop-color="#28283e"/>
    <stop offset="100%" stop-color="#0c0c18"/>
  </linearGradient>
  <!-- Titanium plate — shield face -->
  <linearGradient id="titaniumr1x8794" x1="0%" y1="0%" x2="100%" y2="100%">
    <stop offset="0%"   stop-color="#585878"/>
    <stop offset="28%"  stop-color="#4444ff" stop-opacity=".88"/>
    <stop offset="55%"  stop-color="#141428"/>
    <stop offset="80%"  stop-color="#181828"/>
    <stop offset="100%" stop-color="#0a0a18"/>
  </linearGradient>
  <!-- Artillery black-chrome — cannon body -->
  <linearGradient id="artilleryr1x8794" x1="0%" y1="0%" x2="0%" y2="100%">
    <stop offset="0%"   stop-color="#383850"/>
    <stop offset="14%"  stop-color="#78789a"/>
    <stop offset="36%"  stop-color="#202034"/>
    <stop offset="65%"  stop-color="#14141e"/>
    <stop offset="100%" stop-color="#0a0a12"/>
  </linearGradient>
  <!-- Energy orb — staff -->
  <radialGradient id="orbr1x8794" cx="35%" cy="35%" r="65%">
    <stop offset="0%"   stop-color="rgba(255,255,255,.9)"/>
    <stop offset="30%"  stop-color="#4444ff"/>
    <stop offset="68%"  stop-color="#141428"/>
    <stop offset="100%" stop-color="rgba(0,0,0,.6)"/>
  </radialGradient>
  <!-- Knuckle plate chrome -->
  <linearGradient id="knuckler1x8794" x1="0%" y1="0%" x2="0%" y2="100%">
    <stop offset="0%"   stop-color="#888aaa"/>
    <stop offset="32%"  stop-color="#4444ff" stop-opacity=".8"/>
    <stop offset="62%"  stop-color="#1a1a2c"/>
    <stop offset="100%" stop-color="#0a0a14"/>
  </linearGradient>

  <!-- Carbon fibre weave texture overlay -->
  <pattern id="carbonr1x8794" width="6" height="6" patternUnits="userSpaceOnUse">
    <rect width="6" height="6" fill="rgba(0,0,0,.08)"/>
    <rect x="0" y="0" width="3" height="3" fill="rgba(255,255,255,.022)"/>
    <rect x="3" y="3" width="3" height="3" fill="rgba(255,255,255,.022)"/>
    <line x1="0" y1="0" x2="3" y2="3" stroke="rgba(255,255,255,.038)" stroke-width=".5"/>
    <line x1="3" y1="0" x2="6" y2="3" stroke="rgba(0,0,0,.055)"       stroke-width=".5"/>
    <line x1="0" y1="3" x2="3" y2="6" stroke="rgba(0,0,0,.055)"       stroke-width=".5"/>
    <line x1="3" y1="3" x2="6" y2="6" stroke="rgba(255,255,255,.038)" stroke-width=".5"/>
  </pattern>

  <!-- Specular metal sheen on armour panels -->
  <filter id="metalr1x8794" x="-5%" y="-5%" width="110%" height="110%">
    <feSpecularLighting surfaceScale="4" specularConstant="1.8"
        specularExponent="42" lighting-color="#ffffff" result="spec">
      <feDistantLight elevation="52" azimuth="38"/>
    </feSpecularLighting>
    <feComposite in="spec" in2="SourceGraphic" operator="in" result="sm"/>
    <feComposite in="SourceGraphic" in2="sm" operator="arithmetic" k1="0" k2="1" k3="0.55" k4="0"/>
  </filter>

  <!-- Sharper specular for weapons — heavier glare -->
  <filter id="wmr1x8794" x="-8%" y="-8%" width="116%" height="116%">
    <feSpecularLighting surfaceScale="6" specularConstant="2.4"
        specularExponent="65" lighting-color="#ffffff" result="spec">
      <feDistantLight elevation="44" azimuth="28"/>
    </feSpecularLighting>
    <feComposite in="spec" in2="SourceGraphic" operator="in" result="sm"/>
    <feComposite in="SourceGraphic" in2="sm" operator="arithmetic" k1="0" k2="1" k3="0.78" k4="0"/>
  </filter>

  <!-- Sketch wobble -->
  <filter id="skr1x8794" x="-8%" y="-8%" width="116%" height="116%">
    <feTurbulence type="fractalNoise" baseFrequency="0.038"
        numOctaves="3" seed="48" result="noise"/>
    <feDisplacementMap in="SourceGraphic" in2="noise" scale="2.6"
        xChannelSelector="R" yChannelSelector="G" result="w"/>
    <feComposite in="w" in2="SourceGraphic" operator="atop"/>
  </filter>

  <!-- Glow: sharp accent -->
  <filter id="glowr1x8794" x="-20%" y="-20%" width="140%" height="140%">
    <feGaussianBlur stdDeviation="3.5" result="b"/>
    <feColorMatrix in="b" type="matrix"
        values="0 0 0 0 1  0 0 0 0 1  0 0 0 0 1  0 0 0 1.8 0" result="boost"/>
    <feMerge><feMergeNode in="boost"/><feMergeNode in="SourceGraphic"/></feMerge>
  </filter>

  <!-- Bloom: wide soft -->
  <filter id="bloomr1x8794" x="-40%" y="-40%" width="180%" height="180%">
    <feGaussianBlur stdDeviation="11" result="b"/>
    <feMerge><feMergeNode in="b"/><feMergeNode in="SourceGraphic"/></feMerge>
  </filter>

  </defs><rect width="1000" height="1000" fill="url(#bgr1x8794)"/><ellipse cx="500.0" cy="892.0" rx="350.0" ry="65.0" fill="rgba(0,0,0,.7)" filter="url(#bloomr1x8794)"/><ellipse cx="500.0" cy="889.0" rx="220.0" ry="34.0" fill="rgba(0,0,0,.45)"/><ellipse cx="500.0" cy="520.0" rx="320.0" ry="480.0" fill="#00e5ff" fill-opacity=".042" filter="url(#bloomr1x8794)"/><circle cx="746.3" cy="378.7" r="0.7" fill="#00e5ff" fill-opacity="0.87" filter="url(#glowr1x8794)"/><circle cx="611.1" cy="182.2" r="0.9" fill="#00e5ff" fill-opacity="0.56" filter="url(#glowr1x8794)"/><circle cx="399.2" cy="195.3" r="4.1" fill="#00e5ff" fill-opacity="0.44" filter="url(#glowr1x8794)"/><circle cx="368.1" cy="467.5" r="1.2" fill="#00e5ff" fill-opacity="0.46" filter="url(#glowr1x8794)"/><circle cx="295.5" cy="600.4" r="3.5" fill="#00e5ff" fill-opacity="0.66" filter="url(#glowr1x8794)"/><circle cx="402.7" cy="568.0" r="1.1" fill="#00e5ff" fill-opacity="0.40" filter="url(#glowr1x8794)"/><circle cx="365.4" cy="331.1" r="3.9" fill="#00e5ff" fill-opacity="0.83" filter="url(#glowr1x8794)"/><circle cx="600.9" cy="687.4" r="3.8" fill="#00e5ff" fill-opacity="0.88" filter="url(#glowr1x8794)"/><circle cx="376.3" cy="517.7" r="2.2" fill="#00e5ff" fill-opacity="0.57" filter="url(#glowr1x8794)"/><circle cx="395.9" cy="487.7" r="3.0" fill="#00e5ff" fill-opacity="0.57" filter="url(#glowr1x8794)"/><circle cx="267.7" cy="373.9" r="3.0" fill="#00e5ff" fill-opacity="0.81" filter="url(#glowr1x8794)"/><circle cx="553.9" cy="605.9" r="2.0" fill="#00e5ff" fill-opacity="0.45" filter="url(#glowr1x8794)"/><circle cx="565.4" cy="450.9" r="2.6" fill="#00e5ff" fill-opacity="0.86" filter="url(#glowr1x8794)"/><circle cx="292.5" cy="329.9" r="1.1" fill="#00e5ff" fill-opacity="0.52" filter="url(#glowr1x8794)"/><path d="M505.2,140.9 Q479.4,393.0 693.1,654.6" stroke="#00e5ff" stroke-opacity="0.77" stroke-width="0.7" fill="none" filter="url(#glowr1x8794)"/><path d="M433.2,347.0 Q429.8,554.3 552.9,715.9" stroke="#00e5ff" stroke-opacity="0.80" stroke-width="1.2" fill="none" filter="url(#glowr1x8794)"/><path d="M393.4,140.9 Q395.7,409.2 489.7,693.8" stroke="#00e5ff" stroke-opacity="0.42" stroke-width="2.1" fill="none" filter="url(#glowr1x8794)"/><path d="M392.8,287.8 Q418.6,565.1 569.8,872.7" stroke="#00e5ff" stroke-opacity="0.45" stroke-width="1.6" fill="none" filter="url(#glowr1x8794)"/><path d="M661.4,233.1 Q689.3,410.3 351.5,617.7" stroke="#00e5ff" stroke-opacity="0.76" stroke-width="0.7" fill="none" filter="url(#glowr1x8794)"/><polygon points="399.3,662.2 488.1,660.8 481.1,876.1 387.8,878.5" fill="url(#suitr1x8794)" stroke="#4444ff" stroke-width="2.2" filter="url(#skr1x8794) url(#metalr1x8794)"/><polygon points="399.0,663.1 488.4,661.7 481.9,879.1 387.2,876.0" fill="url(#carbonr1x8794)"/><polygon points="392.0,722.2 492.4,722.3 485.4,788.9 383.0,786.8" fill="url(#bevelr1x8794)" fill-opacity=".5" stroke="#4444ff" stroke-width="1.4" filter="url(#skr1x8794)"/><polygon points="510.4,662.9 602.5,661.4 611.4,875.8 518.9,876.0" fill="url(#suitr1x8794)" stroke="#4444ff" stroke-width="2.2" filter="url(#skr1x8794) url(#metalr1x8794)"/><polygon points="510.5,662.4 599.9,663.8 612.2,877.1 517.7,878.6" fill="url(#carbonr1x8794)"/><polygon points="507.9,724.5 607.8,723.0 616.3,789.2 514.9,788.6" fill="url(#bevelr1x8794)" fill-opacity=".5" stroke="#4444ff" stroke-width="1.4" filter="url(#skr1x8794)"/><rect x="391.2" y="837.3" width="100.3" height="24.7" fill="url(#bevelr1x8794)" stroke="#4444ff" stroke-width="1" filter="url(#skr1x8794)"/><rect x="508.5"  y="837.3" width="100.3" height="24.7" fill="url(#bevelr1x8794)" stroke="#4444ff" stroke-width="1" filter="url(#skr1x8794)"/><polygon points="371.1,875.8 496.7,877.6 504.7,923.2 362.9,921.6" fill="#141428" stroke="#4444ff" stroke-width="2" filter="url(#skr1x8794)"/><polygon points="503.9,877.6 631.4,878.0 636.0,921.7 495.0,922.9" fill="#141428" stroke="#4444ff" stroke-width="2" filter="url(#skr1x8794)"/><polygon points="302.8,634.9 696.4,633.4 639.3,683.5 362.1,681.7" fill="#4444ff" fill-opacity=".52" stroke="#4444ff" stroke-width="2" filter="url(#skr1x8794)"/><rect x="465.8" y="637.1" width="72.0" height="42.0" fill="url(#bevelr1x8794)" stroke="#4444ff" stroke-width="1.4" filter="url(#glowr1x8794)"/><rect x="485.8" y="638.9" width="28.0" height="22.0" rx="1" fill="rgba(255,255,255,.48)"/><polygon points="153.0,468.0 235.1,465.8 256.9,736.5 127.4,733.3" fill="url(#suitr1x8794)" stroke="#4444ff" stroke-width="2.2" filter="url(#skr1x8794) url(#metalr1x8794)"/><polygon points="173.9,432.3 254.6,431.9 242.0,510.6 160.0,511.9" fill="url(#bevelr1x8794)" fill-opacity=".72" stroke="#4444ff" stroke-width="2.2" filter="url(#skr1x8794)"/><polygon points="162.4,623.6 244.9,621.5 239.3,660.5 164.1,661.4" fill="#4444ff" fill-opacity=".42" stroke="#4444ff" stroke-width="1" filter="url(#skr1x8794)"/><polygon points="763.7,464.8 848.3,467.8 871.0,736.3 740.2,733.5" fill="url(#suitr1x8794)" stroke="#4444ff" stroke-width="2.2" filter="url(#skr1x8794) url(#metalr1x8794)"/><polygon points="747.2,433.1 826.3,433.8 838.9,511.9 757.0,509.9" fill="url(#bevelr1x8794)" fill-opacity=".72" stroke="#4444ff" stroke-width="2.2" filter="url(#skr1x8794)"/><polygon points="756.3,622.1 837.2,620.9 833.0,660.3 762.6,662.1" fill="#4444ff" fill-opacity=".42" stroke="#4444ff" stroke-width="1" filter="url(#skr1x8794)"/><rect x="119.7"  y="700.6" width="135.3" height="85.0" rx="4" fill="url(#bevelr1x8794)" stroke="#4444ff" stroke-width="1.8" filter="url(#skr1x8794)"/><rect x="749.6"   y="698.7" width="135.3" height="85.0" rx="4" fill="url(#bevelr1x8794)" stroke="#4444ff" stroke-width="1.8" filter="url(#skr1x8794)"/><line x1="150.8" y1="701.5" x2="150.4" y2="783.3" stroke="#4444ff" stroke-opacity=".38" stroke-width="1"/><line x1="777.6" y1="701.5" x2="776.8" y2="785.3" stroke="#4444ff" stroke-opacity=".38" stroke-width="1"/><line x1="182.6" y1="700.6" x2="183.2" y2="782.2" stroke="#4444ff" stroke-opacity=".38" stroke-width="1"/><line x1="812.1" y1="702.0" x2="809.7" y2="783.9" stroke="#4444ff" stroke-opacity=".38" stroke-width="1"/><line x1="215.6" y1="700.6" x2="215.5" y2="785.2" stroke="#4444ff" stroke-opacity=".38" stroke-width="1"/><line x1="842.7" y1="703.6" x2="844.9" y2="785.1" stroke="#4444ff" stroke-opacity=".38" stroke-width="1"/><polygon points="235.7,416.4 763.6,419.1 723.8,662.5 276.2,662.4" fill="url(#suitr1x8794)" stroke="#4444ff" stroke-width="2.6" filter="url(#skr1x8794) url(#metalr1x8794)"/><polygon points="235.5,416.9 766.6,418.9 723.7,662.6 279.1,663.1" fill="url(#carbonr1x8794)"/><polygon points="367.0,418.8 631.8,417.6 610.0,513.9 388.4,515.3" fill="url(#suitHir1x8794)"/><line x1="361.3" y1="471.6" x2="636.8" y2="471.9" stroke="#4444ff" stroke-opacity=".52" stroke-width="1.3" filter="url(#skr1x8794)"/><line x1="397.9" y1="549.0" x2="599.2" y2="550.7" stroke="#4444ff" stroke-opacity=".52" stroke-width="1.3" filter="url(#skr1x8794)"/><line x1="267.5" y1="492.1" x2="320.2" y2="489.8" stroke="#4444ff" stroke-opacity=".62" stroke-width="1.8"/><line x1="681.8" y1="490.1" x2="733.4" y2="491.5" stroke="#4444ff" stroke-opacity=".62" stroke-width="1.8"/><line x1="268.0" y1="523.7" x2="321.1" y2="523.9" stroke="#4444ff" stroke-opacity=".62" stroke-width="1.8"/><line x1="681.9" y1="523.9" x2="734.5" y2="523.1" stroke="#4444ff" stroke-opacity=".62" stroke-width="1.8"/><line x1="267.6" y1="556.1" x2="321.3" y2="555.8" stroke="#4444ff" stroke-opacity=".62" stroke-width="1.8"/><line x1="680.8" y1="554.8" x2="733.3" y2="554.7" stroke="#4444ff" stroke-opacity=".62" stroke-width="1.8"/><line x1="266.0" y1="586.0" x2="318.2" y2="587.4" stroke="#4444ff" stroke-opacity=".62" stroke-width="1.8"/><line x1="679.9" y1="588.1" x2="734.1" y2="586.0" stroke="#4444ff" stroke-opacity=".62" stroke-width="1.8"/><g filter="url(#glowr1x8794)"><path d="M500.0,449.7 C462.3,446.8 442.0,481.6 447.8,513.5 L459.4,542.5 C476.8,536.7 491.3,551.2 500.0,551.2 C508.7,551.2 523.2,536.7 540.6,542.5 L552.2,513.5 C558.0,481.6 537.7,446.8 500.0,449.7 Z" fill="#4444ff" fill-opacity=".92" stroke="#050508" stroke-width="1.3" filter="url(#skr1x8794)"/><path d="M483.8,519.3 Q500.0,533.8 516.2,519.3" stroke="#050508" stroke-width="1" fill="none" opacity=".58"/><ellipse cx="481.4" cy="497.8" rx="8.7" ry="6.4" fill="#050508" opacity=".95"/><ellipse cx="518.6" cy="497.8" rx="8.7" ry="6.4" fill="#050508" opacity=".95"/><ellipse cx="481.4" cy="497.8" rx="2.3" ry="5.8" fill="#4444ff"/><ellipse cx="518.6" cy="497.8" rx="2.3" ry="5.8" fill="#4444ff"/><path d="M471.0,467.1 L458.2,426.5 L481.4,463.0" fill="#4444ff" stroke="#050508" stroke-width=".9"/><path d="M529.0,467.1 L541.8,426.5 L518.6,463.0" fill="#4444ff" stroke="#050508" stroke-width=".9"/><path d="M476.8,452.6 C488.4,449.1 511.6,449.1 523.2,452.6" fill="rgba(255,255,255,.18)"/></g><g><polygon points="829.1,293.9 966.2,292.1 968.8,591.8 898.4,727.0 828.7,589.9" fill="url(#titaniumr1x8794)" stroke="#4444ff" stroke-width="2.6" filter="url(#wmr1x8794)"/><polygon points="826.9,294.7 969.0,293.6 967.1,590.5 899.2,725.1 826.1,591.9" fill="url(#carbonr1x8794)"/><polygon points="861.2,360.3 935.5,360.0 936.5,540.0 896.6,631.5 861.3,542.4" fill="#4444ff" fill-opacity=".28" stroke="#4444ff" stroke-width="1.5"/><line x1="846.4223188851588" y1="432.18657456748184" x2="948.7481434206106" y2="431.3490621920675" stroke="#4444ff" stroke-opacity=".65" stroke-width="1.3"/><line x1="896.779338098187" y1="330.3354900024831" x2="898.3948660869711" y2="593.04124440616" stroke="#4444ff" stroke-opacity=".4" stroke-width="1"/><line x1="828.3930293741264" y1="297.2477493194863" x2="964.3235163392127" y2="297.28064424265176" stroke="rgba(255,255,255,.5)" stroke-width="2"/><circle cx="896.3715185054206" cy="433.0688785200007" r="18.0" fill="url(#bevelr1x8794)" stroke="#4444ff" stroke-width="1.2" filter="url(#wmr1x8794)"/></g><rect x="450.0746968539432" y="557.1940097477287" width="100.0"  height="56.0" fill="#141428" stroke="#4444ff" stroke-width="2.2" filter="url(#skr1x8794)"/><rect x="422.6781692321412" y="574.4967356421985" width="152.0" height="26.0" fill="url(#bevelr1x8794)" fill-opacity=".65" stroke="#4444ff" stroke-width="1.2" filter="url(#skr1x8794)"/><polygon points="307.5,378.9 350.1,296.1 501.0,276.5 651.2,292.8 690.3,381.4 669.2,505.3 500.5,563.6 332.2,503.7" fill="url(#suitr1x8794)" stroke="#4444ff" stroke-width="2.8" filter="url(#skr1x8794) url(#metalr1x8794)"/><polygon points="308.3,380.5 349.3,293.2 499.9,279.4 651.4,293.5 690.7,380.8 668.1,504.3 498.3,565.4 331.8,504.6" fill="url(#carbonr1x8794)"/><polygon points="379.9,303.3 500.2,285.3 618.6,301.6 607.4,381.9 392.0,381.4" fill="url(#suitHir1x8794)"/><polygon points="381.0,380.1 364.5,424.2 433.2,505.0 499.6,527.9 565.7,504.9 634.4,426.7 618.4,381.2" fill="#050508" fill-opacity=".88" stroke="#4444ff" stroke-width="1.8" filter="url(#skr1x8794)"/><polygon points="381.8,410.4 478.4,411.0 484.3,440.5 387.3,440.3" fill="#4444ff" filter="url(#glowr1x8794)"/><polygon points="524.6,409.8 617.2,411.3 610.1,438.6 515.3,440.1" fill="#4444ff" filter="url(#glowr1x8794)"/><ellipse cx="430.9" cy="425.7" rx="38.4"  ry="8.2" fill="#ffffff" opacity=".88"/><ellipse cx="569.1" cy="425.7" rx="38.4"  ry="8.2" fill="#ffffff" opacity=".88"/><line x1="484.43093904970215" y1="414.1472472838126" x2="515.6507542509027" y2="414.1555502529256" stroke="#4444ff" stroke-opacity=".52" stroke-width="2"/><line x1="483.57925827816126" y1="438.8244821000844" x2="514.4240749660321" y2="439.23439217722046" stroke="#4444ff" stroke-opacity=".52" stroke-width="2"/><line x1="499.8221713083796" y1="454.9574906167574" x2="501.58512210529295" y2="484.8792064327747" stroke="#4444ff" stroke-opacity=".58" stroke-width="2.2" filter="url(#skr1x8794)"/><line x1="453.401446594093" y1="490.06942459698763" x2="455.23794715132567" y2="520.4351507175713" stroke="#4444ff" stroke-opacity=".52" stroke-width="1.5" filter="url(#skr1x8794)"/><line x1="477.86329071590677" y1="490.01834495970974" x2="476.97291534435004" y2="520.1306623553858" stroke="#4444ff" stroke-opacity=".52" stroke-width="1.5" filter="url(#skr1x8794)"/><line x1="499.97989742681386" y1="492.21887170244" x2="498.7658664413728" y2="520.5282025287859" stroke="#4444ff" stroke-opacity=".52" stroke-width="1.5" filter="url(#skr1x8794)"/><line x1="522.7159411319159" y1="489.96012256126846" x2="521.7653537604585" y2="521.3703131265938" stroke="#4444ff" stroke-opacity=".52" stroke-width="1.5" filter="url(#skr1x8794)"/><line x1="547.4042859974504" y1="492.9813815090805" x2="545.646374309361" y2="519.347001644224" stroke="#4444ff" stroke-opacity=".52" stroke-width="1.5" filter="url(#skr1x8794)"/><polygon points="432.6,502.4 568.4,502.1 554.0,555.2 444.7,558.4" fill="#141428" fill-opacity=".72" stroke="#4444ff" stroke-width="1.3" filter="url(#skr1x8794)"/><text x="30.0"  y="975.0" font-family="monospace" font-weight="bold" font-size="22.0" fill="rgba(255,255,255,.22)">#0001</text><text x="500.0"   y="975.0" text-anchor="middle" font-family="monospace" font-weight="bold" font-size="22.0" fill="#4444ff" fill-opacity=".48">OBSIDIAN RANGER</text><text x="970.0" y="975.0" text-anchor="end"    font-family="monospace" font-weight="bold" font-size="22.0" fill="#4444ff" fill-opacity=".32">MECH RANGERS</text></svg>