<svg xmlns="http://www.w3.org/2000/svg" viewBox="0 0 1000 1000" width="1000" height="1000" shape-rendering="geometricPrecision"><defs>

  <!-- Scene gradients -->
  <radialGradient id="bgr1x8918" cx="50%" cy="42%" r="72%">
    <stop offset="0%"   stop-color="#0a0a14"/>
    <stop offset="100%" stop-color="#050508"/>
  </radialGradient>
  <linearGradient id="suitr1x8918" x1="8%" y1="0%" x2="92%" y2="100%">
    <stop offset="0%"   stop-color="#00ff60" stop-opacity=".95"/>
    <stop offset="45%"  stop-color="#00441e"/>
    <stop offset="100%" stop-color="#050508"/>
  </linearGradient>
  <linearGradient id="suitHir1x8918" x1="0%" y1="0%" x2="0%" y2="100%">
    <stop offset="0%"   stop-color="rgba(255,255,255,.28)"/>
    <stop offset="60%"  stop-color="rgba(255,255,255,.04)"/>
    <stop offset="100%" stop-color="rgba(255,255,255,0)"/>
  </linearGradient>
  <!-- Bevel: bright top, dark bottom for armour panels -->
  <linearGradient id="bevelr1x8918" x1="0%" y1="0%" x2="0%" y2="100%">
    <stop offset="0%"   stop-color="rgba(255,255,255,.55)"/>
    <stop offset="30%"  stop-color="#00ff60"/>
    <stop offset="70%"  stop-color="#00441e"/>
    <stop offset="100%" stop-color="rgba(0,0,0,.5)"/>
  </linearGradient>

  <!-- Weapon: cold steel blade sweep -->
  <linearGradient id="blader1x8918" x1="0%" y1="0%" x2="100%" y2="0%">
    <stop offset="0%"   stop-color="#0e0e20"/>
    <stop offset="16%"  stop-color="#3e3e58"/>
    <stop offset="34%"  stop-color="#c8c8e0"/>
    <stop offset="50%"  stop-color="#f5f5ff"/>
    <stop offset="66%"  stop-color="#b8b8d0"/>
    <stop offset="84%"  stop-color="#2e2e48"/>
    <stop offset="100%" stop-color="#08080e"/>
  </linearGradient>
  <!-- Blade tip brightening -->
  <linearGradient id="bladeTipr1x8918" x1="0%" y1="100%" x2="0%" y2="0%">
    <stop offset="0%"   stop-color="rgba(255,255,255,0)"/>
    <stop offset="55%"  stop-color="rgba(255,255,255,.1)"/>
    <stop offset="100%" stop-color="rgba(255,255,255,.55)"/>
  </linearGradient>
  <!-- Gunmetal anodised — blaster body -->
  <linearGradient id="gunmetalr1x8918" x1="0%" y1="0%" x2="0%" y2="100%">
    <stop offset="0%"   stop-color="#46465e"/>
    <stop offset="18%"  stop-color="#828296"/>
    <stop offset="42%"  stop-color="#26263a"/>
    <stop offset="72%"  stop-color="#16162a"/>
    <stop offset="100%" stop-color="#0c0c18"/>
  </linearGradient>
  <!-- Brushed steel tube — barrel/rod -->
  <linearGradient id="barrelr1x8918" x1="0%" y1="0%" x2="100%" y2="0%">
    <stop offset="0%"   stop-color="#0a0a14"/>
    <stop offset="24%"  stop-color="#585875"/>
    <stop offset="50%"  stop-color="#a8a8c8"/>
    <stop offset="76%"  stop-color="#383852"/>
    <stop offset="100%" stop-color="#0a0a14"/>
  </linearGradient>
  <!-- Chrome rod — lance shaft -->
  <linearGradient id="chromer1x8918" x1="0%" y1="0%" x2="100%" y2="0%">
    <stop offset="0%"   stop-color="#0c0c18"/>
    <stop offset="20%"  stop-color="#686888"/>
    <stop offset="44%"  stop-color="#e0e0f0"/>
    <stop offset="56%"  stop-color="#c0c0d8"/>
    <stop offset="80%"  stop-color="#28283e"/>
    <stop offset="100%" stop-color="#0c0c18"/>
  </linearGradient>
  <!-- Titanium plate — shield face -->
  <linearGradient id="titaniumr1x8918" x1="0%" y1="0%" x2="100%" y2="100%">
    <stop offset="0%"   stop-color="#585878"/>
    <stop offset="28%"  stop-color="#00ff60" stop-opacity=".88"/>
    <stop offset="55%"  stop-color="#00441e"/>
    <stop offset="80%"  stop-color="#181828"/>
    <stop offset="100%" stop-color="#0a0a18"/>
  </linearGradient>
  <!-- Artillery black-chrome — cannon body -->
  <linearGradient id="artilleryr1x8918" x1="0%" y1="0%" x2="0%" y2="100%">
    <stop offset="0%"   stop-color="#383850"/>
    <stop offset="14%"  stop-color="#78789a"/>
    <stop offset="36%"  stop-color="#202034"/>
    <stop offset="65%"  stop-color="#14141e"/>
    <stop offset="100%" stop-color="#0a0a12"/>
  </linearGradient>
  <!-- Energy orb — staff -->
  <radialGradient id="orbr1x8918" cx="35%" cy="35%" r="65%">
    <stop offset="0%"   stop-color="rgba(255,255,255,.9)"/>
    <stop offset="30%"  stop-color="#00ff60"/>
    <stop offset="68%"  stop-color="#00441e"/>
    <stop offset="100%" stop-color="rgba(0,0,0,.6)"/>
  </radialGradient>
  <!-- Knuckle plate chrome -->
  <linearGradient id="knuckler1x8918" x1="0%" y1="0%" x2="0%" y2="100%">
    <stop offset="0%"   stop-color="#888aaa"/>
    <stop offset="32%"  stop-color="#00ff60" stop-opacity=".8"/>
    <stop offset="62%"  stop-color="#1a1a2c"/>
    <stop offset="100%" stop-color="#0a0a14"/>
  </linearGradient>

  <!-- Carbon fibre weave texture overlay -->
  <pattern id="carbonr1x8918" width="6" height="6" patternUnits="userSpaceOnUse">
    <rect width="6" height="6" fill="rgba(0,0,0,.08)"/>
    <rect x="0" y="0" width="3" height="3" fill="rgba(255,255,255,.022)"/>
    <rect x="3" y="3" width="3" height="3" fill="rgba(255,255,255,.022)"/>
    <line x1="0" y1="0" x2="3" y2="3" stroke="rgba(255,255,255,.038)" stroke-width=".5"/>
    <line x1="3" y1="0" x2="6" y2="3" stroke="rgba(0,0,0,.055)"       stroke-width=".5"/>
    <line x1="0" y1="3" x2="3" y2="6" stroke="rgba(0,0,0,.055)"       stroke-width=".5"/>
    <line x1="3" y1="3" x2="6" y2="6" stroke="rgba(255,255,255,.038)" stroke-width=".5"/>
  </pattern>

  <!-- Specular metal sheen on armour panels -->
  <filter id="metalr1x8918" x="-5%" y="-5%" width="110%" height="110%">
    <feSpecularLighting surfaceScale="4" specularConstant="1.8"
        specularExponent="42" lighting-color="#ffffff" result="spec">
      <feDistantLight elevation="52" azimuth="38"/>
    </feSpecularLighting>
    <feComposite in="spec" in2="SourceGraphic" operator="in" result="sm"/>
    <feComposite in="SourceGraphic" in2="sm" operator="arithmetic" k1="0" k2="1" k3="0.55" k4="0"/>
  </filter>

  <!-- Sharper specular for weapons — heavier glare -->
  <filter id="wmr1x8918" x="-8%" y="-8%" width="116%" height="116%">
    <feSpecularLighting surfaceScale="6" specularConstant="2.4"
        specularExponent="65" lighting-color="#ffffff" result="spec">
      <feDistantLight elevation="44" azimuth="28"/>
    </feSpecularLighting>
    <feComposite in="spec" in2="SourceGraphic" operator="in" result="sm"/>
    <feComposite in="SourceGraphic" in2="sm" operator="arithmetic" k1="0" k2="1" k3="0.78" k4="0"/>
  </filter>

  <!-- Sketch wobble -->
  <filter id="skr1x8918" x="-8%" y="-8%" width="116%" height="116%">
    <feTurbulence type="fractalNoise" baseFrequency="0.038"
        numOctaves="3" seed="36" result="noise"/>
    <feDisplacementMap in="SourceGraphic" in2="noise" scale="2.6"
        xChannelSelector="R" yChannelSelector="G" result="w"/>
    <feComposite in="w" in2="SourceGraphic" operator="atop"/>
  </filter>

  <!-- Glow: sharp accent -->
  <filter id="glowr1x8918" x="-20%" y="-20%" width="140%" height="140%">
    <feGaussianBlur stdDeviation="3.5" result="b"/>
    <feColorMatrix in="b" type="matrix"
        values="0 0 0 0 1  0 0 0 0 1  0 0 0 0 1  0 0 0 1.8 0" result="boost"/>
    <feMerge><feMergeNode in="boost"/><feMergeNode in="SourceGraphic"/></feMerge>
  </filter>

  <!-- Bloom: wide soft -->
  <filter id="bloomr1x8918" x="-40%" y="-40%" width="180%" height="180%">
    <feGaussianBlur stdDeviation="11" result="b"/>
    <feMerge><feMergeNode in="b"/><feMergeNode in="SourceGraphic"/></feMerge>
  </filter>

  </defs><rect width="1000" height="1000" fill="url(#bgr1x8918)"/><ellipse cx="500.0" cy="892.0" rx="350.0" ry="65.0" fill="rgba(0,0,0,.7)" filter="url(#bloomr1x8918)"/><ellipse cx="500.0" cy="889.0" rx="220.0" ry="34.0" fill="rgba(0,0,0,.45)"/><ellipse cx="500.0" cy="520.0" rx="320.0" ry="480.0" fill="#ffffff" fill-opacity=".042" filter="url(#bloomr1x8918)"/><circle cx="353.7" cy="739.7" r="0.9" fill="#ffffff" fill-opacity="0.80" filter="url(#glowr1x8918)"/><circle cx="640.7" cy="470.2" r="2.9" fill="#ffffff" fill-opacity="0.84" filter="url(#glowr1x8918)"/><circle cx="574.1" cy="480.6" r="2.0" fill="#ffffff" fill-opacity="0.89" filter="url(#glowr1x8918)"/><circle cx="520.4" cy="428.3" r="1.5" fill="#ffffff" fill-opacity="0.65" filter="url(#glowr1x8918)"/><circle cx="631.9" cy="465.3" r="3.9" fill="#ffffff" fill-opacity="0.50" filter="url(#glowr1x8918)"/><circle cx="546.2" cy="526.4" r="3.9" fill="#ffffff" fill-opacity="0.52" filter="url(#glowr1x8918)"/><circle cx="522.0" cy="474.6" r="2.3" fill="#ffffff" fill-opacity="0.85" filter="url(#glowr1x8918)"/><circle cx="337.1" cy="610.4" r="2.8" fill="#ffffff" fill-opacity="0.62" filter="url(#glowr1x8918)"/><circle cx="371.5" cy="726.4" r="3.8" fill="#ffffff" fill-opacity="0.46" filter="url(#glowr1x8918)"/><circle cx="437.2" cy="279.0" r="1.8" fill="#ffffff" fill-opacity="0.51" filter="url(#glowr1x8918)"/><circle cx="251.5" cy="481.5" r="2.3" fill="#ffffff" fill-opacity="0.44" filter="url(#glowr1x8918)"/><circle cx="290.2" cy="738.5" r="2.0" fill="#ffffff" fill-opacity="0.47" filter="url(#glowr1x8918)"/><circle cx="537.8" cy="196.2" r="3.6" fill="#ffffff" fill-opacity="0.49" filter="url(#glowr1x8918)"/><circle cx="349.6" cy="693.2" r="4.0" fill="#ffffff" fill-opacity="0.53" filter="url(#glowr1x8918)"/><polygon points="398.9,663.9 491.2,661.6 480.7,875.9 387.3,877.2" fill="url(#suitr1x8918)" stroke="#00ff60" stroke-width="2.2" filter="url(#skr1x8918) url(#metalr1x8918)"/><polygon points="397.2,661.3 488.3,663.5 481.3,876.9 386.6,878.4" fill="url(#carbonr1x8918)"/><polygon points="391.4,722.6 493.6,725.0 485.8,786.5 383.8,787.9" fill="url(#bevelr1x8918)" fill-opacity=".5" stroke="#00ff60" stroke-width="1.4" filter="url(#skr1x8918)"/><polygon points="512.0,662.1 601.8,663.8 611.1,877.4 517.6,876.4" fill="url(#suitr1x8918)" stroke="#00ff60" stroke-width="2.2" filter="url(#skr1x8918) url(#metalr1x8918)"/><polygon points="511.5,664.1 602.9,660.9 613.9,877.6 520.1,878.3" fill="url(#carbonr1x8918)"/><polygon points="506.5,725.3 607.3,723.3 615.4,788.1 515.5,787.9" fill="url(#bevelr1x8918)" fill-opacity=".5" stroke="#00ff60" stroke-width="1.4" filter="url(#skr1x8918)"/><rect x="392.6" y="839.2" width="100.3" height="24.7" fill="url(#bevelr1x8918)" stroke="#00ff60" stroke-width="1" filter="url(#skr1x8918)"/><rect x="508.2"  y="838.4" width="100.3" height="24.7" fill="url(#bevelr1x8918)" stroke="#00ff60" stroke-width="1" filter="url(#skr1x8918)"/><polygon points="369.3,879.0 496.1,876.9 503.0,921.2 362.5,920.9" fill="#00441e" stroke="#00ff60" stroke-width="2" filter="url(#skr1x8918)"/><polygon points="504.5,876.5 630.8,878.5 636.1,923.2 495.2,922.5" fill="#00441e" stroke="#00ff60" stroke-width="2" filter="url(#skr1x8918)"/><polygon points="305.1,634.3 696.9,631.7 638.3,680.4 360.7,683.8" fill="#00ff60" fill-opacity=".52" stroke="#00ff60" stroke-width="2" filter="url(#skr1x8918)"/><rect x="464.2" y="638.9" width="72.0" height="42.0" fill="url(#bevelr1x8918)" stroke="#00ff60" stroke-width="1.4" filter="url(#glowr1x8918)"/><rect x="486.4" y="640.5" width="28.0" height="22.0" rx="1" fill="rgba(255,255,255,.48)"/><polygon points="154.4,464.8 234.5,465.3 259.2,735.7 127.7,734.1" fill="url(#suitr1x8918)" stroke="#00ff60" stroke-width="2.2" filter="url(#skr1x8918) url(#metalr1x8918)"/><polygon points="174.6,433.8 251.8,433.2 242.0,510.1 158.1,512.0" fill="url(#bevelr1x8918)" fill-opacity=".72" stroke="#00ff60" stroke-width="2.2" filter="url(#skr1x8918)"/><polygon points="162.1,621.4 244.2,622.9 240.3,659.9 164.9,661.0" fill="#00ff60" fill-opacity=".42" stroke="#00ff60" stroke-width="1" filter="url(#skr1x8918)"/><polygon points="764.5,465.2 848.1,468.3 871.6,735.4 743.1,736.0" fill="url(#suitr1x8918)" stroke="#00ff60" stroke-width="2.2" filter="url(#skr1x8918) url(#metalr1x8918)"/><polygon points="746.3,433.7 826.6,432.7 839.3,510.4 757.6,510.9" fill="url(#bevelr1x8918)" fill-opacity=".72" stroke="#00ff60" stroke-width="2.2" filter="url(#skr1x8918)"/><polygon points="755.8,622.4 837.5,623.4 832.9,660.9 762.3,661.9" fill="#00ff60" fill-opacity=".42" stroke="#00ff60" stroke-width="1" filter="url(#skr1x8918)"/><rect x="121.1"  y="699.2" width="135.3" height="85.0" rx="4" fill="url(#bevelr1x8918)" stroke="#00ff60" stroke-width="1.8" filter="url(#skr1x8918)"/><rect x="749.7"   y="699.4" width="135.3" height="85.0" rx="4" fill="url(#bevelr1x8918)" stroke="#00ff60" stroke-width="1.8" filter="url(#skr1x8918)"/><line x1="151.5" y1="702.9" x2="149.7" y2="785.6" stroke="#00ff60" stroke-opacity=".38" stroke-width="1"/><line x1="776.5" y1="703.1" x2="776.7" y2="782.9" stroke="#00ff60" stroke-opacity=".38" stroke-width="1"/><line x1="184.1" y1="703.0" x2="183.4" y2="783.7" stroke="#00ff60" stroke-opacity=".38" stroke-width="1"/><line x1="811.1" y1="701.4" x2="809.5" y2="784.2" stroke="#00ff60" stroke-opacity=".38" stroke-width="1"/><line x1="215.0" y1="701.8" x2="214.8" y2="783.2" stroke="#00ff60" stroke-opacity=".38" stroke-width="1"/><line x1="844.4" y1="702.2" x2="843.7" y2="784.3" stroke="#00ff60" stroke-opacity=".38" stroke-width="1"/><polygon points="236.0,417.4 764.3,416.7 723.1,664.0 277.6,663.6" fill="url(#suitr1x8918)" stroke="#00ff60" stroke-width="2.6" filter="url(#skr1x8918) url(#metalr1x8918)"/><polygon points="234.7,417.6 765.9,419.3 723.5,661.2 279.0,663.6" fill="url(#carbonr1x8918)"/><polygon points="366.9,415.8 633.6,418.3 613.0,516.9 387.2,514.6" fill="url(#suitHir1x8918)"/><line x1="362.7" y1="471.6" x2="636.1" y2="472.6" stroke="#00ff60" stroke-opacity=".52" stroke-width="1.3" filter="url(#skr1x8918)"/><line x1="398.4" y1="550.0" x2="600.6" y2="548.6" stroke="#00ff60" stroke-opacity=".52" stroke-width="1.3" filter="url(#skr1x8918)"/><line x1="267.3" y1="492.4" x2="321.4" y2="492.2" stroke="#00ff60" stroke-opacity=".62" stroke-width="1.8"/><line x1="679.3" y1="491.1" x2="734.8" y2="490.0" stroke="#00ff60" stroke-opacity=".62" stroke-width="1.8"/><line x1="268.6" y1="522.5" x2="321.2" y2="524.1" stroke="#00ff60" stroke-opacity=".62" stroke-width="1.8"/><line x1="681.1" y1="522.8" x2="734.0" y2="522.1" stroke="#00ff60" stroke-opacity=".62" stroke-width="1.8"/><line x1="265.6" y1="554.5" x2="320.1" y2="553.6" stroke="#00ff60" stroke-opacity=".62" stroke-width="1.8"/><line x1="679.4" y1="554.5" x2="734.5" y2="555.5" stroke="#00ff60" stroke-opacity=".62" stroke-width="1.8"/><line x1="268.2" y1="585.9" x2="319.5" y2="586.2" stroke="#00ff60" stroke-opacity=".62" stroke-width="1.8"/><line x1="680.8" y1="585.0" x2="733.4" y2="587.8" stroke="#00ff60" stroke-opacity=".62" stroke-width="1.8"/><g filter="url(#glowr1x8918)"><polygon points="500.1,452.7 514.4,488.7 556.8,491.6 523.0,519.4 533.5,555.9 500.0,536.6 466.6,558.7 475.3,519.1 443.2,492.3 484.3,490.7 " fill="#00ff60" stroke="#050508" stroke-width="1.4" filter="url(#skr1x8918)"/><polygon points="500.1,452.7 514.4,488.7 556.8,491.6 523.0,519.4 533.5,555.9 500.0,536.6 466.6,558.7 475.3,519.1 443.2,492.3 484.3,490.7 " fill="url(#suitHir1x8918)" opacity=".45"/></g><g><rect x="34.101951863002" y="423.10152690457176" width="148.0" height="82.0" rx="5" fill="url(#gunmetalr1x8918)" stroke="#00ff60" stroke-width="2" filter="url(#wmr1x8918)"/><rect x="33.76814763857048" y="421.8434528417885" width="148.0" height="82.0" rx="5" fill="url(#carbonr1x8918)"/><rect x="41.10115385226902" y="401.6896831737831" width="90.0" height="22.0" rx="3" fill="url(#barrelr1x8918)" stroke="#00ff60" stroke-width="1" filter="url(#wmr1x8918)"/><circle cx="81.62221608333286" cy="414.77793434783814" r="15.0" fill="#00ff60" opacity=".8" filter="url(#glowr1x8918)"/><circle cx="82.42300839288157" cy="412.9162961092777" r="6.0" fill="rgba(255,255,255,.9)"/><rect x="54.56461409986016" y="455.9231330875307" width="78.0" height="36.0" rx="5" fill="url(#barrelr1x8918)" stroke="#00ff60" stroke-width="1.2" filter="url(#wmr1x8918)"/><circle cx="-21.47346066074449" cy="471.61540504181755" r="18.0" fill="#00ff60" filter="url(#glowr1x8918)" opacity=".88"/><circle cx="-21.20480685574937" cy="470.5411205742508" r="7.0" fill="#ffffff"/><rect x="79.08925330977884" y="500.40074536502357" width="44.0" height="42.0" rx="3" fill="url(#gunmetalr1x8918)" stroke="#00ff60" stroke-width="1" filter="url(#wmr1x8918)"/><rect x="37.085258346460726" y="424.2726761179976" width="90.0" height="10.0" rx="2" fill="rgba(255,255,255,.22)"/><line x1="63.85594022361558" y1="485.58850431693713" x2="61.63446237411347" y2="519.7096116546542" stroke="#00ff60" stroke-opacity=".5" stroke-width="1.2"/><line x1="79.57684494689104" y1="487.7639289058745" x2="76.48347087860104" y2="517.7011144543998" stroke="#00ff60" stroke-opacity=".5" stroke-width="1.2"/><line x1="92.70247984541577" y1="487.6514980884269" x2="93.5143748155236" y2="520.4491788478568" stroke="#00ff60" stroke-opacity=".5" stroke-width="1.2"/></g><rect x="448.88000342119483" y="555.3109869507141" width="100.0"  height="56.0" fill="#00441e" stroke="#00ff60" stroke-width="2.2" filter="url(#skr1x8918)"/><rect x="423.6910502525046" y="574.1408624392003" width="152.0" height="26.0" fill="url(#bevelr1x8918)" fill-opacity=".65" stroke="#00ff60" stroke-width="1.2" filter="url(#skr1x8918)"/><polygon points="308.6,382.0 350.0,293.0 501.5,278.3 650.8,292.9 692.5,379.3 669.0,503.2 501.8,565.8 330.9,504.3" fill="url(#suitr1x8918)" stroke="#00ff60" stroke-width="2.8" filter="url(#skr1x8918) url(#metalr1x8918)"/><polygon points="307.1,379.1 350.3,296.1 501.4,278.1 649.5,293.4 692.7,382.2 669.9,503.3 498.7,564.5 329.4,502.9" fill="url(#carbonr1x8918)"/><polygon points="380.4,302.6 499.4,285.3 620.1,304.4 609.1,379.8 392.4,379.8" fill="url(#suitHir1x8918)"/><polygon points="380.8,380.8 364.4,424.0 431.5,503.6 498.4,528.4 568.6,504.4 633.7,425.9 618.3,380.5" fill="#050508" fill-opacity=".88" stroke="#00ff60" stroke-width="1.8" filter="url(#skr1x8918)"/><polygon points="379.7,411.2 475.5,411.4 484.6,441.7 390.1,440.0" fill="#00ff60" filter="url(#glowr1x8918)"/><polygon points="523.2,413.1 620.6,410.0 609.8,441.5 514.8,439.5" fill="#00ff60" filter="url(#glowr1x8918)"/><ellipse cx="430.9" cy="425.7" rx="38.4"  ry="8.2" fill="#ffffff" opacity=".88"/><ellipse cx="569.1" cy="425.7" rx="38.4"  ry="8.2" fill="#ffffff" opacity=".88"/><line x1="483.6945344307087" y1="412.984517833963" x2="514.0654761709645" y2="414.38720332318917" stroke="#00ff60" stroke-opacity=".52" stroke-width="2"/><line x1="485.0339450024627" y1="437.5354901695624" x2="513.8733560729213" y2="436.9447854886763" stroke="#00ff60" stroke-opacity=".52" stroke-width="2"/><line x1="501.7020305111073" y1="455.70647558141496" x2="498.46940199295057" y2="482.15863131890075" stroke="#00ff60" stroke-opacity=".58" stroke-width="2.2" filter="url(#skr1x8918)"/><line x1="455.26696998978036" y1="490.8597579493187" x2="455.04095189783726" y2="521.0314320018515" stroke="#00ff60" stroke-opacity=".52" stroke-width="1.5" filter="url(#skr1x8918)"/><line x1="476.5226834573224" y1="490.2356499643996" x2="478.2002532464824" y2="521.3734245141968" stroke="#00ff60" stroke-opacity=".52" stroke-width="1.5" filter="url(#skr1x8918)"/><line x1="498.6745257311501" y1="490.2023570139892" x2="499.502324292995" y2="518.4473976296373" stroke="#00ff60" stroke-opacity=".52" stroke-width="1.5" filter="url(#skr1x8918)"/><line x1="521.7869610562548" y1="490.0160084664821" x2="521.4823629615455" y2="521.3641065536067" stroke="#00ff60" stroke-opacity=".52" stroke-width="1.5" filter="url(#skr1x8918)"/><line x1="547.6203283396736" y1="489.72068075416604" x2="546.6591823057458" y2="520.8754755529575" stroke="#00ff60" stroke-opacity=".52" stroke-width="1.5" filter="url(#skr1x8918)"/><polygon points="432.5,504.1 565.4,503.5 553.2,557.7 447.6,558.3" fill="#00441e" fill-opacity=".72" stroke="#00ff60" stroke-width="1.3" filter="url(#skr1x8918)"/><text x="30.0"  y="975.0" font-family="monospace" font-weight="bold" font-size="22.0" fill="rgba(255,255,255,.22)">#0001</text><text x="500.0"   y="975.0" text-anchor="middle" font-family="monospace" font-weight="bold" font-size="22.0" fill="#00ff60" fill-opacity=".48">VIPER RANGER</text><text x="970.0" y="975.0" text-anchor="end"    font-family="monospace" font-weight="bold" font-size="22.0" fill="#00ff60" fill-opacity=".32">MECH RANGERS</text></svg>