<svg xmlns="http://www.w3.org/2000/svg" viewBox="0 0 1000 1000" width="1000" height="1000" shape-rendering="geometricPrecision"><defs>

  <!-- Scene gradients -->
  <radialGradient id="bgr1x895" cx="50%" cy="42%" r="72%">
    <stop offset="0%"   stop-color="#0a0a14"/>
    <stop offset="100%" stop-color="#050508"/>
  </radialGradient>
  <linearGradient id="suitr1x895" x1="8%" y1="0%" x2="92%" y2="100%">
    <stop offset="0%"   stop-color="#ff2040" stop-opacity=".95"/>
    <stop offset="45%"  stop-color="#cc0020"/>
    <stop offset="100%" stop-color="#050508"/>
  </linearGradient>
  <linearGradient id="suitHir1x895" x1="0%" y1="0%" x2="0%" y2="100%">
    <stop offset="0%"   stop-color="rgba(255,255,255,.28)"/>
    <stop offset="60%"  stop-color="rgba(255,255,255,.04)"/>
    <stop offset="100%" stop-color="rgba(255,255,255,0)"/>
  </linearGradient>
  <!-- Bevel: bright top, dark bottom for armour panels -->
  <linearGradient id="bevelr1x895" x1="0%" y1="0%" x2="0%" y2="100%">
    <stop offset="0%"   stop-color="rgba(255,255,255,.55)"/>
    <stop offset="30%"  stop-color="#ff2040"/>
    <stop offset="70%"  stop-color="#cc0020"/>
    <stop offset="100%" stop-color="rgba(0,0,0,.5)"/>
  </linearGradient>

  <!-- Weapon: cold steel blade sweep -->
  <linearGradient id="blader1x895" x1="0%" y1="0%" x2="100%" y2="0%">
    <stop offset="0%"   stop-color="#0e0e20"/>
    <stop offset="16%"  stop-color="#3e3e58"/>
    <stop offset="34%"  stop-color="#c8c8e0"/>
    <stop offset="50%"  stop-color="#f5f5ff"/>
    <stop offset="66%"  stop-color="#b8b8d0"/>
    <stop offset="84%"  stop-color="#2e2e48"/>
    <stop offset="100%" stop-color="#08080e"/>
  </linearGradient>
  <!-- Blade tip brightening -->
  <linearGradient id="bladeTipr1x895" x1="0%" y1="100%" x2="0%" y2="0%">
    <stop offset="0%"   stop-color="rgba(255,255,255,0)"/>
    <stop offset="55%"  stop-color="rgba(255,255,255,.1)"/>
    <stop offset="100%" stop-color="rgba(255,255,255,.55)"/>
  </linearGradient>
  <!-- Gunmetal anodised — blaster body -->
  <linearGradient id="gunmetalr1x895" x1="0%" y1="0%" x2="0%" y2="100%">
    <stop offset="0%"   stop-color="#46465e"/>
    <stop offset="18%"  stop-color="#828296"/>
    <stop offset="42%"  stop-color="#26263a"/>
    <stop offset="72%"  stop-color="#16162a"/>
    <stop offset="100%" stop-color="#0c0c18"/>
  </linearGradient>
  <!-- Brushed steel tube — barrel/rod -->
  <linearGradient id="barrelr1x895" x1="0%" y1="0%" x2="100%" y2="0%">
    <stop offset="0%"   stop-color="#0a0a14"/>
    <stop offset="24%"  stop-color="#585875"/>
    <stop offset="50%"  stop-color="#a8a8c8"/>
    <stop offset="76%"  stop-color="#383852"/>
    <stop offset="100%" stop-color="#0a0a14"/>
  </linearGradient>
  <!-- Chrome rod — lance shaft -->
  <linearGradient id="chromer1x895" x1="0%" y1="0%" x2="100%" y2="0%">
    <stop offset="0%"   stop-color="#0c0c18"/>
    <stop offset="20%"  stop-color="#686888"/>
    <stop offset="44%"  stop-color="#e0e0f0"/>
    <stop offset="56%"  stop-color="#c0c0d8"/>
    <stop offset="80%"  stop-color="#28283e"/>
    <stop offset="100%" stop-color="#0c0c18"/>
  </linearGradient>
  <!-- Titanium plate — shield face -->
  <linearGradient id="titaniumr1x895" x1="0%" y1="0%" x2="100%" y2="100%">
    <stop offset="0%"   stop-color="#585878"/>
    <stop offset="28%"  stop-color="#ff2040" stop-opacity=".88"/>
    <stop offset="55%"  stop-color="#cc0020"/>
    <stop offset="80%"  stop-color="#181828"/>
    <stop offset="100%" stop-color="#0a0a18"/>
  </linearGradient>
  <!-- Artillery black-chrome — cannon body -->
  <linearGradient id="artilleryr1x895" x1="0%" y1="0%" x2="0%" y2="100%">
    <stop offset="0%"   stop-color="#383850"/>
    <stop offset="14%"  stop-color="#78789a"/>
    <stop offset="36%"  stop-color="#202034"/>
    <stop offset="65%"  stop-color="#14141e"/>
    <stop offset="100%" stop-color="#0a0a12"/>
  </linearGradient>
  <!-- Energy orb — staff -->
  <radialGradient id="orbr1x895" cx="35%" cy="35%" r="65%">
    <stop offset="0%"   stop-color="rgba(255,255,255,.9)"/>
    <stop offset="30%"  stop-color="#ff2040"/>
    <stop offset="68%"  stop-color="#cc0020"/>
    <stop offset="100%" stop-color="rgba(0,0,0,.6)"/>
  </radialGradient>
  <!-- Knuckle plate chrome -->
  <linearGradient id="knuckler1x895" x1="0%" y1="0%" x2="0%" y2="100%">
    <stop offset="0%"   stop-color="#888aaa"/>
    <stop offset="32%"  stop-color="#ff2040" stop-opacity=".8"/>
    <stop offset="62%"  stop-color="#1a1a2c"/>
    <stop offset="100%" stop-color="#0a0a14"/>
  </linearGradient>

  <!-- Carbon fibre weave texture overlay -->
  <pattern id="carbonr1x895" width="6" height="6" patternUnits="userSpaceOnUse">
    <rect width="6" height="6" fill="rgba(0,0,0,.08)"/>
    <rect x="0" y="0" width="3" height="3" fill="rgba(255,255,255,.022)"/>
    <rect x="3" y="3" width="3" height="3" fill="rgba(255,255,255,.022)"/>
    <line x1="0" y1="0" x2="3" y2="3" stroke="rgba(255,255,255,.038)" stroke-width=".5"/>
    <line x1="3" y1="0" x2="6" y2="3" stroke="rgba(0,0,0,.055)"       stroke-width=".5"/>
    <line x1="0" y1="3" x2="3" y2="6" stroke="rgba(0,0,0,.055)"       stroke-width=".5"/>
    <line x1="3" y1="3" x2="6" y2="6" stroke="rgba(255,255,255,.038)" stroke-width=".5"/>
  </pattern>

  <!-- Specular metal sheen on armour panels -->
  <filter id="metalr1x895" x="-5%" y="-5%" width="110%" height="110%">
    <feSpecularLighting surfaceScale="4" specularConstant="1.8"
        specularExponent="42" lighting-color="#ffffff" result="spec">
      <feDistantLight elevation="52" azimuth="38"/>
    </feSpecularLighting>
    <feComposite in="spec" in2="SourceGraphic" operator="in" result="sm"/>
    <feComposite in="SourceGraphic" in2="sm" operator="arithmetic" k1="0" k2="1" k3="0.55" k4="0"/>
  </filter>

  <!-- Sharper specular for weapons — heavier glare -->
  <filter id="wmr1x895" x="-8%" y="-8%" width="116%" height="116%">
    <feSpecularLighting surfaceScale="6" specularConstant="2.4"
        specularExponent="65" lighting-color="#ffffff" result="spec">
      <feDistantLight elevation="44" azimuth="28"/>
    </feSpecularLighting>
    <feComposite in="spec" in2="SourceGraphic" operator="in" result="sm"/>
    <feComposite in="SourceGraphic" in2="sm" operator="arithmetic" k1="0" k2="1" k3="0.78" k4="0"/>
  </filter>

  <!-- Sketch wobble -->
  <filter id="skr1x895" x="-8%" y="-8%" width="116%" height="116%">
    <feTurbulence type="fractalNoise" baseFrequency="0.038"
        numOctaves="3" seed="54" result="noise"/>
    <feDisplacementMap in="SourceGraphic" in2="noise" scale="2.6"
        xChannelSelector="R" yChannelSelector="G" result="w"/>
    <feComposite in="w" in2="SourceGraphic" operator="atop"/>
  </filter>

  <!-- Glow: sharp accent -->
  <filter id="glowr1x895" x="-20%" y="-20%" width="140%" height="140%">
    <feGaussianBlur stdDeviation="3.5" result="b"/>
    <feColorMatrix in="b" type="matrix"
        values="0 0 0 0 1  0 0 0 0 1  0 0 0 0 1  0 0 0 1.8 0" result="boost"/>
    <feMerge><feMergeNode in="boost"/><feMergeNode in="SourceGraphic"/></feMerge>
  </filter>

  <!-- Bloom: wide soft -->
  <filter id="bloomr1x895" x="-40%" y="-40%" width="180%" height="180%">
    <feGaussianBlur stdDeviation="11" result="b"/>
    <feMerge><feMergeNode in="b"/><feMergeNode in="SourceGraphic"/></feMerge>
  </filter>

  </defs><rect width="1000" height="1000" fill="url(#bgr1x895)"/><ellipse cx="500.0" cy="892.0" rx="350.0" ry="65.0" fill="rgba(0,0,0,.7)" filter="url(#bloomr1x895)"/><ellipse cx="500.0" cy="889.0" rx="220.0" ry="34.0" fill="rgba(0,0,0,.45)"/><ellipse cx="500.0" cy="520.0" rx="320.0" ry="480.0" fill="#00ffcc" fill-opacity=".042" filter="url(#bloomr1x895)"/><circle cx="375.2" cy="667.6" r="2.7" fill="#00ffcc" fill-opacity="0.62" filter="url(#glowr1x895)"/><circle cx="723.7" cy="574.3" r="2.6" fill="#00ffcc" fill-opacity="0.59" filter="url(#glowr1x895)"/><circle cx="380.8" cy="452.6" r="2.0" fill="#00ffcc" fill-opacity="0.50" filter="url(#glowr1x895)"/><circle cx="737.2" cy="500.1" r="0.8" fill="#00ffcc" fill-opacity="0.83" filter="url(#glowr1x895)"/><circle cx="310.7" cy="791.2" r="2.4" fill="#00ffcc" fill-opacity="0.77" filter="url(#glowr1x895)"/><circle cx="276.3" cy="226.8" r="3.1" fill="#00ffcc" fill-opacity="0.57" filter="url(#glowr1x895)"/><circle cx="279.9" cy="539.2" r="3.6" fill="#00ffcc" fill-opacity="0.69" filter="url(#glowr1x895)"/><circle cx="624.5" cy="507.9" r="3.7" fill="#00ffcc" fill-opacity="0.80" filter="url(#glowr1x895)"/><circle cx="713.7" cy="355.0" r="2.1" fill="#00ffcc" fill-opacity="0.42" filter="url(#glowr1x895)"/><circle cx="428.7" cy="723.4" r="2.6" fill="#00ffcc" fill-opacity="0.44" filter="url(#glowr1x895)"/><circle cx="742.3" cy="189.8" r="1.3" fill="#00ffcc" fill-opacity="0.56" filter="url(#glowr1x895)"/><circle cx="669.5" cy="434.9" r="1.2" fill="#00ffcc" fill-opacity="0.71" filter="url(#glowr1x895)"/><circle cx="477.4" cy="658.8" r="1.9" fill="#00ffcc" fill-opacity="0.67" filter="url(#glowr1x895)"/><circle cx="341.4" cy="185.4" r="3.5" fill="#00ffcc" fill-opacity="0.43" filter="url(#glowr1x895)"/><path d="M613.4,249.2 Q613.2,510.1 507.2,786.6" stroke="#00ffcc" stroke-opacity="0.64" stroke-width="1.7" fill="none" filter="url(#glowr1x895)"/><path d="M347.1,387.6 Q335.1,499.4 653.2,639.6" stroke="#00ffcc" stroke-opacity="0.62" stroke-width="2.2" fill="none" filter="url(#glowr1x895)"/><path d="M297.5,229.7 Q303.8,532.7 556.6,824.2" stroke="#00ffcc" stroke-opacity="0.44" stroke-width="0.9" fill="none" filter="url(#glowr1x895)"/><path d="M359.5,287.6 Q381.2,560.5 597.4,797.5" stroke="#00ffcc" stroke-opacity="0.73" stroke-width="1.3" fill="none" filter="url(#glowr1x895)"/><path d="M610.2,249.7 Q646.9,481.0 634.7,755.6" stroke="#00ffcc" stroke-opacity="0.57" stroke-width="1.7" fill="none" filter="url(#glowr1x895)"/><polygon points="399.0,661.8 487.9,664.1 479.2,879.3 386.5,876.8" fill="url(#suitr1x895)" stroke="#ff2040" stroke-width="2.2" filter="url(#skr1x895) url(#metalr1x895)"/><polygon points="399.7,662.3 490.4,663.5 481.0,876.0 385.7,877.5" fill="url(#carbonr1x895)"/><polygon points="391.2,724.9 493.7,723.3 483.1,789.5 384.3,787.6" fill="url(#bevelr1x895)" fill-opacity=".5" stroke="#ff2040" stroke-width="1.4" filter="url(#skr1x895)"/><polygon points="508.8,662.5 600.8,662.1 611.8,876.2 521.1,876.8" fill="url(#suitr1x895)" stroke="#ff2040" stroke-width="2.2" filter="url(#skr1x895) url(#metalr1x895)"/><polygon points="510.9,663.6 600.6,661.6 611.5,878.9 517.6,877.8" fill="url(#carbonr1x895)"/><polygon points="508.0,723.2 608.5,725.1 614.5,789.0 516.8,788.2" fill="url(#bevelr1x895)" fill-opacity=".5" stroke="#ff2040" stroke-width="1.4" filter="url(#skr1x895)"/><rect x="394.0" y="839.8" width="100.3" height="24.7" fill="url(#bevelr1x895)" stroke="#ff2040" stroke-width="1" filter="url(#skr1x895)"/><rect x="505.6"  y="838.2" width="100.3" height="24.7" fill="url(#bevelr1x895)" stroke="#ff2040" stroke-width="1" filter="url(#skr1x895)"/><polygon points="369.6,876.9 496.5,876.3 504.2,920.1 364.0,920.5" fill="#cc0020" stroke="#ff2040" stroke-width="2" filter="url(#skr1x895)"/><polygon points="505.2,879.0 630.6,878.9 636.9,920.6 498.0,921.5" fill="#cc0020" stroke="#ff2040" stroke-width="2" filter="url(#skr1x895)"/><polygon points="303.7,634.1 696.4,632.4 636.0,680.8 362.9,681.8" fill="#ff2040" fill-opacity=".52" stroke="#ff2040" stroke-width="2" filter="url(#skr1x895)"/><rect x="463.7" y="638.0" width="72.0" height="42.0" fill="url(#bevelr1x895)" stroke="#ff2040" stroke-width="1.4" filter="url(#glowr1x895)"/><rect x="487.3" y="640.8" width="28.0" height="22.0" rx="1" fill="rgba(255,255,255,.48)"/><polygon points="153.1,467.3 235.2,466.0 257.6,734.0 128.3,733.6" fill="url(#suitr1x895)" stroke="#ff2040" stroke-width="2.2" filter="url(#skr1x895) url(#metalr1x895)"/><polygon points="173.9,430.4 251.6,431.0 242.1,509.3 158.7,509.9" fill="url(#bevelr1x895)" fill-opacity=".72" stroke="#ff2040" stroke-width="2.2" filter="url(#skr1x895)"/><polygon points="160.7,622.5 244.0,621.5 238.7,661.5 165.7,660.9" fill="#ff2040" fill-opacity=".42" stroke="#ff2040" stroke-width="1" filter="url(#skr1x895)"/><polygon points="764.2,466.7 845.5,465.6 873.2,734.2 742.2,736.2" fill="url(#suitr1x895)" stroke="#ff2040" stroke-width="2.2" filter="url(#skr1x895) url(#metalr1x895)"/><polygon points="747.6,432.5 827.6,432.9 840.2,511.3 758.4,509.6" fill="url(#bevelr1x895)" fill-opacity=".72" stroke="#ff2040" stroke-width="2.2" filter="url(#skr1x895)"/><polygon points="758.5,621.7 838.1,623.2 836.3,661.5 759.4,659.4" fill="#ff2040" fill-opacity=".42" stroke="#ff2040" stroke-width="1" filter="url(#skr1x895)"/><rect x="121.4"  y="698.9" width="135.3" height="85.0" rx="4" fill="url(#bevelr1x895)" stroke="#ff2040" stroke-width="1.8" filter="url(#skr1x895)"/><rect x="747.0"   y="700.4" width="135.3" height="85.0" rx="4" fill="url(#bevelr1x895)" stroke="#ff2040" stroke-width="1.8" filter="url(#skr1x895)"/><line x1="148.4" y1="702.6" x2="148.2" y2="783.1" stroke="#ff2040" stroke-opacity=".38" stroke-width="1"/><line x1="779.4" y1="701.3" x2="779.1" y2="782.8" stroke="#ff2040" stroke-opacity=".38" stroke-width="1"/><line x1="183.2" y1="702.5" x2="184.2" y2="783.9" stroke="#ff2040" stroke-opacity=".38" stroke-width="1"/><line x1="810.6" y1="700.7" x2="812.0" y2="785.4" stroke="#ff2040" stroke-opacity=".38" stroke-width="1"/><line x1="214.8" y1="702.4" x2="214.5" y2="785.6" stroke="#ff2040" stroke-opacity=".38" stroke-width="1"/><line x1="845.0" y1="701.0" x2="844.0" y2="784.7" stroke="#ff2040" stroke-opacity=".38" stroke-width="1"/><polygon points="235.5,417.4 764.4,418.4 721.3,661.0 279.1,661.7" fill="url(#suitr1x895)" stroke="#ff2040" stroke-width="2.6" filter="url(#skr1x895) url(#metalr1x895)"/><polygon points="235.7,418.9 765.4,417.0 722.9,663.6 277.0,663.0" fill="url(#carbonr1x895)"/><polygon points="366.1,417.8 632.4,416.1 610.3,516.7 389.5,516.4" fill="url(#suitHir1x895)"/><line x1="361.5" y1="470.6" x2="636.9" y2="471.0" stroke="#ff2040" stroke-opacity=".52" stroke-width="1.3" filter="url(#skr1x895)"/><line x1="399.1" y1="551.2" x2="602.1" y2="549.2" stroke="#ff2040" stroke-opacity=".52" stroke-width="1.3" filter="url(#skr1x895)"/><line x1="265.2" y1="491.4" x2="320.2" y2="490.7" stroke="#ff2040" stroke-opacity=".62" stroke-width="1.8"/><line x1="680.0" y1="490.0" x2="732.9" y2="490.0" stroke="#ff2040" stroke-opacity=".62" stroke-width="1.8"/><line x1="265.3" y1="523.0" x2="320.1" y2="523.4" stroke="#ff2040" stroke-opacity=".62" stroke-width="1.8"/><line x1="678.6" y1="522.9" x2="732.6" y2="523.0" stroke="#ff2040" stroke-opacity=".62" stroke-width="1.8"/><line x1="267.6" y1="554.9" x2="320.4" y2="555.5" stroke="#ff2040" stroke-opacity=".62" stroke-width="1.8"/><line x1="681.5" y1="553.1" x2="733.6" y2="553.2" stroke="#ff2040" stroke-opacity=".62" stroke-width="1.8"/><line x1="268.0" y1="586.2" x2="320.1" y2="586.4" stroke="#ff2040" stroke-opacity=".62" stroke-width="1.8"/><line x1="681.4" y1="585.7" x2="732.9" y2="587.4" stroke="#ff2040" stroke-opacity=".62" stroke-width="1.8"/><g filter="url(#glowr1x895)"><ellipse cx="498.2" cy="510.4" rx="42.9" ry="23.2" fill="#050508" stroke="#ff2040" stroke-width="1.6" filter="url(#skr1x895)"/><circle cx="501.0" cy="511.6" r="15.1" fill="#ff2040"/><circle cx="498.8" cy="506.5" r="5.8" fill="#050508"/><ellipse cx="496.2" cy="504.3" rx="3.5" ry="2.3" fill="rgba(255,255,255,.7)"/></g><g><polygon points="33.1,294.1 172.4,293.6 170.7,592.3 100.4,726.7 31.0,591.0" fill="url(#titaniumr1x895)" stroke="#ff2040" stroke-width="2.6" filter="url(#wmr1x895)"/><polygon points="31.5,294.5 171.9,293.3 171.8,591.7 103.6,726.8 31.8,591.4" fill="url(#carbonr1x895)"/><polygon points="62.7,362.4 141.5,359.7 140.0,539.7 103.3,632.9 62.6,542.8" fill="#ff2040" fill-opacity=".28" stroke="#ff2040" stroke-width="1.5"/><line x1="51.50975372208279" y1="430.5146282801404" x2="152.7429882163554" y2="431.95755855040625" stroke="#ff2040" stroke-opacity=".65" stroke-width="1.3"/><line x1="103.04157425336537" y1="330.46738230660554" x2="102.44969184299927" y2="591.4746635844931" stroke="#ff2040" stroke-opacity=".4" stroke-width="1"/><line x1="32.75415068933737" y1="295.8498965389095" x2="171.08016964768987" y2="297.24898065375163" stroke="rgba(255,255,255,.5)" stroke-width="2"/><circle cx="101.07510403631252" cy="430.9882342348806" r="18.0" fill="url(#bevelr1x895)" stroke="#ff2040" stroke-width="1.2" filter="url(#wmr1x895)"/></g><rect x="448.50220227017996" y="557.4327088888734" width="100.0"  height="56.0" fill="#cc0020" stroke="#ff2040" stroke-width="2.2" filter="url(#skr1x895)"/><rect x="424.0251312733628" y="575.4641692174599" width="152.0" height="26.0" fill="url(#bevelr1x895)" fill-opacity=".65" stroke="#ff2040" stroke-width="1.2" filter="url(#skr1x895)"/><polygon points="309.1,380.9 350.7,294.6 499.0,278.0 650.2,295.8 691.6,381.1 667.8,503.4 499.3,564.3 330.8,503.7" fill="url(#suitr1x895)" stroke="#ff2040" stroke-width="2.8" filter="url(#skr1x895) url(#metalr1x895)"/><polygon points="308.0,381.3 349.7,294.1 501.7,278.9 649.4,295.0 691.0,382.3 668.6,502.4 501.3,563.9 330.4,503.1" fill="url(#carbonr1x895)"/><polygon points="380.4,301.7 499.4,285.5 619.2,301.6 606.5,379.7 392.9,381.0" fill="url(#suitHir1x895)"/><polygon points="380.6,380.9 364.6,426.6 431.2,504.2 500.3,528.7 566.3,504.2 633.3,424.1 619.0,381.6" fill="#050508" fill-opacity=".88" stroke="#ff2040" stroke-width="1.8" filter="url(#skr1x895)"/><polygon points="380.3,412.6 475.3,410.0 485.9,438.7 390.3,441.2" fill="#ff2040" filter="url(#glowr1x895)"/><polygon points="523.6,410.8 618.2,411.5 612.1,439.5 514.5,440.4" fill="#ff2040" filter="url(#glowr1x895)"/><ellipse cx="430.9" cy="425.7" rx="38.4"  ry="8.2" fill="#ffffff" opacity=".88"/><ellipse cx="569.1" cy="425.7" rx="38.4"  ry="8.2" fill="#ffffff" opacity=".88"/><line x1="483.21809438267724" y1="414.8543900728225" x2="517.0088846978173" y2="412.9930395808071" stroke="#ff2040" stroke-opacity=".52" stroke-width="2"/><line x1="486.3463213456422" y1="438.01290102470665" x2="515.9558800417371" y2="438.871194374375" stroke="#ff2040" stroke-opacity=".52" stroke-width="2"/><line x1="498.2032336368226" y1="453.2118326826952" x2="499.35686147222293" y2="483.3041957743466" stroke="#ff2040" stroke-opacity=".58" stroke-width="2.2" filter="url(#skr1x895)"/><line x1="455.32133997332306" y1="490.21356009729203" x2="452.22846732137725" y2="519.926254330296" stroke="#ff2040" stroke-opacity=".52" stroke-width="1.5" filter="url(#skr1x895)"/><line x1="475.44002111995593" y1="492.6357071024365" x2="476.0790626438707" y2="518.4743432212621" stroke="#ff2040" stroke-opacity=".52" stroke-width="1.5" filter="url(#skr1x895)"/><line x1="499.03132752664385" y1="491.5190670165233" x2="501.73021850194783" y2="518.283673877269" stroke="#ff2040" stroke-opacity=".52" stroke-width="1.5" filter="url(#skr1x895)"/><line x1="521.8888376469351" y1="491.1790649899281" x2="523.4605765577032" y2="519.4405303689651" stroke="#ff2040" stroke-opacity=".52" stroke-width="1.5" filter="url(#skr1x895)"/><line x1="544.5284599344433" y1="489.6446592820808" x2="546.6600108107739" y2="519.3111728236079" stroke="#ff2040" stroke-opacity=".52" stroke-width="1.5" filter="url(#skr1x895)"/><polygon points="431.1,505.0 568.8,503.8 554.2,556.8 445.8,558.1" fill="#cc0020" fill-opacity=".72" stroke="#ff2040" stroke-width="1.3" filter="url(#skr1x895)"/><text x="30.0"  y="975.0" font-family="monospace" font-weight="bold" font-size="22.0" fill="rgba(255,255,255,.22)">#0001</text><text x="500.0"   y="975.0" text-anchor="middle" font-family="monospace" font-weight="bold" font-size="22.0" fill="#ff2040" fill-opacity=".48">CRIMSON RANGER</text><text x="970.0" y="975.0" text-anchor="end"    font-family="monospace" font-weight="bold" font-size="22.0" fill="#ff2040" fill-opacity=".32">MECH RANGERS</text></svg>