<svg xmlns="http://www.w3.org/2000/svg" viewBox="0 0 1000 1000" width="1000" height="1000" shape-rendering="geometricPrecision"><defs>

  <!-- Scene gradients -->
  <radialGradient id="bgr1x9028" cx="50%" cy="42%" r="72%">
    <stop offset="0%"   stop-color="#1a2814"/>
    <stop offset="100%" stop-color="#0d1520"/>
  </radialGradient>
  <linearGradient id="suitr1x9028" x1="8%" y1="0%" x2="92%" y2="100%">
    <stop offset="0%"   stop-color="#00ff60" stop-opacity=".95"/>
    <stop offset="45%"  stop-color="#00441e"/>
    <stop offset="100%" stop-color="#0d1520"/>
  </linearGradient>
  <linearGradient id="suitHir1x9028" x1="0%" y1="0%" x2="0%" y2="100%">
    <stop offset="0%"   stop-color="rgba(255,255,255,.28)"/>
    <stop offset="60%"  stop-color="rgba(255,255,255,.04)"/>
    <stop offset="100%" stop-color="rgba(255,255,255,0)"/>
  </linearGradient>
  <!-- Bevel: bright top, dark bottom for armour panels -->
  <linearGradient id="bevelr1x9028" x1="0%" y1="0%" x2="0%" y2="100%">
    <stop offset="0%"   stop-color="rgba(255,255,255,.55)"/>
    <stop offset="30%"  stop-color="#00ff60"/>
    <stop offset="70%"  stop-color="#00441e"/>
    <stop offset="100%" stop-color="rgba(0,0,0,.5)"/>
  </linearGradient>

  <!-- Weapon: cold steel blade sweep -->
  <linearGradient id="blader1x9028" x1="0%" y1="0%" x2="100%" y2="0%">
    <stop offset="0%"   stop-color="#0e0e20"/>
    <stop offset="16%"  stop-color="#3e3e58"/>
    <stop offset="34%"  stop-color="#c8c8e0"/>
    <stop offset="50%"  stop-color="#f5f5ff"/>
    <stop offset="66%"  stop-color="#b8b8d0"/>
    <stop offset="84%"  stop-color="#2e2e48"/>
    <stop offset="100%" stop-color="#08080e"/>
  </linearGradient>
  <!-- Blade tip brightening -->
  <linearGradient id="bladeTipr1x9028" x1="0%" y1="100%" x2="0%" y2="0%">
    <stop offset="0%"   stop-color="rgba(255,255,255,0)"/>
    <stop offset="55%"  stop-color="rgba(255,255,255,.1)"/>
    <stop offset="100%" stop-color="rgba(255,255,255,.55)"/>
  </linearGradient>
  <!-- Gunmetal anodised — blaster body -->
  <linearGradient id="gunmetalr1x9028" x1="0%" y1="0%" x2="0%" y2="100%">
    <stop offset="0%"   stop-color="#46465e"/>
    <stop offset="18%"  stop-color="#828296"/>
    <stop offset="42%"  stop-color="#26263a"/>
    <stop offset="72%"  stop-color="#16162a"/>
    <stop offset="100%" stop-color="#0c0c18"/>
  </linearGradient>
  <!-- Brushed steel tube — barrel/rod -->
  <linearGradient id="barrelr1x9028" x1="0%" y1="0%" x2="100%" y2="0%">
    <stop offset="0%"   stop-color="#0a0a14"/>
    <stop offset="24%"  stop-color="#585875"/>
    <stop offset="50%"  stop-color="#a8a8c8"/>
    <stop offset="76%"  stop-color="#383852"/>
    <stop offset="100%" stop-color="#0a0a14"/>
  </linearGradient>
  <!-- Chrome rod — lance shaft -->
  <linearGradient id="chromer1x9028" x1="0%" y1="0%" x2="100%" y2="0%">
    <stop offset="0%"   stop-color="#0c0c18"/>
    <stop offset="20%"  stop-color="#686888"/>
    <stop offset="44%"  stop-color="#e0e0f0"/>
    <stop offset="56%"  stop-color="#c0c0d8"/>
    <stop offset="80%"  stop-color="#28283e"/>
    <stop offset="100%" stop-color="#0c0c18"/>
  </linearGradient>
  <!-- Titanium plate — shield face -->
  <linearGradient id="titaniumr1x9028" x1="0%" y1="0%" x2="100%" y2="100%">
    <stop offset="0%"   stop-color="#585878"/>
    <stop offset="28%"  stop-color="#00ff60" stop-opacity=".88"/>
    <stop offset="55%"  stop-color="#00441e"/>
    <stop offset="80%"  stop-color="#181828"/>
    <stop offset="100%" stop-color="#0a0a18"/>
  </linearGradient>
  <!-- Artillery black-chrome — cannon body -->
  <linearGradient id="artilleryr1x9028" x1="0%" y1="0%" x2="0%" y2="100%">
    <stop offset="0%"   stop-color="#383850"/>
    <stop offset="14%"  stop-color="#78789a"/>
    <stop offset="36%"  stop-color="#202034"/>
    <stop offset="65%"  stop-color="#14141e"/>
    <stop offset="100%" stop-color="#0a0a12"/>
  </linearGradient>
  <!-- Energy orb — staff -->
  <radialGradient id="orbr1x9028" cx="35%" cy="35%" r="65%">
    <stop offset="0%"   stop-color="rgba(255,255,255,.9)"/>
    <stop offset="30%"  stop-color="#00ff60"/>
    <stop offset="68%"  stop-color="#00441e"/>
    <stop offset="100%" stop-color="rgba(0,0,0,.6)"/>
  </radialGradient>
  <!-- Knuckle plate chrome -->
  <linearGradient id="knuckler1x9028" x1="0%" y1="0%" x2="0%" y2="100%">
    <stop offset="0%"   stop-color="#888aaa"/>
    <stop offset="32%"  stop-color="#00ff60" stop-opacity=".8"/>
    <stop offset="62%"  stop-color="#1a1a2c"/>
    <stop offset="100%" stop-color="#0a0a14"/>
  </linearGradient>

  <!-- Carbon fibre weave texture overlay -->
  <pattern id="carbonr1x9028" width="6" height="6" patternUnits="userSpaceOnUse">
    <rect width="6" height="6" fill="rgba(0,0,0,.08)"/>
    <rect x="0" y="0" width="3" height="3" fill="rgba(255,255,255,.022)"/>
    <rect x="3" y="3" width="3" height="3" fill="rgba(255,255,255,.022)"/>
    <line x1="0" y1="0" x2="3" y2="3" stroke="rgba(255,255,255,.038)" stroke-width=".5"/>
    <line x1="3" y1="0" x2="6" y2="3" stroke="rgba(0,0,0,.055)"       stroke-width=".5"/>
    <line x1="0" y1="3" x2="3" y2="6" stroke="rgba(0,0,0,.055)"       stroke-width=".5"/>
    <line x1="3" y1="3" x2="6" y2="6" stroke="rgba(255,255,255,.038)" stroke-width=".5"/>
  </pattern>

  <!-- Specular metal sheen on armour panels -->
  <filter id="metalr1x9028" x="-5%" y="-5%" width="110%" height="110%">
    <feSpecularLighting surfaceScale="4" specularConstant="1.8"
        specularExponent="42" lighting-color="#ffffff" result="spec">
      <feDistantLight elevation="52" azimuth="38"/>
    </feSpecularLighting>
    <feComposite in="spec" in2="SourceGraphic" operator="in" result="sm"/>
    <feComposite in="SourceGraphic" in2="sm" operator="arithmetic" k1="0" k2="1" k3="0.55" k4="0"/>
  </filter>

  <!-- Sharper specular for weapons — heavier glare -->
  <filter id="wmr1x9028" x="-8%" y="-8%" width="116%" height="116%">
    <feSpecularLighting surfaceScale="6" specularConstant="2.4"
        specularExponent="65" lighting-color="#ffffff" result="spec">
      <feDistantLight elevation="44" azimuth="28"/>
    </feSpecularLighting>
    <feComposite in="spec" in2="SourceGraphic" operator="in" result="sm"/>
    <feComposite in="SourceGraphic" in2="sm" operator="arithmetic" k1="0" k2="1" k3="0.78" k4="0"/>
  </filter>

  <!-- Sketch wobble -->
  <filter id="skr1x9028" x="-8%" y="-8%" width="116%" height="116%">
    <feTurbulence type="fractalNoise" baseFrequency="0.038"
        numOctaves="3" seed="23" result="noise"/>
    <feDisplacementMap in="SourceGraphic" in2="noise" scale="2.6"
        xChannelSelector="R" yChannelSelector="G" result="w"/>
    <feComposite in="w" in2="SourceGraphic" operator="atop"/>
  </filter>

  <!-- Glow: sharp accent -->
  <filter id="glowr1x9028" x="-20%" y="-20%" width="140%" height="140%">
    <feGaussianBlur stdDeviation="3.5" result="b"/>
    <feColorMatrix in="b" type="matrix"
        values="0 0 0 0 1  0 0 0 0 1  0 0 0 0 1  0 0 0 1.8 0" result="boost"/>
    <feMerge><feMergeNode in="boost"/><feMergeNode in="SourceGraphic"/></feMerge>
  </filter>

  <!-- Bloom: wide soft -->
  <filter id="bloomr1x9028" x="-40%" y="-40%" width="180%" height="180%">
    <feGaussianBlur stdDeviation="11" result="b"/>
    <feMerge><feMergeNode in="b"/><feMergeNode in="SourceGraphic"/></feMerge>
  </filter>

  </defs><rect width="1000" height="1000" fill="url(#bgr1x9028)"/><ellipse cx="500.0" cy="892.0" rx="350.0" ry="65.0" fill="rgba(0,0,0,.7)" filter="url(#bloomr1x9028)"/><ellipse cx="500.0" cy="889.0" rx="220.0" ry="34.0" fill="rgba(0,0,0,.45)"/><ellipse cx="500.0" cy="520.0" rx="320.0" ry="480.0" fill="#ff6600" fill-opacity=".042" filter="url(#bloomr1x9028)"/><circle cx="680.7" cy="654.7" r="2.7" fill="#ff6600" fill-opacity="0.55" filter="url(#glowr1x9028)"/><circle cx="481.5" cy="282.9" r="3.8" fill="#ff6600" fill-opacity="0.48" filter="url(#glowr1x9028)"/><circle cx="657.3" cy="468.3" r="3.8" fill="#ff6600" fill-opacity="0.85" filter="url(#glowr1x9028)"/><circle cx="321.7" cy="345.3" r="2.7" fill="#ff6600" fill-opacity="0.87" filter="url(#glowr1x9028)"/><circle cx="378.9" cy="605.3" r="1.6" fill="#ff6600" fill-opacity="0.55" filter="url(#glowr1x9028)"/><circle cx="616.4" cy="706.8" r="3.4" fill="#ff6600" fill-opacity="0.68" filter="url(#glowr1x9028)"/><circle cx="269.8" cy="647.2" r="3.9" fill="#ff6600" fill-opacity="0.57" filter="url(#glowr1x9028)"/><circle cx="656.0" cy="618.7" r="0.6" fill="#ff6600" fill-opacity="0.64" filter="url(#glowr1x9028)"/><circle cx="690.2" cy="285.1" r="3.8" fill="#ff6600" fill-opacity="0.70" filter="url(#glowr1x9028)"/><circle cx="467.3" cy="271.5" r="4.3" fill="#ff6600" fill-opacity="0.42" filter="url(#glowr1x9028)"/><circle cx="640.8" cy="767.0" r="4.1" fill="#ff6600" fill-opacity="0.65" filter="url(#glowr1x9028)"/><circle cx="596.8" cy="193.0" r="4.2" fill="#ff6600" fill-opacity="0.45" filter="url(#glowr1x9028)"/><circle cx="721.3" cy="212.2" r="2.2" fill="#ff6600" fill-opacity="0.61" filter="url(#glowr1x9028)"/><circle cx="337.5" cy="501.2" r="3.8" fill="#ff6600" fill-opacity="0.59" filter="url(#glowr1x9028)"/><polygon points="398.7,663.1 488.0,662.2 481.8,877.4 387.2,876.5" fill="url(#suitr1x9028)" stroke="#00ff60" stroke-width="2.2" filter="url(#skr1x9028) url(#metalr1x9028)"/><polygon points="399.2,661.1 488.8,662.9 479.2,875.9 386.9,877.9" fill="url(#carbonr1x9028)"/><polygon points="391.7,724.3 492.5,724.7 485.9,788.0 384.2,787.3" fill="url(#bevelr1x9028)" fill-opacity=".5" stroke="#00ff60" stroke-width="1.4" filter="url(#skr1x9028)"/><polygon points="510.3,660.7 600.5,664.0 613.7,878.6 518.5,877.4" fill="url(#suitr1x9028)" stroke="#00ff60" stroke-width="2.2" filter="url(#skr1x9028) url(#metalr1x9028)"/><polygon points="511.1,661.2 599.8,660.8 613.9,876.8 518.4,879.3" fill="url(#carbonr1x9028)"/><polygon points="505.7,723.8 607.6,725.4 617.4,788.2 514.4,789.9" fill="url(#bevelr1x9028)" fill-opacity=".5" stroke="#00ff60" stroke-width="1.4" filter="url(#skr1x9028)"/><rect x="393.9" y="838.9" width="100.3" height="24.7" fill="url(#bevelr1x9028)" stroke="#00ff60" stroke-width="1" filter="url(#skr1x9028)"/><rect x="507.7"  y="837.5" width="100.3" height="24.7" fill="url(#bevelr1x9028)" stroke="#00ff60" stroke-width="1" filter="url(#skr1x9028)"/><polygon points="368.8,876.1 496.9,875.7 502.5,920.7 362.8,921.4" fill="#00441e" stroke="#00ff60" stroke-width="2" filter="url(#skr1x9028)"/><polygon points="505.2,877.9 629.5,876.5 638.1,921.6 498.1,922.2" fill="#00441e" stroke="#00ff60" stroke-width="2" filter="url(#skr1x9028)"/><polygon points="303.8,632.3 696.6,633.4 637.3,683.4 361.7,680.8" fill="#00ff60" fill-opacity=".52" stroke="#00ff60" stroke-width="2" filter="url(#skr1x9028)"/><rect x="465.7" y="638.9" width="72.0" height="42.0" fill="url(#bevelr1x9028)" stroke="#00ff60" stroke-width="1.4" filter="url(#glowr1x9028)"/><rect x="486.5" y="638.8" width="28.0" height="22.0" rx="1" fill="rgba(255,255,255,.48)"/><polygon points="152.7,467.9 234.7,467.0 256.6,735.1 127.4,735.5" fill="url(#suitr1x9028)" stroke="#00ff60" stroke-width="2.2" filter="url(#skr1x9028) url(#metalr1x9028)"/><polygon points="172.9,431.2 254.1,430.7 244.0,509.2 157.8,512.4" fill="url(#bevelr1x9028)" fill-opacity=".72" stroke="#00ff60" stroke-width="2.2" filter="url(#skr1x9028)"/><polygon points="160.0,620.7 244.8,621.7 239.0,660.9 166.3,662.4" fill="#00ff60" fill-opacity=".42" stroke="#00ff60" stroke-width="1" filter="url(#skr1x9028)"/><polygon points="764.9,466.5 848.4,466.2 870.9,733.6 741.7,733.2" fill="url(#suitr1x9028)" stroke="#00ff60" stroke-width="2.2" filter="url(#skr1x9028) url(#metalr1x9028)"/><polygon points="747.8,431.1 827.3,433.7 839.9,510.7 756.9,509.7" fill="url(#bevelr1x9028)" fill-opacity=".72" stroke="#00ff60" stroke-width="2.2" filter="url(#skr1x9028)"/><polygon points="757.0,621.7 839.3,622.6 833.8,659.4 761.0,660.6" fill="#00ff60" fill-opacity=".42" stroke="#00ff60" stroke-width="1" filter="url(#skr1x9028)"/><rect x="119.6"  y="699.9" width="135.3" height="85.0" rx="4" fill="url(#bevelr1x9028)" stroke="#00ff60" stroke-width="1.8" filter="url(#skr1x9028)"/><rect x="748.4"   y="701.3" width="135.3" height="85.0" rx="4" fill="url(#bevelr1x9028)" stroke="#00ff60" stroke-width="1.8" filter="url(#skr1x9028)"/><line x1="148.9" y1="701.6" x2="149.7" y2="784.1" stroke="#00ff60" stroke-opacity=".38" stroke-width="1"/><line x1="778.0" y1="700.1" x2="779.5" y2="782.5" stroke="#00ff60" stroke-opacity=".38" stroke-width="1"/><line x1="183.3" y1="703.2" x2="181.8" y2="783.9" stroke="#00ff60" stroke-opacity=".38" stroke-width="1"/><line x1="811.3" y1="700.4" x2="811.9" y2="782.9" stroke="#00ff60" stroke-opacity=".38" stroke-width="1"/><line x1="216.9" y1="701.0" x2="215.5" y2="784.1" stroke="#00ff60" stroke-opacity=".38" stroke-width="1"/><line x1="845.5" y1="701.7" x2="842.2" y2="784.0" stroke="#00ff60" stroke-opacity=".38" stroke-width="1"/><polygon points="234.4,416.3 765.0,419.2 721.0,664.2 276.7,662.0" fill="url(#suitr1x9028)" stroke="#00ff60" stroke-width="2.6" filter="url(#skr1x9028) url(#metalr1x9028)"/><polygon points="235.1,417.8 764.3,417.4 723.3,664.0 275.7,662.5" fill="url(#carbonr1x9028)"/><polygon points="368.9,416.8 630.7,417.7 612.8,514.5 389.9,515.7" fill="url(#suitHir1x9028)"/><line x1="363.6" y1="472.6" x2="638.5" y2="469.9" stroke="#00ff60" stroke-opacity=".52" stroke-width="1.3" filter="url(#skr1x9028)"/><line x1="400.6" y1="549.7" x2="600.0" y2="550.6" stroke="#00ff60" stroke-opacity=".52" stroke-width="1.3" filter="url(#skr1x9028)"/><line x1="268.0" y1="490.0" x2="321.5" y2="491.3" stroke="#00ff60" stroke-opacity=".62" stroke-width="1.8"/><line x1="678.5" y1="491.9" x2="733.2" y2="490.8" stroke="#00ff60" stroke-opacity=".62" stroke-width="1.8"/><line x1="266.5" y1="523.0" x2="321.4" y2="524.4" stroke="#00ff60" stroke-opacity=".62" stroke-width="1.8"/><line x1="681.7" y1="523.5" x2="734.5" y2="523.1" stroke="#00ff60" stroke-opacity=".62" stroke-width="1.8"/><line x1="266.2" y1="555.8" x2="320.4" y2="554.4" stroke="#00ff60" stroke-opacity=".62" stroke-width="1.8"/><line x1="680.8" y1="553.6" x2="732.4" y2="553.9" stroke="#00ff60" stroke-opacity=".62" stroke-width="1.8"/><line x1="267.8" y1="586.1" x2="319.6" y2="587.1" stroke="#00ff60" stroke-opacity=".62" stroke-width="1.8"/><line x1="681.3" y1="584.8" x2="732.9" y2="587.3" stroke="#00ff60" stroke-opacity=".62" stroke-width="1.8"/><g filter="url(#glowr1x9028)"><polygon points="498.6,451.9 541.4,510.3 500.9,567.3 459.5,511.3" fill="#00ff60" stroke="#0d1520" stroke-width="1.4" filter="url(#skr1x9028)"/><polygon points="501.1,451.5 540.4,511.3 499.3,567.4 458.5,510.6" fill="url(#suitHir1x9028)" opacity=".45"/></g><g><line x1="897.9512442819401" y1="832.5398020688444" x2="897.9086028130353" y2="111.48193992637096" stroke="url(#chromer1x9028)" stroke-width="22.0" stroke-linecap="round" filter="url(#wmr1x9028)"/><line x1="903.2481001190469" y1="812.9387102182955" x2="901.3740066816658" y2="131.2947411940433" stroke="rgba(255,255,255,.35)" stroke-width="4.0" stroke-linecap="round"/><rect x="881.3205979071186" y="620.9556981200352" width="32.0" height="18.0" fill="url(#bevelr1x9028)" stroke="#00ff60" stroke-width=".8" filter="url(#wmr1x9028)"/><rect x="881.7184443887883" y="441.17037447188045" width="32.0" height="18.0" fill="url(#bevelr1x9028)" stroke="#00ff60" stroke-width=".8" filter="url(#wmr1x9028)"/><rect x="882.9415173874796" y="261.7481662626378" width="32.0" height="18.0" fill="url(#bevelr1x9028)" stroke="#00ff60" stroke-width=".8" filter="url(#wmr1x9028)"/><circle cx="897.6786096093804" cy="112.10847651828078" r="58.0" fill="rgba(0,0,0,.52)" stroke="#00ff60" stroke-width="2.2" filter="url(#wmr1x9028)"/><circle cx="897.7942097400875" cy="111.42779981987549" r="46.0" fill="url(#orbr1x9028)" filter="url(#bloomr1x9028)"/><circle cx="898.488574923724" cy="111.33499024398623" r="20.0" fill="#ff6600" filter="url(#glowr1x9028)"/><circle cx="896.5491905702837" cy="110.32727785548192" r="66.0" fill="none" stroke="#00ff60" stroke-opacity=".4" stroke-width="1.3" stroke-dasharray="4,4"/><ellipse cx="897.6510848936252" cy="111.89744358276945" rx="66.0" ry="30.0" fill="none" stroke="#00ff60" stroke-opacity=".24" stroke-width="1" stroke-dasharray="3,5" transform="rotate(60,897.8,111.4)"/></g><rect x="450.01674994016065" y="555.256625100132" width="100.0"  height="56.0" fill="#00441e" stroke="#00ff60" stroke-width="2.2" filter="url(#skr1x9028)"/><rect x="422.432585383486" y="573.9270347827114" width="152.0" height="26.0" fill="url(#bevelr1x9028)" fill-opacity=".65" stroke="#00ff60" stroke-width="1.2" filter="url(#skr1x9028)"/><polygon points="307.6,378.9 351.6,294.6 498.7,277.5 650.0,293.4 693.4,379.6 668.1,505.0 498.9,564.8 331.7,502.7" fill="url(#suitr1x9028)" stroke="#00ff60" stroke-width="2.8" filter="url(#skr1x9028) url(#metalr1x9028)"/><polygon points="308.3,381.8 348.9,295.4 498.5,276.7 649.6,295.1 691.4,380.0 669.2,504.4 501.3,564.2 332.4,502.5" fill="url(#carbonr1x9028)"/><polygon points="380.5,303.8 500.7,287.1 618.8,303.1 606.7,379.2 392.9,379.3" fill="url(#suitHir1x9028)"/><polygon points="380.0,380.7 364.7,427.4 431.5,502.0 500.5,528.4 565.8,501.8 633.7,426.9 619.5,381.0" fill="#0d1520" fill-opacity=".88" stroke="#00ff60" stroke-width="1.8" filter="url(#skr1x9028)"/><polygon points="381.3,412.0 475.8,412.7 484.3,439.7 388.8,441.7" fill="#00ff60" filter="url(#glowr1x9028)"/><polygon points="522.9,409.6 618.8,411.7 610.9,440.1 517.1,438.7" fill="#00ff60" filter="url(#glowr1x9028)"/><ellipse cx="430.9" cy="425.7" rx="38.4"  ry="8.2" fill="#ffffff" opacity=".88"/><ellipse cx="569.1" cy="425.7" rx="38.4"  ry="8.2" fill="#ffffff" opacity=".88"/><line x1="485.60600437024607" y1="412.196911825519" x2="516.7170976690389" y2="411.60269952351223" stroke="#00ff60" stroke-opacity=".52" stroke-width="2"/><line x1="485.31883376348765" y1="436.8064614946023" x2="515.0777792113274" y2="438.2729218273424" stroke="#00ff60" stroke-opacity=".52" stroke-width="2"/><line x1="499.96499519841745" y1="454.6648291006684" x2="498.8480912300758" y2="483.8944542706013" stroke="#00ff60" stroke-opacity=".58" stroke-width="2.2" filter="url(#skr1x9028)"/><line x1="452.1412691756897" y1="491.55302373487496" x2="454.98106298677624" y2="518.5900695063174" stroke="#00ff60" stroke-opacity=".52" stroke-width="1.5" filter="url(#skr1x9028)"/><line x1="475.34904982618986" y1="491.791438402608" x2="477.9297700517252" y2="518.6250849277712" stroke="#00ff60" stroke-opacity=".52" stroke-width="1.5" filter="url(#skr1x9028)"/><line x1="498.79049809211864" y1="490.8796467026695" x2="500.3586099916138" y2="520.2002727234736" stroke="#00ff60" stroke-opacity=".52" stroke-width="1.5" filter="url(#skr1x9028)"/><line x1="523.3913718988746" y1="489.6324652046896" x2="523.3909333116002" y2="518.9880388851277" stroke="#00ff60" stroke-opacity=".52" stroke-width="1.5" filter="url(#skr1x9028)"/><line x1="545.1422271352448" y1="492.792973007448" x2="544.3169792125188" y2="521.0833264028654" stroke="#00ff60" stroke-opacity=".52" stroke-width="1.5" filter="url(#skr1x9028)"/><polygon points="431.6,503.1 565.6,504.8 553.0,557.6 447.2,556.5" fill="#00441e" fill-opacity=".72" stroke="#00ff60" stroke-width="1.3" filter="url(#skr1x9028)"/><polygon points="316.8,305.2 361.4,305.4 339.0,195.1" fill="url(#bevelr1x9028)" fill-opacity=".95" stroke="#00ff60" stroke-width="1.6" filter="url(#skr1x9028) url(#glowr1x9028)"/><polygon points="396.4,305.3 440.7,305.5 419.0,208.4" fill="url(#bevelr1x9028)" fill-opacity=".95" stroke="#00ff60" stroke-width="1.6" filter="url(#skr1x9028) url(#glowr1x9028)"/><polygon points="476.8,304.2 524.3,305.2 499.6,221.4" fill="url(#bevelr1x9028)" fill-opacity=".95" stroke="#00ff60" stroke-width="1.6" filter="url(#skr1x9028) url(#glowr1x9028)"/><polygon points="558.5,305.4 602.2,303.1 581.3,209.0" fill="url(#bevelr1x9028)" fill-opacity=".95" stroke="#00ff60" stroke-width="1.6" filter="url(#skr1x9028) url(#glowr1x9028)"/><polygon points="636.9,304.4 682.9,304.6 661.2,194.4" fill="url(#bevelr1x9028)" fill-opacity=".95" stroke="#00ff60" stroke-width="1.6" filter="url(#skr1x9028) url(#glowr1x9028)"/><text x="30.0"  y="975.0" font-family="monospace" font-weight="bold" font-size="22.0" fill="rgba(255,255,255,.22)">#0001</text><text x="500.0"   y="975.0" text-anchor="middle" font-family="monospace" font-weight="bold" font-size="22.0" fill="#00ff60" fill-opacity=".48">VIPER RANGER</text><text x="970.0" y="975.0" text-anchor="end"    font-family="monospace" font-weight="bold" font-size="22.0" fill="#00ff60" fill-opacity=".32">MECH RANGERS</text></svg>