<svg xmlns="http://www.w3.org/2000/svg" viewBox="0 0 1000 1000" width="1000" height="1000" shape-rendering="geometricPrecision"><defs>

  <!-- Scene gradients -->
  <radialGradient id="bgr1x9102" cx="50%" cy="42%" r="72%">
    <stop offset="0%"   stop-color="#1a2814"/>
    <stop offset="100%" stop-color="#0d1520"/>
  </radialGradient>
  <linearGradient id="suitr1x9102" x1="8%" y1="0%" x2="92%" y2="100%">
    <stop offset="0%"   stop-color="#c0c0d0" stop-opacity=".95"/>
    <stop offset="45%"  stop-color="#2c2c3c"/>
    <stop offset="100%" stop-color="#0d1520"/>
  </linearGradient>
  <linearGradient id="suitHir1x9102" x1="0%" y1="0%" x2="0%" y2="100%">
    <stop offset="0%"   stop-color="rgba(255,255,255,.28)"/>
    <stop offset="60%"  stop-color="rgba(255,255,255,.04)"/>
    <stop offset="100%" stop-color="rgba(255,255,255,0)"/>
  </linearGradient>
  <!-- Bevel: bright top, dark bottom for armour panels -->
  <linearGradient id="bevelr1x9102" x1="0%" y1="0%" x2="0%" y2="100%">
    <stop offset="0%"   stop-color="rgba(255,255,255,.55)"/>
    <stop offset="30%"  stop-color="#c0c0d0"/>
    <stop offset="70%"  stop-color="#2c2c3c"/>
    <stop offset="100%" stop-color="rgba(0,0,0,.5)"/>
  </linearGradient>

  <!-- Weapon: cold steel blade sweep -->
  <linearGradient id="blader1x9102" x1="0%" y1="0%" x2="100%" y2="0%">
    <stop offset="0%"   stop-color="#0e0e20"/>
    <stop offset="16%"  stop-color="#3e3e58"/>
    <stop offset="34%"  stop-color="#c8c8e0"/>
    <stop offset="50%"  stop-color="#f5f5ff"/>
    <stop offset="66%"  stop-color="#b8b8d0"/>
    <stop offset="84%"  stop-color="#2e2e48"/>
    <stop offset="100%" stop-color="#08080e"/>
  </linearGradient>
  <!-- Blade tip brightening -->
  <linearGradient id="bladeTipr1x9102" x1="0%" y1="100%" x2="0%" y2="0%">
    <stop offset="0%"   stop-color="rgba(255,255,255,0)"/>
    <stop offset="55%"  stop-color="rgba(255,255,255,.1)"/>
    <stop offset="100%" stop-color="rgba(255,255,255,.55)"/>
  </linearGradient>
  <!-- Gunmetal anodised — blaster body -->
  <linearGradient id="gunmetalr1x9102" x1="0%" y1="0%" x2="0%" y2="100%">
    <stop offset="0%"   stop-color="#46465e"/>
    <stop offset="18%"  stop-color="#828296"/>
    <stop offset="42%"  stop-color="#26263a"/>
    <stop offset="72%"  stop-color="#16162a"/>
    <stop offset="100%" stop-color="#0c0c18"/>
  </linearGradient>
  <!-- Brushed steel tube — barrel/rod -->
  <linearGradient id="barrelr1x9102" x1="0%" y1="0%" x2="100%" y2="0%">
    <stop offset="0%"   stop-color="#0a0a14"/>
    <stop offset="24%"  stop-color="#585875"/>
    <stop offset="50%"  stop-color="#a8a8c8"/>
    <stop offset="76%"  stop-color="#383852"/>
    <stop offset="100%" stop-color="#0a0a14"/>
  </linearGradient>
  <!-- Chrome rod — lance shaft -->
  <linearGradient id="chromer1x9102" x1="0%" y1="0%" x2="100%" y2="0%">
    <stop offset="0%"   stop-color="#0c0c18"/>
    <stop offset="20%"  stop-color="#686888"/>
    <stop offset="44%"  stop-color="#e0e0f0"/>
    <stop offset="56%"  stop-color="#c0c0d8"/>
    <stop offset="80%"  stop-color="#28283e"/>
    <stop offset="100%" stop-color="#0c0c18"/>
  </linearGradient>
  <!-- Titanium plate — shield face -->
  <linearGradient id="titaniumr1x9102" x1="0%" y1="0%" x2="100%" y2="100%">
    <stop offset="0%"   stop-color="#585878"/>
    <stop offset="28%"  stop-color="#c0c0d0" stop-opacity=".88"/>
    <stop offset="55%"  stop-color="#2c2c3c"/>
    <stop offset="80%"  stop-color="#181828"/>
    <stop offset="100%" stop-color="#0a0a18"/>
  </linearGradient>
  <!-- Artillery black-chrome — cannon body -->
  <linearGradient id="artilleryr1x9102" x1="0%" y1="0%" x2="0%" y2="100%">
    <stop offset="0%"   stop-color="#383850"/>
    <stop offset="14%"  stop-color="#78789a"/>
    <stop offset="36%"  stop-color="#202034"/>
    <stop offset="65%"  stop-color="#14141e"/>
    <stop offset="100%" stop-color="#0a0a12"/>
  </linearGradient>
  <!-- Energy orb — staff -->
  <radialGradient id="orbr1x9102" cx="35%" cy="35%" r="65%">
    <stop offset="0%"   stop-color="rgba(255,255,255,.9)"/>
    <stop offset="30%"  stop-color="#c0c0d0"/>
    <stop offset="68%"  stop-color="#2c2c3c"/>
    <stop offset="100%" stop-color="rgba(0,0,0,.6)"/>
  </radialGradient>
  <!-- Knuckle plate chrome -->
  <linearGradient id="knuckler1x9102" x1="0%" y1="0%" x2="0%" y2="100%">
    <stop offset="0%"   stop-color="#888aaa"/>
    <stop offset="32%"  stop-color="#c0c0d0" stop-opacity=".8"/>
    <stop offset="62%"  stop-color="#1a1a2c"/>
    <stop offset="100%" stop-color="#0a0a14"/>
  </linearGradient>

  <!-- Carbon fibre weave texture overlay -->
  <pattern id="carbonr1x9102" width="6" height="6" patternUnits="userSpaceOnUse">
    <rect width="6" height="6" fill="rgba(0,0,0,.08)"/>
    <rect x="0" y="0" width="3" height="3" fill="rgba(255,255,255,.022)"/>
    <rect x="3" y="3" width="3" height="3" fill="rgba(255,255,255,.022)"/>
    <line x1="0" y1="0" x2="3" y2="3" stroke="rgba(255,255,255,.038)" stroke-width=".5"/>
    <line x1="3" y1="0" x2="6" y2="3" stroke="rgba(0,0,0,.055)"       stroke-width=".5"/>
    <line x1="0" y1="3" x2="3" y2="6" stroke="rgba(0,0,0,.055)"       stroke-width=".5"/>
    <line x1="3" y1="3" x2="6" y2="6" stroke="rgba(255,255,255,.038)" stroke-width=".5"/>
  </pattern>

  <!-- Specular metal sheen on armour panels -->
  <filter id="metalr1x9102" x="-5%" y="-5%" width="110%" height="110%">
    <feSpecularLighting surfaceScale="4" specularConstant="1.8"
        specularExponent="42" lighting-color="#ffffff" result="spec">
      <feDistantLight elevation="52" azimuth="38"/>
    </feSpecularLighting>
    <feComposite in="spec" in2="SourceGraphic" operator="in" result="sm"/>
    <feComposite in="SourceGraphic" in2="sm" operator="arithmetic" k1="0" k2="1" k3="0.55" k4="0"/>
  </filter>

  <!-- Sharper specular for weapons — heavier glare -->
  <filter id="wmr1x9102" x="-8%" y="-8%" width="116%" height="116%">
    <feSpecularLighting surfaceScale="6" specularConstant="2.4"
        specularExponent="65" lighting-color="#ffffff" result="spec">
      <feDistantLight elevation="44" azimuth="28"/>
    </feSpecularLighting>
    <feComposite in="spec" in2="SourceGraphic" operator="in" result="sm"/>
    <feComposite in="SourceGraphic" in2="sm" operator="arithmetic" k1="0" k2="1" k3="0.78" k4="0"/>
  </filter>

  <!-- Sketch wobble -->
  <filter id="skr1x9102" x="-8%" y="-8%" width="116%" height="116%">
    <feTurbulence type="fractalNoise" baseFrequency="0.038"
        numOctaves="3" seed="33" result="noise"/>
    <feDisplacementMap in="SourceGraphic" in2="noise" scale="2.6"
        xChannelSelector="R" yChannelSelector="G" result="w"/>
    <feComposite in="w" in2="SourceGraphic" operator="atop"/>
  </filter>

  <!-- Glow: sharp accent -->
  <filter id="glowr1x9102" x="-20%" y="-20%" width="140%" height="140%">
    <feGaussianBlur stdDeviation="3.5" result="b"/>
    <feColorMatrix in="b" type="matrix"
        values="0 0 0 0 1  0 0 0 0 1  0 0 0 0 1  0 0 0 1.8 0" result="boost"/>
    <feMerge><feMergeNode in="boost"/><feMergeNode in="SourceGraphic"/></feMerge>
  </filter>

  <!-- Bloom: wide soft -->
  <filter id="bloomr1x9102" x="-40%" y="-40%" width="180%" height="180%">
    <feGaussianBlur stdDeviation="11" result="b"/>
    <feMerge><feMergeNode in="b"/><feMergeNode in="SourceGraphic"/></feMerge>
  </filter>

  </defs><rect width="1000" height="1000" fill="url(#bgr1x9102)"/><ellipse cx="500.0" cy="892.0" rx="350.0" ry="65.0" fill="rgba(0,0,0,.7)" filter="url(#bloomr1x9102)"/><ellipse cx="500.0" cy="889.0" rx="220.0" ry="34.0" fill="rgba(0,0,0,.45)"/><polygon points="398.0,664.2 489.6,663.6 481.8,877.8 388.9,877.1" fill="url(#suitr1x9102)" stroke="#c0c0d0" stroke-width="2.2" filter="url(#skr1x9102) url(#metalr1x9102)"/><polygon points="400.3,664.0 488.0,661.5 481.2,876.2 388.8,877.2" fill="url(#carbonr1x9102)"/><polygon points="394.4,724.7 491.8,724.6 485.8,786.6 384.1,788.1" fill="url(#bevelr1x9102)" fill-opacity=".5" stroke="#c0c0d0" stroke-width="1.4" filter="url(#skr1x9102)"/><polygon points="508.9,663.4 602.4,661.7 613.1,879.1 520.2,877.1" fill="url(#suitr1x9102)" stroke="#c0c0d0" stroke-width="2.2" filter="url(#skr1x9102) url(#metalr1x9102)"/><polygon points="511.3,662.7 600.1,664.0 611.6,876.0 520.1,876.9" fill="url(#carbonr1x9102)"/><polygon points="507.4,723.8 609.0,722.5 616.2,789.9 514.2,786.6" fill="url(#bevelr1x9102)" fill-opacity=".5" stroke="#c0c0d0" stroke-width="1.4" filter="url(#skr1x9102)"/><rect x="394.0" y="840.2" width="100.3" height="24.7" fill="url(#bevelr1x9102)" stroke="#c0c0d0" stroke-width="1" filter="url(#skr1x9102)"/><rect x="507.2"  y="838.8" width="100.3" height="24.7" fill="url(#bevelr1x9102)" stroke="#c0c0d0" stroke-width="1" filter="url(#skr1x9102)"/><polygon points="368.5,877.3 496.1,875.9 504.7,920.3 361.6,920.0" fill="#2c2c3c" stroke="#c0c0d0" stroke-width="2" filter="url(#skr1x9102)"/><polygon points="503.6,878.5 630.5,877.4 637.4,919.9 496.0,920.6" fill="#2c2c3c" stroke="#c0c0d0" stroke-width="2" filter="url(#skr1x9102)"/><polygon points="304.6,632.8 697.4,634.7 638.0,681.2 363.0,680.9" fill="#c0c0d0" fill-opacity=".52" stroke="#c0c0d0" stroke-width="2" filter="url(#skr1x9102)"/><rect x="464.9" y="638.5" width="72.0" height="42.0" fill="url(#bevelr1x9102)" stroke="#c0c0d0" stroke-width="1.4" filter="url(#glowr1x9102)"/><rect x="486.2" y="641.9" width="28.0" height="22.0" rx="1" fill="rgba(255,255,255,.48)"/><polygon points="154.1,467.7 234.3,466.8 257.8,734.2 129.5,734.5" fill="url(#suitr1x9102)" stroke="#c0c0d0" stroke-width="2.2" filter="url(#skr1x9102) url(#metalr1x9102)"/><polygon points="171.7,431.5 252.4,432.4 243.1,510.6 160.8,509.5" fill="url(#bevelr1x9102)" fill-opacity=".72" stroke="#c0c0d0" stroke-width="2.2" filter="url(#skr1x9102)"/><polygon points="160.4,621.6 242.5,621.9 240.4,662.4 164.9,662.1" fill="#c0c0d0" fill-opacity=".42" stroke="#c0c0d0" stroke-width="1" filter="url(#skr1x9102)"/><polygon points="764.2,466.3 846.0,467.7 871.1,734.1 741.3,733.8" fill="url(#suitr1x9102)" stroke="#c0c0d0" stroke-width="2.2" filter="url(#skr1x9102) url(#metalr1x9102)"/><polygon points="746.5,431.5 825.1,433.8 841.6,508.9 755.7,512.1" fill="url(#bevelr1x9102)" fill-opacity=".72" stroke="#c0c0d0" stroke-width="2.2" filter="url(#skr1x9102)"/><polygon points="758.2,620.3 838.3,621.4 836.2,660.2 760.6,662.6" fill="#c0c0d0" fill-opacity=".42" stroke="#c0c0d0" stroke-width="1" filter="url(#skr1x9102)"/><rect x="120.2"  y="700.6" width="135.3" height="85.0" rx="4" fill="url(#bevelr1x9102)" stroke="#c0c0d0" stroke-width="1.8" filter="url(#skr1x9102)"/><rect x="749.9"   y="700.2" width="135.3" height="85.0" rx="4" fill="url(#bevelr1x9102)" stroke="#c0c0d0" stroke-width="1.8" filter="url(#skr1x9102)"/><line x1="149.5" y1="701.4" x2="149.6" y2="783.2" stroke="#c0c0d0" stroke-opacity=".38" stroke-width="1"/><line x1="779.8" y1="701.7" x2="779.0" y2="783.2" stroke="#c0c0d0" stroke-opacity=".38" stroke-width="1"/><line x1="183.3" y1="702.6" x2="182.3" y2="785.4" stroke="#c0c0d0" stroke-opacity=".38" stroke-width="1"/><line x1="811.4" y1="701.0" x2="809.2" y2="784.6" stroke="#c0c0d0" stroke-opacity=".38" stroke-width="1"/><line x1="214.5" y1="700.9" x2="215.0" y2="783.6" stroke="#c0c0d0" stroke-opacity=".38" stroke-width="1"/><line x1="842.0" y1="701.2" x2="843.3" y2="785.2" stroke="#c0c0d0" stroke-opacity=".38" stroke-width="1"/><polygon points="236.0,415.8 765.8,416.0 721.3,661.2 275.9,661.8" fill="url(#suitr1x9102)" stroke="#c0c0d0" stroke-width="2.6" filter="url(#skr1x9102) url(#metalr1x9102)"/><polygon points="233.8,418.6 766.1,418.7 722.6,663.6 276.5,663.1" fill="url(#carbonr1x9102)"/><polygon points="366.3,418.5 631.2,416.5 611.3,516.3 388.5,514.6" fill="url(#suitHir1x9102)"/><line x1="363.5" y1="472.9" x2="637.4" y2="472.6" stroke="#c0c0d0" stroke-opacity=".52" stroke-width="1.3" filter="url(#skr1x9102)"/><line x1="397.8" y1="551.2" x2="601.1" y2="548.9" stroke="#c0c0d0" stroke-opacity=".52" stroke-width="1.3" filter="url(#skr1x9102)"/><line x1="268.5" y1="491.1" x2="321.5" y2="489.4" stroke="#c0c0d0" stroke-opacity=".62" stroke-width="1.8"/><line x1="678.8" y1="491.2" x2="732.0" y2="489.4" stroke="#c0c0d0" stroke-opacity=".62" stroke-width="1.8"/><line x1="267.5" y1="523.5" x2="319.8" y2="524.2" stroke="#c0c0d0" stroke-opacity=".62" stroke-width="1.8"/><line x1="678.5" y1="524.6" x2="733.6" y2="523.4" stroke="#c0c0d0" stroke-opacity=".62" stroke-width="1.8"/><line x1="268.0" y1="554.7" x2="319.8" y2="553.6" stroke="#c0c0d0" stroke-opacity=".62" stroke-width="1.8"/><line x1="679.9" y1="555.3" x2="731.5" y2="556.3" stroke="#c0c0d0" stroke-opacity=".62" stroke-width="1.8"/><line x1="265.5" y1="587.0" x2="319.6" y2="587.0" stroke="#c0c0d0" stroke-opacity=".62" stroke-width="1.8"/><line x1="681.9" y1="588.3" x2="732.9" y2="586.7" stroke="#c0c0d0" stroke-opacity=".62" stroke-width="1.8"/><g filter="url(#glowr1x9102)"><polygon points="498.3,454.1 540.3,512.1 499.8,567.2 456.5,510.1" fill="#c0c0d0" stroke="#0d1520" stroke-width="1.4" filter="url(#skr1x9102)"/><polygon points="499.0,451.4 540.8,512.2 499.1,569.2 458.4,511.8" fill="url(#suitHir1x9102)" opacity=".45"/></g><g><rect x="113.9" y="700.3" width="137.8" height="88.0" rx="5" fill="url(#bevelr1x9102)" stroke="#c0c0d0" stroke-width="2" filter="url(#wmr1x9102)"/><rect x="115.0" y="701.2" width="137.8" height="88.0" rx="5" fill="url(#carbonr1x9102)"/><rect x="748.6"  y="702.8" width="137.8" height="88.0" rx="5" fill="url(#bevelr1x9102)" stroke="#c0c0d0" stroke-width="2" filter="url(#wmr1x9102)"/><rect x="749.8"  y="700.2" width="137.8" height="88.0" rx="5" fill="url(#carbonr1x9102)"/><rect x="122.7" y="700.3" width="23.0" height="22.0" rx="2" fill="url(#knuckler1x9102)" stroke="#c0c0d0" stroke-width=".8" filter="url(#wmr1x9102)"/><rect x="754.6" y="700.9" width="23.0" height="22.0" rx="2" fill="url(#knuckler1x9102)" stroke="#c0c0d0" stroke-width=".8" filter="url(#wmr1x9102)"/><rect x="149.8" y="698.7" width="23.0" height="22.0" rx="2" fill="url(#knuckler1x9102)" stroke="#c0c0d0" stroke-width=".8" filter="url(#wmr1x9102)"/><rect x="786.2" y="699.9" width="23.0" height="22.0" rx="2" fill="url(#knuckler1x9102)" stroke="#c0c0d0" stroke-width=".8" filter="url(#wmr1x9102)"/><rect x="180.2" y="698.7" width="23.0" height="22.0" rx="2" fill="url(#knuckler1x9102)" stroke="#c0c0d0" stroke-width=".8" filter="url(#wmr1x9102)"/><rect x="813.4" y="698.6" width="23.0" height="22.0" rx="2" fill="url(#knuckler1x9102)" stroke="#c0c0d0" stroke-width=".8" filter="url(#wmr1x9102)"/><rect x="209.6" y="698.6" width="23.0" height="22.0" rx="2" fill="url(#knuckler1x9102)" stroke="#c0c0d0" stroke-width=".8" filter="url(#wmr1x9102)"/><rect x="842.3" y="699.7" width="23.0" height="22.0" rx="2" fill="url(#knuckler1x9102)" stroke="#c0c0d0" stroke-width=".8" filter="url(#wmr1x9102)"/><ellipse cx="184.00515917487442" cy="711.1596886800415" rx="45.1" ry="30.0" fill="#c0c0d0" fill-opacity=".25" filter="url(#glowr1x9102)"/><ellipse cx="816.4930201869645" cy="709.9702356978132" rx="45.1" ry="30.0" fill="#c0c0d0" fill-opacity=".25" filter="url(#glowr1x9102)"/></g><rect x="449.7311438290402" y="557.779039696604" width="100.0"  height="56.0" fill="#2c2c3c" stroke="#c0c0d0" stroke-width="2.2" filter="url(#skr1x9102)"/><rect x="424.2927913500927" y="574.1070745809935" width="152.0" height="26.0" fill="url(#bevelr1x9102)" fill-opacity=".65" stroke="#c0c0d0" stroke-width="1.2" filter="url(#skr1x9102)"/><polygon points="308.4,379.9 351.0,292.9 500.2,277.9 648.3,296.2 693.5,381.5 667.6,503.7 499.4,566.7 331.1,504.8" fill="url(#suitr1x9102)" stroke="#c0c0d0" stroke-width="2.8" filter="url(#skr1x9102) url(#metalr1x9102)"/><polygon points="306.7,380.8 349.9,294.4 500.9,277.4 649.4,294.1 691.1,381.5 670.5,502.2 501.0,566.6 332.1,504.1" fill="url(#carbonr1x9102)"/><polygon points="379.8,301.6 501.5,286.3 620.0,301.9 606.2,380.4 391.7,379.0" fill="url(#suitHir1x9102)"/><polygon points="382.5,380.5 364.9,425.5 433.2,504.3 499.0,528.3 568.3,502.0 636.1,424.6 620.3,381.9" fill="#0d1520" fill-opacity=".88" stroke="#c0c0d0" stroke-width="1.8" filter="url(#skr1x9102)"/><polygon points="380.4,409.8 477.4,410.0 485.8,441.6 387.8,439.1" fill="#c0c0d0" filter="url(#glowr1x9102)"/><polygon points="524.1,410.2 618.1,409.8 612.5,439.6 514.2,438.3" fill="#c0c0d0" filter="url(#glowr1x9102)"/><ellipse cx="430.9" cy="425.7" rx="38.4"  ry="8.2" fill="#ffffff" opacity=".88"/><ellipse cx="569.1" cy="425.7" rx="38.4"  ry="8.2" fill="#ffffff" opacity=".88"/><line x1="485.7089513727091" y1="413.63732119733464" x2="516.1293540094421" y2="413.21770286969837" stroke="#c0c0d0" stroke-opacity=".52" stroke-width="2"/><line x1="485.4438157332688" y1="438.6717748423107" x2="516.6105566623993" y2="438.71058358289304" stroke="#c0c0d0" stroke-opacity=".52" stroke-width="2"/><line x1="498.26477585649116" y1="453.10869030645114" x2="500.4313419329934" y2="483.51707421801984" stroke="#c0c0d0" stroke-opacity=".58" stroke-width="2.2" filter="url(#skr1x9102)"/><line x1="453.26056746317073" y1="491.41670011468227" x2="455.1669566483982" y2="521.2021532402374" stroke="#c0c0d0" stroke-opacity=".52" stroke-width="1.5" filter="url(#skr1x9102)"/><line x1="478.0186856451817" y1="491.65956596527246" x2="476.3773681697808" y2="520.8929908463731" stroke="#c0c0d0" stroke-opacity=".52" stroke-width="1.5" filter="url(#skr1x9102)"/><line x1="501.24799665482715" y1="491.2185205695219" x2="499.82058755699546" y2="519.0652331816033" stroke="#c0c0d0" stroke-opacity=".52" stroke-width="1.5" filter="url(#skr1x9102)"/><line x1="521.974082559403" y1="491.3410966422408" x2="524.0964054355957" y2="519.4456606242805" stroke="#c0c0d0" stroke-opacity=".52" stroke-width="1.5" filter="url(#skr1x9102)"/><line x1="547.5283595499769" y1="492.1059637485072" x2="547.6201871414855" y2="520.2820327926427" stroke="#c0c0d0" stroke-opacity=".52" stroke-width="1.5" filter="url(#skr1x9102)"/><polygon points="434.1,505.3 566.0,504.9 555.0,558.0 446.6,556.5" fill="#2c2c3c" fill-opacity=".72" stroke="#c0c0d0" stroke-width="1.3" filter="url(#skr1x9102)"/><path d="M395.5985439864732 348.6818925444037 C343.78772604124623 155.84490947965534 450.445246575512 230.54507460147144 475.76614663466813 322.1441478431225" fill="#c0c0d0" stroke="#c0c0d0" stroke-width="2.8" filter="url(#skr1x9102)"/><path d="M603.8850442744047 346.29011100521313 C657.72825668348 156.3966175798327 548.3922014605998 227.26765718841926 525.3190374452063 322.58265701578927" fill="#c0c0d0" stroke="#c0c0d0" stroke-width="2.8" filter="url(#skr1x9102)"/><path d="M393.0522225684673 425.14744877843185 L462.03855498312043 389.380168028269 L500.7151650842279 424.6747521813959 L538.6708672711626 390.2792070556432 L608.3513266524113 424.77555716251953" stroke="#c0c0d0" stroke-width="2.2" fill="none" filter="url(#skr1x9102)"/><text x="30.0"  y="975.0" font-family="monospace" font-weight="bold" font-size="22.0" fill="rgba(255,255,255,.22)">#0001</text><text x="500.0"   y="975.0" text-anchor="middle" font-family="monospace" font-weight="bold" font-size="22.0" fill="#c0c0d0" fill-opacity=".48">CHROME RANGER</text><text x="970.0" y="975.0" text-anchor="end"    font-family="monospace" font-weight="bold" font-size="22.0" fill="#c0c0d0" fill-opacity=".32">MECH RANGERS</text></svg>