<svg xmlns="http://www.w3.org/2000/svg" viewBox="0 0 1000 1000" width="1000" height="1000" shape-rendering="geometricPrecision"><defs>

  <!-- Scene gradients -->
  <radialGradient id="bgr1x9122" cx="50%" cy="42%" r="72%">
    <stop offset="0%"   stop-color="#0a0a14"/>
    <stop offset="100%" stop-color="#050508"/>
  </radialGradient>
  <linearGradient id="suitr1x9122" x1="8%" y1="0%" x2="92%" y2="100%">
    <stop offset="0%"   stop-color="#ffd700" stop-opacity=".95"/>
    <stop offset="45%"  stop-color="#503400"/>
    <stop offset="100%" stop-color="#050508"/>
  </linearGradient>
  <linearGradient id="suitHir1x9122" x1="0%" y1="0%" x2="0%" y2="100%">
    <stop offset="0%"   stop-color="rgba(255,255,255,.28)"/>
    <stop offset="60%"  stop-color="rgba(255,255,255,.04)"/>
    <stop offset="100%" stop-color="rgba(255,255,255,0)"/>
  </linearGradient>
  <!-- Bevel: bright top, dark bottom for armour panels -->
  <linearGradient id="bevelr1x9122" x1="0%" y1="0%" x2="0%" y2="100%">
    <stop offset="0%"   stop-color="rgba(255,255,255,.55)"/>
    <stop offset="30%"  stop-color="#ffd700"/>
    <stop offset="70%"  stop-color="#503400"/>
    <stop offset="100%" stop-color="rgba(0,0,0,.5)"/>
  </linearGradient>

  <!-- Weapon: cold steel blade sweep -->
  <linearGradient id="blader1x9122" x1="0%" y1="0%" x2="100%" y2="0%">
    <stop offset="0%"   stop-color="#0e0e20"/>
    <stop offset="16%"  stop-color="#3e3e58"/>
    <stop offset="34%"  stop-color="#c8c8e0"/>
    <stop offset="50%"  stop-color="#f5f5ff"/>
    <stop offset="66%"  stop-color="#b8b8d0"/>
    <stop offset="84%"  stop-color="#2e2e48"/>
    <stop offset="100%" stop-color="#08080e"/>
  </linearGradient>
  <!-- Blade tip brightening -->
  <linearGradient id="bladeTipr1x9122" x1="0%" y1="100%" x2="0%" y2="0%">
    <stop offset="0%"   stop-color="rgba(255,255,255,0)"/>
    <stop offset="55%"  stop-color="rgba(255,255,255,.1)"/>
    <stop offset="100%" stop-color="rgba(255,255,255,.55)"/>
  </linearGradient>
  <!-- Gunmetal anodised — blaster body -->
  <linearGradient id="gunmetalr1x9122" x1="0%" y1="0%" x2="0%" y2="100%">
    <stop offset="0%"   stop-color="#46465e"/>
    <stop offset="18%"  stop-color="#828296"/>
    <stop offset="42%"  stop-color="#26263a"/>
    <stop offset="72%"  stop-color="#16162a"/>
    <stop offset="100%" stop-color="#0c0c18"/>
  </linearGradient>
  <!-- Brushed steel tube — barrel/rod -->
  <linearGradient id="barrelr1x9122" x1="0%" y1="0%" x2="100%" y2="0%">
    <stop offset="0%"   stop-color="#0a0a14"/>
    <stop offset="24%"  stop-color="#585875"/>
    <stop offset="50%"  stop-color="#a8a8c8"/>
    <stop offset="76%"  stop-color="#383852"/>
    <stop offset="100%" stop-color="#0a0a14"/>
  </linearGradient>
  <!-- Chrome rod — lance shaft -->
  <linearGradient id="chromer1x9122" x1="0%" y1="0%" x2="100%" y2="0%">
    <stop offset="0%"   stop-color="#0c0c18"/>
    <stop offset="20%"  stop-color="#686888"/>
    <stop offset="44%"  stop-color="#e0e0f0"/>
    <stop offset="56%"  stop-color="#c0c0d8"/>
    <stop offset="80%"  stop-color="#28283e"/>
    <stop offset="100%" stop-color="#0c0c18"/>
  </linearGradient>
  <!-- Titanium plate — shield face -->
  <linearGradient id="titaniumr1x9122" x1="0%" y1="0%" x2="100%" y2="100%">
    <stop offset="0%"   stop-color="#585878"/>
    <stop offset="28%"  stop-color="#ffd700" stop-opacity=".88"/>
    <stop offset="55%"  stop-color="#503400"/>
    <stop offset="80%"  stop-color="#181828"/>
    <stop offset="100%" stop-color="#0a0a18"/>
  </linearGradient>
  <!-- Artillery black-chrome — cannon body -->
  <linearGradient id="artilleryr1x9122" x1="0%" y1="0%" x2="0%" y2="100%">
    <stop offset="0%"   stop-color="#383850"/>
    <stop offset="14%"  stop-color="#78789a"/>
    <stop offset="36%"  stop-color="#202034"/>
    <stop offset="65%"  stop-color="#14141e"/>
    <stop offset="100%" stop-color="#0a0a12"/>
  </linearGradient>
  <!-- Energy orb — staff -->
  <radialGradient id="orbr1x9122" cx="35%" cy="35%" r="65%">
    <stop offset="0%"   stop-color="rgba(255,255,255,.9)"/>
    <stop offset="30%"  stop-color="#ffd700"/>
    <stop offset="68%"  stop-color="#503400"/>
    <stop offset="100%" stop-color="rgba(0,0,0,.6)"/>
  </radialGradient>
  <!-- Knuckle plate chrome -->
  <linearGradient id="knuckler1x9122" x1="0%" y1="0%" x2="0%" y2="100%">
    <stop offset="0%"   stop-color="#888aaa"/>
    <stop offset="32%"  stop-color="#ffd700" stop-opacity=".8"/>
    <stop offset="62%"  stop-color="#1a1a2c"/>
    <stop offset="100%" stop-color="#0a0a14"/>
  </linearGradient>

  <!-- Carbon fibre weave texture overlay -->
  <pattern id="carbonr1x9122" width="6" height="6" patternUnits="userSpaceOnUse">
    <rect width="6" height="6" fill="rgba(0,0,0,.08)"/>
    <rect x="0" y="0" width="3" height="3" fill="rgba(255,255,255,.022)"/>
    <rect x="3" y="3" width="3" height="3" fill="rgba(255,255,255,.022)"/>
    <line x1="0" y1="0" x2="3" y2="3" stroke="rgba(255,255,255,.038)" stroke-width=".5"/>
    <line x1="3" y1="0" x2="6" y2="3" stroke="rgba(0,0,0,.055)"       stroke-width=".5"/>
    <line x1="0" y1="3" x2="3" y2="6" stroke="rgba(0,0,0,.055)"       stroke-width=".5"/>
    <line x1="3" y1="3" x2="6" y2="6" stroke="rgba(255,255,255,.038)" stroke-width=".5"/>
  </pattern>

  <!-- Specular metal sheen on armour panels -->
  <filter id="metalr1x9122" x="-5%" y="-5%" width="110%" height="110%">
    <feSpecularLighting surfaceScale="4" specularConstant="1.8"
        specularExponent="42" lighting-color="#ffffff" result="spec">
      <feDistantLight elevation="52" azimuth="38"/>
    </feSpecularLighting>
    <feComposite in="spec" in2="SourceGraphic" operator="in" result="sm"/>
    <feComposite in="SourceGraphic" in2="sm" operator="arithmetic" k1="0" k2="1" k3="0.55" k4="0"/>
  </filter>

  <!-- Sharper specular for weapons — heavier glare -->
  <filter id="wmr1x9122" x="-8%" y="-8%" width="116%" height="116%">
    <feSpecularLighting surfaceScale="6" specularConstant="2.4"
        specularExponent="65" lighting-color="#ffffff" result="spec">
      <feDistantLight elevation="44" azimuth="28"/>
    </feSpecularLighting>
    <feComposite in="spec" in2="SourceGraphic" operator="in" result="sm"/>
    <feComposite in="SourceGraphic" in2="sm" operator="arithmetic" k1="0" k2="1" k3="0.78" k4="0"/>
  </filter>

  <!-- Sketch wobble -->
  <filter id="skr1x9122" x="-8%" y="-8%" width="116%" height="116%">
    <feTurbulence type="fractalNoise" baseFrequency="0.038"
        numOctaves="3" seed="29" result="noise"/>
    <feDisplacementMap in="SourceGraphic" in2="noise" scale="2.6"
        xChannelSelector="R" yChannelSelector="G" result="w"/>
    <feComposite in="w" in2="SourceGraphic" operator="atop"/>
  </filter>

  <!-- Glow: sharp accent -->
  <filter id="glowr1x9122" x="-20%" y="-20%" width="140%" height="140%">
    <feGaussianBlur stdDeviation="3.5" result="b"/>
    <feColorMatrix in="b" type="matrix"
        values="0 0 0 0 1  0 0 0 0 1  0 0 0 0 1  0 0 0 1.8 0" result="boost"/>
    <feMerge><feMergeNode in="boost"/><feMergeNode in="SourceGraphic"/></feMerge>
  </filter>

  <!-- Bloom: wide soft -->
  <filter id="bloomr1x9122" x="-40%" y="-40%" width="180%" height="180%">
    <feGaussianBlur stdDeviation="11" result="b"/>
    <feMerge><feMergeNode in="b"/><feMergeNode in="SourceGraphic"/></feMerge>
  </filter>

  </defs><rect width="1000" height="1000" fill="url(#bgr1x9122)"/><ellipse cx="500.0" cy="892.0" rx="350.0" ry="65.0" fill="rgba(0,0,0,.7)" filter="url(#bloomr1x9122)"/><ellipse cx="500.0" cy="889.0" rx="220.0" ry="34.0" fill="rgba(0,0,0,.45)"/><ellipse cx="500.0" cy="520.0" rx="320.0" ry="480.0" fill="#6600ff" fill-opacity=".042" filter="url(#bloomr1x9122)"/><circle cx="347.3" cy="267.7" r="1.9" fill="#6600ff" fill-opacity="0.40" filter="url(#glowr1x9122)"/><circle cx="649.1" cy="262.1" r="2.7" fill="#6600ff" fill-opacity="0.52" filter="url(#glowr1x9122)"/><circle cx="740.1" cy="566.9" r="3.2" fill="#6600ff" fill-opacity="0.73" filter="url(#glowr1x9122)"/><circle cx="712.5" cy="382.0" r="1.8" fill="#6600ff" fill-opacity="0.49" filter="url(#glowr1x9122)"/><circle cx="341.8" cy="293.5" r="2.8" fill="#6600ff" fill-opacity="0.83" filter="url(#glowr1x9122)"/><circle cx="418.4" cy="664.7" r="1.1" fill="#6600ff" fill-opacity="0.83" filter="url(#glowr1x9122)"/><circle cx="289.0" cy="791.7" r="2.0" fill="#6600ff" fill-opacity="0.71" filter="url(#glowr1x9122)"/><circle cx="475.2" cy="195.4" r="3.4" fill="#6600ff" fill-opacity="0.89" filter="url(#glowr1x9122)"/><circle cx="338.0" cy="656.8" r="2.0" fill="#6600ff" fill-opacity="0.85" filter="url(#glowr1x9122)"/><circle cx="273.3" cy="460.5" r="1.3" fill="#6600ff" fill-opacity="0.38" filter="url(#glowr1x9122)"/><circle cx="693.3" cy="511.9" r="0.8" fill="#6600ff" fill-opacity="0.69" filter="url(#glowr1x9122)"/><circle cx="615.1" cy="567.0" r="3.3" fill="#6600ff" fill-opacity="0.52" filter="url(#glowr1x9122)"/><circle cx="543.6" cy="483.2" r="3.3" fill="#6600ff" fill-opacity="0.82" filter="url(#glowr1x9122)"/><circle cx="384.5" cy="797.2" r="2.1" fill="#6600ff" fill-opacity="0.58" filter="url(#glowr1x9122)"/><polygon points="399.9,662.4 490.3,663.2 479.4,878.9 387.3,878.3" fill="url(#suitr1x9122)" stroke="#ffd700" stroke-width="2.2" filter="url(#skr1x9122) url(#metalr1x9122)"/><polygon points="400.4,662.3 490.5,662.0 479.1,877.4 388.6,875.8" fill="url(#carbonr1x9122)"/><polygon points="391.9,724.5 494.2,725.4 482.6,789.2 385.0,786.6" fill="url(#bevelr1x9122)" fill-opacity=".5" stroke="#ffd700" stroke-width="1.4" filter="url(#skr1x9122)"/><polygon points="512.3,662.3 600.9,663.5 612.2,876.3 517.7,879.1" fill="url(#suitr1x9122)" stroke="#ffd700" stroke-width="2.2" filter="url(#skr1x9122) url(#metalr1x9122)"/><polygon points="509.0,661.0 601.6,662.6 613.8,878.6 520.0,877.5" fill="url(#carbonr1x9122)"/><polygon points="507.9,725.0 609.0,725.4 615.7,788.1 516.7,788.1" fill="url(#bevelr1x9122)" fill-opacity=".5" stroke="#ffd700" stroke-width="1.4" filter="url(#skr1x9122)"/><rect x="392.5" y="839.2" width="100.3" height="24.7" fill="url(#bevelr1x9122)" stroke="#ffd700" stroke-width="1" filter="url(#skr1x9122)"/><rect x="508.5"  y="840.5" width="100.3" height="24.7" fill="url(#bevelr1x9122)" stroke="#ffd700" stroke-width="1" filter="url(#skr1x9122)"/><polygon points="370.6,878.3 496.0,876.8 502.6,922.2 364.4,922.3" fill="#503400" stroke="#ffd700" stroke-width="2" filter="url(#skr1x9122)"/><polygon points="502.9,878.4 631.7,877.0 636.1,921.4 496.3,923.0" fill="#503400" stroke="#ffd700" stroke-width="2" filter="url(#skr1x9122)"/><polygon points="305.5,632.9 696.0,632.6 636.6,680.4 361.9,683.1" fill="#ffd700" fill-opacity=".52" stroke="#ffd700" stroke-width="2" filter="url(#skr1x9122)"/><rect x="464.4" y="637.7" width="72.0" height="42.0" fill="url(#bevelr1x9122)" stroke="#ffd700" stroke-width="1.4" filter="url(#glowr1x9122)"/><rect x="486.0" y="640.3" width="28.0" height="22.0" rx="1" fill="rgba(255,255,255,.48)"/><polygon points="151.5,466.8 233.5,466.6 259.4,734.2 130.2,733.3" fill="url(#suitr1x9122)" stroke="#ffd700" stroke-width="2.2" filter="url(#skr1x9122) url(#metalr1x9122)"/><polygon points="174.1,432.7 252.9,430.7 243.6,510.8 160.8,509.3" fill="url(#bevelr1x9122)" fill-opacity=".72" stroke="#ffd700" stroke-width="2.2" filter="url(#skr1x9122)"/><polygon points="159.8,620.2 243.4,622.9 240.2,661.4 163.6,660.4" fill="#ffd700" fill-opacity=".42" stroke="#ffd700" stroke-width="1" filter="url(#skr1x9122)"/><polygon points="765.6,465.7 846.4,466.9 872.2,735.5 742.9,733.9" fill="url(#suitr1x9122)" stroke="#ffd700" stroke-width="2.2" filter="url(#skr1x9122) url(#metalr1x9122)"/><polygon points="748.0,432.0 827.8,431.0 841.7,510.1 757.6,510.5" fill="url(#bevelr1x9122)" fill-opacity=".72" stroke="#ffd700" stroke-width="2.2" filter="url(#skr1x9122)"/><polygon points="757.5,620.6 839.5,622.0 833.9,660.7 762.7,662.0" fill="#ffd700" fill-opacity=".42" stroke="#ffd700" stroke-width="1" filter="url(#skr1x9122)"/><rect x="119.1"  y="699.8" width="135.3" height="85.0" rx="4" fill="url(#bevelr1x9122)" stroke="#ffd700" stroke-width="1.8" filter="url(#skr1x9122)"/><rect x="746.8"   y="699.6" width="135.3" height="85.0" rx="4" fill="url(#bevelr1x9122)" stroke="#ffd700" stroke-width="1.8" filter="url(#skr1x9122)"/><line x1="148.9" y1="701.0" x2="148.3" y2="782.9" stroke="#ffd700" stroke-opacity=".38" stroke-width="1"/><line x1="779.7" y1="702.9" x2="777.4" y2="783.5" stroke="#ffd700" stroke-opacity=".38" stroke-width="1"/><line x1="183.6" y1="702.3" x2="183.2" y2="784.0" stroke="#ffd700" stroke-opacity=".38" stroke-width="1"/><line x1="812.7" y1="703.0" x2="812.4" y2="785.0" stroke="#ffd700" stroke-opacity=".38" stroke-width="1"/><line x1="215.1" y1="700.8" x2="215.3" y2="785.0" stroke="#ffd700" stroke-opacity=".38" stroke-width="1"/><line x1="842.9" y1="702.4" x2="842.1" y2="784.7" stroke="#ffd700" stroke-opacity=".38" stroke-width="1"/><polygon points="233.4,417.4 763.3,415.7 724.0,662.8 277.4,663.6" fill="url(#suitr1x9122)" stroke="#ffd700" stroke-width="2.6" filter="url(#skr1x9122) url(#metalr1x9122)"/><polygon points="236.4,418.9 764.6,417.5 723.6,663.7 279.0,663.4" fill="url(#carbonr1x9122)"/><polygon points="366.5,418.4 632.1,416.0 610.8,515.6 389.7,515.1" fill="url(#suitHir1x9122)"/><line x1="360.8" y1="472.3" x2="637.7" y2="469.6" stroke="#ffd700" stroke-opacity=".52" stroke-width="1.3" filter="url(#skr1x9122)"/><line x1="400.7" y1="549.8" x2="602.3" y2="551.1" stroke="#ffd700" stroke-opacity=".52" stroke-width="1.3" filter="url(#skr1x9122)"/><line x1="266.1" y1="492.0" x2="321.5" y2="491.1" stroke="#ffd700" stroke-opacity=".62" stroke-width="1.8"/><line x1="680.1" y1="492.0" x2="735.0" y2="492.5" stroke="#ffd700" stroke-opacity=".62" stroke-width="1.8"/><line x1="267.5" y1="521.3" x2="321.5" y2="524.6" stroke="#ffd700" stroke-opacity=".62" stroke-width="1.8"/><line x1="680.9" y1="524.2" x2="733.7" y2="522.0" stroke="#ffd700" stroke-opacity=".62" stroke-width="1.8"/><line x1="268.5" y1="555.4" x2="320.9" y2="556.4" stroke="#ffd700" stroke-opacity=".62" stroke-width="1.8"/><line x1="678.7" y1="556.4" x2="732.6" y2="553.5" stroke="#ffd700" stroke-opacity=".62" stroke-width="1.8"/><line x1="267.6" y1="586.9" x2="318.7" y2="586.2" stroke="#ffd700" stroke-opacity=".62" stroke-width="1.8"/><line x1="681.2" y1="587.0" x2="731.4" y2="586.8" stroke="#ffd700" stroke-opacity=".62" stroke-width="1.8"/><g filter="url(#glowr1x9122)"><polygon points="501.0,451.4 543.1,510.7 501.5,567.3 459.4,509.3" fill="#ffd700" stroke="#050508" stroke-width="1.4" filter="url(#skr1x9122)"/><polygon points="499.1,452.5 542.1,508.9 500.7,567.7 459.8,511.8" fill="url(#suitHir1x9122)" opacity=".45"/></g><g><rect x="114.6" y="702.2" width="137.8" height="88.0" rx="5" fill="url(#bevelr1x9122)" stroke="#ffd700" stroke-width="2" filter="url(#wmr1x9122)"/><rect x="114.9" y="700.5" width="137.8" height="88.0" rx="5" fill="url(#carbonr1x9122)"/><rect x="748.9"  y="703.1" width="137.8" height="88.0" rx="5" fill="url(#bevelr1x9122)" stroke="#ffd700" stroke-width="2" filter="url(#wmr1x9122)"/><rect x="747.9"  y="703.0" width="137.8" height="88.0" rx="5" fill="url(#carbonr1x9122)"/><rect x="122.9" y="700.5" width="23.0" height="22.0" rx="2" fill="url(#knuckler1x9122)" stroke="#ffd700" stroke-width=".8" filter="url(#wmr1x9122)"/><rect x="756.2" y="699.3" width="23.0" height="22.0" rx="2" fill="url(#knuckler1x9122)" stroke="#ffd700" stroke-width=".8" filter="url(#wmr1x9122)"/><rect x="150.5" y="699.3" width="23.0" height="22.0" rx="2" fill="url(#knuckler1x9122)" stroke="#ffd700" stroke-width=".8" filter="url(#wmr1x9122)"/><rect x="783.2" y="698.3" width="23.0" height="22.0" rx="2" fill="url(#knuckler1x9122)" stroke="#ffd700" stroke-width=".8" filter="url(#wmr1x9122)"/><rect x="181.0" y="698.9" width="23.0" height="22.0" rx="2" fill="url(#knuckler1x9122)" stroke="#ffd700" stroke-width=".8" filter="url(#wmr1x9122)"/><rect x="812.5" y="701.2" width="23.0" height="22.0" rx="2" fill="url(#knuckler1x9122)" stroke="#ffd700" stroke-width=".8" filter="url(#wmr1x9122)"/><rect x="211.1" y="701.0" width="23.0" height="22.0" rx="2" fill="url(#knuckler1x9122)" stroke="#ffd700" stroke-width=".8" filter="url(#wmr1x9122)"/><rect x="842.2" y="698.9" width="23.0" height="22.0" rx="2" fill="url(#knuckler1x9122)" stroke="#ffd700" stroke-width=".8" filter="url(#wmr1x9122)"/><ellipse cx="183.94572296369822" cy="712.1238880334236" rx="45.1" ry="30.0" fill="#ffd700" fill-opacity=".25" filter="url(#glowr1x9122)"/><ellipse cx="817.0420463362896" cy="709.8805201472528" rx="45.1" ry="30.0" fill="#ffd700" fill-opacity=".25" filter="url(#glowr1x9122)"/></g><rect x="450.34436454819513" y="558.1017871530727" width="100.0"  height="56.0" fill="#503400" stroke="#ffd700" stroke-width="2.2" filter="url(#skr1x9122)"/><rect x="424.79115304211155" y="576.7243273256347" width="152.0" height="26.0" fill="url(#bevelr1x9122)" fill-opacity=".65" stroke="#ffd700" stroke-width="1.2" filter="url(#skr1x9122)"/><polygon points="309.7,379.9 351.0,295.7 498.8,277.8 650.2,294.7 691.2,380.8 668.4,505.2 498.7,563.3 330.6,503.0" fill="url(#suitr1x9122)" stroke="#ffd700" stroke-width="2.8" filter="url(#skr1x9122) url(#metalr1x9122)"/><polygon points="308.8,380.1 350.4,296.1 498.7,278.2 648.9,295.3 692.2,382.0 670.2,505.0 501.7,566.0 330.7,505.0" fill="url(#carbonr1x9122)"/><polygon points="382.7,301.7 499.9,285.1 620.5,302.4 606.2,382.1 392.6,379.7" fill="url(#suitHir1x9122)"/><polygon points="379.2,379.0 365.9,427.1 431.8,504.5 499.8,527.1 568.2,502.4 633.4,425.6 617.8,380.8" fill="#050508" fill-opacity=".88" stroke="#ffd700" stroke-width="1.8" filter="url(#skr1x9122)"/><polygon points="380.9,412.2 477.9,410.2 486.4,439.3 389.6,440.4" fill="#ffd700" filter="url(#glowr1x9122)"/><polygon points="523.6,410.1 618.2,412.8 611.5,440.4 514.3,440.2" fill="#ffd700" filter="url(#glowr1x9122)"/><ellipse cx="430.9" cy="425.7" rx="38.4"  ry="8.2" fill="#ffffff" opacity=".88"/><ellipse cx="569.1" cy="425.7" rx="38.4"  ry="8.2" fill="#ffffff" opacity=".88"/><line x1="484.2521344396844" y1="415.0743051879108" x2="516.2794106135517" y2="414.1714067358523" stroke="#ffd700" stroke-opacity=".52" stroke-width="2"/><line x1="483.10147120799866" y1="437.98528080051767" x2="513.7740475590714" y2="438.1706876940094" stroke="#ffd700" stroke-opacity=".52" stroke-width="2"/><line x1="499.91209982130675" y1="456.1123842092231" x2="499.5809221391566" y2="484.32936059283094" stroke="#ffd700" stroke-opacity=".58" stroke-width="2.2" filter="url(#skr1x9122)"/><line x1="452.3179202442803" y1="491.97978445319455" x2="452.9809030099586" y2="520.3533795381896" stroke="#ffd700" stroke-opacity=".52" stroke-width="1.5" filter="url(#skr1x9122)"/><line x1="478.0786046908609" y1="489.5320536692626" x2="477.5452651953697" y2="521.3766790672205" stroke="#ffd700" stroke-opacity=".52" stroke-width="1.5" filter="url(#skr1x9122)"/><line x1="501.3099851043895" y1="492.14719380885356" x2="498.76975421700627" y2="520.0779991821386" stroke="#ffd700" stroke-opacity=".52" stroke-width="1.5" filter="url(#skr1x9122)"/><line x1="524.6573742119223" y1="490.95179201057175" x2="522.6763745960407" y2="520.7503947672434" stroke="#ffd700" stroke-opacity=".52" stroke-width="1.5" filter="url(#skr1x9122)"/><line x1="546.448744658865" y1="492.85891374312337" x2="547.6951418261231" y2="521.6897490741685" stroke="#ffd700" stroke-opacity=".52" stroke-width="1.5" filter="url(#skr1x9122)"/><polygon points="431.5,505.1 568.8,503.3 554.8,557.2 445.2,557.8" fill="#503400" fill-opacity=".72" stroke="#ffd700" stroke-width="1.3" filter="url(#skr1x9122)"/><text x="30.0"  y="975.0" font-family="monospace" font-weight="bold" font-size="22.0" fill="rgba(255,255,255,.22)">#0001</text><text x="500.0"   y="975.0" text-anchor="middle" font-family="monospace" font-weight="bold" font-size="22.0" fill="#ffd700" fill-opacity=".48">IMPERIAL RANGER</text><text x="970.0" y="975.0" text-anchor="end"    font-family="monospace" font-weight="bold" font-size="22.0" fill="#ffd700" fill-opacity=".32">MECH RANGERS</text></svg>