<svg xmlns="http://www.w3.org/2000/svg" viewBox="0 0 1000 1000" width="1000" height="1000" shape-rendering="geometricPrecision"><defs>

  <!-- Scene gradients -->
  <radialGradient id="bgr1x9166" cx="50%" cy="42%" r="72%">
    <stop offset="0%"   stop-color="#1e0d00"/>
    <stop offset="100%" stop-color="#140900"/>
  </radialGradient>
  <linearGradient id="suitr1x9166" x1="8%" y1="0%" x2="92%" y2="100%">
    <stop offset="0%"   stop-color="#ffcc00" stop-opacity=".95"/>
    <stop offset="45%"  stop-color="#a07000"/>
    <stop offset="100%" stop-color="#140900"/>
  </linearGradient>
  <linearGradient id="suitHir1x9166" x1="0%" y1="0%" x2="0%" y2="100%">
    <stop offset="0%"   stop-color="rgba(255,255,255,.28)"/>
    <stop offset="60%"  stop-color="rgba(255,255,255,.04)"/>
    <stop offset="100%" stop-color="rgba(255,255,255,0)"/>
  </linearGradient>
  <!-- Bevel: bright top, dark bottom for armour panels -->
  <linearGradient id="bevelr1x9166" x1="0%" y1="0%" x2="0%" y2="100%">
    <stop offset="0%"   stop-color="rgba(255,255,255,.55)"/>
    <stop offset="30%"  stop-color="#ffcc00"/>
    <stop offset="70%"  stop-color="#a07000"/>
    <stop offset="100%" stop-color="rgba(0,0,0,.5)"/>
  </linearGradient>

  <!-- Weapon: cold steel blade sweep -->
  <linearGradient id="blader1x9166" x1="0%" y1="0%" x2="100%" y2="0%">
    <stop offset="0%"   stop-color="#0e0e20"/>
    <stop offset="16%"  stop-color="#3e3e58"/>
    <stop offset="34%"  stop-color="#c8c8e0"/>
    <stop offset="50%"  stop-color="#f5f5ff"/>
    <stop offset="66%"  stop-color="#b8b8d0"/>
    <stop offset="84%"  stop-color="#2e2e48"/>
    <stop offset="100%" stop-color="#08080e"/>
  </linearGradient>
  <!-- Blade tip brightening -->
  <linearGradient id="bladeTipr1x9166" x1="0%" y1="100%" x2="0%" y2="0%">
    <stop offset="0%"   stop-color="rgba(255,255,255,0)"/>
    <stop offset="55%"  stop-color="rgba(255,255,255,.1)"/>
    <stop offset="100%" stop-color="rgba(255,255,255,.55)"/>
  </linearGradient>
  <!-- Gunmetal anodised — blaster body -->
  <linearGradient id="gunmetalr1x9166" x1="0%" y1="0%" x2="0%" y2="100%">
    <stop offset="0%"   stop-color="#46465e"/>
    <stop offset="18%"  stop-color="#828296"/>
    <stop offset="42%"  stop-color="#26263a"/>
    <stop offset="72%"  stop-color="#16162a"/>
    <stop offset="100%" stop-color="#0c0c18"/>
  </linearGradient>
  <!-- Brushed steel tube — barrel/rod -->
  <linearGradient id="barrelr1x9166" x1="0%" y1="0%" x2="100%" y2="0%">
    <stop offset="0%"   stop-color="#0a0a14"/>
    <stop offset="24%"  stop-color="#585875"/>
    <stop offset="50%"  stop-color="#a8a8c8"/>
    <stop offset="76%"  stop-color="#383852"/>
    <stop offset="100%" stop-color="#0a0a14"/>
  </linearGradient>
  <!-- Chrome rod — lance shaft -->
  <linearGradient id="chromer1x9166" x1="0%" y1="0%" x2="100%" y2="0%">
    <stop offset="0%"   stop-color="#0c0c18"/>
    <stop offset="20%"  stop-color="#686888"/>
    <stop offset="44%"  stop-color="#e0e0f0"/>
    <stop offset="56%"  stop-color="#c0c0d8"/>
    <stop offset="80%"  stop-color="#28283e"/>
    <stop offset="100%" stop-color="#0c0c18"/>
  </linearGradient>
  <!-- Titanium plate — shield face -->
  <linearGradient id="titaniumr1x9166" x1="0%" y1="0%" x2="100%" y2="100%">
    <stop offset="0%"   stop-color="#585878"/>
    <stop offset="28%"  stop-color="#ffcc00" stop-opacity=".88"/>
    <stop offset="55%"  stop-color="#a07000"/>
    <stop offset="80%"  stop-color="#181828"/>
    <stop offset="100%" stop-color="#0a0a18"/>
  </linearGradient>
  <!-- Artillery black-chrome — cannon body -->
  <linearGradient id="artilleryr1x9166" x1="0%" y1="0%" x2="0%" y2="100%">
    <stop offset="0%"   stop-color="#383850"/>
    <stop offset="14%"  stop-color="#78789a"/>
    <stop offset="36%"  stop-color="#202034"/>
    <stop offset="65%"  stop-color="#14141e"/>
    <stop offset="100%" stop-color="#0a0a12"/>
  </linearGradient>
  <!-- Energy orb — staff -->
  <radialGradient id="orbr1x9166" cx="35%" cy="35%" r="65%">
    <stop offset="0%"   stop-color="rgba(255,255,255,.9)"/>
    <stop offset="30%"  stop-color="#ffcc00"/>
    <stop offset="68%"  stop-color="#a07000"/>
    <stop offset="100%" stop-color="rgba(0,0,0,.6)"/>
  </radialGradient>
  <!-- Knuckle plate chrome -->
  <linearGradient id="knuckler1x9166" x1="0%" y1="0%" x2="0%" y2="100%">
    <stop offset="0%"   stop-color="#888aaa"/>
    <stop offset="32%"  stop-color="#ffcc00" stop-opacity=".8"/>
    <stop offset="62%"  stop-color="#1a1a2c"/>
    <stop offset="100%" stop-color="#0a0a14"/>
  </linearGradient>

  <!-- Carbon fibre weave texture overlay -->
  <pattern id="carbonr1x9166" width="6" height="6" patternUnits="userSpaceOnUse">
    <rect width="6" height="6" fill="rgba(0,0,0,.08)"/>
    <rect x="0" y="0" width="3" height="3" fill="rgba(255,255,255,.022)"/>
    <rect x="3" y="3" width="3" height="3" fill="rgba(255,255,255,.022)"/>
    <line x1="0" y1="0" x2="3" y2="3" stroke="rgba(255,255,255,.038)" stroke-width=".5"/>
    <line x1="3" y1="0" x2="6" y2="3" stroke="rgba(0,0,0,.055)"       stroke-width=".5"/>
    <line x1="0" y1="3" x2="3" y2="6" stroke="rgba(0,0,0,.055)"       stroke-width=".5"/>
    <line x1="3" y1="3" x2="6" y2="6" stroke="rgba(255,255,255,.038)" stroke-width=".5"/>
  </pattern>

  <!-- Specular metal sheen on armour panels -->
  <filter id="metalr1x9166" x="-5%" y="-5%" width="110%" height="110%">
    <feSpecularLighting surfaceScale="4" specularConstant="1.8"
        specularExponent="42" lighting-color="#ffffff" result="spec">
      <feDistantLight elevation="52" azimuth="38"/>
    </feSpecularLighting>
    <feComposite in="spec" in2="SourceGraphic" operator="in" result="sm"/>
    <feComposite in="SourceGraphic" in2="sm" operator="arithmetic" k1="0" k2="1" k3="0.55" k4="0"/>
  </filter>

  <!-- Sharper specular for weapons — heavier glare -->
  <filter id="wmr1x9166" x="-8%" y="-8%" width="116%" height="116%">
    <feSpecularLighting surfaceScale="6" specularConstant="2.4"
        specularExponent="65" lighting-color="#ffffff" result="spec">
      <feDistantLight elevation="44" azimuth="28"/>
    </feSpecularLighting>
    <feComposite in="spec" in2="SourceGraphic" operator="in" result="sm"/>
    <feComposite in="SourceGraphic" in2="sm" operator="arithmetic" k1="0" k2="1" k3="0.78" k4="0"/>
  </filter>

  <!-- Sketch wobble -->
  <filter id="skr1x9166" x="-8%" y="-8%" width="116%" height="116%">
    <feTurbulence type="fractalNoise" baseFrequency="0.038"
        numOctaves="3" seed="30" result="noise"/>
    <feDisplacementMap in="SourceGraphic" in2="noise" scale="2.6"
        xChannelSelector="R" yChannelSelector="G" result="w"/>
    <feComposite in="w" in2="SourceGraphic" operator="atop"/>
  </filter>

  <!-- Glow: sharp accent -->
  <filter id="glowr1x9166" x="-20%" y="-20%" width="140%" height="140%">
    <feGaussianBlur stdDeviation="3.5" result="b"/>
    <feColorMatrix in="b" type="matrix"
        values="0 0 0 0 1  0 0 0 0 1  0 0 0 0 1  0 0 0 1.8 0" result="boost"/>
    <feMerge><feMergeNode in="boost"/><feMergeNode in="SourceGraphic"/></feMerge>
  </filter>

  <!-- Bloom: wide soft -->
  <filter id="bloomr1x9166" x="-40%" y="-40%" width="180%" height="180%">
    <feGaussianBlur stdDeviation="11" result="b"/>
    <feMerge><feMergeNode in="b"/><feMergeNode in="SourceGraphic"/></feMerge>
  </filter>

  </defs><rect width="1000" height="1000" fill="url(#bgr1x9166)"/><line x1="500" y1="500" x2="1500.0" y2="500.0" stroke="#ffcc00" stroke-opacity=".048" stroke-width="5"/><line x1="500" y1="500" x2="1474.9" y2="722.5" stroke="#ffcc00" stroke-opacity=".048" stroke-width="5"/><line x1="500" y1="500" x2="1401.0" y2="933.9" stroke="#ffcc00" stroke-opacity=".048" stroke-width="5"/><line x1="500" y1="500" x2="1281.8" y2="1123.5" stroke="#ffcc00" stroke-opacity=".048" stroke-width="5"/><line x1="500" y1="500" x2="1123.5" y2="1281.8" stroke="#ffcc00" stroke-opacity=".048" stroke-width="5"/><line x1="500" y1="500" x2="933.9" y2="1401.0" stroke="#ffcc00" stroke-opacity=".048" stroke-width="5"/><line x1="500" y1="500" x2="722.5" y2="1474.9" stroke="#ffcc00" stroke-opacity=".048" stroke-width="5"/><line x1="500" y1="500" x2="500.0" y2="1500.0" stroke="#ffcc00" stroke-opacity=".048" stroke-width="5"/><line x1="500" y1="500" x2="277.5" y2="1474.9" stroke="#ffcc00" stroke-opacity=".048" stroke-width="5"/><line x1="500" y1="500" x2="66.1" y2="1401.0" stroke="#ffcc00" stroke-opacity=".048" stroke-width="5"/><line x1="500" y1="500" x2="-123.5" y2="1281.8" stroke="#ffcc00" stroke-opacity=".048" stroke-width="5"/><line x1="500" y1="500" x2="-281.8" y2="1123.5" stroke="#ffcc00" stroke-opacity=".048" stroke-width="5"/><line x1="500" y1="500" x2="-401.0" y2="933.9" stroke="#ffcc00" stroke-opacity=".048" stroke-width="5"/><line x1="500" y1="500" x2="-474.9" y2="722.5" stroke="#ffcc00" stroke-opacity=".048" stroke-width="5"/><line x1="500" y1="500" x2="-500.0" y2="500.0" stroke="#ffcc00" stroke-opacity=".048" stroke-width="5"/><line x1="500" y1="500" x2="-474.9" y2="277.5" stroke="#ffcc00" stroke-opacity=".048" stroke-width="5"/><line x1="500" y1="500" x2="-401.0" y2="66.1" stroke="#ffcc00" stroke-opacity=".048" stroke-width="5"/><line x1="500" y1="500" x2="-281.8" y2="-123.5" stroke="#ffcc00" stroke-opacity=".048" stroke-width="5"/><line x1="500" y1="500" x2="-123.5" y2="-281.8" stroke="#ffcc00" stroke-opacity=".048" stroke-width="5"/><line x1="500" y1="500" x2="66.1" y2="-401.0" stroke="#ffcc00" stroke-opacity=".048" stroke-width="5"/><line x1="500" y1="500" x2="277.5" y2="-474.9" stroke="#ffcc00" stroke-opacity=".048" stroke-width="5"/><line x1="500" y1="500" x2="500.0" y2="-500.0" stroke="#ffcc00" stroke-opacity=".048" stroke-width="5"/><line x1="500" y1="500" x2="722.5" y2="-474.9" stroke="#ffcc00" stroke-opacity=".048" stroke-width="5"/><line x1="500" y1="500" x2="933.9" y2="-401.0" stroke="#ffcc00" stroke-opacity=".048" stroke-width="5"/><line x1="500" y1="500" x2="1123.5" y2="-281.8" stroke="#ffcc00" stroke-opacity=".048" stroke-width="5"/><line x1="500" y1="500" x2="1281.8" y2="-123.5" stroke="#ffcc00" stroke-opacity=".048" stroke-width="5"/><line x1="500" y1="500" x2="1401.0" y2="66.1" stroke="#ffcc00" stroke-opacity=".048" stroke-width="5"/><line x1="500" y1="500" x2="1474.9" y2="277.5" stroke="#ffcc00" stroke-opacity=".048" stroke-width="5"/><ellipse cx="500.0" cy="892.0" rx="350.0" ry="65.0" fill="rgba(0,0,0,.7)" filter="url(#bloomr1x9166)"/><ellipse cx="500.0" cy="889.0" rx="220.0" ry="34.0" fill="rgba(0,0,0,.45)"/><ellipse cx="500.0" cy="520.0" rx="320.0" ry="480.0" fill="#ff6600" fill-opacity=".042" filter="url(#bloomr1x9166)"/><circle cx="447.7" cy="586.5" r="2.6" fill="#ff6600" fill-opacity="0.66" filter="url(#glowr1x9166)"/><circle cx="459.9" cy="220.2" r="3.1" fill="#ff6600" fill-opacity="0.54" filter="url(#glowr1x9166)"/><circle cx="690.8" cy="192.9" r="3.0" fill="#ff6600" fill-opacity="0.40" filter="url(#glowr1x9166)"/><circle cx="273.0" cy="493.6" r="1.2" fill="#ff6600" fill-opacity="0.75" filter="url(#glowr1x9166)"/><circle cx="689.9" cy="769.9" r="1.1" fill="#ff6600" fill-opacity="0.53" filter="url(#glowr1x9166)"/><circle cx="427.2" cy="353.9" r="3.1" fill="#ff6600" fill-opacity="0.81" filter="url(#glowr1x9166)"/><circle cx="419.1" cy="494.0" r="1.3" fill="#ff6600" fill-opacity="0.65" filter="url(#glowr1x9166)"/><circle cx="661.7" cy="194.1" r="2.6" fill="#ff6600" fill-opacity="0.51" filter="url(#glowr1x9166)"/><circle cx="444.2" cy="692.0" r="2.1" fill="#ff6600" fill-opacity="0.60" filter="url(#glowr1x9166)"/><circle cx="324.2" cy="704.5" r="1.0" fill="#ff6600" fill-opacity="0.62" filter="url(#glowr1x9166)"/><circle cx="601.7" cy="303.2" r="0.9" fill="#ff6600" fill-opacity="0.56" filter="url(#glowr1x9166)"/><circle cx="303.1" cy="283.8" r="2.5" fill="#ff6600" fill-opacity="0.82" filter="url(#glowr1x9166)"/><circle cx="347.1" cy="540.2" r="2.9" fill="#ff6600" fill-opacity="0.42" filter="url(#glowr1x9166)"/><circle cx="678.6" cy="557.5" r="3.8" fill="#ff6600" fill-opacity="0.79" filter="url(#glowr1x9166)"/><polygon points="399.5,664.1 491.1,661.5 479.3,876.2 385.7,878.1" fill="url(#suitr1x9166)" stroke="#ffcc00" stroke-width="2.2" filter="url(#skr1x9166) url(#metalr1x9166)"/><polygon points="397.9,663.9 491.1,663.5 481.5,876.7 388.3,876.4" fill="url(#carbonr1x9166)"/><polygon points="391.7,725.1 492.3,722.9 484.7,788.7 383.8,787.5" fill="url(#bevelr1x9166)" fill-opacity=".5" stroke="#ffcc00" stroke-width="1.4" filter="url(#skr1x9166)"/><polygon points="511.4,663.2 600.7,663.5 613.6,877.1 518.7,879.0" fill="url(#suitr1x9166)" stroke="#ffcc00" stroke-width="2.2" filter="url(#skr1x9166) url(#metalr1x9166)"/><polygon points="510.5,663.3 601.4,663.3 611.3,879.2 520.5,875.9" fill="url(#carbonr1x9166)"/><polygon points="508.3,723.9 608.0,725.2 615.8,787.0 516.5,787.0" fill="url(#bevelr1x9166)" fill-opacity=".5" stroke="#ffcc00" stroke-width="1.4" filter="url(#skr1x9166)"/><rect x="393.5" y="837.9" width="100.3" height="24.7" fill="url(#bevelr1x9166)" stroke="#ffcc00" stroke-width="1" filter="url(#skr1x9166)"/><rect x="507.5"  y="839.7" width="100.3" height="24.7" fill="url(#bevelr1x9166)" stroke="#ffcc00" stroke-width="1" filter="url(#skr1x9166)"/><polygon points="368.8,877.1 495.1,876.3 502.8,919.8 363.5,922.2" fill="#a07000" stroke="#ffcc00" stroke-width="2" filter="url(#skr1x9166)"/><polygon points="504.2,878.7 631.0,878.7 638.2,921.6 495.3,921.9" fill="#a07000" stroke="#ffcc00" stroke-width="2" filter="url(#skr1x9166)"/><polygon points="302.3,633.4 695.0,631.7 638.0,682.0 360.7,682.4" fill="#ffcc00" fill-opacity=".52" stroke="#ffcc00" stroke-width="2" filter="url(#skr1x9166)"/><rect x="464.8" y="638.2" width="72.0" height="42.0" fill="url(#bevelr1x9166)" stroke="#ffcc00" stroke-width="1.4" filter="url(#glowr1x9166)"/><rect x="484.6" y="640.9" width="28.0" height="22.0" rx="1" fill="rgba(255,255,255,.48)"/><polygon points="151.6,466.8 234.3,467.6 259.5,734.4 128.1,736.4" fill="url(#suitr1x9166)" stroke="#ffcc00" stroke-width="2.2" filter="url(#skr1x9166) url(#metalr1x9166)"/><polygon points="172.2,431.2 252.5,433.7 241.6,510.1 158.8,511.3" fill="url(#bevelr1x9166)" fill-opacity=".72" stroke="#ffcc00" stroke-width="2.2" filter="url(#skr1x9166)"/><polygon points="162.6,622.1 242.9,622.8 238.0,662.1 166.2,659.7" fill="#ffcc00" fill-opacity=".42" stroke="#ffcc00" stroke-width="1" filter="url(#skr1x9166)"/><polygon points="765.5,466.2 848.5,465.2 869.9,735.9 740.3,735.0" fill="url(#suitr1x9166)" stroke="#ffcc00" stroke-width="2.2" filter="url(#skr1x9166) url(#metalr1x9166)"/><polygon points="748.5,433.1 826.0,433.4 841.8,509.4 755.7,509.1" fill="url(#bevelr1x9166)" fill-opacity=".72" stroke="#ffcc00" stroke-width="2.2" filter="url(#skr1x9166)"/><polygon points="757.3,622.5 838.6,623.4 834.8,662.2 762.6,659.7" fill="#ffcc00" fill-opacity=".42" stroke="#ffcc00" stroke-width="1" filter="url(#skr1x9166)"/><rect x="119.3"  y="700.6" width="135.3" height="85.0" rx="4" fill="url(#bevelr1x9166)" stroke="#ffcc00" stroke-width="1.8" filter="url(#skr1x9166)"/><rect x="749.6"   y="699.4" width="135.3" height="85.0" rx="4" fill="url(#bevelr1x9166)" stroke="#ffcc00" stroke-width="1.8" filter="url(#skr1x9166)"/><line x1="149.4" y1="700.4" x2="149.9" y2="783.5" stroke="#ffcc00" stroke-opacity=".38" stroke-width="1"/><line x1="778.2" y1="703.6" x2="778.9" y2="782.5" stroke="#ffcc00" stroke-opacity=".38" stroke-width="1"/><line x1="180.8" y1="702.6" x2="182.5" y2="784.3" stroke="#ffcc00" stroke-opacity=".38" stroke-width="1"/><line x1="810.9" y1="700.2" x2="809.5" y2="783.8" stroke="#ffcc00" stroke-opacity=".38" stroke-width="1"/><line x1="216.7" y1="701.8" x2="214.7" y2="783.3" stroke="#ffcc00" stroke-opacity=".38" stroke-width="1"/><line x1="842.1" y1="700.8" x2="844.6" y2="784.0" stroke="#ffcc00" stroke-opacity=".38" stroke-width="1"/><polygon points="233.5,418.8 764.4,416.8 723.3,663.9 278.7,662.2" fill="url(#suitr1x9166)" stroke="#ffcc00" stroke-width="2.6" filter="url(#skr1x9166) url(#metalr1x9166)"/><polygon points="235.2,416.5 766.5,417.8 721.4,661.9 277.9,661.8" fill="url(#carbonr1x9166)"/><polygon points="366.4,416.2 631.7,416.2 610.5,515.8 387.0,515.2" fill="url(#suitHir1x9166)"/><line x1="361.3" y1="469.7" x2="637.9" y2="471.9" stroke="#ffcc00" stroke-opacity=".52" stroke-width="1.3" filter="url(#skr1x9166)"/><line x1="399.7" y1="550.8" x2="601.0" y2="551.3" stroke="#ffcc00" stroke-opacity=".52" stroke-width="1.3" filter="url(#skr1x9166)"/><line x1="266.5" y1="492.6" x2="318.8" y2="490.2" stroke="#ffcc00" stroke-opacity=".62" stroke-width="1.8"/><line x1="679.7" y1="492.5" x2="733.5" y2="491.5" stroke="#ffcc00" stroke-opacity=".62" stroke-width="1.8"/><line x1="266.2" y1="521.4" x2="320.1" y2="524.3" stroke="#ffcc00" stroke-opacity=".62" stroke-width="1.8"/><line x1="679.5" y1="523.4" x2="732.3" y2="524.2" stroke="#ffcc00" stroke-opacity=".62" stroke-width="1.8"/><line x1="267.9" y1="553.7" x2="319.7" y2="555.7" stroke="#ffcc00" stroke-opacity=".62" stroke-width="1.8"/><line x1="679.2" y1="555.4" x2="731.8" y2="554.0" stroke="#ffcc00" stroke-opacity=".62" stroke-width="1.8"/><line x1="266.3" y1="586.2" x2="318.7" y2="587.9" stroke="#ffcc00" stroke-opacity=".62" stroke-width="1.8"/><line x1="679.3" y1="587.0" x2="732.9" y2="587.9" stroke="#ffcc00" stroke-opacity=".62" stroke-width="1.8"/><g filter="url(#glowr1x9166)"><polygon points="500.4,452.4 514.8,488.2 555.2,492.7 523.7,518.9 533.5,556.0 499.0,534.6 465.3,558.9 474.0,516.9 446.0,492.9 485.3,489.4 " fill="#ffcc00" stroke="#140900" stroke-width="1.4" filter="url(#skr1x9166)"/><polygon points="500.4,452.4 514.8,488.2 555.2,492.7 523.7,518.9 533.5,556.0 499.0,534.6 465.3,558.9 474.0,516.9 446.0,492.9 485.3,489.4 " fill="url(#suitHir1x9166)" opacity=".45"/></g><g><polygon points="76.2,671.4 128.2,671.4 112.6,-28.6 91.8,-28.6" fill="url(#blader1x9166)" filter="url(#wmr1x9166)"/><polygon points="91.8,-28.6 112.6,-28.6 102.2,-138.6" fill="url(#blader1x9166)" filter="url(#wmr1x9166)"/><polygon points="100.3,671.4 104.0,671.4 102.7,-128.6 101.6,-128.6" fill="url(#bladeTipr1x9166)" opacity=".9"/><line x1="110.89986106080931" y1="670.1287530236878" x2="102.25245318319647" y2="-127.28231486110019" stroke="rgba(255,255,255,.68)" stroke-width="1.5"/><line x1="94.53932085568083" y1="670.0407524247654" x2="101.54119789309796" y2="-127.13959747906776" stroke="#ffcc00" stroke-width="1" stroke-opacity=".45"/><line x1="106.8" y1="651.4" x2="104.0" y2="11.4" stroke="rgba(0,0,0,.38)" stroke-width="1.6"/><line x1="97.5" y1="651.4" x2="100.3" y2="11.4" stroke="rgba(0,0,0,.38)" stroke-width="1.6"/><rect x="45.75089686628428" y="668.2047669881023" width="112.0" height="28.0" rx="3" fill="url(#bevelr1x9166)" stroke="#ffcc00" stroke-width="1.6" filter="url(#wmr1x9166)"/><rect x="70.78782961782065" y="674.2028028112836" width="64.0" height="10.0" rx="1" fill="rgba(255,255,255,.32)"/><rect x="88.70267404321578" y="675.9187895075418" width="24.0" height="6.0" rx="1" fill="#ffcc00" fill-opacity=".35"/><rect x="88.87666162461039" y="684.1201026079244" width="24.0" height="6.0" rx="1" fill="#ffcc00" fill-opacity=".35"/><rect x="90.2946348142251" y="692.2100057337433" width="24.0" height="6.0" rx="1" fill="#ffcc00" fill-opacity=".35"/><rect x="88.78809761092063" y="702.8250286473892" width="24.0" height="6.0" rx="1" fill="#ffcc00" fill-opacity=".35"/><rect x="90.60899402409788" y="709.0748531240039" width="24.0" height="6.0" rx="1" fill="#ffcc00" fill-opacity=".35"/><rect x="91.70867440015074" y="716.3489589069969" width="24.0" height="6.0" rx="1" fill="#ffcc00" fill-opacity=".35"/><ellipse cx="101.5528003790788" cy="726.6901754327118" rx="22.0" ry="16.0" fill="url(#bevelr1x9166)" stroke="#ffcc00" stroke-width="1.2" filter="url(#wmr1x9166)"/></g><rect x="450.47451887810604" y="555.8347468445078" width="100.0"  height="56.0" fill="#a07000" stroke="#ffcc00" stroke-width="2.2" filter="url(#skr1x9166)"/><rect x="425.45096878279" y="575.6164479873144" width="152.0" height="26.0" fill="url(#bevelr1x9166)" fill-opacity=".65" stroke="#ffcc00" stroke-width="1.2" filter="url(#skr1x9166)"/><polygon points="308.8,379.4 351.1,294.1 500.1,278.5 651.1,294.3 691.1,380.2 669.0,502.8 501.3,566.9 331.7,502.7" fill="url(#suitr1x9166)" stroke="#ffcc00" stroke-width="2.8" filter="url(#skr1x9166) url(#metalr1x9166)"/><polygon points="306.6,378.9 349.9,294.9 499.7,279.7 649.4,294.4 690.9,382.2 669.6,501.9 501.5,565.8 330.3,503.8" fill="url(#carbonr1x9166)"/><polygon points="381.4,303.6 501.8,284.8 619.4,304.3 606.7,379.9 392.7,380.9" fill="url(#suitHir1x9166)"/><polygon points="381.5,381.5 366.1,426.2 434.3,503.8 500.5,529.2 567.5,504.1 632.9,425.1 620.6,379.0" fill="#140900" fill-opacity=".88" stroke="#ffcc00" stroke-width="1.8" filter="url(#skr1x9166)"/><polygon points="381.7,410.3 477.8,409.9 485.1,439.9 388.9,439.2" fill="#ffcc00" filter="url(#glowr1x9166)"/><polygon points="524.4,411.9 618.3,412.7 612.3,440.2 514.3,441.4" fill="#ffcc00" filter="url(#glowr1x9166)"/><ellipse cx="430.9" cy="425.7" rx="38.4"  ry="8.2" fill="#ffffff" opacity=".88"/><ellipse cx="569.1" cy="425.7" rx="38.4"  ry="8.2" fill="#ffffff" opacity=".88"/><line x1="485.8325983500667" y1="414.348158352077" x2="516.9416767734475" y2="415.1841427476145" stroke="#ffcc00" stroke-opacity=".52" stroke-width="2"/><line x1="484.6423777070455" y1="439.1242486461997" x2="514.2658452812955" y2="437.34020235836505" stroke="#ffcc00" stroke-opacity=".52" stroke-width="2"/><line x1="501.5053298689425" y1="453.428731740918" x2="501.1721404914744" y2="482.5268678785302" stroke="#ffcc00" stroke-opacity=".58" stroke-width="2.2" filter="url(#skr1x9166)"/><line x1="454.65506081299856" y1="492.78617528649045" x2="455.6213960010372" y2="520.3423523985781" stroke="#ffcc00" stroke-opacity=".52" stroke-width="1.5" filter="url(#skr1x9166)"/><line x1="478.06622209608554" y1="493.0505758187733" x2="478.5611769719422" y2="519.9627851529046" stroke="#ffcc00" stroke-opacity=".52" stroke-width="1.5" filter="url(#skr1x9166)"/><line x1="500.4249131783843" y1="491.45160221196704" x2="499.98038133000955" y2="520.4493541969917" stroke="#ffcc00" stroke-opacity=".52" stroke-width="1.5" filter="url(#skr1x9166)"/><line x1="521.6884952338039" y1="489.91099784951655" x2="522.908472702615" y2="519.6716259018518" stroke="#ffcc00" stroke-opacity=".52" stroke-width="1.5" filter="url(#skr1x9166)"/><line x1="545.1726475873218" y1="489.63763367896894" x2="544.90108815955" y2="520.8029357113876" stroke="#ffcc00" stroke-opacity=".52" stroke-width="1.5" filter="url(#skr1x9166)"/><polygon points="432.7,502.2 565.4,505.4 554.1,556.6 447.3,557.9" fill="#a07000" fill-opacity=".72" stroke="#ffcc00" stroke-width="1.3" filter="url(#skr1x9166)"/><path d="M472.5056672755443 310.7397670395672 C304.9379897191561 146.86221312489357 419.88385602667927 239.69823965504764 499.05129769090564 309.47034625280645" fill="#ffcc00" fill-opacity=".92" stroke="#ffcc00" stroke-width="2.2" filter="url(#skr1x9166)"/><path d="M471.8290216623619 309.9919917997904 C305.17415174705906 146.2130730270408 421.0321714571119 242.9269384981133 501.11116496808825 309.93445179304103" fill="url(#suitHir1x9166)" opacity=".28"/><path d="M526.5738129252754 310.21600979696956 C695.6782262052037 148.1611953997053 580.4933231711947 241.82745317900552 499.2921271027997 311.10314757796004" fill="#ffcc00" fill-opacity=".92" stroke="#ffcc00" stroke-width="2.2" filter="url(#skr1x9166)"/><path d="M527.884258813057 312.4800280229188 C696.4447125786543 145.41065987031905 581.4168719571643 241.51921326136215 499.17906910693273 311.7101738083176" fill="url(#suitHir1x9166)" opacity=".28"/><text x="30.0"  y="975.0" font-family="monospace" font-weight="bold" font-size="22.0" fill="rgba(255,255,255,.22)">#0001</text><text x="500.0"   y="975.0" text-anchor="middle" font-family="monospace" font-weight="bold" font-size="22.0" fill="#ffcc00" fill-opacity=".48">NOVA RANGER</text><text x="970.0" y="975.0" text-anchor="end"    font-family="monospace" font-weight="bold" font-size="22.0" fill="#ffcc00" fill-opacity=".32">MECH RANGERS</text></svg>