<svg xmlns="http://www.w3.org/2000/svg" viewBox="0 0 1000 1000" width="1000" height="1000" shape-rendering="geometricPrecision"><defs>

  <!-- Scene gradients -->
  <radialGradient id="bgr1x9252" cx="50%" cy="42%" r="72%">
    <stop offset="0%"   stop-color="#0a1420"/>
    <stop offset="100%" stop-color="#050d14"/>
  </radialGradient>
  <linearGradient id="suitr1x9252" x1="8%" y1="0%" x2="92%" y2="100%">
    <stop offset="0%"   stop-color="#00ff60" stop-opacity=".95"/>
    <stop offset="45%"  stop-color="#00441e"/>
    <stop offset="100%" stop-color="#050d14"/>
  </linearGradient>
  <linearGradient id="suitHir1x9252" x1="0%" y1="0%" x2="0%" y2="100%">
    <stop offset="0%"   stop-color="rgba(255,255,255,.28)"/>
    <stop offset="60%"  stop-color="rgba(255,255,255,.04)"/>
    <stop offset="100%" stop-color="rgba(255,255,255,0)"/>
  </linearGradient>
  <!-- Bevel: bright top, dark bottom for armour panels -->
  <linearGradient id="bevelr1x9252" x1="0%" y1="0%" x2="0%" y2="100%">
    <stop offset="0%"   stop-color="rgba(255,255,255,.55)"/>
    <stop offset="30%"  stop-color="#00ff60"/>
    <stop offset="70%"  stop-color="#00441e"/>
    <stop offset="100%" stop-color="rgba(0,0,0,.5)"/>
  </linearGradient>

  <!-- Weapon: cold steel blade sweep -->
  <linearGradient id="blader1x9252" x1="0%" y1="0%" x2="100%" y2="0%">
    <stop offset="0%"   stop-color="#0e0e20"/>
    <stop offset="16%"  stop-color="#3e3e58"/>
    <stop offset="34%"  stop-color="#c8c8e0"/>
    <stop offset="50%"  stop-color="#f5f5ff"/>
    <stop offset="66%"  stop-color="#b8b8d0"/>
    <stop offset="84%"  stop-color="#2e2e48"/>
    <stop offset="100%" stop-color="#08080e"/>
  </linearGradient>
  <!-- Blade tip brightening -->
  <linearGradient id="bladeTipr1x9252" x1="0%" y1="100%" x2="0%" y2="0%">
    <stop offset="0%"   stop-color="rgba(255,255,255,0)"/>
    <stop offset="55%"  stop-color="rgba(255,255,255,.1)"/>
    <stop offset="100%" stop-color="rgba(255,255,255,.55)"/>
  </linearGradient>
  <!-- Gunmetal anodised — blaster body -->
  <linearGradient id="gunmetalr1x9252" x1="0%" y1="0%" x2="0%" y2="100%">
    <stop offset="0%"   stop-color="#46465e"/>
    <stop offset="18%"  stop-color="#828296"/>
    <stop offset="42%"  stop-color="#26263a"/>
    <stop offset="72%"  stop-color="#16162a"/>
    <stop offset="100%" stop-color="#0c0c18"/>
  </linearGradient>
  <!-- Brushed steel tube — barrel/rod -->
  <linearGradient id="barrelr1x9252" x1="0%" y1="0%" x2="100%" y2="0%">
    <stop offset="0%"   stop-color="#0a0a14"/>
    <stop offset="24%"  stop-color="#585875"/>
    <stop offset="50%"  stop-color="#a8a8c8"/>
    <stop offset="76%"  stop-color="#383852"/>
    <stop offset="100%" stop-color="#0a0a14"/>
  </linearGradient>
  <!-- Chrome rod — lance shaft -->
  <linearGradient id="chromer1x9252" x1="0%" y1="0%" x2="100%" y2="0%">
    <stop offset="0%"   stop-color="#0c0c18"/>
    <stop offset="20%"  stop-color="#686888"/>
    <stop offset="44%"  stop-color="#e0e0f0"/>
    <stop offset="56%"  stop-color="#c0c0d8"/>
    <stop offset="80%"  stop-color="#28283e"/>
    <stop offset="100%" stop-color="#0c0c18"/>
  </linearGradient>
  <!-- Titanium plate — shield face -->
  <linearGradient id="titaniumr1x9252" x1="0%" y1="0%" x2="100%" y2="100%">
    <stop offset="0%"   stop-color="#585878"/>
    <stop offset="28%"  stop-color="#00ff60" stop-opacity=".88"/>
    <stop offset="55%"  stop-color="#00441e"/>
    <stop offset="80%"  stop-color="#181828"/>
    <stop offset="100%" stop-color="#0a0a18"/>
  </linearGradient>
  <!-- Artillery black-chrome — cannon body -->
  <linearGradient id="artilleryr1x9252" x1="0%" y1="0%" x2="0%" y2="100%">
    <stop offset="0%"   stop-color="#383850"/>
    <stop offset="14%"  stop-color="#78789a"/>
    <stop offset="36%"  stop-color="#202034"/>
    <stop offset="65%"  stop-color="#14141e"/>
    <stop offset="100%" stop-color="#0a0a12"/>
  </linearGradient>
  <!-- Energy orb — staff -->
  <radialGradient id="orbr1x9252" cx="35%" cy="35%" r="65%">
    <stop offset="0%"   stop-color="rgba(255,255,255,.9)"/>
    <stop offset="30%"  stop-color="#00ff60"/>
    <stop offset="68%"  stop-color="#00441e"/>
    <stop offset="100%" stop-color="rgba(0,0,0,.6)"/>
  </radialGradient>
  <!-- Knuckle plate chrome -->
  <linearGradient id="knuckler1x9252" x1="0%" y1="0%" x2="0%" y2="100%">
    <stop offset="0%"   stop-color="#888aaa"/>
    <stop offset="32%"  stop-color="#00ff60" stop-opacity=".8"/>
    <stop offset="62%"  stop-color="#1a1a2c"/>
    <stop offset="100%" stop-color="#0a0a14"/>
  </linearGradient>

  <!-- Carbon fibre weave texture overlay -->
  <pattern id="carbonr1x9252" width="6" height="6" patternUnits="userSpaceOnUse">
    <rect width="6" height="6" fill="rgba(0,0,0,.08)"/>
    <rect x="0" y="0" width="3" height="3" fill="rgba(255,255,255,.022)"/>
    <rect x="3" y="3" width="3" height="3" fill="rgba(255,255,255,.022)"/>
    <line x1="0" y1="0" x2="3" y2="3" stroke="rgba(255,255,255,.038)" stroke-width=".5"/>
    <line x1="3" y1="0" x2="6" y2="3" stroke="rgba(0,0,0,.055)"       stroke-width=".5"/>
    <line x1="0" y1="3" x2="3" y2="6" stroke="rgba(0,0,0,.055)"       stroke-width=".5"/>
    <line x1="3" y1="3" x2="6" y2="6" stroke="rgba(255,255,255,.038)" stroke-width=".5"/>
  </pattern>

  <!-- Specular metal sheen on armour panels -->
  <filter id="metalr1x9252" x="-5%" y="-5%" width="110%" height="110%">
    <feSpecularLighting surfaceScale="4" specularConstant="1.8"
        specularExponent="42" lighting-color="#ffffff" result="spec">
      <feDistantLight elevation="52" azimuth="38"/>
    </feSpecularLighting>
    <feComposite in="spec" in2="SourceGraphic" operator="in" result="sm"/>
    <feComposite in="SourceGraphic" in2="sm" operator="arithmetic" k1="0" k2="1" k3="0.55" k4="0"/>
  </filter>

  <!-- Sharper specular for weapons — heavier glare -->
  <filter id="wmr1x9252" x="-8%" y="-8%" width="116%" height="116%">
    <feSpecularLighting surfaceScale="6" specularConstant="2.4"
        specularExponent="65" lighting-color="#ffffff" result="spec">
      <feDistantLight elevation="44" azimuth="28"/>
    </feSpecularLighting>
    <feComposite in="spec" in2="SourceGraphic" operator="in" result="sm"/>
    <feComposite in="SourceGraphic" in2="sm" operator="arithmetic" k1="0" k2="1" k3="0.78" k4="0"/>
  </filter>

  <!-- Sketch wobble -->
  <filter id="skr1x9252" x="-8%" y="-8%" width="116%" height="116%">
    <feTurbulence type="fractalNoise" baseFrequency="0.038"
        numOctaves="3" seed="76" result="noise"/>
    <feDisplacementMap in="SourceGraphic" in2="noise" scale="2.6"
        xChannelSelector="R" yChannelSelector="G" result="w"/>
    <feComposite in="w" in2="SourceGraphic" operator="atop"/>
  </filter>

  <!-- Glow: sharp accent -->
  <filter id="glowr1x9252" x="-20%" y="-20%" width="140%" height="140%">
    <feGaussianBlur stdDeviation="3.5" result="b"/>
    <feColorMatrix in="b" type="matrix"
        values="0 0 0 0 1  0 0 0 0 1  0 0 0 0 1  0 0 0 1.8 0" result="boost"/>
    <feMerge><feMergeNode in="boost"/><feMergeNode in="SourceGraphic"/></feMerge>
  </filter>

  <!-- Bloom: wide soft -->
  <filter id="bloomr1x9252" x="-40%" y="-40%" width="180%" height="180%">
    <feGaussianBlur stdDeviation="11" result="b"/>
    <feMerge><feMergeNode in="b"/><feMergeNode in="SourceGraphic"/></feMerge>
  </filter>

  </defs><rect width="1000" height="1000" fill="url(#bgr1x9252)"/><polygon points="17.919210279360414,164.07627939712256 27.793638336472213,115.47975543700159 45.66578587330878,158.17680615466088" fill="#00ff60" fill-opacity=".055" stroke="#00ff60" stroke-opacity=".1" stroke-width="1"/><polygon points="137.86944668740034,55.90176425874233 166.7269750898704,17.89609050191939 177.09444010443985,45.29457995202392" fill="#00ff60" fill-opacity=".055" stroke="#00ff60" stroke-opacity=".1" stroke-width="1"/><polygon points="830.3175374912098,79.92016825824976 859.9755105730146,40.68298897985369 886.0979089727625,85.2110116975382" fill="#00ff60" fill-opacity=".055" stroke="#00ff60" stroke-opacity=".1" stroke-width="1"/><polygon points="899.2720371996984,56.495181350037456 911.051332520321,1.442453938536346 928.2982271285728,55.73260031174868" fill="#00ff60" fill-opacity=".055" stroke="#00ff60" stroke-opacity=".1" stroke-width="1"/><polygon points="584.0370119456202,238.2256195275113 599.1540810540318,200.80094208288938 608.556514678523,230.98471053875983" fill="#00ff60" fill-opacity=".055" stroke="#00ff60" stroke-opacity=".1" stroke-width="1"/><polygon points="592.6605468057096,94.52518885023892 600.7776787858456,53.99041047133505 630.023787937127,79.25118886865675" fill="#00ff60" fill-opacity=".055" stroke="#00ff60" stroke-opacity=".1" stroke-width="1"/><polygon points="938.4213528083637,380.5575001100078 964.8727946383879,353.22826925944537 981.1780771920457,388.1273182760924" fill="#00ff60" fill-opacity=".055" stroke="#00ff60" stroke-opacity=".1" stroke-width="1"/><polygon points="501.05240302626044,278.0647936137393 525.5013895668089,240.2337417639792 545.0375318834558,265.95215865876526" fill="#00ff60" fill-opacity=".055" stroke="#00ff60" stroke-opacity=".1" stroke-width="1"/><ellipse cx="500.0" cy="892.0" rx="350.0" ry="65.0" fill="rgba(0,0,0,.7)" filter="url(#bloomr1x9252)"/><ellipse cx="500.0" cy="889.0" rx="220.0" ry="34.0" fill="rgba(0,0,0,.45)"/><ellipse cx="500.0" cy="520.0" rx="320.0" ry="480.0" fill="#00e5ff" fill-opacity=".042" filter="url(#bloomr1x9252)"/><circle cx="747.2" cy="206.5" r="2.2" fill="#00e5ff" fill-opacity="0.77" filter="url(#glowr1x9252)"/><circle cx="712.2" cy="621.2" r="0.8" fill="#00e5ff" fill-opacity="0.54" filter="url(#glowr1x9252)"/><circle cx="632.3" cy="694.5" r="3.3" fill="#00e5ff" fill-opacity="0.77" filter="url(#glowr1x9252)"/><circle cx="622.0" cy="479.7" r="1.2" fill="#00e5ff" fill-opacity="0.81" filter="url(#glowr1x9252)"/><circle cx="468.8" cy="321.7" r="2.5" fill="#00e5ff" fill-opacity="0.89" filter="url(#glowr1x9252)"/><circle cx="700.1" cy="487.2" r="3.5" fill="#00e5ff" fill-opacity="0.49" filter="url(#glowr1x9252)"/><circle cx="501.2" cy="448.7" r="3.6" fill="#00e5ff" fill-opacity="0.82" filter="url(#glowr1x9252)"/><circle cx="574.2" cy="779.0" r="1.5" fill="#00e5ff" fill-opacity="0.77" filter="url(#glowr1x9252)"/><circle cx="378.9" cy="508.9" r="3.8" fill="#00e5ff" fill-opacity="0.65" filter="url(#glowr1x9252)"/><circle cx="280.3" cy="184.1" r="1.1" fill="#00e5ff" fill-opacity="0.83" filter="url(#glowr1x9252)"/><circle cx="362.4" cy="354.3" r="1.0" fill="#00e5ff" fill-opacity="0.68" filter="url(#glowr1x9252)"/><circle cx="394.0" cy="228.3" r="1.4" fill="#00e5ff" fill-opacity="0.70" filter="url(#glowr1x9252)"/><circle cx="585.0" cy="650.9" r="3.9" fill="#00e5ff" fill-opacity="0.63" filter="url(#glowr1x9252)"/><circle cx="368.7" cy="370.0" r="1.0" fill="#00e5ff" fill-opacity="0.47" filter="url(#glowr1x9252)"/><path d="M660.8,218.7 Q630.9,493.7 435.1,783.6" stroke="#00e5ff" stroke-opacity="0.79" stroke-width="1.3" fill="none" filter="url(#glowr1x9252)"/><path d="M461.6,302.9 Q505.9,570.7 396.8,870.3" stroke="#00e5ff" stroke-opacity="0.49" stroke-width="2.0" fill="none" filter="url(#glowr1x9252)"/><path d="M694.7,200.9 Q666.8,404.2 631.8,600.2" stroke="#00e5ff" stroke-opacity="0.49" stroke-width="2.2" fill="none" filter="url(#glowr1x9252)"/><path d="M422.3,156.3 Q404.8,527.2 605.2,879.8" stroke="#00e5ff" stroke-opacity="0.49" stroke-width="2.0" fill="none" filter="url(#glowr1x9252)"/><path d="M504.3,337.6 Q498.4,506.0 486.4,724.1" stroke="#00e5ff" stroke-opacity="0.72" stroke-width="0.9" fill="none" filter="url(#glowr1x9252)"/><polygon points="399.6,661.6 489.3,661.8 480.5,877.2 386.9,878.1" fill="url(#suitr1x9252)" stroke="#00ff60" stroke-width="2.2" filter="url(#skr1x9252) url(#metalr1x9252)"/><polygon points="399.6,662.1 490.6,664.0 480.5,875.8 388.9,875.8" fill="url(#carbonr1x9252)"/><polygon points="392.8,724.5 494.1,725.0 484.1,788.8 383.5,790.0" fill="url(#bevelr1x9252)" fill-opacity=".5" stroke="#00ff60" stroke-width="1.4" filter="url(#skr1x9252)"/><polygon points="512.0,662.6 602.0,662.3 613.6,877.7 517.9,876.1" fill="url(#suitr1x9252)" stroke="#00ff60" stroke-width="2.2" filter="url(#skr1x9252) url(#metalr1x9252)"/><polygon points="510.6,662.1 602.0,662.6 613.3,878.5 520.9,877.3" fill="url(#carbonr1x9252)"/><polygon points="506.1,723.6 605.7,724.1 614.4,789.6 517.3,789.2" fill="url(#bevelr1x9252)" fill-opacity=".5" stroke="#00ff60" stroke-width="1.4" filter="url(#skr1x9252)"/><rect x="393.7" y="838.1" width="100.3" height="24.7" fill="url(#bevelr1x9252)" stroke="#00ff60" stroke-width="1" filter="url(#skr1x9252)"/><rect x="508.7"  y="839.2" width="100.3" height="24.7" fill="url(#bevelr1x9252)" stroke="#00ff60" stroke-width="1" filter="url(#skr1x9252)"/><polygon points="368.4,877.0 494.7,876.7 503.7,922.3 362.8,921.2" fill="#00441e" stroke="#00ff60" stroke-width="2" filter="url(#skr1x9252)"/><polygon points="502.9,877.0 630.1,876.5 637.7,921.3 496.9,920.7" fill="#00441e" stroke="#00ff60" stroke-width="2" filter="url(#skr1x9252)"/><polygon points="303.6,634.9 694.8,634.1 639.0,681.7 361.7,682.7" fill="#00ff60" fill-opacity=".52" stroke="#00ff60" stroke-width="2" filter="url(#skr1x9252)"/><rect x="465.5" y="639.7" width="72.0" height="42.0" fill="url(#bevelr1x9252)" stroke="#00ff60" stroke-width="1.4" filter="url(#glowr1x9252)"/><rect x="485.7" y="640.3" width="28.0" height="22.0" rx="1" fill="rgba(255,255,255,.48)"/><polygon points="151.4,465.0 235.5,467.3 259.0,735.5 129.7,735.9" fill="url(#suitr1x9252)" stroke="#00ff60" stroke-width="2.2" filter="url(#skr1x9252) url(#metalr1x9252)"/><polygon points="174.9,432.4 254.1,432.0 242.4,511.4 160.2,509.1" fill="url(#bevelr1x9252)" fill-opacity=".72" stroke="#00ff60" stroke-width="2.2" filter="url(#skr1x9252)"/><polygon points="162.1,622.4 242.7,623.2 238.3,662.5 163.7,660.6" fill="#00ff60" fill-opacity=".42" stroke="#00ff60" stroke-width="1" filter="url(#skr1x9252)"/><polygon points="763.7,465.4 846.0,465.7 870.1,734.0 742.7,736.5" fill="url(#suitr1x9252)" stroke="#00ff60" stroke-width="2.2" filter="url(#skr1x9252) url(#metalr1x9252)"/><polygon points="745.5,432.1 825.3,433.4 840.8,509.7 757.8,509.8" fill="url(#bevelr1x9252)" fill-opacity=".72" stroke="#00ff60" stroke-width="2.2" filter="url(#skr1x9252)"/><polygon points="758.0,623.5 838.3,622.2 834.9,661.2 762.5,659.8" fill="#00ff60" fill-opacity=".42" stroke="#00ff60" stroke-width="1" filter="url(#skr1x9252)"/><rect x="118.7"  y="698.3" width="135.3" height="85.0" rx="4" fill="url(#bevelr1x9252)" stroke="#00ff60" stroke-width="1.8" filter="url(#skr1x9252)"/><rect x="749.3"   y="699.1" width="135.3" height="85.0" rx="4" fill="url(#bevelr1x9252)" stroke="#00ff60" stroke-width="1.8" filter="url(#skr1x9252)"/><line x1="148.0" y1="700.2" x2="149.0" y2="783.9" stroke="#00ff60" stroke-opacity=".38" stroke-width="1"/><line x1="777.9" y1="702.7" x2="778.4" y2="782.3" stroke="#00ff60" stroke-opacity=".38" stroke-width="1"/><line x1="182.6" y1="703.4" x2="183.2" y2="785.0" stroke="#00ff60" stroke-opacity=".38" stroke-width="1"/><line x1="811.6" y1="700.7" x2="809.9" y2="782.7" stroke="#00ff60" stroke-opacity=".38" stroke-width="1"/><line x1="215.8" y1="703.3" x2="214.7" y2="783.1" stroke="#00ff60" stroke-opacity=".38" stroke-width="1"/><line x1="845.3" y1="700.5" x2="844.4" y2="785.1" stroke="#00ff60" stroke-opacity=".38" stroke-width="1"/><polygon points="234.4,417.3 766.4,418.6 720.9,663.7 276.6,662.6" fill="url(#suitr1x9252)" stroke="#00ff60" stroke-width="2.6" filter="url(#skr1x9252) url(#metalr1x9252)"/><polygon points="235.7,416.4 765.2,417.2 723.9,662.7 275.9,664.1" fill="url(#carbonr1x9252)"/><polygon points="367.7,417.2 633.1,417.8 612.3,516.3 388.2,515.6" fill="url(#suitHir1x9252)"/><line x1="362.1" y1="471.9" x2="639.1" y2="469.6" stroke="#00ff60" stroke-opacity=".52" stroke-width="1.3" filter="url(#skr1x9252)"/><line x1="400.8" y1="550.4" x2="599.3" y2="549.0" stroke="#00ff60" stroke-opacity=".52" stroke-width="1.3" filter="url(#skr1x9252)"/><line x1="265.1" y1="489.3" x2="319.6" y2="490.6" stroke="#00ff60" stroke-opacity=".62" stroke-width="1.8"/><line x1="681.1" y1="492.2" x2="734.5" y2="489.5" stroke="#00ff60" stroke-opacity=".62" stroke-width="1.8"/><line x1="265.0" y1="524.5" x2="321.4" y2="524.1" stroke="#00ff60" stroke-opacity=".62" stroke-width="1.8"/><line x1="681.1" y1="522.6" x2="733.9" y2="524.0" stroke="#00ff60" stroke-opacity=".62" stroke-width="1.8"/><line x1="265.2" y1="555.0" x2="321.1" y2="553.5" stroke="#00ff60" stroke-opacity=".62" stroke-width="1.8"/><line x1="680.9" y1="553.5" x2="734.6" y2="554.1" stroke="#00ff60" stroke-opacity=".62" stroke-width="1.8"/><line x1="266.1" y1="587.7" x2="320.4" y2="586.6" stroke="#00ff60" stroke-opacity=".62" stroke-width="1.8"/><line x1="679.6" y1="587.3" x2="734.0" y2="587.8" stroke="#00ff60" stroke-opacity=".62" stroke-width="1.8"/><g filter="url(#glowr1x9252)"><polygon points="500.1,451.2 515.7,488.8 554.7,492.5 522.8,519.6 534.4,557.9 501.8,534.7 465.9,557.3 474.0,516.8 443.1,491.0 483.8,489.6 " fill="#00ff60" stroke="#050d14" stroke-width="1.4" filter="url(#skr1x9252)"/><polygon points="500.1,451.2 515.7,488.8 554.7,492.5 522.8,519.6 534.4,557.9 501.8,534.7 465.9,557.3 474.0,516.8 443.1,491.0 483.8,489.6 " fill="url(#suitHir1x9252)" opacity=".45"/></g><g><rect x="114.4" y="701.0" width="137.8" height="88.0" rx="5" fill="url(#bevelr1x9252)" stroke="#00ff60" stroke-width="2" filter="url(#wmr1x9252)"/><rect x="114.8" y="701.8" width="137.8" height="88.0" rx="5" fill="url(#carbonr1x9252)"/><rect x="749.2"  y="703.0" width="137.8" height="88.0" rx="5" fill="url(#bevelr1x9252)" stroke="#00ff60" stroke-width="2" filter="url(#wmr1x9252)"/><rect x="748.5"  y="700.3" width="137.8" height="88.0" rx="5" fill="url(#carbonr1x9252)"/><rect x="120.1" y="699.1" width="23.0" height="22.0" rx="2" fill="url(#knuckler1x9252)" stroke="#00ff60" stroke-width=".8" filter="url(#wmr1x9252)"/><rect x="756.5" y="701.0" width="23.0" height="22.0" rx="2" fill="url(#knuckler1x9252)" stroke="#00ff60" stroke-width=".8" filter="url(#wmr1x9252)"/><rect x="151.4" y="698.9" width="23.0" height="22.0" rx="2" fill="url(#knuckler1x9252)" stroke="#00ff60" stroke-width=".8" filter="url(#wmr1x9252)"/><rect x="784.9" y="699.1" width="23.0" height="22.0" rx="2" fill="url(#knuckler1x9252)" stroke="#00ff60" stroke-width=".8" filter="url(#wmr1x9252)"/><rect x="179.4" y="698.6" width="23.0" height="22.0" rx="2" fill="url(#knuckler1x9252)" stroke="#00ff60" stroke-width=".8" filter="url(#wmr1x9252)"/><rect x="813.8" y="700.8" width="23.0" height="22.0" rx="2" fill="url(#knuckler1x9252)" stroke="#00ff60" stroke-width=".8" filter="url(#wmr1x9252)"/><rect x="210.6" y="699.3" width="23.0" height="22.0" rx="2" fill="url(#knuckler1x9252)" stroke="#00ff60" stroke-width=".8" filter="url(#wmr1x9252)"/><rect x="844.1" y="699.7" width="23.0" height="22.0" rx="2" fill="url(#knuckler1x9252)" stroke="#00ff60" stroke-width=".8" filter="url(#wmr1x9252)"/><ellipse cx="184.02459066942333" cy="711.3963976338318" rx="45.1" ry="30.0" fill="#00ff60" fill-opacity=".25" filter="url(#glowr1x9252)"/><ellipse cx="818.6925064915978" cy="709.7809275019727" rx="45.1" ry="30.0" fill="#00ff60" fill-opacity=".25" filter="url(#glowr1x9252)"/></g><rect x="449.7931271086447" y="557.3280615016818" width="100.0"  height="56.0" fill="#00441e" stroke="#00ff60" stroke-width="2.2" filter="url(#skr1x9252)"/><rect x="423.0895850050263" y="573.5741058061831" width="152.0" height="26.0" fill="url(#bevelr1x9252)" fill-opacity=".65" stroke="#00ff60" stroke-width="1.2" filter="url(#skr1x9252)"/><polygon points="308.8,379.5 351.9,292.8 498.8,276.6 648.3,293.6 690.4,380.0 669.4,504.7 498.8,563.7 330.1,503.9" fill="url(#suitr1x9252)" stroke="#00ff60" stroke-width="2.8" filter="url(#skr1x9252) url(#metalr1x9252)"/><polygon points="307.2,380.7 351.7,294.5 501.8,278.9 648.9,294.5 693.4,379.5 669.7,505.2 500.1,563.6 330.8,504.9" fill="url(#carbonr1x9252)"/><polygon points="379.2,301.4 498.3,286.2 620.0,302.9 609.3,381.0 391.5,379.1" fill="url(#suitHir1x9252)"/><polygon points="380.2,380.3 364.6,425.5 433.6,502.1 499.4,528.1 567.5,502.6 634.9,424.1 619.3,381.9" fill="#050d14" fill-opacity=".88" stroke="#00ff60" stroke-width="1.8" filter="url(#skr1x9252)"/><polygon points="382.7,411.0 475.9,409.7 483.8,440.5 389.4,440.0" fill="#00ff60" filter="url(#glowr1x9252)"/><polygon points="522.7,412.2 619.2,411.6 610.2,439.0 516.1,440.7" fill="#00ff60" filter="url(#glowr1x9252)"/><ellipse cx="430.9" cy="425.7" rx="38.4"  ry="8.2" fill="#ffffff" opacity=".88"/><ellipse cx="569.1" cy="425.7" rx="38.4"  ry="8.2" fill="#ffffff" opacity=".88"/><line x1="484.9428418353759" y1="412.53452279940245" x2="514.8768565165252" y2="414.9331882741302" stroke="#00ff60" stroke-opacity=".52" stroke-width="2"/><line x1="485.70571959666904" y1="439.76182304285464" x2="515.3295101759396" y2="438.29996672607956" stroke="#00ff60" stroke-opacity=".52" stroke-width="2"/><line x1="499.1225945079699" y1="453.73351333728056" x2="501.5851906189695" y2="484.3527350519784" stroke="#00ff60" stroke-opacity=".58" stroke-width="2.2" filter="url(#skr1x9252)"/><line x1="452.81273936599496" y1="493.00463822092854" x2="455.1564517415874" y2="518.5955826402642" stroke="#00ff60" stroke-opacity=".52" stroke-width="1.5" filter="url(#skr1x9252)"/><line x1="477.88079401481895" y1="491.577811311651" x2="476.46848404886197" y2="520.4101135344245" stroke="#00ff60" stroke-opacity=".52" stroke-width="1.5" filter="url(#skr1x9252)"/><line x1="500.141034777835" y1="492.91066317073995" x2="499.73727597575635" y2="521.4966051878407" stroke="#00ff60" stroke-opacity=".52" stroke-width="1.5" filter="url(#skr1x9252)"/><line x1="522.2884284571371" y1="492.6554539929144" x2="523.5031474283523" y2="518.3438996192999" stroke="#00ff60" stroke-opacity=".52" stroke-width="1.5" filter="url(#skr1x9252)"/><line x1="545.369898819942" y1="492.6380994803272" x2="546.9590481153876" y2="519.6751080646179" stroke="#00ff60" stroke-opacity=".52" stroke-width="1.5" filter="url(#skr1x9252)"/><polygon points="434.0,502.8 566.5,503.0 552.3,557.1 444.7,557.5" fill="#00441e" fill-opacity=".72" stroke="#00ff60" stroke-width="1.3" filter="url(#skr1x9252)"/><path d="M472.92798700759187 309.5988823171705 C305.7380546077527 146.6144100533798 421.1026547702402 240.1999094470404 500.80190974213184 309.4737324620597" fill="#00ff60" fill-opacity=".92" stroke="#00ff60" stroke-width="2.2" filter="url(#skr1x9252)"/><path d="M472.72777219552546 310.08582567274567 C303.8613799666427 146.6274926016107 419.45117515254765 239.7996219850145 499.4394510488957 309.9850608375855" fill="url(#suitHir1x9252)" opacity=".28"/><path d="M527.8982130867615 311.896583302319 C694.5113109167293 147.78873425442723 581.1337397664413 240.30771115729584 499.5423361962661 311.99884434239937" fill="#00ff60" fill-opacity=".92" stroke="#00ff60" stroke-width="2.2" filter="url(#skr1x9252)"/><path d="M525.3938680756092 311.91262517534193 C696.2596163989604 146.73013050043954 578.9281322048604 242.3964498161338 498.8760309682228 310.7944105857983" fill="url(#suitHir1x9252)" opacity=".28"/><text x="30.0"  y="975.0" font-family="monospace" font-weight="bold" font-size="22.0" fill="rgba(255,255,255,.22)">#0001</text><text x="500.0"   y="975.0" text-anchor="middle" font-family="monospace" font-weight="bold" font-size="22.0" fill="#00ff60" fill-opacity=".48">VIPER RANGER</text><text x="970.0" y="975.0" text-anchor="end"    font-family="monospace" font-weight="bold" font-size="22.0" fill="#00ff60" fill-opacity=".32">MECH RANGERS</text></svg>