<svg xmlns="http://www.w3.org/2000/svg" viewBox="0 0 1000 1000" width="1000" height="1000" shape-rendering="geometricPrecision"><defs>

  <!-- Scene gradients -->
  <radialGradient id="bgr1x9290" cx="50%" cy="42%" r="72%">
    <stop offset="0%"   stop-color="#0a0a14"/>
    <stop offset="100%" stop-color="#050508"/>
  </radialGradient>
  <linearGradient id="suitr1x9290" x1="8%" y1="0%" x2="92%" y2="100%">
    <stop offset="0%"   stop-color="#2060ff" stop-opacity=".95"/>
    <stop offset="45%"  stop-color="#003ccc"/>
    <stop offset="100%" stop-color="#050508"/>
  </linearGradient>
  <linearGradient id="suitHir1x9290" x1="0%" y1="0%" x2="0%" y2="100%">
    <stop offset="0%"   stop-color="rgba(255,255,255,.28)"/>
    <stop offset="60%"  stop-color="rgba(255,255,255,.04)"/>
    <stop offset="100%" stop-color="rgba(255,255,255,0)"/>
  </linearGradient>
  <!-- Bevel: bright top, dark bottom for armour panels -->
  <linearGradient id="bevelr1x9290" x1="0%" y1="0%" x2="0%" y2="100%">
    <stop offset="0%"   stop-color="rgba(255,255,255,.55)"/>
    <stop offset="30%"  stop-color="#2060ff"/>
    <stop offset="70%"  stop-color="#003ccc"/>
    <stop offset="100%" stop-color="rgba(0,0,0,.5)"/>
  </linearGradient>

  <!-- Weapon: cold steel blade sweep -->
  <linearGradient id="blader1x9290" x1="0%" y1="0%" x2="100%" y2="0%">
    <stop offset="0%"   stop-color="#0e0e20"/>
    <stop offset="16%"  stop-color="#3e3e58"/>
    <stop offset="34%"  stop-color="#c8c8e0"/>
    <stop offset="50%"  stop-color="#f5f5ff"/>
    <stop offset="66%"  stop-color="#b8b8d0"/>
    <stop offset="84%"  stop-color="#2e2e48"/>
    <stop offset="100%" stop-color="#08080e"/>
  </linearGradient>
  <!-- Blade tip brightening -->
  <linearGradient id="bladeTipr1x9290" x1="0%" y1="100%" x2="0%" y2="0%">
    <stop offset="0%"   stop-color="rgba(255,255,255,0)"/>
    <stop offset="55%"  stop-color="rgba(255,255,255,.1)"/>
    <stop offset="100%" stop-color="rgba(255,255,255,.55)"/>
  </linearGradient>
  <!-- Gunmetal anodised — blaster body -->
  <linearGradient id="gunmetalr1x9290" x1="0%" y1="0%" x2="0%" y2="100%">
    <stop offset="0%"   stop-color="#46465e"/>
    <stop offset="18%"  stop-color="#828296"/>
    <stop offset="42%"  stop-color="#26263a"/>
    <stop offset="72%"  stop-color="#16162a"/>
    <stop offset="100%" stop-color="#0c0c18"/>
  </linearGradient>
  <!-- Brushed steel tube — barrel/rod -->
  <linearGradient id="barrelr1x9290" x1="0%" y1="0%" x2="100%" y2="0%">
    <stop offset="0%"   stop-color="#0a0a14"/>
    <stop offset="24%"  stop-color="#585875"/>
    <stop offset="50%"  stop-color="#a8a8c8"/>
    <stop offset="76%"  stop-color="#383852"/>
    <stop offset="100%" stop-color="#0a0a14"/>
  </linearGradient>
  <!-- Chrome rod — lance shaft -->
  <linearGradient id="chromer1x9290" x1="0%" y1="0%" x2="100%" y2="0%">
    <stop offset="0%"   stop-color="#0c0c18"/>
    <stop offset="20%"  stop-color="#686888"/>
    <stop offset="44%"  stop-color="#e0e0f0"/>
    <stop offset="56%"  stop-color="#c0c0d8"/>
    <stop offset="80%"  stop-color="#28283e"/>
    <stop offset="100%" stop-color="#0c0c18"/>
  </linearGradient>
  <!-- Titanium plate — shield face -->
  <linearGradient id="titaniumr1x9290" x1="0%" y1="0%" x2="100%" y2="100%">
    <stop offset="0%"   stop-color="#585878"/>
    <stop offset="28%"  stop-color="#2060ff" stop-opacity=".88"/>
    <stop offset="55%"  stop-color="#003ccc"/>
    <stop offset="80%"  stop-color="#181828"/>
    <stop offset="100%" stop-color="#0a0a18"/>
  </linearGradient>
  <!-- Artillery black-chrome — cannon body -->
  <linearGradient id="artilleryr1x9290" x1="0%" y1="0%" x2="0%" y2="100%">
    <stop offset="0%"   stop-color="#383850"/>
    <stop offset="14%"  stop-color="#78789a"/>
    <stop offset="36%"  stop-color="#202034"/>
    <stop offset="65%"  stop-color="#14141e"/>
    <stop offset="100%" stop-color="#0a0a12"/>
  </linearGradient>
  <!-- Energy orb — staff -->
  <radialGradient id="orbr1x9290" cx="35%" cy="35%" r="65%">
    <stop offset="0%"   stop-color="rgba(255,255,255,.9)"/>
    <stop offset="30%"  stop-color="#2060ff"/>
    <stop offset="68%"  stop-color="#003ccc"/>
    <stop offset="100%" stop-color="rgba(0,0,0,.6)"/>
  </radialGradient>
  <!-- Knuckle plate chrome -->
  <linearGradient id="knuckler1x9290" x1="0%" y1="0%" x2="0%" y2="100%">
    <stop offset="0%"   stop-color="#888aaa"/>
    <stop offset="32%"  stop-color="#2060ff" stop-opacity=".8"/>
    <stop offset="62%"  stop-color="#1a1a2c"/>
    <stop offset="100%" stop-color="#0a0a14"/>
  </linearGradient>

  <!-- Carbon fibre weave texture overlay -->
  <pattern id="carbonr1x9290" width="6" height="6" patternUnits="userSpaceOnUse">
    <rect width="6" height="6" fill="rgba(0,0,0,.08)"/>
    <rect x="0" y="0" width="3" height="3" fill="rgba(255,255,255,.022)"/>
    <rect x="3" y="3" width="3" height="3" fill="rgba(255,255,255,.022)"/>
    <line x1="0" y1="0" x2="3" y2="3" stroke="rgba(255,255,255,.038)" stroke-width=".5"/>
    <line x1="3" y1="0" x2="6" y2="3" stroke="rgba(0,0,0,.055)"       stroke-width=".5"/>
    <line x1="0" y1="3" x2="3" y2="6" stroke="rgba(0,0,0,.055)"       stroke-width=".5"/>
    <line x1="3" y1="3" x2="6" y2="6" stroke="rgba(255,255,255,.038)" stroke-width=".5"/>
  </pattern>

  <!-- Specular metal sheen on armour panels -->
  <filter id="metalr1x9290" x="-5%" y="-5%" width="110%" height="110%">
    <feSpecularLighting surfaceScale="4" specularConstant="1.8"
        specularExponent="42" lighting-color="#ffffff" result="spec">
      <feDistantLight elevation="52" azimuth="38"/>
    </feSpecularLighting>
    <feComposite in="spec" in2="SourceGraphic" operator="in" result="sm"/>
    <feComposite in="SourceGraphic" in2="sm" operator="arithmetic" k1="0" k2="1" k3="0.55" k4="0"/>
  </filter>

  <!-- Sharper specular for weapons — heavier glare -->
  <filter id="wmr1x9290" x="-8%" y="-8%" width="116%" height="116%">
    <feSpecularLighting surfaceScale="6" specularConstant="2.4"
        specularExponent="65" lighting-color="#ffffff" result="spec">
      <feDistantLight elevation="44" azimuth="28"/>
    </feSpecularLighting>
    <feComposite in="spec" in2="SourceGraphic" operator="in" result="sm"/>
    <feComposite in="SourceGraphic" in2="sm" operator="arithmetic" k1="0" k2="1" k3="0.78" k4="0"/>
  </filter>

  <!-- Sketch wobble -->
  <filter id="skr1x9290" x="-8%" y="-8%" width="116%" height="116%">
    <feTurbulence type="fractalNoise" baseFrequency="0.038"
        numOctaves="3" seed="11" result="noise"/>
    <feDisplacementMap in="SourceGraphic" in2="noise" scale="2.6"
        xChannelSelector="R" yChannelSelector="G" result="w"/>
    <feComposite in="w" in2="SourceGraphic" operator="atop"/>
  </filter>

  <!-- Glow: sharp accent -->
  <filter id="glowr1x9290" x="-20%" y="-20%" width="140%" height="140%">
    <feGaussianBlur stdDeviation="3.5" result="b"/>
    <feColorMatrix in="b" type="matrix"
        values="0 0 0 0 1  0 0 0 0 1  0 0 0 0 1  0 0 0 1.8 0" result="boost"/>
    <feMerge><feMergeNode in="boost"/><feMergeNode in="SourceGraphic"/></feMerge>
  </filter>

  <!-- Bloom: wide soft -->
  <filter id="bloomr1x9290" x="-40%" y="-40%" width="180%" height="180%">
    <feGaussianBlur stdDeviation="11" result="b"/>
    <feMerge><feMergeNode in="b"/><feMergeNode in="SourceGraphic"/></feMerge>
  </filter>

  </defs><rect width="1000" height="1000" fill="url(#bgr1x9290)"/><ellipse cx="500.0" cy="892.0" rx="350.0" ry="65.0" fill="rgba(0,0,0,.7)" filter="url(#bloomr1x9290)"/><ellipse cx="500.0" cy="889.0" rx="220.0" ry="34.0" fill="rgba(0,0,0,.45)"/><ellipse cx="500.0" cy="520.0" rx="320.0" ry="480.0" fill="#6600ff" fill-opacity=".042" filter="url(#bloomr1x9290)"/><circle cx="686.2" cy="353.5" r="0.7" fill="#6600ff" fill-opacity="0.66" filter="url(#glowr1x9290)"/><circle cx="628.8" cy="488.6" r="0.9" fill="#6600ff" fill-opacity="0.88" filter="url(#glowr1x9290)"/><circle cx="256.1" cy="690.4" r="2.7" fill="#6600ff" fill-opacity="0.72" filter="url(#glowr1x9290)"/><circle cx="485.8" cy="602.5" r="2.3" fill="#6600ff" fill-opacity="0.74" filter="url(#glowr1x9290)"/><circle cx="580.8" cy="433.7" r="1.2" fill="#6600ff" fill-opacity="0.61" filter="url(#glowr1x9290)"/><circle cx="418.2" cy="648.8" r="2.0" fill="#6600ff" fill-opacity="0.83" filter="url(#glowr1x9290)"/><circle cx="288.7" cy="549.3" r="1.8" fill="#6600ff" fill-opacity="0.59" filter="url(#glowr1x9290)"/><circle cx="566.4" cy="652.3" r="1.6" fill="#6600ff" fill-opacity="0.75" filter="url(#glowr1x9290)"/><circle cx="516.5" cy="365.8" r="2.5" fill="#6600ff" fill-opacity="0.84" filter="url(#glowr1x9290)"/><circle cx="655.3" cy="196.8" r="1.6" fill="#6600ff" fill-opacity="0.55" filter="url(#glowr1x9290)"/><circle cx="692.2" cy="271.3" r="3.0" fill="#6600ff" fill-opacity="0.52" filter="url(#glowr1x9290)"/><circle cx="541.7" cy="211.8" r="1.3" fill="#6600ff" fill-opacity="0.63" filter="url(#glowr1x9290)"/><circle cx="331.2" cy="339.2" r="2.2" fill="#6600ff" fill-opacity="0.72" filter="url(#glowr1x9290)"/><circle cx="590.5" cy="671.4" r="2.0" fill="#6600ff" fill-opacity="0.57" filter="url(#glowr1x9290)"/><polygon points="398.3,663.5 489.7,663.7 481.7,879.1 386.4,878.3" fill="url(#suitr1x9290)" stroke="#2060ff" stroke-width="2.2" filter="url(#skr1x9290) url(#metalr1x9290)"/><polygon points="397.1,661.9 489.1,663.9 479.7,876.3 388.3,878.5" fill="url(#carbonr1x9290)"/><polygon points="392.1,724.6 492.4,722.7 483.1,787.2 383.6,786.5" fill="url(#bevelr1x9290)" fill-opacity=".5" stroke="#2060ff" stroke-width="1.4" filter="url(#skr1x9290)"/><polygon points="512.3,663.7 599.9,661.4 611.7,876.6 519.4,877.6" fill="url(#suitr1x9290)" stroke="#2060ff" stroke-width="2.2" filter="url(#skr1x9290) url(#metalr1x9290)"/><polygon points="512.0,663.0 601.8,662.1 613.2,877.3 520.2,876.3" fill="url(#carbonr1x9290)"/><polygon points="506.6,724.1 606.0,725.0 615.9,787.8 514.9,789.0" fill="url(#bevelr1x9290)" fill-opacity=".5" stroke="#2060ff" stroke-width="1.4" filter="url(#skr1x9290)"/><rect x="394.2" y="837.7" width="100.3" height="24.7" fill="url(#bevelr1x9290)" stroke="#2060ff" stroke-width="1" filter="url(#skr1x9290)"/><rect x="505.6"  y="837.2" width="100.3" height="24.7" fill="url(#bevelr1x9290)" stroke="#2060ff" stroke-width="1" filter="url(#skr1x9290)"/><polygon points="368.5,876.0 497.1,879.3 501.9,921.9 362.1,922.8" fill="#003ccc" stroke="#2060ff" stroke-width="2" filter="url(#skr1x9290)"/><polygon points="502.1,877.1 631.0,878.3 636.9,923.1 494.7,923.1" fill="#003ccc" stroke="#2060ff" stroke-width="2" filter="url(#skr1x9290)"/><polygon points="303.9,632.4 696.4,633.0 636.2,683.4 362.6,681.2" fill="#2060ff" fill-opacity=".52" stroke="#2060ff" stroke-width="2" filter="url(#skr1x9290)"/><rect x="464.6" y="638.3" width="72.0" height="42.0" fill="url(#bevelr1x9290)" stroke="#2060ff" stroke-width="1.4" filter="url(#glowr1x9290)"/><rect x="486.3" y="639.1" width="28.0" height="22.0" rx="1" fill="rgba(255,255,255,.48)"/><polygon points="152.4,467.5 234.9,465.2 256.2,736.2 128.1,733.7" fill="url(#suitr1x9290)" stroke="#2060ff" stroke-width="2.2" filter="url(#skr1x9290) url(#metalr1x9290)"/><polygon points="174.9,432.1 253.3,432.6 244.3,511.1 160.7,509.6" fill="url(#bevelr1x9290)" fill-opacity=".72" stroke="#2060ff" stroke-width="2.2" filter="url(#skr1x9290)"/><polygon points="159.9,620.9 244.1,620.5 237.6,661.7 165.0,662.0" fill="#2060ff" fill-opacity=".42" stroke="#2060ff" stroke-width="1" filter="url(#skr1x9290)"/><polygon points="763.4,466.4 848.7,465.3 872.5,734.3 741.1,734.4" fill="url(#suitr1x9290)" stroke="#2060ff" stroke-width="2.2" filter="url(#skr1x9290) url(#metalr1x9290)"/><polygon points="747.1,433.0 826.5,433.5 839.5,511.1 757.2,509.7" fill="url(#bevelr1x9290)" fill-opacity=".72" stroke="#2060ff" stroke-width="2.2" filter="url(#skr1x9290)"/><polygon points="756.3,620.3 838.6,622.1 836.2,661.8 760.9,662.6" fill="#2060ff" fill-opacity=".42" stroke="#2060ff" stroke-width="1" filter="url(#skr1x9290)"/><rect x="120.2"  y="699.2" width="135.3" height="85.0" rx="4" fill="url(#bevelr1x9290)" stroke="#2060ff" stroke-width="1.8" filter="url(#skr1x9290)"/><rect x="747.6"   y="699.0" width="135.3" height="85.0" rx="4" fill="url(#bevelr1x9290)" stroke="#2060ff" stroke-width="1.8" filter="url(#skr1x9290)"/><line x1="149.9" y1="703.6" x2="150.8" y2="783.6" stroke="#2060ff" stroke-opacity=".38" stroke-width="1"/><line x1="778.2" y1="701.6" x2="776.6" y2="782.4" stroke="#2060ff" stroke-opacity=".38" stroke-width="1"/><line x1="181.8" y1="700.7" x2="183.8" y2="785.0" stroke="#2060ff" stroke-opacity=".38" stroke-width="1"/><line x1="809.7" y1="701.5" x2="811.8" y2="784.3" stroke="#2060ff" stroke-opacity=".38" stroke-width="1"/><line x1="216.5" y1="703.2" x2="215.2" y2="785.2" stroke="#2060ff" stroke-opacity=".38" stroke-width="1"/><line x1="841.9" y1="700.9" x2="844.1" y2="782.9" stroke="#2060ff" stroke-opacity=".38" stroke-width="1"/><polygon points="234.7,418.0 766.5,415.9 720.9,663.1 278.9,662.7" fill="url(#suitr1x9290)" stroke="#2060ff" stroke-width="2.6" filter="url(#skr1x9290) url(#metalr1x9290)"/><polygon points="233.9,416.0 766.2,417.6 721.5,663.3 276.8,663.6" fill="url(#carbonr1x9290)"/><polygon points="368.5,416.6 633.9,417.1 612.9,514.7 389.3,515.7" fill="url(#suitHir1x9290)"/><line x1="362.7" y1="472.3" x2="636.5" y2="470.8" stroke="#2060ff" stroke-opacity=".52" stroke-width="1.3" filter="url(#skr1x9290)"/><line x1="398.3" y1="548.6" x2="601.2" y2="550.2" stroke="#2060ff" stroke-opacity=".52" stroke-width="1.3" filter="url(#skr1x9290)"/><line x1="266.9" y1="492.0" x2="320.5" y2="492.3" stroke="#2060ff" stroke-opacity=".62" stroke-width="1.8"/><line x1="680.9" y1="490.3" x2="733.2" y2="492.4" stroke="#2060ff" stroke-opacity=".62" stroke-width="1.8"/><line x1="266.9" y1="521.5" x2="319.7" y2="521.8" stroke="#2060ff" stroke-opacity=".62" stroke-width="1.8"/><line x1="680.6" y1="523.3" x2="733.3" y2="524.4" stroke="#2060ff" stroke-opacity=".62" stroke-width="1.8"/><line x1="268.3" y1="553.5" x2="319.5" y2="553.9" stroke="#2060ff" stroke-opacity=".62" stroke-width="1.8"/><line x1="679.1" y1="553.1" x2="732.1" y2="553.5" stroke="#2060ff" stroke-opacity=".62" stroke-width="1.8"/><line x1="265.8" y1="587.1" x2="321.5" y2="586.2" stroke="#2060ff" stroke-opacity=".62" stroke-width="1.8"/><line x1="681.2" y1="587.1" x2="732.0" y2="586.1" stroke="#2060ff" stroke-opacity=".62" stroke-width="1.8"/><g filter="url(#glowr1x9290)"><polygon points="481.8,452.7 513.8,507.4 499.8,506.5 518.5,569.3 487.7,513.5 498.3,516.3" fill="#2060ff" stroke="#050508" stroke-width="1.4" filter="url(#skr1x9290)"/><polygon points="482.2,453.7 512.0,506.8 501.7,506.3 516.2,570.0 486.7,515.7 501.8,515.4" fill="url(#suitHir1x9290)" opacity=".4"/></g><g><rect x="115.6" y="703.3" width="137.8" height="88.0" rx="5" fill="url(#bevelr1x9290)" stroke="#2060ff" stroke-width="2" filter="url(#wmr1x9290)"/><rect x="116.9" y="701.7" width="137.8" height="88.0" rx="5" fill="url(#carbonr1x9290)"/><rect x="747.8"  y="702.0" width="137.8" height="88.0" rx="5" fill="url(#bevelr1x9290)" stroke="#2060ff" stroke-width="2" filter="url(#wmr1x9290)"/><rect x="748.3"  y="702.5" width="137.8" height="88.0" rx="5" fill="url(#carbonr1x9290)"/><rect x="122.8" y="700.4" width="23.0" height="22.0" rx="2" fill="url(#knuckler1x9290)" stroke="#2060ff" stroke-width=".8" filter="url(#wmr1x9290)"/><rect x="755.5" y="698.6" width="23.0" height="22.0" rx="2" fill="url(#knuckler1x9290)" stroke="#2060ff" stroke-width=".8" filter="url(#wmr1x9290)"/><rect x="150.9" y="698.9" width="23.0" height="22.0" rx="2" fill="url(#knuckler1x9290)" stroke="#2060ff" stroke-width=".8" filter="url(#wmr1x9290)"/><rect x="785.2" y="698.4" width="23.0" height="22.0" rx="2" fill="url(#knuckler1x9290)" stroke="#2060ff" stroke-width=".8" filter="url(#wmr1x9290)"/><rect x="179.1" y="699.8" width="23.0" height="22.0" rx="2" fill="url(#knuckler1x9290)" stroke="#2060ff" stroke-width=".8" filter="url(#wmr1x9290)"/><rect x="812.8" y="700.6" width="23.0" height="22.0" rx="2" fill="url(#knuckler1x9290)" stroke="#2060ff" stroke-width=".8" filter="url(#wmr1x9290)"/><rect x="209.2" y="700.5" width="23.0" height="22.0" rx="2" fill="url(#knuckler1x9290)" stroke="#2060ff" stroke-width=".8" filter="url(#wmr1x9290)"/><rect x="844.5" y="701.4" width="23.0" height="22.0" rx="2" fill="url(#knuckler1x9290)" stroke="#2060ff" stroke-width=".8" filter="url(#wmr1x9290)"/><ellipse cx="184.33604301599786" cy="710.9859269138238" rx="45.1" ry="30.0" fill="#2060ff" fill-opacity=".25" filter="url(#glowr1x9290)"/><ellipse cx="815.8617456027494" cy="710.0973213593288" rx="45.1" ry="30.0" fill="#2060ff" fill-opacity=".25" filter="url(#glowr1x9290)"/></g><rect x="449.9373696601018" y="555.3815928164869" width="100.0"  height="56.0" fill="#003ccc" stroke="#2060ff" stroke-width="2.2" filter="url(#skr1x9290)"/><rect x="424.5330488865264" y="575.5340636859648" width="152.0" height="26.0" fill="url(#bevelr1x9290)" fill-opacity=".65" stroke="#2060ff" stroke-width="1.2" filter="url(#skr1x9290)"/><polygon points="309.5,380.3 351.7,293.0 499.4,278.1 648.9,293.0 693.7,380.4 667.2,503.7 499.9,563.9 330.3,502.8" fill="url(#suitr1x9290)" stroke="#2060ff" stroke-width="2.8" filter="url(#skr1x9290) url(#metalr1x9290)"/><polygon points="308.3,380.9 348.8,295.2 500.4,277.6 649.2,293.3 692.7,381.5 668.3,504.7 501.0,565.5 331.5,503.4" fill="url(#carbonr1x9290)"/><polygon points="380.1,302.0 499.7,285.0 620.6,303.3 606.1,380.7 393.2,381.1" fill="url(#suitHir1x9290)"/><polygon points="379.5,379.7 366.6,426.5 434.3,502.2 501.5,528.0 566.4,502.3 635.6,425.0 617.7,380.2" fill="#050508" fill-opacity=".88" stroke="#2060ff" stroke-width="1.8" filter="url(#skr1x9290)"/><polygon points="379.5,410.6 476.2,411.2 484.9,438.9 389.0,440.7" fill="#2060ff" filter="url(#glowr1x9290)"/><polygon points="524.5,412.5 619.2,410.9 610.8,439.7 515.3,440.5" fill="#2060ff" filter="url(#glowr1x9290)"/><ellipse cx="430.9" cy="425.7" rx="38.4"  ry="8.2" fill="#ffffff" opacity=".88"/><ellipse cx="569.1" cy="425.7" rx="38.4"  ry="8.2" fill="#ffffff" opacity=".88"/><line x1="485.95245318930597" y1="411.8814604913816" x2="516.2209617821873" y2="412.98353288238866" stroke="#2060ff" stroke-opacity=".52" stroke-width="2"/><line x1="485.2343102126941" y1="439.26125457007436" x2="514.0239892078005" y2="437.15419831629845" stroke="#2060ff" stroke-opacity=".52" stroke-width="2"/><line x1="501.65376220606265" y1="453.34701698264104" x2="499.7160987830721" y2="481.5821210859344" stroke="#2060ff" stroke-opacity=".58" stroke-width="2.2" filter="url(#skr1x9290)"/><line x1="452.1303499078192" y1="490.205765405111" x2="452.83262423433365" y2="519.2696836568415" stroke="#2060ff" stroke-opacity=".52" stroke-width="1.5" filter="url(#skr1x9290)"/><line x1="475.7971547969058" y1="490.7300270404666" x2="477.2247472396493" y2="521.6392759740353" stroke="#2060ff" stroke-opacity=".52" stroke-width="1.5" filter="url(#skr1x9290)"/><line x1="499.2501707849093" y1="492.1659103924408" x2="501.0270884652622" y2="520.322235437017" stroke="#2060ff" stroke-opacity=".52" stroke-width="1.5" filter="url(#skr1x9290)"/><line x1="523.0395874636806" y1="491.2241286972537" x2="522.2583453833684" y2="520.6443381298334" stroke="#2060ff" stroke-opacity=".52" stroke-width="1.5" filter="url(#skr1x9290)"/><line x1="545.7508392099478" y1="492.16823588106774" x2="546.8096481336468" y2="521.1028646124527" stroke="#2060ff" stroke-opacity=".52" stroke-width="1.5" filter="url(#skr1x9290)"/><polygon points="432.9,504.8 568.5,503.2 552.2,558.5 444.6,557.0" fill="#003ccc" fill-opacity=".72" stroke="#2060ff" stroke-width="1.3" filter="url(#skr1x9290)"/><polygon points="316.0,304.3 362.3,306.4 338.0,195.2" fill="url(#bevelr1x9290)" fill-opacity=".95" stroke="#2060ff" stroke-width="1.6" filter="url(#skr1x9290) url(#glowr1x9290)"/><polygon points="398.0,303.7 441.1,304.5 420.2,208.0" fill="url(#bevelr1x9290)" fill-opacity=".95" stroke="#2060ff" stroke-width="1.6" filter="url(#skr1x9290) url(#glowr1x9290)"/><polygon points="476.1,303.7 522.2,304.5 498.8,223.4" fill="url(#bevelr1x9290)" fill-opacity=".95" stroke="#2060ff" stroke-width="1.6" filter="url(#skr1x9290) url(#glowr1x9290)"/><polygon points="557.3,305.8 604.0,303.1 581.4,207.0" fill="url(#bevelr1x9290)" fill-opacity=".95" stroke="#2060ff" stroke-width="1.6" filter="url(#skr1x9290) url(#glowr1x9290)"/><polygon points="638.9,304.9 683.3,306.5 662.6,196.1" fill="url(#bevelr1x9290)" fill-opacity=".95" stroke="#2060ff" stroke-width="1.6" filter="url(#skr1x9290) url(#glowr1x9290)"/><text x="30.0"  y="975.0" font-family="monospace" font-weight="bold" font-size="22.0" fill="rgba(255,255,255,.22)">#0001</text><text x="500.0"   y="975.0" text-anchor="middle" font-family="monospace" font-weight="bold" font-size="22.0" fill="#2060ff" fill-opacity=".48">COBALT RANGER</text><text x="970.0" y="975.0" text-anchor="end"    font-family="monospace" font-weight="bold" font-size="22.0" fill="#2060ff" fill-opacity=".32">MECH RANGERS</text></svg>