<svg xmlns="http://www.w3.org/2000/svg" viewBox="0 0 1000 1000" width="1000" height="1000" shape-rendering="geometricPrecision"><defs>

  <!-- Scene gradients -->
  <radialGradient id="bgr1x9293" cx="50%" cy="42%" r="72%">
    <stop offset="0%"   stop-color="#0a0a14"/>
    <stop offset="100%" stop-color="#050508"/>
  </radialGradient>
  <linearGradient id="suitr1x9293" x1="8%" y1="0%" x2="92%" y2="100%">
    <stop offset="0%"   stop-color="#ffd700" stop-opacity=".95"/>
    <stop offset="45%"  stop-color="#503400"/>
    <stop offset="100%" stop-color="#050508"/>
  </linearGradient>
  <linearGradient id="suitHir1x9293" x1="0%" y1="0%" x2="0%" y2="100%">
    <stop offset="0%"   stop-color="rgba(255,255,255,.28)"/>
    <stop offset="60%"  stop-color="rgba(255,255,255,.04)"/>
    <stop offset="100%" stop-color="rgba(255,255,255,0)"/>
  </linearGradient>
  <!-- Bevel: bright top, dark bottom for armour panels -->
  <linearGradient id="bevelr1x9293" x1="0%" y1="0%" x2="0%" y2="100%">
    <stop offset="0%"   stop-color="rgba(255,255,255,.55)"/>
    <stop offset="30%"  stop-color="#ffd700"/>
    <stop offset="70%"  stop-color="#503400"/>
    <stop offset="100%" stop-color="rgba(0,0,0,.5)"/>
  </linearGradient>

  <!-- Weapon: cold steel blade sweep -->
  <linearGradient id="blader1x9293" x1="0%" y1="0%" x2="100%" y2="0%">
    <stop offset="0%"   stop-color="#0e0e20"/>
    <stop offset="16%"  stop-color="#3e3e58"/>
    <stop offset="34%"  stop-color="#c8c8e0"/>
    <stop offset="50%"  stop-color="#f5f5ff"/>
    <stop offset="66%"  stop-color="#b8b8d0"/>
    <stop offset="84%"  stop-color="#2e2e48"/>
    <stop offset="100%" stop-color="#08080e"/>
  </linearGradient>
  <!-- Blade tip brightening -->
  <linearGradient id="bladeTipr1x9293" x1="0%" y1="100%" x2="0%" y2="0%">
    <stop offset="0%"   stop-color="rgba(255,255,255,0)"/>
    <stop offset="55%"  stop-color="rgba(255,255,255,.1)"/>
    <stop offset="100%" stop-color="rgba(255,255,255,.55)"/>
  </linearGradient>
  <!-- Gunmetal anodised — blaster body -->
  <linearGradient id="gunmetalr1x9293" x1="0%" y1="0%" x2="0%" y2="100%">
    <stop offset="0%"   stop-color="#46465e"/>
    <stop offset="18%"  stop-color="#828296"/>
    <stop offset="42%"  stop-color="#26263a"/>
    <stop offset="72%"  stop-color="#16162a"/>
    <stop offset="100%" stop-color="#0c0c18"/>
  </linearGradient>
  <!-- Brushed steel tube — barrel/rod -->
  <linearGradient id="barrelr1x9293" x1="0%" y1="0%" x2="100%" y2="0%">
    <stop offset="0%"   stop-color="#0a0a14"/>
    <stop offset="24%"  stop-color="#585875"/>
    <stop offset="50%"  stop-color="#a8a8c8"/>
    <stop offset="76%"  stop-color="#383852"/>
    <stop offset="100%" stop-color="#0a0a14"/>
  </linearGradient>
  <!-- Chrome rod — lance shaft -->
  <linearGradient id="chromer1x9293" x1="0%" y1="0%" x2="100%" y2="0%">
    <stop offset="0%"   stop-color="#0c0c18"/>
    <stop offset="20%"  stop-color="#686888"/>
    <stop offset="44%"  stop-color="#e0e0f0"/>
    <stop offset="56%"  stop-color="#c0c0d8"/>
    <stop offset="80%"  stop-color="#28283e"/>
    <stop offset="100%" stop-color="#0c0c18"/>
  </linearGradient>
  <!-- Titanium plate — shield face -->
  <linearGradient id="titaniumr1x9293" x1="0%" y1="0%" x2="100%" y2="100%">
    <stop offset="0%"   stop-color="#585878"/>
    <stop offset="28%"  stop-color="#ffd700" stop-opacity=".88"/>
    <stop offset="55%"  stop-color="#503400"/>
    <stop offset="80%"  stop-color="#181828"/>
    <stop offset="100%" stop-color="#0a0a18"/>
  </linearGradient>
  <!-- Artillery black-chrome — cannon body -->
  <linearGradient id="artilleryr1x9293" x1="0%" y1="0%" x2="0%" y2="100%">
    <stop offset="0%"   stop-color="#383850"/>
    <stop offset="14%"  stop-color="#78789a"/>
    <stop offset="36%"  stop-color="#202034"/>
    <stop offset="65%"  stop-color="#14141e"/>
    <stop offset="100%" stop-color="#0a0a12"/>
  </linearGradient>
  <!-- Energy orb — staff -->
  <radialGradient id="orbr1x9293" cx="35%" cy="35%" r="65%">
    <stop offset="0%"   stop-color="rgba(255,255,255,.9)"/>
    <stop offset="30%"  stop-color="#ffd700"/>
    <stop offset="68%"  stop-color="#503400"/>
    <stop offset="100%" stop-color="rgba(0,0,0,.6)"/>
  </radialGradient>
  <!-- Knuckle plate chrome -->
  <linearGradient id="knuckler1x9293" x1="0%" y1="0%" x2="0%" y2="100%">
    <stop offset="0%"   stop-color="#888aaa"/>
    <stop offset="32%"  stop-color="#ffd700" stop-opacity=".8"/>
    <stop offset="62%"  stop-color="#1a1a2c"/>
    <stop offset="100%" stop-color="#0a0a14"/>
  </linearGradient>

  <!-- Carbon fibre weave texture overlay -->
  <pattern id="carbonr1x9293" width="6" height="6" patternUnits="userSpaceOnUse">
    <rect width="6" height="6" fill="rgba(0,0,0,.08)"/>
    <rect x="0" y="0" width="3" height="3" fill="rgba(255,255,255,.022)"/>
    <rect x="3" y="3" width="3" height="3" fill="rgba(255,255,255,.022)"/>
    <line x1="0" y1="0" x2="3" y2="3" stroke="rgba(255,255,255,.038)" stroke-width=".5"/>
    <line x1="3" y1="0" x2="6" y2="3" stroke="rgba(0,0,0,.055)"       stroke-width=".5"/>
    <line x1="0" y1="3" x2="3" y2="6" stroke="rgba(0,0,0,.055)"       stroke-width=".5"/>
    <line x1="3" y1="3" x2="6" y2="6" stroke="rgba(255,255,255,.038)" stroke-width=".5"/>
  </pattern>

  <!-- Specular metal sheen on armour panels -->
  <filter id="metalr1x9293" x="-5%" y="-5%" width="110%" height="110%">
    <feSpecularLighting surfaceScale="4" specularConstant="1.8"
        specularExponent="42" lighting-color="#ffffff" result="spec">
      <feDistantLight elevation="52" azimuth="38"/>
    </feSpecularLighting>
    <feComposite in="spec" in2="SourceGraphic" operator="in" result="sm"/>
    <feComposite in="SourceGraphic" in2="sm" operator="arithmetic" k1="0" k2="1" k3="0.55" k4="0"/>
  </filter>

  <!-- Sharper specular for weapons — heavier glare -->
  <filter id="wmr1x9293" x="-8%" y="-8%" width="116%" height="116%">
    <feSpecularLighting surfaceScale="6" specularConstant="2.4"
        specularExponent="65" lighting-color="#ffffff" result="spec">
      <feDistantLight elevation="44" azimuth="28"/>
    </feSpecularLighting>
    <feComposite in="spec" in2="SourceGraphic" operator="in" result="sm"/>
    <feComposite in="SourceGraphic" in2="sm" operator="arithmetic" k1="0" k2="1" k3="0.78" k4="0"/>
  </filter>

  <!-- Sketch wobble -->
  <filter id="skr1x9293" x="-8%" y="-8%" width="116%" height="116%">
    <feTurbulence type="fractalNoise" baseFrequency="0.038"
        numOctaves="3" seed="30" result="noise"/>
    <feDisplacementMap in="SourceGraphic" in2="noise" scale="2.6"
        xChannelSelector="R" yChannelSelector="G" result="w"/>
    <feComposite in="w" in2="SourceGraphic" operator="atop"/>
  </filter>

  <!-- Glow: sharp accent -->
  <filter id="glowr1x9293" x="-20%" y="-20%" width="140%" height="140%">
    <feGaussianBlur stdDeviation="3.5" result="b"/>
    <feColorMatrix in="b" type="matrix"
        values="0 0 0 0 1  0 0 0 0 1  0 0 0 0 1  0 0 0 1.8 0" result="boost"/>
    <feMerge><feMergeNode in="boost"/><feMergeNode in="SourceGraphic"/></feMerge>
  </filter>

  <!-- Bloom: wide soft -->
  <filter id="bloomr1x9293" x="-40%" y="-40%" width="180%" height="180%">
    <feGaussianBlur stdDeviation="11" result="b"/>
    <feMerge><feMergeNode in="b"/><feMergeNode in="SourceGraphic"/></feMerge>
  </filter>

  </defs><rect width="1000" height="1000" fill="url(#bgr1x9293)"/><ellipse cx="500.0" cy="892.0" rx="350.0" ry="65.0" fill="rgba(0,0,0,.7)" filter="url(#bloomr1x9293)"/><ellipse cx="500.0" cy="889.0" rx="220.0" ry="34.0" fill="rgba(0,0,0,.45)"/><ellipse cx="500.0" cy="520.0" rx="320.0" ry="480.0" fill="#ffffff" fill-opacity=".042" filter="url(#bloomr1x9293)"/><circle cx="404.9" cy="738.5" r="2.9" fill="#ffffff" fill-opacity="0.85" filter="url(#glowr1x9293)"/><circle cx="388.7" cy="243.7" r="3.7" fill="#ffffff" fill-opacity="0.86" filter="url(#glowr1x9293)"/><circle cx="593.5" cy="715.4" r="3.1" fill="#ffffff" fill-opacity="0.43" filter="url(#glowr1x9293)"/><circle cx="477.7" cy="562.8" r="2.5" fill="#ffffff" fill-opacity="0.86" filter="url(#glowr1x9293)"/><circle cx="297.9" cy="260.2" r="4.3" fill="#ffffff" fill-opacity="0.44" filter="url(#glowr1x9293)"/><circle cx="391.3" cy="757.7" r="4.1" fill="#ffffff" fill-opacity="0.90" filter="url(#glowr1x9293)"/><circle cx="461.6" cy="199.5" r="3.9" fill="#ffffff" fill-opacity="0.89" filter="url(#glowr1x9293)"/><circle cx="612.7" cy="286.2" r="3.8" fill="#ffffff" fill-opacity="0.51" filter="url(#glowr1x9293)"/><circle cx="594.8" cy="604.6" r="3.4" fill="#ffffff" fill-opacity="0.39" filter="url(#glowr1x9293)"/><circle cx="653.4" cy="219.0" r="0.8" fill="#ffffff" fill-opacity="0.82" filter="url(#glowr1x9293)"/><circle cx="531.6" cy="196.2" r="4.0" fill="#ffffff" fill-opacity="0.68" filter="url(#glowr1x9293)"/><circle cx="544.4" cy="526.8" r="0.8" fill="#ffffff" fill-opacity="0.47" filter="url(#glowr1x9293)"/><circle cx="529.1" cy="494.8" r="1.5" fill="#ffffff" fill-opacity="0.64" filter="url(#glowr1x9293)"/><circle cx="712.8" cy="372.7" r="3.5" fill="#ffffff" fill-opacity="0.81" filter="url(#glowr1x9293)"/><polygon points="397.6,662.3 490.2,664.2 481.7,876.6 388.0,876.0" fill="url(#suitr1x9293)" stroke="#ffd700" stroke-width="2.2" filter="url(#skr1x9293) url(#metalr1x9293)"/><polygon points="400.0,662.6 487.8,661.4 481.4,876.1 388.0,877.5" fill="url(#carbonr1x9293)"/><polygon points="391.7,724.6 492.2,723.7 485.9,788.4 382.9,789.0" fill="url(#bevelr1x9293)" fill-opacity=".5" stroke="#ffd700" stroke-width="1.4" filter="url(#skr1x9293)"/><polygon points="511.7,662.9 600.3,663.6 611.1,876.9 519.1,878.8" fill="url(#suitr1x9293)" stroke="#ffd700" stroke-width="2.2" filter="url(#skr1x9293) url(#metalr1x9293)"/><polygon points="512.1,661.5 602.8,662.2 611.7,877.4 518.7,877.6" fill="url(#carbonr1x9293)"/><polygon points="507.4,722.8 607.8,724.4 617.4,787.2 514.1,788.8" fill="url(#bevelr1x9293)" fill-opacity=".5" stroke="#ffd700" stroke-width="1.4" filter="url(#skr1x9293)"/><rect x="392.4" y="840.2" width="100.3" height="24.7" fill="url(#bevelr1x9293)" stroke="#ffd700" stroke-width="1" filter="url(#skr1x9293)"/><rect x="506.7"  y="838.0" width="100.3" height="24.7" fill="url(#bevelr1x9293)" stroke="#ffd700" stroke-width="1" filter="url(#skr1x9293)"/><polygon points="369.4,877.4 496.2,879.3 504.1,921.2 363.8,920.9" fill="#503400" stroke="#ffd700" stroke-width="2" filter="url(#skr1x9293)"/><polygon points="502.4,876.8 629.0,879.0 635.7,922.7 497.1,920.3" fill="#503400" stroke="#ffd700" stroke-width="2" filter="url(#skr1x9293)"/><polygon points="302.2,632.2 696.5,632.7 636.3,682.5 363.4,681.0" fill="#ffd700" fill-opacity=".52" stroke="#ffd700" stroke-width="2" filter="url(#skr1x9293)"/><rect x="464.1" y="638.0" width="72.0" height="42.0" fill="url(#bevelr1x9293)" stroke="#ffd700" stroke-width="1.4" filter="url(#glowr1x9293)"/><rect x="486.3" y="639.5" width="28.0" height="22.0" rx="1" fill="rgba(255,255,255,.48)"/><polygon points="153.3,466.6 236.1,464.8 258.2,736.3 127.1,733.4" fill="url(#suitr1x9293)" stroke="#ffd700" stroke-width="2.2" filter="url(#skr1x9293) url(#metalr1x9293)"/><polygon points="171.8,430.9 252.3,433.5 244.1,510.1 159.2,510.9" fill="url(#bevelr1x9293)" fill-opacity=".72" stroke="#ffd700" stroke-width="2.2" filter="url(#skr1x9293)"/><polygon points="160.2,621.3 244.4,622.7 240.3,659.3 166.9,659.4" fill="#ffd700" fill-opacity=".42" stroke="#ffd700" stroke-width="1" filter="url(#skr1x9293)"/><polygon points="764.1,465.0 848.0,466.2 870.2,733.3 741.7,734.3" fill="url(#suitr1x9293)" stroke="#ffd700" stroke-width="2.2" filter="url(#skr1x9293) url(#metalr1x9293)"/><polygon points="748.6,431.0 826.0,433.3 842.1,512.3 756.3,511.2" fill="url(#bevelr1x9293)" fill-opacity=".72" stroke="#ffd700" stroke-width="2.2" filter="url(#skr1x9293)"/><polygon points="755.8,622.9 838.5,622.6 832.9,661.0 760.1,661.0" fill="#ffd700" fill-opacity=".42" stroke="#ffd700" stroke-width="1" filter="url(#skr1x9293)"/><rect x="121.4"  y="698.3" width="135.3" height="85.0" rx="4" fill="url(#bevelr1x9293)" stroke="#ffd700" stroke-width="1.8" filter="url(#skr1x9293)"/><rect x="747.3"   y="699.9" width="135.3" height="85.0" rx="4" fill="url(#bevelr1x9293)" stroke="#ffd700" stroke-width="1.8" filter="url(#skr1x9293)"/><line x1="148.2" y1="700.6" x2="149.4" y2="783.1" stroke="#ffd700" stroke-opacity=".38" stroke-width="1"/><line x1="776.4" y1="700.8" x2="776.6" y2="783.3" stroke="#ffd700" stroke-opacity=".38" stroke-width="1"/><line x1="183.3" y1="702.6" x2="182.9" y2="782.3" stroke="#ffd700" stroke-opacity=".38" stroke-width="1"/><line x1="811.9" y1="700.1" x2="810.9" y2="785.6" stroke="#ffd700" stroke-opacity=".38" stroke-width="1"/><line x1="214.3" y1="702.7" x2="215.2" y2="784.5" stroke="#ffd700" stroke-opacity=".38" stroke-width="1"/><line x1="845.4" y1="701.9" x2="844.7" y2="782.6" stroke="#ffd700" stroke-opacity=".38" stroke-width="1"/><polygon points="233.8,418.9 765.9,419.3 721.4,661.3 277.2,662.4" fill="url(#suitr1x9293)" stroke="#ffd700" stroke-width="2.6" filter="url(#skr1x9293) url(#metalr1x9293)"/><polygon points="235.5,416.5 766.1,416.2 720.9,660.9 278.6,662.2" fill="url(#carbonr1x9293)"/><polygon points="368.3,418.6 632.8,417.5 611.4,516.1 387.8,516.6" fill="url(#suitHir1x9293)"/><line x1="362.8" y1="473.0" x2="636.3" y2="473.2" stroke="#ffd700" stroke-opacity=".52" stroke-width="1.3" filter="url(#skr1x9293)"/><line x1="397.7" y1="549.2" x2="602.3" y2="548.4" stroke="#ffd700" stroke-opacity=".52" stroke-width="1.3" filter="url(#skr1x9293)"/><line x1="267.6" y1="491.8" x2="319.2" y2="492.6" stroke="#ffd700" stroke-opacity=".62" stroke-width="1.8"/><line x1="681.9" y1="490.7" x2="733.4" y2="491.2" stroke="#ffd700" stroke-opacity=".62" stroke-width="1.8"/><line x1="265.0" y1="521.8" x2="318.8" y2="524.0" stroke="#ffd700" stroke-opacity=".62" stroke-width="1.8"/><line x1="681.5" y1="521.2" x2="734.9" y2="521.7" stroke="#ffd700" stroke-opacity=".62" stroke-width="1.8"/><line x1="267.2" y1="556.5" x2="320.4" y2="554.5" stroke="#ffd700" stroke-opacity=".62" stroke-width="1.8"/><line x1="681.8" y1="554.2" x2="732.0" y2="553.9" stroke="#ffd700" stroke-opacity=".62" stroke-width="1.8"/><line x1="267.5" y1="585.1" x2="320.1" y2="588.1" stroke="#ffd700" stroke-opacity=".62" stroke-width="1.8"/><line x1="681.8" y1="584.9" x2="734.5" y2="586.4" stroke="#ffd700" stroke-opacity=".62" stroke-width="1.8"/><g filter="url(#glowr1x9293)"><polygon points="501.2,453.7 540.4,509.8 498.4,569.3 459.6,510.9" fill="#ffd700" stroke="#050508" stroke-width="1.4" filter="url(#skr1x9293)"/><polygon points="498.6,452.3 542.1,510.0 498.7,568.8 456.7,511.9" fill="url(#suitHir1x9293)" opacity=".45"/></g><g><polygon points="33.8,292.6 170.7,292.4 171.7,592.3 103.0,725.6 32.9,589.9" fill="url(#titaniumr1x9293)" stroke="#ffd700" stroke-width="2.6" filter="url(#wmr1x9293)"/><polygon points="31.2,293.3 171.0,292.8 171.8,590.2 103.1,724.8 31.0,590.8" fill="url(#carbonr1x9293)"/><polygon points="64.2,363.1 140.3,361.6 138.7,541.6 100.4,630.7 64.9,540.5" fill="#ffd700" fill-opacity=".28" stroke="#ffd700" stroke-width="1.5"/><line x1="51.94575390195471" y1="429.89667401947077" x2="154.32466627810146" y2="432.8890911578201" stroke="#ffd700" stroke-opacity=".65" stroke-width="1.3"/><line x1="100.69772126296532" y1="331.4669892371632" x2="101.89765206253153" y2="591.8868091981858" stroke="#ffd700" stroke-opacity=".4" stroke-width="1"/><line x1="33.91408683558923" y1="297.9963623321615" x2="171.33903207382184" y2="295.1069424985908" stroke="rgba(255,255,255,.5)" stroke-width="2"/><circle cx="101.65285700293255" cy="430.1697373836301" r="18.0" fill="url(#bevelr1x9293)" stroke="#ffd700" stroke-width="1.2" filter="url(#wmr1x9293)"/></g><rect x="449.13461153022945" y="557.2892982044257" width="100.0"  height="56.0" fill="#503400" stroke="#ffd700" stroke-width="2.2" filter="url(#skr1x9293)"/><rect x="425.4108649317175" y="576.7302447464317" width="152.0" height="26.0" fill="url(#bevelr1x9293)" fill-opacity=".65" stroke="#ffd700" stroke-width="1.2" filter="url(#skr1x9293)"/><polygon points="306.9,381.4 350.1,295.5 501.4,277.4 648.6,294.8 692.0,381.1 669.8,504.7 500.7,563.8 329.8,502.0" fill="url(#suitr1x9293)" stroke="#ffd700" stroke-width="2.8" filter="url(#skr1x9293) url(#metalr1x9293)"/><polygon points="306.3,380.1 351.8,296.2 501.4,278.7 649.7,293.0 691.7,379.4 667.9,505.4 501.6,566.2 331.8,504.3" fill="url(#carbonr1x9293)"/><polygon points="380.9,303.4 499.1,288.1 617.9,304.0 608.6,380.9 390.7,381.7" fill="url(#suitHir1x9293)"/><polygon points="379.8,379.4 365.3,425.8 432.4,504.1 500.0,528.7 567.3,502.1 636.1,424.8 619.8,382.3" fill="#050508" fill-opacity=".88" stroke="#ffd700" stroke-width="1.8" filter="url(#skr1x9293)"/><polygon points="381.6,410.0 477.1,412.9 483.0,439.5 389.2,440.5" fill="#ffd700" filter="url(#glowr1x9293)"/><polygon points="523.0,411.5 617.7,410.1 611.6,441.0 514.1,440.4" fill="#ffd700" filter="url(#glowr1x9293)"/><ellipse cx="430.9" cy="425.7" rx="38.4"  ry="8.2" fill="#ffffff" opacity=".88"/><ellipse cx="569.1" cy="425.7" rx="38.4"  ry="8.2" fill="#ffffff" opacity=".88"/><line x1="484.14388933345674" y1="413.56665021842343" x2="516.4999429409764" y2="414.9668127154" stroke="#ffd700" stroke-opacity=".52" stroke-width="2"/><line x1="484.8269386888109" y1="436.9062169667333" x2="514.8318509913422" y2="437.583378094621" stroke="#ffd700" stroke-opacity=".52" stroke-width="2"/><line x1="499.45526605229827" y1="455.1231500933878" x2="499.56789001058786" y2="482.33564819721505" stroke="#ffd700" stroke-opacity=".58" stroke-width="2.2" filter="url(#skr1x9293)"/><line x1="453.1382916930877" y1="492.48613955304023" x2="453.76217616198585" y2="520.6539138951339" stroke="#ffd700" stroke-opacity=".52" stroke-width="1.5" filter="url(#skr1x9293)"/><line x1="478.59746022162955" y1="491.03333013281224" x2="476.29619558820497" y2="518.3786132997833" stroke="#ffd700" stroke-opacity=".52" stroke-width="1.5" filter="url(#skr1x9293)"/><line x1="501.15577860493215" y1="491.8504998781718" x2="501.34284019591286" y2="518.7382492807694" stroke="#ffd700" stroke-opacity=".52" stroke-width="1.5" filter="url(#skr1x9293)"/><line x1="521.7416546257771" y1="492.15990820964794" x2="522.2516047180258" y2="520.0398201035335" stroke="#ffd700" stroke-opacity=".52" stroke-width="1.5" filter="url(#skr1x9293)"/><line x1="547.3195701238886" y1="492.4892654052935" x2="547.2347825112939" y2="521.4348585670814" stroke="#ffd700" stroke-opacity=".52" stroke-width="1.5" filter="url(#skr1x9293)"/><polygon points="431.1,503.8 567.8,502.6 552.8,556.5 446.6,556.9" fill="#503400" fill-opacity=".72" stroke="#ffd700" stroke-width="1.3" filter="url(#skr1x9293)"/><text x="30.0"  y="975.0" font-family="monospace" font-weight="bold" font-size="22.0" fill="rgba(255,255,255,.22)">#0001</text><text x="500.0"   y="975.0" text-anchor="middle" font-family="monospace" font-weight="bold" font-size="22.0" fill="#ffd700" fill-opacity=".48">IMPERIAL RANGER</text><text x="970.0" y="975.0" text-anchor="end"    font-family="monospace" font-weight="bold" font-size="22.0" fill="#ffd700" fill-opacity=".32">MECH RANGERS</text></svg>