<svg xmlns="http://www.w3.org/2000/svg" viewBox="0 0 1000 1000" width="1000" height="1000" shape-rendering="geometricPrecision"><defs>

  <!-- Scene gradients -->
  <radialGradient id="bgr1x9301" cx="50%" cy="42%" r="72%">
    <stop offset="0%"   stop-color="#001e1e"/>
    <stop offset="100%" stop-color="#0e001e"/>
  </radialGradient>
  <linearGradient id="suitr1x9301" x1="8%" y1="0%" x2="92%" y2="100%">
    <stop offset="0%"   stop-color="#ff2040" stop-opacity=".95"/>
    <stop offset="45%"  stop-color="#cc0020"/>
    <stop offset="100%" stop-color="#0e001e"/>
  </linearGradient>
  <linearGradient id="suitHir1x9301" x1="0%" y1="0%" x2="0%" y2="100%">
    <stop offset="0%"   stop-color="rgba(255,255,255,.28)"/>
    <stop offset="60%"  stop-color="rgba(255,255,255,.04)"/>
    <stop offset="100%" stop-color="rgba(255,255,255,0)"/>
  </linearGradient>
  <!-- Bevel: bright top, dark bottom for armour panels -->
  <linearGradient id="bevelr1x9301" x1="0%" y1="0%" x2="0%" y2="100%">
    <stop offset="0%"   stop-color="rgba(255,255,255,.55)"/>
    <stop offset="30%"  stop-color="#ff2040"/>
    <stop offset="70%"  stop-color="#cc0020"/>
    <stop offset="100%" stop-color="rgba(0,0,0,.5)"/>
  </linearGradient>

  <!-- Weapon: cold steel blade sweep -->
  <linearGradient id="blader1x9301" x1="0%" y1="0%" x2="100%" y2="0%">
    <stop offset="0%"   stop-color="#0e0e20"/>
    <stop offset="16%"  stop-color="#3e3e58"/>
    <stop offset="34%"  stop-color="#c8c8e0"/>
    <stop offset="50%"  stop-color="#f5f5ff"/>
    <stop offset="66%"  stop-color="#b8b8d0"/>
    <stop offset="84%"  stop-color="#2e2e48"/>
    <stop offset="100%" stop-color="#08080e"/>
  </linearGradient>
  <!-- Blade tip brightening -->
  <linearGradient id="bladeTipr1x9301" x1="0%" y1="100%" x2="0%" y2="0%">
    <stop offset="0%"   stop-color="rgba(255,255,255,0)"/>
    <stop offset="55%"  stop-color="rgba(255,255,255,.1)"/>
    <stop offset="100%" stop-color="rgba(255,255,255,.55)"/>
  </linearGradient>
  <!-- Gunmetal anodised — blaster body -->
  <linearGradient id="gunmetalr1x9301" x1="0%" y1="0%" x2="0%" y2="100%">
    <stop offset="0%"   stop-color="#46465e"/>
    <stop offset="18%"  stop-color="#828296"/>
    <stop offset="42%"  stop-color="#26263a"/>
    <stop offset="72%"  stop-color="#16162a"/>
    <stop offset="100%" stop-color="#0c0c18"/>
  </linearGradient>
  <!-- Brushed steel tube — barrel/rod -->
  <linearGradient id="barrelr1x9301" x1="0%" y1="0%" x2="100%" y2="0%">
    <stop offset="0%"   stop-color="#0a0a14"/>
    <stop offset="24%"  stop-color="#585875"/>
    <stop offset="50%"  stop-color="#a8a8c8"/>
    <stop offset="76%"  stop-color="#383852"/>
    <stop offset="100%" stop-color="#0a0a14"/>
  </linearGradient>
  <!-- Chrome rod — lance shaft -->
  <linearGradient id="chromer1x9301" x1="0%" y1="0%" x2="100%" y2="0%">
    <stop offset="0%"   stop-color="#0c0c18"/>
    <stop offset="20%"  stop-color="#686888"/>
    <stop offset="44%"  stop-color="#e0e0f0"/>
    <stop offset="56%"  stop-color="#c0c0d8"/>
    <stop offset="80%"  stop-color="#28283e"/>
    <stop offset="100%" stop-color="#0c0c18"/>
  </linearGradient>
  <!-- Titanium plate — shield face -->
  <linearGradient id="titaniumr1x9301" x1="0%" y1="0%" x2="100%" y2="100%">
    <stop offset="0%"   stop-color="#585878"/>
    <stop offset="28%"  stop-color="#ff2040" stop-opacity=".88"/>
    <stop offset="55%"  stop-color="#cc0020"/>
    <stop offset="80%"  stop-color="#181828"/>
    <stop offset="100%" stop-color="#0a0a18"/>
  </linearGradient>
  <!-- Artillery black-chrome — cannon body -->
  <linearGradient id="artilleryr1x9301" x1="0%" y1="0%" x2="0%" y2="100%">
    <stop offset="0%"   stop-color="#383850"/>
    <stop offset="14%"  stop-color="#78789a"/>
    <stop offset="36%"  stop-color="#202034"/>
    <stop offset="65%"  stop-color="#14141e"/>
    <stop offset="100%" stop-color="#0a0a12"/>
  </linearGradient>
  <!-- Energy orb — staff -->
  <radialGradient id="orbr1x9301" cx="35%" cy="35%" r="65%">
    <stop offset="0%"   stop-color="rgba(255,255,255,.9)"/>
    <stop offset="30%"  stop-color="#ff2040"/>
    <stop offset="68%"  stop-color="#cc0020"/>
    <stop offset="100%" stop-color="rgba(0,0,0,.6)"/>
  </radialGradient>
  <!-- Knuckle plate chrome -->
  <linearGradient id="knuckler1x9301" x1="0%" y1="0%" x2="0%" y2="100%">
    <stop offset="0%"   stop-color="#888aaa"/>
    <stop offset="32%"  stop-color="#ff2040" stop-opacity=".8"/>
    <stop offset="62%"  stop-color="#1a1a2c"/>
    <stop offset="100%" stop-color="#0a0a14"/>
  </linearGradient>

  <!-- Carbon fibre weave texture overlay -->
  <pattern id="carbonr1x9301" width="6" height="6" patternUnits="userSpaceOnUse">
    <rect width="6" height="6" fill="rgba(0,0,0,.08)"/>
    <rect x="0" y="0" width="3" height="3" fill="rgba(255,255,255,.022)"/>
    <rect x="3" y="3" width="3" height="3" fill="rgba(255,255,255,.022)"/>
    <line x1="0" y1="0" x2="3" y2="3" stroke="rgba(255,255,255,.038)" stroke-width=".5"/>
    <line x1="3" y1="0" x2="6" y2="3" stroke="rgba(0,0,0,.055)"       stroke-width=".5"/>
    <line x1="0" y1="3" x2="3" y2="6" stroke="rgba(0,0,0,.055)"       stroke-width=".5"/>
    <line x1="3" y1="3" x2="6" y2="6" stroke="rgba(255,255,255,.038)" stroke-width=".5"/>
  </pattern>

  <!-- Specular metal sheen on armour panels -->
  <filter id="metalr1x9301" x="-5%" y="-5%" width="110%" height="110%">
    <feSpecularLighting surfaceScale="4" specularConstant="1.8"
        specularExponent="42" lighting-color="#ffffff" result="spec">
      <feDistantLight elevation="52" azimuth="38"/>
    </feSpecularLighting>
    <feComposite in="spec" in2="SourceGraphic" operator="in" result="sm"/>
    <feComposite in="SourceGraphic" in2="sm" operator="arithmetic" k1="0" k2="1" k3="0.55" k4="0"/>
  </filter>

  <!-- Sharper specular for weapons — heavier glare -->
  <filter id="wmr1x9301" x="-8%" y="-8%" width="116%" height="116%">
    <feSpecularLighting surfaceScale="6" specularConstant="2.4"
        specularExponent="65" lighting-color="#ffffff" result="spec">
      <feDistantLight elevation="44" azimuth="28"/>
    </feSpecularLighting>
    <feComposite in="spec" in2="SourceGraphic" operator="in" result="sm"/>
    <feComposite in="SourceGraphic" in2="sm" operator="arithmetic" k1="0" k2="1" k3="0.78" k4="0"/>
  </filter>

  <!-- Sketch wobble -->
  <filter id="skr1x9301" x="-8%" y="-8%" width="116%" height="116%">
    <feTurbulence type="fractalNoise" baseFrequency="0.038"
        numOctaves="3" seed="10" result="noise"/>
    <feDisplacementMap in="SourceGraphic" in2="noise" scale="2.6"
        xChannelSelector="R" yChannelSelector="G" result="w"/>
    <feComposite in="w" in2="SourceGraphic" operator="atop"/>
  </filter>

  <!-- Glow: sharp accent -->
  <filter id="glowr1x9301" x="-20%" y="-20%" width="140%" height="140%">
    <feGaussianBlur stdDeviation="3.5" result="b"/>
    <feColorMatrix in="b" type="matrix"
        values="0 0 0 0 1  0 0 0 0 1  0 0 0 0 1  0 0 0 1.8 0" result="boost"/>
    <feMerge><feMergeNode in="boost"/><feMergeNode in="SourceGraphic"/></feMerge>
  </filter>

  <!-- Bloom: wide soft -->
  <filter id="bloomr1x9301" x="-40%" y="-40%" width="180%" height="180%">
    <feGaussianBlur stdDeviation="11" result="b"/>
    <feMerge><feMergeNode in="b"/><feMergeNode in="SourceGraphic"/></feMerge>
  </filter>

  </defs><rect width="1000" height="1000" fill="url(#bgr1x9301)"/><circle cx="500" cy="500" r="420.0" fill="none" stroke="#ff2040" stroke-opacity=".11" stroke-width="42" stroke-dasharray="8,5"/><circle cx="500" cy="500" r="240.0" fill="none" stroke="#cc0020" stroke-opacity=".09" stroke-width="18"/><line x1="500" y1="500" x2="1500.0" y2="500.0" stroke="#ff2040" stroke-opacity=".035" stroke-width="1.2"/><line x1="500" y1="500" x2="1366.0" y2="1000.0" stroke="#ff2040" stroke-opacity=".035" stroke-width="1.2"/><line x1="500" y1="500" x2="1000.0" y2="1366.0" stroke="#ff2040" stroke-opacity=".035" stroke-width="1.2"/><line x1="500" y1="500" x2="500.0" y2="1500.0" stroke="#ff2040" stroke-opacity=".035" stroke-width="1.2"/><line x1="500" y1="500" x2="0.0" y2="1366.0" stroke="#ff2040" stroke-opacity=".035" stroke-width="1.2"/><line x1="500" y1="500" x2="-366.0" y2="1000.0" stroke="#ff2040" stroke-opacity=".035" stroke-width="1.2"/><line x1="500" y1="500" x2="-500.0" y2="500.0" stroke="#ff2040" stroke-opacity=".035" stroke-width="1.2"/><line x1="500" y1="500" x2="-366.0" y2="-0.0" stroke="#ff2040" stroke-opacity=".035" stroke-width="1.2"/><line x1="500" y1="500" x2="-0.0" y2="-366.0" stroke="#ff2040" stroke-opacity=".035" stroke-width="1.2"/><line x1="500" y1="500" x2="500.0" y2="-500.0" stroke="#ff2040" stroke-opacity=".035" stroke-width="1.2"/><line x1="500" y1="500" x2="1000.0" y2="-366.0" stroke="#ff2040" stroke-opacity=".035" stroke-width="1.2"/><line x1="500" y1="500" x2="1366.0" y2="-0.0" stroke="#ff2040" stroke-opacity=".035" stroke-width="1.2"/><ellipse cx="500.0" cy="892.0" rx="350.0" ry="65.0" fill="rgba(0,0,0,.7)" filter="url(#bloomr1x9301)"/><ellipse cx="500.0" cy="889.0" rx="220.0" ry="34.0" fill="rgba(0,0,0,.45)"/><polygon points="399.5,664.0 488.0,663.4 481.4,876.7 387.8,877.5" fill="url(#suitr1x9301)" stroke="#ff2040" stroke-width="2.2" filter="url(#skr1x9301) url(#metalr1x9301)"/><polygon points="399.0,661.3 490.6,663.1 481.7,877.0 387.3,878.8" fill="url(#carbonr1x9301)"/><polygon points="392.5,722.3 492.7,724.8 483.0,786.5 382.3,787.9" fill="url(#bevelr1x9301)" fill-opacity=".5" stroke="#ff2040" stroke-width="1.4" filter="url(#skr1x9301)"/><polygon points="511.1,663.0 600.1,664.0 611.9,877.1 519.0,878.2" fill="url(#suitr1x9301)" stroke="#ff2040" stroke-width="2.2" filter="url(#skr1x9301) url(#metalr1x9301)"/><polygon points="509.7,660.9 599.9,663.9 613.4,878.3 520.5,876.4" fill="url(#carbonr1x9301)"/><polygon points="507.1,723.7 606.7,724.8 615.8,787.0 515.2,787.2" fill="url(#bevelr1x9301)" fill-opacity=".5" stroke="#ff2040" stroke-width="1.4" filter="url(#skr1x9301)"/><rect x="392.9" y="838.5" width="100.3" height="24.7" fill="url(#bevelr1x9301)" stroke="#ff2040" stroke-width="1" filter="url(#skr1x9301)"/><rect x="508.5"  y="839.0" width="100.3" height="24.7" fill="url(#bevelr1x9301)" stroke="#ff2040" stroke-width="1" filter="url(#skr1x9301)"/><polygon points="368.7,879.1 495.8,878.3 502.1,920.0 362.0,921.0" fill="#cc0020" stroke="#ff2040" stroke-width="2" filter="url(#skr1x9301)"/><polygon points="505.3,878.8 630.2,878.2 638.5,920.4 497.3,922.0" fill="#cc0020" stroke="#ff2040" stroke-width="2" filter="url(#skr1x9301)"/><polygon points="302.9,634.0 696.6,632.4 638.3,681.5 363.8,683.2" fill="#ff2040" fill-opacity=".52" stroke="#ff2040" stroke-width="2" filter="url(#skr1x9301)"/><rect x="464.6" y="636.6" width="72.0" height="42.0" fill="url(#bevelr1x9301)" stroke="#ff2040" stroke-width="1.4" filter="url(#glowr1x9301)"/><rect x="485.4" y="640.3" width="28.0" height="22.0" rx="1" fill="rgba(255,255,255,.48)"/><polygon points="154.1,466.1 236.8,467.5 256.2,736.1 126.7,734.7" fill="url(#suitr1x9301)" stroke="#ff2040" stroke-width="2.2" filter="url(#skr1x9301) url(#metalr1x9301)"/><polygon points="172.1,430.8 252.5,430.5 243.4,510.3 160.1,509.0" fill="url(#bevelr1x9301)" fill-opacity=".72" stroke="#ff2040" stroke-width="2.2" filter="url(#skr1x9301)"/><polygon points="162.1,623.3 243.6,622.7 239.4,660.1 166.5,659.5" fill="#ff2040" fill-opacity=".42" stroke="#ff2040" stroke-width="1" filter="url(#skr1x9301)"/><polygon points="765.1,465.1 847.3,467.0 871.9,736.4 740.4,735.9" fill="url(#suitr1x9301)" stroke="#ff2040" stroke-width="2.2" filter="url(#skr1x9301) url(#metalr1x9301)"/><polygon points="747.7,432.3 824.9,432.6 841.2,511.4 757.3,510.3" fill="url(#bevelr1x9301)" fill-opacity=".72" stroke="#ff2040" stroke-width="2.2" filter="url(#skr1x9301)"/><polygon points="756.9,623.6 838.6,621.0 835.7,660.4 762.3,659.3" fill="#ff2040" fill-opacity=".42" stroke="#ff2040" stroke-width="1" filter="url(#skr1x9301)"/><rect x="120.2"  y="698.4" width="135.3" height="85.0" rx="4" fill="url(#bevelr1x9301)" stroke="#ff2040" stroke-width="1.8" filter="url(#skr1x9301)"/><rect x="747.6"   y="700.5" width="135.3" height="85.0" rx="4" fill="url(#bevelr1x9301)" stroke="#ff2040" stroke-width="1.8" filter="url(#skr1x9301)"/><line x1="149.5" y1="700.8" x2="148.5" y2="784.5" stroke="#ff2040" stroke-opacity=".38" stroke-width="1"/><line x1="779.5" y1="700.4" x2="778.1" y2="785.2" stroke="#ff2040" stroke-opacity=".38" stroke-width="1"/><line x1="181.1" y1="702.2" x2="181.2" y2="784.2" stroke="#ff2040" stroke-opacity=".38" stroke-width="1"/><line x1="811.3" y1="701.3" x2="811.7" y2="785.3" stroke="#ff2040" stroke-opacity=".38" stroke-width="1"/><line x1="215.1" y1="701.4" x2="216.9" y2="784.9" stroke="#ff2040" stroke-opacity=".38" stroke-width="1"/><line x1="844.8" y1="701.8" x2="843.4" y2="783.2" stroke="#ff2040" stroke-opacity=".38" stroke-width="1"/><polygon points="233.7,415.9 764.1,417.1 723.1,661.8 277.8,661.2" fill="url(#suitr1x9301)" stroke="#ff2040" stroke-width="2.6" filter="url(#skr1x9301) url(#metalr1x9301)"/><polygon points="234.5,417.6 766.4,418.5 724.2,661.9 275.9,662.0" fill="url(#carbonr1x9301)"/><polygon points="367.5,415.9 633.9,416.8 609.6,513.8 387.4,513.7" fill="url(#suitHir1x9301)"/><line x1="361.6" y1="472.7" x2="637.1" y2="471.9" stroke="#ff2040" stroke-opacity=".52" stroke-width="1.3" filter="url(#skr1x9301)"/><line x1="400.2" y1="549.6" x2="602.3" y2="550.1" stroke="#ff2040" stroke-opacity=".52" stroke-width="1.3" filter="url(#skr1x9301)"/><line x1="267.3" y1="491.2" x2="318.2" y2="491.3" stroke="#ff2040" stroke-opacity=".62" stroke-width="1.8"/><line x1="680.8" y1="489.9" x2="732.2" y2="491.7" stroke="#ff2040" stroke-opacity=".62" stroke-width="1.8"/><line x1="268.0" y1="524.0" x2="320.4" y2="523.0" stroke="#ff2040" stroke-opacity=".62" stroke-width="1.8"/><line x1="678.7" y1="523.0" x2="733.3" y2="524.3" stroke="#ff2040" stroke-opacity=".62" stroke-width="1.8"/><line x1="267.8" y1="556.3" x2="318.1" y2="553.3" stroke="#ff2040" stroke-opacity=".62" stroke-width="1.8"/><line x1="680.6" y1="554.6" x2="733.5" y2="554.7" stroke="#ff2040" stroke-opacity=".62" stroke-width="1.8"/><line x1="268.5" y1="585.4" x2="318.2" y2="586.7" stroke="#ff2040" stroke-opacity=".62" stroke-width="1.8"/><line x1="681.1" y1="588.2" x2="734.2" y2="586.1" stroke="#ff2040" stroke-opacity=".62" stroke-width="1.8"/><g filter="url(#glowr1x9301)"><path d="M500.0,449.7 C462.3,446.8 442.0,481.6 447.8,513.5 L459.4,542.5 C476.8,536.7 491.3,551.2 500.0,551.2 C508.7,551.2 523.2,536.7 540.6,542.5 L552.2,513.5 C558.0,481.6 537.7,446.8 500.0,449.7 Z" fill="#ff2040" fill-opacity=".92" stroke="#0e001e" stroke-width="1.3" filter="url(#skr1x9301)"/><path d="M483.8,519.3 Q500.0,533.8 516.2,519.3" stroke="#0e001e" stroke-width="1" fill="none" opacity=".58"/><ellipse cx="481.4" cy="497.8" rx="8.7" ry="6.4" fill="#0e001e" opacity=".95"/><ellipse cx="518.6" cy="497.8" rx="8.7" ry="6.4" fill="#0e001e" opacity=".95"/><ellipse cx="481.4" cy="497.8" rx="2.3" ry="5.8" fill="#ff2040"/><ellipse cx="518.6" cy="497.8" rx="2.3" ry="5.8" fill="#ff2040"/><path d="M471.0,467.1 L458.2,426.5 L481.4,463.0" fill="#ff2040" stroke="#0e001e" stroke-width=".9"/><path d="M529.0,467.1 L541.8,426.5 L518.6,463.0" fill="#ff2040" stroke="#0e001e" stroke-width=".9"/><path d="M476.8,452.6 C488.4,449.1 511.6,449.1 523.2,452.6" fill="rgba(255,255,255,.18)"/></g><g><line x1="102.22862091124054" y1="832.9305240074173" x2="103.61798152051863" y2="110.90280590122563" stroke="url(#chromer1x9301)" stroke-width="22.0" stroke-linecap="round" filter="url(#wmr1x9301)"/><line x1="97.22406543077898" y1="813.1265875243581" x2="96.64581469310444" y2="131.7530503699556" stroke="rgba(255,255,255,.35)" stroke-width="4.0" stroke-linecap="round"/><rect x="86.3735015107691" y="619.7685057689436" width="32.0" height="18.0" fill="url(#bevelr1x9301)" stroke="#ff2040" stroke-width=".8" filter="url(#wmr1x9301)"/><rect x="85.0631278800219" y="440.5860787341371" width="32.0" height="18.0" fill="url(#bevelr1x9301)" stroke="#ff2040" stroke-width=".8" filter="url(#wmr1x9301)"/><rect x="85.85664206150916" y="262.085965866223" width="32.0" height="18.0" fill="url(#bevelr1x9301)" stroke="#ff2040" stroke-width=".8" filter="url(#wmr1x9301)"/><circle cx="103.49172738151621" cy="109.79715346861629" r="58.0" fill="rgba(0,0,0,.52)" stroke="#ff2040" stroke-width="2.2" filter="url(#wmr1x9301)"/><circle cx="100.97273420415816" cy="112.8501962378621" r="46.0" fill="url(#orbr1x9301)" filter="url(#bloomr1x9301)"/><circle cx="100.62603546859694" cy="110.33104966748503" r="20.0" fill="#ff2040" filter="url(#glowr1x9301)"/><circle cx="102.81692780707029" cy="111.81597692128268" r="66.0" fill="none" stroke="#ff2040" stroke-opacity=".4" stroke-width="1.3" stroke-dasharray="4,4"/><ellipse cx="101.1584250287525" cy="111.24693013103676" rx="66.0" ry="30.0" fill="none" stroke="#ff2040" stroke-opacity=".24" stroke-width="1" stroke-dasharray="3,5" transform="rotate(60,102.2,111.4)"/></g><rect x="450.7059739485383" y="558.6389715574682" width="100.0"  height="56.0" fill="#cc0020" stroke="#ff2040" stroke-width="2.2" filter="url(#skr1x9301)"/><rect x="424.5299828299321" y="574.4333463327029" width="152.0" height="26.0" fill="url(#bevelr1x9301)" fill-opacity=".65" stroke="#ff2040" stroke-width="1.2" filter="url(#skr1x9301)"/><polygon points="308.7,379.9 350.7,295.1 501.6,277.3 650.6,294.9 692.2,379.6 667.3,503.5 500.9,565.1 330.0,503.3" fill="url(#suitr1x9301)" stroke="#ff2040" stroke-width="2.8" filter="url(#skr1x9301) url(#metalr1x9301)"/><polygon points="307.2,380.8 350.7,293.3 498.6,277.9 648.8,296.0 693.7,381.2 668.2,502.5 500.7,565.0 332.4,503.4" fill="url(#carbonr1x9301)"/><polygon points="382.2,301.8 499.7,284.7 617.7,304.1 606.7,382.0 392.4,380.9" fill="url(#suitHir1x9301)"/><polygon points="382.3,379.7 364.1,425.1 434.3,504.9 501.4,527.6 567.8,502.6 633.0,425.1 620.2,381.3" fill="#0e001e" fill-opacity=".88" stroke="#ff2040" stroke-width="1.8" filter="url(#skr1x9301)"/><polygon points="381.3,410.2 478.7,409.7 484.1,439.4 389.8,439.2" fill="#ff2040" filter="url(#glowr1x9301)"/><polygon points="524.4,411.6 619.7,411.7 610.6,439.0 514.0,441.5" fill="#ff2040" filter="url(#glowr1x9301)"/><ellipse cx="430.9" cy="425.7" rx="38.4"  ry="8.2" fill="#ffffff" opacity=".88"/><ellipse cx="569.1" cy="425.7" rx="38.4"  ry="8.2" fill="#ffffff" opacity=".88"/><line x1="485.452331755273" y1="412.29905305216084" x2="516.2814483832941" y2="414.933187793009" stroke="#ff2040" stroke-opacity=".52" stroke-width="2"/><line x1="485.6064075138047" y1="439.50831011245026" x2="515.2375149002671" y2="436.8897424031049" stroke="#ff2040" stroke-opacity=".52" stroke-width="2"/><line x1="498.63280585585164" y1="455.9236810124479" x2="499.315882716421" y2="484.86232138220225" stroke="#ff2040" stroke-opacity=".58" stroke-width="2.2" filter="url(#skr1x9301)"/><line x1="453.1062381001003" y1="489.80907758912065" x2="454.5922870972939" y2="521.663788733352" stroke="#ff2040" stroke-opacity=".52" stroke-width="1.5" filter="url(#skr1x9301)"/><line x1="476.3202110760286" y1="492.6976666042581" x2="475.1770120012015" y2="519.4235850583761" stroke="#ff2040" stroke-opacity=".52" stroke-width="1.5" filter="url(#skr1x9301)"/><line x1="499.4947911723517" y1="490.62624859260393" x2="499.7597268807702" y2="519.4022063789889" stroke="#ff2040" stroke-opacity=".52" stroke-width="1.5" filter="url(#skr1x9301)"/><line x1="523.6316727881879" y1="492.28632884593674" x2="522.0022091804631" y2="521.4022567867302" stroke="#ff2040" stroke-opacity=".52" stroke-width="1.5" filter="url(#skr1x9301)"/><line x1="545.2579352240265" y1="492.1681717762723" x2="547.1832208642923" y2="519.6590354132466" stroke="#ff2040" stroke-opacity=".52" stroke-width="1.5" filter="url(#skr1x9301)"/><polygon points="431.7,503.8 566.3,501.9 553.3,555.6 446.1,558.5" fill="#cc0020" fill-opacity=".72" stroke="#ff2040" stroke-width="1.3" filter="url(#skr1x9301)"/><text x="30.0"  y="975.0" font-family="monospace" font-weight="bold" font-size="22.0" fill="rgba(255,255,255,.22)">#0001</text><text x="500.0"   y="975.0" text-anchor="middle" font-family="monospace" font-weight="bold" font-size="22.0" fill="#ff2040" fill-opacity=".48">CRIMSON RANGER</text><text x="970.0" y="975.0" text-anchor="end"    font-family="monospace" font-weight="bold" font-size="22.0" fill="#ff2040" fill-opacity=".32">MECH RANGERS</text></svg>