<svg xmlns="http://www.w3.org/2000/svg" viewBox="0 0 1000 1000" width="1000" height="1000" shape-rendering="geometricPrecision"><defs>

  <!-- Scene gradients -->
  <radialGradient id="bgr1x9305" cx="50%" cy="42%" r="72%">
    <stop offset="0%"   stop-color="#0a0a14"/>
    <stop offset="100%" stop-color="#050508"/>
  </radialGradient>
  <linearGradient id="suitr1x9305" x1="8%" y1="0%" x2="92%" y2="100%">
    <stop offset="0%"   stop-color="#4444ff" stop-opacity=".95"/>
    <stop offset="45%"  stop-color="#141428"/>
    <stop offset="100%" stop-color="#050508"/>
  </linearGradient>
  <linearGradient id="suitHir1x9305" x1="0%" y1="0%" x2="0%" y2="100%">
    <stop offset="0%"   stop-color="rgba(255,255,255,.28)"/>
    <stop offset="60%"  stop-color="rgba(255,255,255,.04)"/>
    <stop offset="100%" stop-color="rgba(255,255,255,0)"/>
  </linearGradient>
  <!-- Bevel: bright top, dark bottom for armour panels -->
  <linearGradient id="bevelr1x9305" x1="0%" y1="0%" x2="0%" y2="100%">
    <stop offset="0%"   stop-color="rgba(255,255,255,.55)"/>
    <stop offset="30%"  stop-color="#4444ff"/>
    <stop offset="70%"  stop-color="#141428"/>
    <stop offset="100%" stop-color="rgba(0,0,0,.5)"/>
  </linearGradient>

  <!-- Weapon: cold steel blade sweep -->
  <linearGradient id="blader1x9305" x1="0%" y1="0%" x2="100%" y2="0%">
    <stop offset="0%"   stop-color="#0e0e20"/>
    <stop offset="16%"  stop-color="#3e3e58"/>
    <stop offset="34%"  stop-color="#c8c8e0"/>
    <stop offset="50%"  stop-color="#f5f5ff"/>
    <stop offset="66%"  stop-color="#b8b8d0"/>
    <stop offset="84%"  stop-color="#2e2e48"/>
    <stop offset="100%" stop-color="#08080e"/>
  </linearGradient>
  <!-- Blade tip brightening -->
  <linearGradient id="bladeTipr1x9305" x1="0%" y1="100%" x2="0%" y2="0%">
    <stop offset="0%"   stop-color="rgba(255,255,255,0)"/>
    <stop offset="55%"  stop-color="rgba(255,255,255,.1)"/>
    <stop offset="100%" stop-color="rgba(255,255,255,.55)"/>
  </linearGradient>
  <!-- Gunmetal anodised — blaster body -->
  <linearGradient id="gunmetalr1x9305" x1="0%" y1="0%" x2="0%" y2="100%">
    <stop offset="0%"   stop-color="#46465e"/>
    <stop offset="18%"  stop-color="#828296"/>
    <stop offset="42%"  stop-color="#26263a"/>
    <stop offset="72%"  stop-color="#16162a"/>
    <stop offset="100%" stop-color="#0c0c18"/>
  </linearGradient>
  <!-- Brushed steel tube — barrel/rod -->
  <linearGradient id="barrelr1x9305" x1="0%" y1="0%" x2="100%" y2="0%">
    <stop offset="0%"   stop-color="#0a0a14"/>
    <stop offset="24%"  stop-color="#585875"/>
    <stop offset="50%"  stop-color="#a8a8c8"/>
    <stop offset="76%"  stop-color="#383852"/>
    <stop offset="100%" stop-color="#0a0a14"/>
  </linearGradient>
  <!-- Chrome rod — lance shaft -->
  <linearGradient id="chromer1x9305" x1="0%" y1="0%" x2="100%" y2="0%">
    <stop offset="0%"   stop-color="#0c0c18"/>
    <stop offset="20%"  stop-color="#686888"/>
    <stop offset="44%"  stop-color="#e0e0f0"/>
    <stop offset="56%"  stop-color="#c0c0d8"/>
    <stop offset="80%"  stop-color="#28283e"/>
    <stop offset="100%" stop-color="#0c0c18"/>
  </linearGradient>
  <!-- Titanium plate — shield face -->
  <linearGradient id="titaniumr1x9305" x1="0%" y1="0%" x2="100%" y2="100%">
    <stop offset="0%"   stop-color="#585878"/>
    <stop offset="28%"  stop-color="#4444ff" stop-opacity=".88"/>
    <stop offset="55%"  stop-color="#141428"/>
    <stop offset="80%"  stop-color="#181828"/>
    <stop offset="100%" stop-color="#0a0a18"/>
  </linearGradient>
  <!-- Artillery black-chrome — cannon body -->
  <linearGradient id="artilleryr1x9305" x1="0%" y1="0%" x2="0%" y2="100%">
    <stop offset="0%"   stop-color="#383850"/>
    <stop offset="14%"  stop-color="#78789a"/>
    <stop offset="36%"  stop-color="#202034"/>
    <stop offset="65%"  stop-color="#14141e"/>
    <stop offset="100%" stop-color="#0a0a12"/>
  </linearGradient>
  <!-- Energy orb — staff -->
  <radialGradient id="orbr1x9305" cx="35%" cy="35%" r="65%">
    <stop offset="0%"   stop-color="rgba(255,255,255,.9)"/>
    <stop offset="30%"  stop-color="#4444ff"/>
    <stop offset="68%"  stop-color="#141428"/>
    <stop offset="100%" stop-color="rgba(0,0,0,.6)"/>
  </radialGradient>
  <!-- Knuckle plate chrome -->
  <linearGradient id="knuckler1x9305" x1="0%" y1="0%" x2="0%" y2="100%">
    <stop offset="0%"   stop-color="#888aaa"/>
    <stop offset="32%"  stop-color="#4444ff" stop-opacity=".8"/>
    <stop offset="62%"  stop-color="#1a1a2c"/>
    <stop offset="100%" stop-color="#0a0a14"/>
  </linearGradient>

  <!-- Carbon fibre weave texture overlay -->
  <pattern id="carbonr1x9305" width="6" height="6" patternUnits="userSpaceOnUse">
    <rect width="6" height="6" fill="rgba(0,0,0,.08)"/>
    <rect x="0" y="0" width="3" height="3" fill="rgba(255,255,255,.022)"/>
    <rect x="3" y="3" width="3" height="3" fill="rgba(255,255,255,.022)"/>
    <line x1="0" y1="0" x2="3" y2="3" stroke="rgba(255,255,255,.038)" stroke-width=".5"/>
    <line x1="3" y1="0" x2="6" y2="3" stroke="rgba(0,0,0,.055)"       stroke-width=".5"/>
    <line x1="0" y1="3" x2="3" y2="6" stroke="rgba(0,0,0,.055)"       stroke-width=".5"/>
    <line x1="3" y1="3" x2="6" y2="6" stroke="rgba(255,255,255,.038)" stroke-width=".5"/>
  </pattern>

  <!-- Specular metal sheen on armour panels -->
  <filter id="metalr1x9305" x="-5%" y="-5%" width="110%" height="110%">
    <feSpecularLighting surfaceScale="4" specularConstant="1.8"
        specularExponent="42" lighting-color="#ffffff" result="spec">
      <feDistantLight elevation="52" azimuth="38"/>
    </feSpecularLighting>
    <feComposite in="spec" in2="SourceGraphic" operator="in" result="sm"/>
    <feComposite in="SourceGraphic" in2="sm" operator="arithmetic" k1="0" k2="1" k3="0.55" k4="0"/>
  </filter>

  <!-- Sharper specular for weapons — heavier glare -->
  <filter id="wmr1x9305" x="-8%" y="-8%" width="116%" height="116%">
    <feSpecularLighting surfaceScale="6" specularConstant="2.4"
        specularExponent="65" lighting-color="#ffffff" result="spec">
      <feDistantLight elevation="44" azimuth="28"/>
    </feSpecularLighting>
    <feComposite in="spec" in2="SourceGraphic" operator="in" result="sm"/>
    <feComposite in="SourceGraphic" in2="sm" operator="arithmetic" k1="0" k2="1" k3="0.78" k4="0"/>
  </filter>

  <!-- Sketch wobble -->
  <filter id="skr1x9305" x="-8%" y="-8%" width="116%" height="116%">
    <feTurbulence type="fractalNoise" baseFrequency="0.038"
        numOctaves="3" seed="12" result="noise"/>
    <feDisplacementMap in="SourceGraphic" in2="noise" scale="2.6"
        xChannelSelector="R" yChannelSelector="G" result="w"/>
    <feComposite in="w" in2="SourceGraphic" operator="atop"/>
  </filter>

  <!-- Glow: sharp accent -->
  <filter id="glowr1x9305" x="-20%" y="-20%" width="140%" height="140%">
    <feGaussianBlur stdDeviation="3.5" result="b"/>
    <feColorMatrix in="b" type="matrix"
        values="0 0 0 0 1  0 0 0 0 1  0 0 0 0 1  0 0 0 1.8 0" result="boost"/>
    <feMerge><feMergeNode in="boost"/><feMergeNode in="SourceGraphic"/></feMerge>
  </filter>

  <!-- Bloom: wide soft -->
  <filter id="bloomr1x9305" x="-40%" y="-40%" width="180%" height="180%">
    <feGaussianBlur stdDeviation="11" result="b"/>
    <feMerge><feMergeNode in="b"/><feMergeNode in="SourceGraphic"/></feMerge>
  </filter>

  </defs><rect width="1000" height="1000" fill="url(#bgr1x9305)"/><ellipse cx="500.0" cy="892.0" rx="350.0" ry="65.0" fill="rgba(0,0,0,.7)" filter="url(#bloomr1x9305)"/><ellipse cx="500.0" cy="889.0" rx="220.0" ry="34.0" fill="rgba(0,0,0,.45)"/><polygon points="400.5,660.9 490.7,661.7 479.7,877.6 385.8,876.6" fill="url(#suitr1x9305)" stroke="#4444ff" stroke-width="2.2" filter="url(#skr1x9305) url(#metalr1x9305)"/><polygon points="399.9,663.3 490.4,662.6 480.5,877.2 387.2,877.2" fill="url(#carbonr1x9305)"/><polygon points="394.1,724.0 492.1,722.4 484.7,787.0 383.7,790.0" fill="url(#bevelr1x9305)" fill-opacity=".5" stroke="#4444ff" stroke-width="1.4" filter="url(#skr1x9305)"/><polygon points="509.7,663.6 600.3,662.2 614.3,877.4 518.7,878.8" fill="url(#suitr1x9305)" stroke="#4444ff" stroke-width="2.2" filter="url(#skr1x9305) url(#metalr1x9305)"/><polygon points="511.1,664.2 601.4,663.0 613.9,877.1 519.2,878.4" fill="url(#carbonr1x9305)"/><polygon points="508.8,723.2 609.1,725.3 614.6,788.3 515.6,788.6" fill="url(#bevelr1x9305)" fill-opacity=".5" stroke="#4444ff" stroke-width="1.4" filter="url(#skr1x9305)"/><rect x="393.3" y="839.0" width="100.3" height="24.7" fill="url(#bevelr1x9305)" stroke="#4444ff" stroke-width="1" filter="url(#skr1x9305)"/><rect x="507.5"  y="839.7" width="100.3" height="24.7" fill="url(#bevelr1x9305)" stroke="#4444ff" stroke-width="1" filter="url(#skr1x9305)"/><polygon points="370.8,876.3 495.1,877.2 502.7,919.9 361.4,920.5" fill="#141428" stroke="#4444ff" stroke-width="2" filter="url(#skr1x9305)"/><polygon points="502.6,876.5 631.8,877.5 638.4,921.8 498.3,921.9" fill="#141428" stroke="#4444ff" stroke-width="2" filter="url(#skr1x9305)"/><polygon points="305.7,633.0 696.2,632.6 638.2,683.1 362.9,681.3" fill="#4444ff" fill-opacity=".52" stroke="#4444ff" stroke-width="2" filter="url(#skr1x9305)"/><rect x="463.2" y="637.4" width="72.0" height="42.0" fill="url(#bevelr1x9305)" stroke="#4444ff" stroke-width="1.4" filter="url(#glowr1x9305)"/><rect x="485.3" y="642.2" width="28.0" height="22.0" rx="1" fill="rgba(255,255,255,.48)"/><polygon points="151.5,468.3 233.5,465.8 256.8,733.5 128.5,734.7" fill="url(#suitr1x9305)" stroke="#4444ff" stroke-width="2.2" filter="url(#skr1x9305) url(#metalr1x9305)"/><polygon points="172.8,432.2 251.3,433.3 244.8,511.4 160.9,509.2" fill="url(#bevelr1x9305)" fill-opacity=".72" stroke="#4444ff" stroke-width="2.2" filter="url(#skr1x9305)"/><polygon points="160.1,620.5 241.9,621.2 238.1,661.7 163.8,660.1" fill="#4444ff" fill-opacity=".42" stroke="#4444ff" stroke-width="1" filter="url(#skr1x9305)"/><polygon points="763.8,466.1 845.6,465.3 871.3,733.5 742.0,734.1" fill="url(#suitr1x9305)" stroke="#4444ff" stroke-width="2.2" filter="url(#skr1x9305) url(#metalr1x9305)"/><polygon points="747.0,431.2 827.6,432.9 839.4,510.9 757.0,509.5" fill="url(#bevelr1x9305)" fill-opacity=".72" stroke="#4444ff" stroke-width="2.2" filter="url(#skr1x9305)"/><polygon points="756.1,620.5 838.7,621.2 835.6,659.5 759.8,662.5" fill="#4444ff" fill-opacity=".42" stroke="#4444ff" stroke-width="1" filter="url(#skr1x9305)"/><rect x="119.0"  y="700.2" width="135.3" height="85.0" rx="4" fill="url(#bevelr1x9305)" stroke="#4444ff" stroke-width="1.8" filter="url(#skr1x9305)"/><rect x="748.6"   y="700.8" width="135.3" height="85.0" rx="4" fill="url(#bevelr1x9305)" stroke="#4444ff" stroke-width="1.8" filter="url(#skr1x9305)"/><line x1="148.0" y1="701.9" x2="148.5" y2="783.0" stroke="#4444ff" stroke-opacity=".38" stroke-width="1"/><line x1="779.3" y1="701.4" x2="776.6" y2="782.8" stroke="#4444ff" stroke-opacity=".38" stroke-width="1"/><line x1="181.5" y1="702.9" x2="182.1" y2="785.6" stroke="#4444ff" stroke-opacity=".38" stroke-width="1"/><line x1="809.2" y1="702.8" x2="809.8" y2="783.8" stroke="#4444ff" stroke-opacity=".38" stroke-width="1"/><line x1="216.1" y1="700.3" x2="214.5" y2="784.5" stroke="#4444ff" stroke-opacity=".38" stroke-width="1"/><line x1="842.3" y1="701.8" x2="844.3" y2="782.2" stroke="#4444ff" stroke-opacity=".38" stroke-width="1"/><polygon points="236.7,418.4 766.7,417.9 722.5,663.3 275.8,664.0" fill="url(#suitr1x9305)" stroke="#4444ff" stroke-width="2.6" filter="url(#skr1x9305) url(#metalr1x9305)"/><polygon points="236.0,415.9 765.1,419.3 722.2,662.5 278.5,662.6" fill="url(#carbonr1x9305)"/><polygon points="366.6,416.5 631.5,415.9 613.1,515.7 388.0,514.0" fill="url(#suitHir1x9305)"/><line x1="360.9" y1="472.8" x2="638.8" y2="469.6" stroke="#4444ff" stroke-opacity=".52" stroke-width="1.3" filter="url(#skr1x9305)"/><line x1="400.6" y1="548.9" x2="601.2" y2="548.7" stroke="#4444ff" stroke-opacity=".52" stroke-width="1.3" filter="url(#skr1x9305)"/><line x1="265.4" y1="489.8" x2="320.4" y2="492.2" stroke="#4444ff" stroke-opacity=".62" stroke-width="1.8"/><line x1="679.4" y1="492.5" x2="732.1" y2="489.8" stroke="#4444ff" stroke-opacity=".62" stroke-width="1.8"/><line x1="266.1" y1="521.8" x2="320.1" y2="523.5" stroke="#4444ff" stroke-opacity=".62" stroke-width="1.8"/><line x1="678.6" y1="522.7" x2="734.8" y2="522.1" stroke="#4444ff" stroke-opacity=".62" stroke-width="1.8"/><line x1="266.4" y1="554.6" x2="319.2" y2="555.3" stroke="#4444ff" stroke-opacity=".62" stroke-width="1.8"/><line x1="680.8" y1="554.6" x2="733.4" y2="555.2" stroke="#4444ff" stroke-opacity=".62" stroke-width="1.8"/><line x1="268.4" y1="587.0" x2="318.4" y2="586.2" stroke="#4444ff" stroke-opacity=".62" stroke-width="1.8"/><line x1="681.9" y1="585.4" x2="731.6" y2="585.0" stroke="#4444ff" stroke-opacity=".62" stroke-width="1.8"/><g filter="url(#glowr1x9305)"><path d="M500.0,449.7 C462.3,446.8 442.0,481.6 447.8,513.5 L459.4,542.5 C476.8,536.7 491.3,551.2 500.0,551.2 C508.7,551.2 523.2,536.7 540.6,542.5 L552.2,513.5 C558.0,481.6 537.7,446.8 500.0,449.7 Z" fill="#4444ff" fill-opacity=".92" stroke="#050508" stroke-width="1.3" filter="url(#skr1x9305)"/><path d="M483.8,519.3 Q500.0,533.8 516.2,519.3" stroke="#050508" stroke-width="1" fill="none" opacity=".58"/><ellipse cx="481.4" cy="497.8" rx="8.7" ry="6.4" fill="#050508" opacity=".95"/><ellipse cx="518.6" cy="497.8" rx="8.7" ry="6.4" fill="#050508" opacity=".95"/><ellipse cx="481.4" cy="497.8" rx="2.3" ry="5.8" fill="#4444ff"/><ellipse cx="518.6" cy="497.8" rx="2.3" ry="5.8" fill="#4444ff"/><path d="M471.0,467.1 L458.2,426.5 L481.4,463.0" fill="#4444ff" stroke="#050508" stroke-width=".9"/><path d="M529.0,467.1 L541.8,426.5 L518.6,463.0" fill="#4444ff" stroke="#050508" stroke-width=".9"/><path d="M476.8,452.6 C488.4,449.1 511.6,449.1 523.2,452.6" fill="rgba(255,255,255,.18)"/></g><g><polygon points="71.8,691.9 103.8,689.8 37.6,270.7" fill="url(#blader1x9305)" stroke="#4444ff" stroke-width="1.8" filter="url(#wmr1x9305)"/><line x1="97.2" y1="691.4" x2="46.2" y2="271.4" stroke="rgba(255,255,255,.58)" stroke-width="1.3"/><polygon points="115.5,693.1 149.8,690.8 189.0,270.3" fill="url(#blader1x9305)" stroke="#4444ff" stroke-width="1.8" filter="url(#wmr1x9305)"/><line x1="146.2" y1="691.4" x2="184.2" y2="271.4" stroke="rgba(255,255,255,.58)" stroke-width="1.3"/><rect x="67.83254514349622" y="682.5653156969696" width="96.0" height="26.0" rx="2" fill="url(#bevelr1x9305)" stroke="#4444ff" stroke-width="1.4" filter="url(#wmr1x9305)"/></g><rect x="450.11152317132803" y="556.4816514167003" width="100.0"  height="56.0" fill="#141428" stroke="#4444ff" stroke-width="2.2" filter="url(#skr1x9305)"/><rect x="425.42236764794217" y="574.5909050821327" width="152.0" height="26.0" fill="url(#bevelr1x9305)" fill-opacity=".65" stroke="#4444ff" stroke-width="1.2" filter="url(#skr1x9305)"/><polygon points="309.1,382.3 349.0,294.9 499.3,279.0 651.0,293.5 690.6,378.8 670.6,504.9 501.3,566.0 332.5,505.3" fill="url(#suitr1x9305)" stroke="#4444ff" stroke-width="2.8" filter="url(#skr1x9305) url(#metalr1x9305)"/><polygon points="308.3,379.1 350.1,295.9 499.0,278.6 649.9,296.1 691.8,380.0 668.2,504.8 499.6,564.8 329.4,502.7" fill="url(#carbonr1x9305)"/><polygon points="379.8,301.8 500.5,287.6 617.6,303.8 606.6,382.2 391.0,381.1" fill="url(#suitHir1x9305)"/><polygon points="382.1,381.0 366.2,425.2 432.1,502.5 501.6,529.5 566.4,504.7 634.9,425.1 617.9,380.1" fill="#050508" fill-opacity=".88" stroke="#4444ff" stroke-width="1.8" filter="url(#skr1x9305)"/><polygon points="381.8,413.1 477.5,409.8 482.9,439.1 386.9,441.6" fill="#4444ff" filter="url(#glowr1x9305)"/><polygon points="522.6,412.3 620.3,410.9 609.7,440.6 514.3,439.2" fill="#4444ff" filter="url(#glowr1x9305)"/><ellipse cx="430.9" cy="425.7" rx="38.4"  ry="8.2" fill="#ffffff" opacity=".88"/><ellipse cx="569.1" cy="425.7" rx="38.4"  ry="8.2" fill="#ffffff" opacity=".88"/><line x1="483.0884130620025" y1="413.4129914117977" x2="513.7295356835612" y2="413.2067447097972" stroke="#4444ff" stroke-opacity=".52" stroke-width="2"/><line x1="484.901244156491" y1="438.0162149006501" x2="517.0994547029399" y2="438.19122525528076" stroke="#4444ff" stroke-opacity=".52" stroke-width="2"/><line x1="500.04667448699473" y1="454.0517748972401" x2="498.608698954992" y2="482.08443006761377" stroke="#4444ff" stroke-opacity=".58" stroke-width="2.2" filter="url(#skr1x9305)"/><line x1="454.72476977908985" y1="490.82289384715256" x2="455.6843199740909" y2="519.1179813783616" stroke="#4444ff" stroke-opacity=".52" stroke-width="1.5" filter="url(#skr1x9305)"/><line x1="478.28809986649077" y1="491.2653210457414" x2="475.5521960865147" y2="521.0353630012833" stroke="#4444ff" stroke-opacity=".52" stroke-width="1.5" filter="url(#skr1x9305)"/><line x1="498.8495348217897" y1="490.5673413381911" x2="500.237954942137" y2="520.6607890355401" stroke="#4444ff" stroke-opacity=".52" stroke-width="1.5" filter="url(#skr1x9305)"/><line x1="524.5128192392737" y1="492.76529028443616" x2="523.4015639276802" y2="518.7212329427712" stroke="#4444ff" stroke-opacity=".52" stroke-width="1.5" filter="url(#skr1x9305)"/><line x1="546.4380099420622" y1="490.8674561481922" x2="547.4338877362386" y2="518.7757297369651" stroke="#4444ff" stroke-opacity=".52" stroke-width="1.5" filter="url(#skr1x9305)"/><polygon points="432.6,502.7 568.7,502.1 553.1,555.6 444.7,556.5" fill="#141428" fill-opacity=".72" stroke="#4444ff" stroke-width="1.3" filter="url(#skr1x9305)"/><path d="M342.5134948098473 371.9249465333298 Q382.0293543008529 235.94104904839767 501.426135362871 280.54369213199243" stroke="#4444ff" stroke-width="2.8" fill="none" stroke-opacity=".88" filter="url(#skr1x9305)"/><path d="M658.8046390081383 372.2516680940054 Q618.6145555405504 237.58602656228467 499.4130491259508 281.42521401941775" stroke="#4444ff" stroke-width="2.8" fill="none" stroke-opacity=".88" filter="url(#skr1x9305)"/><line x1="419.2049137703516" y1="469.1610667125322" x2="438.17998849501834" y2="504.73773439917716" stroke="#4444ff" stroke-opacity=".52" stroke-width="1.3" filter="url(#skr1x9305)"/><line x1="476.9057549512387" y1="470.9170739023015" x2="497.5943228251673" y2="503.72491187779235" stroke="#4444ff" stroke-opacity=".52" stroke-width="1.3" filter="url(#skr1x9305)"/><line x1="534.1736281426064" y1="470.75523643437776" x2="554.4215332521499" y2="503.44511660067366" stroke="#4444ff" stroke-opacity=".52" stroke-width="1.3" filter="url(#skr1x9305)"/><line x1="593.435980289001" y1="469.25097223976627" x2="609.7643742577545" y2="504.8862610092387" stroke="#4444ff" stroke-opacity=".52" stroke-width="1.3" filter="url(#skr1x9305)"/><text x="30.0"  y="975.0" font-family="monospace" font-weight="bold" font-size="22.0" fill="rgba(255,255,255,.22)">#0001</text><text x="500.0"   y="975.0" text-anchor="middle" font-family="monospace" font-weight="bold" font-size="22.0" fill="#4444ff" fill-opacity=".48">OBSIDIAN RANGER</text><text x="970.0" y="975.0" text-anchor="end"    font-family="monospace" font-weight="bold" font-size="22.0" fill="#4444ff" fill-opacity=".32">MECH RANGERS</text></svg>