<svg xmlns="http://www.w3.org/2000/svg" viewBox="0 0 1000 1000" width="1000" height="1000" shape-rendering="geometricPrecision"><defs>

  <!-- Scene gradients -->
  <radialGradient id="bgr1x9342" cx="50%" cy="42%" r="72%">
    <stop offset="0%"   stop-color="#001e1e"/>
    <stop offset="100%" stop-color="#0e001e"/>
  </radialGradient>
  <linearGradient id="suitr1x9342" x1="8%" y1="0%" x2="92%" y2="100%">
    <stop offset="0%"   stop-color="#ff44aa" stop-opacity=".95"/>
    <stop offset="45%"  stop-color="#880050"/>
    <stop offset="100%" stop-color="#0e001e"/>
  </linearGradient>
  <linearGradient id="suitHir1x9342" x1="0%" y1="0%" x2="0%" y2="100%">
    <stop offset="0%"   stop-color="rgba(255,255,255,.28)"/>
    <stop offset="60%"  stop-color="rgba(255,255,255,.04)"/>
    <stop offset="100%" stop-color="rgba(255,255,255,0)"/>
  </linearGradient>
  <!-- Bevel: bright top, dark bottom for armour panels -->
  <linearGradient id="bevelr1x9342" x1="0%" y1="0%" x2="0%" y2="100%">
    <stop offset="0%"   stop-color="rgba(255,255,255,.55)"/>
    <stop offset="30%"  stop-color="#ff44aa"/>
    <stop offset="70%"  stop-color="#880050"/>
    <stop offset="100%" stop-color="rgba(0,0,0,.5)"/>
  </linearGradient>

  <!-- Weapon: cold steel blade sweep -->
  <linearGradient id="blader1x9342" x1="0%" y1="0%" x2="100%" y2="0%">
    <stop offset="0%"   stop-color="#0e0e20"/>
    <stop offset="16%"  stop-color="#3e3e58"/>
    <stop offset="34%"  stop-color="#c8c8e0"/>
    <stop offset="50%"  stop-color="#f5f5ff"/>
    <stop offset="66%"  stop-color="#b8b8d0"/>
    <stop offset="84%"  stop-color="#2e2e48"/>
    <stop offset="100%" stop-color="#08080e"/>
  </linearGradient>
  <!-- Blade tip brightening -->
  <linearGradient id="bladeTipr1x9342" x1="0%" y1="100%" x2="0%" y2="0%">
    <stop offset="0%"   stop-color="rgba(255,255,255,0)"/>
    <stop offset="55%"  stop-color="rgba(255,255,255,.1)"/>
    <stop offset="100%" stop-color="rgba(255,255,255,.55)"/>
  </linearGradient>
  <!-- Gunmetal anodised — blaster body -->
  <linearGradient id="gunmetalr1x9342" x1="0%" y1="0%" x2="0%" y2="100%">
    <stop offset="0%"   stop-color="#46465e"/>
    <stop offset="18%"  stop-color="#828296"/>
    <stop offset="42%"  stop-color="#26263a"/>
    <stop offset="72%"  stop-color="#16162a"/>
    <stop offset="100%" stop-color="#0c0c18"/>
  </linearGradient>
  <!-- Brushed steel tube — barrel/rod -->
  <linearGradient id="barrelr1x9342" x1="0%" y1="0%" x2="100%" y2="0%">
    <stop offset="0%"   stop-color="#0a0a14"/>
    <stop offset="24%"  stop-color="#585875"/>
    <stop offset="50%"  stop-color="#a8a8c8"/>
    <stop offset="76%"  stop-color="#383852"/>
    <stop offset="100%" stop-color="#0a0a14"/>
  </linearGradient>
  <!-- Chrome rod — lance shaft -->
  <linearGradient id="chromer1x9342" x1="0%" y1="0%" x2="100%" y2="0%">
    <stop offset="0%"   stop-color="#0c0c18"/>
    <stop offset="20%"  stop-color="#686888"/>
    <stop offset="44%"  stop-color="#e0e0f0"/>
    <stop offset="56%"  stop-color="#c0c0d8"/>
    <stop offset="80%"  stop-color="#28283e"/>
    <stop offset="100%" stop-color="#0c0c18"/>
  </linearGradient>
  <!-- Titanium plate — shield face -->
  <linearGradient id="titaniumr1x9342" x1="0%" y1="0%" x2="100%" y2="100%">
    <stop offset="0%"   stop-color="#585878"/>
    <stop offset="28%"  stop-color="#ff44aa" stop-opacity=".88"/>
    <stop offset="55%"  stop-color="#880050"/>
    <stop offset="80%"  stop-color="#181828"/>
    <stop offset="100%" stop-color="#0a0a18"/>
  </linearGradient>
  <!-- Artillery black-chrome — cannon body -->
  <linearGradient id="artilleryr1x9342" x1="0%" y1="0%" x2="0%" y2="100%">
    <stop offset="0%"   stop-color="#383850"/>
    <stop offset="14%"  stop-color="#78789a"/>
    <stop offset="36%"  stop-color="#202034"/>
    <stop offset="65%"  stop-color="#14141e"/>
    <stop offset="100%" stop-color="#0a0a12"/>
  </linearGradient>
  <!-- Energy orb — staff -->
  <radialGradient id="orbr1x9342" cx="35%" cy="35%" r="65%">
    <stop offset="0%"   stop-color="rgba(255,255,255,.9)"/>
    <stop offset="30%"  stop-color="#ff44aa"/>
    <stop offset="68%"  stop-color="#880050"/>
    <stop offset="100%" stop-color="rgba(0,0,0,.6)"/>
  </radialGradient>
  <!-- Knuckle plate chrome -->
  <linearGradient id="knuckler1x9342" x1="0%" y1="0%" x2="0%" y2="100%">
    <stop offset="0%"   stop-color="#888aaa"/>
    <stop offset="32%"  stop-color="#ff44aa" stop-opacity=".8"/>
    <stop offset="62%"  stop-color="#1a1a2c"/>
    <stop offset="100%" stop-color="#0a0a14"/>
  </linearGradient>

  <!-- Carbon fibre weave texture overlay -->
  <pattern id="carbonr1x9342" width="6" height="6" patternUnits="userSpaceOnUse">
    <rect width="6" height="6" fill="rgba(0,0,0,.08)"/>
    <rect x="0" y="0" width="3" height="3" fill="rgba(255,255,255,.022)"/>
    <rect x="3" y="3" width="3" height="3" fill="rgba(255,255,255,.022)"/>
    <line x1="0" y1="0" x2="3" y2="3" stroke="rgba(255,255,255,.038)" stroke-width=".5"/>
    <line x1="3" y1="0" x2="6" y2="3" stroke="rgba(0,0,0,.055)"       stroke-width=".5"/>
    <line x1="0" y1="3" x2="3" y2="6" stroke="rgba(0,0,0,.055)"       stroke-width=".5"/>
    <line x1="3" y1="3" x2="6" y2="6" stroke="rgba(255,255,255,.038)" stroke-width=".5"/>
  </pattern>

  <!-- Specular metal sheen on armour panels -->
  <filter id="metalr1x9342" x="-5%" y="-5%" width="110%" height="110%">
    <feSpecularLighting surfaceScale="4" specularConstant="1.8"
        specularExponent="42" lighting-color="#ffffff" result="spec">
      <feDistantLight elevation="52" azimuth="38"/>
    </feSpecularLighting>
    <feComposite in="spec" in2="SourceGraphic" operator="in" result="sm"/>
    <feComposite in="SourceGraphic" in2="sm" operator="arithmetic" k1="0" k2="1" k3="0.55" k4="0"/>
  </filter>

  <!-- Sharper specular for weapons — heavier glare -->
  <filter id="wmr1x9342" x="-8%" y="-8%" width="116%" height="116%">
    <feSpecularLighting surfaceScale="6" specularConstant="2.4"
        specularExponent="65" lighting-color="#ffffff" result="spec">
      <feDistantLight elevation="44" azimuth="28"/>
    </feSpecularLighting>
    <feComposite in="spec" in2="SourceGraphic" operator="in" result="sm"/>
    <feComposite in="SourceGraphic" in2="sm" operator="arithmetic" k1="0" k2="1" k3="0.78" k4="0"/>
  </filter>

  <!-- Sketch wobble -->
  <filter id="skr1x9342" x="-8%" y="-8%" width="116%" height="116%">
    <feTurbulence type="fractalNoise" baseFrequency="0.038"
        numOctaves="3" seed="62" result="noise"/>
    <feDisplacementMap in="SourceGraphic" in2="noise" scale="2.6"
        xChannelSelector="R" yChannelSelector="G" result="w"/>
    <feComposite in="w" in2="SourceGraphic" operator="atop"/>
  </filter>

  <!-- Glow: sharp accent -->
  <filter id="glowr1x9342" x="-20%" y="-20%" width="140%" height="140%">
    <feGaussianBlur stdDeviation="3.5" result="b"/>
    <feColorMatrix in="b" type="matrix"
        values="0 0 0 0 1  0 0 0 0 1  0 0 0 0 1  0 0 0 1.8 0" result="boost"/>
    <feMerge><feMergeNode in="boost"/><feMergeNode in="SourceGraphic"/></feMerge>
  </filter>

  <!-- Bloom: wide soft -->
  <filter id="bloomr1x9342" x="-40%" y="-40%" width="180%" height="180%">
    <feGaussianBlur stdDeviation="11" result="b"/>
    <feMerge><feMergeNode in="b"/><feMergeNode in="SourceGraphic"/></feMerge>
  </filter>

  </defs><rect width="1000" height="1000" fill="url(#bgr1x9342)"/><circle cx="500" cy="500" r="420.0" fill="none" stroke="#ff44aa" stroke-opacity=".11" stroke-width="42" stroke-dasharray="8,5"/><circle cx="500" cy="500" r="240.0" fill="none" stroke="#880050" stroke-opacity=".09" stroke-width="18"/><line x1="500" y1="500" x2="1500.0" y2="500.0" stroke="#ff44aa" stroke-opacity=".035" stroke-width="1.2"/><line x1="500" y1="500" x2="1366.0" y2="1000.0" stroke="#ff44aa" stroke-opacity=".035" stroke-width="1.2"/><line x1="500" y1="500" x2="1000.0" y2="1366.0" stroke="#ff44aa" stroke-opacity=".035" stroke-width="1.2"/><line x1="500" y1="500" x2="500.0" y2="1500.0" stroke="#ff44aa" stroke-opacity=".035" stroke-width="1.2"/><line x1="500" y1="500" x2="0.0" y2="1366.0" stroke="#ff44aa" stroke-opacity=".035" stroke-width="1.2"/><line x1="500" y1="500" x2="-366.0" y2="1000.0" stroke="#ff44aa" stroke-opacity=".035" stroke-width="1.2"/><line x1="500" y1="500" x2="-500.0" y2="500.0" stroke="#ff44aa" stroke-opacity=".035" stroke-width="1.2"/><line x1="500" y1="500" x2="-366.0" y2="-0.0" stroke="#ff44aa" stroke-opacity=".035" stroke-width="1.2"/><line x1="500" y1="500" x2="-0.0" y2="-366.0" stroke="#ff44aa" stroke-opacity=".035" stroke-width="1.2"/><line x1="500" y1="500" x2="500.0" y2="-500.0" stroke="#ff44aa" stroke-opacity=".035" stroke-width="1.2"/><line x1="500" y1="500" x2="1000.0" y2="-366.0" stroke="#ff44aa" stroke-opacity=".035" stroke-width="1.2"/><line x1="500" y1="500" x2="1366.0" y2="-0.0" stroke="#ff44aa" stroke-opacity=".035" stroke-width="1.2"/><ellipse cx="500.0" cy="892.0" rx="350.0" ry="65.0" fill="rgba(0,0,0,.7)" filter="url(#bloomr1x9342)"/><ellipse cx="500.0" cy="889.0" rx="220.0" ry="34.0" fill="rgba(0,0,0,.45)"/><ellipse cx="500.0" cy="520.0" rx="320.0" ry="480.0" fill="#6600ff" fill-opacity=".042" filter="url(#bloomr1x9342)"/><circle cx="593.7" cy="381.2" r="1.0" fill="#6600ff" fill-opacity="0.55" filter="url(#glowr1x9342)"/><circle cx="686.9" cy="796.0" r="2.6" fill="#6600ff" fill-opacity="0.65" filter="url(#glowr1x9342)"/><circle cx="633.6" cy="386.7" r="3.4" fill="#6600ff" fill-opacity="0.68" filter="url(#glowr1x9342)"/><circle cx="682.3" cy="422.8" r="3.9" fill="#6600ff" fill-opacity="0.81" filter="url(#glowr1x9342)"/><circle cx="290.5" cy="654.5" r="2.3" fill="#6600ff" fill-opacity="0.43" filter="url(#glowr1x9342)"/><circle cx="355.6" cy="311.6" r="2.3" fill="#6600ff" fill-opacity="0.74" filter="url(#glowr1x9342)"/><circle cx="537.0" cy="604.1" r="2.9" fill="#6600ff" fill-opacity="0.44" filter="url(#glowr1x9342)"/><circle cx="418.4" cy="346.7" r="2.8" fill="#6600ff" fill-opacity="0.89" filter="url(#glowr1x9342)"/><circle cx="726.7" cy="513.1" r="1.5" fill="#6600ff" fill-opacity="0.58" filter="url(#glowr1x9342)"/><circle cx="471.4" cy="366.9" r="2.8" fill="#6600ff" fill-opacity="0.45" filter="url(#glowr1x9342)"/><circle cx="638.4" cy="345.2" r="0.6" fill="#6600ff" fill-opacity="0.63" filter="url(#glowr1x9342)"/><circle cx="341.4" cy="407.2" r="0.6" fill="#6600ff" fill-opacity="0.56" filter="url(#glowr1x9342)"/><circle cx="257.7" cy="783.9" r="4.0" fill="#6600ff" fill-opacity="0.54" filter="url(#glowr1x9342)"/><circle cx="638.2" cy="290.0" r="2.7" fill="#6600ff" fill-opacity="0.83" filter="url(#glowr1x9342)"/><polygon points="399.6,661.3 488.0,663.9 480.3,877.5 389.0,877.7" fill="url(#suitr1x9342)" stroke="#ff44aa" stroke-width="2.2" filter="url(#skr1x9342) url(#metalr1x9342)"/><polygon points="399.3,661.6 488.0,661.7 481.6,878.5 389.1,876.2" fill="url(#carbonr1x9342)"/><polygon points="392.3,723.3 493.1,724.0 483.5,786.8 385.1,788.3" fill="url(#bevelr1x9342)" fill-opacity=".5" stroke="#ff44aa" stroke-width="1.4" filter="url(#skr1x9342)"/><polygon points="511.7,661.3 599.9,663.4 613.8,876.6 519.7,878.8" fill="url(#suitr1x9342)" stroke="#ff44aa" stroke-width="2.2" filter="url(#skr1x9342) url(#metalr1x9342)"/><polygon points="510.5,664.2 600.9,662.6 613.1,878.7 519.5,877.2" fill="url(#carbonr1x9342)"/><polygon points="507.6,724.0 607.0,723.5 614.6,789.6 514.3,788.8" fill="url(#bevelr1x9342)" fill-opacity=".5" stroke="#ff44aa" stroke-width="1.4" filter="url(#skr1x9342)"/><rect x="392.4" y="840.1" width="100.3" height="24.7" fill="url(#bevelr1x9342)" stroke="#ff44aa" stroke-width="1" filter="url(#skr1x9342)"/><rect x="505.9"  y="839.5" width="100.3" height="24.7" fill="url(#bevelr1x9342)" stroke="#ff44aa" stroke-width="1" filter="url(#skr1x9342)"/><polygon points="370.7,877.5 496.1,878.7 502.6,922.1 363.3,921.1" fill="#880050" stroke="#ff44aa" stroke-width="2" filter="url(#skr1x9342)"/><polygon points="503.0,877.7 631.9,876.3 638.2,920.5 498.3,921.3" fill="#880050" stroke="#ff44aa" stroke-width="2" filter="url(#skr1x9342)"/><polygon points="303.7,634.2 696.9,631.7 638.3,682.0 362.4,681.1" fill="#ff44aa" fill-opacity=".52" stroke="#ff44aa" stroke-width="2" filter="url(#skr1x9342)"/><rect x="465.0" y="636.7" width="72.0" height="42.0" fill="url(#bevelr1x9342)" stroke="#ff44aa" stroke-width="1.4" filter="url(#glowr1x9342)"/><rect x="486.8" y="640.9" width="28.0" height="22.0" rx="1" fill="rgba(255,255,255,.48)"/><polygon points="151.3,465.0 234.3,466.0 258.6,734.1 128.6,734.2" fill="url(#suitr1x9342)" stroke="#ff44aa" stroke-width="2.2" filter="url(#skr1x9342) url(#metalr1x9342)"/><polygon points="173.6,432.9 253.7,431.9 242.8,512.2 158.4,509.1" fill="url(#bevelr1x9342)" fill-opacity=".72" stroke="#ff44aa" stroke-width="2.2" filter="url(#skr1x9342)"/><polygon points="162.8,623.6 243.5,622.5 239.2,660.5 166.3,661.3" fill="#ff44aa" fill-opacity=".42" stroke="#ff44aa" stroke-width="1" filter="url(#skr1x9342)"/><polygon points="763.4,465.0 848.8,467.4 869.8,735.9 741.2,736.3" fill="url(#suitr1x9342)" stroke="#ff44aa" stroke-width="2.2" filter="url(#skr1x9342) url(#metalr1x9342)"/><polygon points="747.0,430.8 826.4,433.0 841.5,510.8 756.1,510.5" fill="url(#bevelr1x9342)" fill-opacity=".72" stroke="#ff44aa" stroke-width="2.2" filter="url(#skr1x9342)"/><polygon points="758.0,621.0 838.3,622.3 834.7,659.4 761.2,659.6" fill="#ff44aa" fill-opacity=".42" stroke="#ff44aa" stroke-width="1" filter="url(#skr1x9342)"/><rect x="120.7"  y="700.3" width="135.3" height="85.0" rx="4" fill="url(#bevelr1x9342)" stroke="#ff44aa" stroke-width="1.8" filter="url(#skr1x9342)"/><rect x="747.7"   y="700.5" width="135.3" height="85.0" rx="4" fill="url(#bevelr1x9342)" stroke="#ff44aa" stroke-width="1.8" filter="url(#skr1x9342)"/><line x1="148.3" y1="702.5" x2="148.3" y2="784.1" stroke="#ff44aa" stroke-opacity=".38" stroke-width="1"/><line x1="776.6" y1="703.4" x2="776.8" y2="783.0" stroke="#ff44aa" stroke-opacity=".38" stroke-width="1"/><line x1="183.6" y1="701.3" x2="182.8" y2="784.9" stroke="#ff44aa" stroke-opacity=".38" stroke-width="1"/><line x1="810.3" y1="702.8" x2="810.4" y2="784.6" stroke="#ff44aa" stroke-opacity=".38" stroke-width="1"/><line x1="214.5" y1="700.6" x2="216.7" y2="783.5" stroke="#ff44aa" stroke-opacity=".38" stroke-width="1"/><line x1="845.5" y1="700.7" x2="845.2" y2="785.5" stroke="#ff44aa" stroke-opacity=".38" stroke-width="1"/><polygon points="234.8,418.5 765.4,417.6 724.4,663.6 279.1,662.3" fill="url(#suitr1x9342)" stroke="#ff44aa" stroke-width="2.6" filter="url(#skr1x9342) url(#metalr1x9342)"/><polygon points="236.1,417.9 764.5,418.2 721.0,663.9 276.5,662.2" fill="url(#carbonr1x9342)"/><polygon points="366.6,419.3 632.7,416.1 610.8,515.0 388.6,516.0" fill="url(#suitHir1x9342)"/><line x1="360.5" y1="471.0" x2="636.8" y2="472.3" stroke="#ff44aa" stroke-opacity=".52" stroke-width="1.3" filter="url(#skr1x9342)"/><line x1="400.0" y1="550.6" x2="599.9" y2="548.7" stroke="#ff44aa" stroke-opacity=".52" stroke-width="1.3" filter="url(#skr1x9342)"/><line x1="268.0" y1="491.8" x2="320.9" y2="490.8" stroke="#ff44aa" stroke-opacity=".62" stroke-width="1.8"/><line x1="678.8" y1="491.5" x2="734.5" y2="492.6" stroke="#ff44aa" stroke-opacity=".62" stroke-width="1.8"/><line x1="267.4" y1="523.3" x2="318.3" y2="523.5" stroke="#ff44aa" stroke-opacity=".62" stroke-width="1.8"/><line x1="682.0" y1="521.6" x2="734.4" y2="522.1" stroke="#ff44aa" stroke-opacity=".62" stroke-width="1.8"/><line x1="267.9" y1="556.1" x2="321.0" y2="554.2" stroke="#ff44aa" stroke-opacity=".62" stroke-width="1.8"/><line x1="678.5" y1="555.6" x2="732.1" y2="553.5" stroke="#ff44aa" stroke-opacity=".62" stroke-width="1.8"/><line x1="266.7" y1="588.3" x2="319.2" y2="586.5" stroke="#ff44aa" stroke-opacity=".62" stroke-width="1.8"/><line x1="680.5" y1="586.1" x2="732.5" y2="587.4" stroke="#ff44aa" stroke-opacity=".62" stroke-width="1.8"/><g filter="url(#glowr1x9342)"><polygon points="461.5,529.5 463.0,498.5 481.8,466.8 499.7,499.1 518.9,468.3 538.0,498.7 539.3,529.4" fill="#ff44aa" stroke="#0e001e" stroke-width="1.4" filter="url(#skr1x9342)"/><polygon points="463.6,530.9 462.4,497.2 481.6,469.2 498.9,497.5 517.3,467.1 536.4,498.6 539.0,530.9" fill="url(#suitHir1x9342)" opacity=".38"/></g><g><polygon points="871.8,671.4 923.8,671.4 908.2,-28.6 887.4,-28.6" fill="url(#blader1x9342)" filter="url(#wmr1x9342)"/><polygon points="887.4,-28.6 908.2,-28.6 897.8,-138.6" fill="url(#blader1x9342)" filter="url(#wmr1x9342)"/><polygon points="896.0,671.4 899.7,671.4 898.4,-128.6 897.3,-128.6" fill="url(#bladeTipr1x9342)" opacity=".9"/><line x1="906.0558255909942" y1="671.0624579111114" x2="899.1057022224367" y2="-129.796723778639" stroke="rgba(255,255,255,.68)" stroke-width="1.5"/><line x1="888.538705196064" y1="670.9477333431132" x2="896.8124041161501" y2="-128.25835081543775" stroke="#ff44aa" stroke-width="1" stroke-opacity=".45"/><line x1="902.5" y1="651.4" x2="899.7" y2="11.4" stroke="rgba(0,0,0,.38)" stroke-width="1.6"/><line x1="893.2" y1="651.4" x2="896.0" y2="11.4" stroke="rgba(0,0,0,.38)" stroke-width="1.6"/><rect x="842.771680742465" y="669.2709997684694" width="112.0" height="28.0" rx="3" fill="url(#bevelr1x9342)" stroke="#ff44aa" stroke-width="1.6" filter="url(#wmr1x9342)"/><rect x="866.3207079446503" y="671.8664735261351" width="64.0" height="10.0" rx="1" fill="rgba(255,255,255,.32)"/><rect x="884.687782061901" y="678.9852167587727" width="24.0" height="6.0" rx="1" fill="#ff44aa" fill-opacity=".35"/><rect x="884.68714172557" y="683.9635493943467" width="24.0" height="6.0" rx="1" fill="#ff44aa" fill-opacity=".35"/><rect x="886.7355210261047" y="692.9118001468479" width="24.0" height="6.0" rx="1" fill="#ff44aa" fill-opacity=".35"/><rect x="886.6490164795518" y="702.1799837412312" width="24.0" height="6.0" rx="1" fill="#ff44aa" fill-opacity=".35"/><rect x="884.2953816916421" y="708.1395852521993" width="24.0" height="6.0" rx="1" fill="#ff44aa" fill-opacity=".35"/><rect x="885.1729584343359" y="718.7139548868872" width="24.0" height="6.0" rx="1" fill="#ff44aa" fill-opacity=".35"/><ellipse cx="898.9193322457933" cy="727.5681058296933" rx="22.0" ry="16.0" fill="url(#bevelr1x9342)" stroke="#ff44aa" stroke-width="1.2" filter="url(#wmr1x9342)"/></g><rect x="449.9030311510898" y="558.6494043933227" width="100.0"  height="56.0" fill="#880050" stroke="#ff44aa" stroke-width="2.2" filter="url(#skr1x9342)"/><rect x="422.4371560453437" y="575.5611856018194" width="152.0" height="26.0" fill="url(#bevelr1x9342)" fill-opacity=".65" stroke="#ff44aa" stroke-width="1.2" filter="url(#skr1x9342)"/><polygon points="309.6,380.7 351.6,296.2 501.6,277.8 648.8,292.9 692.6,381.2 669.4,505.1 498.7,563.9 330.2,504.4" fill="url(#suitr1x9342)" stroke="#ff44aa" stroke-width="2.8" filter="url(#skr1x9342) url(#metalr1x9342)"/><polygon points="308.7,382.0 350.4,294.1 500.2,278.6 651.0,294.8 692.8,381.7 667.8,505.2 500.6,564.4 331.3,505.3" fill="url(#carbonr1x9342)"/><polygon points="381.8,303.2 498.6,288.0 618.0,302.3 606.0,381.4 393.5,382.1" fill="url(#suitHir1x9342)"/><polygon points="379.8,382.2 365.2,426.1 431.2,505.0 500.0,527.2 567.7,504.8 634.2,426.2 617.5,380.9" fill="#0e001e" fill-opacity=".88" stroke="#ff44aa" stroke-width="1.8" filter="url(#skr1x9342)"/><polygon points="379.9,411.7 475.7,411.7 485.9,439.1 390.3,441.5" fill="#ff44aa" filter="url(#glowr1x9342)"/><polygon points="522.3,411.1 620.3,410.6 611.7,440.9 516.8,440.5" fill="#ff44aa" filter="url(#glowr1x9342)"/><ellipse cx="430.9" cy="425.7" rx="38.4"  ry="8.2" fill="#ffffff" opacity=".88"/><ellipse cx="569.1" cy="425.7" rx="38.4"  ry="8.2" fill="#ffffff" opacity=".88"/><line x1="484.92865351546556" y1="414.3992462790571" x2="513.8589084789529" y2="412.6447646384127" stroke="#ff44aa" stroke-opacity=".52" stroke-width="2"/><line x1="483.18922529766337" y1="437.5974938331172" x2="515.267126938738" y2="439.0812433222309" stroke="#ff44aa" stroke-opacity=".52" stroke-width="2"/><line x1="500.01406525764617" y1="454.6806522889994" x2="498.9773469084874" y2="483.4154048967175" stroke="#ff44aa" stroke-opacity=".58" stroke-width="2.2" filter="url(#skr1x9342)"/><line x1="455.58030652448537" y1="493.075839736592" x2="454.0167719747685" y2="521.2277443280443" stroke="#ff44aa" stroke-opacity=".52" stroke-width="1.5" filter="url(#skr1x9342)"/><line x1="476.7273078981228" y1="489.93414233690123" x2="476.6323997903988" y2="518.5411254086532" stroke="#ff44aa" stroke-opacity=".52" stroke-width="1.5" filter="url(#skr1x9342)"/><line x1="501.13973607895895" y1="491.13910397402935" x2="501.161987643037" y2="521.6867756350897" stroke="#ff44aa" stroke-opacity=".52" stroke-width="1.5" filter="url(#skr1x9342)"/><line x1="521.5137379749306" y1="490.9595201998949" x2="523.5225307076796" y2="519.0794507644139" stroke="#ff44aa" stroke-opacity=".52" stroke-width="1.5" filter="url(#skr1x9342)"/><line x1="545.9250378434733" y1="491.4627087256871" x2="546.742585864123" y2="520.1595819396898" stroke="#ff44aa" stroke-opacity=".52" stroke-width="1.5" filter="url(#skr1x9342)"/><polygon points="433.3,505.3 567.9,502.2 554.7,557.5 445.7,558.2" fill="#880050" fill-opacity=".72" stroke="#ff44aa" stroke-width="1.3" filter="url(#skr1x9342)"/><text x="30.0"  y="975.0" font-family="monospace" font-weight="bold" font-size="22.0" fill="rgba(255,255,255,.22)">#0001</text><text x="500.0"   y="975.0" text-anchor="middle" font-family="monospace" font-weight="bold" font-size="22.0" fill="#ff44aa" fill-opacity=".48">SAKURA RANGER</text><text x="970.0" y="975.0" text-anchor="end"    font-family="monospace" font-weight="bold" font-size="22.0" fill="#ff44aa" fill-opacity=".32">MECH RANGERS</text></svg>