<svg xmlns="http://www.w3.org/2000/svg" viewBox="0 0 1000 1000" width="1000" height="1000" shape-rendering="geometricPrecision"><defs>

  <!-- Scene gradients -->
  <radialGradient id="bgr1x9472" cx="50%" cy="42%" r="72%">
    <stop offset="0%"   stop-color="#1a2814"/>
    <stop offset="100%" stop-color="#0d1520"/>
  </radialGradient>
  <linearGradient id="suitr1x9472" x1="8%" y1="0%" x2="92%" y2="100%">
    <stop offset="0%"   stop-color="#ff00ff" stop-opacity=".95"/>
    <stop offset="45%"  stop-color="#050508"/>
    <stop offset="100%" stop-color="#0d1520"/>
  </linearGradient>
  <linearGradient id="suitHir1x9472" x1="0%" y1="0%" x2="0%" y2="100%">
    <stop offset="0%"   stop-color="rgba(255,255,255,.28)"/>
    <stop offset="60%"  stop-color="rgba(255,255,255,.04)"/>
    <stop offset="100%" stop-color="rgba(255,255,255,0)"/>
  </linearGradient>
  <!-- Bevel: bright top, dark bottom for armour panels -->
  <linearGradient id="bevelr1x9472" x1="0%" y1="0%" x2="0%" y2="100%">
    <stop offset="0%"   stop-color="rgba(255,255,255,.55)"/>
    <stop offset="30%"  stop-color="#ff00ff"/>
    <stop offset="70%"  stop-color="#050508"/>
    <stop offset="100%" stop-color="rgba(0,0,0,.5)"/>
  </linearGradient>

  <!-- Weapon: cold steel blade sweep -->
  <linearGradient id="blader1x9472" x1="0%" y1="0%" x2="100%" y2="0%">
    <stop offset="0%"   stop-color="#0e0e20"/>
    <stop offset="16%"  stop-color="#3e3e58"/>
    <stop offset="34%"  stop-color="#c8c8e0"/>
    <stop offset="50%"  stop-color="#f5f5ff"/>
    <stop offset="66%"  stop-color="#b8b8d0"/>
    <stop offset="84%"  stop-color="#2e2e48"/>
    <stop offset="100%" stop-color="#08080e"/>
  </linearGradient>
  <!-- Blade tip brightening -->
  <linearGradient id="bladeTipr1x9472" x1="0%" y1="100%" x2="0%" y2="0%">
    <stop offset="0%"   stop-color="rgba(255,255,255,0)"/>
    <stop offset="55%"  stop-color="rgba(255,255,255,.1)"/>
    <stop offset="100%" stop-color="rgba(255,255,255,.55)"/>
  </linearGradient>
  <!-- Gunmetal anodised — blaster body -->
  <linearGradient id="gunmetalr1x9472" x1="0%" y1="0%" x2="0%" y2="100%">
    <stop offset="0%"   stop-color="#46465e"/>
    <stop offset="18%"  stop-color="#828296"/>
    <stop offset="42%"  stop-color="#26263a"/>
    <stop offset="72%"  stop-color="#16162a"/>
    <stop offset="100%" stop-color="#0c0c18"/>
  </linearGradient>
  <!-- Brushed steel tube — barrel/rod -->
  <linearGradient id="barrelr1x9472" x1="0%" y1="0%" x2="100%" y2="0%">
    <stop offset="0%"   stop-color="#0a0a14"/>
    <stop offset="24%"  stop-color="#585875"/>
    <stop offset="50%"  stop-color="#a8a8c8"/>
    <stop offset="76%"  stop-color="#383852"/>
    <stop offset="100%" stop-color="#0a0a14"/>
  </linearGradient>
  <!-- Chrome rod — lance shaft -->
  <linearGradient id="chromer1x9472" x1="0%" y1="0%" x2="100%" y2="0%">
    <stop offset="0%"   stop-color="#0c0c18"/>
    <stop offset="20%"  stop-color="#686888"/>
    <stop offset="44%"  stop-color="#e0e0f0"/>
    <stop offset="56%"  stop-color="#c0c0d8"/>
    <stop offset="80%"  stop-color="#28283e"/>
    <stop offset="100%" stop-color="#0c0c18"/>
  </linearGradient>
  <!-- Titanium plate — shield face -->
  <linearGradient id="titaniumr1x9472" x1="0%" y1="0%" x2="100%" y2="100%">
    <stop offset="0%"   stop-color="#585878"/>
    <stop offset="28%"  stop-color="#ff00ff" stop-opacity=".88"/>
    <stop offset="55%"  stop-color="#050508"/>
    <stop offset="80%"  stop-color="#181828"/>
    <stop offset="100%" stop-color="#0a0a18"/>
  </linearGradient>
  <!-- Artillery black-chrome — cannon body -->
  <linearGradient id="artilleryr1x9472" x1="0%" y1="0%" x2="0%" y2="100%">
    <stop offset="0%"   stop-color="#383850"/>
    <stop offset="14%"  stop-color="#78789a"/>
    <stop offset="36%"  stop-color="#202034"/>
    <stop offset="65%"  stop-color="#14141e"/>
    <stop offset="100%" stop-color="#0a0a12"/>
  </linearGradient>
  <!-- Energy orb — staff -->
  <radialGradient id="orbr1x9472" cx="35%" cy="35%" r="65%">
    <stop offset="0%"   stop-color="rgba(255,255,255,.9)"/>
    <stop offset="30%"  stop-color="#ff00ff"/>
    <stop offset="68%"  stop-color="#050508"/>
    <stop offset="100%" stop-color="rgba(0,0,0,.6)"/>
  </radialGradient>
  <!-- Knuckle plate chrome -->
  <linearGradient id="knuckler1x9472" x1="0%" y1="0%" x2="0%" y2="100%">
    <stop offset="0%"   stop-color="#888aaa"/>
    <stop offset="32%"  stop-color="#ff00ff" stop-opacity=".8"/>
    <stop offset="62%"  stop-color="#1a1a2c"/>
    <stop offset="100%" stop-color="#0a0a14"/>
  </linearGradient>

  <!-- Carbon fibre weave texture overlay -->
  <pattern id="carbonr1x9472" width="6" height="6" patternUnits="userSpaceOnUse">
    <rect width="6" height="6" fill="rgba(0,0,0,.08)"/>
    <rect x="0" y="0" width="3" height="3" fill="rgba(255,255,255,.022)"/>
    <rect x="3" y="3" width="3" height="3" fill="rgba(255,255,255,.022)"/>
    <line x1="0" y1="0" x2="3" y2="3" stroke="rgba(255,255,255,.038)" stroke-width=".5"/>
    <line x1="3" y1="0" x2="6" y2="3" stroke="rgba(0,0,0,.055)"       stroke-width=".5"/>
    <line x1="0" y1="3" x2="3" y2="6" stroke="rgba(0,0,0,.055)"       stroke-width=".5"/>
    <line x1="3" y1="3" x2="6" y2="6" stroke="rgba(255,255,255,.038)" stroke-width=".5"/>
  </pattern>

  <!-- Specular metal sheen on armour panels -->
  <filter id="metalr1x9472" x="-5%" y="-5%" width="110%" height="110%">
    <feSpecularLighting surfaceScale="4" specularConstant="1.8"
        specularExponent="42" lighting-color="#ffffff" result="spec">
      <feDistantLight elevation="52" azimuth="38"/>
    </feSpecularLighting>
    <feComposite in="spec" in2="SourceGraphic" operator="in" result="sm"/>
    <feComposite in="SourceGraphic" in2="sm" operator="arithmetic" k1="0" k2="1" k3="0.55" k4="0"/>
  </filter>

  <!-- Sharper specular for weapons — heavier glare -->
  <filter id="wmr1x9472" x="-8%" y="-8%" width="116%" height="116%">
    <feSpecularLighting surfaceScale="6" specularConstant="2.4"
        specularExponent="65" lighting-color="#ffffff" result="spec">
      <feDistantLight elevation="44" azimuth="28"/>
    </feSpecularLighting>
    <feComposite in="spec" in2="SourceGraphic" operator="in" result="sm"/>
    <feComposite in="SourceGraphic" in2="sm" operator="arithmetic" k1="0" k2="1" k3="0.78" k4="0"/>
  </filter>

  <!-- Sketch wobble -->
  <filter id="skr1x9472" x="-8%" y="-8%" width="116%" height="116%">
    <feTurbulence type="fractalNoise" baseFrequency="0.038"
        numOctaves="3" seed="18" result="noise"/>
    <feDisplacementMap in="SourceGraphic" in2="noise" scale="2.6"
        xChannelSelector="R" yChannelSelector="G" result="w"/>
    <feComposite in="w" in2="SourceGraphic" operator="atop"/>
  </filter>

  <!-- Glow: sharp accent -->
  <filter id="glowr1x9472" x="-20%" y="-20%" width="140%" height="140%">
    <feGaussianBlur stdDeviation="3.5" result="b"/>
    <feColorMatrix in="b" type="matrix"
        values="0 0 0 0 1  0 0 0 0 1  0 0 0 0 1  0 0 0 1.8 0" result="boost"/>
    <feMerge><feMergeNode in="boost"/><feMergeNode in="SourceGraphic"/></feMerge>
  </filter>

  <!-- Bloom: wide soft -->
  <filter id="bloomr1x9472" x="-40%" y="-40%" width="180%" height="180%">
    <feGaussianBlur stdDeviation="11" result="b"/>
    <feMerge><feMergeNode in="b"/><feMergeNode in="SourceGraphic"/></feMerge>
  </filter>

  </defs><rect width="1000" height="1000" fill="url(#bgr1x9472)"/><ellipse cx="500.0" cy="892.0" rx="350.0" ry="65.0" fill="rgba(0,0,0,.7)" filter="url(#bloomr1x9472)"/><ellipse cx="500.0" cy="889.0" rx="220.0" ry="34.0" fill="rgba(0,0,0,.45)"/><polygon points="399.0,661.8 489.5,661.9 479.2,875.9 387.5,879.3" fill="url(#suitr1x9472)" stroke="#ff00ff" stroke-width="2.2" filter="url(#skr1x9472) url(#metalr1x9472)"/><polygon points="400.3,662.8 489.9,663.5 480.2,875.7 388.5,879.0" fill="url(#carbonr1x9472)"/><polygon points="393.7,724.3 491.6,723.0 484.5,788.4 384.7,789.0" fill="url(#bevelr1x9472)" fill-opacity=".5" stroke="#ff00ff" stroke-width="1.4" filter="url(#skr1x9472)"/><polygon points="510.5,663.6 599.8,662.3 612.0,876.5 518.4,878.1" fill="url(#suitr1x9472)" stroke="#ff00ff" stroke-width="2.2" filter="url(#skr1x9472) url(#metalr1x9472)"/><polygon points="512.3,661.7 602.1,664.0 612.8,876.2 520.0,876.8" fill="url(#carbonr1x9472)"/><polygon points="507.3,722.7 606.8,723.9 614.7,789.8 515.4,788.5" fill="url(#bevelr1x9472)" fill-opacity=".5" stroke="#ff00ff" stroke-width="1.4" filter="url(#skr1x9472)"/><rect x="393.9" y="838.3" width="100.3" height="24.7" fill="url(#bevelr1x9472)" stroke="#ff00ff" stroke-width="1" filter="url(#skr1x9472)"/><rect x="506.5"  y="839.5" width="100.3" height="24.7" fill="url(#bevelr1x9472)" stroke="#ff00ff" stroke-width="1" filter="url(#skr1x9472)"/><polygon points="370.9,877.7 495.8,877.7 502.9,923.3 362.3,923.2" fill="#050508" stroke="#ff00ff" stroke-width="2" filter="url(#skr1x9472)"/><polygon points="504.9,879.1 628.6,877.8 639.0,920.3 497.4,923.1" fill="#050508" stroke="#ff00ff" stroke-width="2" filter="url(#skr1x9472)"/><polygon points="303.9,634.3 695.7,634.5 638.3,681.6 361.7,682.2" fill="#ff00ff" fill-opacity=".52" stroke="#ff00ff" stroke-width="2" filter="url(#skr1x9472)"/><rect x="463.8" y="636.4" width="72.0" height="42.0" fill="url(#bevelr1x9472)" stroke="#ff00ff" stroke-width="1.4" filter="url(#glowr1x9472)"/><rect x="487.6" y="638.9" width="28.0" height="22.0" rx="1" fill="rgba(255,255,255,.48)"/><polygon points="154.0,465.7 235.9,465.3 258.9,733.7 128.1,734.1" fill="url(#suitr1x9472)" stroke="#ff00ff" stroke-width="2.2" filter="url(#skr1x9472) url(#metalr1x9472)"/><polygon points="173.3,431.9 252.9,430.7 242.0,509.1 161.2,511.5" fill="url(#bevelr1x9472)" fill-opacity=".72" stroke="#ff00ff" stroke-width="2.2" filter="url(#skr1x9472)"/><polygon points="160.0,620.3 242.2,623.5 238.2,662.4 165.7,660.3" fill="#ff00ff" fill-opacity=".42" stroke="#ff00ff" stroke-width="1" filter="url(#skr1x9472)"/><polygon points="766.6,467.9 846.8,467.3 871.3,735.6 741.2,735.6" fill="url(#suitr1x9472)" stroke="#ff00ff" stroke-width="2.2" filter="url(#skr1x9472) url(#metalr1x9472)"/><polygon points="745.6,430.8 826.9,432.3 841.7,509.1 758.1,509.1" fill="url(#bevelr1x9472)" fill-opacity=".72" stroke="#ff00ff" stroke-width="2.2" filter="url(#skr1x9472)"/><polygon points="756.2,623.2 840.2,621.1 835.4,660.2 760.2,661.3" fill="#ff00ff" fill-opacity=".42" stroke="#ff00ff" stroke-width="1" filter="url(#skr1x9472)"/><rect x="119.5"  y="699.3" width="135.3" height="85.0" rx="4" fill="url(#bevelr1x9472)" stroke="#ff00ff" stroke-width="1.8" filter="url(#skr1x9472)"/><rect x="749.2"   y="698.6" width="135.3" height="85.0" rx="4" fill="url(#bevelr1x9472)" stroke="#ff00ff" stroke-width="1.8" filter="url(#skr1x9472)"/><line x1="148.9" y1="703.1" x2="149.1" y2="784.0" stroke="#ff00ff" stroke-opacity=".38" stroke-width="1"/><line x1="779.3" y1="702.9" x2="777.4" y2="784.6" stroke="#ff00ff" stroke-opacity=".38" stroke-width="1"/><line x1="183.7" y1="701.3" x2="182.4" y2="784.7" stroke="#ff00ff" stroke-opacity=".38" stroke-width="1"/><line x1="811.9" y1="700.1" x2="811.2" y2="785.4" stroke="#ff00ff" stroke-opacity=".38" stroke-width="1"/><line x1="213.6" y1="701.5" x2="214.1" y2="784.3" stroke="#ff00ff" stroke-opacity=".38" stroke-width="1"/><line x1="845.1" y1="700.2" x2="843.4" y2="783.5" stroke="#ff00ff" stroke-opacity=".38" stroke-width="1"/><polygon points="233.4,419.0 766.0,415.8 722.9,663.5 278.5,662.5" fill="url(#suitr1x9472)" stroke="#ff00ff" stroke-width="2.6" filter="url(#skr1x9472) url(#metalr1x9472)"/><polygon points="235.4,419.0 764.5,417.2 720.9,661.0 276.2,661.8" fill="url(#carbonr1x9472)"/><polygon points="368.7,418.3 631.3,417.5 611.7,515.8 389.8,517.0" fill="url(#suitHir1x9472)"/><line x1="363.9" y1="471.9" x2="636.1" y2="470.2" stroke="#ff00ff" stroke-opacity=".52" stroke-width="1.3" filter="url(#skr1x9472)"/><line x1="397.6" y1="549.7" x2="601.0" y2="548.4" stroke="#ff00ff" stroke-opacity=".52" stroke-width="1.3" filter="url(#skr1x9472)"/><line x1="266.9" y1="491.9" x2="321.4" y2="490.5" stroke="#ff00ff" stroke-opacity=".62" stroke-width="1.8"/><line x1="681.1" y1="491.1" x2="731.8" y2="491.0" stroke="#ff00ff" stroke-opacity=".62" stroke-width="1.8"/><line x1="266.6" y1="524.2" x2="319.2" y2="521.4" stroke="#ff00ff" stroke-opacity=".62" stroke-width="1.8"/><line x1="679.5" y1="522.5" x2="732.1" y2="523.4" stroke="#ff00ff" stroke-opacity=".62" stroke-width="1.8"/><line x1="265.5" y1="555.7" x2="318.6" y2="554.0" stroke="#ff00ff" stroke-opacity=".62" stroke-width="1.8"/><line x1="681.1" y1="556.4" x2="733.0" y2="555.5" stroke="#ff00ff" stroke-opacity=".62" stroke-width="1.8"/><line x1="265.4" y1="585.1" x2="320.3" y2="587.9" stroke="#ff00ff" stroke-opacity=".62" stroke-width="1.8"/><line x1="679.9" y1="587.9" x2="732.2" y2="587.8" stroke="#ff00ff" stroke-opacity=".62" stroke-width="1.8"/><g filter="url(#glowr1x9472)"><circle cx="500.0" cy="499.9" r="31.3" fill="#ff00ff" stroke="#0d1520" stroke-width="1.4" filter="url(#skr1x9472)"/><circle cx="486.7" cy="496.3" r="7.0" fill="#0d1520"/><circle cx="510.3" cy="497.7" r="7.0" fill="#0d1520"/><rect x="485.3" y="523.3" width="9.3" height="17.4" rx="1" fill="#ff00ff" stroke="#0d1520" stroke-width=".6"/><rect x="497.1" y="522.6" width="9.3" height="17.4" rx="1" fill="#ff00ff" stroke="#0d1520" stroke-width=".6"/><rect x="507.4" y="522.0" width="9.3" height="17.4" rx="1" fill="#ff00ff" stroke="#0d1520" stroke-width=".6"/></g><g><line x1="896.3522441698798" y1="832.2283793355338" x2="897.3349348784052" y2="110.20684906123203" stroke="url(#chromer1x9472)" stroke-width="22.0" stroke-linecap="round" filter="url(#wmr1x9472)"/><line x1="902.7760857301392" y1="810.0955752389506" x2="900.9544360478968" y2="131.55746558625248" stroke="rgba(255,255,255,.35)" stroke-width="4.0" stroke-linecap="round"/><rect x="883.4774544104562" y="622.0558394152671" width="32.0" height="18.0" fill="url(#bevelr1x9472)" stroke="#ff00ff" stroke-width=".8" filter="url(#wmr1x9472)"/><rect x="883.0801907300577" y="440.2681255427189" width="32.0" height="18.0" fill="url(#bevelr1x9472)" stroke="#ff00ff" stroke-width=".8" filter="url(#wmr1x9472)"/><rect x="883.3919482902252" y="262.33223068583754" width="32.0" height="18.0" fill="url(#bevelr1x9472)" stroke="#ff00ff" stroke-width=".8" filter="url(#wmr1x9472)"/><circle cx="896.6473148251512" cy="112.81616544025016" r="58.0" fill="rgba(0,0,0,.52)" stroke="#ff00ff" stroke-width="2.2" filter="url(#wmr1x9472)"/><circle cx="899.2918697376364" cy="110.07921806219963" r="46.0" fill="url(#orbr1x9472)" filter="url(#bloomr1x9472)"/><circle cx="897.9034814525954" cy="113.03628296572712" r="20.0" fill="#ff00ff" filter="url(#glowr1x9472)"/><circle cx="897.6368382859603" cy="112.39396568089721" r="66.0" fill="none" stroke="#ff00ff" stroke-opacity=".4" stroke-width="1.3" stroke-dasharray="4,4"/><ellipse cx="898.2728138479963" cy="110.17104910034683" rx="66.0" ry="30.0" fill="none" stroke="#ff00ff" stroke-opacity=".24" stroke-width="1" stroke-dasharray="3,5" transform="rotate(60,897.8,111.4)"/></g><rect x="451.0276721600443" y="557.3558261536061" width="100.0"  height="56.0" fill="#050508" stroke="#ff00ff" stroke-width="2.2" filter="url(#skr1x9472)"/><rect x="425.1769166365266" y="576.9592924118973" width="152.0" height="26.0" fill="url(#bevelr1x9472)" fill-opacity=".65" stroke="#ff00ff" stroke-width="1.2" filter="url(#skr1x9472)"/><polygon points="308.6,380.7 348.8,296.2 499.1,279.8 649.7,295.9 691.7,381.3 668.4,505.3 499.9,563.7 331.7,503.0" fill="url(#suitr1x9472)" stroke="#ff00ff" stroke-width="2.8" filter="url(#skr1x9472) url(#metalr1x9472)"/><polygon points="308.4,382.0 351.4,295.7 499.7,277.3 650.2,295.8 691.8,378.8 669.8,504.2 498.8,566.4 330.9,503.3" fill="url(#carbonr1x9472)"/><polygon points="379.8,302.7 499.1,286.2 618.4,304.3 606.6,379.2 393.4,382.3" fill="url(#suitHir1x9472)"/><polygon points="381.8,382.2 365.6,425.3 433.1,502.5 501.6,529.7 569.0,504.1 633.8,425.2 619.1,379.7" fill="#0d1520" fill-opacity=".88" stroke="#ff00ff" stroke-width="1.8" filter="url(#skr1x9472)"/><polygon points="381.2,409.7 476.4,409.6 483.2,441.3 389.3,439.3" fill="#ff00ff" filter="url(#glowr1x9472)"/><polygon points="521.7,410.1 619.4,411.5 609.6,440.0 514.2,441.5" fill="#ff00ff" filter="url(#glowr1x9472)"/><ellipse cx="430.9" cy="425.7" rx="38.4"  ry="8.2" fill="#ffffff" opacity=".88"/><ellipse cx="569.1" cy="425.7" rx="38.4"  ry="8.2" fill="#ffffff" opacity=".88"/><line x1="485.1756606900692" y1="411.9238263859413" x2="514.5190988689102" y2="414.4560914780013" stroke="#ff00ff" stroke-opacity=".52" stroke-width="2"/><line x1="485.1710991904698" y1="439.3571956459433" x2="514.7912140612863" y2="437.346915437188" stroke="#ff00ff" stroke-opacity=".52" stroke-width="2"/><line x1="499.71356119038535" y1="452.70271647078914" x2="501.00674778986723" y2="484.89192143203695" stroke="#ff00ff" stroke-opacity=".58" stroke-width="2.2" filter="url(#skr1x9472)"/><line x1="452.84464152062316" y1="491.24717730488624" x2="454.46684359645474" y2="521.0508434544317" stroke="#ff00ff" stroke-opacity=".52" stroke-width="1.5" filter="url(#skr1x9472)"/><line x1="477.9812717563845" y1="491.5798590089194" x2="477.1363982988894" y2="520.2843271835707" stroke="#ff00ff" stroke-opacity=".52" stroke-width="1.5" filter="url(#skr1x9472)"/><line x1="498.22048668563366" y1="491.2182934660464" x2="499.5716906378977" y2="519.967079864908" stroke="#ff00ff" stroke-opacity=".52" stroke-width="1.5" filter="url(#skr1x9472)"/><line x1="521.3831075797416" y1="490.1626513284631" x2="524.4822029683367" y2="521.4156257035211" stroke="#ff00ff" stroke-opacity=".52" stroke-width="1.5" filter="url(#skr1x9472)"/><line x1="546.354966006726" y1="490.29561812886965" x2="545.9559621049278" y2="521.7180610735901" stroke="#ff00ff" stroke-opacity=".52" stroke-width="1.5" filter="url(#skr1x9472)"/><polygon points="432.2,504.3 567.5,501.8 554.4,555.7 446.8,556.8" fill="#050508" fill-opacity=".72" stroke="#ff00ff" stroke-width="1.3" filter="url(#skr1x9472)"/><polygon points="475.5,303.4 523.2,301.7 513.2,175.2 490.1,176.7" fill="url(#bevelr1x9472)" stroke="#ff00ff" stroke-width="2.2" filter="url(#skr1x9472)"/><polygon points="364.1,321.8 456.7,322.8 471.0,227.7" fill="url(#bevelr1x9472)" fill-opacity=".78" stroke="#ff00ff" stroke-width="1.5" filter="url(#skr1x9472)"/><polygon points="543.9,323.4 632.9,323.2 532.0,230.6" fill="url(#bevelr1x9472)" fill-opacity=".78" stroke="#ff00ff" stroke-width="1.5" filter="url(#skr1x9472)"/><text x="30.0"  y="975.0" font-family="monospace" font-weight="bold" font-size="22.0" fill="rgba(255,255,255,.22)">#0001</text><text x="500.0"   y="975.0" text-anchor="middle" font-family="monospace" font-weight="bold" font-size="22.0" fill="#ff00ff" fill-opacity=".48">VOID RANGER</text><text x="970.0" y="975.0" text-anchor="end"    font-family="monospace" font-weight="bold" font-size="22.0" fill="#ff00ff" fill-opacity=".32">MECH RANGERS</text></svg>