<svg xmlns="http://www.w3.org/2000/svg" viewBox="0 0 1000 1000" width="1000" height="1000" shape-rendering="geometricPrecision"><defs>

  <!-- Scene gradients -->
  <radialGradient id="bgr1x9486" cx="50%" cy="42%" r="72%">
    <stop offset="0%"   stop-color="#0a0a14"/>
    <stop offset="100%" stop-color="#050508"/>
  </radialGradient>
  <linearGradient id="suitr1x9486" x1="8%" y1="0%" x2="92%" y2="100%">
    <stop offset="0%"   stop-color="#2060ff" stop-opacity=".95"/>
    <stop offset="45%"  stop-color="#003ccc"/>
    <stop offset="100%" stop-color="#050508"/>
  </linearGradient>
  <linearGradient id="suitHir1x9486" x1="0%" y1="0%" x2="0%" y2="100%">
    <stop offset="0%"   stop-color="rgba(255,255,255,.28)"/>
    <stop offset="60%"  stop-color="rgba(255,255,255,.04)"/>
    <stop offset="100%" stop-color="rgba(255,255,255,0)"/>
  </linearGradient>
  <!-- Bevel: bright top, dark bottom for armour panels -->
  <linearGradient id="bevelr1x9486" x1="0%" y1="0%" x2="0%" y2="100%">
    <stop offset="0%"   stop-color="rgba(255,255,255,.55)"/>
    <stop offset="30%"  stop-color="#2060ff"/>
    <stop offset="70%"  stop-color="#003ccc"/>
    <stop offset="100%" stop-color="rgba(0,0,0,.5)"/>
  </linearGradient>

  <!-- Weapon: cold steel blade sweep -->
  <linearGradient id="blader1x9486" x1="0%" y1="0%" x2="100%" y2="0%">
    <stop offset="0%"   stop-color="#0e0e20"/>
    <stop offset="16%"  stop-color="#3e3e58"/>
    <stop offset="34%"  stop-color="#c8c8e0"/>
    <stop offset="50%"  stop-color="#f5f5ff"/>
    <stop offset="66%"  stop-color="#b8b8d0"/>
    <stop offset="84%"  stop-color="#2e2e48"/>
    <stop offset="100%" stop-color="#08080e"/>
  </linearGradient>
  <!-- Blade tip brightening -->
  <linearGradient id="bladeTipr1x9486" x1="0%" y1="100%" x2="0%" y2="0%">
    <stop offset="0%"   stop-color="rgba(255,255,255,0)"/>
    <stop offset="55%"  stop-color="rgba(255,255,255,.1)"/>
    <stop offset="100%" stop-color="rgba(255,255,255,.55)"/>
  </linearGradient>
  <!-- Gunmetal anodised — blaster body -->
  <linearGradient id="gunmetalr1x9486" x1="0%" y1="0%" x2="0%" y2="100%">
    <stop offset="0%"   stop-color="#46465e"/>
    <stop offset="18%"  stop-color="#828296"/>
    <stop offset="42%"  stop-color="#26263a"/>
    <stop offset="72%"  stop-color="#16162a"/>
    <stop offset="100%" stop-color="#0c0c18"/>
  </linearGradient>
  <!-- Brushed steel tube — barrel/rod -->
  <linearGradient id="barrelr1x9486" x1="0%" y1="0%" x2="100%" y2="0%">
    <stop offset="0%"   stop-color="#0a0a14"/>
    <stop offset="24%"  stop-color="#585875"/>
    <stop offset="50%"  stop-color="#a8a8c8"/>
    <stop offset="76%"  stop-color="#383852"/>
    <stop offset="100%" stop-color="#0a0a14"/>
  </linearGradient>
  <!-- Chrome rod — lance shaft -->
  <linearGradient id="chromer1x9486" x1="0%" y1="0%" x2="100%" y2="0%">
    <stop offset="0%"   stop-color="#0c0c18"/>
    <stop offset="20%"  stop-color="#686888"/>
    <stop offset="44%"  stop-color="#e0e0f0"/>
    <stop offset="56%"  stop-color="#c0c0d8"/>
    <stop offset="80%"  stop-color="#28283e"/>
    <stop offset="100%" stop-color="#0c0c18"/>
  </linearGradient>
  <!-- Titanium plate — shield face -->
  <linearGradient id="titaniumr1x9486" x1="0%" y1="0%" x2="100%" y2="100%">
    <stop offset="0%"   stop-color="#585878"/>
    <stop offset="28%"  stop-color="#2060ff" stop-opacity=".88"/>
    <stop offset="55%"  stop-color="#003ccc"/>
    <stop offset="80%"  stop-color="#181828"/>
    <stop offset="100%" stop-color="#0a0a18"/>
  </linearGradient>
  <!-- Artillery black-chrome — cannon body -->
  <linearGradient id="artilleryr1x9486" x1="0%" y1="0%" x2="0%" y2="100%">
    <stop offset="0%"   stop-color="#383850"/>
    <stop offset="14%"  stop-color="#78789a"/>
    <stop offset="36%"  stop-color="#202034"/>
    <stop offset="65%"  stop-color="#14141e"/>
    <stop offset="100%" stop-color="#0a0a12"/>
  </linearGradient>
  <!-- Energy orb — staff -->
  <radialGradient id="orbr1x9486" cx="35%" cy="35%" r="65%">
    <stop offset="0%"   stop-color="rgba(255,255,255,.9)"/>
    <stop offset="30%"  stop-color="#2060ff"/>
    <stop offset="68%"  stop-color="#003ccc"/>
    <stop offset="100%" stop-color="rgba(0,0,0,.6)"/>
  </radialGradient>
  <!-- Knuckle plate chrome -->
  <linearGradient id="knuckler1x9486" x1="0%" y1="0%" x2="0%" y2="100%">
    <stop offset="0%"   stop-color="#888aaa"/>
    <stop offset="32%"  stop-color="#2060ff" stop-opacity=".8"/>
    <stop offset="62%"  stop-color="#1a1a2c"/>
    <stop offset="100%" stop-color="#0a0a14"/>
  </linearGradient>

  <!-- Carbon fibre weave texture overlay -->
  <pattern id="carbonr1x9486" width="6" height="6" patternUnits="userSpaceOnUse">
    <rect width="6" height="6" fill="rgba(0,0,0,.08)"/>
    <rect x="0" y="0" width="3" height="3" fill="rgba(255,255,255,.022)"/>
    <rect x="3" y="3" width="3" height="3" fill="rgba(255,255,255,.022)"/>
    <line x1="0" y1="0" x2="3" y2="3" stroke="rgba(255,255,255,.038)" stroke-width=".5"/>
    <line x1="3" y1="0" x2="6" y2="3" stroke="rgba(0,0,0,.055)"       stroke-width=".5"/>
    <line x1="0" y1="3" x2="3" y2="6" stroke="rgba(0,0,0,.055)"       stroke-width=".5"/>
    <line x1="3" y1="3" x2="6" y2="6" stroke="rgba(255,255,255,.038)" stroke-width=".5"/>
  </pattern>

  <!-- Specular metal sheen on armour panels -->
  <filter id="metalr1x9486" x="-5%" y="-5%" width="110%" height="110%">
    <feSpecularLighting surfaceScale="4" specularConstant="1.8"
        specularExponent="42" lighting-color="#ffffff" result="spec">
      <feDistantLight elevation="52" azimuth="38"/>
    </feSpecularLighting>
    <feComposite in="spec" in2="SourceGraphic" operator="in" result="sm"/>
    <feComposite in="SourceGraphic" in2="sm" operator="arithmetic" k1="0" k2="1" k3="0.55" k4="0"/>
  </filter>

  <!-- Sharper specular for weapons — heavier glare -->
  <filter id="wmr1x9486" x="-8%" y="-8%" width="116%" height="116%">
    <feSpecularLighting surfaceScale="6" specularConstant="2.4"
        specularExponent="65" lighting-color="#ffffff" result="spec">
      <feDistantLight elevation="44" azimuth="28"/>
    </feSpecularLighting>
    <feComposite in="spec" in2="SourceGraphic" operator="in" result="sm"/>
    <feComposite in="SourceGraphic" in2="sm" operator="arithmetic" k1="0" k2="1" k3="0.78" k4="0"/>
  </filter>

  <!-- Sketch wobble -->
  <filter id="skr1x9486" x="-8%" y="-8%" width="116%" height="116%">
    <feTurbulence type="fractalNoise" baseFrequency="0.038"
        numOctaves="3" seed="67" result="noise"/>
    <feDisplacementMap in="SourceGraphic" in2="noise" scale="2.6"
        xChannelSelector="R" yChannelSelector="G" result="w"/>
    <feComposite in="w" in2="SourceGraphic" operator="atop"/>
  </filter>

  <!-- Glow: sharp accent -->
  <filter id="glowr1x9486" x="-20%" y="-20%" width="140%" height="140%">
    <feGaussianBlur stdDeviation="3.5" result="b"/>
    <feColorMatrix in="b" type="matrix"
        values="0 0 0 0 1  0 0 0 0 1  0 0 0 0 1  0 0 0 1.8 0" result="boost"/>
    <feMerge><feMergeNode in="boost"/><feMergeNode in="SourceGraphic"/></feMerge>
  </filter>

  <!-- Bloom: wide soft -->
  <filter id="bloomr1x9486" x="-40%" y="-40%" width="180%" height="180%">
    <feGaussianBlur stdDeviation="11" result="b"/>
    <feMerge><feMergeNode in="b"/><feMergeNode in="SourceGraphic"/></feMerge>
  </filter>

  </defs><rect width="1000" height="1000" fill="url(#bgr1x9486)"/><ellipse cx="500.0" cy="892.0" rx="350.0" ry="65.0" fill="rgba(0,0,0,.7)" filter="url(#bloomr1x9486)"/><ellipse cx="500.0" cy="889.0" rx="220.0" ry="34.0" fill="rgba(0,0,0,.45)"/><ellipse cx="500.0" cy="520.0" rx="320.0" ry="480.0" fill="#ff00ff" fill-opacity=".042" filter="url(#bloomr1x9486)"/><circle cx="680.4" cy="793.6" r="0.8" fill="#ff00ff" fill-opacity="0.50" filter="url(#glowr1x9486)"/><circle cx="593.9" cy="552.4" r="2.9" fill="#ff00ff" fill-opacity="0.68" filter="url(#glowr1x9486)"/><circle cx="618.4" cy="326.4" r="1.3" fill="#ff00ff" fill-opacity="0.64" filter="url(#glowr1x9486)"/><circle cx="277.6" cy="688.9" r="2.8" fill="#ff00ff" fill-opacity="0.70" filter="url(#glowr1x9486)"/><circle cx="709.9" cy="715.1" r="1.7" fill="#ff00ff" fill-opacity="0.89" filter="url(#glowr1x9486)"/><circle cx="354.5" cy="236.8" r="3.4" fill="#ff00ff" fill-opacity="0.44" filter="url(#glowr1x9486)"/><circle cx="717.8" cy="189.3" r="0.6" fill="#ff00ff" fill-opacity="0.85" filter="url(#glowr1x9486)"/><circle cx="641.7" cy="354.8" r="2.0" fill="#ff00ff" fill-opacity="0.47" filter="url(#glowr1x9486)"/><circle cx="270.8" cy="764.4" r="1.3" fill="#ff00ff" fill-opacity="0.62" filter="url(#glowr1x9486)"/><circle cx="400.9" cy="732.0" r="2.6" fill="#ff00ff" fill-opacity="0.47" filter="url(#glowr1x9486)"/><circle cx="489.8" cy="465.4" r="3.9" fill="#ff00ff" fill-opacity="0.58" filter="url(#glowr1x9486)"/><circle cx="723.0" cy="370.4" r="1.0" fill="#ff00ff" fill-opacity="0.86" filter="url(#glowr1x9486)"/><circle cx="531.6" cy="273.1" r="1.8" fill="#ff00ff" fill-opacity="0.77" filter="url(#glowr1x9486)"/><circle cx="692.2" cy="649.5" r="2.7" fill="#ff00ff" fill-opacity="0.57" filter="url(#glowr1x9486)"/><path d="M549.0,378.6 Q571.6,484.5 413.3,631.2" stroke="#ff00ff" stroke-opacity="0.47" stroke-width="0.9" fill="none" filter="url(#glowr1x9486)"/><path d="M528.5,308.4 Q509.0,583.3 385.9,897.2" stroke="#ff00ff" stroke-opacity="0.61" stroke-width="2.4" fill="none" filter="url(#glowr1x9486)"/><path d="M322.7,241.9 Q329.6,468.0 554.3,748.6" stroke="#ff00ff" stroke-opacity="0.79" stroke-width="1.3" fill="none" filter="url(#glowr1x9486)"/><path d="M393.6,166.4 Q396.6,481.5 396.8,800.6" stroke="#ff00ff" stroke-opacity="0.71" stroke-width="1.2" fill="none" filter="url(#glowr1x9486)"/><path d="M408.5,189.9 Q370.6,449.0 555.7,691.4" stroke="#ff00ff" stroke-opacity="0.74" stroke-width="2.1" fill="none" filter="url(#glowr1x9486)"/><polygon points="399.1,662.7 488.1,662.0 479.9,875.8 387.2,878.2" fill="url(#suitr1x9486)" stroke="#2060ff" stroke-width="2.2" filter="url(#skr1x9486) url(#metalr1x9486)"/><polygon points="400.4,662.8 491.0,661.2 480.4,876.2 388.4,876.8" fill="url(#carbonr1x9486)"/><polygon points="394.3,723.9 494.1,723.7 483.9,789.6 382.6,787.1" fill="url(#bevelr1x9486)" fill-opacity=".5" stroke="#2060ff" stroke-width="1.4" filter="url(#skr1x9486)"/><polygon points="511.7,663.9 600.5,661.5 611.7,878.6 519.4,876.1" fill="url(#suitr1x9486)" stroke="#2060ff" stroke-width="2.2" filter="url(#skr1x9486) url(#metalr1x9486)"/><polygon points="511.7,661.4 601.3,664.2 613.1,879.1 518.4,878.5" fill="url(#carbonr1x9486)"/><polygon points="506.4,724.4 605.8,724.9 616.1,789.3 515.5,786.9" fill="url(#bevelr1x9486)" fill-opacity=".5" stroke="#2060ff" stroke-width="1.4" filter="url(#skr1x9486)"/><rect x="392.3" y="837.3" width="100.3" height="24.7" fill="url(#bevelr1x9486)" stroke="#2060ff" stroke-width="1" filter="url(#skr1x9486)"/><rect x="508.4"  y="838.1" width="100.3" height="24.7" fill="url(#bevelr1x9486)" stroke="#2060ff" stroke-width="1" filter="url(#skr1x9486)"/><polygon points="368.8,877.0 495.7,878.4 505.3,920.6 364.1,919.9" fill="#003ccc" stroke="#2060ff" stroke-width="2" filter="url(#skr1x9486)"/><polygon points="502.8,878.0 629.9,878.4 636.7,921.4 495.8,921.3" fill="#003ccc" stroke="#2060ff" stroke-width="2" filter="url(#skr1x9486)"/><polygon points="302.8,633.0 695.2,634.4 638.1,682.3 362.8,682.7" fill="#2060ff" fill-opacity=".52" stroke="#2060ff" stroke-width="2" filter="url(#skr1x9486)"/><rect x="463.5" y="639.4" width="72.0" height="42.0" fill="url(#bevelr1x9486)" stroke="#2060ff" stroke-width="1.4" filter="url(#glowr1x9486)"/><rect x="484.6" y="640.3" width="28.0" height="22.0" rx="1" fill="rgba(255,255,255,.48)"/><polygon points="154.5,464.9 235.5,467.5 259.3,734.7 127.8,735.5" fill="url(#suitr1x9486)" stroke="#2060ff" stroke-width="2.2" filter="url(#skr1x9486) url(#metalr1x9486)"/><polygon points="175.2,432.6 251.3,431.7 242.6,510.4 159.5,510.9" fill="url(#bevelr1x9486)" fill-opacity=".72" stroke="#2060ff" stroke-width="2.2" filter="url(#skr1x9486)"/><polygon points="161.9,621.8 241.7,620.3 239.7,660.9 165.3,660.6" fill="#2060ff" fill-opacity=".42" stroke="#2060ff" stroke-width="1" filter="url(#skr1x9486)"/><polygon points="766.7,467.8 848.4,467.7 872.4,736.6 743.2,733.4" fill="url(#suitr1x9486)" stroke="#2060ff" stroke-width="2.2" filter="url(#skr1x9486) url(#metalr1x9486)"/><polygon points="746.4,431.2 824.8,433.3 840.7,512.3 755.9,510.6" fill="url(#bevelr1x9486)" fill-opacity=".72" stroke="#2060ff" stroke-width="2.2" filter="url(#skr1x9486)"/><polygon points="756.4,622.4 839.0,620.3 835.0,661.7 762.5,662.5" fill="#2060ff" fill-opacity=".42" stroke="#2060ff" stroke-width="1" filter="url(#skr1x9486)"/><rect x="120.0"  y="699.7" width="135.3" height="85.0" rx="4" fill="url(#bevelr1x9486)" stroke="#2060ff" stroke-width="1.8" filter="url(#skr1x9486)"/><rect x="750.0"   y="698.6" width="135.3" height="85.0" rx="4" fill="url(#bevelr1x9486)" stroke="#2060ff" stroke-width="1.8" filter="url(#skr1x9486)"/><line x1="148.1" y1="703.6" x2="150.2" y2="785.3" stroke="#2060ff" stroke-opacity=".38" stroke-width="1"/><line x1="777.4" y1="702.8" x2="778.6" y2="782.8" stroke="#2060ff" stroke-opacity=".38" stroke-width="1"/><line x1="181.6" y1="703.0" x2="183.1" y2="783.5" stroke="#2060ff" stroke-opacity=".38" stroke-width="1"/><line x1="809.3" y1="701.6" x2="812.1" y2="782.8" stroke="#2060ff" stroke-opacity=".38" stroke-width="1"/><line x1="215.0" y1="703.3" x2="216.5" y2="785.1" stroke="#2060ff" stroke-opacity=".38" stroke-width="1"/><line x1="843.4" y1="700.5" x2="843.8" y2="785.0" stroke="#2060ff" stroke-opacity=".38" stroke-width="1"/><polygon points="234.2,419.2 766.8,417.3 723.6,661.0 277.4,660.7" fill="url(#suitr1x9486)" stroke="#2060ff" stroke-width="2.6" filter="url(#skr1x9486) url(#metalr1x9486)"/><polygon points="234.9,416.0 766.3,418.4 722.6,661.3 277.2,661.8" fill="url(#carbonr1x9486)"/><polygon points="366.9,416.3 632.0,416.7 609.7,516.3 387.7,516.0" fill="url(#suitHir1x9486)"/><line x1="360.6" y1="471.8" x2="636.0" y2="469.8" stroke="#2060ff" stroke-opacity=".52" stroke-width="1.3" filter="url(#skr1x9486)"/><line x1="400.0" y1="550.6" x2="602.0" y2="551.2" stroke="#2060ff" stroke-opacity=".52" stroke-width="1.3" filter="url(#skr1x9486)"/><line x1="267.5" y1="490.3" x2="318.1" y2="489.8" stroke="#2060ff" stroke-opacity=".62" stroke-width="1.8"/><line x1="680.6" y1="490.8" x2="734.1" y2="490.8" stroke="#2060ff" stroke-opacity=".62" stroke-width="1.8"/><line x1="265.5" y1="522.6" x2="320.9" y2="522.9" stroke="#2060ff" stroke-opacity=".62" stroke-width="1.8"/><line x1="679.7" y1="521.1" x2="732.1" y2="521.2" stroke="#2060ff" stroke-opacity=".62" stroke-width="1.8"/><line x1="268.2" y1="556.2" x2="318.6" y2="554.3" stroke="#2060ff" stroke-opacity=".62" stroke-width="1.8"/><line x1="679.0" y1="553.9" x2="734.4" y2="555.5" stroke="#2060ff" stroke-opacity=".62" stroke-width="1.8"/><line x1="267.8" y1="588.1" x2="321.5" y2="588.1" stroke="#2060ff" stroke-opacity=".62" stroke-width="1.8"/><line x1="680.6" y1="587.2" x2="732.8" y2="586.2" stroke="#2060ff" stroke-opacity=".62" stroke-width="1.8"/><g filter="url(#glowr1x9486)"><polygon points="481.1,451.0 511.2,507.4 501.7,506.8 516.8,569.0 486.9,515.7 498.7,514.3" fill="#2060ff" stroke="#050508" stroke-width="1.4" filter="url(#skr1x9486)"/><polygon points="481.2,451.0 512.4,506.5 499.2,506.9 516.4,569.4 487.8,514.3 498.3,514.2" fill="url(#suitHir1x9486)" opacity=".4"/></g><g><rect x="829.6447004868277" y="420.01425522556525" width="148.0" height="82.0" rx="5" fill="url(#gunmetalr1x9486)" stroke="#2060ff" stroke-width="2" filter="url(#wmr1x9486)"/><rect x="828.938907865677" y="420.39491131482646" width="148.0" height="82.0" rx="5" fill="url(#carbonr1x9486)"/><rect x="837.3030570891314" y="402.6304663822986" width="90.0" height="22.0" rx="3" fill="url(#barrelr1x9486)" stroke="#2060ff" stroke-width="1" filter="url(#wmr1x9486)"/><circle cx="878.8266545256228" cy="415.5476584677584" r="15.0" fill="#2060ff" opacity=".8" filter="url(#glowr1x9486)"/><circle cx="878.2602033014969" cy="413.81930740019305" r="6.0" fill="rgba(255,255,255,.9)"/><rect x="945.3264490337671" y="453.752679790277" width="78.0" height="36.0" rx="5" fill="url(#barrelr1x9486)" stroke="#2060ff" stroke-width="1.2" filter="url(#wmr1x9486)"/><circle cx="1021.4472875721381" cy="472.6385825831443" r="18.0" fill="#2060ff" filter="url(#glowr1x9486)" opacity=".88"/><circle cx="1019.7287461928651" cy="469.8467294863425" r="7.0" fill="#ffffff"/><rect x="872.3821231501736" y="500.3064891975373" width="44.0" height="42.0" rx="3" fill="url(#gunmetalr1x9486)" stroke="#2060ff" stroke-width="1" filter="url(#wmr1x9486)"/><rect x="831.6502841889486" y="423.20718082441016" width="90.0" height="10.0" rx="2" fill="rgba(255,255,255,.22)"/><line x1="857.2746259853803" y1="485.99239273844285" x2="857.911524775494" y2="519.90052765375" stroke="#2060ff" stroke-opacity=".5" stroke-width="1.2"/><line x1="873.4555875960365" y1="485.4921260359697" x2="873.4865935827233" y2="520.4427116756327" stroke="#2060ff" stroke-opacity=".5" stroke-width="1.2"/><line x1="890.7889266088233" y1="485.554553921055" x2="889.4321172730625" y2="517.7244844954461" stroke="#2060ff" stroke-opacity=".5" stroke-width="1.2"/></g><rect x="451.7131081734784" y="555.9534332833252" width="100.0"  height="56.0" fill="#003ccc" stroke="#2060ff" stroke-width="2.2" filter="url(#skr1x9486)"/><rect x="424.88835861105474" y="575.6314696117305" width="152.0" height="26.0" fill="url(#bevelr1x9486)" fill-opacity=".65" stroke="#2060ff" stroke-width="1.2" filter="url(#skr1x9486)"/><polygon points="308.3,379.7 350.0,293.9 501.6,278.1 649.2,294.1 690.5,382.2 670.4,504.7 500.1,564.1 329.3,502.9" fill="url(#suitr1x9486)" stroke="#2060ff" stroke-width="2.8" filter="url(#skr1x9486) url(#metalr1x9486)"/><polygon points="309.6,381.9 349.5,295.5 500.3,278.8 649.9,292.8 691.7,379.6 668.7,503.2 498.9,565.6 331.6,504.1" fill="url(#carbonr1x9486)"/><polygon points="381.5,303.4 500.3,285.1 618.0,301.1 607.2,381.6 393.4,380.8" fill="url(#suitHir1x9486)"/><polygon points="379.9,379.3 367.2,427.3 434.2,503.5 500.0,529.9 565.9,505.3 635.6,425.2 617.8,380.1" fill="#050508" fill-opacity=".88" stroke="#2060ff" stroke-width="1.8" filter="url(#skr1x9486)"/><polygon points="379.6,410.5 477.8,411.2 484.0,439.9 387.5,441.7" fill="#2060ff" filter="url(#glowr1x9486)"/><polygon points="523.7,410.8 617.3,411.8 610.8,440.0 516.5,439.9" fill="#2060ff" filter="url(#glowr1x9486)"/><ellipse cx="430.9" cy="425.7" rx="38.4"  ry="8.2" fill="#ffffff" opacity=".88"/><ellipse cx="569.1" cy="425.7" rx="38.4"  ry="8.2" fill="#ffffff" opacity=".88"/><line x1="484.17406389905136" y1="413.9678206804208" x2="516.4757094658353" y2="413.4803862576373" stroke="#2060ff" stroke-opacity=".52" stroke-width="2"/><line x1="484.0112543918751" y1="437.5423585499637" x2="516.2098924975284" y2="438.0513302746229" stroke="#2060ff" stroke-opacity=".52" stroke-width="2"/><line x1="501.6988093717024" y1="455.6464201546274" x2="498.35520131736996" y2="481.9074403290637" stroke="#2060ff" stroke-opacity=".58" stroke-width="2.2" filter="url(#skr1x9486)"/><line x1="453.8444492438622" y1="492.04666687641287" x2="454.336317096632" y2="519.0669530140236" stroke="#2060ff" stroke-opacity=".52" stroke-width="1.5" filter="url(#skr1x9486)"/><line x1="478.11831272667274" y1="491.6056558825075" x2="477.0427262561768" y2="521.6789063028991" stroke="#2060ff" stroke-opacity=".52" stroke-width="1.5" filter="url(#skr1x9486)"/><line x1="499.3704235164449" y1="492.3513264481909" x2="500.13896312424913" y2="519.97655858621" stroke="#2060ff" stroke-opacity=".52" stroke-width="1.5" filter="url(#skr1x9486)"/><line x1="521.4788789053075" y1="490.34278053818264" x2="524.5441905294172" y2="520.5287580980919" stroke="#2060ff" stroke-opacity=".52" stroke-width="1.5" filter="url(#skr1x9486)"/><line x1="547.3754176215456" y1="493.017029936891" x2="547.073823081255" y2="520.2421592184343" stroke="#2060ff" stroke-opacity=".52" stroke-width="1.5" filter="url(#skr1x9486)"/><polygon points="433.7,502.7 567.5,501.9 555.5,558.2 444.5,557.7" fill="#003ccc" fill-opacity=".72" stroke="#2060ff" stroke-width="1.3" filter="url(#skr1x9486)"/><text x="30.0"  y="975.0" font-family="monospace" font-weight="bold" font-size="22.0" fill="rgba(255,255,255,.22)">#0001</text><text x="500.0"   y="975.0" text-anchor="middle" font-family="monospace" font-weight="bold" font-size="22.0" fill="#2060ff" fill-opacity=".48">COBALT RANGER</text><text x="970.0" y="975.0" text-anchor="end"    font-family="monospace" font-weight="bold" font-size="22.0" fill="#2060ff" fill-opacity=".32">MECH RANGERS</text></svg>