<svg xmlns="http://www.w3.org/2000/svg" viewBox="0 0 1000 1000" width="1000" height="1000" shape-rendering="geometricPrecision"><defs>

  <!-- Scene gradients -->
  <radialGradient id="bgr1x9529" cx="50%" cy="42%" r="72%">
    <stop offset="0%"   stop-color="#0a1420"/>
    <stop offset="100%" stop-color="#050d14"/>
  </radialGradient>
  <linearGradient id="suitr1x9529" x1="8%" y1="0%" x2="92%" y2="100%">
    <stop offset="0%"   stop-color="#ffcc00" stop-opacity=".95"/>
    <stop offset="45%"  stop-color="#a07000"/>
    <stop offset="100%" stop-color="#050d14"/>
  </linearGradient>
  <linearGradient id="suitHir1x9529" x1="0%" y1="0%" x2="0%" y2="100%">
    <stop offset="0%"   stop-color="rgba(255,255,255,.28)"/>
    <stop offset="60%"  stop-color="rgba(255,255,255,.04)"/>
    <stop offset="100%" stop-color="rgba(255,255,255,0)"/>
  </linearGradient>
  <!-- Bevel: bright top, dark bottom for armour panels -->
  <linearGradient id="bevelr1x9529" x1="0%" y1="0%" x2="0%" y2="100%">
    <stop offset="0%"   stop-color="rgba(255,255,255,.55)"/>
    <stop offset="30%"  stop-color="#ffcc00"/>
    <stop offset="70%"  stop-color="#a07000"/>
    <stop offset="100%" stop-color="rgba(0,0,0,.5)"/>
  </linearGradient>

  <!-- Weapon: cold steel blade sweep -->
  <linearGradient id="blader1x9529" x1="0%" y1="0%" x2="100%" y2="0%">
    <stop offset="0%"   stop-color="#0e0e20"/>
    <stop offset="16%"  stop-color="#3e3e58"/>
    <stop offset="34%"  stop-color="#c8c8e0"/>
    <stop offset="50%"  stop-color="#f5f5ff"/>
    <stop offset="66%"  stop-color="#b8b8d0"/>
    <stop offset="84%"  stop-color="#2e2e48"/>
    <stop offset="100%" stop-color="#08080e"/>
  </linearGradient>
  <!-- Blade tip brightening -->
  <linearGradient id="bladeTipr1x9529" x1="0%" y1="100%" x2="0%" y2="0%">
    <stop offset="0%"   stop-color="rgba(255,255,255,0)"/>
    <stop offset="55%"  stop-color="rgba(255,255,255,.1)"/>
    <stop offset="100%" stop-color="rgba(255,255,255,.55)"/>
  </linearGradient>
  <!-- Gunmetal anodised — blaster body -->
  <linearGradient id="gunmetalr1x9529" x1="0%" y1="0%" x2="0%" y2="100%">
    <stop offset="0%"   stop-color="#46465e"/>
    <stop offset="18%"  stop-color="#828296"/>
    <stop offset="42%"  stop-color="#26263a"/>
    <stop offset="72%"  stop-color="#16162a"/>
    <stop offset="100%" stop-color="#0c0c18"/>
  </linearGradient>
  <!-- Brushed steel tube — barrel/rod -->
  <linearGradient id="barrelr1x9529" x1="0%" y1="0%" x2="100%" y2="0%">
    <stop offset="0%"   stop-color="#0a0a14"/>
    <stop offset="24%"  stop-color="#585875"/>
    <stop offset="50%"  stop-color="#a8a8c8"/>
    <stop offset="76%"  stop-color="#383852"/>
    <stop offset="100%" stop-color="#0a0a14"/>
  </linearGradient>
  <!-- Chrome rod — lance shaft -->
  <linearGradient id="chromer1x9529" x1="0%" y1="0%" x2="100%" y2="0%">
    <stop offset="0%"   stop-color="#0c0c18"/>
    <stop offset="20%"  stop-color="#686888"/>
    <stop offset="44%"  stop-color="#e0e0f0"/>
    <stop offset="56%"  stop-color="#c0c0d8"/>
    <stop offset="80%"  stop-color="#28283e"/>
    <stop offset="100%" stop-color="#0c0c18"/>
  </linearGradient>
  <!-- Titanium plate — shield face -->
  <linearGradient id="titaniumr1x9529" x1="0%" y1="0%" x2="100%" y2="100%">
    <stop offset="0%"   stop-color="#585878"/>
    <stop offset="28%"  stop-color="#ffcc00" stop-opacity=".88"/>
    <stop offset="55%"  stop-color="#a07000"/>
    <stop offset="80%"  stop-color="#181828"/>
    <stop offset="100%" stop-color="#0a0a18"/>
  </linearGradient>
  <!-- Artillery black-chrome — cannon body -->
  <linearGradient id="artilleryr1x9529" x1="0%" y1="0%" x2="0%" y2="100%">
    <stop offset="0%"   stop-color="#383850"/>
    <stop offset="14%"  stop-color="#78789a"/>
    <stop offset="36%"  stop-color="#202034"/>
    <stop offset="65%"  stop-color="#14141e"/>
    <stop offset="100%" stop-color="#0a0a12"/>
  </linearGradient>
  <!-- Energy orb — staff -->
  <radialGradient id="orbr1x9529" cx="35%" cy="35%" r="65%">
    <stop offset="0%"   stop-color="rgba(255,255,255,.9)"/>
    <stop offset="30%"  stop-color="#ffcc00"/>
    <stop offset="68%"  stop-color="#a07000"/>
    <stop offset="100%" stop-color="rgba(0,0,0,.6)"/>
  </radialGradient>
  <!-- Knuckle plate chrome -->
  <linearGradient id="knuckler1x9529" x1="0%" y1="0%" x2="0%" y2="100%">
    <stop offset="0%"   stop-color="#888aaa"/>
    <stop offset="32%"  stop-color="#ffcc00" stop-opacity=".8"/>
    <stop offset="62%"  stop-color="#1a1a2c"/>
    <stop offset="100%" stop-color="#0a0a14"/>
  </linearGradient>

  <!-- Carbon fibre weave texture overlay -->
  <pattern id="carbonr1x9529" width="6" height="6" patternUnits="userSpaceOnUse">
    <rect width="6" height="6" fill="rgba(0,0,0,.08)"/>
    <rect x="0" y="0" width="3" height="3" fill="rgba(255,255,255,.022)"/>
    <rect x="3" y="3" width="3" height="3" fill="rgba(255,255,255,.022)"/>
    <line x1="0" y1="0" x2="3" y2="3" stroke="rgba(255,255,255,.038)" stroke-width=".5"/>
    <line x1="3" y1="0" x2="6" y2="3" stroke="rgba(0,0,0,.055)"       stroke-width=".5"/>
    <line x1="0" y1="3" x2="3" y2="6" stroke="rgba(0,0,0,.055)"       stroke-width=".5"/>
    <line x1="3" y1="3" x2="6" y2="6" stroke="rgba(255,255,255,.038)" stroke-width=".5"/>
  </pattern>

  <!-- Specular metal sheen on armour panels -->
  <filter id="metalr1x9529" x="-5%" y="-5%" width="110%" height="110%">
    <feSpecularLighting surfaceScale="4" specularConstant="1.8"
        specularExponent="42" lighting-color="#ffffff" result="spec">
      <feDistantLight elevation="52" azimuth="38"/>
    </feSpecularLighting>
    <feComposite in="spec" in2="SourceGraphic" operator="in" result="sm"/>
    <feComposite in="SourceGraphic" in2="sm" operator="arithmetic" k1="0" k2="1" k3="0.55" k4="0"/>
  </filter>

  <!-- Sharper specular for weapons — heavier glare -->
  <filter id="wmr1x9529" x="-8%" y="-8%" width="116%" height="116%">
    <feSpecularLighting surfaceScale="6" specularConstant="2.4"
        specularExponent="65" lighting-color="#ffffff" result="spec">
      <feDistantLight elevation="44" azimuth="28"/>
    </feSpecularLighting>
    <feComposite in="spec" in2="SourceGraphic" operator="in" result="sm"/>
    <feComposite in="SourceGraphic" in2="sm" operator="arithmetic" k1="0" k2="1" k3="0.78" k4="0"/>
  </filter>

  <!-- Sketch wobble -->
  <filter id="skr1x9529" x="-8%" y="-8%" width="116%" height="116%">
    <feTurbulence type="fractalNoise" baseFrequency="0.038"
        numOctaves="3" seed="42" result="noise"/>
    <feDisplacementMap in="SourceGraphic" in2="noise" scale="2.6"
        xChannelSelector="R" yChannelSelector="G" result="w"/>
    <feComposite in="w" in2="SourceGraphic" operator="atop"/>
  </filter>

  <!-- Glow: sharp accent -->
  <filter id="glowr1x9529" x="-20%" y="-20%" width="140%" height="140%">
    <feGaussianBlur stdDeviation="3.5" result="b"/>
    <feColorMatrix in="b" type="matrix"
        values="0 0 0 0 1  0 0 0 0 1  0 0 0 0 1  0 0 0 1.8 0" result="boost"/>
    <feMerge><feMergeNode in="boost"/><feMergeNode in="SourceGraphic"/></feMerge>
  </filter>

  <!-- Bloom: wide soft -->
  <filter id="bloomr1x9529" x="-40%" y="-40%" width="180%" height="180%">
    <feGaussianBlur stdDeviation="11" result="b"/>
    <feMerge><feMergeNode in="b"/><feMergeNode in="SourceGraphic"/></feMerge>
  </filter>

  </defs><rect width="1000" height="1000" fill="url(#bgr1x9529)"/><polygon points="989.0078230109066,232.99050327856094 1000.8250631978735,193.6518498212099 1036.0695105679333,239.43949058651924" fill="#ffcc00" fill-opacity=".055" stroke="#ffcc00" stroke-opacity=".1" stroke-width="1"/><polygon points="867.0665183477104,385.8022434124723 883.5525090275332,360.1683744629845 903.7767622321844,395.60857496224344" fill="#ffcc00" fill-opacity=".055" stroke="#ffcc00" stroke-opacity=".1" stroke-width="1"/><polygon points="11.324801635928452,90.89443610049784 25.737650639377534,52.83333320915699 43.72432586085051,76.83225389104337" fill="#ffcc00" fill-opacity=".055" stroke="#ffcc00" stroke-opacity=".1" stroke-width="1"/><polygon points="79.19979932252318,56.32046474143863 96.9700586637482,19.276350455358624 115.1101140473038,66.97366043925285" fill="#ffcc00" fill-opacity=".055" stroke="#ffcc00" stroke-opacity=".1" stroke-width="1"/><polygon points="846.5029918868095,159.3413082510233 869.4628208437935,120.4380993200466 877.2424415852875,162.73371915332973" fill="#ffcc00" fill-opacity=".055" stroke="#ffcc00" stroke-opacity=".1" stroke-width="1"/><polygon points="48.14949091989547,139.7419521631673 59.9514075210318,97.34249444492161 93.89570316113532,138.89424261637032" fill="#ffcc00" fill-opacity=".055" stroke="#ffcc00" stroke-opacity=".1" stroke-width="1"/><polygon points="316.6690223803744,94.71788661554456 330.7325629219413,48.70810953248292 357.00263806432486,99.20522897038609" fill="#ffcc00" fill-opacity=".055" stroke="#ffcc00" stroke-opacity=".1" stroke-width="1"/><polygon points="557.8658188367262,405.32905384432524 585.6196009814739,370.70169607922435 609.184853060171,415.6542739085853" fill="#ffcc00" fill-opacity=".055" stroke="#ffcc00" stroke-opacity=".1" stroke-width="1"/><ellipse cx="500.0" cy="892.0" rx="350.0" ry="65.0" fill="rgba(0,0,0,.7)" filter="url(#bloomr1x9529)"/><ellipse cx="500.0" cy="889.0" rx="220.0" ry="34.0" fill="rgba(0,0,0,.45)"/><polygon points="398.8,660.9 488.9,661.2 480.6,879.3 385.7,878.2" fill="url(#suitr1x9529)" stroke="#ffcc00" stroke-width="2.2" filter="url(#skr1x9529) url(#metalr1x9529)"/><polygon points="400.5,662.6 491.2,662.5 482.0,878.7 387.6,876.9" fill="url(#carbonr1x9529)"/><polygon points="391.4,725.1 492.2,723.3 485.7,789.2 383.1,787.4" fill="url(#bevelr1x9529)" fill-opacity=".5" stroke="#ffcc00" stroke-width="1.4" filter="url(#skr1x9529)"/><polygon points="510.2,661.9 600.7,661.1 610.9,876.5 521.0,879.2" fill="url(#suitr1x9529)" stroke="#ffcc00" stroke-width="2.2" filter="url(#skr1x9529) url(#metalr1x9529)"/><polygon points="511.7,661.5 601.8,661.2 611.8,876.6 520.8,876.8" fill="url(#carbonr1x9529)"/><polygon points="506.0,723.1 605.7,722.7 616.2,788.2 517.0,787.9" fill="url(#bevelr1x9529)" fill-opacity=".5" stroke="#ffcc00" stroke-width="1.4" filter="url(#skr1x9529)"/><rect x="392.8" y="837.1" width="100.3" height="24.7" fill="url(#bevelr1x9529)" stroke="#ffcc00" stroke-width="1" filter="url(#skr1x9529)"/><rect x="506.6"  y="838.8" width="100.3" height="24.7" fill="url(#bevelr1x9529)" stroke="#ffcc00" stroke-width="1" filter="url(#skr1x9529)"/><polygon points="370.0,878.9 496.9,878.8 503.7,920.4 362.7,922.3" fill="#a07000" stroke="#ffcc00" stroke-width="2" filter="url(#skr1x9529)"/><polygon points="501.8,878.8 629.9,877.8 636.0,922.9 495.4,923.2" fill="#a07000" stroke="#ffcc00" stroke-width="2" filter="url(#skr1x9529)"/><polygon points="304.9,633.4 694.5,632.7 637.6,683.7 362.5,681.1" fill="#ffcc00" fill-opacity=".52" stroke="#ffcc00" stroke-width="2" filter="url(#skr1x9529)"/><rect x="464.6" y="636.3" width="72.0" height="42.0" fill="url(#bevelr1x9529)" stroke="#ffcc00" stroke-width="1.4" filter="url(#glowr1x9529)"/><rect x="486.0" y="640.4" width="28.0" height="22.0" rx="1" fill="rgba(255,255,255,.48)"/><polygon points="154.3,465.5 235.7,467.2 259.3,735.1 128.5,733.8" fill="url(#suitr1x9529)" stroke="#ffcc00" stroke-width="2.2" filter="url(#skr1x9529) url(#metalr1x9529)"/><polygon points="173.7,431.2 251.4,433.2 241.5,509.9 160.7,511.7" fill="url(#bevelr1x9529)" fill-opacity=".72" stroke="#ffcc00" stroke-width="2.2" filter="url(#skr1x9529)"/><polygon points="161.8,623.3 241.7,621.7 237.9,661.0 167.0,661.3" fill="#ffcc00" fill-opacity=".42" stroke="#ffcc00" stroke-width="1" filter="url(#skr1x9529)"/><polygon points="766.3,466.9 847.9,465.9 870.8,736.0 743.8,736.0" fill="url(#suitr1x9529)" stroke="#ffcc00" stroke-width="2.2" filter="url(#skr1x9529) url(#metalr1x9529)"/><polygon points="747.0,432.3 825.1,430.6 840.6,510.6 755.3,512.3" fill="url(#bevelr1x9529)" fill-opacity=".72" stroke="#ffcc00" stroke-width="2.2" filter="url(#skr1x9529)"/><polygon points="756.2,621.4 838.0,623.0 833.6,660.2 761.9,661.6" fill="#ffcc00" fill-opacity=".42" stroke="#ffcc00" stroke-width="1" filter="url(#skr1x9529)"/><rect x="118.5"  y="698.4" width="135.3" height="85.0" rx="4" fill="url(#bevelr1x9529)" stroke="#ffcc00" stroke-width="1.8" filter="url(#skr1x9529)"/><rect x="747.2"   y="699.8" width="135.3" height="85.0" rx="4" fill="url(#bevelr1x9529)" stroke="#ffcc00" stroke-width="1.8" filter="url(#skr1x9529)"/><line x1="148.7" y1="702.0" x2="148.1" y2="782.9" stroke="#ffcc00" stroke-opacity=".38" stroke-width="1"/><line x1="777.7" y1="700.4" x2="779.1" y2="784.2" stroke="#ffcc00" stroke-opacity=".38" stroke-width="1"/><line x1="181.3" y1="702.1" x2="182.7" y2="782.4" stroke="#ffcc00" stroke-opacity=".38" stroke-width="1"/><line x1="811.4" y1="702.1" x2="809.8" y2="783.2" stroke="#ffcc00" stroke-opacity=".38" stroke-width="1"/><line x1="216.8" y1="701.5" x2="214.9" y2="784.2" stroke="#ffcc00" stroke-opacity=".38" stroke-width="1"/><line x1="843.7" y1="700.4" x2="844.0" y2="783.6" stroke="#ffcc00" stroke-opacity=".38" stroke-width="1"/><polygon points="234.3,417.1 765.1,416.5 721.7,663.2 278.7,662.3" fill="url(#suitr1x9529)" stroke="#ffcc00" stroke-width="2.6" filter="url(#skr1x9529) url(#metalr1x9529)"/><polygon points="233.8,419.2 764.8,418.5 721.8,664.0 278.8,663.6" fill="url(#carbonr1x9529)"/><polygon points="367.9,416.4 632.4,418.2 610.5,514.9 389.3,515.7" fill="url(#suitHir1x9529)"/><line x1="362.8" y1="472.4" x2="639.4" y2="471.6" stroke="#ffcc00" stroke-opacity=".52" stroke-width="1.3" filter="url(#skr1x9529)"/><line x1="398.8" y1="550.4" x2="602.3" y2="549.8" stroke="#ffcc00" stroke-opacity=".52" stroke-width="1.3" filter="url(#skr1x9529)"/><line x1="266.3" y1="491.8" x2="318.9" y2="492.6" stroke="#ffcc00" stroke-opacity=".62" stroke-width="1.8"/><line x1="681.1" y1="491.9" x2="734.9" y2="491.9" stroke="#ffcc00" stroke-opacity=".62" stroke-width="1.8"/><line x1="267.7" y1="522.1" x2="321.0" y2="521.3" stroke="#ffcc00" stroke-opacity=".62" stroke-width="1.8"/><line x1="679.8" y1="522.0" x2="733.7" y2="523.9" stroke="#ffcc00" stroke-opacity=".62" stroke-width="1.8"/><line x1="265.1" y1="556.0" x2="318.8" y2="553.9" stroke="#ffcc00" stroke-opacity=".62" stroke-width="1.8"/><line x1="680.3" y1="554.7" x2="734.8" y2="556.0" stroke="#ffcc00" stroke-opacity=".62" stroke-width="1.8"/><line x1="267.2" y1="585.8" x2="318.9" y2="586.0" stroke="#ffcc00" stroke-opacity=".62" stroke-width="1.8"/><line x1="680.7" y1="585.6" x2="734.9" y2="585.4" stroke="#ffcc00" stroke-opacity=".62" stroke-width="1.8"/><g filter="url(#glowr1x9529)"><polygon points="482.2,452.7 512.2,506.3 501.8,506.4 518.9,567.8 488.5,514.9 500.8,515.0" fill="#ffcc00" stroke="#050d14" stroke-width="1.4" filter="url(#skr1x9529)"/><polygon points="482.8,454.3 512.4,506.9 499.5,506.2 516.6,567.0 487.2,515.3 501.0,516.8" fill="url(#suitHir1x9529)" opacity=".4"/></g><g><rect x="35.383927124682785" y="421.57450189664956" width="148.0" height="82.0" rx="5" fill="url(#gunmetalr1x9529)" stroke="#ffcc00" stroke-width="2" filter="url(#wmr1x9529)"/><rect x="35.072382927536935" y="420.55415430460124" width="148.0" height="82.0" rx="5" fill="url(#carbonr1x9529)"/><rect x="41.80349392307919" y="403.277389684692" width="90.0" height="22.0" rx="3" fill="url(#barrelr1x9529)" stroke="#ffcc00" stroke-width="1" filter="url(#wmr1x9529)"/><circle cx="82.77866587167603" cy="415.37685122769324" r="15.0" fill="#ffcc00" opacity=".8" filter="url(#glowr1x9529)"/><circle cx="82.72566060697656" cy="415.24183328337966" r="6.0" fill="rgba(255,255,255,.9)"/><rect x="52.56750138657164" y="454.3106288325973" width="78.0" height="36.0" rx="5" fill="url(#barrelr1x9529)" stroke="#ffcc00" stroke-width="1.2" filter="url(#wmr1x9529)"/><circle cx="-21.28484067866582" cy="473.08385675633326" r="18.0" fill="#ffcc00" filter="url(#glowr1x9529)" opacity=".88"/><circle cx="-21.631202962119165" cy="471.46578794280066" r="7.0" fill="#ffffff"/><rect x="76.99983465647321" y="500.2508338005282" width="44.0" height="42.0" rx="3" fill="url(#gunmetalr1x9529)" stroke="#ffcc00" stroke-width="1" filter="url(#wmr1x9529)"/><rect x="37.61042795315382" y="423.1762221057899" width="90.0" height="10.0" rx="2" fill="rgba(255,255,255,.22)"/><line x1="61.38023646980521" y1="486.758966334816" x2="61.50148190030825" y2="520.6540139552205" stroke="#ffcc00" stroke-opacity=".5" stroke-width="1.2"/><line x1="79.66291732503097" y1="485.7306172246113" x2="78.5575422906689" y2="519.6338187646121" stroke="#ffcc00" stroke-opacity=".5" stroke-width="1.2"/><line x1="95.00790288601067" y1="485.06982734669" x2="95.43579319067297" y2="520.3305756228975" stroke="#ffcc00" stroke-opacity=".5" stroke-width="1.2"/></g><rect x="449.6449958285317" y="558.5788465064019" width="100.0"  height="56.0" fill="#a07000" stroke="#ffcc00" stroke-width="2.2" filter="url(#skr1x9529)"/><rect x="424.153000740055" y="576.5197088862769" width="152.0" height="26.0" fill="url(#bevelr1x9529)" fill-opacity=".65" stroke="#ffcc00" stroke-width="1.2" filter="url(#skr1x9529)"/><polygon points="308.2,380.8 351.4,292.9 500.1,276.3 650.9,295.8 691.3,381.0 669.1,505.1 501.8,566.1 329.9,501.8" fill="url(#suitr1x9529)" stroke="#ffcc00" stroke-width="2.8" filter="url(#skr1x9529) url(#metalr1x9529)"/><polygon points="309.3,380.4 350.6,296.0 498.5,277.1 651.0,295.3 693.5,381.3 668.8,503.2 498.6,565.7 329.9,503.0" fill="url(#carbonr1x9529)"/><polygon points="381.8,301.9 499.6,286.6 617.9,303.4 606.5,382.0 391.5,382.4" fill="url(#suitHir1x9529)"/><polygon points="379.9,380.8 366.0,427.4 432.0,503.3 501.0,528.3 565.9,502.4 635.4,426.0 617.8,381.4" fill="#050d14" fill-opacity=".88" stroke="#ffcc00" stroke-width="1.8" filter="url(#skr1x9529)"/><polygon points="379.3,409.6 478.3,413.0 485.7,439.0 389.4,438.5" fill="#ffcc00" filter="url(#glowr1x9529)"/><polygon points="524.2,410.4 619.6,410.7 612.5,439.1 516.0,438.5" fill="#ffcc00" filter="url(#glowr1x9529)"/><ellipse cx="430.9" cy="425.7" rx="38.4"  ry="8.2" fill="#ffffff" opacity=".88"/><ellipse cx="569.1" cy="425.7" rx="38.4"  ry="8.2" fill="#ffffff" opacity=".88"/><line x1="485.15622430719435" y1="414.50928960777816" x2="514.7376041411795" y2="411.88730130326" stroke="#ffcc00" stroke-opacity=".52" stroke-width="2"/><line x1="486.3408051984012" y1="437.9230881744996" x2="515.8424544130825" y2="437.8259546019137" stroke="#ffcc00" stroke-opacity=".52" stroke-width="2"/><line x1="500.309287101496" y1="454.39344643047076" x2="499.32855658316987" y2="483.8318595713936" stroke="#ffcc00" stroke-opacity=".58" stroke-width="2.2" filter="url(#skr1x9529)"/><line x1="452.8696786048636" y1="491.7189373851753" x2="453.5092288952135" y2="521.5809753682464" stroke="#ffcc00" stroke-opacity=".52" stroke-width="1.5" filter="url(#skr1x9529)"/><line x1="476.8741479284502" y1="491.6328850297257" x2="478.5346083044447" y2="519.7955212626606" stroke="#ffcc00" stroke-opacity=".52" stroke-width="1.5" filter="url(#skr1x9529)"/><line x1="500.8624426884577" y1="492.0647357358597" x2="498.4787312531844" y2="520.8157626769505" stroke="#ffcc00" stroke-opacity=".52" stroke-width="1.5" filter="url(#skr1x9529)"/><line x1="523.6602890305779" y1="492.17971473401406" x2="522.6828957242518" y2="520.4995694069191" stroke="#ffcc00" stroke-opacity=".52" stroke-width="1.5" filter="url(#skr1x9529)"/><line x1="546.4131698811614" y1="492.94057198138904" x2="546.4418171148003" y2="519.2785940775648" stroke="#ffcc00" stroke-opacity=".52" stroke-width="1.5" filter="url(#skr1x9529)"/><polygon points="432.6,505.0 566.8,505.1 552.8,556.6 445.6,557.8" fill="#a07000" fill-opacity=".72" stroke="#ffcc00" stroke-width="1.3" filter="url(#skr1x9529)"/><path d="M344.10696064963935 371.0987508872524 Q380.2358049808443 236.80790273183956 499.9603437920101 281.4235424265265" stroke="#ffcc00" stroke-width="2.8" fill="none" stroke-opacity=".88" filter="url(#skr1x9529)"/><path d="M657.0533415753954 373.1179575764574 Q617.2553668004088 235.94355334481224 501.7237764016725 282.9551228730939" stroke="#ffcc00" stroke-width="2.8" fill="none" stroke-opacity=".88" filter="url(#skr1x9529)"/><line x1="417.77846410371365" y1="471.8711639948189" x2="440.3485906581767" y2="502.29037095718087" stroke="#ffcc00" stroke-opacity=".52" stroke-width="1.3" filter="url(#skr1x9529)"/><line x1="475.58158170631157" y1="470.16827331855893" x2="495.60809518577526" y2="504.8432149752043" stroke="#ffcc00" stroke-opacity=".52" stroke-width="1.3" filter="url(#skr1x9529)"/><line x1="536.1702468214928" y1="469.1980770797469" x2="555.4551074840501" y2="502.97637371718884" stroke="#ffcc00" stroke-opacity=".52" stroke-width="1.3" filter="url(#skr1x9529)"/><line x1="590.9730893026478" y1="470.941857852228" x2="612.2725453763642" y2="504.8180878542364" stroke="#ffcc00" stroke-opacity=".52" stroke-width="1.3" filter="url(#skr1x9529)"/><text x="30.0"  y="975.0" font-family="monospace" font-weight="bold" font-size="22.0" fill="rgba(255,255,255,.22)">#0001</text><text x="500.0"   y="975.0" text-anchor="middle" font-family="monospace" font-weight="bold" font-size="22.0" fill="#ffcc00" fill-opacity=".48">NOVA RANGER</text><text x="970.0" y="975.0" text-anchor="end"    font-family="monospace" font-weight="bold" font-size="22.0" fill="#ffcc00" fill-opacity=".32">MECH RANGERS</text></svg>