<svg xmlns="http://www.w3.org/2000/svg" viewBox="0 0 1000 1000" width="1000" height="1000" shape-rendering="geometricPrecision"><defs>

  <!-- Scene gradients -->
  <radialGradient id="bgr1x9534" cx="50%" cy="42%" r="72%">
    <stop offset="0%"   stop-color="#0e000e"/>
    <stop offset="100%" stop-color="#1e0600"/>
  </radialGradient>
  <linearGradient id="suitr1x9534" x1="8%" y1="0%" x2="92%" y2="100%">
    <stop offset="0%"   stop-color="#ff00ff" stop-opacity=".95"/>
    <stop offset="45%"  stop-color="#050508"/>
    <stop offset="100%" stop-color="#1e0600"/>
  </linearGradient>
  <linearGradient id="suitHir1x9534" x1="0%" y1="0%" x2="0%" y2="100%">
    <stop offset="0%"   stop-color="rgba(255,255,255,.28)"/>
    <stop offset="60%"  stop-color="rgba(255,255,255,.04)"/>
    <stop offset="100%" stop-color="rgba(255,255,255,0)"/>
  </linearGradient>
  <!-- Bevel: bright top, dark bottom for armour panels -->
  <linearGradient id="bevelr1x9534" x1="0%" y1="0%" x2="0%" y2="100%">
    <stop offset="0%"   stop-color="rgba(255,255,255,.55)"/>
    <stop offset="30%"  stop-color="#ff00ff"/>
    <stop offset="70%"  stop-color="#050508"/>
    <stop offset="100%" stop-color="rgba(0,0,0,.5)"/>
  </linearGradient>

  <!-- Weapon: cold steel blade sweep -->
  <linearGradient id="blader1x9534" x1="0%" y1="0%" x2="100%" y2="0%">
    <stop offset="0%"   stop-color="#0e0e20"/>
    <stop offset="16%"  stop-color="#3e3e58"/>
    <stop offset="34%"  stop-color="#c8c8e0"/>
    <stop offset="50%"  stop-color="#f5f5ff"/>
    <stop offset="66%"  stop-color="#b8b8d0"/>
    <stop offset="84%"  stop-color="#2e2e48"/>
    <stop offset="100%" stop-color="#08080e"/>
  </linearGradient>
  <!-- Blade tip brightening -->
  <linearGradient id="bladeTipr1x9534" x1="0%" y1="100%" x2="0%" y2="0%">
    <stop offset="0%"   stop-color="rgba(255,255,255,0)"/>
    <stop offset="55%"  stop-color="rgba(255,255,255,.1)"/>
    <stop offset="100%" stop-color="rgba(255,255,255,.55)"/>
  </linearGradient>
  <!-- Gunmetal anodised — blaster body -->
  <linearGradient id="gunmetalr1x9534" x1="0%" y1="0%" x2="0%" y2="100%">
    <stop offset="0%"   stop-color="#46465e"/>
    <stop offset="18%"  stop-color="#828296"/>
    <stop offset="42%"  stop-color="#26263a"/>
    <stop offset="72%"  stop-color="#16162a"/>
    <stop offset="100%" stop-color="#0c0c18"/>
  </linearGradient>
  <!-- Brushed steel tube — barrel/rod -->
  <linearGradient id="barrelr1x9534" x1="0%" y1="0%" x2="100%" y2="0%">
    <stop offset="0%"   stop-color="#0a0a14"/>
    <stop offset="24%"  stop-color="#585875"/>
    <stop offset="50%"  stop-color="#a8a8c8"/>
    <stop offset="76%"  stop-color="#383852"/>
    <stop offset="100%" stop-color="#0a0a14"/>
  </linearGradient>
  <!-- Chrome rod — lance shaft -->
  <linearGradient id="chromer1x9534" x1="0%" y1="0%" x2="100%" y2="0%">
    <stop offset="0%"   stop-color="#0c0c18"/>
    <stop offset="20%"  stop-color="#686888"/>
    <stop offset="44%"  stop-color="#e0e0f0"/>
    <stop offset="56%"  stop-color="#c0c0d8"/>
    <stop offset="80%"  stop-color="#28283e"/>
    <stop offset="100%" stop-color="#0c0c18"/>
  </linearGradient>
  <!-- Titanium plate — shield face -->
  <linearGradient id="titaniumr1x9534" x1="0%" y1="0%" x2="100%" y2="100%">
    <stop offset="0%"   stop-color="#585878"/>
    <stop offset="28%"  stop-color="#ff00ff" stop-opacity=".88"/>
    <stop offset="55%"  stop-color="#050508"/>
    <stop offset="80%"  stop-color="#181828"/>
    <stop offset="100%" stop-color="#0a0a18"/>
  </linearGradient>
  <!-- Artillery black-chrome — cannon body -->
  <linearGradient id="artilleryr1x9534" x1="0%" y1="0%" x2="0%" y2="100%">
    <stop offset="0%"   stop-color="#383850"/>
    <stop offset="14%"  stop-color="#78789a"/>
    <stop offset="36%"  stop-color="#202034"/>
    <stop offset="65%"  stop-color="#14141e"/>
    <stop offset="100%" stop-color="#0a0a12"/>
  </linearGradient>
  <!-- Energy orb — staff -->
  <radialGradient id="orbr1x9534" cx="35%" cy="35%" r="65%">
    <stop offset="0%"   stop-color="rgba(255,255,255,.9)"/>
    <stop offset="30%"  stop-color="#ff00ff"/>
    <stop offset="68%"  stop-color="#050508"/>
    <stop offset="100%" stop-color="rgba(0,0,0,.6)"/>
  </radialGradient>
  <!-- Knuckle plate chrome -->
  <linearGradient id="knuckler1x9534" x1="0%" y1="0%" x2="0%" y2="100%">
    <stop offset="0%"   stop-color="#888aaa"/>
    <stop offset="32%"  stop-color="#ff00ff" stop-opacity=".8"/>
    <stop offset="62%"  stop-color="#1a1a2c"/>
    <stop offset="100%" stop-color="#0a0a14"/>
  </linearGradient>

  <!-- Carbon fibre weave texture overlay -->
  <pattern id="carbonr1x9534" width="6" height="6" patternUnits="userSpaceOnUse">
    <rect width="6" height="6" fill="rgba(0,0,0,.08)"/>
    <rect x="0" y="0" width="3" height="3" fill="rgba(255,255,255,.022)"/>
    <rect x="3" y="3" width="3" height="3" fill="rgba(255,255,255,.022)"/>
    <line x1="0" y1="0" x2="3" y2="3" stroke="rgba(255,255,255,.038)" stroke-width=".5"/>
    <line x1="3" y1="0" x2="6" y2="3" stroke="rgba(0,0,0,.055)"       stroke-width=".5"/>
    <line x1="0" y1="3" x2="3" y2="6" stroke="rgba(0,0,0,.055)"       stroke-width=".5"/>
    <line x1="3" y1="3" x2="6" y2="6" stroke="rgba(255,255,255,.038)" stroke-width=".5"/>
  </pattern>

  <!-- Specular metal sheen on armour panels -->
  <filter id="metalr1x9534" x="-5%" y="-5%" width="110%" height="110%">
    <feSpecularLighting surfaceScale="4" specularConstant="1.8"
        specularExponent="42" lighting-color="#ffffff" result="spec">
      <feDistantLight elevation="52" azimuth="38"/>
    </feSpecularLighting>
    <feComposite in="spec" in2="SourceGraphic" operator="in" result="sm"/>
    <feComposite in="SourceGraphic" in2="sm" operator="arithmetic" k1="0" k2="1" k3="0.55" k4="0"/>
  </filter>

  <!-- Sharper specular for weapons — heavier glare -->
  <filter id="wmr1x9534" x="-8%" y="-8%" width="116%" height="116%">
    <feSpecularLighting surfaceScale="6" specularConstant="2.4"
        specularExponent="65" lighting-color="#ffffff" result="spec">
      <feDistantLight elevation="44" azimuth="28"/>
    </feSpecularLighting>
    <feComposite in="spec" in2="SourceGraphic" operator="in" result="sm"/>
    <feComposite in="SourceGraphic" in2="sm" operator="arithmetic" k1="0" k2="1" k3="0.78" k4="0"/>
  </filter>

  <!-- Sketch wobble -->
  <filter id="skr1x9534" x="-8%" y="-8%" width="116%" height="116%">
    <feTurbulence type="fractalNoise" baseFrequency="0.038"
        numOctaves="3" seed="39" result="noise"/>
    <feDisplacementMap in="SourceGraphic" in2="noise" scale="2.6"
        xChannelSelector="R" yChannelSelector="G" result="w"/>
    <feComposite in="w" in2="SourceGraphic" operator="atop"/>
  </filter>

  <!-- Glow: sharp accent -->
  <filter id="glowr1x9534" x="-20%" y="-20%" width="140%" height="140%">
    <feGaussianBlur stdDeviation="3.5" result="b"/>
    <feColorMatrix in="b" type="matrix"
        values="0 0 0 0 1  0 0 0 0 1  0 0 0 0 1  0 0 0 1.8 0" result="boost"/>
    <feMerge><feMergeNode in="boost"/><feMergeNode in="SourceGraphic"/></feMerge>
  </filter>

  <!-- Bloom: wide soft -->
  <filter id="bloomr1x9534" x="-40%" y="-40%" width="180%" height="180%">
    <feGaussianBlur stdDeviation="11" result="b"/>
    <feMerge><feMergeNode in="b"/><feMergeNode in="SourceGraphic"/></feMerge>
  </filter>

  </defs><rect width="1000" height="1000" fill="url(#bgr1x9534)"/><ellipse cx="500.0" cy="1000" rx="850.0" ry="350.0" fill="#ff4500" fill-opacity=".11" filter="url(#bloomr1x9534)"/><ellipse cx="500.0" cy="892.0" rx="350.0" ry="65.0" fill="rgba(0,0,0,.7)" filter="url(#bloomr1x9534)"/><ellipse cx="500.0" cy="889.0" rx="220.0" ry="34.0" fill="rgba(0,0,0,.45)"/><polygon points="397.5,664.1 489.3,662.1 479.4,878.8 388.6,877.5" fill="url(#suitr1x9534)" stroke="#ff00ff" stroke-width="2.2" filter="url(#skr1x9534) url(#metalr1x9534)"/><polygon points="397.3,661.1 488.2,663.8 480.0,878.7 386.5,876.2" fill="url(#carbonr1x9534)"/><polygon points="391.9,725.4 491.2,725.2 485.2,788.7 382.3,788.2" fill="url(#bevelr1x9534)" fill-opacity=".5" stroke="#ff00ff" stroke-width="1.4" filter="url(#skr1x9534)"/><polygon points="511.1,663.0 600.4,663.1 611.6,877.3 520.0,878.3" fill="url(#suitr1x9534)" stroke="#ff00ff" stroke-width="2.2" filter="url(#skr1x9534) url(#metalr1x9534)"/><polygon points="510.5,662.9 599.8,663.1 611.1,878.5 518.4,876.6" fill="url(#carbonr1x9534)"/><polygon points="508.6,724.7 606.3,723.5 617.0,786.6 517.4,789.9" fill="url(#bevelr1x9534)" fill-opacity=".5" stroke="#ff00ff" stroke-width="1.4" filter="url(#skr1x9534)"/><rect x="394.2" y="838.3" width="100.3" height="24.7" fill="url(#bevelr1x9534)" stroke="#ff00ff" stroke-width="1" filter="url(#skr1x9534)"/><rect x="505.5"  y="839.1" width="100.3" height="24.7" fill="url(#bevelr1x9534)" stroke="#ff00ff" stroke-width="1" filter="url(#skr1x9534)"/><polygon points="370.6,876.9 497.7,876.3 504.2,923.2 362.5,921.4" fill="#050508" stroke="#ff00ff" stroke-width="2" filter="url(#skr1x9534)"/><polygon points="504.2,878.0 629.4,876.7 636.7,921.5 495.5,922.0" fill="#050508" stroke="#ff00ff" stroke-width="2" filter="url(#skr1x9534)"/><polygon points="302.8,633.3 697.7,633.1 637.0,680.7 361.0,680.9" fill="#ff00ff" fill-opacity=".52" stroke="#ff00ff" stroke-width="2" filter="url(#skr1x9534)"/><rect x="465.3" y="639.3" width="72.0" height="42.0" fill="url(#bevelr1x9534)" stroke="#ff00ff" stroke-width="1.4" filter="url(#glowr1x9534)"/><rect x="485.3" y="639.0" width="28.0" height="22.0" rx="1" fill="rgba(255,255,255,.48)"/><polygon points="154.4,465.8 236.1,465.1 256.4,734.1 129.5,735.0" fill="url(#suitr1x9534)" stroke="#ff00ff" stroke-width="2.2" filter="url(#skr1x9534) url(#metalr1x9534)"/><polygon points="173.0,431.1 253.1,432.5 242.5,512.0 159.4,511.9" fill="url(#bevelr1x9534)" fill-opacity=".72" stroke="#ff00ff" stroke-width="2.2" filter="url(#skr1x9534)"/><polygon points="161.0,620.2 243.8,621.7 238.1,659.4 165.9,661.8" fill="#ff00ff" fill-opacity=".42" stroke="#ff00ff" stroke-width="1" filter="url(#skr1x9534)"/><polygon points="763.3,465.7 846.1,464.9 872.2,733.8 742.7,736.7" fill="url(#suitr1x9534)" stroke="#ff00ff" stroke-width="2.2" filter="url(#skr1x9534) url(#metalr1x9534)"/><polygon points="745.2,432.2 826.4,432.6 840.0,509.9 757.0,511.7" fill="url(#bevelr1x9534)" fill-opacity=".72" stroke="#ff00ff" stroke-width="2.2" filter="url(#skr1x9534)"/><polygon points="755.0,623.6 839.7,623.1 833.4,662.6 761.8,662.5" fill="#ff00ff" fill-opacity=".42" stroke="#ff00ff" stroke-width="1" filter="url(#skr1x9534)"/><rect x="121.0"  y="700.2" width="135.3" height="85.0" rx="4" fill="url(#bevelr1x9534)" stroke="#ff00ff" stroke-width="1.8" filter="url(#skr1x9534)"/><rect x="749.4"   y="699.9" width="135.3" height="85.0" rx="4" fill="url(#bevelr1x9534)" stroke="#ff00ff" stroke-width="1.8" filter="url(#skr1x9534)"/><line x1="148.5" y1="700.2" x2="148.5" y2="785.3" stroke="#ff00ff" stroke-opacity=".38" stroke-width="1"/><line x1="778.3" y1="701.1" x2="778.1" y2="785.4" stroke="#ff00ff" stroke-opacity=".38" stroke-width="1"/><line x1="181.2" y1="702.1" x2="181.4" y2="783.8" stroke="#ff00ff" stroke-opacity=".38" stroke-width="1"/><line x1="812.0" y1="703.3" x2="810.4" y2="782.2" stroke="#ff00ff" stroke-opacity=".38" stroke-width="1"/><line x1="214.8" y1="701.1" x2="213.9" y2="784.6" stroke="#ff00ff" stroke-opacity=".38" stroke-width="1"/><line x1="845.4" y1="701.1" x2="844.3" y2="782.6" stroke="#ff00ff" stroke-opacity=".38" stroke-width="1"/><polygon points="235.8,415.7 764.4,418.4 721.7,662.1 278.9,663.2" fill="url(#suitr1x9534)" stroke="#ff00ff" stroke-width="2.6" filter="url(#skr1x9534) url(#metalr1x9534)"/><polygon points="233.5,418.3 765.8,417.9 722.5,664.0 277.4,663.6" fill="url(#carbonr1x9534)"/><polygon points="368.0,417.2 631.5,416.3 612.2,517.0 388.9,514.3" fill="url(#suitHir1x9534)"/><line x1="362.4" y1="471.0" x2="637.1" y2="472.9" stroke="#ff00ff" stroke-opacity=".52" stroke-width="1.3" filter="url(#skr1x9534)"/><line x1="399.6" y1="548.5" x2="602.5" y2="551.4" stroke="#ff00ff" stroke-opacity=".52" stroke-width="1.3" filter="url(#skr1x9534)"/><line x1="265.5" y1="491.9" x2="321.4" y2="492.8" stroke="#ff00ff" stroke-opacity=".62" stroke-width="1.8"/><line x1="678.9" y1="492.6" x2="734.1" y2="490.9" stroke="#ff00ff" stroke-opacity=".62" stroke-width="1.8"/><line x1="265.9" y1="522.1" x2="319.6" y2="522.7" stroke="#ff00ff" stroke-opacity=".62" stroke-width="1.8"/><line x1="680.2" y1="524.0" x2="732.4" y2="523.6" stroke="#ff00ff" stroke-opacity=".62" stroke-width="1.8"/><line x1="265.1" y1="555.8" x2="318.5" y2="553.0" stroke="#ff00ff" stroke-opacity=".62" stroke-width="1.8"/><line x1="680.6" y1="556.1" x2="733.2" y2="553.8" stroke="#ff00ff" stroke-opacity=".62" stroke-width="1.8"/><line x1="267.9" y1="586.2" x2="321.6" y2="586.5" stroke="#ff00ff" stroke-opacity=".62" stroke-width="1.8"/><line x1="678.5" y1="586.4" x2="733.0" y2="585.6" stroke="#ff00ff" stroke-opacity=".62" stroke-width="1.8"/><g filter="url(#glowr1x9534)"><polygon points="499.9,452.8 515.6,490.1 556.2,490.9 524.8,520.3 534.2,555.8 500.7,535.4 465.4,559.2 475.0,519.8 444.9,492.7 485.9,489.0 " fill="#ff00ff" stroke="#1e0600" stroke-width="1.4" filter="url(#skr1x9534)"/><polygon points="499.9,452.8 515.6,490.1 556.2,490.9 524.8,520.3 534.2,555.8 500.7,535.4 465.4,559.2 475.0,519.8 444.9,492.7 485.9,489.0 " fill="url(#suitHir1x9534)" opacity=".45"/></g><g><line x1="897.2618133134768" y1="791.3649415198713" x2="915.3566503382847" y2="112.12070414340121" stroke="url(#chromer1x9534)" stroke-width="28.0" stroke-linecap="round" filter="url(#wmr1x9534)"/><line x1="903.8691768658906" y1="770.5204513056203" x2="912.9892443758064" y2="131.93619944527742" stroke="rgba(255,255,255,.42)" stroke-width="5.0" stroke-linecap="round"/><polygon points="870.3,152.4 936.2,150.7 915.5,-8.9" fill="url(#blader1x9534)" stroke="#ff00ff" stroke-width="1.8" filter="url(#wmr1x9534)"/><line x1="935.8" y1="151.4" x2="915.8" y2="-8.6" stroke="rgba(255,255,255,.72)" stroke-width="1.6"/><rect x="878.0239364881628" y="422.9185641706921" width="40.0" height="20.0" fill="url(#bevelr1x9534)" stroke="#ff00ff" stroke-width="1" filter="url(#wmr1x9534)"/><rect x="878.6178416059912" y="512.897633273527" width="40.0" height="20.0" fill="url(#bevelr1x9534)" stroke="#ff00ff" stroke-width="1" filter="url(#wmr1x9534)"/><rect x="877.1050964056142" y="601.8087742580101" width="40.0" height="20.0" fill="url(#bevelr1x9534)" stroke="#ff00ff" stroke-width="1" filter="url(#wmr1x9534)"/><rect x="877.1401408829354" y="689.7955665891059" width="40.0" height="20.0" fill="url(#bevelr1x9534)" stroke="#ff00ff" stroke-width="1" filter="url(#wmr1x9534)"/><ellipse cx="896.2132964079827" cy="792.5429255188443" rx="22.0" ry="15.0" fill="url(#bevelr1x9534)" stroke="#ff00ff" stroke-width="1" filter="url(#wmr1x9534)"/></g><rect x="449.89049760075284" y="558.4125699113123" width="100.0"  height="56.0" fill="#050508" stroke="#ff00ff" stroke-width="2.2" filter="url(#skr1x9534)"/><rect x="424.21766995107754" y="573.7219649133273" width="152.0" height="26.0" fill="url(#bevelr1x9534)" fill-opacity=".65" stroke="#ff00ff" stroke-width="1.2" filter="url(#skr1x9534)"/><polygon points="308.9,380.8 349.4,295.2 500.7,278.4 649.6,295.7 691.9,379.4 668.3,504.5 501.4,564.2 330.9,505.1" fill="url(#suitr1x9534)" stroke="#ff00ff" stroke-width="2.8" filter="url(#skr1x9534) url(#metalr1x9534)"/><polygon points="309.7,380.6 351.6,294.8 500.0,278.4 651.2,292.8 692.7,381.4 668.7,502.4 499.3,566.5 330.3,503.9" fill="url(#carbonr1x9534)"/><polygon points="382.3,303.7 499.3,285.5 618.1,303.9 605.9,380.5 392.3,379.2" fill="url(#suitHir1x9534)"/><polygon points="381.7,379.6 364.6,427.1 431.0,504.7 500.5,527.7 566.3,505.1 633.2,426.5 619.0,379.6" fill="#1e0600" fill-opacity=".88" stroke="#ff00ff" stroke-width="1.8" filter="url(#skr1x9534)"/><polygon points="381.6,412.4 478.2,412.0 484.4,441.4 388.8,438.4" fill="#ff00ff" filter="url(#glowr1x9534)"/><polygon points="523.3,412.3 618.7,410.1 613.1,439.1 513.8,438.4" fill="#ff00ff" filter="url(#glowr1x9534)"/><ellipse cx="430.9" cy="425.7" rx="38.4"  ry="8.2" fill="#ffffff" opacity=".88"/><ellipse cx="569.1" cy="425.7" rx="38.4"  ry="8.2" fill="#ffffff" opacity=".88"/><line x1="482.9403023980185" y1="411.8428996531293" x2="516.8654638737813" y2="414.38644962077956" stroke="#ff00ff" stroke-opacity=".52" stroke-width="2"/><line x1="485.2541074943356" y1="437.1017696502619" x2="515.7878070614673" y2="439.25313422922045" stroke="#ff00ff" stroke-opacity=".52" stroke-width="2"/><line x1="498.56885406449436" y1="453.13914262400937" x2="498.6383653526194" y2="483.8670436250046" stroke="#ff00ff" stroke-opacity=".58" stroke-width="2.2" filter="url(#skr1x9534)"/><line x1="453.8812819113769" y1="491.71200494356447" x2="455.5838758682646" y2="520.8978787481785" stroke="#ff00ff" stroke-opacity=".52" stroke-width="1.5" filter="url(#skr1x9534)"/><line x1="478.33438160851597" y1="492.3085398499853" x2="476.69583146287124" y2="520.9112527100369" stroke="#ff00ff" stroke-opacity=".52" stroke-width="1.5" filter="url(#skr1x9534)"/><line x1="498.7594048095867" y1="492.068292761594" x2="499.8761611801572" y2="521.6696967110969" stroke="#ff00ff" stroke-opacity=".52" stroke-width="1.5" filter="url(#skr1x9534)"/><line x1="524.0481845117732" y1="492.6349394793622" x2="524.5342156690173" y2="521.7887092411518" stroke="#ff00ff" stroke-opacity=".52" stroke-width="1.5" filter="url(#skr1x9534)"/><line x1="546.1195568271168" y1="491.9173175721429" x2="547.3637484071963" y2="519.0314295981079" stroke="#ff00ff" stroke-opacity=".52" stroke-width="1.5" filter="url(#skr1x9534)"/><polygon points="432.6,504.9 565.6,503.5 554.9,555.4 444.7,555.8" fill="#050508" fill-opacity=".72" stroke="#ff00ff" stroke-width="1.3" filter="url(#skr1x9534)"/><polygon points="477.2,301.9 524.3,304.0 510.5,175.0 487.1,176.4" fill="url(#bevelr1x9534)" stroke="#ff00ff" stroke-width="2.2" filter="url(#skr1x9534)"/><polygon points="364.9,324.4 458.9,324.1 470.5,227.5" fill="url(#bevelr1x9534)" fill-opacity=".78" stroke="#ff00ff" stroke-width="1.5" filter="url(#skr1x9534)"/><polygon points="540.7,324.3 634.6,322.3 531.1,228.0" fill="url(#bevelr1x9534)" fill-opacity=".78" stroke="#ff00ff" stroke-width="1.5" filter="url(#skr1x9534)"/><text x="30.0"  y="975.0" font-family="monospace" font-weight="bold" font-size="22.0" fill="rgba(255,255,255,.22)">#0001</text><text x="500.0"   y="975.0" text-anchor="middle" font-family="monospace" font-weight="bold" font-size="22.0" fill="#ff00ff" fill-opacity=".48">VOID RANGER</text><text x="970.0" y="975.0" text-anchor="end"    font-family="monospace" font-weight="bold" font-size="22.0" fill="#ff00ff" fill-opacity=".32">MECH RANGERS</text></svg>