<svg xmlns="http://www.w3.org/2000/svg" viewBox="0 0 1000 1000" width="1000" height="1000" shape-rendering="geometricPrecision"><defs>

  <!-- Scene gradients -->
  <radialGradient id="bgr1x9554" cx="50%" cy="42%" r="72%">
    <stop offset="0%"   stop-color="#1e0a2e"/>
    <stop offset="100%" stop-color="#0a0520"/>
  </radialGradient>
  <linearGradient id="suitr1x9554" x1="8%" y1="0%" x2="92%" y2="100%">
    <stop offset="0%"   stop-color="#ffd700" stop-opacity=".95"/>
    <stop offset="45%"  stop-color="#503400"/>
    <stop offset="100%" stop-color="#0a0520"/>
  </linearGradient>
  <linearGradient id="suitHir1x9554" x1="0%" y1="0%" x2="0%" y2="100%">
    <stop offset="0%"   stop-color="rgba(255,255,255,.28)"/>
    <stop offset="60%"  stop-color="rgba(255,255,255,.04)"/>
    <stop offset="100%" stop-color="rgba(255,255,255,0)"/>
  </linearGradient>
  <!-- Bevel: bright top, dark bottom for armour panels -->
  <linearGradient id="bevelr1x9554" x1="0%" y1="0%" x2="0%" y2="100%">
    <stop offset="0%"   stop-color="rgba(255,255,255,.55)"/>
    <stop offset="30%"  stop-color="#ffd700"/>
    <stop offset="70%"  stop-color="#503400"/>
    <stop offset="100%" stop-color="rgba(0,0,0,.5)"/>
  </linearGradient>

  <!-- Weapon: cold steel blade sweep -->
  <linearGradient id="blader1x9554" x1="0%" y1="0%" x2="100%" y2="0%">
    <stop offset="0%"   stop-color="#0e0e20"/>
    <stop offset="16%"  stop-color="#3e3e58"/>
    <stop offset="34%"  stop-color="#c8c8e0"/>
    <stop offset="50%"  stop-color="#f5f5ff"/>
    <stop offset="66%"  stop-color="#b8b8d0"/>
    <stop offset="84%"  stop-color="#2e2e48"/>
    <stop offset="100%" stop-color="#08080e"/>
  </linearGradient>
  <!-- Blade tip brightening -->
  <linearGradient id="bladeTipr1x9554" x1="0%" y1="100%" x2="0%" y2="0%">
    <stop offset="0%"   stop-color="rgba(255,255,255,0)"/>
    <stop offset="55%"  stop-color="rgba(255,255,255,.1)"/>
    <stop offset="100%" stop-color="rgba(255,255,255,.55)"/>
  </linearGradient>
  <!-- Gunmetal anodised — blaster body -->
  <linearGradient id="gunmetalr1x9554" x1="0%" y1="0%" x2="0%" y2="100%">
    <stop offset="0%"   stop-color="#46465e"/>
    <stop offset="18%"  stop-color="#828296"/>
    <stop offset="42%"  stop-color="#26263a"/>
    <stop offset="72%"  stop-color="#16162a"/>
    <stop offset="100%" stop-color="#0c0c18"/>
  </linearGradient>
  <!-- Brushed steel tube — barrel/rod -->
  <linearGradient id="barrelr1x9554" x1="0%" y1="0%" x2="100%" y2="0%">
    <stop offset="0%"   stop-color="#0a0a14"/>
    <stop offset="24%"  stop-color="#585875"/>
    <stop offset="50%"  stop-color="#a8a8c8"/>
    <stop offset="76%"  stop-color="#383852"/>
    <stop offset="100%" stop-color="#0a0a14"/>
  </linearGradient>
  <!-- Chrome rod — lance shaft -->
  <linearGradient id="chromer1x9554" x1="0%" y1="0%" x2="100%" y2="0%">
    <stop offset="0%"   stop-color="#0c0c18"/>
    <stop offset="20%"  stop-color="#686888"/>
    <stop offset="44%"  stop-color="#e0e0f0"/>
    <stop offset="56%"  stop-color="#c0c0d8"/>
    <stop offset="80%"  stop-color="#28283e"/>
    <stop offset="100%" stop-color="#0c0c18"/>
  </linearGradient>
  <!-- Titanium plate — shield face -->
  <linearGradient id="titaniumr1x9554" x1="0%" y1="0%" x2="100%" y2="100%">
    <stop offset="0%"   stop-color="#585878"/>
    <stop offset="28%"  stop-color="#ffd700" stop-opacity=".88"/>
    <stop offset="55%"  stop-color="#503400"/>
    <stop offset="80%"  stop-color="#181828"/>
    <stop offset="100%" stop-color="#0a0a18"/>
  </linearGradient>
  <!-- Artillery black-chrome — cannon body -->
  <linearGradient id="artilleryr1x9554" x1="0%" y1="0%" x2="0%" y2="100%">
    <stop offset="0%"   stop-color="#383850"/>
    <stop offset="14%"  stop-color="#78789a"/>
    <stop offset="36%"  stop-color="#202034"/>
    <stop offset="65%"  stop-color="#14141e"/>
    <stop offset="100%" stop-color="#0a0a12"/>
  </linearGradient>
  <!-- Energy orb — staff -->
  <radialGradient id="orbr1x9554" cx="35%" cy="35%" r="65%">
    <stop offset="0%"   stop-color="rgba(255,255,255,.9)"/>
    <stop offset="30%"  stop-color="#ffd700"/>
    <stop offset="68%"  stop-color="#503400"/>
    <stop offset="100%" stop-color="rgba(0,0,0,.6)"/>
  </radialGradient>
  <!-- Knuckle plate chrome -->
  <linearGradient id="knuckler1x9554" x1="0%" y1="0%" x2="0%" y2="100%">
    <stop offset="0%"   stop-color="#888aaa"/>
    <stop offset="32%"  stop-color="#ffd700" stop-opacity=".8"/>
    <stop offset="62%"  stop-color="#1a1a2c"/>
    <stop offset="100%" stop-color="#0a0a14"/>
  </linearGradient>

  <!-- Carbon fibre weave texture overlay -->
  <pattern id="carbonr1x9554" width="6" height="6" patternUnits="userSpaceOnUse">
    <rect width="6" height="6" fill="rgba(0,0,0,.08)"/>
    <rect x="0" y="0" width="3" height="3" fill="rgba(255,255,255,.022)"/>
    <rect x="3" y="3" width="3" height="3" fill="rgba(255,255,255,.022)"/>
    <line x1="0" y1="0" x2="3" y2="3" stroke="rgba(255,255,255,.038)" stroke-width=".5"/>
    <line x1="3" y1="0" x2="6" y2="3" stroke="rgba(0,0,0,.055)"       stroke-width=".5"/>
    <line x1="0" y1="3" x2="3" y2="6" stroke="rgba(0,0,0,.055)"       stroke-width=".5"/>
    <line x1="3" y1="3" x2="6" y2="6" stroke="rgba(255,255,255,.038)" stroke-width=".5"/>
  </pattern>

  <!-- Specular metal sheen on armour panels -->
  <filter id="metalr1x9554" x="-5%" y="-5%" width="110%" height="110%">
    <feSpecularLighting surfaceScale="4" specularConstant="1.8"
        specularExponent="42" lighting-color="#ffffff" result="spec">
      <feDistantLight elevation="52" azimuth="38"/>
    </feSpecularLighting>
    <feComposite in="spec" in2="SourceGraphic" operator="in" result="sm"/>
    <feComposite in="SourceGraphic" in2="sm" operator="arithmetic" k1="0" k2="1" k3="0.55" k4="0"/>
  </filter>

  <!-- Sharper specular for weapons — heavier glare -->
  <filter id="wmr1x9554" x="-8%" y="-8%" width="116%" height="116%">
    <feSpecularLighting surfaceScale="6" specularConstant="2.4"
        specularExponent="65" lighting-color="#ffffff" result="spec">
      <feDistantLight elevation="44" azimuth="28"/>
    </feSpecularLighting>
    <feComposite in="spec" in2="SourceGraphic" operator="in" result="sm"/>
    <feComposite in="SourceGraphic" in2="sm" operator="arithmetic" k1="0" k2="1" k3="0.78" k4="0"/>
  </filter>

  <!-- Sketch wobble -->
  <filter id="skr1x9554" x="-8%" y="-8%" width="116%" height="116%">
    <feTurbulence type="fractalNoise" baseFrequency="0.038"
        numOctaves="3" seed="16" result="noise"/>
    <feDisplacementMap in="SourceGraphic" in2="noise" scale="2.6"
        xChannelSelector="R" yChannelSelector="G" result="w"/>
    <feComposite in="w" in2="SourceGraphic" operator="atop"/>
  </filter>

  <!-- Glow: sharp accent -->
  <filter id="glowr1x9554" x="-20%" y="-20%" width="140%" height="140%">
    <feGaussianBlur stdDeviation="3.5" result="b"/>
    <feColorMatrix in="b" type="matrix"
        values="0 0 0 0 1  0 0 0 0 1  0 0 0 0 1  0 0 0 1.8 0" result="boost"/>
    <feMerge><feMergeNode in="boost"/><feMergeNode in="SourceGraphic"/></feMerge>
  </filter>

  <!-- Bloom: wide soft -->
  <filter id="bloomr1x9554" x="-40%" y="-40%" width="180%" height="180%">
    <feGaussianBlur stdDeviation="11" result="b"/>
    <feMerge><feMergeNode in="b"/><feMergeNode in="SourceGraphic"/></feMerge>
  </filter>

  </defs><rect width="1000" height="1000" fill="url(#bgr1x9554)"/><ellipse cx="500.0" cy="892.0" rx="350.0" ry="65.0" fill="rgba(0,0,0,.7)" filter="url(#bloomr1x9554)"/><ellipse cx="500.0" cy="889.0" rx="220.0" ry="34.0" fill="rgba(0,0,0,.45)"/><ellipse cx="500.0" cy="520.0" rx="320.0" ry="480.0" fill="#00e5ff" fill-opacity=".042" filter="url(#bloomr1x9554)"/><circle cx="394.8" cy="731.4" r="2.6" fill="#00e5ff" fill-opacity="0.65" filter="url(#glowr1x9554)"/><circle cx="361.7" cy="668.9" r="3.1" fill="#00e5ff" fill-opacity="0.50" filter="url(#glowr1x9554)"/><circle cx="284.5" cy="212.2" r="2.3" fill="#00e5ff" fill-opacity="0.80" filter="url(#glowr1x9554)"/><circle cx="691.1" cy="210.6" r="1.3" fill="#00e5ff" fill-opacity="0.87" filter="url(#glowr1x9554)"/><circle cx="545.1" cy="504.6" r="2.2" fill="#00e5ff" fill-opacity="0.43" filter="url(#glowr1x9554)"/><circle cx="427.3" cy="244.2" r="2.2" fill="#00e5ff" fill-opacity="0.72" filter="url(#glowr1x9554)"/><circle cx="719.8" cy="512.9" r="0.7" fill="#00e5ff" fill-opacity="0.73" filter="url(#glowr1x9554)"/><circle cx="361.0" cy="535.4" r="3.6" fill="#00e5ff" fill-opacity="0.87" filter="url(#glowr1x9554)"/><circle cx="465.3" cy="406.8" r="3.2" fill="#00e5ff" fill-opacity="0.55" filter="url(#glowr1x9554)"/><circle cx="485.6" cy="746.7" r="1.3" fill="#00e5ff" fill-opacity="0.85" filter="url(#glowr1x9554)"/><circle cx="335.9" cy="449.6" r="2.5" fill="#00e5ff" fill-opacity="0.69" filter="url(#glowr1x9554)"/><circle cx="640.9" cy="524.5" r="2.7" fill="#00e5ff" fill-opacity="0.87" filter="url(#glowr1x9554)"/><circle cx="703.0" cy="564.3" r="2.0" fill="#00e5ff" fill-opacity="0.49" filter="url(#glowr1x9554)"/><circle cx="686.6" cy="249.1" r="2.8" fill="#00e5ff" fill-opacity="0.47" filter="url(#glowr1x9554)"/><path d="M672.5,171.0 Q702.2,511.2 434.0,878.0" stroke="#00e5ff" stroke-opacity="0.48" stroke-width="1.1" fill="none" filter="url(#glowr1x9554)"/><path d="M424.9,241.4 Q422.5,582.6 664.9,898.9" stroke="#00e5ff" stroke-opacity="0.48" stroke-width="2.3" fill="none" filter="url(#glowr1x9554)"/><path d="M316.6,280.9 Q320.6,495.3 613.0,715.7" stroke="#00e5ff" stroke-opacity="0.64" stroke-width="2.6" fill="none" filter="url(#glowr1x9554)"/><path d="M349.8,154.9 Q321.4,511.0 384.3,843.2" stroke="#00e5ff" stroke-opacity="0.45" stroke-width="1.7" fill="none" filter="url(#glowr1x9554)"/><path d="M557.2,262.8 Q520.3,448.0 337.2,606.5" stroke="#00e5ff" stroke-opacity="0.52" stroke-width="1.2" fill="none" filter="url(#glowr1x9554)"/><polygon points="400.4,662.3 491.1,664.2 479.5,879.2 388.2,879.2" fill="url(#suitr1x9554)" stroke="#ffd700" stroke-width="2.2" filter="url(#skr1x9554) url(#metalr1x9554)"/><polygon points="398.7,662.2 491.1,664.2 481.8,879.2 389.1,875.7" fill="url(#carbonr1x9554)"/><polygon points="392.6,724.4 493.8,724.3 484.6,788.8 382.3,789.7" fill="url(#bevelr1x9554)" fill-opacity=".5" stroke="#ffd700" stroke-width="1.4" filter="url(#skr1x9554)"/><polygon points="509.5,662.9 601.8,664.0 611.9,877.0 519.0,876.5" fill="url(#suitr1x9554)" stroke="#ffd700" stroke-width="2.2" filter="url(#skr1x9554) url(#metalr1x9554)"/><polygon points="508.8,662.9 599.8,661.3 614.4,876.9 520.9,879.1" fill="url(#carbonr1x9554)"/><polygon points="505.7,722.2 608.1,724.9 616.9,789.9 515.4,789.9" fill="url(#bevelr1x9554)" fill-opacity=".5" stroke="#ffd700" stroke-width="1.4" filter="url(#skr1x9554)"/><rect x="391.9" y="837.7" width="100.3" height="24.7" fill="url(#bevelr1x9554)" stroke="#ffd700" stroke-width="1" filter="url(#skr1x9554)"/><rect x="507.8"  y="838.7" width="100.3" height="24.7" fill="url(#bevelr1x9554)" stroke="#ffd700" stroke-width="1" filter="url(#skr1x9554)"/><polygon points="371.5,877.9 496.9,876.7 505.1,921.9 363.7,921.2" fill="#503400" stroke="#ffd700" stroke-width="2" filter="url(#skr1x9554)"/><polygon points="502.2,877.9 628.7,875.8 635.7,920.8 495.8,920.5" fill="#503400" stroke="#ffd700" stroke-width="2" filter="url(#skr1x9554)"/><polygon points="302.8,631.9 697.7,632.0 637.2,683.8 363.5,682.7" fill="#ffd700" fill-opacity=".52" stroke="#ffd700" stroke-width="2" filter="url(#skr1x9554)"/><rect x="463.0" y="636.5" width="72.0" height="42.0" fill="url(#bevelr1x9554)" stroke="#ffd700" stroke-width="1.4" filter="url(#glowr1x9554)"/><rect x="484.7" y="640.1" width="28.0" height="22.0" rx="1" fill="rgba(255,255,255,.48)"/><polygon points="151.2,466.4 235.5,466.2 257.7,734.1 126.8,736.5" fill="url(#suitr1x9554)" stroke="#ffd700" stroke-width="2.2" filter="url(#skr1x9554) url(#metalr1x9554)"/><polygon points="172.3,430.9 254.0,433.5 241.6,509.9 159.4,511.0" fill="url(#bevelr1x9554)" fill-opacity=".72" stroke="#ffd700" stroke-width="2.2" filter="url(#skr1x9554)"/><polygon points="162.3,623.5 243.2,623.3 240.1,662.7 166.7,662.3" fill="#ffd700" fill-opacity=".42" stroke="#ffd700" stroke-width="1" filter="url(#skr1x9554)"/><polygon points="765.6,466.2 847.9,468.2 871.9,736.4 742.7,733.3" fill="url(#suitr1x9554)" stroke="#ffd700" stroke-width="2.2" filter="url(#skr1x9554) url(#metalr1x9554)"/><polygon points="747.3,432.7 825.1,431.6 839.7,510.1 756.0,510.1" fill="url(#bevelr1x9554)" fill-opacity=".72" stroke="#ffd700" stroke-width="2.2" filter="url(#skr1x9554)"/><polygon points="757.7,620.8 838.7,622.1 835.8,661.5 760.2,661.1" fill="#ffd700" fill-opacity=".42" stroke="#ffd700" stroke-width="1" filter="url(#skr1x9554)"/><rect x="118.9"  y="699.1" width="135.3" height="85.0" rx="4" fill="url(#bevelr1x9554)" stroke="#ffd700" stroke-width="1.8" filter="url(#skr1x9554)"/><rect x="749.9"   y="699.1" width="135.3" height="85.0" rx="4" fill="url(#bevelr1x9554)" stroke="#ffd700" stroke-width="1.8" filter="url(#skr1x9554)"/><line x1="151.2" y1="701.1" x2="148.9" y2="783.1" stroke="#ffd700" stroke-opacity=".38" stroke-width="1"/><line x1="776.4" y1="702.9" x2="776.6" y2="783.8" stroke="#ffd700" stroke-opacity=".38" stroke-width="1"/><line x1="184.2" y1="701.8" x2="183.9" y2="784.8" stroke="#ffd700" stroke-opacity=".38" stroke-width="1"/><line x1="810.9" y1="703.2" x2="811.5" y2="785.1" stroke="#ffd700" stroke-opacity=".38" stroke-width="1"/><line x1="216.5" y1="701.3" x2="214.9" y2="783.6" stroke="#ffd700" stroke-opacity=".38" stroke-width="1"/><line x1="844.0" y1="700.5" x2="842.8" y2="785.4" stroke="#ffd700" stroke-opacity=".38" stroke-width="1"/><polygon points="236.2,417.3 764.8,417.0 723.9,663.6 276.8,661.8" fill="url(#suitr1x9554)" stroke="#ffd700" stroke-width="2.6" filter="url(#skr1x9554) url(#metalr1x9554)"/><polygon points="233.8,417.9 766.6,416.5 722.7,663.3 277.6,662.1" fill="url(#carbonr1x9554)"/><polygon points="367.7,417.2 632.1,419.0 612.1,515.2 388.4,515.4" fill="url(#suitHir1x9554)"/><line x1="361.9" y1="469.9" x2="637.7" y2="469.7" stroke="#ffd700" stroke-opacity=".52" stroke-width="1.3" filter="url(#skr1x9554)"/><line x1="400.7" y1="548.9" x2="600.5" y2="550.0" stroke="#ffd700" stroke-opacity=".52" stroke-width="1.3" filter="url(#skr1x9554)"/><line x1="267.8" y1="489.9" x2="320.5" y2="492.4" stroke="#ffd700" stroke-opacity=".62" stroke-width="1.8"/><line x1="679.2" y1="492.7" x2="734.0" y2="491.5" stroke="#ffd700" stroke-opacity=".62" stroke-width="1.8"/><line x1="267.2" y1="522.6" x2="319.3" y2="521.5" stroke="#ffd700" stroke-opacity=".62" stroke-width="1.8"/><line x1="679.3" y1="524.6" x2="735.0" y2="522.2" stroke="#ffd700" stroke-opacity=".62" stroke-width="1.8"/><line x1="266.9" y1="554.1" x2="320.5" y2="554.6" stroke="#ffd700" stroke-opacity=".62" stroke-width="1.8"/><line x1="679.1" y1="555.0" x2="731.8" y2="555.9" stroke="#ffd700" stroke-opacity=".62" stroke-width="1.8"/><line x1="265.9" y1="586.0" x2="319.5" y2="584.9" stroke="#ffd700" stroke-opacity=".62" stroke-width="1.8"/><line x1="681.3" y1="586.7" x2="733.4" y2="586.1" stroke="#ffd700" stroke-opacity=".62" stroke-width="1.8"/><g filter="url(#glowr1x9554)"><polygon points="499.2,453.5 541.9,510.2 501.7,570.0 457.9,510.4" fill="#ffd700" stroke="#0a0520" stroke-width="1.4" filter="url(#skr1x9554)"/><polygon points="498.9,453.7 542.9,512.0 501.6,567.4 457.3,512.3" fill="url(#suitHir1x9554)" opacity=".45"/></g><g><polygon points="828.5,295.2 969.0,292.1 968.6,591.1 896.1,725.3 826.2,591.2" fill="url(#titaniumr1x9554)" stroke="#ffd700" stroke-width="2.6" filter="url(#wmr1x9554)"/><polygon points="828.4,293.3 968.8,293.3 968.8,592.0 898.2,726.9 826.9,592.5" fill="url(#carbonr1x9554)"/><polygon points="859.5,361.6 937.4,360.2 937.2,540.3 899.4,630.7 859.7,542.6" fill="#ffd700" fill-opacity=".28" stroke="#ffd700" stroke-width="1.5"/><line x1="847.2621901913174" y1="432.2720681374892" x2="948.4712566345557" y2="432.139895103313" stroke="#ffd700" stroke-opacity=".65" stroke-width="1.3"/><line x1="896.2577228224465" y1="331.5004345169291" x2="897.8953170137107" y2="589.8473271772265" stroke="#ffd700" stroke-opacity=".4" stroke-width="1"/><line x1="828.8994013802708" y1="297.1024459426291" x2="965.7079348283447" y2="296.64363838126883" stroke="rgba(255,255,255,.5)" stroke-width="2"/><circle cx="899.2745112260432" cy="431.4336113914847" r="18.0" fill="url(#bevelr1x9554)" stroke="#ffd700" stroke-width="1.2" filter="url(#wmr1x9554)"/></g><rect x="448.9287213256583" y="557.4769512778148" width="100.0"  height="56.0" fill="#503400" stroke="#ffd700" stroke-width="2.2" filter="url(#skr1x9554)"/><rect x="422.71697441712024" y="574.3153791508638" width="152.0" height="26.0" fill="url(#bevelr1x9554)" fill-opacity=".65" stroke="#ffd700" stroke-width="1.2" filter="url(#skr1x9554)"/><polygon points="307.6,382.3 349.6,295.6 498.9,278.6 650.3,294.4 693.1,379.0 669.4,502.8 499.4,566.3 330.0,503.4" fill="url(#suitr1x9554)" stroke="#ffd700" stroke-width="2.8" filter="url(#skr1x9554) url(#metalr1x9554)"/><polygon points="308.4,380.3 348.8,296.3 499.3,279.3 651.1,293.6 691.0,382.0 670.1,503.9 499.7,564.8 329.9,503.5" fill="url(#carbonr1x9554)"/><polygon points="381.8,301.8 500.5,285.5 620.6,303.8 606.6,381.1 393.9,380.4" fill="url(#suitHir1x9554)"/><polygon points="380.1,381.5 365.0,426.9 432.5,504.8 499.5,527.8 568.7,502.2 634.5,426.2 618.5,379.4" fill="#0a0520" fill-opacity=".88" stroke="#ffd700" stroke-width="1.8" filter="url(#skr1x9554)"/><polygon points="381.6,410.2 477.5,411.3 485.8,439.8 388.0,439.0" fill="#ffd700" filter="url(#glowr1x9554)"/><polygon points="523.5,412.3 618.0,412.3 611.0,440.9 516.8,440.9" fill="#ffd700" filter="url(#glowr1x9554)"/><ellipse cx="430.9" cy="425.7" rx="38.4"  ry="8.2" fill="#ffffff" opacity=".88"/><ellipse cx="569.1" cy="425.7" rx="38.4"  ry="8.2" fill="#ffffff" opacity=".88"/><line x1="484.8305010068789" y1="413.8252038083039" x2="516.034589155987" y2="412.79654961274935" stroke="#ffd700" stroke-opacity=".52" stroke-width="2"/><line x1="483.5447780747525" y1="439.5282252402976" x2="513.5859018720128" y2="439.2118270260282" stroke="#ffd700" stroke-opacity=".52" stroke-width="2"/><line x1="498.351195591595" y1="455.8203770733438" x2="501.167556680087" y2="483.195240261592" stroke="#ffd700" stroke-opacity=".58" stroke-width="2.2" filter="url(#skr1x9554)"/><line x1="454.9350317002088" y1="490.7014061922207" x2="454.3669899370335" y2="520.2279180170968" stroke="#ffd700" stroke-opacity=".52" stroke-width="1.5" filter="url(#skr1x9554)"/><line x1="476.26410707285623" y1="491.15344277843826" x2="476.0643728447519" y2="521.1439959725365" stroke="#ffd700" stroke-opacity=".52" stroke-width="1.5" filter="url(#skr1x9554)"/><line x1="501.75855535119774" y1="493.0406613902188" x2="499.6041674876586" y2="518.2199709060602" stroke="#ffd700" stroke-opacity=".52" stroke-width="1.5" filter="url(#skr1x9554)"/><line x1="522.6086894010753" y1="490.05192327871913" x2="524.810973584149" y2="521.555369555112" stroke="#ffd700" stroke-opacity=".52" stroke-width="1.5" filter="url(#skr1x9554)"/><line x1="547.4911592245288" y1="490.37457802547135" x2="544.4308663537912" y2="521.1721032280475" stroke="#ffd700" stroke-opacity=".52" stroke-width="1.5" filter="url(#skr1x9554)"/><polygon points="432.4,504.2 568.4,505.1 552.5,557.8 444.7,556.3" fill="#503400" fill-opacity=".72" stroke="#ffd700" stroke-width="1.3" filter="url(#skr1x9554)"/><text x="30.0"  y="975.0" font-family="monospace" font-weight="bold" font-size="22.0" fill="rgba(255,255,255,.22)">#0001</text><text x="500.0"   y="975.0" text-anchor="middle" font-family="monospace" font-weight="bold" font-size="22.0" fill="#ffd700" fill-opacity=".48">IMPERIAL RANGER</text><text x="970.0" y="975.0" text-anchor="end"    font-family="monospace" font-weight="bold" font-size="22.0" fill="#ffd700" fill-opacity=".32">MECH RANGERS</text></svg>