<svg xmlns="http://www.w3.org/2000/svg" viewBox="0 0 1000 1000" width="1000" height="1000" shape-rendering="geometricPrecision"><defs>

  <!-- Scene gradients -->
  <radialGradient id="bgr1x9625" cx="50%" cy="42%" r="72%">
    <stop offset="0%"   stop-color="#0a0a14"/>
    <stop offset="100%" stop-color="#050508"/>
  </radialGradient>
  <linearGradient id="suitr1x9625" x1="8%" y1="0%" x2="92%" y2="100%">
    <stop offset="0%"   stop-color="#2060ff" stop-opacity=".95"/>
    <stop offset="45%"  stop-color="#003ccc"/>
    <stop offset="100%" stop-color="#050508"/>
  </linearGradient>
  <linearGradient id="suitHir1x9625" x1="0%" y1="0%" x2="0%" y2="100%">
    <stop offset="0%"   stop-color="rgba(255,255,255,.28)"/>
    <stop offset="60%"  stop-color="rgba(255,255,255,.04)"/>
    <stop offset="100%" stop-color="rgba(255,255,255,0)"/>
  </linearGradient>
  <!-- Bevel: bright top, dark bottom for armour panels -->
  <linearGradient id="bevelr1x9625" x1="0%" y1="0%" x2="0%" y2="100%">
    <stop offset="0%"   stop-color="rgba(255,255,255,.55)"/>
    <stop offset="30%"  stop-color="#2060ff"/>
    <stop offset="70%"  stop-color="#003ccc"/>
    <stop offset="100%" stop-color="rgba(0,0,0,.5)"/>
  </linearGradient>

  <!-- Weapon: cold steel blade sweep -->
  <linearGradient id="blader1x9625" x1="0%" y1="0%" x2="100%" y2="0%">
    <stop offset="0%"   stop-color="#0e0e20"/>
    <stop offset="16%"  stop-color="#3e3e58"/>
    <stop offset="34%"  stop-color="#c8c8e0"/>
    <stop offset="50%"  stop-color="#f5f5ff"/>
    <stop offset="66%"  stop-color="#b8b8d0"/>
    <stop offset="84%"  stop-color="#2e2e48"/>
    <stop offset="100%" stop-color="#08080e"/>
  </linearGradient>
  <!-- Blade tip brightening -->
  <linearGradient id="bladeTipr1x9625" x1="0%" y1="100%" x2="0%" y2="0%">
    <stop offset="0%"   stop-color="rgba(255,255,255,0)"/>
    <stop offset="55%"  stop-color="rgba(255,255,255,.1)"/>
    <stop offset="100%" stop-color="rgba(255,255,255,.55)"/>
  </linearGradient>
  <!-- Gunmetal anodised — blaster body -->
  <linearGradient id="gunmetalr1x9625" x1="0%" y1="0%" x2="0%" y2="100%">
    <stop offset="0%"   stop-color="#46465e"/>
    <stop offset="18%"  stop-color="#828296"/>
    <stop offset="42%"  stop-color="#26263a"/>
    <stop offset="72%"  stop-color="#16162a"/>
    <stop offset="100%" stop-color="#0c0c18"/>
  </linearGradient>
  <!-- Brushed steel tube — barrel/rod -->
  <linearGradient id="barrelr1x9625" x1="0%" y1="0%" x2="100%" y2="0%">
    <stop offset="0%"   stop-color="#0a0a14"/>
    <stop offset="24%"  stop-color="#585875"/>
    <stop offset="50%"  stop-color="#a8a8c8"/>
    <stop offset="76%"  stop-color="#383852"/>
    <stop offset="100%" stop-color="#0a0a14"/>
  </linearGradient>
  <!-- Chrome rod — lance shaft -->
  <linearGradient id="chromer1x9625" x1="0%" y1="0%" x2="100%" y2="0%">
    <stop offset="0%"   stop-color="#0c0c18"/>
    <stop offset="20%"  stop-color="#686888"/>
    <stop offset="44%"  stop-color="#e0e0f0"/>
    <stop offset="56%"  stop-color="#c0c0d8"/>
    <stop offset="80%"  stop-color="#28283e"/>
    <stop offset="100%" stop-color="#0c0c18"/>
  </linearGradient>
  <!-- Titanium plate — shield face -->
  <linearGradient id="titaniumr1x9625" x1="0%" y1="0%" x2="100%" y2="100%">
    <stop offset="0%"   stop-color="#585878"/>
    <stop offset="28%"  stop-color="#2060ff" stop-opacity=".88"/>
    <stop offset="55%"  stop-color="#003ccc"/>
    <stop offset="80%"  stop-color="#181828"/>
    <stop offset="100%" stop-color="#0a0a18"/>
  </linearGradient>
  <!-- Artillery black-chrome — cannon body -->
  <linearGradient id="artilleryr1x9625" x1="0%" y1="0%" x2="0%" y2="100%">
    <stop offset="0%"   stop-color="#383850"/>
    <stop offset="14%"  stop-color="#78789a"/>
    <stop offset="36%"  stop-color="#202034"/>
    <stop offset="65%"  stop-color="#14141e"/>
    <stop offset="100%" stop-color="#0a0a12"/>
  </linearGradient>
  <!-- Energy orb — staff -->
  <radialGradient id="orbr1x9625" cx="35%" cy="35%" r="65%">
    <stop offset="0%"   stop-color="rgba(255,255,255,.9)"/>
    <stop offset="30%"  stop-color="#2060ff"/>
    <stop offset="68%"  stop-color="#003ccc"/>
    <stop offset="100%" stop-color="rgba(0,0,0,.6)"/>
  </radialGradient>
  <!-- Knuckle plate chrome -->
  <linearGradient id="knuckler1x9625" x1="0%" y1="0%" x2="0%" y2="100%">
    <stop offset="0%"   stop-color="#888aaa"/>
    <stop offset="32%"  stop-color="#2060ff" stop-opacity=".8"/>
    <stop offset="62%"  stop-color="#1a1a2c"/>
    <stop offset="100%" stop-color="#0a0a14"/>
  </linearGradient>

  <!-- Carbon fibre weave texture overlay -->
  <pattern id="carbonr1x9625" width="6" height="6" patternUnits="userSpaceOnUse">
    <rect width="6" height="6" fill="rgba(0,0,0,.08)"/>
    <rect x="0" y="0" width="3" height="3" fill="rgba(255,255,255,.022)"/>
    <rect x="3" y="3" width="3" height="3" fill="rgba(255,255,255,.022)"/>
    <line x1="0" y1="0" x2="3" y2="3" stroke="rgba(255,255,255,.038)" stroke-width=".5"/>
    <line x1="3" y1="0" x2="6" y2="3" stroke="rgba(0,0,0,.055)"       stroke-width=".5"/>
    <line x1="0" y1="3" x2="3" y2="6" stroke="rgba(0,0,0,.055)"       stroke-width=".5"/>
    <line x1="3" y1="3" x2="6" y2="6" stroke="rgba(255,255,255,.038)" stroke-width=".5"/>
  </pattern>

  <!-- Specular metal sheen on armour panels -->
  <filter id="metalr1x9625" x="-5%" y="-5%" width="110%" height="110%">
    <feSpecularLighting surfaceScale="4" specularConstant="1.8"
        specularExponent="42" lighting-color="#ffffff" result="spec">
      <feDistantLight elevation="52" azimuth="38"/>
    </feSpecularLighting>
    <feComposite in="spec" in2="SourceGraphic" operator="in" result="sm"/>
    <feComposite in="SourceGraphic" in2="sm" operator="arithmetic" k1="0" k2="1" k3="0.55" k4="0"/>
  </filter>

  <!-- Sharper specular for weapons — heavier glare -->
  <filter id="wmr1x9625" x="-8%" y="-8%" width="116%" height="116%">
    <feSpecularLighting surfaceScale="6" specularConstant="2.4"
        specularExponent="65" lighting-color="#ffffff" result="spec">
      <feDistantLight elevation="44" azimuth="28"/>
    </feSpecularLighting>
    <feComposite in="spec" in2="SourceGraphic" operator="in" result="sm"/>
    <feComposite in="SourceGraphic" in2="sm" operator="arithmetic" k1="0" k2="1" k3="0.78" k4="0"/>
  </filter>

  <!-- Sketch wobble -->
  <filter id="skr1x9625" x="-8%" y="-8%" width="116%" height="116%">
    <feTurbulence type="fractalNoise" baseFrequency="0.038"
        numOctaves="3" seed="56" result="noise"/>
    <feDisplacementMap in="SourceGraphic" in2="noise" scale="2.6"
        xChannelSelector="R" yChannelSelector="G" result="w"/>
    <feComposite in="w" in2="SourceGraphic" operator="atop"/>
  </filter>

  <!-- Glow: sharp accent -->
  <filter id="glowr1x9625" x="-20%" y="-20%" width="140%" height="140%">
    <feGaussianBlur stdDeviation="3.5" result="b"/>
    <feColorMatrix in="b" type="matrix"
        values="0 0 0 0 1  0 0 0 0 1  0 0 0 0 1  0 0 0 1.8 0" result="boost"/>
    <feMerge><feMergeNode in="boost"/><feMergeNode in="SourceGraphic"/></feMerge>
  </filter>

  <!-- Bloom: wide soft -->
  <filter id="bloomr1x9625" x="-40%" y="-40%" width="180%" height="180%">
    <feGaussianBlur stdDeviation="11" result="b"/>
    <feMerge><feMergeNode in="b"/><feMergeNode in="SourceGraphic"/></feMerge>
  </filter>

  </defs><rect width="1000" height="1000" fill="url(#bgr1x9625)"/><ellipse cx="500.0" cy="892.0" rx="350.0" ry="65.0" fill="rgba(0,0,0,.7)" filter="url(#bloomr1x9625)"/><ellipse cx="500.0" cy="889.0" rx="220.0" ry="34.0" fill="rgba(0,0,0,.45)"/><ellipse cx="500.0" cy="520.0" rx="320.0" ry="480.0" fill="#00e5ff" fill-opacity=".042" filter="url(#bloomr1x9625)"/><circle cx="494.1" cy="527.4" r="2.3" fill="#00e5ff" fill-opacity="0.74" filter="url(#glowr1x9625)"/><circle cx="403.1" cy="418.4" r="3.0" fill="#00e5ff" fill-opacity="0.49" filter="url(#glowr1x9625)"/><circle cx="497.1" cy="420.5" r="3.7" fill="#00e5ff" fill-opacity="0.78" filter="url(#glowr1x9625)"/><circle cx="424.3" cy="728.6" r="3.3" fill="#00e5ff" fill-opacity="0.82" filter="url(#glowr1x9625)"/><circle cx="658.0" cy="556.1" r="2.2" fill="#00e5ff" fill-opacity="0.90" filter="url(#glowr1x9625)"/><circle cx="317.5" cy="651.3" r="1.9" fill="#00e5ff" fill-opacity="0.63" filter="url(#glowr1x9625)"/><circle cx="492.9" cy="212.2" r="3.2" fill="#00e5ff" fill-opacity="0.46" filter="url(#glowr1x9625)"/><circle cx="492.6" cy="478.5" r="1.5" fill="#00e5ff" fill-opacity="0.81" filter="url(#glowr1x9625)"/><circle cx="461.1" cy="597.8" r="1.1" fill="#00e5ff" fill-opacity="0.56" filter="url(#glowr1x9625)"/><circle cx="592.6" cy="192.5" r="1.6" fill="#00e5ff" fill-opacity="0.59" filter="url(#glowr1x9625)"/><circle cx="334.7" cy="184.8" r="1.1" fill="#00e5ff" fill-opacity="0.43" filter="url(#glowr1x9625)"/><circle cx="522.1" cy="336.5" r="2.5" fill="#00e5ff" fill-opacity="0.41" filter="url(#glowr1x9625)"/><circle cx="689.0" cy="698.3" r="2.5" fill="#00e5ff" fill-opacity="0.41" filter="url(#glowr1x9625)"/><circle cx="375.9" cy="460.1" r="4.3" fill="#00e5ff" fill-opacity="0.56" filter="url(#glowr1x9625)"/><path d="M578.2,391.0 Q552.9,507.8 587.4,666.4" stroke="#00e5ff" stroke-opacity="0.78" stroke-width="1.4" fill="none" filter="url(#glowr1x9625)"/><path d="M465.2,362.2 Q478.0,590.4 410.4,837.5" stroke="#00e5ff" stroke-opacity="0.41" stroke-width="2.1" fill="none" filter="url(#glowr1x9625)"/><path d="M444.8,375.8 Q452.7,474.8 443.8,626.4" stroke="#00e5ff" stroke-opacity="0.60" stroke-width="1.7" fill="none" filter="url(#glowr1x9625)"/><path d="M569.4,362.6 Q585.2,586.5 387.8,756.8" stroke="#00e5ff" stroke-opacity="0.56" stroke-width="0.8" fill="none" filter="url(#glowr1x9625)"/><path d="M477.8,363.2 Q440.2,576.5 674.1,769.1" stroke="#00e5ff" stroke-opacity="0.69" stroke-width="0.7" fill="none" filter="url(#glowr1x9625)"/><polygon points="399.0,661.7 489.2,663.9 480.3,875.9 387.0,877.5" fill="url(#suitr1x9625)" stroke="#2060ff" stroke-width="2.2" filter="url(#skr1x9625) url(#metalr1x9625)"/><polygon points="400.0,663.2 489.3,664.2 480.8,877.8 387.7,878.5" fill="url(#carbonr1x9625)"/><polygon points="391.4,724.2 492.6,724.6 483.1,789.0 385.6,787.3" fill="url(#bevelr1x9625)" fill-opacity=".5" stroke="#2060ff" stroke-width="1.4" filter="url(#skr1x9625)"/><polygon points="511.9,662.8 599.9,661.3 613.6,879.2 520.6,877.0" fill="url(#suitr1x9625)" stroke="#2060ff" stroke-width="2.2" filter="url(#skr1x9625) url(#metalr1x9625)"/><polygon points="510.3,663.1 599.6,661.9 612.7,879.1 518.2,877.2" fill="url(#carbonr1x9625)"/><polygon points="505.3,723.8 605.6,722.5 615.6,786.5 515.5,789.8" fill="url(#bevelr1x9625)" fill-opacity=".5" stroke="#2060ff" stroke-width="1.4" filter="url(#skr1x9625)"/><rect x="392.4" y="840.3" width="100.3" height="24.7" fill="url(#bevelr1x9625)" stroke="#2060ff" stroke-width="1" filter="url(#skr1x9625)"/><rect x="506.9"  y="839.4" width="100.3" height="24.7" fill="url(#bevelr1x9625)" stroke="#2060ff" stroke-width="1" filter="url(#skr1x9625)"/><polygon points="369.9,877.7 497.0,875.8 505.0,919.7 363.9,920.4" fill="#003ccc" stroke="#2060ff" stroke-width="2" filter="url(#skr1x9625)"/><polygon points="502.0,877.6 631.5,876.9 638.6,920.0 497.3,921.8" fill="#003ccc" stroke="#2060ff" stroke-width="2" filter="url(#skr1x9625)"/><polygon points="305.0,633.6 697.7,632.8 638.8,682.7 362.2,683.2" fill="#2060ff" fill-opacity=".52" stroke="#2060ff" stroke-width="2" filter="url(#skr1x9625)"/><rect x="463.4" y="637.5" width="72.0" height="42.0" fill="url(#bevelr1x9625)" stroke="#2060ff" stroke-width="1.4" filter="url(#glowr1x9625)"/><rect x="485.3" y="640.5" width="28.0" height="22.0" rx="1" fill="rgba(255,255,255,.48)"/><polygon points="152.6,466.1 234.5,466.1 257.2,735.3 127.0,735.1" fill="url(#suitr1x9625)" stroke="#2060ff" stroke-width="2.2" filter="url(#skr1x9625) url(#metalr1x9625)"/><polygon points="175.0,431.9 251.6,430.7 244.8,509.2 159.3,511.2" fill="url(#bevelr1x9625)" fill-opacity=".72" stroke="#2060ff" stroke-width="2.2" filter="url(#skr1x9625)"/><polygon points="162.7,620.8 244.6,623.4 238.5,662.2 166.3,661.7" fill="#2060ff" fill-opacity=".42" stroke="#2060ff" stroke-width="1" filter="url(#skr1x9625)"/><polygon points="766.8,467.4 846.9,465.0 870.9,736.0 742.8,733.6" fill="url(#suitr1x9625)" stroke="#2060ff" stroke-width="2.2" filter="url(#skr1x9625) url(#metalr1x9625)"/><polygon points="747.2,434.0 826.8,433.9 841.8,510.1 757.7,511.3" fill="url(#bevelr1x9625)" fill-opacity=".72" stroke="#2060ff" stroke-width="2.2" filter="url(#skr1x9625)"/><polygon points="755.0,622.7 840.2,622.2 834.5,660.4 759.4,662.6" fill="#2060ff" fill-opacity=".42" stroke="#2060ff" stroke-width="1" filter="url(#skr1x9625)"/><rect x="119.9"  y="700.0" width="135.3" height="85.0" rx="4" fill="url(#bevelr1x9625)" stroke="#2060ff" stroke-width="1.8" filter="url(#skr1x9625)"/><rect x="748.3"   y="699.8" width="135.3" height="85.0" rx="4" fill="url(#bevelr1x9625)" stroke="#2060ff" stroke-width="1.8" filter="url(#skr1x9625)"/><line x1="151.4" y1="701.6" x2="148.4" y2="783.7" stroke="#2060ff" stroke-opacity=".38" stroke-width="1"/><line x1="777.6" y1="702.7" x2="777.5" y2="784.6" stroke="#2060ff" stroke-opacity=".38" stroke-width="1"/><line x1="181.8" y1="701.5" x2="182.6" y2="782.3" stroke="#2060ff" stroke-opacity=".38" stroke-width="1"/><line x1="811.9" y1="702.2" x2="811.7" y2="784.3" stroke="#2060ff" stroke-opacity=".38" stroke-width="1"/><line x1="215.0" y1="700.4" x2="213.7" y2="783.7" stroke="#2060ff" stroke-opacity=".38" stroke-width="1"/><line x1="842.9" y1="702.7" x2="843.1" y2="783.1" stroke="#2060ff" stroke-opacity=".38" stroke-width="1"/><polygon points="236.7,417.7 764.4,416.7 722.0,663.7 277.4,663.3" fill="url(#suitr1x9625)" stroke="#2060ff" stroke-width="2.6" filter="url(#skr1x9625) url(#metalr1x9625)"/><polygon points="235.7,417.4 766.5,417.9 724.1,664.0 275.9,661.7" fill="url(#carbonr1x9625)"/><polygon points="368.6,417.1 632.1,419.3 612.6,516.6 387.8,513.7" fill="url(#suitHir1x9625)"/><line x1="361.0" y1="470.2" x2="637.1" y2="471.1" stroke="#2060ff" stroke-opacity=".52" stroke-width="1.3" filter="url(#skr1x9625)"/><line x1="399.2" y1="550.0" x2="601.0" y2="550.8" stroke="#2060ff" stroke-opacity=".52" stroke-width="1.3" filter="url(#skr1x9625)"/><line x1="267.6" y1="489.9" x2="321.5" y2="491.3" stroke="#2060ff" stroke-opacity=".62" stroke-width="1.8"/><line x1="679.1" y1="490.6" x2="732.4" y2="490.2" stroke="#2060ff" stroke-opacity=".62" stroke-width="1.8"/><line x1="265.4" y1="524.4" x2="320.1" y2="524.2" stroke="#2060ff" stroke-opacity=".62" stroke-width="1.8"/><line x1="680.4" y1="521.9" x2="733.1" y2="521.1" stroke="#2060ff" stroke-opacity=".62" stroke-width="1.8"/><line x1="265.1" y1="556.2" x2="321.4" y2="554.1" stroke="#2060ff" stroke-opacity=".62" stroke-width="1.8"/><line x1="680.0" y1="554.6" x2="732.7" y2="556.3" stroke="#2060ff" stroke-opacity=".62" stroke-width="1.8"/><line x1="266.7" y1="585.3" x2="319.5" y2="587.1" stroke="#2060ff" stroke-opacity=".62" stroke-width="1.8"/><line x1="680.4" y1="587.3" x2="731.5" y2="586.4" stroke="#2060ff" stroke-opacity=".62" stroke-width="1.8"/><g filter="url(#glowr1x9625)"><polygon points="481.8,453.0 511.7,505.8 498.7,505.5 516.5,570.2 488.8,514.3 500.8,515.2" fill="#2060ff" stroke="#050508" stroke-width="1.4" filter="url(#skr1x9625)"/><polygon points="484.0,453.2 512.9,504.5 498.3,505.3 515.8,569.4 486.5,515.8 500.3,514.0" fill="url(#suitHir1x9625)" opacity=".4"/></g><g><polygon points="826.5,293.1 968.4,292.6 969.4,590.5 899.1,726.3 827.0,590.7" fill="url(#titaniumr1x9625)" stroke="#2060ff" stroke-width="2.6" filter="url(#wmr1x9625)"/><polygon points="828.3,293.9 967.5,293.9 966.8,589.7 897.5,725.2 826.4,592.2" fill="url(#carbonr1x9625)"/><polygon points="859.3,361.6 936.2,361.5 934.4,540.4 898.0,630.3 858.9,542.6" fill="#2060ff" fill-opacity=".28" stroke="#2060ff" stroke-width="1.5"/><line x1="847.0532429750637" y1="431.336764575541" x2="949.0444946060517" y2="431.21020267568525" stroke="#2060ff" stroke-opacity=".65" stroke-width="1.3"/><line x1="897.2901891494729" y1="331.0228174828924" x2="896.4281722709164" y2="593.0025451776571" stroke="#2060ff" stroke-opacity=".4" stroke-width="1"/><line x1="830.3770238306001" y1="296.4978172232397" x2="964.433678119313" y2="296.2598029565066" stroke="rgba(255,255,255,.5)" stroke-width="2"/><circle cx="897.4746060798503" cy="433.02742882193996" r="18.0" fill="url(#bevelr1x9625)" stroke="#2060ff" stroke-width="1.2" filter="url(#wmr1x9625)"/></g><rect x="448.3531952999532" y="557.2886763527058" width="100.0"  height="56.0" fill="#003ccc" stroke="#2060ff" stroke-width="2.2" filter="url(#skr1x9625)"/><rect x="422.53619067212566" y="574.5617676513269" width="152.0" height="26.0" fill="url(#bevelr1x9625)" fill-opacity=".65" stroke="#2060ff" stroke-width="1.2" filter="url(#skr1x9625)"/><polygon points="307.1,379.3 349.4,295.3 499.0,277.9 648.4,294.1 690.7,380.7 668.4,503.8 501.1,564.1 331.9,505.2" fill="url(#suitr1x9625)" stroke="#2060ff" stroke-width="2.8" filter="url(#skr1x9625) url(#metalr1x9625)"/><polygon points="309.6,379.5 349.1,294.5 501.1,277.9 650.4,293.7 690.5,381.1 667.3,504.2 501.1,564.9 332.4,503.6" fill="url(#carbonr1x9625)"/><polygon points="379.3,302.0 501.6,286.1 618.2,301.8 608.6,380.3 392.8,381.7" fill="url(#suitHir1x9625)"/><polygon points="380.9,380.6 365.8,424.6 433.3,503.0 499.0,528.6 565.6,502.0 635.2,427.4 619.9,379.7" fill="#050508" fill-opacity=".88" stroke="#2060ff" stroke-width="1.8" filter="url(#skr1x9625)"/><polygon points="381.0,411.4 478.1,411.5 484.7,441.2 388.1,439.7" fill="#2060ff" filter="url(#glowr1x9625)"/><polygon points="524.8,413.0 617.8,410.1 612.7,438.4 515.4,438.5" fill="#2060ff" filter="url(#glowr1x9625)"/><ellipse cx="430.9" cy="425.7" rx="38.4"  ry="8.2" fill="#ffffff" opacity=".88"/><ellipse cx="569.1" cy="425.7" rx="38.4"  ry="8.2" fill="#ffffff" opacity=".88"/><line x1="484.78772220132873" y1="412.2981332866475" x2="514.0470471956208" y2="413.5502602223307" stroke="#2060ff" stroke-opacity=".52" stroke-width="2"/><line x1="485.2900260365195" y1="436.8907089128159" x2="514.6693524921685" y2="437.5992046818137" stroke="#2060ff" stroke-opacity=".52" stroke-width="2"/><line x1="498.23520799651743" y1="454.5139317044988" x2="500.13645442314447" y2="482.925117602665" stroke="#2060ff" stroke-opacity=".58" stroke-width="2.2" filter="url(#skr1x9625)"/><line x1="453.83336565632374" y1="492.67937339562917" x2="454.1478872689232" y2="519.0126397063956" stroke="#2060ff" stroke-opacity=".52" stroke-width="1.5" filter="url(#skr1x9625)"/><line x1="477.5517928019538" y1="490.53526526661585" x2="475.17027031829576" y2="520.3037292785942" stroke="#2060ff" stroke-opacity=".52" stroke-width="1.5" filter="url(#skr1x9625)"/><line x1="501.43063510544596" y1="491.3673706833273" x2="500.38430068744344" y2="519.5817115107551" stroke="#2060ff" stroke-opacity=".52" stroke-width="1.5" filter="url(#skr1x9625)"/><line x1="521.8350101426802" y1="492.33778727231544" x2="521.7784269444271" y2="521.2747170414775" stroke="#2060ff" stroke-opacity=".52" stroke-width="1.5" filter="url(#skr1x9625)"/><line x1="544.9776809077897" y1="489.67354722805317" x2="545.1656554020196" y2="521.1160771455616" stroke="#2060ff" stroke-opacity=".52" stroke-width="1.5" filter="url(#skr1x9625)"/><polygon points="434.0,502.2 566.2,504.2 555.1,556.9 446.2,557.2" fill="#003ccc" fill-opacity=".72" stroke="#2060ff" stroke-width="1.3" filter="url(#skr1x9625)"/><path d="M390.33799214452506 325.67581399977206 Q332.57316830340767 216.29272837070747 382.0575067390129 140.73618390951304" stroke="#2060ff" stroke-width="5" fill="none" stroke-linecap="round" filter="url(#skr1x9625)"/><path d="M390.0097907839902 328.57103516478094 Q329.87660574704404 215.06860162680968 381.8438382481598 140.7484378336929" stroke="rgba(255,255,255,.25)" stroke-width="1.5" fill="none" stroke-linecap="round"/><path d="M612.4493187964335 327.01354287425056 Q670.4931563935615 216.8143123626709 617.3323648430035 139.73301003826782" stroke="#2060ff" stroke-width="5" fill="none" stroke-linecap="round" filter="url(#skr1x9625)"/><path d="M609.6585629469156 327.4808132442646 Q667.3831126451865 217.75026981532574 619.0323933289944 139.74350501587614" stroke="rgba(255,255,255,.25)" stroke-width="1.5" fill="none" stroke-linecap="round"/><text x="30.0"  y="975.0" font-family="monospace" font-weight="bold" font-size="22.0" fill="rgba(255,255,255,.22)">#0001</text><text x="500.0"   y="975.0" text-anchor="middle" font-family="monospace" font-weight="bold" font-size="22.0" fill="#2060ff" fill-opacity=".48">COBALT RANGER</text><text x="970.0" y="975.0" text-anchor="end"    font-family="monospace" font-weight="bold" font-size="22.0" fill="#2060ff" fill-opacity=".32">MECH RANGERS</text></svg>