<svg xmlns="http://www.w3.org/2000/svg" viewBox="0 0 1000 1000" width="1000" height="1000" shape-rendering="geometricPrecision"><defs>

  <!-- Scene gradients -->
  <radialGradient id="bgr1x9639" cx="50%" cy="42%" r="72%">
    <stop offset="0%"   stop-color="#0e000e"/>
    <stop offset="100%" stop-color="#1e0600"/>
  </radialGradient>
  <linearGradient id="suitr1x9639" x1="8%" y1="0%" x2="92%" y2="100%">
    <stop offset="0%"   stop-color="#ffcc00" stop-opacity=".95"/>
    <stop offset="45%"  stop-color="#a07000"/>
    <stop offset="100%" stop-color="#1e0600"/>
  </linearGradient>
  <linearGradient id="suitHir1x9639" x1="0%" y1="0%" x2="0%" y2="100%">
    <stop offset="0%"   stop-color="rgba(255,255,255,.28)"/>
    <stop offset="60%"  stop-color="rgba(255,255,255,.04)"/>
    <stop offset="100%" stop-color="rgba(255,255,255,0)"/>
  </linearGradient>
  <!-- Bevel: bright top, dark bottom for armour panels -->
  <linearGradient id="bevelr1x9639" x1="0%" y1="0%" x2="0%" y2="100%">
    <stop offset="0%"   stop-color="rgba(255,255,255,.55)"/>
    <stop offset="30%"  stop-color="#ffcc00"/>
    <stop offset="70%"  stop-color="#a07000"/>
    <stop offset="100%" stop-color="rgba(0,0,0,.5)"/>
  </linearGradient>

  <!-- Weapon: cold steel blade sweep -->
  <linearGradient id="blader1x9639" x1="0%" y1="0%" x2="100%" y2="0%">
    <stop offset="0%"   stop-color="#0e0e20"/>
    <stop offset="16%"  stop-color="#3e3e58"/>
    <stop offset="34%"  stop-color="#c8c8e0"/>
    <stop offset="50%"  stop-color="#f5f5ff"/>
    <stop offset="66%"  stop-color="#b8b8d0"/>
    <stop offset="84%"  stop-color="#2e2e48"/>
    <stop offset="100%" stop-color="#08080e"/>
  </linearGradient>
  <!-- Blade tip brightening -->
  <linearGradient id="bladeTipr1x9639" x1="0%" y1="100%" x2="0%" y2="0%">
    <stop offset="0%"   stop-color="rgba(255,255,255,0)"/>
    <stop offset="55%"  stop-color="rgba(255,255,255,.1)"/>
    <stop offset="100%" stop-color="rgba(255,255,255,.55)"/>
  </linearGradient>
  <!-- Gunmetal anodised — blaster body -->
  <linearGradient id="gunmetalr1x9639" x1="0%" y1="0%" x2="0%" y2="100%">
    <stop offset="0%"   stop-color="#46465e"/>
    <stop offset="18%"  stop-color="#828296"/>
    <stop offset="42%"  stop-color="#26263a"/>
    <stop offset="72%"  stop-color="#16162a"/>
    <stop offset="100%" stop-color="#0c0c18"/>
  </linearGradient>
  <!-- Brushed steel tube — barrel/rod -->
  <linearGradient id="barrelr1x9639" x1="0%" y1="0%" x2="100%" y2="0%">
    <stop offset="0%"   stop-color="#0a0a14"/>
    <stop offset="24%"  stop-color="#585875"/>
    <stop offset="50%"  stop-color="#a8a8c8"/>
    <stop offset="76%"  stop-color="#383852"/>
    <stop offset="100%" stop-color="#0a0a14"/>
  </linearGradient>
  <!-- Chrome rod — lance shaft -->
  <linearGradient id="chromer1x9639" x1="0%" y1="0%" x2="100%" y2="0%">
    <stop offset="0%"   stop-color="#0c0c18"/>
    <stop offset="20%"  stop-color="#686888"/>
    <stop offset="44%"  stop-color="#e0e0f0"/>
    <stop offset="56%"  stop-color="#c0c0d8"/>
    <stop offset="80%"  stop-color="#28283e"/>
    <stop offset="100%" stop-color="#0c0c18"/>
  </linearGradient>
  <!-- Titanium plate — shield face -->
  <linearGradient id="titaniumr1x9639" x1="0%" y1="0%" x2="100%" y2="100%">
    <stop offset="0%"   stop-color="#585878"/>
    <stop offset="28%"  stop-color="#ffcc00" stop-opacity=".88"/>
    <stop offset="55%"  stop-color="#a07000"/>
    <stop offset="80%"  stop-color="#181828"/>
    <stop offset="100%" stop-color="#0a0a18"/>
  </linearGradient>
  <!-- Artillery black-chrome — cannon body -->
  <linearGradient id="artilleryr1x9639" x1="0%" y1="0%" x2="0%" y2="100%">
    <stop offset="0%"   stop-color="#383850"/>
    <stop offset="14%"  stop-color="#78789a"/>
    <stop offset="36%"  stop-color="#202034"/>
    <stop offset="65%"  stop-color="#14141e"/>
    <stop offset="100%" stop-color="#0a0a12"/>
  </linearGradient>
  <!-- Energy orb — staff -->
  <radialGradient id="orbr1x9639" cx="35%" cy="35%" r="65%">
    <stop offset="0%"   stop-color="rgba(255,255,255,.9)"/>
    <stop offset="30%"  stop-color="#ffcc00"/>
    <stop offset="68%"  stop-color="#a07000"/>
    <stop offset="100%" stop-color="rgba(0,0,0,.6)"/>
  </radialGradient>
  <!-- Knuckle plate chrome -->
  <linearGradient id="knuckler1x9639" x1="0%" y1="0%" x2="0%" y2="100%">
    <stop offset="0%"   stop-color="#888aaa"/>
    <stop offset="32%"  stop-color="#ffcc00" stop-opacity=".8"/>
    <stop offset="62%"  stop-color="#1a1a2c"/>
    <stop offset="100%" stop-color="#0a0a14"/>
  </linearGradient>

  <!-- Carbon fibre weave texture overlay -->
  <pattern id="carbonr1x9639" width="6" height="6" patternUnits="userSpaceOnUse">
    <rect width="6" height="6" fill="rgba(0,0,0,.08)"/>
    <rect x="0" y="0" width="3" height="3" fill="rgba(255,255,255,.022)"/>
    <rect x="3" y="3" width="3" height="3" fill="rgba(255,255,255,.022)"/>
    <line x1="0" y1="0" x2="3" y2="3" stroke="rgba(255,255,255,.038)" stroke-width=".5"/>
    <line x1="3" y1="0" x2="6" y2="3" stroke="rgba(0,0,0,.055)"       stroke-width=".5"/>
    <line x1="0" y1="3" x2="3" y2="6" stroke="rgba(0,0,0,.055)"       stroke-width=".5"/>
    <line x1="3" y1="3" x2="6" y2="6" stroke="rgba(255,255,255,.038)" stroke-width=".5"/>
  </pattern>

  <!-- Specular metal sheen on armour panels -->
  <filter id="metalr1x9639" x="-5%" y="-5%" width="110%" height="110%">
    <feSpecularLighting surfaceScale="4" specularConstant="1.8"
        specularExponent="42" lighting-color="#ffffff" result="spec">
      <feDistantLight elevation="52" azimuth="38"/>
    </feSpecularLighting>
    <feComposite in="spec" in2="SourceGraphic" operator="in" result="sm"/>
    <feComposite in="SourceGraphic" in2="sm" operator="arithmetic" k1="0" k2="1" k3="0.55" k4="0"/>
  </filter>

  <!-- Sharper specular for weapons — heavier glare -->
  <filter id="wmr1x9639" x="-8%" y="-8%" width="116%" height="116%">
    <feSpecularLighting surfaceScale="6" specularConstant="2.4"
        specularExponent="65" lighting-color="#ffffff" result="spec">
      <feDistantLight elevation="44" azimuth="28"/>
    </feSpecularLighting>
    <feComposite in="spec" in2="SourceGraphic" operator="in" result="sm"/>
    <feComposite in="SourceGraphic" in2="sm" operator="arithmetic" k1="0" k2="1" k3="0.78" k4="0"/>
  </filter>

  <!-- Sketch wobble -->
  <filter id="skr1x9639" x="-8%" y="-8%" width="116%" height="116%">
    <feTurbulence type="fractalNoise" baseFrequency="0.038"
        numOctaves="3" seed="16" result="noise"/>
    <feDisplacementMap in="SourceGraphic" in2="noise" scale="2.6"
        xChannelSelector="R" yChannelSelector="G" result="w"/>
    <feComposite in="w" in2="SourceGraphic" operator="atop"/>
  </filter>

  <!-- Glow: sharp accent -->
  <filter id="glowr1x9639" x="-20%" y="-20%" width="140%" height="140%">
    <feGaussianBlur stdDeviation="3.5" result="b"/>
    <feColorMatrix in="b" type="matrix"
        values="0 0 0 0 1  0 0 0 0 1  0 0 0 0 1  0 0 0 1.8 0" result="boost"/>
    <feMerge><feMergeNode in="boost"/><feMergeNode in="SourceGraphic"/></feMerge>
  </filter>

  <!-- Bloom: wide soft -->
  <filter id="bloomr1x9639" x="-40%" y="-40%" width="180%" height="180%">
    <feGaussianBlur stdDeviation="11" result="b"/>
    <feMerge><feMergeNode in="b"/><feMergeNode in="SourceGraphic"/></feMerge>
  </filter>

  </defs><rect width="1000" height="1000" fill="url(#bgr1x9639)"/><ellipse cx="500.0" cy="1000" rx="850.0" ry="350.0" fill="#ff4500" fill-opacity=".11" filter="url(#bloomr1x9639)"/><ellipse cx="500.0" cy="892.0" rx="350.0" ry="65.0" fill="rgba(0,0,0,.7)" filter="url(#bloomr1x9639)"/><ellipse cx="500.0" cy="889.0" rx="220.0" ry="34.0" fill="rgba(0,0,0,.45)"/><ellipse cx="500.0" cy="520.0" rx="320.0" ry="480.0" fill="#6600ff" fill-opacity=".042" filter="url(#bloomr1x9639)"/><circle cx="668.1" cy="384.1" r="3.0" fill="#6600ff" fill-opacity="0.53" filter="url(#glowr1x9639)"/><circle cx="403.1" cy="648.1" r="4.3" fill="#6600ff" fill-opacity="0.62" filter="url(#glowr1x9639)"/><circle cx="492.5" cy="601.0" r="3.0" fill="#6600ff" fill-opacity="0.59" filter="url(#glowr1x9639)"/><circle cx="404.8" cy="752.9" r="3.5" fill="#6600ff" fill-opacity="0.89" filter="url(#glowr1x9639)"/><circle cx="719.1" cy="702.8" r="0.9" fill="#6600ff" fill-opacity="0.49" filter="url(#glowr1x9639)"/><circle cx="291.9" cy="208.9" r="3.1" fill="#6600ff" fill-opacity="0.49" filter="url(#glowr1x9639)"/><circle cx="590.6" cy="462.1" r="3.2" fill="#6600ff" fill-opacity="0.48" filter="url(#glowr1x9639)"/><circle cx="320.8" cy="635.6" r="1.5" fill="#6600ff" fill-opacity="0.81" filter="url(#glowr1x9639)"/><circle cx="318.5" cy="347.6" r="2.5" fill="#6600ff" fill-opacity="0.65" filter="url(#glowr1x9639)"/><circle cx="662.3" cy="352.3" r="0.6" fill="#6600ff" fill-opacity="0.60" filter="url(#glowr1x9639)"/><circle cx="316.5" cy="478.0" r="2.2" fill="#6600ff" fill-opacity="0.52" filter="url(#glowr1x9639)"/><circle cx="420.5" cy="566.5" r="3.4" fill="#6600ff" fill-opacity="0.49" filter="url(#glowr1x9639)"/><circle cx="374.8" cy="257.3" r="0.7" fill="#6600ff" fill-opacity="0.66" filter="url(#glowr1x9639)"/><circle cx="667.3" cy="660.9" r="3.9" fill="#6600ff" fill-opacity="0.73" filter="url(#glowr1x9639)"/><polygon points="397.9,662.5 488.6,663.7 481.7,878.0 387.3,878.4" fill="url(#suitr1x9639)" stroke="#ffcc00" stroke-width="2.2" filter="url(#skr1x9639) url(#metalr1x9639)"/><polygon points="397.1,662.5 489.1,663.8 480.5,877.1 388.2,879.1" fill="url(#carbonr1x9639)"/><polygon points="393.3,722.7 493.4,722.7 485.2,786.7 382.2,788.5" fill="url(#bevelr1x9639)" fill-opacity=".5" stroke="#ffcc00" stroke-width="1.4" filter="url(#skr1x9639)"/><polygon points="510.9,663.1 602.8,660.9 612.8,876.5 518.0,876.6" fill="url(#suitr1x9639)" stroke="#ffcc00" stroke-width="2.2" filter="url(#skr1x9639) url(#metalr1x9639)"/><polygon points="511.2,661.5 602.8,663.6 611.2,876.6 519.4,878.4" fill="url(#carbonr1x9639)"/><polygon points="506.2,725.4 606.4,722.4 614.9,788.6 514.7,788.3" fill="url(#bevelr1x9639)" fill-opacity=".5" stroke="#ffcc00" stroke-width="1.4" filter="url(#skr1x9639)"/><rect x="393.8" y="839.3" width="100.3" height="24.7" fill="url(#bevelr1x9639)" stroke="#ffcc00" stroke-width="1" filter="url(#skr1x9639)"/><rect x="507.2"  y="840.3" width="100.3" height="24.7" fill="url(#bevelr1x9639)" stroke="#ffcc00" stroke-width="1" filter="url(#skr1x9639)"/><polygon points="370.7,878.1 495.2,877.4 505.2,922.9 361.7,921.3" fill="#a07000" stroke="#ffcc00" stroke-width="2" filter="url(#skr1x9639)"/><polygon points="502.1,877.9 630.6,878.7 637.3,920.3 496.0,922.1" fill="#a07000" stroke="#ffcc00" stroke-width="2" filter="url(#skr1x9639)"/><polygon points="305.5,633.9 697.8,631.7 636.1,683.4 360.7,682.4" fill="#ffcc00" fill-opacity=".52" stroke="#ffcc00" stroke-width="2" filter="url(#skr1x9639)"/><rect x="464.3" y="637.4" width="72.0" height="42.0" fill="url(#bevelr1x9639)" stroke="#ffcc00" stroke-width="1.4" filter="url(#glowr1x9639)"/><rect x="485.3" y="639.1" width="28.0" height="22.0" rx="1" fill="rgba(255,255,255,.48)"/><polygon points="152.1,468.1 235.6,466.3 257.0,735.4 127.6,734.9" fill="url(#suitr1x9639)" stroke="#ffcc00" stroke-width="2.2" filter="url(#skr1x9639) url(#metalr1x9639)"/><polygon points="173.6,432.1 251.6,431.9 243.1,509.7 161.0,509.0" fill="url(#bevelr1x9639)" fill-opacity=".72" stroke="#ffcc00" stroke-width="2.2" filter="url(#skr1x9639)"/><polygon points="162.7,621.7 241.6,620.8 239.5,662.4 166.0,660.8" fill="#ffcc00" fill-opacity=".42" stroke="#ffcc00" stroke-width="1" filter="url(#skr1x9639)"/><polygon points="766.7,467.3 847.9,464.9 872.6,736.6 741.2,734.6" fill="url(#suitr1x9639)" stroke="#ffcc00" stroke-width="2.2" filter="url(#skr1x9639) url(#metalr1x9639)"/><polygon points="747.3,430.5 826.6,433.3 840.1,509.9 758.1,510.5" fill="url(#bevelr1x9639)" fill-opacity=".72" stroke="#ffcc00" stroke-width="2.2" filter="url(#skr1x9639)"/><polygon points="755.4,623.4 838.5,620.3 836.3,660.9 761.7,660.2" fill="#ffcc00" fill-opacity=".42" stroke="#ffcc00" stroke-width="1" filter="url(#skr1x9639)"/><rect x="120.4"  y="698.4" width="135.3" height="85.0" rx="4" fill="url(#bevelr1x9639)" stroke="#ffcc00" stroke-width="1.8" filter="url(#skr1x9639)"/><rect x="747.8"   y="698.7" width="135.3" height="85.0" rx="4" fill="url(#bevelr1x9639)" stroke="#ffcc00" stroke-width="1.8" filter="url(#skr1x9639)"/><line x1="148.6" y1="701.3" x2="149.3" y2="784.1" stroke="#ffcc00" stroke-opacity=".38" stroke-width="1"/><line x1="779.0" y1="700.9" x2="779.3" y2="783.9" stroke="#ffcc00" stroke-opacity=".38" stroke-width="1"/><line x1="181.1" y1="700.5" x2="181.5" y2="783.2" stroke="#ffcc00" stroke-opacity=".38" stroke-width="1"/><line x1="809.5" y1="700.4" x2="809.4" y2="783.1" stroke="#ffcc00" stroke-opacity=".38" stroke-width="1"/><line x1="216.4" y1="703.4" x2="213.5" y2="783.1" stroke="#ffcc00" stroke-opacity=".38" stroke-width="1"/><line x1="842.7" y1="702.1" x2="843.7" y2="784.6" stroke="#ffcc00" stroke-opacity=".38" stroke-width="1"/><polygon points="235.3,416.8 766.6,418.9 721.1,663.9 277.9,662.9" fill="url(#suitr1x9639)" stroke="#ffcc00" stroke-width="2.6" filter="url(#skr1x9639) url(#metalr1x9639)"/><polygon points="235.8,416.2 764.4,415.7 722.7,662.1 276.3,664.0" fill="url(#carbonr1x9639)"/><polygon points="367.5,418.2 631.1,418.7 611.1,514.2 389.3,516.9" fill="url(#suitHir1x9639)"/><line x1="360.4" y1="472.5" x2="636.7" y2="469.7" stroke="#ffcc00" stroke-opacity=".52" stroke-width="1.3" filter="url(#skr1x9639)"/><line x1="399.1" y1="549.2" x2="602.4" y2="549.1" stroke="#ffcc00" stroke-opacity=".52" stroke-width="1.3" filter="url(#skr1x9639)"/><line x1="265.8" y1="490.6" x2="319.9" y2="491.6" stroke="#ffcc00" stroke-opacity=".62" stroke-width="1.8"/><line x1="681.0" y1="491.8" x2="732.1" y2="491.8" stroke="#ffcc00" stroke-opacity=".62" stroke-width="1.8"/><line x1="265.9" y1="523.8" x2="320.6" y2="522.8" stroke="#ffcc00" stroke-opacity=".62" stroke-width="1.8"/><line x1="679.7" y1="522.5" x2="731.6" y2="521.9" stroke="#ffcc00" stroke-opacity=".62" stroke-width="1.8"/><line x1="265.7" y1="555.4" x2="321.1" y2="555.2" stroke="#ffcc00" stroke-opacity=".62" stroke-width="1.8"/><line x1="680.9" y1="556.1" x2="732.6" y2="555.0" stroke="#ffcc00" stroke-opacity=".62" stroke-width="1.8"/><line x1="268.5" y1="585.0" x2="320.4" y2="585.6" stroke="#ffcc00" stroke-opacity=".62" stroke-width="1.8"/><line x1="680.6" y1="585.0" x2="731.9" y2="585.4" stroke="#ffcc00" stroke-opacity=".62" stroke-width="1.8"/><g filter="url(#glowr1x9639)"><polygon points="498.3,452.8 540.7,510.5 498.6,568.1 459.0,509.2" fill="#ffcc00" stroke="#1e0600" stroke-width="1.4" filter="url(#skr1x9639)"/><polygon points="498.8,454.2 540.3,510.0 498.9,570.2 459.7,509.0" fill="url(#suitHir1x9639)" opacity=".45"/></g><g><rect x="33.84135443069037" y="420.78339717453343" width="148.0" height="82.0" rx="5" fill="url(#gunmetalr1x9639)" stroke="#ffcc00" stroke-width="2" filter="url(#wmr1x9639)"/><rect x="33.82494863219556" y="422.1031329301186" width="148.0" height="82.0" rx="5" fill="url(#carbonr1x9639)"/><rect x="41.78441369984296" y="402.4285843208432" width="90.0" height="22.0" rx="3" fill="url(#barrelr1x9639)" stroke="#ffcc00" stroke-width="1" filter="url(#wmr1x9639)"/><circle cx="82.85658299162981" cy="413.4675885718316" r="15.0" fill="#ffcc00" opacity=".8" filter="url(#glowr1x9639)"/><circle cx="81.85451042786238" cy="412.9423808400519" r="6.0" fill="rgba(255,255,255,.9)"/><rect x="53.73087430842217" y="456.4621200344525" width="78.0" height="36.0" rx="5" fill="url(#barrelr1x9639)" stroke="#ffcc00" stroke-width="1.2" filter="url(#wmr1x9639)"/><circle cx="-20.137765409480814" cy="470.41386544154955" r="18.0" fill="#ffcc00" filter="url(#glowr1x9639)" opacity=".88"/><circle cx="-21.138296090308607" cy="469.6987078155391" r="7.0" fill="#ffffff"/><rect x="79.36825434373688" y="501.38256899164986" width="44.0" height="42.0" rx="3" fill="url(#gunmetalr1x9639)" stroke="#ffcc00" stroke-width="1" filter="url(#wmr1x9639)"/><rect x="36.33482301415872" y="424.73007427491245" width="90.0" height="10.0" rx="2" fill="rgba(255,255,255,.22)"/><line x1="62.7474928437173" y1="486.87976115588094" x2="62.11320297963914" y2="518.3275312270038" stroke="#ffcc00" stroke-opacity=".5" stroke-width="1.2"/><line x1="79.85573833206665" y1="487.0842105087824" x2="79.53114833882076" y2="518.3848515608348" stroke="#ffcc00" stroke-opacity=".5" stroke-width="1.2"/><line x1="92.62179305464026" y1="487.4249786010943" x2="92.70016623059284" y2="518.1794215545989" stroke="#ffcc00" stroke-opacity=".5" stroke-width="1.2"/></g><rect x="450.87989294165743" y="557.0568216767161" width="100.0"  height="56.0" fill="#a07000" stroke="#ffcc00" stroke-width="2.2" filter="url(#skr1x9639)"/><rect x="423.370225892961" y="576.7547531295568" width="152.0" height="26.0" fill="url(#bevelr1x9639)" fill-opacity=".65" stroke="#ffcc00" stroke-width="1.2" filter="url(#skr1x9639)"/><polygon points="306.3,381.9 350.2,293.0 500.3,277.2 648.6,292.7 692.3,381.8 667.5,505.0 500.2,565.7 329.9,504.3" fill="url(#suitr1x9639)" stroke="#ffcc00" stroke-width="2.8" filter="url(#skr1x9639) url(#metalr1x9639)"/><polygon points="306.9,381.4 350.1,294.4 501.6,279.2 649.2,295.1 692.0,378.9 669.6,502.5 500.3,563.4 330.8,504.4" fill="url(#carbonr1x9639)"/><polygon points="380.7,303.1 500.0,285.7 618.3,302.3 606.2,381.6 394.0,381.4" fill="url(#suitHir1x9639)"/><polygon points="381.3,379.1 364.9,424.6 434.5,504.0 500.3,528.7 565.6,504.2 632.7,425.7 619.4,379.6" fill="#1e0600" fill-opacity=".88" stroke="#ffcc00" stroke-width="1.8" filter="url(#skr1x9639)"/><polygon points="379.5,410.7 476.2,412.7 485.1,438.4 389.1,441.0" fill="#ffcc00" filter="url(#glowr1x9639)"/><polygon points="523.7,410.5 620.8,412.0 612.6,440.2 516.7,438.8" fill="#ffcc00" filter="url(#glowr1x9639)"/><ellipse cx="430.9" cy="425.7" rx="38.4"  ry="8.2" fill="#ffffff" opacity=".88"/><ellipse cx="569.1" cy="425.7" rx="38.4"  ry="8.2" fill="#ffffff" opacity=".88"/><line x1="485.0990183628723" y1="413.4531872701831" x2="513.6659515031986" y2="414.419831002783" stroke="#ffcc00" stroke-opacity=".52" stroke-width="2"/><line x1="485.1673352188989" y1="438.24603007603434" x2="514.3651269755699" y2="438.0500957946293" stroke="#ffcc00" stroke-opacity=".52" stroke-width="2"/><line x1="501.1505204149522" y1="455.05378841133785" x2="500.70012962128965" y2="482.2830863947049" stroke="#ffcc00" stroke-opacity=".58" stroke-width="2.2" filter="url(#skr1x9639)"/><line x1="454.8622970313579" y1="490.9220983038656" x2="455.16748388268053" y2="519.8745059529319" stroke="#ffcc00" stroke-opacity=".52" stroke-width="1.5" filter="url(#skr1x9639)"/><line x1="475.92639319267124" y1="489.6894251736812" x2="475.77090797437353" y2="520.2941124822013" stroke="#ffcc00" stroke-opacity=".52" stroke-width="1.5" filter="url(#skr1x9639)"/><line x1="501.17160226684064" y1="492.36392679978155" x2="499.80208193082365" y2="521.4604090127162" stroke="#ffcc00" stroke-opacity=".52" stroke-width="1.5" filter="url(#skr1x9639)"/><line x1="523.4356812332384" y1="492.61550990426906" x2="522.7320338428578" y2="520.1565117985941" stroke="#ffcc00" stroke-opacity=".52" stroke-width="1.5" filter="url(#skr1x9639)"/><line x1="544.7140495634825" y1="492.97422896875065" x2="545.9936826615781" y2="519.1980269895867" stroke="#ffcc00" stroke-opacity=".52" stroke-width="1.5" filter="url(#skr1x9639)"/><polygon points="433.1,504.1 567.2,504.8 555.2,555.3 445.4,556.1" fill="#a07000" fill-opacity=".72" stroke="#ffcc00" stroke-width="1.3" filter="url(#skr1x9639)"/><polygon points="316.4,305.5 362.5,304.8 337.3,194.1" fill="url(#bevelr1x9639)" fill-opacity=".95" stroke="#ffcc00" stroke-width="1.6" filter="url(#skr1x9639) url(#glowr1x9639)"/><polygon points="395.4,304.8 441.0,306.0 421.1,208.4" fill="url(#bevelr1x9639)" fill-opacity=".95" stroke="#ffcc00" stroke-width="1.6" filter="url(#skr1x9639) url(#glowr1x9639)"/><polygon points="476.9,304.2 524.0,303.0 501.6,222.9" fill="url(#bevelr1x9639)" fill-opacity=".95" stroke="#ffcc00" stroke-width="1.6" filter="url(#skr1x9639) url(#glowr1x9639)"/><polygon points="558.5,303.1 604.5,305.1 582.2,207.9" fill="url(#bevelr1x9639)" fill-opacity=".95" stroke="#ffcc00" stroke-width="1.6" filter="url(#skr1x9639) url(#glowr1x9639)"/><polygon points="639.0,306.4 685.7,304.1 661.5,196.8" fill="url(#bevelr1x9639)" fill-opacity=".95" stroke="#ffcc00" stroke-width="1.6" filter="url(#skr1x9639) url(#glowr1x9639)"/><text x="30.0"  y="975.0" font-family="monospace" font-weight="bold" font-size="22.0" fill="rgba(255,255,255,.22)">#0001</text><text x="500.0"   y="975.0" text-anchor="middle" font-family="monospace" font-weight="bold" font-size="22.0" fill="#ffcc00" fill-opacity=".48">NOVA RANGER</text><text x="970.0" y="975.0" text-anchor="end"    font-family="monospace" font-weight="bold" font-size="22.0" fill="#ffcc00" fill-opacity=".32">MECH RANGERS</text></svg>