<svg xmlns="http://www.w3.org/2000/svg" viewBox="0 0 1000 1000" width="1000" height="1000" shape-rendering="geometricPrecision"><defs>

  <!-- Scene gradients -->
  <radialGradient id="bgr1x9698" cx="50%" cy="42%" r="72%">
    <stop offset="0%"   stop-color="#1e0a2e"/>
    <stop offset="100%" stop-color="#0a0520"/>
  </radialGradient>
  <linearGradient id="suitr1x9698" x1="8%" y1="0%" x2="92%" y2="100%">
    <stop offset="0%"   stop-color="#ffd700" stop-opacity=".95"/>
    <stop offset="45%"  stop-color="#503400"/>
    <stop offset="100%" stop-color="#0a0520"/>
  </linearGradient>
  <linearGradient id="suitHir1x9698" x1="0%" y1="0%" x2="0%" y2="100%">
    <stop offset="0%"   stop-color="rgba(255,255,255,.28)"/>
    <stop offset="60%"  stop-color="rgba(255,255,255,.04)"/>
    <stop offset="100%" stop-color="rgba(255,255,255,0)"/>
  </linearGradient>
  <!-- Bevel: bright top, dark bottom for armour panels -->
  <linearGradient id="bevelr1x9698" x1="0%" y1="0%" x2="0%" y2="100%">
    <stop offset="0%"   stop-color="rgba(255,255,255,.55)"/>
    <stop offset="30%"  stop-color="#ffd700"/>
    <stop offset="70%"  stop-color="#503400"/>
    <stop offset="100%" stop-color="rgba(0,0,0,.5)"/>
  </linearGradient>

  <!-- Weapon: cold steel blade sweep -->
  <linearGradient id="blader1x9698" x1="0%" y1="0%" x2="100%" y2="0%">
    <stop offset="0%"   stop-color="#0e0e20"/>
    <stop offset="16%"  stop-color="#3e3e58"/>
    <stop offset="34%"  stop-color="#c8c8e0"/>
    <stop offset="50%"  stop-color="#f5f5ff"/>
    <stop offset="66%"  stop-color="#b8b8d0"/>
    <stop offset="84%"  stop-color="#2e2e48"/>
    <stop offset="100%" stop-color="#08080e"/>
  </linearGradient>
  <!-- Blade tip brightening -->
  <linearGradient id="bladeTipr1x9698" x1="0%" y1="100%" x2="0%" y2="0%">
    <stop offset="0%"   stop-color="rgba(255,255,255,0)"/>
    <stop offset="55%"  stop-color="rgba(255,255,255,.1)"/>
    <stop offset="100%" stop-color="rgba(255,255,255,.55)"/>
  </linearGradient>
  <!-- Gunmetal anodised — blaster body -->
  <linearGradient id="gunmetalr1x9698" x1="0%" y1="0%" x2="0%" y2="100%">
    <stop offset="0%"   stop-color="#46465e"/>
    <stop offset="18%"  stop-color="#828296"/>
    <stop offset="42%"  stop-color="#26263a"/>
    <stop offset="72%"  stop-color="#16162a"/>
    <stop offset="100%" stop-color="#0c0c18"/>
  </linearGradient>
  <!-- Brushed steel tube — barrel/rod -->
  <linearGradient id="barrelr1x9698" x1="0%" y1="0%" x2="100%" y2="0%">
    <stop offset="0%"   stop-color="#0a0a14"/>
    <stop offset="24%"  stop-color="#585875"/>
    <stop offset="50%"  stop-color="#a8a8c8"/>
    <stop offset="76%"  stop-color="#383852"/>
    <stop offset="100%" stop-color="#0a0a14"/>
  </linearGradient>
  <!-- Chrome rod — lance shaft -->
  <linearGradient id="chromer1x9698" x1="0%" y1="0%" x2="100%" y2="0%">
    <stop offset="0%"   stop-color="#0c0c18"/>
    <stop offset="20%"  stop-color="#686888"/>
    <stop offset="44%"  stop-color="#e0e0f0"/>
    <stop offset="56%"  stop-color="#c0c0d8"/>
    <stop offset="80%"  stop-color="#28283e"/>
    <stop offset="100%" stop-color="#0c0c18"/>
  </linearGradient>
  <!-- Titanium plate — shield face -->
  <linearGradient id="titaniumr1x9698" x1="0%" y1="0%" x2="100%" y2="100%">
    <stop offset="0%"   stop-color="#585878"/>
    <stop offset="28%"  stop-color="#ffd700" stop-opacity=".88"/>
    <stop offset="55%"  stop-color="#503400"/>
    <stop offset="80%"  stop-color="#181828"/>
    <stop offset="100%" stop-color="#0a0a18"/>
  </linearGradient>
  <!-- Artillery black-chrome — cannon body -->
  <linearGradient id="artilleryr1x9698" x1="0%" y1="0%" x2="0%" y2="100%">
    <stop offset="0%"   stop-color="#383850"/>
    <stop offset="14%"  stop-color="#78789a"/>
    <stop offset="36%"  stop-color="#202034"/>
    <stop offset="65%"  stop-color="#14141e"/>
    <stop offset="100%" stop-color="#0a0a12"/>
  </linearGradient>
  <!-- Energy orb — staff -->
  <radialGradient id="orbr1x9698" cx="35%" cy="35%" r="65%">
    <stop offset="0%"   stop-color="rgba(255,255,255,.9)"/>
    <stop offset="30%"  stop-color="#ffd700"/>
    <stop offset="68%"  stop-color="#503400"/>
    <stop offset="100%" stop-color="rgba(0,0,0,.6)"/>
  </radialGradient>
  <!-- Knuckle plate chrome -->
  <linearGradient id="knuckler1x9698" x1="0%" y1="0%" x2="0%" y2="100%">
    <stop offset="0%"   stop-color="#888aaa"/>
    <stop offset="32%"  stop-color="#ffd700" stop-opacity=".8"/>
    <stop offset="62%"  stop-color="#1a1a2c"/>
    <stop offset="100%" stop-color="#0a0a14"/>
  </linearGradient>

  <!-- Carbon fibre weave texture overlay -->
  <pattern id="carbonr1x9698" width="6" height="6" patternUnits="userSpaceOnUse">
    <rect width="6" height="6" fill="rgba(0,0,0,.08)"/>
    <rect x="0" y="0" width="3" height="3" fill="rgba(255,255,255,.022)"/>
    <rect x="3" y="3" width="3" height="3" fill="rgba(255,255,255,.022)"/>
    <line x1="0" y1="0" x2="3" y2="3" stroke="rgba(255,255,255,.038)" stroke-width=".5"/>
    <line x1="3" y1="0" x2="6" y2="3" stroke="rgba(0,0,0,.055)"       stroke-width=".5"/>
    <line x1="0" y1="3" x2="3" y2="6" stroke="rgba(0,0,0,.055)"       stroke-width=".5"/>
    <line x1="3" y1="3" x2="6" y2="6" stroke="rgba(255,255,255,.038)" stroke-width=".5"/>
  </pattern>

  <!-- Specular metal sheen on armour panels -->
  <filter id="metalr1x9698" x="-5%" y="-5%" width="110%" height="110%">
    <feSpecularLighting surfaceScale="4" specularConstant="1.8"
        specularExponent="42" lighting-color="#ffffff" result="spec">
      <feDistantLight elevation="52" azimuth="38"/>
    </feSpecularLighting>
    <feComposite in="spec" in2="SourceGraphic" operator="in" result="sm"/>
    <feComposite in="SourceGraphic" in2="sm" operator="arithmetic" k1="0" k2="1" k3="0.55" k4="0"/>
  </filter>

  <!-- Sharper specular for weapons — heavier glare -->
  <filter id="wmr1x9698" x="-8%" y="-8%" width="116%" height="116%">
    <feSpecularLighting surfaceScale="6" specularConstant="2.4"
        specularExponent="65" lighting-color="#ffffff" result="spec">
      <feDistantLight elevation="44" azimuth="28"/>
    </feSpecularLighting>
    <feComposite in="spec" in2="SourceGraphic" operator="in" result="sm"/>
    <feComposite in="SourceGraphic" in2="sm" operator="arithmetic" k1="0" k2="1" k3="0.78" k4="0"/>
  </filter>

  <!-- Sketch wobble -->
  <filter id="skr1x9698" x="-8%" y="-8%" width="116%" height="116%">
    <feTurbulence type="fractalNoise" baseFrequency="0.038"
        numOctaves="3" seed="85" result="noise"/>
    <feDisplacementMap in="SourceGraphic" in2="noise" scale="2.6"
        xChannelSelector="R" yChannelSelector="G" result="w"/>
    <feComposite in="w" in2="SourceGraphic" operator="atop"/>
  </filter>

  <!-- Glow: sharp accent -->
  <filter id="glowr1x9698" x="-20%" y="-20%" width="140%" height="140%">
    <feGaussianBlur stdDeviation="3.5" result="b"/>
    <feColorMatrix in="b" type="matrix"
        values="0 0 0 0 1  0 0 0 0 1  0 0 0 0 1  0 0 0 1.8 0" result="boost"/>
    <feMerge><feMergeNode in="boost"/><feMergeNode in="SourceGraphic"/></feMerge>
  </filter>

  <!-- Bloom: wide soft -->
  <filter id="bloomr1x9698" x="-40%" y="-40%" width="180%" height="180%">
    <feGaussianBlur stdDeviation="11" result="b"/>
    <feMerge><feMergeNode in="b"/><feMergeNode in="SourceGraphic"/></feMerge>
  </filter>

  </defs><rect width="1000" height="1000" fill="url(#bgr1x9698)"/><ellipse cx="500.0" cy="892.0" rx="350.0" ry="65.0" fill="rgba(0,0,0,.7)" filter="url(#bloomr1x9698)"/><ellipse cx="500.0" cy="889.0" rx="220.0" ry="34.0" fill="rgba(0,0,0,.45)"/><ellipse cx="500.0" cy="520.0" rx="320.0" ry="480.0" fill="#ffffff" fill-opacity=".042" filter="url(#bloomr1x9698)"/><circle cx="276.5" cy="215.4" r="0.6" fill="#ffffff" fill-opacity="0.67" filter="url(#glowr1x9698)"/><circle cx="326.2" cy="426.7" r="3.0" fill="#ffffff" fill-opacity="0.42" filter="url(#glowr1x9698)"/><circle cx="386.3" cy="382.4" r="1.7" fill="#ffffff" fill-opacity="0.52" filter="url(#glowr1x9698)"/><circle cx="735.4" cy="406.5" r="1.1" fill="#ffffff" fill-opacity="0.50" filter="url(#glowr1x9698)"/><circle cx="337.1" cy="536.7" r="2.6" fill="#ffffff" fill-opacity="0.49" filter="url(#glowr1x9698)"/><circle cx="275.1" cy="655.7" r="1.5" fill="#ffffff" fill-opacity="0.63" filter="url(#glowr1x9698)"/><circle cx="479.1" cy="629.2" r="0.8" fill="#ffffff" fill-opacity="0.79" filter="url(#glowr1x9698)"/><circle cx="726.8" cy="306.0" r="4.1" fill="#ffffff" fill-opacity="0.89" filter="url(#glowr1x9698)"/><circle cx="327.7" cy="518.4" r="4.1" fill="#ffffff" fill-opacity="0.58" filter="url(#glowr1x9698)"/><circle cx="391.0" cy="346.3" r="2.6" fill="#ffffff" fill-opacity="0.38" filter="url(#glowr1x9698)"/><circle cx="640.8" cy="350.1" r="3.3" fill="#ffffff" fill-opacity="0.65" filter="url(#glowr1x9698)"/><circle cx="641.3" cy="261.1" r="0.7" fill="#ffffff" fill-opacity="0.51" filter="url(#glowr1x9698)"/><circle cx="650.4" cy="548.8" r="1.9" fill="#ffffff" fill-opacity="0.86" filter="url(#glowr1x9698)"/><circle cx="460.6" cy="563.3" r="0.5" fill="#ffffff" fill-opacity="0.43" filter="url(#glowr1x9698)"/><polygon points="398.8,662.5 489.0,660.9 480.1,876.5 386.7,877.8" fill="url(#suitr1x9698)" stroke="#ffd700" stroke-width="2.2" filter="url(#skr1x9698) url(#metalr1x9698)"/><polygon points="398.7,662.2 489.8,661.6 481.5,876.0 385.9,877.1" fill="url(#carbonr1x9698)"/><polygon points="394.3,723.5 491.8,723.0 484.4,788.8 384.0,787.1" fill="url(#bevelr1x9698)" fill-opacity=".5" stroke="#ffd700" stroke-width="1.4" filter="url(#skr1x9698)"/><polygon points="511.0,661.0 602.4,660.9 611.1,876.6 520.8,875.9" fill="url(#suitr1x9698)" stroke="#ffd700" stroke-width="2.2" filter="url(#skr1x9698) url(#metalr1x9698)"/><polygon points="512.3,663.6 601.0,663.7 614.2,877.3 519.2,878.7" fill="url(#carbonr1x9698)"/><polygon points="507.5,723.4 608.1,723.7 614.6,786.6 514.1,786.6" fill="url(#bevelr1x9698)" fill-opacity=".5" stroke="#ffd700" stroke-width="1.4" filter="url(#skr1x9698)"/><rect x="391.8" y="837.5" width="100.3" height="24.7" fill="url(#bevelr1x9698)" stroke="#ffd700" stroke-width="1" filter="url(#skr1x9698)"/><rect x="506.1"  y="840.2" width="100.3" height="24.7" fill="url(#bevelr1x9698)" stroke="#ffd700" stroke-width="1" filter="url(#skr1x9698)"/><polygon points="369.9,877.9 495.0,878.3 502.1,920.4 363.3,921.4" fill="#503400" stroke="#ffd700" stroke-width="2" filter="url(#skr1x9698)"/><polygon points="502.6,878.9 631.5,878.8 635.8,922.1 497.7,922.8" fill="#503400" stroke="#ffd700" stroke-width="2" filter="url(#skr1x9698)"/><polygon points="305.3,634.5 697.6,633.9 639.5,683.0 361.2,681.6" fill="#ffd700" fill-opacity=".52" stroke="#ffd700" stroke-width="2" filter="url(#skr1x9698)"/><rect x="465.0" y="639.4" width="72.0" height="42.0" fill="url(#bevelr1x9698)" stroke="#ffd700" stroke-width="1.4" filter="url(#glowr1x9698)"/><rect x="486.7" y="641.1" width="28.0" height="22.0" rx="1" fill="rgba(255,255,255,.48)"/><polygon points="153.3,467.8 233.4,465.7 257.0,734.3 128.0,733.4" fill="url(#suitr1x9698)" stroke="#ffd700" stroke-width="2.2" filter="url(#skr1x9698) url(#metalr1x9698)"/><polygon points="173.8,431.8 252.4,431.0 243.2,512.0 159.2,509.8" fill="url(#bevelr1x9698)" fill-opacity=".72" stroke="#ffd700" stroke-width="2.2" filter="url(#skr1x9698)"/><polygon points="160.1,623.0 243.0,622.7 239.4,661.2 164.4,661.8" fill="#ffd700" fill-opacity=".42" stroke="#ffd700" stroke-width="1" filter="url(#skr1x9698)"/><polygon points="764.8,466.3 845.8,468.2 873.2,734.0 742.8,736.5" fill="url(#suitr1x9698)" stroke="#ffd700" stroke-width="2.2" filter="url(#skr1x9698) url(#metalr1x9698)"/><polygon points="745.9,433.5 825.9,431.1 841.7,511.2 755.8,511.1" fill="url(#bevelr1x9698)" fill-opacity=".72" stroke="#ffd700" stroke-width="2.2" filter="url(#skr1x9698)"/><polygon points="756.7,621.5 840.5,620.9 834.1,661.1 761.2,660.3" fill="#ffd700" fill-opacity=".42" stroke="#ffd700" stroke-width="1" filter="url(#skr1x9698)"/><rect x="119.0"  y="700.8" width="135.3" height="85.0" rx="4" fill="url(#bevelr1x9698)" stroke="#ffd700" stroke-width="1.8" filter="url(#skr1x9698)"/><rect x="750.1"   y="698.7" width="135.3" height="85.0" rx="4" fill="url(#bevelr1x9698)" stroke="#ffd700" stroke-width="1.8" filter="url(#skr1x9698)"/><line x1="151.5" y1="700.6" x2="148.2" y2="783.9" stroke="#ffd700" stroke-opacity=".38" stroke-width="1"/><line x1="777.6" y1="703.3" x2="777.2" y2="782.3" stroke="#ffd700" stroke-opacity=".38" stroke-width="1"/><line x1="183.7" y1="701.6" x2="184.3" y2="782.7" stroke="#ffd700" stroke-opacity=".38" stroke-width="1"/><line x1="810.3" y1="702.7" x2="812.3" y2="785.1" stroke="#ffd700" stroke-opacity=".38" stroke-width="1"/><line x1="217.0" y1="702.5" x2="217.0" y2="783.6" stroke="#ffd700" stroke-opacity=".38" stroke-width="1"/><line x1="845.0" y1="702.5" x2="843.5" y2="784.8" stroke="#ffd700" stroke-opacity=".38" stroke-width="1"/><polygon points="236.3,419.0 765.8,416.5 721.6,661.8 278.5,662.8" fill="url(#suitr1x9698)" stroke="#ffd700" stroke-width="2.6" filter="url(#skr1x9698) url(#metalr1x9698)"/><polygon points="233.7,416.7 763.6,417.3 723.2,664.2 277.1,663.0" fill="url(#carbonr1x9698)"/><polygon points="365.8,419.2 633.4,418.4 609.6,515.0 387.1,516.3" fill="url(#suitHir1x9698)"/><line x1="363.5" y1="470.8" x2="637.9" y2="473.1" stroke="#ffd700" stroke-opacity=".52" stroke-width="1.3" filter="url(#skr1x9698)"/><line x1="398.5" y1="548.8" x2="602.2" y2="549.3" stroke="#ffd700" stroke-opacity=".52" stroke-width="1.3" filter="url(#skr1x9698)"/><line x1="266.2" y1="489.9" x2="318.8" y2="489.5" stroke="#ffd700" stroke-opacity=".62" stroke-width="1.8"/><line x1="681.7" y1="490.9" x2="731.4" y2="490.4" stroke="#ffd700" stroke-opacity=".62" stroke-width="1.8"/><line x1="267.6" y1="524.5" x2="320.0" y2="521.4" stroke="#ffd700" stroke-opacity=".62" stroke-width="1.8"/><line x1="681.3" y1="522.4" x2="732.5" y2="523.0" stroke="#ffd700" stroke-opacity=".62" stroke-width="1.8"/><line x1="267.5" y1="554.1" x2="319.2" y2="553.9" stroke="#ffd700" stroke-opacity=".62" stroke-width="1.8"/><line x1="680.8" y1="553.1" x2="734.2" y2="555.6" stroke="#ffd700" stroke-opacity=".62" stroke-width="1.8"/><line x1="266.9" y1="587.1" x2="321.5" y2="587.9" stroke="#ffd700" stroke-opacity=".62" stroke-width="1.8"/><line x1="681.2" y1="587.6" x2="734.0" y2="584.8" stroke="#ffd700" stroke-opacity=".62" stroke-width="1.8"/><g filter="url(#glowr1x9698)"><polygon points="499.4,452.6 542.6,509.9 499.5,569.4 457.9,510.1" fill="#ffd700" stroke="#0a0520" stroke-width="1.4" filter="url(#skr1x9698)"/><polygon points="500.2,451.2 541.9,512.2 500.7,568.6 459.2,511.5" fill="url(#suitHir1x9698)" opacity=".45"/></g><g><rect x="830.5283097288199" y="422.4207374268211" width="148.0" height="82.0" rx="5" fill="url(#gunmetalr1x9698)" stroke="#ffd700" stroke-width="2" filter="url(#wmr1x9698)"/><rect x="830.5192939282954" y="422.5290181879885" width="148.0" height="82.0" rx="5" fill="url(#carbonr1x9698)"/><rect x="837.4723406718672" y="402.9085100352764" width="90.0" height="22.0" rx="3" fill="url(#barrelr1x9698)" stroke="#ffd700" stroke-width="1" filter="url(#wmr1x9698)"/><circle cx="878.3147042531148" cy="413.5859741128981" r="15.0" fill="#ffd700" opacity=".8" filter="url(#glowr1x9698)"/><circle cx="877.2714700990915" cy="412.7125228817574" r="6.0" fill="rgba(255,255,255,.9)"/><rect x="946.5126399050095" y="456.53850727016106" width="78.0" height="36.0" rx="5" fill="url(#barrelr1x9698)" stroke="#ffd700" stroke-width="1.2" filter="url(#wmr1x9698)"/><circle cx="1021.2325024550408" cy="472.6936503710225" r="18.0" fill="#ffd700" filter="url(#glowr1x9698)" opacity=".88"/><circle cx="1021.1761826455221" cy="471.07092105252667" r="7.0" fill="#ffffff"/><rect x="873.4167247661949" y="501.4665801826864" width="44.0" height="42.0" rx="3" fill="url(#gunmetalr1x9698)" stroke="#ffd700" stroke-width="1" filter="url(#wmr1x9698)"/><rect x="833.4363996015489" y="424.227858009655" width="90.0" height="10.0" rx="2" fill="rgba(255,255,255,.22)"/><line x1="859.4275705790707" y1="485.19106585206464" x2="857.6404227892496" y2="520.0037747995927" stroke="#ffd700" stroke-opacity=".5" stroke-width="1.2"/><line x1="874.084293556083" y1="487.13150058956813" x2="874.2087888080255" y2="519.6203074082732" stroke="#ffd700" stroke-opacity=".5" stroke-width="1.2"/><line x1="889.437735013999" y1="486.02702245824037" x2="888.32616490243" y2="518.7844670196995" stroke="#ffd700" stroke-opacity=".5" stroke-width="1.2"/></g><rect x="450.9138558332808" y="557.5126153973862" width="100.0"  height="56.0" fill="#503400" stroke="#ffd700" stroke-width="2.2" filter="url(#skr1x9698)"/><rect x="424.357827238366" y="576.6081883952953" width="152.0" height="26.0" fill="url(#bevelr1x9698)" fill-opacity=".65" stroke="#ffd700" stroke-width="1.2" filter="url(#skr1x9698)"/><polygon points="308.4,381.7 350.9,294.6 499.6,278.8 649.6,296.0 693.1,381.3 667.4,504.3 498.4,564.2 332.5,505.2" fill="url(#suitr1x9698)" stroke="#ffd700" stroke-width="2.8" filter="url(#skr1x9698) url(#metalr1x9698)"/><polygon points="308.7,382.0 350.5,295.4 500.0,279.7 649.1,294.8 690.5,378.8 668.0,502.5 501.6,565.1 330.5,504.8" fill="url(#carbonr1x9698)"/><polygon points="379.6,301.9 500.3,284.9 619.3,302.3 608.3,380.3 393.0,380.5" fill="url(#suitHir1x9698)"/><polygon points="381.5,379.8 364.9,425.6 433.5,505.3 499.9,526.9 567.5,504.5 633.2,425.6 617.4,379.7" fill="#0a0520" fill-opacity=".88" stroke="#ffd700" stroke-width="1.8" filter="url(#skr1x9698)"/><polygon points="380.6,412.0 478.3,410.2 484.3,439.5 387.9,440.6" fill="#ffd700" filter="url(#glowr1x9698)"/><polygon points="524.0,413.1 617.4,412.1 611.2,438.3 516.6,439.2" fill="#ffd700" filter="url(#glowr1x9698)"/><ellipse cx="430.9" cy="425.7" rx="38.4"  ry="8.2" fill="#ffffff" opacity=".88"/><ellipse cx="569.1" cy="425.7" rx="38.4"  ry="8.2" fill="#ffffff" opacity=".88"/><line x1="483.666328932587" y1="412.811444980558" x2="515.7601411818899" y2="415.1661702582612" stroke="#ffd700" stroke-opacity=".52" stroke-width="2"/><line x1="485.95900230804455" y1="438.9433678664267" x2="517.1249053703993" y2="436.4666081143543" stroke="#ffd700" stroke-opacity=".52" stroke-width="2"/><line x1="498.83791400203484" y1="454.06165424250065" x2="501.3971940602176" y2="483.0681643063203" stroke="#ffd700" stroke-opacity=".58" stroke-width="2.2" filter="url(#skr1x9698)"/><line x1="454.14190502081067" y1="489.9969362404197" x2="453.206246528849" y2="518.9373710356653" stroke="#ffd700" stroke-opacity=".52" stroke-width="1.5" filter="url(#skr1x9698)"/><line x1="478.4807196114585" y1="491.2863643593154" x2="476.76912404879926" y2="519.3123728229664" stroke="#ffd700" stroke-opacity=".52" stroke-width="1.5" filter="url(#skr1x9698)"/><line x1="499.720526248496" y1="492.04870839538046" x2="501.36163238761947" y2="520.1350626341067" stroke="#ffd700" stroke-opacity=".52" stroke-width="1.5" filter="url(#skr1x9698)"/><line x1="521.5861240035481" y1="491.07193445554" x2="522.461915315371" y2="518.8082299001514" stroke="#ffd700" stroke-opacity=".52" stroke-width="1.5" filter="url(#skr1x9698)"/><line x1="546.9793807617575" y1="490.3818661179393" x2="547.2578287024238" y2="519.1475581407547" stroke="#ffd700" stroke-opacity=".52" stroke-width="1.5" filter="url(#skr1x9698)"/><polygon points="431.1,502.5 566.7,502.6 553.4,557.3 444.7,555.6" fill="#503400" fill-opacity=".72" stroke="#ffd700" stroke-width="1.3" filter="url(#skr1x9698)"/><text x="30.0"  y="975.0" font-family="monospace" font-weight="bold" font-size="22.0" fill="rgba(255,255,255,.22)">#0001</text><text x="500.0"   y="975.0" text-anchor="middle" font-family="monospace" font-weight="bold" font-size="22.0" fill="#ffd700" fill-opacity=".48">IMPERIAL RANGER</text><text x="970.0" y="975.0" text-anchor="end"    font-family="monospace" font-weight="bold" font-size="22.0" fill="#ffd700" fill-opacity=".32">MECH RANGERS</text></svg>