<svg xmlns="http://www.w3.org/2000/svg" viewBox="0 0 1000 1000" width="1000" height="1000" shape-rendering="geometricPrecision"><defs>

  <!-- Scene gradients -->
  <radialGradient id="bgr1x9713" cx="50%" cy="42%" r="72%">
    <stop offset="0%"   stop-color="#0a0a14"/>
    <stop offset="100%" stop-color="#050508"/>
  </radialGradient>
  <linearGradient id="suitr1x9713" x1="8%" y1="0%" x2="92%" y2="100%">
    <stop offset="0%"   stop-color="#ccccff" stop-opacity=".95"/>
    <stop offset="45%"  stop-color="#242438"/>
    <stop offset="100%" stop-color="#050508"/>
  </linearGradient>
  <linearGradient id="suitHir1x9713" x1="0%" y1="0%" x2="0%" y2="100%">
    <stop offset="0%"   stop-color="rgba(255,255,255,.28)"/>
    <stop offset="60%"  stop-color="rgba(255,255,255,.04)"/>
    <stop offset="100%" stop-color="rgba(255,255,255,0)"/>
  </linearGradient>
  <!-- Bevel: bright top, dark bottom for armour panels -->
  <linearGradient id="bevelr1x9713" x1="0%" y1="0%" x2="0%" y2="100%">
    <stop offset="0%"   stop-color="rgba(255,255,255,.55)"/>
    <stop offset="30%"  stop-color="#ccccff"/>
    <stop offset="70%"  stop-color="#242438"/>
    <stop offset="100%" stop-color="rgba(0,0,0,.5)"/>
  </linearGradient>

  <!-- Weapon: cold steel blade sweep -->
  <linearGradient id="blader1x9713" x1="0%" y1="0%" x2="100%" y2="0%">
    <stop offset="0%"   stop-color="#0e0e20"/>
    <stop offset="16%"  stop-color="#3e3e58"/>
    <stop offset="34%"  stop-color="#c8c8e0"/>
    <stop offset="50%"  stop-color="#f5f5ff"/>
    <stop offset="66%"  stop-color="#b8b8d0"/>
    <stop offset="84%"  stop-color="#2e2e48"/>
    <stop offset="100%" stop-color="#08080e"/>
  </linearGradient>
  <!-- Blade tip brightening -->
  <linearGradient id="bladeTipr1x9713" x1="0%" y1="100%" x2="0%" y2="0%">
    <stop offset="0%"   stop-color="rgba(255,255,255,0)"/>
    <stop offset="55%"  stop-color="rgba(255,255,255,.1)"/>
    <stop offset="100%" stop-color="rgba(255,255,255,.55)"/>
  </linearGradient>
  <!-- Gunmetal anodised — blaster body -->
  <linearGradient id="gunmetalr1x9713" x1="0%" y1="0%" x2="0%" y2="100%">
    <stop offset="0%"   stop-color="#46465e"/>
    <stop offset="18%"  stop-color="#828296"/>
    <stop offset="42%"  stop-color="#26263a"/>
    <stop offset="72%"  stop-color="#16162a"/>
    <stop offset="100%" stop-color="#0c0c18"/>
  </linearGradient>
  <!-- Brushed steel tube — barrel/rod -->
  <linearGradient id="barrelr1x9713" x1="0%" y1="0%" x2="100%" y2="0%">
    <stop offset="0%"   stop-color="#0a0a14"/>
    <stop offset="24%"  stop-color="#585875"/>
    <stop offset="50%"  stop-color="#a8a8c8"/>
    <stop offset="76%"  stop-color="#383852"/>
    <stop offset="100%" stop-color="#0a0a14"/>
  </linearGradient>
  <!-- Chrome rod — lance shaft -->
  <linearGradient id="chromer1x9713" x1="0%" y1="0%" x2="100%" y2="0%">
    <stop offset="0%"   stop-color="#0c0c18"/>
    <stop offset="20%"  stop-color="#686888"/>
    <stop offset="44%"  stop-color="#e0e0f0"/>
    <stop offset="56%"  stop-color="#c0c0d8"/>
    <stop offset="80%"  stop-color="#28283e"/>
    <stop offset="100%" stop-color="#0c0c18"/>
  </linearGradient>
  <!-- Titanium plate — shield face -->
  <linearGradient id="titaniumr1x9713" x1="0%" y1="0%" x2="100%" y2="100%">
    <stop offset="0%"   stop-color="#585878"/>
    <stop offset="28%"  stop-color="#ccccff" stop-opacity=".88"/>
    <stop offset="55%"  stop-color="#242438"/>
    <stop offset="80%"  stop-color="#181828"/>
    <stop offset="100%" stop-color="#0a0a18"/>
  </linearGradient>
  <!-- Artillery black-chrome — cannon body -->
  <linearGradient id="artilleryr1x9713" x1="0%" y1="0%" x2="0%" y2="100%">
    <stop offset="0%"   stop-color="#383850"/>
    <stop offset="14%"  stop-color="#78789a"/>
    <stop offset="36%"  stop-color="#202034"/>
    <stop offset="65%"  stop-color="#14141e"/>
    <stop offset="100%" stop-color="#0a0a12"/>
  </linearGradient>
  <!-- Energy orb — staff -->
  <radialGradient id="orbr1x9713" cx="35%" cy="35%" r="65%">
    <stop offset="0%"   stop-color="rgba(255,255,255,.9)"/>
    <stop offset="30%"  stop-color="#ccccff"/>
    <stop offset="68%"  stop-color="#242438"/>
    <stop offset="100%" stop-color="rgba(0,0,0,.6)"/>
  </radialGradient>
  <!-- Knuckle plate chrome -->
  <linearGradient id="knuckler1x9713" x1="0%" y1="0%" x2="0%" y2="100%">
    <stop offset="0%"   stop-color="#888aaa"/>
    <stop offset="32%"  stop-color="#ccccff" stop-opacity=".8"/>
    <stop offset="62%"  stop-color="#1a1a2c"/>
    <stop offset="100%" stop-color="#0a0a14"/>
  </linearGradient>

  <!-- Carbon fibre weave texture overlay -->
  <pattern id="carbonr1x9713" width="6" height="6" patternUnits="userSpaceOnUse">
    <rect width="6" height="6" fill="rgba(0,0,0,.08)"/>
    <rect x="0" y="0" width="3" height="3" fill="rgba(255,255,255,.022)"/>
    <rect x="3" y="3" width="3" height="3" fill="rgba(255,255,255,.022)"/>
    <line x1="0" y1="0" x2="3" y2="3" stroke="rgba(255,255,255,.038)" stroke-width=".5"/>
    <line x1="3" y1="0" x2="6" y2="3" stroke="rgba(0,0,0,.055)"       stroke-width=".5"/>
    <line x1="0" y1="3" x2="3" y2="6" stroke="rgba(0,0,0,.055)"       stroke-width=".5"/>
    <line x1="3" y1="3" x2="6" y2="6" stroke="rgba(255,255,255,.038)" stroke-width=".5"/>
  </pattern>

  <!-- Specular metal sheen on armour panels -->
  <filter id="metalr1x9713" x="-5%" y="-5%" width="110%" height="110%">
    <feSpecularLighting surfaceScale="4" specularConstant="1.8"
        specularExponent="42" lighting-color="#ffffff" result="spec">
      <feDistantLight elevation="52" azimuth="38"/>
    </feSpecularLighting>
    <feComposite in="spec" in2="SourceGraphic" operator="in" result="sm"/>
    <feComposite in="SourceGraphic" in2="sm" operator="arithmetic" k1="0" k2="1" k3="0.55" k4="0"/>
  </filter>

  <!-- Sharper specular for weapons — heavier glare -->
  <filter id="wmr1x9713" x="-8%" y="-8%" width="116%" height="116%">
    <feSpecularLighting surfaceScale="6" specularConstant="2.4"
        specularExponent="65" lighting-color="#ffffff" result="spec">
      <feDistantLight elevation="44" azimuth="28"/>
    </feSpecularLighting>
    <feComposite in="spec" in2="SourceGraphic" operator="in" result="sm"/>
    <feComposite in="SourceGraphic" in2="sm" operator="arithmetic" k1="0" k2="1" k3="0.78" k4="0"/>
  </filter>

  <!-- Sketch wobble -->
  <filter id="skr1x9713" x="-8%" y="-8%" width="116%" height="116%">
    <feTurbulence type="fractalNoise" baseFrequency="0.038"
        numOctaves="3" seed="15" result="noise"/>
    <feDisplacementMap in="SourceGraphic" in2="noise" scale="2.6"
        xChannelSelector="R" yChannelSelector="G" result="w"/>
    <feComposite in="w" in2="SourceGraphic" operator="atop"/>
  </filter>

  <!-- Glow: sharp accent -->
  <filter id="glowr1x9713" x="-20%" y="-20%" width="140%" height="140%">
    <feGaussianBlur stdDeviation="3.5" result="b"/>
    <feColorMatrix in="b" type="matrix"
        values="0 0 0 0 1  0 0 0 0 1  0 0 0 0 1  0 0 0 1.8 0" result="boost"/>
    <feMerge><feMergeNode in="boost"/><feMergeNode in="SourceGraphic"/></feMerge>
  </filter>

  <!-- Bloom: wide soft -->
  <filter id="bloomr1x9713" x="-40%" y="-40%" width="180%" height="180%">
    <feGaussianBlur stdDeviation="11" result="b"/>
    <feMerge><feMergeNode in="b"/><feMergeNode in="SourceGraphic"/></feMerge>
  </filter>

  </defs><rect width="1000" height="1000" fill="url(#bgr1x9713)"/><ellipse cx="500.0" cy="892.0" rx="350.0" ry="65.0" fill="rgba(0,0,0,.7)" filter="url(#bloomr1x9713)"/><ellipse cx="500.0" cy="889.0" rx="220.0" ry="34.0" fill="rgba(0,0,0,.45)"/><polygon points="400.3,662.2 490.4,661.9 479.9,876.6 386.3,878.8" fill="url(#suitr1x9713)" stroke="#ccccff" stroke-width="2.2" filter="url(#skr1x9713) url(#metalr1x9713)"/><polygon points="400.6,662.9 487.7,662.1 479.1,878.7 388.5,877.9" fill="url(#carbonr1x9713)"/><polygon points="391.4,722.4 493.1,723.2 485.7,789.4 382.4,787.3" fill="url(#bevelr1x9713)" fill-opacity=".5" stroke="#ccccff" stroke-width="1.4" filter="url(#skr1x9713)"/><polygon points="512.0,663.9 601.7,663.0 611.5,878.4 517.9,877.9" fill="url(#suitr1x9713)" stroke="#ccccff" stroke-width="2.2" filter="url(#skr1x9713) url(#metalr1x9713)"/><polygon points="512.3,662.0 600.0,662.7 611.4,878.3 520.2,876.2" fill="url(#carbonr1x9713)"/><polygon points="507.0,722.4 608.7,722.4 615.9,788.2 517.0,787.0" fill="url(#bevelr1x9713)" fill-opacity=".5" stroke="#ccccff" stroke-width="1.4" filter="url(#skr1x9713)"/><rect x="393.7" y="837.3" width="100.3" height="24.7" fill="url(#bevelr1x9713)" stroke="#ccccff" stroke-width="1" filter="url(#skr1x9713)"/><rect x="506.9"  y="839.1" width="100.3" height="24.7" fill="url(#bevelr1x9713)" stroke="#ccccff" stroke-width="1" filter="url(#skr1x9713)"/><polygon points="371.3,877.4 495.9,877.0 502.1,921.7 362.7,921.4" fill="#242438" stroke="#ccccff" stroke-width="2" filter="url(#skr1x9713)"/><polygon points="503.5,878.1 630.3,876.8 638.0,921.1 495.9,922.8" fill="#242438" stroke="#ccccff" stroke-width="2" filter="url(#skr1x9713)"/><polygon points="302.4,634.6 697.3,632.9 638.2,682.5 363.5,682.2" fill="#ccccff" fill-opacity=".52" stroke="#ccccff" stroke-width="2" filter="url(#skr1x9713)"/><rect x="462.8" y="639.4" width="72.0" height="42.0" fill="url(#bevelr1x9713)" stroke="#ccccff" stroke-width="1.4" filter="url(#glowr1x9713)"/><rect x="486.0" y="641.1" width="28.0" height="22.0" rx="1" fill="rgba(255,255,255,.48)"/><polygon points="151.3,467.0 233.8,465.5 257.3,733.4 129.8,735.7" fill="url(#suitr1x9713)" stroke="#ccccff" stroke-width="2.2" filter="url(#skr1x9713) url(#metalr1x9713)"/><polygon points="174.7,432.7 253.3,432.0 242.0,509.7 159.4,509.6" fill="url(#bevelr1x9713)" fill-opacity=".72" stroke="#ccccff" stroke-width="2.2" filter="url(#skr1x9713)"/><polygon points="159.6,622.2 244.2,623.2 238.7,659.6 166.7,661.9" fill="#ccccff" fill-opacity=".42" stroke="#ccccff" stroke-width="1" filter="url(#skr1x9713)"/><polygon points="766.2,467.7 845.2,467.3 872.6,736.1 741.5,734.5" fill="url(#suitr1x9713)" stroke="#ccccff" stroke-width="2.2" filter="url(#skr1x9713) url(#metalr1x9713)"/><polygon points="746.5,433.8 827.7,431.3 839.7,511.0 755.9,510.0" fill="url(#bevelr1x9713)" fill-opacity=".72" stroke="#ccccff" stroke-width="2.2" filter="url(#skr1x9713)"/><polygon points="755.4,621.9 838.7,620.8 833.7,661.5 761.7,661.4" fill="#ccccff" fill-opacity=".42" stroke="#ccccff" stroke-width="1" filter="url(#skr1x9713)"/><rect x="120.4"  y="698.2" width="135.3" height="85.0" rx="4" fill="url(#bevelr1x9713)" stroke="#ccccff" stroke-width="1.8" filter="url(#skr1x9713)"/><rect x="748.2"   y="699.4" width="135.3" height="85.0" rx="4" fill="url(#bevelr1x9713)" stroke="#ccccff" stroke-width="1.8" filter="url(#skr1x9713)"/><line x1="149.2" y1="703.6" x2="151.0" y2="784.6" stroke="#ccccff" stroke-opacity=".38" stroke-width="1"/><line x1="778.9" y1="700.6" x2="778.5" y2="784.6" stroke="#ccccff" stroke-opacity=".38" stroke-width="1"/><line x1="182.3" y1="701.0" x2="182.3" y2="784.2" stroke="#ccccff" stroke-opacity=".38" stroke-width="1"/><line x1="810.5" y1="701.2" x2="812.6" y2="783.7" stroke="#ccccff" stroke-opacity=".38" stroke-width="1"/><line x1="216.3" y1="701.9" x2="213.8" y2="784.0" stroke="#ccccff" stroke-opacity=".38" stroke-width="1"/><line x1="843.3" y1="701.6" x2="845.3" y2="785.2" stroke="#ccccff" stroke-opacity=".38" stroke-width="1"/><polygon points="236.1,418.8 763.7,418.6 721.2,661.9 277.8,661.8" fill="url(#suitr1x9713)" stroke="#ccccff" stroke-width="2.6" filter="url(#skr1x9713) url(#metalr1x9713)"/><polygon points="234.6,416.4 765.0,418.3 722.9,662.6 278.9,661.9" fill="url(#carbonr1x9713)"/><polygon points="368.5,418.5 631.2,417.6 612.5,516.1 388.4,515.3" fill="url(#suitHir1x9713)"/><line x1="361.9" y1="471.9" x2="638.9" y2="471.3" stroke="#ccccff" stroke-opacity=".52" stroke-width="1.3" filter="url(#skr1x9713)"/><line x1="398.9" y1="550.1" x2="600.9" y2="550.7" stroke="#ccccff" stroke-opacity=".52" stroke-width="1.3" filter="url(#skr1x9713)"/><line x1="267.5" y1="490.9" x2="318.3" y2="490.8" stroke="#ccccff" stroke-opacity=".62" stroke-width="1.8"/><line x1="678.4" y1="492.0" x2="734.2" y2="490.9" stroke="#ccccff" stroke-opacity=".62" stroke-width="1.8"/><line x1="265.2" y1="521.5" x2="319.3" y2="521.7" stroke="#ccccff" stroke-opacity=".62" stroke-width="1.8"/><line x1="680.4" y1="522.4" x2="732.8" y2="524.2" stroke="#ccccff" stroke-opacity=".62" stroke-width="1.8"/><line x1="265.3" y1="554.2" x2="318.0" y2="555.7" stroke="#ccccff" stroke-opacity=".62" stroke-width="1.8"/><line x1="681.0" y1="555.2" x2="732.8" y2="554.3" stroke="#ccccff" stroke-opacity=".62" stroke-width="1.8"/><line x1="265.6" y1="588.0" x2="319.7" y2="588.1" stroke="#ccccff" stroke-opacity=".62" stroke-width="1.8"/><line x1="679.0" y1="585.4" x2="733.6" y2="585.5" stroke="#ccccff" stroke-opacity=".62" stroke-width="1.8"/><g filter="url(#glowr1x9713)"><path d="M500.0,449.7 C462.3,446.8 442.0,481.6 447.8,513.5 L459.4,542.5 C476.8,536.7 491.3,551.2 500.0,551.2 C508.7,551.2 523.2,536.7 540.6,542.5 L552.2,513.5 C558.0,481.6 537.7,446.8 500.0,449.7 Z" fill="#ccccff" fill-opacity=".92" stroke="#050508" stroke-width="1.3" filter="url(#skr1x9713)"/><path d="M483.8,519.3 Q500.0,533.8 516.2,519.3" stroke="#050508" stroke-width="1" fill="none" opacity=".58"/><ellipse cx="481.4" cy="497.8" rx="8.7" ry="6.4" fill="#050508" opacity=".95"/><ellipse cx="518.6" cy="497.8" rx="8.7" ry="6.4" fill="#050508" opacity=".95"/><ellipse cx="481.4" cy="497.8" rx="2.3" ry="5.8" fill="#ccccff"/><ellipse cx="518.6" cy="497.8" rx="2.3" ry="5.8" fill="#ccccff"/><path d="M471.0,467.1 L458.2,426.5 L481.4,463.0" fill="#ccccff" stroke="#050508" stroke-width=".9"/><path d="M529.0,467.1 L541.8,426.5 L518.6,463.0" fill="#ccccff" stroke="#050508" stroke-width=".9"/><path d="M476.8,452.6 C488.4,449.1 511.6,449.1 523.2,452.6" fill="rgba(255,255,255,.18)"/></g><g><rect x="35.08895654011515" y="422.8981777393259" width="148.0" height="82.0" rx="5" fill="url(#gunmetalr1x9713)" stroke="#ccccff" stroke-width="2" filter="url(#wmr1x9713)"/><rect x="33.89518205732104" y="420.15996950510885" width="148.0" height="82.0" rx="5" fill="url(#carbonr1x9713)"/><rect x="41.65577567297962" y="404.3840061199851" width="90.0" height="22.0" rx="3" fill="url(#barrelr1x9713)" stroke="#ccccff" stroke-width="1" filter="url(#wmr1x9713)"/><circle cx="81.93993278941136" cy="414.22015962563455" r="15.0" fill="#ccccff" opacity=".8" filter="url(#glowr1x9713)"/><circle cx="82.98804769631472" cy="413.355873503536" r="6.0" fill="rgba(255,255,255,.9)"/><rect x="54.196075393576145" y="454.18919674130154" width="78.0" height="36.0" rx="5" fill="url(#barrelr1x9713)" stroke="#ccccff" stroke-width="1.2" filter="url(#wmr1x9713)"/><circle cx="-20.431390695236654" cy="471.6835551658645" r="18.0" fill="#ccccff" filter="url(#glowr1x9713)" opacity=".88"/><circle cx="-18.199900907147708" cy="470.01423972910266" r="7.0" fill="#ffffff"/><rect x="76.69468711795282" y="500.88178309900684" width="44.0" height="42.0" rx="3" fill="url(#gunmetalr1x9713)" stroke="#ccccff" stroke-width="1" filter="url(#wmr1x9713)"/><rect x="36.76529934717339" y="421.8041471241042" width="90.0" height="10.0" rx="2" fill="rgba(255,255,255,.22)"/><line x1="63.40310976304111" y1="486.10253282869235" x2="61.07824131729078" y2="519.5126750124618" stroke="#ccccff" stroke-opacity=".5" stroke-width="1.2"/><line x1="77.54016287889328" y1="486.3756649160757" x2="79.2882750945538" y2="520.6460733600892" stroke="#ccccff" stroke-opacity=".5" stroke-width="1.2"/><line x1="92.39207573546093" y1="484.9488708194345" x2="92.83247144486752" y2="518.9809516744688" stroke="#ccccff" stroke-opacity=".5" stroke-width="1.2"/></g><rect x="450.44985300069675" y="556.9240428647958" width="100.0"  height="56.0" fill="#242438" stroke="#ccccff" stroke-width="2.2" filter="url(#skr1x9713)"/><rect x="424.86511389538646" y="574.3887323823758" width="152.0" height="26.0" fill="url(#bevelr1x9713)" fill-opacity=".65" stroke="#ccccff" stroke-width="1.2" filter="url(#skr1x9713)"/><polygon points="307.9,379.5 350.9,293.1 498.8,278.8 650.6,294.0 693.0,381.2 670.6,504.1 501.7,566.5 330.1,501.9" fill="url(#suitr1x9713)" stroke="#ccccff" stroke-width="2.8" filter="url(#skr1x9713) url(#metalr1x9713)"/><polygon points="308.5,381.1 351.6,294.2 499.0,278.8 651.1,293.5 693.5,381.0 668.1,504.9 498.4,563.9 332.7,503.8" fill="url(#carbonr1x9713)"/><polygon points="382.2,301.9 498.4,287.0 619.9,304.2 608.5,381.3 390.8,380.0" fill="url(#suitHir1x9713)"/><polygon points="381.8,382.0 364.3,426.8 432.9,502.2 499.3,527.2 568.0,503.1 634.2,425.2 620.7,379.0" fill="#050508" fill-opacity=".88" stroke="#ccccff" stroke-width="1.8" filter="url(#skr1x9713)"/><polygon points="379.4,411.3 476.5,410.0 485.9,441.5 388.2,441.0" fill="#ccccff" filter="url(#glowr1x9713)"/><polygon points="522.9,413.0 619.4,410.9 611.7,438.9 515.1,439.2" fill="#ccccff" filter="url(#glowr1x9713)"/><ellipse cx="430.9" cy="425.7" rx="38.4"  ry="8.2" fill="#ffffff" opacity=".88"/><ellipse cx="569.1" cy="425.7" rx="38.4"  ry="8.2" fill="#ffffff" opacity=".88"/><line x1="484.0570116463676" y1="415.00551947001367" x2="515.7199109417759" y2="414.27204417698084" stroke="#ccccff" stroke-opacity=".52" stroke-width="2"/><line x1="483.92798965541647" y1="439.2987951412797" x2="514.6344346167892" y2="439.3497022312134" stroke="#ccccff" stroke-opacity=".52" stroke-width="2"/><line x1="498.69342610808087" y1="454.8654612141661" x2="499.84640503078697" y2="481.8254218131304" stroke="#ccccff" stroke-opacity=".58" stroke-width="2.2" filter="url(#skr1x9713)"/><line x1="452.5998257853836" y1="490.9620335772633" x2="453.47063006263227" y2="521.5656217492185" stroke="#ccccff" stroke-opacity=".52" stroke-width="1.5" filter="url(#skr1x9713)"/><line x1="477.7123559867404" y1="492.7448692425154" x2="478.6873119504563" y2="519.0561978596263" stroke="#ccccff" stroke-opacity=".52" stroke-width="1.5" filter="url(#skr1x9713)"/><line x1="500.4392513901927" y1="492.167059517838" x2="499.4731772799976" y2="521.1891712698155" stroke="#ccccff" stroke-opacity=".52" stroke-width="1.5" filter="url(#skr1x9713)"/><line x1="523.2615902409516" y1="493.0885384196415" x2="523.3392930716834" y2="521.4856390743516" stroke="#ccccff" stroke-opacity=".52" stroke-width="1.5" filter="url(#skr1x9713)"/><line x1="546.3879703631811" y1="490.6706535628065" x2="546.8094990883209" y2="519.2582925456576" stroke="#ccccff" stroke-opacity=".52" stroke-width="1.5" filter="url(#skr1x9713)"/><polygon points="433.1,503.4 567.2,504.7 552.5,556.1 446.8,556.7" fill="#242438" fill-opacity=".72" stroke="#ccccff" stroke-width="1.3" filter="url(#skr1x9713)"/><path d="M473.33870003584775 311.18192876987155 C305.78945340108123 146.19205692280082 420.6173377955705 240.6836335499771 500.4315994158387 310.73431911179796" fill="#ccccff" fill-opacity=".92" stroke="#ccccff" stroke-width="2.2" filter="url(#skr1x9713)"/><path d="M472.9694955818169 311.83287441097195 C304.403650775589 148.02983131306243 420.8637449432537 240.08405789695678 498.81649321867155 309.6459822343662" fill="url(#suitHir1x9713)" opacity=".28"/><path d="M527.3793509703315 309.97255157632753 C694.7420563039929 147.61854073647407 579.9430318347737 242.3436565004289 498.3327745296061 310.4106959166005" fill="#ccccff" fill-opacity=".92" stroke="#ccccff" stroke-width="2.2" filter="url(#skr1x9713)"/><path d="M526.9190723983758 309.45458126673475 C694.7220730966516 145.84435673924162 579.2523473367654 242.34962284890935 498.4979520409368 310.9848167707212" fill="url(#suitHir1x9713)" opacity=".28"/><text x="30.0"  y="975.0" font-family="monospace" font-weight="bold" font-size="22.0" fill="rgba(255,255,255,.22)">#0001</text><text x="500.0"   y="975.0" text-anchor="middle" font-family="monospace" font-weight="bold" font-size="22.0" fill="#ccccff" fill-opacity=".48">PHANTOM RANGER</text><text x="970.0" y="975.0" text-anchor="end"    font-family="monospace" font-weight="bold" font-size="22.0" fill="#ccccff" fill-opacity=".32">MECH RANGERS</text></svg>