<svg xmlns="http://www.w3.org/2000/svg" viewBox="0 0 1000 1000" width="1000" height="1000" shape-rendering="geometricPrecision"><defs>

  <!-- Scene gradients -->
  <radialGradient id="bgr1x9756" cx="50%" cy="42%" r="72%">
    <stop offset="0%"   stop-color="#1e0d00"/>
    <stop offset="100%" stop-color="#140900"/>
  </radialGradient>
  <linearGradient id="suitr1x9756" x1="8%" y1="0%" x2="92%" y2="100%">
    <stop offset="0%"   stop-color="#c0c0d0" stop-opacity=".95"/>
    <stop offset="45%"  stop-color="#2c2c3c"/>
    <stop offset="100%" stop-color="#140900"/>
  </linearGradient>
  <linearGradient id="suitHir1x9756" x1="0%" y1="0%" x2="0%" y2="100%">
    <stop offset="0%"   stop-color="rgba(255,255,255,.28)"/>
    <stop offset="60%"  stop-color="rgba(255,255,255,.04)"/>
    <stop offset="100%" stop-color="rgba(255,255,255,0)"/>
  </linearGradient>
  <!-- Bevel: bright top, dark bottom for armour panels -->
  <linearGradient id="bevelr1x9756" x1="0%" y1="0%" x2="0%" y2="100%">
    <stop offset="0%"   stop-color="rgba(255,255,255,.55)"/>
    <stop offset="30%"  stop-color="#c0c0d0"/>
    <stop offset="70%"  stop-color="#2c2c3c"/>
    <stop offset="100%" stop-color="rgba(0,0,0,.5)"/>
  </linearGradient>

  <!-- Weapon: cold steel blade sweep -->
  <linearGradient id="blader1x9756" x1="0%" y1="0%" x2="100%" y2="0%">
    <stop offset="0%"   stop-color="#0e0e20"/>
    <stop offset="16%"  stop-color="#3e3e58"/>
    <stop offset="34%"  stop-color="#c8c8e0"/>
    <stop offset="50%"  stop-color="#f5f5ff"/>
    <stop offset="66%"  stop-color="#b8b8d0"/>
    <stop offset="84%"  stop-color="#2e2e48"/>
    <stop offset="100%" stop-color="#08080e"/>
  </linearGradient>
  <!-- Blade tip brightening -->
  <linearGradient id="bladeTipr1x9756" x1="0%" y1="100%" x2="0%" y2="0%">
    <stop offset="0%"   stop-color="rgba(255,255,255,0)"/>
    <stop offset="55%"  stop-color="rgba(255,255,255,.1)"/>
    <stop offset="100%" stop-color="rgba(255,255,255,.55)"/>
  </linearGradient>
  <!-- Gunmetal anodised — blaster body -->
  <linearGradient id="gunmetalr1x9756" x1="0%" y1="0%" x2="0%" y2="100%">
    <stop offset="0%"   stop-color="#46465e"/>
    <stop offset="18%"  stop-color="#828296"/>
    <stop offset="42%"  stop-color="#26263a"/>
    <stop offset="72%"  stop-color="#16162a"/>
    <stop offset="100%" stop-color="#0c0c18"/>
  </linearGradient>
  <!-- Brushed steel tube — barrel/rod -->
  <linearGradient id="barrelr1x9756" x1="0%" y1="0%" x2="100%" y2="0%">
    <stop offset="0%"   stop-color="#0a0a14"/>
    <stop offset="24%"  stop-color="#585875"/>
    <stop offset="50%"  stop-color="#a8a8c8"/>
    <stop offset="76%"  stop-color="#383852"/>
    <stop offset="100%" stop-color="#0a0a14"/>
  </linearGradient>
  <!-- Chrome rod — lance shaft -->
  <linearGradient id="chromer1x9756" x1="0%" y1="0%" x2="100%" y2="0%">
    <stop offset="0%"   stop-color="#0c0c18"/>
    <stop offset="20%"  stop-color="#686888"/>
    <stop offset="44%"  stop-color="#e0e0f0"/>
    <stop offset="56%"  stop-color="#c0c0d8"/>
    <stop offset="80%"  stop-color="#28283e"/>
    <stop offset="100%" stop-color="#0c0c18"/>
  </linearGradient>
  <!-- Titanium plate — shield face -->
  <linearGradient id="titaniumr1x9756" x1="0%" y1="0%" x2="100%" y2="100%">
    <stop offset="0%"   stop-color="#585878"/>
    <stop offset="28%"  stop-color="#c0c0d0" stop-opacity=".88"/>
    <stop offset="55%"  stop-color="#2c2c3c"/>
    <stop offset="80%"  stop-color="#181828"/>
    <stop offset="100%" stop-color="#0a0a18"/>
  </linearGradient>
  <!-- Artillery black-chrome — cannon body -->
  <linearGradient id="artilleryr1x9756" x1="0%" y1="0%" x2="0%" y2="100%">
    <stop offset="0%"   stop-color="#383850"/>
    <stop offset="14%"  stop-color="#78789a"/>
    <stop offset="36%"  stop-color="#202034"/>
    <stop offset="65%"  stop-color="#14141e"/>
    <stop offset="100%" stop-color="#0a0a12"/>
  </linearGradient>
  <!-- Energy orb — staff -->
  <radialGradient id="orbr1x9756" cx="35%" cy="35%" r="65%">
    <stop offset="0%"   stop-color="rgba(255,255,255,.9)"/>
    <stop offset="30%"  stop-color="#c0c0d0"/>
    <stop offset="68%"  stop-color="#2c2c3c"/>
    <stop offset="100%" stop-color="rgba(0,0,0,.6)"/>
  </radialGradient>
  <!-- Knuckle plate chrome -->
  <linearGradient id="knuckler1x9756" x1="0%" y1="0%" x2="0%" y2="100%">
    <stop offset="0%"   stop-color="#888aaa"/>
    <stop offset="32%"  stop-color="#c0c0d0" stop-opacity=".8"/>
    <stop offset="62%"  stop-color="#1a1a2c"/>
    <stop offset="100%" stop-color="#0a0a14"/>
  </linearGradient>

  <!-- Carbon fibre weave texture overlay -->
  <pattern id="carbonr1x9756" width="6" height="6" patternUnits="userSpaceOnUse">
    <rect width="6" height="6" fill="rgba(0,0,0,.08)"/>
    <rect x="0" y="0" width="3" height="3" fill="rgba(255,255,255,.022)"/>
    <rect x="3" y="3" width="3" height="3" fill="rgba(255,255,255,.022)"/>
    <line x1="0" y1="0" x2="3" y2="3" stroke="rgba(255,255,255,.038)" stroke-width=".5"/>
    <line x1="3" y1="0" x2="6" y2="3" stroke="rgba(0,0,0,.055)"       stroke-width=".5"/>
    <line x1="0" y1="3" x2="3" y2="6" stroke="rgba(0,0,0,.055)"       stroke-width=".5"/>
    <line x1="3" y1="3" x2="6" y2="6" stroke="rgba(255,255,255,.038)" stroke-width=".5"/>
  </pattern>

  <!-- Specular metal sheen on armour panels -->
  <filter id="metalr1x9756" x="-5%" y="-5%" width="110%" height="110%">
    <feSpecularLighting surfaceScale="4" specularConstant="1.8"
        specularExponent="42" lighting-color="#ffffff" result="spec">
      <feDistantLight elevation="52" azimuth="38"/>
    </feSpecularLighting>
    <feComposite in="spec" in2="SourceGraphic" operator="in" result="sm"/>
    <feComposite in="SourceGraphic" in2="sm" operator="arithmetic" k1="0" k2="1" k3="0.55" k4="0"/>
  </filter>

  <!-- Sharper specular for weapons — heavier glare -->
  <filter id="wmr1x9756" x="-8%" y="-8%" width="116%" height="116%">
    <feSpecularLighting surfaceScale="6" specularConstant="2.4"
        specularExponent="65" lighting-color="#ffffff" result="spec">
      <feDistantLight elevation="44" azimuth="28"/>
    </feSpecularLighting>
    <feComposite in="spec" in2="SourceGraphic" operator="in" result="sm"/>
    <feComposite in="SourceGraphic" in2="sm" operator="arithmetic" k1="0" k2="1" k3="0.78" k4="0"/>
  </filter>

  <!-- Sketch wobble -->
  <filter id="skr1x9756" x="-8%" y="-8%" width="116%" height="116%">
    <feTurbulence type="fractalNoise" baseFrequency="0.038"
        numOctaves="3" seed="97" result="noise"/>
    <feDisplacementMap in="SourceGraphic" in2="noise" scale="2.6"
        xChannelSelector="R" yChannelSelector="G" result="w"/>
    <feComposite in="w" in2="SourceGraphic" operator="atop"/>
  </filter>

  <!-- Glow: sharp accent -->
  <filter id="glowr1x9756" x="-20%" y="-20%" width="140%" height="140%">
    <feGaussianBlur stdDeviation="3.5" result="b"/>
    <feColorMatrix in="b" type="matrix"
        values="0 0 0 0 1  0 0 0 0 1  0 0 0 0 1  0 0 0 1.8 0" result="boost"/>
    <feMerge><feMergeNode in="boost"/><feMergeNode in="SourceGraphic"/></feMerge>
  </filter>

  <!-- Bloom: wide soft -->
  <filter id="bloomr1x9756" x="-40%" y="-40%" width="180%" height="180%">
    <feGaussianBlur stdDeviation="11" result="b"/>
    <feMerge><feMergeNode in="b"/><feMergeNode in="SourceGraphic"/></feMerge>
  </filter>

  </defs><rect width="1000" height="1000" fill="url(#bgr1x9756)"/><line x1="500" y1="500" x2="1500.0" y2="500.0" stroke="#c0c0d0" stroke-opacity=".048" stroke-width="5"/><line x1="500" y1="500" x2="1474.9" y2="722.5" stroke="#c0c0d0" stroke-opacity=".048" stroke-width="5"/><line x1="500" y1="500" x2="1401.0" y2="933.9" stroke="#c0c0d0" stroke-opacity=".048" stroke-width="5"/><line x1="500" y1="500" x2="1281.8" y2="1123.5" stroke="#c0c0d0" stroke-opacity=".048" stroke-width="5"/><line x1="500" y1="500" x2="1123.5" y2="1281.8" stroke="#c0c0d0" stroke-opacity=".048" stroke-width="5"/><line x1="500" y1="500" x2="933.9" y2="1401.0" stroke="#c0c0d0" stroke-opacity=".048" stroke-width="5"/><line x1="500" y1="500" x2="722.5" y2="1474.9" stroke="#c0c0d0" stroke-opacity=".048" stroke-width="5"/><line x1="500" y1="500" x2="500.0" y2="1500.0" stroke="#c0c0d0" stroke-opacity=".048" stroke-width="5"/><line x1="500" y1="500" x2="277.5" y2="1474.9" stroke="#c0c0d0" stroke-opacity=".048" stroke-width="5"/><line x1="500" y1="500" x2="66.1" y2="1401.0" stroke="#c0c0d0" stroke-opacity=".048" stroke-width="5"/><line x1="500" y1="500" x2="-123.5" y2="1281.8" stroke="#c0c0d0" stroke-opacity=".048" stroke-width="5"/><line x1="500" y1="500" x2="-281.8" y2="1123.5" stroke="#c0c0d0" stroke-opacity=".048" stroke-width="5"/><line x1="500" y1="500" x2="-401.0" y2="933.9" stroke="#c0c0d0" stroke-opacity=".048" stroke-width="5"/><line x1="500" y1="500" x2="-474.9" y2="722.5" stroke="#c0c0d0" stroke-opacity=".048" stroke-width="5"/><line x1="500" y1="500" x2="-500.0" y2="500.0" stroke="#c0c0d0" stroke-opacity=".048" stroke-width="5"/><line x1="500" y1="500" x2="-474.9" y2="277.5" stroke="#c0c0d0" stroke-opacity=".048" stroke-width="5"/><line x1="500" y1="500" x2="-401.0" y2="66.1" stroke="#c0c0d0" stroke-opacity=".048" stroke-width="5"/><line x1="500" y1="500" x2="-281.8" y2="-123.5" stroke="#c0c0d0" stroke-opacity=".048" stroke-width="5"/><line x1="500" y1="500" x2="-123.5" y2="-281.8" stroke="#c0c0d0" stroke-opacity=".048" stroke-width="5"/><line x1="500" y1="500" x2="66.1" y2="-401.0" stroke="#c0c0d0" stroke-opacity=".048" stroke-width="5"/><line x1="500" y1="500" x2="277.5" y2="-474.9" stroke="#c0c0d0" stroke-opacity=".048" stroke-width="5"/><line x1="500" y1="500" x2="500.0" y2="-500.0" stroke="#c0c0d0" stroke-opacity=".048" stroke-width="5"/><line x1="500" y1="500" x2="722.5" y2="-474.9" stroke="#c0c0d0" stroke-opacity=".048" stroke-width="5"/><line x1="500" y1="500" x2="933.9" y2="-401.0" stroke="#c0c0d0" stroke-opacity=".048" stroke-width="5"/><line x1="500" y1="500" x2="1123.5" y2="-281.8" stroke="#c0c0d0" stroke-opacity=".048" stroke-width="5"/><line x1="500" y1="500" x2="1281.8" y2="-123.5" stroke="#c0c0d0" stroke-opacity=".048" stroke-width="5"/><line x1="500" y1="500" x2="1401.0" y2="66.1" stroke="#c0c0d0" stroke-opacity=".048" stroke-width="5"/><line x1="500" y1="500" x2="1474.9" y2="277.5" stroke="#c0c0d0" stroke-opacity=".048" stroke-width="5"/><ellipse cx="500.0" cy="892.0" rx="350.0" ry="65.0" fill="rgba(0,0,0,.7)" filter="url(#bloomr1x9756)"/><ellipse cx="500.0" cy="889.0" rx="220.0" ry="34.0" fill="rgba(0,0,0,.45)"/><polygon points="397.2,663.8 489.5,664.0 479.4,876.8 387.9,876.6" fill="url(#suitr1x9756)" stroke="#c0c0d0" stroke-width="2.2" filter="url(#skr1x9756) url(#metalr1x9756)"/><polygon points="398.4,661.5 491.0,660.8 481.9,878.3 388.1,877.0" fill="url(#carbonr1x9756)"/><polygon points="394.2,725.3 493.4,723.8 482.8,787.2 383.2,788.8" fill="url(#bevelr1x9756)" fill-opacity=".5" stroke="#c0c0d0" stroke-width="1.4" filter="url(#skr1x9756)"/><polygon points="510.5,663.2 601.1,661.5 611.0,878.4 518.0,875.8" fill="url(#suitr1x9756)" stroke="#c0c0d0" stroke-width="2.2" filter="url(#skr1x9756) url(#metalr1x9756)"/><polygon points="510.5,661.1 600.7,662.0 613.8,877.7 519.0,876.4" fill="url(#carbonr1x9756)"/><polygon points="507.9,725.5 606.7,722.1 616.1,787.5 514.2,789.2" fill="url(#bevelr1x9756)" fill-opacity=".5" stroke="#c0c0d0" stroke-width="1.4" filter="url(#skr1x9756)"/><rect x="393.6" y="838.4" width="100.3" height="24.7" fill="url(#bevelr1x9756)" stroke="#c0c0d0" stroke-width="1" filter="url(#skr1x9756)"/><rect x="506.7"  y="838.1" width="100.3" height="24.7" fill="url(#bevelr1x9756)" stroke="#c0c0d0" stroke-width="1" filter="url(#skr1x9756)"/><polygon points="371.4,878.2 496.4,876.3 505.3,920.4 361.6,919.9" fill="#2c2c3c" stroke="#c0c0d0" stroke-width="2" filter="url(#skr1x9756)"/><polygon points="501.9,878.0 631.6,879.0 637.5,921.4 497.2,922.5" fill="#2c2c3c" stroke="#c0c0d0" stroke-width="2" filter="url(#skr1x9756)"/><polygon points="305.4,634.6 697.1,634.9 637.4,680.4 362.8,682.4" fill="#c0c0d0" fill-opacity=".52" stroke="#c0c0d0" stroke-width="2" filter="url(#skr1x9756)"/><rect x="465.4" y="637.9" width="72.0" height="42.0" fill="url(#bevelr1x9756)" stroke="#c0c0d0" stroke-width="1.4" filter="url(#glowr1x9756)"/><rect x="486.0" y="641.5" width="28.0" height="22.0" rx="1" fill="rgba(255,255,255,.48)"/><polygon points="152.9,467.2 235.2,466.0 257.7,733.6 129.5,736.4" fill="url(#suitr1x9756)" stroke="#c0c0d0" stroke-width="2.2" filter="url(#skr1x9756) url(#metalr1x9756)"/><polygon points="174.1,432.6 254.7,432.5 243.6,509.4 158.0,509.0" fill="url(#bevelr1x9756)" fill-opacity=".72" stroke="#c0c0d0" stroke-width="2.2" filter="url(#skr1x9756)"/><polygon points="159.5,621.6 241.9,622.0 238.7,659.1 166.2,659.6" fill="#c0c0d0" fill-opacity=".42" stroke="#c0c0d0" stroke-width="1" filter="url(#skr1x9756)"/><polygon points="765.4,467.9 847.3,466.4 872.1,736.6 740.5,734.3" fill="url(#suitr1x9756)" stroke="#c0c0d0" stroke-width="2.2" filter="url(#skr1x9756) url(#metalr1x9756)"/><polygon points="748.0,431.2 827.3,430.7 841.4,511.3 756.2,512.1" fill="url(#bevelr1x9756)" fill-opacity=".72" stroke="#c0c0d0" stroke-width="2.2" filter="url(#skr1x9756)"/><polygon points="758.5,622.3 840.2,622.5 834.4,660.9 761.6,660.4" fill="#c0c0d0" fill-opacity=".42" stroke="#c0c0d0" stroke-width="1" filter="url(#skr1x9756)"/><rect x="118.5"  y="698.9" width="135.3" height="85.0" rx="4" fill="url(#bevelr1x9756)" stroke="#c0c0d0" stroke-width="1.8" filter="url(#skr1x9756)"/><rect x="750.0"   y="698.1" width="135.3" height="85.0" rx="4" fill="url(#bevelr1x9756)" stroke="#c0c0d0" stroke-width="1.8" filter="url(#skr1x9756)"/><line x1="150.3" y1="701.6" x2="149.1" y2="782.6" stroke="#c0c0d0" stroke-opacity=".38" stroke-width="1"/><line x1="779.0" y1="702.7" x2="779.8" y2="784.3" stroke="#c0c0d0" stroke-opacity=".38" stroke-width="1"/><line x1="180.8" y1="701.3" x2="182.0" y2="785.6" stroke="#c0c0d0" stroke-opacity=".38" stroke-width="1"/><line x1="809.9" y1="702.7" x2="809.4" y2="783.0" stroke="#c0c0d0" stroke-opacity=".38" stroke-width="1"/><line x1="214.4" y1="700.8" x2="213.7" y2="783.9" stroke="#c0c0d0" stroke-opacity=".38" stroke-width="1"/><line x1="843.0" y1="703.0" x2="844.3" y2="785.6" stroke="#c0c0d0" stroke-opacity=".38" stroke-width="1"/><polygon points="235.0,419.0 764.7,419.0 723.9,661.4 276.8,664.0" fill="url(#suitr1x9756)" stroke="#c0c0d0" stroke-width="2.6" filter="url(#skr1x9756) url(#metalr1x9756)"/><polygon points="236.0,417.0 764.3,416.6 721.3,662.2 279.0,662.8" fill="url(#carbonr1x9756)"/><polygon points="366.7,418.5 633.5,417.9 612.8,514.1 389.5,514.3" fill="url(#suitHir1x9756)"/><line x1="360.4" y1="473.0" x2="636.6" y2="470.8" stroke="#c0c0d0" stroke-opacity=".52" stroke-width="1.3" filter="url(#skr1x9756)"/><line x1="400.9" y1="550.0" x2="601.5" y2="548.7" stroke="#c0c0d0" stroke-opacity=".52" stroke-width="1.3" filter="url(#skr1x9756)"/><line x1="267.3" y1="492.6" x2="318.7" y2="491.2" stroke="#c0c0d0" stroke-opacity=".62" stroke-width="1.8"/><line x1="680.1" y1="490.9" x2="733.1" y2="491.6" stroke="#c0c0d0" stroke-opacity=".62" stroke-width="1.8"/><line x1="267.9" y1="522.0" x2="320.2" y2="523.0" stroke="#c0c0d0" stroke-opacity=".62" stroke-width="1.8"/><line x1="679.9" y1="522.2" x2="733.8" y2="523.3" stroke="#c0c0d0" stroke-opacity=".62" stroke-width="1.8"/><line x1="267.9" y1="553.1" x2="320.2" y2="554.7" stroke="#c0c0d0" stroke-opacity=".62" stroke-width="1.8"/><line x1="680.9" y1="553.8" x2="734.4" y2="554.3" stroke="#c0c0d0" stroke-opacity=".62" stroke-width="1.8"/><line x1="266.6" y1="587.3" x2="318.4" y2="586.4" stroke="#c0c0d0" stroke-opacity=".62" stroke-width="1.8"/><line x1="679.1" y1="586.6" x2="734.1" y2="587.9" stroke="#c0c0d0" stroke-opacity=".62" stroke-width="1.8"/><g filter="url(#glowr1x9756)"><circle cx="498.5" cy="498.6" r="31.3" fill="#c0c0d0" stroke="#140900" stroke-width="1.4" filter="url(#skr1x9756)"/><circle cx="489.3" cy="497.9" r="7.0" fill="#140900"/><circle cx="511.3" cy="496.8" r="7.0" fill="#140900"/><rect x="483.7" y="521.4" width="9.3" height="17.4" rx="1" fill="#c0c0d0" stroke="#140900" stroke-width=".6"/><rect x="494.3" y="523.6" width="9.3" height="17.4" rx="1" fill="#c0c0d0" stroke="#140900" stroke-width=".6"/><rect x="508.7" y="522.8" width="9.3" height="17.4" rx="1" fill="#c0c0d0" stroke="#140900" stroke-width=".6"/></g><g><line x1="897.4239057463221" y1="793.0893486421555" x2="913.2467323066295" y2="111.40105081992222" stroke="url(#chromer1x9756)" stroke-width="28.0" stroke-linecap="round" filter="url(#wmr1x9756)"/><line x1="902.4308189212903" y1="771.5602181294933" x2="912.8566666247882" y2="132.71551217827943" stroke="rgba(255,255,255,.42)" stroke-width="5.0" stroke-linecap="round"/><polygon points="869.0,152.2 935.9,150.3 917.5,-9.5" fill="url(#blader1x9756)" stroke="#c0c0d0" stroke-width="1.8" filter="url(#wmr1x9756)"/><line x1="935.8" y1="151.4" x2="915.8" y2="-8.6" stroke="rgba(255,255,255,.72)" stroke-width="1.6"/><rect x="878.1748557384685" y="421.5120353827253" width="40.0" height="20.0" fill="url(#bevelr1x9756)" stroke="#c0c0d0" stroke-width="1" filter="url(#wmr1x9756)"/><rect x="879.3286059278622" y="510.02701601600273" width="40.0" height="20.0" fill="url(#bevelr1x9756)" stroke="#c0c0d0" stroke-width="1" filter="url(#wmr1x9756)"/><rect x="877.8880181690306" y="602.5240780535154" width="40.0" height="20.0" fill="url(#bevelr1x9756)" stroke="#c0c0d0" stroke-width="1" filter="url(#wmr1x9756)"/><rect x="877.1706408876554" y="691.8142063003964" width="40.0" height="20.0" fill="url(#bevelr1x9756)" stroke="#c0c0d0" stroke-width="1" filter="url(#wmr1x9756)"/><ellipse cx="896.6344412025624" cy="790.2587725860067" rx="22.0" ry="15.0" fill="url(#bevelr1x9756)" stroke="#c0c0d0" stroke-width="1" filter="url(#wmr1x9756)"/></g><rect x="450.84403504254294" y="556.3828841038979" width="100.0"  height="56.0" fill="#2c2c3c" stroke="#c0c0d0" stroke-width="2.2" filter="url(#skr1x9756)"/><rect x="424.89043648317454" y="576.9612425547093" width="152.0" height="26.0" fill="url(#bevelr1x9756)" fill-opacity=".65" stroke="#c0c0d0" stroke-width="1.2" filter="url(#skr1x9756)"/><polygon points="308.9,382.0 351.9,293.7 499.6,276.4 649.3,293.8 692.6,379.4 669.9,504.4 498.2,565.2 331.9,503.4" fill="url(#suitr1x9756)" stroke="#c0c0d0" stroke-width="2.8" filter="url(#skr1x9756) url(#metalr1x9756)"/><polygon points="309.6,382.0 350.0,293.6 499.2,276.6 650.1,294.4 690.4,379.2 668.4,503.2 501.1,563.5 329.4,502.0" fill="url(#carbonr1x9756)"/><polygon points="381.7,301.2 500.0,287.8 619.0,302.8 606.8,382.0 394.0,381.6" fill="url(#suitHir1x9756)"/><polygon points="381.2,379.2 364.0,424.8 433.2,504.6 500.5,526.7 566.8,503.9 633.7,424.4 620.0,381.2" fill="#140900" fill-opacity=".88" stroke="#c0c0d0" stroke-width="1.8" filter="url(#skr1x9756)"/><polygon points="380.1,411.2 476.3,410.8 485.5,441.3 389.1,440.3" fill="#c0c0d0" filter="url(#glowr1x9756)"/><polygon points="524.6,410.1 617.7,410.5 610.1,441.2 517.0,438.7" fill="#c0c0d0" filter="url(#glowr1x9756)"/><ellipse cx="430.9" cy="425.7" rx="38.4"  ry="8.2" fill="#ffffff" opacity=".88"/><ellipse cx="569.1" cy="425.7" rx="38.4"  ry="8.2" fill="#ffffff" opacity=".88"/><line x1="486.23531158097086" y1="414.92228930974375" x2="516.4852425312065" y2="415.0431274124421" stroke="#c0c0d0" stroke-opacity=".52" stroke-width="2"/><line x1="484.8054414423741" y1="438.4376701399684" x2="515.9153621221334" y2="438.7459285715595" stroke="#c0c0d0" stroke-opacity=".52" stroke-width="2"/><line x1="500.65941382925956" y1="456.0692415980622" x2="498.73143498795105" y2="482.1142018735409" stroke="#c0c0d0" stroke-opacity=".58" stroke-width="2.2" filter="url(#skr1x9756)"/><line x1="454.26962008362636" y1="491.65870245574035" x2="453.8710266603902" y2="520.8466132941655" stroke="#c0c0d0" stroke-opacity=".52" stroke-width="1.5" filter="url(#skr1x9756)"/><line x1="477.95697535997255" y1="490.20038633299987" x2="476.49739126566794" y2="518.8554857685231" stroke="#c0c0d0" stroke-opacity=".52" stroke-width="1.5" filter="url(#skr1x9756)"/><line x1="499.57102235630157" y1="490.7079160149209" x2="500.0819181459956" y2="519.318945195619" stroke="#c0c0d0" stroke-opacity=".52" stroke-width="1.5" filter="url(#skr1x9756)"/><line x1="523.4790401050448" y1="491.6880270234309" x2="522.3724722814374" y2="519.494334113039" stroke="#c0c0d0" stroke-opacity=".52" stroke-width="1.5" filter="url(#skr1x9756)"/><line x1="544.303903777171" y1="492.3907271204516" x2="544.9295310390369" y2="520.1590886713936" stroke="#c0c0d0" stroke-opacity=".52" stroke-width="1.5" filter="url(#skr1x9756)"/><polygon points="433.2,504.8 565.5,503.8 554.1,555.1 444.7,556.7" fill="#2c2c3c" fill-opacity=".72" stroke="#c0c0d0" stroke-width="1.3" filter="url(#skr1x9756)"/><path d="M388.51259015999733 328.97294568093497 Q332.484792714063 215.2154091445729 382.0588354039379 141.60436789151282" stroke="#c0c0d0" stroke-width="5" fill="none" stroke-linecap="round" filter="url(#skr1x9756)"/><path d="M387.38010314652695 329.0985434230417 Q330.18595760209485 215.5892791746184 381.8375083681569 141.06669011069462" stroke="rgba(255,255,255,.25)" stroke-width="1.5" fill="none" stroke-linecap="round"/><path d="M610.5858593178355 329.036194049567 Q669.1997451020777 216.73387119434773 617.848726438228 140.43923971280455" stroke="#c0c0d0" stroke-width="5" fill="none" stroke-linecap="round" filter="url(#skr1x9756)"/><path d="M611.9835902423039 326.62960402853787 Q668.5303200869263 217.89233734002337 618.3106516828387 142.1324716353789" stroke="rgba(255,255,255,.25)" stroke-width="1.5" fill="none" stroke-linecap="round"/><text x="30.0"  y="975.0" font-family="monospace" font-weight="bold" font-size="22.0" fill="rgba(255,255,255,.22)">#0001</text><text x="500.0"   y="975.0" text-anchor="middle" font-family="monospace" font-weight="bold" font-size="22.0" fill="#c0c0d0" fill-opacity=".48">CHROME RANGER</text><text x="970.0" y="975.0" text-anchor="end"    font-family="monospace" font-weight="bold" font-size="22.0" fill="#c0c0d0" fill-opacity=".32">MECH RANGERS</text></svg>