<svg xmlns="http://www.w3.org/2000/svg" viewBox="0 0 1000 1000" width="1000" height="1000" shape-rendering="geometricPrecision"><defs>

  <!-- Scene gradients -->
  <radialGradient id="bgr1x9777" cx="50%" cy="42%" r="72%">
    <stop offset="0%"   stop-color="#0e000e"/>
    <stop offset="100%" stop-color="#1e0600"/>
  </radialGradient>
  <linearGradient id="suitr1x9777" x1="8%" y1="0%" x2="92%" y2="100%">
    <stop offset="0%"   stop-color="#ff2040" stop-opacity=".95"/>
    <stop offset="45%"  stop-color="#cc0020"/>
    <stop offset="100%" stop-color="#1e0600"/>
  </linearGradient>
  <linearGradient id="suitHir1x9777" x1="0%" y1="0%" x2="0%" y2="100%">
    <stop offset="0%"   stop-color="rgba(255,255,255,.28)"/>
    <stop offset="60%"  stop-color="rgba(255,255,255,.04)"/>
    <stop offset="100%" stop-color="rgba(255,255,255,0)"/>
  </linearGradient>
  <!-- Bevel: bright top, dark bottom for armour panels -->
  <linearGradient id="bevelr1x9777" x1="0%" y1="0%" x2="0%" y2="100%">
    <stop offset="0%"   stop-color="rgba(255,255,255,.55)"/>
    <stop offset="30%"  stop-color="#ff2040"/>
    <stop offset="70%"  stop-color="#cc0020"/>
    <stop offset="100%" stop-color="rgba(0,0,0,.5)"/>
  </linearGradient>

  <!-- Weapon: cold steel blade sweep -->
  <linearGradient id="blader1x9777" x1="0%" y1="0%" x2="100%" y2="0%">
    <stop offset="0%"   stop-color="#0e0e20"/>
    <stop offset="16%"  stop-color="#3e3e58"/>
    <stop offset="34%"  stop-color="#c8c8e0"/>
    <stop offset="50%"  stop-color="#f5f5ff"/>
    <stop offset="66%"  stop-color="#b8b8d0"/>
    <stop offset="84%"  stop-color="#2e2e48"/>
    <stop offset="100%" stop-color="#08080e"/>
  </linearGradient>
  <!-- Blade tip brightening -->
  <linearGradient id="bladeTipr1x9777" x1="0%" y1="100%" x2="0%" y2="0%">
    <stop offset="0%"   stop-color="rgba(255,255,255,0)"/>
    <stop offset="55%"  stop-color="rgba(255,255,255,.1)"/>
    <stop offset="100%" stop-color="rgba(255,255,255,.55)"/>
  </linearGradient>
  <!-- Gunmetal anodised — blaster body -->
  <linearGradient id="gunmetalr1x9777" x1="0%" y1="0%" x2="0%" y2="100%">
    <stop offset="0%"   stop-color="#46465e"/>
    <stop offset="18%"  stop-color="#828296"/>
    <stop offset="42%"  stop-color="#26263a"/>
    <stop offset="72%"  stop-color="#16162a"/>
    <stop offset="100%" stop-color="#0c0c18"/>
  </linearGradient>
  <!-- Brushed steel tube — barrel/rod -->
  <linearGradient id="barrelr1x9777" x1="0%" y1="0%" x2="100%" y2="0%">
    <stop offset="0%"   stop-color="#0a0a14"/>
    <stop offset="24%"  stop-color="#585875"/>
    <stop offset="50%"  stop-color="#a8a8c8"/>
    <stop offset="76%"  stop-color="#383852"/>
    <stop offset="100%" stop-color="#0a0a14"/>
  </linearGradient>
  <!-- Chrome rod — lance shaft -->
  <linearGradient id="chromer1x9777" x1="0%" y1="0%" x2="100%" y2="0%">
    <stop offset="0%"   stop-color="#0c0c18"/>
    <stop offset="20%"  stop-color="#686888"/>
    <stop offset="44%"  stop-color="#e0e0f0"/>
    <stop offset="56%"  stop-color="#c0c0d8"/>
    <stop offset="80%"  stop-color="#28283e"/>
    <stop offset="100%" stop-color="#0c0c18"/>
  </linearGradient>
  <!-- Titanium plate — shield face -->
  <linearGradient id="titaniumr1x9777" x1="0%" y1="0%" x2="100%" y2="100%">
    <stop offset="0%"   stop-color="#585878"/>
    <stop offset="28%"  stop-color="#ff2040" stop-opacity=".88"/>
    <stop offset="55%"  stop-color="#cc0020"/>
    <stop offset="80%"  stop-color="#181828"/>
    <stop offset="100%" stop-color="#0a0a18"/>
  </linearGradient>
  <!-- Artillery black-chrome — cannon body -->
  <linearGradient id="artilleryr1x9777" x1="0%" y1="0%" x2="0%" y2="100%">
    <stop offset="0%"   stop-color="#383850"/>
    <stop offset="14%"  stop-color="#78789a"/>
    <stop offset="36%"  stop-color="#202034"/>
    <stop offset="65%"  stop-color="#14141e"/>
    <stop offset="100%" stop-color="#0a0a12"/>
  </linearGradient>
  <!-- Energy orb — staff -->
  <radialGradient id="orbr1x9777" cx="35%" cy="35%" r="65%">
    <stop offset="0%"   stop-color="rgba(255,255,255,.9)"/>
    <stop offset="30%"  stop-color="#ff2040"/>
    <stop offset="68%"  stop-color="#cc0020"/>
    <stop offset="100%" stop-color="rgba(0,0,0,.6)"/>
  </radialGradient>
  <!-- Knuckle plate chrome -->
  <linearGradient id="knuckler1x9777" x1="0%" y1="0%" x2="0%" y2="100%">
    <stop offset="0%"   stop-color="#888aaa"/>
    <stop offset="32%"  stop-color="#ff2040" stop-opacity=".8"/>
    <stop offset="62%"  stop-color="#1a1a2c"/>
    <stop offset="100%" stop-color="#0a0a14"/>
  </linearGradient>

  <!-- Carbon fibre weave texture overlay -->
  <pattern id="carbonr1x9777" width="6" height="6" patternUnits="userSpaceOnUse">
    <rect width="6" height="6" fill="rgba(0,0,0,.08)"/>
    <rect x="0" y="0" width="3" height="3" fill="rgba(255,255,255,.022)"/>
    <rect x="3" y="3" width="3" height="3" fill="rgba(255,255,255,.022)"/>
    <line x1="0" y1="0" x2="3" y2="3" stroke="rgba(255,255,255,.038)" stroke-width=".5"/>
    <line x1="3" y1="0" x2="6" y2="3" stroke="rgba(0,0,0,.055)"       stroke-width=".5"/>
    <line x1="0" y1="3" x2="3" y2="6" stroke="rgba(0,0,0,.055)"       stroke-width=".5"/>
    <line x1="3" y1="3" x2="6" y2="6" stroke="rgba(255,255,255,.038)" stroke-width=".5"/>
  </pattern>

  <!-- Specular metal sheen on armour panels -->
  <filter id="metalr1x9777" x="-5%" y="-5%" width="110%" height="110%">
    <feSpecularLighting surfaceScale="4" specularConstant="1.8"
        specularExponent="42" lighting-color="#ffffff" result="spec">
      <feDistantLight elevation="52" azimuth="38"/>
    </feSpecularLighting>
    <feComposite in="spec" in2="SourceGraphic" operator="in" result="sm"/>
    <feComposite in="SourceGraphic" in2="sm" operator="arithmetic" k1="0" k2="1" k3="0.55" k4="0"/>
  </filter>

  <!-- Sharper specular for weapons — heavier glare -->
  <filter id="wmr1x9777" x="-8%" y="-8%" width="116%" height="116%">
    <feSpecularLighting surfaceScale="6" specularConstant="2.4"
        specularExponent="65" lighting-color="#ffffff" result="spec">
      <feDistantLight elevation="44" azimuth="28"/>
    </feSpecularLighting>
    <feComposite in="spec" in2="SourceGraphic" operator="in" result="sm"/>
    <feComposite in="SourceGraphic" in2="sm" operator="arithmetic" k1="0" k2="1" k3="0.78" k4="0"/>
  </filter>

  <!-- Sketch wobble -->
  <filter id="skr1x9777" x="-8%" y="-8%" width="116%" height="116%">
    <feTurbulence type="fractalNoise" baseFrequency="0.038"
        numOctaves="3" seed="2" result="noise"/>
    <feDisplacementMap in="SourceGraphic" in2="noise" scale="2.6"
        xChannelSelector="R" yChannelSelector="G" result="w"/>
    <feComposite in="w" in2="SourceGraphic" operator="atop"/>
  </filter>

  <!-- Glow: sharp accent -->
  <filter id="glowr1x9777" x="-20%" y="-20%" width="140%" height="140%">
    <feGaussianBlur stdDeviation="3.5" result="b"/>
    <feColorMatrix in="b" type="matrix"
        values="0 0 0 0 1  0 0 0 0 1  0 0 0 0 1  0 0 0 1.8 0" result="boost"/>
    <feMerge><feMergeNode in="boost"/><feMergeNode in="SourceGraphic"/></feMerge>
  </filter>

  <!-- Bloom: wide soft -->
  <filter id="bloomr1x9777" x="-40%" y="-40%" width="180%" height="180%">
    <feGaussianBlur stdDeviation="11" result="b"/>
    <feMerge><feMergeNode in="b"/><feMergeNode in="SourceGraphic"/></feMerge>
  </filter>

  </defs><rect width="1000" height="1000" fill="url(#bgr1x9777)"/><ellipse cx="500.0" cy="1000" rx="850.0" ry="350.0" fill="#ff4500" fill-opacity=".11" filter="url(#bloomr1x9777)"/><ellipse cx="500.0" cy="892.0" rx="350.0" ry="65.0" fill="rgba(0,0,0,.7)" filter="url(#bloomr1x9777)"/><ellipse cx="500.0" cy="889.0" rx="220.0" ry="34.0" fill="rgba(0,0,0,.45)"/><ellipse cx="500.0" cy="520.0" rx="320.0" ry="480.0" fill="#00e5ff" fill-opacity=".042" filter="url(#bloomr1x9777)"/><circle cx="572.5" cy="523.8" r="3.0" fill="#00e5ff" fill-opacity="0.70" filter="url(#glowr1x9777)"/><circle cx="284.1" cy="652.4" r="1.9" fill="#00e5ff" fill-opacity="0.58" filter="url(#glowr1x9777)"/><circle cx="745.1" cy="766.7" r="2.7" fill="#00e5ff" fill-opacity="0.83" filter="url(#glowr1x9777)"/><circle cx="436.9" cy="673.8" r="3.6" fill="#00e5ff" fill-opacity="0.43" filter="url(#glowr1x9777)"/><circle cx="670.5" cy="678.4" r="3.4" fill="#00e5ff" fill-opacity="0.61" filter="url(#glowr1x9777)"/><circle cx="712.9" cy="635.5" r="2.2" fill="#00e5ff" fill-opacity="0.74" filter="url(#glowr1x9777)"/><circle cx="623.0" cy="265.7" r="1.5" fill="#00e5ff" fill-opacity="0.55" filter="url(#glowr1x9777)"/><circle cx="436.1" cy="333.4" r="4.2" fill="#00e5ff" fill-opacity="0.59" filter="url(#glowr1x9777)"/><circle cx="322.4" cy="716.3" r="1.2" fill="#00e5ff" fill-opacity="0.88" filter="url(#glowr1x9777)"/><circle cx="518.8" cy="513.4" r="1.5" fill="#00e5ff" fill-opacity="0.68" filter="url(#glowr1x9777)"/><circle cx="708.8" cy="494.2" r="0.9" fill="#00e5ff" fill-opacity="0.64" filter="url(#glowr1x9777)"/><circle cx="399.9" cy="621.3" r="1.4" fill="#00e5ff" fill-opacity="0.44" filter="url(#glowr1x9777)"/><circle cx="532.6" cy="567.3" r="3.5" fill="#00e5ff" fill-opacity="0.52" filter="url(#glowr1x9777)"/><circle cx="584.3" cy="308.8" r="4.1" fill="#00e5ff" fill-opacity="0.46" filter="url(#glowr1x9777)"/><path d="M537.7,257.9 Q525.1,449.9 452.3,694.1" stroke="#00e5ff" stroke-opacity="0.47" stroke-width="1.1" fill="none" filter="url(#glowr1x9777)"/><path d="M704.8,186.1 Q708.4,558.7 483.9,881.3" stroke="#00e5ff" stroke-opacity="0.61" stroke-width="1.3" fill="none" filter="url(#glowr1x9777)"/><path d="M553.4,368.4 Q570.3,552.6 493.4,740.2" stroke="#00e5ff" stroke-opacity="0.66" stroke-width="2.3" fill="none" filter="url(#glowr1x9777)"/><path d="M321.4,364.5 Q345.7,622.8 454.1,859.9" stroke="#00e5ff" stroke-opacity="0.39" stroke-width="1.2" fill="none" filter="url(#glowr1x9777)"/><path d="M534.1,355.3 Q497.7,478.2 340.5,604.4" stroke="#00e5ff" stroke-opacity="0.62" stroke-width="1.7" fill="none" filter="url(#glowr1x9777)"/><polygon points="399.2,663.7 488.2,662.9 482.4,878.3 385.7,876.5" fill="url(#suitr1x9777)" stroke="#ff2040" stroke-width="2.2" filter="url(#skr1x9777) url(#metalr1x9777)"/><polygon points="397.7,663.3 490.1,663.8 482.0,878.3 386.7,877.9" fill="url(#carbonr1x9777)"/><polygon points="392.3,724.4 492.3,722.5 484.7,788.4 384.5,787.5" fill="url(#bevelr1x9777)" fill-opacity=".5" stroke="#ff2040" stroke-width="1.4" filter="url(#skr1x9777)"/><polygon points="510.8,663.7 600.0,660.7 611.9,878.5 519.7,876.5" fill="url(#suitr1x9777)" stroke="#ff2040" stroke-width="2.2" filter="url(#skr1x9777) url(#metalr1x9777)"/><polygon points="510.9,661.8 600.4,664.2 613.5,877.9 519.0,876.8" fill="url(#carbonr1x9777)"/><polygon points="505.4,723.9 608.3,725.2 615.5,787.6 517.2,788.8" fill="url(#bevelr1x9777)" fill-opacity=".5" stroke="#ff2040" stroke-width="1.4" filter="url(#skr1x9777)"/><rect x="393.4" y="837.8" width="100.3" height="24.7" fill="url(#bevelr1x9777)" stroke="#ff2040" stroke-width="1" filter="url(#skr1x9777)"/><rect x="505.8"  y="838.5" width="100.3" height="24.7" fill="url(#bevelr1x9777)" stroke="#ff2040" stroke-width="1" filter="url(#skr1x9777)"/><polygon points="369.9,877.2 498.1,877.2 504.6,922.3 363.4,920.4" fill="#cc0020" stroke="#ff2040" stroke-width="2" filter="url(#skr1x9777)"/><polygon points="503.4,878.1 630.7,876.2 636.9,923.0 495.8,921.3" fill="#cc0020" stroke="#ff2040" stroke-width="2" filter="url(#skr1x9777)"/><polygon points="305.3,631.7 694.8,633.2 637.5,683.3 360.7,681.2" fill="#ff2040" fill-opacity=".52" stroke="#ff2040" stroke-width="2" filter="url(#skr1x9777)"/><rect x="462.4" y="637.2" width="72.0" height="42.0" fill="url(#bevelr1x9777)" stroke="#ff2040" stroke-width="1.4" filter="url(#glowr1x9777)"/><rect x="485.5" y="641.1" width="28.0" height="22.0" rx="1" fill="rgba(255,255,255,.48)"/><polygon points="152.4,465.1 236.1,467.2 259.2,735.4 127.0,734.0" fill="url(#suitr1x9777)" stroke="#ff2040" stroke-width="2.2" filter="url(#skr1x9777) url(#metalr1x9777)"/><polygon points="173.4,433.0 251.9,432.6 244.4,509.5 158.2,510.1" fill="url(#bevelr1x9777)" fill-opacity=".72" stroke="#ff2040" stroke-width="2.2" filter="url(#skr1x9777)"/><polygon points="161.7,620.3 244.8,621.4 239.8,660.0 165.3,660.5" fill="#ff2040" fill-opacity=".42" stroke="#ff2040" stroke-width="1" filter="url(#skr1x9777)"/><polygon points="766.6,467.5 846.9,467.7 871.7,734.9 743.5,736.8" fill="url(#suitr1x9777)" stroke="#ff2040" stroke-width="2.2" filter="url(#skr1x9777) url(#metalr1x9777)"/><polygon points="746.5,432.8 827.2,432.7 841.5,510.0 755.4,512.1" fill="url(#bevelr1x9777)" fill-opacity=".72" stroke="#ff2040" stroke-width="2.2" filter="url(#skr1x9777)"/><polygon points="756.1,622.4 837.1,621.2 835.5,661.0 760.4,659.5" fill="#ff2040" fill-opacity=".42" stroke="#ff2040" stroke-width="1" filter="url(#skr1x9777)"/><rect x="119.1"  y="699.1" width="135.3" height="85.0" rx="4" fill="url(#bevelr1x9777)" stroke="#ff2040" stroke-width="1.8" filter="url(#skr1x9777)"/><rect x="748.6"   y="699.5" width="135.3" height="85.0" rx="4" fill="url(#bevelr1x9777)" stroke="#ff2040" stroke-width="1.8" filter="url(#skr1x9777)"/><line x1="150.4" y1="703.3" x2="149.2" y2="783.0" stroke="#ff2040" stroke-opacity=".38" stroke-width="1"/><line x1="778.0" y1="703.6" x2="777.2" y2="784.3" stroke="#ff2040" stroke-opacity=".38" stroke-width="1"/><line x1="183.9" y1="702.6" x2="183.9" y2="785.2" stroke="#ff2040" stroke-opacity=".38" stroke-width="1"/><line x1="810.5" y1="701.2" x2="812.0" y2="783.6" stroke="#ff2040" stroke-opacity=".38" stroke-width="1"/><line x1="214.9" y1="700.2" x2="217.0" y2="784.1" stroke="#ff2040" stroke-opacity=".38" stroke-width="1"/><line x1="844.2" y1="700.7" x2="843.9" y2="784.8" stroke="#ff2040" stroke-opacity=".38" stroke-width="1"/><polygon points="233.6,418.6 766.3,417.8 721.9,664.0 278.1,663.3" fill="url(#suitr1x9777)" stroke="#ff2040" stroke-width="2.6" filter="url(#skr1x9777) url(#metalr1x9777)"/><polygon points="235.2,417.7 765.8,419.1 722.1,662.2 277.5,661.5" fill="url(#carbonr1x9777)"/><polygon points="367.3,416.7 633.4,416.5 611.5,516.7 387.3,515.6" fill="url(#suitHir1x9777)"/><line x1="362.3" y1="470.2" x2="636.1" y2="472.7" stroke="#ff2040" stroke-opacity=".52" stroke-width="1.3" filter="url(#skr1x9777)"/><line x1="399.3" y1="550.0" x2="599.6" y2="549.9" stroke="#ff2040" stroke-opacity=".52" stroke-width="1.3" filter="url(#skr1x9777)"/><line x1="266.4" y1="490.8" x2="318.4" y2="492.6" stroke="#ff2040" stroke-opacity=".62" stroke-width="1.8"/><line x1="681.2" y1="489.4" x2="734.7" y2="489.4" stroke="#ff2040" stroke-opacity=".62" stroke-width="1.8"/><line x1="265.9" y1="523.9" x2="321.2" y2="522.9" stroke="#ff2040" stroke-opacity=".62" stroke-width="1.8"/><line x1="681.4" y1="522.9" x2="734.0" y2="522.8" stroke="#ff2040" stroke-opacity=".62" stroke-width="1.8"/><line x1="266.4" y1="555.9" x2="318.1" y2="554.9" stroke="#ff2040" stroke-opacity=".62" stroke-width="1.8"/><line x1="679.8" y1="553.1" x2="734.5" y2="555.0" stroke="#ff2040" stroke-opacity=".62" stroke-width="1.8"/><line x1="267.4" y1="587.3" x2="319.3" y2="587.4" stroke="#ff2040" stroke-opacity=".62" stroke-width="1.8"/><line x1="678.8" y1="587.1" x2="733.6" y2="585.9" stroke="#ff2040" stroke-opacity=".62" stroke-width="1.8"/><g filter="url(#glowr1x9777)"><circle cx="498.3" cy="501.6" r="31.3" fill="#ff2040" stroke="#1e0600" stroke-width="1.4" filter="url(#skr1x9777)"/><circle cx="489.2" cy="497.4" r="7.0" fill="#1e0600"/><circle cx="510.3" cy="497.1" r="7.0" fill="#1e0600"/><rect x="484.1" y="521.9" width="9.3" height="17.4" rx="1" fill="#ff2040" stroke="#1e0600" stroke-width=".6"/><rect x="497.1" y="523.2" width="9.3" height="17.4" rx="1" fill="#ff2040" stroke="#1e0600" stroke-width=".6"/><rect x="506.0" y="523.3" width="9.3" height="17.4" rx="1" fill="#ff2040" stroke="#1e0600" stroke-width=".6"/></g><g><rect x="831.52379519796" y="421.9711212400347" width="148.0" height="82.0" rx="5" fill="url(#gunmetalr1x9777)" stroke="#ff2040" stroke-width="2" filter="url(#wmr1x9777)"/><rect x="831.2276410920173" y="422.7548499711789" width="148.0" height="82.0" rx="5" fill="url(#carbonr1x9777)"/><rect x="838.8527400350757" y="402.4127254088409" width="90.0" height="22.0" rx="3" fill="url(#barrelr1x9777)" stroke="#ff2040" stroke-width="1" filter="url(#wmr1x9777)"/><circle cx="878.7084464177117" cy="413.9759727116674" r="15.0" fill="#ff2040" opacity=".8" filter="url(#glowr1x9777)"/><circle cx="876.1317841807939" cy="414.61564442645755" r="6.0" fill="rgba(255,255,255,.9)"/><rect x="945.6062185893394" y="453.7364472473971" width="78.0" height="36.0" rx="5" fill="url(#barrelr1x9777)" stroke="#ff2040" stroke-width="1.2" filter="url(#wmr1x9777)"/><circle cx="1019.9603343017027" cy="470.3232866538688" r="18.0" fill="#ff2040" filter="url(#glowr1x9777)" opacity=".88"/><circle cx="1020.289506507069" cy="471.64198968941344" r="7.0" fill="#ffffff"/><rect x="872.8335295388102" y="501.44770557926967" width="44.0" height="42.0" rx="3" fill="url(#gunmetalr1x9777)" stroke="#ff2040" stroke-width="1" filter="url(#wmr1x9777)"/><rect x="833.5306862406061" y="422.049211445637" width="90.0" height="10.0" rx="2" fill="rgba(255,255,255,.22)"/><line x1="856.9565841746145" y1="485.59878751486536" x2="856.2780019009114" y2="518.9265558587387" stroke="#ff2040" stroke-opacity=".5" stroke-width="1.2"/><line x1="875.354784607105" y1="485.8802848103456" x2="872.4763918293268" y2="520.8059818101116" stroke="#ff2040" stroke-opacity=".5" stroke-width="1.2"/><line x1="889.9498481485621" y1="486.13242117408663" x2="889.5975657369569" y2="519.8019276160746" stroke="#ff2040" stroke-opacity=".5" stroke-width="1.2"/></g><rect x="451.51973339924587" y="557.9277154995128" width="100.0"  height="56.0" fill="#cc0020" stroke="#ff2040" stroke-width="2.2" filter="url(#skr1x9777)"/><rect x="424.01921708965676" y="574.5715410401114" width="152.0" height="26.0" fill="url(#bevelr1x9777)" fill-opacity=".65" stroke="#ff2040" stroke-width="1.2" filter="url(#skr1x9777)"/><polygon points="308.3,380.7 350.1,295.3 499.3,277.1 649.6,295.9 692.8,380.4 667.3,502.0 500.6,563.3 331.2,503.7" fill="url(#suitr1x9777)" stroke="#ff2040" stroke-width="2.8" filter="url(#skr1x9777) url(#metalr1x9777)"/><polygon points="307.9,380.2 351.3,293.1 500.6,277.4 650.5,294.2 690.6,380.5 667.9,503.4 499.6,566.9 331.0,505.1" fill="url(#carbonr1x9777)"/><polygon points="380.3,301.5 501.2,287.3 620.0,301.3 608.3,381.9 394.2,379.9" fill="url(#suitHir1x9777)"/><polygon points="381.6,381.4 365.2,425.7 431.8,504.5 500.7,527.0 568.2,502.2 633.0,427.4 620.2,379.1" fill="#1e0600" fill-opacity=".88" stroke="#ff2040" stroke-width="1.8" filter="url(#skr1x9777)"/><polygon points="381.0,412.1 477.1,411.4 486.0,439.0 390.4,440.5" fill="#ff2040" filter="url(#glowr1x9777)"/><polygon points="521.6,410.7 617.5,411.5 610.4,439.3 515.8,440.8" fill="#ff2040" filter="url(#glowr1x9777)"/><ellipse cx="430.9" cy="425.7" rx="38.4"  ry="8.2" fill="#ffffff" opacity=".88"/><ellipse cx="569.1" cy="425.7" rx="38.4"  ry="8.2" fill="#ffffff" opacity=".88"/><line x1="483.12361919354646" y1="413.1974117271602" x2="514.5202108851075" y2="413.88412116291" stroke="#ff2040" stroke-opacity=".52" stroke-width="2"/><line x1="486.13551256233825" y1="437.44745716955515" x2="516.8434323078394" y2="437.4610294941813" stroke="#ff2040" stroke-opacity=".52" stroke-width="2"/><line x1="500.8345708940178" y1="453.8037179093808" x2="501.21022268533704" y2="482.2026982075535" stroke="#ff2040" stroke-opacity=".58" stroke-width="2.2" filter="url(#skr1x9777)"/><line x1="452.569622478243" y1="490.49412196818736" x2="453.89476115077736" y2="518.2023492773063" stroke="#ff2040" stroke-opacity=".52" stroke-width="1.5" filter="url(#skr1x9777)"/><line x1="476.23305183243" y1="490.22465346064416" x2="475.5237079405598" y2="521.4368575789034" stroke="#ff2040" stroke-opacity=".52" stroke-width="1.5" filter="url(#skr1x9777)"/><line x1="499.1436236921698" y1="492.88084884760895" x2="499.38817156692966" y2="518.551478014607" stroke="#ff2040" stroke-opacity=".52" stroke-width="1.5" filter="url(#skr1x9777)"/><line x1="521.4781060494109" y1="491.378457725048" x2="523.5170485641435" y2="520.1865511934272" stroke="#ff2040" stroke-opacity=".52" stroke-width="1.5" filter="url(#skr1x9777)"/><line x1="546.4523989255727" y1="493.0459867150522" x2="546.7638003680111" y2="519.7884090694599" stroke="#ff2040" stroke-opacity=".52" stroke-width="1.5" filter="url(#skr1x9777)"/><polygon points="432.9,503.9 565.4,504.6 555.2,556.1 447.5,557.2" fill="#cc0020" fill-opacity=".72" stroke="#ff2040" stroke-width="1.3" filter="url(#skr1x9777)"/><path d="M388.98556760359554 327.8411295994185 Q332.5753785702027 215.7725055763498 381.60300015848134 142.15042594186963" stroke="#ff2040" stroke-width="5" fill="none" stroke-linecap="round" filter="url(#skr1x9777)"/><path d="M389.6754959122836 326.1051068114117 Q330.0168290753476 216.83541850699112 381.25875841522594 139.0773305874318" stroke="rgba(255,255,255,.25)" stroke-width="1.5" fill="none" stroke-linecap="round"/><path d="M611.2751698710397 326.9915102681145 Q668.4709865088016 217.91011103829368 617.6504645844549 141.393050998915" stroke="#ff2040" stroke-width="5" fill="none" stroke-linecap="round" filter="url(#skr1x9777)"/><path d="M612.6797033871896 328.06036317357797 Q669.8517683290318 216.60102008180692 619.3746314797178 139.072028202191" stroke="rgba(255,255,255,.25)" stroke-width="1.5" fill="none" stroke-linecap="round"/><text x="30.0"  y="975.0" font-family="monospace" font-weight="bold" font-size="22.0" fill="rgba(255,255,255,.22)">#0001</text><text x="500.0"   y="975.0" text-anchor="middle" font-family="monospace" font-weight="bold" font-size="22.0" fill="#ff2040" fill-opacity=".48">CRIMSON RANGER</text><text x="970.0" y="975.0" text-anchor="end"    font-family="monospace" font-weight="bold" font-size="22.0" fill="#ff2040" fill-opacity=".32">MECH RANGERS</text></svg>