<svg xmlns="http://www.w3.org/2000/svg" viewBox="0 0 1000 1000" width="1000" height="1000" shape-rendering="geometricPrecision"><defs>

  <!-- Scene gradients -->
  <radialGradient id="bgr1x9817" cx="50%" cy="42%" r="72%">
    <stop offset="0%"   stop-color="#1a2814"/>
    <stop offset="100%" stop-color="#0d1520"/>
  </radialGradient>
  <linearGradient id="suitr1x9817" x1="8%" y1="0%" x2="92%" y2="100%">
    <stop offset="0%"   stop-color="#00ff60" stop-opacity=".95"/>
    <stop offset="45%"  stop-color="#00441e"/>
    <stop offset="100%" stop-color="#0d1520"/>
  </linearGradient>
  <linearGradient id="suitHir1x9817" x1="0%" y1="0%" x2="0%" y2="100%">
    <stop offset="0%"   stop-color="rgba(255,255,255,.28)"/>
    <stop offset="60%"  stop-color="rgba(255,255,255,.04)"/>
    <stop offset="100%" stop-color="rgba(255,255,255,0)"/>
  </linearGradient>
  <!-- Bevel: bright top, dark bottom for armour panels -->
  <linearGradient id="bevelr1x9817" x1="0%" y1="0%" x2="0%" y2="100%">
    <stop offset="0%"   stop-color="rgba(255,255,255,.55)"/>
    <stop offset="30%"  stop-color="#00ff60"/>
    <stop offset="70%"  stop-color="#00441e"/>
    <stop offset="100%" stop-color="rgba(0,0,0,.5)"/>
  </linearGradient>

  <!-- Weapon: cold steel blade sweep -->
  <linearGradient id="blader1x9817" x1="0%" y1="0%" x2="100%" y2="0%">
    <stop offset="0%"   stop-color="#0e0e20"/>
    <stop offset="16%"  stop-color="#3e3e58"/>
    <stop offset="34%"  stop-color="#c8c8e0"/>
    <stop offset="50%"  stop-color="#f5f5ff"/>
    <stop offset="66%"  stop-color="#b8b8d0"/>
    <stop offset="84%"  stop-color="#2e2e48"/>
    <stop offset="100%" stop-color="#08080e"/>
  </linearGradient>
  <!-- Blade tip brightening -->
  <linearGradient id="bladeTipr1x9817" x1="0%" y1="100%" x2="0%" y2="0%">
    <stop offset="0%"   stop-color="rgba(255,255,255,0)"/>
    <stop offset="55%"  stop-color="rgba(255,255,255,.1)"/>
    <stop offset="100%" stop-color="rgba(255,255,255,.55)"/>
  </linearGradient>
  <!-- Gunmetal anodised — blaster body -->
  <linearGradient id="gunmetalr1x9817" x1="0%" y1="0%" x2="0%" y2="100%">
    <stop offset="0%"   stop-color="#46465e"/>
    <stop offset="18%"  stop-color="#828296"/>
    <stop offset="42%"  stop-color="#26263a"/>
    <stop offset="72%"  stop-color="#16162a"/>
    <stop offset="100%" stop-color="#0c0c18"/>
  </linearGradient>
  <!-- Brushed steel tube — barrel/rod -->
  <linearGradient id="barrelr1x9817" x1="0%" y1="0%" x2="100%" y2="0%">
    <stop offset="0%"   stop-color="#0a0a14"/>
    <stop offset="24%"  stop-color="#585875"/>
    <stop offset="50%"  stop-color="#a8a8c8"/>
    <stop offset="76%"  stop-color="#383852"/>
    <stop offset="100%" stop-color="#0a0a14"/>
  </linearGradient>
  <!-- Chrome rod — lance shaft -->
  <linearGradient id="chromer1x9817" x1="0%" y1="0%" x2="100%" y2="0%">
    <stop offset="0%"   stop-color="#0c0c18"/>
    <stop offset="20%"  stop-color="#686888"/>
    <stop offset="44%"  stop-color="#e0e0f0"/>
    <stop offset="56%"  stop-color="#c0c0d8"/>
    <stop offset="80%"  stop-color="#28283e"/>
    <stop offset="100%" stop-color="#0c0c18"/>
  </linearGradient>
  <!-- Titanium plate — shield face -->
  <linearGradient id="titaniumr1x9817" x1="0%" y1="0%" x2="100%" y2="100%">
    <stop offset="0%"   stop-color="#585878"/>
    <stop offset="28%"  stop-color="#00ff60" stop-opacity=".88"/>
    <stop offset="55%"  stop-color="#00441e"/>
    <stop offset="80%"  stop-color="#181828"/>
    <stop offset="100%" stop-color="#0a0a18"/>
  </linearGradient>
  <!-- Artillery black-chrome — cannon body -->
  <linearGradient id="artilleryr1x9817" x1="0%" y1="0%" x2="0%" y2="100%">
    <stop offset="0%"   stop-color="#383850"/>
    <stop offset="14%"  stop-color="#78789a"/>
    <stop offset="36%"  stop-color="#202034"/>
    <stop offset="65%"  stop-color="#14141e"/>
    <stop offset="100%" stop-color="#0a0a12"/>
  </linearGradient>
  <!-- Energy orb — staff -->
  <radialGradient id="orbr1x9817" cx="35%" cy="35%" r="65%">
    <stop offset="0%"   stop-color="rgba(255,255,255,.9)"/>
    <stop offset="30%"  stop-color="#00ff60"/>
    <stop offset="68%"  stop-color="#00441e"/>
    <stop offset="100%" stop-color="rgba(0,0,0,.6)"/>
  </radialGradient>
  <!-- Knuckle plate chrome -->
  <linearGradient id="knuckler1x9817" x1="0%" y1="0%" x2="0%" y2="100%">
    <stop offset="0%"   stop-color="#888aaa"/>
    <stop offset="32%"  stop-color="#00ff60" stop-opacity=".8"/>
    <stop offset="62%"  stop-color="#1a1a2c"/>
    <stop offset="100%" stop-color="#0a0a14"/>
  </linearGradient>

  <!-- Carbon fibre weave texture overlay -->
  <pattern id="carbonr1x9817" width="6" height="6" patternUnits="userSpaceOnUse">
    <rect width="6" height="6" fill="rgba(0,0,0,.08)"/>
    <rect x="0" y="0" width="3" height="3" fill="rgba(255,255,255,.022)"/>
    <rect x="3" y="3" width="3" height="3" fill="rgba(255,255,255,.022)"/>
    <line x1="0" y1="0" x2="3" y2="3" stroke="rgba(255,255,255,.038)" stroke-width=".5"/>
    <line x1="3" y1="0" x2="6" y2="3" stroke="rgba(0,0,0,.055)"       stroke-width=".5"/>
    <line x1="0" y1="3" x2="3" y2="6" stroke="rgba(0,0,0,.055)"       stroke-width=".5"/>
    <line x1="3" y1="3" x2="6" y2="6" stroke="rgba(255,255,255,.038)" stroke-width=".5"/>
  </pattern>

  <!-- Specular metal sheen on armour panels -->
  <filter id="metalr1x9817" x="-5%" y="-5%" width="110%" height="110%">
    <feSpecularLighting surfaceScale="4" specularConstant="1.8"
        specularExponent="42" lighting-color="#ffffff" result="spec">
      <feDistantLight elevation="52" azimuth="38"/>
    </feSpecularLighting>
    <feComposite in="spec" in2="SourceGraphic" operator="in" result="sm"/>
    <feComposite in="SourceGraphic" in2="sm" operator="arithmetic" k1="0" k2="1" k3="0.55" k4="0"/>
  </filter>

  <!-- Sharper specular for weapons — heavier glare -->
  <filter id="wmr1x9817" x="-8%" y="-8%" width="116%" height="116%">
    <feSpecularLighting surfaceScale="6" specularConstant="2.4"
        specularExponent="65" lighting-color="#ffffff" result="spec">
      <feDistantLight elevation="44" azimuth="28"/>
    </feSpecularLighting>
    <feComposite in="spec" in2="SourceGraphic" operator="in" result="sm"/>
    <feComposite in="SourceGraphic" in2="sm" operator="arithmetic" k1="0" k2="1" k3="0.78" k4="0"/>
  </filter>

  <!-- Sketch wobble -->
  <filter id="skr1x9817" x="-8%" y="-8%" width="116%" height="116%">
    <feTurbulence type="fractalNoise" baseFrequency="0.038"
        numOctaves="3" seed="47" result="noise"/>
    <feDisplacementMap in="SourceGraphic" in2="noise" scale="2.6"
        xChannelSelector="R" yChannelSelector="G" result="w"/>
    <feComposite in="w" in2="SourceGraphic" operator="atop"/>
  </filter>

  <!-- Glow: sharp accent -->
  <filter id="glowr1x9817" x="-20%" y="-20%" width="140%" height="140%">
    <feGaussianBlur stdDeviation="3.5" result="b"/>
    <feColorMatrix in="b" type="matrix"
        values="0 0 0 0 1  0 0 0 0 1  0 0 0 0 1  0 0 0 1.8 0" result="boost"/>
    <feMerge><feMergeNode in="boost"/><feMergeNode in="SourceGraphic"/></feMerge>
  </filter>

  <!-- Bloom: wide soft -->
  <filter id="bloomr1x9817" x="-40%" y="-40%" width="180%" height="180%">
    <feGaussianBlur stdDeviation="11" result="b"/>
    <feMerge><feMergeNode in="b"/><feMergeNode in="SourceGraphic"/></feMerge>
  </filter>

  </defs><rect width="1000" height="1000" fill="url(#bgr1x9817)"/><ellipse cx="500.0" cy="892.0" rx="350.0" ry="65.0" fill="rgba(0,0,0,.7)" filter="url(#bloomr1x9817)"/><ellipse cx="500.0" cy="889.0" rx="220.0" ry="34.0" fill="rgba(0,0,0,.45)"/><ellipse cx="500.0" cy="520.0" rx="320.0" ry="480.0" fill="#00ffcc" fill-opacity=".042" filter="url(#bloomr1x9817)"/><circle cx="253.5" cy="740.8" r="2.9" fill="#00ffcc" fill-opacity="0.79" filter="url(#glowr1x9817)"/><circle cx="279.9" cy="404.3" r="3.5" fill="#00ffcc" fill-opacity="0.52" filter="url(#glowr1x9817)"/><circle cx="625.6" cy="587.6" r="3.7" fill="#00ffcc" fill-opacity="0.64" filter="url(#glowr1x9817)"/><circle cx="553.1" cy="699.6" r="3.0" fill="#00ffcc" fill-opacity="0.53" filter="url(#glowr1x9817)"/><circle cx="490.8" cy="686.2" r="0.9" fill="#00ffcc" fill-opacity="0.72" filter="url(#glowr1x9817)"/><circle cx="400.6" cy="384.9" r="1.6" fill="#00ffcc" fill-opacity="0.65" filter="url(#glowr1x9817)"/><circle cx="297.4" cy="317.4" r="2.2" fill="#00ffcc" fill-opacity="0.65" filter="url(#glowr1x9817)"/><circle cx="335.8" cy="258.9" r="2.5" fill="#00ffcc" fill-opacity="0.61" filter="url(#glowr1x9817)"/><circle cx="383.0" cy="623.4" r="1.1" fill="#00ffcc" fill-opacity="0.58" filter="url(#glowr1x9817)"/><circle cx="520.2" cy="660.6" r="3.1" fill="#00ffcc" fill-opacity="0.53" filter="url(#glowr1x9817)"/><circle cx="280.2" cy="459.4" r="3.6" fill="#00ffcc" fill-opacity="0.65" filter="url(#glowr1x9817)"/><circle cx="566.5" cy="336.7" r="2.0" fill="#00ffcc" fill-opacity="0.61" filter="url(#glowr1x9817)"/><circle cx="368.1" cy="204.1" r="2.9" fill="#00ffcc" fill-opacity="0.74" filter="url(#glowr1x9817)"/><circle cx="465.3" cy="316.4" r="3.2" fill="#00ffcc" fill-opacity="0.74" filter="url(#glowr1x9817)"/><path d="M313.0,255.7 Q293.3,468.0 604.8,695.0" stroke="#00ffcc" stroke-opacity="0.74" stroke-width="0.7" fill="none" filter="url(#glowr1x9817)"/><path d="M703.6,152.1 Q711.1,469.9 427.4,800.4" stroke="#00ffcc" stroke-opacity="0.53" stroke-width="1.5" fill="none" filter="url(#glowr1x9817)"/><path d="M405.1,274.7 Q448.1,569.4 559.4,825.2" stroke="#00ffcc" stroke-opacity="0.74" stroke-width="2.5" fill="none" filter="url(#glowr1x9817)"/><path d="M541.1,279.7 Q576.7,578.6 343.9,874.6" stroke="#00ffcc" stroke-opacity="0.46" stroke-width="2.9" fill="none" filter="url(#glowr1x9817)"/><path d="M334.2,157.5 Q352.9,541.4 336.2,888.2" stroke="#00ffcc" stroke-opacity="0.66" stroke-width="1.9" fill="none" filter="url(#glowr1x9817)"/><polygon points="399.1,664.3 489.6,663.6 478.9,878.5 386.7,876.8" fill="url(#suitr1x9817)" stroke="#00ff60" stroke-width="2.2" filter="url(#skr1x9817) url(#metalr1x9817)"/><polygon points="398.7,662.2 487.8,664.0 479.2,876.8 386.7,878.6" fill="url(#carbonr1x9817)"/><polygon points="392.9,722.9 494.2,725.2 484.2,789.9 383.6,788.5" fill="url(#bevelr1x9817)" fill-opacity=".5" stroke="#00ff60" stroke-width="1.4" filter="url(#skr1x9817)"/><polygon points="510.6,662.7 600.6,662.9 614.2,875.8 520.3,877.9" fill="url(#suitr1x9817)" stroke="#00ff60" stroke-width="2.2" filter="url(#skr1x9817) url(#metalr1x9817)"/><polygon points="510.4,661.0 599.8,664.0 613.5,876.3 518.0,878.2" fill="url(#carbonr1x9817)"/><polygon points="506.0,722.9 607.4,722.6 617.3,788.6 516.6,788.5" fill="url(#bevelr1x9817)" fill-opacity=".5" stroke="#00ff60" stroke-width="1.4" filter="url(#skr1x9817)"/><rect x="391.0" y="838.4" width="100.3" height="24.7" fill="url(#bevelr1x9817)" stroke="#00ff60" stroke-width="1" filter="url(#skr1x9817)"/><rect x="505.4"  y="837.2" width="100.3" height="24.7" fill="url(#bevelr1x9817)" stroke="#00ff60" stroke-width="1" filter="url(#skr1x9817)"/><polygon points="370.2,876.6 497.7,877.8 504.1,921.7 364.5,921.7" fill="#00441e" stroke="#00ff60" stroke-width="2" filter="url(#skr1x9817)"/><polygon points="502.1,877.6 628.5,878.7 638.7,921.3 495.4,920.3" fill="#00441e" stroke="#00ff60" stroke-width="2" filter="url(#skr1x9817)"/><polygon points="303.6,632.3 694.5,633.0 639.3,682.2 362.1,681.1" fill="#00ff60" fill-opacity=".52" stroke="#00ff60" stroke-width="2" filter="url(#skr1x9817)"/><rect x="465.2" y="639.2" width="72.0" height="42.0" fill="url(#bevelr1x9817)" stroke="#00ff60" stroke-width="1.4" filter="url(#glowr1x9817)"/><rect x="487.8" y="639.8" width="28.0" height="22.0" rx="1" fill="rgba(255,255,255,.48)"/><polygon points="152.7,467.1 235.7,468.2 259.0,735.7 128.8,735.1" fill="url(#suitr1x9817)" stroke="#00ff60" stroke-width="2.2" filter="url(#skr1x9817) url(#metalr1x9817)"/><polygon points="173.5,432.0 251.5,432.3 244.6,511.2 159.7,509.5" fill="url(#bevelr1x9817)" fill-opacity=".72" stroke="#00ff60" stroke-width="2.2" filter="url(#skr1x9817)"/><polygon points="159.8,623.5 243.0,621.1 239.9,662.7 165.1,659.5" fill="#00ff60" fill-opacity=".42" stroke="#00ff60" stroke-width="1" filter="url(#skr1x9817)"/><polygon points="764.3,465.9 845.9,468.0 872.2,735.4 740.2,734.7" fill="url(#suitr1x9817)" stroke="#00ff60" stroke-width="2.2" filter="url(#skr1x9817) url(#metalr1x9817)"/><polygon points="746.7,431.9 827.1,433.3 839.1,511.3 756.1,511.2" fill="url(#bevelr1x9817)" fill-opacity=".72" stroke="#00ff60" stroke-width="2.2" filter="url(#skr1x9817)"/><polygon points="755.7,622.5 840.4,623.5 835.6,660.2 760.3,661.8" fill="#00ff60" fill-opacity=".42" stroke="#00ff60" stroke-width="1" filter="url(#skr1x9817)"/><rect x="121.4"  y="698.9" width="135.3" height="85.0" rx="4" fill="url(#bevelr1x9817)" stroke="#00ff60" stroke-width="1.8" filter="url(#skr1x9817)"/><rect x="749.0"   y="699.5" width="135.3" height="85.0" rx="4" fill="url(#bevelr1x9817)" stroke="#00ff60" stroke-width="1.8" filter="url(#skr1x9817)"/><line x1="150.6" y1="702.9" x2="148.6" y2="782.2" stroke="#00ff60" stroke-opacity=".38" stroke-width="1"/><line x1="777.1" y1="701.6" x2="778.3" y2="785.5" stroke="#00ff60" stroke-opacity=".38" stroke-width="1"/><line x1="182.2" y1="702.8" x2="181.7" y2="782.2" stroke="#00ff60" stroke-opacity=".38" stroke-width="1"/><line x1="812.4" y1="700.3" x2="811.8" y2="782.2" stroke="#00ff60" stroke-opacity=".38" stroke-width="1"/><line x1="217.0" y1="703.2" x2="214.3" y2="782.1" stroke="#00ff60" stroke-opacity=".38" stroke-width="1"/><line x1="845.2" y1="703.5" x2="844.7" y2="784.9" stroke="#00ff60" stroke-opacity=".38" stroke-width="1"/><polygon points="236.2,416.3 764.6,418.5 723.1,661.1 275.8,661.7" fill="url(#suitr1x9817)" stroke="#00ff60" stroke-width="2.6" filter="url(#skr1x9817) url(#metalr1x9817)"/><polygon points="236.4,418.8 764.2,416.1 723.5,663.4 278.7,661.7" fill="url(#carbonr1x9817)"/><polygon points="366.1,416.9 634.2,417.2 611.9,515.5 388.4,516.5" fill="url(#suitHir1x9817)"/><line x1="362.2" y1="470.1" x2="636.8" y2="470.2" stroke="#00ff60" stroke-opacity=".52" stroke-width="1.3" filter="url(#skr1x9817)"/><line x1="398.5" y1="551.4" x2="602.5" y2="550.3" stroke="#00ff60" stroke-opacity=".52" stroke-width="1.3" filter="url(#skr1x9817)"/><line x1="267.5" y1="492.0" x2="320.1" y2="492.3" stroke="#00ff60" stroke-opacity=".62" stroke-width="1.8"/><line x1="680.9" y1="490.2" x2="732.6" y2="490.8" stroke="#00ff60" stroke-opacity=".62" stroke-width="1.8"/><line x1="266.9" y1="524.1" x2="321.2" y2="521.7" stroke="#00ff60" stroke-opacity=".62" stroke-width="1.8"/><line x1="680.5" y1="521.5" x2="731.8" y2="521.8" stroke="#00ff60" stroke-opacity=".62" stroke-width="1.8"/><line x1="267.2" y1="555.4" x2="318.9" y2="554.9" stroke="#00ff60" stroke-opacity=".62" stroke-width="1.8"/><line x1="681.9" y1="555.9" x2="734.9" y2="552.9" stroke="#00ff60" stroke-opacity=".62" stroke-width="1.8"/><line x1="268.5" y1="587.8" x2="321.1" y2="586.4" stroke="#00ff60" stroke-opacity=".62" stroke-width="1.8"/><line x1="680.9" y1="587.2" x2="733.2" y2="585.0" stroke="#00ff60" stroke-opacity=".62" stroke-width="1.8"/><g filter="url(#glowr1x9817)"><polygon points="499.8,453.8 516.7,489.0 556.4,493.0 525.7,518.4 533.0,557.6 500.4,536.9 465.4,557.3 476.9,519.5 444.0,493.6 484.9,489.0 " fill="#00ff60" stroke="#0d1520" stroke-width="1.4" filter="url(#skr1x9817)"/><polygon points="499.8,453.8 516.7,489.0 556.4,493.0 525.7,518.4 533.0,557.6 500.4,536.9 465.4,557.3 476.9,519.5 444.0,493.6 484.9,489.0 " fill="url(#suitHir1x9817)" opacity=".45"/></g><g><line x1="102.4557695752382" y1="831.2699315896258" x2="100.78815323490646" y2="112.12597766220567" stroke="url(#chromer1x9817)" stroke-width="22.0" stroke-linecap="round" filter="url(#wmr1x9817)"/><line x1="99.33423438895491" y1="811.5282825838774" x2="96.36389102781189" y2="131.45855878684668" stroke="rgba(255,255,255,.35)" stroke-width="4.0" stroke-linecap="round"/><rect x="85.70242615588006" y="619.811456421949" width="32.0" height="18.0" fill="url(#bevelr1x9817)" stroke="#00ff60" stroke-width=".8" filter="url(#wmr1x9817)"/><rect x="84.48691904185337" y="439.8261619069613" width="32.0" height="18.0" fill="url(#bevelr1x9817)" stroke="#00ff60" stroke-width=".8" filter="url(#wmr1x9817)"/><rect x="85.00584763767195" y="259.73117250734936" width="32.0" height="18.0" fill="url(#bevelr1x9817)" stroke="#00ff60" stroke-width=".8" filter="url(#wmr1x9817)"/><circle cx="103.71276582418007" cy="112.0785504912026" r="58.0" fill="rgba(0,0,0,.52)" stroke="#00ff60" stroke-width="2.2" filter="url(#wmr1x9817)"/><circle cx="100.89321440313009" cy="112.29613584540782" r="46.0" fill="url(#orbr1x9817)" filter="url(#bloomr1x9817)"/><circle cx="103.54590501127761" cy="111.44217020813373" r="20.0" fill="#00ffcc" filter="url(#glowr1x9817)"/><circle cx="102.45928313745182" cy="109.92844728892666" r="66.0" fill="none" stroke="#00ff60" stroke-opacity=".4" stroke-width="1.3" stroke-dasharray="4,4"/><ellipse cx="101.5895660441741" cy="109.78121726959941" rx="66.0" ry="30.0" fill="none" stroke="#00ff60" stroke-opacity=".24" stroke-width="1" stroke-dasharray="3,5" transform="rotate(60,102.2,111.4)"/></g><rect x="448.54888798389584" y="558.1333868324756" width="100.0"  height="56.0" fill="#00441e" stroke="#00ff60" stroke-width="2.2" filter="url(#skr1x9817)"/><rect x="425.79964480679484" y="573.8228087328374" width="152.0" height="26.0" fill="url(#bevelr1x9817)" fill-opacity=".65" stroke="#00ff60" stroke-width="1.2" filter="url(#skr1x9817)"/><polygon points="309.4,380.3 349.8,294.3 499.0,276.3 650.0,292.8 693.7,379.1 670.4,502.9 500.1,565.5 331.3,502.9" fill="url(#suitr1x9817)" stroke="#00ff60" stroke-width="2.8" filter="url(#skr1x9817) url(#metalr1x9817)"/><polygon points="309.4,380.7 351.4,295.9 501.5,277.2 651.5,294.6 690.4,379.7 667.7,503.5 500.7,565.2 329.8,504.0" fill="url(#carbonr1x9817)"/><polygon points="379.2,304.4 501.0,287.9 617.4,302.9 608.5,380.0 392.7,379.8" fill="url(#suitHir1x9817)"/><polygon points="379.9,381.0 366.0,427.3 432.0,503.5 501.3,526.6 566.0,502.5 635.9,426.1 620.7,381.6" fill="#0d1520" fill-opacity=".88" stroke="#00ff60" stroke-width="1.8" filter="url(#skr1x9817)"/><polygon points="381.2,411.4 477.8,411.2 483.5,440.6 388.9,438.7" fill="#00ff60" filter="url(#glowr1x9817)"/><polygon points="522.5,410.8 620.2,410.8 610.5,440.3 515.6,441.2" fill="#00ff60" filter="url(#glowr1x9817)"/><ellipse cx="430.9" cy="425.7" rx="38.4"  ry="8.2" fill="#ffffff" opacity=".88"/><ellipse cx="569.1" cy="425.7" rx="38.4"  ry="8.2" fill="#ffffff" opacity=".88"/><line x1="484.20665266565976" y1="412.44538948265836" x2="515.0029500599392" y2="412.9077716038562" stroke="#00ff60" stroke-opacity=".52" stroke-width="2"/><line x1="483.4953814649582" y1="439.04979136632755" x2="514.4144984790497" y2="437.99906725008043" stroke="#00ff60" stroke-opacity=".52" stroke-width="2"/><line x1="499.8718917328864" y1="454.87538062240924" x2="499.77992896558715" y2="483.6437196577899" stroke="#00ff60" stroke-opacity=".58" stroke-width="2.2" filter="url(#skr1x9817)"/><line x1="453.0945129482821" y1="492.1469141181558" x2="453.68478743301705" y2="518.4642218627966" stroke="#00ff60" stroke-opacity=".52" stroke-width="1.5" filter="url(#skr1x9817)"/><line x1="475.26454965587703" y1="489.7359919155016" x2="476.5470878813788" y2="521.7402253887616" stroke="#00ff60" stroke-opacity=".52" stroke-width="1.5" filter="url(#skr1x9817)"/><line x1="498.8606565126218" y1="490.0619235027581" x2="499.72191497562454" y2="520.6728339234367" stroke="#00ff60" stroke-opacity=".52" stroke-width="1.5" filter="url(#skr1x9817)"/><line x1="521.2899868835323" y1="489.98180254409084" x2="524.814319177214" y2="519.3069102805108" stroke="#00ff60" stroke-opacity=".52" stroke-width="1.5" filter="url(#skr1x9817)"/><line x1="547.6926108023339" y1="491.5101909984834" x2="546.8908571890742" y2="519.937873432599" stroke="#00ff60" stroke-opacity=".52" stroke-width="1.5" filter="url(#skr1x9817)"/><polygon points="433.7,504.6 568.6,502.8 552.6,556.3 446.4,555.5" fill="#00441e" fill-opacity=".72" stroke="#00ff60" stroke-width="1.3" filter="url(#skr1x9817)"/><path d="M387.3509933600761 325.5429181538522 Q332.8313520610891 214.90877999402582 380.60596651662144 141.84290252523496" stroke="#00ff60" stroke-width="5" fill="none" stroke-linecap="round" filter="url(#skr1x9817)"/><path d="M387.5875256107747 328.17855905229226 Q332.65989509779956 216.89663312500343 379.57408624975017 139.43716081064196" stroke="rgba(255,255,255,.25)" stroke-width="1.5" fill="none" stroke-linecap="round"/><path d="M609.7592385910824 328.07527618529275 Q669.4029987060837 215.93256353605537 619.7873858308046 140.2991133891046" stroke="#00ff60" stroke-width="5" fill="none" stroke-linecap="round" filter="url(#skr1x9817)"/><path d="M610.149899715595 326.8698454574682 Q668.9415448907205 216.74746128190307 619.1255895394459 142.43731514466927" stroke="rgba(255,255,255,.25)" stroke-width="1.5" fill="none" stroke-linecap="round"/><text x="30.0"  y="975.0" font-family="monospace" font-weight="bold" font-size="22.0" fill="rgba(255,255,255,.22)">#0001</text><text x="500.0"   y="975.0" text-anchor="middle" font-family="monospace" font-weight="bold" font-size="22.0" fill="#00ff60" fill-opacity=".48">VIPER RANGER</text><text x="970.0" y="975.0" text-anchor="end"    font-family="monospace" font-weight="bold" font-size="22.0" fill="#00ff60" fill-opacity=".32">MECH RANGERS</text></svg>