<svg xmlns="http://www.w3.org/2000/svg" viewBox="0 0 1000 1000" width="1000" height="1000" shape-rendering="geometricPrecision"><defs>

  <!-- Scene gradients -->
  <radialGradient id="bgr1x9862" cx="50%" cy="42%" r="72%">
    <stop offset="0%"   stop-color="#001422"/>
    <stop offset="100%" stop-color="#000a14"/>
  </radialGradient>
  <linearGradient id="suitr1x9862" x1="8%" y1="0%" x2="92%" y2="100%">
    <stop offset="0%"   stop-color="#4444ff" stop-opacity=".95"/>
    <stop offset="45%"  stop-color="#141428"/>
    <stop offset="100%" stop-color="#000a14"/>
  </linearGradient>
  <linearGradient id="suitHir1x9862" x1="0%" y1="0%" x2="0%" y2="100%">
    <stop offset="0%"   stop-color="rgba(255,255,255,.28)"/>
    <stop offset="60%"  stop-color="rgba(255,255,255,.04)"/>
    <stop offset="100%" stop-color="rgba(255,255,255,0)"/>
  </linearGradient>
  <!-- Bevel: bright top, dark bottom for armour panels -->
  <linearGradient id="bevelr1x9862" x1="0%" y1="0%" x2="0%" y2="100%">
    <stop offset="0%"   stop-color="rgba(255,255,255,.55)"/>
    <stop offset="30%"  stop-color="#4444ff"/>
    <stop offset="70%"  stop-color="#141428"/>
    <stop offset="100%" stop-color="rgba(0,0,0,.5)"/>
  </linearGradient>

  <!-- Weapon: cold steel blade sweep -->
  <linearGradient id="blader1x9862" x1="0%" y1="0%" x2="100%" y2="0%">
    <stop offset="0%"   stop-color="#0e0e20"/>
    <stop offset="16%"  stop-color="#3e3e58"/>
    <stop offset="34%"  stop-color="#c8c8e0"/>
    <stop offset="50%"  stop-color="#f5f5ff"/>
    <stop offset="66%"  stop-color="#b8b8d0"/>
    <stop offset="84%"  stop-color="#2e2e48"/>
    <stop offset="100%" stop-color="#08080e"/>
  </linearGradient>
  <!-- Blade tip brightening -->
  <linearGradient id="bladeTipr1x9862" x1="0%" y1="100%" x2="0%" y2="0%">
    <stop offset="0%"   stop-color="rgba(255,255,255,0)"/>
    <stop offset="55%"  stop-color="rgba(255,255,255,.1)"/>
    <stop offset="100%" stop-color="rgba(255,255,255,.55)"/>
  </linearGradient>
  <!-- Gunmetal anodised — blaster body -->
  <linearGradient id="gunmetalr1x9862" x1="0%" y1="0%" x2="0%" y2="100%">
    <stop offset="0%"   stop-color="#46465e"/>
    <stop offset="18%"  stop-color="#828296"/>
    <stop offset="42%"  stop-color="#26263a"/>
    <stop offset="72%"  stop-color="#16162a"/>
    <stop offset="100%" stop-color="#0c0c18"/>
  </linearGradient>
  <!-- Brushed steel tube — barrel/rod -->
  <linearGradient id="barrelr1x9862" x1="0%" y1="0%" x2="100%" y2="0%">
    <stop offset="0%"   stop-color="#0a0a14"/>
    <stop offset="24%"  stop-color="#585875"/>
    <stop offset="50%"  stop-color="#a8a8c8"/>
    <stop offset="76%"  stop-color="#383852"/>
    <stop offset="100%" stop-color="#0a0a14"/>
  </linearGradient>
  <!-- Chrome rod — lance shaft -->
  <linearGradient id="chromer1x9862" x1="0%" y1="0%" x2="100%" y2="0%">
    <stop offset="0%"   stop-color="#0c0c18"/>
    <stop offset="20%"  stop-color="#686888"/>
    <stop offset="44%"  stop-color="#e0e0f0"/>
    <stop offset="56%"  stop-color="#c0c0d8"/>
    <stop offset="80%"  stop-color="#28283e"/>
    <stop offset="100%" stop-color="#0c0c18"/>
  </linearGradient>
  <!-- Titanium plate — shield face -->
  <linearGradient id="titaniumr1x9862" x1="0%" y1="0%" x2="100%" y2="100%">
    <stop offset="0%"   stop-color="#585878"/>
    <stop offset="28%"  stop-color="#4444ff" stop-opacity=".88"/>
    <stop offset="55%"  stop-color="#141428"/>
    <stop offset="80%"  stop-color="#181828"/>
    <stop offset="100%" stop-color="#0a0a18"/>
  </linearGradient>
  <!-- Artillery black-chrome — cannon body -->
  <linearGradient id="artilleryr1x9862" x1="0%" y1="0%" x2="0%" y2="100%">
    <stop offset="0%"   stop-color="#383850"/>
    <stop offset="14%"  stop-color="#78789a"/>
    <stop offset="36%"  stop-color="#202034"/>
    <stop offset="65%"  stop-color="#14141e"/>
    <stop offset="100%" stop-color="#0a0a12"/>
  </linearGradient>
  <!-- Energy orb — staff -->
  <radialGradient id="orbr1x9862" cx="35%" cy="35%" r="65%">
    <stop offset="0%"   stop-color="rgba(255,255,255,.9)"/>
    <stop offset="30%"  stop-color="#4444ff"/>
    <stop offset="68%"  stop-color="#141428"/>
    <stop offset="100%" stop-color="rgba(0,0,0,.6)"/>
  </radialGradient>
  <!-- Knuckle plate chrome -->
  <linearGradient id="knuckler1x9862" x1="0%" y1="0%" x2="0%" y2="100%">
    <stop offset="0%"   stop-color="#888aaa"/>
    <stop offset="32%"  stop-color="#4444ff" stop-opacity=".8"/>
    <stop offset="62%"  stop-color="#1a1a2c"/>
    <stop offset="100%" stop-color="#0a0a14"/>
  </linearGradient>

  <!-- Carbon fibre weave texture overlay -->
  <pattern id="carbonr1x9862" width="6" height="6" patternUnits="userSpaceOnUse">
    <rect width="6" height="6" fill="rgba(0,0,0,.08)"/>
    <rect x="0" y="0" width="3" height="3" fill="rgba(255,255,255,.022)"/>
    <rect x="3" y="3" width="3" height="3" fill="rgba(255,255,255,.022)"/>
    <line x1="0" y1="0" x2="3" y2="3" stroke="rgba(255,255,255,.038)" stroke-width=".5"/>
    <line x1="3" y1="0" x2="6" y2="3" stroke="rgba(0,0,0,.055)"       stroke-width=".5"/>
    <line x1="0" y1="3" x2="3" y2="6" stroke="rgba(0,0,0,.055)"       stroke-width=".5"/>
    <line x1="3" y1="3" x2="6" y2="6" stroke="rgba(255,255,255,.038)" stroke-width=".5"/>
  </pattern>

  <!-- Specular metal sheen on armour panels -->
  <filter id="metalr1x9862" x="-5%" y="-5%" width="110%" height="110%">
    <feSpecularLighting surfaceScale="4" specularConstant="1.8"
        specularExponent="42" lighting-color="#ffffff" result="spec">
      <feDistantLight elevation="52" azimuth="38"/>
    </feSpecularLighting>
    <feComposite in="spec" in2="SourceGraphic" operator="in" result="sm"/>
    <feComposite in="SourceGraphic" in2="sm" operator="arithmetic" k1="0" k2="1" k3="0.55" k4="0"/>
  </filter>

  <!-- Sharper specular for weapons — heavier glare -->
  <filter id="wmr1x9862" x="-8%" y="-8%" width="116%" height="116%">
    <feSpecularLighting surfaceScale="6" specularConstant="2.4"
        specularExponent="65" lighting-color="#ffffff" result="spec">
      <feDistantLight elevation="44" azimuth="28"/>
    </feSpecularLighting>
    <feComposite in="spec" in2="SourceGraphic" operator="in" result="sm"/>
    <feComposite in="SourceGraphic" in2="sm" operator="arithmetic" k1="0" k2="1" k3="0.78" k4="0"/>
  </filter>

  <!-- Sketch wobble -->
  <filter id="skr1x9862" x="-8%" y="-8%" width="116%" height="116%">
    <feTurbulence type="fractalNoise" baseFrequency="0.038"
        numOctaves="3" seed="32" result="noise"/>
    <feDisplacementMap in="SourceGraphic" in2="noise" scale="2.6"
        xChannelSelector="R" yChannelSelector="G" result="w"/>
    <feComposite in="w" in2="SourceGraphic" operator="atop"/>
  </filter>

  <!-- Glow: sharp accent -->
  <filter id="glowr1x9862" x="-20%" y="-20%" width="140%" height="140%">
    <feGaussianBlur stdDeviation="3.5" result="b"/>
    <feColorMatrix in="b" type="matrix"
        values="0 0 0 0 1  0 0 0 0 1  0 0 0 0 1  0 0 0 1.8 0" result="boost"/>
    <feMerge><feMergeNode in="boost"/><feMergeNode in="SourceGraphic"/></feMerge>
  </filter>

  <!-- Bloom: wide soft -->
  <filter id="bloomr1x9862" x="-40%" y="-40%" width="180%" height="180%">
    <feGaussianBlur stdDeviation="11" result="b"/>
    <feMerge><feMergeNode in="b"/><feMergeNode in="SourceGraphic"/></feMerge>
  </filter>

  </defs><rect width="1000" height="1000" fill="url(#bgr1x9862)"/><line x1="0" y1="-0.8" x2="1000" y2="1.4" stroke="#4444ff" stroke-opacity=".055" stroke-width="1.2"/><line x1="-0.6" y1="0" x2="-0.8" y2="1000" stroke="#4444ff" stroke-opacity=".055" stroke-width="1.2"/><line x1="0" y1="97.7" x2="1000" y2="102.4" stroke="#4444ff" stroke-opacity=".055" stroke-width="1.2"/><line x1="101.7" y1="0" x2="102.3" y2="1000" stroke="#4444ff" stroke-opacity=".055" stroke-width="1.2"/><line x1="0" y1="197.1" x2="1000" y2="200.0" stroke="#4444ff" stroke-opacity=".055" stroke-width="1.2"/><line x1="201.6" y1="0" x2="201.4" y2="1000" stroke="#4444ff" stroke-opacity=".055" stroke-width="1.2"/><line x1="0" y1="300.4" x2="1000" y2="299.6" stroke="#4444ff" stroke-opacity=".055" stroke-width="1.2"/><line x1="302.6" y1="0" x2="299.5" y2="1000" stroke="#4444ff" stroke-opacity=".055" stroke-width="1.2"/><line x1="0" y1="398.7" x2="1000" y2="398.8" stroke="#4444ff" stroke-opacity=".055" stroke-width="1.2"/><line x1="398.5" y1="0" x2="400.5" y2="1000" stroke="#4444ff" stroke-opacity=".055" stroke-width="1.2"/><line x1="0" y1="502.2" x2="1000" y2="499.9" stroke="#4444ff" stroke-opacity=".055" stroke-width="1.2"/><line x1="501.7" y1="0" x2="501.2" y2="1000" stroke="#4444ff" stroke-opacity=".055" stroke-width="1.2"/><line x1="0" y1="601.2" x2="1000" y2="602.1" stroke="#4444ff" stroke-opacity=".055" stroke-width="1.2"/><line x1="600.6" y1="0" x2="597.5" y2="1000" stroke="#4444ff" stroke-opacity=".055" stroke-width="1.2"/><line x1="0" y1="697.8" x2="1000" y2="701.6" stroke="#4444ff" stroke-opacity=".055" stroke-width="1.2"/><line x1="699.4" y1="0" x2="697.1" y2="1000" stroke="#4444ff" stroke-opacity=".055" stroke-width="1.2"/><line x1="0" y1="800.4" x2="1000" y2="802.1" stroke="#4444ff" stroke-opacity=".055" stroke-width="1.2"/><line x1="801.6" y1="0" x2="797.0" y2="1000" stroke="#4444ff" stroke-opacity=".055" stroke-width="1.2"/><line x1="0" y1="900.3" x2="1000" y2="900.0" stroke="#4444ff" stroke-opacity=".055" stroke-width="1.2"/><line x1="897.5" y1="0" x2="901.4" y2="1000" stroke="#4444ff" stroke-opacity=".055" stroke-width="1.2"/><path d="M80,30 L30,30 L30,80" stroke="#4444ff" stroke-opacity=".45" stroke-width="2" fill="none" filter="url(#glowr1x9862)"/><path d="M920,30 L970,30 L970,80" stroke="#4444ff" stroke-opacity=".45" stroke-width="2" fill="none" filter="url(#glowr1x9862)"/><path d="M30,920 L30,970 L80,970" stroke="#4444ff" stroke-opacity=".45" stroke-width="2" fill="none" filter="url(#glowr1x9862)"/><path d="M970,920 L970,970 L920,970" stroke="#4444ff" stroke-opacity=".45" stroke-width="2" fill="none" filter="url(#glowr1x9862)"/><ellipse cx="500.0" cy="892.0" rx="350.0" ry="65.0" fill="rgba(0,0,0,.7)" filter="url(#bloomr1x9862)"/><ellipse cx="500.0" cy="889.0" rx="220.0" ry="34.0" fill="rgba(0,0,0,.45)"/><ellipse cx="500.0" cy="520.0" rx="320.0" ry="480.0" fill="#6600ff" fill-opacity=".042" filter="url(#bloomr1x9862)"/><circle cx="654.5" cy="366.2" r="3.8" fill="#6600ff" fill-opacity="0.79" filter="url(#glowr1x9862)"/><circle cx="421.7" cy="670.1" r="2.1" fill="#6600ff" fill-opacity="0.50" filter="url(#glowr1x9862)"/><circle cx="366.6" cy="521.6" r="2.1" fill="#6600ff" fill-opacity="0.41" filter="url(#glowr1x9862)"/><circle cx="693.1" cy="342.8" r="2.1" fill="#6600ff" fill-opacity="0.87" filter="url(#glowr1x9862)"/><circle cx="394.3" cy="521.8" r="3.8" fill="#6600ff" fill-opacity="0.70" filter="url(#glowr1x9862)"/><circle cx="417.2" cy="506.8" r="3.1" fill="#6600ff" fill-opacity="0.74" filter="url(#glowr1x9862)"/><circle cx="285.6" cy="724.6" r="0.8" fill="#6600ff" fill-opacity="0.48" filter="url(#glowr1x9862)"/><circle cx="645.1" cy="652.3" r="3.7" fill="#6600ff" fill-opacity="0.55" filter="url(#glowr1x9862)"/><circle cx="320.9" cy="311.4" r="1.7" fill="#6600ff" fill-opacity="0.55" filter="url(#glowr1x9862)"/><circle cx="573.6" cy="407.2" r="4.3" fill="#6600ff" fill-opacity="0.62" filter="url(#glowr1x9862)"/><circle cx="716.0" cy="767.7" r="3.8" fill="#6600ff" fill-opacity="0.57" filter="url(#glowr1x9862)"/><circle cx="320.0" cy="455.5" r="3.7" fill="#6600ff" fill-opacity="0.69" filter="url(#glowr1x9862)"/><circle cx="353.7" cy="610.8" r="1.7" fill="#6600ff" fill-opacity="0.51" filter="url(#glowr1x9862)"/><circle cx="661.9" cy="465.2" r="2.2" fill="#6600ff" fill-opacity="0.62" filter="url(#glowr1x9862)"/><polygon points="398.4,662.5 489.8,661.3 482.3,876.3 386.3,878.7" fill="url(#suitr1x9862)" stroke="#4444ff" stroke-width="2.2" filter="url(#skr1x9862) url(#metalr1x9862)"/><polygon points="398.2,664.2 490.7,664.2 481.9,879.0 388.1,878.4" fill="url(#carbonr1x9862)"/><polygon points="393.1,722.9 493.7,723.8 482.7,789.9 385.4,787.9" fill="url(#bevelr1x9862)" fill-opacity=".5" stroke="#4444ff" stroke-width="1.4" filter="url(#skr1x9862)"/><polygon points="509.7,663.9 602.2,662.0 613.5,877.3 519.6,878.1" fill="url(#suitr1x9862)" stroke="#4444ff" stroke-width="2.2" filter="url(#skr1x9862) url(#metalr1x9862)"/><polygon points="510.3,662.9 602.2,661.6 613.3,875.9 517.9,877.5" fill="url(#carbonr1x9862)"/><polygon points="508.3,725.5 606.2,723.2 614.6,786.9 515.3,788.2" fill="url(#bevelr1x9862)" fill-opacity=".5" stroke="#4444ff" stroke-width="1.4" filter="url(#skr1x9862)"/><rect x="393.1" y="840.6" width="100.3" height="24.7" fill="url(#bevelr1x9862)" stroke="#4444ff" stroke-width="1" filter="url(#skr1x9862)"/><rect x="506.1"  y="840.1" width="100.3" height="24.7" fill="url(#bevelr1x9862)" stroke="#4444ff" stroke-width="1" filter="url(#skr1x9862)"/><polygon points="368.3,877.7 495.5,878.5 502.0,922.5 363.6,921.5" fill="#141428" stroke="#4444ff" stroke-width="2" filter="url(#skr1x9862)"/><polygon points="505.0,875.7 630.8,878.5 638.2,921.0 498.0,920.6" fill="#141428" stroke="#4444ff" stroke-width="2" filter="url(#skr1x9862)"/><polygon points="303.5,633.4 694.7,631.3 636.5,683.7 362.0,683.7" fill="#4444ff" fill-opacity=".52" stroke="#4444ff" stroke-width="2" filter="url(#skr1x9862)"/><rect x="465.1" y="636.6" width="72.0" height="42.0" fill="url(#bevelr1x9862)" stroke="#4444ff" stroke-width="1.4" filter="url(#glowr1x9862)"/><rect x="485.8" y="642.0" width="28.0" height="22.0" rx="1" fill="rgba(255,255,255,.48)"/><polygon points="154.5,468.3 236.7,466.5 257.8,733.6 126.9,736.2" fill="url(#suitr1x9862)" stroke="#4444ff" stroke-width="2.2" filter="url(#skr1x9862) url(#metalr1x9862)"/><polygon points="174.5,432.8 252.0,431.1 243.9,509.4 158.5,510.7" fill="url(#bevelr1x9862)" fill-opacity=".72" stroke="#4444ff" stroke-width="2.2" filter="url(#skr1x9862)"/><polygon points="163.0,623.5 242.7,621.0 237.7,661.0 166.3,660.5" fill="#4444ff" fill-opacity=".42" stroke="#4444ff" stroke-width="1" filter="url(#skr1x9862)"/><polygon points="765.4,466.5 845.6,466.5 872.0,735.1 741.4,734.6" fill="url(#suitr1x9862)" stroke="#4444ff" stroke-width="2.2" filter="url(#skr1x9862) url(#metalr1x9862)"/><polygon points="746.9,433.1 826.1,432.4 841.1,510.3 756.3,510.2" fill="url(#bevelr1x9862)" fill-opacity=".72" stroke="#4444ff" stroke-width="2.2" filter="url(#skr1x9862)"/><polygon points="758.3,621.9 840.5,621.0 833.9,660.8 759.5,660.3" fill="#4444ff" fill-opacity=".42" stroke="#4444ff" stroke-width="1" filter="url(#skr1x9862)"/><rect x="121.7"  y="699.9" width="135.3" height="85.0" rx="4" fill="url(#bevelr1x9862)" stroke="#4444ff" stroke-width="1.8" filter="url(#skr1x9862)"/><rect x="747.6"   y="698.5" width="135.3" height="85.0" rx="4" fill="url(#bevelr1x9862)" stroke="#4444ff" stroke-width="1.8" filter="url(#skr1x9862)"/><line x1="149.9" y1="701.0" x2="151.0" y2="785.4" stroke="#4444ff" stroke-opacity=".38" stroke-width="1"/><line x1="778.8" y1="702.1" x2="777.6" y2="784.4" stroke="#4444ff" stroke-opacity=".38" stroke-width="1"/><line x1="181.6" y1="700.7" x2="181.6" y2="784.6" stroke="#4444ff" stroke-opacity=".38" stroke-width="1"/><line x1="811.8" y1="703.3" x2="810.5" y2="782.4" stroke="#4444ff" stroke-opacity=".38" stroke-width="1"/><line x1="216.3" y1="702.6" x2="213.5" y2="783.9" stroke="#4444ff" stroke-opacity=".38" stroke-width="1"/><line x1="842.1" y1="703.4" x2="842.3" y2="783.4" stroke="#4444ff" stroke-opacity=".38" stroke-width="1"/><polygon points="234.7,419.0 765.4,416.6 721.9,663.3 277.0,664.3" fill="url(#suitr1x9862)" stroke="#4444ff" stroke-width="2.6" filter="url(#skr1x9862) url(#metalr1x9862)"/><polygon points="235.8,417.1 765.1,416.7 723.1,663.9 276.8,660.7" fill="url(#carbonr1x9862)"/><polygon points="366.8,416.2 633.4,419.3 613.0,515.9 389.7,515.7" fill="url(#suitHir1x9862)"/><line x1="363.5" y1="472.7" x2="637.8" y2="472.5" stroke="#4444ff" stroke-opacity=".52" stroke-width="1.3" filter="url(#skr1x9862)"/><line x1="399.3" y1="551.0" x2="599.9" y2="548.5" stroke="#4444ff" stroke-opacity=".52" stroke-width="1.3" filter="url(#skr1x9862)"/><line x1="265.7" y1="491.5" x2="318.4" y2="491.0" stroke="#4444ff" stroke-opacity=".62" stroke-width="1.8"/><line x1="680.5" y1="492.2" x2="733.9" y2="490.4" stroke="#4444ff" stroke-opacity=".62" stroke-width="1.8"/><line x1="265.8" y1="522.3" x2="320.2" y2="523.4" stroke="#4444ff" stroke-opacity=".62" stroke-width="1.8"/><line x1="679.8" y1="522.0" x2="733.7" y2="523.2" stroke="#4444ff" stroke-opacity=".62" stroke-width="1.8"/><line x1="266.1" y1="554.8" x2="320.9" y2="553.6" stroke="#4444ff" stroke-opacity=".62" stroke-width="1.8"/><line x1="679.4" y1="556.3" x2="732.9" y2="556.5" stroke="#4444ff" stroke-opacity=".62" stroke-width="1.8"/><line x1="265.7" y1="587.3" x2="319.6" y2="586.4" stroke="#4444ff" stroke-opacity=".62" stroke-width="1.8"/><line x1="678.7" y1="587.2" x2="734.9" y2="585.7" stroke="#4444ff" stroke-opacity=".62" stroke-width="1.8"/><g filter="url(#glowr1x9862)"><ellipse cx="501.7" cy="510.3" rx="42.9" ry="23.2" fill="#000a14" stroke="#4444ff" stroke-width="1.6" filter="url(#skr1x9862)"/><circle cx="501.5" cy="510.8" r="15.1" fill="#4444ff"/><circle cx="497.5" cy="505.5" r="5.8" fill="#000a14"/><ellipse cx="496.3" cy="505.4" rx="3.5" ry="2.3" fill="rgba(255,255,255,.7)"/></g><g><polygon points="70.4,693.1 104.0,691.4 38.1,270.3" fill="url(#blader1x9862)" stroke="#4444ff" stroke-width="1.8" filter="url(#wmr1x9862)"/><line x1="97.2" y1="691.4" x2="46.2" y2="271.4" stroke="rgba(255,255,255,.58)" stroke-width="1.3"/><polygon points="114.4,691.8 148.3,691.2 190.6,271.6" fill="url(#blader1x9862)" stroke="#4444ff" stroke-width="1.8" filter="url(#wmr1x9862)"/><line x1="146.2" y1="691.4" x2="184.2" y2="271.4" stroke="rgba(255,255,255,.58)" stroke-width="1.3"/><rect x="66.90986265487966" y="680.4543434943072" width="96.0" height="26.0" rx="2" fill="url(#bevelr1x9862)" stroke="#4444ff" stroke-width="1.4" filter="url(#wmr1x9862)"/></g><rect x="451.2795768513344" y="557.9627597521991" width="100.0"  height="56.0" fill="#141428" stroke="#4444ff" stroke-width="2.2" filter="url(#skr1x9862)"/><rect x="422.79191845757884" y="576.1141434638761" width="152.0" height="26.0" fill="url(#bevelr1x9862)" fill-opacity=".65" stroke="#4444ff" stroke-width="1.2" filter="url(#skr1x9862)"/><polygon points="308.4,380.9 350.8,294.4 498.7,278.9 650.8,296.1 691.0,379.6 669.3,503.8 499.3,566.7 331.1,502.1" fill="url(#suitr1x9862)" stroke="#4444ff" stroke-width="2.8" filter="url(#skr1x9862) url(#metalr1x9862)"/><polygon points="309.5,380.4 351.9,293.2 499.4,276.8 650.8,295.5 691.8,380.5 669.5,504.0 499.5,565.7 329.5,502.1" fill="url(#carbonr1x9862)"/><polygon points="381.0,304.0 501.8,287.8 620.0,301.3 609.0,380.9 393.6,382.1" fill="url(#suitHir1x9862)"/><polygon points="381.0,379.8 366.6,425.3 431.3,503.4 498.7,527.1 566.0,504.8 633.2,427.2 618.5,381.0" fill="#000a14" fill-opacity=".88" stroke="#4444ff" stroke-width="1.8" filter="url(#skr1x9862)"/><polygon points="382.3,412.8 477.0,412.2 485.6,438.6 389.6,439.6" fill="#4444ff" filter="url(#glowr1x9862)"/><polygon points="523.4,411.0 620.7,412.9 610.8,438.3 516.2,441.0" fill="#4444ff" filter="url(#glowr1x9862)"/><ellipse cx="430.9" cy="425.7" rx="38.4"  ry="8.2" fill="#ffffff" opacity=".88"/><ellipse cx="569.1" cy="425.7" rx="38.4"  ry="8.2" fill="#ffffff" opacity=".88"/><line x1="485.6696866616234" y1="413.55892726778984" x2="517.1064984679595" y2="411.94136533057315" stroke="#4444ff" stroke-opacity=".52" stroke-width="2"/><line x1="485.28362644841894" y1="439.74841027026997" x2="516.1155094565265" y2="438.7267561021261" stroke="#4444ff" stroke-opacity=".52" stroke-width="2"/><line x1="500.95439186114817" y1="455.47388698849824" x2="501.44853123398497" y2="484.49194011315706" stroke="#4444ff" stroke-opacity=".58" stroke-width="2.2" filter="url(#skr1x9862)"/><line x1="452.7677837491781" y1="492.4417269100435" x2="455.31520555259664" y2="520.4409762274474" stroke="#4444ff" stroke-opacity=".52" stroke-width="1.5" filter="url(#skr1x9862)"/><line x1="478.47655493630094" y1="492.0960964622907" x2="478.27406046701594" y2="520.7101118066348" stroke="#4444ff" stroke-opacity=".52" stroke-width="1.5" filter="url(#skr1x9862)"/><line x1="501.23774050027134" y1="492.53525150334457" x2="500.16773787429554" y2="518.3215404416435" stroke="#4444ff" stroke-opacity=".52" stroke-width="1.5" filter="url(#skr1x9862)"/><line x1="523.9442236820794" y1="492.57311452133575" x2="524.3861646657436" y2="521.1957530402578" stroke="#4444ff" stroke-opacity=".52" stroke-width="1.5" filter="url(#skr1x9862)"/><line x1="545.6429757259042" y1="490.04249383714046" x2="546.9716100292467" y2="520.7371013278141" stroke="#4444ff" stroke-opacity=".52" stroke-width="1.5" filter="url(#skr1x9862)"/><polygon points="432.8,503.5 566.6,502.0 552.3,557.2 444.8,558.7" fill="#141428" fill-opacity=".72" stroke="#4444ff" stroke-width="1.3" filter="url(#skr1x9862)"/><polygon points="316.9,303.6 362.0,304.2 338.0,195.9" fill="url(#bevelr1x9862)" fill-opacity=".95" stroke="#4444ff" stroke-width="1.6" filter="url(#skr1x9862) url(#glowr1x9862)"/><polygon points="395.8,303.9 443.2,303.4 418.2,207.2" fill="url(#bevelr1x9862)" fill-opacity=".95" stroke="#4444ff" stroke-width="1.6" filter="url(#skr1x9862) url(#glowr1x9862)"/><polygon points="476.1,304.8 521.5,304.3 498.6,221.6" fill="url(#bevelr1x9862)" fill-opacity=".95" stroke="#4444ff" stroke-width="1.6" filter="url(#skr1x9862) url(#glowr1x9862)"/><polygon points="557.2,306.3 602.4,303.4 581.9,207.5" fill="url(#bevelr1x9862)" fill-opacity=".95" stroke="#4444ff" stroke-width="1.6" filter="url(#skr1x9862) url(#glowr1x9862)"/><polygon points="636.5,304.5 685.8,304.0 659.9,196.4" fill="url(#bevelr1x9862)" fill-opacity=".95" stroke="#4444ff" stroke-width="1.6" filter="url(#skr1x9862) url(#glowr1x9862)"/><text x="30.0"  y="975.0" font-family="monospace" font-weight="bold" font-size="22.0" fill="rgba(255,255,255,.22)">#0001</text><text x="500.0"   y="975.0" text-anchor="middle" font-family="monospace" font-weight="bold" font-size="22.0" fill="#4444ff" fill-opacity=".48">OBSIDIAN RANGER</text><text x="970.0" y="975.0" text-anchor="end"    font-family="monospace" font-weight="bold" font-size="22.0" fill="#4444ff" fill-opacity=".32">MECH RANGERS</text></svg>