<svg xmlns="http://www.w3.org/2000/svg" viewBox="0 0 1000 1000" width="1000" height="1000" shape-rendering="geometricPrecision"><defs>

  <!-- Scene gradients -->
  <radialGradient id="bgr1x9889" cx="50%" cy="42%" r="72%">
    <stop offset="0%"   stop-color="#0a1420"/>
    <stop offset="100%" stop-color="#050d14"/>
  </radialGradient>
  <linearGradient id="suitr1x9889" x1="8%" y1="0%" x2="92%" y2="100%">
    <stop offset="0%"   stop-color="#ccccff" stop-opacity=".95"/>
    <stop offset="45%"  stop-color="#242438"/>
    <stop offset="100%" stop-color="#050d14"/>
  </linearGradient>
  <linearGradient id="suitHir1x9889" x1="0%" y1="0%" x2="0%" y2="100%">
    <stop offset="0%"   stop-color="rgba(255,255,255,.28)"/>
    <stop offset="60%"  stop-color="rgba(255,255,255,.04)"/>
    <stop offset="100%" stop-color="rgba(255,255,255,0)"/>
  </linearGradient>
  <!-- Bevel: bright top, dark bottom for armour panels -->
  <linearGradient id="bevelr1x9889" x1="0%" y1="0%" x2="0%" y2="100%">
    <stop offset="0%"   stop-color="rgba(255,255,255,.55)"/>
    <stop offset="30%"  stop-color="#ccccff"/>
    <stop offset="70%"  stop-color="#242438"/>
    <stop offset="100%" stop-color="rgba(0,0,0,.5)"/>
  </linearGradient>

  <!-- Weapon: cold steel blade sweep -->
  <linearGradient id="blader1x9889" x1="0%" y1="0%" x2="100%" y2="0%">
    <stop offset="0%"   stop-color="#0e0e20"/>
    <stop offset="16%"  stop-color="#3e3e58"/>
    <stop offset="34%"  stop-color="#c8c8e0"/>
    <stop offset="50%"  stop-color="#f5f5ff"/>
    <stop offset="66%"  stop-color="#b8b8d0"/>
    <stop offset="84%"  stop-color="#2e2e48"/>
    <stop offset="100%" stop-color="#08080e"/>
  </linearGradient>
  <!-- Blade tip brightening -->
  <linearGradient id="bladeTipr1x9889" x1="0%" y1="100%" x2="0%" y2="0%">
    <stop offset="0%"   stop-color="rgba(255,255,255,0)"/>
    <stop offset="55%"  stop-color="rgba(255,255,255,.1)"/>
    <stop offset="100%" stop-color="rgba(255,255,255,.55)"/>
  </linearGradient>
  <!-- Gunmetal anodised — blaster body -->
  <linearGradient id="gunmetalr1x9889" x1="0%" y1="0%" x2="0%" y2="100%">
    <stop offset="0%"   stop-color="#46465e"/>
    <stop offset="18%"  stop-color="#828296"/>
    <stop offset="42%"  stop-color="#26263a"/>
    <stop offset="72%"  stop-color="#16162a"/>
    <stop offset="100%" stop-color="#0c0c18"/>
  </linearGradient>
  <!-- Brushed steel tube — barrel/rod -->
  <linearGradient id="barrelr1x9889" x1="0%" y1="0%" x2="100%" y2="0%">
    <stop offset="0%"   stop-color="#0a0a14"/>
    <stop offset="24%"  stop-color="#585875"/>
    <stop offset="50%"  stop-color="#a8a8c8"/>
    <stop offset="76%"  stop-color="#383852"/>
    <stop offset="100%" stop-color="#0a0a14"/>
  </linearGradient>
  <!-- Chrome rod — lance shaft -->
  <linearGradient id="chromer1x9889" x1="0%" y1="0%" x2="100%" y2="0%">
    <stop offset="0%"   stop-color="#0c0c18"/>
    <stop offset="20%"  stop-color="#686888"/>
    <stop offset="44%"  stop-color="#e0e0f0"/>
    <stop offset="56%"  stop-color="#c0c0d8"/>
    <stop offset="80%"  stop-color="#28283e"/>
    <stop offset="100%" stop-color="#0c0c18"/>
  </linearGradient>
  <!-- Titanium plate — shield face -->
  <linearGradient id="titaniumr1x9889" x1="0%" y1="0%" x2="100%" y2="100%">
    <stop offset="0%"   stop-color="#585878"/>
    <stop offset="28%"  stop-color="#ccccff" stop-opacity=".88"/>
    <stop offset="55%"  stop-color="#242438"/>
    <stop offset="80%"  stop-color="#181828"/>
    <stop offset="100%" stop-color="#0a0a18"/>
  </linearGradient>
  <!-- Artillery black-chrome — cannon body -->
  <linearGradient id="artilleryr1x9889" x1="0%" y1="0%" x2="0%" y2="100%">
    <stop offset="0%"   stop-color="#383850"/>
    <stop offset="14%"  stop-color="#78789a"/>
    <stop offset="36%"  stop-color="#202034"/>
    <stop offset="65%"  stop-color="#14141e"/>
    <stop offset="100%" stop-color="#0a0a12"/>
  </linearGradient>
  <!-- Energy orb — staff -->
  <radialGradient id="orbr1x9889" cx="35%" cy="35%" r="65%">
    <stop offset="0%"   stop-color="rgba(255,255,255,.9)"/>
    <stop offset="30%"  stop-color="#ccccff"/>
    <stop offset="68%"  stop-color="#242438"/>
    <stop offset="100%" stop-color="rgba(0,0,0,.6)"/>
  </radialGradient>
  <!-- Knuckle plate chrome -->
  <linearGradient id="knuckler1x9889" x1="0%" y1="0%" x2="0%" y2="100%">
    <stop offset="0%"   stop-color="#888aaa"/>
    <stop offset="32%"  stop-color="#ccccff" stop-opacity=".8"/>
    <stop offset="62%"  stop-color="#1a1a2c"/>
    <stop offset="100%" stop-color="#0a0a14"/>
  </linearGradient>

  <!-- Carbon fibre weave texture overlay -->
  <pattern id="carbonr1x9889" width="6" height="6" patternUnits="userSpaceOnUse">
    <rect width="6" height="6" fill="rgba(0,0,0,.08)"/>
    <rect x="0" y="0" width="3" height="3" fill="rgba(255,255,255,.022)"/>
    <rect x="3" y="3" width="3" height="3" fill="rgba(255,255,255,.022)"/>
    <line x1="0" y1="0" x2="3" y2="3" stroke="rgba(255,255,255,.038)" stroke-width=".5"/>
    <line x1="3" y1="0" x2="6" y2="3" stroke="rgba(0,0,0,.055)"       stroke-width=".5"/>
    <line x1="0" y1="3" x2="3" y2="6" stroke="rgba(0,0,0,.055)"       stroke-width=".5"/>
    <line x1="3" y1="3" x2="6" y2="6" stroke="rgba(255,255,255,.038)" stroke-width=".5"/>
  </pattern>

  <!-- Specular metal sheen on armour panels -->
  <filter id="metalr1x9889" x="-5%" y="-5%" width="110%" height="110%">
    <feSpecularLighting surfaceScale="4" specularConstant="1.8"
        specularExponent="42" lighting-color="#ffffff" result="spec">
      <feDistantLight elevation="52" azimuth="38"/>
    </feSpecularLighting>
    <feComposite in="spec" in2="SourceGraphic" operator="in" result="sm"/>
    <feComposite in="SourceGraphic" in2="sm" operator="arithmetic" k1="0" k2="1" k3="0.55" k4="0"/>
  </filter>

  <!-- Sharper specular for weapons — heavier glare -->
  <filter id="wmr1x9889" x="-8%" y="-8%" width="116%" height="116%">
    <feSpecularLighting surfaceScale="6" specularConstant="2.4"
        specularExponent="65" lighting-color="#ffffff" result="spec">
      <feDistantLight elevation="44" azimuth="28"/>
    </feSpecularLighting>
    <feComposite in="spec" in2="SourceGraphic" operator="in" result="sm"/>
    <feComposite in="SourceGraphic" in2="sm" operator="arithmetic" k1="0" k2="1" k3="0.78" k4="0"/>
  </filter>

  <!-- Sketch wobble -->
  <filter id="skr1x9889" x="-8%" y="-8%" width="116%" height="116%">
    <feTurbulence type="fractalNoise" baseFrequency="0.038"
        numOctaves="3" seed="12" result="noise"/>
    <feDisplacementMap in="SourceGraphic" in2="noise" scale="2.6"
        xChannelSelector="R" yChannelSelector="G" result="w"/>
    <feComposite in="w" in2="SourceGraphic" operator="atop"/>
  </filter>

  <!-- Glow: sharp accent -->
  <filter id="glowr1x9889" x="-20%" y="-20%" width="140%" height="140%">
    <feGaussianBlur stdDeviation="3.5" result="b"/>
    <feColorMatrix in="b" type="matrix"
        values="0 0 0 0 1  0 0 0 0 1  0 0 0 0 1  0 0 0 1.8 0" result="boost"/>
    <feMerge><feMergeNode in="boost"/><feMergeNode in="SourceGraphic"/></feMerge>
  </filter>

  <!-- Bloom: wide soft -->
  <filter id="bloomr1x9889" x="-40%" y="-40%" width="180%" height="180%">
    <feGaussianBlur stdDeviation="11" result="b"/>
    <feMerge><feMergeNode in="b"/><feMergeNode in="SourceGraphic"/></feMerge>
  </filter>

  </defs><rect width="1000" height="1000" fill="url(#bgr1x9889)"/><polygon points="843.9744549524039,38.33714195061475 870.8622156810015,1.6138102328404784 877.2237057685852,37.01034412253648" fill="#ccccff" fill-opacity=".055" stroke="#ccccff" stroke-opacity=".1" stroke-width="1"/><polygon points="527.7957291156054,351.3046174123883 544.5381827028468,321.6330289449543 566.1327439248562,367.1299125207588" fill="#ccccff" fill-opacity=".055" stroke="#ccccff" stroke-opacity=".1" stroke-width="1"/><polygon points="526.704927184619,180.01917981542647 554.8945414815098,146.4028116343543 563.6865284694359,189.45595296565443" fill="#ccccff" fill-opacity=".055" stroke="#ccccff" stroke-opacity=".1" stroke-width="1"/><polygon points="200.53450073115528,98.5137880872935 234.01483935583383,77.7046275306493 239.6690691150725,103.50672730244696" fill="#ccccff" fill-opacity=".055" stroke="#ccccff" stroke-opacity=".1" stroke-width="1"/><polygon points="30.759554118849337,185.6514536216855 56.771476006135345,153.2093150615692 66.77781193796545,183.78036368172616" fill="#ccccff" fill-opacity=".055" stroke="#ccccff" stroke-opacity=".1" stroke-width="1"/><polygon points="404.1889986535534,123.85892684571445 422.119222602807,71.84266033396125 434.94743220321834,114.16523026302457" fill="#ccccff" fill-opacity=".055" stroke="#ccccff" stroke-opacity=".1" stroke-width="1"/><polygon points="631.6534402780235,389.33225769083947 648.5324371121824,343.1279773619026 674.0630330964923,394.0056265424937" fill="#ccccff" fill-opacity=".055" stroke="#ccccff" stroke-opacity=".1" stroke-width="1"/><polygon points="259.7779185883701,258.18887137342244 270.95630238577724,233.10258948989213 292.20522627979517,268.03398540243506" fill="#ccccff" fill-opacity=".055" stroke="#ccccff" stroke-opacity=".1" stroke-width="1"/><ellipse cx="500.0" cy="892.0" rx="350.0" ry="65.0" fill="rgba(0,0,0,.7)" filter="url(#bloomr1x9889)"/><ellipse cx="500.0" cy="889.0" rx="220.0" ry="34.0" fill="rgba(0,0,0,.45)"/><polygon points="400.1,662.9 488.3,662.8 478.9,876.4 388.7,878.7" fill="url(#suitr1x9889)" stroke="#ccccff" stroke-width="2.2" filter="url(#skr1x9889) url(#metalr1x9889)"/><polygon points="398.7,664.3 489.0,662.2 480.9,878.9 388.6,877.2" fill="url(#carbonr1x9889)"/><polygon points="393.2,724.1 491.6,724.6 484.9,787.3 383.1,788.2" fill="url(#bevelr1x9889)" fill-opacity=".5" stroke="#ccccff" stroke-width="1.4" filter="url(#skr1x9889)"/><polygon points="510.5,662.7 601.8,661.8 613.4,877.3 520.9,875.8" fill="url(#suitr1x9889)" stroke="#ccccff" stroke-width="2.2" filter="url(#skr1x9889) url(#metalr1x9889)"/><polygon points="509.9,661.5 599.6,663.2 613.2,877.6 518.9,878.8" fill="url(#carbonr1x9889)"/><polygon points="505.7,725.5 606.1,724.3 616.5,786.7 516.6,788.2" fill="url(#bevelr1x9889)" fill-opacity=".5" stroke="#ccccff" stroke-width="1.4" filter="url(#skr1x9889)"/><rect x="393.8" y="840.0" width="100.3" height="24.7" fill="url(#bevelr1x9889)" stroke="#ccccff" stroke-width="1" filter="url(#skr1x9889)"/><rect x="508.6"  y="839.8" width="100.3" height="24.7" fill="url(#bevelr1x9889)" stroke="#ccccff" stroke-width="1" filter="url(#skr1x9889)"/><polygon points="369.8,875.8 495.0,876.0 503.6,920.3 363.7,920.9" fill="#242438" stroke="#ccccff" stroke-width="2" filter="url(#skr1x9889)"/><polygon points="502.0,879.1 631.0,876.6 638.7,922.0 495.6,922.9" fill="#242438" stroke="#ccccff" stroke-width="2" filter="url(#skr1x9889)"/><polygon points="303.1,632.9 695.7,632.1 639.6,680.6 362.8,683.5" fill="#ccccff" fill-opacity=".52" stroke="#ccccff" stroke-width="2" filter="url(#skr1x9889)"/><rect x="465.5" y="636.9" width="72.0" height="42.0" fill="url(#bevelr1x9889)" stroke="#ccccff" stroke-width="1.4" filter="url(#glowr1x9889)"/><rect x="487.4" y="638.9" width="28.0" height="22.0" rx="1" fill="rgba(255,255,255,.48)"/><polygon points="152.9,467.7 234.2,468.2 257.0,735.0 127.0,736.0" fill="url(#suitr1x9889)" stroke="#ccccff" stroke-width="2.2" filter="url(#skr1x9889) url(#metalr1x9889)"/><polygon points="172.1,430.5 251.6,432.4 244.6,509.7 160.0,510.7" fill="url(#bevelr1x9889)" fill-opacity=".72" stroke="#ccccff" stroke-width="2.2" filter="url(#skr1x9889)"/><polygon points="160.6,620.1 244.8,621.6 240.8,660.1 164.0,659.8" fill="#ccccff" fill-opacity=".42" stroke="#ccccff" stroke-width="1" filter="url(#skr1x9889)"/><polygon points="766.1,466.7 847.4,466.1 872.3,734.5 741.3,733.8" fill="url(#suitr1x9889)" stroke="#ccccff" stroke-width="2.2" filter="url(#skr1x9889) url(#metalr1x9889)"/><polygon points="746.3,432.6 827.3,431.0 838.9,511.0 756.7,512.0" fill="url(#bevelr1x9889)" fill-opacity=".72" stroke="#ccccff" stroke-width="2.2" filter="url(#skr1x9889)"/><polygon points="757.9,622.0 840.4,621.3 835.6,661.2 761.2,660.5" fill="#ccccff" fill-opacity=".42" stroke="#ccccff" stroke-width="1" filter="url(#skr1x9889)"/><rect x="118.8"  y="698.5" width="135.3" height="85.0" rx="4" fill="url(#bevelr1x9889)" stroke="#ccccff" stroke-width="1.8" filter="url(#skr1x9889)"/><rect x="750.3"   y="698.7" width="135.3" height="85.0" rx="4" fill="url(#bevelr1x9889)" stroke="#ccccff" stroke-width="1.8" filter="url(#skr1x9889)"/><line x1="148.2" y1="700.7" x2="150.8" y2="782.3" stroke="#ccccff" stroke-opacity=".38" stroke-width="1"/><line x1="778.9" y1="701.3" x2="777.5" y2="782.1" stroke="#ccccff" stroke-opacity=".38" stroke-width="1"/><line x1="181.7" y1="701.2" x2="183.1" y2="782.1" stroke="#ccccff" stroke-opacity=".38" stroke-width="1"/><line x1="810.3" y1="700.9" x2="812.7" y2="784.7" stroke="#ccccff" stroke-opacity=".38" stroke-width="1"/><line x1="214.1" y1="702.0" x2="214.7" y2="783.4" stroke="#ccccff" stroke-opacity=".38" stroke-width="1"/><line x1="845.5" y1="700.2" x2="844.9" y2="785.3" stroke="#ccccff" stroke-opacity=".38" stroke-width="1"/><polygon points="233.7,418.4 764.3,416.5 720.8,662.1 276.0,663.6" fill="url(#suitr1x9889)" stroke="#ccccff" stroke-width="2.6" filter="url(#skr1x9889) url(#metalr1x9889)"/><polygon points="233.5,417.2 764.2,419.0 723.4,661.7 277.1,664.2" fill="url(#carbonr1x9889)"/><polygon points="367.8,418.7 632.3,417.8 610.8,516.3 387.5,513.8" fill="url(#suitHir1x9889)"/><line x1="361.0" y1="470.6" x2="636.9" y2="471.7" stroke="#ccccff" stroke-opacity=".52" stroke-width="1.3" filter="url(#skr1x9889)"/><line x1="398.5" y1="549.6" x2="600.5" y2="548.0" stroke="#ccccff" stroke-opacity=".52" stroke-width="1.3" filter="url(#skr1x9889)"/><line x1="265.8" y1="491.6" x2="318.7" y2="489.7" stroke="#ccccff" stroke-opacity=".62" stroke-width="1.8"/><line x1="680.5" y1="492.7" x2="733.4" y2="489.4" stroke="#ccccff" stroke-opacity=".62" stroke-width="1.8"/><line x1="267.9" y1="522.6" x2="319.6" y2="523.2" stroke="#ccccff" stroke-opacity=".62" stroke-width="1.8"/><line x1="680.5" y1="521.5" x2="732.5" y2="523.3" stroke="#ccccff" stroke-opacity=".62" stroke-width="1.8"/><line x1="267.0" y1="553.4" x2="318.4" y2="553.7" stroke="#ccccff" stroke-opacity=".62" stroke-width="1.8"/><line x1="681.2" y1="555.0" x2="733.2" y2="555.0" stroke="#ccccff" stroke-opacity=".62" stroke-width="1.8"/><line x1="265.8" y1="585.5" x2="320.7" y2="587.0" stroke="#ccccff" stroke-opacity=".62" stroke-width="1.8"/><line x1="678.4" y1="585.4" x2="732.0" y2="587.3" stroke="#ccccff" stroke-opacity=".62" stroke-width="1.8"/><g filter="url(#glowr1x9889)"><circle cx="499.9" cy="499.3" r="31.3" fill="#ccccff" stroke="#050d14" stroke-width="1.4" filter="url(#skr1x9889)"/><circle cx="489.8" cy="497.3" r="7.0" fill="#050d14"/><circle cx="513.2" cy="498.7" r="7.0" fill="#050d14"/><rect x="484.1" y="523.3" width="9.3" height="17.4" rx="1" fill="#ccccff" stroke="#050d14" stroke-width=".6"/><rect x="497.1" y="520.9" width="9.3" height="17.4" rx="1" fill="#ccccff" stroke="#050d14" stroke-width=".6"/><rect x="508.2" y="523.5" width="9.3" height="17.4" rx="1" fill="#ccccff" stroke="#050d14" stroke-width=".6"/></g><g><polygon points="31.8,294.3 173.6,295.0 172.9,591.3 103.7,726.5 30.7,593.2" fill="url(#titaniumr1x9889)" stroke="#ccccff" stroke-width="2.6" filter="url(#wmr1x9889)"/><polygon points="32.9,293.3 173.8,294.3 173.2,590.6 102.3,727.0 32.1,592.6" fill="url(#carbonr1x9889)"/><polygon points="64.7,361.6 138.5,360.8 138.4,540.4 100.4,630.3 64.4,540.9" fill="#ccccff" fill-opacity=".28" stroke="#ccccff" stroke-width="1.5"/><line x1="49.37346101956439" y1="431.84084115391596" x2="153.46196098545562" y2="430.70595846259965" stroke="#ccccff" stroke-opacity=".65" stroke-width="1.3"/><line x1="101.28171794278543" y1="331.07217287132517" x2="100.90906887523826" y2="590.7266264772974" stroke="#ccccff" stroke-opacity=".4" stroke-width="1"/><line x1="34.37702155387026" y1="297.2503573427908" x2="168.74977685049174" y2="295.37490891879423" stroke="rgba(255,255,255,.5)" stroke-width="2"/><circle cx="102.72694014724341" cy="432.8979006721638" r="18.0" fill="url(#bevelr1x9889)" stroke="#ccccff" stroke-width="1.2" filter="url(#wmr1x9889)"/></g><rect x="451.6902770284563" y="557.2416192854754" width="100.0"  height="56.0" fill="#242438" stroke="#ccccff" stroke-width="2.2" filter="url(#skr1x9889)"/><rect x="423.03950158376244" y="576.1827179972082" width="152.0" height="26.0" fill="url(#bevelr1x9889)" fill-opacity=".65" stroke="#ccccff" stroke-width="1.2" filter="url(#skr1x9889)"/><polygon points="308.3,380.2 350.1,294.5 501.3,276.7 648.1,295.4 691.5,379.3 670.6,505.1 498.5,566.2 330.8,502.8" fill="url(#suitr1x9889)" stroke="#ccccff" stroke-width="2.8" filter="url(#skr1x9889) url(#metalr1x9889)"/><polygon points="307.5,379.1 350.8,294.5 498.7,279.8 650.6,293.4 692.6,380.4 667.6,505.0 498.3,564.6 330.5,504.7" fill="url(#carbonr1x9889)"/><polygon points="381.9,302.4 499.5,285.1 617.9,304.5 605.9,379.2 392.5,381.1" fill="url(#suitHir1x9889)"/><polygon points="381.0,380.8 367.1,424.3 433.0,502.8 499.4,528.9 566.8,504.7 633.8,427.2 617.3,380.9" fill="#050d14" fill-opacity=".88" stroke="#ccccff" stroke-width="1.8" filter="url(#skr1x9889)"/><polygon points="381.5,411.9 475.3,412.2 484.5,441.5 387.8,441.2" fill="#ccccff" filter="url(#glowr1x9889)"/><polygon points="521.6,411.2 620.8,409.8 610.0,441.0 514.7,440.8" fill="#ccccff" filter="url(#glowr1x9889)"/><ellipse cx="430.9" cy="425.7" rx="38.4"  ry="8.2" fill="#ffffff" opacity=".88"/><ellipse cx="569.1" cy="425.7" rx="38.4"  ry="8.2" fill="#ffffff" opacity=".88"/><line x1="484.5784021387435" y1="412.6167855698615" x2="515.611328201592" y2="413.0939048806205" stroke="#ccccff" stroke-opacity=".52" stroke-width="2"/><line x1="484.8447631235793" y1="439.02794083356855" x2="515.6805083031207" y2="438.5881201637909" stroke="#ccccff" stroke-opacity=".52" stroke-width="2"/><line x1="499.1732152653858" y1="453.137011525128" x2="501.35468552326785" y2="482.91760430522265" stroke="#ccccff" stroke-opacity=".58" stroke-width="2.2" filter="url(#skr1x9889)"/><line x1="454.7204648461938" y1="490.2838224357925" x2="453.30915648581464" y2="520.0456936400384" stroke="#ccccff" stroke-opacity=".52" stroke-width="1.5" filter="url(#skr1x9889)"/><line x1="476.3067260128818" y1="489.8737682150676" x2="475.93836113218214" y2="519.7678003558889" stroke="#ccccff" stroke-opacity=".52" stroke-width="1.5" filter="url(#skr1x9889)"/><line x1="500.4771689726971" y1="490.13921134630215" x2="501.7896304449998" y2="520.3527635353618" stroke="#ccccff" stroke-opacity=".52" stroke-width="1.5" filter="url(#skr1x9889)"/><line x1="522.8839461039379" y1="491.4763104389421" x2="523.506909681633" y2="520.6539940118789" stroke="#ccccff" stroke-opacity=".52" stroke-width="1.5" filter="url(#skr1x9889)"/><line x1="544.8647296789289" y1="490.31557246139266" x2="547.1472621602193" y2="520.0361274728551" stroke="#ccccff" stroke-opacity=".52" stroke-width="1.5" filter="url(#skr1x9889)"/><polygon points="432.3,501.8 565.5,503.6 555.1,557.1 447.5,558.7" fill="#242438" fill-opacity=".72" stroke="#ccccff" stroke-width="1.3" filter="url(#skr1x9889)"/><text x="30.0"  y="975.0" font-family="monospace" font-weight="bold" font-size="22.0" fill="rgba(255,255,255,.22)">#0001</text><text x="500.0"   y="975.0" text-anchor="middle" font-family="monospace" font-weight="bold" font-size="22.0" fill="#ccccff" fill-opacity=".48">PHANTOM RANGER</text><text x="970.0" y="975.0" text-anchor="end"    font-family="monospace" font-weight="bold" font-size="22.0" fill="#ccccff" fill-opacity=".32">MECH RANGERS</text></svg>